<?xml version="1.0" encoding="UTF-8" standalone="no"?>
<!DOCTYPE svg PUBLIC "-//W3C//DTD SVG 1.1//EN"
 "http://www.w3.org/Graphics/SVG/1.1/DTD/svg11.dtd">
<!-- Generated by graphviz version 8.1.0 (20230707.0739)
 -->
<!-- Title: include/Utility/ConvertString.h Pages: 1 -->
<svg width="175pt" height="86pt"
 viewBox="0.00 0.00 174.75 86.00" xmlns="http://www.w3.org/2000/svg" xmlns:xlink="http://www.w3.org/1999/xlink">
<g id="graph0" class="graph" transform="scale(1 1) rotate(0) translate(4 82)">
<title>include/Utility/ConvertString.h</title>
<!-- Node1 -->
<g id="node1" class="node">
<title>Node1</title>
<g id="a_node1"><a xlink:title=" ">
<polygon fill="#bfbfbf" stroke="black" points="12,-57.5 12,-77.5 155.5,-77.5 155.5,-57.5 12,-57.5"/>
<text text-anchor="middle" x="83.75" y="-64" font-family="Helvetica,sans-Serif" font-size="10.00">include/Utility/ConvertString.h</text>
</a>
</g>
</g>
<!-- Node2 -->
<g id="node2" class="node">
<title>Node2</title>
<g id="a_node2"><a xlink:title=" ">
<polygon fill="none" stroke="#bfbfbf" points="0,-0.5 0,-20.5 41.5,-20.5 41.5,-0.5 0,-0.5"/>
<text text-anchor="middle" x="20.75" y="-7" font-family="Helvetica,sans-Serif" font-size="10.00">locale</text>
</a>
</g>
</g>
<!-- Node1&#45;&gt;Node2 -->
<g id="edge1" class="edge">
<title>Node1&#45;&gt;Node2</title>
<path fill="none" stroke="midnightblue" d="M73.63,-57.66C64.31,-49.53 50.28,-37.28 39.01,-27.44"/>
<polygon fill="midnightblue" stroke="midnightblue" points="41.89,-24.44 32.06,-20.5 37.29,-29.71 41.89,-24.44"/>
</g>
<!-- Node3 -->
<g id="node3" class="node">
<title>Node3</title>
<g id="a_node3"><a xlink:title=" ">
<polygon fill="none" stroke="#bfbfbf" points="59.25,-0.5 59.25,-20.5 108.25,-20.5 108.25,-0.5 59.25,-0.5"/>
<text text-anchor="middle" x="83.75" y="-7" font-family="Helvetica,sans-Serif" font-size="10.00">codecvt</text>
</a>
</g>
</g>
<!-- Node1&#45;&gt;Node3 -->
<g id="edge2" class="edge">
<title>Node1&#45;&gt;Node3</title>
<path fill="none" stroke="midnightblue" d="M83.75,-57.91C83.75,-50.76 83.75,-40.32 83.75,-31.15"/>
<polygon fill="midnightblue" stroke="midnightblue" points="87.25,-31.21 83.75,-21.21 80.25,-31.21 87.25,-31.21"/>
</g>
<!-- Node4 -->
<g id="node4" class="node">
<title>Node4</title>
<g id="a_node4"><a xlink:title=" ">
<polygon fill="none" stroke="#bfbfbf" points="126.75,-0.5 126.75,-20.5 166.75,-20.5 166.75,-0.5 126.75,-0.5"/>
<text text-anchor="middle" x="146.75" y="-7" font-family="Helvetica,sans-Serif" font-size="10.00">string</text>
</a>
</g>
</g>
<!-- Node1&#45;&gt;Node4 -->
<g id="edge3" class="edge">
<title>Node1&#45;&gt;Node4</title>
<path fill="none" stroke="midnightblue" d="M93.87,-57.66C103.19,-49.53 117.22,-37.28 128.49,-27.44"/>
<polygon fill="midnightblue" stroke="midnightblue" points="130.21,-29.71 135.44,-20.5 125.61,-24.44 130.21,-29.71"/>
</g>
</g>
</svg>
