<?xml version="1.0" encoding="UTF-8" standalone="no"?>
<!DOCTYPE svg PUBLIC "-//W3C//DTD SVG 1.1//EN"
 "http://www.w3.org/Graphics/SVG/1.1/DTD/svg11.dtd">
<!-- Generated by graphviz version 8.1.0 (20230707.0739)
 -->
<!-- Title: include/Scenes/ConHexWireScene.h Pages: 1 -->
<svg width="1157pt" height="383pt"
 viewBox="0.00 0.00 1156.94 383.00" xmlns="http://www.w3.org/2000/svg" xmlns:xlink="http://www.w3.org/1999/xlink">
<g id="graph0" class="graph" transform="scale(1 1) rotate(0) translate(4 379)">
<title>include/Scenes/ConHexWireScene.h</title>
<!-- Node1 -->
<g id="node1" class="node">
<title>Node1</title>
<g id="a_node1"><a xlink:title=" ">
<polygon fill="#bfbfbf" stroke="black" points="788.69,-342.5 788.69,-374.5 929.19,-374.5 929.19,-342.5 788.69,-342.5"/>
<text text-anchor="start" x="796.69" y="-361" font-family="Helvetica,sans-Serif" font-size="10.00">include/Scenes/ConHexWire</text>
<text text-anchor="middle" x="858.94" y="-349" font-family="Helvetica,sans-Serif" font-size="10.00">Scene.h</text>
</a>
</g>
</g>
<!-- Node2 -->
<g id="node2" class="node">
<title>Node2</title>
<g id="a_node2"><a xlink:href="_scene_8h.html" target="_top" xlink:title=" ">
<polygon fill="none" stroke="black" points="273.94,-285.5 273.94,-305.5 325.94,-305.5 325.94,-285.5 273.94,-285.5"/>
<text text-anchor="middle" x="299.94" y="-292" font-family="Helvetica,sans-Serif" font-size="10.00">Scene.h</text>
</a>
</g>
</g>
<!-- Node1&#45;&gt;Node2 -->
<g id="edge1" class="edge">
<title>Node1&#45;&gt;Node2</title>
<path fill="none" stroke="midnightblue" d="M788.71,-349.84C668.65,-336.74 428.06,-310.48 336.48,-300.49"/>
<polygon fill="midnightblue" stroke="midnightblue" points="337.13,-296.93 326.81,-299.32 336.38,-303.89 337.13,-296.93"/>
</g>
<!-- Node19 -->
<g id="node19" class="node">
<title>Node19</title>
<g id="a_node19"><a xlink:href="_matrix3_8h.html" target="_top" xlink:title=" ">
<polygon fill="none" stroke="black" points="866.69,-57.5 866.69,-77.5 923.19,-77.5 923.19,-57.5 866.69,-57.5"/>
<text text-anchor="middle" x="894.94" y="-64" font-family="Helvetica,sans-Serif" font-size="10.00">Matrix3.h</text>
</a>
</g>
</g>
<!-- Node1&#45;&gt;Node19 -->
<g id="edge67" class="edge">
<title>Node1&#45;&gt;Node19</title>
<path fill="none" stroke="midnightblue" d="M929.14,-343.49C1014.97,-324.31 1148.94,-286.79 1148.94,-239.5 1148.94,-239.5 1148.94,-239.5 1148.94,-180.5 1148.94,-87.63 1005.03,-71.11 933.86,-68.62"/>
<polygon fill="midnightblue" stroke="midnightblue" points="934.18,-65.1 924.09,-68.33 933.99,-72.1 934.18,-65.1"/>
</g>
<!-- Node35 -->
<g id="node35" class="node">
<title>Node35</title>
<g id="a_node35"><a xlink:href="_concave_hexahedron_8h.html" target="_top" xlink:title=" ">
<polygon fill="none" stroke="black" points="862.56,-228.5 862.56,-248.5 975.31,-248.5 975.31,-228.5 862.56,-228.5"/>
<text text-anchor="middle" x="918.94" y="-235" font-family="Helvetica,sans-Serif" font-size="10.00">ConcaveHexahedron.h</text>
</a>
</g>
</g>
<!-- Node1&#45;&gt;Node35 -->
<g id="edge55" class="edge">
<title>Node1&#45;&gt;Node35</title>
<path fill="none" stroke="midnightblue" d="M866.54,-342.56C877.48,-321.03 897.66,-281.34 909.53,-258"/>
<polygon fill="midnightblue" stroke="midnightblue" points="913.07,-259.77 914.48,-249.27 906.83,-256.6 913.07,-259.77"/>
</g>
<!-- Node39 -->
<g id="node39" class="node">
<title>Node39</title>
<g id="a_node39"><a xlink:href="_pube_screen_transformer_8h.html" target="_top" xlink:title=" ">
<polygon fill="none" stroke="black" points="734.69,-285.5 734.69,-305.5 863.19,-305.5 863.19,-285.5 734.69,-285.5"/>
<text text-anchor="middle" x="798.94" y="-292" font-family="Helvetica,sans-Serif" font-size="10.00">PubeScreenTransformer.h</text>
</a>
</g>
</g>
<!-- Node1&#45;&gt;Node39 -->
<g id="edge64" class="edge">
<title>Node1&#45;&gt;Node39</title>
<path fill="none" stroke="midnightblue" d="M844.41,-342.73C835.6,-333.77 824.33,-322.31 815.21,-313.04"/>
<polygon fill="midnightblue" stroke="midnightblue" points="818.09,-310.96 808.58,-306.28 813.1,-315.87 818.09,-310.96"/>
</g>
<!-- Node3 -->
<g id="node3" class="node">
<title>Node3</title>
<g id="a_node3"><a xlink:title=" ">
<polygon fill="none" stroke="#bfbfbf" points="40.94,-57.5 40.94,-77.5 80.94,-77.5 80.94,-57.5 40.94,-57.5"/>
<text text-anchor="middle" x="60.94" y="-64" font-family="Helvetica,sans-Serif" font-size="10.00">string</text>
</a>
</g>
</g>
<!-- Node2&#45;&gt;Node3 -->
<g id="edge2" class="edge">
<title>Node2&#45;&gt;Node3</title>
<path fill="none" stroke="midnightblue" d="M274.23,-292.39C237.48,-288.46 168.73,-277.61 117.94,-249 55.24,-213.68 30.63,-201.43 2.94,-135 -0.65,-126.38 -1.14,-122.39 2.94,-114 9.24,-101.05 21.2,-90.7 32.63,-83.16"/>
<polygon fill="midnightblue" stroke="midnightblue" points="34.24,-85.67 40.98,-77.49 30.61,-79.68 34.24,-85.67"/>
</g>
<!-- Node4 -->
<g id="node4" class="node">
<title>Node4</title>
<g id="a_node4"><a xlink:href="_keyboard_8h.html" target="_top" xlink:title=" ">
<polygon fill="none" stroke="black" points="127.19,-228.5 127.19,-248.5 192.69,-248.5 192.69,-228.5 127.19,-228.5"/>
<text text-anchor="middle" x="159.94" y="-235" font-family="Helvetica,sans-Serif" font-size="10.00">Keyboard.h</text>
</a>
</g>
</g>
<!-- Node2&#45;&gt;Node4 -->
<g id="edge3" class="edge">
<title>Node2&#45;&gt;Node4</title>
<path fill="none" stroke="midnightblue" d="M277.13,-285.54C254.25,-276.55 218.78,-262.62 192.85,-252.43"/>
<polygon fill="midnightblue" stroke="midnightblue" points="194.32,-248.85 183.73,-248.46 191.76,-255.37 194.32,-248.85"/>
</g>
<!-- Node7 -->
<g id="node7" class="node">
<title>Node7</title>
<g id="a_node7"><a xlink:href="_mouse_8h.html" target="_top" xlink:title=" ">
<polygon fill="none" stroke="black" points="273.19,-228.5 273.19,-248.5 326.69,-248.5 326.69,-228.5 273.19,-228.5"/>
<text text-anchor="middle" x="299.94" y="-235" font-family="Helvetica,sans-Serif" font-size="10.00">Mouse.h</text>
</a>
</g>
</g>
<!-- Node2&#45;&gt;Node7 -->
<g id="edge6" class="edge">
<title>Node2&#45;&gt;Node7</title>
<path fill="none" stroke="midnightblue" d="M299.94,-285.91C299.94,-278.76 299.94,-268.32 299.94,-259.15"/>
<polygon fill="midnightblue" stroke="midnightblue" points="303.44,-259.21 299.94,-249.21 296.44,-259.21 303.44,-259.21"/>
</g>
<!-- Node20 -->
<g id="node20" class="node">
<title>Node20</title>
<g id="a_node20"><a xlink:href="_graphics_8h.html" target="_top" xlink:title=" ">
<polygon fill="none" stroke="black" points="483.31,-228.5 483.31,-248.5 546.56,-248.5 546.56,-228.5 483.31,-228.5"/>
<text text-anchor="middle" x="514.94" y="-235" font-family="Helvetica,sans-Serif" font-size="10.00">Graphics.h</text>
</a>
</g>
</g>
<!-- Node2&#45;&gt;Node20 -->
<g id="edge26" class="edge">
<title>Node2&#45;&gt;Node20</title>
<path fill="none" stroke="midnightblue" d="M325.87,-287.87C362.32,-278.54 429.12,-261.45 472.77,-250.29"/>
<polygon fill="midnightblue" stroke="midnightblue" points="473.51,-253.45 482.33,-247.59 471.78,-246.67 473.51,-253.45"/>
</g>
<!-- Node5 -->
<g id="node5" class="node">
<title>Node5</title>
<g id="a_node5"><a xlink:title=" ">
<polygon fill="none" stroke="#bfbfbf" points="80.94,-171.5 80.94,-191.5 120.94,-191.5 120.94,-171.5 80.94,-171.5"/>
<text text-anchor="middle" x="100.94" y="-178" font-family="Helvetica,sans-Serif" font-size="10.00">bitset</text>
</a>
</g>
</g>
<!-- Node4&#45;&gt;Node5 -->
<g id="edge4" class="edge">
<title>Node4&#45;&gt;Node5</title>
<path fill="none" stroke="midnightblue" d="M150.46,-228.66C141.82,-220.61 128.85,-208.52 118.35,-198.73"/>
<polygon fill="midnightblue" stroke="midnightblue" points="121.29,-196.76 111.59,-192.5 116.52,-201.88 121.29,-196.76"/>
</g>
<!-- Node6 -->
<g id="node6" class="node">
<title>Node6</title>
<g id="a_node6"><a xlink:title=" ">
<polygon fill="none" stroke="#bfbfbf" points="138.81,-171.5 138.81,-191.5 181.06,-191.5 181.06,-171.5 138.81,-171.5"/>
<text text-anchor="middle" x="159.94" y="-178" font-family="Helvetica,sans-Serif" font-size="10.00">queue</text>
</a>
</g>
</g>
<!-- Node4&#45;&gt;Node6 -->
<g id="edge5" class="edge">
<title>Node4&#45;&gt;Node6</title>
<path fill="none" stroke="midnightblue" d="M159.94,-228.91C159.94,-221.76 159.94,-211.32 159.94,-202.15"/>
<polygon fill="midnightblue" stroke="midnightblue" points="163.44,-202.21 159.94,-192.21 156.44,-202.21 163.44,-202.21"/>
</g>
<!-- Node7&#45;&gt;Node6 -->
<g id="edge25" class="edge">
<title>Node7&#45;&gt;Node6</title>
<path fill="none" stroke="midnightblue" d="M277.13,-228.54C253.71,-219.34 217.08,-204.95 191.01,-194.71"/>
<polygon fill="midnightblue" stroke="midnightblue" points="192.49,-191.13 181.9,-190.74 189.93,-197.65 192.49,-191.13"/>
</g>
<!-- Node8 -->
<g id="node8" class="node">
<title>Node8</title>
<g id="a_node8"><a xlink:href="_vector2_8h.html" target="_top" xlink:title=" ">
<polygon fill="none" stroke="black" points="638.81,-114.5 638.81,-134.5 759.06,-134.5 759.06,-114.5 638.81,-114.5"/>
<text text-anchor="middle" x="698.94" y="-121" font-family="Helvetica,sans-Serif" font-size="10.00">LinearAlgebra/Vector2.h</text>
</a>
</g>
</g>
<!-- Node7&#45;&gt;Node8 -->
<g id="edge7" class="edge">
<title>Node7&#45;&gt;Node8</title>
<path fill="none" stroke="midnightblue" d="M307.3,-228.83C320.31,-214.18 348.9,-184.77 379.94,-171 423.19,-151.81 548.56,-138.12 628.64,-131.03"/>
<polygon fill="midnightblue" stroke="midnightblue" points="628.49,-134.47 638.15,-130.12 627.88,-127.5 628.49,-134.47"/>
</g>
<!-- Node9 -->
<g id="node9" class="node">
<title>Node9</title>
<g id="a_node9"><a xlink:title=" ">
<polygon fill="none" stroke="#bfbfbf" points="892.06,-0.5 892.06,-20.5 929.81,-20.5 929.81,-0.5 892.06,-0.5"/>
<text text-anchor="middle" x="910.94" y="-7" font-family="Helvetica,sans-Serif" font-size="10.00">array</text>
</a>
</g>
</g>
<!-- Node8&#45;&gt;Node9 -->
<g id="edge8" class="edge">
<title>Node8&#45;&gt;Node9</title>
<path fill="none" stroke="midnightblue" d="M708.43,-114.66C723.74,-100.8 755.26,-73.8 785.94,-57 790.35,-54.59 846.51,-34.43 882.04,-21.77"/>
<polygon fill="midnightblue" stroke="midnightblue" points="883.07,-24.76 891.32,-18.11 880.72,-18.17 883.07,-24.76"/>
</g>
<!-- Node10 -->
<g id="node10" class="node">
<title>Node10</title>
<g id="a_node10"><a xlink:title=" ">
<polygon fill="none" stroke="#bfbfbf" points="795.19,-57.5 795.19,-77.5 848.69,-77.5 848.69,-57.5 795.19,-57.5"/>
<text text-anchor="middle" x="821.94" y="-64" font-family="Helvetica,sans-Serif" font-size="10.00">compare</text>
</a>
</g>
</g>
<!-- Node8&#45;&gt;Node10 -->
<g id="edge9" class="edge">
<title>Node8&#45;&gt;Node10</title>
<path fill="none" stroke="midnightblue" d="M718.98,-114.54C738.81,-105.67 769.42,-91.99 792.11,-81.84"/>
<polygon fill="midnightblue" stroke="midnightblue" points="793.21,-84.73 800.91,-77.46 790.35,-78.34 793.21,-84.73"/>
</g>
<!-- Node11 -->
<g id="node11" class="node">
<title>Node11</title>
<g id="a_node11"><a xlink:title=" ">
<polygon fill="none" stroke="#bfbfbf" points="965.19,-0.5 965.19,-20.5 1012.69,-20.5 1012.69,-0.5 965.19,-0.5"/>
<text text-anchor="middle" x="988.94" y="-7" font-family="Helvetica,sans-Serif" font-size="10.00">cstddef</text>
</a>
</g>
</g>
<!-- Node8&#45;&gt;Node11 -->
<g id="edge10" class="edge">
<title>Node8&#45;&gt;Node11</title>
<path fill="none" stroke="midnightblue" d="M755.03,-114.53C819.02,-103.99 916.8,-86.82 931.94,-78 952.2,-66.2 968.74,-44.48 978.68,-29.08"/>
<polygon fill="midnightblue" stroke="midnightblue" points="981.98,-31.39 984.24,-21.04 976.02,-27.72 981.98,-31.39"/>
</g>
<!-- Node12 -->
<g id="node12" class="node">
<title>Node12</title>
<g id="a_node12"><a xlink:title=" ">
<polygon fill="none" stroke="#bfbfbf" points="565.19,-0.5 565.19,-20.5 618.69,-20.5 618.69,-0.5 565.19,-0.5"/>
<text text-anchor="middle" x="591.94" y="-7" font-family="Helvetica,sans-Serif" font-size="10.00">iostream</text>
</a>
</g>
</g>
<!-- Node8&#45;&gt;Node12 -->
<g id="edge11" class="edge">
<title>Node8&#45;&gt;Node12</title>
<path fill="none" stroke="midnightblue" d="M682.04,-114.5C667.78,-106.33 647.41,-93.23 632.94,-78 619.39,-63.74 608.03,-44.29 600.73,-30.11"/>
<polygon fill="midnightblue" stroke="midnightblue" points="603.54,-28.89 595.97,-21.47 597.26,-31.99 603.54,-28.89"/>
</g>
<!-- Node13 -->
<g id="node13" class="node">
<title>Node13</title>
<g id="a_node13"><a xlink:href="_math_8h.html" target="_top" xlink:title=" ">
<polygon fill="none" stroke="black" points="674.94,-57.5 674.94,-77.5 720.94,-77.5 720.94,-57.5 674.94,-57.5"/>
<text text-anchor="middle" x="697.94" y="-64" font-family="Helvetica,sans-Serif" font-size="10.00">Math.h</text>
</a>
</g>
</g>
<!-- Node8&#45;&gt;Node13 -->
<g id="edge12" class="edge">
<title>Node8&#45;&gt;Node13</title>
<path fill="none" stroke="midnightblue" d="M698.78,-114.91C698.65,-107.76 698.46,-97.32 698.3,-88.15"/>
<polygon fill="midnightblue" stroke="midnightblue" points="701.78,-88.15 698.1,-78.21 694.78,-88.28 701.78,-88.15"/>
</g>
<!-- Node18 -->
<g id="node18" class="node">
<title>Node18</title>
<g id="a_node18"><a xlink:href="_matrix2_8h.html" target="_top" xlink:title=" ">
<polygon fill="none" stroke="black" points="524.69,-57.5 524.69,-77.5 581.19,-77.5 581.19,-57.5 524.69,-57.5"/>
<text text-anchor="middle" x="552.94" y="-64" font-family="Helvetica,sans-Serif" font-size="10.00">Matrix2.h</text>
</a>
</g>
</g>
<!-- Node8&#45;&gt;Node18 -->
<g id="edge18" class="edge">
<title>Node8&#45;&gt;Node18</title>
<path fill="none" stroke="midnightblue" d="M675.16,-114.54C651.19,-105.51 613.97,-91.49 586.9,-81.29"/>
<polygon fill="midnightblue" stroke="midnightblue" points="588.3,-77.71 577.71,-77.46 585.84,-84.26 588.3,-77.71"/>
</g>
<!-- Node8&#45;&gt;Node19 -->
<g id="edge20" class="edge">
<title>Node8&#45;&gt;Node19</title>
<path fill="none" stroke="midnightblue" d="M730.87,-114.54C765.22,-104.9 819.86,-89.57 856.54,-79.28"/>
<polygon fill="midnightblue" stroke="midnightblue" points="857.16,-82.46 865.84,-76.38 855.27,-75.72 857.16,-82.46"/>
</g>
<!-- Node13&#45;&gt;Node13 -->
<g id="edge13" class="edge">
<title>Node13&#45;&gt;Node13</title>
<path fill="none" stroke="midnightblue" d="M716.49,-77.43C727.99,-79.83 738.94,-76.52 738.94,-67.5 738.94,-61.44 734,-57.96 727.27,-57.05"/>
<polygon fill="midnightblue" stroke="midnightblue" points="727.31,-53.59 717.49,-57.57 727.65,-60.59 727.31,-53.59"/>
</g>
<!-- Node14 -->
<g id="node14" class="node">
<title>Node14</title>
<g id="a_node14"><a xlink:title=" ">
<polygon fill="none" stroke="#bfbfbf" points="831.44,-0.5 831.44,-20.5 874.44,-20.5 874.44,-0.5 831.44,-0.5"/>
<text text-anchor="middle" x="852.94" y="-7" font-family="Helvetica,sans-Serif" font-size="10.00">cmath</text>
</a>
</g>
</g>
<!-- Node13&#45;&gt;Node14 -->
<g id="edge14" class="edge">
<title>Node13&#45;&gt;Node14</title>
<path fill="none" stroke="midnightblue" d="M720.81,-58.38C747.36,-48.96 791.31,-33.37 821.17,-22.77"/>
<polygon fill="midnightblue" stroke="midnightblue" points="822.22,-25.76 830.47,-19.12 819.88,-19.16 822.22,-25.76"/>
</g>
<!-- Node15 -->
<g id="node15" class="node">
<title>Node15</title>
<g id="a_node15"><a xlink:title=" ">
<polygon fill="none" stroke="#bfbfbf" points="703.31,-0.5 703.31,-20.5 742.56,-20.5 742.56,-0.5 703.31,-0.5"/>
<text text-anchor="middle" x="722.94" y="-7" font-family="Helvetica,sans-Serif" font-size="10.00">limits</text>
</a>
</g>
</g>
<!-- Node13&#45;&gt;Node15 -->
<g id="edge15" class="edge">
<title>Node13&#45;&gt;Node15</title>
<path fill="none" stroke="midnightblue" d="M701.85,-57.91C705.24,-50.44 710.27,-39.38 714.56,-29.93"/>
<polygon fill="midnightblue" stroke="midnightblue" points="718.03,-31.77 718.98,-21.21 711.65,-28.87 718.03,-31.77"/>
</g>
<!-- Node16 -->
<g id="node16" class="node">
<title>Node16</title>
<g id="a_node16"><a xlink:title=" ">
<polygon fill="none" stroke="#bfbfbf" points="760.19,-0.5 760.19,-20.5 813.69,-20.5 813.69,-0.5 760.19,-0.5"/>
<text text-anchor="middle" x="786.94" y="-7" font-family="Helvetica,sans-Serif" font-size="10.00">numbers</text>
</a>
</g>
</g>
<!-- Node13&#45;&gt;Node16 -->
<g id="edge16" class="edge">
<title>Node13&#45;&gt;Node16</title>
<path fill="none" stroke="midnightblue" d="M712.24,-57.66C726.04,-49.13 747.18,-36.07 763.45,-26.01"/>
<polygon fill="midnightblue" stroke="midnightblue" points="764.71,-28.73 771.38,-20.5 761.03,-22.78 764.71,-28.73"/>
</g>
<!-- Node17 -->
<g id="node17" class="node">
<title>Node17</title>
<g id="a_node17"><a xlink:title=" ">
<polygon fill="none" stroke="#bfbfbf" points="636.81,-0.5 636.81,-20.5 685.06,-20.5 685.06,-0.5 636.81,-0.5"/>
<text text-anchor="middle" x="660.94" y="-7" font-family="Helvetica,sans-Serif" font-size="10.00">random</text>
</a>
</g>
</g>
<!-- Node13&#45;&gt;Node17 -->
<g id="edge17" class="edge">
<title>Node13&#45;&gt;Node17</title>
<path fill="none" stroke="midnightblue" d="M692.16,-57.91C687.03,-50.28 679.37,-38.9 672.93,-29.32"/>
<polygon fill="midnightblue" stroke="midnightblue" points="675.29,-27.56 666.8,-21.21 669.48,-31.47 675.29,-27.56"/>
</g>
<!-- Node18&#45;&gt;Node12 -->
<g id="edge19" class="edge">
<title>Node18&#45;&gt;Node12</title>
<path fill="none" stroke="midnightblue" d="M559.03,-57.91C564.5,-50.2 572.68,-38.66 579.52,-29.02"/>
<polygon fill="midnightblue" stroke="midnightblue" points="582.83,-31.4 585.76,-21.21 577.12,-27.35 582.83,-31.4"/>
</g>
<!-- Node19&#45;&gt;Node9 -->
<g id="edge21" class="edge">
<title>Node19&#45;&gt;Node9</title>
<path fill="none" stroke="midnightblue" d="M897.44,-57.91C899.56,-50.6 902.69,-39.85 905.4,-30.54"/>
<polygon fill="midnightblue" stroke="midnightblue" points="908.97,-31.79 908.4,-21.21 902.25,-29.84 908.97,-31.79"/>
</g>
<!-- Node19&#45;&gt;Node11 -->
<g id="edge23" class="edge">
<title>Node19&#45;&gt;Node11</title>
<path fill="none" stroke="midnightblue" d="M910.04,-57.66C924.62,-49.13 946.95,-36.07 964.13,-26.01"/>
<polygon fill="midnightblue" stroke="midnightblue" points="965.7,-28.57 972.56,-20.5 962.16,-22.53 965.7,-28.57"/>
</g>
<!-- Node19&#45;&gt;Node12 -->
<g id="edge24" class="edge">
<title>Node19&#45;&gt;Node12</title>
<path fill="none" stroke="midnightblue" d="M866.72,-58.96C863.77,-58.26 860.8,-57.59 857.94,-57 759.97,-36.8 731.11,-41.85 629.35,-21.09"/>
<polygon fill="midnightblue" stroke="midnightblue" points="630.11,-17.47 619.6,-18.86 628.68,-24.32 630.11,-17.47"/>
</g>
<!-- Node19&#45;&gt;Node14 -->
<g id="edge22" class="edge">
<title>Node19&#45;&gt;Node14</title>
<path fill="none" stroke="midnightblue" d="M888.38,-57.91C882.43,-50.12 873.5,-38.42 866.09,-28.71"/>
<polygon fill="midnightblue" stroke="midnightblue" points="868.45,-27.04 859.59,-21.21 862.88,-31.29 868.45,-27.04"/>
</g>
<!-- Node20&#45;&gt;Node8 -->
<g id="edge34" class="edge">
<title>Node20&#45;&gt;Node8</title>
<path fill="none" stroke="midnightblue" d="M514.87,-228.83C515.23,-214.7 518.07,-186.72 533.94,-171 558.78,-146.38 595.66,-134.79 628.25,-129.44"/>
<polygon fill="midnightblue" stroke="midnightblue" points="628.73,-132.76 638.12,-127.85 627.72,-125.83 628.73,-132.76"/>
</g>
<!-- Node21 -->
<g id="node21" class="node">
<title>Node21</title>
<g id="a_node21"><a xlink:href="_engine_exception_8h.html" target="_top" xlink:title=" ">
<polygon fill="none" stroke="black" points="12.06,-114.5 12.06,-134.5 109.81,-134.5 109.81,-114.5 12.06,-114.5"/>
<text text-anchor="middle" x="60.94" y="-121" font-family="Helvetica,sans-Serif" font-size="10.00">EngineException.h</text>
</a>
</g>
</g>
<!-- Node20&#45;&gt;Node21 -->
<g id="edge27" class="edge">
<title>Node20&#45;&gt;Node21</title>
<path fill="none" stroke="midnightblue" d="M483.5,-236.07C429.77,-232.86 317.39,-222.75 227.94,-192 209.69,-185.73 207.54,-178.9 189.94,-171 160.81,-157.92 126.68,-146.03 100.85,-137.68"/>
<polygon fill="midnightblue" stroke="midnightblue" points="102.28,-134.14 91.69,-134.44 100.15,-140.81 102.28,-134.14"/>
</g>
<!-- Node22 -->
<g id="node22" class="node">
<title>Node22</title>
<g id="a_node22"><a xlink:href="_colors_8h.html" target="_top" xlink:title=" ">
<polygon fill="none" stroke="black" points="383.94,-114.5 383.94,-134.5 435.94,-134.5 435.94,-114.5 383.94,-114.5"/>
<text text-anchor="middle" x="409.94" y="-121" font-family="Helvetica,sans-Serif" font-size="10.00">Colors.h</text>
</a>
</g>
</g>
<!-- Node20&#45;&gt;Node22 -->
<g id="edge29" class="edge">
<title>Node20&#45;&gt;Node22</title>
<path fill="none" stroke="midnightblue" d="M483.45,-236.79C451.46,-234.18 403.38,-224.64 379.94,-192 368.8,-176.5 381.18,-156.2 393.24,-142.12"/>
<polygon fill="midnightblue" stroke="midnightblue" points="395.29,-144.99 399.5,-135.26 390.14,-140.24 395.29,-144.99"/>
</g>
<!-- Node23 -->
<g id="node23" class="node">
<title>Node23</title>
<g id="a_node23"><a xlink:href="_g_d_i_plus_manager_8h.html" target="_top" xlink:title=" ">
<polygon fill="none" stroke="black" points="389.06,-171.5 389.06,-191.5 486.81,-191.5 486.81,-171.5 389.06,-171.5"/>
<text text-anchor="middle" x="437.94" y="-178" font-family="Helvetica,sans-Serif" font-size="10.00">GDIPlusManager.h</text>
</a>
</g>
</g>
<!-- Node20&#45;&gt;Node23 -->
<g id="edge30" class="edge">
<title>Node20&#45;&gt;Node23</title>
<path fill="none" stroke="midnightblue" d="M502.57,-228.66C490.96,-220.37 473.36,-207.8 459.45,-197.87"/>
<polygon fill="midnightblue" stroke="midnightblue" points="461.71,-194.46 451.54,-191.5 457.64,-200.16 461.71,-194.46"/>
</g>
<!-- Node27 -->
<g id="node27" class="node">
<title>Node27</title>
<g id="a_node27"><a xlink:href="_vector3_8h.html" target="_top" xlink:title=" ">
<polygon fill="none" stroke="black" points="776.81,-114.5 776.81,-134.5 897.06,-134.5 897.06,-114.5 776.81,-114.5"/>
<text text-anchor="middle" x="836.94" y="-121" font-family="Helvetica,sans-Serif" font-size="10.00">LinearAlgebra/Vector3.h</text>
</a>
</g>
</g>
<!-- Node20&#45;&gt;Node27 -->
<g id="edge35" class="edge">
<title>Node20&#45;&gt;Node27</title>
<path fill="none" stroke="midnightblue" d="M546.24,-235.31C591.17,-231.27 675.79,-220.3 741.94,-192 771.53,-179.34 801.2,-156.57 819.32,-141.24"/>
<polygon fill="midnightblue" stroke="midnightblue" points="820.96,-143.58 826.24,-134.39 816.38,-138.29 820.96,-143.58"/>
</g>
<!-- Node28 -->
<g id="node28" class="node">
<title>Node28</title>
<g id="a_node28"><a xlink:href="_surface_8h.html" target="_top" xlink:title=" ">
<polygon fill="none" stroke="black" points="237.31,-171.5 237.31,-191.5 294.56,-191.5 294.56,-171.5 237.31,-171.5"/>
<text text-anchor="middle" x="265.94" y="-178" font-family="Helvetica,sans-Serif" font-size="10.00">Surface.h</text>
</a>
</g>
</g>
<!-- Node20&#45;&gt;Node28 -->
<g id="edge42" class="edge">
<title>Node20&#45;&gt;Node28</title>
<path fill="none" stroke="midnightblue" d="M483.4,-230.53C438.02,-220.51 354.36,-202.03 305.09,-191.15"/>
<polygon fill="midnightblue" stroke="midnightblue" points="306.05,-187.55 295.53,-188.81 304.54,-194.39 306.05,-187.55"/>
</g>
<!-- Node32 -->
<g id="node32" class="node">
<title>Node32</title>
<g id="a_node32"><a xlink:href="_tex_vertex_8h.html" target="_top" xlink:title=" ">
<polygon fill="none" stroke="black" points="664.69,-171.5 664.69,-191.5 733.19,-191.5 733.19,-171.5 664.69,-171.5"/>
<text text-anchor="middle" x="698.94" y="-178" font-family="Helvetica,sans-Serif" font-size="10.00">TexVertex.h</text>
</a>
</g>
</g>
<!-- Node20&#45;&gt;Node32 -->
<g id="edge50" class="edge">
<title>Node20&#45;&gt;Node32</title>
<path fill="none" stroke="midnightblue" d="M544.91,-228.54C575.92,-219.27 624.52,-204.74 658.83,-194.49"/>
<polygon fill="midnightblue" stroke="midnightblue" points="659.4,-197.67 667.98,-191.46 657.4,-190.97 659.4,-197.67"/>
</g>
<!-- Node33 -->
<g id="node33" class="node">
<title>Node33</title>
<g id="a_node33"><a xlink:title=" ">
<polygon fill="none" stroke="#bfbfbf" points="542.69,-171.5 542.69,-191.5 593.19,-191.5 593.19,-171.5 542.69,-171.5"/>
<text text-anchor="middle" x="567.94" y="-178" font-family="Helvetica,sans-Serif" font-size="10.00">d3d11.h</text>
</a>
</g>
</g>
<!-- Node20&#45;&gt;Node33 -->
<g id="edge53" class="edge">
<title>Node20&#45;&gt;Node33</title>
<path fill="none" stroke="midnightblue" d="M523.22,-228.91C530.88,-220.96 542.46,-208.94 551.93,-199.12"/>
<polygon fill="midnightblue" stroke="midnightblue" points="554.12,-201.84 558.54,-192.21 549.08,-196.99 554.12,-201.84"/>
</g>
<!-- Node34 -->
<g id="node34" class="node">
<title>Node34</title>
<g id="a_node34"><a xlink:title=" ">
<polygon fill="none" stroke="#bfbfbf" points="610.81,-171.5 610.81,-191.5 647.06,-191.5 647.06,-171.5 610.81,-171.5"/>
<text text-anchor="middle" x="628.94" y="-178" font-family="Helvetica,sans-Serif" font-size="10.00">wrl.h</text>
</a>
</g>
</g>
<!-- Node20&#45;&gt;Node34 -->
<g id="edge54" class="edge">
<title>Node20&#45;&gt;Node34</title>
<path fill="none" stroke="midnightblue" d="M533.51,-228.54C551.94,-219.65 580.42,-205.91 601.47,-195.75"/>
<polygon fill="midnightblue" stroke="midnightblue" points="602.64,-198.59 610.13,-191.09 599.6,-192.29 602.64,-198.59"/>
</g>
<!-- Node21&#45;&gt;Node3 -->
<g id="edge28" class="edge">
<title>Node21&#45;&gt;Node3</title>
<path fill="none" stroke="midnightblue" d="M60.94,-114.91C60.94,-107.76 60.94,-97.32 60.94,-88.15"/>
<polygon fill="midnightblue" stroke="midnightblue" points="64.44,-88.21 60.94,-78.21 57.44,-88.21 64.44,-88.21"/>
</g>
<!-- Node24 -->
<g id="node24" class="node">
<title>Node24</title>
<g id="a_node24"><a xlink:href="_win_8h.html" target="_top" xlink:title=" ">
<polygon fill="none" stroke="black" points="454.19,-114.5 454.19,-134.5 495.69,-134.5 495.69,-114.5 454.19,-114.5"/>
<text text-anchor="middle" x="474.94" y="-121" font-family="Helvetica,sans-Serif" font-size="10.00">Win.h</text>
</a>
</g>
</g>
<!-- Node23&#45;&gt;Node24 -->
<g id="edge31" class="edge">
<title>Node23&#45;&gt;Node24</title>
<path fill="none" stroke="midnightblue" d="M443.72,-171.91C448.85,-164.28 456.51,-152.9 462.95,-143.32"/>
<polygon fill="midnightblue" stroke="midnightblue" points="466.4,-145.47 469.08,-135.21 460.59,-141.56 466.4,-145.47"/>
</g>
<!-- Node25 -->
<g id="node25" class="node">
<title>Node25</title>
<g id="a_node25"><a xlink:title=" ">
<polygon fill="none" stroke="#bfbfbf" points="357.06,-57.5 357.06,-77.5 424.81,-77.5 424.81,-57.5 357.06,-57.5"/>
<text text-anchor="middle" x="390.94" y="-64" font-family="Helvetica,sans-Serif" font-size="10.00">sdkddkver.h</text>
</a>
</g>
</g>
<!-- Node24&#45;&gt;Node25 -->
<g id="edge32" class="edge">
<title>Node24&#45;&gt;Node25</title>
<path fill="none" stroke="midnightblue" d="M461.44,-114.66C448.54,-106.21 428.84,-93.31 413.54,-83.3"/>
<polygon fill="midnightblue" stroke="midnightblue" points="415.96,-80.05 405.68,-77.5 412.13,-85.9 415.96,-80.05"/>
</g>
<!-- Node26 -->
<g id="node26" class="node">
<title>Node26</title>
<g id="a_node26"><a xlink:title=" ">
<polygon fill="none" stroke="#bfbfbf" points="442.94,-57.5 442.94,-77.5 506.94,-77.5 506.94,-57.5 442.94,-57.5"/>
<text text-anchor="middle" x="474.94" y="-64" font-family="Helvetica,sans-Serif" font-size="10.00">Windows.h</text>
</a>
</g>
</g>
<!-- Node24&#45;&gt;Node26 -->
<g id="edge33" class="edge">
<title>Node24&#45;&gt;Node26</title>
<path fill="none" stroke="midnightblue" d="M474.94,-114.91C474.94,-107.76 474.94,-97.32 474.94,-88.15"/>
<polygon fill="midnightblue" stroke="midnightblue" points="478.44,-88.21 474.94,-78.21 471.44,-88.21 478.44,-88.21"/>
</g>
<!-- Node27&#45;&gt;Node9 -->
<g id="edge36" class="edge">
<title>Node27&#45;&gt;Node9</title>
<path fill="none" stroke="midnightblue" d="M878.49,-114.51C898.28,-107.91 920.15,-96.72 931.94,-78 941.48,-62.85 932.99,-43.01 924.12,-28.96"/>
<polygon fill="midnightblue" stroke="midnightblue" points="926.69,-27.53 918.13,-21.28 920.93,-31.5 926.69,-27.53"/>
</g>
<!-- Node27&#45;&gt;Node10 -->
<g id="edge38" class="edge">
<title>Node27&#45;&gt;Node10</title>
<path fill="none" stroke="midnightblue" d="M834.6,-114.91C832.6,-107.6 829.67,-96.85 827.13,-87.54"/>
<polygon fill="midnightblue" stroke="midnightblue" points="830.32,-86.94 824.32,-78.21 823.57,-88.78 830.32,-86.94"/>
</g>
<!-- Node27&#45;&gt;Node11 -->
<g id="edge39" class="edge">
<title>Node27&#45;&gt;Node11</title>
<path fill="none" stroke="midnightblue" d="M896.96,-114.82C939,-107.36 989.89,-95.11 1002.94,-78 1013.53,-64.11 1007.19,-44.04 999.96,-29.59"/>
<polygon fill="midnightblue" stroke="midnightblue" points="1002.67,-28.27 994.76,-21.23 996.55,-31.67 1002.67,-28.27"/>
</g>
<!-- Node27&#45;&gt;Node12 -->
<g id="edge37" class="edge">
<title>Node27&#45;&gt;Node12</title>
<path fill="none" stroke="midnightblue" d="M776.98,-114.71C742.94,-108 700.39,-96.64 665.94,-78 642.32,-65.22 620.09,-43.43 606.28,-28.29"/>
<polygon fill="midnightblue" stroke="midnightblue" points="609.42,-26.43 600.17,-21.27 604.18,-31.07 609.42,-26.43"/>
</g>
<!-- Node27&#45;&gt;Node13 -->
<g id="edge40" class="edge">
<title>Node27&#45;&gt;Node13</title>
<path fill="none" stroke="midnightblue" d="M814.3,-114.54C791.58,-105.55 756.36,-91.62 730.61,-81.43"/>
<polygon fill="midnightblue" stroke="midnightblue" points="732.16,-77.88 721.57,-77.46 729.58,-84.39 732.16,-77.88"/>
</g>
<!-- Node27&#45;&gt;Node19 -->
<g id="edge41" class="edge">
<title>Node27&#45;&gt;Node19</title>
<path fill="none" stroke="midnightblue" d="M846.26,-114.66C854.66,-106.69 867.25,-94.76 877.51,-85.02"/>
<polygon fill="midnightblue" stroke="midnightblue" points="879.6,-87.92 884.45,-78.5 874.79,-82.84 879.6,-87.92"/>
</g>
<!-- Node28&#45;&gt;Node3 -->
<g id="edge48" class="edge">
<title>Node28&#45;&gt;Node3</title>
<path fill="none" stroke="midnightblue" d="M257.76,-171.56C244.52,-157.55 217.03,-130.34 188.94,-114 157.59,-95.76 117.7,-83.01 90.86,-75.74"/>
<polygon fill="midnightblue" stroke="midnightblue" points="92.12,-72.19 81.56,-73.05 90.35,-78.97 92.12,-72.19"/>
</g>
<!-- Node28&#45;&gt;Node21 -->
<g id="edge45" class="edge">
<title>Node28&#45;&gt;Node21</title>
<path fill="none" stroke="midnightblue" d="M237.43,-172.85C203.07,-163.63 144.94,-148.04 104.84,-137.28"/>
<polygon fill="midnightblue" stroke="midnightblue" points="105.86,-133.66 95.3,-134.45 104.05,-140.42 105.86,-133.66"/>
</g>
<!-- Node28&#45;&gt;Node22 -->
<g id="edge43" class="edge">
<title>Node28&#45;&gt;Node22</title>
<path fill="none" stroke="midnightblue" d="M289.4,-171.54C313.04,-162.51 349.74,-148.49 376.44,-138.29"/>
<polygon fill="midnightblue" stroke="midnightblue" points="377.4,-141.29 385.49,-134.46 374.9,-134.75 377.4,-141.29"/>
</g>
<!-- Node28&#45;&gt;Node24 -->
<g id="edge44" class="edge">
<title>Node28&#45;&gt;Node24</title>
<path fill="none" stroke="midnightblue" d="M294.29,-173.83C327.69,-165.85 385.08,-151.79 443.75,-135.21"/>
<polygon fill="midnightblue" stroke="midnightblue" points="444.67,-138.3 453.33,-132.2 442.75,-131.57 444.67,-138.3"/>
</g>
<!-- Node29 -->
<g id="node29" class="node">
<title>Node29</title>
<g id="a_node29"><a xlink:title=" ">
<polygon fill="none" stroke="#bfbfbf" points="314.31,-114.5 314.31,-134.5 365.56,-134.5 365.56,-114.5 314.31,-114.5"/>
<text text-anchor="middle" x="339.94" y="-121" font-family="Helvetica,sans-Serif" font-size="10.00">assert.h</text>
</a>
</g>
</g>
<!-- Node28&#45;&gt;Node29 -->
<g id="edge46" class="edge">
<title>Node28&#45;&gt;Node29</title>
<path fill="none" stroke="midnightblue" d="M277.83,-171.66C288.98,-163.37 305.9,-150.8 319.26,-140.87"/>
<polygon fill="midnightblue" stroke="midnightblue" points="320.9,-143.27 326.83,-134.5 316.72,-137.65 320.9,-143.27"/>
</g>
<!-- Node30 -->
<g id="node30" class="node">
<title>Node30</title>
<g id="a_node30"><a xlink:title=" ">
<polygon fill="none" stroke="#bfbfbf" points="128.31,-114.5 128.31,-134.5 179.56,-134.5 179.56,-114.5 128.31,-114.5"/>
<text text-anchor="middle" x="153.94" y="-121" font-family="Helvetica,sans-Serif" font-size="10.00">memory</text>
</a>
</g>
</g>
<!-- Node28&#45;&gt;Node30 -->
<g id="edge47" class="edge">
<title>Node28&#45;&gt;Node30</title>
<path fill="none" stroke="midnightblue" d="M247.94,-171.66C230.17,-162.94 202.73,-149.46 182.07,-139.31"/>
<polygon fill="midnightblue" stroke="midnightblue" points="183.78,-135.76 173.26,-134.5 180.69,-142.05 183.78,-135.76"/>
</g>
<!-- Node31 -->
<g id="node31" class="node">
<title>Node31</title>
<g id="a_node31"><a xlink:title=" ">
<polygon fill="none" stroke="#bfbfbf" points="235.81,-114.5 235.81,-134.5 296.06,-134.5 296.06,-114.5 235.81,-114.5"/>
<text text-anchor="middle" x="265.94" y="-121" font-family="Helvetica,sans-Serif" font-size="10.00">filesystem</text>
</a>
</g>
</g>
<!-- Node28&#45;&gt;Node31 -->
<g id="edge49" class="edge">
<title>Node28&#45;&gt;Node31</title>
<path fill="none" stroke="midnightblue" d="M265.94,-171.91C265.94,-164.76 265.94,-154.32 265.94,-145.15"/>
<polygon fill="midnightblue" stroke="midnightblue" points="269.44,-145.21 265.94,-135.21 262.44,-145.21 269.44,-145.21"/>
</g>
<!-- Node32&#45;&gt;Node8 -->
<g id="edge51" class="edge">
<title>Node32&#45;&gt;Node8</title>
<path fill="none" stroke="midnightblue" d="M698.94,-171.91C698.94,-164.76 698.94,-154.32 698.94,-145.15"/>
<polygon fill="midnightblue" stroke="midnightblue" points="702.44,-145.21 698.94,-135.21 695.44,-145.21 702.44,-145.21"/>
</g>
<!-- Node32&#45;&gt;Node27 -->
<g id="edge52" class="edge">
<title>Node32&#45;&gt;Node27</title>
<path fill="none" stroke="midnightblue" d="M721.42,-171.54C743.97,-162.55 778.94,-148.62 804.5,-138.43"/>
<polygon fill="midnightblue" stroke="midnightblue" points="805.48,-141.41 813.47,-134.46 802.88,-134.91 805.48,-141.41"/>
</g>
<!-- Node35&#45;&gt;Node27 -->
<g id="edge57" class="edge">
<title>Node35&#45;&gt;Node27</title>
<path fill="none" stroke="midnightblue" d="M900.6,-228.61C886.41,-220.83 867.33,-208.24 855.94,-192 846.13,-178.02 841.36,-159.06 839.05,-144.96"/>
<polygon fill="midnightblue" stroke="midnightblue" points="842.44,-144.92 837.64,-135.47 835.51,-145.85 842.44,-144.92"/>
</g>
<!-- Node36 -->
<g id="node36" class="node">
<title>Node36</title>
<g id="a_node36"><a xlink:title=" ">
<polygon fill="none" stroke="#bfbfbf" points="1016.19,-114.5 1016.19,-134.5 1057.69,-134.5 1057.69,-114.5 1016.19,-114.5"/>
<text text-anchor="middle" x="1036.94" y="-121" font-family="Helvetica,sans-Serif" font-size="10.00">vector</text>
</a>
</g>
</g>
<!-- Node35&#45;&gt;Node36 -->
<g id="edge56" class="edge">
<title>Node35&#45;&gt;Node36</title>
<path fill="none" stroke="midnightblue" d="M975.15,-230.19C1020.01,-223.06 1077.62,-210.57 1091.94,-192 1106,-173.77 1083.36,-153.46 1063.02,-140.14"/>
<polygon fill="midnightblue" stroke="midnightblue" points="1065.03,-136.65 1054.68,-134.38 1061.35,-142.61 1065.03,-136.65"/>
</g>
<!-- Node37 -->
<g id="node37" class="node">
<title>Node37</title>
<g id="a_node37"><a xlink:href="_indexed_line_list_8h.html" target="_top" xlink:title=" ">
<polygon fill="none" stroke="black" points="991.06,-171.5 991.06,-191.5 1082.81,-191.5 1082.81,-171.5 991.06,-171.5"/>
<text text-anchor="middle" x="1036.94" y="-178" font-family="Helvetica,sans-Serif" font-size="10.00">IndexedLineList.h</text>
</a>
</g>
</g>
<!-- Node35&#45;&gt;Node37 -->
<g id="edge58" class="edge">
<title>Node35&#45;&gt;Node37</title>
<path fill="none" stroke="midnightblue" d="M938.16,-228.54C957.1,-219.71 986.29,-206.11 1008.03,-195.98"/>
<polygon fill="midnightblue" stroke="midnightblue" points="1009.14,-198.85 1016.73,-191.46 1006.18,-192.51 1009.14,-198.85"/>
</g>
<!-- Node38 -->
<g id="node38" class="node">
<title>Node38</title>
<g id="a_node38"><a xlink:href="_indexed_triangle_list_8h.html" target="_top" xlink:title=" ">
<polygon fill="none" stroke="black" points="865.19,-171.5 865.19,-191.5 972.69,-191.5 972.69,-171.5 865.19,-171.5"/>
<text text-anchor="middle" x="918.94" y="-178" font-family="Helvetica,sans-Serif" font-size="10.00">IndexedTriangleList.h</text>
</a>
</g>
</g>
<!-- Node35&#45;&gt;Node38 -->
<g id="edge61" class="edge">
<title>Node35&#45;&gt;Node38</title>
<path fill="none" stroke="midnightblue" d="M918.94,-228.91C918.94,-221.76 918.94,-211.32 918.94,-202.15"/>
<polygon fill="midnightblue" stroke="midnightblue" points="922.44,-202.21 918.94,-192.21 915.44,-202.21 922.44,-202.21"/>
</g>
<!-- Node37&#45;&gt;Node27 -->
<g id="edge59" class="edge">
<title>Node37&#45;&gt;Node27</title>
<path fill="none" stroke="midnightblue" d="M1004.36,-171.54C970.51,-162.23 917.37,-147.62 880.06,-137.36"/>
<polygon fill="midnightblue" stroke="midnightblue" points="881.07,-133.73 870.5,-134.46 879.22,-140.48 881.07,-133.73"/>
</g>
<!-- Node37&#45;&gt;Node36 -->
<g id="edge60" class="edge">
<title>Node37&#45;&gt;Node36</title>
<path fill="none" stroke="midnightblue" d="M1036.94,-171.91C1036.94,-164.76 1036.94,-154.32 1036.94,-145.15"/>
<polygon fill="midnightblue" stroke="midnightblue" points="1040.44,-145.21 1036.94,-135.21 1033.44,-145.21 1040.44,-145.21"/>
</g>
<!-- Node38&#45;&gt;Node27 -->
<g id="edge63" class="edge">
<title>Node38&#45;&gt;Node27</title>
<path fill="none" stroke="midnightblue" d="M905.76,-171.66C893.29,-163.29 874.3,-150.56 859.42,-140.58"/>
<polygon fill="midnightblue" stroke="midnightblue" points="861.61,-137.16 851.35,-134.5 857.71,-142.97 861.61,-137.16"/>
</g>
<!-- Node38&#45;&gt;Node36 -->
<g id="edge62" class="edge">
<title>Node38&#45;&gt;Node36</title>
<path fill="none" stroke="midnightblue" d="M938.16,-171.54C957.1,-162.71 986.29,-149.11 1008.03,-138.98"/>
<polygon fill="midnightblue" stroke="midnightblue" points="1009.14,-141.85 1016.73,-134.46 1006.18,-135.51 1009.14,-141.85"/>
</g>
<!-- Node39&#45;&gt;Node20 -->
<g id="edge65" class="edge">
<title>Node39&#45;&gt;Node20</title>
<path fill="none" stroke="midnightblue" d="M752.68,-285.54C698.38,-275.03 609.14,-257.74 556.81,-247.61"/>
<polygon fill="midnightblue" stroke="midnightblue" points="557.72,-244.03 547.24,-245.56 556.39,-250.9 557.72,-244.03"/>
</g>
<!-- Node39&#45;&gt;Node27 -->
<g id="edge66" class="edge">
<title>Node39&#45;&gt;Node27</title>
<path fill="none" stroke="midnightblue" d="M800.88,-285.89C806.74,-259.79 824.43,-181.14 832.65,-144.57"/>
<polygon fill="midnightblue" stroke="midnightblue" points="836.18,-145.82 834.96,-135.3 829.35,-144.29 836.18,-145.82"/>
</g>
</g>
</svg>
