<?xml version="1.0" encoding="UTF-8" standalone="no"?>
<!DOCTYPE svg PUBLIC "-//W3C//DTD SVG 1.1//EN"
 "http://www.w3.org/Graphics/SVG/1.1/DTD/svg11.dtd">
<!-- Generated by graphviz version 8.1.0 (20230707.0739)
 -->
<!-- Title: include/Primitives/Cube.h Pages: 1 -->
<svg width="1293pt" height="167pt"
 viewBox="0.00 0.00 1293.12 167.00" xmlns="http://www.w3.org/2000/svg" xmlns:xlink="http://www.w3.org/1999/xlink">
<g id="graph0" class="graph" transform="scale(1 1) rotate(0) translate(4 163)">
<title>include/Primitives/Cube.h</title>
<!-- Node1 -->
<g id="node1" class="node">
<title>Node1</title>
<g id="a_node1"><a xlink:title=" ">
<polygon fill="#bfbfbf" stroke="black" points="619.75,-126.5 619.75,-158.5 711.5,-158.5 711.5,-126.5 619.75,-126.5"/>
<text text-anchor="start" x="627.75" y="-145" font-family="Helvetica,sans-Serif" font-size="10.00">include/Primitives</text>
<text text-anchor="middle" x="665.62" y="-133" font-family="Helvetica,sans-Serif" font-size="10.00">/Cube.h</text>
</a>
</g>
</g>
<!-- Node2 -->
<g id="node2" class="node">
<title>Node2</title>
<g id="a_node2"><a xlink:href="_cube_flat_independent_scene_8h.html" target="_top" xlink:title=" ">
<polygon fill="none" stroke="black" points="0,-57.5 0,-89.5 177.25,-89.5 177.25,-57.5 0,-57.5"/>
<text text-anchor="start" x="8" y="-76" font-family="Helvetica,sans-Serif" font-size="10.00">include/Scenes/CubeFlatIndependent</text>
<text text-anchor="middle" x="88.62" y="-64" font-family="Helvetica,sans-Serif" font-size="10.00">Scene.h</text>
</a>
</g>
</g>
<!-- Node1&#45;&gt;Node2 -->
<g id="edge1" class="edge">
<title>Node1&#45;&gt;Node2</title>
<path fill="none" stroke="midnightblue" d="M609.23,-136.35C519.56,-127.96 339.04,-110.23 186.62,-90 183.47,-89.58 180.25,-89.14 177.01,-88.69"/>
<polygon fill="midnightblue" stroke="midnightblue" points="608.68,-139.91 618.96,-137.35 609.33,-132.94 608.68,-139.91"/>
</g>
<!-- Node4 -->
<g id="node4" class="node">
<title>Node4</title>
<g id="a_node4"><a xlink:href="_cube_skin_scene_8h.html" target="_top" xlink:title=" ">
<polygon fill="none" stroke="black" points="195.75,-63.5 195.75,-83.5 359.5,-83.5 359.5,-63.5 195.75,-63.5"/>
<text text-anchor="middle" x="277.62" y="-70" font-family="Helvetica,sans-Serif" font-size="10.00">include/Scenes/CubeSkinScene.h</text>
</a>
</g>
</g>
<!-- Node1&#45;&gt;Node4 -->
<g id="edge3" class="edge">
<title>Node1&#45;&gt;Node4</title>
<path fill="none" stroke="midnightblue" d="M609.32,-131.78C534.25,-118.81 402.38,-96.04 329.57,-83.47"/>
<polygon fill="midnightblue" stroke="midnightblue" points="608.53,-135.36 618.98,-133.62 609.72,-128.47 608.53,-135.36"/>
</g>
<!-- Node5 -->
<g id="node5" class="node">
<title>Node5</title>
<g id="a_node5"><a xlink:href="_cube_solid_geometry_scene_8h.html" target="_top" xlink:title=" ">
<polygon fill="none" stroke="black" points="377.62,-57.5 377.62,-89.5 507.62,-89.5 507.62,-57.5 377.62,-57.5"/>
<text text-anchor="start" x="385.62" y="-76" font-family="Helvetica,sans-Serif" font-size="10.00">include/Scenes/CubeSolid</text>
<text text-anchor="middle" x="442.62" y="-64" font-family="Helvetica,sans-Serif" font-size="10.00">GeometryScene.h</text>
</a>
</g>
</g>
<!-- Node1&#45;&gt;Node5 -->
<g id="edge5" class="edge">
<title>Node1&#45;&gt;Node5</title>
<path fill="none" stroke="midnightblue" d="M609.62,-124.67C573.61,-113.85 527.23,-99.92 492.5,-89.48"/>
<polygon fill="midnightblue" stroke="midnightblue" points="608.38,-128.25 618.96,-127.78 610.39,-121.55 608.38,-128.25"/>
</g>
<!-- Node6 -->
<g id="node6" class="node">
<title>Node6</title>
<g id="a_node6"><a xlink:href="_cube_solid_scene_8h.html" target="_top" xlink:title=" ">
<polygon fill="none" stroke="black" points="525.62,-57.5 525.62,-89.5 655.62,-89.5 655.62,-57.5 525.62,-57.5"/>
<text text-anchor="start" x="533.62" y="-76" font-family="Helvetica,sans-Serif" font-size="10.00">include/Scenes/CubeSolid</text>
<text text-anchor="middle" x="590.62" y="-64" font-family="Helvetica,sans-Serif" font-size="10.00">Scene.h</text>
</a>
</g>
</g>
<!-- Node1&#45;&gt;Node6 -->
<g id="edge7" class="edge">
<title>Node1&#45;&gt;Node6</title>
<path fill="none" stroke="midnightblue" d="M640.93,-119.44C629.87,-109.56 617.12,-98.17 607.22,-89.33"/>
<polygon fill="midnightblue" stroke="midnightblue" points="638.19,-121.58 647.98,-125.63 642.85,-116.36 638.19,-121.58"/>
</g>
<!-- Node7 -->
<g id="node7" class="node">
<title>Node7</title>
<g id="a_node7"><a xlink:href="_cube_vertex_color_scene_8h.html" target="_top" xlink:title=" ">
<polygon fill="none" stroke="black" points="673.25,-57.5 673.25,-89.5 810,-89.5 810,-57.5 673.25,-57.5"/>
<text text-anchor="start" x="681.25" y="-76" font-family="Helvetica,sans-Serif" font-size="10.00">include/Scenes/CubeVertex</text>
<text text-anchor="middle" x="741.62" y="-64" font-family="Helvetica,sans-Serif" font-size="10.00">ColorScene.h</text>
</a>
</g>
</g>
<!-- Node1&#45;&gt;Node7 -->
<g id="edge9" class="edge">
<title>Node1&#45;&gt;Node7</title>
<path fill="none" stroke="midnightblue" d="M690.65,-119.44C701.86,-109.56 714.78,-98.17 724.81,-89.33"/>
<polygon fill="midnightblue" stroke="midnightblue" points="688.68,-116.39 683.49,-125.63 693.31,-121.64 688.68,-116.39"/>
</g>
<!-- Node8 -->
<g id="node8" class="node">
<title>Node8</title>
<g id="a_node8"><a xlink:href="_cube_vertex_position_color_scene_8h.html" target="_top" xlink:title=" ">
<polygon fill="none" stroke="black" points="828.25,-57.5 828.25,-89.5 965,-89.5 965,-57.5 828.25,-57.5"/>
<text text-anchor="start" x="836.25" y="-76" font-family="Helvetica,sans-Serif" font-size="10.00">include/Scenes/CubeVertex</text>
<text text-anchor="middle" x="896.62" y="-64" font-family="Helvetica,sans-Serif" font-size="10.00">PositionColorScene.h</text>
</a>
</g>
</g>
<!-- Node1&#45;&gt;Node8 -->
<g id="edge11" class="edge">
<title>Node1&#45;&gt;Node8</title>
<path fill="none" stroke="midnightblue" d="M721.54,-125.28C759.15,-114.37 808.37,-100.1 845.04,-89.46"/>
<polygon fill="midnightblue" stroke="midnightblue" points="720.89,-122.12 712.26,-128.26 722.84,-128.84 720.89,-122.12"/>
</g>
<!-- Node9 -->
<g id="node9" class="node">
<title>Node9</title>
<g id="a_node9"><a xlink:href="_double_cube_scene_8h.html" target="_top" xlink:title=" ">
<polygon fill="none" stroke="black" points="983.5,-57.5 983.5,-89.5 1121.75,-89.5 1121.75,-57.5 983.5,-57.5"/>
<text text-anchor="start" x="991.5" y="-76" font-family="Helvetica,sans-Serif" font-size="10.00">include/Scenes/DoubleCube</text>
<text text-anchor="middle" x="1052.62" y="-64" font-family="Helvetica,sans-Serif" font-size="10.00">Scene.h</text>
</a>
</g>
</g>
<!-- Node1&#45;&gt;Node9 -->
<g id="edge13" class="edge">
<title>Node1&#45;&gt;Node9</title>
<path fill="none" stroke="midnightblue" d="M722.05,-132.55C783.87,-122.64 885.94,-105.93 973.62,-90 976.93,-89.4 980.3,-88.78 983.71,-88.14"/>
<polygon fill="midnightblue" stroke="midnightblue" points="721.68,-129.23 712.36,-134.26 722.78,-136.14 721.68,-129.23"/>
</g>
<!-- Node10 -->
<g id="node10" class="node">
<title>Node10</title>
<g id="a_node10"><a xlink:href="_geometry_flat_scene_8h.html" target="_top" xlink:title=" ">
<polygon fill="none" stroke="black" points="1140.12,-57.5 1140.12,-89.5 1285.12,-89.5 1285.12,-57.5 1140.12,-57.5"/>
<text text-anchor="start" x="1148.12" y="-76" font-family="Helvetica,sans-Serif" font-size="10.00">include/Scenes/GeometryFlat</text>
<text text-anchor="middle" x="1212.62" y="-64" font-family="Helvetica,sans-Serif" font-size="10.00">Scene.h</text>
</a>
</g>
</g>
<!-- Node1&#45;&gt;Node10 -->
<g id="edge15" class="edge">
<title>Node1&#45;&gt;Node10</title>
<path fill="none" stroke="midnightblue" d="M722.09,-136.65C809.77,-128.81 983.88,-111.96 1130.62,-90 1133.78,-89.53 1136.99,-89.02 1140.24,-88.49"/>
<polygon fill="midnightblue" stroke="midnightblue" points="721.97,-133.24 712.32,-137.61 722.59,-140.21 721.97,-133.24"/>
</g>
<!-- Node3 -->
<g id="node3" class="node">
<title>Node3</title>
<g id="a_node3"><a xlink:href="_engine_8cpp.html" target="_top" xlink:title=" ">
<polygon fill="none" stroke="black" points="625,-0.5 625,-20.5 706.25,-20.5 706.25,-0.5 625,-0.5"/>
<text text-anchor="middle" x="665.62" y="-7" font-family="Helvetica,sans-Serif" font-size="10.00">src/Engine.cpp</text>
</a>
</g>
</g>
<!-- Node2&#45;&gt;Node3 -->
<g id="edge2" class="edge">
<title>Node2&#45;&gt;Node3</title>
<path fill="none" stroke="midnightblue" d="M187.84,-56.9C356.74,-35.86 544.29,-20.65 625.16,-14.49"/>
<polygon fill="midnightblue" stroke="midnightblue" points="187.49,-53.54 178,-58.26 188.36,-60.49 187.49,-53.54"/>
</g>
<!-- Node4&#45;&gt;Node3 -->
<g id="edge4" class="edge">
<title>Node4&#45;&gt;Node3</title>
<path fill="none" stroke="midnightblue" d="M339.84,-61.76C349.48,-60.14 359.31,-58.51 368.62,-57 460.29,-42.17 568.07,-25.97 625.24,-17.47"/>
<polygon fill="midnightblue" stroke="midnightblue" points="339.37,-58.46 330.09,-63.58 340.54,-65.36 339.37,-58.46"/>
</g>
<!-- Node5&#45;&gt;Node3 -->
<g id="edge6" class="edge">
<title>Node5&#45;&gt;Node3</title>
<path fill="none" stroke="midnightblue" d="M507.67,-54.71C548.82,-43.45 600.26,-29.38 633.03,-20.42"/>
<polygon fill="midnightblue" stroke="midnightblue" points="506.9,-51.56 498.18,-57.58 508.75,-58.32 506.9,-51.56"/>
</g>
<!-- Node6&#45;&gt;Node3 -->
<g id="edge8" class="edge">
<title>Node6&#45;&gt;Node3</title>
<path fill="none" stroke="midnightblue" d="M616.97,-51.07C629.98,-40.49 644.96,-28.31 654.82,-20.28"/>
<polygon fill="midnightblue" stroke="midnightblue" points="615.33,-48.71 609.78,-57.73 619.75,-54.14 615.33,-48.71"/>
</g>
<!-- Node7&#45;&gt;Node3 -->
<g id="edge10" class="edge">
<title>Node7&#45;&gt;Node3</title>
<path fill="none" stroke="midnightblue" d="M714.93,-51.07C701.74,-40.49 686.56,-28.31 676.57,-20.28"/>
<polygon fill="midnightblue" stroke="midnightblue" points="712.24,-54.2 722.23,-57.73 716.62,-48.74 712.24,-54.2"/>
</g>
<!-- Node8&#45;&gt;Node3 -->
<g id="edge12" class="edge">
<title>Node8&#45;&gt;Node3</title>
<path fill="none" stroke="midnightblue" d="M829.52,-54.78C786.84,-43.51 733.41,-29.4 699.39,-20.42"/>
<polygon fill="midnightblue" stroke="midnightblue" points="828.55,-58.41 839.12,-57.58 830.34,-51.64 828.55,-58.41"/>
</g>
<!-- Node9&#45;&gt;Node3 -->
<g id="edge14" class="edge">
<title>Node9&#45;&gt;Node3</title>
<path fill="none" stroke="midnightblue" d="M973.17,-56.98C870.56,-39.53 763.09,-24.54 706.08,-16.86"/>
<polygon fill="midnightblue" stroke="midnightblue" points="972.28,-60.55 982.72,-58.78 973.46,-53.65 972.28,-60.55"/>
</g>
<!-- Node10&#45;&gt;Node3 -->
<g id="edge16" class="edge">
<title>Node10&#45;&gt;Node3</title>
<path fill="none" stroke="midnightblue" d="M1129.53,-56.93C966.45,-34.02 785.43,-19.87 706.2,-14.25"/>
<polygon fill="midnightblue" stroke="midnightblue" points="1128.85,-60.51 1139.25,-58.46 1129.84,-53.58 1128.85,-60.51"/>
</g>
</g>
</svg>
