<?xml version="1.0" encoding="UTF-8" standalone="no"?>
<!DOCTYPE svg PUBLIC "-//W3C//DTD SVG 1.1//EN"
 "http://www.w3.org/Graphics/SVG/1.1/DTD/svg11.dtd">
<!-- Generated by graphviz version 8.1.0 (20230707.0739)
 -->
<!-- Title: include/Scenes/CubeVertexColorScene.h Pages: 1 -->
<svg width="1237pt" height="554pt"
 viewBox="0.00 0.00 1237.22 554.00" xmlns="http://www.w3.org/2000/svg" xmlns:xlink="http://www.w3.org/1999/xlink">
<g id="graph0" class="graph" transform="scale(1 1) rotate(0) translate(4 550)">
<title>include/Scenes/CubeVertexColorScene.h</title>
<!-- Node1 -->
<g id="node1" class="node">
<title>Node1</title>
<g id="a_node1"><a xlink:title=" ">
<polygon fill="#bfbfbf" stroke="black" points="287.47,-513.5 287.47,-545.5 424.22,-545.5 424.22,-513.5 287.47,-513.5"/>
<text text-anchor="start" x="295.47" y="-532" font-family="Helvetica,sans-Serif" font-size="10.00">include/Scenes/CubeVertex</text>
<text text-anchor="middle" x="355.85" y="-520" font-family="Helvetica,sans-Serif" font-size="10.00">ColorScene.h</text>
</a>
</g>
</g>
<!-- Node2 -->
<g id="node2" class="node">
<title>Node2</title>
<g id="a_node2"><a xlink:href="_scene_8h.html" target="_top" xlink:title=" ">
<polygon fill="none" stroke="black" points="163.85,-342.5 163.85,-362.5 215.85,-362.5 215.85,-342.5 163.85,-342.5"/>
<text text-anchor="middle" x="189.85" y="-349" font-family="Helvetica,sans-Serif" font-size="10.00">Scene.h</text>
</a>
</g>
</g>
<!-- Node1&#45;&gt;Node2 -->
<g id="edge1" class="edge">
<title>Node1&#45;&gt;Node2</title>
<path fill="none" stroke="midnightblue" d="M341.69,-513.58C310.76,-480.97 237.32,-403.55 205.26,-369.75"/>
<polygon fill="midnightblue" stroke="midnightblue" points="208.48,-368 199.06,-363.16 203.4,-372.82 208.48,-368"/>
</g>
<!-- Node15 -->
<g id="node15" class="node">
<title>Node15</title>
<g id="a_node15"><a xlink:href="_matrix3_8h.html" target="_top" xlink:title=" ">
<polygon fill="none" stroke="black" points="234.6,-57.5 234.6,-77.5 291.1,-77.5 291.1,-57.5 234.6,-57.5"/>
<text text-anchor="middle" x="262.85" y="-64" font-family="Helvetica,sans-Serif" font-size="10.00">Matrix3.h</text>
</a>
</g>
</g>
<!-- Node1&#45;&gt;Node15 -->
<g id="edge57" class="edge">
<title>Node1&#45;&gt;Node15</title>
<path fill="none" stroke="midnightblue" d="M287.55,-516.35C197.37,-498.32 49.85,-461.1 49.85,-410.5 49.85,-410.5 49.85,-410.5 49.85,-294.5 49.85,-188.45 175.58,-111.95 233.84,-82.19"/>
<polygon fill="midnightblue" stroke="midnightblue" points="235.18,-84.94 242.57,-77.34 232.06,-78.68 235.18,-84.94"/>
</g>
<!-- Node34 -->
<g id="node34" class="node">
<title>Node34</title>
<g id="a_node34"><a xlink:href="_cube_8h.html" target="_top" xlink:title=" ">
<polygon fill="none" stroke="black" points="309.97,-228.5 309.97,-248.5 401.72,-248.5 401.72,-228.5 309.97,-228.5"/>
<text text-anchor="middle" x="355.85" y="-235" font-family="Helvetica,sans-Serif" font-size="10.00">Primitives/Cube.h</text>
</a>
</g>
</g>
<!-- Node1&#45;&gt;Node34 -->
<g id="edge51" class="edge">
<title>Node1&#45;&gt;Node34</title>
<path fill="none" stroke="midnightblue" d="M355.85,-513.6C355.85,-491.21 355.85,-447.58 355.85,-410.5 355.85,-410.5 355.85,-410.5 355.85,-351.5 355.85,-319.17 355.85,-281.58 355.85,-259.21"/>
<polygon fill="midnightblue" stroke="midnightblue" points="359.35,-259.21 355.85,-249.21 352.35,-259.21 359.35,-259.21"/>
</g>
<!-- Node37 -->
<g id="node37" class="node">
<title>Node37</title>
<g id="a_node37"><a xlink:href="_pipeline_8h.html" target="_top" xlink:title=" ">
<polygon fill="none" stroke="black" points="777.47,-399.5 777.47,-419.5 836.22,-419.5 836.22,-399.5 777.47,-399.5"/>
<text text-anchor="middle" x="806.85" y="-406" font-family="Helvetica,sans-Serif" font-size="10.00">Pipeline.h</text>
</a>
</g>
</g>
<!-- Node1&#45;&gt;Node37 -->
<g id="edge58" class="edge">
<title>Node1&#45;&gt;Node37</title>
<path fill="none" stroke="midnightblue" d="M412.96,-513.56C505.67,-489.3 686.58,-441.97 766.84,-420.97"/>
<polygon fill="midnightblue" stroke="midnightblue" points="767.69,-424.1 776.48,-418.18 765.92,-417.33 767.69,-424.1"/>
</g>
<!-- Node43 -->
<g id="node43" class="node">
<title>Node43</title>
<g id="a_node43"><a xlink:href="_vertex_color_effect_8h.html" target="_top" xlink:title=" ">
<polygon fill="none" stroke="black" points="802.35,-456.5 802.35,-476.5 935.35,-476.5 935.35,-456.5 802.35,-456.5"/>
<text text-anchor="middle" x="868.85" y="-463" font-family="Helvetica,sans-Serif" font-size="10.00">Effects/VertexColorEffect.h</text>
</a>
</g>
</g>
<!-- Node1&#45;&gt;Node43 -->
<g id="edge71" class="edge">
<title>Node1&#45;&gt;Node43</title>
<path fill="none" stroke="midnightblue" d="M423.97,-520.4C519.29,-509.06 691.98,-488.53 791.86,-476.65"/>
<polygon fill="midnightblue" stroke="midnightblue" points="791.96,-480.05 801.48,-475.39 791.13,-473.1 791.96,-480.05"/>
</g>
<!-- Node3 -->
<g id="node3" class="node">
<title>Node3</title>
<g id="a_node3"><a xlink:href="_keyboard_8h.html" target="_top" xlink:title=" ">
<polygon fill="none" stroke="black" points="78.1,-285.5 78.1,-305.5 143.6,-305.5 143.6,-285.5 78.1,-285.5"/>
<text text-anchor="middle" x="110.85" y="-292" font-family="Helvetica,sans-Serif" font-size="10.00">Keyboard.h</text>
</a>
</g>
</g>
<!-- Node2&#45;&gt;Node3 -->
<g id="edge2" class="edge">
<title>Node2&#45;&gt;Node3</title>
<path fill="none" stroke="midnightblue" d="M177.15,-342.66C165.13,-334.29 146.84,-321.56 132.51,-311.58"/>
<polygon fill="midnightblue" stroke="midnightblue" points="134.98,-308.34 124.77,-305.5 130.98,-314.08 134.98,-308.34"/>
</g>
<!-- Node6 -->
<g id="node6" class="node">
<title>Node6</title>
<g id="a_node6"><a xlink:href="_mouse_8h.html" target="_top" xlink:title=" ">
<polygon fill="none" stroke="black" points="162.1,-285.5 162.1,-305.5 215.6,-305.5 215.6,-285.5 162.1,-285.5"/>
<text text-anchor="middle" x="188.85" y="-292" font-family="Helvetica,sans-Serif" font-size="10.00">Mouse.h</text>
</a>
</g>
</g>
<!-- Node2&#45;&gt;Node6 -->
<g id="edge5" class="edge">
<title>Node2&#45;&gt;Node6</title>
<path fill="none" stroke="midnightblue" d="M189.69,-342.91C189.56,-335.76 189.37,-325.32 189.2,-316.15"/>
<polygon fill="midnightblue" stroke="midnightblue" points="192.69,-316.15 189,-306.21 185.69,-316.28 192.69,-316.15"/>
</g>
<!-- Node19 -->
<g id="node19" class="node">
<title>Node19</title>
<g id="a_node19"><a xlink:href="_graphics_8h.html" target="_top" xlink:title=" ">
<polygon fill="none" stroke="black" points="775.22,-285.5 775.22,-305.5 838.47,-305.5 838.47,-285.5 775.22,-285.5"/>
<text text-anchor="middle" x="806.85" y="-292" font-family="Helvetica,sans-Serif" font-size="10.00">Graphics.h</text>
</a>
</g>
</g>
<!-- Node2&#45;&gt;Node19 -->
<g id="edge25" class="edge">
<title>Node2&#45;&gt;Node19</title>
<path fill="none" stroke="midnightblue" d="M215.57,-349.21C311.02,-340.7 645.47,-310.89 764.44,-300.28"/>
<polygon fill="midnightblue" stroke="midnightblue" points="764.62,-303.69 774.27,-299.31 764,-296.72 764.62,-303.69"/>
</g>
<!-- Node21 -->
<g id="node21" class="node">
<title>Node21</title>
<g id="a_node21"><a xlink:title=" ">
<polygon fill="none" stroke="#bfbfbf" points="293.85,-114.5 293.85,-134.5 333.85,-134.5 333.85,-114.5 293.85,-114.5"/>
<text text-anchor="middle" x="313.85" y="-121" font-family="Helvetica,sans-Serif" font-size="10.00">string</text>
</a>
</g>
</g>
<!-- Node2&#45;&gt;Node21 -->
<g id="edge50" class="edge">
<title>Node2&#45;&gt;Node21</title>
<path fill="none" stroke="midnightblue" d="M197.36,-342.81C204.85,-333.93 216.42,-319.54 224.85,-306 259.85,-249.77 291.82,-177.84 306.05,-144.3"/>
<polygon fill="midnightblue" stroke="midnightblue" points="309.53,-146.05 310.17,-135.47 303.08,-143.34 309.53,-146.05"/>
</g>
<!-- Node4 -->
<g id="node4" class="node">
<title>Node4</title>
<g id="a_node4"><a xlink:title=" ">
<polygon fill="none" stroke="#bfbfbf" points="77.85,-228.5 77.85,-248.5 117.85,-248.5 117.85,-228.5 77.85,-228.5"/>
<text text-anchor="middle" x="97.85" y="-235" font-family="Helvetica,sans-Serif" font-size="10.00">bitset</text>
</a>
</g>
</g>
<!-- Node3&#45;&gt;Node4 -->
<g id="edge3" class="edge">
<title>Node3&#45;&gt;Node4</title>
<path fill="none" stroke="midnightblue" d="M108.81,-285.91C107.11,-278.68 104.6,-268.09 102.42,-258.85"/>
<polygon fill="midnightblue" stroke="midnightblue" points="105.61,-258.14 99.91,-249.21 98.8,-259.75 105.61,-258.14"/>
</g>
<!-- Node5 -->
<g id="node5" class="node">
<title>Node5</title>
<g id="a_node5"><a xlink:title=" ">
<polygon fill="none" stroke="#bfbfbf" points="135.72,-228.5 135.72,-248.5 177.97,-248.5 177.97,-228.5 135.72,-228.5"/>
<text text-anchor="middle" x="156.85" y="-235" font-family="Helvetica,sans-Serif" font-size="10.00">queue</text>
</a>
</g>
</g>
<!-- Node3&#45;&gt;Node5 -->
<g id="edge4" class="edge">
<title>Node3&#45;&gt;Node5</title>
<path fill="none" stroke="midnightblue" d="M118.03,-285.91C124.61,-278.04 134.53,-266.18 142.7,-256.42"/>
<polygon fill="midnightblue" stroke="midnightblue" points="145.83,-259.13 149.56,-249.21 140.46,-254.64 145.83,-259.13"/>
</g>
<!-- Node6&#45;&gt;Node5 -->
<g id="edge24" class="edge">
<title>Node6&#45;&gt;Node5</title>
<path fill="none" stroke="midnightblue" d="M183.85,-285.91C179.46,-278.36 172.93,-267.14 167.39,-257.62"/>
<polygon fill="midnightblue" stroke="midnightblue" points="169.97,-256.1 161.92,-249.21 163.92,-259.62 169.97,-256.1"/>
</g>
<!-- Node7 -->
<g id="node7" class="node">
<title>Node7</title>
<g id="a_node7"><a xlink:href="_vector2_8h.html" target="_top" xlink:title=" ">
<polygon fill="none" stroke="black" points="19.72,-114.5 19.72,-134.5 139.97,-134.5 139.97,-114.5 19.72,-114.5"/>
<text text-anchor="middle" x="79.85" y="-121" font-family="Helvetica,sans-Serif" font-size="10.00">LinearAlgebra/Vector2.h</text>
</a>
</g>
</g>
<!-- Node6&#45;&gt;Node7 -->
<g id="edge6" class="edge">
<title>Node6&#45;&gt;Node7</title>
<path fill="none" stroke="midnightblue" d="M190.58,-285.86C192.79,-272.72 195.39,-247.21 186.85,-228 169.6,-189.23 130.17,-157.87 104.29,-140.47"/>
<polygon fill="midnightblue" stroke="midnightblue" points="106.4,-137.02 96.11,-134.49 102.58,-142.88 106.4,-137.02"/>
</g>
<!-- Node8 -->
<g id="node8" class="node">
<title>Node8</title>
<g id="a_node8"><a xlink:href="_math_8h.html" target="_top" xlink:title=" ">
<polygon fill="none" stroke="black" points="422.85,-57.5 422.85,-77.5 468.85,-77.5 468.85,-57.5 422.85,-57.5"/>
<text text-anchor="middle" x="445.85" y="-64" font-family="Helvetica,sans-Serif" font-size="10.00">Math.h</text>
</a>
</g>
</g>
<!-- Node7&#45;&gt;Node8 -->
<g id="edge7" class="edge">
<title>Node7&#45;&gt;Node8</title>
<path fill="none" stroke="midnightblue" d="M139.46,-114.54C217.08,-102.88 350.11,-82.89 412.15,-73.56"/>
<polygon fill="midnightblue" stroke="midnightblue" points="412.51,-76.9 421.88,-71.95 411.47,-69.98 412.51,-76.9"/>
</g>
<!-- Node13 -->
<g id="node13" class="node">
<title>Node13</title>
<g id="a_node13"><a xlink:href="_matrix2_8h.html" target="_top" xlink:title=" ">
<polygon fill="none" stroke="black" points="12.6,-57.5 12.6,-77.5 69.1,-77.5 69.1,-57.5 12.6,-57.5"/>
<text text-anchor="middle" x="40.85" y="-64" font-family="Helvetica,sans-Serif" font-size="10.00">Matrix2.h</text>
</a>
</g>
</g>
<!-- Node7&#45;&gt;Node13 -->
<g id="edge13" class="edge">
<title>Node7&#45;&gt;Node13</title>
<path fill="none" stroke="midnightblue" d="M73.75,-114.91C68.29,-107.2 60.1,-95.66 53.27,-86.02"/>
<polygon fill="midnightblue" stroke="midnightblue" points="55.66,-84.35 47.03,-78.21 49.95,-88.4 55.66,-84.35"/>
</g>
<!-- Node14 -->
<g id="node14" class="node">
<title>Node14</title>
<g id="a_node14"><a xlink:title=" ">
<polygon fill="none" stroke="#bfbfbf" points="68.1,-0.5 68.1,-20.5 121.6,-20.5 121.6,-0.5 68.1,-0.5"/>
<text text-anchor="middle" x="94.85" y="-7" font-family="Helvetica,sans-Serif" font-size="10.00">iostream</text>
</a>
</g>
</g>
<!-- Node7&#45;&gt;Node14 -->
<g id="edge23" class="edge">
<title>Node7&#45;&gt;Node14</title>
<path fill="none" stroke="midnightblue" d="M54.57,-114.61C26.83,-103.36 -11.82,-82.35 3.85,-57 15.65,-37.9 38.18,-26.54 57.86,-19.96"/>
<polygon fill="midnightblue" stroke="midnightblue" points="58.57,-23.1 67.12,-16.85 56.54,-16.4 58.57,-23.1"/>
</g>
<!-- Node7&#45;&gt;Node15 -->
<g id="edge15" class="edge">
<title>Node7&#45;&gt;Node15</title>
<path fill="none" stroke="midnightblue" d="M109.65,-114.54C140.91,-105.15 190.14,-90.35 224.32,-80.08"/>
<polygon fill="midnightblue" stroke="midnightblue" points="225.28,-83.14 233.85,-76.91 223.27,-76.44 225.28,-83.14"/>
</g>
<!-- Node16 -->
<g id="node16" class="node">
<title>Node16</title>
<g id="a_node16"><a xlink:title=" ">
<polygon fill="none" stroke="#bfbfbf" points="251.97,-0.5 251.97,-20.5 289.72,-20.5 289.72,-0.5 251.97,-0.5"/>
<text text-anchor="middle" x="270.85" y="-7" font-family="Helvetica,sans-Serif" font-size="10.00">array</text>
</a>
</g>
</g>
<!-- Node7&#45;&gt;Node16 -->
<g id="edge20" class="edge">
<title>Node7&#45;&gt;Node16</title>
<path fill="none" stroke="midnightblue" d="M87.69,-114.63C100.39,-100.72 126.78,-73.65 153.85,-57 169.06,-47.64 212.74,-31.62 242.2,-21.3"/>
<polygon fill="midnightblue" stroke="midnightblue" points="243.04,-24.37 251.34,-17.78 240.74,-17.76 243.04,-24.37"/>
</g>
<!-- Node17 -->
<g id="node17" class="node">
<title>Node17</title>
<g id="a_node17"><a xlink:title=" ">
<polygon fill="none" stroke="#bfbfbf" points="186.1,-0.5 186.1,-20.5 233.6,-20.5 233.6,-0.5 186.1,-0.5"/>
<text text-anchor="middle" x="209.85" y="-7" font-family="Helvetica,sans-Serif" font-size="10.00">cstddef</text>
</a>
</g>
</g>
<!-- Node7&#45;&gt;Node17 -->
<g id="edge22" class="edge">
<title>Node7&#45;&gt;Node17</title>
<path fill="none" stroke="midnightblue" d="M83.4,-114.7C89.35,-100.88 102.51,-73.93 120.85,-57 136.73,-42.34 158.22,-31.17 176.11,-23.57"/>
<polygon fill="midnightblue" stroke="midnightblue" points="177.2,-26.5 185.16,-19.51 174.57,-20.01 177.2,-26.5"/>
</g>
<!-- Node18 -->
<g id="node18" class="node">
<title>Node18</title>
<g id="a_node18"><a xlink:title=" ">
<polygon fill="none" stroke="#bfbfbf" points="163.1,-57.5 163.1,-77.5 216.6,-77.5 216.6,-57.5 163.1,-57.5"/>
<text text-anchor="middle" x="189.85" y="-64" font-family="Helvetica,sans-Serif" font-size="10.00">compare</text>
</a>
</g>
</g>
<!-- Node7&#45;&gt;Node18 -->
<g id="edge21" class="edge">
<title>Node7&#45;&gt;Node18</title>
<path fill="none" stroke="midnightblue" d="M97.52,-114.66C114.98,-105.94 141.93,-92.46 162.22,-82.31"/>
<polygon fill="midnightblue" stroke="midnightblue" points="163.47,-85.1 170.85,-77.5 160.34,-78.84 163.47,-85.1"/>
</g>
<!-- Node8&#45;&gt;Node8 -->
<g id="edge8" class="edge">
<title>Node8&#45;&gt;Node8</title>
<path fill="none" stroke="midnightblue" d="M464.4,-77.43C475.9,-79.83 486.85,-76.52 486.85,-67.5 486.85,-61.44 481.9,-57.96 475.17,-57.05"/>
<polygon fill="midnightblue" stroke="midnightblue" points="475.22,-53.59 465.4,-57.57 475.55,-60.59 475.22,-53.59"/>
</g>
<!-- Node9 -->
<g id="node9" class="node">
<title>Node9</title>
<g id="a_node9"><a xlink:title=" ">
<polygon fill="none" stroke="#bfbfbf" points="337.35,-0.5 337.35,-20.5 380.35,-20.5 380.35,-0.5 337.35,-0.5"/>
<text text-anchor="middle" x="358.85" y="-7" font-family="Helvetica,sans-Serif" font-size="10.00">cmath</text>
</a>
</g>
</g>
<!-- Node8&#45;&gt;Node9 -->
<g id="edge9" class="edge">
<title>Node8&#45;&gt;Node9</title>
<path fill="none" stroke="midnightblue" d="M431.87,-57.66C418.5,-49.21 398.1,-36.31 382.25,-26.3"/>
<polygon fill="midnightblue" stroke="midnightblue" points="384.4,-22.88 374.08,-20.5 380.66,-28.8 384.4,-22.88"/>
</g>
<!-- Node10 -->
<g id="node10" class="node">
<title>Node10</title>
<g id="a_node10"><a xlink:title=" ">
<polygon fill="none" stroke="#bfbfbf" points="831.22,-0.5 831.22,-20.5 870.47,-20.5 870.47,-0.5 831.22,-0.5"/>
<text text-anchor="middle" x="850.85" y="-7" font-family="Helvetica,sans-Serif" font-size="10.00">limits</text>
</a>
</g>
</g>
<!-- Node8&#45;&gt;Node10 -->
<g id="edge10" class="edge">
<title>Node8&#45;&gt;Node10</title>
<path fill="none" stroke="midnightblue" d="M468.78,-63.39C537.84,-54.01 743.81,-26.04 821.1,-15.54"/>
<polygon fill="midnightblue" stroke="midnightblue" points="821.1,-18.94 830.54,-14.12 820.16,-12 821.1,-18.94"/>
</g>
<!-- Node11 -->
<g id="node11" class="node">
<title>Node11</title>
<g id="a_node11"><a xlink:title=" ">
<polygon fill="none" stroke="#bfbfbf" points="480.1,-0.5 480.1,-20.5 533.6,-20.5 533.6,-0.5 480.1,-0.5"/>
<text text-anchor="middle" x="506.85" y="-7" font-family="Helvetica,sans-Serif" font-size="10.00">numbers</text>
</a>
</g>
</g>
<!-- Node8&#45;&gt;Node11 -->
<g id="edge11" class="edge">
<title>Node8&#45;&gt;Node11</title>
<path fill="none" stroke="midnightblue" d="M455.65,-57.66C464.58,-49.61 477.99,-37.52 488.84,-27.73"/>
<polygon fill="midnightblue" stroke="midnightblue" points="490.78,-30.79 495.87,-21.5 486.1,-25.59 490.78,-30.79"/>
</g>
<!-- Node12 -->
<g id="node12" class="node">
<title>Node12</title>
<g id="a_node12"><a xlink:title=" ">
<polygon fill="none" stroke="#bfbfbf" points="413.72,-0.5 413.72,-20.5 461.97,-20.5 461.97,-0.5 413.72,-0.5"/>
<text text-anchor="middle" x="437.85" y="-7" font-family="Helvetica,sans-Serif" font-size="10.00">random</text>
</a>
</g>
</g>
<!-- Node8&#45;&gt;Node12 -->
<g id="edge12" class="edge">
<title>Node8&#45;&gt;Node12</title>
<path fill="none" stroke="midnightblue" d="M444.6,-57.91C443.54,-50.68 442,-40.09 440.66,-30.85"/>
<polygon fill="midnightblue" stroke="midnightblue" points="444.02,-30.61 439.11,-21.21 437.09,-31.61 444.02,-30.61"/>
</g>
<!-- Node13&#45;&gt;Node14 -->
<g id="edge14" class="edge">
<title>Node13&#45;&gt;Node14</title>
<path fill="none" stroke="midnightblue" d="M49.28,-57.91C57.16,-49.88 69.13,-37.69 78.82,-27.82"/>
<polygon fill="midnightblue" stroke="midnightblue" points="80.78,-30.8 85.29,-21.21 75.79,-25.9 80.78,-30.8"/>
</g>
<!-- Node15&#45;&gt;Node9 -->
<g id="edge17" class="edge">
<title>Node15&#45;&gt;Node9</title>
<path fill="none" stroke="midnightblue" d="M278.27,-57.66C293.3,-49.05 316.39,-35.83 334,-25.73"/>
<polygon fill="midnightblue" stroke="midnightblue" points="335.2,-28.51 342.14,-20.5 331.72,-22.43 335.2,-28.51"/>
</g>
<!-- Node15&#45;&gt;Node14 -->
<g id="edge19" class="edge">
<title>Node15&#45;&gt;Node14</title>
<path fill="none" stroke="midnightblue" d="M235.48,-57.54C207.16,-48.27 162.77,-33.74 131.45,-23.48"/>
<polygon fill="midnightblue" stroke="midnightblue" points="132.96,-19.97 122.37,-20.18 130.78,-26.62 132.96,-19.97"/>
</g>
<!-- Node15&#45;&gt;Node16 -->
<g id="edge16" class="edge">
<title>Node15&#45;&gt;Node16</title>
<path fill="none" stroke="midnightblue" d="M264.1,-57.91C265.15,-50.68 266.69,-40.09 268.03,-30.85"/>
<polygon fill="midnightblue" stroke="midnightblue" points="271.6,-31.61 269.58,-21.21 264.67,-30.61 271.6,-31.61"/>
</g>
<!-- Node15&#45;&gt;Node17 -->
<g id="edge18" class="edge">
<title>Node15&#45;&gt;Node17</title>
<path fill="none" stroke="midnightblue" d="M254.56,-57.91C246.91,-49.96 235.32,-37.94 225.86,-28.12"/>
<polygon fill="midnightblue" stroke="midnightblue" points="228.7,-25.99 219.24,-21.21 223.66,-30.84 228.7,-25.99"/>
</g>
<!-- Node20 -->
<g id="node20" class="node">
<title>Node20</title>
<g id="a_node20"><a xlink:href="_engine_exception_8h.html" target="_top" xlink:title=" ">
<polygon fill="none" stroke="black" points="473.97,-171.5 473.97,-191.5 571.72,-191.5 571.72,-171.5 473.97,-171.5"/>
<text text-anchor="middle" x="522.85" y="-178" font-family="Helvetica,sans-Serif" font-size="10.00">EngineException.h</text>
</a>
</g>
</g>
<!-- Node19&#45;&gt;Node20 -->
<g id="edge26" class="edge">
<title>Node19&#45;&gt;Node20</title>
<path fill="none" stroke="midnightblue" d="M784.08,-285.52C733.9,-265.73 613.59,-218.29 555.43,-195.35"/>
<polygon fill="midnightblue" stroke="midnightblue" points="556.91,-191.78 546.32,-191.36 554.34,-198.29 556.91,-191.78"/>
</g>
<!-- Node22 -->
<g id="node22" class="node">
<title>Node22</title>
<g id="a_node22"><a xlink:href="_vector3_8h.html" target="_top" xlink:title=" ">
<polygon fill="none" stroke="black" points="351.72,-114.5 351.72,-134.5 471.97,-134.5 471.97,-114.5 351.72,-114.5"/>
<text text-anchor="middle" x="411.85" y="-121" font-family="Helvetica,sans-Serif" font-size="10.00">LinearAlgebra/Vector3.h</text>
</a>
</g>
</g>
<!-- Node19&#45;&gt;Node22 -->
<g id="edge28" class="edge">
<title>Node19&#45;&gt;Node22</title>
<path fill="none" stroke="midnightblue" d="M804.12,-285.79C800.42,-272.1 795.55,-245.33 807.85,-228 834.69,-190.15 879.29,-230.05 905.85,-192 911.19,-184.35 912.14,-177.9 905.85,-171 877.89,-140.36 612.29,-130.07 482.52,-126.85"/>
<polygon fill="midnightblue" stroke="midnightblue" points="482.61,-123.33 472.53,-126.59 482.44,-130.33 482.61,-123.33"/>
</g>
<!-- Node23 -->
<g id="node23" class="node">
<title>Node23</title>
<g id="a_node23"><a xlink:href="_g_d_i_plus_manager_8h.html" target="_top" xlink:title=" ">
<polygon fill="none" stroke="black" points="976.97,-228.5 976.97,-248.5 1074.72,-248.5 1074.72,-228.5 976.97,-228.5"/>
<text text-anchor="middle" x="1025.85" y="-235" font-family="Helvetica,sans-Serif" font-size="10.00">GDIPlusManager.h</text>
</a>
</g>
</g>
<!-- Node19&#45;&gt;Node23 -->
<g id="edge35" class="edge">
<title>Node19&#45;&gt;Node23</title>
<path fill="none" stroke="midnightblue" d="M838.22,-286.62C875.22,-277.33 937.03,-261.81 979.53,-251.13"/>
<polygon fill="midnightblue" stroke="midnightblue" points="980.32,-254.29 989.16,-248.46 978.61,-247.5 980.32,-254.29"/>
</g>
<!-- Node27 -->
<g id="node27" class="node">
<title>Node27</title>
<g id="a_node27"><a xlink:href="_surface_8h.html" target="_top" xlink:title=" ">
<polygon fill="none" stroke="black" points="703.22,-228.5 703.22,-248.5 760.47,-248.5 760.47,-228.5 703.22,-228.5"/>
<text text-anchor="middle" x="731.85" y="-235" font-family="Helvetica,sans-Serif" font-size="10.00">Surface.h</text>
</a>
</g>
</g>
<!-- Node19&#45;&gt;Node27 -->
<g id="edge39" class="edge">
<title>Node19&#45;&gt;Node27</title>
<path fill="none" stroke="midnightblue" d="M794.8,-285.66C783.49,-277.37 766.34,-264.8 752.8,-254.87"/>
<polygon fill="midnightblue" stroke="midnightblue" points="755.25,-251.59 745.11,-248.5 751.11,-257.23 755.25,-251.59"/>
</g>
<!-- Node32 -->
<g id="node32" class="node">
<title>Node32</title>
<g id="a_node32"><a xlink:title=" ">
<polygon fill="none" stroke="#bfbfbf" points="816.6,-228.5 816.6,-248.5 867.1,-248.5 867.1,-228.5 816.6,-228.5"/>
<text text-anchor="middle" x="841.85" y="-235" font-family="Helvetica,sans-Serif" font-size="10.00">d3d11.h</text>
</a>
</g>
</g>
<!-- Node19&#45;&gt;Node32 -->
<g id="edge48" class="edge">
<title>Node19&#45;&gt;Node32</title>
<path fill="none" stroke="midnightblue" d="M812.31,-285.91C817.17,-278.28 824.41,-266.9 830.51,-257.32"/>
<polygon fill="midnightblue" stroke="midnightblue" points="833.88,-259.53 836.3,-249.21 827.98,-255.77 833.88,-259.53"/>
</g>
<!-- Node33 -->
<g id="node33" class="node">
<title>Node33</title>
<g id="a_node33"><a xlink:title=" ">
<polygon fill="none" stroke="#bfbfbf" points="884.72,-228.5 884.72,-248.5 920.97,-248.5 920.97,-228.5 884.72,-228.5"/>
<text text-anchor="middle" x="902.85" y="-235" font-family="Helvetica,sans-Serif" font-size="10.00">wrl.h</text>
</a>
</g>
</g>
<!-- Node19&#45;&gt;Node33 -->
<g id="edge49" class="edge">
<title>Node19&#45;&gt;Node33</title>
<path fill="none" stroke="midnightblue" d="M822.27,-285.66C837.3,-277.05 860.39,-263.83 878,-253.73"/>
<polygon fill="midnightblue" stroke="midnightblue" points="879.2,-256.51 886.14,-248.5 875.72,-250.43 879.2,-256.51"/>
</g>
<!-- Node20&#45;&gt;Node21 -->
<g id="edge27" class="edge">
<title>Node20&#45;&gt;Node21</title>
<path fill="none" stroke="midnightblue" d="M484.01,-171.5C449.63,-163.36 397.88,-150.65 344.16,-135.24"/>
<polygon fill="midnightblue" stroke="midnightblue" points="345.34,-131.64 334.76,-132.22 343.39,-138.37 345.34,-131.64"/>
</g>
<!-- Node22&#45;&gt;Node8 -->
<g id="edge29" class="edge">
<title>Node22&#45;&gt;Node8</title>
<path fill="none" stroke="midnightblue" d="M417.16,-114.91C421.87,-107.28 428.91,-95.9 434.83,-86.32"/>
<polygon fill="midnightblue" stroke="midnightblue" points="438.18,-88.56 440.46,-78.21 432.22,-84.88 438.18,-88.56"/>
</g>
<!-- Node22&#45;&gt;Node14 -->
<g id="edge32" class="edge">
<title>Node22&#45;&gt;Node14</title>
<path fill="none" stroke="midnightblue" d="M395.99,-114.64C379.95,-105.61 354.51,-91.12 332.85,-78 317.98,-68.99 315.91,-63.65 299.85,-57 243.84,-33.81 174.12,-21.55 132.11,-15.81"/>
<polygon fill="midnightblue" stroke="midnightblue" points="132.66,-12.22 122.29,-14.39 131.75,-19.16 132.66,-12.22"/>
</g>
<!-- Node22&#45;&gt;Node15 -->
<g id="edge30" class="edge">
<title>Node22&#45;&gt;Node15</title>
<path fill="none" stroke="midnightblue" d="M387.57,-114.54C363.01,-105.47 324.79,-91.37 297.14,-81.16"/>
<polygon fill="midnightblue" stroke="midnightblue" points="298.7,-77.63 288.11,-77.46 296.28,-84.2 298.7,-77.63"/>
</g>
<!-- Node22&#45;&gt;Node16 -->
<g id="edge31" class="edge">
<title>Node22&#45;&gt;Node16</title>
<path fill="none" stroke="midnightblue" d="M408.38,-114.59C402.56,-100.64 389.56,-73.51 370.85,-57 350.38,-38.95 321.56,-26.87 300.11,-19.72"/>
<polygon fill="midnightblue" stroke="midnightblue" points="301.24,-16.09 290.65,-16.42 299.14,-22.76 301.24,-16.09"/>
</g>
<!-- Node22&#45;&gt;Node17 -->
<g id="edge34" class="edge">
<title>Node22&#45;&gt;Node17</title>
<path fill="none" stroke="midnightblue" d="M403.38,-114.62C389.69,-100.69 361.36,-73.59 332.85,-57 317.4,-48.01 274.64,-32.94 243.88,-22.62"/>
<polygon fill="midnightblue" stroke="midnightblue" points="245.15,-19.02 234.56,-19.19 242.94,-25.67 245.15,-19.02"/>
</g>
<!-- Node22&#45;&gt;Node18 -->
<g id="edge33" class="edge">
<title>Node22&#45;&gt;Node18</title>
<path fill="none" stroke="midnightblue" d="M374.39,-114.55C338.99,-106.04 284.14,-92.74 227.22,-78.31"/>
<polygon fill="midnightblue" stroke="midnightblue" points="228.12,-74.68 217.57,-75.61 226.4,-81.46 228.12,-74.68"/>
</g>
<!-- Node24 -->
<g id="node24" class="node">
<title>Node24</title>
<g id="a_node24"><a xlink:href="_win_8h.html" target="_top" xlink:title=" ">
<polygon fill="none" stroke="black" points="1005.1,-171.5 1005.1,-191.5 1046.6,-191.5 1046.6,-171.5 1005.1,-171.5"/>
<text text-anchor="middle" x="1025.85" y="-178" font-family="Helvetica,sans-Serif" font-size="10.00">Win.h</text>
</a>
</g>
</g>
<!-- Node23&#45;&gt;Node24 -->
<g id="edge36" class="edge">
<title>Node23&#45;&gt;Node24</title>
<path fill="none" stroke="midnightblue" d="M1025.85,-228.91C1025.85,-221.76 1025.85,-211.32 1025.85,-202.15"/>
<polygon fill="midnightblue" stroke="midnightblue" points="1029.35,-202.21 1025.85,-192.21 1022.35,-202.21 1029.35,-202.21"/>
</g>
<!-- Node25 -->
<g id="node25" class="node">
<title>Node25</title>
<g id="a_node25"><a xlink:title=" ">
<polygon fill="none" stroke="#bfbfbf" points="934.97,-114.5 934.97,-134.5 1002.72,-134.5 1002.72,-114.5 934.97,-114.5"/>
<text text-anchor="middle" x="968.85" y="-121" font-family="Helvetica,sans-Serif" font-size="10.00">sdkddkver.h</text>
</a>
</g>
</g>
<!-- Node24&#45;&gt;Node25 -->
<g id="edge37" class="edge">
<title>Node24&#45;&gt;Node25</title>
<path fill="none" stroke="midnightblue" d="M1016.69,-171.66C1008.43,-163.69 996.06,-151.76 985.97,-142.02"/>
<polygon fill="midnightblue" stroke="midnightblue" points="988.8,-139.92 979.17,-135.5 983.94,-144.96 988.8,-139.92"/>
</g>
<!-- Node26 -->
<g id="node26" class="node">
<title>Node26</title>
<g id="a_node26"><a xlink:title=" ">
<polygon fill="none" stroke="#bfbfbf" points="1020.85,-114.5 1020.85,-134.5 1084.85,-134.5 1084.85,-114.5 1020.85,-114.5"/>
<text text-anchor="middle" x="1052.85" y="-121" font-family="Helvetica,sans-Serif" font-size="10.00">Windows.h</text>
</a>
</g>
</g>
<!-- Node24&#45;&gt;Node26 -->
<g id="edge38" class="edge">
<title>Node24&#45;&gt;Node26</title>
<path fill="none" stroke="midnightblue" d="M1030.06,-171.91C1033.73,-164.44 1039.16,-153.38 1043.8,-143.93"/>
<polygon fill="midnightblue" stroke="midnightblue" points="1047.3,-145.73 1048.57,-135.21 1041.02,-142.65 1047.3,-145.73"/>
</g>
<!-- Node27&#45;&gt;Node20 -->
<g id="edge43" class="edge">
<title>Node27&#45;&gt;Node20</title>
<path fill="none" stroke="midnightblue" d="M703.22,-229.97C668.23,-220.76 608.6,-205.07 567.54,-194.26"/>
<polygon fill="midnightblue" stroke="midnightblue" points="568.57,-190.65 558.01,-191.49 566.79,-197.42 568.57,-190.65"/>
</g>
<!-- Node27&#45;&gt;Node21 -->
<g id="edge46" class="edge">
<title>Node27&#45;&gt;Node21</title>
<path fill="none" stroke="midnightblue" d="M707.23,-228.58C684.08,-219.96 648.64,-206.17 618.85,-192 601.42,-183.71 599.12,-177.21 580.85,-171 482.81,-137.7 449.1,-158.31 344.39,-134.96"/>
<polygon fill="midnightblue" stroke="midnightblue" points="345.22,-131.33 334.69,-132.48 343.64,-138.15 345.22,-131.33"/>
</g>
<!-- Node27&#45;&gt;Node24 -->
<g id="edge40" class="edge">
<title>Node27&#45;&gt;Node24</title>
<path fill="none" stroke="midnightblue" d="M760.3,-232.18C815.69,-221.81 937.58,-199.01 994.9,-188.29"/>
<polygon fill="midnightblue" stroke="midnightblue" points="995.28,-191.59 1004.46,-186.31 993.99,-184.71 995.28,-191.59"/>
</g>
<!-- Node28 -->
<g id="node28" class="node">
<title>Node28</title>
<g id="a_node28"><a xlink:href="_colors_8h.html" target="_top" xlink:title=" ">
<polygon fill="none" stroke="black" points="705.85,-171.5 705.85,-191.5 757.85,-191.5 757.85,-171.5 705.85,-171.5"/>
<text text-anchor="middle" x="731.85" y="-178" font-family="Helvetica,sans-Serif" font-size="10.00">Colors.h</text>
</a>
</g>
</g>
<!-- Node27&#45;&gt;Node28 -->
<g id="edge41" class="edge">
<title>Node27&#45;&gt;Node28</title>
<path fill="none" stroke="midnightblue" d="M731.85,-228.91C731.85,-221.76 731.85,-211.32 731.85,-202.15"/>
<polygon fill="midnightblue" stroke="midnightblue" points="735.35,-202.21 731.85,-192.21 728.35,-202.21 735.35,-202.21"/>
</g>
<!-- Node29 -->
<g id="node29" class="node">
<title>Node29</title>
<g id="a_node29"><a xlink:title=" ">
<polygon fill="none" stroke="#bfbfbf" points="776.22,-171.5 776.22,-191.5 827.47,-191.5 827.47,-171.5 776.22,-171.5"/>
<text text-anchor="middle" x="801.85" y="-178" font-family="Helvetica,sans-Serif" font-size="10.00">assert.h</text>
</a>
</g>
</g>
<!-- Node27&#45;&gt;Node29 -->
<g id="edge44" class="edge">
<title>Node27&#45;&gt;Node29</title>
<path fill="none" stroke="midnightblue" d="M743.09,-228.66C753.54,-220.45 769.34,-208.04 781.92,-198.15"/>
<polygon fill="midnightblue" stroke="midnightblue" points="783.69,-200.43 789.39,-191.5 779.37,-194.92 783.69,-200.43"/>
</g>
<!-- Node30 -->
<g id="node30" class="node">
<title>Node30</title>
<g id="a_node30"><a xlink:title=" ">
<polygon fill="none" stroke="#bfbfbf" points="845.22,-171.5 845.22,-191.5 896.47,-191.5 896.47,-171.5 845.22,-171.5"/>
<text text-anchor="middle" x="870.85" y="-178" font-family="Helvetica,sans-Serif" font-size="10.00">memory</text>
</a>
</g>
</g>
<!-- Node27&#45;&gt;Node30 -->
<g id="edge45" class="edge">
<title>Node27&#45;&gt;Node30</title>
<path fill="none" stroke="midnightblue" d="M754.49,-228.54C777.21,-219.55 812.43,-205.62 838.17,-195.43"/>
<polygon fill="midnightblue" stroke="midnightblue" points="839.2,-198.39 847.21,-191.46 836.63,-191.88 839.2,-198.39"/>
</g>
<!-- Node31 -->
<g id="node31" class="node">
<title>Node31</title>
<g id="a_node31"><a xlink:title=" ">
<polygon fill="none" stroke="#bfbfbf" points="627.72,-171.5 627.72,-191.5 687.97,-191.5 687.97,-171.5 627.72,-171.5"/>
<text text-anchor="middle" x="657.85" y="-178" font-family="Helvetica,sans-Serif" font-size="10.00">filesystem</text>
</a>
</g>
</g>
<!-- Node27&#45;&gt;Node31 -->
<g id="edge47" class="edge">
<title>Node27&#45;&gt;Node31</title>
<path fill="none" stroke="midnightblue" d="M719.96,-228.66C708.8,-220.37 691.88,-207.8 678.52,-197.87"/>
<polygon fill="midnightblue" stroke="midnightblue" points="681.06,-194.65 670.95,-191.5 676.89,-200.27 681.06,-194.65"/>
</g>
<!-- Node28&#45;&gt;Node22 -->
<g id="edge42" class="edge">
<title>Node28&#45;&gt;Node22</title>
<path fill="none" stroke="midnightblue" d="M705.93,-173.13C702.88,-172.37 699.8,-171.63 696.85,-171 624.48,-155.45 540.72,-142.69 482.83,-134.69"/>
<polygon fill="midnightblue" stroke="midnightblue" points="483.35,-131.09 472.96,-133.2 482.4,-138.02 483.35,-131.09"/>
</g>
<!-- Node34&#45;&gt;Node7 -->
<g id="edge55" class="edge">
<title>Node34&#45;&gt;Node7</title>
<path fill="none" stroke="midnightblue" d="M333.73,-228.52C285.06,-208.77 168.52,-161.48 111.86,-138.49"/>
<polygon fill="midnightblue" stroke="midnightblue" points="113.27,-134.88 102.69,-134.36 110.64,-141.37 113.27,-134.88"/>
</g>
<!-- Node34&#45;&gt;Node22 -->
<g id="edge56" class="edge">
<title>Node34&#45;&gt;Node22</title>
<path fill="none" stroke="midnightblue" d="M349.77,-228.8C341.35,-215.57 328.32,-189.96 338.85,-171 346.85,-156.57 361.55,-146.12 375.67,-138.9"/>
<polygon fill="midnightblue" stroke="midnightblue" points="376.69,-141.82 384.26,-134.41 373.72,-135.48 376.69,-141.82"/>
</g>
<!-- Node35 -->
<g id="node35" class="node">
<title>Node35</title>
<g id="a_node35"><a xlink:href="_indexed_triangle_list_8h.html" target="_top" xlink:title=" ">
<polygon fill="none" stroke="black" points="348.1,-171.5 348.1,-191.5 455.6,-191.5 455.6,-171.5 348.1,-171.5"/>
<text text-anchor="middle" x="401.85" y="-178" font-family="Helvetica,sans-Serif" font-size="10.00">IndexedTriangleList.h</text>
</a>
</g>
</g>
<!-- Node34&#45;&gt;Node35 -->
<g id="edge52" class="edge">
<title>Node34&#45;&gt;Node35</title>
<path fill="none" stroke="midnightblue" d="M363.03,-228.91C369.61,-221.04 379.53,-209.18 387.7,-199.42"/>
<polygon fill="midnightblue" stroke="midnightblue" points="390.83,-202.13 394.56,-192.21 385.46,-197.64 390.83,-202.13"/>
</g>
<!-- Node35&#45;&gt;Node22 -->
<g id="edge53" class="edge">
<title>Node35&#45;&gt;Node22</title>
<path fill="none" stroke="midnightblue" d="M403.41,-171.91C404.72,-164.68 406.65,-154.09 408.33,-144.85"/>
<polygon fill="midnightblue" stroke="midnightblue" points="411.92,-145.68 410.26,-135.21 405.03,-144.43 411.92,-145.68"/>
</g>
<!-- Node36 -->
<g id="node36" class="node">
<title>Node36</title>
<g id="a_node36"><a xlink:title=" ">
<polygon fill="none" stroke="#bfbfbf" points="234.1,-114.5 234.1,-134.5 275.6,-134.5 275.6,-114.5 234.1,-114.5"/>
<text text-anchor="middle" x="254.85" y="-121" font-family="Helvetica,sans-Serif" font-size="10.00">vector</text>
</a>
</g>
</g>
<!-- Node35&#45;&gt;Node36 -->
<g id="edge54" class="edge">
<title>Node35&#45;&gt;Node36</title>
<path fill="none" stroke="midnightblue" d="M377.9,-171.54C352.76,-162.14 313.15,-147.31 285.69,-137.04"/>
<polygon fill="midnightblue" stroke="midnightblue" points="287.05,-133.44 276.46,-133.21 284.6,-139.99 287.05,-133.44"/>
</g>
<!-- Node37&#45;&gt;Node15 -->
<g id="edge66" class="edge">
<title>Node37&#45;&gt;Node15</title>
<path fill="none" stroke="midnightblue" d="M777.51,-406.03C694.63,-397.75 454.78,-364.59 300.85,-249 252.15,-212.44 242.49,-193.28 224.85,-135 222.14,-126.07 221.66,-122.77 224.85,-114 228.81,-103.06 236.69,-92.9 244.25,-84.98"/>
<polygon fill="midnightblue" stroke="midnightblue" points="246.4,-87.8 251.13,-78.32 241.52,-82.78 246.4,-87.8"/>
</g>
<!-- Node37&#45;&gt;Node19 -->
<g id="edge60" class="edge">
<title>Node37&#45;&gt;Node19</title>
<path fill="none" stroke="midnightblue" d="M806.85,-399.71C806.85,-381.8 806.85,-340.69 806.85,-316.11"/>
<polygon fill="midnightblue" stroke="midnightblue" points="810.35,-316.25 806.85,-306.25 803.35,-316.25 810.35,-316.25"/>
</g>
<!-- Node37&#45;&gt;Node24 -->
<g id="edge59" class="edge">
<title>Node37&#45;&gt;Node24</title>
<path fill="none" stroke="midnightblue" d="M835.86,-401.37C879.98,-390.4 960.06,-369.93 971.85,-363 987.15,-354 1077.12,-265.44 1083.85,-249 1087.38,-240.36 1087.93,-236.39 1083.85,-228 1077.55,-215.05 1065.58,-204.7 1054.15,-197.16"/>
<polygon fill="midnightblue" stroke="midnightblue" points="1056.17,-193.68 1045.81,-191.49 1052.54,-199.67 1056.17,-193.68"/>
</g>
<!-- Node37&#45;&gt;Node35 -->
<g id="edge62" class="edge">
<title>Node37&#45;&gt;Node35</title>
<path fill="none" stroke="midnightblue" d="M787.77,-399.64C768.83,-390.74 739.07,-376.44 713.85,-363 604.35,-304.63 477.3,-228.4 425.58,-196.99"/>
<polygon fill="midnightblue" stroke="midnightblue" points="427.63,-193.53 417.26,-191.32 423.99,-199.51 427.63,-193.53"/>
</g>
<!-- Node38 -->
<g id="node38" class="node">
<title>Node38</title>
<g id="a_node38"><a xlink:href="_triangle_8h.html" target="_top" xlink:title=" ">
<polygon fill="none" stroke="black" points="1134.85,-342.5 1134.85,-362.5 1192.85,-362.5 1192.85,-342.5 1134.85,-342.5"/>
<text text-anchor="middle" x="1163.85" y="-349" font-family="Helvetica,sans-Serif" font-size="10.00">Triangle.h</text>
</a>
</g>
</g>
<!-- Node37&#45;&gt;Node38 -->
<g id="edge61" class="edge">
<title>Node37&#45;&gt;Node38</title>
<path fill="none" stroke="midnightblue" d="M836.16,-400.99C839.42,-400.27 842.69,-399.58 845.85,-399 965.84,-376.74 1000.66,-385.73 1124.24,-363.1"/>
<polygon fill="midnightblue" stroke="midnightblue" points="1124.69,-366.39 1133.88,-361.11 1123.4,-359.51 1124.69,-366.39"/>
</g>
<!-- Node39 -->
<g id="node39" class="node">
<title>Node39</title>
<g id="a_node39"><a xlink:href="_pube_screen_transformer_8h.html" target="_top" xlink:title=" ">
<polygon fill="none" stroke="black" points="834.6,-342.5 834.6,-362.5 963.1,-362.5 963.1,-342.5 834.6,-342.5"/>
<text text-anchor="middle" x="898.85" y="-349" font-family="Helvetica,sans-Serif" font-size="10.00">PubeScreenTransformer.h</text>
</a>
</g>
</g>
<!-- Node37&#45;&gt;Node39 -->
<g id="edge63" class="edge">
<title>Node37&#45;&gt;Node39</title>
<path fill="none" stroke="midnightblue" d="M821.63,-399.66C835.89,-391.13 857.75,-378.07 874.57,-368.01"/>
<polygon fill="midnightblue" stroke="midnightblue" points="876.01,-370.63 882.8,-362.5 872.42,-364.62 876.01,-370.63"/>
</g>
<!-- Node40 -->
<g id="node40" class="node">
<title>Node40</title>
<g id="a_node40"><a xlink:href="_z_buffer_8h.html" target="_top" xlink:title=" ">
<polygon fill="none" stroke="black" points="1062.72,-342.5 1062.72,-362.5 1116.97,-362.5 1116.97,-342.5 1062.72,-342.5"/>
<text text-anchor="middle" x="1089.85" y="-349" font-family="Helvetica,sans-Serif" font-size="10.00">ZBuffer.h</text>
</a>
</g>
</g>
<!-- Node37&#45;&gt;Node40 -->
<g id="edge67" class="edge">
<title>Node37&#45;&gt;Node40</title>
<path fill="none" stroke="midnightblue" d="M836.19,-401.14C839.44,-400.39 842.71,-399.66 845.85,-399 935.51,-380.15 959.07,-381.35 1048.85,-363 1049.99,-362.77 1051.15,-362.52 1052.33,-362.28"/>
<polygon fill="midnightblue" stroke="midnightblue" points="1052.97,-365.5 1061.98,-359.94 1051.46,-358.66 1052.97,-365.5"/>
</g>
<!-- Node42 -->
<g id="node42" class="node">
<title>Node42</title>
<g id="a_node42"><a xlink:title=" ">
<polygon fill="none" stroke="#bfbfbf" points="722.97,-342.5 722.97,-362.5 778.72,-362.5 778.72,-342.5 722.97,-342.5"/>
<text text-anchor="middle" x="750.85" y="-349" font-family="Helvetica,sans-Serif" font-size="10.00">algorithm</text>
</a>
</g>
</g>
<!-- Node37&#45;&gt;Node42 -->
<g id="edge70" class="edge">
<title>Node37&#45;&gt;Node42</title>
<path fill="none" stroke="midnightblue" d="M797.85,-399.66C789.73,-391.69 777.58,-379.76 767.67,-370.02"/>
<polygon fill="midnightblue" stroke="midnightblue" points="770.59,-368.01 761.01,-363.5 765.69,-373 770.59,-368.01"/>
</g>
<!-- Node39&#45;&gt;Node19 -->
<g id="edge64" class="edge">
<title>Node39&#45;&gt;Node19</title>
<path fill="none" stroke="midnightblue" d="M884.06,-342.66C869.8,-334.13 847.95,-321.07 831.12,-311.01"/>
<polygon fill="midnightblue" stroke="midnightblue" points="833.27,-307.62 822.9,-305.5 829.68,-313.63 833.27,-307.62"/>
</g>
<!-- Node39&#45;&gt;Node22 -->
<g id="edge65" class="edge">
<title>Node39&#45;&gt;Node22</title>
<path fill="none" stroke="midnightblue" d="M904.21,-342.69C921.39,-313.3 971.07,-217.8 921.85,-171 890.67,-141.36 615.09,-130.53 482.5,-127.01"/>
<polygon fill="midnightblue" stroke="midnightblue" points="482.76,-123.49 472.67,-126.73 482.58,-130.49 482.76,-123.49"/>
</g>
<!-- Node40&#45;&gt;Node10 -->
<g id="edge68" class="edge">
<title>Node40&#45;&gt;Node10</title>
<path fill="none" stroke="midnightblue" d="M1097.43,-342.65C1104.62,-333.87 1115.27,-319.77 1121.85,-306 1135.09,-278.26 1140.85,-270.24 1140.85,-239.5 1140.85,-239.5 1140.85,-239.5 1140.85,-123.5 1140.85,-68.19 954.92,-29.65 880.81,-16.48"/>
<polygon fill="midnightblue" stroke="midnightblue" points="881.78,-12.92 871.32,-14.66 880.58,-19.82 881.78,-12.92"/>
</g>
<!-- Node41 -->
<g id="node41" class="node">
<title>Node41</title>
<g id="a_node41"><a xlink:title=" ">
<polygon fill="none" stroke="#bfbfbf" points="1064.72,-285.5 1064.72,-305.5 1112.97,-305.5 1112.97,-285.5 1064.72,-285.5"/>
<text text-anchor="middle" x="1088.85" y="-292" font-family="Helvetica,sans-Serif" font-size="10.00">cassert</text>
</a>
</g>
</g>
<!-- Node40&#45;&gt;Node41 -->
<g id="edge69" class="edge">
<title>Node40&#45;&gt;Node41</title>
<path fill="none" stroke="midnightblue" d="M1089.69,-342.91C1089.56,-335.76 1089.37,-325.32 1089.2,-316.15"/>
<polygon fill="midnightblue" stroke="midnightblue" points="1092.69,-316.15 1089,-306.21 1085.69,-316.28 1092.69,-316.15"/>
</g>
<!-- Node43&#45;&gt;Node37 -->
<g id="edge72" class="edge">
<title>Node43&#45;&gt;Node37</title>
<path fill="none" stroke="midnightblue" d="M858.88,-456.66C849.81,-448.61 836.18,-436.52 825.14,-426.73"/>
<polygon fill="midnightblue" stroke="midnightblue" points="827.79,-424.52 817.99,-420.5 823.15,-429.75 827.79,-424.52"/>
</g>
<!-- Node44 -->
<g id="node44" class="node">
<title>Node44</title>
<g id="a_node44"><a xlink:href="_default_vertex_shader_8h.html" target="_top" xlink:title=" ">
<polygon fill="none" stroke="black" points="854.6,-399.5 854.6,-419.5 1007.1,-419.5 1007.1,-399.5 854.6,-399.5"/>
<text text-anchor="middle" x="930.85" y="-406" font-family="Helvetica,sans-Serif" font-size="10.00">Shaders/DefaultVertexShader.h</text>
</a>
</g>
</g>
<!-- Node43&#45;&gt;Node44 -->
<g id="edge73" class="edge">
<title>Node43&#45;&gt;Node44</title>
<path fill="none" stroke="midnightblue" d="M878.81,-456.66C887.88,-448.61 901.51,-436.52 912.55,-426.73"/>
<polygon fill="midnightblue" stroke="midnightblue" points="914.54,-429.75 919.7,-420.5 909.9,-424.52 914.54,-429.75"/>
</g>
<!-- Node45 -->
<g id="node45" class="node">
<title>Node45</title>
<g id="a_node45"><a xlink:href="_default_geometry_shader_8h.html" target="_top" xlink:title=" ">
<polygon fill="none" stroke="black" points="1062.47,-399.5 1062.47,-419.5 1229.22,-419.5 1229.22,-399.5 1062.47,-399.5"/>
<text text-anchor="middle" x="1145.85" y="-406" font-family="Helvetica,sans-Serif" font-size="10.00">Shaders/DefaultGeometryShader.h</text>
</a>
</g>
</g>
<!-- Node43&#45;&gt;Node45 -->
<g id="edge74" class="edge">
<title>Node43&#45;&gt;Node45</title>
<path fill="none" stroke="midnightblue" d="M913.97,-456.54C962.06,-446.99 1038.26,-431.86 1090.08,-421.57"/>
<polygon fill="midnightblue" stroke="midnightblue" points="1090.62,-424.84 1099.74,-419.46 1089.25,-417.97 1090.62,-424.84"/>
</g>
<!-- Node45&#45;&gt;Node38 -->
<g id="edge75" class="edge">
<title>Node45&#45;&gt;Node38</title>
<path fill="none" stroke="midnightblue" d="M1148.66,-399.91C1151.05,-392.6 1154.57,-381.85 1157.61,-372.54"/>
<polygon fill="midnightblue" stroke="midnightblue" points="1161.21,-373.81 1160.99,-363.21 1154.56,-371.63 1161.21,-373.81"/>
</g>
</g>
</svg>
