<?xml version="1.0" encoding="UTF-8" standalone="no"?>
<!DOCTYPE svg PUBLIC "-//W3C//DTD SVG 1.1//EN"
 "http://www.w3.org/Graphics/SVG/1.1/DTD/svg11.dtd">
<!-- Generated by graphviz version 8.1.0 (20230707.0739)
 -->
<!-- Title: include/CubeFolded.h Pages: 1 -->
<svg width="590pt" height="257pt"
 viewBox="0.00 0.00 589.96 257.00" xmlns="http://www.w3.org/2000/svg" xmlns:xlink="http://www.w3.org/1999/xlink">
<g id="graph0" class="graph" transform="scale(1 1) rotate(0) translate(4 253)">
<title>include/CubeFolded.h</title>
<!-- Node1 -->
<g id="node1" class="node">
<title>Node1</title>
<g id="a_node1"><a xlink:title=" ">
<polygon fill="#bfbfbf" stroke="black" points="224.75,-228.5 224.75,-248.5 334.5,-248.5 334.5,-228.5 224.75,-228.5"/>
<text text-anchor="middle" x="279.62" y="-235" font-family="Helvetica,sans-Serif" font-size="10.00">include/CubeFolded.h</text>
</a>
</g>
</g>
<!-- Node2 -->
<g id="node2" class="node">
<title>Node2</title>
<g id="a_node2"><a xlink:title=" ">
<polygon fill="none" stroke="#bfbfbf" points="140.88,-114.5 140.88,-134.5 182.38,-134.5 182.38,-114.5 140.88,-114.5"/>
<text text-anchor="middle" x="161.62" y="-121" font-family="Helvetica,sans-Serif" font-size="10.00">vector</text>
</a>
</g>
</g>
<!-- Node1&#45;&gt;Node2 -->
<g id="edge1" class="edge">
<title>Node1&#45;&gt;Node2</title>
<path fill="none" stroke="midnightblue" d="M225,-231.15C177.57,-224.39 114.12,-211.87 98.62,-192 83.57,-172.69 109.42,-152.54 132.42,-139.56"/>
<polygon fill="midnightblue" stroke="midnightblue" points="133.8,-142.26 140.97,-134.46 130.5,-136.08 133.8,-142.26"/>
</g>
<!-- Node3 -->
<g id="node3" class="node">
<title>Node3</title>
<g id="a_node3"><a xlink:href="_vector3_8h.html" target="_top" xlink:title=" ">
<polygon fill="none" stroke="black" points="219.5,-114.5 219.5,-134.5 339.75,-134.5 339.75,-114.5 219.5,-114.5"/>
<text text-anchor="middle" x="279.62" y="-121" font-family="Helvetica,sans-Serif" font-size="10.00">LinearAlgebra/Vector3.h</text>
</a>
</g>
</g>
<!-- Node1&#45;&gt;Node3 -->
<g id="edge2" class="edge">
<title>Node1&#45;&gt;Node3</title>
<path fill="none" stroke="midnightblue" d="M297.1,-228.59C310.12,-220.87 326.92,-208.37 334.62,-192 344.12,-171.82 323.98,-152.63 305.45,-140.09"/>
<polygon fill="midnightblue" stroke="midnightblue" points="307.68,-136.72 297.36,-134.34 303.94,-142.64 307.68,-136.72"/>
</g>
<!-- Node14 -->
<g id="node14" class="node">
<title>Node14</title>
<g id="a_node14"><a xlink:href="_indexed_line_list_8h.html" target="_top" xlink:title=" ">
<polygon fill="none" stroke="black" points="233.75,-171.5 233.75,-191.5 325.5,-191.5 325.5,-171.5 233.75,-171.5"/>
<text text-anchor="middle" x="279.62" y="-178" font-family="Helvetica,sans-Serif" font-size="10.00">IndexedLineList.h</text>
</a>
</g>
</g>
<!-- Node1&#45;&gt;Node14 -->
<g id="edge18" class="edge">
<title>Node1&#45;&gt;Node14</title>
<path fill="none" stroke="midnightblue" d="M279.62,-228.91C279.62,-221.76 279.62,-211.32 279.62,-202.15"/>
<polygon fill="midnightblue" stroke="midnightblue" points="283.13,-202.21 279.62,-192.21 276.13,-202.21 283.13,-202.21"/>
</g>
<!-- Node15 -->
<g id="node15" class="node">
<title>Node15</title>
<g id="a_node15"><a xlink:href="_indexed_triangle_list_8h.html" target="_top" xlink:title=" ">
<polygon fill="none" stroke="black" points="107.88,-171.5 107.88,-191.5 215.38,-191.5 215.38,-171.5 107.88,-171.5"/>
<text text-anchor="middle" x="161.62" y="-178" font-family="Helvetica,sans-Serif" font-size="10.00">IndexedTriangleList.h</text>
</a>
</g>
</g>
<!-- Node1&#45;&gt;Node15 -->
<g id="edge21" class="edge">
<title>Node1&#45;&gt;Node15</title>
<path fill="none" stroke="midnightblue" d="M260.4,-228.54C241.46,-219.71 212.28,-206.11 190.54,-195.98"/>
<polygon fill="midnightblue" stroke="midnightblue" points="192.38,-192.51 181.84,-191.46 189.42,-198.85 192.38,-192.51"/>
</g>
<!-- Node16 -->
<g id="node16" class="node">
<title>Node16</title>
<g id="a_node16"><a xlink:href="_tex_vertex_8h.html" target="_top" xlink:title=" ">
<polygon fill="none" stroke="black" points="381.38,-171.5 381.38,-191.5 449.88,-191.5 449.88,-171.5 381.38,-171.5"/>
<text text-anchor="middle" x="415.62" y="-178" font-family="Helvetica,sans-Serif" font-size="10.00">TexVertex.h</text>
</a>
</g>
</g>
<!-- Node1&#45;&gt;Node16 -->
<g id="edge24" class="edge">
<title>Node1&#45;&gt;Node16</title>
<path fill="none" stroke="midnightblue" d="M301.78,-228.54C323.91,-219.59 358.16,-205.74 383.32,-195.57"/>
<polygon fill="midnightblue" stroke="midnightblue" points="384.52,-198.45 392.48,-191.46 381.9,-191.96 384.52,-198.45"/>
</g>
<!-- Node4 -->
<g id="node4" class="node">
<title>Node4</title>
<g id="a_node4"><a xlink:title=" ">
<polygon fill="none" stroke="#bfbfbf" points="321.75,-0.5 321.75,-20.5 359.5,-20.5 359.5,-0.5 321.75,-0.5"/>
<text text-anchor="middle" x="340.62" y="-7" font-family="Helvetica,sans-Serif" font-size="10.00">array</text>
</a>
</g>
</g>
<!-- Node3&#45;&gt;Node4 -->
<g id="edge3" class="edge">
<title>Node3&#45;&gt;Node4</title>
<path fill="none" stroke="midnightblue" d="M268.4,-114.7C253.32,-101.78 229.83,-77.05 242.62,-57 246.7,-50.62 284.58,-34.2 312.03,-22.94"/>
<polygon fill="midnightblue" stroke="midnightblue" points="313,-25.91 320.94,-18.9 310.36,-19.43 313,-25.91"/>
</g>
<!-- Node5 -->
<g id="node5" class="node">
<title>Node5</title>
<g id="a_node5"><a xlink:title=" ">
<polygon fill="none" stroke="#bfbfbf" points="444.88,-0.5 444.88,-20.5 498.38,-20.5 498.38,-0.5 444.88,-0.5"/>
<text text-anchor="middle" x="471.62" y="-7" font-family="Helvetica,sans-Serif" font-size="10.00">iostream</text>
</a>
</g>
</g>
<!-- Node3&#45;&gt;Node5 -->
<g id="edge4" class="edge">
<title>Node3&#45;&gt;Node5</title>
<path fill="none" stroke="midnightblue" d="M287.6,-114.64C300.51,-100.74 327.3,-73.69 354.62,-57 379.79,-41.64 411.03,-29.8 434.9,-22.06"/>
<polygon fill="midnightblue" stroke="midnightblue" points="435.81,-25.13 444.3,-18.79 433.71,-18.45 435.81,-25.13"/>
</g>
<!-- Node6 -->
<g id="node6" class="node">
<title>Node6</title>
<g id="a_node6"><a xlink:title=" ">
<polygon fill="none" stroke="#bfbfbf" points="363.88,-57.5 363.88,-77.5 417.38,-77.5 417.38,-57.5 363.88,-57.5"/>
<text text-anchor="middle" x="390.62" y="-64" font-family="Helvetica,sans-Serif" font-size="10.00">compare</text>
</a>
</g>
</g>
<!-- Node3&#45;&gt;Node6 -->
<g id="edge5" class="edge">
<title>Node3&#45;&gt;Node6</title>
<path fill="none" stroke="midnightblue" d="M297.46,-114.66C315.07,-105.94 342.27,-92.46 362.75,-82.31"/>
<polygon fill="midnightblue" stroke="midnightblue" points="364.06,-85.07 371.47,-77.5 360.95,-78.8 364.06,-85.07"/>
</g>
<!-- Node7 -->
<g id="node7" class="node">
<title>Node7</title>
<g id="a_node7"><a xlink:title=" ">
<polygon fill="none" stroke="#bfbfbf" points="255.88,-0.5 255.88,-20.5 303.38,-20.5 303.38,-0.5 255.88,-0.5"/>
<text text-anchor="middle" x="279.62" y="-7" font-family="Helvetica,sans-Serif" font-size="10.00">cstddef</text>
</a>
</g>
</g>
<!-- Node3&#45;&gt;Node7 -->
<g id="edge6" class="edge">
<title>Node3&#45;&gt;Node7</title>
<path fill="none" stroke="midnightblue" d="M254.8,-114.62C238.76,-107.43 219.17,-95.58 209.62,-78 197.73,-56.08 223.29,-37.19 246.8,-25.2"/>
<polygon fill="midnightblue" stroke="midnightblue" points="248.12,-27.97 255.63,-20.49 245.1,-21.65 248.12,-27.97"/>
</g>
<!-- Node8 -->
<g id="node8" class="node">
<title>Node8</title>
<g id="a_node8"><a xlink:href="_math_8h.html" target="_top" xlink:title=" ">
<polygon fill="none" stroke="black" points="93.62,-57.5 93.62,-77.5 139.62,-77.5 139.62,-57.5 93.62,-57.5"/>
<text text-anchor="middle" x="116.62" y="-64" font-family="Helvetica,sans-Serif" font-size="10.00">Math.h</text>
</a>
</g>
</g>
<!-- Node3&#45;&gt;Node8 -->
<g id="edge7" class="edge">
<title>Node3&#45;&gt;Node8</title>
<path fill="none" stroke="midnightblue" d="M253.07,-114.54C224.83,-105.01 180.11,-89.92 149.62,-79.63"/>
<polygon fill="midnightblue" stroke="midnightblue" points="151.07,-76.09 140.48,-76.21 148.83,-82.72 151.07,-76.09"/>
</g>
<!-- Node13 -->
<g id="node13" class="node">
<title>Node13</title>
<g id="a_node13"><a xlink:href="_matrix3_8h.html" target="_top" xlink:title=" ">
<polygon fill="none" stroke="black" points="251.38,-57.5 251.38,-77.5 307.88,-77.5 307.88,-57.5 251.38,-57.5"/>
<text text-anchor="middle" x="279.62" y="-64" font-family="Helvetica,sans-Serif" font-size="10.00">Matrix3.h</text>
</a>
</g>
</g>
<!-- Node3&#45;&gt;Node13 -->
<g id="edge13" class="edge">
<title>Node3&#45;&gt;Node13</title>
<path fill="none" stroke="midnightblue" d="M279.62,-114.91C279.62,-107.76 279.62,-97.32 279.62,-88.15"/>
<polygon fill="midnightblue" stroke="midnightblue" points="283.13,-88.21 279.62,-78.21 276.13,-88.21 283.13,-88.21"/>
</g>
<!-- Node8&#45;&gt;Node8 -->
<g id="edge8" class="edge">
<title>Node8&#45;&gt;Node8</title>
<path fill="none" stroke="midnightblue" d="M135.18,-77.43C146.68,-79.83 157.62,-76.52 157.62,-67.5 157.62,-61.44 152.68,-57.96 145.95,-57.05"/>
<polygon fill="midnightblue" stroke="midnightblue" points="146,-53.59 136.18,-57.57 146.33,-60.59 146,-53.59"/>
</g>
<!-- Node9 -->
<g id="node9" class="node">
<title>Node9</title>
<g id="a_node9"><a xlink:title=" ">
<polygon fill="none" stroke="#bfbfbf" points="195.12,-0.5 195.12,-20.5 238.12,-20.5 238.12,-0.5 195.12,-0.5"/>
<text text-anchor="middle" x="216.62" y="-7" font-family="Helvetica,sans-Serif" font-size="10.00">cmath</text>
</a>
</g>
</g>
<!-- Node8&#45;&gt;Node9 -->
<g id="edge9" class="edge">
<title>Node8&#45;&gt;Node9</title>
<path fill="none" stroke="midnightblue" d="M132.69,-57.66C148.34,-49.05 172.4,-35.83 190.75,-25.73"/>
<polygon fill="midnightblue" stroke="midnightblue" points="192.19,-28.38 199.27,-20.5 188.82,-22.25 192.19,-28.38"/>
</g>
<!-- Node10 -->
<g id="node10" class="node">
<title>Node10</title>
<g id="a_node10"><a xlink:title=" ">
<polygon fill="none" stroke="#bfbfbf" points="0,-0.5 0,-20.5 39.25,-20.5 39.25,-0.5 0,-0.5"/>
<text text-anchor="middle" x="19.62" y="-7" font-family="Helvetica,sans-Serif" font-size="10.00">limits</text>
</a>
</g>
</g>
<!-- Node8&#45;&gt;Node10 -->
<g id="edge10" class="edge">
<title>Node8&#45;&gt;Node10</title>
<path fill="none" stroke="midnightblue" d="M101.04,-57.66C85.86,-49.05 62.53,-35.83 44.73,-25.73"/>
<polygon fill="midnightblue" stroke="midnightblue" points="46.92,-22.39 36.49,-20.5 43.47,-28.47 46.92,-22.39"/>
</g>
<!-- Node11 -->
<g id="node11" class="node">
<title>Node11</title>
<g id="a_node11"><a xlink:title=" ">
<polygon fill="none" stroke="#bfbfbf" points="56.88,-0.5 56.88,-20.5 110.38,-20.5 110.38,-0.5 56.88,-0.5"/>
<text text-anchor="middle" x="83.62" y="-7" font-family="Helvetica,sans-Serif" font-size="10.00">numbers</text>
</a>
</g>
</g>
<!-- Node8&#45;&gt;Node11 -->
<g id="edge11" class="edge">
<title>Node8&#45;&gt;Node11</title>
<path fill="none" stroke="midnightblue" d="M111.47,-57.91C106.94,-50.36 100.21,-39.14 94.5,-29.62"/>
<polygon fill="midnightblue" stroke="midnightblue" points="97,-27.99 88.85,-21.21 91,-31.59 97,-27.99"/>
</g>
<!-- Node12 -->
<g id="node12" class="node">
<title>Node12</title>
<g id="a_node12"><a xlink:title=" ">
<polygon fill="none" stroke="#bfbfbf" points="128.5,-0.5 128.5,-20.5 176.75,-20.5 176.75,-0.5 128.5,-0.5"/>
<text text-anchor="middle" x="152.62" y="-7" font-family="Helvetica,sans-Serif" font-size="10.00">random</text>
</a>
</g>
</g>
<!-- Node8&#45;&gt;Node12 -->
<g id="edge12" class="edge">
<title>Node8&#45;&gt;Node12</title>
<path fill="none" stroke="midnightblue" d="M122.25,-57.91C127.24,-50.28 134.69,-38.9 140.96,-29.32"/>
<polygon fill="midnightblue" stroke="midnightblue" points="144.37,-31.5 146.92,-21.21 138.52,-27.67 144.37,-31.5"/>
</g>
<!-- Node13&#45;&gt;Node4 -->
<g id="edge14" class="edge">
<title>Node13&#45;&gt;Node4</title>
<path fill="none" stroke="midnightblue" d="M289.43,-57.66C298.35,-49.61 311.76,-37.52 322.62,-27.73"/>
<polygon fill="midnightblue" stroke="midnightblue" points="324.56,-30.79 329.65,-21.5 319.88,-25.59 324.56,-30.79"/>
</g>
<!-- Node13&#45;&gt;Node5 -->
<g id="edge17" class="edge">
<title>Node13&#45;&gt;Node5</title>
<path fill="none" stroke="midnightblue" d="M307.54,-58.5C341.05,-48.9 397.37,-32.77 434.51,-22.13"/>
<polygon fill="midnightblue" stroke="midnightblue" points="435.26,-25.27 443.91,-19.15 433.33,-18.54 435.26,-25.27"/>
</g>
<!-- Node13&#45;&gt;Node7 -->
<g id="edge16" class="edge">
<title>Node13&#45;&gt;Node7</title>
<path fill="none" stroke="midnightblue" d="M279.62,-57.91C279.62,-50.76 279.62,-40.32 279.62,-31.15"/>
<polygon fill="midnightblue" stroke="midnightblue" points="283.13,-31.21 279.62,-21.21 276.13,-31.21 283.13,-31.21"/>
</g>
<!-- Node13&#45;&gt;Node9 -->
<g id="edge15" class="edge">
<title>Node13&#45;&gt;Node9</title>
<path fill="none" stroke="midnightblue" d="M269.5,-57.66C260.19,-49.53 246.16,-37.28 234.89,-27.44"/>
<polygon fill="midnightblue" stroke="midnightblue" points="237.77,-24.44 227.93,-20.5 233.16,-29.71 237.77,-24.44"/>
</g>
<!-- Node14&#45;&gt;Node2 -->
<g id="edge20" class="edge">
<title>Node14&#45;&gt;Node2</title>
<path fill="none" stroke="midnightblue" d="M260.4,-171.54C241.46,-162.71 212.28,-149.11 190.54,-138.98"/>
<polygon fill="midnightblue" stroke="midnightblue" points="192.38,-135.51 181.84,-134.46 189.42,-141.85 192.38,-135.51"/>
</g>
<!-- Node14&#45;&gt;Node3 -->
<g id="edge19" class="edge">
<title>Node14&#45;&gt;Node3</title>
<path fill="none" stroke="midnightblue" d="M279.62,-171.91C279.62,-164.76 279.62,-154.32 279.62,-145.15"/>
<polygon fill="midnightblue" stroke="midnightblue" points="283.13,-145.21 279.62,-135.21 276.13,-145.21 283.13,-145.21"/>
</g>
<!-- Node15&#45;&gt;Node2 -->
<g id="edge22" class="edge">
<title>Node15&#45;&gt;Node2</title>
<path fill="none" stroke="midnightblue" d="M161.62,-171.91C161.62,-164.76 161.62,-154.32 161.62,-145.15"/>
<polygon fill="midnightblue" stroke="midnightblue" points="165.13,-145.21 161.62,-135.21 158.13,-145.21 165.13,-145.21"/>
</g>
<!-- Node15&#45;&gt;Node3 -->
<g id="edge23" class="edge">
<title>Node15&#45;&gt;Node3</title>
<path fill="none" stroke="midnightblue" d="M180.85,-171.54C199.79,-162.71 228.97,-149.11 250.71,-138.98"/>
<polygon fill="midnightblue" stroke="midnightblue" points="251.83,-141.85 259.41,-134.46 248.87,-135.51 251.83,-141.85"/>
</g>
<!-- Node16&#45;&gt;Node3 -->
<g id="edge34" class="edge">
<title>Node16&#45;&gt;Node3</title>
<path fill="none" stroke="midnightblue" d="M393.47,-171.54C371.34,-162.59 337.09,-148.74 311.93,-138.57"/>
<polygon fill="midnightblue" stroke="midnightblue" points="313.35,-134.96 302.77,-134.46 310.73,-141.45 313.35,-134.96"/>
</g>
<!-- Node17 -->
<g id="node17" class="node">
<title>Node17</title>
<g id="a_node17"><a xlink:href="_vector2_8h.html" target="_top" xlink:title=" ">
<polygon fill="none" stroke="black" points="371.5,-114.5 371.5,-134.5 491.75,-134.5 491.75,-114.5 371.5,-114.5"/>
<text text-anchor="middle" x="431.62" y="-121" font-family="Helvetica,sans-Serif" font-size="10.00">LinearAlgebra/Vector2.h</text>
</a>
</g>
</g>
<!-- Node16&#45;&gt;Node17 -->
<g id="edge25" class="edge">
<title>Node16&#45;&gt;Node17</title>
<path fill="none" stroke="midnightblue" d="M418.12,-171.91C420.25,-164.6 423.38,-153.85 426.09,-144.54"/>
<polygon fill="midnightblue" stroke="midnightblue" points="429.66,-145.79 429.09,-135.21 422.94,-143.84 429.66,-145.79"/>
</g>
<!-- Node17&#45;&gt;Node4 -->
<g id="edge26" class="edge">
<title>Node17&#45;&gt;Node4</title>
<path fill="none" stroke="midnightblue" d="M440.53,-114.75C452.95,-101.47 472.55,-75.78 459.62,-57 439.68,-28.02 398.57,-17.48 370.3,-13.66"/>
<polygon fill="midnightblue" stroke="midnightblue" points="370.77,-10.08 360.44,-12.44 369.98,-17.04 370.77,-10.08"/>
</g>
<!-- Node17&#45;&gt;Node5 -->
<g id="edge29" class="edge">
<title>Node17&#45;&gt;Node5</title>
<path fill="none" stroke="midnightblue" d="M491.71,-120.78C522.36,-115.96 557.18,-104.48 576.62,-78 597.99,-48.91 546.6,-29.44 508.42,-19.44"/>
<polygon fill="midnightblue" stroke="midnightblue" points="509.62,-15.89 499.07,-16.87 507.93,-22.68 509.62,-15.89"/>
</g>
<!-- Node17&#45;&gt;Node6 -->
<g id="edge27" class="edge">
<title>Node17&#45;&gt;Node6</title>
<path fill="none" stroke="midnightblue" d="M425.22,-114.91C419.48,-107.2 410.87,-95.66 403.68,-86.02"/>
<polygon fill="midnightblue" stroke="midnightblue" points="405.9,-84.14 397.12,-78.21 400.29,-88.32 405.9,-84.14"/>
</g>
<!-- Node17&#45;&gt;Node7 -->
<g id="edge28" class="edge">
<title>Node17&#45;&gt;Node7</title>
<path fill="none" stroke="midnightblue" d="M433.81,-114.63C436.68,-100.73 439.9,-73.66 426.62,-57 424.8,-54.71 356.3,-34.15 313.46,-21.46"/>
<polygon fill="midnightblue" stroke="midnightblue" points="314.76,-17.9 304.18,-18.42 312.78,-24.61 314.76,-17.9"/>
</g>
<!-- Node17&#45;&gt;Node8 -->
<g id="edge30" class="edge">
<title>Node17&#45;&gt;Node8</title>
<path fill="none" stroke="midnightblue" d="M380.31,-114.54C315.24,-103.18 204.89,-83.91 149.87,-74.31"/>
<polygon fill="midnightblue" stroke="midnightblue" points="150.78,-70.74 140.32,-72.46 149.57,-77.63 150.78,-70.74"/>
</g>
<!-- Node17&#45;&gt;Node13 -->
<g id="edge33" class="edge">
<title>Node17&#45;&gt;Node13</title>
<path fill="none" stroke="midnightblue" d="M406.87,-114.54C381.8,-105.47 342.82,-91.37 314.61,-81.16"/>
<polygon fill="midnightblue" stroke="midnightblue" points="315.97,-77.57 305.37,-77.46 313.59,-84.15 315.97,-77.57"/>
</g>
<!-- Node18 -->
<g id="node18" class="node">
<title>Node18</title>
<g id="a_node18"><a xlink:href="_matrix2_8h.html" target="_top" xlink:title=" ">
<polygon fill="none" stroke="black" points="511.38,-57.5 511.38,-77.5 567.88,-77.5 567.88,-57.5 511.38,-57.5"/>
<text text-anchor="middle" x="539.62" y="-64" font-family="Helvetica,sans-Serif" font-size="10.00">Matrix2.h</text>
</a>
</g>
</g>
<!-- Node17&#45;&gt;Node18 -->
<g id="edge31" class="edge">
<title>Node17&#45;&gt;Node18</title>
<path fill="none" stroke="midnightblue" d="M448.98,-114.66C466.04,-105.97 492.34,-92.58 512.23,-82.45"/>
<polygon fill="midnightblue" stroke="midnightblue" points="513.63,-85.15 520.96,-77.5 510.46,-78.92 513.63,-85.15"/>
</g>
<!-- Node18&#45;&gt;Node5 -->
<g id="edge32" class="edge">
<title>Node18&#45;&gt;Node5</title>
<path fill="none" stroke="midnightblue" d="M528.7,-57.66C518.55,-49.45 503.2,-37.04 490.98,-27.15"/>
<polygon fill="midnightblue" stroke="midnightblue" points="493.73,-24.06 483.75,-20.5 489.32,-29.51 493.73,-24.06"/>
</g>
</g>
</svg>
