<?xml version="1.0" encoding="UTF-8" standalone="no"?>
<!DOCTYPE svg PUBLIC "-//W3C//DTD SVG 1.1//EN"
 "http://www.w3.org/Graphics/SVG/1.1/DTD/svg11.dtd">
<!-- Generated by graphviz version 8.1.0 (20230707.0739)
 -->
<!-- Title: include/Scenes/CubeSkinScene.h Pages: 1 -->
<svg width="1178pt" height="542pt"
 viewBox="0.00 0.00 1177.75 542.00" xmlns="http://www.w3.org/2000/svg" xmlns:xlink="http://www.w3.org/1999/xlink">
<g id="graph0" class="graph" transform="scale(1 1) rotate(0) translate(4 538)">
<title>include/Scenes/CubeSkinScene.h</title>
<!-- Node1 -->
<g id="node1" class="node">
<title>Node1</title>
<g id="a_node1"><a xlink:title=" ">
<polygon fill="#bfbfbf" stroke="black" points="316.88,-513.5 316.88,-533.5 480.62,-533.5 480.62,-513.5 316.88,-513.5"/>
<text text-anchor="middle" x="398.75" y="-520" font-family="Helvetica,sans-Serif" font-size="10.00">include/Scenes/CubeSkinScene.h</text>
</a>
</g>
</g>
<!-- Node2 -->
<g id="node2" class="node">
<title>Node2</title>
<g id="a_node2"><a xlink:href="_scene_8h.html" target="_top" xlink:title=" ">
<polygon fill="none" stroke="black" points="172.75,-342.5 172.75,-362.5 224.75,-362.5 224.75,-342.5 172.75,-342.5"/>
<text text-anchor="middle" x="198.75" y="-349" font-family="Helvetica,sans-Serif" font-size="10.00">Scene.h</text>
</a>
</g>
</g>
<!-- Node1&#45;&gt;Node2 -->
<g id="edge1" class="edge">
<title>Node1&#45;&gt;Node2</title>
<path fill="none" stroke="midnightblue" d="M316.9,-514.93C289.08,-508.6 259.74,-497.25 238.75,-477 209.91,-449.19 201.84,-400.45 199.59,-373.26"/>
<polygon fill="midnightblue" stroke="midnightblue" points="203.03,-373.2 198.92,-363.43 196.05,-373.63 203.03,-373.2"/>
</g>
<!-- Node15 -->
<g id="node15" class="node">
<title>Node15</title>
<g id="a_node15"><a xlink:href="_matrix3_8h.html" target="_top" xlink:title=" ">
<polygon fill="none" stroke="black" points="394.5,-57.5 394.5,-77.5 451,-77.5 451,-57.5 394.5,-57.5"/>
<text text-anchor="middle" x="422.75" y="-64" font-family="Helvetica,sans-Serif" font-size="10.00">Matrix3.h</text>
</a>
</g>
</g>
<!-- Node1&#45;&gt;Node15 -->
<g id="edge57" class="edge">
<title>Node1&#45;&gt;Node15</title>
<path fill="none" stroke="midnightblue" d="M404.36,-513.88C423.53,-485.07 489.65,-391.19 567.75,-342 612.71,-313.68 631.75,-323.97 681.75,-306 745.36,-283.14 761.19,-276.91 822.75,-249 829.15,-246.1 932.06,-197.99 935.75,-192 940.64,-184.05 940.54,-179.01 935.75,-171 928.89,-159.52 842.54,-117.89 829.75,-114 674.92,-66.92 624.54,-105 461.34,-78"/>
<polygon fill="midnightblue" stroke="midnightblue" points="462.38,-74.45 451.93,-76.21 461.2,-81.35 462.38,-74.45"/>
</g>
<!-- Node22 -->
<g id="node22" class="node">
<title>Node22</title>
<g id="a_node22"><a xlink:href="_vector3_8h.html" target="_top" xlink:title=" ">
<polygon fill="none" stroke="black" points="251.62,-114.5 251.62,-134.5 371.88,-134.5 371.88,-114.5 251.62,-114.5"/>
<text text-anchor="middle" x="311.75" y="-121" font-family="Helvetica,sans-Serif" font-size="10.00">LinearAlgebra/Vector3.h</text>
</a>
</g>
</g>
<!-- Node1&#45;&gt;Node22 -->
<g id="edge58" class="edge">
<title>Node1&#45;&gt;Node22</title>
<path fill="none" stroke="midnightblue" d="M379.69,-513.61C348.69,-497.69 290.75,-461.15 290.75,-410.5 290.75,-410.5 290.75,-410.5 290.75,-294.5 290.75,-239.95 301.66,-176.24 307.75,-144.92"/>
<polygon fill="midnightblue" stroke="midnightblue" points="311.36,-145.74 309.89,-135.25 304.49,-144.37 311.36,-145.74"/>
</g>
<!-- Node34 -->
<g id="node34" class="node">
<title>Node34</title>
<g id="a_node34"><a xlink:href="_cube_8h.html" target="_top" xlink:title=" ">
<polygon fill="none" stroke="black" points="132.88,-228.5 132.88,-248.5 224.62,-248.5 224.62,-228.5 132.88,-228.5"/>
<text text-anchor="middle" x="178.75" y="-235" font-family="Helvetica,sans-Serif" font-size="10.00">Primitives/Cube.h</text>
</a>
</g>
</g>
<!-- Node1&#45;&gt;Node34 -->
<g id="edge51" class="edge">
<title>Node1&#45;&gt;Node34</title>
<path fill="none" stroke="midnightblue" d="M346.67,-513.54C322.67,-507.02 295.43,-495.88 276.75,-477 254.65,-454.66 252.75,-441.92 252.75,-410.5 252.75,-410.5 252.75,-410.5 252.75,-351.5 252.75,-311.79 219.97,-275.33 198.04,-255.38"/>
<polygon fill="midnightblue" stroke="midnightblue" points="200.82,-252.28 190.99,-248.34 196.22,-257.55 200.82,-252.28"/>
</g>
<!-- Node37 -->
<g id="node37" class="node">
<title>Node37</title>
<g id="a_node37"><a xlink:href="_pipeline_8h.html" target="_top" xlink:title=" ">
<polygon fill="none" stroke="black" points="737.38,-399.5 737.38,-419.5 796.12,-419.5 796.12,-399.5 737.38,-399.5"/>
<text text-anchor="middle" x="766.75" y="-406" font-family="Helvetica,sans-Serif" font-size="10.00">Pipeline.h</text>
</a>
</g>
</g>
<!-- Node1&#45;&gt;Node37 -->
<g id="edge59" class="edge">
<title>Node1&#45;&gt;Node37</title>
<path fill="none" stroke="midnightblue" d="M480.35,-516.93C558.66,-510.45 670.49,-497.88 708.75,-477 729.49,-465.68 746.29,-443.87 756.37,-428.31"/>
<polygon fill="midnightblue" stroke="midnightblue" points="759.74,-430.51 762,-420.16 753.78,-426.84 759.74,-430.51"/>
</g>
<!-- Node43 -->
<g id="node43" class="node">
<title>Node43</title>
<g id="a_node43"><a xlink:href="_texture_effect_8h.html" target="_top" xlink:title=" ">
<polygon fill="none" stroke="black" points="585.62,-456.5 585.62,-476.5 699.88,-476.5 699.88,-456.5 585.62,-456.5"/>
<text text-anchor="middle" x="642.75" y="-463" font-family="Helvetica,sans-Serif" font-size="10.00">Effects/TextureEffect.h</text>
</a>
</g>
</g>
<!-- Node1&#45;&gt;Node43 -->
<g id="edge72" class="edge">
<title>Node1&#45;&gt;Node43</title>
<path fill="none" stroke="midnightblue" d="M438.5,-513.54C480.5,-504.07 546.86,-489.11 592.47,-478.83"/>
<polygon fill="midnightblue" stroke="midnightblue" points="593.04,-482.07 602.02,-476.46 591.5,-475.24 593.04,-482.07"/>
</g>
<!-- Node3 -->
<g id="node3" class="node">
<title>Node3</title>
<g id="a_node3"><a xlink:href="_keyboard_8h.html" target="_top" xlink:title=" ">
<polygon fill="none" stroke="black" points="72,-285.5 72,-305.5 137.5,-305.5 137.5,-285.5 72,-285.5"/>
<text text-anchor="middle" x="104.75" y="-292" font-family="Helvetica,sans-Serif" font-size="10.00">Keyboard.h</text>
</a>
</g>
</g>
<!-- Node2&#45;&gt;Node3 -->
<g id="edge2" class="edge">
<title>Node2&#45;&gt;Node3</title>
<path fill="none" stroke="midnightblue" d="M183.65,-342.66C169.07,-334.13 146.74,-321.07 129.56,-311.01"/>
<polygon fill="midnightblue" stroke="midnightblue" points="131.53,-307.53 121.13,-305.5 127.99,-313.57 131.53,-307.53"/>
</g>
<!-- Node6 -->
<g id="node6" class="node">
<title>Node6</title>
<g id="a_node6"><a xlink:href="_mouse_8h.html" target="_top" xlink:title=" ">
<polygon fill="none" stroke="black" points="0,-285.5 0,-305.5 53.5,-305.5 53.5,-285.5 0,-285.5"/>
<text text-anchor="middle" x="26.75" y="-292" font-family="Helvetica,sans-Serif" font-size="10.00">Mouse.h</text>
</a>
</g>
</g>
<!-- Node2&#45;&gt;Node6 -->
<g id="edge5" class="edge">
<title>Node2&#45;&gt;Node6</title>
<path fill="none" stroke="midnightblue" d="M173,-343.27C143.91,-333.96 96.34,-318.75 63.39,-308.21"/>
<polygon fill="midnightblue" stroke="midnightblue" points="64.83,-304.68 54.24,-304.97 62.7,-311.35 64.83,-304.68"/>
</g>
<!-- Node19 -->
<g id="node19" class="node">
<title>Node19</title>
<g id="a_node19"><a xlink:href="_graphics_8h.html" target="_top" xlink:title=" ">
<polygon fill="none" stroke="black" points="609.12,-285.5 609.12,-305.5 672.38,-305.5 672.38,-285.5 609.12,-285.5"/>
<text text-anchor="middle" x="640.75" y="-292" font-family="Helvetica,sans-Serif" font-size="10.00">Graphics.h</text>
</a>
</g>
</g>
<!-- Node2&#45;&gt;Node19 -->
<g id="edge25" class="edge">
<title>Node2&#45;&gt;Node19</title>
<path fill="none" stroke="midnightblue" d="M224.75,-348.26C298.29,-339.11 508.31,-312.98 598.62,-301.74"/>
<polygon fill="midnightblue" stroke="midnightblue" points="598.79,-305.12 608.28,-300.42 597.93,-298.18 598.79,-305.12"/>
</g>
<!-- Node21 -->
<g id="node21" class="node">
<title>Node21</title>
<g id="a_node21"><a xlink:title=" ">
<polygon fill="none" stroke="#bfbfbf" points="780.75,-114.5 780.75,-134.5 820.75,-134.5 820.75,-114.5 780.75,-114.5"/>
<text text-anchor="middle" x="800.75" y="-121" font-family="Helvetica,sans-Serif" font-size="10.00">string</text>
</a>
</g>
</g>
<!-- Node2&#45;&gt;Node21 -->
<g id="edge50" class="edge">
<title>Node2&#45;&gt;Node21</title>
<path fill="none" stroke="midnightblue" d="M212.96,-342.62C269.88,-307.07 479.12,-176.66 494.75,-171 591.12,-136.08 713.87,-127.94 770.11,-126.06"/>
<polygon fill="midnightblue" stroke="midnightblue" points="769.86,-129.54 779.75,-125.75 769.66,-122.54 769.86,-129.54"/>
</g>
<!-- Node4 -->
<g id="node4" class="node">
<title>Node4</title>
<g id="a_node4"><a xlink:title=" ">
<polygon fill="none" stroke="#bfbfbf" points="74.75,-228.5 74.75,-248.5 114.75,-248.5 114.75,-228.5 74.75,-228.5"/>
<text text-anchor="middle" x="94.75" y="-235" font-family="Helvetica,sans-Serif" font-size="10.00">bitset</text>
</a>
</g>
</g>
<!-- Node3&#45;&gt;Node4 -->
<g id="edge3" class="edge">
<title>Node3&#45;&gt;Node4</title>
<path fill="none" stroke="midnightblue" d="M103.19,-285.91C101.87,-278.68 99.95,-268.09 98.27,-258.85"/>
<polygon fill="midnightblue" stroke="midnightblue" points="101.57,-258.43 96.33,-249.21 94.68,-259.68 101.57,-258.43"/>
</g>
<!-- Node5 -->
<g id="node5" class="node">
<title>Node5</title>
<g id="a_node5"><a xlink:title=" ">
<polygon fill="none" stroke="#bfbfbf" points="14.62,-228.5 14.62,-248.5 56.88,-248.5 56.88,-228.5 14.62,-228.5"/>
<text text-anchor="middle" x="35.75" y="-235" font-family="Helvetica,sans-Serif" font-size="10.00">queue</text>
</a>
</g>
</g>
<!-- Node3&#45;&gt;Node5 -->
<g id="edge4" class="edge">
<title>Node3&#45;&gt;Node5</title>
<path fill="none" stroke="midnightblue" d="M93.66,-285.66C83.36,-277.45 67.79,-265.04 55.39,-255.15"/>
<polygon fill="midnightblue" stroke="midnightblue" points="58.04,-251.99 48.04,-248.5 53.68,-257.47 58.04,-251.99"/>
</g>
<!-- Node6&#45;&gt;Node5 -->
<g id="edge24" class="edge">
<title>Node6&#45;&gt;Node5</title>
<path fill="none" stroke="midnightblue" d="M28.16,-285.91C29.34,-278.68 31.07,-268.09 32.58,-258.85"/>
<polygon fill="midnightblue" stroke="midnightblue" points="36.16,-259.65 34.32,-249.21 29.25,-258.52 36.16,-259.65"/>
</g>
<!-- Node7 -->
<g id="node7" class="node">
<title>Node7</title>
<g id="a_node7"><a xlink:href="_vector2_8h.html" target="_top" xlink:title=" ">
<polygon fill="none" stroke="black" points="99.62,-114.5 99.62,-134.5 219.88,-134.5 219.88,-114.5 99.62,-114.5"/>
<text text-anchor="middle" x="159.75" y="-121" font-family="Helvetica,sans-Serif" font-size="10.00">LinearAlgebra/Vector2.h</text>
</a>
</g>
</g>
<!-- Node6&#45;&gt;Node7 -->
<g id="edge6" class="edge">
<title>Node6&#45;&gt;Node7</title>
<path fill="none" stroke="midnightblue" d="M19.89,-285.91C10.35,-272.84 -4.65,-247.42 5.75,-228 30.29,-182.2 85.32,-153.35 122.5,-138.32"/>
<polygon fill="midnightblue" stroke="midnightblue" points="123.42,-141.33 131.47,-134.44 120.88,-134.8 123.42,-141.33"/>
</g>
<!-- Node8 -->
<g id="node8" class="node">
<title>Node8</title>
<g id="a_node8"><a xlink:href="_math_8h.html" target="_top" xlink:title=" ">
<polygon fill="none" stroke="black" points="468.75,-57.5 468.75,-77.5 514.75,-77.5 514.75,-57.5 468.75,-57.5"/>
<text text-anchor="middle" x="491.75" y="-64" font-family="Helvetica,sans-Serif" font-size="10.00">Math.h</text>
</a>
</g>
</g>
<!-- Node7&#45;&gt;Node8 -->
<g id="edge7" class="edge">
<title>Node7&#45;&gt;Node8</title>
<path fill="none" stroke="midnightblue" d="M219.56,-115.43C289.08,-105.88 400.66,-90.01 458.32,-78"/>
<polygon fill="midnightblue" stroke="midnightblue" points="458.75,-81.28 467.78,-75.73 457.26,-74.44 458.75,-81.28"/>
</g>
<!-- Node13 -->
<g id="node13" class="node">
<title>Node13</title>
<g id="a_node13"><a xlink:href="_matrix2_8h.html" target="_top" xlink:title=" ">
<polygon fill="none" stroke="black" points="20.5,-57.5 20.5,-77.5 77,-77.5 77,-57.5 20.5,-57.5"/>
<text text-anchor="middle" x="48.75" y="-64" font-family="Helvetica,sans-Serif" font-size="10.00">Matrix2.h</text>
</a>
</g>
</g>
<!-- Node7&#45;&gt;Node13 -->
<g id="edge13" class="edge">
<title>Node7&#45;&gt;Node13</title>
<path fill="none" stroke="midnightblue" d="M141.92,-114.66C124.3,-105.94 97.1,-92.46 76.63,-82.31"/>
<polygon fill="midnightblue" stroke="midnightblue" points="78.42,-78.8 67.91,-77.5 75.31,-85.07 78.42,-78.8"/>
</g>
<!-- Node14 -->
<g id="node14" class="node">
<title>Node14</title>
<g id="a_node14"><a xlink:title=" ">
<polygon fill="none" stroke="#bfbfbf" points="144,-0.5 144,-20.5 197.5,-20.5 197.5,-0.5 144,-0.5"/>
<text text-anchor="middle" x="170.75" y="-7" font-family="Helvetica,sans-Serif" font-size="10.00">iostream</text>
</a>
</g>
</g>
<!-- Node7&#45;&gt;Node14 -->
<g id="edge23" class="edge">
<title>Node7&#45;&gt;Node14</title>
<path fill="none" stroke="midnightblue" d="M150.57,-114.62C138.71,-102.02 120.49,-78.12 128.75,-57 133.21,-45.59 142.03,-35.31 150.44,-27.43"/>
<polygon fill="midnightblue" stroke="midnightblue" points="152.28,-29.59 157.53,-20.39 147.69,-24.31 152.28,-29.59"/>
</g>
<!-- Node7&#45;&gt;Node15 -->
<g id="edge15" class="edge">
<title>Node7&#45;&gt;Node15</title>
<path fill="none" stroke="midnightblue" d="M202.59,-114.54C252.82,-104.04 335.37,-86.77 383.84,-76.64"/>
<polygon fill="midnightblue" stroke="midnightblue" points="384.44,-79.88 393.51,-74.4 383.01,-73.03 384.44,-79.88"/>
</g>
<!-- Node16 -->
<g id="node16" class="node">
<title>Node16</title>
<g id="a_node16"><a xlink:title=" ">
<polygon fill="none" stroke="#bfbfbf" points="347.88,-0.5 347.88,-20.5 385.62,-20.5 385.62,-0.5 347.88,-0.5"/>
<text text-anchor="middle" x="366.75" y="-7" font-family="Helvetica,sans-Serif" font-size="10.00">array</text>
</a>
</g>
</g>
<!-- Node7&#45;&gt;Node16 -->
<g id="edge20" class="edge">
<title>Node7&#45;&gt;Node16</title>
<path fill="none" stroke="midnightblue" d="M162.58,-114.67C167.65,-100.3 179.67,-71.99 199.75,-57 248.29,-20.76 274.83,-37.34 337.72,-20.95"/>
<polygon fill="midnightblue" stroke="midnightblue" points="338.45,-24.1 347.14,-18.03 336.56,-17.36 338.45,-24.1"/>
</g>
<!-- Node17 -->
<g id="node17" class="node">
<title>Node17</title>
<g id="a_node17"><a xlink:title=" ">
<polygon fill="none" stroke="#bfbfbf" points="282,-0.5 282,-20.5 329.5,-20.5 329.5,-0.5 282,-0.5"/>
<text text-anchor="middle" x="305.75" y="-7" font-family="Helvetica,sans-Serif" font-size="10.00">cstddef</text>
</a>
</g>
</g>
<!-- Node7&#45;&gt;Node17 -->
<g id="edge22" class="edge">
<title>Node7&#45;&gt;Node17</title>
<path fill="none" stroke="midnightblue" d="M157.91,-114.62C155.58,-100.7 153.32,-73.61 166.75,-57 191.95,-25.82 238.94,-15.79 271.25,-12.69"/>
<polygon fill="midnightblue" stroke="midnightblue" points="271.31,-16.12 281.01,-11.85 270.77,-9.14 271.31,-16.12"/>
</g>
<!-- Node18 -->
<g id="node18" class="node">
<title>Node18</title>
<g id="a_node18"><a xlink:title=" ">
<polygon fill="none" stroke="#bfbfbf" points="209,-57.5 209,-77.5 262.5,-77.5 262.5,-57.5 209,-57.5"/>
<text text-anchor="middle" x="235.75" y="-64" font-family="Helvetica,sans-Serif" font-size="10.00">compare</text>
</a>
</g>
</g>
<!-- Node7&#45;&gt;Node18 -->
<g id="edge21" class="edge">
<title>Node7&#45;&gt;Node18</title>
<path fill="none" stroke="midnightblue" d="M171.96,-114.66C183.42,-106.37 200.79,-93.8 214.52,-83.87"/>
<polygon fill="midnightblue" stroke="midnightblue" points="216.27,-86.2 222.32,-77.5 212.16,-80.52 216.27,-86.2"/>
</g>
<!-- Node8&#45;&gt;Node8 -->
<g id="edge8" class="edge">
<title>Node8&#45;&gt;Node8</title>
<path fill="none" stroke="midnightblue" d="M510.3,-77.43C521.8,-79.83 532.75,-76.52 532.75,-67.5 532.75,-61.44 527.81,-57.96 521.08,-57.05"/>
<polygon fill="midnightblue" stroke="midnightblue" points="521.12,-53.59 511.3,-57.57 521.46,-60.59 521.12,-53.59"/>
</g>
<!-- Node9 -->
<g id="node9" class="node">
<title>Node9</title>
<g id="a_node9"><a xlink:title=" ">
<polygon fill="none" stroke="#bfbfbf" points="404.25,-0.5 404.25,-20.5 447.25,-20.5 447.25,-0.5 404.25,-0.5"/>
<text text-anchor="middle" x="425.75" y="-7" font-family="Helvetica,sans-Serif" font-size="10.00">cmath</text>
</a>
</g>
</g>
<!-- Node8&#45;&gt;Node9 -->
<g id="edge9" class="edge">
<title>Node8&#45;&gt;Node9</title>
<path fill="none" stroke="midnightblue" d="M481.15,-57.66C471.39,-49.53 456.69,-37.28 444.88,-27.44"/>
<polygon fill="midnightblue" stroke="midnightblue" points="447.47,-24.21 437.55,-20.5 442.99,-29.59 447.47,-24.21"/>
</g>
<!-- Node10 -->
<g id="node10" class="node">
<title>Node10</title>
<g id="a_node10"><a xlink:title=" ">
<polygon fill="none" stroke="#bfbfbf" points="868.12,-0.5 868.12,-20.5 907.38,-20.5 907.38,-0.5 868.12,-0.5"/>
<text text-anchor="middle" x="887.75" y="-7" font-family="Helvetica,sans-Serif" font-size="10.00">limits</text>
</a>
</g>
</g>
<!-- Node8&#45;&gt;Node10 -->
<g id="edge10" class="edge">
<title>Node8&#45;&gt;Node10</title>
<path fill="none" stroke="midnightblue" d="M514.46,-63.35C581.99,-53.97 781.56,-26.25 857.74,-15.67"/>
<polygon fill="midnightblue" stroke="midnightblue" points="858.03,-19.02 867.46,-14.18 857.07,-12.09 858.03,-19.02"/>
</g>
<!-- Node11 -->
<g id="node11" class="node">
<title>Node11</title>
<g id="a_node11"><a xlink:title=" ">
<polygon fill="none" stroke="#bfbfbf" points="533,-0.5 533,-20.5 586.5,-20.5 586.5,-0.5 533,-0.5"/>
<text text-anchor="middle" x="559.75" y="-7" font-family="Helvetica,sans-Serif" font-size="10.00">numbers</text>
</a>
</g>
</g>
<!-- Node8&#45;&gt;Node11 -->
<g id="edge11" class="edge">
<title>Node8&#45;&gt;Node11</title>
<path fill="none" stroke="midnightblue" d="M502.68,-57.66C512.83,-49.45 528.17,-37.04 540.4,-27.15"/>
<polygon fill="midnightblue" stroke="midnightblue" points="542.05,-29.51 547.63,-20.5 537.65,-24.06 542.05,-29.51"/>
</g>
<!-- Node12 -->
<g id="node12" class="node">
<title>Node12</title>
<g id="a_node12"><a xlink:title=" ">
<polygon fill="none" stroke="#bfbfbf" points="466.62,-0.5 466.62,-20.5 514.88,-20.5 514.88,-0.5 466.62,-0.5"/>
<text text-anchor="middle" x="490.75" y="-7" font-family="Helvetica,sans-Serif" font-size="10.00">random</text>
</a>
</g>
</g>
<!-- Node8&#45;&gt;Node12 -->
<g id="edge12" class="edge">
<title>Node8&#45;&gt;Node12</title>
<path fill="none" stroke="midnightblue" d="M491.59,-57.91C491.46,-50.76 491.27,-40.32 491.11,-31.15"/>
<polygon fill="midnightblue" stroke="midnightblue" points="494.59,-31.15 490.91,-21.21 487.59,-31.28 494.59,-31.15"/>
</g>
<!-- Node13&#45;&gt;Node14 -->
<g id="edge14" class="edge">
<title>Node13&#45;&gt;Node14</title>
<path fill="none" stroke="midnightblue" d="M68.62,-57.54C88.21,-48.71 118.38,-35.11 140.86,-24.98"/>
<polygon fill="midnightblue" stroke="midnightblue" points="142.21,-27.76 149.89,-20.46 139.33,-21.37 142.21,-27.76"/>
</g>
<!-- Node15&#45;&gt;Node9 -->
<g id="edge17" class="edge">
<title>Node15&#45;&gt;Node9</title>
<path fill="none" stroke="midnightblue" d="M423.22,-57.91C423.61,-50.76 424.18,-40.32 424.68,-31.15"/>
<polygon fill="midnightblue" stroke="midnightblue" points="428.22,-31.39 425.27,-21.21 421.24,-31.01 428.22,-31.39"/>
</g>
<!-- Node15&#45;&gt;Node14 -->
<g id="edge19" class="edge">
<title>Node15&#45;&gt;Node14</title>
<path fill="none" stroke="midnightblue" d="M394.82,-60.4C349.21,-50.45 258.75,-30.71 207.82,-19.59"/>
<polygon fill="midnightblue" stroke="midnightblue" points="208.8,-16 198.28,-17.29 207.31,-22.84 208.8,-16"/>
</g>
<!-- Node15&#45;&gt;Node16 -->
<g id="edge16" class="edge">
<title>Node15&#45;&gt;Node16</title>
<path fill="none" stroke="midnightblue" d="M413.75,-57.66C405.64,-49.69 393.49,-37.76 383.57,-28.02"/>
<polygon fill="midnightblue" stroke="midnightblue" points="386.5,-26.01 376.91,-21.5 381.59,-31 386.5,-26.01"/>
</g>
<!-- Node15&#45;&gt;Node17 -->
<g id="edge18" class="edge">
<title>Node15&#45;&gt;Node17</title>
<path fill="none" stroke="midnightblue" d="M403.69,-57.54C384.99,-48.75 356.24,-35.23 334.71,-25.11"/>
<polygon fill="midnightblue" stroke="midnightblue" points="336.34,-21.54 325.8,-20.46 333.36,-27.88 336.34,-21.54"/>
</g>
<!-- Node20 -->
<g id="node20" class="node">
<title>Node20</title>
<g id="a_node20"><a xlink:href="_engine_exception_8h.html" target="_top" xlink:title=" ">
<polygon fill="none" stroke="black" points="828.88,-171.5 828.88,-191.5 926.62,-191.5 926.62,-171.5 828.88,-171.5"/>
<text text-anchor="middle" x="877.75" y="-178" font-family="Helvetica,sans-Serif" font-size="10.00">EngineException.h</text>
</a>
</g>
</g>
<!-- Node19&#45;&gt;Node20 -->
<g id="edge26" class="edge">
<title>Node19&#45;&gt;Node20</title>
<path fill="none" stroke="midnightblue" d="M672.33,-288.65C704.02,-281.96 753.6,-269.25 792.75,-249 818.87,-235.49 844.91,-213.55 861.15,-198.6"/>
<polygon fill="midnightblue" stroke="midnightblue" points="863.22,-201.51 868.1,-192.11 858.42,-196.41 863.22,-201.51"/>
</g>
<!-- Node19&#45;&gt;Node22 -->
<g id="edge28" class="edge">
<title>Node19&#45;&gt;Node22</title>
<path fill="none" stroke="midnightblue" d="M609.37,-293.4C547.09,-289.48 407.29,-271.75 330.75,-192 318.67,-179.41 314.18,-159.69 312.56,-144.99"/>
<polygon fill="midnightblue" stroke="midnightblue" points="315.98,-144.8 311.77,-135.08 309,-145.31 315.98,-144.8"/>
</g>
<!-- Node23 -->
<g id="node23" class="node">
<title>Node23</title>
<g id="a_node23"><a xlink:href="_g_d_i_plus_manager_8h.html" target="_top" xlink:title=" ">
<polygon fill="none" stroke="black" points="877.88,-228.5 877.88,-248.5 975.62,-248.5 975.62,-228.5 877.88,-228.5"/>
<text text-anchor="middle" x="926.75" y="-235" font-family="Helvetica,sans-Serif" font-size="10.00">GDIPlusManager.h</text>
</a>
</g>
</g>
<!-- Node19&#45;&gt;Node23 -->
<g id="edge35" class="edge">
<title>Node19&#45;&gt;Node23</title>
<path fill="none" stroke="midnightblue" d="M672.18,-288.46C719.58,-279.34 810.12,-261.93 869.46,-250.52"/>
<polygon fill="midnightblue" stroke="midnightblue" points="870,-253.78 879.16,-248.46 868.68,-246.91 870,-253.78"/>
</g>
<!-- Node27 -->
<g id="node27" class="node">
<title>Node27</title>
<g id="a_node27"><a xlink:href="_surface_8h.html" target="_top" xlink:title=" ">
<polygon fill="none" stroke="black" points="726.12,-228.5 726.12,-248.5 783.38,-248.5 783.38,-228.5 726.12,-228.5"/>
<text text-anchor="middle" x="754.75" y="-235" font-family="Helvetica,sans-Serif" font-size="10.00">Surface.h</text>
</a>
</g>
</g>
<!-- Node19&#45;&gt;Node27 -->
<g id="edge39" class="edge">
<title>Node19&#45;&gt;Node27</title>
<path fill="none" stroke="midnightblue" d="M659.32,-285.54C677.54,-276.75 705.56,-263.23 726.53,-253.11"/>
<polygon fill="midnightblue" stroke="midnightblue" points="727.7,-255.95 735.19,-248.46 724.66,-249.65 727.7,-255.95"/>
</g>
<!-- Node32 -->
<g id="node32" class="node">
<title>Node32</title>
<g id="a_node32"><a xlink:title=" ">
<polygon fill="none" stroke="#bfbfbf" points="558.5,-228.5 558.5,-248.5 609,-248.5 609,-228.5 558.5,-228.5"/>
<text text-anchor="middle" x="583.75" y="-235" font-family="Helvetica,sans-Serif" font-size="10.00">d3d11.h</text>
</a>
</g>
</g>
<!-- Node19&#45;&gt;Node32 -->
<g id="edge48" class="edge">
<title>Node19&#45;&gt;Node32</title>
<path fill="none" stroke="midnightblue" d="M631.59,-285.66C623.33,-277.69 610.97,-265.76 600.88,-256.02"/>
<polygon fill="midnightblue" stroke="midnightblue" points="603.7,-253.92 594.07,-249.5 598.84,-258.96 603.7,-253.92"/>
</g>
<!-- Node33 -->
<g id="node33" class="node">
<title>Node33</title>
<g id="a_node33"><a xlink:title=" ">
<polygon fill="none" stroke="#bfbfbf" points="626.62,-228.5 626.62,-248.5 662.88,-248.5 662.88,-228.5 626.62,-228.5"/>
<text text-anchor="middle" x="644.75" y="-235" font-family="Helvetica,sans-Serif" font-size="10.00">wrl.h</text>
</a>
</g>
</g>
<!-- Node19&#45;&gt;Node33 -->
<g id="edge49" class="edge">
<title>Node19&#45;&gt;Node33</title>
<path fill="none" stroke="midnightblue" d="M641.38,-285.91C641.89,-278.76 642.65,-268.32 643.32,-259.15"/>
<polygon fill="midnightblue" stroke="midnightblue" points="646.88,-259.44 644.12,-249.21 639.9,-258.93 646.88,-259.44"/>
</g>
<!-- Node20&#45;&gt;Node21 -->
<g id="edge27" class="edge">
<title>Node20&#45;&gt;Node21</title>
<path fill="none" stroke="midnightblue" d="M865.38,-171.66C853.77,-163.37 836.17,-150.8 822.26,-140.87"/>
<polygon fill="midnightblue" stroke="midnightblue" points="824.52,-137.46 814.35,-134.5 820.45,-143.16 824.52,-137.46"/>
</g>
<!-- Node22&#45;&gt;Node8 -->
<g id="edge29" class="edge">
<title>Node22&#45;&gt;Node8</title>
<path fill="none" stroke="midnightblue" d="M341.07,-114.54C373.34,-104.68 425.09,-88.87 458.76,-78.58"/>
<polygon fill="midnightblue" stroke="midnightblue" points="459.47,-81.72 468.01,-75.45 457.42,-75.02 459.47,-81.72"/>
</g>
<!-- Node22&#45;&gt;Node14 -->
<g id="edge32" class="edge">
<title>Node22&#45;&gt;Node14</title>
<path fill="none" stroke="midnightblue" d="M308.44,-114.58C302.84,-100.61 290.28,-73.46 271.75,-57 253.38,-40.69 228.2,-29.32 207.57,-22.03"/>
<polygon fill="midnightblue" stroke="midnightblue" points="208.86,-18.44 198.27,-18.59 206.64,-25.08 208.86,-18.44"/>
</g>
<!-- Node22&#45;&gt;Node15 -->
<g id="edge30" class="edge">
<title>Node22&#45;&gt;Node15</title>
<path fill="none" stroke="midnightblue" d="M329.58,-114.66C347.2,-105.94 374.4,-92.46 394.87,-82.31"/>
<polygon fill="midnightblue" stroke="midnightblue" points="396.19,-85.07 403.59,-77.5 393.08,-78.8 396.19,-85.07"/>
</g>
<!-- Node22&#45;&gt;Node16 -->
<g id="edge31" class="edge">
<title>Node22&#45;&gt;Node16</title>
<path fill="none" stroke="midnightblue" d="M316.07,-114.71C324.98,-96.56 345.6,-54.56 357.61,-30.1"/>
<polygon fill="midnightblue" stroke="midnightblue" points="361.19,-31.77 362.45,-21.25 354.9,-28.68 361.19,-31.77"/>
</g>
<!-- Node22&#45;&gt;Node17 -->
<g id="edge34" class="edge">
<title>Node22&#45;&gt;Node17</title>
<path fill="none" stroke="midnightblue" d="M311.28,-114.71C310.32,-96.8 308.12,-55.69 306.8,-31.11"/>
<polygon fill="midnightblue" stroke="midnightblue" points="310.25,-31.05 306.22,-21.25 303.26,-31.42 310.25,-31.05"/>
</g>
<!-- Node22&#45;&gt;Node18 -->
<g id="edge33" class="edge">
<title>Node22&#45;&gt;Node18</title>
<path fill="none" stroke="midnightblue" d="M299.54,-114.66C288.08,-106.37 270.71,-93.8 256.98,-83.87"/>
<polygon fill="midnightblue" stroke="midnightblue" points="259.34,-80.52 249.18,-77.5 255.23,-86.2 259.34,-80.52"/>
</g>
<!-- Node24 -->
<g id="node24" class="node">
<title>Node24</title>
<g id="a_node24"><a xlink:href="_win_8h.html" target="_top" xlink:title=" ">
<polygon fill="none" stroke="black" points="983,-171.5 983,-191.5 1024.5,-191.5 1024.5,-171.5 983,-171.5"/>
<text text-anchor="middle" x="1003.75" y="-178" font-family="Helvetica,sans-Serif" font-size="10.00">Win.h</text>
</a>
</g>
</g>
<!-- Node23&#45;&gt;Node24 -->
<g id="edge36" class="edge">
<title>Node23&#45;&gt;Node24</title>
<path fill="none" stroke="midnightblue" d="M939.12,-228.66C950.73,-220.37 968.33,-207.8 982.24,-197.87"/>
<polygon fill="midnightblue" stroke="midnightblue" points="984.05,-200.16 990.15,-191.5 979.98,-194.46 984.05,-200.16"/>
</g>
<!-- Node25 -->
<g id="node25" class="node">
<title>Node25</title>
<g id="a_node25"><a xlink:title=" ">
<polygon fill="none" stroke="#bfbfbf" points="969.88,-114.5 969.88,-134.5 1037.62,-134.5 1037.62,-114.5 969.88,-114.5"/>
<text text-anchor="middle" x="1003.75" y="-121" font-family="Helvetica,sans-Serif" font-size="10.00">sdkddkver.h</text>
</a>
</g>
</g>
<!-- Node24&#45;&gt;Node25 -->
<g id="edge37" class="edge">
<title>Node24&#45;&gt;Node25</title>
<path fill="none" stroke="midnightblue" d="M1003.75,-171.91C1003.75,-164.76 1003.75,-154.32 1003.75,-145.15"/>
<polygon fill="midnightblue" stroke="midnightblue" points="1007.25,-145.21 1003.75,-135.21 1000.25,-145.21 1007.25,-145.21"/>
</g>
<!-- Node26 -->
<g id="node26" class="node">
<title>Node26</title>
<g id="a_node26"><a xlink:title=" ">
<polygon fill="none" stroke="#bfbfbf" points="887.75,-114.5 887.75,-134.5 951.75,-134.5 951.75,-114.5 887.75,-114.5"/>
<text text-anchor="middle" x="919.75" y="-121" font-family="Helvetica,sans-Serif" font-size="10.00">Windows.h</text>
</a>
</g>
</g>
<!-- Node24&#45;&gt;Node26 -->
<g id="edge38" class="edge">
<title>Node24&#45;&gt;Node26</title>
<path fill="none" stroke="midnightblue" d="M990.25,-171.66C977.35,-163.21 957.65,-150.31 942.35,-140.3"/>
<polygon fill="midnightblue" stroke="midnightblue" points="944.78,-137.05 934.49,-134.5 940.94,-142.9 944.78,-137.05"/>
</g>
<!-- Node27&#45;&gt;Node20 -->
<g id="edge43" class="edge">
<title>Node27&#45;&gt;Node20</title>
<path fill="none" stroke="midnightblue" d="M774.79,-228.54C794.62,-219.67 825.23,-205.99 847.92,-195.84"/>
<polygon fill="midnightblue" stroke="midnightblue" points="849.02,-198.73 856.72,-191.46 846.17,-192.34 849.02,-198.73"/>
</g>
<!-- Node27&#45;&gt;Node21 -->
<g id="edge46" class="edge">
<title>Node27&#45;&gt;Node21</title>
<path fill="none" stroke="midnightblue" d="M760.84,-228.8C766.84,-219.9 775.93,-205.5 781.75,-192 788.37,-176.65 793.41,-158.33 796.63,-144.81"/>
<polygon fill="midnightblue" stroke="midnightblue" points="800.2,-145.88 798.98,-135.36 793.37,-144.34 800.2,-145.88"/>
</g>
<!-- Node27&#45;&gt;Node24 -->
<g id="edge40" class="edge">
<title>Node27&#45;&gt;Node24</title>
<path fill="none" stroke="midnightblue" d="M783.31,-231.19C830.36,-220.8 923.79,-200.16 972.53,-189.4"/>
<polygon fill="midnightblue" stroke="midnightblue" points="973.05,-192.64 982.06,-187.07 971.54,-185.81 973.05,-192.64"/>
</g>
<!-- Node28 -->
<g id="node28" class="node">
<title>Node28</title>
<g id="a_node28"><a xlink:href="_colors_8h.html" target="_top" xlink:title=" ">
<polygon fill="none" stroke="black" points="503.75,-171.5 503.75,-191.5 555.75,-191.5 555.75,-171.5 503.75,-171.5"/>
<text text-anchor="middle" x="529.75" y="-178" font-family="Helvetica,sans-Serif" font-size="10.00">Colors.h</text>
</a>
</g>
</g>
<!-- Node27&#45;&gt;Node28 -->
<g id="edge41" class="edge">
<title>Node27&#45;&gt;Node28</title>
<path fill="none" stroke="midnightblue" d="M726.36,-230.98C691.12,-222.83 628.94,-208.25 566.2,-192.31"/>
<polygon fill="midnightblue" stroke="midnightblue" points="567.28,-188.72 556.72,-189.64 565.55,-195.51 567.28,-188.72"/>
</g>
<!-- Node29 -->
<g id="node29" class="node">
<title>Node29</title>
<g id="a_node29"><a xlink:title=" ">
<polygon fill="none" stroke="#bfbfbf" points="574.12,-171.5 574.12,-191.5 625.38,-191.5 625.38,-171.5 574.12,-171.5"/>
<text text-anchor="middle" x="599.75" y="-178" font-family="Helvetica,sans-Serif" font-size="10.00">assert.h</text>
</a>
</g>
</g>
<!-- Node27&#45;&gt;Node29 -->
<g id="edge44" class="edge">
<title>Node27&#45;&gt;Node29</title>
<path fill="none" stroke="midnightblue" d="M729.5,-228.54C703.83,-219.43 663.84,-205.24 635.04,-195.02"/>
<polygon fill="midnightblue" stroke="midnightblue" points="636.58,-191.5 625.99,-191.46 634.24,-198.1 636.58,-191.5"/>
</g>
<!-- Node30 -->
<g id="node30" class="node">
<title>Node30</title>
<g id="a_node30"><a xlink:title=" ">
<polygon fill="none" stroke="#bfbfbf" points="643.12,-171.5 643.12,-191.5 694.38,-191.5 694.38,-171.5 643.12,-171.5"/>
<text text-anchor="middle" x="668.75" y="-178" font-family="Helvetica,sans-Serif" font-size="10.00">memory</text>
</a>
</g>
</g>
<!-- Node27&#45;&gt;Node30 -->
<g id="edge45" class="edge">
<title>Node27&#45;&gt;Node30</title>
<path fill="none" stroke="midnightblue" d="M740.93,-228.66C727.72,-220.21 707.55,-207.31 691.89,-197.3"/>
<polygon fill="midnightblue" stroke="midnightblue" points="694.13,-193.94 683.82,-191.5 690.36,-199.83 694.13,-193.94"/>
</g>
<!-- Node31 -->
<g id="node31" class="node">
<title>Node31</title>
<g id="a_node31"><a xlink:title=" ">
<polygon fill="none" stroke="#bfbfbf" points="712.62,-171.5 712.62,-191.5 772.88,-191.5 772.88,-171.5 712.62,-171.5"/>
<text text-anchor="middle" x="742.75" y="-178" font-family="Helvetica,sans-Serif" font-size="10.00">filesystem</text>
</a>
</g>
</g>
<!-- Node27&#45;&gt;Node31 -->
<g id="edge47" class="edge">
<title>Node27&#45;&gt;Node31</title>
<path fill="none" stroke="midnightblue" d="M752.88,-228.91C751.3,-221.68 748.99,-211.09 746.97,-201.85"/>
<polygon fill="midnightblue" stroke="midnightblue" points="750.2,-201.24 744.65,-192.21 743.36,-202.73 750.2,-201.24"/>
</g>
<!-- Node28&#45;&gt;Node22 -->
<g id="edge42" class="edge">
<title>Node28&#45;&gt;Node22</title>
<path fill="none" stroke="midnightblue" d="M503.89,-173.97C467.94,-164.91 402.29,-148.34 357.85,-137.13"/>
<polygon fill="midnightblue" stroke="midnightblue" points="358.87,-133.53 348.32,-134.47 357.16,-140.31 358.87,-133.53"/>
</g>
<!-- Node34&#45;&gt;Node7 -->
<g id="edge55" class="edge">
<title>Node34&#45;&gt;Node7</title>
<path fill="none" stroke="midnightblue" d="M177.26,-228.71C174.21,-210.72 167.18,-169.32 163.02,-144.77"/>
<polygon fill="midnightblue" stroke="midnightblue" points="166.36,-144.52 161.23,-135.25 159.46,-145.69 166.36,-144.52"/>
</g>
<!-- Node34&#45;&gt;Node22 -->
<g id="edge56" class="edge">
<title>Node34&#45;&gt;Node22</title>
<path fill="none" stroke="midnightblue" d="M182.58,-228.69C188.96,-214.87 202.94,-187.92 221.75,-171 237.31,-157 257.96,-146.16 275.56,-138.57"/>
<polygon fill="midnightblue" stroke="midnightblue" points="276.59,-141.52 284.51,-134.48 273.93,-135.05 276.59,-141.52"/>
</g>
<!-- Node35 -->
<g id="node35" class="node">
<title>Node35</title>
<g id="a_node35"><a xlink:href="_indexed_triangle_list_8h.html" target="_top" xlink:title=" ">
<polygon fill="none" stroke="black" points="340,-171.5 340,-191.5 447.5,-191.5 447.5,-171.5 340,-171.5"/>
<text text-anchor="middle" x="393.75" y="-178" font-family="Helvetica,sans-Serif" font-size="10.00">IndexedTriangleList.h</text>
</a>
</g>
</g>
<!-- Node34&#45;&gt;Node35 -->
<g id="edge52" class="edge">
<title>Node34&#45;&gt;Node35</title>
<path fill="none" stroke="midnightblue" d="M213.77,-228.54C250.39,-219.17 308.02,-204.43 348.17,-194.16"/>
<polygon fill="midnightblue" stroke="midnightblue" points="348.92,-197.32 357.74,-191.46 347.19,-190.54 348.92,-197.32"/>
</g>
<!-- Node35&#45;&gt;Node22 -->
<g id="edge53" class="edge">
<title>Node35&#45;&gt;Node22</title>
<path fill="none" stroke="midnightblue" d="M380.58,-171.66C368.1,-163.29 349.11,-150.56 334.23,-140.58"/>
<polygon fill="midnightblue" stroke="midnightblue" points="336.42,-137.16 326.16,-134.5 332.52,-142.97 336.42,-137.16"/>
</g>
<!-- Node36 -->
<g id="node36" class="node">
<title>Node36</title>
<g id="a_node36"><a xlink:title=" ">
<polygon fill="none" stroke="#bfbfbf" points="390,-114.5 390,-134.5 431.5,-134.5 431.5,-114.5 390,-114.5"/>
<text text-anchor="middle" x="410.75" y="-121" font-family="Helvetica,sans-Serif" font-size="10.00">vector</text>
</a>
</g>
</g>
<!-- Node35&#45;&gt;Node36 -->
<g id="edge54" class="edge">
<title>Node35&#45;&gt;Node36</title>
<path fill="none" stroke="midnightblue" d="M396.41,-171.91C398.66,-164.6 401.99,-153.85 404.87,-144.54"/>
<polygon fill="midnightblue" stroke="midnightblue" points="408.45,-145.8 408.06,-135.21 401.76,-143.74 408.45,-145.8"/>
</g>
<!-- Node37&#45;&gt;Node15 -->
<g id="edge67" class="edge">
<title>Node37&#45;&gt;Node15</title>
<path fill="none" stroke="midnightblue" d="M795.96,-403.98C871.2,-391.51 1065.75,-353.73 1065.75,-296.5 1065.75,-296.5 1065.75,-296.5 1065.75,-180.5 1065.75,-149.76 1070.71,-133.25 1046.75,-114 997.85,-74.71 561.38,-87.05 461.59,-77.62"/>
<polygon fill="midnightblue" stroke="midnightblue" points="462.27,-74.05 451.92,-76.32 461.42,-81 462.27,-74.05"/>
</g>
<!-- Node37&#45;&gt;Node19 -->
<g id="edge61" class="edge">
<title>Node37&#45;&gt;Node19</title>
<path fill="none" stroke="midnightblue" d="M745.36,-399.57C728.2,-391.68 704.19,-378.97 686.75,-363 671.42,-348.96 658.44,-328.92 650.21,-314.51"/>
<polygon fill="midnightblue" stroke="midnightblue" points="652.97,-313.27 645.1,-306.18 646.84,-316.63 652.97,-313.27"/>
</g>
<!-- Node37&#45;&gt;Node24 -->
<g id="edge60" class="edge">
<title>Node37&#45;&gt;Node24</title>
<path fill="none" stroke="midnightblue" d="M786.75,-399.53C829.77,-379.2 931.52,-325.37 984.75,-249 994.51,-234.99 999.29,-216.03 1001.61,-201.94"/>
<polygon fill="midnightblue" stroke="midnightblue" points="1005.16,-202.84 1003.04,-192.46 998.22,-201.9 1005.16,-202.84"/>
</g>
<!-- Node37&#45;&gt;Node35 -->
<g id="edge63" class="edge">
<title>Node37&#45;&gt;Node35</title>
<path fill="none" stroke="midnightblue" d="M758.3,-399.65C750.22,-390.87 738.08,-376.76 729.75,-363 695.94,-307.13 723.19,-268.22 671.75,-228 655.15,-215.02 534.84,-198.89 458.03,-189.74"/>
<polygon fill="midnightblue" stroke="midnightblue" points="458.83,-186.19 448.49,-188.49 458.01,-193.14 458.83,-186.19"/>
</g>
<!-- Node38 -->
<g id="node38" class="node">
<title>Node38</title>
<g id="a_node38"><a xlink:href="_triangle_8h.html" target="_top" xlink:title=" ">
<polygon fill="none" stroke="black" points="576.75,-342.5 576.75,-362.5 634.75,-362.5 634.75,-342.5 576.75,-342.5"/>
<text text-anchor="middle" x="605.75" y="-349" font-family="Helvetica,sans-Serif" font-size="10.00">Triangle.h</text>
</a>
</g>
</g>
<!-- Node37&#45;&gt;Node38 -->
<g id="edge62" class="edge">
<title>Node37&#45;&gt;Node38</title>
<path fill="none" stroke="midnightblue" d="M740.52,-399.54C713.74,-390.39 671.96,-376.12 642.02,-365.89"/>
<polygon fill="midnightblue" stroke="midnightblue" points="643.56,-362.38 632.96,-362.46 641.3,-369 643.56,-362.38"/>
</g>
<!-- Node39 -->
<g id="node39" class="node">
<title>Node39</title>
<g id="a_node39"><a xlink:href="_pube_screen_transformer_8h.html" target="_top" xlink:title=" ">
<polygon fill="none" stroke="black" points="392.5,-342.5 392.5,-362.5 521,-362.5 521,-342.5 392.5,-342.5"/>
<text text-anchor="middle" x="456.75" y="-349" font-family="Helvetica,sans-Serif" font-size="10.00">PubeScreenTransformer.h</text>
</a>
</g>
</g>
<!-- Node37&#45;&gt;Node39 -->
<g id="edge64" class="edge">
<title>Node37&#45;&gt;Node39</title>
<path fill="none" stroke="midnightblue" d="M737.41,-401.11C734.16,-400.37 730.89,-399.65 727.75,-399 660.61,-385.21 583.48,-372.56 528.71,-364.13"/>
<polygon fill="midnightblue" stroke="midnightblue" points="529.48,-360.55 519.07,-362.49 528.42,-367.47 529.48,-360.55"/>
</g>
<!-- Node40 -->
<g id="node40" class="node">
<title>Node40</title>
<g id="a_node40"><a xlink:href="_z_buffer_8h.html" target="_top" xlink:title=" ">
<polygon fill="none" stroke="black" points="1093.62,-342.5 1093.62,-362.5 1147.88,-362.5 1147.88,-342.5 1093.62,-342.5"/>
<text text-anchor="middle" x="1120.75" y="-349" font-family="Helvetica,sans-Serif" font-size="10.00">ZBuffer.h</text>
</a>
</g>
</g>
<!-- Node37&#45;&gt;Node40 -->
<g id="edge68" class="edge">
<title>Node37&#45;&gt;Node40</title>
<path fill="none" stroke="midnightblue" d="M795.8,-405.1C851.23,-398.43 975.87,-382.55 1079.75,-363 1080.9,-362.78 1082.06,-362.56 1083.24,-362.32"/>
<polygon fill="midnightblue" stroke="midnightblue" points="1083.86,-365.56 1092.91,-360.06 1082.4,-358.71 1083.86,-365.56"/>
</g>
<!-- Node42 -->
<g id="node42" class="node">
<title>Node42</title>
<g id="a_node42"><a xlink:title=" ">
<polygon fill="none" stroke="#bfbfbf" points="738.88,-342.5 738.88,-362.5 794.62,-362.5 794.62,-342.5 738.88,-342.5"/>
<text text-anchor="middle" x="766.75" y="-349" font-family="Helvetica,sans-Serif" font-size="10.00">algorithm</text>
</a>
</g>
</g>
<!-- Node37&#45;&gt;Node42 -->
<g id="edge71" class="edge">
<title>Node37&#45;&gt;Node42</title>
<path fill="none" stroke="midnightblue" d="M766.75,-399.91C766.75,-392.76 766.75,-382.32 766.75,-373.15"/>
<polygon fill="midnightblue" stroke="midnightblue" points="770.25,-373.21 766.75,-363.21 763.25,-373.21 770.25,-373.21"/>
</g>
<!-- Node39&#45;&gt;Node19 -->
<g id="edge65" class="edge">
<title>Node39&#45;&gt;Node19</title>
<path fill="none" stroke="midnightblue" d="M486.72,-342.54C517.73,-333.27 566.34,-318.74 600.64,-308.49"/>
<polygon fill="midnightblue" stroke="midnightblue" points="601.21,-311.67 609.79,-305.46 599.21,-304.97 601.21,-311.67"/>
</g>
<!-- Node39&#45;&gt;Node22 -->
<g id="edge66" class="edge">
<title>Node39&#45;&gt;Node22</title>
<path fill="none" stroke="midnightblue" d="M444.66,-342.79C415.78,-321.16 343.1,-261.72 314.75,-192 308.62,-176.93 308.33,-158.33 309.3,-144.63"/>
<polygon fill="midnightblue" stroke="midnightblue" points="312.84,-145.38 310.37,-135.07 305.88,-144.67 312.84,-145.38"/>
</g>
<!-- Node40&#45;&gt;Node10 -->
<g id="edge69" class="edge">
<title>Node40&#45;&gt;Node10</title>
<path fill="none" stroke="midnightblue" d="M1127.83,-342.57C1134.54,-333.73 1144.51,-319.58 1150.75,-306 1163.58,-278.07 1169.75,-270.24 1169.75,-239.5 1169.75,-239.5 1169.75,-239.5 1169.75,-123.5 1169.75,-69.75 990.53,-30.52 917.84,-16.82"/>
<polygon fill="midnightblue" stroke="midnightblue" points="918.6,-13.22 908.13,-14.84 917.33,-20.1 918.6,-13.22"/>
</g>
<!-- Node41 -->
<g id="node41" class="node">
<title>Node41</title>
<g id="a_node41"><a xlink:title=" ">
<polygon fill="none" stroke="#bfbfbf" points="1093.62,-285.5 1093.62,-305.5 1141.88,-305.5 1141.88,-285.5 1093.62,-285.5"/>
<text text-anchor="middle" x="1117.75" y="-292" font-family="Helvetica,sans-Serif" font-size="10.00">cassert</text>
</a>
</g>
</g>
<!-- Node40&#45;&gt;Node41 -->
<g id="edge70" class="edge">
<title>Node40&#45;&gt;Node41</title>
<path fill="none" stroke="midnightblue" d="M1120.28,-342.91C1119.89,-335.76 1119.32,-325.32 1118.82,-316.15"/>
<polygon fill="midnightblue" stroke="midnightblue" points="1122.26,-316.01 1118.23,-306.21 1115.28,-316.39 1122.26,-316.01"/>
</g>
<!-- Node43&#45;&gt;Node37 -->
<g id="edge73" class="edge">
<title>Node43&#45;&gt;Node37</title>
<path fill="none" stroke="midnightblue" d="M662.95,-456.54C682.94,-447.67 713.8,-433.99 736.68,-423.84"/>
<polygon fill="midnightblue" stroke="midnightblue" points="737.84,-426.71 745.56,-419.46 735,-420.31 737.84,-426.71"/>
</g>
<!-- Node44 -->
<g id="node44" class="node">
<title>Node44</title>
<g id="a_node44"><a xlink:href="_default_vertex_shader_8h.html" target="_top" xlink:title=" ">
<polygon fill="none" stroke="black" points="566.5,-399.5 566.5,-419.5 719,-419.5 719,-399.5 566.5,-399.5"/>
<text text-anchor="middle" x="642.75" y="-406" font-family="Helvetica,sans-Serif" font-size="10.00">Shaders/DefaultVertexShader.h</text>
</a>
</g>
</g>
<!-- Node43&#45;&gt;Node44 -->
<g id="edge74" class="edge">
<title>Node43&#45;&gt;Node44</title>
<path fill="none" stroke="midnightblue" d="M642.75,-456.91C642.75,-449.76 642.75,-439.32 642.75,-430.15"/>
<polygon fill="midnightblue" stroke="midnightblue" points="646.25,-430.21 642.75,-420.21 639.25,-430.21 646.25,-430.21"/>
</g>
</g>
</svg>
