<?xml version="1.0" encoding="UTF-8" standalone="no"?>
<!DOCTYPE svg PUBLIC "-//W3C//DTD SVG 1.1//EN"
 "http://www.w3.org/Graphics/SVG/1.1/DTD/svg11.dtd">
<!-- Generated by graphviz version 8.1.0 (20230707.0739)
 -->
<!-- Title: include/Cube.h Pages: 1 -->
<svg width="631pt" height="155pt"
 viewBox="0.00 0.00 631.00 155.00" xmlns="http://www.w3.org/2000/svg" xmlns:xlink="http://www.w3.org/1999/xlink">
<g id="graph0" class="graph" transform="scale(1 1) rotate(0) translate(4 151)">
<title>include/Cube.h</title>
<!-- Node1 -->
<g id="node1" class="node">
<title>Node1</title>
<g id="a_node1"><a xlink:title=" ">
<polygon fill="#bfbfbf" stroke="black" points="281.62,-126.5 281.62,-146.5 362.12,-146.5 362.12,-126.5 281.62,-126.5"/>
<text text-anchor="middle" x="321.88" y="-133" font-family="Helvetica,sans-Serif" font-size="10.00">include/Cube.h</text>
</a>
</g>
</g>
<!-- Node2 -->
<g id="node2" class="node">
<title>Node2</title>
<g id="a_node2"><a xlink:href="_cube_skin_scene_8h.html" target="_top" xlink:title=" ">
<polygon fill="none" stroke="black" points="0,-63.5 0,-83.5 163.75,-83.5 163.75,-63.5 0,-63.5"/>
<text text-anchor="middle" x="81.88" y="-70" font-family="Helvetica,sans-Serif" font-size="10.00">include/Scenes/CubeSkinScene.h</text>
</a>
</g>
</g>
<!-- Node1&#45;&gt;Node2 -->
<g id="edge1" class="edge">
<title>Node1&#45;&gt;Node2</title>
<path fill="none" stroke="midnightblue" d="M276.08,-123.86C229.79,-112.09 159.23,-94.16 117.12,-83.46"/>
<polygon fill="midnightblue" stroke="midnightblue" points="275.17,-127.49 285.72,-126.56 276.89,-120.71 275.17,-127.49"/>
</g>
<!-- Node4 -->
<g id="node4" class="node">
<title>Node4</title>
<g id="a_node4"><a xlink:href="_cube_solid_scene_8h.html" target="_top" xlink:title=" ">
<polygon fill="none" stroke="black" points="181.88,-57.5 181.88,-89.5 311.88,-89.5 311.88,-57.5 181.88,-57.5"/>
<text text-anchor="start" x="189.88" y="-76" font-family="Helvetica,sans-Serif" font-size="10.00">include/Scenes/CubeSolid</text>
<text text-anchor="middle" x="246.88" y="-64" font-family="Helvetica,sans-Serif" font-size="10.00">Scene.h</text>
</a>
</g>
</g>
<!-- Node1&#45;&gt;Node4 -->
<g id="edge3" class="edge">
<title>Node1&#45;&gt;Node4</title>
<path fill="none" stroke="midnightblue" d="M302.65,-119.86C291.1,-110.47 276.5,-98.59 265.13,-89.35"/>
<polygon fill="midnightblue" stroke="midnightblue" points="300.16,-123.17 310.13,-126.76 304.58,-117.74 300.16,-123.17"/>
</g>
<!-- Node5 -->
<g id="node5" class="node">
<title>Node5</title>
<g id="a_node5"><a xlink:href="_cube_vertex_color_scene_8h.html" target="_top" xlink:title=" ">
<polygon fill="none" stroke="black" points="329.5,-57.5 329.5,-89.5 466.25,-89.5 466.25,-57.5 329.5,-57.5"/>
<text text-anchor="start" x="337.5" y="-76" font-family="Helvetica,sans-Serif" font-size="10.00">include/Scenes/CubeVertex</text>
<text text-anchor="middle" x="397.88" y="-64" font-family="Helvetica,sans-Serif" font-size="10.00">ColorScene.h</text>
</a>
</g>
</g>
<!-- Node1&#45;&gt;Node5 -->
<g id="edge5" class="edge">
<title>Node1&#45;&gt;Node5</title>
<path fill="none" stroke="midnightblue" d="M341.01,-120.14C352.77,-110.71 367.74,-98.69 379.37,-89.35"/>
<polygon fill="midnightblue" stroke="midnightblue" points="339.37,-117.77 333.76,-126.76 343.75,-123.23 339.37,-117.77"/>
</g>
<!-- Node6 -->
<g id="node6" class="node">
<title>Node6</title>
<g id="a_node6"><a xlink:href="_double_cube_scene_8h.html" target="_top" xlink:title=" ">
<polygon fill="none" stroke="black" points="484.75,-57.5 484.75,-89.5 623,-89.5 623,-57.5 484.75,-57.5"/>
<text text-anchor="start" x="492.75" y="-76" font-family="Helvetica,sans-Serif" font-size="10.00">include/Scenes/DoubleCube</text>
<text text-anchor="middle" x="553.88" y="-64" font-family="Helvetica,sans-Serif" font-size="10.00">Scene.h</text>
</a>
</g>
</g>
<!-- Node1&#45;&gt;Node6 -->
<g id="edge7" class="edge">
<title>Node1&#45;&gt;Node6</title>
<path fill="none" stroke="midnightblue" d="M366.13,-123.86C403.37,-114.07 456.84,-100.01 497.2,-89.4"/>
<polygon fill="midnightblue" stroke="midnightblue" points="365.39,-120.7 356.61,-126.63 367.17,-127.47 365.39,-120.7"/>
</g>
<!-- Node3 -->
<g id="node3" class="node">
<title>Node3</title>
<g id="a_node3"><a xlink:href="_engine_8cpp.html" target="_top" xlink:title=" ">
<polygon fill="none" stroke="black" points="281.25,-0.5 281.25,-20.5 362.5,-20.5 362.5,-0.5 281.25,-0.5"/>
<text text-anchor="middle" x="321.88" y="-7" font-family="Helvetica,sans-Serif" font-size="10.00">src/Engine.cpp</text>
</a>
</g>
</g>
<!-- Node2&#45;&gt;Node3 -->
<g id="edge2" class="edge">
<title>Node2&#45;&gt;Node3</title>
<path fill="none" stroke="midnightblue" d="M127.67,-60.86C173.96,-49.09 244.52,-31.16 286.63,-20.46"/>
<polygon fill="midnightblue" stroke="midnightblue" points="126.86,-57.71 118.03,-63.56 128.58,-64.49 126.86,-57.71"/>
</g>
<!-- Node4&#45;&gt;Node3 -->
<g id="edge4" class="edge">
<title>Node4&#45;&gt;Node3</title>
<path fill="none" stroke="midnightblue" d="M273.22,-51.07C286.23,-40.49 301.21,-28.31 311.07,-20.28"/>
<polygon fill="midnightblue" stroke="midnightblue" points="271.58,-48.71 266.03,-57.73 276,-54.14 271.58,-48.71"/>
</g>
<!-- Node5&#45;&gt;Node3 -->
<g id="edge6" class="edge">
<title>Node5&#45;&gt;Node3</title>
<path fill="none" stroke="midnightblue" d="M371.18,-51.07C357.99,-40.49 342.81,-28.31 332.82,-20.28"/>
<polygon fill="midnightblue" stroke="midnightblue" points="368.49,-54.2 378.48,-57.73 372.87,-48.74 368.49,-54.2"/>
</g>
<!-- Node6&#45;&gt;Node3 -->
<g id="edge8" class="edge">
<title>Node6&#45;&gt;Node3</title>
<path fill="none" stroke="midnightblue" d="M486.75,-54.85C443.84,-43.57 390.02,-29.42 355.78,-20.42"/>
<polygon fill="midnightblue" stroke="midnightblue" points="485.56,-58.42 496.12,-57.58 487.34,-51.65 485.56,-58.42"/>
</g>
</g>
</svg>
