<?xml version="1.0" encoding="UTF-8" standalone="no"?>
<!DOCTYPE svg PUBLIC "-//W3C//DTD SVG 1.1//EN"
 "http://www.w3.org/Graphics/SVG/1.1/DTD/svg11.dtd">
<!-- Generated by graphviz version 8.1.0 (20230707.0739)
 -->
<!-- Title: include/Primitives/Cube.h Pages: 1 -->
<svg width="934pt" height="167pt"
 viewBox="0.00 0.00 934.00 167.00" xmlns="http://www.w3.org/2000/svg" xmlns:xlink="http://www.w3.org/1999/xlink">
<g id="graph0" class="graph" transform="scale(1 1) rotate(0) translate(4 163)">
<title>include/Primitives/Cube.h</title>
<!-- Node1 -->
<g id="node1" class="node">
<title>Node1</title>
<g id="a_node1"><a xlink:title=" ">
<polygon fill="#bfbfbf" stroke="black" points="424,-126.5 424,-158.5 515.75,-158.5 515.75,-126.5 424,-126.5"/>
<text text-anchor="start" x="432" y="-145" font-family="Helvetica,sans-Serif" font-size="10.00">include/Primitives</text>
<text text-anchor="middle" x="469.88" y="-133" font-family="Helvetica,sans-Serif" font-size="10.00">/Cube.h</text>
</a>
</g>
</g>
<!-- Node2 -->
<g id="node2" class="node">
<title>Node2</title>
<g id="a_node2"><a xlink:href="_cube_skin_scene_8h.html" target="_top" xlink:title=" ">
<polygon fill="none" stroke="black" points="0,-63.5 0,-83.5 163.75,-83.5 163.75,-63.5 0,-63.5"/>
<text text-anchor="middle" x="81.88" y="-70" font-family="Helvetica,sans-Serif" font-size="10.00">include/Scenes/CubeSkinScene.h</text>
</a>
</g>
</g>
<!-- Node1&#45;&gt;Node2 -->
<g id="edge1" class="edge">
<title>Node1&#45;&gt;Node2</title>
<path fill="none" stroke="midnightblue" d="M413.57,-131.78C338.5,-118.81 206.63,-96.04 133.82,-83.47"/>
<polygon fill="midnightblue" stroke="midnightblue" points="412.78,-135.36 423.23,-133.62 413.97,-128.47 412.78,-135.36"/>
</g>
<!-- Node4 -->
<g id="node4" class="node">
<title>Node4</title>
<g id="a_node4"><a xlink:href="_cube_solid_geometry_scene_8h.html" target="_top" xlink:title=" ">
<polygon fill="none" stroke="black" points="181.88,-57.5 181.88,-89.5 311.88,-89.5 311.88,-57.5 181.88,-57.5"/>
<text text-anchor="start" x="189.88" y="-76" font-family="Helvetica,sans-Serif" font-size="10.00">include/Scenes/CubeSolid</text>
<text text-anchor="middle" x="246.88" y="-64" font-family="Helvetica,sans-Serif" font-size="10.00">GeometryScene.h</text>
</a>
</g>
</g>
<!-- Node1&#45;&gt;Node4 -->
<g id="edge3" class="edge">
<title>Node1&#45;&gt;Node4</title>
<path fill="none" stroke="midnightblue" d="M413.87,-124.67C377.86,-113.85 331.48,-99.92 296.75,-89.48"/>
<polygon fill="midnightblue" stroke="midnightblue" points="412.63,-128.25 423.21,-127.78 414.64,-121.55 412.63,-128.25"/>
</g>
<!-- Node5 -->
<g id="node5" class="node">
<title>Node5</title>
<g id="a_node5"><a xlink:href="_cube_solid_scene_8h.html" target="_top" xlink:title=" ">
<polygon fill="none" stroke="black" points="329.88,-57.5 329.88,-89.5 459.88,-89.5 459.88,-57.5 329.88,-57.5"/>
<text text-anchor="start" x="337.88" y="-76" font-family="Helvetica,sans-Serif" font-size="10.00">include/Scenes/CubeSolid</text>
<text text-anchor="middle" x="394.88" y="-64" font-family="Helvetica,sans-Serif" font-size="10.00">Scene.h</text>
</a>
</g>
</g>
<!-- Node1&#45;&gt;Node5 -->
<g id="edge5" class="edge">
<title>Node1&#45;&gt;Node5</title>
<path fill="none" stroke="midnightblue" d="M445.18,-119.44C434.12,-109.56 421.37,-98.17 411.47,-89.33"/>
<polygon fill="midnightblue" stroke="midnightblue" points="442.44,-121.58 452.23,-125.63 447.1,-116.36 442.44,-121.58"/>
</g>
<!-- Node6 -->
<g id="node6" class="node">
<title>Node6</title>
<g id="a_node6"><a xlink:href="_cube_vertex_color_scene_8h.html" target="_top" xlink:title=" ">
<polygon fill="none" stroke="black" points="477.5,-57.5 477.5,-89.5 614.25,-89.5 614.25,-57.5 477.5,-57.5"/>
<text text-anchor="start" x="485.5" y="-76" font-family="Helvetica,sans-Serif" font-size="10.00">include/Scenes/CubeVertex</text>
<text text-anchor="middle" x="545.88" y="-64" font-family="Helvetica,sans-Serif" font-size="10.00">ColorScene.h</text>
</a>
</g>
</g>
<!-- Node1&#45;&gt;Node6 -->
<g id="edge7" class="edge">
<title>Node1&#45;&gt;Node6</title>
<path fill="none" stroke="midnightblue" d="M494.9,-119.44C506.11,-109.56 519.03,-98.17 529.06,-89.33"/>
<polygon fill="midnightblue" stroke="midnightblue" points="492.93,-116.39 487.74,-125.63 497.56,-121.64 492.93,-116.39"/>
</g>
<!-- Node7 -->
<g id="node7" class="node">
<title>Node7</title>
<g id="a_node7"><a xlink:href="_cube_vertex_position_color_scene_8h.html" target="_top" xlink:title=" ">
<polygon fill="none" stroke="black" points="632.5,-57.5 632.5,-89.5 769.25,-89.5 769.25,-57.5 632.5,-57.5"/>
<text text-anchor="start" x="640.5" y="-76" font-family="Helvetica,sans-Serif" font-size="10.00">include/Scenes/CubeVertex</text>
<text text-anchor="middle" x="700.88" y="-64" font-family="Helvetica,sans-Serif" font-size="10.00">PositionColorScene.h</text>
</a>
</g>
</g>
<!-- Node1&#45;&gt;Node7 -->
<g id="edge9" class="edge">
<title>Node1&#45;&gt;Node7</title>
<path fill="none" stroke="midnightblue" d="M525.79,-125.28C563.4,-114.37 612.62,-100.1 649.29,-89.46"/>
<polygon fill="midnightblue" stroke="midnightblue" points="525.14,-122.12 516.51,-128.26 527.09,-128.84 525.14,-122.12"/>
</g>
<!-- Node8 -->
<g id="node8" class="node">
<title>Node8</title>
<g id="a_node8"><a xlink:href="_double_cube_scene_8h.html" target="_top" xlink:title=" ">
<polygon fill="none" stroke="black" points="787.75,-57.5 787.75,-89.5 926,-89.5 926,-57.5 787.75,-57.5"/>
<text text-anchor="start" x="795.75" y="-76" font-family="Helvetica,sans-Serif" font-size="10.00">include/Scenes/DoubleCube</text>
<text text-anchor="middle" x="856.88" y="-64" font-family="Helvetica,sans-Serif" font-size="10.00">Scene.h</text>
</a>
</g>
</g>
<!-- Node1&#45;&gt;Node8 -->
<g id="edge11" class="edge">
<title>Node1&#45;&gt;Node8</title>
<path fill="none" stroke="midnightblue" d="M526.3,-132.55C588.12,-122.64 690.19,-105.93 777.88,-90 781.18,-89.4 784.55,-88.78 787.96,-88.14"/>
<polygon fill="midnightblue" stroke="midnightblue" points="525.93,-129.23 516.61,-134.26 527.03,-136.14 525.93,-129.23"/>
</g>
<!-- Node3 -->
<g id="node3" class="node">
<title>Node3</title>
<g id="a_node3"><a xlink:href="_engine_8cpp.html" target="_top" xlink:title=" ">
<polygon fill="none" stroke="black" points="429.25,-0.5 429.25,-20.5 510.5,-20.5 510.5,-0.5 429.25,-0.5"/>
<text text-anchor="middle" x="469.88" y="-7" font-family="Helvetica,sans-Serif" font-size="10.00">src/Engine.cpp</text>
</a>
</g>
</g>
<!-- Node2&#45;&gt;Node3 -->
<g id="edge2" class="edge">
<title>Node2&#45;&gt;Node3</title>
<path fill="none" stroke="midnightblue" d="M144.09,-61.76C153.73,-60.14 163.56,-58.51 172.88,-57 264.54,-42.17 372.32,-25.97 429.49,-17.47"/>
<polygon fill="midnightblue" stroke="midnightblue" points="143.62,-58.46 134.34,-63.58 144.79,-65.36 143.62,-58.46"/>
</g>
<!-- Node4&#45;&gt;Node3 -->
<g id="edge4" class="edge">
<title>Node4&#45;&gt;Node3</title>
<path fill="none" stroke="midnightblue" d="M311.92,-54.71C353.07,-43.45 404.51,-29.38 437.28,-20.42"/>
<polygon fill="midnightblue" stroke="midnightblue" points="311.15,-51.56 302.43,-57.58 313,-58.32 311.15,-51.56"/>
</g>
<!-- Node5&#45;&gt;Node3 -->
<g id="edge6" class="edge">
<title>Node5&#45;&gt;Node3</title>
<path fill="none" stroke="midnightblue" d="M421.22,-51.07C434.23,-40.49 449.21,-28.31 459.07,-20.28"/>
<polygon fill="midnightblue" stroke="midnightblue" points="419.58,-48.71 414.03,-57.73 424,-54.14 419.58,-48.71"/>
</g>
<!-- Node6&#45;&gt;Node3 -->
<g id="edge8" class="edge">
<title>Node6&#45;&gt;Node3</title>
<path fill="none" stroke="midnightblue" d="M519.18,-51.07C505.99,-40.49 490.81,-28.31 480.82,-20.28"/>
<polygon fill="midnightblue" stroke="midnightblue" points="516.49,-54.2 526.48,-57.73 520.87,-48.74 516.49,-54.2"/>
</g>
<!-- Node7&#45;&gt;Node3 -->
<g id="edge10" class="edge">
<title>Node7&#45;&gt;Node3</title>
<path fill="none" stroke="midnightblue" d="M633.77,-54.78C591.09,-43.51 537.66,-29.4 503.64,-20.42"/>
<polygon fill="midnightblue" stroke="midnightblue" points="632.8,-58.41 643.37,-57.58 634.59,-51.64 632.8,-58.41"/>
</g>
<!-- Node8&#45;&gt;Node3 -->
<g id="edge12" class="edge">
<title>Node8&#45;&gt;Node3</title>
<path fill="none" stroke="midnightblue" d="M777.42,-56.98C674.81,-39.53 567.34,-24.54 510.33,-16.86"/>
<polygon fill="midnightblue" stroke="midnightblue" points="776.53,-60.55 786.97,-58.78 777.71,-53.65 776.53,-60.55"/>
</g>
</g>
</svg>
