<?xml version="1.0" encoding="UTF-8" standalone="no"?>
<!DOCTYPE svg PUBLIC "-//W3C//DTD SVG 1.1//EN"
 "http://www.w3.org/Graphics/SVG/1.1/DTD/svg11.dtd">
<!-- Generated by graphviz version 8.1.0 (20230707.0739)
 -->
<!-- Title: include/Scenes/CubeSkinScene.h Pages: 1 -->
<svg width="1052pt" height="542pt"
 viewBox="0.00 0.00 1052.00 542.00" xmlns="http://www.w3.org/2000/svg" xmlns:xlink="http://www.w3.org/1999/xlink">
<g id="graph0" class="graph" transform="scale(1 1) rotate(0) translate(4 538)">
<title>include/Scenes/CubeSkinScene.h</title>
<!-- Node1 -->
<g id="node1" class="node">
<title>Node1</title>
<g id="a_node1"><a xlink:title=" ">
<polygon fill="#bfbfbf" stroke="black" points="209.12,-513.5 209.12,-533.5 372.88,-533.5 372.88,-513.5 209.12,-513.5"/>
<text text-anchor="middle" x="291" y="-520" font-family="Helvetica,sans-Serif" font-size="10.00">include/Scenes/CubeSkinScene.h</text>
</a>
</g>
</g>
<!-- Node2 -->
<g id="node2" class="node">
<title>Node2</title>
<g id="a_node2"><a xlink:href="_scene_8h.html" target="_top" xlink:title=" ">
<polygon fill="none" stroke="black" points="230,-342.5 230,-362.5 282,-362.5 282,-342.5 230,-342.5"/>
<text text-anchor="middle" x="256" y="-349" font-family="Helvetica,sans-Serif" font-size="10.00">Scene.h</text>
</a>
</g>
</g>
<!-- Node1&#45;&gt;Node2 -->
<g id="edge1" class="edge">
<title>Node1&#45;&gt;Node2</title>
<path fill="none" stroke="midnightblue" d="M289.22,-513.89C283.83,-487.9 267.66,-409.82 260.05,-373.05"/>
<polygon fill="midnightblue" stroke="midnightblue" points="263.28,-372.38 257.82,-363.3 256.42,-373.8 263.28,-372.38"/>
</g>
<!-- Node15 -->
<g id="node15" class="node">
<title>Node15</title>
<g id="a_node15"><a xlink:href="_matrix3_8h.html" target="_top" xlink:title=" ">
<polygon fill="none" stroke="black" points="210.75,-57.5 210.75,-77.5 267.25,-77.5 267.25,-57.5 210.75,-57.5"/>
<text text-anchor="middle" x="239" y="-64" font-family="Helvetica,sans-Serif" font-size="10.00">Matrix3.h</text>
</a>
</g>
</g>
<!-- Node1&#45;&gt;Node15 -->
<g id="edge57" class="edge">
<title>Node1&#45;&gt;Node15</title>
<path fill="none" stroke="midnightblue" d="M218.91,-513.58C179.54,-506.91 130.66,-495.62 90,-477 44.78,-456.29 0,-460.23 0,-410.5 0,-410.5 0,-410.5 0,-294.5 0,-263.76 0.19,-252.31 19,-228 68.87,-163.56 113.45,-186 177,-135 195.38,-120.25 213.41,-100.09 225.24,-85.84"/>
<polygon fill="midnightblue" stroke="midnightblue" points="228.48,-88.42 232.07,-78.45 223.04,-84 228.48,-88.42"/>
</g>
<!-- Node22 -->
<g id="node22" class="node">
<title>Node22</title>
<g id="a_node22"><a xlink:href="_vector3_8h.html" target="_top" xlink:title=" ">
<polygon fill="none" stroke="black" points="363.88,-114.5 363.88,-134.5 484.12,-134.5 484.12,-114.5 363.88,-114.5"/>
<text text-anchor="middle" x="424" y="-121" font-family="Helvetica,sans-Serif" font-size="10.00">LinearAlgebra/Vector3.h</text>
</a>
</g>
</g>
<!-- Node1&#45;&gt;Node22 -->
<g id="edge58" class="edge">
<title>Node1&#45;&gt;Node22</title>
<path fill="none" stroke="midnightblue" d="M293.56,-513.59C298.75,-494.73 310,-449.35 310,-410.5 310,-410.5 310,-410.5 310,-294.5 310,-228.18 371.08,-168.4 403.82,-141.12"/>
<polygon fill="midnightblue" stroke="midnightblue" points="405.66,-143.32 411.23,-134.31 401.26,-137.89 405.66,-143.32"/>
</g>
<!-- Node34 -->
<g id="node34" class="node">
<title>Node34</title>
<g id="a_node34"><a xlink:href="_cube_8h.html" target="_top" xlink:title=" ">
<polygon fill="none" stroke="black" points="28.12,-228.5 28.12,-248.5 119.88,-248.5 119.88,-228.5 28.12,-228.5"/>
<text text-anchor="middle" x="74" y="-235" font-family="Helvetica,sans-Serif" font-size="10.00">Primitives/Cube.h</text>
</a>
</g>
</g>
<!-- Node1&#45;&gt;Node34 -->
<g id="edge51" class="edge">
<title>Node1&#45;&gt;Node34</title>
<path fill="none" stroke="midnightblue" d="M212.16,-513.5C150.8,-501.6 76,-474.05 76,-410.5 76,-410.5 76,-410.5 76,-351.5 76,-319.17 75.16,-281.61 74.57,-259.24"/>
<polygon fill="midnightblue" stroke="midnightblue" points="78.04,-259.4 74.27,-249.5 71.05,-259.59 78.04,-259.4"/>
</g>
<!-- Node37 -->
<g id="node37" class="node">
<title>Node37</title>
<g id="a_node37"><a xlink:href="_pipeline_8h.html" target="_top" xlink:title=" ">
<polygon fill="none" stroke="black" points="531.62,-399.5 531.62,-419.5 590.38,-419.5 590.38,-399.5 531.62,-399.5"/>
<text text-anchor="middle" x="561" y="-406" font-family="Helvetica,sans-Serif" font-size="10.00">Pipeline.h</text>
</a>
</g>
</g>
<!-- Node1&#45;&gt;Node37 -->
<g id="edge59" class="edge">
<title>Node1&#45;&gt;Node37</title>
<path fill="none" stroke="midnightblue" d="M312.64,-513.52C360.25,-493.77 474.25,-446.48 529.68,-423.49"/>
<polygon fill="midnightblue" stroke="midnightblue" points="530.74,-426.43 538.63,-419.36 528.06,-419.96 530.74,-426.43"/>
</g>
<!-- Node43 -->
<g id="node43" class="node">
<title>Node43</title>
<g id="a_node43"><a xlink:href="_texture_effect_8h.html" target="_top" xlink:title=" ">
<polygon fill="none" stroke="black" points="565.88,-456.5 565.88,-476.5 680.12,-476.5 680.12,-456.5 565.88,-456.5"/>
<text text-anchor="middle" x="623" y="-463" font-family="Helvetica,sans-Serif" font-size="10.00">Effects/TextureEffect.h</text>
</a>
</g>
</g>
<!-- Node1&#45;&gt;Node43 -->
<g id="edge72" class="edge">
<title>Node1&#45;&gt;Node43</title>
<path fill="none" stroke="midnightblue" d="M345.08,-513.54C403.32,-503.89 495.97,-488.54 558.1,-478.25"/>
<polygon fill="midnightblue" stroke="midnightblue" points="558.65,-481.54 567.94,-476.46 557.51,-474.64 558.65,-481.54"/>
</g>
<!-- Node3 -->
<g id="node3" class="node">
<title>Node3</title>
<g id="a_node3"><a xlink:href="_keyboard_8h.html" target="_top" xlink:title=" ">
<polygon fill="none" stroke="black" points="106.25,-285.5 106.25,-305.5 171.75,-305.5 171.75,-285.5 106.25,-285.5"/>
<text text-anchor="middle" x="139" y="-292" font-family="Helvetica,sans-Serif" font-size="10.00">Keyboard.h</text>
</a>
</g>
</g>
<!-- Node2&#45;&gt;Node3 -->
<g id="edge2" class="edge">
<title>Node2&#45;&gt;Node3</title>
<path fill="none" stroke="midnightblue" d="M236.94,-342.54C218.24,-333.75 189.49,-320.23 167.96,-310.11"/>
<polygon fill="midnightblue" stroke="midnightblue" points="169.59,-306.54 159.05,-305.46 166.61,-312.88 169.59,-306.54"/>
</g>
<!-- Node6 -->
<g id="node6" class="node">
<title>Node6</title>
<g id="a_node6"><a xlink:href="_mouse_8h.html" target="_top" xlink:title=" ">
<polygon fill="none" stroke="black" points="190.25,-285.5 190.25,-305.5 243.75,-305.5 243.75,-285.5 190.25,-285.5"/>
<text text-anchor="middle" x="217" y="-292" font-family="Helvetica,sans-Serif" font-size="10.00">Mouse.h</text>
</a>
</g>
</g>
<!-- Node2&#45;&gt;Node6 -->
<g id="edge5" class="edge">
<title>Node2&#45;&gt;Node6</title>
<path fill="none" stroke="midnightblue" d="M249.91,-342.91C244.44,-335.2 236.26,-323.66 229.42,-314.02"/>
<polygon fill="midnightblue" stroke="midnightblue" points="231.82,-312.35 223.18,-306.21 226.11,-316.4 231.82,-312.35"/>
</g>
<!-- Node19 -->
<g id="node19" class="node">
<title>Node19</title>
<g id="a_node19"><a xlink:href="_graphics_8h.html" target="_top" xlink:title=" ">
<polygon fill="none" stroke="black" points="621.38,-285.5 621.38,-305.5 684.62,-305.5 684.62,-285.5 621.38,-285.5"/>
<text text-anchor="middle" x="653" y="-292" font-family="Helvetica,sans-Serif" font-size="10.00">Graphics.h</text>
</a>
</g>
</g>
<!-- Node2&#45;&gt;Node19 -->
<g id="edge25" class="edge">
<title>Node2&#45;&gt;Node19</title>
<path fill="none" stroke="midnightblue" d="M281.74,-347.93C348.6,-338.67 528.27,-313.78 610.66,-302.37"/>
<polygon fill="midnightblue" stroke="midnightblue" points="610.96,-305.72 620.39,-300.88 610,-298.79 610.96,-305.72"/>
</g>
<!-- Node21 -->
<g id="node21" class="node">
<title>Node21</title>
<g id="a_node21"><a xlink:title=" ">
<polygon fill="none" stroke="#bfbfbf" points="588,-114.5 588,-134.5 628,-134.5 628,-114.5 588,-114.5"/>
<text text-anchor="middle" x="608" y="-121" font-family="Helvetica,sans-Serif" font-size="10.00">string</text>
</a>
</g>
</g>
<!-- Node2&#45;&gt;Node21 -->
<g id="edge50" class="edge">
<title>Node2&#45;&gt;Node21</title>
<path fill="none" stroke="midnightblue" d="M267.7,-342.66C303.96,-315.43 418.12,-231.06 519,-171 538.57,-159.35 561.46,-147.68 579.13,-139.08"/>
<polygon fill="midnightblue" stroke="midnightblue" points="580.38,-141.89 587.87,-134.4 577.34,-135.58 580.38,-141.89"/>
</g>
<!-- Node4 -->
<g id="node4" class="node">
<title>Node4</title>
<g id="a_node4"><a xlink:title=" ">
<polygon fill="none" stroke="#bfbfbf" points="138,-228.5 138,-248.5 178,-248.5 178,-228.5 138,-228.5"/>
<text text-anchor="middle" x="158" y="-235" font-family="Helvetica,sans-Serif" font-size="10.00">bitset</text>
</a>
</g>
</g>
<!-- Node3&#45;&gt;Node4 -->
<g id="edge3" class="edge">
<title>Node3&#45;&gt;Node4</title>
<path fill="none" stroke="midnightblue" d="M141.97,-285.91C144.49,-278.6 148.21,-267.85 151.42,-258.54"/>
<polygon fill="midnightblue" stroke="midnightblue" points="155.03,-259.81 154.99,-249.21 148.42,-257.52 155.03,-259.81"/>
</g>
<!-- Node5 -->
<g id="node5" class="node">
<title>Node5</title>
<g id="a_node5"><a xlink:title=" ">
<polygon fill="none" stroke="#bfbfbf" points="195.88,-228.5 195.88,-248.5 238.12,-248.5 238.12,-228.5 195.88,-228.5"/>
<text text-anchor="middle" x="217" y="-235" font-family="Helvetica,sans-Serif" font-size="10.00">queue</text>
</a>
</g>
</g>
<!-- Node3&#45;&gt;Node5 -->
<g id="edge4" class="edge">
<title>Node3&#45;&gt;Node5</title>
<path fill="none" stroke="midnightblue" d="M151.53,-285.66C163.4,-277.29 181.46,-264.56 195.61,-254.58"/>
<polygon fill="midnightblue" stroke="midnightblue" points="197.08,-257.12 203.24,-248.5 193.05,-251.4 197.08,-257.12"/>
</g>
<!-- Node6&#45;&gt;Node5 -->
<g id="edge24" class="edge">
<title>Node6&#45;&gt;Node5</title>
<path fill="none" stroke="midnightblue" d="M217,-285.91C217,-278.76 217,-268.32 217,-259.15"/>
<polygon fill="midnightblue" stroke="midnightblue" points="220.5,-259.21 217,-249.21 213.5,-259.21 220.5,-259.21"/>
</g>
<!-- Node7 -->
<g id="node7" class="node">
<title>Node7</title>
<g id="a_node7"><a xlink:href="_vector2_8h.html" target="_top" xlink:title=" ">
<polygon fill="none" stroke="black" points="47.88,-114.5 47.88,-134.5 168.12,-134.5 168.12,-114.5 47.88,-114.5"/>
<text text-anchor="middle" x="108" y="-121" font-family="Helvetica,sans-Serif" font-size="10.00">LinearAlgebra/Vector2.h</text>
</a>
</g>
</g>
<!-- Node6&#45;&gt;Node7 -->
<g id="edge6" class="edge">
<title>Node6&#45;&gt;Node7</title>
<path fill="none" stroke="midnightblue" d="M226.08,-285.78C238.27,-272.96 257.28,-248.35 247,-228 243.76,-221.59 167.39,-167.27 129.26,-140.42"/>
<polygon fill="midnightblue" stroke="midnightblue" points="131.65,-137.12 121.46,-134.23 127.62,-142.84 131.65,-137.12"/>
</g>
<!-- Node8 -->
<g id="node8" class="node">
<title>Node8</title>
<g id="a_node8"><a xlink:href="_math_8h.html" target="_top" xlink:title=" ">
<polygon fill="none" stroke="black" points="471,-57.5 471,-77.5 517,-77.5 517,-57.5 471,-57.5"/>
<text text-anchor="middle" x="494" y="-64" font-family="Helvetica,sans-Serif" font-size="10.00">Math.h</text>
</a>
</g>
</g>
<!-- Node7&#45;&gt;Node8 -->
<g id="edge7" class="edge">
<title>Node7&#45;&gt;Node8</title>
<path fill="none" stroke="midnightblue" d="M167.89,-114.97C250.16,-103.24 395.36,-82.56 460.6,-73.26"/>
<polygon fill="midnightblue" stroke="midnightblue" points="460.69,-76.64 470.1,-71.76 459.7,-69.71 460.69,-76.64"/>
</g>
<!-- Node13 -->
<g id="node13" class="node">
<title>Node13</title>
<g id="a_node13"><a xlink:href="_matrix2_8h.html" target="_top" xlink:title=" ">
<polygon fill="none" stroke="black" points="60.75,-57.5 60.75,-77.5 117.25,-77.5 117.25,-57.5 60.75,-57.5"/>
<text text-anchor="middle" x="89" y="-64" font-family="Helvetica,sans-Serif" font-size="10.00">Matrix2.h</text>
</a>
</g>
</g>
<!-- Node7&#45;&gt;Node13 -->
<g id="edge13" class="edge">
<title>Node7&#45;&gt;Node13</title>
<path fill="none" stroke="midnightblue" d="M105.03,-114.91C102.51,-107.6 98.79,-96.85 95.58,-87.54"/>
<polygon fill="midnightblue" stroke="midnightblue" points="98.58,-86.52 92.01,-78.21 91.97,-88.81 98.58,-86.52"/>
</g>
<!-- Node14 -->
<g id="node14" class="node">
<title>Node14</title>
<g id="a_node14"><a xlink:title=" ">
<polygon fill="none" stroke="#bfbfbf" points="102.25,-0.5 102.25,-20.5 155.75,-20.5 155.75,-0.5 102.25,-0.5"/>
<text text-anchor="middle" x="129" y="-7" font-family="Helvetica,sans-Serif" font-size="10.00">iostream</text>
</a>
</g>
</g>
<!-- Node7&#45;&gt;Node14 -->
<g id="edge23" class="edge">
<title>Node7&#45;&gt;Node14</title>
<path fill="none" stroke="midnightblue" d="M90.8,-114.63C69.88,-102.59 38.91,-79.94 52,-57 60.84,-41.51 77.24,-30.76 92.65,-23.62"/>
<polygon fill="midnightblue" stroke="midnightblue" points="93.69,-26.55 101.53,-19.43 90.96,-20.11 93.69,-26.55"/>
</g>
<!-- Node7&#45;&gt;Node15 -->
<g id="edge15" class="edge">
<title>Node7&#45;&gt;Node15</title>
<path fill="none" stroke="midnightblue" d="M129.34,-114.54C150.56,-105.63 183.35,-91.86 207.56,-81.7"/>
<polygon fill="midnightblue" stroke="midnightblue" points="208.8,-84.55 216.67,-77.46 206.09,-78.1 208.8,-84.55"/>
</g>
<!-- Node16 -->
<g id="node16" class="node">
<title>Node16</title>
<g id="a_node16"><a xlink:title=" ">
<polygon fill="none" stroke="#bfbfbf" points="250.12,-0.5 250.12,-20.5 287.88,-20.5 287.88,-0.5 250.12,-0.5"/>
<text text-anchor="middle" x="269" y="-7" font-family="Helvetica,sans-Serif" font-size="10.00">array</text>
</a>
</g>
</g>
<!-- Node7&#45;&gt;Node16 -->
<g id="edge20" class="edge">
<title>Node7&#45;&gt;Node16</title>
<path fill="none" stroke="midnightblue" d="M120.41,-114.6C138.35,-101.78 172.59,-77.39 202,-57 216.88,-46.69 233.74,-35.24 246.82,-26.41"/>
<polygon fill="midnightblue" stroke="midnightblue" points="248.26,-28.98 254.6,-20.49 244.35,-23.18 248.26,-28.98"/>
</g>
<!-- Node17 -->
<g id="node17" class="node">
<title>Node17</title>
<g id="a_node17"><a xlink:title=" ">
<polygon fill="none" stroke="#bfbfbf" points="184.25,-0.5 184.25,-20.5 231.75,-20.5 231.75,-0.5 184.25,-0.5"/>
<text text-anchor="middle" x="208" y="-7" font-family="Helvetica,sans-Serif" font-size="10.00">cstddef</text>
</a>
</g>
</g>
<!-- Node7&#45;&gt;Node17 -->
<g id="edge22" class="edge">
<title>Node7&#45;&gt;Node17</title>
<path fill="none" stroke="midnightblue" d="M115.85,-114.71C132.5,-96.06 171.59,-52.28 193.13,-28.16"/>
<polygon fill="midnightblue" stroke="midnightblue" points="195.14,-31.04 199.19,-21.25 189.92,-26.38 195.14,-31.04"/>
</g>
<!-- Node18 -->
<g id="node18" class="node">
<title>Node18</title>
<g id="a_node18"><a xlink:title=" ">
<polygon fill="none" stroke="#bfbfbf" points="285.25,-57.5 285.25,-77.5 338.75,-77.5 338.75,-57.5 285.25,-57.5"/>
<text text-anchor="middle" x="312" y="-64" font-family="Helvetica,sans-Serif" font-size="10.00">compare</text>
</a>
</g>
</g>
<!-- Node7&#45;&gt;Node18 -->
<g id="edge21" class="edge">
<title>Node7&#45;&gt;Node18</title>
<path fill="none" stroke="midnightblue" d="M141.23,-114.54C177.97,-104.64 236.99,-88.72 275.13,-78.44"/>
<polygon fill="midnightblue" stroke="midnightblue" points="275.55,-81.68 284.29,-75.7 273.73,-74.92 275.55,-81.68"/>
</g>
<!-- Node8&#45;&gt;Node8 -->
<g id="edge8" class="edge">
<title>Node8&#45;&gt;Node8</title>
<path fill="none" stroke="midnightblue" d="M512.55,-77.43C524.05,-79.83 535,-76.52 535,-67.5 535,-61.44 530.06,-57.96 523.33,-57.05"/>
<polygon fill="midnightblue" stroke="midnightblue" points="523.37,-53.59 513.55,-57.57 523.71,-60.59 523.37,-53.59"/>
</g>
<!-- Node9 -->
<g id="node9" class="node">
<title>Node9</title>
<g id="a_node9"><a xlink:title=" ">
<polygon fill="none" stroke="#bfbfbf" points="341.5,-0.5 341.5,-20.5 384.5,-20.5 384.5,-0.5 341.5,-0.5"/>
<text text-anchor="middle" x="363" y="-7" font-family="Helvetica,sans-Serif" font-size="10.00">cmath</text>
</a>
</g>
</g>
<!-- Node8&#45;&gt;Node9 -->
<g id="edge9" class="edge">
<title>Node8&#45;&gt;Node9</title>
<path fill="none" stroke="midnightblue" d="M472.66,-57.54C451.44,-48.63 418.65,-34.86 394.44,-24.7"/>
<polygon fill="midnightblue" stroke="midnightblue" points="395.91,-21.1 385.33,-20.46 393.2,-27.55 395.91,-21.1"/>
</g>
<!-- Node10 -->
<g id="node10" class="node">
<title>Node10</title>
<g id="a_node10"><a xlink:title=" ">
<polygon fill="none" stroke="#bfbfbf" points="805.38,-0.5 805.38,-20.5 844.62,-20.5 844.62,-0.5 805.38,-0.5"/>
<text text-anchor="middle" x="825" y="-7" font-family="Helvetica,sans-Serif" font-size="10.00">limits</text>
</a>
</g>
</g>
<!-- Node8&#45;&gt;Node10 -->
<g id="edge10" class="edge">
<title>Node8&#45;&gt;Node10</title>
<path fill="none" stroke="midnightblue" d="M516.75,-62.72C574.9,-53.06 728.98,-27.46 794.65,-16.54"/>
<polygon fill="midnightblue" stroke="midnightblue" points="795.2,-19.83 804.49,-14.74 794.05,-12.93 795.2,-19.83"/>
</g>
<!-- Node11 -->
<g id="node11" class="node">
<title>Node11</title>
<g id="a_node11"><a xlink:title=" ">
<polygon fill="none" stroke="#bfbfbf" points="501.25,-0.5 501.25,-20.5 554.75,-20.5 554.75,-0.5 501.25,-0.5"/>
<text text-anchor="middle" x="528" y="-7" font-family="Helvetica,sans-Serif" font-size="10.00">numbers</text>
</a>
</g>
</g>
<!-- Node8&#45;&gt;Node11 -->
<g id="edge11" class="edge">
<title>Node8&#45;&gt;Node11</title>
<path fill="none" stroke="midnightblue" d="M499.31,-57.91C504.03,-50.28 511.06,-38.9 516.99,-29.32"/>
<polygon fill="midnightblue" stroke="midnightblue" points="520.33,-31.56 522.61,-21.21 514.38,-27.88 520.33,-31.56"/>
</g>
<!-- Node12 -->
<g id="node12" class="node">
<title>Node12</title>
<g id="a_node12"><a xlink:title=" ">
<polygon fill="none" stroke="#bfbfbf" points="434.88,-0.5 434.88,-20.5 483.12,-20.5 483.12,-0.5 434.88,-0.5"/>
<text text-anchor="middle" x="459" y="-7" font-family="Helvetica,sans-Serif" font-size="10.00">random</text>
</a>
</g>
</g>
<!-- Node8&#45;&gt;Node12 -->
<g id="edge12" class="edge">
<title>Node8&#45;&gt;Node12</title>
<path fill="none" stroke="midnightblue" d="M488.53,-57.91C483.68,-50.28 476.44,-38.9 470.34,-29.32"/>
<polygon fill="midnightblue" stroke="midnightblue" points="472.87,-27.77 464.55,-21.21 466.96,-31.53 472.87,-27.77"/>
</g>
<!-- Node13&#45;&gt;Node14 -->
<g id="edge14" class="edge">
<title>Node13&#45;&gt;Node14</title>
<path fill="none" stroke="midnightblue" d="M95.25,-57.91C100.85,-50.2 109.25,-38.66 116.26,-29.02"/>
<polygon fill="midnightblue" stroke="midnightblue" points="119.61,-31.36 122.66,-21.21 113.95,-27.24 119.61,-31.36"/>
</g>
<!-- Node15&#45;&gt;Node9 -->
<g id="edge17" class="edge">
<title>Node15&#45;&gt;Node9</title>
<path fill="none" stroke="midnightblue" d="M259.2,-57.54C279.19,-48.67 310.05,-34.99 332.93,-24.84"/>
<polygon fill="midnightblue" stroke="midnightblue" points="334.09,-27.71 341.81,-20.46 331.25,-21.31 334.09,-27.71"/>
</g>
<!-- Node15&#45;&gt;Node14 -->
<g id="edge19" class="edge">
<title>Node15&#45;&gt;Node14</title>
<path fill="none" stroke="midnightblue" d="M221.33,-57.66C203.87,-48.94 176.92,-35.46 156.63,-25.31"/>
<polygon fill="midnightblue" stroke="midnightblue" points="158.5,-21.84 147.99,-20.5 155.37,-28.1 158.5,-21.84"/>
</g>
<!-- Node15&#45;&gt;Node16 -->
<g id="edge16" class="edge">
<title>Node15&#45;&gt;Node16</title>
<path fill="none" stroke="midnightblue" d="M243.69,-57.91C247.8,-50.36 253.92,-39.14 259.12,-29.62"/>
<polygon fill="midnightblue" stroke="midnightblue" points="262.53,-31.67 264.25,-21.21 256.39,-28.32 262.53,-31.67"/>
</g>
<!-- Node15&#45;&gt;Node17 -->
<g id="edge18" class="edge">
<title>Node15&#45;&gt;Node17</title>
<path fill="none" stroke="midnightblue" d="M234.16,-57.91C229.9,-50.36 223.58,-39.14 218.21,-29.62"/>
<polygon fill="midnightblue" stroke="midnightblue" points="220.87,-28.21 212.91,-21.21 214.77,-31.65 220.87,-28.21"/>
</g>
<!-- Node20 -->
<g id="node20" class="node">
<title>Node20</title>
<g id="a_node20"><a xlink:href="_engine_exception_8h.html" target="_top" xlink:title=" ">
<polygon fill="none" stroke="black" points="853.12,-171.5 853.12,-191.5 950.88,-191.5 950.88,-171.5 853.12,-171.5"/>
<text text-anchor="middle" x="902" y="-178" font-family="Helvetica,sans-Serif" font-size="10.00">EngineException.h</text>
</a>
</g>
</g>
<!-- Node19&#45;&gt;Node20 -->
<g id="edge26" class="edge">
<title>Node19&#45;&gt;Node20</title>
<path fill="none" stroke="midnightblue" d="M661.11,-285.78C674.79,-271.58 703.92,-243.51 734,-228 754.32,-217.52 809.32,-203.53 850.9,-193.85"/>
<polygon fill="midnightblue" stroke="midnightblue" points="851.47,-197.08 860.42,-191.42 849.89,-190.26 851.47,-197.08"/>
</g>
<!-- Node19&#45;&gt;Node22 -->
<g id="edge28" class="edge">
<title>Node19&#45;&gt;Node22</title>
<path fill="none" stroke="midnightblue" d="M632.9,-285.63C614.76,-277.26 587.68,-263.8 566,-249 516.78,-215.41 465.62,-167 440.26,-141.93"/>
<polygon fill="midnightblue" stroke="midnightblue" points="443.25,-139.97 433.69,-135.38 438.3,-144.92 443.25,-139.97"/>
</g>
<!-- Node23 -->
<g id="node23" class="node">
<title>Node23</title>
<g id="a_node23"><a xlink:href="_g_d_i_plus_manager_8h.html" target="_top" xlink:title=" ">
<polygon fill="none" stroke="black" points="811.12,-228.5 811.12,-248.5 908.88,-248.5 908.88,-228.5 811.12,-228.5"/>
<text text-anchor="middle" x="860" y="-235" font-family="Helvetica,sans-Serif" font-size="10.00">GDIPlusManager.h</text>
</a>
</g>
</g>
<!-- Node19&#45;&gt;Node23 -->
<g id="edge35" class="edge">
<title>Node19&#45;&gt;Node23</title>
<path fill="none" stroke="midnightblue" d="M684.44,-286.15C719.46,-276.84 776.32,-261.73 815.81,-251.24"/>
<polygon fill="midnightblue" stroke="midnightblue" points="816.43,-254.43 825.2,-248.48 814.63,-247.67 816.43,-254.43"/>
</g>
<!-- Node27 -->
<g id="node27" class="node">
<title>Node27</title>
<g id="a_node27"><a xlink:href="_surface_8h.html" target="_top" xlink:title=" ">
<polygon fill="none" stroke="black" points="629.38,-228.5 629.38,-248.5 686.62,-248.5 686.62,-228.5 629.38,-228.5"/>
<text text-anchor="middle" x="658" y="-235" font-family="Helvetica,sans-Serif" font-size="10.00">Surface.h</text>
</a>
</g>
</g>
<!-- Node19&#45;&gt;Node27 -->
<g id="edge39" class="edge">
<title>Node19&#45;&gt;Node27</title>
<path fill="none" stroke="midnightblue" d="M653.78,-285.91C654.43,-278.76 655.38,-268.32 656.21,-259.15"/>
<polygon fill="midnightblue" stroke="midnightblue" points="659.79,-259.49 657.21,-249.21 652.82,-258.86 659.79,-259.49"/>
</g>
<!-- Node32 -->
<g id="node32" class="node">
<title>Node32</title>
<g id="a_node32"><a xlink:title=" ">
<polygon fill="none" stroke="#bfbfbf" points="742.75,-228.5 742.75,-248.5 793.25,-248.5 793.25,-228.5 742.75,-228.5"/>
<text text-anchor="middle" x="768" y="-235" font-family="Helvetica,sans-Serif" font-size="10.00">d3d11.h</text>
</a>
</g>
</g>
<!-- Node19&#45;&gt;Node32 -->
<g id="edge48" class="edge">
<title>Node19&#45;&gt;Node32</title>
<path fill="none" stroke="midnightblue" d="M671.73,-285.54C690.11,-276.75 718.38,-263.23 739.53,-253.11"/>
<polygon fill="midnightblue" stroke="midnightblue" points="740.76,-255.93 748.28,-248.46 737.74,-249.61 740.76,-255.93"/>
</g>
<!-- Node33 -->
<g id="node33" class="node">
<title>Node33</title>
<g id="a_node33"><a xlink:title=" ">
<polygon fill="none" stroke="#bfbfbf" points="574.88,-228.5 574.88,-248.5 611.12,-248.5 611.12,-228.5 574.88,-228.5"/>
<text text-anchor="middle" x="593" y="-235" font-family="Helvetica,sans-Serif" font-size="10.00">wrl.h</text>
</a>
</g>
</g>
<!-- Node19&#45;&gt;Node33 -->
<g id="edge49" class="edge">
<title>Node19&#45;&gt;Node33</title>
<path fill="none" stroke="midnightblue" d="M643.36,-285.66C634.58,-277.61 621.39,-265.52 610.71,-255.73"/>
<polygon fill="midnightblue" stroke="midnightblue" points="613.55,-253.67 603.82,-249.5 608.82,-258.83 613.55,-253.67"/>
</g>
<!-- Node20&#45;&gt;Node21 -->
<g id="edge27" class="edge">
<title>Node20&#45;&gt;Node21</title>
<path fill="none" stroke="midnightblue" d="M854.11,-171.54C793.15,-160.14 689.62,-140.77 638.46,-131.2"/>
<polygon fill="midnightblue" stroke="midnightblue" points="639.27,-127.6 628.8,-129.2 637.98,-134.48 639.27,-127.6"/>
</g>
<!-- Node22&#45;&gt;Node8 -->
<g id="edge29" class="edge">
<title>Node22&#45;&gt;Node8</title>
<path fill="none" stroke="midnightblue" d="M435.25,-114.66C445.7,-106.45 461.49,-94.04 474.08,-84.15"/>
<polygon fill="midnightblue" stroke="midnightblue" points="475.85,-86.43 481.55,-77.5 471.52,-80.92 475.85,-86.43"/>
</g>
<!-- Node22&#45;&gt;Node14 -->
<g id="edge32" class="edge">
<title>Node22&#45;&gt;Node14</title>
<path fill="none" stroke="midnightblue" d="M416.61,-114.56C404.09,-100.05 377.19,-71.53 348,-57 347.49,-56.74 228.18,-32.03 165.9,-19.14"/>
<polygon fill="midnightblue" stroke="midnightblue" points="166.84,-15.55 156.34,-16.95 165.42,-22.4 166.84,-15.55"/>
</g>
<!-- Node22&#45;&gt;Node15 -->
<g id="edge30" class="edge">
<title>Node22&#45;&gt;Node15</title>
<path fill="none" stroke="midnightblue" d="M393.86,-114.54C362.04,-105.08 311.78,-90.14 277.19,-79.85"/>
<polygon fill="midnightblue" stroke="midnightblue" points="278.58,-76.32 268,-76.82 276.59,-83.03 278.58,-76.32"/>
</g>
<!-- Node22&#45;&gt;Node16 -->
<g id="edge31" class="edge">
<title>Node22&#45;&gt;Node16</title>
<path fill="none" stroke="midnightblue" d="M426.2,-114.62C429.08,-100.7 432.32,-73.62 419,-57 403.9,-38.16 337.64,-23.57 298.41,-16.4"/>
<polygon fill="midnightblue" stroke="midnightblue" points="299.12,-12.79 288.66,-14.49 297.9,-19.68 299.12,-12.79"/>
</g>
<!-- Node22&#45;&gt;Node17 -->
<g id="edge34" class="edge">
<title>Node22&#45;&gt;Node17</title>
<path fill="none" stroke="midnightblue" d="M420.77,-114.66C415.05,-100.28 401.75,-71.95 381,-57 331.52,-21.36 305.68,-36.16 241.97,-21.03"/>
<polygon fill="midnightblue" stroke="midnightblue" points="242.97,-17.41 232.41,-18.33 241.23,-24.2 242.97,-17.41"/>
</g>
<!-- Node22&#45;&gt;Node18 -->
<g id="edge33" class="edge">
<title>Node22&#45;&gt;Node18</title>
<path fill="none" stroke="midnightblue" d="M406.01,-114.66C388.23,-105.94 360.79,-92.46 340.13,-82.31"/>
<polygon fill="midnightblue" stroke="midnightblue" points="341.84,-78.76 331.32,-77.5 338.76,-85.05 341.84,-78.76"/>
</g>
<!-- Node24 -->
<g id="node24" class="node">
<title>Node24</title>
<g id="a_node24"><a xlink:href="_win_8h.html" target="_top" xlink:title=" ">
<polygon fill="none" stroke="black" points="969.25,-171.5 969.25,-191.5 1010.75,-191.5 1010.75,-171.5 969.25,-171.5"/>
<text text-anchor="middle" x="990" y="-178" font-family="Helvetica,sans-Serif" font-size="10.00">Win.h</text>
</a>
</g>
</g>
<!-- Node23&#45;&gt;Node24 -->
<g id="edge36" class="edge">
<title>Node23&#45;&gt;Node24</title>
<path fill="none" stroke="midnightblue" d="M881.18,-228.54C902.36,-219.58 935.17,-205.7 959.22,-195.52"/>
<polygon fill="midnightblue" stroke="midnightblue" points="960.42,-198.39 968.26,-191.27 957.69,-191.95 960.42,-198.39"/>
</g>
<!-- Node25 -->
<g id="node25" class="node">
<title>Node25</title>
<g id="a_node25"><a xlink:title=" ">
<polygon fill="none" stroke="#bfbfbf" points="866.12,-114.5 866.12,-134.5 933.88,-134.5 933.88,-114.5 866.12,-114.5"/>
<text text-anchor="middle" x="900" y="-121" font-family="Helvetica,sans-Serif" font-size="10.00">sdkddkver.h</text>
</a>
</g>
</g>
<!-- Node24&#45;&gt;Node25 -->
<g id="edge37" class="edge">
<title>Node24&#45;&gt;Node25</title>
<path fill="none" stroke="midnightblue" d="M975.54,-171.66C961.58,-163.13 940.21,-150.07 923.75,-140.01"/>
<polygon fill="midnightblue" stroke="midnightblue" points="926.08,-136.73 915.72,-134.5 922.43,-142.7 926.08,-136.73"/>
</g>
<!-- Node26 -->
<g id="node26" class="node">
<title>Node26</title>
<g id="a_node26"><a xlink:title=" ">
<polygon fill="none" stroke="#bfbfbf" points="952,-114.5 952,-134.5 1016,-134.5 1016,-114.5 952,-114.5"/>
<text text-anchor="middle" x="984" y="-121" font-family="Helvetica,sans-Serif" font-size="10.00">Windows.h</text>
</a>
</g>
</g>
<!-- Node24&#45;&gt;Node26 -->
<g id="edge38" class="edge">
<title>Node24&#45;&gt;Node26</title>
<path fill="none" stroke="midnightblue" d="M989.06,-171.91C988.27,-164.68 987.12,-154.09 986.11,-144.85"/>
<polygon fill="midnightblue" stroke="midnightblue" points="989.51,-144.78 984.95,-135.21 982.56,-145.54 989.51,-144.78"/>
</g>
<!-- Node27&#45;&gt;Node20 -->
<g id="edge43" class="edge">
<title>Node27&#45;&gt;Node20</title>
<path fill="none" stroke="midnightblue" d="M686.47,-231.08C726.99,-221.95 801.92,-205.06 851.87,-193.8"/>
<polygon fill="midnightblue" stroke="midnightblue" points="852.45,-197.03 861.44,-191.42 850.91,-190.2 852.45,-197.03"/>
</g>
<!-- Node27&#45;&gt;Node21 -->
<g id="edge46" class="edge">
<title>Node27&#45;&gt;Node21</title>
<path fill="none" stroke="midnightblue" d="M650.67,-228.61C643.71,-219.8 633.41,-205.68 627,-192 619.91,-176.86 614.91,-158.52 611.83,-144.94"/>
<polygon fill="midnightblue" stroke="midnightblue" points="615.1,-144.49 609.6,-135.43 608.25,-145.94 615.1,-144.49"/>
</g>
<!-- Node27&#45;&gt;Node24 -->
<g id="edge40" class="edge">
<title>Node27&#45;&gt;Node24</title>
<path fill="none" stroke="midnightblue" d="M686.16,-233.83C747.34,-225.78 891.64,-206.29 958.96,-191.84"/>
<polygon fill="midnightblue" stroke="midnightblue" points="959.47,-195.08 968.46,-189.47 957.94,-188.25 959.47,-195.08"/>
</g>
<!-- Node28 -->
<g id="node28" class="node">
<title>Node28</title>
<g id="a_node28"><a xlink:href="_colors_8h.html" target="_top" xlink:title=" ">
<polygon fill="none" stroke="black" points="528,-171.5 528,-191.5 580,-191.5 580,-171.5 528,-171.5"/>
<text text-anchor="middle" x="554" y="-178" font-family="Helvetica,sans-Serif" font-size="10.00">Colors.h</text>
</a>
</g>
</g>
<!-- Node27&#45;&gt;Node28 -->
<g id="edge41" class="edge">
<title>Node27&#45;&gt;Node28</title>
<path fill="none" stroke="midnightblue" d="M641.29,-228.66C624.94,-220.01 599.77,-206.7 580.65,-196.59"/>
<polygon fill="midnightblue" stroke="midnightblue" points="582.49,-193.08 572.01,-191.5 579.22,-199.27 582.49,-193.08"/>
</g>
<!-- Node29 -->
<g id="node29" class="node">
<title>Node29</title>
<g id="a_node29"><a xlink:title=" ">
<polygon fill="none" stroke="#bfbfbf" points="636.38,-171.5 636.38,-191.5 687.62,-191.5 687.62,-171.5 636.38,-171.5"/>
<text text-anchor="middle" x="662" y="-178" font-family="Helvetica,sans-Serif" font-size="10.00">assert.h</text>
</a>
</g>
</g>
<!-- Node27&#45;&gt;Node29 -->
<g id="edge44" class="edge">
<title>Node27&#45;&gt;Node29</title>
<path fill="none" stroke="midnightblue" d="M658.62,-228.91C659.14,-221.76 659.9,-211.32 660.57,-202.15"/>
<polygon fill="midnightblue" stroke="midnightblue" points="664.13,-202.44 661.37,-192.21 657.15,-201.93 664.13,-202.44"/>
</g>
<!-- Node30 -->
<g id="node30" class="node">
<title>Node30</title>
<g id="a_node30"><a xlink:title=" ">
<polygon fill="none" stroke="#bfbfbf" points="705.38,-171.5 705.38,-191.5 756.62,-191.5 756.62,-171.5 705.38,-171.5"/>
<text text-anchor="middle" x="731" y="-178" font-family="Helvetica,sans-Serif" font-size="10.00">memory</text>
</a>
</g>
</g>
<!-- Node27&#45;&gt;Node30 -->
<g id="edge45" class="edge">
<title>Node27&#45;&gt;Node30</title>
<path fill="none" stroke="midnightblue" d="M669.73,-228.66C680.73,-220.37 697.42,-207.8 710.6,-197.87"/>
<polygon fill="midnightblue" stroke="midnightblue" points="712.18,-200.31 718.06,-191.5 707.96,-194.72 712.18,-200.31"/>
</g>
<!-- Node31 -->
<g id="node31" class="node">
<title>Node31</title>
<g id="a_node31"><a xlink:title=" ">
<polygon fill="none" stroke="#bfbfbf" points="774.88,-171.5 774.88,-191.5 835.12,-191.5 835.12,-171.5 774.88,-171.5"/>
<text text-anchor="middle" x="805" y="-178" font-family="Helvetica,sans-Serif" font-size="10.00">filesystem</text>
</a>
</g>
</g>
<!-- Node27&#45;&gt;Node31 -->
<g id="edge47" class="edge">
<title>Node27&#45;&gt;Node31</title>
<path fill="none" stroke="midnightblue" d="M681.95,-228.54C706.08,-219.51 743.55,-205.49 770.81,-195.29"/>
<polygon fill="midnightblue" stroke="midnightblue" points="771.93,-198.24 780.06,-191.46 769.47,-191.68 771.93,-198.24"/>
</g>
<!-- Node28&#45;&gt;Node22 -->
<g id="edge42" class="edge">
<title>Node28&#45;&gt;Node22</title>
<path fill="none" stroke="midnightblue" d="M532.82,-171.54C511.77,-162.63 479.22,-148.86 455.2,-138.7"/>
<polygon fill="midnightblue" stroke="midnightblue" points="456.74,-135.13 446.17,-134.46 454.01,-141.58 456.74,-135.13"/>
</g>
<!-- Node34&#45;&gt;Node7 -->
<g id="edge55" class="edge">
<title>Node34&#45;&gt;Node7</title>
<path fill="none" stroke="midnightblue" d="M76.57,-228.89C80.36,-216.2 87.68,-191.76 94,-171 96.65,-162.29 99.61,-152.66 102.12,-144.51"/>
<polygon fill="midnightblue" stroke="midnightblue" points="105.69,-145.81 105.3,-135.22 99,-143.74 105.69,-145.81"/>
</g>
<!-- Node34&#45;&gt;Node22 -->
<g id="edge56" class="edge">
<title>Node34&#45;&gt;Node22</title>
<path fill="none" stroke="midnightblue" d="M90.51,-228.67C122.63,-211.53 191.42,-175.09 203,-171 251.97,-153.71 309.48,-142.12 353.56,-134.97"/>
<polygon fill="midnightblue" stroke="midnightblue" points="353.85,-138.31 363.18,-133.29 352.76,-131.4 353.85,-138.31"/>
</g>
<!-- Node35 -->
<g id="node35" class="node">
<title>Node35</title>
<g id="a_node35"><a xlink:href="_indexed_triangle_list_8h.html" target="_top" xlink:title=" ">
<polygon fill="none" stroke="black" points="212.25,-171.5 212.25,-191.5 319.75,-191.5 319.75,-171.5 212.25,-171.5"/>
<text text-anchor="middle" x="266" y="-178" font-family="Helvetica,sans-Serif" font-size="10.00">IndexedTriangleList.h</text>
</a>
</g>
</g>
<!-- Node34&#45;&gt;Node35 -->
<g id="edge52" class="edge">
<title>Node34&#45;&gt;Node35</title>
<path fill="none" stroke="midnightblue" d="M105.28,-228.54C137.77,-219.23 188.79,-204.62 224.61,-194.36"/>
<polygon fill="midnightblue" stroke="midnightblue" points="225.09,-197.57 233.74,-191.46 223.16,-190.84 225.09,-197.57"/>
</g>
<!-- Node35&#45;&gt;Node22 -->
<g id="edge53" class="edge">
<title>Node35&#45;&gt;Node22</title>
<path fill="none" stroke="midnightblue" d="M291.74,-171.54C317.9,-162.43 358.67,-148.24 388.02,-138.02"/>
<polygon fill="midnightblue" stroke="midnightblue" points="388.98,-141.05 397.27,-134.46 386.68,-134.44 388.98,-141.05"/>
</g>
<!-- Node36 -->
<g id="node36" class="node">
<title>Node36</title>
<g id="a_node36"><a xlink:title=" ">
<polygon fill="none" stroke="#bfbfbf" points="245.25,-114.5 245.25,-134.5 286.75,-134.5 286.75,-114.5 245.25,-114.5"/>
<text text-anchor="middle" x="266" y="-121" font-family="Helvetica,sans-Serif" font-size="10.00">vector</text>
</a>
</g>
</g>
<!-- Node35&#45;&gt;Node36 -->
<g id="edge54" class="edge">
<title>Node35&#45;&gt;Node36</title>
<path fill="none" stroke="midnightblue" d="M266,-171.91C266,-164.76 266,-154.32 266,-145.15"/>
<polygon fill="midnightblue" stroke="midnightblue" points="269.5,-145.21 266,-135.21 262.5,-145.21 269.5,-145.21"/>
</g>
<!-- Node37&#45;&gt;Node15 -->
<g id="edge67" class="edge">
<title>Node37&#45;&gt;Node15</title>
<path fill="none" stroke="midnightblue" d="M531.85,-406.55C499.42,-402.92 447.23,-392.57 414,-363 322.51,-281.6 375.92,-206.8 296,-114 286.06,-102.46 272.87,-91.71 261.69,-83.57"/>
<polygon fill="midnightblue" stroke="midnightblue" points="264.07,-80.26 253.88,-77.38 260.04,-85.99 264.07,-80.26"/>
</g>
<!-- Node37&#45;&gt;Node19 -->
<g id="edge61" class="edge">
<title>Node37&#45;&gt;Node19</title>
<path fill="none" stroke="midnightblue" d="M583.94,-399.54C600.17,-392.08 621.24,-379.93 634,-363 644.39,-349.22 649.1,-329.94 651.24,-315.69"/>
<polygon fill="midnightblue" stroke="midnightblue" points="654.79,-316.48 652.49,-306.14 647.84,-315.65 654.79,-316.48"/>
</g>
<!-- Node37&#45;&gt;Node24 -->
<g id="edge60" class="edge">
<title>Node37&#45;&gt;Node24</title>
<path fill="none" stroke="midnightblue" d="M590.33,-401.06C593.58,-400.32 596.85,-399.62 600,-399 705.4,-378.27 745.35,-415.61 839,-363 909.03,-323.66 960.55,-238.29 980.69,-200.79"/>
<polygon fill="midnightblue" stroke="midnightblue" points="984.19,-202.66 985.73,-192.18 977.99,-199.41 984.19,-202.66"/>
</g>
<!-- Node37&#45;&gt;Node35 -->
<g id="edge63" class="edge">
<title>Node37&#45;&gt;Node35</title>
<path fill="none" stroke="midnightblue" d="M531.82,-408.34C491.97,-406.71 419.99,-398.58 372,-363 315.37,-321.01 283.69,-239 271.67,-201.74"/>
<polygon fill="midnightblue" stroke="midnightblue" points="274.75,-200.85 268.46,-192.33 268.06,-202.91 274.75,-200.85"/>
</g>
<!-- Node38 -->
<g id="node38" class="node">
<title>Node38</title>
<g id="a_node38"><a xlink:href="_triangle_8h.html" target="_top" xlink:title=" ">
<polygon fill="none" stroke="black" points="965,-342.5 965,-362.5 1023,-362.5 1023,-342.5 965,-342.5"/>
<text text-anchor="middle" x="994" y="-349" font-family="Helvetica,sans-Serif" font-size="10.00">Triangle.h</text>
</a>
</g>
</g>
<!-- Node37&#45;&gt;Node38 -->
<g id="edge62" class="edge">
<title>Node37&#45;&gt;Node38</title>
<path fill="none" stroke="midnightblue" d="M590.3,-400.91C593.56,-400.2 596.84,-399.54 600,-399 754.54,-372.38 796.18,-387.96 951,-363 952.32,-362.79 953.65,-362.56 955,-362.32"/>
<polygon fill="midnightblue" stroke="midnightblue" points="955.26,-365.64 964.41,-360.3 953.92,-358.77 955.26,-365.64"/>
</g>
<!-- Node39 -->
<g id="node39" class="node">
<title>Node39</title>
<g id="a_node39"><a xlink:href="_pube_screen_transformer_8h.html" target="_top" xlink:title=" ">
<polygon fill="none" stroke="black" points="496.75,-342.5 496.75,-362.5 625.25,-362.5 625.25,-342.5 496.75,-342.5"/>
<text text-anchor="middle" x="561" y="-349" font-family="Helvetica,sans-Serif" font-size="10.00">PubeScreenTransformer.h</text>
</a>
</g>
</g>
<!-- Node37&#45;&gt;Node39 -->
<g id="edge64" class="edge">
<title>Node37&#45;&gt;Node39</title>
<path fill="none" stroke="midnightblue" d="M561,-399.91C561,-392.76 561,-382.32 561,-373.15"/>
<polygon fill="midnightblue" stroke="midnightblue" points="564.5,-373.21 561,-363.21 557.5,-373.21 564.5,-373.21"/>
</g>
<!-- Node40 -->
<g id="node40" class="node">
<title>Node40</title>
<g id="a_node40"><a xlink:href="_z_buffer_8h.html" target="_top" xlink:title=" ">
<polygon fill="none" stroke="black" points="775.88,-342.5 775.88,-362.5 830.12,-362.5 830.12,-342.5 775.88,-342.5"/>
<text text-anchor="middle" x="803" y="-349" font-family="Helvetica,sans-Serif" font-size="10.00">ZBuffer.h</text>
</a>
</g>
</g>
<!-- Node37&#45;&gt;Node40 -->
<g id="edge68" class="edge">
<title>Node37&#45;&gt;Node40</title>
<path fill="none" stroke="midnightblue" d="M590.37,-401.28C593.62,-400.5 596.88,-399.73 600,-399 657.67,-385.52 724.74,-370.64 765.51,-361.69"/>
<polygon fill="midnightblue" stroke="midnightblue" points="766.02,-364.94 775.04,-359.38 764.52,-358.1 766.02,-364.94"/>
</g>
<!-- Node42 -->
<g id="node42" class="node">
<title>Node42</title>
<g id="a_node42"><a xlink:title=" ">
<polygon fill="none" stroke="#bfbfbf" points="423.12,-342.5 423.12,-362.5 478.88,-362.5 478.88,-342.5 423.12,-342.5"/>
<text text-anchor="middle" x="451" y="-349" font-family="Helvetica,sans-Serif" font-size="10.00">algorithm</text>
</a>
</g>
</g>
<!-- Node37&#45;&gt;Node42 -->
<g id="edge71" class="edge">
<title>Node37&#45;&gt;Node42</title>
<path fill="none" stroke="midnightblue" d="M543.33,-399.66C525.87,-390.94 498.92,-377.46 478.63,-367.31"/>
<polygon fill="midnightblue" stroke="midnightblue" points="480.5,-363.84 469.99,-362.5 477.37,-370.1 480.5,-363.84"/>
</g>
<!-- Node39&#45;&gt;Node19 -->
<g id="edge65" class="edge">
<title>Node39&#45;&gt;Node19</title>
<path fill="none" stroke="midnightblue" d="M575.78,-342.66C590.05,-334.13 611.9,-321.07 628.72,-311.01"/>
<polygon fill="midnightblue" stroke="midnightblue" points="630.16,-313.63 636.95,-305.5 626.57,-307.62 630.16,-313.63"/>
</g>
<!-- Node39&#45;&gt;Node22 -->
<g id="edge66" class="edge">
<title>Node39&#45;&gt;Node22</title>
<path fill="none" stroke="midnightblue" d="M555.63,-342.64C535.25,-309.02 462.47,-188.95 434.79,-143.29"/>
<polygon fill="midnightblue" stroke="midnightblue" points="437.36,-141.79 429.19,-135.06 431.38,-145.42 437.36,-141.79"/>
</g>
<!-- Node40&#45;&gt;Node10 -->
<g id="edge69" class="edge">
<title>Node40&#45;&gt;Node10</title>
<path fill="none" stroke="midnightblue" d="M829.71,-351.13C892.46,-348.71 1044,-333.16 1044,-239.5 1044,-239.5 1044,-239.5 1044,-123.5 1044,-39.65 915.17,-18.54 855.13,-13.25"/>
<polygon fill="midnightblue" stroke="midnightblue" points="855.68,-9.71 845.43,-12.41 855.13,-16.68 855.68,-9.71"/>
</g>
<!-- Node41 -->
<g id="node41" class="node">
<title>Node41</title>
<g id="a_node41"><a xlink:title=" ">
<polygon fill="none" stroke="#bfbfbf" points="778.88,-285.5 778.88,-305.5 827.12,-305.5 827.12,-285.5 778.88,-285.5"/>
<text text-anchor="middle" x="803" y="-292" font-family="Helvetica,sans-Serif" font-size="10.00">cassert</text>
</a>
</g>
</g>
<!-- Node40&#45;&gt;Node41 -->
<g id="edge70" class="edge">
<title>Node40&#45;&gt;Node41</title>
<path fill="none" stroke="midnightblue" d="M803,-342.91C803,-335.76 803,-325.32 803,-316.15"/>
<polygon fill="midnightblue" stroke="midnightblue" points="806.5,-316.21 803,-306.21 799.5,-316.21 806.5,-316.21"/>
</g>
<!-- Node43&#45;&gt;Node37 -->
<g id="edge73" class="edge">
<title>Node43&#45;&gt;Node37</title>
<path fill="none" stroke="midnightblue" d="M613.04,-456.66C603.96,-448.61 590.33,-436.52 579.3,-426.73"/>
<polygon fill="midnightblue" stroke="midnightblue" points="581.95,-424.52 572.14,-420.5 577.3,-429.75 581.95,-424.52"/>
</g>
<!-- Node44 -->
<g id="node44" class="node">
<title>Node44</title>
<g id="a_node44"><a xlink:href="_default_vertex_shader_8h.html" target="_top" xlink:title=" ">
<polygon fill="none" stroke="black" points="608.75,-399.5 608.75,-419.5 761.25,-419.5 761.25,-399.5 608.75,-399.5"/>
<text text-anchor="middle" x="685" y="-406" font-family="Helvetica,sans-Serif" font-size="10.00">Shaders/DefaultVertexShader.h</text>
</a>
</g>
</g>
<!-- Node43&#45;&gt;Node44 -->
<g id="edge74" class="edge">
<title>Node43&#45;&gt;Node44</title>
<path fill="none" stroke="midnightblue" d="M632.96,-456.66C642.04,-448.61 655.67,-436.52 666.7,-426.73"/>
<polygon fill="midnightblue" stroke="midnightblue" points="668.7,-429.75 673.86,-420.5 664.05,-424.52 668.7,-429.75"/>
</g>
<!-- Node45 -->
<g id="node45" class="node">
<title>Node45</title>
<g id="a_node45"><a xlink:href="_default_geometry_shader_8h.html" target="_top" xlink:title=" ">
<polygon fill="none" stroke="black" points="846.62,-399.5 846.62,-419.5 1013.38,-419.5 1013.38,-399.5 846.62,-399.5"/>
<text text-anchor="middle" x="930" y="-406" font-family="Helvetica,sans-Serif" font-size="10.00">Shaders/DefaultGeometryShader.h</text>
</a>
</g>
</g>
<!-- Node43&#45;&gt;Node45 -->
<g id="edge75" class="edge">
<title>Node43&#45;&gt;Node45</title>
<path fill="none" stroke="midnightblue" d="M673.01,-456.54C726.64,-446.93 811.82,-431.67 869.27,-421.38"/>
<polygon fill="midnightblue" stroke="midnightblue" points="869.79,-424.66 879.01,-419.46 868.55,-417.77 869.79,-424.66"/>
</g>
<!-- Node45&#45;&gt;Node38 -->
<g id="edge76" class="edge">
<title>Node45&#45;&gt;Node38</title>
<path fill="none" stroke="midnightblue" d="M940.28,-399.66C949.74,-391.53 964,-379.28 975.45,-369.44"/>
<polygon fill="midnightblue" stroke="midnightblue" points="977.23,-371.67 982.53,-362.5 972.66,-366.36 977.23,-371.67"/>
</g>
</g>
</svg>
