<?xml version="1.0" encoding="UTF-8" standalone="no"?>
<!DOCTYPE svg PUBLIC "-//W3C//DTD SVG 1.1//EN"
 "http://www.w3.org/Graphics/SVG/1.1/DTD/svg11.dtd">
<!-- Generated by graphviz version 8.1.0 (20230707.0739)
 -->
<!-- Title: include/Scenes/CubeFlatIndependentScene.h Pages: 1 -->
<svg width="1389pt" height="554pt"
 viewBox="0.00 0.00 1388.88 554.00" xmlns="http://www.w3.org/2000/svg" xmlns:xlink="http://www.w3.org/1999/xlink">
<g id="graph0" class="graph" transform="scale(1 1) rotate(0) translate(4 550)">
<title>include/Scenes/CubeFlatIndependentScene.h</title>
<!-- Node1 -->
<g id="node1" class="node">
<title>Node1</title>
<g id="a_node1"><a xlink:title=" ">
<polygon fill="#bfbfbf" stroke="black" points="783.12,-513.5 783.12,-545.5 960.38,-545.5 960.38,-513.5 783.12,-513.5"/>
<text text-anchor="start" x="791.12" y="-532" font-family="Helvetica,sans-Serif" font-size="10.00">include/Scenes/CubeFlatIndependent</text>
<text text-anchor="middle" x="871.75" y="-520" font-family="Helvetica,sans-Serif" font-size="10.00">Scene.h</text>
</a>
</g>
</g>
<!-- Node2 -->
<g id="node2" class="node">
<title>Node2</title>
<g id="a_node2"><a xlink:href="_scene_8h.html" target="_top" xlink:title=" ">
<polygon fill="none" stroke="black" points="395.75,-342.5 395.75,-362.5 447.75,-362.5 447.75,-342.5 395.75,-342.5"/>
<text text-anchor="middle" x="421.75" y="-349" font-family="Helvetica,sans-Serif" font-size="10.00">Scene.h</text>
</a>
</g>
</g>
<!-- Node1&#45;&gt;Node2 -->
<g id="edge1" class="edge">
<title>Node1&#45;&gt;Node2</title>
<path fill="none" stroke="midnightblue" d="M783.18,-528.2C677.53,-526.03 509.21,-516.27 461.75,-477 430.59,-451.22 423.46,-400.9 421.98,-373.11"/>
<polygon fill="midnightblue" stroke="midnightblue" points="425.46,-373.29 421.64,-363.41 418.46,-373.51 425.46,-373.29"/>
</g>
<!-- Node15 -->
<g id="node13" class="node">
<title>Node15</title>
<g id="a_node13"><a xlink:href="_matrix3_8h.html" target="_top" xlink:title=" ">
<polygon fill="none" stroke="black" points="347.5,-57.5 347.5,-77.5 404,-77.5 404,-57.5 347.5,-57.5"/>
<text text-anchor="middle" x="375.75" y="-64" font-family="Helvetica,sans-Serif" font-size="10.00">Matrix3.h</text>
</a>
</g>
</g>
<!-- Node1&#45;&gt;Node15 -->
<g id="edge67" class="edge">
<title>Node1&#45;&gt;Node15</title>
<path fill="none" stroke="midnightblue" d="M871.75,-513.6C871.75,-491.21 871.75,-447.58 871.75,-410.5 871.75,-410.5 871.75,-410.5 871.75,-180.5 871.75,-149.76 876.44,-133.59 852.75,-114 783.63,-56.85 539.92,-87.64 450.75,-78 438.98,-76.73 426.2,-75.17 414.58,-73.69"/>
<polygon fill="midnightblue" stroke="midnightblue" points="415.22,-70.12 404.86,-72.31 414.33,-77.06 415.22,-70.12"/>
</g>
<!-- Node35 -->
<g id="node33" class="node">
<title>Node35</title>
<g id="a_node33"><a xlink:href="_cube_8h.html" target="_top" xlink:title=" ">
<polygon fill="none" stroke="black" points="278.88,-285.5 278.88,-305.5 370.62,-305.5 370.62,-285.5 278.88,-285.5"/>
<text text-anchor="middle" x="324.75" y="-292" font-family="Helvetica,sans-Serif" font-size="10.00">Primitives/Cube.h</text>
</a>
</g>
</g>
<!-- Node1&#45;&gt;Node35 -->
<g id="edge50" class="edge">
<title>Node1&#45;&gt;Node35</title>
<path fill="none" stroke="midnightblue" d="M841.18,-513.61C773.02,-480.68 603.08,-399.96 456.75,-342 425.75,-329.72 389.96,-317.5 363.47,-308.82"/>
<polygon fill="midnightblue" stroke="midnightblue" points="364.68,-305.21 354.09,-305.45 362.51,-311.87 364.68,-305.21"/>
</g>
<!-- Node47 -->
<g id="node44" class="node">
<title>Node47</title>
<g id="a_node44"><a xlink:href="_pipeline_8h.html" target="_top" xlink:title=" ">
<polygon fill="none" stroke="black" points="899.38,-399.5 899.38,-419.5 958.12,-419.5 958.12,-399.5 899.38,-399.5"/>
<text text-anchor="middle" x="928.75" y="-406" font-family="Helvetica,sans-Serif" font-size="10.00">Pipeline.h</text>
</a>
</g>
</g>
<!-- Node1&#45;&gt;Node47 -->
<g id="edge68" class="edge">
<title>Node1&#45;&gt;Node47</title>
<path fill="none" stroke="midnightblue" d="M878.97,-513.56C889.37,-492.03 908.54,-452.34 919.81,-429"/>
<polygon fill="midnightblue" stroke="midnightblue" points="923.31,-430.8 924.51,-420.27 917.01,-427.76 923.31,-430.8"/>
</g>
<!-- Node51 -->
<g id="node48" class="node">
<title>Node51</title>
<g id="a_node48"><a xlink:href="_vertex_flat_effect_8h.html" target="_top" xlink:title=" ">
<polygon fill="none" stroke="black" points="968.25,-456.5 968.25,-476.5 1095.25,-476.5 1095.25,-456.5 968.25,-456.5"/>
<text text-anchor="middle" x="1031.75" y="-463" font-family="Helvetica,sans-Serif" font-size="10.00">Effects/VertexFlatEffect.h</text>
</a>
</g>
</g>
<!-- Node1&#45;&gt;Node51 -->
<g id="edge81" class="edge">
<title>Node1&#45;&gt;Node51</title>
<path fill="none" stroke="midnightblue" d="M910.89,-513.58C937.6,-503.39 972.63,-490.04 998.09,-480.33"/>
<polygon fill="midnightblue" stroke="midnightblue" points="999.27,-483.25 1007.37,-476.42 996.77,-476.71 999.27,-483.25"/>
</g>
<!-- Node3 -->
<g id="node3" class="node">
<title>Node3</title>
<g id="a_node3"><a xlink:href="_keyboard_8h.html" target="_top" xlink:title=" ">
<polygon fill="none" stroke="black" points="72,-285.5 72,-305.5 137.5,-305.5 137.5,-285.5 72,-285.5"/>
<text text-anchor="middle" x="104.75" y="-292" font-family="Helvetica,sans-Serif" font-size="10.00">Keyboard.h</text>
</a>
</g>
</g>
<!-- Node2&#45;&gt;Node3 -->
<g id="edge2" class="edge">
<title>Node2&#45;&gt;Node3</title>
<path fill="none" stroke="midnightblue" d="M395.81,-347C341.32,-337.55 214.5,-315.54 147.69,-303.95"/>
<polygon fill="midnightblue" stroke="midnightblue" points="148.56,-300.38 138.11,-302.12 147.37,-307.27 148.56,-300.38"/>
</g>
<!-- Node6 -->
<g id="node6" class="node">
<title>Node6</title>
<g id="a_node6"><a xlink:href="_mouse_8h.html" target="_top" xlink:title=" ">
<polygon fill="none" stroke="black" points="0,-285.5 0,-305.5 53.5,-305.5 53.5,-285.5 0,-285.5"/>
<text text-anchor="middle" x="26.75" y="-292" font-family="Helvetica,sans-Serif" font-size="10.00">Mouse.h</text>
</a>
</g>
</g>
<!-- Node2&#45;&gt;Node6 -->
<g id="edge5" class="edge">
<title>Node2&#45;&gt;Node6</title>
<path fill="none" stroke="midnightblue" d="M395.88,-349.4C338.14,-344.47 194.25,-330.79 63.95,-305.99"/>
<polygon fill="midnightblue" stroke="midnightblue" points="64.88,-302.41 54.4,-303.95 63.55,-309.28 64.88,-302.41"/>
</g>
<!-- Node19 -->
<g id="node17" class="node">
<title>Node19</title>
<g id="a_node17"><a xlink:href="_graphics_8h.html" target="_top" xlink:title=" ">
<polygon fill="none" stroke="black" points="616.12,-285.5 616.12,-305.5 679.38,-305.5 679.38,-285.5 616.12,-285.5"/>
<text text-anchor="middle" x="647.75" y="-292" font-family="Helvetica,sans-Serif" font-size="10.00">Graphics.h</text>
</a>
</g>
</g>
<!-- Node2&#45;&gt;Node19 -->
<g id="edge23" class="edge">
<title>Node2&#45;&gt;Node19</title>
<path fill="none" stroke="midnightblue" d="M447.68,-345.19C486.32,-335.79 559.43,-317.99 605.76,-306.72"/>
<polygon fill="midnightblue" stroke="midnightblue" points="606.47,-309.91 615.36,-304.14 604.81,-303.1 606.47,-309.91"/>
</g>
<!-- Node21 -->
<g id="node19" class="node">
<title>Node21</title>
<g id="a_node19"><a xlink:title=" ">
<polygon fill="none" stroke="#bfbfbf" points="803.75,-114.5 803.75,-134.5 843.75,-134.5 843.75,-114.5 803.75,-114.5"/>
<text text-anchor="middle" x="823.75" y="-121" font-family="Helvetica,sans-Serif" font-size="10.00">string</text>
</a>
</g>
</g>
<!-- Node2&#45;&gt;Node21 -->
<g id="edge49" class="edge">
<title>Node2&#45;&gt;Node21</title>
<path fill="none" stroke="midnightblue" d="M447.54,-350.13C496.09,-346.89 603.81,-336.58 688.75,-306 736.52,-288.8 753.31,-286.31 787.75,-249 814.68,-219.83 821.57,-171.61 823.26,-144.88"/>
<polygon fill="midnightblue" stroke="midnightblue" points="826.79,-145.39 823.73,-135.25 819.79,-145.08 826.79,-145.39"/>
</g>
<!-- Node4 -->
<g id="node4" class="node">
<title>Node4</title>
<g id="a_node4"><a xlink:title=" ">
<polygon fill="none" stroke="#bfbfbf" points="74.75,-228.5 74.75,-248.5 114.75,-248.5 114.75,-228.5 74.75,-228.5"/>
<text text-anchor="middle" x="94.75" y="-235" font-family="Helvetica,sans-Serif" font-size="10.00">bitset</text>
</a>
</g>
</g>
<!-- Node3&#45;&gt;Node4 -->
<g id="edge3" class="edge">
<title>Node3&#45;&gt;Node4</title>
<path fill="none" stroke="midnightblue" d="M103.19,-285.91C101.87,-278.68 99.95,-268.09 98.27,-258.85"/>
<polygon fill="midnightblue" stroke="midnightblue" points="101.57,-258.43 96.33,-249.21 94.68,-259.68 101.57,-258.43"/>
</g>
<!-- Node5 -->
<g id="node5" class="node">
<title>Node5</title>
<g id="a_node5"><a xlink:title=" ">
<polygon fill="none" stroke="#bfbfbf" points="14.62,-228.5 14.62,-248.5 56.88,-248.5 56.88,-228.5 14.62,-228.5"/>
<text text-anchor="middle" x="35.75" y="-235" font-family="Helvetica,sans-Serif" font-size="10.00">queue</text>
</a>
</g>
</g>
<!-- Node3&#45;&gt;Node5 -->
<g id="edge4" class="edge">
<title>Node3&#45;&gt;Node5</title>
<path fill="none" stroke="midnightblue" d="M93.66,-285.66C83.36,-277.45 67.79,-265.04 55.39,-255.15"/>
<polygon fill="midnightblue" stroke="midnightblue" points="58.04,-251.99 48.04,-248.5 53.68,-257.47 58.04,-251.99"/>
</g>
<!-- Node6&#45;&gt;Node5 -->
<g id="edge22" class="edge">
<title>Node6&#45;&gt;Node5</title>
<path fill="none" stroke="midnightblue" d="M28.16,-285.91C29.34,-278.68 31.07,-268.09 32.58,-258.85"/>
<polygon fill="midnightblue" stroke="midnightblue" points="36.16,-259.65 34.32,-249.21 29.25,-258.52 36.16,-259.65"/>
</g>
<!-- Node7 -->
<g id="node7" class="node">
<title>Node7</title>
<g id="a_node7"><a xlink:href="_vector2_8h.html" target="_top" xlink:title=" ">
<polygon fill="none" stroke="black" points="82.62,-114.5 82.62,-134.5 202.88,-134.5 202.88,-114.5 82.62,-114.5"/>
<text text-anchor="middle" x="142.75" y="-121" font-family="Helvetica,sans-Serif" font-size="10.00">LinearAlgebra/Vector2.h</text>
</a>
</g>
</g>
<!-- Node6&#45;&gt;Node7 -->
<g id="edge6" class="edge">
<title>Node6&#45;&gt;Node7</title>
<path fill="none" stroke="midnightblue" d="M19.72,-285.55C10.34,-272.45 -4.01,-247.49 5.75,-228 27.51,-184.55 77.39,-154.78 110.58,-138.94"/>
<polygon fill="midnightblue" stroke="midnightblue" points="111.67,-141.84 119.29,-134.48 108.75,-135.48 111.67,-141.84"/>
</g>
<!-- Node8 -->
<g id="node8" class="node">
<title>Node8</title>
<g id="a_node8"><a xlink:href="_math_8h.html" target="_top" xlink:title=" ">
<polygon fill="none" stroke="red" points="459.75,-57.5 459.75,-77.5 505.75,-77.5 505.75,-57.5 459.75,-57.5"/>
<text text-anchor="middle" x="482.75" y="-64" font-family="Helvetica,sans-Serif" font-size="10.00">Math.h</text>
</a>
</g>
</g>
<!-- Node7&#45;&gt;Node8 -->
<g id="edge7" class="edge">
<title>Node7&#45;&gt;Node8</title>
<path fill="none" stroke="midnightblue" d="M198.13,-114.54C269.23,-103.04 390.38,-83.44 449,-73.96"/>
<polygon fill="midnightblue" stroke="midnightblue" points="449.54,-77.26 458.85,-72.2 448.42,-70.35 449.54,-77.26"/>
</g>
<!-- Node13 -->
<g id="node11" class="node">
<title>Node13</title>
<g id="a_node11"><a xlink:href="_matrix2_8h.html" target="_top" xlink:title=" ">
<polygon fill="none" stroke="black" points="49.5,-57.5 49.5,-77.5 106,-77.5 106,-57.5 49.5,-57.5"/>
<text text-anchor="middle" x="77.75" y="-64" font-family="Helvetica,sans-Serif" font-size="10.00">Matrix2.h</text>
</a>
</g>
</g>
<!-- Node7&#45;&gt;Node13 -->
<g id="edge11" class="edge">
<title>Node7&#45;&gt;Node13</title>
<path fill="none" stroke="midnightblue" d="M132.31,-114.66C122.7,-106.53 108.22,-94.28 96.59,-84.44"/>
<polygon fill="midnightblue" stroke="midnightblue" points="99.28,-81.29 89.38,-77.5 94.76,-86.63 99.28,-81.29"/>
</g>
<!-- Node14 -->
<g id="node12" class="node">
<title>Node14</title>
<g id="a_node12"><a xlink:title=" ">
<polygon fill="none" stroke="#bfbfbf" points="137,-0.5 137,-20.5 190.5,-20.5 190.5,-0.5 137,-0.5"/>
<text text-anchor="middle" x="163.75" y="-7" font-family="Helvetica,sans-Serif" font-size="10.00">iostream</text>
</a>
</g>
</g>
<!-- Node7&#45;&gt;Node14 -->
<g id="edge21" class="edge">
<title>Node7&#45;&gt;Node14</title>
<path fill="none" stroke="midnightblue" d="M103.68,-114.55C67.23,-104.27 21.18,-85.1 40.75,-57 59.87,-29.54 97.59,-18.61 126.24,-14.28"/>
<polygon fill="midnightblue" stroke="midnightblue" points="126.63,-17.63 136.1,-12.89 125.74,-10.69 126.63,-17.63"/>
</g>
<!-- Node7&#45;&gt;Node15 -->
<g id="edge13" class="edge">
<title>Node7&#45;&gt;Node15</title>
<path fill="none" stroke="midnightblue" d="M180.7,-114.54C223.77,-104.38 293.62,-87.89 337.01,-77.64"/>
<polygon fill="midnightblue" stroke="midnightblue" points="337.77,-80.82 346.7,-75.12 336.17,-74.01 337.77,-80.82"/>
</g>
<!-- Node16 -->
<g id="node14" class="node">
<title>Node16</title>
<g id="a_node14"><a xlink:title=" ">
<polygon fill="none" stroke="#bfbfbf" points="297.88,-0.5 297.88,-20.5 335.62,-20.5 335.62,-0.5 297.88,-0.5"/>
<text text-anchor="middle" x="316.75" y="-7" font-family="Helvetica,sans-Serif" font-size="10.00">array</text>
</a>
</g>
</g>
<!-- Node7&#45;&gt;Node16 -->
<g id="edge18" class="edge">
<title>Node7&#45;&gt;Node16</title>
<path fill="none" stroke="midnightblue" d="M142.11,-114.89C141.56,-100.86 142.63,-73 157.75,-57 191.55,-21.22 251.39,-12.96 287.23,-11.4"/>
<polygon fill="midnightblue" stroke="midnightblue" points="287.06,-14.88 296.96,-11.11 286.87,-7.88 287.06,-14.88"/>
</g>
<!-- Node17 -->
<g id="node15" class="node">
<title>Node17</title>
<g id="a_node15"><a xlink:title=" ">
<polygon fill="none" stroke="#bfbfbf" points="354,-0.5 354,-20.5 401.5,-20.5 401.5,-0.5 354,-0.5"/>
<text text-anchor="middle" x="377.75" y="-7" font-family="Helvetica,sans-Serif" font-size="10.00">cstddef</text>
</a>
</g>
</g>
<!-- Node7&#45;&gt;Node17 -->
<g id="edge20" class="edge">
<title>Node7&#45;&gt;Node17</title>
<path fill="none" stroke="midnightblue" d="M146.61,-114.6C153.36,-100.13 168.71,-71.68 190.75,-57 246.51,-19.86 274.09,-36.92 343.76,-20.99"/>
<polygon fill="midnightblue" stroke="midnightblue" points="344.48,-24.18 353.35,-18.39 342.81,-17.38 344.48,-24.18"/>
</g>
<!-- Node18 -->
<g id="node16" class="node">
<title>Node18</title>
<g id="a_node16"><a xlink:title=" ">
<polygon fill="none" stroke="#bfbfbf" points="200,-57.5 200,-77.5 253.5,-77.5 253.5,-57.5 200,-57.5"/>
<text text-anchor="middle" x="226.75" y="-64" font-family="Helvetica,sans-Serif" font-size="10.00">compare</text>
</a>
</g>
</g>
<!-- Node7&#45;&gt;Node18 -->
<g id="edge19" class="edge">
<title>Node7&#45;&gt;Node18</title>
<path fill="none" stroke="midnightblue" d="M156.25,-114.66C169.15,-106.21 188.85,-93.31 204.15,-83.3"/>
<polygon fill="midnightblue" stroke="midnightblue" points="205.56,-85.9 212.01,-77.5 201.72,-80.05 205.56,-85.9"/>
</g>
<!-- Node8&#45;&gt;Node8 -->
<g id="edge8" class="edge">
<title>Node8&#45;&gt;Node8</title>
<path fill="none" stroke="midnightblue" d="M501.3,-77.43C512.8,-79.83 523.75,-76.52 523.75,-67.5 523.75,-61.44 518.81,-57.96 512.08,-57.05"/>
<polygon fill="midnightblue" stroke="midnightblue" points="512.12,-53.59 502.3,-57.57 512.46,-60.59 512.12,-53.59"/>
</g>
<!-- Node9 -->
<g id="node9" class="node">
<title>Node9</title>
<g id="a_node9"><a xlink:title=" ">
<polygon fill="none" stroke="#bfbfbf" points="439.25,-0.5 439.25,-20.5 482.25,-20.5 482.25,-0.5 439.25,-0.5"/>
<text text-anchor="middle" x="460.75" y="-7" font-family="Helvetica,sans-Serif" font-size="10.00">cmath</text>
</a>
</g>
</g>
<!-- Node8&#45;&gt;Node9 -->
<g id="edge9" class="edge">
<title>Node8&#45;&gt;Node9</title>
<path fill="none" stroke="midnightblue" d="M479.31,-57.91C476.36,-50.52 472,-39.62 468.24,-30.23"/>
<polygon fill="midnightblue" stroke="midnightblue" points="471.2,-29.2 464.24,-21.21 464.7,-31.8 471.2,-29.2"/>
</g>
<!-- Node10 -->
<g id="node10" class="node">
<title>Node10</title>
<g id="a_node10"><a xlink:title=" ">
<polygon fill="none" stroke="#bfbfbf" points="1271.12,-0.5 1271.12,-20.5 1310.38,-20.5 1310.38,-0.5 1271.12,-0.5"/>
<text text-anchor="middle" x="1290.75" y="-7" font-family="Helvetica,sans-Serif" font-size="10.00">limits</text>
</a>
</g>
</g>
<!-- Node8&#45;&gt;Node10 -->
<g id="edge10" class="edge">
<title>Node8&#45;&gt;Node10</title>
<path fill="none" stroke="midnightblue" d="M505.63,-64.94C620.18,-57.15 1131,-22.37 1260.72,-13.54"/>
<polygon fill="midnightblue" stroke="midnightblue" points="1260.66,-16.99 1270.4,-12.82 1260.19,-10 1260.66,-16.99"/>
</g>
<!-- Node13&#45;&gt;Node14 -->
<g id="edge12" class="edge">
<title>Node13&#45;&gt;Node14</title>
<path fill="none" stroke="midnightblue" d="M91.57,-57.66C104.78,-49.21 124.95,-36.31 140.61,-26.3"/>
<polygon fill="midnightblue" stroke="midnightblue" points="142.14,-28.83 148.68,-20.5 138.37,-22.94 142.14,-28.83"/>
</g>
<!-- Node15&#45;&gt;Node9 -->
<g id="edge15" class="edge">
<title>Node15&#45;&gt;Node9</title>
<path fill="none" stroke="midnightblue" d="M389.41,-57.66C402.46,-49.21 422.4,-36.31 437.88,-26.3"/>
<polygon fill="midnightblue" stroke="midnightblue" points="439.35,-28.87 445.84,-20.5 435.55,-22.99 439.35,-28.87"/>
</g>
<!-- Node15&#45;&gt;Node14 -->
<g id="edge17" class="edge">
<title>Node15&#45;&gt;Node14</title>
<path fill="none" stroke="midnightblue" d="M347.6,-59.2C309.86,-49.41 242.78,-32 200.92,-21.14"/>
<polygon fill="midnightblue" stroke="midnightblue" points="201.9,-17.52 191.35,-18.4 200.15,-24.3 201.9,-17.52"/>
</g>
<!-- Node15&#45;&gt;Node16 -->
<g id="edge14" class="edge">
<title>Node15&#45;&gt;Node16</title>
<path fill="none" stroke="midnightblue" d="M366.27,-57.66C357.63,-49.61 344.66,-37.52 334.16,-27.73"/>
<polygon fill="midnightblue" stroke="midnightblue" points="337.1,-25.76 327.4,-21.5 332.33,-30.88 337.1,-25.76"/>
</g>
<!-- Node15&#45;&gt;Node17 -->
<g id="edge16" class="edge">
<title>Node15&#45;&gt;Node17</title>
<path fill="none" stroke="midnightblue" d="M376.06,-57.91C376.32,-50.76 376.7,-40.32 377.04,-31.15"/>
<polygon fill="midnightblue" stroke="midnightblue" points="380.57,-31.34 377.43,-21.21 373.57,-31.08 380.57,-31.34"/>
</g>
<!-- Node20 -->
<g id="node18" class="node">
<title>Node20</title>
<g id="a_node18"><a xlink:href="_engine_exception_8h.html" target="_top" xlink:title=" ">
<polygon fill="none" stroke="black" points="707.88,-171.5 707.88,-191.5 805.62,-191.5 805.62,-171.5 707.88,-171.5"/>
<text text-anchor="middle" x="756.75" y="-178" font-family="Helvetica,sans-Serif" font-size="10.00">EngineException.h</text>
</a>
</g>
</g>
<!-- Node19&#45;&gt;Node20 -->
<g id="edge24" class="edge">
<title>Node19&#45;&gt;Node20</title>
<path fill="none" stroke="midnightblue" d="M679.26,-292.55C708.42,-288.87 750.26,-278.43 770.75,-249 780.73,-234.66 774.48,-214.67 767.44,-200.35"/>
<polygon fill="midnightblue" stroke="midnightblue" points="770.25,-199.2 762.39,-192.09 764.11,-202.55 770.25,-199.2"/>
</g>
<!-- Node23 -->
<g id="node21" class="node">
<title>Node23</title>
<g id="a_node21"><a xlink:href="_vector3_8h.html" target="_top" xlink:title=" ">
<polygon fill="none" stroke="black" points="250.62,-114.5 250.62,-134.5 370.88,-134.5 370.88,-114.5 250.62,-114.5"/>
<text text-anchor="middle" x="310.75" y="-121" font-family="Helvetica,sans-Serif" font-size="10.00">LinearAlgebra/Vector3.h</text>
</a>
</g>
</g>
<!-- Node19&#45;&gt;Node23 -->
<g id="edge27" class="edge">
<title>Node19&#45;&gt;Node23</title>
<path fill="none" stroke="midnightblue" d="M616.36,-290.98C533.87,-280.99 314.66,-249.39 275.75,-192 264.73,-175.75 278.76,-155.63 292.19,-141.8"/>
<polygon fill="midnightblue" stroke="midnightblue" points="294.05,-144.91 298.84,-135.46 289.2,-139.86 294.05,-144.91"/>
</g>
<!-- Node24 -->
<g id="node22" class="node">
<title>Node24</title>
<g id="a_node22"><a xlink:href="_g_d_i_plus_manager_8h.html" target="_top" xlink:title=" ">
<polygon fill="none" stroke="black" points="541.88,-228.5 541.88,-248.5 639.62,-248.5 639.62,-228.5 541.88,-228.5"/>
<text text-anchor="middle" x="590.75" y="-235" font-family="Helvetica,sans-Serif" font-size="10.00">GDIPlusManager.h</text>
</a>
</g>
</g>
<!-- Node19&#45;&gt;Node24 -->
<g id="edge34" class="edge">
<title>Node19&#45;&gt;Node24</title>
<path fill="none" stroke="midnightblue" d="M638.59,-285.66C630.33,-277.69 617.97,-265.76 607.88,-256.02"/>
<polygon fill="midnightblue" stroke="midnightblue" points="610.7,-253.92 601.07,-249.5 605.84,-258.96 610.7,-253.92"/>
</g>
<!-- Node28 -->
<g id="node26" class="node">
<title>Node28</title>
<g id="a_node26"><a xlink:href="_surface_8h.html" target="_top" xlink:title=" ">
<polygon fill="none" stroke="black" points="428.12,-228.5 428.12,-248.5 485.38,-248.5 485.38,-228.5 428.12,-228.5"/>
<text text-anchor="middle" x="456.75" y="-235" font-family="Helvetica,sans-Serif" font-size="10.00">Surface.h</text>
</a>
</g>
</g>
<!-- Node19&#45;&gt;Node28 -->
<g id="edge38" class="edge">
<title>Node19&#45;&gt;Node28</title>
<path fill="none" stroke="midnightblue" d="M616.64,-285.54C583.68,-276.05 531.58,-261.05 495.87,-250.76"/>
<polygon fill="midnightblue" stroke="midnightblue" points="496.93,-247.14 486.35,-247.74 494.99,-253.87 496.93,-247.14"/>
</g>
<!-- Node33 -->
<g id="node31" class="node">
<title>Node33</title>
<g id="a_node31"><a xlink:title=" ">
<polygon fill="none" stroke="#bfbfbf" points="657.5,-228.5 657.5,-248.5 708,-248.5 708,-228.5 657.5,-228.5"/>
<text text-anchor="middle" x="682.75" y="-235" font-family="Helvetica,sans-Serif" font-size="10.00">d3d11.h</text>
</a>
</g>
</g>
<!-- Node19&#45;&gt;Node33 -->
<g id="edge47" class="edge">
<title>Node19&#45;&gt;Node33</title>
<path fill="none" stroke="midnightblue" d="M653.22,-285.91C658.07,-278.28 665.31,-266.9 671.41,-257.32"/>
<polygon fill="midnightblue" stroke="midnightblue" points="674.79,-259.53 677.2,-249.21 668.88,-255.77 674.79,-259.53"/>
</g>
<!-- Node34 -->
<g id="node32" class="node">
<title>Node34</title>
<g id="a_node32"><a xlink:title=" ">
<polygon fill="none" stroke="#bfbfbf" points="725.62,-228.5 725.62,-248.5 761.88,-248.5 761.88,-228.5 725.62,-228.5"/>
<text text-anchor="middle" x="743.75" y="-235" font-family="Helvetica,sans-Serif" font-size="10.00">wrl.h</text>
</a>
</g>
</g>
<!-- Node19&#45;&gt;Node34 -->
<g id="edge48" class="edge">
<title>Node19&#45;&gt;Node34</title>
<path fill="none" stroke="midnightblue" d="M663.17,-285.66C678.2,-277.05 701.29,-263.83 718.91,-253.73"/>
<polygon fill="midnightblue" stroke="midnightblue" points="720.11,-256.51 727.05,-248.5 716.63,-250.43 720.11,-256.51"/>
</g>
<!-- Node20&#45;&gt;Node21 -->
<g id="edge25" class="edge">
<title>Node20&#45;&gt;Node21</title>
<path fill="none" stroke="midnightblue" d="M767.51,-171.66C777.42,-163.53 792.34,-151.28 804.33,-141.44"/>
<polygon fill="midnightblue" stroke="midnightblue" points="806.28,-143.55 811.79,-134.5 801.84,-138.14 806.28,-143.55"/>
</g>
<!-- Node22 -->
<g id="node20" class="node">
<title>Node22</title>
<g id="a_node20"><a xlink:title=" ">
<polygon fill="none" stroke="#bfbfbf" points="701.62,-114.5 701.62,-134.5 785.88,-134.5 785.88,-114.5 701.62,-114.5"/>
<text text-anchor="middle" x="743.75" y="-121" font-family="Helvetica,sans-Serif" font-size="10.00">source_location</text>
</a>
</g>
</g>
<!-- Node20&#45;&gt;Node22 -->
<g id="edge26" class="edge">
<title>Node20&#45;&gt;Node22</title>
<path fill="none" stroke="midnightblue" d="M754.72,-171.91C753.01,-164.68 750.51,-154.09 748.32,-144.85"/>
<polygon fill="midnightblue" stroke="midnightblue" points="751.52,-144.14 745.81,-135.21 744.7,-145.75 751.52,-144.14"/>
</g>
<!-- Node23&#45;&gt;Node8 -->
<g id="edge28" class="edge">
<title>Node23&#45;&gt;Node8</title>
<path fill="none" stroke="midnightblue" d="M338.77,-114.54C369.13,-104.83 417.54,-89.35 449.73,-79.06"/>
<polygon fill="midnightblue" stroke="midnightblue" points="450.51,-82.16 458.97,-75.78 448.38,-75.5 450.51,-82.16"/>
</g>
<!-- Node23&#45;&gt;Node14 -->
<g id="edge31" class="edge">
<title>Node23&#45;&gt;Node14</title>
<path fill="none" stroke="midnightblue" d="M306.3,-114.63C298.93,-100.71 282.99,-73.64 262.75,-57 244.42,-41.93 220.28,-30.7 200.43,-23.17"/>
<polygon fill="midnightblue" stroke="midnightblue" points="201.79,-19.58 191.2,-19.47 199.41,-26.16 201.79,-19.58"/>
</g>
<!-- Node23&#45;&gt;Node15 -->
<g id="edge29" class="edge">
<title>Node23&#45;&gt;Node15</title>
<path fill="none" stroke="midnightblue" d="M321.19,-114.66C330.8,-106.53 345.28,-94.28 356.91,-84.44"/>
<polygon fill="midnightblue" stroke="midnightblue" points="358.74,-86.63 364.12,-77.5 354.22,-81.29 358.74,-86.63"/>
</g>
<!-- Node23&#45;&gt;Node16 -->
<g id="edge30" class="edge">
<title>Node23&#45;&gt;Node16</title>
<path fill="none" stroke="midnightblue" d="M311.22,-114.71C312.18,-96.8 314.38,-55.69 315.7,-31.11"/>
<polygon fill="midnightblue" stroke="midnightblue" points="319.24,-31.42 316.28,-21.25 312.25,-31.05 319.24,-31.42"/>
</g>
<!-- Node23&#45;&gt;Node17 -->
<g id="edge33" class="edge">
<title>Node23&#45;&gt;Node17</title>
<path fill="none" stroke="midnightblue" d="M357.65,-114.57C378.22,-108.08 400.45,-96.95 412.75,-78 423.44,-61.53 409.47,-41.45 396.14,-27.69"/>
<polygon fill="midnightblue" stroke="midnightblue" points="399.19,-25.8 389.55,-21.39 394.33,-30.85 399.19,-25.8"/>
</g>
<!-- Node23&#45;&gt;Node18 -->
<g id="edge32" class="edge">
<title>Node23&#45;&gt;Node18</title>
<path fill="none" stroke="midnightblue" d="M297.25,-114.66C284.35,-106.21 264.65,-93.31 249.35,-83.3"/>
<polygon fill="midnightblue" stroke="midnightblue" points="251.78,-80.05 241.49,-77.5 247.94,-85.9 251.78,-80.05"/>
</g>
<!-- Node25 -->
<g id="node23" class="node">
<title>Node25</title>
<g id="a_node23"><a xlink:href="_win_8h.html" target="_top" xlink:title=" ">
<polygon fill="none" stroke="black" points="572,-171.5 572,-191.5 613.5,-191.5 613.5,-171.5 572,-171.5"/>
<text text-anchor="middle" x="592.75" y="-178" font-family="Helvetica,sans-Serif" font-size="10.00">Win.h</text>
</a>
</g>
</g>
<!-- Node24&#45;&gt;Node25 -->
<g id="edge35" class="edge">
<title>Node24&#45;&gt;Node25</title>
<path fill="none" stroke="midnightblue" d="M591.06,-228.91C591.32,-221.76 591.7,-211.32 592.04,-202.15"/>
<polygon fill="midnightblue" stroke="midnightblue" points="595.57,-202.34 592.43,-192.21 588.57,-202.08 595.57,-202.34"/>
</g>
<!-- Node26 -->
<g id="node24" class="node">
<title>Node26</title>
<g id="a_node24"><a xlink:title=" ">
<polygon fill="none" stroke="#bfbfbf" points="587.88,-114.5 587.88,-134.5 655.62,-134.5 655.62,-114.5 587.88,-114.5"/>
<text text-anchor="middle" x="621.75" y="-121" font-family="Helvetica,sans-Serif" font-size="10.00">sdkddkver.h</text>
</a>
</g>
</g>
<!-- Node25&#45;&gt;Node26 -->
<g id="edge36" class="edge">
<title>Node25&#45;&gt;Node26</title>
<path fill="none" stroke="midnightblue" d="M597.28,-171.91C601.22,-164.44 607.05,-153.38 612.03,-143.93"/>
<polygon fill="midnightblue" stroke="midnightblue" points="615.59,-145.69 617.15,-135.21 609.39,-142.43 615.59,-145.69"/>
</g>
<!-- Node27 -->
<g id="node25" class="node">
<title>Node27</title>
<g id="a_node25"><a xlink:title=" ">
<polygon fill="none" stroke="#bfbfbf" points="505.75,-114.5 505.75,-134.5 569.75,-134.5 569.75,-114.5 505.75,-114.5"/>
<text text-anchor="middle" x="537.75" y="-121" font-family="Helvetica,sans-Serif" font-size="10.00">Windows.h</text>
</a>
</g>
</g>
<!-- Node25&#45;&gt;Node27 -->
<g id="edge37" class="edge">
<title>Node25&#45;&gt;Node27</title>
<path fill="none" stroke="midnightblue" d="M584.16,-171.91C576.13,-163.88 563.94,-151.69 554.07,-141.82"/>
<polygon fill="midnightblue" stroke="midnightblue" points="557.01,-139.81 547.46,-135.21 552.06,-144.76 557.01,-139.81"/>
</g>
<!-- Node28&#45;&gt;Node20 -->
<g id="edge42" class="edge">
<title>Node28&#45;&gt;Node20</title>
<path fill="none" stroke="midnightblue" d="M485.24,-232.28C533.7,-223.39 633.15,-205.16 697.29,-193.4"/>
<polygon fill="midnightblue" stroke="midnightblue" points="697.85,-196.67 707.05,-191.43 696.59,-189.79 697.85,-196.67"/>
</g>
<!-- Node28&#45;&gt;Node21 -->
<g id="edge45" class="edge">
<title>Node28&#45;&gt;Node21</title>
<path fill="none" stroke="midnightblue" d="M485.37,-230.14C518.56,-221.49 574.84,-206.48 622.75,-192 683.85,-173.53 754.56,-149.52 793.72,-135.98"/>
<polygon fill="midnightblue" stroke="midnightblue" points="794.59,-139.03 802.89,-132.45 792.29,-132.42 794.59,-139.03"/>
</g>
<!-- Node28&#45;&gt;Node25 -->
<g id="edge39" class="edge">
<title>Node28&#45;&gt;Node25</title>
<path fill="none" stroke="midnightblue" d="M478.9,-228.54C501.56,-219.38 536.92,-205.08 562.22,-194.84"/>
<polygon fill="midnightblue" stroke="midnightblue" points="563.43,-197.73 571.38,-190.74 560.8,-191.24 563.43,-197.73"/>
</g>
<!-- Node29 -->
<g id="node27" class="node">
<title>Node29</title>
<g id="a_node27"><a xlink:href="_colors_8h.html" target="_top" xlink:title=" ">
<polygon fill="none" stroke="black" points="284.75,-171.5 284.75,-191.5 336.75,-191.5 336.75,-171.5 284.75,-171.5"/>
<text text-anchor="middle" x="310.75" y="-178" font-family="Helvetica,sans-Serif" font-size="10.00">Colors.h</text>
</a>
</g>
</g>
<!-- Node28&#45;&gt;Node29 -->
<g id="edge40" class="edge">
<title>Node28&#45;&gt;Node29</title>
<path fill="none" stroke="midnightblue" d="M432.97,-228.54C409,-219.51 371.78,-205.49 344.71,-195.29"/>
<polygon fill="midnightblue" stroke="midnightblue" points="346.11,-191.71 335.52,-191.46 343.65,-198.26 346.11,-191.71"/>
</g>
<!-- Node30 -->
<g id="node28" class="node">
<title>Node30</title>
<g id="a_node28"><a xlink:title=" ">
<polygon fill="none" stroke="#bfbfbf" points="503.12,-171.5 503.12,-191.5 554.38,-191.5 554.38,-171.5 503.12,-171.5"/>
<text text-anchor="middle" x="528.75" y="-178" font-family="Helvetica,sans-Serif" font-size="10.00">assert.h</text>
</a>
</g>
</g>
<!-- Node28&#45;&gt;Node30 -->
<g id="edge43" class="edge">
<title>Node28&#45;&gt;Node30</title>
<path fill="none" stroke="midnightblue" d="M468.32,-228.66C479.07,-220.45 495.31,-208.04 508.26,-198.15"/>
<polygon fill="midnightblue" stroke="midnightblue" points="510.15,-200.35 515.97,-191.5 505.9,-194.79 510.15,-200.35"/>
</g>
<!-- Node31 -->
<g id="node29" class="node">
<title>Node31</title>
<g id="a_node29"><a xlink:title=" ">
<polygon fill="none" stroke="#bfbfbf" points="355.12,-171.5 355.12,-191.5 406.38,-191.5 406.38,-171.5 355.12,-171.5"/>
<text text-anchor="middle" x="380.75" y="-178" font-family="Helvetica,sans-Serif" font-size="10.00">memory</text>
</a>
</g>
</g>
<!-- Node28&#45;&gt;Node31 -->
<g id="edge44" class="edge">
<title>Node28&#45;&gt;Node31</title>
<path fill="none" stroke="midnightblue" d="M444.54,-228.66C433.08,-220.37 415.71,-207.8 401.98,-197.87"/>
<polygon fill="midnightblue" stroke="midnightblue" points="404.34,-194.52 394.18,-191.5 400.23,-200.2 404.34,-194.52"/>
</g>
<!-- Node32 -->
<g id="node30" class="node">
<title>Node32</title>
<g id="a_node30"><a xlink:title=" ">
<polygon fill="none" stroke="#bfbfbf" points="424.62,-171.5 424.62,-191.5 484.88,-191.5 484.88,-171.5 424.62,-171.5"/>
<text text-anchor="middle" x="454.75" y="-178" font-family="Helvetica,sans-Serif" font-size="10.00">filesystem</text>
</a>
</g>
</g>
<!-- Node28&#45;&gt;Node32 -->
<g id="edge46" class="edge">
<title>Node28&#45;&gt;Node32</title>
<path fill="none" stroke="midnightblue" d="M456.44,-228.91C456.18,-221.76 455.8,-211.32 455.46,-202.15"/>
<polygon fill="midnightblue" stroke="midnightblue" points="458.93,-202.08 455.07,-192.21 451.93,-202.34 458.93,-202.08"/>
</g>
<!-- Node29&#45;&gt;Node23 -->
<g id="edge41" class="edge">
<title>Node29&#45;&gt;Node23</title>
<path fill="none" stroke="midnightblue" d="M310.75,-171.91C310.75,-164.76 310.75,-154.32 310.75,-145.15"/>
<polygon fill="midnightblue" stroke="midnightblue" points="314.25,-145.21 310.75,-135.21 307.25,-145.21 314.25,-145.21"/>
</g>
<!-- Node35&#45;&gt;Node7 -->
<g id="edge65" class="edge">
<title>Node35&#45;&gt;Node7</title>
<path fill="none" stroke="midnightblue" d="M278.91,-289.13C250.04,-283.54 213.81,-272.15 189.75,-249 160.36,-220.72 149.12,-172.16 145,-145.13"/>
<polygon fill="midnightblue" stroke="midnightblue" points="148.36,-144.82 143.57,-135.37 141.42,-145.74 148.36,-144.82"/>
</g>
<!-- Node35&#45;&gt;Node23 -->
<g id="edge66" class="edge">
<title>Node35&#45;&gt;Node23</title>
<path fill="none" stroke="midnightblue" d="M279.02,-289.79C252.6,-284.46 221.39,-273.11 204.75,-249 185.06,-220.47 185.67,-199.95 204.75,-171 215.21,-155.13 232.47,-144.78 250.06,-138.03"/>
<polygon fill="midnightblue" stroke="midnightblue" points="251.1,-141.03 259.41,-134.46 248.81,-134.41 251.1,-141.03"/>
</g>
<!-- Node36 -->
<g id="node34" class="node">
<title>Node36</title>
<g id="a_node34"><a xlink:href="_indexed_triangle_list_8h.html" target="_top" xlink:title=" ">
<polygon fill="none" stroke="black" points="968,-228.5 968,-248.5 1075.5,-248.5 1075.5,-228.5 968,-228.5"/>
<text text-anchor="middle" x="1021.75" y="-235" font-family="Helvetica,sans-Serif" font-size="10.00">IndexedTriangleList.h</text>
</a>
</g>
</g>
<!-- Node35&#45;&gt;Node36 -->
<g id="edge51" class="edge">
<title>Node35&#45;&gt;Node36</title>
<path fill="none" stroke="midnightblue" d="M370.48,-290.89C491.09,-281.37 818.05,-255.57 957.42,-244.58"/>
<polygon fill="midnightblue" stroke="midnightblue" points="957.63,-247.99 967.32,-243.72 957.08,-241.01 957.63,-247.99"/>
</g>
<!-- Node36&#45;&gt;Node23 -->
<g id="edge52" class="edge">
<title>Node36&#45;&gt;Node23</title>
<path fill="none" stroke="midnightblue" d="M968.23,-232.11C903.86,-225.14 792.73,-211.52 698.75,-192 664.44,-184.87 657.04,-178.21 622.75,-171 540.59,-153.73 444.88,-140.82 381.36,-133.25"/>
<polygon fill="midnightblue" stroke="midnightblue" points="382,-129.68 371.66,-131.99 381.18,-136.63 382,-129.68"/>
</g>
<!-- Node37 -->
<g id="node35" class="node">
<title>Node37</title>
<g id="a_node35"><a xlink:href="tiny__obj__loader_8h.html" target="_top" xlink:title=" ">
<polygon fill="none" stroke="black" points="1001,-171.5 1001,-191.5 1090.5,-191.5 1090.5,-171.5 1001,-171.5"/>
<text text-anchor="middle" x="1045.75" y="-178" font-family="Helvetica,sans-Serif" font-size="10.00">tiny_obj_loader.h</text>
</a>
</g>
</g>
<!-- Node36&#45;&gt;Node37 -->
<g id="edge53" class="edge">
<title>Node36&#45;&gt;Node37</title>
<path fill="none" stroke="midnightblue" d="M1025.5,-228.91C1028.72,-221.52 1033.48,-210.62 1037.58,-201.23"/>
<polygon fill="midnightblue" stroke="midnightblue" points="1041.16,-202.78 1041.95,-192.21 1034.74,-199.98 1041.16,-202.78"/>
</g>
<!-- Node39 -->
<g id="node37" class="node">
<title>Node39</title>
<g id="a_node37"><a xlink:title=" ">
<polygon fill="none" stroke="#bfbfbf" points="1097,-114.5 1097,-134.5 1138.5,-134.5 1138.5,-114.5 1097,-114.5"/>
<text text-anchor="middle" x="1117.75" y="-121" font-family="Helvetica,sans-Serif" font-size="10.00">vector</text>
</a>
</g>
</g>
<!-- Node36&#45;&gt;Node39 -->
<g id="edge62" class="edge">
<title>Node36&#45;&gt;Node39</title>
<path fill="none" stroke="midnightblue" d="M1075.26,-235.56C1107.08,-231.31 1145.14,-220.13 1165.75,-192 1178.7,-174.33 1158.75,-153.89 1140.77,-140.38"/>
<polygon fill="midnightblue" stroke="midnightblue" points="1143.44,-137.27 1133.25,-134.35 1139.39,-142.98 1143.44,-137.27"/>
</g>
<!-- Node40 -->
<g id="node38" class="node">
<title>Node40</title>
<g id="a_node38"><a xlink:href="_miniball_8h.html" target="_top" xlink:title=" ">
<polygon fill="none" stroke="red" points="1251.12,-171.5 1251.12,-191.5 1308.38,-191.5 1308.38,-171.5 1251.12,-171.5"/>
<text text-anchor="middle" x="1279.75" y="-178" font-family="Helvetica,sans-Serif" font-size="10.00">Miniball.h</text>
</a>
</g>
</g>
<!-- Node36&#45;&gt;Node40 -->
<g id="edge57" class="edge">
<title>Node36&#45;&gt;Node40</title>
<path fill="none" stroke="midnightblue" d="M1063.78,-228.54C1112.79,-218.09 1193.16,-200.96 1240.81,-190.8"/>
<polygon fill="midnightblue" stroke="midnightblue" points="1241.27,-194.07 1250.32,-188.56 1239.81,-187.22 1241.27,-194.07"/>
</g>
<!-- Node45 -->
<g id="node42" class="node">
<title>Node45</title>
<g id="a_node42"><a xlink:title=" ">
<polygon fill="none" stroke="#bfbfbf" points="1108.62,-171.5 1108.62,-191.5 1156.88,-191.5 1156.88,-171.5 1108.62,-171.5"/>
<text text-anchor="middle" x="1132.75" y="-178" font-family="Helvetica,sans-Serif" font-size="10.00">fstream</text>
</a>
</g>
</g>
<!-- Node36&#45;&gt;Node45 -->
<g id="edge63" class="edge">
<title>Node36&#45;&gt;Node45</title>
<path fill="none" stroke="midnightblue" d="M1039.58,-228.66C1057.2,-219.94 1084.4,-206.46 1104.87,-196.31"/>
<polygon fill="midnightblue" stroke="midnightblue" points="1106.19,-199.07 1113.59,-191.5 1103.08,-192.8 1106.19,-199.07"/>
</g>
<!-- Node46 -->
<g id="node43" class="node">
<title>Node46</title>
<g id="a_node43"><a xlink:title=" ">
<polygon fill="none" stroke="#bfbfbf" points="938.12,-171.5 938.12,-191.5 983.38,-191.5 983.38,-171.5 938.12,-171.5"/>
<text text-anchor="middle" x="960.75" y="-178" font-family="Helvetica,sans-Serif" font-size="10.00">cctype</text>
</a>
</g>
</g>
<!-- Node36&#45;&gt;Node46 -->
<g id="edge64" class="edge">
<title>Node36&#45;&gt;Node46</title>
<path fill="none" stroke="midnightblue" d="M1011.95,-228.66C1003.02,-220.61 989.61,-208.52 978.75,-198.73"/>
<polygon fill="midnightblue" stroke="midnightblue" points="981.5,-196.59 971.73,-192.5 976.81,-201.79 981.5,-196.59"/>
</g>
<!-- Node37&#45;&gt;Node21 -->
<g id="edge55" class="edge">
<title>Node37&#45;&gt;Node21</title>
<path fill="none" stroke="midnightblue" d="M1009.59,-171.54C966.35,-160.83 894.76,-143.09 854.21,-133.05"/>
<polygon fill="midnightblue" stroke="midnightblue" points="855.2,-129.44 844.65,-130.43 853.51,-136.23 855.2,-129.44"/>
</g>
<!-- Node38 -->
<g id="node36" class="node">
<title>Node38</title>
<g id="a_node36"><a xlink:title=" ">
<polygon fill="none" stroke="#bfbfbf" points="1028.38,-114.5 1028.38,-134.5 1063.12,-134.5 1063.12,-114.5 1028.38,-114.5"/>
<text text-anchor="middle" x="1045.75" y="-121" font-family="Helvetica,sans-Serif" font-size="10.00">map</text>
</a>
</g>
</g>
<!-- Node37&#45;&gt;Node38 -->
<g id="edge54" class="edge">
<title>Node37&#45;&gt;Node38</title>
<path fill="none" stroke="midnightblue" d="M1045.75,-171.91C1045.75,-164.76 1045.75,-154.32 1045.75,-145.15"/>
<polygon fill="midnightblue" stroke="midnightblue" points="1049.25,-145.21 1045.75,-135.21 1042.25,-145.21 1049.25,-145.21"/>
</g>
<!-- Node37&#45;&gt;Node39 -->
<g id="edge56" class="edge">
<title>Node37&#45;&gt;Node39</title>
<path fill="none" stroke="midnightblue" d="M1057.32,-171.66C1068.07,-163.45 1084.31,-151.04 1097.26,-141.15"/>
<polygon fill="midnightblue" stroke="midnightblue" points="1099.15,-143.35 1104.97,-134.5 1094.9,-137.79 1099.15,-143.35"/>
</g>
<!-- Node40&#45;&gt;Node10 -->
<g id="edge61" class="edge">
<title>Node40&#45;&gt;Node10</title>
<path fill="none" stroke="midnightblue" d="M1280.31,-171.89C1282,-145.9 1287.08,-67.82 1289.48,-31.05"/>
<polygon fill="midnightblue" stroke="midnightblue" points="1293.02,-31.5 1290.18,-21.3 1286.04,-31.05 1293.02,-31.5"/>
</g>
<!-- Node41 -->
<g id="node39" class="node">
<title>Node41</title>
<g id="a_node39"><a xlink:title=" ">
<polygon fill="none" stroke="#bfbfbf" points="1318.62,-114.5 1318.62,-134.5 1366.88,-134.5 1366.88,-114.5 1318.62,-114.5"/>
<text text-anchor="middle" x="1342.75" y="-121" font-family="Helvetica,sans-Serif" font-size="10.00">cassert</text>
</a>
</g>
</g>
<!-- Node40&#45;&gt;Node41 -->
<g id="edge58" class="edge">
<title>Node40&#45;&gt;Node41</title>
<path fill="none" stroke="midnightblue" d="M1289.87,-171.66C1299.19,-163.53 1313.22,-151.28 1324.49,-141.44"/>
<polygon fill="midnightblue" stroke="midnightblue" points="1326.21,-143.71 1331.44,-134.5 1321.61,-138.44 1326.21,-143.71"/>
</g>
<!-- Node42 -->
<g id="node40" class="node">
<title>Node42</title>
<g id="a_node40"><a xlink:title=" ">
<polygon fill="none" stroke="#bfbfbf" points="1160.88,-114.5 1160.88,-134.5 1216.62,-134.5 1216.62,-114.5 1160.88,-114.5"/>
<text text-anchor="middle" x="1188.75" y="-121" font-family="Helvetica,sans-Serif" font-size="10.00">algorithm</text>
</a>
</g>
</g>
<!-- Node40&#45;&gt;Node42 -->
<g id="edge59" class="edge">
<title>Node40&#45;&gt;Node42</title>
<path fill="none" stroke="midnightblue" d="M1265.13,-171.66C1251.02,-163.13 1229.4,-150.07 1212.76,-140.01"/>
<polygon fill="midnightblue" stroke="midnightblue" points="1215.01,-136.67 1204.64,-134.5 1211.38,-142.67 1215.01,-136.67"/>
</g>
<!-- Node43 -->
<g id="node41" class="node">
<title>Node43</title>
<g id="a_node41"><a xlink:title=" ">
<polygon fill="none" stroke="#bfbfbf" points="1234.35,-114.5 1234.35,-134.5 1263.15,-134.5 1263.15,-114.5 1234.35,-114.5"/>
<text text-anchor="middle" x="1248.72" y="-121" font-family="Helvetica,sans-Serif" font-size="10.00">list</text>
</a>
</g>
</g>
<!-- Node40&#45;&gt;Node43 -->
<g id="edge60" class="edge">
<title>Node40&#45;&gt;Node43</title>
<path fill="none" stroke="midnightblue" d="M1274.91,-171.91C1270.65,-164.36 1264.33,-153.14 1258.96,-143.62"/>
<polygon fill="midnightblue" stroke="midnightblue" points="1261.62,-142.21 1253.66,-135.21 1255.52,-145.65 1261.62,-142.21"/>
</g>
<!-- Node47&#45;&gt;Node15 -->
<g id="edge76" class="edge">
<title>Node47&#45;&gt;Node15</title>
<path fill="none" stroke="midnightblue" d="M926.19,-399.59C921,-380.73 909.75,-335.35 909.75,-296.5 909.75,-296.5 909.75,-296.5 909.75,-180.5 909.75,-149.08 910.7,-133.1 885.75,-114 847.24,-84.51 498.99,-83.05 450.75,-78 438.98,-76.77 426.19,-75.23 414.57,-73.74"/>
<polygon fill="midnightblue" stroke="midnightblue" points="415.22,-70.17 404.85,-72.35 414.32,-77.11 415.22,-70.17"/>
</g>
<!-- Node47&#45;&gt;Node19 -->
<g id="edge70" class="edge">
<title>Node47&#45;&gt;Node19</title>
<path fill="none" stroke="midnightblue" d="M906.23,-399.52C856.58,-379.73 737.54,-332.29 679.99,-309.35"/>
<polygon fill="midnightblue" stroke="midnightblue" points="681.57,-305.81 670.99,-305.36 678.98,-312.32 681.57,-305.81"/>
</g>
<!-- Node47&#45;&gt;Node25 -->
<g id="edge69" class="edge">
<title>Node47&#45;&gt;Node25</title>
<path fill="none" stroke="midnightblue" d="M899.5,-408.52C823.95,-408.01 624.72,-402.82 574.75,-363 525.61,-323.84 504.8,-284.28 532.75,-228 539.31,-214.79 551.75,-204.38 563.6,-196.88"/>
<polygon fill="midnightblue" stroke="midnightblue" points="564.98,-199.54 571.86,-191.48 561.46,-193.49 564.98,-199.54"/>
</g>
<!-- Node47&#45;&gt;Node36 -->
<g id="edge72" class="edge">
<title>Node47&#45;&gt;Node36</title>
<path fill="none" stroke="midnightblue" d="M933.49,-399.89C947.98,-373.56 991.89,-293.77 1011.77,-257.63"/>
<polygon fill="midnightblue" stroke="midnightblue" points="1015.15,-259.75 1016.91,-249.3 1009.02,-256.37 1015.15,-259.75"/>
</g>
<!-- Node47&#45;&gt;Node42 -->
<g id="edge80" class="edge">
<title>Node47&#45;&gt;Node42</title>
<path fill="none" stroke="midnightblue" d="M958.01,-400.57C1032.38,-380.01 1222.75,-324.63 1222.75,-296.5 1222.75,-296.5 1222.75,-296.5 1222.75,-237.5 1222.75,-203.41 1208.15,-165.9 1198.08,-144.1"/>
<polygon fill="midnightblue" stroke="midnightblue" points="1200.82,-142.72 1193.34,-135.23 1194.52,-145.75 1200.82,-142.72"/>
</g>
<!-- Node48 -->
<g id="node45" class="node">
<title>Node48</title>
<g id="a_node45"><a xlink:href="_triangle_8h.html" target="_top" xlink:title=" ">
<polygon fill="none" stroke="black" points="1288.75,-342.5 1288.75,-362.5 1346.75,-362.5 1346.75,-342.5 1288.75,-342.5"/>
<text text-anchor="middle" x="1317.75" y="-349" font-family="Helvetica,sans-Serif" font-size="10.00">Triangle.h</text>
</a>
</g>
</g>
<!-- Node47&#45;&gt;Node48 -->
<g id="edge71" class="edge">
<title>Node47&#45;&gt;Node48</title>
<path fill="none" stroke="midnightblue" d="M958.06,-400.95C961.31,-400.24 964.59,-399.57 967.75,-399 1102.96,-374.7 1139.28,-385.85 1274.75,-363 1276.06,-362.78 1277.4,-362.54 1278.75,-362.3"/>
<polygon fill="midnightblue" stroke="midnightblue" points="1279.02,-365.61 1288.15,-360.24 1277.66,-358.75 1279.02,-365.61"/>
</g>
<!-- Node49 -->
<g id="node46" class="node">
<title>Node49</title>
<g id="a_node46"><a xlink:href="_pube_screen_transformer_8h.html" target="_top" xlink:title=" ">
<polygon fill="none" stroke="black" points="583.5,-342.5 583.5,-362.5 712,-362.5 712,-342.5 583.5,-342.5"/>
<text text-anchor="middle" x="647.75" y="-349" font-family="Helvetica,sans-Serif" font-size="10.00">PubeScreenTransformer.h</text>
</a>
</g>
</g>
<!-- Node47&#45;&gt;Node49 -->
<g id="edge73" class="edge">
<title>Node47&#45;&gt;Node49</title>
<path fill="none" stroke="midnightblue" d="M899.47,-402.77C853.42,-393.76 763.24,-376.11 704.26,-364.56"/>
<polygon fill="midnightblue" stroke="midnightblue" points="705.11,-360.97 694.63,-362.48 703.77,-367.84 705.11,-360.97"/>
</g>
<!-- Node50 -->
<g id="node47" class="node">
<title>Node50</title>
<g id="a_node47"><a xlink:href="_z_buffer_8h.html" target="_top" xlink:title=" ">
<polygon fill="none" stroke="black" points="1326.62,-171.5 1326.62,-191.5 1380.88,-191.5 1380.88,-171.5 1326.62,-171.5"/>
<text text-anchor="middle" x="1353.75" y="-178" font-family="Helvetica,sans-Serif" font-size="10.00">ZBuffer.h</text>
</a>
</g>
</g>
<!-- Node47&#45;&gt;Node50 -->
<g id="edge77" class="edge">
<title>Node47&#45;&gt;Node50</title>
<path fill="none" stroke="midnightblue" d="M958.07,-401.01C961.32,-400.28 964.6,-399.59 967.75,-399 1086.29,-376.7 1134.83,-427.52 1236.75,-363 1298.52,-323.9 1334.23,-239.06 1347.62,-201.29"/>
<polygon fill="midnightblue" stroke="midnightblue" points="1351.15,-202.78 1351.07,-192.18 1344.53,-200.52 1351.15,-202.78"/>
</g>
<!-- Node49&#45;&gt;Node19 -->
<g id="edge74" class="edge">
<title>Node49&#45;&gt;Node19</title>
<path fill="none" stroke="midnightblue" d="M647.75,-342.91C647.75,-335.76 647.75,-325.32 647.75,-316.15"/>
<polygon fill="midnightblue" stroke="midnightblue" points="651.25,-316.21 647.75,-306.21 644.25,-316.21 651.25,-316.21"/>
</g>
<!-- Node49&#45;&gt;Node23 -->
<g id="edge75" class="edge">
<title>Node49&#45;&gt;Node23</title>
<path fill="none" stroke="midnightblue" d="M598.11,-342.55C533.06,-329.3 417,-300.31 329.75,-249 297.77,-230.19 283.53,-226.04 268.75,-192 260.75,-173.57 275.82,-154.36 290.08,-141.35"/>
<polygon fill="midnightblue" stroke="midnightblue" points="291.84,-143.6 297.2,-134.47 287.31,-138.26 291.84,-143.6"/>
</g>
<!-- Node50&#45;&gt;Node10 -->
<g id="edge78" class="edge">
<title>Node50&#45;&gt;Node10</title>
<path fill="none" stroke="midnightblue" d="M1360.38,-171.84C1369.28,-159.1 1383.18,-134.59 1375.75,-114 1362.78,-78.04 1331.09,-45.76 1310.29,-27.42"/>
<polygon fill="midnightblue" stroke="midnightblue" points="1313,-24.28 1303.12,-20.44 1308.45,-29.6 1313,-24.28"/>
</g>
<!-- Node50&#45;&gt;Node41 -->
<g id="edge79" class="edge">
<title>Node50&#45;&gt;Node41</title>
<path fill="none" stroke="midnightblue" d="M1352.03,-171.91C1350.59,-164.68 1348.47,-154.09 1346.62,-144.85"/>
<polygon fill="midnightblue" stroke="midnightblue" points="1349.89,-144.33 1344.49,-135.21 1343.02,-145.71 1349.89,-144.33"/>
</g>
<!-- Node51&#45;&gt;Node47 -->
<g id="edge82" class="edge">
<title>Node51&#45;&gt;Node47</title>
<path fill="none" stroke="midnightblue" d="M1015.2,-456.66C999,-448.01 974.08,-434.7 955.14,-424.59"/>
<polygon fill="midnightblue" stroke="midnightblue" points="957.07,-421.12 946.6,-419.5 953.77,-427.3 957.07,-421.12"/>
</g>
<!-- Node52 -->
<g id="node49" class="node">
<title>Node52</title>
<g id="a_node49"><a xlink:href="_default_vertex_shader_8h.html" target="_top" xlink:title=" ">
<polygon fill="none" stroke="black" points="976.5,-399.5 976.5,-419.5 1129,-419.5 1129,-399.5 976.5,-399.5"/>
<text text-anchor="middle" x="1052.75" y="-406" font-family="Helvetica,sans-Serif" font-size="10.00">Shaders/DefaultVertexShader.h</text>
</a>
</g>
</g>
<!-- Node51&#45;&gt;Node52 -->
<g id="edge83" class="edge">
<title>Node51&#45;&gt;Node52</title>
<path fill="none" stroke="midnightblue" d="M1035.03,-456.91C1037.85,-449.52 1042.01,-438.62 1045.6,-429.23"/>
<polygon fill="midnightblue" stroke="midnightblue" points="1049.13,-430.81 1049.42,-420.21 1042.59,-428.31 1049.13,-430.81"/>
</g>
<!-- Node53 -->
<g id="node50" class="node">
<title>Node53</title>
<g id="a_node50"><a xlink:href="_default_geometry_shader_8h.html" target="_top" xlink:title=" ">
<polygon fill="none" stroke="black" points="1190.38,-399.5 1190.38,-419.5 1357.12,-419.5 1357.12,-399.5 1190.38,-399.5"/>
<text text-anchor="middle" x="1273.75" y="-406" font-family="Helvetica,sans-Serif" font-size="10.00">Shaders/DefaultGeometryShader.h</text>
</a>
</g>
</g>
<!-- Node51&#45;&gt;Node53 -->
<g id="edge84" class="edge">
<title>Node51&#45;&gt;Node53</title>
<path fill="none" stroke="midnightblue" d="M1071.17,-456.54C1112.83,-447.07 1178.64,-432.11 1223.89,-421.83"/>
<polygon fill="midnightblue" stroke="midnightblue" points="1224.37,-425.08 1233.35,-419.46 1222.82,-418.26 1224.37,-425.08"/>
</g>
<!-- Node53&#45;&gt;Node48 -->
<g id="edge85" class="edge">
<title>Node53&#45;&gt;Node48</title>
<path fill="none" stroke="midnightblue" d="M1280.62,-399.91C1286.85,-392.12 1296.21,-380.42 1303.98,-370.71"/>
<polygon fill="midnightblue" stroke="midnightblue" points="1307.26,-373.21 1310.78,-363.21 1301.8,-368.84 1307.26,-373.21"/>
</g>
</g>
</svg>
