<?xml version="1.0" encoding="UTF-8" standalone="no"?>
<!DOCTYPE svg PUBLIC "-//W3C//DTD SVG 1.1//EN"
 "http://www.w3.org/Graphics/SVG/1.1/DTD/svg11.dtd">
<!-- Generated by graphviz version 8.1.0 (20230707.0739)
 -->
<!-- Title: include/Scenes/CubeVertexPositionColorScene.h Pages: 1 -->
<svg width="1132pt" height="566pt"
 viewBox="0.00 0.00 1132.00 566.00" xmlns="http://www.w3.org/2000/svg" xmlns:xlink="http://www.w3.org/1999/xlink">
<g id="graph0" class="graph" transform="scale(1 1) rotate(0) translate(4 562)">
<title>include/Scenes/CubeVertexPositionColorScene.h</title>
<!-- Node1 -->
<g id="node1" class="node">
<title>Node1</title>
<g id="a_node1"><a xlink:title=" ">
<polygon fill="#bfbfbf" stroke="black" points="721.62,-525.5 721.62,-557.5 858.38,-557.5 858.38,-525.5 721.62,-525.5"/>
<text text-anchor="start" x="729.62" y="-544" font-family="Helvetica,sans-Serif" font-size="10.00">include/Scenes/CubeVertex</text>
<text text-anchor="middle" x="790" y="-532" font-family="Helvetica,sans-Serif" font-size="10.00">PositionColorScene.h</text>
</a>
</g>
</g>
<!-- Node2 -->
<g id="node2" class="node">
<title>Node2</title>
<g id="a_node2"><a xlink:href="_scene_8h.html" target="_top" xlink:title=" ">
<polygon fill="none" stroke="black" points="325,-342.5 325,-362.5 377,-362.5 377,-342.5 325,-342.5"/>
<text text-anchor="middle" x="351" y="-349" font-family="Helvetica,sans-Serif" font-size="10.00">Scene.h</text>
</a>
</g>
</g>
<!-- Node1&#45;&gt;Node2 -->
<g id="edge1" class="edge">
<title>Node1&#45;&gt;Node2</title>
<path fill="none" stroke="midnightblue" d="M754.82,-525.51C671.09,-489.85 461.08,-400.39 381.88,-366.65"/>
<polygon fill="midnightblue" stroke="midnightblue" points="383.6,-363.15 373.02,-362.46 380.85,-369.59 383.6,-363.15"/>
</g>
<!-- Node15 -->
<g id="node15" class="node">
<title>Node15</title>
<g id="a_node15"><a xlink:href="_matrix3_8h.html" target="_top" xlink:title=" ">
<polygon fill="none" stroke="black" points="385.75,-57.5 385.75,-77.5 442.25,-77.5 442.25,-57.5 385.75,-57.5"/>
<text text-anchor="middle" x="414" y="-64" font-family="Helvetica,sans-Serif" font-size="10.00">Matrix3.h</text>
</a>
</g>
</g>
<!-- Node1&#45;&gt;Node15 -->
<g id="edge57" class="edge">
<title>Node1&#45;&gt;Node15</title>
<path fill="none" stroke="midnightblue" d="M857.99,-528.31C955.65,-508.83 1124,-467.05 1124,-410.5 1124,-410.5 1124,-410.5 1124,-180.5 1124,-123.37 1068.41,-131.41 1014,-114 908.92,-80.37 568.8,-71.26 453.01,-69.1"/>
<polygon fill="midnightblue" stroke="midnightblue" points="453.27,-65.59 443.21,-68.91 453.15,-72.59 453.27,-65.59"/>
</g>
<!-- Node34 -->
<g id="node34" class="node">
<title>Node34</title>
<g id="a_node34"><a xlink:href="_cube_8h.html" target="_top" xlink:title=" ">
<polygon fill="none" stroke="black" points="184.12,-228.5 184.12,-248.5 275.88,-248.5 275.88,-228.5 184.12,-228.5"/>
<text text-anchor="middle" x="230" y="-235" font-family="Helvetica,sans-Serif" font-size="10.00">Primitives/Cube.h</text>
</a>
</g>
</g>
<!-- Node1&#45;&gt;Node34 -->
<g id="edge51" class="edge">
<title>Node1&#45;&gt;Node34</title>
<path fill="none" stroke="midnightblue" d="M721.85,-539.05C571.58,-533.99 225,-511.4 225,-410.5 225,-410.5 225,-410.5 225,-351.5 225,-319.15 227.11,-281.59 228.59,-259.23"/>
<polygon fill="midnightblue" stroke="midnightblue" points="232.13,-259.71 229.33,-249.49 225.15,-259.23 232.13,-259.71"/>
</g>
<!-- Node37 -->
<g id="node37" class="node">
<title>Node37</title>
<g id="a_node37"><a xlink:href="_pipeline_8h.html" target="_top" xlink:title=" ">
<polygon fill="none" stroke="black" points="808.62,-399.5 808.62,-419.5 867.38,-419.5 867.38,-399.5 808.62,-399.5"/>
<text text-anchor="middle" x="838" y="-406" font-family="Helvetica,sans-Serif" font-size="10.00">Pipeline.h</text>
</a>
</g>
</g>
<!-- Node1&#45;&gt;Node37 -->
<g id="edge58" class="edge">
<title>Node1&#45;&gt;Node37</title>
<path fill="none" stroke="midnightblue" d="M791.75,-525.68C794.15,-508.43 799.3,-479.32 809,-456 813.04,-446.29 819.12,-436.34 824.67,-428.23"/>
<polygon fill="midnightblue" stroke="midnightblue" points="828.02,-430.56 831,-420.39 822.33,-426.48 828.02,-430.56"/>
</g>
<!-- Node43 -->
<g id="node43" class="node">
<title>Node43</title>
<g id="a_node43"><a xlink:href="_vertex_position_color_effect_8h.html" target="_top" xlink:title=" ">
<polygon fill="none" stroke="black" points="818.38,-456.5 818.38,-488.5 953.62,-488.5 953.62,-456.5 818.38,-456.5"/>
<text text-anchor="start" x="826.38" y="-475" font-family="Helvetica,sans-Serif" font-size="10.00">Effects/VertexPositionColor</text>
<text text-anchor="middle" x="886" y="-463" font-family="Helvetica,sans-Serif" font-size="10.00">Effect.h</text>
</a>
</g>
</g>
<!-- Node1&#45;&gt;Node43 -->
<g id="edge71" class="edge">
<title>Node1&#45;&gt;Node43</title>
<path fill="none" stroke="midnightblue" d="M811.31,-525.63C824.48,-516.44 841.59,-504.5 856.11,-494.36"/>
<polygon fill="midnightblue" stroke="midnightblue" points="857.56,-496.92 863.75,-488.33 853.55,-491.18 857.56,-496.92"/>
</g>
<!-- Node3 -->
<g id="node3" class="node">
<title>Node3</title>
<g id="a_node3"><a xlink:href="_keyboard_8h.html" target="_top" xlink:title=" ">
<polygon fill="none" stroke="black" points="54.25,-285.5 54.25,-305.5 119.75,-305.5 119.75,-285.5 54.25,-285.5"/>
<text text-anchor="middle" x="87" y="-292" font-family="Helvetica,sans-Serif" font-size="10.00">Keyboard.h</text>
</a>
</g>
</g>
<!-- Node2&#45;&gt;Node3 -->
<g id="edge2" class="edge">
<title>Node2&#45;&gt;Node3</title>
<path fill="none" stroke="midnightblue" d="M325.06,-344.23C322.01,-343.44 318.94,-342.68 316,-342 236.85,-323.67 213.68,-323.33 130.29,-306.2"/>
<polygon fill="midnightblue" stroke="midnightblue" points="131.04,-302.58 120.54,-303.97 129.62,-309.43 131.04,-302.58"/>
</g>
<!-- Node6 -->
<g id="node6" class="node">
<title>Node6</title>
<g id="a_node6"><a xlink:href="_mouse_8h.html" target="_top" xlink:title=" ">
<polygon fill="none" stroke="black" points="138.25,-285.5 138.25,-305.5 191.75,-305.5 191.75,-285.5 138.25,-285.5"/>
<text text-anchor="middle" x="165" y="-292" font-family="Helvetica,sans-Serif" font-size="10.00">Mouse.h</text>
</a>
</g>
</g>
<!-- Node2&#45;&gt;Node6 -->
<g id="edge5" class="edge">
<title>Node2&#45;&gt;Node6</title>
<path fill="none" stroke="midnightblue" d="M325.14,-343.85C293.07,-334.37 238.19,-318.14 201.75,-307.37"/>
<polygon fill="midnightblue" stroke="midnightblue" points="203.13,-303.83 192.54,-304.35 201.14,-310.54 203.13,-303.83"/>
</g>
<!-- Node19 -->
<g id="node19" class="node">
<title>Node19</title>
<g id="a_node19"><a xlink:href="_graphics_8h.html" target="_top" xlink:title=" ">
<polygon fill="none" stroke="black" points="661.38,-285.5 661.38,-305.5 724.62,-305.5 724.62,-285.5 661.38,-285.5"/>
<text text-anchor="middle" x="693" y="-292" font-family="Helvetica,sans-Serif" font-size="10.00">Graphics.h</text>
</a>
</g>
</g>
<!-- Node2&#45;&gt;Node19 -->
<g id="edge25" class="edge">
<title>Node2&#45;&gt;Node19</title>
<path fill="none" stroke="midnightblue" d="M376.99,-347.32C435.77,-337.87 579.42,-314.77 651.01,-303.25"/>
<polygon fill="midnightblue" stroke="midnightblue" points="651.13,-306.62 660.45,-301.57 650.02,-299.71 651.13,-306.62"/>
</g>
<!-- Node21 -->
<g id="node21" class="node">
<title>Node21</title>
<g id="a_node21"><a xlink:title=" ">
<polygon fill="none" stroke="#bfbfbf" points="698,-114.5 698,-134.5 738,-134.5 738,-114.5 698,-114.5"/>
<text text-anchor="middle" x="718" y="-121" font-family="Helvetica,sans-Serif" font-size="10.00">string</text>
</a>
</g>
</g>
<!-- Node2&#45;&gt;Node21 -->
<g id="edge50" class="edge">
<title>Node2&#45;&gt;Node21</title>
<path fill="none" stroke="midnightblue" d="M358.39,-342.87C383.55,-314.04 469.36,-220.09 560,-171 601.2,-148.69 654.53,-136.28 687.49,-130.25"/>
<polygon fill="midnightblue" stroke="midnightblue" points="687.99,-133.54 697.24,-128.38 686.79,-126.65 687.99,-133.54"/>
</g>
<!-- Node4 -->
<g id="node4" class="node">
<title>Node4</title>
<g id="a_node4"><a xlink:title=" ">
<polygon fill="none" stroke="#bfbfbf" points="28,-228.5 28,-248.5 68,-248.5 68,-228.5 28,-228.5"/>
<text text-anchor="middle" x="48" y="-235" font-family="Helvetica,sans-Serif" font-size="10.00">bitset</text>
</a>
</g>
</g>
<!-- Node3&#45;&gt;Node4 -->
<g id="edge3" class="edge">
<title>Node3&#45;&gt;Node4</title>
<path fill="none" stroke="midnightblue" d="M80.91,-285.91C75.44,-278.2 67.26,-266.66 60.42,-257.02"/>
<polygon fill="midnightblue" stroke="midnightblue" points="62.82,-255.35 54.18,-249.21 57.11,-259.4 62.82,-255.35"/>
</g>
<!-- Node5 -->
<g id="node5" class="node">
<title>Node5</title>
<g id="a_node5"><a xlink:title=" ">
<polygon fill="none" stroke="#bfbfbf" points="85.88,-228.5 85.88,-248.5 128.12,-248.5 128.12,-228.5 85.88,-228.5"/>
<text text-anchor="middle" x="107" y="-235" font-family="Helvetica,sans-Serif" font-size="10.00">queue</text>
</a>
</g>
</g>
<!-- Node3&#45;&gt;Node5 -->
<g id="edge4" class="edge">
<title>Node3&#45;&gt;Node5</title>
<path fill="none" stroke="midnightblue" d="M90.12,-285.91C92.78,-278.6 96.69,-267.85 100.08,-258.54"/>
<polygon fill="midnightblue" stroke="midnightblue" points="103.7,-259.81 103.83,-249.21 97.12,-257.42 103.7,-259.81"/>
</g>
<!-- Node6&#45;&gt;Node5 -->
<g id="edge24" class="edge">
<title>Node6&#45;&gt;Node5</title>
<path fill="none" stroke="midnightblue" d="M155.68,-285.66C147.28,-277.69 134.69,-265.76 124.43,-256.02"/>
<polygon fill="midnightblue" stroke="midnightblue" points="127.15,-253.84 117.49,-249.5 122.34,-258.92 127.15,-253.84"/>
</g>
<!-- Node7 -->
<g id="node7" class="node">
<title>Node7</title>
<g id="a_node7"><a xlink:href="_vector2_8h.html" target="_top" xlink:title=" ">
<polygon fill="none" stroke="black" points="132.88,-114.5 132.88,-134.5 253.12,-134.5 253.12,-114.5 132.88,-114.5"/>
<text text-anchor="middle" x="193" y="-121" font-family="Helvetica,sans-Serif" font-size="10.00">LinearAlgebra/Vector2.h</text>
</a>
</g>
</g>
<!-- Node6&#45;&gt;Node7 -->
<g id="edge6" class="edge">
<title>Node6&#45;&gt;Node7</title>
<path fill="none" stroke="midnightblue" d="M166.23,-285.88C168.05,-273.19 171.62,-248.74 175,-228 179.71,-199.07 185.68,-165.64 189.42,-145.03"/>
<polygon fill="midnightblue" stroke="midnightblue" points="193.04,-145.73 191.39,-135.26 186.15,-144.47 193.04,-145.73"/>
</g>
<!-- Node8 -->
<g id="node8" class="node">
<title>Node8</title>
<g id="a_node8"><a xlink:href="_math_8h.html" target="_top" xlink:title=" ">
<polygon fill="none" stroke="black" points="266,-57.5 266,-77.5 312,-77.5 312,-57.5 266,-57.5"/>
<text text-anchor="middle" x="289" y="-64" font-family="Helvetica,sans-Serif" font-size="10.00">Math.h</text>
</a>
</g>
</g>
<!-- Node7&#45;&gt;Node8 -->
<g id="edge7" class="edge">
<title>Node7&#45;&gt;Node8</title>
<path fill="none" stroke="midnightblue" d="M208.42,-114.66C223.45,-106.05 246.54,-92.83 264.16,-82.73"/>
<polygon fill="midnightblue" stroke="midnightblue" points="265.36,-85.51 272.3,-77.5 261.88,-79.43 265.36,-85.51"/>
</g>
<!-- Node13 -->
<g id="node13" class="node">
<title>Node13</title>
<g id="a_node13"><a xlink:href="_matrix2_8h.html" target="_top" xlink:title=" ">
<polygon fill="none" stroke="black" points="43.75,-57.5 43.75,-77.5 100.25,-77.5 100.25,-57.5 43.75,-57.5"/>
<text text-anchor="middle" x="72" y="-64" font-family="Helvetica,sans-Serif" font-size="10.00">Matrix2.h</text>
</a>
</g>
</g>
<!-- Node7&#45;&gt;Node13 -->
<g id="edge13" class="edge">
<title>Node7&#45;&gt;Node13</title>
<path fill="none" stroke="midnightblue" d="M173.29,-114.54C153.87,-105.71 123.94,-92.11 101.65,-81.98"/>
<polygon fill="midnightblue" stroke="midnightblue" points="103.25,-78.41 92.7,-77.46 100.36,-84.78 103.25,-78.41"/>
</g>
<!-- Node14 -->
<g id="node14" class="node">
<title>Node14</title>
<g id="a_node14"><a xlink:title=" ">
<polygon fill="none" stroke="#bfbfbf" points="111.25,-0.5 111.25,-20.5 164.75,-20.5 164.75,-0.5 111.25,-0.5"/>
<text text-anchor="middle" x="138" y="-7" font-family="Helvetica,sans-Serif" font-size="10.00">iostream</text>
</a>
</g>
</g>
<!-- Node7&#45;&gt;Node14 -->
<g id="edge23" class="edge">
<title>Node7&#45;&gt;Node14</title>
<path fill="none" stroke="midnightblue" d="M180.17,-114.64C169.41,-106.45 154.62,-93.28 147,-78 139.68,-63.32 137.69,-44.68 137.38,-30.87"/>
<polygon fill="midnightblue" stroke="midnightblue" points="140.88,-31.22 137.45,-21.2 133.88,-31.18 140.88,-31.22"/>
</g>
<!-- Node7&#45;&gt;Node15 -->
<g id="edge15" class="edge">
<title>Node7&#45;&gt;Node15</title>
<path fill="none" stroke="midnightblue" d="M229,-114.54C269.31,-104.51 334.37,-88.32 375.62,-78.05"/>
<polygon fill="midnightblue" stroke="midnightblue" points="376.22,-81.26 385.08,-75.45 374.53,-74.47 376.22,-81.26"/>
</g>
<!-- Node16 -->
<g id="node16" class="node">
<title>Node16</title>
<g id="a_node16"><a xlink:title=" ">
<polygon fill="none" stroke="#bfbfbf" points="395.12,-0.5 395.12,-20.5 432.88,-20.5 432.88,-0.5 395.12,-0.5"/>
<text text-anchor="middle" x="414" y="-7" font-family="Helvetica,sans-Serif" font-size="10.00">array</text>
</a>
</g>
</g>
<!-- Node7&#45;&gt;Node16 -->
<g id="edge20" class="edge">
<title>Node7&#45;&gt;Node16</title>
<path fill="none" stroke="midnightblue" d="M238.44,-114.58C268.31,-107.48 307.55,-95.74 339,-78 362.56,-64.7 385.17,-43.03 399.29,-28.06"/>
<polygon fill="midnightblue" stroke="midnightblue" points="401.38,-30.86 405.57,-21.13 396.23,-26.13 401.38,-30.86"/>
</g>
<!-- Node17 -->
<g id="node17" class="node">
<title>Node17</title>
<g id="a_node17"><a xlink:title=" ">
<polygon fill="none" stroke="#bfbfbf" points="484.25,-0.5 484.25,-20.5 531.75,-20.5 531.75,-0.5 484.25,-0.5"/>
<text text-anchor="middle" x="508" y="-7" font-family="Helvetica,sans-Serif" font-size="10.00">cstddef</text>
</a>
</g>
</g>
<!-- Node7&#45;&gt;Node17 -->
<g id="edge22" class="edge">
<title>Node7&#45;&gt;Node17</title>
<path fill="none" stroke="midnightblue" d="M252.93,-115.1C323.71,-104.85 434.04,-87.68 451,-78 471.37,-66.38 487.88,-44.63 497.79,-29.17"/>
<polygon fill="midnightblue" stroke="midnightblue" points="501.11,-31.45 503.33,-21.09 495.14,-27.8 501.11,-31.45"/>
</g>
<!-- Node18 -->
<g id="node18" class="node">
<title>Node18</title>
<g id="a_node18"><a xlink:title=" ">
<polygon fill="none" stroke="#bfbfbf" points="156.25,-57.5 156.25,-77.5 209.75,-77.5 209.75,-57.5 156.25,-57.5"/>
<text text-anchor="middle" x="183" y="-64" font-family="Helvetica,sans-Serif" font-size="10.00">compare</text>
</a>
</g>
</g>
<!-- Node7&#45;&gt;Node18 -->
<g id="edge21" class="edge">
<title>Node7&#45;&gt;Node18</title>
<path fill="none" stroke="midnightblue" d="M191.44,-114.91C190.12,-107.68 188.2,-97.09 186.52,-87.85"/>
<polygon fill="midnightblue" stroke="midnightblue" points="189.82,-87.43 184.58,-78.21 182.93,-88.68 189.82,-87.43"/>
</g>
<!-- Node8&#45;&gt;Node8 -->
<g id="edge8" class="edge">
<title>Node8&#45;&gt;Node8</title>
<path fill="none" stroke="midnightblue" d="M307.55,-77.43C319.05,-79.83 330,-76.52 330,-67.5 330,-61.44 325.06,-57.96 318.33,-57.05"/>
<polygon fill="midnightblue" stroke="midnightblue" points="318.37,-53.59 308.55,-57.57 318.71,-60.59 318.37,-53.59"/>
</g>
<!-- Node9 -->
<g id="node9" class="node">
<title>Node9</title>
<g id="a_node9"><a xlink:title=" ">
<polygon fill="none" stroke="#bfbfbf" points="333.5,-0.5 333.5,-20.5 376.5,-20.5 376.5,-0.5 333.5,-0.5"/>
<text text-anchor="middle" x="355" y="-7" font-family="Helvetica,sans-Serif" font-size="10.00">cmath</text>
</a>
</g>
</g>
<!-- Node8&#45;&gt;Node9 -->
<g id="edge9" class="edge">
<title>Node8&#45;&gt;Node9</title>
<path fill="none" stroke="midnightblue" d="M299.6,-57.66C309.36,-49.53 324.06,-37.28 335.87,-27.44"/>
<polygon fill="midnightblue" stroke="midnightblue" points="337.76,-29.59 343.2,-20.5 333.28,-24.21 337.76,-29.59"/>
</g>
<!-- Node10 -->
<g id="node10" class="node">
<title>Node10</title>
<g id="a_node10"><a xlink:title=" ">
<polygon fill="none" stroke="#bfbfbf" points="18.38,-0.5 18.38,-20.5 57.62,-20.5 57.62,-0.5 18.38,-0.5"/>
<text text-anchor="middle" x="38" y="-7" font-family="Helvetica,sans-Serif" font-size="10.00">limits</text>
</a>
</g>
</g>
<!-- Node8&#45;&gt;Node10 -->
<g id="edge10" class="edge">
<title>Node8&#45;&gt;Node10</title>
<path fill="none" stroke="midnightblue" d="M266.28,-61.52C220.85,-51.57 118.78,-29.2 67.95,-18.06"/>
<polygon fill="midnightblue" stroke="midnightblue" points="68.86,-14.46 58.34,-15.74 67.36,-21.3 68.86,-14.46"/>
</g>
<!-- Node11 -->
<g id="node11" class="node">
<title>Node11</title>
<g id="a_node11"><a xlink:title=" ">
<polygon fill="none" stroke="#bfbfbf" points="194.25,-0.5 194.25,-20.5 247.75,-20.5 247.75,-0.5 194.25,-0.5"/>
<text text-anchor="middle" x="221" y="-7" font-family="Helvetica,sans-Serif" font-size="10.00">numbers</text>
</a>
</g>
</g>
<!-- Node8&#45;&gt;Node11 -->
<g id="edge11" class="edge">
<title>Node8&#45;&gt;Node11</title>
<path fill="none" stroke="midnightblue" d="M278.07,-57.66C267.92,-49.45 252.58,-37.04 240.35,-27.15"/>
<polygon fill="midnightblue" stroke="midnightblue" points="243.1,-24.06 233.12,-20.5 238.7,-29.51 243.1,-24.06"/>
</g>
<!-- Node12 -->
<g id="node12" class="node">
<title>Node12</title>
<g id="a_node12"><a xlink:title=" ">
<polygon fill="none" stroke="#bfbfbf" points="265.88,-0.5 265.88,-20.5 314.12,-20.5 314.12,-0.5 265.88,-0.5"/>
<text text-anchor="middle" x="290" y="-7" font-family="Helvetica,sans-Serif" font-size="10.00">random</text>
</a>
</g>
</g>
<!-- Node8&#45;&gt;Node12 -->
<g id="edge12" class="edge">
<title>Node8&#45;&gt;Node12</title>
<path fill="none" stroke="midnightblue" d="M289.16,-57.91C289.29,-50.76 289.48,-40.32 289.64,-31.15"/>
<polygon fill="midnightblue" stroke="midnightblue" points="293.16,-31.28 289.84,-21.21 286.16,-31.15 293.16,-31.28"/>
</g>
<!-- Node13&#45;&gt;Node14 -->
<g id="edge14" class="edge">
<title>Node13&#45;&gt;Node14</title>
<path fill="none" stroke="midnightblue" d="M82.6,-57.66C92.36,-49.53 107.06,-37.28 118.87,-27.44"/>
<polygon fill="midnightblue" stroke="midnightblue" points="120.76,-29.59 126.2,-20.5 116.28,-24.21 120.76,-29.59"/>
</g>
<!-- Node15&#45;&gt;Node9 -->
<g id="edge17" class="edge">
<title>Node15&#45;&gt;Node9</title>
<path fill="none" stroke="midnightblue" d="M404.52,-57.66C395.88,-49.61 382.91,-37.52 372.41,-27.73"/>
<polygon fill="midnightblue" stroke="midnightblue" points="375.35,-25.76 365.65,-21.5 370.58,-30.88 375.35,-25.76"/>
</g>
<!-- Node15&#45;&gt;Node14 -->
<g id="edge19" class="edge">
<title>Node15&#45;&gt;Node14</title>
<path fill="none" stroke="midnightblue" d="M385.79,-60.93C342.56,-52.38 257.33,-35.5 185,-21 181.76,-20.35 178.39,-19.67 175.01,-18.99"/>
<polygon fill="midnightblue" stroke="midnightblue" points="175.84,-15.39 165.35,-16.84 174.46,-22.25 175.84,-15.39"/>
</g>
<!-- Node15&#45;&gt;Node16 -->
<g id="edge16" class="edge">
<title>Node15&#45;&gt;Node16</title>
<path fill="none" stroke="midnightblue" d="M414,-57.91C414,-50.76 414,-40.32 414,-31.15"/>
<polygon fill="midnightblue" stroke="midnightblue" points="417.5,-31.21 414,-21.21 410.5,-31.21 417.5,-31.21"/>
</g>
<!-- Node15&#45;&gt;Node17 -->
<g id="edge18" class="edge">
<title>Node15&#45;&gt;Node17</title>
<path fill="none" stroke="midnightblue" d="M429.1,-57.66C443.68,-49.13 466.01,-36.07 483.19,-26.01"/>
<polygon fill="midnightblue" stroke="midnightblue" points="484.76,-28.57 491.62,-20.5 481.22,-22.53 484.76,-28.57"/>
</g>
<!-- Node20 -->
<g id="node20" class="node">
<title>Node20</title>
<g id="a_node20"><a xlink:href="_engine_exception_8h.html" target="_top" xlink:title=" ">
<polygon fill="none" stroke="black" points="824.12,-171.5 824.12,-191.5 921.88,-191.5 921.88,-171.5 824.12,-171.5"/>
<text text-anchor="middle" x="873" y="-178" font-family="Helvetica,sans-Serif" font-size="10.00">EngineException.h</text>
</a>
</g>
</g>
<!-- Node19&#45;&gt;Node20 -->
<g id="edge26" class="edge">
<title>Node19&#45;&gt;Node20</title>
<path fill="none" stroke="midnightblue" d="M696.9,-285.84C703.68,-271.72 718.95,-243.76 740,-228 761.62,-211.81 789.41,-201.12 813.99,-194.19"/>
<polygon fill="midnightblue" stroke="midnightblue" points="814.54,-197.4 823.3,-191.45 812.74,-190.64 814.54,-197.4"/>
</g>
<!-- Node22 -->
<g id="node22" class="node">
<title>Node22</title>
<g id="a_node22"><a xlink:href="_vector3_8h.html" target="_top" xlink:title=" ">
<polygon fill="none" stroke="black" points="342.88,-114.5 342.88,-134.5 463.12,-134.5 463.12,-114.5 342.88,-114.5"/>
<text text-anchor="middle" x="403" y="-121" font-family="Helvetica,sans-Serif" font-size="10.00">LinearAlgebra/Vector3.h</text>
</a>
</g>
</g>
<!-- Node19&#45;&gt;Node22 -->
<g id="edge28" class="edge">
<title>Node19&#45;&gt;Node22</title>
<path fill="none" stroke="midnightblue" d="M661.53,-287.75C612.05,-275.79 515.19,-246.82 452,-192 435.96,-178.09 422.08,-158.02 413.23,-143.58"/>
<polygon fill="midnightblue" stroke="midnightblue" points="415.81,-142.06 407.72,-135.22 409.78,-145.61 415.81,-142.06"/>
</g>
<!-- Node23 -->
<g id="node23" class="node">
<title>Node23</title>
<g id="a_node23"><a xlink:href="_g_d_i_plus_manager_8h.html" target="_top" xlink:title=" ">
<polygon fill="none" stroke="black" points="803.12,-228.5 803.12,-248.5 900.88,-248.5 900.88,-228.5 803.12,-228.5"/>
<text text-anchor="middle" x="852" y="-235" font-family="Helvetica,sans-Serif" font-size="10.00">GDIPlusManager.h</text>
</a>
</g>
</g>
<!-- Node19&#45;&gt;Node23 -->
<g id="edge35" class="edge">
<title>Node19&#45;&gt;Node23</title>
<path fill="none" stroke="midnightblue" d="M718.9,-285.54C745.23,-276.43 786.25,-262.24 815.79,-252.02"/>
<polygon fill="midnightblue" stroke="midnightblue" points="816.8,-255.03 825.11,-248.46 814.52,-248.42 816.8,-255.03"/>
</g>
<!-- Node27 -->
<g id="node27" class="node">
<title>Node27</title>
<g id="a_node27"><a xlink:href="_surface_8h.html" target="_top" xlink:title=" ">
<polygon fill="none" stroke="black" points="635.38,-228.5 635.38,-248.5 692.62,-248.5 692.62,-228.5 635.38,-228.5"/>
<text text-anchor="middle" x="664" y="-235" font-family="Helvetica,sans-Serif" font-size="10.00">Surface.h</text>
</a>
</g>
</g>
<!-- Node19&#45;&gt;Node27 -->
<g id="edge39" class="edge">
<title>Node19&#45;&gt;Node27</title>
<path fill="none" stroke="midnightblue" d="M688.47,-285.91C684.53,-278.44 678.7,-267.38 673.72,-257.93"/>
<polygon fill="midnightblue" stroke="midnightblue" points="676.36,-256.43 668.6,-249.21 670.16,-259.69 676.36,-256.43"/>
</g>
<!-- Node32 -->
<g id="node32" class="node">
<title>Node32</title>
<g id="a_node32"><a xlink:title=" ">
<polygon fill="none" stroke="#bfbfbf" points="566.75,-228.5 566.75,-248.5 617.25,-248.5 617.25,-228.5 566.75,-228.5"/>
<text text-anchor="middle" x="592" y="-235" font-family="Helvetica,sans-Serif" font-size="10.00">d3d11.h</text>
</a>
</g>
</g>
<!-- Node19&#45;&gt;Node32 -->
<g id="edge48" class="edge">
<title>Node19&#45;&gt;Node32</title>
<path fill="none" stroke="midnightblue" d="M676.77,-285.66C660.96,-277.05 636.67,-263.83 618.14,-253.73"/>
<polygon fill="midnightblue" stroke="midnightblue" points="619.98,-250.21 609.52,-248.5 616.63,-256.35 619.98,-250.21"/>
</g>
<!-- Node33 -->
<g id="node33" class="node">
<title>Node33</title>
<g id="a_node33"><a xlink:title=" ">
<polygon fill="none" stroke="#bfbfbf" points="748.88,-228.5 748.88,-248.5 785.12,-248.5 785.12,-228.5 748.88,-228.5"/>
<text text-anchor="middle" x="767" y="-235" font-family="Helvetica,sans-Serif" font-size="10.00">wrl.h</text>
</a>
</g>
</g>
<!-- Node19&#45;&gt;Node33 -->
<g id="edge49" class="edge">
<title>Node19&#45;&gt;Node33</title>
<path fill="none" stroke="midnightblue" d="M704.89,-285.66C716.04,-277.37 732.96,-264.8 746.32,-254.87"/>
<polygon fill="midnightblue" stroke="midnightblue" points="747.96,-257.27 753.89,-248.5 743.78,-251.65 747.96,-257.27"/>
</g>
<!-- Node20&#45;&gt;Node21 -->
<g id="edge27" class="edge">
<title>Node20&#45;&gt;Node21</title>
<path fill="none" stroke="midnightblue" d="M847.75,-171.54C820.52,-161.88 777.18,-146.5 748.17,-136.21"/>
<polygon fill="midnightblue" stroke="midnightblue" points="749.41,-132.58 738.82,-132.53 747.07,-139.18 749.41,-132.58"/>
</g>
<!-- Node22&#45;&gt;Node8 -->
<g id="edge29" class="edge">
<title>Node22&#45;&gt;Node8</title>
<path fill="none" stroke="midnightblue" d="M384.43,-114.54C366.21,-105.75 338.19,-92.23 317.22,-82.11"/>
<polygon fill="midnightblue" stroke="midnightblue" points="319.09,-78.65 308.56,-77.46 316.05,-84.95 319.09,-78.65"/>
</g>
<!-- Node22&#45;&gt;Node14 -->
<g id="edge32" class="edge">
<title>Node22&#45;&gt;Node14</title>
<path fill="none" stroke="midnightblue" d="M367.15,-114.56C337.13,-106.56 293.47,-93.67 257,-78 254.56,-76.95 197.16,-44.75 162.99,-25.55"/>
<polygon fill="midnightblue" stroke="midnightblue" points="165.05,-22.13 154.62,-20.29 161.63,-28.24 165.05,-22.13"/>
</g>
<!-- Node22&#45;&gt;Node15 -->
<g id="edge30" class="edge">
<title>Node22&#45;&gt;Node15</title>
<path fill="none" stroke="midnightblue" d="M404.72,-114.91C406.16,-107.68 408.28,-97.09 410.13,-87.85"/>
<polygon fill="midnightblue" stroke="midnightblue" points="413.73,-88.71 412.26,-78.21 406.86,-87.33 413.73,-88.71"/>
</g>
<!-- Node22&#45;&gt;Node16 -->
<g id="edge31" class="edge">
<title>Node22&#45;&gt;Node16</title>
<path fill="none" stroke="midnightblue" d="M417.37,-114.7C428.89,-106.72 444.2,-93.82 451,-78 458.69,-60.11 445.26,-40.77 432.48,-27.59"/>
<polygon fill="midnightblue" stroke="midnightblue" points="435.44,-25.63 425.8,-21.24 430.6,-30.68 435.44,-25.63"/>
</g>
<!-- Node22&#45;&gt;Node17 -->
<g id="edge34" class="edge">
<title>Node22&#45;&gt;Node17</title>
<path fill="none" stroke="midnightblue" d="M463.06,-115.1C485.38,-108.75 508.52,-97.59 522,-78 531.81,-63.75 525.79,-44.01 518.85,-29.74"/>
<polygon fill="midnightblue" stroke="midnightblue" points="521.46,-28.2 513.62,-21.08 515.31,-31.54 521.46,-28.2"/>
</g>
<!-- Node22&#45;&gt;Node18 -->
<g id="edge33" class="edge">
<title>Node22&#45;&gt;Node18</title>
<path fill="none" stroke="midnightblue" d="M367.16,-114.54C326.68,-104.42 261.1,-88.03 220.1,-77.78"/>
<polygon fill="midnightblue" stroke="midnightblue" points="221.03,-74.15 210.48,-75.12 219.34,-80.94 221.03,-74.15"/>
</g>
<!-- Node24 -->
<g id="node24" class="node">
<title>Node24</title>
<g id="a_node24"><a xlink:href="_win_8h.html" target="_top" xlink:title=" ">
<polygon fill="none" stroke="black" points="940.25,-171.5 940.25,-191.5 981.75,-191.5 981.75,-171.5 940.25,-171.5"/>
<text text-anchor="middle" x="961" y="-178" font-family="Helvetica,sans-Serif" font-size="10.00">Win.h</text>
</a>
</g>
</g>
<!-- Node23&#45;&gt;Node24 -->
<g id="edge36" class="edge">
<title>Node23&#45;&gt;Node24</title>
<path fill="none" stroke="midnightblue" d="M869.51,-228.66C886.81,-219.94 913.52,-206.46 933.62,-196.31"/>
<polygon fill="midnightblue" stroke="midnightblue" points="934.82,-199.13 942.17,-191.5 931.66,-192.88 934.82,-199.13"/>
</g>
<!-- Node25 -->
<g id="node25" class="node">
<title>Node25</title>
<g id="a_node25"><a xlink:title=" ">
<polygon fill="none" stroke="#bfbfbf" points="914.12,-114.5 914.12,-134.5 981.88,-134.5 981.88,-114.5 914.12,-114.5"/>
<text text-anchor="middle" x="948" y="-121" font-family="Helvetica,sans-Serif" font-size="10.00">sdkddkver.h</text>
</a>
</g>
</g>
<!-- Node24&#45;&gt;Node25 -->
<g id="edge37" class="edge">
<title>Node24&#45;&gt;Node25</title>
<path fill="none" stroke="midnightblue" d="M958.97,-171.91C957.26,-164.68 954.76,-154.09 952.57,-144.85"/>
<polygon fill="midnightblue" stroke="midnightblue" points="955.77,-144.14 950.06,-135.21 948.95,-145.75 955.77,-144.14"/>
</g>
<!-- Node26 -->
<g id="node26" class="node">
<title>Node26</title>
<g id="a_node26"><a xlink:title=" ">
<polygon fill="none" stroke="#bfbfbf" points="832,-114.5 832,-134.5 896,-134.5 896,-114.5 832,-114.5"/>
<text text-anchor="middle" x="864" y="-121" font-family="Helvetica,sans-Serif" font-size="10.00">Windows.h</text>
</a>
</g>
</g>
<!-- Node24&#45;&gt;Node26 -->
<g id="edge38" class="edge">
<title>Node24&#45;&gt;Node26</title>
<path fill="none" stroke="midnightblue" d="M945.42,-171.66C930.23,-163.05 906.9,-149.83 889.1,-139.73"/>
<polygon fill="midnightblue" stroke="midnightblue" points="891.29,-136.39 880.87,-134.5 887.84,-142.47 891.29,-136.39"/>
</g>
<!-- Node27&#45;&gt;Node20 -->
<g id="edge43" class="edge">
<title>Node27&#45;&gt;Node20</title>
<path fill="none" stroke="midnightblue" d="M692.62,-229.97C727.62,-220.76 787.24,-205.07 828.3,-194.26"/>
<polygon fill="midnightblue" stroke="midnightblue" points="829.06,-197.42 837.84,-191.49 827.27,-190.65 829.06,-197.42"/>
</g>
<!-- Node27&#45;&gt;Node21 -->
<g id="edge46" class="edge">
<title>Node27&#45;&gt;Node21</title>
<path fill="none" stroke="midnightblue" d="M672.34,-228.78C680.24,-220.1 691.91,-206.06 699,-192 706.61,-176.91 711.6,-158.31 714.54,-144.62"/>
<polygon fill="midnightblue" stroke="midnightblue" points="718.12,-145.55 716.62,-135.07 711.25,-144.2 718.12,-145.55"/>
</g>
<!-- Node27&#45;&gt;Node24 -->
<g id="edge40" class="edge">
<title>Node27&#45;&gt;Node24</title>
<path fill="none" stroke="midnightblue" d="M692.32,-233.98C739.54,-227.84 837.46,-213.9 929.8,-191.99"/>
<polygon fill="midnightblue" stroke="midnightblue" points="930.55,-195.17 939.45,-189.42 928.91,-188.36 930.55,-195.17"/>
</g>
<!-- Node28 -->
<g id="node28" class="node">
<title>Node28</title>
<g id="a_node28"><a xlink:href="_colors_8h.html" target="_top" xlink:title=" ">
<polygon fill="none" stroke="black" points="461,-171.5 461,-191.5 513,-191.5 513,-171.5 461,-171.5"/>
<text text-anchor="middle" x="487" y="-178" font-family="Helvetica,sans-Serif" font-size="10.00">Colors.h</text>
</a>
</g>
</g>
<!-- Node27&#45;&gt;Node28 -->
<g id="edge41" class="edge">
<title>Node27&#45;&gt;Node28</title>
<path fill="none" stroke="midnightblue" d="M635.56,-228.66C604.96,-219.16 556.23,-204.01 522.98,-193.68"/>
<polygon fill="midnightblue" stroke="midnightblue" points="524.37,-190.13 513.78,-190.51 522.29,-196.82 524.37,-190.13"/>
</g>
<!-- Node29 -->
<g id="node29" class="node">
<title>Node29</title>
<g id="a_node29"><a xlink:title=" ">
<polygon fill="none" stroke="#bfbfbf" points="569.38,-171.5 569.38,-191.5 620.62,-191.5 620.62,-171.5 569.38,-171.5"/>
<text text-anchor="middle" x="595" y="-178" font-family="Helvetica,sans-Serif" font-size="10.00">assert.h</text>
</a>
</g>
</g>
<!-- Node27&#45;&gt;Node29 -->
<g id="edge44" class="edge">
<title>Node27&#45;&gt;Node29</title>
<path fill="none" stroke="midnightblue" d="M652.91,-228.66C642.61,-220.45 627.04,-208.04 614.64,-198.15"/>
<polygon fill="midnightblue" stroke="midnightblue" points="617.29,-194.99 607.29,-191.5 612.93,-200.47 617.29,-194.99"/>
</g>
<!-- Node30 -->
<g id="node30" class="node">
<title>Node30</title>
<g id="a_node30"><a xlink:title=" ">
<polygon fill="none" stroke="#bfbfbf" points="638.38,-171.5 638.38,-191.5 689.62,-191.5 689.62,-171.5 638.38,-171.5"/>
<text text-anchor="middle" x="664" y="-178" font-family="Helvetica,sans-Serif" font-size="10.00">memory</text>
</a>
</g>
</g>
<!-- Node27&#45;&gt;Node30 -->
<g id="edge45" class="edge">
<title>Node27&#45;&gt;Node30</title>
<path fill="none" stroke="midnightblue" d="M664,-228.91C664,-221.76 664,-211.32 664,-202.15"/>
<polygon fill="midnightblue" stroke="midnightblue" points="667.5,-202.21 664,-192.21 660.5,-202.21 667.5,-202.21"/>
</g>
<!-- Node31 -->
<g id="node31" class="node">
<title>Node31</title>
<g id="a_node31"><a xlink:title=" ">
<polygon fill="none" stroke="#bfbfbf" points="745.88,-171.5 745.88,-191.5 806.12,-191.5 806.12,-171.5 745.88,-171.5"/>
<text text-anchor="middle" x="776" y="-178" font-family="Helvetica,sans-Serif" font-size="10.00">filesystem</text>
</a>
</g>
</g>
<!-- Node27&#45;&gt;Node31 -->
<g id="edge47" class="edge">
<title>Node27&#45;&gt;Node31</title>
<path fill="none" stroke="midnightblue" d="M681.99,-228.66C699.77,-219.94 727.21,-206.46 747.87,-196.31"/>
<polygon fill="midnightblue" stroke="midnightblue" points="749.24,-199.05 756.68,-191.5 746.16,-192.76 749.24,-199.05"/>
</g>
<!-- Node28&#45;&gt;Node22 -->
<g id="edge42" class="edge">
<title>Node28&#45;&gt;Node22</title>
<path fill="none" stroke="midnightblue" d="M473.5,-171.66C460.6,-163.21 440.9,-150.31 425.6,-140.3"/>
<polygon fill="midnightblue" stroke="midnightblue" points="428.03,-137.05 417.74,-134.5 424.19,-142.9 428.03,-137.05"/>
</g>
<!-- Node34&#45;&gt;Node7 -->
<g id="edge55" class="edge">
<title>Node34&#45;&gt;Node7</title>
<path fill="none" stroke="midnightblue" d="M227.1,-228.71C221.13,-210.64 207.35,-168.94 199.26,-144.44"/>
<polygon fill="midnightblue" stroke="midnightblue" points="202.35,-143.64 195.89,-135.25 195.7,-145.84 202.35,-143.64"/>
</g>
<!-- Node34&#45;&gt;Node22 -->
<g id="edge56" class="edge">
<title>Node34&#45;&gt;Node22</title>
<path fill="none" stroke="midnightblue" d="M230.11,-228.85C230.76,-214.76 234.12,-186.83 250,-171 263.68,-157.36 307.82,-145.09 345.2,-136.73"/>
<polygon fill="midnightblue" stroke="midnightblue" points="345.51,-140.03 354.53,-134.48 344.02,-133.19 345.51,-140.03"/>
</g>
<!-- Node35 -->
<g id="node35" class="node">
<title>Node35</title>
<g id="a_node35"><a xlink:href="_indexed_triangle_list_8h.html" target="_top" xlink:title=" ">
<polygon fill="none" stroke="black" points="259.25,-171.5 259.25,-191.5 366.75,-191.5 366.75,-171.5 259.25,-171.5"/>
<text text-anchor="middle" x="313" y="-178" font-family="Helvetica,sans-Serif" font-size="10.00">IndexedTriangleList.h</text>
</a>
</g>
</g>
<!-- Node34&#45;&gt;Node35 -->
<g id="edge52" class="edge">
<title>Node34&#45;&gt;Node35</title>
<path fill="none" stroke="midnightblue" d="M243.34,-228.66C256.09,-220.21 275.55,-207.31 290.67,-197.3"/>
<polygon fill="midnightblue" stroke="midnightblue" points="292.02,-199.94 298.42,-191.5 288.15,-194.1 292.02,-199.94"/>
</g>
<!-- Node35&#45;&gt;Node22 -->
<g id="edge53" class="edge">
<title>Node35&#45;&gt;Node22</title>
<path fill="none" stroke="midnightblue" d="M327.46,-171.66C341.42,-163.13 362.79,-150.07 379.25,-140.01"/>
<polygon fill="midnightblue" stroke="midnightblue" points="380.57,-142.7 387.28,-134.5 376.92,-136.73 380.57,-142.7"/>
</g>
<!-- Node36 -->
<g id="node36" class="node">
<title>Node36</title>
<g id="a_node36"><a xlink:title=" ">
<polygon fill="none" stroke="#bfbfbf" points="283.25,-114.5 283.25,-134.5 324.75,-134.5 324.75,-114.5 283.25,-114.5"/>
<text text-anchor="middle" x="304" y="-121" font-family="Helvetica,sans-Serif" font-size="10.00">vector</text>
</a>
</g>
</g>
<!-- Node35&#45;&gt;Node36 -->
<g id="edge54" class="edge">
<title>Node35&#45;&gt;Node36</title>
<path fill="none" stroke="midnightblue" d="M311.59,-171.91C310.41,-164.68 308.68,-154.09 307.17,-144.85"/>
<polygon fill="midnightblue" stroke="midnightblue" points="310.5,-144.52 305.43,-135.21 303.59,-145.65 310.5,-144.52"/>
</g>
<!-- Node37&#45;&gt;Node15 -->
<g id="edge66" class="edge">
<title>Node37&#45;&gt;Node15</title>
<path fill="none" stroke="midnightblue" d="M867.12,-403.29C906.46,-395.68 973.65,-380.53 991,-363 1012.62,-341.15 1010,-327.24 1010,-296.5 1010,-296.5 1010,-296.5 1010,-180.5 1010,-149.76 1014.79,-133.46 991,-114 949.47,-80.03 575.61,-71.07 452.85,-69.04"/>
<polygon fill="midnightblue" stroke="midnightblue" points="453.16,-65.52 443.11,-68.86 453.05,-72.52 453.16,-65.52"/>
</g>
<!-- Node37&#45;&gt;Node19 -->
<g id="edge60" class="edge">
<title>Node37&#45;&gt;Node19</title>
<path fill="none" stroke="midnightblue" d="M829.6,-399.75C816.63,-386.47 790.62,-360.78 766,-342 750.95,-330.52 732.91,-319.26 718.52,-310.81"/>
<polygon fill="midnightblue" stroke="midnightblue" points="720.64,-307.41 710.23,-305.44 717.14,-313.47 720.64,-307.41"/>
</g>
<!-- Node37&#45;&gt;Node24 -->
<g id="edge59" class="edge">
<title>Node37&#45;&gt;Node24</title>
<path fill="none" stroke="midnightblue" d="M842.82,-399.64C861.08,-366.1 926.19,-246.46 951.16,-200.58"/>
<polygon fill="midnightblue" stroke="midnightblue" points="954.64,-202.51 956.34,-192.06 948.49,-199.17 954.64,-202.51"/>
</g>
<!-- Node37&#45;&gt;Node35 -->
<g id="edge62" class="edge">
<title>Node37&#45;&gt;Node35</title>
<path fill="none" stroke="midnightblue" d="M808.93,-405.48C766.32,-400.38 684.92,-388.08 620,-363 504.26,-318.29 381.33,-232.76 333.6,-197.88"/>
<polygon fill="midnightblue" stroke="midnightblue" points="335.96,-194.54 325.83,-191.42 331.81,-200.17 335.96,-194.54"/>
</g>
<!-- Node38 -->
<g id="node38" class="node">
<title>Node38</title>
<g id="a_node38"><a xlink:href="_triangle_8h.html" target="_top" xlink:title=" ">
<polygon fill="none" stroke="black" points="1038,-342.5 1038,-362.5 1096,-362.5 1096,-342.5 1038,-342.5"/>
<text text-anchor="middle" x="1067" y="-349" font-family="Helvetica,sans-Serif" font-size="10.00">Triangle.h</text>
</a>
</g>
</g>
<!-- Node37&#45;&gt;Node38 -->
<g id="edge61" class="edge">
<title>Node37&#45;&gt;Node38</title>
<path fill="none" stroke="midnightblue" d="M867,-401.53C907.7,-391.76 981.87,-373.95 1027.55,-362.98"/>
<polygon fill="midnightblue" stroke="midnightblue" points="1028.33,-366.15 1037.23,-360.41 1026.69,-359.34 1028.33,-366.15"/>
</g>
<!-- Node39 -->
<g id="node39" class="node">
<title>Node39</title>
<g id="a_node39"><a xlink:href="_pube_screen_transformer_8h.html" target="_top" xlink:title=" ">
<polygon fill="none" stroke="black" points="628.75,-342.5 628.75,-362.5 757.25,-362.5 757.25,-342.5 628.75,-342.5"/>
<text text-anchor="middle" x="693" y="-349" font-family="Helvetica,sans-Serif" font-size="10.00">PubeScreenTransformer.h</text>
</a>
</g>
</g>
<!-- Node37&#45;&gt;Node39 -->
<g id="edge63" class="edge">
<title>Node37&#45;&gt;Node39</title>
<path fill="none" stroke="midnightblue" d="M814.38,-399.54C790.58,-390.51 753.61,-376.49 726.73,-366.29"/>
<polygon fill="midnightblue" stroke="midnightblue" points="728.2,-362.73 717.61,-362.46 725.72,-369.27 728.2,-362.73"/>
</g>
<!-- Node40 -->
<g id="node40" class="node">
<title>Node40</title>
<g id="a_node40"><a xlink:href="_z_buffer_8h.html" target="_top" xlink:title=" ">
<polygon fill="none" stroke="black" points="252.88,-342.5 252.88,-362.5 307.12,-362.5 307.12,-342.5 252.88,-342.5"/>
<text text-anchor="middle" x="280" y="-349" font-family="Helvetica,sans-Serif" font-size="10.00">ZBuffer.h</text>
</a>
</g>
</g>
<!-- Node37&#45;&gt;Node40 -->
<g id="edge67" class="edge">
<title>Node37&#45;&gt;Node40</title>
<path fill="none" stroke="midnightblue" d="M808.63,-407.7C730.3,-405.19 509.89,-395.71 317.6,-362.99"/>
<polygon fill="midnightblue" stroke="midnightblue" points="318.47,-359.41 308.02,-361.16 317.27,-366.31 318.47,-359.41"/>
</g>
<!-- Node42 -->
<g id="node42" class="node">
<title>Node42</title>
<g id="a_node42"><a xlink:title=" ">
<polygon fill="none" stroke="#bfbfbf" points="926.12,-342.5 926.12,-362.5 981.88,-362.5 981.88,-342.5 926.12,-342.5"/>
<text text-anchor="middle" x="954" y="-349" font-family="Helvetica,sans-Serif" font-size="10.00">algorithm</text>
</a>
</g>
</g>
<!-- Node37&#45;&gt;Node42 -->
<g id="edge70" class="edge">
<title>Node37&#45;&gt;Node42</title>
<path fill="none" stroke="midnightblue" d="M856.9,-399.54C875.43,-390.75 903.95,-377.23 925.29,-367.11"/>
<polygon fill="midnightblue" stroke="midnightblue" points="926.58,-369.9 934.11,-362.46 923.58,-363.58 926.58,-369.9"/>
</g>
<!-- Node39&#45;&gt;Node19 -->
<g id="edge64" class="edge">
<title>Node39&#45;&gt;Node19</title>
<path fill="none" stroke="midnightblue" d="M693,-342.91C693,-335.76 693,-325.32 693,-316.15"/>
<polygon fill="midnightblue" stroke="midnightblue" points="696.5,-316.21 693,-306.21 689.5,-316.21 696.5,-316.21"/>
</g>
<!-- Node39&#45;&gt;Node22 -->
<g id="edge65" class="edge">
<title>Node39&#45;&gt;Node22</title>
<path fill="none" stroke="midnightblue" d="M665.18,-342.51C611.27,-323.64 492.43,-274.67 430,-192 419.32,-177.86 412.18,-158.91 407.93,-144.86"/>
<polygon fill="midnightblue" stroke="midnightblue" points="411.08,-144.12 405.04,-135.42 404.34,-145.99 411.08,-144.12"/>
</g>
<!-- Node40&#45;&gt;Node10 -->
<g id="edge68" class="edge">
<title>Node40&#45;&gt;Node10</title>
<path fill="none" stroke="midnightblue" d="M252.92,-348.87C198.68,-343.19 78.99,-328.44 45,-306 15.22,-286.34 0,-275.19 0,-239.5 0,-239.5 0,-239.5 0,-123.5 0,-89.07 16.3,-51.7 27.55,-30"/>
<polygon fill="midnightblue" stroke="midnightblue" points="31.04,-31.9 32.72,-21.44 24.88,-28.58 31.04,-31.9"/>
</g>
<!-- Node41 -->
<g id="node41" class="node">
<title>Node41</title>
<g id="a_node41"><a xlink:title=" ">
<polygon fill="none" stroke="#bfbfbf" points="255.88,-285.5 255.88,-305.5 304.12,-305.5 304.12,-285.5 255.88,-285.5"/>
<text text-anchor="middle" x="280" y="-292" font-family="Helvetica,sans-Serif" font-size="10.00">cassert</text>
</a>
</g>
</g>
<!-- Node40&#45;&gt;Node41 -->
<g id="edge69" class="edge">
<title>Node40&#45;&gt;Node41</title>
<path fill="none" stroke="midnightblue" d="M280,-342.91C280,-335.76 280,-325.32 280,-316.15"/>
<polygon fill="midnightblue" stroke="midnightblue" points="283.5,-316.21 280,-306.21 276.5,-316.21 283.5,-316.21"/>
</g>
<!-- Node43&#45;&gt;Node37 -->
<g id="edge72" class="edge">
<title>Node43&#45;&gt;Node37</title>
<path fill="none" stroke="midnightblue" d="M874.38,-456.73C867.54,-448.05 858.86,-437.01 851.69,-427.9"/>
<polygon fill="midnightblue" stroke="midnightblue" points="853.85,-425.98 844.91,-420.28 848.35,-430.31 853.85,-425.98"/>
</g>
<!-- Node44 -->
<g id="node44" class="node">
<title>Node44</title>
<g id="a_node44"><a xlink:href="_default_geometry_shader_8h.html" target="_top" xlink:title=" ">
<polygon fill="none" stroke="black" points="900.62,-399.5 900.62,-419.5 1067.38,-419.5 1067.38,-399.5 900.62,-399.5"/>
<text text-anchor="middle" x="984" y="-406" font-family="Helvetica,sans-Serif" font-size="10.00">Shaders/DefaultGeometryShader.h</text>
</a>
</g>
</g>
<!-- Node43&#45;&gt;Node44 -->
<g id="edge73" class="edge">
<title>Node43&#45;&gt;Node44</title>
<path fill="none" stroke="midnightblue" d="M909.97,-456.58C925.31,-447.03 945.13,-434.7 960.39,-425.19"/>
<polygon fill="midnightblue" stroke="midnightblue" points="962.04,-427.67 968.68,-419.42 958.34,-421.73 962.04,-427.67"/>
</g>
<!-- Node44&#45;&gt;Node38 -->
<g id="edge74" class="edge">
<title>Node44&#45;&gt;Node38</title>
<path fill="none" stroke="midnightblue" d="M997.34,-399.66C1010.09,-391.21 1029.55,-378.31 1044.67,-368.3"/>
<polygon fill="midnightblue" stroke="midnightblue" points="1046.02,-370.94 1052.42,-362.5 1042.15,-365.1 1046.02,-370.94"/>
</g>
</g>
</svg>
