<?xml version="1.0" encoding="UTF-8" standalone="no"?>
<!DOCTYPE svg PUBLIC "-//W3C//DTD SVG 1.1//EN"
 "http://www.w3.org/Graphics/SVG/1.1/DTD/svg11.dtd">
<!-- Generated by graphviz version 8.1.0 (20230707.0739)
 -->
<!-- Title: include/Primitives/Cube.h Pages: 1 -->
<svg width="966pt" height="269pt"
 viewBox="0.00 0.00 965.61 269.00" xmlns="http://www.w3.org/2000/svg" xmlns:xlink="http://www.w3.org/1999/xlink">
<g id="graph0" class="graph" transform="scale(1 1) rotate(0) translate(4 265)">
<title>include/Primitives/Cube.h</title>
<!-- Node1 -->
<g id="node1" class="node">
<title>Node1</title>
<g id="a_node1"><a xlink:title=" ">
<polygon fill="#bfbfbf" stroke="black" points="312.61,-228.5 312.61,-260.5 404.36,-260.5 404.36,-228.5 312.61,-228.5"/>
<text text-anchor="start" x="320.61" y="-247" font-family="Helvetica,sans-Serif" font-size="10.00">include/Primitives</text>
<text text-anchor="middle" x="358.48" y="-235" font-family="Helvetica,sans-Serif" font-size="10.00">/Cube.h</text>
</a>
</g>
</g>
<!-- Node2 -->
<g id="node2" class="node">
<title>Node2</title>
<g id="a_node2"><a xlink:href="_indexed_triangle_list_8h.html" target="_top" xlink:title=" ">
<polygon fill="none" stroke="black" points="617.73,-171.5 617.73,-191.5 725.23,-191.5 725.23,-171.5 617.73,-171.5"/>
<text text-anchor="middle" x="671.48" y="-178" font-family="Helvetica,sans-Serif" font-size="10.00">IndexedTriangleList.h</text>
</a>
</g>
</g>
<!-- Node1&#45;&gt;Node2 -->
<g id="edge1" class="edge">
<title>Node1&#45;&gt;Node2</title>
<path fill="none" stroke="midnightblue" d="M404.33,-234.56C460.23,-223.67 554.71,-205.26 615.03,-193.5"/>
<polygon fill="midnightblue" stroke="midnightblue" points="615.36,-196.81 624.51,-191.46 614.03,-189.94 615.36,-196.81"/>
</g>
<!-- Node3 -->
<g id="node3" class="node">
<title>Node3</title>
<g id="a_node3"><a xlink:href="_vector3_8h.html" target="_top" xlink:title=" ">
<polygon fill="none" stroke="black" points="298.36,-114.5 298.36,-134.5 418.61,-134.5 418.61,-114.5 298.36,-114.5"/>
<text text-anchor="middle" x="358.48" y="-121" font-family="Helvetica,sans-Serif" font-size="10.00">LinearAlgebra/Vector3.h</text>
</a>
</g>
</g>
<!-- Node1&#45;&gt;Node3 -->
<g id="edge40" class="edge">
<title>Node1&#45;&gt;Node3</title>
<path fill="none" stroke="midnightblue" d="M358.48,-228.56C358.48,-207.33 358.48,-168.41 358.48,-144.96"/>
<polygon fill="midnightblue" stroke="midnightblue" points="361.98,-145.27 358.48,-135.27 354.98,-145.27 361.98,-145.27"/>
</g>
<!-- Node25 -->
<g id="node25" class="node">
<title>Node25</title>
<g id="a_node25"><a xlink:href="_vector2_8h.html" target="_top" xlink:title=" ">
<polygon fill="none" stroke="black" points="104.36,-114.5 104.36,-134.5 224.61,-134.5 224.61,-114.5 104.36,-114.5"/>
<text text-anchor="middle" x="164.48" y="-121" font-family="Helvetica,sans-Serif" font-size="10.00">LinearAlgebra/Vector2.h</text>
</a>
</g>
</g>
<!-- Node1&#45;&gt;Node25 -->
<g id="edge31" class="edge">
<title>Node1&#45;&gt;Node25</title>
<path fill="none" stroke="midnightblue" d="M333.91,-228.56C296.29,-205.67 224.88,-162.24 187.94,-139.77"/>
<polygon fill="midnightblue" stroke="midnightblue" points="190.27,-136.48 179.91,-134.27 186.63,-142.46 190.27,-136.48"/>
</g>
<!-- Node2&#45;&gt;Node3 -->
<g id="edge2" class="edge">
<title>Node2&#45;&gt;Node3</title>
<path fill="none" stroke="midnightblue" d="M620.5,-171.54C565.7,-161.91 478.61,-146.61 420.04,-136.32"/>
<polygon fill="midnightblue" stroke="midnightblue" points="420.9,-132.74 410.45,-134.46 419.69,-139.63 420.9,-132.74"/>
</g>
<!-- Node14 -->
<g id="node14" class="node">
<title>Node14</title>
<g id="a_node14"><a xlink:href="tiny__obj__loader_8h.html" target="_top" xlink:title=" ">
<polygon fill="none" stroke="black" points="763.73,-114.5 763.73,-134.5 853.23,-134.5 853.23,-114.5 763.73,-114.5"/>
<text text-anchor="middle" x="808.48" y="-121" font-family="Helvetica,sans-Serif" font-size="10.00">tiny_obj_loader.h</text>
</a>
</g>
</g>
<!-- Node2&#45;&gt;Node14 -->
<g id="edge18" class="edge">
<title>Node2&#45;&gt;Node14</title>
<path fill="none" stroke="midnightblue" d="M693.8,-171.54C716.19,-162.55 750.9,-148.62 776.28,-138.43"/>
<polygon fill="midnightblue" stroke="midnightblue" points="777.2,-141.43 785.17,-134.46 774.59,-134.93 777.2,-141.43"/>
</g>
<!-- Node17 -->
<g id="node17" class="node">
<title>Node17</title>
<g id="a_node17"><a xlink:title=" ">
<polygon fill="none" stroke="#bfbfbf" points="898.73,-57.5 898.73,-77.5 940.23,-77.5 940.23,-57.5 898.73,-57.5"/>
<text text-anchor="middle" x="919.48" y="-64" font-family="Helvetica,sans-Serif" font-size="10.00">vector</text>
</a>
</g>
</g>
<!-- Node2&#45;&gt;Node17 -->
<g id="edge28" class="edge">
<title>Node2&#45;&gt;Node17</title>
<path fill="none" stroke="midnightblue" d="M725.11,-176.68C765.39,-171.77 820.58,-160.57 862.48,-135 882.28,-122.91 898.73,-101.61 908.79,-86.37"/>
<polygon fill="midnightblue" stroke="midnightblue" points="912.07,-88.72 914.44,-78.39 906.15,-84.99 912.07,-88.72"/>
</g>
<!-- Node18 -->
<g id="node18" class="node">
<title>Node18</title>
<g id="a_node18"><a xlink:href="_miniball_8h.html" target="_top" xlink:title=" ">
<polygon fill="none" stroke="black" points="642.86,-114.5 642.86,-134.5 700.11,-134.5 700.11,-114.5 642.86,-114.5"/>
<text text-anchor="middle" x="671.48" y="-121" font-family="Helvetica,sans-Serif" font-size="10.00">Miniball.h</text>
</a>
</g>
</g>
<!-- Node2&#45;&gt;Node18 -->
<g id="edge22" class="edge">
<title>Node2&#45;&gt;Node18</title>
<path fill="none" stroke="midnightblue" d="M671.48,-171.91C671.48,-164.76 671.48,-154.32 671.48,-145.15"/>
<polygon fill="midnightblue" stroke="midnightblue" points="674.98,-145.21 671.48,-135.21 667.98,-145.21 674.98,-145.21"/>
</g>
<!-- Node23 -->
<g id="node23" class="node">
<title>Node23</title>
<g id="a_node23"><a xlink:title=" ">
<polygon fill="none" stroke="#bfbfbf" points="909.36,-114.5 909.36,-134.5 957.61,-134.5 957.61,-114.5 909.36,-114.5"/>
<text text-anchor="middle" x="933.48" y="-121" font-family="Helvetica,sans-Serif" font-size="10.00">fstream</text>
</a>
</g>
</g>
<!-- Node2&#45;&gt;Node23 -->
<g id="edge29" class="edge">
<title>Node2&#45;&gt;Node23</title>
<path fill="none" stroke="midnightblue" d="M718.81,-171.52C764.23,-162.76 834.72,-148.76 895.48,-135 896.61,-134.74 897.75,-134.48 898.91,-134.21"/>
<polygon fill="midnightblue" stroke="midnightblue" points="899.49,-137.43 908.4,-131.69 897.86,-130.63 899.49,-137.43"/>
</g>
<!-- Node24 -->
<g id="node24" class="node">
<title>Node24</title>
<g id="a_node24"><a xlink:title=" ">
<polygon fill="none" stroke="#bfbfbf" points="579.86,-114.5 579.86,-134.5 625.11,-134.5 625.11,-114.5 579.86,-114.5"/>
<text text-anchor="middle" x="602.48" y="-121" font-family="Helvetica,sans-Serif" font-size="10.00">cctype</text>
</a>
</g>
</g>
<!-- Node2&#45;&gt;Node24 -->
<g id="edge30" class="edge">
<title>Node2&#45;&gt;Node24</title>
<path fill="none" stroke="midnightblue" d="M660.4,-171.66C650.1,-163.45 634.52,-151.04 622.12,-141.15"/>
<polygon fill="midnightblue" stroke="midnightblue" points="624.77,-137.99 614.77,-134.5 620.41,-143.47 624.77,-137.99"/>
</g>
<!-- Node4 -->
<g id="node4" class="node">
<title>Node4</title>
<g id="a_node4"><a xlink:href="_math_8h.html" target="_top" xlink:title=" ">
<polygon fill="none" stroke="black" points="424.48,-57.5 424.48,-77.5 470.48,-77.5 470.48,-57.5 424.48,-57.5"/>
<text text-anchor="middle" x="447.48" y="-64" font-family="Helvetica,sans-Serif" font-size="10.00">Math.h</text>
</a>
</g>
</g>
<!-- Node3&#45;&gt;Node4 -->
<g id="edge3" class="edge">
<title>Node3&#45;&gt;Node4</title>
<path fill="none" stroke="midnightblue" d="M372.78,-114.66C386.58,-106.13 407.72,-93.07 424,-83.01"/>
<polygon fill="midnightblue" stroke="midnightblue" points="425.26,-85.73 431.92,-77.5 421.58,-79.78 425.26,-85.73"/>
</g>
<!-- Node9 -->
<g id="node9" class="node">
<title>Node9</title>
<g id="a_node9"><a xlink:href="_matrix3_8h.html" target="_top" xlink:title=" ">
<polygon fill="none" stroke="black" points="274.23,-57.5 274.23,-77.5 330.73,-77.5 330.73,-57.5 274.23,-57.5"/>
<text text-anchor="middle" x="302.48" y="-64" font-family="Helvetica,sans-Serif" font-size="10.00">Matrix3.h</text>
</a>
</g>
</g>
<!-- Node3&#45;&gt;Node9 -->
<g id="edge9" class="edge">
<title>Node3&#45;&gt;Node9</title>
<path fill="none" stroke="midnightblue" d="M349.48,-114.66C341.37,-106.69 329.22,-94.76 319.31,-85.02"/>
<polygon fill="midnightblue" stroke="midnightblue" points="322.23,-83.01 312.64,-78.5 317.32,-88 322.23,-83.01"/>
</g>
<!-- Node10 -->
<g id="node10" class="node">
<title>Node10</title>
<g id="a_node10"><a xlink:title=" ">
<polygon fill="none" stroke="#bfbfbf" points="199.61,-0.5 199.61,-20.5 237.36,-20.5 237.36,-0.5 199.61,-0.5"/>
<text text-anchor="middle" x="218.48" y="-7" font-family="Helvetica,sans-Serif" font-size="10.00">array</text>
</a>
</g>
</g>
<!-- Node3&#45;&gt;Node10 -->
<g id="edge14" class="edge">
<title>Node3&#45;&gt;Node10</title>
<path fill="none" stroke="midnightblue" d="M358.37,-114.53C357.72,-100.49 354.46,-73.24 339.48,-57 336.19,-53.43 282.03,-33.89 247.3,-21.6"/>
<polygon fill="midnightblue" stroke="midnightblue" points="248.81,-18.07 238.22,-18.05 246.49,-24.67 248.81,-18.07"/>
</g>
<!-- Node11 -->
<g id="node11" class="node">
<title>Node11</title>
<g id="a_node11"><a xlink:title=" ">
<polygon fill="none" stroke="#bfbfbf" points="255.73,-0.5 255.73,-20.5 303.23,-20.5 303.23,-0.5 255.73,-0.5"/>
<text text-anchor="middle" x="279.48" y="-7" font-family="Helvetica,sans-Serif" font-size="10.00">cstddef</text>
</a>
</g>
</g>
<!-- Node3&#45;&gt;Node11 -->
<g id="edge17" class="edge">
<title>Node3&#45;&gt;Node11</title>
<path fill="none" stroke="midnightblue" d="M364.16,-114.61C371.98,-101.14 383.85,-75.22 372.48,-57 365.6,-45.97 336.82,-32.89 313.08,-23.59"/>
<polygon fill="midnightblue" stroke="midnightblue" points="314.55,-20.02 303.95,-19.72 312.05,-26.56 314.55,-20.02"/>
</g>
<!-- Node12 -->
<g id="node12" class="node">
<title>Node12</title>
<g id="a_node12"><a xlink:title=" ">
<polygon fill="none" stroke="#bfbfbf" points="83.73,-0.5 83.73,-20.5 137.23,-20.5 137.23,-0.5 83.73,-0.5"/>
<text text-anchor="middle" x="110.48" y="-7" font-family="Helvetica,sans-Serif" font-size="10.00">iostream</text>
</a>
</g>
</g>
<!-- Node3&#45;&gt;Node12 -->
<g id="edge15" class="edge">
<title>Node3&#45;&gt;Node12</title>
<path fill="none" stroke="midnightblue" d="M339.46,-114.54C320.57,-105.55 290.83,-91.2 265.48,-78 248.37,-69.09 244.96,-65.18 227.48,-57 200.95,-44.58 170.03,-32.66 146.63,-24.14"/>
<polygon fill="midnightblue" stroke="midnightblue" points="148.05,-20.57 137.46,-20.47 145.68,-27.15 148.05,-20.57"/>
</g>
<!-- Node13 -->
<g id="node13" class="node">
<title>Node13</title>
<g id="a_node13"><a xlink:title=" ">
<polygon fill="none" stroke="#bfbfbf" points="164.73,-57.5 164.73,-77.5 218.23,-77.5 218.23,-57.5 164.73,-57.5"/>
<text text-anchor="middle" x="191.48" y="-64" font-family="Helvetica,sans-Serif" font-size="10.00">compare</text>
</a>
</g>
</g>
<!-- Node3&#45;&gt;Node13 -->
<g id="edge16" class="edge">
<title>Node3&#45;&gt;Node13</title>
<path fill="none" stroke="midnightblue" d="M331.28,-114.54C303.33,-105.34 259.64,-90.95 228.55,-80.71"/>
<polygon fill="midnightblue" stroke="midnightblue" points="229.71,-77.08 219.12,-77.27 227.52,-83.73 229.71,-77.08"/>
</g>
<!-- Node4&#45;&gt;Node4 -->
<g id="edge4" class="edge">
<title>Node4&#45;&gt;Node4</title>
<path fill="none" stroke="midnightblue" d="M466.03,-77.43C477.54,-79.83 488.48,-76.52 488.48,-67.5 488.48,-61.44 483.54,-57.96 476.81,-57.05"/>
<polygon fill="midnightblue" stroke="midnightblue" points="476.86,-53.59 467.03,-57.57 477.19,-60.59 476.86,-53.59"/>
</g>
<!-- Node5 -->
<g id="node5" class="node">
<title>Node5</title>
<g id="a_node5"><a xlink:title=" ">
<polygon fill="none" stroke="#bfbfbf" points="320.98,-0.5 320.98,-20.5 363.98,-20.5 363.98,-0.5 320.98,-0.5"/>
<text text-anchor="middle" x="342.48" y="-7" font-family="Helvetica,sans-Serif" font-size="10.00">cmath</text>
</a>
</g>
</g>
<!-- Node4&#45;&gt;Node5 -->
<g id="edge5" class="edge">
<title>Node4&#45;&gt;Node5</title>
<path fill="none" stroke="midnightblue" d="M430.61,-57.66C414.1,-49.01 388.69,-35.7 369.39,-25.59"/>
<polygon fill="midnightblue" stroke="midnightblue" points="371.14,-22.04 360.66,-20.5 367.89,-28.24 371.14,-22.04"/>
</g>
<!-- Node6 -->
<g id="node6" class="node">
<title>Node6</title>
<g id="a_node6"><a xlink:title=" ">
<polygon fill="none" stroke="#bfbfbf" points="519.86,-0.5 519.86,-20.5 559.11,-20.5 559.11,-0.5 519.86,-0.5"/>
<text text-anchor="middle" x="539.48" y="-7" font-family="Helvetica,sans-Serif" font-size="10.00">limits</text>
</a>
</g>
</g>
<!-- Node4&#45;&gt;Node6 -->
<g id="edge6" class="edge">
<title>Node4&#45;&gt;Node6</title>
<path fill="none" stroke="midnightblue" d="M462.26,-57.66C476.53,-49.13 498.38,-36.07 515.2,-26.01"/>
<polygon fill="midnightblue" stroke="midnightblue" points="516.64,-28.63 523.43,-20.5 513.05,-22.62 516.64,-28.63"/>
</g>
<!-- Node7 -->
<g id="node7" class="node">
<title>Node7</title>
<g id="a_node7"><a xlink:title=" ">
<polygon fill="none" stroke="#bfbfbf" points="381.73,-0.5 381.73,-20.5 435.23,-20.5 435.23,-0.5 381.73,-0.5"/>
<text text-anchor="middle" x="408.48" y="-7" font-family="Helvetica,sans-Serif" font-size="10.00">numbers</text>
</a>
</g>
</g>
<!-- Node4&#45;&gt;Node7 -->
<g id="edge7" class="edge">
<title>Node4&#45;&gt;Node7</title>
<path fill="none" stroke="midnightblue" d="M441.39,-57.91C435.92,-50.2 427.74,-38.66 420.9,-29.02"/>
<polygon fill="midnightblue" stroke="midnightblue" points="423.3,-27.35 414.66,-21.21 417.59,-31.4 423.3,-27.35"/>
</g>
<!-- Node8 -->
<g id="node8" class="node">
<title>Node8</title>
<g id="a_node8"><a xlink:title=" ">
<polygon fill="none" stroke="#bfbfbf" points="453.36,-0.5 453.36,-20.5 501.61,-20.5 501.61,-0.5 453.36,-0.5"/>
<text text-anchor="middle" x="477.48" y="-7" font-family="Helvetica,sans-Serif" font-size="10.00">random</text>
</a>
</g>
</g>
<!-- Node4&#45;&gt;Node8 -->
<g id="edge8" class="edge">
<title>Node4&#45;&gt;Node8</title>
<path fill="none" stroke="midnightblue" d="M452.17,-57.91C456.28,-50.36 462.41,-39.14 467.6,-29.62"/>
<polygon fill="midnightblue" stroke="midnightblue" points="471.01,-31.67 472.73,-21.21 464.87,-28.32 471.01,-31.67"/>
</g>
<!-- Node9&#45;&gt;Node5 -->
<g id="edge11" class="edge">
<title>Node9&#45;&gt;Node5</title>
<path fill="none" stroke="midnightblue" d="M308.73,-57.91C314.33,-50.2 322.73,-38.66 329.74,-29.02"/>
<polygon fill="midnightblue" stroke="midnightblue" points="333.09,-31.36 336.14,-21.21 327.43,-27.24 333.09,-31.36"/>
</g>
<!-- Node9&#45;&gt;Node10 -->
<g id="edge10" class="edge">
<title>Node9&#45;&gt;Node10</title>
<path fill="none" stroke="midnightblue" d="M288.99,-57.66C276.08,-49.21 256.38,-36.31 241.08,-26.3"/>
<polygon fill="midnightblue" stroke="midnightblue" points="243.51,-23.05 233.22,-20.5 239.67,-28.9 243.51,-23.05"/>
</g>
<!-- Node9&#45;&gt;Node11 -->
<g id="edge12" class="edge">
<title>Node9&#45;&gt;Node11</title>
<path fill="none" stroke="midnightblue" d="M298.89,-57.91C295.8,-50.52 291.24,-39.62 287.31,-30.23"/>
<polygon fill="midnightblue" stroke="midnightblue" points="290.21,-29.09 283.13,-21.21 283.75,-31.79 290.21,-29.09"/>
</g>
<!-- Node9&#45;&gt;Node12 -->
<g id="edge13" class="edge">
<title>Node9&#45;&gt;Node12</title>
<path fill="none" stroke="midnightblue" d="M274.56,-58.5C241.05,-48.9 184.74,-32.77 147.6,-22.13"/>
<polygon fill="midnightblue" stroke="midnightblue" points="148.77,-18.54 138.2,-19.15 146.85,-25.27 148.77,-18.54"/>
</g>
<!-- Node15 -->
<g id="node15" class="node">
<title>Node15</title>
<g id="a_node15"><a xlink:title=" ">
<polygon fill="none" stroke="#bfbfbf" points="846.11,-57.5 846.11,-77.5 880.86,-77.5 880.86,-57.5 846.11,-57.5"/>
<text text-anchor="middle" x="863.48" y="-64" font-family="Helvetica,sans-Serif" font-size="10.00">map</text>
</a>
</g>
</g>
<!-- Node14&#45;&gt;Node15 -->
<g id="edge19" class="edge">
<title>Node14&#45;&gt;Node15</title>
<path fill="none" stroke="midnightblue" d="M817.08,-114.91C825.1,-106.88 837.29,-94.69 847.16,-84.82"/>
<polygon fill="midnightblue" stroke="midnightblue" points="849.17,-87.76 853.77,-78.21 844.22,-82.81 849.17,-87.76"/>
</g>
<!-- Node16 -->
<g id="node16" class="node">
<title>Node16</title>
<g id="a_node16"><a xlink:title=" ">
<polygon fill="none" stroke="#bfbfbf" points="788.48,-57.5 788.48,-77.5 828.48,-77.5 828.48,-57.5 788.48,-57.5"/>
<text text-anchor="middle" x="808.48" y="-64" font-family="Helvetica,sans-Serif" font-size="10.00">string</text>
</a>
</g>
</g>
<!-- Node14&#45;&gt;Node16 -->
<g id="edge20" class="edge">
<title>Node14&#45;&gt;Node16</title>
<path fill="none" stroke="midnightblue" d="M808.48,-114.91C808.48,-107.76 808.48,-97.32 808.48,-88.15"/>
<polygon fill="midnightblue" stroke="midnightblue" points="811.98,-88.21 808.48,-78.21 804.98,-88.21 811.98,-88.21"/>
</g>
<!-- Node14&#45;&gt;Node17 -->
<g id="edge21" class="edge">
<title>Node14&#45;&gt;Node17</title>
<path fill="none" stroke="midnightblue" d="M826.32,-114.66C843.93,-105.94 871.13,-92.46 891.6,-82.31"/>
<polygon fill="midnightblue" stroke="midnightblue" points="892.92,-85.07 900.32,-77.5 889.81,-78.8 892.92,-85.07"/>
</g>
<!-- Node18&#45;&gt;Node6 -->
<g id="edge27" class="edge">
<title>Node18&#45;&gt;Node6</title>
<path fill="none" stroke="midnightblue" d="M643.1,-115.91C605.18,-105.48 541.95,-86.99 535.48,-78 525.67,-64.37 528.27,-44.81 532.37,-30.43"/>
<polygon fill="midnightblue" stroke="midnightblue" points="535.93,-31.82 535.76,-21.22 529.28,-29.61 535.93,-31.82"/>
</g>
<!-- Node19 -->
<g id="node19" class="node">
<title>Node19</title>
<g id="a_node19"><a xlink:title=" ">
<polygon fill="none" stroke="#bfbfbf" points="544.36,-57.5 544.36,-77.5 592.61,-77.5 592.61,-57.5 544.36,-57.5"/>
<text text-anchor="middle" x="568.48" y="-64" font-family="Helvetica,sans-Serif" font-size="10.00">cassert</text>
</a>
</g>
</g>
<!-- Node18&#45;&gt;Node19 -->
<g id="edge23" class="edge">
<title>Node18&#45;&gt;Node19</title>
<path fill="none" stroke="midnightblue" d="M654.93,-114.66C638.74,-106.01 613.81,-92.7 594.87,-82.59"/>
<polygon fill="midnightblue" stroke="midnightblue" points="596.8,-79.12 586.33,-77.5 593.5,-85.3 596.8,-79.12"/>
</g>
<!-- Node20 -->
<g id="node20" class="node">
<title>Node20</title>
<g id="a_node20"><a xlink:title=" ">
<polygon fill="none" stroke="#bfbfbf" points="610.61,-57.5 610.61,-77.5 666.36,-77.5 666.36,-57.5 610.61,-57.5"/>
<text text-anchor="middle" x="638.48" y="-64" font-family="Helvetica,sans-Serif" font-size="10.00">algorithm</text>
</a>
</g>
</g>
<!-- Node18&#45;&gt;Node20 -->
<g id="edge24" class="edge">
<title>Node18&#45;&gt;Node20</title>
<path fill="none" stroke="midnightblue" d="M666.33,-114.91C661.8,-107.36 655.07,-96.14 649.35,-86.62"/>
<polygon fill="midnightblue" stroke="midnightblue" points="651.86,-84.99 643.71,-78.21 645.85,-88.59 651.86,-84.99"/>
</g>
<!-- Node21 -->
<g id="node21" class="node">
<title>Node21</title>
<g id="a_node21"><a xlink:title=" ">
<polygon fill="none" stroke="#bfbfbf" points="742.08,-57.5 742.08,-77.5 770.88,-77.5 770.88,-57.5 742.08,-57.5"/>
<text text-anchor="middle" x="756.46" y="-64" font-family="Helvetica,sans-Serif" font-size="10.00">list</text>
</a>
</g>
</g>
<!-- Node18&#45;&gt;Node21 -->
<g id="edge25" class="edge">
<title>Node18&#45;&gt;Node21</title>
<path fill="none" stroke="midnightblue" d="M685.14,-114.66C698.2,-106.21 718.13,-93.31 733.61,-83.3"/>
<polygon fill="midnightblue" stroke="midnightblue" points="735.08,-85.87 741.58,-77.5 731.28,-79.99 735.08,-85.87"/>
</g>
<!-- Node22 -->
<g id="node22" class="node">
<title>Node22</title>
<g id="a_node22"><a xlink:title=" ">
<polygon fill="none" stroke="#bfbfbf" points="684.48,-57.5 684.48,-77.5 724.48,-77.5 724.48,-57.5 684.48,-57.5"/>
<text text-anchor="middle" x="704.48" y="-64" font-family="Helvetica,sans-Serif" font-size="10.00">ctime</text>
</a>
</g>
</g>
<!-- Node18&#45;&gt;Node22 -->
<g id="edge26" class="edge">
<title>Node18&#45;&gt;Node22</title>
<path fill="none" stroke="midnightblue" d="M676.64,-114.91C681.16,-107.36 687.9,-96.14 693.61,-86.62"/>
<polygon fill="midnightblue" stroke="midnightblue" points="697.11,-88.59 699.25,-78.21 691.11,-84.99 697.11,-88.59"/>
</g>
<!-- Node25&#45;&gt;Node4 -->
<g id="edge32" class="edge">
<title>Node25&#45;&gt;Node4</title>
<path fill="none" stroke="midnightblue" d="M210.58,-114.54C267.66,-103.45 363.51,-84.82 414.01,-75"/>
<polygon fill="midnightblue" stroke="midnightblue" points="414.51,-78.28 423.66,-72.94 413.18,-71.41 414.51,-78.28"/>
</g>
<!-- Node25&#45;&gt;Node9 -->
<g id="edge35" class="edge">
<title>Node25&#45;&gt;Node9</title>
<path fill="none" stroke="midnightblue" d="M186.96,-114.54C209.52,-105.55 244.48,-91.62 270.04,-81.43"/>
<polygon fill="midnightblue" stroke="midnightblue" points="271.02,-84.41 279.01,-77.46 268.43,-77.91 271.02,-84.41"/>
</g>
<!-- Node25&#45;&gt;Node10 -->
<g id="edge36" class="edge">
<title>Node25&#45;&gt;Node10</title>
<path fill="none" stroke="midnightblue" d="M151.82,-114.68C135.15,-101.94 109.41,-77.66 122.48,-57 136.99,-34.07 166.54,-22.46 189.04,-16.74"/>
<polygon fill="midnightblue" stroke="midnightblue" points="189.75,-19.94 198.74,-14.32 188.21,-13.12 189.75,-19.94"/>
</g>
<!-- Node25&#45;&gt;Node11 -->
<g id="edge38" class="edge">
<title>Node25&#45;&gt;Node11</title>
<path fill="none" stroke="midnightblue" d="M159.83,-114.85C153.23,-101.24 143.21,-74.58 155.48,-57 160.89,-49.25 210.81,-32.6 245.63,-21.73"/>
<polygon fill="midnightblue" stroke="midnightblue" points="246.36,-24.86 254.89,-18.56 244.3,-18.17 246.36,-24.86"/>
</g>
<!-- Node25&#45;&gt;Node12 -->
<g id="edge39" class="edge">
<title>Node25&#45;&gt;Node12</title>
<path fill="none" stroke="midnightblue" d="M107.38,-114.55C67.02,-106.93 17.97,-94.56 5.48,-78 -16.25,-49.18 35.25,-29.63 73.56,-19.54"/>
<polygon fill="midnightblue" stroke="midnightblue" points="74.08,-22.77 82.94,-16.95 72.39,-15.98 74.08,-22.77"/>
</g>
<!-- Node25&#45;&gt;Node13 -->
<g id="edge37" class="edge">
<title>Node25&#45;&gt;Node13</title>
<path fill="none" stroke="midnightblue" d="M168.7,-114.91C172.36,-107.44 177.8,-96.38 182.44,-86.93"/>
<polygon fill="midnightblue" stroke="midnightblue" points="185.94,-88.73 187.2,-78.21 179.65,-85.65 185.94,-88.73"/>
</g>
<!-- Node26 -->
<g id="node26" class="node">
<title>Node26</title>
<g id="a_node26"><a xlink:href="_matrix2_8h.html" target="_top" xlink:title=" ">
<polygon fill="none" stroke="black" points="14.23,-57.5 14.23,-77.5 70.73,-77.5 70.73,-57.5 14.23,-57.5"/>
<text text-anchor="middle" x="42.48" y="-64" font-family="Helvetica,sans-Serif" font-size="10.00">Matrix2.h</text>
</a>
</g>
</g>
<!-- Node25&#45;&gt;Node26 -->
<g id="edge33" class="edge">
<title>Node25&#45;&gt;Node26</title>
<path fill="none" stroke="midnightblue" d="M144.61,-114.54C125.02,-105.71 94.85,-92.11 72.37,-81.98"/>
<polygon fill="midnightblue" stroke="midnightblue" points="73.9,-78.37 63.35,-77.46 71.02,-84.76 73.9,-78.37"/>
</g>
<!-- Node26&#45;&gt;Node12 -->
<g id="edge34" class="edge">
<title>Node26&#45;&gt;Node12</title>
<path fill="none" stroke="midnightblue" d="M53.41,-57.66C63.56,-49.45 78.9,-37.04 91.13,-27.15"/>
<polygon fill="midnightblue" stroke="midnightblue" points="92.78,-29.51 98.36,-20.5 88.38,-24.06 92.78,-29.51"/>
</g>
</g>
</svg>
