<?xml version="1.0" encoding="UTF-8" standalone="no"?>
<!DOCTYPE svg PUBLIC "-//W3C//DTD SVG 1.1//EN"
 "http://www.w3.org/Graphics/SVG/1.1/DTD/svg11.dtd">
<!-- Generated by graphviz version 8.1.0 (20230707.0739)
 -->
<!-- Title: include/Scenes/CubeSolidGeometryScene.h Pages: 1 -->
<svg width="1524pt" height="554pt"
 viewBox="0.00 0.00 1523.88 554.00" xmlns="http://www.w3.org/2000/svg" xmlns:xlink="http://www.w3.org/1999/xlink">
<g id="graph0" class="graph" transform="scale(1 1) rotate(0) translate(4 550)">
<title>include/Scenes/CubeSolidGeometryScene.h</title>
<!-- Node1 -->
<g id="node1" class="node">
<title>Node1</title>
<g id="a_node1"><a xlink:title=" ">
<polygon fill="#bfbfbf" stroke="black" points="225,-513.5 225,-545.5 355,-545.5 355,-513.5 225,-513.5"/>
<text text-anchor="start" x="233" y="-532" font-family="Helvetica,sans-Serif" font-size="10.00">include/Scenes/CubeSolid</text>
<text text-anchor="middle" x="290" y="-520" font-family="Helvetica,sans-Serif" font-size="10.00">GeometryScene.h</text>
</a>
</g>
</g>
<!-- Node2 -->
<g id="node2" class="node">
<title>Node2</title>
<g id="a_node2"><a xlink:href="_scene_8h.html" target="_top" xlink:title=" ">
<polygon fill="none" stroke="black" points="136,-342.5 136,-362.5 188,-362.5 188,-342.5 136,-342.5"/>
<text text-anchor="middle" x="162" y="-349" font-family="Helvetica,sans-Serif" font-size="10.00">Scene.h</text>
</a>
</g>
</g>
<!-- Node1&#45;&gt;Node2 -->
<g id="edge1" class="edge">
<title>Node1&#45;&gt;Node2</title>
<path fill="none" stroke="midnightblue" d="M251.82,-513.71C234.48,-505.28 214.98,-493.14 202,-477 177.13,-446.07 167.55,-399.25 163.99,-373.04"/>
<polygon fill="midnightblue" stroke="midnightblue" points="167.37,-372.8 162.71,-363.28 160.41,-373.62 167.37,-372.8"/>
</g>
<!-- Node15 -->
<g id="node13" class="node">
<title>Node15</title>
<g id="a_node13"><a xlink:href="_matrix3_8h.html" target="_top" xlink:title=" ">
<polygon fill="none" stroke="black" points="447.75,-57.5 447.75,-77.5 504.25,-77.5 504.25,-57.5 447.75,-57.5"/>
<text text-anchor="middle" x="476" y="-64" font-family="Helvetica,sans-Serif" font-size="10.00">Matrix3.h</text>
</a>
</g>
</g>
<!-- Node1&#45;&gt;Node15 -->
<g id="edge68" class="edge">
<title>Node1&#45;&gt;Node15</title>
<path fill="none" stroke="midnightblue" d="M272.84,-513.6C250.98,-492.87 216,-453.06 216,-410.5 216,-410.5 216,-410.5 216,-180.5 216,-149.76 212.29,-134.72 235,-114 249.79,-100.5 372.98,-82.27 437.27,-73.55"/>
<polygon fill="midnightblue" stroke="midnightblue" points="437.36,-76.94 446.8,-72.14 436.43,-70 437.36,-76.94"/>
</g>
<!-- Node35 -->
<g id="node33" class="node">
<title>Node35</title>
<g id="a_node33"><a xlink:href="_cube_8h.html" target="_top" xlink:title=" ">
<polygon fill="none" stroke="black" points="244.12,-285.5 244.12,-305.5 335.88,-305.5 335.88,-285.5 244.12,-285.5"/>
<text text-anchor="middle" x="290" y="-292" font-family="Helvetica,sans-Serif" font-size="10.00">Primitives/Cube.h</text>
</a>
</g>
</g>
<!-- Node1&#45;&gt;Node35 -->
<g id="edge50" class="edge">
<title>Node1&#45;&gt;Node35</title>
<path fill="none" stroke="midnightblue" d="M290,-513.63C290,-473.23 290,-361.39 290,-316.01"/>
<polygon fill="midnightblue" stroke="midnightblue" points="293.5,-316.09 290,-306.09 286.5,-316.09 293.5,-316.09"/>
</g>
<!-- Node47 -->
<g id="node45" class="node">
<title>Node47</title>
<g id="a_node45"><a xlink:href="_pipeline_8h.html" target="_top" xlink:title=" ">
<polygon fill="none" stroke="black" points="943.62,-399.5 943.62,-419.5 1002.38,-419.5 1002.38,-399.5 943.62,-399.5"/>
<text text-anchor="middle" x="973" y="-406" font-family="Helvetica,sans-Serif" font-size="10.00">Pipeline.h</text>
</a>
</g>
</g>
<!-- Node1&#45;&gt;Node47 -->
<g id="edge69" class="edge">
<title>Node1&#45;&gt;Node47</title>
<path fill="none" stroke="midnightblue" d="M354.87,-517.29C494.41,-493.19 819.6,-437 933.07,-417.4"/>
<polygon fill="midnightblue" stroke="midnightblue" points="933.43,-420.72 942.69,-415.56 932.24,-413.82 933.43,-420.72"/>
</g>
<!-- Node51 -->
<g id="node49" class="node">
<title>Node51</title>
<g id="a_node49"><a xlink:href="_solid_geometry_effect_8h.html" target="_top" xlink:title=" ">
<polygon fill="none" stroke="black" points="413.75,-456.5 413.75,-476.5 560.25,-476.5 560.25,-456.5 413.75,-456.5"/>
<text text-anchor="middle" x="487" y="-463" font-family="Helvetica,sans-Serif" font-size="10.00">Effects/SolidGeometryEffect.h</text>
</a>
</g>
</g>
<!-- Node1&#45;&gt;Node51 -->
<g id="edge82" class="edge">
<title>Node1&#45;&gt;Node51</title>
<path fill="none" stroke="midnightblue" d="M338.19,-513.58C371.96,-503.12 416.52,-489.32 448.05,-479.56"/>
<polygon fill="midnightblue" stroke="midnightblue" points="448.69,-482.72 457.21,-476.42 446.62,-476.03 448.69,-482.72"/>
</g>
<!-- Node3 -->
<g id="node3" class="node">
<title>Node3</title>
<g id="a_node3"><a xlink:href="_keyboard_8h.html" target="_top" xlink:title=" ">
<polygon fill="none" stroke="black" points="12.25,-285.5 12.25,-305.5 77.75,-305.5 77.75,-285.5 12.25,-285.5"/>
<text text-anchor="middle" x="45" y="-292" font-family="Helvetica,sans-Serif" font-size="10.00">Keyboard.h</text>
</a>
</g>
</g>
<!-- Node2&#45;&gt;Node3 -->
<g id="edge2" class="edge">
<title>Node2&#45;&gt;Node3</title>
<path fill="none" stroke="midnightblue" d="M142.94,-342.54C124.24,-333.75 95.49,-320.23 73.96,-310.11"/>
<polygon fill="midnightblue" stroke="midnightblue" points="75.59,-306.54 65.05,-305.46 72.61,-312.88 75.59,-306.54"/>
</g>
<!-- Node6 -->
<g id="node6" class="node">
<title>Node6</title>
<g id="a_node6"><a xlink:href="_mouse_8h.html" target="_top" xlink:title=" ">
<polygon fill="none" stroke="black" points="96.25,-285.5 96.25,-305.5 149.75,-305.5 149.75,-285.5 96.25,-285.5"/>
<text text-anchor="middle" x="123" y="-292" font-family="Helvetica,sans-Serif" font-size="10.00">Mouse.h</text>
</a>
</g>
</g>
<!-- Node2&#45;&gt;Node6 -->
<g id="edge5" class="edge">
<title>Node2&#45;&gt;Node6</title>
<path fill="none" stroke="midnightblue" d="M155.91,-342.91C150.44,-335.2 142.26,-323.66 135.42,-314.02"/>
<polygon fill="midnightblue" stroke="midnightblue" points="137.82,-312.35 129.18,-306.21 132.11,-316.4 137.82,-312.35"/>
</g>
<!-- Node19 -->
<g id="node17" class="node">
<title>Node19</title>
<g id="a_node17"><a xlink:href="_graphics_8h.html" target="_top" xlink:title=" ">
<polygon fill="none" stroke="black" points="589.38,-285.5 589.38,-305.5 652.62,-305.5 652.62,-285.5 589.38,-285.5"/>
<text text-anchor="middle" x="621" y="-292" font-family="Helvetica,sans-Serif" font-size="10.00">Graphics.h</text>
</a>
</g>
</g>
<!-- Node2&#45;&gt;Node19 -->
<g id="edge23" class="edge">
<title>Node2&#45;&gt;Node19</title>
<path fill="none" stroke="midnightblue" d="M187.99,-348.39C263.89,-339.29 485.72,-312.71 578.96,-301.54"/>
<polygon fill="midnightblue" stroke="midnightblue" points="579.16,-304.92 588.67,-300.25 578.32,-297.97 579.16,-304.92"/>
</g>
<!-- Node21 -->
<g id="node19" class="node">
<title>Node21</title>
<g id="a_node19"><a xlink:title=" ">
<polygon fill="none" stroke="#bfbfbf" points="514,-114.5 514,-134.5 554,-134.5 554,-114.5 514,-114.5"/>
<text text-anchor="middle" x="534" y="-121" font-family="Helvetica,sans-Serif" font-size="10.00">string</text>
</a>
</g>
</g>
<!-- Node2&#45;&gt;Node21 -->
<g id="edge49" class="edge">
<title>Node2&#45;&gt;Node21</title>
<path fill="none" stroke="midnightblue" d="M165.32,-342.77C177.22,-312.77 220.95,-213.47 293,-171 372.44,-124.17 409.57,-155.55 503.63,-134.9"/>
<polygon fill="midnightblue" stroke="midnightblue" points="504.21,-138.13 513.14,-132.43 502.61,-131.31 504.21,-138.13"/>
</g>
<!-- Node4 -->
<g id="node4" class="node">
<title>Node4</title>
<g id="a_node4"><a xlink:title=" ">
<polygon fill="none" stroke="#bfbfbf" points="0,-228.5 0,-248.5 40,-248.5 40,-228.5 0,-228.5"/>
<text text-anchor="middle" x="20" y="-235" font-family="Helvetica,sans-Serif" font-size="10.00">bitset</text>
</a>
</g>
</g>
<!-- Node3&#45;&gt;Node4 -->
<g id="edge3" class="edge">
<title>Node3&#45;&gt;Node4</title>
<path fill="none" stroke="midnightblue" d="M41.09,-285.91C37.7,-278.44 32.67,-267.38 28.38,-257.93"/>
<polygon fill="midnightblue" stroke="midnightblue" points="31.29,-256.87 23.96,-249.21 24.91,-259.77 31.29,-256.87"/>
</g>
<!-- Node5 -->
<g id="node5" class="node">
<title>Node5</title>
<g id="a_node5"><a xlink:title=" ">
<polygon fill="none" stroke="#bfbfbf" points="57.88,-228.5 57.88,-248.5 100.12,-248.5 100.12,-228.5 57.88,-228.5"/>
<text text-anchor="middle" x="79" y="-235" font-family="Helvetica,sans-Serif" font-size="10.00">queue</text>
</a>
</g>
</g>
<!-- Node3&#45;&gt;Node5 -->
<g id="edge4" class="edge">
<title>Node3&#45;&gt;Node5</title>
<path fill="none" stroke="midnightblue" d="M50.31,-285.91C55.03,-278.28 62.06,-266.9 67.99,-257.32"/>
<polygon fill="midnightblue" stroke="midnightblue" points="71.33,-259.56 73.61,-249.21 65.38,-255.88 71.33,-259.56"/>
</g>
<!-- Node6&#45;&gt;Node5 -->
<g id="edge22" class="edge">
<title>Node6&#45;&gt;Node5</title>
<path fill="none" stroke="midnightblue" d="M116.12,-285.91C109.9,-278.12 100.54,-266.42 92.77,-256.71"/>
<polygon fill="midnightblue" stroke="midnightblue" points="94.95,-254.84 85.97,-249.21 89.49,-259.21 94.95,-254.84"/>
</g>
<!-- Node7 -->
<g id="node7" class="node">
<title>Node7</title>
<g id="a_node7"><a xlink:href="_vector2_8h.html" target="_top" xlink:title=" ">
<polygon fill="none" stroke="black" points="67.88,-114.5 67.88,-134.5 188.12,-134.5 188.12,-114.5 67.88,-114.5"/>
<text text-anchor="middle" x="128" y="-121" font-family="Helvetica,sans-Serif" font-size="10.00">LinearAlgebra/Vector2.h</text>
</a>
</g>
</g>
<!-- Node6&#45;&gt;Node7 -->
<g id="edge6" class="edge">
<title>Node6&#45;&gt;Node7</title>
<path fill="none" stroke="midnightblue" d="M123.25,-285.89C124.02,-259.9 126.33,-181.82 127.42,-145.05"/>
<polygon fill="midnightblue" stroke="midnightblue" points="130.94,-145.4 127.74,-135.3 123.95,-145.19 130.94,-145.4"/>
</g>
<!-- Node8 -->
<g id="node8" class="node">
<title>Node8</title>
<g id="a_node8"><a xlink:href="_math_8h.html" target="_top" xlink:title=" ">
<polygon fill="none" stroke="red" points="598,-57.5 598,-77.5 644,-77.5 644,-57.5 598,-57.5"/>
<text text-anchor="middle" x="621" y="-64" font-family="Helvetica,sans-Serif" font-size="10.00">Math.h</text>
</a>
</g>
</g>
<!-- Node7&#45;&gt;Node8 -->
<g id="edge7" class="edge">
<title>Node7&#45;&gt;Node8</title>
<path fill="none" stroke="midnightblue" d="M187.96,-116.81C292.61,-105.14 505.29,-81.41 587.51,-72.24"/>
<polygon fill="midnightblue" stroke="midnightblue" points="587.67,-75.63 597.22,-71.04 586.89,-68.67 587.67,-75.63"/>
</g>
<!-- Node13 -->
<g id="node11" class="node">
<title>Node13</title>
<g id="a_node11"><a xlink:href="_matrix2_8h.html" target="_top" xlink:title=" ">
<polygon fill="none" stroke="black" points="177.75,-57.5 177.75,-77.5 234.25,-77.5 234.25,-57.5 177.75,-57.5"/>
<text text-anchor="middle" x="206" y="-64" font-family="Helvetica,sans-Serif" font-size="10.00">Matrix2.h</text>
</a>
</g>
</g>
<!-- Node7&#45;&gt;Node13 -->
<g id="edge11" class="edge">
<title>Node7&#45;&gt;Node13</title>
<path fill="none" stroke="midnightblue" d="M140.53,-114.66C152.4,-106.29 170.46,-93.56 184.61,-83.58"/>
<polygon fill="midnightblue" stroke="midnightblue" points="186.08,-86.12 192.24,-77.5 182.05,-80.4 186.08,-86.12"/>
</g>
<!-- Node14 -->
<g id="node12" class="node">
<title>Node14</title>
<g id="a_node12"><a xlink:title=" ">
<polygon fill="none" stroke="#bfbfbf" points="276.25,-0.5 276.25,-20.5 329.75,-20.5 329.75,-0.5 276.25,-0.5"/>
<text text-anchor="middle" x="303" y="-7" font-family="Helvetica,sans-Serif" font-size="10.00">iostream</text>
</a>
</g>
</g>
<!-- Node7&#45;&gt;Node14 -->
<g id="edge21" class="edge">
<title>Node7&#45;&gt;Node14</title>
<path fill="none" stroke="midnightblue" d="M131.09,-114.83C136.57,-100.7 149.27,-72.72 169,-57 197.11,-34.6 236.86,-22.94 265.76,-17.06"/>
<polygon fill="midnightblue" stroke="midnightblue" points="266.08,-20.38 275.26,-15.08 264.78,-13.5 266.08,-20.38"/>
</g>
<!-- Node7&#45;&gt;Node15 -->
<g id="edge13" class="edge">
<title>Node7&#45;&gt;Node15</title>
<path fill="none" stroke="midnightblue" d="M184.69,-114.54C255.76,-103.31 375.72,-84.35 437.17,-74.64"/>
<polygon fill="midnightblue" stroke="midnightblue" points="437.6,-77.95 446.94,-72.94 436.51,-71.04 437.6,-77.95"/>
</g>
<!-- Node16 -->
<g id="node14" class="node">
<title>Node16</title>
<g id="a_node14"><a xlink:title=" ">
<polygon fill="none" stroke="#bfbfbf" points="479.12,-0.5 479.12,-20.5 516.88,-20.5 516.88,-0.5 479.12,-0.5"/>
<text text-anchor="middle" x="498" y="-7" font-family="Helvetica,sans-Serif" font-size="10.00">array</text>
</a>
</g>
</g>
<!-- Node7&#45;&gt;Node16 -->
<g id="edge18" class="edge">
<title>Node7&#45;&gt;Node16</title>
<path fill="none" stroke="midnightblue" d="M163.09,-114.56C194.4,-106.23 241.3,-92.88 281,-78 302.04,-70.11 305.79,-64.44 327,-57 385.82,-36.36 405.25,-39.19 469.18,-21.02"/>
<polygon fill="midnightblue" stroke="midnightblue" points="469.77,-24.2 478.39,-18.05 467.81,-17.48 469.77,-24.2"/>
</g>
<!-- Node17 -->
<g id="node15" class="node">
<title>Node17</title>
<g id="a_node15"><a xlink:title=" ">
<polygon fill="none" stroke="#bfbfbf" points="413.25,-0.5 413.25,-20.5 460.75,-20.5 460.75,-0.5 413.25,-0.5"/>
<text text-anchor="middle" x="437" y="-7" font-family="Helvetica,sans-Serif" font-size="10.00">cstddef</text>
</a>
</g>
</g>
<!-- Node7&#45;&gt;Node17 -->
<g id="edge20" class="edge">
<title>Node7&#45;&gt;Node17</title>
<path fill="none" stroke="midnightblue" d="M151.45,-114.51C174.75,-105.5 211.48,-91.12 243,-78 264.5,-69.05 269.18,-65.14 291,-57 328.88,-42.86 373.36,-29.44 403.18,-20.89"/>
<polygon fill="midnightblue" stroke="midnightblue" points="403.81,-24.07 412.47,-17.97 401.89,-17.33 403.81,-24.07"/>
</g>
<!-- Node18 -->
<g id="node16" class="node">
<title>Node18</title>
<g id="a_node16"><a xlink:title=" ">
<polygon fill="none" stroke="#bfbfbf" points="336.25,-57.5 336.25,-77.5 389.75,-77.5 389.75,-57.5 336.25,-57.5"/>
<text text-anchor="middle" x="363" y="-64" font-family="Helvetica,sans-Serif" font-size="10.00">compare</text>
</a>
</g>
</g>
<!-- Node7&#45;&gt;Node18 -->
<g id="edge19" class="edge">
<title>Node7&#45;&gt;Node18</title>
<path fill="none" stroke="midnightblue" d="M166.28,-114.54C210.31,-104.24 282.12,-87.43 325.72,-77.23"/>
<polygon fill="midnightblue" stroke="midnightblue" points="326.49,-80.41 335.43,-74.72 324.89,-73.59 326.49,-80.41"/>
</g>
<!-- Node8&#45;&gt;Node8 -->
<g id="edge8" class="edge">
<title>Node8&#45;&gt;Node8</title>
<path fill="none" stroke="midnightblue" d="M639.55,-77.43C651.05,-79.83 662,-76.52 662,-67.5 662,-61.44 657.06,-57.96 650.33,-57.05"/>
<polygon fill="midnightblue" stroke="midnightblue" points="650.37,-53.59 640.55,-57.57 650.71,-60.59 650.37,-53.59"/>
</g>
<!-- Node9 -->
<g id="node9" class="node">
<title>Node9</title>
<g id="a_node9"><a xlink:title=" ">
<polygon fill="none" stroke="#bfbfbf" points="556.5,-0.5 556.5,-20.5 599.5,-20.5 599.5,-0.5 556.5,-0.5"/>
<text text-anchor="middle" x="578" y="-7" font-family="Helvetica,sans-Serif" font-size="10.00">cmath</text>
</a>
</g>
</g>
<!-- Node8&#45;&gt;Node9 -->
<g id="edge9" class="edge">
<title>Node8&#45;&gt;Node9</title>
<path fill="none" stroke="midnightblue" d="M614.28,-57.91C608.2,-50.12 599.05,-38.42 591.46,-28.71"/>
<polygon fill="midnightblue" stroke="midnightblue" points="593.73,-26.94 584.81,-21.21 588.22,-31.25 593.73,-26.94"/>
</g>
<!-- Node10 -->
<g id="node10" class="node">
<title>Node10</title>
<g id="a_node10"><a xlink:title=" ">
<polygon fill="none" stroke="#bfbfbf" points="1308.38,-0.5 1308.38,-20.5 1347.62,-20.5 1347.62,-0.5 1308.38,-0.5"/>
<text text-anchor="middle" x="1328" y="-7" font-family="Helvetica,sans-Serif" font-size="10.00">limits</text>
</a>
</g>
</g>
<!-- Node8&#45;&gt;Node10 -->
<g id="edge10" class="edge">
<title>Node8&#45;&gt;Node10</title>
<path fill="none" stroke="midnightblue" d="M643.72,-64.73C747.8,-56.64 1178.99,-23.09 1297.65,-13.86"/>
<polygon fill="midnightblue" stroke="midnightblue" points="1297.75,-17.29 1307.44,-13.02 1297.2,-10.31 1297.75,-17.29"/>
</g>
<!-- Node13&#45;&gt;Node14 -->
<g id="edge12" class="edge">
<title>Node13&#45;&gt;Node14</title>
<path fill="none" stroke="midnightblue" d="M221.58,-57.66C236.77,-49.05 260.1,-35.83 277.9,-25.73"/>
<polygon fill="midnightblue" stroke="midnightblue" points="279.16,-28.47 286.13,-20.5 275.71,-22.39 279.16,-28.47"/>
</g>
<!-- Node15&#45;&gt;Node9 -->
<g id="edge15" class="edge">
<title>Node15&#45;&gt;Node9</title>
<path fill="none" stroke="midnightblue" d="M492.39,-57.66C508.43,-49.01 533.11,-35.7 551.86,-25.59"/>
<polygon fill="midnightblue" stroke="midnightblue" points="553.17,-28.32 560.31,-20.5 549.85,-22.16 553.17,-28.32"/>
</g>
<!-- Node15&#45;&gt;Node14 -->
<g id="edge17" class="edge">
<title>Node15&#45;&gt;Node14</title>
<path fill="none" stroke="midnightblue" d="M447.82,-57.54C418.49,-48.22 372.4,-33.57 340.12,-23.3"/>
<polygon fill="midnightblue" stroke="midnightblue" points="341.34,-19.7 330.75,-20 339.22,-26.37 341.34,-19.7"/>
</g>
<!-- Node15&#45;&gt;Node16 -->
<g id="edge14" class="edge">
<title>Node15&#45;&gt;Node16</title>
<path fill="none" stroke="midnightblue" d="M479.44,-57.91C482.39,-50.52 486.75,-39.62 490.51,-30.23"/>
<polygon fill="midnightblue" stroke="midnightblue" points="494.05,-31.8 494.51,-21.21 487.55,-29.2 494.05,-31.8"/>
</g>
<!-- Node15&#45;&gt;Node17 -->
<g id="edge16" class="edge">
<title>Node15&#45;&gt;Node17</title>
<path fill="none" stroke="midnightblue" d="M469.91,-57.91C464.44,-50.2 456.26,-38.66 449.42,-29.02"/>
<polygon fill="midnightblue" stroke="midnightblue" points="451.82,-27.35 443.18,-21.21 446.11,-31.4 451.82,-27.35"/>
</g>
<!-- Node20 -->
<g id="node18" class="node">
<title>Node20</title>
<g id="a_node18"><a xlink:href="_engine_exception_8h.html" target="_top" xlink:title=" ">
<polygon fill="none" stroke="black" points="380.12,-171.5 380.12,-191.5 477.88,-191.5 477.88,-171.5 380.12,-171.5"/>
<text text-anchor="middle" x="429" y="-178" font-family="Helvetica,sans-Serif" font-size="10.00">EngineException.h</text>
</a>
</g>
</g>
<!-- Node19&#45;&gt;Node20 -->
<g id="edge24" class="edge">
<title>Node19&#45;&gt;Node20</title>
<path fill="none" stroke="midnightblue" d="M600.15,-285.63C580.58,-277.04 550.7,-263.27 526,-249 498.47,-233.1 468.55,-211.94 449.33,-197.8"/>
<polygon fill="midnightblue" stroke="midnightblue" points="451.68,-194.45 441.56,-191.3 447.51,-200.07 451.68,-194.45"/>
</g>
<!-- Node23 -->
<g id="node21" class="node">
<title>Node23</title>
<g id="a_node21"><a xlink:href="_vector3_8h.html" target="_top" xlink:title=" ">
<polygon fill="none" stroke="black" points="571.88,-114.5 571.88,-134.5 692.12,-134.5 692.12,-114.5 571.88,-114.5"/>
<text text-anchor="middle" x="632" y="-121" font-family="Helvetica,sans-Serif" font-size="10.00">LinearAlgebra/Vector3.h</text>
</a>
</g>
</g>
<!-- Node19&#45;&gt;Node23 -->
<g id="edge27" class="edge">
<title>Node19&#45;&gt;Node23</title>
<path fill="none" stroke="midnightblue" d="M652.37,-288.08C718.08,-273.24 860.28,-233 812,-171 798.32,-153.44 747.01,-141.58 702.66,-134.39"/>
<polygon fill="midnightblue" stroke="midnightblue" points="703.27,-130.78 692.85,-132.7 702.19,-137.7 703.27,-130.78"/>
</g>
<!-- Node24 -->
<g id="node22" class="node">
<title>Node24</title>
<g id="a_node22"><a xlink:href="_g_d_i_plus_manager_8h.html" target="_top" xlink:title=" ">
<polygon fill="none" stroke="black" points="381.12,-228.5 381.12,-248.5 478.88,-248.5 478.88,-228.5 381.12,-228.5"/>
<text text-anchor="middle" x="430" y="-235" font-family="Helvetica,sans-Serif" font-size="10.00">GDIPlusManager.h</text>
</a>
</g>
</g>
<!-- Node19&#45;&gt;Node24 -->
<g id="edge34" class="edge">
<title>Node19&#45;&gt;Node24</title>
<path fill="none" stroke="midnightblue" d="M589.89,-285.54C557.7,-276.27 507.25,-261.74 471.64,-251.49"/>
<polygon fill="midnightblue" stroke="midnightblue" points="472.68,-247.86 462.1,-248.46 470.74,-254.59 472.68,-247.86"/>
</g>
<!-- Node28 -->
<g id="node26" class="node">
<title>Node28</title>
<g id="a_node26"><a xlink:href="_surface_8h.html" target="_top" xlink:title=" ">
<polygon fill="none" stroke="black" points="657.38,-228.5 657.38,-248.5 714.62,-248.5 714.62,-228.5 657.38,-228.5"/>
<text text-anchor="middle" x="686" y="-235" font-family="Helvetica,sans-Serif" font-size="10.00">Surface.h</text>
</a>
</g>
</g>
<!-- Node19&#45;&gt;Node28 -->
<g id="edge38" class="edge">
<title>Node19&#45;&gt;Node28</title>
<path fill="none" stroke="midnightblue" d="M631.44,-285.66C641.05,-277.53 655.53,-265.28 667.16,-255.44"/>
<polygon fill="midnightblue" stroke="midnightblue" points="668.99,-257.63 674.37,-248.5 664.47,-252.29 668.99,-257.63"/>
</g>
<!-- Node33 -->
<g id="node31" class="node">
<title>Node33</title>
<g id="a_node31"><a xlink:title=" ">
<polygon fill="none" stroke="#bfbfbf" points="534.75,-228.5 534.75,-248.5 585.25,-248.5 585.25,-228.5 534.75,-228.5"/>
<text text-anchor="middle" x="560" y="-235" font-family="Helvetica,sans-Serif" font-size="10.00">d3d11.h</text>
</a>
</g>
</g>
<!-- Node19&#45;&gt;Node33 -->
<g id="edge47" class="edge">
<title>Node19&#45;&gt;Node33</title>
<path fill="none" stroke="midnightblue" d="M611.2,-285.66C602.27,-277.61 588.86,-265.52 578,-255.73"/>
<polygon fill="midnightblue" stroke="midnightblue" points="580.75,-253.59 570.98,-249.5 576.06,-258.79 580.75,-253.59"/>
</g>
<!-- Node34 -->
<g id="node32" class="node">
<title>Node34</title>
<g id="a_node32"><a xlink:title=" ">
<polygon fill="none" stroke="#bfbfbf" points="602.88,-228.5 602.88,-248.5 639.12,-248.5 639.12,-228.5 602.88,-228.5"/>
<text text-anchor="middle" x="621" y="-235" font-family="Helvetica,sans-Serif" font-size="10.00">wrl.h</text>
</a>
</g>
</g>
<!-- Node19&#45;&gt;Node34 -->
<g id="edge48" class="edge">
<title>Node19&#45;&gt;Node34</title>
<path fill="none" stroke="midnightblue" d="M621,-285.91C621,-278.76 621,-268.32 621,-259.15"/>
<polygon fill="midnightblue" stroke="midnightblue" points="624.5,-259.21 621,-249.21 617.5,-259.21 624.5,-259.21"/>
</g>
<!-- Node20&#45;&gt;Node21 -->
<g id="edge25" class="edge">
<title>Node20&#45;&gt;Node21</title>
<path fill="none" stroke="midnightblue" d="M445.87,-171.66C462.38,-163.01 487.79,-149.7 507.1,-139.59"/>
<polygon fill="midnightblue" stroke="midnightblue" points="508.59,-142.24 515.82,-134.5 505.34,-136.04 508.59,-142.24"/>
</g>
<!-- Node22 -->
<g id="node20" class="node">
<title>Node22</title>
<g id="a_node20"><a xlink:title=" ">
<polygon fill="none" stroke="#bfbfbf" points="411.88,-114.5 411.88,-134.5 496.12,-134.5 496.12,-114.5 411.88,-114.5"/>
<text text-anchor="middle" x="454" y="-121" font-family="Helvetica,sans-Serif" font-size="10.00">source_location</text>
</a>
</g>
</g>
<!-- Node20&#45;&gt;Node22 -->
<g id="edge26" class="edge">
<title>Node20&#45;&gt;Node22</title>
<path fill="none" stroke="midnightblue" d="M432.91,-171.91C436.3,-164.44 441.33,-153.38 445.62,-143.93"/>
<polygon fill="midnightblue" stroke="midnightblue" points="449.09,-145.77 450.04,-135.21 442.71,-142.87 449.09,-145.77"/>
</g>
<!-- Node23&#45;&gt;Node8 -->
<g id="edge28" class="edge">
<title>Node23&#45;&gt;Node8</title>
<path fill="none" stroke="midnightblue" d="M630.28,-114.91C628.84,-107.68 626.72,-97.09 624.87,-87.85"/>
<polygon fill="midnightblue" stroke="midnightblue" points="628.14,-87.33 622.74,-78.21 621.27,-88.71 628.14,-87.33"/>
</g>
<!-- Node23&#45;&gt;Node14 -->
<g id="edge31" class="edge">
<title>Node23&#45;&gt;Node14</title>
<path fill="none" stroke="midnightblue" d="M578.1,-114.57C538.78,-107.15 484.63,-95.05 439,-78 420.19,-70.97 416.96,-65.97 399,-57 376.72,-45.88 351.24,-33.83 332.14,-24.93"/>
<polygon fill="midnightblue" stroke="midnightblue" points="333.78,-21.37 323.24,-20.34 330.83,-27.72 333.78,-21.37"/>
</g>
<!-- Node23&#45;&gt;Node15 -->
<g id="edge29" class="edge">
<title>Node23&#45;&gt;Node15</title>
<path fill="none" stroke="midnightblue" d="M606.59,-114.54C580.75,-105.43 540.51,-91.24 511.52,-81.02"/>
<polygon fill="midnightblue" stroke="midnightblue" points="513,-77.48 502.4,-77.46 510.67,-84.08 513,-77.48"/>
</g>
<!-- Node23&#45;&gt;Node16 -->
<g id="edge30" class="edge">
<title>Node23&#45;&gt;Node16</title>
<path fill="none" stroke="midnightblue" d="M621.49,-114.71C598.88,-95.82 545.4,-51.12 516.81,-27.22"/>
<polygon fill="midnightblue" stroke="midnightblue" points="519.38,-23.98 509.47,-20.25 514.89,-29.35 519.38,-23.98"/>
</g>
<!-- Node23&#45;&gt;Node17 -->
<g id="edge33" class="edge">
<title>Node23&#45;&gt;Node17</title>
<path fill="none" stroke="midnightblue" d="M615.15,-114.65C598.1,-105.64 571.05,-91.15 548,-78 532.24,-69.01 528.56,-66.33 513,-57 495.58,-46.56 475.91,-34.78 460.94,-25.82"/>
<polygon fill="midnightblue" stroke="midnightblue" points="463.23,-22.52 452.86,-20.39 459.64,-28.53 463.23,-22.52"/>
</g>
<!-- Node23&#45;&gt;Node18 -->
<g id="edge32" class="edge">
<title>Node23&#45;&gt;Node18</title>
<path fill="none" stroke="midnightblue" d="M585.41,-114.51C539.48,-105.56 467.31,-91.29 405,-78 403.45,-77.67 401.86,-77.33 400.26,-76.98"/>
<polygon fill="midnightblue" stroke="midnightblue" points="401.16,-73.37 390.64,-74.63 399.65,-80.21 401.16,-73.37"/>
</g>
<!-- Node25 -->
<g id="node23" class="node">
<title>Node25</title>
<g id="a_node23"><a xlink:href="_win_8h.html" target="_top" xlink:title=" ">
<polygon fill="none" stroke="black" points="320.25,-171.5 320.25,-191.5 361.75,-191.5 361.75,-171.5 320.25,-171.5"/>
<text text-anchor="middle" x="341" y="-178" font-family="Helvetica,sans-Serif" font-size="10.00">Win.h</text>
</a>
</g>
</g>
<!-- Node24&#45;&gt;Node25 -->
<g id="edge35" class="edge">
<title>Node24&#45;&gt;Node25</title>
<path fill="none" stroke="midnightblue" d="M415.7,-228.66C401.9,-220.13 380.76,-207.07 364.49,-197.01"/>
<polygon fill="midnightblue" stroke="midnightblue" points="366.91,-193.78 356.56,-191.5 363.23,-199.73 366.91,-193.78"/>
</g>
<!-- Node26 -->
<g id="node24" class="node">
<title>Node26</title>
<g id="a_node24"><a xlink:title=" ">
<polygon fill="none" stroke="#bfbfbf" points="244.12,-114.5 244.12,-134.5 311.88,-134.5 311.88,-114.5 244.12,-114.5"/>
<text text-anchor="middle" x="278" y="-121" font-family="Helvetica,sans-Serif" font-size="10.00">sdkddkver.h</text>
</a>
</g>
</g>
<!-- Node25&#45;&gt;Node26 -->
<g id="edge36" class="edge">
<title>Node25&#45;&gt;Node26</title>
<path fill="none" stroke="midnightblue" d="M330.88,-171.66C321.56,-163.53 307.53,-151.28 296.26,-141.44"/>
<polygon fill="midnightblue" stroke="midnightblue" points="299.14,-138.44 289.31,-134.5 294.54,-143.71 299.14,-138.44"/>
</g>
<!-- Node27 -->
<g id="node25" class="node">
<title>Node27</title>
<g id="a_node25"><a xlink:title=" ">
<polygon fill="none" stroke="#bfbfbf" points="330,-114.5 330,-134.5 394,-134.5 394,-114.5 330,-114.5"/>
<text text-anchor="middle" x="362" y="-121" font-family="Helvetica,sans-Serif" font-size="10.00">Windows.h</text>
</a>
</g>
</g>
<!-- Node25&#45;&gt;Node27 -->
<g id="edge37" class="edge">
<title>Node25&#45;&gt;Node27</title>
<path fill="none" stroke="midnightblue" d="M344.28,-171.91C347.1,-164.52 351.26,-153.62 354.85,-144.23"/>
<polygon fill="midnightblue" stroke="midnightblue" points="358.38,-145.81 358.67,-135.21 351.84,-143.31 358.38,-145.81"/>
</g>
<!-- Node28&#45;&gt;Node20 -->
<g id="edge42" class="edge">
<title>Node28&#45;&gt;Node20</title>
<path fill="none" stroke="midnightblue" d="M657.4,-230.22C654.23,-229.45 651.05,-228.7 648,-228 592.92,-215.4 529.71,-202.42 485.4,-193.57"/>
<polygon fill="midnightblue" stroke="midnightblue" points="486.33,-189.99 475.84,-191.47 484.96,-196.85 486.33,-189.99"/>
</g>
<!-- Node28&#45;&gt;Node21 -->
<g id="edge45" class="edge">
<title>Node28&#45;&gt;Node21</title>
<path fill="none" stroke="midnightblue" d="M657.38,-230.36C612.22,-218.96 529.07,-197.39 525,-192 514.69,-178.38 519.15,-158.54 524.83,-144.08"/>
<polygon fill="midnightblue" stroke="midnightblue" points="528.33,-145.82 529.2,-135.27 521.94,-142.98 528.33,-145.82"/>
</g>
<!-- Node28&#45;&gt;Node25 -->
<g id="edge39" class="edge">
<title>Node28&#45;&gt;Node25</title>
<path fill="none" stroke="midnightblue" d="M657.44,-229.98C654.27,-229.26 651.07,-228.58 648,-228 529.36,-205.54 494.12,-218.11 372.03,-191.84"/>
<polygon fill="midnightblue" stroke="midnightblue" points="373.04,-188.26 362.53,-189.53 371.54,-195.09 373.04,-188.26"/>
</g>
<!-- Node29 -->
<g id="node27" class="node">
<title>Node29</title>
<g id="a_node27"><a xlink:href="_colors_8h.html" target="_top" xlink:title=" ">
<polygon fill="none" stroke="black" points="751,-171.5 751,-191.5 803,-191.5 803,-171.5 751,-171.5"/>
<text text-anchor="middle" x="777" y="-178" font-family="Helvetica,sans-Serif" font-size="10.00">Colors.h</text>
</a>
</g>
</g>
<!-- Node28&#45;&gt;Node29 -->
<g id="edge40" class="edge">
<title>Node28&#45;&gt;Node29</title>
<path fill="none" stroke="midnightblue" d="M700.62,-228.66C714.73,-220.13 736.35,-207.07 752.99,-197.01"/>
<polygon fill="midnightblue" stroke="midnightblue" points="754.37,-199.67 761.11,-191.5 750.74,-193.67 754.37,-199.67"/>
</g>
<!-- Node30 -->
<g id="node28" class="node">
<title>Node30</title>
<g id="a_node28"><a xlink:title=" ">
<polygon fill="none" stroke="#bfbfbf" points="534.38,-171.5 534.38,-191.5 585.62,-191.5 585.62,-171.5 534.38,-171.5"/>
<text text-anchor="middle" x="560" y="-178" font-family="Helvetica,sans-Serif" font-size="10.00">assert.h</text>
</a>
</g>
</g>
<!-- Node28&#45;&gt;Node30 -->
<g id="edge43" class="edge">
<title>Node28&#45;&gt;Node30</title>
<path fill="none" stroke="midnightblue" d="M665.48,-228.54C645.16,-219.67 613.8,-205.99 590.56,-195.84"/>
<polygon fill="midnightblue" stroke="midnightblue" points="592.08,-192.25 581.52,-191.46 589.28,-198.66 592.08,-192.25"/>
</g>
<!-- Node31 -->
<g id="node29" class="node">
<title>Node31</title>
<g id="a_node29"><a xlink:title=" ">
<polygon fill="none" stroke="#bfbfbf" points="603.38,-171.5 603.38,-191.5 654.62,-191.5 654.62,-171.5 603.38,-171.5"/>
<text text-anchor="middle" x="629" y="-178" font-family="Helvetica,sans-Serif" font-size="10.00">memory</text>
</a>
</g>
</g>
<!-- Node28&#45;&gt;Node31 -->
<g id="edge44" class="edge">
<title>Node28&#45;&gt;Node31</title>
<path fill="none" stroke="midnightblue" d="M676.84,-228.66C668.58,-220.69 656.22,-208.76 646.13,-199.02"/>
<polygon fill="midnightblue" stroke="midnightblue" points="648.95,-196.92 639.32,-192.5 644.09,-201.96 648.95,-196.92"/>
</g>
<!-- Node32 -->
<g id="node30" class="node">
<title>Node32</title>
<g id="a_node30"><a xlink:title=" ">
<polygon fill="none" stroke="#bfbfbf" points="672.88,-171.5 672.88,-191.5 733.12,-191.5 733.12,-171.5 672.88,-171.5"/>
<text text-anchor="middle" x="703" y="-178" font-family="Helvetica,sans-Serif" font-size="10.00">filesystem</text>
</a>
</g>
</g>
<!-- Node28&#45;&gt;Node32 -->
<g id="edge46" class="edge">
<title>Node28&#45;&gt;Node32</title>
<path fill="none" stroke="midnightblue" d="M688.66,-228.91C690.91,-221.6 694.24,-210.85 697.12,-201.54"/>
<polygon fill="midnightblue" stroke="midnightblue" points="700.7,-202.8 700.31,-192.21 694.01,-200.74 700.7,-202.8"/>
</g>
<!-- Node29&#45;&gt;Node23 -->
<g id="edge41" class="edge">
<title>Node29&#45;&gt;Node23</title>
<path fill="none" stroke="midnightblue" d="M753.38,-171.54C729.58,-162.51 692.61,-148.49 665.73,-138.29"/>
<polygon fill="midnightblue" stroke="midnightblue" points="667.2,-134.73 656.61,-134.46 664.72,-141.27 667.2,-134.73"/>
</g>
<!-- Node35&#45;&gt;Node7 -->
<g id="edge66" class="edge">
<title>Node35&#45;&gt;Node7</title>
<path fill="none" stroke="midnightblue" d="M281.74,-285.89C256.08,-259.11 177.38,-177.01 143.63,-141.81"/>
<polygon fill="midnightblue" stroke="midnightblue" points="146.88,-140.1 137.43,-135.3 141.83,-144.94 146.88,-140.1"/>
</g>
<!-- Node35&#45;&gt;Node23 -->
<g id="edge67" class="edge">
<title>Node35&#45;&gt;Node23</title>
<path fill="none" stroke="midnightblue" d="M288.42,-285.78C284.86,-263.17 278.89,-202.24 311,-171 312.12,-169.91 466.79,-148.35 561,-135.3"/>
<polygon fill="midnightblue" stroke="midnightblue" points="561.47,-138.63 570.89,-133.8 560.51,-131.7 561.47,-138.63"/>
</g>
<!-- Node36 -->
<g id="node34" class="node">
<title>Node36</title>
<g id="a_node34"><a xlink:href="_indexed_triangle_list_8h.html" target="_top" xlink:title=" ">
<polygon fill="none" stroke="black" points="1013.25,-228.5 1013.25,-248.5 1120.75,-248.5 1120.75,-228.5 1013.25,-228.5"/>
<text text-anchor="middle" x="1067" y="-235" font-family="Helvetica,sans-Serif" font-size="10.00">IndexedTriangleList.h</text>
</a>
</g>
</g>
<!-- Node35&#45;&gt;Node36 -->
<g id="edge51" class="edge">
<title>Node35&#45;&gt;Node36</title>
<path fill="none" stroke="midnightblue" d="M335.7,-291.26C467.7,-281.92 849.78,-254.88 1002.66,-244.05"/>
<polygon fill="midnightblue" stroke="midnightblue" points="1002.53,-247.5 1012.26,-243.3 1002.04,-240.52 1002.53,-247.5"/>
</g>
<!-- Node36&#45;&gt;Node23 -->
<g id="edge52" class="edge">
<title>Node36&#45;&gt;Node23</title>
<path fill="none" stroke="midnightblue" d="M1034.9,-228.56C1006.02,-220.18 962.62,-206.76 926,-192 906.27,-184.05 903.21,-177.63 883,-171 823.8,-151.59 753.87,-139.77 702.87,-133.06"/>
<polygon fill="midnightblue" stroke="midnightblue" points="703.33,-129.47 692.97,-131.67 702.44,-136.41 703.33,-129.47"/>
</g>
<!-- Node37 -->
<g id="node35" class="node">
<title>Node37</title>
<g id="a_node35"><a xlink:href="tiny__obj__loader_8h.html" target="_top" xlink:title=" ">
<polygon fill="none" stroke="black" points="1064.25,-171.5 1064.25,-191.5 1153.75,-191.5 1153.75,-171.5 1064.25,-171.5"/>
<text text-anchor="middle" x="1109" y="-178" font-family="Helvetica,sans-Serif" font-size="10.00">tiny_obj_loader.h</text>
</a>
</g>
</g>
<!-- Node36&#45;&gt;Node37 -->
<g id="edge53" class="edge">
<title>Node36&#45;&gt;Node37</title>
<path fill="none" stroke="midnightblue" d="M1073.56,-228.91C1079.51,-221.12 1088.44,-209.42 1095.85,-199.71"/>
<polygon fill="midnightblue" stroke="midnightblue" points="1099.06,-202.29 1102.34,-192.21 1093.49,-198.04 1099.06,-202.29"/>
</g>
<!-- Node39 -->
<g id="node37" class="node">
<title>Node39</title>
<g id="a_node37"><a xlink:title=" ">
<polygon fill="none" stroke="#bfbfbf" points="1116.25,-114.5 1116.25,-134.5 1157.75,-134.5 1157.75,-114.5 1116.25,-114.5"/>
<text text-anchor="middle" x="1137" y="-121" font-family="Helvetica,sans-Serif" font-size="10.00">vector</text>
</a>
</g>
</g>
<!-- Node36&#45;&gt;Node39 -->
<g id="edge63" class="edge">
<title>Node36&#45;&gt;Node39</title>
<path fill="none" stroke="midnightblue" d="M1108.98,-228.62C1128.97,-222.06 1151.07,-210.86 1163,-192 1172.89,-176.36 1162.41,-156.34 1151.94,-142.38"/>
<polygon fill="midnightblue" stroke="midnightblue" points="1154.31,-140.73 1145.29,-135.18 1148.87,-145.15 1154.31,-140.73"/>
</g>
<!-- Node40 -->
<g id="node38" class="node">
<title>Node40</title>
<g id="a_node38"><a xlink:href="_miniball_8h.html" target="_top" xlink:title=" ">
<polygon fill="none" stroke="black" points="1277.38,-171.5 1277.38,-191.5 1334.62,-191.5 1334.62,-171.5 1277.38,-171.5"/>
<text text-anchor="middle" x="1306" y="-178" font-family="Helvetica,sans-Serif" font-size="10.00">Miniball.h</text>
</a>
</g>
</g>
<!-- Node36&#45;&gt;Node40 -->
<g id="edge57" class="edge">
<title>Node36&#45;&gt;Node40</title>
<path fill="none" stroke="midnightblue" d="M1105.93,-228.54C1150.32,-218.33 1222.46,-201.72 1266.91,-191.5"/>
<polygon fill="midnightblue" stroke="midnightblue" points="1267.62,-194.69 1276.58,-189.04 1266.05,-187.87 1267.62,-194.69"/>
</g>
<!-- Node45 -->
<g id="node43" class="node">
<title>Node45</title>
<g id="a_node43"><a xlink:title=" ">
<polygon fill="none" stroke="#bfbfbf" points="934.88,-171.5 934.88,-191.5 983.12,-191.5 983.12,-171.5 934.88,-171.5"/>
<text text-anchor="middle" x="959" y="-178" font-family="Helvetica,sans-Serif" font-size="10.00">fstream</text>
</a>
</g>
</g>
<!-- Node36&#45;&gt;Node45 -->
<g id="edge64" class="edge">
<title>Node36&#45;&gt;Node45</title>
<path fill="none" stroke="midnightblue" d="M1049.65,-228.66C1032.59,-219.97 1006.29,-206.58 986.4,-196.45"/>
<polygon fill="midnightblue" stroke="midnightblue" points="988.17,-192.92 977.67,-191.5 984.99,-199.15 988.17,-192.92"/>
</g>
<!-- Node46 -->
<g id="node44" class="node">
<title>Node46</title>
<g id="a_node44"><a xlink:title=" ">
<polygon fill="none" stroke="#bfbfbf" points="1001.38,-171.5 1001.38,-191.5 1046.62,-191.5 1046.62,-171.5 1001.38,-171.5"/>
<text text-anchor="middle" x="1024" y="-178" font-family="Helvetica,sans-Serif" font-size="10.00">cctype</text>
</a>
</g>
</g>
<!-- Node36&#45;&gt;Node46 -->
<g id="edge65" class="edge">
<title>Node36&#45;&gt;Node46</title>
<path fill="none" stroke="midnightblue" d="M1060.28,-228.91C1054.2,-221.12 1045.05,-209.42 1037.46,-199.71"/>
<polygon fill="midnightblue" stroke="midnightblue" points="1039.73,-197.94 1030.81,-192.21 1034.22,-202.25 1039.73,-197.94"/>
</g>
<!-- Node37&#45;&gt;Node21 -->
<g id="edge55" class="edge">
<title>Node37&#45;&gt;Node21</title>
<path fill="none" stroke="midnightblue" d="M1064.52,-172.18C1061.64,-171.75 1058.78,-171.35 1056,-171 841.54,-144.02 780.5,-176.43 564.54,-134.8"/>
<polygon fill="midnightblue" stroke="midnightblue" points="565.29,-131.18 554.8,-132.69 563.94,-138.05 565.29,-131.18"/>
</g>
<!-- Node38 -->
<g id="node36" class="node">
<title>Node38</title>
<g id="a_node36"><a xlink:title=" ">
<polygon fill="none" stroke="#bfbfbf" points="1063.62,-114.5 1063.62,-134.5 1098.38,-134.5 1098.38,-114.5 1063.62,-114.5"/>
<text text-anchor="middle" x="1081" y="-121" font-family="Helvetica,sans-Serif" font-size="10.00">map</text>
</a>
</g>
</g>
<!-- Node37&#45;&gt;Node38 -->
<g id="edge54" class="edge">
<title>Node37&#45;&gt;Node38</title>
<path fill="none" stroke="midnightblue" d="M1104.62,-171.91C1100.83,-164.44 1095.19,-153.38 1090.38,-143.93"/>
<polygon fill="midnightblue" stroke="midnightblue" points="1093.09,-142.54 1085.44,-135.21 1086.85,-145.71 1093.09,-142.54"/>
</g>
<!-- Node37&#45;&gt;Node39 -->
<g id="edge56" class="edge">
<title>Node37&#45;&gt;Node39</title>
<path fill="none" stroke="midnightblue" d="M1113.38,-171.91C1117.17,-164.44 1122.81,-153.38 1127.62,-143.93"/>
<polygon fill="midnightblue" stroke="midnightblue" points="1131.15,-145.71 1132.56,-135.21 1124.91,-142.54 1131.15,-145.71"/>
</g>
<!-- Node40&#45;&gt;Node10 -->
<g id="edge62" class="edge">
<title>Node40&#45;&gt;Node10</title>
<path fill="none" stroke="midnightblue" d="M1307.12,-171.89C1310.5,-145.9 1320.67,-67.82 1325.46,-31.05"/>
<polygon fill="midnightblue" stroke="midnightblue" points="1329.03,-31.67 1326.85,-21.3 1322.09,-30.76 1329.03,-31.67"/>
</g>
<!-- Node41 -->
<g id="node39" class="node">
<title>Node41</title>
<g id="a_node39"><a xlink:title=" ">
<polygon fill="none" stroke="#bfbfbf" points="1355.88,-114.5 1355.88,-134.5 1404.12,-134.5 1404.12,-114.5 1355.88,-114.5"/>
<text text-anchor="middle" x="1380" y="-121" font-family="Helvetica,sans-Serif" font-size="10.00">cassert</text>
</a>
</g>
</g>
<!-- Node40&#45;&gt;Node41 -->
<g id="edge58" class="edge">
<title>Node40&#45;&gt;Node41</title>
<path fill="none" stroke="midnightblue" d="M1317.89,-171.66C1329.04,-163.37 1345.96,-150.8 1359.32,-140.87"/>
<polygon fill="midnightblue" stroke="midnightblue" points="1360.96,-143.27 1366.89,-134.5 1356.78,-137.65 1360.96,-143.27"/>
</g>
<!-- Node42 -->
<g id="node40" class="node">
<title>Node42</title>
<g id="a_node40"><a xlink:title=" ">
<polygon fill="none" stroke="#bfbfbf" points="1460.12,-114.5 1460.12,-134.5 1515.88,-134.5 1515.88,-114.5 1460.12,-114.5"/>
<text text-anchor="middle" x="1488" y="-121" font-family="Helvetica,sans-Serif" font-size="10.00">algorithm</text>
</a>
</g>
</g>
<!-- Node40&#45;&gt;Node42 -->
<g id="edge59" class="edge">
<title>Node40&#45;&gt;Node42</title>
<path fill="none" stroke="midnightblue" d="M1334.44,-171.91C1365.6,-162.49 1415.75,-147.33 1450.21,-136.92"/>
<polygon fill="midnightblue" stroke="midnightblue" points="1450.8,-140.1 1459.36,-133.85 1448.77,-133.4 1450.8,-140.1"/>
</g>
<!-- Node43 -->
<g id="node41" class="node">
<title>Node43</title>
<g id="a_node41"><a xlink:title=" ">
<polygon fill="none" stroke="#bfbfbf" points="1271.6,-114.5 1271.6,-134.5 1300.4,-134.5 1300.4,-114.5 1271.6,-114.5"/>
<text text-anchor="middle" x="1285.97" y="-121" font-family="Helvetica,sans-Serif" font-size="10.00">list</text>
</a>
</g>
</g>
<!-- Node40&#45;&gt;Node43 -->
<g id="edge60" class="edge">
<title>Node40&#45;&gt;Node43</title>
<path fill="none" stroke="midnightblue" d="M1302.88,-171.91C1300.22,-164.6 1296.31,-153.85 1292.92,-144.54"/>
<polygon fill="midnightblue" stroke="midnightblue" points="1295.88,-143.42 1289.17,-135.21 1289.3,-145.81 1295.88,-143.42"/>
</g>
<!-- Node44 -->
<g id="node42" class="node">
<title>Node44</title>
<g id="a_node42"><a xlink:title=" ">
<polygon fill="none" stroke="#bfbfbf" points="1214,-114.5 1214,-134.5 1254,-134.5 1254,-114.5 1214,-114.5"/>
<text text-anchor="middle" x="1234" y="-121" font-family="Helvetica,sans-Serif" font-size="10.00">ctime</text>
</a>
</g>
</g>
<!-- Node40&#45;&gt;Node44 -->
<g id="edge61" class="edge">
<title>Node40&#45;&gt;Node44</title>
<path fill="none" stroke="midnightblue" d="M1294.43,-171.66C1283.68,-163.45 1267.44,-151.04 1254.49,-141.15"/>
<polygon fill="midnightblue" stroke="midnightblue" points="1256.85,-137.79 1246.78,-134.5 1252.6,-143.35 1256.85,-137.79"/>
</g>
<!-- Node47&#45;&gt;Node15 -->
<g id="edge77" class="edge">
<title>Node47&#45;&gt;Node15</title>
<path fill="none" stroke="midnightblue" d="M981.83,-399.61C1012.87,-368.35 1115.81,-264.58 1130,-249 1152.3,-224.51 1166.65,-223.11 1178,-192 1185.8,-170.64 1172.12,-118.5 1167,-114 1118.67,-71.51 653.18,-82.7 589,-78 564.25,-76.19 536.49,-73.86 514.67,-71.96"/>
<polygon fill="midnightblue" stroke="midnightblue" points="515.12,-68.4 504.85,-71.01 514.51,-75.37 515.12,-68.4"/>
</g>
<!-- Node47&#45;&gt;Node19 -->
<g id="edge71" class="edge">
<title>Node47&#45;&gt;Node19</title>
<path fill="none" stroke="midnightblue" d="M943.9,-402.07C908.59,-394.03 847.41,-379.32 796,-363 744.91,-346.78 687.01,-323.86 652.28,-309.6"/>
<polygon fill="midnightblue" stroke="midnightblue" points="653.86,-306.05 643.28,-305.47 651.19,-312.52 653.86,-306.05"/>
</g>
<!-- Node47&#45;&gt;Node25 -->
<g id="edge70" class="edge">
<title>Node47&#45;&gt;Node25</title>
<path fill="none" stroke="midnightblue" d="M943.94,-404.13C898.56,-397.06 808.26,-381.95 733,-363 569.84,-321.92 498.47,-359.97 372,-249 357.95,-236.67 349.82,-216.62 345.44,-201.76"/>
<polygon fill="midnightblue" stroke="midnightblue" points="348.6,-200.99 342.69,-192.19 341.82,-202.75 348.6,-200.99"/>
</g>
<!-- Node47&#45;&gt;Node36 -->
<g id="edge73" class="edge">
<title>Node47&#45;&gt;Node36</title>
<path fill="none" stroke="midnightblue" d="M1002.12,-408.55C1035.59,-406.85 1089.21,-398.34 1115,-363 1139.62,-329.26 1105.16,-281.24 1083.05,-256.18"/>
<polygon fill="midnightblue" stroke="midnightblue" points="1086.2,-254.35 1076.86,-249.34 1081.04,-259.08 1086.2,-254.35"/>
</g>
<!-- Node47&#45;&gt;Node42 -->
<g id="edge81" class="edge">
<title>Node47&#45;&gt;Node42</title>
<path fill="none" stroke="midnightblue" d="M1002.07,-408.09C1107.12,-405.85 1461,-391.25 1461,-296.5 1461,-296.5 1461,-296.5 1461,-237.5 1461,-204.1 1472.49,-166.62 1480.48,-144.59"/>
<polygon fill="midnightblue" stroke="midnightblue" points="1484.1,-145.92 1484.36,-135.33 1477.55,-143.44 1484.1,-145.92"/>
</g>
<!-- Node48 -->
<g id="node46" class="node">
<title>Node48</title>
<g id="a_node46"><a xlink:href="_triangle_8h.html" target="_top" xlink:title=" ">
<polygon fill="none" stroke="black" points="1048,-342.5 1048,-362.5 1106,-362.5 1106,-342.5 1048,-342.5"/>
<text text-anchor="middle" x="1077" y="-349" font-family="Helvetica,sans-Serif" font-size="10.00">Triangle.h</text>
</a>
</g>
</g>
<!-- Node47&#45;&gt;Node48 -->
<g id="edge72" class="edge">
<title>Node47&#45;&gt;Node48</title>
<path fill="none" stroke="midnightblue" d="M989.71,-399.66C1006.06,-391.01 1031.23,-377.7 1050.35,-367.59"/>
<polygon fill="midnightblue" stroke="midnightblue" points="1051.78,-370.27 1058.99,-362.5 1048.51,-364.08 1051.78,-370.27"/>
</g>
<!-- Node49 -->
<g id="node47" class="node">
<title>Node49</title>
<g id="a_node47"><a xlink:href="_pube_screen_transformer_8h.html" target="_top" xlink:title=" ">
<polygon fill="none" stroke="black" points="804.75,-342.5 804.75,-362.5 933.25,-362.5 933.25,-342.5 804.75,-342.5"/>
<text text-anchor="middle" x="869" y="-349" font-family="Helvetica,sans-Serif" font-size="10.00">PubeScreenTransformer.h</text>
</a>
</g>
</g>
<!-- Node47&#45;&gt;Node49 -->
<g id="edge74" class="edge">
<title>Node47&#45;&gt;Node49</title>
<path fill="none" stroke="midnightblue" d="M956.29,-399.66C939.94,-391.01 914.77,-377.7 895.65,-367.59"/>
<polygon fill="midnightblue" stroke="midnightblue" points="897.49,-364.08 887.01,-362.5 894.22,-370.27 897.49,-364.08"/>
</g>
<!-- Node50 -->
<g id="node48" class="node">
<title>Node50</title>
<g id="a_node48"><a xlink:href="_z_buffer_8h.html" target="_top" xlink:title=" ">
<polygon fill="none" stroke="black" points="1352.88,-171.5 1352.88,-191.5 1407.12,-191.5 1407.12,-171.5 1352.88,-171.5"/>
<text text-anchor="middle" x="1380" y="-178" font-family="Helvetica,sans-Serif" font-size="10.00">ZBuffer.h</text>
</a>
</g>
</g>
<!-- Node47&#45;&gt;Node50 -->
<g id="edge78" class="edge">
<title>Node47&#45;&gt;Node50</title>
<path fill="none" stroke="midnightblue" d="M1002.25,-403.33C1035.03,-396.83 1089.16,-383.9 1132,-363 1227.22,-316.54 1324.22,-233.28 1362.73,-198.47"/>
<polygon fill="midnightblue" stroke="midnightblue" points="1364.4,-201.77 1369.43,-192.45 1359.69,-196.6 1364.4,-201.77"/>
</g>
<!-- Node49&#45;&gt;Node19 -->
<g id="edge75" class="edge">
<title>Node49&#45;&gt;Node19</title>
<path fill="none" stroke="midnightblue" d="M828.6,-342.54C782.99,-332.42 709.11,-316.04 662.89,-305.79"/>
<polygon fill="midnightblue" stroke="midnightblue" points="663.86,-302.2 653.34,-303.45 662.34,-309.03 663.86,-302.2"/>
</g>
<!-- Node49&#45;&gt;Node23 -->
<g id="edge76" class="edge">
<title>Node49&#45;&gt;Node23</title>
<path fill="none" stroke="midnightblue" d="M870.05,-342.87C873.02,-314.03 878.42,-220.06 830,-171 812.17,-152.93 751.79,-140.8 702.35,-133.64"/>
<polygon fill="midnightblue" stroke="midnightblue" points="703.06,-130.06 692.67,-132.14 702.09,-136.99 703.06,-130.06"/>
</g>
<!-- Node50&#45;&gt;Node10 -->
<g id="edge79" class="edge">
<title>Node50&#45;&gt;Node10</title>
<path fill="none" stroke="midnightblue" d="M1389.49,-171.75C1401.79,-159.3 1420.78,-135.58 1413,-114 1400.03,-78.04 1368.34,-45.76 1347.54,-27.42"/>
<polygon fill="midnightblue" stroke="midnightblue" points="1350.25,-24.28 1340.37,-20.44 1345.7,-29.6 1350.25,-24.28"/>
</g>
<!-- Node50&#45;&gt;Node41 -->
<g id="edge80" class="edge">
<title>Node50&#45;&gt;Node41</title>
<path fill="none" stroke="midnightblue" d="M1380,-171.91C1380,-164.76 1380,-154.32 1380,-145.15"/>
<polygon fill="midnightblue" stroke="midnightblue" points="1383.5,-145.21 1380,-135.21 1376.5,-145.21 1383.5,-145.21"/>
</g>
<!-- Node51&#45;&gt;Node47 -->
<g id="edge83" class="edge">
<title>Node51&#45;&gt;Node47</title>
<path fill="none" stroke="midnightblue" d="M560.02,-457.24C664.04,-445.46 851.31,-424.27 933.03,-415.02"/>
<polygon fill="midnightblue" stroke="midnightblue" points="933.3,-418.4 942.84,-413.8 932.51,-411.45 933.3,-418.4"/>
</g>
<!-- Node52 -->
<g id="node50" class="node">
<title>Node52</title>
<g id="a_node50"><a xlink:href="_default_vertex_shader_8h.html" target="_top" xlink:title=" ">
<polygon fill="none" stroke="black" points="410.75,-399.5 410.75,-419.5 563.25,-419.5 563.25,-399.5 410.75,-399.5"/>
<text text-anchor="middle" x="487" y="-406" font-family="Helvetica,sans-Serif" font-size="10.00">Shaders/DefaultVertexShader.h</text>
</a>
</g>
</g>
<!-- Node51&#45;&gt;Node52 -->
<g id="edge84" class="edge">
<title>Node51&#45;&gt;Node52</title>
<path fill="none" stroke="midnightblue" d="M487,-456.91C487,-449.76 487,-439.32 487,-430.15"/>
<polygon fill="midnightblue" stroke="midnightblue" points="490.5,-430.21 487,-420.21 483.5,-430.21 490.5,-430.21"/>
</g>
</g>
</svg>
