<?xml version="1.0" encoding="UTF-8" standalone="no"?>
<!DOCTYPE svg PUBLIC "-//W3C//DTD SVG 1.1//EN"
 "http://www.w3.org/Graphics/SVG/1.1/DTD/svg11.dtd">
<!-- Generated by graphviz version 8.1.0 (20230707.0739)
 -->
<!-- Title: include/Scenes/CubeSolidScene.h Pages: 1 -->
<svg width="1125pt" height="554pt"
 viewBox="0.00 0.00 1125.26 554.00" xmlns="http://www.w3.org/2000/svg" xmlns:xlink="http://www.w3.org/1999/xlink">
<g id="graph0" class="graph" transform="scale(1 1) rotate(0) translate(4 550)">
<title>include/Scenes/CubeSolidScene.h</title>
<!-- Node1 -->
<g id="node1" class="node">
<title>Node1</title>
<g id="a_node1"><a xlink:title=" ">
<polygon fill="#bfbfbf" stroke="black" points="227.38,-513.5 227.38,-545.5 357.38,-545.5 357.38,-513.5 227.38,-513.5"/>
<text text-anchor="start" x="235.38" y="-532" font-family="Helvetica,sans-Serif" font-size="10.00">include/Scenes/CubeSolid</text>
<text text-anchor="middle" x="292.38" y="-520" font-family="Helvetica,sans-Serif" font-size="10.00">Scene.h</text>
</a>
</g>
</g>
<!-- Node2 -->
<g id="node2" class="node">
<title>Node2</title>
<g id="a_node2"><a xlink:href="_scene_8h.html" target="_top" xlink:title=" ">
<polygon fill="none" stroke="black" points="266.38,-342.5 266.38,-362.5 318.38,-362.5 318.38,-342.5 266.38,-342.5"/>
<text text-anchor="middle" x="292.38" y="-349" font-family="Helvetica,sans-Serif" font-size="10.00">Scene.h</text>
</a>
</g>
</g>
<!-- Node1&#45;&gt;Node2 -->
<g id="edge1" class="edge">
<title>Node1&#45;&gt;Node2</title>
<path fill="none" stroke="midnightblue" d="M292.38,-513.58C292.38,-481.93 292.38,-408.11 292.38,-372.88"/>
<polygon fill="midnightblue" stroke="midnightblue" points="295.88,-373.16 292.38,-363.16 288.88,-373.16 295.88,-373.16"/>
</g>
<!-- Node15 -->
<g id="node15" class="node">
<title>Node15</title>
<g id="a_node15"><a xlink:href="_matrix3_8h.html" target="_top" xlink:title=" ">
<polygon fill="none" stroke="black" points="273.13,-57.5 273.13,-77.5 329.63,-77.5 329.63,-57.5 273.13,-57.5"/>
<text text-anchor="middle" x="301.38" y="-64" font-family="Helvetica,sans-Serif" font-size="10.00">Matrix3.h</text>
</a>
</g>
</g>
<!-- Node1&#45;&gt;Node15 -->
<g id="edge57" class="edge">
<title>Node1&#45;&gt;Node15</title>
<path fill="none" stroke="midnightblue" d="M280.66,-513.84C264.78,-492.45 238.38,-450.83 238.38,-410.5 238.38,-410.5 238.38,-410.5 238.38,-294.5 238.38,-214.18 208.52,-184.29 247.38,-114 254.17,-101.72 265.69,-91.32 276.34,-83.58"/>
<polygon fill="midnightblue" stroke="midnightblue" points="278.03,-85.99 284.34,-77.48 274.1,-80.19 278.03,-85.99"/>
</g>
<!-- Node34 -->
<g id="node34" class="node">
<title>Node34</title>
<g id="a_node34"><a xlink:href="_cube_8h.html" target="_top" xlink:title=" ">
<polygon fill="none" stroke="black" points="45.01,-228.5 45.01,-248.5 91.76,-248.5 91.76,-228.5 45.01,-228.5"/>
<text text-anchor="middle" x="68.38" y="-235" font-family="Helvetica,sans-Serif" font-size="10.00">Cube.h</text>
</a>
</g>
</g>
<!-- Node1&#45;&gt;Node34 -->
<g id="edge51" class="edge">
<title>Node1&#45;&gt;Node34</title>
<path fill="none" stroke="midnightblue" d="M227.55,-524.97C154.07,-517.07 44.38,-491.68 44.38,-410.5 44.38,-410.5 44.38,-410.5 44.38,-351.5 44.38,-318.29 54.59,-280.75 61.69,-258.66"/>
<polygon fill="midnightblue" stroke="midnightblue" points="65.29,-259.96 65.14,-249.36 58.65,-257.73 65.29,-259.96"/>
</g>
<!-- Node37 -->
<g id="node37" class="node">
<title>Node37</title>
<g id="a_node37"><a xlink:href="_pipeline_8h.html" target="_top" xlink:title=" ">
<polygon fill="none" stroke="black" points="520.01,-399.5 520.01,-419.5 578.76,-419.5 578.76,-399.5 520.01,-399.5"/>
<text text-anchor="middle" x="549.38" y="-406" font-family="Helvetica,sans-Serif" font-size="10.00">Pipeline.h</text>
</a>
</g>
</g>
<!-- Node1&#45;&gt;Node37 -->
<g id="edge58" class="edge">
<title>Node1&#45;&gt;Node37</title>
<path fill="none" stroke="midnightblue" d="M357.33,-518.49C394.48,-510.86 440.98,-497.99 478.38,-477 501.28,-464.15 522.55,-442.38 535.73,-427.26"/>
<polygon fill="midnightblue" stroke="midnightblue" points="538.72,-430.15 542.5,-420.25 533.37,-425.63 538.72,-430.15"/>
</g>
<!-- Node41 -->
<g id="node41" class="node">
<title>Node41</title>
<g id="a_node41"><a xlink:href="_solid_effect_8h.html" target="_top" xlink:title=" ">
<polygon fill="none" stroke="black" points="371.13,-456.5 371.13,-476.5 469.63,-476.5 469.63,-456.5 371.13,-456.5"/>
<text text-anchor="middle" x="420.38" y="-463" font-family="Helvetica,sans-Serif" font-size="10.00">Effect/SolidEffect.h</text>
</a>
</g>
</g>
<!-- Node1&#45;&gt;Node41 -->
<g id="edge68" class="edge">
<title>Node1&#45;&gt;Node41</title>
<path fill="none" stroke="midnightblue" d="M323.69,-513.58C344.49,-503.67 371.59,-490.75 391.8,-481.12"/>
<polygon fill="midnightblue" stroke="midnightblue" points="393.15,-483.88 400.67,-476.42 390.14,-477.56 393.15,-483.88"/>
</g>
<!-- Node3 -->
<g id="node3" class="node">
<title>Node3</title>
<g id="a_node3"><a xlink:href="_keyboard_8h.html" target="_top" xlink:title=" ">
<polygon fill="none" stroke="black" points="144.63,-285.5 144.63,-305.5 210.13,-305.5 210.13,-285.5 144.63,-285.5"/>
<text text-anchor="middle" x="177.38" y="-292" font-family="Helvetica,sans-Serif" font-size="10.00">Keyboard.h</text>
</a>
</g>
</g>
<!-- Node2&#45;&gt;Node3 -->
<g id="edge2" class="edge">
<title>Node2&#45;&gt;Node3</title>
<path fill="none" stroke="midnightblue" d="M273.65,-342.54C255.27,-333.75 227,-320.23 205.85,-310.11"/>
<polygon fill="midnightblue" stroke="midnightblue" points="207.64,-306.61 197.11,-305.46 204.62,-312.93 207.64,-306.61"/>
</g>
<!-- Node6 -->
<g id="node6" class="node">
<title>Node6</title>
<g id="a_node6"><a xlink:href="_mouse_8h.html" target="_top" xlink:title=" ">
<polygon fill="none" stroke="black" points="72.63,-285.5 72.63,-305.5 126.13,-305.5 126.13,-285.5 72.63,-285.5"/>
<text text-anchor="middle" x="99.38" y="-292" font-family="Helvetica,sans-Serif" font-size="10.00">Mouse.h</text>
</a>
</g>
</g>
<!-- Node2&#45;&gt;Node6 -->
<g id="edge5" class="edge">
<title>Node2&#45;&gt;Node6</title>
<path fill="none" stroke="midnightblue" d="M266.75,-344.2C233.29,-334.66 174.5,-317.91 136.25,-307.01"/>
<polygon fill="midnightblue" stroke="midnightblue" points="137.62,-303.47 127.05,-304.1 135.7,-310.21 137.62,-303.47"/>
</g>
<!-- Node19 -->
<g id="node19" class="node">
<title>Node19</title>
<g id="a_node19"><a xlink:href="_graphics_8h.html" target="_top" xlink:title=" ">
<polygon fill="none" stroke="black" points="646.76,-285.5 646.76,-305.5 710.01,-305.5 710.01,-285.5 646.76,-285.5"/>
<text text-anchor="middle" x="678.38" y="-292" font-family="Helvetica,sans-Serif" font-size="10.00">Graphics.h</text>
</a>
</g>
</g>
<!-- Node2&#45;&gt;Node19 -->
<g id="edge25" class="edge">
<title>Node2&#45;&gt;Node19</title>
<path fill="none" stroke="midnightblue" d="M318.31,-347.81C383.77,-338.48 556.22,-313.91 636.35,-302.49"/>
<polygon fill="midnightblue" stroke="midnightblue" points="636.61,-305.84 646.02,-300.97 635.63,-298.91 636.61,-305.84"/>
</g>
<!-- Node21 -->
<g id="node21" class="node">
<title>Node21</title>
<g id="a_node21"><a xlink:title=" ">
<polygon fill="none" stroke="#bfbfbf" points="765.38,-114.5 765.38,-134.5 805.38,-134.5 805.38,-114.5 765.38,-114.5"/>
<text text-anchor="middle" x="785.38" y="-121" font-family="Helvetica,sans-Serif" font-size="10.00">string</text>
</a>
</g>
</g>
<!-- Node2&#45;&gt;Node21 -->
<g id="edge50" class="edge">
<title>Node2&#45;&gt;Node21</title>
<path fill="none" stroke="midnightblue" d="M304.24,-342.73C351.04,-308.17 521.71,-182.74 549.38,-171 619.14,-141.39 708.69,-130.9 754.85,-127.29"/>
<polygon fill="midnightblue" stroke="midnightblue" points="754.89,-130.73 764.61,-126.52 754.39,-123.75 754.89,-130.73"/>
</g>
<!-- Node4 -->
<g id="node4" class="node">
<title>Node4</title>
<g id="a_node4"><a xlink:title=" ">
<polygon fill="none" stroke="#bfbfbf" points="170.38,-228.5 170.38,-248.5 210.38,-248.5 210.38,-228.5 170.38,-228.5"/>
<text text-anchor="middle" x="190.38" y="-235" font-family="Helvetica,sans-Serif" font-size="10.00">bitset</text>
</a>
</g>
</g>
<!-- Node3&#45;&gt;Node4 -->
<g id="edge3" class="edge">
<title>Node3&#45;&gt;Node4</title>
<path fill="none" stroke="midnightblue" d="M179.41,-285.91C181.12,-278.68 183.62,-268.09 185.81,-258.85"/>
<polygon fill="midnightblue" stroke="midnightblue" points="189.43,-259.75 188.32,-249.21 182.61,-258.14 189.43,-259.75"/>
</g>
<!-- Node5 -->
<g id="node5" class="node">
<title>Node5</title>
<g id="a_node5"><a xlink:title=" ">
<polygon fill="none" stroke="#bfbfbf" points="110.26,-228.5 110.26,-248.5 152.51,-248.5 152.51,-228.5 110.26,-228.5"/>
<text text-anchor="middle" x="131.38" y="-235" font-family="Helvetica,sans-Serif" font-size="10.00">queue</text>
</a>
</g>
</g>
<!-- Node3&#45;&gt;Node5 -->
<g id="edge4" class="edge">
<title>Node3&#45;&gt;Node5</title>
<path fill="none" stroke="midnightblue" d="M170.19,-285.91C163.62,-278.04 153.69,-266.18 145.53,-256.42"/>
<polygon fill="midnightblue" stroke="midnightblue" points="147.77,-254.64 138.67,-249.21 142.4,-259.13 147.77,-254.64"/>
</g>
<!-- Node6&#45;&gt;Node5 -->
<g id="edge24" class="edge">
<title>Node6&#45;&gt;Node5</title>
<path fill="none" stroke="midnightblue" d="M104.38,-285.91C108.77,-278.36 115.3,-267.14 120.84,-257.62"/>
<polygon fill="midnightblue" stroke="midnightblue" points="124.31,-259.62 126.31,-249.21 118.26,-256.1 124.31,-259.62"/>
</g>
<!-- Node7 -->
<g id="node7" class="node">
<title>Node7</title>
<g id="a_node7"><a xlink:href="_vector2_8h.html" target="_top" xlink:title=" ">
<polygon fill="none" stroke="black" points="37.26,-114.5 37.26,-134.5 157.51,-134.5 157.51,-114.5 37.26,-114.5"/>
<text text-anchor="middle" x="97.38" y="-121" font-family="Helvetica,sans-Serif" font-size="10.00">LinearAlgebra/Vector2.h</text>
</a>
</g>
</g>
<!-- Node6&#45;&gt;Node7 -->
<g id="edge6" class="edge">
<title>Node6&#45;&gt;Node7</title>
<path fill="none" stroke="midnightblue" d="M78.22,-285.62C63.53,-278.19 45.1,-266.06 36.38,-249 16.81,-210.72 54.82,-165.29 79.18,-141.64"/>
<polygon fill="midnightblue" stroke="midnightblue" points="81.2,-144.61 86.11,-135.23 76.42,-139.5 81.2,-144.61"/>
</g>
<!-- Node8 -->
<g id="node8" class="node">
<title>Node8</title>
<g id="a_node8"><a xlink:href="_math_8h.html" target="_top" xlink:title=" ">
<polygon fill="none" stroke="black" points="423.38,-57.5 423.38,-77.5 469.38,-77.5 469.38,-57.5 423.38,-57.5"/>
<text text-anchor="middle" x="446.38" y="-64" font-family="Helvetica,sans-Serif" font-size="10.00">Math.h</text>
</a>
</g>
</g>
<!-- Node7&#45;&gt;Node8 -->
<g id="edge7" class="edge">
<title>Node7&#45;&gt;Node8</title>
<path fill="none" stroke="midnightblue" d="M154.23,-114.54C227.72,-102.96 353.32,-83.17 413,-73.76"/>
<polygon fill="midnightblue" stroke="midnightblue" points="413.35,-77.09 422.68,-72.08 412.26,-70.18 413.35,-77.09"/>
</g>
<!-- Node13 -->
<g id="node13" class="node">
<title>Node13</title>
<g id="a_node13"><a xlink:href="_matrix2_8h.html" target="_top" xlink:title=" ">
<polygon fill="none" stroke="black" points="13.13,-57.5 13.13,-77.5 69.63,-77.5 69.63,-57.5 13.13,-57.5"/>
<text text-anchor="middle" x="41.38" y="-64" font-family="Helvetica,sans-Serif" font-size="10.00">Matrix2.h</text>
</a>
</g>
</g>
<!-- Node7&#45;&gt;Node13 -->
<g id="edge13" class="edge">
<title>Node7&#45;&gt;Node13</title>
<path fill="none" stroke="midnightblue" d="M88.38,-114.66C80.27,-106.69 68.12,-94.76 58.21,-85.02"/>
<polygon fill="midnightblue" stroke="midnightblue" points="61.13,-83.01 51.54,-78.5 56.22,-88 61.13,-83.01"/>
</g>
<!-- Node14 -->
<g id="node14" class="node">
<title>Node14</title>
<g id="a_node14"><a xlink:title=" ">
<polygon fill="none" stroke="#bfbfbf" points="79.63,-0.5 79.63,-20.5 133.13,-20.5 133.13,-0.5 79.63,-0.5"/>
<text text-anchor="middle" x="106.38" y="-7" font-family="Helvetica,sans-Serif" font-size="10.00">iostream</text>
</a>
</g>
</g>
<!-- Node7&#45;&gt;Node14 -->
<g id="edge23" class="edge">
<title>Node7&#45;&gt;Node14</title>
<path fill="none" stroke="midnightblue" d="M63.42,-114.58C30.08,-104.04 -13.39,-84.39 4.38,-57 18.69,-34.95 46.44,-23.5 69.38,-17.6"/>
<polygon fill="midnightblue" stroke="midnightblue" points="69.89,-20.84 78.85,-15.19 68.32,-14.02 69.89,-20.84"/>
</g>
<!-- Node7&#45;&gt;Node15 -->
<g id="edge15" class="edge">
<title>Node7&#45;&gt;Node15</title>
<path fill="none" stroke="midnightblue" d="M130.61,-114.54C166.94,-104.75 225.05,-89.08 263.21,-78.79"/>
<polygon fill="midnightblue" stroke="midnightblue" points="263.67,-82.02 272.42,-76.04 261.85,-75.26 263.67,-82.02"/>
</g>
<!-- Node16 -->
<g id="node16" class="node">
<title>Node16</title>
<g id="a_node16"><a xlink:title=" ">
<polygon fill="none" stroke="#bfbfbf" points="282.51,-0.5 282.51,-20.5 320.26,-20.5 320.26,-0.5 282.51,-0.5"/>
<text text-anchor="middle" x="301.38" y="-7" font-family="Helvetica,sans-Serif" font-size="10.00">array</text>
</a>
</g>
</g>
<!-- Node7&#45;&gt;Node16 -->
<g id="edge20" class="edge">
<title>Node7&#45;&gt;Node16</title>
<path fill="none" stroke="midnightblue" d="M102.52,-114.77C111.34,-100.55 130.69,-72.45 154.38,-57 197.95,-28.58 218.32,-36.72 272.26,-21.13"/>
<polygon fill="midnightblue" stroke="midnightblue" points="273.19,-24.19 281.73,-17.92 271.15,-17.5 273.19,-24.19"/>
</g>
<!-- Node17 -->
<g id="node17" class="node">
<title>Node17</title>
<g id="a_node17"><a xlink:title=" ">
<polygon fill="none" stroke="#bfbfbf" points="216.63,-0.5 216.63,-20.5 264.13,-20.5 264.13,-0.5 216.63,-0.5"/>
<text text-anchor="middle" x="240.38" y="-7" font-family="Helvetica,sans-Serif" font-size="10.00">cstddef</text>
</a>
</g>
</g>
<!-- Node7&#45;&gt;Node17 -->
<g id="edge22" class="edge">
<title>Node7&#45;&gt;Node17</title>
<path fill="none" stroke="midnightblue" d="M98.25,-114.5C100.08,-100.42 105.56,-73.12 121.38,-57 144.15,-33.79 180.01,-22.24 206.42,-16.6"/>
<polygon fill="midnightblue" stroke="midnightblue" points="206.94,-19.87 216.09,-14.53 205.61,-13 206.94,-19.87"/>
</g>
<!-- Node18 -->
<g id="node18" class="node">
<title>Node18</title>
<g id="a_node18"><a xlink:title=" ">
<polygon fill="none" stroke="#bfbfbf" points="163.63,-57.5 163.63,-77.5 217.13,-77.5 217.13,-57.5 163.63,-57.5"/>
<text text-anchor="middle" x="190.38" y="-64" font-family="Helvetica,sans-Serif" font-size="10.00">compare</text>
</a>
</g>
</g>
<!-- Node7&#45;&gt;Node18 -->
<g id="edge21" class="edge">
<title>Node7&#45;&gt;Node18</title>
<path fill="none" stroke="midnightblue" d="M112.32,-114.66C126.74,-106.13 148.83,-93.07 165.84,-83.01"/>
<polygon fill="midnightblue" stroke="midnightblue" points="167.34,-85.6 174.17,-77.5 163.78,-79.58 167.34,-85.6"/>
</g>
<!-- Node8&#45;&gt;Node8 -->
<g id="edge8" class="edge">
<title>Node8&#45;&gt;Node8</title>
<path fill="none" stroke="midnightblue" d="M464.93,-77.43C476.44,-79.83 487.38,-76.52 487.38,-67.5 487.38,-61.44 482.44,-57.96 475.71,-57.05"/>
<polygon fill="midnightblue" stroke="midnightblue" points="475.76,-53.59 465.93,-57.57 476.09,-60.59 475.76,-53.59"/>
</g>
<!-- Node9 -->
<g id="node9" class="node">
<title>Node9</title>
<g id="a_node9"><a xlink:title=" ">
<polygon fill="none" stroke="#bfbfbf" points="337.88,-0.5 337.88,-20.5 380.88,-20.5 380.88,-0.5 337.88,-0.5"/>
<text text-anchor="middle" x="359.38" y="-7" font-family="Helvetica,sans-Serif" font-size="10.00">cmath</text>
</a>
</g>
</g>
<!-- Node8&#45;&gt;Node9 -->
<g id="edge9" class="edge">
<title>Node8&#45;&gt;Node9</title>
<path fill="none" stroke="midnightblue" d="M432.4,-57.66C419.04,-49.21 398.63,-36.31 382.79,-26.3"/>
<polygon fill="midnightblue" stroke="midnightblue" points="384.94,-22.88 374.61,-20.5 381.2,-28.8 384.94,-22.88"/>
</g>
<!-- Node10 -->
<g id="node10" class="node">
<title>Node10</title>
<g id="a_node10"><a xlink:title=" ">
<polygon fill="none" stroke="#bfbfbf" points="536.76,-0.5 536.76,-20.5 576.01,-20.5 576.01,-0.5 536.76,-0.5"/>
<text text-anchor="middle" x="556.38" y="-7" font-family="Helvetica,sans-Serif" font-size="10.00">limits</text>
</a>
</g>
</g>
<!-- Node8&#45;&gt;Node10 -->
<g id="edge10" class="edge">
<title>Node8&#45;&gt;Node10</title>
<path fill="none" stroke="midnightblue" d="M464.05,-57.66C481.51,-48.94 508.47,-35.46 528.75,-25.31"/>
<polygon fill="midnightblue" stroke="midnightblue" points="530.01,-28.1 537.39,-20.5 526.88,-21.84 530.01,-28.1"/>
</g>
<!-- Node11 -->
<g id="node11" class="node">
<title>Node11</title>
<g id="a_node11"><a xlink:title=" ">
<polygon fill="none" stroke="#bfbfbf" points="398.63,-0.5 398.63,-20.5 452.13,-20.5 452.13,-0.5 398.63,-0.5"/>
<text text-anchor="middle" x="425.38" y="-7" font-family="Helvetica,sans-Serif" font-size="10.00">numbers</text>
</a>
</g>
</g>
<!-- Node8&#45;&gt;Node11 -->
<g id="edge11" class="edge">
<title>Node8&#45;&gt;Node11</title>
<path fill="none" stroke="midnightblue" d="M443.1,-57.91C440.28,-50.52 436.12,-39.62 432.53,-30.23"/>
<polygon fill="midnightblue" stroke="midnightblue" points="435.55,-29.31 428.71,-21.21 429.01,-31.81 435.55,-29.31"/>
</g>
<!-- Node12 -->
<g id="node12" class="node">
<title>Node12</title>
<g id="a_node12"><a xlink:title=" ">
<polygon fill="none" stroke="#bfbfbf" points="470.26,-0.5 470.26,-20.5 518.51,-20.5 518.51,-0.5 470.26,-0.5"/>
<text text-anchor="middle" x="494.38" y="-7" font-family="Helvetica,sans-Serif" font-size="10.00">random</text>
</a>
</g>
</g>
<!-- Node8&#45;&gt;Node12 -->
<g id="edge12" class="edge">
<title>Node8&#45;&gt;Node12</title>
<path fill="none" stroke="midnightblue" d="M453.88,-57.91C460.74,-50.04 471.1,-38.18 479.62,-28.42"/>
<polygon fill="midnightblue" stroke="midnightblue" points="482.84,-31.05 486.78,-21.21 477.56,-26.45 482.84,-31.05"/>
</g>
<!-- Node13&#45;&gt;Node14 -->
<g id="edge14" class="edge">
<title>Node13&#45;&gt;Node14</title>
<path fill="none" stroke="midnightblue" d="M51.82,-57.66C61.43,-49.53 75.91,-37.28 87.54,-27.44"/>
<polygon fill="midnightblue" stroke="midnightblue" points="89.37,-29.63 94.75,-20.5 84.85,-24.29 89.37,-29.63"/>
</g>
<!-- Node15&#45;&gt;Node9 -->
<g id="edge17" class="edge">
<title>Node15&#45;&gt;Node9</title>
<path fill="none" stroke="midnightblue" d="M310.7,-57.66C319.11,-49.69 331.69,-37.76 341.96,-28.02"/>
<polygon fill="midnightblue" stroke="midnightblue" points="344.04,-30.92 348.89,-21.5 339.23,-25.84 344.04,-30.92"/>
</g>
<!-- Node15&#45;&gt;Node14 -->
<g id="edge19" class="edge">
<title>Node15&#45;&gt;Node14</title>
<path fill="none" stroke="midnightblue" d="M273.44,-58.62C239.17,-48.95 180.98,-32.54 143.12,-21.86"/>
<polygon fill="midnightblue" stroke="midnightblue" points="144.59,-18.36 134.02,-19.01 142.69,-25.1 144.59,-18.36"/>
</g>
<!-- Node15&#45;&gt;Node16 -->
<g id="edge16" class="edge">
<title>Node15&#45;&gt;Node16</title>
<path fill="none" stroke="midnightblue" d="M301.38,-57.91C301.38,-50.76 301.38,-40.32 301.38,-31.15"/>
<polygon fill="midnightblue" stroke="midnightblue" points="304.88,-31.21 301.38,-21.21 297.88,-31.21 304.88,-31.21"/>
</g>
<!-- Node15&#45;&gt;Node17 -->
<g id="edge18" class="edge">
<title>Node15&#45;&gt;Node17</title>
<path fill="none" stroke="midnightblue" d="M291.58,-57.66C282.65,-49.61 269.24,-37.52 258.38,-27.73"/>
<polygon fill="midnightblue" stroke="midnightblue" points="261.13,-25.59 251.36,-21.5 256.44,-30.79 261.13,-25.59"/>
</g>
<!-- Node20 -->
<g id="node20" class="node">
<title>Node20</title>
<g id="a_node20"><a xlink:href="_engine_exception_8h.html" target="_top" xlink:title=" ">
<polygon fill="none" stroke="black" points="813.51,-171.5 813.51,-191.5 911.26,-191.5 911.26,-171.5 813.51,-171.5"/>
<text text-anchor="middle" x="862.38" y="-178" font-family="Helvetica,sans-Serif" font-size="10.00">EngineException.h</text>
</a>
</g>
</g>
<!-- Node19&#45;&gt;Node20 -->
<g id="edge26" class="edge">
<title>Node19&#45;&gt;Node20</title>
<path fill="none" stroke="midnightblue" d="M697.3,-285.59C715.39,-276.88 743.24,-262.92 766.38,-249 793.28,-232.82 822.76,-211.88 841.86,-197.87"/>
<polygon fill="midnightblue" stroke="midnightblue" points="843.63,-200.17 849.59,-191.41 839.47,-194.54 843.63,-200.17"/>
</g>
<!-- Node22 -->
<g id="node22" class="node">
<title>Node22</title>
<g id="a_node22"><a xlink:href="_vector3_8h.html" target="_top" xlink:title=" ">
<polygon fill="none" stroke="black" points="316.26,-114.5 316.26,-134.5 436.51,-134.5 436.51,-114.5 316.26,-114.5"/>
<text text-anchor="middle" x="376.38" y="-121" font-family="Helvetica,sans-Serif" font-size="10.00">LinearAlgebra/Vector3.h</text>
</a>
</g>
</g>
<!-- Node19&#45;&gt;Node22 -->
<g id="edge28" class="edge">
<title>Node19&#45;&gt;Node22</title>
<path fill="none" stroke="midnightblue" d="M647.58,-285.58C600.35,-270.98 508.47,-238.82 441.38,-192 421.21,-177.92 402.02,-157.04 389.79,-142.45"/>
<polygon fill="midnightblue" stroke="midnightblue" points="392.17,-140.82 383.13,-135.29 386.75,-145.25 392.17,-140.82"/>
</g>
<!-- Node23 -->
<g id="node23" class="node">
<title>Node23</title>
<g id="a_node23"><a xlink:href="_g_d_i_plus_manager_8h.html" target="_top" xlink:title=" ">
<polygon fill="none" stroke="black" points="813.51,-228.5 813.51,-248.5 911.26,-248.5 911.26,-228.5 813.51,-228.5"/>
<text text-anchor="middle" x="862.38" y="-235" font-family="Helvetica,sans-Serif" font-size="10.00">GDIPlusManager.h</text>
</a>
</g>
</g>
<!-- Node19&#45;&gt;Node23 -->
<g id="edge35" class="edge">
<title>Node19&#45;&gt;Node23</title>
<path fill="none" stroke="midnightblue" d="M708.35,-285.54C739.36,-276.27 787.97,-261.74 822.27,-251.49"/>
<polygon fill="midnightblue" stroke="midnightblue" points="822.84,-254.67 831.42,-248.46 820.84,-247.97 822.84,-254.67"/>
</g>
<!-- Node27 -->
<g id="node27" class="node">
<title>Node27</title>
<g id="a_node27"><a xlink:href="_surface_8h.html" target="_top" xlink:title=" ">
<polygon fill="none" stroke="black" points="577.76,-228.5 577.76,-248.5 635.01,-248.5 635.01,-228.5 577.76,-228.5"/>
<text text-anchor="middle" x="606.38" y="-235" font-family="Helvetica,sans-Serif" font-size="10.00">Surface.h</text>
</a>
</g>
</g>
<!-- Node19&#45;&gt;Node27 -->
<g id="edge39" class="edge">
<title>Node19&#45;&gt;Node27</title>
<path fill="none" stroke="midnightblue" d="M666.81,-285.66C656.07,-277.45 639.82,-265.04 626.87,-255.15"/>
<polygon fill="midnightblue" stroke="midnightblue" points="629.23,-251.79 619.16,-248.5 624.98,-257.35 629.23,-251.79"/>
</g>
<!-- Node32 -->
<g id="node32" class="node">
<title>Node32</title>
<g id="a_node32"><a xlink:title=" ">
<polygon fill="none" stroke="#bfbfbf" points="653.13,-228.5 653.13,-248.5 703.63,-248.5 703.63,-228.5 653.13,-228.5"/>
<text text-anchor="middle" x="678.38" y="-235" font-family="Helvetica,sans-Serif" font-size="10.00">d3d11.h</text>
</a>
</g>
</g>
<!-- Node19&#45;&gt;Node32 -->
<g id="edge48" class="edge">
<title>Node19&#45;&gt;Node32</title>
<path fill="none" stroke="midnightblue" d="M678.38,-285.91C678.38,-278.76 678.38,-268.32 678.38,-259.15"/>
<polygon fill="midnightblue" stroke="midnightblue" points="681.88,-259.21 678.38,-249.21 674.88,-259.21 681.88,-259.21"/>
</g>
<!-- Node33 -->
<g id="node33" class="node">
<title>Node33</title>
<g id="a_node33"><a xlink:title=" ">
<polygon fill="none" stroke="#bfbfbf" points="721.26,-228.5 721.26,-248.5 757.51,-248.5 757.51,-228.5 721.26,-228.5"/>
<text text-anchor="middle" x="739.38" y="-235" font-family="Helvetica,sans-Serif" font-size="10.00">wrl.h</text>
</a>
</g>
</g>
<!-- Node19&#45;&gt;Node33 -->
<g id="edge49" class="edge">
<title>Node19&#45;&gt;Node33</title>
<path fill="none" stroke="midnightblue" d="M688.18,-285.66C697.11,-277.61 710.52,-265.52 721.38,-255.73"/>
<polygon fill="midnightblue" stroke="midnightblue" points="723.32,-258.79 728.4,-249.5 718.63,-253.59 723.32,-258.79"/>
</g>
<!-- Node20&#45;&gt;Node21 -->
<g id="edge27" class="edge">
<title>Node20&#45;&gt;Node21</title>
<path fill="none" stroke="midnightblue" d="M850.01,-171.66C838.4,-163.37 820.8,-150.8 806.89,-140.87"/>
<polygon fill="midnightblue" stroke="midnightblue" points="809.15,-137.46 798.98,-134.5 805.08,-143.16 809.15,-137.46"/>
</g>
<!-- Node22&#45;&gt;Node8 -->
<g id="edge29" class="edge">
<title>Node22&#45;&gt;Node8</title>
<path fill="none" stroke="midnightblue" d="M387.63,-114.66C398.08,-106.45 413.87,-94.04 426.46,-84.15"/>
<polygon fill="midnightblue" stroke="midnightblue" points="428.23,-86.43 433.93,-77.5 423.9,-80.92 428.23,-86.43"/>
</g>
<!-- Node22&#45;&gt;Node14 -->
<g id="edge32" class="edge">
<title>Node22&#45;&gt;Node14</title>
<path fill="none" stroke="midnightblue" d="M351.99,-114.55C329.05,-105.92 293.93,-92.1 264.38,-78 246.97,-69.69 243.89,-65.11 226.38,-57 199.08,-44.36 167.2,-32.4 143.16,-23.91"/>
<polygon fill="midnightblue" stroke="midnightblue" points="144.64,-20.37 134.04,-20.38 142.33,-26.98 144.64,-20.37"/>
</g>
<!-- Node22&#45;&gt;Node15 -->
<g id="edge30" class="edge">
<title>Node22&#45;&gt;Node15</title>
<path fill="none" stroke="midnightblue" d="M364.33,-114.66C353.03,-106.37 335.88,-93.8 322.34,-83.87"/>
<polygon fill="midnightblue" stroke="midnightblue" points="324.78,-80.59 314.65,-77.5 320.64,-86.23 324.78,-80.59"/>
</g>
<!-- Node22&#45;&gt;Node16 -->
<g id="edge31" class="edge">
<title>Node22&#45;&gt;Node16</title>
<path fill="none" stroke="midnightblue" d="M378.06,-114.59C380.12,-101.09 382.12,-75.13 371.38,-57 362.08,-41.29 344.99,-30.03 330.02,-22.64"/>
<polygon fill="midnightblue" stroke="midnightblue" points="331.68,-19.09 321.12,-18.13 328.78,-25.46 331.68,-19.09"/>
</g>
<!-- Node22&#45;&gt;Node17 -->
<g id="edge34" class="edge">
<title>Node22&#45;&gt;Node17</title>
<path fill="none" stroke="midnightblue" d="M373.33,-114.61C368.15,-100.67 356.4,-73.55 338.38,-57 320.15,-40.25 294.67,-28.67 274.26,-21.39"/>
<polygon fill="midnightblue" stroke="midnightblue" points="275.7,-17.85 265.11,-17.97 273.47,-24.48 275.7,-17.85"/>
</g>
<!-- Node22&#45;&gt;Node18 -->
<g id="edge33" class="edge">
<title>Node22&#45;&gt;Node18</title>
<path fill="none" stroke="midnightblue" d="M346.08,-114.54C313.62,-104.94 262.07,-89.7 227.27,-79.41"/>
<polygon fill="midnightblue" stroke="midnightblue" points="228.63,-75.86 218.05,-76.38 226.64,-82.58 228.63,-75.86"/>
</g>
<!-- Node24 -->
<g id="node24" class="node">
<title>Node24</title>
<g id="a_node24"><a xlink:href="_win_8h.html" target="_top" xlink:title=" ">
<polygon fill="none" stroke="black" points="967.63,-171.5 967.63,-191.5 1009.13,-191.5 1009.13,-171.5 967.63,-171.5"/>
<text text-anchor="middle" x="988.38" y="-178" font-family="Helvetica,sans-Serif" font-size="10.00">Win.h</text>
</a>
</g>
</g>
<!-- Node23&#45;&gt;Node24 -->
<g id="edge36" class="edge">
<title>Node23&#45;&gt;Node24</title>
<path fill="none" stroke="midnightblue" d="M882.91,-228.54C903.22,-219.67 934.58,-205.99 957.82,-195.84"/>
<polygon fill="midnightblue" stroke="midnightblue" points="959.1,-198.66 966.87,-191.46 956.3,-192.25 959.1,-198.66"/>
</g>
<!-- Node25 -->
<g id="node25" class="node">
<title>Node25</title>
<g id="a_node25"><a xlink:title=" ">
<polygon fill="none" stroke="#bfbfbf" points="1049.51,-114.5 1049.51,-134.5 1117.26,-134.5 1117.26,-114.5 1049.51,-114.5"/>
<text text-anchor="middle" x="1083.38" y="-121" font-family="Helvetica,sans-Serif" font-size="10.00">sdkddkver.h</text>
</a>
</g>
</g>
<!-- Node24&#45;&gt;Node25 -->
<g id="edge37" class="edge">
<title>Node24&#45;&gt;Node25</title>
<path fill="none" stroke="midnightblue" d="M1003.64,-171.66C1018.51,-163.05 1041.36,-149.83 1058.8,-139.73"/>
<polygon fill="midnightblue" stroke="midnightblue" points="1059.94,-142.54 1066.84,-134.5 1056.43,-136.48 1059.94,-142.54"/>
</g>
<!-- Node26 -->
<g id="node26" class="node">
<title>Node26</title>
<g id="a_node26"><a xlink:title=" ">
<polygon fill="none" stroke="#bfbfbf" points="967.38,-114.5 967.38,-134.5 1031.38,-134.5 1031.38,-114.5 967.38,-114.5"/>
<text text-anchor="middle" x="999.38" y="-121" font-family="Helvetica,sans-Serif" font-size="10.00">Windows.h</text>
</a>
</g>
</g>
<!-- Node24&#45;&gt;Node26 -->
<g id="edge38" class="edge">
<title>Node24&#45;&gt;Node26</title>
<path fill="none" stroke="midnightblue" d="M990.1,-171.91C991.54,-164.68 993.66,-154.09 995.51,-144.85"/>
<polygon fill="midnightblue" stroke="midnightblue" points="999.11,-145.71 997.64,-135.21 992.24,-144.33 999.11,-145.71"/>
</g>
<!-- Node27&#45;&gt;Node20 -->
<g id="edge43" class="edge">
<title>Node27&#45;&gt;Node20</title>
<path fill="none" stroke="midnightblue" d="M634.99,-230.22C638.15,-229.45 641.33,-228.7 644.38,-228 699.21,-215.43 762.14,-202.45 806.25,-193.59"/>
<polygon fill="midnightblue" stroke="midnightblue" points="806.64,-196.88 815.76,-191.48 805.26,-190.01 806.64,-196.88"/>
</g>
<!-- Node27&#45;&gt;Node21 -->
<g id="edge46" class="edge">
<title>Node27&#45;&gt;Node21</title>
<path fill="none" stroke="midnightblue" d="M634.66,-230.22C679.32,-218.61 761.63,-196.74 766.38,-192 778.73,-179.67 783.18,-159.91 784.72,-145.13"/>
<polygon fill="midnightblue" stroke="midnightblue" points="788.28,-145.36 785.44,-135.16 781.29,-144.91 788.28,-145.36"/>
</g>
<!-- Node27&#45;&gt;Node24 -->
<g id="edge42" class="edge">
<title>Node27&#45;&gt;Node24</title>
<path fill="none" stroke="midnightblue" d="M634.94,-229.99C638.11,-229.26 641.31,-228.58 644.38,-228 765.92,-204.96 797.79,-208.56 920.38,-192 932.34,-190.38 945.48,-188.56 956.99,-186.95"/>
<polygon fill="midnightblue" stroke="midnightblue" points="957.44,-190.28 966.86,-185.42 956.47,-183.35 957.44,-190.28"/>
</g>
<!-- Node28 -->
<g id="node28" class="node">
<title>Node28</title>
<g id="a_node28"><a xlink:href="_colors_8h.html" target="_top" xlink:title=" ">
<polygon fill="none" stroke="black" points="450.38,-171.5 450.38,-191.5 502.38,-191.5 502.38,-171.5 450.38,-171.5"/>
<text text-anchor="middle" x="476.38" y="-178" font-family="Helvetica,sans-Serif" font-size="10.00">Colors.h</text>
</a>
</g>
</g>
<!-- Node27&#45;&gt;Node28 -->
<g id="edge40" class="edge">
<title>Node27&#45;&gt;Node28</title>
<path fill="none" stroke="midnightblue" d="M585.2,-228.54C564.15,-219.63 531.6,-205.86 507.59,-195.7"/>
<polygon fill="midnightblue" stroke="midnightblue" points="509.12,-192.13 498.55,-191.46 506.39,-198.58 509.12,-192.13"/>
</g>
<!-- Node29 -->
<g id="node29" class="node">
<title>Node29</title>
<g id="a_node29"><a xlink:title=" ">
<polygon fill="none" stroke="#bfbfbf" points="558.76,-171.5 558.76,-191.5 610.01,-191.5 610.01,-171.5 558.76,-171.5"/>
<text text-anchor="middle" x="584.38" y="-178" font-family="Helvetica,sans-Serif" font-size="10.00">assert.h</text>
</a>
</g>
</g>
<!-- Node27&#45;&gt;Node29 -->
<g id="edge44" class="edge">
<title>Node27&#45;&gt;Node29</title>
<path fill="none" stroke="midnightblue" d="M602.94,-228.91C599.99,-221.52 595.63,-210.62 591.87,-201.23"/>
<polygon fill="midnightblue" stroke="midnightblue" points="594.83,-200.2 587.87,-192.21 588.33,-202.8 594.83,-200.2"/>
</g>
<!-- Node30 -->
<g id="node30" class="node">
<title>Node30</title>
<g id="a_node30"><a xlink:title=" ">
<polygon fill="none" stroke="#bfbfbf" points="627.76,-171.5 627.76,-191.5 679.01,-191.5 679.01,-171.5 627.76,-171.5"/>
<text text-anchor="middle" x="653.38" y="-178" font-family="Helvetica,sans-Serif" font-size="10.00">memory</text>
</a>
</g>
</g>
<!-- Node27&#45;&gt;Node30 -->
<g id="edge45" class="edge">
<title>Node27&#45;&gt;Node30</title>
<path fill="none" stroke="midnightblue" d="M613.72,-228.91C620.45,-221.04 630.58,-209.18 638.93,-199.42"/>
<polygon fill="midnightblue" stroke="midnightblue" points="642.1,-202.09 645.93,-192.21 636.78,-197.54 642.1,-202.09"/>
</g>
<!-- Node31 -->
<g id="node31" class="node">
<title>Node31</title>
<g id="a_node31"><a xlink:title=" ">
<polygon fill="none" stroke="#bfbfbf" points="697.26,-171.5 697.26,-191.5 757.51,-191.5 757.51,-171.5 697.26,-171.5"/>
<text text-anchor="middle" x="727.38" y="-178" font-family="Helvetica,sans-Serif" font-size="10.00">filesystem</text>
</a>
</g>
</g>
<!-- Node27&#45;&gt;Node31 -->
<g id="edge47" class="edge">
<title>Node27&#45;&gt;Node31</title>
<path fill="none" stroke="midnightblue" d="M626.09,-228.54C645.52,-219.71 675.44,-206.11 697.73,-195.98"/>
<polygon fill="midnightblue" stroke="midnightblue" points="699.02,-198.78 706.68,-191.46 696.13,-192.41 699.02,-198.78"/>
</g>
<!-- Node28&#45;&gt;Node22 -->
<g id="edge41" class="edge">
<title>Node28&#45;&gt;Node22</title>
<path fill="none" stroke="midnightblue" d="M460.31,-171.66C444.66,-163.05 420.61,-149.83 402.26,-139.73"/>
<polygon fill="midnightblue" stroke="midnightblue" points="404.19,-136.25 393.74,-134.5 400.82,-142.38 404.19,-136.25"/>
</g>
<!-- Node34&#45;&gt;Node7 -->
<g id="edge55" class="edge">
<title>Node34&#45;&gt;Node7</title>
<path fill="none" stroke="midnightblue" d="M70.66,-228.71C75.32,-210.72 86.04,-169.32 92.39,-144.77"/>
<polygon fill="midnightblue" stroke="midnightblue" points="96,-145.81 95.12,-135.25 89.22,-144.05 96,-145.81"/>
</g>
<!-- Node34&#45;&gt;Node22 -->
<g id="edge56" class="edge">
<title>Node34&#45;&gt;Node22</title>
<path fill="none" stroke="midnightblue" d="M90.38,-228.54C122.81,-215.41 185.44,-190.43 239.38,-171 272.27,-159.15 309.99,-146.71 337.51,-137.83"/>
<polygon fill="midnightblue" stroke="midnightblue" points="338.45,-140.89 346.9,-134.5 336.31,-134.22 338.45,-140.89"/>
</g>
<!-- Node35 -->
<g id="node35" class="node">
<title>Node35</title>
<g id="a_node35"><a xlink:href="_indexed_triangle_list_8h.html" target="_top" xlink:title=" ">
<polygon fill="none" stroke="black" points="248.63,-171.5 248.63,-191.5 356.13,-191.5 356.13,-171.5 248.63,-171.5"/>
<text text-anchor="middle" x="302.38" y="-178" font-family="Helvetica,sans-Serif" font-size="10.00">IndexedTriangleList.h</text>
</a>
</g>
</g>
<!-- Node34&#45;&gt;Node35 -->
<g id="edge52" class="edge">
<title>Node34&#45;&gt;Node35</title>
<path fill="none" stroke="midnightblue" d="M91.41,-230.69C94.75,-229.75 98.15,-228.83 101.38,-228 151.06,-215.24 208.13,-202.5 248.73,-193.76"/>
<polygon fill="midnightblue" stroke="midnightblue" points="249.42,-196.98 258.47,-191.46 247.96,-190.14 249.42,-196.98"/>
</g>
<!-- Node35&#45;&gt;Node22 -->
<g id="edge53" class="edge">
<title>Node35&#45;&gt;Node22</title>
<path fill="none" stroke="midnightblue" d="M314.27,-171.66C325.42,-163.37 342.34,-150.8 355.71,-140.87"/>
<polygon fill="midnightblue" stroke="midnightblue" points="357.34,-143.27 363.28,-134.5 353.16,-137.65 357.34,-143.27"/>
</g>
<!-- Node36 -->
<g id="node36" class="node">
<title>Node36</title>
<g id="a_node36"><a xlink:title=" ">
<polygon fill="none" stroke="#bfbfbf" points="256.63,-114.5 256.63,-134.5 298.13,-134.5 298.13,-114.5 256.63,-114.5"/>
<text text-anchor="middle" x="277.38" y="-121" font-family="Helvetica,sans-Serif" font-size="10.00">vector</text>
</a>
</g>
</g>
<!-- Node35&#45;&gt;Node36 -->
<g id="edge54" class="edge">
<title>Node35&#45;&gt;Node36</title>
<path fill="none" stroke="midnightblue" d="M298.47,-171.91C295.08,-164.44 290.05,-153.38 285.76,-143.93"/>
<polygon fill="midnightblue" stroke="midnightblue" points="288.67,-142.87 281.34,-135.21 282.29,-145.77 288.67,-142.87"/>
</g>
<!-- Node37&#45;&gt;Node15 -->
<g id="edge66" class="edge">
<title>Node37&#45;&gt;Node15</title>
<path fill="none" stroke="midnightblue" d="M578.69,-406.43C669.39,-399.24 939.38,-371.52 939.38,-296.5 939.38,-296.5 939.38,-296.5 939.38,-180.5 939.38,-117.57 874.71,-131.92 814.38,-114 808.69,-112.31 458.51,-82.03 340.06,-71.83"/>
<polygon fill="midnightblue" stroke="midnightblue" points="340.6,-68.28 330.33,-70.9 340,-75.25 340.6,-68.28"/>
</g>
<!-- Node37&#45;&gt;Node19 -->
<g id="edge60" class="edge">
<title>Node37&#45;&gt;Node19</title>
<path fill="none" stroke="midnightblue" d="M578.43,-404.18C603.91,-398.87 640.13,-387.35 661.38,-363 672.65,-350.09 676.62,-330.71 677.94,-316.2"/>
<polygon fill="midnightblue" stroke="midnightblue" points="681.48,-316.58 678.52,-306.4 674.49,-316.2 681.48,-316.58"/>
</g>
<!-- Node37&#45;&gt;Node24 -->
<g id="edge59" class="edge">
<title>Node37&#45;&gt;Node24</title>
<path fill="none" stroke="midnightblue" d="M578.65,-407.18C666.87,-402.93 925.9,-388.38 953.38,-363 998.68,-321.16 995.54,-239.7 991.28,-202.22"/>
<polygon fill="midnightblue" stroke="midnightblue" points="994.62,-201.79 989.85,-192.32 987.68,-202.69 994.62,-201.79"/>
</g>
<!-- Node37&#45;&gt;Node35 -->
<g id="edge62" class="edge">
<title>Node37&#45;&gt;Node35</title>
<path fill="none" stroke="midnightblue" d="M520.27,-409.38C480.32,-408.99 408.57,-402.33 365.38,-363 317.98,-319.83 306.24,-239.04 303.34,-201.98"/>
<polygon fill="midnightblue" stroke="midnightblue" points="306.78,-201.97 302.65,-192.21 299.79,-202.41 306.78,-201.97"/>
</g>
<!-- Node38 -->
<g id="node38" class="node">
<title>Node38</title>
<g id="a_node38"><a xlink:href="_triangle_8h.html" target="_top" xlink:title=" ">
<polygon fill="none" stroke="black" points="520.38,-342.5 520.38,-362.5 578.38,-362.5 578.38,-342.5 520.38,-342.5"/>
<text text-anchor="middle" x="549.38" y="-349" font-family="Helvetica,sans-Serif" font-size="10.00">Triangle.h</text>
</a>
</g>
</g>
<!-- Node37&#45;&gt;Node38 -->
<g id="edge61" class="edge">
<title>Node37&#45;&gt;Node38</title>
<path fill="none" stroke="midnightblue" d="M549.38,-399.91C549.38,-392.76 549.38,-382.32 549.38,-373.15"/>
<polygon fill="midnightblue" stroke="midnightblue" points="552.88,-373.21 549.38,-363.21 545.88,-373.21 552.88,-373.21"/>
</g>
<!-- Node39 -->
<g id="node39" class="node">
<title>Node39</title>
<g id="a_node39"><a xlink:href="_pube_screen_transformer_8h.html" target="_top" xlink:title=" ">
<polygon fill="none" stroke="black" points="374.13,-342.5 374.13,-362.5 502.63,-362.5 502.63,-342.5 374.13,-342.5"/>
<text text-anchor="middle" x="438.38" y="-349" font-family="Helvetica,sans-Serif" font-size="10.00">PubeScreenTransformer.h</text>
</a>
</g>
</g>
<!-- Node37&#45;&gt;Node39 -->
<g id="edge63" class="edge">
<title>Node37&#45;&gt;Node39</title>
<path fill="none" stroke="midnightblue" d="M531.55,-399.66C513.93,-390.94 486.73,-377.46 466.26,-367.31"/>
<polygon fill="midnightblue" stroke="midnightblue" points="468.05,-363.8 457.54,-362.5 464.95,-370.07 468.05,-363.8"/>
</g>
<!-- Node40 -->
<g id="node40" class="node">
<title>Node40</title>
<g id="a_node40"><a xlink:title=" ">
<polygon fill="none" stroke="#bfbfbf" points="596.51,-342.5 596.51,-362.5 652.26,-362.5 652.26,-342.5 596.51,-342.5"/>
<text text-anchor="middle" x="624.38" y="-349" font-family="Helvetica,sans-Serif" font-size="10.00">algorithm</text>
</a>
</g>
</g>
<!-- Node37&#45;&gt;Node40 -->
<g id="edge67" class="edge">
<title>Node37&#45;&gt;Node40</title>
<path fill="none" stroke="midnightblue" d="M561.43,-399.66C572.74,-391.37 589.88,-378.8 603.43,-368.87"/>
<polygon fill="midnightblue" stroke="midnightblue" points="605.12,-371.23 611.11,-362.5 600.98,-365.59 605.12,-371.23"/>
</g>
<!-- Node39&#45;&gt;Node19 -->
<g id="edge64" class="edge">
<title>Node39&#45;&gt;Node19</title>
<path fill="none" stroke="midnightblue" d="M477.48,-342.54C521.16,-332.53 591.62,-316.38 636.43,-306.11"/>
<polygon fill="midnightblue" stroke="midnightblue" points="637,-309.35 645.96,-303.7 635.43,-302.52 637,-309.35"/>
</g>
<!-- Node39&#45;&gt;Node22 -->
<g id="edge65" class="edge">
<title>Node39&#45;&gt;Node22</title>
<path fill="none" stroke="midnightblue" d="M435.95,-342.64C426.81,-309.31 394.34,-190.97 381.58,-144.46"/>
<polygon fill="midnightblue" stroke="midnightblue" points="384.75,-143.77 378.73,-135.06 378,-145.63 384.75,-143.77"/>
</g>
<!-- Node41&#45;&gt;Node37 -->
<g id="edge69" class="edge">
<title>Node41&#45;&gt;Node37</title>
<path fill="none" stroke="midnightblue" d="M441.39,-456.54C462.29,-447.63 494.58,-433.86 518.42,-423.7"/>
<polygon fill="midnightblue" stroke="midnightblue" points="519.55,-426.6 527.38,-419.46 516.81,-420.16 519.55,-426.6"/>
</g>
</g>
</svg>
