<?xml version="1.0" encoding="UTF-8" standalone="no"?>
<!DOCTYPE svg PUBLIC "-//W3C//DTD SVG 1.1//EN"
 "http://www.w3.org/Graphics/SVG/1.1/DTD/svg11.dtd">
<!-- Generated by graphviz version 8.1.0 (20230707.0739)
 -->
<!-- Title: include/DXErr.h Pages: 1 -->
<svg width="192pt" height="86pt"
 viewBox="0.00 0.00 192.12 86.00" xmlns="http://www.w3.org/2000/svg" xmlns:xlink="http://www.w3.org/1999/xlink">
<g id="graph0" class="graph" transform="scale(1 1) rotate(0) translate(4 82)">
<title>include/DXErr.h</title>
<!-- Node1 -->
<g id="node1" class="node">
<title>Node1</title>
<g id="a_node1"><a xlink:title=" ">
<polygon fill="#bfbfbf" stroke="black" points="46.62,-57.5 46.62,-77.5 129.38,-77.5 129.38,-57.5 46.62,-57.5"/>
<text text-anchor="middle" x="88" y="-64" font-family="Helvetica,sans-Serif" font-size="10.00">include/DXErr.h</text>
</a>
</g>
</g>
<!-- Node2 -->
<g id="node2" class="node">
<title>Node2</title>
<g id="a_node2"><a xlink:href="_d_x_err_8cpp.html" target="_top" xlink:title=" ">
<polygon fill="none" stroke="black" points="0,-0.5 0,-20.5 76,-20.5 76,-0.5 0,-0.5"/>
<text text-anchor="middle" x="38" y="-7" font-family="Helvetica,sans-Serif" font-size="10.00">src/DXErr.cpp</text>
</a>
</g>
</g>
<!-- Node1&#45;&gt;Node2 -->
<g id="edge1" class="edge">
<title>Node1&#45;&gt;Node2</title>
<path fill="none" stroke="midnightblue" d="M73.03,-50.03C64.12,-40.24 53.18,-28.2 45.92,-20.21"/>
<polygon fill="midnightblue" stroke="midnightblue" points="69.87,-51.86 79.19,-56.91 75.05,-47.15 69.87,-51.86"/>
</g>
<!-- Node3 -->
<g id="node3" class="node">
<title>Node3</title>
<g id="a_node3"><a xlink:href="_graphics_8cpp.html" target="_top" xlink:title=" ">
<polygon fill="none" stroke="black" points="93.88,-0.5 93.88,-20.5 184.12,-20.5 184.12,-0.5 93.88,-0.5"/>
<text text-anchor="middle" x="139" y="-7" font-family="Helvetica,sans-Serif" font-size="10.00">src/Graphics.cpp</text>
</a>
</g>
</g>
<!-- Node1&#45;&gt;Node3 -->
<g id="edge2" class="edge">
<title>Node1&#45;&gt;Node3</title>
<path fill="none" stroke="midnightblue" d="M103.27,-50.03C112.35,-40.24 123.51,-28.2 130.92,-20.21"/>
<polygon fill="midnightblue" stroke="midnightblue" points="101.2,-47.19 96.97,-56.91 106.33,-51.95 101.2,-47.19"/>
</g>
</g>
</svg>
