<?xml version="1.0" encoding="UTF-8" standalone="no"?>
<!DOCTYPE svg PUBLIC "-//W3C//DTD SVG 1.1//EN"
 "http://www.w3.org/Graphics/SVG/1.1/DTD/svg11.dtd">
<!-- Generated by graphviz version 8.1.0 (20230707.0739)
 -->
<!-- Title: src/DXErr.cpp Pages: 1 -->
<svg width="921pt" height="200pt"
 viewBox="0.00 0.00 921.25 200.00" xmlns="http://www.w3.org/2000/svg" xmlns:xlink="http://www.w3.org/1999/xlink">
<g id="graph0" class="graph" transform="scale(1 1) rotate(0) translate(4 196)">
<title>src/DXErr.cpp</title>
<!-- Node1 -->
<g id="node1" class="node">
<title>Node1</title>
<g id="a_node1"><a xlink:title=" ">
<polygon fill="#bfbfbf" stroke="black" points="433.88,-171.5 433.88,-191.5 509.88,-191.5 509.88,-171.5 433.88,-171.5"/>
<text text-anchor="middle" x="471.88" y="-178" font-family="Helvetica,sans-Serif" font-size="10.00">src/DXErr.cpp</text>
</a>
</g>
</g>
<!-- Node2 -->
<g id="node2" class="node">
<title>Node2</title>
<g id="a_node2"><a xlink:href="_d_x_err_8h.html" target="_top" xlink:title=" ">
<polygon fill="none" stroke="black" points="79.38,-114.5 79.38,-134.5 128.38,-134.5 128.38,-114.5 79.38,-114.5"/>
<text text-anchor="middle" x="103.88" y="-121" font-family="Helvetica,sans-Serif" font-size="10.00">DXErr.h</text>
</a>
</g>
</g>
<!-- Node1&#45;&gt;Node2 -->
<g id="edge1" class="edge">
<title>Node1&#45;&gt;Node2</title>
<path fill="none" stroke="midnightblue" d="M433.89,-177.16C373.34,-171.43 251.11,-158.27 138.77,-135.15"/>
<polygon fill="midnightblue" stroke="midnightblue" points="139.79,-131.58 129.28,-132.95 138.35,-138.43 139.79,-131.58"/>
</g>
<!-- Node7 -->
<g id="node7" class="node">
<title>Node7</title>
<g id="a_node7"><a xlink:title=" ">
<polygon fill="none" stroke="#bfbfbf" points="146,-114.5 146,-134.5 201.75,-134.5 201.75,-114.5 146,-114.5"/>
<text text-anchor="middle" x="173.88" y="-121" font-family="Helvetica,sans-Serif" font-size="10.00">algorithm</text>
</a>
</g>
</g>
<!-- Node1&#45;&gt;Node7 -->
<g id="edge6" class="edge">
<title>Node1&#45;&gt;Node7</title>
<path fill="none" stroke="midnightblue" d="M434.09,-174.87C385.21,-167.38 297.2,-153.18 212.3,-135.17"/>
<polygon fill="midnightblue" stroke="midnightblue" points="213.21,-131.57 202.7,-132.89 211.74,-138.41 213.21,-131.57"/>
</g>
<!-- Node8 -->
<g id="node8" class="node">
<title>Node8</title>
<g id="a_node8"><a xlink:title=" ">
<polygon fill="none" stroke="#bfbfbf" points="219.75,-114.5 219.75,-134.5 262,-134.5 262,-114.5 219.75,-114.5"/>
<text text-anchor="middle" x="240.88" y="-121" font-family="Helvetica,sans-Serif" font-size="10.00">cstdio</text>
</a>
</g>
</g>
<!-- Node1&#45;&gt;Node8 -->
<g id="edge7" class="edge">
<title>Node1&#45;&gt;Node8</title>
<path fill="none" stroke="midnightblue" d="M434.23,-172.96C395.8,-165.06 334.26,-151.79 272.16,-135.18"/>
<polygon fill="midnightblue" stroke="midnightblue" points="273.36,-131.6 262.79,-132.37 271.53,-138.36 273.36,-131.6"/>
</g>
<!-- Node9 -->
<g id="node9" class="node">
<title>Node9</title>
<g id="a_node9"><a xlink:title=" ">
<polygon fill="none" stroke="#bfbfbf" points="280.25,-114.5 280.25,-134.5 325.5,-134.5 325.5,-114.5 280.25,-114.5"/>
<text text-anchor="middle" x="302.88" y="-121" font-family="Helvetica,sans-Serif" font-size="10.00">d3d9.h</text>
</a>
</g>
</g>
<!-- Node1&#45;&gt;Node9 -->
<g id="edge8" class="edge">
<title>Node1&#45;&gt;Node9</title>
<path fill="none" stroke="midnightblue" d="M444.35,-171.54C414.51,-161.83 366.95,-146.35 335.32,-136.06"/>
<polygon fill="midnightblue" stroke="midnightblue" points="336.85,-132.55 326.26,-132.78 334.68,-139.21 336.85,-132.55"/>
</g>
<!-- Node10 -->
<g id="node10" class="node">
<title>Node10</title>
<g id="a_node10"><a xlink:title=" ">
<polygon fill="none" stroke="#bfbfbf" points="344,-114.5 344,-134.5 393.75,-134.5 393.75,-114.5 344,-114.5"/>
<text text-anchor="middle" x="368.88" y="-121" font-family="Helvetica,sans-Serif" font-size="10.00">ddraw.h</text>
</a>
</g>
</g>
<!-- Node1&#45;&gt;Node10 -->
<g id="edge9" class="edge">
<title>Node1&#45;&gt;Node10</title>
<path fill="none" stroke="midnightblue" d="M455.33,-171.66C439.13,-163.01 414.2,-149.7 395.27,-139.59"/>
<polygon fill="midnightblue" stroke="midnightblue" points="397.19,-136.12 386.72,-134.5 393.9,-142.3 397.19,-136.12"/>
</g>
<!-- Node11 -->
<g id="node11" class="node">
<title>Node11</title>
<g id="a_node11"><a xlink:title=" ">
<polygon fill="none" stroke="#bfbfbf" points="411.62,-114.5 411.62,-134.5 462.12,-134.5 462.12,-114.5 411.62,-114.5"/>
<text text-anchor="middle" x="436.88" y="-121" font-family="Helvetica,sans-Serif" font-size="10.00">dinput.h</text>
</a>
</g>
</g>
<!-- Node1&#45;&gt;Node11 -->
<g id="edge10" class="edge">
<title>Node1&#45;&gt;Node11</title>
<path fill="none" stroke="midnightblue" d="M466.41,-171.91C461.55,-164.28 454.31,-152.9 448.21,-143.32"/>
<polygon fill="midnightblue" stroke="midnightblue" points="450.74,-141.77 442.42,-135.21 444.84,-145.53 450.74,-141.77"/>
</g>
<!-- Node12 -->
<g id="node12" class="node">
<title>Node12</title>
<g id="a_node12"><a xlink:title=" ">
<polygon fill="none" stroke="#bfbfbf" points="480,-114.5 480,-134.5 535.75,-134.5 535.75,-114.5 480,-114.5"/>
<text text-anchor="middle" x="507.88" y="-121" font-family="Helvetica,sans-Serif" font-size="10.00">dinputd.h</text>
</a>
</g>
</g>
<!-- Node1&#45;&gt;Node12 -->
<g id="edge11" class="edge">
<title>Node1&#45;&gt;Node12</title>
<path fill="none" stroke="midnightblue" d="M477.5,-171.91C482.49,-164.28 489.94,-152.9 496.21,-143.32"/>
<polygon fill="midnightblue" stroke="midnightblue" points="499.62,-145.5 502.17,-135.21 493.77,-141.67 499.62,-145.5"/>
</g>
<!-- Node13 -->
<g id="node13" class="node">
<title>Node13</title>
<g id="a_node13"><a xlink:title=" ">
<polygon fill="none" stroke="#bfbfbf" points="553.38,-114.5 553.38,-134.5 614.38,-134.5 614.38,-114.5 553.38,-114.5"/>
<text text-anchor="middle" x="583.88" y="-121" font-family="Helvetica,sans-Serif" font-size="10.00">d3d10_1.h</text>
</a>
</g>
</g>
<!-- Node1&#45;&gt;Node13 -->
<g id="edge12" class="edge">
<title>Node1&#45;&gt;Node13</title>
<path fill="none" stroke="midnightblue" d="M489.87,-171.66C507.64,-162.94 535.09,-149.46 555.74,-139.31"/>
<polygon fill="midnightblue" stroke="midnightblue" points="557.12,-142.05 564.55,-134.5 554.03,-135.76 557.12,-142.05"/>
</g>
<!-- Node14 -->
<g id="node14" class="node">
<title>Node14</title>
<g id="a_node14"><a xlink:title=" ">
<polygon fill="none" stroke="#bfbfbf" points="632.38,-114.5 632.38,-134.5 693.38,-134.5 693.38,-114.5 632.38,-114.5"/>
<text text-anchor="middle" x="662.88" y="-121" font-family="Helvetica,sans-Serif" font-size="10.00">d3d11_1.h</text>
</a>
</g>
</g>
<!-- Node1&#45;&gt;Node14 -->
<g id="edge13" class="edge">
<title>Node1&#45;&gt;Node14</title>
<path fill="none" stroke="midnightblue" d="M502.99,-171.54C535.37,-162.22 586.23,-147.57 621.87,-137.31"/>
<polygon fill="midnightblue" stroke="midnightblue" points="622.77,-140.4 631.41,-134.27 620.83,-133.68 622.77,-140.4"/>
</g>
<!-- Node15 -->
<g id="node15" class="node">
<title>Node15</title>
<g id="a_node15"><a xlink:title=" ">
<polygon fill="none" stroke="#bfbfbf" points="711.25,-114.5 711.25,-134.5 762.5,-134.5 762.5,-114.5 711.25,-114.5"/>
<text text-anchor="middle" x="736.88" y="-121" font-family="Helvetica,sans-Serif" font-size="10.00">d2derr.h</text>
</a>
</g>
</g>
<!-- Node1&#45;&gt;Node15 -->
<g id="edge14" class="edge">
<title>Node1&#45;&gt;Node15</title>
<path fill="none" stroke="midnightblue" d="M509.68,-173.99C553.53,-166.23 628.18,-152.39 701.04,-135.31"/>
<polygon fill="midnightblue" stroke="midnightblue" points="701.39,-138.58 710.31,-132.87 699.77,-131.77 701.39,-138.58"/>
</g>
<!-- Node16 -->
<g id="node16" class="node">
<title>Node16</title>
<g id="a_node16"><a xlink:title=" ">
<polygon fill="none" stroke="#bfbfbf" points="781,-114.5 781,-134.5 830.75,-134.5 830.75,-114.5 781,-114.5"/>
<text text-anchor="middle" x="805.88" y="-121" font-family="Helvetica,sans-Serif" font-size="10.00">dwrite.h</text>
</a>
</g>
</g>
<!-- Node1&#45;&gt;Node16 -->
<g id="edge15" class="edge">
<title>Node1&#45;&gt;Node16</title>
<path fill="none" stroke="midnightblue" d="M509.56,-176.28C564.72,-169.78 670.82,-156.05 770.52,-135.06"/>
<polygon fill="midnightblue" stroke="midnightblue" points="771.03,-138.32 780.08,-132.8 769.57,-131.47 771.03,-138.32"/>
</g>
<!-- Node17 -->
<g id="node17" class="node">
<title>Node17</title>
<g id="a_node17"><a xlink:title=" ">
<polygon fill="none" stroke="#bfbfbf" points="848.5,-114.5 848.5,-134.5 913.25,-134.5 913.25,-114.5 848.5,-114.5"/>
<text text-anchor="middle" x="880.88" y="-121" font-family="Helvetica,sans-Serif" font-size="10.00">wincodec.h</text>
</a>
</g>
</g>
<!-- Node1&#45;&gt;Node17 -->
<g id="edge16" class="edge">
<title>Node1&#45;&gt;Node17</title>
<path fill="none" stroke="midnightblue" d="M509.68,-177.14C574.75,-171.08 712.28,-157.02 838.13,-135.15"/>
<polygon fill="midnightblue" stroke="midnightblue" points="838.47,-138.47 847.71,-133.29 837.26,-131.57 838.47,-138.47"/>
</g>
<!-- Node3 -->
<g id="node3" class="node">
<title>Node3</title>
<g id="a_node3"><a xlink:href="_win_8h.html" target="_top" xlink:title=" ">
<polygon fill="none" stroke="black" points="55.12,-57.5 55.12,-77.5 96.62,-77.5 96.62,-57.5 55.12,-57.5"/>
<text text-anchor="middle" x="75.88" y="-64" font-family="Helvetica,sans-Serif" font-size="10.00">Win.h</text>
</a>
</g>
</g>
<!-- Node2&#45;&gt;Node3 -->
<g id="edge2" class="edge">
<title>Node2&#45;&gt;Node3</title>
<path fill="none" stroke="midnightblue" d="M99.5,-114.91C95.7,-107.44 90.07,-96.38 85.26,-86.93"/>
<polygon fill="midnightblue" stroke="midnightblue" points="87.97,-85.54 80.31,-78.21 81.73,-88.71 87.97,-85.54"/>
</g>
<!-- Node6 -->
<g id="node6" class="node">
<title>Node6</title>
<g id="a_node6"><a xlink:title=" ">
<polygon fill="none" stroke="#bfbfbf" points="114.38,-57.5 114.38,-77.5 151.38,-77.5 151.38,-57.5 114.38,-57.5"/>
<text text-anchor="middle" x="132.88" y="-64" font-family="Helvetica,sans-Serif" font-size="10.00">sal.h</text>
</a>
</g>
</g>
<!-- Node2&#45;&gt;Node6 -->
<g id="edge5" class="edge">
<title>Node2&#45;&gt;Node6</title>
<path fill="none" stroke="midnightblue" d="M108.41,-114.91C112.34,-107.44 118.18,-96.38 123.16,-86.93"/>
<polygon fill="midnightblue" stroke="midnightblue" points="126.71,-88.69 128.28,-78.21 120.52,-85.43 126.71,-88.69"/>
</g>
<!-- Node4 -->
<g id="node4" class="node">
<title>Node4</title>
<g id="a_node4"><a xlink:title=" ">
<polygon fill="none" stroke="#bfbfbf" points="0,-0.5 0,-20.5 67.75,-20.5 67.75,-0.5 0,-0.5"/>
<text text-anchor="middle" x="33.88" y="-7" font-family="Helvetica,sans-Serif" font-size="10.00">sdkddkver.h</text>
</a>
</g>
</g>
<!-- Node3&#45;&gt;Node4 -->
<g id="edge3" class="edge">
<title>Node3&#45;&gt;Node4</title>
<path fill="none" stroke="midnightblue" d="M69.31,-57.91C63.37,-50.12 54.43,-38.42 47.02,-28.71"/>
<polygon fill="midnightblue" stroke="midnightblue" points="49.38,-27.04 40.53,-21.21 43.82,-31.29 49.38,-27.04"/>
</g>
<!-- Node5 -->
<g id="node5" class="node">
<title>Node5</title>
<g id="a_node5"><a xlink:title=" ">
<polygon fill="none" stroke="#bfbfbf" points="85.88,-0.5 85.88,-20.5 149.88,-20.5 149.88,-0.5 85.88,-0.5"/>
<text text-anchor="middle" x="117.88" y="-7" font-family="Helvetica,sans-Serif" font-size="10.00">Windows.h</text>
</a>
</g>
</g>
<!-- Node3&#45;&gt;Node5 -->
<g id="edge4" class="edge">
<title>Node3&#45;&gt;Node5</title>
<path fill="none" stroke="midnightblue" d="M82.44,-57.91C88.38,-50.12 97.32,-38.42 104.73,-28.71"/>
<polygon fill="midnightblue" stroke="midnightblue" points="107.93,-31.29 111.22,-21.21 102.37,-27.04 107.93,-31.29"/>
</g>
</g>
</svg>
