<?xml version="1.0" encoding="UTF-8" standalone="no"?>
<!DOCTYPE svg PUBLIC "-//W3C//DTD SVG 1.1//EN"
 "http://www.w3.org/Graphics/SVG/1.1/DTD/svg11.dtd">
<!-- Generated by graphviz version 8.1.0 (20230707.0739)
 -->
<!-- Title: include/Scenes/DoubleCubeScene.h Pages: 1 -->
<svg width="1155pt" height="554pt"
 viewBox="0.00 0.00 1155.38 554.00" xmlns="http://www.w3.org/2000/svg" xmlns:xlink="http://www.w3.org/1999/xlink">
<g id="graph0" class="graph" transform="scale(1 1) rotate(0) translate(4 550)">
<title>include/Scenes/DoubleCubeScene.h</title>
<!-- Node1 -->
<g id="node1" class="node">
<title>Node1</title>
<g id="a_node1"><a xlink:title=" ">
<polygon fill="#bfbfbf" stroke="black" points="277.25,-513.5 277.25,-545.5 415.5,-545.5 415.5,-513.5 277.25,-513.5"/>
<text text-anchor="start" x="285.25" y="-532" font-family="Helvetica,sans-Serif" font-size="10.00">include/Scenes/DoubleCube</text>
<text text-anchor="middle" x="346.38" y="-520" font-family="Helvetica,sans-Serif" font-size="10.00">Scene.h</text>
</a>
</g>
</g>
<!-- Node2 -->
<g id="node2" class="node">
<title>Node2</title>
<g id="a_node2"><a xlink:href="_scene_8h.html" target="_top" xlink:title=" ">
<polygon fill="none" stroke="black" points="266.38,-342.5 266.38,-362.5 318.38,-362.5 318.38,-342.5 266.38,-342.5"/>
<text text-anchor="middle" x="292.38" y="-349" font-family="Helvetica,sans-Serif" font-size="10.00">Scene.h</text>
</a>
</g>
</g>
<!-- Node1&#45;&gt;Node2 -->
<g id="edge1" class="edge">
<title>Node1&#45;&gt;Node2</title>
<path fill="none" stroke="midnightblue" d="M341.77,-513.58C331.96,-481.8 309.03,-407.46 298.21,-372.42"/>
<polygon fill="midnightblue" stroke="midnightblue" points="301.34,-371.68 295.05,-363.16 294.65,-373.74 301.34,-371.68"/>
</g>
<!-- Node15 -->
<g id="node15" class="node">
<title>Node15</title>
<g id="a_node15"><a xlink:href="_matrix3_8h.html" target="_top" xlink:title=" ">
<polygon fill="none" stroke="black" points="273.13,-57.5 273.13,-77.5 329.63,-77.5 329.63,-57.5 273.13,-57.5"/>
<text text-anchor="middle" x="301.38" y="-64" font-family="Helvetica,sans-Serif" font-size="10.00">Matrix3.h</text>
</a>
</g>
</g>
<!-- Node1&#45;&gt;Node15 -->
<g id="edge57" class="edge">
<title>Node1&#45;&gt;Node15</title>
<path fill="none" stroke="midnightblue" d="M346.38,-513.6C346.38,-491.21 346.38,-447.58 346.38,-410.5 346.38,-410.5 346.38,-410.5 346.38,-351.5 346.38,-287.23 283.8,-299.76 244.38,-249 226.28,-225.7 218.21,-220.44 210.38,-192 200.59,-156.49 214.62,-142.15 238.38,-114 248.67,-101.8 262.92,-91.15 275.25,-83.23"/>
<polygon fill="midnightblue" stroke="midnightblue" points="276.93,-85.7 283.63,-77.49 273.27,-79.73 276.93,-85.7"/>
</g>
<!-- Node34 -->
<g id="node34" class="node">
<title>Node34</title>
<g id="a_node34"><a xlink:href="_cube_8h.html" target="_top" xlink:title=" ">
<polygon fill="none" stroke="black" points="253,-228.5 253,-248.5 299.75,-248.5 299.75,-228.5 253,-228.5"/>
<text text-anchor="middle" x="276.38" y="-235" font-family="Helvetica,sans-Serif" font-size="10.00">Cube.h</text>
</a>
</g>
</g>
<!-- Node1&#45;&gt;Node34 -->
<g id="edge51" class="edge">
<title>Node1&#45;&gt;Node34</title>
<path fill="none" stroke="midnightblue" d="M318.28,-513.65C286.28,-494.47 238.38,-457.85 238.38,-410.5 238.38,-410.5 238.38,-410.5 238.38,-351.5 238.38,-317.07 254.68,-279.7 265.93,-258"/>
<polygon fill="midnightblue" stroke="midnightblue" points="269.42,-259.9 271.09,-249.44 263.26,-256.58 269.42,-259.9"/>
</g>
<!-- Node37 -->
<g id="node37" class="node">
<title>Node37</title>
<g id="a_node37"><a xlink:href="_pipeline_8h.html" target="_top" xlink:title=" ">
<polygon fill="none" stroke="black" points="640,-399.5 640,-419.5 698.75,-419.5 698.75,-399.5 640,-399.5"/>
<text text-anchor="middle" x="669.38" y="-406" font-family="Helvetica,sans-Serif" font-size="10.00">Pipeline.h</text>
</a>
</g>
</g>
<!-- Node1&#45;&gt;Node37 -->
<g id="edge58" class="edge">
<title>Node1&#45;&gt;Node37</title>
<path fill="none" stroke="midnightblue" d="M406.43,-513.51C441.28,-504.22 485.78,-491.34 524.38,-477 566.69,-461.28 613.9,-438.62 642.62,-424.23"/>
<polygon fill="midnightblue" stroke="midnightblue" points="643.97,-426.96 651.32,-419.33 640.81,-420.71 643.97,-426.96"/>
</g>
<!-- Node43 -->
<g id="node43" class="node">
<title>Node43</title>
<g id="a_node43"><a xlink:href="_solid_effect_8h.html" target="_top" xlink:title=" ">
<polygon fill="none" stroke="black" points="417.13,-456.5 417.13,-476.5 515.63,-476.5 515.63,-456.5 417.13,-456.5"/>
<text text-anchor="middle" x="466.38" y="-463" font-family="Helvetica,sans-Serif" font-size="10.00">Effect/SolidEffect.h</text>
</a>
</g>
</g>
<!-- Node1&#45;&gt;Node43 -->
<g id="edge71" class="edge">
<title>Node1&#45;&gt;Node43</title>
<path fill="none" stroke="midnightblue" d="M375.73,-513.58C395.05,-503.76 420.16,-490.99 439.06,-481.39"/>
<polygon fill="midnightblue" stroke="midnightblue" points="440.51,-484.07 447.84,-476.42 437.34,-477.83 440.51,-484.07"/>
</g>
<!-- Node3 -->
<g id="node3" class="node">
<title>Node3</title>
<g id="a_node3"><a xlink:href="_keyboard_8h.html" target="_top" xlink:title=" ">
<polygon fill="none" stroke="black" points="144.63,-285.5 144.63,-305.5 210.13,-305.5 210.13,-285.5 144.63,-285.5"/>
<text text-anchor="middle" x="177.38" y="-292" font-family="Helvetica,sans-Serif" font-size="10.00">Keyboard.h</text>
</a>
</g>
</g>
<!-- Node2&#45;&gt;Node3 -->
<g id="edge2" class="edge">
<title>Node2&#45;&gt;Node3</title>
<path fill="none" stroke="midnightblue" d="M273.64,-342.54C255.26,-333.75 227,-320.23 205.84,-310.11"/>
<polygon fill="midnightblue" stroke="midnightblue" points="207.63,-306.61 197.1,-305.46 204.61,-312.93 207.63,-306.61"/>
</g>
<!-- Node6 -->
<g id="node6" class="node">
<title>Node6</title>
<g id="a_node6"><a xlink:href="_mouse_8h.html" target="_top" xlink:title=" ">
<polygon fill="none" stroke="black" points="72.63,-285.5 72.63,-305.5 126.13,-305.5 126.13,-285.5 72.63,-285.5"/>
<text text-anchor="middle" x="99.38" y="-292" font-family="Helvetica,sans-Serif" font-size="10.00">Mouse.h</text>
</a>
</g>
</g>
<!-- Node2&#45;&gt;Node6 -->
<g id="edge5" class="edge">
<title>Node2&#45;&gt;Node6</title>
<path fill="none" stroke="midnightblue" d="M266.75,-344.2C233.29,-334.66 174.49,-317.91 136.24,-307.01"/>
<polygon fill="midnightblue" stroke="midnightblue" points="137.62,-303.47 127.04,-304.1 135.7,-310.21 137.62,-303.47"/>
</g>
<!-- Node19 -->
<g id="node19" class="node">
<title>Node19</title>
<g id="a_node19"><a xlink:href="_graphics_8h.html" target="_top" xlink:title=" ">
<polygon fill="none" stroke="black" points="551.75,-285.5 551.75,-305.5 615,-305.5 615,-285.5 551.75,-285.5"/>
<text text-anchor="middle" x="583.38" y="-292" font-family="Helvetica,sans-Serif" font-size="10.00">Graphics.h</text>
</a>
</g>
</g>
<!-- Node2&#45;&gt;Node19 -->
<g id="edge25" class="edge">
<title>Node2&#45;&gt;Node19</title>
<path fill="none" stroke="midnightblue" d="M318.2,-346.62C368.59,-337.1 480.42,-315.96 541.52,-304.41"/>
<polygon fill="midnightblue" stroke="midnightblue" points="541.78,-307.73 550.96,-302.44 540.48,-300.86 541.78,-307.73"/>
</g>
<!-- Node21 -->
<g id="node21" class="node">
<title>Node21</title>
<g id="a_node21"><a xlink:title=" ">
<polygon fill="none" stroke="#bfbfbf" points="526.38,-114.5 526.38,-134.5 566.38,-134.5 566.38,-114.5 526.38,-114.5"/>
<text text-anchor="middle" x="546.38" y="-121" font-family="Helvetica,sans-Serif" font-size="10.00">string</text>
</a>
</g>
</g>
<!-- Node2&#45;&gt;Node21 -->
<g id="edge50" class="edge">
<title>Node2&#45;&gt;Node21</title>
<path fill="none" stroke="midnightblue" d="M301.52,-342.59C329.08,-315.85 414.02,-234.23 488.38,-171 500.56,-160.64 514.68,-149.55 525.93,-140.91"/>
<polygon fill="midnightblue" stroke="midnightblue" points="527.77,-143.14 533.6,-134.3 523.53,-137.58 527.77,-143.14"/>
</g>
<!-- Node4 -->
<g id="node4" class="node">
<title>Node4</title>
<g id="a_node4"><a xlink:title=" ">
<polygon fill="none" stroke="#bfbfbf" points="157.38,-228.5 157.38,-248.5 197.38,-248.5 197.38,-228.5 157.38,-228.5"/>
<text text-anchor="middle" x="177.38" y="-235" font-family="Helvetica,sans-Serif" font-size="10.00">bitset</text>
</a>
</g>
</g>
<!-- Node3&#45;&gt;Node4 -->
<g id="edge3" class="edge">
<title>Node3&#45;&gt;Node4</title>
<path fill="none" stroke="midnightblue" d="M177.38,-285.91C177.38,-278.76 177.38,-268.32 177.38,-259.15"/>
<polygon fill="midnightblue" stroke="midnightblue" points="180.88,-259.21 177.38,-249.21 173.88,-259.21 180.88,-259.21"/>
</g>
<!-- Node5 -->
<g id="node5" class="node">
<title>Node5</title>
<g id="a_node5"><a xlink:title=" ">
<polygon fill="none" stroke="#bfbfbf" points="97.25,-228.5 97.25,-248.5 139.5,-248.5 139.5,-228.5 97.25,-228.5"/>
<text text-anchor="middle" x="118.38" y="-235" font-family="Helvetica,sans-Serif" font-size="10.00">queue</text>
</a>
</g>
</g>
<!-- Node3&#45;&gt;Node5 -->
<g id="edge4" class="edge">
<title>Node3&#45;&gt;Node5</title>
<path fill="none" stroke="midnightblue" d="M167.9,-285.66C159.26,-277.61 146.29,-265.52 135.79,-255.73"/>
<polygon fill="midnightblue" stroke="midnightblue" points="138.73,-253.76 129.03,-249.5 133.96,-258.88 138.73,-253.76"/>
</g>
<!-- Node6&#45;&gt;Node5 -->
<g id="edge24" class="edge">
<title>Node6&#45;&gt;Node5</title>
<path fill="none" stroke="midnightblue" d="M102.34,-285.91C104.87,-278.6 108.58,-267.85 111.8,-258.54"/>
<polygon fill="midnightblue" stroke="midnightblue" points="115.41,-259.81 115.36,-249.21 108.79,-257.52 115.41,-259.81"/>
</g>
<!-- Node7 -->
<g id="node7" class="node">
<title>Node7</title>
<g id="a_node7"><a xlink:href="_vector2_8h.html" target="_top" xlink:title=" ">
<polygon fill="none" stroke="black" points="32.25,-114.5 32.25,-134.5 152.5,-134.5 152.5,-114.5 32.25,-114.5"/>
<text text-anchor="middle" x="92.38" y="-121" font-family="Helvetica,sans-Serif" font-size="10.00">LinearAlgebra/Vector2.h</text>
</a>
</g>
</g>
<!-- Node6&#45;&gt;Node7 -->
<g id="edge6" class="edge">
<title>Node6&#45;&gt;Node7</title>
<path fill="none" stroke="midnightblue" d="M96.54,-285.55C93.83,-276.46 89.91,-261.91 88.38,-249 84.01,-212.37 87.31,-169.23 89.95,-144.85"/>
<polygon fill="midnightblue" stroke="midnightblue" points="93.51,-145.56 91.19,-135.22 86.56,-144.75 93.51,-145.56"/>
</g>
<!-- Node8 -->
<g id="node8" class="node">
<title>Node8</title>
<g id="a_node8"><a xlink:href="_math_8h.html" target="_top" xlink:title=" ">
<polygon fill="none" stroke="black" points="423.38,-57.5 423.38,-77.5 469.38,-77.5 469.38,-57.5 423.38,-57.5"/>
<text text-anchor="middle" x="446.38" y="-64" font-family="Helvetica,sans-Serif" font-size="10.00">Math.h</text>
</a>
</g>
</g>
<!-- Node7&#45;&gt;Node8 -->
<g id="edge7" class="edge">
<title>Node7&#45;&gt;Node8</title>
<path fill="none" stroke="midnightblue" d="M150.04,-114.54C224.77,-102.93 352.61,-83.07 412.96,-73.69"/>
<polygon fill="midnightblue" stroke="midnightblue" points="413.41,-77.01 422.76,-72.01 412.34,-70.09 413.41,-77.01"/>
</g>
<!-- Node13 -->
<g id="node13" class="node">
<title>Node13</title>
<g id="a_node13"><a xlink:href="_matrix2_8h.html" target="_top" xlink:title=" ">
<polygon fill="none" stroke="black" points="13.13,-57.5 13.13,-77.5 69.63,-77.5 69.63,-57.5 13.13,-57.5"/>
<text text-anchor="middle" x="41.38" y="-64" font-family="Helvetica,sans-Serif" font-size="10.00">Matrix2.h</text>
</a>
</g>
</g>
<!-- Node7&#45;&gt;Node13 -->
<g id="edge13" class="edge">
<title>Node7&#45;&gt;Node13</title>
<path fill="none" stroke="midnightblue" d="M84.41,-114.91C77.04,-106.96 65.89,-94.94 56.78,-85.12"/>
<polygon fill="midnightblue" stroke="midnightblue" points="59.82,-83.17 50.46,-78.21 54.69,-87.93 59.82,-83.17"/>
</g>
<!-- Node14 -->
<g id="node14" class="node">
<title>Node14</title>
<g id="a_node14"><a xlink:title=" ">
<polygon fill="none" stroke="#bfbfbf" points="84.63,-0.5 84.63,-20.5 138.13,-20.5 138.13,-0.5 84.63,-0.5"/>
<text text-anchor="middle" x="111.38" y="-7" font-family="Helvetica,sans-Serif" font-size="10.00">iostream</text>
</a>
</g>
</g>
<!-- Node7&#45;&gt;Node14 -->
<g id="edge23" class="edge">
<title>Node7&#45;&gt;Node14</title>
<path fill="none" stroke="midnightblue" d="M61.18,-114.55C29.3,-103.72 -13.21,-83.59 4.38,-57 19.83,-33.64 49.96,-22.24 74.32,-16.69"/>
<polygon fill="midnightblue" stroke="midnightblue" points="74.92,-19.94 84.04,-14.53 73.54,-13.08 74.92,-19.94"/>
</g>
<!-- Node7&#45;&gt;Node15 -->
<g id="edge15" class="edge">
<title>Node7&#45;&gt;Node15</title>
<path fill="none" stroke="midnightblue" d="M126.42,-114.54C163.85,-104.69 223.85,-88.9 262.94,-78.62"/>
<polygon fill="midnightblue" stroke="midnightblue" points="263.59,-81.8 272.37,-75.87 261.81,-75.03 263.59,-81.8"/>
</g>
<!-- Node16 -->
<g id="node16" class="node">
<title>Node16</title>
<g id="a_node16"><a xlink:title=" ">
<polygon fill="none" stroke="#bfbfbf" points="223.5,-0.5 223.5,-20.5 261.25,-20.5 261.25,-0.5 223.5,-0.5"/>
<text text-anchor="middle" x="242.38" y="-7" font-family="Helvetica,sans-Serif" font-size="10.00">array</text>
</a>
</g>
</g>
<!-- Node7&#45;&gt;Node16 -->
<g id="edge20" class="edge">
<title>Node7&#45;&gt;Node16</title>
<path fill="none" stroke="midnightblue" d="M93.88,-114.92C96.78,-100.93 104.39,-73.13 121.38,-57 146.72,-32.93 186.01,-21.31 212.9,-15.89"/>
<polygon fill="midnightblue" stroke="midnightblue" points="213.38,-19.18 222.59,-13.94 212.12,-12.29 213.38,-19.18"/>
</g>
<!-- Node17 -->
<g id="node17" class="node">
<title>Node17</title>
<g id="a_node17"><a xlink:title=" ">
<polygon fill="none" stroke="#bfbfbf" points="279.63,-0.5 279.63,-20.5 327.13,-20.5 327.13,-0.5 279.63,-0.5"/>
<text text-anchor="middle" x="303.38" y="-7" font-family="Helvetica,sans-Serif" font-size="10.00">cstddef</text>
</a>
</g>
</g>
<!-- Node7&#45;&gt;Node17 -->
<g id="edge22" class="edge">
<title>Node7&#45;&gt;Node17</title>
<path fill="none" stroke="midnightblue" d="M98.16,-114.79C108.03,-100.61 129.48,-72.56 154.38,-57 159.39,-53.87 227.01,-33.8 269.42,-21.39"/>
<polygon fill="midnightblue" stroke="midnightblue" points="270.24,-24.5 278.86,-18.33 268.28,-17.78 270.24,-24.5"/>
</g>
<!-- Node18 -->
<g id="node18" class="node">
<title>Node18</title>
<g id="a_node18"><a xlink:title=" ">
<polygon fill="none" stroke="#bfbfbf" points="163.63,-57.5 163.63,-77.5 217.13,-77.5 217.13,-57.5 163.63,-57.5"/>
<text text-anchor="middle" x="190.38" y="-64" font-family="Helvetica,sans-Serif" font-size="10.00">compare</text>
</a>
</g>
</g>
<!-- Node7&#45;&gt;Node18 -->
<g id="edge21" class="edge">
<title>Node7&#45;&gt;Node18</title>
<path fill="none" stroke="midnightblue" d="M108.12,-114.66C123.39,-106.09 146.81,-92.95 164.76,-82.87"/>
<polygon fill="midnightblue" stroke="midnightblue" points="166.34,-85.44 173.34,-77.5 162.91,-79.34 166.34,-85.44"/>
</g>
<!-- Node8&#45;&gt;Node8 -->
<g id="edge8" class="edge">
<title>Node8&#45;&gt;Node8</title>
<path fill="none" stroke="midnightblue" d="M464.93,-77.43C476.43,-79.83 487.38,-76.52 487.38,-67.5 487.38,-61.44 482.43,-57.96 475.7,-57.05"/>
<polygon fill="midnightblue" stroke="midnightblue" points="475.75,-53.59 465.93,-57.57 476.08,-60.59 475.75,-53.59"/>
</g>
<!-- Node9 -->
<g id="node9" class="node">
<title>Node9</title>
<g id="a_node9"><a xlink:title=" ">
<polygon fill="none" stroke="#bfbfbf" points="352.88,-0.5 352.88,-20.5 395.88,-20.5 395.88,-0.5 352.88,-0.5"/>
<text text-anchor="middle" x="374.38" y="-7" font-family="Helvetica,sans-Serif" font-size="10.00">cmath</text>
</a>
</g>
</g>
<!-- Node8&#45;&gt;Node9 -->
<g id="edge9" class="edge">
<title>Node8&#45;&gt;Node9</title>
<path fill="none" stroke="midnightblue" d="M434.81,-57.66C424.06,-49.45 407.81,-37.04 394.87,-27.15"/>
<polygon fill="midnightblue" stroke="midnightblue" points="397.23,-23.79 387.15,-20.5 392.98,-29.35 397.23,-23.79"/>
</g>
<!-- Node10 -->
<g id="node10" class="node">
<title>Node10</title>
<g id="a_node10"><a xlink:title=" ">
<polygon fill="none" stroke="#bfbfbf" points="834.75,-0.5 834.75,-20.5 874,-20.5 874,-0.5 834.75,-0.5"/>
<text text-anchor="middle" x="854.38" y="-7" font-family="Helvetica,sans-Serif" font-size="10.00">limits</text>
</a>
</g>
</g>
<!-- Node8&#45;&gt;Node10 -->
<g id="edge10" class="edge">
<title>Node8&#45;&gt;Node10</title>
<path fill="none" stroke="midnightblue" d="M469.19,-63.43C538.44,-54.09 746.32,-26.07 824.35,-15.55"/>
<polygon fill="midnightblue" stroke="midnightblue" points="824.44,-18.93 833.88,-14.13 823.51,-11.99 824.44,-18.93"/>
</g>
<!-- Node11 -->
<g id="node11" class="node">
<title>Node11</title>
<g id="a_node11"><a xlink:title=" ">
<polygon fill="none" stroke="#bfbfbf" points="417.63,-0.5 417.63,-20.5 471.13,-20.5 471.13,-0.5 417.63,-0.5"/>
<text text-anchor="middle" x="444.38" y="-7" font-family="Helvetica,sans-Serif" font-size="10.00">numbers</text>
</a>
</g>
</g>
<!-- Node8&#45;&gt;Node11 -->
<g id="edge11" class="edge">
<title>Node8&#45;&gt;Node11</title>
<path fill="none" stroke="midnightblue" d="M446.06,-57.91C445.8,-50.76 445.42,-40.32 445.09,-31.15"/>
<polygon fill="midnightblue" stroke="midnightblue" points="448.55,-31.08 444.69,-21.21 441.56,-31.34 448.55,-31.08"/>
</g>
<!-- Node12 -->
<g id="node12" class="node">
<title>Node12</title>
<g id="a_node12"><a xlink:title=" ">
<polygon fill="none" stroke="#bfbfbf" points="489.25,-0.5 489.25,-20.5 537.5,-20.5 537.5,-0.5 489.25,-0.5"/>
<text text-anchor="middle" x="513.38" y="-7" font-family="Helvetica,sans-Serif" font-size="10.00">random</text>
</a>
</g>
</g>
<!-- Node8&#45;&gt;Node12 -->
<g id="edge12" class="edge">
<title>Node8&#45;&gt;Node12</title>
<path fill="none" stroke="midnightblue" d="M457.14,-57.66C467.04,-49.53 481.97,-37.28 493.95,-27.44"/>
<polygon fill="midnightblue" stroke="midnightblue" points="495.91,-29.55 501.41,-20.5 491.46,-24.14 495.91,-29.55"/>
</g>
<!-- Node13&#45;&gt;Node14 -->
<g id="edge14" class="edge">
<title>Node13&#45;&gt;Node14</title>
<path fill="none" stroke="midnightblue" d="M52.62,-57.66C63.07,-49.45 78.87,-37.04 91.45,-27.15"/>
<polygon fill="midnightblue" stroke="midnightblue" points="93.22,-29.43 98.92,-20.5 88.9,-23.92 93.22,-29.43"/>
</g>
<!-- Node15&#45;&gt;Node9 -->
<g id="edge17" class="edge">
<title>Node15&#45;&gt;Node9</title>
<path fill="none" stroke="midnightblue" d="M313.1,-57.66C324.11,-49.37 340.8,-36.8 353.98,-26.87"/>
<polygon fill="midnightblue" stroke="midnightblue" points="355.55,-29.31 361.43,-20.5 351.34,-23.72 355.55,-29.31"/>
</g>
<!-- Node15&#45;&gt;Node14 -->
<g id="edge19" class="edge">
<title>Node15&#45;&gt;Node14</title>
<path fill="none" stroke="midnightblue" d="M273.34,-58.38C240.18,-48.78 184.86,-32.77 148.25,-22.17"/>
<polygon fill="midnightblue" stroke="midnightblue" points="149.57,-18.62 138.99,-19.2 147.62,-25.35 149.57,-18.62"/>
</g>
<!-- Node15&#45;&gt;Node16 -->
<g id="edge16" class="edge">
<title>Node15&#45;&gt;Node16</title>
<path fill="none" stroke="midnightblue" d="M291.9,-57.66C283.26,-49.61 270.29,-37.52 259.79,-27.73"/>
<polygon fill="midnightblue" stroke="midnightblue" points="262.73,-25.76 253.03,-21.5 257.96,-30.88 262.73,-25.76"/>
</g>
<!-- Node15&#45;&gt;Node17 -->
<g id="edge18" class="edge">
<title>Node15&#45;&gt;Node17</title>
<path fill="none" stroke="midnightblue" d="M301.69,-57.91C301.95,-50.76 302.33,-40.32 302.66,-31.15"/>
<polygon fill="midnightblue" stroke="midnightblue" points="306.19,-31.34 303.06,-21.21 299.2,-31.08 306.19,-31.34"/>
</g>
<!-- Node20 -->
<g id="node20" class="node">
<title>Node20</title>
<g id="a_node20"><a xlink:href="_engine_exception_8h.html" target="_top" xlink:title=" ">
<polygon fill="none" stroke="black" points="497.5,-171.5 497.5,-191.5 595.25,-191.5 595.25,-171.5 497.5,-171.5"/>
<text text-anchor="middle" x="546.38" y="-178" font-family="Helvetica,sans-Serif" font-size="10.00">EngineException.h</text>
</a>
</g>
</g>
<!-- Node19&#45;&gt;Node20 -->
<g id="edge26" class="edge">
<title>Node19&#45;&gt;Node20</title>
<path fill="none" stroke="midnightblue" d="M591.82,-285.67C603.13,-272.71 620.66,-247.93 610.38,-228 603.35,-214.39 590.16,-203.96 577.58,-196.54"/>
<polygon fill="midnightblue" stroke="midnightblue" points="579.64,-193.14 569.18,-191.45 576.31,-199.29 579.64,-193.14"/>
</g>
<!-- Node22 -->
<g id="node22" class="node">
<title>Node22</title>
<g id="a_node22"><a xlink:href="_vector3_8h.html" target="_top" xlink:title=" ">
<polygon fill="none" stroke="black" points="307.25,-114.5 307.25,-134.5 427.5,-134.5 427.5,-114.5 307.25,-114.5"/>
<text text-anchor="middle" x="367.38" y="-121" font-family="Helvetica,sans-Serif" font-size="10.00">LinearAlgebra/Vector3.h</text>
</a>
</g>
</g>
<!-- Node19&#45;&gt;Node22 -->
<g id="edge28" class="edge">
<title>Node19&#45;&gt;Node22</title>
<path fill="none" stroke="midnightblue" d="M559.07,-285.61C539.08,-277.67 510.53,-264.86 488.38,-249 465.05,-232.31 409.1,-171.7 382.25,-142.05"/>
<polygon fill="midnightblue" stroke="midnightblue" points="385.51,-140.33 376.21,-135.25 380.31,-145.02 385.51,-140.33"/>
</g>
<!-- Node23 -->
<g id="node23" class="node">
<title>Node23</title>
<g id="a_node23"><a xlink:href="_g_d_i_plus_manager_8h.html" target="_top" xlink:title=" ">
<polygon fill="none" stroke="black" points="784.5,-228.5 784.5,-248.5 882.25,-248.5 882.25,-228.5 784.5,-228.5"/>
<text text-anchor="middle" x="833.38" y="-235" font-family="Helvetica,sans-Serif" font-size="10.00">GDIPlusManager.h</text>
</a>
</g>
</g>
<!-- Node19&#45;&gt;Node23 -->
<g id="edge35" class="edge">
<title>Node19&#45;&gt;Node23</title>
<path fill="none" stroke="midnightblue" d="M614.78,-287.59C656.81,-278.34 731.87,-261.83 782.14,-250.77"/>
<polygon fill="midnightblue" stroke="midnightblue" points="782.77,-254 791.79,-248.43 781.27,-247.16 782.77,-254"/>
</g>
<!-- Node27 -->
<g id="node27" class="node">
<title>Node27</title>
<g id="a_node27"><a xlink:href="_surface_8h.html" target="_top" xlink:title=" ">
<polygon fill="none" stroke="black" points="696.75,-228.5 696.75,-248.5 754,-248.5 754,-228.5 696.75,-228.5"/>
<text text-anchor="middle" x="725.38" y="-235" font-family="Helvetica,sans-Serif" font-size="10.00">Surface.h</text>
</a>
</g>
</g>
<!-- Node19&#45;&gt;Node27 -->
<g id="edge39" class="edge">
<title>Node19&#45;&gt;Node27</title>
<path fill="none" stroke="midnightblue" d="M606.51,-285.54C629.82,-276.51 666.02,-262.49 692.34,-252.29"/>
<polygon fill="midnightblue" stroke="midnightblue" points="693.19,-255.33 701.25,-248.46 690.67,-248.8 693.19,-255.33"/>
</g>
<!-- Node32 -->
<g id="node32" class="node">
<title>Node32</title>
<g id="a_node32"><a xlink:title=" ">
<polygon fill="none" stroke="#bfbfbf" points="497.13,-228.5 497.13,-248.5 547.63,-248.5 547.63,-228.5 497.13,-228.5"/>
<text text-anchor="middle" x="522.38" y="-235" font-family="Helvetica,sans-Serif" font-size="10.00">d3d11.h</text>
</a>
</g>
</g>
<!-- Node19&#45;&gt;Node32 -->
<g id="edge48" class="edge">
<title>Node19&#45;&gt;Node32</title>
<path fill="none" stroke="midnightblue" d="M573.57,-285.66C564.65,-277.61 551.24,-265.52 540.38,-255.73"/>
<polygon fill="midnightblue" stroke="midnightblue" points="543.13,-253.59 533.35,-249.5 538.44,-258.79 543.13,-253.59"/>
</g>
<!-- Node33 -->
<g id="node33" class="node">
<title>Node33</title>
<g id="a_node33"><a xlink:title=" ">
<polygon fill="none" stroke="#bfbfbf" points="565.25,-228.5 565.25,-248.5 601.5,-248.5 601.5,-228.5 565.25,-228.5"/>
<text text-anchor="middle" x="583.38" y="-235" font-family="Helvetica,sans-Serif" font-size="10.00">wrl.h</text>
</a>
</g>
</g>
<!-- Node19&#45;&gt;Node33 -->
<g id="edge49" class="edge">
<title>Node19&#45;&gt;Node33</title>
<path fill="none" stroke="midnightblue" d="M583.38,-285.91C583.38,-278.76 583.38,-268.32 583.38,-259.15"/>
<polygon fill="midnightblue" stroke="midnightblue" points="586.88,-259.21 583.38,-249.21 579.88,-259.21 586.88,-259.21"/>
</g>
<!-- Node20&#45;&gt;Node21 -->
<g id="edge27" class="edge">
<title>Node20&#45;&gt;Node21</title>
<path fill="none" stroke="midnightblue" d="M546.38,-171.91C546.38,-164.76 546.38,-154.32 546.38,-145.15"/>
<polygon fill="midnightblue" stroke="midnightblue" points="549.88,-145.21 546.38,-135.21 542.88,-145.21 549.88,-145.21"/>
</g>
<!-- Node22&#45;&gt;Node8 -->
<g id="edge29" class="edge">
<title>Node22&#45;&gt;Node8</title>
<path fill="none" stroke="midnightblue" d="M380.07,-114.66C392.09,-106.29 410.38,-93.56 424.71,-83.58"/>
<polygon fill="midnightblue" stroke="midnightblue" points="426.24,-86.08 432.45,-77.5 422.24,-80.34 426.24,-86.08"/>
</g>
<!-- Node22&#45;&gt;Node14 -->
<g id="edge32" class="edge">
<title>Node22&#45;&gt;Node14</title>
<path fill="none" stroke="midnightblue" d="M345.81,-114.64C324.8,-105.84 292.05,-91.72 264.38,-78 247.09,-69.43 243.83,-65.23 226.38,-57 200.22,-44.66 169.76,-32.71 146.76,-24.16"/>
<polygon fill="midnightblue" stroke="midnightblue" points="148.04,-20.53 137.44,-20.36 145.62,-27.1 148.04,-20.53"/>
</g>
<!-- Node22&#45;&gt;Node15 -->
<g id="edge30" class="edge">
<title>Node22&#45;&gt;Node15</title>
<path fill="none" stroke="midnightblue" d="M356.77,-114.66C347.01,-106.53 332.31,-94.28 320.51,-84.44"/>
<polygon fill="midnightblue" stroke="midnightblue" points="323.1,-81.21 313.17,-77.5 318.61,-86.59 323.1,-81.21"/>
</g>
<!-- Node22&#45;&gt;Node16 -->
<g id="edge31" class="edge">
<title>Node22&#45;&gt;Node16</title>
<path fill="none" stroke="midnightblue" d="M365.61,-114.63C362.43,-100.72 354.5,-73.64 338.38,-57 328.44,-46.74 295.39,-32.24 270.83,-22.39"/>
<polygon fill="midnightblue" stroke="midnightblue" points="272.5,-18.89 261.91,-18.48 269.93,-25.4 272.5,-18.89"/>
</g>
<!-- Node22&#45;&gt;Node17 -->
<g id="edge34" class="edge">
<title>Node22&#45;&gt;Node17</title>
<path fill="none" stroke="midnightblue" d="M370.67,-114.7C375.09,-101.35 381.29,-75.57 371.38,-57 363.84,-42.88 349.76,-32.38 336.37,-25.04"/>
<polygon fill="midnightblue" stroke="midnightblue" points="338.34,-21.62 327.84,-20.26 335.2,-27.87 338.34,-21.62"/>
</g>
<!-- Node22&#45;&gt;Node18 -->
<g id="edge33" class="edge">
<title>Node22&#45;&gt;Node18</title>
<path fill="none" stroke="midnightblue" d="M338.54,-114.54C308.14,-105.09 260.14,-90.18 227.06,-79.9"/>
<polygon fill="midnightblue" stroke="midnightblue" points="228.47,-76.36 217.88,-76.74 226.39,-83.05 228.47,-76.36"/>
</g>
<!-- Node24 -->
<g id="node24" class="node">
<title>Node24</title>
<g id="a_node24"><a xlink:href="_win_8h.html" target="_top" xlink:title=" ">
<polygon fill="none" stroke="black" points="982.63,-171.5 982.63,-191.5 1024.13,-191.5 1024.13,-171.5 982.63,-171.5"/>
<text text-anchor="middle" x="1003.38" y="-178" font-family="Helvetica,sans-Serif" font-size="10.00">Win.h</text>
</a>
</g>
</g>
<!-- Node23&#45;&gt;Node24 -->
<g id="edge36" class="edge">
<title>Node23&#45;&gt;Node24</title>
<path fill="none" stroke="midnightblue" d="M861.07,-228.54C891.67,-218.64 940.81,-202.74 972.6,-192.46"/>
<polygon fill="midnightblue" stroke="midnightblue" points="973.22,-195.61 981.66,-189.2 971.07,-188.95 973.22,-195.61"/>
</g>
<!-- Node25 -->
<g id="node25" class="node">
<title>Node25</title>
<g id="a_node25"><a xlink:title=" ">
<polygon fill="none" stroke="#bfbfbf" points="969.5,-114.5 969.5,-134.5 1037.25,-134.5 1037.25,-114.5 969.5,-114.5"/>
<text text-anchor="middle" x="1003.38" y="-121" font-family="Helvetica,sans-Serif" font-size="10.00">sdkddkver.h</text>
</a>
</g>
</g>
<!-- Node24&#45;&gt;Node25 -->
<g id="edge37" class="edge">
<title>Node24&#45;&gt;Node25</title>
<path fill="none" stroke="midnightblue" d="M1003.38,-171.91C1003.38,-164.76 1003.38,-154.32 1003.38,-145.15"/>
<polygon fill="midnightblue" stroke="midnightblue" points="1006.88,-145.21 1003.38,-135.21 999.88,-145.21 1006.88,-145.21"/>
</g>
<!-- Node26 -->
<g id="node26" class="node">
<title>Node26</title>
<g id="a_node26"><a xlink:title=" ">
<polygon fill="none" stroke="#bfbfbf" points="1055.38,-114.5 1055.38,-134.5 1119.38,-134.5 1119.38,-114.5 1055.38,-114.5"/>
<text text-anchor="middle" x="1087.38" y="-121" font-family="Helvetica,sans-Serif" font-size="10.00">Windows.h</text>
</a>
</g>
</g>
<!-- Node24&#45;&gt;Node26 -->
<g id="edge38" class="edge">
<title>Node24&#45;&gt;Node26</title>
<path fill="none" stroke="midnightblue" d="M1016.87,-171.66C1029.78,-163.21 1049.48,-150.31 1064.78,-140.3"/>
<polygon fill="midnightblue" stroke="midnightblue" points="1066.18,-142.9 1072.63,-134.5 1062.35,-137.05 1066.18,-142.9"/>
</g>
<!-- Node27&#45;&gt;Node20 -->
<g id="edge43" class="edge">
<title>Node27&#45;&gt;Node20</title>
<path fill="none" stroke="midnightblue" d="M697.01,-228.79C667.03,-219.57 619.53,-204.98 585.89,-194.64"/>
<polygon fill="midnightblue" stroke="midnightblue" points="587.08,-191.04 576.5,-191.45 585.03,-197.73 587.08,-191.04"/>
</g>
<!-- Node27&#45;&gt;Node21 -->
<g id="edge46" class="edge">
<title>Node27&#45;&gt;Node21</title>
<path fill="none" stroke="midnightblue" d="M733.99,-228.92C746.5,-215.41 766.73,-188.87 752.38,-171 730.73,-144.05 629.04,-132.11 577.09,-127.69"/>
<polygon fill="midnightblue" stroke="midnightblue" points="577.46,-124.13 567.21,-126.82 576.9,-131.11 577.46,-124.13"/>
</g>
<!-- Node27&#45;&gt;Node24 -->
<g id="edge40" class="edge">
<title>Node27&#45;&gt;Node24</title>
<path fill="none" stroke="midnightblue" d="M753.82,-231.87C806.27,-221.5 917.83,-199.42 972.24,-188.66"/>
<polygon fill="midnightblue" stroke="midnightblue" points="972.81,-191.92 981.94,-186.54 971.45,-185.05 972.81,-191.92"/>
</g>
<!-- Node28 -->
<g id="node28" class="node">
<title>Node28</title>
<g id="a_node28"><a xlink:href="_colors_8h.html" target="_top" xlink:title=" ">
<polygon fill="none" stroke="black" points="613.38,-171.5 613.38,-191.5 665.38,-191.5 665.38,-171.5 613.38,-171.5"/>
<text text-anchor="middle" x="639.38" y="-178" font-family="Helvetica,sans-Serif" font-size="10.00">Colors.h</text>
</a>
</g>
</g>
<!-- Node27&#45;&gt;Node28 -->
<g id="edge41" class="edge">
<title>Node27&#45;&gt;Node28</title>
<path fill="none" stroke="midnightblue" d="M711.56,-228.66C698.35,-220.21 678.18,-207.31 662.51,-197.3"/>
<polygon fill="midnightblue" stroke="midnightblue" points="664.75,-193.94 654.44,-191.5 660.98,-199.83 664.75,-193.94"/>
</g>
<!-- Node29 -->
<g id="node29" class="node">
<title>Node29</title>
<g id="a_node29"><a xlink:title=" ">
<polygon fill="none" stroke="#bfbfbf" points="799.75,-171.5 799.75,-191.5 851,-191.5 851,-171.5 799.75,-171.5"/>
<text text-anchor="middle" x="825.38" y="-178" font-family="Helvetica,sans-Serif" font-size="10.00">assert.h</text>
</a>
</g>
</g>
<!-- Node27&#45;&gt;Node29 -->
<g id="edge44" class="edge">
<title>Node27&#45;&gt;Node29</title>
<path fill="none" stroke="midnightblue" d="M741.44,-228.66C757.09,-220.05 781.15,-206.83 799.5,-196.73"/>
<polygon fill="midnightblue" stroke="midnightblue" points="800.94,-199.38 808.02,-191.5 797.57,-193.25 800.94,-199.38"/>
</g>
<!-- Node30 -->
<g id="node30" class="node">
<title>Node30</title>
<g id="a_node30"><a xlink:title=" ">
<polygon fill="none" stroke="#bfbfbf" points="868.75,-171.5 868.75,-191.5 920,-191.5 920,-171.5 868.75,-171.5"/>
<text text-anchor="middle" x="894.38" y="-178" font-family="Helvetica,sans-Serif" font-size="10.00">memory</text>
</a>
</g>
</g>
<!-- Node27&#45;&gt;Node30 -->
<g id="edge45" class="edge">
<title>Node27&#45;&gt;Node30</title>
<path fill="none" stroke="midnightblue" d="M752.9,-228.54C781.73,-219.16 827.1,-204.39 858.67,-194.12"/>
<polygon fill="midnightblue" stroke="midnightblue" points="859.37,-197.25 867.8,-190.82 857.2,-190.59 859.37,-197.25"/>
</g>
<!-- Node31 -->
<g id="node31" class="node">
<title>Node31</title>
<g id="a_node31"><a xlink:title=" ">
<polygon fill="none" stroke="#bfbfbf" points="683.25,-171.5 683.25,-191.5 743.5,-191.5 743.5,-171.5 683.25,-171.5"/>
<text text-anchor="middle" x="713.38" y="-178" font-family="Helvetica,sans-Serif" font-size="10.00">filesystem</text>
</a>
</g>
</g>
<!-- Node27&#45;&gt;Node31 -->
<g id="edge47" class="edge">
<title>Node27&#45;&gt;Node31</title>
<path fill="none" stroke="midnightblue" d="M723.5,-228.91C721.92,-221.68 719.61,-211.09 717.6,-201.85"/>
<polygon fill="midnightblue" stroke="midnightblue" points="720.83,-201.24 715.28,-192.21 713.99,-202.73 720.83,-201.24"/>
</g>
<!-- Node28&#45;&gt;Node22 -->
<g id="edge42" class="edge">
<title>Node28&#45;&gt;Node22</title>
<path fill="none" stroke="midnightblue" d="M613.44,-173.23C610.39,-172.44 607.32,-171.68 604.38,-171 546.06,-157.51 479.02,-144.9 431.15,-136.4"/>
<polygon fill="midnightblue" stroke="midnightblue" points="431.78,-132.78 421.33,-134.49 430.57,-139.67 431.78,-132.78"/>
</g>
<!-- Node34&#45;&gt;Node7 -->
<g id="edge55" class="edge">
<title>Node34&#45;&gt;Node7</title>
<path fill="none" stroke="midnightblue" d="M261.63,-228.52C229.79,-209.14 154.38,-163.24 115.88,-139.81"/>
<polygon fill="midnightblue" stroke="midnightblue" points="118.3,-136.57 107.94,-134.36 114.66,-142.55 118.3,-136.57"/>
</g>
<!-- Node34&#45;&gt;Node22 -->
<g id="edge56" class="edge">
<title>Node34&#45;&gt;Node22</title>
<path fill="none" stroke="midnightblue" d="M292.12,-228.57C305.33,-220.43 323.98,-207.36 336.38,-192 347.86,-177.77 356.22,-158.57 361.34,-144.47"/>
<polygon fill="midnightblue" stroke="midnightblue" points="364.85,-146.03 364.75,-135.44 358.22,-143.78 364.85,-146.03"/>
</g>
<!-- Node35 -->
<g id="node35" class="node">
<title>Node35</title>
<g id="a_node35"><a xlink:href="_indexed_triangle_list_8h.html" target="_top" xlink:title=" ">
<polygon fill="none" stroke="black" points="219.63,-171.5 219.63,-191.5 327.13,-191.5 327.13,-171.5 219.63,-171.5"/>
<text text-anchor="middle" x="273.38" y="-178" font-family="Helvetica,sans-Serif" font-size="10.00">IndexedTriangleList.h</text>
</a>
</g>
</g>
<!-- Node34&#45;&gt;Node35 -->
<g id="edge52" class="edge">
<title>Node34&#45;&gt;Node35</title>
<path fill="none" stroke="midnightblue" d="M275.91,-228.91C275.52,-221.76 274.95,-211.32 274.45,-202.15"/>
<polygon fill="midnightblue" stroke="midnightblue" points="277.89,-202.01 273.85,-192.21 270.9,-202.39 277.89,-202.01"/>
</g>
<!-- Node35&#45;&gt;Node22 -->
<g id="edge53" class="edge">
<title>Node35&#45;&gt;Node22</title>
<path fill="none" stroke="midnightblue" d="M288.48,-171.66C303.05,-163.13 325.38,-150.07 342.57,-140.01"/>
<polygon fill="midnightblue" stroke="midnightblue" points="344.13,-142.57 351,-134.5 340.6,-136.53 344.13,-142.57"/>
</g>
<!-- Node36 -->
<g id="node36" class="node">
<title>Node36</title>
<g id="a_node36"><a xlink:title=" ">
<polygon fill="none" stroke="#bfbfbf" points="247.63,-114.5 247.63,-134.5 289.13,-134.5 289.13,-114.5 247.63,-114.5"/>
<text text-anchor="middle" x="268.38" y="-121" font-family="Helvetica,sans-Serif" font-size="10.00">vector</text>
</a>
</g>
</g>
<!-- Node35&#45;&gt;Node36 -->
<g id="edge54" class="edge">
<title>Node35&#45;&gt;Node36</title>
<path fill="none" stroke="midnightblue" d="M272.59,-171.91C271.94,-164.76 271,-154.32 270.16,-145.15"/>
<polygon fill="midnightblue" stroke="midnightblue" points="273.56,-144.86 269.17,-135.21 266.59,-145.49 273.56,-144.86"/>
</g>
<!-- Node37&#45;&gt;Node15 -->
<g id="edge66" class="edge">
<title>Node37&#45;&gt;Node15</title>
<path fill="none" stroke="midnightblue" d="M694.63,-399.57C774.93,-369.9 1014.21,-270.8 929.38,-171 890.79,-125.61 471.34,-83.94 340.27,-71.94"/>
<polygon fill="midnightblue" stroke="midnightblue" points="340.84,-68.39 330.56,-70.97 340.21,-75.36 340.84,-68.39"/>
</g>
<!-- Node37&#45;&gt;Node19 -->
<g id="edge60" class="edge">
<title>Node37&#45;&gt;Node19</title>
<path fill="none" stroke="midnightblue" d="M674.03,-399.54C680.36,-385.98 689.68,-359.94 678.38,-342 666.64,-323.37 644.94,-312.21 625.24,-305.6"/>
<polygon fill="midnightblue" stroke="midnightblue" points="626.47,-302.01 615.88,-302.46 624.44,-308.71 626.47,-302.01"/>
</g>
<!-- Node37&#45;&gt;Node24 -->
<g id="edge59" class="edge">
<title>Node37&#45;&gt;Node24</title>
<path fill="none" stroke="midnightblue" d="M698.44,-407.59C789.98,-404.43 1067.9,-392.46 1094.38,-363 1140.83,-311.31 1060.97,-231.59 1022.41,-198.13"/>
<polygon fill="midnightblue" stroke="midnightblue" points="1025.33,-195.17 1015.44,-191.36 1020.8,-200.5 1025.33,-195.17"/>
</g>
<!-- Node37&#45;&gt;Node35 -->
<g id="edge62" class="edge">
<title>Node37&#45;&gt;Node35</title>
<path fill="none" stroke="midnightblue" d="M640.34,-407.29C597.98,-404.44 517.8,-394.91 458.38,-363 418.13,-341.39 324.88,-239.98 288.4,-199.37"/>
<polygon fill="midnightblue" stroke="midnightblue" points="291.42,-197.38 282.14,-192.27 286.2,-202.05 291.42,-197.38"/>
</g>
<!-- Node38 -->
<g id="node38" class="node">
<title>Node38</title>
<g id="a_node38"><a xlink:href="_triangle_8h.html" target="_top" xlink:title=" ">
<polygon fill="none" stroke="black" points="1027.38,-342.5 1027.38,-362.5 1085.38,-362.5 1085.38,-342.5 1027.38,-342.5"/>
<text text-anchor="middle" x="1056.38" y="-349" font-family="Helvetica,sans-Serif" font-size="10.00">Triangle.h</text>
</a>
</g>
</g>
<!-- Node37&#45;&gt;Node38 -->
<g id="edge61" class="edge">
<title>Node37&#45;&gt;Node38</title>
<path fill="none" stroke="midnightblue" d="M698.51,-405.85C756.94,-400.29 892.73,-386.13 1016.61,-363.14"/>
<polygon fill="midnightblue" stroke="midnightblue" points="1017.23,-366.4 1026.41,-361.11 1015.93,-359.52 1017.23,-366.4"/>
</g>
<!-- Node39 -->
<g id="node39" class="node">
<title>Node39</title>
<g id="a_node39"><a xlink:href="_pube_screen_transformer_8h.html" target="_top" xlink:title=" ">
<polygon fill="none" stroke="black" points="467.13,-342.5 467.13,-362.5 595.63,-362.5 595.63,-342.5 467.13,-342.5"/>
<text text-anchor="middle" x="531.38" y="-349" font-family="Helvetica,sans-Serif" font-size="10.00">PubeScreenTransformer.h</text>
</a>
</g>
</g>
<!-- Node37&#45;&gt;Node39 -->
<g id="edge63" class="edge">
<title>Node37&#45;&gt;Node39</title>
<path fill="none" stroke="midnightblue" d="M646.9,-399.54C624.34,-390.55 589.37,-376.62 563.82,-366.43"/>
<polygon fill="midnightblue" stroke="midnightblue" points="565.43,-362.91 554.84,-362.46 562.84,-369.41 565.43,-362.91"/>
</g>
<!-- Node40 -->
<g id="node40" class="node">
<title>Node40</title>
<g id="a_node40"><a xlink:href="_z_buffer_8h.html" target="_top" xlink:title=" ">
<polygon fill="none" stroke="black" points="955.25,-342.5 955.25,-362.5 1009.5,-362.5 1009.5,-342.5 955.25,-342.5"/>
<text text-anchor="middle" x="982.38" y="-349" font-family="Helvetica,sans-Serif" font-size="10.00">ZBuffer.h</text>
</a>
</g>
</g>
<!-- Node37&#45;&gt;Node40 -->
<g id="edge67" class="edge">
<title>Node37&#45;&gt;Node40</title>
<path fill="none" stroke="midnightblue" d="M698.47,-404.24C748.35,-396.8 853.33,-380.55 941.38,-363 942.52,-362.77 943.69,-362.53 944.86,-362.29"/>
<polygon fill="midnightblue" stroke="midnightblue" points="945.49,-365.52 954.52,-359.97 944.01,-358.68 945.49,-365.52"/>
</g>
<!-- Node42 -->
<g id="node42" class="node">
<title>Node42</title>
<g id="a_node42"><a xlink:title=" ">
<polygon fill="none" stroke="#bfbfbf" points="613.5,-342.5 613.5,-362.5 669.25,-362.5 669.25,-342.5 613.5,-342.5"/>
<text text-anchor="middle" x="641.38" y="-349" font-family="Helvetica,sans-Serif" font-size="10.00">algorithm</text>
</a>
</g>
</g>
<!-- Node37&#45;&gt;Node42 -->
<g id="edge70" class="edge">
<title>Node37&#45;&gt;Node42</title>
<path fill="none" stroke="midnightblue" d="M665,-399.91C661.2,-392.44 655.57,-381.38 650.76,-371.93"/>
<polygon fill="midnightblue" stroke="midnightblue" points="653.47,-370.54 645.81,-363.21 647.23,-373.71 653.47,-370.54"/>
</g>
<!-- Node39&#45;&gt;Node19 -->
<g id="edge64" class="edge">
<title>Node39&#45;&gt;Node19</title>
<path fill="none" stroke="midnightblue" d="M539.5,-342.91C547.01,-334.96 558.38,-322.94 567.66,-313.12"/>
<polygon fill="midnightblue" stroke="midnightblue" points="569.81,-315.89 574.14,-306.21 564.72,-311.08 569.81,-315.89"/>
</g>
<!-- Node39&#45;&gt;Node22 -->
<g id="edge65" class="edge">
<title>Node39&#45;&gt;Node22</title>
<path fill="none" stroke="midnightblue" d="M524,-342.79C504.17,-319.21 448.44,-251.87 407.38,-192 396.44,-176.06 385.21,-157.11 377.44,-143.52"/>
<polygon fill="midnightblue" stroke="midnightblue" points="380.2,-142.3 372.23,-135.32 374.11,-145.74 380.2,-142.3"/>
</g>
<!-- Node40&#45;&gt;Node10 -->
<g id="edge68" class="edge">
<title>Node40&#45;&gt;Node10</title>
<path fill="none" stroke="midnightblue" d="M1002.61,-342.55C1046.67,-321.53 1147.38,-264.51 1147.38,-182.5 1147.38,-182.5 1147.38,-182.5 1147.38,-123.5 1147.38,-67.56 958.66,-29.27 884.13,-16.33"/>
<polygon fill="midnightblue" stroke="midnightblue" points="885.05,-12.77 874.6,-14.54 883.87,-19.67 885.05,-12.77"/>
</g>
<!-- Node41 -->
<g id="node41" class="node">
<title>Node41</title>
<g id="a_node41"><a xlink:title=" ">
<polygon fill="none" stroke="#bfbfbf" points="958.25,-285.5 958.25,-305.5 1006.5,-305.5 1006.5,-285.5 958.25,-285.5"/>
<text text-anchor="middle" x="982.38" y="-292" font-family="Helvetica,sans-Serif" font-size="10.00">cassert</text>
</a>
</g>
</g>
<!-- Node40&#45;&gt;Node41 -->
<g id="edge69" class="edge">
<title>Node40&#45;&gt;Node41</title>
<path fill="none" stroke="midnightblue" d="M982.38,-342.91C982.38,-335.76 982.38,-325.32 982.38,-316.15"/>
<polygon fill="midnightblue" stroke="midnightblue" points="985.88,-316.21 982.38,-306.21 978.88,-316.21 985.88,-316.21"/>
</g>
<!-- Node43&#45;&gt;Node37 -->
<g id="edge72" class="edge">
<title>Node43&#45;&gt;Node37</title>
<path fill="none" stroke="midnightblue" d="M499.44,-456.54C535.18,-446.86 592.1,-431.44 630.09,-421.14"/>
<polygon fill="midnightblue" stroke="midnightblue" points="630.54,-424.38 639.27,-418.38 628.71,-417.62 630.54,-424.38"/>
</g>
</g>
</svg>
