<?xml version="1.0" encoding="UTF-8" standalone="no"?>
<!DOCTYPE svg PUBLIC "-//W3C//DTD SVG 1.1//EN"
 "http://www.w3.org/Graphics/SVG/1.1/DTD/svg11.dtd">
<!-- Generated by graphviz version 8.1.0 (20230707.0739)
 -->
<!-- Title: include/EngineException.h Pages: 1 -->
<svg width="1856pt" height="452pt"
 viewBox="0.00 0.00 1855.99 452.00" xmlns="http://www.w3.org/2000/svg" xmlns:xlink="http://www.w3.org/1999/xlink">
<g id="graph0" class="graph" transform="scale(1 1) rotate(0) translate(4 448)">
<title>include/EngineException.h</title>
<!-- Node1 -->
<g id="node1" class="node">
<title>Node1</title>
<g id="a_node1"><a xlink:title=" ">
<polygon fill="#bfbfbf" stroke="black" points="138.38,-423.5 138.38,-443.5 269.88,-443.5 269.88,-423.5 138.38,-423.5"/>
<text text-anchor="middle" x="204.12" y="-430" font-family="Helvetica,sans-Serif" font-size="10.00">include/EngineException.h</text>
</a>
</g>
</g>
<!-- Node2 -->
<g id="node2" class="node">
<title>Node2</title>
<g id="a_node2"><a xlink:href="_graphics_8h.html" target="_top" xlink:title=" ">
<polygon fill="none" stroke="black" points="246.62,-309.5 246.62,-329.5 343.62,-329.5 343.62,-309.5 246.62,-309.5"/>
<text text-anchor="middle" x="295.12" y="-316" font-family="Helvetica,sans-Serif" font-size="10.00">include/Graphics.h</text>
</a>
</g>
</g>
<!-- Node1&#45;&gt;Node2 -->
<g id="edge1" class="edge">
<title>Node1&#45;&gt;Node2</title>
<path fill="none" stroke="midnightblue" d="M226.45,-417.17C237.2,-409.05 249.75,-398.4 259.12,-387 274.3,-368.54 286.09,-342.72 291.64,-329.33"/>
<polygon fill="midnightblue" stroke="midnightblue" points="224.62,-414.9 218.59,-423.61 228.74,-420.56 224.62,-414.9"/>
</g>
<!-- Node7 -->
<g id="node7" class="node">
<title>Node7</title>
<g id="a_node7"><a xlink:href="_main_window_8h.html" target="_top" xlink:title=" ">
<polygon fill="none" stroke="black" points="57.38,-252.5 57.38,-272.5 170.88,-272.5 170.88,-252.5 57.38,-252.5"/>
<text text-anchor="middle" x="114.12" y="-259" font-family="Helvetica,sans-Serif" font-size="10.00">include/MainWindow.h</text>
</a>
</g>
</g>
<!-- Node1&#45;&gt;Node7 -->
<g id="edge61" class="edge">
<title>Node1&#45;&gt;Node7</title>
<path fill="none" stroke="midnightblue" d="M179.82,-417.37C169.01,-409.51 156.98,-399.04 149.12,-387 124.41,-349.11 116.88,-293.65 114.83,-272.32"/>
<polygon fill="midnightblue" stroke="midnightblue" points="177.64,-420.8 187.87,-423.57 181.6,-415.03 177.64,-420.8"/>
</g>
<!-- Node29 -->
<g id="node29" class="node">
<title>Node29</title>
<g id="a_node29"><a xlink:href="_surface_8h.html" target="_top" xlink:title=" ">
<polygon fill="none" stroke="black" points="158.62,-366.5 158.62,-386.5 249.62,-386.5 249.62,-366.5 158.62,-366.5"/>
<text text-anchor="middle" x="204.12" y="-373" font-family="Helvetica,sans-Serif" font-size="10.00">include/Surface.h</text>
</a>
</g>
</g>
<!-- Node1&#45;&gt;Node29 -->
<g id="edge62" class="edge">
<title>Node1&#45;&gt;Node29</title>
<path fill="none" stroke="midnightblue" d="M204.12,-413C204.12,-403.85 204.12,-393.39 204.12,-386.21"/>
<polygon fill="midnightblue" stroke="midnightblue" points="200.63,-412.91 204.12,-422.91 207.63,-412.91 200.63,-412.91"/>
</g>
<!-- Node3 -->
<g id="node3" class="node">
<title>Node3</title>
<g id="a_node3"><a xlink:href="_engine_8h.html" target="_top" xlink:title=" ">
<polygon fill="none" stroke="black" points="156.12,-63.5 156.12,-83.5 244.12,-83.5 244.12,-63.5 156.12,-63.5"/>
<text text-anchor="middle" x="200.12" y="-70" font-family="Helvetica,sans-Serif" font-size="10.00">include/Engine.h</text>
</a>
</g>
</g>
<!-- Node2&#45;&gt;Node3 -->
<g id="edge2" class="edge">
<title>Node2&#45;&gt;Node3</title>
<path fill="none" stroke="midnightblue" d="M293.91,-298.91C291.83,-273.97 286.32,-229.91 272.12,-195 264.88,-177.19 258.21,-175.37 248.12,-159 231.31,-131.71 213.01,-98.38 204.7,-83.01"/>
<polygon fill="midnightblue" stroke="midnightblue" points="290.49,-299.06 294.7,-308.78 297.47,-298.55 290.49,-299.06"/>
</g>
<!-- Node6 -->
<g id="node6" class="node">
<title>Node6</title>
<g id="a_node6"><a xlink:href="_main_window_8cpp.html" target="_top" xlink:title=" ">
<polygon fill="none" stroke="black" points="90.75,-0.5 90.75,-20.5 197.5,-20.5 197.5,-0.5 90.75,-0.5"/>
<text text-anchor="middle" x="144.12" y="-7" font-family="Helvetica,sans-Serif" font-size="10.00">src/MainWindow.cpp</text>
</a>
</g>
</g>
<!-- Node2&#45;&gt;Node6 -->
<g id="edge60" class="edge">
<title>Node2&#45;&gt;Node6</title>
<path fill="none" stroke="midnightblue" d="M288.46,-299.37C279.29,-274.31 261.37,-229.51 239.12,-195 205.51,-142.85 170.07,-147.65 147.12,-90 137.64,-66.18 140.47,-35.01 142.64,-20.13"/>
<polygon fill="midnightblue" stroke="midnightblue" points="285.48,-300.43 292.14,-308.67 292.07,-298.07 285.48,-300.43"/>
</g>
<!-- Node2&#45;&gt;Node7 -->
<g id="edge6" class="edge">
<title>Node2&#45;&gt;Node7</title>
<path fill="none" stroke="midnightblue" d="M255.22,-306.37C221.49,-296.13 173.96,-281.68 143.6,-272.46"/>
<polygon fill="midnightblue" stroke="midnightblue" points="254.06,-309.98 264.64,-309.54 256.09,-303.28 254.06,-309.98"/>
</g>
<!-- Node8 -->
<g id="node8" class="node">
<title>Node8</title>
<g id="a_node8"><a xlink:href="_graphics_8cpp.html" target="_top" xlink:title=" ">
<polygon fill="none" stroke="black" points="140,-195.5 140,-215.5 230.25,-215.5 230.25,-195.5 140,-195.5"/>
<text text-anchor="middle" x="185.12" y="-202" font-family="Helvetica,sans-Serif" font-size="10.00">src/Graphics.cpp</text>
</a>
</g>
</g>
<!-- Node2&#45;&gt;Node8 -->
<g id="edge59" class="edge">
<title>Node2&#45;&gt;Node8</title>
<path fill="none" stroke="midnightblue" d="M276.36,-302.68C266.51,-294.15 254.39,-283.29 244.12,-273 224.51,-253.33 203.31,-228.44 192.45,-215.4"/>
<polygon fill="midnightblue" stroke="midnightblue" points="273.77,-305.93 283.64,-309.77 278.32,-300.61 273.77,-305.93"/>
</g>
<!-- Node9 -->
<g id="node9" class="node">
<title>Node9</title>
<g id="a_node9"><a xlink:href="_pipeline_8h.html" target="_top" xlink:title=" ">
<polygon fill="none" stroke="black" points="814.88,-195.5 814.88,-215.5 907.38,-215.5 907.38,-195.5 814.88,-195.5"/>
<text text-anchor="middle" x="861.12" y="-202" font-family="Helvetica,sans-Serif" font-size="10.00">include/Pipeline.h</text>
</a>
</g>
</g>
<!-- Node2&#45;&gt;Node9 -->
<g id="edge11" class="edge">
<title>Node2&#45;&gt;Node9</title>
<path fill="none" stroke="midnightblue" d="M354.35,-318.34C437.56,-316.73 593.12,-308.65 720.12,-273 768.85,-259.32 821.63,-230.14 846.54,-215.41"/>
<polygon fill="midnightblue" stroke="midnightblue" points="354.53,-314.85 344.59,-318.52 354.65,-321.85 354.53,-314.85"/>
</g>
<!-- Node27 -->
<g id="node27" class="node">
<title>Node27</title>
<g id="a_node27"><a xlink:href="_pube_screen_transformer_8h.html" target="_top" xlink:title=" ">
<polygon fill="none" stroke="black" points="549,-252.5 549,-272.5 711.25,-272.5 711.25,-252.5 549,-252.5"/>
<text text-anchor="middle" x="630.12" y="-259" font-family="Helvetica,sans-Serif" font-size="10.00">include/PubeScreenTransformer.h</text>
</a>
</g>
</g>
<!-- Node2&#45;&gt;Node27 -->
<g id="edge46" class="edge">
<title>Node2&#45;&gt;Node27</title>
<path fill="none" stroke="midnightblue" d="M353.96,-308.84C416.46,-298.58 514.49,-282.49 575.39,-272.49"/>
<polygon fill="midnightblue" stroke="midnightblue" points="353.78,-305.49 344.48,-310.56 354.91,-312.39 353.78,-305.49"/>
</g>
<!-- Node28 -->
<g id="node28" class="node">
<title>Node28</title>
<g id="a_node28"><a xlink:href="_scene_8h.html" target="_top" xlink:title=" ">
<polygon fill="none" stroke="black" points="1004.25,-132.5 1004.25,-152.5 1090,-152.5 1090,-132.5 1004.25,-132.5"/>
<text text-anchor="middle" x="1047.12" y="-139" font-family="Helvetica,sans-Serif" font-size="10.00">include/Scene.h</text>
</a>
</g>
</g>
<!-- Node2&#45;&gt;Node28 -->
<g id="edge48" class="edge">
<title>Node2&#45;&gt;Node28</title>
<path fill="none" stroke="midnightblue" d="M336.33,-306.59C384.87,-292.72 468.05,-269.49 540.12,-252 657.62,-223.49 687.62,-218.98 806.12,-195 889.94,-178.04 912.04,-179.24 995.12,-159 1002.9,-157.1 1011.25,-154.76 1018.93,-152.47"/>
<polygon fill="midnightblue" stroke="midnightblue" points="335.58,-303.45 326.93,-309.57 337.5,-310.18 335.58,-303.45"/>
</g>
<!-- Node4 -->
<g id="node4" class="node">
<title>Node4</title>
<g id="a_node4"><a xlink:href="_engine_8cpp.html" target="_top" xlink:title=" ">
<polygon fill="none" stroke="black" points="864.5,-0.5 864.5,-20.5 945.75,-20.5 945.75,-0.5 864.5,-0.5"/>
<text text-anchor="middle" x="905.12" y="-7" font-family="Helvetica,sans-Serif" font-size="10.00">src/Engine.cpp</text>
</a>
</g>
</g>
<!-- Node3&#45;&gt;Node4 -->
<g id="edge3" class="edge">
<title>Node3&#45;&gt;Node4</title>
<path fill="none" stroke="midnightblue" d="M240,-60.78C246.03,-59.31 252.21,-57.99 258.12,-57 485.25,-19.02 762.37,-12.69 864.68,-11.67"/>
<polygon fill="midnightblue" stroke="midnightblue" points="239.2,-57.63 230.39,-63.51 240.95,-64.4 239.2,-57.63"/>
</g>
<!-- Node5 -->
<g id="node5" class="node">
<title>Node5</title>
<g id="a_node5"><a xlink:href="_main_8cpp.html" target="_top" xlink:title=" ">
<polygon fill="none" stroke="black" points="0,-0.5 0,-20.5 72.25,-20.5 72.25,-0.5 0,-0.5"/>
<text text-anchor="middle" x="36.12" y="-7" font-family="Helvetica,sans-Serif" font-size="10.00">src/Main.cpp</text>
</a>
</g>
</g>
<!-- Node3&#45;&gt;Node5 -->
<g id="edge4" class="edge">
<title>Node3&#45;&gt;Node5</title>
<path fill="none" stroke="midnightblue" d="M166.17,-59.87C134.57,-48.12 88.25,-30.89 60.27,-20.48"/>
<polygon fill="midnightblue" stroke="midnightblue" points="164.69,-63.42 175.28,-63.63 167.13,-56.86 164.69,-63.42"/>
</g>
<!-- Node3&#45;&gt;Node6 -->
<g id="edge5" class="edge">
<title>Node3&#45;&gt;Node6</title>
<path fill="none" stroke="midnightblue" d="M184.75,-55.76C174.2,-44.26 160.61,-29.46 152.13,-20.22"/>
<polygon fill="midnightblue" stroke="midnightblue" points="181.76,-57.76 191.1,-62.76 186.92,-53.03 181.76,-57.76"/>
</g>
<!-- Node7&#45;&gt;Node4 -->
<g id="edge7" class="edge">
<title>Node7&#45;&gt;Node4</title>
<path fill="none" stroke="midnightblue" d="M115.87,-241.8C117.86,-227.84 122.1,-209.14 131.12,-195 137.65,-184.78 288.87,-61.5 300.12,-57 403.2,-15.84 746.59,-11.61 864.76,-11.4"/>
<polygon fill="midnightblue" stroke="midnightblue" points="112.29,-241.29 114.64,-251.63 119.25,-242.08 112.29,-241.29"/>
</g>
<!-- Node7&#45;&gt;Node5 -->
<g id="edge9" class="edge">
<title>Node7&#45;&gt;Node5</title>
<path fill="none" stroke="midnightblue" d="M103.76,-243.13C99.45,-234.99 94.64,-225.2 91.12,-216 63.01,-142.52 43.47,-48.99 37.81,-20.27"/>
<polygon fill="midnightblue" stroke="midnightblue" points="101.11,-244.59 108.98,-251.68 107.25,-241.23 101.11,-244.59"/>
</g>
<!-- Node7&#45;&gt;Node6 -->
<g id="edge10" class="edge">
<title>Node7&#45;&gt;Node6</title>
<path fill="none" stroke="midnightblue" d="M105.85,-242.57C102.78,-234.54 99.66,-224.98 98.12,-216 90.01,-168.46 82.85,-142.91 114.12,-57 119.24,-42.95 129.47,-28.91 136.55,-20.22"/>
<polygon fill="midnightblue" stroke="midnightblue" points="102.97,-243.76 110.01,-251.68 109.45,-241.1 102.97,-243.76"/>
</g>
<!-- Node7&#45;&gt;Node8 -->
<g id="edge8" class="edge">
<title>Node7&#45;&gt;Node8</title>
<path fill="none" stroke="midnightblue" d="M134.08,-246.04C146.8,-236.18 162.84,-223.76 173.51,-215.5"/>
<polygon fill="midnightblue" stroke="midnightblue" points="132.29,-243.77 126.53,-252.66 136.58,-249.31 132.29,-243.77"/>
</g>
<!-- Node10 -->
<g id="node10" class="node">
<title>Node10</title>
<g id="a_node10"><a xlink:href="_geometry_flat_effect_8h.html" target="_top" xlink:title=" ">
<polygon fill="none" stroke="black" points="656.38,-126.5 656.38,-158.5 781.88,-158.5 781.88,-126.5 656.38,-126.5"/>
<text text-anchor="start" x="664.38" y="-145" font-family="Helvetica,sans-Serif" font-size="10.00">include/Effects/Geometry</text>
<text text-anchor="middle" x="719.12" y="-133" font-family="Helvetica,sans-Serif" font-size="10.00">FlatEffect.h</text>
</a>
</g>
</g>
<!-- Node9&#45;&gt;Node10 -->
<g id="edge12" class="edge">
<title>Node9&#45;&gt;Node10</title>
<path fill="none" stroke="midnightblue" d="M830.44,-191.32C807.9,-181.63 777.25,-168.47 753.81,-158.4"/>
<polygon fill="midnightblue" stroke="midnightblue" points="828.91,-194.9 839.48,-195.63 831.67,-188.47 828.91,-194.9"/>
</g>
<!-- Node11 -->
<g id="node11" class="node">
<title>Node11</title>
<g id="a_node11"><a xlink:href="_geometry_flat_scene_8h.html" target="_top" xlink:title=" ">
<polygon fill="none" stroke="black" points="674.62,-57.5 674.62,-89.5 819.62,-89.5 819.62,-57.5 674.62,-57.5"/>
<text text-anchor="start" x="682.62" y="-76" font-family="Helvetica,sans-Serif" font-size="10.00">include/Scenes/GeometryFlat</text>
<text text-anchor="middle" x="747.12" y="-64" font-family="Helvetica,sans-Serif" font-size="10.00">Scene.h</text>
</a>
</g>
</g>
<!-- Node9&#45;&gt;Node11 -->
<g id="edge45" class="edge">
<title>Node9&#45;&gt;Node11</title>
<path fill="none" stroke="midnightblue" d="M804.63,-200.37C748.03,-194.93 666.61,-183.06 647.12,-159 637.9,-147.6 639.49,-138.52 647.12,-126 657.55,-108.91 675.65,-97.25 693.62,-89.41"/>
<polygon fill="midnightblue" stroke="midnightblue" points="803.96,-203.92 814.24,-201.35 804.6,-196.95 803.96,-203.92"/>
</g>
<!-- Node12 -->
<g id="node12" class="node">
<title>Node12</title>
<g id="a_node12"><a xlink:href="_solid_effect_8h.html" target="_top" xlink:title=" ">
<polygon fill="none" stroke="black" points="1146.38,-132.5 1146.38,-152.5 1283.88,-152.5 1283.88,-132.5 1146.38,-132.5"/>
<text text-anchor="middle" x="1215.12" y="-139" font-family="Helvetica,sans-Serif" font-size="10.00">include/Effects/SolidEffect.h</text>
</a>
</g>
</g>
<!-- Node9&#45;&gt;Node12 -->
<g id="edge15" class="edge">
<title>Node9&#45;&gt;Node12</title>
<path fill="none" stroke="midnightblue" d="M917.75,-195.3C972.61,-186.32 1058.14,-172.12 1132.12,-159 1143.82,-156.93 1156.42,-154.61 1168.18,-152.42"/>
<polygon fill="midnightblue" stroke="midnightblue" points="917.51,-191.96 908.2,-197.03 918.64,-198.87 917.51,-191.96"/>
</g>
<!-- Node13 -->
<g id="node13" class="node">
<title>Node13</title>
<g id="a_node13"><a xlink:href="_cube_solid_scene_8h.html" target="_top" xlink:title=" ">
<polygon fill="none" stroke="black" points="988.12,-57.5 988.12,-89.5 1118.12,-89.5 1118.12,-57.5 988.12,-57.5"/>
<text text-anchor="start" x="996.12" y="-76" font-family="Helvetica,sans-Serif" font-size="10.00">include/Scenes/CubeSolid</text>
<text text-anchor="middle" x="1053.12" y="-64" font-family="Helvetica,sans-Serif" font-size="10.00">Scene.h</text>
</a>
</g>
</g>
<!-- Node9&#45;&gt;Node13 -->
<g id="edge41" class="edge">
<title>Node9&#45;&gt;Node13</title>
<path fill="none" stroke="midnightblue" d="M918.27,-201.71C981.24,-197.31 1076.62,-186.22 1099.12,-159 1117.22,-137.12 1091,-107.03 1071.34,-89.29"/>
<polygon fill="midnightblue" stroke="midnightblue" points="918.05,-198.29 908.3,-202.44 918.51,-205.27 918.05,-198.29"/>
</g>
<!-- Node14 -->
<g id="node14" class="node">
<title>Node14</title>
<g id="a_node14"><a xlink:href="_double_cube_scene_8h.html" target="_top" xlink:title=" ">
<polygon fill="none" stroke="black" points="1136,-57.5 1136,-89.5 1274.25,-89.5 1274.25,-57.5 1136,-57.5"/>
<text text-anchor="start" x="1144" y="-76" font-family="Helvetica,sans-Serif" font-size="10.00">include/Scenes/DoubleCube</text>
<text text-anchor="middle" x="1205.12" y="-64" font-family="Helvetica,sans-Serif" font-size="10.00">Scene.h</text>
</a>
</g>
</g>
<!-- Node9&#45;&gt;Node14 -->
<g id="edge44" class="edge">
<title>Node9&#45;&gt;Node14</title>
<path fill="none" stroke="midnightblue" d="M917.99,-202.67C1029.55,-198.48 1268.47,-186.39 1293.12,-159 1302.94,-148.1 1300.42,-138.72 1293.12,-126 1283.53,-109.26 1266.15,-97.44 1249.36,-89.38"/>
<polygon fill="midnightblue" stroke="midnightblue" points="918.14,-199.2 908.28,-203.06 918.4,-206.19 918.14,-199.2"/>
</g>
<!-- Node15 -->
<g id="node15" class="node">
<title>Node15</title>
<g id="a_node15"><a xlink:href="_solid_geometry_effect_8h.html" target="_top" xlink:title=" ">
<polygon fill="none" stroke="black" points="838.5,-126.5 838.5,-158.5 985.75,-158.5 985.75,-126.5 838.5,-126.5"/>
<text text-anchor="start" x="846.5" y="-145" font-family="Helvetica,sans-Serif" font-size="10.00">include/Effects/SolidGeometry</text>
<text text-anchor="middle" x="912.12" y="-133" font-family="Helvetica,sans-Serif" font-size="10.00">Effect.h</text>
</a>
</g>
</g>
<!-- Node9&#45;&gt;Node15 -->
<g id="edge20" class="edge">
<title>Node9&#45;&gt;Node15</title>
<path fill="none" stroke="midnightblue" d="M875.38,-187.45C883.03,-178.3 892.36,-167.14 899.71,-158.35"/>
<polygon fill="midnightblue" stroke="midnightblue" points="872.16,-184.84 868.43,-194.76 877.53,-189.33 872.16,-184.84"/>
</g>
<!-- Node16 -->
<g id="node16" class="node">
<title>Node16</title>
<g id="a_node16"><a xlink:href="_cube_solid_geometry_scene_8h.html" target="_top" xlink:title=" ">
<polygon fill="none" stroke="black" points="840.12,-57.5 840.12,-89.5 970.12,-89.5 970.12,-57.5 840.12,-57.5"/>
<text text-anchor="start" x="848.12" y="-76" font-family="Helvetica,sans-Serif" font-size="10.00">include/Scenes/CubeSolid</text>
<text text-anchor="middle" x="905.12" y="-64" font-family="Helvetica,sans-Serif" font-size="10.00">GeometryScene.h</text>
</a>
</g>
</g>
<!-- Node9&#45;&gt;Node16 -->
<g id="edge40" class="edge">
<title>Node9&#45;&gt;Node16</title>
<path fill="none" stroke="midnightblue" d="M845.6,-187.5C832.78,-171.29 818.3,-146.41 829.12,-126 837.71,-109.81 853.92,-97.77 869.17,-89.42"/>
<polygon fill="midnightblue" stroke="midnightblue" points="843.25,-189.15 852.38,-194.53 848.6,-184.63 843.25,-189.15"/>
</g>
<!-- Node17 -->
<g id="node17" class="node">
<title>Node17</title>
<g id="a_node17"><a xlink:href="_texture_effect_8h.html" target="_top" xlink:title=" ">
<polygon fill="none" stroke="black" points="1340.12,-132.5 1340.12,-152.5 1488.12,-152.5 1488.12,-132.5 1340.12,-132.5"/>
<text text-anchor="middle" x="1414.12" y="-139" font-family="Helvetica,sans-Serif" font-size="10.00">include/Effects/TextureEffect.h</text>
</a>
</g>
</g>
<!-- Node9&#45;&gt;Node17 -->
<g id="edge23" class="edge">
<title>Node9&#45;&gt;Node17</title>
<path fill="none" stroke="midnightblue" d="M917.91,-200.36C1005.69,-193.64 1179.5,-179.06 1326.12,-159 1339.5,-157.17 1353.94,-154.79 1367.19,-152.45"/>
<polygon fill="midnightblue" stroke="midnightblue" points="917.84,-196.93 908.13,-201.18 918.37,-203.91 917.84,-196.93"/>
</g>
<!-- Node18 -->
<g id="node18" class="node">
<title>Node18</title>
<g id="a_node18"><a xlink:href="_cube_skin_scene_8h.html" target="_top" xlink:title=" ">
<polygon fill="none" stroke="black" points="1292.25,-63.5 1292.25,-83.5 1456,-83.5 1456,-63.5 1292.25,-63.5"/>
<text text-anchor="middle" x="1374.12" y="-70" font-family="Helvetica,sans-Serif" font-size="10.00">include/Scenes/CubeSkinScene.h</text>
</a>
</g>
</g>
<!-- Node9&#45;&gt;Node18 -->
<g id="edge39" class="edge">
<title>Node9&#45;&gt;Node18</title>
<path fill="none" stroke="midnightblue" d="M917.67,-204.75C1066.09,-204.8 1458.08,-200.94 1497.12,-159 1528.9,-124.87 1455.18,-96.96 1408.61,-83.4"/>
<polygon fill="midnightblue" stroke="midnightblue" points="918,-201.24 907.99,-204.73 917.99,-208.24 918,-201.24"/>
</g>
<!-- Node19 -->
<g id="node19" class="node">
<title>Node19</title>
<g id="a_node19"><a xlink:href="_vertex_color_effect_8h.html" target="_top" xlink:title=" ">
<polygon fill="none" stroke="black" points="1698.25,-126.5 1698.25,-158.5 1832,-158.5 1832,-126.5 1698.25,-126.5"/>
<text text-anchor="start" x="1706.25" y="-145" font-family="Helvetica,sans-Serif" font-size="10.00">include/Effects/VertexColor</text>
<text text-anchor="middle" x="1765.12" y="-133" font-family="Helvetica,sans-Serif" font-size="10.00">Effect.h</text>
</a>
</g>
</g>
<!-- Node9&#45;&gt;Node19 -->
<g id="edge26" class="edge">
<title>Node9&#45;&gt;Node19</title>
<path fill="none" stroke="midnightblue" d="M917.95,-204.23C1052.51,-202.98 1400.94,-196.1 1689.12,-159 1692.2,-158.6 1695.33,-158.15 1698.49,-157.66"/>
<polygon fill="midnightblue" stroke="midnightblue" points="918.09,-200.74 908.12,-204.33 918.15,-207.74 918.09,-200.74"/>
</g>
<!-- Node20 -->
<g id="node20" class="node">
<title>Node20</title>
<g id="a_node20"><a xlink:href="_cube_vertex_color_scene_8h.html" target="_top" xlink:title=" ">
<polygon fill="none" stroke="black" points="1666.75,-57.5 1666.75,-89.5 1803.5,-89.5 1803.5,-57.5 1666.75,-57.5"/>
<text text-anchor="start" x="1674.75" y="-76" font-family="Helvetica,sans-Serif" font-size="10.00">include/Scenes/CubeVertex</text>
<text text-anchor="middle" x="1735.12" y="-64" font-family="Helvetica,sans-Serif" font-size="10.00">ColorScene.h</text>
</a>
</g>
</g>
<!-- Node9&#45;&gt;Node20 -->
<g id="edge42" class="edge">
<title>Node9&#45;&gt;Node20</title>
<path fill="none" stroke="midnightblue" d="M918.1,-204C1122.57,-201.94 1809.11,-192.53 1841.12,-159 1851.25,-148.39 1848.91,-138.43 1841.12,-126 1830.38,-108.83 1812.09,-97.24 1793.7,-89.48"/>
<polygon fill="midnightblue" stroke="midnightblue" points="918.27,-200.51 908.31,-204.11 918.34,-207.51 918.27,-200.51"/>
</g>
<!-- Node21 -->
<g id="node21" class="node">
<title>Node21</title>
<g id="a_node21"><a xlink:href="_vertex_flat_effect_8h.html" target="_top" xlink:title=" ">
<polygon fill="none" stroke="black" points="270.25,-126.5 270.25,-158.5 398,-158.5 398,-126.5 270.25,-126.5"/>
<text text-anchor="start" x="278.25" y="-145" font-family="Helvetica,sans-Serif" font-size="10.00">include/Effects/VertexFlat</text>
<text text-anchor="middle" x="334.12" y="-133" font-family="Helvetica,sans-Serif" font-size="10.00">Effect.h</text>
</a>
</g>
</g>
<!-- Node9&#45;&gt;Node21 -->
<g id="edge29" class="edge">
<title>Node9&#45;&gt;Node21</title>
<path fill="none" stroke="midnightblue" d="M804.3,-200.48C718.87,-194.06 552.43,-180 412.12,-159 407.48,-158.31 402.7,-157.52 397.89,-156.68"/>
<polygon fill="midnightblue" stroke="midnightblue" points="803.82,-204.03 814.05,-201.29 804.34,-197.05 803.82,-204.03"/>
</g>
<!-- Node22 -->
<g id="node22" class="node">
<title>Node22</title>
<g id="a_node22"><a xlink:href="_cube_flat_independent_scene_8h.html" target="_top" xlink:title=" ">
<polygon fill="none" stroke="black" points="309.5,-57.5 309.5,-89.5 486.75,-89.5 486.75,-57.5 309.5,-57.5"/>
<text text-anchor="start" x="317.5" y="-76" font-family="Helvetica,sans-Serif" font-size="10.00">include/Scenes/CubeFlatIndependent</text>
<text text-anchor="middle" x="398.12" y="-64" font-family="Helvetica,sans-Serif" font-size="10.00">Scene.h</text>
</a>
</g>
</g>
<!-- Node9&#45;&gt;Node22 -->
<g id="edge38" class="edge">
<title>Node9&#45;&gt;Node22</title>
<path fill="none" stroke="midnightblue" d="M804.34,-204.48C661.79,-203.84 297.59,-198.34 261.12,-159 232.15,-127.75 286.31,-103.74 334.84,-89.44"/>
<polygon fill="midnightblue" stroke="midnightblue" points="804.01,-207.98 814.02,-204.52 804.03,-200.98 804.01,-207.98"/>
</g>
<!-- Node23 -->
<g id="node23" class="node">
<title>Node23</title>
<g id="a_node23"><a xlink:href="_vertex_position_color_effect_8h.html" target="_top" xlink:title=" ">
<polygon fill="none" stroke="black" points="453.88,-126.5 453.88,-158.5 600.38,-158.5 600.38,-126.5 453.88,-126.5"/>
<text text-anchor="start" x="461.88" y="-145" font-family="Helvetica,sans-Serif" font-size="10.00">include/Effects/VertexPosition</text>
<text text-anchor="middle" x="527.12" y="-133" font-family="Helvetica,sans-Serif" font-size="10.00">ColorEffect.h</text>
</a>
</g>
</g>
<!-- Node9&#45;&gt;Node23 -->
<g id="edge32" class="edge">
<title>Node9&#45;&gt;Node23</title>
<path fill="none" stroke="midnightblue" d="M804.55,-194.17C748.3,-183.89 661.75,-168.09 600.3,-156.86"/>
<polygon fill="midnightblue" stroke="midnightblue" points="803.57,-197.73 814.03,-196.08 804.83,-190.84 803.57,-197.73"/>
</g>
<!-- Node24 -->
<g id="node24" class="node">
<title>Node24</title>
<g id="a_node24"><a xlink:href="_cube_vertex_position_color_scene_8h.html" target="_top" xlink:title=" ">
<polygon fill="none" stroke="black" points="514.75,-57.5 514.75,-89.5 651.5,-89.5 651.5,-57.5 514.75,-57.5"/>
<text text-anchor="start" x="522.75" y="-76" font-family="Helvetica,sans-Serif" font-size="10.00">include/Scenes/CubeVertex</text>
<text text-anchor="middle" x="583.12" y="-64" font-family="Helvetica,sans-Serif" font-size="10.00">PositionColorScene.h</text>
</a>
</g>
</g>
<!-- Node9&#45;&gt;Node24 -->
<g id="edge43" class="edge">
<title>Node9&#45;&gt;Node24</title>
<path fill="none" stroke="midnightblue" d="M804.43,-202.43C696.18,-197.88 468.69,-185.28 445.12,-159 416.71,-127.31 470.26,-103.54 518.71,-89.4"/>
<polygon fill="midnightblue" stroke="midnightblue" points="804.01,-205.95 814.15,-202.87 804.3,-198.96 804.01,-205.95"/>
</g>
<!-- Node25 -->
<g id="node25" class="node">
<title>Node25</title>
<g id="a_node25"><a xlink:href="_wave_vertex_texture_effect_8h.html" target="_top" xlink:title=" ">
<polygon fill="none" stroke="black" points="1544.5,-126.5 1544.5,-158.5 1679.75,-158.5 1679.75,-126.5 1544.5,-126.5"/>
<text text-anchor="start" x="1552.5" y="-145" font-family="Helvetica,sans-Serif" font-size="10.00">include/Effects/WaveVertex</text>
<text text-anchor="middle" x="1612.12" y="-133" font-family="Helvetica,sans-Serif" font-size="10.00">TextureEffect.h</text>
</a>
</g>
</g>
<!-- Node9&#45;&gt;Node25 -->
<g id="edge35" class="edge">
<title>Node9&#45;&gt;Node25</title>
<path fill="none" stroke="midnightblue" d="M917.83,-202.92C1033.42,-199.19 1304.44,-187.9 1530.12,-159 1534.87,-158.39 1539.75,-157.68 1544.66,-156.91"/>
<polygon fill="midnightblue" stroke="midnightblue" points="918.02,-199.44 908.14,-203.26 918.24,-206.44 918.02,-199.44"/>
</g>
<!-- Node10&#45;&gt;Node11 -->
<g id="edge13" class="edge">
<title>Node10&#45;&gt;Node11</title>
<path fill="none" stroke="midnightblue" d="M729.58,-116.49C733.4,-107.35 737.6,-97.3 740.93,-89.33"/>
<polygon fill="midnightblue" stroke="midnightblue" points="725.97,-115.05 725.34,-125.63 732.42,-117.75 725.97,-115.05"/>
</g>
<!-- Node11&#45;&gt;Node4 -->
<g id="edge14" class="edge">
<title>Node11&#45;&gt;Node4</title>
<path fill="none" stroke="midnightblue" d="M796.02,-53.62C824.68,-42.56 859.55,-29.1 882.03,-20.42"/>
<polygon fill="midnightblue" stroke="midnightblue" points="794.84,-50.71 786.78,-57.58 797.37,-57.24 794.84,-50.71"/>
</g>
<!-- Node12&#45;&gt;Node13 -->
<g id="edge16" class="edge">
<title>Node12&#45;&gt;Node13</title>
<path fill="none" stroke="midnightblue" d="M1183.53,-128.43C1156.5,-117.25 1117.6,-101.17 1089.32,-89.47"/>
<polygon fill="midnightblue" stroke="midnightblue" points="1182.03,-132.02 1192.61,-132.6 1184.71,-125.55 1182.03,-132.02"/>
</g>
<!-- Node12&#45;&gt;Node14 -->
<g id="edge18" class="edge">
<title>Node12&#45;&gt;Node14</title>
<path fill="none" stroke="midnightblue" d="M1212.19,-121.86C1210.65,-111.49 1208.78,-98.97 1207.35,-89.41"/>
<polygon fill="midnightblue" stroke="midnightblue" points="1208.88,-122.37 1213.82,-131.74 1215.8,-121.33 1208.88,-122.37"/>
</g>
<!-- Node13&#45;&gt;Node4 -->
<g id="edge17" class="edge">
<title>Node13&#45;&gt;Node4</title>
<path fill="none" stroke="midnightblue" d="M1006.97,-53.48C980.2,-42.44 947.72,-29.06 926.76,-20.42"/>
<polygon fill="midnightblue" stroke="midnightblue" points="1005.34,-57 1015.92,-57.58 1008.01,-50.53 1005.34,-57"/>
</g>
<!-- Node14&#45;&gt;Node4 -->
<g id="edge19" class="edge">
<title>Node14&#45;&gt;Node4</title>
<path fill="none" stroke="midnightblue" d="M1125.69,-56.35C1067.71,-44.56 991.49,-29.06 945.52,-19.71"/>
<polygon fill="midnightblue" stroke="midnightblue" points="1124.8,-59.94 1135.3,-58.51 1126.2,-53.08 1124.8,-59.94"/>
</g>
<!-- Node15&#45;&gt;Node16 -->
<g id="edge21" class="edge">
<title>Node15&#45;&gt;Node16</title>
<path fill="none" stroke="midnightblue" d="M909.45,-115.89C908.51,-106.91 907.49,-97.13 906.67,-89.33"/>
<polygon fill="midnightblue" stroke="midnightblue" points="906.05,-116.05 910.57,-125.63 913.01,-115.32 906.05,-116.05"/>
</g>
<!-- Node16&#45;&gt;Node4 -->
<g id="edge22" class="edge">
<title>Node16&#45;&gt;Node4</title>
<path fill="none" stroke="midnightblue" d="M905.12,-46.77C905.12,-37.31 905.12,-27.24 905.12,-20.28"/>
<polygon fill="midnightblue" stroke="midnightblue" points="901.63,-46.73 905.12,-56.73 908.63,-46.73 901.63,-46.73"/>
</g>
<!-- Node17&#45;&gt;Node18 -->
<g id="edge24" class="edge">
<title>Node17&#45;&gt;Node18</title>
<path fill="none" stroke="midnightblue" d="M1403.33,-123.42C1395.61,-110.49 1385.56,-93.65 1379.48,-83.48"/>
<polygon fill="midnightblue" stroke="midnightblue" points="1400.76,-124.95 1408.9,-131.74 1406.77,-121.36 1400.76,-124.95"/>
</g>
<!-- Node18&#45;&gt;Node4 -->
<g id="edge25" class="edge">
<title>Node18&#45;&gt;Node4</title>
<path fill="none" stroke="midnightblue" d="M1313.34,-61.72C1303.26,-60.06 1292.91,-58.42 1283.12,-57 1160.48,-39.18 1014.71,-23.06 945.49,-15.7"/>
<polygon fill="midnightblue" stroke="midnightblue" points="1312.69,-65.33 1323.13,-63.53 1313.85,-58.43 1312.69,-65.33"/>
</g>
<!-- Node19&#45;&gt;Node20 -->
<g id="edge27" class="edge">
<title>Node19&#45;&gt;Node20</title>
<path fill="none" stroke="midnightblue" d="M1754.06,-116.79C1749.93,-107.57 1745.37,-97.39 1741.76,-89.33"/>
<polygon fill="midnightblue" stroke="midnightblue" points="1751.19,-117.93 1758.47,-125.63 1757.57,-115.07 1751.19,-117.93"/>
</g>
<!-- Node20&#45;&gt;Node4 -->
<g id="edge28" class="edge">
<title>Node20&#45;&gt;Node4</title>
<path fill="none" stroke="midnightblue" d="M1656.12,-61.01C1644.41,-59.53 1632.46,-58.13 1621.12,-57 1364.56,-31.44 1054.77,-17.47 945.58,-13.05"/>
<polygon fill="midnightblue" stroke="midnightblue" points="1655.43,-64.58 1665.8,-62.4 1656.33,-57.64 1655.43,-64.58"/>
</g>
<!-- Node21&#45;&gt;Node22 -->
<g id="edge30" class="edge">
<title>Node21&#45;&gt;Node22</title>
<path fill="none" stroke="midnightblue" d="M355.76,-118.85C365.06,-109.11 375.68,-97.99 383.96,-89.33"/>
<polygon fill="midnightblue" stroke="midnightblue" points="353.71,-115.98 349.33,-125.63 358.77,-120.82 353.71,-115.98"/>
</g>
<!-- Node22&#45;&gt;Node4 -->
<g id="edge31" class="edge">
<title>Node22&#45;&gt;Node4</title>
<path fill="none" stroke="midnightblue" d="M497.33,-58.15C500.29,-57.76 503.23,-57.37 506.12,-57 636.99,-40.15 792.42,-23.35 864.58,-15.73"/>
<polygon fill="midnightblue" stroke="midnightblue" points="496.95,-54.8 487.51,-59.6 497.88,-61.74 496.95,-54.8"/>
</g>
<!-- Node23&#45;&gt;Node24 -->
<g id="edge33" class="edge">
<title>Node23&#45;&gt;Node24</title>
<path fill="none" stroke="midnightblue" d="M546.54,-118.27C554.57,-108.67 563.63,-97.82 570.73,-89.33"/>
<polygon fill="midnightblue" stroke="midnightblue" points="543.28,-115.71 539.55,-125.63 548.65,-120.2 543.28,-115.71"/>
</g>
<!-- Node24&#45;&gt;Node4 -->
<g id="edge34" class="edge">
<title>Node24&#45;&gt;Node4</title>
<path fill="none" stroke="midnightblue" d="M661.91,-57.58C726.13,-45.41 814.22,-28.72 864.86,-19.13"/>
<polygon fill="midnightblue" stroke="midnightblue" points="661.59,-54.26 652.41,-59.56 662.89,-61.14 661.59,-54.26"/>
</g>
<!-- Node26 -->
<g id="node26" class="node">
<title>Node26</title>
<g id="a_node26"><a xlink:href="_vertex_wave_scene_8h.html" target="_top" xlink:title=" ">
<polygon fill="none" stroke="black" points="1474,-57.5 1474,-89.5 1612.25,-89.5 1612.25,-57.5 1474,-57.5"/>
<text text-anchor="start" x="1482" y="-76" font-family="Helvetica,sans-Serif" font-size="10.00">include/Scenes/VertexWave</text>
<text text-anchor="middle" x="1543.12" y="-64" font-family="Helvetica,sans-Serif" font-size="10.00">Scene.h</text>
</a>
</g>
</g>
<!-- Node25&#45;&gt;Node26 -->
<g id="edge36" class="edge">
<title>Node25&#45;&gt;Node26</title>
<path fill="none" stroke="midnightblue" d="M1589.1,-119.15C1579,-109.33 1567.41,-98.08 1558.4,-89.33"/>
<polygon fill="midnightblue" stroke="midnightblue" points="1586.2,-121.18 1595.81,-125.63 1591.08,-116.15 1586.2,-121.18"/>
</g>
<!-- Node26&#45;&gt;Node4 -->
<g id="edge37" class="edge">
<title>Node26&#45;&gt;Node4</title>
<path fill="none" stroke="midnightblue" d="M1463.58,-56.89C1263.51,-29.57 1036.59,-17.33 945.71,-13.19"/>
<polygon fill="midnightblue" stroke="midnightblue" points="1462.91,-60.47 1473.29,-58.38 1463.87,-53.54 1462.91,-60.47"/>
</g>
<!-- Node27&#45;&gt;Node9 -->
<g id="edge47" class="edge">
<title>Node27&#45;&gt;Node9</title>
<path fill="none" stroke="midnightblue" d="M678.29,-250.03C721.46,-239.75 783.92,-224.88 823.51,-215.46"/>
<polygon fill="midnightblue" stroke="midnightblue" points="677.67,-246.82 668.75,-252.54 679.29,-253.63 677.67,-246.82"/>
</g>
<!-- Node28&#45;&gt;Node3 -->
<g id="edge49" class="edge">
<title>Node28&#45;&gt;Node3</title>
<path fill="none" stroke="midnightblue" d="M1010.97,-129.53C1005.7,-128.13 1000.31,-126.89 995.12,-126 690.32,-73.45 607.8,-121.73 300.12,-90 281.6,-88.09 261.27,-85.1 243.81,-82.26"/>
<polygon fill="midnightblue" stroke="midnightblue" points="1009.92,-133.15 1020.49,-132.54 1011.84,-126.42 1009.92,-133.15"/>
</g>
<!-- Node28&#45;&gt;Node11 -->
<g id="edge57" class="edge">
<title>Node28&#45;&gt;Node11</title>
<path fill="none" stroke="midnightblue" d="M1008.39,-129.56C1003.93,-128.3 999.44,-127.09 995.12,-126 936.39,-111.18 869.06,-97.39 819.39,-87.83"/>
<polygon fill="midnightblue" stroke="midnightblue" points="1007.06,-133.11 1017.64,-132.53 1009.01,-126.39 1007.06,-133.11"/>
</g>
<!-- Node28&#45;&gt;Node13 -->
<g id="edge53" class="edge">
<title>Node28&#45;&gt;Node13</title>
<path fill="none" stroke="midnightblue" d="M1048.88,-121.86C1049.81,-111.49 1050.93,-98.97 1051.79,-89.41"/>
<polygon fill="midnightblue" stroke="midnightblue" points="1045.32,-121.47 1047.91,-131.74 1052.29,-122.09 1045.32,-121.47"/>
</g>
<!-- Node28&#45;&gt;Node14 -->
<g id="edge56" class="edge">
<title>Node28&#45;&gt;Node14</title>
<path fill="none" stroke="midnightblue" d="M1077.94,-128.43C1104.3,-117.25 1142.24,-101.17 1169.82,-89.47"/>
<polygon fill="midnightblue" stroke="midnightblue" points="1076.95,-125.48 1069.11,-132.6 1079.68,-131.92 1076.95,-125.48"/>
</g>
<!-- Node28&#45;&gt;Node16 -->
<g id="edge52" class="edge">
<title>Node28&#45;&gt;Node16</title>
<path fill="none" stroke="midnightblue" d="M1018.48,-127.99C994.84,-116.83 961.31,-101.01 936.86,-89.47"/>
<polygon fill="midnightblue" stroke="midnightblue" points="1016.73,-131.5 1027.27,-132.6 1019.72,-125.17 1016.73,-131.5"/>
</g>
<!-- Node28&#45;&gt;Node18 -->
<g id="edge51" class="edge">
<title>Node28&#45;&gt;Node18</title>
<path fill="none" stroke="midnightblue" d="M1100.56,-130.55C1164.64,-117.42 1270.85,-95.66 1330.32,-83.48"/>
<polygon fill="midnightblue" stroke="midnightblue" points="1099.97,-127.3 1090.87,-132.74 1101.37,-134.16 1099.97,-127.3"/>
</g>
<!-- Node28&#45;&gt;Node20 -->
<g id="edge54" class="edge">
<title>Node28&#45;&gt;Node20</title>
<path fill="none" stroke="midnightblue" d="M1100.4,-131.45C1112.44,-129.42 1125.2,-127.47 1137.12,-126 1351.22,-99.66 1406.6,-112.54 1621.12,-90 1635.92,-88.45 1651.76,-86.48 1666.79,-84.48"/>
<polygon fill="midnightblue" stroke="midnightblue" points="1099.84,-128.17 1090.58,-133.32 1101.03,-135.07 1099.84,-128.17"/>
</g>
<!-- Node28&#45;&gt;Node22 -->
<g id="edge50" class="edge">
<title>Node28&#45;&gt;Node22</title>
<path fill="none" stroke="midnightblue" d="M1010.78,-129.59C1005.57,-128.19 1000.24,-126.94 995.12,-126 780.79,-86.64 722.78,-113.49 506.12,-90 499.72,-89.31 493.12,-88.52 486.47,-87.69"/>
<polygon fill="midnightblue" stroke="midnightblue" points="1009.63,-133.18 1020.21,-132.57 1011.56,-126.45 1009.63,-133.18"/>
</g>
<!-- Node28&#45;&gt;Node24 -->
<g id="edge55" class="edge">
<title>Node28&#45;&gt;Node24</title>
<path fill="none" stroke="midnightblue" d="M1009.85,-129.51C1004.93,-128.19 999.93,-126.97 995.12,-126 850.94,-96.87 811.64,-111.52 666.12,-90 661.34,-89.29 656.41,-88.51 651.45,-87.68"/>
<polygon fill="midnightblue" stroke="midnightblue" points="1008.79,-133.13 1019.37,-132.52 1010.72,-126.4 1008.79,-133.13"/>
</g>
<!-- Node28&#45;&gt;Node26 -->
<g id="edge58" class="edge">
<title>Node28&#45;&gt;Node26</title>
<path fill="none" stroke="midnightblue" d="M1100.44,-131.76C1112.48,-129.72 1125.22,-127.68 1137.12,-126 1282.34,-105.55 1320.18,-112.31 1465.12,-90 1468.13,-89.54 1471.19,-89.04 1474.28,-88.52"/>
<polygon fill="midnightblue" stroke="midnightblue" points="1099.88,-128.48 1090.62,-133.63 1101.07,-135.38 1099.88,-128.48"/>
</g>
<!-- Node29&#45;&gt;Node2 -->
<g id="edge63" class="edge">
<title>Node29&#45;&gt;Node2</title>
<path fill="none" stroke="midnightblue" d="M227.83,-361.17C244.4,-351.16 266.03,-338.08 280.24,-329.5"/>
<polygon fill="midnightblue" stroke="midnightblue" points="226.49,-358.5 219.75,-366.66 230.11,-364.49 226.49,-358.5"/>
</g>
<!-- Node30 -->
<g id="node30" class="node">
<title>Node30</title>
<g id="a_node30"><a xlink:href="_surface_8cpp.html" target="_top" xlink:title=" ">
<polygon fill="none" stroke="black" points="144,-309.5 144,-329.5 228.25,-329.5 228.25,-309.5 144,-309.5"/>
<text text-anchor="middle" x="186.12" y="-316" font-family="Helvetica,sans-Serif" font-size="10.00">src/Surface.cpp</text>
</a>
</g>
</g>
<!-- Node29&#45;&gt;Node30 -->
<g id="edge64" class="edge">
<title>Node29&#45;&gt;Node30</title>
<path fill="none" stroke="midnightblue" d="M197.94,-356.62C194.9,-347.32 191.38,-336.56 188.98,-329.21"/>
<polygon fill="midnightblue" stroke="midnightblue" points="194.88,-357.49 201.31,-365.91 201.53,-355.31 194.88,-357.49"/>
</g>
</g>
</svg>
