<?xml version="1.0" encoding="UTF-8" standalone="no"?>
<!DOCTYPE svg PUBLIC "-//W3C//DTD SVG 1.1//EN"
 "http://www.w3.org/Graphics/SVG/1.1/DTD/svg11.dtd">
<!-- Generated by graphviz version 8.1.0 (20230707.0739)
 -->
<!-- Title: include/EngineException.h Pages: 1 -->
<svg width="1026pt" height="452pt"
 viewBox="0.00 0.00 1026.13 452.00" xmlns="http://www.w3.org/2000/svg" xmlns:xlink="http://www.w3.org/1999/xlink">
<g id="graph0" class="graph" transform="scale(1 1) rotate(0) translate(4 448)">
<title>include/EngineException.h</title>
<!-- Node1 -->
<g id="node1" class="node">
<title>Node1</title>
<g id="a_node1"><a xlink:title=" ">
<polygon fill="#bfbfbf" stroke="black" points="792.25,-423.5 792.25,-443.5 923.75,-443.5 923.75,-423.5 792.25,-423.5"/>
<text text-anchor="middle" x="858" y="-430" font-family="Helvetica,sans-Serif" font-size="10.00">include/EngineException.h</text>
</a>
</g>
</g>
<!-- Node2 -->
<g id="node2" class="node">
<title>Node2</title>
<g id="a_node2"><a xlink:href="_graphics_8h.html" target="_top" xlink:title=" ">
<polygon fill="none" stroke="black" points="706.5,-309.5 706.5,-329.5 803.5,-329.5 803.5,-309.5 706.5,-309.5"/>
<text text-anchor="middle" x="755" y="-316" font-family="Helvetica,sans-Serif" font-size="10.00">include/Graphics.h</text>
</a>
</g>
</g>
<!-- Node1&#45;&gt;Node2 -->
<g id="edge1" class="edge">
<title>Node1&#45;&gt;Node2</title>
<path fill="none" stroke="midnightblue" d="M837.56,-417.16C827.01,-408.8 814.24,-397.93 804,-387 786.16,-367.95 768.92,-342.38 760.44,-329.18"/>
<polygon fill="midnightblue" stroke="midnightblue" points="835.09,-420.46 845.14,-423.82 839.38,-414.92 835.09,-420.46"/>
</g>
<!-- Node7 -->
<g id="node7" class="node">
<title>Node7</title>
<g id="a_node7"><a xlink:href="_main_window_8h.html" target="_top" xlink:title=" ">
<polygon fill="none" stroke="black" points="898.25,-252.5 898.25,-272.5 1011.75,-272.5 1011.75,-252.5 898.25,-252.5"/>
<text text-anchor="middle" x="955" y="-259" font-family="Helvetica,sans-Serif" font-size="10.00">include/MainWindow.h</text>
</a>
</g>
</g>
<!-- Node1&#45;&gt;Node7 -->
<g id="edge37" class="edge">
<title>Node1&#45;&gt;Node7</title>
<path fill="none" stroke="midnightblue" d="M881.6,-417.5C892.46,-409.57 904.73,-398.99 913,-387 939.1,-349.15 950.22,-293.67 953.7,-272.32"/>
<polygon fill="midnightblue" stroke="midnightblue" points="879.79,-415.18 873.56,-423.75 883.78,-420.94 879.79,-415.18"/>
</g>
<!-- Node19 -->
<g id="node19" class="node">
<title>Node19</title>
<g id="a_node19"><a xlink:href="_surface_8h.html" target="_top" xlink:title=" ">
<polygon fill="none" stroke="black" points="812.5,-366.5 812.5,-386.5 903.5,-386.5 903.5,-366.5 812.5,-366.5"/>
<text text-anchor="middle" x="858" y="-373" font-family="Helvetica,sans-Serif" font-size="10.00">include/Surface.h</text>
</a>
</g>
</g>
<!-- Node1&#45;&gt;Node19 -->
<g id="edge38" class="edge">
<title>Node1&#45;&gt;Node19</title>
<path fill="none" stroke="midnightblue" d="M858,-413C858,-403.85 858,-393.39 858,-386.21"/>
<polygon fill="midnightblue" stroke="midnightblue" points="854.5,-412.91 858,-422.91 861.5,-412.91 854.5,-412.91"/>
</g>
<!-- Node3 -->
<g id="node3" class="node">
<title>Node3</title>
<g id="a_node3"><a xlink:href="_engine_8h.html" target="_top" xlink:title=" ">
<polygon fill="none" stroke="black" points="699,-195.5 699,-215.5 787,-215.5 787,-195.5 699,-195.5"/>
<text text-anchor="middle" x="743" y="-202" font-family="Helvetica,sans-Serif" font-size="10.00">include/Engine.h</text>
</a>
</g>
</g>
<!-- Node2&#45;&gt;Node3 -->
<g id="edge2" class="edge">
<title>Node2&#45;&gt;Node3</title>
<path fill="none" stroke="midnightblue" d="M752.89,-298.84C750.26,-274.22 745.85,-233.12 743.94,-215.25"/>
<polygon fill="midnightblue" stroke="midnightblue" points="749.51,-299.14 754.06,-308.71 756.47,-298.4 749.51,-299.14"/>
</g>
<!-- Node6 -->
<g id="node6" class="node">
<title>Node6</title>
<g id="a_node6"><a xlink:href="_main_window_8cpp.html" target="_top" xlink:title=" ">
<polygon fill="none" stroke="black" points="781.62,-132.5 781.62,-152.5 888.38,-152.5 888.38,-132.5 781.62,-132.5"/>
<text text-anchor="middle" x="835" y="-139" font-family="Helvetica,sans-Serif" font-size="10.00">src/MainWindow.cpp</text>
</a>
</g>
</g>
<!-- Node2&#45;&gt;Node6 -->
<g id="edge36" class="edge">
<title>Node2&#45;&gt;Node6</title>
<path fill="none" stroke="midnightblue" d="M763.49,-299.94C780.6,-262.51 818.65,-179.27 831.03,-152.19"/>
<polygon fill="midnightblue" stroke="midnightblue" points="760.05,-298.03 759.08,-308.58 766.42,-300.94 760.05,-298.03"/>
</g>
<!-- Node2&#45;&gt;Node7 -->
<g id="edge6" class="edge">
<title>Node2&#45;&gt;Node7</title>
<path fill="none" stroke="midnightblue" d="M798.13,-306.64C835.45,-296.38 888.59,-281.76 922.44,-272.46"/>
<polygon fill="midnightblue" stroke="midnightblue" points="797.29,-303.51 788.58,-309.54 799.15,-310.26 797.29,-303.51"/>
</g>
<!-- Node8 -->
<g id="node8" class="node">
<title>Node8</title>
<g id="a_node8"><a xlink:href="_graphics_8cpp.html" target="_top" xlink:title=" ">
<polygon fill="none" stroke="black" points="842.88,-195.5 842.88,-215.5 933.12,-215.5 933.12,-195.5 842.88,-195.5"/>
<text text-anchor="middle" x="888" y="-202" font-family="Helvetica,sans-Serif" font-size="10.00">src/Graphics.cpp</text>
</a>
</g>
</g>
<!-- Node2&#45;&gt;Node8 -->
<g id="edge35" class="edge">
<title>Node2&#45;&gt;Node8</title>
<path fill="none" stroke="midnightblue" d="M782.2,-304.33C796.78,-296.13 814.64,-285.05 829,-273 850.52,-254.94 871.26,-228.95 881.45,-215.43"/>
<polygon fill="midnightblue" stroke="midnightblue" points="780.8,-301.66 773.71,-309.53 784.17,-307.8 780.8,-301.66"/>
</g>
<!-- Node9 -->
<g id="node9" class="node">
<title>Node9</title>
<g id="a_node9"><a xlink:href="_pipeline_8h.html" target="_top" xlink:title=" ">
<polygon fill="none" stroke="black" points="193.75,-195.5 193.75,-215.5 286.25,-215.5 286.25,-195.5 193.75,-195.5"/>
<text text-anchor="middle" x="240" y="-202" font-family="Helvetica,sans-Serif" font-size="10.00">include/Pipeline.h</text>
</a>
</g>
</g>
<!-- Node2&#45;&gt;Node9 -->
<g id="edge11" class="edge">
<title>Node2&#45;&gt;Node9</title>
<path fill="none" stroke="midnightblue" d="M695.9,-317.96C619.18,-315.82 481.86,-307.02 370,-273 324.64,-259.21 276.18,-230.08 253.36,-215.38"/>
<polygon fill="midnightblue" stroke="midnightblue" points="695.69,-321.48 705.77,-318.23 695.86,-314.49 695.69,-321.48"/>
</g>
<!-- Node17 -->
<g id="node17" class="node">
<title>Node17</title>
<g id="a_node17"><a xlink:href="_pube_screen_transformer_8h.html" target="_top" xlink:title=" ">
<polygon fill="none" stroke="black" points="378.88,-252.5 378.88,-272.5 541.12,-272.5 541.12,-252.5 378.88,-252.5"/>
<text text-anchor="middle" x="460" y="-259" font-family="Helvetica,sans-Serif" font-size="10.00">include/PubeScreenTransformer.h</text>
</a>
</g>
</g>
<!-- Node2&#45;&gt;Node17 -->
<g id="edge27" class="edge">
<title>Node2&#45;&gt;Node17</title>
<path fill="none" stroke="midnightblue" d="M696.28,-307.55C641.07,-297.26 559.45,-282.04 508.03,-272.46"/>
<polygon fill="midnightblue" stroke="midnightblue" points="695.47,-311.15 705.95,-309.54 696.76,-304.27 695.47,-311.15"/>
</g>
<!-- Node18 -->
<g id="node18" class="node">
<title>Node18</title>
<g id="a_node18"><a xlink:href="_scene_8h.html" target="_top" xlink:title=" ">
<polygon fill="none" stroke="black" points="601.12,-252.5 601.12,-272.5 686.88,-272.5 686.88,-252.5 601.12,-252.5"/>
<text text-anchor="middle" x="644" y="-259" font-family="Helvetica,sans-Serif" font-size="10.00">include/Scene.h</text>
</a>
</g>
</g>
<!-- Node2&#45;&gt;Node18 -->
<g id="edge29" class="edge">
<title>Node2&#45;&gt;Node18</title>
<path fill="none" stroke="midnightblue" d="M727.5,-304.87C707.11,-294.77 679.89,-281.28 662.16,-272.5"/>
<polygon fill="midnightblue" stroke="midnightblue" points="725.65,-308.36 736.17,-309.66 728.76,-302.09 725.65,-308.36"/>
</g>
<!-- Node4 -->
<g id="node4" class="node">
<title>Node4</title>
<g id="a_node4"><a xlink:href="_engine_8cpp.html" target="_top" xlink:title=" ">
<polygon fill="none" stroke="black" points="476.38,-0.5 476.38,-20.5 557.62,-20.5 557.62,-0.5 476.38,-0.5"/>
<text text-anchor="middle" x="517" y="-7" font-family="Helvetica,sans-Serif" font-size="10.00">src/Engine.cpp</text>
</a>
</g>
</g>
<!-- Node3&#45;&gt;Node4 -->
<g id="edge3" class="edge">
<title>Node3&#45;&gt;Node4</title>
<path fill="none" stroke="midnightblue" d="M740.16,-184.92C734.43,-152.96 718.43,-89.87 678,-57 643.52,-28.96 592.75,-18.19 557.47,-14.05"/>
<polygon fill="midnightblue" stroke="midnightblue" points="736.82,-185.2 741.87,-194.52 743.73,-184.08 736.82,-185.2"/>
</g>
<!-- Node5 -->
<g id="node5" class="node">
<title>Node5</title>
<g id="a_node5"><a xlink:href="_main_8cpp.html" target="_top" xlink:title=" ">
<polygon fill="none" stroke="black" points="926.88,-132.5 926.88,-152.5 999.12,-152.5 999.12,-132.5 926.88,-132.5"/>
<text text-anchor="middle" x="963" y="-139" font-family="Helvetica,sans-Serif" font-size="10.00">src/Main.cpp</text>
</a>
</g>
</g>
<!-- Node3&#45;&gt;Node5 -->
<g id="edge4" class="edge">
<title>Node3&#45;&gt;Node5</title>
<path fill="none" stroke="midnightblue" d="M785.54,-192.7C827.96,-180.94 892.17,-163.14 930.61,-152.48"/>
<polygon fill="midnightblue" stroke="midnightblue" points="784.69,-189.59 775.99,-195.63 786.56,-196.33 784.69,-189.59"/>
</g>
<!-- Node3&#45;&gt;Node6 -->
<g id="edge5" class="edge">
<title>Node3&#45;&gt;Node6</title>
<path fill="none" stroke="midnightblue" d="M765.19,-189.79C782.77,-178.13 806.76,-162.23 821.54,-152.42"/>
<polygon fill="midnightblue" stroke="midnightblue" points="763.58,-187.32 757.18,-195.76 767.45,-193.15 763.58,-187.32"/>
</g>
<!-- Node7&#45;&gt;Node4 -->
<g id="edge7" class="edge">
<title>Node7&#45;&gt;Node4</title>
<path fill="none" stroke="midnightblue" d="M971.32,-244.85C996.05,-217.59 1037.19,-162.78 1008,-126 951.61,-54.95 664.72,-23.9 557.5,-14.65"/>
<polygon fill="midnightblue" stroke="midnightblue" points="969.27,-241.99 964.98,-251.68 974.37,-246.78 969.27,-241.99"/>
</g>
<!-- Node7&#45;&gt;Node5 -->
<g id="edge9" class="edge">
<title>Node7&#45;&gt;Node5</title>
<path fill="none" stroke="midnightblue" d="M965.19,-243.05C969.08,-235 973.05,-225.29 975,-216 979.77,-193.28 971.69,-166.22 966.63,-152.48"/>
<polygon fill="midnightblue" stroke="midnightblue" points="961.63,-241.32 960.13,-251.8 967.84,-244.54 961.63,-241.32"/>
</g>
<!-- Node7&#45;&gt;Node6 -->
<g id="edge10" class="edge">
<title>Node7&#45;&gt;Node6</title>
<path fill="none" stroke="midnightblue" d="M955.66,-242.08C955.16,-227.7 952.34,-208.38 942,-195 925.05,-173.05 896.38,-159.95 872.97,-152.46"/>
<polygon fill="midnightblue" stroke="midnightblue" points="952.15,-241.74 955.63,-251.74 959.15,-241.75 952.15,-241.74"/>
</g>
<!-- Node7&#45;&gt;Node8 -->
<g id="edge8" class="edge">
<title>Node7&#45;&gt;Node8</title>
<path fill="none" stroke="midnightblue" d="M935.81,-245.75C923.87,-235.94 908.93,-223.68 898.96,-215.5"/>
<polygon fill="midnightblue" stroke="midnightblue" points="933.29,-249.02 943.24,-252.66 937.73,-243.61 933.29,-249.02"/>
</g>
<!-- Node10 -->
<g id="node10" class="node">
<title>Node10</title>
<g id="a_node10"><a xlink:href="_solid_effect_8h.html" target="_top" xlink:title=" ">
<polygon fill="none" stroke="black" points="59.88,-132.5 59.88,-152.5 192.12,-152.5 192.12,-132.5 59.88,-132.5"/>
<text text-anchor="middle" x="126" y="-139" font-family="Helvetica,sans-Serif" font-size="10.00">include/Effect/SolidEffect.h</text>
</a>
</g>
</g>
<!-- Node9&#45;&gt;Node10 -->
<g id="edge12" class="edge">
<title>Node9&#45;&gt;Node10</title>
<path fill="none" stroke="midnightblue" d="M214,-190.59C192.1,-178.87 161.42,-162.45 142.67,-152.42"/>
<polygon fill="midnightblue" stroke="midnightblue" points="212.2,-194.13 222.67,-195.76 215.5,-187.96 212.2,-194.13"/>
</g>
<!-- Node11 -->
<g id="node11" class="node">
<title>Node11</title>
<g id="a_node11"><a xlink:href="_cube_solid_scene_8h.html" target="_top" xlink:title=" ">
<polygon fill="none" stroke="black" points="0,-57.5 0,-89.5 130,-89.5 130,-57.5 0,-57.5"/>
<text text-anchor="start" x="8" y="-76" font-family="Helvetica,sans-Serif" font-size="10.00">include/Scenes/CubeSolid</text>
<text text-anchor="middle" x="65" y="-64" font-family="Helvetica,sans-Serif" font-size="10.00">Scene.h</text>
</a>
</g>
</g>
<!-- Node9&#45;&gt;Node11 -->
<g id="edge24" class="edge">
<title>Node9&#45;&gt;Node11</title>
<path fill="none" stroke="midnightblue" d="M183.52,-198.57C133.95,-192.06 67.3,-179.69 51,-159 35.17,-138.91 46.93,-107.67 56.35,-89.33"/>
<polygon fill="midnightblue" stroke="midnightblue" points="182.77,-202.13 193.13,-199.91 183.64,-195.18 182.77,-202.13"/>
</g>
<!-- Node12 -->
<g id="node12" class="node">
<title>Node12</title>
<g id="a_node12"><a xlink:href="_double_cube_scene_8h.html" target="_top" xlink:title=" ">
<polygon fill="none" stroke="black" points="171.88,-57.5 171.88,-89.5 310.12,-89.5 310.12,-57.5 171.88,-57.5"/>
<text text-anchor="start" x="179.88" y="-76" font-family="Helvetica,sans-Serif" font-size="10.00">include/Scenes/DoubleCube</text>
<text text-anchor="middle" x="241" y="-64" font-family="Helvetica,sans-Serif" font-size="10.00">Scene.h</text>
</a>
</g>
</g>
<!-- Node9&#45;&gt;Node12 -->
<g id="edge26" class="edge">
<title>Node9&#45;&gt;Node12</title>
<path fill="none" stroke="midnightblue" d="M240.15,-184.73C240.35,-158.49 240.71,-112.74 240.89,-89.29"/>
<polygon fill="midnightblue" stroke="midnightblue" points="236.65,-184.54 240.07,-194.56 243.65,-184.59 236.65,-184.54"/>
</g>
<!-- Node13 -->
<g id="node13" class="node">
<title>Node13</title>
<g id="a_node13"><a xlink:href="_texture_effect_8h.html" target="_top" xlink:title=" ">
<polygon fill="none" stroke="black" points="545.62,-132.5 545.62,-152.5 688.38,-152.5 688.38,-132.5 545.62,-132.5"/>
<text text-anchor="middle" x="617" y="-139" font-family="Helvetica,sans-Serif" font-size="10.00">include/Effect/TextureEffect.h</text>
</a>
</g>
</g>
<!-- Node9&#45;&gt;Node13 -->
<g id="edge17" class="edge">
<title>Node9&#45;&gt;Node13</title>
<path fill="none" stroke="midnightblue" d="M296.84,-195.3C368.41,-183.72 490.58,-163.96 561.51,-152.48"/>
<polygon fill="midnightblue" stroke="midnightblue" points="296.54,-191.97 287.23,-197.02 297.66,-198.88 296.54,-191.97"/>
</g>
<!-- Node14 -->
<g id="node14" class="node">
<title>Node14</title>
<g id="a_node14"><a xlink:href="_cube_skin_scene_8h.html" target="_top" xlink:title=" ">
<polygon fill="none" stroke="black" points="505.12,-63.5 505.12,-83.5 668.88,-83.5 668.88,-63.5 505.12,-63.5"/>
<text text-anchor="middle" x="587" y="-70" font-family="Helvetica,sans-Serif" font-size="10.00">include/Scenes/CubeSkinScene.h</text>
</a>
</g>
</g>
<!-- Node9&#45;&gt;Node14 -->
<g id="edge23" class="edge">
<title>Node9&#45;&gt;Node14</title>
<path fill="none" stroke="midnightblue" d="M296.87,-198.93C342.6,-193.01 407.77,-181.31 461,-159 508.13,-139.25 556.19,-100.91 576.7,-83.49"/>
<polygon fill="midnightblue" stroke="midnightblue" points="296.46,-195.57 286.97,-200.27 297.32,-202.52 296.46,-195.57"/>
</g>
<!-- Node15 -->
<g id="node15" class="node">
<title>Node15</title>
<g id="a_node15"><a xlink:href="_vertex_color_effect_8h.html" target="_top" xlink:title=" ">
<polygon fill="none" stroke="black" points="323.75,-126.5 323.75,-158.5 452.25,-158.5 452.25,-126.5 323.75,-126.5"/>
<text text-anchor="start" x="331.75" y="-145" font-family="Helvetica,sans-Serif" font-size="10.00">include/Effect/VertexColor</text>
<text text-anchor="middle" x="388" y="-133" font-family="Helvetica,sans-Serif" font-size="10.00">Effect.h</text>
</a>
</g>
</g>
<!-- Node9&#45;&gt;Node15 -->
<g id="edge20" class="edge">
<title>Node9&#45;&gt;Node15</title>
<path fill="none" stroke="midnightblue" d="M271.67,-191.45C295.19,-181.75 327.31,-168.51 351.84,-158.4"/>
<polygon fill="midnightblue" stroke="midnightblue" points="270.43,-188.58 262.52,-195.63 273.1,-195.06 270.43,-188.58"/>
</g>
<!-- Node16 -->
<g id="node16" class="node">
<title>Node16</title>
<g id="a_node16"><a xlink:href="_cube_vertex_color_scene_8h.html" target="_top" xlink:title=" ">
<polygon fill="none" stroke="black" points="334.62,-57.5 334.62,-89.5 471.38,-89.5 471.38,-57.5 334.62,-57.5"/>
<text text-anchor="start" x="342.62" y="-76" font-family="Helvetica,sans-Serif" font-size="10.00">include/Scenes/CubeVertex</text>
<text text-anchor="middle" x="403" y="-64" font-family="Helvetica,sans-Serif" font-size="10.00">ColorScene.h</text>
</a>
</g>
</g>
<!-- Node9&#45;&gt;Node16 -->
<g id="edge25" class="edge">
<title>Node9&#45;&gt;Node16</title>
<path fill="none" stroke="midnightblue" d="M253.67,-187.65C267.87,-170.79 291.29,-144.74 315,-126 332.92,-111.84 355.12,-98.87 372.74,-89.49"/>
<polygon fill="midnightblue" stroke="midnightblue" points="250.46,-185.03 246.78,-194.97 255.86,-189.49 250.46,-185.03"/>
</g>
<!-- Node10&#45;&gt;Node11 -->
<g id="edge13" class="edge">
<title>Node10&#45;&gt;Node11</title>
<path fill="none" stroke="midnightblue" d="M110.83,-124.84C100.94,-113.97 88.13,-99.91 78.57,-89.41"/>
<polygon fill="midnightblue" stroke="midnightblue" points="107.71,-126.7 117.03,-131.74 112.88,-121.99 107.71,-126.7"/>
</g>
<!-- Node10&#45;&gt;Node12 -->
<g id="edge15" class="edge">
<title>Node10&#45;&gt;Node12</title>
<path fill="none" stroke="midnightblue" d="M150.54,-127.2C169.63,-116.08 196.05,-100.69 215.41,-89.41"/>
<polygon fill="midnightblue" stroke="midnightblue" points="148.91,-124.68 142.03,-132.74 152.44,-130.73 148.91,-124.68"/>
</g>
<!-- Node11&#45;&gt;Node4 -->
<g id="edge14" class="edge">
<title>Node11&#45;&gt;Node4</title>
<path fill="none" stroke="midnightblue" d="M140.5,-60.33C148.1,-59.18 155.7,-58.05 163,-57 276.47,-40.74 410.81,-24.22 476.6,-16.31"/>
<polygon fill="midnightblue" stroke="midnightblue" points="140.15,-57 130.8,-61.98 141.21,-63.92 140.15,-57"/>
</g>
<!-- Node12&#45;&gt;Node4 -->
<g id="edge16" class="edge">
<title>Node12&#45;&gt;Node4</title>
<path fill="none" stroke="midnightblue" d="M319.24,-55.21C370.54,-43.87 435.49,-29.51 476.66,-20.42"/>
<polygon fill="midnightblue" stroke="midnightblue" points="318.53,-52 309.52,-57.58 320.04,-58.84 318.53,-52"/>
</g>
<!-- Node13&#45;&gt;Node14 -->
<g id="edge18" class="edge">
<title>Node13&#45;&gt;Node14</title>
<path fill="none" stroke="midnightblue" d="M608.73,-123.03C602.97,-110.16 595.53,-93.55 591.02,-83.48"/>
<polygon fill="midnightblue" stroke="midnightblue" points="605.8,-124.04 613.08,-131.74 612.19,-121.18 605.8,-124.04"/>
</g>
<!-- Node14&#45;&gt;Node4 -->
<g id="edge19" class="edge">
<title>Node14&#45;&gt;Node4</title>
<path fill="none" stroke="midnightblue" d="M568.94,-56.76C555.6,-45.13 537.92,-29.73 527.01,-20.22"/>
<polygon fill="midnightblue" stroke="midnightblue" points="566.13,-59.83 575.97,-63.76 570.73,-54.55 566.13,-59.83"/>
</g>
<!-- Node15&#45;&gt;Node16 -->
<g id="edge21" class="edge">
<title>Node15&#45;&gt;Node16</title>
<path fill="none" stroke="midnightblue" d="M393.67,-116.19C395.69,-107.13 397.91,-97.21 399.68,-89.33"/>
<polygon fill="midnightblue" stroke="midnightblue" points="390.1,-115.11 391.33,-125.63 396.93,-116.64 390.1,-115.11"/>
</g>
<!-- Node16&#45;&gt;Node4 -->
<g id="edge22" class="edge">
<title>Node16&#45;&gt;Node4</title>
<path fill="none" stroke="midnightblue" d="M440.47,-52.45C460.71,-41.62 484.69,-28.79 500.34,-20.42"/>
<polygon fill="midnightblue" stroke="midnightblue" points="439.05,-49.77 431.89,-57.58 442.36,-55.95 439.05,-49.77"/>
</g>
<!-- Node17&#45;&gt;Node9 -->
<g id="edge28" class="edge">
<title>Node17&#45;&gt;Node9</title>
<path fill="none" stroke="midnightblue" d="M413.61,-249.9C372.51,-239.63 313.37,-224.84 275.82,-215.46"/>
<polygon fill="midnightblue" stroke="midnightblue" points="412.61,-253.51 423.16,-252.54 414.31,-246.72 412.61,-253.51"/>
</g>
<!-- Node18&#45;&gt;Node3 -->
<g id="edge30" class="edge">
<title>Node18&#45;&gt;Node3</title>
<path fill="none" stroke="midnightblue" d="M669.28,-247.45C687.38,-237.4 711.21,-224.16 726.8,-215.5"/>
<polygon fill="midnightblue" stroke="midnightblue" points="667.95,-244.75 660.91,-252.66 671.35,-250.87 667.95,-244.75"/>
</g>
<!-- Node18&#45;&gt;Node11 -->
<g id="edge32" class="edge">
<title>Node18&#45;&gt;Node11</title>
<path fill="none" stroke="midnightblue" d="M590.55,-256.08C577.3,-254.74 563.13,-253.31 550,-252 387.8,-235.8 343.47,-254.18 185,-216 117.68,-199.78 78.99,-216.22 40,-159 25.36,-137.51 41.18,-107.3 53.47,-89.42"/>
<polygon fill="midnightblue" stroke="midnightblue" points="590.12,-259.65 600.42,-257.17 590.82,-252.69 590.12,-259.65"/>
</g>
<!-- Node18&#45;&gt;Node12 -->
<g id="edge34" class="edge">
<title>Node18&#45;&gt;Node12</title>
<path fill="none" stroke="midnightblue" d="M590.87,-254.1C522.48,-242.63 402.11,-215.67 315,-159 286.56,-140.5 262.59,-108.11 250.16,-89.26"/>
<polygon fill="midnightblue" stroke="midnightblue" points="589.95,-257.66 600.39,-255.81 591.08,-250.75 589.95,-257.66"/>
</g>
<!-- Node18&#45;&gt;Node14 -->
<g id="edge31" class="edge">
<title>Node18&#45;&gt;Node14</title>
<path fill="none" stroke="midnightblue" d="M656.52,-243.8C669.58,-224.15 689.22,-190.99 697,-159 700.47,-144.75 704.87,-138.38 697,-126 682.69,-103.49 655.66,-90.65 631.98,-83.42"/>
<polygon fill="midnightblue" stroke="midnightblue" points="653.15,-241.53 650.39,-251.76 658.93,-245.48 653.15,-241.53"/>
</g>
<!-- Node18&#45;&gt;Node16 -->
<g id="edge33" class="edge">
<title>Node18&#45;&gt;Node16</title>
<path fill="none" stroke="midnightblue" d="M624.29,-246.21C578.83,-210.93 467.11,-124.24 422.17,-89.38"/>
<polygon fill="midnightblue" stroke="midnightblue" points="621.65,-249.37 631.7,-252.73 625.94,-243.84 621.65,-249.37"/>
</g>
<!-- Node19&#45;&gt;Node2 -->
<g id="edge39" class="edge">
<title>Node19&#45;&gt;Node2</title>
<path fill="none" stroke="midnightblue" d="M831.96,-361.59C813.1,-351.52 788.15,-338.2 771.85,-329.5"/>
<polygon fill="midnightblue" stroke="midnightblue" points="829.98,-365.04 840.45,-366.66 833.28,-358.87 829.98,-365.04"/>
</g>
<!-- Node20 -->
<g id="node20" class="node">
<title>Node20</title>
<g id="a_node20"><a xlink:href="_surface_8cpp.html" target="_top" xlink:title=" ">
<polygon fill="none" stroke="black" points="821.88,-309.5 821.88,-329.5 906.12,-329.5 906.12,-309.5 821.88,-309.5"/>
<text text-anchor="middle" x="864" y="-316" font-family="Helvetica,sans-Serif" font-size="10.00">src/Surface.cpp</text>
</a>
</g>
</g>
<!-- Node19&#45;&gt;Node20 -->
<g id="edge40" class="edge">
<title>Node19&#45;&gt;Node20</title>
<path fill="none" stroke="midnightblue" d="M860.13,-356C861.13,-346.85 862.27,-336.39 863.05,-329.21"/>
<polygon fill="midnightblue" stroke="midnightblue" points="856.54,-355.59 858.94,-365.91 863.5,-356.34 856.54,-355.59"/>
</g>
</g>
</svg>
