<?xml version="1.0" encoding="UTF-8" standalone="no"?>
<!DOCTYPE svg PUBLIC "-//W3C//DTD SVG 1.1//EN"
 "http://www.w3.org/Graphics/SVG/1.1/DTD/svg11.dtd">
<!-- Generated by graphviz version 8.1.0 (20230707.0739)
 -->
<!-- Title: include/EngineException.h Pages: 1 -->
<svg width="979pt" height="452pt"
 viewBox="0.00 0.00 979.12 452.00" xmlns="http://www.w3.org/2000/svg" xmlns:xlink="http://www.w3.org/1999/xlink">
<g id="graph0" class="graph" transform="scale(1 1) rotate(0) translate(4 448)">
<title>include/EngineException.h</title>
<!-- Node1 -->
<g id="node1" class="node">
<title>Node1</title>
<g id="a_node1"><a xlink:title=" ">
<polygon fill="#bfbfbf" stroke="black" points="756.62,-423.5 756.62,-443.5 888.12,-443.5 888.12,-423.5 756.62,-423.5"/>
<text text-anchor="middle" x="822.38" y="-430" font-family="Helvetica,sans-Serif" font-size="10.00">include/EngineException.h</text>
</a>
</g>
</g>
<!-- Node2 -->
<g id="node2" class="node">
<title>Node2</title>
<g id="a_node2"><a xlink:href="_graphics_8h.html" target="_top" xlink:title=" ">
<polygon fill="none" stroke="black" points="670.88,-309.5 670.88,-329.5 767.88,-329.5 767.88,-309.5 670.88,-309.5"/>
<text text-anchor="middle" x="719.38" y="-316" font-family="Helvetica,sans-Serif" font-size="10.00">include/Graphics.h</text>
</a>
</g>
</g>
<!-- Node1&#45;&gt;Node2 -->
<g id="edge1" class="edge">
<title>Node1&#45;&gt;Node2</title>
<path fill="none" stroke="midnightblue" d="M801.08,-416.95C790.4,-408.65 777.59,-397.92 767.38,-387 749.66,-368.08 732.88,-342.45 724.65,-329.22"/>
<polygon fill="midnightblue" stroke="midnightblue" points="798.72,-420.31 808.8,-423.56 802.95,-414.73 798.72,-420.31"/>
</g>
<!-- Node7 -->
<g id="node7" class="node">
<title>Node7</title>
<g id="a_node7"><a xlink:href="_main_window_8h.html" target="_top" xlink:title=" ">
<polygon fill="none" stroke="black" points="857.62,-252.5 857.62,-272.5 971.12,-272.5 971.12,-252.5 857.62,-252.5"/>
<text text-anchor="middle" x="914.38" y="-259" font-family="Helvetica,sans-Serif" font-size="10.00">include/MainWindow.h</text>
</a>
</g>
</g>
<!-- Node1&#45;&gt;Node7 -->
<g id="edge33" class="edge">
<title>Node1&#45;&gt;Node7</title>
<path fill="none" stroke="midnightblue" d="M845.69,-417.52C856.39,-409.59 868.42,-399.02 876.38,-387 901.5,-349.02 910.67,-293.62 913.39,-272.31"/>
<polygon fill="midnightblue" stroke="midnightblue" points="843.96,-415.16 837.78,-423.77 847.98,-420.89 843.96,-415.16"/>
</g>
<!-- Node18 -->
<g id="node18" class="node">
<title>Node18</title>
<g id="a_node18"><a xlink:href="_surface_8h.html" target="_top" xlink:title=" ">
<polygon fill="none" stroke="black" points="776.88,-366.5 776.88,-386.5 867.88,-386.5 867.88,-366.5 776.88,-366.5"/>
<text text-anchor="middle" x="822.38" y="-373" font-family="Helvetica,sans-Serif" font-size="10.00">include/Surface.h</text>
</a>
</g>
</g>
<!-- Node1&#45;&gt;Node18 -->
<g id="edge34" class="edge">
<title>Node1&#45;&gt;Node18</title>
<path fill="none" stroke="midnightblue" d="M822.38,-413C822.38,-403.85 822.38,-393.39 822.38,-386.21"/>
<polygon fill="midnightblue" stroke="midnightblue" points="818.88,-412.91 822.38,-422.91 825.88,-412.91 818.88,-412.91"/>
</g>
<!-- Node3 -->
<g id="node3" class="node">
<title>Node3</title>
<g id="a_node3"><a xlink:href="_engine_8h.html" target="_top" xlink:title=" ">
<polygon fill="none" stroke="black" points="658.38,-195.5 658.38,-215.5 746.38,-215.5 746.38,-195.5 658.38,-195.5"/>
<text text-anchor="middle" x="702.38" y="-202" font-family="Helvetica,sans-Serif" font-size="10.00">include/Engine.h</text>
</a>
</g>
</g>
<!-- Node2&#45;&gt;Node3 -->
<g id="edge2" class="edge">
<title>Node2&#45;&gt;Node3</title>
<path fill="none" stroke="midnightblue" d="M716.39,-298.84C712.65,-274.22 706.42,-233.12 703.7,-215.25"/>
<polygon fill="midnightblue" stroke="midnightblue" points="713.08,-299.35 718.04,-308.71 720,-298.3 713.08,-299.35"/>
</g>
<!-- Node6 -->
<g id="node6" class="node">
<title>Node6</title>
<g id="a_node6"><a xlink:href="_main_window_8cpp.html" target="_top" xlink:title=" ">
<polygon fill="none" stroke="black" points="721,-132.5 721,-152.5 827.75,-152.5 827.75,-132.5 721,-132.5"/>
<text text-anchor="middle" x="774.38" y="-139" font-family="Helvetica,sans-Serif" font-size="10.00">src/MainWindow.cpp</text>
</a>
</g>
</g>
<!-- Node2&#45;&gt;Node6 -->
<g id="edge32" class="edge">
<title>Node2&#45;&gt;Node6</title>
<path fill="none" stroke="midnightblue" d="M726.62,-299.36C734.25,-278.88 746.38,-245.38 755.38,-216 762.31,-193.36 768.99,-166.26 772.27,-152.5"/>
<polygon fill="midnightblue" stroke="midnightblue" points="723.04,-297.94 722.8,-308.53 729.6,-300.4 723.04,-297.94"/>
</g>
<!-- Node2&#45;&gt;Node7 -->
<g id="edge6" class="edge">
<title>Node2&#45;&gt;Node7</title>
<path fill="none" stroke="midnightblue" d="M761.43,-306.64C797.81,-296.38 849.63,-281.76 882.62,-272.46"/>
<polygon fill="midnightblue" stroke="midnightblue" points="760.81,-303.46 752.14,-309.54 762.71,-310.19 760.81,-303.46"/>
</g>
<!-- Node8 -->
<g id="node8" class="node">
<title>Node8</title>
<g id="a_node8"><a xlink:href="_graphics_8cpp.html" target="_top" xlink:title=" ">
<polygon fill="none" stroke="black" points="802.25,-195.5 802.25,-215.5 892.5,-215.5 892.5,-195.5 802.25,-195.5"/>
<text text-anchor="middle" x="847.38" y="-202" font-family="Helvetica,sans-Serif" font-size="10.00">src/Graphics.cpp</text>
</a>
</g>
</g>
<!-- Node2&#45;&gt;Node8 -->
<g id="edge31" class="edge">
<title>Node2&#45;&gt;Node8</title>
<path fill="none" stroke="midnightblue" d="M744.53,-304.12C758.12,-295.82 774.85,-284.72 788.38,-273 809.6,-254.6 830.47,-228.75 840.76,-215.35"/>
<polygon fill="midnightblue" stroke="midnightblue" points="743.07,-301.52 736.27,-309.64 746.65,-307.53 743.07,-301.52"/>
</g>
<!-- Node9 -->
<g id="node9" class="node">
<title>Node9</title>
<g id="a_node9"><a xlink:href="_pipeline_8h.html" target="_top" xlink:title=" ">
<polygon fill="none" stroke="black" points="273.12,-195.5 273.12,-215.5 365.62,-215.5 365.62,-195.5 273.12,-195.5"/>
<text text-anchor="middle" x="319.38" y="-202" font-family="Helvetica,sans-Serif" font-size="10.00">include/Pipeline.h</text>
</a>
</g>
</g>
<!-- Node2&#45;&gt;Node9 -->
<g id="edge11" class="edge">
<title>Node2&#45;&gt;Node9</title>
<path fill="none" stroke="midnightblue" d="M677.05,-306.65C596.54,-284.11 422.96,-235.5 351.31,-215.44"/>
<polygon fill="midnightblue" stroke="midnightblue" points="675.74,-310.2 686.32,-309.52 677.63,-303.46 675.74,-310.2"/>
</g>
<!-- Node16 -->
<g id="node16" class="node">
<title>Node16</title>
<g id="a_node16"><a xlink:href="_pube_screen_transformer_8h.html" target="_top" xlink:title=" ">
<polygon fill="none" stroke="black" points="257.25,-252.5 257.25,-272.5 419.5,-272.5 419.5,-252.5 257.25,-252.5"/>
<text text-anchor="middle" x="338.38" y="-259" font-family="Helvetica,sans-Serif" font-size="10.00">include/PubeScreenTransformer.h</text>
</a>
</g>
</g>
<!-- Node2&#45;&gt;Node16 -->
<g id="edge24" class="edge">
<title>Node2&#45;&gt;Node16</title>
<path fill="none" stroke="midnightblue" d="M660.65,-310.02C590.13,-299.84 472.38,-282.85 400.42,-272.46"/>
<polygon fill="midnightblue" stroke="midnightblue" points="659.72,-313.57 670.12,-311.53 660.72,-306.64 659.72,-313.57"/>
</g>
<!-- Node17 -->
<g id="node17" class="node">
<title>Node17</title>
<g id="a_node17"><a xlink:href="_scene_8h.html" target="_top" xlink:title=" ">
<polygon fill="none" stroke="black" points="587.5,-252.5 587.5,-272.5 673.25,-272.5 673.25,-252.5 587.5,-252.5"/>
<text text-anchor="middle" x="630.38" y="-259" font-family="Helvetica,sans-Serif" font-size="10.00">include/Scene.h</text>
</a>
</g>
</g>
<!-- Node2&#45;&gt;Node17 -->
<g id="edge26" class="edge">
<title>Node2&#45;&gt;Node17</title>
<path fill="none" stroke="midnightblue" d="M695.74,-303.89C679.59,-293.91 658.7,-281 644.93,-272.5"/>
<polygon fill="midnightblue" stroke="midnightblue" points="693.73,-307.38 704.08,-309.66 697.41,-301.43 693.73,-307.38"/>
</g>
<!-- Node4 -->
<g id="node4" class="node">
<title>Node4</title>
<g id="a_node4"><a xlink:href="_engine_8cpp.html" target="_top" xlink:title=" ">
<polygon fill="none" stroke="black" points="452.75,-0.5 452.75,-20.5 534,-20.5 534,-0.5 452.75,-0.5"/>
<text text-anchor="middle" x="493.38" y="-7" font-family="Helvetica,sans-Serif" font-size="10.00">src/Engine.cpp</text>
</a>
</g>
</g>
<!-- Node3&#45;&gt;Node4 -->
<g id="edge3" class="edge">
<title>Node3&#45;&gt;Node4</title>
<path fill="none" stroke="midnightblue" d="M691.66,-186.51C673.03,-156.46 632.05,-95.54 584.38,-57 564.18,-40.68 537.17,-28.1 517.84,-20.34"/>
<polygon fill="midnightblue" stroke="midnightblue" points="689.1,-188.04 697.29,-194.77 695.08,-184.41 689.1,-188.04"/>
</g>
<!-- Node5 -->
<g id="node5" class="node">
<title>Node5</title>
<g id="a_node5"><a xlink:href="_main_8cpp.html" target="_top" xlink:title=" ">
<polygon fill="none" stroke="black" points="871.25,-132.5 871.25,-152.5 943.5,-152.5 943.5,-132.5 871.25,-132.5"/>
<text text-anchor="middle" x="907.38" y="-139" font-family="Helvetica,sans-Serif" font-size="10.00">src/Main.cpp</text>
</a>
</g>
</g>
<!-- Node3&#45;&gt;Node5 -->
<g id="edge4" class="edge">
<title>Node3&#45;&gt;Node5</title>
<path fill="none" stroke="midnightblue" d="M742.52,-192.55C782.05,-180.79 841.53,-163.09 877.2,-152.48"/>
<polygon fill="midnightblue" stroke="midnightblue" points="741.77,-189.42 733.18,-195.63 743.77,-196.13 741.77,-189.42"/>
</g>
<!-- Node3&#45;&gt;Node6 -->
<g id="edge5" class="edge">
<title>Node3&#45;&gt;Node6</title>
<path fill="none" stroke="midnightblue" d="M720.95,-188.76C734.68,-177.13 752.86,-161.73 764.08,-152.22"/>
<polygon fill="midnightblue" stroke="midnightblue" points="719.06,-186.63 713.69,-195.76 723.58,-191.97 719.06,-186.63"/>
</g>
<!-- Node7&#45;&gt;Node4 -->
<g id="edge7" class="edge">
<title>Node7&#45;&gt;Node4</title>
<path fill="none" stroke="midnightblue" d="M930.65,-244.62C937.37,-236.6 944.48,-226.48 948.38,-216 962.33,-178.47 977.02,-157.55 952.38,-126 900.42,-59.5 636.11,-25.98 533.85,-15.35"/>
<polygon fill="midnightblue" stroke="midnightblue" points="928.49,-241.91 924.43,-251.7 933.71,-246.57 928.49,-241.91"/>
</g>
<!-- Node7&#45;&gt;Node5 -->
<g id="edge9" class="edge">
<title>Node7&#45;&gt;Node5</title>
<path fill="none" stroke="midnightblue" d="M925.39,-243.14C932.01,-229.86 938.42,-211.44 934.38,-195 930.42,-178.92 920.45,-162.31 913.8,-152.44"/>
<polygon fill="midnightblue" stroke="midnightblue" points="921.98,-241.09 920.24,-251.54 928.12,-244.45 921.98,-241.09"/>
</g>
<!-- Node7&#45;&gt;Node6 -->
<g id="edge10" class="edge">
<title>Node7&#45;&gt;Node6</title>
<path fill="none" stroke="midnightblue" d="M915.27,-241.88C914.91,-227.41 912.13,-208.05 901.38,-195 882.76,-172.42 852.72,-159.65 826.52,-152.47"/>
<polygon fill="midnightblue" stroke="midnightblue" points="911.76,-241.6 915.14,-251.64 918.76,-241.69 911.76,-241.6"/>
</g>
<!-- Node7&#45;&gt;Node8 -->
<g id="edge8" class="edge">
<title>Node7&#45;&gt;Node8</title>
<path fill="none" stroke="midnightblue" d="M895.19,-245.75C883.24,-235.94 868.31,-223.68 858.34,-215.5"/>
<polygon fill="midnightblue" stroke="midnightblue" points="892.66,-249.02 902.61,-252.66 897.1,-243.61 892.66,-249.02"/>
</g>
<!-- Node10 -->
<g id="node10" class="node">
<title>Node10</title>
<g id="a_node10"><a xlink:href="_solid_effect_8h.html" target="_top" xlink:title=" ">
<polygon fill="none" stroke="black" points="234.25,-132.5 234.25,-152.5 366.5,-152.5 366.5,-132.5 234.25,-132.5"/>
<text text-anchor="middle" x="300.38" y="-139" font-family="Helvetica,sans-Serif" font-size="10.00">include/Effect/SolidEffect.h</text>
</a>
</g>
</g>
<!-- Node9&#45;&gt;Node10 -->
<g id="edge12" class="edge">
<title>Node9&#45;&gt;Node10</title>
<path fill="none" stroke="midnightblue" d="M313.41,-185.35C309.95,-174.25 305.77,-160.82 303.09,-152.22"/>
<polygon fill="midnightblue" stroke="midnightblue" points="310.34,-186.25 316.65,-194.76 317.02,-184.17 310.34,-186.25"/>
</g>
<!-- Node11 -->
<g id="node11" class="node">
<title>Node11</title>
<g id="a_node11"><a xlink:href="_cube_solid_scene_8h.html" target="_top" xlink:title=" ">
<polygon fill="none" stroke="black" points="249.38,-57.5 249.38,-89.5 379.38,-89.5 379.38,-57.5 249.38,-57.5"/>
<text text-anchor="start" x="257.38" y="-76" font-family="Helvetica,sans-Serif" font-size="10.00">include/Scenes/CubeSolid</text>
<text text-anchor="middle" x="314.38" y="-64" font-family="Helvetica,sans-Serif" font-size="10.00">Scene.h</text>
</a>
</g>
</g>
<!-- Node9&#45;&gt;Node11 -->
<g id="edge22" class="edge">
<title>Node9&#45;&gt;Node11</title>
<path fill="none" stroke="midnightblue" d="M268.44,-191.73C251.8,-184.88 235.11,-174.52 225.38,-159 217.58,-146.57 218.05,-138.71 225.38,-126 235.01,-109.3 252.35,-97.52 269.19,-89.49"/>
<polygon fill="midnightblue" stroke="midnightblue" points="267.14,-195.35 277.73,-195.56 269.58,-188.79 267.14,-195.35"/>
</g>
<!-- Node12 -->
<g id="node12" class="node">
<title>Node12</title>
<g id="a_node12"><a xlink:href="_texture_effect_8h.html" target="_top" xlink:title=" ">
<polygon fill="none" stroke="black" points="422,-132.5 422,-152.5 564.75,-152.5 564.75,-132.5 422,-132.5"/>
<text text-anchor="middle" x="493.38" y="-139" font-family="Helvetica,sans-Serif" font-size="10.00">include/Effect/TextureEffect.h</text>
</a>
</g>
</g>
<!-- Node9&#45;&gt;Node12 -->
<g id="edge15" class="edge">
<title>Node9&#45;&gt;Node12</title>
<path fill="none" stroke="midnightblue" d="M354.96,-192.02C388.5,-180.27 437.94,-162.93 467.76,-152.48"/>
<polygon fill="midnightblue" stroke="midnightblue" points="353.96,-189.02 345.68,-195.63 356.27,-195.62 353.96,-189.02"/>
</g>
<!-- Node13 -->
<g id="node13" class="node">
<title>Node13</title>
<g id="a_node13"><a xlink:href="_cube_skin_scene_8h.html" target="_top" xlink:title=" ">
<polygon fill="none" stroke="black" points="411.5,-63.5 411.5,-83.5 575.25,-83.5 575.25,-63.5 411.5,-63.5"/>
<text text-anchor="middle" x="493.38" y="-70" font-family="Helvetica,sans-Serif" font-size="10.00">include/Scenes/CubeSkinScene.h</text>
</a>
</g>
</g>
<!-- Node9&#45;&gt;Node13 -->
<g id="edge21" class="edge">
<title>Node9&#45;&gt;Node13</title>
<path fill="none" stroke="midnightblue" d="M338.94,-188.86C349.75,-180.16 363.39,-169.07 375.38,-159 392.5,-144.61 395.48,-139.42 413.38,-126 435.05,-109.75 461.78,-93.18 478.2,-83.38"/>
<polygon fill="midnightblue" stroke="midnightblue" points="337.23,-186.55 331.62,-195.54 341.61,-192.01 337.23,-186.55"/>
</g>
<!-- Node14 -->
<g id="node14" class="node">
<title>Node14</title>
<g id="a_node14"><a xlink:href="_vertex_color_effect_8h.html" target="_top" xlink:title=" ">
<polygon fill="none" stroke="black" points="50.12,-126.5 50.12,-158.5 178.62,-158.5 178.62,-126.5 50.12,-126.5"/>
<text text-anchor="start" x="58.12" y="-145" font-family="Helvetica,sans-Serif" font-size="10.00">include/Effect/VertexColor</text>
<text text-anchor="middle" x="114.38" y="-133" font-family="Helvetica,sans-Serif" font-size="10.00">Effect.h</text>
</a>
</g>
</g>
<!-- Node9&#45;&gt;Node14 -->
<g id="edge18" class="edge">
<title>Node9&#45;&gt;Node14</title>
<path fill="none" stroke="midnightblue" d="M279.42,-192.61C246.56,-182.83 199.81,-168.92 164.45,-158.4"/>
<polygon fill="midnightblue" stroke="midnightblue" points="277.98,-196.13 288.57,-195.63 279.98,-189.42 277.98,-196.13"/>
</g>
<!-- Node15 -->
<g id="node15" class="node">
<title>Node15</title>
<g id="a_node15"><a xlink:href="_cube_vertex_color_scene_8h.html" target="_top" xlink:title=" ">
<polygon fill="none" stroke="black" points="0,-57.5 0,-89.5 136.75,-89.5 136.75,-57.5 0,-57.5"/>
<text text-anchor="start" x="8" y="-76" font-family="Helvetica,sans-Serif" font-size="10.00">include/Scenes/CubeVertex</text>
<text text-anchor="middle" x="68.38" y="-64" font-family="Helvetica,sans-Serif" font-size="10.00">ColorScene.h</text>
</a>
</g>
</g>
<!-- Node9&#45;&gt;Node15 -->
<g id="edge23" class="edge">
<title>Node9&#45;&gt;Node15</title>
<path fill="none" stroke="midnightblue" d="M262.43,-203.53C189.49,-200.95 69.16,-191.7 41.38,-159 24.22,-138.81 42.31,-107.61 56.02,-89.3"/>
<polygon fill="midnightblue" stroke="midnightblue" points="262.16,-207.06 272.27,-203.88 262.38,-200.06 262.16,-207.06"/>
</g>
<!-- Node10&#45;&gt;Node11 -->
<g id="edge13" class="edge">
<title>Node10&#45;&gt;Node11</title>
<path fill="none" stroke="midnightblue" d="M304.41,-122.2C306.59,-111.77 309.24,-99.08 311.26,-89.41"/>
<polygon fill="midnightblue" stroke="midnightblue" points="300.82,-121.24 302.21,-131.74 307.68,-122.67 300.82,-121.24"/>
</g>
<!-- Node11&#45;&gt;Node4 -->
<g id="edge14" class="edge">
<title>Node11&#45;&gt;Node4</title>
<path fill="none" stroke="midnightblue" d="M368.49,-54.06C401.19,-42.91 441.41,-29.21 467.21,-20.42"/>
<polygon fill="midnightblue" stroke="midnightblue" points="367.5,-51.04 359.16,-57.58 369.76,-57.66 367.5,-51.04"/>
</g>
<!-- Node12&#45;&gt;Node13 -->
<g id="edge16" class="edge">
<title>Node12&#45;&gt;Node13</title>
<path fill="none" stroke="midnightblue" d="M493.38,-121.86C493.38,-109.17 493.38,-93.24 493.38,-83.48"/>
<polygon fill="midnightblue" stroke="midnightblue" points="489.88,-121.74 493.38,-131.74 496.88,-121.74 489.88,-121.74"/>
</g>
<!-- Node13&#45;&gt;Node4 -->
<g id="edge17" class="edge">
<title>Node13&#45;&gt;Node4</title>
<path fill="none" stroke="midnightblue" d="M493.38,-52.99C493.38,-41.97 493.38,-28.73 493.38,-20.22"/>
<polygon fill="midnightblue" stroke="midnightblue" points="489.88,-52.76 493.38,-62.76 496.88,-52.76 489.88,-52.76"/>
</g>
<!-- Node14&#45;&gt;Node15 -->
<g id="edge19" class="edge">
<title>Node14&#45;&gt;Node15</title>
<path fill="none" stroke="midnightblue" d="M98.02,-117.68C91.53,-108.23 84.27,-97.65 78.56,-89.33"/>
<polygon fill="midnightblue" stroke="midnightblue" points="95.62,-119.37 104.17,-125.63 101.39,-115.41 95.62,-119.37"/>
</g>
<!-- Node15&#45;&gt;Node4 -->
<g id="edge20" class="edge">
<title>Node15&#45;&gt;Node4</title>
<path fill="none" stroke="midnightblue" d="M147.42,-61.15C237.96,-48.16 382.78,-27.37 452.83,-17.32"/>
<polygon fill="midnightblue" stroke="midnightblue" points="147.06,-57.81 137.66,-62.7 148.05,-64.74 147.06,-57.81"/>
</g>
<!-- Node16&#45;&gt;Node9 -->
<g id="edge25" class="edge">
<title>Node16&#45;&gt;Node9</title>
<path fill="none" stroke="midnightblue" d="M331.85,-242.62C328.64,-233.32 324.92,-222.56 322.39,-215.21"/>
<polygon fill="midnightblue" stroke="midnightblue" points="328.83,-243.6 335.41,-251.91 335.45,-241.31 328.83,-243.6"/>
</g>
<!-- Node17&#45;&gt;Node3 -->
<g id="edge27" class="edge">
<title>Node17&#45;&gt;Node3</title>
<path fill="none" stroke="midnightblue" d="M650.62,-246.04C663.51,-236.18 679.78,-223.76 690.6,-215.5"/>
<polygon fill="midnightblue" stroke="midnightblue" points="648.77,-243.81 642.94,-252.66 653.01,-249.37 648.77,-243.81"/>
</g>
<!-- Node17&#45;&gt;Node11 -->
<g id="edge29" class="edge">
<title>Node17&#45;&gt;Node11</title>
<path fill="none" stroke="midnightblue" d="M627.93,-241.84C623.11,-211.96 609.52,-155.5 573.38,-126 569.57,-122.89 454.62,-100.84 379.16,-86.61"/>
<polygon fill="midnightblue" stroke="midnightblue" points="624.57,-242.13 629.45,-251.54 631.5,-241.14 624.57,-242.13"/>
</g>
<!-- Node17&#45;&gt;Node13 -->
<g id="edge28" class="edge">
<title>Node17&#45;&gt;Node13</title>
<path fill="none" stroke="midnightblue" d="M632.24,-241.9C633.88,-213.36 632.76,-160.05 606.38,-126 589.14,-103.76 560.11,-90.81 535.8,-83.46"/>
<polygon fill="midnightblue" stroke="midnightblue" points="628.68,-241.57 631.4,-251.8 635.66,-242.1 628.68,-241.57"/>
</g>
<!-- Node17&#45;&gt;Node15 -->
<g id="edge30" class="edge">
<title>Node17&#45;&gt;Node15</title>
<path fill="none" stroke="midnightblue" d="M576.93,-256.42C436.42,-242.51 65.11,-201.98 31.38,-159 14.57,-137.58 36.4,-107.35 52.96,-89.45"/>
<polygon fill="midnightblue" stroke="midnightblue" points="576.53,-260 586.83,-257.49 577.22,-253.03 576.53,-260"/>
</g>
<!-- Node18&#45;&gt;Node2 -->
<g id="edge35" class="edge">
<title>Node18&#45;&gt;Node2</title>
<path fill="none" stroke="midnightblue" d="M796.33,-361.59C777.47,-351.52 752.53,-338.2 736.22,-329.5"/>
<polygon fill="midnightblue" stroke="midnightblue" points="794.36,-365.04 804.83,-366.66 797.65,-358.87 794.36,-365.04"/>
</g>
<!-- Node19 -->
<g id="node19" class="node">
<title>Node19</title>
<g id="a_node19"><a xlink:href="_surface_8cpp.html" target="_top" xlink:title=" ">
<polygon fill="none" stroke="black" points="786.25,-309.5 786.25,-329.5 870.5,-329.5 870.5,-309.5 786.25,-309.5"/>
<text text-anchor="middle" x="828.38" y="-316" font-family="Helvetica,sans-Serif" font-size="10.00">src/Surface.cpp</text>
</a>
</g>
</g>
<!-- Node18&#45;&gt;Node19 -->
<g id="edge36" class="edge">
<title>Node18&#45;&gt;Node19</title>
<path fill="none" stroke="midnightblue" d="M824.5,-356C825.5,-346.85 826.64,-336.39 827.42,-329.21"/>
<polygon fill="midnightblue" stroke="midnightblue" points="820.92,-355.59 823.31,-365.91 827.88,-356.34 820.92,-355.59"/>
</g>
</g>
</svg>
