<?xml version="1.0" encoding="UTF-8" standalone="no"?>
<!DOCTYPE svg PUBLIC "-//W3C//DTD SVG 1.1//EN"
 "http://www.w3.org/Graphics/SVG/1.1/DTD/svg11.dtd">
<!-- Generated by graphviz version 8.1.0 (20230707.0739)
 -->
<!-- Title: include/Engine.h Pages: 1 -->
<svg width="1121pt" height="371pt"
 viewBox="0.00 0.00 1121.25 371.00" xmlns="http://www.w3.org/2000/svg" xmlns:xlink="http://www.w3.org/1999/xlink">
<g id="graph0" class="graph" transform="scale(1 1) rotate(0) translate(4 367)">
<title>include/Engine.h</title>
<!-- Node1 -->
<g id="node1" class="node">
<title>Node1</title>
<g id="a_node1"><a xlink:title=" ">
<polygon fill="#bfbfbf" stroke="black" points="880.62,-342.5 880.62,-362.5 968.62,-362.5 968.62,-342.5 880.62,-342.5"/>
<text text-anchor="middle" x="924.62" y="-349" font-family="Helvetica,sans-Serif" font-size="10.00">include/Engine.h</text>
</a>
</g>
</g>
<!-- Node2 -->
<g id="node2" class="node">
<title>Node2</title>
<g id="a_node2"><a xlink:title=" ">
<polygon fill="none" stroke="#bfbfbf" points="960,-114.5 960,-134.5 1011.25,-134.5 1011.25,-114.5 960,-114.5"/>
<text text-anchor="middle" x="985.62" y="-121" font-family="Helvetica,sans-Serif" font-size="10.00">memory</text>
</a>
</g>
</g>
<!-- Node1&#45;&gt;Node2 -->
<g id="edge1" class="edge">
<title>Node1&#45;&gt;Node2</title>
<path fill="none" stroke="midnightblue" d="M933.71,-342.65C941.91,-334.09 953.58,-320.32 959.62,-306 982.87,-250.93 985.97,-178.9 986,-144.89"/>
<polygon fill="midnightblue" stroke="midnightblue" points="989.49,-145.15 985.9,-135.18 982.49,-145.21 989.49,-145.15"/>
</g>
<!-- Node3 -->
<g id="node3" class="node">
<title>Node3</title>
<g id="a_node3"><a xlink:title=" ">
<polygon fill="none" stroke="#bfbfbf" points="838.88,-285.5 838.88,-305.5 880.38,-305.5 880.38,-285.5 838.88,-285.5"/>
<text text-anchor="middle" x="859.62" y="-292" font-family="Helvetica,sans-Serif" font-size="10.00">vector</text>
</a>
</g>
</g>
<!-- Node1&#45;&gt;Node3 -->
<g id="edge2" class="edge">
<title>Node1&#45;&gt;Node3</title>
<path fill="none" stroke="midnightblue" d="M914.18,-342.66C904.57,-334.53 890.09,-322.28 878.47,-312.44"/>
<polygon fill="midnightblue" stroke="midnightblue" points="881.15,-309.29 871.26,-305.5 876.63,-314.63 881.15,-309.29"/>
</g>
<!-- Node4 -->
<g id="node4" class="node">
<title>Node4</title>
<g id="a_node4"><a xlink:href="_graphics_8h.html" target="_top" xlink:title=" ">
<polygon fill="none" stroke="black" points="605,-228.5 605,-248.5 668.25,-248.5 668.25,-228.5 605,-228.5"/>
<text text-anchor="middle" x="636.62" y="-235" font-family="Helvetica,sans-Serif" font-size="10.00">Graphics.h</text>
</a>
</g>
</g>
<!-- Node1&#45;&gt;Node4 -->
<g id="edge3" class="edge">
<title>Node1&#45;&gt;Node4</title>
<path fill="none" stroke="midnightblue" d="M901.54,-342.52C850.65,-322.73 728.65,-275.29 669.67,-252.35"/>
<polygon fill="midnightblue" stroke="midnightblue" points="671.01,-248.73 660.42,-248.36 668.47,-255.25 671.01,-248.73"/>
</g>
<!-- Node31 -->
<g id="node31" class="node">
<title>Node31</title>
<g id="a_node31"><a xlink:href="_scene_8h.html" target="_top" xlink:title=" ">
<polygon fill="none" stroke="black" points="898.62,-285.5 898.62,-305.5 950.62,-305.5 950.62,-285.5 898.62,-285.5"/>
<text text-anchor="middle" x="924.62" y="-292" font-family="Helvetica,sans-Serif" font-size="10.00">Scene.h</text>
</a>
</g>
</g>
<!-- Node1&#45;&gt;Node31 -->
<g id="edge49" class="edge">
<title>Node1&#45;&gt;Node31</title>
<path fill="none" stroke="midnightblue" d="M924.62,-342.91C924.62,-335.76 924.62,-325.32 924.62,-316.15"/>
<polygon fill="midnightblue" stroke="midnightblue" points="928.13,-316.21 924.62,-306.21 921.13,-316.21 928.13,-316.21"/>
</g>
<!-- Node36 -->
<g id="node36" class="node">
<title>Node36</title>
<g id="a_node36"><a xlink:href="_frame_timer_8h.html" target="_top" xlink:title=" ">
<polygon fill="none" stroke="black" points="1032.62,-285.5 1032.62,-305.5 1108.62,-305.5 1108.62,-285.5 1032.62,-285.5"/>
<text text-anchor="middle" x="1070.62" y="-292" font-family="Helvetica,sans-Serif" font-size="10.00">FrameTimer.h</text>
</a>
</g>
</g>
<!-- Node1&#45;&gt;Node36 -->
<g id="edge58" class="edge">
<title>Node1&#45;&gt;Node36</title>
<path fill="none" stroke="midnightblue" d="M948.41,-342.54C972.38,-333.51 1009.59,-319.49 1036.66,-309.29"/>
<polygon fill="midnightblue" stroke="midnightblue" points="1037.73,-312.26 1045.85,-305.46 1035.26,-305.71 1037.73,-312.26"/>
</g>
<!-- Node5 -->
<g id="node5" class="node">
<title>Node5</title>
<g id="a_node5"><a xlink:href="_engine_exception_8h.html" target="_top" xlink:title=" ">
<polygon fill="none" stroke="black" points="843.75,-114.5 843.75,-134.5 941.5,-134.5 941.5,-114.5 843.75,-114.5"/>
<text text-anchor="middle" x="892.62" y="-121" font-family="Helvetica,sans-Serif" font-size="10.00">EngineException.h</text>
</a>
</g>
</g>
<!-- Node4&#45;&gt;Node5 -->
<g id="edge4" class="edge">
<title>Node4&#45;&gt;Node5</title>
<path fill="none" stroke="midnightblue" d="M668.11,-231.27C700.36,-224.21 751.44,-211.15 792.62,-192 822.52,-178.1 853.64,-156 873.06,-141.13"/>
<polygon fill="midnightblue" stroke="midnightblue" points="874.86,-143.39 880.6,-134.48 870.56,-137.86 874.86,-143.39"/>
</g>
<!-- Node7 -->
<g id="node7" class="node">
<title>Node7</title>
<g id="a_node7"><a xlink:href="_colors_8h.html" target="_top" xlink:title=" ">
<polygon fill="none" stroke="black" points="773.62,-114.5 773.62,-134.5 825.62,-134.5 825.62,-114.5 773.62,-114.5"/>
<text text-anchor="middle" x="799.62" y="-121" font-family="Helvetica,sans-Serif" font-size="10.00">Colors.h</text>
</a>
</g>
</g>
<!-- Node4&#45;&gt;Node7 -->
<g id="edge6" class="edge">
<title>Node4&#45;&gt;Node7</title>
<path fill="none" stroke="midnightblue" d="M668.22,-234.11C697.98,-229.38 742.14,-218.19 770.62,-192 784.23,-179.49 791.77,-159.47 795.72,-144.66"/>
<polygon fill="midnightblue" stroke="midnightblue" points="799.31,-145.67 798.17,-135.14 792.5,-144.09 799.31,-145.67"/>
</g>
<!-- Node8 -->
<g id="node8" class="node">
<title>Node8</title>
<g id="a_node8"><a xlink:href="_g_d_i_plus_manager_8h.html" target="_top" xlink:title=" ">
<polygon fill="none" stroke="black" points="587.75,-171.5 587.75,-191.5 685.5,-191.5 685.5,-171.5 587.75,-171.5"/>
<text text-anchor="middle" x="636.62" y="-178" font-family="Helvetica,sans-Serif" font-size="10.00">GDIPlusManager.h</text>
</a>
</g>
</g>
<!-- Node4&#45;&gt;Node8 -->
<g id="edge7" class="edge">
<title>Node4&#45;&gt;Node8</title>
<path fill="none" stroke="midnightblue" d="M636.62,-228.91C636.62,-221.76 636.62,-211.32 636.62,-202.15"/>
<polygon fill="midnightblue" stroke="midnightblue" points="640.13,-202.21 636.62,-192.21 633.13,-202.21 640.13,-202.21"/>
</g>
<!-- Node12 -->
<g id="node12" class="node">
<title>Node12</title>
<g id="a_node12"><a xlink:href="_vector2_8h.html" target="_top" xlink:title=" ">
<polygon fill="none" stroke="black" points="384.5,-114.5 384.5,-134.5 504.75,-134.5 504.75,-114.5 384.5,-114.5"/>
<text text-anchor="middle" x="444.62" y="-121" font-family="Helvetica,sans-Serif" font-size="10.00">LinearAlgebra/Vector2.h</text>
</a>
</g>
</g>
<!-- Node4&#45;&gt;Node12 -->
<g id="edge11" class="edge">
<title>Node4&#45;&gt;Node12</title>
<path fill="none" stroke="midnightblue" d="M617.1,-228.56C598.43,-219.83 569.65,-205.85 545.62,-192 517.33,-175.69 486.13,-154.65 466.01,-140.65"/>
<polygon fill="midnightblue" stroke="midnightblue" points="468.27,-137.26 458.08,-134.39 464.26,-143 468.27,-137.26"/>
</g>
<!-- Node24 -->
<g id="node24" class="node">
<title>Node24</title>
<g id="a_node24"><a xlink:href="_vector3_8h.html" target="_top" xlink:title=" ">
<polygon fill="none" stroke="black" points="214.5,-114.5 214.5,-134.5 334.75,-134.5 334.75,-114.5 214.5,-114.5"/>
<text text-anchor="middle" x="274.62" y="-121" font-family="Helvetica,sans-Serif" font-size="10.00">LinearAlgebra/Vector3.h</text>
</a>
</g>
</g>
<!-- Node4&#45;&gt;Node24 -->
<g id="edge29" class="edge">
<title>Node4&#45;&gt;Node24</title>
<path fill="none" stroke="midnightblue" d="M605.1,-237.58C529.34,-237.13 339.89,-231.94 293.62,-192 280.29,-180.48 276,-160.32 274.76,-145.2"/>
<polygon fill="midnightblue" stroke="midnightblue" points="278.23,-145.27 274.32,-135.42 271.24,-145.56 278.23,-145.27"/>
</g>
<!-- Node25 -->
<g id="node25" class="node">
<title>Node25</title>
<g id="a_node25"><a xlink:href="_surface_8h.html" target="_top" xlink:title=" ">
<polygon fill="none" stroke="black" points="704,-171.5 704,-191.5 761.25,-191.5 761.25,-171.5 704,-171.5"/>
<text text-anchor="middle" x="732.62" y="-178" font-family="Helvetica,sans-Serif" font-size="10.00">Surface.h</text>
</a>
</g>
</g>
<!-- Node4&#45;&gt;Node25 -->
<g id="edge36" class="edge">
<title>Node4&#45;&gt;Node25</title>
<path fill="none" stroke="midnightblue" d="M652.05,-228.66C667.08,-220.05 690.17,-206.83 707.78,-196.73"/>
<polygon fill="midnightblue" stroke="midnightblue" points="708.98,-199.51 715.92,-191.5 705.5,-193.43 708.98,-199.51"/>
</g>
<!-- Node28 -->
<g id="node28" class="node">
<title>Node28</title>
<g id="a_node28"><a xlink:href="_tex_vertex_8h.html" target="_top" xlink:title=" ">
<polygon fill="none" stroke="black" points="371.38,-171.5 371.38,-191.5 439.88,-191.5 439.88,-171.5 371.38,-171.5"/>
<text text-anchor="middle" x="405.62" y="-178" font-family="Helvetica,sans-Serif" font-size="10.00">TexVertex.h</text>
</a>
</g>
</g>
<!-- Node4&#45;&gt;Node28 -->
<g id="edge44" class="edge">
<title>Node4&#45;&gt;Node28</title>
<path fill="none" stroke="midnightblue" d="M605.47,-230.08C565.45,-220.55 495.73,-203.95 450.13,-193.1"/>
<polygon fill="midnightblue" stroke="midnightblue" points="451.2,-189.51 440.66,-190.6 449.57,-196.32 451.2,-189.51"/>
</g>
<!-- Node29 -->
<g id="node29" class="node">
<title>Node29</title>
<g id="a_node29"><a xlink:title=" ">
<polygon fill="none" stroke="#bfbfbf" points="302.38,-171.5 302.38,-191.5 352.88,-191.5 352.88,-171.5 302.38,-171.5"/>
<text text-anchor="middle" x="327.62" y="-178" font-family="Helvetica,sans-Serif" font-size="10.00">d3d11.h</text>
</a>
</g>
</g>
<!-- Node4&#45;&gt;Node29 -->
<g id="edge47" class="edge">
<title>Node4&#45;&gt;Node29</title>
<path fill="none" stroke="midnightblue" d="M605.2,-233.33C555.91,-226.56 457.25,-212.11 363.33,-191.95"/>
<polygon fill="midnightblue" stroke="midnightblue" points="364.3,-188.36 353.79,-189.65 362.81,-195.2 364.3,-188.36"/>
</g>
<!-- Node30 -->
<g id="node30" class="node">
<title>Node30</title>
<g id="a_node30"><a xlink:title=" ">
<polygon fill="none" stroke="#bfbfbf" points="457.5,-171.5 457.5,-191.5 493.75,-191.5 493.75,-171.5 457.5,-171.5"/>
<text text-anchor="middle" x="475.62" y="-178" font-family="Helvetica,sans-Serif" font-size="10.00">wrl.h</text>
</a>
</g>
</g>
<!-- Node4&#45;&gt;Node30 -->
<g id="edge48" class="edge">
<title>Node4&#45;&gt;Node30</title>
<path fill="none" stroke="midnightblue" d="M610.4,-228.54C581.04,-218.51 533.64,-202.32 503.59,-192.05"/>
<polygon fill="midnightblue" stroke="midnightblue" points="504.96,-188.48 494.37,-188.56 502.7,-195.11 504.96,-188.48"/>
</g>
<!-- Node6 -->
<g id="node6" class="node">
<title>Node6</title>
<g id="a_node6"><a xlink:title=" ">
<polygon fill="none" stroke="#bfbfbf" points="872.62,-57.5 872.62,-77.5 912.62,-77.5 912.62,-57.5 872.62,-57.5"/>
<text text-anchor="middle" x="892.62" y="-64" font-family="Helvetica,sans-Serif" font-size="10.00">string</text>
</a>
</g>
</g>
<!-- Node5&#45;&gt;Node6 -->
<g id="edge5" class="edge">
<title>Node5&#45;&gt;Node6</title>
<path fill="none" stroke="midnightblue" d="M892.62,-114.91C892.62,-107.76 892.62,-97.32 892.62,-88.15"/>
<polygon fill="midnightblue" stroke="midnightblue" points="896.13,-88.21 892.62,-78.21 889.13,-88.21 896.13,-88.21"/>
</g>
<!-- Node9 -->
<g id="node9" class="node">
<title>Node9</title>
<g id="a_node9"><a xlink:href="_win_8h.html" target="_top" xlink:title=" ">
<polygon fill="none" stroke="black" points="527.88,-114.5 527.88,-134.5 569.38,-134.5 569.38,-114.5 527.88,-114.5"/>
<text text-anchor="middle" x="548.62" y="-121" font-family="Helvetica,sans-Serif" font-size="10.00">Win.h</text>
</a>
</g>
</g>
<!-- Node8&#45;&gt;Node9 -->
<g id="edge8" class="edge">
<title>Node8&#45;&gt;Node9</title>
<path fill="none" stroke="midnightblue" d="M622.49,-171.66C608.97,-163.21 588.33,-150.31 572.3,-140.3"/>
<polygon fill="midnightblue" stroke="midnightblue" points="574.36,-136.83 564.02,-134.5 570.65,-142.77 574.36,-136.83"/>
</g>
<!-- Node10 -->
<g id="node10" class="node">
<title>Node10</title>
<g id="a_node10"><a xlink:title=" ">
<polygon fill="none" stroke="#bfbfbf" points="700.75,-57.5 700.75,-77.5 768.5,-77.5 768.5,-57.5 700.75,-57.5"/>
<text text-anchor="middle" x="734.62" y="-64" font-family="Helvetica,sans-Serif" font-size="10.00">sdkddkver.h</text>
</a>
</g>
</g>
<!-- Node9&#45;&gt;Node10 -->
<g id="edge9" class="edge">
<title>Node9&#45;&gt;Node10</title>
<path fill="none" stroke="midnightblue" d="M569.24,-117.4C599.24,-108.53 655.54,-91.89 694.04,-80.5"/>
<polygon fill="midnightblue" stroke="midnightblue" points="694.8,-83.63 703.39,-77.44 692.81,-76.92 694.8,-83.63"/>
</g>
<!-- Node11 -->
<g id="node11" class="node">
<title>Node11</title>
<g id="a_node11"><a xlink:title=" ">
<polygon fill="none" stroke="#bfbfbf" points="618.62,-57.5 618.62,-77.5 682.62,-77.5 682.62,-57.5 618.62,-57.5"/>
<text text-anchor="middle" x="650.62" y="-64" font-family="Helvetica,sans-Serif" font-size="10.00">Windows.h</text>
</a>
</g>
</g>
<!-- Node9&#45;&gt;Node11 -->
<g id="edge10" class="edge">
<title>Node9&#45;&gt;Node11</title>
<path fill="none" stroke="midnightblue" d="M565.01,-114.66C581.05,-106.01 605.74,-92.7 624.49,-82.59"/>
<polygon fill="midnightblue" stroke="midnightblue" points="625.8,-85.32 632.94,-77.5 622.48,-79.16 625.8,-85.32"/>
</g>
<!-- Node13 -->
<g id="node13" class="node">
<title>Node13</title>
<g id="a_node13"><a xlink:title=" ">
<polygon fill="none" stroke="#bfbfbf" points="255.75,-0.5 255.75,-20.5 293.5,-20.5 293.5,-0.5 255.75,-0.5"/>
<text text-anchor="middle" x="274.62" y="-7" font-family="Helvetica,sans-Serif" font-size="10.00">array</text>
</a>
</g>
</g>
<!-- Node12&#45;&gt;Node13 -->
<g id="edge12" class="edge">
<title>Node12&#45;&gt;Node13</title>
<path fill="none" stroke="midnightblue" d="M444.08,-114.84C442.72,-100.72 438,-72.75 421.62,-57 384.13,-20.95 358.4,-35.83 303.81,-21.05"/>
<polygon fill="midnightblue" stroke="midnightblue" points="304.85,-17.41 294.27,-17.92 302.87,-24.12 304.85,-17.41"/>
</g>
<!-- Node14 -->
<g id="node14" class="node">
<title>Node14</title>
<g id="a_node14"><a xlink:title=" ">
<polygon fill="none" stroke="#bfbfbf" points="358.88,-57.5 358.88,-77.5 412.38,-77.5 412.38,-57.5 358.88,-57.5"/>
<text text-anchor="middle" x="385.62" y="-64" font-family="Helvetica,sans-Serif" font-size="10.00">compare</text>
</a>
</g>
</g>
<!-- Node12&#45;&gt;Node14 -->
<g id="edge13" class="edge">
<title>Node12&#45;&gt;Node14</title>
<path fill="none" stroke="midnightblue" d="M435.15,-114.66C426.51,-106.61 413.54,-94.52 403.04,-84.73"/>
<polygon fill="midnightblue" stroke="midnightblue" points="405.98,-82.76 396.28,-78.5 401.2,-87.88 405.98,-82.76"/>
</g>
<!-- Node15 -->
<g id="node15" class="node">
<title>Node15</title>
<g id="a_node15"><a xlink:title=" ">
<polygon fill="none" stroke="#bfbfbf" points="311.88,-0.5 311.88,-20.5 359.38,-20.5 359.38,-0.5 311.88,-0.5"/>
<text text-anchor="middle" x="335.62" y="-7" font-family="Helvetica,sans-Serif" font-size="10.00">cstddef</text>
</a>
</g>
</g>
<!-- Node12&#45;&gt;Node15 -->
<g id="edge14" class="edge">
<title>Node12&#45;&gt;Node15</title>
<path fill="none" stroke="midnightblue" d="M449.44,-114.88C456.31,-101.31 466.8,-74.7 454.62,-57 435.69,-29.49 397.71,-18.61 369.73,-14.3"/>
<polygon fill="midnightblue" stroke="midnightblue" points="370.55,-10.75 360.18,-12.91 369.64,-17.69 370.55,-10.75"/>
</g>
<!-- Node16 -->
<g id="node16" class="node">
<title>Node16</title>
<g id="a_node16"><a xlink:title=" ">
<polygon fill="none" stroke="#bfbfbf" points="433.88,-0.5 433.88,-20.5 487.38,-20.5 487.38,-0.5 433.88,-0.5"/>
<text text-anchor="middle" x="460.62" y="-7" font-family="Helvetica,sans-Serif" font-size="10.00">iostream</text>
</a>
</g>
</g>
<!-- Node12&#45;&gt;Node16 -->
<g id="edge15" class="edge">
<title>Node12&#45;&gt;Node16</title>
<path fill="none" stroke="midnightblue" d="M459,-114.7C470.51,-106.72 485.82,-93.82 492.62,-78 500.01,-60.81 488.56,-41.6 477.36,-28.26"/>
<polygon fill="midnightblue" stroke="midnightblue" points="480.55,-26.47 471.24,-21.42 475.37,-31.18 480.55,-26.47"/>
</g>
<!-- Node17 -->
<g id="node17" class="node">
<title>Node17</title>
<g id="a_node17"><a xlink:href="_math_8h.html" target="_top" xlink:title=" ">
<polygon fill="none" stroke="black" points="88.62,-57.5 88.62,-77.5 134.62,-77.5 134.62,-57.5 88.62,-57.5"/>
<text text-anchor="middle" x="111.62" y="-64" font-family="Helvetica,sans-Serif" font-size="10.00">Math.h</text>
</a>
</g>
</g>
<!-- Node12&#45;&gt;Node17 -->
<g id="edge16" class="edge">
<title>Node12&#45;&gt;Node17</title>
<path fill="none" stroke="midnightblue" d="M390.38,-114.54C320.93,-103.07 202.68,-83.54 145.11,-74.03"/>
<polygon fill="midnightblue" stroke="midnightblue" points="145.87,-70.44 135.44,-72.27 144.73,-77.35 145.87,-70.44"/>
</g>
<!-- Node22 -->
<g id="node22" class="node">
<title>Node22</title>
<g id="a_node22"><a xlink:href="_matrix2_8h.html" target="_top" xlink:title=" ">
<polygon fill="none" stroke="black" points="544.38,-57.5 544.38,-77.5 600.88,-77.5 600.88,-57.5 544.38,-57.5"/>
<text text-anchor="middle" x="572.62" y="-64" font-family="Helvetica,sans-Serif" font-size="10.00">Matrix2.h</text>
</a>
</g>
</g>
<!-- Node12&#45;&gt;Node22 -->
<g id="edge22" class="edge">
<title>Node12&#45;&gt;Node22</title>
<path fill="none" stroke="midnightblue" d="M465.48,-114.54C486.21,-105.63 518.25,-91.86 541.9,-81.7"/>
<polygon fill="midnightblue" stroke="midnightblue" points="542.98,-84.62 550.78,-77.46 540.21,-78.19 542.98,-84.62"/>
</g>
<!-- Node23 -->
<g id="node23" class="node">
<title>Node23</title>
<g id="a_node23"><a xlink:href="_matrix3_8h.html" target="_top" xlink:title=" ">
<polygon fill="none" stroke="black" points="246.38,-57.5 246.38,-77.5 302.88,-77.5 302.88,-57.5 246.38,-57.5"/>
<text text-anchor="middle" x="274.62" y="-64" font-family="Helvetica,sans-Serif" font-size="10.00">Matrix3.h</text>
</a>
</g>
</g>
<!-- Node12&#45;&gt;Node23 -->
<g id="edge24" class="edge">
<title>Node12&#45;&gt;Node23</title>
<path fill="none" stroke="midnightblue" d="M416.93,-114.54C388.53,-105.35 344.15,-90.99 312.51,-80.76"/>
<polygon fill="midnightblue" stroke="midnightblue" points="313.9,-77.2 303.3,-77.46 311.74,-83.86 313.9,-77.2"/>
</g>
<!-- Node17&#45;&gt;Node17 -->
<g id="edge17" class="edge">
<title>Node17&#45;&gt;Node17</title>
<path fill="none" stroke="midnightblue" d="M130.18,-77.43C141.68,-79.83 152.62,-76.52 152.62,-67.5 152.62,-61.44 147.68,-57.96 140.95,-57.05"/>
<polygon fill="midnightblue" stroke="midnightblue" points="141,-53.59 131.18,-57.57 141.33,-60.59 141,-53.59"/>
</g>
<!-- Node18 -->
<g id="node18" class="node">
<title>Node18</title>
<g id="a_node18"><a xlink:title=" ">
<polygon fill="none" stroke="#bfbfbf" points="195.12,-0.5 195.12,-20.5 238.12,-20.5 238.12,-0.5 195.12,-0.5"/>
<text text-anchor="middle" x="216.62" y="-7" font-family="Helvetica,sans-Serif" font-size="10.00">cmath</text>
</a>
</g>
</g>
<!-- Node17&#45;&gt;Node18 -->
<g id="edge18" class="edge">
<title>Node17&#45;&gt;Node18</title>
<path fill="none" stroke="midnightblue" d="M128.5,-57.66C145.01,-49.01 170.42,-35.7 189.72,-25.59"/>
<polygon fill="midnightblue" stroke="midnightblue" points="191.21,-28.24 198.45,-20.5 187.97,-22.04 191.21,-28.24"/>
</g>
<!-- Node19 -->
<g id="node19" class="node">
<title>Node19</title>
<g id="a_node19"><a xlink:title=" ">
<polygon fill="none" stroke="#bfbfbf" points="0,-0.5 0,-20.5 39.25,-20.5 39.25,-0.5 0,-0.5"/>
<text text-anchor="middle" x="19.62" y="-7" font-family="Helvetica,sans-Serif" font-size="10.00">limits</text>
</a>
</g>
</g>
<!-- Node17&#45;&gt;Node19 -->
<g id="edge19" class="edge">
<title>Node17&#45;&gt;Node19</title>
<path fill="none" stroke="midnightblue" d="M96.84,-57.66C82.58,-49.13 60.72,-36.07 43.9,-26.01"/>
<polygon fill="midnightblue" stroke="midnightblue" points="46.05,-22.62 35.68,-20.5 42.46,-28.63 46.05,-22.62"/>
</g>
<!-- Node20 -->
<g id="node20" class="node">
<title>Node20</title>
<g id="a_node20"><a xlink:title=" ">
<polygon fill="none" stroke="#bfbfbf" points="56.88,-0.5 56.88,-20.5 110.38,-20.5 110.38,-0.5 56.88,-0.5"/>
<text text-anchor="middle" x="83.62" y="-7" font-family="Helvetica,sans-Serif" font-size="10.00">numbers</text>
</a>
</g>
</g>
<!-- Node17&#45;&gt;Node20 -->
<g id="edge20" class="edge">
<title>Node17&#45;&gt;Node20</title>
<path fill="none" stroke="midnightblue" d="M107.25,-57.91C103.45,-50.44 97.82,-39.38 93.01,-29.93"/>
<polygon fill="midnightblue" stroke="midnightblue" points="95.72,-28.54 88.06,-21.21 89.48,-31.71 95.72,-28.54"/>
</g>
<!-- Node21 -->
<g id="node21" class="node">
<title>Node21</title>
<g id="a_node21"><a xlink:title=" ">
<polygon fill="none" stroke="#bfbfbf" points="128.5,-0.5 128.5,-20.5 176.75,-20.5 176.75,-0.5 128.5,-0.5"/>
<text text-anchor="middle" x="152.62" y="-7" font-family="Helvetica,sans-Serif" font-size="10.00">random</text>
</a>
</g>
</g>
<!-- Node17&#45;&gt;Node21 -->
<g id="edge21" class="edge">
<title>Node17&#45;&gt;Node21</title>
<path fill="none" stroke="midnightblue" d="M118.03,-57.91C123.77,-50.2 132.38,-38.66 139.57,-29.02"/>
<polygon fill="midnightblue" stroke="midnightblue" points="142.96,-31.32 146.13,-21.21 137.35,-27.14 142.96,-31.32"/>
</g>
<!-- Node22&#45;&gt;Node16 -->
<g id="edge23" class="edge">
<title>Node22&#45;&gt;Node16</title>
<path fill="none" stroke="midnightblue" d="M554.63,-57.66C536.86,-48.94 509.41,-35.46 488.76,-25.31"/>
<polygon fill="midnightblue" stroke="midnightblue" points="490.47,-21.76 479.95,-20.5 487.38,-28.05 490.47,-21.76"/>
</g>
<!-- Node23&#45;&gt;Node13 -->
<g id="edge25" class="edge">
<title>Node23&#45;&gt;Node13</title>
<path fill="none" stroke="midnightblue" d="M274.62,-57.91C274.62,-50.76 274.62,-40.32 274.62,-31.15"/>
<polygon fill="midnightblue" stroke="midnightblue" points="278.13,-31.21 274.62,-21.21 271.13,-31.21 278.13,-31.21"/>
</g>
<!-- Node23&#45;&gt;Node15 -->
<g id="edge27" class="edge">
<title>Node23&#45;&gt;Node15</title>
<path fill="none" stroke="midnightblue" d="M284.43,-57.66C293.35,-49.61 306.76,-37.52 317.62,-27.73"/>
<polygon fill="midnightblue" stroke="midnightblue" points="319.56,-30.79 324.65,-21.5 314.88,-25.59 319.56,-30.79"/>
</g>
<!-- Node23&#45;&gt;Node16 -->
<g id="edge28" class="edge">
<title>Node23&#45;&gt;Node16</title>
<path fill="none" stroke="midnightblue" d="M302.87,-58.15C335.11,-48.61 387.95,-32.99 423.49,-22.48"/>
<polygon fill="midnightblue" stroke="midnightblue" points="424.33,-25.59 432.92,-19.4 422.34,-18.88 424.33,-25.59"/>
</g>
<!-- Node23&#45;&gt;Node18 -->
<g id="edge26" class="edge">
<title>Node23&#45;&gt;Node18</title>
<path fill="none" stroke="midnightblue" d="M265.31,-57.66C256.9,-49.69 244.32,-37.76 234.05,-28.02"/>
<polygon fill="midnightblue" stroke="midnightblue" points="236.78,-25.84 227.11,-21.5 231.96,-30.92 236.78,-25.84"/>
</g>
<!-- Node24&#45;&gt;Node13 -->
<g id="edge30" class="edge">
<title>Node24&#45;&gt;Node13</title>
<path fill="none" stroke="midnightblue" d="M251.63,-114.51C226.36,-103.15 191.03,-82.05 204.62,-57 213.39,-40.85 230.63,-29.54 245.81,-22.24"/>
<polygon fill="midnightblue" stroke="midnightblue" points="247.12,-25.04 254.86,-17.81 244.3,-18.64 247.12,-25.04"/>
</g>
<!-- Node24&#45;&gt;Node14 -->
<g id="edge32" class="edge">
<title>Node24&#45;&gt;Node14</title>
<path fill="none" stroke="midnightblue" d="M292.46,-114.66C310.07,-105.94 337.27,-92.46 357.75,-82.31"/>
<polygon fill="midnightblue" stroke="midnightblue" points="359.06,-85.07 366.47,-77.5 355.95,-78.8 359.06,-85.07"/>
</g>
<!-- Node24&#45;&gt;Node15 -->
<g id="edge33" class="edge">
<title>Node24&#45;&gt;Node15</title>
<path fill="none" stroke="midnightblue" d="M263.4,-114.7C248.32,-101.78 224.83,-77.05 237.62,-57 245.12,-45.26 276.91,-31.82 302.28,-22.61"/>
<polygon fill="midnightblue" stroke="midnightblue" points="303.06,-25.7 311.32,-19.06 300.72,-19.1 303.06,-25.7"/>
</g>
<!-- Node24&#45;&gt;Node16 -->
<g id="edge31" class="edge">
<title>Node24&#45;&gt;Node16</title>
<path fill="none" stroke="midnightblue" d="M282.64,-114.7C295.59,-100.88 322.45,-73.93 349.62,-57 372.97,-42.45 401.78,-30.8 424.19,-22.94"/>
<polygon fill="midnightblue" stroke="midnightblue" points="424.98,-26.03 433.31,-19.49 422.72,-19.4 424.98,-26.03"/>
</g>
<!-- Node24&#45;&gt;Node17 -->
<g id="edge34" class="edge">
<title>Node24&#45;&gt;Node17</title>
<path fill="none" stroke="midnightblue" d="M248.07,-114.54C219.83,-105.01 175.11,-89.92 144.62,-79.63"/>
<polygon fill="midnightblue" stroke="midnightblue" points="146.07,-76.09 135.48,-76.21 143.83,-82.72 146.07,-76.09"/>
</g>
<!-- Node24&#45;&gt;Node23 -->
<g id="edge35" class="edge">
<title>Node24&#45;&gt;Node23</title>
<path fill="none" stroke="midnightblue" d="M274.62,-114.91C274.62,-107.76 274.62,-97.32 274.62,-88.15"/>
<polygon fill="midnightblue" stroke="midnightblue" points="278.13,-88.21 274.62,-78.21 271.13,-88.21 278.13,-88.21"/>
</g>
<!-- Node25&#45;&gt;Node2 -->
<g id="edge41" class="edge">
<title>Node25&#45;&gt;Node2</title>
<path fill="none" stroke="midnightblue" d="M760.96,-175.14C800.79,-167.49 875.82,-152.64 949.65,-135.12"/>
<polygon fill="midnightblue" stroke="midnightblue" points="950.14,-138.36 959.06,-132.63 948.52,-131.55 950.14,-138.36"/>
</g>
<!-- Node25&#45;&gt;Node5 -->
<g id="edge39" class="edge">
<title>Node25&#45;&gt;Node5</title>
<path fill="none" stroke="midnightblue" d="M758.69,-171.54C785.19,-162.43 826.46,-148.24 856.19,-138.02"/>
<polygon fill="midnightblue" stroke="midnightblue" points="857.25,-141.02 865.57,-134.46 854.98,-134.4 857.25,-141.02"/>
</g>
<!-- Node25&#45;&gt;Node6 -->
<g id="edge42" class="edge">
<title>Node25&#45;&gt;Node6</title>
<path fill="none" stroke="midnightblue" d="M704,-173.24C673.07,-164.74 626.8,-149.92 616.62,-135 611.37,-127.29 610.59,-121.12 616.62,-114 632.41,-95.41 793.36,-77.98 861.94,-71.33"/>
<polygon fill="midnightblue" stroke="midnightblue" points="862.25,-74.72 871.87,-70.29 861.58,-67.76 862.25,-74.72"/>
</g>
<!-- Node25&#45;&gt;Node7 -->
<g id="edge37" class="edge">
<title>Node25&#45;&gt;Node7</title>
<path fill="none" stroke="midnightblue" d="M743.39,-171.66C753.29,-163.53 768.22,-151.28 780.2,-141.44"/>
<polygon fill="midnightblue" stroke="midnightblue" points="782.16,-143.55 787.66,-134.5 777.71,-138.14 782.16,-143.55"/>
</g>
<!-- Node25&#45;&gt;Node9 -->
<g id="edge38" class="edge">
<title>Node25&#45;&gt;Node9</title>
<path fill="none" stroke="midnightblue" d="M704.28,-172.03C670.62,-161.97 614.67,-145.24 579.82,-134.82"/>
<polygon fill="midnightblue" stroke="midnightblue" points="580.88,-131.19 570.3,-131.68 578.87,-137.9 580.88,-131.19"/>
</g>
<!-- Node26 -->
<g id="node26" class="node">
<title>Node26</title>
<g id="a_node26"><a xlink:title=" ">
<polygon fill="none" stroke="#bfbfbf" points="704,-114.5 704,-134.5 755.25,-134.5 755.25,-114.5 704,-114.5"/>
<text text-anchor="middle" x="729.62" y="-121" font-family="Helvetica,sans-Serif" font-size="10.00">assert.h</text>
</a>
</g>
</g>
<!-- Node25&#45;&gt;Node26 -->
<g id="edge40" class="edge">
<title>Node25&#45;&gt;Node26</title>
<path fill="none" stroke="midnightblue" d="M732.16,-171.91C731.77,-164.76 731.2,-154.32 730.7,-145.15"/>
<polygon fill="midnightblue" stroke="midnightblue" points="734.14,-145.01 730.1,-135.21 727.15,-145.39 734.14,-145.01"/>
</g>
<!-- Node27 -->
<g id="node27" class="node">
<title>Node27</title>
<g id="a_node27"><a xlink:title=" ">
<polygon fill="none" stroke="#bfbfbf" points="625.5,-114.5 625.5,-134.5 685.75,-134.5 685.75,-114.5 625.5,-114.5"/>
<text text-anchor="middle" x="655.62" y="-121" font-family="Helvetica,sans-Serif" font-size="10.00">filesystem</text>
</a>
</g>
</g>
<!-- Node25&#45;&gt;Node27 -->
<g id="edge43" class="edge">
<title>Node25&#45;&gt;Node27</title>
<path fill="none" stroke="midnightblue" d="M720.25,-171.66C708.65,-163.37 691.04,-150.8 677.14,-140.87"/>
<polygon fill="midnightblue" stroke="midnightblue" points="679.39,-137.46 669.22,-134.5 675.32,-143.16 679.39,-137.46"/>
</g>
<!-- Node28&#45;&gt;Node12 -->
<g id="edge45" class="edge">
<title>Node28&#45;&gt;Node12</title>
<path fill="none" stroke="midnightblue" d="M411.72,-171.91C417.18,-164.2 425.37,-152.66 432.2,-143.02"/>
<polygon fill="midnightblue" stroke="midnightblue" points="435.52,-145.4 438.45,-135.21 429.81,-141.35 435.52,-145.4"/>
</g>
<!-- Node28&#45;&gt;Node24 -->
<g id="edge46" class="edge">
<title>Node28&#45;&gt;Node24</title>
<path fill="none" stroke="midnightblue" d="M384.29,-171.54C363.07,-162.63 330.27,-148.86 306.07,-138.7"/>
<polygon fill="midnightblue" stroke="midnightblue" points="307.53,-135.1 296.95,-134.46 304.82,-141.55 307.53,-135.1"/>
</g>
<!-- Node31&#45;&gt;Node4 -->
<g id="edge57" class="edge">
<title>Node31&#45;&gt;Node4</title>
<path fill="none" stroke="midnightblue" d="M898.69,-287.19C895.65,-286.41 892.57,-285.66 889.62,-285 815.96,-268.41 729.15,-253.87 678.75,-245.92"/>
<polygon fill="midnightblue" stroke="midnightblue" points="679.38,-242.32 668.96,-244.23 678.3,-249.24 679.38,-242.32"/>
</g>
<!-- Node31&#45;&gt;Node6 -->
<g id="edge50" class="edge">
<title>Node31&#45;&gt;Node6</title>
<path fill="none" stroke="midnightblue" d="M936,-285.78C969.7,-258.92 1064.02,-175.47 1020.62,-114 998.68,-82.9 953.53,-72.93 923.16,-69.81"/>
<polygon fill="midnightblue" stroke="midnightblue" points="923.58,-66.25 913.32,-68.92 923,-73.23 923.58,-66.25"/>
</g>
<!-- Node32 -->
<g id="node32" class="node">
<title>Node32</title>
<g id="a_node32"><a xlink:href="_keyboard_8h.html" target="_top" xlink:title=" ">
<polygon fill="none" stroke="black" points="891.88,-228.5 891.88,-248.5 957.38,-248.5 957.38,-228.5 891.88,-228.5"/>
<text text-anchor="middle" x="924.62" y="-235" font-family="Helvetica,sans-Serif" font-size="10.00">Keyboard.h</text>
</a>
</g>
</g>
<!-- Node31&#45;&gt;Node32 -->
<g id="edge51" class="edge">
<title>Node31&#45;&gt;Node32</title>
<path fill="none" stroke="midnightblue" d="M924.62,-285.91C924.62,-278.76 924.62,-268.32 924.62,-259.15"/>
<polygon fill="midnightblue" stroke="midnightblue" points="928.13,-259.21 924.62,-249.21 921.13,-259.21 928.13,-259.21"/>
</g>
<!-- Node35 -->
<g id="node35" class="node">
<title>Node35</title>
<g id="a_node35"><a xlink:href="_mouse_8h.html" target="_top" xlink:title=" ">
<polygon fill="none" stroke="black" points="819.88,-228.5 819.88,-248.5 873.38,-248.5 873.38,-228.5 819.88,-228.5"/>
<text text-anchor="middle" x="846.62" y="-235" font-family="Helvetica,sans-Serif" font-size="10.00">Mouse.h</text>
</a>
</g>
</g>
<!-- Node31&#45;&gt;Node35 -->
<g id="edge54" class="edge">
<title>Node31&#45;&gt;Node35</title>
<path fill="none" stroke="midnightblue" d="M912.09,-285.66C900.22,-277.29 882.16,-264.56 868.01,-254.58"/>
<polygon fill="midnightblue" stroke="midnightblue" points="870.57,-251.4 860.39,-248.5 866.54,-257.12 870.57,-251.4"/>
</g>
<!-- Node33 -->
<g id="node33" class="node">
<title>Node33</title>
<g id="a_node33"><a xlink:title=" ">
<polygon fill="none" stroke="#bfbfbf" points="915.62,-171.5 915.62,-191.5 955.62,-191.5 955.62,-171.5 915.62,-171.5"/>
<text text-anchor="middle" x="935.62" y="-178" font-family="Helvetica,sans-Serif" font-size="10.00">bitset</text>
</a>
</g>
</g>
<!-- Node32&#45;&gt;Node33 -->
<g id="edge52" class="edge">
<title>Node32&#45;&gt;Node33</title>
<path fill="none" stroke="midnightblue" d="M926.34,-228.91C927.79,-221.68 929.91,-211.09 931.76,-201.85"/>
<polygon fill="midnightblue" stroke="midnightblue" points="935.35,-202.71 933.88,-192.21 928.49,-201.33 935.35,-202.71"/>
</g>
<!-- Node34 -->
<g id="node34" class="node">
<title>Node34</title>
<g id="a_node34"><a xlink:title=" ">
<polygon fill="none" stroke="#bfbfbf" points="855.5,-171.5 855.5,-191.5 897.75,-191.5 897.75,-171.5 855.5,-171.5"/>
<text text-anchor="middle" x="876.62" y="-178" font-family="Helvetica,sans-Serif" font-size="10.00">queue</text>
</a>
</g>
</g>
<!-- Node32&#45;&gt;Node34 -->
<g id="edge53" class="edge">
<title>Node32&#45;&gt;Node34</title>
<path fill="none" stroke="midnightblue" d="M917.12,-228.91C910.26,-221.04 899.91,-209.18 891.39,-199.42"/>
<polygon fill="midnightblue" stroke="midnightblue" points="893.44,-197.45 884.23,-192.21 888.17,-202.05 893.44,-197.45"/>
</g>
<!-- Node35&#45;&gt;Node12 -->
<g id="edge55" class="edge">
<title>Node35&#45;&gt;Node12</title>
<path fill="none" stroke="midnightblue" d="M819.95,-236.14C770.84,-232.94 663.36,-222.75 578.62,-192 561.21,-185.68 559.04,-179.58 542.62,-171 520.36,-159.37 494.57,-147.45 475.03,-138.74"/>
<polygon fill="midnightblue" stroke="midnightblue" points="476.73,-135.21 466.16,-134.37 473.89,-141.62 476.73,-135.21"/>
</g>
<!-- Node35&#45;&gt;Node34 -->
<g id="edge56" class="edge">
<title>Node35&#45;&gt;Node34</title>
<path fill="none" stroke="midnightblue" d="M851.31,-228.91C855.43,-221.36 861.55,-210.14 866.74,-200.62"/>
<polygon fill="midnightblue" stroke="midnightblue" points="870.16,-202.67 871.87,-192.21 864.01,-199.32 870.16,-202.67"/>
</g>
<!-- Node37 -->
<g id="node37" class="node">
<title>Node37</title>
<g id="a_node37"><a xlink:title=" ">
<polygon fill="none" stroke="#bfbfbf" points="1068,-228.5 1068,-248.5 1113.25,-248.5 1113.25,-228.5 1068,-228.5"/>
<text text-anchor="middle" x="1090.62" y="-235" font-family="Helvetica,sans-Serif" font-size="10.00">chrono</text>
</a>
</g>
</g>
<!-- Node36&#45;&gt;Node37 -->
<g id="edge59" class="edge">
<title>Node36&#45;&gt;Node37</title>
<path fill="none" stroke="midnightblue" d="M1073.75,-285.91C1076.41,-278.6 1080.31,-267.85 1083.7,-258.54"/>
<polygon fill="midnightblue" stroke="midnightblue" points="1087.33,-259.81 1087.46,-249.21 1080.75,-257.42 1087.33,-259.81"/>
</g>
</g>
</svg>
