<?xml version="1.0" encoding="UTF-8" standalone="no"?>
<!DOCTYPE svg PUBLIC "-//W3C//DTD SVG 1.1//EN"
 "http://www.w3.org/Graphics/SVG/1.1/DTD/svg11.dtd">
<!-- Generated by graphviz version 8.1.0 (20230707.0739)
 -->
<!-- Title: include/EngineException.h Pages: 1 -->
<svg width="1983pt" height="326pt"
 viewBox="0.00 0.00 1983.12 326.00" xmlns="http://www.w3.org/2000/svg" xmlns:xlink="http://www.w3.org/1999/xlink">
<g id="graph0" class="graph" transform="scale(1 1) rotate(0) translate(4 322)">
<title>include/EngineException.h</title>
<!-- Node1 -->
<g id="node1" class="node">
<title>Node1</title>
<g id="a_node1"><a xlink:title=" ">
<polygon fill="#bfbfbf" stroke="black" points="1698,-297.5 1698,-317.5 1829.5,-317.5 1829.5,-297.5 1698,-297.5"/>
<text text-anchor="middle" x="1763.75" y="-304" font-family="Helvetica,sans-Serif" font-size="10.00">include/EngineException.h</text>
</a>
</g>
</g>
<!-- Node2 -->
<g id="node2" class="node">
<title>Node2</title>
<g id="a_node2"><a xlink:href="_graphics_8h.html" target="_top" xlink:title=" ">
<polygon fill="none" stroke="black" points="1618.25,-183.5 1618.25,-203.5 1715.25,-203.5 1715.25,-183.5 1618.25,-183.5"/>
<text text-anchor="middle" x="1666.75" y="-190" font-family="Helvetica,sans-Serif" font-size="10.00">include/Graphics.h</text>
</a>
</g>
</g>
<!-- Node1&#45;&gt;Node2 -->
<g id="edge1" class="edge">
<title>Node1&#45;&gt;Node2</title>
<path fill="none" stroke="midnightblue" d="M1742.63,-291.1C1732.09,-282.84 1719.53,-272.1 1709.75,-261 1693.21,-242.23 1678.45,-216.54 1671.3,-203.25"/>
<polygon fill="midnightblue" stroke="midnightblue" points="1740.18,-294.39 1750.26,-297.66 1744.42,-288.82 1740.18,-294.39"/>
</g>
<!-- Node7 -->
<g id="node7" class="node">
<title>Node7</title>
<g id="a_node7"><a xlink:href="_main_window_8h.html" target="_top" xlink:title=" ">
<polygon fill="none" stroke="black" points="1789,-126.5 1789,-146.5 1902.5,-146.5 1902.5,-126.5 1789,-126.5"/>
<text text-anchor="middle" x="1845.75" y="-133" font-family="Helvetica,sans-Serif" font-size="10.00">include/MainWindow.h</text>
</a>
</g>
</g>
<!-- Node1&#45;&gt;Node7 -->
<g id="edge46" class="edge">
<title>Node1&#45;&gt;Node7</title>
<path fill="none" stroke="midnightblue" d="M1788.61,-291.42C1799.43,-283.63 1811.32,-273.19 1818.75,-261 1841.94,-222.96 1845.33,-167.59 1845.74,-146.3"/>
<polygon fill="midnightblue" stroke="midnightblue" points="1786.84,-289.07 1780.51,-297.56 1790.75,-294.87 1786.84,-289.07"/>
</g>
<!-- Node21 -->
<g id="node21" class="node">
<title>Node21</title>
<g id="a_node21"><a xlink:href="_surface_8h.html" target="_top" xlink:title=" ">
<polygon fill="none" stroke="black" points="1718.25,-240.5 1718.25,-260.5 1809.25,-260.5 1809.25,-240.5 1718.25,-240.5"/>
<text text-anchor="middle" x="1763.75" y="-247" font-family="Helvetica,sans-Serif" font-size="10.00">include/Surface.h</text>
</a>
</g>
</g>
<!-- Node1&#45;&gt;Node21 -->
<g id="edge47" class="edge">
<title>Node1&#45;&gt;Node21</title>
<path fill="none" stroke="midnightblue" d="M1763.75,-287C1763.75,-277.85 1763.75,-267.39 1763.75,-260.21"/>
<polygon fill="midnightblue" stroke="midnightblue" points="1760.25,-286.91 1763.75,-296.91 1767.25,-286.91 1760.25,-286.91"/>
</g>
<!-- Node3 -->
<g id="node3" class="node">
<title>Node3</title>
<g id="a_node3"><a xlink:href="_engine_8h.html" target="_top" xlink:title=" ">
<polygon fill="none" stroke="black" points="1621.75,-63.5 1621.75,-83.5 1709.75,-83.5 1709.75,-63.5 1621.75,-63.5"/>
<text text-anchor="middle" x="1665.75" y="-70" font-family="Helvetica,sans-Serif" font-size="10.00">include/Engine.h</text>
</a>
</g>
</g>
<!-- Node2&#45;&gt;Node3 -->
<g id="edge2" class="edge">
<title>Node2&#45;&gt;Node3</title>
<path fill="none" stroke="midnightblue" d="M1666.58,-172.91C1666.36,-147.01 1665.99,-102.44 1665.83,-83.47"/>
<polygon fill="midnightblue" stroke="midnightblue" points="1663.09,-172.66 1666.67,-182.63 1670.09,-172.6 1663.09,-172.66"/>
</g>
<!-- Node6 -->
<g id="node6" class="node">
<title>Node6</title>
<g id="a_node6"><a xlink:href="_main_window_8cpp.html" target="_top" xlink:title=" ">
<polygon fill="none" stroke="black" points="1868.38,-0.5 1868.38,-20.5 1975.12,-20.5 1975.12,-0.5 1868.38,-0.5"/>
<text text-anchor="middle" x="1921.75" y="-7" font-family="Helvetica,sans-Serif" font-size="10.00">src/MainWindow.cpp</text>
</a>
</g>
</g>
<!-- Node2&#45;&gt;Node6 -->
<g id="edge45" class="edge">
<title>Node2&#45;&gt;Node6</title>
<path fill="none" stroke="midnightblue" d="M1725.87,-182.4C1797.34,-170.07 1908.54,-150.41 1911.75,-147 1945.36,-111.26 1930.96,-44.15 1924.37,-20.23"/>
<polygon fill="midnightblue" stroke="midnightblue" points="1725.45,-179.09 1716.19,-184.24 1726.64,-185.99 1725.45,-179.09"/>
</g>
<!-- Node2&#45;&gt;Node7 -->
<g id="edge6" class="edge">
<title>Node2&#45;&gt;Node7</title>
<path fill="none" stroke="midnightblue" d="M1706.22,-180.37C1739.57,-170.13 1786.57,-155.68 1816.6,-146.46"/>
<polygon fill="midnightblue" stroke="midnightblue" points="1705.44,-177.26 1696.91,-183.54 1707.49,-183.95 1705.44,-177.26"/>
</g>
<!-- Node8 -->
<g id="node8" class="node">
<title>Node8</title>
<g id="a_node8"><a xlink:href="_graphics_8cpp.html" target="_top" xlink:title=" ">
<polygon fill="none" stroke="black" points="1727.62,-63.5 1727.62,-83.5 1817.88,-83.5 1817.88,-63.5 1727.62,-63.5"/>
<text text-anchor="middle" x="1772.75" y="-70" font-family="Helvetica,sans-Serif" font-size="10.00">src/Graphics.cpp</text>
</a>
</g>
</g>
<!-- Node2&#45;&gt;Node8 -->
<g id="edge44" class="edge">
<title>Node2&#45;&gt;Node8</title>
<path fill="none" stroke="midnightblue" d="M1681.89,-175.64C1704.69,-150.27 1747.03,-103.13 1764.69,-83.47"/>
<polygon fill="midnightblue" stroke="midnightblue" points="1679.8,-172.85 1675.72,-182.63 1685,-177.53 1679.8,-172.85"/>
</g>
<!-- Node9 -->
<g id="node9" class="node">
<title>Node9</title>
<g id="a_node9"><a xlink:href="_pube_screen_transformer_8h.html" target="_top" xlink:title=" ">
<polygon fill="none" stroke="black" points="792.62,-126.5 792.62,-146.5 954.88,-146.5 954.88,-126.5 792.62,-126.5"/>
<text text-anchor="middle" x="873.75" y="-133" font-family="Helvetica,sans-Serif" font-size="10.00">include/PubeScreenTransformer.h</text>
</a>
</g>
</g>
<!-- Node2&#45;&gt;Node9 -->
<g id="edge11" class="edge">
<title>Node2&#45;&gt;Node9</title>
<path fill="none" stroke="midnightblue" d="M1607.57,-189.1C1488.34,-182.12 1210.69,-165.33 977.75,-147 970.25,-146.41 962.45,-145.76 954.64,-145.09"/>
<polygon fill="midnightblue" stroke="midnightblue" points="1607.08,-192.63 1617.27,-189.72 1607.49,-185.64 1607.08,-192.63"/>
</g>
<!-- Node20 -->
<g id="node20" class="node">
<title>Node20</title>
<g id="a_node20"><a xlink:href="_scene_8h.html" target="_top" xlink:title=" ">
<polygon fill="none" stroke="black" points="986.88,-126.5 986.88,-146.5 1072.62,-146.5 1072.62,-126.5 986.88,-126.5"/>
<text text-anchor="middle" x="1029.75" y="-133" font-family="Helvetica,sans-Serif" font-size="10.00">include/Scene.h</text>
</a>
</g>
</g>
<!-- Node2&#45;&gt;Node20 -->
<g id="edge32" class="edge">
<title>Node2&#45;&gt;Node20</title>
<path fill="none" stroke="midnightblue" d="M1607.67,-187.4C1480.53,-176.42 1183.51,-150.78 1072.56,-141.2"/>
<polygon fill="midnightblue" stroke="midnightblue" points="1607.08,-190.95 1617.35,-188.32 1607.69,-183.97 1607.08,-190.95"/>
</g>
<!-- Node4 -->
<g id="node4" class="node">
<title>Node4</title>
<g id="a_node4"><a xlink:href="_engine_8cpp.html" target="_top" xlink:title=" ">
<polygon fill="none" stroke="black" points="918.12,-0.5 918.12,-20.5 999.38,-20.5 999.38,-0.5 918.12,-0.5"/>
<text text-anchor="middle" x="958.75" y="-7" font-family="Helvetica,sans-Serif" font-size="10.00">src/Engine.cpp</text>
</a>
</g>
</g>
<!-- Node3&#45;&gt;Node4 -->
<g id="edge3" class="edge">
<title>Node3&#45;&gt;Node4</title>
<path fill="none" stroke="midnightblue" d="M1629.12,-60.68C1623.68,-59.25 1618.1,-57.96 1612.75,-57 1383.35,-15.97 1102.55,-11.47 999.31,-11.31"/>
<polygon fill="midnightblue" stroke="midnightblue" points="1627.75,-64.21 1638.33,-63.56 1629.65,-57.48 1627.75,-64.21"/>
</g>
<!-- Node5 -->
<g id="node5" class="node">
<title>Node5</title>
<g id="a_node5"><a xlink:href="_main_8cpp.html" target="_top" xlink:title=" ">
<polygon fill="none" stroke="black" points="1703.62,-0.5 1703.62,-20.5 1775.88,-20.5 1775.88,-0.5 1703.62,-0.5"/>
<text text-anchor="middle" x="1739.75" y="-7" font-family="Helvetica,sans-Serif" font-size="10.00">src/Main.cpp</text>
</a>
</g>
</g>
<!-- Node3&#45;&gt;Node5 -->
<g id="edge4" class="edge">
<title>Node3&#45;&gt;Node5</title>
<path fill="none" stroke="midnightblue" d="M1684.44,-57.09C1698.59,-45.43 1717.53,-29.82 1729.17,-20.22"/>
<polygon fill="midnightblue" stroke="midnightblue" points="1682.84,-54.7 1677.35,-63.76 1687.29,-60.1 1682.84,-54.7"/>
</g>
<!-- Node3&#45;&gt;Node6 -->
<g id="edge5" class="edge">
<title>Node3&#45;&gt;Node6</title>
<path fill="none" stroke="midnightblue" d="M1705.41,-60.6C1709.9,-59.34 1714.42,-58.12 1718.75,-57 1773.31,-42.92 1836.75,-29.11 1878,-20.46"/>
<polygon fill="midnightblue" stroke="midnightblue" points="1704.74,-57.44 1696.09,-63.55 1706.67,-64.17 1704.74,-57.44"/>
</g>
<!-- Node7&#45;&gt;Node4 -->
<g id="edge7" class="edge">
<title>Node7&#45;&gt;Node4</title>
<path fill="none" stroke="midnightblue" d="M1847.02,-115.87C1847.02,-97.59 1843.75,-71.11 1826.75,-57 1794.55,-30.27 1166.15,-15.7 999.19,-12.28"/>
<polygon fill="midnightblue" stroke="midnightblue" points="1843.5,-115.6 1846.65,-125.72 1850.49,-115.85 1843.5,-115.6"/>
</g>
<!-- Node7&#45;&gt;Node5 -->
<g id="edge9" class="edge">
<title>Node7&#45;&gt;Node5</title>
<path fill="none" stroke="midnightblue" d="M1855.9,-117.5C1864,-100.47 1872.12,-74.93 1859.75,-57 1841.02,-29.86 1803.84,-18.9 1775.8,-14.47"/>
<polygon fill="midnightblue" stroke="midnightblue" points="1852.54,-115.37 1851.04,-125.85 1858.76,-118.59 1852.54,-115.37"/>
</g>
<!-- Node7&#45;&gt;Node6 -->
<g id="edge10" class="edge">
<title>Node7&#45;&gt;Node6</title>
<path fill="none" stroke="midnightblue" d="M1868.2,-120.36C1878.5,-112.4 1890.09,-101.84 1897.75,-90 1912.31,-67.51 1918.43,-35.71 1920.65,-20.41"/>
<polygon fill="midnightblue" stroke="midnightblue" points="1866.61,-117.92 1860.62,-126.65 1870.75,-123.56 1866.61,-117.92"/>
</g>
<!-- Node7&#45;&gt;Node8 -->
<g id="edge8" class="edge">
<title>Node7&#45;&gt;Node8</title>
<path fill="none" stroke="midnightblue" d="M1826.92,-119.76C1813,-108.13 1794.57,-92.73 1783.19,-83.22"/>
<polygon fill="midnightblue" stroke="midnightblue" points="1824.37,-123.03 1834.29,-126.76 1828.86,-117.66 1824.37,-123.03"/>
</g>
<!-- Node10 -->
<g id="node10" class="node">
<title>Node10</title>
<g id="a_node10"><a xlink:href="_con_hex_scene_8h.html" target="_top" xlink:title=" ">
<polygon fill="none" stroke="black" points="1139.62,-63.5 1139.62,-83.5 1295.88,-83.5 1295.88,-63.5 1139.62,-63.5"/>
<text text-anchor="middle" x="1217.75" y="-70" font-family="Helvetica,sans-Serif" font-size="10.00">include/Scenes/ConHexScene.h</text>
</a>
</g>
</g>
<!-- Node9&#45;&gt;Node10 -->
<g id="edge12" class="edge">
<title>Node9&#45;&gt;Node10</title>
<path fill="none" stroke="midnightblue" d="M935.19,-124.64C987.26,-115.44 1063.9,-101.87 1130.75,-90 1142.68,-87.88 1155.54,-85.59 1167.61,-83.44"/>
<polygon fill="midnightblue" stroke="midnightblue" points="934.7,-121.35 925.47,-126.54 935.92,-128.24 934.7,-121.35"/>
</g>
<!-- Node11 -->
<g id="node11" class="node">
<title>Node11</title>
<g id="a_node11"><a xlink:href="_con_hex_wire_scene_8h.html" target="_top" xlink:title=" ">
<polygon fill="none" stroke="black" points="1313.5,-57.5 1313.5,-89.5 1454,-89.5 1454,-57.5 1313.5,-57.5"/>
<text text-anchor="start" x="1321.5" y="-76" font-family="Helvetica,sans-Serif" font-size="10.00">include/Scenes/ConHexWire</text>
<text text-anchor="middle" x="1383.75" y="-64" font-family="Helvetica,sans-Serif" font-size="10.00">Scene.h</text>
</a>
</g>
</g>
<!-- Node9&#45;&gt;Node11 -->
<g id="edge14" class="edge">
<title>Node9&#45;&gt;Node11</title>
<path fill="none" stroke="midnightblue" d="M965.28,-126.8C1071.89,-116.49 1241.45,-99.53 1304.75,-90 1307.65,-89.56 1310.61,-89.09 1313.59,-88.6"/>
<polygon fill="midnightblue" stroke="midnightblue" points="965.15,-123.39 955.53,-127.84 965.82,-130.36 965.15,-123.39"/>
</g>
<!-- Node12 -->
<g id="node12" class="node">
<title>Node12</title>
<g id="a_node12"><a xlink:href="_cube_order_scene_8h.html" target="_top" xlink:title=" ">
<polygon fill="none" stroke="black" points="1471.62,-57.5 1471.62,-89.5 1603.88,-89.5 1603.88,-57.5 1471.62,-57.5"/>
<text text-anchor="start" x="1479.62" y="-76" font-family="Helvetica,sans-Serif" font-size="10.00">include/Scenes/CubeOrder</text>
<text text-anchor="middle" x="1537.75" y="-64" font-family="Helvetica,sans-Serif" font-size="10.00">Scene.h</text>
</a>
</g>
</g>
<!-- Node9&#45;&gt;Node12 -->
<g id="edge16" class="edge">
<title>Node9&#45;&gt;Node12</title>
<path fill="none" stroke="midnightblue" d="M965.59,-127.03C969.7,-126.67 973.77,-126.33 977.75,-126 1193.16,-108.17 1248.68,-119.94 1462.75,-90 1465.78,-89.58 1468.87,-89.1 1471.98,-88.59"/>
<polygon fill="midnightblue" stroke="midnightblue" points="965.3,-123.62 955.64,-127.98 965.91,-130.6 965.3,-123.62"/>
</g>
<!-- Node13 -->
<g id="node13" class="node">
<title>Node13</title>
<g id="a_node13"><a xlink:href="_cube_skinned_scene_8h.html" target="_top" xlink:title=" ">
<polygon fill="none" stroke="black" points="0,-57.5 0,-89.5 143.5,-89.5 143.5,-57.5 0,-57.5"/>
<text text-anchor="start" x="8" y="-76" font-family="Helvetica,sans-Serif" font-size="10.00">include/Scenes/CubeSkinned</text>
<text text-anchor="middle" x="71.75" y="-64" font-family="Helvetica,sans-Serif" font-size="10.00">Scene.h</text>
</a>
</g>
</g>
<!-- Node9&#45;&gt;Node13 -->
<g id="edge18" class="edge">
<title>Node9&#45;&gt;Node13</title>
<path fill="none" stroke="midnightblue" d="M782.01,-133.41C644.7,-129.45 377.78,-118.52 152.75,-90 149.63,-89.6 146.44,-89.16 143.23,-88.68"/>
<polygon fill="midnightblue" stroke="midnightblue" points="781.79,-136.93 791.88,-133.72 781.98,-129.94 781.79,-136.93"/>
</g>
<!-- Node14 -->
<g id="node14" class="node">
<title>Node14</title>
<g id="a_node14"><a xlink:href="_folded_cube_scene_8h.html" target="_top" xlink:title=" ">
<polygon fill="none" stroke="black" points="162,-57.5 162,-89.5 299.5,-89.5 299.5,-57.5 162,-57.5"/>
<text text-anchor="start" x="170" y="-76" font-family="Helvetica,sans-Serif" font-size="10.00">include/Scenes/FoldedCube</text>
<text text-anchor="middle" x="230.75" y="-64" font-family="Helvetica,sans-Serif" font-size="10.00">Scene.h</text>
</a>
</g>
</g>
<!-- Node9&#45;&gt;Node14 -->
<g id="edge20" class="edge">
<title>Node9&#45;&gt;Node14</title>
<path fill="none" stroke="midnightblue" d="M782.05,-131.38C669.98,-125.6 474.77,-113.1 308.75,-90 305.6,-89.56 302.4,-89.08 299.16,-88.56"/>
<polygon fill="midnightblue" stroke="midnightblue" points="781.8,-134.93 791.96,-131.94 782.16,-127.94 781.8,-134.93"/>
</g>
<!-- Node15 -->
<g id="node15" class="node">
<title>Node15</title>
<g id="a_node15"><a xlink:href="_folded_cube_wrap_scene_8h.html" target="_top" xlink:title=" ">
<polygon fill="none" stroke="black" points="318,-57.5 318,-89.5 455.5,-89.5 455.5,-57.5 318,-57.5"/>
<text text-anchor="start" x="326" y="-76" font-family="Helvetica,sans-Serif" font-size="10.00">include/Scenes/FoldedCube</text>
<text text-anchor="middle" x="386.75" y="-64" font-family="Helvetica,sans-Serif" font-size="10.00">WrapScene.h</text>
</a>
</g>
</g>
<!-- Node9&#45;&gt;Node15 -->
<g id="edge22" class="edge">
<title>Node9&#45;&gt;Node15</title>
<path fill="none" stroke="midnightblue" d="M781.84,-127.54C698.76,-119.8 573.2,-106.78 464.75,-90 461.61,-89.51 458.41,-88.99 455.18,-88.44"/>
<polygon fill="midnightblue" stroke="midnightblue" points="781.49,-131.11 791.77,-128.55 782.14,-124.14 781.49,-131.11"/>
</g>
<!-- Node16 -->
<g id="node16" class="node">
<title>Node16</title>
<g id="a_node16"><a xlink:href="_solid_cube_scene_8h.html" target="_top" xlink:title=" ">
<polygon fill="none" stroke="black" points="473.75,-57.5 473.75,-89.5 603.75,-89.5 603.75,-57.5 473.75,-57.5"/>
<text text-anchor="start" x="481.75" y="-76" font-family="Helvetica,sans-Serif" font-size="10.00">include/Scenes/SolidCube</text>
<text text-anchor="middle" x="538.75" y="-64" font-family="Helvetica,sans-Serif" font-size="10.00">Scene.h</text>
</a>
</g>
</g>
<!-- Node9&#45;&gt;Node16 -->
<g id="edge24" class="edge">
<title>Node9&#45;&gt;Node16</title>
<path fill="none" stroke="midnightblue" d="M808.58,-124.77C755.72,-115.91 679.31,-102.77 612.75,-90 609.79,-89.43 606.76,-88.84 603.7,-88.23"/>
<polygon fill="midnightblue" stroke="midnightblue" points="807.72,-128.34 818.16,-126.54 808.88,-121.44 807.72,-128.34"/>
</g>
<!-- Node17 -->
<g id="node17" class="node">
<title>Node17</title>
<g id="a_node17"><a xlink:href="_tex_cube_scene_8h.html" target="_top" xlink:title=" ">
<polygon fill="none" stroke="black" points="621.75,-63.5 621.75,-83.5 781.75,-83.5 781.75,-63.5 621.75,-63.5"/>
<text text-anchor="middle" x="701.75" y="-70" font-family="Helvetica,sans-Serif" font-size="10.00">include/Scenes/TexCubeScene.h</text>
</a>
</g>
</g>
<!-- Node9&#45;&gt;Node17 -->
<g id="edge26" class="edge">
<title>Node9&#45;&gt;Node17</title>
<path fill="none" stroke="midnightblue" d="M838.57,-123.02C805.42,-111.27 756.55,-93.93 727.07,-83.48"/>
<polygon fill="midnightblue" stroke="midnightblue" points="837.14,-126.59 847.74,-126.63 839.48,-119.99 837.14,-126.59"/>
</g>
<!-- Node18 -->
<g id="node18" class="node">
<title>Node18</title>
<g id="a_node18"><a xlink:href="_tex_wrap_cube_scene_8h.html" target="_top" xlink:title=" ">
<polygon fill="none" stroke="black" points="800.12,-57.5 800.12,-89.5 947.38,-89.5 947.38,-57.5 800.12,-57.5"/>
<text text-anchor="start" x="808.12" y="-76" font-family="Helvetica,sans-Serif" font-size="10.00">include/Scenes/TexWrapCube</text>
<text text-anchor="middle" x="873.75" y="-64" font-family="Helvetica,sans-Serif" font-size="10.00">Scene.h</text>
</a>
</g>
</g>
<!-- Node9&#45;&gt;Node18 -->
<g id="edge28" class="edge">
<title>Node9&#45;&gt;Node18</title>
<path fill="none" stroke="midnightblue" d="M873.75,-115.83C873.75,-107.23 873.75,-97.31 873.75,-89.35"/>
<polygon fill="midnightblue" stroke="midnightblue" points="870.25,-115.76 873.75,-125.76 877.25,-115.76 870.25,-115.76"/>
</g>
<!-- Node19 -->
<g id="node19" class="node">
<title>Node19</title>
<g id="a_node19"><a xlink:href="_x_mutual_scene_8h.html" target="_top" xlink:title=" ">
<polygon fill="none" stroke="black" points="965.62,-63.5 965.62,-83.5 1121.88,-83.5 1121.88,-63.5 965.62,-63.5"/>
<text text-anchor="middle" x="1043.75" y="-70" font-family="Helvetica,sans-Serif" font-size="10.00">include/Scenes/XMutualScene.h</text>
</a>
</g>
</g>
<!-- Node9&#45;&gt;Node19 -->
<g id="edge30" class="edge">
<title>Node9&#45;&gt;Node19</title>
<path fill="none" stroke="midnightblue" d="M908.52,-123.02C941.29,-111.27 989.59,-93.93 1018.72,-83.48"/>
<polygon fill="midnightblue" stroke="midnightblue" points="907.7,-119.96 899.47,-126.63 910.06,-126.55 907.7,-119.96"/>
</g>
<!-- Node10&#45;&gt;Node4 -->
<g id="edge13" class="edge">
<title>Node10&#45;&gt;Node4</title>
<path fill="none" stroke="midnightblue" d="M1169.28,-61.08C1119.33,-49.32 1042.52,-31.23 996.79,-20.46"/>
<polygon fill="midnightblue" stroke="midnightblue" points="1168.28,-64.68 1178.81,-63.56 1169.88,-57.87 1168.28,-64.68"/>
</g>
<!-- Node11&#45;&gt;Node4 -->
<g id="edge15" class="edge">
<title>Node11&#45;&gt;Node4</title>
<path fill="none" stroke="midnightblue" d="M1302.76,-56.73C1186.89,-38.05 1062.16,-23.14 999.36,-16"/>
<polygon fill="midnightblue" stroke="midnightblue" points="1302.15,-60.34 1312.58,-58.49 1303.27,-53.43 1302.15,-60.34"/>
</g>
<!-- Node12&#45;&gt;Node4 -->
<g id="edge17" class="edge">
<title>Node12&#45;&gt;Node4</title>
<path fill="none" stroke="midnightblue" d="M1461.1,-56.87C1283.1,-31.1 1083.13,-18.25 999.11,-13.58"/>
<polygon fill="midnightblue" stroke="midnightblue" points="1460.57,-60.48 1470.98,-58.47 1461.59,-53.55 1460.57,-60.48"/>
</g>
<!-- Node13&#45;&gt;Node4 -->
<g id="edge19" class="edge">
<title>Node13&#45;&gt;Node4</title>
<path fill="none" stroke="midnightblue" d="M153.85,-56.99C453.15,-20.79 801.48,-13.42 918.33,-11.89"/>
<polygon fill="midnightblue" stroke="midnightblue" points="153.72,-53.6 144.22,-58.29 154.57,-60.55 153.72,-53.6"/>
</g>
<!-- Node14&#45;&gt;Node4 -->
<g id="edge21" class="edge">
<title>Node14&#45;&gt;Node4</title>
<path fill="none" stroke="midnightblue" d="M310.03,-56.96C546.41,-26 817.34,-15.57 918.26,-12.56"/>
<polygon fill="midnightblue" stroke="midnightblue" points="309.61,-53.62 300.15,-58.4 310.53,-60.55 309.61,-53.62"/>
</g>
<!-- Node15&#45;&gt;Node4 -->
<g id="edge23" class="edge">
<title>Node15&#45;&gt;Node4</title>
<path fill="none" stroke="midnightblue" d="M465.83,-56.95C640.26,-32.16 835.35,-18.8 918.24,-13.8"/>
<polygon fill="midnightblue" stroke="midnightblue" points="465.56,-53.6 456.16,-58.49 466.56,-60.53 465.56,-53.6"/>
</g>
<!-- Node16&#45;&gt;Node4 -->
<g id="edge25" class="edge">
<title>Node16&#45;&gt;Node4</title>
<path fill="none" stroke="midnightblue" d="M614.17,-56.84C730.41,-37.37 855.56,-22.72 918.38,-15.8"/>
<polygon fill="midnightblue" stroke="midnightblue" points="613.95,-53.49 604.67,-58.61 615.11,-60.4 613.95,-53.49"/>
</g>
<!-- Node17&#45;&gt;Node4 -->
<g id="edge27" class="edge">
<title>Node17&#45;&gt;Node4</title>
<path fill="none" stroke="midnightblue" d="M749.85,-61.08C799.41,-49.32 875.63,-31.23 921,-20.46"/>
<polygon fill="midnightblue" stroke="midnightblue" points="749.32,-57.85 740.4,-63.56 750.93,-64.66 749.32,-57.85"/>
</g>
<!-- Node18&#45;&gt;Node4 -->
<g id="edge29" class="edge">
<title>Node18&#45;&gt;Node4</title>
<path fill="none" stroke="midnightblue" d="M903.19,-51.37C918.03,-40.72 935.23,-28.38 946.51,-20.28"/>
<polygon fill="midnightblue" stroke="midnightblue" points="901.41,-49.06 895.33,-57.73 905.49,-54.75 901.41,-49.06"/>
</g>
<!-- Node19&#45;&gt;Node4 -->
<g id="edge31" class="edge">
<title>Node19&#45;&gt;Node4</title>
<path fill="none" stroke="midnightblue" d="M1022.8,-57.46C1006.6,-45.84 984.72,-30.14 971.18,-20.42"/>
<polygon fill="midnightblue" stroke="midnightblue" points="1020.41,-60.77 1030.57,-63.76 1024.49,-55.09 1020.41,-60.77"/>
</g>
<!-- Node20&#45;&gt;Node3 -->
<g id="edge33" class="edge">
<title>Node20&#45;&gt;Node3</title>
<path fill="none" stroke="midnightblue" d="M1083.33,-135C1186.6,-133.24 1420.05,-125.31 1612.75,-90 1621.43,-88.41 1630.71,-85.96 1639.05,-83.48"/>
<polygon fill="midnightblue" stroke="midnightblue" points="1083.51,-131.52 1073.57,-135.17 1083.62,-138.52 1083.51,-131.52"/>
</g>
<!-- Node20&#45;&gt;Node10 -->
<g id="edge34" class="edge">
<title>Node20&#45;&gt;Node10</title>
<path fill="none" stroke="midnightblue" d="M1067.26,-123.33C1103.51,-111.57 1157.57,-94.03 1190.07,-83.48"/>
<polygon fill="midnightblue" stroke="midnightblue" points="1066.52,-120.21 1058.09,-126.63 1068.68,-126.87 1066.52,-120.21"/>
</g>
<!-- Node20&#45;&gt;Node11 -->
<g id="edge35" class="edge">
<title>Node20&#45;&gt;Node11</title>
<path fill="none" stroke="midnightblue" d="M1082.84,-127.2C1138.28,-118.41 1227.74,-103.92 1304.75,-90 1307.64,-89.48 1310.58,-88.94 1313.56,-88.38"/>
<polygon fill="midnightblue" stroke="midnightblue" points="1082.55,-123.86 1073.22,-128.88 1083.64,-130.77 1082.55,-123.86"/>
</g>
<!-- Node20&#45;&gt;Node12 -->
<g id="edge36" class="edge">
<title>Node20&#45;&gt;Node12</title>
<path fill="none" stroke="midnightblue" d="M1083.13,-131.6C1165.08,-125.24 1326.72,-111.15 1462.75,-90 1465.77,-89.53 1468.86,-89.02 1471.97,-88.48"/>
<polygon fill="midnightblue" stroke="midnightblue" points="1083.04,-128.18 1073.34,-132.43 1083.58,-135.16 1083.04,-128.18"/>
</g>
<!-- Node20&#45;&gt;Node13 -->
<g id="edge37" class="edge">
<title>Node20&#45;&gt;Node13</title>
<path fill="none" stroke="midnightblue" d="M976.53,-127.38C972.21,-126.86 967.91,-126.39 963.75,-126 604.53,-92.26 511.09,-132.02 152.75,-90 149.62,-89.63 146.43,-89.21 143.22,-88.76"/>
<polygon fill="midnightblue" stroke="midnightblue" points="975.86,-130.95 986.22,-128.75 976.75,-124.01 975.86,-130.95"/>
</g>
<!-- Node20&#45;&gt;Node14 -->
<g id="edge38" class="edge">
<title>Node20&#45;&gt;Node14</title>
<path fill="none" stroke="midnightblue" d="M976.52,-127.43C972.21,-126.9 967.91,-126.41 963.75,-126 673.63,-97.2 598.01,-126.5 308.75,-90 305.6,-89.6 302.39,-89.15 299.14,-88.66"/>
<polygon fill="midnightblue" stroke="midnightblue" points="975.85,-131 986.21,-128.82 976.75,-124.06 975.85,-131"/>
</g>
<!-- Node20&#45;&gt;Node15 -->
<g id="edge39" class="edge">
<title>Node20&#45;&gt;Node15</title>
<path fill="none" stroke="midnightblue" d="M976.51,-127.51C972.2,-126.96 967.9,-126.45 963.75,-126 742.68,-102.15 685.11,-119.73 464.75,-90 461.6,-89.58 458.39,-89.1 455.15,-88.59"/>
<polygon fill="midnightblue" stroke="midnightblue" points="975.83,-131.08 986.2,-128.92 976.75,-124.14 975.83,-131.08"/>
</g>
<!-- Node20&#45;&gt;Node16 -->
<g id="edge40" class="edge">
<title>Node20&#45;&gt;Node16</title>
<path fill="none" stroke="midnightblue" d="M976.5,-127.64C972.19,-127.07 967.9,-126.51 963.75,-126 808.11,-106.82 767.7,-114.11 612.75,-90 609.77,-89.54 606.72,-89.03 603.65,-88.49"/>
<polygon fill="midnightblue" stroke="midnightblue" points="975.8,-131.22 986.18,-129.11 976.75,-124.28 975.8,-131.22"/>
</g>
<!-- Node20&#45;&gt;Node17 -->
<g id="edge41" class="edge">
<title>Node20&#45;&gt;Node17</title>
<path fill="none" stroke="midnightblue" d="M976.75,-125.64C914.08,-113.99 810.65,-94.75 750.08,-83.49"/>
<polygon fill="midnightblue" stroke="midnightblue" points="975.73,-129.2 986.21,-127.59 977.01,-122.32 975.73,-129.2"/>
</g>
<!-- Node20&#45;&gt;Node18 -->
<g id="edge42" class="edge">
<title>Node20&#45;&gt;Node18</title>
<path fill="none" stroke="midnightblue" d="M997.04,-122.71C972.19,-112.99 937.95,-99.6 911.86,-89.4"/>
<polygon fill="midnightblue" stroke="midnightblue" points="995.48,-126.25 1006.07,-126.63 998.03,-119.73 995.48,-126.25"/>
</g>
<!-- Node20&#45;&gt;Node19 -->
<g id="edge43" class="edge">
<title>Node20&#45;&gt;Node19</title>
<path fill="none" stroke="midnightblue" d="M1034.15,-116.35C1036.69,-105.25 1039.77,-91.82 1041.75,-83.22"/>
<polygon fill="midnightblue" stroke="midnightblue" points="1030.58,-115.23 1031.76,-125.76 1037.4,-116.8 1030.58,-115.23"/>
</g>
<!-- Node21&#45;&gt;Node2 -->
<g id="edge48" class="edge">
<title>Node21&#45;&gt;Node2</title>
<path fill="none" stroke="midnightblue" d="M1738.98,-235.45C1721.25,-225.4 1697.9,-212.16 1682.62,-203.5"/>
<polygon fill="midnightblue" stroke="midnightblue" points="1736.74,-238.78 1747.17,-240.66 1740.19,-232.69 1736.74,-238.78"/>
</g>
<!-- Node22 -->
<g id="node22" class="node">
<title>Node22</title>
<g id="a_node22"><a xlink:href="_surface_8cpp.html" target="_top" xlink:title=" ">
<polygon fill="none" stroke="black" points="1733.62,-183.5 1733.62,-203.5 1817.88,-203.5 1817.88,-183.5 1733.62,-183.5"/>
<text text-anchor="middle" x="1775.75" y="-190" font-family="Helvetica,sans-Serif" font-size="10.00">src/Surface.cpp</text>
</a>
</g>
</g>
<!-- Node21&#45;&gt;Node22 -->
<g id="edge49" class="edge">
<title>Node21&#45;&gt;Node22</title>
<path fill="none" stroke="midnightblue" d="M1767.94,-230.31C1769.95,-221.08 1772.26,-210.48 1773.85,-203.21"/>
<polygon fill="midnightblue" stroke="midnightblue" points="1764.34,-229.39 1765.62,-239.91 1771.18,-230.88 1764.34,-229.39"/>
</g>
</g>
</svg>
