<?xml version="1.0" encoding="UTF-8" standalone="no"?>
<!DOCTYPE svg PUBLIC "-//W3C//DTD SVG 1.1//EN"
 "http://www.w3.org/Graphics/SVG/1.1/DTD/svg11.dtd">
<!-- Generated by graphviz version 8.1.0 (20230707.0739)
 -->
<!-- Title: include/EngineException.h Pages: 1 -->
<svg width="1340pt" height="452pt"
 viewBox="0.00 0.00 1339.80 452.00" xmlns="http://www.w3.org/2000/svg" xmlns:xlink="http://www.w3.org/1999/xlink">
<g id="graph0" class="graph" transform="scale(1 1) rotate(0) translate(4 448)">
<title>include/EngineException.h</title>
<!-- Node1 -->
<g id="node1" class="node">
<title>Node1</title>
<g id="a_node1"><a xlink:title=" ">
<polygon fill="#bfbfbf" stroke="black" points="111.38,-423.5 111.38,-443.5 242.88,-443.5 242.88,-423.5 111.38,-423.5"/>
<text text-anchor="middle" x="177.12" y="-430" font-family="Helvetica,sans-Serif" font-size="10.00">include/EngineException.h</text>
</a>
</g>
</g>
<!-- Node2 -->
<g id="node2" class="node">
<title>Node2</title>
<g id="a_node2"><a xlink:href="_graphics_8h.html" target="_top" xlink:title=" ">
<polygon fill="none" stroke="black" points="171.62,-309.5 171.62,-329.5 268.62,-329.5 268.62,-309.5 171.62,-309.5"/>
<text text-anchor="middle" x="220.12" y="-316" font-family="Helvetica,sans-Serif" font-size="10.00">include/Graphics.h</text>
</a>
</g>
</g>
<!-- Node1&#45;&gt;Node2 -->
<g id="edge1" class="edge">
<title>Node1&#45;&gt;Node2</title>
<path fill="none" stroke="midnightblue" d="M181.49,-413.29C184.82,-399.82 189.9,-381.51 196.12,-366 201.45,-352.74 209.49,-338.28 214.78,-329.3"/>
<polygon fill="midnightblue" stroke="midnightblue" points="177.92,-412.16 179.03,-422.7 184.74,-413.78 177.92,-412.16"/>
</g>
<!-- Node7 -->
<g id="node7" class="node">
<title>Node7</title>
<g id="a_node7"><a xlink:href="_main_window_8h.html" target="_top" xlink:title=" ">
<polygon fill="none" stroke="black" points="2.38,-252.5 2.38,-272.5 115.88,-272.5 115.88,-252.5 2.38,-252.5"/>
<text text-anchor="middle" x="59.12" y="-259" font-family="Helvetica,sans-Serif" font-size="10.00">include/MainWindow.h</text>
</a>
</g>
</g>
<!-- Node1&#45;&gt;Node7 -->
<g id="edge46" class="edge">
<title>Node1&#45;&gt;Node7</title>
<path fill="none" stroke="midnightblue" d="M164.96,-415.08C140.03,-379.37 83.9,-298.99 65.27,-272.3"/>
<polygon fill="midnightblue" stroke="midnightblue" points="162.52,-416.69 171.11,-422.89 168.26,-412.68 162.52,-416.69"/>
</g>
<!-- Node23 -->
<g id="node23" class="node">
<title>Node23</title>
<g id="a_node23"><a xlink:href="_surface_8h.html" target="_top" xlink:title=" ">
<polygon fill="none" stroke="black" points="205.62,-366.5 205.62,-386.5 296.62,-386.5 296.62,-366.5 205.62,-366.5"/>
<text text-anchor="middle" x="251.12" y="-373" font-family="Helvetica,sans-Serif" font-size="10.00">include/Surface.h</text>
</a>
</g>
</g>
<!-- Node1&#45;&gt;Node23 -->
<g id="edge47" class="edge">
<title>Node1&#45;&gt;Node23</title>
<path fill="none" stroke="midnightblue" d="M197.54,-417.32C210.86,-407.43 227.79,-394.84 239.02,-386.5"/>
<polygon fill="midnightblue" stroke="midnightblue" points="195.95,-414.89 190.01,-423.66 200.13,-420.51 195.95,-414.89"/>
</g>
<!-- Node3 -->
<g id="node3" class="node">
<title>Node3</title>
<g id="a_node3"><a xlink:href="_engine_8h.html" target="_top" xlink:title=" ">
<polygon fill="none" stroke="black" points="248.12,-63.5 248.12,-83.5 336.12,-83.5 336.12,-63.5 248.12,-63.5"/>
<text text-anchor="middle" x="292.12" y="-70" font-family="Helvetica,sans-Serif" font-size="10.00">include/Engine.h</text>
</a>
</g>
</g>
<!-- Node2&#45;&gt;Node3 -->
<g id="edge2" class="edge">
<title>Node2&#45;&gt;Node3</title>
<path fill="none" stroke="midnightblue" d="M225.81,-299.24C240.47,-249.55 279.15,-118.48 289.53,-83.3"/>
<polygon fill="midnightblue" stroke="midnightblue" points="222.25,-297.94 222.77,-308.53 228.96,-299.93 222.25,-297.94"/>
</g>
<!-- Node6 -->
<g id="node6" class="node">
<title>Node6</title>
<g id="a_node6"><a xlink:href="_main_window_8cpp.html" target="_top" xlink:title=" ">
<polygon fill="none" stroke="black" points="128.75,-0.5 128.75,-20.5 235.5,-20.5 235.5,-0.5 128.75,-0.5"/>
<text text-anchor="middle" x="182.12" y="-7" font-family="Helvetica,sans-Serif" font-size="10.00">src/MainWindow.cpp</text>
</a>
</g>
</g>
<!-- Node2&#45;&gt;Node6 -->
<g id="edge45" class="edge">
<title>Node2&#45;&gt;Node6</title>
<path fill="none" stroke="midnightblue" d="M209.68,-300C198.43,-278.3 182.12,-240.93 182.12,-206.5 182.12,-206.5 182.12,-206.5 182.12,-141.5 182.12,-95.91 182.12,-41.33 182.12,-20.33"/>
<polygon fill="midnightblue" stroke="midnightblue" points="207.01,-301.42 214.84,-308.56 213.17,-298.1 207.01,-301.42"/>
</g>
<!-- Node2&#45;&gt;Node7 -->
<g id="edge6" class="edge">
<title>Node2&#45;&gt;Node7</title>
<path fill="none" stroke="midnightblue" d="M183.84,-306.11C153.9,-295.88 112.12,-281.6 85.34,-272.46"/>
<polygon fill="midnightblue" stroke="midnightblue" points="182.3,-309.62 192.9,-309.54 184.57,-303 182.3,-309.62"/>
</g>
<!-- Node8 -->
<g id="node8" class="node">
<title>Node8</title>
<g id="a_node8"><a xlink:href="_graphics_8cpp.html" target="_top" xlink:title=" ">
<polygon fill="none" stroke="black" points="64,-195.5 64,-215.5 154.25,-215.5 154.25,-195.5 64,-195.5"/>
<text text-anchor="middle" x="109.12" y="-202" font-family="Helvetica,sans-Serif" font-size="10.00">src/Graphics.cpp</text>
</a>
</g>
</g>
<!-- Node2&#45;&gt;Node8 -->
<g id="edge44" class="edge">
<title>Node2&#45;&gt;Node8</title>
<path fill="none" stroke="midnightblue" d="M201.26,-302.99C191.16,-294.44 178.66,-283.46 168.12,-273 148.41,-253.42 127.25,-228.5 116.43,-215.43"/>
<polygon fill="midnightblue" stroke="midnightblue" points="198.5,-306.08 208.42,-309.81 202.99,-300.71 198.5,-306.08"/>
</g>
<!-- Node9 -->
<g id="node9" class="node">
<title>Node9</title>
<g id="a_node9"><a xlink:href="_pipeline_8h.html" target="_top" xlink:title=" ">
<polygon fill="none" stroke="black" points="752.88,-195.5 752.88,-215.5 845.38,-215.5 845.38,-195.5 752.88,-195.5"/>
<text text-anchor="middle" x="799.12" y="-202" font-family="Helvetica,sans-Serif" font-size="10.00">include/Pipeline.h</text>
</a>
</g>
</g>
<!-- Node2&#45;&gt;Node9 -->
<g id="edge11" class="edge">
<title>Node2&#45;&gt;Node9</title>
<path fill="none" stroke="midnightblue" d="M279.27,-308.98C452.39,-288.28 503.58,-319.94 667.12,-273 713.5,-259.69 762.95,-230.07 785.95,-215.27"/>
<polygon fill="midnightblue" stroke="midnightblue" points="279,-305.61 269.51,-310.31 279.86,-312.56 279,-305.61"/>
</g>
<!-- Node21 -->
<g id="node21" class="node">
<title>Node21</title>
<g id="a_node21"><a xlink:href="_pube_screen_transformer_8h.html" target="_top" xlink:title=" ">
<polygon fill="none" stroke="black" points="496,-252.5 496,-272.5 658.25,-272.5 658.25,-252.5 496,-252.5"/>
<text text-anchor="middle" x="577.12" y="-259" font-family="Helvetica,sans-Serif" font-size="10.00">include/PubeScreenTransformer.h</text>
</a>
</g>
</g>
<!-- Node2&#45;&gt;Node21 -->
<g id="edge34" class="edge">
<title>Node2&#45;&gt;Node21</title>
<path fill="none" stroke="midnightblue" d="M279.35,-308.82C368.13,-294.83 458.62,-281.18 516.68,-272.49"/>
<polygon fill="midnightblue" stroke="midnightblue" points="278.87,-305.51 269.54,-310.53 279.96,-312.43 278.87,-305.51"/>
</g>
<!-- Node22 -->
<g id="node22" class="node">
<title>Node22</title>
<g id="a_node22"><a xlink:href="_scene_8h.html" target="_top" xlink:title=" ">
<polygon fill="none" stroke="black" points="634.25,-132.5 634.25,-152.5 720,-152.5 720,-132.5 634.25,-132.5"/>
<text text-anchor="middle" x="677.12" y="-139" font-family="Helvetica,sans-Serif" font-size="10.00">include/Scene.h</text>
</a>
</g>
</g>
<!-- Node2&#45;&gt;Node22 -->
<g id="edge36" class="edge">
<title>Node2&#45;&gt;Node22</title>
<path fill="none" stroke="midnightblue" d="M253.65,-305.66C341.85,-271.89 578.69,-181.19 653.88,-152.4"/>
<polygon fill="midnightblue" stroke="midnightblue" points="252.5,-302.74 244.42,-309.58 255.01,-309.27 252.5,-302.74"/>
</g>
<!-- Node4 -->
<g id="node4" class="node">
<title>Node4</title>
<g id="a_node4"><a xlink:href="_engine_8cpp.html" target="_top" xlink:title=" ">
<polygon fill="none" stroke="black" points="614.5,-0.5 614.5,-20.5 695.75,-20.5 695.75,-0.5 614.5,-0.5"/>
<text text-anchor="middle" x="655.12" y="-7" font-family="Helvetica,sans-Serif" font-size="10.00">src/Engine.cpp</text>
</a>
</g>
</g>
<!-- Node3&#45;&gt;Node4 -->
<g id="edge3" class="edge">
<title>Node3&#45;&gt;Node4</title>
<path fill="none" stroke="midnightblue" d="M330.5,-60.6C335.4,-59.28 340.36,-58.04 345.12,-57 440.78,-36.1 555.18,-22.1 614.67,-15.62"/>
<polygon fill="midnightblue" stroke="midnightblue" points="329.67,-57.48 320.99,-63.56 331.57,-64.22 329.67,-57.48"/>
</g>
<!-- Node5 -->
<g id="node5" class="node">
<title>Node5</title>
<g id="a_node5"><a xlink:href="_main_8cpp.html" target="_top" xlink:title=" ">
<polygon fill="none" stroke="black" points="0,-0.5 0,-20.5 72.25,-20.5 72.25,-0.5 0,-0.5"/>
<text text-anchor="middle" x="36.12" y="-7" font-family="Helvetica,sans-Serif" font-size="10.00">src/Main.cpp</text>
</a>
</g>
</g>
<!-- Node3&#45;&gt;Node5 -->
<g id="edge4" class="edge">
<title>Node3&#45;&gt;Node5</title>
<path fill="none" stroke="midnightblue" d="M244.09,-61.05C194.11,-49.15 117.02,-30.77 72.07,-20.06"/>
<polygon fill="midnightblue" stroke="midnightblue" points="243.09,-64.65 253.63,-63.56 244.71,-57.84 243.09,-64.65"/>
</g>
<!-- Node3&#45;&gt;Node6 -->
<g id="edge5" class="edge">
<title>Node3&#45;&gt;Node6</title>
<path fill="none" stroke="midnightblue" d="M266.75,-58.43C245.64,-46.72 216.22,-30.41 198.21,-20.42"/>
<polygon fill="midnightblue" stroke="midnightblue" points="264.92,-61.97 275.36,-63.76 268.32,-55.85 264.92,-61.97"/>
</g>
<!-- Node7&#45;&gt;Node4 -->
<g id="edge7" class="edge">
<title>Node7&#45;&gt;Node4</title>
<path fill="none" stroke="midnightblue" d="M105.82,-249.05C125.41,-241.95 147.27,-231.33 163.12,-216 219.43,-161.55 175.24,-102.31 239.12,-57 298.83,-14.65 522.28,-10.78 614.71,-11.05"/>
<polygon fill="midnightblue" stroke="midnightblue" points="104.87,-246.02 96.53,-252.55 107.12,-252.65 104.87,-246.02"/>
</g>
<!-- Node7&#45;&gt;Node5 -->
<g id="edge9" class="edge">
<title>Node7&#45;&gt;Node5</title>
<path fill="none" stroke="midnightblue" d="M41.01,-244.94C33.65,-236.99 25.98,-226.85 22.12,-216 -1.53,-149.41 11.62,-126.88 22.12,-57 24.09,-43.92 29.07,-29.42 32.52,-20.38"/>
<polygon fill="midnightblue" stroke="midnightblue" points="38.14,-247.02 47.68,-251.62 43.1,-242.07 38.14,-247.02"/>
</g>
<!-- Node7&#45;&gt;Node6 -->
<g id="edge10" class="edge">
<title>Node7&#45;&gt;Node6</title>
<path fill="none" stroke="midnightblue" d="M54.39,-242.21C51.93,-228.69 50.32,-210.37 55.12,-195 79.15,-118.08 147.97,-45.02 172.94,-20.32"/>
<polygon fill="midnightblue" stroke="midnightblue" points="51.11,-242.61 56.64,-251.65 57.96,-241.14 51.11,-242.61"/>
</g>
<!-- Node7&#45;&gt;Node8 -->
<g id="edge8" class="edge">
<title>Node7&#45;&gt;Node8</title>
<path fill="none" stroke="midnightblue" d="M74.1,-245.03C83,-235.24 93.94,-223.2 101.2,-215.21"/>
<polygon fill="midnightblue" stroke="midnightblue" points="72.07,-242.15 67.94,-251.91 77.25,-246.86 72.07,-242.15"/>
</g>
<!-- Node10 -->
<g id="node10" class="node">
<title>Node10</title>
<g id="a_node10"><a xlink:href="_solid_effect_8h.html" target="_top" xlink:title=" ">
<polygon fill="none" stroke="black" points="478.38,-132.5 478.38,-152.5 615.88,-152.5 615.88,-132.5 478.38,-132.5"/>
<text text-anchor="middle" x="547.12" y="-139" font-family="Helvetica,sans-Serif" font-size="10.00">include/Effects/SolidEffect.h</text>
</a>
</g>
</g>
<!-- Node9&#45;&gt;Node10 -->
<g id="edge12" class="edge">
<title>Node9&#45;&gt;Node10</title>
<path fill="none" stroke="midnightblue" d="M751.65,-193.01C703.06,-181.25 628.54,-163.21 584.14,-152.46"/>
<polygon fill="midnightblue" stroke="midnightblue" points="750.67,-196.61 761.21,-195.56 752.32,-189.81 750.67,-196.61"/>
</g>
<!-- Node11 -->
<g id="node11" class="node">
<title>Node11</title>
<g id="a_node11"><a xlink:href="_cube_solid_scene_8h.html" target="_top" xlink:title=" ">
<polygon fill="none" stroke="black" points="666.12,-57.5 666.12,-89.5 796.12,-89.5 796.12,-57.5 666.12,-57.5"/>
<text text-anchor="start" x="674.12" y="-76" font-family="Helvetica,sans-Serif" font-size="10.00">include/Scenes/CubeSolid</text>
<text text-anchor="middle" x="731.12" y="-64" font-family="Helvetica,sans-Serif" font-size="10.00">Scene.h</text>
</a>
</g>
</g>
<!-- Node9&#45;&gt;Node11 -->
<g id="edge30" class="edge">
<title>Node9&#45;&gt;Node11</title>
<path fill="none" stroke="midnightblue" d="M785.61,-187.13C779.53,-178.87 772.53,-168.7 767.12,-159 754.1,-135.59 742.66,-106.52 736.34,-89.29"/>
<polygon fill="midnightblue" stroke="midnightblue" points="783.35,-188.94 792.17,-194.8 788.93,-184.71 783.35,-188.94"/>
</g>
<!-- Node12 -->
<g id="node12" class="node">
<title>Node12</title>
<g id="a_node12"><a xlink:href="_double_cube_scene_8h.html" target="_top" xlink:title=" ">
<polygon fill="none" stroke="black" points="510,-57.5 510,-89.5 648.25,-89.5 648.25,-57.5 510,-57.5"/>
<text text-anchor="start" x="518" y="-76" font-family="Helvetica,sans-Serif" font-size="10.00">include/Scenes/DoubleCube</text>
<text text-anchor="middle" x="579.12" y="-64" font-family="Helvetica,sans-Serif" font-size="10.00">Scene.h</text>
</a>
</g>
</g>
<!-- Node9&#45;&gt;Node12 -->
<g id="edge33" class="edge">
<title>Node9&#45;&gt;Node12</title>
<path fill="none" stroke="midnightblue" d="M742.38,-205.24C657.55,-205 503.89,-198.89 469.12,-159 459.49,-147.94 461.25,-138.38 469.12,-126 480.1,-108.74 498.55,-97.17 517.24,-89.45"/>
<polygon fill="midnightblue" stroke="midnightblue" points="742.12,-208.74 752.12,-205.24 742.12,-201.74 742.12,-208.74"/>
</g>
<!-- Node13 -->
<g id="node13" class="node">
<title>Node13</title>
<g id="a_node13"><a xlink:href="_texture_effect_8h.html" target="_top" xlink:title=" ">
<polygon fill="none" stroke="black" points="776.12,-132.5 776.12,-152.5 924.12,-152.5 924.12,-132.5 776.12,-132.5"/>
<text text-anchor="middle" x="850.12" y="-139" font-family="Helvetica,sans-Serif" font-size="10.00">include/Effects/TextureEffect.h</text>
</a>
</g>
</g>
<!-- Node9&#45;&gt;Node13 -->
<g id="edge17" class="edge">
<title>Node9&#45;&gt;Node13</title>
<path fill="none" stroke="midnightblue" d="M813.41,-187.42C822.98,-175.97 835.19,-161.37 842.83,-152.22"/>
<polygon fill="midnightblue" stroke="midnightblue" points="810.16,-184.84 806.43,-194.76 815.53,-189.33 810.16,-184.84"/>
</g>
<!-- Node14 -->
<g id="node14" class="node">
<title>Node14</title>
<g id="a_node14"><a xlink:href="_cube_skin_scene_8h.html" target="_top" xlink:title=" ">
<polygon fill="none" stroke="black" points="814.25,-63.5 814.25,-83.5 978,-83.5 978,-63.5 814.25,-63.5"/>
<text text-anchor="middle" x="896.12" y="-70" font-family="Helvetica,sans-Serif" font-size="10.00">include/Scenes/CubeSkinScene.h</text>
</a>
</g>
</g>
<!-- Node9&#45;&gt;Node14 -->
<g id="edge29" class="edge">
<title>Node9&#45;&gt;Node14</title>
<path fill="none" stroke="midnightblue" d="M855.93,-200.28C884,-194.99 915.55,-183.53 933.12,-159 950.94,-134.14 921.58,-99.34 905.52,-83.27"/>
<polygon fill="midnightblue" stroke="midnightblue" points="855.67,-196.94 846.37,-202.02 856.81,-203.85 855.67,-196.94"/>
</g>
<!-- Node15 -->
<g id="node15" class="node">
<title>Node15</title>
<g id="a_node15"><a xlink:href="_vertex_color_effect_8h.html" target="_top" xlink:title=" ">
<polygon fill="none" stroke="black" points="980.25,-126.5 980.25,-158.5 1114,-158.5 1114,-126.5 980.25,-126.5"/>
<text text-anchor="start" x="988.25" y="-145" font-family="Helvetica,sans-Serif" font-size="10.00">include/Effects/VertexColor</text>
<text text-anchor="middle" x="1047.12" y="-133" font-family="Helvetica,sans-Serif" font-size="10.00">Effect.h</text>
</a>
</g>
</g>
<!-- Node9&#45;&gt;Node15 -->
<g id="edge20" class="edge">
<title>Node9&#45;&gt;Node15</title>
<path fill="none" stroke="midnightblue" d="M845.91,-192.99C885.63,-183.22 942.9,-169.14 986.19,-158.49"/>
<polygon fill="midnightblue" stroke="midnightblue" points="845.33,-189.78 836.45,-195.56 847,-196.57 845.33,-189.78"/>
</g>
<!-- Node16 -->
<g id="node16" class="node">
<title>Node16</title>
<g id="a_node16"><a xlink:href="_cube_vertex_color_scene_8h.html" target="_top" xlink:title=" ">
<polygon fill="none" stroke="black" points="995.75,-57.5 995.75,-89.5 1132.5,-89.5 1132.5,-57.5 995.75,-57.5"/>
<text text-anchor="start" x="1003.75" y="-76" font-family="Helvetica,sans-Serif" font-size="10.00">include/Scenes/CubeVertex</text>
<text text-anchor="middle" x="1064.12" y="-64" font-family="Helvetica,sans-Serif" font-size="10.00">ColorScene.h</text>
</a>
</g>
</g>
<!-- Node9&#45;&gt;Node16 -->
<g id="edge31" class="edge">
<title>Node9&#45;&gt;Node16</title>
<path fill="none" stroke="midnightblue" d="M856.09,-205.07C939.64,-204.55 1089.2,-198.03 1123.12,-159 1142.96,-136.18 1110.9,-106.66 1086.81,-89.24"/>
<polygon fill="midnightblue" stroke="midnightblue" points="856.24,-201.57 846.25,-205.11 856.26,-208.57 856.24,-201.57"/>
</g>
<!-- Node17 -->
<g id="node17" class="node">
<title>Node17</title>
<g id="a_node17"><a xlink:href="_vertex_position_color_effect_8h.html" target="_top" xlink:title=" ">
<polygon fill="none" stroke="black" points="1169.88,-126.5 1169.88,-158.5 1316.38,-158.5 1316.38,-126.5 1169.88,-126.5"/>
<text text-anchor="start" x="1177.88" y="-145" font-family="Helvetica,sans-Serif" font-size="10.00">include/Effects/VertexPosition</text>
<text text-anchor="middle" x="1243.12" y="-133" font-family="Helvetica,sans-Serif" font-size="10.00">ColorEffect.h</text>
</a>
</g>
</g>
<!-- Node9&#45;&gt;Node17 -->
<g id="edge23" class="edge">
<title>Node9&#45;&gt;Node17</title>
<path fill="none" stroke="midnightblue" d="M856.01,-198.13C926.56,-190.03 1050.45,-175.14 1156.12,-159 1160.67,-158.31 1165.35,-157.56 1170.07,-156.79"/>
<polygon fill="midnightblue" stroke="midnightblue" points="855.69,-194.76 846.16,-199.37 856.49,-201.71 855.69,-194.76"/>
</g>
<!-- Node18 -->
<g id="node18" class="node">
<title>Node18</title>
<g id="a_node18"><a xlink:href="_cube_vertex_position_color_scene_8h.html" target="_top" xlink:title=" ">
<polygon fill="none" stroke="black" points="1162.75,-57.5 1162.75,-89.5 1299.5,-89.5 1299.5,-57.5 1162.75,-57.5"/>
<text text-anchor="start" x="1170.75" y="-76" font-family="Helvetica,sans-Serif" font-size="10.00">include/Scenes/CubeVertex</text>
<text text-anchor="middle" x="1231.12" y="-64" font-family="Helvetica,sans-Serif" font-size="10.00">PositionColorScene.h</text>
</a>
</g>
</g>
<!-- Node9&#45;&gt;Node18 -->
<g id="edge32" class="edge">
<title>Node9&#45;&gt;Node18</title>
<path fill="none" stroke="midnightblue" d="M856.01,-203.82C985.58,-201.69 1293.89,-193.05 1325.12,-159 1335.04,-148.19 1332.6,-138.62 1325.12,-126 1315.07,-109.03 1297.23,-97.28 1279.77,-89.34"/>
<polygon fill="midnightblue" stroke="midnightblue" points="856.09,-200.34 846.15,-203.99 856.2,-207.34 856.09,-200.34"/>
</g>
<!-- Node19 -->
<g id="node19" class="node">
<title>Node19</title>
<g id="a_node19"><a xlink:href="_wave_vertex_texture_effect_8h.html" target="_top" xlink:title=" ">
<polygon fill="none" stroke="black" points="286.5,-126.5 286.5,-158.5 421.75,-158.5 421.75,-126.5 286.5,-126.5"/>
<text text-anchor="start" x="294.5" y="-145" font-family="Helvetica,sans-Serif" font-size="10.00">include/Effects/WaveVertex</text>
<text text-anchor="middle" x="354.12" y="-133" font-family="Helvetica,sans-Serif" font-size="10.00">TextureEffect.h</text>
</a>
</g>
</g>
<!-- Node9&#45;&gt;Node19 -->
<g id="edge26" class="edge">
<title>Node9&#45;&gt;Node19</title>
<path fill="none" stroke="midnightblue" d="M742.59,-198.51C671.05,-190.69 544.15,-175.96 436.12,-159 431.4,-158.26 426.53,-157.45 421.64,-156.61"/>
<polygon fill="midnightblue" stroke="midnightblue" points="741.83,-202.06 752.15,-199.66 742.59,-195.1 741.83,-202.06"/>
</g>
<!-- Node10&#45;&gt;Node11 -->
<g id="edge13" class="edge">
<title>Node10&#45;&gt;Node11</title>
<path fill="none" stroke="midnightblue" d="M581.8,-128.88C612.53,-117.68 657.47,-101.32 690.01,-89.47"/>
<polygon fill="midnightblue" stroke="midnightblue" points="580.76,-125.89 572.56,-132.6 583.15,-132.47 580.76,-125.89"/>
</g>
<!-- Node10&#45;&gt;Node12 -->
<g id="edge15" class="edge">
<title>Node10&#45;&gt;Node12</title>
<path fill="none" stroke="midnightblue" d="M556.02,-122.87C561.07,-112.31 567.29,-99.28 572,-89.41"/>
<polygon fill="midnightblue" stroke="midnightblue" points="552.46,-121.21 551.31,-131.74 558.78,-124.23 552.46,-121.21"/>
</g>
<!-- Node11&#45;&gt;Node4 -->
<g id="edge14" class="edge">
<title>Node11&#45;&gt;Node4</title>
<path fill="none" stroke="midnightblue" d="M704.43,-51.07C691.24,-40.49 676.06,-28.31 666.07,-20.28"/>
<polygon fill="midnightblue" stroke="midnightblue" points="701.74,-54.2 711.73,-57.73 706.12,-48.74 701.74,-54.2"/>
</g>
<!-- Node12&#45;&gt;Node4 -->
<g id="edge16" class="edge">
<title>Node12&#45;&gt;Node4</title>
<path fill="none" stroke="midnightblue" d="M605.82,-51.07C619.01,-40.49 634.19,-28.31 644.18,-20.28"/>
<polygon fill="midnightblue" stroke="midnightblue" points="604.13,-48.74 598.52,-57.73 608.51,-54.2 604.13,-48.74"/>
</g>
<!-- Node13&#45;&gt;Node14 -->
<g id="edge18" class="edge">
<title>Node13&#45;&gt;Node14</title>
<path fill="none" stroke="midnightblue" d="M862.28,-123.8C871.19,-110.82 882.91,-93.75 889.96,-83.48"/>
<polygon fill="midnightblue" stroke="midnightblue" points="858.91,-121.52 856.14,-131.74 864.68,-125.48 858.91,-121.52"/>
</g>
<!-- Node14&#45;&gt;Node4 -->
<g id="edge19" class="edge">
<title>Node14&#45;&gt;Node4</title>
<path fill="none" stroke="midnightblue" d="M850.43,-60.93C803.95,-49.17 732.9,-31.18 690.52,-20.46"/>
<polygon fill="midnightblue" stroke="midnightblue" points="849.27,-64.5 859.82,-63.56 850.99,-57.72 849.27,-64.5"/>
</g>
<!-- Node15&#45;&gt;Node16 -->
<g id="edge21" class="edge">
<title>Node15&#45;&gt;Node16</title>
<path fill="none" stroke="midnightblue" d="M1053.55,-116.19C1055.85,-107.13 1058.36,-97.21 1060.36,-89.33"/>
<polygon fill="midnightblue" stroke="midnightblue" points="1049.96,-115.08 1050.9,-125.63 1056.75,-116.8 1049.96,-115.08"/>
</g>
<!-- Node16&#45;&gt;Node4 -->
<g id="edge22" class="edge">
<title>Node16&#45;&gt;Node4</title>
<path fill="none" stroke="midnightblue" d="M985.46,-56.78C874.74,-38.34 756.33,-23.48 695.62,-16.22"/>
<polygon fill="midnightblue" stroke="midnightblue" points="984.71,-60.37 995.15,-58.58 985.87,-53.47 984.71,-60.37"/>
</g>
<!-- Node17&#45;&gt;Node18 -->
<g id="edge24" class="edge">
<title>Node17&#45;&gt;Node18</title>
<path fill="none" stroke="midnightblue" d="M1238.54,-115.89C1236.93,-106.91 1235.18,-97.13 1233.78,-89.33"/>
<polygon fill="midnightblue" stroke="midnightblue" points="1235.25,-116.4 1240.46,-125.63 1242.14,-115.17 1235.25,-116.4"/>
</g>
<!-- Node18&#45;&gt;Node4 -->
<g id="edge25" class="edge">
<title>Node18&#45;&gt;Node4</title>
<path fill="none" stroke="midnightblue" d="M1152.26,-58.56C1148.5,-58.01 1144.77,-57.48 1141.12,-57 976.47,-35.15 779.06,-20.09 695.57,-14.23"/>
<polygon fill="midnightblue" stroke="midnightblue" points="1151.49,-62.14 1161.9,-60.18 1152.55,-55.22 1151.49,-62.14"/>
</g>
<!-- Node20 -->
<g id="node20" class="node">
<title>Node20</title>
<g id="a_node20"><a xlink:href="_vertex_wave_scene_8h.html" target="_top" xlink:title=" ">
<polygon fill="none" stroke="black" points="354,-57.5 354,-89.5 492.25,-89.5 492.25,-57.5 354,-57.5"/>
<text text-anchor="start" x="362" y="-76" font-family="Helvetica,sans-Serif" font-size="10.00">include/Scenes/VertexWave</text>
<text text-anchor="middle" x="423.12" y="-64" font-family="Helvetica,sans-Serif" font-size="10.00">Scene.h</text>
</a>
</g>
</g>
<!-- Node19&#45;&gt;Node20 -->
<g id="edge27" class="edge">
<title>Node19&#45;&gt;Node20</title>
<path fill="none" stroke="midnightblue" d="M377.15,-119.15C387.25,-109.33 398.84,-98.08 407.85,-89.33"/>
<polygon fill="midnightblue" stroke="midnightblue" points="375.17,-116.15 370.44,-125.63 380.05,-121.18 375.17,-116.15"/>
</g>
<!-- Node20&#45;&gt;Node4 -->
<g id="edge28" class="edge">
<title>Node20&#45;&gt;Node4</title>
<path fill="none" stroke="midnightblue" d="M490.25,-54.85C533.16,-43.57 586.98,-29.42 621.22,-20.42"/>
<polygon fill="midnightblue" stroke="midnightblue" points="489.66,-51.65 480.88,-57.58 491.44,-58.42 489.66,-51.65"/>
</g>
<!-- Node21&#45;&gt;Node9 -->
<g id="edge35" class="edge">
<title>Node21&#45;&gt;Node9</title>
<path fill="none" stroke="midnightblue" d="M623.94,-249.9C665.41,-239.63 725.09,-224.84 762.98,-215.46"/>
<polygon fill="midnightblue" stroke="midnightblue" points="623.15,-246.74 614.29,-252.54 624.84,-253.53 623.15,-246.74"/>
</g>
<!-- Node22&#45;&gt;Node3 -->
<g id="edge37" class="edge">
<title>Node22&#45;&gt;Node3</title>
<path fill="none" stroke="midnightblue" d="M639.66,-129.55C634.8,-128.23 629.87,-127 625.12,-126 502.38,-99.99 467.94,-115.69 345.12,-90 336.77,-88.25 327.82,-85.85 319.7,-83.45"/>
<polygon fill="midnightblue" stroke="midnightblue" points="638.5,-133.15 649.08,-132.54 640.43,-126.42 638.5,-133.15"/>
</g>
<!-- Node22&#45;&gt;Node11 -->
<g id="edge39" class="edge">
<title>Node22&#45;&gt;Node11</title>
<path fill="none" stroke="midnightblue" d="M691.08,-124.19C699.76,-113.42 710.82,-99.7 719.11,-89.41"/>
<polygon fill="midnightblue" stroke="midnightblue" points="687.73,-121.76 684.18,-131.74 693.18,-126.15 687.73,-121.76"/>
</g>
<!-- Node22&#45;&gt;Node12 -->
<g id="edge42" class="edge">
<title>Node22&#45;&gt;Node12</title>
<path fill="none" stroke="midnightblue" d="M655.54,-126.74C639.32,-115.65 617.2,-100.53 600.93,-89.41"/>
<polygon fill="midnightblue" stroke="midnightblue" points="653.08,-129.99 663.31,-132.74 657.03,-124.21 653.08,-129.99"/>
</g>
<!-- Node22&#45;&gt;Node14 -->
<g id="edge38" class="edge">
<title>Node22&#45;&gt;Node14</title>
<path fill="none" stroke="midnightblue" d="M716.63,-129.41C759.89,-116.18 828.25,-95.27 866.92,-83.43"/>
<polygon fill="midnightblue" stroke="midnightblue" points="715.75,-126.33 707.21,-132.6 717.79,-133.02 715.75,-126.33"/>
</g>
<!-- Node22&#45;&gt;Node16 -->
<g id="edge40" class="edge">
<title>Node22&#45;&gt;Node16</title>
<path fill="none" stroke="midnightblue" d="M730.51,-132.23C742.55,-130.16 755.27,-127.99 767.12,-126 864.84,-109.59 889.66,-107.78 987.12,-90 990.08,-89.46 993.09,-88.9 996.13,-88.33"/>
<polygon fill="midnightblue" stroke="midnightblue" points="729.95,-128.95 720.69,-134.09 731.14,-135.85 729.95,-128.95"/>
</g>
<!-- Node22&#45;&gt;Node18 -->
<g id="edge41" class="edge">
<title>Node22&#45;&gt;Node18</title>
<path fill="none" stroke="midnightblue" d="M730.42,-131.65C742.47,-129.61 755.21,-127.6 767.12,-126 932.64,-103.81 975.61,-112.19 1141.12,-90 1148.2,-89.05 1155.56,-87.96 1162.9,-86.8"/>
<polygon fill="midnightblue" stroke="midnightblue" points="729.86,-128.36 720.6,-133.51 731.05,-135.26 729.86,-128.36"/>
</g>
<!-- Node22&#45;&gt;Node20 -->
<g id="edge43" class="edge">
<title>Node22&#45;&gt;Node20</title>
<path fill="none" stroke="midnightblue" d="M637.51,-129.51C633.33,-128.3 629.15,-127.11 625.12,-126 578.03,-112.98 524.43,-99.37 484.29,-89.42"/>
<polygon fill="midnightblue" stroke="midnightblue" points="636.18,-133.06 646.76,-132.52 638.15,-126.35 636.18,-133.06"/>
</g>
<!-- Node23&#45;&gt;Node2 -->
<g id="edge48" class="edge">
<title>Node23&#45;&gt;Node2</title>
<path fill="none" stroke="midnightblue" d="M241,-357.53C235.64,-348.03 229.31,-336.8 225.04,-329.21"/>
<polygon fill="midnightblue" stroke="midnightblue" points="238.32,-358.91 246.28,-365.91 244.42,-355.48 238.32,-358.91"/>
</g>
<!-- Node24 -->
<g id="node24" class="node">
<title>Node24</title>
<g id="a_node24"><a xlink:href="_surface_8cpp.html" target="_top" xlink:title=" ">
<polygon fill="none" stroke="black" points="287,-309.5 287,-329.5 371.25,-329.5 371.25,-309.5 287,-309.5"/>
<text text-anchor="middle" x="329.12" y="-316" font-family="Helvetica,sans-Serif" font-size="10.00">src/Surface.cpp</text>
</a>
</g>
</g>
<!-- Node23&#45;&gt;Node24 -->
<g id="edge49" class="edge">
<title>Node23&#45;&gt;Node24</title>
<path fill="none" stroke="midnightblue" d="M272.65,-360.32C286.68,-350.43 304.53,-337.84 316.36,-329.5"/>
<polygon fill="midnightblue" stroke="midnightblue" points="270.81,-358.04 264.66,-366.66 274.85,-363.76 270.81,-358.04"/>
</g>
</g>
</svg>
