<?xml version="1.0" encoding="UTF-8" standalone="no"?>
<!DOCTYPE svg PUBLIC "-//W3C//DTD SVG 1.1//EN"
 "http://www.w3.org/Graphics/SVG/1.1/DTD/svg11.dtd">
<!-- Generated by graphviz version 8.1.0 (20230707.0739)
 -->
<!-- Title: include/Engine.h Pages: 1 -->
<svg width="820pt" height="428pt"
 viewBox="0.00 0.00 819.62 428.00" xmlns="http://www.w3.org/2000/svg" xmlns:xlink="http://www.w3.org/1999/xlink">
<g id="graph0" class="graph" transform="scale(1 1) rotate(0) translate(4 424)">
<title>include/Engine.h</title>
<!-- Node1 -->
<g id="node1" class="node">
<title>Node1</title>
<g id="a_node1"><a xlink:title=" ">
<polygon fill="#bfbfbf" stroke="black" points="547.88,-399.5 547.88,-419.5 635.88,-419.5 635.88,-399.5 547.88,-399.5"/>
<text text-anchor="middle" x="591.88" y="-406" font-family="Helvetica,sans-Serif" font-size="10.00">include/Engine.h</text>
</a>
</g>
</g>
<!-- Node2 -->
<g id="node2" class="node">
<title>Node2</title>
<g id="a_node2"><a xlink:href="_frame_timer_8h.html" target="_top" xlink:title=" ">
<polygon fill="none" stroke="black" points="261.88,-342.5 261.88,-362.5 337.88,-362.5 337.88,-342.5 261.88,-342.5"/>
<text text-anchor="middle" x="299.88" y="-349" font-family="Helvetica,sans-Serif" font-size="10.00">FrameTimer.h</text>
</a>
</g>
</g>
<!-- Node1&#45;&gt;Node2 -->
<g id="edge1" class="edge">
<title>Node1&#45;&gt;Node2</title>
<path fill="none" stroke="midnightblue" d="M548.16,-400.27C494.61,-390.18 404.18,-373.15 348.49,-362.66"/>
<polygon fill="midnightblue" stroke="midnightblue" points="349.31,-359.06 338.84,-360.65 348.02,-365.94 349.31,-359.06"/>
</g>
<!-- Node4 -->
<g id="node4" class="node">
<title>Node4</title>
<g id="a_node4"><a xlink:href="_graphics_8h.html" target="_top" xlink:title=" ">
<polygon fill="none" stroke="black" points="277.25,-285.5 277.25,-305.5 340.5,-305.5 340.5,-285.5 277.25,-285.5"/>
<text text-anchor="middle" x="308.88" y="-292" font-family="Helvetica,sans-Serif" font-size="10.00">Graphics.h</text>
</a>
</g>
</g>
<!-- Node1&#45;&gt;Node4 -->
<g id="edge3" class="edge">
<title>Node1&#45;&gt;Node4</title>
<path fill="none" stroke="midnightblue" d="M569.19,-399.52C519.19,-379.73 399.3,-332.29 341.34,-309.35"/>
<polygon fill="midnightblue" stroke="midnightblue" points="342.86,-305.79 332.27,-305.36 340.28,-312.3 342.86,-305.79"/>
</g>
<!-- Node26 -->
<g id="node26" class="node">
<title>Node26</title>
<g id="a_node26"><a xlink:title=" ">
<polygon fill="none" stroke="#bfbfbf" points="566.25,-171.5 566.25,-191.5 617.5,-191.5 617.5,-171.5 566.25,-171.5"/>
<text text-anchor="middle" x="591.88" y="-178" font-family="Helvetica,sans-Serif" font-size="10.00">memory</text>
</a>
</g>
</g>
<!-- Node1&#45;&gt;Node26 -->
<g id="edge55" class="edge">
<title>Node1&#45;&gt;Node26</title>
<path fill="none" stroke="midnightblue" d="M591.88,-399.64C591.88,-366.38 591.88,-248.47 591.88,-201.76"/>
<polygon fill="midnightblue" stroke="midnightblue" points="595.38,-202.06 591.88,-192.06 588.38,-202.06 595.38,-202.06"/>
</g>
<!-- Node30 -->
<g id="node30" class="node">
<title>Node30</title>
<g id="a_node30"><a xlink:href="_scene_8h.html" target="_top" xlink:title=" ">
<polygon fill="none" stroke="black" points="619.88,-342.5 619.88,-362.5 671.88,-362.5 671.88,-342.5 619.88,-342.5"/>
<text text-anchor="middle" x="645.88" y="-349" font-family="Helvetica,sans-Serif" font-size="10.00">Scene.h</text>
</a>
</g>
</g>
<!-- Node1&#45;&gt;Node30 -->
<g id="edge38" class="edge">
<title>Node1&#45;&gt;Node30</title>
<path fill="none" stroke="midnightblue" d="M600.31,-399.91C608.19,-391.88 620.16,-379.69 629.85,-369.82"/>
<polygon fill="midnightblue" stroke="midnightblue" points="631.81,-372.8 636.32,-363.21 626.82,-367.9 631.81,-372.8"/>
</g>
<!-- Node37 -->
<g id="node37" class="node">
<title>Node37</title>
<g id="a_node37"><a xlink:title=" ">
<polygon fill="none" stroke="#bfbfbf" points="690.12,-342.5 690.12,-362.5 731.62,-362.5 731.62,-342.5 690.12,-342.5"/>
<text text-anchor="middle" x="710.88" y="-349" font-family="Helvetica,sans-Serif" font-size="10.00">vector</text>
</a>
</g>
</g>
<!-- Node1&#45;&gt;Node37 -->
<g id="edge56" class="edge">
<title>Node1&#45;&gt;Node37</title>
<path fill="none" stroke="midnightblue" d="M611.26,-399.54C630.36,-390.71 659.79,-377.11 681.72,-366.98"/>
<polygon fill="midnightblue" stroke="midnightblue" points="682.89,-369.83 690.5,-362.46 679.95,-363.47 682.89,-369.83"/>
</g>
<!-- Node3 -->
<g id="node3" class="node">
<title>Node3</title>
<g id="a_node3"><a xlink:title=" ">
<polygon fill="none" stroke="#bfbfbf" points="214.25,-285.5 214.25,-305.5 259.5,-305.5 259.5,-285.5 214.25,-285.5"/>
<text text-anchor="middle" x="236.88" y="-292" font-family="Helvetica,sans-Serif" font-size="10.00">chrono</text>
</a>
</g>
</g>
<!-- Node2&#45;&gt;Node3 -->
<g id="edge2" class="edge">
<title>Node2&#45;&gt;Node3</title>
<path fill="none" stroke="midnightblue" d="M289.75,-342.66C280.44,-334.53 266.41,-322.28 255.14,-312.44"/>
<polygon fill="midnightblue" stroke="midnightblue" points="258.02,-309.44 248.18,-305.5 253.41,-314.71 258.02,-309.44"/>
</g>
<!-- Node5 -->
<g id="node5" class="node">
<title>Node5</title>
<g id="a_node5"><a xlink:href="_engine_exception_8h.html" target="_top" xlink:title=" ">
<polygon fill="none" stroke="black" points="194,-171.5 194,-191.5 291.75,-191.5 291.75,-171.5 194,-171.5"/>
<text text-anchor="middle" x="242.88" y="-178" font-family="Helvetica,sans-Serif" font-size="10.00">EngineException.h</text>
</a>
</g>
</g>
<!-- Node4&#45;&gt;Node5 -->
<g id="edge4" class="edge">
<title>Node4&#45;&gt;Node5</title>
<path fill="none" stroke="midnightblue" d="M306.93,-285.83C303.71,-272.65 296.47,-247.09 284.88,-228 278.41,-217.36 269.21,-207.04 261.06,-198.92"/>
<polygon fill="midnightblue" stroke="midnightblue" points="263.76,-196.71 254.11,-192.34 258.93,-201.78 263.76,-196.71"/>
</g>
<!-- Node8 -->
<g id="node8" class="node">
<title>Node8</title>
<g id="a_node8"><a xlink:href="_vector3_8h.html" target="_top" xlink:title=" ">
<polygon fill="none" stroke="black" points="324.75,-114.5 324.75,-134.5 445,-134.5 445,-114.5 324.75,-114.5"/>
<text text-anchor="middle" x="384.88" y="-121" font-family="Helvetica,sans-Serif" font-size="10.00">LinearAlgebra/Vector3.h</text>
</a>
</g>
</g>
<!-- Node4&#45;&gt;Node8 -->
<g id="edge7" class="edge">
<title>Node4&#45;&gt;Node8</title>
<path fill="none" stroke="midnightblue" d="M303.06,-285.84C293.58,-272.22 273.67,-245.54 251.88,-228 221.42,-203.49 160.49,-201.56 184.88,-171 201.02,-150.76 263.35,-138.84 314.19,-132.31"/>
<polygon fill="midnightblue" stroke="midnightblue" points="314.35,-135.69 323.84,-131 313.49,-128.75 314.35,-135.69"/>
</g>
<!-- Node19 -->
<g id="node19" class="node">
<title>Node19</title>
<g id="a_node19"><a xlink:href="_g_d_i_plus_manager_8h.html" target="_top" xlink:title=" ">
<polygon fill="none" stroke="black" points="23,-228.5 23,-248.5 120.75,-248.5 120.75,-228.5 23,-228.5"/>
<text text-anchor="middle" x="71.88" y="-235" font-family="Helvetica,sans-Serif" font-size="10.00">GDIPlusManager.h</text>
</a>
</g>
</g>
<!-- Node4&#45;&gt;Node19 -->
<g id="edge23" class="edge">
<title>Node4&#45;&gt;Node19</title>
<path fill="none" stroke="midnightblue" d="M277.44,-287.01C274.54,-286.33 271.65,-285.65 268.88,-285 218.78,-273.27 161.48,-260.06 121.64,-250.9"/>
<polygon fill="midnightblue" stroke="midnightblue" points="122.67,-247.32 112.14,-248.49 121.1,-254.14 122.67,-247.32"/>
</g>
<!-- Node23 -->
<g id="node23" class="node">
<title>Node23</title>
<g id="a_node23"><a xlink:href="_surface_8h.html" target="_top" xlink:title=" ">
<polygon fill="none" stroke="black" points="359.25,-228.5 359.25,-248.5 416.5,-248.5 416.5,-228.5 359.25,-228.5"/>
<text text-anchor="middle" x="387.88" y="-235" font-family="Helvetica,sans-Serif" font-size="10.00">Surface.h</text>
</a>
</g>
</g>
<!-- Node4&#45;&gt;Node23 -->
<g id="edge27" class="edge">
<title>Node4&#45;&gt;Node23</title>
<path fill="none" stroke="midnightblue" d="M321.57,-285.66C333.59,-277.29 351.88,-264.56 366.21,-254.58"/>
<polygon fill="midnightblue" stroke="midnightblue" points="367.74,-257.08 373.95,-248.5 363.74,-251.34 367.74,-257.08"/>
</g>
<!-- Node28 -->
<g id="node28" class="node">
<title>Node28</title>
<g id="a_node28"><a xlink:title=" ">
<polygon fill="none" stroke="#bfbfbf" points="138.62,-228.5 138.62,-248.5 189.12,-248.5 189.12,-228.5 138.62,-228.5"/>
<text text-anchor="middle" x="163.88" y="-235" font-family="Helvetica,sans-Serif" font-size="10.00">d3d11.h</text>
</a>
</g>
</g>
<!-- Node4&#45;&gt;Node28 -->
<g id="edge36" class="edge">
<title>Node4&#45;&gt;Node28</title>
<path fill="none" stroke="midnightblue" d="M285.26,-285.54C261.45,-276.51 224.49,-262.49 197.6,-252.29"/>
<polygon fill="midnightblue" stroke="midnightblue" points="199.08,-248.73 188.48,-248.46 196.59,-255.27 199.08,-248.73"/>
</g>
<!-- Node29 -->
<g id="node29" class="node">
<title>Node29</title>
<g id="a_node29"><a xlink:title=" ">
<polygon fill="none" stroke="#bfbfbf" points="206.75,-228.5 206.75,-248.5 243,-248.5 243,-228.5 206.75,-228.5"/>
<text text-anchor="middle" x="224.88" y="-235" font-family="Helvetica,sans-Serif" font-size="10.00">wrl.h</text>
</a>
</g>
</g>
<!-- Node4&#45;&gt;Node29 -->
<g id="edge37" class="edge">
<title>Node4&#45;&gt;Node29</title>
<path fill="none" stroke="midnightblue" d="M295.38,-285.66C282.47,-277.21 262.77,-264.31 247.47,-254.3"/>
<polygon fill="midnightblue" stroke="midnightblue" points="249.9,-251.05 239.62,-248.5 246.07,-256.9 249.9,-251.05"/>
</g>
<!-- Node6 -->
<g id="node6" class="node">
<title>Node6</title>
<g id="a_node6"><a xlink:title=" ">
<polygon fill="none" stroke="#bfbfbf" points="462.88,-114.5 462.88,-134.5 502.88,-134.5 502.88,-114.5 462.88,-114.5"/>
<text text-anchor="middle" x="482.88" y="-121" font-family="Helvetica,sans-Serif" font-size="10.00">string</text>
</a>
</g>
</g>
<!-- Node5&#45;&gt;Node6 -->
<g id="edge5" class="edge">
<title>Node5&#45;&gt;Node6</title>
<path fill="none" stroke="midnightblue" d="M291.41,-171.53C332.05,-163.68 391.74,-151.38 452.45,-135.17"/>
<polygon fill="midnightblue" stroke="midnightblue" points="453.25,-138.31 461.99,-132.32 451.42,-131.55 453.25,-138.31"/>
</g>
<!-- Node7 -->
<g id="node7" class="node">
<title>Node7</title>
<g id="a_node7"><a xlink:title=" ">
<polygon fill="none" stroke="#bfbfbf" points="200.75,-114.5 200.75,-134.5 285,-134.5 285,-114.5 200.75,-114.5"/>
<text text-anchor="middle" x="242.88" y="-121" font-family="Helvetica,sans-Serif" font-size="10.00">source_location</text>
</a>
</g>
</g>
<!-- Node5&#45;&gt;Node7 -->
<g id="edge6" class="edge">
<title>Node5&#45;&gt;Node7</title>
<path fill="none" stroke="midnightblue" d="M242.88,-171.91C242.88,-164.76 242.88,-154.32 242.88,-145.15"/>
<polygon fill="midnightblue" stroke="midnightblue" points="246.38,-145.21 242.88,-135.21 239.38,-145.21 246.38,-145.21"/>
</g>
<!-- Node9 -->
<g id="node9" class="node">
<title>Node9</title>
<g id="a_node9"><a xlink:href="_math_8h.html" target="_top" xlink:title=" ">
<polygon fill="none" stroke="black" points="254.88,-57.5 254.88,-77.5 300.88,-77.5 300.88,-57.5 254.88,-57.5"/>
<text text-anchor="middle" x="277.88" y="-64" font-family="Helvetica,sans-Serif" font-size="10.00">Math.h</text>
</a>
</g>
</g>
<!-- Node8&#45;&gt;Node9 -->
<g id="edge8" class="edge">
<title>Node8&#45;&gt;Node9</title>
<path fill="none" stroke="midnightblue" d="M367.68,-114.66C350.78,-105.97 324.72,-92.58 305.02,-82.45"/>
<polygon fill="midnightblue" stroke="midnightblue" points="306.87,-78.96 296.38,-77.5 303.67,-85.18 306.87,-78.96"/>
</g>
<!-- Node14 -->
<g id="node14" class="node">
<title>Node14</title>
<g id="a_node14"><a xlink:href="_matrix3_8h.html" target="_top" xlink:title=" ">
<polygon fill="none" stroke="black" points="412.62,-57.5 412.62,-77.5 469.12,-77.5 469.12,-57.5 412.62,-57.5"/>
<text text-anchor="middle" x="440.88" y="-64" font-family="Helvetica,sans-Serif" font-size="10.00">Matrix3.h</text>
</a>
</g>
</g>
<!-- Node8&#45;&gt;Node14 -->
<g id="edge14" class="edge">
<title>Node8&#45;&gt;Node14</title>
<path fill="none" stroke="midnightblue" d="M393.87,-114.66C401.99,-106.69 414.14,-94.76 424.05,-85.02"/>
<polygon fill="midnightblue" stroke="midnightblue" points="426.03,-88 430.71,-78.5 421.13,-83.01 426.03,-88"/>
</g>
<!-- Node15 -->
<g id="node15" class="node">
<title>Node15</title>
<g id="a_node15"><a xlink:title=" ">
<polygon fill="none" stroke="#bfbfbf" points="422,-0.5 422,-20.5 459.75,-20.5 459.75,-0.5 422,-0.5"/>
<text text-anchor="middle" x="440.88" y="-7" font-family="Helvetica,sans-Serif" font-size="10.00">array</text>
</a>
</g>
</g>
<!-- Node8&#45;&gt;Node15 -->
<g id="edge19" class="edge">
<title>Node8&#45;&gt;Node15</title>
<path fill="none" stroke="midnightblue" d="M379.47,-114.77C372.03,-101.52 360.63,-75.87 370.88,-57 379.64,-40.85 396.88,-29.54 412.06,-22.24"/>
<polygon fill="midnightblue" stroke="midnightblue" points="413.37,-25.04 421.11,-17.81 410.55,-18.64 413.37,-25.04"/>
</g>
<!-- Node16 -->
<g id="node16" class="node">
<title>Node16</title>
<g id="a_node16"><a xlink:title=" ">
<polygon fill="none" stroke="#bfbfbf" points="478.12,-0.5 478.12,-20.5 525.62,-20.5 525.62,-0.5 478.12,-0.5"/>
<text text-anchor="middle" x="501.88" y="-7" font-family="Helvetica,sans-Serif" font-size="10.00">cstddef</text>
</a>
</g>
</g>
<!-- Node8&#45;&gt;Node16 -->
<g id="edge22" class="edge">
<title>Node8&#45;&gt;Node16</title>
<path fill="none" stroke="midnightblue" d="M385.13,-114.66C385.99,-100.8 389.52,-73.79 403.88,-57 412.78,-46.58 443.45,-33.23 468.13,-23.69"/>
<polygon fill="midnightblue" stroke="midnightblue" points="469.15,-26.67 477.27,-19.86 466.68,-20.12 469.15,-26.67"/>
</g>
<!-- Node17 -->
<g id="node17" class="node">
<title>Node17</title>
<g id="a_node17"><a xlink:title=" ">
<polygon fill="none" stroke="#bfbfbf" points="600.12,-0.5 600.12,-20.5 653.62,-20.5 653.62,-0.5 600.12,-0.5"/>
<text text-anchor="middle" x="626.88" y="-7" font-family="Helvetica,sans-Serif" font-size="10.00">iostream</text>
</a>
</g>
</g>
<!-- Node8&#45;&gt;Node17 -->
<g id="edge20" class="edge">
<title>Node8&#45;&gt;Node17</title>
<path fill="none" stroke="midnightblue" d="M403.89,-114.54C422.79,-105.55 452.52,-91.2 477.88,-78 494.99,-69.09 498.47,-65.34 515.88,-57 541.05,-44.93 570.3,-33.03 592.45,-24.42"/>
<polygon fill="midnightblue" stroke="midnightblue" points="593.63,-27.33 601.71,-20.48 591.12,-20.8 593.63,-27.33"/>
</g>
<!-- Node18 -->
<g id="node18" class="node">
<title>Node18</title>
<g id="a_node18"><a xlink:title=" ">
<polygon fill="none" stroke="#bfbfbf" points="525.12,-57.5 525.12,-77.5 578.62,-77.5 578.62,-57.5 525.12,-57.5"/>
<text text-anchor="middle" x="551.88" y="-64" font-family="Helvetica,sans-Serif" font-size="10.00">compare</text>
</a>
</g>
</g>
<!-- Node8&#45;&gt;Node18 -->
<g id="edge21" class="edge">
<title>Node8&#45;&gt;Node18</title>
<path fill="none" stroke="midnightblue" d="M412.08,-114.54C440.02,-105.34 483.71,-90.95 514.81,-80.71"/>
<polygon fill="midnightblue" stroke="midnightblue" points="515.83,-83.73 524.24,-77.27 513.64,-77.08 515.83,-83.73"/>
</g>
<!-- Node9&#45;&gt;Node9 -->
<g id="edge9" class="edge">
<title>Node9&#45;&gt;Node9</title>
<path fill="none" stroke="midnightblue" d="M296.43,-77.43C307.93,-79.83 318.88,-76.52 318.88,-67.5 318.88,-61.44 313.93,-57.96 307.2,-57.05"/>
<polygon fill="midnightblue" stroke="midnightblue" points="307.25,-53.59 297.43,-57.57 307.58,-60.59 307.25,-53.59"/>
</g>
<!-- Node10 -->
<g id="node10" class="node">
<title>Node10</title>
<g id="a_node10"><a xlink:title=" ">
<polygon fill="none" stroke="#bfbfbf" points="361.38,-0.5 361.38,-20.5 404.38,-20.5 404.38,-0.5 361.38,-0.5"/>
<text text-anchor="middle" x="382.88" y="-7" font-family="Helvetica,sans-Serif" font-size="10.00">cmath</text>
</a>
</g>
</g>
<!-- Node9&#45;&gt;Node10 -->
<g id="edge10" class="edge">
<title>Node9&#45;&gt;Node10</title>
<path fill="none" stroke="midnightblue" d="M294.75,-57.66C311.26,-49.01 336.67,-35.7 355.97,-25.59"/>
<polygon fill="midnightblue" stroke="midnightblue" points="357.46,-28.24 364.7,-20.5 354.22,-22.04 357.46,-28.24"/>
</g>
<!-- Node11 -->
<g id="node11" class="node">
<title>Node11</title>
<g id="a_node11"><a xlink:title=" ">
<polygon fill="none" stroke="#bfbfbf" points="166.25,-0.5 166.25,-20.5 205.5,-20.5 205.5,-0.5 166.25,-0.5"/>
<text text-anchor="middle" x="185.88" y="-7" font-family="Helvetica,sans-Serif" font-size="10.00">limits</text>
</a>
</g>
</g>
<!-- Node9&#45;&gt;Node11 -->
<g id="edge11" class="edge">
<title>Node9&#45;&gt;Node11</title>
<path fill="none" stroke="midnightblue" d="M263.09,-57.66C248.83,-49.13 226.97,-36.07 210.15,-26.01"/>
<polygon fill="midnightblue" stroke="midnightblue" points="212.3,-22.62 201.93,-20.5 208.71,-28.63 212.3,-22.62"/>
</g>
<!-- Node12 -->
<g id="node12" class="node">
<title>Node12</title>
<g id="a_node12"><a xlink:title=" ">
<polygon fill="none" stroke="#bfbfbf" points="223.12,-0.5 223.12,-20.5 276.62,-20.5 276.62,-0.5 223.12,-0.5"/>
<text text-anchor="middle" x="249.88" y="-7" font-family="Helvetica,sans-Serif" font-size="10.00">numbers</text>
</a>
</g>
</g>
<!-- Node9&#45;&gt;Node12 -->
<g id="edge12" class="edge">
<title>Node9&#45;&gt;Node12</title>
<path fill="none" stroke="midnightblue" d="M273.5,-57.91C269.7,-50.44 264.07,-39.38 259.26,-29.93"/>
<polygon fill="midnightblue" stroke="midnightblue" points="261.97,-28.54 254.31,-21.21 255.73,-31.71 261.97,-28.54"/>
</g>
<!-- Node13 -->
<g id="node13" class="node">
<title>Node13</title>
<g id="a_node13"><a xlink:title=" ">
<polygon fill="none" stroke="#bfbfbf" points="294.75,-0.5 294.75,-20.5 343,-20.5 343,-0.5 294.75,-0.5"/>
<text text-anchor="middle" x="318.88" y="-7" font-family="Helvetica,sans-Serif" font-size="10.00">random</text>
</a>
</g>
</g>
<!-- Node9&#45;&gt;Node13 -->
<g id="edge13" class="edge">
<title>Node9&#45;&gt;Node13</title>
<path fill="none" stroke="midnightblue" d="M284.28,-57.91C290.02,-50.2 298.63,-38.66 305.82,-29.02"/>
<polygon fill="midnightblue" stroke="midnightblue" points="309.21,-31.32 312.38,-21.21 303.6,-27.14 309.21,-31.32"/>
</g>
<!-- Node14&#45;&gt;Node10 -->
<g id="edge16" class="edge">
<title>Node14&#45;&gt;Node10</title>
<path fill="none" stroke="midnightblue" d="M431.56,-57.66C423.15,-49.69 410.57,-37.76 400.3,-28.02"/>
<polygon fill="midnightblue" stroke="midnightblue" points="403.03,-25.84 393.36,-21.5 398.21,-30.92 403.03,-25.84"/>
</g>
<!-- Node14&#45;&gt;Node15 -->
<g id="edge15" class="edge">
<title>Node14&#45;&gt;Node15</title>
<path fill="none" stroke="midnightblue" d="M440.88,-57.91C440.88,-50.76 440.88,-40.32 440.88,-31.15"/>
<polygon fill="midnightblue" stroke="midnightblue" points="444.38,-31.21 440.88,-21.21 437.38,-31.21 444.38,-31.21"/>
</g>
<!-- Node14&#45;&gt;Node16 -->
<g id="edge17" class="edge">
<title>Node14&#45;&gt;Node16</title>
<path fill="none" stroke="midnightblue" d="M450.68,-57.66C459.6,-49.61 473.01,-37.52 483.87,-27.73"/>
<polygon fill="midnightblue" stroke="midnightblue" points="485.81,-30.79 490.9,-21.5 481.13,-25.59 485.81,-30.79"/>
</g>
<!-- Node14&#45;&gt;Node17 -->
<g id="edge18" class="edge">
<title>Node14&#45;&gt;Node17</title>
<path fill="none" stroke="midnightblue" d="M469.12,-58.15C501.36,-48.61 554.2,-32.99 589.74,-22.48"/>
<polygon fill="midnightblue" stroke="midnightblue" points="590.58,-25.59 599.17,-19.4 588.59,-18.88 590.58,-25.59"/>
</g>
<!-- Node20 -->
<g id="node20" class="node">
<title>Node20</title>
<g id="a_node20"><a xlink:href="_win_8h.html" target="_top" xlink:title=" ">
<polygon fill="none" stroke="black" points="64.12,-171.5 64.12,-191.5 105.62,-191.5 105.62,-171.5 64.12,-171.5"/>
<text text-anchor="middle" x="84.88" y="-178" font-family="Helvetica,sans-Serif" font-size="10.00">Win.h</text>
</a>
</g>
</g>
<!-- Node19&#45;&gt;Node20 -->
<g id="edge24" class="edge">
<title>Node19&#45;&gt;Node20</title>
<path fill="none" stroke="midnightblue" d="M73.91,-228.91C75.61,-221.68 78.12,-211.09 80.3,-201.85"/>
<polygon fill="midnightblue" stroke="midnightblue" points="83.92,-202.75 82.82,-192.21 77.11,-201.14 83.92,-202.75"/>
</g>
<!-- Node21 -->
<g id="node21" class="node">
<title>Node21</title>
<g id="a_node21"><a xlink:title=" ">
<polygon fill="none" stroke="#bfbfbf" points="0,-114.5 0,-134.5 67.75,-134.5 67.75,-114.5 0,-114.5"/>
<text text-anchor="middle" x="33.88" y="-121" font-family="Helvetica,sans-Serif" font-size="10.00">sdkddkver.h</text>
</a>
</g>
</g>
<!-- Node20&#45;&gt;Node21 -->
<g id="edge25" class="edge">
<title>Node20&#45;&gt;Node21</title>
<path fill="none" stroke="midnightblue" d="M76.91,-171.91C69.54,-163.96 58.39,-151.94 49.28,-142.12"/>
<polygon fill="midnightblue" stroke="midnightblue" points="52.32,-140.17 42.96,-135.21 47.19,-144.93 52.32,-140.17"/>
</g>
<!-- Node22 -->
<g id="node22" class="node">
<title>Node22</title>
<g id="a_node22"><a xlink:title=" ">
<polygon fill="none" stroke="#bfbfbf" points="85.88,-114.5 85.88,-134.5 149.88,-134.5 149.88,-114.5 85.88,-114.5"/>
<text text-anchor="middle" x="117.88" y="-121" font-family="Helvetica,sans-Serif" font-size="10.00">Windows.h</text>
</a>
</g>
</g>
<!-- Node20&#45;&gt;Node22 -->
<g id="edge26" class="edge">
<title>Node20&#45;&gt;Node22</title>
<path fill="none" stroke="midnightblue" d="M90.03,-171.91C94.56,-164.36 101.29,-153.14 107,-143.62"/>
<polygon fill="midnightblue" stroke="midnightblue" points="110.5,-145.59 112.65,-135.21 104.5,-141.99 110.5,-145.59"/>
</g>
<!-- Node23&#45;&gt;Node5 -->
<g id="edge31" class="edge">
<title>Node23&#45;&gt;Node5</title>
<path fill="none" stroke="midnightblue" d="M364.26,-228.54C340.45,-219.51 303.49,-205.49 276.6,-195.29"/>
<polygon fill="midnightblue" stroke="midnightblue" points="278.08,-191.73 267.48,-191.46 275.59,-198.27 278.08,-191.73"/>
</g>
<!-- Node23&#45;&gt;Node6 -->
<g id="edge34" class="edge">
<title>Node23&#45;&gt;Node6</title>
<path fill="none" stroke="midnightblue" d="M400.16,-228.65C411.53,-220.08 428.51,-206.32 440.88,-192 453.82,-177.01 465.58,-157.66 473.34,-143.7"/>
<polygon fill="midnightblue" stroke="midnightblue" points="476.78,-145.7 478.45,-135.24 470.62,-142.38 476.78,-145.7"/>
</g>
<!-- Node23&#45;&gt;Node20 -->
<g id="edge28" class="edge">
<title>Node23&#45;&gt;Node20</title>
<path fill="none" stroke="midnightblue" d="M359.37,-232.33C302.35,-221.98 174.67,-198.8 115.75,-188.1"/>
<polygon fill="midnightblue" stroke="midnightblue" points="116.72,-184.54 106.25,-186.2 115.47,-191.43 116.72,-184.54"/>
</g>
<!-- Node24 -->
<g id="node24" class="node">
<title>Node24</title>
<g id="a_node24"><a xlink:href="_colors_8h.html" target="_top" xlink:title=" ">
<polygon fill="none" stroke="black" points="379.88,-171.5 379.88,-191.5 431.88,-191.5 431.88,-171.5 379.88,-171.5"/>
<text text-anchor="middle" x="405.88" y="-178" font-family="Helvetica,sans-Serif" font-size="10.00">Colors.h</text>
</a>
</g>
</g>
<!-- Node23&#45;&gt;Node24 -->
<g id="edge29" class="edge">
<title>Node23&#45;&gt;Node24</title>
<path fill="none" stroke="midnightblue" d="M390.69,-228.91C393.08,-221.6 396.6,-210.85 399.64,-201.54"/>
<polygon fill="midnightblue" stroke="midnightblue" points="403.24,-202.81 403.02,-192.21 396.59,-200.63 403.24,-202.81"/>
</g>
<!-- Node25 -->
<g id="node25" class="node">
<title>Node25</title>
<g id="a_node25"><a xlink:title=" ">
<polygon fill="none" stroke="#bfbfbf" points="310.25,-171.5 310.25,-191.5 361.5,-191.5 361.5,-171.5 310.25,-171.5"/>
<text text-anchor="middle" x="335.88" y="-178" font-family="Helvetica,sans-Serif" font-size="10.00">assert.h</text>
</a>
</g>
</g>
<!-- Node23&#45;&gt;Node25 -->
<g id="edge32" class="edge">
<title>Node23&#45;&gt;Node25</title>
<path fill="none" stroke="midnightblue" d="M379.75,-228.91C372.24,-220.96 360.87,-208.94 351.59,-199.12"/>
<polygon fill="midnightblue" stroke="midnightblue" points="354.53,-197.08 345.11,-192.21 349.44,-201.89 354.53,-197.08"/>
</g>
<!-- Node23&#45;&gt;Node26 -->
<g id="edge33" class="edge">
<title>Node23&#45;&gt;Node26</title>
<path fill="none" stroke="midnightblue" d="M416.29,-229.87C447.9,-221.37 500.79,-207.15 555.94,-192.25"/>
<polygon fill="midnightblue" stroke="midnightblue" points="556.52,-195.45 565.26,-189.46 554.7,-188.69 556.52,-195.45"/>
</g>
<!-- Node27 -->
<g id="node27" class="node">
<title>Node27</title>
<g id="a_node27"><a xlink:title=" ">
<polygon fill="none" stroke="#bfbfbf" points="487.75,-171.5 487.75,-191.5 548,-191.5 548,-171.5 487.75,-171.5"/>
<text text-anchor="middle" x="517.88" y="-178" font-family="Helvetica,sans-Serif" font-size="10.00">filesystem</text>
</a>
</g>
</g>
<!-- Node23&#45;&gt;Node27 -->
<g id="edge35" class="edge">
<title>Node23&#45;&gt;Node27</title>
<path fill="none" stroke="midnightblue" d="M409.05,-228.54C430.11,-219.63 462.65,-205.86 486.67,-195.7"/>
<polygon fill="midnightblue" stroke="midnightblue" points="487.86,-198.58 495.71,-191.46 485.13,-192.13 487.86,-198.58"/>
</g>
<!-- Node24&#45;&gt;Node8 -->
<g id="edge30" class="edge">
<title>Node24&#45;&gt;Node8</title>
<path fill="none" stroke="midnightblue" d="M402.59,-171.91C399.77,-164.52 395.61,-153.62 392.03,-144.23"/>
<polygon fill="midnightblue" stroke="midnightblue" points="395.04,-143.31 388.2,-135.21 388.5,-145.81 395.04,-143.31"/>
</g>
<!-- Node30&#45;&gt;Node4 -->
<g id="edge53" class="edge">
<title>Node30&#45;&gt;Node4</title>
<path fill="none" stroke="midnightblue" d="M619.99,-347.28C562.13,-337.83 421.85,-314.94 351.13,-303.4"/>
<polygon fill="midnightblue" stroke="midnightblue" points="351.83,-299.8 341.4,-301.65 350.71,-306.71 351.83,-299.8"/>
</g>
<!-- Node30&#45;&gt;Node6 -->
<g id="edge54" class="edge">
<title>Node30&#45;&gt;Node6</title>
<path fill="none" stroke="midnightblue" d="M647.95,-342.74C654.15,-314.27 669.53,-223.23 626.88,-171 612.42,-153.3 550.9,-138.61 513.1,-131.04"/>
<polygon fill="midnightblue" stroke="midnightblue" points="514.15,-127.48 503.67,-129.01 512.81,-134.35 514.15,-127.48"/>
</g>
<!-- Node31 -->
<g id="node31" class="node">
<title>Node31</title>
<g id="a_node31"><a xlink:href="_keyboard_8h.html" target="_top" xlink:title=" ">
<polygon fill="none" stroke="black" points="674.12,-285.5 674.12,-305.5 739.62,-305.5 739.62,-285.5 674.12,-285.5"/>
<text text-anchor="middle" x="706.88" y="-292" font-family="Helvetica,sans-Serif" font-size="10.00">Keyboard.h</text>
</a>
</g>
</g>
<!-- Node30&#45;&gt;Node31 -->
<g id="edge39" class="edge">
<title>Node30&#45;&gt;Node31</title>
<path fill="none" stroke="midnightblue" d="M655.68,-342.66C664.6,-334.61 678.01,-322.52 688.87,-312.73"/>
<polygon fill="midnightblue" stroke="midnightblue" points="690.81,-315.79 695.9,-306.5 686.13,-310.59 690.81,-315.79"/>
</g>
<!-- Node34 -->
<g id="node34" class="node">
<title>Node34</title>
<g id="a_node34"><a xlink:href="_mouse_8h.html" target="_top" xlink:title=" ">
<polygon fill="none" stroke="black" points="758.12,-285.5 758.12,-305.5 811.62,-305.5 811.62,-285.5 758.12,-285.5"/>
<text text-anchor="middle" x="784.88" y="-292" font-family="Helvetica,sans-Serif" font-size="10.00">Mouse.h</text>
</a>
</g>
</g>
<!-- Node30&#45;&gt;Node34 -->
<g id="edge42" class="edge">
<title>Node30&#45;&gt;Node34</title>
<path fill="none" stroke="midnightblue" d="M668.52,-342.54C691.24,-333.55 726.46,-319.62 752.2,-309.43"/>
<polygon fill="midnightblue" stroke="midnightblue" points="753.23,-312.39 761.24,-305.46 750.66,-305.88 753.23,-312.39"/>
</g>
<!-- Node32 -->
<g id="node32" class="node">
<title>Node32</title>
<g id="a_node32"><a xlink:title=" ">
<polygon fill="none" stroke="#bfbfbf" points="673.88,-228.5 673.88,-248.5 713.88,-248.5 713.88,-228.5 673.88,-228.5"/>
<text text-anchor="middle" x="693.88" y="-235" font-family="Helvetica,sans-Serif" font-size="10.00">bitset</text>
</a>
</g>
</g>
<!-- Node31&#45;&gt;Node32 -->
<g id="edge40" class="edge">
<title>Node31&#45;&gt;Node32</title>
<path fill="none" stroke="midnightblue" d="M704.84,-285.91C703.14,-278.68 700.63,-268.09 698.45,-258.85"/>
<polygon fill="midnightblue" stroke="midnightblue" points="701.64,-258.14 695.93,-249.21 694.83,-259.75 701.64,-258.14"/>
</g>
<!-- Node33 -->
<g id="node33" class="node">
<title>Node33</title>
<g id="a_node33"><a xlink:title=" ">
<polygon fill="none" stroke="#bfbfbf" points="731.75,-228.5 731.75,-248.5 774,-248.5 774,-228.5 731.75,-228.5"/>
<text text-anchor="middle" x="752.88" y="-235" font-family="Helvetica,sans-Serif" font-size="10.00">queue</text>
</a>
</g>
</g>
<!-- Node31&#45;&gt;Node33 -->
<g id="edge41" class="edge">
<title>Node31&#45;&gt;Node33</title>
<path fill="none" stroke="midnightblue" d="M714.06,-285.91C720.64,-278.04 730.56,-266.18 738.73,-256.42"/>
<polygon fill="midnightblue" stroke="midnightblue" points="741.86,-259.13 745.59,-249.21 736.49,-254.64 741.86,-259.13"/>
</g>
<!-- Node34&#45;&gt;Node33 -->
<g id="edge52" class="edge">
<title>Node34&#45;&gt;Node33</title>
<path fill="none" stroke="midnightblue" d="M779.88,-285.91C775.49,-278.36 768.96,-267.14 763.42,-257.62"/>
<polygon fill="midnightblue" stroke="midnightblue" points="766,-256.1 757.95,-249.21 759.95,-259.62 766,-256.1"/>
</g>
<!-- Node35 -->
<g id="node35" class="node">
<title>Node35</title>
<g id="a_node35"><a xlink:href="_vector2_8h.html" target="_top" xlink:title=" ">
<polygon fill="none" stroke="black" points="565.75,-114.5 565.75,-134.5 686,-134.5 686,-114.5 565.75,-114.5"/>
<text text-anchor="middle" x="625.88" y="-121" font-family="Helvetica,sans-Serif" font-size="10.00">LinearAlgebra/Vector2.h</text>
</a>
</g>
</g>
<!-- Node34&#45;&gt;Node35 -->
<g id="edge43" class="edge">
<title>Node34&#45;&gt;Node35</title>
<path fill="none" stroke="midnightblue" d="M787.05,-285.64C789.83,-272.21 793.16,-246.33 782.88,-228 757.11,-182.07 701.2,-153.25 663.54,-138.27"/>
<polygon fill="midnightblue" stroke="midnightblue" points="665.04,-134.71 654.45,-134.4 662.54,-141.25 665.04,-134.71"/>
</g>
<!-- Node35&#45;&gt;Node9 -->
<g id="edge44" class="edge">
<title>Node35&#45;&gt;Node9</title>
<path fill="none" stroke="midnightblue" d="M569.19,-114.54C495.91,-102.96 370.67,-83.17 311.16,-73.76"/>
<polygon fill="midnightblue" stroke="midnightblue" points="311.93,-70.18 301.51,-72.08 310.84,-77.09 311.93,-70.18"/>
</g>
<!-- Node35&#45;&gt;Node14 -->
<g id="edge47" class="edge">
<title>Node35&#45;&gt;Node14</title>
<path fill="none" stroke="midnightblue" d="M595.74,-114.54C563.91,-105.08 513.65,-90.14 479.07,-79.85"/>
<polygon fill="midnightblue" stroke="midnightblue" points="480.46,-76.32 469.88,-76.82 478.46,-83.03 480.46,-76.32"/>
</g>
<!-- Node35&#45;&gt;Node15 -->
<g id="edge48" class="edge">
<title>Node35&#45;&gt;Node15</title>
<path fill="none" stroke="midnightblue" d="M623.24,-114.76C618.51,-100.53 607.22,-72.41 587.88,-57 547.19,-24.59 524.27,-36.26 470.03,-21.09"/>
<polygon fill="midnightblue" stroke="midnightblue" points="471.11,-17.45 460.52,-17.92 469.09,-24.16 471.11,-17.45"/>
</g>
<!-- Node35&#45;&gt;Node16 -->
<g id="edge50" class="edge">
<title>Node35&#45;&gt;Node16</title>
<path fill="none" stroke="midnightblue" d="M627.93,-114.73C630.62,-100.96 633.6,-74.08 620.88,-57 601.13,-30.5 563.9,-19.43 536.31,-14.81"/>
<polygon fill="midnightblue" stroke="midnightblue" points="536.93,-11.22 526.54,-13.25 535.93,-18.15 536.93,-11.22"/>
</g>
<!-- Node35&#45;&gt;Node17 -->
<g id="edge51" class="edge">
<title>Node35&#45;&gt;Node17</title>
<path fill="none" stroke="midnightblue" d="M634.9,-114.72C642.95,-106.21 654.18,-92.48 658.88,-78 664.59,-60.37 653.64,-41.44 643.02,-28.3"/>
<polygon fill="midnightblue" stroke="midnightblue" points="645.16,-26.43 635.94,-21.22 639.9,-31.04 645.16,-26.43"/>
</g>
<!-- Node35&#45;&gt;Node18 -->
<g id="edge49" class="edge">
<title>Node35&#45;&gt;Node18</title>
<path fill="none" stroke="midnightblue" d="M613.99,-114.66C602.83,-106.37 585.91,-93.8 572.55,-83.87"/>
<polygon fill="midnightblue" stroke="midnightblue" points="575.09,-80.65 564.98,-77.5 570.92,-86.27 575.09,-80.65"/>
</g>
<!-- Node36 -->
<g id="node36" class="node">
<title>Node36</title>
<g id="a_node36"><a xlink:href="_matrix2_8h.html" target="_top" xlink:title=" ">
<polygon fill="none" stroke="black" points="710.62,-57.5 710.62,-77.5 767.12,-77.5 767.12,-57.5 710.62,-57.5"/>
<text text-anchor="middle" x="738.88" y="-64" font-family="Helvetica,sans-Serif" font-size="10.00">Matrix2.h</text>
</a>
</g>
</g>
<!-- Node35&#45;&gt;Node36 -->
<g id="edge45" class="edge">
<title>Node35&#45;&gt;Node36</title>
<path fill="none" stroke="midnightblue" d="M644.28,-114.54C662.26,-105.79 689.86,-92.36 710.62,-82.25"/>
<polygon fill="midnightblue" stroke="midnightblue" points="712.02,-84.98 719.48,-77.46 708.95,-78.68 712.02,-84.98"/>
</g>
<!-- Node36&#45;&gt;Node17 -->
<g id="edge46" class="edge">
<title>Node36&#45;&gt;Node17</title>
<path fill="none" stroke="midnightblue" d="M720.88,-57.66C703.11,-48.94 675.66,-35.46 655.01,-25.31"/>
<polygon fill="midnightblue" stroke="midnightblue" points="656.72,-21.76 646.2,-20.5 653.63,-28.05 656.72,-21.76"/>
</g>
</g>
</svg>
