<?xml version="1.0" encoding="UTF-8" standalone="no"?>
<!DOCTYPE svg PUBLIC "-//W3C//DTD SVG 1.1//EN"
 "http://www.w3.org/Graphics/SVG/1.1/DTD/svg11.dtd">
<!-- Generated by graphviz version 8.1.0 (20230707.0739)
 -->
<!-- Title: include/Engine.h Pages: 1 -->
<svg width="791pt" height="428pt"
 viewBox="0.00 0.00 790.75 428.00" xmlns="http://www.w3.org/2000/svg" xmlns:xlink="http://www.w3.org/1999/xlink">
<g id="graph0" class="graph" transform="scale(1 1) rotate(0) translate(4 424)">
<title>include/Engine.h</title>
<!-- Node1 -->
<g id="node1" class="node">
<title>Node1</title>
<g id="a_node1"><a xlink:title=" ">
<polygon fill="#bfbfbf" stroke="black" points="519,-399.5 519,-419.5 607,-419.5 607,-399.5 519,-399.5"/>
<text text-anchor="middle" x="563" y="-406" font-family="Helvetica,sans-Serif" font-size="10.00">include/Engine.h</text>
</a>
</g>
</g>
<!-- Node2 -->
<g id="node2" class="node">
<title>Node2</title>
<g id="a_node2"><a xlink:href="_frame_timer_8h.html" target="_top" xlink:title=" ">
<polygon fill="none" stroke="black" points="365,-342.5 365,-362.5 441,-362.5 441,-342.5 365,-342.5"/>
<text text-anchor="middle" x="403" y="-349" font-family="Helvetica,sans-Serif" font-size="10.00">FrameTimer.h</text>
</a>
</g>
</g>
<!-- Node1&#45;&gt;Node2 -->
<g id="edge1" class="edge">
<title>Node1&#45;&gt;Node2</title>
<path fill="none" stroke="midnightblue" d="M536.94,-399.54C510.44,-390.43 469.16,-376.24 439.43,-366.02"/>
<polygon fill="midnightblue" stroke="midnightblue" points="440.65,-362.4 430.05,-362.46 438.37,-369.02 440.65,-362.4"/>
</g>
<!-- Node4 -->
<g id="node4" class="node">
<title>Node4</title>
<g id="a_node4"><a xlink:href="_graphics_8h.html" target="_top" xlink:title=" ">
<polygon fill="none" stroke="black" points="424.38,-285.5 424.38,-305.5 487.62,-305.5 487.62,-285.5 424.38,-285.5"/>
<text text-anchor="middle" x="456" y="-292" font-family="Helvetica,sans-Serif" font-size="10.00">Graphics.h</text>
</a>
</g>
</g>
<!-- Node1&#45;&gt;Node4 -->
<g id="edge3" class="edge">
<title>Node1&#45;&gt;Node4</title>
<path fill="none" stroke="midnightblue" d="M554.6,-399.71C536.79,-381.06 494.96,-337.28 471.92,-313.16"/>
<polygon fill="midnightblue" stroke="midnightblue" points="474.8,-311.06 465.36,-306.25 469.73,-315.9 474.8,-311.06"/>
</g>
<!-- Node25 -->
<g id="node25" class="node">
<title>Node25</title>
<g id="a_node25"><a xlink:title=" ">
<polygon fill="none" stroke="#bfbfbf" points="537.38,-171.5 537.38,-191.5 588.62,-191.5 588.62,-171.5 537.38,-171.5"/>
<text text-anchor="middle" x="563" y="-178" font-family="Helvetica,sans-Serif" font-size="10.00">memory</text>
</a>
</g>
</g>
<!-- Node1&#45;&gt;Node25 -->
<g id="edge54" class="edge">
<title>Node1&#45;&gt;Node25</title>
<path fill="none" stroke="midnightblue" d="M563,-399.64C563,-366.38 563,-248.47 563,-201.76"/>
<polygon fill="midnightblue" stroke="midnightblue" points="566.5,-202.06 563,-192.06 559.5,-202.06 566.5,-202.06"/>
</g>
<!-- Node29 -->
<g id="node29" class="node">
<title>Node29</title>
<g id="a_node29"><a xlink:href="_scene_8h.html" target="_top" xlink:title=" ">
<polygon fill="none" stroke="black" points="591,-342.5 591,-362.5 643,-362.5 643,-342.5 591,-342.5"/>
<text text-anchor="middle" x="617" y="-349" font-family="Helvetica,sans-Serif" font-size="10.00">Scene.h</text>
</a>
</g>
</g>
<!-- Node1&#45;&gt;Node29 -->
<g id="edge37" class="edge">
<title>Node1&#45;&gt;Node29</title>
<path fill="none" stroke="midnightblue" d="M571.44,-399.91C579.32,-391.88 591.28,-379.69 600.98,-369.82"/>
<polygon fill="midnightblue" stroke="midnightblue" points="602.94,-372.8 607.44,-363.21 597.94,-367.9 602.94,-372.8"/>
</g>
<!-- Node36 -->
<g id="node36" class="node">
<title>Node36</title>
<g id="a_node36"><a xlink:title=" ">
<polygon fill="none" stroke="#bfbfbf" points="661.25,-342.5 661.25,-362.5 702.75,-362.5 702.75,-342.5 661.25,-342.5"/>
<text text-anchor="middle" x="682" y="-349" font-family="Helvetica,sans-Serif" font-size="10.00">vector</text>
</a>
</g>
</g>
<!-- Node1&#45;&gt;Node36 -->
<g id="edge55" class="edge">
<title>Node1&#45;&gt;Node36</title>
<path fill="none" stroke="midnightblue" d="M582.38,-399.54C601.49,-390.71 630.92,-377.11 652.84,-366.98"/>
<polygon fill="midnightblue" stroke="midnightblue" points="654.02,-369.83 661.62,-362.46 651.08,-363.47 654.02,-369.83"/>
</g>
<!-- Node3 -->
<g id="node3" class="node">
<title>Node3</title>
<g id="a_node3"><a xlink:title=" ">
<polygon fill="none" stroke="#bfbfbf" points="361.38,-285.5 361.38,-305.5 406.62,-305.5 406.62,-285.5 361.38,-285.5"/>
<text text-anchor="middle" x="384" y="-292" font-family="Helvetica,sans-Serif" font-size="10.00">chrono</text>
</a>
</g>
</g>
<!-- Node2&#45;&gt;Node3 -->
<g id="edge2" class="edge">
<title>Node2&#45;&gt;Node3</title>
<path fill="none" stroke="midnightblue" d="M400.03,-342.91C397.51,-335.6 393.79,-324.85 390.58,-315.54"/>
<polygon fill="midnightblue" stroke="midnightblue" points="393.58,-314.52 387.01,-306.21 386.97,-316.81 393.58,-314.52"/>
</g>
<!-- Node5 -->
<g id="node5" class="node">
<title>Node5</title>
<g id="a_node5"><a xlink:href="_engine_exception_8h.html" target="_top" xlink:title=" ">
<polygon fill="none" stroke="black" points="421.12,-171.5 421.12,-191.5 518.88,-191.5 518.88,-171.5 421.12,-171.5"/>
<text text-anchor="middle" x="470" y="-178" font-family="Helvetica,sans-Serif" font-size="10.00">EngineException.h</text>
</a>
</g>
</g>
<!-- Node4&#45;&gt;Node5 -->
<g id="edge4" class="edge">
<title>Node4&#45;&gt;Node5</title>
<path fill="none" stroke="midnightblue" d="M445.92,-285.65C432.88,-273.07 412.88,-249.2 422,-228 427.21,-215.89 437.4,-205.48 447.06,-197.7"/>
<polygon fill="midnightblue" stroke="midnightblue" points="448.71,-200.09 454.63,-191.3 444.52,-194.48 448.71,-200.09"/>
</g>
<!-- Node7 -->
<g id="node7" class="node">
<title>Node7</title>
<g id="a_node7"><a xlink:href="_vector3_8h.html" target="_top" xlink:title=" ">
<polygon fill="none" stroke="black" points="209.88,-114.5 209.88,-134.5 330.12,-134.5 330.12,-114.5 209.88,-114.5"/>
<text text-anchor="middle" x="270" y="-121" font-family="Helvetica,sans-Serif" font-size="10.00">LinearAlgebra/Vector3.h</text>
</a>
</g>
</g>
<!-- Node4&#45;&gt;Node7 -->
<g id="edge6" class="edge">
<title>Node4&#45;&gt;Node7</title>
<path fill="none" stroke="midnightblue" d="M424.41,-286.61C391.91,-278.24 339.96,-264.15 296,-249 232.48,-227.11 193.49,-247.75 156,-192 137.77,-164.89 175.21,-147.35 211.97,-137.13"/>
<polygon fill="midnightblue" stroke="midnightblue" points="212.48,-140.35 221.27,-134.44 210.71,-133.58 212.48,-140.35"/>
</g>
<!-- Node18 -->
<g id="node18" class="node">
<title>Node18</title>
<g id="a_node18"><a xlink:href="_g_d_i_plus_manager_8h.html" target="_top" xlink:title=" ">
<polygon fill="none" stroke="black" points="11.12,-228.5 11.12,-248.5 108.88,-248.5 108.88,-228.5 11.12,-228.5"/>
<text text-anchor="middle" x="60" y="-235" font-family="Helvetica,sans-Serif" font-size="10.00">GDIPlusManager.h</text>
</a>
</g>
</g>
<!-- Node4&#45;&gt;Node18 -->
<g id="edge22" class="edge">
<title>Node4&#45;&gt;Node18</title>
<path fill="none" stroke="midnightblue" d="M424.63,-286.7C421.72,-286.08 418.81,-285.5 416,-285 286.86,-261.81 252.99,-266.78 123,-249 121.85,-248.84 120.69,-248.68 119.52,-248.52"/>
<polygon fill="midnightblue" stroke="midnightblue" points="120.21,-244.94 109.82,-247 119.23,-251.87 120.21,-244.94"/>
</g>
<!-- Node22 -->
<g id="node22" class="node">
<title>Node22</title>
<g id="a_node22"><a xlink:href="_surface_8h.html" target="_top" xlink:title=" ">
<polygon fill="none" stroke="black" points="305.38,-228.5 305.38,-248.5 362.62,-248.5 362.62,-228.5 305.38,-228.5"/>
<text text-anchor="middle" x="334" y="-235" font-family="Helvetica,sans-Serif" font-size="10.00">Surface.h</text>
</a>
</g>
</g>
<!-- Node4&#45;&gt;Node22 -->
<g id="edge26" class="edge">
<title>Node4&#45;&gt;Node22</title>
<path fill="none" stroke="midnightblue" d="M436.13,-285.54C416.54,-276.71 386.37,-263.11 363.89,-252.98"/>
<polygon fill="midnightblue" stroke="midnightblue" points="365.42,-249.37 354.86,-248.46 362.54,-255.76 365.42,-249.37"/>
</g>
<!-- Node27 -->
<g id="node27" class="node">
<title>Node27</title>
<g id="a_node27"><a xlink:title=" ">
<polygon fill="none" stroke="#bfbfbf" points="430.75,-228.5 430.75,-248.5 481.25,-248.5 481.25,-228.5 430.75,-228.5"/>
<text text-anchor="middle" x="456" y="-235" font-family="Helvetica,sans-Serif" font-size="10.00">d3d11.h</text>
</a>
</g>
</g>
<!-- Node4&#45;&gt;Node27 -->
<g id="edge35" class="edge">
<title>Node4&#45;&gt;Node27</title>
<path fill="none" stroke="midnightblue" d="M456,-285.91C456,-278.76 456,-268.32 456,-259.15"/>
<polygon fill="midnightblue" stroke="midnightblue" points="459.5,-259.21 456,-249.21 452.5,-259.21 459.5,-259.21"/>
</g>
<!-- Node28 -->
<g id="node28" class="node">
<title>Node28</title>
<g id="a_node28"><a xlink:title=" ">
<polygon fill="none" stroke="#bfbfbf" points="498.88,-228.5 498.88,-248.5 535.12,-248.5 535.12,-228.5 498.88,-228.5"/>
<text text-anchor="middle" x="517" y="-235" font-family="Helvetica,sans-Serif" font-size="10.00">wrl.h</text>
</a>
</g>
</g>
<!-- Node4&#45;&gt;Node28 -->
<g id="edge36" class="edge">
<title>Node4&#45;&gt;Node28</title>
<path fill="none" stroke="midnightblue" d="M465.8,-285.66C474.73,-277.61 488.14,-265.52 499,-255.73"/>
<polygon fill="midnightblue" stroke="midnightblue" points="500.94,-258.79 506.02,-249.5 496.25,-253.59 500.94,-258.79"/>
</g>
<!-- Node6 -->
<g id="node6" class="node">
<title>Node6</title>
<g id="a_node6"><a xlink:title=" ">
<polygon fill="none" stroke="#bfbfbf" points="422,-114.5 422,-134.5 462,-134.5 462,-114.5 422,-114.5"/>
<text text-anchor="middle" x="442" y="-121" font-family="Helvetica,sans-Serif" font-size="10.00">string</text>
</a>
</g>
</g>
<!-- Node5&#45;&gt;Node6 -->
<g id="edge5" class="edge">
<title>Node5&#45;&gt;Node6</title>
<path fill="none" stroke="midnightblue" d="M465.62,-171.91C461.83,-164.44 456.19,-153.38 451.38,-143.93"/>
<polygon fill="midnightblue" stroke="midnightblue" points="454.09,-142.54 446.44,-135.21 447.85,-145.71 454.09,-142.54"/>
</g>
<!-- Node8 -->
<g id="node8" class="node">
<title>Node8</title>
<g id="a_node8"><a xlink:href="_math_8h.html" target="_top" xlink:title=" ">
<polygon fill="none" stroke="black" points="150,-57.5 150,-77.5 196,-77.5 196,-57.5 150,-57.5"/>
<text text-anchor="middle" x="173" y="-64" font-family="Helvetica,sans-Serif" font-size="10.00">Math.h</text>
</a>
</g>
</g>
<!-- Node7&#45;&gt;Node8 -->
<g id="edge7" class="edge">
<title>Node7&#45;&gt;Node8</title>
<path fill="none" stroke="midnightblue" d="M254.42,-114.66C239.23,-106.05 215.9,-92.83 198.1,-82.73"/>
<polygon fill="midnightblue" stroke="midnightblue" points="200.29,-79.39 189.87,-77.5 196.84,-85.47 200.29,-79.39"/>
</g>
<!-- Node13 -->
<g id="node13" class="node">
<title>Node13</title>
<g id="a_node13"><a xlink:href="_matrix3_8h.html" target="_top" xlink:title=" ">
<polygon fill="none" stroke="black" points="269.75,-57.5 269.75,-77.5 326.25,-77.5 326.25,-57.5 269.75,-57.5"/>
<text text-anchor="middle" x="298" y="-64" font-family="Helvetica,sans-Serif" font-size="10.00">Matrix3.h</text>
</a>
</g>
</g>
<!-- Node7&#45;&gt;Node13 -->
<g id="edge13" class="edge">
<title>Node7&#45;&gt;Node13</title>
<path fill="none" stroke="midnightblue" d="M274.38,-114.91C278.17,-107.44 283.81,-96.38 288.62,-86.93"/>
<polygon fill="midnightblue" stroke="midnightblue" points="292.15,-88.71 293.56,-78.21 285.91,-85.54 292.15,-88.71"/>
</g>
<!-- Node14 -->
<g id="node14" class="node">
<title>Node14</title>
<g id="a_node14"><a xlink:title=" ">
<polygon fill="none" stroke="#bfbfbf" points="344.12,-0.5 344.12,-20.5 381.88,-20.5 381.88,-0.5 344.12,-0.5"/>
<text text-anchor="middle" x="363" y="-7" font-family="Helvetica,sans-Serif" font-size="10.00">array</text>
</a>
</g>
</g>
<!-- Node7&#45;&gt;Node14 -->
<g id="edge18" class="edge">
<title>Node7&#45;&gt;Node14</title>
<path fill="none" stroke="midnightblue" d="M288.11,-114.51C302.47,-106.59 322.19,-93.86 335,-78 346.31,-63.99 353.75,-44.75 358.1,-30.56"/>
<polygon fill="midnightblue" stroke="midnightblue" points="361.71,-31.64 361.04,-21.07 354.97,-29.75 361.71,-31.64"/>
</g>
<!-- Node15 -->
<g id="node15" class="node">
<title>Node15</title>
<g id="a_node15"><a xlink:title=" ">
<polygon fill="none" stroke="#bfbfbf" points="278.25,-0.5 278.25,-20.5 325.75,-20.5 325.75,-0.5 278.25,-0.5"/>
<text text-anchor="middle" x="302" y="-7" font-family="Helvetica,sans-Serif" font-size="10.00">cstddef</text>
</a>
</g>
</g>
<!-- Node7&#45;&gt;Node15 -->
<g id="edge21" class="edge">
<title>Node7&#45;&gt;Node15</title>
<path fill="none" stroke="midnightblue" d="M266.1,-114.57C260.99,-101.5 253.48,-76.58 261,-57 265.3,-45.8 273.77,-35.64 281.91,-27.77"/>
<polygon fill="midnightblue" stroke="midnightblue" points="283.96,-30.74 289.07,-21.46 279.28,-25.52 283.96,-30.74"/>
</g>
<!-- Node16 -->
<g id="node16" class="node">
<title>Node16</title>
<g id="a_node16"><a xlink:title=" ">
<polygon fill="none" stroke="#bfbfbf" points="475.25,-0.5 475.25,-20.5 528.75,-20.5 528.75,-0.5 475.25,-0.5"/>
<text text-anchor="middle" x="502" y="-7" font-family="Helvetica,sans-Serif" font-size="10.00">iostream</text>
</a>
</g>
</g>
<!-- Node7&#45;&gt;Node16 -->
<g id="edge19" class="edge">
<title>Node7&#45;&gt;Node16</title>
<path fill="none" stroke="midnightblue" d="M288.59,-114.52C329.16,-94.94 425.84,-48.27 473.89,-25.07"/>
<polygon fill="midnightblue" stroke="midnightblue" points="475.16,-27.86 482.64,-20.36 472.11,-21.56 475.16,-27.86"/>
</g>
<!-- Node17 -->
<g id="node17" class="node">
<title>Node17</title>
<g id="a_node17"><a xlink:title=" ">
<polygon fill="none" stroke="#bfbfbf" points="420.25,-57.5 420.25,-77.5 473.75,-77.5 473.75,-57.5 420.25,-57.5"/>
<text text-anchor="middle" x="447" y="-64" font-family="Helvetica,sans-Serif" font-size="10.00">compare</text>
</a>
</g>
</g>
<!-- Node7&#45;&gt;Node17 -->
<g id="edge20" class="edge">
<title>Node7&#45;&gt;Node17</title>
<path fill="none" stroke="midnightblue" d="M298.83,-114.54C329.24,-105.09 377.24,-90.18 410.32,-79.9"/>
<polygon fill="midnightblue" stroke="midnightblue" points="410.98,-83.05 419.5,-76.74 408.91,-76.36 410.98,-83.05"/>
</g>
<!-- Node8&#45;&gt;Node8 -->
<g id="edge8" class="edge">
<title>Node8&#45;&gt;Node8</title>
<path fill="none" stroke="midnightblue" d="M191.55,-77.43C203.05,-79.83 214,-76.52 214,-67.5 214,-61.44 209.06,-57.96 202.33,-57.05"/>
<polygon fill="midnightblue" stroke="midnightblue" points="202.37,-53.59 192.55,-57.57 202.71,-60.59 202.37,-53.59"/>
</g>
<!-- Node9 -->
<g id="node9" class="node">
<title>Node9</title>
<g id="a_node9"><a xlink:title=" ">
<polygon fill="none" stroke="#bfbfbf" points="217.5,-0.5 217.5,-20.5 260.5,-20.5 260.5,-0.5 217.5,-0.5"/>
<text text-anchor="middle" x="239" y="-7" font-family="Helvetica,sans-Serif" font-size="10.00">cmath</text>
</a>
</g>
</g>
<!-- Node8&#45;&gt;Node9 -->
<g id="edge9" class="edge">
<title>Node8&#45;&gt;Node9</title>
<path fill="none" stroke="midnightblue" d="M183.6,-57.66C193.36,-49.53 208.06,-37.28 219.87,-27.44"/>
<polygon fill="midnightblue" stroke="midnightblue" points="221.76,-29.59 227.2,-20.5 217.28,-24.21 221.76,-29.59"/>
</g>
<!-- Node10 -->
<g id="node10" class="node">
<title>Node10</title>
<g id="a_node10"><a xlink:title=" ">
<polygon fill="none" stroke="#bfbfbf" points="89.38,-0.5 89.38,-20.5 128.62,-20.5 128.62,-0.5 89.38,-0.5"/>
<text text-anchor="middle" x="109" y="-7" font-family="Helvetica,sans-Serif" font-size="10.00">limits</text>
</a>
</g>
</g>
<!-- Node8&#45;&gt;Node10 -->
<g id="edge10" class="edge">
<title>Node8&#45;&gt;Node10</title>
<path fill="none" stroke="midnightblue" d="M162.72,-57.66C153.26,-49.53 139,-37.28 127.55,-27.44"/>
<polygon fill="midnightblue" stroke="midnightblue" points="130.34,-24.36 120.47,-20.5 125.77,-29.67 130.34,-24.36"/>
</g>
<!-- Node11 -->
<g id="node11" class="node">
<title>Node11</title>
<g id="a_node11"><a xlink:title=" ">
<polygon fill="none" stroke="#bfbfbf" points="146.25,-0.5 146.25,-20.5 199.75,-20.5 199.75,-0.5 146.25,-0.5"/>
<text text-anchor="middle" x="173" y="-7" font-family="Helvetica,sans-Serif" font-size="10.00">numbers</text>
</a>
</g>
</g>
<!-- Node8&#45;&gt;Node11 -->
<g id="edge11" class="edge">
<title>Node8&#45;&gt;Node11</title>
<path fill="none" stroke="midnightblue" d="M173,-57.91C173,-50.76 173,-40.32 173,-31.15"/>
<polygon fill="midnightblue" stroke="midnightblue" points="176.5,-31.21 173,-21.21 169.5,-31.21 176.5,-31.21"/>
</g>
<!-- Node12 -->
<g id="node12" class="node">
<title>Node12</title>
<g id="a_node12"><a xlink:title=" ">
<polygon fill="none" stroke="#bfbfbf" points="22.88,-0.5 22.88,-20.5 71.12,-20.5 71.12,-0.5 22.88,-0.5"/>
<text text-anchor="middle" x="47" y="-7" font-family="Helvetica,sans-Serif" font-size="10.00">random</text>
</a>
</g>
</g>
<!-- Node8&#45;&gt;Node12 -->
<g id="edge12" class="edge">
<title>Node8&#45;&gt;Node12</title>
<path fill="none" stroke="midnightblue" d="M152.48,-57.54C132.16,-48.67 100.8,-34.99 77.56,-24.84"/>
<polygon fill="midnightblue" stroke="midnightblue" points="79.08,-21.25 68.52,-20.46 76.28,-27.66 79.08,-21.25"/>
</g>
<!-- Node13&#45;&gt;Node9 -->
<g id="edge15" class="edge">
<title>Node13&#45;&gt;Node9</title>
<path fill="none" stroke="midnightblue" d="M288.52,-57.66C279.88,-49.61 266.91,-37.52 256.41,-27.73"/>
<polygon fill="midnightblue" stroke="midnightblue" points="259.35,-25.76 249.65,-21.5 254.58,-30.88 259.35,-25.76"/>
</g>
<!-- Node13&#45;&gt;Node14 -->
<g id="edge14" class="edge">
<title>Node13&#45;&gt;Node14</title>
<path fill="none" stroke="midnightblue" d="M308.44,-57.66C318.05,-49.53 332.53,-37.28 344.16,-27.44"/>
<polygon fill="midnightblue" stroke="midnightblue" points="345.99,-29.63 351.37,-20.5 341.47,-24.29 345.99,-29.63"/>
</g>
<!-- Node13&#45;&gt;Node15 -->
<g id="edge16" class="edge">
<title>Node13&#45;&gt;Node15</title>
<path fill="none" stroke="midnightblue" d="M298.62,-57.91C299.14,-50.76 299.9,-40.32 300.57,-31.15"/>
<polygon fill="midnightblue" stroke="midnightblue" points="304.13,-31.44 301.37,-21.21 297.15,-30.93 304.13,-31.44"/>
</g>
<!-- Node13&#45;&gt;Node16 -->
<g id="edge17" class="edge">
<title>Node13&#45;&gt;Node16</title>
<path fill="none" stroke="midnightblue" d="M325.94,-58.97C362.02,-49.24 424.94,-32.28 464.97,-21.48"/>
<polygon fill="midnightblue" stroke="midnightblue" points="465.63,-24.66 474.37,-18.68 463.8,-17.9 465.63,-24.66"/>
</g>
<!-- Node19 -->
<g id="node19" class="node">
<title>Node19</title>
<g id="a_node19"><a xlink:href="_win_8h.html" target="_top" xlink:title=" ">
<polygon fill="none" stroke="black" points="53.25,-171.5 53.25,-191.5 94.75,-191.5 94.75,-171.5 53.25,-171.5"/>
<text text-anchor="middle" x="74" y="-178" font-family="Helvetica,sans-Serif" font-size="10.00">Win.h</text>
</a>
</g>
</g>
<!-- Node18&#45;&gt;Node19 -->
<g id="edge23" class="edge">
<title>Node18&#45;&gt;Node19</title>
<path fill="none" stroke="midnightblue" d="M62.19,-228.91C64.03,-221.68 66.72,-211.09 69.08,-201.85"/>
<polygon fill="midnightblue" stroke="midnightblue" points="72.71,-202.77 71.78,-192.21 65.92,-201.04 72.71,-202.77"/>
</g>
<!-- Node20 -->
<g id="node20" class="node">
<title>Node20</title>
<g id="a_node20"><a xlink:title=" ">
<polygon fill="none" stroke="#bfbfbf" points="82.12,-114.5 82.12,-134.5 149.88,-134.5 149.88,-114.5 82.12,-114.5"/>
<text text-anchor="middle" x="116" y="-121" font-family="Helvetica,sans-Serif" font-size="10.00">sdkddkver.h</text>
</a>
</g>
</g>
<!-- Node19&#45;&gt;Node20 -->
<g id="edge24" class="edge">
<title>Node19&#45;&gt;Node20</title>
<path fill="none" stroke="midnightblue" d="M80.56,-171.91C86.51,-164.12 95.44,-152.42 102.85,-142.71"/>
<polygon fill="midnightblue" stroke="midnightblue" points="106.06,-145.29 109.34,-135.21 100.49,-141.04 106.06,-145.29"/>
</g>
<!-- Node21 -->
<g id="node21" class="node">
<title>Node21</title>
<g id="a_node21"><a xlink:title=" ">
<polygon fill="none" stroke="#bfbfbf" points="0,-114.5 0,-134.5 64,-134.5 64,-114.5 0,-114.5"/>
<text text-anchor="middle" x="32" y="-121" font-family="Helvetica,sans-Serif" font-size="10.00">Windows.h</text>
</a>
</g>
</g>
<!-- Node19&#45;&gt;Node21 -->
<g id="edge25" class="edge">
<title>Node19&#45;&gt;Node21</title>
<path fill="none" stroke="midnightblue" d="M67.44,-171.91C61.49,-164.12 52.56,-152.42 45.15,-142.71"/>
<polygon fill="midnightblue" stroke="midnightblue" points="47.51,-141.04 38.66,-135.21 41.94,-145.29 47.51,-141.04"/>
</g>
<!-- Node22&#45;&gt;Node5 -->
<g id="edge30" class="edge">
<title>Node22&#45;&gt;Node5</title>
<path fill="none" stroke="midnightblue" d="M356.15,-228.54C378.28,-219.59 412.54,-205.74 437.69,-195.57"/>
<polygon fill="midnightblue" stroke="midnightblue" points="438.9,-198.45 446.86,-191.46 436.27,-191.96 438.9,-198.45"/>
</g>
<!-- Node22&#45;&gt;Node6 -->
<g id="edge33" class="edge">
<title>Node22&#45;&gt;Node6</title>
<path fill="none" stroke="midnightblue" d="M332.54,-228.78C330.76,-215.07 329.36,-188.27 342,-171 358.46,-148.51 388.7,-136.87 411.63,-131.02"/>
<polygon fill="midnightblue" stroke="midnightblue" points="412.25,-134.24 421.21,-128.6 410.68,-127.42 412.25,-134.24"/>
</g>
<!-- Node22&#45;&gt;Node19 -->
<g id="edge29" class="edge">
<title>Node22&#45;&gt;Node19</title>
<path fill="none" stroke="midnightblue" d="M305.68,-231.51C256.61,-221.13 156.17,-199.88 105.18,-189.1"/>
<polygon fill="midnightblue" stroke="midnightblue" points="106.01,-185.48 95.5,-186.84 104.56,-192.33 106.01,-185.48"/>
</g>
<!-- Node23 -->
<g id="node23" class="node">
<title>Node23</title>
<g id="a_node23"><a xlink:href="_colors_8h.html" target="_top" xlink:title=" ">
<polygon fill="none" stroke="black" points="165,-171.5 165,-191.5 217,-191.5 217,-171.5 165,-171.5"/>
<text text-anchor="middle" x="191" y="-178" font-family="Helvetica,sans-Serif" font-size="10.00">Colors.h</text>
</a>
</g>
</g>
<!-- Node22&#45;&gt;Node23 -->
<g id="edge27" class="edge">
<title>Node22&#45;&gt;Node23</title>
<path fill="none" stroke="midnightblue" d="M310.71,-228.54C287.23,-219.51 250.78,-205.49 224.26,-195.29"/>
<polygon fill="midnightblue" stroke="midnightblue" points="225.87,-191.78 215.28,-191.46 223.36,-198.31 225.87,-191.78"/>
</g>
<!-- Node24 -->
<g id="node24" class="node">
<title>Node24</title>
<g id="a_node24"><a xlink:title=" ">
<polygon fill="none" stroke="#bfbfbf" points="351.38,-171.5 351.38,-191.5 402.62,-191.5 402.62,-171.5 351.38,-171.5"/>
<text text-anchor="middle" x="377" y="-178" font-family="Helvetica,sans-Serif" font-size="10.00">assert.h</text>
</a>
</g>
</g>
<!-- Node22&#45;&gt;Node24 -->
<g id="edge31" class="edge">
<title>Node22&#45;&gt;Node24</title>
<path fill="none" stroke="midnightblue" d="M340.72,-228.91C346.8,-221.12 355.95,-209.42 363.54,-199.71"/>
<polygon fill="midnightblue" stroke="midnightblue" points="366.78,-202.25 370.19,-192.21 361.27,-197.94 366.78,-202.25"/>
</g>
<!-- Node22&#45;&gt;Node25 -->
<g id="edge32" class="edge">
<title>Node22&#45;&gt;Node25</title>
<path fill="none" stroke="midnightblue" d="M362.35,-231.18C398.28,-223.09 462.37,-208.43 527.03,-192.18"/>
<polygon fill="midnightblue" stroke="midnightblue" points="527.57,-195.4 536.41,-189.55 525.86,-188.61 527.57,-195.4"/>
</g>
<!-- Node26 -->
<g id="node26" class="node">
<title>Node26</title>
<g id="a_node26"><a xlink:title=" ">
<polygon fill="none" stroke="#bfbfbf" points="234.88,-171.5 234.88,-191.5 295.12,-191.5 295.12,-171.5 234.88,-171.5"/>
<text text-anchor="middle" x="265" y="-178" font-family="Helvetica,sans-Serif" font-size="10.00">filesystem</text>
</a>
</g>
</g>
<!-- Node22&#45;&gt;Node26 -->
<g id="edge34" class="edge">
<title>Node22&#45;&gt;Node26</title>
<path fill="none" stroke="midnightblue" d="M322.91,-228.66C312.61,-220.45 297.04,-208.04 284.64,-198.15"/>
<polygon fill="midnightblue" stroke="midnightblue" points="287.29,-194.99 277.29,-191.5 282.93,-200.47 287.29,-194.99"/>
</g>
<!-- Node23&#45;&gt;Node7 -->
<g id="edge28" class="edge">
<title>Node23&#45;&gt;Node7</title>
<path fill="none" stroke="midnightblue" d="M203.69,-171.66C215.71,-163.29 234.01,-150.56 248.34,-140.58"/>
<polygon fill="midnightblue" stroke="midnightblue" points="249.87,-143.08 256.08,-134.5 245.87,-137.34 249.87,-143.08"/>
</g>
<!-- Node29&#45;&gt;Node4 -->
<g id="edge52" class="edge">
<title>Node29&#45;&gt;Node4</title>
<path fill="none" stroke="midnightblue" d="M591.13,-342.66C564.42,-333.54 522.5,-319.22 492.43,-308.95"/>
<polygon fill="midnightblue" stroke="midnightblue" points="493.93,-305.42 483.34,-305.5 491.67,-312.04 493.93,-305.42"/>
</g>
<!-- Node29&#45;&gt;Node6 -->
<g id="edge53" class="edge">
<title>Node29&#45;&gt;Node6</title>
<path fill="none" stroke="midnightblue" d="M619.14,-342.68C625.53,-314.06 641.43,-222.59 598,-171 562.28,-128.57 530.75,-149.5 472.35,-135.03"/>
<polygon fill="midnightblue" stroke="midnightblue" points="473.51,-131.45 462.93,-132.15 471.64,-138.19 473.51,-131.45"/>
</g>
<!-- Node30 -->
<g id="node30" class="node">
<title>Node30</title>
<g id="a_node30"><a xlink:href="_keyboard_8h.html" target="_top" xlink:title=" ">
<polygon fill="none" stroke="black" points="645.25,-285.5 645.25,-305.5 710.75,-305.5 710.75,-285.5 645.25,-285.5"/>
<text text-anchor="middle" x="678" y="-292" font-family="Helvetica,sans-Serif" font-size="10.00">Keyboard.h</text>
</a>
</g>
</g>
<!-- Node29&#45;&gt;Node30 -->
<g id="edge38" class="edge">
<title>Node29&#45;&gt;Node30</title>
<path fill="none" stroke="midnightblue" d="M626.8,-342.66C635.73,-334.61 649.14,-322.52 660,-312.73"/>
<polygon fill="midnightblue" stroke="midnightblue" points="661.94,-315.79 667.02,-306.5 657.25,-310.59 661.94,-315.79"/>
</g>
<!-- Node33 -->
<g id="node33" class="node">
<title>Node33</title>
<g id="a_node33"><a xlink:href="_mouse_8h.html" target="_top" xlink:title=" ">
<polygon fill="none" stroke="black" points="729.25,-285.5 729.25,-305.5 782.75,-305.5 782.75,-285.5 729.25,-285.5"/>
<text text-anchor="middle" x="756" y="-292" font-family="Helvetica,sans-Serif" font-size="10.00">Mouse.h</text>
</a>
</g>
</g>
<!-- Node29&#45;&gt;Node33 -->
<g id="edge41" class="edge">
<title>Node29&#45;&gt;Node33</title>
<path fill="none" stroke="midnightblue" d="M639.64,-342.54C662.36,-333.55 697.58,-319.62 723.32,-309.43"/>
<polygon fill="midnightblue" stroke="midnightblue" points="724.36,-312.39 732.37,-305.46 721.78,-305.88 724.36,-312.39"/>
</g>
<!-- Node31 -->
<g id="node31" class="node">
<title>Node31</title>
<g id="a_node31"><a xlink:title=" ">
<polygon fill="none" stroke="#bfbfbf" points="645,-228.5 645,-248.5 685,-248.5 685,-228.5 645,-228.5"/>
<text text-anchor="middle" x="665" y="-235" font-family="Helvetica,sans-Serif" font-size="10.00">bitset</text>
</a>
</g>
</g>
<!-- Node30&#45;&gt;Node31 -->
<g id="edge39" class="edge">
<title>Node30&#45;&gt;Node31</title>
<path fill="none" stroke="midnightblue" d="M675.97,-285.91C674.26,-278.68 671.76,-268.09 669.57,-258.85"/>
<polygon fill="midnightblue" stroke="midnightblue" points="672.77,-258.14 667.06,-249.21 665.95,-259.75 672.77,-258.14"/>
</g>
<!-- Node32 -->
<g id="node32" class="node">
<title>Node32</title>
<g id="a_node32"><a xlink:title=" ">
<polygon fill="none" stroke="#bfbfbf" points="702.88,-228.5 702.88,-248.5 745.12,-248.5 745.12,-228.5 702.88,-228.5"/>
<text text-anchor="middle" x="724" y="-235" font-family="Helvetica,sans-Serif" font-size="10.00">queue</text>
</a>
</g>
</g>
<!-- Node30&#45;&gt;Node32 -->
<g id="edge40" class="edge">
<title>Node30&#45;&gt;Node32</title>
<path fill="none" stroke="midnightblue" d="M685.19,-285.91C691.77,-278.04 701.69,-266.18 709.85,-256.42"/>
<polygon fill="midnightblue" stroke="midnightblue" points="712.98,-259.13 716.71,-249.21 707.61,-254.64 712.98,-259.13"/>
</g>
<!-- Node33&#45;&gt;Node32 -->
<g id="edge51" class="edge">
<title>Node33&#45;&gt;Node32</title>
<path fill="none" stroke="midnightblue" d="M751,-285.91C746.61,-278.36 740.08,-267.14 734.54,-257.62"/>
<polygon fill="midnightblue" stroke="midnightblue" points="737.12,-256.1 729.07,-249.21 731.07,-259.62 737.12,-256.1"/>
</g>
<!-- Node34 -->
<g id="node34" class="node">
<title>Node34</title>
<g id="a_node34"><a xlink:href="_vector2_8h.html" target="_top" xlink:title=" ">
<polygon fill="none" stroke="black" points="479.88,-114.5 479.88,-134.5 600.12,-134.5 600.12,-114.5 479.88,-114.5"/>
<text text-anchor="middle" x="540" y="-121" font-family="Helvetica,sans-Serif" font-size="10.00">LinearAlgebra/Vector2.h</text>
</a>
</g>
</g>
<!-- Node33&#45;&gt;Node34 -->
<g id="edge42" class="edge">
<title>Node33&#45;&gt;Node34</title>
<path fill="none" stroke="midnightblue" d="M758.37,-285.9C761.56,-272.37 765.6,-245.81 754,-228 720.22,-176.11 652.33,-149.82 602.04,-136.95"/>
<polygon fill="midnightblue" stroke="midnightblue" points="603.13,-133.37 592.59,-134.41 601.48,-140.17 603.13,-133.37"/>
</g>
<!-- Node34&#45;&gt;Node8 -->
<g id="edge43" class="edge">
<title>Node34&#45;&gt;Node8</title>
<path fill="none" stroke="midnightblue" d="M480.22,-114.54C402.2,-102.85 268.34,-82.79 206.33,-73.5"/>
<polygon fill="midnightblue" stroke="midnightblue" points="207.03,-69.91 196.62,-71.89 205.99,-76.83 207.03,-69.91"/>
</g>
<!-- Node34&#45;&gt;Node13 -->
<g id="edge46" class="edge">
<title>Node34&#45;&gt;Node13</title>
<path fill="none" stroke="midnightblue" d="M500.58,-114.54C455.29,-104.25 381.47,-87.47 336.55,-77.26"/>
<polygon fill="midnightblue" stroke="midnightblue" points="337.59,-73.68 327.07,-74.88 336.04,-80.51 337.59,-73.68"/>
</g>
<!-- Node34&#45;&gt;Node14 -->
<g id="edge47" class="edge">
<title>Node34&#45;&gt;Node14</title>
<path fill="none" stroke="midnightblue" d="M539.32,-114.82C537.75,-100.68 532.6,-72.67 516,-57 481.97,-24.86 426.24,-15.33 392.26,-12.56"/>
<polygon fill="midnightblue" stroke="midnightblue" points="392.84,-9.02 382.63,-11.85 392.38,-16.01 392.84,-9.02"/>
</g>
<!-- Node34&#45;&gt;Node15 -->
<g id="edge49" class="edge">
<title>Node34&#45;&gt;Node15</title>
<path fill="none" stroke="midnightblue" d="M534.95,-114.62C526.27,-100.19 507.11,-71.79 483,-57 428.12,-23.32 402.94,-36.85 336.04,-21.04"/>
<polygon fill="midnightblue" stroke="midnightblue" points="336.95,-17.41 326.4,-18.37 335.25,-24.2 336.95,-17.41"/>
</g>
<!-- Node34&#45;&gt;Node16 -->
<g id="edge50" class="edge">
<title>Node34&#45;&gt;Node16</title>
<path fill="none" stroke="midnightblue" d="M545.29,-114.51C552.29,-101.36 562.78,-76.34 554,-57 548.36,-44.58 537.48,-34.22 527.12,-26.53"/>
<polygon fill="midnightblue" stroke="midnightblue" points="529.52,-23.25 519.29,-20.49 525.56,-29.03 529.52,-23.25"/>
</g>
<!-- Node34&#45;&gt;Node17 -->
<g id="edge48" class="edge">
<title>Node34&#45;&gt;Node17</title>
<path fill="none" stroke="midnightblue" d="M525.06,-114.66C510.64,-106.13 488.55,-93.07 471.54,-83.01"/>
<polygon fill="midnightblue" stroke="midnightblue" points="473.6,-79.58 463.21,-77.5 470.04,-85.6 473.6,-79.58"/>
</g>
<!-- Node35 -->
<g id="node35" class="node">
<title>Node35</title>
<g id="a_node35"><a xlink:href="_matrix2_8h.html" target="_top" xlink:title=" ">
<polygon fill="none" stroke="black" points="605.75,-57.5 605.75,-77.5 662.25,-77.5 662.25,-57.5 605.75,-57.5"/>
<text text-anchor="middle" x="634" y="-64" font-family="Helvetica,sans-Serif" font-size="10.00">Matrix2.h</text>
</a>
</g>
</g>
<!-- Node34&#45;&gt;Node35 -->
<g id="edge44" class="edge">
<title>Node34&#45;&gt;Node35</title>
<path fill="none" stroke="midnightblue" d="M555.1,-114.66C569.68,-106.13 592.01,-93.07 609.19,-83.01"/>
<polygon fill="midnightblue" stroke="midnightblue" points="610.76,-85.57 617.62,-77.5 607.22,-79.53 610.76,-85.57"/>
</g>
<!-- Node35&#45;&gt;Node16 -->
<g id="edge45" class="edge">
<title>Node35&#45;&gt;Node16</title>
<path fill="none" stroke="midnightblue" d="M612.5,-57.54C591.02,-48.59 557.77,-34.74 533.36,-24.57"/>
<polygon fill="midnightblue" stroke="midnightblue" points="535.07,-21.07 524.49,-20.46 532.38,-27.53 535.07,-21.07"/>
</g>
</g>
</svg>
