<?xml version="1.0" encoding="UTF-8" standalone="no"?>
<!DOCTYPE svg PUBLIC "-//W3C//DTD SVG 1.1//EN"
 "http://www.w3.org/Graphics/SVG/1.1/DTD/svg11.dtd">
<!-- Generated by graphviz version 8.1.0 (20230707.0739)
 -->
<!-- Title: include/GDIPlusManager.h Pages: 1 -->
<svg width="158pt" height="143pt"
 viewBox="0.00 0.00 157.88 143.00" xmlns="http://www.w3.org/2000/svg" xmlns:xlink="http://www.w3.org/1999/xlink">
<g id="graph0" class="graph" transform="scale(1 1) rotate(0) translate(4 139)">
<title>include/GDIPlusManager.h</title>
<!-- Node1 -->
<g id="node1" class="node">
<title>Node1</title>
<g id="a_node1"><a xlink:title=" ">
<polygon fill="#bfbfbf" stroke="black" points="10.12,-114.5 10.12,-134.5 141.62,-134.5 141.62,-114.5 10.12,-114.5"/>
<text text-anchor="middle" x="75.88" y="-121" font-family="Helvetica,sans-Serif" font-size="10.00">include/GDIPlusManager.h</text>
</a>
</g>
</g>
<!-- Node2 -->
<g id="node2" class="node">
<title>Node2</title>
<g id="a_node2"><a xlink:href="_win_8h.html" target="_top" xlink:title=" ">
<polygon fill="none" stroke="black" points="55.12,-57.5 55.12,-77.5 96.62,-77.5 96.62,-57.5 55.12,-57.5"/>
<text text-anchor="middle" x="75.88" y="-64" font-family="Helvetica,sans-Serif" font-size="10.00">Win.h</text>
</a>
</g>
</g>
<!-- Node1&#45;&gt;Node2 -->
<g id="edge1" class="edge">
<title>Node1&#45;&gt;Node2</title>
<path fill="none" stroke="midnightblue" d="M75.88,-114.91C75.88,-107.76 75.88,-97.32 75.88,-88.15"/>
<polygon fill="midnightblue" stroke="midnightblue" points="79.38,-88.21 75.88,-78.21 72.38,-88.21 79.38,-88.21"/>
</g>
<!-- Node3 -->
<g id="node3" class="node">
<title>Node3</title>
<g id="a_node3"><a xlink:title=" ">
<polygon fill="none" stroke="#bfbfbf" points="0,-0.5 0,-20.5 67.75,-20.5 67.75,-0.5 0,-0.5"/>
<text text-anchor="middle" x="33.88" y="-7" font-family="Helvetica,sans-Serif" font-size="10.00">sdkddkver.h</text>
</a>
</g>
</g>
<!-- Node2&#45;&gt;Node3 -->
<g id="edge2" class="edge">
<title>Node2&#45;&gt;Node3</title>
<path fill="none" stroke="midnightblue" d="M69.31,-57.91C63.37,-50.12 54.43,-38.42 47.02,-28.71"/>
<polygon fill="midnightblue" stroke="midnightblue" points="49.38,-27.04 40.53,-21.21 43.82,-31.29 49.38,-27.04"/>
</g>
<!-- Node4 -->
<g id="node4" class="node">
<title>Node4</title>
<g id="a_node4"><a xlink:title=" ">
<polygon fill="none" stroke="#bfbfbf" points="85.88,-0.5 85.88,-20.5 149.88,-20.5 149.88,-0.5 85.88,-0.5"/>
<text text-anchor="middle" x="117.88" y="-7" font-family="Helvetica,sans-Serif" font-size="10.00">Windows.h</text>
</a>
</g>
</g>
<!-- Node2&#45;&gt;Node4 -->
<g id="edge3" class="edge">
<title>Node2&#45;&gt;Node4</title>
<path fill="none" stroke="midnightblue" d="M82.44,-57.91C88.38,-50.12 97.32,-38.42 104.73,-28.71"/>
<polygon fill="midnightblue" stroke="midnightblue" points="107.93,-31.29 111.22,-21.21 102.37,-27.04 107.93,-31.29"/>
</g>
</g>
</svg>
