<?xml version="1.0" encoding="UTF-8" standalone="no"?>
<!DOCTYPE svg PUBLIC "-//W3C//DTD SVG 1.1//EN"
 "http://www.w3.org/Graphics/SVG/1.1/DTD/svg11.dtd">
<!-- Generated by graphviz version 8.1.0 (20230707.0739)
 -->
<!-- Title: src/Graphics.cpp Pages: 1 -->
<svg width="1653pt" height="371pt"
 viewBox="0.00 0.00 1652.62 371.00" xmlns="http://www.w3.org/2000/svg" xmlns:xlink="http://www.w3.org/1999/xlink">
<g id="graph0" class="graph" transform="scale(1 1) rotate(0) translate(4 367)">
<title>src/Graphics.cpp</title>
<!-- Node1 -->
<g id="node1" class="node">
<title>Node1</title>
<g id="a_node1"><a xlink:title=" ">
<polygon fill="#bfbfbf" stroke="black" points="1091.5,-342.5 1091.5,-362.5 1181.75,-362.5 1181.75,-342.5 1091.5,-342.5"/>
<text text-anchor="middle" x="1136.62" y="-349" font-family="Helvetica,sans-Serif" font-size="10.00">src/Graphics.cpp</text>
</a>
</g>
</g>
<!-- Node2 -->
<g id="node2" class="node">
<title>Node2</title>
<g id="a_node2"><a xlink:href="_graphics_8h.html" target="_top" xlink:title=" ">
<polygon fill="none" stroke="black" points="511,-228.5 511,-248.5 574.25,-248.5 574.25,-228.5 511,-228.5"/>
<text text-anchor="middle" x="542.62" y="-235" font-family="Helvetica,sans-Serif" font-size="10.00">Graphics.h</text>
</a>
</g>
</g>
<!-- Node1&#45;&gt;Node2 -->
<g id="edge1" class="edge">
<title>Node1&#45;&gt;Node2</title>
<path fill="none" stroke="midnightblue" d="M1091.54,-343.79C1040.19,-334.95 953.78,-319.88 879.62,-306 773.23,-286.09 648.31,-260.98 584.6,-248.06"/>
<polygon fill="midnightblue" stroke="midnightblue" points="585.68,-244.5 575.18,-245.94 584.28,-251.36 585.68,-244.5"/>
</g>
<!-- Node4 -->
<g id="node4" class="node">
<title>Node4</title>
<g id="a_node4"><a xlink:title=" ">
<polygon fill="none" stroke="#bfbfbf" points="883.62,-57.5 883.62,-77.5 923.62,-77.5 923.62,-57.5 883.62,-57.5"/>
<text text-anchor="middle" x="903.62" y="-64" font-family="Helvetica,sans-Serif" font-size="10.00">string</text>
</a>
</g>
</g>
<!-- Node1&#45;&gt;Node4 -->
<g id="edge64" class="edge">
<title>Node1&#45;&gt;Node4</title>
<path fill="none" stroke="midnightblue" d="M1136.62,-342.79C1136.62,-323.94 1136.62,-278 1136.62,-239.5 1136.62,-239.5 1136.62,-239.5 1136.62,-180.5 1136.62,-136.04 997.09,-93.32 933.98,-76.27"/>
<polygon fill="midnightblue" stroke="midnightblue" points="935.05,-72.67 924.49,-73.48 933.26,-79.43 935.05,-72.67"/>
</g>
<!-- Node10 -->
<g id="node10" class="node">
<title>Node10</title>
<g id="a_node10"><a xlink:href="_vector2_8h.html" target="_top" xlink:title=" ">
<polygon fill="none" stroke="black" points="221.5,-114.5 221.5,-134.5 341.75,-134.5 341.75,-114.5 221.5,-114.5"/>
<text text-anchor="middle" x="281.62" y="-121" font-family="Helvetica,sans-Serif" font-size="10.00">LinearAlgebra/Vector2.h</text>
</a>
</g>
</g>
<!-- Node1&#45;&gt;Node10 -->
<g id="edge65" class="edge">
<title>Node1&#45;&gt;Node10</title>
<path fill="none" stroke="midnightblue" d="M1091.62,-347.09C1022.69,-340.06 886.94,-325.13 772.62,-306 529.84,-265.37 385.74,-383.14 230.62,-192 216.52,-174.62 237.78,-154.12 257,-140.52"/>
<polygon fill="midnightblue" stroke="midnightblue" points="258.73,-142.9 265.1,-134.44 254.84,-137.08 258.73,-142.9"/>
</g>
<!-- Node11 -->
<g id="node11" class="node">
<title>Node11</title>
<g id="a_node11"><a xlink:title=" ">
<polygon fill="none" stroke="#bfbfbf" points="505.75,-0.5 505.75,-20.5 543.5,-20.5 543.5,-0.5 505.75,-0.5"/>
<text text-anchor="middle" x="524.62" y="-7" font-family="Helvetica,sans-Serif" font-size="10.00">array</text>
</a>
</g>
</g>
<!-- Node1&#45;&gt;Node11 -->
<g id="edge61" class="edge">
<title>Node1&#45;&gt;Node11</title>
<path fill="none" stroke="midnightblue" d="M1181.71,-351.1C1306.03,-348.8 1644.62,-333.88 1644.62,-239.5 1644.62,-239.5 1644.62,-239.5 1644.62,-123.5 1644.62,-10.5 730.3,-10.26 553.88,-11.27"/>
<polygon fill="midnightblue" stroke="midnightblue" points="554.11,-7.78 544.13,-11.34 554.15,-14.78 554.11,-7.78"/>
</g>
<!-- Node30 -->
<g id="node30" class="node">
<title>Node30</title>
<g id="a_node30"><a xlink:href="_d_x_err_8h.html" target="_top" xlink:title=" ">
<polygon fill="none" stroke="black" points="1059.12,-285.5 1059.12,-305.5 1108.12,-305.5 1108.12,-285.5 1059.12,-285.5"/>
<text text-anchor="middle" x="1083.62" y="-292" font-family="Helvetica,sans-Serif" font-size="10.00">DXErr.h</text>
</a>
</g>
</g>
<!-- Node1&#45;&gt;Node30 -->
<g id="edge47" class="edge">
<title>Node1&#45;&gt;Node30</title>
<path fill="none" stroke="midnightblue" d="M1128.34,-342.91C1120.69,-334.96 1109.1,-322.94 1099.64,-313.12"/>
<polygon fill="midnightblue" stroke="midnightblue" points="1102.48,-310.99 1093.02,-306.21 1097.44,-315.84 1102.48,-310.99"/>
</g>
<!-- Node32 -->
<g id="node32" class="node">
<title>Node32</title>
<g id="a_node32"><a xlink:href="_main_window_8h.html" target="_top" xlink:title=" ">
<polygon fill="none" stroke="black" points="888.75,-285.5 888.75,-305.5 968.5,-305.5 968.5,-285.5 888.75,-285.5"/>
<text text-anchor="middle" x="928.62" y="-292" font-family="Helvetica,sans-Serif" font-size="10.00">MainWindow.h</text>
</a>
</g>
</g>
<!-- Node1&#45;&gt;Node32 -->
<g id="edge50" class="edge">
<title>Node1&#45;&gt;Node32</title>
<path fill="none" stroke="midnightblue" d="M1102.74,-342.54C1067.39,-333.19 1011.8,-318.49 972.97,-308.23"/>
<polygon fill="midnightblue" stroke="midnightblue" points="974.05,-304.63 963.49,-305.46 972.27,-311.4 974.05,-304.63"/>
</g>
<!-- Node37 -->
<g id="node37" class="node">
<title>Node37</title>
<g id="a_node37"><a xlink:title=" ">
<polygon fill="none" stroke="#bfbfbf" points="1325.5,-285.5 1325.5,-305.5 1373.75,-305.5 1373.75,-285.5 1325.5,-285.5"/>
<text text-anchor="middle" x="1349.62" y="-292" font-family="Helvetica,sans-Serif" font-size="10.00">cassert</text>
</a>
</g>
</g>
<!-- Node1&#45;&gt;Node37 -->
<g id="edge62" class="edge">
<title>Node1&#45;&gt;Node37</title>
<path fill="none" stroke="midnightblue" d="M1173.6,-342.53C1207.85,-334.14 1260.45,-321.04 1315.24,-306.31"/>
<polygon fill="midnightblue" stroke="midnightblue" points="1316.12,-309.43 1324.86,-303.44 1314.29,-302.67 1316.12,-309.43"/>
</g>
<!-- Node38 -->
<g id="node38" class="node">
<title>Node38</title>
<g id="a_node38"><a xlink:title=" ">
<polygon fill="none" stroke="#bfbfbf" points="1392,-285.5 1392,-305.5 1449.25,-305.5 1449.25,-285.5 1392,-285.5"/>
<text text-anchor="middle" x="1420.62" y="-292" font-family="Helvetica,sans-Serif" font-size="10.00">functional</text>
</a>
</g>
</g>
<!-- Node1&#45;&gt;Node38 -->
<g id="edge63" class="edge">
<title>Node1&#45;&gt;Node38</title>
<path fill="none" stroke="midnightblue" d="M1181.68,-344.03C1228.92,-336.01 1305.53,-322.46 1381.35,-306.17"/>
<polygon fill="midnightblue" stroke="midnightblue" points="1382,-309.39 1391.04,-303.85 1380.52,-302.55 1382,-309.39"/>
</g>
<!-- Node39 -->
<g id="node39" class="node">
<title>Node39</title>
<g id="a_node39"><a xlink:href="_read_data_8h.html" target="_top" xlink:title=" ">
<polygon fill="none" stroke="black" points="1240.12,-285.5 1240.12,-305.5 1307.12,-305.5 1307.12,-285.5 1240.12,-285.5"/>
<text text-anchor="middle" x="1273.62" y="-292" font-family="Helvetica,sans-Serif" font-size="10.00">ReadData.h</text>
</a>
</g>
</g>
<!-- Node1&#45;&gt;Node39 -->
<g id="edge66" class="edge">
<title>Node1&#45;&gt;Node39</title>
<path fill="none" stroke="midnightblue" d="M1158.94,-342.54C1181.33,-333.55 1216.05,-319.62 1241.42,-309.43"/>
<polygon fill="midnightblue" stroke="midnightblue" points="1242.34,-312.43 1250.32,-305.46 1239.73,-305.93 1242.34,-312.43"/>
</g>
<!-- Node3 -->
<g id="node3" class="node">
<title>Node3</title>
<g id="a_node3"><a xlink:href="_engine_exception_8h.html" target="_top" xlink:title=" ">
<polygon fill="none" stroke="black" points="839.75,-114.5 839.75,-134.5 937.5,-134.5 937.5,-114.5 839.75,-114.5"/>
<text text-anchor="middle" x="888.62" y="-121" font-family="Helvetica,sans-Serif" font-size="10.00">EngineException.h</text>
</a>
</g>
</g>
<!-- Node2&#45;&gt;Node3 -->
<g id="edge2" class="edge">
<title>Node2&#45;&gt;Node3</title>
<path fill="none" stroke="midnightblue" d="M562.07,-228.59C581.39,-219.64 611.78,-205.32 637.62,-192 654.78,-183.16 657.55,-177.76 675.62,-171 703.29,-160.66 776.53,-145.99 829.4,-136.13"/>
<polygon fill="midnightblue" stroke="midnightblue" points="829.82,-139.43 839.02,-134.17 828.55,-132.55 829.82,-139.43"/>
</g>
<!-- Node5 -->
<g id="node5" class="node">
<title>Node5</title>
<g id="a_node5"><a xlink:href="_colors_8h.html" target="_top" xlink:title=" ">
<polygon fill="none" stroke="black" points="509.62,-114.5 509.62,-134.5 561.62,-134.5 561.62,-114.5 509.62,-114.5"/>
<text text-anchor="middle" x="535.62" y="-121" font-family="Helvetica,sans-Serif" font-size="10.00">Colors.h</text>
</a>
</g>
</g>
<!-- Node2&#45;&gt;Node5 -->
<g id="edge4" class="edge">
<title>Node2&#45;&gt;Node5</title>
<path fill="none" stroke="midnightblue" d="M542.08,-228.71C540.96,-210.8 538.39,-169.69 536.85,-145.11"/>
<polygon fill="midnightblue" stroke="midnightblue" points="540.29,-145.01 536.17,-135.25 533.3,-145.45 540.29,-145.01"/>
</g>
<!-- Node6 -->
<g id="node6" class="node">
<title>Node6</title>
<g id="a_node6"><a xlink:href="_g_d_i_plus_manager_8h.html" target="_top" xlink:title=" ">
<polygon fill="none" stroke="black" points="684.75,-171.5 684.75,-191.5 782.5,-191.5 782.5,-171.5 684.75,-171.5"/>
<text text-anchor="middle" x="733.62" y="-178" font-family="Helvetica,sans-Serif" font-size="10.00">GDIPlusManager.h</text>
</a>
</g>
</g>
<!-- Node2&#45;&gt;Node6 -->
<g id="edge5" class="edge">
<title>Node2&#45;&gt;Node6</title>
<path fill="none" stroke="midnightblue" d="M573.74,-228.54C605.93,-219.27 656.38,-204.74 691.99,-194.49"/>
<polygon fill="midnightblue" stroke="midnightblue" points="692.88,-197.59 701.53,-191.46 690.95,-190.86 692.88,-197.59"/>
</g>
<!-- Node2&#45;&gt;Node10 -->
<g id="edge9" class="edge">
<title>Node2&#45;&gt;Node10</title>
<path fill="none" stroke="midnightblue" d="M511.14,-237.73C440.66,-237.5 273.59,-232.58 238.62,-192 224.79,-175.95 243.21,-155.12 260.05,-141.08"/>
<polygon fill="midnightblue" stroke="midnightblue" points="261.83,-143.35 267.53,-134.42 257.51,-137.84 261.83,-143.35"/>
</g>
<!-- Node22 -->
<g id="node22" class="node">
<title>Node22</title>
<g id="a_node22"><a xlink:href="_vector3_8h.html" target="_top" xlink:title=" ">
<polygon fill="none" stroke="black" points="371.5,-114.5 371.5,-134.5 491.75,-134.5 491.75,-114.5 371.5,-114.5"/>
<text text-anchor="middle" x="431.62" y="-121" font-family="Helvetica,sans-Serif" font-size="10.00">LinearAlgebra/Vector3.h</text>
</a>
</g>
</g>
<!-- Node2&#45;&gt;Node22 -->
<g id="edge27" class="edge">
<title>Node2&#45;&gt;Node22</title>
<path fill="none" stroke="midnightblue" d="M533.92,-228.71C515.35,-209.98 471.66,-165.89 447.82,-141.84"/>
<polygon fill="midnightblue" stroke="midnightblue" points="450.82,-139.89 441.29,-135.25 445.85,-144.81 450.82,-139.89"/>
</g>
<!-- Node23 -->
<g id="node23" class="node">
<title>Node23</title>
<g id="a_node23"><a xlink:href="_surface_8h.html" target="_top" xlink:title=" ">
<polygon fill="none" stroke="black" points="571,-171.5 571,-191.5 628.25,-191.5 628.25,-171.5 571,-171.5"/>
<text text-anchor="middle" x="599.62" y="-178" font-family="Helvetica,sans-Serif" font-size="10.00">Surface.h</text>
</a>
</g>
</g>
<!-- Node2&#45;&gt;Node23 -->
<g id="edge34" class="edge">
<title>Node2&#45;&gt;Node23</title>
<path fill="none" stroke="midnightblue" d="M551.78,-228.66C560.04,-220.69 572.41,-208.76 582.5,-199.02"/>
<polygon fill="midnightblue" stroke="midnightblue" points="584.53,-201.96 589.3,-192.5 579.67,-196.92 584.53,-201.96"/>
</g>
<!-- Node27 -->
<g id="node27" class="node">
<title>Node27</title>
<g id="a_node27"><a xlink:href="_tex_vertex_8h.html" target="_top" xlink:title=" ">
<polygon fill="none" stroke="black" points="247.38,-171.5 247.38,-191.5 315.88,-191.5 315.88,-171.5 247.38,-171.5"/>
<text text-anchor="middle" x="281.62" y="-178" font-family="Helvetica,sans-Serif" font-size="10.00">TexVertex.h</text>
</a>
</g>
</g>
<!-- Node2&#45;&gt;Node27 -->
<g id="edge42" class="edge">
<title>Node2&#45;&gt;Node27</title>
<path fill="none" stroke="midnightblue" d="M511.35,-231C471.14,-222.64 398.89,-207.56 326.42,-192.16"/>
<polygon fill="midnightblue" stroke="midnightblue" points="327.24,-188.54 316.73,-189.88 325.78,-195.39 327.24,-188.54"/>
</g>
<!-- Node28 -->
<g id="node28" class="node">
<title>Node28</title>
<g id="a_node28"><a xlink:title=" ">
<polygon fill="none" stroke="#bfbfbf" points="334.38,-171.5 334.38,-191.5 384.88,-191.5 384.88,-171.5 334.38,-171.5"/>
<text text-anchor="middle" x="359.62" y="-178" font-family="Helvetica,sans-Serif" font-size="10.00">d3d11.h</text>
</a>
</g>
</g>
<!-- Node2&#45;&gt;Node28 -->
<g id="edge45" class="edge">
<title>Node2&#45;&gt;Node28</title>
<path fill="none" stroke="midnightblue" d="M512.82,-228.54C480.65,-218.87 429.44,-203.48 395.19,-193.19"/>
<polygon fill="midnightblue" stroke="midnightblue" points="396.29,-189.57 385.71,-190.04 394.28,-196.27 396.29,-189.57"/>
</g>
<!-- Node29 -->
<g id="node29" class="node">
<title>Node29</title>
<g id="a_node29"><a xlink:title=" ">
<polygon fill="none" stroke="#bfbfbf" points="402.5,-171.5 402.5,-191.5 438.75,-191.5 438.75,-171.5 402.5,-171.5"/>
<text text-anchor="middle" x="420.62" y="-178" font-family="Helvetica,sans-Serif" font-size="10.00">wrl.h</text>
</a>
</g>
</g>
<!-- Node2&#45;&gt;Node29 -->
<g id="edge46" class="edge">
<title>Node2&#45;&gt;Node29</title>
<path fill="none" stroke="midnightblue" d="M522.75,-228.54C502.49,-219.41 470.91,-205.17 448.22,-194.94"/>
<polygon fill="midnightblue" stroke="midnightblue" points="450.06,-191.48 439.5,-190.56 447.18,-197.86 450.06,-191.48"/>
</g>
<!-- Node3&#45;&gt;Node4 -->
<g id="edge3" class="edge">
<title>Node3&#45;&gt;Node4</title>
<path fill="none" stroke="midnightblue" d="M890.97,-114.91C892.96,-107.6 895.89,-96.85 898.43,-87.54"/>
<polygon fill="midnightblue" stroke="midnightblue" points="901.99,-88.78 901.25,-78.21 895.24,-86.94 901.99,-88.78"/>
</g>
<!-- Node7 -->
<g id="node7" class="node">
<title>Node7</title>
<g id="a_node7"><a xlink:href="_win_8h.html" target="_top" xlink:title=" ">
<polygon fill="none" stroke="black" points="994.88,-114.5 994.88,-134.5 1036.38,-134.5 1036.38,-114.5 994.88,-114.5"/>
<text text-anchor="middle" x="1015.62" y="-121" font-family="Helvetica,sans-Serif" font-size="10.00">Win.h</text>
</a>
</g>
</g>
<!-- Node6&#45;&gt;Node7 -->
<g id="edge6" class="edge">
<title>Node6&#45;&gt;Node7</title>
<path fill="none" stroke="midnightblue" d="M779.56,-171.54C837.19,-160.3 934.47,-141.33 984.24,-131.62"/>
<polygon fill="midnightblue" stroke="midnightblue" points="984.82,-134.88 993.97,-129.53 983.48,-128.01 984.82,-134.88"/>
</g>
<!-- Node8 -->
<g id="node8" class="node">
<title>Node8</title>
<g id="a_node8"><a xlink:title=" ">
<polygon fill="none" stroke="#bfbfbf" points="1051.75,-57.5 1051.75,-77.5 1119.5,-77.5 1119.5,-57.5 1051.75,-57.5"/>
<text text-anchor="middle" x="1085.62" y="-64" font-family="Helvetica,sans-Serif" font-size="10.00">sdkddkver.h</text>
</a>
</g>
</g>
<!-- Node7&#45;&gt;Node8 -->
<g id="edge7" class="edge">
<title>Node7&#45;&gt;Node8</title>
<path fill="none" stroke="midnightblue" d="M1026.87,-114.66C1037.32,-106.45 1053.12,-94.04 1065.7,-84.15"/>
<polygon fill="midnightblue" stroke="midnightblue" points="1067.47,-86.43 1073.17,-77.5 1063.15,-80.92 1067.47,-86.43"/>
</g>
<!-- Node9 -->
<g id="node9" class="node">
<title>Node9</title>
<g id="a_node9"><a xlink:title=" ">
<polygon fill="none" stroke="#bfbfbf" points="969.62,-57.5 969.62,-77.5 1033.62,-77.5 1033.62,-57.5 969.62,-57.5"/>
<text text-anchor="middle" x="1001.62" y="-64" font-family="Helvetica,sans-Serif" font-size="10.00">Windows.h</text>
</a>
</g>
</g>
<!-- Node7&#45;&gt;Node9 -->
<g id="edge8" class="edge">
<title>Node7&#45;&gt;Node9</title>
<path fill="none" stroke="midnightblue" d="M1013.44,-114.91C1011.6,-107.68 1008.9,-97.09 1006.55,-87.85"/>
<polygon fill="midnightblue" stroke="midnightblue" points="1009.7,-87.04 1003.84,-78.21 1002.92,-88.77 1009.7,-87.04"/>
</g>
<!-- Node10&#45;&gt;Node11 -->
<g id="edge10" class="edge">
<title>Node10&#45;&gt;Node11</title>
<path fill="none" stroke="midnightblue" d="M298.22,-114.53C314.7,-105.53 340.62,-91.17 362.62,-78 377.54,-69.07 379.99,-64.61 395.62,-57 428.7,-40.91 468.97,-27.63 495.62,-19.66"/>
<polygon fill="midnightblue" stroke="midnightblue" points="496.54,-22.74 505.15,-16.57 494.57,-16.02 496.54,-22.74"/>
</g>
<!-- Node12 -->
<g id="node12" class="node">
<title>Node12</title>
<g id="a_node12"><a xlink:title=" ">
<polygon fill="none" stroke="#bfbfbf" points="404.88,-57.5 404.88,-77.5 458.38,-77.5 458.38,-57.5 404.88,-57.5"/>
<text text-anchor="middle" x="431.62" y="-64" font-family="Helvetica,sans-Serif" font-size="10.00">compare</text>
</a>
</g>
</g>
<!-- Node10&#45;&gt;Node12 -->
<g id="edge11" class="edge">
<title>Node10&#45;&gt;Node12</title>
<path fill="none" stroke="midnightblue" d="M306.06,-114.54C330.79,-105.47 369.26,-91.37 397.1,-81.16"/>
<polygon fill="midnightblue" stroke="midnightblue" points="398.02,-84.18 406.2,-77.46 395.61,-77.61 398.02,-84.18"/>
</g>
<!-- Node13 -->
<g id="node13" class="node">
<title>Node13</title>
<g id="a_node13"><a xlink:title=" ">
<polygon fill="none" stroke="#bfbfbf" points="402.88,-0.5 402.88,-20.5 450.38,-20.5 450.38,-0.5 402.88,-0.5"/>
<text text-anchor="middle" x="426.62" y="-7" font-family="Helvetica,sans-Serif" font-size="10.00">cstddef</text>
</a>
</g>
</g>
<!-- Node10&#45;&gt;Node13 -->
<g id="edge12" class="edge">
<title>Node10&#45;&gt;Node13</title>
<path fill="none" stroke="midnightblue" d="M291.92,-114.66C307.13,-101.69 336.61,-76.89 362.62,-57 376.35,-46.51 392.16,-35.26 404.64,-26.57"/>
<polygon fill="midnightblue" stroke="midnightblue" points="406.21,-29.05 412.44,-20.48 402.23,-23.29 406.21,-29.05"/>
</g>
<!-- Node14 -->
<g id="node14" class="node">
<title>Node14</title>
<g id="a_node14"><a xlink:title=" ">
<polygon fill="none" stroke="#bfbfbf" points="255.88,-0.5 255.88,-20.5 309.38,-20.5 309.38,-0.5 255.88,-0.5"/>
<text text-anchor="middle" x="282.62" y="-7" font-family="Helvetica,sans-Serif" font-size="10.00">iostream</text>
</a>
</g>
</g>
<!-- Node10&#45;&gt;Node14 -->
<g id="edge13" class="edge">
<title>Node10&#45;&gt;Node14</title>
<path fill="none" stroke="midnightblue" d="M271.46,-114.87C258.26,-102.57 237.8,-79.02 245.62,-57 249.48,-46.15 257.15,-36.01 264.51,-28.06"/>
<polygon fill="midnightblue" stroke="midnightblue" points="266.6,-30.93 271.18,-21.38 261.64,-25.98 266.6,-30.93"/>
</g>
<!-- Node15 -->
<g id="node15" class="node">
<title>Node15</title>
<g id="a_node15"><a xlink:href="_math_8h.html" target="_top" xlink:title=" ">
<polygon fill="none" stroke="black" points="60.62,-57.5 60.62,-77.5 106.62,-77.5 106.62,-57.5 60.62,-57.5"/>
<text text-anchor="middle" x="83.62" y="-64" font-family="Helvetica,sans-Serif" font-size="10.00">Math.h</text>
</a>
</g>
</g>
<!-- Node10&#45;&gt;Node15 -->
<g id="edge14" class="edge">
<title>Node10&#45;&gt;Node15</title>
<path fill="none" stroke="midnightblue" d="M249.37,-114.54C212.87,-104.4 153.7,-87.97 116.82,-77.72"/>
<polygon fill="midnightblue" stroke="midnightblue" points="118.16,-74.18 107.59,-74.88 116.29,-80.93 118.16,-74.18"/>
</g>
<!-- Node20 -->
<g id="node20" class="node">
<title>Node20</title>
<g id="a_node20"><a xlink:href="_matrix2_8h.html" target="_top" xlink:title=" ">
<polygon fill="none" stroke="black" points="142.38,-57.5 142.38,-77.5 198.88,-77.5 198.88,-57.5 142.38,-57.5"/>
<text text-anchor="middle" x="170.62" y="-64" font-family="Helvetica,sans-Serif" font-size="10.00">Matrix2.h</text>
</a>
</g>
</g>
<!-- Node10&#45;&gt;Node20 -->
<g id="edge20" class="edge">
<title>Node10&#45;&gt;Node20</title>
<path fill="none" stroke="midnightblue" d="M263.79,-114.66C246.18,-105.94 218.98,-92.46 198.5,-82.31"/>
<polygon fill="midnightblue" stroke="midnightblue" points="200.3,-78.8 189.78,-77.5 197.19,-85.07 200.3,-78.8"/>
</g>
<!-- Node21 -->
<g id="node21" class="node">
<title>Node21</title>
<g id="a_node21"><a xlink:href="_matrix3_8h.html" target="_top" xlink:title=" ">
<polygon fill="none" stroke="black" points="254.38,-57.5 254.38,-77.5 310.88,-77.5 310.88,-57.5 254.38,-57.5"/>
<text text-anchor="middle" x="282.62" y="-64" font-family="Helvetica,sans-Serif" font-size="10.00">Matrix3.h</text>
</a>
</g>
</g>
<!-- Node10&#45;&gt;Node21 -->
<g id="edge22" class="edge">
<title>Node10&#45;&gt;Node21</title>
<path fill="none" stroke="midnightblue" d="M281.78,-114.91C281.91,-107.76 282.1,-97.32 282.27,-88.15"/>
<polygon fill="midnightblue" stroke="midnightblue" points="285.78,-88.28 282.47,-78.21 278.79,-88.15 285.78,-88.28"/>
</g>
<!-- Node15&#45;&gt;Node15 -->
<g id="edge15" class="edge">
<title>Node15&#45;&gt;Node15</title>
<path fill="none" stroke="midnightblue" d="M102.18,-77.43C113.68,-79.83 124.62,-76.52 124.62,-67.5 124.62,-61.44 119.68,-57.96 112.95,-57.05"/>
<polygon fill="midnightblue" stroke="midnightblue" points="113,-53.59 103.18,-57.57 113.33,-60.59 113,-53.59"/>
</g>
<!-- Node16 -->
<g id="node16" class="node">
<title>Node16</title>
<g id="a_node16"><a xlink:title=" ">
<polygon fill="none" stroke="#bfbfbf" points="195.12,-0.5 195.12,-20.5 238.12,-20.5 238.12,-0.5 195.12,-0.5"/>
<text text-anchor="middle" x="216.62" y="-7" font-family="Helvetica,sans-Serif" font-size="10.00">cmath</text>
</a>
</g>
</g>
<!-- Node15&#45;&gt;Node16 -->
<g id="edge16" class="edge">
<title>Node15&#45;&gt;Node16</title>
<path fill="none" stroke="midnightblue" d="M105.29,-57.54C127.06,-48.54 160.83,-34.57 185.47,-24.38"/>
<polygon fill="midnightblue" stroke="midnightblue" points="186.51,-27.33 194.41,-20.27 183.83,-20.86 186.51,-27.33"/>
</g>
<!-- Node17 -->
<g id="node17" class="node">
<title>Node17</title>
<g id="a_node17"><a xlink:title=" ">
<polygon fill="none" stroke="#bfbfbf" points="0,-0.5 0,-20.5 39.25,-20.5 39.25,-0.5 0,-0.5"/>
<text text-anchor="middle" x="19.62" y="-7" font-family="Helvetica,sans-Serif" font-size="10.00">limits</text>
</a>
</g>
</g>
<!-- Node15&#45;&gt;Node17 -->
<g id="edge17" class="edge">
<title>Node15&#45;&gt;Node17</title>
<path fill="none" stroke="midnightblue" d="M73.34,-57.66C63.88,-49.53 49.63,-37.28 38.18,-27.44"/>
<polygon fill="midnightblue" stroke="midnightblue" points="40.96,-24.36 31.09,-20.5 36.4,-29.67 40.96,-24.36"/>
</g>
<!-- Node18 -->
<g id="node18" class="node">
<title>Node18</title>
<g id="a_node18"><a xlink:title=" ">
<polygon fill="none" stroke="#bfbfbf" points="56.88,-0.5 56.88,-20.5 110.38,-20.5 110.38,-0.5 56.88,-0.5"/>
<text text-anchor="middle" x="83.62" y="-7" font-family="Helvetica,sans-Serif" font-size="10.00">numbers</text>
</a>
</g>
</g>
<!-- Node15&#45;&gt;Node18 -->
<g id="edge18" class="edge">
<title>Node15&#45;&gt;Node18</title>
<path fill="none" stroke="midnightblue" d="M83.62,-57.91C83.62,-50.76 83.62,-40.32 83.62,-31.15"/>
<polygon fill="midnightblue" stroke="midnightblue" points="87.13,-31.21 83.62,-21.21 80.13,-31.21 87.13,-31.21"/>
</g>
<!-- Node19 -->
<g id="node19" class="node">
<title>Node19</title>
<g id="a_node19"><a xlink:title=" ">
<polygon fill="none" stroke="#bfbfbf" points="128.5,-0.5 128.5,-20.5 176.75,-20.5 176.75,-0.5 128.5,-0.5"/>
<text text-anchor="middle" x="152.62" y="-7" font-family="Helvetica,sans-Serif" font-size="10.00">random</text>
</a>
</g>
</g>
<!-- Node15&#45;&gt;Node19 -->
<g id="edge19" class="edge">
<title>Node15&#45;&gt;Node19</title>
<path fill="none" stroke="midnightblue" d="M94.71,-57.66C105.01,-49.45 120.58,-37.04 132.99,-27.15"/>
<polygon fill="midnightblue" stroke="midnightblue" points="134.7,-29.47 140.34,-20.5 130.34,-23.99 134.7,-29.47"/>
</g>
<!-- Node20&#45;&gt;Node14 -->
<g id="edge21" class="edge">
<title>Node20&#45;&gt;Node14</title>
<path fill="none" stroke="midnightblue" d="M188.62,-57.66C206.39,-48.94 233.84,-35.46 254.49,-25.31"/>
<polygon fill="midnightblue" stroke="midnightblue" points="255.87,-28.05 263.3,-20.5 252.78,-21.76 255.87,-28.05"/>
</g>
<!-- Node21&#45;&gt;Node11 -->
<g id="edge23" class="edge">
<title>Node21&#45;&gt;Node11</title>
<path fill="none" stroke="midnightblue" d="M310.86,-60.08C357.05,-49.59 448.31,-28.84 495.24,-18.18"/>
<polygon fill="midnightblue" stroke="midnightblue" points="495.91,-21.39 504.89,-15.76 494.36,-14.56 495.91,-21.39"/>
</g>
<!-- Node21&#45;&gt;Node13 -->
<g id="edge25" class="edge">
<title>Node21&#45;&gt;Node13</title>
<path fill="none" stroke="midnightblue" d="M306.08,-57.54C329.72,-48.51 366.43,-34.49 393.13,-24.29"/>
<polygon fill="midnightblue" stroke="midnightblue" points="394.09,-27.29 402.18,-20.46 391.59,-20.75 394.09,-27.29"/>
</g>
<!-- Node21&#45;&gt;Node14 -->
<g id="edge26" class="edge">
<title>Node21&#45;&gt;Node14</title>
<path fill="none" stroke="midnightblue" d="M282.62,-57.91C282.62,-50.76 282.62,-40.32 282.62,-31.15"/>
<polygon fill="midnightblue" stroke="midnightblue" points="286.13,-31.21 282.62,-21.21 279.13,-31.21 286.13,-31.21"/>
</g>
<!-- Node21&#45;&gt;Node16 -->
<g id="edge24" class="edge">
<title>Node21&#45;&gt;Node16</title>
<path fill="none" stroke="midnightblue" d="M272.02,-57.66C262.26,-49.53 247.56,-37.28 235.76,-27.44"/>
<polygon fill="midnightblue" stroke="midnightblue" points="238.34,-24.21 228.42,-20.5 233.86,-29.59 238.34,-24.21"/>
</g>
<!-- Node22&#45;&gt;Node11 -->
<g id="edge28" class="edge">
<title>Node22&#45;&gt;Node11</title>
<path fill="none" stroke="midnightblue" d="M463.36,-114.66C481.95,-107.77 504.16,-96.24 516.62,-78 526.06,-64.2 527.42,-44.93 526.8,-30.68"/>
<polygon fill="midnightblue" stroke="midnightblue" points="530.24,-30.82 525.95,-21.13 523.26,-31.38 530.24,-30.82"/>
</g>
<!-- Node22&#45;&gt;Node12 -->
<g id="edge30" class="edge">
<title>Node22&#45;&gt;Node12</title>
<path fill="none" stroke="midnightblue" d="M431.62,-114.91C431.62,-107.76 431.62,-97.32 431.62,-88.15"/>
<polygon fill="midnightblue" stroke="midnightblue" points="435.13,-88.21 431.62,-78.21 428.13,-88.21 435.13,-88.21"/>
</g>
<!-- Node22&#45;&gt;Node13 -->
<g id="edge31" class="edge">
<title>Node22&#45;&gt;Node13</title>
<path fill="none" stroke="midnightblue" d="M453.99,-114.59C479.06,-103.16 514.51,-81.83 500.62,-57 491.87,-41.34 475.28,-30.41 460.02,-23.2"/>
<polygon fill="midnightblue" stroke="midnightblue" points="461.85,-19.74 451.28,-18.98 459.06,-26.16 461.85,-19.74"/>
</g>
<!-- Node22&#45;&gt;Node14 -->
<g id="edge29" class="edge">
<title>Node22&#45;&gt;Node14</title>
<path fill="none" stroke="midnightblue" d="M442.86,-114.54C458.22,-101.2 482.28,-75.7 467.62,-57 449.64,-34.06 368.71,-21.14 320.05,-15.32"/>
<polygon fill="midnightblue" stroke="midnightblue" points="320.64,-11.75 310.31,-14.08 319.84,-18.7 320.64,-11.75"/>
</g>
<!-- Node22&#45;&gt;Node15 -->
<g id="edge32" class="edge">
<title>Node22&#45;&gt;Node15</title>
<path fill="none" stroke="midnightblue" d="M371.59,-114.99C311.33,-106.29 215.9,-92.09 133.62,-78 128.21,-77.07 122.48,-76.04 116.9,-75"/>
<polygon fill="midnightblue" stroke="midnightblue" points="117.97,-71.45 107.49,-73.03 116.67,-78.33 117.97,-71.45"/>
</g>
<!-- Node22&#45;&gt;Node21 -->
<g id="edge33" class="edge">
<title>Node22&#45;&gt;Node21</title>
<path fill="none" stroke="midnightblue" d="M407.35,-114.54C382.79,-105.47 344.57,-91.37 316.92,-81.16"/>
<polygon fill="midnightblue" stroke="midnightblue" points="318.48,-77.63 307.89,-77.46 316.05,-84.2 318.48,-77.63"/>
</g>
<!-- Node23&#45;&gt;Node3 -->
<g id="edge37" class="edge">
<title>Node23&#45;&gt;Node3</title>
<path fill="none" stroke="midnightblue" d="M627.81,-174.13C632.74,-173.05 637.83,-171.97 642.62,-171 706.27,-158.09 779.49,-144.74 829.39,-135.86"/>
<polygon fill="midnightblue" stroke="midnightblue" points="829.75,-139.18 838.99,-133.99 828.53,-132.28 829.75,-139.18"/>
</g>
<!-- Node23&#45;&gt;Node4 -->
<g id="edge40" class="edge">
<title>Node23&#45;&gt;Node4</title>
<path fill="none" stroke="midnightblue" d="M628.1,-174.08C676.93,-162.99 772.84,-140.89 787.62,-135 806.14,-127.62 852.03,-100.21 880.22,-82.97"/>
<polygon fill="midnightblue" stroke="midnightblue" points="881.69,-85.56 888.38,-77.34 878.03,-79.6 881.69,-85.56"/>
</g>
<!-- Node23&#45;&gt;Node5 -->
<g id="edge35" class="edge">
<title>Node23&#45;&gt;Node5</title>
<path fill="none" stroke="midnightblue" d="M589.34,-171.66C579.88,-163.53 565.63,-151.28 554.18,-141.44"/>
<polygon fill="midnightblue" stroke="midnightblue" points="556.96,-138.36 547.09,-134.5 552.4,-143.67 556.96,-138.36"/>
</g>
<!-- Node23&#45;&gt;Node7 -->
<g id="edge36" class="edge">
<title>Node23&#45;&gt;Node7</title>
<path fill="none" stroke="midnightblue" d="M627.97,-176.85C687.18,-169.2 828.3,-150.9 946.62,-135 958.98,-133.34 972.57,-131.48 984.4,-129.84"/>
<polygon fill="midnightblue" stroke="midnightblue" points="984.67,-133.2 994.1,-128.36 983.71,-126.27 984.67,-133.2"/>
</g>
<!-- Node24 -->
<g id="node24" class="node">
<title>Node24</title>
<g id="a_node24"><a xlink:title=" ">
<polygon fill="none" stroke="#bfbfbf" points="580,-114.5 580,-134.5 631.25,-134.5 631.25,-114.5 580,-114.5"/>
<text text-anchor="middle" x="605.62" y="-121" font-family="Helvetica,sans-Serif" font-size="10.00">assert.h</text>
</a>
</g>
</g>
<!-- Node23&#45;&gt;Node24 -->
<g id="edge38" class="edge">
<title>Node23&#45;&gt;Node24</title>
<path fill="none" stroke="midnightblue" d="M600.56,-171.91C601.35,-164.68 602.51,-154.09 603.51,-144.85"/>
<polygon fill="midnightblue" stroke="midnightblue" points="607.07,-145.54 604.67,-135.21 600.11,-144.78 607.07,-145.54"/>
</g>
<!-- Node25 -->
<g id="node25" class="node">
<title>Node25</title>
<g id="a_node25"><a xlink:title=" ">
<polygon fill="none" stroke="#bfbfbf" points="649,-114.5 649,-134.5 700.25,-134.5 700.25,-114.5 649,-114.5"/>
<text text-anchor="middle" x="674.62" y="-121" font-family="Helvetica,sans-Serif" font-size="10.00">memory</text>
</a>
</g>
</g>
<!-- Node23&#45;&gt;Node25 -->
<g id="edge39" class="edge">
<title>Node23&#45;&gt;Node25</title>
<path fill="none" stroke="midnightblue" d="M611.68,-171.66C622.98,-163.37 640.13,-150.8 653.67,-140.87"/>
<polygon fill="midnightblue" stroke="midnightblue" points="655.36,-143.23 661.36,-134.5 651.22,-137.59 655.36,-143.23"/>
</g>
<!-- Node26 -->
<g id="node26" class="node">
<title>Node26</title>
<g id="a_node26"><a xlink:title=" ">
<polygon fill="none" stroke="#bfbfbf" points="718.5,-114.5 718.5,-134.5 778.75,-134.5 778.75,-114.5 718.5,-114.5"/>
<text text-anchor="middle" x="748.62" y="-121" font-family="Helvetica,sans-Serif" font-size="10.00">filesystem</text>
</a>
</g>
</g>
<!-- Node23&#45;&gt;Node26 -->
<g id="edge41" class="edge">
<title>Node23&#45;&gt;Node26</title>
<path fill="none" stroke="midnightblue" d="M623.9,-171.54C648.46,-162.47 686.68,-148.37 714.33,-138.16"/>
<polygon fill="midnightblue" stroke="midnightblue" points="715.2,-141.2 723.36,-134.46 712.77,-134.63 715.2,-141.2"/>
</g>
<!-- Node27&#45;&gt;Node10 -->
<g id="edge43" class="edge">
<title>Node27&#45;&gt;Node10</title>
<path fill="none" stroke="midnightblue" d="M281.62,-171.91C281.62,-164.76 281.62,-154.32 281.62,-145.15"/>
<polygon fill="midnightblue" stroke="midnightblue" points="285.13,-145.21 281.62,-135.21 278.13,-145.21 285.13,-145.21"/>
</g>
<!-- Node27&#45;&gt;Node22 -->
<g id="edge44" class="edge">
<title>Node27&#45;&gt;Node22</title>
<path fill="none" stroke="midnightblue" d="M306.06,-171.54C330.79,-162.47 369.26,-148.37 397.1,-138.16"/>
<polygon fill="midnightblue" stroke="midnightblue" points="398.02,-141.18 406.2,-134.46 395.61,-134.61 398.02,-141.18"/>
</g>
<!-- Node30&#45;&gt;Node7 -->
<g id="edge48" class="edge">
<title>Node30&#45;&gt;Node7</title>
<path fill="none" stroke="midnightblue" d="M1084.45,-285.64C1085.36,-272.65 1085.96,-247.83 1079.62,-228 1069.09,-195.03 1045.55,-161.98 1030.14,-142.65"/>
<polygon fill="midnightblue" stroke="midnightblue" points="1032.37,-140.84 1023.33,-135.32 1026.95,-145.28 1032.37,-140.84"/>
</g>
<!-- Node31 -->
<g id="node31" class="node">
<title>Node31</title>
<g id="a_node31"><a xlink:title=" ">
<polygon fill="none" stroke="#bfbfbf" points="1033.12,-228.5 1033.12,-248.5 1070.12,-248.5 1070.12,-228.5 1033.12,-228.5"/>
<text text-anchor="middle" x="1051.62" y="-235" font-family="Helvetica,sans-Serif" font-size="10.00">sal.h</text>
</a>
</g>
</g>
<!-- Node30&#45;&gt;Node31 -->
<g id="edge49" class="edge">
<title>Node30&#45;&gt;Node31</title>
<path fill="none" stroke="midnightblue" d="M1078.62,-285.91C1074.24,-278.36 1067.71,-267.14 1062.17,-257.62"/>
<polygon fill="midnightblue" stroke="midnightblue" points="1064.75,-256.1 1056.7,-249.21 1058.7,-259.62 1064.75,-256.1"/>
</g>
<!-- Node32&#45;&gt;Node2 -->
<g id="edge52" class="edge">
<title>Node32&#45;&gt;Node2</title>
<path fill="none" stroke="midnightblue" d="M888.77,-288.82C815.33,-278.36 659.33,-256.13 584.45,-245.46"/>
<polygon fill="midnightblue" stroke="midnightblue" points="585.4,-241.92 575.01,-243.97 584.41,-248.85 585.4,-241.92"/>
</g>
<!-- Node32&#45;&gt;Node3 -->
<g id="edge51" class="edge">
<title>Node32&#45;&gt;Node3</title>
<path fill="none" stroke="midnightblue" d="M928.11,-285.63C926.74,-265.07 922.2,-212.75 909.62,-171 906.83,-161.73 902.5,-151.93 898.5,-143.8"/>
<polygon fill="midnightblue" stroke="midnightblue" points="901.27,-142.55 893.58,-135.27 895.06,-145.76 901.27,-142.55"/>
</g>
<!-- Node32&#45;&gt;Node4 -->
<g id="edge60" class="edge">
<title>Node32&#45;&gt;Node4</title>
<path fill="none" stroke="midnightblue" d="M932.22,-285.83C942.76,-259.11 971.3,-176.04 946.62,-114 942.05,-102.49 933.02,-92.2 924.41,-84.34"/>
<polygon fill="midnightblue" stroke="midnightblue" points="927.02,-81.12 917.13,-77.33 922.5,-86.46 927.02,-81.12"/>
</g>
<!-- Node32&#45;&gt;Node7 -->
<g id="edge59" class="edge">
<title>Node32&#45;&gt;Node7</title>
<path fill="none" stroke="midnightblue" d="M942.57,-285.7C954.37,-277.56 970.88,-264.41 980.62,-249 1001.41,-216.14 1010.12,-170.72 1013.56,-145.11"/>
<polygon fill="midnightblue" stroke="midnightblue" points="1017.14,-145.62 1014.86,-135.27 1010.19,-144.79 1017.14,-145.62"/>
</g>
<!-- Node33 -->
<g id="node33" class="node">
<title>Node33</title>
<g id="a_node33"><a xlink:href="_keyboard_8h.html" target="_top" xlink:title=" ">
<polygon fill="none" stroke="black" points="834.88,-228.5 834.88,-248.5 900.38,-248.5 900.38,-228.5 834.88,-228.5"/>
<text text-anchor="middle" x="867.62" y="-235" font-family="Helvetica,sans-Serif" font-size="10.00">Keyboard.h</text>
</a>
</g>
</g>
<!-- Node32&#45;&gt;Node33 -->
<g id="edge53" class="edge">
<title>Node32&#45;&gt;Node33</title>
<path fill="none" stroke="midnightblue" d="M918.82,-285.66C909.9,-277.61 896.49,-265.52 885.63,-255.73"/>
<polygon fill="midnightblue" stroke="midnightblue" points="888.37,-253.59 878.6,-249.5 883.69,-258.79 888.37,-253.59"/>
</g>
<!-- Node36 -->
<g id="node36" class="node">
<title>Node36</title>
<g id="a_node36"><a xlink:href="_mouse_8h.html" target="_top" xlink:title=" ">
<polygon fill="none" stroke="black" points="762.88,-228.5 762.88,-248.5 816.38,-248.5 816.38,-228.5 762.88,-228.5"/>
<text text-anchor="middle" x="789.62" y="-235" font-family="Helvetica,sans-Serif" font-size="10.00">Mouse.h</text>
</a>
</g>
</g>
<!-- Node32&#45;&gt;Node36 -->
<g id="edge56" class="edge">
<title>Node32&#45;&gt;Node36</title>
<path fill="none" stroke="midnightblue" d="M905.98,-285.54C883.26,-276.55 848.04,-262.62 822.3,-252.43"/>
<polygon fill="midnightblue" stroke="midnightblue" points="823.84,-248.88 813.26,-248.46 821.27,-255.39 823.84,-248.88"/>
</g>
<!-- Node34 -->
<g id="node34" class="node">
<title>Node34</title>
<g id="a_node34"><a xlink:title=" ">
<polygon fill="none" stroke="#bfbfbf" points="860.62,-171.5 860.62,-191.5 900.62,-191.5 900.62,-171.5 860.62,-171.5"/>
<text text-anchor="middle" x="880.62" y="-178" font-family="Helvetica,sans-Serif" font-size="10.00">bitset</text>
</a>
</g>
</g>
<!-- Node33&#45;&gt;Node34 -->
<g id="edge54" class="edge">
<title>Node33&#45;&gt;Node34</title>
<path fill="none" stroke="midnightblue" d="M869.66,-228.91C871.36,-221.68 873.87,-211.09 876.05,-201.85"/>
<polygon fill="midnightblue" stroke="midnightblue" points="879.67,-202.75 878.57,-192.21 872.86,-201.14 879.67,-202.75"/>
</g>
<!-- Node35 -->
<g id="node35" class="node">
<title>Node35</title>
<g id="a_node35"><a xlink:title=" ">
<polygon fill="none" stroke="#bfbfbf" points="800.5,-171.5 800.5,-191.5 842.75,-191.5 842.75,-171.5 800.5,-171.5"/>
<text text-anchor="middle" x="821.62" y="-178" font-family="Helvetica,sans-Serif" font-size="10.00">queue</text>
</a>
</g>
</g>
<!-- Node33&#45;&gt;Node35 -->
<g id="edge55" class="edge">
<title>Node33&#45;&gt;Node35</title>
<path fill="none" stroke="midnightblue" d="M860.44,-228.91C853.86,-221.04 843.94,-209.18 835.77,-199.42"/>
<polygon fill="midnightblue" stroke="midnightblue" points="838.01,-197.64 828.91,-192.21 832.64,-202.13 838.01,-197.64"/>
</g>
<!-- Node36&#45;&gt;Node10 -->
<g id="edge57" class="edge">
<title>Node36&#45;&gt;Node10</title>
<path fill="none" stroke="midnightblue" d="M762.88,-232.49C720.22,-224.42 634.18,-207.85 561.62,-192 479.03,-173.96 383.28,-150.71 327.86,-137.02"/>
<polygon fill="midnightblue" stroke="midnightblue" points="328.88,-133.42 318.33,-134.42 327.2,-140.22 328.88,-133.42"/>
</g>
<!-- Node36&#45;&gt;Node35 -->
<g id="edge58" class="edge">
<title>Node36&#45;&gt;Node35</title>
<path fill="none" stroke="midnightblue" d="M794.62,-228.91C799.01,-221.36 805.54,-210.14 811.08,-200.62"/>
<polygon fill="midnightblue" stroke="midnightblue" points="814.55,-202.62 816.55,-192.21 808.5,-199.1 814.55,-202.62"/>
</g>
<!-- Node39&#45;&gt;Node13 -->
<g id="edge67" class="edge">
<title>Node39&#45;&gt;Node13</title>
<path fill="none" stroke="midnightblue" d="M1247.37,-285.62C1229.75,-278.38 1207.35,-266.46 1193.62,-249 1174.63,-224.83 1174.62,-213.24 1174.62,-182.5 1174.62,-182.5 1174.62,-182.5 1174.62,-123.5 1174.62,28.08 923.94,-62.1 496.62,-21 485,-19.88 472.33,-18.28 461.01,-16.71"/>
<polygon fill="midnightblue" stroke="midnightblue" points="461.62,-13.12 451.22,-15.17 460.63,-20.05 461.62,-13.12"/>
</g>
<!-- Node40 -->
<g id="node40" class="node">
<title>Node40</title>
<g id="a_node40"><a xlink:title=" ">
<polygon fill="none" stroke="#bfbfbf" points="1429,-228.5 1429,-248.5 1474.25,-248.5 1474.25,-228.5 1429,-228.5"/>
<text text-anchor="middle" x="1451.62" y="-235" font-family="Helvetica,sans-Serif" font-size="10.00">cstdint</text>
</a>
</g>
</g>
<!-- Node39&#45;&gt;Node40 -->
<g id="edge68" class="edge">
<title>Node39&#45;&gt;Node40</title>
<path fill="none" stroke="midnightblue" d="M1302.62,-285.54C1334.53,-275.68 1385.71,-259.87 1419,-249.58"/>
<polygon fill="midnightblue" stroke="midnightblue" points="1419.61,-252.75 1428.13,-246.45 1417.55,-246.06 1419.61,-252.75"/>
</g>
<!-- Node41 -->
<g id="node41" class="node">
<title>Node41</title>
<g id="a_node41"><a xlink:title=" ">
<polygon fill="none" stroke="#bfbfbf" points="1492.62,-228.5 1492.62,-248.5 1550.62,-248.5 1550.62,-228.5 1492.62,-228.5"/>
<text text-anchor="middle" x="1521.62" y="-235" font-family="Helvetica,sans-Serif" font-size="10.00">exception</text>
</a>
</g>
</g>
<!-- Node39&#45;&gt;Node41 -->
<g id="edge69" class="edge">
<title>Node39&#45;&gt;Node41</title>
<path fill="none" stroke="midnightblue" d="M1306.96,-287.12C1310.22,-286.4 1313.49,-285.68 1316.62,-285 1387.62,-269.51 1407.95,-266.46 1482.62,-249.18"/>
<polygon fill="midnightblue" stroke="midnightblue" points="1483.07,-252.43 1492.02,-246.76 1481.48,-245.61 1483.07,-252.43"/>
</g>
<!-- Node42 -->
<g id="node42" class="node">
<title>Node42</title>
<g id="a_node42"><a xlink:title=" ">
<polygon fill="none" stroke="#bfbfbf" points="1568.5,-228.5 1568.5,-248.5 1616.75,-248.5 1616.75,-228.5 1568.5,-228.5"/>
<text text-anchor="middle" x="1592.62" y="-235" font-family="Helvetica,sans-Serif" font-size="10.00">fstream</text>
</a>
</g>
</g>
<!-- Node39&#45;&gt;Node42 -->
<g id="edge70" class="edge">
<title>Node39&#45;&gt;Node42</title>
<path fill="none" stroke="midnightblue" d="M1306.91,-286.9C1310.19,-286.23 1313.47,-285.58 1316.62,-285 1420.64,-265.83 1451.04,-271.75 1557.98,-249.11"/>
<polygon fill="midnightblue" stroke="midnightblue" points="1558.53,-252.35 1567.57,-246.83 1557.06,-245.51 1558.53,-252.35"/>
</g>
<!-- Node43 -->
<g id="node43" class="node">
<title>Node43</title>
<g id="a_node43"><a xlink:title=" ">
<polygon fill="none" stroke="#bfbfbf" points="1202.25,-228.5 1202.25,-248.5 1261,-248.5 1261,-228.5 1202.25,-228.5"/>
<text text-anchor="middle" x="1231.62" y="-235" font-family="Helvetica,sans-Serif" font-size="10.00">stdexcept</text>
</a>
</g>
</g>
<!-- Node39&#45;&gt;Node43 -->
<g id="edge71" class="edge">
<title>Node39&#45;&gt;Node43</title>
<path fill="none" stroke="midnightblue" d="M1267.06,-285.91C1261.12,-278.12 1252.18,-266.42 1244.77,-256.71"/>
<polygon fill="midnightblue" stroke="midnightblue" points="1247.13,-255.04 1238.28,-249.21 1241.57,-259.29 1247.13,-255.04"/>
</g>
<!-- Node44 -->
<g id="node44" class="node">
<title>Node44</title>
<g id="a_node44"><a xlink:title=" ">
<polygon fill="none" stroke="#bfbfbf" points="1279.12,-228.5 1279.12,-248.5 1352.12,-248.5 1352.12,-228.5 1279.12,-228.5"/>
<text text-anchor="middle" x="1315.62" y="-235" font-family="Helvetica,sans-Serif" font-size="10.00">system_error</text>
</a>
</g>
</g>
<!-- Node39&#45;&gt;Node44 -->
<g id="edge72" class="edge">
<title>Node39&#45;&gt;Node44</title>
<path fill="none" stroke="midnightblue" d="M1280.19,-285.91C1286.13,-278.12 1295.07,-266.42 1302.48,-256.71"/>
<polygon fill="midnightblue" stroke="midnightblue" points="1305.68,-259.29 1308.97,-249.21 1300.12,-255.04 1305.68,-259.29"/>
</g>
<!-- Node45 -->
<g id="node45" class="node">
<title>Node45</title>
<g id="a_node45"><a xlink:title=" ">
<polygon fill="none" stroke="#bfbfbf" points="1369.88,-228.5 1369.88,-248.5 1411.38,-248.5 1411.38,-228.5 1369.88,-228.5"/>
<text text-anchor="middle" x="1390.62" y="-235" font-family="Helvetica,sans-Serif" font-size="10.00">vector</text>
</a>
</g>
</g>
<!-- Node39&#45;&gt;Node45 -->
<g id="edge73" class="edge">
<title>Node39&#45;&gt;Node45</title>
<path fill="none" stroke="midnightblue" d="M1292.68,-285.54C1311.38,-276.75 1340.14,-263.23 1361.66,-253.11"/>
<polygon fill="midnightblue" stroke="midnightblue" points="1363.01,-255.88 1370.57,-248.46 1360.04,-249.54 1363.01,-255.88"/>
</g>
</g>
</svg>
