<?xml version="1.0" encoding="UTF-8" standalone="no"?>
<!DOCTYPE svg PUBLIC "-//W3C//DTD SVG 1.1//EN"
 "http://www.w3.org/Graphics/SVG/1.1/DTD/svg11.dtd">
<!-- Generated by graphviz version 8.1.0 (20230707.0739)
 -->
<!-- Title: include/Graphics.h Pages: 1 -->
<svg width="857pt" height="314pt"
 viewBox="0.00 0.00 857.00 314.00" xmlns="http://www.w3.org/2000/svg" xmlns:xlink="http://www.w3.org/1999/xlink">
<g id="graph0" class="graph" transform="scale(1 1) rotate(0) translate(4 310)">
<title>include/Graphics.h</title>
<!-- Node1 -->
<g id="node1" class="node">
<title>Node1</title>
<g id="a_node1"><a xlink:title=" ">
<polygon fill="#bfbfbf" stroke="black" points="471.38,-285.5 471.38,-305.5 568.38,-305.5 568.38,-285.5 471.38,-285.5"/>
<text text-anchor="middle" x="519.88" y="-292" font-family="Helvetica,sans-Serif" font-size="10.00">include/Graphics.h</text>
</a>
</g>
</g>
<!-- Node2 -->
<g id="node2" class="node">
<title>Node2</title>
<g id="a_node2"><a xlink:href="_engine_exception_8h.html" target="_top" xlink:title=" ">
<polygon fill="none" stroke="black" points="157,-171.5 157,-191.5 254.75,-191.5 254.75,-171.5 157,-171.5"/>
<text text-anchor="middle" x="205.88" y="-178" font-family="Helvetica,sans-Serif" font-size="10.00">EngineException.h</text>
</a>
</g>
</g>
<!-- Node1&#45;&gt;Node2 -->
<g id="edge1" class="edge">
<title>Node1&#45;&gt;Node2</title>
<path fill="none" stroke="midnightblue" d="M484.81,-285.51C452.95,-277.05 404.82,-263.53 363.88,-249 318.01,-232.72 266.28,-210.11 234.88,-195.89"/>
<polygon fill="midnightblue" stroke="midnightblue" points="236.6,-192.38 226.05,-191.42 233.7,-198.75 236.6,-192.38"/>
</g>
<!-- Node5 -->
<g id="node5" class="node">
<title>Node5</title>
<g id="a_node5"><a xlink:href="_vector3_8h.html" target="_top" xlink:title=" ">
<polygon fill="none" stroke="black" points="521.75,-114.5 521.75,-134.5 642,-134.5 642,-114.5 521.75,-114.5"/>
<text text-anchor="middle" x="581.88" y="-121" font-family="Helvetica,sans-Serif" font-size="10.00">LinearAlgebra/Vector3.h</text>
</a>
</g>
</g>
<!-- Node1&#45;&gt;Node5 -->
<g id="edge4" class="edge">
<title>Node1&#45;&gt;Node5</title>
<path fill="none" stroke="midnightblue" d="M528.77,-285.64C544.74,-269.03 577.73,-231.33 589.88,-192 594.65,-176.53 591.87,-158.22 588.33,-144.73"/>
<polygon fill="midnightblue" stroke="midnightblue" points="591.43,-143.89 585.2,-135.32 584.73,-145.9 591.43,-143.89"/>
</g>
<!-- Node16 -->
<g id="node16" class="node">
<title>Node16</title>
<g id="a_node16"><a xlink:href="_g_d_i_plus_manager_8h.html" target="_top" xlink:title=" ">
<polygon fill="none" stroke="black" points="129,-228.5 129,-248.5 226.75,-248.5 226.75,-228.5 129,-228.5"/>
<text text-anchor="middle" x="177.88" y="-235" font-family="Helvetica,sans-Serif" font-size="10.00">GDIPlusManager.h</text>
</a>
</g>
</g>
<!-- Node1&#45;&gt;Node16 -->
<g id="edge20" class="edge">
<title>Node1&#45;&gt;Node16</title>
<path fill="none" stroke="midnightblue" d="M471.6,-286.74C410.12,-276.85 303.9,-259.77 237.45,-249.08"/>
<polygon fill="midnightblue" stroke="midnightblue" points="238.16,-245.49 227.73,-247.36 237.05,-252.4 238.16,-245.49"/>
</g>
<!-- Node20 -->
<g id="node20" class="node">
<title>Node20</title>
<g id="a_node20"><a xlink:href="_surface_8h.html" target="_top" xlink:title=" ">
<polygon fill="none" stroke="black" points="373.25,-228.5 373.25,-248.5 430.5,-248.5 430.5,-228.5 373.25,-228.5"/>
<text text-anchor="middle" x="401.88" y="-235" font-family="Helvetica,sans-Serif" font-size="10.00">Surface.h</text>
</a>
</g>
</g>
<!-- Node1&#45;&gt;Node20 -->
<g id="edge24" class="edge">
<title>Node1&#45;&gt;Node20</title>
<path fill="none" stroke="midnightblue" d="M500.65,-285.54C481.71,-276.71 452.53,-263.11 430.79,-252.98"/>
<polygon fill="midnightblue" stroke="midnightblue" points="432.63,-249.51 422.09,-248.46 429.67,-255.85 432.63,-249.51"/>
</g>
<!-- Node25 -->
<g id="node25" class="node">
<title>Node25</title>
<g id="a_node25"><a xlink:title=" ">
<polygon fill="none" stroke="#bfbfbf" points="636.62,-228.5 636.62,-248.5 687.12,-248.5 687.12,-228.5 636.62,-228.5"/>
<text text-anchor="middle" x="661.88" y="-235" font-family="Helvetica,sans-Serif" font-size="10.00">d3d11.h</text>
</a>
</g>
</g>
<!-- Node1&#45;&gt;Node25 -->
<g id="edge33" class="edge">
<title>Node1&#45;&gt;Node25</title>
<path fill="none" stroke="midnightblue" d="M543.01,-285.54C566.32,-276.51 602.52,-262.49 628.84,-252.29"/>
<polygon fill="midnightblue" stroke="midnightblue" points="629.69,-255.33 637.75,-248.46 627.16,-248.8 629.69,-255.33"/>
</g>
<!-- Node26 -->
<g id="node26" class="node">
<title>Node26</title>
<g id="a_node26"><a xlink:title=" ">
<polygon fill="none" stroke="#bfbfbf" points="704.75,-228.5 704.75,-248.5 741,-248.5 741,-228.5 704.75,-228.5"/>
<text text-anchor="middle" x="722.88" y="-235" font-family="Helvetica,sans-Serif" font-size="10.00">wrl.h</text>
</a>
</g>
</g>
<!-- Node1&#45;&gt;Node26 -->
<g id="edge34" class="edge">
<title>Node1&#45;&gt;Node26</title>
<path fill="none" stroke="midnightblue" d="M558.25,-285.58C591.84,-277.55 642.15,-264.99 694.45,-249.24"/>
<polygon fill="midnightblue" stroke="midnightblue" points="695.39,-252.31 703.94,-246.05 693.35,-245.62 695.39,-252.31"/>
</g>
<!-- Node3 -->
<g id="node3" class="node">
<title>Node3</title>
<g id="a_node3"><a xlink:title=" ">
<polygon fill="none" stroke="#bfbfbf" points="340.88,-114.5 340.88,-134.5 380.88,-134.5 380.88,-114.5 340.88,-114.5"/>
<text text-anchor="middle" x="360.88" y="-121" font-family="Helvetica,sans-Serif" font-size="10.00">string</text>
</a>
</g>
</g>
<!-- Node2&#45;&gt;Node3 -->
<g id="edge2" class="edge">
<title>Node2&#45;&gt;Node3</title>
<path fill="none" stroke="midnightblue" d="M231.12,-171.54C258.35,-161.88 301.7,-146.5 330.7,-136.21"/>
<polygon fill="midnightblue" stroke="midnightblue" points="331.8,-139.18 340.06,-132.53 329.46,-132.58 331.8,-139.18"/>
</g>
<!-- Node4 -->
<g id="node4" class="node">
<title>Node4</title>
<g id="a_node4"><a xlink:title=" ">
<polygon fill="none" stroke="#bfbfbf" points="167.75,-114.5 167.75,-134.5 252,-134.5 252,-114.5 167.75,-114.5"/>
<text text-anchor="middle" x="209.88" y="-121" font-family="Helvetica,sans-Serif" font-size="10.00">source_location</text>
</a>
</g>
</g>
<!-- Node2&#45;&gt;Node4 -->
<g id="edge3" class="edge">
<title>Node2&#45;&gt;Node4</title>
<path fill="none" stroke="midnightblue" d="M206.5,-171.91C207.02,-164.76 207.78,-154.32 208.45,-145.15"/>
<polygon fill="midnightblue" stroke="midnightblue" points="212.01,-145.44 209.24,-135.21 205.02,-144.93 212.01,-145.44"/>
</g>
<!-- Node6 -->
<g id="node6" class="node">
<title>Node6</title>
<g id="a_node6"><a xlink:href="_math_8h.html" target="_top" xlink:title=" ">
<polygon fill="none" stroke="black" points="652.88,-57.5 652.88,-77.5 698.88,-77.5 698.88,-57.5 652.88,-57.5"/>
<text text-anchor="middle" x="675.88" y="-64" font-family="Helvetica,sans-Serif" font-size="10.00">Math.h</text>
</a>
</g>
</g>
<!-- Node5&#45;&gt;Node6 -->
<g id="edge5" class="edge">
<title>Node5&#45;&gt;Node6</title>
<path fill="none" stroke="midnightblue" d="M596.98,-114.66C611.55,-106.13 633.88,-93.07 651.07,-83.01"/>
<polygon fill="midnightblue" stroke="midnightblue" points="652.63,-85.57 659.5,-77.5 649.1,-79.53 652.63,-85.57"/>
</g>
<!-- Node11 -->
<g id="node11" class="node">
<title>Node11</title>
<g id="a_node11"><a xlink:href="_matrix3_8h.html" target="_top" xlink:title=" ">
<polygon fill="none" stroke="black" points="525.62,-57.5 525.62,-77.5 582.12,-77.5 582.12,-57.5 525.62,-57.5"/>
<text text-anchor="middle" x="553.88" y="-64" font-family="Helvetica,sans-Serif" font-size="10.00">Matrix3.h</text>
</a>
</g>
</g>
<!-- Node5&#45;&gt;Node11 -->
<g id="edge11" class="edge">
<title>Node5&#45;&gt;Node11</title>
<path fill="none" stroke="midnightblue" d="M577.5,-114.91C573.7,-107.44 568.07,-96.38 563.26,-86.93"/>
<polygon fill="midnightblue" stroke="midnightblue" points="565.97,-85.54 558.31,-78.21 559.73,-88.71 565.97,-85.54"/>
</g>
<!-- Node12 -->
<g id="node12" class="node">
<title>Node12</title>
<g id="a_node12"><a xlink:title=" ">
<polygon fill="none" stroke="#bfbfbf" points="418,-0.5 418,-20.5 455.75,-20.5 455.75,-0.5 418,-0.5"/>
<text text-anchor="middle" x="436.88" y="-7" font-family="Helvetica,sans-Serif" font-size="10.00">array</text>
</a>
</g>
</g>
<!-- Node5&#45;&gt;Node12 -->
<g id="edge16" class="edge">
<title>Node5&#45;&gt;Node12</title>
<path fill="none" stroke="midnightblue" d="M563.12,-114.5C546.54,-106.14 522.07,-92.77 502.88,-78 483.45,-63.05 464.02,-42.65 451.32,-28.4"/>
<polygon fill="midnightblue" stroke="midnightblue" points="453.57,-26.65 444.35,-21.43 448.3,-31.26 453.57,-26.65"/>
</g>
<!-- Node13 -->
<g id="node13" class="node">
<title>Node13</title>
<g id="a_node13"><a xlink:title=" ">
<polygon fill="none" stroke="#bfbfbf" points="474.12,-0.5 474.12,-20.5 521.62,-20.5 521.62,-0.5 474.12,-0.5"/>
<text text-anchor="middle" x="497.88" y="-7" font-family="Helvetica,sans-Serif" font-size="10.00">cstddef</text>
</a>
</g>
</g>
<!-- Node5&#45;&gt;Node13 -->
<g id="edge19" class="edge">
<title>Node5&#45;&gt;Node13</title>
<path fill="none" stroke="midnightblue" d="M562.65,-114.59C548.05,-106.87 528.55,-94.38 516.88,-78 506.97,-64.1 502.2,-45.12 499.93,-31"/>
<polygon fill="midnightblue" stroke="midnightblue" points="503.32,-30.95 498.54,-21.5 496.38,-31.87 503.32,-30.95"/>
</g>
<!-- Node14 -->
<g id="node14" class="node">
<title>Node14</title>
<g id="a_node14"><a xlink:title=" ">
<polygon fill="none" stroke="#bfbfbf" points="540.12,-0.5 540.12,-20.5 593.62,-20.5 593.62,-0.5 540.12,-0.5"/>
<text text-anchor="middle" x="566.88" y="-7" font-family="Helvetica,sans-Serif" font-size="10.00">iostream</text>
</a>
</g>
</g>
<!-- Node5&#45;&gt;Node14 -->
<g id="edge17" class="edge">
<title>Node5&#45;&gt;Node14</title>
<path fill="none" stroke="midnightblue" d="M585.12,-114.78C589.42,-101.96 595.91,-77.36 590.88,-57 588.49,-47.37 583.66,-37.53 578.95,-29.47"/>
<polygon fill="midnightblue" stroke="midnightblue" points="581.52,-27.99 573.24,-21.38 575.59,-31.71 581.52,-27.99"/>
</g>
<!-- Node15 -->
<g id="node15" class="node">
<title>Node15</title>
<g id="a_node15"><a xlink:title=" ">
<polygon fill="none" stroke="#bfbfbf" points="735.12,-57.5 735.12,-77.5 788.62,-77.5 788.62,-57.5 735.12,-57.5"/>
<text text-anchor="middle" x="761.88" y="-64" font-family="Helvetica,sans-Serif" font-size="10.00">compare</text>
</a>
</g>
</g>
<!-- Node5&#45;&gt;Node15 -->
<g id="edge18" class="edge">
<title>Node5&#45;&gt;Node15</title>
<path fill="none" stroke="midnightblue" d="M611.2,-114.54C642.21,-105.06 691.21,-90.09 724.87,-79.81"/>
<polygon fill="midnightblue" stroke="midnightblue" points="725.67,-82.92 734.21,-76.65 723.62,-76.22 725.67,-82.92"/>
</g>
<!-- Node6&#45;&gt;Node6 -->
<g id="edge6" class="edge">
<title>Node6&#45;&gt;Node6</title>
<path fill="none" stroke="midnightblue" d="M694.43,-77.43C705.93,-79.83 716.88,-76.52 716.88,-67.5 716.88,-61.44 711.93,-57.96 705.2,-57.05"/>
<polygon fill="midnightblue" stroke="midnightblue" points="705.25,-53.59 695.43,-57.57 705.58,-60.59 705.25,-53.59"/>
</g>
<!-- Node7 -->
<g id="node7" class="node">
<title>Node7</title>
<g id="a_node7"><a xlink:title=" ">
<polygon fill="none" stroke="#bfbfbf" points="611.38,-0.5 611.38,-20.5 654.38,-20.5 654.38,-0.5 611.38,-0.5"/>
<text text-anchor="middle" x="632.88" y="-7" font-family="Helvetica,sans-Serif" font-size="10.00">cmath</text>
</a>
</g>
</g>
<!-- Node6&#45;&gt;Node7 -->
<g id="edge7" class="edge">
<title>Node6&#45;&gt;Node7</title>
<path fill="none" stroke="midnightblue" d="M669.16,-57.91C663.07,-50.12 653.92,-38.42 646.33,-28.71"/>
<polygon fill="midnightblue" stroke="midnightblue" points="648.61,-26.94 639.69,-21.21 643.09,-31.25 648.61,-26.94"/>
</g>
<!-- Node8 -->
<g id="node8" class="node">
<title>Node8</title>
<g id="a_node8"><a xlink:title=" ">
<polygon fill="none" stroke="#bfbfbf" points="672.25,-0.5 672.25,-20.5 711.5,-20.5 711.5,-0.5 672.25,-0.5"/>
<text text-anchor="middle" x="691.88" y="-7" font-family="Helvetica,sans-Serif" font-size="10.00">limits</text>
</a>
</g>
</g>
<!-- Node6&#45;&gt;Node8 -->
<g id="edge8" class="edge">
<title>Node6&#45;&gt;Node8</title>
<path fill="none" stroke="midnightblue" d="M678.38,-57.91C680.5,-50.6 683.63,-39.85 686.34,-30.54"/>
<polygon fill="midnightblue" stroke="midnightblue" points="689.91,-31.79 689.34,-21.21 683.19,-29.84 689.91,-31.79"/>
</g>
<!-- Node9 -->
<g id="node9" class="node">
<title>Node9</title>
<g id="a_node9"><a xlink:title=" ">
<polygon fill="none" stroke="#bfbfbf" points="729.12,-0.5 729.12,-20.5 782.62,-20.5 782.62,-0.5 729.12,-0.5"/>
<text text-anchor="middle" x="755.88" y="-7" font-family="Helvetica,sans-Serif" font-size="10.00">numbers</text>
</a>
</g>
</g>
<!-- Node6&#45;&gt;Node9 -->
<g id="edge9" class="edge">
<title>Node6&#45;&gt;Node9</title>
<path fill="none" stroke="midnightblue" d="M688.73,-57.66C700.9,-49.29 719.43,-36.56 733.94,-26.58"/>
<polygon fill="midnightblue" stroke="midnightblue" points="735.53,-29.05 741.79,-20.5 731.56,-23.28 735.53,-29.05"/>
</g>
<!-- Node10 -->
<g id="node10" class="node">
<title>Node10</title>
<g id="a_node10"><a xlink:title=" ">
<polygon fill="none" stroke="#bfbfbf" points="800.75,-0.5 800.75,-20.5 849,-20.5 849,-0.5 800.75,-0.5"/>
<text text-anchor="middle" x="824.88" y="-7" font-family="Helvetica,sans-Serif" font-size="10.00">random</text>
</a>
</g>
</g>
<!-- Node6&#45;&gt;Node10 -->
<g id="edge10" class="edge">
<title>Node6&#45;&gt;Node10</title>
<path fill="none" stroke="midnightblue" d="M698.83,-58.03C723.44,-48.94 762.77,-34.42 790.95,-24.02"/>
<polygon fill="midnightblue" stroke="midnightblue" points="791.99,-27 800.15,-20.26 789.56,-20.44 791.99,-27"/>
</g>
<!-- Node11&#45;&gt;Node7 -->
<g id="edge13" class="edge">
<title>Node11&#45;&gt;Node7</title>
<path fill="none" stroke="midnightblue" d="M566.57,-57.66C578.59,-49.29 596.88,-36.56 611.21,-26.58"/>
<polygon fill="midnightblue" stroke="midnightblue" points="612.74,-29.08 618.95,-20.5 608.74,-23.34 612.74,-29.08"/>
</g>
<!-- Node11&#45;&gt;Node12 -->
<g id="edge12" class="edge">
<title>Node11&#45;&gt;Node12</title>
<path fill="none" stroke="midnightblue" d="M534.82,-57.54C516.01,-48.7 487.02,-35.07 465.45,-24.93"/>
<polygon fill="midnightblue" stroke="midnightblue" points="467.08,-21.36 456.54,-20.27 464.1,-27.7 467.08,-21.36"/>
</g>
<!-- Node11&#45;&gt;Node13 -->
<g id="edge14" class="edge">
<title>Node11&#45;&gt;Node13</title>
<path fill="none" stroke="midnightblue" d="M544.88,-57.66C536.76,-49.69 524.61,-37.76 514.7,-28.02"/>
<polygon fill="midnightblue" stroke="midnightblue" points="517.62,-26.01 508.04,-21.5 512.72,-31 517.62,-26.01"/>
</g>
<!-- Node11&#45;&gt;Node14 -->
<g id="edge15" class="edge">
<title>Node11&#45;&gt;Node14</title>
<path fill="none" stroke="midnightblue" d="M555.91,-57.91C557.61,-50.68 560.12,-40.09 562.3,-30.85"/>
<polygon fill="midnightblue" stroke="midnightblue" points="565.92,-31.75 564.82,-21.21 559.11,-30.14 565.92,-31.75"/>
</g>
<!-- Node17 -->
<g id="node17" class="node">
<title>Node17</title>
<g id="a_node17"><a xlink:href="_win_8h.html" target="_top" xlink:title=" ">
<polygon fill="none" stroke="black" points="97.12,-171.5 97.12,-191.5 138.62,-191.5 138.62,-171.5 97.12,-171.5"/>
<text text-anchor="middle" x="117.88" y="-178" font-family="Helvetica,sans-Serif" font-size="10.00">Win.h</text>
</a>
</g>
</g>
<!-- Node16&#45;&gt;Node17 -->
<g id="edge21" class="edge">
<title>Node16&#45;&gt;Node17</title>
<path fill="none" stroke="midnightblue" d="M168.23,-228.66C159.45,-220.61 146.26,-208.52 135.58,-198.73"/>
<polygon fill="midnightblue" stroke="midnightblue" points="138.43,-196.67 128.69,-192.5 133.7,-201.83 138.43,-196.67"/>
</g>
<!-- Node18 -->
<g id="node18" class="node">
<title>Node18</title>
<g id="a_node18"><a xlink:title=" ">
<polygon fill="none" stroke="#bfbfbf" points="0,-114.5 0,-134.5 67.75,-134.5 67.75,-114.5 0,-114.5"/>
<text text-anchor="middle" x="33.88" y="-121" font-family="Helvetica,sans-Serif" font-size="10.00">sdkddkver.h</text>
</a>
</g>
</g>
<!-- Node17&#45;&gt;Node18 -->
<g id="edge22" class="edge">
<title>Node17&#45;&gt;Node18</title>
<path fill="none" stroke="midnightblue" d="M104.38,-171.66C91.47,-163.21 71.77,-150.31 56.47,-140.3"/>
<polygon fill="midnightblue" stroke="midnightblue" points="58.9,-137.05 48.62,-134.5 55.07,-142.9 58.9,-137.05"/>
</g>
<!-- Node19 -->
<g id="node19" class="node">
<title>Node19</title>
<g id="a_node19"><a xlink:title=" ">
<polygon fill="none" stroke="#bfbfbf" points="85.88,-114.5 85.88,-134.5 149.88,-134.5 149.88,-114.5 85.88,-114.5"/>
<text text-anchor="middle" x="117.88" y="-121" font-family="Helvetica,sans-Serif" font-size="10.00">Windows.h</text>
</a>
</g>
</g>
<!-- Node17&#45;&gt;Node19 -->
<g id="edge23" class="edge">
<title>Node17&#45;&gt;Node19</title>
<path fill="none" stroke="midnightblue" d="M117.88,-171.91C117.88,-164.76 117.88,-154.32 117.88,-145.15"/>
<polygon fill="midnightblue" stroke="midnightblue" points="121.38,-145.21 117.88,-135.21 114.38,-145.21 121.38,-145.21"/>
</g>
<!-- Node20&#45;&gt;Node2 -->
<g id="edge28" class="edge">
<title>Node20&#45;&gt;Node2</title>
<path fill="none" stroke="midnightblue" d="M373.37,-229.5C340.38,-220.24 285.73,-204.91 247.86,-194.28"/>
<polygon fill="midnightblue" stroke="midnightblue" points="249.24,-190.75 238.66,-191.42 247.34,-197.49 249.24,-190.75"/>
</g>
<!-- Node20&#45;&gt;Node3 -->
<g id="edge31" class="edge">
<title>Node20&#45;&gt;Node3</title>
<path fill="none" stroke="midnightblue" d="M406.08,-228.9C411.84,-215.82 420.56,-190.39 411.88,-171 406.38,-158.73 395.76,-148.41 385.62,-140.71"/>
<polygon fill="midnightblue" stroke="midnightblue" points="387.81,-137.27 377.61,-134.4 383.8,-143.01 387.81,-137.27"/>
</g>
<!-- Node20&#45;&gt;Node17 -->
<g id="edge25" class="edge">
<title>Node20&#45;&gt;Node17</title>
<path fill="none" stroke="midnightblue" d="M373.43,-233.63C328.05,-227.2 236.31,-213.12 149.05,-192.01"/>
<polygon fill="midnightblue" stroke="midnightblue" points="149.98,-188.38 139.43,-189.4 148.31,-195.18 149.98,-188.38"/>
</g>
<!-- Node21 -->
<g id="node21" class="node">
<title>Node21</title>
<g id="a_node21"><a xlink:href="_colors_8h.html" target="_top" xlink:title=" ">
<polygon fill="none" stroke="black" points="528.88,-171.5 528.88,-191.5 580.88,-191.5 580.88,-171.5 528.88,-171.5"/>
<text text-anchor="middle" x="554.88" y="-178" font-family="Helvetica,sans-Serif" font-size="10.00">Colors.h</text>
</a>
</g>
</g>
<!-- Node20&#45;&gt;Node21 -->
<g id="edge26" class="edge">
<title>Node20&#45;&gt;Node21</title>
<path fill="none" stroke="midnightblue" d="M426.8,-228.54C452.03,-219.47 491.26,-205.37 519.66,-195.16"/>
<polygon fill="midnightblue" stroke="midnightblue" points="520.74,-198.13 528.96,-191.46 518.37,-191.54 520.74,-198.13"/>
</g>
<!-- Node22 -->
<g id="node22" class="node">
<title>Node22</title>
<g id="a_node22"><a xlink:title=" ">
<polygon fill="none" stroke="#bfbfbf" points="459.25,-171.5 459.25,-191.5 510.5,-191.5 510.5,-171.5 459.25,-171.5"/>
<text text-anchor="middle" x="484.88" y="-178" font-family="Helvetica,sans-Serif" font-size="10.00">assert.h</text>
</a>
</g>
</g>
<!-- Node20&#45;&gt;Node22 -->
<g id="edge29" class="edge">
<title>Node20&#45;&gt;Node22</title>
<path fill="none" stroke="midnightblue" d="M415.21,-228.66C427.96,-220.21 447.43,-207.31 462.55,-197.3"/>
<polygon fill="midnightblue" stroke="midnightblue" points="463.89,-199.94 470.3,-191.5 460.03,-194.1 463.89,-199.94"/>
</g>
<!-- Node23 -->
<g id="node23" class="node">
<title>Node23</title>
<g id="a_node23"><a xlink:title=" ">
<polygon fill="none" stroke="#bfbfbf" points="273.25,-171.5 273.25,-191.5 324.5,-191.5 324.5,-171.5 273.25,-171.5"/>
<text text-anchor="middle" x="298.88" y="-178" font-family="Helvetica,sans-Serif" font-size="10.00">memory</text>
</a>
</g>
</g>
<!-- Node20&#45;&gt;Node23 -->
<g id="edge30" class="edge">
<title>Node20&#45;&gt;Node23</title>
<path fill="none" stroke="midnightblue" d="M385.33,-228.66C369.13,-220.01 344.2,-206.7 325.27,-196.59"/>
<polygon fill="midnightblue" stroke="midnightblue" points="327.19,-193.12 316.72,-191.5 323.9,-199.3 327.19,-193.12"/>
</g>
<!-- Node24 -->
<g id="node24" class="node">
<title>Node24</title>
<g id="a_node24"><a xlink:title=" ">
<polygon fill="none" stroke="#bfbfbf" points="342.75,-171.5 342.75,-191.5 403,-191.5 403,-171.5 342.75,-171.5"/>
<text text-anchor="middle" x="372.88" y="-178" font-family="Helvetica,sans-Serif" font-size="10.00">filesystem</text>
</a>
</g>
</g>
<!-- Node20&#45;&gt;Node24 -->
<g id="edge32" class="edge">
<title>Node20&#45;&gt;Node24</title>
<path fill="none" stroke="midnightblue" d="M397.34,-228.91C393.41,-221.44 387.57,-210.38 382.59,-200.93"/>
<polygon fill="midnightblue" stroke="midnightblue" points="385.23,-199.43 377.47,-192.21 379.04,-202.69 385.23,-199.43"/>
</g>
<!-- Node21&#45;&gt;Node5 -->
<g id="edge27" class="edge">
<title>Node21&#45;&gt;Node5</title>
<path fill="none" stroke="midnightblue" d="M559.09,-171.91C562.76,-164.44 568.19,-153.38 572.83,-143.93"/>
<polygon fill="midnightblue" stroke="midnightblue" points="576.33,-145.73 577.6,-135.21 570.05,-142.65 576.33,-145.73"/>
</g>
</g>
</svg>
