<?xml version="1.0" encoding="UTF-8" standalone="no"?>
<!DOCTYPE svg PUBLIC "-//W3C//DTD SVG 1.1//EN"
 "http://www.w3.org/Graphics/SVG/1.1/DTD/svg11.dtd">
<!-- Generated by graphviz version 8.1.0 (20230707.0739)
 -->
<!-- Title: src/Graphics.cpp Pages: 1 -->
<svg width="1312pt" height="428pt"
 viewBox="0.00 0.00 1312.12 428.00" xmlns="http://www.w3.org/2000/svg" xmlns:xlink="http://www.w3.org/1999/xlink">
<g id="graph0" class="graph" transform="scale(1 1) rotate(0) translate(4 424)">
<title>src/Graphics.cpp</title>
<!-- Node1 -->
<g id="node1" class="node">
<title>Node1</title>
<g id="a_node1"><a xlink:title=" ">
<polygon fill="#bfbfbf" stroke="black" points="545.88,-399.5 545.88,-419.5 636.12,-419.5 636.12,-399.5 545.88,-399.5"/>
<text text-anchor="middle" x="591" y="-406" font-family="Helvetica,sans-Serif" font-size="10.00">src/Graphics.cpp</text>
</a>
</g>
</g>
<!-- Node2 -->
<g id="node2" class="node">
<title>Node2</title>
<g id="a_node2"><a xlink:href="_graphics_8h.html" target="_top" xlink:title=" ">
<polygon fill="none" stroke="black" points="440.38,-285.5 440.38,-305.5 503.62,-305.5 503.62,-285.5 440.38,-285.5"/>
<text text-anchor="middle" x="472" y="-292" font-family="Helvetica,sans-Serif" font-size="10.00">Graphics.h</text>
</a>
</g>
</g>
<!-- Node1&#45;&gt;Node2 -->
<g id="edge1" class="edge">
<title>Node1&#45;&gt;Node2</title>
<path fill="none" stroke="midnightblue" d="M581.58,-399.81C571.69,-390.68 555.71,-375.88 542,-363 523.79,-345.89 503.05,-326.16 488.9,-312.66"/>
<polygon fill="midnightblue" stroke="midnightblue" points="491.68,-310.52 482.03,-306.14 486.84,-315.58 491.68,-310.52"/>
</g>
<!-- Node4 -->
<g id="node4" class="node">
<title>Node4</title>
<g id="a_node4"><a xlink:title=" ">
<polygon fill="none" stroke="#bfbfbf" points="414,-114.5 414,-134.5 454,-134.5 454,-114.5 414,-114.5"/>
<text text-anchor="middle" x="434" y="-121" font-family="Helvetica,sans-Serif" font-size="10.00">string</text>
</a>
</g>
</g>
<!-- Node1&#45;&gt;Node4 -->
<g id="edge70" class="edge">
<title>Node1&#45;&gt;Node4</title>
<path fill="none" stroke="midnightblue" d="M545.88,-406.59C440.17,-399.27 180.7,-363.8 118,-192 114.8,-183.23 111.89,-178.05 118,-171 136.6,-149.53 328,-133.27 403.56,-127.64"/>
<polygon fill="midnightblue" stroke="midnightblue" points="403.53,-131.08 413.24,-126.86 403.01,-124.1 403.53,-131.08"/>
</g>
<!-- Node13 -->
<g id="node13" class="node">
<title>Node13</title>
<g id="a_node13"><a xlink:title=" ">
<polygon fill="none" stroke="#bfbfbf" points="353.12,-0.5 353.12,-20.5 390.88,-20.5 390.88,-0.5 353.12,-0.5"/>
<text text-anchor="middle" x="372" y="-7" font-family="Helvetica,sans-Serif" font-size="10.00">array</text>
</a>
</g>
</g>
<!-- Node1&#45;&gt;Node13 -->
<g id="edge67" class="edge">
<title>Node1&#45;&gt;Node13</title>
<path fill="none" stroke="midnightblue" d="M546,-406.97C423.06,-402.48 87.79,-388.04 45,-363 14.2,-344.97 0,-332.19 0,-296.5 0,-296.5 0,-296.5 0,-123.5 0,-52.09 254.5,-22.19 342.49,-13.98"/>
<polygon fill="midnightblue" stroke="midnightblue" points="342.65,-17.39 352.3,-13.01 342.02,-10.42 342.65,-17.39"/>
</g>
<!-- Node28 -->
<g id="node28" class="node">
<title>Node28</title>
<g id="a_node28"><a xlink:href="_d_x_err_8h.html" target="_top" xlink:title=" ">
<polygon fill="none" stroke="black" points="54.5,-342.5 54.5,-362.5 103.5,-362.5 103.5,-342.5 54.5,-342.5"/>
<text text-anchor="middle" x="79" y="-349" font-family="Helvetica,sans-Serif" font-size="10.00">DXErr.h</text>
</a>
</g>
</g>
<!-- Node1&#45;&gt;Node28 -->
<g id="edge36" class="edge">
<title>Node1&#45;&gt;Node28</title>
<path fill="none" stroke="midnightblue" d="M546.05,-406.32C461.66,-401.76 273.98,-389.36 118,-363 116.65,-362.77 115.27,-362.52 113.89,-362.26"/>
<polygon fill="midnightblue" stroke="midnightblue" points="114.74,-358.65 104.23,-359.97 113.27,-365.49 114.74,-358.65"/>
</g>
<!-- Node30 -->
<g id="node30" class="node">
<title>Node30</title>
<g id="a_node30"><a xlink:href="_main_window_8h.html" target="_top" xlink:title=" ">
<polygon fill="none" stroke="black" points="551.12,-342.5 551.12,-362.5 630.88,-362.5 630.88,-342.5 551.12,-342.5"/>
<text text-anchor="middle" x="591" y="-349" font-family="Helvetica,sans-Serif" font-size="10.00">MainWindow.h</text>
</a>
</g>
</g>
<!-- Node1&#45;&gt;Node30 -->
<g id="edge39" class="edge">
<title>Node1&#45;&gt;Node30</title>
<path fill="none" stroke="midnightblue" d="M591,-399.91C591,-392.76 591,-382.32 591,-373.15"/>
<polygon fill="midnightblue" stroke="midnightblue" points="594.5,-373.21 591,-363.21 587.5,-373.21 594.5,-373.21"/>
</g>
<!-- Node35 -->
<g id="node35" class="node">
<title>Node35</title>
<g id="a_node35"><a xlink:href="_vector2_8h.html" target="_top" xlink:title=" ">
<polygon fill="none" stroke="black" points="731.88,-114.5 731.88,-134.5 852.12,-134.5 852.12,-114.5 731.88,-114.5"/>
<text text-anchor="middle" x="792" y="-121" font-family="Helvetica,sans-Serif" font-size="10.00">LinearAlgebra/Vector2.h</text>
</a>
</g>
</g>
<!-- Node1&#45;&gt;Node35 -->
<g id="edge58" class="edge">
<title>Node1&#45;&gt;Node35</title>
<path fill="none" stroke="midnightblue" d="M635.74,-401.28C686.57,-390.43 767.2,-364.55 804,-306 835.98,-255.12 813.44,-179.44 800.02,-144.48"/>
<polygon fill="midnightblue" stroke="midnightblue" points="802.9,-143.24 795.92,-135.27 796.4,-145.86 802.9,-143.24"/>
</g>
<!-- Node37 -->
<g id="node37" class="node">
<title>Node37</title>
<g id="a_node37"><a xlink:href="_read_data_8h.html" target="_top" xlink:title=" ">
<polygon fill="none" stroke="black" points="953.62,-342.5 953.62,-362.5 1048.38,-362.5 1048.38,-342.5 953.62,-342.5"/>
<text text-anchor="middle" x="1001" y="-349" font-family="Helvetica,sans-Serif" font-size="10.00">Utility/ReadData.h</text>
</a>
</g>
</g>
<!-- Node1&#45;&gt;Node37 -->
<g id="edge59" class="edge">
<title>Node1&#45;&gt;Node37</title>
<path fill="none" stroke="midnightblue" d="M636.05,-402.46C710.81,-392.43 860.41,-372.36 942.97,-361.28"/>
<polygon fill="midnightblue" stroke="midnightblue" points="943.22,-364.65 952.67,-359.85 942.29,-357.71 943.22,-364.65"/>
</g>
<!-- Node44 -->
<g id="node44" class="node">
<title>Node44</title>
<g id="a_node44"><a xlink:title=" ">
<polygon fill="none" stroke="#bfbfbf" points="1066.88,-342.5 1066.88,-362.5 1115.12,-362.5 1115.12,-342.5 1066.88,-342.5"/>
<text text-anchor="middle" x="1091" y="-349" font-family="Helvetica,sans-Serif" font-size="10.00">cassert</text>
</a>
</g>
</g>
<!-- Node1&#45;&gt;Node44 -->
<g id="edge68" class="edge">
<title>Node1&#45;&gt;Node44</title>
<path fill="none" stroke="midnightblue" d="M636.03,-406.73C717.82,-402.94 896.3,-392.06 1056.46,-362.73"/>
<polygon fill="midnightblue" stroke="midnightblue" points="1056.79,-366.04 1065.98,-360.77 1055.51,-359.16 1056.79,-366.04"/>
</g>
<!-- Node45 -->
<g id="node45" class="node">
<title>Node45</title>
<g id="a_node45"><a xlink:title=" ">
<polygon fill="none" stroke="#bfbfbf" points="1133.38,-342.5 1133.38,-362.5 1190.62,-362.5 1190.62,-342.5 1133.38,-342.5"/>
<text text-anchor="middle" x="1162" y="-349" font-family="Helvetica,sans-Serif" font-size="10.00">functional</text>
</a>
</g>
</g>
<!-- Node1&#45;&gt;Node45 -->
<g id="edge69" class="edge">
<title>Node1&#45;&gt;Node45</title>
<path fill="none" stroke="midnightblue" d="M635.87,-407.09C726.2,-403.73 936.47,-393.28 1122.65,-362.94"/>
<polygon fill="midnightblue" stroke="midnightblue" points="1123.17,-366.24 1132.47,-361.15 1122.03,-359.33 1123.17,-366.24"/>
</g>
<!-- Node3 -->
<g id="node3" class="node">
<title>Node3</title>
<g id="a_node3"><a xlink:href="_engine_exception_8h.html" target="_top" xlink:title=" ">
<polygon fill="none" stroke="black" points="511.12,-171.5 511.12,-191.5 608.88,-191.5 608.88,-171.5 511.12,-171.5"/>
<text text-anchor="middle" x="560" y="-178" font-family="Helvetica,sans-Serif" font-size="10.00">EngineException.h</text>
</a>
</g>
</g>
<!-- Node2&#45;&gt;Node3 -->
<g id="edge2" class="edge">
<title>Node2&#45;&gt;Node3</title>
<path fill="none" stroke="midnightblue" d="M478.91,-285.71C493.43,-267.23 527.36,-224.04 546.41,-199.8"/>
<polygon fill="midnightblue" stroke="midnightblue" points="549.7,-202.27 553.13,-192.25 544.2,-197.95 549.7,-202.27"/>
</g>
<!-- Node6 -->
<g id="node6" class="node">
<title>Node6</title>
<g id="a_node6"><a xlink:href="_vector3_8h.html" target="_top" xlink:title=" ">
<polygon fill="none" stroke="black" points="491.88,-114.5 491.88,-134.5 612.12,-134.5 612.12,-114.5 491.88,-114.5"/>
<text text-anchor="middle" x="552" y="-121" font-family="Helvetica,sans-Serif" font-size="10.00">LinearAlgebra/Vector3.h</text>
</a>
</g>
</g>
<!-- Node2&#45;&gt;Node6 -->
<g id="edge5" class="edge">
<title>Node2&#45;&gt;Node6</title>
<path fill="none" stroke="midnightblue" d="M496.74,-285.61C531.24,-271.7 592.43,-241.19 618,-192 629.17,-170.5 605,-151.51 582.83,-139.38"/>
<polygon fill="midnightblue" stroke="midnightblue" points="584.73,-135.91 574.24,-134.46 581.54,-142.14 584.73,-135.91"/>
</g>
<!-- Node17 -->
<g id="node17" class="node">
<title>Node17</title>
<g id="a_node17"><a xlink:href="_g_d_i_plus_manager_8h.html" target="_top" xlink:title=" ">
<polygon fill="none" stroke="black" points="198.12,-228.5 198.12,-248.5 295.88,-248.5 295.88,-228.5 198.12,-228.5"/>
<text text-anchor="middle" x="247" y="-235" font-family="Helvetica,sans-Serif" font-size="10.00">GDIPlusManager.h</text>
</a>
</g>
</g>
<!-- Node2&#45;&gt;Node17 -->
<g id="edge21" class="edge">
<title>Node2&#45;&gt;Node17</title>
<path fill="none" stroke="midnightblue" d="M440.71,-286.85C402.68,-277.55 338.11,-261.77 294.06,-251"/>
<polygon fill="midnightblue" stroke="midnightblue" points="295.16,-247.42 284.61,-248.45 293.49,-254.22 295.16,-247.42"/>
</g>
<!-- Node21 -->
<g id="node21" class="node">
<title>Node21</title>
<g id="a_node21"><a xlink:href="_surface_8h.html" target="_top" xlink:title=" ">
<polygon fill="none" stroke="black" points="436.38,-228.5 436.38,-248.5 493.62,-248.5 493.62,-228.5 436.38,-228.5"/>
<text text-anchor="middle" x="465" y="-235" font-family="Helvetica,sans-Serif" font-size="10.00">Surface.h</text>
</a>
</g>
</g>
<!-- Node2&#45;&gt;Node21 -->
<g id="edge25" class="edge">
<title>Node2&#45;&gt;Node21</title>
<path fill="none" stroke="midnightblue" d="M470.91,-285.91C469.99,-278.68 468.64,-268.09 467.46,-258.85"/>
<polygon fill="midnightblue" stroke="midnightblue" points="470.84,-258.69 466.11,-249.21 463.9,-259.58 470.84,-258.69"/>
</g>
<!-- Node26 -->
<g id="node26" class="node">
<title>Node26</title>
<g id="a_node26"><a xlink:title=" ">
<polygon fill="none" stroke="#bfbfbf" points="367.75,-228.5 367.75,-248.5 418.25,-248.5 418.25,-228.5 367.75,-228.5"/>
<text text-anchor="middle" x="393" y="-235" font-family="Helvetica,sans-Serif" font-size="10.00">d3d11.h</text>
</a>
</g>
</g>
<!-- Node2&#45;&gt;Node26 -->
<g id="edge34" class="edge">
<title>Node2&#45;&gt;Node26</title>
<path fill="none" stroke="midnightblue" d="M459.31,-285.66C447.29,-277.29 428.99,-264.56 414.66,-254.58"/>
<polygon fill="midnightblue" stroke="midnightblue" points="417.13,-251.34 406.92,-248.5 413.13,-257.08 417.13,-251.34"/>
</g>
<!-- Node27 -->
<g id="node27" class="node">
<title>Node27</title>
<g id="a_node27"><a xlink:title=" ">
<polygon fill="none" stroke="#bfbfbf" points="313.88,-228.5 313.88,-248.5 350.12,-248.5 350.12,-228.5 313.88,-228.5"/>
<text text-anchor="middle" x="332" y="-235" font-family="Helvetica,sans-Serif" font-size="10.00">wrl.h</text>
</a>
</g>
</g>
<!-- Node2&#45;&gt;Node27 -->
<g id="edge35" class="edge">
<title>Node2&#45;&gt;Node27</title>
<path fill="none" stroke="midnightblue" d="M449.19,-285.54C424.82,-275.96 386.14,-260.77 359.95,-250.48"/>
<polygon fill="midnightblue" stroke="midnightblue" points="361.49,-246.93 350.9,-246.53 358.93,-253.45 361.49,-246.93"/>
</g>
<!-- Node3&#45;&gt;Node4 -->
<g id="edge3" class="edge">
<title>Node3&#45;&gt;Node4</title>
<path fill="none" stroke="midnightblue" d="M539.48,-171.54C518.91,-162.57 487.06,-148.66 463.73,-138.48"/>
<polygon fill="midnightblue" stroke="midnightblue" points="465.25,-134.89 454.69,-134.09 462.45,-141.3 465.25,-134.89"/>
</g>
<!-- Node5 -->
<g id="node5" class="node">
<title>Node5</title>
<g id="a_node5"><a xlink:title=" ">
<polygon fill="none" stroke="#bfbfbf" points="629.88,-114.5 629.88,-134.5 714.12,-134.5 714.12,-114.5 629.88,-114.5"/>
<text text-anchor="middle" x="672" y="-121" font-family="Helvetica,sans-Serif" font-size="10.00">source_location</text>
</a>
</g>
</g>
<!-- Node3&#45;&gt;Node5 -->
<g id="edge4" class="edge">
<title>Node3&#45;&gt;Node5</title>
<path fill="none" stroke="midnightblue" d="M577.99,-171.66C595.77,-162.94 623.21,-149.46 643.87,-139.31"/>
<polygon fill="midnightblue" stroke="midnightblue" points="645.24,-142.05 652.68,-134.5 642.16,-135.76 645.24,-142.05"/>
</g>
<!-- Node7 -->
<g id="node7" class="node">
<title>Node7</title>
<g id="a_node7"><a xlink:href="_math_8h.html" target="_top" xlink:title=" ">
<polygon fill="none" stroke="black" points="478,-57.5 478,-77.5 524,-77.5 524,-57.5 478,-57.5"/>
<text text-anchor="middle" x="501" y="-64" font-family="Helvetica,sans-Serif" font-size="10.00">Math.h</text>
</a>
</g>
</g>
<!-- Node6&#45;&gt;Node7 -->
<g id="edge6" class="edge">
<title>Node6&#45;&gt;Node7</title>
<path fill="none" stroke="midnightblue" d="M544.03,-114.91C536.66,-106.96 525.51,-94.94 516.41,-85.12"/>
<polygon fill="midnightblue" stroke="midnightblue" points="519.45,-83.17 510.08,-78.21 514.31,-87.93 519.45,-83.17"/>
</g>
<!-- Node12 -->
<g id="node12" class="node">
<title>Node12</title>
<g id="a_node12"><a xlink:href="_matrix3_8h.html" target="_top" xlink:title=" ">
<polygon fill="none" stroke="black" points="597.75,-57.5 597.75,-77.5 654.25,-77.5 654.25,-57.5 597.75,-57.5"/>
<text text-anchor="middle" x="626" y="-64" font-family="Helvetica,sans-Serif" font-size="10.00">Matrix3.h</text>
</a>
</g>
</g>
<!-- Node6&#45;&gt;Node12 -->
<g id="edge12" class="edge">
<title>Node6&#45;&gt;Node12</title>
<path fill="none" stroke="midnightblue" d="M563.89,-114.66C575.04,-106.37 591.96,-93.8 605.32,-83.87"/>
<polygon fill="midnightblue" stroke="midnightblue" points="606.96,-86.27 612.89,-77.5 602.78,-80.65 606.96,-86.27"/>
</g>
<!-- Node6&#45;&gt;Node13 -->
<g id="edge17" class="edge">
<title>Node6&#45;&gt;Node13</title>
<path fill="none" stroke="midnightblue" d="M510.45,-114.57C484.49,-107.58 451.31,-95.98 426,-78 407.68,-64.98 392.17,-44.16 382.54,-29.28"/>
<polygon fill="midnightblue" stroke="midnightblue" points="385.09,-27.76 376.85,-21.1 379.14,-31.45 385.09,-27.76"/>
</g>
<!-- Node14 -->
<g id="node14" class="node">
<title>Node14</title>
<g id="a_node14"><a xlink:title=" ">
<polygon fill="none" stroke="#bfbfbf" points="701.25,-0.5 701.25,-20.5 748.75,-20.5 748.75,-0.5 701.25,-0.5"/>
<text text-anchor="middle" x="725" y="-7" font-family="Helvetica,sans-Serif" font-size="10.00">cstddef</text>
</a>
</g>
</g>
<!-- Node6&#45;&gt;Node14 -->
<g id="edge20" class="edge">
<title>Node6&#45;&gt;Node14</title>
<path fill="none" stroke="midnightblue" d="M554.55,-114.82C559.13,-100.69 570.09,-72.7 589,-57 618.21,-32.74 660.89,-21.24 690.62,-15.9"/>
<polygon fill="midnightblue" stroke="midnightblue" points="691.02,-19.22 700.32,-14.15 689.89,-12.31 691.02,-19.22"/>
</g>
<!-- Node15 -->
<g id="node15" class="node">
<title>Node15</title>
<g id="a_node15"><a xlink:title=" ">
<polygon fill="none" stroke="#bfbfbf" points="785.25,-0.5 785.25,-20.5 838.75,-20.5 838.75,-0.5 785.25,-0.5"/>
<text text-anchor="middle" x="812" y="-7" font-family="Helvetica,sans-Serif" font-size="10.00">iostream</text>
</a>
</g>
</g>
<!-- Node6&#45;&gt;Node15 -->
<g id="edge18" class="edge">
<title>Node6&#45;&gt;Node15</title>
<path fill="none" stroke="midnightblue" d="M576.17,-114.52C598.89,-105.87 633.7,-92.04 663,-78 680.4,-69.66 683.6,-65.34 701,-57 726.18,-44.93 755.43,-33.03 777.58,-24.42"/>
<polygon fill="midnightblue" stroke="midnightblue" points="778.76,-27.33 786.83,-20.48 776.24,-20.8 778.76,-27.33"/>
</g>
<!-- Node16 -->
<g id="node16" class="node">
<title>Node16</title>
<g id="a_node16"><a xlink:title=" ">
<polygon fill="none" stroke="#bfbfbf" points="710.25,-57.5 710.25,-77.5 763.75,-77.5 763.75,-57.5 710.25,-57.5"/>
<text text-anchor="middle" x="737" y="-64" font-family="Helvetica,sans-Serif" font-size="10.00">compare</text>
</a>
</g>
</g>
<!-- Node6&#45;&gt;Node16 -->
<g id="edge19" class="edge">
<title>Node6&#45;&gt;Node16</title>
<path fill="none" stroke="midnightblue" d="M582.14,-114.54C614.43,-104.94 665.69,-89.7 700.31,-79.41"/>
<polygon fill="midnightblue" stroke="midnightblue" points="700.89,-82.59 709.48,-76.38 698.9,-75.88 700.89,-82.59"/>
</g>
<!-- Node7&#45;&gt;Node7 -->
<g id="edge7" class="edge">
<title>Node7&#45;&gt;Node7</title>
<path fill="none" stroke="midnightblue" d="M519.55,-77.43C531.05,-79.83 542,-76.52 542,-67.5 542,-61.44 537.06,-57.96 530.33,-57.05"/>
<polygon fill="midnightblue" stroke="midnightblue" points="530.37,-53.59 520.55,-57.57 530.71,-60.59 530.37,-53.59"/>
</g>
<!-- Node8 -->
<g id="node8" class="node">
<title>Node8</title>
<g id="a_node8"><a xlink:title=" ">
<polygon fill="none" stroke="#bfbfbf" points="604.5,-0.5 604.5,-20.5 647.5,-20.5 647.5,-0.5 604.5,-0.5"/>
<text text-anchor="middle" x="626" y="-7" font-family="Helvetica,sans-Serif" font-size="10.00">cmath</text>
</a>
</g>
</g>
<!-- Node7&#45;&gt;Node8 -->
<g id="edge8" class="edge">
<title>Node7&#45;&gt;Node8</title>
<path fill="none" stroke="midnightblue" d="M521.36,-57.54C541.52,-48.67 572.62,-34.99 595.68,-24.84"/>
<polygon fill="midnightblue" stroke="midnightblue" points="596.9,-27.69 604.65,-20.46 594.08,-21.28 596.9,-27.69"/>
</g>
<!-- Node9 -->
<g id="node9" class="node">
<title>Node9</title>
<g id="a_node9"><a xlink:title=" ">
<polygon fill="none" stroke="#bfbfbf" points="547.38,-0.5 547.38,-20.5 586.62,-20.5 586.62,-0.5 547.38,-0.5"/>
<text text-anchor="middle" x="567" y="-7" font-family="Helvetica,sans-Serif" font-size="10.00">limits</text>
</a>
</g>
</g>
<!-- Node7&#45;&gt;Node9 -->
<g id="edge9" class="edge">
<title>Node7&#45;&gt;Node9</title>
<path fill="none" stroke="midnightblue" d="M511.6,-57.66C521.36,-49.53 536.06,-37.28 547.87,-27.44"/>
<polygon fill="midnightblue" stroke="midnightblue" points="549.76,-29.59 555.2,-20.5 545.28,-24.21 549.76,-29.59"/>
</g>
<!-- Node10 -->
<g id="node10" class="node">
<title>Node10</title>
<g id="a_node10"><a xlink:title=" ">
<polygon fill="none" stroke="#bfbfbf" points="409.25,-0.5 409.25,-20.5 462.75,-20.5 462.75,-0.5 409.25,-0.5"/>
<text text-anchor="middle" x="436" y="-7" font-family="Helvetica,sans-Serif" font-size="10.00">numbers</text>
</a>
</g>
</g>
<!-- Node7&#45;&gt;Node10 -->
<g id="edge10" class="edge">
<title>Node7&#45;&gt;Node10</title>
<path fill="none" stroke="midnightblue" d="M490.56,-57.66C480.95,-49.53 466.47,-37.28 454.84,-27.44"/>
<polygon fill="midnightblue" stroke="midnightblue" points="457.53,-24.29 447.63,-20.5 453.01,-29.63 457.53,-24.29"/>
</g>
<!-- Node11 -->
<g id="node11" class="node">
<title>Node11</title>
<g id="a_node11"><a xlink:title=" ">
<polygon fill="none" stroke="#bfbfbf" points="480.88,-0.5 480.88,-20.5 529.12,-20.5 529.12,-0.5 480.88,-0.5"/>
<text text-anchor="middle" x="505" y="-7" font-family="Helvetica,sans-Serif" font-size="10.00">random</text>
</a>
</g>
</g>
<!-- Node7&#45;&gt;Node11 -->
<g id="edge11" class="edge">
<title>Node7&#45;&gt;Node11</title>
<path fill="none" stroke="midnightblue" d="M501.62,-57.91C502.14,-50.76 502.9,-40.32 503.57,-31.15"/>
<polygon fill="midnightblue" stroke="midnightblue" points="507.13,-31.44 504.37,-21.21 500.15,-30.93 507.13,-31.44"/>
</g>
<!-- Node12&#45;&gt;Node8 -->
<g id="edge14" class="edge">
<title>Node12&#45;&gt;Node8</title>
<path fill="none" stroke="midnightblue" d="M626,-57.91C626,-50.76 626,-40.32 626,-31.15"/>
<polygon fill="midnightblue" stroke="midnightblue" points="629.5,-31.21 626,-21.21 622.5,-31.21 629.5,-31.21"/>
</g>
<!-- Node12&#45;&gt;Node13 -->
<g id="edge13" class="edge">
<title>Node12&#45;&gt;Node13</title>
<path fill="none" stroke="midnightblue" d="M597.9,-62.04C556.74,-55.25 477.53,-41.2 400.88,-20.94"/>
<polygon fill="midnightblue" stroke="midnightblue" points="402.14,-17.39 391.57,-18.17 400.32,-24.15 402.14,-17.39"/>
</g>
<!-- Node12&#45;&gt;Node14 -->
<g id="edge15" class="edge">
<title>Node12&#45;&gt;Node14</title>
<path fill="none" stroke="midnightblue" d="M641.91,-57.66C657.4,-49.05 681.21,-35.83 699.38,-25.73"/>
<polygon fill="midnightblue" stroke="midnightblue" points="700.76,-28.41 707.8,-20.5 697.36,-22.29 700.76,-28.41"/>
</g>
<!-- Node12&#45;&gt;Node15 -->
<g id="edge16" class="edge">
<title>Node12&#45;&gt;Node15</title>
<path fill="none" stroke="midnightblue" d="M654.25,-58.15C686.48,-48.61 739.32,-32.99 774.86,-22.48"/>
<polygon fill="midnightblue" stroke="midnightblue" points="775.7,-25.59 784.3,-19.4 773.72,-18.88 775.7,-25.59"/>
</g>
<!-- Node18 -->
<g id="node18" class="node">
<title>Node18</title>
<g id="a_node18"><a xlink:href="_win_8h.html" target="_top" xlink:title=" ">
<polygon fill="none" stroke="black" points="127.25,-171.5 127.25,-191.5 168.75,-191.5 168.75,-171.5 127.25,-171.5"/>
<text text-anchor="middle" x="148" y="-178" font-family="Helvetica,sans-Serif" font-size="10.00">Win.h</text>
</a>
</g>
</g>
<!-- Node17&#45;&gt;Node18 -->
<g id="edge22" class="edge">
<title>Node17&#45;&gt;Node18</title>
<path fill="none" stroke="midnightblue" d="M231.09,-228.66C215.6,-220.05 191.79,-206.83 173.62,-196.73"/>
<polygon fill="midnightblue" stroke="midnightblue" points="175.64,-193.29 165.2,-191.5 172.24,-199.41 175.64,-193.29"/>
</g>
<!-- Node19 -->
<g id="node19" class="node">
<title>Node19</title>
<g id="a_node19"><a xlink:title=" ">
<polygon fill="none" stroke="#bfbfbf" points="72.12,-114.5 72.12,-134.5 139.88,-134.5 139.88,-114.5 72.12,-114.5"/>
<text text-anchor="middle" x="106" y="-121" font-family="Helvetica,sans-Serif" font-size="10.00">sdkddkver.h</text>
</a>
</g>
</g>
<!-- Node18&#45;&gt;Node19 -->
<g id="edge23" class="edge">
<title>Node18&#45;&gt;Node19</title>
<path fill="none" stroke="midnightblue" d="M141.44,-171.91C135.49,-164.12 126.56,-152.42 119.15,-142.71"/>
<polygon fill="midnightblue" stroke="midnightblue" points="121.51,-141.04 112.66,-135.21 115.94,-145.29 121.51,-141.04"/>
</g>
<!-- Node20 -->
<g id="node20" class="node">
<title>Node20</title>
<g id="a_node20"><a xlink:title=" ">
<polygon fill="none" stroke="#bfbfbf" points="158,-114.5 158,-134.5 222,-134.5 222,-114.5 158,-114.5"/>
<text text-anchor="middle" x="190" y="-121" font-family="Helvetica,sans-Serif" font-size="10.00">Windows.h</text>
</a>
</g>
</g>
<!-- Node18&#45;&gt;Node20 -->
<g id="edge24" class="edge">
<title>Node18&#45;&gt;Node20</title>
<path fill="none" stroke="midnightblue" d="M154.56,-171.91C160.51,-164.12 169.44,-152.42 176.85,-142.71"/>
<polygon fill="midnightblue" stroke="midnightblue" points="180.06,-145.29 183.34,-135.21 174.49,-141.04 180.06,-145.29"/>
</g>
<!-- Node21&#45;&gt;Node3 -->
<g id="edge29" class="edge">
<title>Node21&#45;&gt;Node3</title>
<path fill="none" stroke="midnightblue" d="M480.26,-228.66C495.13,-220.05 517.98,-206.83 535.42,-196.73"/>
<polygon fill="midnightblue" stroke="midnightblue" points="536.56,-199.54 543.46,-191.5 533.05,-193.48 536.56,-199.54"/>
</g>
<!-- Node21&#45;&gt;Node4 -->
<g id="edge32" class="edge">
<title>Node21&#45;&gt;Node4</title>
<path fill="none" stroke="midnightblue" d="M455.98,-228.72C447.92,-220.21 436.7,-206.48 432,-192 427.04,-176.7 428.06,-158.38 430.03,-144.84"/>
<polygon fill="midnightblue" stroke="midnightblue" points="433.59,-145.83 431.88,-135.37 426.7,-144.61 433.59,-145.83"/>
</g>
<!-- Node21&#45;&gt;Node18 -->
<g id="edge26" class="edge">
<title>Node21&#45;&gt;Node18</title>
<path fill="none" stroke="midnightblue" d="M436.44,-230.03C433.26,-229.3 430.07,-228.6 427,-228 320.18,-207.01 288.23,-216.92 178.94,-192.12"/>
<polygon fill="midnightblue" stroke="midnightblue" points="180,-188.54 169.47,-189.69 178.42,-195.36 180,-188.54"/>
</g>
<!-- Node22 -->
<g id="node22" class="node">
<title>Node22</title>
<g id="a_node22"><a xlink:href="_colors_8h.html" target="_top" xlink:title=" ">
<polygon fill="none" stroke="black" points="441,-171.5 441,-191.5 493,-191.5 493,-171.5 441,-171.5"/>
<text text-anchor="middle" x="467" y="-178" font-family="Helvetica,sans-Serif" font-size="10.00">Colors.h</text>
</a>
</g>
</g>
<!-- Node21&#45;&gt;Node22 -->
<g id="edge27" class="edge">
<title>Node21&#45;&gt;Node22</title>
<path fill="none" stroke="midnightblue" d="M465.31,-228.91C465.57,-221.76 465.95,-211.32 466.29,-202.15"/>
<polygon fill="midnightblue" stroke="midnightblue" points="469.82,-202.34 466.68,-192.21 462.82,-202.08 469.82,-202.34"/>
</g>
<!-- Node23 -->
<g id="node23" class="node">
<title>Node23</title>
<g id="a_node23"><a xlink:title=" ">
<polygon fill="none" stroke="#bfbfbf" points="186.38,-171.5 186.38,-191.5 237.62,-191.5 237.62,-171.5 186.38,-171.5"/>
<text text-anchor="middle" x="212" y="-178" font-family="Helvetica,sans-Serif" font-size="10.00">assert.h</text>
</a>
</g>
</g>
<!-- Node21&#45;&gt;Node23 -->
<g id="edge30" class="edge">
<title>Node21&#45;&gt;Node23</title>
<path fill="none" stroke="midnightblue" d="M436.4,-230.19C433.23,-229.43 430.05,-228.68 427,-228 350.25,-210.78 327.61,-211 248.09,-192.37"/>
<polygon fill="midnightblue" stroke="midnightblue" points="249.1,-188.77 238.57,-189.87 247.49,-195.58 249.1,-188.77"/>
</g>
<!-- Node24 -->
<g id="node24" class="node">
<title>Node24</title>
<g id="a_node24"><a xlink:title=" ">
<polygon fill="none" stroke="#bfbfbf" points="255.38,-171.5 255.38,-191.5 306.62,-191.5 306.62,-171.5 255.38,-171.5"/>
<text text-anchor="middle" x="281" y="-178" font-family="Helvetica,sans-Serif" font-size="10.00">memory</text>
</a>
</g>
</g>
<!-- Node21&#45;&gt;Node24 -->
<g id="edge31" class="edge">
<title>Node21&#45;&gt;Node24</title>
<path fill="none" stroke="midnightblue" d="M436.65,-229.03C404.4,-219.39 351.69,-203.63 316.67,-193.16"/>
<polygon fill="midnightblue" stroke="midnightblue" points="318,-189.61 307.41,-190.1 315.99,-196.31 318,-189.61"/>
</g>
<!-- Node25 -->
<g id="node25" class="node">
<title>Node25</title>
<g id="a_node25"><a xlink:title=" ">
<polygon fill="none" stroke="#bfbfbf" points="324.88,-171.5 324.88,-191.5 385.12,-191.5 385.12,-171.5 324.88,-171.5"/>
<text text-anchor="middle" x="355" y="-178" font-family="Helvetica,sans-Serif" font-size="10.00">filesystem</text>
</a>
</g>
</g>
<!-- Node21&#45;&gt;Node25 -->
<g id="edge33" class="edge">
<title>Node21&#45;&gt;Node25</title>
<path fill="none" stroke="midnightblue" d="M447.33,-228.66C429.87,-219.94 402.92,-206.46 382.63,-196.31"/>
<polygon fill="midnightblue" stroke="midnightblue" points="384.5,-192.84 373.99,-191.5 381.37,-199.1 384.5,-192.84"/>
</g>
<!-- Node22&#45;&gt;Node6 -->
<g id="edge28" class="edge">
<title>Node22&#45;&gt;Node6</title>
<path fill="none" stroke="midnightblue" d="M480.66,-171.66C493.71,-163.21 513.65,-150.31 529.13,-140.3"/>
<polygon fill="midnightblue" stroke="midnightblue" points="530.6,-142.87 537.09,-134.5 526.8,-136.99 530.6,-142.87"/>
</g>
<!-- Node28&#45;&gt;Node18 -->
<g id="edge37" class="edge">
<title>Node28&#45;&gt;Node18</title>
<path fill="none" stroke="midnightblue" d="M72.28,-342.81C63.26,-330.03 49.23,-305.46 57,-285 71.04,-248.05 105.17,-215.89 127.41,-197.87"/>
<polygon fill="midnightblue" stroke="midnightblue" points="129.14,-200.18 134.84,-191.25 124.82,-194.67 129.14,-200.18"/>
</g>
<!-- Node29 -->
<g id="node29" class="node">
<title>Node29</title>
<g id="a_node29"><a xlink:title=" ">
<polygon fill="none" stroke="#bfbfbf" points="66.5,-285.5 66.5,-305.5 103.5,-305.5 103.5,-285.5 66.5,-285.5"/>
<text text-anchor="middle" x="85" y="-292" font-family="Helvetica,sans-Serif" font-size="10.00">sal.h</text>
</a>
</g>
</g>
<!-- Node28&#45;&gt;Node29 -->
<g id="edge38" class="edge">
<title>Node28&#45;&gt;Node29</title>
<path fill="none" stroke="midnightblue" d="M79.94,-342.91C80.73,-335.68 81.88,-325.09 82.89,-315.85"/>
<polygon fill="midnightblue" stroke="midnightblue" points="86.44,-316.54 84.05,-306.21 79.49,-315.78 86.44,-316.54"/>
</g>
<!-- Node30&#45;&gt;Node2 -->
<g id="edge42" class="edge">
<title>Node30&#45;&gt;Node2</title>
<path fill="none" stroke="midnightblue" d="M571.62,-342.54C552.51,-333.71 523.08,-320.11 501.16,-309.98"/>
<polygon fill="midnightblue" stroke="midnightblue" points="502.92,-306.47 492.38,-305.46 499.98,-312.83 502.92,-306.47"/>
</g>
<!-- Node30&#45;&gt;Node3 -->
<g id="edge41" class="edge">
<title>Node30&#45;&gt;Node3</title>
<path fill="none" stroke="midnightblue" d="M589.42,-342.89C584.65,-316.9 570.33,-238.82 563.59,-202.05"/>
<polygon fill="midnightblue" stroke="midnightblue" points="566.86,-201.5 561.61,-192.3 559.98,-202.77 566.86,-201.5"/>
</g>
<!-- Node30&#45;&gt;Node4 -->
<g id="edge57" class="edge">
<title>Node30&#45;&gt;Node4</title>
<path fill="none" stroke="midnightblue" d="M596.32,-342.83C612.85,-314.65 659.8,-224.39 618,-171 613.21,-164.89 515.48,-143.06 464.45,-132.01"/>
<polygon fill="midnightblue" stroke="midnightblue" points="465.25,-128.38 454.73,-129.7 463.77,-135.23 465.25,-128.38"/>
</g>
<!-- Node30&#45;&gt;Node18 -->
<g id="edge40" class="edge">
<title>Node30&#45;&gt;Node18</title>
<path fill="none" stroke="midnightblue" d="M551.19,-350.93C473.94,-347.91 301.43,-331.66 189,-249 172.64,-236.98 161.4,-216.28 154.88,-201.16"/>
<polygon fill="midnightblue" stroke="midnightblue" points="157.92,-200.34 150.96,-192.35 151.42,-202.93 157.92,-200.34"/>
</g>
<!-- Node31 -->
<g id="node31" class="node">
<title>Node31</title>
<g id="a_node31"><a xlink:href="_keyboard_8h.html" target="_top" xlink:title=" ">
<polygon fill="none" stroke="black" points="657.25,-285.5 657.25,-305.5 722.75,-305.5 722.75,-285.5 657.25,-285.5"/>
<text text-anchor="middle" x="690" y="-292" font-family="Helvetica,sans-Serif" font-size="10.00">Keyboard.h</text>
</a>
</g>
</g>
<!-- Node30&#45;&gt;Node31 -->
<g id="edge43" class="edge">
<title>Node30&#45;&gt;Node31</title>
<path fill="none" stroke="midnightblue" d="M606.91,-342.66C622.4,-334.05 646.21,-320.83 664.38,-310.73"/>
<polygon fill="midnightblue" stroke="midnightblue" points="665.76,-313.41 672.8,-305.5 662.36,-307.29 665.76,-313.41"/>
</g>
<!-- Node34 -->
<g id="node34" class="node">
<title>Node34</title>
<g id="a_node34"><a xlink:href="_mouse_8h.html" target="_top" xlink:title=" ">
<polygon fill="none" stroke="black" points="741.25,-285.5 741.25,-305.5 794.75,-305.5 794.75,-285.5 741.25,-285.5"/>
<text text-anchor="middle" x="768" y="-292" font-family="Helvetica,sans-Serif" font-size="10.00">Mouse.h</text>
</a>
</g>
</g>
<!-- Node30&#45;&gt;Node34 -->
<g id="edge46" class="edge">
<title>Node30&#45;&gt;Node34</title>
<path fill="none" stroke="midnightblue" d="M619.83,-342.54C650.24,-333.09 698.24,-318.18 731.32,-307.9"/>
<polygon fill="midnightblue" stroke="midnightblue" points="731.98,-311.05 740.5,-304.74 729.91,-304.36 731.98,-311.05"/>
</g>
<!-- Node32 -->
<g id="node32" class="node">
<title>Node32</title>
<g id="a_node32"><a xlink:title=" ">
<polygon fill="none" stroke="#bfbfbf" points="664,-228.5 664,-248.5 704,-248.5 704,-228.5 664,-228.5"/>
<text text-anchor="middle" x="684" y="-235" font-family="Helvetica,sans-Serif" font-size="10.00">bitset</text>
</a>
</g>
</g>
<!-- Node31&#45;&gt;Node32 -->
<g id="edge44" class="edge">
<title>Node31&#45;&gt;Node32</title>
<path fill="none" stroke="midnightblue" d="M689.06,-285.91C688.27,-278.68 687.12,-268.09 686.11,-258.85"/>
<polygon fill="midnightblue" stroke="midnightblue" points="689.51,-258.78 684.95,-249.21 682.56,-259.54 689.51,-258.78"/>
</g>
<!-- Node33 -->
<g id="node33" class="node">
<title>Node33</title>
<g id="a_node33"><a xlink:title=" ">
<polygon fill="none" stroke="#bfbfbf" points="721.88,-228.5 721.88,-248.5 764.12,-248.5 764.12,-228.5 721.88,-228.5"/>
<text text-anchor="middle" x="743" y="-235" font-family="Helvetica,sans-Serif" font-size="10.00">queue</text>
</a>
</g>
</g>
<!-- Node31&#45;&gt;Node33 -->
<g id="edge45" class="edge">
<title>Node31&#45;&gt;Node33</title>
<path fill="none" stroke="midnightblue" d="M698.28,-285.91C705.94,-277.96 717.53,-265.94 726.99,-256.12"/>
<polygon fill="midnightblue" stroke="midnightblue" points="729.18,-258.84 733.6,-249.21 724.14,-253.99 729.18,-258.84"/>
</g>
<!-- Node34&#45;&gt;Node33 -->
<g id="edge56" class="edge">
<title>Node34&#45;&gt;Node33</title>
<path fill="none" stroke="midnightblue" d="M764.09,-285.91C760.7,-278.44 755.67,-267.38 751.38,-257.93"/>
<polygon fill="midnightblue" stroke="midnightblue" points="754.29,-256.87 746.96,-249.21 747.91,-259.77 754.29,-256.87"/>
</g>
<!-- Node34&#45;&gt;Node35 -->
<g id="edge47" class="edge">
<title>Node34&#45;&gt;Node35</title>
<path fill="none" stroke="midnightblue" d="M769.22,-285.89C772.91,-259.9 784,-181.82 789.22,-145.05"/>
<polygon fill="midnightblue" stroke="midnightblue" points="792.81,-145.69 790.75,-135.3 785.88,-144.71 792.81,-145.69"/>
</g>
<!-- Node35&#45;&gt;Node7 -->
<g id="edge48" class="edge">
<title>Node35&#45;&gt;Node7</title>
<path fill="none" stroke="midnightblue" d="M744.6,-114.54C685.48,-103.37 585.92,-84.55 534.3,-74.79"/>
<polygon fill="midnightblue" stroke="midnightblue" points="535.22,-71.22 524.74,-72.8 533.92,-78.09 535.22,-71.22"/>
</g>
<!-- Node35&#45;&gt;Node12 -->
<g id="edge51" class="edge">
<title>Node35&#45;&gt;Node12</title>
<path fill="none" stroke="midnightblue" d="M764.96,-114.54C737.35,-105.39 694.27,-91.12 663.39,-80.89"/>
<polygon fill="midnightblue" stroke="midnightblue" points="664.62,-77.28 654.03,-77.46 662.42,-83.92 664.62,-77.28"/>
</g>
<!-- Node35&#45;&gt;Node13 -->
<g id="edge52" class="edge">
<title>Node35&#45;&gt;Node13</title>
<path fill="none" stroke="midnightblue" d="M731.95,-115.22C639.37,-102.42 472.05,-79.19 469,-78 438.55,-66.17 408.28,-43.16 389.85,-27.56"/>
<polygon fill="midnightblue" stroke="midnightblue" points="392.43,-24.29 382.58,-20.38 387.84,-29.58 392.43,-24.29"/>
</g>
<!-- Node35&#45;&gt;Node14 -->
<g id="edge54" class="edge">
<title>Node35&#45;&gt;Node14</title>
<path fill="none" stroke="midnightblue" d="M791,-114.73C789.16,-101.41 784.33,-75.68 773,-57 766.05,-45.54 755.46,-35.08 746,-27.08"/>
<polygon fill="midnightblue" stroke="midnightblue" points="748.41,-23.73 738.42,-20.21 744.04,-29.19 748.41,-23.73"/>
</g>
<!-- Node35&#45;&gt;Node15 -->
<g id="edge55" class="edge">
<title>Node35&#45;&gt;Node15</title>
<path fill="none" stroke="midnightblue" d="M795.35,-114.58C798.62,-105.5 803.45,-90.97 806,-78 809.08,-62.33 810.59,-44.26 811.32,-30.91"/>
<polygon fill="midnightblue" stroke="midnightblue" points="814.84,-31.34 811.79,-21.19 807.85,-31.02 814.84,-31.34"/>
</g>
<!-- Node35&#45;&gt;Node16 -->
<g id="edge53" class="edge">
<title>Node35&#45;&gt;Node16</title>
<path fill="none" stroke="midnightblue" d="M783.41,-114.91C775.38,-106.88 763.19,-94.69 753.32,-84.82"/>
<polygon fill="midnightblue" stroke="midnightblue" points="756.26,-82.81 746.71,-78.21 751.31,-87.76 756.26,-82.81"/>
</g>
<!-- Node36 -->
<g id="node36" class="node">
<title>Node36</title>
<g id="a_node36"><a xlink:href="_matrix2_8h.html" target="_top" xlink:title=" ">
<polygon fill="none" stroke="black" points="857.75,-57.5 857.75,-77.5 914.25,-77.5 914.25,-57.5 857.75,-57.5"/>
<text text-anchor="middle" x="886" y="-64" font-family="Helvetica,sans-Serif" font-size="10.00">Matrix2.h</text>
</a>
</g>
</g>
<!-- Node35&#45;&gt;Node36 -->
<g id="edge49" class="edge">
<title>Node35&#45;&gt;Node36</title>
<path fill="none" stroke="midnightblue" d="M807.1,-114.66C821.68,-106.13 844.01,-93.07 861.19,-83.01"/>
<polygon fill="midnightblue" stroke="midnightblue" points="862.76,-85.57 869.62,-77.5 859.22,-79.53 862.76,-85.57"/>
</g>
<!-- Node36&#45;&gt;Node15 -->
<g id="edge50" class="edge">
<title>Node36&#45;&gt;Node15</title>
<path fill="none" stroke="midnightblue" d="M874.11,-57.66C862.96,-49.37 846.04,-36.8 832.68,-26.87"/>
<polygon fill="midnightblue" stroke="midnightblue" points="835.22,-23.65 825.11,-20.5 831.04,-29.27 835.22,-23.65"/>
</g>
<!-- Node37&#45;&gt;Node14 -->
<g id="edge60" class="edge">
<title>Node37&#45;&gt;Node14</title>
<path fill="none" stroke="midnightblue" d="M1021.43,-342.64C1036.67,-335.03 1056.87,-322.65 1069,-306 1087.1,-281.16 1088,-270.24 1088,-239.5 1088,-239.5 1088,-239.5 1088,-123.5 1088,-89.31 849.79,-37.01 759.31,-18.38"/>
<polygon fill="midnightblue" stroke="midnightblue" points="760.04,-14.76 749.54,-16.18 758.63,-21.62 760.04,-14.76"/>
</g>
<!-- Node38 -->
<g id="node38" class="node">
<title>Node38</title>
<g id="a_node38"><a xlink:title=" ">
<polygon fill="none" stroke="#bfbfbf" points="1116.38,-285.5 1116.38,-305.5 1161.62,-305.5 1161.62,-285.5 1116.38,-285.5"/>
<text text-anchor="middle" x="1139" y="-292" font-family="Helvetica,sans-Serif" font-size="10.00">cstdint</text>
</a>
</g>
</g>
<!-- Node37&#45;&gt;Node38 -->
<g id="edge61" class="edge">
<title>Node37&#45;&gt;Node38</title>
<path fill="none" stroke="midnightblue" d="M1023.48,-342.54C1046.03,-333.55 1081,-319.62 1106.56,-309.43"/>
<polygon fill="midnightblue" stroke="midnightblue" points="1107.54,-312.41 1115.53,-305.46 1104.95,-305.91 1107.54,-312.41"/>
</g>
<!-- Node39 -->
<g id="node39" class="node">
<title>Node39</title>
<g id="a_node39"><a xlink:title=" ">
<polygon fill="none" stroke="#bfbfbf" points="1180,-285.5 1180,-305.5 1238,-305.5 1238,-285.5 1180,-285.5"/>
<text text-anchor="middle" x="1209" y="-292" font-family="Helvetica,sans-Serif" font-size="10.00">exception</text>
</a>
</g>
</g>
<!-- Node37&#45;&gt;Node39 -->
<g id="edge62" class="edge">
<title>Node37&#45;&gt;Node39</title>
<path fill="none" stroke="midnightblue" d="M1034.88,-342.54C1071.81,-332.77 1130.83,-317.17 1169.75,-306.88"/>
<polygon fill="midnightblue" stroke="midnightblue" points="1170.39,-310.07 1179.16,-304.13 1168.6,-303.3 1170.39,-310.07"/>
</g>
<!-- Node40 -->
<g id="node40" class="node">
<title>Node40</title>
<g id="a_node40"><a xlink:title=" ">
<polygon fill="none" stroke="#bfbfbf" points="1255.88,-285.5 1255.88,-305.5 1304.12,-305.5 1304.12,-285.5 1255.88,-285.5"/>
<text text-anchor="middle" x="1280" y="-292" font-family="Helvetica,sans-Serif" font-size="10.00">fstream</text>
</a>
</g>
</g>
<!-- Node37&#45;&gt;Node40 -->
<g id="edge63" class="edge">
<title>Node37&#45;&gt;Node40</title>
<path fill="none" stroke="midnightblue" d="M1048.19,-343.34C1104.39,-333.52 1195.96,-317.23 1245.45,-306.14"/>
<polygon fill="midnightblue" stroke="midnightblue" points="1245.97,-309.39 1254.92,-303.73 1244.39,-302.57 1245.97,-309.39"/>
</g>
<!-- Node41 -->
<g id="node41" class="node">
<title>Node41</title>
<g id="a_node41"><a xlink:title=" ">
<polygon fill="none" stroke="#bfbfbf" points="850.62,-285.5 850.62,-305.5 909.38,-305.5 909.38,-285.5 850.62,-285.5"/>
<text text-anchor="middle" x="880" y="-292" font-family="Helvetica,sans-Serif" font-size="10.00">stdexcept</text>
</a>
</g>
</g>
<!-- Node37&#45;&gt;Node41 -->
<g id="edge64" class="edge">
<title>Node37&#45;&gt;Node41</title>
<path fill="none" stroke="midnightblue" d="M981.29,-342.54C961.87,-333.71 931.94,-320.11 909.65,-309.98"/>
<polygon fill="midnightblue" stroke="midnightblue" points="911.25,-306.41 900.7,-305.46 908.36,-312.78 911.25,-306.41"/>
</g>
<!-- Node42 -->
<g id="node42" class="node">
<title>Node42</title>
<g id="a_node42"><a xlink:title=" ">
<polygon fill="none" stroke="#bfbfbf" points="927.5,-285.5 927.5,-305.5 1000.5,-305.5 1000.5,-285.5 927.5,-285.5"/>
<text text-anchor="middle" x="964" y="-292" font-family="Helvetica,sans-Serif" font-size="10.00">system_error</text>
</a>
</g>
</g>
<!-- Node37&#45;&gt;Node42 -->
<g id="edge65" class="edge">
<title>Node37&#45;&gt;Node42</title>
<path fill="none" stroke="midnightblue" d="M995.22,-342.91C990.09,-335.28 982.43,-323.9 975.99,-314.32"/>
<polygon fill="midnightblue" stroke="midnightblue" points="978.35,-312.56 969.86,-306.21 972.54,-316.47 978.35,-312.56"/>
</g>
<!-- Node43 -->
<g id="node43" class="node">
<title>Node43</title>
<g id="a_node43"><a xlink:title=" ">
<polygon fill="none" stroke="#bfbfbf" points="1018.25,-285.5 1018.25,-305.5 1059.75,-305.5 1059.75,-285.5 1018.25,-285.5"/>
<text text-anchor="middle" x="1039" y="-292" font-family="Helvetica,sans-Serif" font-size="10.00">vector</text>
</a>
</g>
</g>
<!-- Node37&#45;&gt;Node43 -->
<g id="edge66" class="edge">
<title>Node37&#45;&gt;Node43</title>
<path fill="none" stroke="midnightblue" d="M1006.94,-342.91C1012.26,-335.2 1020.23,-323.66 1026.9,-314.02"/>
<polygon fill="midnightblue" stroke="midnightblue" points="1030.17,-316.43 1032.98,-306.21 1024.41,-312.45 1030.17,-316.43"/>
</g>
</g>
</svg>
