<?xml version="1.0" encoding="UTF-8" standalone="no"?>
<!DOCTYPE svg PUBLIC "-//W3C//DTD SVG 1.1//EN"
 "http://www.w3.org/Graphics/SVG/1.1/DTD/svg11.dtd">
<!-- Generated by graphviz version 8.1.0 (20230707.0739)
 -->
<!-- Title: include/Graphics.h Pages: 1 -->
<svg width="1855pt" height="338pt"
 viewBox="0.00 0.00 1854.92 338.00" xmlns="http://www.w3.org/2000/svg" xmlns:xlink="http://www.w3.org/1999/xlink">
<g id="graph0" class="graph" transform="scale(1 1) rotate(0) translate(4 334)">
<title>include/Graphics.h</title>
<!-- Node1 -->
<g id="node1" class="node">
<title>Node1</title>
<g id="a_node1"><a xlink:title=" ">
<polygon fill="#bfbfbf" stroke="black" points="154.62,-309.5 154.62,-329.5 251.62,-329.5 251.62,-309.5 154.62,-309.5"/>
<text text-anchor="middle" x="203.12" y="-316" font-family="Helvetica,sans-Serif" font-size="10.00">include/Graphics.h</text>
</a>
</g>
</g>
<!-- Node2 -->
<g id="node2" class="node">
<title>Node2</title>
<g id="a_node2"><a xlink:href="_engine_8h.html" target="_top" xlink:title=" ">
<polygon fill="none" stroke="black" points="240.12,-63.5 240.12,-83.5 328.12,-83.5 328.12,-63.5 240.12,-63.5"/>
<text text-anchor="middle" x="284.12" y="-70" font-family="Helvetica,sans-Serif" font-size="10.00">include/Engine.h</text>
</a>
</g>
</g>
<!-- Node1&#45;&gt;Node2 -->
<g id="edge1" class="edge">
<title>Node1&#45;&gt;Node2</title>
<path fill="none" stroke="midnightblue" d="M205.63,-298.96C210.68,-263.36 223.91,-186.08 250.12,-126 257.15,-109.9 269.13,-93.29 276.83,-83.43"/>
<polygon fill="midnightblue" stroke="midnightblue" points="202.05,-298.34 204.18,-308.72 208.98,-299.27 202.05,-298.34"/>
</g>
<!-- Node5 -->
<g id="node5" class="node">
<title>Node5</title>
<g id="a_node5"><a xlink:href="_main_window_8cpp.html" target="_top" xlink:title=" ">
<polygon fill="none" stroke="black" points="111.75,-0.5 111.75,-20.5 218.5,-20.5 218.5,-0.5 111.75,-0.5"/>
<text text-anchor="middle" x="165.12" y="-7" font-family="Helvetica,sans-Serif" font-size="10.00">src/MainWindow.cpp</text>
</a>
</g>
</g>
<!-- Node1&#45;&gt;Node5 -->
<g id="edge59" class="edge">
<title>Node1&#45;&gt;Node5</title>
<path fill="none" stroke="midnightblue" d="M169.64,-305.15C133.21,-288.17 80.12,-255.07 80.12,-206.5 80.12,-206.5 80.12,-206.5 80.12,-141.5 80.12,-103.01 77.57,-88.9 99.12,-57 110.34,-40.39 129.83,-28.07 144.72,-20.47"/>
<polygon fill="midnightblue" stroke="midnightblue" points="167.85,-308.63 178.41,-309.52 170.71,-302.24 167.85,-308.63"/>
</g>
<!-- Node6 -->
<g id="node6" class="node">
<title>Node6</title>
<g id="a_node6"><a xlink:href="_main_window_8h.html" target="_top" xlink:title=" ">
<polygon fill="none" stroke="black" points="108.38,-63.5 108.38,-83.5 221.88,-83.5 221.88,-63.5 108.38,-63.5"/>
<text text-anchor="middle" x="165.12" y="-70" font-family="Helvetica,sans-Serif" font-size="10.00">include/MainWindow.h</text>
</a>
</g>
</g>
<!-- Node1&#45;&gt;Node6 -->
<g id="edge5" class="edge">
<title>Node1&#45;&gt;Node6</title>
<path fill="none" stroke="midnightblue" d="M196.41,-299.38C193.8,-291.32 190.99,-281.79 189.12,-273 173.75,-200.68 167.35,-111.29 165.63,-83.3"/>
<polygon fill="midnightblue" stroke="midnightblue" points="193.34,-300.21 199.86,-308.56 199.97,-297.97 193.34,-300.21"/>
</g>
<!-- Node7 -->
<g id="node7" class="node">
<title>Node7</title>
<g id="a_node7"><a xlink:href="_graphics_8cpp.html" target="_top" xlink:title=" ">
<polygon fill="none" stroke="black" points="0,-0.5 0,-20.5 90.25,-20.5 90.25,-0.5 0,-0.5"/>
<text text-anchor="middle" x="45.12" y="-7" font-family="Helvetica,sans-Serif" font-size="10.00">src/Graphics.cpp</text>
</a>
</g>
</g>
<!-- Node1&#45;&gt;Node7 -->
<g id="edge58" class="edge">
<title>Node1&#45;&gt;Node7</title>
<path fill="none" stroke="midnightblue" d="M153.33,-306.41C106.04,-291.6 42.12,-261.42 42.12,-206.5 42.12,-206.5 42.12,-206.5 42.12,-141.5 42.12,-95.9 43.99,-41.32 44.78,-20.33"/>
<polygon fill="midnightblue" stroke="midnightblue" points="152.16,-310.01 162.74,-309.51 154.16,-303.3 152.16,-310.01"/>
</g>
<!-- Node8 -->
<g id="node8" class="node">
<title>Node8</title>
<g id="a_node8"><a xlink:href="_pipeline_8h.html" target="_top" xlink:title=" ">
<polygon fill="none" stroke="black" points="1029.88,-195.5 1029.88,-215.5 1122.38,-215.5 1122.38,-195.5 1029.88,-195.5"/>
<text text-anchor="middle" x="1076.12" y="-202" font-family="Helvetica,sans-Serif" font-size="10.00">include/Pipeline.h</text>
</a>
</g>
</g>
<!-- Node1&#45;&gt;Node8 -->
<g id="edge10" class="edge">
<title>Node1&#45;&gt;Node8</title>
<path fill="none" stroke="midnightblue" d="M262.28,-314.24C352.74,-307.43 530.78,-292.79 681.12,-273 807.99,-256.31 956.54,-229.26 1030.07,-215.36"/>
<polygon fill="midnightblue" stroke="midnightblue" points="262.14,-310.82 252.43,-315.06 262.66,-317.8 262.14,-310.82"/>
</g>
<!-- Node26 -->
<g id="node26" class="node">
<title>Node26</title>
<g id="a_node26"><a xlink:href="_pube_screen_transformer_8h.html" target="_top" xlink:title=" ">
<polygon fill="none" stroke="black" points="510,-252.5 510,-272.5 672.25,-272.5 672.25,-252.5 510,-252.5"/>
<text text-anchor="middle" x="591.12" y="-259" font-family="Helvetica,sans-Serif" font-size="10.00">include/PubeScreenTransformer.h</text>
</a>
</g>
</g>
<!-- Node1&#45;&gt;Node26 -->
<g id="edge45" class="edge">
<title>Node1&#45;&gt;Node26</title>
<path fill="none" stroke="midnightblue" d="M262.11,-310.14C333.74,-299.99 454.06,-282.93 527.65,-272.5"/>
<polygon fill="midnightblue" stroke="midnightblue" points="261.89,-306.78 252.48,-311.65 262.87,-313.71 261.89,-306.78"/>
</g>
<!-- Node27 -->
<g id="node27" class="node">
<title>Node27</title>
<g id="a_node27"><a xlink:href="_scene_8h.html" target="_top" xlink:title=" ">
<polygon fill="none" stroke="black" points="829.25,-132.5 829.25,-152.5 915,-152.5 915,-132.5 829.25,-132.5"/>
<text text-anchor="middle" x="872.12" y="-139" font-family="Helvetica,sans-Serif" font-size="10.00">include/Scene.h</text>
</a>
</g>
</g>
<!-- Node1&#45;&gt;Node27 -->
<g id="edge47" class="edge">
<title>Node1&#45;&gt;Node27</title>
<path fill="none" stroke="midnightblue" d="M250.16,-306.97C353.56,-281.48 608.31,-217.93 820.12,-159 827.48,-156.95 835.38,-154.65 842.75,-152.46"/>
<polygon fill="midnightblue" stroke="midnightblue" points="249.63,-303.74 240.76,-309.53 251.31,-310.54 249.63,-303.74"/>
</g>
<!-- Node3 -->
<g id="node3" class="node">
<title>Node3</title>
<g id="a_node3"><a xlink:href="_engine_8cpp.html" target="_top" xlink:title=" ">
<polygon fill="none" stroke="black" points="859.5,-0.5 859.5,-20.5 940.75,-20.5 940.75,-0.5 859.5,-0.5"/>
<text text-anchor="middle" x="900.12" y="-7" font-family="Helvetica,sans-Serif" font-size="10.00">src/Engine.cpp</text>
</a>
</g>
</g>
<!-- Node2&#45;&gt;Node3 -->
<g id="edge2" class="edge">
<title>Node2&#45;&gt;Node3</title>
<path fill="none" stroke="midnightblue" d="M321.36,-60.58C326.61,-59.2 331.98,-57.95 337.12,-57 530.71,-21.26 766.89,-13.59 859.82,-11.95"/>
<polygon fill="midnightblue" stroke="midnightblue" points="320.51,-57.46 311.83,-63.54 322.41,-64.2 320.51,-57.46"/>
</g>
<!-- Node4 -->
<g id="node4" class="node">
<title>Node4</title>
<g id="a_node4"><a xlink:href="_main_8cpp.html" target="_top" xlink:title=" ">
<polygon fill="none" stroke="black" points="243,-0.5 243,-20.5 315.25,-20.5 315.25,-0.5 243,-0.5"/>
<text text-anchor="middle" x="279.12" y="-7" font-family="Helvetica,sans-Serif" font-size="10.00">src/Main.cpp</text>
</a>
</g>
</g>
<!-- Node2&#45;&gt;Node4 -->
<g id="edge3" class="edge">
<title>Node2&#45;&gt;Node4</title>
<path fill="none" stroke="midnightblue" d="M282.53,-52.99C281.62,-41.97 280.54,-28.73 279.84,-20.22"/>
<polygon fill="midnightblue" stroke="midnightblue" points="279.1,-53.08 283.41,-62.76 286.08,-52.51 279.1,-53.08"/>
</g>
<!-- Node2&#45;&gt;Node5 -->
<g id="edge4" class="edge">
<title>Node2&#45;&gt;Node5</title>
<path fill="none" stroke="midnightblue" d="M257.34,-58.77C234.42,-47.02 202.11,-30.46 182.45,-20.38"/>
<polygon fill="midnightblue" stroke="midnightblue" points="255.33,-62.18 265.82,-63.63 258.52,-55.95 255.33,-62.18"/>
</g>
<!-- Node6&#45;&gt;Node3 -->
<g id="edge6" class="edge">
<title>Node6&#45;&gt;Node3</title>
<path fill="none" stroke="midnightblue" d="M209.02,-61.14C216.36,-59.55 223.93,-58.08 231.12,-57 467.41,-21.46 754.85,-13.66 859.53,-11.97"/>
<polygon fill="midnightblue" stroke="midnightblue" points="208.46,-57.91 199.5,-63.55 210.02,-64.73 208.46,-57.91"/>
</g>
<!-- Node6&#45;&gt;Node4 -->
<g id="edge8" class="edge">
<title>Node6&#45;&gt;Node4</title>
<path fill="none" stroke="midnightblue" d="M191.12,-58.59C213.02,-46.87 243.7,-30.45 262.45,-20.42"/>
<polygon fill="midnightblue" stroke="midnightblue" points="189.62,-55.96 182.46,-63.76 192.93,-62.13 189.62,-55.96"/>
</g>
<!-- Node6&#45;&gt;Node5 -->
<g id="edge9" class="edge">
<title>Node6&#45;&gt;Node5</title>
<path fill="none" stroke="midnightblue" d="M165.12,-52.99C165.12,-41.97 165.12,-28.73 165.12,-20.22"/>
<polygon fill="midnightblue" stroke="midnightblue" points="161.63,-52.76 165.12,-62.76 168.63,-52.76 161.63,-52.76"/>
</g>
<!-- Node6&#45;&gt;Node7 -->
<g id="edge7" class="edge">
<title>Node6&#45;&gt;Node7</title>
<path fill="none" stroke="midnightblue" d="M138.11,-58.77C115,-47.02 82.42,-30.46 62.6,-20.38"/>
<polygon fill="midnightblue" stroke="midnightblue" points="136.18,-62.22 146.68,-63.63 139.35,-55.98 136.18,-62.22"/>
</g>
<!-- Node9 -->
<g id="node9" class="node">
<title>Node9</title>
<g id="a_node9"><a xlink:href="_geometry_flat_effect_8h.html" target="_top" xlink:title=" ">
<polygon fill="none" stroke="black" points="1541.38,-126.5 1541.38,-158.5 1666.88,-158.5 1666.88,-126.5 1541.38,-126.5"/>
<text text-anchor="start" x="1549.38" y="-145" font-family="Helvetica,sans-Serif" font-size="10.00">include/Effects/Geometry</text>
<text text-anchor="middle" x="1604.12" y="-133" font-family="Helvetica,sans-Serif" font-size="10.00">FlatEffect.h</text>
</a>
</g>
</g>
<!-- Node8&#45;&gt;Node9 -->
<g id="edge11" class="edge">
<title>Node8&#45;&gt;Node9</title>
<path fill="none" stroke="midnightblue" d="M1132.87,-200.57C1218.58,-194.23 1386.04,-180.26 1527.12,-159 1531.84,-158.29 1536.71,-157.48 1541.6,-156.62"/>
<polygon fill="midnightblue" stroke="midnightblue" points="1132.8,-197.14 1123.08,-201.36 1133.31,-204.12 1132.8,-197.14"/>
</g>
<!-- Node10 -->
<g id="node10" class="node">
<title>Node10</title>
<g id="a_node10"><a xlink:href="_geometry_flat_scene_8h.html" target="_top" xlink:title=" ">
<polygon fill="none" stroke="black" points="1487.62,-57.5 1487.62,-89.5 1632.62,-89.5 1632.62,-57.5 1487.62,-57.5"/>
<text text-anchor="start" x="1495.62" y="-76" font-family="Helvetica,sans-Serif" font-size="10.00">include/Scenes/GeometryFlat</text>
<text text-anchor="middle" x="1560.12" y="-64" font-family="Helvetica,sans-Serif" font-size="10.00">Scene.h</text>
</a>
</g>
</g>
<!-- Node8&#45;&gt;Node10 -->
<g id="edge44" class="edge">
<title>Node8&#45;&gt;Node10</title>
<path fill="none" stroke="midnightblue" d="M1133.09,-202.47C1228.08,-198.35 1414.25,-186.89 1473.12,-159 1506.61,-143.13 1535.18,-109.14 1549.76,-89.45"/>
<polygon fill="midnightblue" stroke="midnightblue" points="1133.09,-199.01 1123.24,-202.93 1133.38,-206.01 1133.09,-199.01"/>
</g>
<!-- Node11 -->
<g id="node11" class="node">
<title>Node11</title>
<g id="a_node11"><a xlink:href="_solid_effect_8h.html" target="_top" xlink:title=" ">
<polygon fill="none" stroke="black" points="1309.38,-132.5 1309.38,-152.5 1446.88,-152.5 1446.88,-132.5 1309.38,-132.5"/>
<text text-anchor="middle" x="1378.12" y="-139" font-family="Helvetica,sans-Serif" font-size="10.00">include/Effects/SolidEffect.h</text>
</a>
</g>
</g>
<!-- Node8&#45;&gt;Node11 -->
<g id="edge14" class="edge">
<title>Node8&#45;&gt;Node11</title>
<path fill="none" stroke="midnightblue" d="M1130.83,-193.45C1189,-181.7 1279.89,-163.34 1333.77,-152.46"/>
<polygon fill="midnightblue" stroke="midnightblue" points="1130.47,-190.15 1121.36,-195.56 1131.86,-197.02 1130.47,-190.15"/>
</g>
<!-- Node12 -->
<g id="node12" class="node">
<title>Node12</title>
<g id="a_node12"><a xlink:href="_cube_solid_scene_8h.html" target="_top" xlink:title=" ">
<polygon fill="none" stroke="black" points="1339.12,-57.5 1339.12,-89.5 1469.12,-89.5 1469.12,-57.5 1339.12,-57.5"/>
<text text-anchor="start" x="1347.12" y="-76" font-family="Helvetica,sans-Serif" font-size="10.00">include/Scenes/CubeSolid</text>
<text text-anchor="middle" x="1404.12" y="-64" font-family="Helvetica,sans-Serif" font-size="10.00">Scene.h</text>
</a>
</g>
</g>
<!-- Node8&#45;&gt;Node12 -->
<g id="edge40" class="edge">
<title>Node8&#45;&gt;Node12</title>
<path fill="none" stroke="midnightblue" d="M1132.97,-201.79C1233.72,-196.39 1435.06,-182.74 1456.12,-159 1475.56,-137.1 1446.25,-107.02 1424.37,-89.29"/>
<polygon fill="midnightblue" stroke="midnightblue" points="1132.88,-198.34 1123.08,-202.36 1133.25,-205.33 1132.88,-198.34"/>
</g>
<!-- Node13 -->
<g id="node13" class="node">
<title>Node13</title>
<g id="a_node13"><a xlink:href="_double_cube_scene_8h.html" target="_top" xlink:title=" ">
<polygon fill="none" stroke="black" points="1183,-57.5 1183,-89.5 1321.25,-89.5 1321.25,-57.5 1183,-57.5"/>
<text text-anchor="start" x="1191" y="-76" font-family="Helvetica,sans-Serif" font-size="10.00">include/Scenes/DoubleCube</text>
<text text-anchor="middle" x="1252.12" y="-64" font-family="Helvetica,sans-Serif" font-size="10.00">Scene.h</text>
</a>
</g>
</g>
<!-- Node8&#45;&gt;Node13 -->
<g id="edge43" class="edge">
<title>Node8&#45;&gt;Node13</title>
<path fill="none" stroke="midnightblue" d="M1132.83,-195.7C1174.71,-187.99 1226.82,-175.45 1241.12,-159 1257.92,-139.68 1257.04,-107.89 1254.7,-89.3"/>
<polygon fill="midnightblue" stroke="midnightblue" points="1132.39,-192.4 1123.16,-197.6 1133.62,-199.29 1132.39,-192.4"/>
</g>
<!-- Node14 -->
<g id="node14" class="node">
<title>Node14</title>
<g id="a_node14"><a xlink:href="_solid_geometry_effect_8h.html" target="_top" xlink:title=" ">
<polygon fill="none" stroke="black" points="269.5,-126.5 269.5,-158.5 416.75,-158.5 416.75,-126.5 269.5,-126.5"/>
<text text-anchor="start" x="277.5" y="-145" font-family="Helvetica,sans-Serif" font-size="10.00">include/Effects/SolidGeometry</text>
<text text-anchor="middle" x="343.12" y="-133" font-family="Helvetica,sans-Serif" font-size="10.00">Effect.h</text>
</a>
</g>
</g>
<!-- Node8&#45;&gt;Node14 -->
<g id="edge19" class="edge">
<title>Node8&#45;&gt;Node14</title>
<path fill="none" stroke="midnightblue" d="M1019.48,-202.48C906.98,-198.04 647.59,-185.63 431.12,-159 426.35,-158.41 421.44,-157.74 416.51,-157.01"/>
<polygon fill="midnightblue" stroke="midnightblue" points="1019.09,-206.01 1029.22,-202.9 1019.36,-199.02 1019.09,-206.01"/>
</g>
<!-- Node15 -->
<g id="node15" class="node">
<title>Node15</title>
<g id="a_node15"><a xlink:href="_cube_solid_geometry_scene_8h.html" target="_top" xlink:title=" ">
<polygon fill="none" stroke="black" points="346.12,-57.5 346.12,-89.5 476.12,-89.5 476.12,-57.5 346.12,-57.5"/>
<text text-anchor="start" x="354.12" y="-76" font-family="Helvetica,sans-Serif" font-size="10.00">include/Scenes/CubeSolid</text>
<text text-anchor="middle" x="411.12" y="-64" font-family="Helvetica,sans-Serif" font-size="10.00">GeometryScene.h</text>
</a>
</g>
</g>
<!-- Node8&#45;&gt;Node15 -->
<g id="edge39" class="edge">
<title>Node8&#45;&gt;Node15</title>
<path fill="none" stroke="midnightblue" d="M1019.28,-203.45C838.36,-199.83 286.19,-186.56 260.12,-159 250.05,-148.34 251.59,-137.93 260.12,-126 270.72,-111.19 310.28,-98.01 346.24,-88.69"/>
<polygon fill="midnightblue" stroke="midnightblue" points="1019.08,-206.97 1029.15,-203.66 1019.22,-199.97 1019.08,-206.97"/>
</g>
<!-- Node16 -->
<g id="node16" class="node">
<title>Node16</title>
<g id="a_node16"><a xlink:href="_texture_effect_8h.html" target="_top" xlink:title=" ">
<polygon fill="none" stroke="black" points="473.12,-132.5 473.12,-152.5 621.12,-152.5 621.12,-132.5 473.12,-132.5"/>
<text text-anchor="middle" x="547.12" y="-139" font-family="Helvetica,sans-Serif" font-size="10.00">include/Effects/TextureEffect.h</text>
</a>
</g>
</g>
<!-- Node8&#45;&gt;Node16 -->
<g id="edge22" class="edge">
<title>Node8&#45;&gt;Node16</title>
<path fill="none" stroke="midnightblue" d="M1019.11,-199.93C934.91,-192.88 772.46,-178.16 635.12,-159 621.91,-157.16 607.65,-154.8 594.52,-152.49"/>
<polygon fill="midnightblue" stroke="midnightblue" points="1018.71,-203.49 1028.96,-200.83 1019.29,-196.52 1018.71,-203.49"/>
</g>
<!-- Node17 -->
<g id="node17" class="node">
<title>Node17</title>
<g id="a_node17"><a xlink:href="_cube_skin_scene_8h.html" target="_top" xlink:title=" ">
<polygon fill="none" stroke="black" points="494.25,-63.5 494.25,-83.5 658,-83.5 658,-63.5 494.25,-63.5"/>
<text text-anchor="middle" x="576.12" y="-70" font-family="Helvetica,sans-Serif" font-size="10.00">include/Scenes/CubeSkinScene.h</text>
</a>
</g>
</g>
<!-- Node8&#45;&gt;Node17 -->
<g id="edge38" class="edge">
<title>Node8&#45;&gt;Node17</title>
<path fill="none" stroke="midnightblue" d="M1019.24,-204.57C874.58,-204.16 501.44,-199.19 464.12,-159 454.15,-148.25 456.21,-138.35 464.12,-126 478.56,-103.48 505.6,-90.67 529.5,-83.46"/>
<polygon fill="midnightblue" stroke="midnightblue" points="1019.06,-208.07 1029.07,-204.6 1019.08,-201.07 1019.06,-208.07"/>
</g>
<!-- Node18 -->
<g id="node18" class="node">
<title>Node18</title>
<g id="a_node18"><a xlink:href="_vertex_color_effect_8h.html" target="_top" xlink:title=" ">
<polygon fill="none" stroke="black" points="677.25,-126.5 677.25,-158.5 811,-158.5 811,-126.5 677.25,-126.5"/>
<text text-anchor="start" x="685.25" y="-145" font-family="Helvetica,sans-Serif" font-size="10.00">include/Effects/VertexColor</text>
<text text-anchor="middle" x="744.12" y="-133" font-family="Helvetica,sans-Serif" font-size="10.00">Effect.h</text>
</a>
</g>
</g>
<!-- Node8&#45;&gt;Node18 -->
<g id="edge25" class="edge">
<title>Node8&#45;&gt;Node18</title>
<path fill="none" stroke="midnightblue" d="M1019.62,-194.88C967.7,-185.94 888.64,-172.07 820.12,-159 817.08,-158.42 813.97,-157.82 810.83,-157.2"/>
<polygon fill="midnightblue" stroke="midnightblue" points="1018.83,-198.47 1029.28,-196.71 1020.02,-191.57 1018.83,-198.47"/>
</g>
<!-- Node19 -->
<g id="node19" class="node">
<title>Node19</title>
<g id="a_node19"><a xlink:href="_cube_vertex_color_scene_8h.html" target="_top" xlink:title=" ">
<polygon fill="none" stroke="black" points="675.75,-57.5 675.75,-89.5 812.5,-89.5 812.5,-57.5 675.75,-57.5"/>
<text text-anchor="start" x="683.75" y="-76" font-family="Helvetica,sans-Serif" font-size="10.00">include/Scenes/CubeVertex</text>
<text text-anchor="middle" x="744.12" y="-64" font-family="Helvetica,sans-Serif" font-size="10.00">ColorScene.h</text>
</a>
</g>
</g>
<!-- Node8&#45;&gt;Node19 -->
<g id="edge41" class="edge">
<title>Node8&#45;&gt;Node19</title>
<path fill="none" stroke="midnightblue" d="M1019,-202.28C912.23,-197.53 691.1,-184.68 668.12,-159 658.35,-148.07 661.25,-138.96 668.12,-126 676.71,-109.81 692.92,-97.77 708.17,-89.42"/>
<polygon fill="midnightblue" stroke="midnightblue" points="1018.75,-205.81 1028.89,-202.75 1019.05,-198.82 1018.75,-205.81"/>
</g>
<!-- Node20 -->
<g id="node20" class="node">
<title>Node20</title>
<g id="a_node20"><a xlink:href="_vertex_flat_effect_8h.html" target="_top" xlink:title=" ">
<polygon fill="none" stroke="black" points="1087.25,-126.5 1087.25,-158.5 1215,-158.5 1215,-126.5 1087.25,-126.5"/>
<text text-anchor="start" x="1095.25" y="-145" font-family="Helvetica,sans-Serif" font-size="10.00">include/Effects/VertexFlat</text>
<text text-anchor="middle" x="1151.12" y="-133" font-family="Helvetica,sans-Serif" font-size="10.00">Effect.h</text>
</a>
</g>
</g>
<!-- Node8&#45;&gt;Node20 -->
<g id="edge28" class="edge">
<title>Node8&#45;&gt;Node20</title>
<path fill="none" stroke="midnightblue" d="M1095.35,-188.86C1106.9,-179.47 1121.5,-167.59 1132.87,-158.35"/>
<polygon fill="midnightblue" stroke="midnightblue" points="1093.42,-186.74 1087.87,-195.76 1097.84,-192.17 1093.42,-186.74"/>
</g>
<!-- Node21 -->
<g id="node21" class="node">
<title>Node21</title>
<g id="a_node21"><a xlink:href="_cube_flat_independent_scene_8h.html" target="_top" xlink:title=" ">
<polygon fill="none" stroke="black" points="987.5,-57.5 987.5,-89.5 1164.75,-89.5 1164.75,-57.5 987.5,-57.5"/>
<text text-anchor="start" x="995.5" y="-76" font-family="Helvetica,sans-Serif" font-size="10.00">include/Scenes/CubeFlatIndependent</text>
<text text-anchor="middle" x="1076.12" y="-64" font-family="Helvetica,sans-Serif" font-size="10.00">Scene.h</text>
</a>
</g>
</g>
<!-- Node8&#45;&gt;Node21 -->
<g id="edge37" class="edge">
<title>Node8&#45;&gt;Node21</title>
<path fill="none" stroke="midnightblue" d="M1132.76,-202.78C1165.1,-198.53 1203.24,-187.26 1224.12,-159 1249.27,-124.97 1200.14,-102.59 1151.87,-89.47"/>
<polygon fill="midnightblue" stroke="midnightblue" points="1132.61,-199.39 1123.05,-203.97 1133.38,-206.35 1132.61,-199.39"/>
</g>
<!-- Node22 -->
<g id="node22" class="node">
<title>Node22</title>
<g id="a_node22"><a xlink:href="_vertex_position_color_effect_8h.html" target="_top" xlink:title=" ">
<polygon fill="none" stroke="black" points="1684.88,-126.5 1684.88,-158.5 1831.38,-158.5 1831.38,-126.5 1684.88,-126.5"/>
<text text-anchor="start" x="1692.88" y="-145" font-family="Helvetica,sans-Serif" font-size="10.00">include/Effects/VertexPosition</text>
<text text-anchor="middle" x="1758.12" y="-133" font-family="Helvetica,sans-Serif" font-size="10.00">ColorEffect.h</text>
</a>
</g>
</g>
<!-- Node8&#45;&gt;Node22 -->
<g id="edge31" class="edge">
<title>Node8&#45;&gt;Node22</title>
<path fill="none" stroke="midnightblue" d="M1133.07,-202.29C1239.91,-197.68 1477.57,-185.21 1676.12,-159 1679.14,-158.6 1682.21,-158.16 1685.32,-157.7"/>
<polygon fill="midnightblue" stroke="midnightblue" points="1133.06,-198.83 1123.22,-202.75 1133.36,-205.83 1133.06,-198.83"/>
</g>
<!-- Node23 -->
<g id="node23" class="node">
<title>Node23</title>
<g id="a_node23"><a xlink:href="_cube_vertex_position_color_scene_8h.html" target="_top" xlink:title=" ">
<polygon fill="none" stroke="black" points="1670.75,-57.5 1670.75,-89.5 1807.5,-89.5 1807.5,-57.5 1670.75,-57.5"/>
<text text-anchor="start" x="1678.75" y="-76" font-family="Helvetica,sans-Serif" font-size="10.00">include/Scenes/CubeVertex</text>
<text text-anchor="middle" x="1739.12" y="-64" font-family="Helvetica,sans-Serif" font-size="10.00">PositionColorScene.h</text>
</a>
</g>
</g>
<!-- Node8&#45;&gt;Node23 -->
<g id="edge42" class="edge">
<title>Node8&#45;&gt;Node23</title>
<path fill="none" stroke="midnightblue" d="M1133.11,-203.22C1306.26,-199.06 1815.94,-184.67 1840.12,-159 1850.18,-148.33 1847.79,-138.51 1840.12,-126 1829.64,-108.88 1811.47,-97.23 1793.41,-89.4"/>
<polygon fill="midnightblue" stroke="midnightblue" points="1133.11,-199.74 1123.2,-203.48 1133.28,-206.74 1133.11,-199.74"/>
</g>
<!-- Node24 -->
<g id="node24" class="node">
<title>Node24</title>
<g id="a_node24"><a xlink:href="_wave_vertex_texture_effect_8h.html" target="_top" xlink:title=" ">
<polygon fill="none" stroke="black" points="933.5,-126.5 933.5,-158.5 1068.75,-158.5 1068.75,-126.5 933.5,-126.5"/>
<text text-anchor="start" x="941.5" y="-145" font-family="Helvetica,sans-Serif" font-size="10.00">include/Effects/WaveVertex</text>
<text text-anchor="middle" x="1001.12" y="-133" font-family="Helvetica,sans-Serif" font-size="10.00">TextureEffect.h</text>
</a>
</g>
</g>
<!-- Node8&#45;&gt;Node24 -->
<g id="edge34" class="edge">
<title>Node8&#45;&gt;Node24</title>
<path fill="none" stroke="midnightblue" d="M1056.9,-188.86C1045.35,-179.47 1030.75,-167.59 1019.38,-158.35"/>
<polygon fill="midnightblue" stroke="midnightblue" points="1054.41,-192.17 1064.38,-195.76 1058.83,-186.74 1054.41,-192.17"/>
</g>
<!-- Node9&#45;&gt;Node10 -->
<g id="edge12" class="edge">
<title>Node9&#45;&gt;Node10</title>
<path fill="none" stroke="midnightblue" d="M1588.48,-117.68C1582.27,-108.23 1575.33,-97.65 1569.86,-89.33"/>
<polygon fill="midnightblue" stroke="midnightblue" points="1585.95,-119.19 1594.36,-125.63 1591.8,-115.35 1585.95,-119.19"/>
</g>
<!-- Node10&#45;&gt;Node3 -->
<g id="edge13" class="edge">
<title>Node10&#45;&gt;Node3</title>
<path fill="none" stroke="midnightblue" d="M1476.94,-56.95C1269.09,-29.77 1033.42,-17.34 940.58,-13.18"/>
<polygon fill="midnightblue" stroke="midnightblue" points="1476.38,-60.54 1486.76,-58.38 1477.3,-53.6 1476.38,-60.54"/>
</g>
<!-- Node11&#45;&gt;Node12 -->
<g id="edge15" class="edge">
<title>Node11&#45;&gt;Node12</title>
<path fill="none" stroke="midnightblue" d="M1385.48,-122.54C1389.56,-112.04 1394.55,-99.18 1398.34,-89.41"/>
<polygon fill="midnightblue" stroke="midnightblue" points="1381.88,-121.15 1381.52,-131.74 1388.4,-123.68 1381.88,-121.15"/>
</g>
<!-- Node11&#45;&gt;Node13 -->
<g id="edge17" class="edge">
<title>Node11&#45;&gt;Node13</title>
<path fill="none" stroke="midnightblue" d="M1351.82,-127.51C1330.82,-116.35 1301.46,-100.73 1280.04,-89.34"/>
<polygon fill="midnightblue" stroke="midnightblue" points="1349.92,-131 1360.39,-132.6 1353.21,-124.82 1349.92,-131"/>
</g>
<!-- Node12&#45;&gt;Node3 -->
<g id="edge16" class="edge">
<title>Node12&#45;&gt;Node3</title>
<path fill="none" stroke="midnightblue" d="M1328.54,-56.85C1179.79,-33.94 1015.27,-20.08 940.62,-14.41"/>
<polygon fill="midnightblue" stroke="midnightblue" points="1327.8,-60.44 1338.22,-58.52 1328.88,-53.52 1327.8,-60.44"/>
</g>
<!-- Node13&#45;&gt;Node3 -->
<g id="edge18" class="edge">
<title>Node13&#45;&gt;Node3</title>
<path fill="none" stroke="midnightblue" d="M1172.45,-56.73C1083.81,-40.69 992.02,-25.92 940.58,-17.81"/>
<polygon fill="midnightblue" stroke="midnightblue" points="1171.78,-60.34 1182.24,-58.69 1173.03,-53.46 1171.78,-60.34"/>
</g>
<!-- Node14&#45;&gt;Node15 -->
<g id="edge20" class="edge">
<title>Node14&#45;&gt;Node15</title>
<path fill="none" stroke="midnightblue" d="M365.81,-119.15C375.77,-109.33 387.19,-98.08 396.08,-89.33"/>
<polygon fill="midnightblue" stroke="midnightblue" points="363.88,-116.12 359.22,-125.63 368.8,-121.11 363.88,-116.12"/>
</g>
<!-- Node15&#45;&gt;Node3 -->
<g id="edge21" class="edge">
<title>Node15&#45;&gt;Node3</title>
<path fill="none" stroke="midnightblue" d="M486.73,-56.84C629.59,-34.56 786.95,-20.51 859.6,-14.63"/>
<polygon fill="midnightblue" stroke="midnightblue" points="486.36,-53.52 477.03,-58.53 487.45,-60.43 486.36,-53.52"/>
</g>
<!-- Node16&#45;&gt;Node17 -->
<g id="edge23" class="edge">
<title>Node16&#45;&gt;Node17</title>
<path fill="none" stroke="midnightblue" d="M555.12,-123.03C560.69,-110.16 567.88,-93.55 572.24,-83.48"/>
<polygon fill="midnightblue" stroke="midnightblue" points="551.68,-121.17 550.92,-131.74 558.1,-123.95 551.68,-121.17"/>
</g>
<!-- Node17&#45;&gt;Node3 -->
<g id="edge24" class="edge">
<title>Node17&#45;&gt;Node3</title>
<path fill="none" stroke="midnightblue" d="M634.07,-61.59C699.09,-49.35 802.89,-29.81 859.71,-19.11"/>
<polygon fill="midnightblue" stroke="midnightblue" points="633.76,-58.27 624.58,-63.56 635.06,-65.15 633.76,-58.27"/>
</g>
<!-- Node18&#45;&gt;Node19 -->
<g id="edge26" class="edge">
<title>Node18&#45;&gt;Node19</title>
<path fill="none" stroke="midnightblue" d="M744.12,-115.89C744.12,-106.91 744.12,-97.13 744.12,-89.33"/>
<polygon fill="midnightblue" stroke="midnightblue" points="740.63,-115.63 744.12,-125.63 747.63,-115.63 740.63,-115.63"/>
</g>
<!-- Node19&#45;&gt;Node3 -->
<g id="edge27" class="edge">
<title>Node19&#45;&gt;Node3</title>
<path fill="none" stroke="midnightblue" d="M792.4,-53.62C820.7,-42.56 855.13,-29.1 877.33,-20.42"/>
<polygon fill="midnightblue" stroke="midnightblue" points="791.33,-50.68 783.29,-57.58 793.87,-57.2 791.33,-50.68"/>
</g>
<!-- Node20&#45;&gt;Node21 -->
<g id="edge29" class="edge">
<title>Node20&#45;&gt;Node21</title>
<path fill="none" stroke="midnightblue" d="M1126.43,-119.44C1115.37,-109.56 1102.62,-98.17 1092.72,-89.33"/>
<polygon fill="midnightblue" stroke="midnightblue" points="1123.69,-121.58 1133.48,-125.63 1128.35,-116.36 1123.69,-121.58"/>
</g>
<!-- Node21&#45;&gt;Node3 -->
<g id="edge30" class="edge">
<title>Node21&#45;&gt;Node3</title>
<path fill="none" stroke="midnightblue" d="M1022.92,-54.06C990.76,-42.91 951.22,-29.21 925.85,-20.42"/>
<polygon fill="midnightblue" stroke="midnightblue" points="1021.48,-57.61 1032.07,-57.58 1023.77,-51 1021.48,-57.61"/>
</g>
<!-- Node22&#45;&gt;Node23 -->
<g id="edge32" class="edge">
<title>Node22&#45;&gt;Node23</title>
<path fill="none" stroke="midnightblue" d="M1750.95,-116.19C1748.38,-107.13 1745.57,-97.21 1743.33,-89.33"/>
<polygon fill="midnightblue" stroke="midnightblue" points="1747.81,-116.96 1753.91,-125.63 1754.55,-115.05 1747.81,-116.96"/>
</g>
<!-- Node23&#45;&gt;Node3 -->
<g id="edge33" class="edge">
<title>Node23&#45;&gt;Node3</title>
<path fill="none" stroke="midnightblue" d="M1660,-59.21C1653.96,-58.39 1647.95,-57.64 1642.12,-57 1375.3,-27.57 1052.23,-15.93 940.46,-12.6"/>
<polygon fill="midnightblue" stroke="midnightblue" points="1659.48,-62.81 1669.88,-60.74 1660.46,-55.88 1659.48,-62.81"/>
</g>
<!-- Node25 -->
<g id="node25" class="node">
<title>Node25</title>
<g id="a_node25"><a xlink:href="_vertex_wave_scene_8h.html" target="_top" xlink:title=" ">
<polygon fill="none" stroke="black" points="831,-57.5 831,-89.5 969.25,-89.5 969.25,-57.5 831,-57.5"/>
<text text-anchor="start" x="839" y="-76" font-family="Helvetica,sans-Serif" font-size="10.00">include/Scenes/VertexWave</text>
<text text-anchor="middle" x="900.12" y="-64" font-family="Helvetica,sans-Serif" font-size="10.00">Scene.h</text>
</a>
</g>
</g>
<!-- Node24&#45;&gt;Node25 -->
<g id="edge35" class="edge">
<title>Node24&#45;&gt;Node25</title>
<path fill="none" stroke="midnightblue" d="M969.61,-120.59C954.32,-110.45 936.33,-98.51 922.48,-89.33"/>
<polygon fill="midnightblue" stroke="midnightblue" points="967.44,-124.02 977.71,-126.63 971.31,-118.19 967.44,-124.02"/>
</g>
<!-- Node25&#45;&gt;Node3 -->
<g id="edge36" class="edge">
<title>Node25&#45;&gt;Node3</title>
<path fill="none" stroke="midnightblue" d="M900.12,-46.77C900.12,-37.31 900.12,-27.24 900.12,-20.28"/>
<polygon fill="midnightblue" stroke="midnightblue" points="896.63,-46.73 900.12,-56.73 903.63,-46.73 896.63,-46.73"/>
</g>
<!-- Node26&#45;&gt;Node8 -->
<g id="edge46" class="edge">
<title>Node26&#45;&gt;Node8</title>
<path fill="none" stroke="midnightblue" d="M681.14,-251.29C784.56,-239.56 950.26,-220.77 1030.13,-211.72"/>
<polygon fill="midnightblue" stroke="midnightblue" points="680.94,-247.91 671.4,-252.51 681.73,-254.86 680.94,-247.91"/>
</g>
<!-- Node27&#45;&gt;Node2 -->
<g id="edge48" class="edge">
<title>Node27&#45;&gt;Node2</title>
<path fill="none" stroke="midnightblue" d="M835.78,-129.59C830.57,-128.2 825.24,-126.94 820.12,-126 608.42,-87.03 548.93,-128.42 337.12,-90 328.45,-88.43 319.16,-85.98 310.83,-83.5"/>
<polygon fill="midnightblue" stroke="midnightblue" points="834.63,-133.19 845.21,-132.58 836.56,-126.46 834.63,-133.19"/>
</g>
<!-- Node27&#45;&gt;Node10 -->
<g id="edge56" class="edge">
<title>Node27&#45;&gt;Node10</title>
<path fill="none" stroke="midnightblue" d="M908.46,-129.55C913.67,-128.16 919,-126.92 924.12,-126 1167,-82.48 1233.34,-120.97 1478.12,-90 1481.29,-89.6 1484.51,-89.15 1487.76,-88.67"/>
<polygon fill="midnightblue" stroke="midnightblue" points="907.69,-126.41 899.04,-132.53 909.61,-133.14 907.69,-126.41"/>
</g>
<!-- Node27&#45;&gt;Node12 -->
<g id="edge52" class="edge">
<title>Node27&#45;&gt;Node12</title>
<path fill="none" stroke="midnightblue" d="M908.65,-129.61C913.81,-128.23 919.07,-126.97 924.12,-126 1102.05,-91.95 1150.94,-116.62 1330.12,-90 1333.11,-89.56 1336.16,-89.07 1339.23,-88.54"/>
<polygon fill="midnightblue" stroke="midnightblue" points="907.97,-126.45 899.32,-132.57 909.9,-133.18 907.97,-126.45"/>
</g>
<!-- Node27&#45;&gt;Node13 -->
<g id="edge55" class="edge">
<title>Node27&#45;&gt;Node13</title>
<path fill="none" stroke="midnightblue" d="M909.76,-129.57C914.57,-128.26 919.44,-127.03 924.12,-126 1033.77,-101.9 1063.48,-108.95 1174.12,-90 1177.12,-89.49 1180.17,-88.95 1183.26,-88.39"/>
<polygon fill="midnightblue" stroke="midnightblue" points="909.1,-126.41 900.46,-132.53 911.03,-133.14 909.1,-126.41"/>
</g>
<!-- Node27&#45;&gt;Node15 -->
<g id="edge51" class="edge">
<title>Node27&#45;&gt;Node15</title>
<path fill="none" stroke="midnightblue" d="M834.85,-129.5C829.93,-128.18 824.93,-126.97 820.12,-126 673.32,-96.49 633.03,-113.38 485.12,-90 482.14,-89.53 479.1,-89.02 476.03,-88.48"/>
<polygon fill="midnightblue" stroke="midnightblue" points="833.8,-133.13 844.37,-132.51 835.72,-126.39 833.8,-133.13"/>
</g>
<!-- Node27&#45;&gt;Node17 -->
<g id="edge50" class="edge">
<title>Node27&#45;&gt;Node17</title>
<path fill="none" stroke="midnightblue" d="M833.39,-129.58C828.93,-128.32 824.44,-127.1 820.12,-126 752.57,-108.83 673.48,-92.89 624.08,-83.42"/>
<polygon fill="midnightblue" stroke="midnightblue" points="832.05,-133.12 842.63,-132.55 834.01,-126.4 832.05,-133.12"/>
</g>
<!-- Node27&#45;&gt;Node19 -->
<g id="edge53" class="edge">
<title>Node27&#45;&gt;Node19</title>
<path fill="none" stroke="midnightblue" d="M845.41,-127.51C824.07,-116.35 794.24,-100.73 772.48,-89.34"/>
<polygon fill="midnightblue" stroke="midnightblue" points="843.64,-131.07 854.13,-132.6 846.89,-124.86 843.64,-131.07"/>
</g>
<!-- Node27&#45;&gt;Node21 -->
<g id="edge49" class="edge">
<title>Node27&#45;&gt;Node21</title>
<path fill="none" stroke="midnightblue" d="M909.23,-129.31C943.34,-118.11 993.99,-101.48 1030.54,-89.47"/>
<polygon fill="midnightblue" stroke="midnightblue" points="908.62,-126.16 900.21,-132.6 910.81,-132.81 908.62,-126.16"/>
</g>
<!-- Node27&#45;&gt;Node23 -->
<g id="edge54" class="edge">
<title>Node27&#45;&gt;Node23</title>
<path fill="none" stroke="midnightblue" d="M908.28,-129.52C913.55,-128.13 918.94,-126.89 924.12,-126 1239.04,-71.98 1324.35,-123.26 1642.12,-90 1651.45,-89.02 1661.25,-87.75 1670.89,-86.36"/>
<polygon fill="midnightblue" stroke="midnightblue" points="907.41,-126.42 898.76,-132.53 909.33,-133.15 907.41,-126.42"/>
</g>
<!-- Node27&#45;&gt;Node25 -->
<g id="edge57" class="edge">
<title>Node27&#45;&gt;Node25</title>
<path fill="none" stroke="midnightblue" d="M879.91,-122.87C884.32,-112.31 889.77,-99.28 893.89,-89.41"/>
<polygon fill="midnightblue" stroke="midnightblue" points="876.41,-121.16 875.79,-131.74 882.87,-123.86 876.41,-121.16"/>
</g>
</g>
</svg>
