<?xml version="1.0" encoding="UTF-8" standalone="no"?>
<!DOCTYPE svg PUBLIC "-//W3C//DTD SVG 1.1//EN"
 "http://www.w3.org/Graphics/SVG/1.1/DTD/svg11.dtd">
<!-- Generated by graphviz version 8.1.0 (20230707.0739)
 -->
<!-- Title: include/IndexedTriangleList.h Pages: 1 -->
<svg width="637pt" height="281pt"
 viewBox="0.00 0.00 636.85 281.00" xmlns="http://www.w3.org/2000/svg" xmlns:xlink="http://www.w3.org/1999/xlink">
<g id="graph0" class="graph" transform="scale(1 1) rotate(0) translate(4 277)">
<title>include/IndexedTriangleList.h</title>
<!-- Node1 -->
<g id="node1" class="node">
<title>Node1</title>
<g id="a_node1"><a xlink:title=" ">
<polygon fill="#bfbfbf" stroke="black" points="318.75,-252.5 318.75,-272.5 460,-272.5 460,-252.5 318.75,-252.5"/>
<text text-anchor="middle" x="389.38" y="-259" font-family="Helvetica,sans-Serif" font-size="10.00">include/IndexedTriangleList.h</text>
</a>
</g>
</g>
<!-- Node2 -->
<g id="node2" class="node">
<title>Node2</title>
<g id="a_node2"><a xlink:href="_cube_8h.html" target="_top" xlink:title=" ">
<polygon fill="none" stroke="black" points="386.12,-132.5 386.12,-152.5 466.62,-152.5 466.62,-132.5 386.12,-132.5"/>
<text text-anchor="middle" x="426.38" y="-139" font-family="Helvetica,sans-Serif" font-size="10.00">include/Cube.h</text>
</a>
</g>
</g>
<!-- Node1&#45;&gt;Node2 -->
<g id="edge1" class="edge">
<title>Node1&#45;&gt;Node2</title>
<path fill="none" stroke="midnightblue" d="M397.42,-242.65C400.73,-234.53 404.47,-224.88 407.38,-216 414.83,-193.25 421.38,-165.75 424.48,-152.08"/>
<polygon fill="midnightblue" stroke="midnightblue" points="393.91,-240.98 393.29,-251.55 400.37,-243.67 393.91,-240.98"/>
</g>
<!-- Node7 -->
<g id="node7" class="node">
<title>Node7</title>
<g id="a_node7"><a xlink:href="_pipeline_8h.html" target="_top" xlink:title=" ">
<polygon fill="none" stroke="black" points="306.12,-195.5 306.12,-215.5 398.62,-215.5 398.62,-195.5 306.12,-195.5"/>
<text text-anchor="middle" x="352.38" y="-202" font-family="Helvetica,sans-Serif" font-size="10.00">include/Pipeline.h</text>
</a>
</g>
</g>
<!-- Node1&#45;&gt;Node7 -->
<g id="edge8" class="edge">
<title>Node1&#45;&gt;Node7</title>
<path fill="none" stroke="midnightblue" d="M377.49,-243.83C371.06,-234.27 363.39,-222.88 358.24,-215.21"/>
<polygon fill="midnightblue" stroke="midnightblue" points="375.11,-245.56 383.59,-251.91 380.92,-241.66 375.11,-245.56"/>
</g>
<!-- Node3 -->
<g id="node3" class="node">
<title>Node3</title>
<g id="a_node3"><a xlink:href="_cube_skin_scene_8h.html" target="_top" xlink:title=" ">
<polygon fill="none" stroke="black" points="100.5,-63.5 100.5,-83.5 264.25,-83.5 264.25,-63.5 100.5,-63.5"/>
<text text-anchor="middle" x="182.38" y="-70" font-family="Helvetica,sans-Serif" font-size="10.00">include/Scenes/CubeSkinScene.h</text>
</a>
</g>
</g>
<!-- Node2&#45;&gt;Node3 -->
<g id="edge2" class="edge">
<title>Node2&#45;&gt;Node3</title>
<path fill="none" stroke="midnightblue" d="M383.31,-129.68C335.14,-116.45 258.2,-95.32 214.84,-83.41"/>
<polygon fill="midnightblue" stroke="midnightblue" points="382.15,-133.26 392.72,-132.53 384,-126.51 382.15,-133.26"/>
</g>
<!-- Node5 -->
<g id="node5" class="node">
<title>Node5</title>
<g id="a_node5"><a xlink:href="_cube_solid_scene_8h.html" target="_top" xlink:title=" ">
<polygon fill="none" stroke="black" points="293.38,-57.5 293.38,-89.5 423.38,-89.5 423.38,-57.5 293.38,-57.5"/>
<text text-anchor="start" x="301.38" y="-76" font-family="Helvetica,sans-Serif" font-size="10.00">include/Scenes/CubeSolid</text>
<text text-anchor="middle" x="358.38" y="-64" font-family="Helvetica,sans-Serif" font-size="10.00">Scene.h</text>
</a>
</g>
</g>
<!-- Node2&#45;&gt;Node5 -->
<g id="edge4" class="edge">
<title>Node2&#45;&gt;Node5</title>
<path fill="none" stroke="midnightblue" d="M409.79,-125.16C398.72,-114.25 384.27,-100.01 373.51,-89.41"/>
<polygon fill="midnightblue" stroke="midnightblue" points="406.91,-127.22 416.49,-131.74 411.82,-122.23 406.91,-127.22"/>
</g>
<!-- Node6 -->
<g id="node6" class="node">
<title>Node6</title>
<g id="a_node6"><a xlink:href="_cube_vertex_color_scene_8h.html" target="_top" xlink:title=" ">
<polygon fill="none" stroke="black" points="461,-57.5 461,-89.5 597.75,-89.5 597.75,-57.5 461,-57.5"/>
<text text-anchor="start" x="469" y="-76" font-family="Helvetica,sans-Serif" font-size="10.00">include/Scenes/CubeVertex</text>
<text text-anchor="middle" x="529.38" y="-64" font-family="Helvetica,sans-Serif" font-size="10.00">ColorScene.h</text>
</a>
</g>
</g>
<!-- Node2&#45;&gt;Node6 -->
<g id="edge6" class="edge">
<title>Node2&#45;&gt;Node6</title>
<path fill="none" stroke="midnightblue" d="M448.59,-127.05C465.67,-115.94 489.2,-100.63 506.46,-89.41"/>
<polygon fill="midnightblue" stroke="midnightblue" points="447.31,-124.35 440.84,-132.74 451.13,-130.22 447.31,-124.35"/>
</g>
<!-- Node4 -->
<g id="node4" class="node">
<title>Node4</title>
<g id="a_node4"><a xlink:href="_engine_8cpp.html" target="_top" xlink:title=" ">
<polygon fill="none" stroke="black" points="317.75,-0.5 317.75,-20.5 399,-20.5 399,-0.5 317.75,-0.5"/>
<text text-anchor="middle" x="358.38" y="-7" font-family="Helvetica,sans-Serif" font-size="10.00">src/Engine.cpp</text>
</a>
</g>
</g>
<!-- Node3&#45;&gt;Node4 -->
<g id="edge3" class="edge">
<title>Node3&#45;&gt;Node4</title>
<path fill="none" stroke="midnightblue" d="M217.93,-60.18C251.86,-48.42 302.17,-30.98 332.47,-20.48"/>
<polygon fill="midnightblue" stroke="midnightblue" points="217.27,-57.05 208.97,-63.63 219.56,-63.66 217.27,-57.05"/>
</g>
<!-- Node5&#45;&gt;Node4 -->
<g id="edge5" class="edge">
<title>Node5&#45;&gt;Node4</title>
<path fill="none" stroke="midnightblue" d="M358.38,-46.77C358.38,-37.31 358.38,-27.24 358.38,-20.28"/>
<polygon fill="midnightblue" stroke="midnightblue" points="354.88,-46.73 358.38,-56.73 361.88,-46.73 354.88,-46.73"/>
</g>
<!-- Node6&#45;&gt;Node4 -->
<g id="edge7" class="edge">
<title>Node6&#45;&gt;Node4</title>
<path fill="none" stroke="midnightblue" d="M477.27,-53.91C446.11,-42.8 407.91,-29.17 383.37,-20.42"/>
<polygon fill="midnightblue" stroke="midnightblue" points="475.95,-57.51 486.54,-57.58 478.3,-50.92 475.95,-57.51"/>
</g>
<!-- Node7&#45;&gt;Node3 -->
<g id="edge15" class="edge">
<title>Node7&#45;&gt;Node3</title>
<path fill="none" stroke="midnightblue" d="M295.75,-195.72C254.32,-188.05 203.06,-175.56 189.38,-159 171.28,-137.1 176.49,-100.19 180.15,-83.35"/>
<polygon fill="midnightblue" stroke="midnightblue" points="294.85,-199.29 305.31,-197.61 296.09,-192.4 294.85,-199.29"/>
</g>
<!-- Node7&#45;&gt;Node5 -->
<g id="edge16" class="edge">
<title>Node7&#45;&gt;Node5</title>
<path fill="none" stroke="midnightblue" d="M353.29,-184.73C354.5,-158.49 356.61,-112.74 357.69,-89.29"/>
<polygon fill="midnightblue" stroke="midnightblue" points="349.75,-184.41 352.79,-194.56 356.74,-184.74 349.75,-184.41"/>
</g>
<!-- Node7&#45;&gt;Node6 -->
<g id="edge17" class="edge">
<title>Node7&#45;&gt;Node6</title>
<path fill="none" stroke="midnightblue" d="M409.15,-203.22C480.13,-200.28 595.63,-190.63 622.38,-159 631.85,-147.8 629.82,-138.64 622.38,-126 612.44,-109.15 594.79,-97.42 577.51,-89.46"/>
<polygon fill="midnightblue" stroke="midnightblue" points="409.44,-199.75 399.58,-203.62 409.71,-206.74 409.44,-199.75"/>
</g>
<!-- Node8 -->
<g id="node8" class="node">
<title>Node8</title>
<g id="a_node8"><a xlink:href="_solid_effect_8h.html" target="_top" xlink:title=" ">
<polygon fill="none" stroke="black" points="198.25,-132.5 198.25,-152.5 330.5,-152.5 330.5,-132.5 198.25,-132.5"/>
<text text-anchor="middle" x="264.38" y="-139" font-family="Helvetica,sans-Serif" font-size="10.00">include/Effect/SolidEffect.h</text>
</a>
</g>
</g>
<!-- Node7&#45;&gt;Node8 -->
<g id="edge9" class="edge">
<title>Node7&#45;&gt;Node8</title>
<path fill="none" stroke="midnightblue" d="M331.15,-189.79C314.33,-178.13 291.39,-162.23 277.25,-152.42"/>
<polygon fill="midnightblue" stroke="midnightblue" points="328.55,-192.94 338.77,-195.76 332.54,-187.19 328.55,-192.94"/>
</g>
<!-- Node9 -->
<g id="node9" class="node">
<title>Node9</title>
<g id="a_node9"><a xlink:href="_texture_effect_8h.html" target="_top" xlink:title=" ">
<polygon fill="none" stroke="black" points="0,-132.5 0,-152.5 142.75,-152.5 142.75,-132.5 0,-132.5"/>
<text text-anchor="middle" x="71.38" y="-139" font-family="Helvetica,sans-Serif" font-size="10.00">include/Effect/TextureEffect.h</text>
</a>
</g>
</g>
<!-- Node7&#45;&gt;Node9 -->
<g id="edge11" class="edge">
<title>Node7&#45;&gt;Node9</title>
<path fill="none" stroke="midnightblue" d="M300.8,-193.3C246.65,-181.55 162.57,-163.3 112.65,-152.46"/>
<polygon fill="midnightblue" stroke="midnightblue" points="299.7,-196.86 310.21,-195.56 301.18,-190.02 299.7,-196.86"/>
</g>
<!-- Node10 -->
<g id="node10" class="node">
<title>Node10</title>
<g id="a_node10"><a xlink:href="_vertex_color_effect_8h.html" target="_top" xlink:title=" ">
<polygon fill="none" stroke="black" points="485.12,-126.5 485.12,-158.5 613.62,-158.5 613.62,-126.5 485.12,-126.5"/>
<text text-anchor="start" x="493.12" y="-145" font-family="Helvetica,sans-Serif" font-size="10.00">include/Effect/VertexColor</text>
<text text-anchor="middle" x="549.38" y="-133" font-family="Helvetica,sans-Serif" font-size="10.00">Effect.h</text>
</a>
</g>
</g>
<!-- Node7&#45;&gt;Node10 -->
<g id="edge13" class="edge">
<title>Node7&#45;&gt;Node10</title>
<path fill="none" stroke="midnightblue" d="M391.18,-192.48C422.74,-182.71 467.42,-168.88 501.25,-158.4"/>
<polygon fill="midnightblue" stroke="midnightblue" points="390.54,-189.33 382.02,-195.63 392.61,-196.02 390.54,-189.33"/>
</g>
<!-- Node8&#45;&gt;Node5 -->
<g id="edge10" class="edge">
<title>Node8&#45;&gt;Node5</title>
<path fill="none" stroke="midnightblue" d="M285.52,-126.43C301.03,-115.37 322,-100.43 337.46,-89.41"/>
<polygon fill="midnightblue" stroke="midnightblue" points="283.78,-124.09 277.66,-132.74 287.84,-129.79 283.78,-124.09"/>
</g>
<!-- Node9&#45;&gt;Node3 -->
<g id="edge12" class="edge">
<title>Node9&#45;&gt;Node3</title>
<path fill="none" stroke="midnightblue" d="M95.18,-127.13C117.12,-113.89 148.99,-94.65 167.51,-83.48"/>
<polygon fill="midnightblue" stroke="midnightblue" points="93.64,-124.58 86.89,-132.74 97.26,-130.57 93.64,-124.58"/>
</g>
<!-- Node10&#45;&gt;Node6 -->
<g id="edge14" class="edge">
<title>Node10&#45;&gt;Node6</title>
<path fill="none" stroke="midnightblue" d="M541.82,-116.19C539.12,-107.13 536.16,-97.21 533.8,-89.33"/>
<polygon fill="midnightblue" stroke="midnightblue" points="538.72,-117.05 544.94,-125.63 545.43,-115.05 538.72,-117.05"/>
</g>
</g>
</svg>
