<?xml version="1.0" encoding="UTF-8" standalone="no"?>
<!DOCTYPE svg PUBLIC "-//W3C//DTD SVG 1.1//EN"
 "http://www.w3.org/Graphics/SVG/1.1/DTD/svg11.dtd">
<!-- Generated by graphviz version 8.1.0 (20230707.0739)
 -->
<!-- Title: include/IndexedTriangleList.h Pages: 1 -->
<svg width="697pt" height="281pt"
 viewBox="0.00 0.00 696.62 281.00" xmlns="http://www.w3.org/2000/svg" xmlns:xlink="http://www.w3.org/1999/xlink">
<g id="graph0" class="graph" transform="scale(1 1) rotate(0) translate(4 277)">
<title>include/IndexedTriangleList.h</title>
<!-- Node1 -->
<g id="node1" class="node">
<title>Node1</title>
<g id="a_node1"><a xlink:title=" ">
<polygon fill="#bfbfbf" stroke="black" points="248.75,-252.5 248.75,-272.5 390,-272.5 390,-252.5 248.75,-252.5"/>
<text text-anchor="middle" x="319.38" y="-259" font-family="Helvetica,sans-Serif" font-size="10.00">include/IndexedTriangleList.h</text>
</a>
</g>
</g>
<!-- Node2 -->
<g id="node2" class="node">
<title>Node2</title>
<g id="a_node2"><a xlink:href="_cube_8h.html" target="_top" xlink:title=" ">
<polygon fill="none" stroke="black" points="198.12,-132.5 198.12,-152.5 278.62,-152.5 278.62,-132.5 198.12,-132.5"/>
<text text-anchor="middle" x="238.38" y="-139" font-family="Helvetica,sans-Serif" font-size="10.00">include/Cube.h</text>
</a>
</g>
</g>
<!-- Node1&#45;&gt;Node2 -->
<g id="edge1" class="edge">
<title>Node1&#45;&gt;Node2</title>
<path fill="none" stroke="midnightblue" d="M307.11,-243.63C289.54,-218.04 257.85,-171.87 244.53,-152.47"/>
<polygon fill="midnightblue" stroke="midnightblue" points="304.74,-245.37 313.29,-251.63 310.51,-241.41 304.74,-245.37"/>
</g>
<!-- Node8 -->
<g id="node8" class="node">
<title>Node8</title>
<g id="a_node8"><a xlink:href="_pipeline_8h.html" target="_top" xlink:title=" ">
<polygon fill="none" stroke="black" points="332.12,-195.5 332.12,-215.5 424.62,-215.5 424.62,-195.5 332.12,-195.5"/>
<text text-anchor="middle" x="378.38" y="-202" font-family="Helvetica,sans-Serif" font-size="10.00">include/Pipeline.h</text>
</a>
</g>
</g>
<!-- Node1&#45;&gt;Node8 -->
<g id="edge10" class="edge">
<title>Node1&#45;&gt;Node8</title>
<path fill="none" stroke="midnightblue" d="M336.89,-245.17C347.3,-235.46 360.12,-223.52 368.72,-215.5"/>
<polygon fill="midnightblue" stroke="midnightblue" points="334.78,-242.28 329.85,-251.66 339.56,-247.4 334.78,-242.28"/>
</g>
<!-- Node3 -->
<g id="node3" class="node">
<title>Node3</title>
<g id="a_node3"><a xlink:href="_cube_skin_scene_8h.html" target="_top" xlink:title=" ">
<polygon fill="none" stroke="black" points="30.5,-63.5 30.5,-83.5 194.25,-83.5 194.25,-63.5 30.5,-63.5"/>
<text text-anchor="middle" x="112.38" y="-70" font-family="Helvetica,sans-Serif" font-size="10.00">include/Scenes/CubeSkinScene.h</text>
</a>
</g>
</g>
<!-- Node2&#45;&gt;Node3 -->
<g id="edge2" class="edge">
<title>Node2&#45;&gt;Node3</title>
<path fill="none" stroke="midnightblue" d="M212.07,-127.51C187.13,-114.25 150.39,-94.71 129.18,-83.43"/>
<polygon fill="midnightblue" stroke="midnightblue" points="210.17,-131 220.64,-132.6 213.46,-124.82 210.17,-131"/>
</g>
<!-- Node5 -->
<g id="node5" class="node">
<title>Node5</title>
<g id="a_node5"><a xlink:href="_cube_solid_scene_8h.html" target="_top" xlink:title=" ">
<polygon fill="none" stroke="black" points="212.38,-57.5 212.38,-89.5 342.38,-89.5 342.38,-57.5 212.38,-57.5"/>
<text text-anchor="start" x="220.38" y="-76" font-family="Helvetica,sans-Serif" font-size="10.00">include/Scenes/CubeSolid</text>
<text text-anchor="middle" x="277.38" y="-64" font-family="Helvetica,sans-Serif" font-size="10.00">Scene.h</text>
</a>
</g>
</g>
<!-- Node2&#45;&gt;Node5 -->
<g id="edge4" class="edge">
<title>Node2&#45;&gt;Node5</title>
<path fill="none" stroke="midnightblue" d="M248.83,-123.53C255.04,-112.86 262.83,-99.49 268.7,-89.41"/>
<polygon fill="midnightblue" stroke="midnightblue" points="245.48,-121.34 243.47,-131.74 251.53,-124.86 245.48,-121.34"/>
</g>
<!-- Node6 -->
<g id="node6" class="node">
<title>Node6</title>
<g id="a_node6"><a xlink:href="_cube_vertex_color_scene_8h.html" target="_top" xlink:title=" ">
<polygon fill="none" stroke="black" points="517,-57.5 517,-89.5 653.75,-89.5 653.75,-57.5 517,-57.5"/>
<text text-anchor="start" x="525" y="-76" font-family="Helvetica,sans-Serif" font-size="10.00">include/Scenes/CubeVertex</text>
<text text-anchor="middle" x="585.38" y="-64" font-family="Helvetica,sans-Serif" font-size="10.00">ColorScene.h</text>
</a>
</g>
</g>
<!-- Node2&#45;&gt;Node6 -->
<g id="edge6" class="edge">
<title>Node2&#45;&gt;Node6</title>
<path fill="none" stroke="midnightblue" d="M289.18,-131.88C343.28,-121.62 431.4,-104.82 507.38,-90 510.63,-89.37 513.96,-88.71 517.32,-88.05"/>
<polygon fill="midnightblue" stroke="midnightblue" points="288.67,-128.61 279.5,-133.91 289.97,-135.48 288.67,-128.61"/>
</g>
<!-- Node7 -->
<g id="node7" class="node">
<title>Node7</title>
<g id="a_node7"><a xlink:href="_double_cube_scene_8h.html" target="_top" xlink:title=" ">
<polygon fill="none" stroke="black" points="360.25,-57.5 360.25,-89.5 498.5,-89.5 498.5,-57.5 360.25,-57.5"/>
<text text-anchor="start" x="368.25" y="-76" font-family="Helvetica,sans-Serif" font-size="10.00">include/Scenes/DoubleCube</text>
<text text-anchor="middle" x="429.38" y="-64" font-family="Helvetica,sans-Serif" font-size="10.00">Scene.h</text>
</a>
</g>
</g>
<!-- Node2&#45;&gt;Node7 -->
<g id="edge8" class="edge">
<title>Node2&#45;&gt;Node7</title>
<path fill="none" stroke="midnightblue" d="M273.95,-129.02C305.86,-117.83 352.77,-101.37 386.7,-89.47"/>
<polygon fill="midnightblue" stroke="midnightblue" points="273.02,-125.99 264.74,-132.6 275.33,-132.6 273.02,-125.99"/>
</g>
<!-- Node4 -->
<g id="node4" class="node">
<title>Node4</title>
<g id="a_node4"><a xlink:href="_engine_8cpp.html" target="_top" xlink:title=" ">
<polygon fill="none" stroke="black" points="312.75,-0.5 312.75,-20.5 394,-20.5 394,-0.5 312.75,-0.5"/>
<text text-anchor="middle" x="353.38" y="-7" font-family="Helvetica,sans-Serif" font-size="10.00">src/Engine.cpp</text>
</a>
</g>
</g>
<!-- Node3&#45;&gt;Node4 -->
<g id="edge3" class="edge">
<title>Node3&#45;&gt;Node4</title>
<path fill="none" stroke="midnightblue" d="M158.07,-60.93C204.55,-49.17 275.6,-31.18 317.98,-20.46"/>
<polygon fill="midnightblue" stroke="midnightblue" points="157.51,-57.72 148.68,-63.56 159.23,-64.5 157.51,-57.72"/>
</g>
<!-- Node5&#45;&gt;Node4 -->
<g id="edge5" class="edge">
<title>Node5&#45;&gt;Node4</title>
<path fill="none" stroke="midnightblue" d="M304.07,-51.07C317.26,-40.49 332.44,-28.31 342.43,-20.28"/>
<polygon fill="midnightblue" stroke="midnightblue" points="302.38,-48.74 296.77,-57.73 306.76,-54.2 302.38,-48.74"/>
</g>
<!-- Node6&#45;&gt;Node4 -->
<g id="edge7" class="edge">
<title>Node6&#45;&gt;Node4</title>
<path fill="none" stroke="midnightblue" d="M518.25,-54.85C475.34,-43.57 421.52,-29.42 387.28,-20.42"/>
<polygon fill="midnightblue" stroke="midnightblue" points="517.06,-58.42 527.62,-57.58 518.84,-51.65 517.06,-58.42"/>
</g>
<!-- Node7&#45;&gt;Node4 -->
<g id="edge9" class="edge">
<title>Node7&#45;&gt;Node4</title>
<path fill="none" stroke="midnightblue" d="M402.68,-51.07C389.49,-40.49 374.31,-28.31 364.32,-20.28"/>
<polygon fill="midnightblue" stroke="midnightblue" points="399.99,-54.2 409.98,-57.73 404.37,-48.74 399.99,-54.2"/>
</g>
<!-- Node8&#45;&gt;Node3 -->
<g id="edge18" class="edge">
<title>Node8&#45;&gt;Node3</title>
<path fill="none" stroke="midnightblue" d="M321.66,-199.68C282.3,-194.3 229.87,-182.95 189.38,-159 172.29,-148.9 134.9,-103.01 119.36,-83.41"/>
<polygon fill="midnightblue" stroke="midnightblue" points="321.04,-203.26 331.4,-201.05 321.92,-196.32 321.04,-203.26"/>
</g>
<!-- Node8&#45;&gt;Node5 -->
<g id="edge19" class="edge">
<title>Node8&#45;&gt;Node5</title>
<path fill="none" stroke="midnightblue" d="M357.4,-189.26C346.98,-181.05 334.68,-170.29 325.38,-159 307.14,-136.86 291.96,-106.86 283.81,-89.21"/>
<polygon fill="midnightblue" stroke="midnightblue" points="354.86,-192.5 364.94,-195.78 359.11,-186.93 354.86,-192.5"/>
</g>
<!-- Node8&#45;&gt;Node6 -->
<g id="edge20" class="edge">
<title>Node8&#45;&gt;Node6</title>
<path fill="none" stroke="midnightblue" d="M418.69,-192.13C441.02,-184.35 468.76,-173.1 491.38,-159 523.4,-139.03 554.83,-107.75 572,-89.37"/>
<polygon fill="midnightblue" stroke="midnightblue" points="417.88,-189.05 409.52,-195.57 420.12,-195.68 417.88,-189.05"/>
</g>
<!-- Node8&#45;&gt;Node7 -->
<g id="edge21" class="edge">
<title>Node8&#45;&gt;Node7</title>
<path fill="none" stroke="midnightblue" d="M431.26,-191.96C448.31,-185.14 465.37,-174.75 475.38,-159 490.43,-135.32 465.91,-106.33 447.28,-89.19"/>
<polygon fill="midnightblue" stroke="midnightblue" points="430.49,-188.88 422.28,-195.57 432.87,-195.46 430.49,-188.88"/>
</g>
<!-- Node9 -->
<g id="node9" class="node">
<title>Node9</title>
<g id="a_node9"><a xlink:href="_solid_effect_8h.html" target="_top" xlink:title=" ">
<polygon fill="none" stroke="black" points="334.25,-132.5 334.25,-152.5 466.5,-152.5 466.5,-132.5 334.25,-132.5"/>
<text text-anchor="middle" x="400.38" y="-139" font-family="Helvetica,sans-Serif" font-size="10.00">include/Effect/SolidEffect.h</text>
</a>
</g>
</g>
<!-- Node8&#45;&gt;Node9 -->
<g id="edge11" class="edge">
<title>Node8&#45;&gt;Node9</title>
<path fill="none" stroke="midnightblue" d="M385.16,-185.7C389.18,-174.54 394.09,-160.91 397.23,-152.22"/>
<polygon fill="midnightblue" stroke="midnightblue" points="381.63,-184.17 381.53,-194.76 388.21,-186.54 381.63,-184.17"/>
</g>
<!-- Node10 -->
<g id="node10" class="node">
<title>Node10</title>
<g id="a_node10"><a xlink:href="_texture_effect_8h.html" target="_top" xlink:title=" ">
<polygon fill="none" stroke="black" points="0,-132.5 0,-152.5 142.75,-152.5 142.75,-132.5 0,-132.5"/>
<text text-anchor="middle" x="71.38" y="-139" font-family="Helvetica,sans-Serif" font-size="10.00">include/Effect/TextureEffect.h</text>
</a>
</g>
</g>
<!-- Node8&#45;&gt;Node10 -->
<g id="edge14" class="edge">
<title>Node8&#45;&gt;Node10</title>
<path fill="none" stroke="midnightblue" d="M322.77,-193.45C263.63,-181.7 171.24,-163.34 116.46,-152.46"/>
<polygon fill="midnightblue" stroke="midnightblue" points="321.92,-197.05 332.41,-195.56 323.28,-190.18 321.92,-197.05"/>
</g>
<!-- Node11 -->
<g id="node11" class="node">
<title>Node11</title>
<g id="a_node11"><a xlink:href="_vertex_color_effect_8h.html" target="_top" xlink:title=" ">
<polygon fill="none" stroke="black" points="560.12,-126.5 560.12,-158.5 688.62,-158.5 688.62,-126.5 560.12,-126.5"/>
<text text-anchor="start" x="568.12" y="-145" font-family="Helvetica,sans-Serif" font-size="10.00">include/Effect/VertexColor</text>
<text text-anchor="middle" x="624.38" y="-133" font-family="Helvetica,sans-Serif" font-size="10.00">Effect.h</text>
</a>
</g>
</g>
<!-- Node8&#45;&gt;Node11 -->
<g id="edge16" class="edge">
<title>Node8&#45;&gt;Node11</title>
<path fill="none" stroke="midnightblue" d="M425.03,-192.93C464.42,-183.16 521.08,-169.11 563.93,-158.49"/>
<polygon fill="midnightblue" stroke="midnightblue" points="424.27,-189.76 415.41,-195.56 425.96,-196.56 424.27,-189.76"/>
</g>
<!-- Node9&#45;&gt;Node5 -->
<g id="edge12" class="edge">
<title>Node9&#45;&gt;Node5</title>
<path fill="none" stroke="midnightblue" d="M374.42,-127.36C353.93,-116.2 325.44,-100.68 304.62,-89.34"/>
<polygon fill="midnightblue" stroke="midnightblue" points="372.59,-130.89 383.04,-132.6 375.93,-124.75 372.59,-130.89"/>
</g>
<!-- Node9&#45;&gt;Node7 -->
<g id="edge13" class="edge">
<title>Node9&#45;&gt;Node7</title>
<path fill="none" stroke="midnightblue" d="M408.44,-122.87C413.01,-112.31 418.65,-99.28 422.92,-89.41"/>
<polygon fill="midnightblue" stroke="midnightblue" points="404.93,-121.17 404.17,-131.74 411.35,-123.95 404.93,-121.17"/>
</g>
<!-- Node10&#45;&gt;Node3 -->
<g id="edge15" class="edge">
<title>Node10&#45;&gt;Node3</title>
<path fill="none" stroke="midnightblue" d="M82.44,-123.42C90.35,-110.49 100.66,-93.65 106.88,-83.48"/>
<polygon fill="midnightblue" stroke="midnightblue" points="78.97,-121.38 76.74,-131.74 84.94,-125.04 78.97,-121.38"/>
</g>
<!-- Node11&#45;&gt;Node6 -->
<g id="edge17" class="edge">
<title>Node11&#45;&gt;Node6</title>
<path fill="none" stroke="midnightblue" d="M610.34,-117.38C604.88,-108 598.8,-97.56 594.01,-89.33"/>
<polygon fill="midnightblue" stroke="midnightblue" points="607.66,-118.75 615.72,-125.63 613.71,-115.23 607.66,-118.75"/>
</g>
</g>
</svg>
