<?xml version="1.0" encoding="UTF-8" standalone="no"?>
<!DOCTYPE svg PUBLIC "-//W3C//DTD SVG 1.1//EN"
 "http://www.w3.org/Graphics/SVG/1.1/DTD/svg11.dtd">
<!-- Generated by graphviz version 8.1.0 (20230707.0739)
 -->
<!-- Title: include/IndexedTriangleList.h Pages: 1 -->
<svg width="1300pt" height="293pt"
 viewBox="0.00 0.00 1300.22 293.00" xmlns="http://www.w3.org/2000/svg" xmlns:xlink="http://www.w3.org/1999/xlink">
<g id="graph0" class="graph" transform="scale(1 1) rotate(0) translate(4 289)">
<title>include/IndexedTriangleList.h</title>
<!-- Node1 -->
<g id="node1" class="node">
<title>Node1</title>
<g id="a_node1"><a xlink:title=" ">
<polygon fill="#bfbfbf" stroke="black" points="532.38,-264.5 532.38,-284.5 673.62,-284.5 673.62,-264.5 532.38,-264.5"/>
<text text-anchor="middle" x="603" y="-271" font-family="Helvetica,sans-Serif" font-size="10.00">include/IndexedTriangleList.h</text>
</a>
</g>
</g>
<!-- Node2 -->
<g id="node2" class="node">
<title>Node2</title>
<g id="a_node2"><a xlink:href="_pipeline_8h.html" target="_top" xlink:title=" ">
<polygon fill="none" stroke="black" points="556.75,-201.5 556.75,-221.5 649.25,-221.5 649.25,-201.5 556.75,-201.5"/>
<text text-anchor="middle" x="603" y="-208" font-family="Helvetica,sans-Serif" font-size="10.00">include/Pipeline.h</text>
</a>
</g>
</g>
<!-- Node1&#45;&gt;Node2 -->
<g id="edge1" class="edge">
<title>Node1&#45;&gt;Node2</title>
<path fill="none" stroke="midnightblue" d="M603,-253.99C603,-242.97 603,-229.73 603,-221.22"/>
<polygon fill="midnightblue" stroke="midnightblue" points="599.5,-253.76 603,-263.76 606.5,-253.76 599.5,-253.76"/>
</g>
<!-- Node17 -->
<g id="node17" class="node">
<title>Node17</title>
<g id="a_node17"><a xlink:href="_cube_8h.html" target="_top" xlink:title=" ">
<polygon fill="none" stroke="black" points="398.12,-126.5 398.12,-158.5 489.88,-158.5 489.88,-126.5 398.12,-126.5"/>
<text text-anchor="start" x="406.12" y="-145" font-family="Helvetica,sans-Serif" font-size="10.00">include/Primitives</text>
<text text-anchor="middle" x="444" y="-133" font-family="Helvetica,sans-Serif" font-size="10.00">/Cube.h</text>
</a>
</g>
</g>
<!-- Node1&#45;&gt;Node17 -->
<g id="edge28" class="edge">
<title>Node1&#45;&gt;Node17</title>
<path fill="none" stroke="midnightblue" d="M583.85,-257.85C553,-232.62 492.68,-183.3 462.34,-158.5"/>
<polygon fill="midnightblue" stroke="midnightblue" points="581.11,-260.94 591.07,-264.56 585.54,-255.53 581.11,-260.94"/>
</g>
<!-- Node18 -->
<g id="node18" class="node">
<title>Node18</title>
<g id="a_node18"><a xlink:href="_plane_8h.html" target="_top" xlink:title=" ">
<polygon fill="none" stroke="black" points="986.12,-195.5 986.12,-227.5 1077.88,-227.5 1077.88,-195.5 986.12,-195.5"/>
<text text-anchor="start" x="994.12" y="-214" font-family="Helvetica,sans-Serif" font-size="10.00">include/Primitives</text>
<text text-anchor="middle" x="1032" y="-202" font-family="Helvetica,sans-Serif" font-size="10.00">/Plane.h</text>
</a>
</g>
</g>
<!-- Node1&#45;&gt;Node18 -->
<g id="edge35" class="edge">
<title>Node1&#45;&gt;Node18</title>
<path fill="none" stroke="midnightblue" d="M676.64,-263.03C765.47,-250.4 912.06,-229.55 986.13,-219.02"/>
<polygon fill="midnightblue" stroke="midnightblue" points="676.25,-259.69 666.84,-264.56 677.23,-266.62 676.25,-259.69"/>
</g>
<!-- Node3 -->
<g id="node3" class="node">
<title>Node3</title>
<g id="a_node3"><a xlink:href="_solid_effect_8h.html" target="_top" xlink:title=" ">
<polygon fill="none" stroke="black" points="242.25,-132.5 242.25,-152.5 379.75,-152.5 379.75,-132.5 242.25,-132.5"/>
<text text-anchor="middle" x="311" y="-139" font-family="Helvetica,sans-Serif" font-size="10.00">include/Effects/SolidEffect.h</text>
</a>
</g>
</g>
<!-- Node2&#45;&gt;Node3 -->
<g id="edge2" class="edge">
<title>Node2&#45;&gt;Node3</title>
<path fill="none" stroke="midnightblue" d="M553.27,-199.09C495.76,-185.89 402.28,-164.45 349.85,-152.41"/>
<polygon fill="midnightblue" stroke="midnightblue" points="552.39,-202.71 562.92,-201.53 553.96,-195.89 552.39,-202.71"/>
</g>
<!-- Node4 -->
<g id="node4" class="node">
<title>Node4</title>
<g id="a_node4"><a xlink:href="_cube_solid_scene_8h.html" target="_top" xlink:title=" ">
<polygon fill="none" stroke="black" points="398,-57.5 398,-89.5 528,-89.5 528,-57.5 398,-57.5"/>
<text text-anchor="start" x="406" y="-76" font-family="Helvetica,sans-Serif" font-size="10.00">include/Scenes/CubeSolid</text>
<text text-anchor="middle" x="463" y="-64" font-family="Helvetica,sans-Serif" font-size="10.00">Scene.h</text>
</a>
</g>
</g>
<!-- Node2&#45;&gt;Node4 -->
<g id="edge24" class="edge">
<title>Node2&#45;&gt;Node4</title>
<path fill="none" stroke="midnightblue" d="M586.2,-194.18C558.7,-167.47 504.53,-114.84 478.15,-89.22"/>
<polygon fill="midnightblue" stroke="midnightblue" points="583.2,-196.12 592.81,-200.58 588.08,-191.1 583.2,-196.12"/>
</g>
<!-- Node6 -->
<g id="node6" class="node">
<title>Node6</title>
<g id="a_node6"><a xlink:href="_double_cube_scene_8h.html" target="_top" xlink:title=" ">
<polygon fill="none" stroke="black" points="241.88,-57.5 241.88,-89.5 380.12,-89.5 380.12,-57.5 241.88,-57.5"/>
<text text-anchor="start" x="249.88" y="-76" font-family="Helvetica,sans-Serif" font-size="10.00">include/Scenes/DoubleCube</text>
<text text-anchor="middle" x="311" y="-64" font-family="Helvetica,sans-Serif" font-size="10.00">Scene.h</text>
</a>
</g>
</g>
<!-- Node2&#45;&gt;Node6 -->
<g id="edge27" class="edge">
<title>Node2&#45;&gt;Node6</title>
<path fill="none" stroke="midnightblue" d="M546.1,-211.26C452.62,-211.16 272.9,-204.83 233,-159 223.37,-147.94 226.05,-138.92 233,-126 241.77,-109.71 258.19,-97.72 273.72,-89.42"/>
<polygon fill="midnightblue" stroke="midnightblue" points="546.07,-214.76 556.06,-211.25 546.05,-207.76 546.07,-214.76"/>
</g>
<!-- Node7 -->
<g id="node7" class="node">
<title>Node7</title>
<g id="a_node7"><a xlink:href="_solid_geometry_effect_8h.html" target="_top" xlink:title=" ">
<polygon fill="none" stroke="black" points="976.38,-126.5 976.38,-158.5 1123.62,-158.5 1123.62,-126.5 976.38,-126.5"/>
<text text-anchor="start" x="984.38" y="-145" font-family="Helvetica,sans-Serif" font-size="10.00">include/Effects/SolidGeometry</text>
<text text-anchor="middle" x="1050" y="-133" font-family="Helvetica,sans-Serif" font-size="10.00">Effect.h</text>
</a>
</g>
</g>
<!-- Node2&#45;&gt;Node7 -->
<g id="edge7" class="edge">
<title>Node2&#45;&gt;Node7</title>
<path fill="none" stroke="midnightblue" d="M659.87,-202.91C730.73,-193.33 855.47,-176.02 962,-159 966.75,-158.24 971.64,-157.44 976.56,-156.62"/>
<polygon fill="midnightblue" stroke="midnightblue" points="659.42,-199.58 649.97,-204.38 660.35,-206.51 659.42,-199.58"/>
</g>
<!-- Node8 -->
<g id="node8" class="node">
<title>Node8</title>
<g id="a_node8"><a xlink:href="_cube_solid_geometry_scene_8h.html" target="_top" xlink:title=" ">
<polygon fill="none" stroke="black" points="869,-57.5 869,-89.5 999,-89.5 999,-57.5 869,-57.5"/>
<text text-anchor="start" x="877" y="-76" font-family="Helvetica,sans-Serif" font-size="10.00">include/Scenes/CubeSolid</text>
<text text-anchor="middle" x="934" y="-64" font-family="Helvetica,sans-Serif" font-size="10.00">GeometryScene.h</text>
</a>
</g>
</g>
<!-- Node2&#45;&gt;Node8 -->
<g id="edge23" class="edge">
<title>Node2&#45;&gt;Node8</title>
<path fill="none" stroke="midnightblue" d="M660.09,-209.76C743.85,-207.37 893.96,-197.64 929,-159 946.08,-140.17 942.36,-108.2 938.15,-89.45"/>
<polygon fill="midnightblue" stroke="midnightblue" points="660.13,-206.29 650.22,-210.04 660.31,-213.28 660.13,-206.29"/>
</g>
<!-- Node9 -->
<g id="node9" class="node">
<title>Node9</title>
<g id="a_node9"><a xlink:href="_texture_effect_8h.html" target="_top" xlink:title=" ">
<polygon fill="none" stroke="black" points="0,-132.5 0,-152.5 148,-152.5 148,-132.5 0,-132.5"/>
<text text-anchor="middle" x="74" y="-139" font-family="Helvetica,sans-Serif" font-size="10.00">include/Effects/TextureEffect.h</text>
</a>
</g>
</g>
<!-- Node2&#45;&gt;Node9 -->
<g id="edge10" class="edge">
<title>Node2&#45;&gt;Node9</title>
<path fill="none" stroke="midnightblue" d="M546,-204.91C461.83,-196.42 299.41,-179.11 162,-159 148.95,-157.09 134.87,-154.74 121.87,-152.45"/>
<polygon fill="midnightblue" stroke="midnightblue" points="545.56,-208.49 555.86,-206 546.26,-201.52 545.56,-208.49"/>
</g>
<!-- Node10 -->
<g id="node10" class="node">
<title>Node10</title>
<g id="a_node10"><a xlink:href="_cube_skin_scene_8h.html" target="_top" xlink:title=" ">
<polygon fill="none" stroke="black" points="60.12,-63.5 60.12,-83.5 223.88,-83.5 223.88,-63.5 60.12,-63.5"/>
<text text-anchor="middle" x="142" y="-70" font-family="Helvetica,sans-Serif" font-size="10.00">include/Scenes/CubeSkinScene.h</text>
</a>
</g>
</g>
<!-- Node2&#45;&gt;Node10 -->
<g id="edge22" class="edge">
<title>Node2&#45;&gt;Node10</title>
<path fill="none" stroke="midnightblue" d="M546.3,-207.39C454.58,-201.61 278.31,-187.14 223,-159 187.5,-140.94 158.88,-101 147.41,-83.27"/>
<polygon fill="midnightblue" stroke="midnightblue" points="545.86,-210.93 556.06,-208.05 546.29,-203.95 545.86,-210.93"/>
</g>
<!-- Node11 -->
<g id="node11" class="node">
<title>Node11</title>
<g id="a_node11"><a xlink:href="_vertex_color_effect_8h.html" target="_top" xlink:title=" ">
<polygon fill="none" stroke="black" points="584.12,-126.5 584.12,-158.5 717.88,-158.5 717.88,-126.5 584.12,-126.5"/>
<text text-anchor="start" x="592.12" y="-145" font-family="Helvetica,sans-Serif" font-size="10.00">include/Effects/VertexColor</text>
<text text-anchor="middle" x="651" y="-133" font-family="Helvetica,sans-Serif" font-size="10.00">Effect.h</text>
</a>
</g>
</g>
<!-- Node2&#45;&gt;Node11 -->
<g id="edge13" class="edge">
<title>Node2&#45;&gt;Node11</title>
<path fill="none" stroke="midnightblue" d="M615.64,-192.86C623.32,-182.14 633.02,-168.6 640.32,-158.41"/>
<polygon fill="midnightblue" stroke="midnightblue" points="612.25,-190.57 609.28,-200.74 617.94,-194.65 612.25,-190.57"/>
</g>
<!-- Node12 -->
<g id="node12" class="node">
<title>Node12</title>
<g id="a_node12"><a xlink:href="_cube_vertex_color_scene_8h.html" target="_top" xlink:title=" ">
<polygon fill="none" stroke="black" points="545.62,-57.5 545.62,-89.5 682.38,-89.5 682.38,-57.5 545.62,-57.5"/>
<text text-anchor="start" x="553.62" y="-76" font-family="Helvetica,sans-Serif" font-size="10.00">include/Scenes/CubeVertex</text>
<text text-anchor="middle" x="614" y="-64" font-family="Helvetica,sans-Serif" font-size="10.00">ColorScene.h</text>
</a>
</g>
</g>
<!-- Node2&#45;&gt;Node12 -->
<g id="edge25" class="edge">
<title>Node2&#45;&gt;Node12</title>
<path fill="none" stroke="midnightblue" d="M590.24,-192.73C579.58,-175.62 567.27,-149.02 575,-126 579.71,-111.97 589.94,-98.71 598.73,-89.17"/>
<polygon fill="midnightblue" stroke="midnightblue" points="587.7,-194.23 596.16,-200.61 593.53,-190.35 587.7,-194.23"/>
</g>
<!-- Node13 -->
<g id="node13" class="node">
<title>Node13</title>
<g id="a_node13"><a xlink:href="_vertex_position_color_effect_8h.html" target="_top" xlink:title=" ">
<polygon fill="none" stroke="black" points="773.75,-126.5 773.75,-158.5 920.25,-158.5 920.25,-126.5 773.75,-126.5"/>
<text text-anchor="start" x="781.75" y="-145" font-family="Helvetica,sans-Serif" font-size="10.00">include/Effects/VertexPosition</text>
<text text-anchor="middle" x="847" y="-133" font-family="Helvetica,sans-Serif" font-size="10.00">ColorEffect.h</text>
</a>
</g>
</g>
<!-- Node2&#45;&gt;Node13 -->
<g id="edge16" class="edge">
<title>Node2&#45;&gt;Node13</title>
<path fill="none" stroke="midnightblue" d="M646.08,-198.67C686.91,-187.46 748.4,-170.57 792.6,-158.44"/>
<polygon fill="midnightblue" stroke="midnightblue" points="645.37,-195.51 636.65,-201.53 647.22,-202.26 645.37,-195.51"/>
</g>
<!-- Node14 -->
<g id="node14" class="node">
<title>Node14</title>
<g id="a_node14"><a xlink:href="_cube_vertex_position_color_scene_8h.html" target="_top" xlink:title=" ">
<polygon fill="none" stroke="black" points="700.62,-57.5 700.62,-89.5 837.38,-89.5 837.38,-57.5 700.62,-57.5"/>
<text text-anchor="start" x="708.62" y="-76" font-family="Helvetica,sans-Serif" font-size="10.00">include/Scenes/CubeVertex</text>
<text text-anchor="middle" x="769" y="-64" font-family="Helvetica,sans-Serif" font-size="10.00">PositionColorScene.h</text>
</a>
</g>
</g>
<!-- Node2&#45;&gt;Node14 -->
<g id="edge26" class="edge">
<title>Node2&#45;&gt;Node14</title>
<path fill="none" stroke="midnightblue" d="M653.85,-198.4C678.31,-190.49 706.66,-178.01 727,-159 747.71,-139.65 759.61,-107.86 765.15,-89.29"/>
<polygon fill="midnightblue" stroke="midnightblue" points="653.18,-195.25 644.64,-201.51 655.22,-201.94 653.18,-195.25"/>
</g>
<!-- Node15 -->
<g id="node15" class="node">
<title>Node15</title>
<g id="a_node15"><a xlink:href="_wave_vertex_texture_effect_8h.html" target="_top" xlink:title=" ">
<polygon fill="none" stroke="black" points="1141.38,-126.5 1141.38,-158.5 1276.62,-158.5 1276.62,-126.5 1141.38,-126.5"/>
<text text-anchor="start" x="1149.38" y="-145" font-family="Helvetica,sans-Serif" font-size="10.00">include/Effects/WaveVertex</text>
<text text-anchor="middle" x="1209" y="-133" font-family="Helvetica,sans-Serif" font-size="10.00">TextureEffect.h</text>
</a>
</g>
</g>
<!-- Node2&#45;&gt;Node15 -->
<g id="edge19" class="edge">
<title>Node2&#45;&gt;Node15</title>
<path fill="none" stroke="midnightblue" d="M659.68,-206.94C756.9,-200.4 961.56,-184.74 1133,-159 1135.8,-158.58 1138.65,-158.12 1141.52,-157.64"/>
<polygon fill="midnightblue" stroke="midnightblue" points="659.67,-203.5 649.92,-207.66 660.13,-210.49 659.67,-203.5"/>
</g>
<!-- Node3&#45;&gt;Node4 -->
<g id="edge3" class="edge">
<title>Node3&#45;&gt;Node4</title>
<path fill="none" stroke="midnightblue" d="M340.98,-128.28C366.33,-117.11 402.62,-101.11 429.04,-89.47"/>
<polygon fill="midnightblue" stroke="midnightblue" points="339.92,-125.37 332.18,-132.6 342.75,-131.77 339.92,-125.37"/>
</g>
<!-- Node3&#45;&gt;Node6 -->
<g id="edge5" class="edge">
<title>Node3&#45;&gt;Node6</title>
<path fill="none" stroke="midnightblue" d="M311,-121.86C311,-111.49 311,-98.97 311,-89.41"/>
<polygon fill="midnightblue" stroke="midnightblue" points="307.5,-121.74 311,-131.74 314.5,-121.74 307.5,-121.74"/>
</g>
<!-- Node5 -->
<g id="node5" class="node">
<title>Node5</title>
<g id="a_node5"><a xlink:href="_engine_8cpp.html" target="_top" xlink:title=" ">
<polygon fill="none" stroke="black" points="573.38,-0.5 573.38,-20.5 654.62,-20.5 654.62,-0.5 573.38,-0.5"/>
<text text-anchor="middle" x="614" y="-7" font-family="Helvetica,sans-Serif" font-size="10.00">src/Engine.cpp</text>
</a>
</g>
</g>
<!-- Node4&#45;&gt;Node5 -->
<g id="edge4" class="edge">
<title>Node4&#45;&gt;Node5</title>
<path fill="none" stroke="midnightblue" d="M510.09,-53.48C537.41,-42.44 570.54,-29.06 591.93,-20.42"/>
<polygon fill="midnightblue" stroke="midnightblue" points="508.9,-50.59 500.94,-57.58 511.52,-57.08 508.9,-50.59"/>
</g>
<!-- Node6&#45;&gt;Node5 -->
<g id="edge6" class="edge">
<title>Node6&#45;&gt;Node5</title>
<path fill="none" stroke="midnightblue" d="M390.49,-56.5C449.25,-44.67 526.83,-29.05 573.43,-19.67"/>
<polygon fill="midnightblue" stroke="midnightblue" points="389.87,-53.25 380.76,-58.66 391.25,-60.12 389.87,-53.25"/>
</g>
<!-- Node7&#45;&gt;Node8 -->
<g id="edge8" class="edge">
<title>Node7&#45;&gt;Node8</title>
<path fill="none" stroke="midnightblue" d="M1014.79,-121.16C997.03,-110.9 975.88,-98.69 959.67,-89.33"/>
<polygon fill="midnightblue" stroke="midnightblue" points="1012.85,-124.66 1023.26,-126.63 1016.35,-118.6 1012.85,-124.66"/>
</g>
<!-- Node8&#45;&gt;Node5 -->
<g id="edge9" class="edge">
<title>Node8&#45;&gt;Node5</title>
<path fill="none" stroke="midnightblue" d="M858.82,-58.17C794.9,-45.98 705.57,-28.96 654.37,-19.19"/>
<polygon fill="midnightblue" stroke="midnightblue" points="857.76,-61.72 868.24,-60.16 859.08,-54.85 857.76,-61.72"/>
</g>
<!-- Node9&#45;&gt;Node10 -->
<g id="edge11" class="edge">
<title>Node9&#45;&gt;Node10</title>
<path fill="none" stroke="midnightblue" d="M90.44,-125.31C103.76,-112.17 122.06,-94.15 132.89,-83.48"/>
<polygon fill="midnightblue" stroke="midnightblue" points="88.56,-122.23 83.89,-131.74 93.47,-127.22 88.56,-122.23"/>
</g>
<!-- Node10&#45;&gt;Node5 -->
<g id="edge12" class="edge">
<title>Node10&#45;&gt;Node5</title>
<path fill="none" stroke="midnightblue" d="M202.78,-61.71C212.86,-60.05 223.22,-58.42 233,-57 356.78,-39.08 503.93,-22.97 573.59,-15.66"/>
<polygon fill="midnightblue" stroke="midnightblue" points="202.28,-58.42 192.99,-63.52 203.44,-65.32 202.28,-58.42"/>
</g>
<!-- Node11&#45;&gt;Node12 -->
<g id="edge14" class="edge">
<title>Node11&#45;&gt;Node12</title>
<path fill="none" stroke="midnightblue" d="M637.52,-117.09C632.38,-107.79 626.69,-97.47 622.19,-89.33"/>
<polygon fill="midnightblue" stroke="midnightblue" points="634.89,-118.57 642.79,-125.63 641.02,-115.18 634.89,-118.57"/>
</g>
<!-- Node12&#45;&gt;Node5 -->
<g id="edge15" class="edge">
<title>Node12&#45;&gt;Node5</title>
<path fill="none" stroke="midnightblue" d="M614,-46.77C614,-37.31 614,-27.24 614,-20.28"/>
<polygon fill="midnightblue" stroke="midnightblue" points="610.5,-46.73 614,-56.73 617.5,-46.73 610.5,-46.73"/>
</g>
<!-- Node13&#45;&gt;Node14 -->
<g id="edge17" class="edge">
<title>Node13&#45;&gt;Node14</title>
<path fill="none" stroke="midnightblue" d="M821.65,-119.73C810.07,-109.78 796.65,-98.25 786.26,-89.33"/>
<polygon fill="midnightblue" stroke="midnightblue" points="818.82,-122.77 828.69,-126.63 823.38,-117.46 818.82,-122.77"/>
</g>
<!-- Node14&#45;&gt;Node5 -->
<g id="edge18" class="edge">
<title>Node14&#45;&gt;Node5</title>
<path fill="none" stroke="midnightblue" d="M721.03,-53.62C692.92,-42.56 658.71,-29.1 636.65,-20.42"/>
<polygon fill="midnightblue" stroke="midnightblue" points="719.5,-57.17 730.08,-57.58 722.06,-50.66 719.5,-57.17"/>
</g>
<!-- Node16 -->
<g id="node16" class="node">
<title>Node16</title>
<g id="a_node16"><a xlink:href="_vertex_wave_scene_8h.html" target="_top" xlink:title=" ">
<polygon fill="none" stroke="black" points="1139.88,-57.5 1139.88,-89.5 1278.12,-89.5 1278.12,-57.5 1139.88,-57.5"/>
<text text-anchor="start" x="1147.88" y="-76" font-family="Helvetica,sans-Serif" font-size="10.00">include/Scenes/VertexWave</text>
<text text-anchor="middle" x="1209" y="-64" font-family="Helvetica,sans-Serif" font-size="10.00">Scene.h</text>
</a>
</g>
</g>
<!-- Node15&#45;&gt;Node16 -->
<g id="edge20" class="edge">
<title>Node15&#45;&gt;Node16</title>
<path fill="none" stroke="midnightblue" d="M1209,-115.89C1209,-106.91 1209,-97.13 1209,-89.33"/>
<polygon fill="midnightblue" stroke="midnightblue" points="1205.5,-115.63 1209,-125.63 1212.5,-115.63 1205.5,-115.63"/>
</g>
<!-- Node16&#45;&gt;Node5 -->
<g id="edge21" class="edge">
<title>Node16&#45;&gt;Node5</title>
<path fill="none" stroke="midnightblue" d="M1129.23,-64.32C1000.58,-51.13 751.87,-25.63 654.49,-15.65"/>
<polygon fill="midnightblue" stroke="midnightblue" points="1128.86,-67.9 1139.16,-65.44 1129.57,-60.94 1128.86,-67.9"/>
</g>
<!-- Node17&#45;&gt;Node4 -->
<g id="edge31" class="edge">
<title>Node17&#45;&gt;Node4</title>
<path fill="none" stroke="midnightblue" d="M451.18,-116.19C453.75,-107.13 456.56,-97.21 458.8,-89.33"/>
<polygon fill="midnightblue" stroke="midnightblue" points="447.58,-115.05 448.22,-125.63 454.31,-116.96 447.58,-115.05"/>
</g>
<!-- Node17&#45;&gt;Node6 -->
<g id="edge34" class="edge">
<title>Node17&#45;&gt;Node6</title>
<path fill="none" stroke="midnightblue" d="M404.76,-121.73C384.17,-111.36 359.36,-98.86 340.43,-89.33"/>
<polygon fill="midnightblue" stroke="midnightblue" points="402.98,-125.26 413.48,-126.63 406.13,-119.01 402.98,-125.26"/>
</g>
<!-- Node17&#45;&gt;Node8 -->
<g id="edge30" class="edge">
<title>Node17&#45;&gt;Node8</title>
<path fill="none" stroke="midnightblue" d="M500.46,-134.6C594.83,-123.01 780.68,-99.93 846,-90 853.51,-88.86 861.38,-87.58 869.18,-86.27"/>
<polygon fill="midnightblue" stroke="midnightblue" points="500.2,-131.23 490.7,-135.92 501.05,-138.18 500.2,-131.23"/>
</g>
<!-- Node17&#45;&gt;Node10 -->
<g id="edge29" class="edge">
<title>Node17&#45;&gt;Node10</title>
<path fill="none" stroke="midnightblue" d="M387.64,-125.76C313.13,-107.74 237.72,-92.65 190.03,-83.49"/>
<polygon fill="midnightblue" stroke="midnightblue" points="386.6,-129.35 397.15,-128.32 388.26,-122.55 386.6,-129.35"/>
</g>
<!-- Node17&#45;&gt;Node12 -->
<g id="edge32" class="edge">
<title>Node17&#45;&gt;Node12</title>
<path fill="none" stroke="midnightblue" d="M491.63,-122.73C518.32,-112.21 551.15,-99.27 576.08,-89.44"/>
<polygon fill="midnightblue" stroke="midnightblue" points="490.75,-119.71 482.73,-126.63 493.32,-126.22 490.75,-119.71"/>
</g>
<!-- Node17&#45;&gt;Node14 -->
<g id="edge33" class="edge">
<title>Node17&#45;&gt;Node14</title>
<path fill="none" stroke="midnightblue" d="M500.26,-129.9C555.97,-118.42 641.33,-100.82 700.86,-88.55"/>
<polygon fill="midnightblue" stroke="midnightblue" points="499.62,-126.67 490.53,-132.11 501.03,-133.52 499.62,-126.67"/>
</g>
<!-- Node18&#45;&gt;Node16 -->
<g id="edge36" class="edge">
<title>Node18&#45;&gt;Node16</title>
<path fill="none" stroke="midnightblue" d="M1088.54,-207.15C1155.65,-201.86 1261.55,-188.9 1286,-159 1295.28,-147.65 1292.91,-138.94 1286,-126 1277.29,-109.69 1260.86,-97.64 1245.41,-89.31"/>
<polygon fill="midnightblue" stroke="midnightblue" points="1088.43,-203.73 1078.72,-207.97 1088.95,-210.71 1088.43,-203.73"/>
</g>
</g>
</svg>
