<?xml version="1.0" encoding="UTF-8" standalone="no"?>
<!DOCTYPE svg PUBLIC "-//W3C//DTD SVG 1.1//EN"
 "http://www.w3.org/Graphics/SVG/1.1/DTD/svg11.dtd">
<!-- Generated by graphviz version 8.1.0 (20230707.0739)
 -->
<!-- Title: include/IndexedTriangleList.h Pages: 1 -->
<svg width="439pt" height="200pt"
 viewBox="0.00 0.00 439.00 200.00" xmlns="http://www.w3.org/2000/svg" xmlns:xlink="http://www.w3.org/1999/xlink">
<g id="graph0" class="graph" transform="scale(1 1) rotate(0) translate(4 196)">
<title>include/IndexedTriangleList.h</title>
<!-- Node1 -->
<g id="node1" class="node">
<title>Node1</title>
<g id="a_node1"><a xlink:title=" ">
<polygon fill="#bfbfbf" stroke="black" points="142.25,-171.5 142.25,-191.5 283.5,-191.5 283.5,-171.5 142.25,-171.5"/>
<text text-anchor="middle" x="212.88" y="-178" font-family="Helvetica,sans-Serif" font-size="10.00">include/IndexedTriangleList.h</text>
</a>
</g>
</g>
<!-- Node2 -->
<g id="node2" class="node">
<title>Node2</title>
<g id="a_node2"><a xlink:href="_vector3_8h.html" target="_top" xlink:title=" ">
<polygon fill="none" stroke="black" points="103.75,-114.5 103.75,-134.5 224,-134.5 224,-114.5 103.75,-114.5"/>
<text text-anchor="middle" x="163.88" y="-121" font-family="Helvetica,sans-Serif" font-size="10.00">LinearAlgebra/Vector3.h</text>
</a>
</g>
</g>
<!-- Node1&#45;&gt;Node2 -->
<g id="edge1" class="edge">
<title>Node1&#45;&gt;Node2</title>
<path fill="none" stroke="midnightblue" d="M205.22,-171.91C198.21,-164.04 187.64,-152.18 178.95,-142.42"/>
<polygon fill="midnightblue" stroke="midnightblue" points="181.9,-140.35 172.64,-135.21 176.68,-145.01 181.9,-140.35"/>
</g>
<!-- Node13 -->
<g id="node13" class="node">
<title>Node13</title>
<g id="a_node13"><a xlink:title=" ">
<polygon fill="none" stroke="#bfbfbf" points="242.12,-114.5 242.12,-134.5 283.62,-134.5 283.62,-114.5 242.12,-114.5"/>
<text text-anchor="middle" x="262.88" y="-121" font-family="Helvetica,sans-Serif" font-size="10.00">vector</text>
</a>
</g>
</g>
<!-- Node1&#45;&gt;Node13 -->
<g id="edge17" class="edge">
<title>Node1&#45;&gt;Node13</title>
<path fill="none" stroke="midnightblue" d="M220.69,-171.91C227.91,-163.96 238.84,-151.94 247.77,-142.12"/>
<polygon fill="midnightblue" stroke="midnightblue" points="249.82,-144.97 253.95,-135.21 244.64,-140.26 249.82,-144.97"/>
</g>
<!-- Node3 -->
<g id="node3" class="node">
<title>Node3</title>
<g id="a_node3"><a xlink:href="_math_8h.html" target="_top" xlink:title=" ">
<polygon fill="none" stroke="black" points="234.88,-57.5 234.88,-77.5 280.88,-77.5 280.88,-57.5 234.88,-57.5"/>
<text text-anchor="middle" x="257.88" y="-64" font-family="Helvetica,sans-Serif" font-size="10.00">Math.h</text>
</a>
</g>
</g>
<!-- Node2&#45;&gt;Node3 -->
<g id="edge2" class="edge">
<title>Node2&#45;&gt;Node3</title>
<path fill="none" stroke="midnightblue" d="M178.98,-114.66C193.55,-106.13 215.88,-93.07 233.07,-83.01"/>
<polygon fill="midnightblue" stroke="midnightblue" points="234.63,-85.57 241.5,-77.5 231.1,-79.53 234.63,-85.57"/>
</g>
<!-- Node8 -->
<g id="node8" class="node">
<title>Node8</title>
<g id="a_node8"><a xlink:href="_matrix3_8h.html" target="_top" xlink:title=" ">
<polygon fill="none" stroke="black" points="107.62,-57.5 107.62,-77.5 164.12,-77.5 164.12,-57.5 107.62,-57.5"/>
<text text-anchor="middle" x="135.88" y="-64" font-family="Helvetica,sans-Serif" font-size="10.00">Matrix3.h</text>
</a>
</g>
</g>
<!-- Node2&#45;&gt;Node8 -->
<g id="edge8" class="edge">
<title>Node2&#45;&gt;Node8</title>
<path fill="none" stroke="midnightblue" d="M159.5,-114.91C155.7,-107.44 150.07,-96.38 145.26,-86.93"/>
<polygon fill="midnightblue" stroke="midnightblue" points="147.97,-85.54 140.31,-78.21 141.73,-88.71 147.97,-85.54"/>
</g>
<!-- Node9 -->
<g id="node9" class="node">
<title>Node9</title>
<g id="a_node9"><a xlink:title=" ">
<polygon fill="none" stroke="#bfbfbf" points="0,-0.5 0,-20.5 37.75,-20.5 37.75,-0.5 0,-0.5"/>
<text text-anchor="middle" x="18.88" y="-7" font-family="Helvetica,sans-Serif" font-size="10.00">array</text>
</a>
</g>
</g>
<!-- Node2&#45;&gt;Node9 -->
<g id="edge13" class="edge">
<title>Node2&#45;&gt;Node9</title>
<path fill="none" stroke="midnightblue" d="M144.85,-114.58C128.03,-106.27 103.23,-92.93 83.88,-78 64.61,-63.14 45.5,-42.73 33.04,-28.45"/>
<polygon fill="midnightblue" stroke="midnightblue" points="35.36,-26.78 26.2,-21.46 30.04,-31.33 35.36,-26.78"/>
</g>
<!-- Node10 -->
<g id="node10" class="node">
<title>Node10</title>
<g id="a_node10"><a xlink:title=" ">
<polygon fill="none" stroke="#bfbfbf" points="56.12,-0.5 56.12,-20.5 103.62,-20.5 103.62,-0.5 56.12,-0.5"/>
<text text-anchor="middle" x="79.88" y="-7" font-family="Helvetica,sans-Serif" font-size="10.00">cstddef</text>
</a>
</g>
</g>
<!-- Node2&#45;&gt;Node10 -->
<g id="edge16" class="edge">
<title>Node2&#45;&gt;Node10</title>
<path fill="none" stroke="midnightblue" d="M144.65,-114.59C130.05,-106.87 110.55,-94.38 98.88,-78 88.97,-64.1 84.2,-45.12 81.93,-31"/>
<polygon fill="midnightblue" stroke="midnightblue" points="85.32,-30.95 80.54,-21.5 78.38,-31.87 85.32,-30.95"/>
</g>
<!-- Node11 -->
<g id="node11" class="node">
<title>Node11</title>
<g id="a_node11"><a xlink:title=" ">
<polygon fill="none" stroke="#bfbfbf" points="122.12,-0.5 122.12,-20.5 175.62,-20.5 175.62,-0.5 122.12,-0.5"/>
<text text-anchor="middle" x="148.88" y="-7" font-family="Helvetica,sans-Serif" font-size="10.00">iostream</text>
</a>
</g>
</g>
<!-- Node2&#45;&gt;Node11 -->
<g id="edge14" class="edge">
<title>Node2&#45;&gt;Node11</title>
<path fill="none" stroke="midnightblue" d="M167.12,-114.78C171.42,-101.96 177.91,-77.36 172.88,-57 170.49,-47.37 165.66,-37.53 160.95,-29.47"/>
<polygon fill="midnightblue" stroke="midnightblue" points="163.52,-27.99 155.24,-21.38 157.59,-31.71 163.52,-27.99"/>
</g>
<!-- Node12 -->
<g id="node12" class="node">
<title>Node12</title>
<g id="a_node12"><a xlink:title=" ">
<polygon fill="none" stroke="#bfbfbf" points="317.12,-57.5 317.12,-77.5 370.62,-77.5 370.62,-57.5 317.12,-57.5"/>
<text text-anchor="middle" x="343.88" y="-64" font-family="Helvetica,sans-Serif" font-size="10.00">compare</text>
</a>
</g>
</g>
<!-- Node2&#45;&gt;Node12 -->
<g id="edge15" class="edge">
<title>Node2&#45;&gt;Node12</title>
<path fill="none" stroke="midnightblue" d="M193.2,-114.54C224.21,-105.06 273.21,-90.09 306.87,-79.81"/>
<polygon fill="midnightblue" stroke="midnightblue" points="307.67,-82.92 316.21,-76.65 305.62,-76.22 307.67,-82.92"/>
</g>
<!-- Node3&#45;&gt;Node3 -->
<g id="edge3" class="edge">
<title>Node3&#45;&gt;Node3</title>
<path fill="none" stroke="midnightblue" d="M276.43,-77.43C287.93,-79.83 298.88,-76.52 298.88,-67.5 298.88,-61.44 293.93,-57.96 287.2,-57.05"/>
<polygon fill="midnightblue" stroke="midnightblue" points="287.25,-53.59 277.43,-57.57 287.58,-60.59 287.25,-53.59"/>
</g>
<!-- Node4 -->
<g id="node4" class="node">
<title>Node4</title>
<g id="a_node4"><a xlink:title=" ">
<polygon fill="none" stroke="#bfbfbf" points="193.38,-0.5 193.38,-20.5 236.38,-20.5 236.38,-0.5 193.38,-0.5"/>
<text text-anchor="middle" x="214.88" y="-7" font-family="Helvetica,sans-Serif" font-size="10.00">cmath</text>
</a>
</g>
</g>
<!-- Node3&#45;&gt;Node4 -->
<g id="edge4" class="edge">
<title>Node3&#45;&gt;Node4</title>
<path fill="none" stroke="midnightblue" d="M251.16,-57.91C245.07,-50.12 235.92,-38.42 228.33,-28.71"/>
<polygon fill="midnightblue" stroke="midnightblue" points="230.61,-26.94 221.69,-21.21 225.09,-31.25 230.61,-26.94"/>
</g>
<!-- Node5 -->
<g id="node5" class="node">
<title>Node5</title>
<g id="a_node5"><a xlink:title=" ">
<polygon fill="none" stroke="#bfbfbf" points="254.25,-0.5 254.25,-20.5 293.5,-20.5 293.5,-0.5 254.25,-0.5"/>
<text text-anchor="middle" x="273.88" y="-7" font-family="Helvetica,sans-Serif" font-size="10.00">limits</text>
</a>
</g>
</g>
<!-- Node3&#45;&gt;Node5 -->
<g id="edge5" class="edge">
<title>Node3&#45;&gt;Node5</title>
<path fill="none" stroke="midnightblue" d="M260.38,-57.91C262.5,-50.6 265.63,-39.85 268.34,-30.54"/>
<polygon fill="midnightblue" stroke="midnightblue" points="271.91,-31.79 271.34,-21.21 265.19,-29.84 271.91,-31.79"/>
</g>
<!-- Node6 -->
<g id="node6" class="node">
<title>Node6</title>
<g id="a_node6"><a xlink:title=" ">
<polygon fill="none" stroke="#bfbfbf" points="311.12,-0.5 311.12,-20.5 364.62,-20.5 364.62,-0.5 311.12,-0.5"/>
<text text-anchor="middle" x="337.88" y="-7" font-family="Helvetica,sans-Serif" font-size="10.00">numbers</text>
</a>
</g>
</g>
<!-- Node3&#45;&gt;Node6 -->
<g id="edge6" class="edge">
<title>Node3&#45;&gt;Node6</title>
<path fill="none" stroke="midnightblue" d="M270.73,-57.66C282.9,-49.29 301.43,-36.56 315.94,-26.58"/>
<polygon fill="midnightblue" stroke="midnightblue" points="317.53,-29.05 323.79,-20.5 313.56,-23.28 317.53,-29.05"/>
</g>
<!-- Node7 -->
<g id="node7" class="node">
<title>Node7</title>
<g id="a_node7"><a xlink:title=" ">
<polygon fill="none" stroke="#bfbfbf" points="382.75,-0.5 382.75,-20.5 431,-20.5 431,-0.5 382.75,-0.5"/>
<text text-anchor="middle" x="406.88" y="-7" font-family="Helvetica,sans-Serif" font-size="10.00">random</text>
</a>
</g>
</g>
<!-- Node3&#45;&gt;Node7 -->
<g id="edge7" class="edge">
<title>Node3&#45;&gt;Node7</title>
<path fill="none" stroke="midnightblue" d="M280.83,-58.03C305.44,-48.94 344.77,-34.42 372.95,-24.02"/>
<polygon fill="midnightblue" stroke="midnightblue" points="373.99,-27 382.15,-20.26 371.56,-20.44 373.99,-27"/>
</g>
<!-- Node8&#45;&gt;Node4 -->
<g id="edge10" class="edge">
<title>Node8&#45;&gt;Node4</title>
<path fill="none" stroke="midnightblue" d="M148.57,-57.66C160.59,-49.29 178.88,-36.56 193.21,-26.58"/>
<polygon fill="midnightblue" stroke="midnightblue" points="194.74,-29.08 200.95,-20.5 190.74,-23.34 194.74,-29.08"/>
</g>
<!-- Node8&#45;&gt;Node9 -->
<g id="edge9" class="edge">
<title>Node8&#45;&gt;Node9</title>
<path fill="none" stroke="midnightblue" d="M116.82,-57.54C98.01,-48.7 69.02,-35.07 47.45,-24.93"/>
<polygon fill="midnightblue" stroke="midnightblue" points="49.08,-21.36 38.54,-20.27 46.1,-27.7 49.08,-21.36"/>
</g>
<!-- Node8&#45;&gt;Node10 -->
<g id="edge11" class="edge">
<title>Node8&#45;&gt;Node10</title>
<path fill="none" stroke="midnightblue" d="M126.88,-57.66C118.76,-49.69 106.61,-37.76 96.7,-28.02"/>
<polygon fill="midnightblue" stroke="midnightblue" points="99.62,-26.01 90.04,-21.5 94.72,-31 99.62,-26.01"/>
</g>
<!-- Node8&#45;&gt;Node11 -->
<g id="edge12" class="edge">
<title>Node8&#45;&gt;Node11</title>
<path fill="none" stroke="midnightblue" d="M137.91,-57.91C139.61,-50.68 142.12,-40.09 144.3,-30.85"/>
<polygon fill="midnightblue" stroke="midnightblue" points="147.92,-31.75 146.82,-21.21 141.11,-30.14 147.92,-31.75"/>
</g>
</g>
</svg>
