<?xml version="1.0" encoding="UTF-8" standalone="no"?>
<!DOCTYPE svg PUBLIC "-//W3C//DTD SVG 1.1//EN"
 "http://www.w3.org/Graphics/SVG/1.1/DTD/svg11.dtd">
<!-- Generated by graphviz version 8.1.0 (20230707.0739)
 -->
<!-- Title: include/IndexedLineList.h Pages: 1 -->
<svg width="439pt" height="200pt"
 viewBox="0.00 0.00 439.00 200.00" xmlns="http://www.w3.org/2000/svg" xmlns:xlink="http://www.w3.org/1999/xlink">
<g id="graph0" class="graph" transform="scale(1 1) rotate(0) translate(4 196)">
<title>include/IndexedLineList.h</title>
<!-- Node1 -->
<g id="node1" class="node">
<title>Node1</title>
<g id="a_node1"><a xlink:title=" ">
<polygon fill="#bfbfbf" stroke="black" points="153.12,-171.5 153.12,-191.5 278.62,-191.5 278.62,-171.5 153.12,-171.5"/>
<text text-anchor="middle" x="215.88" y="-178" font-family="Helvetica,sans-Serif" font-size="10.00">include/IndexedLineList.h</text>
</a>
</g>
</g>
<!-- Node2 -->
<g id="node2" class="node">
<title>Node2</title>
<g id="a_node2"><a xlink:href="_vector3_8h.html" target="_top" xlink:title=" ">
<polygon fill="none" stroke="black" points="106.75,-114.5 106.75,-134.5 227,-134.5 227,-114.5 106.75,-114.5"/>
<text text-anchor="middle" x="166.88" y="-121" font-family="Helvetica,sans-Serif" font-size="10.00">LinearAlgebra/Vector3.h</text>
</a>
</g>
</g>
<!-- Node1&#45;&gt;Node2 -->
<g id="edge1" class="edge">
<title>Node1&#45;&gt;Node2</title>
<path fill="none" stroke="midnightblue" d="M208.22,-171.91C201.21,-164.04 190.64,-152.18 181.95,-142.42"/>
<polygon fill="midnightblue" stroke="midnightblue" points="184.9,-140.35 175.64,-135.21 179.68,-145.01 184.9,-140.35"/>
</g>
<!-- Node13 -->
<g id="node13" class="node">
<title>Node13</title>
<g id="a_node13"><a xlink:title=" ">
<polygon fill="none" stroke="#bfbfbf" points="245.12,-114.5 245.12,-134.5 286.62,-134.5 286.62,-114.5 245.12,-114.5"/>
<text text-anchor="middle" x="265.88" y="-121" font-family="Helvetica,sans-Serif" font-size="10.00">vector</text>
</a>
</g>
</g>
<!-- Node1&#45;&gt;Node13 -->
<g id="edge17" class="edge">
<title>Node1&#45;&gt;Node13</title>
<path fill="none" stroke="midnightblue" d="M223.69,-171.91C230.91,-163.96 241.84,-151.94 250.77,-142.12"/>
<polygon fill="midnightblue" stroke="midnightblue" points="252.82,-144.97 256.95,-135.21 247.64,-140.26 252.82,-144.97"/>
</g>
<!-- Node3 -->
<g id="node3" class="node">
<title>Node3</title>
<g id="a_node3"><a xlink:title=" ">
<polygon fill="none" stroke="#bfbfbf" points="0,-0.5 0,-20.5 37.75,-20.5 37.75,-0.5 0,-0.5"/>
<text text-anchor="middle" x="18.88" y="-7" font-family="Helvetica,sans-Serif" font-size="10.00">array</text>
</a>
</g>
</g>
<!-- Node2&#45;&gt;Node3 -->
<g id="edge2" class="edge">
<title>Node2&#45;&gt;Node3</title>
<path fill="none" stroke="midnightblue" d="M148.52,-114.56C131.99,-106.14 107.36,-92.65 87.88,-78 67.83,-62.93 47.47,-42.55 34.12,-28.34"/>
<polygon fill="midnightblue" stroke="midnightblue" points="37.13,-26.36 27.77,-21.4 31.99,-31.12 37.13,-26.36"/>
</g>
<!-- Node4 -->
<g id="node4" class="node">
<title>Node4</title>
<g id="a_node4"><a xlink:title=" ">
<polygon fill="none" stroke="#bfbfbf" points="56.12,-0.5 56.12,-20.5 109.62,-20.5 109.62,-0.5 56.12,-0.5"/>
<text text-anchor="middle" x="82.88" y="-7" font-family="Helvetica,sans-Serif" font-size="10.00">iostream</text>
</a>
</g>
</g>
<!-- Node2&#45;&gt;Node4 -->
<g id="edge3" class="edge">
<title>Node2&#45;&gt;Node4</title>
<path fill="none" stroke="midnightblue" d="M147.65,-114.59C133.05,-106.87 113.55,-94.38 101.88,-78 91.97,-64.1 87.2,-45.12 84.93,-31"/>
<polygon fill="midnightblue" stroke="midnightblue" points="88.32,-30.95 83.54,-21.5 81.38,-31.87 88.32,-30.95"/>
</g>
<!-- Node5 -->
<g id="node5" class="node">
<title>Node5</title>
<g id="a_node5"><a xlink:title=" ">
<polygon fill="none" stroke="#bfbfbf" points="319.12,-57.5 319.12,-77.5 372.62,-77.5 372.62,-57.5 319.12,-57.5"/>
<text text-anchor="middle" x="345.88" y="-64" font-family="Helvetica,sans-Serif" font-size="10.00">compare</text>
</a>
</g>
</g>
<!-- Node2&#45;&gt;Node5 -->
<g id="edge4" class="edge">
<title>Node2&#45;&gt;Node5</title>
<path fill="none" stroke="midnightblue" d="M196.03,-114.54C226.87,-105.06 275.61,-90.09 309.07,-79.81"/>
<polygon fill="midnightblue" stroke="midnightblue" points="309.83,-82.93 318.36,-76.65 307.77,-76.24 309.83,-82.93"/>
</g>
<!-- Node6 -->
<g id="node6" class="node">
<title>Node6</title>
<g id="a_node6"><a xlink:title=" ">
<polygon fill="none" stroke="#bfbfbf" points="128.12,-0.5 128.12,-20.5 175.62,-20.5 175.62,-0.5 128.12,-0.5"/>
<text text-anchor="middle" x="151.88" y="-7" font-family="Helvetica,sans-Serif" font-size="10.00">cstddef</text>
</a>
</g>
</g>
<!-- Node2&#45;&gt;Node6 -->
<g id="edge5" class="edge">
<title>Node2&#45;&gt;Node6</title>
<path fill="none" stroke="midnightblue" d="M170.12,-114.78C174.42,-101.96 180.91,-77.36 175.88,-57 173.49,-47.37 168.66,-37.53 163.95,-29.47"/>
<polygon fill="midnightblue" stroke="midnightblue" points="166.52,-27.99 158.24,-21.38 160.59,-31.71 166.52,-27.99"/>
</g>
<!-- Node7 -->
<g id="node7" class="node">
<title>Node7</title>
<g id="a_node7"><a xlink:href="_math_8h.html" target="_top" xlink:title=" ">
<polygon fill="none" stroke="black" points="236.88,-57.5 236.88,-77.5 282.88,-77.5 282.88,-57.5 236.88,-57.5"/>
<text text-anchor="middle" x="259.88" y="-64" font-family="Helvetica,sans-Serif" font-size="10.00">Math.h</text>
</a>
</g>
</g>
<!-- Node2&#45;&gt;Node7 -->
<g id="edge6" class="edge">
<title>Node2&#45;&gt;Node7</title>
<path fill="none" stroke="midnightblue" d="M181.82,-114.66C196.24,-106.13 218.33,-93.07 235.33,-83.01"/>
<polygon fill="midnightblue" stroke="midnightblue" points="236.84,-85.6 243.66,-77.5 233.27,-79.58 236.84,-85.6"/>
</g>
<!-- Node12 -->
<g id="node12" class="node">
<title>Node12</title>
<g id="a_node12"><a xlink:href="_matrix3_8h.html" target="_top" xlink:title=" ">
<polygon fill="none" stroke="black" points="110.62,-57.5 110.62,-77.5 167.12,-77.5 167.12,-57.5 110.62,-57.5"/>
<text text-anchor="middle" x="138.88" y="-64" font-family="Helvetica,sans-Serif" font-size="10.00">Matrix3.h</text>
</a>
</g>
</g>
<!-- Node2&#45;&gt;Node12 -->
<g id="edge12" class="edge">
<title>Node2&#45;&gt;Node12</title>
<path fill="none" stroke="midnightblue" d="M162.5,-114.91C158.7,-107.44 153.07,-96.38 148.26,-86.93"/>
<polygon fill="midnightblue" stroke="midnightblue" points="150.97,-85.54 143.31,-78.21 144.73,-88.71 150.97,-85.54"/>
</g>
<!-- Node7&#45;&gt;Node7 -->
<g id="edge7" class="edge">
<title>Node7&#45;&gt;Node7</title>
<path fill="none" stroke="midnightblue" d="M278.43,-77.43C289.93,-79.83 300.88,-76.52 300.88,-67.5 300.88,-61.44 295.93,-57.96 289.2,-57.05"/>
<polygon fill="midnightblue" stroke="midnightblue" points="289.25,-53.59 279.43,-57.57 289.58,-60.59 289.25,-53.59"/>
</g>
<!-- Node8 -->
<g id="node8" class="node">
<title>Node8</title>
<g id="a_node8"><a xlink:title=" ">
<polygon fill="none" stroke="#bfbfbf" points="193.38,-0.5 193.38,-20.5 236.38,-20.5 236.38,-0.5 193.38,-0.5"/>
<text text-anchor="middle" x="214.88" y="-7" font-family="Helvetica,sans-Serif" font-size="10.00">cmath</text>
</a>
</g>
</g>
<!-- Node7&#45;&gt;Node8 -->
<g id="edge8" class="edge">
<title>Node7&#45;&gt;Node8</title>
<path fill="none" stroke="midnightblue" d="M252.84,-57.91C246.47,-50.12 236.9,-38.42 228.96,-28.71"/>
<polygon fill="midnightblue" stroke="midnightblue" points="231.05,-26.74 222.01,-21.21 225.63,-31.17 231.05,-26.74"/>
</g>
<!-- Node9 -->
<g id="node9" class="node">
<title>Node9</title>
<g id="a_node9"><a xlink:title=" ">
<polygon fill="none" stroke="#bfbfbf" points="254.25,-0.5 254.25,-20.5 293.5,-20.5 293.5,-0.5 254.25,-0.5"/>
<text text-anchor="middle" x="273.88" y="-7" font-family="Helvetica,sans-Serif" font-size="10.00">limits</text>
</a>
</g>
</g>
<!-- Node7&#45;&gt;Node9 -->
<g id="edge9" class="edge">
<title>Node7&#45;&gt;Node9</title>
<path fill="none" stroke="midnightblue" d="M262.06,-57.91C263.9,-50.68 266.6,-40.09 268.95,-30.85"/>
<polygon fill="midnightblue" stroke="midnightblue" points="272.58,-31.77 271.66,-21.21 265.8,-30.04 272.58,-31.77"/>
</g>
<!-- Node10 -->
<g id="node10" class="node">
<title>Node10</title>
<g id="a_node10"><a xlink:title=" ">
<polygon fill="none" stroke="#bfbfbf" points="311.12,-0.5 311.12,-20.5 364.62,-20.5 364.62,-0.5 311.12,-0.5"/>
<text text-anchor="middle" x="337.88" y="-7" font-family="Helvetica,sans-Serif" font-size="10.00">numbers</text>
</a>
</g>
</g>
<!-- Node7&#45;&gt;Node10 -->
<g id="edge10" class="edge">
<title>Node7&#45;&gt;Node10</title>
<path fill="none" stroke="midnightblue" d="M272.41,-57.66C284.28,-49.29 302.34,-36.56 316.49,-26.58"/>
<polygon fill="midnightblue" stroke="midnightblue" points="317.96,-29.12 324.11,-20.5 313.93,-23.4 317.96,-29.12"/>
</g>
<!-- Node11 -->
<g id="node11" class="node">
<title>Node11</title>
<g id="a_node11"><a xlink:title=" ">
<polygon fill="none" stroke="#bfbfbf" points="382.75,-0.5 382.75,-20.5 431,-20.5 431,-0.5 382.75,-0.5"/>
<text text-anchor="middle" x="406.88" y="-7" font-family="Helvetica,sans-Serif" font-size="10.00">random</text>
</a>
</g>
</g>
<!-- Node7&#45;&gt;Node11 -->
<g id="edge11" class="edge">
<title>Node7&#45;&gt;Node11</title>
<path fill="none" stroke="midnightblue" d="M282.84,-57.91C307.05,-48.85 345.41,-34.5 373.07,-24.15"/>
<polygon fill="midnightblue" stroke="midnightblue" points="373.95,-27.18 382.09,-20.4 371.5,-20.62 373.95,-27.18"/>
</g>
<!-- Node12&#45;&gt;Node3 -->
<g id="edge13" class="edge">
<title>Node12&#45;&gt;Node3</title>
<path fill="none" stroke="midnightblue" d="M119.33,-57.54C99.83,-48.61 69.68,-34.78 47.49,-24.62"/>
<polygon fill="midnightblue" stroke="midnightblue" points="49.17,-21.08 38.62,-20.09 46.26,-27.44 49.17,-21.08"/>
</g>
<!-- Node12&#45;&gt;Node4 -->
<g id="edge16" class="edge">
<title>Node12&#45;&gt;Node4</title>
<path fill="none" stroke="midnightblue" d="M129.88,-57.66C121.76,-49.69 109.61,-37.76 99.7,-28.02"/>
<polygon fill="midnightblue" stroke="midnightblue" points="102.62,-26.01 93.04,-21.5 97.72,-31 102.62,-26.01"/>
</g>
<!-- Node12&#45;&gt;Node6 -->
<g id="edge15" class="edge">
<title>Node12&#45;&gt;Node6</title>
<path fill="none" stroke="midnightblue" d="M140.91,-57.91C142.61,-50.68 145.12,-40.09 147.3,-30.85"/>
<polygon fill="midnightblue" stroke="midnightblue" points="150.92,-31.75 149.82,-21.21 144.11,-30.14 150.92,-31.75"/>
</g>
<!-- Node12&#45;&gt;Node8 -->
<g id="edge14" class="edge">
<title>Node12&#45;&gt;Node8</title>
<path fill="none" stroke="midnightblue" d="M151.09,-57.66C162.54,-49.37 179.92,-36.8 193.64,-26.87"/>
<polygon fill="midnightblue" stroke="midnightblue" points="195.39,-29.2 201.44,-20.5 191.29,-23.52 195.39,-29.2"/>
</g>
</g>
</svg>
