<?xml version="1.0" encoding="UTF-8" standalone="no"?>
<!DOCTYPE svg PUBLIC "-//W3C//DTD SVG 1.1//EN"
 "http://www.w3.org/Graphics/SVG/1.1/DTD/svg11.dtd">
<!-- Generated by graphviz version 8.1.0 (20230707.0739)
 -->
<!-- Title: include/IndexedTriangleList.h Pages: 1 -->
<svg width="1075pt" height="293pt"
 viewBox="0.00 0.00 1074.66 293.00" xmlns="http://www.w3.org/2000/svg" xmlns:xlink="http://www.w3.org/1999/xlink">
<g id="graph0" class="graph" transform="scale(1 1) rotate(0) translate(4 289)">
<title>include/IndexedTriangleList.h</title>
<!-- Node1 -->
<g id="node1" class="node">
<title>Node1</title>
<g id="a_node1"><a xlink:title=" ">
<polygon fill="#bfbfbf" stroke="black" points="400.92,-264.5 400.92,-284.5 542.17,-284.5 542.17,-264.5 400.92,-264.5"/>
<text text-anchor="middle" x="471.55" y="-271" font-family="Helvetica,sans-Serif" font-size="10.00">include/IndexedTriangleList.h</text>
</a>
</g>
</g>
<!-- Node2 -->
<g id="node2" class="node">
<title>Node2</title>
<g id="a_node2"><a xlink:href="_pipeline_8h.html" target="_top" xlink:title=" ">
<polygon fill="none" stroke="black" points="425.3,-201.5 425.3,-221.5 517.8,-221.5 517.8,-201.5 425.3,-201.5"/>
<text text-anchor="middle" x="471.55" y="-208" font-family="Helvetica,sans-Serif" font-size="10.00">include/Pipeline.h</text>
</a>
</g>
</g>
<!-- Node1&#45;&gt;Node2 -->
<g id="edge1" class="edge">
<title>Node1&#45;&gt;Node2</title>
<path fill="none" stroke="midnightblue" d="M471.55,-253.99C471.55,-242.97 471.55,-229.73 471.55,-221.22"/>
<polygon fill="midnightblue" stroke="midnightblue" points="468.05,-253.76 471.55,-263.76 475.05,-253.76 468.05,-253.76"/>
</g>
<!-- Node15 -->
<g id="node15" class="node">
<title>Node15</title>
<g id="a_node15"><a xlink:href="_cube_8h.html" target="_top" xlink:title=" ">
<polygon fill="none" stroke="black" points="209.67,-126.5 209.67,-158.5 301.42,-158.5 301.42,-126.5 209.67,-126.5"/>
<text text-anchor="start" x="217.67" y="-145" font-family="Helvetica,sans-Serif" font-size="10.00">include/Primitives</text>
<text text-anchor="middle" x="255.55" y="-133" font-family="Helvetica,sans-Serif" font-size="10.00">/Cube.h</text>
</a>
</g>
</g>
<!-- Node1&#45;&gt;Node15 -->
<g id="edge24" class="edge">
<title>Node1&#45;&gt;Node15</title>
<path fill="none" stroke="midnightblue" d="M447.4,-258.97C406.09,-234.11 322.3,-183.67 280.47,-158.5"/>
<polygon fill="midnightblue" stroke="midnightblue" points="445.33,-262.41 455.7,-264.56 448.94,-256.41 445.33,-262.41"/>
</g>
<!-- Node16 -->
<g id="node16" class="node">
<title>Node16</title>
<g id="a_node16"><a xlink:href="_plane_8h.html" target="_top" xlink:title=" ">
<polygon fill="none" stroke="black" points="807.67,-195.5 807.67,-227.5 899.42,-227.5 899.42,-195.5 807.67,-195.5"/>
<text text-anchor="start" x="815.67" y="-214" font-family="Helvetica,sans-Serif" font-size="10.00">include/Primitives</text>
<text text-anchor="middle" x="853.55" y="-202" font-family="Helvetica,sans-Serif" font-size="10.00">/Plane.h</text>
</a>
</g>
</g>
<!-- Node1&#45;&gt;Node16 -->
<g id="edge30" class="edge">
<title>Node1&#45;&gt;Node16</title>
<path fill="none" stroke="midnightblue" d="M538.08,-262.88C615.39,-250.53 740.89,-230.49 807.92,-219.79"/>
<polygon fill="midnightblue" stroke="midnightblue" points="537.82,-259.53 528.5,-264.56 538.93,-266.44 537.82,-259.53"/>
</g>
<!-- Node3 -->
<g id="node3" class="node">
<title>Node3</title>
<g id="a_node3"><a xlink:href="_solid_effect_8h.html" target="_top" xlink:title=" ">
<polygon fill="none" stroke="black" points="15.8,-132.5 15.8,-152.5 153.3,-152.5 153.3,-132.5 15.8,-132.5"/>
<text text-anchor="middle" x="84.55" y="-139" font-family="Helvetica,sans-Serif" font-size="10.00">include/Effects/SolidEffect.h</text>
</a>
</g>
</g>
<!-- Node2&#45;&gt;Node3 -->
<g id="edge2" class="edge">
<title>Node2&#45;&gt;Node3</title>
<path fill="none" stroke="midnightblue" d="M414.84,-201.19C353.74,-191.08 253.68,-174.34 167.55,-159 156,-156.94 143.57,-154.66 131.92,-152.49"/>
<polygon fill="midnightblue" stroke="midnightblue" points="413.97,-204.76 424.41,-202.93 415.11,-197.85 413.97,-204.76"/>
</g>
<!-- Node4 -->
<g id="node4" class="node">
<title>Node4</title>
<g id="a_node4"><a xlink:href="_cube_solid_scene_8h.html" target="_top" xlink:title=" ">
<polygon fill="none" stroke="black" points="156.55,-57.5 156.55,-89.5 286.55,-89.5 286.55,-57.5 156.55,-57.5"/>
<text text-anchor="start" x="164.55" y="-76" font-family="Helvetica,sans-Serif" font-size="10.00">include/Scenes/CubeSolid</text>
<text text-anchor="middle" x="221.55" y="-64" font-family="Helvetica,sans-Serif" font-size="10.00">Scene.h</text>
</a>
</g>
</g>
<!-- Node2&#45;&gt;Node4 -->
<g id="edge20" class="edge">
<title>Node2&#45;&gt;Node4</title>
<path fill="none" stroke="midnightblue" d="M414.79,-207.95C343.48,-203.43 227.2,-191.19 200.55,-159 183.97,-138.97 199.14,-107.71 210.89,-89.35"/>
<polygon fill="midnightblue" stroke="midnightblue" points="414.2,-211.49 424.39,-208.59 414.62,-204.5 414.2,-211.49"/>
</g>
<!-- Node6 -->
<g id="node6" class="node">
<title>Node6</title>
<g id="a_node6"><a xlink:href="_double_cube_scene_8h.html" target="_top" xlink:title=" ">
<polygon fill="none" stroke="black" points="0.42,-57.5 0.42,-89.5 138.67,-89.5 138.67,-57.5 0.42,-57.5"/>
<text text-anchor="start" x="8.42" y="-76" font-family="Helvetica,sans-Serif" font-size="10.00">include/Scenes/DoubleCube</text>
<text text-anchor="middle" x="69.55" y="-64" font-family="Helvetica,sans-Serif" font-size="10.00">Scene.h</text>
</a>
</g>
</g>
<!-- Node2&#45;&gt;Node6 -->
<g id="edge23" class="edge">
<title>Node2&#45;&gt;Node6</title>
<path fill="none" stroke="midnightblue" d="M414.65,-208.37C296.51,-203.36 33.35,-188.93 6.55,-159 -13.96,-136.1 19.58,-106.86 45.06,-89.47"/>
<polygon fill="midnightblue" stroke="midnightblue" points="414.48,-211.91 424.61,-208.83 414.77,-204.91 414.48,-211.91"/>
</g>
<!-- Node7 -->
<g id="node7" class="node">
<title>Node7</title>
<g id="a_node7"><a xlink:href="_texture_effect_8h.html" target="_top" xlink:title=" ">
<polygon fill="none" stroke="black" points="749.55,-132.5 749.55,-152.5 897.55,-152.5 897.55,-132.5 749.55,-132.5"/>
<text text-anchor="middle" x="823.55" y="-139" font-family="Helvetica,sans-Serif" font-size="10.00">include/Effects/TextureEffect.h</text>
</a>
</g>
</g>
<!-- Node2&#45;&gt;Node7 -->
<g id="edge7" class="edge">
<title>Node2&#45;&gt;Node7</title>
<path fill="none" stroke="midnightblue" d="M528.21,-199.71C597.1,-186.6 712.11,-164.71 776.39,-152.48"/>
<polygon fill="midnightblue" stroke="midnightblue" points="527.73,-196.43 518.56,-201.74 529.04,-203.31 527.73,-196.43"/>
</g>
<!-- Node8 -->
<g id="node8" class="node">
<title>Node8</title>
<g id="a_node8"><a xlink:href="_cube_skin_scene_8h.html" target="_top" xlink:title=" ">
<polygon fill="none" stroke="black" points="622.67,-63.5 622.67,-83.5 786.42,-83.5 786.42,-63.5 622.67,-63.5"/>
<text text-anchor="middle" x="704.55" y="-70" font-family="Helvetica,sans-Serif" font-size="10.00">include/Scenes/CubeSkinScene.h</text>
</a>
</g>
</g>
<!-- Node2&#45;&gt;Node8 -->
<g id="edge19" class="edge">
<title>Node2&#45;&gt;Node8</title>
<path fill="none" stroke="midnightblue" d="M528.28,-205.74C589.39,-199.31 680.81,-185.47 702.55,-159 720.52,-137.11 712.53,-100.2 707.51,-83.36"/>
<polygon fill="midnightblue" stroke="midnightblue" points="528.22,-202.33 518.63,-206.82 528.93,-209.29 528.22,-202.33"/>
</g>
<!-- Node9 -->
<g id="node9" class="node">
<title>Node9</title>
<g id="a_node9"><a xlink:href="_vertex_color_effect_8h.html" target="_top" xlink:title=" ">
<polygon fill="none" stroke="black" points="357.67,-126.5 357.67,-158.5 491.42,-158.5 491.42,-126.5 357.67,-126.5"/>
<text text-anchor="start" x="365.67" y="-145" font-family="Helvetica,sans-Serif" font-size="10.00">include/Effects/VertexColor</text>
<text text-anchor="middle" x="424.55" y="-133" font-family="Helvetica,sans-Serif" font-size="10.00">Effect.h</text>
</a>
</g>
</g>
<!-- Node2&#45;&gt;Node9 -->
<g id="edge10" class="edge">
<title>Node2&#45;&gt;Node9</title>
<path fill="none" stroke="midnightblue" d="M459.17,-192.86C451.65,-182.14 442.15,-168.6 435,-158.41"/>
<polygon fill="midnightblue" stroke="midnightblue" points="456.79,-194.56 465.4,-200.74 462.52,-190.54 456.79,-194.56"/>
</g>
<!-- Node10 -->
<g id="node10" class="node">
<title>Node10</title>
<g id="a_node10"><a xlink:href="_cube_vertex_color_scene_8h.html" target="_top" xlink:title=" ">
<polygon fill="none" stroke="black" points="304.17,-57.5 304.17,-89.5 440.92,-89.5 440.92,-57.5 304.17,-57.5"/>
<text text-anchor="start" x="312.17" y="-76" font-family="Helvetica,sans-Serif" font-size="10.00">include/Scenes/CubeVertex</text>
<text text-anchor="middle" x="372.55" y="-64" font-family="Helvetica,sans-Serif" font-size="10.00">ColorScene.h</text>
</a>
</g>
</g>
<!-- Node2&#45;&gt;Node10 -->
<g id="edge21" class="edge">
<title>Node2&#45;&gt;Node10</title>
<path fill="none" stroke="midnightblue" d="M415.01,-201.27C390.24,-194.11 363.47,-181.43 348.55,-159 334.18,-137.42 349.48,-107.24 361.38,-89.39"/>
<polygon fill="midnightblue" stroke="midnightblue" points="413.9,-204.86 424.46,-204.01 415.68,-198.09 413.9,-204.86"/>
</g>
<!-- Node11 -->
<g id="node11" class="node">
<title>Node11</title>
<g id="a_node11"><a xlink:href="_vertex_position_color_effect_8h.html" target="_top" xlink:title=" ">
<polygon fill="none" stroke="black" points="547.3,-126.5 547.3,-158.5 693.8,-158.5 693.8,-126.5 547.3,-126.5"/>
<text text-anchor="start" x="555.3" y="-145" font-family="Helvetica,sans-Serif" font-size="10.00">include/Effects/VertexPosition</text>
<text text-anchor="middle" x="620.55" y="-133" font-family="Helvetica,sans-Serif" font-size="10.00">ColorEffect.h</text>
</a>
</g>
</g>
<!-- Node2&#45;&gt;Node11 -->
<g id="edge13" class="edge">
<title>Node2&#45;&gt;Node11</title>
<path fill="none" stroke="midnightblue" d="M501.27,-197.13C526.1,-185.97 561.47,-170.06 587.25,-158.47"/>
<polygon fill="midnightblue" stroke="midnightblue" points="500.02,-194.31 492.33,-201.6 502.89,-200.69 500.02,-194.31"/>
</g>
<!-- Node12 -->
<g id="node12" class="node">
<title>Node12</title>
<g id="a_node12"><a xlink:href="_cube_vertex_position_color_scene_8h.html" target="_top" xlink:title=" ">
<polygon fill="none" stroke="black" points="459.17,-57.5 459.17,-89.5 595.92,-89.5 595.92,-57.5 459.17,-57.5"/>
<text text-anchor="start" x="467.17" y="-76" font-family="Helvetica,sans-Serif" font-size="10.00">include/Scenes/CubeVertex</text>
<text text-anchor="middle" x="527.55" y="-64" font-family="Helvetica,sans-Serif" font-size="10.00">PositionColorScene.h</text>
</a>
</g>
</g>
<!-- Node2&#45;&gt;Node12 -->
<g id="edge22" class="edge">
<title>Node2&#45;&gt;Node12</title>
<path fill="none" stroke="midnightblue" d="M482.97,-192.35C488.73,-182.69 495.55,-170.47 500.55,-159 510.82,-135.42 519.18,-106.65 523.75,-89.49"/>
<polygon fill="midnightblue" stroke="midnightblue" points="479.5,-190.31 477.25,-200.67 485.46,-193.97 479.5,-190.31"/>
</g>
<!-- Node13 -->
<g id="node13" class="node">
<title>Node13</title>
<g id="a_node13"><a xlink:href="_wave_vertex_texture_effect_8h.html" target="_top" xlink:title=" ">
<polygon fill="none" stroke="black" points="915.92,-126.5 915.92,-158.5 1051.17,-158.5 1051.17,-126.5 915.92,-126.5"/>
<text text-anchor="start" x="923.92" y="-145" font-family="Helvetica,sans-Serif" font-size="10.00">include/Effects/WaveVertex</text>
<text text-anchor="middle" x="983.55" y="-133" font-family="Helvetica,sans-Serif" font-size="10.00">TextureEffect.h</text>
</a>
</g>
</g>
<!-- Node2&#45;&gt;Node13 -->
<g id="edge16" class="edge">
<title>Node2&#45;&gt;Node13</title>
<path fill="none" stroke="midnightblue" d="M528.5,-205.24C611.79,-197.21 771.61,-180.53 906.55,-159 909.64,-158.51 912.81,-157.98 916,-157.42"/>
<polygon fill="midnightblue" stroke="midnightblue" points="528.37,-201.83 518.75,-206.27 529.04,-208.8 528.37,-201.83"/>
</g>
<!-- Node3&#45;&gt;Node4 -->
<g id="edge3" class="edge">
<title>Node3&#45;&gt;Node4</title>
<path fill="none" stroke="midnightblue" d="M112.49,-127.83C135.28,-116.69 167.44,-100.96 190.93,-89.47"/>
<polygon fill="midnightblue" stroke="midnightblue" points="111.18,-125.07 103.74,-132.6 114.26,-131.35 111.18,-125.07"/>
</g>
<!-- Node3&#45;&gt;Node6 -->
<g id="edge5" class="edge">
<title>Node3&#45;&gt;Node6</title>
<path fill="none" stroke="midnightblue" d="M80.22,-122.2C77.89,-111.77 75.05,-99.08 72.88,-89.41"/>
<polygon fill="midnightblue" stroke="midnightblue" points="76.98,-122.75 82.58,-131.74 83.82,-121.22 76.98,-122.75"/>
</g>
<!-- Node5 -->
<g id="node5" class="node">
<title>Node5</title>
<g id="a_node5"><a xlink:href="_engine_8cpp.html" target="_top" xlink:title=" ">
<polygon fill="none" stroke="black" points="408.92,-0.5 408.92,-20.5 490.17,-20.5 490.17,-0.5 408.92,-0.5"/>
<text text-anchor="middle" x="449.55" y="-7" font-family="Helvetica,sans-Serif" font-size="10.00">src/Engine.cpp</text>
</a>
</g>
</g>
<!-- Node4&#45;&gt;Node5 -->
<g id="edge4" class="edge">
<title>Node4&#45;&gt;Node5</title>
<path fill="none" stroke="midnightblue" d="M287.78,-54.78C329.9,-43.51 382.64,-29.4 416.22,-20.42"/>
<polygon fill="midnightblue" stroke="midnightblue" points="287.08,-51.61 278.32,-57.58 288.89,-58.37 287.08,-51.61"/>
</g>
<!-- Node6&#45;&gt;Node5 -->
<g id="edge6" class="edge">
<title>Node6&#45;&gt;Node5</title>
<path fill="none" stroke="midnightblue" d="M148.96,-56.8C248.53,-39.61 353.42,-24.66 409.39,-16.94"/>
<polygon fill="midnightblue" stroke="midnightblue" points="148.67,-53.47 139.42,-58.63 149.87,-60.37 148.67,-53.47"/>
</g>
<!-- Node7&#45;&gt;Node8 -->
<g id="edge8" class="edge">
<title>Node7&#45;&gt;Node8</title>
<path fill="none" stroke="midnightblue" d="M798.66,-127.49C775.12,-114.24 740.52,-94.75 720.49,-83.48"/>
<polygon fill="midnightblue" stroke="midnightblue" points="796.56,-130.88 806.99,-132.74 799.99,-124.78 796.56,-130.88"/>
</g>
<!-- Node8&#45;&gt;Node5 -->
<g id="edge9" class="edge">
<title>Node8&#45;&gt;Node5</title>
<path fill="none" stroke="midnightblue" d="M656.51,-61.01C607.33,-49.25 531.93,-31.21 487,-20.46"/>
<polygon fill="midnightblue" stroke="midnightblue" points="655.65,-64.64 666.19,-63.56 657.28,-57.83 655.65,-64.64"/>
</g>
<!-- Node9&#45;&gt;Node10 -->
<g id="edge11" class="edge">
<title>Node9&#45;&gt;Node10</title>
<path fill="none" stroke="midnightblue" d="M406.29,-117.97C398.89,-108.45 390.58,-97.73 384.05,-89.33"/>
<polygon fill="midnightblue" stroke="midnightblue" points="404.11,-119.88 413.01,-125.63 409.64,-115.58 404.11,-119.88"/>
</g>
<!-- Node10&#45;&gt;Node5 -->
<g id="edge12" class="edge">
<title>Node10&#45;&gt;Node5</title>
<path fill="none" stroke="midnightblue" d="M399.6,-51.07C412.95,-40.49 428.33,-28.31 438.46,-20.28"/>
<polygon fill="midnightblue" stroke="midnightblue" points="397.85,-48.78 392.19,-57.73 402.2,-54.27 397.85,-48.78"/>
</g>
<!-- Node11&#45;&gt;Node12 -->
<g id="edge14" class="edge">
<title>Node11&#45;&gt;Node12</title>
<path fill="none" stroke="midnightblue" d="M591.12,-120.3C577.14,-110.23 560.76,-98.43 548.13,-89.33"/>
<polygon fill="midnightblue" stroke="midnightblue" points="588.75,-123.62 598.91,-126.63 592.84,-117.95 588.75,-123.62"/>
</g>
<!-- Node12&#45;&gt;Node5 -->
<g id="edge15" class="edge">
<title>Node12&#45;&gt;Node5</title>
<path fill="none" stroke="midnightblue" d="M500.15,-51.07C486.61,-40.49 471.04,-28.31 460.78,-20.28"/>
<polygon fill="midnightblue" stroke="midnightblue" points="497.63,-54.33 507.66,-57.73 501.94,-48.82 497.63,-54.33"/>
</g>
<!-- Node14 -->
<g id="node14" class="node">
<title>Node14</title>
<g id="a_node14"><a xlink:href="_vertex_wave_scene_8h.html" target="_top" xlink:title=" ">
<polygon fill="none" stroke="black" points="914.42,-57.5 914.42,-89.5 1052.67,-89.5 1052.67,-57.5 914.42,-57.5"/>
<text text-anchor="start" x="922.42" y="-76" font-family="Helvetica,sans-Serif" font-size="10.00">include/Scenes/VertexWave</text>
<text text-anchor="middle" x="983.55" y="-64" font-family="Helvetica,sans-Serif" font-size="10.00">Scene.h</text>
</a>
</g>
</g>
<!-- Node13&#45;&gt;Node14 -->
<g id="edge17" class="edge">
<title>Node13&#45;&gt;Node14</title>
<path fill="none" stroke="midnightblue" d="M983.55,-115.89C983.55,-106.91 983.55,-97.13 983.55,-89.33"/>
<polygon fill="midnightblue" stroke="midnightblue" points="980.05,-115.63 983.55,-125.63 987.05,-115.63 980.05,-115.63"/>
</g>
<!-- Node14&#45;&gt;Node5 -->
<g id="edge18" class="edge">
<title>Node14&#45;&gt;Node5</title>
<path fill="none" stroke="midnightblue" d="M903.66,-63.37C787.96,-50.16 578.01,-26.17 490.03,-16.13"/>
<polygon fill="midnightblue" stroke="midnightblue" points="903.22,-66.96 913.56,-64.62 904.02,-60.01 903.22,-66.96"/>
</g>
<!-- Node15&#45;&gt;Node4 -->
<g id="edge26" class="edge">
<title>Node15&#45;&gt;Node4</title>
<path fill="none" stroke="midnightblue" d="M243.16,-117.09C238.44,-107.79 233.2,-97.47 229.07,-89.33"/>
<polygon fill="midnightblue" stroke="midnightblue" points="240.35,-118.3 248,-125.63 246.6,-115.13 240.35,-118.3"/>
</g>
<!-- Node15&#45;&gt;Node6 -->
<g id="edge29" class="edge">
<title>Node15&#45;&gt;Node6</title>
<path fill="none" stroke="midnightblue" d="M204.21,-123.01C174.86,-112.44 138.55,-99.36 111.03,-89.44"/>
<polygon fill="midnightblue" stroke="midnightblue" points="202.67,-126.53 213.27,-126.63 205.04,-119.95 202.67,-126.53"/>
</g>
<!-- Node15&#45;&gt;Node8 -->
<g id="edge25" class="edge">
<title>Node15&#45;&gt;Node8</title>
<path fill="none" stroke="midnightblue" d="M312.2,-131.82C324.19,-129.84 336.78,-127.81 348.55,-126 462.11,-108.55 490.88,-106.8 604.55,-90 618.45,-87.94 633.43,-85.66 647.45,-83.49"/>
<polygon fill="midnightblue" stroke="midnightblue" points="311.68,-128.53 302.39,-133.62 312.83,-135.43 311.68,-128.53"/>
</g>
<!-- Node15&#45;&gt;Node10 -->
<g id="edge27" class="edge">
<title>Node15&#45;&gt;Node10</title>
<path fill="none" stroke="midnightblue" d="M290.56,-121.45C308.58,-111.13 330.16,-98.77 346.65,-89.33"/>
<polygon fill="midnightblue" stroke="midnightblue" points="289.45,-118.62 282.51,-126.63 292.93,-124.7 289.45,-118.62"/>
</g>
<!-- Node15&#45;&gt;Node12 -->
<g id="edge28" class="edge">
<title>Node15&#45;&gt;Node12</title>
<path fill="none" stroke="midnightblue" d="M311.88,-127.62C357.06,-116.5 420.36,-100.9 466.69,-89.49"/>
<polygon fill="midnightblue" stroke="midnightblue" points="311.25,-124.42 302.38,-130.21 312.93,-131.22 311.25,-124.42"/>
</g>
<!-- Node16&#45;&gt;Node14 -->
<g id="edge31" class="edge">
<title>Node16&#45;&gt;Node14</title>
<path fill="none" stroke="midnightblue" d="M909.59,-204.29C964.36,-196.93 1042.1,-182.59 1060.55,-159 1069.58,-147.44 1067.46,-138.94 1060.55,-126 1051.83,-109.69 1035.41,-97.64 1019.96,-89.31"/>
<polygon fill="midnightblue" stroke="midnightblue" points="909.43,-200.91 899.97,-205.67 910.34,-207.85 909.43,-200.91"/>
</g>
</g>
</svg>
