<?xml version="1.0" encoding="UTF-8" standalone="no"?>
<!DOCTYPE svg PUBLIC "-//W3C//DTD SVG 1.1//EN"
 "http://www.w3.org/Graphics/SVG/1.1/DTD/svg11.dtd">
<!-- Generated by graphviz version 8.1.0 (20230707.0739)
 -->
<!-- Title: include/Keyboard.h Pages: 1 -->
<svg width="1422pt" height="212pt"
 viewBox="0.00 0.00 1422.12 212.00" xmlns="http://www.w3.org/2000/svg" xmlns:xlink="http://www.w3.org/1999/xlink">
<g id="graph0" class="graph" transform="scale(1 1) rotate(0) translate(4 208)">
<title>include/Keyboard.h</title>
<!-- Node1 -->
<g id="node1" class="node">
<title>Node1</title>
<g id="a_node1"><a xlink:title=" ">
<polygon fill="#bfbfbf" stroke="black" points="958.38,-183.5 958.38,-203.5 1057.62,-203.5 1057.62,-183.5 958.38,-183.5"/>
<text text-anchor="middle" x="1008" y="-190" font-family="Helvetica,sans-Serif" font-size="10.00">include/Keyboard.h</text>
</a>
</g>
</g>
<!-- Node2 -->
<g id="node2" class="node">
<title>Node2</title>
<g id="a_node2"><a xlink:href="_main_window_8h.html" target="_top" xlink:title=" ">
<polygon fill="none" stroke="black" points="1206.25,-63.5 1206.25,-83.5 1319.75,-83.5 1319.75,-63.5 1206.25,-63.5"/>
<text text-anchor="middle" x="1263" y="-70" font-family="Helvetica,sans-Serif" font-size="10.00">include/MainWindow.h</text>
</a>
</g>
</g>
<!-- Node1&#45;&gt;Node2 -->
<g id="edge1" class="edge">
<title>Node1&#45;&gt;Node2</title>
<path fill="none" stroke="midnightblue" d="M1008.39,-173.07C1009.76,-158.11 1014.11,-138.02 1027,-126 1083.48,-73.32 1121.62,-106.83 1197,-90 1206.19,-87.95 1216.08,-85.66 1225.34,-83.5"/>
<polygon fill="midnightblue" stroke="midnightblue" points="1004.86,-172.55 1007.82,-182.72 1011.85,-172.92 1004.86,-172.55"/>
</g>
<!-- Node7 -->
<g id="node7" class="node">
<title>Node7</title>
<g id="a_node7"><a xlink:href="_scene_8h.html" target="_top" xlink:title=" ">
<polygon fill="none" stroke="black" points="640.12,-126.5 640.12,-146.5 725.88,-146.5 725.88,-126.5 640.12,-126.5"/>
<text text-anchor="middle" x="683" y="-133" font-family="Helvetica,sans-Serif" font-size="10.00">include/Scene.h</text>
</a>
</g>
</g>
<!-- Node1&#45;&gt;Node7 -->
<g id="edge6" class="edge">
<title>Node1&#45;&gt;Node7</title>
<path fill="none" stroke="midnightblue" d="M947.83,-182.32C883.36,-171.41 782.65,-154.36 725.81,-144.74"/>
<polygon fill="midnightblue" stroke="midnightblue" points="947.2,-185.93 957.64,-184.15 948.36,-179.03 947.2,-185.93"/>
</g>
<!-- Node16 -->
<g id="node16" class="node">
<title>Node16</title>
<g id="a_node16"><a xlink:href="_keyboard_8cpp.html" target="_top" xlink:title=" ">
<polygon fill="none" stroke="black" points="1035.75,-126.5 1035.75,-146.5 1128.25,-146.5 1128.25,-126.5 1035.75,-126.5"/>
<text text-anchor="middle" x="1082" y="-133" font-family="Helvetica,sans-Serif" font-size="10.00">src/Keyboard.cpp</text>
</a>
</g>
</g>
<!-- Node1&#45;&gt;Node16 -->
<g id="edge25" class="edge">
<title>Node1&#45;&gt;Node16</title>
<path fill="none" stroke="midnightblue" d="M1028.42,-177.32C1041.74,-167.43 1058.67,-154.84 1069.89,-146.5"/>
<polygon fill="midnightblue" stroke="midnightblue" points="1026.83,-174.89 1020.89,-183.66 1031,-180.51 1026.83,-174.89"/>
</g>
<!-- Node3 -->
<g id="node3" class="node">
<title>Node3</title>
<g id="a_node3"><a xlink:href="_engine_8cpp.html" target="_top" xlink:title=" ">
<polygon fill="none" stroke="black" points="642.38,-0.5 642.38,-20.5 723.62,-20.5 723.62,-0.5 642.38,-0.5"/>
<text text-anchor="middle" x="683" y="-7" font-family="Helvetica,sans-Serif" font-size="10.00">src/Engine.cpp</text>
</a>
</g>
</g>
<!-- Node2&#45;&gt;Node3 -->
<g id="edge2" class="edge">
<title>Node2&#45;&gt;Node3</title>
<path fill="none" stroke="midnightblue" d="M1218.35,-61.11C1211.24,-59.56 1203.95,-58.12 1197,-57 1022.09,-28.87 810.7,-17.05 723.56,-13.13"/>
<polygon fill="midnightblue" stroke="midnightblue" points="1217.4,-64.71 1227.93,-63.52 1218.96,-57.89 1217.4,-64.71"/>
</g>
<!-- Node4 -->
<g id="node4" class="node">
<title>Node4</title>
<g id="a_node4"><a xlink:href="_graphics_8cpp.html" target="_top" xlink:title=" ">
<polygon fill="none" stroke="black" points="1323.88,-0.5 1323.88,-20.5 1414.12,-20.5 1414.12,-0.5 1323.88,-0.5"/>
<text text-anchor="middle" x="1369" y="-7" font-family="Helvetica,sans-Serif" font-size="10.00">src/Graphics.cpp</text>
</a>
</g>
</g>
<!-- Node2&#45;&gt;Node4 -->
<g id="edge3" class="edge">
<title>Node2&#45;&gt;Node4</title>
<path fill="none" stroke="midnightblue" d="M1287.45,-58.43C1307.8,-46.72 1336.14,-30.41 1353.5,-20.42"/>
<polygon fill="midnightblue" stroke="midnightblue" points="1286.11,-55.74 1279.19,-63.76 1289.6,-61.81 1286.11,-55.74"/>
</g>
<!-- Node5 -->
<g id="node5" class="node">
<title>Node5</title>
<g id="a_node5"><a xlink:href="_main_8cpp.html" target="_top" xlink:title=" ">
<polygon fill="none" stroke="black" points="1107.88,-0.5 1107.88,-20.5 1180.12,-20.5 1180.12,-0.5 1107.88,-0.5"/>
<text text-anchor="middle" x="1144" y="-7" font-family="Helvetica,sans-Serif" font-size="10.00">src/Main.cpp</text>
</a>
</g>
</g>
<!-- Node2&#45;&gt;Node5 -->
<g id="edge4" class="edge">
<title>Node2&#45;&gt;Node5</title>
<path fill="none" stroke="midnightblue" d="M1236.21,-58.77C1213.3,-47.02 1180.99,-30.46 1161.32,-20.38"/>
<polygon fill="midnightblue" stroke="midnightblue" points="1234.2,-62.18 1244.7,-63.63 1237.39,-55.95 1234.2,-62.18"/>
</g>
<!-- Node6 -->
<g id="node6" class="node">
<title>Node6</title>
<g id="a_node6"><a xlink:href="_main_window_8cpp.html" target="_top" xlink:title=" ">
<polygon fill="none" stroke="black" points="1198.62,-0.5 1198.62,-20.5 1305.38,-20.5 1305.38,-0.5 1198.62,-0.5"/>
<text text-anchor="middle" x="1252" y="-7" font-family="Helvetica,sans-Serif" font-size="10.00">src/MainWindow.cpp</text>
</a>
</g>
</g>
<!-- Node2&#45;&gt;Node6 -->
<g id="edge5" class="edge">
<title>Node2&#45;&gt;Node6</title>
<path fill="none" stroke="midnightblue" d="M1259.48,-52.99C1257.49,-41.97 1255.11,-28.73 1253.57,-20.22"/>
<polygon fill="midnightblue" stroke="midnightblue" points="1256.2,-53.54 1261.42,-62.76 1263.09,-52.3 1256.2,-53.54"/>
</g>
<!-- Node8 -->
<g id="node8" class="node">
<title>Node8</title>
<g id="a_node8"><a xlink:href="_engine_8h.html" target="_top" xlink:title=" ">
<polygon fill="none" stroke="black" points="1100,-63.5 1100,-83.5 1188,-83.5 1188,-63.5 1100,-63.5"/>
<text text-anchor="middle" x="1144" y="-70" font-family="Helvetica,sans-Serif" font-size="10.00">include/Engine.h</text>
</a>
</g>
</g>
<!-- Node7&#45;&gt;Node8 -->
<g id="edge7" class="edge">
<title>Node7&#45;&gt;Node8</title>
<path fill="none" stroke="midnightblue" d="M736.23,-132.52C814.55,-127.47 965.19,-115.21 1091,-90 1099.46,-88.3 1108.52,-85.89 1116.72,-83.46"/>
<polygon fill="midnightblue" stroke="midnightblue" points="736.42,-129.06 726.66,-133.18 736.86,-136.05 736.42,-129.06"/>
</g>
<!-- Node9 -->
<g id="node9" class="node">
<title>Node9</title>
<g id="a_node9"><a xlink:href="_cube_skin_scene_8h.html" target="_top" xlink:title=" ">
<polygon fill="none" stroke="black" points="770.12,-63.5 770.12,-83.5 933.88,-83.5 933.88,-63.5 770.12,-63.5"/>
<text text-anchor="middle" x="852" y="-70" font-family="Helvetica,sans-Serif" font-size="10.00">include/Scenes/CubeSkinScene.h</text>
</a>
</g>
</g>
<!-- Node7&#45;&gt;Node9 -->
<g id="edge11" class="edge">
<title>Node7&#45;&gt;Node9</title>
<path fill="none" stroke="midnightblue" d="M717.56,-123.02C750.14,-111.27 798.16,-93.93 827.12,-83.48"/>
<polygon fill="midnightblue" stroke="midnightblue" points="716.79,-119.94 708.57,-126.63 719.17,-126.53 716.79,-119.94"/>
</g>
<!-- Node10 -->
<g id="node10" class="node">
<title>Node10</title>
<g id="a_node10"><a xlink:href="_cube_solid_geometry_scene_8h.html" target="_top" xlink:title=" ">
<polygon fill="none" stroke="black" points="952,-57.5 952,-89.5 1082,-89.5 1082,-57.5 952,-57.5"/>
<text text-anchor="start" x="960" y="-76" font-family="Helvetica,sans-Serif" font-size="10.00">include/Scenes/CubeSolid</text>
<text text-anchor="middle" x="1017" y="-64" font-family="Helvetica,sans-Serif" font-size="10.00">GeometryScene.h</text>
</a>
</g>
</g>
<!-- Node7&#45;&gt;Node10 -->
<g id="edge13" class="edge">
<title>Node7&#45;&gt;Node10</title>
<path fill="none" stroke="midnightblue" d="M736.63,-126.65C789.27,-117.84 871.79,-103.69 943,-90 945.96,-89.43 948.99,-88.84 952.05,-88.23"/>
<polygon fill="midnightblue" stroke="midnightblue" points="736.15,-123.35 726.87,-128.45 737.31,-130.25 736.15,-123.35"/>
</g>
<!-- Node11 -->
<g id="node11" class="node">
<title>Node11</title>
<g id="a_node11"><a xlink:href="_cube_solid_scene_8h.html" target="_top" xlink:title=" ">
<polygon fill="none" stroke="black" points="0,-57.5 0,-89.5 130,-89.5 130,-57.5 0,-57.5"/>
<text text-anchor="start" x="8" y="-76" font-family="Helvetica,sans-Serif" font-size="10.00">include/Scenes/CubeSolid</text>
<text text-anchor="middle" x="65" y="-64" font-family="Helvetica,sans-Serif" font-size="10.00">Scene.h</text>
</a>
</g>
</g>
<!-- Node7&#45;&gt;Node11 -->
<g id="edge15" class="edge">
<title>Node7&#45;&gt;Node11</title>
<path fill="none" stroke="midnightblue" d="M629.34,-133.2C531.46,-128.53 317.57,-116.07 139,-90 136.01,-89.56 132.96,-89.08 129.89,-88.56"/>
<polygon fill="midnightblue" stroke="midnightblue" points="628.97,-136.74 639.13,-133.71 629.3,-129.75 628.97,-136.74"/>
</g>
<!-- Node12 -->
<g id="node12" class="node">
<title>Node12</title>
<g id="a_node12"><a xlink:href="_cube_vertex_color_scene_8h.html" target="_top" xlink:title=" ">
<polygon fill="none" stroke="black" points="147.62,-57.5 147.62,-89.5 284.38,-89.5 284.38,-57.5 147.62,-57.5"/>
<text text-anchor="start" x="155.62" y="-76" font-family="Helvetica,sans-Serif" font-size="10.00">include/Scenes/CubeVertex</text>
<text text-anchor="middle" x="216" y="-64" font-family="Helvetica,sans-Serif" font-size="10.00">ColorScene.h</text>
</a>
</g>
</g>
<!-- Node7&#45;&gt;Node12 -->
<g id="edge17" class="edge">
<title>Node7&#45;&gt;Node12</title>
<path fill="none" stroke="midnightblue" d="M629.66,-130.62C554.54,-123.44 413.39,-108.81 294,-90 290.73,-89.48 287.38,-88.93 284.01,-88.35"/>
<polygon fill="midnightblue" stroke="midnightblue" points="628.97,-134.16 639.25,-131.63 629.63,-127.2 628.97,-134.16"/>
</g>
<!-- Node13 -->
<g id="node13" class="node">
<title>Node13</title>
<g id="a_node13"><a xlink:href="_cube_vertex_position_color_scene_8h.html" target="_top" xlink:title=" ">
<polygon fill="none" stroke="black" points="302.62,-57.5 302.62,-89.5 439.38,-89.5 439.38,-57.5 302.62,-57.5"/>
<text text-anchor="start" x="310.62" y="-76" font-family="Helvetica,sans-Serif" font-size="10.00">include/Scenes/CubeVertex</text>
<text text-anchor="middle" x="371" y="-64" font-family="Helvetica,sans-Serif" font-size="10.00">PositionColorScene.h</text>
</a>
</g>
</g>
<!-- Node7&#45;&gt;Node13 -->
<g id="edge19" class="edge">
<title>Node7&#45;&gt;Node13</title>
<path fill="none" stroke="midnightblue" d="M629.65,-125.19C582.22,-116.01 510.97,-102.18 449,-90 445.75,-89.36 442.42,-88.71 439.06,-88.04"/>
<polygon fill="midnightblue" stroke="midnightblue" points="628.81,-128.79 639.29,-127.25 630.14,-121.91 628.81,-128.79"/>
</g>
<!-- Node14 -->
<g id="node14" class="node">
<title>Node14</title>
<g id="a_node14"><a xlink:href="_double_cube_scene_8h.html" target="_top" xlink:title=" ">
<polygon fill="none" stroke="black" points="457.88,-57.5 457.88,-89.5 596.12,-89.5 596.12,-57.5 457.88,-57.5"/>
<text text-anchor="start" x="465.88" y="-76" font-family="Helvetica,sans-Serif" font-size="10.00">include/Scenes/DoubleCube</text>
<text text-anchor="middle" x="527" y="-64" font-family="Helvetica,sans-Serif" font-size="10.00">Scene.h</text>
</a>
</g>
</g>
<!-- Node7&#45;&gt;Node14 -->
<g id="edge21" class="edge">
<title>Node7&#45;&gt;Node14</title>
<path fill="none" stroke="midnightblue" d="M650.29,-122.71C625.44,-112.99 591.2,-99.6 565.11,-89.4"/>
<polygon fill="midnightblue" stroke="midnightblue" points="648.73,-126.25 659.32,-126.63 651.28,-119.73 648.73,-126.25"/>
</g>
<!-- Node15 -->
<g id="node15" class="node">
<title>Node15</title>
<g id="a_node15"><a xlink:href="_vertex_wave_scene_8h.html" target="_top" xlink:title=" ">
<polygon fill="none" stroke="black" points="613.88,-57.5 613.88,-89.5 752.12,-89.5 752.12,-57.5 613.88,-57.5"/>
<text text-anchor="start" x="621.88" y="-76" font-family="Helvetica,sans-Serif" font-size="10.00">include/Scenes/VertexWave</text>
<text text-anchor="middle" x="683" y="-64" font-family="Helvetica,sans-Serif" font-size="10.00">Scene.h</text>
</a>
</g>
</g>
<!-- Node7&#45;&gt;Node15 -->
<g id="edge23" class="edge">
<title>Node7&#45;&gt;Node15</title>
<path fill="none" stroke="midnightblue" d="M683,-115.83C683,-107.23 683,-97.31 683,-89.35"/>
<polygon fill="midnightblue" stroke="midnightblue" points="679.5,-115.76 683,-125.76 686.5,-115.76 679.5,-115.76"/>
</g>
<!-- Node8&#45;&gt;Node3 -->
<g id="edge8" class="edge">
<title>Node8&#45;&gt;Node3</title>
<path fill="none" stroke="midnightblue" d="M1106.4,-60.63C1101.26,-59.27 1096.02,-58.01 1091,-57 958.05,-30.36 797.37,-18.18 723.61,-13.69"/>
<polygon fill="midnightblue" stroke="midnightblue" points="1105.14,-64.2 1115.72,-63.54 1107.04,-57.46 1105.14,-64.2"/>
</g>
<!-- Node8&#45;&gt;Node5 -->
<g id="edge9" class="edge">
<title>Node8&#45;&gt;Node5</title>
<path fill="none" stroke="midnightblue" d="M1144,-52.99C1144,-41.97 1144,-28.73 1144,-20.22"/>
<polygon fill="midnightblue" stroke="midnightblue" points="1140.5,-52.76 1144,-62.76 1147.5,-52.76 1140.5,-52.76"/>
</g>
<!-- Node8&#45;&gt;Node6 -->
<g id="edge10" class="edge">
<title>Node8&#45;&gt;Node6</title>
<path fill="none" stroke="midnightblue" d="M1168.91,-58.43C1189.64,-46.72 1218.52,-30.41 1236.2,-20.42"/>
<polygon fill="midnightblue" stroke="midnightblue" points="1167.46,-55.79 1160.47,-63.76 1170.9,-61.89 1167.46,-55.79"/>
</g>
<!-- Node9&#45;&gt;Node3 -->
<g id="edge12" class="edge">
<title>Node9&#45;&gt;Node3</title>
<path fill="none" stroke="midnightblue" d="M817.44,-60.02C784.86,-48.27 736.84,-30.93 707.88,-20.48"/>
<polygon fill="midnightblue" stroke="midnightblue" points="815.83,-63.53 826.43,-63.63 818.21,-56.94 815.83,-63.53"/>
</g>
<!-- Node10&#45;&gt;Node3 -->
<g id="edge14" class="edge">
<title>Node10&#45;&gt;Node3</title>
<path fill="none" stroke="midnightblue" d="M941.4,-56.73C858.22,-40.87 772.74,-26.35 723.61,-18.18"/>
<polygon fill="midnightblue" stroke="midnightblue" points="940.57,-60.32 951.05,-58.77 941.89,-53.45 940.57,-60.32"/>
</g>
<!-- Node11&#45;&gt;Node3 -->
<g id="edge16" class="edge">
<title>Node11&#45;&gt;Node3</title>
<path fill="none" stroke="midnightblue" d="M140.55,-56.89C334.21,-29.24 553.59,-17.24 642.54,-13.18"/>
<polygon fill="midnightblue" stroke="midnightblue" points="140.29,-53.54 130.89,-58.44 141.29,-60.47 140.29,-53.54"/>
</g>
<!-- Node12&#45;&gt;Node3 -->
<g id="edge18" class="edge">
<title>Node12&#45;&gt;Node3</title>
<path fill="none" stroke="midnightblue" d="M294.84,-56.96C428.52,-36.25 573.54,-21.63 642.54,-15.16"/>
<polygon fill="midnightblue" stroke="midnightblue" points="294.35,-53.65 285.01,-58.65 295.43,-60.57 294.35,-53.65"/>
</g>
<!-- Node13&#45;&gt;Node3 -->
<g id="edge20" class="edge">
<title>Node13&#45;&gt;Node3</title>
<path fill="none" stroke="midnightblue" d="M449.54,-56.9C523.84,-42.31 597.83,-27.96 642.41,-19.34"/>
<polygon fill="midnightblue" stroke="midnightblue" points="449.2,-53.6 440.06,-58.96 450.55,-60.46 449.2,-53.6"/>
</g>
<!-- Node14&#45;&gt;Node3 -->
<g id="edge22" class="edge">
<title>Node14&#45;&gt;Node3</title>
<path fill="none" stroke="midnightblue" d="M575.27,-53.62C603.57,-42.56 638,-29.1 660.2,-20.42"/>
<polygon fill="midnightblue" stroke="midnightblue" points="574.2,-50.68 566.16,-57.58 576.75,-57.2 574.2,-50.68"/>
</g>
<!-- Node15&#45;&gt;Node3 -->
<g id="edge24" class="edge">
<title>Node15&#45;&gt;Node3</title>
<path fill="none" stroke="midnightblue" d="M683,-46.77C683,-37.31 683,-27.24 683,-20.28"/>
<polygon fill="midnightblue" stroke="midnightblue" points="679.5,-46.73 683,-56.73 686.5,-46.73 679.5,-46.73"/>
</g>
</g>
</svg>
