<?xml version="1.0" encoding="UTF-8" standalone="no"?>
<!DOCTYPE svg PUBLIC "-//W3C//DTD SVG 1.1//EN"
 "http://www.w3.org/Graphics/SVG/1.1/DTD/svg11.dtd">
<!-- Generated by graphviz version 8.1.0 (20230707.0739)
 -->
<!-- Title: src/Keyboard.cpp Pages: 1 -->
<svg width="108pt" height="143pt"
 viewBox="0.00 0.00 108.12 143.00" xmlns="http://www.w3.org/2000/svg" xmlns:xlink="http://www.w3.org/1999/xlink">
<g id="graph0" class="graph" transform="scale(1 1) rotate(0) translate(4 139)">
<title>src/Keyboard.cpp</title>
<!-- Node1 -->
<g id="node1" class="node">
<title>Node1</title>
<g id="a_node1"><a xlink:title=" ">
<polygon fill="#bfbfbf" stroke="black" points="2.75,-114.5 2.75,-134.5 95.25,-134.5 95.25,-114.5 2.75,-114.5"/>
<text text-anchor="middle" x="49" y="-121" font-family="Helvetica,sans-Serif" font-size="10.00">src/Keyboard.cpp</text>
</a>
</g>
</g>
<!-- Node2 -->
<g id="node2" class="node">
<title>Node2</title>
<g id="a_node2"><a xlink:href="_keyboard_8h.html" target="_top" xlink:title=" ">
<polygon fill="none" stroke="black" points="16.25,-57.5 16.25,-77.5 81.75,-77.5 81.75,-57.5 16.25,-57.5"/>
<text text-anchor="middle" x="49" y="-64" font-family="Helvetica,sans-Serif" font-size="10.00">Keyboard.h</text>
</a>
</g>
</g>
<!-- Node1&#45;&gt;Node2 -->
<g id="edge1" class="edge">
<title>Node1&#45;&gt;Node2</title>
<path fill="none" stroke="midnightblue" d="M49,-114.91C49,-107.76 49,-97.32 49,-88.15"/>
<polygon fill="midnightblue" stroke="midnightblue" points="52.5,-88.21 49,-78.21 45.5,-88.21 52.5,-88.21"/>
</g>
<!-- Node3 -->
<g id="node3" class="node">
<title>Node3</title>
<g id="a_node3"><a xlink:title=" ">
<polygon fill="none" stroke="#bfbfbf" points="0,-0.5 0,-20.5 40,-20.5 40,-0.5 0,-0.5"/>
<text text-anchor="middle" x="20" y="-7" font-family="Helvetica,sans-Serif" font-size="10.00">bitset</text>
</a>
</g>
</g>
<!-- Node2&#45;&gt;Node3 -->
<g id="edge2" class="edge">
<title>Node2&#45;&gt;Node3</title>
<path fill="none" stroke="midnightblue" d="M44.47,-57.91C40.53,-50.44 34.7,-39.38 29.72,-29.93"/>
<polygon fill="midnightblue" stroke="midnightblue" points="32.36,-28.43 24.6,-21.21 26.16,-31.69 32.36,-28.43"/>
</g>
<!-- Node4 -->
<g id="node4" class="node">
<title>Node4</title>
<g id="a_node4"><a xlink:title=" ">
<polygon fill="none" stroke="#bfbfbf" points="57.88,-0.5 57.88,-20.5 100.12,-20.5 100.12,-0.5 57.88,-0.5"/>
<text text-anchor="middle" x="79" y="-7" font-family="Helvetica,sans-Serif" font-size="10.00">queue</text>
</a>
</g>
</g>
<!-- Node2&#45;&gt;Node4 -->
<g id="edge3" class="edge">
<title>Node2&#45;&gt;Node4</title>
<path fill="none" stroke="midnightblue" d="M53.69,-57.91C57.8,-50.36 63.92,-39.14 69.12,-29.62"/>
<polygon fill="midnightblue" stroke="midnightblue" points="72.53,-31.67 74.25,-21.21 66.39,-28.32 72.53,-31.67"/>
</g>
</g>
</svg>
