<?xml version="1.0" encoding="UTF-8" standalone="no"?>
<!DOCTYPE svg PUBLIC "-//W3C//DTD SVG 1.1//EN"
 "http://www.w3.org/Graphics/SVG/1.1/DTD/svg11.dtd">
<!-- Generated by graphviz version 8.1.0 (20230707.0739)
 -->
<!-- Title: include/Keyboard.h Pages: 1 -->
<svg width="963pt" height="212pt"
 viewBox="0.00 0.00 963.12 212.00" xmlns="http://www.w3.org/2000/svg" xmlns:xlink="http://www.w3.org/1999/xlink">
<g id="graph0" class="graph" transform="scale(1 1) rotate(0) translate(4 208)">
<title>include/Keyboard.h</title>
<!-- Node1 -->
<g id="node1" class="node">
<title>Node1</title>
<g id="a_node1"><a xlink:title=" ">
<polygon fill="#bfbfbf" stroke="black" points="615.38,-183.5 615.38,-203.5 714.62,-203.5 714.62,-183.5 615.38,-183.5"/>
<text text-anchor="middle" x="665" y="-190" font-family="Helvetica,sans-Serif" font-size="10.00">include/Keyboard.h</text>
</a>
</g>
</g>
<!-- Node2 -->
<g id="node2" class="node">
<title>Node2</title>
<g id="a_node2"><a xlink:href="_main_window_8h.html" target="_top" xlink:title=" ">
<polygon fill="none" stroke="black" points="747.25,-63.5 747.25,-83.5 860.75,-83.5 860.75,-63.5 747.25,-63.5"/>
<text text-anchor="middle" x="804" y="-70" font-family="Helvetica,sans-Serif" font-size="10.00">include/MainWindow.h</text>
</a>
</g>
</g>
<!-- Node1&#45;&gt;Node2 -->
<g id="edge1" class="edge">
<title>Node1&#45;&gt;Node2</title>
<path fill="none" stroke="midnightblue" d="M666.18,-172.83C668.01,-158.33 672.59,-138.96 684,-126 703.55,-103.79 734.35,-90.84 759.85,-83.49"/>
<polygon fill="midnightblue" stroke="midnightblue" points="662.62,-172.34 665.2,-182.61 669.59,-172.97 662.62,-172.34"/>
</g>
<!-- Node7 -->
<g id="node7" class="node">
<title>Node7</title>
<g id="a_node7"><a xlink:href="_scene_8h.html" target="_top" xlink:title=" ">
<polygon fill="none" stroke="black" points="413.12,-126.5 413.12,-146.5 498.88,-146.5 498.88,-126.5 413.12,-126.5"/>
<text text-anchor="middle" x="456" y="-133" font-family="Helvetica,sans-Serif" font-size="10.00">include/Scene.h</text>
</a>
</g>
</g>
<!-- Node1&#45;&gt;Node7 -->
<g id="edge6" class="edge">
<title>Node1&#45;&gt;Node7</title>
<path fill="none" stroke="midnightblue" d="M620.43,-180.77C581.41,-170.5 525.55,-155.8 490.03,-146.46"/>
<polygon fill="midnightblue" stroke="midnightblue" points="619.39,-184.38 629.96,-183.54 621.18,-177.61 619.39,-184.38"/>
</g>
<!-- Node13 -->
<g id="node13" class="node">
<title>Node13</title>
<g id="a_node13"><a xlink:href="_keyboard_8cpp.html" target="_top" xlink:title=" ">
<polygon fill="none" stroke="black" points="692.75,-126.5 692.75,-146.5 785.25,-146.5 785.25,-126.5 692.75,-126.5"/>
<text text-anchor="middle" x="739" y="-133" font-family="Helvetica,sans-Serif" font-size="10.00">src/Keyboard.cpp</text>
</a>
</g>
</g>
<!-- Node1&#45;&gt;Node13 -->
<g id="edge19" class="edge">
<title>Node1&#45;&gt;Node13</title>
<path fill="none" stroke="midnightblue" d="M685.42,-177.32C698.74,-167.43 715.67,-154.84 726.89,-146.5"/>
<polygon fill="midnightblue" stroke="midnightblue" points="683.83,-174.89 677.89,-183.66 688,-180.51 683.83,-174.89"/>
</g>
<!-- Node3 -->
<g id="node3" class="node">
<title>Node3</title>
<g id="a_node3"><a xlink:href="_engine_8cpp.html" target="_top" xlink:title=" ">
<polygon fill="none" stroke="black" points="416.38,-0.5 416.38,-20.5 497.62,-20.5 497.62,-0.5 416.38,-0.5"/>
<text text-anchor="middle" x="457" y="-7" font-family="Helvetica,sans-Serif" font-size="10.00">src/Engine.cpp</text>
</a>
</g>
</g>
<!-- Node2&#45;&gt;Node3 -->
<g id="edge2" class="edge">
<title>Node2&#45;&gt;Node3</title>
<path fill="none" stroke="midnightblue" d="M757.15,-61.07C750.73,-59.63 744.21,-58.23 738,-57 652.68,-40.1 551.86,-24.93 497.18,-17.1"/>
<polygon fill="midnightblue" stroke="midnightblue" points="756.26,-64.69 766.79,-63.51 757.83,-57.86 756.26,-64.69"/>
</g>
<!-- Node4 -->
<g id="node4" class="node">
<title>Node4</title>
<g id="a_node4"><a xlink:href="_graphics_8cpp.html" target="_top" xlink:title=" ">
<polygon fill="none" stroke="black" points="864.88,-0.5 864.88,-20.5 955.12,-20.5 955.12,-0.5 864.88,-0.5"/>
<text text-anchor="middle" x="910" y="-7" font-family="Helvetica,sans-Serif" font-size="10.00">src/Graphics.cpp</text>
</a>
</g>
</g>
<!-- Node2&#45;&gt;Node4 -->
<g id="edge3" class="edge">
<title>Node2&#45;&gt;Node4</title>
<path fill="none" stroke="midnightblue" d="M828.45,-58.43C848.8,-46.72 877.14,-30.41 894.5,-20.42"/>
<polygon fill="midnightblue" stroke="midnightblue" points="827.11,-55.74 820.19,-63.76 830.6,-61.81 827.11,-55.74"/>
</g>
<!-- Node5 -->
<g id="node5" class="node">
<title>Node5</title>
<g id="a_node5"><a xlink:href="_main_8cpp.html" target="_top" xlink:title=" ">
<polygon fill="none" stroke="black" points="648.88,-0.5 648.88,-20.5 721.12,-20.5 721.12,-0.5 648.88,-0.5"/>
<text text-anchor="middle" x="685" y="-7" font-family="Helvetica,sans-Serif" font-size="10.00">src/Main.cpp</text>
</a>
</g>
</g>
<!-- Node2&#45;&gt;Node5 -->
<g id="edge4" class="edge">
<title>Node2&#45;&gt;Node5</title>
<path fill="none" stroke="midnightblue" d="M777.21,-58.77C754.3,-47.02 721.99,-30.46 702.32,-20.38"/>
<polygon fill="midnightblue" stroke="midnightblue" points="775.2,-62.18 785.7,-63.63 778.39,-55.95 775.2,-62.18"/>
</g>
<!-- Node6 -->
<g id="node6" class="node">
<title>Node6</title>
<g id="a_node6"><a xlink:href="_main_window_8cpp.html" target="_top" xlink:title=" ">
<polygon fill="none" stroke="black" points="739.62,-0.5 739.62,-20.5 846.38,-20.5 846.38,-0.5 739.62,-0.5"/>
<text text-anchor="middle" x="793" y="-7" font-family="Helvetica,sans-Serif" font-size="10.00">src/MainWindow.cpp</text>
</a>
</g>
</g>
<!-- Node2&#45;&gt;Node6 -->
<g id="edge5" class="edge">
<title>Node2&#45;&gt;Node6</title>
<path fill="none" stroke="midnightblue" d="M800.48,-52.99C798.49,-41.97 796.11,-28.73 794.57,-20.22"/>
<polygon fill="midnightblue" stroke="midnightblue" points="797.2,-53.54 802.42,-62.76 804.09,-52.3 797.2,-53.54"/>
</g>
<!-- Node8 -->
<g id="node8" class="node">
<title>Node8</title>
<g id="a_node8"><a xlink:href="_engine_8h.html" target="_top" xlink:title=" ">
<polygon fill="none" stroke="black" points="641,-63.5 641,-83.5 729,-83.5 729,-63.5 641,-63.5"/>
<text text-anchor="middle" x="685" y="-70" font-family="Helvetica,sans-Serif" font-size="10.00">include/Engine.h</text>
</a>
</g>
</g>
<!-- Node7&#45;&gt;Node8 -->
<g id="edge7" class="edge">
<title>Node7&#45;&gt;Node8</title>
<path fill="none" stroke="midnightblue" d="M502.69,-123.86C538.22,-114.89 588.29,-102.04 632,-90 639.49,-87.94 647.54,-85.63 655.06,-83.44"/>
<polygon fill="midnightblue" stroke="midnightblue" points="502,-120.67 493.16,-126.51 503.71,-127.46 502,-120.67"/>
</g>
<!-- Node9 -->
<g id="node9" class="node">
<title>Node9</title>
<g id="a_node9"><a xlink:href="_cube_skin_scene_8h.html" target="_top" xlink:title=" ">
<polygon fill="none" stroke="black" points="459.12,-63.5 459.12,-83.5 622.88,-83.5 622.88,-63.5 459.12,-63.5"/>
<text text-anchor="middle" x="541" y="-70" font-family="Helvetica,sans-Serif" font-size="10.00">include/Scenes/CubeSkinScene.h</text>
</a>
</g>
</g>
<!-- Node7&#45;&gt;Node9 -->
<g id="edge11" class="edge">
<title>Node7&#45;&gt;Node9</title>
<path fill="none" stroke="midnightblue" d="M476.95,-120.46C493.15,-108.84 515.03,-93.14 528.57,-83.42"/>
<polygon fill="midnightblue" stroke="midnightblue" points="475.26,-118.09 469.18,-126.76 479.34,-123.77 475.26,-118.09"/>
</g>
<!-- Node10 -->
<g id="node10" class="node">
<title>Node10</title>
<g id="a_node10"><a xlink:href="_cube_solid_scene_8h.html" target="_top" xlink:title=" ">
<polygon fill="none" stroke="black" points="0,-57.5 0,-89.5 130,-89.5 130,-57.5 0,-57.5"/>
<text text-anchor="start" x="8" y="-76" font-family="Helvetica,sans-Serif" font-size="10.00">include/Scenes/CubeSolid</text>
<text text-anchor="middle" x="65" y="-64" font-family="Helvetica,sans-Serif" font-size="10.00">Scene.h</text>
</a>
</g>
</g>
<!-- Node7&#45;&gt;Node10 -->
<g id="edge13" class="edge">
<title>Node7&#45;&gt;Node10</title>
<path fill="none" stroke="midnightblue" d="M402.43,-128.87C339.26,-120.81 231.2,-106.26 139,-90 136.03,-89.48 132.99,-88.92 129.93,-88.34"/>
<polygon fill="midnightblue" stroke="midnightblue" points="401.94,-132.47 412.31,-130.25 402.83,-125.52 401.94,-132.47"/>
</g>
<!-- Node11 -->
<g id="node11" class="node">
<title>Node11</title>
<g id="a_node11"><a xlink:href="_cube_vertex_color_scene_8h.html" target="_top" xlink:title=" ">
<polygon fill="none" stroke="black" points="147.62,-57.5 147.62,-89.5 284.38,-89.5 284.38,-57.5 147.62,-57.5"/>
<text text-anchor="start" x="155.62" y="-76" font-family="Helvetica,sans-Serif" font-size="10.00">include/Scenes/CubeVertex</text>
<text text-anchor="middle" x="216" y="-64" font-family="Helvetica,sans-Serif" font-size="10.00">ColorScene.h</text>
</a>
</g>
</g>
<!-- Node7&#45;&gt;Node11 -->
<g id="edge15" class="edge">
<title>Node7&#45;&gt;Node11</title>
<path fill="none" stroke="midnightblue" d="M410.48,-123.93C372.05,-114.16 316.77,-100.11 274.97,-89.49"/>
<polygon fill="midnightblue" stroke="midnightblue" points="409.29,-127.49 419.84,-126.56 411.02,-120.71 409.29,-127.49"/>
</g>
<!-- Node12 -->
<g id="node12" class="node">
<title>Node12</title>
<g id="a_node12"><a xlink:href="_double_cube_scene_8h.html" target="_top" xlink:title=" ">
<polygon fill="none" stroke="black" points="302.88,-57.5 302.88,-89.5 441.12,-89.5 441.12,-57.5 302.88,-57.5"/>
<text text-anchor="start" x="310.88" y="-76" font-family="Helvetica,sans-Serif" font-size="10.00">include/Scenes/DoubleCube</text>
<text text-anchor="middle" x="372" y="-64" font-family="Helvetica,sans-Serif" font-size="10.00">Scene.h</text>
</a>
</g>
</g>
<!-- Node7&#45;&gt;Node12 -->
<g id="edge17" class="edge">
<title>Node7&#45;&gt;Node12</title>
<path fill="none" stroke="midnightblue" d="M435.23,-120.42C422.18,-110.94 405.43,-98.78 392.45,-89.35"/>
<polygon fill="midnightblue" stroke="midnightblue" points="432.82,-123.72 442.96,-126.76 436.93,-118.05 432.82,-123.72"/>
</g>
<!-- Node8&#45;&gt;Node3 -->
<g id="edge8" class="edge">
<title>Node8&#45;&gt;Node3</title>
<path fill="none" stroke="midnightblue" d="M644.61,-60.55C640.36,-59.33 636.09,-58.13 632,-57 583.89,-43.71 528.03,-29.38 492.61,-20.42"/>
<polygon fill="midnightblue" stroke="midnightblue" points="643.47,-64.16 654.05,-63.57 645.42,-57.43 643.47,-64.16"/>
</g>
<!-- Node8&#45;&gt;Node5 -->
<g id="edge9" class="edge">
<title>Node8&#45;&gt;Node5</title>
<path fill="none" stroke="midnightblue" d="M685,-52.99C685,-41.97 685,-28.73 685,-20.22"/>
<polygon fill="midnightblue" stroke="midnightblue" points="681.5,-52.76 685,-62.76 688.5,-52.76 681.5,-52.76"/>
</g>
<!-- Node8&#45;&gt;Node6 -->
<g id="edge10" class="edge">
<title>Node8&#45;&gt;Node6</title>
<path fill="none" stroke="midnightblue" d="M709.91,-58.43C730.64,-46.72 759.52,-30.41 777.2,-20.42"/>
<polygon fill="midnightblue" stroke="midnightblue" points="708.46,-55.79 701.47,-63.76 711.9,-61.89 708.46,-55.79"/>
</g>
<!-- Node9&#45;&gt;Node3 -->
<g id="edge12" class="edge">
<title>Node9&#45;&gt;Node3</title>
<path fill="none" stroke="midnightblue" d="M520.29,-57.46C504.28,-45.84 482.66,-30.14 469.29,-20.42"/>
<polygon fill="midnightblue" stroke="midnightblue" points="517.82,-60.72 527.96,-63.76 521.93,-55.05 517.82,-60.72"/>
</g>
<!-- Node10&#45;&gt;Node3 -->
<g id="edge14" class="edge">
<title>Node10&#45;&gt;Node3</title>
<path fill="none" stroke="midnightblue" d="M140.75,-56.76C246.03,-38.5 357.9,-23.79 416.46,-16.45"/>
<polygon fill="midnightblue" stroke="midnightblue" points="140.17,-53.48 130.93,-58.65 141.38,-60.38 140.17,-53.48"/>
</g>
<!-- Node11&#45;&gt;Node3 -->
<g id="edge16" class="edge">
<title>Node11&#45;&gt;Node3</title>
<path fill="none" stroke="midnightblue" d="M285.45,-54.92C330.06,-43.63 386.13,-29.44 421.78,-20.42"/>
<polygon fill="midnightblue" stroke="midnightblue" points="284.79,-51.73 275.96,-57.58 286.51,-58.52 284.79,-51.73"/>
</g>
<!-- Node12&#45;&gt;Node3 -->
<g id="edge18" class="edge">
<title>Node12&#45;&gt;Node3</title>
<path fill="none" stroke="midnightblue" d="M401.44,-51.37C416.28,-40.72 433.48,-28.38 444.76,-20.28"/>
<polygon fill="midnightblue" stroke="midnightblue" points="399.66,-49.06 393.58,-57.73 403.74,-54.75 399.66,-49.06"/>
</g>
</g>
</svg>
