<?xml version="1.0" encoding="UTF-8" standalone="no"?>
<!DOCTYPE svg PUBLIC "-//W3C//DTD SVG 1.1//EN"
 "http://www.w3.org/Graphics/SVG/1.1/DTD/svg11.dtd">
<!-- Generated by graphviz version 8.1.0 (20230707.0739)
 -->
<!-- Title: include/Keyboard.h Pages: 1 -->
<svg width="109pt" height="86pt"
 viewBox="0.00 0.00 108.75 86.00" xmlns="http://www.w3.org/2000/svg" xmlns:xlink="http://www.w3.org/1999/xlink">
<g id="graph0" class="graph" transform="scale(1 1) rotate(0) translate(4 82)">
<title>include/Keyboard.h</title>
<!-- Node1 -->
<g id="node1" class="node">
<title>Node1</title>
<g id="a_node1"><a xlink:title=" ">
<polygon fill="#bfbfbf" stroke="black" points="0,-57.5 0,-77.5 99.25,-77.5 99.25,-57.5 0,-57.5"/>
<text text-anchor="middle" x="49.62" y="-64" font-family="Helvetica,sans-Serif" font-size="10.00">include/Keyboard.h</text>
</a>
</g>
</g>
<!-- Node2 -->
<g id="node2" class="node">
<title>Node2</title>
<g id="a_node2"><a xlink:title=" ">
<polygon fill="none" stroke="#bfbfbf" points="0.62,-0.5 0.62,-20.5 40.62,-20.5 40.62,-0.5 0.62,-0.5"/>
<text text-anchor="middle" x="20.62" y="-7" font-family="Helvetica,sans-Serif" font-size="10.00">bitset</text>
</a>
</g>
</g>
<!-- Node1&#45;&gt;Node2 -->
<g id="edge1" class="edge">
<title>Node1&#45;&gt;Node2</title>
<path fill="none" stroke="midnightblue" d="M45.09,-57.91C41.16,-50.44 35.32,-39.38 30.34,-29.93"/>
<polygon fill="midnightblue" stroke="midnightblue" points="32.98,-28.43 25.22,-21.21 26.79,-31.69 32.98,-28.43"/>
</g>
<!-- Node3 -->
<g id="node3" class="node">
<title>Node3</title>
<g id="a_node3"><a xlink:title=" ">
<polygon fill="none" stroke="#bfbfbf" points="58.5,-0.5 58.5,-20.5 100.75,-20.5 100.75,-0.5 58.5,-0.5"/>
<text text-anchor="middle" x="79.62" y="-7" font-family="Helvetica,sans-Serif" font-size="10.00">queue</text>
</a>
</g>
</g>
<!-- Node1&#45;&gt;Node3 -->
<g id="edge2" class="edge">
<title>Node1&#45;&gt;Node3</title>
<path fill="none" stroke="midnightblue" d="M54.31,-57.91C58.43,-50.36 64.55,-39.14 69.74,-29.62"/>
<polygon fill="midnightblue" stroke="midnightblue" points="73.16,-31.67 74.87,-21.21 67.01,-28.32 73.16,-31.67"/>
</g>
</g>
</svg>
