<?xml version="1.0" encoding="UTF-8" standalone="no"?>
<!DOCTYPE svg PUBLIC "-//W3C//DTD SVG 1.1//EN"
 "http://www.w3.org/Graphics/SVG/1.1/DTD/svg11.dtd">
<!-- Generated by graphviz version 8.1.0 (20230707.0739)
 -->
<!-- Title: include/Keyboard.h Pages: 1 -->
<svg width="1274pt" height="212pt"
 viewBox="0.00 0.00 1273.50 212.00" xmlns="http://www.w3.org/2000/svg" xmlns:xlink="http://www.w3.org/1999/xlink">
<g id="graph0" class="graph" transform="scale(1 1) rotate(0) translate(4 208)">
<title>include/Keyboard.h</title>
<!-- Node1 -->
<g id="node1" class="node">
<title>Node1</title>
<g id="a_node1"><a xlink:title=" ">
<polygon fill="#bfbfbf" stroke="black" points="858.75,-183.5 858.75,-203.5 958,-203.5 958,-183.5 858.75,-183.5"/>
<text text-anchor="middle" x="908.38" y="-190" font-family="Helvetica,sans-Serif" font-size="10.00">include/Keyboard.h</text>
</a>
</g>
</g>
<!-- Node2 -->
<g id="node2" class="node">
<title>Node2</title>
<g id="a_node2"><a xlink:href="_main_window_8h.html" target="_top" xlink:title=" ">
<polygon fill="none" stroke="black" points="1057.62,-63.5 1057.62,-83.5 1171.12,-83.5 1171.12,-63.5 1057.62,-63.5"/>
<text text-anchor="middle" x="1114.38" y="-70" font-family="Helvetica,sans-Serif" font-size="10.00">include/MainWindow.h</text>
</a>
</g>
</g>
<!-- Node1&#45;&gt;Node2 -->
<g id="edge1" class="edge">
<title>Node1&#45;&gt;Node2</title>
<path fill="none" stroke="midnightblue" d="M908.96,-173.28C910.45,-158.44 914.85,-138.4 927.38,-126 932.83,-120.59 1025.54,-96.72 1078.33,-83.46"/>
<polygon fill="midnightblue" stroke="midnightblue" points="905.43,-172.63 908.3,-182.83 912.42,-173.07 905.43,-172.63"/>
</g>
<!-- Node7 -->
<g id="node7" class="node">
<title>Node7</title>
<g id="a_node7"><a xlink:href="_scene_8h.html" target="_top" xlink:title=" ">
<polygon fill="none" stroke="black" points="588.5,-126.5 588.5,-146.5 674.25,-146.5 674.25,-126.5 588.5,-126.5"/>
<text text-anchor="middle" x="631.38" y="-133" font-family="Helvetica,sans-Serif" font-size="10.00">include/Scene.h</text>
</a>
</g>
</g>
<!-- Node1&#45;&gt;Node7 -->
<g id="edge6" class="edge">
<title>Node1&#45;&gt;Node7</title>
<path fill="none" stroke="midnightblue" d="M852.75,-181.46C800.1,-171 722.17,-155.53 674.2,-146"/>
<polygon fill="midnightblue" stroke="midnightblue" points="851.76,-185.03 862.25,-183.54 853.13,-178.16 851.76,-185.03"/>
</g>
<!-- Node15 -->
<g id="node15" class="node">
<title>Node15</title>
<g id="a_node15"><a xlink:href="_keyboard_8cpp.html" target="_top" xlink:title=" ">
<polygon fill="none" stroke="black" points="936.12,-126.5 936.12,-146.5 1028.62,-146.5 1028.62,-126.5 936.12,-126.5"/>
<text text-anchor="middle" x="982.38" y="-133" font-family="Helvetica,sans-Serif" font-size="10.00">src/Keyboard.cpp</text>
</a>
</g>
</g>
<!-- Node1&#45;&gt;Node15 -->
<g id="edge23" class="edge">
<title>Node1&#45;&gt;Node15</title>
<path fill="none" stroke="midnightblue" d="M928.79,-177.32C942.11,-167.43 959.04,-154.84 970.27,-146.5"/>
<polygon fill="midnightblue" stroke="midnightblue" points="927.2,-174.89 921.26,-183.66 931.38,-180.51 927.2,-174.89"/>
</g>
<!-- Node3 -->
<g id="node3" class="node">
<title>Node3</title>
<g id="a_node3"><a xlink:href="_engine_8cpp.html" target="_top" xlink:title=" ">
<polygon fill="none" stroke="black" points="591.75,-0.5 591.75,-20.5 673,-20.5 673,-0.5 591.75,-0.5"/>
<text text-anchor="middle" x="632.38" y="-7" font-family="Helvetica,sans-Serif" font-size="10.00">src/Engine.cpp</text>
</a>
</g>
</g>
<!-- Node2&#45;&gt;Node3 -->
<g id="edge2" class="edge">
<title>Node2&#45;&gt;Node3</title>
<path fill="none" stroke="midnightblue" d="M1069.22,-61.13C1062.27,-59.6 1055.15,-58.16 1048.38,-57 911.6,-33.55 747.35,-19.76 672.76,-14.27"/>
<polygon fill="midnightblue" stroke="midnightblue" points="1068.41,-64.76 1078.94,-63.58 1069.97,-57.94 1068.41,-64.76"/>
</g>
<!-- Node4 -->
<g id="node4" class="node">
<title>Node4</title>
<g id="a_node4"><a xlink:href="_graphics_8cpp.html" target="_top" xlink:title=" ">
<polygon fill="none" stroke="black" points="1175.25,-0.5 1175.25,-20.5 1265.5,-20.5 1265.5,-0.5 1175.25,-0.5"/>
<text text-anchor="middle" x="1220.38" y="-7" font-family="Helvetica,sans-Serif" font-size="10.00">src/Graphics.cpp</text>
</a>
</g>
</g>
<!-- Node2&#45;&gt;Node4 -->
<g id="edge3" class="edge">
<title>Node2&#45;&gt;Node4</title>
<path fill="none" stroke="midnightblue" d="M1138.82,-58.43C1159.17,-46.72 1187.52,-30.41 1204.87,-20.42"/>
<polygon fill="midnightblue" stroke="midnightblue" points="1137.48,-55.74 1130.56,-63.76 1140.98,-61.81 1137.48,-55.74"/>
</g>
<!-- Node5 -->
<g id="node5" class="node">
<title>Node5</title>
<g id="a_node5"><a xlink:href="_main_8cpp.html" target="_top" xlink:title=" ">
<polygon fill="none" stroke="black" points="959.25,-0.5 959.25,-20.5 1031.5,-20.5 1031.5,-0.5 959.25,-0.5"/>
<text text-anchor="middle" x="995.38" y="-7" font-family="Helvetica,sans-Serif" font-size="10.00">src/Main.cpp</text>
</a>
</g>
</g>
<!-- Node2&#45;&gt;Node5 -->
<g id="edge4" class="edge">
<title>Node2&#45;&gt;Node5</title>
<path fill="none" stroke="midnightblue" d="M1087.59,-58.77C1064.67,-47.02 1032.36,-30.46 1012.7,-20.38"/>
<polygon fill="midnightblue" stroke="midnightblue" points="1085.58,-62.18 1096.07,-63.63 1088.77,-55.95 1085.58,-62.18"/>
</g>
<!-- Node6 -->
<g id="node6" class="node">
<title>Node6</title>
<g id="a_node6"><a xlink:href="_main_window_8cpp.html" target="_top" xlink:title=" ">
<polygon fill="none" stroke="black" points="1050,-0.5 1050,-20.5 1156.75,-20.5 1156.75,-0.5 1050,-0.5"/>
<text text-anchor="middle" x="1103.38" y="-7" font-family="Helvetica,sans-Serif" font-size="10.00">src/MainWindow.cpp</text>
</a>
</g>
</g>
<!-- Node2&#45;&gt;Node6 -->
<g id="edge5" class="edge">
<title>Node2&#45;&gt;Node6</title>
<path fill="none" stroke="midnightblue" d="M1110.86,-52.99C1108.87,-41.97 1106.48,-28.73 1104.95,-20.22"/>
<polygon fill="midnightblue" stroke="midnightblue" points="1107.58,-53.54 1112.8,-62.76 1114.47,-52.3 1107.58,-53.54"/>
</g>
<!-- Node8 -->
<g id="node8" class="node">
<title>Node8</title>
<g id="a_node8"><a xlink:href="_engine_8h.html" target="_top" xlink:title=" ">
<polygon fill="none" stroke="black" points="951.38,-63.5 951.38,-83.5 1039.38,-83.5 1039.38,-63.5 951.38,-63.5"/>
<text text-anchor="middle" x="995.38" y="-70" font-family="Helvetica,sans-Serif" font-size="10.00">include/Engine.h</text>
</a>
</g>
</g>
<!-- Node7&#45;&gt;Node8 -->
<g id="edge7" class="edge">
<title>Node7&#45;&gt;Node8</title>
<path fill="none" stroke="midnightblue" d="M684.96,-129.96C747.26,-122.98 852.98,-109.51 942.38,-90 950.62,-88.2 959.46,-85.81 967.51,-83.44"/>
<polygon fill="midnightblue" stroke="midnightblue" points="684.78,-126.57 675.22,-131.14 685.54,-133.52 684.78,-126.57"/>
</g>
<!-- Node9 -->
<g id="node9" class="node">
<title>Node9</title>
<g id="a_node9"><a xlink:href="_cube_skin_scene_8h.html" target="_top" xlink:title=" ">
<polygon fill="none" stroke="black" points="467.5,-63.5 467.5,-83.5 631.25,-83.5 631.25,-63.5 467.5,-63.5"/>
<text text-anchor="middle" x="549.38" y="-70" font-family="Helvetica,sans-Serif" font-size="10.00">include/Scenes/CubeSkinScene.h</text>
</a>
</g>
</g>
<!-- Node7&#45;&gt;Node9 -->
<g id="edge11" class="edge">
<title>Node7&#45;&gt;Node9</title>
<path fill="none" stroke="midnightblue" d="M611.16,-120.46C595.53,-108.84 574.43,-93.14 561.37,-83.42"/>
<polygon fill="midnightblue" stroke="midnightblue" points="608.51,-123.6 618.63,-126.76 612.69,-117.98 608.51,-123.6"/>
</g>
<!-- Node10 -->
<g id="node10" class="node">
<title>Node10</title>
<g id="a_node10"><a xlink:href="_cube_solid_scene_8h.html" target="_top" xlink:title=" ">
<polygon fill="none" stroke="black" points="649.38,-57.5 649.38,-89.5 779.38,-89.5 779.38,-57.5 649.38,-57.5"/>
<text text-anchor="start" x="657.38" y="-76" font-family="Helvetica,sans-Serif" font-size="10.00">include/Scenes/CubeSolid</text>
<text text-anchor="middle" x="714.38" y="-64" font-family="Helvetica,sans-Serif" font-size="10.00">Scene.h</text>
</a>
</g>
</g>
<!-- Node7&#45;&gt;Node10 -->
<g id="edge13" class="edge">
<title>Node7&#45;&gt;Node10</title>
<path fill="none" stroke="midnightblue" d="M651.9,-120.42C664.79,-110.94 681.34,-98.78 694.17,-89.35"/>
<polygon fill="midnightblue" stroke="midnightblue" points="650.25,-118.02 644.27,-126.76 654.4,-123.66 650.25,-118.02"/>
</g>
<!-- Node11 -->
<g id="node11" class="node">
<title>Node11</title>
<g id="a_node11"><a xlink:href="_cube_vertex_color_scene_8h.html" target="_top" xlink:title=" ">
<polygon fill="none" stroke="black" points="797,-57.5 797,-89.5 933.75,-89.5 933.75,-57.5 797,-57.5"/>
<text text-anchor="start" x="805" y="-76" font-family="Helvetica,sans-Serif" font-size="10.00">include/Scenes/CubeVertex</text>
<text text-anchor="middle" x="865.38" y="-64" font-family="Helvetica,sans-Serif" font-size="10.00">ColorScene.h</text>
</a>
</g>
</g>
<!-- Node7&#45;&gt;Node11 -->
<g id="edge15" class="edge">
<title>Node7&#45;&gt;Node11</title>
<path fill="none" stroke="midnightblue" d="M676.01,-123.86C713.57,-114.07 767.5,-100.01 808.21,-89.4"/>
<polygon fill="midnightblue" stroke="midnightblue" points="675.19,-120.72 666.4,-126.63 676.96,-127.49 675.19,-120.72"/>
</g>
<!-- Node12 -->
<g id="node12" class="node">
<title>Node12</title>
<g id="a_node12"><a xlink:href="_cube_vertex_position_color_scene_8h.html" target="_top" xlink:title=" ">
<polygon fill="none" stroke="black" points="0,-57.5 0,-89.5 136.75,-89.5 136.75,-57.5 0,-57.5"/>
<text text-anchor="start" x="8" y="-76" font-family="Helvetica,sans-Serif" font-size="10.00">include/Scenes/CubeVertex</text>
<text text-anchor="middle" x="68.38" y="-64" font-family="Helvetica,sans-Serif" font-size="10.00">PositionColorScene.h</text>
</a>
</g>
</g>
<!-- Node7&#45;&gt;Node12 -->
<g id="edge17" class="edge">
<title>Node7&#45;&gt;Node12</title>
<path fill="none" stroke="midnightblue" d="M577.74,-132.27C488.09,-126.48 302.27,-112.74 146.38,-90 143.1,-89.52 139.75,-89 136.37,-88.44"/>
<polygon fill="midnightblue" stroke="midnightblue" points="577.5,-135.83 587.71,-132.97 577.95,-128.84 577.5,-135.83"/>
</g>
<!-- Node13 -->
<g id="node13" class="node">
<title>Node13</title>
<g id="a_node13"><a xlink:href="_double_cube_scene_8h.html" target="_top" xlink:title=" ">
<polygon fill="none" stroke="black" points="155.25,-57.5 155.25,-89.5 293.5,-89.5 293.5,-57.5 155.25,-57.5"/>
<text text-anchor="start" x="163.25" y="-76" font-family="Helvetica,sans-Serif" font-size="10.00">include/Scenes/DoubleCube</text>
<text text-anchor="middle" x="224.38" y="-64" font-family="Helvetica,sans-Serif" font-size="10.00">Scene.h</text>
</a>
</g>
</g>
<!-- Node7&#45;&gt;Node13 -->
<g id="edge19" class="edge">
<title>Node7&#45;&gt;Node13</title>
<path fill="none" stroke="midnightblue" d="M577.84,-129.08C512.61,-121.03 399.13,-106.29 302.38,-90 299.38,-89.5 296.32,-88.96 293.24,-88.41"/>
<polygon fill="midnightblue" stroke="midnightblue" points="577.31,-132.66 587.66,-130.41 578.17,-125.71 577.31,-132.66"/>
</g>
<!-- Node14 -->
<g id="node14" class="node">
<title>Node14</title>
<g id="a_node14"><a xlink:href="_vertex_wave_scene_8h.html" target="_top" xlink:title=" ">
<polygon fill="none" stroke="black" points="311.25,-57.5 311.25,-89.5 449.5,-89.5 449.5,-57.5 311.25,-57.5"/>
<text text-anchor="start" x="319.25" y="-76" font-family="Helvetica,sans-Serif" font-size="10.00">include/Scenes/VertexWave</text>
<text text-anchor="middle" x="380.38" y="-64" font-family="Helvetica,sans-Serif" font-size="10.00">Scene.h</text>
</a>
</g>
</g>
<!-- Node7&#45;&gt;Node14 -->
<g id="edge21" class="edge">
<title>Node7&#45;&gt;Node14</title>
<path fill="none" stroke="midnightblue" d="M584.02,-123.99C543.83,-114.22 485.86,-100.14 442.04,-89.49"/>
<polygon fill="midnightblue" stroke="midnightblue" points="583.06,-127.6 593.61,-126.56 584.72,-120.8 583.06,-127.6"/>
</g>
<!-- Node8&#45;&gt;Node3 -->
<g id="edge8" class="edge">
<title>Node8&#45;&gt;Node3</title>
<path fill="none" stroke="midnightblue" d="M957,-60.6C952.1,-59.28 947.14,-58.04 942.38,-57 846.72,-36.1 732.32,-22.1 672.83,-15.62"/>
<polygon fill="midnightblue" stroke="midnightblue" points="955.93,-64.22 966.51,-63.56 957.83,-57.48 955.93,-64.22"/>
</g>
<!-- Node8&#45;&gt;Node5 -->
<g id="edge9" class="edge">
<title>Node8&#45;&gt;Node5</title>
<path fill="none" stroke="midnightblue" d="M995.38,-52.99C995.38,-41.97 995.38,-28.73 995.38,-20.22"/>
<polygon fill="midnightblue" stroke="midnightblue" points="991.88,-52.76 995.38,-62.76 998.88,-52.76 991.88,-52.76"/>
</g>
<!-- Node8&#45;&gt;Node6 -->
<g id="edge10" class="edge">
<title>Node8&#45;&gt;Node6</title>
<path fill="none" stroke="midnightblue" d="M1020.29,-58.43C1041.02,-46.72 1069.9,-30.41 1087.58,-20.42"/>
<polygon fill="midnightblue" stroke="midnightblue" points="1018.83,-55.79 1011.85,-63.76 1022.28,-61.89 1018.83,-55.79"/>
</g>
<!-- Node9&#45;&gt;Node3 -->
<g id="edge12" class="edge">
<title>Node9&#45;&gt;Node3</title>
<path fill="none" stroke="midnightblue" d="M569.84,-57.46C585.65,-45.84 607.02,-30.14 620.24,-20.42"/>
<polygon fill="midnightblue" stroke="midnightblue" points="568.25,-55.02 562.27,-63.76 572.4,-60.66 568.25,-55.02"/>
</g>
<!-- Node10&#45;&gt;Node3 -->
<g id="edge14" class="edge">
<title>Node10&#45;&gt;Node3</title>
<path fill="none" stroke="midnightblue" d="M685.98,-51.37C671.66,-40.72 655.07,-28.38 644.18,-20.28"/>
<polygon fill="midnightblue" stroke="midnightblue" points="683.41,-54.57 693.53,-57.73 687.59,-48.96 683.41,-54.57"/>
</g>
<!-- Node11&#45;&gt;Node3 -->
<g id="edge16" class="edge">
<title>Node11&#45;&gt;Node3</title>
<path fill="none" stroke="midnightblue" d="M797.96,-54.85C754.87,-43.57 700.82,-29.42 666.43,-20.42"/>
<polygon fill="midnightblue" stroke="midnightblue" points="796.82,-58.43 807.38,-57.58 798.59,-51.66 796.82,-58.43"/>
</g>
<!-- Node12&#45;&gt;Node3 -->
<g id="edge18" class="edge">
<title>Node12&#45;&gt;Node3</title>
<path fill="none" stroke="midnightblue" d="M147.12,-57.01C318.79,-32.47 510.02,-18.99 591.88,-13.88"/>
<polygon fill="midnightblue" stroke="midnightblue" points="146.76,-53.67 137.37,-58.56 147.77,-60.59 146.76,-53.67"/>
</g>
<!-- Node13&#45;&gt;Node3 -->
<g id="edge20" class="edge">
<title>Node13&#45;&gt;Node3</title>
<path fill="none" stroke="midnightblue" d="M303.87,-56.81C413.96,-38.55 531.46,-23.63 591.87,-16.3"/>
<polygon fill="midnightblue" stroke="midnightblue" points="303.52,-53.48 294.24,-58.59 304.68,-60.39 303.52,-53.48"/>
</g>
<!-- Node14&#45;&gt;Node3 -->
<g id="edge22" class="edge">
<title>Node14&#45;&gt;Node3</title>
<path fill="none" stroke="midnightblue" d="M452.7,-54.99C499.4,-43.69 558.19,-29.46 595.54,-20.42"/>
<polygon fill="midnightblue" stroke="midnightblue" points="451.92,-51.82 443.02,-57.58 453.56,-58.63 451.92,-51.82"/>
</g>
</g>
</svg>
