<?xml version="1.0" encoding="UTF-8" standalone="no"?>
<!DOCTYPE svg PUBLIC "-//W3C//DTD SVG 1.1//EN"
 "http://www.w3.org/Graphics/SVG/1.1/DTD/svg11.dtd">
<!-- Generated by graphviz version 8.1.0 (20230707.0739)
 -->
<!-- Title: src/MainWindow.cpp Pages: 1 -->
<svg width="720pt" height="485pt"
 viewBox="0.00 0.00 720.05 485.00" xmlns="http://www.w3.org/2000/svg" xmlns:xlink="http://www.w3.org/1999/xlink">
<g id="graph0" class="graph" transform="scale(1 1) rotate(0) translate(4 481)">
<title>src/MainWindow.cpp</title>
<!-- Node1 -->
<g id="node1" class="node">
<title>Node1</title>
<g id="a_node1"><a xlink:title=" ">
<polygon fill="#bfbfbf" stroke="black" points="473.84,-456.5 473.84,-476.5 580.59,-476.5 580.59,-456.5 473.84,-456.5"/>
<text text-anchor="middle" x="527.21" y="-463" font-family="Helvetica,sans-Serif" font-size="10.00">src/MainWindow.cpp</text>
</a>
</g>
</g>
<!-- Node2 -->
<g id="node2" class="node">
<title>Node2</title>
<g id="a_node2"><a xlink:href="_main_window_8h.html" target="_top" xlink:title=" ">
<polygon fill="none" stroke="black" points="41.34,-342.5 41.34,-362.5 121.09,-362.5 121.09,-342.5 41.34,-342.5"/>
<text text-anchor="middle" x="81.21" y="-349" font-family="Helvetica,sans-Serif" font-size="10.00">MainWindow.h</text>
</a>
</g>
</g>
<!-- Node1&#45;&gt;Node2 -->
<g id="edge1" class="edge">
<title>Node1&#45;&gt;Node2</title>
<path fill="none" stroke="midnightblue" d="M491.47,-456.52C411.21,-436.37 216.72,-387.53 127.43,-365.1"/>
<polygon fill="midnightblue" stroke="midnightblue" points="128.37,-361.48 117.82,-362.44 126.67,-368.27 128.37,-361.48"/>
</g>
<!-- Node8 -->
<g id="node8" class="node">
<title>Node8</title>
<g id="a_node8"><a xlink:href="_graphics_8h.html" target="_top" xlink:title=" ">
<polygon fill="none" stroke="black" points="359.59,-285.5 359.59,-305.5 422.84,-305.5 422.84,-285.5 359.59,-285.5"/>
<text text-anchor="middle" x="391.21" y="-292" font-family="Helvetica,sans-Serif" font-size="10.00">Graphics.h</text>
</a>
</g>
</g>
<!-- Node1&#45;&gt;Node8 -->
<g id="edge64" class="edge">
<title>Node1&#45;&gt;Node8</title>
<path fill="none" stroke="midnightblue" d="M524.17,-456.52C519.53,-443.39 509.97,-418.39 498.21,-399 481.34,-371.16 475.67,-364.58 452.21,-342 440.5,-330.72 425.95,-319.77 413.99,-311.44"/>
<polygon fill="midnightblue" stroke="midnightblue" points="416.31,-308.1 406.07,-305.36 412.37,-313.88 416.31,-308.1"/>
</g>
<!-- Node34 -->
<g id="node34" class="node">
<title>Node34</title>
<g id="a_node34"><a xlink:href="_engine_8h.html" target="_top" xlink:title=" ">
<polygon fill="none" stroke="black" points="435.09,-399.5 435.09,-419.5 489.34,-419.5 489.34,-399.5 435.09,-399.5"/>
<text text-anchor="middle" x="462.21" y="-406" font-family="Helvetica,sans-Serif" font-size="10.00">Engine.h</text>
</a>
</g>
</g>
<!-- Node1&#45;&gt;Node34 -->
<g id="edge53" class="edge">
<title>Node1&#45;&gt;Node34</title>
<path fill="none" stroke="midnightblue" d="M516.77,-456.66C507.16,-448.53 492.68,-436.28 481.06,-426.44"/>
<polygon fill="midnightblue" stroke="midnightblue" points="483.74,-423.29 473.85,-419.5 479.22,-428.63 483.74,-423.29"/>
</g>
<!-- Node39 -->
<g id="node39" class="node">
<title>Node39</title>
<g id="a_node39"><a xlink:href="_resource_8h.html" target="_top" xlink:title=" ">
<polygon fill="none" stroke="black" points="555.46,-399.5 555.46,-419.5 620.96,-419.5 620.96,-399.5 555.46,-399.5"/>
<text text-anchor="middle" x="588.21" y="-406" font-family="Helvetica,sans-Serif" font-size="10.00">Resource.h</text>
</a>
</g>
</g>
<!-- Node1&#45;&gt;Node39 -->
<g id="edge65" class="edge">
<title>Node1&#45;&gt;Node39</title>
<path fill="none" stroke="midnightblue" d="M537.02,-456.66C545.94,-448.61 559.35,-436.52 570.21,-426.73"/>
<polygon fill="midnightblue" stroke="midnightblue" points="572.15,-429.79 577.24,-420.5 567.47,-424.59 572.15,-429.79"/>
</g>
<!-- Node40 -->
<g id="node40" class="node">
<title>Node40</title>
<g id="a_node40"><a xlink:title=" ">
<polygon fill="none" stroke="#bfbfbf" points="639.09,-399.5 639.09,-419.5 687.34,-419.5 687.34,-399.5 639.09,-399.5"/>
<text text-anchor="middle" x="663.21" y="-406" font-family="Helvetica,sans-Serif" font-size="10.00">cassert</text>
</a>
</g>
</g>
<!-- Node1&#45;&gt;Node40 -->
<g id="edge66" class="edge">
<title>Node1&#45;&gt;Node40</title>
<path fill="none" stroke="midnightblue" d="M549.37,-456.54C571.5,-447.59 605.75,-433.74 630.91,-423.57"/>
<polygon fill="midnightblue" stroke="midnightblue" points="632.11,-426.45 640.07,-419.46 629.49,-419.96 632.11,-426.45"/>
</g>
<!-- Node3 -->
<g id="node3" class="node">
<title>Node3</title>
<g id="a_node3"><a xlink:href="_win_8h.html" target="_top" xlink:title=" ">
<polygon fill="none" stroke="black" points="328.46,-171.5 328.46,-191.5 369.96,-191.5 369.96,-171.5 328.46,-171.5"/>
<text text-anchor="middle" x="349.21" y="-178" font-family="Helvetica,sans-Serif" font-size="10.00">Win.h</text>
</a>
</g>
</g>
<!-- Node2&#45;&gt;Node3 -->
<g id="edge2" class="edge">
<title>Node2&#45;&gt;Node3</title>
<path fill="none" stroke="midnightblue" d="M71.05,-342.56C62.3,-334.14 50.31,-320.65 45.21,-306 36.98,-282.33 59.49,-228.65 60.21,-228 101.47,-191.39 246.7,-203.39 317.92,-191.61"/>
<polygon fill="midnightblue" stroke="midnightblue" points="318.54,-194.86 327.68,-189.5 317.2,-187.99 318.54,-194.86"/>
</g>
<!-- Node6 -->
<g id="node6" class="node">
<title>Node6</title>
<g id="a_node6"><a xlink:href="_engine_exception_8h.html" target="_top" xlink:title=" ">
<polygon fill="none" stroke="black" points="212.34,-171.5 212.34,-191.5 310.09,-191.5 310.09,-171.5 212.34,-171.5"/>
<text text-anchor="middle" x="261.21" y="-178" font-family="Helvetica,sans-Serif" font-size="10.00">EngineException.h</text>
</a>
</g>
</g>
<!-- Node2&#45;&gt;Node6 -->
<g id="edge5" class="edge">
<title>Node2&#45;&gt;Node6</title>
<path fill="none" stroke="midnightblue" d="M56.73,-342.52C40.92,-335.29 21.6,-323.44 12.21,-306 0.99,-285.15 18.08,-236.56 27.21,-228 51.97,-204.81 140.95,-192.66 201.77,-186.93"/>
<polygon fill="midnightblue" stroke="midnightblue" points="201.75,-190.35 211.4,-185.96 201.12,-183.38 201.75,-190.35"/>
</g>
<!-- Node7 -->
<g id="node7" class="node">
<title>Node7</title>
<g id="a_node7"><a xlink:title=" ">
<polygon fill="none" stroke="#bfbfbf" points="241.21,-114.5 241.21,-134.5 281.21,-134.5 281.21,-114.5 241.21,-114.5"/>
<text text-anchor="middle" x="261.21" y="-121" font-family="Helvetica,sans-Serif" font-size="10.00">string</text>
</a>
</g>
</g>
<!-- Node2&#45;&gt;Node7 -->
<g id="edge52" class="edge">
<title>Node2&#45;&gt;Node7</title>
<path fill="none" stroke="midnightblue" d="M52.81,-342.56C35.72,-335.55 15.38,-323.93 5.21,-306 -3.99,-289.76 -0.05,-245.12 13.21,-228 27.38,-209.72 168.7,-158.16 231.46,-135.92"/>
<polygon fill="midnightblue" stroke="midnightblue" points="232.26,-139 240.52,-132.37 229.93,-132.4 232.26,-139"/>
</g>
<!-- Node2&#45;&gt;Node8 -->
<g id="edge7" class="edge">
<title>Node2&#45;&gt;Node8</title>
<path fill="none" stroke="midnightblue" d="M120.79,-344.48C179.49,-334.06 289.14,-314.61 349.21,-303.95"/>
<polygon fill="midnightblue" stroke="midnightblue" points="349.59,-307.26 358.83,-302.07 348.37,-300.37 349.59,-307.26"/>
</g>
<!-- Node28 -->
<g id="node28" class="node">
<title>Node28</title>
<g id="a_node28"><a xlink:href="_keyboard_8h.html" target="_top" xlink:title=" ">
<polygon fill="none" stroke="black" points="126.46,-285.5 126.46,-305.5 191.96,-305.5 191.96,-285.5 126.46,-285.5"/>
<text text-anchor="middle" x="159.21" y="-292" font-family="Helvetica,sans-Serif" font-size="10.00">Keyboard.h</text>
</a>
</g>
</g>
<!-- Node2&#45;&gt;Node28 -->
<g id="edge38" class="edge">
<title>Node2&#45;&gt;Node28</title>
<path fill="none" stroke="midnightblue" d="M93.75,-342.66C105.62,-334.29 123.68,-321.56 137.83,-311.58"/>
<polygon fill="midnightblue" stroke="midnightblue" points="139.3,-314.12 145.45,-305.5 135.27,-308.4 139.3,-314.12"/>
</g>
<!-- Node31 -->
<g id="node31" class="node">
<title>Node31</title>
<g id="a_node31"><a xlink:href="_mouse_8h.html" target="_top" xlink:title=" ">
<polygon fill="none" stroke="black" points="54.46,-285.5 54.46,-305.5 107.96,-305.5 107.96,-285.5 54.46,-285.5"/>
<text text-anchor="middle" x="81.21" y="-292" font-family="Helvetica,sans-Serif" font-size="10.00">Mouse.h</text>
</a>
</g>
</g>
<!-- Node2&#45;&gt;Node31 -->
<g id="edge41" class="edge">
<title>Node2&#45;&gt;Node31</title>
<path fill="none" stroke="midnightblue" d="M81.21,-342.91C81.21,-335.76 81.21,-325.32 81.21,-316.15"/>
<polygon fill="midnightblue" stroke="midnightblue" points="84.71,-316.21 81.21,-306.21 77.71,-316.21 84.71,-316.21"/>
</g>
<!-- Node4 -->
<g id="node4" class="node">
<title>Node4</title>
<g id="a_node4"><a xlink:title=" ">
<polygon fill="none" stroke="#bfbfbf" points="299.34,-114.5 299.34,-134.5 367.09,-134.5 367.09,-114.5 299.34,-114.5"/>
<text text-anchor="middle" x="333.21" y="-121" font-family="Helvetica,sans-Serif" font-size="10.00">sdkddkver.h</text>
</a>
</g>
</g>
<!-- Node3&#45;&gt;Node4 -->
<g id="edge3" class="edge">
<title>Node3&#45;&gt;Node4</title>
<path fill="none" stroke="midnightblue" d="M346.71,-171.91C344.59,-164.6 341.46,-153.85 338.75,-144.54"/>
<polygon fill="midnightblue" stroke="midnightblue" points="341.9,-143.84 335.75,-135.21 335.18,-145.79 341.9,-143.84"/>
</g>
<!-- Node5 -->
<g id="node5" class="node">
<title>Node5</title>
<g id="a_node5"><a xlink:title=" ">
<polygon fill="none" stroke="#bfbfbf" points="385.21,-114.5 385.21,-134.5 449.21,-134.5 449.21,-114.5 385.21,-114.5"/>
<text text-anchor="middle" x="417.21" y="-121" font-family="Helvetica,sans-Serif" font-size="10.00">Windows.h</text>
</a>
</g>
</g>
<!-- Node3&#45;&gt;Node5 -->
<g id="edge4" class="edge">
<title>Node3&#45;&gt;Node5</title>
<path fill="none" stroke="midnightblue" d="M360.14,-171.66C370.29,-163.45 385.64,-151.04 397.86,-141.15"/>
<polygon fill="midnightblue" stroke="midnightblue" points="399.52,-143.51 405.09,-134.5 395.11,-138.06 399.52,-143.51"/>
</g>
<!-- Node6&#45;&gt;Node7 -->
<g id="edge6" class="edge">
<title>Node6&#45;&gt;Node7</title>
<path fill="none" stroke="midnightblue" d="M261.21,-171.91C261.21,-164.76 261.21,-154.32 261.21,-145.15"/>
<polygon fill="midnightblue" stroke="midnightblue" points="264.71,-145.21 261.21,-135.21 257.71,-145.21 264.71,-145.21"/>
</g>
<!-- Node8&#45;&gt;Node6 -->
<g id="edge8" class="edge">
<title>Node8&#45;&gt;Node6</title>
<path fill="none" stroke="midnightblue" d="M359.87,-293.99C327.43,-291.57 278.19,-282.23 254.21,-249 244.35,-235.33 247.93,-215.78 252.87,-201.41"/>
<polygon fill="midnightblue" stroke="midnightblue" points="256.48,-202.8 256.9,-192.21 249.97,-200.23 256.48,-202.8"/>
</g>
<!-- Node9 -->
<g id="node9" class="node">
<title>Node9</title>
<g id="a_node9"><a xlink:href="_vector3_8h.html" target="_top" xlink:title=" ">
<polygon fill="none" stroke="black" points="467.09,-114.5 467.09,-134.5 587.34,-134.5 587.34,-114.5 467.09,-114.5"/>
<text text-anchor="middle" x="527.21" y="-121" font-family="Helvetica,sans-Serif" font-size="10.00">LinearAlgebra/Vector3.h</text>
</a>
</g>
</g>
<!-- Node8&#45;&gt;Node9 -->
<g id="edge9" class="edge">
<title>Node8&#45;&gt;Node9</title>
<path fill="none" stroke="midnightblue" d="M422.67,-289.22C495.72,-276.23 673.04,-240.24 705.21,-192 734.14,-148.64 659.54,-133.47 598.2,-128.21"/>
<polygon fill="midnightblue" stroke="midnightblue" points="598.56,-124.65 588.32,-127.37 598.02,-131.63 598.56,-124.65"/>
</g>
<!-- Node20 -->
<g id="node20" class="node">
<title>Node20</title>
<g id="a_node20"><a xlink:href="_g_d_i_plus_manager_8h.html" target="_top" xlink:title=" ">
<polygon fill="none" stroke="black" points="385.34,-228.5 385.34,-248.5 483.09,-248.5 483.09,-228.5 385.34,-228.5"/>
<text text-anchor="middle" x="434.21" y="-235" font-family="Helvetica,sans-Serif" font-size="10.00">GDIPlusManager.h</text>
</a>
</g>
</g>
<!-- Node8&#45;&gt;Node20 -->
<g id="edge25" class="edge">
<title>Node8&#45;&gt;Node20</title>
<path fill="none" stroke="midnightblue" d="M397.93,-285.91C404.02,-278.12 413.17,-266.42 420.76,-256.71"/>
<polygon fill="midnightblue" stroke="midnightblue" points="424,-259.25 427.4,-249.21 418.48,-254.94 424,-259.25"/>
</g>
<!-- Node21 -->
<g id="node21" class="node">
<title>Node21</title>
<g id="a_node21"><a xlink:href="_surface_8h.html" target="_top" xlink:title=" ">
<polygon fill="none" stroke="black" points="501.59,-228.5 501.59,-248.5 558.84,-248.5 558.84,-228.5 501.59,-228.5"/>
<text text-anchor="middle" x="530.21" y="-235" font-family="Helvetica,sans-Serif" font-size="10.00">Surface.h</text>
</a>
</g>
</g>
<!-- Node8&#45;&gt;Node21 -->
<g id="edge27" class="edge">
<title>Node8&#45;&gt;Node21</title>
<path fill="none" stroke="midnightblue" d="M413.86,-285.54C436.57,-276.55 471.8,-262.62 497.54,-252.43"/>
<polygon fill="midnightblue" stroke="midnightblue" points="498.57,-255.39 506.58,-248.46 496,-248.88 498.57,-255.39"/>
</g>
<!-- Node26 -->
<g id="node26" class="node">
<title>Node26</title>
<g id="a_node26"><a xlink:title=" ">
<polygon fill="none" stroke="#bfbfbf" points="262.96,-228.5 262.96,-248.5 313.46,-248.5 313.46,-228.5 262.96,-228.5"/>
<text text-anchor="middle" x="288.21" y="-235" font-family="Helvetica,sans-Serif" font-size="10.00">d3d11.h</text>
</a>
</g>
</g>
<!-- Node8&#45;&gt;Node26 -->
<g id="edge36" class="edge">
<title>Node8&#45;&gt;Node26</title>
<path fill="none" stroke="midnightblue" d="M374.67,-285.66C358.47,-277.01 333.54,-263.7 314.61,-253.59"/>
<polygon fill="midnightblue" stroke="midnightblue" points="316.53,-250.12 306.06,-248.5 313.24,-256.3 316.53,-250.12"/>
</g>
<!-- Node27 -->
<g id="node27" class="node">
<title>Node27</title>
<g id="a_node27"><a xlink:title=" ">
<polygon fill="none" stroke="#bfbfbf" points="331.09,-228.5 331.09,-248.5 367.34,-248.5 367.34,-228.5 331.09,-228.5"/>
<text text-anchor="middle" x="349.21" y="-235" font-family="Helvetica,sans-Serif" font-size="10.00">wrl.h</text>
</a>
</g>
</g>
<!-- Node8&#45;&gt;Node27 -->
<g id="edge37" class="edge">
<title>Node8&#45;&gt;Node27</title>
<path fill="none" stroke="midnightblue" d="M384.65,-285.91C378.71,-278.12 369.77,-266.42 362.36,-256.71"/>
<polygon fill="midnightblue" stroke="midnightblue" points="364.72,-255.04 355.87,-249.21 359.16,-259.29 364.72,-255.04"/>
</g>
<!-- Node10 -->
<g id="node10" class="node">
<title>Node10</title>
<g id="a_node10"><a xlink:href="_math_8h.html" target="_top" xlink:title=" ">
<polygon fill="none" stroke="black" points="545.21,-57.5 545.21,-77.5 591.21,-77.5 591.21,-57.5 545.21,-57.5"/>
<text text-anchor="middle" x="568.21" y="-64" font-family="Helvetica,sans-Serif" font-size="10.00">Math.h</text>
</a>
</g>
</g>
<!-- Node9&#45;&gt;Node10 -->
<g id="edge10" class="edge">
<title>Node9&#45;&gt;Node10</title>
<path fill="none" stroke="midnightblue" d="M533.62,-114.91C539.36,-107.2 547.97,-95.66 555.16,-86.02"/>
<polygon fill="midnightblue" stroke="midnightblue" points="558.55,-88.32 561.72,-78.21 552.94,-84.14 558.55,-88.32"/>
</g>
<!-- Node15 -->
<g id="node15" class="node">
<title>Node15</title>
<g id="a_node15"><a xlink:href="_matrix3_8h.html" target="_top" xlink:title=" ">
<polygon fill="none" stroke="black" points="394.96,-57.5 394.96,-77.5 451.46,-77.5 451.46,-57.5 394.96,-57.5"/>
<text text-anchor="middle" x="423.21" y="-64" font-family="Helvetica,sans-Serif" font-size="10.00">Matrix3.h</text>
</a>
</g>
</g>
<!-- Node9&#45;&gt;Node15 -->
<g id="edge16" class="edge">
<title>Node9&#45;&gt;Node15</title>
<path fill="none" stroke="midnightblue" d="M510.51,-114.66C494.15,-106.01 468.98,-92.7 449.86,-82.59"/>
<polygon fill="midnightblue" stroke="midnightblue" points="451.7,-79.08 441.23,-77.5 448.43,-85.27 451.7,-79.08"/>
</g>
<!-- Node16 -->
<g id="node16" class="node">
<title>Node16</title>
<g id="a_node16"><a xlink:title=" ">
<polygon fill="none" stroke="#bfbfbf" points="343.34,-0.5 343.34,-20.5 381.09,-20.5 381.09,-0.5 343.34,-0.5"/>
<text text-anchor="middle" x="362.21" y="-7" font-family="Helvetica,sans-Serif" font-size="10.00">array</text>
</a>
</g>
</g>
<!-- Node9&#45;&gt;Node16 -->
<g id="edge21" class="edge">
<title>Node9&#45;&gt;Node16</title>
<path fill="none" stroke="midnightblue" d="M520.17,-114.77C508.75,-101.05 484.96,-74.23 460.21,-57 438.68,-42.01 411.43,-29.82 391.13,-21.84"/>
<polygon fill="midnightblue" stroke="midnightblue" points="392.52,-18.25 381.93,-17.96 390.03,-24.79 392.52,-18.25"/>
</g>
<!-- Node17 -->
<g id="node17" class="node">
<title>Node17</title>
<g id="a_node17"><a xlink:title=" ">
<polygon fill="none" stroke="#bfbfbf" points="399.46,-0.5 399.46,-20.5 446.96,-20.5 446.96,-0.5 399.46,-0.5"/>
<text text-anchor="middle" x="423.21" y="-7" font-family="Helvetica,sans-Serif" font-size="10.00">cstddef</text>
</a>
</g>
</g>
<!-- Node9&#45;&gt;Node17 -->
<g id="edge24" class="edge">
<title>Node9&#45;&gt;Node17</title>
<path fill="none" stroke="midnightblue" d="M524.45,-114.88C519.76,-101.32 509.19,-74.72 493.21,-57 481.66,-44.18 465.7,-33.44 451.95,-25.62"/>
<polygon fill="midnightblue" stroke="midnightblue" points="453.87,-22.14 443.41,-20.45 450.54,-28.29 453.87,-22.14"/>
</g>
<!-- Node18 -->
<g id="node18" class="node">
<title>Node18</title>
<g id="a_node18"><a xlink:title=" ">
<polygon fill="none" stroke="#bfbfbf" points="204.46,-0.5 204.46,-20.5 257.96,-20.5 257.96,-0.5 204.46,-0.5"/>
<text text-anchor="middle" x="231.21" y="-7" font-family="Helvetica,sans-Serif" font-size="10.00">iostream</text>
</a>
</g>
</g>
<!-- Node9&#45;&gt;Node18 -->
<g id="edge22" class="edge">
<title>Node9&#45;&gt;Node18</title>
<path fill="none" stroke="midnightblue" d="M493.21,-114.52C464.23,-106.4 421.74,-93.38 386.21,-78 368.51,-70.33 365.69,-65.18 348.21,-57 321.68,-44.58 290.76,-32.66 267.37,-24.14"/>
<polygon fill="midnightblue" stroke="midnightblue" points="268.79,-20.57 258.19,-20.47 266.41,-27.15 268.79,-20.57"/>
</g>
<!-- Node19 -->
<g id="node19" class="node">
<title>Node19</title>
<g id="a_node19"><a xlink:title=" ">
<polygon fill="none" stroke="#bfbfbf" points="285.46,-57.5 285.46,-77.5 338.96,-77.5 338.96,-57.5 285.46,-57.5"/>
<text text-anchor="middle" x="312.21" y="-64" font-family="Helvetica,sans-Serif" font-size="10.00">compare</text>
</a>
</g>
</g>
<!-- Node9&#45;&gt;Node19 -->
<g id="edge23" class="edge">
<title>Node9&#45;&gt;Node19</title>
<path fill="none" stroke="midnightblue" d="M492.19,-114.54C452.85,-104.48 389.25,-88.21 349.14,-77.95"/>
<polygon fill="midnightblue" stroke="midnightblue" points="350.29,-74.37 339.74,-75.28 348.56,-81.15 350.29,-74.37"/>
</g>
<!-- Node10&#45;&gt;Node10 -->
<g id="edge11" class="edge">
<title>Node10&#45;&gt;Node10</title>
<path fill="none" stroke="midnightblue" d="M586.77,-77.43C598.27,-79.83 609.21,-76.52 609.21,-67.5 609.21,-61.44 604.27,-57.96 597.54,-57.05"/>
<polygon fill="midnightblue" stroke="midnightblue" points="597.59,-53.59 587.77,-57.57 597.92,-60.59 597.59,-53.59"/>
</g>
<!-- Node11 -->
<g id="node11" class="node">
<title>Node11</title>
<g id="a_node11"><a xlink:title=" ">
<polygon fill="none" stroke="#bfbfbf" points="464.71,-0.5 464.71,-20.5 507.71,-20.5 507.71,-0.5 464.71,-0.5"/>
<text text-anchor="middle" x="486.21" y="-7" font-family="Helvetica,sans-Serif" font-size="10.00">cmath</text>
</a>
</g>
</g>
<!-- Node10&#45;&gt;Node11 -->
<g id="edge12" class="edge">
<title>Node10&#45;&gt;Node11</title>
<path fill="none" stroke="midnightblue" d="M555.04,-57.66C542.56,-49.29 523.57,-36.56 508.7,-26.58"/>
<polygon fill="midnightblue" stroke="midnightblue" points="510.88,-23.16 500.63,-20.5 506.98,-28.97 510.88,-23.16"/>
</g>
<!-- Node12 -->
<g id="node12" class="node">
<title>Node12</title>
<g id="a_node12"><a xlink:title=" ">
<polygon fill="none" stroke="#bfbfbf" points="592.59,-0.5 592.59,-20.5 631.84,-20.5 631.84,-0.5 592.59,-0.5"/>
<text text-anchor="middle" x="612.21" y="-7" font-family="Helvetica,sans-Serif" font-size="10.00">limits</text>
</a>
</g>
</g>
<!-- Node10&#45;&gt;Node12 -->
<g id="edge13" class="edge">
<title>Node10&#45;&gt;Node12</title>
<path fill="none" stroke="midnightblue" d="M575.09,-57.91C581.32,-50.12 590.68,-38.42 598.44,-28.71"/>
<polygon fill="midnightblue" stroke="midnightblue" points="601.73,-31.21 605.24,-21.21 596.26,-26.84 601.73,-31.21"/>
</g>
<!-- Node13 -->
<g id="node13" class="node">
<title>Node13</title>
<g id="a_node13"><a xlink:title=" ">
<polygon fill="none" stroke="#bfbfbf" points="649.46,-0.5 649.46,-20.5 702.96,-20.5 702.96,-0.5 649.46,-0.5"/>
<text text-anchor="middle" x="676.21" y="-7" font-family="Helvetica,sans-Serif" font-size="10.00">numbers</text>
</a>
</g>
</g>
<!-- Node10&#45;&gt;Node13 -->
<g id="edge14" class="edge">
<title>Node10&#45;&gt;Node13</title>
<path fill="none" stroke="midnightblue" d="M585.57,-57.66C602.63,-48.97 628.93,-35.58 648.82,-25.45"/>
<polygon fill="midnightblue" stroke="midnightblue" points="650.22,-28.15 657.55,-20.5 647.05,-21.92 650.22,-28.15"/>
</g>
<!-- Node14 -->
<g id="node14" class="node">
<title>Node14</title>
<g id="a_node14"><a xlink:title=" ">
<polygon fill="none" stroke="#bfbfbf" points="526.09,-0.5 526.09,-20.5 574.34,-20.5 574.34,-0.5 526.09,-0.5"/>
<text text-anchor="middle" x="550.21" y="-7" font-family="Helvetica,sans-Serif" font-size="10.00">random</text>
</a>
</g>
</g>
<!-- Node10&#45;&gt;Node14 -->
<g id="edge15" class="edge">
<title>Node10&#45;&gt;Node14</title>
<path fill="none" stroke="midnightblue" d="M565.4,-57.91C563.01,-50.6 559.49,-39.85 556.45,-30.54"/>
<polygon fill="midnightblue" stroke="midnightblue" points="559.5,-29.63 553.07,-21.21 552.85,-31.81 559.5,-29.63"/>
</g>
<!-- Node15&#45;&gt;Node11 -->
<g id="edge18" class="edge">
<title>Node15&#45;&gt;Node11</title>
<path fill="none" stroke="midnightblue" d="M433.34,-57.66C442.65,-49.53 456.68,-37.28 467.95,-27.44"/>
<polygon fill="midnightblue" stroke="midnightblue" points="469.68,-29.71 474.91,-20.5 465.07,-24.44 469.68,-29.71"/>
</g>
<!-- Node15&#45;&gt;Node16 -->
<g id="edge17" class="edge">
<title>Node15&#45;&gt;Node16</title>
<path fill="none" stroke="midnightblue" d="M413.41,-57.66C404.49,-49.61 391.07,-37.52 380.22,-27.73"/>
<polygon fill="midnightblue" stroke="midnightblue" points="382.96,-25.59 373.19,-21.5 378.28,-30.79 382.96,-25.59"/>
</g>
<!-- Node15&#45;&gt;Node17 -->
<g id="edge19" class="edge">
<title>Node15&#45;&gt;Node17</title>
<path fill="none" stroke="midnightblue" d="M423.21,-57.91C423.21,-50.76 423.21,-40.32 423.21,-31.15"/>
<polygon fill="midnightblue" stroke="midnightblue" points="426.71,-31.21 423.21,-21.21 419.71,-31.21 426.71,-31.21"/>
</g>
<!-- Node15&#45;&gt;Node18 -->
<g id="edge20" class="edge">
<title>Node15&#45;&gt;Node18</title>
<path fill="none" stroke="midnightblue" d="M395.3,-58.5C361.79,-48.9 305.47,-32.77 268.33,-22.13"/>
<polygon fill="midnightblue" stroke="midnightblue" points="269.51,-18.54 258.93,-19.15 267.58,-25.27 269.51,-18.54"/>
</g>
<!-- Node20&#45;&gt;Node3 -->
<g id="edge26" class="edge">
<title>Node20&#45;&gt;Node3</title>
<path fill="none" stroke="midnightblue" d="M420.56,-228.66C407.5,-220.21 387.56,-207.31 372.08,-197.3"/>
<polygon fill="midnightblue" stroke="midnightblue" points="374.42,-193.99 364.12,-191.5 370.61,-199.87 374.42,-193.99"/>
</g>
<!-- Node21&#45;&gt;Node3 -->
<g id="edge28" class="edge">
<title>Node21&#45;&gt;Node3</title>
<path fill="none" stroke="midnightblue" d="M501.93,-228.91C468.83,-218.85 414.19,-202.24 380.03,-191.86"/>
<polygon fill="midnightblue" stroke="midnightblue" points="381.3,-188.29 370.71,-188.73 379.26,-194.99 381.3,-188.29"/>
</g>
<!-- Node21&#45;&gt;Node6 -->
<g id="edge31" class="edge">
<title>Node21&#45;&gt;Node6</title>
<path fill="none" stroke="midnightblue" d="M501.62,-230.19C498.45,-229.43 495.27,-228.68 492.21,-228 434.11,-215.02 367.35,-202.08 320.58,-193.34"/>
<polygon fill="midnightblue" stroke="midnightblue" points="321.51,-189.77 311.04,-191.38 320.23,-196.65 321.51,-189.77"/>
</g>
<!-- Node21&#45;&gt;Node7 -->
<g id="edge34" class="edge">
<title>Node21&#45;&gt;Node7</title>
<path fill="none" stroke="midnightblue" d="M505.6,-228.58C482.45,-219.96 447.01,-206.17 417.21,-192 399.79,-183.71 396.7,-179.16 379.21,-171 350.05,-157.4 315.61,-144.46 291.49,-135.88"/>
<polygon fill="midnightblue" stroke="midnightblue" points="292.78,-132.27 282.19,-132.26 290.46,-138.88 292.78,-132.27"/>
</g>
<!-- Node22 -->
<g id="node22" class="node">
<title>Node22</title>
<g id="a_node22"><a xlink:href="_colors_8h.html" target="_top" xlink:title=" ">
<polygon fill="none" stroke="black" points="574.21,-171.5 574.21,-191.5 626.21,-191.5 626.21,-171.5 574.21,-171.5"/>
<text text-anchor="middle" x="600.21" y="-178" font-family="Helvetica,sans-Serif" font-size="10.00">Colors.h</text>
</a>
</g>
</g>
<!-- Node21&#45;&gt;Node22 -->
<g id="edge29" class="edge">
<title>Node21&#45;&gt;Node22</title>
<path fill="none" stroke="midnightblue" d="M541.46,-228.66C551.91,-220.45 567.71,-208.04 580.29,-198.15"/>
<polygon fill="midnightblue" stroke="midnightblue" points="582.06,-200.43 587.76,-191.5 577.74,-194.92 582.06,-200.43"/>
</g>
<!-- Node23 -->
<g id="node23" class="node">
<title>Node23</title>
<g id="a_node23"><a xlink:title=" ">
<polygon fill="none" stroke="#bfbfbf" points="504.59,-171.5 504.59,-191.5 555.84,-191.5 555.84,-171.5 504.59,-171.5"/>
<text text-anchor="middle" x="530.21" y="-178" font-family="Helvetica,sans-Serif" font-size="10.00">assert.h</text>
</a>
</g>
</g>
<!-- Node21&#45;&gt;Node23 -->
<g id="edge32" class="edge">
<title>Node21&#45;&gt;Node23</title>
<path fill="none" stroke="midnightblue" d="M530.21,-228.91C530.21,-221.76 530.21,-211.32 530.21,-202.15"/>
<polygon fill="midnightblue" stroke="midnightblue" points="533.71,-202.21 530.21,-192.21 526.71,-202.21 533.71,-202.21"/>
</g>
<!-- Node24 -->
<g id="node24" class="node">
<title>Node24</title>
<g id="a_node24"><a xlink:title=" ">
<polygon fill="none" stroke="#bfbfbf" points="644.59,-171.5 644.59,-191.5 695.84,-191.5 695.84,-171.5 644.59,-171.5"/>
<text text-anchor="middle" x="670.21" y="-178" font-family="Helvetica,sans-Serif" font-size="10.00">memory</text>
</a>
</g>
</g>
<!-- Node21&#45;&gt;Node24 -->
<g id="edge33" class="edge">
<title>Node21&#45;&gt;Node24</title>
<path fill="none" stroke="midnightblue" d="M553.02,-228.54C575.9,-219.55 611.38,-205.62 637.3,-195.43"/>
<polygon fill="midnightblue" stroke="midnightblue" points="638.39,-198.37 646.42,-191.46 635.83,-191.85 638.39,-198.37"/>
</g>
<!-- Node25 -->
<g id="node25" class="node">
<title>Node25</title>
<g id="a_node25"><a xlink:title=" ">
<polygon fill="none" stroke="#bfbfbf" points="426.09,-171.5 426.09,-191.5 486.34,-191.5 486.34,-171.5 426.09,-171.5"/>
<text text-anchor="middle" x="456.21" y="-178" font-family="Helvetica,sans-Serif" font-size="10.00">filesystem</text>
</a>
</g>
</g>
<!-- Node21&#45;&gt;Node25 -->
<g id="edge35" class="edge">
<title>Node21&#45;&gt;Node25</title>
<path fill="none" stroke="midnightblue" d="M518.33,-228.66C507.17,-220.37 490.25,-207.8 476.89,-197.87"/>
<polygon fill="midnightblue" stroke="midnightblue" points="479.43,-194.65 469.32,-191.5 475.26,-200.27 479.43,-194.65"/>
</g>
<!-- Node22&#45;&gt;Node9 -->
<g id="edge30" class="edge">
<title>Node22&#45;&gt;Node9</title>
<path fill="none" stroke="midnightblue" d="M588.49,-171.66C577.48,-163.37 560.79,-150.8 547.61,-140.87"/>
<polygon fill="midnightblue" stroke="midnightblue" points="550.25,-137.72 540.16,-134.5 546.04,-143.31 550.25,-137.72"/>
</g>
<!-- Node29 -->
<g id="node29" class="node">
<title>Node29</title>
<g id="a_node29"><a xlink:title=" ">
<polygon fill="none" stroke="#bfbfbf" points="129.21,-228.5 129.21,-248.5 169.21,-248.5 169.21,-228.5 129.21,-228.5"/>
<text text-anchor="middle" x="149.21" y="-235" font-family="Helvetica,sans-Serif" font-size="10.00">bitset</text>
</a>
</g>
</g>
<!-- Node28&#45;&gt;Node29 -->
<g id="edge39" class="edge">
<title>Node28&#45;&gt;Node29</title>
<path fill="none" stroke="midnightblue" d="M157.65,-285.91C156.34,-278.68 154.41,-268.09 152.73,-258.85"/>
<polygon fill="midnightblue" stroke="midnightblue" points="156.03,-258.43 150.8,-249.21 149.14,-259.68 156.03,-258.43"/>
</g>
<!-- Node30 -->
<g id="node30" class="node">
<title>Node30</title>
<g id="a_node30"><a xlink:title=" ">
<polygon fill="none" stroke="#bfbfbf" points="69.09,-228.5 69.09,-248.5 111.34,-248.5 111.34,-228.5 69.09,-228.5"/>
<text text-anchor="middle" x="90.21" y="-235" font-family="Helvetica,sans-Serif" font-size="10.00">queue</text>
</a>
</g>
</g>
<!-- Node28&#45;&gt;Node30 -->
<g id="edge40" class="edge">
<title>Node28&#45;&gt;Node30</title>
<path fill="none" stroke="midnightblue" d="M148.13,-285.66C137.83,-277.45 122.26,-265.04 109.85,-255.15"/>
<polygon fill="midnightblue" stroke="midnightblue" points="112.5,-251.99 102.5,-248.5 108.14,-257.47 112.5,-251.99"/>
</g>
<!-- Node31&#45;&gt;Node30 -->
<g id="edge51" class="edge">
<title>Node31&#45;&gt;Node30</title>
<path fill="none" stroke="midnightblue" d="M82.62,-285.91C83.8,-278.68 85.54,-268.09 87.05,-258.85"/>
<polygon fill="midnightblue" stroke="midnightblue" points="90.63,-259.65 88.79,-249.21 83.72,-258.52 90.63,-259.65"/>
</g>
<!-- Node32 -->
<g id="node32" class="node">
<title>Node32</title>
<g id="a_node32"><a xlink:href="_vector2_8h.html" target="_top" xlink:title=" ">
<polygon fill="none" stroke="black" points="103.09,-114.5 103.09,-134.5 223.34,-134.5 223.34,-114.5 103.09,-114.5"/>
<text text-anchor="middle" x="163.21" y="-121" font-family="Helvetica,sans-Serif" font-size="10.00">LinearAlgebra/Vector2.h</text>
</a>
</g>
</g>
<!-- Node31&#45;&gt;Node32 -->
<g id="edge42" class="edge">
<title>Node31&#45;&gt;Node32</title>
<path fill="none" stroke="midnightblue" d="M74.55,-285.72C65.63,-272.83 51.85,-248.12 60.21,-228 76.27,-189.37 114.74,-157.78 139.85,-140.32"/>
<polygon fill="midnightblue" stroke="midnightblue" points="141.4,-142.82 147.75,-134.33 137.5,-137.01 141.4,-142.82"/>
</g>
<!-- Node32&#45;&gt;Node10 -->
<g id="edge43" class="edge">
<title>Node32&#45;&gt;Node10</title>
<path fill="none" stroke="midnightblue" d="M223.05,-115.25C226.15,-114.83 229.22,-114.41 232.21,-114 342.9,-98.89 474.12,-81.18 534.61,-73.03"/>
<polygon fill="midnightblue" stroke="midnightblue" points="534.95,-76.38 544.4,-71.57 534.02,-69.44 534.95,-76.38"/>
</g>
<!-- Node32&#45;&gt;Node15 -->
<g id="edge46" class="edge">
<title>Node32&#45;&gt;Node15</title>
<path fill="none" stroke="midnightblue" d="M205.57,-114.54C255.23,-104.04 336.83,-86.77 384.75,-76.64"/>
<polygon fill="midnightblue" stroke="midnightblue" points="385.24,-79.9 394.3,-74.4 383.79,-73.05 385.24,-79.9"/>
</g>
<!-- Node32&#45;&gt;Node16 -->
<g id="edge47" class="edge">
<title>Node32&#45;&gt;Node16</title>
<path fill="none" stroke="midnightblue" d="M171.83,-114.66C185.75,-100.79 214.53,-73.78 243.21,-57 272.15,-40.07 308.54,-27.24 333.41,-19.59"/>
<polygon fill="midnightblue" stroke="midnightblue" points="334.05,-22.75 342.63,-16.53 332.05,-16.04 334.05,-22.75"/>
</g>
<!-- Node32&#45;&gt;Node17 -->
<g id="edge49" class="edge">
<title>Node32&#45;&gt;Node17</title>
<path fill="none" stroke="midnightblue" d="M179.29,-114.67C195.54,-105.66 221.31,-91.19 243.21,-78 258.11,-69.03 260.44,-64.3 276.21,-57 286.63,-52.18 349.23,-33.35 389.32,-21.47"/>
<polygon fill="midnightblue" stroke="midnightblue" points="390.12,-24.59 398.71,-18.4 388.13,-17.88 390.12,-24.59"/>
</g>
<!-- Node32&#45;&gt;Node18 -->
<g id="edge50" class="edge">
<title>Node32&#45;&gt;Node18</title>
<path fill="none" stroke="midnightblue" d="M151.92,-114.65C136.76,-101.68 113.16,-76.88 126.21,-57 141.25,-34.1 170.55,-22.67 194.38,-17"/>
<polygon fill="midnightblue" stroke="midnightblue" points="194.82,-20.27 203.88,-14.77 193.37,-13.42 194.82,-20.27"/>
</g>
<!-- Node32&#45;&gt;Node19 -->
<g id="edge48" class="edge">
<title>Node32&#45;&gt;Node19</title>
<path fill="none" stroke="midnightblue" d="M187.49,-114.54C212.05,-105.47 250.27,-91.37 277.92,-81.16"/>
<polygon fill="midnightblue" stroke="midnightblue" points="278.78,-84.2 286.95,-77.46 276.36,-77.63 278.78,-84.2"/>
</g>
<!-- Node33 -->
<g id="node33" class="node">
<title>Node33</title>
<g id="a_node33"><a xlink:href="_matrix2_8h.html" target="_top" xlink:title=" ">
<polygon fill="none" stroke="black" points="134.96,-57.5 134.96,-77.5 191.46,-77.5 191.46,-57.5 134.96,-57.5"/>
<text text-anchor="middle" x="163.21" y="-64" font-family="Helvetica,sans-Serif" font-size="10.00">Matrix2.h</text>
</a>
</g>
</g>
<!-- Node32&#45;&gt;Node33 -->
<g id="edge44" class="edge">
<title>Node32&#45;&gt;Node33</title>
<path fill="none" stroke="midnightblue" d="M163.21,-114.91C163.21,-107.76 163.21,-97.32 163.21,-88.15"/>
<polygon fill="midnightblue" stroke="midnightblue" points="166.71,-88.21 163.21,-78.21 159.71,-88.21 166.71,-88.21"/>
</g>
<!-- Node33&#45;&gt;Node18 -->
<g id="edge45" class="edge">
<title>Node33&#45;&gt;Node18</title>
<path fill="none" stroke="midnightblue" d="M174.14,-57.66C184.29,-49.45 199.64,-37.04 211.86,-27.15"/>
<polygon fill="midnightblue" stroke="midnightblue" points="213.52,-29.51 219.09,-20.5 209.11,-24.06 213.52,-29.51"/>
</g>
<!-- Node34&#45;&gt;Node8 -->
<g id="edge56" class="edge">
<title>Node34&#45;&gt;Node8</title>
<path fill="none" stroke="midnightblue" d="M459.3,-399.88C454.67,-386.77 444.82,-361.3 432.21,-342 425.4,-331.56 416.22,-321.14 408.28,-312.91"/>
<polygon fill="midnightblue" stroke="midnightblue" points="411.14,-310.82 401.6,-306.21 406.19,-315.76 411.14,-310.82"/>
</g>
<!-- Node34&#45;&gt;Node24 -->
<g id="edge62" class="edge">
<title>Node34&#45;&gt;Node24</title>
<path fill="none" stroke="midnightblue" d="M468.54,-399.77C483.68,-379.09 523.54,-325.77 561.21,-285 591.12,-252.64 629.25,-218.16 651.58,-198.58"/>
<polygon fill="midnightblue" stroke="midnightblue" points="653.6,-200.59 658.84,-191.38 649,-195.31 653.6,-200.59"/>
</g>
<!-- Node35 -->
<g id="node35" class="node">
<title>Node35</title>
<g id="a_node35"><a xlink:href="_frame_timer_8h.html" target="_top" xlink:title=" ">
<polygon fill="none" stroke="black" points="555.21,-342.5 555.21,-362.5 631.21,-362.5 631.21,-342.5 555.21,-342.5"/>
<text text-anchor="middle" x="593.21" y="-349" font-family="Helvetica,sans-Serif" font-size="10.00">FrameTimer.h</text>
</a>
</g>
</g>
<!-- Node34&#45;&gt;Node35 -->
<g id="edge54" class="edge">
<title>Node34&#45;&gt;Node35</title>
<path fill="none" stroke="midnightblue" d="M483.55,-399.54C504.77,-390.63 537.57,-376.86 561.77,-366.7"/>
<polygon fill="midnightblue" stroke="midnightblue" points="563.02,-369.55 570.89,-362.46 560.31,-363.1 563.02,-369.55"/>
</g>
<!-- Node37 -->
<g id="node37" class="node">
<title>Node37</title>
<g id="a_node37"><a xlink:href="_scene_8h.html" target="_top" xlink:title=" ">
<polygon fill="none" stroke="black" points="194.21,-342.5 194.21,-362.5 246.21,-362.5 246.21,-342.5 194.21,-342.5"/>
<text text-anchor="middle" x="220.21" y="-349" font-family="Helvetica,sans-Serif" font-size="10.00">Scene.h</text>
</a>
</g>
</g>
<!-- Node34&#45;&gt;Node37 -->
<g id="edge57" class="edge">
<title>Node34&#45;&gt;Node37</title>
<path fill="none" stroke="midnightblue" d="M435.39,-402.4C391.8,-392.5 305.54,-372.89 256.51,-361.75"/>
<polygon fill="midnightblue" stroke="midnightblue" points="257.58,-358.18 247.06,-359.37 256.03,-365 257.58,-358.18"/>
</g>
<!-- Node38 -->
<g id="node38" class="node">
<title>Node38</title>
<g id="a_node38"><a xlink:title=" ">
<polygon fill="none" stroke="#bfbfbf" points="381.46,-342.5 381.46,-362.5 422.96,-362.5 422.96,-342.5 381.46,-342.5"/>
<text text-anchor="middle" x="402.21" y="-349" font-family="Helvetica,sans-Serif" font-size="10.00">vector</text>
</a>
</g>
</g>
<!-- Node34&#45;&gt;Node38 -->
<g id="edge63" class="edge">
<title>Node34&#45;&gt;Node38</title>
<path fill="none" stroke="midnightblue" d="M452.57,-399.66C443.79,-391.61 430.6,-379.52 419.92,-369.73"/>
<polygon fill="midnightblue" stroke="midnightblue" points="422.77,-367.67 413.03,-363.5 418.04,-372.83 422.77,-367.67"/>
</g>
<!-- Node36 -->
<g id="node36" class="node">
<title>Node36</title>
<g id="a_node36"><a xlink:title=" ">
<polygon fill="none" stroke="#bfbfbf" points="570.59,-285.5 570.59,-305.5 615.84,-305.5 615.84,-285.5 570.59,-285.5"/>
<text text-anchor="middle" x="593.21" y="-292" font-family="Helvetica,sans-Serif" font-size="10.00">chrono</text>
</a>
</g>
</g>
<!-- Node35&#45;&gt;Node36 -->
<g id="edge55" class="edge">
<title>Node35&#45;&gt;Node36</title>
<path fill="none" stroke="midnightblue" d="M593.21,-342.91C593.21,-335.76 593.21,-325.32 593.21,-316.15"/>
<polygon fill="midnightblue" stroke="midnightblue" points="596.71,-316.21 593.21,-306.21 589.71,-316.21 596.71,-316.21"/>
</g>
<!-- Node37&#45;&gt;Node7 -->
<g id="edge61" class="edge">
<title>Node37&#45;&gt;Node7</title>
<path fill="none" stroke="midnightblue" d="M218.21,-342.79C211.09,-311.05 188.21,-201.85 203.21,-171 209.51,-158.05 221.48,-147.7 232.91,-140.16"/>
<polygon fill="midnightblue" stroke="midnightblue" points="234.52,-142.67 241.25,-134.49 230.89,-136.68 234.52,-142.67"/>
</g>
<!-- Node37&#45;&gt;Node8 -->
<g id="edge60" class="edge">
<title>Node37&#45;&gt;Node8</title>
<path fill="none" stroke="midnightblue" d="M246.19,-343.15C274.68,-333.98 320.69,-319.18 353.24,-308.72"/>
<polygon fill="midnightblue" stroke="midnightblue" points="353.84,-311.88 362.29,-305.48 351.7,-305.21 353.84,-311.88"/>
</g>
<!-- Node37&#45;&gt;Node28 -->
<g id="edge58" class="edge">
<title>Node37&#45;&gt;Node28</title>
<path fill="none" stroke="midnightblue" d="M210.41,-342.66C201.49,-334.61 188.07,-322.52 177.22,-312.73"/>
<polygon fill="midnightblue" stroke="midnightblue" points="179.96,-310.59 170.19,-306.5 175.28,-315.79 179.96,-310.59"/>
</g>
<!-- Node37&#45;&gt;Node31 -->
<g id="edge59" class="edge">
<title>Node37&#45;&gt;Node31</title>
<path fill="none" stroke="midnightblue" d="M197.57,-342.54C174.85,-333.55 139.63,-319.62 113.89,-309.43"/>
<polygon fill="midnightblue" stroke="midnightblue" points="115.43,-305.88 104.85,-305.46 112.86,-312.39 115.43,-305.88"/>
</g>
</g>
</svg>
