<?xml version="1.0" encoding="UTF-8" standalone="no"?>
<!DOCTYPE svg PUBLIC "-//W3C//DTD SVG 1.1//EN"
 "http://www.w3.org/Graphics/SVG/1.1/DTD/svg11.dtd">
<!-- Generated by graphviz version 8.1.0 (20230707.0739)
 -->
<!-- Title: src/Main.cpp Pages: 1 -->
<svg width="1377pt" height="428pt"
 viewBox="0.00 0.00 1377.35 428.00" xmlns="http://www.w3.org/2000/svg" xmlns:xlink="http://www.w3.org/1999/xlink">
<g id="graph0" class="graph" transform="scale(1 1) rotate(0) translate(4 424)">
<title>src/Main.cpp</title>
<!-- Node1 -->
<g id="node1" class="node">
<title>Node1</title>
<g id="a_node1"><a xlink:title=" ">
<polygon fill="#bfbfbf" stroke="black" points="776,-399.5 776,-419.5 848.25,-419.5 848.25,-399.5 776,-399.5"/>
<text text-anchor="middle" x="812.12" y="-406" font-family="Helvetica,sans-Serif" font-size="10.00">src/Main.cpp</text>
</a>
</g>
</g>
<!-- Node2 -->
<g id="node2" class="node">
<title>Node2</title>
<g id="a_node2"><a xlink:href="_engine_8h.html" target="_top" xlink:title=" ">
<polygon fill="none" stroke="black" points="785,-342.5 785,-362.5 839.25,-362.5 839.25,-342.5 785,-342.5"/>
<text text-anchor="middle" x="812.12" y="-349" font-family="Helvetica,sans-Serif" font-size="10.00">Engine.h</text>
</a>
</g>
</g>
<!-- Node1&#45;&gt;Node2 -->
<g id="edge1" class="edge">
<title>Node1&#45;&gt;Node2</title>
<path fill="none" stroke="midnightblue" d="M812.12,-399.91C812.12,-392.76 812.12,-382.32 812.12,-373.15"/>
<polygon fill="midnightblue" stroke="midnightblue" points="815.63,-373.21 812.12,-363.21 808.63,-373.21 815.63,-373.21"/>
</g>
<!-- Node17 -->
<g id="node17" class="node">
<title>Node17</title>
<g id="a_node17"><a xlink:title=" ">
<polygon fill="none" stroke="#bfbfbf" points="546.38,-0.5 546.38,-20.5 599.88,-20.5 599.88,-0.5 546.38,-0.5"/>
<text text-anchor="middle" x="573.12" y="-7" font-family="Helvetica,sans-Serif" font-size="10.00">iostream</text>
</a>
</g>
</g>
<!-- Node1&#45;&gt;Node17 -->
<g id="edge69" class="edge">
<title>Node1&#45;&gt;Node17</title>
<path fill="none" stroke="midnightblue" d="M776.42,-405.13C717.68,-397.41 607.12,-372.74 607.12,-296.5 607.12,-296.5 607.12,-296.5 607.12,-237.5 607.12,-156.83 659.8,-130.3 626.12,-57 620.37,-44.47 609.27,-34.1 598.71,-26.43"/>
<polygon fill="midnightblue" stroke="midnightblue" points="600.98,-23.07 590.72,-20.41 597.08,-28.88 600.98,-23.07"/>
</g>
<!-- Node38 -->
<g id="node38" class="node">
<title>Node38</title>
<g id="a_node38"><a xlink:title=" ">
<polygon fill="none" stroke="#bfbfbf" points="661.5,-228.5 661.5,-248.5 706.75,-248.5 706.75,-228.5 661.5,-228.5"/>
<text text-anchor="middle" x="684.12" y="-235" font-family="Helvetica,sans-Serif" font-size="10.00">chrono</text>
</a>
</g>
</g>
<!-- Node1&#45;&gt;Node38 -->
<g id="edge68" class="edge">
<title>Node1&#45;&gt;Node38</title>
<path fill="none" stroke="midnightblue" d="M786.76,-399.59C751.75,-385.76 690.01,-355.42 664.12,-306 655.93,-290.36 663.66,-270.85 671.77,-257.02"/>
<polygon fill="midnightblue" stroke="midnightblue" points="675.05,-259.39 677.53,-249.09 669.17,-255.6 675.05,-259.39"/>
</g>
<!-- Node39 -->
<g id="node39" class="node">
<title>Node39</title>
<g id="a_node39"><a xlink:href="_main_window_8h.html" target="_top" xlink:title=" ">
<polygon fill="none" stroke="black" points="984.25,-285.5 984.25,-305.5 1064,-305.5 1064,-285.5 984.25,-285.5"/>
<text text-anchor="middle" x="1024.12" y="-292" font-family="Helvetica,sans-Serif" font-size="10.00">MainWindow.h</text>
</a>
</g>
</g>
<!-- Node1&#45;&gt;Node39 -->
<g id="edge61" class="edge">
<title>Node1&#45;&gt;Node39</title>
<path fill="none" stroke="midnightblue" d="M819.59,-399.93C832.2,-385.95 859.08,-358.17 887.12,-342 914.06,-326.47 947.05,-315.31 973.91,-307.93"/>
<polygon fill="midnightblue" stroke="midnightblue" points="974.49,-311.13 983.26,-305.19 972.69,-304.37 974.49,-311.13"/>
</g>
<!-- Node40 -->
<g id="node40" class="node">
<title>Node40</title>
<g id="a_node40"><a xlink:title=" ">
<polygon fill="none" stroke="#bfbfbf" points="895.62,-342.5 895.62,-362.5 938.62,-362.5 938.62,-342.5 895.62,-342.5"/>
<text text-anchor="middle" x="917.12" y="-349" font-family="Helvetica,sans-Serif" font-size="10.00">thread</text>
</a>
</g>
</g>
<!-- Node1&#45;&gt;Node40 -->
<g id="edge70" class="edge">
<title>Node1&#45;&gt;Node40</title>
<path fill="none" stroke="midnightblue" d="M829,-399.66C845.51,-391.01 870.92,-377.7 890.22,-367.59"/>
<polygon fill="midnightblue" stroke="midnightblue" points="891.71,-370.24 898.95,-362.5 888.47,-364.04 891.71,-370.24"/>
</g>
<!-- Node3 -->
<g id="node3" class="node">
<title>Node3</title>
<g id="a_node3"><a xlink:title=" ">
<polygon fill="none" stroke="#bfbfbf" points="749.5,-114.5 749.5,-134.5 800.75,-134.5 800.75,-114.5 749.5,-114.5"/>
<text text-anchor="middle" x="775.12" y="-121" font-family="Helvetica,sans-Serif" font-size="10.00">memory</text>
</a>
</g>
</g>
<!-- Node2&#45;&gt;Node3 -->
<g id="edge2" class="edge">
<title>Node2&#45;&gt;Node3</title>
<path fill="none" stroke="midnightblue" d="M815.63,-342.81C820.37,-329.61 827.25,-304.02 818.12,-285 789.53,-225.43 730.72,-251.57 702.12,-192 691.22,-169.28 716.91,-150.73 740.76,-139.04"/>
<polygon fill="midnightblue" stroke="midnightblue" points="742.12,-141.81 749.76,-134.47 739.21,-135.45 742.12,-141.81"/>
</g>
<!-- Node4 -->
<g id="node4" class="node">
<title>Node4</title>
<g id="a_node4"><a xlink:title=" ">
<polygon fill="none" stroke="#bfbfbf" points="767.38,-285.5 767.38,-305.5 808.88,-305.5 808.88,-285.5 767.38,-285.5"/>
<text text-anchor="middle" x="788.12" y="-292" font-family="Helvetica,sans-Serif" font-size="10.00">vector</text>
</a>
</g>
</g>
<!-- Node2&#45;&gt;Node4 -->
<g id="edge3" class="edge">
<title>Node2&#45;&gt;Node4</title>
<path fill="none" stroke="midnightblue" d="M808.38,-342.91C805.15,-335.52 800.39,-324.62 796.3,-315.23"/>
<polygon fill="midnightblue" stroke="midnightblue" points="799.14,-313.98 791.93,-306.21 792.72,-316.78 799.14,-313.98"/>
</g>
<!-- Node5 -->
<g id="node5" class="node">
<title>Node5</title>
<g id="a_node5"><a xlink:href="_graphics_8h.html" target="_top" xlink:title=" ">
<polygon fill="none" stroke="black" points="843.5,-228.5 843.5,-248.5 906.75,-248.5 906.75,-228.5 843.5,-228.5"/>
<text text-anchor="middle" x="875.12" y="-235" font-family="Helvetica,sans-Serif" font-size="10.00">Graphics.h</text>
</a>
</g>
</g>
<!-- Node2&#45;&gt;Node5 -->
<g id="edge4" class="edge">
<title>Node2&#45;&gt;Node5</title>
<path fill="none" stroke="midnightblue" d="M821.59,-342.52C830.26,-333.85 842.96,-320.02 851.12,-306 859.82,-291.07 866.21,-272.45 870.2,-258.72"/>
<polygon fill="midnightblue" stroke="midnightblue" points="873.84,-259.69 873.09,-249.12 867.08,-257.85 873.84,-259.69"/>
</g>
<!-- Node32 -->
<g id="node32" class="node">
<title>Node32</title>
<g id="a_node32"><a xlink:href="_scene_8h.html" target="_top" xlink:title=" ">
<polygon fill="none" stroke="black" points="914.12,-285.5 914.12,-305.5 966.12,-305.5 966.12,-285.5 914.12,-285.5"/>
<text text-anchor="middle" x="940.12" y="-292" font-family="Helvetica,sans-Serif" font-size="10.00">Scene.h</text>
</a>
</g>
</g>
<!-- Node2&#45;&gt;Node32 -->
<g id="edge50" class="edge">
<title>Node2&#45;&gt;Node32</title>
<path fill="none" stroke="midnightblue" d="M832.98,-342.54C853.71,-333.63 885.75,-319.86 909.4,-309.7"/>
<polygon fill="midnightblue" stroke="midnightblue" points="910.48,-312.62 918.28,-305.46 907.71,-306.19 910.48,-312.62"/>
</g>
<!-- Node37 -->
<g id="node37" class="node">
<title>Node37</title>
<g id="a_node37"><a xlink:href="_frame_timer_8h.html" target="_top" xlink:title=" ">
<polygon fill="none" stroke="black" points="673.12,-285.5 673.12,-305.5 749.12,-305.5 749.12,-285.5 673.12,-285.5"/>
<text text-anchor="middle" x="711.12" y="-292" font-family="Helvetica,sans-Serif" font-size="10.00">FrameTimer.h</text>
</a>
</g>
</g>
<!-- Node2&#45;&gt;Node37 -->
<g id="edge59" class="edge">
<title>Node2&#45;&gt;Node37</title>
<path fill="none" stroke="midnightblue" d="M795.9,-342.66C780.09,-334.05 755.8,-320.83 737.26,-310.73"/>
<polygon fill="midnightblue" stroke="midnightblue" points="739.1,-307.21 728.65,-305.5 735.76,-313.35 739.1,-307.21"/>
</g>
<!-- Node6 -->
<g id="node6" class="node">
<title>Node6</title>
<g id="a_node6"><a xlink:href="_engine_exception_8h.html" target="_top" xlink:title=" ">
<polygon fill="none" stroke="black" points="1217.25,-114.5 1217.25,-134.5 1315,-134.5 1315,-114.5 1217.25,-114.5"/>
<text text-anchor="middle" x="1266.12" y="-121" font-family="Helvetica,sans-Serif" font-size="10.00">EngineException.h</text>
</a>
</g>
</g>
<!-- Node5&#45;&gt;Node6 -->
<g id="edge5" class="edge">
<title>Node5&#45;&gt;Node6</title>
<path fill="none" stroke="midnightblue" d="M906.53,-229.85C909.43,-229.2 912.33,-228.58 915.12,-228 1006.16,-209.25 1032.37,-219.6 1121.12,-192 1127.09,-190.15 1196.58,-157.92 1237.15,-139.02"/>
<polygon fill="midnightblue" stroke="midnightblue" points="1238.45,-141.81 1246.03,-134.41 1235.49,-135.47 1238.45,-141.81"/>
</g>
<!-- Node8 -->
<g id="node8" class="node">
<title>Node8</title>
<g id="a_node8"><a xlink:href="_colors_8h.html" target="_top" xlink:title=" ">
<polygon fill="none" stroke="black" points="1147.12,-114.5 1147.12,-134.5 1199.12,-134.5 1199.12,-114.5 1147.12,-114.5"/>
<text text-anchor="middle" x="1173.12" y="-121" font-family="Helvetica,sans-Serif" font-size="10.00">Colors.h</text>
</a>
</g>
</g>
<!-- Node5&#45;&gt;Node8 -->
<g id="edge7" class="edge">
<title>Node5&#45;&gt;Node8</title>
<path fill="none" stroke="midnightblue" d="M906.55,-229.94C909.44,-229.27 912.34,-228.61 915.12,-228 993.52,-210.72 1019.63,-226.49 1092.12,-192 1117.91,-179.73 1142.52,-157.52 1157.71,-142.16"/>
<polygon fill="midnightblue" stroke="midnightblue" points="1159.72,-145.07 1164.12,-135.44 1154.67,-140.22 1159.72,-145.07"/>
</g>
<!-- Node9 -->
<g id="node9" class="node">
<title>Node9</title>
<g id="a_node9"><a xlink:href="_g_d_i_plus_manager_8h.html" target="_top" xlink:title=" ">
<polygon fill="none" stroke="black" points="833.25,-171.5 833.25,-191.5 931,-191.5 931,-171.5 833.25,-171.5"/>
<text text-anchor="middle" x="882.12" y="-178" font-family="Helvetica,sans-Serif" font-size="10.00">GDIPlusManager.h</text>
</a>
</g>
</g>
<!-- Node5&#45;&gt;Node9 -->
<g id="edge8" class="edge">
<title>Node5&#45;&gt;Node9</title>
<path fill="none" stroke="midnightblue" d="M876.22,-228.91C877.14,-221.68 878.49,-211.09 879.66,-201.85"/>
<polygon fill="midnightblue" stroke="midnightblue" points="883.23,-202.58 881.02,-192.21 876.28,-201.69 883.23,-202.58"/>
</g>
<!-- Node13 -->
<g id="node13" class="node">
<title>Node13</title>
<g id="a_node13"><a xlink:href="_vector2_8h.html" target="_top" xlink:title=" ">
<polygon fill="none" stroke="black" points="457,-114.5 457,-134.5 577.25,-134.5 577.25,-114.5 457,-114.5"/>
<text text-anchor="middle" x="517.12" y="-121" font-family="Helvetica,sans-Serif" font-size="10.00">LinearAlgebra/Vector2.h</text>
</a>
</g>
</g>
<!-- Node5&#45;&gt;Node13 -->
<g id="edge12" class="edge">
<title>Node5&#45;&gt;Node13</title>
<path fill="none" stroke="midnightblue" d="M843.64,-230.1C808.78,-221.71 751.06,-207.2 702.12,-192 648.28,-175.28 586.89,-152.45 550.12,-138.35"/>
<polygon fill="midnightblue" stroke="midnightblue" points="551.57,-134.78 540.98,-134.45 549.05,-141.31 551.57,-134.78"/>
</g>
<!-- Node25 -->
<g id="node25" class="node">
<title>Node25</title>
<g id="a_node25"><a xlink:href="_vector3_8h.html" target="_top" xlink:title=" ">
<polygon fill="none" stroke="black" points="290,-114.5 290,-134.5 410.25,-134.5 410.25,-114.5 290,-114.5"/>
<text text-anchor="middle" x="350.12" y="-121" font-family="Helvetica,sans-Serif" font-size="10.00">LinearAlgebra/Vector3.h</text>
</a>
</g>
</g>
<!-- Node5&#45;&gt;Node25 -->
<g id="edge30" class="edge">
<title>Node5&#45;&gt;Node25</title>
<path fill="none" stroke="midnightblue" d="M843.69,-235.47C761.75,-229.94 543.18,-213.56 474.12,-192 435.8,-180.03 395.58,-156.02 371.69,-140.36"/>
<polygon fill="midnightblue" stroke="midnightblue" points="374.05,-137.07 363.79,-134.42 370.16,-142.89 374.05,-137.07"/>
</g>
<!-- Node26 -->
<g id="node26" class="node">
<title>Node26</title>
<g id="a_node26"><a xlink:href="_surface_8h.html" target="_top" xlink:title=" ">
<polygon fill="none" stroke="black" points="1025.5,-171.5 1025.5,-191.5 1082.75,-191.5 1082.75,-171.5 1025.5,-171.5"/>
<text text-anchor="middle" x="1054.12" y="-178" font-family="Helvetica,sans-Serif" font-size="10.00">Surface.h</text>
</a>
</g>
</g>
<!-- Node5&#45;&gt;Node26 -->
<g id="edge37" class="edge">
<title>Node5&#45;&gt;Node26</title>
<path fill="none" stroke="midnightblue" d="M904.28,-228.54C934.5,-219.26 981.89,-204.7 1015.27,-194.44"/>
<polygon fill="midnightblue" stroke="midnightblue" points="1016.04,-197.56 1024.57,-191.27 1013.98,-190.86 1016.04,-197.56"/>
</g>
<!-- Node29 -->
<g id="node29" class="node">
<title>Node29</title>
<g id="a_node29"><a xlink:href="_tex_vertex_8h.html" target="_top" xlink:title=" ">
<polygon fill="none" stroke="black" points="482.88,-171.5 482.88,-191.5 551.38,-191.5 551.38,-171.5 482.88,-171.5"/>
<text text-anchor="middle" x="517.12" y="-178" font-family="Helvetica,sans-Serif" font-size="10.00">TexVertex.h</text>
</a>
</g>
</g>
<!-- Node5&#45;&gt;Node29 -->
<g id="edge45" class="edge">
<title>Node5&#45;&gt;Node29</title>
<path fill="none" stroke="midnightblue" d="M843.67,-232.67C779.97,-222.88 635.55,-200.69 561.99,-189.39"/>
<polygon fill="midnightblue" stroke="midnightblue" points="562.66,-185.8 552.24,-187.74 561.59,-192.72 562.66,-185.8"/>
</g>
<!-- Node30 -->
<g id="node30" class="node">
<title>Node30</title>
<g id="a_node30"><a xlink:title=" ">
<polygon fill="none" stroke="#bfbfbf" points="764.88,-171.5 764.88,-191.5 815.38,-191.5 815.38,-171.5 764.88,-171.5"/>
<text text-anchor="middle" x="790.12" y="-178" font-family="Helvetica,sans-Serif" font-size="10.00">d3d11.h</text>
</a>
</g>
</g>
<!-- Node5&#45;&gt;Node30 -->
<g id="edge48" class="edge">
<title>Node5&#45;&gt;Node30</title>
<path fill="none" stroke="midnightblue" d="M861.47,-228.66C848.41,-220.21 828.47,-207.31 812.99,-197.3"/>
<polygon fill="midnightblue" stroke="midnightblue" points="815.33,-193.99 805.03,-191.5 811.52,-199.87 815.33,-193.99"/>
</g>
<!-- Node31 -->
<g id="node31" class="node">
<title>Node31</title>
<g id="a_node31"><a xlink:title=" ">
<polygon fill="none" stroke="#bfbfbf" points="711,-171.5 711,-191.5 747.25,-191.5 747.25,-171.5 711,-171.5"/>
<text text-anchor="middle" x="729.12" y="-178" font-family="Helvetica,sans-Serif" font-size="10.00">wrl.h</text>
</a>
</g>
</g>
<!-- Node5&#45;&gt;Node31 -->
<g id="edge49" class="edge">
<title>Node5&#45;&gt;Node31</title>
<path fill="none" stroke="midnightblue" d="M851.34,-228.54C825.52,-218.81 784.32,-203.29 757,-193"/>
<polygon fill="midnightblue" stroke="midnightblue" points="758.51,-189.45 747.92,-189.2 756.04,-196 758.51,-189.45"/>
</g>
<!-- Node7 -->
<g id="node7" class="node">
<title>Node7</title>
<g id="a_node7"><a xlink:title=" ">
<polygon fill="none" stroke="#bfbfbf" points="1284.12,-57.5 1284.12,-77.5 1324.12,-77.5 1324.12,-57.5 1284.12,-57.5"/>
<text text-anchor="middle" x="1304.12" y="-64" font-family="Helvetica,sans-Serif" font-size="10.00">string</text>
</a>
</g>
</g>
<!-- Node6&#45;&gt;Node7 -->
<g id="edge6" class="edge">
<title>Node6&#45;&gt;Node7</title>
<path fill="none" stroke="midnightblue" d="M1272.06,-114.91C1277.39,-107.2 1285.36,-95.66 1292.02,-86.02"/>
<polygon fill="midnightblue" stroke="midnightblue" points="1295.3,-88.43 1298.1,-78.21 1289.54,-84.45 1295.3,-88.43"/>
</g>
<!-- Node10 -->
<g id="node10" class="node">
<title>Node10</title>
<g id="a_node10"><a xlink:href="_win_8h.html" target="_top" xlink:title=" ">
<polygon fill="none" stroke="black" points="902.38,-114.5 902.38,-134.5 943.88,-134.5 943.88,-114.5 902.38,-114.5"/>
<text text-anchor="middle" x="923.12" y="-121" font-family="Helvetica,sans-Serif" font-size="10.00">Win.h</text>
</a>
</g>
</g>
<!-- Node9&#45;&gt;Node10 -->
<g id="edge9" class="edge">
<title>Node9&#45;&gt;Node10</title>
<path fill="none" stroke="midnightblue" d="M888.53,-171.91C894.27,-164.2 902.88,-152.66 910.07,-143.02"/>
<polygon fill="midnightblue" stroke="midnightblue" points="913.46,-145.32 916.63,-135.21 907.85,-141.14 913.46,-145.32"/>
</g>
<!-- Node11 -->
<g id="node11" class="node">
<title>Node11</title>
<g id="a_node11"><a xlink:title=" ">
<polygon fill="none" stroke="#bfbfbf" points="931.25,-57.5 931.25,-77.5 999,-77.5 999,-57.5 931.25,-57.5"/>
<text text-anchor="middle" x="965.12" y="-64" font-family="Helvetica,sans-Serif" font-size="10.00">sdkddkver.h</text>
</a>
</g>
</g>
<!-- Node10&#45;&gt;Node11 -->
<g id="edge10" class="edge">
<title>Node10&#45;&gt;Node11</title>
<path fill="none" stroke="midnightblue" d="M929.69,-114.91C935.63,-107.12 944.57,-95.42 951.98,-85.71"/>
<polygon fill="midnightblue" stroke="midnightblue" points="955.18,-88.29 958.47,-78.21 949.62,-84.04 955.18,-88.29"/>
</g>
<!-- Node12 -->
<g id="node12" class="node">
<title>Node12</title>
<g id="a_node12"><a xlink:title=" ">
<polygon fill="none" stroke="#bfbfbf" points="849.12,-57.5 849.12,-77.5 913.12,-77.5 913.12,-57.5 849.12,-57.5"/>
<text text-anchor="middle" x="881.12" y="-64" font-family="Helvetica,sans-Serif" font-size="10.00">Windows.h</text>
</a>
</g>
</g>
<!-- Node10&#45;&gt;Node12 -->
<g id="edge11" class="edge">
<title>Node10&#45;&gt;Node12</title>
<path fill="none" stroke="midnightblue" d="M916.56,-114.91C910.62,-107.12 901.68,-95.42 894.27,-85.71"/>
<polygon fill="midnightblue" stroke="midnightblue" points="896.63,-84.04 887.78,-78.21 891.07,-88.29 896.63,-84.04"/>
</g>
<!-- Node14 -->
<g id="node14" class="node">
<title>Node14</title>
<g id="a_node14"><a xlink:title=" ">
<polygon fill="none" stroke="#bfbfbf" points="321.25,-0.5 321.25,-20.5 359,-20.5 359,-0.5 321.25,-0.5"/>
<text text-anchor="middle" x="340.12" y="-7" font-family="Helvetica,sans-Serif" font-size="10.00">array</text>
</a>
</g>
</g>
<!-- Node13&#45;&gt;Node14 -->
<g id="edge13" class="edge">
<title>Node13&#45;&gt;Node14</title>
<path fill="none" stroke="midnightblue" d="M516.45,-114.82C514.87,-100.68 509.72,-72.67 493.12,-57 459.09,-24.86 403.36,-15.33 369.38,-12.56"/>
<polygon fill="midnightblue" stroke="midnightblue" points="369.97,-9.02 359.76,-11.85 369.5,-16.01 369.97,-9.02"/>
</g>
<!-- Node15 -->
<g id="node15" class="node">
<title>Node15</title>
<g id="a_node15"><a xlink:title=" ">
<polygon fill="none" stroke="#bfbfbf" points="397.38,-57.5 397.38,-77.5 450.88,-77.5 450.88,-57.5 397.38,-57.5"/>
<text text-anchor="middle" x="424.12" y="-64" font-family="Helvetica,sans-Serif" font-size="10.00">compare</text>
</a>
</g>
</g>
<!-- Node13&#45;&gt;Node15 -->
<g id="edge14" class="edge">
<title>Node13&#45;&gt;Node15</title>
<path fill="none" stroke="midnightblue" d="M502.18,-114.66C487.76,-106.13 465.67,-93.07 448.67,-83.01"/>
<polygon fill="midnightblue" stroke="midnightblue" points="450.73,-79.58 440.34,-77.5 447.16,-85.6 450.73,-79.58"/>
</g>
<!-- Node16 -->
<g id="node16" class="node">
<title>Node16</title>
<g id="a_node16"><a xlink:title=" ">
<polygon fill="none" stroke="#bfbfbf" points="255.38,-0.5 255.38,-20.5 302.88,-20.5 302.88,-0.5 255.38,-0.5"/>
<text text-anchor="middle" x="279.12" y="-7" font-family="Helvetica,sans-Serif" font-size="10.00">cstddef</text>
</a>
</g>
</g>
<!-- Node13&#45;&gt;Node16 -->
<g id="edge15" class="edge">
<title>Node13&#45;&gt;Node16</title>
<path fill="none" stroke="midnightblue" d="M512.08,-114.62C503.4,-100.19 484.23,-71.79 460.12,-57 405.24,-23.32 380.06,-36.85 313.17,-21.04"/>
<polygon fill="midnightblue" stroke="midnightblue" points="314.08,-17.41 303.53,-18.37 312.37,-24.2 314.08,-17.41"/>
</g>
<!-- Node13&#45;&gt;Node17 -->
<g id="edge16" class="edge">
<title>Node13&#45;&gt;Node17</title>
<path fill="none" stroke="midnightblue" d="M556.87,-114.61C576.49,-107.99 598.42,-96.76 610.12,-78 620.59,-61.23 606.18,-41.34 592.4,-27.71"/>
<polygon fill="midnightblue" stroke="midnightblue" points="595.28,-25.69 585.55,-21.48 590.53,-30.83 595.28,-25.69"/>
</g>
<!-- Node18 -->
<g id="node18" class="node">
<title>Node18</title>
<g id="a_node18"><a xlink:href="_math_8h.html" target="_top" xlink:title=" ">
<polygon fill="none" stroke="black" points="127.12,-57.5 127.12,-77.5 173.12,-77.5 173.12,-57.5 127.12,-57.5"/>
<text text-anchor="middle" x="150.12" y="-64" font-family="Helvetica,sans-Serif" font-size="10.00">Math.h</text>
</a>
</g>
</g>
<!-- Node13&#45;&gt;Node18 -->
<g id="edge17" class="edge">
<title>Node13&#45;&gt;Node18</title>
<path fill="none" stroke="midnightblue" d="M457.34,-114.54C379.33,-102.85 245.47,-82.79 183.46,-73.5"/>
<polygon fill="midnightblue" stroke="midnightblue" points="184.15,-69.91 173.75,-71.89 183.12,-76.83 184.15,-69.91"/>
</g>
<!-- Node23 -->
<g id="node23" class="node">
<title>Node23</title>
<g id="a_node23"><a xlink:href="_matrix2_8h.html" target="_top" xlink:title=" ">
<polygon fill="none" stroke="black" points="544.88,-57.5 544.88,-77.5 601.38,-77.5 601.38,-57.5 544.88,-57.5"/>
<text text-anchor="middle" x="573.12" y="-64" font-family="Helvetica,sans-Serif" font-size="10.00">Matrix2.h</text>
</a>
</g>
</g>
<!-- Node13&#45;&gt;Node23 -->
<g id="edge23" class="edge">
<title>Node13&#45;&gt;Node23</title>
<path fill="none" stroke="midnightblue" d="M526.12,-114.66C534.24,-106.69 546.39,-94.76 556.3,-85.02"/>
<polygon fill="midnightblue" stroke="midnightblue" points="558.28,-88 562.96,-78.5 553.38,-83.01 558.28,-88"/>
</g>
<!-- Node24 -->
<g id="node24" class="node">
<title>Node24</title>
<g id="a_node24"><a xlink:href="_matrix3_8h.html" target="_top" xlink:title=" ">
<polygon fill="none" stroke="black" points="246.88,-57.5 246.88,-77.5 303.38,-77.5 303.38,-57.5 246.88,-57.5"/>
<text text-anchor="middle" x="275.12" y="-64" font-family="Helvetica,sans-Serif" font-size="10.00">Matrix3.h</text>
</a>
</g>
</g>
<!-- Node13&#45;&gt;Node24 -->
<g id="edge25" class="edge">
<title>Node13&#45;&gt;Node24</title>
<path fill="none" stroke="midnightblue" d="M477.7,-114.54C432.42,-104.25 358.6,-87.47 313.68,-77.26"/>
<polygon fill="midnightblue" stroke="midnightblue" points="314.72,-73.68 304.19,-74.88 313.17,-80.51 314.72,-73.68"/>
</g>
<!-- Node18&#45;&gt;Node18 -->
<g id="edge18" class="edge">
<title>Node18&#45;&gt;Node18</title>
<path fill="none" stroke="midnightblue" d="M168.68,-77.43C180.18,-79.83 191.12,-76.52 191.12,-67.5 191.12,-61.44 186.18,-57.96 179.45,-57.05"/>
<polygon fill="midnightblue" stroke="midnightblue" points="179.5,-53.59 169.68,-57.57 179.83,-60.59 179.5,-53.59"/>
</g>
<!-- Node19 -->
<g id="node19" class="node">
<title>Node19</title>
<g id="a_node19"><a xlink:title=" ">
<polygon fill="none" stroke="#bfbfbf" points="194.62,-0.5 194.62,-20.5 237.62,-20.5 237.62,-0.5 194.62,-0.5"/>
<text text-anchor="middle" x="216.12" y="-7" font-family="Helvetica,sans-Serif" font-size="10.00">cmath</text>
</a>
</g>
</g>
<!-- Node18&#45;&gt;Node19 -->
<g id="edge19" class="edge">
<title>Node18&#45;&gt;Node19</title>
<path fill="none" stroke="midnightblue" d="M160.73,-57.66C170.49,-49.53 185.19,-37.28 196.99,-27.44"/>
<polygon fill="midnightblue" stroke="midnightblue" points="198.89,-29.59 204.33,-20.5 194.41,-24.21 198.89,-29.59"/>
</g>
<!-- Node20 -->
<g id="node20" class="node">
<title>Node20</title>
<g id="a_node20"><a xlink:title=" ">
<polygon fill="none" stroke="#bfbfbf" points="66.5,-0.5 66.5,-20.5 105.75,-20.5 105.75,-0.5 66.5,-0.5"/>
<text text-anchor="middle" x="86.12" y="-7" font-family="Helvetica,sans-Serif" font-size="10.00">limits</text>
</a>
</g>
</g>
<!-- Node18&#45;&gt;Node20 -->
<g id="edge20" class="edge">
<title>Node18&#45;&gt;Node20</title>
<path fill="none" stroke="midnightblue" d="M139.84,-57.66C130.38,-49.53 116.13,-37.28 104.68,-27.44"/>
<polygon fill="midnightblue" stroke="midnightblue" points="107.46,-24.36 97.59,-20.5 102.9,-29.67 107.46,-24.36"/>
</g>
<!-- Node21 -->
<g id="node21" class="node">
<title>Node21</title>
<g id="a_node21"><a xlink:title=" ">
<polygon fill="none" stroke="#bfbfbf" points="123.38,-0.5 123.38,-20.5 176.88,-20.5 176.88,-0.5 123.38,-0.5"/>
<text text-anchor="middle" x="150.12" y="-7" font-family="Helvetica,sans-Serif" font-size="10.00">numbers</text>
</a>
</g>
</g>
<!-- Node18&#45;&gt;Node21 -->
<g id="edge21" class="edge">
<title>Node18&#45;&gt;Node21</title>
<path fill="none" stroke="midnightblue" d="M150.12,-57.91C150.12,-50.76 150.12,-40.32 150.12,-31.15"/>
<polygon fill="midnightblue" stroke="midnightblue" points="153.63,-31.21 150.12,-21.21 146.63,-31.21 153.63,-31.21"/>
</g>
<!-- Node22 -->
<g id="node22" class="node">
<title>Node22</title>
<g id="a_node22"><a xlink:title=" ">
<polygon fill="none" stroke="#bfbfbf" points="0,-0.5 0,-20.5 48.25,-20.5 48.25,-0.5 0,-0.5"/>
<text text-anchor="middle" x="24.12" y="-7" font-family="Helvetica,sans-Serif" font-size="10.00">random</text>
</a>
</g>
</g>
<!-- Node18&#45;&gt;Node22 -->
<g id="edge22" class="edge">
<title>Node18&#45;&gt;Node22</title>
<path fill="none" stroke="midnightblue" d="M129.6,-57.54C109.28,-48.67 77.93,-34.99 54.68,-24.84"/>
<polygon fill="midnightblue" stroke="midnightblue" points="56.21,-21.25 45.64,-20.46 53.41,-27.66 56.21,-21.25"/>
</g>
<!-- Node23&#45;&gt;Node17 -->
<g id="edge24" class="edge">
<title>Node23&#45;&gt;Node17</title>
<path fill="none" stroke="midnightblue" d="M573.12,-57.91C573.12,-50.76 573.12,-40.32 573.12,-31.15"/>
<polygon fill="midnightblue" stroke="midnightblue" points="576.63,-31.21 573.12,-21.21 569.63,-31.21 576.63,-31.21"/>
</g>
<!-- Node24&#45;&gt;Node14 -->
<g id="edge26" class="edge">
<title>Node24&#45;&gt;Node14</title>
<path fill="none" stroke="midnightblue" d="M285.57,-57.66C295.18,-49.53 309.66,-37.28 321.28,-27.44"/>
<polygon fill="midnightblue" stroke="midnightblue" points="323.12,-29.63 328.49,-20.5 318.6,-24.29 323.12,-29.63"/>
</g>
<!-- Node24&#45;&gt;Node16 -->
<g id="edge28" class="edge">
<title>Node24&#45;&gt;Node16</title>
<path fill="none" stroke="midnightblue" d="M275.75,-57.91C276.27,-50.76 277.03,-40.32 277.7,-31.15"/>
<polygon fill="midnightblue" stroke="midnightblue" points="281.26,-31.44 278.49,-21.21 274.27,-30.93 281.26,-31.44"/>
</g>
<!-- Node24&#45;&gt;Node17 -->
<g id="edge29" class="edge">
<title>Node24&#45;&gt;Node17</title>
<path fill="none" stroke="midnightblue" d="M303.16,-61.33C357.17,-51.36 475.65,-29.49 536.09,-18.34"/>
<polygon fill="midnightblue" stroke="midnightblue" points="536.47,-21.64 545.67,-16.38 535.2,-14.76 536.47,-21.64"/>
</g>
<!-- Node24&#45;&gt;Node19 -->
<g id="edge27" class="edge">
<title>Node24&#45;&gt;Node19</title>
<path fill="none" stroke="midnightblue" d="M265.65,-57.66C257.01,-49.61 244.04,-37.52 233.54,-27.73"/>
<polygon fill="midnightblue" stroke="midnightblue" points="236.48,-25.76 226.78,-21.5 231.7,-30.88 236.48,-25.76"/>
</g>
<!-- Node25&#45;&gt;Node14 -->
<g id="edge31" class="edge">
<title>Node25&#45;&gt;Node14</title>
<path fill="none" stroke="midnightblue" d="M349.34,-114.71C347.74,-96.8 344.07,-55.69 341.88,-31.11"/>
<polygon fill="midnightblue" stroke="midnightblue" points="345.28,-30.9 340.91,-21.25 338.31,-31.52 345.28,-30.9"/>
</g>
<!-- Node25&#45;&gt;Node15 -->
<g id="edge33" class="edge">
<title>Node25&#45;&gt;Node15</title>
<path fill="none" stroke="midnightblue" d="M362.01,-114.66C373.17,-106.37 390.09,-93.8 403.45,-83.87"/>
<polygon fill="midnightblue" stroke="midnightblue" points="405.08,-86.27 411.02,-77.5 400.91,-80.65 405.08,-86.27"/>
</g>
<!-- Node25&#45;&gt;Node16 -->
<g id="edge34" class="edge">
<title>Node25&#45;&gt;Node16</title>
<path fill="none" stroke="midnightblue" d="M294.68,-114.58C273.3,-108.14 250.96,-97.06 238.12,-78 226.69,-61.01 243.02,-40.92 258.33,-27.3"/>
<polygon fill="midnightblue" stroke="midnightblue" points="260.1,-29.55 265.55,-20.46 255.62,-24.17 260.1,-29.55"/>
</g>
<!-- Node25&#45;&gt;Node17 -->
<g id="edge32" class="edge">
<title>Node25&#45;&gt;Node17</title>
<path fill="none" stroke="midnightblue" d="M352.67,-114.64C357.27,-100.25 368.38,-71.9 388.12,-57 431.47,-24.29 495.31,-14.82 535.53,-12.24"/>
<polygon fill="midnightblue" stroke="midnightblue" points="535.65,-15.68 545.46,-11.67 535.29,-8.69 535.65,-15.68"/>
</g>
<!-- Node25&#45;&gt;Node18 -->
<g id="edge35" class="edge">
<title>Node25&#45;&gt;Node18</title>
<path fill="none" stroke="midnightblue" d="M317.55,-114.54C280.57,-104.37 220.58,-87.88 183.35,-77.64"/>
<polygon fill="midnightblue" stroke="midnightblue" points="184.6,-74.08 174.03,-74.8 182.74,-80.82 184.6,-74.08"/>
</g>
<!-- Node25&#45;&gt;Node24 -->
<g id="edge36" class="edge">
<title>Node25&#45;&gt;Node24</title>
<path fill="none" stroke="midnightblue" d="M338.07,-114.66C326.77,-106.37 309.62,-93.8 296.08,-83.87"/>
<polygon fill="midnightblue" stroke="midnightblue" points="298.53,-80.59 288.39,-77.5 294.39,-86.23 298.53,-80.59"/>
</g>
<!-- Node26&#45;&gt;Node3 -->
<g id="edge42" class="edge">
<title>Node26&#45;&gt;Node3</title>
<path fill="none" stroke="midnightblue" d="M1025.58,-174.87C974.41,-164.79 867.19,-143.65 811.09,-132.59"/>
<polygon fill="midnightblue" stroke="midnightblue" points="812.07,-129.02 801.58,-130.52 810.71,-135.89 812.07,-129.02"/>
</g>
<!-- Node26&#45;&gt;Node6 -->
<g id="edge40" class="edge">
<title>Node26&#45;&gt;Node6</title>
<path fill="none" stroke="midnightblue" d="M1082.72,-173.08C1118.27,-163.86 1179.39,-148 1221.22,-137.15"/>
<polygon fill="midnightblue" stroke="midnightblue" points="1221.88,-140.34 1230.68,-134.44 1220.12,-133.56 1221.88,-140.34"/>
</g>
<!-- Node26&#45;&gt;Node7 -->
<g id="edge43" class="edge">
<title>Node26&#45;&gt;Node7</title>
<path fill="none" stroke="midnightblue" d="M1051.97,-171.88C1049.02,-157.83 1045.62,-129.95 1060.12,-114 1088.33,-83 1214.56,-72.84 1273.56,-69.75"/>
<polygon fill="midnightblue" stroke="midnightblue" points="1273.59,-73.2 1283.41,-69.22 1273.25,-66.21 1273.59,-73.2"/>
</g>
<!-- Node26&#45;&gt;Node8 -->
<g id="edge38" class="edge">
<title>Node26&#45;&gt;Node8</title>
<path fill="none" stroke="midnightblue" d="M1073.51,-171.54C1092.61,-162.71 1122.04,-149.11 1143.97,-138.98"/>
<polygon fill="midnightblue" stroke="midnightblue" points="1145.14,-141.83 1152.75,-134.46 1142.2,-135.47 1145.14,-141.83"/>
</g>
<!-- Node26&#45;&gt;Node10 -->
<g id="edge39" class="edge">
<title>Node26&#45;&gt;Node10</title>
<path fill="none" stroke="midnightblue" d="M1032.79,-171.54C1011.31,-162.53 977.99,-148.53 953.71,-138.34"/>
<polygon fill="midnightblue" stroke="midnightblue" points="955.17,-134.74 944.59,-134.09 952.46,-141.19 955.17,-134.74"/>
</g>
<!-- Node27 -->
<g id="node27" class="node">
<title>Node27</title>
<g id="a_node27"><a xlink:title=" ">
<polygon fill="none" stroke="#bfbfbf" points="961.5,-114.5 961.5,-134.5 1012.75,-134.5 1012.75,-114.5 961.5,-114.5"/>
<text text-anchor="middle" x="987.12" y="-121" font-family="Helvetica,sans-Serif" font-size="10.00">assert.h</text>
</a>
</g>
</g>
<!-- Node26&#45;&gt;Node27 -->
<g id="edge41" class="edge">
<title>Node26&#45;&gt;Node27</title>
<path fill="none" stroke="midnightblue" d="M1043.36,-171.66C1033.46,-163.53 1018.53,-151.28 1006.55,-141.44"/>
<polygon fill="midnightblue" stroke="midnightblue" points="1009.04,-138.14 999.09,-134.5 1004.59,-143.55 1009.04,-138.14"/>
</g>
<!-- Node28 -->
<g id="node28" class="node">
<title>Node28</title>
<g id="a_node28"><a xlink:title=" ">
<polygon fill="none" stroke="#bfbfbf" points="1069,-114.5 1069,-134.5 1129.25,-134.5 1129.25,-114.5 1069,-114.5"/>
<text text-anchor="middle" x="1099.12" y="-121" font-family="Helvetica,sans-Serif" font-size="10.00">filesystem</text>
</a>
</g>
</g>
<!-- Node26&#45;&gt;Node28 -->
<g id="edge44" class="edge">
<title>Node26&#45;&gt;Node28</title>
<path fill="none" stroke="midnightblue" d="M1061.16,-171.91C1067.53,-164.12 1077.1,-152.42 1085.04,-142.71"/>
<polygon fill="midnightblue" stroke="midnightblue" points="1088.37,-145.17 1091.99,-135.21 1082.95,-140.74 1088.37,-145.17"/>
</g>
<!-- Node29&#45;&gt;Node13 -->
<g id="edge46" class="edge">
<title>Node29&#45;&gt;Node13</title>
<path fill="none" stroke="midnightblue" d="M517.12,-171.91C517.12,-164.76 517.12,-154.32 517.12,-145.15"/>
<polygon fill="midnightblue" stroke="midnightblue" points="520.63,-145.21 517.12,-135.21 513.63,-145.21 520.63,-145.21"/>
</g>
<!-- Node29&#45;&gt;Node25 -->
<g id="edge47" class="edge">
<title>Node29&#45;&gt;Node25</title>
<path fill="none" stroke="midnightblue" d="M489.92,-171.54C462.14,-162.39 418.8,-148.12 387.74,-137.89"/>
<polygon fill="midnightblue" stroke="midnightblue" points="388.91,-134.26 378.32,-134.46 386.72,-140.91 388.91,-134.26"/>
</g>
<!-- Node32&#45;&gt;Node5 -->
<g id="edge58" class="edge">
<title>Node32&#45;&gt;Node5</title>
<path fill="none" stroke="midnightblue" d="M929.68,-285.66C920.07,-277.53 905.59,-265.28 893.97,-255.44"/>
<polygon fill="midnightblue" stroke="midnightblue" points="896.65,-252.29 886.76,-248.5 892.13,-257.63 896.65,-252.29"/>
</g>
<!-- Node32&#45;&gt;Node7 -->
<g id="edge51" class="edge">
<title>Node32&#45;&gt;Node7</title>
<path fill="none" stroke="midnightblue" d="M966.06,-287.19C969.1,-286.41 972.18,-285.66 975.12,-285 1115.87,-253.3 1178.48,-288.06 1286.12,-192 1308.84,-171.73 1315.3,-164.14 1324.12,-135 1329.09,-118.61 1322.39,-99.94 1315.44,-86.56"/>
<polygon fill="midnightblue" stroke="midnightblue" points="1318.03,-85.05 1310.03,-78.11 1311.96,-88.53 1318.03,-85.05"/>
</g>
<!-- Node33 -->
<g id="node33" class="node">
<title>Node33</title>
<g id="a_node33"><a xlink:href="_keyboard_8h.html" target="_top" xlink:title=" ">
<polygon fill="none" stroke="black" points="1100.38,-228.5 1100.38,-248.5 1165.88,-248.5 1165.88,-228.5 1100.38,-228.5"/>
<text text-anchor="middle" x="1133.12" y="-235" font-family="Helvetica,sans-Serif" font-size="10.00">Keyboard.h</text>
</a>
</g>
</g>
<!-- Node32&#45;&gt;Node33 -->
<g id="edge52" class="edge">
<title>Node32&#45;&gt;Node33</title>
<path fill="none" stroke="midnightblue" d="M965.75,-287.2C997.81,-278.06 1053.11,-262.3 1091.33,-251.41"/>
<polygon fill="midnightblue" stroke="midnightblue" points="1091.96,-254.58 1100.62,-248.48 1090.04,-247.85 1091.96,-254.58"/>
</g>
<!-- Node36 -->
<g id="node36" class="node">
<title>Node36</title>
<g id="a_node36"><a xlink:href="_mouse_8h.html" target="_top" xlink:title=" ">
<polygon fill="none" stroke="black" points="924.38,-228.5 924.38,-248.5 977.88,-248.5 977.88,-228.5 924.38,-228.5"/>
<text text-anchor="middle" x="951.12" y="-235" font-family="Helvetica,sans-Serif" font-size="10.00">Mouse.h</text>
</a>
</g>
</g>
<!-- Node32&#45;&gt;Node36 -->
<g id="edge55" class="edge">
<title>Node32&#45;&gt;Node36</title>
<path fill="none" stroke="midnightblue" d="M941.84,-285.91C943.29,-278.68 945.41,-268.09 947.26,-258.85"/>
<polygon fill="midnightblue" stroke="midnightblue" points="950.85,-259.71 949.38,-249.21 943.99,-258.33 950.85,-259.71"/>
</g>
<!-- Node34 -->
<g id="node34" class="node">
<title>Node34</title>
<g id="a_node34"><a xlink:title=" ">
<polygon fill="none" stroke="#bfbfbf" points="1237.12,-171.5 1237.12,-191.5 1277.12,-191.5 1277.12,-171.5 1237.12,-171.5"/>
<text text-anchor="middle" x="1257.12" y="-178" font-family="Helvetica,sans-Serif" font-size="10.00">bitset</text>
</a>
</g>
</g>
<!-- Node33&#45;&gt;Node34 -->
<g id="edge53" class="edge">
<title>Node33&#45;&gt;Node34</title>
<path fill="none" stroke="midnightblue" d="M1153.32,-228.54C1173.44,-219.62 1204.54,-205.82 1227.46,-195.66"/>
<polygon fill="midnightblue" stroke="midnightblue" points="1228.62,-198.53 1236.35,-191.27 1225.78,-192.13 1228.62,-198.53"/>
</g>
<!-- Node35 -->
<g id="node35" class="node">
<title>Node35</title>
<g id="a_node35"><a xlink:title=" ">
<polygon fill="none" stroke="#bfbfbf" points="1177,-171.5 1177,-191.5 1219.25,-191.5 1219.25,-171.5 1177,-171.5"/>
<text text-anchor="middle" x="1198.12" y="-178" font-family="Helvetica,sans-Serif" font-size="10.00">queue</text>
</a>
</g>
</g>
<!-- Node33&#45;&gt;Node35 -->
<g id="edge54" class="edge">
<title>Node33&#45;&gt;Node35</title>
<path fill="none" stroke="midnightblue" d="M1143.57,-228.66C1153.18,-220.53 1167.66,-208.28 1179.28,-198.44"/>
<polygon fill="midnightblue" stroke="midnightblue" points="1181.12,-200.63 1186.49,-191.5 1176.6,-195.29 1181.12,-200.63"/>
</g>
<!-- Node36&#45;&gt;Node13 -->
<g id="edge56" class="edge">
<title>Node36&#45;&gt;Node13</title>
<path fill="none" stroke="midnightblue" d="M952.66,-228.66C954.58,-214.28 955.95,-185.95 940.12,-171 915.06,-147.32 701.51,-133.98 587.78,-128.49"/>
<polygon fill="midnightblue" stroke="midnightblue" points="588.25,-124.96 578.09,-127.98 587.92,-131.95 588.25,-124.96"/>
</g>
<!-- Node36&#45;&gt;Node35 -->
<g id="edge57" class="edge">
<title>Node36&#45;&gt;Node35</title>
<path fill="none" stroke="midnightblue" d="M977.67,-232.28C1017.92,-224.26 1096.73,-208.12 1163.12,-192 1164.26,-191.73 1165.41,-191.44 1166.57,-191.15"/>
<polygon fill="midnightblue" stroke="midnightblue" points="1167.28,-194.32 1176.07,-188.41 1165.51,-187.55 1167.28,-194.32"/>
</g>
<!-- Node37&#45;&gt;Node38 -->
<g id="edge60" class="edge">
<title>Node37&#45;&gt;Node38</title>
<path fill="none" stroke="midnightblue" d="M706.91,-285.91C703.24,-278.44 697.81,-267.38 693.17,-257.93"/>
<polygon fill="midnightblue" stroke="midnightblue" points="695.95,-256.65 688.4,-249.21 689.67,-259.73 695.95,-256.65"/>
</g>
<!-- Node39&#45;&gt;Node5 -->
<g id="edge63" class="edge">
<title>Node39&#45;&gt;Node5</title>
<path fill="none" stroke="midnightblue" d="M999.85,-285.54C975.29,-276.47 937.07,-262.37 909.42,-252.16"/>
<polygon fill="midnightblue" stroke="midnightblue" points="910.98,-248.63 900.39,-248.46 908.55,-255.2 910.98,-248.63"/>
</g>
<!-- Node39&#45;&gt;Node6 -->
<g id="edge62" class="edge">
<title>Node39&#45;&gt;Node6</title>
<path fill="none" stroke="midnightblue" d="M1063.78,-292.92C1124.74,-288.04 1239.35,-268.6 1286.12,-192 1295.33,-176.93 1287.45,-157.34 1279.03,-143.33"/>
<polygon fill="midnightblue" stroke="midnightblue" points="1281.47,-141.68 1273.04,-135.26 1275.63,-145.54 1281.47,-141.68"/>
</g>
<!-- Node39&#45;&gt;Node7 -->
<g id="edge67" class="edge">
<title>Node39&#45;&gt;Node7</title>
<path fill="none" stroke="midnightblue" d="M1063.79,-290.44C1110.44,-284.81 1189.71,-272.54 1254.12,-249 1303.27,-231.04 1330.55,-237.07 1357.12,-192 1374.73,-162.14 1371.6,-145.5 1357.12,-114 1351.37,-101.47 1340.27,-91.1 1329.71,-83.43"/>
<polygon fill="midnightblue" stroke="midnightblue" points="1331.98,-80.07 1321.72,-77.41 1328.08,-85.88 1331.98,-80.07"/>
</g>
<!-- Node39&#45;&gt;Node10 -->
<g id="edge66" class="edge">
<title>Node39&#45;&gt;Node10</title>
<path fill="none" stroke="midnightblue" d="M1020.09,-285.5C1010.61,-264.67 985.69,-211.82 959.12,-171 952.74,-161.19 944.73,-150.9 937.89,-142.6"/>
<polygon fill="midnightblue" stroke="midnightblue" points="939.93,-140.59 930.81,-135.2 934.57,-145.1 939.93,-140.59"/>
</g>
<!-- Node39&#45;&gt;Node33 -->
<g id="edge64" class="edge">
<title>Node39&#45;&gt;Node33</title>
<path fill="none" stroke="midnightblue" d="M1041.64,-285.66C1058.94,-276.94 1085.65,-263.46 1105.75,-253.31"/>
<polygon fill="midnightblue" stroke="midnightblue" points="1106.94,-256.13 1114.29,-248.5 1103.79,-249.88 1106.94,-256.13"/>
</g>
<!-- Node39&#45;&gt;Node36 -->
<g id="edge65" class="edge">
<title>Node39&#45;&gt;Node36</title>
<path fill="none" stroke="midnightblue" d="M1012.4,-285.66C1001.39,-277.37 984.7,-264.8 971.52,-254.87"/>
<polygon fill="midnightblue" stroke="midnightblue" points="974.16,-251.72 964.07,-248.5 969.95,-257.31 974.16,-251.72"/>
</g>
</g>
</svg>
