<?xml version="1.0" encoding="UTF-8" standalone="no"?>
<!DOCTYPE svg PUBLIC "-//W3C//DTD SVG 1.1//EN"
 "http://www.w3.org/Graphics/SVG/1.1/DTD/svg11.dtd">
<!-- Generated by graphviz version 8.1.0 (20230707.0739)
 -->
<!-- Title: src/MainWindow.cpp Pages: 1 -->
<svg width="841pt" height="485pt"
 viewBox="0.00 0.00 841.12 485.00" xmlns="http://www.w3.org/2000/svg" xmlns:xlink="http://www.w3.org/1999/xlink">
<g id="graph0" class="graph" transform="scale(1 1) rotate(0) translate(4 481)">
<title>src/MainWindow.cpp</title>
<!-- Node1 -->
<g id="node1" class="node">
<title>Node1</title>
<g id="a_node1"><a xlink:title=" ">
<polygon fill="#bfbfbf" stroke="black" points="577.75,-456.5 577.75,-476.5 684.5,-476.5 684.5,-456.5 577.75,-456.5"/>
<text text-anchor="middle" x="631.12" y="-463" font-family="Helvetica,sans-Serif" font-size="10.00">src/MainWindow.cpp</text>
</a>
</g>
</g>
<!-- Node2 -->
<g id="node2" class="node">
<title>Node2</title>
<g id="a_node2"><a xlink:href="_main_window_8h.html" target="_top" xlink:title=" ">
<polygon fill="none" stroke="black" points="113.25,-342.5 113.25,-362.5 193,-362.5 193,-342.5 113.25,-342.5"/>
<text text-anchor="middle" x="153.12" y="-349" font-family="Helvetica,sans-Serif" font-size="10.00">MainWindow.h</text>
</a>
</g>
</g>
<!-- Node1&#45;&gt;Node2 -->
<g id="edge1" class="edge">
<title>Node1&#45;&gt;Node2</title>
<path fill="none" stroke="midnightblue" d="M592.82,-456.52C506.53,-436.31 297.08,-387.23 201.78,-364.9"/>
<polygon fill="midnightblue" stroke="midnightblue" points="202.82,-361.31 192.28,-362.44 201.22,-368.13 202.82,-361.31"/>
</g>
<!-- Node5 -->
<g id="node5" class="node">
<title>Node5</title>
<g id="a_node5"><a xlink:href="_graphics_8h.html" target="_top" xlink:title=" ">
<polygon fill="none" stroke="black" points="452.5,-285.5 452.5,-305.5 515.75,-305.5 515.75,-285.5 452.5,-285.5"/>
<text text-anchor="middle" x="484.12" y="-292" font-family="Helvetica,sans-Serif" font-size="10.00">Graphics.h</text>
</a>
</g>
</g>
<!-- Node1&#45;&gt;Node5 -->
<g id="edge64" class="edge">
<title>Node1&#45;&gt;Node5</title>
<path fill="none" stroke="midnightblue" d="M623.63,-456.89C600.44,-430.22 529.53,-348.71 498.7,-313.26"/>
<polygon fill="midnightblue" stroke="midnightblue" points="500.98,-311.55 491.78,-306.3 495.7,-316.14 500.98,-311.55"/>
</g>
<!-- Node34 -->
<g id="node34" class="node">
<title>Node34</title>
<g id="a_node34"><a xlink:href="_engine_8h.html" target="_top" xlink:title=" ">
<polygon fill="none" stroke="black" points="604,-399.5 604,-419.5 658.25,-419.5 658.25,-399.5 604,-399.5"/>
<text text-anchor="middle" x="631.12" y="-406" font-family="Helvetica,sans-Serif" font-size="10.00">Engine.h</text>
</a>
</g>
</g>
<!-- Node1&#45;&gt;Node34 -->
<g id="edge53" class="edge">
<title>Node1&#45;&gt;Node34</title>
<path fill="none" stroke="midnightblue" d="M631.12,-456.91C631.12,-449.76 631.12,-439.32 631.12,-430.15"/>
<polygon fill="midnightblue" stroke="midnightblue" points="634.63,-430.21 631.12,-420.21 627.63,-430.21 634.63,-430.21"/>
</g>
<!-- Node39 -->
<g id="node39" class="node">
<title>Node39</title>
<g id="a_node39"><a xlink:href="_resource_8h.html" target="_top" xlink:title=" ">
<polygon fill="none" stroke="black" points="676.38,-399.5 676.38,-419.5 741.88,-419.5 741.88,-399.5 676.38,-399.5"/>
<text text-anchor="middle" x="709.12" y="-406" font-family="Helvetica,sans-Serif" font-size="10.00">Resource.h</text>
</a>
</g>
</g>
<!-- Node1&#45;&gt;Node39 -->
<g id="edge65" class="edge">
<title>Node1&#45;&gt;Node39</title>
<path fill="none" stroke="midnightblue" d="M643.66,-456.66C655.53,-448.29 673.59,-435.56 687.74,-425.58"/>
<polygon fill="midnightblue" stroke="midnightblue" points="689.21,-428.12 695.36,-419.5 685.18,-422.4 689.21,-428.12"/>
</g>
<!-- Node40 -->
<g id="node40" class="node">
<title>Node40</title>
<g id="a_node40"><a xlink:title=" ">
<polygon fill="none" stroke="#bfbfbf" points="760,-399.5 760,-419.5 808.25,-419.5 808.25,-399.5 760,-399.5"/>
<text text-anchor="middle" x="784.12" y="-406" font-family="Helvetica,sans-Serif" font-size="10.00">cassert</text>
</a>
</g>
</g>
<!-- Node1&#45;&gt;Node40 -->
<g id="edge66" class="edge">
<title>Node1&#45;&gt;Node40</title>
<path fill="none" stroke="midnightblue" d="M656.05,-456.54C681.58,-447.36 721.45,-433.03 749.92,-422.8"/>
<polygon fill="midnightblue" stroke="midnightblue" points="750.99,-425.77 759.22,-419.09 748.63,-419.18 750.99,-425.77"/>
</g>
<!-- Node3 -->
<g id="node3" class="node">
<title>Node3</title>
<g id="a_node3"><a xlink:href="_engine_exception_8h.html" target="_top" xlink:title=" ">
<polygon fill="none" stroke="black" points="204.25,-171.5 204.25,-191.5 302,-191.5 302,-171.5 204.25,-171.5"/>
<text text-anchor="middle" x="253.12" y="-178" font-family="Helvetica,sans-Serif" font-size="10.00">EngineException.h</text>
</a>
</g>
</g>
<!-- Node2&#45;&gt;Node3 -->
<g id="edge2" class="edge">
<title>Node2&#45;&gt;Node3</title>
<path fill="none" stroke="midnightblue" d="M142.96,-342.56C134.21,-334.14 122.22,-320.65 117.12,-306 105.74,-273.26 96.87,-256.13 117.12,-228 127.04,-214.23 164.92,-202.23 198.2,-194.02"/>
<polygon fill="midnightblue" stroke="midnightblue" points="198.89,-197.21 207.8,-191.48 197.26,-190.4 198.89,-197.21"/>
</g>
<!-- Node4 -->
<g id="node4" class="node">
<title>Node4</title>
<g id="a_node4"><a xlink:title=" ">
<polygon fill="none" stroke="#bfbfbf" points="306.12,-114.5 306.12,-134.5 346.12,-134.5 346.12,-114.5 306.12,-114.5"/>
<text text-anchor="middle" x="326.12" y="-121" font-family="Helvetica,sans-Serif" font-size="10.00">string</text>
</a>
</g>
</g>
<!-- Node2&#45;&gt;Node4 -->
<g id="edge52" class="edge">
<title>Node2&#45;&gt;Node4</title>
<path fill="none" stroke="midnightblue" d="M120.89,-342.54C102.84,-335.69 81.86,-324.24 71.12,-306 53.54,-276.13 56.94,-259.63 71.12,-228 114.18,-131.99 187.61,-161.68 295.67,-135.06"/>
<polygon fill="midnightblue" stroke="midnightblue" points="296.44,-138.21 305.23,-132.3 294.67,-131.44 296.44,-138.21"/>
</g>
<!-- Node2&#45;&gt;Node5 -->
<g id="edge4" class="edge">
<title>Node2&#45;&gt;Node5</title>
<path fill="none" stroke="midnightblue" d="M192.72,-344.92C255.66,-334.46 377.97,-314.14 442.29,-303.45"/>
<polygon fill="midnightblue" stroke="midnightblue" points="442.55,-306.79 451.84,-301.7 441.4,-299.88 442.55,-306.79"/>
</g>
<!-- Node18 -->
<g id="node18" class="node">
<title>Node18</title>
<g id="a_node18"><a xlink:href="_win_8h.html" target="_top" xlink:title=" ">
<polygon fill="none" stroke="black" points="144.38,-171.5 144.38,-191.5 185.88,-191.5 185.88,-171.5 144.38,-171.5"/>
<text text-anchor="middle" x="165.12" y="-178" font-family="Helvetica,sans-Serif" font-size="10.00">Win.h</text>
</a>
</g>
</g>
<!-- Node2&#45;&gt;Node18 -->
<g id="edge51" class="edge">
<title>Node2&#45;&gt;Node18</title>
<path fill="none" stroke="midnightblue" d="M128.64,-342.52C112.83,-335.29 93.51,-323.44 84.12,-306 67.69,-275.48 66.61,-257.92 84.12,-228 94.95,-209.5 116.37,-197.94 134.47,-191.11"/>
<polygon fill="midnightblue" stroke="midnightblue" points="135.31,-194.18 143.63,-187.61 133.03,-187.56 135.31,-194.18"/>
</g>
<!-- Node28 -->
<g id="node28" class="node">
<title>Node28</title>
<g id="a_node28"><a xlink:href="_keyboard_8h.html" target="_top" xlink:title=" ">
<polygon fill="none" stroke="black" points="198.38,-285.5 198.38,-305.5 263.88,-305.5 263.88,-285.5 198.38,-285.5"/>
<text text-anchor="middle" x="231.12" y="-292" font-family="Helvetica,sans-Serif" font-size="10.00">Keyboard.h</text>
</a>
</g>
</g>
<!-- Node2&#45;&gt;Node28 -->
<g id="edge37" class="edge">
<title>Node2&#45;&gt;Node28</title>
<path fill="none" stroke="midnightblue" d="M165.66,-342.66C177.53,-334.29 195.59,-321.56 209.74,-311.58"/>
<polygon fill="midnightblue" stroke="midnightblue" points="211.21,-314.12 217.36,-305.5 207.18,-308.4 211.21,-314.12"/>
</g>
<!-- Node31 -->
<g id="node31" class="node">
<title>Node31</title>
<g id="a_node31"><a xlink:href="_mouse_8h.html" target="_top" xlink:title=" ">
<polygon fill="none" stroke="black" points="126.38,-285.5 126.38,-305.5 179.88,-305.5 179.88,-285.5 126.38,-285.5"/>
<text text-anchor="middle" x="153.12" y="-292" font-family="Helvetica,sans-Serif" font-size="10.00">Mouse.h</text>
</a>
</g>
</g>
<!-- Node2&#45;&gt;Node31 -->
<g id="edge40" class="edge">
<title>Node2&#45;&gt;Node31</title>
<path fill="none" stroke="midnightblue" d="M153.12,-342.91C153.12,-335.76 153.12,-325.32 153.12,-316.15"/>
<polygon fill="midnightblue" stroke="midnightblue" points="156.63,-316.21 153.12,-306.21 149.63,-316.21 156.63,-316.21"/>
</g>
<!-- Node3&#45;&gt;Node4 -->
<g id="edge3" class="edge">
<title>Node3&#45;&gt;Node4</title>
<path fill="none" stroke="midnightblue" d="M264.85,-171.66C275.86,-163.37 292.55,-150.8 305.73,-140.87"/>
<polygon fill="midnightblue" stroke="midnightblue" points="307.3,-143.31 313.18,-134.5 303.09,-137.72 307.3,-143.31"/>
</g>
<!-- Node5&#45;&gt;Node3 -->
<g id="edge5" class="edge">
<title>Node5&#45;&gt;Node3</title>
<path fill="none" stroke="midnightblue" d="M464.68,-285.59C445.36,-276.64 414.97,-262.32 389.12,-249 371.97,-240.16 368.33,-236.73 351.12,-228 328.58,-216.56 302.61,-204.55 283.07,-195.75"/>
<polygon fill="midnightblue" stroke="midnightblue" points="284.77,-192.23 274.22,-191.33 281.91,-198.61 284.77,-192.23"/>
</g>
<!-- Node6 -->
<g id="node6" class="node">
<title>Node6</title>
<g id="a_node6"><a xlink:href="_vector3_8h.html" target="_top" xlink:title=" ">
<polygon fill="none" stroke="black" points="364,-114.5 364,-134.5 484.25,-134.5 484.25,-114.5 364,-114.5"/>
<text text-anchor="middle" x="424.12" y="-121" font-family="Helvetica,sans-Serif" font-size="10.00">LinearAlgebra/Vector3.h</text>
</a>
</g>
</g>
<!-- Node5&#45;&gt;Node6 -->
<g id="edge6" class="edge">
<title>Node5&#45;&gt;Node6</title>
<path fill="none" stroke="midnightblue" d="M513.18,-285.62C568.3,-267.32 678.99,-222.75 637.12,-171 619.34,-149.02 549.66,-137.19 494.78,-131.16"/>
<polygon fill="midnightblue" stroke="midnightblue" points="495.33,-127.59 485.02,-130.03 494.6,-134.55 495.33,-127.59"/>
</g>
<!-- Node17 -->
<g id="node17" class="node">
<title>Node17</title>
<g id="a_node17"><a xlink:href="_g_d_i_plus_manager_8h.html" target="_top" xlink:title=" ">
<polygon fill="none" stroke="black" points="244.25,-228.5 244.25,-248.5 342,-248.5 342,-228.5 244.25,-228.5"/>
<text text-anchor="middle" x="293.12" y="-235" font-family="Helvetica,sans-Serif" font-size="10.00">GDIPlusManager.h</text>
</a>
</g>
</g>
<!-- Node5&#45;&gt;Node17 -->
<g id="edge22" class="edge">
<title>Node5&#45;&gt;Node17</title>
<path fill="none" stroke="midnightblue" d="M453.01,-285.54C420.82,-276.27 370.37,-261.74 334.76,-251.49"/>
<polygon fill="midnightblue" stroke="midnightblue" points="335.8,-247.86 325.22,-248.46 333.87,-254.59 335.8,-247.86"/>
</g>
<!-- Node21 -->
<g id="node21" class="node">
<title>Node21</title>
<g id="a_node21"><a xlink:href="_surface_8h.html" target="_top" xlink:title=" ">
<polygon fill="none" stroke="black" points="520.5,-228.5 520.5,-248.5 577.75,-248.5 577.75,-228.5 520.5,-228.5"/>
<text text-anchor="middle" x="549.12" y="-235" font-family="Helvetica,sans-Serif" font-size="10.00">Surface.h</text>
</a>
</g>
</g>
<!-- Node5&#45;&gt;Node21 -->
<g id="edge26" class="edge">
<title>Node5&#45;&gt;Node21</title>
<path fill="none" stroke="midnightblue" d="M494.57,-285.66C504.18,-277.53 518.66,-265.28 530.28,-255.44"/>
<polygon fill="midnightblue" stroke="midnightblue" points="532.12,-257.63 537.49,-248.5 527.6,-252.29 532.12,-257.63"/>
</g>
<!-- Node26 -->
<g id="node26" class="node">
<title>Node26</title>
<g id="a_node26"><a xlink:title=" ">
<polygon fill="none" stroke="#bfbfbf" points="397.88,-228.5 397.88,-248.5 448.38,-248.5 448.38,-228.5 397.88,-228.5"/>
<text text-anchor="middle" x="423.12" y="-235" font-family="Helvetica,sans-Serif" font-size="10.00">d3d11.h</text>
</a>
</g>
</g>
<!-- Node5&#45;&gt;Node26 -->
<g id="edge35" class="edge">
<title>Node5&#45;&gt;Node26</title>
<path fill="none" stroke="midnightblue" d="M474.32,-285.66C465.4,-277.61 451.99,-265.52 441.13,-255.73"/>
<polygon fill="midnightblue" stroke="midnightblue" points="443.87,-253.59 434.1,-249.5 439.19,-258.79 443.87,-253.59"/>
</g>
<!-- Node27 -->
<g id="node27" class="node">
<title>Node27</title>
<g id="a_node27"><a xlink:title=" ">
<polygon fill="none" stroke="#bfbfbf" points="466,-228.5 466,-248.5 502.25,-248.5 502.25,-228.5 466,-228.5"/>
<text text-anchor="middle" x="484.12" y="-235" font-family="Helvetica,sans-Serif" font-size="10.00">wrl.h</text>
</a>
</g>
</g>
<!-- Node5&#45;&gt;Node27 -->
<g id="edge36" class="edge">
<title>Node5&#45;&gt;Node27</title>
<path fill="none" stroke="midnightblue" d="M484.12,-285.91C484.12,-278.76 484.12,-268.32 484.12,-259.15"/>
<polygon fill="midnightblue" stroke="midnightblue" points="487.63,-259.21 484.12,-249.21 480.63,-259.21 487.63,-259.21"/>
</g>
<!-- Node7 -->
<g id="node7" class="node">
<title>Node7</title>
<g id="a_node7"><a xlink:href="_math_8h.html" target="_top" xlink:title=" ">
<polygon fill="none" stroke="black" points="442.12,-57.5 442.12,-77.5 488.12,-77.5 488.12,-57.5 442.12,-57.5"/>
<text text-anchor="middle" x="465.12" y="-64" font-family="Helvetica,sans-Serif" font-size="10.00">Math.h</text>
</a>
</g>
</g>
<!-- Node6&#45;&gt;Node7 -->
<g id="edge7" class="edge">
<title>Node6&#45;&gt;Node7</title>
<path fill="none" stroke="midnightblue" d="M430.53,-114.91C436.27,-107.2 444.88,-95.66 452.07,-86.02"/>
<polygon fill="midnightblue" stroke="midnightblue" points="455.46,-88.32 458.63,-78.21 449.85,-84.14 455.46,-88.32"/>
</g>
<!-- Node12 -->
<g id="node12" class="node">
<title>Node12</title>
<g id="a_node12"><a xlink:href="_matrix3_8h.html" target="_top" xlink:title=" ">
<polygon fill="none" stroke="black" points="291.88,-57.5 291.88,-77.5 348.38,-77.5 348.38,-57.5 291.88,-57.5"/>
<text text-anchor="middle" x="320.12" y="-64" font-family="Helvetica,sans-Serif" font-size="10.00">Matrix3.h</text>
</a>
</g>
</g>
<!-- Node6&#45;&gt;Node12 -->
<g id="edge13" class="edge">
<title>Node6&#45;&gt;Node12</title>
<path fill="none" stroke="midnightblue" d="M407.42,-114.66C391.06,-106.01 365.89,-92.7 346.77,-82.59"/>
<polygon fill="midnightblue" stroke="midnightblue" points="348.61,-79.08 338.14,-77.5 345.34,-85.27 348.61,-79.08"/>
</g>
<!-- Node13 -->
<g id="node13" class="node">
<title>Node13</title>
<g id="a_node13"><a xlink:title=" ">
<polygon fill="none" stroke="#bfbfbf" points="301.25,-0.5 301.25,-20.5 339,-20.5 339,-0.5 301.25,-0.5"/>
<text text-anchor="middle" x="320.12" y="-7" font-family="Helvetica,sans-Serif" font-size="10.00">array</text>
</a>
</g>
</g>
<!-- Node6&#45;&gt;Node13 -->
<g id="edge18" class="edge">
<title>Node6&#45;&gt;Node13</title>
<path fill="none" stroke="midnightblue" d="M421.36,-114.88C416.67,-101.32 406.1,-74.72 390.12,-57 378.41,-44 362.18,-33.15 348.3,-25.3"/>
<polygon fill="midnightblue" stroke="midnightblue" points="350.17,-21.8 339.7,-20.14 346.85,-27.96 350.17,-21.8"/>
</g>
<!-- Node14 -->
<g id="node14" class="node">
<title>Node14</title>
<g id="a_node14"><a xlink:title=" ">
<polygon fill="none" stroke="#bfbfbf" points="235.38,-0.5 235.38,-20.5 282.88,-20.5 282.88,-0.5 235.38,-0.5"/>
<text text-anchor="middle" x="259.12" y="-7" font-family="Helvetica,sans-Serif" font-size="10.00">cstddef</text>
</a>
</g>
</g>
<!-- Node6&#45;&gt;Node14 -->
<g id="edge21" class="edge">
<title>Node6&#45;&gt;Node14</title>
<path fill="none" stroke="midnightblue" d="M417.08,-114.77C405.66,-101.05 381.87,-74.23 357.12,-57 337.16,-43.1 312.27,-31.61 292.57,-23.65"/>
<polygon fill="midnightblue" stroke="midnightblue" points="294.1,-20.1 283.51,-19.71 291.55,-26.61 294.1,-20.1"/>
</g>
<!-- Node15 -->
<g id="node15" class="node">
<title>Node15</title>
<g id="a_node15"><a xlink:title=" ">
<polygon fill="none" stroke="#bfbfbf" points="98.38,-0.5 98.38,-20.5 151.88,-20.5 151.88,-0.5 98.38,-0.5"/>
<text text-anchor="middle" x="125.12" y="-7" font-family="Helvetica,sans-Serif" font-size="10.00">iostream</text>
</a>
</g>
</g>
<!-- Node6&#45;&gt;Node15 -->
<g id="edge19" class="edge">
<title>Node6&#45;&gt;Node15</title>
<path fill="none" stroke="midnightblue" d="M390.12,-114.52C361.14,-106.4 318.65,-93.38 283.12,-78 265.42,-70.33 262.64,-65.11 245.12,-57 217.83,-44.36 185.94,-32.4 161.9,-23.91"/>
<polygon fill="midnightblue" stroke="midnightblue" points="163.38,-20.37 152.79,-20.38 161.08,-26.98 163.38,-20.37"/>
</g>
<!-- Node16 -->
<g id="node16" class="node">
<title>Node16</title>
<g id="a_node16"><a xlink:title=" ">
<polygon fill="none" stroke="#bfbfbf" points="182.38,-57.5 182.38,-77.5 235.88,-77.5 235.88,-57.5 182.38,-57.5"/>
<text text-anchor="middle" x="209.12" y="-64" font-family="Helvetica,sans-Serif" font-size="10.00">compare</text>
</a>
</g>
</g>
<!-- Node6&#45;&gt;Node16 -->
<g id="edge20" class="edge">
<title>Node6&#45;&gt;Node16</title>
<path fill="none" stroke="midnightblue" d="M389.1,-114.54C349.76,-104.48 286.16,-88.21 246.05,-77.95"/>
<polygon fill="midnightblue" stroke="midnightblue" points="247.2,-74.37 236.65,-75.28 245.47,-81.15 247.2,-74.37"/>
</g>
<!-- Node7&#45;&gt;Node7 -->
<g id="edge8" class="edge">
<title>Node7&#45;&gt;Node7</title>
<path fill="none" stroke="midnightblue" d="M483.68,-77.43C495.18,-79.83 506.12,-76.52 506.12,-67.5 506.12,-61.44 501.18,-57.96 494.45,-57.05"/>
<polygon fill="midnightblue" stroke="midnightblue" points="494.5,-53.59 484.68,-57.57 494.83,-60.59 494.5,-53.59"/>
</g>
<!-- Node8 -->
<g id="node8" class="node">
<title>Node8</title>
<g id="a_node8"><a xlink:title=" ">
<polygon fill="none" stroke="#bfbfbf" points="356.62,-0.5 356.62,-20.5 399.62,-20.5 399.62,-0.5 356.62,-0.5"/>
<text text-anchor="middle" x="378.12" y="-7" font-family="Helvetica,sans-Serif" font-size="10.00">cmath</text>
</a>
</g>
</g>
<!-- Node7&#45;&gt;Node8 -->
<g id="edge9" class="edge">
<title>Node7&#45;&gt;Node8</title>
<path fill="none" stroke="midnightblue" d="M451.15,-57.66C437.78,-49.21 417.38,-36.31 401.53,-26.3"/>
<polygon fill="midnightblue" stroke="midnightblue" points="403.68,-22.88 393.36,-20.5 399.94,-28.8 403.68,-22.88"/>
</g>
<!-- Node9 -->
<g id="node9" class="node">
<title>Node9</title>
<g id="a_node9"><a xlink:title=" ">
<polygon fill="none" stroke="#bfbfbf" points="555.5,-0.5 555.5,-20.5 594.75,-20.5 594.75,-0.5 555.5,-0.5"/>
<text text-anchor="middle" x="575.12" y="-7" font-family="Helvetica,sans-Serif" font-size="10.00">limits</text>
</a>
</g>
</g>
<!-- Node7&#45;&gt;Node9 -->
<g id="edge10" class="edge">
<title>Node7&#45;&gt;Node9</title>
<path fill="none" stroke="midnightblue" d="M482.8,-57.66C500.25,-48.94 527.21,-35.46 547.5,-25.31"/>
<polygon fill="midnightblue" stroke="midnightblue" points="548.75,-28.1 556.13,-20.5 545.62,-21.84 548.75,-28.1"/>
</g>
<!-- Node10 -->
<g id="node10" class="node">
<title>Node10</title>
<g id="a_node10"><a xlink:title=" ">
<polygon fill="none" stroke="#bfbfbf" points="417.38,-0.5 417.38,-20.5 470.88,-20.5 470.88,-0.5 417.38,-0.5"/>
<text text-anchor="middle" x="444.12" y="-7" font-family="Helvetica,sans-Serif" font-size="10.00">numbers</text>
</a>
</g>
</g>
<!-- Node7&#45;&gt;Node10 -->
<g id="edge11" class="edge">
<title>Node7&#45;&gt;Node10</title>
<path fill="none" stroke="midnightblue" d="M461.84,-57.91C459.02,-50.52 454.86,-39.62 451.28,-30.23"/>
<polygon fill="midnightblue" stroke="midnightblue" points="454.29,-29.31 447.45,-21.21 447.75,-31.81 454.29,-29.31"/>
</g>
<!-- Node11 -->
<g id="node11" class="node">
<title>Node11</title>
<g id="a_node11"><a xlink:title=" ">
<polygon fill="none" stroke="#bfbfbf" points="489,-0.5 489,-20.5 537.25,-20.5 537.25,-0.5 489,-0.5"/>
<text text-anchor="middle" x="513.12" y="-7" font-family="Helvetica,sans-Serif" font-size="10.00">random</text>
</a>
</g>
</g>
<!-- Node7&#45;&gt;Node11 -->
<g id="edge12" class="edge">
<title>Node7&#45;&gt;Node11</title>
<path fill="none" stroke="midnightblue" d="M472.62,-57.91C479.49,-50.04 489.84,-38.18 498.36,-28.42"/>
<polygon fill="midnightblue" stroke="midnightblue" points="501.58,-31.05 505.52,-21.21 496.31,-26.45 501.58,-31.05"/>
</g>
<!-- Node12&#45;&gt;Node8 -->
<g id="edge15" class="edge">
<title>Node12&#45;&gt;Node8</title>
<path fill="none" stroke="midnightblue" d="M329.44,-57.66C337.85,-49.69 350.43,-37.76 360.7,-28.02"/>
<polygon fill="midnightblue" stroke="midnightblue" points="362.79,-30.92 367.64,-21.5 357.97,-25.84 362.79,-30.92"/>
</g>
<!-- Node12&#45;&gt;Node13 -->
<g id="edge14" class="edge">
<title>Node12&#45;&gt;Node13</title>
<path fill="none" stroke="midnightblue" d="M320.12,-57.91C320.12,-50.76 320.12,-40.32 320.12,-31.15"/>
<polygon fill="midnightblue" stroke="midnightblue" points="323.63,-31.21 320.12,-21.21 316.63,-31.21 323.63,-31.21"/>
</g>
<!-- Node12&#45;&gt;Node14 -->
<g id="edge16" class="edge">
<title>Node12&#45;&gt;Node14</title>
<path fill="none" stroke="midnightblue" d="M310.32,-57.66C301.4,-49.61 287.99,-37.52 277.13,-27.73"/>
<polygon fill="midnightblue" stroke="midnightblue" points="279.87,-25.59 270.1,-21.5 275.19,-30.79 279.87,-25.59"/>
</g>
<!-- Node12&#45;&gt;Node15 -->
<g id="edge17" class="edge">
<title>Node12&#45;&gt;Node15</title>
<path fill="none" stroke="midnightblue" d="M292.19,-58.62C257.92,-48.95 199.73,-32.54 161.86,-21.86"/>
<polygon fill="midnightblue" stroke="midnightblue" points="163.33,-18.36 152.76,-19.01 161.43,-25.1 163.33,-18.36"/>
</g>
<!-- Node17&#45;&gt;Node18 -->
<g id="edge23" class="edge">
<title>Node17&#45;&gt;Node18</title>
<path fill="none" stroke="midnightblue" d="M272.27,-228.54C251.42,-219.58 219.11,-205.7 195.43,-195.52"/>
<polygon fill="midnightblue" stroke="midnightblue" points="197.11,-192.01 186.54,-191.27 194.35,-198.44 197.11,-192.01"/>
</g>
<!-- Node19 -->
<g id="node19" class="node">
<title>Node19</title>
<g id="a_node19"><a xlink:title=" ">
<polygon fill="none" stroke="#bfbfbf" points="220.25,-114.5 220.25,-134.5 288,-134.5 288,-114.5 220.25,-114.5"/>
<text text-anchor="middle" x="254.12" y="-121" font-family="Helvetica,sans-Serif" font-size="10.00">sdkddkver.h</text>
</a>
</g>
</g>
<!-- Node18&#45;&gt;Node19 -->
<g id="edge24" class="edge">
<title>Node18&#45;&gt;Node19</title>
<path fill="none" stroke="midnightblue" d="M179.42,-171.66C193.23,-163.13 214.37,-150.07 230.64,-140.01"/>
<polygon fill="midnightblue" stroke="midnightblue" points="231.9,-142.73 238.57,-134.5 228.22,-136.78 231.9,-142.73"/>
</g>
<!-- Node20 -->
<g id="node20" class="node">
<title>Node20</title>
<g id="a_node20"><a xlink:title=" ">
<polygon fill="none" stroke="#bfbfbf" points="138.12,-114.5 138.12,-134.5 202.12,-134.5 202.12,-114.5 138.12,-114.5"/>
<text text-anchor="middle" x="170.12" y="-121" font-family="Helvetica,sans-Serif" font-size="10.00">Windows.h</text>
</a>
</g>
</g>
<!-- Node18&#45;&gt;Node20 -->
<g id="edge25" class="edge">
<title>Node18&#45;&gt;Node20</title>
<path fill="none" stroke="midnightblue" d="M165.91,-171.91C166.56,-164.76 167.5,-154.32 168.34,-145.15"/>
<polygon fill="midnightblue" stroke="midnightblue" points="171.91,-145.49 169.33,-135.21 164.94,-144.86 171.91,-145.49"/>
</g>
<!-- Node21&#45;&gt;Node3 -->
<g id="edge30" class="edge">
<title>Node21&#45;&gt;Node3</title>
<path fill="none" stroke="midnightblue" d="M520.54,-230.12C517.37,-229.38 514.18,-228.65 511.12,-228 443.43,-213.59 365.05,-200.23 312.61,-191.77"/>
<polygon fill="midnightblue" stroke="midnightblue" points="313.25,-188.17 302.82,-190.04 312.14,-195.08 313.25,-188.17"/>
</g>
<!-- Node21&#45;&gt;Node4 -->
<g id="edge33" class="edge">
<title>Node21&#45;&gt;Node4</title>
<path fill="none" stroke="midnightblue" d="M520.51,-230.26C517.35,-229.49 514.17,-228.72 511.12,-228 439.34,-211.05 404.17,-241.09 349.12,-192 335.74,-180.07 330.15,-159.96 327.81,-144.97"/>
<polygon fill="midnightblue" stroke="midnightblue" points="331.19,-144.82 326.54,-135.31 324.24,-145.65 331.19,-144.82"/>
</g>
<!-- Node21&#45;&gt;Node18 -->
<g id="edge29" class="edge">
<title>Node21&#45;&gt;Node18</title>
<path fill="none" stroke="midnightblue" d="M520.58,-229.94C517.4,-229.22 514.2,-228.56 511.12,-228 375.43,-203.42 335.32,-220.59 196.27,-191.82"/>
<polygon fill="midnightblue" stroke="midnightblue" points="197.15,-188.22 186.64,-189.57 195.7,-195.07 197.15,-188.22"/>
</g>
<!-- Node22 -->
<g id="node22" class="node">
<title>Node22</title>
<g id="a_node22"><a xlink:href="_colors_8h.html" target="_top" xlink:title=" ">
<polygon fill="none" stroke="black" points="506.12,-171.5 506.12,-191.5 558.12,-191.5 558.12,-171.5 506.12,-171.5"/>
<text text-anchor="middle" x="532.12" y="-178" font-family="Helvetica,sans-Serif" font-size="10.00">Colors.h</text>
</a>
</g>
</g>
<!-- Node21&#45;&gt;Node22 -->
<g id="edge27" class="edge">
<title>Node21&#45;&gt;Node22</title>
<path fill="none" stroke="midnightblue" d="M546.47,-228.91C544.21,-221.6 540.89,-210.85 538.01,-201.54"/>
<polygon fill="midnightblue" stroke="midnightblue" points="541.12,-200.74 534.82,-192.21 534.43,-202.8 541.12,-200.74"/>
</g>
<!-- Node23 -->
<g id="node23" class="node">
<title>Node23</title>
<g id="a_node23"><a xlink:title=" ">
<polygon fill="none" stroke="#bfbfbf" points="358.5,-171.5 358.5,-191.5 409.75,-191.5 409.75,-171.5 358.5,-171.5"/>
<text text-anchor="middle" x="384.12" y="-178" font-family="Helvetica,sans-Serif" font-size="10.00">assert.h</text>
</a>
</g>
</g>
<!-- Node21&#45;&gt;Node23 -->
<g id="edge31" class="edge">
<title>Node21&#45;&gt;Node23</title>
<path fill="none" stroke="midnightblue" d="M522.25,-228.54C494.39,-219.26 450.7,-204.69 419.93,-194.44"/>
<polygon fill="midnightblue" stroke="midnightblue" points="421.23,-190.85 410.63,-191 419.01,-197.49 421.23,-190.85"/>
</g>
<!-- Node24 -->
<g id="node24" class="node">
<title>Node24</title>
<g id="a_node24"><a xlink:title=" ">
<polygon fill="none" stroke="#bfbfbf" points="576.5,-171.5 576.5,-191.5 627.75,-191.5 627.75,-171.5 576.5,-171.5"/>
<text text-anchor="middle" x="602.12" y="-178" font-family="Helvetica,sans-Serif" font-size="10.00">memory</text>
</a>
</g>
</g>
<!-- Node21&#45;&gt;Node24 -->
<g id="edge32" class="edge">
<title>Node21&#45;&gt;Node24</title>
<path fill="none" stroke="midnightblue" d="M557.41,-228.91C565.06,-220.96 576.65,-208.94 586.11,-199.12"/>
<polygon fill="midnightblue" stroke="midnightblue" points="588.31,-201.84 592.73,-192.21 583.27,-196.99 588.31,-201.84"/>
</g>
<!-- Node25 -->
<g id="node25" class="node">
<title>Node25</title>
<g id="a_node25"><a xlink:title=" ">
<polygon fill="none" stroke="#bfbfbf" points="428,-171.5 428,-191.5 488.25,-191.5 488.25,-171.5 428,-171.5"/>
<text text-anchor="middle" x="458.12" y="-178" font-family="Helvetica,sans-Serif" font-size="10.00">filesystem</text>
</a>
</g>
</g>
<!-- Node21&#45;&gt;Node25 -->
<g id="edge34" class="edge">
<title>Node21&#45;&gt;Node25</title>
<path fill="none" stroke="midnightblue" d="M534.5,-228.66C520.39,-220.13 498.78,-207.07 482.14,-197.01"/>
<polygon fill="midnightblue" stroke="midnightblue" points="484.38,-193.67 474.01,-191.5 480.76,-199.67 484.38,-193.67"/>
</g>
<!-- Node22&#45;&gt;Node6 -->
<g id="edge28" class="edge">
<title>Node22&#45;&gt;Node6</title>
<path fill="none" stroke="midnightblue" d="M514.77,-171.66C497.71,-162.97 471.41,-149.58 451.52,-139.45"/>
<polygon fill="midnightblue" stroke="midnightblue" points="453.29,-135.92 442.79,-134.5 450.12,-142.15 453.29,-135.92"/>
</g>
<!-- Node29 -->
<g id="node29" class="node">
<title>Node29</title>
<g id="a_node29"><a xlink:title=" ">
<polygon fill="none" stroke="#bfbfbf" points="186.12,-228.5 186.12,-248.5 226.12,-248.5 226.12,-228.5 186.12,-228.5"/>
<text text-anchor="middle" x="206.12" y="-235" font-family="Helvetica,sans-Serif" font-size="10.00">bitset</text>
</a>
</g>
</g>
<!-- Node28&#45;&gt;Node29 -->
<g id="edge38" class="edge">
<title>Node28&#45;&gt;Node29</title>
<path fill="none" stroke="midnightblue" d="M227.22,-285.91C223.83,-278.44 218.8,-267.38 214.5,-257.93"/>
<polygon fill="midnightblue" stroke="midnightblue" points="217.41,-256.87 210.09,-249.21 211.04,-259.77 217.41,-256.87"/>
</g>
<!-- Node30 -->
<g id="node30" class="node">
<title>Node30</title>
<g id="a_node30"><a xlink:title=" ">
<polygon fill="none" stroke="#bfbfbf" points="126,-228.5 126,-248.5 168.25,-248.5 168.25,-228.5 126,-228.5"/>
<text text-anchor="middle" x="147.12" y="-235" font-family="Helvetica,sans-Serif" font-size="10.00">queue</text>
</a>
</g>
</g>
<!-- Node28&#45;&gt;Node30 -->
<g id="edge39" class="edge">
<title>Node28&#45;&gt;Node30</title>
<path fill="none" stroke="midnightblue" d="M217.63,-285.66C204.72,-277.21 185.02,-264.31 169.72,-254.3"/>
<polygon fill="midnightblue" stroke="midnightblue" points="172.15,-251.05 161.87,-248.5 168.32,-256.9 172.15,-251.05"/>
</g>
<!-- Node31&#45;&gt;Node30 -->
<g id="edge50" class="edge">
<title>Node31&#45;&gt;Node30</title>
<path fill="none" stroke="midnightblue" d="M152.19,-285.91C151.4,-278.68 150.24,-268.09 149.24,-258.85"/>
<polygon fill="midnightblue" stroke="midnightblue" points="152.64,-258.78 148.08,-249.21 145.68,-259.54 152.64,-258.78"/>
</g>
<!-- Node32 -->
<g id="node32" class="node">
<title>Node32</title>
<g id="a_node32"><a xlink:href="_vector2_8h.html" target="_top" xlink:title=" ">
<polygon fill="none" stroke="black" points="0,-114.5 0,-134.5 120.25,-134.5 120.25,-114.5 0,-114.5"/>
<text text-anchor="middle" x="60.12" y="-121" font-family="Helvetica,sans-Serif" font-size="10.00">LinearAlgebra/Vector2.h</text>
</a>
</g>
</g>
<!-- Node31&#45;&gt;Node32 -->
<g id="edge41" class="edge">
<title>Node31&#45;&gt;Node32</title>
<path fill="none" stroke="midnightblue" d="M145,-285.56C137.22,-276.71 125.46,-262.56 117.12,-249 95.57,-213.91 76.93,-169.32 67.24,-144.46"/>
<polygon fill="midnightblue" stroke="midnightblue" points="70.17,-143.33 63.33,-135.24 63.64,-145.83 70.17,-143.33"/>
</g>
<!-- Node32&#45;&gt;Node7 -->
<g id="edge42" class="edge">
<title>Node32&#45;&gt;Node7</title>
<path fill="none" stroke="midnightblue" d="M119.96,-115.25C123.06,-114.83 126.13,-114.41 129.12,-114 239.81,-98.89 371.03,-81.18 431.52,-73.03"/>
<polygon fill="midnightblue" stroke="midnightblue" points="431.86,-76.38 441.31,-71.57 430.93,-69.44 431.86,-76.38"/>
</g>
<!-- Node32&#45;&gt;Node12 -->
<g id="edge45" class="edge">
<title>Node32&#45;&gt;Node12</title>
<path fill="none" stroke="midnightblue" d="M102.48,-114.54C152.14,-104.04 233.74,-86.77 281.66,-76.64"/>
<polygon fill="midnightblue" stroke="midnightblue" points="282.15,-79.9 291.21,-74.4 280.7,-73.05 282.15,-79.9"/>
</g>
<!-- Node32&#45;&gt;Node13 -->
<g id="edge46" class="edge">
<title>Node32&#45;&gt;Node13</title>
<path fill="none" stroke="midnightblue" d="M76.2,-114.67C92.45,-105.66 118.22,-91.19 140.12,-78 155.02,-69.03 157.32,-64.25 173.12,-57 220.4,-35.3 237.5,-37.51 291.04,-21.2"/>
<polygon fill="midnightblue" stroke="midnightblue" points="291.98,-24.25 300.48,-17.92 289.89,-17.58 291.98,-24.25"/>
</g>
<!-- Node32&#45;&gt;Node14 -->
<g id="edge48" class="edge">
<title>Node32&#45;&gt;Node14</title>
<path fill="none" stroke="midnightblue" d="M68.74,-114.66C82.66,-100.79 111.44,-73.78 140.12,-57 167.23,-41.14 200.88,-28.88 225.47,-21.1"/>
<polygon fill="midnightblue" stroke="midnightblue" points="226.21,-24.23 234.74,-17.94 224.15,-17.53 226.21,-24.23"/>
</g>
<!-- Node32&#45;&gt;Node15 -->
<g id="edge49" class="edge">
<title>Node32&#45;&gt;Node15</title>
<path fill="none" stroke="midnightblue" d="M48.86,-114.67C33.73,-101.72 10.18,-76.95 23.12,-57 37.43,-34.95 65.18,-23.5 88.13,-17.6"/>
<polygon fill="midnightblue" stroke="midnightblue" points="88.63,-20.84 97.6,-15.19 87.07,-14.02 88.63,-20.84"/>
</g>
<!-- Node32&#45;&gt;Node16 -->
<g id="edge47" class="edge">
<title>Node32&#45;&gt;Node16</title>
<path fill="none" stroke="midnightblue" d="M84.4,-114.54C108.96,-105.47 147.18,-91.37 174.83,-81.16"/>
<polygon fill="midnightblue" stroke="midnightblue" points="175.7,-84.2 183.86,-77.46 173.27,-77.63 175.7,-84.2"/>
</g>
<!-- Node33 -->
<g id="node33" class="node">
<title>Node33</title>
<g id="a_node33"><a xlink:href="_matrix2_8h.html" target="_top" xlink:title=" ">
<polygon fill="none" stroke="black" points="31.88,-57.5 31.88,-77.5 88.38,-77.5 88.38,-57.5 31.88,-57.5"/>
<text text-anchor="middle" x="60.12" y="-64" font-family="Helvetica,sans-Serif" font-size="10.00">Matrix2.h</text>
</a>
</g>
</g>
<!-- Node32&#45;&gt;Node33 -->
<g id="edge43" class="edge">
<title>Node32&#45;&gt;Node33</title>
<path fill="none" stroke="midnightblue" d="M60.12,-114.91C60.12,-107.76 60.12,-97.32 60.12,-88.15"/>
<polygon fill="midnightblue" stroke="midnightblue" points="63.63,-88.21 60.12,-78.21 56.63,-88.21 63.63,-88.21"/>
</g>
<!-- Node33&#45;&gt;Node15 -->
<g id="edge44" class="edge">
<title>Node33&#45;&gt;Node15</title>
<path fill="none" stroke="midnightblue" d="M70.57,-57.66C80.18,-49.53 94.66,-37.28 106.28,-27.44"/>
<polygon fill="midnightblue" stroke="midnightblue" points="108.12,-29.63 113.49,-20.5 103.6,-24.29 108.12,-29.63"/>
</g>
<!-- Node34&#45;&gt;Node5 -->
<g id="edge56" class="edge">
<title>Node34&#45;&gt;Node5</title>
<path fill="none" stroke="midnightblue" d="M657.11,-399.53C687.04,-387.8 729.72,-365.93 710.12,-342 687.32,-314.14 584.95,-302.97 526.11,-298.79"/>
<polygon fill="midnightblue" stroke="midnightblue" points="526.52,-295.24 516.31,-298.06 526.06,-302.22 526.52,-295.24"/>
</g>
<!-- Node34&#45;&gt;Node24 -->
<g id="edge62" class="edge">
<title>Node34&#45;&gt;Node24</title>
<path fill="none" stroke="midnightblue" d="M629.99,-399.64C625.72,-366.38 610.59,-248.47 604.6,-201.76"/>
<polygon fill="midnightblue" stroke="midnightblue" points="607.97,-201.53 603.22,-192.06 601.02,-202.42 607.97,-201.53"/>
</g>
<!-- Node35 -->
<g id="node35" class="node">
<title>Node35</title>
<g id="a_node35"><a xlink:href="_frame_timer_8h.html" target="_top" xlink:title=" ">
<polygon fill="none" stroke="black" points="757.12,-342.5 757.12,-362.5 833.12,-362.5 833.12,-342.5 757.12,-342.5"/>
<text text-anchor="middle" x="795.12" y="-349" font-family="Helvetica,sans-Serif" font-size="10.00">FrameTimer.h</text>
</a>
</g>
</g>
<!-- Node34&#45;&gt;Node35 -->
<g id="edge54" class="edge">
<title>Node34&#45;&gt;Node35</title>
<path fill="none" stroke="midnightblue" d="M657.84,-399.54C685.12,-390.39 727.68,-376.12 758.18,-365.89"/>
<polygon fill="midnightblue" stroke="midnightblue" points="759.05,-368.95 767.42,-362.46 756.83,-362.32 759.05,-368.95"/>
</g>
<!-- Node37 -->
<g id="node37" class="node">
<title>Node37</title>
<g id="a_node37"><a xlink:href="_scene_8h.html" target="_top" xlink:title=" ">
<polygon fill="none" stroke="black" points="458.12,-342.5 458.12,-362.5 510.12,-362.5 510.12,-342.5 458.12,-342.5"/>
<text text-anchor="middle" x="484.12" y="-349" font-family="Helvetica,sans-Serif" font-size="10.00">Scene.h</text>
</a>
</g>
</g>
<!-- Node34&#45;&gt;Node37 -->
<g id="edge57" class="edge">
<title>Node34&#45;&gt;Node37</title>
<path fill="none" stroke="midnightblue" d="M607.18,-399.54C583.05,-390.51 545.57,-376.49 518.32,-366.29"/>
<polygon fill="midnightblue" stroke="midnightblue" points="519.65,-362.68 509.06,-362.46 517.2,-369.24 519.65,-362.68"/>
</g>
<!-- Node38 -->
<g id="node38" class="node">
<title>Node38</title>
<g id="a_node38"><a xlink:title=" ">
<polygon fill="none" stroke="#bfbfbf" points="659.38,-342.5 659.38,-362.5 700.88,-362.5 700.88,-342.5 659.38,-342.5"/>
<text text-anchor="middle" x="680.12" y="-349" font-family="Helvetica,sans-Serif" font-size="10.00">vector</text>
</a>
</g>
</g>
<!-- Node34&#45;&gt;Node38 -->
<g id="edge63" class="edge">
<title>Node34&#45;&gt;Node38</title>
<path fill="none" stroke="midnightblue" d="M638.78,-399.91C645.79,-392.04 656.36,-380.18 665.05,-370.42"/>
<polygon fill="midnightblue" stroke="midnightblue" points="667.32,-373.01 671.36,-363.21 662.1,-368.35 667.32,-373.01"/>
</g>
<!-- Node36 -->
<g id="node36" class="node">
<title>Node36</title>
<g id="a_node36"><a xlink:title=" ">
<polygon fill="none" stroke="#bfbfbf" points="772.5,-285.5 772.5,-305.5 817.75,-305.5 817.75,-285.5 772.5,-285.5"/>
<text text-anchor="middle" x="795.12" y="-292" font-family="Helvetica,sans-Serif" font-size="10.00">chrono</text>
</a>
</g>
</g>
<!-- Node35&#45;&gt;Node36 -->
<g id="edge55" class="edge">
<title>Node35&#45;&gt;Node36</title>
<path fill="none" stroke="midnightblue" d="M795.12,-342.91C795.12,-335.76 795.12,-325.32 795.12,-316.15"/>
<polygon fill="midnightblue" stroke="midnightblue" points="798.63,-316.21 795.12,-306.21 791.63,-316.21 798.63,-316.21"/>
</g>
<!-- Node37&#45;&gt;Node4 -->
<g id="edge61" class="edge">
<title>Node37&#45;&gt;Node4</title>
<path fill="none" stroke="midnightblue" d="M502.32,-342.57C553.99,-316.11 694.27,-235.9 637.12,-171 597.33,-125.81 433.2,-146.68 356.6,-134.58"/>
<polygon fill="midnightblue" stroke="midnightblue" points="357.43,-130.99 346.95,-132.55 356.12,-137.86 357.43,-130.99"/>
</g>
<!-- Node37&#45;&gt;Node5 -->
<g id="edge60" class="edge">
<title>Node37&#45;&gt;Node5</title>
<path fill="none" stroke="midnightblue" d="M484.12,-342.91C484.12,-335.76 484.12,-325.32 484.12,-316.15"/>
<polygon fill="midnightblue" stroke="midnightblue" points="487.63,-316.21 484.12,-306.21 480.63,-316.21 487.63,-316.21"/>
</g>
<!-- Node37&#45;&gt;Node28 -->
<g id="edge58" class="edge">
<title>Node37&#45;&gt;Node28</title>
<path fill="none" stroke="midnightblue" d="M458.47,-345.92C415.2,-336.52 327.23,-317.39 274.31,-305.89"/>
<polygon fill="midnightblue" stroke="midnightblue" points="275.09,-302.26 264.57,-303.55 273.6,-309.1 275.09,-302.26"/>
</g>
<!-- Node37&#45;&gt;Node31 -->
<g id="edge59" class="edge">
<title>Node37&#45;&gt;Node31</title>
<path fill="none" stroke="midnightblue" d="M458.31,-348.45C408.48,-342.35 295.4,-327.56 190.26,-306.04"/>
<polygon fill="midnightblue" stroke="midnightblue" points="191.29,-302.47 180.79,-303.87 189.87,-309.33 191.29,-302.47"/>
</g>
</g>
</svg>
