<?xml version="1.0" encoding="UTF-8" standalone="no"?>
<!DOCTYPE svg PUBLIC "-//W3C//DTD SVG 1.1//EN"
 "http://www.w3.org/Graphics/SVG/1.1/DTD/svg11.dtd">
<!-- Generated by graphviz version 8.1.0 (20230707.0739)
 -->
<!-- Title: src/MainWindow.cpp Pages: 1 -->
<svg width="1107pt" height="428pt"
 viewBox="0.00 0.00 1107.24 428.00" xmlns="http://www.w3.org/2000/svg" xmlns:xlink="http://www.w3.org/1999/xlink">
<g id="graph0" class="graph" transform="scale(1 1) rotate(0) translate(4 424)">
<title>src/MainWindow.cpp</title>
<!-- Node1 -->
<g id="node1" class="node">
<title>Node1</title>
<g id="a_node1"><a xlink:title=" ">
<polygon fill="#bfbfbf" stroke="black" points="654.87,-399.5 654.87,-419.5 761.62,-419.5 761.62,-399.5 654.87,-399.5"/>
<text text-anchor="middle" x="708.24" y="-406" font-family="Helvetica,sans-Serif" font-size="10.00">src/MainWindow.cpp</text>
</a>
</g>
</g>
<!-- Node2 -->
<g id="node2" class="node">
<title>Node2</title>
<g id="a_node2"><a xlink:href="_main_window_8h.html" target="_top" xlink:title=" ">
<polygon fill="none" stroke="black" points="692.37,-285.5 692.37,-305.5 772.12,-305.5 772.12,-285.5 692.37,-285.5"/>
<text text-anchor="middle" x="732.24" y="-292" font-family="Helvetica,sans-Serif" font-size="10.00">MainWindow.h</text>
</a>
</g>
</g>
<!-- Node1&#45;&gt;Node2 -->
<g id="edge1" class="edge">
<title>Node1&#45;&gt;Node2</title>
<path fill="none" stroke="midnightblue" d="M710.12,-399.71C713.98,-381.72 722.85,-340.32 728.11,-315.77"/>
<polygon fill="midnightblue" stroke="midnightblue" points="731.69,-316.76 730.37,-306.25 724.85,-315.29 731.69,-316.76"/>
</g>
<!-- Node5 -->
<g id="node5" class="node">
<title>Node5</title>
<g id="a_node5"><a xlink:href="_graphics_8h.html" target="_top" xlink:title=" ">
<polygon fill="none" stroke="black" points="446.62,-228.5 446.62,-248.5 509.87,-248.5 509.87,-228.5 446.62,-228.5"/>
<text text-anchor="middle" x="478.24" y="-235" font-family="Helvetica,sans-Serif" font-size="10.00">Graphics.h</text>
</a>
</g>
</g>
<!-- Node1&#45;&gt;Node5 -->
<g id="edge68" class="edge">
<title>Node1&#45;&gt;Node5</title>
<path fill="none" stroke="midnightblue" d="M683.57,-399.55C645.54,-384.79 571.92,-352.32 523.24,-306 508.29,-291.77 495.58,-271.76 487.52,-257.41"/>
<polygon fill="midnightblue" stroke="midnightblue" points="490.34,-256.26 482.51,-249.13 484.18,-259.59 490.34,-256.26"/>
</g>
<!-- Node35 -->
<g id="node35" class="node">
<title>Node35</title>
<g id="a_node35"><a xlink:href="_engine_8h.html" target="_top" xlink:title=" ">
<polygon fill="none" stroke="black" points="626.12,-342.5 626.12,-362.5 680.37,-362.5 680.37,-342.5 626.12,-342.5"/>
<text text-anchor="middle" x="653.24" y="-349" font-family="Helvetica,sans-Serif" font-size="10.00">Engine.h</text>
</a>
</g>
</g>
<!-- Node1&#45;&gt;Node35 -->
<g id="edge57" class="edge">
<title>Node1&#45;&gt;Node35</title>
<path fill="none" stroke="midnightblue" d="M699.65,-399.91C691.62,-391.88 679.43,-379.69 669.56,-369.82"/>
<polygon fill="midnightblue" stroke="midnightblue" points="672.5,-367.81 662.96,-363.21 667.55,-372.76 672.5,-367.81"/>
</g>
<!-- Node40 -->
<g id="node40" class="node">
<title>Node40</title>
<g id="a_node40"><a xlink:href="_resource_8h.html" target="_top" xlink:title=" ">
<polygon fill="none" stroke="black" points="736.49,-342.5 736.49,-362.5 801.99,-362.5 801.99,-342.5 736.49,-342.5"/>
<text text-anchor="middle" x="769.24" y="-349" font-family="Helvetica,sans-Serif" font-size="10.00">Resource.h</text>
</a>
</g>
</g>
<!-- Node1&#45;&gt;Node40 -->
<g id="edge69" class="edge">
<title>Node1&#45;&gt;Node40</title>
<path fill="none" stroke="midnightblue" d="M718.04,-399.66C726.97,-391.61 740.38,-379.52 751.24,-369.73"/>
<polygon fill="midnightblue" stroke="midnightblue" points="753.18,-372.79 758.26,-363.5 748.49,-367.59 753.18,-372.79"/>
</g>
<!-- Node41 -->
<g id="node41" class="node">
<title>Node41</title>
<g id="a_node41"><a xlink:title=" ">
<polygon fill="none" stroke="#bfbfbf" points="820.12,-342.5 820.12,-362.5 868.37,-362.5 868.37,-342.5 820.12,-342.5"/>
<text text-anchor="middle" x="844.24" y="-349" font-family="Helvetica,sans-Serif" font-size="10.00">cassert</text>
</a>
</g>
</g>
<!-- Node1&#45;&gt;Node41 -->
<g id="edge70" class="edge">
<title>Node1&#45;&gt;Node41</title>
<path fill="none" stroke="midnightblue" d="M730.39,-399.54C752.52,-390.59 786.78,-376.74 811.93,-366.57"/>
<polygon fill="midnightblue" stroke="midnightblue" points="813.14,-369.45 821.1,-362.46 810.51,-362.96 813.14,-369.45"/>
</g>
<!-- Node3 -->
<g id="node3" class="node">
<title>Node3</title>
<g id="a_node3"><a xlink:href="_engine_exception_8h.html" target="_top" xlink:title=" ">
<polygon fill="none" stroke="black" points="758.37,-114.5 758.37,-134.5 856.12,-134.5 856.12,-114.5 758.37,-114.5"/>
<text text-anchor="middle" x="807.24" y="-121" font-family="Helvetica,sans-Serif" font-size="10.00">EngineException.h</text>
</a>
</g>
</g>
<!-- Node2&#45;&gt;Node3 -->
<g id="edge2" class="edge">
<title>Node2&#45;&gt;Node3</title>
<path fill="none" stroke="midnightblue" d="M748.77,-285.52C774.85,-270.28 824.59,-236.63 844.24,-192 852.09,-174.18 838.63,-154.83 825.8,-141.62"/>
<polygon fill="midnightblue" stroke="midnightblue" points="828.74,-139.64 819.09,-135.26 823.91,-144.7 828.74,-139.64"/>
</g>
<!-- Node4 -->
<g id="node4" class="node">
<title>Node4</title>
<g id="a_node4"><a xlink:title=" ">
<polygon fill="none" stroke="#bfbfbf" points="826.24,-57.5 826.24,-77.5 866.24,-77.5 866.24,-57.5 826.24,-57.5"/>
<text text-anchor="middle" x="846.24" y="-64" font-family="Helvetica,sans-Serif" font-size="10.00">string</text>
</a>
</g>
</g>
<!-- Node2&#45;&gt;Node4 -->
<g id="edge56" class="edge">
<title>Node2&#45;&gt;Node4</title>
<path fill="none" stroke="midnightblue" d="M765.14,-285.55C822.08,-267.95 936.47,-222.68 973.24,-135 990.69,-93.39 919.73,-77.36 876.83,-71.55"/>
<polygon fill="midnightblue" stroke="midnightblue" points="877.44,-67.98 867.08,-70.23 876.58,-74.93 877.44,-67.98"/>
</g>
<!-- Node2&#45;&gt;Node5 -->
<g id="edge4" class="edge">
<title>Node2&#45;&gt;Node5</title>
<path fill="none" stroke="midnightblue" d="M692.55,-286.23C651.91,-277.72 586.64,-263.93 520.23,-249.19"/>
<polygon fill="midnightblue" stroke="midnightblue" points="521.09,-245.57 510.57,-246.82 519.57,-252.41 521.09,-245.57"/>
</g>
<!-- Node8 -->
<g id="node8" class="node">
<title>Node8</title>
<g id="a_node8"><a xlink:href="_win_8h.html" target="_top" xlink:title=" ">
<polygon fill="none" stroke="black" points="513.49,-114.5 513.49,-134.5 554.99,-134.5 554.99,-114.5 513.49,-114.5"/>
<text text-anchor="middle" x="534.24" y="-121" font-family="Helvetica,sans-Serif" font-size="10.00">Win.h</text>
</a>
</g>
</g>
<!-- Node2&#45;&gt;Node8 -->
<g id="edge55" class="edge">
<title>Node2&#45;&gt;Node8</title>
<path fill="none" stroke="midnightblue" d="M721.87,-285.65C690.06,-258.5 593.54,-176.11 552.75,-141.3"/>
<polygon fill="midnightblue" stroke="midnightblue" points="555.38,-138.09 545.5,-134.26 550.84,-143.41 555.38,-138.09"/>
</g>
<!-- Node31 -->
<g id="node31" class="node">
<title>Node31</title>
<g id="a_node31"><a xlink:href="_keyboard_8h.html" target="_top" xlink:title=" ">
<polygon fill="none" stroke="black" points="702.49,-228.5 702.49,-248.5 767.99,-248.5 767.99,-228.5 702.49,-228.5"/>
<text text-anchor="middle" x="735.24" y="-235" font-family="Helvetica,sans-Serif" font-size="10.00">Keyboard.h</text>
</a>
</g>
</g>
<!-- Node2&#45;&gt;Node31 -->
<g id="edge49" class="edge">
<title>Node2&#45;&gt;Node31</title>
<path fill="none" stroke="midnightblue" d="M732.71,-285.91C733.1,-278.76 733.67,-268.32 734.17,-259.15"/>
<polygon fill="midnightblue" stroke="midnightblue" points="737.72,-259.39 734.77,-249.21 730.73,-259.01 737.72,-259.39"/>
</g>
<!-- Node34 -->
<g id="node34" class="node">
<title>Node34</title>
<g id="a_node34"><a xlink:href="_mouse_8h.html" target="_top" xlink:title=" ">
<polygon fill="none" stroke="black" points="528.49,-228.5 528.49,-248.5 581.99,-248.5 581.99,-228.5 528.49,-228.5"/>
<text text-anchor="middle" x="555.24" y="-235" font-family="Helvetica,sans-Serif" font-size="10.00">Mouse.h</text>
</a>
</g>
</g>
<!-- Node2&#45;&gt;Node34 -->
<g id="edge52" class="edge">
<title>Node2&#45;&gt;Node34</title>
<path fill="none" stroke="midnightblue" d="M703.41,-285.54C673,-276.09 625,-261.18 591.92,-250.9"/>
<polygon fill="midnightblue" stroke="midnightblue" points="593.33,-247.36 582.75,-247.74 591.26,-254.05 593.33,-247.36"/>
</g>
<!-- Node3&#45;&gt;Node4 -->
<g id="edge3" class="edge">
<title>Node3&#45;&gt;Node4</title>
<path fill="none" stroke="midnightblue" d="M813.33,-114.91C818.8,-107.2 826.98,-95.66 833.82,-86.02"/>
<polygon fill="midnightblue" stroke="midnightblue" points="837.13,-88.4 840.06,-78.21 831.42,-84.35 837.13,-88.4"/>
</g>
<!-- Node5&#45;&gt;Node3 -->
<g id="edge5" class="edge">
<title>Node5&#45;&gt;Node3</title>
<path fill="none" stroke="midnightblue" d="M509.57,-230.18C512.83,-229.44 516.1,-228.7 519.24,-228 594.21,-211.33 616.36,-219.03 688.24,-192 689.48,-191.53 747.36,-159.1 781.93,-139.71"/>
<polygon fill="midnightblue" stroke="midnightblue" points="783.4,-142.33 790.41,-134.39 779.98,-136.23 783.4,-142.33"/>
</g>
<!-- Node6 -->
<g id="node6" class="node">
<title>Node6</title>
<g id="a_node6"><a xlink:href="_colors_8h.html" target="_top" xlink:title=" ">
<polygon fill="none" stroke="black" points="401.24,-114.5 401.24,-134.5 453.24,-134.5 453.24,-114.5 401.24,-114.5"/>
<text text-anchor="middle" x="427.24" y="-121" font-family="Helvetica,sans-Serif" font-size="10.00">Colors.h</text>
</a>
</g>
</g>
<!-- Node5&#45;&gt;Node6 -->
<g id="edge6" class="edge">
<title>Node5&#45;&gt;Node6</title>
<path fill="none" stroke="midnightblue" d="M459.28,-228.51C445.65,-220.9 428.3,-208.57 420.24,-192 413.02,-177.16 415.98,-158.29 420.04,-144.44"/>
<polygon fill="midnightblue" stroke="midnightblue" points="423.62,-145.79 423.51,-135.19 416.99,-143.54 423.62,-145.79"/>
</g>
<!-- Node7 -->
<g id="node7" class="node">
<title>Node7</title>
<g id="a_node7"><a xlink:href="_g_d_i_plus_manager_8h.html" target="_top" xlink:title=" ">
<polygon fill="none" stroke="black" points="429.37,-171.5 429.37,-191.5 527.12,-191.5 527.12,-171.5 429.37,-171.5"/>
<text text-anchor="middle" x="478.24" y="-178" font-family="Helvetica,sans-Serif" font-size="10.00">GDIPlusManager.h</text>
</a>
</g>
</g>
<!-- Node5&#45;&gt;Node7 -->
<g id="edge7" class="edge">
<title>Node5&#45;&gt;Node7</title>
<path fill="none" stroke="midnightblue" d="M478.24,-228.91C478.24,-221.76 478.24,-211.32 478.24,-202.15"/>
<polygon fill="midnightblue" stroke="midnightblue" points="481.74,-202.21 478.24,-192.21 474.74,-202.21 481.74,-202.21"/>
</g>
<!-- Node11 -->
<g id="node11" class="node">
<title>Node11</title>
<g id="a_node11"><a xlink:href="_vector2_8h.html" target="_top" xlink:title=" ">
<polygon fill="none" stroke="black" points="188.12,-114.5 188.12,-134.5 308.37,-134.5 308.37,-114.5 188.12,-114.5"/>
<text text-anchor="middle" x="248.24" y="-121" font-family="Helvetica,sans-Serif" font-size="10.00">LinearAlgebra/Vector2.h</text>
</a>
</g>
</g>
<!-- Node5&#45;&gt;Node11 -->
<g id="edge11" class="edge">
<title>Node5&#45;&gt;Node11</title>
<path fill="none" stroke="midnightblue" d="M446.92,-235.2C392.97,-230.57 285.79,-218.25 260.24,-192 248.23,-179.66 246.05,-159.61 246.37,-144.75"/>
<polygon fill="midnightblue" stroke="midnightblue" points="249.9,-145.39 247.03,-135.19 242.91,-144.95 249.9,-145.39"/>
</g>
<!-- Node23 -->
<g id="node23" class="node">
<title>Node23</title>
<g id="a_node23"><a xlink:href="_vector3_8h.html" target="_top" xlink:title=" ">
<polygon fill="none" stroke="black" points="50.12,-114.5 50.12,-134.5 170.37,-134.5 170.37,-114.5 50.12,-114.5"/>
<text text-anchor="middle" x="110.24" y="-121" font-family="Helvetica,sans-Serif" font-size="10.00">LinearAlgebra/Vector3.h</text>
</a>
</g>
</g>
<!-- Node5&#45;&gt;Node23 -->
<g id="edge29" class="edge">
<title>Node5&#45;&gt;Node23</title>
<path fill="none" stroke="midnightblue" d="M446.76,-237.29C371.56,-236.16 184.14,-229.57 136.24,-192 121.77,-180.65 115.34,-160.12 112.49,-144.87"/>
<polygon fill="midnightblue" stroke="midnightblue" points="115.82,-144.42 110.89,-135.04 108.89,-145.44 115.82,-144.42"/>
</g>
<!-- Node24 -->
<g id="node24" class="node">
<title>Node24</title>
<g id="a_node24"><a xlink:href="_surface_8h.html" target="_top" xlink:title=" ">
<polygon fill="none" stroke="black" points="621.62,-171.5 621.62,-191.5 678.87,-191.5 678.87,-171.5 621.62,-171.5"/>
<text text-anchor="middle" x="650.24" y="-178" font-family="Helvetica,sans-Serif" font-size="10.00">Surface.h</text>
</a>
</g>
</g>
<!-- Node5&#45;&gt;Node24 -->
<g id="edge36" class="edge">
<title>Node5&#45;&gt;Node24</title>
<path fill="none" stroke="midnightblue" d="M506.26,-228.54C534.99,-219.35 579.9,-204.99 611.91,-194.76"/>
<polygon fill="midnightblue" stroke="midnightblue" points="612.78,-197.83 621.24,-191.46 610.64,-191.17 612.78,-197.83"/>
</g>
<!-- Node28 -->
<g id="node28" class="node">
<title>Node28</title>
<g id="a_node28"><a xlink:href="_tex_vertex_8h.html" target="_top" xlink:title=" ">
<polygon fill="none" stroke="black" points="144.99,-171.5 144.99,-191.5 213.49,-191.5 213.49,-171.5 144.99,-171.5"/>
<text text-anchor="middle" x="179.24" y="-178" font-family="Helvetica,sans-Serif" font-size="10.00">TexVertex.h</text>
</a>
</g>
</g>
<!-- Node5&#45;&gt;Node28 -->
<g id="edge44" class="edge">
<title>Node5&#45;&gt;Node28</title>
<path fill="none" stroke="midnightblue" d="M446.91,-231.99C399.37,-223.59 306.21,-206.97 227.24,-192 226.11,-191.79 224.97,-191.57 223.82,-191.35"/>
<polygon fill="midnightblue" stroke="midnightblue" points="224.8,-187.78 214.32,-189.31 223.47,-194.65 224.8,-187.78"/>
</g>
<!-- Node29 -->
<g id="node29" class="node">
<title>Node29</title>
<g id="a_node29"><a xlink:title=" ">
<polygon fill="none" stroke="#bfbfbf" points="322.99,-171.5 322.99,-191.5 373.49,-191.5 373.49,-171.5 322.99,-171.5"/>
<text text-anchor="middle" x="348.24" y="-178" font-family="Helvetica,sans-Serif" font-size="10.00">d3d11.h</text>
</a>
</g>
</g>
<!-- Node5&#45;&gt;Node29 -->
<g id="edge47" class="edge">
<title>Node5&#45;&gt;Node29</title>
<path fill="none" stroke="midnightblue" d="M457.06,-228.54C436.01,-219.63 403.46,-205.86 379.45,-195.7"/>
<polygon fill="midnightblue" stroke="midnightblue" points="380.98,-192.13 370.41,-191.46 378.25,-198.58 380.98,-192.13"/>
</g>
<!-- Node30 -->
<g id="node30" class="node">
<title>Node30</title>
<g id="a_node30"><a xlink:title=" ">
<polygon fill="none" stroke="#bfbfbf" points="269.12,-171.5 269.12,-191.5 305.37,-191.5 305.37,-171.5 269.12,-171.5"/>
<text text-anchor="middle" x="287.24" y="-178" font-family="Helvetica,sans-Serif" font-size="10.00">wrl.h</text>
</a>
</g>
</g>
<!-- Node5&#45;&gt;Node30 -->
<g id="edge48" class="edge">
<title>Node5&#45;&gt;Node30</title>
<path fill="none" stroke="midnightblue" d="M446.92,-229.49C415.85,-221.39 366.68,-208.18 315.46,-192.23"/>
<polygon fill="midnightblue" stroke="midnightblue" points="316.78,-188.66 306.19,-189.01 314.68,-195.34 316.78,-188.66"/>
</g>
<!-- Node7&#45;&gt;Node8 -->
<g id="edge8" class="edge">
<title>Node7&#45;&gt;Node8</title>
<path fill="none" stroke="midnightblue" d="M487.24,-171.66C495.35,-163.69 507.5,-151.76 517.42,-142.02"/>
<polygon fill="midnightblue" stroke="midnightblue" points="519.4,-145 524.08,-135.5 514.49,-140.01 519.4,-145"/>
</g>
<!-- Node9 -->
<g id="node9" class="node">
<title>Node9</title>
<g id="a_node9"><a xlink:title=" ">
<polygon fill="none" stroke="#bfbfbf" points="500.37,-57.5 500.37,-77.5 568.12,-77.5 568.12,-57.5 500.37,-57.5"/>
<text text-anchor="middle" x="534.24" y="-64" font-family="Helvetica,sans-Serif" font-size="10.00">sdkddkver.h</text>
</a>
</g>
</g>
<!-- Node8&#45;&gt;Node9 -->
<g id="edge9" class="edge">
<title>Node8&#45;&gt;Node9</title>
<path fill="none" stroke="midnightblue" d="M534.24,-114.91C534.24,-107.76 534.24,-97.32 534.24,-88.15"/>
<polygon fill="midnightblue" stroke="midnightblue" points="537.74,-88.21 534.24,-78.21 530.74,-88.21 537.74,-88.21"/>
</g>
<!-- Node10 -->
<g id="node10" class="node">
<title>Node10</title>
<g id="a_node10"><a xlink:title=" ">
<polygon fill="none" stroke="#bfbfbf" points="586.24,-57.5 586.24,-77.5 650.24,-77.5 650.24,-57.5 586.24,-57.5"/>
<text text-anchor="middle" x="618.24" y="-64" font-family="Helvetica,sans-Serif" font-size="10.00">Windows.h</text>
</a>
</g>
</g>
<!-- Node8&#45;&gt;Node10 -->
<g id="edge10" class="edge">
<title>Node8&#45;&gt;Node10</title>
<path fill="none" stroke="midnightblue" d="M547.74,-114.66C560.64,-106.21 580.34,-93.31 595.64,-83.3"/>
<polygon fill="midnightblue" stroke="midnightblue" points="597.05,-85.9 603.5,-77.5 593.22,-80.05 597.05,-85.9"/>
</g>
<!-- Node12 -->
<g id="node12" class="node">
<title>Node12</title>
<g id="a_node12"><a xlink:title=" ">
<polygon fill="none" stroke="#bfbfbf" points="67.37,-0.5 67.37,-20.5 105.12,-20.5 105.12,-0.5 67.37,-0.5"/>
<text text-anchor="middle" x="86.24" y="-7" font-family="Helvetica,sans-Serif" font-size="10.00">array</text>
</a>
</g>
</g>
<!-- Node11&#45;&gt;Node12 -->
<g id="edge12" class="edge">
<title>Node11&#45;&gt;Node12</title>
<path fill="none" stroke="midnightblue" d="M230.33,-114.6C213.55,-105.99 188.01,-92.2 167.24,-78 144.17,-62.23 119.64,-41.45 103.69,-27.35"/>
<polygon fill="midnightblue" stroke="midnightblue" points="106.57,-25.33 96.78,-21.27 101.9,-30.55 106.57,-25.33"/>
</g>
<!-- Node13 -->
<g id="node13" class="node">
<title>Node13</title>
<g id="a_node13"><a xlink:title=" ">
<polygon fill="none" stroke="#bfbfbf" points="46.49,-57.5 46.49,-77.5 99.99,-77.5 99.99,-57.5 46.49,-57.5"/>
<text text-anchor="middle" x="73.24" y="-64" font-family="Helvetica,sans-Serif" font-size="10.00">compare</text>
</a>
</g>
</g>
<!-- Node11&#45;&gt;Node13 -->
<g id="edge13" class="edge">
<title>Node11&#45;&gt;Node13</title>
<path fill="none" stroke="midnightblue" d="M219.73,-114.54C189.89,-105.16 142.9,-90.39 110.22,-80.12"/>
<polygon fill="midnightblue" stroke="midnightblue" points="111.32,-76.48 100.73,-76.82 109.22,-83.16 111.32,-76.48"/>
</g>
<!-- Node14 -->
<g id="node14" class="node">
<title>Node14</title>
<g id="a_node14"><a xlink:title=" ">
<polygon fill="none" stroke="#bfbfbf" points="123.49,-0.5 123.49,-20.5 170.99,-20.5 170.99,-0.5 123.49,-0.5"/>
<text text-anchor="middle" x="147.24" y="-7" font-family="Helvetica,sans-Serif" font-size="10.00">cstddef</text>
</a>
</g>
</g>
<!-- Node11&#45;&gt;Node14 -->
<g id="edge14" class="edge">
<title>Node11&#45;&gt;Node14</title>
<path fill="none" stroke="midnightblue" d="M232.28,-114.62C218.59,-106.43 198.95,-93.25 185.24,-78 172.35,-63.66 161.87,-44.22 155.2,-30.07"/>
<polygon fill="midnightblue" stroke="midnightblue" points="158.17,-29.13 150.88,-21.45 151.79,-32 158.17,-29.13"/>
</g>
<!-- Node15 -->
<g id="node15" class="node">
<title>Node15</title>
<g id="a_node15"><a xlink:title=" ">
<polygon fill="none" stroke="#bfbfbf" points="445.49,-0.5 445.49,-20.5 498.99,-20.5 498.99,-0.5 445.49,-0.5"/>
<text text-anchor="middle" x="472.24" y="-7" font-family="Helvetica,sans-Serif" font-size="10.00">iostream</text>
</a>
</g>
</g>
<!-- Node11&#45;&gt;Node15 -->
<g id="edge15" class="edge">
<title>Node11&#45;&gt;Node15</title>
<path fill="none" stroke="midnightblue" d="M308.17,-117.02C360.94,-110.13 432.54,-97.5 453.24,-78 466.07,-65.92 470.43,-45.83 471.82,-30.89"/>
<polygon fill="midnightblue" stroke="midnightblue" points="475.35,-31.44 472.4,-21.26 468.36,-31.06 475.35,-31.44"/>
</g>
<!-- Node16 -->
<g id="node16" class="node">
<title>Node16</title>
<g id="a_node16"><a xlink:href="_math_8h.html" target="_top" xlink:title=" ">
<polygon fill="none" stroke="black" points="268.24,-57.5 268.24,-77.5 314.24,-77.5 314.24,-57.5 268.24,-57.5"/>
<text text-anchor="middle" x="291.24" y="-64" font-family="Helvetica,sans-Serif" font-size="10.00">Math.h</text>
</a>
</g>
</g>
<!-- Node11&#45;&gt;Node16 -->
<g id="edge16" class="edge">
<title>Node11&#45;&gt;Node16</title>
<path fill="none" stroke="midnightblue" d="M254.96,-114.91C261.05,-107.12 270.19,-95.42 277.78,-85.71"/>
<polygon fill="midnightblue" stroke="midnightblue" points="281.03,-88.25 284.43,-78.21 275.51,-83.94 281.03,-88.25"/>
</g>
<!-- Node21 -->
<g id="node21" class="node">
<title>Node21</title>
<g id="a_node21"><a xlink:href="_matrix2_8h.html" target="_top" xlink:title=" ">
<polygon fill="none" stroke="black" points="387.99,-57.5 387.99,-77.5 444.49,-77.5 444.49,-57.5 387.99,-57.5"/>
<text text-anchor="middle" x="416.24" y="-64" font-family="Helvetica,sans-Serif" font-size="10.00">Matrix2.h</text>
</a>
</g>
</g>
<!-- Node11&#45;&gt;Node21 -->
<g id="edge22" class="edge">
<title>Node11&#45;&gt;Node21</title>
<path fill="none" stroke="midnightblue" d="M275.61,-114.54C303.67,-105.35 347.53,-90.99 378.8,-80.76"/>
<polygon fill="midnightblue" stroke="midnightblue" points="379.47,-83.89 387.89,-77.46 377.29,-77.24 379.47,-83.89"/>
</g>
<!-- Node22 -->
<g id="node22" class="node">
<title>Node22</title>
<g id="a_node22"><a xlink:href="_matrix3_8h.html" target="_top" xlink:title=" ">
<polygon fill="none" stroke="black" points="193.99,-57.5 193.99,-77.5 250.49,-77.5 250.49,-57.5 193.99,-57.5"/>
<text text-anchor="middle" x="222.24" y="-64" font-family="Helvetica,sans-Serif" font-size="10.00">Matrix3.h</text>
</a>
</g>
</g>
<!-- Node11&#45;&gt;Node22 -->
<g id="edge24" class="edge">
<title>Node11&#45;&gt;Node22</title>
<path fill="none" stroke="midnightblue" d="M244.18,-114.91C240.65,-107.44 235.42,-96.38 230.95,-86.93"/>
<polygon fill="midnightblue" stroke="midnightblue" points="233.8,-85.76 226.36,-78.21 227.47,-88.75 233.8,-85.76"/>
</g>
<!-- Node16&#45;&gt;Node16 -->
<g id="edge17" class="edge">
<title>Node16&#45;&gt;Node16</title>
<path fill="none" stroke="midnightblue" d="M309.79,-77.43C321.3,-79.83 332.24,-76.52 332.24,-67.5 332.24,-61.44 327.3,-57.96 320.57,-57.05"/>
<polygon fill="midnightblue" stroke="midnightblue" points="320.62,-53.59 310.79,-57.57 320.95,-60.59 320.62,-53.59"/>
</g>
<!-- Node17 -->
<g id="node17" class="node">
<title>Node17</title>
<g id="a_node17"><a xlink:title=" ">
<polygon fill="none" stroke="#bfbfbf" points="188.74,-0.5 188.74,-20.5 231.74,-20.5 231.74,-0.5 188.74,-0.5"/>
<text text-anchor="middle" x="210.24" y="-7" font-family="Helvetica,sans-Serif" font-size="10.00">cmath</text>
</a>
</g>
</g>
<!-- Node16&#45;&gt;Node17 -->
<g id="edge18" class="edge">
<title>Node16&#45;&gt;Node17</title>
<path fill="none" stroke="midnightblue" d="M278.23,-57.66C265.9,-49.29 247.14,-36.56 232.45,-26.58"/>
<polygon fill="midnightblue" stroke="midnightblue" points="234.73,-23.22 224.49,-20.5 230.8,-29.01 234.73,-23.22"/>
</g>
<!-- Node18 -->
<g id="node18" class="node">
<title>Node18</title>
<g id="a_node18"><a xlink:title=" ">
<polygon fill="none" stroke="#bfbfbf" points="316.62,-0.5 316.62,-20.5 355.87,-20.5 355.87,-0.5 316.62,-0.5"/>
<text text-anchor="middle" x="336.24" y="-7" font-family="Helvetica,sans-Serif" font-size="10.00">limits</text>
</a>
</g>
</g>
<!-- Node16&#45;&gt;Node18 -->
<g id="edge19" class="edge">
<title>Node16&#45;&gt;Node18</title>
<path fill="none" stroke="midnightblue" d="M298.27,-57.91C304.64,-50.12 314.22,-38.42 322.16,-28.71"/>
<polygon fill="midnightblue" stroke="midnightblue" points="325.49,-31.17 329.11,-21.21 320.07,-26.74 325.49,-31.17"/>
</g>
<!-- Node19 -->
<g id="node19" class="node">
<title>Node19</title>
<g id="a_node19"><a xlink:title=" ">
<polygon fill="none" stroke="#bfbfbf" points="373.49,-0.5 373.49,-20.5 426.99,-20.5 426.99,-0.5 373.49,-0.5"/>
<text text-anchor="middle" x="400.24" y="-7" font-family="Helvetica,sans-Serif" font-size="10.00">numbers</text>
</a>
</g>
</g>
<!-- Node16&#45;&gt;Node19 -->
<g id="edge20" class="edge">
<title>Node16&#45;&gt;Node19</title>
<path fill="none" stroke="midnightblue" d="M308.75,-57.66C326.05,-48.94 352.76,-35.46 372.86,-25.31"/>
<polygon fill="midnightblue" stroke="midnightblue" points="374.06,-28.13 381.41,-20.5 370.9,-21.88 374.06,-28.13"/>
</g>
<!-- Node20 -->
<g id="node20" class="node">
<title>Node20</title>
<g id="a_node20"><a xlink:title=" ">
<polygon fill="none" stroke="#bfbfbf" points="250.12,-0.5 250.12,-20.5 298.37,-20.5 298.37,-0.5 250.12,-0.5"/>
<text text-anchor="middle" x="274.24" y="-7" font-family="Helvetica,sans-Serif" font-size="10.00">random</text>
</a>
</g>
</g>
<!-- Node16&#45;&gt;Node20 -->
<g id="edge21" class="edge">
<title>Node16&#45;&gt;Node20</title>
<path fill="none" stroke="midnightblue" d="M288.58,-57.91C286.33,-50.6 283,-39.85 280.13,-30.54"/>
<polygon fill="midnightblue" stroke="midnightblue" points="283.23,-29.74 276.93,-21.21 276.54,-31.8 283.23,-29.74"/>
</g>
<!-- Node21&#45;&gt;Node15 -->
<g id="edge23" class="edge">
<title>Node21&#45;&gt;Node15</title>
<path fill="none" stroke="midnightblue" d="M425.24,-57.66C433.35,-49.69 445.5,-37.76 455.42,-28.02"/>
<polygon fill="midnightblue" stroke="midnightblue" points="457.4,-31 462.08,-21.5 452.49,-26.01 457.4,-31"/>
</g>
<!-- Node22&#45;&gt;Node12 -->
<g id="edge25" class="edge">
<title>Node22&#45;&gt;Node12</title>
<path fill="none" stroke="midnightblue" d="M200.09,-57.54C176.9,-48.17 140.42,-33.41 115.02,-23.14"/>
<polygon fill="midnightblue" stroke="midnightblue" points="116.47,-19.54 105.88,-19.04 113.84,-26.03 116.47,-19.54"/>
</g>
<!-- Node22&#45;&gt;Node14 -->
<g id="edge27" class="edge">
<title>Node22&#45;&gt;Node14</title>
<path fill="none" stroke="midnightblue" d="M210.19,-57.66C198.89,-49.37 181.74,-36.8 168.2,-26.87"/>
<polygon fill="midnightblue" stroke="midnightblue" points="170.64,-23.59 160.51,-20.5 166.5,-29.23 170.64,-23.59"/>
</g>
<!-- Node22&#45;&gt;Node15 -->
<g id="edge28" class="edge">
<title>Node22&#45;&gt;Node15</title>
<path fill="none" stroke="midnightblue" d="M250.49,-59.09C253.44,-58.36 256.4,-57.65 259.24,-57 334.27,-39.75 356.28,-39.26 435.11,-21.15"/>
<polygon fill="midnightblue" stroke="midnightblue" points="435.6,-24.4 444.55,-18.73 434.01,-17.58 435.6,-24.4"/>
</g>
<!-- Node22&#45;&gt;Node17 -->
<g id="edge26" class="edge">
<title>Node22&#45;&gt;Node17</title>
<path fill="none" stroke="midnightblue" d="M220.37,-57.91C218.79,-50.68 216.48,-40.09 214.46,-30.85"/>
<polygon fill="midnightblue" stroke="midnightblue" points="217.69,-30.24 212.14,-21.21 210.85,-31.73 217.69,-30.24"/>
</g>
<!-- Node23&#45;&gt;Node12 -->
<g id="edge30" class="edge">
<title>Node23&#45;&gt;Node12</title>
<path fill="none" stroke="midnightblue" d="M59.9,-114.54C39,-108.07 16.75,-96.98 4.24,-78 -12.63,-52.4 27.56,-31.86 57.44,-20.7"/>
<polygon fill="midnightblue" stroke="midnightblue" points="58.21,-23.79 66.47,-17.15 55.88,-17.19 58.21,-23.79"/>
</g>
<!-- Node23&#45;&gt;Node13 -->
<g id="edge32" class="edge">
<title>Node23&#45;&gt;Node13</title>
<path fill="none" stroke="midnightblue" d="M104.46,-114.91C99.33,-107.28 91.67,-95.9 85.23,-86.32"/>
<polygon fill="midnightblue" stroke="midnightblue" points="87.59,-84.56 79.1,-78.21 81.78,-88.47 87.59,-84.56"/>
</g>
<!-- Node23&#45;&gt;Node14 -->
<g id="edge33" class="edge">
<title>Node23&#45;&gt;Node14</title>
<path fill="none" stroke="midnightblue" d="M86.53,-114.64C59.44,-103.11 20.85,-81.51 37.24,-57 41.79,-50.2 82.79,-34.41 113.41,-23.35"/>
<polygon fill="midnightblue" stroke="midnightblue" points="114.5,-26.32 122.73,-19.65 112.14,-19.73 114.5,-26.32"/>
</g>
<!-- Node23&#45;&gt;Node15 -->
<g id="edge31" class="edge">
<title>Node23&#45;&gt;Node15</title>
<path fill="none" stroke="midnightblue" d="M166.1,-114.54C223.81,-104.93 309.75,-89.48 341.24,-78 359.37,-71.39 362.12,-65.91 379.24,-57 400.53,-45.92 424.92,-34.02 443.37,-25.17"/>
<polygon fill="midnightblue" stroke="midnightblue" points="444.71,-27.93 452.22,-20.46 441.69,-21.61 444.71,-27.93"/>
</g>
<!-- Node23&#45;&gt;Node16 -->
<g id="edge34" class="edge">
<title>Node23&#45;&gt;Node16</title>
<path fill="none" stroke="midnightblue" d="M139.72,-114.54C172.17,-104.68 224.22,-88.87 258.07,-78.58"/>
<polygon fill="midnightblue" stroke="midnightblue" points="258.82,-81.71 267.37,-75.45 256.79,-75.01 258.82,-81.71"/>
</g>
<!-- Node23&#45;&gt;Node22 -->
<g id="edge35" class="edge">
<title>Node23&#45;&gt;Node22</title>
<path fill="none" stroke="midnightblue" d="M128.24,-114.66C146.01,-105.94 173.45,-92.46 194.11,-82.31"/>
<polygon fill="midnightblue" stroke="midnightblue" points="195.49,-85.05 202.92,-77.5 192.4,-78.76 195.49,-85.05"/>
</g>
<!-- Node24&#45;&gt;Node3 -->
<g id="edge39" class="edge">
<title>Node24&#45;&gt;Node3</title>
<path fill="none" stroke="midnightblue" d="M675.82,-171.54C701.82,-162.43 742.32,-148.24 771.49,-138.02"/>
<polygon fill="midnightblue" stroke="midnightblue" points="772.4,-141.06 780.68,-134.46 770.08,-134.46 772.4,-141.06"/>
</g>
<!-- Node24&#45;&gt;Node4 -->
<g id="edge42" class="edge">
<title>Node24&#45;&gt;Node4</title>
<path fill="none" stroke="midnightblue" d="M662.05,-171.7C680.24,-158.34 716.45,-132.56 749.24,-114 771.2,-101.57 797.11,-89.54 816.63,-80.98"/>
<polygon fill="midnightblue" stroke="midnightblue" points="817.69,-83.9 825.48,-76.71 814.91,-77.48 817.69,-83.9"/>
</g>
<!-- Node24&#45;&gt;Node6 -->
<g id="edge37" class="edge">
<title>Node24&#45;&gt;Node6</title>
<path fill="none" stroke="midnightblue" d="M622,-173.53C581.81,-163.62 508.08,-145.44 463.78,-134.51"/>
<polygon fill="midnightblue" stroke="midnightblue" points="464.73,-130.89 454.18,-131.9 463.05,-137.69 464.73,-130.89"/>
</g>
<!-- Node24&#45;&gt;Node8 -->
<g id="edge38" class="edge">
<title>Node24&#45;&gt;Node8</title>
<path fill="none" stroke="midnightblue" d="M631.35,-171.54C612.81,-162.75 584.29,-149.23 562.95,-139.11"/>
<polygon fill="midnightblue" stroke="midnightblue" points="564.66,-135.58 554.13,-134.46 561.66,-141.9 564.66,-135.58"/>
</g>
<!-- Node25 -->
<g id="node25" class="node">
<title>Node25</title>
<g id="a_node25"><a xlink:title=" ">
<polygon fill="none" stroke="#bfbfbf" points="572.62,-114.5 572.62,-134.5 623.87,-134.5 623.87,-114.5 572.62,-114.5"/>
<text text-anchor="middle" x="598.24" y="-121" font-family="Helvetica,sans-Serif" font-size="10.00">assert.h</text>
</a>
</g>
</g>
<!-- Node24&#45;&gt;Node25 -->
<g id="edge40" class="edge">
<title>Node24&#45;&gt;Node25</title>
<path fill="none" stroke="midnightblue" d="M642.12,-171.91C634.6,-163.96 623.23,-151.94 613.95,-142.12"/>
<polygon fill="midnightblue" stroke="midnightblue" points="616.89,-140.08 607.48,-135.21 611.81,-144.89 616.89,-140.08"/>
</g>
<!-- Node26 -->
<g id="node26" class="node">
<title>Node26</title>
<g id="a_node26"><a xlink:title=" ">
<polygon fill="none" stroke="#bfbfbf" points="912.62,-114.5 912.62,-134.5 963.87,-134.5 963.87,-114.5 912.62,-114.5"/>
<text text-anchor="middle" x="938.24" y="-121" font-family="Helvetica,sans-Serif" font-size="10.00">memory</text>
</a>
</g>
</g>
<!-- Node24&#45;&gt;Node26 -->
<g id="edge41" class="edge">
<title>Node24&#45;&gt;Node26</title>
<path fill="none" stroke="midnightblue" d="M678.64,-175.08C731.44,-164.99 844.57,-143.39 902.48,-132.33"/>
<polygon fill="midnightblue" stroke="midnightblue" points="902.79,-135.64 911.96,-130.33 901.48,-128.77 902.79,-135.64"/>
</g>
<!-- Node27 -->
<g id="node27" class="node">
<title>Node27</title>
<g id="a_node27"><a xlink:title=" ">
<polygon fill="none" stroke="#bfbfbf" points="642.12,-114.5 642.12,-134.5 702.37,-134.5 702.37,-114.5 642.12,-114.5"/>
<text text-anchor="middle" x="672.24" y="-121" font-family="Helvetica,sans-Serif" font-size="10.00">filesystem</text>
</a>
</g>
</g>
<!-- Node24&#45;&gt;Node27 -->
<g id="edge43" class="edge">
<title>Node24&#45;&gt;Node27</title>
<path fill="none" stroke="midnightblue" d="M653.68,-171.91C656.63,-164.52 660.99,-153.62 664.75,-144.23"/>
<polygon fill="midnightblue" stroke="midnightblue" points="668.29,-145.8 668.75,-135.21 661.79,-143.2 668.29,-145.8"/>
</g>
<!-- Node28&#45;&gt;Node11 -->
<g id="edge45" class="edge">
<title>Node28&#45;&gt;Node11</title>
<path fill="none" stroke="midnightblue" d="M190.33,-171.66C200.63,-163.45 216.2,-151.04 228.6,-141.15"/>
<polygon fill="midnightblue" stroke="midnightblue" points="230.31,-143.47 235.95,-134.5 225.95,-137.99 230.31,-143.47"/>
</g>
<!-- Node28&#45;&gt;Node23 -->
<g id="edge46" class="edge">
<title>Node28&#45;&gt;Node23</title>
<path fill="none" stroke="midnightblue" d="M168.15,-171.66C157.85,-163.45 142.28,-151.04 129.88,-141.15"/>
<polygon fill="midnightblue" stroke="midnightblue" points="132.53,-137.99 122.53,-134.5 128.17,-143.47 132.53,-137.99"/>
</g>
<!-- Node32 -->
<g id="node32" class="node">
<title>Node32</title>
<g id="a_node32"><a xlink:title=" ">
<polygon fill="none" stroke="#bfbfbf" points="795.24,-171.5 795.24,-191.5 835.24,-191.5 835.24,-171.5 795.24,-171.5"/>
<text text-anchor="middle" x="815.24" y="-178" font-family="Helvetica,sans-Serif" font-size="10.00">bitset</text>
</a>
</g>
</g>
<!-- Node31&#45;&gt;Node32 -->
<g id="edge50" class="edge">
<title>Node31&#45;&gt;Node32</title>
<path fill="none" stroke="midnightblue" d="M748.09,-228.66C760.27,-220.29 778.79,-207.56 793.3,-197.58"/>
<polygon fill="midnightblue" stroke="midnightblue" points="794.9,-200.05 801.15,-191.5 790.93,-194.28 794.9,-200.05"/>
</g>
<!-- Node33 -->
<g id="node33" class="node">
<title>Node33</title>
<g id="a_node33"><a xlink:title=" ">
<polygon fill="none" stroke="#bfbfbf" points="735.12,-171.5 735.12,-191.5 777.37,-191.5 777.37,-171.5 735.12,-171.5"/>
<text text-anchor="middle" x="756.24" y="-178" font-family="Helvetica,sans-Serif" font-size="10.00">queue</text>
</a>
</g>
</g>
<!-- Node31&#45;&gt;Node33 -->
<g id="edge51" class="edge">
<title>Node31&#45;&gt;Node33</title>
<path fill="none" stroke="midnightblue" d="M738.52,-228.91C741.34,-221.52 745.51,-210.62 749.09,-201.23"/>
<polygon fill="midnightblue" stroke="midnightblue" points="752.62,-202.81 752.91,-192.21 746.08,-200.31 752.62,-202.81"/>
</g>
<!-- Node34&#45;&gt;Node11 -->
<g id="edge53" class="edge">
<title>Node34&#45;&gt;Node11</title>
<path fill="none" stroke="midnightblue" d="M555.51,-228.62C555.42,-214.2 552.96,-185.8 536.24,-171 520.14,-156.75 398.6,-141.38 318.63,-132.65"/>
<polygon fill="midnightblue" stroke="midnightblue" points="319.45,-129.11 309.13,-131.51 318.7,-136.07 319.45,-129.11"/>
</g>
<!-- Node34&#45;&gt;Node33 -->
<g id="edge54" class="edge">
<title>Node34&#45;&gt;Node33</title>
<path fill="none" stroke="midnightblue" d="M581.93,-230.2C618.85,-220.1 685.38,-201.89 724.7,-191.13"/>
<polygon fill="midnightblue" stroke="midnightblue" points="725.54,-194.26 734.26,-188.24 723.69,-187.5 725.54,-194.26"/>
</g>
<!-- Node35&#45;&gt;Node5 -->
<g id="edge60" class="edge">
<title>Node35&#45;&gt;Node5</title>
<path fill="none" stroke="midnightblue" d="M628.34,-342.58C607.44,-334.53 577.23,-321.59 553.24,-306 530.8,-291.42 508.25,-270.35 493.82,-255.86"/>
<polygon fill="midnightblue" stroke="midnightblue" points="496.82,-253.89 487.33,-249.18 491.81,-258.78 496.82,-253.89"/>
</g>
<!-- Node35&#45;&gt;Node26 -->
<g id="edge58" class="edge">
<title>Node35&#45;&gt;Node26</title>
<path fill="none" stroke="midnightblue" d="M680.33,-346.13C707.59,-339.79 749.96,-327.32 781.24,-306 848.09,-260.44 904.1,-179.72 927.07,-143.72"/>
<polygon fill="midnightblue" stroke="midnightblue" points="930.54,-145.77 932.88,-135.44 924.6,-142.05 930.54,-145.77"/>
</g>
<!-- Node36 -->
<g id="node36" class="node">
<title>Node36</title>
<g id="a_node36"><a xlink:title=" ">
<polygon fill="none" stroke="#bfbfbf" points="632.49,-285.5 632.49,-305.5 673.99,-305.5 673.99,-285.5 632.49,-285.5"/>
<text text-anchor="middle" x="653.24" y="-292" font-family="Helvetica,sans-Serif" font-size="10.00">vector</text>
</a>
</g>
</g>
<!-- Node35&#45;&gt;Node36 -->
<g id="edge59" class="edge">
<title>Node35&#45;&gt;Node36</title>
<path fill="none" stroke="midnightblue" d="M653.24,-342.91C653.24,-335.76 653.24,-325.32 653.24,-316.15"/>
<polygon fill="midnightblue" stroke="midnightblue" points="656.74,-316.21 653.24,-306.21 649.74,-316.21 656.74,-316.21"/>
</g>
<!-- Node37 -->
<g id="node37" class="node">
<title>Node37</title>
<g id="a_node37"><a xlink:href="_scene_8h.html" target="_top" xlink:title=" ">
<polygon fill="none" stroke="black" points="562.24,-285.5 562.24,-305.5 614.24,-305.5 614.24,-285.5 562.24,-285.5"/>
<text text-anchor="middle" x="588.24" y="-292" font-family="Helvetica,sans-Serif" font-size="10.00">Scene.h</text>
</a>
</g>
</g>
<!-- Node35&#45;&gt;Node37 -->
<g id="edge61" class="edge">
<title>Node35&#45;&gt;Node37</title>
<path fill="none" stroke="midnightblue" d="M642.8,-342.66C633.19,-334.53 618.71,-322.28 607.08,-312.44"/>
<polygon fill="midnightblue" stroke="midnightblue" points="609.77,-309.29 599.87,-305.5 605.25,-314.63 609.77,-309.29"/>
</g>
<!-- Node38 -->
<g id="node38" class="node">
<title>Node38</title>
<g id="a_node38"><a xlink:href="_frame_timer_8h.html" target="_top" xlink:title=" ">
<polygon fill="none" stroke="black" points="1023.24,-285.5 1023.24,-305.5 1099.24,-305.5 1099.24,-285.5 1023.24,-285.5"/>
<text text-anchor="middle" x="1061.24" y="-292" font-family="Helvetica,sans-Serif" font-size="10.00">FrameTimer.h</text>
</a>
</g>
</g>
<!-- Node35&#45;&gt;Node38 -->
<g id="edge66" class="edge">
<title>Node35&#45;&gt;Node38</title>
<path fill="none" stroke="midnightblue" d="M680.3,-348.02C694.31,-346.22 711.7,-343.99 727.24,-342 852.57,-325.96 884.38,-325.36 1009.24,-306 1010.4,-305.82 1011.57,-305.64 1012.75,-305.45"/>
<polygon fill="midnightblue" stroke="midnightblue" points="1013.23,-308.75 1022.51,-303.64 1012.07,-301.84 1013.23,-308.75"/>
</g>
<!-- Node37&#45;&gt;Node4 -->
<g id="edge62" class="edge">
<title>Node37&#45;&gt;Node4</title>
<path fill="none" stroke="midnightblue" d="M614.21,-287.34C617.25,-286.54 620.31,-285.74 623.24,-285 691.39,-267.79 714.49,-280.66 777.24,-249 834.39,-220.17 854,-198.01 865.24,-135 866.88,-125.81 867.07,-123.15 865.24,-114 863.39,-104.77 859.62,-95.07 855.93,-87.01"/>
<polygon fill="midnightblue" stroke="midnightblue" points="858.67,-85.66 851.12,-78.23 852.39,-88.75 858.67,-85.66"/>
</g>
<!-- Node37&#45;&gt;Node5 -->
<g id="edge65" class="edge">
<title>Node37&#45;&gt;Node5</title>
<path fill="none" stroke="midnightblue" d="M570.57,-285.66C553.11,-276.94 526.16,-263.46 505.87,-253.31"/>
<polygon fill="midnightblue" stroke="midnightblue" points="507.75,-249.84 497.24,-248.5 504.61,-256.1 507.75,-249.84"/>
</g>
<!-- Node37&#45;&gt;Node31 -->
<g id="edge63" class="edge">
<title>Node37&#45;&gt;Node31</title>
<path fill="none" stroke="midnightblue" d="M612.19,-285.54C636.32,-276.51 673.79,-262.49 701.05,-252.29"/>
<polygon fill="midnightblue" stroke="midnightblue" points="702.17,-255.24 710.31,-248.46 699.71,-248.68 702.17,-255.24"/>
</g>
<!-- Node37&#45;&gt;Node34 -->
<g id="edge64" class="edge">
<title>Node37&#45;&gt;Node34</title>
<path fill="none" stroke="midnightblue" d="M583.08,-285.91C578.56,-278.36 571.82,-267.14 566.11,-257.62"/>
<polygon fill="midnightblue" stroke="midnightblue" points="568.62,-255.99 560.47,-249.21 562.61,-259.59 568.62,-255.99"/>
</g>
<!-- Node39 -->
<g id="node39" class="node">
<title>Node39</title>
<g id="a_node39"><a xlink:title=" ">
<polygon fill="none" stroke="#bfbfbf" points="1038.62,-228.5 1038.62,-248.5 1083.87,-248.5 1083.87,-228.5 1038.62,-228.5"/>
<text text-anchor="middle" x="1061.24" y="-235" font-family="Helvetica,sans-Serif" font-size="10.00">chrono</text>
</a>
</g>
</g>
<!-- Node38&#45;&gt;Node39 -->
<g id="edge67" class="edge">
<title>Node38&#45;&gt;Node39</title>
<path fill="none" stroke="midnightblue" d="M1061.24,-285.91C1061.24,-278.76 1061.24,-268.32 1061.24,-259.15"/>
<polygon fill="midnightblue" stroke="midnightblue" points="1064.74,-259.21 1061.24,-249.21 1057.74,-259.21 1064.74,-259.21"/>
</g>
</g>
</svg>
