<?xml version="1.0" encoding="UTF-8" standalone="no"?>
<!DOCTYPE svg PUBLIC "-//W3C//DTD SVG 1.1//EN"
 "http://www.w3.org/Graphics/SVG/1.1/DTD/svg11.dtd">
<!-- Generated by graphviz version 8.1.0 (20230707.0739)
 -->
<!-- Title: include/MainWindow.h Pages: 1 -->
<svg width="413pt" height="86pt"
 viewBox="0.00 0.00 413.00 86.00" xmlns="http://www.w3.org/2000/svg" xmlns:xlink="http://www.w3.org/1999/xlink">
<g id="graph0" class="graph" transform="scale(1 1) rotate(0) translate(4 82)">
<title>include/MainWindow.h</title>
<!-- Node1 -->
<g id="node1" class="node">
<title>Node1</title>
<g id="a_node1"><a xlink:title=" ">
<polygon fill="#bfbfbf" stroke="black" points="136.88,-57.5 136.88,-77.5 250.38,-77.5 250.38,-57.5 136.88,-57.5"/>
<text text-anchor="middle" x="193.62" y="-64" font-family="Helvetica,sans-Serif" font-size="10.00">include/MainWindow.h</text>
</a>
</g>
</g>
<!-- Node2 -->
<g id="node2" class="node">
<title>Node2</title>
<g id="a_node2"><a xlink:href="_engine_8cpp.html" target="_top" xlink:title=" ">
<polygon fill="none" stroke="black" points="0,-0.5 0,-20.5 81.25,-20.5 81.25,-0.5 0,-0.5"/>
<text text-anchor="middle" x="40.62" y="-7" font-family="Helvetica,sans-Serif" font-size="10.00">src/Engine.cpp</text>
</a>
</g>
</g>
<!-- Node1&#45;&gt;Node2 -->
<g id="edge1" class="edge">
<title>Node1&#45;&gt;Node2</title>
<path fill="none" stroke="midnightblue" d="M158.4,-53.84C130,-43.63 90.76,-29.52 65.54,-20.46"/>
<polygon fill="midnightblue" stroke="midnightblue" points="157.11,-57.45 167.7,-57.54 159.48,-50.86 157.11,-57.45"/>
</g>
<!-- Node3 -->
<g id="node3" class="node">
<title>Node3</title>
<g id="a_node3"><a xlink:href="_graphics_8cpp.html" target="_top" xlink:title=" ">
<polygon fill="none" stroke="black" points="99.5,-0.5 99.5,-20.5 189.75,-20.5 189.75,-0.5 99.5,-0.5"/>
<text text-anchor="middle" x="144.62" y="-7" font-family="Helvetica,sans-Serif" font-size="10.00">src/Graphics.cpp</text>
</a>
</g>
</g>
<!-- Node1&#45;&gt;Node3 -->
<g id="edge2" class="edge">
<title>Node1&#45;&gt;Node3</title>
<path fill="none" stroke="midnightblue" d="M178.69,-49.73C170.01,-39.99 159.43,-28.12 152.39,-20.21"/>
<polygon fill="midnightblue" stroke="midnightblue" points="175.7,-51.77 184.97,-56.91 180.93,-47.11 175.7,-51.77"/>
</g>
<!-- Node4 -->
<g id="node4" class="node">
<title>Node4</title>
<g id="a_node4"><a xlink:href="_main_8cpp.html" target="_top" xlink:title=" ">
<polygon fill="none" stroke="black" points="207.5,-0.5 207.5,-20.5 279.75,-20.5 279.75,-0.5 207.5,-0.5"/>
<text text-anchor="middle" x="243.62" y="-7" font-family="Helvetica,sans-Serif" font-size="10.00">src/Main.cpp</text>
</a>
</g>
</g>
<!-- Node1&#45;&gt;Node4 -->
<g id="edge3" class="edge">
<title>Node1&#45;&gt;Node4</title>
<path fill="none" stroke="midnightblue" d="M208.6,-50.03C217.5,-40.24 228.44,-28.2 235.7,-20.21"/>
<polygon fill="midnightblue" stroke="midnightblue" points="206.57,-47.15 202.44,-56.91 211.75,-51.86 206.57,-47.15"/>
</g>
<!-- Node5 -->
<g id="node5" class="node">
<title>Node5</title>
<g id="a_node5"><a xlink:href="_main_window_8cpp.html" target="_top" xlink:title=" ">
<polygon fill="none" stroke="black" points="298.25,-0.5 298.25,-20.5 405,-20.5 405,-0.5 298.25,-0.5"/>
<text text-anchor="middle" x="351.62" y="-7" font-family="Helvetica,sans-Serif" font-size="10.00">src/MainWindow.cpp</text>
</a>
</g>
</g>
<!-- Node1&#45;&gt;Node5 -->
<g id="edge4" class="edge">
<title>Node1&#45;&gt;Node5</title>
<path fill="none" stroke="midnightblue" d="M229.61,-53.97C258.97,-43.75 299.74,-29.56 325.9,-20.46"/>
<polygon fill="midnightblue" stroke="midnightblue" points="228.66,-50.95 220.36,-57.54 230.96,-57.56 228.66,-50.95"/>
</g>
</g>
</svg>
