<?xml version="1.0" encoding="UTF-8" standalone="no"?>
<!DOCTYPE svg PUBLIC "-//W3C//DTD SVG 1.1//EN"
 "http://www.w3.org/Graphics/SVG/1.1/DTD/svg11.dtd">
<!-- Generated by graphviz version 8.1.0 (20230707.0739)
 -->
<!-- Title: src/Main.cpp Pages: 1 -->
<svg width="935pt" height="485pt"
 viewBox="0.00 0.00 935.09 485.00" xmlns="http://www.w3.org/2000/svg" xmlns:xlink="http://www.w3.org/1999/xlink">
<g id="graph0" class="graph" transform="scale(1 1) rotate(0) translate(4 481)">
<title>src/Main.cpp</title>
<!-- Node1 -->
<g id="node1" class="node">
<title>Node1</title>
<g id="a_node1"><a xlink:title=" ">
<polygon fill="#bfbfbf" stroke="black" points="626.46,-456.5 626.46,-476.5 698.71,-476.5 698.71,-456.5 626.46,-456.5"/>
<text text-anchor="middle" x="662.59" y="-463" font-family="Helvetica,sans-Serif" font-size="10.00">src/Main.cpp</text>
</a>
</g>
</g>
<!-- Node2 -->
<g id="node2" class="node">
<title>Node2</title>
<g id="a_node2"><a xlink:href="_engine_8h.html" target="_top" xlink:title=" ">
<polygon fill="none" stroke="black" points="198.46,-399.5 198.46,-419.5 252.71,-419.5 252.71,-399.5 198.46,-399.5"/>
<text text-anchor="middle" x="225.59" y="-406" font-family="Helvetica,sans-Serif" font-size="10.00">Engine.h</text>
</a>
</g>
</g>
<!-- Node1&#45;&gt;Node2 -->
<g id="edge1" class="edge">
<title>Node1&#45;&gt;Node2</title>
<path fill="none" stroke="midnightblue" d="M626.83,-461C545.36,-450.75 346.62,-425.73 263.31,-415.25"/>
<polygon fill="midnightblue" stroke="midnightblue" points="263.94,-411.67 253.58,-413.9 263.06,-418.62 263.94,-411.67"/>
</g>
<!-- Node4 -->
<g id="node4" class="node">
<title>Node4</title>
<g id="a_node4"><a xlink:title=" ">
<polygon fill="none" stroke="#bfbfbf" points="57.96,-285.5 57.96,-305.5 103.21,-305.5 103.21,-285.5 57.96,-285.5"/>
<text text-anchor="middle" x="80.59" y="-292" font-family="Helvetica,sans-Serif" font-size="10.00">chrono</text>
</a>
</g>
</g>
<!-- Node1&#45;&gt;Node4 -->
<g id="edge65" class="edge">
<title>Node1&#45;&gt;Node4</title>
<path fill="none" stroke="midnightblue" d="M626.62,-466.11C500.08,-467.4 79.09,-463.92 4.59,-363 -11.83,-340.77 20.79,-320.7 48.28,-308.56"/>
<polygon fill="midnightblue" stroke="midnightblue" points="49.21,-311.55 57.08,-304.46 46.5,-305.09 49.21,-311.55"/>
</g>
<!-- Node18 -->
<g id="node18" class="node">
<title>Node18</title>
<g id="a_node18"><a xlink:title=" ">
<polygon fill="none" stroke="#bfbfbf" points="772.84,-0.5 772.84,-20.5 826.34,-20.5 826.34,-0.5 772.84,-0.5"/>
<text text-anchor="middle" x="799.59" y="-7" font-family="Helvetica,sans-Serif" font-size="10.00">iostream</text>
</a>
</g>
</g>
<!-- Node1&#45;&gt;Node18 -->
<g id="edge66" class="edge">
<title>Node1&#45;&gt;Node18</title>
<path fill="none" stroke="midnightblue" d="M698.44,-461.05C754.25,-451.89 855.59,-425.36 855.59,-353.5 855.59,-353.5 855.59,-353.5 855.59,-123.5 855.59,-92.76 850.8,-84.26 836.59,-57 831.2,-46.66 823.22,-36.46 816.05,-28.35"/>
<polygon fill="midnightblue" stroke="midnightblue" points="819.11,-26.42 809.75,-21.46 813.98,-31.17 819.11,-26.42"/>
</g>
<!-- Node39 -->
<g id="node39" class="node">
<title>Node39</title>
<g id="a_node39"><a xlink:href="_main_window_8h.html" target="_top" xlink:title=" ">
<polygon fill="none" stroke="black" points="622.71,-342.5 622.71,-362.5 702.46,-362.5 702.46,-342.5 622.71,-342.5"/>
<text text-anchor="middle" x="662.59" y="-349" font-family="Helvetica,sans-Serif" font-size="10.00">MainWindow.h</text>
</a>
</g>
</g>
<!-- Node1&#45;&gt;Node39 -->
<g id="edge58" class="edge">
<title>Node1&#45;&gt;Node39</title>
<path fill="none" stroke="midnightblue" d="M662.59,-456.71C662.59,-438.8 662.59,-397.69 662.59,-373.11"/>
<polygon fill="midnightblue" stroke="midnightblue" points="666.09,-373.25 662.59,-363.25 659.09,-373.25 666.09,-373.25"/>
</g>
<!-- Node40 -->
<g id="node40" class="node">
<title>Node40</title>
<g id="a_node40"><a xlink:title=" ">
<polygon fill="none" stroke="#bfbfbf" points="884.09,-399.5 884.09,-419.5 927.09,-419.5 927.09,-399.5 884.09,-399.5"/>
<text text-anchor="middle" x="905.59" y="-406" font-family="Helvetica,sans-Serif" font-size="10.00">thread</text>
</a>
</g>
</g>
<!-- Node1&#45;&gt;Node40 -->
<g id="edge67" class="edge">
<title>Node1&#45;&gt;Node40</title>
<path fill="none" stroke="midnightblue" d="M698.59,-458.06C739.97,-449.4 809.86,-434.44 869.59,-420 870.93,-419.68 872.3,-419.34 873.68,-418.99"/>
<polygon fill="midnightblue" stroke="midnightblue" points="874.49,-422.15 883.31,-416.27 872.75,-415.36 874.49,-422.15"/>
</g>
<!-- Node3 -->
<g id="node3" class="node">
<title>Node3</title>
<g id="a_node3"><a xlink:href="_frame_timer_8h.html" target="_top" xlink:title=" ">
<polygon fill="none" stroke="black" points="73.59,-342.5 73.59,-362.5 149.59,-362.5 149.59,-342.5 73.59,-342.5"/>
<text text-anchor="middle" x="111.59" y="-349" font-family="Helvetica,sans-Serif" font-size="10.00">FrameTimer.h</text>
</a>
</g>
</g>
<!-- Node2&#45;&gt;Node3 -->
<g id="edge2" class="edge">
<title>Node2&#45;&gt;Node3</title>
<path fill="none" stroke="midnightblue" d="M207.02,-399.54C188.8,-390.75 160.78,-377.23 139.81,-367.11"/>
<polygon fill="midnightblue" stroke="midnightblue" points="141.68,-363.65 131.15,-362.46 138.64,-369.95 141.68,-363.65"/>
</g>
<!-- Node5 -->
<g id="node5" class="node">
<title>Node5</title>
<g id="a_node5"><a xlink:href="_graphics_8h.html" target="_top" xlink:title=" ">
<polygon fill="none" stroke="black" points="323.96,-285.5 323.96,-305.5 387.21,-305.5 387.21,-285.5 323.96,-285.5"/>
<text text-anchor="middle" x="355.59" y="-292" font-family="Helvetica,sans-Serif" font-size="10.00">Graphics.h</text>
</a>
</g>
</g>
<!-- Node2&#45;&gt;Node5 -->
<g id="edge4" class="edge">
<title>Node2&#45;&gt;Node5</title>
<path fill="none" stroke="midnightblue" d="M235.79,-399.71C257.72,-380.82 309.6,-336.12 337.34,-312.22"/>
<polygon fill="midnightblue" stroke="midnightblue" points="339.14,-314.43 344.44,-305.25 334.57,-309.12 339.14,-314.43"/>
</g>
<!-- Node27 -->
<g id="node27" class="node">
<title>Node27</title>
<g id="a_node27"><a xlink:title=" ">
<polygon fill="none" stroke="#bfbfbf" points="57.96,-171.5 57.96,-191.5 109.21,-191.5 109.21,-171.5 57.96,-171.5"/>
<text text-anchor="middle" x="83.59" y="-178" font-family="Helvetica,sans-Serif" font-size="10.00">memory</text>
</a>
</g>
</g>
<!-- Node2&#45;&gt;Node27 -->
<g id="edge56" class="edge">
<title>Node2&#45;&gt;Node27</title>
<path fill="none" stroke="midnightblue" d="M220.02,-399.64C198.9,-366.02 123.46,-245.95 94.77,-200.29"/>
<polygon fill="midnightblue" stroke="midnightblue" points="97.25,-198.66 88.96,-192.06 91.32,-202.39 97.25,-198.66"/>
</g>
<!-- Node31 -->
<g id="node31" class="node">
<title>Node31</title>
<g id="a_node31"><a xlink:href="_scene_8h.html" target="_top" xlink:title=" ">
<polygon fill="none" stroke="black" points="329.59,-342.5 329.59,-362.5 381.59,-362.5 381.59,-342.5 329.59,-342.5"/>
<text text-anchor="middle" x="355.59" y="-349" font-family="Helvetica,sans-Serif" font-size="10.00">Scene.h</text>
</a>
</g>
</g>
<!-- Node2&#45;&gt;Node31 -->
<g id="edge39" class="edge">
<title>Node2&#45;&gt;Node31</title>
<path fill="none" stroke="midnightblue" d="M246.76,-399.54C267.82,-390.63 300.37,-376.86 324.38,-366.7"/>
<polygon fill="midnightblue" stroke="midnightblue" points="325.58,-369.58 333.42,-362.46 322.85,-363.13 325.58,-369.58"/>
</g>
<!-- Node38 -->
<g id="node38" class="node">
<title>Node38</title>
<g id="a_node38"><a xlink:title=" ">
<polygon fill="none" stroke="#bfbfbf" points="13.84,-342.5 13.84,-362.5 55.34,-362.5 55.34,-342.5 13.84,-342.5"/>
<text text-anchor="middle" x="34.59" y="-349" font-family="Helvetica,sans-Serif" font-size="10.00">vector</text>
</a>
</g>
</g>
<!-- Node2&#45;&gt;Node38 -->
<g id="edge57" class="edge">
<title>Node2&#45;&gt;Node38</title>
<path fill="none" stroke="midnightblue" d="M198.74,-401.19C168.65,-392.94 118.2,-378.92 65.44,-363.19"/>
<polygon fill="midnightblue" stroke="midnightblue" points="66.8,-359.64 56.22,-360.13 64.79,-366.35 66.8,-359.64"/>
</g>
<!-- Node3&#45;&gt;Node4 -->
<g id="edge3" class="edge">
<title>Node3&#45;&gt;Node4</title>
<path fill="none" stroke="midnightblue" d="M106.74,-342.91C102.49,-335.36 96.17,-324.14 90.8,-314.62"/>
<polygon fill="midnightblue" stroke="midnightblue" points="93.46,-313.21 85.5,-306.21 87.36,-316.65 93.46,-313.21"/>
</g>
<!-- Node6 -->
<g id="node6" class="node">
<title>Node6</title>
<g id="a_node6"><a xlink:href="_engine_exception_8h.html" target="_top" xlink:title=" ">
<polygon fill="none" stroke="black" points="459.71,-171.5 459.71,-191.5 557.46,-191.5 557.46,-171.5 459.71,-171.5"/>
<text text-anchor="middle" x="508.59" y="-178" font-family="Helvetica,sans-Serif" font-size="10.00">EngineException.h</text>
</a>
</g>
</g>
<!-- Node5&#45;&gt;Node6 -->
<g id="edge5" class="edge">
<title>Node5&#45;&gt;Node6</title>
<path fill="none" stroke="midnightblue" d="M367.85,-285.52C394.05,-266.34 455.74,-221.18 488.05,-197.54"/>
<polygon fill="midnightblue" stroke="midnightblue" points="489.69,-199.94 495.69,-191.21 485.55,-194.29 489.69,-199.94"/>
</g>
<!-- Node9 -->
<g id="node9" class="node">
<title>Node9</title>
<g id="a_node9"><a xlink:href="_vector3_8h.html" target="_top" xlink:title=" ">
<polygon fill="none" stroke="black" points="235.46,-114.5 235.46,-134.5 355.71,-134.5 355.71,-114.5 235.46,-114.5"/>
<text text-anchor="middle" x="295.59" y="-121" font-family="Helvetica,sans-Serif" font-size="10.00">LinearAlgebra/Vector3.h</text>
</a>
</g>
</g>
<!-- Node5&#45;&gt;Node9 -->
<g id="edge8" class="edge">
<title>Node5&#45;&gt;Node9</title>
<path fill="none" stroke="midnightblue" d="M324.18,-290.45C275.44,-282.18 184.31,-258.12 156.59,-192 142.31,-157.96 183.81,-141.29 225.11,-133.16"/>
<polygon fill="midnightblue" stroke="midnightblue" points="225.63,-136.45 234.85,-131.23 224.39,-129.56 225.63,-136.45"/>
</g>
<!-- Node20 -->
<g id="node20" class="node">
<title>Node20</title>
<g id="a_node20"><a xlink:href="_g_d_i_plus_manager_8h.html" target="_top" xlink:title=" ">
<polygon fill="none" stroke="black" points="459.71,-228.5 459.71,-248.5 557.46,-248.5 557.46,-228.5 459.71,-228.5"/>
<text text-anchor="middle" x="508.59" y="-235" font-family="Helvetica,sans-Serif" font-size="10.00">GDIPlusManager.h</text>
</a>
</g>
</g>
<!-- Node5&#45;&gt;Node20 -->
<g id="edge24" class="edge">
<title>Node5&#45;&gt;Node20</title>
<path fill="none" stroke="midnightblue" d="M380.51,-285.54C405.74,-276.47 444.98,-262.37 473.37,-252.16"/>
<polygon fill="midnightblue" stroke="midnightblue" points="474.45,-255.13 482.68,-248.46 472.08,-248.54 474.45,-255.13"/>
</g>
<!-- Node24 -->
<g id="node24" class="node">
<title>Node24</title>
<g id="a_node24"><a xlink:href="_surface_8h.html" target="_top" xlink:title=" ">
<polygon fill="none" stroke="black" points="223.96,-228.5 223.96,-248.5 281.21,-248.5 281.21,-228.5 223.96,-228.5"/>
<text text-anchor="middle" x="252.59" y="-235" font-family="Helvetica,sans-Serif" font-size="10.00">Surface.h</text>
</a>
</g>
</g>
<!-- Node5&#45;&gt;Node24 -->
<g id="edge28" class="edge">
<title>Node5&#45;&gt;Node24</title>
<path fill="none" stroke="midnightblue" d="M339.04,-285.66C322.84,-277.01 297.91,-263.7 278.98,-253.59"/>
<polygon fill="midnightblue" stroke="midnightblue" points="280.91,-250.12 270.44,-248.5 277.61,-256.3 280.91,-250.12"/>
</g>
<!-- Node29 -->
<g id="node29" class="node">
<title>Node29</title>
<g id="a_node29"><a xlink:title=" ">
<polygon fill="none" stroke="#bfbfbf" points="299.34,-228.5 299.34,-248.5 349.84,-248.5 349.84,-228.5 299.34,-228.5"/>
<text text-anchor="middle" x="324.59" y="-235" font-family="Helvetica,sans-Serif" font-size="10.00">d3d11.h</text>
</a>
</g>
</g>
<!-- Node5&#45;&gt;Node29 -->
<g id="edge37" class="edge">
<title>Node5&#45;&gt;Node29</title>
<path fill="none" stroke="midnightblue" d="M350.74,-285.91C346.49,-278.36 340.17,-267.14 334.8,-257.62"/>
<polygon fill="midnightblue" stroke="midnightblue" points="337.46,-256.21 329.5,-249.21 331.36,-259.65 337.46,-256.21"/>
</g>
<!-- Node30 -->
<g id="node30" class="node">
<title>Node30</title>
<g id="a_node30"><a xlink:title=" ">
<polygon fill="none" stroke="#bfbfbf" points="367.46,-228.5 367.46,-248.5 403.71,-248.5 403.71,-228.5 367.46,-228.5"/>
<text text-anchor="middle" x="385.59" y="-235" font-family="Helvetica,sans-Serif" font-size="10.00">wrl.h</text>
</a>
</g>
</g>
<!-- Node5&#45;&gt;Node30 -->
<g id="edge38" class="edge">
<title>Node5&#45;&gt;Node30</title>
<path fill="none" stroke="midnightblue" d="M360.28,-285.91C364.39,-278.36 370.51,-267.14 375.7,-257.62"/>
<polygon fill="midnightblue" stroke="midnightblue" points="379.12,-259.67 380.83,-249.21 372.97,-256.32 379.12,-259.67"/>
</g>
<!-- Node7 -->
<g id="node7" class="node">
<title>Node7</title>
<g id="a_node7"><a xlink:title=" ">
<polygon fill="none" stroke="#bfbfbf" points="373.59,-114.5 373.59,-134.5 413.59,-134.5 413.59,-114.5 373.59,-114.5"/>
<text text-anchor="middle" x="393.59" y="-121" font-family="Helvetica,sans-Serif" font-size="10.00">string</text>
</a>
</g>
</g>
<!-- Node6&#45;&gt;Node7 -->
<g id="edge6" class="edge">
<title>Node6&#45;&gt;Node7</title>
<path fill="none" stroke="midnightblue" d="M489.86,-171.54C471.48,-162.75 443.21,-149.23 422.05,-139.11"/>
<polygon fill="midnightblue" stroke="midnightblue" points="423.84,-135.61 413.31,-134.46 420.82,-141.93 423.84,-135.61"/>
</g>
<!-- Node8 -->
<g id="node8" class="node">
<title>Node8</title>
<g id="a_node8"><a xlink:title=" ">
<polygon fill="none" stroke="#bfbfbf" points="431.46,-114.5 431.46,-134.5 515.71,-134.5 515.71,-114.5 431.46,-114.5"/>
<text text-anchor="middle" x="473.59" y="-121" font-family="Helvetica,sans-Serif" font-size="10.00">source_location</text>
</a>
</g>
</g>
<!-- Node6&#45;&gt;Node8 -->
<g id="edge7" class="edge">
<title>Node6&#45;&gt;Node8</title>
<path fill="none" stroke="midnightblue" d="M503.12,-171.91C498.27,-164.28 491.03,-152.9 484.93,-143.32"/>
<polygon fill="midnightblue" stroke="midnightblue" points="487.46,-141.77 479.13,-135.21 481.55,-145.53 487.46,-141.77"/>
</g>
<!-- Node10 -->
<g id="node10" class="node">
<title>Node10</title>
<g id="a_node10"><a xlink:href="_math_8h.html" target="_top" xlink:title=" ">
<polygon fill="none" stroke="black" points="591.59,-57.5 591.59,-77.5 637.59,-77.5 637.59,-57.5 591.59,-57.5"/>
<text text-anchor="middle" x="614.59" y="-64" font-family="Helvetica,sans-Serif" font-size="10.00">Math.h</text>
</a>
</g>
</g>
<!-- Node9&#45;&gt;Node10 -->
<g id="edge9" class="edge">
<title>Node9&#45;&gt;Node10</title>
<path fill="none" stroke="midnightblue" d="M355.68,-114.97C412.33,-106.63 499.51,-93.02 574.59,-78 576.78,-77.56 579.02,-77.09 581.29,-76.6"/>
<polygon fill="midnightblue" stroke="midnightblue" points="581.83,-79.84 590.81,-74.21 580.28,-73.01 581.83,-79.84"/>
</g>
<!-- Node15 -->
<g id="node15" class="node">
<title>Node15</title>
<g id="a_node15"><a xlink:href="_matrix3_8h.html" target="_top" xlink:title=" ">
<polygon fill="none" stroke="black" points="509.34,-57.5 509.34,-77.5 565.84,-77.5 565.84,-57.5 509.34,-57.5"/>
<text text-anchor="middle" x="537.59" y="-64" font-family="Helvetica,sans-Serif" font-size="10.00">Matrix3.h</text>
</a>
</g>
</g>
<!-- Node9&#45;&gt;Node15 -->
<g id="edge15" class="edge">
<title>Node9&#45;&gt;Node15</title>
<path fill="none" stroke="midnightblue" d="M335.01,-114.54C380.29,-104.25 454.12,-87.47 499.03,-77.26"/>
<polygon fill="midnightblue" stroke="midnightblue" points="499.55,-80.51 508.52,-74.88 498,-73.68 499.55,-80.51"/>
</g>
<!-- Node16 -->
<g id="node16" class="node">
<title>Node16</title>
<g id="a_node16"><a xlink:title=" ">
<polygon fill="none" stroke="#bfbfbf" points="460.71,-0.5 460.71,-20.5 498.46,-20.5 498.46,-0.5 460.71,-0.5"/>
<text text-anchor="middle" x="479.59" y="-7" font-family="Helvetica,sans-Serif" font-size="10.00">array</text>
</a>
</g>
</g>
<!-- Node9&#45;&gt;Node16 -->
<g id="edge20" class="edge">
<title>Node9&#45;&gt;Node16</title>
<path fill="none" stroke="midnightblue" d="M300.82,-114.9C309.76,-100.88 329.3,-73.04 352.59,-57 356.81,-54.09 414.74,-33.85 450.89,-21.37"/>
<polygon fill="midnightblue" stroke="midnightblue" points="451.57,-24.49 459.88,-17.92 449.29,-17.87 451.57,-24.49"/>
</g>
<!-- Node17 -->
<g id="node17" class="node">
<title>Node17</title>
<g id="a_node17"><a xlink:title=" ">
<polygon fill="none" stroke="#bfbfbf" points="394.84,-0.5 394.84,-20.5 442.34,-20.5 442.34,-0.5 394.84,-0.5"/>
<text text-anchor="middle" x="418.59" y="-7" font-family="Helvetica,sans-Serif" font-size="10.00">cstddef</text>
</a>
</g>
</g>
<!-- Node9&#45;&gt;Node17 -->
<g id="edge23" class="edge">
<title>Node9&#45;&gt;Node17</title>
<path fill="none" stroke="midnightblue" d="M296.59,-114.62C298.59,-100.71 304.31,-73.63 319.59,-57 336.89,-38.17 363.52,-26.54 384.8,-19.76"/>
<polygon fill="midnightblue" stroke="midnightblue" points="385.47,-22.92 394.06,-16.72 383.48,-16.2 385.47,-22.92"/>
</g>
<!-- Node9&#45;&gt;Node18 -->
<g id="edge21" class="edge">
<title>Node9&#45;&gt;Node18</title>
<path fill="none" stroke="midnightblue" d="M355.42,-115.2C358.52,-114.79 361.59,-114.39 364.59,-114 497.78,-96.84 535.85,-116.22 664.59,-78 706.12,-65.67 750.49,-41.41 776.59,-25.85"/>
<polygon fill="midnightblue" stroke="midnightblue" points="777.92,-28.53 784.66,-20.36 774.29,-22.55 777.92,-28.53"/>
</g>
<!-- Node19 -->
<g id="node19" class="node">
<title>Node19</title>
<g id="a_node19"><a xlink:title=" ">
<polygon fill="none" stroke="#bfbfbf" points="361.84,-57.5 361.84,-77.5 415.34,-77.5 415.34,-57.5 361.84,-57.5"/>
<text text-anchor="middle" x="388.59" y="-64" font-family="Helvetica,sans-Serif" font-size="10.00">compare</text>
</a>
</g>
</g>
<!-- Node9&#45;&gt;Node19 -->
<g id="edge22" class="edge">
<title>Node9&#45;&gt;Node19</title>
<path fill="none" stroke="midnightblue" d="M310.53,-114.66C324.95,-106.13 347.04,-93.07 364.05,-83.01"/>
<polygon fill="midnightblue" stroke="midnightblue" points="365.55,-85.6 372.37,-77.5 361.99,-79.58 365.55,-85.6"/>
</g>
<!-- Node10&#45;&gt;Node10 -->
<g id="edge10" class="edge">
<title>Node10&#45;&gt;Node10</title>
<path fill="none" stroke="midnightblue" d="M633.14,-77.43C644.64,-79.83 655.59,-76.52 655.59,-67.5 655.59,-61.44 650.65,-57.96 643.92,-57.05"/>
<polygon fill="midnightblue" stroke="midnightblue" points="643.96,-53.59 634.14,-57.57 644.3,-60.59 643.96,-53.59"/>
</g>
<!-- Node11 -->
<g id="node11" class="node">
<title>Node11</title>
<g id="a_node11"><a xlink:title=" ">
<polygon fill="none" stroke="#bfbfbf" points="516.09,-0.5 516.09,-20.5 559.09,-20.5 559.09,-0.5 516.09,-0.5"/>
<text text-anchor="middle" x="537.59" y="-7" font-family="Helvetica,sans-Serif" font-size="10.00">cmath</text>
</a>
</g>
</g>
<!-- Node10&#45;&gt;Node11 -->
<g id="edge11" class="edge">
<title>Node10&#45;&gt;Node11</title>
<path fill="none" stroke="midnightblue" d="M602.22,-57.66C590.61,-49.37 573.01,-36.8 559.1,-26.87"/>
<polygon fill="midnightblue" stroke="midnightblue" points="561.36,-23.46 551.18,-20.5 557.29,-29.16 561.36,-23.46"/>
</g>
<!-- Node12 -->
<g id="node12" class="node">
<title>Node12</title>
<g id="a_node12"><a xlink:title=" ">
<polygon fill="none" stroke="#bfbfbf" points="643.96,-0.5 643.96,-20.5 683.21,-20.5 683.21,-0.5 643.96,-0.5"/>
<text text-anchor="middle" x="663.59" y="-7" font-family="Helvetica,sans-Serif" font-size="10.00">limits</text>
</a>
</g>
</g>
<!-- Node10&#45;&gt;Node12 -->
<g id="edge12" class="edge">
<title>Node10&#45;&gt;Node12</title>
<path fill="none" stroke="midnightblue" d="M622.24,-57.91C629.25,-50.04 639.82,-38.18 648.52,-28.42"/>
<polygon fill="midnightblue" stroke="midnightblue" points="650.79,-31.01 654.82,-21.21 645.56,-26.35 650.79,-31.01"/>
</g>
<!-- Node13 -->
<g id="node13" class="node">
<title>Node13</title>
<g id="a_node13"><a xlink:title=" ">
<polygon fill="none" stroke="#bfbfbf" points="700.84,-0.5 700.84,-20.5 754.34,-20.5 754.34,-0.5 700.84,-0.5"/>
<text text-anchor="middle" x="727.59" y="-7" font-family="Helvetica,sans-Serif" font-size="10.00">numbers</text>
</a>
</g>
</g>
<!-- Node10&#45;&gt;Node13 -->
<g id="edge13" class="edge">
<title>Node10&#45;&gt;Node13</title>
<path fill="none" stroke="midnightblue" d="M633,-57.54C650.97,-48.79 678.58,-35.36 699.33,-25.25"/>
<polygon fill="midnightblue" stroke="midnightblue" points="700.73,-27.98 708.19,-20.46 697.67,-21.68 700.73,-27.98"/>
</g>
<!-- Node14 -->
<g id="node14" class="node">
<title>Node14</title>
<g id="a_node14"><a xlink:title=" ">
<polygon fill="none" stroke="#bfbfbf" points="577.46,-0.5 577.46,-20.5 625.71,-20.5 625.71,-0.5 577.46,-0.5"/>
<text text-anchor="middle" x="601.59" y="-7" font-family="Helvetica,sans-Serif" font-size="10.00">random</text>
</a>
</g>
</g>
<!-- Node10&#45;&gt;Node14 -->
<g id="edge14" class="edge">
<title>Node10&#45;&gt;Node14</title>
<path fill="none" stroke="midnightblue" d="M612.56,-57.91C610.85,-50.68 608.35,-40.09 606.16,-30.85"/>
<polygon fill="midnightblue" stroke="midnightblue" points="609.35,-30.14 603.65,-21.21 602.54,-31.75 609.35,-30.14"/>
</g>
<!-- Node15&#45;&gt;Node11 -->
<g id="edge17" class="edge">
<title>Node15&#45;&gt;Node11</title>
<path fill="none" stroke="midnightblue" d="M537.59,-57.91C537.59,-50.76 537.59,-40.32 537.59,-31.15"/>
<polygon fill="midnightblue" stroke="midnightblue" points="541.09,-31.21 537.59,-21.21 534.09,-31.21 541.09,-31.21"/>
</g>
<!-- Node15&#45;&gt;Node16 -->
<g id="edge16" class="edge">
<title>Node15&#45;&gt;Node16</title>
<path fill="none" stroke="midnightblue" d="M528.27,-57.66C519.86,-49.69 507.28,-37.76 497.01,-28.02"/>
<polygon fill="midnightblue" stroke="midnightblue" points="499.74,-25.84 490.08,-21.5 494.92,-30.92 499.74,-25.84"/>
</g>
<!-- Node15&#45;&gt;Node17 -->
<g id="edge18" class="edge">
<title>Node15&#45;&gt;Node17</title>
<path fill="none" stroke="midnightblue" d="M518.2,-57.54C499.1,-48.71 469.67,-35.11 447.75,-24.98"/>
<polygon fill="midnightblue" stroke="midnightblue" points="449.51,-21.47 438.96,-20.46 446.57,-27.83 449.51,-21.47"/>
</g>
<!-- Node15&#45;&gt;Node18 -->
<g id="edge19" class="edge">
<title>Node15&#45;&gt;Node18</title>
<path fill="none" stroke="midnightblue" d="M565.66,-60.52C571.27,-59.34 577.11,-58.12 582.59,-57 659.64,-41.2 681.87,-39.59 762.26,-21.19"/>
<polygon fill="midnightblue" stroke="midnightblue" points="762.94,-24.4 771.9,-18.74 761.37,-17.58 762.94,-24.4"/>
</g>
<!-- Node21 -->
<g id="node21" class="node">
<title>Node21</title>
<g id="a_node21"><a xlink:href="_win_8h.html" target="_top" xlink:title=" ">
<polygon fill="none" stroke="black" points="613.84,-171.5 613.84,-191.5 655.34,-191.5 655.34,-171.5 613.84,-171.5"/>
<text text-anchor="middle" x="634.59" y="-178" font-family="Helvetica,sans-Serif" font-size="10.00">Win.h</text>
</a>
</g>
</g>
<!-- Node20&#45;&gt;Node21 -->
<g id="edge25" class="edge">
<title>Node20&#45;&gt;Node21</title>
<path fill="none" stroke="midnightblue" d="M529.11,-228.54C549.43,-219.67 580.78,-205.99 604.03,-195.84"/>
<polygon fill="midnightblue" stroke="midnightblue" points="605.31,-198.66 613.07,-191.46 602.51,-192.25 605.31,-198.66"/>
</g>
<!-- Node22 -->
<g id="node22" class="node">
<title>Node22</title>
<g id="a_node22"><a xlink:title=" ">
<polygon fill="none" stroke="#bfbfbf" points="533.71,-114.5 533.71,-134.5 601.46,-134.5 601.46,-114.5 533.71,-114.5"/>
<text text-anchor="middle" x="567.59" y="-121" font-family="Helvetica,sans-Serif" font-size="10.00">sdkddkver.h</text>
</a>
</g>
</g>
<!-- Node21&#45;&gt;Node22 -->
<g id="edge26" class="edge">
<title>Node21&#45;&gt;Node22</title>
<path fill="none" stroke="midnightblue" d="M623.82,-171.66C613.92,-163.53 599,-151.28 587.01,-141.44"/>
<polygon fill="midnightblue" stroke="midnightblue" points="589.5,-138.14 579.55,-134.5 585.06,-143.55 589.5,-138.14"/>
</g>
<!-- Node23 -->
<g id="node23" class="node">
<title>Node23</title>
<g id="a_node23"><a xlink:title=" ">
<polygon fill="none" stroke="#bfbfbf" points="619.59,-114.5 619.59,-134.5 683.59,-134.5 683.59,-114.5 619.59,-114.5"/>
<text text-anchor="middle" x="651.59" y="-121" font-family="Helvetica,sans-Serif" font-size="10.00">Windows.h</text>
</a>
</g>
</g>
<!-- Node21&#45;&gt;Node23 -->
<g id="edge27" class="edge">
<title>Node21&#45;&gt;Node23</title>
<path fill="none" stroke="midnightblue" d="M637.24,-171.91C639.5,-164.6 642.82,-153.85 645.7,-144.54"/>
<polygon fill="midnightblue" stroke="midnightblue" points="649.29,-145.8 648.89,-135.21 642.6,-143.74 649.29,-145.8"/>
</g>
<!-- Node24&#45;&gt;Node6 -->
<g id="edge32" class="edge">
<title>Node24&#45;&gt;Node6</title>
<path fill="none" stroke="midnightblue" d="M281.19,-230.22C284.36,-229.45 287.54,-228.7 290.59,-228 345.42,-215.43 408.35,-202.45 452.45,-193.59"/>
<polygon fill="midnightblue" stroke="midnightblue" points="452.85,-196.88 461.96,-191.48 451.47,-190.01 452.85,-196.88"/>
</g>
<!-- Node24&#45;&gt;Node7 -->
<g id="edge35" class="edge">
<title>Node24&#45;&gt;Node7</title>
<path fill="none" stroke="midnightblue" d="M257.38,-228.72C265.27,-214.93 282.17,-188.02 302.59,-171 320.82,-155.8 344.98,-144.02 363.83,-136.26"/>
<polygon fill="midnightblue" stroke="midnightblue" points="364.94,-139.19 372.95,-132.26 362.37,-132.68 364.94,-139.19"/>
</g>
<!-- Node24&#45;&gt;Node21 -->
<g id="edge29" class="edge">
<title>Node24&#45;&gt;Node21</title>
<path fill="none" stroke="midnightblue" d="M281.14,-229.99C284.32,-229.26 287.52,-228.58 290.59,-228 412.13,-204.96 444,-208.56 566.59,-192 578.55,-190.38 591.69,-188.56 603.2,-186.95"/>
<polygon fill="midnightblue" stroke="midnightblue" points="603.65,-190.28 613.06,-185.42 602.67,-183.35 603.65,-190.28"/>
</g>
<!-- Node25 -->
<g id="node25" class="node">
<title>Node25</title>
<g id="a_node25"><a xlink:href="_colors_8h.html" target="_top" xlink:title=" ">
<polygon fill="none" stroke="black" points="165.59,-171.5 165.59,-191.5 217.59,-191.5 217.59,-171.5 165.59,-171.5"/>
<text text-anchor="middle" x="191.59" y="-178" font-family="Helvetica,sans-Serif" font-size="10.00">Colors.h</text>
</a>
</g>
</g>
<!-- Node24&#45;&gt;Node25 -->
<g id="edge30" class="edge">
<title>Node24&#45;&gt;Node25</title>
<path fill="none" stroke="midnightblue" d="M242.79,-228.66C233.86,-220.61 220.45,-208.52 209.59,-198.73"/>
<polygon fill="midnightblue" stroke="midnightblue" points="212.34,-196.59 202.57,-192.5 207.65,-201.79 212.34,-196.59"/>
</g>
<!-- Node26 -->
<g id="node26" class="node">
<title>Node26</title>
<g id="a_node26"><a xlink:title=" ">
<polygon fill="none" stroke="#bfbfbf" points="311.96,-171.5 311.96,-191.5 363.21,-191.5 363.21,-171.5 311.96,-171.5"/>
<text text-anchor="middle" x="337.59" y="-178" font-family="Helvetica,sans-Serif" font-size="10.00">assert.h</text>
</a>
</g>
</g>
<!-- Node24&#45;&gt;Node26 -->
<g id="edge33" class="edge">
<title>Node24&#45;&gt;Node26</title>
<path fill="none" stroke="midnightblue" d="M266.25,-228.66C279.3,-220.21 299.24,-207.31 314.72,-197.3"/>
<polygon fill="midnightblue" stroke="midnightblue" points="316.19,-199.87 322.68,-191.5 312.39,-193.99 316.19,-199.87"/>
</g>
<!-- Node24&#45;&gt;Node27 -->
<g id="edge34" class="edge">
<title>Node24&#45;&gt;Node27</title>
<path fill="none" stroke="midnightblue" d="M225.06,-228.54C196.24,-219.16 150.86,-204.39 119.3,-194.12"/>
<polygon fill="midnightblue" stroke="midnightblue" points="120.76,-190.59 110.17,-190.82 118.59,-197.25 120.76,-190.59"/>
</g>
<!-- Node28 -->
<g id="node28" class="node">
<title>Node28</title>
<g id="a_node28"><a xlink:title=" ">
<polygon fill="none" stroke="#bfbfbf" points="381.46,-171.5 381.46,-191.5 441.71,-191.5 441.71,-171.5 381.46,-171.5"/>
<text text-anchor="middle" x="411.59" y="-178" font-family="Helvetica,sans-Serif" font-size="10.00">filesystem</text>
</a>
</g>
</g>
<!-- Node24&#45;&gt;Node28 -->
<g id="edge36" class="edge">
<title>Node24&#45;&gt;Node28</title>
<path fill="none" stroke="midnightblue" d="M278.49,-228.54C304.82,-219.43 345.84,-205.24 375.38,-195.02"/>
<polygon fill="midnightblue" stroke="midnightblue" points="376.39,-198.03 384.7,-191.46 374.1,-191.42 376.39,-198.03"/>
</g>
<!-- Node25&#45;&gt;Node9 -->
<g id="edge31" class="edge">
<title>Node25&#45;&gt;Node9</title>
<path fill="none" stroke="midnightblue" d="M208.3,-171.66C224.65,-163.01 249.82,-149.7 268.94,-139.59"/>
<polygon fill="midnightblue" stroke="midnightblue" points="270.37,-142.27 277.58,-134.5 267.1,-136.08 270.37,-142.27"/>
</g>
<!-- Node31&#45;&gt;Node5 -->
<g id="edge54" class="edge">
<title>Node31&#45;&gt;Node5</title>
<path fill="none" stroke="midnightblue" d="M355.59,-342.91C355.59,-335.76 355.59,-325.32 355.59,-316.15"/>
<polygon fill="midnightblue" stroke="midnightblue" points="359.09,-316.21 355.59,-306.21 352.09,-316.21 359.09,-316.21"/>
</g>
<!-- Node31&#45;&gt;Node7 -->
<g id="edge55" class="edge">
<title>Node31&#45;&gt;Node7</title>
<path fill="none" stroke="midnightblue" d="M329.87,-343.28C282.56,-326.61 188.82,-285.45 214.59,-228 230.18,-193.25 246.16,-190.98 278.59,-171 293.32,-161.92 335.1,-146.24 364.02,-135.86"/>
<polygon fill="midnightblue" stroke="midnightblue" points="364.77,-138.95 373.02,-132.3 362.43,-132.36 364.77,-138.95"/>
</g>
<!-- Node32 -->
<g id="node32" class="node">
<title>Node32</title>
<g id="a_node32"><a xlink:href="_keyboard_8h.html" target="_top" xlink:title=" ">
<polygon fill="none" stroke="black" points="590.84,-285.5 590.84,-305.5 656.34,-305.5 656.34,-285.5 590.84,-285.5"/>
<text text-anchor="middle" x="623.59" y="-292" font-family="Helvetica,sans-Serif" font-size="10.00">Keyboard.h</text>
</a>
</g>
</g>
<!-- Node31&#45;&gt;Node32 -->
<g id="edge40" class="edge">
<title>Node31&#45;&gt;Node32</title>
<path fill="none" stroke="midnightblue" d="M381.29,-346.23C427.22,-336.8 523.88,-316.96 580.24,-305.4"/>
<polygon fill="midnightblue" stroke="midnightblue" points="580.86,-308.64 589.95,-303.2 579.45,-301.78 580.86,-308.64"/>
</g>
<!-- Node35 -->
<g id="node35" class="node">
<title>Node35</title>
<g id="a_node35"><a xlink:href="_mouse_8h.html" target="_top" xlink:title=" ">
<polygon fill="none" stroke="black" points="674.84,-285.5 674.84,-305.5 728.34,-305.5 728.34,-285.5 674.84,-285.5"/>
<text text-anchor="middle" x="701.59" y="-292" font-family="Helvetica,sans-Serif" font-size="10.00">Mouse.h</text>
</a>
</g>
</g>
<!-- Node31&#45;&gt;Node35 -->
<g id="edge43" class="edge">
<title>Node31&#45;&gt;Node35</title>
<path fill="none" stroke="midnightblue" d="M381.48,-348.7C433.24,-342.88 553.32,-328.32 664.23,-306.07"/>
<polygon fill="midnightblue" stroke="midnightblue" points="664.83,-309.32 673.93,-303.89 663.43,-302.46 664.83,-309.32"/>
</g>
<!-- Node33 -->
<g id="node33" class="node">
<title>Node33</title>
<g id="a_node33"><a xlink:title=" ">
<polygon fill="none" stroke="#bfbfbf" points="613.59,-228.5 613.59,-248.5 653.59,-248.5 653.59,-228.5 613.59,-228.5"/>
<text text-anchor="middle" x="633.59" y="-235" font-family="Helvetica,sans-Serif" font-size="10.00">bitset</text>
</a>
</g>
</g>
<!-- Node32&#45;&gt;Node33 -->
<g id="edge41" class="edge">
<title>Node32&#45;&gt;Node33</title>
<path fill="none" stroke="midnightblue" d="M625.15,-285.91C626.46,-278.68 628.39,-268.09 630.07,-258.85"/>
<polygon fill="midnightblue" stroke="midnightblue" points="633.66,-259.68 632,-249.21 626.77,-258.43 633.66,-259.68"/>
</g>
<!-- Node34 -->
<g id="node34" class="node">
<title>Node34</title>
<g id="a_node34"><a xlink:title=" ">
<polygon fill="none" stroke="#bfbfbf" points="671.46,-228.5 671.46,-248.5 713.71,-248.5 713.71,-228.5 671.46,-228.5"/>
<text text-anchor="middle" x="692.59" y="-235" font-family="Helvetica,sans-Serif" font-size="10.00">queue</text>
</a>
</g>
</g>
<!-- Node32&#45;&gt;Node34 -->
<g id="edge42" class="edge">
<title>Node32&#45;&gt;Node34</title>
<path fill="none" stroke="midnightblue" d="M634.67,-285.66C644.97,-277.45 660.55,-265.04 672.95,-255.15"/>
<polygon fill="midnightblue" stroke="midnightblue" points="674.66,-257.47 680.3,-248.5 670.3,-251.99 674.66,-257.47"/>
</g>
<!-- Node35&#45;&gt;Node34 -->
<g id="edge53" class="edge">
<title>Node35&#45;&gt;Node34</title>
<path fill="none" stroke="midnightblue" d="M700.18,-285.91C699,-278.68 697.27,-268.09 695.75,-258.85"/>
<polygon fill="midnightblue" stroke="midnightblue" points="699.08,-258.52 694.01,-249.21 692.18,-259.65 699.08,-258.52"/>
</g>
<!-- Node36 -->
<g id="node36" class="node">
<title>Node36</title>
<g id="a_node36"><a xlink:href="_vector2_8h.html" target="_top" xlink:title=" ">
<polygon fill="none" stroke="black" points="701.46,-114.5 701.46,-134.5 821.71,-134.5 821.71,-114.5 701.46,-114.5"/>
<text text-anchor="middle" x="761.59" y="-121" font-family="Helvetica,sans-Serif" font-size="10.00">LinearAlgebra/Vector2.h</text>
</a>
</g>
</g>
<!-- Node35&#45;&gt;Node36 -->
<g id="edge44" class="edge">
<title>Node35&#45;&gt;Node36</title>
<path fill="none" stroke="midnightblue" d="M706.11,-285.58C710.62,-276.51 717.57,-261.98 722.59,-249 736.6,-212.78 749.46,-169.21 756.34,-144.7"/>
<polygon fill="midnightblue" stroke="midnightblue" points="759.92,-145.89 759.22,-135.32 753.18,-144.02 759.92,-145.89"/>
</g>
<!-- Node36&#45;&gt;Node10 -->
<g id="edge45" class="edge">
<title>Node36&#45;&gt;Node10</title>
<path fill="none" stroke="midnightblue" d="M737.64,-114.54C713.22,-105.4 675.14,-91.16 647.81,-80.93"/>
<polygon fill="midnightblue" stroke="midnightblue" points="649.15,-77.32 638.55,-77.09 646.69,-83.88 649.15,-77.32"/>
</g>
<!-- Node36&#45;&gt;Node15 -->
<g id="edge48" class="edge">
<title>Node36&#45;&gt;Node15</title>
<path fill="none" stroke="midnightblue" d="M725.1,-114.54C684.13,-104.48 617.93,-88.23 576.14,-77.97"/>
<polygon fill="midnightblue" stroke="midnightblue" points="577.1,-74.35 566.55,-75.37 575.43,-81.15 577.1,-74.35"/>
</g>
<!-- Node36&#45;&gt;Node16 -->
<g id="edge49" class="edge">
<title>Node36&#45;&gt;Node16</title>
<path fill="none" stroke="midnightblue" d="M701.69,-114.66C627.01,-103.4 508.15,-84.62 500.59,-78 487.22,-66.3 482.27,-46.16 480.49,-31.1"/>
<polygon fill="midnightblue" stroke="midnightblue" points="483.92,-31.06 479.64,-21.37 476.94,-31.62 483.92,-31.06"/>
</g>
<!-- Node36&#45;&gt;Node17 -->
<g id="edge51" class="edge">
<title>Node36&#45;&gt;Node17</title>
<path fill="none" stroke="midnightblue" d="M701.7,-114.72C622.63,-102.98 492.23,-83.06 482.59,-78 460.5,-66.41 441.61,-44.32 430.19,-28.79"/>
<polygon fill="midnightblue" stroke="midnightblue" points="432.71,-27.29 424.09,-21.12 426.98,-31.31 432.71,-27.29"/>
</g>
<!-- Node36&#45;&gt;Node18 -->
<g id="edge52" class="edge">
<title>Node36&#45;&gt;Node18</title>
<path fill="none" stroke="midnightblue" d="M759.92,-114.56C757.88,-101.47 755.48,-76.53 762.59,-57 766.52,-46.18 774.2,-36.04 781.55,-28.09"/>
<polygon fill="midnightblue" stroke="midnightblue" points="783.63,-30.96 788.2,-21.4 778.67,-26.02 783.63,-30.96"/>
</g>
<!-- Node36&#45;&gt;Node19 -->
<g id="edge50" class="edge">
<title>Node36&#45;&gt;Node19</title>
<path fill="none" stroke="midnightblue" d="M701.75,-115.26C698.65,-114.83 695.58,-114.41 692.59,-114 575.71,-97.95 545.62,-99.34 429.59,-78 428.25,-77.75 426.9,-77.5 425.53,-77.22"/>
<polygon fill="midnightblue" stroke="midnightblue" points="426.49,-73.64 415.98,-74.99 425.04,-80.49 426.49,-73.64"/>
</g>
<!-- Node37 -->
<g id="node37" class="node">
<title>Node37</title>
<g id="a_node37"><a xlink:href="_matrix2_8h.html" target="_top" xlink:title=" ">
<polygon fill="none" stroke="black" points="771.34,-57.5 771.34,-77.5 827.84,-77.5 827.84,-57.5 771.34,-57.5"/>
<text text-anchor="middle" x="799.59" y="-64" font-family="Helvetica,sans-Serif" font-size="10.00">Matrix2.h</text>
</a>
</g>
</g>
<!-- Node36&#45;&gt;Node37 -->
<g id="edge46" class="edge">
<title>Node36&#45;&gt;Node37</title>
<path fill="none" stroke="midnightblue" d="M767.53,-114.91C772.85,-107.2 780.82,-95.66 787.49,-86.02"/>
<polygon fill="midnightblue" stroke="midnightblue" points="790.76,-88.43 793.57,-78.21 785,-84.45 790.76,-88.43"/>
</g>
<!-- Node37&#45;&gt;Node18 -->
<g id="edge47" class="edge">
<title>Node37&#45;&gt;Node18</title>
<path fill="none" stroke="midnightblue" d="M799.59,-57.91C799.59,-50.76 799.59,-40.32 799.59,-31.15"/>
<polygon fill="midnightblue" stroke="midnightblue" points="803.09,-31.21 799.59,-21.21 796.09,-31.21 803.09,-31.21"/>
</g>
<!-- Node39&#45;&gt;Node5 -->
<g id="edge61" class="edge">
<title>Node39&#45;&gt;Node5</title>
<path fill="none" stroke="midnightblue" d="M622.77,-344.37C564.58,-333.94 456.8,-314.63 397.46,-304"/>
<polygon fill="midnightblue" stroke="midnightblue" points="398.43,-300.44 387.97,-302.12 397.2,-307.33 398.43,-300.44"/>
</g>
<!-- Node39&#45;&gt;Node6 -->
<g id="edge60" class="edge">
<title>Node39&#45;&gt;Node6</title>
<path fill="none" stroke="midnightblue" d="M690.26,-342.62C707.2,-335.59 727.5,-323.92 737.59,-306 749.13,-285.5 732.6,-237.55 722.59,-228 700.74,-207.18 623.56,-194.67 568.16,-188.18"/>
<polygon fill="midnightblue" stroke="midnightblue" points="568.72,-184.61 558.39,-186.97 567.94,-191.57 568.72,-184.61"/>
</g>
<!-- Node39&#45;&gt;Node7 -->
<g id="edge64" class="edge">
<title>Node39&#45;&gt;Node7</title>
<path fill="none" stroke="midnightblue" d="M633.06,-342.63C615.15,-335.64 593.52,-324.02 581.59,-306 548.26,-255.66 606.32,-216.46 566.59,-171 525.3,-123.75 489.62,-150.35 423.87,-134.95"/>
<polygon fill="midnightblue" stroke="midnightblue" points="425.06,-131.38 414.5,-132.23 423.28,-138.15 425.06,-131.38"/>
</g>
<!-- Node39&#45;&gt;Node21 -->
<g id="edge59" class="edge">
<title>Node39&#45;&gt;Node21</title>
<path fill="none" stroke="midnightblue" d="M702.25,-345.89C726.41,-340.2 755.45,-328.8 770.59,-306 775.75,-298.22 771.79,-294.26 770.59,-285 767.23,-259.02 773.14,-247.45 755.59,-228 732.33,-202.23 693,-190.99 665.51,-186.13"/>
<polygon fill="midnightblue" stroke="midnightblue" points="666.32,-182.56 655.9,-184.46 665.23,-189.47 666.32,-182.56"/>
</g>
<!-- Node39&#45;&gt;Node32 -->
<g id="edge62" class="edge">
<title>Node39&#45;&gt;Node32</title>
<path fill="none" stroke="midnightblue" d="M656.49,-342.91C651.03,-335.2 642.85,-323.66 636.01,-314.02"/>
<polygon fill="midnightblue" stroke="midnightblue" points="638.41,-312.35 629.77,-306.21 632.7,-316.4 638.41,-312.35"/>
</g>
<!-- Node39&#45;&gt;Node35 -->
<g id="edge63" class="edge">
<title>Node39&#45;&gt;Node35</title>
<path fill="none" stroke="midnightblue" d="M668.68,-342.91C674.15,-335.2 682.33,-323.66 689.17,-314.02"/>
<polygon fill="midnightblue" stroke="midnightblue" points="692.48,-316.4 695.41,-306.21 686.77,-312.35 692.48,-316.4"/>
</g>
</g>
</svg>
