<?xml version="1.0" encoding="UTF-8" standalone="no"?>
<!DOCTYPE svg PUBLIC "-//W3C//DTD SVG 1.1//EN"
 "http://www.w3.org/Graphics/SVG/1.1/DTD/svg11.dtd">
<!-- Generated by graphviz version 8.1.0 (20230707.0739)
 -->
<!-- Title: include/MainWindow.h Pages: 1 -->
<svg width="834pt" height="371pt"
 viewBox="0.00 0.00 834.12 371.00" xmlns="http://www.w3.org/2000/svg" xmlns:xlink="http://www.w3.org/1999/xlink">
<g id="graph0" class="graph" transform="scale(1 1) rotate(0) translate(4 367)">
<title>include/MainWindow.h</title>
<!-- Node1 -->
<g id="node1" class="node">
<title>Node1</title>
<g id="a_node1"><a xlink:title=" ">
<polygon fill="#bfbfbf" stroke="black" points="257.12,-342.5 257.12,-362.5 370.62,-362.5 370.62,-342.5 257.12,-342.5"/>
<text text-anchor="middle" x="313.88" y="-349" font-family="Helvetica,sans-Serif" font-size="10.00">include/MainWindow.h</text>
</a>
</g>
</g>
<!-- Node2 -->
<g id="node2" class="node">
<title>Node2</title>
<g id="a_node2"><a xlink:href="_win_8h.html" target="_top" xlink:title=" ">
<polygon fill="none" stroke="black" points="55.12,-171.5 55.12,-191.5 96.62,-191.5 96.62,-171.5 55.12,-171.5"/>
<text text-anchor="middle" x="75.88" y="-178" font-family="Helvetica,sans-Serif" font-size="10.00">Win.h</text>
</a>
</g>
</g>
<!-- Node1&#45;&gt;Node2 -->
<g id="edge1" class="edge">
<title>Node1&#45;&gt;Node2</title>
<path fill="none" stroke="midnightblue" d="M257.34,-345.65C203.93,-338.99 128.93,-326.31 107.88,-306 79.53,-278.67 75.12,-229.74 75.07,-202.39"/>
<polygon fill="midnightblue" stroke="midnightblue" points="78.59,-202.57 75.29,-192.5 71.59,-202.43 78.59,-202.57"/>
</g>
<!-- Node5 -->
<g id="node5" class="node">
<title>Node5</title>
<g id="a_node5"><a xlink:href="_engine_exception_8h.html" target="_top" xlink:title=" ">
<polygon fill="none" stroke="black" points="226,-171.5 226,-191.5 323.75,-191.5 323.75,-171.5 226,-171.5"/>
<text text-anchor="middle" x="274.88" y="-178" font-family="Helvetica,sans-Serif" font-size="10.00">EngineException.h</text>
</a>
</g>
</g>
<!-- Node1&#45;&gt;Node5 -->
<g id="edge4" class="edge">
<title>Node1&#45;&gt;Node5</title>
<path fill="none" stroke="midnightblue" d="M311.89,-342.89C305.86,-316.79 287.71,-238.14 279.28,-201.57"/>
<polygon fill="midnightblue" stroke="midnightblue" points="282.56,-201.26 276.91,-192.3 275.74,-202.83 282.56,-201.26"/>
</g>
<!-- Node6 -->
<g id="node6" class="node">
<title>Node6</title>
<g id="a_node6"><a xlink:title=" ">
<polygon fill="none" stroke="#bfbfbf" points="297.88,-114.5 297.88,-134.5 337.88,-134.5 337.88,-114.5 297.88,-114.5"/>
<text text-anchor="middle" x="317.88" y="-121" font-family="Helvetica,sans-Serif" font-size="10.00">string</text>
</a>
</g>
</g>
<!-- Node1&#45;&gt;Node6 -->
<g id="edge52" class="edge">
<title>Node1&#45;&gt;Node6</title>
<path fill="none" stroke="midnightblue" d="M275.26,-342.62C215.41,-326.77 110.18,-289.39 140.88,-228 159.76,-190.24 180.52,-192.47 216.88,-171 239.86,-157.43 267.61,-145.2 288.21,-136.84"/>
<polygon fill="midnightblue" stroke="midnightblue" points="289.26,-139.79 297.26,-132.84 286.67,-133.29 289.26,-139.79"/>
</g>
<!-- Node8 -->
<g id="node8" class="node">
<title>Node8</title>
<g id="a_node8"><a xlink:href="_graphics_8h.html" target="_top" xlink:title=" ">
<polygon fill="none" stroke="black" points="320.25,-285.5 320.25,-305.5 383.5,-305.5 383.5,-285.5 320.25,-285.5"/>
<text text-anchor="middle" x="351.88" y="-292" font-family="Helvetica,sans-Serif" font-size="10.00">Graphics.h</text>
</a>
</g>
</g>
<!-- Node1&#45;&gt;Node8 -->
<g id="edge7" class="edge">
<title>Node1&#45;&gt;Node8</title>
<path fill="none" stroke="midnightblue" d="M319.81,-342.91C325.14,-335.2 333.11,-323.66 339.77,-314.02"/>
<polygon fill="midnightblue" stroke="midnightblue" points="343.05,-316.43 345.85,-306.21 337.29,-312.45 343.05,-316.43"/>
</g>
<!-- Node28 -->
<g id="node28" class="node">
<title>Node28</title>
<g id="a_node28"><a xlink:href="_keyboard_8h.html" target="_top" xlink:title=" ">
<polygon fill="none" stroke="black" points="557.12,-285.5 557.12,-305.5 622.62,-305.5 622.62,-285.5 557.12,-285.5"/>
<text text-anchor="middle" x="589.88" y="-292" font-family="Helvetica,sans-Serif" font-size="10.00">Keyboard.h</text>
</a>
</g>
</g>
<!-- Node1&#45;&gt;Node28 -->
<g id="edge38" class="edge">
<title>Node1&#45;&gt;Node28</title>
<path fill="none" stroke="midnightblue" d="M358.83,-342.54C410.78,-332.19 495.64,-315.28 546.78,-305.09"/>
<polygon fill="midnightblue" stroke="midnightblue" points="547.34,-308.35 556.46,-302.96 545.97,-301.48 547.34,-308.35"/>
</g>
<!-- Node31 -->
<g id="node31" class="node">
<title>Node31</title>
<g id="a_node31"><a xlink:href="_mouse_8h.html" target="_top" xlink:title=" ">
<polygon fill="none" stroke="black" points="641.12,-285.5 641.12,-305.5 694.62,-305.5 694.62,-285.5 641.12,-285.5"/>
<text text-anchor="middle" x="667.88" y="-292" font-family="Helvetica,sans-Serif" font-size="10.00">Mouse.h</text>
</a>
</g>
</g>
<!-- Node1&#45;&gt;Node31 -->
<g id="edge41" class="edge">
<title>Node1&#45;&gt;Node31</title>
<path fill="none" stroke="midnightblue" d="M370.51,-345.41C432.12,-338.33 533.69,-325.35 630.64,-306.04"/>
<polygon fill="midnightblue" stroke="midnightblue" points="631.11,-309.31 640.22,-303.9 629.72,-302.45 631.11,-309.31"/>
</g>
<!-- Node3 -->
<g id="node3" class="node">
<title>Node3</title>
<g id="a_node3"><a xlink:title=" ">
<polygon fill="none" stroke="#bfbfbf" points="0,-114.5 0,-134.5 67.75,-134.5 67.75,-114.5 0,-114.5"/>
<text text-anchor="middle" x="33.88" y="-121" font-family="Helvetica,sans-Serif" font-size="10.00">sdkddkver.h</text>
</a>
</g>
</g>
<!-- Node2&#45;&gt;Node3 -->
<g id="edge2" class="edge">
<title>Node2&#45;&gt;Node3</title>
<path fill="none" stroke="midnightblue" d="M69.31,-171.91C63.37,-164.12 54.43,-152.42 47.02,-142.71"/>
<polygon fill="midnightblue" stroke="midnightblue" points="49.38,-141.04 40.53,-135.21 43.82,-145.29 49.38,-141.04"/>
</g>
<!-- Node4 -->
<g id="node4" class="node">
<title>Node4</title>
<g id="a_node4"><a xlink:title=" ">
<polygon fill="none" stroke="#bfbfbf" points="85.88,-114.5 85.88,-134.5 149.88,-134.5 149.88,-114.5 85.88,-114.5"/>
<text text-anchor="middle" x="117.88" y="-121" font-family="Helvetica,sans-Serif" font-size="10.00">Windows.h</text>
</a>
</g>
</g>
<!-- Node2&#45;&gt;Node4 -->
<g id="edge3" class="edge">
<title>Node2&#45;&gt;Node4</title>
<path fill="none" stroke="midnightblue" d="M82.44,-171.91C88.38,-164.12 97.32,-152.42 104.73,-142.71"/>
<polygon fill="midnightblue" stroke="midnightblue" points="107.93,-145.29 111.22,-135.21 102.37,-141.04 107.93,-145.29"/>
</g>
<!-- Node5&#45;&gt;Node6 -->
<g id="edge5" class="edge">
<title>Node5&#45;&gt;Node6</title>
<path fill="none" stroke="midnightblue" d="M281.59,-171.91C287.68,-164.12 296.83,-152.42 304.42,-142.71"/>
<polygon fill="midnightblue" stroke="midnightblue" points="307.66,-145.25 311.06,-135.21 302.14,-140.94 307.66,-145.25"/>
</g>
<!-- Node7 -->
<g id="node7" class="node">
<title>Node7</title>
<g id="a_node7"><a xlink:title=" ">
<polygon fill="none" stroke="#bfbfbf" points="195.75,-114.5 195.75,-134.5 280,-134.5 280,-114.5 195.75,-114.5"/>
<text text-anchor="middle" x="237.88" y="-121" font-family="Helvetica,sans-Serif" font-size="10.00">source_location</text>
</a>
</g>
</g>
<!-- Node5&#45;&gt;Node7 -->
<g id="edge6" class="edge">
<title>Node5&#45;&gt;Node7</title>
<path fill="none" stroke="midnightblue" d="M269.09,-171.91C263.96,-164.28 256.31,-152.9 249.86,-143.32"/>
<polygon fill="midnightblue" stroke="midnightblue" points="252.22,-141.56 243.74,-135.21 246.42,-145.47 252.22,-141.56"/>
</g>
<!-- Node8&#45;&gt;Node5 -->
<g id="edge8" class="edge">
<title>Node8&#45;&gt;Node5</title>
<path fill="none" stroke="midnightblue" d="M345.83,-285.71C333.18,-267.31 303.7,-224.43 286.99,-200.12"/>
<polygon fill="midnightblue" stroke="midnightblue" points="289.44,-198.51 280.89,-192.25 283.67,-202.47 289.44,-198.51"/>
</g>
<!-- Node9 -->
<g id="node9" class="node">
<title>Node9</title>
<g id="a_node9"><a xlink:href="_vector3_8h.html" target="_top" xlink:title=" ">
<polygon fill="none" stroke="black" points="383.75,-114.5 383.75,-134.5 504,-134.5 504,-114.5 383.75,-114.5"/>
<text text-anchor="middle" x="443.88" y="-121" font-family="Helvetica,sans-Serif" font-size="10.00">LinearAlgebra/Vector3.h</text>
</a>
</g>
</g>
<!-- Node8&#45;&gt;Node9 -->
<g id="edge9" class="edge">
<title>Node8&#45;&gt;Node9</title>
<path fill="none" stroke="midnightblue" d="M353.51,-285.58C356.1,-272.52 361.8,-247.62 370.88,-228 386.07,-195.13 412.19,-161.86 428.72,-142.48"/>
<polygon fill="midnightblue" stroke="midnightblue" points="431.85,-145.22 435.77,-135.38 426.57,-140.62 431.85,-145.22"/>
</g>
<!-- Node20 -->
<g id="node20" class="node">
<title>Node20</title>
<g id="a_node20"><a xlink:href="_g_d_i_plus_manager_8h.html" target="_top" xlink:title=" ">
<polygon fill="none" stroke="black" points="150,-228.5 150,-248.5 247.75,-248.5 247.75,-228.5 150,-228.5"/>
<text text-anchor="middle" x="198.88" y="-235" font-family="Helvetica,sans-Serif" font-size="10.00">GDIPlusManager.h</text>
</a>
</g>
</g>
<!-- Node8&#45;&gt;Node20 -->
<g id="edge25" class="edge">
<title>Node8&#45;&gt;Node20</title>
<path fill="none" stroke="midnightblue" d="M326.95,-285.54C301.72,-276.47 262.49,-262.37 234.09,-252.16"/>
<polygon fill="midnightblue" stroke="midnightblue" points="235.38,-248.54 224.79,-248.46 233.01,-255.13 235.38,-248.54"/>
</g>
<!-- Node21 -->
<g id="node21" class="node">
<title>Node21</title>
<g id="a_node21"><a xlink:href="_surface_8h.html" target="_top" xlink:title=" ">
<polygon fill="none" stroke="black" points="380.25,-228.5 380.25,-248.5 437.5,-248.5 437.5,-228.5 380.25,-228.5"/>
<text text-anchor="middle" x="408.88" y="-235" font-family="Helvetica,sans-Serif" font-size="10.00">Surface.h</text>
</a>
</g>
</g>
<!-- Node8&#45;&gt;Node21 -->
<g id="edge27" class="edge">
<title>Node8&#45;&gt;Node21</title>
<path fill="none" stroke="midnightblue" d="M361.03,-285.66C369.29,-277.69 381.66,-265.76 391.75,-256.02"/>
<polygon fill="midnightblue" stroke="midnightblue" points="393.78,-258.96 398.55,-249.5 388.92,-253.92 393.78,-258.96"/>
</g>
<!-- Node26 -->
<g id="node26" class="node">
<title>Node26</title>
<g id="a_node26"><a xlink:title=" ">
<polygon fill="none" stroke="#bfbfbf" points="455.62,-228.5 455.62,-248.5 506.12,-248.5 506.12,-228.5 455.62,-228.5"/>
<text text-anchor="middle" x="480.88" y="-235" font-family="Helvetica,sans-Serif" font-size="10.00">d3d11.h</text>
</a>
</g>
</g>
<!-- Node8&#45;&gt;Node26 -->
<g id="edge36" class="edge">
<title>Node8&#45;&gt;Node26</title>
<path fill="none" stroke="midnightblue" d="M372.89,-285.54C393.78,-276.63 426.08,-262.86 449.91,-252.7"/>
<polygon fill="midnightblue" stroke="midnightblue" points="451.04,-255.6 458.87,-248.46 448.3,-249.16 451.04,-255.6"/>
</g>
<!-- Node27 -->
<g id="node27" class="node">
<title>Node27</title>
<g id="a_node27"><a xlink:title=" ">
<polygon fill="none" stroke="#bfbfbf" points="523.75,-228.5 523.75,-248.5 560,-248.5 560,-228.5 523.75,-228.5"/>
<text text-anchor="middle" x="541.88" y="-235" font-family="Helvetica,sans-Serif" font-size="10.00">wrl.h</text>
</a>
</g>
</g>
<!-- Node8&#45;&gt;Node27 -->
<g id="edge37" class="edge">
<title>Node8&#45;&gt;Node27</title>
<path fill="none" stroke="midnightblue" d="M383.3,-286.39C414.2,-278.27 462.91,-265.09 513.73,-249.21"/>
<polygon fill="midnightblue" stroke="midnightblue" points="514.44,-252.35 522.92,-246 512.33,-245.67 514.44,-252.35"/>
</g>
<!-- Node10 -->
<g id="node10" class="node">
<title>Node10</title>
<g id="a_node10"><a xlink:href="_math_8h.html" target="_top" xlink:title=" ">
<polygon fill="none" stroke="black" points="313.88,-57.5 313.88,-77.5 359.88,-77.5 359.88,-57.5 313.88,-57.5"/>
<text text-anchor="middle" x="336.88" y="-64" font-family="Helvetica,sans-Serif" font-size="10.00">Math.h</text>
</a>
</g>
</g>
<!-- Node9&#45;&gt;Node10 -->
<g id="edge10" class="edge">
<title>Node9&#45;&gt;Node10</title>
<path fill="none" stroke="midnightblue" d="M426.68,-114.66C409.78,-105.97 383.72,-92.58 364.02,-82.45"/>
<polygon fill="midnightblue" stroke="midnightblue" points="365.87,-78.96 355.38,-77.5 362.67,-85.18 365.87,-78.96"/>
</g>
<!-- Node15 -->
<g id="node15" class="node">
<title>Node15</title>
<g id="a_node15"><a xlink:href="_matrix3_8h.html" target="_top" xlink:title=" ">
<polygon fill="none" stroke="black" points="471.62,-57.5 471.62,-77.5 528.12,-77.5 528.12,-57.5 471.62,-57.5"/>
<text text-anchor="middle" x="499.88" y="-64" font-family="Helvetica,sans-Serif" font-size="10.00">Matrix3.h</text>
</a>
</g>
</g>
<!-- Node9&#45;&gt;Node15 -->
<g id="edge16" class="edge">
<title>Node9&#45;&gt;Node15</title>
<path fill="none" stroke="midnightblue" d="M452.87,-114.66C460.99,-106.69 473.14,-94.76 483.05,-85.02"/>
<polygon fill="midnightblue" stroke="midnightblue" points="485.03,-88 489.71,-78.5 480.13,-83.01 485.03,-88"/>
</g>
<!-- Node16 -->
<g id="node16" class="node">
<title>Node16</title>
<g id="a_node16"><a xlink:title=" ">
<polygon fill="none" stroke="#bfbfbf" points="481,-0.5 481,-20.5 518.75,-20.5 518.75,-0.5 481,-0.5"/>
<text text-anchor="middle" x="499.88" y="-7" font-family="Helvetica,sans-Serif" font-size="10.00">array</text>
</a>
</g>
</g>
<!-- Node9&#45;&gt;Node16 -->
<g id="edge21" class="edge">
<title>Node9&#45;&gt;Node16</title>
<path fill="none" stroke="midnightblue" d="M438.47,-114.77C431.03,-101.52 419.63,-75.87 429.88,-57 438.64,-40.85 455.88,-29.54 471.06,-22.24"/>
<polygon fill="midnightblue" stroke="midnightblue" points="472.37,-25.04 480.11,-17.81 469.55,-18.64 472.37,-25.04"/>
</g>
<!-- Node17 -->
<g id="node17" class="node">
<title>Node17</title>
<g id="a_node17"><a xlink:title=" ">
<polygon fill="none" stroke="#bfbfbf" points="537.12,-0.5 537.12,-20.5 584.62,-20.5 584.62,-0.5 537.12,-0.5"/>
<text text-anchor="middle" x="560.88" y="-7" font-family="Helvetica,sans-Serif" font-size="10.00">cstddef</text>
</a>
</g>
</g>
<!-- Node9&#45;&gt;Node17 -->
<g id="edge24" class="edge">
<title>Node9&#45;&gt;Node17</title>
<path fill="none" stroke="midnightblue" d="M444.13,-114.66C444.99,-100.8 448.52,-73.79 462.88,-57 471.78,-46.58 502.45,-33.23 527.13,-23.69"/>
<polygon fill="midnightblue" stroke="midnightblue" points="528.15,-26.67 536.27,-19.86 525.68,-20.12 528.15,-26.67"/>
</g>
<!-- Node18 -->
<g id="node18" class="node">
<title>Node18</title>
<g id="a_node18"><a xlink:title=" ">
<polygon fill="none" stroke="#bfbfbf" points="659.12,-0.5 659.12,-20.5 712.62,-20.5 712.62,-0.5 659.12,-0.5"/>
<text text-anchor="middle" x="685.88" y="-7" font-family="Helvetica,sans-Serif" font-size="10.00">iostream</text>
</a>
</g>
</g>
<!-- Node9&#45;&gt;Node18 -->
<g id="edge22" class="edge">
<title>Node9&#45;&gt;Node18</title>
<path fill="none" stroke="midnightblue" d="M462.89,-114.54C481.79,-105.55 511.52,-91.2 536.88,-78 553.99,-69.09 557.47,-65.34 574.88,-57 600.05,-44.93 629.3,-33.03 651.45,-24.42"/>
<polygon fill="midnightblue" stroke="midnightblue" points="652.63,-27.33 660.71,-20.48 650.12,-20.8 652.63,-27.33"/>
</g>
<!-- Node19 -->
<g id="node19" class="node">
<title>Node19</title>
<g id="a_node19"><a xlink:title=" ">
<polygon fill="none" stroke="#bfbfbf" points="584.12,-57.5 584.12,-77.5 637.62,-77.5 637.62,-57.5 584.12,-57.5"/>
<text text-anchor="middle" x="610.88" y="-64" font-family="Helvetica,sans-Serif" font-size="10.00">compare</text>
</a>
</g>
</g>
<!-- Node9&#45;&gt;Node19 -->
<g id="edge23" class="edge">
<title>Node9&#45;&gt;Node19</title>
<path fill="none" stroke="midnightblue" d="M471.08,-114.54C499.02,-105.34 542.71,-90.95 573.81,-80.71"/>
<polygon fill="midnightblue" stroke="midnightblue" points="574.83,-83.73 583.24,-77.27 572.64,-77.08 574.83,-83.73"/>
</g>
<!-- Node10&#45;&gt;Node10 -->
<g id="edge11" class="edge">
<title>Node10&#45;&gt;Node10</title>
<path fill="none" stroke="midnightblue" d="M355.43,-77.43C366.93,-79.83 377.88,-76.52 377.88,-67.5 377.88,-61.44 372.93,-57.96 366.2,-57.05"/>
<polygon fill="midnightblue" stroke="midnightblue" points="366.25,-53.59 356.43,-57.57 366.58,-60.59 366.25,-53.59"/>
</g>
<!-- Node11 -->
<g id="node11" class="node">
<title>Node11</title>
<g id="a_node11"><a xlink:title=" ">
<polygon fill="none" stroke="#bfbfbf" points="420.38,-0.5 420.38,-20.5 463.38,-20.5 463.38,-0.5 420.38,-0.5"/>
<text text-anchor="middle" x="441.88" y="-7" font-family="Helvetica,sans-Serif" font-size="10.00">cmath</text>
</a>
</g>
</g>
<!-- Node10&#45;&gt;Node11 -->
<g id="edge12" class="edge">
<title>Node10&#45;&gt;Node11</title>
<path fill="none" stroke="midnightblue" d="M353.75,-57.66C370.26,-49.01 395.67,-35.7 414.97,-25.59"/>
<polygon fill="midnightblue" stroke="midnightblue" points="416.46,-28.24 423.7,-20.5 413.22,-22.04 416.46,-28.24"/>
</g>
<!-- Node12 -->
<g id="node12" class="node">
<title>Node12</title>
<g id="a_node12"><a xlink:title=" ">
<polygon fill="none" stroke="#bfbfbf" points="363.25,-0.5 363.25,-20.5 402.5,-20.5 402.5,-0.5 363.25,-0.5"/>
<text text-anchor="middle" x="382.88" y="-7" font-family="Helvetica,sans-Serif" font-size="10.00">limits</text>
</a>
</g>
</g>
<!-- Node10&#45;&gt;Node12 -->
<g id="edge13" class="edge">
<title>Node10&#45;&gt;Node12</title>
<path fill="none" stroke="midnightblue" d="M344.06,-57.91C350.64,-50.04 360.56,-38.18 368.73,-28.42"/>
<polygon fill="midnightblue" stroke="midnightblue" points="371.86,-31.13 375.59,-21.21 366.49,-26.64 371.86,-31.13"/>
</g>
<!-- Node13 -->
<g id="node13" class="node">
<title>Node13</title>
<g id="a_node13"><a xlink:title=" ">
<polygon fill="none" stroke="#bfbfbf" points="225.12,-0.5 225.12,-20.5 278.62,-20.5 278.62,-0.5 225.12,-0.5"/>
<text text-anchor="middle" x="251.88" y="-7" font-family="Helvetica,sans-Serif" font-size="10.00">numbers</text>
</a>
</g>
</g>
<!-- Node10&#45;&gt;Node13 -->
<g id="edge14" class="edge">
<title>Node10&#45;&gt;Node13</title>
<path fill="none" stroke="midnightblue" d="M323.22,-57.66C310.16,-49.21 290.22,-36.31 274.74,-26.3"/>
<polygon fill="midnightblue" stroke="midnightblue" points="277.08,-22.99 266.78,-20.5 273.27,-28.87 277.08,-22.99"/>
</g>
<!-- Node14 -->
<g id="node14" class="node">
<title>Node14</title>
<g id="a_node14"><a xlink:title=" ">
<polygon fill="none" stroke="#bfbfbf" points="296.75,-0.5 296.75,-20.5 345,-20.5 345,-0.5 296.75,-0.5"/>
<text text-anchor="middle" x="320.88" y="-7" font-family="Helvetica,sans-Serif" font-size="10.00">random</text>
</a>
</g>
</g>
<!-- Node10&#45;&gt;Node14 -->
<g id="edge15" class="edge">
<title>Node10&#45;&gt;Node14</title>
<path fill="none" stroke="midnightblue" d="M334.38,-57.91C332.25,-50.6 329.12,-39.85 326.41,-30.54"/>
<polygon fill="midnightblue" stroke="midnightblue" points="329.56,-29.84 323.41,-21.21 322.84,-31.79 329.56,-29.84"/>
</g>
<!-- Node15&#45;&gt;Node11 -->
<g id="edge18" class="edge">
<title>Node15&#45;&gt;Node11</title>
<path fill="none" stroke="midnightblue" d="M490.56,-57.66C482.15,-49.69 469.57,-37.76 459.3,-28.02"/>
<polygon fill="midnightblue" stroke="midnightblue" points="462.03,-25.84 452.36,-21.5 457.21,-30.92 462.03,-25.84"/>
</g>
<!-- Node15&#45;&gt;Node16 -->
<g id="edge17" class="edge">
<title>Node15&#45;&gt;Node16</title>
<path fill="none" stroke="midnightblue" d="M499.88,-57.91C499.88,-50.76 499.88,-40.32 499.88,-31.15"/>
<polygon fill="midnightblue" stroke="midnightblue" points="503.38,-31.21 499.88,-21.21 496.38,-31.21 503.38,-31.21"/>
</g>
<!-- Node15&#45;&gt;Node17 -->
<g id="edge19" class="edge">
<title>Node15&#45;&gt;Node17</title>
<path fill="none" stroke="midnightblue" d="M509.68,-57.66C518.6,-49.61 532.01,-37.52 542.87,-27.73"/>
<polygon fill="midnightblue" stroke="midnightblue" points="544.81,-30.79 549.9,-21.5 540.13,-25.59 544.81,-30.79"/>
</g>
<!-- Node15&#45;&gt;Node18 -->
<g id="edge20" class="edge">
<title>Node15&#45;&gt;Node18</title>
<path fill="none" stroke="midnightblue" d="M528.12,-58.15C560.36,-48.61 613.2,-32.99 648.74,-22.48"/>
<polygon fill="midnightblue" stroke="midnightblue" points="649.58,-25.59 658.17,-19.4 647.59,-18.88 649.58,-25.59"/>
</g>
<!-- Node20&#45;&gt;Node2 -->
<g id="edge26" class="edge">
<title>Node20&#45;&gt;Node2</title>
<path fill="none" stroke="midnightblue" d="M178.84,-228.54C159,-219.67 128.4,-205.99 105.71,-195.84"/>
<polygon fill="midnightblue" stroke="midnightblue" points="107.46,-192.34 96.9,-191.46 104.6,-198.73 107.46,-192.34"/>
</g>
<!-- Node21&#45;&gt;Node2 -->
<g id="edge28" class="edge">
<title>Node21&#45;&gt;Node2</title>
<path fill="none" stroke="midnightblue" d="M380.48,-232.81C318.46,-222.57 171.3,-198.26 106.92,-187.63"/>
<polygon fill="midnightblue" stroke="midnightblue" points="107.7,-184.04 97.26,-185.87 106.55,-190.95 107.7,-184.04"/>
</g>
<!-- Node21&#45;&gt;Node5 -->
<g id="edge31" class="edge">
<title>Node21&#45;&gt;Node5</title>
<path fill="none" stroke="midnightblue" d="M387.05,-228.54C365.24,-219.59 331.49,-205.74 306.71,-195.57"/>
<polygon fill="midnightblue" stroke="midnightblue" points="308.27,-192.01 297.69,-191.46 305.62,-198.49 308.27,-192.01"/>
</g>
<!-- Node21&#45;&gt;Node6 -->
<g id="edge34" class="edge">
<title>Node21&#45;&gt;Node6</title>
<path fill="none" stroke="midnightblue" d="M401.73,-228.71C386.65,-210.15 351.32,-166.66 331.67,-142.48"/>
<polygon fill="midnightblue" stroke="midnightblue" points="334,-140.8 324.98,-135.25 328.57,-145.22 334,-140.8"/>
</g>
<!-- Node22 -->
<g id="node22" class="node">
<title>Node22</title>
<g id="a_node22"><a xlink:href="_colors_8h.html" target="_top" xlink:title=" ">
<polygon fill="none" stroke="black" points="417.88,-171.5 417.88,-191.5 469.88,-191.5 469.88,-171.5 417.88,-171.5"/>
<text text-anchor="middle" x="443.88" y="-178" font-family="Helvetica,sans-Serif" font-size="10.00">Colors.h</text>
</a>
</g>
</g>
<!-- Node21&#45;&gt;Node22 -->
<g id="edge29" class="edge">
<title>Node21&#45;&gt;Node22</title>
<path fill="none" stroke="midnightblue" d="M414.34,-228.91C419.2,-221.28 426.44,-209.9 432.54,-200.32"/>
<polygon fill="midnightblue" stroke="midnightblue" points="435.91,-202.53 438.33,-192.21 430.01,-198.77 435.91,-202.53"/>
</g>
<!-- Node23 -->
<g id="node23" class="node">
<title>Node23</title>
<g id="a_node23"><a xlink:title=" ">
<polygon fill="none" stroke="#bfbfbf" points="488.25,-171.5 488.25,-191.5 539.5,-191.5 539.5,-171.5 488.25,-171.5"/>
<text text-anchor="middle" x="513.88" y="-178" font-family="Helvetica,sans-Serif" font-size="10.00">assert.h</text>
</a>
</g>
</g>
<!-- Node21&#45;&gt;Node23 -->
<g id="edge32" class="edge">
<title>Node21&#45;&gt;Node23</title>
<path fill="none" stroke="midnightblue" d="M425.75,-228.66C442.26,-220.01 467.67,-206.7 486.97,-196.59"/>
<polygon fill="midnightblue" stroke="midnightblue" points="488.46,-199.24 495.7,-191.5 485.22,-193.04 488.46,-199.24"/>
</g>
<!-- Node24 -->
<g id="node24" class="node">
<title>Node24</title>
<g id="a_node24"><a xlink:title=" ">
<polygon fill="none" stroke="#bfbfbf" points="557.25,-171.5 557.25,-191.5 608.5,-191.5 608.5,-171.5 557.25,-171.5"/>
<text text-anchor="middle" x="582.88" y="-178" font-family="Helvetica,sans-Serif" font-size="10.00">memory</text>
</a>
</g>
</g>
<!-- Node21&#45;&gt;Node24 -->
<g id="edge33" class="edge">
<title>Node21&#45;&gt;Node24</title>
<path fill="none" stroke="midnightblue" d="M437.22,-228.54C467.15,-219.08 514.43,-204.13 546.96,-193.85"/>
<polygon fill="midnightblue" stroke="midnightblue" points="547.9,-196.91 556.38,-190.56 545.79,-190.24 547.9,-196.91"/>
</g>
<!-- Node25 -->
<g id="node25" class="node">
<title>Node25</title>
<g id="a_node25"><a xlink:title=" ">
<polygon fill="none" stroke="#bfbfbf" points="626.75,-171.5 626.75,-191.5 687,-191.5 687,-171.5 626.75,-171.5"/>
<text text-anchor="middle" x="656.88" y="-178" font-family="Helvetica,sans-Serif" font-size="10.00">filesystem</text>
</a>
</g>
</g>
<!-- Node21&#45;&gt;Node25 -->
<g id="edge35" class="edge">
<title>Node21&#45;&gt;Node25</title>
<path fill="none" stroke="midnightblue" d="M437.48,-230.23C440.65,-229.46 443.83,-228.7 446.88,-228 519.31,-211.33 540.35,-209.34 616.49,-192.25"/>
<polygon fill="midnightblue" stroke="midnightblue" points="617.11,-195.48 626.09,-189.86 615.56,-188.65 617.11,-195.48"/>
</g>
<!-- Node22&#45;&gt;Node9 -->
<g id="edge30" class="edge">
<title>Node22&#45;&gt;Node9</title>
<path fill="none" stroke="midnightblue" d="M443.88,-171.91C443.88,-164.76 443.88,-154.32 443.88,-145.15"/>
<polygon fill="midnightblue" stroke="midnightblue" points="447.38,-145.21 443.88,-135.21 440.38,-145.21 447.38,-145.21"/>
</g>
<!-- Node29 -->
<g id="node29" class="node">
<title>Node29</title>
<g id="a_node29"><a xlink:title=" ">
<polygon fill="none" stroke="#bfbfbf" points="577.88,-228.5 577.88,-248.5 617.88,-248.5 617.88,-228.5 577.88,-228.5"/>
<text text-anchor="middle" x="597.88" y="-235" font-family="Helvetica,sans-Serif" font-size="10.00">bitset</text>
</a>
</g>
</g>
<!-- Node28&#45;&gt;Node29 -->
<g id="edge39" class="edge">
<title>Node28&#45;&gt;Node29</title>
<path fill="none" stroke="midnightblue" d="M591.12,-285.91C592.18,-278.68 593.72,-268.09 595.06,-258.85"/>
<polygon fill="midnightblue" stroke="midnightblue" points="598.63,-259.61 596.61,-249.21 591.7,-258.61 598.63,-259.61"/>
</g>
<!-- Node30 -->
<g id="node30" class="node">
<title>Node30</title>
<g id="a_node30"><a xlink:title=" ">
<polygon fill="none" stroke="#bfbfbf" points="639.75,-228.5 639.75,-248.5 682,-248.5 682,-228.5 639.75,-228.5"/>
<text text-anchor="middle" x="660.88" y="-235" font-family="Helvetica,sans-Serif" font-size="10.00">queue</text>
</a>
</g>
</g>
<!-- Node28&#45;&gt;Node30 -->
<g id="edge40" class="edge">
<title>Node28&#45;&gt;Node30</title>
<path fill="none" stroke="midnightblue" d="M601.28,-285.66C611.88,-277.45 627.9,-265.04 640.67,-255.15"/>
<polygon fill="midnightblue" stroke="midnightblue" points="642.5,-257.39 648.26,-248.5 638.21,-251.85 642.5,-257.39"/>
</g>
<!-- Node31&#45;&gt;Node30 -->
<g id="edge51" class="edge">
<title>Node31&#45;&gt;Node30</title>
<path fill="none" stroke="midnightblue" d="M666.78,-285.91C665.86,-278.68 664.51,-268.09 663.34,-258.85"/>
<polygon fill="midnightblue" stroke="midnightblue" points="666.72,-258.69 661.98,-249.21 659.77,-259.58 666.72,-258.69"/>
</g>
<!-- Node32 -->
<g id="node32" class="node">
<title>Node32</title>
<g id="a_node32"><a xlink:href="_vector2_8h.html" target="_top" xlink:title=" ">
<polygon fill="none" stroke="black" points="624.75,-114.5 624.75,-134.5 745,-134.5 745,-114.5 624.75,-114.5"/>
<text text-anchor="middle" x="684.88" y="-121" font-family="Helvetica,sans-Serif" font-size="10.00">LinearAlgebra/Vector2.h</text>
</a>
</g>
</g>
<!-- Node31&#45;&gt;Node32 -->
<g id="edge42" class="edge">
<title>Node31&#45;&gt;Node32</title>
<path fill="none" stroke="midnightblue" d="M673.72,-285.51C679.18,-276.63 687.04,-262.45 690.88,-249 700.4,-215.59 699.99,-205.49 695.88,-171 694.84,-162.32 692.74,-152.91 690.64,-144.91"/>
<polygon fill="midnightblue" stroke="midnightblue" points="693.78,-144.13 687.71,-135.45 687.04,-146.02 693.78,-144.13"/>
</g>
<!-- Node32&#45;&gt;Node10 -->
<g id="edge43" class="edge">
<title>Node32&#45;&gt;Node10</title>
<path fill="none" stroke="midnightblue" d="M628.19,-114.54C554.91,-102.96 429.67,-83.17 370.16,-73.76"/>
<polygon fill="midnightblue" stroke="midnightblue" points="370.93,-70.18 360.51,-72.08 369.84,-77.09 370.93,-70.18"/>
</g>
<!-- Node32&#45;&gt;Node15 -->
<g id="edge46" class="edge">
<title>Node32&#45;&gt;Node15</title>
<path fill="none" stroke="midnightblue" d="M654.74,-114.54C622.91,-105.08 572.65,-90.14 538.07,-79.85"/>
<polygon fill="midnightblue" stroke="midnightblue" points="539.46,-76.32 528.88,-76.82 537.46,-83.03 539.46,-76.32"/>
</g>
<!-- Node32&#45;&gt;Node16 -->
<g id="edge47" class="edge">
<title>Node32&#45;&gt;Node16</title>
<path fill="none" stroke="midnightblue" d="M682.24,-114.76C677.51,-100.53 666.22,-72.41 646.88,-57 606.19,-24.59 583.27,-36.26 529.03,-21.09"/>
<polygon fill="midnightblue" stroke="midnightblue" points="530.11,-17.45 519.52,-17.92 528.09,-24.16 530.11,-17.45"/>
</g>
<!-- Node32&#45;&gt;Node17 -->
<g id="edge49" class="edge">
<title>Node32&#45;&gt;Node17</title>
<path fill="none" stroke="midnightblue" d="M686.93,-114.73C689.62,-100.96 692.6,-74.08 679.88,-57 660.13,-30.5 622.9,-19.43 595.31,-14.81"/>
<polygon fill="midnightblue" stroke="midnightblue" points="595.93,-11.22 585.54,-13.25 594.93,-18.15 595.93,-11.22"/>
</g>
<!-- Node32&#45;&gt;Node18 -->
<g id="edge50" class="edge">
<title>Node32&#45;&gt;Node18</title>
<path fill="none" stroke="midnightblue" d="M693.9,-114.72C701.95,-106.21 713.18,-92.48 717.88,-78 723.59,-60.37 712.64,-41.44 702.02,-28.3"/>
<polygon fill="midnightblue" stroke="midnightblue" points="704.16,-26.43 694.94,-21.22 698.9,-31.04 704.16,-26.43"/>
</g>
<!-- Node32&#45;&gt;Node19 -->
<g id="edge48" class="edge">
<title>Node32&#45;&gt;Node19</title>
<path fill="none" stroke="midnightblue" d="M672.99,-114.66C661.83,-106.37 644.91,-93.8 631.55,-83.87"/>
<polygon fill="midnightblue" stroke="midnightblue" points="634.09,-80.65 623.98,-77.5 629.92,-86.27 634.09,-80.65"/>
</g>
<!-- Node33 -->
<g id="node33" class="node">
<title>Node33</title>
<g id="a_node33"><a xlink:href="_matrix2_8h.html" target="_top" xlink:title=" ">
<polygon fill="none" stroke="black" points="769.62,-57.5 769.62,-77.5 826.12,-77.5 826.12,-57.5 769.62,-57.5"/>
<text text-anchor="middle" x="797.88" y="-64" font-family="Helvetica,sans-Serif" font-size="10.00">Matrix2.h</text>
</a>
</g>
</g>
<!-- Node32&#45;&gt;Node33 -->
<g id="edge44" class="edge">
<title>Node32&#45;&gt;Node33</title>
<path fill="none" stroke="midnightblue" d="M703.28,-114.54C721.26,-105.79 748.86,-92.36 769.62,-82.25"/>
<polygon fill="midnightblue" stroke="midnightblue" points="771.02,-84.98 778.48,-77.46 767.95,-78.68 771.02,-84.98"/>
</g>
<!-- Node33&#45;&gt;Node18 -->
<g id="edge45" class="edge">
<title>Node33&#45;&gt;Node18</title>
<path fill="none" stroke="midnightblue" d="M779.88,-57.66C762.11,-48.94 734.66,-35.46 714.01,-25.31"/>
<polygon fill="midnightblue" stroke="midnightblue" points="715.72,-21.76 705.2,-20.5 712.63,-28.05 715.72,-21.76"/>
</g>
</g>
</svg>
