<?xml version="1.0" encoding="UTF-8" standalone="no"?>
<!DOCTYPE svg PUBLIC "-//W3C//DTD SVG 1.1//EN"
 "http://www.w3.org/Graphics/SVG/1.1/DTD/svg11.dtd">
<!-- Generated by graphviz version 8.1.0 (20230707.0739)
 -->
<!-- Title: main Pages: 1 -->
<svg width="751pt" height="606pt"
 viewBox="0.00 0.00 751.00 606.00" xmlns="http://www.w3.org/2000/svg" xmlns:xlink="http://www.w3.org/1999/xlink">
<g id="graph0" class="graph" transform="scale(1 1) rotate(0) translate(4 602)">
<title>main</title>
<!-- Node1 -->
<g id="node1" class="node">
<title>Node1</title>
<g id="a_node1"><a xlink:title=" ">
<polygon fill="#bfbfbf" stroke="black" points="0,-331.5 0,-351.5 37,-351.5 37,-331.5 0,-331.5"/>
<text text-anchor="middle" x="18.5" y="-338" font-family="Helvetica,sans-Serif" font-size="10.00">main</text>
</a>
</g>
</g>
<!-- Node2 -->
<g id="node2" class="node">
<title>Node2</title>
<g id="a_node2"><a xlink:href="class_engine.html#a0323f98d13dfa6b7baba53bb1de02d38" target="_top" xlink:title=" ">
<polygon fill="none" stroke="black" points="100.38,-558.5 100.38,-578.5 221.38,-578.5 221.38,-558.5 100.38,-558.5"/>
<text text-anchor="middle" x="160.88" y="-565" font-family="Helvetica,sans-Serif" font-size="10.00">Engine::ComposeFrame</text>
</a>
</g>
</g>
<!-- Node1&#45;&gt;Node2 -->
<g id="edge1" class="edge">
<title>Node1&#45;&gt;Node2</title>
<path fill="none" stroke="midnightblue" d="M20.66,-351.25C25.27,-388.48 43.54,-521.1 73,-549.5 78.15,-554.47 84.29,-558.26 90.88,-561.14"/>
<polygon fill="midnightblue" stroke="midnightblue" points="89.21,-564.62 99.81,-564.73 91.6,-558.04 89.21,-564.62"/>
</g>
<!-- Node8 -->
<g id="node8" class="node">
<title>Node8</title>
<g id="a_node8"><a xlink:href="class_engine_exception.html#aaf0093daa4c1892417f1bf7ceeb4d2d1" target="_top" xlink:title=" ">
<polygon fill="none" stroke="black" points="73,-519.5 73,-539.5 248.75,-539.5 248.75,-519.5 73,-519.5"/>
<text text-anchor="middle" x="160.88" y="-526" font-family="Helvetica,sans-Serif" font-size="10.00">EngineException::GetExceptionType</text>
</a>
</g>
</g>
<!-- Node1&#45;&gt;Node8 -->
<g id="edge7" class="edge">
<title>Node1&#45;&gt;Node8</title>
<path fill="none" stroke="midnightblue" d="M19.43,-351.27C19.79,-380.3 25.04,-466.73 73,-510.5 74.37,-511.75 75.81,-512.93 77.3,-514.03"/>
<polygon fill="midnightblue" stroke="midnightblue" points="75,-517.35 85.35,-519.61 78.67,-511.39 75,-517.35"/>
</g>
<!-- Node9 -->
<g id="node9" class="node">
<title>Node9</title>
<g id="a_node9"><a xlink:href="class_engine_exception.html#abf7227ac5d810c93b624e30c9582d80d" target="_top" xlink:title=" ">
<polygon fill="none" stroke="black" points="97.38,-480.5 97.38,-500.5 224.38,-500.5 224.38,-480.5 97.38,-480.5"/>
<text text-anchor="middle" x="160.88" y="-487" font-family="Helvetica,sans-Serif" font-size="10.00">EngineException::GetFile</text>
</a>
</g>
</g>
<!-- Node1&#45;&gt;Node9 -->
<g id="edge8" class="edge">
<title>Node1&#45;&gt;Node9</title>
<path fill="none" stroke="midnightblue" d="M20.5,-351.45C23.53,-375.95 34.85,-439.51 73,-471.5 77.33,-475.13 82.19,-478.11 87.34,-480.55"/>
<polygon fill="midnightblue" stroke="midnightblue" points="85.98,-484.17 96.56,-484.61 88.56,-477.66 85.98,-484.17"/>
</g>
<!-- Node10 -->
<g id="node10" class="node">
<title>Node10</title>
<g id="a_node10"><a xlink:href="class_engine_exception.html#a7b236857d511dc746e080c302a83409e" target="_top" xlink:title=" ">
<polygon fill="none" stroke="black" points="97.38,-429.5 97.38,-461.5 224.38,-461.5 224.38,-429.5 97.38,-429.5"/>
<text text-anchor="start" x="105.38" y="-448" font-family="Helvetica,sans-Serif" font-size="10.00">EngineException::GetFull</text>
<text text-anchor="middle" x="160.88" y="-436" font-family="Helvetica,sans-Serif" font-size="10.00">Message</text>
</a>
</g>
</g>
<!-- Node1&#45;&gt;Node10 -->
<g id="edge9" class="edge">
<title>Node1&#45;&gt;Node10</title>
<path fill="none" stroke="midnightblue" d="M23.48,-351.39C30.76,-368.18 47.8,-402.21 73,-420.5 77.49,-423.76 82.39,-426.59 87.52,-429.06"/>
<polygon fill="midnightblue" stroke="midnightblue" points="86.01,-432.65 96.58,-433.36 88.76,-426.21 86.01,-432.65"/>
</g>
<!-- Node11 -->
<g id="node11" class="node">
<title>Node11</title>
<g id="a_node11"><a xlink:href="class_engine_exception.html#a1c34163797c05055e8ff65b93887977c" target="_top" xlink:title=" ">
<polygon fill="none" stroke="black" points="96.25,-390.5 96.25,-410.5 225.5,-410.5 225.5,-390.5 96.25,-390.5"/>
<text text-anchor="middle" x="160.88" y="-397" font-family="Helvetica,sans-Serif" font-size="10.00">EngineException::GetLine</text>
</a>
</g>
</g>
<!-- Node1&#45;&gt;Node11 -->
<g id="edge10" class="edge">
<title>Node1&#45;&gt;Node11</title>
<path fill="none" stroke="midnightblue" d="M29.69,-351.25C39.86,-360.43 56.33,-373.88 73,-381.5 77.88,-383.73 83.03,-385.7 88.29,-387.45"/>
<polygon fill="midnightblue" stroke="midnightblue" points="86.93,-391 97.51,-390.54 88.95,-384.29 86.93,-391"/>
</g>
<!-- Node12 -->
<g id="node12" class="node">
<title>Node12</title>
<g id="a_node12"><a xlink:href="class_engine_exception.html#a15642b205ddcb90fa3f6f4618fd4a895" target="_top" xlink:title=" ">
<polygon fill="none" stroke="black" points="95.12,-351.5 95.12,-371.5 226.62,-371.5 226.62,-351.5 95.12,-351.5"/>
<text text-anchor="middle" x="160.88" y="-358" font-family="Helvetica,sans-Serif" font-size="10.00">EngineException::GetNote</text>
</a>
</g>
</g>
<!-- Node1&#45;&gt;Node12 -->
<g id="edge11" class="edge">
<title>Node1&#45;&gt;Node12</title>
<path fill="none" stroke="midnightblue" d="M36.99,-343.99C49.29,-345.74 66.66,-348.22 84.48,-350.76"/>
<polygon fill="midnightblue" stroke="midnightblue" points="83.9,-354.35 94.29,-352.3 84.88,-347.42 83.9,-354.35"/>
</g>
<!-- Node13 -->
<g id="node13" class="node">
<title>Node13</title>
<g id="a_node13"><a xlink:href="_main_8cpp.html#a3079b0c426586ae37afb5a38a22269fd" target="_top" xlink:title=" ">
<polygon fill="none" stroke="black" points="130.38,-312.5 130.38,-332.5 191.38,-332.5 191.38,-312.5 130.38,-312.5"/>
<text text-anchor="middle" x="160.88" y="-319" font-family="Helvetica,sans-Serif" font-size="10.00">interpolate</text>
</a>
</g>
</g>
<!-- Node1&#45;&gt;Node13 -->
<g id="edge12" class="edge">
<title>Node1&#45;&gt;Node13</title>
<path fill="none" stroke="midnightblue" d="M36.99,-339.13C57.54,-336.35 92.27,-331.65 119.58,-327.95"/>
<polygon fill="midnightblue" stroke="midnightblue" points="119.94,-331.3 129.38,-326.49 119.01,-324.36 119.94,-331.3"/>
</g>
<!-- Node14 -->
<g id="node14" class="node">
<title>Node14</title>
<g id="a_node14"><a xlink:href="class_main_window.html#af0d6ad5abee9b887e41b432d744aa521" target="_top" xlink:title=" ">
<polygon fill="none" stroke="black" points="84.25,-273.5 84.25,-293.5 237.5,-293.5 237.5,-273.5 84.25,-273.5"/>
<text text-anchor="middle" x="160.88" y="-280" font-family="Helvetica,sans-Serif" font-size="10.00">MainWindow::ProcessMessage</text>
</a>
</g>
</g>
<!-- Node1&#45;&gt;Node14 -->
<g id="edge13" class="edge">
<title>Node1&#45;&gt;Node14</title>
<path fill="none" stroke="midnightblue" d="M30.59,-331.63C40.88,-322.98 56.99,-310.69 73,-303.5 79.02,-300.8 85.45,-298.44 91.98,-296.39"/>
<polygon fill="midnightblue" stroke="midnightblue" points="92.65,-299.55 101.28,-293.41 90.71,-292.82 92.65,-299.55"/>
</g>
<!-- Node15 -->
<g id="node15" class="node">
<title>Node15</title>
<g id="a_node15"><a xlink:href="_main_8cpp.html#a4c8729ec5f4a84ebcf63172a5ddc9b43" target="_top" xlink:title=" ">
<polygon fill="none" stroke="black" points="139.38,-234.5 139.38,-254.5 182.38,-254.5 182.38,-234.5 139.38,-234.5"/>
<text text-anchor="middle" x="160.88" y="-241" font-family="Helvetica,sans-Serif" font-size="10.00">render</text>
</a>
</g>
</g>
<!-- Node1&#45;&gt;Node15 -->
<g id="edge14" class="edge">
<title>Node1&#45;&gt;Node15</title>
<path fill="none" stroke="midnightblue" d="M23.45,-331.72C30.68,-315.14 47.65,-281.65 73,-264.5 89.4,-253.4 111.12,-248.4 128.73,-246.17"/>
<polygon fill="midnightblue" stroke="midnightblue" points="129.02,-249.56 138.62,-245.08 128.32,-242.6 129.02,-249.56"/>
</g>
<!-- Node16 -->
<g id="node16" class="node">
<title>Node16</title>
<g id="a_node16"><a xlink:href="class_main_window.html#a62dfc452524272c3153ca334c79d16d4" target="_top" xlink:title=" ">
<polygon fill="none" stroke="black" points="81.62,-195.5 81.62,-215.5 240.12,-215.5 240.12,-195.5 81.62,-195.5"/>
<text text-anchor="middle" x="160.88" y="-202" font-family="Helvetica,sans-Serif" font-size="10.00">MainWindow::ShowMessageBox</text>
</a>
</g>
</g>
<!-- Node1&#45;&gt;Node16 -->
<g id="edge15" class="edge">
<title>Node1&#45;&gt;Node16</title>
<path fill="none" stroke="midnightblue" d="M21.06,-331.63C25.15,-309.09 38.41,-253.62 73,-225.5 75.29,-223.64 77.71,-221.95 80.24,-220.41"/>
<polygon fill="midnightblue" stroke="midnightblue" points="81.54,-223.16 88.82,-215.47 78.33,-216.94 81.54,-223.16"/>
</g>
<!-- Node17 -->
<g id="node17" class="node">
<title>Node17</title>
<g id="a_node17"><a xlink:href="_main_8cpp.html#a39ffafcba2f9a6e070c8d2d4ef9ddead" target="_top" xlink:title=" ">
<polygon fill="none" stroke="black" points="138.25,-156.5 138.25,-176.5 183.5,-176.5 183.5,-156.5 138.25,-156.5"/>
<text text-anchor="middle" x="160.88" y="-163" font-family="Helvetica,sans-Serif" font-size="10.00">update</text>
</a>
</g>
</g>
<!-- Node1&#45;&gt;Node17 -->
<g id="edge16" class="edge">
<title>Node1&#45;&gt;Node17</title>
<path fill="none" stroke="midnightblue" d="M19.77,-331.77C21.1,-304.42 28.76,-226.28 73,-186.5 87.7,-173.28 109.37,-168.27 127.38,-166.58"/>
<polygon fill="midnightblue" stroke="midnightblue" points="127.55,-170.01 137.31,-165.89 127.11,-163.02 127.55,-170.01"/>
</g>
<!-- Node18 -->
<g id="node18" class="node">
<title>Node18</title>
<g id="a_node18"><a xlink:href="class_engine.html#a56cc30926ee112fbf83bfa4083d3af79" target="_top" xlink:title=" ">
<polygon fill="none" stroke="black" points="106.38,-117.5 106.38,-137.5 215.38,-137.5 215.38,-117.5 106.38,-117.5"/>
<text text-anchor="middle" x="160.88" y="-124" font-family="Helvetica,sans-Serif" font-size="10.00">Engine::UpdateModel</text>
</a>
</g>
</g>
<!-- Node1&#45;&gt;Node18 -->
<g id="edge17" class="edge">
<title>Node1&#45;&gt;Node18</title>
<path fill="none" stroke="midnightblue" d="M18.99,-331.72C17.9,-300.04 19.01,-199.22 73,-147.5 79.59,-141.19 87.75,-136.72 96.4,-133.59"/>
<polygon fill="midnightblue" stroke="midnightblue" points="97.16,-136.72 105.73,-130.49 95.15,-130.01 97.16,-136.72"/>
</g>
<!-- Node3 -->
<g id="node3" class="node">
<title>Node3</title>
<g id="a_node3"><a xlink:href="class_graphics.html#ae9f5bcaa267fdff06bbfcf1e2ddf7137" target="_top" xlink:title=" ">
<polygon fill="none" stroke="black" points="300.12,-577.5 300.12,-597.5 413.62,-597.5 413.62,-577.5 300.12,-577.5"/>
<text text-anchor="middle" x="356.88" y="-584" font-family="Helvetica,sans-Serif" font-size="10.00">Graphics::BeginFrame</text>
</a>
</g>
</g>
<!-- Node2&#45;&gt;Node3 -->
<g id="edge2" class="edge">
<title>Node2&#45;&gt;Node3</title>
<path fill="none" stroke="midnightblue" d="M221.14,-574.3C242.78,-576.42 267.39,-578.83 289.6,-581.01"/>
<polygon fill="midnightblue" stroke="midnightblue" points="289,-584.56 299.29,-582.06 289.68,-577.6 289,-584.56"/>
</g>
<!-- Node5 -->
<g id="node5" class="node">
<title>Node5</title>
<g id="a_node5"><a xlink:href="class_graphics.html#a56203cba547bde8af2eadda01e0d17c3" target="_top" xlink:title=" ">
<polygon fill="none" stroke="black" points="303.88,-538.5 303.88,-558.5 409.88,-558.5 409.88,-538.5 303.88,-538.5"/>
<text text-anchor="middle" x="356.88" y="-545" font-family="Helvetica,sans-Serif" font-size="10.00">Graphics::EndFrame</text>
</a>
</g>
</g>
<!-- Node2&#45;&gt;Node5 -->
<g id="edge4" class="edge">
<title>Node2&#45;&gt;Node5</title>
<path fill="none" stroke="midnightblue" d="M221.14,-562.39C244.03,-560.03 270.25,-557.33 293.43,-554.94"/>
<polygon fill="midnightblue" stroke="midnightblue" points="293.61,-558.33 303.2,-553.83 292.89,-551.37 293.61,-558.33"/>
</g>
<!-- Node4 -->
<g id="node4" class="node">
<title>Node4</title>
<g id="a_node4"><a xlink:href="class_surface.html#a0e2dbd9d8b1bc46664e2d52e71d533e1" target="_top" xlink:title=" ">
<polygon fill="none" stroke="black" points="489.75,-577.5 489.75,-597.5 567.25,-597.5 567.25,-577.5 489.75,-577.5"/>
<text text-anchor="middle" x="528.5" y="-584" font-family="Helvetica,sans-Serif" font-size="10.00">Surface::Clear</text>
</a>
</g>
</g>
<!-- Node3&#45;&gt;Node4 -->
<g id="edge3" class="edge">
<title>Node3&#45;&gt;Node4</title>
<path fill="none" stroke="midnightblue" d="M413.42,-587.5C434.53,-587.5 458.4,-587.5 478.84,-587.5"/>
<polygon fill="midnightblue" stroke="midnightblue" points="478.79,-591 488.79,-587.5 478.79,-584 478.79,-591"/>
</g>
<!-- Node6 -->
<g id="node6" class="node">
<title>Node6</title>
<g id="a_node6"><a xlink:href="namespace_math.html#a77174619219856c2fc6959ec7a269c60" target="_top" xlink:title=" ">
<polygon fill="none" stroke="black" points="497.25,-538.5 497.25,-558.5 559.75,-558.5 559.75,-538.5 497.25,-538.5"/>
<text text-anchor="middle" x="528.5" y="-545" font-family="Helvetica,sans-Serif" font-size="10.00">Math::Map</text>
</a>
</g>
</g>
<!-- Node5&#45;&gt;Node6 -->
<g id="edge5" class="edge">
<title>Node5&#45;&gt;Node6</title>
<path fill="none" stroke="midnightblue" d="M409.69,-548.5C434.47,-548.5 463.71,-548.5 486.86,-548.5"/>
<polygon fill="midnightblue" stroke="midnightblue" points="486.69,-552 496.69,-548.5 486.69,-545 486.69,-552"/>
</g>
<!-- Node7 -->
<g id="node7" class="node">
<title>Node7</title>
<g id="a_node7"><a xlink:href="class_surface.html#ac85ddc42d6bb5ab0aebeaf40c8b62b6a" target="_top" xlink:title=" ">
<polygon fill="none" stroke="black" points="484.12,-499.5 484.12,-519.5 572.88,-519.5 572.88,-499.5 484.12,-499.5"/>
<text text-anchor="middle" x="528.5" y="-506" font-family="Helvetica,sans-Serif" font-size="10.00">Surface::Present</text>
</a>
</g>
</g>
<!-- Node5&#45;&gt;Node7 -->
<g id="edge6" class="edge">
<title>Node5&#45;&gt;Node7</title>
<path fill="none" stroke="midnightblue" d="M401.12,-538.56C423.25,-533.47 450.4,-527.23 473.85,-521.83"/>
<polygon fill="midnightblue" stroke="midnightblue" points="474.38,-525.08 483.34,-519.42 472.81,-518.25 474.38,-525.08"/>
</g>
<!-- Node19 -->
<g id="node19" class="node">
<title>Node19</title>
<g id="a_node19"><a xlink:href="class_engine.html#a5016986fb05c1dc14b808c018a152b21" target="_top" xlink:title=" ">
<polygon fill="none" stroke="black" points="302,-234.5 302,-254.5 411.75,-254.5 411.75,-234.5 302,-234.5"/>
<text text-anchor="middle" x="356.88" y="-241" font-family="Helvetica,sans-Serif" font-size="10.00">Engine::CycleScenes</text>
</a>
</g>
</g>
<!-- Node18&#45;&gt;Node19 -->
<g id="edge18" class="edge">
<title>Node18&#45;&gt;Node19</title>
<path fill="none" stroke="midnightblue" d="M214.97,-131.79C227.05,-134.81 239.14,-139.69 248.75,-147.5 278.38,-171.58 255.54,-200.91 284.75,-225.5 287.13,-227.51 289.71,-229.3 292.41,-230.91"/>
<polygon fill="midnightblue" stroke="midnightblue" points="290.53,-234.38 301.05,-235.69 293.64,-228.11 290.53,-234.38"/>
</g>
<!-- Node22 -->
<g id="node22" class="node">
<title>Node22</title>
<g id="a_node22"><a xlink:href="class_keyboard.html#ad7339a4454f6f55c19b235a9dbe62c97" target="_top" xlink:title=" ">
<polygon fill="none" stroke="black" points="298.62,-195.5 298.62,-215.5 415.12,-215.5 415.12,-195.5 298.62,-195.5"/>
<text text-anchor="middle" x="356.88" y="-202" font-family="Helvetica,sans-Serif" font-size="10.00">Keyboard::KeyIsEmpty</text>
</a>
</g>
</g>
<!-- Node18&#45;&gt;Node22 -->
<g id="edge21" class="edge">
<title>Node18&#45;&gt;Node22</title>
<path fill="none" stroke="midnightblue" d="M215.24,-134.5C226.79,-137.43 238.58,-141.6 248.75,-147.5 269.15,-159.34 264.56,-174.31 284.75,-186.5 287.91,-188.41 291.26,-190.13 294.72,-191.68"/>
<polygon fill="midnightblue" stroke="midnightblue" points="293.1,-195.19 303.69,-195.6 295.67,-188.68 293.1,-195.19"/>
</g>
<!-- Node23 -->
<g id="node23" class="node">
<title>Node23</title>
<g id="a_node23"><a xlink:href="class_keyboard.html#a7b11ba07982539a0dd9b16b4706e7211" target="_top" xlink:title=" ">
<polygon fill="none" stroke="black" points="294.88,-156.5 294.88,-176.5 418.88,-176.5 418.88,-156.5 294.88,-156.5"/>
<text text-anchor="middle" x="356.88" y="-163" font-family="Helvetica,sans-Serif" font-size="10.00">Keyboard::KeyIsPressed</text>
</a>
</g>
</g>
<!-- Node18&#45;&gt;Node23 -->
<g id="edge22" class="edge">
<title>Node18&#45;&gt;Node23</title>
<path fill="none" stroke="midnightblue" d="M211.58,-137.49C237.25,-142.65 268.77,-148.99 295.8,-154.42"/>
<polygon fill="midnightblue" stroke="midnightblue" points="294.8,-157.99 305.3,-156.53 296.18,-151.13 294.8,-157.99"/>
</g>
<!-- Node24 -->
<g id="node24" class="node">
<title>Node24</title>
<g id="a_node24"><a xlink:href="class_main_window.html#a35f292c078d17dcf4b6bc29506c354ec" target="_top" xlink:title=" ">
<polygon fill="none" stroke="black" points="311.38,-117.5 311.38,-137.5 402.38,-137.5 402.38,-117.5 311.38,-117.5"/>
<text text-anchor="middle" x="356.88" y="-124" font-family="Helvetica,sans-Serif" font-size="10.00">MainWindow::Kill</text>
</a>
</g>
</g>
<!-- Node18&#45;&gt;Node24 -->
<g id="edge23" class="edge">
<title>Node18&#45;&gt;Node24</title>
<path fill="none" stroke="midnightblue" d="M215.14,-127.5C241.76,-127.5 273.94,-127.5 300.8,-127.5"/>
<polygon fill="midnightblue" stroke="midnightblue" points="300.57,-131 310.57,-127.5 300.57,-124 300.57,-131"/>
</g>
<!-- Node25 -->
<g id="node25" class="node">
<title>Node25</title>
<g id="a_node25"><a xlink:href="class_frame_timer.html#a9f9407f654b939897bfe1c1443e6e15c" target="_top" xlink:title=" ">
<polygon fill="none" stroke="black" points="309.12,-78.5 309.12,-98.5 404.62,-98.5 404.62,-78.5 309.12,-78.5"/>
<text text-anchor="middle" x="356.88" y="-85" font-family="Helvetica,sans-Serif" font-size="10.00">FrameTimer::Mark</text>
</a>
</g>
</g>
<!-- Node18&#45;&gt;Node25 -->
<g id="edge24" class="edge">
<title>Node18&#45;&gt;Node25</title>
<path fill="none" stroke="midnightblue" d="M211.58,-117.51C238.14,-112.17 270.97,-105.57 298.6,-100.01"/>
<polygon fill="midnightblue" stroke="midnightblue" points="299.18,-103.27 308.3,-97.86 297.8,-96.4 299.18,-103.27"/>
</g>
<!-- Node26 -->
<g id="node26" class="node">
<title>Node26</title>
<g id="a_node26"><a xlink:href="class_keyboard.html#a1aabaaff8f5a031317966ca0bfac7858" target="_top" xlink:title=" ">
<polygon fill="none" stroke="black" points="305.38,-39.5 305.38,-59.5 408.38,-59.5 408.38,-39.5 305.38,-39.5"/>
<text text-anchor="middle" x="356.88" y="-46" font-family="Helvetica,sans-Serif" font-size="10.00">Keyboard::ReadKey</text>
</a>
</g>
</g>
<!-- Node18&#45;&gt;Node26 -->
<g id="edge25" class="edge">
<title>Node18&#45;&gt;Node26</title>
<path fill="none" stroke="midnightblue" d="M180.19,-117.67C203.85,-105.25 246.52,-83.78 284.75,-69.5 291.45,-67 298.61,-64.63 305.7,-62.47"/>
<polygon fill="midnightblue" stroke="midnightblue" points="306.39,-65.63 314.99,-59.45 304.41,-58.91 306.39,-65.63"/>
</g>
<!-- Node27 -->
<g id="node27" class="node">
<title>Node27</title>
<g id="a_node27"><a xlink:href="class_engine.html#a00d1c5c1655bd9024d7150aa12c4b5c6" target="_top" xlink:title=" ">
<polygon fill="none" stroke="black" points="284.75,-0.5 284.75,-20.5 429,-20.5 429,-0.5 284.75,-0.5"/>
<text text-anchor="middle" x="356.88" y="-7" font-family="Helvetica,sans-Serif" font-size="10.00">Engine::ReverseCycleScenes</text>
</a>
</g>
</g>
<!-- Node18&#45;&gt;Node27 -->
<g id="edge26" class="edge">
<title>Node18&#45;&gt;Node27</title>
<path fill="none" stroke="midnightblue" d="M171.44,-117.7C190.95,-98.25 237.53,-54.56 284.75,-30.5 289.56,-28.05 294.7,-25.87 299.95,-23.93"/>
<polygon fill="midnightblue" stroke="midnightblue" points="300.74,-27.02 309.09,-20.49 298.5,-20.39 300.74,-27.02"/>
</g>
<!-- Node20 -->
<g id="node20" class="node">
<title>Node20</title>
<g id="a_node20"><a xlink:href="class_engine.html#a85491a83a933400a58b5f0f3da558143" target="_top" xlink:title=" ">
<polygon fill="none" stroke="black" points="465,-117.5 465,-137.5 592,-137.5 592,-117.5 465,-117.5"/>
<text text-anchor="middle" x="528.5" y="-124" font-family="Helvetica,sans-Serif" font-size="10.00">Engine::SetWindowName</text>
</a>
</g>
</g>
<!-- Node19&#45;&gt;Node20 -->
<g id="edge19" class="edge">
<title>Node19&#45;&gt;Node20</title>
<path fill="none" stroke="midnightblue" d="M408.17,-234.62C415.41,-232.19 422.57,-229.2 429,-225.5 464.86,-204.87 496.88,-167.9 514.11,-145.74"/>
<polygon fill="midnightblue" stroke="midnightblue" points="517.3,-148.32 520.56,-138.24 511.73,-144.09 517.3,-148.32"/>
</g>
<!-- Node21 -->
<g id="node21" class="node">
<title>Node21</title>
<g id="a_node21"><a xlink:href="class_h_w_n_d_key.html#ad0013aa027b8583318249afaaed77614" target="_top" xlink:title=" ">
<polygon fill="none" stroke="black" points="628,-117.5 628,-137.5 743,-137.5 743,-117.5 628,-117.5"/>
<text text-anchor="middle" x="685.5" y="-124" font-family="Helvetica,sans-Serif" font-size="10.00">HWNDKey::GetHWND</text>
</a>
</g>
</g>
<!-- Node20&#45;&gt;Node21 -->
<g id="edge20" class="edge">
<title>Node20&#45;&gt;Node21</title>
<path fill="none" stroke="midnightblue" d="M591.65,-127.5C600.18,-127.5 608.96,-127.5 617.57,-127.5"/>
<polygon fill="midnightblue" stroke="midnightblue" points="617.35,-131 627.35,-127.5 617.35,-124 617.35,-131"/>
</g>
<!-- Node27&#45;&gt;Node20 -->
<g id="edge27" class="edge">
<title>Node27&#45;&gt;Node20</title>
<path fill="none" stroke="midnightblue" d="M405.91,-20.42C413.9,-23.07 421.9,-26.38 429,-30.5 464.42,-51.06 496.38,-87.3 513.76,-109.19"/>
<polygon fill="midnightblue" stroke="midnightblue" points="511.39,-110.85 520.28,-116.6 516.92,-106.56 511.39,-110.85"/>
</g>
</g>
</svg>
