<?xml version="1.0" encoding="UTF-8" standalone="no"?>
<!DOCTYPE svg PUBLIC "-//W3C//DTD SVG 1.1//EN"
 "http://www.w3.org/Graphics/SVG/1.1/DTD/svg11.dtd">
<!-- Generated by graphviz version 8.1.0 (20230707.0739)
 -->
<!-- Title: src/Main.cpp Pages: 1 -->
<svg width="857pt" height="485pt"
 viewBox="0.00 0.00 857.38 485.00" xmlns="http://www.w3.org/2000/svg" xmlns:xlink="http://www.w3.org/1999/xlink">
<g id="graph0" class="graph" transform="scale(1 1) rotate(0) translate(4 481)">
<title>src/Main.cpp</title>
<!-- Node1 -->
<g id="node1" class="node">
<title>Node1</title>
<g id="a_node1"><a xlink:title=" ">
<polygon fill="#bfbfbf" stroke="black" points="703.75,-456.5 703.75,-476.5 776,-476.5 776,-456.5 703.75,-456.5"/>
<text text-anchor="middle" x="739.88" y="-463" font-family="Helvetica,sans-Serif" font-size="10.00">src/Main.cpp</text>
</a>
</g>
</g>
<!-- Node2 -->
<g id="node2" class="node">
<title>Node2</title>
<g id="a_node2"><a xlink:href="_engine_8h.html" target="_top" xlink:title=" ">
<polygon fill="none" stroke="black" points="542.75,-399.5 542.75,-419.5 597,-419.5 597,-399.5 542.75,-399.5"/>
<text text-anchor="middle" x="569.88" y="-406" font-family="Helvetica,sans-Serif" font-size="10.00">Engine.h</text>
</a>
</g>
</g>
<!-- Node1&#45;&gt;Node2 -->
<g id="edge1" class="edge">
<title>Node1&#45;&gt;Node2</title>
<path fill="none" stroke="midnightblue" d="M712.18,-456.54C683.61,-447.3 638.87,-432.82 607.19,-422.57"/>
<polygon fill="midnightblue" stroke="midnightblue" points="608.58,-419.02 597.99,-419.27 606.43,-425.68 608.58,-419.02"/>
</g>
<!-- Node4 -->
<g id="node4" class="node">
<title>Node4</title>
<g id="a_node4"><a xlink:title=" ">
<polygon fill="none" stroke="#bfbfbf" points="704.25,-285.5 704.25,-305.5 749.5,-305.5 749.5,-285.5 704.25,-285.5"/>
<text text-anchor="middle" x="726.88" y="-292" font-family="Helvetica,sans-Serif" font-size="10.00">chrono</text>
</a>
</g>
</g>
<!-- Node1&#45;&gt;Node4 -->
<g id="edge64" class="edge">
<title>Node1&#45;&gt;Node4</title>
<path fill="none" stroke="midnightblue" d="M739.21,-456.89C737.21,-430.9 731.21,-352.82 728.38,-316.05"/>
<polygon fill="midnightblue" stroke="midnightblue" points="731.81,-316 727.55,-306.3 724.83,-316.54 731.81,-316"/>
</g>
<!-- Node17 -->
<g id="node17" class="node">
<title>Node17</title>
<g id="a_node17"><a xlink:title=" ">
<polygon fill="none" stroke="#bfbfbf" points="633.12,-0.5 633.12,-20.5 686.62,-20.5 686.62,-0.5 633.12,-0.5"/>
<text text-anchor="middle" x="659.88" y="-7" font-family="Helvetica,sans-Serif" font-size="10.00">iostream</text>
</a>
</g>
</g>
<!-- Node1&#45;&gt;Node17 -->
<g id="edge65" class="edge">
<title>Node1&#45;&gt;Node17</title>
<path fill="none" stroke="midnightblue" d="M745.16,-456.56C755.6,-438.02 777.88,-393.74 777.88,-353.5 777.88,-353.5 777.88,-353.5 777.88,-123.5 777.88,-91.92 774.11,-80.37 752.88,-57 737.88,-40.5 715.58,-29.31 696.58,-22.15"/>
<polygon fill="midnightblue" stroke="midnightblue" points="698.03,-18.6 687.43,-18.59 695.71,-25.21 698.03,-18.6"/>
</g>
<!-- Node38 -->
<g id="node38" class="node">
<title>Node38</title>
<g id="a_node38"><a xlink:href="_main_window_8h.html" target="_top" xlink:title=" ">
<polygon fill="none" stroke="black" points="408,-342.5 408,-362.5 487.75,-362.5 487.75,-342.5 408,-342.5"/>
<text text-anchor="middle" x="447.88" y="-349" font-family="Helvetica,sans-Serif" font-size="10.00">MainWindow.h</text>
</a>
</g>
</g>
<!-- Node1&#45;&gt;Node38 -->
<g id="edge57" class="edge">
<title>Node1&#45;&gt;Node38</title>
<path fill="none" stroke="midnightblue" d="M704.09,-462.4C661.75,-457.67 589.93,-446.24 533.88,-420 506.8,-407.33 480.31,-384.88 464.04,-369.6"/>
<polygon fill="midnightblue" stroke="midnightblue" points="467.15,-367.77 457.52,-363.36 462.29,-372.82 467.15,-367.77"/>
</g>
<!-- Node39 -->
<g id="node39" class="node">
<title>Node39</title>
<g id="a_node39"><a xlink:title=" ">
<polygon fill="none" stroke="#bfbfbf" points="806.38,-399.5 806.38,-419.5 849.38,-419.5 849.38,-399.5 806.38,-399.5"/>
<text text-anchor="middle" x="827.88" y="-406" font-family="Helvetica,sans-Serif" font-size="10.00">thread</text>
</a>
</g>
</g>
<!-- Node1&#45;&gt;Node39 -->
<g id="edge66" class="edge">
<title>Node1&#45;&gt;Node39</title>
<path fill="none" stroke="midnightblue" d="M754.01,-456.66C767.53,-448.21 788.17,-435.31 804.2,-425.3"/>
<polygon fill="midnightblue" stroke="midnightblue" points="805.85,-427.77 812.48,-419.5 802.14,-421.83 805.85,-427.77"/>
</g>
<!-- Node3 -->
<g id="node3" class="node">
<title>Node3</title>
<g id="a_node3"><a xlink:href="_frame_timer_8h.html" target="_top" xlink:title=" ">
<polygon fill="none" stroke="black" points="635.88,-342.5 635.88,-362.5 711.88,-362.5 711.88,-342.5 635.88,-342.5"/>
<text text-anchor="middle" x="673.88" y="-349" font-family="Helvetica,sans-Serif" font-size="10.00">FrameTimer.h</text>
</a>
</g>
</g>
<!-- Node2&#45;&gt;Node3 -->
<g id="edge2" class="edge">
<title>Node2&#45;&gt;Node3</title>
<path fill="none" stroke="midnightblue" d="M586.58,-399.66C602.94,-391.01 628.11,-377.7 647.23,-367.59"/>
<polygon fill="midnightblue" stroke="midnightblue" points="648.66,-370.27 655.86,-362.5 645.39,-364.08 648.66,-370.27"/>
</g>
<!-- Node5 -->
<g id="node5" class="node">
<title>Node5</title>
<g id="a_node5"><a xlink:href="_graphics_8h.html" target="_top" xlink:title=" ">
<polygon fill="none" stroke="black" points="348.25,-285.5 348.25,-305.5 411.5,-305.5 411.5,-285.5 348.25,-285.5"/>
<text text-anchor="middle" x="379.88" y="-292" font-family="Helvetica,sans-Serif" font-size="10.00">Graphics.h</text>
</a>
</g>
</g>
<!-- Node2&#45;&gt;Node5 -->
<g id="edge4" class="edge">
<title>Node2&#45;&gt;Node5</title>
<path fill="none" stroke="midnightblue" d="M542.79,-409.07C505.32,-408.34 437.89,-401.31 398.88,-363 386.3,-350.65 381.9,-330.61 380.43,-315.75"/>
<polygon fill="midnightblue" stroke="midnightblue" points="383.89,-315.95 379.79,-306.19 376.9,-316.38 383.89,-315.95"/>
</g>
<!-- Node26 -->
<g id="node26" class="node">
<title>Node26</title>
<g id="a_node26"><a xlink:title=" ">
<polygon fill="none" stroke="#bfbfbf" points="153.25,-171.5 153.25,-191.5 204.5,-191.5 204.5,-171.5 153.25,-171.5"/>
<text text-anchor="middle" x="178.88" y="-178" font-family="Helvetica,sans-Serif" font-size="10.00">memory</text>
</a>
</g>
</g>
<!-- Node2&#45;&gt;Node26 -->
<g id="edge55" class="edge">
<title>Node2&#45;&gt;Node26</title>
<path fill="none" stroke="midnightblue" d="M543.03,-404.19C447.84,-388.32 129.16,-329.76 72.88,-249 51.93,-218.94 104.58,-199.63 142.95,-189.95"/>
<polygon fill="midnightblue" stroke="midnightblue" points="143.41,-193.2 152.32,-187.47 141.78,-186.39 143.41,-193.2"/>
</g>
<!-- Node30 -->
<g id="node30" class="node">
<title>Node30</title>
<g id="a_node30"><a xlink:href="_scene_8h.html" target="_top" xlink:title=" ">
<polygon fill="none" stroke="black" points="565.88,-342.5 565.88,-362.5 617.88,-362.5 617.88,-342.5 565.88,-342.5"/>
<text text-anchor="middle" x="591.88" y="-349" font-family="Helvetica,sans-Serif" font-size="10.00">Scene.h</text>
</a>
</g>
</g>
<!-- Node2&#45;&gt;Node30 -->
<g id="edge38" class="edge">
<title>Node2&#45;&gt;Node30</title>
<path fill="none" stroke="midnightblue" d="M573.31,-399.91C576.27,-392.52 580.63,-381.62 584.38,-372.23"/>
<polygon fill="midnightblue" stroke="midnightblue" points="587.92,-373.8 588.39,-363.21 581.43,-371.2 587.92,-373.8"/>
</g>
<!-- Node37 -->
<g id="node37" class="node">
<title>Node37</title>
<g id="a_node37"><a xlink:title=" ">
<polygon fill="none" stroke="#bfbfbf" points="506.12,-342.5 506.12,-362.5 547.62,-362.5 547.62,-342.5 506.12,-342.5"/>
<text text-anchor="middle" x="526.88" y="-349" font-family="Helvetica,sans-Serif" font-size="10.00">vector</text>
</a>
</g>
</g>
<!-- Node2&#45;&gt;Node37 -->
<g id="edge56" class="edge">
<title>Node2&#45;&gt;Node37</title>
<path fill="none" stroke="midnightblue" d="M563.16,-399.91C557.07,-392.12 547.92,-380.42 540.33,-370.71"/>
<polygon fill="midnightblue" stroke="midnightblue" points="542.61,-368.94 533.69,-363.21 537.09,-373.25 542.61,-368.94"/>
</g>
<!-- Node3&#45;&gt;Node4 -->
<g id="edge3" class="edge">
<title>Node3&#45;&gt;Node4</title>
<path fill="none" stroke="midnightblue" d="M682.16,-342.91C689.81,-334.96 701.4,-322.94 710.86,-313.12"/>
<polygon fill="midnightblue" stroke="midnightblue" points="713.06,-315.84 717.48,-306.21 708.02,-310.99 713.06,-315.84"/>
</g>
<!-- Node6 -->
<g id="node6" class="node">
<title>Node6</title>
<g id="a_node6"><a xlink:href="_engine_exception_8h.html" target="_top" xlink:title=" ">
<polygon fill="none" stroke="black" points="517,-171.5 517,-191.5 614.75,-191.5 614.75,-171.5 517,-171.5"/>
<text text-anchor="middle" x="565.88" y="-178" font-family="Helvetica,sans-Serif" font-size="10.00">EngineException.h</text>
</a>
</g>
</g>
<!-- Node5&#45;&gt;Node6 -->
<g id="edge5" class="edge">
<title>Node5&#45;&gt;Node6</title>
<path fill="none" stroke="midnightblue" d="M396.93,-285.61C413.85,-276.69 440.43,-262.37 462.88,-249 491.29,-232.07 523.16,-211.19 543.82,-197.4"/>
<polygon fill="midnightblue" stroke="midnightblue" points="545.38,-199.89 551.73,-191.42 541.48,-194.08 545.38,-199.89"/>
</g>
<!-- Node8 -->
<g id="node8" class="node">
<title>Node8</title>
<g id="a_node8"><a xlink:href="_vector3_8h.html" target="_top" xlink:title=" ">
<polygon fill="none" stroke="black" points="282.75,-114.5 282.75,-134.5 403,-134.5 403,-114.5 282.75,-114.5"/>
<text text-anchor="middle" x="342.88" y="-121" font-family="Helvetica,sans-Serif" font-size="10.00">LinearAlgebra/Vector3.h</text>
</a>
</g>
</g>
<!-- Node5&#45;&gt;Node8 -->
<g id="edge7" class="edge">
<title>Node5&#45;&gt;Node8</title>
<path fill="none" stroke="midnightblue" d="M348.68,-285.68C290.01,-268.38 167.02,-228.5 143.88,-192 111.83,-141.49 202.78,-128.42 272.12,-125.54"/>
<polygon fill="midnightblue" stroke="midnightblue" points="272.17,-129 282.04,-125.16 271.92,-122.01 272.17,-129"/>
</g>
<!-- Node19 -->
<g id="node19" class="node">
<title>Node19</title>
<g id="a_node19"><a xlink:href="_g_d_i_plus_manager_8h.html" target="_top" xlink:title=" ">
<polygon fill="none" stroke="black" points="82,-228.5 82,-248.5 179.75,-248.5 179.75,-228.5 82,-228.5"/>
<text text-anchor="middle" x="130.88" y="-235" font-family="Helvetica,sans-Serif" font-size="10.00">GDIPlusManager.h</text>
</a>
</g>
</g>
<!-- Node5&#45;&gt;Node19 -->
<g id="edge23" class="edge">
<title>Node5&#45;&gt;Node19</title>
<path fill="none" stroke="midnightblue" d="M348.34,-287.53C306.4,-278.27 231.76,-261.78 181.79,-250.75"/>
<polygon fill="midnightblue" stroke="midnightblue" points="182.73,-247.15 172.21,-248.41 181.22,-253.98 182.73,-247.15"/>
</g>
<!-- Node23 -->
<g id="node23" class="node">
<title>Node23</title>
<g id="a_node23"><a xlink:href="_surface_8h.html" target="_top" xlink:title=" ">
<polygon fill="none" stroke="black" points="328.25,-228.5 328.25,-248.5 385.5,-248.5 385.5,-228.5 328.25,-228.5"/>
<text text-anchor="middle" x="356.88" y="-235" font-family="Helvetica,sans-Serif" font-size="10.00">Surface.h</text>
</a>
</g>
</g>
<!-- Node5&#45;&gt;Node23 -->
<g id="edge27" class="edge">
<title>Node5&#45;&gt;Node23</title>
<path fill="none" stroke="midnightblue" d="M376.28,-285.91C373.19,-278.52 368.63,-267.62 364.71,-258.23"/>
<polygon fill="midnightblue" stroke="midnightblue" points="367.61,-257.09 360.52,-249.21 361.15,-259.79 367.61,-257.09"/>
</g>
<!-- Node28 -->
<g id="node28" class="node">
<title>Node28</title>
<g id="a_node28"><a xlink:title=" ">
<polygon fill="none" stroke="#bfbfbf" points="403.62,-228.5 403.62,-248.5 454.12,-248.5 454.12,-228.5 403.62,-228.5"/>
<text text-anchor="middle" x="428.88" y="-235" font-family="Helvetica,sans-Serif" font-size="10.00">d3d11.h</text>
</a>
</g>
</g>
<!-- Node5&#45;&gt;Node28 -->
<g id="edge36" class="edge">
<title>Node5&#45;&gt;Node28</title>
<path fill="none" stroke="midnightblue" d="M387.53,-285.91C394.54,-278.04 405.11,-266.18 413.8,-256.42"/>
<polygon fill="midnightblue" stroke="midnightblue" points="416.07,-259.01 420.11,-249.21 410.85,-254.35 416.07,-259.01"/>
</g>
<!-- Node29 -->
<g id="node29" class="node">
<title>Node29</title>
<g id="a_node29"><a xlink:title=" ">
<polygon fill="none" stroke="#bfbfbf" points="273.75,-228.5 273.75,-248.5 310,-248.5 310,-228.5 273.75,-228.5"/>
<text text-anchor="middle" x="291.88" y="-235" font-family="Helvetica,sans-Serif" font-size="10.00">wrl.h</text>
</a>
</g>
</g>
<!-- Node5&#45;&gt;Node29 -->
<g id="edge37" class="edge">
<title>Node5&#45;&gt;Node29</title>
<path fill="none" stroke="midnightblue" d="M365.74,-285.66C352.22,-277.21 331.58,-264.31 315.55,-254.3"/>
<polygon fill="midnightblue" stroke="midnightblue" points="317.61,-250.83 307.27,-248.5 313.9,-256.77 317.61,-250.83"/>
</g>
<!-- Node7 -->
<g id="node7" class="node">
<title>Node7</title>
<g id="a_node7"><a xlink:title=" ">
<polygon fill="none" stroke="#bfbfbf" points="478.88,-114.5 478.88,-134.5 518.88,-134.5 518.88,-114.5 478.88,-114.5"/>
<text text-anchor="middle" x="498.88" y="-121" font-family="Helvetica,sans-Serif" font-size="10.00">string</text>
</a>
</g>
</g>
<!-- Node6&#45;&gt;Node7 -->
<g id="edge6" class="edge">
<title>Node6&#45;&gt;Node7</title>
<path fill="none" stroke="midnightblue" d="M555.11,-171.66C545.21,-163.53 530.28,-151.28 518.3,-141.44"/>
<polygon fill="midnightblue" stroke="midnightblue" points="520.79,-138.14 510.84,-134.5 516.34,-143.55 520.79,-138.14"/>
</g>
<!-- Node9 -->
<g id="node9" class="node">
<title>Node9</title>
<g id="a_node9"><a xlink:href="_math_8h.html" target="_top" xlink:title=" ">
<polygon fill="none" stroke="black" points="231.88,-57.5 231.88,-77.5 277.88,-77.5 277.88,-57.5 231.88,-57.5"/>
<text text-anchor="middle" x="254.88" y="-64" font-family="Helvetica,sans-Serif" font-size="10.00">Math.h</text>
</a>
</g>
</g>
<!-- Node8&#45;&gt;Node9 -->
<g id="edge8" class="edge">
<title>Node8&#45;&gt;Node9</title>
<path fill="none" stroke="midnightblue" d="M328.74,-114.66C315.22,-106.21 294.58,-93.31 278.55,-83.3"/>
<polygon fill="midnightblue" stroke="midnightblue" points="280.61,-79.83 270.27,-77.5 276.9,-85.77 280.61,-79.83"/>
</g>
<!-- Node14 -->
<g id="node14" class="node">
<title>Node14</title>
<g id="a_node14"><a xlink:href="_matrix3_8h.html" target="_top" xlink:title=" ">
<polygon fill="none" stroke="black" points="461.62,-57.5 461.62,-77.5 518.12,-77.5 518.12,-57.5 461.62,-57.5"/>
<text text-anchor="middle" x="489.88" y="-64" font-family="Helvetica,sans-Serif" font-size="10.00">Matrix3.h</text>
</a>
</g>
</g>
<!-- Node8&#45;&gt;Node14 -->
<g id="edge14" class="edge">
<title>Node8&#45;&gt;Node14</title>
<path fill="none" stroke="midnightblue" d="M366.82,-114.54C390.95,-105.51 428.43,-91.49 455.68,-81.29"/>
<polygon fill="midnightblue" stroke="midnightblue" points="456.8,-84.24 464.94,-77.46 454.35,-77.68 456.8,-84.24"/>
</g>
<!-- Node15 -->
<g id="node15" class="node">
<title>Node15</title>
<g id="a_node15"><a xlink:title=" ">
<polygon fill="none" stroke="#bfbfbf" points="522,-0.5 522,-20.5 559.75,-20.5 559.75,-0.5 522,-0.5"/>
<text text-anchor="middle" x="540.88" y="-7" font-family="Helvetica,sans-Serif" font-size="10.00">array</text>
</a>
</g>
</g>
<!-- Node8&#45;&gt;Node15 -->
<g id="edge19" class="edge">
<title>Node8&#45;&gt;Node15</title>
<path fill="none" stroke="midnightblue" d="M345.46,-114.7C350.12,-100.39 361.32,-72.14 380.88,-57 426.42,-21.73 451.94,-36.93 511.91,-20.97"/>
<polygon fill="midnightblue" stroke="midnightblue" points="512.6,-24.12 521.25,-18 510.67,-17.39 512.6,-24.12"/>
</g>
<!-- Node16 -->
<g id="node16" class="node">
<title>Node16</title>
<g id="a_node16"><a xlink:title=" ">
<polygon fill="none" stroke="#bfbfbf" points="456.12,-0.5 456.12,-20.5 503.62,-20.5 503.62,-0.5 456.12,-0.5"/>
<text text-anchor="middle" x="479.88" y="-7" font-family="Helvetica,sans-Serif" font-size="10.00">cstddef</text>
</a>
</g>
</g>
<!-- Node8&#45;&gt;Node16 -->
<g id="edge22" class="edge">
<title>Node8&#45;&gt;Node16</title>
<path fill="none" stroke="midnightblue" d="M340.75,-114.68C337.97,-100.84 334.87,-73.87 347.88,-57 360,-41.28 410.63,-27.05 445.54,-18.84"/>
<polygon fill="midnightblue" stroke="midnightblue" points="446.29,-22.03 455.26,-16.39 444.73,-15.21 446.29,-22.03"/>
</g>
<!-- Node8&#45;&gt;Node17 -->
<g id="edge20" class="edge">
<title>Node8&#45;&gt;Node17</title>
<path fill="none" stroke="midnightblue" d="M391.4,-114.56C429.02,-106.9 482.1,-94.5 526.88,-78 566.22,-63.5 609.18,-40.63 635.33,-25.85"/>
<polygon fill="midnightblue" stroke="midnightblue" points="636.87,-28.43 643.81,-20.42 633.39,-22.35 636.87,-28.43"/>
</g>
<!-- Node18 -->
<g id="node18" class="node">
<title>Node18</title>
<g id="a_node18"><a xlink:title=" ">
<polygon fill="none" stroke="#bfbfbf" points="390.12,-57.5 390.12,-77.5 443.62,-77.5 443.62,-57.5 390.12,-57.5"/>
<text text-anchor="middle" x="416.88" y="-64" font-family="Helvetica,sans-Serif" font-size="10.00">compare</text>
</a>
</g>
</g>
<!-- Node8&#45;&gt;Node18 -->
<g id="edge21" class="edge">
<title>Node8&#45;&gt;Node18</title>
<path fill="none" stroke="midnightblue" d="M354.76,-114.66C365.92,-106.37 382.84,-93.8 396.2,-83.87"/>
<polygon fill="midnightblue" stroke="midnightblue" points="397.83,-86.27 403.77,-77.5 393.66,-80.65 397.83,-86.27"/>
</g>
<!-- Node9&#45;&gt;Node9 -->
<g id="edge9" class="edge">
<title>Node9&#45;&gt;Node9</title>
<path fill="none" stroke="midnightblue" d="M273.43,-77.43C284.93,-79.83 295.88,-76.52 295.88,-67.5 295.88,-61.44 290.93,-57.96 284.2,-57.05"/>
<polygon fill="midnightblue" stroke="midnightblue" points="284.25,-53.59 274.43,-57.57 284.58,-60.59 284.25,-53.59"/>
</g>
<!-- Node10 -->
<g id="node10" class="node">
<title>Node10</title>
<g id="a_node10"><a xlink:title=" ">
<polygon fill="none" stroke="#bfbfbf" points="374.38,-0.5 374.38,-20.5 417.38,-20.5 417.38,-0.5 374.38,-0.5"/>
<text text-anchor="middle" x="395.88" y="-7" font-family="Helvetica,sans-Serif" font-size="10.00">cmath</text>
</a>
</g>
</g>
<!-- Node9&#45;&gt;Node10 -->
<g id="edge10" class="edge">
<title>Node9&#45;&gt;Node10</title>
<path fill="none" stroke="midnightblue" d="M277.84,-57.54C301.44,-48.34 338.32,-33.95 364.58,-23.71"/>
<polygon fill="midnightblue" stroke="midnightblue" points="365.72,-26.63 373.76,-19.74 363.17,-20.11 365.72,-26.63"/>
</g>
<!-- Node11 -->
<g id="node11" class="node">
<title>Node11</title>
<g id="a_node11"><a xlink:title=" ">
<polygon fill="none" stroke="#bfbfbf" points="235.25,-0.5 235.25,-20.5 274.5,-20.5 274.5,-0.5 235.25,-0.5"/>
<text text-anchor="middle" x="254.88" y="-7" font-family="Helvetica,sans-Serif" font-size="10.00">limits</text>
</a>
</g>
</g>
<!-- Node9&#45;&gt;Node11 -->
<g id="edge11" class="edge">
<title>Node9&#45;&gt;Node11</title>
<path fill="none" stroke="midnightblue" d="M254.88,-57.91C254.88,-50.76 254.88,-40.32 254.88,-31.15"/>
<polygon fill="midnightblue" stroke="midnightblue" points="258.38,-31.21 254.88,-21.21 251.38,-31.21 258.38,-31.21"/>
</g>
<!-- Node12 -->
<g id="node12" class="node">
<title>Node12</title>
<g id="a_node12"><a xlink:title=" ">
<polygon fill="none" stroke="#bfbfbf" points="292.12,-0.5 292.12,-20.5 345.62,-20.5 345.62,-0.5 292.12,-0.5"/>
<text text-anchor="middle" x="318.88" y="-7" font-family="Helvetica,sans-Serif" font-size="10.00">numbers</text>
</a>
</g>
</g>
<!-- Node9&#45;&gt;Node12 -->
<g id="edge12" class="edge">
<title>Node9&#45;&gt;Node12</title>
<path fill="none" stroke="midnightblue" d="M265.16,-57.66C274.62,-49.53 288.87,-37.28 300.32,-27.44"/>
<polygon fill="midnightblue" stroke="midnightblue" points="302.1,-29.67 307.41,-20.5 297.54,-24.36 302.1,-29.67"/>
</g>
<!-- Node13 -->
<g id="node13" class="node">
<title>Node13</title>
<g id="a_node13"><a xlink:title=" ">
<polygon fill="none" stroke="#bfbfbf" points="168.75,-0.5 168.75,-20.5 217,-20.5 217,-0.5 168.75,-0.5"/>
<text text-anchor="middle" x="192.88" y="-7" font-family="Helvetica,sans-Serif" font-size="10.00">random</text>
</a>
</g>
</g>
<!-- Node9&#45;&gt;Node13 -->
<g id="edge13" class="edge">
<title>Node9&#45;&gt;Node13</title>
<path fill="none" stroke="midnightblue" d="M244.91,-57.66C235.84,-49.61 222.21,-37.52 211.17,-27.73"/>
<polygon fill="midnightblue" stroke="midnightblue" points="213.82,-25.52 204.02,-21.5 209.18,-30.75 213.82,-25.52"/>
</g>
<!-- Node14&#45;&gt;Node10 -->
<g id="edge16" class="edge">
<title>Node14&#45;&gt;Node10</title>
<path fill="none" stroke="midnightblue" d="M474.77,-57.66C460.2,-49.13 437.87,-36.07 420.68,-26.01"/>
<polygon fill="midnightblue" stroke="midnightblue" points="422.65,-22.53 412.25,-20.5 419.12,-28.57 422.65,-22.53"/>
</g>
<!-- Node14&#45;&gt;Node15 -->
<g id="edge15" class="edge">
<title>Node14&#45;&gt;Node15</title>
<path fill="none" stroke="midnightblue" d="M497.84,-57.91C505.21,-49.96 516.36,-37.94 525.47,-28.12"/>
<polygon fill="midnightblue" stroke="midnightblue" points="527.56,-30.93 531.79,-21.21 522.43,-26.17 527.56,-30.93"/>
</g>
<!-- Node14&#45;&gt;Node16 -->
<g id="edge17" class="edge">
<title>Node14&#45;&gt;Node16</title>
<path fill="none" stroke="midnightblue" d="M488.31,-57.91C487,-50.68 485.07,-40.09 483.39,-30.85"/>
<polygon fill="midnightblue" stroke="midnightblue" points="486.69,-30.43 481.46,-21.21 479.8,-31.68 486.69,-30.43"/>
</g>
<!-- Node14&#45;&gt;Node17 -->
<g id="edge18" class="edge">
<title>Node14&#45;&gt;Node17</title>
<path fill="none" stroke="midnightblue" d="M517.57,-57.54C546.31,-48.24 591.41,-33.65 623.12,-23.39"/>
<polygon fill="midnightblue" stroke="midnightblue" points="623.88,-26.5 632.32,-20.09 621.72,-19.84 623.88,-26.5"/>
</g>
<!-- Node20 -->
<g id="node20" class="node">
<title>Node20</title>
<g id="a_node20"><a xlink:href="_win_8h.html" target="_top" xlink:title=" ">
<polygon fill="none" stroke="black" points="55.12,-171.5 55.12,-191.5 96.62,-191.5 96.62,-171.5 55.12,-171.5"/>
<text text-anchor="middle" x="75.88" y="-178" font-family="Helvetica,sans-Serif" font-size="10.00">Win.h</text>
</a>
</g>
</g>
<!-- Node19&#45;&gt;Node20 -->
<g id="edge24" class="edge">
<title>Node19&#45;&gt;Node20</title>
<path fill="none" stroke="midnightblue" d="M122.28,-228.91C114.26,-220.88 102.07,-208.69 92.2,-198.82"/>
<polygon fill="midnightblue" stroke="midnightblue" points="95.14,-196.81 85.59,-192.21 90.19,-201.76 95.14,-196.81"/>
</g>
<!-- Node21 -->
<g id="node21" class="node">
<title>Node21</title>
<g id="a_node21"><a xlink:title=" ">
<polygon fill="none" stroke="#bfbfbf" points="0,-114.5 0,-134.5 67.75,-134.5 67.75,-114.5 0,-114.5"/>
<text text-anchor="middle" x="33.88" y="-121" font-family="Helvetica,sans-Serif" font-size="10.00">sdkddkver.h</text>
</a>
</g>
</g>
<!-- Node20&#45;&gt;Node21 -->
<g id="edge25" class="edge">
<title>Node20&#45;&gt;Node21</title>
<path fill="none" stroke="midnightblue" d="M69.31,-171.91C63.37,-164.12 54.43,-152.42 47.02,-142.71"/>
<polygon fill="midnightblue" stroke="midnightblue" points="49.38,-141.04 40.53,-135.21 43.82,-145.29 49.38,-141.04"/>
</g>
<!-- Node22 -->
<g id="node22" class="node">
<title>Node22</title>
<g id="a_node22"><a xlink:title=" ">
<polygon fill="none" stroke="#bfbfbf" points="85.88,-114.5 85.88,-134.5 149.88,-134.5 149.88,-114.5 85.88,-114.5"/>
<text text-anchor="middle" x="117.88" y="-121" font-family="Helvetica,sans-Serif" font-size="10.00">Windows.h</text>
</a>
</g>
</g>
<!-- Node20&#45;&gt;Node22 -->
<g id="edge26" class="edge">
<title>Node20&#45;&gt;Node22</title>
<path fill="none" stroke="midnightblue" d="M82.44,-171.91C88.38,-164.12 97.32,-152.42 104.73,-142.71"/>
<polygon fill="midnightblue" stroke="midnightblue" points="107.93,-145.29 111.22,-135.21 102.37,-141.04 107.93,-145.29"/>
</g>
<!-- Node23&#45;&gt;Node6 -->
<g id="edge31" class="edge">
<title>Node23&#45;&gt;Node6</title>
<path fill="none" stroke="midnightblue" d="M385.5,-229.97C420.49,-220.76 480.12,-205.07 521.18,-194.26"/>
<polygon fill="midnightblue" stroke="midnightblue" points="521.93,-197.42 530.71,-191.49 520.15,-190.65 521.93,-197.42"/>
</g>
<!-- Node23&#45;&gt;Node7 -->
<g id="edge34" class="edge">
<title>Node23&#45;&gt;Node7</title>
<path fill="none" stroke="midnightblue" d="M385.35,-228.78C414.56,-219.36 457.44,-204.09 469.88,-192 482.99,-179.25 490.56,-159.58 494.65,-144.93"/>
<polygon fill="midnightblue" stroke="midnightblue" points="498.23,-146.04 497.23,-135.49 491.43,-144.36 498.23,-146.04"/>
</g>
<!-- Node23&#45;&gt;Node20 -->
<g id="edge30" class="edge">
<title>Node23&#45;&gt;Node20</title>
<path fill="none" stroke="midnightblue" d="M328.28,-230.16C325.12,-229.4 321.93,-228.67 318.88,-228 243.3,-211.49 153.7,-195.68 107.28,-187.76"/>
<polygon fill="midnightblue" stroke="midnightblue" points="107.88,-184.14 97.44,-185.92 106.71,-191.05 107.88,-184.14"/>
</g>
<!-- Node24 -->
<g id="node24" class="node">
<title>Node24</title>
<g id="a_node24"><a xlink:href="_colors_8h.html" target="_top" xlink:title=" ">
<polygon fill="none" stroke="black" points="222.88,-171.5 222.88,-191.5 274.88,-191.5 274.88,-171.5 222.88,-171.5"/>
<text text-anchor="middle" x="248.88" y="-178" font-family="Helvetica,sans-Serif" font-size="10.00">Colors.h</text>
</a>
</g>
</g>
<!-- Node23&#45;&gt;Node24 -->
<g id="edge28" class="edge">
<title>Node23&#45;&gt;Node24</title>
<path fill="none" stroke="midnightblue" d="M339.52,-228.66C322.46,-219.97 296.16,-206.58 276.27,-196.45"/>
<polygon fill="midnightblue" stroke="midnightblue" points="278.04,-192.92 267.54,-191.5 274.87,-199.15 278.04,-192.92"/>
</g>
<!-- Node25 -->
<g id="node25" class="node">
<title>Node25</title>
<g id="a_node25"><a xlink:title=" ">
<polygon fill="none" stroke="#bfbfbf" points="331.25,-171.5 331.25,-191.5 382.5,-191.5 382.5,-171.5 331.25,-171.5"/>
<text text-anchor="middle" x="356.88" y="-178" font-family="Helvetica,sans-Serif" font-size="10.00">assert.h</text>
</a>
</g>
</g>
<!-- Node23&#45;&gt;Node25 -->
<g id="edge32" class="edge">
<title>Node23&#45;&gt;Node25</title>
<path fill="none" stroke="midnightblue" d="M356.88,-228.91C356.88,-221.76 356.88,-211.32 356.88,-202.15"/>
<polygon fill="midnightblue" stroke="midnightblue" points="360.38,-202.21 356.88,-192.21 353.38,-202.21 360.38,-202.21"/>
</g>
<!-- Node23&#45;&gt;Node26 -->
<g id="edge33" class="edge">
<title>Node23&#45;&gt;Node26</title>
<path fill="none" stroke="midnightblue" d="M328.28,-228.66C297.33,-219.1 247.93,-203.84 214.49,-193.5"/>
<polygon fill="midnightblue" stroke="midnightblue" points="215.82,-189.94 205.23,-190.33 213.75,-196.63 215.82,-189.94"/>
</g>
<!-- Node27 -->
<g id="node27" class="node">
<title>Node27</title>
<g id="a_node27"><a xlink:title=" ">
<polygon fill="none" stroke="#bfbfbf" points="400.75,-171.5 400.75,-191.5 461,-191.5 461,-171.5 400.75,-171.5"/>
<text text-anchor="middle" x="430.88" y="-178" font-family="Helvetica,sans-Serif" font-size="10.00">filesystem</text>
</a>
</g>
</g>
<!-- Node23&#45;&gt;Node27 -->
<g id="edge35" class="edge">
<title>Node23&#45;&gt;Node27</title>
<path fill="none" stroke="midnightblue" d="M368.76,-228.66C379.92,-220.37 396.84,-207.8 410.2,-197.87"/>
<polygon fill="midnightblue" stroke="midnightblue" points="411.83,-200.27 417.77,-191.5 407.66,-194.65 411.83,-200.27"/>
</g>
<!-- Node24&#45;&gt;Node8 -->
<g id="edge29" class="edge">
<title>Node24&#45;&gt;Node8</title>
<path fill="none" stroke="midnightblue" d="M263.98,-171.66C278.55,-163.13 300.88,-150.07 318.07,-140.01"/>
<polygon fill="midnightblue" stroke="midnightblue" points="319.63,-142.57 326.5,-134.5 316.1,-136.53 319.63,-142.57"/>
</g>
<!-- Node30&#45;&gt;Node5 -->
<g id="edge53" class="edge">
<title>Node30&#45;&gt;Node5</title>
<path fill="none" stroke="midnightblue" d="M565.89,-344.41C562.85,-343.59 559.8,-342.77 556.88,-342 510.73,-329.81 457.69,-316.23 421.8,-307.11"/>
<polygon fill="midnightblue" stroke="midnightblue" points="422.8,-303.5 412.24,-304.43 421.07,-310.28 422.8,-303.5"/>
</g>
<!-- Node30&#45;&gt;Node7 -->
<g id="edge54" class="edge">
<title>Node30&#45;&gt;Node7</title>
<path fill="none" stroke="midnightblue" d="M614.01,-342.63C629.1,-335.28 647.91,-323.23 656.88,-306 672.88,-275.25 665.87,-261.48 656.88,-228 649.28,-199.73 646.31,-189.8 623.88,-171 609.17,-158.67 560.86,-143.17 528.79,-133.82"/>
<polygon fill="midnightblue" stroke="midnightblue" points="530.19,-130.29 519.61,-130.89 528.25,-137.02 530.19,-130.29"/>
</g>
<!-- Node31 -->
<g id="node31" class="node">
<title>Node31</title>
<g id="a_node31"><a xlink:href="_keyboard_8h.html" target="_top" xlink:title=" ">
<polygon fill="none" stroke="black" points="510.12,-285.5 510.12,-305.5 575.62,-305.5 575.62,-285.5 510.12,-285.5"/>
<text text-anchor="middle" x="542.88" y="-292" font-family="Helvetica,sans-Serif" font-size="10.00">Keyboard.h</text>
</a>
</g>
</g>
<!-- Node30&#45;&gt;Node31 -->
<g id="edge39" class="edge">
<title>Node30&#45;&gt;Node31</title>
<path fill="none" stroke="midnightblue" d="M584.22,-342.91C577.21,-335.04 566.64,-323.18 557.95,-313.42"/>
<polygon fill="midnightblue" stroke="midnightblue" points="560.9,-311.35 551.64,-306.21 555.68,-316.01 560.9,-311.35"/>
</g>
<!-- Node34 -->
<g id="node34" class="node">
<title>Node34</title>
<g id="a_node34"><a xlink:href="_mouse_8h.html" target="_top" xlink:title=" ">
<polygon fill="none" stroke="black" points="594.12,-285.5 594.12,-305.5 647.62,-305.5 647.62,-285.5 594.12,-285.5"/>
<text text-anchor="middle" x="620.88" y="-292" font-family="Helvetica,sans-Serif" font-size="10.00">Mouse.h</text>
</a>
</g>
</g>
<!-- Node30&#45;&gt;Node34 -->
<g id="edge42" class="edge">
<title>Node30&#45;&gt;Node34</title>
<path fill="none" stroke="midnightblue" d="M596.41,-342.91C600.34,-335.44 606.18,-324.38 611.16,-314.93"/>
<polygon fill="midnightblue" stroke="midnightblue" points="614.71,-316.69 616.28,-306.21 608.52,-313.43 614.71,-316.69"/>
</g>
<!-- Node32 -->
<g id="node32" class="node">
<title>Node32</title>
<g id="a_node32"><a xlink:title=" ">
<polygon fill="none" stroke="#bfbfbf" points="547.88,-228.5 547.88,-248.5 587.88,-248.5 587.88,-228.5 547.88,-228.5"/>
<text text-anchor="middle" x="567.88" y="-235" font-family="Helvetica,sans-Serif" font-size="10.00">bitset</text>
</a>
</g>
</g>
<!-- Node31&#45;&gt;Node32 -->
<g id="edge40" class="edge">
<title>Node31&#45;&gt;Node32</title>
<path fill="none" stroke="midnightblue" d="M546.78,-285.91C550.17,-278.44 555.2,-267.38 559.5,-257.93"/>
<polygon fill="midnightblue" stroke="midnightblue" points="562.96,-259.77 563.91,-249.21 556.59,-256.87 562.96,-259.77"/>
</g>
<!-- Node33 -->
<g id="node33" class="node">
<title>Node33</title>
<g id="a_node33"><a xlink:title=" ">
<polygon fill="none" stroke="#bfbfbf" points="605.75,-228.5 605.75,-248.5 648,-248.5 648,-228.5 605.75,-228.5"/>
<text text-anchor="middle" x="626.88" y="-235" font-family="Helvetica,sans-Serif" font-size="10.00">queue</text>
</a>
</g>
</g>
<!-- Node31&#45;&gt;Node33 -->
<g id="edge41" class="edge">
<title>Node31&#45;&gt;Node33</title>
<path fill="none" stroke="midnightblue" d="M556.37,-285.66C569.28,-277.21 588.98,-264.31 604.28,-254.3"/>
<polygon fill="midnightblue" stroke="midnightblue" points="605.68,-256.9 612.13,-248.5 601.85,-251.05 605.68,-256.9"/>
</g>
<!-- Node34&#45;&gt;Node33 -->
<g id="edge52" class="edge">
<title>Node34&#45;&gt;Node33</title>
<path fill="none" stroke="midnightblue" d="M621.81,-285.91C622.6,-278.68 623.76,-268.09 624.76,-258.85"/>
<polygon fill="midnightblue" stroke="midnightblue" points="628.32,-259.54 625.92,-249.21 621.36,-258.78 628.32,-259.54"/>
</g>
<!-- Node35 -->
<g id="node35" class="node">
<title>Node35</title>
<g id="a_node35"><a xlink:href="_vector2_8h.html" target="_top" xlink:title=" ">
<polygon fill="none" stroke="black" points="556.75,-114.5 556.75,-134.5 677,-134.5 677,-114.5 556.75,-114.5"/>
<text text-anchor="middle" x="616.88" y="-121" font-family="Helvetica,sans-Serif" font-size="10.00">LinearAlgebra/Vector2.h</text>
</a>
</g>
</g>
<!-- Node34&#45;&gt;Node35 -->
<g id="edge43" class="edge">
<title>Node34&#45;&gt;Node35</title>
<path fill="none" stroke="midnightblue" d="M631.04,-285.56C639.79,-277.14 651.78,-263.65 656.88,-249 669.89,-211.56 646.15,-167.27 630,-143.22"/>
<polygon fill="midnightblue" stroke="midnightblue" points="632.3,-141.39 623.68,-135.23 626.57,-145.42 632.3,-141.39"/>
</g>
<!-- Node35&#45;&gt;Node9 -->
<g id="edge44" class="edge">
<title>Node35&#45;&gt;Node9</title>
<path fill="none" stroke="midnightblue" d="M557.91,-114.54C481.14,-102.88 349.57,-82.89 288.21,-73.56"/>
<polygon fill="midnightblue" stroke="midnightblue" points="289.01,-69.99 278.59,-71.95 287.95,-76.91 289.01,-69.99"/>
</g>
<!-- Node35&#45;&gt;Node14 -->
<g id="edge47" class="edge">
<title>Node35&#45;&gt;Node14</title>
<path fill="none" stroke="midnightblue" d="M596.19,-114.54C575.62,-105.63 543.82,-91.86 520.36,-81.7"/>
<polygon fill="midnightblue" stroke="midnightblue" points="522.12,-78.22 511.55,-77.46 519.34,-84.64 522.12,-78.22"/>
</g>
<!-- Node35&#45;&gt;Node15 -->
<g id="edge48" class="edge">
<title>Node35&#45;&gt;Node15</title>
<path fill="none" stroke="midnightblue" d="M610.91,-114.71C598.42,-96.31 569.32,-53.43 552.83,-29.12"/>
<polygon fill="midnightblue" stroke="midnightblue" points="555.32,-27.56 546.81,-21.25 549.53,-31.49 555.32,-27.56"/>
</g>
<!-- Node35&#45;&gt;Node16 -->
<g id="edge50" class="edge">
<title>Node35&#45;&gt;Node16</title>
<path fill="none" stroke="midnightblue" d="M606.12,-114.71C582.92,-95.74 527.87,-50.73 498.72,-26.91"/>
<polygon fill="midnightblue" stroke="midnightblue" points="501.53,-23.87 491.58,-20.25 497.1,-29.29 501.53,-23.87"/>
</g>
<!-- Node35&#45;&gt;Node17 -->
<g id="edge51" class="edge">
<title>Node35&#45;&gt;Node17</title>
<path fill="none" stroke="midnightblue" d="M620.65,-114.83C624.57,-105.71 630.85,-90.92 635.88,-78 642.07,-62.07 648.62,-43.8 653.32,-30.45"/>
<polygon fill="midnightblue" stroke="midnightblue" points="656.92,-31.75 656.9,-21.16 650.31,-29.45 656.92,-31.75"/>
</g>
<!-- Node35&#45;&gt;Node18 -->
<g id="edge49" class="edge">
<title>Node35&#45;&gt;Node18</title>
<path fill="none" stroke="midnightblue" d="M584.3,-114.54C548.53,-104.71 491.23,-88.95 453.82,-78.66"/>
<polygon fill="midnightblue" stroke="midnightblue" points="454.93,-75.06 444.36,-75.78 453.08,-81.81 454.93,-75.06"/>
</g>
<!-- Node36 -->
<g id="node36" class="node">
<title>Node36</title>
<g id="a_node36"><a xlink:href="_matrix2_8h.html" target="_top" xlink:title=" ">
<polygon fill="none" stroke="black" points="687.62,-57.5 687.62,-77.5 744.12,-77.5 744.12,-57.5 687.62,-57.5"/>
<text text-anchor="middle" x="715.88" y="-64" font-family="Helvetica,sans-Serif" font-size="10.00">Matrix2.h</text>
</a>
</g>
</g>
<!-- Node35&#45;&gt;Node36 -->
<g id="edge45" class="edge">
<title>Node35&#45;&gt;Node36</title>
<path fill="none" stroke="midnightblue" d="M632.78,-114.66C648.28,-106.05 672.09,-92.83 690.26,-82.73"/>
<polygon fill="midnightblue" stroke="midnightblue" points="691.64,-85.41 698.68,-77.5 688.24,-79.29 691.64,-85.41"/>
</g>
<!-- Node36&#45;&gt;Node17 -->
<g id="edge46" class="edge">
<title>Node36&#45;&gt;Node17</title>
<path fill="none" stroke="midnightblue" d="M706.88,-57.66C698.76,-49.69 686.61,-37.76 676.7,-28.02"/>
<polygon fill="midnightblue" stroke="midnightblue" points="679.62,-26.01 670.04,-21.5 674.72,-31 679.62,-26.01"/>
</g>
<!-- Node38&#45;&gt;Node5 -->
<g id="edge59" class="edge">
<title>Node38&#45;&gt;Node5</title>
<path fill="none" stroke="midnightblue" d="M436.95,-342.66C426.8,-334.45 411.45,-322.04 399.23,-312.15"/>
<polygon fill="midnightblue" stroke="midnightblue" points="401.98,-309.06 392,-305.5 397.57,-314.51 401.98,-309.06"/>
</g>
<!-- Node38&#45;&gt;Node6 -->
<g id="edge58" class="edge">
<title>Node38&#45;&gt;Node6</title>
<path fill="none" stroke="midnightblue" d="M453.89,-342.89C472.35,-316.45 528.46,-236.08 553.54,-200.17"/>
<polygon fill="midnightblue" stroke="midnightblue" points="556.88,-202.5 559.73,-192.3 551.14,-198.49 556.88,-202.5"/>
</g>
<!-- Node38&#45;&gt;Node7 -->
<g id="edge63" class="edge">
<title>Node38&#45;&gt;Node7</title>
<path fill="none" stroke="midnightblue" d="M408.19,-343.62C346.56,-329.21 237.59,-293.86 264.88,-228 278.59,-194.9 290.76,-188.76 321.88,-171 368.83,-144.21 431.68,-132.93 468.47,-128.37"/>
<polygon fill="midnightblue" stroke="midnightblue" points="468.47,-131.78 478.01,-127.17 467.68,-124.83 468.47,-131.78"/>
</g>
<!-- Node38&#45;&gt;Node20 -->
<g id="edge62" class="edge">
<title>Node38&#45;&gt;Node20</title>
<path fill="none" stroke="midnightblue" d="M408.13,-346.94C319.79,-335.87 111.82,-304.33 72.88,-249 63.22,-235.28 65.48,-215.73 69.25,-201.38"/>
<polygon fill="midnightblue" stroke="midnightblue" points="72.79,-202.78 72.39,-192.2 66.1,-200.72 72.79,-202.78"/>
</g>
<!-- Node38&#45;&gt;Node31 -->
<g id="edge60" class="edge">
<title>Node38&#45;&gt;Node31</title>
<path fill="none" stroke="midnightblue" d="M463.14,-342.66C478.01,-334.05 500.86,-320.83 518.29,-310.73"/>
<polygon fill="midnightblue" stroke="midnightblue" points="519.43,-313.54 526.33,-305.5 515.93,-307.48 519.43,-313.54"/>
</g>
<!-- Node38&#45;&gt;Node34 -->
<g id="edge61" class="edge">
<title>Node38&#45;&gt;Node34</title>
<path fill="none" stroke="midnightblue" d="M476.06,-342.54C505.39,-333.22 551.47,-318.57 583.75,-308.3"/>
<polygon fill="midnightblue" stroke="midnightblue" points="584.66,-311.37 593.13,-305 582.54,-304.7 584.66,-311.37"/>
</g>
</g>
</svg>
