<?xml version="1.0" encoding="UTF-8" standalone="no"?>
<!DOCTYPE svg PUBLIC "-//W3C//DTD SVG 1.1//EN"
 "http://www.w3.org/Graphics/SVG/1.1/DTD/svg11.dtd">
<!-- Generated by graphviz version 8.1.0 (20230707.0739)
 -->
<!-- Title: include/LinearAlgebra/Math.h Pages: 1 -->
<svg width="1334pt" height="626pt"
 viewBox="0.00 0.00 1334.08 626.00" xmlns="http://www.w3.org/2000/svg" xmlns:xlink="http://www.w3.org/1999/xlink">
<g id="graph0" class="graph" transform="scale(1 1) rotate(0) translate(4 622)">
<title>include/LinearAlgebra/Math.h</title>
<!-- Node1 -->
<g id="node1" class="node">
<title>Node1</title>
<g id="a_node1"><a xlink:title=" ">
<polygon fill="#bfbfbf" stroke="black" points="570.88,-585.5 570.88,-617.5 679.88,-617.5 679.88,-585.5 570.88,-585.5"/>
<text text-anchor="start" x="578.88" y="-604" font-family="Helvetica,sans-Serif" font-size="10.00">include/LinearAlgebra</text>
<text text-anchor="middle" x="625.38" y="-592" font-family="Helvetica,sans-Serif" font-size="10.00">/Math.h</text>
</a>
</g>
</g>
<!-- Node1&#45;&gt;Node1 -->
<g id="edge1" class="edge">
<title>Node1&#45;&gt;Node1</title>
<path fill="none" stroke="midnightblue" d="M690.15,-611.11C694.94,-608.96 697.88,-605.75 697.88,-601.5 697.88,-594.69 690.35,-590.57 679.76,-589.14"/>
<polygon fill="midnightblue" stroke="midnightblue" points="689.53,-607.92 680.76,-613.86 691.32,-614.69 689.53,-607.92"/>
</g>
<!-- Node2 -->
<g id="node2" class="node">
<title>Node2</title>
<g id="a_node2"><a xlink:href="_vector2_8h.html" target="_top" xlink:title=" ">
<polygon fill="none" stroke="black" points="363.88,-378.5 363.88,-410.5 472.88,-410.5 472.88,-378.5 363.88,-378.5"/>
<text text-anchor="start" x="371.88" y="-397" font-family="Helvetica,sans-Serif" font-size="10.00">include/LinearAlgebra</text>
<text text-anchor="middle" x="418.38" y="-385" font-family="Helvetica,sans-Serif" font-size="10.00">/Vector2.h</text>
</a>
</g>
</g>
<!-- Node1&#45;&gt;Node2 -->
<g id="edge2" class="edge">
<title>Node1&#45;&gt;Node2</title>
<path fill="none" stroke="midnightblue" d="M602.91,-578.25C560.42,-536.17 469.35,-445.98 433.41,-410.38"/>
<polygon fill="midnightblue" stroke="midnightblue" points="599.92,-580.21 609.49,-584.76 604.85,-575.23 599.92,-580.21"/>
</g>
<!-- Node18 -->
<g id="node18" class="node">
<title>Node18</title>
<g id="a_node18"><a xlink:href="_vector2_8cpp.html" target="_top" xlink:title=" ">
<polygon fill="none" stroke="black" points="0,-309.5 0,-341.5 94.75,-341.5 94.75,-309.5 0,-309.5"/>
<text text-anchor="start" x="8" y="-328" font-family="Helvetica,sans-Serif" font-size="10.00">test/LinearAlgebra</text>
<text text-anchor="middle" x="47.38" y="-316" font-family="Helvetica,sans-Serif" font-size="10.00">/Vector2.cpp</text>
</a>
</g>
</g>
<!-- Node1&#45;&gt;Node18 -->
<g id="edge63" class="edge">
<title>Node1&#45;&gt;Node18</title>
<path fill="none" stroke="midnightblue" d="M584.17,-580.97C474.39,-528.93 176.59,-387.75 78.89,-341.44"/>
<polygon fill="midnightblue" stroke="midnightblue" points="582.35,-584.45 592.89,-585.57 585.35,-578.13 582.35,-584.45"/>
</g>
<!-- Node19 -->
<g id="node19" class="node">
<title>Node19</title>
<g id="a_node19"><a xlink:href="_vector3_8h.html" target="_top" xlink:title=" ">
<polygon fill="none" stroke="black" points="805.88,-516.5 805.88,-548.5 914.88,-548.5 914.88,-516.5 805.88,-516.5"/>
<text text-anchor="start" x="813.88" y="-535" font-family="Helvetica,sans-Serif" font-size="10.00">include/LinearAlgebra</text>
<text text-anchor="middle" x="860.38" y="-523" font-family="Helvetica,sans-Serif" font-size="10.00">/Vector3.h</text>
</a>
</g>
</g>
<!-- Node1&#45;&gt;Node19 -->
<g id="edge31" class="edge">
<title>Node1&#45;&gt;Node19</title>
<path fill="none" stroke="midnightblue" d="M688.12,-582.61C725.59,-571.93 772.64,-558.51 808.09,-548.41"/>
<polygon fill="midnightblue" stroke="midnightblue" points="687.48,-579.44 678.82,-585.55 689.4,-586.17 687.48,-579.44"/>
</g>
<!-- Node29 -->
<g id="node29" class="node">
<title>Node29</title>
<g id="a_node29"><a xlink:href="_vector4_8h.html" target="_top" xlink:title=" ">
<polygon fill="none" stroke="black" points="1128.88,-447.5 1128.88,-479.5 1237.88,-479.5 1237.88,-447.5 1128.88,-447.5"/>
<text text-anchor="start" x="1136.88" y="-466" font-family="Helvetica,sans-Serif" font-size="10.00">include/LinearAlgebra</text>
<text text-anchor="middle" x="1183.38" y="-454" font-family="Helvetica,sans-Serif" font-size="10.00">/Vector4.h</text>
</a>
</g>
</g>
<!-- Node1&#45;&gt;Node29 -->
<g id="edge62" class="edge">
<title>Node1&#45;&gt;Node29</title>
<path fill="none" stroke="midnightblue" d="M690.22,-592.1C751.17,-583.55 844.67,-568.76 924.38,-549 1003.57,-529.37 1093.63,-497.83 1143.96,-479.34"/>
<polygon fill="midnightblue" stroke="midnightblue" points="690.03,-588.73 680.61,-593.57 690.99,-595.66 690.03,-588.73"/>
</g>
<!-- Node3 -->
<g id="node3" class="node">
<title>Node3</title>
<g id="a_node3"><a xlink:href="_cube_8h.html" target="_top" xlink:title=" ">
<polygon fill="none" stroke="black" points="1052.12,-195.5 1052.12,-215.5 1132.62,-215.5 1132.62,-195.5 1052.12,-195.5"/>
<text text-anchor="middle" x="1092.38" y="-202" font-family="Helvetica,sans-Serif" font-size="10.00">include/Cube.h</text>
</a>
</g>
</g>
<!-- Node2&#45;&gt;Node3 -->
<g id="edge3" class="edge">
<title>Node2&#45;&gt;Node3</title>
<path fill="none" stroke="midnightblue" d="M483.18,-379.58C523.61,-370.29 576.5,-357.06 622.38,-342 659.31,-329.88 665.67,-318.47 703.38,-309 850.75,-271.97 911.55,-348.59 1043.38,-273 1066.76,-259.59 1082.23,-230.01 1088.79,-215.24"/>
<polygon fill="midnightblue" stroke="midnightblue" points="482.63,-376.34 473.65,-381.97 484.18,-383.17 482.63,-376.34"/>
</g>
<!-- Node8 -->
<g id="node8" class="node">
<title>Node8</title>
<g id="a_node8"><a xlink:href="_texture_effect_8h.html" target="_top" xlink:title=" ">
<polygon fill="none" stroke="black" points="642,-132.5 642,-152.5 784.75,-152.5 784.75,-132.5 642,-132.5"/>
<text text-anchor="middle" x="713.38" y="-139" font-family="Helvetica,sans-Serif" font-size="10.00">include/Effect/TextureEffect.h</text>
</a>
</g>
</g>
<!-- Node2&#45;&gt;Node8 -->
<g id="edge10" class="edge">
<title>Node2&#45;&gt;Node8</title>
<path fill="none" stroke="midnightblue" d="M483.01,-385.26C517.35,-378.28 558.68,-365.46 589.38,-342 625.05,-314.74 691.54,-186.61 709.06,-152.09"/>
<polygon fill="midnightblue" stroke="midnightblue" points="482.77,-381.94 473.6,-387.25 484.08,-388.81 482.77,-381.94"/>
</g>
<!-- Node9 -->
<g id="node9" class="node">
<title>Node9</title>
<g id="a_node9"><a xlink:href="_mouse_8h.html" target="_top" xlink:title=" ">
<polygon fill="none" stroke="black" points="338.75,-315.5 338.75,-335.5 426,-335.5 426,-315.5 338.75,-315.5"/>
<text text-anchor="middle" x="382.38" y="-322" font-family="Helvetica,sans-Serif" font-size="10.00">include/Mouse.h</text>
</a>
</g>
</g>
<!-- Node2&#45;&gt;Node9 -->
<g id="edge12" class="edge">
<title>Node2&#45;&gt;Node9</title>
<path fill="none" stroke="midnightblue" d="M405.35,-369.25C399,-357.45 391.77,-343.98 387.14,-335.37"/>
<polygon fill="midnightblue" stroke="midnightblue" points="402.57,-370.48 410.39,-377.63 408.74,-367.16 402.57,-370.48"/>
</g>
<!-- Node11 -->
<g id="node11" class="node">
<title>Node11</title>
<g id="a_node11"><a xlink:href="_graphics_8cpp.html" target="_top" xlink:title=" ">
<polygon fill="none" stroke="black" points="129.25,-195.5 129.25,-215.5 219.5,-215.5 219.5,-195.5 129.25,-195.5"/>
<text text-anchor="middle" x="174.38" y="-202" font-family="Helvetica,sans-Serif" font-size="10.00">src/Graphics.cpp</text>
</a>
</g>
</g>
<!-- Node2&#45;&gt;Node11 -->
<g id="edge28" class="edge">
<title>Node2&#45;&gt;Node11</title>
<path fill="none" stroke="midnightblue" d="M353.43,-386.61C286.25,-375.55 185.15,-346.88 141.38,-273 129.55,-253.04 150.67,-228.27 164.25,-215.33"/>
<polygon fill="midnightblue" stroke="midnightblue" points="352.49,-390.17 362.91,-388.24 353.57,-383.25 352.49,-390.17"/>
</g>
<!-- Node16 -->
<g id="node16" class="node">
<title>Node16</title>
<g id="a_node16"><a xlink:href="_mouse_8cpp.html" target="_top" xlink:title=" ">
<polygon fill="none" stroke="black" points="150.12,-252.5 150.12,-272.5 230.62,-272.5 230.62,-252.5 150.12,-252.5"/>
<text text-anchor="middle" x="190.38" y="-259" font-family="Helvetica,sans-Serif" font-size="10.00">src/Mouse.cpp</text>
</a>
</g>
</g>
<!-- Node2&#45;&gt;Node16 -->
<g id="edge29" class="edge">
<title>Node2&#45;&gt;Node16</title>
<path fill="none" stroke="midnightblue" d="M382.69,-373.15C332.26,-344.4 242.25,-293.08 206.07,-272.45"/>
<polygon fill="midnightblue" stroke="midnightblue" points="380.8,-376.67 391.22,-378.59 384.27,-370.59 380.8,-376.67"/>
</g>
<!-- Node17 -->
<g id="node17" class="node">
<title>Node17</title>
<g id="a_node17"><a xlink:href="_tex_vertex_8h.html" target="_top" xlink:title=" ">
<polygon fill="none" stroke="black" points="866.25,-315.5 866.25,-335.5 968.5,-335.5 968.5,-315.5 866.25,-315.5"/>
<text text-anchor="middle" x="917.38" y="-322" font-family="Helvetica,sans-Serif" font-size="10.00">include/TexVertex.h</text>
</a>
</g>
</g>
<!-- Node2&#45;&gt;Node17 -->
<g id="edge27" class="edge">
<title>Node2&#45;&gt;Node17</title>
<path fill="none" stroke="midnightblue" d="M483.34,-384.96C560.24,-374.83 692.16,-357.37 805.38,-342 825.31,-339.29 847.24,-336.27 866.37,-333.62"/>
<polygon fill="midnightblue" stroke="midnightblue" points="483.32,-381.56 473.86,-386.34 484.24,-388.5 483.32,-381.56"/>
</g>
<!-- Node2&#45;&gt;Node18 -->
<g id="edge30" class="edge">
<title>Node2&#45;&gt;Node18</title>
<path fill="none" stroke="midnightblue" d="M353.52,-384.35C290.59,-375.09 192.54,-359.65 108.38,-342 103.88,-341.06 99.22,-340.01 94.57,-338.91"/>
<polygon fill="midnightblue" stroke="midnightblue" points="352.68,-387.91 363.08,-385.89 353.69,-380.98 352.68,-387.91"/>
</g>
<!-- Node4 -->
<g id="node4" class="node">
<title>Node4</title>
<g id="a_node4"><a xlink:href="_cube_skin_scene_8h.html" target="_top" xlink:title=" ">
<polygon fill="none" stroke="black" points="615.5,-63.5 615.5,-83.5 779.25,-83.5 779.25,-63.5 615.5,-63.5"/>
<text text-anchor="middle" x="697.38" y="-70" font-family="Helvetica,sans-Serif" font-size="10.00">include/Scenes/CubeSkinScene.h</text>
</a>
</g>
</g>
<!-- Node3&#45;&gt;Node4 -->
<g id="edge4" class="edge">
<title>Node3&#45;&gt;Node4</title>
<path fill="none" stroke="midnightblue" d="M1041.36,-196.68C1003.35,-189.74 950.76,-177.74 907.38,-159 882.59,-148.29 880.76,-137.59 856.38,-126 816.15,-106.88 767,-92.17 734.09,-83.46"/>
<polygon fill="midnightblue" stroke="midnightblue" points="1040.7,-200.29 1051.16,-198.59 1041.92,-193.4 1040.7,-200.29"/>
</g>
<!-- Node6 -->
<g id="node6" class="node">
<title>Node6</title>
<g id="a_node6"><a xlink:href="_cube_solid_scene_8h.html" target="_top" xlink:title=" ">
<polygon fill="none" stroke="black" points="1083.38,-57.5 1083.38,-89.5 1213.38,-89.5 1213.38,-57.5 1083.38,-57.5"/>
<text text-anchor="start" x="1091.38" y="-76" font-family="Helvetica,sans-Serif" font-size="10.00">include/Scenes/CubeSolid</text>
<text text-anchor="middle" x="1148.38" y="-64" font-family="Helvetica,sans-Serif" font-size="10.00">Scene.h</text>
</a>
</g>
</g>
<!-- Node3&#45;&gt;Node6 -->
<g id="edge6" class="edge">
<title>Node3&#45;&gt;Node6</title>
<path fill="none" stroke="midnightblue" d="M1142.83,-201.53C1202.29,-196.86 1295.76,-185.43 1317.38,-159 1351.07,-117.8 1274.17,-94.88 1213.33,-83.62"/>
<polygon fill="midnightblue" stroke="midnightblue" points="1142.86,-198.1 1133.15,-202.33 1143.38,-205.08 1142.86,-198.1"/>
</g>
<!-- Node7 -->
<g id="node7" class="node">
<title>Node7</title>
<g id="a_node7"><a xlink:href="_cube_vertex_color_scene_8h.html" target="_top" xlink:title=" ">
<polygon fill="none" stroke="black" points="797,-57.5 797,-89.5 933.75,-89.5 933.75,-57.5 797,-57.5"/>
<text text-anchor="start" x="805" y="-76" font-family="Helvetica,sans-Serif" font-size="10.00">include/Scenes/CubeVertex</text>
<text text-anchor="middle" x="865.38" y="-64" font-family="Helvetica,sans-Serif" font-size="10.00">ColorScene.h</text>
</a>
</g>
</g>
<!-- Node3&#45;&gt;Node7 -->
<g id="edge8" class="edge">
<title>Node3&#45;&gt;Node7</title>
<path fill="none" stroke="midnightblue" d="M1087.72,-185.34C1082.38,-167.43 1071.88,-141.23 1053.38,-126 1019.67,-98.26 972.19,-85.4 933.38,-79.47"/>
<polygon fill="midnightblue" stroke="midnightblue" points="1084.53,-185.97 1090.51,-194.72 1091.29,-184.15 1084.53,-185.97"/>
</g>
<!-- Node5 -->
<g id="node5" class="node">
<title>Node5</title>
<g id="a_node5"><a xlink:href="_engine_8cpp.html" target="_top" xlink:title=" ">
<polygon fill="none" stroke="black" points="656.75,-0.5 656.75,-20.5 738,-20.5 738,-0.5 656.75,-0.5"/>
<text text-anchor="middle" x="697.38" y="-7" font-family="Helvetica,sans-Serif" font-size="10.00">src/Engine.cpp</text>
</a>
</g>
</g>
<!-- Node4&#45;&gt;Node5 -->
<g id="edge5" class="edge">
<title>Node4&#45;&gt;Node5</title>
<path fill="none" stroke="midnightblue" d="M697.38,-52.99C697.38,-41.97 697.38,-28.73 697.38,-20.22"/>
<polygon fill="midnightblue" stroke="midnightblue" points="693.88,-52.76 697.38,-62.76 700.88,-52.76 693.88,-52.76"/>
</g>
<!-- Node6&#45;&gt;Node5 -->
<g id="edge7" class="edge">
<title>Node6&#45;&gt;Node5</title>
<path fill="none" stroke="midnightblue" d="M1072.92,-62.29C976.53,-49.26 813.18,-27.16 737.76,-16.96"/>
<polygon fill="midnightblue" stroke="midnightblue" points="1072.38,-65.89 1082.76,-63.76 1073.32,-58.95 1072.38,-65.89"/>
</g>
<!-- Node7&#45;&gt;Node5 -->
<g id="edge9" class="edge">
<title>Node7&#45;&gt;Node5</title>
<path fill="none" stroke="midnightblue" d="M814.19,-53.91C783.57,-42.8 746.04,-29.17 721.93,-20.42"/>
<polygon fill="midnightblue" stroke="midnightblue" points="812.68,-57.45 823.28,-57.58 815.07,-50.87 812.68,-57.45"/>
</g>
<!-- Node8&#45;&gt;Node4 -->
<g id="edge11" class="edge">
<title>Node8&#45;&gt;Node4</title>
<path fill="none" stroke="midnightblue" d="M708.78,-122.25C705.73,-109.49 701.88,-93.34 699.52,-83.48"/>
<polygon fill="midnightblue" stroke="midnightblue" points="705.56,-122.83 711.28,-131.74 712.36,-121.2 705.56,-122.83"/>
</g>
<!-- Node10 -->
<g id="node10" class="node">
<title>Node10</title>
<g id="a_node10"><a xlink:href="_main_window_8h.html" target="_top" xlink:title=" ">
<polygon fill="none" stroke="black" points="286.62,-252.5 286.62,-272.5 400.12,-272.5 400.12,-252.5 286.62,-252.5"/>
<text text-anchor="middle" x="343.38" y="-259" font-family="Helvetica,sans-Serif" font-size="10.00">include/MainWindow.h</text>
</a>
</g>
</g>
<!-- Node9&#45;&gt;Node10 -->
<g id="edge13" class="edge">
<title>Node9&#45;&gt;Node10</title>
<path fill="none" stroke="midnightblue" d="M371.02,-306.73C363.76,-295.39 354.68,-281.19 348.95,-272.22"/>
<polygon fill="midnightblue" stroke="midnightblue" points="368.45,-308.22 376.79,-314.76 374.35,-304.45 368.45,-308.22"/>
</g>
<!-- Node14 -->
<g id="node14" class="node">
<title>Node14</title>
<g id="a_node14"><a xlink:href="_scene_8h.html" target="_top" xlink:title=" ">
<polygon fill="none" stroke="black" points="494.5,-252.5 494.5,-272.5 580.25,-272.5 580.25,-252.5 494.5,-252.5"/>
<text text-anchor="middle" x="537.38" y="-259" font-family="Helvetica,sans-Serif" font-size="10.00">include/Scene.h</text>
</a>
</g>
</g>
<!-- Node9&#45;&gt;Node14 -->
<g id="edge18" class="edge">
<title>Node9&#45;&gt;Node14</title>
<path fill="none" stroke="midnightblue" d="M414.86,-311.72C444.71,-299.97 488.22,-282.84 514.56,-272.48"/>
<polygon fill="midnightblue" stroke="midnightblue" points="413.94,-308.71 405.91,-315.63 416.5,-315.22 413.94,-308.71"/>
</g>
<!-- Node9&#45;&gt;Node16 -->
<g id="edge26" class="edge">
<title>Node9&#45;&gt;Node16</title>
<path fill="none" stroke="midnightblue" d="M344.06,-312.33C307.04,-300.57 251.83,-283.03 218.64,-272.48"/>
<polygon fill="midnightblue" stroke="midnightblue" points="342.87,-315.94 353.46,-315.63 344.99,-309.27 342.87,-315.94"/>
</g>
<!-- Node10&#45;&gt;Node5 -->
<g id="edge14" class="edge">
<title>Node10&#45;&gt;Node5</title>
<path fill="none" stroke="midnightblue" d="M323.08,-246.18C291.06,-220.14 235.47,-166.19 266.38,-126 314.46,-63.48 559.02,-27.95 656.85,-16.05"/>
<polygon fill="midnightblue" stroke="midnightblue" points="320.38,-249.29 330.4,-252.74 324.72,-243.8 320.38,-249.29"/>
</g>
<!-- Node10&#45;&gt;Node11 -->
<g id="edge15" class="edge">
<title>Node10&#45;&gt;Node11</title>
<path fill="none" stroke="midnightblue" d="M305.7,-249.24C274.24,-239 230.12,-224.64 201.89,-215.46"/>
<polygon fill="midnightblue" stroke="midnightblue" points="304.25,-252.77 314.85,-252.54 306.42,-246.12 304.25,-252.77"/>
</g>
<!-- Node12 -->
<g id="node12" class="node">
<title>Node12</title>
<g id="a_node12"><a xlink:href="_main_8cpp.html" target="_top" xlink:title=" ">
<polygon fill="none" stroke="black" points="275.25,-132.5 275.25,-152.5 347.5,-152.5 347.5,-132.5 275.25,-132.5"/>
<text text-anchor="middle" x="311.38" y="-139" font-family="Helvetica,sans-Serif" font-size="10.00">src/Main.cpp</text>
</a>
</g>
</g>
<!-- Node10&#45;&gt;Node12 -->
<g id="edge16" class="edge">
<title>Node10&#45;&gt;Node12</title>
<path fill="none" stroke="midnightblue" d="M338.16,-242.26C331.15,-216.41 318.98,-171.53 313.81,-152.47"/>
<polygon fill="midnightblue" stroke="midnightblue" points="334.97,-242.9 340.97,-251.63 341.73,-241.06 334.97,-242.9"/>
</g>
<!-- Node13 -->
<g id="node13" class="node">
<title>Node13</title>
<g id="a_node13"><a xlink:href="_main_window_8cpp.html" target="_top" xlink:title=" ">
<polygon fill="none" stroke="black" points="366,-132.5 366,-152.5 472.75,-152.5 472.75,-132.5 366,-132.5"/>
<text text-anchor="middle" x="419.38" y="-139" font-family="Helvetica,sans-Serif" font-size="10.00">src/MainWindow.cpp</text>
</a>
</g>
</g>
<!-- Node10&#45;&gt;Node13 -->
<g id="edge17" class="edge">
<title>Node10&#45;&gt;Node13</title>
<path fill="none" stroke="midnightblue" d="M352.75,-243.04C359.86,-229.46 370.12,-210.72 380.38,-195 390.55,-179.41 403.92,-162.38 412.07,-152.34"/>
<polygon fill="midnightblue" stroke="midnightblue" points="349.26,-241.17 347.79,-251.66 355.48,-244.38 349.26,-241.17"/>
</g>
<!-- Node14&#45;&gt;Node4 -->
<g id="edge23" class="edge">
<title>Node14&#45;&gt;Node4</title>
<path fill="none" stroke="midnightblue" d="M535.42,-242.05C533.64,-213.31 534.65,-159.29 562.38,-126 581.32,-103.25 611.48,-90.54 638.49,-83.43"/>
<polygon fill="midnightblue" stroke="midnightblue" points="531.99,-242.01 536.29,-251.69 538.97,-241.44 531.99,-242.01"/>
</g>
<!-- Node14&#45;&gt;Node6 -->
<g id="edge24" class="edge">
<title>Node14&#45;&gt;Node6</title>
<path fill="none" stroke="midnightblue" d="M590.86,-252.69C714.5,-232.06 1012.66,-180.75 1053.38,-159 1071.67,-149.22 1071.05,-139.97 1086.38,-126 1100.44,-113.18 1117.06,-99.44 1129.55,-89.39"/>
<polygon fill="midnightblue" stroke="midnightblue" points="590.45,-249.38 581.16,-254.47 591.6,-256.28 590.45,-249.38"/>
</g>
<!-- Node14&#45;&gt;Node7 -->
<g id="edge25" class="edge">
<title>Node14&#45;&gt;Node7</title>
<path fill="none" stroke="midnightblue" d="M545.11,-242.98C558.49,-213.34 588.87,-155.57 633.38,-126 640.32,-121.38 731.11,-102.04 797.02,-88.42"/>
<polygon fill="midnightblue" stroke="midnightblue" points="541.6,-241.28 540.82,-251.85 548.02,-244.07 541.6,-241.28"/>
</g>
<!-- Node15 -->
<g id="node15" class="node">
<title>Node15</title>
<g id="a_node15"><a xlink:href="_engine_8h.html" target="_top" xlink:title=" ">
<polygon fill="none" stroke="black" points="422.38,-195.5 422.38,-215.5 510.38,-215.5 510.38,-195.5 422.38,-195.5"/>
<text text-anchor="middle" x="466.38" y="-202" font-family="Helvetica,sans-Serif" font-size="10.00">include/Engine.h</text>
</a>
</g>
</g>
<!-- Node14&#45;&gt;Node15 -->
<g id="edge19" class="edge">
<title>Node14&#45;&gt;Node15</title>
<path fill="none" stroke="midnightblue" d="M517.42,-246.04C504.7,-236.18 488.66,-223.76 477.99,-215.5"/>
<polygon fill="midnightblue" stroke="midnightblue" points="514.92,-249.31 524.97,-252.66 519.21,-243.77 514.92,-249.31"/>
</g>
<!-- Node15&#45;&gt;Node5 -->
<g id="edge20" class="edge">
<title>Node15&#45;&gt;Node5</title>
<path fill="none" stroke="midnightblue" d="M479.24,-187.43C502.18,-157.87 552.8,-96.53 606.38,-57 627.7,-41.27 655.27,-28.35 674.46,-20.35"/>
<polygon fill="midnightblue" stroke="midnightblue" points="476.1,-184.77 472.79,-194.84 481.65,-189.03 476.1,-184.77"/>
</g>
<!-- Node15&#45;&gt;Node12 -->
<g id="edge21" class="edge">
<title>Node15&#45;&gt;Node12</title>
<path fill="none" stroke="midnightblue" d="M433.89,-191.72C404.04,-179.97 360.53,-162.84 334.19,-152.48"/>
<polygon fill="midnightblue" stroke="midnightblue" points="432.25,-195.22 442.84,-195.63 434.81,-188.71 432.25,-195.22"/>
</g>
<!-- Node15&#45;&gt;Node13 -->
<g id="edge22" class="edge">
<title>Node15&#45;&gt;Node13</title>
<path fill="none" stroke="midnightblue" d="M452.95,-187.08C444.17,-175.68 433.07,-161.28 426.1,-152.22"/>
<polygon fill="midnightblue" stroke="midnightblue" points="450.77,-188.97 459.64,-194.76 456.31,-184.7 450.77,-188.97"/>
</g>
<!-- Node19&#45;&gt;Node3 -->
<g id="edge52" class="edge">
<title>Node19&#45;&gt;Node3</title>
<path fill="none" stroke="midnightblue" d="M914.5,-512.87C985.28,-486.83 1100.38,-437.95 1100.38,-395.5 1100.38,-395.5 1100.38,-395.5 1100.38,-324.5 1100.38,-283.64 1095.54,-235 1093.39,-215.37"/>
<polygon fill="midnightblue" stroke="midnightblue" points="913.6,-509.84 905.39,-516.55 915.99,-516.42 913.6,-509.84"/>
</g>
<!-- Node19&#45;&gt;Node4 -->
<g id="edge59" class="edge">
<title>Node19&#45;&gt;Node4</title>
<path fill="none" stroke="midnightblue" d="M795.49,-521.53C763.99,-514.15 727.08,-501.5 699.38,-480 664.36,-452.82 646.38,-439.83 646.38,-395.5 646.38,-395.5 646.38,-395.5 646.38,-324.5 646.38,-236.09 595.19,-205.74 633.38,-126 642.74,-106.45 663.54,-91.96 678.91,-83.41"/>
<polygon fill="midnightblue" stroke="midnightblue" points="794.42,-525.1 804.94,-523.83 795.93,-518.26 794.42,-525.1"/>
</g>
<!-- Node19&#45;&gt;Node17 -->
<g id="edge60" class="edge">
<title>Node19&#45;&gt;Node17</title>
<path fill="none" stroke="midnightblue" d="M918.83,-511.78C932.9,-504.13 946.21,-493.79 954.38,-480 983.44,-430.94 940.85,-360.27 923.85,-335.49"/>
<polygon fill="midnightblue" stroke="midnightblue" points="917.41,-509.07 910.02,-516.66 920.53,-515.34 917.41,-509.07"/>
</g>
<!-- Node20 -->
<g id="node20" class="node">
<title>Node20</title>
<g id="a_node20"><a xlink:href="_colors_8h.html" target="_top" xlink:title=" ">
<polygon fill="none" stroke="black" points="708.5,-453.5 708.5,-473.5 794.25,-473.5 794.25,-453.5 708.5,-453.5"/>
<text text-anchor="middle" x="751.38" y="-460" font-family="Helvetica,sans-Serif" font-size="10.00">include/Colors.h</text>
</a>
</g>
</g>
<!-- Node19&#45;&gt;Node20 -->
<g id="edge32" class="edge">
<title>Node19&#45;&gt;Node20</title>
<path fill="none" stroke="midnightblue" d="M826.87,-510.91C806.41,-498.33 781.29,-482.89 765.81,-473.37"/>
<polygon fill="midnightblue" stroke="midnightblue" points="824.83,-514.38 835.18,-516.63 828.5,-508.41 824.83,-514.38"/>
</g>
<!-- Node22 -->
<g id="node22" class="node">
<title>Node22</title>
<g id="a_node22"><a xlink:href="_graphics_8h.html" target="_top" xlink:title=" ">
<polygon fill="none" stroke="black" points="482.88,-315.5 482.88,-335.5 579.88,-335.5 579.88,-315.5 482.88,-315.5"/>
<text text-anchor="middle" x="531.38" y="-322" font-family="Helvetica,sans-Serif" font-size="10.00">include/Graphics.h</text>
</a>
</g>
</g>
<!-- Node19&#45;&gt;Node22 -->
<g id="edge53" class="edge">
<title>Node19&#45;&gt;Node22</title>
<path fill="none" stroke="midnightblue" d="M795.33,-529.66C746.65,-525.41 680.46,-513.28 632.38,-480 576.77,-441.51 544,-361.5 534.37,-335.13"/>
<polygon fill="midnightblue" stroke="midnightblue" points="794.82,-533.21 805.06,-530.49 795.36,-526.23 794.82,-533.21"/>
</g>
<!-- Node26 -->
<g id="node26" class="node">
<title>Node26</title>
<g id="a_node26"><a xlink:href="_pube_screen_transformer_8h.html" target="_top" xlink:title=" ">
<polygon fill="none" stroke="black" points="712.25,-252.5 712.25,-272.5 874.5,-272.5 874.5,-252.5 712.25,-252.5"/>
<text text-anchor="middle" x="793.38" y="-259" font-family="Helvetica,sans-Serif" font-size="10.00">include/PubeScreenTransformer.h</text>
</a>
</g>
</g>
<!-- Node19&#45;&gt;Node26 -->
<g id="edge58" class="edge">
<title>Node19&#45;&gt;Node26</title>
<path fill="none" stroke="midnightblue" d="M850.96,-506.54C847.99,-498.17 844.84,-488.75 842.38,-480 821.28,-405.16 823.52,-384.61 805.38,-309 802.29,-296.13 798.3,-281.33 795.79,-272.19"/>
<polygon fill="midnightblue" stroke="midnightblue" points="847.98,-507.58 854.69,-515.78 854.55,-505.19 847.98,-507.58"/>
</g>
<!-- Node28 -->
<g id="node28" class="node">
<title>Node28</title>
<g id="a_node28"><a xlink:href="_indexed_triangle_list_8h.html" target="_top" xlink:title=" ">
<polygon fill="none" stroke="black" points="892.75,-252.5 892.75,-272.5 1034,-272.5 1034,-252.5 892.75,-252.5"/>
<text text-anchor="middle" x="963.38" y="-259" font-family="Helvetica,sans-Serif" font-size="10.00">include/IndexedTriangleList.h</text>
</a>
</g>
</g>
<!-- Node19&#45;&gt;Node28 -->
<g id="edge54" class="edge">
<title>Node19&#45;&gt;Node28</title>
<path fill="none" stroke="midnightblue" d="M914.79,-512.7C939.66,-502.93 965.18,-490.8 972.38,-480 1017.66,-412.08 979.71,-303.74 967.09,-272.31"/>
<polygon fill="midnightblue" stroke="midnightblue" points="913.7,-509.75 905.6,-516.59 916.2,-516.29 913.7,-509.75"/>
</g>
<!-- Node19&#45;&gt;Node29 -->
<g id="edge57" class="edge">
<title>Node19&#45;&gt;Node29</title>
<path fill="none" stroke="midnightblue" d="M925.07,-518.77C976.44,-508.57 1050.09,-493.74 1114.38,-480 1119.18,-478.97 1124.16,-477.89 1129.16,-476.79"/>
<polygon fill="midnightblue" stroke="midnightblue" points="924.58,-515.5 915.45,-520.88 925.94,-522.36 924.58,-515.5"/>
</g>
<!-- Node30 -->
<g id="node30" class="node">
<title>Node30</title>
<g id="a_node30"><a xlink:href="_vector3_8cpp.html" target="_top" xlink:title=" ">
<polygon fill="none" stroke="black" points="851,-447.5 851,-479.5 945.75,-479.5 945.75,-447.5 851,-447.5"/>
<text text-anchor="start" x="859" y="-466" font-family="Helvetica,sans-Serif" font-size="10.00">test/LinearAlgebra</text>
<text text-anchor="middle" x="898.38" y="-454" font-family="Helvetica,sans-Serif" font-size="10.00">/Vector3.cpp</text>
</a>
</g>
</g>
<!-- Node19&#45;&gt;Node30 -->
<g id="edge61" class="edge">
<title>Node19&#45;&gt;Node30</title>
<path fill="none" stroke="midnightblue" d="M874.22,-507.09C879.5,-497.79 885.34,-487.47 889.97,-479.33"/>
<polygon fill="midnightblue" stroke="midnightblue" points="870.7,-505.21 868.81,-515.63 876.79,-508.66 870.7,-505.21"/>
</g>
<!-- Node21 -->
<g id="node21" class="node">
<title>Node21</title>
<g id="a_node21"><a xlink:href="_surface_8h.html" target="_top" xlink:title=" ">
<polygon fill="none" stroke="black" points="704.88,-384.5 704.88,-404.5 795.88,-404.5 795.88,-384.5 704.88,-384.5"/>
<text text-anchor="middle" x="750.38" y="-391" font-family="Helvetica,sans-Serif" font-size="10.00">include/Surface.h</text>
</a>
</g>
</g>
<!-- Node20&#45;&gt;Node21 -->
<g id="edge33" class="edge">
<title>Node20&#45;&gt;Node21</title>
<path fill="none" stroke="midnightblue" d="M751.08,-442.86C750.89,-430.17 750.65,-414.24 750.51,-404.48"/>
<polygon fill="midnightblue" stroke="midnightblue" points="747.6,-442.79 751.24,-452.74 754.59,-442.69 747.6,-442.79"/>
</g>
<!-- Node21&#45;&gt;Node22 -->
<g id="edge34" class="edge">
<title>Node21&#45;&gt;Node22</title>
<path fill="none" stroke="midnightblue" d="M710.87,-381.41C667.61,-368.18 599.25,-347.27 560.58,-335.43"/>
<polygon fill="midnightblue" stroke="midnightblue" points="709.71,-385.02 720.29,-384.6 711.75,-378.33 709.71,-385.02"/>
</g>
<!-- Node27 -->
<g id="node27" class="node">
<title>Node27</title>
<g id="a_node27"><a xlink:href="_surface_8cpp.html" target="_top" xlink:title=" ">
<polygon fill="none" stroke="black" points="712.25,-315.5 712.25,-335.5 796.5,-335.5 796.5,-315.5 712.25,-315.5"/>
<text text-anchor="middle" x="754.38" y="-322" font-family="Helvetica,sans-Serif" font-size="10.00">src/Surface.cpp</text>
</a>
</g>
</g>
<!-- Node21&#45;&gt;Node27 -->
<g id="edge51" class="edge">
<title>Node21&#45;&gt;Node27</title>
<path fill="none" stroke="midnightblue" d="M751.55,-373.86C752.31,-361.17 753.26,-345.24 753.84,-335.48"/>
<polygon fill="midnightblue" stroke="midnightblue" points="748,-373.55 750.9,-383.74 754.99,-373.97 748,-373.55"/>
</g>
<!-- Node22&#45;&gt;Node10 -->
<g id="edge36" class="edge">
<title>Node22&#45;&gt;Node10</title>
<path fill="none" stroke="midnightblue" d="M493.86,-312.33C457.61,-300.57 403.55,-283.03 371.05,-272.48"/>
<polygon fill="midnightblue" stroke="midnightblue" points="492.45,-315.87 503.04,-315.63 494.61,-309.21 492.45,-315.87"/>
</g>
<!-- Node22&#45;&gt;Node11 -->
<g id="edge49" class="edge">
<title>Node22&#45;&gt;Node11</title>
<path fill="none" stroke="midnightblue" d="M472.25,-315.13C408.66,-304.59 311.99,-287.1 277.38,-273 258.45,-265.29 209.97,-231.74 186.92,-215.45"/>
<polygon fill="midnightblue" stroke="midnightblue" points="471.5,-318.72 481.94,-316.89 472.64,-311.81 471.5,-318.72"/>
</g>
<!-- Node22&#45;&gt;Node13 -->
<g id="edge50" class="edge">
<title>Node22&#45;&gt;Node13</title>
<path fill="none" stroke="midnightblue" d="M505.61,-310.11C476.75,-292.32 431.64,-259.04 413.38,-216 404.3,-194.61 411.37,-166.51 416.06,-152.4"/>
<polygon fill="midnightblue" stroke="midnightblue" points="503.33,-313.42 513.71,-315.54 506.92,-307.41 503.33,-313.42"/>
</g>
<!-- Node22&#45;&gt;Node14 -->
<g id="edge48" class="edge">
<title>Node22&#45;&gt;Node14</title>
<path fill="none" stroke="midnightblue" d="M533.29,-304.99C534.38,-293.97 535.68,-280.73 536.52,-272.22"/>
<polygon fill="midnightblue" stroke="midnightblue" points="529.73,-304.47 532.23,-314.76 536.7,-305.15 529.73,-304.47"/>
</g>
<!-- Node22&#45;&gt;Node15 -->
<g id="edge35" class="edge">
<title>Node22&#45;&gt;Node15</title>
<path fill="none" stroke="midnightblue" d="M513.32,-308.22C503.8,-298.77 492.62,-286.16 485.38,-273 474.83,-253.86 469.67,-228.32 467.58,-215.16"/>
<polygon fill="midnightblue" stroke="midnightblue" points="510.46,-310.29 520.11,-314.65 515.29,-305.22 510.46,-310.29"/>
</g>
<!-- Node23 -->
<g id="node23" class="node">
<title>Node23</title>
<g id="a_node23"><a xlink:href="_pipeline_8h.html" target="_top" xlink:title=" ">
<polygon fill="none" stroke="black" points="925.12,-195.5 925.12,-215.5 1017.62,-215.5 1017.62,-195.5 925.12,-195.5"/>
<text text-anchor="middle" x="971.38" y="-202" font-family="Helvetica,sans-Serif" font-size="10.00">include/Pipeline.h</text>
</a>
</g>
</g>
<!-- Node22&#45;&gt;Node23 -->
<g id="edge37" class="edge">
<title>Node22&#45;&gt;Node23</title>
<path fill="none" stroke="midnightblue" d="M557.91,-311.04C591.11,-294.73 650.09,-267.53 703.38,-252 713.94,-248.92 851.35,-226.18 925.18,-214.06"/>
<polygon fill="midnightblue" stroke="midnightblue" points="556.87,-308.14 549.47,-315.72 559.98,-314.41 556.87,-308.14"/>
</g>
<!-- Node22&#45;&gt;Node26 -->
<g id="edge46" class="edge">
<title>Node22&#45;&gt;Node26</title>
<path fill="none" stroke="midnightblue" d="M580.41,-313.08C630.93,-301.32 708.63,-283.23 754.89,-272.46"/>
<polygon fill="midnightblue" stroke="midnightblue" points="579.7,-309.89 570.75,-315.56 581.29,-316.71 579.7,-309.89"/>
</g>
<!-- Node23&#45;&gt;Node4 -->
<g id="edge43" class="edge">
<title>Node23&#45;&gt;Node4</title>
<path fill="none" stroke="midnightblue" d="M942.89,-190.99C886.85,-164.4 763.6,-105.92 716.34,-83.5"/>
<polygon fill="midnightblue" stroke="midnightblue" points="941.01,-194.44 951.54,-195.56 944.01,-188.12 941.01,-194.44"/>
</g>
<!-- Node23&#45;&gt;Node6 -->
<g id="edge44" class="edge">
<title>Node23&#45;&gt;Node6</title>
<path fill="none" stroke="midnightblue" d="M1018.99,-192.3C1041,-185.07 1066.58,-174.28 1086.38,-159 1111.3,-139.77 1130.85,-107.94 1140.91,-89.32"/>
<polygon fill="midnightblue" stroke="midnightblue" points="1018.02,-189.24 1009.52,-195.56 1020.11,-195.93 1018.02,-189.24"/>
</g>
<!-- Node23&#45;&gt;Node7 -->
<g id="edge45" class="edge">
<title>Node23&#45;&gt;Node7</title>
<path fill="none" stroke="midnightblue" d="M945.23,-190.06C932.61,-182.13 917.96,-171.39 907.38,-159 889.18,-137.7 876.55,-107.15 870.17,-89.22"/>
<polygon fill="midnightblue" stroke="midnightblue" points="943,-193.4 953.38,-195.55 946.61,-187.4 943,-193.4"/>
</g>
<!-- Node23&#45;&gt;Node8 -->
<g id="edge40" class="edge">
<title>Node23&#45;&gt;Node8</title>
<path fill="none" stroke="midnightblue" d="M923.09,-193.08C873.34,-181.32 796.82,-163.23 751.27,-152.46"/>
<polygon fill="midnightblue" stroke="midnightblue" points="922.05,-196.67 932.58,-195.56 923.66,-189.86 922.05,-196.67"/>
</g>
<!-- Node24 -->
<g id="node24" class="node">
<title>Node24</title>
<g id="a_node24"><a xlink:href="_solid_effect_8h.html" target="_top" xlink:title=" ">
<polygon fill="none" stroke="black" points="1176.25,-132.5 1176.25,-152.5 1308.5,-152.5 1308.5,-132.5 1176.25,-132.5"/>
<text text-anchor="middle" x="1242.38" y="-139" font-family="Helvetica,sans-Serif" font-size="10.00">include/Effect/SolidEffect.h</text>
</a>
</g>
</g>
<!-- Node23&#45;&gt;Node24 -->
<g id="edge38" class="edge">
<title>Node23&#45;&gt;Node24</title>
<path fill="none" stroke="midnightblue" d="M1021.77,-193.16C1074.01,-181.4 1154.62,-163.25 1202.57,-152.46"/>
<polygon fill="midnightblue" stroke="midnightblue" points="1021.06,-189.95 1012.07,-195.56 1022.6,-196.78 1021.06,-189.95"/>
</g>
<!-- Node25 -->
<g id="node25" class="node">
<title>Node25</title>
<g id="a_node25"><a xlink:href="_vertex_color_effect_8h.html" target="_top" xlink:title=" ">
<polygon fill="none" stroke="black" points="916.12,-126.5 916.12,-158.5 1044.62,-158.5 1044.62,-126.5 916.12,-126.5"/>
<text text-anchor="start" x="924.12" y="-145" font-family="Helvetica,sans-Serif" font-size="10.00">include/Effect/VertexColor</text>
<text text-anchor="middle" x="980.38" y="-133" font-family="Helvetica,sans-Serif" font-size="10.00">Effect.h</text>
</a>
</g>
</g>
<!-- Node23&#45;&gt;Node25 -->
<g id="edge41" class="edge">
<title>Node23&#45;&gt;Node25</title>
<path fill="none" stroke="midnightblue" d="M974.23,-185.12C975.51,-176.46 977,-166.4 978.18,-158.35"/>
<polygon fill="midnightblue" stroke="midnightblue" points="970.66,-184.36 972.66,-194.76 977.59,-185.38 970.66,-184.36"/>
</g>
<!-- Node24&#45;&gt;Node6 -->
<g id="edge39" class="edge">
<title>Node24&#45;&gt;Node6</title>
<path fill="none" stroke="midnightblue" d="M1221.23,-126.43C1205.72,-115.37 1184.75,-100.43 1169.29,-89.41"/>
<polygon fill="midnightblue" stroke="midnightblue" points="1218.91,-129.79 1229.09,-132.74 1222.97,-124.09 1218.91,-129.79"/>
</g>
<!-- Node25&#45;&gt;Node7 -->
<g id="edge42" class="edge">
<title>Node25&#45;&gt;Node7</title>
<path fill="none" stroke="midnightblue" d="M945.47,-121.16C927.86,-110.9 906.89,-98.69 890.83,-89.33"/>
<polygon fill="midnightblue" stroke="midnightblue" points="943.45,-124.62 953.85,-126.63 946.97,-118.57 943.45,-124.62"/>
</g>
<!-- Node26&#45;&gt;Node23 -->
<g id="edge47" class="edge">
<title>Node26&#45;&gt;Node23</title>
<path fill="none" stroke="midnightblue" d="M832.62,-249.37C865.79,-239.13 912.53,-224.68 942.39,-215.46"/>
<polygon fill="midnightblue" stroke="midnightblue" points="831.89,-246.24 823.37,-252.54 833.96,-252.93 831.89,-246.24"/>
</g>
<!-- Node28&#45;&gt;Node3 -->
<g id="edge55" class="edge">
<title>Node28&#45;&gt;Node3</title>
<path fill="none" stroke="midnightblue" d="M994.35,-248.29C1018.18,-238.13 1050.48,-224.36 1071.37,-215.46"/>
<polygon fill="midnightblue" stroke="midnightblue" points="993.21,-245.4 985.39,-252.54 995.96,-251.84 993.21,-245.4"/>
</g>
<!-- Node28&#45;&gt;Node23 -->
<g id="edge56" class="edge">
<title>Node28&#45;&gt;Node23</title>
<path fill="none" stroke="midnightblue" d="M966.17,-242.31C967.51,-233.08 969.05,-222.48 970.11,-215.21"/>
<polygon fill="midnightblue" stroke="midnightblue" points="962.6,-241.51 964.62,-251.91 969.53,-242.51 962.6,-241.51"/>
</g>
</g>
</svg>
