<?xml version="1.0" encoding="UTF-8" standalone="no"?>
<!DOCTYPE svg PUBLIC "-//W3C//DTD SVG 1.1//EN"
 "http://www.w3.org/Graphics/SVG/1.1/DTD/svg11.dtd">
<!-- Generated by graphviz version 8.1.0 (20230707.0739)
 -->
<!-- Title: include/LinearAlgebra/Math.h Pages: 1 -->
<svg width="1994pt" height="626pt"
 viewBox="0.00 0.00 1993.88 626.00" xmlns="http://www.w3.org/2000/svg" xmlns:xlink="http://www.w3.org/1999/xlink">
<g id="graph0" class="graph" transform="scale(1 1) rotate(0) translate(4 622)">
<title>include/LinearAlgebra/Math.h</title>
<!-- Node1 -->
<g id="node1" class="node">
<title>Node1</title>
<g id="a_node1"><a xlink:title=" ">
<polygon fill="#bfbfbf" stroke="black" points="512.88,-585.5 512.88,-617.5 621.88,-617.5 621.88,-585.5 512.88,-585.5"/>
<text text-anchor="start" x="520.88" y="-604" font-family="Helvetica,sans-Serif" font-size="10.00">include/LinearAlgebra</text>
<text text-anchor="middle" x="567.38" y="-592" font-family="Helvetica,sans-Serif" font-size="10.00">/Math.h</text>
</a>
</g>
</g>
<!-- Node1&#45;&gt;Node1 -->
<g id="edge1" class="edge">
<title>Node1&#45;&gt;Node1</title>
<path fill="none" stroke="midnightblue" d="M632.15,-611.11C636.94,-608.96 639.88,-605.75 639.88,-601.5 639.88,-594.69 632.35,-590.57 621.76,-589.14"/>
<polygon fill="midnightblue" stroke="midnightblue" points="631.53,-607.92 622.76,-613.86 633.32,-614.69 631.53,-607.92"/>
</g>
<!-- Node2 -->
<g id="node2" class="node">
<title>Node2</title>
<g id="a_node2"><a xlink:href="_vector2_8h.html" target="_top" xlink:title=" ">
<polygon fill="none" stroke="black" points="213.88,-264.5 213.88,-296.5 322.88,-296.5 322.88,-264.5 213.88,-264.5"/>
<text text-anchor="start" x="221.88" y="-283" font-family="Helvetica,sans-Serif" font-size="10.00">include/LinearAlgebra</text>
<text text-anchor="middle" x="268.38" y="-271" font-family="Helvetica,sans-Serif" font-size="10.00">/Vector2.h</text>
</a>
</g>
</g>
<!-- Node1&#45;&gt;Node2 -->
<g id="edge2" class="edge">
<title>Node1&#45;&gt;Node2</title>
<path fill="none" stroke="midnightblue" d="M502.18,-595.37C423.14,-585.17 300.38,-554.8 300.38,-464.5 300.38,-464.5 300.38,-464.5 300.38,-399.5 300.38,-361.29 284.55,-318.48 275.16,-296.42"/>
<polygon fill="midnightblue" stroke="midnightblue" points="501.67,-598.95 512.02,-596.68 502.51,-592 501.67,-598.95"/>
</g>
<!-- Node21 -->
<g id="node21" class="node">
<title>Node21</title>
<g id="a_node21"><a xlink:href="_vector2_8cpp.html" target="_top" xlink:title=" ">
<polygon fill="none" stroke="black" points="0,-195.5 0,-227.5 94.75,-227.5 94.75,-195.5 0,-195.5"/>
<text text-anchor="start" x="8" y="-214" font-family="Helvetica,sans-Serif" font-size="10.00">test/LinearAlgebra</text>
<text text-anchor="middle" x="47.38" y="-202" font-family="Helvetica,sans-Serif" font-size="10.00">/Vector2.cpp</text>
</a>
</g>
</g>
<!-- Node1&#45;&gt;Node21 -->
<g id="edge81" class="edge">
<title>Node1&#45;&gt;Node21</title>
<path fill="none" stroke="midnightblue" d="M502.23,-595.29C373.4,-583.18 98.38,-547.6 98.38,-464.5 98.38,-464.5 98.38,-464.5 98.38,-342.5 98.38,-298.13 72.31,-250.77 57.45,-227.36"/>
<polygon fill="midnightblue" stroke="midnightblue" points="501.84,-598.86 512.12,-596.29 502.48,-591.89 501.84,-598.86"/>
</g>
<!-- Node22 -->
<g id="node22" class="node">
<title>Node22</title>
<g id="a_node22"><a xlink:href="_vector3_8h.html" target="_top" xlink:title=" ">
<polygon fill="none" stroke="black" points="783.88,-516.5 783.88,-548.5 892.88,-548.5 892.88,-516.5 783.88,-516.5"/>
<text text-anchor="start" x="791.88" y="-535" font-family="Helvetica,sans-Serif" font-size="10.00">include/LinearAlgebra</text>
<text text-anchor="middle" x="838.38" y="-523" font-family="Helvetica,sans-Serif" font-size="10.00">/Vector3.h</text>
</a>
</g>
</g>
<!-- Node1&#45;&gt;Node22 -->
<g id="edge39" class="edge">
<title>Node1&#45;&gt;Node22</title>
<path fill="none" stroke="midnightblue" d="M632.12,-584.49C678.58,-573.01 740.46,-557.71 784.28,-546.87"/>
<polygon fill="midnightblue" stroke="midnightblue" points="631.43,-581.3 622.56,-587.1 633.11,-588.1 631.43,-581.3"/>
</g>
<!-- Node35 -->
<g id="node35" class="node">
<title>Node35</title>
<g id="a_node35"><a xlink:href="_vector4_8h.html" target="_top" xlink:title=" ">
<polygon fill="none" stroke="black" points="1876.88,-447.5 1876.88,-479.5 1985.88,-479.5 1985.88,-447.5 1876.88,-447.5"/>
<text text-anchor="start" x="1884.88" y="-466" font-family="Helvetica,sans-Serif" font-size="10.00">include/LinearAlgebra</text>
<text text-anchor="middle" x="1931.38" y="-454" font-family="Helvetica,sans-Serif" font-size="10.00">/Vector4.h</text>
</a>
</g>
</g>
<!-- Node1&#45;&gt;Node35 -->
<g id="edge80" class="edge">
<title>Node1&#45;&gt;Node35</title>
<path fill="none" stroke="midnightblue" d="M632.58,-597.39C822.95,-587.69 1394.15,-554.06 1862.38,-480 1867.1,-479.25 1871.99,-478.37 1876.89,-477.42"/>
<polygon fill="midnightblue" stroke="midnightblue" points="632.47,-593.95 622.66,-597.95 632.82,-600.94 632.47,-593.95"/>
</g>
<!-- Node3 -->
<g id="node3" class="node">
<title>Node3</title>
<g id="a_node3"><a xlink:href="_mouse_8h.html" target="_top" xlink:title=" ">
<polygon fill="none" stroke="black" points="188.75,-201.5 188.75,-221.5 276,-221.5 276,-201.5 188.75,-201.5"/>
<text text-anchor="middle" x="232.38" y="-208" font-family="Helvetica,sans-Serif" font-size="10.00">include/Mouse.h</text>
</a>
</g>
</g>
<!-- Node2&#45;&gt;Node3 -->
<g id="edge3" class="edge">
<title>Node2&#45;&gt;Node3</title>
<path fill="none" stroke="midnightblue" d="M255.35,-255.25C249,-243.45 241.77,-229.98 237.14,-221.37"/>
<polygon fill="midnightblue" stroke="midnightblue" points="252.57,-256.48 260.39,-263.63 258.74,-253.16 252.57,-256.48"/>
</g>
<!-- Node6 -->
<g id="node6" class="node">
<title>Node6</title>
<g id="a_node6"><a xlink:href="_graphics_8cpp.html" target="_top" xlink:title=" ">
<polygon fill="none" stroke="black" points="306.25,-63.5 306.25,-83.5 396.5,-83.5 396.5,-63.5 306.25,-63.5"/>
<text text-anchor="middle" x="351.38" y="-70" font-family="Helvetica,sans-Serif" font-size="10.00">src/Graphics.cpp</text>
</a>
</g>
</g>
<!-- Node2&#45;&gt;Node6 -->
<g id="edge36" class="edge">
<title>Node2&#45;&gt;Node6</title>
<path fill="none" stroke="midnightblue" d="M210.12,-259.83C195.31,-252.13 180.91,-241.75 171.38,-228 145.45,-190.6 134.75,-162.16 162.38,-126 179.77,-103.23 256.15,-88.12 306.33,-80.46"/>
<polygon fill="midnightblue" stroke="midnightblue" points="208.33,-263.33 218.86,-264.51 211.36,-257.02 208.33,-263.33"/>
</g>
<!-- Node17 -->
<g id="node17" class="node">
<title>Node17</title>
<g id="a_node17"><a xlink:href="_mouse_8cpp.html" target="_top" xlink:title=" ">
<polygon fill="none" stroke="black" points="171.12,-132.5 171.12,-152.5 251.62,-152.5 251.62,-132.5 171.12,-132.5"/>
<text text-anchor="middle" x="211.38" y="-139" font-family="Helvetica,sans-Serif" font-size="10.00">src/Mouse.cpp</text>
</a>
</g>
</g>
<!-- Node2&#45;&gt;Node17 -->
<g id="edge37" class="edge">
<title>Node2&#45;&gt;Node17</title>
<path fill="none" stroke="midnightblue" d="M213.72,-259.59C200.12,-251.89 187.2,-241.57 179.38,-228 164.49,-202.18 189.32,-168.14 203.12,-152.31"/>
<polygon fill="midnightblue" stroke="midnightblue" points="211.7,-263 222.19,-264.51 214.93,-256.79 211.7,-263"/>
</g>
<!-- Node18 -->
<g id="node18" class="node">
<title>Node18</title>
<g id="a_node18"><a xlink:href="_cube_8h.html" target="_top" xlink:title=" ">
<polygon fill="none" stroke="black" points="1330.5,-126.5 1330.5,-158.5 1422.25,-158.5 1422.25,-126.5 1330.5,-126.5"/>
<text text-anchor="start" x="1338.5" y="-145" font-family="Helvetica,sans-Serif" font-size="10.00">include/Primitives</text>
<text text-anchor="middle" x="1376.38" y="-133" font-family="Helvetica,sans-Serif" font-size="10.00">/Cube.h</text>
</a>
</g>
</g>
<!-- Node2&#45;&gt;Node18 -->
<g id="edge27" class="edge">
<title>Node2&#45;&gt;Node18</title>
<path fill="none" stroke="midnightblue" d="M277.1,-254.71C285.57,-234.74 300.53,-207.95 323.38,-195 416.24,-142.37 1177.18,-169.8 1283.38,-159 1298.85,-157.43 1315.64,-154.89 1330.65,-152.31"/>
<polygon fill="midnightblue" stroke="midnightblue" points="273.58,-253.1 273.15,-263.69 280.09,-255.68 273.58,-253.1"/>
</g>
<!-- Node19 -->
<g id="node19" class="node">
<title>Node19</title>
<g id="a_node19"><a xlink:href="_plane_8h.html" target="_top" xlink:title=" ">
<polygon fill="none" stroke="black" points="604.5,-195.5 604.5,-227.5 696.25,-227.5 696.25,-195.5 604.5,-195.5"/>
<text text-anchor="start" x="612.5" y="-214" font-family="Helvetica,sans-Serif" font-size="10.00">include/Primitives</text>
<text text-anchor="middle" x="650.38" y="-202" font-family="Helvetica,sans-Serif" font-size="10.00">/Plane.h</text>
</a>
</g>
</g>
<!-- Node2&#45;&gt;Node19 -->
<g id="edge33" class="edge">
<title>Node2&#45;&gt;Node19</title>
<path fill="none" stroke="midnightblue" d="M333.24,-268.12C410.35,-254.6 537.05,-232.38 604.61,-220.53"/>
<polygon fill="midnightblue" stroke="midnightblue" points="332.95,-264.8 323.7,-269.97 334.15,-271.69 332.95,-264.8"/>
</g>
<!-- Node20 -->
<g id="node20" class="node">
<title>Node20</title>
<g id="a_node20"><a xlink:href="_tex_vertex_8h.html" target="_top" xlink:title=" ">
<polygon fill="none" stroke="black" points="332.25,-201.5 332.25,-221.5 434.5,-221.5 434.5,-201.5 332.25,-201.5"/>
<text text-anchor="middle" x="383.38" y="-208" font-family="Helvetica,sans-Serif" font-size="10.00">include/TexVertex.h</text>
</a>
</g>
</g>
<!-- Node2&#45;&gt;Node20 -->
<g id="edge35" class="edge">
<title>Node2&#45;&gt;Node20</title>
<path fill="none" stroke="midnightblue" d="M303.14,-259.25C324.83,-246.61 351.67,-230.97 368.15,-221.37"/>
<polygon fill="midnightblue" stroke="midnightblue" points="301.78,-256.57 294.9,-264.63 305.3,-262.62 301.78,-256.57"/>
</g>
<!-- Node2&#45;&gt;Node21 -->
<g id="edge38" class="edge">
<title>Node2&#45;&gt;Node21</title>
<path fill="none" stroke="midnightblue" d="M208.73,-261.42C172.92,-250.56 128,-236.94 94.65,-226.83"/>
<polygon fill="midnightblue" stroke="midnightblue" points="207.47,-265 218.05,-264.55 209.5,-258.3 207.47,-265"/>
</g>
<!-- Node4 -->
<g id="node4" class="node">
<title>Node4</title>
<g id="a_node4"><a xlink:href="_main_window_8h.html" target="_top" xlink:title=" ">
<polygon fill="none" stroke="black" points="396.62,-132.5 396.62,-152.5 510.12,-152.5 510.12,-132.5 396.62,-132.5"/>
<text text-anchor="middle" x="453.38" y="-139" font-family="Helvetica,sans-Serif" font-size="10.00">include/MainWindow.h</text>
</a>
</g>
</g>
<!-- Node3&#45;&gt;Node4 -->
<g id="edge4" class="edge">
<title>Node3&#45;&gt;Node4</title>
<path fill="none" stroke="midnightblue" d="M272.24,-198.41C315.9,-185.18 384.88,-164.27 423.91,-152.43"/>
<polygon fill="midnightblue" stroke="midnightblue" points="271.28,-195.35 262.72,-201.6 273.31,-202.05 271.28,-195.35"/>
</g>
<!-- Node9 -->
<g id="node9" class="node">
<title>Node9</title>
<g id="a_node9"><a xlink:href="_scene_8h.html" target="_top" xlink:title=" ">
<polygon fill="none" stroke="black" points="796.5,-132.5 796.5,-152.5 882.25,-152.5 882.25,-132.5 796.5,-132.5"/>
<text text-anchor="middle" x="839.38" y="-139" font-family="Helvetica,sans-Serif" font-size="10.00">include/Scene.h</text>
</a>
</g>
</g>
<!-- Node3&#45;&gt;Node9 -->
<g id="edge9" class="edge">
<title>Node3&#45;&gt;Node9</title>
<path fill="none" stroke="midnightblue" d="M272.25,-198.79C278.28,-197.32 284.46,-195.99 290.38,-195 508.77,-158.25 569.53,-198.87 787.38,-159 795.99,-157.42 805.21,-154.95 813.46,-152.43"/>
<polygon fill="midnightblue" stroke="midnightblue" points="271.45,-195.64 262.64,-201.53 273.2,-202.42 271.45,-195.64"/>
</g>
<!-- Node3&#45;&gt;Node17 -->
<g id="edge26" class="edge">
<title>Node3&#45;&gt;Node17</title>
<path fill="none" stroke="midnightblue" d="M226.34,-191.25C222.34,-178.49 217.28,-162.34 214.19,-152.48"/>
<polygon fill="midnightblue" stroke="midnightblue" points="223.3,-192.25 229.63,-200.74 229.98,-190.15 223.3,-192.25"/>
</g>
<!-- Node5 -->
<g id="node5" class="node">
<title>Node5</title>
<g id="a_node5"><a xlink:href="_engine_8cpp.html" target="_top" xlink:title=" ">
<polygon fill="none" stroke="black" points="993.75,-0.5 993.75,-20.5 1075,-20.5 1075,-0.5 993.75,-0.5"/>
<text text-anchor="middle" x="1034.38" y="-7" font-family="Helvetica,sans-Serif" font-size="10.00">src/Engine.cpp</text>
</a>
</g>
</g>
<!-- Node4&#45;&gt;Node5 -->
<g id="edge5" class="edge">
<title>Node4&#45;&gt;Node5</title>
<path fill="none" stroke="midnightblue" d="M468.07,-124.63C486.63,-104.61 520.62,-72.05 557.38,-57 636.09,-24.76 893.43,-14.99 993.79,-12.37"/>
<polygon fill="midnightblue" stroke="midnightblue" points="465.98,-121.83 461.88,-131.6 471.18,-126.52 465.98,-121.83"/>
</g>
<!-- Node4&#45;&gt;Node6 -->
<g id="edge6" class="edge">
<title>Node4&#45;&gt;Node6</title>
<path fill="none" stroke="midnightblue" d="M430.95,-126.77C410.82,-113.54 381.9,-94.55 365.04,-83.48"/>
<polygon fill="midnightblue" stroke="midnightblue" points="428.76,-130.18 439.04,-132.74 432.6,-124.33 428.76,-130.18"/>
</g>
<!-- Node7 -->
<g id="node7" class="node">
<title>Node7</title>
<g id="a_node7"><a xlink:href="_main_8cpp.html" target="_top" xlink:title=" ">
<polygon fill="none" stroke="black" points="391.25,-0.5 391.25,-20.5 463.5,-20.5 463.5,-0.5 391.25,-0.5"/>
<text text-anchor="middle" x="427.38" y="-7" font-family="Helvetica,sans-Serif" font-size="10.00">src/Main.cpp</text>
</a>
</g>
</g>
<!-- Node4&#45;&gt;Node7 -->
<g id="edge7" class="edge">
<title>Node4&#45;&gt;Node7</title>
<path fill="none" stroke="midnightblue" d="M449.46,-121.91C443.74,-93.33 433.34,-41.34 429.17,-20.5"/>
<polygon fill="midnightblue" stroke="midnightblue" points="446.19,-122.45 451.59,-131.56 453.06,-121.07 446.19,-122.45"/>
</g>
<!-- Node8 -->
<g id="node8" class="node">
<title>Node8</title>
<g id="a_node8"><a xlink:href="_main_window_8cpp.html" target="_top" xlink:title=" ">
<polygon fill="none" stroke="black" points="485,-0.5 485,-20.5 591.75,-20.5 591.75,-0.5 485,-0.5"/>
<text text-anchor="middle" x="538.38" y="-7" font-family="Helvetica,sans-Serif" font-size="10.00">src/MainWindow.cpp</text>
</a>
</g>
</g>
<!-- Node4&#45;&gt;Node8 -->
<g id="edge8" class="edge">
<title>Node4&#45;&gt;Node8</title>
<path fill="none" stroke="midnightblue" d="M458.09,-122.07C463.1,-104.06 472.26,-77.1 486.38,-57 496.99,-41.88 513.65,-28.49 525.24,-20.21"/>
<polygon fill="midnightblue" stroke="midnightblue" points="454.46,-121.13 455.33,-131.69 461.24,-122.89 454.46,-121.13"/>
</g>
<!-- Node10 -->
<g id="node10" class="node">
<title>Node10</title>
<g id="a_node10"><a xlink:href="_engine_8h.html" target="_top" xlink:title=" ">
<polygon fill="none" stroke="black" points="566.38,-63.5 566.38,-83.5 654.38,-83.5 654.38,-63.5 566.38,-63.5"/>
<text text-anchor="middle" x="610.38" y="-70" font-family="Helvetica,sans-Serif" font-size="10.00">include/Engine.h</text>
</a>
</g>
</g>
<!-- Node9&#45;&gt;Node10 -->
<g id="edge10" class="edge">
<title>Node9&#45;&gt;Node10</title>
<path fill="none" stroke="midnightblue" d="M799.06,-129.46C795.11,-128.28 791.17,-127.12 787.38,-126 736.26,-110.95 676.76,-93.69 641.41,-83.46"/>
<polygon fill="midnightblue" stroke="midnightblue" points="797.83,-133.04 808.41,-132.53 799.82,-126.33 797.83,-133.04"/>
</g>
<!-- Node11 -->
<g id="node11" class="node">
<title>Node11</title>
<g id="a_node11"><a xlink:href="_cube_skin_scene_8h.html" target="_top" xlink:title=" ">
<polygon fill="none" stroke="black" points="1550.5,-63.5 1550.5,-83.5 1714.25,-83.5 1714.25,-63.5 1550.5,-63.5"/>
<text text-anchor="middle" x="1632.38" y="-70" font-family="Helvetica,sans-Serif" font-size="10.00">include/Scenes/CubeSkinScene.h</text>
</a>
</g>
</g>
<!-- Node9&#45;&gt;Node11 -->
<g id="edge14" class="edge">
<title>Node9&#45;&gt;Node11</title>
<path fill="none" stroke="midnightblue" d="M892.63,-131.34C904.68,-129.31 917.44,-127.39 929.38,-126 1189.88,-95.7 1257.37,-115.68 1518.38,-90 1536.07,-88.26 1555.24,-85.86 1572.72,-83.46"/>
<polygon fill="midnightblue" stroke="midnightblue" points="892.07,-128.05 882.81,-133.21 893.26,-134.95 892.07,-128.05"/>
</g>
<!-- Node12 -->
<g id="node12" class="node">
<title>Node12</title>
<g id="a_node12"><a xlink:href="_cube_solid_scene_8h.html" target="_top" xlink:title=" ">
<polygon fill="none" stroke="black" points="1223.38,-57.5 1223.38,-89.5 1353.38,-89.5 1353.38,-57.5 1223.38,-57.5"/>
<text text-anchor="start" x="1231.38" y="-76" font-family="Helvetica,sans-Serif" font-size="10.00">include/Scenes/CubeSolid</text>
<text text-anchor="middle" x="1288.38" y="-64" font-family="Helvetica,sans-Serif" font-size="10.00">Scene.h</text>
</a>
</g>
</g>
<!-- Node9&#45;&gt;Node12 -->
<g id="edge16" class="edge">
<title>Node9&#45;&gt;Node12</title>
<path fill="none" stroke="midnightblue" d="M892.73,-132.01C904.77,-129.96 917.5,-127.84 929.38,-126 1044.65,-108.1 1073.97,-107.02 1189.38,-90 1200.39,-88.38 1212.08,-86.59 1223.43,-84.84"/>
<polygon fill="midnightblue" stroke="midnightblue" points="892.16,-128.73 882.91,-133.88 893.35,-135.63 892.16,-128.73"/>
</g>
<!-- Node13 -->
<g id="node13" class="node">
<title>Node13</title>
<g id="a_node13"><a xlink:href="_cube_vertex_color_scene_8h.html" target="_top" xlink:title=" ">
<polygon fill="none" stroke="black" points="889,-57.5 889,-89.5 1025.75,-89.5 1025.75,-57.5 889,-57.5"/>
<text text-anchor="start" x="897" y="-76" font-family="Helvetica,sans-Serif" font-size="10.00">include/Scenes/CubeVertex</text>
<text text-anchor="middle" x="957.38" y="-64" font-family="Helvetica,sans-Serif" font-size="10.00">ColorScene.h</text>
</a>
</g>
</g>
<!-- Node9&#45;&gt;Node13 -->
<g id="edge18" class="edge">
<title>Node9&#45;&gt;Node13</title>
<path fill="none" stroke="midnightblue" d="M864.28,-127.36C883.9,-116.22 911.16,-100.74 931.12,-89.41"/>
<polygon fill="midnightblue" stroke="midnightblue" points="862.77,-124.76 855.8,-132.74 866.23,-130.85 862.77,-124.76"/>
</g>
<!-- Node14 -->
<g id="node14" class="node">
<title>Node14</title>
<g id="a_node14"><a xlink:href="_cube_vertex_position_color_scene_8h.html" target="_top" xlink:title=" ">
<polygon fill="none" stroke="black" points="1044,-57.5 1044,-89.5 1180.75,-89.5 1180.75,-57.5 1044,-57.5"/>
<text text-anchor="start" x="1052" y="-76" font-family="Helvetica,sans-Serif" font-size="10.00">include/Scenes/CubeVertex</text>
<text text-anchor="middle" x="1112.38" y="-64" font-family="Helvetica,sans-Serif" font-size="10.00">PositionColorScene.h</text>
</a>
</g>
</g>
<!-- Node9&#45;&gt;Node14 -->
<g id="edge20" class="edge">
<title>Node9&#45;&gt;Node14</title>
<path fill="none" stroke="midnightblue" d="M886.41,-129.96C932.08,-118.75 1001.64,-101.68 1051.51,-89.44"/>
<polygon fill="midnightblue" stroke="midnightblue" points="885.79,-126.75 876.91,-132.53 887.46,-133.55 885.79,-126.75"/>
</g>
<!-- Node15 -->
<g id="node15" class="node">
<title>Node15</title>
<g id="a_node15"><a xlink:href="_double_cube_scene_8h.html" target="_top" xlink:title=" ">
<polygon fill="none" stroke="black" points="1371.25,-57.5 1371.25,-89.5 1509.5,-89.5 1509.5,-57.5 1371.25,-57.5"/>
<text text-anchor="start" x="1379.25" y="-76" font-family="Helvetica,sans-Serif" font-size="10.00">include/Scenes/DoubleCube</text>
<text text-anchor="middle" x="1440.38" y="-64" font-family="Helvetica,sans-Serif" font-size="10.00">Scene.h</text>
</a>
</g>
</g>
<!-- Node9&#45;&gt;Node15 -->
<g id="edge22" class="edge">
<title>Node9&#45;&gt;Node15</title>
<path fill="none" stroke="midnightblue" d="M892.66,-131.53C904.7,-129.5 917.45,-127.52 929.38,-126 1120.93,-101.59 1171.14,-116.86 1362.38,-90 1365.38,-89.58 1368.45,-89.11 1371.54,-88.62"/>
<polygon fill="midnightblue" stroke="midnightblue" points="892.1,-128.25 882.84,-133.4 893.29,-135.15 892.1,-128.25"/>
</g>
<!-- Node16 -->
<g id="node16" class="node">
<title>Node16</title>
<g id="a_node16"><a xlink:href="_vertex_wave_scene_8h.html" target="_top" xlink:title=" ">
<polygon fill="none" stroke="black" points="708.25,-57.5 708.25,-89.5 846.5,-89.5 846.5,-57.5 708.25,-57.5"/>
<text text-anchor="start" x="716.25" y="-76" font-family="Helvetica,sans-Serif" font-size="10.00">include/Scenes/VertexWave</text>
<text text-anchor="middle" x="777.38" y="-64" font-family="Helvetica,sans-Serif" font-size="10.00">Scene.h</text>
</a>
</g>
</g>
<!-- Node9&#45;&gt;Node16 -->
<g id="edge24" class="edge">
<title>Node9&#45;&gt;Node16</title>
<path fill="none" stroke="midnightblue" d="M823.96,-124.84C813.9,-113.97 800.89,-99.91 791.17,-89.41"/>
<polygon fill="midnightblue" stroke="midnightblue" points="820.91,-126.78 830.27,-131.74 826.05,-122.02 820.91,-126.78"/>
</g>
<!-- Node10&#45;&gt;Node5 -->
<g id="edge11" class="edge">
<title>Node10&#45;&gt;Node5</title>
<path fill="none" stroke="midnightblue" d="M664.92,-62.67C676.3,-60.71 688.22,-58.73 699.38,-57 805.37,-40.58 930.75,-24.41 993.82,-16.51"/>
<polygon fill="midnightblue" stroke="midnightblue" points="664.48,-59.37 655.23,-64.53 665.68,-66.26 664.48,-59.37"/>
</g>
<!-- Node10&#45;&gt;Node7 -->
<g id="edge12" class="edge">
<title>Node10&#45;&gt;Node7</title>
<path fill="none" stroke="midnightblue" d="M573.4,-60.18C538.12,-48.42 485.81,-30.98 454.32,-20.48"/>
<polygon fill="midnightblue" stroke="midnightblue" points="572.17,-63.79 582.77,-63.63 574.39,-57.15 572.17,-63.79"/>
</g>
<!-- Node10&#45;&gt;Node8 -->
<g id="edge13" class="edge">
<title>Node10&#45;&gt;Node8</title>
<path fill="none" stroke="midnightblue" d="M591.8,-56.76C578.07,-45.13 559.89,-29.73 548.67,-20.22"/>
<polygon fill="midnightblue" stroke="midnightblue" points="589.17,-59.97 599.06,-63.76 593.69,-54.63 589.17,-59.97"/>
</g>
<!-- Node11&#45;&gt;Node5 -->
<g id="edge15" class="edge">
<title>Node11&#45;&gt;Node5</title>
<path fill="none" stroke="midnightblue" d="M1559.01,-62.07C1545.51,-60.28 1531.53,-58.51 1518.38,-57 1354.25,-38.14 1158.13,-21.52 1074.91,-14.74"/>
<polygon fill="midnightblue" stroke="midnightblue" points="1558.34,-65.64 1568.71,-63.51 1559.27,-58.71 1558.34,-65.64"/>
</g>
<!-- Node12&#45;&gt;Node5 -->
<g id="edge17" class="edge">
<title>Node12&#45;&gt;Node5</title>
<path fill="none" stroke="midnightblue" d="M1215.78,-55.06C1168.66,-43.75 1109.23,-29.48 1071.5,-20.42"/>
<polygon fill="midnightblue" stroke="midnightblue" points="1214.7,-58.65 1225.24,-57.58 1216.33,-51.84 1214.7,-58.65"/>
</g>
<!-- Node13&#45;&gt;Node5 -->
<g id="edge19" class="edge">
<title>Node13&#45;&gt;Node5</title>
<path fill="none" stroke="midnightblue" d="M984.42,-51.07C997.78,-40.49 1013.16,-28.31 1023.29,-20.28"/>
<polygon fill="midnightblue" stroke="midnightblue" points="982.68,-48.78 977.01,-57.73 987.03,-54.27 982.68,-48.78"/>
</g>
<!-- Node14&#45;&gt;Node5 -->
<g id="edge21" class="edge">
<title>Node14&#45;&gt;Node5</title>
<path fill="none" stroke="midnightblue" d="M1084.97,-51.07C1071.44,-40.49 1055.86,-28.31 1045.61,-20.28"/>
<polygon fill="midnightblue" stroke="midnightblue" points="1082.46,-54.33 1092.49,-57.73 1086.77,-48.82 1082.46,-54.33"/>
</g>
<!-- Node15&#45;&gt;Node5 -->
<g id="edge23" class="edge">
<title>Node15&#45;&gt;Node5</title>
<path fill="none" stroke="midnightblue" d="M1360.96,-56.82C1251.62,-38.64 1135.01,-23.71 1074.89,-16.35"/>
<polygon fill="midnightblue" stroke="midnightblue" points="1360.07,-60.39 1370.51,-58.59 1361.23,-53.48 1360.07,-60.39"/>
</g>
<!-- Node16&#45;&gt;Node5 -->
<g id="edge25" class="edge">
<title>Node16&#45;&gt;Node5</title>
<path fill="none" stroke="midnightblue" d="M850.83,-55.06C898.5,-43.75 958.64,-29.48 996.81,-20.42"/>
<polygon fill="midnightblue" stroke="midnightblue" points="850.17,-51.86 841.24,-57.58 851.78,-58.67 850.17,-51.86"/>
</g>
<!-- Node18&#45;&gt;Node11 -->
<g id="edge28" class="edge">
<title>Node18&#45;&gt;Node11</title>
<path fill="none" stroke="midnightblue" d="M1432.56,-125.71C1495.95,-108.74 1558.21,-93 1596.36,-83.45"/>
<polygon fill="midnightblue" stroke="midnightblue" points="1431.72,-122.59 1422.97,-128.56 1433.54,-129.35 1431.72,-122.59"/>
</g>
<!-- Node18&#45;&gt;Node12 -->
<g id="edge29" class="edge">
<title>Node18&#45;&gt;Node12</title>
<path fill="none" stroke="midnightblue" d="M1348.16,-120.02C1335.01,-110 1319.69,-98.34 1307.85,-89.33"/>
<polygon fill="midnightblue" stroke="midnightblue" points="1345.77,-123.36 1355.84,-126.63 1350.01,-117.79 1345.77,-123.36"/>
</g>
<!-- Node18&#45;&gt;Node13 -->
<g id="edge30" class="edge">
<title>Node18&#45;&gt;Node13</title>
<path fill="none" stroke="midnightblue" d="M1319.72,-131.86C1307.72,-129.88 1295.14,-127.83 1283.38,-126 1173.33,-108.84 1145.14,-108.86 1035.38,-90 1032.11,-89.44 1028.77,-88.85 1025.4,-88.23"/>
<polygon fill="midnightblue" stroke="midnightblue" points="1319.08,-135.47 1329.52,-133.66 1320.23,-128.57 1319.08,-135.47"/>
</g>
<!-- Node18&#45;&gt;Node14 -->
<g id="edge31" class="edge">
<title>Node18&#45;&gt;Node14</title>
<path fill="none" stroke="midnightblue" d="M1320.23,-127.25C1276.46,-116.14 1215.86,-100.76 1171.38,-89.47"/>
<polygon fill="midnightblue" stroke="midnightblue" points="1319.14,-130.84 1329.69,-129.91 1320.86,-124.05 1319.14,-130.84"/>
</g>
<!-- Node18&#45;&gt;Node15 -->
<g id="edge32" class="edge">
<title>Node18&#45;&gt;Node15</title>
<path fill="none" stroke="midnightblue" d="M1398.01,-118.85C1407.31,-109.11 1417.93,-97.99 1426.21,-89.33"/>
<polygon fill="midnightblue" stroke="midnightblue" points="1395.96,-115.98 1391.58,-125.63 1401.02,-120.82 1395.96,-115.98"/>
</g>
<!-- Node19&#45;&gt;Node16 -->
<g id="edge34" class="edge">
<title>Node19&#45;&gt;Node16</title>
<path fill="none" stroke="midnightblue" d="M636.15,-185.85C627.8,-167.79 621.06,-143.49 633.38,-126 650.58,-101.58 680.47,-88.68 708.58,-81.89"/>
<polygon fill="midnightblue" stroke="midnightblue" points="633.48,-187.32 641.12,-194.66 639.72,-184.16 633.48,-187.32"/>
</g>
<!-- Node22&#45;&gt;Node11 -->
<g id="edge77" class="edge">
<title>Node22&#45;&gt;Node11</title>
<path fill="none" stroke="midnightblue" d="M903.56,-529.99C1127.03,-523.97 1848.38,-497.12 1848.38,-401.5 1848.38,-401.5 1848.38,-401.5 1848.38,-210.5 1848.38,-172.01 1856.12,-153.68 1829.38,-126 1810.65,-106.61 1744.32,-92.05 1693.76,-83.44"/>
<polygon fill="midnightblue" stroke="midnightblue" points="903.58,-526.52 893.68,-530.28 903.77,-533.51 903.58,-526.52"/>
</g>
<!-- Node22&#45;&gt;Node18 -->
<g id="edge74" class="edge">
<title>Node22&#45;&gt;Node18</title>
<path fill="none" stroke="midnightblue" d="M903.37,-527.68C1035.57,-518.13 1323.38,-487.46 1323.38,-401.5 1323.38,-401.5 1323.38,-401.5 1323.38,-279.5 1323.38,-232.62 1351.05,-182.47 1366.41,-158.26"/>
<polygon fill="midnightblue" stroke="midnightblue" points="903.33,-524.24 893.6,-528.44 903.82,-531.23 903.33,-524.24"/>
</g>
<!-- Node22&#45;&gt;Node19 -->
<g id="edge75" class="edge">
<title>Node22&#45;&gt;Node19</title>
<path fill="none" stroke="midnightblue" d="M826.56,-506.72C815.4,-481.02 800.38,-439.36 800.38,-401.5 800.38,-401.5 800.38,-401.5 800.38,-342.5 800.38,-284.43 735.39,-246.49 690.97,-227.33"/>
<polygon fill="midnightblue" stroke="midnightblue" points="823.76,-508.02 831.05,-515.7 830.14,-505.15 823.76,-508.02"/>
</g>
<!-- Node22&#45;&gt;Node20 -->
<g id="edge78" class="edge">
<title>Node22&#45;&gt;Node20</title>
<path fill="none" stroke="midnightblue" d="M773.17,-525.53C652.47,-512.67 406.38,-477.17 406.38,-401.5 406.38,-401.5 406.38,-401.5 406.38,-342.5 406.38,-296.2 392.05,-242.03 386.01,-221.23"/>
<polygon fill="midnightblue" stroke="midnightblue" points="772.79,-529.11 783.1,-526.67 773.52,-522.15 772.79,-529.11"/>
</g>
<!-- Node23 -->
<g id="node23" class="node">
<title>Node23</title>
<g id="a_node23"><a xlink:href="_colors_8h.html" target="_top" xlink:title=" ">
<polygon fill="none" stroke="black" points="646.5,-453.5 646.5,-473.5 732.25,-473.5 732.25,-453.5 646.5,-453.5"/>
<text text-anchor="middle" x="689.38" y="-460" font-family="Helvetica,sans-Serif" font-size="10.00">include/Colors.h</text>
</a>
</g>
</g>
<!-- Node22&#45;&gt;Node23 -->
<g id="edge40" class="edge">
<title>Node22&#45;&gt;Node23</title>
<path fill="none" stroke="midnightblue" d="M795.59,-512.26C767.11,-499.45 731.03,-483.23 709.1,-473.37"/>
<polygon fill="midnightblue" stroke="midnightblue" points="793.75,-515.72 804.31,-516.63 796.62,-509.34 793.75,-515.72"/>
</g>
<!-- Node25 -->
<g id="node25" class="node">
<title>Node25</title>
<g id="a_node25"><a xlink:href="_graphics_8h.html" target="_top" xlink:title=" ">
<polygon fill="none" stroke="black" points="656.88,-333.5 656.88,-353.5 753.88,-353.5 753.88,-333.5 656.88,-333.5"/>
<text text-anchor="middle" x="705.38" y="-340" font-family="Helvetica,sans-Serif" font-size="10.00">include/Graphics.h</text>
</a>
</g>
</g>
<!-- Node22&#45;&gt;Node25 -->
<g id="edge68" class="edge">
<title>Node22&#45;&gt;Node25</title>
<path fill="none" stroke="midnightblue" d="M812.46,-509.24C803.48,-500.69 793.81,-490.47 786.38,-480 760.69,-443.87 767.33,-427.3 743.38,-390 734.59,-376.32 722.17,-362.19 713.96,-353.38"/>
<polygon fill="midnightblue" stroke="midnightblue" points="809.71,-511.38 819.43,-515.58 814.45,-506.23 809.71,-511.38"/>
</g>
<!-- Node32 -->
<g id="node32" class="node">
<title>Node32</title>
<g id="a_node32"><a xlink:href="_pube_screen_transformer_8h.html" target="_top" xlink:title=" ">
<polygon fill="none" stroke="black" points="864.25,-270.5 864.25,-290.5 1026.5,-290.5 1026.5,-270.5 864.25,-270.5"/>
<text text-anchor="middle" x="945.38" y="-277" font-family="Helvetica,sans-Serif" font-size="10.00">include/PubeScreenTransformer.h</text>
</a>
</g>
</g>
<!-- Node22&#45;&gt;Node32 -->
<g id="edge76" class="edge">
<title>Node22&#45;&gt;Node32</title>
<path fill="none" stroke="midnightblue" d="M903.26,-521.91C928.22,-514.7 954.32,-502.09 969.38,-480 1011.4,-418.32 965.91,-320.23 950.26,-290.4"/>
<polygon fill="midnightblue" stroke="midnightblue" points="902.46,-518.76 893.67,-524.68 904.23,-525.53 902.46,-518.76"/>
</g>
<!-- Node34 -->
<g id="node34" class="node">
<title>Node34</title>
<g id="a_node34"><a xlink:href="_indexed_triangle_list_8h.html" target="_top" xlink:title=" ">
<polygon fill="none" stroke="black" points="1044.75,-270.5 1044.75,-290.5 1186,-290.5 1186,-270.5 1044.75,-270.5"/>
<text text-anchor="middle" x="1115.38" y="-277" font-family="Helvetica,sans-Serif" font-size="10.00">include/IndexedTriangleList.h</text>
</a>
</g>
</g>
<!-- Node22&#45;&gt;Node34 -->
<g id="edge69" class="edge">
<title>Node22&#45;&gt;Node34</title>
<path fill="none" stroke="midnightblue" d="M839.1,-505.9C840.73,-487.99 845.28,-464.28 857.38,-447 917.2,-361.56 1036.65,-309.94 1089.36,-290.43"/>
<polygon fill="midnightblue" stroke="midnightblue" points="835.55,-505.5 838.39,-515.71 842.54,-505.95 835.55,-505.5"/>
</g>
<!-- Node22&#45;&gt;Node35 -->
<g id="edge73" class="edge">
<title>Node22&#45;&gt;Node35</title>
<path fill="none" stroke="midnightblue" d="M903.48,-529.68C1098.49,-524 1675.85,-505.45 1862.38,-480 1867.12,-479.35 1872.02,-478.54 1876.92,-477.63"/>
<polygon fill="midnightblue" stroke="midnightblue" points="903.46,-526.21 893.56,-530 903.66,-533.21 903.46,-526.21"/>
</g>
<!-- Node36 -->
<g id="node36" class="node">
<title>Node36</title>
<g id="a_node36"><a xlink:href="_vector3_8cpp.html" target="_top" xlink:title=" ">
<polygon fill="none" stroke="black" points="866,-447.5 866,-479.5 960.75,-479.5 960.75,-447.5 866,-447.5"/>
<text text-anchor="start" x="874" y="-466" font-family="Helvetica,sans-Serif" font-size="10.00">test/LinearAlgebra</text>
<text text-anchor="middle" x="913.38" y="-454" font-family="Helvetica,sans-Serif" font-size="10.00">/Vector3.cpp</text>
</a>
</g>
</g>
<!-- Node22&#45;&gt;Node36 -->
<g id="edge79" class="edge">
<title>Node22&#45;&gt;Node36</title>
<path fill="none" stroke="midnightblue" d="M863.07,-509.44C874.13,-499.56 886.88,-488.17 896.78,-479.33"/>
<polygon fill="midnightblue" stroke="midnightblue" points="861.15,-506.36 856.02,-515.63 865.81,-511.58 861.15,-506.36"/>
</g>
<!-- Node24 -->
<g id="node24" class="node">
<title>Node24</title>
<g id="a_node24"><a xlink:href="_surface_8h.html" target="_top" xlink:title=" ">
<polygon fill="none" stroke="black" points="642.88,-390.5 642.88,-410.5 733.88,-410.5 733.88,-390.5 642.88,-390.5"/>
<text text-anchor="middle" x="688.38" y="-397" font-family="Helvetica,sans-Serif" font-size="10.00">include/Surface.h</text>
</a>
</g>
</g>
<!-- Node23&#45;&gt;Node24 -->
<g id="edge41" class="edge">
<title>Node23&#45;&gt;Node24</title>
<path fill="none" stroke="midnightblue" d="M689.06,-442.99C688.87,-431.97 688.66,-418.73 688.52,-410.22"/>
<polygon fill="midnightblue" stroke="midnightblue" points="685.57,-442.82 689.23,-452.76 692.57,-442.7 685.57,-442.82"/>
</g>
<!-- Node24&#45;&gt;Node25 -->
<g id="edge42" class="edge">
<title>Node24&#45;&gt;Node25</title>
<path fill="none" stroke="midnightblue" d="M694.21,-380.62C697.09,-371.32 700.41,-360.56 702.68,-353.21"/>
<polygon fill="midnightblue" stroke="midnightblue" points="690.64,-379.32 691.03,-389.91 697.33,-381.39 690.64,-379.32"/>
</g>
<!-- Node33 -->
<g id="node33" class="node">
<title>Node33</title>
<g id="a_node33"><a xlink:href="_surface_8cpp.html" target="_top" xlink:title=" ">
<polygon fill="none" stroke="black" points="554.25,-333.5 554.25,-353.5 638.5,-353.5 638.5,-333.5 554.25,-333.5"/>
<text text-anchor="middle" x="596.38" y="-340" font-family="Helvetica,sans-Serif" font-size="10.00">src/Surface.cpp</text>
</a>
</g>
</g>
<!-- Node24&#45;&gt;Node33 -->
<g id="edge67" class="edge">
<title>Node24&#45;&gt;Node33</title>
<path fill="none" stroke="midnightblue" d="M664.41,-385.17C647.65,-375.16 625.79,-362.08 611.43,-353.5"/>
<polygon fill="midnightblue" stroke="midnightblue" points="662.21,-388.54 672.59,-390.66 665.81,-382.53 662.21,-388.54"/>
</g>
<!-- Node25&#45;&gt;Node4 -->
<g id="edge44" class="edge">
<title>Node25&#45;&gt;Node4</title>
<path fill="none" stroke="midnightblue" d="M650.8,-331.27C601.19,-320.66 534.25,-305.19 524.38,-297 521.29,-294.45 471.97,-184.93 457.4,-152.47"/>
<polygon fill="midnightblue" stroke="midnightblue" points="649.9,-334.87 660.41,-333.52 651.35,-328.02 649.9,-334.87"/>
</g>
<!-- Node25&#45;&gt;Node6 -->
<g id="edge65" class="edge">
<title>Node25&#45;&gt;Node6</title>
<path fill="none" stroke="midnightblue" d="M646.5,-331.62C591.43,-321.04 515.95,-305.39 504.38,-297 461.61,-266 480.12,-232.95 443.38,-195 422.79,-173.74 406.46,-181.61 387.38,-159 367.63,-135.61 357.25,-99.77 353.3,-83.32"/>
<polygon fill="midnightblue" stroke="midnightblue" points="645.74,-335.22 656.22,-333.66 647.05,-328.35 645.74,-335.22"/>
</g>
<!-- Node25&#45;&gt;Node8 -->
<g id="edge66" class="edge">
<title>Node25&#45;&gt;Node8</title>
<path fill="none" stroke="midnightblue" d="M663.45,-330.18C613.98,-312.76 538.38,-275.79 538.38,-212.5 538.38,-212.5 538.38,-212.5 538.38,-141.5 538.38,-95.91 538.38,-41.33 538.38,-20.33"/>
<polygon fill="midnightblue" stroke="midnightblue" points="661.98,-333.72 672.57,-333.61 664.22,-327.09 661.98,-333.72"/>
</g>
<!-- Node25&#45;&gt;Node9 -->
<g id="edge64" class="edge">
<title>Node25&#45;&gt;Node9</title>
<path fill="none" stroke="midnightblue" d="M717.3,-324.8C745.04,-283.59 813.12,-182.48 833.51,-152.21"/>
<polygon fill="midnightblue" stroke="midnightblue" points="713.99,-322.44 711.31,-332.69 719.79,-326.35 713.99,-322.44"/>
</g>
<!-- Node25&#45;&gt;Node10 -->
<g id="edge43" class="edge">
<title>Node25&#45;&gt;Node10</title>
<path fill="none" stroke="midnightblue" d="M682.8,-327.43C656.07,-308.06 612.96,-271.69 595.38,-228 574.58,-176.33 597.48,-107.29 606.8,-83.22"/>
<polygon fill="midnightblue" stroke="midnightblue" points="680.31,-330.66 690.5,-333.55 684.34,-324.93 680.31,-330.66"/>
</g>
<!-- Node26 -->
<g id="node26" class="node">
<title>Node26</title>
<g id="a_node26"><a xlink:href="_pipeline_8h.html" target="_top" xlink:title=" ">
<polygon fill="none" stroke="black" points="1069.12,-201.5 1069.12,-221.5 1161.62,-221.5 1161.62,-201.5 1069.12,-201.5"/>
<text text-anchor="middle" x="1115.38" y="-208" font-family="Helvetica,sans-Serif" font-size="10.00">include/Pipeline.h</text>
</a>
</g>
</g>
<!-- Node25&#45;&gt;Node26 -->
<g id="edge45" class="edge">
<title>Node25&#45;&gt;Node26</title>
<path fill="none" stroke="midnightblue" d="M727.95,-328.04C756.52,-310.38 807.76,-280.78 855.38,-264 927.85,-238.46 1016.41,-224.32 1069.23,-217.58"/>
<polygon fill="midnightblue" stroke="midnightblue" points="726.45,-325.48 719.83,-333.75 730.17,-331.41 726.45,-325.48"/>
</g>
<!-- Node25&#45;&gt;Node32 -->
<g id="edge62" class="edge">
<title>Node25&#45;&gt;Node32</title>
<path fill="none" stroke="midnightblue" d="M751.17,-330.86C797.46,-319.09 868.02,-301.16 910.13,-290.46"/>
<polygon fill="midnightblue" stroke="midnightblue" points="750.36,-327.71 741.53,-333.56 752.08,-334.49 750.36,-327.71"/>
</g>
<!-- Node26&#45;&gt;Node11 -->
<g id="edge57" class="edge">
<title>Node26&#45;&gt;Node11</title>
<path fill="none" stroke="midnightblue" d="M1172.46,-207.98C1294.49,-202.09 1572.36,-185.87 1605.38,-159 1628.67,-140.04 1632.14,-100.94 1632.47,-83.38"/>
<polygon fill="midnightblue" stroke="midnightblue" points="1172.32,-204.53 1162.5,-208.5 1172.65,-211.52 1172.32,-204.53"/>
</g>
<!-- Node26&#45;&gt;Node12 -->
<g id="edge58" class="edge">
<title>Node26&#45;&gt;Node12</title>
<path fill="none" stroke="midnightblue" d="M1172.32,-208.93C1210.03,-204.62 1257.21,-192.29 1283.38,-159 1299,-139.13 1295.88,-107.81 1292.16,-89.4"/>
<polygon fill="midnightblue" stroke="midnightblue" points="1172.07,-205.54 1162.45,-209.99 1172.75,-212.5 1172.07,-205.54"/>
</g>
<!-- Node26&#45;&gt;Node13 -->
<g id="edge59" class="edge">
<title>Node26&#45;&gt;Node13</title>
<path fill="none" stroke="midnightblue" d="M1058.51,-202.39C1009.79,-194.15 945.08,-179.64 929.38,-159 913.37,-137.97 931.24,-107.33 944.87,-89.3"/>
<polygon fill="midnightblue" stroke="midnightblue" points="1057.83,-205.99 1068.26,-204.16 1058.96,-199.09 1057.83,-205.99"/>
</g>
<!-- Node26&#45;&gt;Node14 -->
<g id="edge60" class="edge">
<title>Node26&#45;&gt;Node14</title>
<path fill="none" stroke="midnightblue" d="M1114.94,-190.58C1114.33,-162.98 1113.24,-113.74 1112.7,-89.22"/>
<polygon fill="midnightblue" stroke="midnightblue" points="1111.46,-190.66 1115.18,-200.58 1118.46,-190.5 1111.46,-190.66"/>
</g>
<!-- Node26&#45;&gt;Node15 -->
<g id="edge61" class="edge">
<title>Node26&#45;&gt;Node15</title>
<path fill="none" stroke="midnightblue" d="M1172.33,-208.47C1291.84,-203.62 1560.09,-189.42 1587.38,-159 1617.05,-125.91 1560.58,-102.46 1509.26,-88.78"/>
<polygon fill="midnightblue" stroke="midnightblue" points="1172.43,-205 1162.58,-208.9 1172.71,-211.99 1172.43,-205"/>
</g>
<!-- Node27 -->
<g id="node27" class="node">
<title>Node27</title>
<g id="a_node27"><a xlink:href="_solid_effect_8h.html" target="_top" xlink:title=" ">
<polygon fill="none" stroke="black" points="1440.62,-132.5 1440.62,-152.5 1578.12,-152.5 1578.12,-132.5 1440.62,-132.5"/>
<text text-anchor="middle" x="1509.38" y="-139" font-family="Helvetica,sans-Serif" font-size="10.00">include/Effects/SolidEffect.h</text>
</a>
</g>
</g>
<!-- Node26&#45;&gt;Node27 -->
<g id="edge46" class="edge">
<title>Node26&#45;&gt;Node27</title>
<path fill="none" stroke="midnightblue" d="M1172.07,-201.87C1235.39,-192.08 1340.89,-175.36 1431.38,-159 1442.52,-156.99 1454.52,-154.67 1465.7,-152.46"/>
<polygon fill="midnightblue" stroke="midnightblue" points="1171.86,-198.51 1162.51,-203.49 1172.93,-205.43 1171.86,-198.51"/>
</g>
<!-- Node28 -->
<g id="node28" class="node">
<title>Node28</title>
<g id="a_node28"><a xlink:href="_texture_effect_8h.html" target="_top" xlink:title=" ">
<polygon fill="none" stroke="black" points="1672.38,-132.5 1672.38,-152.5 1820.38,-152.5 1820.38,-132.5 1672.38,-132.5"/>
<text text-anchor="middle" x="1746.38" y="-139" font-family="Helvetica,sans-Serif" font-size="10.00">include/Effects/TextureEffect.h</text>
</a>
</g>
</g>
<!-- Node26&#45;&gt;Node28 -->
<g id="edge49" class="edge">
<title>Node26&#45;&gt;Node28</title>
<path fill="none" stroke="midnightblue" d="M1172.23,-206.61C1271.26,-199.5 1481.73,-182.9 1658.38,-159 1671.75,-157.19 1686.2,-154.82 1699.44,-152.48"/>
<polygon fill="midnightblue" stroke="midnightblue" points="1172.01,-203.19 1162.28,-207.39 1172.51,-210.17 1172.01,-203.19"/>
</g>
<!-- Node29 -->
<g id="node29" class="node">
<title>Node29</title>
<g id="a_node29"><a xlink:href="_vertex_color_effect_8h.html" target="_top" xlink:title=" ">
<polygon fill="none" stroke="black" points="938.5,-126.5 938.5,-158.5 1072.25,-158.5 1072.25,-126.5 938.5,-126.5"/>
<text text-anchor="start" x="946.5" y="-145" font-family="Helvetica,sans-Serif" font-size="10.00">include/Effects/VertexColor</text>
<text text-anchor="middle" x="1005.38" y="-133" font-family="Helvetica,sans-Serif" font-size="10.00">Effect.h</text>
</a>
</g>
</g>
<!-- Node26&#45;&gt;Node29 -->
<g id="edge51" class="edge">
<title>Node26&#45;&gt;Node29</title>
<path fill="none" stroke="midnightblue" d="M1091.65,-196.05C1073.41,-184.94 1048.28,-169.63 1029.85,-158.41"/>
<polygon fill="midnightblue" stroke="midnightblue" points="1089.63,-199.53 1099.99,-201.74 1093.27,-193.55 1089.63,-199.53"/>
</g>
<!-- Node30 -->
<g id="node30" class="node">
<title>Node30</title>
<g id="a_node30"><a xlink:href="_vertex_position_color_effect_8h.html" target="_top" xlink:title=" ">
<polygon fill="none" stroke="black" points="1128.12,-126.5 1128.12,-158.5 1274.62,-158.5 1274.62,-126.5 1128.12,-126.5"/>
<text text-anchor="start" x="1136.12" y="-145" font-family="Helvetica,sans-Serif" font-size="10.00">include/Effects/VertexPosition</text>
<text text-anchor="middle" x="1201.38" y="-133" font-family="Helvetica,sans-Serif" font-size="10.00">ColorEffect.h</text>
</a>
</g>
</g>
<!-- Node26&#45;&gt;Node30 -->
<g id="edge53" class="edge">
<title>Node26&#45;&gt;Node30</title>
<path fill="none" stroke="midnightblue" d="M1135.12,-195.11C1149.27,-184.09 1168.23,-169.32 1182.24,-158.41"/>
<polygon fill="midnightblue" stroke="midnightblue" points="1133.36,-192.83 1127.62,-201.74 1137.66,-198.36 1133.36,-192.83"/>
</g>
<!-- Node31 -->
<g id="node31" class="node">
<title>Node31</title>
<g id="a_node31"><a xlink:href="_wave_vertex_texture_effect_8h.html" target="_top" xlink:title=" ">
<polygon fill="none" stroke="black" points="642.75,-126.5 642.75,-158.5 778,-158.5 778,-126.5 642.75,-126.5"/>
<text text-anchor="start" x="650.75" y="-145" font-family="Helvetica,sans-Serif" font-size="10.00">include/Effects/WaveVertex</text>
<text text-anchor="middle" x="710.38" y="-133" font-family="Helvetica,sans-Serif" font-size="10.00">TextureEffect.h</text>
</a>
</g>
</g>
<!-- Node26&#45;&gt;Node31 -->
<g id="edge55" class="edge">
<title>Node26&#45;&gt;Node31</title>
<path fill="none" stroke="midnightblue" d="M1058.87,-202.38C993.41,-192.8 882.37,-176.01 787.38,-159 784.29,-158.45 781.13,-157.87 777.95,-157.27"/>
<polygon fill="midnightblue" stroke="midnightblue" points="1057.97,-205.93 1068.37,-203.91 1058.98,-199.01 1057.97,-205.93"/>
</g>
<!-- Node27&#45;&gt;Node12 -->
<g id="edge47" class="edge">
<title>Node27&#45;&gt;Node12</title>
<path fill="none" stroke="midnightblue" d="M1469.65,-129.46C1432.7,-118.26 1377.53,-101.53 1337.76,-89.47"/>
<polygon fill="midnightblue" stroke="midnightblue" points="1468.44,-133.05 1479.03,-132.6 1470.47,-126.35 1468.44,-133.05"/>
</g>
<!-- Node27&#45;&gt;Node15 -->
<g id="edge48" class="edge">
<title>Node27&#45;&gt;Node15</title>
<path fill="none" stroke="midnightblue" d="M1492.55,-125.16C1481.31,-114.25 1466.65,-100.01 1455.73,-89.41"/>
<polygon fill="midnightblue" stroke="midnightblue" points="1489.74,-127.29 1499.35,-131.74 1494.62,-122.26 1489.74,-127.29"/>
</g>
<!-- Node28&#45;&gt;Node11 -->
<g id="edge50" class="edge">
<title>Node28&#45;&gt;Node11</title>
<path fill="none" stroke="midnightblue" d="M1722.23,-127.31C1699.69,-114.06 1666.75,-94.7 1647.65,-83.48"/>
<polygon fill="midnightblue" stroke="midnightblue" points="1720.08,-130.69 1730.47,-132.74 1723.62,-124.66 1720.08,-130.69"/>
</g>
<!-- Node29&#45;&gt;Node13 -->
<g id="edge52" class="edge">
<title>Node29&#45;&gt;Node13</title>
<path fill="none" stroke="midnightblue" d="M988.52,-117.97C981.69,-108.45 974.02,-97.73 968,-89.33"/>
<polygon fill="midnightblue" stroke="midnightblue" points="986.05,-119.54 994.72,-125.63 991.74,-115.46 986.05,-119.54"/>
</g>
<!-- Node30&#45;&gt;Node14 -->
<g id="edge54" class="edge">
<title>Node30&#45;&gt;Node14</title>
<path fill="none" stroke="midnightblue" d="M1172.84,-120.02C1159.54,-110 1144.04,-98.34 1132.07,-89.33"/>
<polygon fill="midnightblue" stroke="midnightblue" points="1170.53,-123.41 1180.62,-126.63 1174.74,-117.82 1170.53,-123.41"/>
</g>
<!-- Node31&#45;&gt;Node16 -->
<g id="edge56" class="edge">
<title>Node31&#45;&gt;Node16</title>
<path fill="none" stroke="midnightblue" d="M733.02,-118.85C742.76,-109.11 753.88,-97.99 762.55,-89.33"/>
<polygon fill="midnightblue" stroke="midnightblue" points="730.84,-116.08 726.24,-125.63 735.79,-121.03 730.84,-116.08"/>
</g>
<!-- Node32&#45;&gt;Node26 -->
<g id="edge63" class="edge">
<title>Node32&#45;&gt;Node26</title>
<path fill="none" stroke="midnightblue" d="M977.77,-266.73C1011.42,-253.47 1063.19,-233.07 1092.71,-221.43"/>
<polygon fill="midnightblue" stroke="midnightblue" points="976.97,-263.68 968.95,-270.6 979.54,-270.19 976.97,-263.68"/>
</g>
<!-- Node34&#45;&gt;Node18 -->
<g id="edge71" class="edge">
<title>Node34&#45;&gt;Node18</title>
<path fill="none" stroke="midnightblue" d="M1142.17,-265.54C1191.64,-239.76 1296.88,-184.92 1347.71,-158.44"/>
<polygon fill="midnightblue" stroke="midnightblue" points="1140.75,-262.85 1133.5,-270.58 1143.99,-269.06 1140.75,-262.85"/>
</g>
<!-- Node34&#45;&gt;Node19 -->
<g id="edge72" class="edge">
<title>Node34&#45;&gt;Node19</title>
<path fill="none" stroke="midnightblue" d="M1060.83,-268.49C1052.32,-266.9 1043.62,-265.35 1035.38,-264 913.25,-244.02 768.39,-226.22 696.14,-217.74"/>
<polygon fill="midnightblue" stroke="midnightblue" points="1059.97,-272.08 1070.44,-270.51 1061.27,-265.2 1059.97,-272.08"/>
</g>
<!-- Node34&#45;&gt;Node26 -->
<g id="edge70" class="edge">
<title>Node34&#45;&gt;Node26</title>
<path fill="none" stroke="midnightblue" d="M1115.38,-259.86C1115.38,-247.17 1115.38,-231.24 1115.38,-221.48"/>
<polygon fill="midnightblue" stroke="midnightblue" points="1111.88,-259.74 1115.38,-269.74 1118.88,-259.74 1111.88,-259.74"/>
</g>
</g>
</svg>
