<?xml version="1.0" encoding="UTF-8" standalone="no"?>
<!DOCTYPE svg PUBLIC "-//W3C//DTD SVG 1.1//EN"
 "http://www.w3.org/Graphics/SVG/1.1/DTD/svg11.dtd">
<!-- Generated by graphviz version 8.1.0 (20230707.0739)
 -->
<!-- Title: include/LinearAlgebra/Matrix3.h Pages: 1 -->
<svg width="1441pt" height="626pt"
 viewBox="0.00 0.00 1441.38 626.00" xmlns="http://www.w3.org/2000/svg" xmlns:xlink="http://www.w3.org/1999/xlink">
<g id="graph0" class="graph" transform="scale(1 1) rotate(0) translate(4 622)">
<title>include/LinearAlgebra/Matrix3.h</title>
<!-- Node1 -->
<g id="node1" class="node">
<title>Node1</title>
<g id="a_node1"><a xlink:title=" ">
<polygon fill="#bfbfbf" stroke="black" points="948.5,-585.5 948.5,-617.5 1057.5,-617.5 1057.5,-585.5 948.5,-585.5"/>
<text text-anchor="start" x="956.5" y="-604" font-family="Helvetica,sans-Serif" font-size="10.00">include/LinearAlgebra</text>
<text text-anchor="middle" x="1003" y="-592" font-family="Helvetica,sans-Serif" font-size="10.00">/Matrix3.h</text>
</a>
</g>
</g>
<!-- Node2 -->
<g id="node2" class="node">
<title>Node2</title>
<g id="a_node2"><a xlink:href="_vector2_8h.html" target="_top" xlink:title=" ">
<polygon fill="none" stroke="black" points="272.5,-378.5 272.5,-410.5 381.5,-410.5 381.5,-378.5 272.5,-378.5"/>
<text text-anchor="start" x="280.5" y="-397" font-family="Helvetica,sans-Serif" font-size="10.00">include/LinearAlgebra</text>
<text text-anchor="middle" x="327" y="-385" font-family="Helvetica,sans-Serif" font-size="10.00">/Vector2.h</text>
</a>
</g>
</g>
<!-- Node1&#45;&gt;Node2 -->
<g id="edge1" class="edge">
<title>Node1&#45;&gt;Node2</title>
<path fill="none" stroke="midnightblue" d="M937.99,-597.9C796.33,-591.78 469,-574.98 426,-549 371.99,-516.37 342.13,-441.71 331.51,-410.09"/>
<polygon fill="midnightblue" stroke="midnightblue" points="937.54,-601.43 947.68,-598.36 937.84,-594.43 937.54,-601.43"/>
</g>
<!-- Node4 -->
<g id="node4" class="node">
<title>Node4</title>
<g id="a_node4"><a xlink:href="_cube_skin_scene_8h.html" target="_top" xlink:title=" ">
<polygon fill="none" stroke="black" points="445.12,-63.5 445.12,-83.5 608.88,-83.5 608.88,-63.5 445.12,-63.5"/>
<text text-anchor="middle" x="527" y="-70" font-family="Helvetica,sans-Serif" font-size="10.00">include/Scenes/CubeSkinScene.h</text>
</a>
</g>
</g>
<!-- Node1&#45;&gt;Node4 -->
<g id="edge63" class="edge">
<title>Node1&#45;&gt;Node4</title>
<path fill="none" stroke="midnightblue" d="M937.89,-598.55C715.54,-591.04 0,-559.49 0,-464.5 0,-464.5 0,-464.5 0,-204.5 0,-113.92 297.21,-86.07 445.23,-77.82"/>
<polygon fill="midnightblue" stroke="midnightblue" points="937.61,-602.08 947.72,-598.91 937.84,-595.08 937.61,-602.08"/>
</g>
<!-- Node6 -->
<g id="node6" class="node">
<title>Node6</title>
<g id="a_node6"><a xlink:href="_cube_solid_scene_8h.html" target="_top" xlink:title=" ">
<polygon fill="none" stroke="black" points="684,-57.5 684,-89.5 814,-89.5 814,-57.5 684,-57.5"/>
<text text-anchor="start" x="692" y="-76" font-family="Helvetica,sans-Serif" font-size="10.00">include/Scenes/CubeSolid</text>
<text text-anchor="middle" x="749" y="-64" font-family="Helvetica,sans-Serif" font-size="10.00">Scene.h</text>
</a>
</g>
</g>
<!-- Node1&#45;&gt;Node6 -->
<g id="edge64" class="edge">
<title>Node1&#45;&gt;Node6</title>
<path fill="none" stroke="midnightblue" d="M938.18,-589.79C876.63,-575.91 787.02,-545.23 742,-480 654.22,-352.8 722.11,-145.62 743.26,-89.12"/>
<polygon fill="midnightblue" stroke="midnightblue" points="937.05,-593.34 947.56,-592.04 938.53,-586.5 937.05,-593.34"/>
</g>
<!-- Node7 -->
<g id="node7" class="node">
<title>Node7</title>
<g id="a_node7"><a xlink:href="_cube_vertex_color_scene_8h.html" target="_top" xlink:title=" ">
<polygon fill="none" stroke="black" points="1047.62,-57.5 1047.62,-89.5 1184.38,-89.5 1184.38,-57.5 1047.62,-57.5"/>
<text text-anchor="start" x="1055.62" y="-76" font-family="Helvetica,sans-Serif" font-size="10.00">include/Scenes/CubeVertex</text>
<text text-anchor="middle" x="1116" y="-64" font-family="Helvetica,sans-Serif" font-size="10.00">ColorScene.h</text>
</a>
</g>
</g>
<!-- Node1&#45;&gt;Node7 -->
<g id="edge65" class="edge">
<title>Node1&#45;&gt;Node7</title>
<path fill="none" stroke="midnightblue" d="M1068.33,-599.48C1158.74,-594.21 1311,-569.71 1311,-464.5 1311,-464.5 1311,-464.5 1311,-204.5 1311,-165.34 1300.69,-151.53 1271,-126 1246.7,-105.11 1213.66,-92.63 1184.32,-85.2"/>
<polygon fill="midnightblue" stroke="midnightblue" points="1068.16,-596.03 1058.36,-600.04 1068.52,-603.02 1068.16,-596.03"/>
</g>
<!-- Node18 -->
<g id="node18" class="node">
<title>Node18</title>
<g id="a_node18"><a xlink:href="_vector2_8cpp.html" target="_top" xlink:title=" ">
<polygon fill="none" stroke="black" points="329.62,-309.5 329.62,-341.5 424.38,-341.5 424.38,-309.5 329.62,-309.5"/>
<text text-anchor="start" x="337.62" y="-328" font-family="Helvetica,sans-Serif" font-size="10.00">test/LinearAlgebra</text>
<text text-anchor="middle" x="377" y="-316" font-family="Helvetica,sans-Serif" font-size="10.00">/Vector2.cpp</text>
</a>
</g>
</g>
<!-- Node1&#45;&gt;Node18 -->
<g id="edge67" class="edge">
<title>Node1&#45;&gt;Node18</title>
<path fill="none" stroke="midnightblue" d="M937.86,-600.02C868.19,-597.37 755.75,-586.87 667,-549 545.3,-497.08 429.47,-382.14 390.68,-341.28"/>
<polygon fill="midnightblue" stroke="midnightblue" points="937.56,-603.54 947.67,-600.38 937.79,-596.55 937.56,-603.54"/>
</g>
<!-- Node19 -->
<g id="node19" class="node">
<title>Node19</title>
<g id="a_node19"><a xlink:href="_vector3_8h.html" target="_top" xlink:title=" ">
<polygon fill="none" stroke="black" points="869.5,-516.5 869.5,-548.5 978.5,-548.5 978.5,-516.5 869.5,-516.5"/>
<text text-anchor="start" x="877.5" y="-535" font-family="Helvetica,sans-Serif" font-size="10.00">include/LinearAlgebra</text>
<text text-anchor="middle" x="924" y="-523" font-family="Helvetica,sans-Serif" font-size="10.00">/Vector3.h</text>
</a>
</g>
</g>
<!-- Node1&#45;&gt;Node19 -->
<g id="edge30" class="edge">
<title>Node1&#45;&gt;Node19</title>
<path fill="none" stroke="midnightblue" d="M977.33,-578.73C965.6,-568.78 952.01,-557.25 941.48,-548.33"/>
<polygon fill="midnightblue" stroke="midnightblue" points="974.58,-581.83 984.47,-585.63 979.1,-576.49 974.58,-581.83"/>
</g>
<!-- Node23 -->
<g id="node23" class="node">
<title>Node23</title>
<g id="a_node23"><a xlink:href="_pipeline_8h.html" target="_top" xlink:title=" ">
<polygon fill="none" stroke="black" points="793.75,-195.5 793.75,-215.5 886.25,-215.5 886.25,-195.5 793.75,-195.5"/>
<text text-anchor="middle" x="840" y="-202" font-family="Helvetica,sans-Serif" font-size="10.00">include/Pipeline.h</text>
</a>
</g>
</g>
<!-- Node1&#45;&gt;Node23 -->
<g id="edge62" class="edge">
<title>Node1&#45;&gt;Node23</title>
<path fill="none" stroke="midnightblue" d="M1067.72,-587.55C1151.76,-567.44 1282.93,-522.91 1240,-447 1228.78,-427.16 928.29,-256.42 855.68,-215.35"/>
<polygon fill="midnightblue" stroke="midnightblue" points="1067.15,-584.32 1058.21,-590 1068.74,-591.14 1067.15,-584.32"/>
</g>
<!-- Node29 -->
<g id="node29" class="node">
<title>Node29</title>
<g id="a_node29"><a xlink:href="_vector4_8h.html" target="_top" xlink:title=" ">
<polygon fill="none" stroke="black" points="1009.5,-447.5 1009.5,-479.5 1118.5,-479.5 1118.5,-447.5 1009.5,-447.5"/>
<text text-anchor="start" x="1017.5" y="-466" font-family="Helvetica,sans-Serif" font-size="10.00">include/LinearAlgebra</text>
<text text-anchor="middle" x="1064" y="-454" font-family="Helvetica,sans-Serif" font-size="10.00">/Vector4.h</text>
</a>
</g>
</g>
<!-- Node1&#45;&gt;Node29 -->
<g id="edge61" class="edge">
<title>Node1&#45;&gt;Node29</title>
<path fill="none" stroke="midnightblue" d="M1014.08,-575.8C1026.71,-547.63 1046.96,-502.48 1057.36,-479.3"/>
<polygon fill="midnightblue" stroke="midnightblue" points="1010.54,-574.13 1009.64,-584.69 1016.93,-576.99 1010.54,-574.13"/>
</g>
<!-- Node30 -->
<g id="node30" class="node">
<title>Node30</title>
<g id="a_node30"><a xlink:href="_vector3_8cpp.html" target="_top" xlink:title=" ">
<polygon fill="none" stroke="black" points="1136.62,-447.5 1136.62,-479.5 1231.38,-479.5 1231.38,-447.5 1136.62,-447.5"/>
<text text-anchor="start" x="1144.62" y="-466" font-family="Helvetica,sans-Serif" font-size="10.00">test/LinearAlgebra</text>
<text text-anchor="middle" x="1184" y="-454" font-family="Helvetica,sans-Serif" font-size="10.00">/Vector3.cpp</text>
</a>
</g>
</g>
<!-- Node1&#45;&gt;Node30 -->
<g id="edge68" class="edge">
<title>Node1&#45;&gt;Node30</title>
<path fill="none" stroke="midnightblue" d="M1031.05,-579.42C1068.01,-551.65 1132.09,-503.5 1164.31,-479.3"/>
<polygon fill="midnightblue" stroke="midnightblue" points="1029.61,-576.88 1023.71,-585.69 1033.81,-582.48 1029.61,-576.88"/>
</g>
<!-- Node31 -->
<g id="node31" class="node">
<title>Node31</title>
<g id="a_node31"><a xlink:href="_matrix3_8cpp.html" target="_top" xlink:title=" ">
<polygon fill="none" stroke="black" points="1338.62,-516.5 1338.62,-548.5 1433.38,-548.5 1433.38,-516.5 1338.62,-516.5"/>
<text text-anchor="start" x="1346.62" y="-535" font-family="Helvetica,sans-Serif" font-size="10.00">test/LinearAlgebra</text>
<text text-anchor="middle" x="1386" y="-523" font-family="Helvetica,sans-Serif" font-size="10.00">/Matrix3.cpp</text>
</a>
</g>
</g>
<!-- Node1&#45;&gt;Node31 -->
<g id="edge66" class="edge">
<title>Node1&#45;&gt;Node31</title>
<path fill="none" stroke="midnightblue" d="M1067.93,-591.87C1133.19,-582.79 1236.51,-567.28 1325,-549 1329.49,-548.07 1334.16,-547.03 1338.81,-545.94"/>
<polygon fill="midnightblue" stroke="midnightblue" points="1067.82,-588.49 1058.4,-593.33 1068.78,-595.42 1067.82,-588.49"/>
</g>
<!-- Node3 -->
<g id="node3" class="node">
<title>Node3</title>
<g id="a_node3"><a xlink:href="_cube_8h.html" target="_top" xlink:title=" ">
<polygon fill="none" stroke="black" points="1026.75,-195.5 1026.75,-215.5 1107.25,-215.5 1107.25,-195.5 1026.75,-195.5"/>
<text text-anchor="middle" x="1067" y="-202" font-family="Helvetica,sans-Serif" font-size="10.00">include/Cube.h</text>
</a>
</g>
</g>
<!-- Node2&#45;&gt;Node3 -->
<g id="edge2" class="edge">
<title>Node2&#45;&gt;Node3</title>
<path fill="none" stroke="midnightblue" d="M392.02,-386.83C461.43,-378.99 574.37,-364.17 670,-342 719.5,-330.53 839.95,-289.52 888,-273 944.43,-253.6 1010,-228.6 1043.96,-215.47"/>
<polygon fill="midnightblue" stroke="midnightblue" points="391.81,-383.44 382.26,-388.03 392.59,-390.4 391.81,-383.44"/>
</g>
<!-- Node8 -->
<g id="node8" class="node">
<title>Node8</title>
<g id="a_node8"><a xlink:href="_texture_effect_8h.html" target="_top" xlink:title=" ">
<polygon fill="none" stroke="black" points="540.62,-132.5 540.62,-152.5 683.38,-152.5 683.38,-132.5 540.62,-132.5"/>
<text text-anchor="middle" x="612" y="-139" font-family="Helvetica,sans-Serif" font-size="10.00">include/Effect/TextureEffect.h</text>
</a>
</g>
</g>
<!-- Node2&#45;&gt;Node8 -->
<g id="edge9" class="edge">
<title>Node2&#45;&gt;Node8</title>
<path fill="none" stroke="midnightblue" d="M316.7,-368.39C310.92,-349.86 307.32,-325.16 321,-309 383.6,-235.05 456.2,-327.95 536,-273 580.66,-242.25 602.92,-175.98 609.7,-152.21"/>
<polygon fill="midnightblue" stroke="midnightblue" points="313.71,-369.46 320.33,-377.74 320.32,-367.14 313.71,-369.46"/>
</g>
<!-- Node9 -->
<g id="node9" class="node">
<title>Node9</title>
<g id="a_node9"><a xlink:href="_mouse_8h.html" target="_top" xlink:title=" ">
<polygon fill="none" stroke="black" points="186.38,-315.5 186.38,-335.5 273.62,-335.5 273.62,-315.5 186.38,-315.5"/>
<text text-anchor="middle" x="230" y="-322" font-family="Helvetica,sans-Serif" font-size="10.00">include/Mouse.h</text>
</a>
</g>
</g>
<!-- Node2&#45;&gt;Node9 -->
<g id="edge11" class="edge">
<title>Node2&#45;&gt;Node9</title>
<path fill="none" stroke="midnightblue" d="M296.44,-372.39C278.37,-359.91 256.43,-344.76 242.84,-335.37"/>
<polygon fill="midnightblue" stroke="midnightblue" points="294.26,-375.83 304.47,-378.63 298.23,-370.07 294.26,-375.83"/>
</g>
<!-- Node11 -->
<g id="node11" class="node">
<title>Node11</title>
<g id="a_node11"><a xlink:href="_graphics_8cpp.html" target="_top" xlink:title=" ">
<polygon fill="none" stroke="black" points="27.88,-195.5 27.88,-215.5 118.12,-215.5 118.12,-195.5 27.88,-195.5"/>
<text text-anchor="middle" x="73" y="-202" font-family="Helvetica,sans-Serif" font-size="10.00">src/Graphics.cpp</text>
</a>
</g>
</g>
<!-- Node2&#45;&gt;Node11 -->
<g id="edge27" class="edge">
<title>Node2&#45;&gt;Node11</title>
<path fill="none" stroke="midnightblue" d="M262.16,-383.38C224.13,-375.66 176.04,-362.73 137,-342 95.53,-319.98 76.55,-315.69 57,-273 48.1,-253.57 59.62,-228.59 67.25,-215.46"/>
<polygon fill="midnightblue" stroke="midnightblue" points="261.12,-386.94 271.61,-385.42 262.46,-380.07 261.12,-386.94"/>
</g>
<!-- Node16 -->
<g id="node16" class="node">
<title>Node16</title>
<g id="a_node16"><a xlink:href="_mouse_8cpp.html" target="_top" xlink:title=" ">
<polygon fill="none" stroke="black" points="65.75,-252.5 65.75,-272.5 146.25,-272.5 146.25,-252.5 65.75,-252.5"/>
<text text-anchor="middle" x="106" y="-259" font-family="Helvetica,sans-Serif" font-size="10.00">src/Mouse.cpp</text>
</a>
</g>
</g>
<!-- Node2&#45;&gt;Node16 -->
<g id="edge28" class="edge">
<title>Node2&#45;&gt;Node16</title>
<path fill="none" stroke="midnightblue" d="M262.24,-379.01C234.51,-370.9 202.68,-358.94 177,-342 147.7,-322.67 122.6,-288.49 111.74,-272.37"/>
<polygon fill="midnightblue" stroke="midnightblue" points="261.07,-382.59 271.65,-381.92 262.96,-375.85 261.07,-382.59"/>
</g>
<!-- Node17 -->
<g id="node17" class="node">
<title>Node17</title>
<g id="a_node17"><a xlink:href="_tex_vertex_8h.html" target="_top" xlink:title=" ">
<polygon fill="none" stroke="black" points="442.88,-315.5 442.88,-335.5 545.12,-335.5 545.12,-315.5 442.88,-315.5"/>
<text text-anchor="middle" x="494" y="-322" font-family="Helvetica,sans-Serif" font-size="10.00">include/TexVertex.h</text>
</a>
</g>
</g>
<!-- Node2&#45;&gt;Node17 -->
<g id="edge26" class="edge">
<title>Node2&#45;&gt;Node17</title>
<path fill="none" stroke="midnightblue" d="M374.12,-374.59C406.17,-361.74 447.09,-345.32 471.89,-335.37"/>
<polygon fill="midnightblue" stroke="midnightblue" points="373.04,-371.66 365.06,-378.63 375.65,-378.16 373.04,-371.66"/>
</g>
<!-- Node2&#45;&gt;Node18 -->
<g id="edge29" class="edge">
<title>Node2&#45;&gt;Node18</title>
<path fill="none" stroke="midnightblue" d="M344.56,-369.97C351.67,-360.45 359.66,-349.73 365.93,-341.33"/>
<polygon fill="midnightblue" stroke="midnightblue" points="341.27,-367.52 338.1,-377.63 346.88,-371.71 341.27,-367.52"/>
</g>
<!-- Node3&#45;&gt;Node4 -->
<g id="edge3" class="edge">
<title>Node3&#45;&gt;Node4</title>
<path fill="none" stroke="midnightblue" d="M1051.94,-187.72C1031.67,-165.22 997.71,-127.86 994,-126 989.73,-123.86 741.53,-97.26 608.76,-83.16"/>
<polygon fill="midnightblue" stroke="midnightblue" points="1048.9,-189.68 1058.19,-194.78 1054.1,-185 1048.9,-189.68"/>
</g>
<!-- Node3&#45;&gt;Node6 -->
<g id="edge5" class="edge">
<title>Node3&#45;&gt;Node6</title>
<path fill="none" stroke="midnightblue" d="M1062.37,-184.98C1057,-166.8 1046.3,-140.41 1027,-126 994.06,-101.41 885.21,-86.95 813.89,-79.89"/>
<polygon fill="midnightblue" stroke="midnightblue" points="1059.22,-185.76 1065.16,-194.53 1065.98,-183.97 1059.22,-185.76"/>
</g>
<!-- Node3&#45;&gt;Node7 -->
<g id="edge7" class="edge">
<title>Node3&#45;&gt;Node7</title>
<path fill="none" stroke="midnightblue" d="M1118,-199.13C1167.44,-192.74 1237.35,-180.19 1254,-159 1279.69,-126.31 1229.55,-103.17 1182.68,-89.47"/>
<polygon fill="midnightblue" stroke="midnightblue" points="1117.66,-195.77 1108.17,-200.47 1118.52,-202.71 1117.66,-195.77"/>
</g>
<!-- Node5 -->
<g id="node5" class="node">
<title>Node5</title>
<g id="a_node5"><a xlink:href="_engine_8cpp.html" target="_top" xlink:title=" ">
<polygon fill="none" stroke="black" points="486.38,-0.5 486.38,-20.5 567.62,-20.5 567.62,-0.5 486.38,-0.5"/>
<text text-anchor="middle" x="527" y="-7" font-family="Helvetica,sans-Serif" font-size="10.00">src/Engine.cpp</text>
</a>
</g>
</g>
<!-- Node4&#45;&gt;Node5 -->
<g id="edge4" class="edge">
<title>Node4&#45;&gt;Node5</title>
<path fill="none" stroke="midnightblue" d="M527,-52.99C527,-41.97 527,-28.73 527,-20.22"/>
<polygon fill="midnightblue" stroke="midnightblue" points="523.5,-52.76 527,-62.76 530.5,-52.76 523.5,-52.76"/>
</g>
<!-- Node6&#45;&gt;Node5 -->
<g id="edge6" class="edge">
<title>Node6&#45;&gt;Node5</title>
<path fill="none" stroke="midnightblue" d="M684.25,-54.71C643.28,-43.45 592.07,-29.38 559.45,-20.42"/>
<polygon fill="midnightblue" stroke="midnightblue" points="683.12,-58.3 693.69,-57.58 684.98,-51.55 683.12,-58.3"/>
</g>
<!-- Node7&#45;&gt;Node5 -->
<g id="edge8" class="edge">
<title>Node7&#45;&gt;Node5</title>
<path fill="none" stroke="midnightblue" d="M1037.05,-64.32C909.86,-51.15 664.1,-25.7 567.45,-15.69"/>
<polygon fill="midnightblue" stroke="midnightblue" points="1036.55,-67.89 1046.86,-65.44 1037.27,-60.93 1036.55,-67.89"/>
</g>
<!-- Node8&#45;&gt;Node4 -->
<g id="edge10" class="edge">
<title>Node8&#45;&gt;Node4</title>
<path fill="none" stroke="midnightblue" d="M592.39,-126.04C575.66,-112.86 552.18,-94.35 538.39,-83.48"/>
<polygon fill="midnightblue" stroke="midnightblue" points="589.87,-129.3 599.89,-132.74 594.2,-123.8 589.87,-129.3"/>
</g>
<!-- Node10 -->
<g id="node10" class="node">
<title>Node10</title>
<g id="a_node10"><a xlink:href="_main_window_8h.html" target="_top" xlink:title=" ">
<polygon fill="none" stroke="black" points="202.25,-252.5 202.25,-272.5 315.75,-272.5 315.75,-252.5 202.25,-252.5"/>
<text text-anchor="middle" x="259" y="-259" font-family="Helvetica,sans-Serif" font-size="10.00">include/MainWindow.h</text>
</a>
</g>
</g>
<!-- Node9&#45;&gt;Node10 -->
<g id="edge12" class="edge">
<title>Node9&#45;&gt;Node10</title>
<path fill="none" stroke="midnightblue" d="M238.77,-306.04C244.11,-294.82 250.68,-281.01 254.85,-272.22"/>
<polygon fill="midnightblue" stroke="midnightblue" points="235.29,-304.23 234.15,-314.76 241.61,-307.23 235.29,-304.23"/>
</g>
<!-- Node14 -->
<g id="node14" class="node">
<title>Node14</title>
<g id="a_node14"><a xlink:href="_scene_8h.html" target="_top" xlink:title=" ">
<polygon fill="none" stroke="black" points="441.12,-252.5 441.12,-272.5 526.88,-272.5 526.88,-252.5 441.12,-252.5"/>
<text text-anchor="middle" x="484" y="-259" font-family="Helvetica,sans-Serif" font-size="10.00">include/Scene.h</text>
</a>
</g>
</g>
<!-- Node9&#45;&gt;Node14 -->
<g id="edge17" class="edge">
<title>Node9&#45;&gt;Node14</title>
<path fill="none" stroke="midnightblue" d="M273.4,-312.73C278.32,-311.45 283.26,-310.18 288,-309 341.72,-295.59 404.05,-281.34 443.74,-272.44"/>
<polygon fill="midnightblue" stroke="midnightblue" points="272.55,-309.6 263.77,-315.54 274.33,-316.37 272.55,-309.6"/>
</g>
<!-- Node9&#45;&gt;Node16 -->
<g id="edge25" class="edge">
<title>Node9&#45;&gt;Node16</title>
<path fill="none" stroke="midnightblue" d="M202.41,-310.93C178.51,-299.17 144.63,-282.5 124.05,-272.38"/>
<polygon fill="midnightblue" stroke="midnightblue" points="200.45,-314.36 210.97,-315.63 203.54,-308.08 200.45,-314.36"/>
</g>
<!-- Node10&#45;&gt;Node5 -->
<g id="edge13" class="edge">
<title>Node10&#45;&gt;Node5</title>
<path fill="none" stroke="midnightblue" d="M235.38,-246.74C198.2,-221.66 133.34,-169.22 165,-126 203.71,-73.16 400.51,-33.35 486.59,-18.19"/>
<polygon fill="midnightblue" stroke="midnightblue" points="232.88,-249.95 243.16,-252.51 236.73,-244.1 232.88,-249.95"/>
</g>
<!-- Node10&#45;&gt;Node11 -->
<g id="edge14" class="edge">
<title>Node10&#45;&gt;Node11</title>
<path fill="none" stroke="midnightblue" d="M218.44,-249.51C183.76,-239.25 134.63,-224.72 103.29,-215.46"/>
<polygon fill="midnightblue" stroke="midnightblue" points="217.12,-253.06 227.7,-252.54 219.1,-246.35 217.12,-253.06"/>
</g>
<!-- Node12 -->
<g id="node12" class="node">
<title>Node12</title>
<g id="a_node12"><a xlink:href="_main_8cpp.html" target="_top" xlink:title=" ">
<polygon fill="none" stroke="black" points="173.88,-132.5 173.88,-152.5 246.12,-152.5 246.12,-132.5 173.88,-132.5"/>
<text text-anchor="middle" x="210" y="-139" font-family="Helvetica,sans-Serif" font-size="10.00">src/Main.cpp</text>
</a>
</g>
</g>
<!-- Node10&#45;&gt;Node12 -->
<g id="edge15" class="edge">
<title>Node10&#45;&gt;Node12</title>
<path fill="none" stroke="midnightblue" d="M251.15,-242.6C240.44,-216.81 221.67,-171.61 213.73,-152.47"/>
<polygon fill="midnightblue" stroke="midnightblue" points="248.25,-243.74 255.32,-251.63 254.71,-241.05 248.25,-243.74"/>
</g>
<!-- Node13 -->
<g id="node13" class="node">
<title>Node13</title>
<g id="a_node13"><a xlink:href="_main_window_8cpp.html" target="_top" xlink:title=" ">
<polygon fill="none" stroke="black" points="264.62,-132.5 264.62,-152.5 371.38,-152.5 371.38,-132.5 264.62,-132.5"/>
<text text-anchor="middle" x="318" y="-139" font-family="Helvetica,sans-Serif" font-size="10.00">src/MainWindow.cpp</text>
</a>
</g>
</g>
<!-- Node10&#45;&gt;Node13 -->
<g id="edge16" class="edge">
<title>Node10&#45;&gt;Node13</title>
<path fill="none" stroke="midnightblue" d="M268.28,-242.95C281.14,-217.22 303.9,-171.7 313.51,-152.47"/>
<polygon fill="midnightblue" stroke="midnightblue" points="264.78,-241.12 263.43,-251.63 271.04,-244.25 264.78,-241.12"/>
</g>
<!-- Node14&#45;&gt;Node4 -->
<g id="edge22" class="edge">
<title>Node14&#45;&gt;Node4</title>
<path fill="none" stroke="midnightblue" d="M474.18,-243.05C461.22,-216.01 442.14,-164.63 461,-126 470.63,-106.28 491.86,-91.9 507.66,-83.43"/>
<polygon fill="midnightblue" stroke="midnightblue" points="471.44,-244.39 479.07,-251.74 477.69,-241.24 471.44,-244.39"/>
</g>
<!-- Node14&#45;&gt;Node6 -->
<g id="edge23" class="edge">
<title>Node14&#45;&gt;Node6</title>
<path fill="none" stroke="midnightblue" d="M485.2,-242.08C488.11,-212.53 498.05,-156.48 532,-126 554.26,-106.02 628.69,-91.4 684.21,-82.94"/>
<polygon fill="midnightblue" stroke="midnightblue" points="481.67,-241.41 484.36,-251.65 488.64,-241.96 481.67,-241.41"/>
</g>
<!-- Node14&#45;&gt;Node7 -->
<g id="edge24" class="edge">
<title>Node14&#45;&gt;Node7</title>
<path fill="none" stroke="midnightblue" d="M513.59,-248.36C574.37,-221.8 718.18,-161.3 844,-126 912.37,-106.82 992.42,-92.62 1047.9,-84.05"/>
<polygon fill="midnightblue" stroke="midnightblue" points="512.64,-245.39 504.89,-252.61 515.45,-251.8 512.64,-245.39"/>
</g>
<!-- Node15 -->
<g id="node15" class="node">
<title>Node15</title>
<g id="a_node15"><a xlink:href="_engine_8h.html" target="_top" xlink:title=" ">
<polygon fill="none" stroke="black" points="355,-195.5 355,-215.5 443,-215.5 443,-195.5 355,-195.5"/>
<text text-anchor="middle" x="399" y="-202" font-family="Helvetica,sans-Serif" font-size="10.00">include/Engine.h</text>
</a>
</g>
</g>
<!-- Node14&#45;&gt;Node15 -->
<g id="edge18" class="edge">
<title>Node14&#45;&gt;Node15</title>
<path fill="none" stroke="midnightblue" d="M461.43,-246.89C446,-236.91 426.05,-224 412.91,-215.5"/>
<polygon fill="midnightblue" stroke="midnightblue" points="459.05,-250.17 469.34,-252.66 462.85,-244.29 459.05,-250.17"/>
</g>
<!-- Node15&#45;&gt;Node5 -->
<g id="edge19" class="edge">
<title>Node15&#45;&gt;Node5</title>
<path fill="none" stroke="midnightblue" d="M398.92,-184.9C399.8,-154.31 405.64,-94.82 436,-57 450.6,-38.82 474.33,-27.29 493.91,-20.39"/>
<polygon fill="midnightblue" stroke="midnightblue" points="395.41,-184.72 398.79,-194.76 402.41,-184.8 395.41,-184.72"/>
</g>
<!-- Node15&#45;&gt;Node12 -->
<g id="edge20" class="edge">
<title>Node15&#45;&gt;Node12</title>
<path fill="none" stroke="midnightblue" d="M360.02,-192.29C331.24,-183.23 291.13,-170.51 256,-159 249.59,-156.9 242.7,-154.6 236.25,-152.43"/>
<polygon fill="midnightblue" stroke="midnightblue" points="358.88,-195.92 369.47,-195.58 360.98,-189.24 358.88,-195.92"/>
</g>
<!-- Node15&#45;&gt;Node13 -->
<g id="edge21" class="edge">
<title>Node15&#45;&gt;Node13</title>
<path fill="none" stroke="midnightblue" d="M379.03,-189.46C363.59,-177.84 342.75,-162.14 329.85,-152.42"/>
<polygon fill="midnightblue" stroke="midnightblue" points="376.3,-192.54 386.39,-195.76 380.51,-186.95 376.3,-192.54"/>
</g>
<!-- Node19&#45;&gt;Node3 -->
<g id="edge51" class="edge">
<title>Node19&#45;&gt;Node3</title>
<path fill="none" stroke="midnightblue" d="M945,-508.55C992.56,-455.96 1105.79,-327.13 1124,-273 1126.98,-264.15 1128.05,-260.41 1124,-252 1116.04,-235.46 1098.81,-223.06 1085.36,-215.41"/>
<polygon fill="midnightblue" stroke="midnightblue" points="942.83,-505.84 938.7,-515.59 948.01,-510.54 942.83,-505.84"/>
</g>
<!-- Node19&#45;&gt;Node4 -->
<g id="edge58" class="edge">
<title>Node19&#45;&gt;Node4</title>
<path fill="none" stroke="midnightblue" d="M859.16,-518.06C832.62,-510.21 802.85,-498.15 780,-480 709.24,-423.79 725.24,-380.52 670,-309 614.62,-237.31 567.4,-242.39 532,-159 521.09,-133.3 523.62,-99.2 525.65,-83.33"/>
<polygon fill="midnightblue" stroke="midnightblue" points="857.96,-521.64 868.54,-520.97 859.85,-514.9 857.96,-521.64"/>
</g>
<!-- Node19&#45;&gt;Node17 -->
<g id="edge59" class="edge">
<title>Node19&#45;&gt;Node17</title>
<path fill="none" stroke="midnightblue" d="M858.88,-523.93C812.65,-516.82 750,-503.63 699,-480 613.88,-440.56 529.81,-361.86 502.89,-335.41"/>
<polygon fill="midnightblue" stroke="midnightblue" points="858.27,-527.52 868.67,-525.52 859.29,-520.6 858.27,-527.52"/>
</g>
<!-- Node20 -->
<g id="node20" class="node">
<title>Node20</title>
<g id="a_node20"><a xlink:href="_colors_8h.html" target="_top" xlink:title=" ">
<polygon fill="none" stroke="black" points="789.12,-453.5 789.12,-473.5 874.88,-473.5 874.88,-453.5 789.12,-453.5"/>
<text text-anchor="middle" x="832" y="-460" font-family="Helvetica,sans-Serif" font-size="10.00">include/Colors.h</text>
</a>
</g>
</g>
<!-- Node19&#45;&gt;Node20 -->
<g id="edge31" class="edge">
<title>Node19&#45;&gt;Node20</title>
<path fill="none" stroke="midnightblue" d="M895.02,-510.39C877.88,-497.91 857.07,-482.76 844.18,-473.37"/>
<polygon fill="midnightblue" stroke="midnightblue" points="892.44,-513.57 902.58,-516.63 896.56,-507.91 892.44,-513.57"/>
</g>
<!-- Node22 -->
<g id="node22" class="node">
<title>Node22</title>
<g id="a_node22"><a xlink:href="_graphics_8h.html" target="_top" xlink:title=" ">
<polygon fill="none" stroke="black" points="563.5,-315.5 563.5,-335.5 660.5,-335.5 660.5,-315.5 563.5,-315.5"/>
<text text-anchor="middle" x="612" y="-322" font-family="Helvetica,sans-Serif" font-size="10.00">include/Graphics.h</text>
</a>
</g>
</g>
<!-- Node19&#45;&gt;Node22 -->
<g id="edge52" class="edge">
<title>Node19&#45;&gt;Node22</title>
<path fill="none" stroke="midnightblue" d="M859.4,-522.6C823.03,-515.35 778.03,-502.49 743,-480 680.79,-440.06 632.14,-361.68 616.95,-335.36"/>
<polygon fill="midnightblue" stroke="midnightblue" points="858.42,-526.16 868.9,-524.58 859.72,-519.29 858.42,-526.16"/>
</g>
<!-- Node26 -->
<g id="node26" class="node">
<title>Node26</title>
<g id="a_node26"><a xlink:href="_pube_screen_transformer_8h.html" target="_top" xlink:title=" ">
<polygon fill="none" stroke="black" points="716.88,-252.5 716.88,-272.5 879.12,-272.5 879.12,-252.5 716.88,-252.5"/>
<text text-anchor="middle" x="798" y="-259" font-family="Helvetica,sans-Serif" font-size="10.00">include/PubeScreenTransformer.h</text>
</a>
</g>
</g>
<!-- Node19&#45;&gt;Node26 -->
<g id="edge57" class="edge">
<title>Node19&#45;&gt;Node26</title>
<path fill="none" stroke="midnightblue" d="M926.55,-505.79C929.6,-461.22 929.63,-368.67 886,-309 872.7,-290.81 849.97,-279.32 830.94,-272.44"/>
<polygon fill="midnightblue" stroke="midnightblue" points="923,-505.28 925.7,-515.53 929.98,-505.84 923,-505.28"/>
</g>
<!-- Node28 -->
<g id="node28" class="node">
<title>Node28</title>
<g id="a_node28"><a xlink:href="_indexed_triangle_list_8h.html" target="_top" xlink:title=" ">
<polygon fill="none" stroke="black" points="973.38,-252.5 973.38,-272.5 1114.62,-272.5 1114.62,-252.5 973.38,-252.5"/>
<text text-anchor="middle" x="1044" y="-259" font-family="Helvetica,sans-Serif" font-size="10.00">include/IndexedTriangleList.h</text>
</a>
</g>
</g>
<!-- Node19&#45;&gt;Node28 -->
<g id="edge53" class="edge">
<title>Node19&#45;&gt;Node28</title>
<path fill="none" stroke="midnightblue" d="M934.96,-507.03C960.61,-449.73 1023.64,-308.98 1040.04,-272.34"/>
<polygon fill="midnightblue" stroke="midnightblue" points="931.51,-505.15 930.62,-515.71 937.9,-508.01 931.51,-505.15"/>
</g>
<!-- Node19&#45;&gt;Node29 -->
<g id="edge56" class="edge">
<title>Node19&#45;&gt;Node29</title>
<path fill="none" stroke="midnightblue" d="M964.72,-512.01C986.51,-501.59 1012.92,-488.95 1033.02,-479.33"/>
<polygon fill="midnightblue" stroke="midnightblue" points="963.58,-509.16 956.07,-516.63 966.6,-515.47 963.58,-509.16"/>
</g>
<!-- Node19&#45;&gt;Node30 -->
<g id="edge60" class="edge">
<title>Node19&#45;&gt;Node30</title>
<path fill="none" stroke="midnightblue" d="M988.66,-515.58C1028.82,-505.59 1081.48,-492.31 1128,-480 1130.83,-479.25 1133.73,-478.47 1136.66,-477.68"/>
<polygon fill="midnightblue" stroke="midnightblue" points="988.07,-512.36 979.21,-518.17 989.75,-519.16 988.07,-512.36"/>
</g>
<!-- Node21 -->
<g id="node21" class="node">
<title>Node21</title>
<g id="a_node21"><a xlink:href="_surface_8h.html" target="_top" xlink:title=" ">
<polygon fill="none" stroke="black" points="785.5,-384.5 785.5,-404.5 876.5,-404.5 876.5,-384.5 785.5,-384.5"/>
<text text-anchor="middle" x="831" y="-391" font-family="Helvetica,sans-Serif" font-size="10.00">include/Surface.h</text>
</a>
</g>
</g>
<!-- Node20&#45;&gt;Node21 -->
<g id="edge32" class="edge">
<title>Node20&#45;&gt;Node21</title>
<path fill="none" stroke="midnightblue" d="M831.71,-442.86C831.52,-430.17 831.28,-414.24 831.13,-404.48"/>
<polygon fill="midnightblue" stroke="midnightblue" points="828.22,-442.79 831.87,-452.74 835.22,-442.69 828.22,-442.79"/>
</g>
<!-- Node21&#45;&gt;Node22 -->
<g id="edge33" class="edge">
<title>Node21&#45;&gt;Node22</title>
<path fill="none" stroke="midnightblue" d="M791.49,-381.41C748.23,-368.18 679.88,-347.27 641.2,-335.43"/>
<polygon fill="midnightblue" stroke="midnightblue" points="790.33,-385.02 800.92,-384.6 792.38,-378.33 790.33,-385.02"/>
</g>
<!-- Node27 -->
<g id="node27" class="node">
<title>Node27</title>
<g id="a_node27"><a xlink:href="_surface_8cpp.html" target="_top" xlink:title=" ">
<polygon fill="none" stroke="black" points="792.88,-315.5 792.88,-335.5 877.12,-335.5 877.12,-315.5 792.88,-315.5"/>
<text text-anchor="middle" x="835" y="-322" font-family="Helvetica,sans-Serif" font-size="10.00">src/Surface.cpp</text>
</a>
</g>
</g>
<!-- Node21&#45;&gt;Node27 -->
<g id="edge50" class="edge">
<title>Node21&#45;&gt;Node27</title>
<path fill="none" stroke="midnightblue" d="M832.17,-373.86C832.93,-361.17 833.88,-345.24 834.46,-335.48"/>
<polygon fill="midnightblue" stroke="midnightblue" points="828.63,-373.55 831.52,-383.74 835.61,-373.97 828.63,-373.55"/>
</g>
<!-- Node22&#45;&gt;Node10 -->
<g id="edge35" class="edge">
<title>Node22&#45;&gt;Node10</title>
<path fill="none" stroke="midnightblue" d="M570.44,-312.81C564.93,-311.44 559.35,-310.12 554,-309 509.63,-299.68 388.07,-281.84 315.58,-271.48"/>
<polygon fill="midnightblue" stroke="midnightblue" points="569.29,-316.39 579.84,-315.51 571.04,-309.61 569.29,-316.39"/>
</g>
<!-- Node22&#45;&gt;Node11 -->
<g id="edge48" class="edge">
<title>Node22&#45;&gt;Node11</title>
<path fill="none" stroke="midnightblue" d="M571.7,-312.84C565.8,-311.39 559.77,-310.05 554,-309 395.37,-280.09 346.91,-321.07 193,-273 192.65,-272.89 121.78,-233.57 89.13,-215.45"/>
<polygon fill="midnightblue" stroke="midnightblue" points="570.55,-316.41 581.11,-315.52 572.3,-309.63 570.55,-316.41"/>
</g>
<!-- Node22&#45;&gt;Node13 -->
<g id="edge49" class="edge">
<title>Node22&#45;&gt;Node13</title>
<path fill="none" stroke="midnightblue" d="M568.39,-312.78C563.54,-311.5 558.67,-310.21 554,-309 490.99,-292.59 469.74,-303.08 412,-273 377.63,-255.09 368.31,-247.69 346,-216 331.55,-195.48 323.32,-166.51 319.89,-152.19"/>
<polygon fill="midnightblue" stroke="midnightblue" points="567.33,-316.39 577.89,-315.57 569.13,-309.62 567.33,-316.39"/>
</g>
<!-- Node22&#45;&gt;Node14 -->
<g id="edge47" class="edge">
<title>Node22&#45;&gt;Node14</title>
<path fill="none" stroke="midnightblue" d="M583.52,-310.93C558.85,-299.17 523.88,-282.5 502.63,-272.38"/>
<polygon fill="midnightblue" stroke="midnightblue" points="581.85,-314.49 592.39,-315.63 584.87,-308.17 581.85,-314.49"/>
</g>
<!-- Node22&#45;&gt;Node15 -->
<g id="edge34" class="edge">
<title>Node22&#45;&gt;Node15</title>
<path fill="none" stroke="midnightblue" d="M569.27,-312.73C516.91,-298.24 434.72,-275.26 432,-273 413.58,-257.66 404.51,-229.51 400.92,-215.26"/>
<polygon fill="midnightblue" stroke="midnightblue" points="568.07,-316.31 578.64,-315.6 569.93,-309.56 568.07,-316.31"/>
</g>
<!-- Node22&#45;&gt;Node23 -->
<g id="edge36" class="edge">
<title>Node22&#45;&gt;Node23</title>
<path fill="none" stroke="midnightblue" d="M629.69,-308.4C648.11,-292.32 678.38,-267.78 708,-252 739.02,-235.48 777.25,-223.07 804.57,-215.43"/>
<polygon fill="midnightblue" stroke="midnightblue" points="627.8,-305.28 622.65,-314.54 632.45,-310.52 627.8,-305.28"/>
</g>
<!-- Node22&#45;&gt;Node26 -->
<g id="edge45" class="edge">
<title>Node22&#45;&gt;Node26</title>
<path fill="none" stroke="midnightblue" d="M649.11,-312.33C684.98,-300.57 738.46,-283.03 770.62,-272.48"/>
<polygon fill="midnightblue" stroke="midnightblue" points="648.46,-309.19 640.05,-315.63 650.64,-315.84 648.46,-309.19"/>
</g>
<!-- Node23&#45;&gt;Node4 -->
<g id="edge42" class="edge">
<title>Node23&#45;&gt;Node4</title>
<path fill="none" stroke="midnightblue" d="M816.09,-190.04C787.37,-173.09 737.38,-144.93 692,-126 648.38,-107.81 595.98,-92.51 562.11,-83.43"/>
<polygon fill="midnightblue" stroke="midnightblue" points="813.94,-193.42 824.32,-195.53 817.52,-187.41 813.94,-193.42"/>
</g>
<!-- Node23&#45;&gt;Node6 -->
<g id="edge43" class="edge">
<title>Node23&#45;&gt;Node6</title>
<path fill="none" stroke="midnightblue" d="M827.63,-186.82C809.54,-160.99 776.21,-113.37 759.35,-89.29"/>
<polygon fill="midnightblue" stroke="midnightblue" points="825.14,-188.38 833.75,-194.56 830.88,-184.37 825.14,-188.38"/>
</g>
<!-- Node23&#45;&gt;Node7 -->
<g id="edge44" class="edge">
<title>Node23&#45;&gt;Node7</title>
<path fill="none" stroke="midnightblue" d="M893.88,-193.05C924.17,-185.53 962.17,-174.24 994,-159 1034.2,-139.75 1075.78,-107.93 1098.52,-89.32"/>
<polygon fill="midnightblue" stroke="midnightblue" points="893.41,-189.81 884.51,-195.56 895.05,-196.61 893.41,-189.81"/>
</g>
<!-- Node23&#45;&gt;Node8 -->
<g id="edge39" class="edge">
<title>Node23&#45;&gt;Node8</title>
<path fill="none" stroke="midnightblue" d="M796.47,-192.85C752.52,-181.1 685.57,-163.18 645.56,-152.48"/>
<polygon fill="midnightblue" stroke="midnightblue" points="795.28,-196.43 805.85,-195.63 797.09,-189.66 795.28,-196.43"/>
</g>
<!-- Node24 -->
<g id="node24" class="node">
<title>Node24</title>
<g id="a_node24"><a xlink:href="_solid_effect_8h.html" target="_top" xlink:title=" ">
<polygon fill="none" stroke="black" points="852.88,-132.5 852.88,-152.5 985.12,-152.5 985.12,-132.5 852.88,-132.5"/>
<text text-anchor="middle" x="919" y="-139" font-family="Helvetica,sans-Serif" font-size="10.00">include/Effect/SolidEffect.h</text>
</a>
</g>
</g>
<!-- Node23&#45;&gt;Node24 -->
<g id="edge37" class="edge">
<title>Node23&#45;&gt;Node24</title>
<path fill="none" stroke="midnightblue" d="M859.9,-189.14C874.91,-177.54 894.98,-162.05 907.45,-152.42"/>
<polygon fill="midnightblue" stroke="midnightblue" points="858.09,-186.88 852.32,-195.76 862.37,-192.42 858.09,-186.88"/>
</g>
<!-- Node25 -->
<g id="node25" class="node">
<title>Node25</title>
<g id="a_node25"><a xlink:href="_vertex_color_effect_8h.html" target="_top" xlink:title=" ">
<polygon fill="none" stroke="black" points="1116.75,-126.5 1116.75,-158.5 1245.25,-158.5 1245.25,-126.5 1116.75,-126.5"/>
<text text-anchor="start" x="1124.75" y="-145" font-family="Helvetica,sans-Serif" font-size="10.00">include/Effect/VertexColor</text>
<text text-anchor="middle" x="1181" y="-133" font-family="Helvetica,sans-Serif" font-size="10.00">Effect.h</text>
</a>
</g>
</g>
<!-- Node23&#45;&gt;Node25 -->
<g id="edge40" class="edge">
<title>Node23&#45;&gt;Node25</title>
<path fill="none" stroke="midnightblue" d="M896.52,-194.39C957.2,-183.53 1053.41,-166.32 1116.88,-154.97"/>
<polygon fill="midnightblue" stroke="midnightblue" points="896.22,-191.07 886.99,-196.27 897.45,-197.96 896.22,-191.07"/>
</g>
<!-- Node24&#45;&gt;Node6 -->
<g id="edge38" class="edge">
<title>Node24&#45;&gt;Node6</title>
<path fill="none" stroke="midnightblue" d="M886.22,-128.58C857.84,-117.4 816.79,-101.22 786.99,-89.47"/>
<polygon fill="midnightblue" stroke="midnightblue" points="884.84,-132.19 895.43,-132.6 887.41,-125.68 884.84,-132.19"/>
</g>
<!-- Node25&#45;&gt;Node7 -->
<g id="edge41" class="edge">
<title>Node25&#45;&gt;Node7</title>
<path fill="none" stroke="midnightblue" d="M1159.03,-118.85C1149.58,-109.11 1138.79,-97.99 1130.39,-89.33"/>
<polygon fill="midnightblue" stroke="midnightblue" points="1156.1,-120.89 1165.57,-125.63 1161.12,-116.02 1156.1,-120.89"/>
</g>
<!-- Node26&#45;&gt;Node23 -->
<g id="edge46" class="edge">
<title>Node26&#45;&gt;Node23</title>
<path fill="none" stroke="midnightblue" d="M811.03,-244.44C818.43,-234.75 827.37,-223.04 833.34,-215.21"/>
<polygon fill="midnightblue" stroke="midnightblue" points="807.85,-241.83 804.56,-251.91 813.41,-246.08 807.85,-241.83"/>
</g>
<!-- Node28&#45;&gt;Node3 -->
<g id="edge54" class="edge">
<title>Node28&#45;&gt;Node3</title>
<path fill="none" stroke="midnightblue" d="M1051.77,-242.92C1055.69,-233.55 1060.25,-222.64 1063.36,-215.21"/>
<polygon fill="midnightblue" stroke="midnightblue" points="1048.22,-241.33 1047.59,-251.91 1054.68,-244.03 1048.22,-241.33"/>
</g>
<!-- Node28&#45;&gt;Node23 -->
<g id="edge55" class="edge">
<title>Node28&#45;&gt;Node23</title>
<path fill="none" stroke="midnightblue" d="M1000.49,-249.77C962.41,-239.5 907.89,-224.8 873.22,-215.46"/>
<polygon fill="midnightblue" stroke="midnightblue" points="999.2,-253.32 1009.77,-252.54 1001.03,-246.56 999.2,-253.32"/>
</g>
</g>
</svg>
