<?xml version="1.0" encoding="UTF-8" standalone="no"?>
<!DOCTYPE svg PUBLIC "-//W3C//DTD SVG 1.1//EN"
 "http://www.w3.org/Graphics/SVG/1.1/DTD/svg11.dtd">
<!-- Generated by graphviz version 8.1.0 (20230707.0739)
 -->
<!-- Title: test/LinearAlgebra/Matrix3.cpp Pages: 1 -->
<svg width="283pt" height="155pt"
 viewBox="0.00 0.00 283.12 155.00" xmlns="http://www.w3.org/2000/svg" xmlns:xlink="http://www.w3.org/1999/xlink">
<g id="graph0" class="graph" transform="scale(1 1) rotate(0) translate(4 151)">
<title>test/LinearAlgebra/Matrix3.cpp</title>
<!-- Node1 -->
<g id="node1" class="node">
<title>Node1</title>
<g id="a_node1"><a xlink:title=" ">
<polygon fill="#bfbfbf" stroke="black" points="44,-114.5 44,-146.5 138.75,-146.5 138.75,-114.5 44,-114.5"/>
<text text-anchor="start" x="52" y="-133" font-family="Helvetica,sans-Serif" font-size="10.00">test/LinearAlgebra</text>
<text text-anchor="middle" x="91.38" y="-121" font-family="Helvetica,sans-Serif" font-size="10.00">/Matrix3.cpp</text>
</a>
</g>
</g>
<!-- Node2 -->
<g id="node2" class="node">
<title>Node2</title>
<g id="a_node2"><a xlink:title=" ">
<polygon fill="none" stroke="#bfbfbf" points="0,-57.5 0,-77.5 70.75,-77.5 70.75,-57.5 0,-57.5"/>
<text text-anchor="middle" x="35.38" y="-64" font-family="Helvetica,sans-Serif" font-size="10.00">gtest/gtest.h</text>
</a>
</g>
</g>
<!-- Node1&#45;&gt;Node2 -->
<g id="edge1" class="edge">
<title>Node1&#45;&gt;Node2</title>
<path fill="none" stroke="midnightblue" d="M77.82,-114.73C69.67,-105.86 59.29,-94.55 50.82,-85.33"/>
<polygon fill="midnightblue" stroke="midnightblue" points="53.78,-83.28 44.44,-78.28 48.62,-88.02 53.78,-83.28"/>
</g>
<!-- Node3 -->
<g id="node3" class="node">
<title>Node3</title>
<g id="a_node3"><a xlink:href="_matrix3_8h.html" target="_top" xlink:title=" ">
<polygon fill="none" stroke="black" points="89,-57.5 89,-77.5 207.75,-77.5 207.75,-57.5 89,-57.5"/>
<text text-anchor="middle" x="148.38" y="-64" font-family="Helvetica,sans-Serif" font-size="10.00">LinearAlgebra/Matrix3.h</text>
</a>
</g>
</g>
<!-- Node1&#45;&gt;Node3 -->
<g id="edge2" class="edge">
<title>Node1&#45;&gt;Node3</title>
<path fill="none" stroke="midnightblue" d="M105.17,-114.73C113.55,-105.77 124.26,-94.31 132.92,-85.04"/>
<polygon fill="midnightblue" stroke="midnightblue" points="134.9,-87.98 139.17,-78.28 129.78,-83.2 134.9,-87.98"/>
</g>
<!-- Node4 -->
<g id="node4" class="node">
<title>Node4</title>
<g id="a_node4"><a xlink:title=" ">
<polygon fill="none" stroke="#bfbfbf" points="39.5,-0.5 39.5,-20.5 77.25,-20.5 77.25,-0.5 39.5,-0.5"/>
<text text-anchor="middle" x="58.38" y="-7" font-family="Helvetica,sans-Serif" font-size="10.00">array</text>
</a>
</g>
</g>
<!-- Node3&#45;&gt;Node4 -->
<g id="edge3" class="edge">
<title>Node3&#45;&gt;Node4</title>
<path fill="none" stroke="midnightblue" d="M133.91,-57.66C119.96,-49.13 98.58,-36.07 82.13,-26.01"/>
<polygon fill="midnightblue" stroke="midnightblue" points="84.46,-22.73 74.1,-20.5 80.81,-28.7 84.46,-22.73"/>
</g>
<!-- Node5 -->
<g id="node5" class="node">
<title>Node5</title>
<g id="a_node5"><a xlink:title=" ">
<polygon fill="none" stroke="#bfbfbf" points="94.88,-0.5 94.88,-20.5 137.88,-20.5 137.88,-0.5 94.88,-0.5"/>
<text text-anchor="middle" x="116.38" y="-7" font-family="Helvetica,sans-Serif" font-size="10.00">cmath</text>
</a>
</g>
</g>
<!-- Node3&#45;&gt;Node5 -->
<g id="edge4" class="edge">
<title>Node3&#45;&gt;Node5</title>
<path fill="none" stroke="midnightblue" d="M143.38,-57.91C138.99,-50.36 132.46,-39.14 126.92,-29.62"/>
<polygon fill="midnightblue" stroke="midnightblue" points="129.5,-28.1 121.45,-21.21 123.45,-31.62 129.5,-28.1"/>
</g>
<!-- Node6 -->
<g id="node6" class="node">
<title>Node6</title>
<g id="a_node6"><a xlink:title=" ">
<polygon fill="none" stroke="#bfbfbf" points="155.62,-0.5 155.62,-20.5 203.12,-20.5 203.12,-0.5 155.62,-0.5"/>
<text text-anchor="middle" x="179.38" y="-7" font-family="Helvetica,sans-Serif" font-size="10.00">cstddef</text>
</a>
</g>
</g>
<!-- Node3&#45;&gt;Node6 -->
<g id="edge5" class="edge">
<title>Node3&#45;&gt;Node6</title>
<path fill="none" stroke="midnightblue" d="M153.22,-57.91C157.47,-50.36 163.8,-39.14 169.16,-29.62"/>
<polygon fill="midnightblue" stroke="midnightblue" points="172.6,-31.65 174.46,-21.21 166.5,-28.21 172.6,-31.65"/>
</g>
<!-- Node7 -->
<g id="node7" class="node">
<title>Node7</title>
<g id="a_node7"><a xlink:title=" ">
<polygon fill="none" stroke="#bfbfbf" points="221.62,-0.5 221.62,-20.5 275.12,-20.5 275.12,-0.5 221.62,-0.5"/>
<text text-anchor="middle" x="248.38" y="-7" font-family="Helvetica,sans-Serif" font-size="10.00">iostream</text>
</a>
</g>
</g>
<!-- Node3&#45;&gt;Node7 -->
<g id="edge6" class="edge">
<title>Node3&#45;&gt;Node7</title>
<path fill="none" stroke="midnightblue" d="M164.44,-57.66C180.09,-49.05 204.15,-35.83 222.5,-25.73"/>
<polygon fill="midnightblue" stroke="midnightblue" points="223.94,-28.38 231.02,-20.5 220.57,-22.25 223.94,-28.38"/>
</g>
</g>
</svg>
