<?xml version="1.0" encoding="UTF-8" standalone="no"?>
<!DOCTYPE svg PUBLIC "-//W3C//DTD SVG 1.1//EN"
 "http://www.w3.org/Graphics/SVG/1.1/DTD/svg11.dtd">
<!-- Generated by graphviz version 8.1.0 (20230707.0739)
 -->
<!-- Title: include/LinearAlgebra/Matrix2.h Pages: 1 -->
<svg width="1989pt" height="419pt"
 viewBox="0.00 0.00 1989.00 419.00" xmlns="http://www.w3.org/2000/svg" xmlns:xlink="http://www.w3.org/1999/xlink">
<g id="graph0" class="graph" transform="scale(1 1) rotate(0) translate(4 415)">
<title>include/LinearAlgebra/Matrix2.h</title>
<!-- Node1 -->
<g id="node1" class="node">
<title>Node1</title>
<g id="a_node1"><a xlink:title=" ">
<polygon fill="#bfbfbf" stroke="black" points="184.75,-378.5 184.75,-410.5 293.75,-410.5 293.75,-378.5 184.75,-378.5"/>
<text text-anchor="start" x="192.75" y="-397" font-family="Helvetica,sans-Serif" font-size="10.00">include/LinearAlgebra</text>
<text text-anchor="middle" x="239.25" y="-385" font-family="Helvetica,sans-Serif" font-size="10.00">/Matrix2.h</text>
</a>
</g>
</g>
<!-- Node2 -->
<g id="node2" class="node">
<title>Node2</title>
<g id="a_node2"><a xlink:href="_vector2_8h.html" target="_top" xlink:title=" ">
<polygon fill="none" stroke="black" points="184.75,-309.5 184.75,-341.5 293.75,-341.5 293.75,-309.5 184.75,-309.5"/>
<text text-anchor="start" x="192.75" y="-328" font-family="Helvetica,sans-Serif" font-size="10.00">include/LinearAlgebra</text>
<text text-anchor="middle" x="239.25" y="-316" font-family="Helvetica,sans-Serif" font-size="10.00">/Vector2.h</text>
</a>
</g>
</g>
<!-- Node1&#45;&gt;Node2 -->
<g id="edge1" class="edge">
<title>Node1&#45;&gt;Node2</title>
<path fill="none" stroke="midnightblue" d="M239.25,-367.89C239.25,-358.91 239.25,-349.13 239.25,-341.33"/>
<polygon fill="midnightblue" stroke="midnightblue" points="235.75,-367.63 239.25,-377.63 242.75,-367.63 235.75,-367.63"/>
</g>
<!-- Node3 -->
<g id="node3" class="node">
<title>Node3</title>
<g id="a_node3"><a xlink:href="_graphics_8h.html" target="_top" xlink:title=" ">
<polygon fill="none" stroke="black" points="238.75,-183.5 238.75,-203.5 335.75,-203.5 335.75,-183.5 238.75,-183.5"/>
<text text-anchor="middle" x="287.25" y="-190" font-family="Helvetica,sans-Serif" font-size="10.00">include/Graphics.h</text>
</a>
</g>
</g>
<!-- Node2&#45;&gt;Node3 -->
<g id="edge2" class="edge">
<title>Node2&#45;&gt;Node3</title>
<path fill="none" stroke="midnightblue" d="M248.56,-299.29C259.4,-269.93 276.74,-222.96 283.95,-203.45"/>
<polygon fill="midnightblue" stroke="midnightblue" points="244.94,-297.99 244.76,-308.59 251.5,-300.42 244.94,-297.99"/>
</g>
<!-- Node9 -->
<g id="node9" class="node">
<title>Node9</title>
<g id="a_node9"><a xlink:href="_graphics_8cpp.html" target="_top" xlink:title=" ">
<polygon fill="none" stroke="black" points="125.12,-63.5 125.12,-83.5 215.38,-83.5 215.38,-63.5 125.12,-63.5"/>
<text text-anchor="middle" x="170.25" y="-70" font-family="Helvetica,sans-Serif" font-size="10.00">src/Graphics.cpp</text>
</a>
</g>
</g>
<!-- Node2&#45;&gt;Node9 -->
<g id="edge64" class="edge">
<title>Node2&#45;&gt;Node9</title>
<path fill="none" stroke="midnightblue" d="M232.24,-299.1C217.16,-244.47 182.24,-117.95 172.7,-83.37"/>
<polygon fill="midnightblue" stroke="midnightblue" points="229.11,-299.9 235.14,-308.61 235.85,-298.04 229.11,-299.9"/>
</g>
<!-- Node22 -->
<g id="node22" class="node">
<title>Node22</title>
<g id="a_node22"><a xlink:href="_mouse_8h.html" target="_top" xlink:title=" ">
<polygon fill="none" stroke="black" points="66.62,-246.5 66.62,-266.5 153.88,-266.5 153.88,-246.5 66.62,-246.5"/>
<text text-anchor="middle" x="110.25" y="-253" font-family="Helvetica,sans-Serif" font-size="10.00">include/Mouse.h</text>
</a>
</g>
</g>
<!-- Node2&#45;&gt;Node22 -->
<g id="edge47" class="edge">
<title>Node2&#45;&gt;Node22</title>
<path fill="none" stroke="midnightblue" d="M200.91,-304.59C176.46,-291.89 145.98,-276.06 127.33,-266.37"/>
<polygon fill="midnightblue" stroke="midnightblue" points="199.13,-308.13 209.62,-309.63 202.36,-301.92 199.13,-308.13"/>
</g>
<!-- Node23 -->
<g id="node23" class="node">
<title>Node23</title>
<g id="a_node23"><a xlink:href="_mouse_8cpp.html" target="_top" xlink:title=" ">
<polygon fill="none" stroke="black" points="0,-183.5 0,-203.5 80.5,-203.5 80.5,-183.5 0,-183.5"/>
<text text-anchor="middle" x="40.25" y="-190" font-family="Helvetica,sans-Serif" font-size="10.00">src/Mouse.cpp</text>
</a>
</g>
</g>
<!-- Node2&#45;&gt;Node23 -->
<g id="edge65" class="edge">
<title>Node2&#45;&gt;Node23</title>
<path fill="none" stroke="midnightblue" d="M174.28,-322.3C135.11,-317.49 87.15,-304.83 57.25,-273 39.01,-253.59 38.53,-219.44 39.45,-203.36"/>
<polygon fill="midnightblue" stroke="midnightblue" points="173.76,-325.87 184.08,-323.46 174.51,-318.91 173.76,-325.87"/>
</g>
<!-- Node24 -->
<g id="node24" class="node">
<title>Node24</title>
<g id="a_node24"><a xlink:href="_tex_vertex_8h.html" target="_top" xlink:title=" ">
<polygon fill="none" stroke="black" points="395.12,-246.5 395.12,-266.5 497.38,-266.5 497.38,-246.5 395.12,-246.5"/>
<text text-anchor="middle" x="446.25" y="-253" font-family="Helvetica,sans-Serif" font-size="10.00">include/TexVertex.h</text>
</a>
</g>
</g>
<!-- Node2&#45;&gt;Node24 -->
<g id="edge51" class="edge">
<title>Node2&#45;&gt;Node24</title>
<path fill="none" stroke="midnightblue" d="M295.83,-306.19C335.72,-293.28 387.39,-276.55 418.62,-266.44"/>
<polygon fill="midnightblue" stroke="midnightblue" points="294.88,-303.14 286.45,-309.55 297.04,-309.8 294.88,-303.14"/>
</g>
<!-- Node29 -->
<g id="node29" class="node">
<title>Node29</title>
<g id="a_node29"><a xlink:href="_vector2_8cpp.html" target="_top" xlink:title=" ">
<polygon fill="none" stroke="black" points="515.88,-240.5 515.88,-272.5 610.62,-272.5 610.62,-240.5 515.88,-240.5"/>
<text text-anchor="start" x="523.88" y="-259" font-family="Helvetica,sans-Serif" font-size="10.00">test/LinearAlgebra</text>
<text text-anchor="middle" x="563.25" y="-247" font-family="Helvetica,sans-Serif" font-size="10.00">/Vector2.cpp</text>
</a>
</g>
</g>
<!-- Node2&#45;&gt;Node29 -->
<g id="edge66" class="edge">
<title>Node2&#45;&gt;Node29</title>
<path fill="none" stroke="midnightblue" d="M304.21,-313.38C358.46,-303.75 437.7,-288.91 506.25,-273 509.45,-272.26 512.73,-271.46 516.04,-270.63"/>
<polygon fill="midnightblue" stroke="midnightblue" points="303.95,-310.04 294.71,-315.23 305.16,-316.94 303.95,-310.04"/>
</g>
<!-- Node4 -->
<g id="node4" class="node">
<title>Node4</title>
<g id="a_node4"><a xlink:href="_engine_8h.html" target="_top" xlink:title=" ">
<polygon fill="none" stroke="black" points="271.25,-63.5 271.25,-83.5 359.25,-83.5 359.25,-63.5 271.25,-63.5"/>
<text text-anchor="middle" x="315.25" y="-70" font-family="Helvetica,sans-Serif" font-size="10.00">include/Engine.h</text>
</a>
</g>
</g>
<!-- Node3&#45;&gt;Node4 -->
<g id="edge3" class="edge">
<title>Node3&#45;&gt;Node4</title>
<path fill="none" stroke="midnightblue" d="M291.82,-173.26C297.95,-147.41 308.6,-102.53 313.12,-83.47"/>
<polygon fill="midnightblue" stroke="midnightblue" points="288.26,-172.09 289.35,-182.63 295.07,-173.71 288.26,-172.09"/>
</g>
<!-- Node7 -->
<g id="node7" class="node">
<title>Node7</title>
<g id="a_node7"><a xlink:href="_main_window_8cpp.html" target="_top" xlink:title=" ">
<polygon fill="none" stroke="black" points="189.88,-0.5 189.88,-20.5 296.62,-20.5 296.62,-0.5 189.88,-0.5"/>
<text text-anchor="middle" x="243.25" y="-7" font-family="Helvetica,sans-Serif" font-size="10.00">src/MainWindow.cpp</text>
</a>
</g>
</g>
<!-- Node3&#45;&gt;Node7 -->
<g id="edge46" class="edge">
<title>Node3&#45;&gt;Node7</title>
<path fill="none" stroke="midnightblue" d="M282.54,-173.24C277.51,-152.64 269.3,-119.01 262.25,-90 256.09,-64.66 248.85,-34.7 245.35,-20.21"/>
<polygon fill="midnightblue" stroke="midnightblue" points="279.33,-173.84 285.1,-182.73 286.13,-172.18 279.33,-173.84"/>
</g>
<!-- Node8 -->
<g id="node8" class="node">
<title>Node8</title>
<g id="a_node8"><a xlink:href="_main_window_8h.html" target="_top" xlink:title=" ">
<polygon fill="none" stroke="black" points="40.5,-126.5 40.5,-146.5 154,-146.5 154,-126.5 40.5,-126.5"/>
<text text-anchor="middle" x="97.25" y="-133" font-family="Helvetica,sans-Serif" font-size="10.00">include/MainWindow.h</text>
</a>
</g>
</g>
<!-- Node3&#45;&gt;Node8 -->
<g id="edge7" class="edge">
<title>Node3&#45;&gt;Node8</title>
<path fill="none" stroke="midnightblue" d="M245.82,-180.51C210.39,-170.25 160.2,-155.72 128.19,-146.46"/>
<polygon fill="midnightblue" stroke="midnightblue" points="244.72,-184.12 255.3,-183.54 246.67,-177.4 244.72,-184.12"/>
</g>
<!-- Node3&#45;&gt;Node9 -->
<g id="edge45" class="edge">
<title>Node3&#45;&gt;Node9</title>
<path fill="none" stroke="midnightblue" d="M270.86,-175.97C245.78,-150.68 198.72,-103.22 179.15,-83.47"/>
<polygon fill="midnightblue" stroke="midnightblue" points="267.93,-177.99 277.46,-182.63 272.9,-173.07 267.93,-177.99"/>
</g>
<!-- Node10 -->
<g id="node10" class="node">
<title>Node10</title>
<g id="a_node10"><a xlink:href="_pube_screen_transformer_8h.html" target="_top" xlink:title=" ">
<polygon fill="none" stroke="black" points="1024.12,-126.5 1024.12,-146.5 1186.38,-146.5 1186.38,-126.5 1024.12,-126.5"/>
<text text-anchor="middle" x="1105.25" y="-133" font-family="Helvetica,sans-Serif" font-size="10.00">include/PubeScreenTransformer.h</text>
</a>
</g>
</g>
<!-- Node3&#45;&gt;Node10 -->
<g id="edge12" class="edge">
<title>Node3&#45;&gt;Node10</title>
<path fill="none" stroke="midnightblue" d="M346.11,-188.9C466.03,-181.51 747.24,-163.9 983.25,-147 996.49,-146.05 1010.54,-145 1024.21,-143.95"/>
<polygon fill="midnightblue" stroke="midnightblue" points="346.13,-185.45 336.36,-189.56 346.56,-192.44 346.13,-185.45"/>
</g>
<!-- Node21 -->
<g id="node21" class="node">
<title>Node21</title>
<g id="a_node21"><a xlink:href="_scene_8h.html" target="_top" xlink:title=" ">
<polygon fill="none" stroke="black" points="888.38,-126.5 888.38,-146.5 974.12,-146.5 974.12,-126.5 888.38,-126.5"/>
<text text-anchor="middle" x="931.25" y="-133" font-family="Helvetica,sans-Serif" font-size="10.00">include/Scene.h</text>
</a>
</g>
</g>
<!-- Node3&#45;&gt;Node21 -->
<g id="edge33" class="edge">
<title>Node3&#45;&gt;Node21</title>
<path fill="none" stroke="midnightblue" d="M346.44,-187.44C474.96,-176.47 776.97,-150.68 888.71,-141.13"/>
<polygon fill="midnightblue" stroke="midnightblue" points="346.32,-184.03 336.65,-188.37 346.92,-191 346.32,-184.03"/>
</g>
<!-- Node5 -->
<g id="node5" class="node">
<title>Node5</title>
<g id="a_node5"><a xlink:href="_engine_8cpp.html" target="_top" xlink:title=" ">
<polygon fill="none" stroke="black" points="977.62,-0.5 977.62,-20.5 1058.88,-20.5 1058.88,-0.5 977.62,-0.5"/>
<text text-anchor="middle" x="1018.25" y="-7" font-family="Helvetica,sans-Serif" font-size="10.00">src/Engine.cpp</text>
</a>
</g>
</g>
<!-- Node4&#45;&gt;Node5 -->
<g id="edge4" class="edge">
<title>Node4&#45;&gt;Node5</title>
<path fill="none" stroke="midnightblue" d="M351.88,-60.68C357.32,-59.25 362.9,-57.96 368.25,-57 596.24,-16.17 875.33,-11.55 977.94,-11.33"/>
<polygon fill="midnightblue" stroke="midnightblue" points="351.35,-57.48 342.67,-63.56 353.25,-64.22 351.35,-57.48"/>
</g>
<!-- Node6 -->
<g id="node6" class="node">
<title>Node6</title>
<g id="a_node6"><a xlink:href="_main_8cpp.html" target="_top" xlink:title=" ">
<polygon fill="none" stroke="black" points="42.12,-0.5 42.12,-20.5 114.38,-20.5 114.38,-0.5 42.12,-0.5"/>
<text text-anchor="middle" x="78.25" y="-7" font-family="Helvetica,sans-Serif" font-size="10.00">src/Main.cpp</text>
</a>
</g>
</g>
<!-- Node4&#45;&gt;Node6 -->
<g id="edge5" class="edge">
<title>Node4&#45;&gt;Node6</title>
<path fill="none" stroke="midnightblue" d="M270.03,-60.86C224.31,-49.09 154.64,-31.16 113.06,-20.46"/>
<polygon fill="midnightblue" stroke="midnightblue" points="268.98,-64.46 279.53,-63.56 270.72,-57.68 268.98,-64.46"/>
</g>
<!-- Node4&#45;&gt;Node7 -->
<g id="edge6" class="edge">
<title>Node4&#45;&gt;Node7</title>
<path fill="none" stroke="midnightblue" d="M296.67,-56.76C282.95,-45.13 264.77,-29.73 253.55,-20.22"/>
<polygon fill="midnightblue" stroke="midnightblue" points="294.04,-59.97 303.93,-63.76 298.57,-54.63 294.04,-59.97"/>
</g>
<!-- Node8&#45;&gt;Node5 -->
<g id="edge8" class="edge">
<title>Node8&#45;&gt;Node5</title>
<path fill="none" stroke="midnightblue" d="M95.97,-115.86C95.97,-97.58 99.24,-71.1 116.25,-57 149.83,-29.18 806.41,-15.35 977.68,-12.2"/>
<polygon fill="midnightblue" stroke="midnightblue" points="92.5,-115.84 96.35,-125.71 99.5,-115.6 92.5,-115.84"/>
</g>
<!-- Node8&#45;&gt;Node6 -->
<g id="edge10" class="edge">
<title>Node8&#45;&gt;Node6</title>
<path fill="none" stroke="midnightblue" d="M72.13,-120.47C61.77,-112.78 50.89,-102.42 45.25,-90 39.19,-76.64 40.72,-70.95 45.25,-57 49.95,-42.52 61.17,-28.79 69.23,-20.28"/>
<polygon fill="midnightblue" stroke="midnightblue" points="69.73,-123.75 79.96,-126.51 73.69,-117.97 69.73,-123.75"/>
</g>
<!-- Node8&#45;&gt;Node7 -->
<g id="edge11" class="edge">
<title>Node8&#45;&gt;Node7</title>
<path fill="none" stroke="midnightblue" d="M86.77,-117.25C78.42,-100.05 70.12,-74.38 83.25,-57 96.26,-39.77 148.64,-27.15 189.97,-19.63"/>
<polygon fill="midnightblue" stroke="midnightblue" points="84.01,-118.52 91.78,-125.72 90.19,-115.25 84.01,-118.52"/>
</g>
<!-- Node8&#45;&gt;Node9 -->
<g id="edge9" class="edge">
<title>Node8&#45;&gt;Node9</title>
<path fill="none" stroke="midnightblue" d="M116.08,-119.76C130,-108.13 148.43,-92.73 159.81,-83.22"/>
<polygon fill="midnightblue" stroke="midnightblue" points="114.14,-117.66 108.71,-126.76 118.63,-123.03 114.14,-117.66"/>
</g>
<!-- Node11 -->
<g id="node11" class="node">
<title>Node11</title>
<g id="a_node11"><a xlink:href="_con_hex_scene_8h.html" target="_top" xlink:title=" ">
<polygon fill="none" stroke="black" points="853.12,-63.5 853.12,-83.5 1009.38,-83.5 1009.38,-63.5 853.12,-63.5"/>
<text text-anchor="middle" x="931.25" y="-70" font-family="Helvetica,sans-Serif" font-size="10.00">include/Scenes/ConHexScene.h</text>
</a>
</g>
</g>
<!-- Node10&#45;&gt;Node11 -->
<g id="edge13" class="edge">
<title>Node10&#45;&gt;Node11</title>
<path fill="none" stroke="midnightblue" d="M1069.66,-123.02C1036.12,-111.27 986.69,-93.93 956.87,-83.48"/>
<polygon fill="midnightblue" stroke="midnightblue" points="1068.35,-126.62 1078.95,-126.63 1070.67,-120.02 1068.35,-126.62"/>
</g>
<!-- Node12 -->
<g id="node12" class="node">
<title>Node12</title>
<g id="a_node12"><a xlink:href="_con_hex_wire_scene_8h.html" target="_top" xlink:title=" ">
<polygon fill="none" stroke="black" points="695,-57.5 695,-89.5 835.5,-89.5 835.5,-57.5 695,-57.5"/>
<text text-anchor="start" x="703" y="-76" font-family="Helvetica,sans-Serif" font-size="10.00">include/Scenes/ConHexWire</text>
<text text-anchor="middle" x="765.25" y="-64" font-family="Helvetica,sans-Serif" font-size="10.00">Scene.h</text>
</a>
</g>
</g>
<!-- Node10&#45;&gt;Node12 -->
<g id="edge15" class="edge">
<title>Node10&#45;&gt;Node12</title>
<path fill="none" stroke="midnightblue" d="M1041.13,-124.71C988.26,-115.72 911.31,-102.42 844.25,-90 841.36,-89.47 838.42,-88.91 835.45,-88.35"/>
<polygon fill="midnightblue" stroke="midnightblue" points="1040.26,-128.28 1050.7,-126.51 1041.43,-121.38 1040.26,-128.28"/>
</g>
<!-- Node13 -->
<g id="node13" class="node">
<title>Node13</title>
<g id="a_node13"><a xlink:href="_cube_order_scene_8h.html" target="_top" xlink:title=" ">
<polygon fill="none" stroke="black" points="1545.12,-57.5 1545.12,-89.5 1677.38,-89.5 1677.38,-57.5 1545.12,-57.5"/>
<text text-anchor="start" x="1553.12" y="-76" font-family="Helvetica,sans-Serif" font-size="10.00">include/Scenes/CubeOrder</text>
<text text-anchor="middle" x="1611.25" y="-64" font-family="Helvetica,sans-Serif" font-size="10.00">Scene.h</text>
</a>
</g>
</g>
<!-- Node10&#45;&gt;Node13 -->
<g id="edge17" class="edge">
<title>Node10&#45;&gt;Node13</title>
<path fill="none" stroke="midnightblue" d="M1197.14,-128.44C1284.64,-121.1 1419.86,-108.13 1536.25,-90 1539.27,-89.53 1542.36,-89.02 1545.47,-88.48"/>
<polygon fill="midnightblue" stroke="midnightblue" points="1196.86,-125.04 1187.19,-129.35 1197.44,-132.01 1196.86,-125.04"/>
</g>
<!-- Node14 -->
<g id="node14" class="node">
<title>Node14</title>
<g id="a_node14"><a xlink:href="_cube_skinned_scene_8h.html" target="_top" xlink:title=" ">
<polygon fill="none" stroke="black" points="533.5,-57.5 533.5,-89.5 677,-89.5 677,-57.5 533.5,-57.5"/>
<text text-anchor="start" x="541.5" y="-76" font-family="Helvetica,sans-Serif" font-size="10.00">include/Scenes/CubeSkinned</text>
<text text-anchor="middle" x="605.25" y="-64" font-family="Helvetica,sans-Serif" font-size="10.00">Scene.h</text>
</a>
</g>
</g>
<!-- Node10&#45;&gt;Node14 -->
<g id="edge19" class="edge">
<title>Node10&#45;&gt;Node14</title>
<path fill="none" stroke="midnightblue" d="M1013.36,-127.68C928.29,-119.92 798.38,-106.79 686.25,-90 683.13,-89.53 679.96,-89.03 676.75,-88.51"/>
<polygon fill="midnightblue" stroke="midnightblue" points="1013.01,-131.25 1023.28,-128.67 1013.64,-124.28 1013.01,-131.25"/>
</g>
<!-- Node15 -->
<g id="node15" class="node">
<title>Node15</title>
<g id="a_node15"><a xlink:href="_folded_cube_scene_8h.html" target="_top" xlink:title=" ">
<polygon fill="none" stroke="black" points="1843.5,-57.5 1843.5,-89.5 1981,-89.5 1981,-57.5 1843.5,-57.5"/>
<text text-anchor="start" x="1851.5" y="-76" font-family="Helvetica,sans-Serif" font-size="10.00">include/Scenes/FoldedCube</text>
<text text-anchor="middle" x="1912.25" y="-64" font-family="Helvetica,sans-Serif" font-size="10.00">Scene.h</text>
</a>
</g>
</g>
<!-- Node10&#45;&gt;Node15 -->
<g id="edge21" class="edge">
<title>Node10&#45;&gt;Node15</title>
<path fill="none" stroke="midnightblue" d="M1197.19,-133.7C1335.81,-130.1 1606.37,-119.62 1834.25,-90 1837.4,-89.59 1840.61,-89.13 1843.85,-88.63"/>
<polygon fill="midnightblue" stroke="midnightblue" points="1197.13,-130.23 1187.22,-133.98 1197.31,-137.23 1197.13,-130.23"/>
</g>
<!-- Node16 -->
<g id="node16" class="node">
<title>Node16</title>
<g id="a_node16"><a xlink:href="_folded_cube_wrap_scene_8h.html" target="_top" xlink:title=" ">
<polygon fill="none" stroke="black" points="377.5,-57.5 377.5,-89.5 515,-89.5 515,-57.5 377.5,-57.5"/>
<text text-anchor="start" x="385.5" y="-76" font-family="Helvetica,sans-Serif" font-size="10.00">include/Scenes/FoldedCube</text>
<text text-anchor="middle" x="446.25" y="-64" font-family="Helvetica,sans-Serif" font-size="10.00">WrapScene.h</text>
</a>
</g>
</g>
<!-- Node10&#45;&gt;Node16 -->
<g id="edge23" class="edge">
<title>Node10&#45;&gt;Node16</title>
<path fill="none" stroke="midnightblue" d="M1013.87,-128.38C851.02,-115.68 527.25,-90.41 524.25,-90 521.1,-89.57 517.89,-89.08 514.66,-88.57"/>
<polygon fill="midnightblue" stroke="midnightblue" points="1013.12,-131.91 1023.36,-129.2 1013.66,-124.93 1013.12,-131.91"/>
</g>
<!-- Node17 -->
<g id="node17" class="node">
<title>Node17</title>
<g id="a_node17"><a xlink:href="_solid_cube_scene_8h.html" target="_top" xlink:title=" ">
<polygon fill="none" stroke="black" points="1695.25,-57.5 1695.25,-89.5 1825.25,-89.5 1825.25,-57.5 1695.25,-57.5"/>
<text text-anchor="start" x="1703.25" y="-76" font-family="Helvetica,sans-Serif" font-size="10.00">include/Scenes/SolidCube</text>
<text text-anchor="middle" x="1760.25" y="-64" font-family="Helvetica,sans-Serif" font-size="10.00">Scene.h</text>
</a>
</g>
</g>
<!-- Node10&#45;&gt;Node17 -->
<g id="edge25" class="edge">
<title>Node10&#45;&gt;Node17</title>
<path fill="none" stroke="midnightblue" d="M1196.8,-131.96C1311.61,-126.7 1514.27,-114.64 1686.25,-90 1689.24,-89.57 1692.29,-89.1 1695.36,-88.58"/>
<polygon fill="midnightblue" stroke="midnightblue" points="1196.8,-128.51 1186.97,-132.45 1197.11,-135.5 1196.8,-128.51"/>
</g>
<!-- Node18 -->
<g id="node18" class="node">
<title>Node18</title>
<g id="a_node18"><a xlink:href="_tex_cube_scene_8h.html" target="_top" xlink:title=" ">
<polygon fill="none" stroke="black" points="1201.25,-63.5 1201.25,-83.5 1361.25,-83.5 1361.25,-63.5 1201.25,-63.5"/>
<text text-anchor="middle" x="1281.25" y="-70" font-family="Helvetica,sans-Serif" font-size="10.00">include/Scenes/TexCubeScene.h</text>
</a>
</g>
</g>
<!-- Node10&#45;&gt;Node18 -->
<g id="edge27" class="edge">
<title>Node10&#45;&gt;Node18</title>
<path fill="none" stroke="midnightblue" d="M1140.81,-123.18C1174.74,-111.42 1225.05,-93.98 1255.34,-83.48"/>
<polygon fill="midnightblue" stroke="midnightblue" points="1140.14,-120.05 1131.84,-126.63 1142.44,-126.66 1140.14,-120.05"/>
</g>
<!-- Node19 -->
<g id="node19" class="node">
<title>Node19</title>
<g id="a_node19"><a xlink:href="_tex_wrap_cube_scene_8h.html" target="_top" xlink:title=" ">
<polygon fill="none" stroke="black" points="1379.62,-57.5 1379.62,-89.5 1526.88,-89.5 1526.88,-57.5 1379.62,-57.5"/>
<text text-anchor="start" x="1387.62" y="-76" font-family="Helvetica,sans-Serif" font-size="10.00">include/Scenes/TexWrapCube</text>
<text text-anchor="middle" x="1453.25" y="-64" font-family="Helvetica,sans-Serif" font-size="10.00">Scene.h</text>
</a>
</g>
</g>
<!-- Node10&#45;&gt;Node19 -->
<g id="edge29" class="edge">
<title>Node10&#45;&gt;Node19</title>
<path fill="none" stroke="midnightblue" d="M1169.57,-124.73C1223.26,-115.67 1301.79,-102.27 1370.25,-90 1373.42,-89.43 1376.67,-88.85 1379.94,-88.25"/>
<polygon fill="midnightblue" stroke="midnightblue" points="1169.12,-121.42 1159.84,-126.53 1170.28,-128.32 1169.12,-121.42"/>
</g>
<!-- Node20 -->
<g id="node20" class="node">
<title>Node20</title>
<g id="a_node20"><a xlink:href="_x_mutual_scene_8h.html" target="_top" xlink:title=" ">
<polygon fill="none" stroke="black" points="1027.12,-63.5 1027.12,-83.5 1183.38,-83.5 1183.38,-63.5 1027.12,-63.5"/>
<text text-anchor="middle" x="1105.25" y="-70" font-family="Helvetica,sans-Serif" font-size="10.00">include/Scenes/XMutualScene.h</text>
</a>
</g>
</g>
<!-- Node10&#45;&gt;Node20 -->
<g id="edge31" class="edge">
<title>Node10&#45;&gt;Node20</title>
<path fill="none" stroke="midnightblue" d="M1105.25,-115.99C1105.25,-104.97 1105.25,-91.73 1105.25,-83.22"/>
<polygon fill="midnightblue" stroke="midnightblue" points="1101.75,-115.76 1105.25,-125.76 1108.75,-115.76 1101.75,-115.76"/>
</g>
<!-- Node11&#45;&gt;Node5 -->
<g id="edge14" class="edge">
<title>Node11&#45;&gt;Node5</title>
<path fill="none" stroke="midnightblue" d="M952.7,-57.46C969.28,-45.84 991.67,-30.14 1005.53,-20.42"/>
<polygon fill="midnightblue" stroke="midnightblue" points="950.89,-55.15 944.71,-63.76 954.91,-60.88 950.89,-55.15"/>
</g>
<!-- Node12&#45;&gt;Node5 -->
<g id="edge16" class="edge">
<title>Node12&#45;&gt;Node5</title>
<path fill="none" stroke="midnightblue" d="M837.56,-55.06C884.49,-43.75 943.69,-29.48 981.27,-20.42"/>
<polygon fill="midnightblue" stroke="midnightblue" points="837.04,-51.83 828.14,-57.58 838.68,-58.64 837.04,-51.83"/>
</g>
<!-- Node13&#45;&gt;Node5 -->
<g id="edge18" class="edge">
<title>Node13&#45;&gt;Node5</title>
<path fill="none" stroke="midnightblue" d="M1534.82,-56.91C1351.32,-30.55 1144.58,-17.93 1058.74,-13.45"/>
<polygon fill="midnightblue" stroke="midnightblue" points="1534.08,-60.48 1544.48,-58.46 1535.08,-53.55 1534.08,-60.48"/>
</g>
<!-- Node14&#45;&gt;Node5 -->
<g id="edge20" class="edge">
<title>Node14&#45;&gt;Node5</title>
<path fill="none" stroke="midnightblue" d="M687.51,-56.85C798.72,-38.83 917.1,-23.77 977.77,-16.35"/>
<polygon fill="midnightblue" stroke="midnightblue" points="687.07,-53.54 677.77,-58.6 688.2,-60.45 687.07,-53.54"/>
</g>
<!-- Node15&#45;&gt;Node5 -->
<g id="edge22" class="edge">
<title>Node15&#45;&gt;Node5</title>
<path fill="none" stroke="midnightblue" d="M1833.09,-56.99C1529.89,-19.38 1176.67,-12.9 1058.76,-11.75"/>
<polygon fill="midnightblue" stroke="midnightblue" points="1832.5,-60.57 1842.85,-58.34 1833.37,-53.63 1832.5,-60.57"/>
</g>
<!-- Node16&#45;&gt;Node5 -->
<g id="edge24" class="edge">
<title>Node16&#45;&gt;Node5</title>
<path fill="none" stroke="midnightblue" d="M525.33,-56.95C699.76,-32.16 894.85,-18.8 977.74,-13.8"/>
<polygon fill="midnightblue" stroke="midnightblue" points="525.06,-53.6 515.66,-58.49 526.06,-60.53 525.06,-53.6"/>
</g>
<!-- Node17&#45;&gt;Node5 -->
<g id="edge26" class="edge">
<title>Node17&#45;&gt;Node5</title>
<path fill="none" stroke="midnightblue" d="M1684.55,-56.9C1441.55,-24.08 1161.61,-14.77 1058.73,-12.31"/>
<polygon fill="midnightblue" stroke="midnightblue" points="1683.98,-60.49 1694.37,-58.38 1684.93,-53.56 1683.98,-60.49"/>
</g>
<!-- Node18&#45;&gt;Node5 -->
<g id="edge28" class="edge">
<title>Node18&#45;&gt;Node5</title>
<path fill="none" stroke="midnightblue" d="M1232.03,-61.08C1181.31,-49.32 1103.31,-31.23 1056.88,-20.46"/>
<polygon fill="midnightblue" stroke="midnightblue" points="1231.19,-64.71 1241.73,-63.56 1232.78,-57.9 1231.19,-64.71"/>
</g>
<!-- Node19&#45;&gt;Node5 -->
<g id="edge30" class="edge">
<title>Node19&#45;&gt;Node5</title>
<path fill="none" stroke="midnightblue" d="M1369.2,-56.89C1250.04,-38.33 1122.41,-23.2 1058.74,-15.99"/>
<polygon fill="midnightblue" stroke="midnightblue" points="1368.55,-60.49 1378.97,-58.58 1369.63,-53.58 1368.55,-60.49"/>
</g>
<!-- Node20&#45;&gt;Node5 -->
<g id="edge32" class="edge">
<title>Node20&#45;&gt;Node5</title>
<path fill="none" stroke="midnightblue" d="M1083.8,-57.46C1067.22,-45.84 1044.83,-30.14 1030.97,-20.42"/>
<polygon fill="midnightblue" stroke="midnightblue" points="1081.59,-60.88 1091.79,-63.76 1085.61,-55.15 1081.59,-60.88"/>
</g>
<!-- Node21&#45;&gt;Node4 -->
<g id="edge34" class="edge">
<title>Node21&#45;&gt;Node4</title>
<path fill="none" stroke="midnightblue" d="M877.7,-134.79C777.07,-132.67 553.22,-124.15 368.25,-90 359.58,-88.4 350.29,-85.95 341.96,-83.46"/>
<polygon fill="midnightblue" stroke="midnightblue" points="877.42,-138.31 887.49,-135.01 877.56,-131.31 877.42,-138.31"/>
</g>
<!-- Node21&#45;&gt;Node11 -->
<g id="edge35" class="edge">
<title>Node21&#45;&gt;Node11</title>
<path fill="none" stroke="midnightblue" d="M931.25,-115.99C931.25,-104.97 931.25,-91.73 931.25,-83.22"/>
<polygon fill="midnightblue" stroke="midnightblue" points="927.75,-115.76 931.25,-125.76 934.75,-115.76 927.75,-115.76"/>
</g>
<!-- Node21&#45;&gt;Node12 -->
<g id="edge36" class="edge">
<title>Node21&#45;&gt;Node12</title>
<path fill="none" stroke="midnightblue" d="M896.8,-122.84C870.32,-113.11 833.69,-99.65 805.8,-89.4"/>
<polygon fill="midnightblue" stroke="midnightblue" points="895.52,-126.47 906.11,-126.63 897.93,-119.9 895.52,-126.47"/>
</g>
<!-- Node21&#45;&gt;Node13 -->
<g id="edge37" class="edge">
<title>Node21&#45;&gt;Node13</title>
<path fill="none" stroke="midnightblue" d="M984.73,-129.1C994.86,-127.99 1005.38,-126.9 1015.25,-126 1246.4,-104.95 1306.3,-121.56 1536.25,-90 1539.28,-89.58 1542.37,-89.12 1545.49,-88.61"/>
<polygon fill="midnightblue" stroke="midnightblue" points="984.49,-125.71 974.95,-130.31 985.27,-132.67 984.49,-125.71"/>
</g>
<!-- Node21&#45;&gt;Node14 -->
<g id="edge38" class="edge">
<title>Node21&#45;&gt;Node14</title>
<path fill="none" stroke="midnightblue" d="M877.95,-125.69C828.31,-116.53 752.25,-102.44 686.25,-90 683.15,-89.42 679.99,-88.82 676.8,-88.21"/>
<polygon fill="midnightblue" stroke="midnightblue" points="877.28,-129.31 887.75,-127.68 878.55,-122.42 877.28,-129.31"/>
</g>
<!-- Node21&#45;&gt;Node15 -->
<g id="edge39" class="edge">
<title>Node21&#45;&gt;Node15</title>
<path fill="none" stroke="midnightblue" d="M984.72,-128.9C994.85,-127.8 1005.36,-126.78 1015.25,-126 1378.49,-97.51 1472.52,-133.63 1834.25,-90 1837.4,-89.62 1840.62,-89.18 1843.86,-88.7"/>
<polygon fill="midnightblue" stroke="midnightblue" points="984.48,-125.51 974.93,-130.1 985.25,-132.47 984.48,-125.51"/>
</g>
<!-- Node21&#45;&gt;Node16 -->
<g id="edge40" class="edge">
<title>Node21&#45;&gt;Node16</title>
<path fill="none" stroke="midnightblue" d="M878.11,-131.01C800.21,-124.1 650.58,-109.58 524.25,-90 521.11,-89.51 517.91,-88.99 514.68,-88.44"/>
<polygon fill="midnightblue" stroke="midnightblue" points="877.34,-134.54 887.61,-131.93 877.96,-127.57 877.34,-134.54"/>
</g>
<!-- Node21&#45;&gt;Node17 -->
<g id="edge41" class="edge">
<title>Node21&#45;&gt;Node17</title>
<path fill="none" stroke="midnightblue" d="M984.72,-128.97C994.85,-127.87 1005.37,-126.82 1015.25,-126 1312.87,-101.21 1390.12,-128.73 1686.25,-90 1689.24,-89.61 1692.3,-89.16 1695.37,-88.67"/>
<polygon fill="midnightblue" stroke="midnightblue" points="984.48,-125.59 974.94,-130.18 985.26,-132.55 984.48,-125.59"/>
</g>
<!-- Node21&#45;&gt;Node18 -->
<g id="edge42" class="edge">
<title>Node21&#45;&gt;Node18</title>
<path fill="none" stroke="midnightblue" d="M984.47,-126.22C1050.94,-114.64 1163.9,-94.95 1229.62,-83.5"/>
<polygon fill="midnightblue" stroke="midnightblue" points="984.07,-122.92 974.82,-128.08 985.27,-129.81 984.07,-122.92"/>
</g>
<!-- Node21&#45;&gt;Node19 -->
<g id="edge43" class="edge">
<title>Node21&#45;&gt;Node19</title>
<path fill="none" stroke="midnightblue" d="M984.76,-129.35C994.88,-128.22 1005.39,-127.06 1015.25,-126 1172.93,-109.09 1213.28,-112.58 1370.25,-90 1373.44,-89.54 1376.7,-89.05 1379.98,-88.53"/>
<polygon fill="midnightblue" stroke="midnightblue" points="984.52,-125.97 974.97,-130.57 985.3,-132.93 984.52,-125.97"/>
</g>
<!-- Node21&#45;&gt;Node20 -->
<g id="edge44" class="edge">
<title>Node21&#45;&gt;Node20</title>
<path fill="none" stroke="midnightblue" d="M966.84,-123.02C1000.38,-111.27 1049.81,-93.93 1079.63,-83.48"/>
<polygon fill="midnightblue" stroke="midnightblue" points="965.83,-120.02 957.55,-126.63 968.15,-126.62 965.83,-120.02"/>
</g>
<!-- Node22&#45;&gt;Node8 -->
<g id="edge48" class="edge">
<title>Node22&#45;&gt;Node8</title>
<path fill="none" stroke="midnightblue" d="M108.09,-235.91C105.24,-210.01 100.33,-165.44 98.24,-146.47"/>
<polygon fill="midnightblue" stroke="midnightblue" points="104.7,-236.07 109.27,-245.63 111.66,-235.31 104.7,-236.07"/>
</g>
<!-- Node22&#45;&gt;Node21 -->
<g id="edge49" class="edge">
<title>Node22&#45;&gt;Node21</title>
<path fill="none" stroke="midnightblue" d="M164.6,-245.05C244.35,-229.95 397.86,-201.79 529.25,-183 659.79,-164.33 815.08,-148.57 888.6,-141.5"/>
<polygon fill="midnightblue" stroke="midnightblue" points="164.02,-241.78 154.85,-247.09 165.33,-248.66 164.02,-241.78"/>
</g>
<!-- Node22&#45;&gt;Node23 -->
<g id="edge50" class="edge">
<title>Node22&#45;&gt;Node23</title>
<path fill="none" stroke="midnightblue" d="M92.19,-239.76C78.85,-228.13 61.17,-212.73 50.26,-203.22"/>
<polygon fill="midnightblue" stroke="midnightblue" points="89.38,-242.83 99.22,-246.76 93.98,-237.55 89.38,-242.83"/>
</g>
<!-- Node24&#45;&gt;Node3 -->
<g id="edge63" class="edge">
<title>Node24&#45;&gt;Node3</title>
<path fill="none" stroke="midnightblue" d="M412.93,-242.72C382.3,-230.97 337.67,-213.84 310.66,-203.48"/>
<polygon fill="midnightblue" stroke="midnightblue" points="411.54,-246.32 422.13,-246.63 414.05,-239.78 411.54,-246.32"/>
</g>
<!-- Node25 -->
<g id="node25" class="node">
<title>Node25</title>
<g id="a_node25"><a xlink:href="_cube_8h.html" target="_top" xlink:title=" ">
<polygon fill="none" stroke="black" points="1413,-126.5 1413,-146.5 1493.5,-146.5 1493.5,-126.5 1413,-126.5"/>
<text text-anchor="middle" x="1453.25" y="-133" font-family="Helvetica,sans-Serif" font-size="10.00">include/Cube.h</text>
</a>
</g>
</g>
<!-- Node24&#45;&gt;Node25 -->
<g id="edge52" class="edge">
<title>Node24&#45;&gt;Node25</title>
<path fill="none" stroke="midnightblue" d="M488.41,-243.97C494.69,-242.49 501.12,-241.11 507.25,-240 855.16,-177.27 1282.47,-147.79 1413.31,-139.81"/>
<polygon fill="midnightblue" stroke="midnightblue" points="487.91,-240.73 479.04,-246.52 489.59,-247.53 487.91,-240.73"/>
</g>
<!-- Node26 -->
<g id="node26" class="node">
<title>Node26</title>
<g id="a_node26"><a xlink:href="_cube_folded_8h.html" target="_top" xlink:title=" ">
<polygon fill="none" stroke="black" points="1277.38,-183.5 1277.38,-203.5 1387.12,-203.5 1387.12,-183.5 1277.38,-183.5"/>
<text text-anchor="middle" x="1332.25" y="-190" font-family="Helvetica,sans-Serif" font-size="10.00">include/CubeFolded.h</text>
</a>
</g>
</g>
<!-- Node24&#45;&gt;Node26 -->
<g id="edge57" class="edge">
<title>Node24&#45;&gt;Node26</title>
<path fill="none" stroke="midnightblue" d="M487.03,-243.98C493.74,-242.42 500.66,-241.01 507.25,-240 582.89,-228.42 1105.58,-204.53 1277.54,-196.9"/>
<polygon fill="midnightblue" stroke="midnightblue" points="486.6,-240.73 477.73,-246.52 488.28,-247.52 486.6,-240.73"/>
</g>
<!-- Node27 -->
<g id="node27" class="node">
<title>Node27</title>
<g id="a_node27"><a xlink:href="_cube_folded_wrap_8h.html" target="_top" xlink:title=" ">
<polygon fill="none" stroke="black" points="379.75,-126.5 379.75,-146.5 512.75,-146.5 512.75,-126.5 379.75,-126.5"/>
<text text-anchor="middle" x="446.25" y="-133" font-family="Helvetica,sans-Serif" font-size="10.00">include/CubeFoldedWrap.h</text>
</a>
</g>
</g>
<!-- Node24&#45;&gt;Node27 -->
<g id="edge59" class="edge">
<title>Node24&#45;&gt;Node27</title>
<path fill="none" stroke="midnightblue" d="M446.25,-235.91C446.25,-210.01 446.25,-165.44 446.25,-146.47"/>
<polygon fill="midnightblue" stroke="midnightblue" points="442.75,-235.63 446.25,-245.63 449.75,-235.63 442.75,-235.63"/>
</g>
<!-- Node28 -->
<g id="node28" class="node">
<title>Node28</title>
<g id="a_node28"><a xlink:href="_cube_skinned_8h.html" target="_top" xlink:title=" ">
<polygon fill="none" stroke="black" points="538.38,-183.5 538.38,-203.5 654.12,-203.5 654.12,-183.5 538.38,-183.5"/>
<text text-anchor="middle" x="596.25" y="-190" font-family="Helvetica,sans-Serif" font-size="10.00">include/CubeSkinned.h</text>
</a>
</g>
</g>
<!-- Node24&#45;&gt;Node28 -->
<g id="edge61" class="edge">
<title>Node24&#45;&gt;Node28</title>
<path fill="none" stroke="midnightblue" d="M478.09,-242.55C507.07,-230.77 549.07,-213.69 574.41,-203.38"/>
<polygon fill="midnightblue" stroke="midnightblue" points="477.01,-239.62 469.06,-246.63 479.64,-246.11 477.01,-239.62"/>
</g>
<!-- Node25&#45;&gt;Node13 -->
<g id="edge53" class="edge">
<title>Node25&#45;&gt;Node13</title>
<path fill="none" stroke="midnightblue" d="M1486.38,-122.71C1511.55,-112.99 1546.23,-99.6 1572.65,-89.4"/>
<polygon fill="midnightblue" stroke="midnightblue" points="1485.29,-119.76 1477.22,-126.63 1487.81,-126.29 1485.29,-119.76"/>
</g>
<!-- Node25&#45;&gt;Node17 -->
<g id="edge54" class="edge">
<title>Node25&#45;&gt;Node17</title>
<path fill="none" stroke="midnightblue" d="M1503.84,-125.83C1551.06,-116.75 1623.48,-102.7 1686.25,-90 1689.21,-89.4 1692.23,-88.78 1695.29,-88.16"/>
<polygon fill="midnightblue" stroke="midnightblue" points="1503.44,-122.53 1494.28,-127.86 1504.76,-129.41 1503.44,-122.53"/>
</g>
<!-- Node25&#45;&gt;Node18 -->
<g id="edge55" class="edge">
<title>Node25&#45;&gt;Node18</title>
<path fill="none" stroke="midnightblue" d="M1418.07,-123.02C1384.92,-111.27 1336.05,-93.93 1306.57,-83.48"/>
<polygon fill="midnightblue" stroke="midnightblue" points="1416.64,-126.59 1427.24,-126.63 1418.98,-119.99 1416.64,-126.59"/>
</g>
<!-- Node25&#45;&gt;Node19 -->
<g id="edge56" class="edge">
<title>Node25&#45;&gt;Node19</title>
<path fill="none" stroke="midnightblue" d="M1453.25,-115.83C1453.25,-107.23 1453.25,-97.31 1453.25,-89.35"/>
<polygon fill="midnightblue" stroke="midnightblue" points="1449.75,-115.76 1453.25,-125.76 1456.75,-115.76 1449.75,-115.76"/>
</g>
<!-- Node26&#45;&gt;Node15 -->
<g id="edge58" class="edge">
<title>Node26&#45;&gt;Node15</title>
<path fill="none" stroke="midnightblue" d="M1386.8,-181.4C1493.01,-159.79 1727.33,-112.12 1843.78,-88.43"/>
<polygon fill="midnightblue" stroke="midnightblue" points="1386.42,-178.11 1377.32,-183.53 1387.82,-184.97 1386.42,-178.11"/>
</g>
<!-- Node27&#45;&gt;Node16 -->
<g id="edge60" class="edge">
<title>Node27&#45;&gt;Node16</title>
<path fill="none" stroke="midnightblue" d="M446.25,-115.83C446.25,-107.23 446.25,-97.31 446.25,-89.35"/>
<polygon fill="midnightblue" stroke="midnightblue" points="442.75,-115.76 446.25,-125.76 449.75,-115.76 442.75,-115.76"/>
</g>
<!-- Node28&#45;&gt;Node14 -->
<g id="edge62" class="edge">
<title>Node28&#45;&gt;Node14</title>
<path fill="none" stroke="midnightblue" d="M597.75,-172.9C599.54,-149.35 602.51,-110.38 604.13,-89.24"/>
<polygon fill="midnightblue" stroke="midnightblue" points="594.2,-172.39 596.93,-182.63 601.18,-172.93 594.2,-172.39"/>
</g>
</g>
</svg>
