<?xml version="1.0" encoding="UTF-8" standalone="no"?>
<!DOCTYPE svg PUBLIC "-//W3C//DTD SVG 1.1//EN"
 "http://www.w3.org/Graphics/SVG/1.1/DTD/svg11.dtd">
<!-- Generated by graphviz version 8.1.0 (20230707.0739)
 -->
<!-- Title: include/LinearAlgebra/Math.h Pages: 1 -->
<svg width="1204pt" height="626pt"
 viewBox="0.00 0.00 1204.47 626.00" xmlns="http://www.w3.org/2000/svg" xmlns:xlink="http://www.w3.org/1999/xlink">
<g id="graph0" class="graph" transform="scale(1 1) rotate(0) translate(4 622)">
<title>include/LinearAlgebra/Math.h</title>
<!-- Node1 -->
<g id="node1" class="node">
<title>Node1</title>
<g id="a_node1"><a xlink:title=" ">
<polygon fill="#bfbfbf" stroke="black" points="570.5,-585.5 570.5,-617.5 679.5,-617.5 679.5,-585.5 570.5,-585.5"/>
<text text-anchor="start" x="578.5" y="-604" font-family="Helvetica,sans-Serif" font-size="10.00">include/LinearAlgebra</text>
<text text-anchor="middle" x="625" y="-592" font-family="Helvetica,sans-Serif" font-size="10.00">/Math.h</text>
</a>
</g>
</g>
<!-- Node1&#45;&gt;Node1 -->
<g id="edge1" class="edge">
<title>Node1&#45;&gt;Node1</title>
<path fill="none" stroke="midnightblue" d="M689.77,-611.11C694.56,-608.96 697.5,-605.75 697.5,-601.5 697.5,-594.69 689.98,-590.57 679.38,-589.14"/>
<polygon fill="midnightblue" stroke="midnightblue" points="689.15,-607.92 680.38,-613.86 690.94,-614.69 689.15,-607.92"/>
</g>
<!-- Node2 -->
<g id="node2" class="node">
<title>Node2</title>
<g id="a_node2"><a xlink:href="_vector2_8h.html" target="_top" xlink:title=" ">
<polygon fill="none" stroke="black" points="354.5,-378.5 354.5,-410.5 463.5,-410.5 463.5,-378.5 354.5,-378.5"/>
<text text-anchor="start" x="362.5" y="-397" font-family="Helvetica,sans-Serif" font-size="10.00">include/LinearAlgebra</text>
<text text-anchor="middle" x="409" y="-385" font-family="Helvetica,sans-Serif" font-size="10.00">/Vector2.h</text>
</a>
</g>
</g>
<!-- Node1&#45;&gt;Node2 -->
<g id="edge2" class="edge">
<title>Node1&#45;&gt;Node2</title>
<path fill="none" stroke="midnightblue" d="M560.53,-583.65C538.93,-575.71 515.83,-564.49 498,-549 452.42,-509.4 424.46,-440.46 413.86,-410.32"/>
<polygon fill="midnightblue" stroke="midnightblue" points="559.06,-587.19 569.66,-587.17 561.36,-580.58 559.06,-587.19"/>
</g>
<!-- Node19 -->
<g id="node19" class="node">
<title>Node19</title>
<g id="a_node19"><a xlink:href="_vector2_8cpp.html" target="_top" xlink:title=" ">
<polygon fill="none" stroke="black" points="417.62,-309.5 417.62,-341.5 512.38,-341.5 512.38,-309.5 417.62,-309.5"/>
<text text-anchor="start" x="425.62" y="-328" font-family="Helvetica,sans-Serif" font-size="10.00">test/LinearAlgebra</text>
<text text-anchor="middle" x="465" y="-316" font-family="Helvetica,sans-Serif" font-size="10.00">/Vector2.cpp</text>
</a>
</g>
</g>
<!-- Node1&#45;&gt;Node19 -->
<g id="edge68" class="edge">
<title>Node1&#45;&gt;Node19</title>
<path fill="none" stroke="midnightblue" d="M610.93,-576.4C578.61,-521.06 499.86,-386.19 473.64,-341.3"/>
<polygon fill="midnightblue" stroke="midnightblue" points="608.33,-577.9 616.4,-584.77 614.38,-574.37 608.33,-577.9"/>
</g>
<!-- Node20 -->
<g id="node20" class="node">
<title>Node20</title>
<g id="a_node20"><a xlink:href="_vector3_8h.html" target="_top" xlink:title=" ">
<polygon fill="none" stroke="black" points="703.5,-516.5 703.5,-548.5 812.5,-548.5 812.5,-516.5 703.5,-516.5"/>
<text text-anchor="start" x="711.5" y="-535" font-family="Helvetica,sans-Serif" font-size="10.00">include/LinearAlgebra</text>
<text text-anchor="middle" x="758" y="-523" font-family="Helvetica,sans-Serif" font-size="10.00">/Vector3.h</text>
</a>
</g>
</g>
<!-- Node1&#45;&gt;Node20 -->
<g id="edge34" class="edge">
<title>Node1&#45;&gt;Node20</title>
<path fill="none" stroke="midnightblue" d="M664.24,-580.73C684.83,-570.36 709.64,-557.86 728.57,-548.33"/>
<polygon fill="midnightblue" stroke="midnightblue" points="662.87,-578.01 655.52,-585.63 666.02,-584.26 662.87,-578.01"/>
</g>
<!-- Node30 -->
<g id="node30" class="node">
<title>Node30</title>
<g id="a_node30"><a xlink:href="_vector4_8h.html" target="_top" xlink:title=" ">
<polygon fill="none" stroke="black" points="1077.5,-447.5 1077.5,-479.5 1186.5,-479.5 1186.5,-447.5 1077.5,-447.5"/>
<text text-anchor="start" x="1085.5" y="-466" font-family="Helvetica,sans-Serif" font-size="10.00">include/LinearAlgebra</text>
<text text-anchor="middle" x="1132" y="-454" font-family="Helvetica,sans-Serif" font-size="10.00">/Vector4.h</text>
</a>
</g>
</g>
<!-- Node1&#45;&gt;Node30 -->
<g id="edge67" class="edge">
<title>Node1&#45;&gt;Node30</title>
<path fill="none" stroke="midnightblue" d="M689.92,-583.71C728.35,-573.72 777.98,-560.75 822,-549 911.74,-525.04 1015.88,-496.5 1077.73,-479.48"/>
<polygon fill="midnightblue" stroke="midnightblue" points="689.19,-580.54 680.39,-586.44 690.95,-587.32 689.19,-580.54"/>
</g>
<!-- Node3 -->
<g id="node3" class="node">
<title>Node3</title>
<g id="a_node3"><a xlink:href="_cube_8h.html" target="_top" xlink:title=" ">
<polygon fill="none" stroke="black" points="933.75,-132.5 933.75,-152.5 1014.25,-152.5 1014.25,-132.5 933.75,-132.5"/>
<text text-anchor="middle" x="974" y="-139" font-family="Helvetica,sans-Serif" font-size="10.00">include/Cube.h</text>
</a>
</g>
</g>
<!-- Node2&#45;&gt;Node3 -->
<g id="edge3" class="edge">
<title>Node2&#45;&gt;Node3</title>
<path fill="none" stroke="midnightblue" d="M473.96,-388.5C560.68,-381.05 709.02,-365.35 758,-342 808.8,-317.78 932.87,-187.44 965.84,-152.26"/>
<polygon fill="midnightblue" stroke="midnightblue" points="473.86,-385.08 464.19,-389.41 474.45,-392.06 473.86,-385.08"/>
</g>
<!-- Node9 -->
<g id="node9" class="node">
<title>Node9</title>
<g id="a_node9"><a xlink:href="_texture_effect_8h.html" target="_top" xlink:title=" ">
<polygon fill="none" stroke="black" points="399.62,-132.5 399.62,-152.5 542.38,-152.5 542.38,-132.5 399.62,-132.5"/>
<text text-anchor="middle" x="471" y="-139" font-family="Helvetica,sans-Serif" font-size="10.00">include/Effect/TextureEffect.h</text>
</a>
</g>
</g>
<!-- Node2&#45;&gt;Node9 -->
<g id="edge12" class="edge">
<title>Node2&#45;&gt;Node9</title>
<path fill="none" stroke="midnightblue" d="M406.65,-368.03C405.66,-351.15 405.45,-328.59 409,-309 414.88,-276.54 454.61,-181.87 467.19,-152.38"/>
<polygon fill="midnightblue" stroke="midnightblue" points="403.21,-367.98 407.42,-377.7 410.19,-367.48 403.21,-367.98"/>
</g>
<!-- Node10 -->
<g id="node10" class="node">
<title>Node10</title>
<g id="a_node10"><a xlink:href="_mouse_8h.html" target="_top" xlink:title=" ">
<polygon fill="none" stroke="black" points="243.38,-315.5 243.38,-335.5 330.62,-335.5 330.62,-315.5 243.38,-315.5"/>
<text text-anchor="middle" x="287" y="-322" font-family="Helvetica,sans-Serif" font-size="10.00">include/Mouse.h</text>
</a>
</g>
</g>
<!-- Node2&#45;&gt;Node10 -->
<g id="edge14" class="edge">
<title>Node2&#45;&gt;Node10</title>
<path fill="none" stroke="midnightblue" d="M372.43,-373.42C349.36,-360.75 320.72,-345.02 303.15,-335.37"/>
<polygon fill="midnightblue" stroke="midnightblue" points="370.47,-376.88 380.92,-378.63 373.84,-370.75 370.47,-376.88"/>
</g>
<!-- Node12 -->
<g id="node12" class="node">
<title>Node12</title>
<g id="a_node12"><a xlink:href="_graphics_8cpp.html" target="_top" xlink:title=" ">
<polygon fill="none" stroke="black" points="27.88,-195.5 27.88,-215.5 118.12,-215.5 118.12,-195.5 27.88,-195.5"/>
<text text-anchor="middle" x="73" y="-202" font-family="Helvetica,sans-Serif" font-size="10.00">src/Graphics.cpp</text>
</a>
</g>
</g>
<!-- Node2&#45;&gt;Node12 -->
<g id="edge31" class="edge">
<title>Node2&#45;&gt;Node12</title>
<path fill="none" stroke="midnightblue" d="M343.94,-385.66C296.3,-378.36 230.84,-365.04 177,-342 126.34,-320.32 100.31,-321.41 74,-273 63.97,-254.54 67.69,-228.71 70.69,-215.33"/>
<polygon fill="midnightblue" stroke="midnightblue" points="343.33,-389.26 353.74,-387.26 344.36,-382.33 343.33,-389.26"/>
</g>
<!-- Node17 -->
<g id="node17" class="node">
<title>Node17</title>
<g id="a_node17"><a xlink:href="_mouse_8cpp.html" target="_top" xlink:title=" ">
<polygon fill="none" stroke="black" points="82.75,-252.5 82.75,-272.5 163.25,-272.5 163.25,-252.5 82.75,-252.5"/>
<text text-anchor="middle" x="123" y="-259" font-family="Helvetica,sans-Serif" font-size="10.00">src/Mouse.cpp</text>
</a>
</g>
</g>
<!-- Node2&#45;&gt;Node17 -->
<g id="edge32" class="edge">
<title>Node2&#45;&gt;Node17</title>
<path fill="none" stroke="midnightblue" d="M344.6,-379.94C310.69,-371.48 269,-358.95 234,-342 193.42,-322.36 151.61,-288.33 132.99,-272.31"/>
<polygon fill="midnightblue" stroke="midnightblue" points="343.31,-383.48 353.85,-382.44 344.97,-376.68 343.31,-383.48"/>
</g>
<!-- Node18 -->
<g id="node18" class="node">
<title>Node18</title>
<g id="a_node18"><a xlink:href="_tex_vertex_8h.html" target="_top" xlink:title=" ">
<polygon fill="none" stroke="black" points="530.88,-315.5 530.88,-335.5 633.12,-335.5 633.12,-315.5 530.88,-315.5"/>
<text text-anchor="middle" x="582" y="-322" font-family="Helvetica,sans-Serif" font-size="10.00">include/TexVertex.h</text>
</a>
</g>
</g>
<!-- Node2&#45;&gt;Node18 -->
<g id="edge30" class="edge">
<title>Node2&#45;&gt;Node18</title>
<path fill="none" stroke="midnightblue" d="M457.36,-374.77C490.51,-361.93 533.02,-345.47 558.85,-335.47"/>
<polygon fill="midnightblue" stroke="midnightblue" points="456.46,-371.76 448.39,-378.63 458.98,-378.28 456.46,-371.76"/>
</g>
<!-- Node2&#45;&gt;Node19 -->
<g id="edge33" class="edge">
<title>Node2&#45;&gt;Node19</title>
<path fill="none" stroke="midnightblue" d="M428.42,-370.27C436.44,-360.67 445.51,-349.82 452.61,-341.33"/>
<polygon fill="midnightblue" stroke="midnightblue" points="425.16,-367.71 421.43,-377.63 430.53,-372.2 425.16,-367.71"/>
</g>
<!-- Node4 -->
<g id="node4" class="node">
<title>Node4</title>
<g id="a_node4"><a xlink:href="_cube_skin_scene_8h.html" target="_top" xlink:title=" ">
<polygon fill="none" stroke="black" points="488.12,-63.5 488.12,-83.5 651.88,-83.5 651.88,-63.5 488.12,-63.5"/>
<text text-anchor="middle" x="570" y="-70" font-family="Helvetica,sans-Serif" font-size="10.00">include/Scenes/CubeSkinScene.h</text>
</a>
</g>
</g>
<!-- Node3&#45;&gt;Node4 -->
<g id="edge4" class="edge">
<title>Node3&#45;&gt;Node4</title>
<path fill="none" stroke="midnightblue" d="M923.47,-132.34C911.52,-130.21 898.81,-127.99 887,-126 786.71,-109.08 761.36,-106.54 661,-90 648.35,-87.92 634.72,-85.62 621.96,-83.45"/>
<polygon fill="midnightblue" stroke="midnightblue" points="922.72,-135.94 933.18,-134.25 923.95,-129.04 922.72,-135.94"/>
</g>
<!-- Node6 -->
<g id="node6" class="node">
<title>Node6</title>
<g id="a_node6"><a xlink:href="_cube_solid_scene_8h.html" target="_top" xlink:title=" ">
<polygon fill="none" stroke="black" points="841,-57.5 841,-89.5 971,-89.5 971,-57.5 841,-57.5"/>
<text text-anchor="start" x="849" y="-76" font-family="Helvetica,sans-Serif" font-size="10.00">include/Scenes/CubeSolid</text>
<text text-anchor="middle" x="906" y="-64" font-family="Helvetica,sans-Serif" font-size="10.00">Scene.h</text>
</a>
</g>
</g>
<!-- Node3&#45;&gt;Node6 -->
<g id="edge6" class="edge">
<title>Node3&#45;&gt;Node6</title>
<path fill="none" stroke="midnightblue" d="M957.42,-125.16C946.34,-114.25 931.89,-100.01 921.13,-89.41"/>
<polygon fill="midnightblue" stroke="midnightblue" points="954.53,-127.22 964.11,-131.74 959.44,-122.23 954.53,-127.22"/>
</g>
<!-- Node7 -->
<g id="node7" class="node">
<title>Node7</title>
<g id="a_node7"><a xlink:href="_cube_vertex_color_scene_8h.html" target="_top" xlink:title=" ">
<polygon fill="none" stroke="black" points="669.62,-57.5 669.62,-89.5 806.38,-89.5 806.38,-57.5 669.62,-57.5"/>
<text text-anchor="start" x="677.62" y="-76" font-family="Helvetica,sans-Serif" font-size="10.00">include/Scenes/CubeVertex</text>
<text text-anchor="middle" x="738" y="-64" font-family="Helvetica,sans-Serif" font-size="10.00">ColorScene.h</text>
</a>
</g>
</g>
<!-- Node3&#45;&gt;Node7 -->
<g id="edge8" class="edge">
<title>Node3&#45;&gt;Node7</title>
<path fill="none" stroke="midnightblue" d="M932.09,-129.6C892.63,-118.4 833.38,-101.58 790.73,-89.47"/>
<polygon fill="midnightblue" stroke="midnightblue" points="931.09,-133.24 941.66,-132.6 933,-126.5 931.09,-133.24"/>
</g>
<!-- Node8 -->
<g id="node8" class="node">
<title>Node8</title>
<g id="a_node8"><a xlink:href="_double_cube_scene_8h.html" target="_top" xlink:title=" ">
<polygon fill="none" stroke="black" points="1028.88,-57.5 1028.88,-89.5 1167.12,-89.5 1167.12,-57.5 1028.88,-57.5"/>
<text text-anchor="start" x="1036.88" y="-76" font-family="Helvetica,sans-Serif" font-size="10.00">include/Scenes/DoubleCube</text>
<text text-anchor="middle" x="1098" y="-64" font-family="Helvetica,sans-Serif" font-size="10.00">Scene.h</text>
</a>
</g>
</g>
<!-- Node3&#45;&gt;Node8 -->
<g id="edge10" class="edge">
<title>Node3&#45;&gt;Node8</title>
<path fill="none" stroke="midnightblue" d="M999.88,-127.51C1020.56,-116.35 1049.45,-100.73 1070.53,-89.34"/>
<polygon fill="midnightblue" stroke="midnightblue" points="998.6,-124.77 991.47,-132.6 1001.93,-130.93 998.6,-124.77"/>
</g>
<!-- Node5 -->
<g id="node5" class="node">
<title>Node5</title>
<g id="a_node5"><a xlink:href="_engine_8cpp.html" target="_top" xlink:title=" ">
<polygon fill="none" stroke="black" points="613.38,-0.5 613.38,-20.5 694.62,-20.5 694.62,-0.5 613.38,-0.5"/>
<text text-anchor="middle" x="654" y="-7" font-family="Helvetica,sans-Serif" font-size="10.00">src/Engine.cpp</text>
</a>
</g>
</g>
<!-- Node4&#45;&gt;Node5 -->
<g id="edge5" class="edge">
<title>Node4&#45;&gt;Node5</title>
<path fill="none" stroke="midnightblue" d="M590.71,-57.46C606.72,-45.84 628.34,-30.14 641.71,-20.42"/>
<polygon fill="midnightblue" stroke="midnightblue" points="589.07,-55.05 583.04,-63.76 593.18,-60.72 589.07,-55.05"/>
</g>
<!-- Node6&#45;&gt;Node5 -->
<g id="edge7" class="edge">
<title>Node6&#45;&gt;Node5</title>
<path fill="none" stroke="midnightblue" d="M833.68,-54.99C786.98,-43.69 728.18,-29.46 690.83,-20.42"/>
<polygon fill="midnightblue" stroke="midnightblue" points="832.81,-58.63 843.35,-57.58 834.46,-51.82 832.81,-58.63"/>
</g>
<!-- Node7&#45;&gt;Node5 -->
<g id="edge9" class="edge">
<title>Node7&#45;&gt;Node5</title>
<path fill="none" stroke="midnightblue" d="M708.91,-51.37C694.24,-40.72 677.25,-28.38 666.1,-20.28"/>
<polygon fill="midnightblue" stroke="midnightblue" points="706.52,-54.69 716.67,-57.73 710.63,-49.03 706.52,-54.69"/>
</g>
<!-- Node8&#45;&gt;Node5 -->
<g id="edge11" class="edge">
<title>Node8&#45;&gt;Node5</title>
<path fill="none" stroke="midnightblue" d="M1018.39,-61.56C923.22,-48.49 767.67,-27.12 694.48,-17.06"/>
<polygon fill="midnightblue" stroke="midnightblue" points="1017.73,-65.14 1028.11,-63.04 1018.68,-58.21 1017.73,-65.14"/>
</g>
<!-- Node9&#45;&gt;Node4 -->
<g id="edge13" class="edge">
<title>Node9&#45;&gt;Node4</title>
<path fill="none" stroke="midnightblue" d="M493.03,-126.59C512.56,-113.37 540.44,-94.5 556.74,-83.48"/>
<polygon fill="midnightblue" stroke="midnightblue" points="491.26,-124.24 484.94,-132.74 495.19,-130.03 491.26,-124.24"/>
</g>
<!-- Node11 -->
<g id="node11" class="node">
<title>Node11</title>
<g id="a_node11"><a xlink:href="_main_window_8h.html" target="_top" xlink:title=" ">
<polygon fill="none" stroke="black" points="219.25,-252.5 219.25,-272.5 332.75,-272.5 332.75,-252.5 219.25,-252.5"/>
<text text-anchor="middle" x="276" y="-259" font-family="Helvetica,sans-Serif" font-size="10.00">include/MainWindow.h</text>
</a>
</g>
</g>
<!-- Node10&#45;&gt;Node11 -->
<g id="edge15" class="edge">
<title>Node10&#45;&gt;Node11</title>
<path fill="none" stroke="midnightblue" d="M283.48,-304.99C281.49,-293.97 279.11,-280.73 277.57,-272.22"/>
<polygon fill="midnightblue" stroke="midnightblue" points="280.2,-305.54 285.42,-314.76 287.09,-304.3 280.2,-305.54"/>
</g>
<!-- Node15 -->
<g id="node15" class="node">
<title>Node15</title>
<g id="a_node15"><a xlink:href="_scene_8h.html" target="_top" xlink:title=" ">
<polygon fill="none" stroke="black" points="519.12,-252.5 519.12,-272.5 604.88,-272.5 604.88,-252.5 519.12,-252.5"/>
<text text-anchor="middle" x="562" y="-259" font-family="Helvetica,sans-Serif" font-size="10.00">include/Scene.h</text>
</a>
</g>
</g>
<!-- Node10&#45;&gt;Node15 -->
<g id="edge20" class="edge">
<title>Node10&#45;&gt;Node15</title>
<path fill="none" stroke="midnightblue" d="M337.8,-313.23C390.81,-301.47 472.85,-283.27 521.61,-272.46"/>
<polygon fill="midnightblue" stroke="midnightblue" points="337.29,-309.98 328.28,-315.56 338.8,-316.82 337.29,-309.98"/>
</g>
<!-- Node10&#45;&gt;Node17 -->
<g id="edge29" class="edge">
<title>Node10&#45;&gt;Node17</title>
<path fill="none" stroke="midnightblue" d="M253.05,-311.87C221.44,-300.12 175.13,-282.89 147.14,-272.48"/>
<polygon fill="midnightblue" stroke="midnightblue" points="251.56,-315.42 262.15,-315.63 254,-308.86 251.56,-315.42"/>
</g>
<!-- Node11&#45;&gt;Node5 -->
<g id="edge16" class="edge">
<title>Node11&#45;&gt;Node5</title>
<path fill="none" stroke="midnightblue" d="M243.71,-248.41C191.74,-225.48 99.14,-175.73 138,-126 196.9,-50.62 502.14,-22.08 613.38,-14.08"/>
<polygon fill="midnightblue" stroke="midnightblue" points="241.94,-251.89 252.51,-252.64 244.71,-245.46 241.94,-251.89"/>
</g>
<!-- Node11&#45;&gt;Node12 -->
<g id="edge17" class="edge">
<title>Node11&#45;&gt;Node12</title>
<path fill="none" stroke="midnightblue" d="M232.71,-249.77C194.81,-239.5 140.55,-224.8 106.05,-215.46"/>
<polygon fill="midnightblue" stroke="midnightblue" points="231.37,-253.3 241.93,-252.54 233.2,-246.55 231.37,-253.3"/>
</g>
<!-- Node13 -->
<g id="node13" class="node">
<title>Node13</title>
<g id="a_node13"><a xlink:href="_main_8cpp.html" target="_top" xlink:title=" ">
<polygon fill="none" stroke="black" points="146.88,-132.5 146.88,-152.5 219.12,-152.5 219.12,-132.5 146.88,-132.5"/>
<text text-anchor="middle" x="183" y="-139" font-family="Helvetica,sans-Serif" font-size="10.00">src/Main.cpp</text>
</a>
</g>
</g>
<!-- Node11&#45;&gt;Node13 -->
<g id="edge18" class="edge">
<title>Node11&#45;&gt;Node13</title>
<path fill="none" stroke="midnightblue" d="M262.45,-244.31C242.39,-218.85 205.5,-172.04 190.07,-152.47"/>
<polygon fill="midnightblue" stroke="midnightblue" points="260.07,-245.94 269.01,-251.63 265.57,-241.61 260.07,-245.94"/>
</g>
<!-- Node14 -->
<g id="node14" class="node">
<title>Node14</title>
<g id="a_node14"><a xlink:href="_main_window_8cpp.html" target="_top" xlink:title=" ">
<polygon fill="none" stroke="black" points="237.62,-132.5 237.62,-152.5 344.38,-152.5 344.38,-132.5 237.62,-132.5"/>
<text text-anchor="middle" x="291" y="-139" font-family="Helvetica,sans-Serif" font-size="10.00">src/MainWindow.cpp</text>
</a>
</g>
</g>
<!-- Node11&#45;&gt;Node14 -->
<g id="edge19" class="edge">
<title>Node11&#45;&gt;Node14</title>
<path fill="none" stroke="midnightblue" d="M278.49,-241.91C281.78,-216.01 287.45,-171.44 289.86,-152.47"/>
<polygon fill="midnightblue" stroke="midnightblue" points="274.92,-241.27 277.13,-251.63 281.86,-242.15 274.92,-241.27"/>
</g>
<!-- Node15&#45;&gt;Node4 -->
<g id="edge25" class="edge">
<title>Node15&#45;&gt;Node4</title>
<path fill="none" stroke="midnightblue" d="M562.83,-242.07C564.55,-201.95 568.42,-111.32 569.63,-83.07"/>
<polygon fill="midnightblue" stroke="midnightblue" points="559.3,-241.84 562.36,-251.98 566.29,-242.14 559.3,-241.84"/>
</g>
<!-- Node15&#45;&gt;Node6 -->
<g id="edge26" class="edge">
<title>Node15&#45;&gt;Node6</title>
<path fill="none" stroke="midnightblue" d="M581.13,-245.67C619.92,-213.81 706.99,-143.5 741,-126 772.49,-109.8 810,-97.59 841.3,-89.14"/>
<polygon fill="midnightblue" stroke="midnightblue" points="579.28,-243.48 573.79,-252.54 583.73,-248.89 579.28,-243.48"/>
</g>
<!-- Node15&#45;&gt;Node7 -->
<g id="edge27" class="edge">
<title>Node15&#45;&gt;Node7</title>
<path fill="none" stroke="midnightblue" d="M574.1,-243.56C592.85,-216.46 630.86,-164.19 670,-126 683.99,-112.35 701.63,-99.08 715.44,-89.44"/>
<polygon fill="midnightblue" stroke="midnightblue" points="570.65,-241.41 567.9,-251.64 576.43,-245.36 570.65,-241.41"/>
</g>
<!-- Node15&#45;&gt;Node8 -->
<g id="edge28" class="edge">
<title>Node15&#45;&gt;Node8</title>
<path fill="none" stroke="midnightblue" d="M615.28,-254.7C763.54,-235.53 1171.28,-181.02 1190,-159 1199.5,-147.82 1197.42,-138.65 1190,-126 1180.09,-109.1 1162.4,-97.33 1145.15,-89.36"/>
<polygon fill="midnightblue" stroke="midnightblue" points="615.12,-251.32 605.65,-256.07 616.01,-258.26 615.12,-251.32"/>
</g>
<!-- Node16 -->
<g id="node16" class="node">
<title>Node16</title>
<g id="a_node16"><a xlink:href="_engine_8h.html" target="_top" xlink:title=" ">
<polygon fill="none" stroke="black" points="342,-195.5 342,-215.5 430,-215.5 430,-195.5 342,-195.5"/>
<text text-anchor="middle" x="386" y="-202" font-family="Helvetica,sans-Serif" font-size="10.00">include/Engine.h</text>
</a>
</g>
</g>
<!-- Node15&#45;&gt;Node16 -->
<g id="edge21" class="edge">
<title>Node15&#45;&gt;Node16</title>
<path fill="none" stroke="midnightblue" d="M523.19,-249.37C490.4,-239.13 444.18,-224.68 414.66,-215.46"/>
<polygon fill="midnightblue" stroke="midnightblue" points="521.74,-252.9 532.33,-252.54 523.83,-246.22 521.74,-252.9"/>
</g>
<!-- Node16&#45;&gt;Node5 -->
<g id="edge22" class="edge">
<title>Node16&#45;&gt;Node5</title>
<path fill="none" stroke="midnightblue" d="M382.99,-185.02C381.38,-168.37 381.37,-144.28 391,-126 414.16,-82.02 434.46,-79.05 479,-57 522.33,-35.55 576.85,-23.44 613.43,-17.2"/>
<polygon fill="midnightblue" stroke="midnightblue" points="379.61,-185.15 384.34,-194.63 386.55,-184.27 379.61,-185.15"/>
</g>
<!-- Node16&#45;&gt;Node13 -->
<g id="edge23" class="edge">
<title>Node16&#45;&gt;Node13</title>
<path fill="none" stroke="midnightblue" d="M343.47,-192.71C311.8,-183.8 267.56,-171.08 229,-159 222.41,-156.93 215.32,-154.6 208.73,-152.39"/>
<polygon fill="midnightblue" stroke="midnightblue" points="342.13,-196.25 352.71,-195.58 344.02,-189.51 342.13,-196.25"/>
</g>
<!-- Node16&#45;&gt;Node14 -->
<g id="edge24" class="edge">
<title>Node16&#45;&gt;Node14</title>
<path fill="none" stroke="midnightblue" d="M363.59,-190.11C345.39,-178.43 320.31,-162.32 304.89,-152.42"/>
<polygon fill="midnightblue" stroke="midnightblue" points="361.08,-193.3 371.39,-195.76 364.87,-187.41 361.08,-193.3"/>
</g>
<!-- Node20&#45;&gt;Node3 -->
<g id="edge57" class="edge">
<title>Node20&#45;&gt;Node3</title>
<path fill="none" stroke="midnightblue" d="M822.74,-513.84C861.79,-502.77 907.46,-488.95 926,-480 985.73,-451.17 1049,-461.82 1049,-395.5 1049,-395.5 1049,-395.5 1049,-261.5 1049,-214.17 1005.48,-170.48 984.75,-152.34"/>
<polygon fill="midnightblue" stroke="midnightblue" points="822.13,-510.66 813.45,-516.74 824.03,-517.4 822.13,-510.66"/>
</g>
<!-- Node20&#45;&gt;Node4 -->
<g id="edge64" class="edge">
<title>Node20&#45;&gt;Node4</title>
<path fill="none" stroke="midnightblue" d="M692.95,-526.67C509.28,-512.17 0,-465.64 0,-395.5 0,-395.5 0,-395.5 0,-204.5 0,-105.54 330.72,-81.91 488.33,-76.27"/>
<polygon fill="midnightblue" stroke="midnightblue" points="692.55,-530.23 702.79,-527.52 693.09,-523.25 692.55,-530.23"/>
</g>
<!-- Node20&#45;&gt;Node18 -->
<g id="edge65" class="edge">
<title>Node20&#45;&gt;Node18</title>
<path fill="none" stroke="midnightblue" d="M738.23,-508.47C699.45,-463.31 614.99,-364.92 589.46,-335.19"/>
<polygon fill="midnightblue" stroke="midnightblue" points="736.17,-510.45 745.34,-515.76 741.48,-505.89 736.17,-510.45"/>
</g>
<!-- Node21 -->
<g id="node21" class="node">
<title>Node21</title>
<g id="a_node21"><a xlink:href="_colors_8h.html" target="_top" xlink:title=" ">
<polygon fill="none" stroke="black" points="806.12,-453.5 806.12,-473.5 891.88,-473.5 891.88,-453.5 806.12,-453.5"/>
<text text-anchor="middle" x="849" y="-460" font-family="Helvetica,sans-Serif" font-size="10.00">include/Colors.h</text>
</a>
</g>
</g>
<!-- Node20&#45;&gt;Node21 -->
<g id="edge35" class="edge">
<title>Node20&#45;&gt;Node21</title>
<path fill="none" stroke="midnightblue" d="M786.67,-510.39C803.62,-497.91 824.2,-482.76 836.95,-473.37"/>
<polygon fill="midnightblue" stroke="midnightblue" points="785.17,-507.88 779.2,-516.63 789.32,-513.52 785.17,-507.88"/>
</g>
<!-- Node23 -->
<g id="node23" class="node">
<title>Node23</title>
<g id="a_node23"><a xlink:href="_graphics_8h.html" target="_top" xlink:title=" ">
<polygon fill="none" stroke="black" points="651.5,-315.5 651.5,-335.5 748.5,-335.5 748.5,-315.5 651.5,-315.5"/>
<text text-anchor="middle" x="700" y="-322" font-family="Helvetica,sans-Serif" font-size="10.00">include/Graphics.h</text>
</a>
</g>
</g>
<!-- Node20&#45;&gt;Node23 -->
<g id="edge58" class="edge">
<title>Node20&#45;&gt;Node23</title>
<path fill="none" stroke="midnightblue" d="M750.98,-506.14C742.54,-475.69 727.88,-423.07 715,-378 710.7,-362.96 705.59,-345.48 702.58,-335.24"/>
<polygon fill="midnightblue" stroke="midnightblue" points="747.86,-506.97 753.9,-515.67 754.6,-505.1 747.86,-506.97"/>
</g>
<!-- Node27 -->
<g id="node27" class="node">
<title>Node27</title>
<g id="a_node27"><a xlink:href="_pube_screen_transformer_8h.html" target="_top" xlink:title=" ">
<polygon fill="none" stroke="black" points="660.88,-252.5 660.88,-272.5 823.12,-272.5 823.12,-252.5 660.88,-252.5"/>
<text text-anchor="middle" x="742" y="-259" font-family="Helvetica,sans-Serif" font-size="10.00">include/PubeScreenTransformer.h</text>
</a>
</g>
</g>
<!-- Node20&#45;&gt;Node27 -->
<g id="edge63" class="edge">
<title>Node20&#45;&gt;Node27</title>
<path fill="none" stroke="midnightblue" d="M760.79,-505.7C764.69,-464 770.01,-379.33 758,-309 755.75,-295.79 750.06,-281.32 746.11,-272.32"/>
<polygon fill="midnightblue" stroke="midnightblue" points="757.23,-505.22 759.72,-515.51 764.19,-505.9 757.23,-505.22"/>
</g>
<!-- Node29 -->
<g id="node29" class="node">
<title>Node29</title>
<g id="a_node29"><a xlink:href="_indexed_triangle_list_8h.html" target="_top" xlink:title=" ">
<polygon fill="none" stroke="black" points="879.38,-252.5 879.38,-272.5 1020.62,-272.5 1020.62,-252.5 879.38,-252.5"/>
<text text-anchor="middle" x="950" y="-259" font-family="Helvetica,sans-Serif" font-size="10.00">include/IndexedTriangleList.h</text>
</a>
</g>
</g>
<!-- Node20&#45;&gt;Node29 -->
<g id="edge59" class="edge">
<title>Node20&#45;&gt;Node29</title>
<path fill="none" stroke="midnightblue" d="M822.52,-514.1C854.73,-504.29 889.29,-491.69 901,-480 960.46,-420.65 954.19,-305.38 951.01,-272.47"/>
<polygon fill="midnightblue" stroke="midnightblue" points="821.76,-510.97 813.17,-517.18 823.76,-517.68 821.76,-510.97"/>
</g>
<!-- Node20&#45;&gt;Node30 -->
<g id="edge62" class="edge">
<title>Node20&#45;&gt;Node30</title>
<path fill="none" stroke="midnightblue" d="M823.2,-521.53C885.08,-511.82 980.61,-496.2 1063,-480 1067.82,-479.05 1072.82,-478.02 1077.82,-476.96"/>
<polygon fill="midnightblue" stroke="midnightblue" points="822.77,-518.21 813.43,-523.21 823.85,-525.13 822.77,-518.21"/>
</g>
<!-- Node31 -->
<g id="node31" class="node">
<title>Node31</title>
<g id="a_node31"><a xlink:href="_vector3_8cpp.html" target="_top" xlink:title=" ">
<polygon fill="none" stroke="black" points="578.62,-447.5 578.62,-479.5 673.38,-479.5 673.38,-447.5 578.62,-447.5"/>
<text text-anchor="start" x="586.62" y="-466" font-family="Helvetica,sans-Serif" font-size="10.00">test/LinearAlgebra</text>
<text text-anchor="middle" x="626" y="-454" font-family="Helvetica,sans-Serif" font-size="10.00">/Vector3.cpp</text>
</a>
</g>
</g>
<!-- Node20&#45;&gt;Node31 -->
<g id="edge66" class="edge">
<title>Node20&#45;&gt;Node31</title>
<path fill="none" stroke="midnightblue" d="M719.05,-511.73C698.62,-501.36 673.99,-488.86 655.21,-479.33"/>
<polygon fill="midnightblue" stroke="midnightblue" points="717.2,-515.23 727.7,-516.63 720.37,-508.98 717.2,-515.23"/>
</g>
<!-- Node22 -->
<g id="node22" class="node">
<title>Node22</title>
<g id="a_node22"><a xlink:href="_surface_8h.html" target="_top" xlink:title=" ">
<polygon fill="none" stroke="black" points="805.5,-384.5 805.5,-404.5 896.5,-404.5 896.5,-384.5 805.5,-384.5"/>
<text text-anchor="middle" x="851" y="-391" font-family="Helvetica,sans-Serif" font-size="10.00">include/Surface.h</text>
</a>
</g>
</g>
<!-- Node21&#45;&gt;Node22 -->
<g id="edge36" class="edge">
<title>Node21&#45;&gt;Node22</title>
<path fill="none" stroke="midnightblue" d="M849.59,-442.86C849.97,-430.17 850.44,-414.24 850.73,-404.48"/>
<polygon fill="midnightblue" stroke="midnightblue" points="846.06,-442.64 849.26,-452.74 853.06,-442.85 846.06,-442.64"/>
</g>
<!-- Node22&#45;&gt;Node23 -->
<g id="edge37" class="edge">
<title>Node22&#45;&gt;Node23</title>
<path fill="none" stroke="midnightblue" d="M821.06,-380.22C791.15,-366.95 746.01,-346.92 720.13,-335.43"/>
<polygon fill="midnightblue" stroke="midnightblue" points="819.39,-383.75 829.95,-384.6 822.23,-377.35 819.39,-383.75"/>
</g>
<!-- Node28 -->
<g id="node28" class="node">
<title>Node28</title>
<g id="a_node28"><a xlink:href="_surface_8cpp.html" target="_top" xlink:title=" ">
<polygon fill="none" stroke="black" points="857.88,-315.5 857.88,-335.5 942.12,-335.5 942.12,-315.5 857.88,-315.5"/>
<text text-anchor="middle" x="900" y="-322" font-family="Helvetica,sans-Serif" font-size="10.00">src/Surface.cpp</text>
</a>
</g>
</g>
<!-- Node22&#45;&gt;Node28 -->
<g id="edge56" class="edge">
<title>Node22&#45;&gt;Node28</title>
<path fill="none" stroke="midnightblue" d="M863.67,-376.18C873.19,-363.16 885.85,-345.85 893.44,-335.48"/>
<polygon fill="midnightblue" stroke="midnightblue" points="860.48,-373.6 857.41,-383.74 866.13,-377.74 860.48,-373.6"/>
</g>
<!-- Node23&#45;&gt;Node11 -->
<g id="edge39" class="edge">
<title>Node23&#45;&gt;Node11</title>
<path fill="none" stroke="midnightblue" d="M659.49,-312.9C653.65,-311.46 647.69,-310.1 642,-309 512.33,-283.89 478.02,-289.76 347,-273 342.31,-272.4 337.45,-271.77 332.57,-271.13"/>
<polygon fill="midnightblue" stroke="midnightblue" points="658.22,-316.45 668.78,-315.57 659.98,-309.67 658.22,-316.45"/>
</g>
<!-- Node23&#45;&gt;Node12 -->
<g id="edge54" class="edge">
<title>Node23&#45;&gt;Node12</title>
<path fill="none" stroke="midnightblue" d="M659.92,-312.8C653.95,-311.34 647.84,-310.02 642,-309 452.18,-276 394.4,-328.83 210,-273 191.53,-267.41 189.22,-260.7 172,-252 145.32,-238.52 113.87,-224.35 93.69,-215.47"/>
<polygon fill="midnightblue" stroke="midnightblue" points="658.86,-316.4 669.42,-315.51 660.61,-309.62 658.86,-316.4"/>
</g>
<!-- Node23&#45;&gt;Node14 -->
<g id="edge55" class="edge">
<title>Node23&#45;&gt;Node14</title>
<path fill="none" stroke="midnightblue" d="M657.4,-312.8C652.23,-311.47 647,-310.17 642,-309 502.37,-276.26 440.06,-311.43 333,-216 312.59,-197.8 299.5,-167.23 293.99,-152.28"/>
<polygon fill="midnightblue" stroke="midnightblue" points="656.32,-316.39 666.88,-315.54 658.09,-309.62 656.32,-316.39"/>
</g>
<!-- Node23&#45;&gt;Node15 -->
<g id="edge53" class="edge">
<title>Node23&#45;&gt;Node15</title>
<path fill="none" stroke="midnightblue" d="M670,-311.24C643.37,-299.47 605.2,-282.6 582.09,-272.38"/>
<polygon fill="midnightblue" stroke="midnightblue" points="668.37,-314.79 678.93,-315.63 671.2,-308.39 668.37,-314.79"/>
</g>
<!-- Node23&#45;&gt;Node16 -->
<g id="edge38" class="edge">
<title>Node23&#45;&gt;Node16</title>
<path fill="none" stroke="midnightblue" d="M656.31,-312.79C601.3,-298.02 513.48,-274.38 510,-273 468.23,-256.39 422.45,-229.3 400,-215.38"/>
<polygon fill="midnightblue" stroke="midnightblue" points="655.28,-316.4 665.84,-315.61 657.09,-309.64 655.28,-316.4"/>
</g>
<!-- Node24 -->
<g id="node24" class="node">
<title>Node24</title>
<g id="a_node24"><a xlink:href="_pipeline_8h.html" target="_top" xlink:title=" ">
<polygon fill="none" stroke="black" points="721.75,-195.5 721.75,-215.5 814.25,-215.5 814.25,-195.5 721.75,-195.5"/>
<text text-anchor="middle" x="768" y="-202" font-family="Helvetica,sans-Serif" font-size="10.00">include/Pipeline.h</text>
</a>
</g>
</g>
<!-- Node23&#45;&gt;Node24 -->
<g id="edge40" class="edge">
<title>Node23&#45;&gt;Node24</title>
<path fill="none" stroke="midnightblue" d="M677.82,-308.98C659.57,-294.24 638.7,-271.51 652,-252 667.66,-229.03 696.83,-217.66 721.99,-212.03"/>
<polygon fill="midnightblue" stroke="midnightblue" points="675.33,-312.24 685.41,-315.52 679.57,-306.67 675.33,-312.24"/>
</g>
<!-- Node23&#45;&gt;Node27 -->
<g id="edge51" class="edge">
<title>Node23&#45;&gt;Node27</title>
<path fill="none" stroke="midnightblue" d="M712.23,-306.73C720.04,-295.39 729.82,-281.19 735.99,-272.22"/>
<polygon fill="midnightblue" stroke="midnightblue" points="708.81,-304.54 706.02,-314.76 714.57,-308.51 708.81,-304.54"/>
</g>
<!-- Node24&#45;&gt;Node4 -->
<g id="edge47" class="edge">
<title>Node24&#45;&gt;Node4</title>
<path fill="none" stroke="midnightblue" d="M745.36,-189.64C703.98,-162.47 617.29,-105.55 583.7,-83.5"/>
<polygon fill="midnightblue" stroke="midnightblue" points="743.11,-193 753.39,-195.56 746.95,-187.15 743.11,-193"/>
</g>
<!-- Node24&#45;&gt;Node6 -->
<g id="edge48" class="edge">
<title>Node24&#45;&gt;Node6</title>
<path fill="none" stroke="midnightblue" d="M824.65,-194.87C847.03,-188.31 871.13,-177.34 887,-159 904.02,-139.33 906.72,-107.66 906.67,-89.18"/>
<polygon fill="midnightblue" stroke="midnightblue" points="823.95,-191.7 815.19,-197.66 825.76,-198.46 823.95,-191.7"/>
</g>
<!-- Node24&#45;&gt;Node7 -->
<g id="edge49" class="edge">
<title>Node24&#45;&gt;Node7</title>
<path fill="none" stroke="midnightblue" d="M754.78,-186.95C749.46,-178.87 743.91,-168.9 741,-159 734.05,-135.34 734.93,-106.34 736.36,-89.2"/>
<polygon fill="midnightblue" stroke="midnightblue" points="752.34,-188.56 760.96,-194.72 758.06,-184.53 752.34,-188.56"/>
</g>
<!-- Node24&#45;&gt;Node8 -->
<g id="edge50" class="edge">
<title>Node24&#45;&gt;Node8</title>
<path fill="none" stroke="midnightblue" d="M824.71,-202.24C930.69,-197.44 1150.2,-184.51 1173,-159 1182.77,-148.07 1179.83,-138.98 1173,-126 1164.47,-109.79 1148.27,-97.69 1133.1,-89.31"/>
<polygon fill="midnightblue" stroke="midnightblue" points="824.73,-198.78 814.9,-202.72 825.04,-205.78 824.73,-198.78"/>
</g>
<!-- Node24&#45;&gt;Node9 -->
<g id="edge44" class="edge">
<title>Node24&#45;&gt;Node9</title>
<path fill="none" stroke="midnightblue" d="M713.85,-193.38C656.63,-181.63 567.5,-163.32 514.62,-152.46"/>
<polygon fill="midnightblue" stroke="midnightblue" points="713,-196.98 723.5,-195.56 714.4,-190.12 713,-196.98"/>
</g>
<!-- Node25 -->
<g id="node25" class="node">
<title>Node25</title>
<g id="a_node25"><a xlink:href="_solid_effect_8h.html" target="_top" xlink:title=" ">
<polygon fill="none" stroke="black" points="1031.88,-132.5 1031.88,-152.5 1164.12,-152.5 1164.12,-132.5 1031.88,-132.5"/>
<text text-anchor="middle" x="1098" y="-139" font-family="Helvetica,sans-Serif" font-size="10.00">include/Effect/SolidEffect.h</text>
</a>
</g>
</g>
<!-- Node24&#45;&gt;Node25 -->
<g id="edge41" class="edge">
<title>Node24&#45;&gt;Node25</title>
<path fill="none" stroke="midnightblue" d="M824.76,-194.83C876.49,-185.91 954.98,-172.1 1023,-159 1033.58,-156.96 1044.97,-154.66 1055.6,-152.47"/>
<polygon fill="midnightblue" stroke="midnightblue" points="824.4,-191.51 815.14,-196.66 825.59,-198.41 824.4,-191.51"/>
</g>
<!-- Node26 -->
<g id="node26" class="node">
<title>Node26</title>
<g id="a_node26"><a xlink:href="_vertex_color_effect_8h.html" target="_top" xlink:title=" ">
<polygon fill="none" stroke="black" points="749.75,-126.5 749.75,-158.5 878.25,-158.5 878.25,-126.5 749.75,-126.5"/>
<text text-anchor="start" x="757.75" y="-145" font-family="Helvetica,sans-Serif" font-size="10.00">include/Effect/VertexColor</text>
<text text-anchor="middle" x="814" y="-133" font-family="Helvetica,sans-Serif" font-size="10.00">Effect.h</text>
</a>
</g>
</g>
<!-- Node24&#45;&gt;Node26 -->
<g id="edge45" class="edge">
<title>Node24&#45;&gt;Node26</title>
<path fill="none" stroke="midnightblue" d="M781.07,-187.16C787.93,-178.07 796.24,-167.05 802.8,-158.35"/>
<polygon fill="midnightblue" stroke="midnightblue" points="777.82,-184.67 774.59,-194.76 783.41,-188.88 777.82,-184.67"/>
</g>
<!-- Node25&#45;&gt;Node6 -->
<g id="edge42" class="edge">
<title>Node25&#45;&gt;Node6</title>
<path fill="none" stroke="midnightblue" d="M1062.24,-129.02C1030.16,-117.83 983.01,-101.37 948.9,-89.47"/>
<polygon fill="midnightblue" stroke="midnightblue" points="1060.91,-132.61 1071.5,-132.6 1063.22,-126 1060.91,-132.61"/>
</g>
<!-- Node25&#45;&gt;Node8 -->
<g id="edge43" class="edge">
<title>Node25&#45;&gt;Node8</title>
<path fill="none" stroke="midnightblue" d="M1098,-121.86C1098,-111.49 1098,-98.97 1098,-89.41"/>
<polygon fill="midnightblue" stroke="midnightblue" points="1094.5,-121.74 1098,-131.74 1101.5,-121.74 1094.5,-121.74"/>
</g>
<!-- Node26&#45;&gt;Node7 -->
<g id="edge46" class="edge">
<title>Node26&#45;&gt;Node7</title>
<path fill="none" stroke="midnightblue" d="M788.97,-119.44C777.77,-109.56 764.85,-98.17 754.82,-89.33"/>
<polygon fill="midnightblue" stroke="midnightblue" points="786.32,-121.64 796.13,-125.63 790.95,-116.39 786.32,-121.64"/>
</g>
<!-- Node27&#45;&gt;Node24 -->
<g id="edge52" class="edge">
<title>Node27&#45;&gt;Node24</title>
<path fill="none" stroke="midnightblue" d="M750.64,-243.23C755.1,-233.79 760.33,-222.72 763.88,-215.21"/>
<polygon fill="midnightblue" stroke="midnightblue" points="747.17,-241.37 746.06,-251.91 753.5,-244.36 747.17,-241.37"/>
</g>
<!-- Node29&#45;&gt;Node3 -->
<g id="edge60" class="edge">
<title>Node29&#45;&gt;Node3</title>
<path fill="none" stroke="midnightblue" d="M953.99,-241.91C959.25,-216.01 968.32,-171.44 972.18,-152.47"/>
<polygon fill="midnightblue" stroke="midnightblue" points="950.37,-241.13 951.8,-251.63 957.23,-242.53 950.37,-241.13"/>
</g>
<!-- Node29&#45;&gt;Node24 -->
<g id="edge61" class="edge">
<title>Node29&#45;&gt;Node24</title>
<path fill="none" stroke="midnightblue" d="M909.87,-249.37C875.96,-239.13 828.17,-224.68 797.63,-215.46"/>
<polygon fill="midnightblue" stroke="midnightblue" points="908.77,-253 919.35,-252.54 910.79,-246.3 908.77,-253"/>
</g>
</g>
</svg>
