<?xml version="1.0" encoding="UTF-8" standalone="no"?>
<!DOCTYPE svg PUBLIC "-//W3C//DTD SVG 1.1//EN"
 "http://www.w3.org/Graphics/SVG/1.1/DTD/svg11.dtd">
<!-- Generated by graphviz version 8.1.0 (20230707.0739)
 -->
<!-- Title: include/Miniball.h Pages: 1 -->
<svg width="292pt" height="86pt"
 viewBox="0.00 0.00 291.75 86.00" xmlns="http://www.w3.org/2000/svg" xmlns:xlink="http://www.w3.org/1999/xlink">
<g id="graph0" class="graph" transform="scale(1 1) rotate(0) translate(4 82)">
<title>include/Miniball.h</title>
<!-- Node1 -->
<g id="node1" class="node">
<title>Node1</title>
<g id="a_node1"><a xlink:title=" ">
<polygon fill="#bfbfbf" stroke="black" points="108.62,-57.5 108.62,-77.5 199.62,-77.5 199.62,-57.5 108.62,-57.5"/>
<text text-anchor="middle" x="154.12" y="-64" font-family="Helvetica,sans-Serif" font-size="10.00">include/Miniball.h</text>
</a>
</g>
</g>
<!-- Node2 -->
<g id="node2" class="node">
<title>Node2</title>
<g id="a_node2"><a xlink:title=" ">
<polygon fill="none" stroke="#bfbfbf" points="0,-0.5 0,-20.5 48.25,-20.5 48.25,-0.5 0,-0.5"/>
<text text-anchor="middle" x="24.12" y="-7" font-family="Helvetica,sans-Serif" font-size="10.00">cassert</text>
</a>
</g>
</g>
<!-- Node1&#45;&gt;Node2 -->
<g id="edge1" class="edge">
<title>Node1&#45;&gt;Node2</title>
<path fill="none" stroke="midnightblue" d="M132.95,-57.54C111.89,-48.63 79.35,-34.86 55.33,-24.7"/>
<polygon fill="midnightblue" stroke="midnightblue" points="56.87,-21.13 46.29,-20.46 54.14,-27.58 56.87,-21.13"/>
</g>
<!-- Node3 -->
<g id="node3" class="node">
<title>Node3</title>
<g id="a_node3"><a xlink:title=" ">
<polygon fill="none" stroke="#bfbfbf" points="66.25,-0.5 66.25,-20.5 122,-20.5 122,-0.5 66.25,-0.5"/>
<text text-anchor="middle" x="94.12" y="-7" font-family="Helvetica,sans-Serif" font-size="10.00">algorithm</text>
</a>
</g>
</g>
<!-- Node1&#45;&gt;Node3 -->
<g id="edge2" class="edge">
<title>Node1&#45;&gt;Node3</title>
<path fill="none" stroke="midnightblue" d="M144.48,-57.66C135.7,-49.61 122.51,-37.52 111.83,-27.73"/>
<polygon fill="midnightblue" stroke="midnightblue" points="114.68,-25.67 104.94,-21.5 109.95,-30.83 114.68,-25.67"/>
</g>
<!-- Node4 -->
<g id="node4" class="node">
<title>Node4</title>
<g id="a_node4"><a xlink:title=" ">
<polygon fill="none" stroke="#bfbfbf" points="139.72,-0.5 139.72,-20.5 168.53,-20.5 168.53,-0.5 139.72,-0.5"/>
<text text-anchor="middle" x="154.1" y="-7" font-family="Helvetica,sans-Serif" font-size="10.00">list</text>
</a>
</g>
</g>
<!-- Node1&#45;&gt;Node4 -->
<g id="edge3" class="edge">
<title>Node1&#45;&gt;Node4</title>
<path fill="none" stroke="midnightblue" d="M154.12,-57.91C154.12,-50.76 154.12,-40.32 154.12,-31.15"/>
<polygon fill="midnightblue" stroke="midnightblue" points="157.63,-31.21 154.12,-21.21 150.63,-31.21 157.63,-31.21"/>
</g>
<!-- Node5 -->
<g id="node5" class="node">
<title>Node5</title>
<g id="a_node5"><a xlink:title=" ">
<polygon fill="none" stroke="#bfbfbf" points="186.12,-0.5 186.12,-20.5 226.12,-20.5 226.12,-0.5 186.12,-0.5"/>
<text text-anchor="middle" x="206.12" y="-7" font-family="Helvetica,sans-Serif" font-size="10.00">ctime</text>
</a>
</g>
</g>
<!-- Node1&#45;&gt;Node5 -->
<g id="edge4" class="edge">
<title>Node1&#45;&gt;Node5</title>
<path fill="none" stroke="midnightblue" d="M162.25,-57.91C169.76,-49.96 181.13,-37.94 190.41,-28.12"/>
<polygon fill="midnightblue" stroke="midnightblue" points="192.56,-30.89 196.89,-21.21 187.47,-26.08 192.56,-30.89"/>
</g>
<!-- Node6 -->
<g id="node6" class="node">
<title>Node6</title>
<g id="a_node6"><a xlink:title=" ">
<polygon fill="none" stroke="#bfbfbf" points="244.5,-0.5 244.5,-20.5 283.75,-20.5 283.75,-0.5 244.5,-0.5"/>
<text text-anchor="middle" x="264.12" y="-7" font-family="Helvetica,sans-Serif" font-size="10.00">limits</text>
</a>
</g>
</g>
<!-- Node1&#45;&gt;Node6 -->
<g id="edge5" class="edge">
<title>Node1&#45;&gt;Node6</title>
<path fill="none" stroke="midnightblue" d="M171.8,-57.66C189.25,-48.94 216.21,-35.46 236.5,-25.31"/>
<polygon fill="midnightblue" stroke="midnightblue" points="237.75,-28.1 245.13,-20.5 234.62,-21.84 237.75,-28.1"/>
</g>
</g>
</svg>
