<?xml version="1.0" encoding="UTF-8" standalone="no"?>
<!DOCTYPE svg PUBLIC "-//W3C//DTD SVG 1.1//EN"
 "http://www.w3.org/Graphics/SVG/1.1/DTD/svg11.dtd">
<!-- Generated by graphviz version 8.1.0 (20230707.0739)
 -->
<!-- Title: src/Mouse.cpp Pages: 1 -->
<svg width="447pt" height="257pt"
 viewBox="0.00 0.00 447.00 257.00" xmlns="http://www.w3.org/2000/svg" xmlns:xlink="http://www.w3.org/1999/xlink">
<g id="graph0" class="graph" transform="scale(1 1) rotate(0) translate(4 253)">
<title>src/Mouse.cpp</title>
<!-- Node1 -->
<g id="node1" class="node">
<title>Node1</title>
<g id="a_node1"><a xlink:title=" ">
<polygon fill="#bfbfbf" stroke="black" points="164.62,-228.5 164.62,-248.5 245.12,-248.5 245.12,-228.5 164.62,-228.5"/>
<text text-anchor="middle" x="204.88" y="-235" font-family="Helvetica,sans-Serif" font-size="10.00">src/Mouse.cpp</text>
</a>
</g>
</g>
<!-- Node2 -->
<g id="node2" class="node">
<title>Node2</title>
<g id="a_node2"><a xlink:href="_mouse_8h.html" target="_top" xlink:title=" ">
<polygon fill="none" stroke="black" points="206.12,-171.5 206.12,-191.5 259.62,-191.5 259.62,-171.5 206.12,-171.5"/>
<text text-anchor="middle" x="232.88" y="-178" font-family="Helvetica,sans-Serif" font-size="10.00">Mouse.h</text>
</a>
</g>
</g>
<!-- Node1&#45;&gt;Node2 -->
<g id="edge1" class="edge">
<title>Node1&#45;&gt;Node2</title>
<path fill="none" stroke="midnightblue" d="M209.25,-228.91C213.05,-221.44 218.68,-210.38 223.49,-200.93"/>
<polygon fill="midnightblue" stroke="midnightblue" points="227.02,-202.71 228.44,-192.21 220.78,-199.54 227.02,-202.71"/>
</g>
<!-- Node3 -->
<g id="node3" class="node">
<title>Node3</title>
<g id="a_node3"><a xlink:href="_vector2_8h.html" target="_top" xlink:title=" ">
<polygon fill="none" stroke="black" points="117.75,-114.5 117.75,-134.5 238,-134.5 238,-114.5 117.75,-114.5"/>
<text text-anchor="middle" x="177.88" y="-121" font-family="Helvetica,sans-Serif" font-size="10.00">LinearAlgebra/Vector2.h</text>
</a>
</g>
</g>
<!-- Node1&#45;&gt;Node3 -->
<g id="edge21" class="edge">
<title>Node1&#45;&gt;Node3</title>
<path fill="none" stroke="midnightblue" d="M202.76,-228.71C198.42,-210.72 188.44,-169.32 182.52,-144.77"/>
<polygon fill="midnightblue" stroke="midnightblue" points="185.73,-144.15 179.98,-135.25 178.92,-145.79 185.73,-144.15"/>
</g>
<!-- Node2&#45;&gt;Node3 -->
<g id="edge2" class="edge">
<title>Node2&#45;&gt;Node3</title>
<path fill="none" stroke="midnightblue" d="M224.28,-171.91C216.26,-163.88 204.07,-151.69 194.2,-141.82"/>
<polygon fill="midnightblue" stroke="midnightblue" points="197.14,-139.81 187.59,-135.21 192.19,-144.76 197.14,-139.81"/>
</g>
<!-- Node15 -->
<g id="node15" class="node">
<title>Node15</title>
<g id="a_node15"><a xlink:title=" ">
<polygon fill="none" stroke="#bfbfbf" points="255.75,-114.5 255.75,-134.5 298,-134.5 298,-114.5 255.75,-114.5"/>
<text text-anchor="middle" x="276.88" y="-121" font-family="Helvetica,sans-Serif" font-size="10.00">queue</text>
</a>
</g>
</g>
<!-- Node2&#45;&gt;Node15 -->
<g id="edge20" class="edge">
<title>Node2&#45;&gt;Node15</title>
<path fill="none" stroke="midnightblue" d="M239.75,-171.91C245.98,-164.12 255.34,-152.42 263.1,-142.71"/>
<polygon fill="midnightblue" stroke="midnightblue" points="266.39,-145.21 269.9,-135.21 260.92,-140.84 266.39,-145.21"/>
</g>
<!-- Node4 -->
<g id="node4" class="node">
<title>Node4</title>
<g id="a_node4"><a xlink:title=" ">
<polygon fill="none" stroke="#bfbfbf" points="0,-0.5 0,-20.5 37.75,-20.5 37.75,-0.5 0,-0.5"/>
<text text-anchor="middle" x="18.88" y="-7" font-family="Helvetica,sans-Serif" font-size="10.00">array</text>
</a>
</g>
</g>
<!-- Node3&#45;&gt;Node4 -->
<g id="edge3" class="edge">
<title>Node3&#45;&gt;Node4</title>
<path fill="none" stroke="midnightblue" d="M134.22,-114.55C109.66,-107.78 79.66,-96.4 57.88,-78 42.72,-65.2 32.04,-44.93 25.73,-30.13"/>
<polygon fill="midnightblue" stroke="midnightblue" points="28.7,-29.1 21.76,-21.09 22.19,-31.68 28.7,-29.1"/>
</g>
<!-- Node5 -->
<g id="node5" class="node">
<title>Node5</title>
<g id="a_node5"><a xlink:title=" ">
<polygon fill="none" stroke="#bfbfbf" points="344.12,-57.5 344.12,-77.5 397.62,-77.5 397.62,-57.5 344.12,-57.5"/>
<text text-anchor="middle" x="370.88" y="-64" font-family="Helvetica,sans-Serif" font-size="10.00">compare</text>
</a>
</g>
</g>
<!-- Node3&#45;&gt;Node5 -->
<g id="edge4" class="edge">
<title>Node3&#45;&gt;Node5</title>
<path fill="none" stroke="midnightblue" d="M209.31,-114.54C243.53,-104.79 298.19,-89.21 334.3,-78.92"/>
<polygon fill="midnightblue" stroke="midnightblue" points="334.76,-82.15 343.42,-76.04 332.84,-75.41 334.76,-82.15"/>
</g>
<!-- Node6 -->
<g id="node6" class="node">
<title>Node6</title>
<g id="a_node6"><a xlink:title=" ">
<polygon fill="none" stroke="#bfbfbf" points="61.12,-0.5 61.12,-20.5 108.62,-20.5 108.62,-0.5 61.12,-0.5"/>
<text text-anchor="middle" x="84.88" y="-7" font-family="Helvetica,sans-Serif" font-size="10.00">cstddef</text>
</a>
</g>
</g>
<!-- Node3&#45;&gt;Node6 -->
<g id="edge5" class="edge">
<title>Node3&#45;&gt;Node6</title>
<path fill="none" stroke="midnightblue" d="M122.43,-114.58C101.05,-108.14 78.71,-97.06 65.88,-78 56.06,-63.41 63.69,-43.75 72.02,-29.6"/>
<polygon fill="midnightblue" stroke="midnightblue" points="75.47,-31.71 77.97,-21.41 69.6,-27.9 75.47,-31.71"/>
</g>
<!-- Node7 -->
<g id="node7" class="node">
<title>Node7</title>
<g id="a_node7"><a xlink:title=" ">
<polygon fill="none" stroke="#bfbfbf" points="130.12,-0.5 130.12,-20.5 183.62,-20.5 183.62,-0.5 130.12,-0.5"/>
<text text-anchor="middle" x="156.88" y="-7" font-family="Helvetica,sans-Serif" font-size="10.00">iostream</text>
</a>
</g>
</g>
<!-- Node3&#45;&gt;Node7 -->
<g id="edge6" class="edge">
<title>Node3&#45;&gt;Node7</title>
<path fill="none" stroke="midnightblue" d="M188.95,-114.63C203.26,-102.04 225.16,-78.15 214.88,-57 208.58,-44.05 196.61,-33.7 185.18,-26.16"/>
<polygon fill="midnightblue" stroke="midnightblue" points="187.2,-22.68 176.84,-20.49 183.57,-28.67 187.2,-22.68"/>
</g>
<!-- Node8 -->
<g id="node8" class="node">
<title>Node8</title>
<g id="a_node8"><a xlink:href="_math_8h.html" target="_top" xlink:title=" ">
<polygon fill="none" stroke="black" points="261.88,-57.5 261.88,-77.5 307.88,-77.5 307.88,-57.5 261.88,-57.5"/>
<text text-anchor="middle" x="284.88" y="-64" font-family="Helvetica,sans-Serif" font-size="10.00">Math.h</text>
</a>
</g>
</g>
<!-- Node3&#45;&gt;Node8 -->
<g id="edge7" class="edge">
<title>Node3&#45;&gt;Node8</title>
<path fill="none" stroke="midnightblue" d="M195.07,-114.66C211.97,-105.97 238.03,-92.58 257.73,-82.45"/>
<polygon fill="midnightblue" stroke="midnightblue" points="259.08,-85.18 266.37,-77.5 255.88,-78.96 259.08,-85.18"/>
</g>
<!-- Node13 -->
<g id="node13" class="node">
<title>Node13</title>
<g id="a_node13"><a xlink:href="_matrix2_8h.html" target="_top" xlink:title=" ">
<polygon fill="none" stroke="black" points="149.62,-57.5 149.62,-77.5 206.12,-77.5 206.12,-57.5 149.62,-57.5"/>
<text text-anchor="middle" x="177.88" y="-64" font-family="Helvetica,sans-Serif" font-size="10.00">Matrix2.h</text>
</a>
</g>
</g>
<!-- Node3&#45;&gt;Node13 -->
<g id="edge13" class="edge">
<title>Node3&#45;&gt;Node13</title>
<path fill="none" stroke="midnightblue" d="M177.88,-114.91C177.88,-107.76 177.88,-97.32 177.88,-88.15"/>
<polygon fill="midnightblue" stroke="midnightblue" points="181.38,-88.21 177.88,-78.21 174.38,-88.21 181.38,-88.21"/>
</g>
<!-- Node14 -->
<g id="node14" class="node">
<title>Node14</title>
<g id="a_node14"><a xlink:href="_matrix3_8h.html" target="_top" xlink:title=" ">
<polygon fill="none" stroke="black" points="74.62,-57.5 74.62,-77.5 131.12,-77.5 131.12,-57.5 74.62,-57.5"/>
<text text-anchor="middle" x="102.88" y="-64" font-family="Helvetica,sans-Serif" font-size="10.00">Matrix3.h</text>
</a>
</g>
</g>
<!-- Node3&#45;&gt;Node14 -->
<g id="edge15" class="edge">
<title>Node3&#45;&gt;Node14</title>
<path fill="none" stroke="midnightblue" d="M165.82,-114.66C154.52,-106.37 137.37,-93.8 123.83,-83.87"/>
<polygon fill="midnightblue" stroke="midnightblue" points="126.28,-80.59 116.14,-77.5 122.14,-86.23 126.28,-80.59"/>
</g>
<!-- Node8&#45;&gt;Node8 -->
<g id="edge8" class="edge">
<title>Node8&#45;&gt;Node8</title>
<path fill="none" stroke="midnightblue" d="M303.43,-77.43C314.93,-79.83 325.88,-76.52 325.88,-67.5 325.88,-61.44 320.93,-57.96 314.2,-57.05"/>
<polygon fill="midnightblue" stroke="midnightblue" points="314.25,-53.59 304.43,-57.57 314.58,-60.59 314.25,-53.59"/>
</g>
<!-- Node9 -->
<g id="node9" class="node">
<title>Node9</title>
<g id="a_node9"><a xlink:title=" ">
<polygon fill="none" stroke="#bfbfbf" points="201.38,-0.5 201.38,-20.5 244.38,-20.5 244.38,-0.5 201.38,-0.5"/>
<text text-anchor="middle" x="222.88" y="-7" font-family="Helvetica,sans-Serif" font-size="10.00">cmath</text>
</a>
</g>
</g>
<!-- Node8&#45;&gt;Node9 -->
<g id="edge9" class="edge">
<title>Node8&#45;&gt;Node9</title>
<path fill="none" stroke="midnightblue" d="M274.91,-57.66C265.84,-49.61 252.21,-37.52 241.17,-27.73"/>
<polygon fill="midnightblue" stroke="midnightblue" points="243.82,-25.52 234.02,-21.5 239.18,-30.75 243.82,-25.52"/>
</g>
<!-- Node10 -->
<g id="node10" class="node">
<title>Node10</title>
<g id="a_node10"><a xlink:title=" ">
<polygon fill="none" stroke="#bfbfbf" points="262.25,-0.5 262.25,-20.5 301.5,-20.5 301.5,-0.5 262.25,-0.5"/>
<text text-anchor="middle" x="281.88" y="-7" font-family="Helvetica,sans-Serif" font-size="10.00">limits</text>
</a>
</g>
</g>
<!-- Node8&#45;&gt;Node10 -->
<g id="edge10" class="edge">
<title>Node8&#45;&gt;Node10</title>
<path fill="none" stroke="midnightblue" d="M284.41,-57.91C284.02,-50.76 283.45,-40.32 282.95,-31.15"/>
<polygon fill="midnightblue" stroke="midnightblue" points="286.39,-31.01 282.35,-21.21 279.4,-31.39 286.39,-31.01"/>
</g>
<!-- Node11 -->
<g id="node11" class="node">
<title>Node11</title>
<g id="a_node11"><a xlink:title=" ">
<polygon fill="none" stroke="#bfbfbf" points="319.12,-0.5 319.12,-20.5 372.62,-20.5 372.62,-0.5 319.12,-0.5"/>
<text text-anchor="middle" x="345.88" y="-7" font-family="Helvetica,sans-Serif" font-size="10.00">numbers</text>
</a>
</g>
</g>
<!-- Node8&#45;&gt;Node11 -->
<g id="edge11" class="edge">
<title>Node8&#45;&gt;Node11</title>
<path fill="none" stroke="midnightblue" d="M294.68,-57.66C303.6,-49.61 317.01,-37.52 327.87,-27.73"/>
<polygon fill="midnightblue" stroke="midnightblue" points="329.81,-30.79 334.9,-21.5 325.13,-25.59 329.81,-30.79"/>
</g>
<!-- Node12 -->
<g id="node12" class="node">
<title>Node12</title>
<g id="a_node12"><a xlink:title=" ">
<polygon fill="none" stroke="#bfbfbf" points="390.75,-0.5 390.75,-20.5 439,-20.5 439,-0.5 390.75,-0.5"/>
<text text-anchor="middle" x="414.88" y="-7" font-family="Helvetica,sans-Serif" font-size="10.00">random</text>
</a>
</g>
</g>
<!-- Node8&#45;&gt;Node12 -->
<g id="edge12" class="edge">
<title>Node8&#45;&gt;Node12</title>
<path fill="none" stroke="midnightblue" d="M306.05,-57.54C327.11,-48.63 359.65,-34.86 383.67,-24.7"/>
<polygon fill="midnightblue" stroke="midnightblue" points="384.86,-27.58 392.71,-20.46 382.13,-21.13 384.86,-27.58"/>
</g>
<!-- Node13&#45;&gt;Node7 -->
<g id="edge14" class="edge">
<title>Node13&#45;&gt;Node7</title>
<path fill="none" stroke="midnightblue" d="M174.59,-57.91C171.77,-50.52 167.61,-39.62 164.03,-30.23"/>
<polygon fill="midnightblue" stroke="midnightblue" points="167.04,-29.31 160.2,-21.21 160.5,-31.81 167.04,-29.31"/>
</g>
<!-- Node14&#45;&gt;Node4 -->
<g id="edge16" class="edge">
<title>Node14&#45;&gt;Node4</title>
<path fill="none" stroke="midnightblue" d="M89.38,-57.66C76.47,-49.21 56.77,-36.31 41.47,-26.3"/>
<polygon fill="midnightblue" stroke="midnightblue" points="43.9,-23.05 33.62,-20.5 40.07,-28.9 43.9,-23.05"/>
</g>
<!-- Node14&#45;&gt;Node6 -->
<g id="edge18" class="edge">
<title>Node14&#45;&gt;Node6</title>
<path fill="none" stroke="midnightblue" d="M100.06,-57.91C97.67,-50.6 94.15,-39.85 91.11,-30.54"/>
<polygon fill="midnightblue" stroke="midnightblue" points="94.16,-29.63 87.73,-21.21 87.51,-31.81 94.16,-29.63"/>
</g>
<!-- Node14&#45;&gt;Node7 -->
<g id="edge19" class="edge">
<title>Node14&#45;&gt;Node7</title>
<path fill="none" stroke="midnightblue" d="M111.31,-57.91C119.19,-49.88 131.16,-37.69 140.85,-27.82"/>
<polygon fill="midnightblue" stroke="midnightblue" points="142.81,-30.8 147.32,-21.21 137.82,-25.9 142.81,-30.8"/>
</g>
<!-- Node14&#45;&gt;Node9 -->
<g id="edge17" class="edge">
<title>Node14&#45;&gt;Node9</title>
<path fill="none" stroke="midnightblue" d="M122.42,-57.54C141.69,-48.71 171.36,-35.11 193.47,-24.98"/>
<polygon fill="midnightblue" stroke="midnightblue" points="194.7,-27.8 202.34,-20.46 191.79,-21.44 194.7,-27.8"/>
</g>
</g>
</svg>
