<?xml version="1.0" encoding="UTF-8" standalone="no"?>
<!DOCTYPE svg PUBLIC "-//W3C//DTD SVG 1.1//EN"
 "http://www.w3.org/Graphics/SVG/1.1/DTD/svg11.dtd">
<!-- Generated by graphviz version 8.1.0 (20230707.0739)
 -->
<!-- Title: include/Primitives/Plane.h Pages: 1 -->
<svg width="568pt" height="269pt"
 viewBox="0.00 0.00 567.86 269.00" xmlns="http://www.w3.org/2000/svg" xmlns:xlink="http://www.w3.org/1999/xlink">
<g id="graph0" class="graph" transform="scale(1 1) rotate(0) translate(4 265)">
<title>include/Primitives/Plane.h</title>
<!-- Node1 -->
<g id="node1" class="node">
<title>Node1</title>
<g id="a_node1"><a xlink:title=" ">
<polygon fill="#bfbfbf" stroke="black" points="69.36,-228.5 69.36,-260.5 161.11,-260.5 161.11,-228.5 69.36,-228.5"/>
<text text-anchor="start" x="77.36" y="-247" font-family="Helvetica,sans-Serif" font-size="10.00">include/Primitives</text>
<text text-anchor="middle" x="115.23" y="-235" font-family="Helvetica,sans-Serif" font-size="10.00">/Plane.h</text>
</a>
</g>
</g>
<!-- Node2 -->
<g id="node2" class="node">
<title>Node2</title>
<g id="a_node2"><a xlink:href="_indexed_triangle_list_8h.html" target="_top" xlink:title=" ">
<polygon fill="none" stroke="black" points="61.48,-171.5 61.48,-191.5 168.98,-191.5 168.98,-171.5 61.48,-171.5"/>
<text text-anchor="middle" x="115.23" y="-178" font-family="Helvetica,sans-Serif" font-size="10.00">IndexedTriangleList.h</text>
</a>
</g>
</g>
<!-- Node1&#45;&gt;Node2 -->
<g id="edge1" class="edge">
<title>Node1&#45;&gt;Node2</title>
<path fill="none" stroke="midnightblue" d="M115.23,-228.73C115.23,-220.78 115.23,-210.85 115.23,-202.24"/>
<polygon fill="midnightblue" stroke="midnightblue" points="118.73,-202.28 115.23,-192.28 111.73,-202.28 118.73,-202.28"/>
</g>
<!-- Node3 -->
<g id="node3" class="node">
<title>Node3</title>
<g id="a_node3"><a xlink:href="_vector3_8h.html" target="_top" xlink:title=" ">
<polygon fill="none" stroke="black" points="11.11,-114.5 11.11,-134.5 131.36,-134.5 131.36,-114.5 11.11,-114.5"/>
<text text-anchor="middle" x="71.23" y="-121" font-family="Helvetica,sans-Serif" font-size="10.00">LinearAlgebra/Vector3.h</text>
</a>
</g>
</g>
<!-- Node1&#45;&gt;Node3 -->
<g id="edge28" class="edge">
<title>Node1&#45;&gt;Node3</title>
<path fill="none" stroke="midnightblue" d="M87.26,-228.53C74.03,-219.8 59.55,-207.45 52.23,-192 44.85,-176.44 51.71,-157.44 59.16,-143.74"/>
<polygon fill="midnightblue" stroke="midnightblue" points="62.6,-145.81 64.75,-135.44 56.6,-142.21 62.6,-145.81"/>
</g>
<!-- Node10 -->
<g id="node10" class="node">
<title>Node10</title>
<g id="a_node10"><a xlink:title=" ">
<polygon fill="none" stroke="#bfbfbf" points="63.36,-0.5 63.36,-20.5 101.11,-20.5 101.11,-0.5 63.36,-0.5"/>
<text text-anchor="middle" x="82.23" y="-7" font-family="Helvetica,sans-Serif" font-size="10.00">array</text>
</a>
</g>
</g>
<!-- Node1&#45;&gt;Node10 -->
<g id="edge29" class="edge">
<title>Node1&#45;&gt;Node10</title>
<path fill="none" stroke="midnightblue" d="M88.38,-228.6C59.66,-210.78 16.33,-177.89 2.23,-135 -4.14,-115.62 4.74,-65.5 10.23,-57 20.5,-41.1 38.49,-29.73 53.92,-22.33"/>
<polygon fill="midnightblue" stroke="midnightblue" points="54.87,-25.29 62.58,-18.03 52.02,-18.9 54.87,-25.29"/>
</g>
<!-- Node14 -->
<g id="node14" class="node">
<title>Node14</title>
<g id="a_node14"><a xlink:title=" ">
<polygon fill="none" stroke="#bfbfbf" points="161.48,-114.5 161.48,-134.5 202.98,-134.5 202.98,-114.5 161.48,-114.5"/>
<text text-anchor="middle" x="182.23" y="-121" font-family="Helvetica,sans-Serif" font-size="10.00">vector</text>
</a>
</g>
</g>
<!-- Node1&#45;&gt;Node14 -->
<g id="edge30" class="edge">
<title>Node1&#45;&gt;Node14</title>
<path fill="none" stroke="midnightblue" d="M142.49,-228.55C155.71,-219.76 170.38,-207.34 178.23,-192 185.65,-177.51 186.12,-158.84 185.04,-144.98"/>
<polygon fill="midnightblue" stroke="midnightblue" points="188.43,-144.8 183.82,-135.26 181.47,-145.59 188.43,-144.8"/>
</g>
<!-- Node15 -->
<g id="node15" class="node">
<title>Node15</title>
<g id="a_node15"><a xlink:href="_vector2_8h.html" target="_top" xlink:title=" ">
<polygon fill="none" stroke="black" points="227.11,-114.5 227.11,-134.5 347.36,-134.5 347.36,-114.5 227.11,-114.5"/>
<text text-anchor="middle" x="287.23" y="-121" font-family="Helvetica,sans-Serif" font-size="10.00">LinearAlgebra/Vector2.h</text>
</a>
</g>
</g>
<!-- Node1&#45;&gt;Node15 -->
<g id="edge19" class="edge">
<title>Node1&#45;&gt;Node15</title>
<path fill="none" stroke="midnightblue" d="M139.26,-228.51C155.26,-218.41 176.68,-204.66 195.23,-192 220.18,-174.97 248.24,-154.49 266.73,-140.8"/>
<polygon fill="midnightblue" stroke="midnightblue" points="268.53,-143.09 274.47,-134.32 264.35,-137.47 268.53,-143.09"/>
</g>
<!-- Node2&#45;&gt;Node3 -->
<g id="edge2" class="edge">
<title>Node2&#45;&gt;Node3</title>
<path fill="none" stroke="midnightblue" d="M108.36,-171.91C102.13,-164.12 92.77,-152.42 85,-142.71"/>
<polygon fill="midnightblue" stroke="midnightblue" points="87.18,-140.84 78.2,-135.21 81.72,-145.21 87.18,-140.84"/>
</g>
<!-- Node2&#45;&gt;Node14 -->
<g id="edge18" class="edge">
<title>Node2&#45;&gt;Node14</title>
<path fill="none" stroke="midnightblue" d="M126,-171.66C135.9,-163.53 150.82,-151.28 162.81,-141.44"/>
<polygon fill="midnightblue" stroke="midnightblue" points="164.76,-143.55 170.27,-134.5 160.32,-138.14 164.76,-143.55"/>
</g>
<!-- Node4 -->
<g id="node4" class="node">
<title>Node4</title>
<g id="a_node4"><a xlink:href="_math_8h.html" target="_top" xlink:title=" ">
<polygon fill="none" stroke="black" points="430.23,-57.5 430.23,-77.5 476.23,-77.5 476.23,-57.5 430.23,-57.5"/>
<text text-anchor="middle" x="453.23" y="-64" font-family="Helvetica,sans-Serif" font-size="10.00">Math.h</text>
</a>
</g>
</g>
<!-- Node3&#45;&gt;Node4 -->
<g id="edge3" class="edge">
<title>Node3&#45;&gt;Node4</title>
<path fill="none" stroke="midnightblue" d="M131.34,-114.85C212.6,-103.15 354.78,-82.67 419.47,-73.36"/>
<polygon fill="midnightblue" stroke="midnightblue" points="419.85,-76.7 429.25,-71.81 418.86,-69.77 419.85,-76.7"/>
</g>
<!-- Node9 -->
<g id="node9" class="node">
<title>Node9</title>
<g id="a_node9"><a xlink:href="_matrix3_8h.html" target="_top" xlink:title=" ">
<polygon fill="none" stroke="black" points="205.98,-57.5 205.98,-77.5 262.48,-77.5 262.48,-57.5 205.98,-57.5"/>
<text text-anchor="middle" x="234.23" y="-64" font-family="Helvetica,sans-Serif" font-size="10.00">Matrix3.h</text>
</a>
</g>
</g>
<!-- Node3&#45;&gt;Node9 -->
<g id="edge9" class="edge">
<title>Node3&#45;&gt;Node9</title>
<path fill="none" stroke="midnightblue" d="M97.78,-114.54C124.9,-105.39 167.2,-91.12 197.51,-80.89"/>
<polygon fill="midnightblue" stroke="midnightblue" points="198.34,-83.97 206.69,-77.46 196.1,-77.34 198.34,-83.97"/>
</g>
<!-- Node3&#45;&gt;Node10 -->
<g id="edge14" class="edge">
<title>Node3&#45;&gt;Node10</title>
<path fill="none" stroke="midnightblue" d="M54.19,-114.51C33.87,-102.51 4.11,-80.08 16.23,-57 24.2,-41.83 39.77,-30.73 53.78,-23.29"/>
<polygon fill="midnightblue" stroke="midnightblue" points="55.13,-26.04 62.58,-18.51 52.06,-19.75 55.13,-26.04"/>
</g>
<!-- Node11 -->
<g id="node11" class="node">
<title>Node11</title>
<g id="a_node11"><a xlink:title=" ">
<polygon fill="none" stroke="#bfbfbf" points="184.48,-0.5 184.48,-20.5 231.98,-20.5 231.98,-0.5 184.48,-0.5"/>
<text text-anchor="middle" x="208.23" y="-7" font-family="Helvetica,sans-Serif" font-size="10.00">cstddef</text>
</a>
</g>
</g>
<!-- Node3&#45;&gt;Node11 -->
<g id="edge17" class="edge">
<title>Node3&#45;&gt;Node11</title>
<path fill="none" stroke="midnightblue" d="M64.84,-114.85C55.63,-101.23 41.11,-74.56 54.23,-57 68.57,-37.81 133.05,-23.88 173.89,-16.8"/>
<polygon fill="midnightblue" stroke="midnightblue" points="174.44,-20.09 183.73,-14.98 173.29,-13.18 174.44,-20.09"/>
</g>
<!-- Node12 -->
<g id="node12" class="node">
<title>Node12</title>
<g id="a_node12"><a xlink:title=" ">
<polygon fill="none" stroke="#bfbfbf" points="250.48,-0.5 250.48,-20.5 303.98,-20.5 303.98,-0.5 250.48,-0.5"/>
<text text-anchor="middle" x="277.23" y="-7" font-family="Helvetica,sans-Serif" font-size="10.00">iostream</text>
</a>
</g>
</g>
<!-- Node3&#45;&gt;Node12 -->
<g id="edge15" class="edge">
<title>Node3&#45;&gt;Node12</title>
<path fill="none" stroke="midnightblue" d="M70.65,-114.79C70.22,-100.62 71.56,-72.57 87.23,-57 134.76,-9.78 169.62,-35.28 239.89,-21.04"/>
<polygon fill="midnightblue" stroke="midnightblue" points="240.53,-24.26 249.52,-18.64 238.99,-17.43 240.53,-24.26"/>
</g>
<!-- Node13 -->
<g id="node13" class="node">
<title>Node13</title>
<g id="a_node13"><a xlink:title=" ">
<polygon fill="none" stroke="#bfbfbf" points="96.48,-57.5 96.48,-77.5 149.98,-77.5 149.98,-57.5 96.48,-57.5"/>
<text text-anchor="middle" x="123.23" y="-64" font-family="Helvetica,sans-Serif" font-size="10.00">compare</text>
</a>
</g>
</g>
<!-- Node3&#45;&gt;Node13 -->
<g id="edge16" class="edge">
<title>Node3&#45;&gt;Node13</title>
<path fill="none" stroke="midnightblue" d="M79.36,-114.91C86.87,-106.96 98.24,-94.94 107.52,-85.12"/>
<polygon fill="midnightblue" stroke="midnightblue" points="109.66,-87.89 113.99,-78.21 104.58,-83.08 109.66,-87.89"/>
</g>
<!-- Node4&#45;&gt;Node4 -->
<g id="edge4" class="edge">
<title>Node4&#45;&gt;Node4</title>
<path fill="none" stroke="midnightblue" d="M471.78,-77.43C483.29,-79.83 494.23,-76.52 494.23,-67.5 494.23,-61.44 489.29,-57.96 482.56,-57.05"/>
<polygon fill="midnightblue" stroke="midnightblue" points="482.61,-53.59 472.78,-57.57 482.94,-60.59 482.61,-53.59"/>
</g>
<!-- Node5 -->
<g id="node5" class="node">
<title>Node5</title>
<g id="a_node5"><a xlink:title=" ">
<polygon fill="none" stroke="#bfbfbf" points="321.73,-0.5 321.73,-20.5 364.73,-20.5 364.73,-0.5 321.73,-0.5"/>
<text text-anchor="middle" x="343.23" y="-7" font-family="Helvetica,sans-Serif" font-size="10.00">cmath</text>
</a>
</g>
</g>
<!-- Node4&#45;&gt;Node5 -->
<g id="edge5" class="edge">
<title>Node4&#45;&gt;Node5</title>
<path fill="none" stroke="midnightblue" d="M435.56,-57.66C418.1,-48.94 391.15,-35.46 370.86,-25.31"/>
<polygon fill="midnightblue" stroke="midnightblue" points="372.74,-21.84 362.23,-20.5 369.61,-28.1 372.74,-21.84"/>
</g>
<!-- Node6 -->
<g id="node6" class="node">
<title>Node6</title>
<g id="a_node6"><a xlink:title=" ">
<polygon fill="none" stroke="#bfbfbf" points="520.61,-0.5 520.61,-20.5 559.86,-20.5 559.86,-0.5 520.61,-0.5"/>
<text text-anchor="middle" x="540.23" y="-7" font-family="Helvetica,sans-Serif" font-size="10.00">limits</text>
</a>
</g>
</g>
<!-- Node4&#45;&gt;Node6 -->
<g id="edge6" class="edge">
<title>Node4&#45;&gt;Node6</title>
<path fill="none" stroke="midnightblue" d="M467.21,-57.66C480.57,-49.21 500.98,-36.31 516.83,-26.3"/>
<polygon fill="midnightblue" stroke="midnightblue" points="518.42,-28.8 525,-20.5 514.68,-22.88 518.42,-28.8"/>
</g>
<!-- Node7 -->
<g id="node7" class="node">
<title>Node7</title>
<g id="a_node7"><a xlink:title=" ">
<polygon fill="none" stroke="#bfbfbf" points="382.48,-0.5 382.48,-20.5 435.98,-20.5 435.98,-0.5 382.48,-0.5"/>
<text text-anchor="middle" x="409.23" y="-7" font-family="Helvetica,sans-Serif" font-size="10.00">numbers</text>
</a>
</g>
</g>
<!-- Node4&#45;&gt;Node7 -->
<g id="edge7" class="edge">
<title>Node4&#45;&gt;Node7</title>
<path fill="none" stroke="midnightblue" d="M446.36,-57.91C440.13,-50.12 430.77,-38.42 423,-28.71"/>
<polygon fill="midnightblue" stroke="midnightblue" points="425.18,-26.84 416.2,-21.21 419.72,-31.21 425.18,-26.84"/>
</g>
<!-- Node8 -->
<g id="node8" class="node">
<title>Node8</title>
<g id="a_node8"><a xlink:title=" ">
<polygon fill="none" stroke="#bfbfbf" points="454.11,-0.5 454.11,-20.5 502.36,-20.5 502.36,-0.5 454.11,-0.5"/>
<text text-anchor="middle" x="478.23" y="-7" font-family="Helvetica,sans-Serif" font-size="10.00">random</text>
</a>
</g>
</g>
<!-- Node4&#45;&gt;Node8 -->
<g id="edge8" class="edge">
<title>Node4&#45;&gt;Node8</title>
<path fill="none" stroke="midnightblue" d="M457.14,-57.91C460.53,-50.44 465.56,-39.38 469.86,-29.93"/>
<polygon fill="midnightblue" stroke="midnightblue" points="473.32,-31.77 474.27,-21.21 466.95,-28.87 473.32,-31.77"/>
</g>
<!-- Node9&#45;&gt;Node5 -->
<g id="edge11" class="edge">
<title>Node9&#45;&gt;Node5</title>
<path fill="none" stroke="midnightblue" d="M251.74,-57.66C269.04,-48.94 295.75,-35.46 315.85,-25.31"/>
<polygon fill="midnightblue" stroke="midnightblue" points="317.05,-28.13 324.4,-20.5 313.9,-21.88 317.05,-28.13"/>
</g>
<!-- Node9&#45;&gt;Node10 -->
<g id="edge10" class="edge">
<title>Node9&#45;&gt;Node10</title>
<path fill="none" stroke="midnightblue" d="M209.47,-57.54C182.47,-47.77 139.31,-32.15 110.87,-21.86"/>
<polygon fill="midnightblue" stroke="midnightblue" points="112.35,-18.31 101.75,-18.2 109.97,-24.9 112.35,-18.31"/>
</g>
<!-- Node9&#45;&gt;Node11 -->
<g id="edge12" class="edge">
<title>Node9&#45;&gt;Node11</title>
<path fill="none" stroke="midnightblue" d="M230.17,-57.91C226.64,-50.44 221.41,-39.38 216.94,-29.93"/>
<polygon fill="midnightblue" stroke="midnightblue" points="219.79,-28.76 212.35,-21.21 213.46,-31.75 219.79,-28.76"/>
</g>
<!-- Node9&#45;&gt;Node12 -->
<g id="edge13" class="edge">
<title>Node9&#45;&gt;Node12</title>
<path fill="none" stroke="midnightblue" d="M240.95,-57.91C247.04,-50.12 256.18,-38.42 263.77,-28.71"/>
<polygon fill="midnightblue" stroke="midnightblue" points="267.02,-31.25 270.42,-21.21 261.5,-26.94 267.02,-31.25"/>
</g>
<!-- Node15&#45;&gt;Node4 -->
<g id="edge20" class="edge">
<title>Node15&#45;&gt;Node4</title>
<path fill="none" stroke="midnightblue" d="M314.27,-114.54C343.2,-104.96 389.1,-89.75 420.16,-79.46"/>
<polygon fill="midnightblue" stroke="midnightblue" points="421.08,-82.51 429.48,-76.04 418.88,-75.86 421.08,-82.51"/>
</g>
<!-- Node15&#45;&gt;Node9 -->
<g id="edge23" class="edge">
<title>Node15&#45;&gt;Node9</title>
<path fill="none" stroke="midnightblue" d="M278.95,-114.91C271.29,-106.96 259.71,-94.94 250.24,-85.12"/>
<polygon fill="midnightblue" stroke="midnightblue" points="253.09,-82.99 243.63,-78.21 248.05,-87.84 253.09,-82.99"/>
</g>
<!-- Node15&#45;&gt;Node10 -->
<g id="edge24" class="edge">
<title>Node15&#45;&gt;Node10</title>
<path fill="none" stroke="midnightblue" d="M268.8,-114.56C250.5,-105.6 221.71,-91.25 197.23,-78 165.43,-60.78 129.44,-39.71 106.33,-25.96"/>
<polygon fill="midnightblue" stroke="midnightblue" points="108.35,-22.5 97.97,-20.38 104.76,-28.51 108.35,-22.5"/>
</g>
<!-- Node15&#45;&gt;Node11 -->
<g id="edge26" class="edge">
<title>Node15&#45;&gt;Node11</title>
<path fill="none" stroke="midnightblue" d="M287.01,-114.54C286.28,-100.99 283.27,-74.95 271.23,-57 262.49,-43.96 248.68,-33.38 236.22,-25.71"/>
<polygon fill="midnightblue" stroke="midnightblue" points="238.46,-22.39 228.05,-20.42 234.97,-28.45 238.46,-22.39"/>
</g>
<!-- Node15&#45;&gt;Node12 -->
<g id="edge27" class="edge">
<title>Node15&#45;&gt;Node12</title>
<path fill="none" stroke="midnightblue" d="M322.92,-114.57C357.25,-104.13 401.47,-84.68 383.23,-57 375.16,-44.75 341.59,-31.61 314.36,-22.62"/>
<polygon fill="midnightblue" stroke="midnightblue" points="315.52,-19 304.93,-19.27 313.38,-25.66 315.52,-19"/>
</g>
<!-- Node15&#45;&gt;Node13 -->
<g id="edge25" class="edge">
<title>Node15&#45;&gt;Node13</title>
<path fill="none" stroke="midnightblue" d="M260.52,-114.54C233.24,-105.39 190.68,-91.12 160.17,-80.89"/>
<polygon fill="midnightblue" stroke="midnightblue" points="161.53,-77.32 150.93,-77.46 159.3,-83.95 161.53,-77.32"/>
</g>
<!-- Node16 -->
<g id="node16" class="node">
<title>Node16</title>
<g id="a_node16"><a xlink:href="_matrix2_8h.html" target="_top" xlink:title=" ">
<polygon fill="none" stroke="black" points="317.98,-57.5 317.98,-77.5 374.48,-77.5 374.48,-57.5 317.98,-57.5"/>
<text text-anchor="middle" x="346.23" y="-64" font-family="Helvetica,sans-Serif" font-size="10.00">Matrix2.h</text>
</a>
</g>
</g>
<!-- Node15&#45;&gt;Node16 -->
<g id="edge21" class="edge">
<title>Node15&#45;&gt;Node16</title>
<path fill="none" stroke="midnightblue" d="M296.71,-114.66C305.35,-106.61 318.32,-94.52 328.82,-84.73"/>
<polygon fill="midnightblue" stroke="midnightblue" points="330.65,-87.88 335.58,-78.5 325.88,-82.76 330.65,-87.88"/>
</g>
<!-- Node16&#45;&gt;Node12 -->
<g id="edge22" class="edge">
<title>Node16&#45;&gt;Node12</title>
<path fill="none" stroke="midnightblue" d="M335.15,-57.66C324.85,-49.45 309.27,-37.04 296.87,-27.15"/>
<polygon fill="midnightblue" stroke="midnightblue" points="299.52,-23.99 289.52,-20.5 295.16,-29.47 299.52,-23.99"/>
</g>
</g>
</svg>
