<?xml version="1.0" encoding="UTF-8" standalone="no"?>
<!DOCTYPE svg PUBLIC "-//W3C//DTD SVG 1.1//EN"
 "http://www.w3.org/Graphics/SVG/1.1/DTD/svg11.dtd">
<!-- Generated by graphviz version 8.1.0 (20230707.0739)
 -->
<!-- Title: include/PubeScreenTransformer.h Pages: 1 -->
<svg width="548pt" height="281pt"
 viewBox="0.00 0.00 547.50 281.00" xmlns="http://www.w3.org/2000/svg" xmlns:xlink="http://www.w3.org/1999/xlink">
<g id="graph0" class="graph" transform="scale(1 1) rotate(0) translate(4 277)">
<title>include/PubeScreenTransformer.h</title>
<!-- Node1 -->
<g id="node1" class="node">
<title>Node1</title>
<g id="a_node1"><a xlink:title=" ">
<polygon fill="#bfbfbf" stroke="black" points="227,-252.5 227,-272.5 389.25,-272.5 389.25,-252.5 227,-252.5"/>
<text text-anchor="middle" x="308.12" y="-259" font-family="Helvetica,sans-Serif" font-size="10.00">include/PubeScreenTransformer.h</text>
</a>
</g>
</g>
<!-- Node2 -->
<g id="node2" class="node">
<title>Node2</title>
<g id="a_node2"><a xlink:href="_pipeline_8h.html" target="_top" xlink:title=" ">
<polygon fill="none" stroke="black" points="261.88,-195.5 261.88,-215.5 354.38,-215.5 354.38,-195.5 261.88,-195.5"/>
<text text-anchor="middle" x="308.12" y="-202" font-family="Helvetica,sans-Serif" font-size="10.00">include/Pipeline.h</text>
</a>
</g>
</g>
<!-- Node1&#45;&gt;Node2 -->
<g id="edge1" class="edge">
<title>Node1&#45;&gt;Node2</title>
<path fill="none" stroke="midnightblue" d="M308.12,-242C308.12,-232.85 308.12,-222.39 308.12,-215.21"/>
<polygon fill="midnightblue" stroke="midnightblue" points="304.63,-241.91 308.12,-251.91 311.63,-241.91 304.63,-241.91"/>
</g>
<!-- Node3 -->
<g id="node3" class="node">
<title>Node3</title>
<g id="a_node3"><a xlink:href="_solid_effect_8h.html" target="_top" xlink:title=" ">
<polygon fill="none" stroke="black" points="0,-132.5 0,-152.5 132.25,-152.5 132.25,-132.5 0,-132.5"/>
<text text-anchor="middle" x="66.12" y="-139" font-family="Helvetica,sans-Serif" font-size="10.00">include/Effect/SolidEffect.h</text>
</a>
</g>
</g>
<!-- Node2&#45;&gt;Node3 -->
<g id="edge2" class="edge">
<title>Node2&#45;&gt;Node3</title>
<path fill="none" stroke="midnightblue" d="M262.24,-192.93C215.57,-181.17 144.22,-163.18 101.67,-152.46"/>
<polygon fill="midnightblue" stroke="midnightblue" points="261.12,-196.51 271.68,-195.56 262.84,-189.73 261.12,-196.51"/>
</g>
<!-- Node4 -->
<g id="node4" class="node">
<title>Node4</title>
<g id="a_node4"><a xlink:href="_cube_solid_scene_8h.html" target="_top" xlink:title=" ">
<polygon fill="none" stroke="black" points="73.12,-57.5 73.12,-89.5 203.12,-89.5 203.12,-57.5 73.12,-57.5"/>
<text text-anchor="start" x="81.12" y="-76" font-family="Helvetica,sans-Serif" font-size="10.00">include/Scenes/CubeSolid</text>
<text text-anchor="middle" x="138.12" y="-64" font-family="Helvetica,sans-Serif" font-size="10.00">Scene.h</text>
</a>
</g>
</g>
<!-- Node2&#45;&gt;Node4 -->
<g id="edge12" class="edge">
<title>Node2&#45;&gt;Node4</title>
<path fill="none" stroke="midnightblue" d="M251.51,-194.62C226.95,-187.97 199.26,-176.98 179.12,-159 158.09,-140.21 146.76,-108.22 141.63,-89.46"/>
<polygon fill="midnightblue" stroke="midnightblue" points="250.63,-198.26 261.18,-197.3 252.33,-191.47 250.63,-198.26"/>
</g>
<!-- Node6 -->
<g id="node6" class="node">
<title>Node6</title>
<g id="a_node6"><a xlink:href="_texture_effect_8h.html" target="_top" xlink:title=" ">
<polygon fill="none" stroke="black" points="187.75,-132.5 187.75,-152.5 330.5,-152.5 330.5,-132.5 187.75,-132.5"/>
<text text-anchor="middle" x="259.12" y="-139" font-family="Helvetica,sans-Serif" font-size="10.00">include/Effect/TextureEffect.h</text>
</a>
</g>
</g>
<!-- Node2&#45;&gt;Node6 -->
<g id="edge5" class="edge">
<title>Node2&#45;&gt;Node6</title>
<path fill="none" stroke="midnightblue" d="M294.4,-187.42C285.21,-175.97 273.48,-161.37 266.13,-152.22"/>
<polygon fill="midnightblue" stroke="midnightblue" points="292.11,-189.16 301.1,-194.76 297.57,-184.77 292.11,-189.16"/>
</g>
<!-- Node7 -->
<g id="node7" class="node">
<title>Node7</title>
<g id="a_node7"><a xlink:href="_cube_skin_scene_8h.html" target="_top" xlink:title=" ">
<polygon fill="none" stroke="black" points="221.25,-63.5 221.25,-83.5 385,-83.5 385,-63.5 221.25,-63.5"/>
<text text-anchor="middle" x="303.12" y="-70" font-family="Helvetica,sans-Serif" font-size="10.00">include/Scenes/CubeSkinScene.h</text>
</a>
</g>
</g>
<!-- Node2&#45;&gt;Node7 -->
<g id="edge11" class="edge">
<title>Node2&#45;&gt;Node7</title>
<path fill="none" stroke="midnightblue" d="M323.5,-187.24C329.63,-179.24 335.97,-169.24 339.12,-159 343.45,-144.98 343.53,-139.99 339.12,-126 333.82,-109.14 320.81,-93 311.98,-83.41"/>
<polygon fill="midnightblue" stroke="midnightblue" points="320.26,-184.67 316.61,-194.62 325.67,-189.12 320.26,-184.67"/>
</g>
<!-- Node8 -->
<g id="node8" class="node">
<title>Node8</title>
<g id="a_node8"><a xlink:href="_vertex_color_effect_8h.html" target="_top" xlink:title=" ">
<polygon fill="none" stroke="black" points="385.88,-126.5 385.88,-158.5 514.38,-158.5 514.38,-126.5 385.88,-126.5"/>
<text text-anchor="start" x="393.88" y="-145" font-family="Helvetica,sans-Serif" font-size="10.00">include/Effect/VertexColor</text>
<text text-anchor="middle" x="450.12" y="-133" font-family="Helvetica,sans-Serif" font-size="10.00">Effect.h</text>
</a>
</g>
</g>
<!-- Node2&#45;&gt;Node8 -->
<g id="edge8" class="edge">
<title>Node2&#45;&gt;Node8</title>
<path fill="none" stroke="midnightblue" d="M338.81,-191.32C361.35,-181.63 392,-168.47 415.44,-158.4"/>
<polygon fill="midnightblue" stroke="midnightblue" points="337.58,-188.47 329.77,-195.63 340.34,-194.9 337.58,-188.47"/>
</g>
<!-- Node9 -->
<g id="node9" class="node">
<title>Node9</title>
<g id="a_node9"><a xlink:href="_cube_vertex_color_scene_8h.html" target="_top" xlink:title=" ">
<polygon fill="none" stroke="black" points="402.75,-57.5 402.75,-89.5 539.5,-89.5 539.5,-57.5 402.75,-57.5"/>
<text text-anchor="start" x="410.75" y="-76" font-family="Helvetica,sans-Serif" font-size="10.00">include/Scenes/CubeVertex</text>
<text text-anchor="middle" x="471.12" y="-64" font-family="Helvetica,sans-Serif" font-size="10.00">ColorScene.h</text>
</a>
</g>
</g>
<!-- Node2&#45;&gt;Node9 -->
<g id="edge13" class="edge">
<title>Node2&#45;&gt;Node9</title>
<path fill="none" stroke="midnightblue" d="M364.89,-200.41C421.74,-195 503.55,-183.16 523.12,-159 541.46,-136.38 512.92,-106.8 491.41,-89.31"/>
<polygon fill="midnightblue" stroke="midnightblue" points="364.87,-196.99 355.23,-201.38 365.5,-203.96 364.87,-196.99"/>
</g>
<!-- Node3&#45;&gt;Node4 -->
<g id="edge3" class="edge">
<title>Node3&#45;&gt;Node4</title>
<path fill="none" stroke="midnightblue" d="M83.34,-125.48C95.11,-114.53 110.6,-100.12 122.1,-89.41"/>
<polygon fill="midnightblue" stroke="midnightblue" points="81.47,-122.37 76.54,-131.74 86.24,-127.49 81.47,-122.37"/>
</g>
<!-- Node5 -->
<g id="node5" class="node">
<title>Node5</title>
<g id="a_node5"><a xlink:href="_engine_8cpp.html" target="_top" xlink:title=" ">
<polygon fill="none" stroke="black" points="262.5,-0.5 262.5,-20.5 343.75,-20.5 343.75,-0.5 262.5,-0.5"/>
<text text-anchor="middle" x="303.12" y="-7" font-family="Helvetica,sans-Serif" font-size="10.00">src/Engine.cpp</text>
</a>
</g>
</g>
<!-- Node4&#45;&gt;Node5 -->
<g id="edge4" class="edge">
<title>Node4&#45;&gt;Node5</title>
<path fill="none" stroke="midnightblue" d="M188.79,-53.77C218.79,-42.68 255.43,-29.13 279.01,-20.42"/>
<polygon fill="midnightblue" stroke="midnightblue" points="187.65,-50.83 179.49,-57.58 190.08,-57.39 187.65,-50.83"/>
</g>
<!-- Node6&#45;&gt;Node7 -->
<g id="edge6" class="edge">
<title>Node6&#45;&gt;Node7</title>
<path fill="none" stroke="midnightblue" d="M270.75,-123.8C279.27,-110.82 290.49,-93.75 297.23,-83.48"/>
<polygon fill="midnightblue" stroke="midnightblue" points="267.44,-121.46 264.88,-131.74 273.29,-125.3 267.44,-121.46"/>
</g>
<!-- Node7&#45;&gt;Node5 -->
<g id="edge7" class="edge">
<title>Node7&#45;&gt;Node5</title>
<path fill="none" stroke="midnightblue" d="M303.12,-52.99C303.12,-41.97 303.12,-28.73 303.12,-20.22"/>
<polygon fill="midnightblue" stroke="midnightblue" points="299.63,-52.76 303.12,-62.76 306.63,-52.76 299.63,-52.76"/>
</g>
<!-- Node8&#45;&gt;Node9 -->
<g id="edge9" class="edge">
<title>Node8&#45;&gt;Node9</title>
<path fill="none" stroke="midnightblue" d="M458.06,-116.19C460.9,-107.13 464.01,-97.21 466.48,-89.33"/>
<polygon fill="midnightblue" stroke="midnightblue" points="454.44,-115.04 454.79,-125.63 461.12,-117.14 454.44,-115.04"/>
</g>
<!-- Node9&#45;&gt;Node5 -->
<g id="edge10" class="edge">
<title>Node9&#45;&gt;Node5</title>
<path fill="none" stroke="midnightblue" d="M419.94,-53.91C389.32,-42.8 351.79,-29.17 327.68,-20.42"/>
<polygon fill="midnightblue" stroke="midnightblue" points="418.43,-57.45 429.03,-57.58 420.82,-50.87 418.43,-57.45"/>
</g>
</g>
</svg>
