<?xml version="1.0" encoding="UTF-8" standalone="no"?>
<!DOCTYPE svg PUBLIC "-//W3C//DTD SVG 1.1//EN"
 "http://www.w3.org/Graphics/SVG/1.1/DTD/svg11.dtd">
<!-- Generated by graphviz version 8.1.0 (20230707.0739)
 -->
<!-- Title: include/PubeScreenTransformer.h Pages: 1 -->
<svg width="982pt" height="314pt"
 viewBox="0.00 0.00 981.62 314.00" xmlns="http://www.w3.org/2000/svg" xmlns:xlink="http://www.w3.org/1999/xlink">
<g id="graph0" class="graph" transform="scale(1 1) rotate(0) translate(4 310)">
<title>include/PubeScreenTransformer.h</title>
<!-- Node1 -->
<g id="node1" class="node">
<title>Node1</title>
<g id="a_node1"><a xlink:title=" ">
<polygon fill="#bfbfbf" stroke="black" points="474.88,-285.5 474.88,-305.5 637.12,-305.5 637.12,-285.5 474.88,-285.5"/>
<text text-anchor="middle" x="556" y="-292" font-family="Helvetica,sans-Serif" font-size="10.00">include/PubeScreenTransformer.h</text>
</a>
</g>
</g>
<!-- Node2 -->
<g id="node2" class="node">
<title>Node2</title>
<g id="a_node2"><a xlink:href="_graphics_8h.html" target="_top" xlink:title=" ">
<polygon fill="none" stroke="black" points="413.38,-228.5 413.38,-248.5 476.62,-248.5 476.62,-228.5 413.38,-228.5"/>
<text text-anchor="middle" x="445" y="-235" font-family="Helvetica,sans-Serif" font-size="10.00">Graphics.h</text>
</a>
</g>
</g>
<!-- Node1&#45;&gt;Node2 -->
<g id="edge1" class="edge">
<title>Node1&#45;&gt;Node2</title>
<path fill="none" stroke="midnightblue" d="M538.17,-285.66C520.55,-276.94 493.35,-263.46 472.88,-253.31"/>
<polygon fill="midnightblue" stroke="midnightblue" points="474.67,-249.8 464.16,-248.5 471.56,-256.07 474.67,-249.8"/>
</g>
<!-- Node22 -->
<g id="node22" class="node">
<title>Node22</title>
<g id="a_node22"><a xlink:href="_vector3_8h.html" target="_top" xlink:title=" ">
<polygon fill="none" stroke="black" points="638.88,-114.5 638.88,-134.5 759.12,-134.5 759.12,-114.5 638.88,-114.5"/>
<text text-anchor="middle" x="699" y="-121" font-family="Helvetica,sans-Serif" font-size="10.00">LinearAlgebra/Vector3.h</text>
</a>
</g>
</g>
<!-- Node1&#45;&gt;Node22 -->
<g id="edge47" class="edge">
<title>Node1&#45;&gt;Node22</title>
<path fill="none" stroke="midnightblue" d="M568.42,-285.56C590.58,-269.12 637.36,-232.07 667,-192 677.94,-177.21 686.68,-158.08 692.24,-144.14"/>
<polygon fill="midnightblue" stroke="midnightblue" points="695.72,-145.85 696,-135.26 689.17,-143.36 695.72,-145.85"/>
</g>
<!-- Node3 -->
<g id="node3" class="node">
<title>Node3</title>
<g id="a_node3"><a xlink:href="_engine_exception_8h.html" target="_top" xlink:title=" ">
<polygon fill="none" stroke="black" points="130.12,-114.5 130.12,-134.5 227.88,-134.5 227.88,-114.5 130.12,-114.5"/>
<text text-anchor="middle" x="179" y="-121" font-family="Helvetica,sans-Serif" font-size="10.00">EngineException.h</text>
</a>
</g>
</g>
<!-- Node2&#45;&gt;Node3 -->
<g id="edge2" class="edge">
<title>Node2&#45;&gt;Node3</title>
<path fill="none" stroke="midnightblue" d="M413.68,-233.23C377.28,-227.42 316.07,-215.02 268,-192 240.45,-178.8 212.92,-156.48 195.93,-141.38"/>
<polygon fill="midnightblue" stroke="midnightblue" points="198.82,-139.36 189.07,-135.22 194.11,-144.54 198.82,-139.36"/>
</g>
<!-- Node5 -->
<g id="node5" class="node">
<title>Node5</title>
<g id="a_node5"><a xlink:href="_colors_8h.html" target="_top" xlink:title=" ">
<polygon fill="none" stroke="black" points="0,-114.5 0,-134.5 52,-134.5 52,-114.5 0,-114.5"/>
<text text-anchor="middle" x="26" y="-121" font-family="Helvetica,sans-Serif" font-size="10.00">Colors.h</text>
</a>
</g>
</g>
<!-- Node2&#45;&gt;Node5 -->
<g id="edge4" class="edge">
<title>Node2&#45;&gt;Node5</title>
<path fill="none" stroke="midnightblue" d="M413.48,-235.69C339.43,-231.06 156.48,-217.34 101,-192 76.12,-180.64 53.53,-158.16 39.78,-142.5"/>
<polygon fill="midnightblue" stroke="midnightblue" points="41.9,-140.58 32.76,-135.21 36.55,-145.1 41.9,-140.58"/>
</g>
<!-- Node6 -->
<g id="node6" class="node">
<title>Node6</title>
<g id="a_node6"><a xlink:href="_g_d_i_plus_manager_8h.html" target="_top" xlink:title=" ">
<polygon fill="none" stroke="black" points="110.12,-171.5 110.12,-191.5 207.88,-191.5 207.88,-171.5 110.12,-171.5"/>
<text text-anchor="middle" x="159" y="-178" font-family="Helvetica,sans-Serif" font-size="10.00">GDIPlusManager.h</text>
</a>
</g>
</g>
<!-- Node2&#45;&gt;Node6 -->
<g id="edge5" class="edge">
<title>Node2&#45;&gt;Node6</title>
<path fill="none" stroke="midnightblue" d="M413.57,-231.46C366.17,-222.34 275.63,-204.93 216.29,-193.52"/>
<polygon fill="midnightblue" stroke="midnightblue" points="217.07,-189.91 206.59,-191.46 215.75,-196.78 217.07,-189.91"/>
</g>
<!-- Node10 -->
<g id="node10" class="node">
<title>Node10</title>
<g id="a_node10"><a xlink:href="_vector2_8h.html" target="_top" xlink:title=" ">
<polygon fill="none" stroke="black" points="500.88,-114.5 500.88,-134.5 621.12,-134.5 621.12,-114.5 500.88,-114.5"/>
<text text-anchor="middle" x="561" y="-121" font-family="Helvetica,sans-Serif" font-size="10.00">LinearAlgebra/Vector2.h</text>
</a>
</g>
</g>
<!-- Node2&#45;&gt;Node10 -->
<g id="edge9" class="edge">
<title>Node2&#45;&gt;Node10</title>
<path fill="none" stroke="midnightblue" d="M439.73,-228.86C432.2,-215.27 420.55,-188.64 433,-171 446.44,-151.95 468.59,-140.83 490.71,-134.36"/>
<polygon fill="midnightblue" stroke="midnightblue" points="491.4,-137.53 500.19,-131.61 489.62,-130.76 491.4,-137.53"/>
</g>
<!-- Node2&#45;&gt;Node22 -->
<g id="edge27" class="edge">
<title>Node2&#45;&gt;Node22</title>
<path fill="none" stroke="midnightblue" d="M476.61,-236.22C517.52,-233.29 589.76,-223.64 642,-192 661.84,-179.98 678.28,-158.67 688.32,-143.41"/>
<polygon fill="midnightblue" stroke="midnightblue" points="691.62,-145.74 693.97,-135.41 685.69,-142.02 691.62,-145.74"/>
</g>
<!-- Node23 -->
<g id="node23" class="node">
<title>Node23</title>
<g id="a_node23"><a xlink:href="_surface_8h.html" target="_top" xlink:title=" ">
<polygon fill="none" stroke="black" points="277.38,-171.5 277.38,-191.5 334.62,-191.5 334.62,-171.5 277.38,-171.5"/>
<text text-anchor="middle" x="306" y="-178" font-family="Helvetica,sans-Serif" font-size="10.00">Surface.h</text>
</a>
</g>
</g>
<!-- Node2&#45;&gt;Node23 -->
<g id="edge34" class="edge">
<title>Node2&#45;&gt;Node23</title>
<path fill="none" stroke="midnightblue" d="M422.36,-228.54C399.64,-219.55 364.42,-205.62 338.68,-195.43"/>
<polygon fill="midnightblue" stroke="midnightblue" points="340.22,-191.88 329.63,-191.46 337.64,-198.39 340.22,-191.88"/>
</g>
<!-- Node27 -->
<g id="node27" class="node">
<title>Node27</title>
<g id="a_node27"><a xlink:href="_tex_vertex_8h.html" target="_top" xlink:title=" ">
<polygon fill="none" stroke="black" points="441.75,-171.5 441.75,-191.5 510.25,-191.5 510.25,-171.5 441.75,-171.5"/>
<text text-anchor="middle" x="476" y="-178" font-family="Helvetica,sans-Serif" font-size="10.00">TexVertex.h</text>
</a>
</g>
</g>
<!-- Node2&#45;&gt;Node27 -->
<g id="edge42" class="edge">
<title>Node2&#45;&gt;Node27</title>
<path fill="none" stroke="midnightblue" d="M449.84,-228.91C454.1,-221.36 460.42,-210.14 465.79,-200.62"/>
<polygon fill="midnightblue" stroke="midnightblue" points="469.23,-202.65 471.09,-192.21 463.13,-199.21 469.23,-202.65"/>
</g>
<!-- Node28 -->
<g id="node28" class="node">
<title>Node28</title>
<g id="a_node28"><a xlink:title=" ">
<polygon fill="none" stroke="#bfbfbf" points="528.75,-171.5 528.75,-191.5 579.25,-191.5 579.25,-171.5 528.75,-171.5"/>
<text text-anchor="middle" x="554" y="-178" font-family="Helvetica,sans-Serif" font-size="10.00">d3d11.h</text>
</a>
</g>
</g>
<!-- Node2&#45;&gt;Node28 -->
<g id="edge45" class="edge">
<title>Node2&#45;&gt;Node28</title>
<path fill="none" stroke="midnightblue" d="M462.51,-228.66C479.81,-219.94 506.52,-206.46 526.62,-196.31"/>
<polygon fill="midnightblue" stroke="midnightblue" points="527.82,-199.13 535.17,-191.5 524.66,-192.88 527.82,-199.13"/>
</g>
<!-- Node29 -->
<g id="node29" class="node">
<title>Node29</title>
<g id="a_node29"><a xlink:title=" ">
<polygon fill="none" stroke="#bfbfbf" points="596.88,-171.5 596.88,-191.5 633.12,-191.5 633.12,-171.5 596.88,-171.5"/>
<text text-anchor="middle" x="615" y="-178" font-family="Helvetica,sans-Serif" font-size="10.00">wrl.h</text>
</a>
</g>
</g>
<!-- Node2&#45;&gt;Node29 -->
<g id="edge46" class="edge">
<title>Node2&#45;&gt;Node29</title>
<path fill="none" stroke="midnightblue" d="M474.12,-228.52C500.98,-220.17 542.21,-207.2 586.59,-192.4"/>
<polygon fill="midnightblue" stroke="midnightblue" points="587.65,-195.41 596.02,-188.91 585.42,-188.77 587.65,-195.41"/>
</g>
<!-- Node4 -->
<g id="node4" class="node">
<title>Node4</title>
<g id="a_node4"><a xlink:title=" ">
<polygon fill="none" stroke="#bfbfbf" points="196,-57.5 196,-77.5 236,-77.5 236,-57.5 196,-57.5"/>
<text text-anchor="middle" x="216" y="-64" font-family="Helvetica,sans-Serif" font-size="10.00">string</text>
</a>
</g>
</g>
<!-- Node3&#45;&gt;Node4 -->
<g id="edge3" class="edge">
<title>Node3&#45;&gt;Node4</title>
<path fill="none" stroke="midnightblue" d="M184.78,-114.91C189.91,-107.28 197.57,-95.9 204.01,-86.32"/>
<polygon fill="midnightblue" stroke="midnightblue" points="207.46,-88.47 210.14,-78.21 201.65,-84.56 207.46,-88.47"/>
</g>
<!-- Node7 -->
<g id="node7" class="node">
<title>Node7</title>
<g id="a_node7"><a xlink:href="_win_8h.html" target="_top" xlink:title=" ">
<polygon fill="none" stroke="black" points="70.25,-114.5 70.25,-134.5 111.75,-134.5 111.75,-114.5 70.25,-114.5"/>
<text text-anchor="middle" x="91" y="-121" font-family="Helvetica,sans-Serif" font-size="10.00">Win.h</text>
</a>
</g>
</g>
<!-- Node6&#45;&gt;Node7 -->
<g id="edge6" class="edge">
<title>Node6&#45;&gt;Node7</title>
<path fill="none" stroke="midnightblue" d="M148.07,-171.66C137.92,-163.45 122.58,-151.04 110.35,-141.15"/>
<polygon fill="midnightblue" stroke="midnightblue" points="113.1,-138.06 103.12,-134.5 108.7,-143.51 113.1,-138.06"/>
</g>
<!-- Node8 -->
<g id="node8" class="node">
<title>Node8</title>
<g id="a_node8"><a xlink:title=" ">
<polygon fill="none" stroke="#bfbfbf" points="19.12,-57.5 19.12,-77.5 86.88,-77.5 86.88,-57.5 19.12,-57.5"/>
<text text-anchor="middle" x="53" y="-64" font-family="Helvetica,sans-Serif" font-size="10.00">sdkddkver.h</text>
</a>
</g>
</g>
<!-- Node7&#45;&gt;Node8 -->
<g id="edge7" class="edge">
<title>Node7&#45;&gt;Node8</title>
<path fill="none" stroke="midnightblue" d="M85.06,-114.91C79.74,-107.2 71.77,-95.66 65.1,-86.02"/>
<polygon fill="midnightblue" stroke="midnightblue" points="67.59,-84.45 59.02,-78.21 61.83,-88.43 67.59,-84.45"/>
</g>
<!-- Node9 -->
<g id="node9" class="node">
<title>Node9</title>
<g id="a_node9"><a xlink:title=" ">
<polygon fill="none" stroke="#bfbfbf" points="105,-57.5 105,-77.5 169,-77.5 169,-57.5 105,-57.5"/>
<text text-anchor="middle" x="137" y="-64" font-family="Helvetica,sans-Serif" font-size="10.00">Windows.h</text>
</a>
</g>
</g>
<!-- Node7&#45;&gt;Node9 -->
<g id="edge8" class="edge">
<title>Node7&#45;&gt;Node9</title>
<path fill="none" stroke="midnightblue" d="M98.19,-114.91C104.77,-107.04 114.69,-95.18 122.85,-85.42"/>
<polygon fill="midnightblue" stroke="midnightblue" points="125.98,-88.13 129.71,-78.21 120.61,-83.64 125.98,-88.13"/>
</g>
<!-- Node11 -->
<g id="node11" class="node">
<title>Node11</title>
<g id="a_node11"><a xlink:title=" ">
<polygon fill="none" stroke="#bfbfbf" points="680.12,-0.5 680.12,-20.5 717.88,-20.5 717.88,-0.5 680.12,-0.5"/>
<text text-anchor="middle" x="699" y="-7" font-family="Helvetica,sans-Serif" font-size="10.00">array</text>
</a>
</g>
</g>
<!-- Node10&#45;&gt;Node11 -->
<g id="edge10" class="edge">
<title>Node10&#45;&gt;Node11</title>
<path fill="none" stroke="midnightblue" d="M556.23,-114.76C549.46,-101.04 539.22,-74.21 552,-57 583.07,-15.14 614.6,-35.24 670.09,-20.9"/>
<polygon fill="midnightblue" stroke="midnightblue" points="670.72,-24.07 679.35,-17.92 668.77,-17.35 670.72,-24.07"/>
</g>
<!-- Node12 -->
<g id="node12" class="node">
<title>Node12</title>
<g id="a_node12"><a xlink:title=" ">
<polygon fill="none" stroke="#bfbfbf" points="561.25,-57.5 561.25,-77.5 614.75,-77.5 614.75,-57.5 561.25,-57.5"/>
<text text-anchor="middle" x="588" y="-64" font-family="Helvetica,sans-Serif" font-size="10.00">compare</text>
</a>
</g>
</g>
<!-- Node10&#45;&gt;Node12 -->
<g id="edge11" class="edge">
<title>Node10&#45;&gt;Node12</title>
<path fill="none" stroke="midnightblue" d="M565.22,-114.91C568.88,-107.44 574.31,-96.38 578.95,-86.93"/>
<polygon fill="midnightblue" stroke="midnightblue" points="582.46,-88.73 583.72,-78.21 576.17,-85.65 582.46,-88.73"/>
</g>
<!-- Node13 -->
<g id="node13" class="node">
<title>Node13</title>
<g id="a_node13"><a xlink:title=" ">
<polygon fill="none" stroke="#bfbfbf" points="614.25,-0.5 614.25,-20.5 661.75,-20.5 661.75,-0.5 614.25,-0.5"/>
<text text-anchor="middle" x="638" y="-7" font-family="Helvetica,sans-Serif" font-size="10.00">cstddef</text>
</a>
</g>
</g>
<!-- Node10&#45;&gt;Node13 -->
<g id="edge12" class="edge">
<title>Node10&#45;&gt;Node13</title>
<path fill="none" stroke="midnightblue" d="M548.13,-114.54C531.2,-101.62 505.14,-77.13 519,-57 537.93,-29.49 575.92,-18.61 603.9,-14.3"/>
<polygon fill="midnightblue" stroke="midnightblue" points="603.99,-17.69 613.45,-12.91 603.08,-10.75 603.99,-17.69"/>
</g>
<!-- Node14 -->
<g id="node14" class="node">
<title>Node14</title>
<g id="a_node14"><a xlink:title=" ">
<polygon fill="none" stroke="#bfbfbf" points="477.25,-0.5 477.25,-20.5 530.75,-20.5 530.75,-0.5 477.25,-0.5"/>
<text text-anchor="middle" x="504" y="-7" font-family="Helvetica,sans-Serif" font-size="10.00">iostream</text>
</a>
</g>
</g>
<!-- Node10&#45;&gt;Node14 -->
<g id="edge13" class="edge">
<title>Node10&#45;&gt;Node14</title>
<path fill="none" stroke="midnightblue" d="M503.89,-114.55C463.54,-106.93 414.49,-94.56 402,-78 380.92,-50.04 429.83,-30.42 466.97,-20.05"/>
<polygon fill="midnightblue" stroke="midnightblue" points="467.78,-23.2 476.55,-17.26 465.99,-16.43 467.78,-23.2"/>
</g>
<!-- Node15 -->
<g id="node15" class="node">
<title>Node15</title>
<g id="a_node15"><a xlink:href="_math_8h.html" target="_top" xlink:title=" ">
<polygon fill="none" stroke="black" points="821,-57.5 821,-77.5 867,-77.5 867,-57.5 821,-57.5"/>
<text text-anchor="middle" x="844" y="-64" font-family="Helvetica,sans-Serif" font-size="10.00">Math.h</text>
</a>
</g>
</g>
<!-- Node10&#45;&gt;Node15 -->
<g id="edge14" class="edge">
<title>Node10&#45;&gt;Node15</title>
<path fill="none" stroke="midnightblue" d="M607.1,-114.54C664.18,-103.45 760.03,-84.82 810.53,-75"/>
<polygon fill="midnightblue" stroke="midnightblue" points="811.03,-78.28 820.18,-72.94 809.69,-71.41 811.03,-78.28"/>
</g>
<!-- Node20 -->
<g id="node20" class="node">
<title>Node20</title>
<g id="a_node20"><a xlink:href="_matrix2_8h.html" target="_top" xlink:title=" ">
<polygon fill="none" stroke="black" points="410.75,-57.5 410.75,-77.5 467.25,-77.5 467.25,-57.5 410.75,-57.5"/>
<text text-anchor="middle" x="439" y="-64" font-family="Helvetica,sans-Serif" font-size="10.00">Matrix2.h</text>
</a>
</g>
</g>
<!-- Node10&#45;&gt;Node20 -->
<g id="edge20" class="edge">
<title>Node10&#45;&gt;Node20</title>
<path fill="none" stroke="midnightblue" d="M541.13,-114.54C521.54,-105.71 491.37,-92.11 468.89,-81.98"/>
<polygon fill="midnightblue" stroke="midnightblue" points="470.42,-78.37 459.86,-77.46 467.54,-84.76 470.42,-78.37"/>
</g>
<!-- Node21 -->
<g id="node21" class="node">
<title>Node21</title>
<g id="a_node21"><a xlink:href="_matrix3_8h.html" target="_top" xlink:title=" ">
<polygon fill="none" stroke="black" points="670.75,-57.5 670.75,-77.5 727.25,-77.5 727.25,-57.5 670.75,-57.5"/>
<text text-anchor="middle" x="699" y="-64" font-family="Helvetica,sans-Serif" font-size="10.00">Matrix3.h</text>
</a>
</g>
</g>
<!-- Node10&#45;&gt;Node21 -->
<g id="edge22" class="edge">
<title>Node10&#45;&gt;Node21</title>
<path fill="none" stroke="midnightblue" d="M583.48,-114.54C606.03,-105.55 641,-91.62 666.56,-81.43"/>
<polygon fill="midnightblue" stroke="midnightblue" points="667.54,-84.41 675.53,-77.46 664.95,-77.91 667.54,-84.41"/>
</g>
<!-- Node15&#45;&gt;Node15 -->
<g id="edge15" class="edge">
<title>Node15&#45;&gt;Node15</title>
<path fill="none" stroke="midnightblue" d="M862.55,-77.43C874.05,-79.83 885,-76.52 885,-67.5 885,-61.44 880.06,-57.96 873.33,-57.05"/>
<polygon fill="midnightblue" stroke="midnightblue" points="873.37,-53.59 863.55,-57.57 873.71,-60.59 873.37,-53.59"/>
</g>
<!-- Node16 -->
<g id="node16" class="node">
<title>Node16</title>
<g id="a_node16"><a xlink:title=" ">
<polygon fill="none" stroke="#bfbfbf" points="735.5,-0.5 735.5,-20.5 778.5,-20.5 778.5,-0.5 735.5,-0.5"/>
<text text-anchor="middle" x="757" y="-7" font-family="Helvetica,sans-Serif" font-size="10.00">cmath</text>
</a>
</g>
</g>
<!-- Node15&#45;&gt;Node16 -->
<g id="edge16" class="edge">
<title>Node15&#45;&gt;Node16</title>
<path fill="none" stroke="midnightblue" d="M830.02,-57.66C816.66,-49.21 796.25,-36.31 780.41,-26.3"/>
<polygon fill="midnightblue" stroke="midnightblue" points="782.56,-22.88 772.23,-20.5 778.81,-28.8 782.56,-22.88"/>
</g>
<!-- Node17 -->
<g id="node17" class="node">
<title>Node17</title>
<g id="a_node17"><a xlink:title=" ">
<polygon fill="none" stroke="#bfbfbf" points="934.38,-0.5 934.38,-20.5 973.62,-20.5 973.62,-0.5 934.38,-0.5"/>
<text text-anchor="middle" x="954" y="-7" font-family="Helvetica,sans-Serif" font-size="10.00">limits</text>
</a>
</g>
</g>
<!-- Node15&#45;&gt;Node17 -->
<g id="edge17" class="edge">
<title>Node15&#45;&gt;Node17</title>
<path fill="none" stroke="midnightblue" d="M861.67,-57.66C879.13,-48.94 906.08,-35.46 926.37,-25.31"/>
<polygon fill="midnightblue" stroke="midnightblue" points="927.63,-28.1 935.01,-20.5 924.5,-21.84 927.63,-28.1"/>
</g>
<!-- Node18 -->
<g id="node18" class="node">
<title>Node18</title>
<g id="a_node18"><a xlink:title=" ">
<polygon fill="none" stroke="#bfbfbf" points="796.25,-0.5 796.25,-20.5 849.75,-20.5 849.75,-0.5 796.25,-0.5"/>
<text text-anchor="middle" x="823" y="-7" font-family="Helvetica,sans-Serif" font-size="10.00">numbers</text>
</a>
</g>
</g>
<!-- Node15&#45;&gt;Node18 -->
<g id="edge18" class="edge">
<title>Node15&#45;&gt;Node18</title>
<path fill="none" stroke="midnightblue" d="M840.72,-57.91C837.9,-50.52 833.74,-39.62 830.15,-30.23"/>
<polygon fill="midnightblue" stroke="midnightblue" points="833.16,-29.31 826.33,-21.21 826.62,-31.81 833.16,-29.31"/>
</g>
<!-- Node19 -->
<g id="node19" class="node">
<title>Node19</title>
<g id="a_node19"><a xlink:title=" ">
<polygon fill="none" stroke="#bfbfbf" points="867.88,-0.5 867.88,-20.5 916.12,-20.5 916.12,-0.5 867.88,-0.5"/>
<text text-anchor="middle" x="892" y="-7" font-family="Helvetica,sans-Serif" font-size="10.00">random</text>
</a>
</g>
</g>
<!-- Node15&#45;&gt;Node19 -->
<g id="edge19" class="edge">
<title>Node15&#45;&gt;Node19</title>
<path fill="none" stroke="midnightblue" d="M851.5,-57.91C858.36,-50.04 868.72,-38.18 877.24,-28.42"/>
<polygon fill="midnightblue" stroke="midnightblue" points="880.46,-31.05 884.39,-21.21 875.18,-26.45 880.46,-31.05"/>
</g>
<!-- Node20&#45;&gt;Node14 -->
<g id="edge21" class="edge">
<title>Node20&#45;&gt;Node14</title>
<path fill="none" stroke="midnightblue" d="M449.44,-57.66C459.05,-49.53 473.53,-37.28 485.16,-27.44"/>
<polygon fill="midnightblue" stroke="midnightblue" points="486.99,-29.63 492.37,-20.5 482.47,-24.29 486.99,-29.63"/>
</g>
<!-- Node21&#45;&gt;Node11 -->
<g id="edge23" class="edge">
<title>Node21&#45;&gt;Node11</title>
<path fill="none" stroke="midnightblue" d="M699,-57.91C699,-50.76 699,-40.32 699,-31.15"/>
<polygon fill="midnightblue" stroke="midnightblue" points="702.5,-31.21 699,-21.21 695.5,-31.21 702.5,-31.21"/>
</g>
<!-- Node21&#45;&gt;Node13 -->
<g id="edge25" class="edge">
<title>Node21&#45;&gt;Node13</title>
<path fill="none" stroke="midnightblue" d="M689.2,-57.66C680.27,-49.61 666.86,-37.52 656,-27.73"/>
<polygon fill="midnightblue" stroke="midnightblue" points="658.75,-25.59 648.98,-21.5 654.06,-30.79 658.75,-25.59"/>
</g>
<!-- Node21&#45;&gt;Node14 -->
<g id="edge26" class="edge">
<title>Node21&#45;&gt;Node14</title>
<path fill="none" stroke="midnightblue" d="M671.06,-58.62C636.79,-48.95 578.6,-32.54 540.74,-21.86"/>
<polygon fill="midnightblue" stroke="midnightblue" points="542.21,-18.36 531.64,-19.01 540.31,-25.1 542.21,-18.36"/>
</g>
<!-- Node21&#45;&gt;Node16 -->
<g id="edge24" class="edge">
<title>Node21&#45;&gt;Node16</title>
<path fill="none" stroke="midnightblue" d="M708.32,-57.66C716.72,-49.69 729.31,-37.76 739.57,-28.02"/>
<polygon fill="midnightblue" stroke="midnightblue" points="741.66,-30.92 746.51,-21.5 736.85,-25.84 741.66,-30.92"/>
</g>
<!-- Node22&#45;&gt;Node11 -->
<g id="edge28" class="edge">
<title>Node22&#45;&gt;Node11</title>
<path fill="none" stroke="midnightblue" d="M723.83,-114.62C739.86,-107.43 759.46,-95.58 769,-78 781.65,-54.69 751.93,-34.8 727.38,-23"/>
<polygon fill="midnightblue" stroke="midnightblue" points="729.2,-19.53 718.65,-18.59 726.32,-25.9 729.2,-19.53"/>
</g>
<!-- Node22&#45;&gt;Node12 -->
<g id="edge30" class="edge">
<title>Node22&#45;&gt;Node12</title>
<path fill="none" stroke="midnightblue" d="M681.17,-114.66C663.55,-105.94 636.35,-92.46 615.88,-82.31"/>
<polygon fill="midnightblue" stroke="midnightblue" points="617.67,-78.8 607.16,-77.5 614.56,-85.07 617.67,-78.8"/>
</g>
<!-- Node22&#45;&gt;Node13 -->
<g id="edge31" class="edge">
<title>Node22&#45;&gt;Node13</title>
<path fill="none" stroke="midnightblue" d="M710.23,-114.7C725.3,-101.78 748.79,-77.05 736,-57 728.5,-45.26 696.72,-31.82 671.35,-22.61"/>
<polygon fill="midnightblue" stroke="midnightblue" points="672.9,-19.1 662.31,-19.06 670.57,-25.7 672.9,-19.1"/>
</g>
<!-- Node22&#45;&gt;Node14 -->
<g id="edge29" class="edge">
<title>Node22&#45;&gt;Node14</title>
<path fill="none" stroke="midnightblue" d="M691.04,-114.61C678.16,-100.67 651.4,-73.57 624,-57 597.93,-41.23 565.46,-29.33 540.88,-21.66"/>
<polygon fill="midnightblue" stroke="midnightblue" points="542.11,-18.07 531.53,-18.53 540.09,-24.77 542.11,-18.07"/>
</g>
<!-- Node22&#45;&gt;Node15 -->
<g id="edge32" class="edge">
<title>Node22&#45;&gt;Node15</title>
<path fill="none" stroke="midnightblue" d="M722.62,-114.54C746.71,-105.4 784.27,-91.16 811.23,-80.93"/>
<polygon fill="midnightblue" stroke="midnightblue" points="812.24,-83.91 820.35,-77.09 809.75,-77.37 812.24,-83.91"/>
</g>
<!-- Node22&#45;&gt;Node21 -->
<g id="edge33" class="edge">
<title>Node22&#45;&gt;Node21</title>
<path fill="none" stroke="midnightblue" d="M699,-114.91C699,-107.76 699,-97.32 699,-88.15"/>
<polygon fill="midnightblue" stroke="midnightblue" points="702.5,-88.21 699,-78.21 695.5,-88.21 702.5,-88.21"/>
</g>
<!-- Node23&#45;&gt;Node3 -->
<g id="edge37" class="edge">
<title>Node23&#45;&gt;Node3</title>
<path fill="none" stroke="midnightblue" d="M285.31,-171.54C264.74,-162.63 232.95,-148.86 209.48,-138.7"/>
<polygon fill="midnightblue" stroke="midnightblue" points="211.25,-135.22 200.68,-134.46 208.46,-141.64 211.25,-135.22"/>
</g>
<!-- Node23&#45;&gt;Node4 -->
<g id="edge40" class="edge">
<title>Node23&#45;&gt;Node4</title>
<path fill="none" stroke="midnightblue" d="M334.37,-178.06C386.4,-172.5 488.74,-156.01 454,-114 427.99,-82.54 304.65,-72.63 246.49,-69.68"/>
<polygon fill="midnightblue" stroke="midnightblue" points="246.92,-66.15 236.77,-69.17 246.6,-73.14 246.92,-66.15"/>
</g>
<!-- Node23&#45;&gt;Node5 -->
<g id="edge35" class="edge">
<title>Node23&#45;&gt;Node5</title>
<path fill="none" stroke="midnightblue" d="M277.55,-175.99C233.6,-168.86 146.36,-154.04 62.65,-135.23"/>
<polygon fill="midnightblue" stroke="midnightblue" points="63.46,-131.59 52.93,-132.79 61.91,-138.42 63.46,-131.59"/>
</g>
<!-- Node23&#45;&gt;Node7 -->
<g id="edge36" class="edge">
<title>Node23&#45;&gt;Node7</title>
<path fill="none" stroke="midnightblue" d="M277.64,-174.13C243.2,-166.27 183.12,-152.13 122.18,-135.19"/>
<polygon fill="midnightblue" stroke="midnightblue" points="123.18,-131.55 112.6,-132.22 121.29,-138.29 123.18,-131.55"/>
</g>
<!-- Node24 -->
<g id="node24" class="node">
<title>Node24</title>
<g id="a_node24"><a xlink:title=" ">
<polygon fill="none" stroke="#bfbfbf" points="246.38,-114.5 246.38,-134.5 297.62,-134.5 297.62,-114.5 246.38,-114.5"/>
<text text-anchor="middle" x="272" y="-121" font-family="Helvetica,sans-Serif" font-size="10.00">assert.h</text>
</a>
</g>
</g>
<!-- Node23&#45;&gt;Node24 -->
<g id="edge38" class="edge">
<title>Node23&#45;&gt;Node24</title>
<path fill="none" stroke="midnightblue" d="M300.69,-171.91C295.97,-164.28 288.94,-152.9 283.01,-143.32"/>
<polygon fill="midnightblue" stroke="midnightblue" points="285.62,-141.88 277.39,-135.21 279.67,-145.56 285.62,-141.88"/>
</g>
<!-- Node25 -->
<g id="node25" class="node">
<title>Node25</title>
<g id="a_node25"><a xlink:title=" ">
<polygon fill="none" stroke="#bfbfbf" points="315.38,-114.5 315.38,-134.5 366.62,-134.5 366.62,-114.5 315.38,-114.5"/>
<text text-anchor="middle" x="341" y="-121" font-family="Helvetica,sans-Serif" font-size="10.00">memory</text>
</a>
</g>
</g>
<!-- Node23&#45;&gt;Node25 -->
<g id="edge39" class="edge">
<title>Node23&#45;&gt;Node25</title>
<path fill="none" stroke="midnightblue" d="M311.47,-171.91C316.32,-164.28 323.56,-152.9 329.66,-143.32"/>
<polygon fill="midnightblue" stroke="midnightblue" points="333.04,-145.53 335.45,-135.21 327.13,-141.77 333.04,-145.53"/>
</g>
<!-- Node26 -->
<g id="node26" class="node">
<title>Node26</title>
<g id="a_node26"><a xlink:title=" ">
<polygon fill="none" stroke="#bfbfbf" points="384.88,-114.5 384.88,-134.5 445.12,-134.5 445.12,-114.5 384.88,-114.5"/>
<text text-anchor="middle" x="415" y="-121" font-family="Helvetica,sans-Serif" font-size="10.00">filesystem</text>
</a>
</g>
</g>
<!-- Node23&#45;&gt;Node26 -->
<g id="edge41" class="edge">
<title>Node23&#45;&gt;Node26</title>
<path fill="none" stroke="midnightblue" d="M323.51,-171.66C340.81,-162.94 367.52,-149.46 387.62,-139.31"/>
<polygon fill="midnightblue" stroke="midnightblue" points="388.82,-142.13 396.17,-134.5 385.66,-135.88 388.82,-142.13"/>
</g>
<!-- Node27&#45;&gt;Node10 -->
<g id="edge43" class="edge">
<title>Node27&#45;&gt;Node10</title>
<path fill="none" stroke="midnightblue" d="M489.66,-171.66C502.71,-163.21 522.65,-150.31 538.13,-140.3"/>
<polygon fill="midnightblue" stroke="midnightblue" points="539.6,-142.87 546.09,-134.5 535.8,-136.99 539.6,-142.87"/>
</g>
<!-- Node27&#45;&gt;Node22 -->
<g id="edge44" class="edge">
<title>Node27&#45;&gt;Node22</title>
<path fill="none" stroke="midnightblue" d="M509.87,-172.15C547.75,-162.8 609.38,-147.6 651.93,-137.11"/>
<polygon fill="midnightblue" stroke="midnightblue" points="652.71,-140.27 661.59,-134.48 651.04,-133.48 652.71,-140.27"/>
</g>
</g>
</svg>
