<?xml version="1.0" encoding="UTF-8" standalone="no"?>
<!DOCTYPE svg PUBLIC "-//W3C//DTD SVG 1.1//EN"
 "http://www.w3.org/Graphics/SVG/1.1/DTD/svg11.dtd">
<!-- Generated by graphviz version 8.1.0 (20230707.0739)
 -->
<!-- Title: include/PubeScreenTransformer.h Pages: 1 -->
<svg width="738pt" height="371pt"
 viewBox="0.00 0.00 737.75 371.00" xmlns="http://www.w3.org/2000/svg" xmlns:xlink="http://www.w3.org/1999/xlink">
<g id="graph0" class="graph" transform="scale(1 1) rotate(0) translate(4 367)">
<title>include/PubeScreenTransformer.h</title>
<!-- Node1 -->
<g id="node1" class="node">
<title>Node1</title>
<g id="a_node1"><a xlink:title=" ">
<polygon fill="#bfbfbf" stroke="black" points="120.75,-342.5 120.75,-362.5 283,-362.5 283,-342.5 120.75,-342.5"/>
<text text-anchor="middle" x="201.88" y="-349" font-family="Helvetica,sans-Serif" font-size="10.00">include/PubeScreenTransformer.h</text>
</a>
</g>
</g>
<!-- Node2 -->
<g id="node2" class="node">
<title>Node2</title>
<g id="a_node2"><a xlink:href="_graphics_8h.html" target="_top" xlink:title=" ">
<polygon fill="none" stroke="black" points="246.25,-285.5 246.25,-305.5 309.5,-305.5 309.5,-285.5 246.25,-285.5"/>
<text text-anchor="middle" x="277.88" y="-292" font-family="Helvetica,sans-Serif" font-size="10.00">Graphics.h</text>
</a>
</g>
</g>
<!-- Node1&#45;&gt;Node2 -->
<g id="edge1" class="edge">
<title>Node1&#45;&gt;Node2</title>
<path fill="none" stroke="midnightblue" d="M214.09,-342.66C225.54,-334.37 242.92,-321.8 256.64,-311.87"/>
<polygon fill="midnightblue" stroke="midnightblue" points="258.39,-314.2 264.44,-305.5 254.29,-308.52 258.39,-314.2"/>
</g>
<!-- Node6 -->
<g id="node6" class="node">
<title>Node6</title>
<g id="a_node6"><a xlink:href="_vector3_8h.html" target="_top" xlink:title=" ">
<polygon fill="none" stroke="black" points="103.75,-114.5 103.75,-134.5 224,-134.5 224,-114.5 103.75,-114.5"/>
<text text-anchor="middle" x="163.88" y="-121" font-family="Helvetica,sans-Serif" font-size="10.00">LinearAlgebra/Vector3.h</text>
</a>
</g>
</g>
<!-- Node1&#45;&gt;Node6 -->
<g id="edge36" class="edge">
<title>Node1&#45;&gt;Node6</title>
<path fill="none" stroke="midnightblue" d="M198.13,-342.73C188.27,-319 162.04,-251.33 156.88,-192 155.49,-176.06 157.62,-158.01 159.89,-144.74"/>
<polygon fill="midnightblue" stroke="midnightblue" points="163.48,-145.58 161.91,-135.1 156.61,-144.27 163.48,-145.58"/>
</g>
<!-- Node3 -->
<g id="node3" class="node">
<title>Node3</title>
<g id="a_node3"><a xlink:href="_engine_exception_8h.html" target="_top" xlink:title=" ">
<polygon fill="none" stroke="black" points="262,-171.5 262,-191.5 359.75,-191.5 359.75,-171.5 262,-171.5"/>
<text text-anchor="middle" x="310.88" y="-178" font-family="Helvetica,sans-Serif" font-size="10.00">EngineException.h</text>
</a>
</g>
</g>
<!-- Node2&#45;&gt;Node3 -->
<g id="edge2" class="edge">
<title>Node2&#45;&gt;Node3</title>
<path fill="none" stroke="midnightblue" d="M284.75,-285.67C291.17,-276.9 300.41,-262.81 304.88,-249 309.79,-233.8 311.15,-215.69 311.36,-202.21"/>
<polygon fill="midnightblue" stroke="midnightblue" points="314.86,-202.33 311.3,-192.35 307.86,-202.37 314.86,-202.33"/>
</g>
<!-- Node2&#45;&gt;Node6 -->
<g id="edge5" class="edge">
<title>Node2&#45;&gt;Node6</title>
<path fill="none" stroke="midnightblue" d="M246.43,-287.6C225.11,-281.24 198.13,-269.56 182.88,-249 160.11,-218.32 159.67,-171.41 161.62,-145.11"/>
<polygon fill="midnightblue" stroke="midnightblue" points="165.18,-145.6 162.64,-135.32 158.22,-144.94 165.18,-145.6"/>
</g>
<!-- Node17 -->
<g id="node17" class="node">
<title>Node17</title>
<g id="a_node17"><a xlink:href="_g_d_i_plus_manager_8h.html" target="_top" xlink:title=" ">
<polygon fill="none" stroke="black" points="547,-228.5 547,-248.5 644.75,-248.5 644.75,-228.5 547,-228.5"/>
<text text-anchor="middle" x="595.88" y="-235" font-family="Helvetica,sans-Serif" font-size="10.00">GDIPlusManager.h</text>
</a>
</g>
</g>
<!-- Node2&#45;&gt;Node17 -->
<g id="edge21" class="edge">
<title>Node2&#45;&gt;Node17</title>
<path fill="none" stroke="midnightblue" d="M309.24,-289.08C362.04,-279.94 469.5,-261.36 536.8,-249.72"/>
<polygon fill="midnightblue" stroke="midnightblue" points="536.98,-253.07 546.24,-247.91 535.79,-246.17 536.98,-253.07"/>
</g>
<!-- Node21 -->
<g id="node21" class="node">
<title>Node21</title>
<g id="a_node21"><a xlink:href="_surface_8h.html" target="_top" xlink:title=" ">
<polygon fill="none" stroke="black" points="386.25,-228.5 386.25,-248.5 443.5,-248.5 443.5,-228.5 386.25,-228.5"/>
<text text-anchor="middle" x="414.88" y="-235" font-family="Helvetica,sans-Serif" font-size="10.00">Surface.h</text>
</a>
</g>
</g>
<!-- Node2&#45;&gt;Node21 -->
<g id="edge25" class="edge">
<title>Node2&#45;&gt;Node21</title>
<path fill="none" stroke="midnightblue" d="M300.19,-285.54C322.58,-276.55 357.3,-262.62 382.67,-252.43"/>
<polygon fill="midnightblue" stroke="midnightblue" points="383.59,-255.43 391.57,-248.46 380.98,-248.93 383.59,-255.43"/>
</g>
<!-- Node26 -->
<g id="node26" class="node">
<title>Node26</title>
<g id="a_node26"><a xlink:title=" ">
<polygon fill="none" stroke="#bfbfbf" points="191.62,-228.5 191.62,-248.5 242.12,-248.5 242.12,-228.5 191.62,-228.5"/>
<text text-anchor="middle" x="216.88" y="-235" font-family="Helvetica,sans-Serif" font-size="10.00">d3d11.h</text>
</a>
</g>
</g>
<!-- Node2&#45;&gt;Node26 -->
<g id="edge34" class="edge">
<title>Node2&#45;&gt;Node26</title>
<path fill="none" stroke="midnightblue" d="M268.07,-285.66C259.15,-277.61 245.74,-265.52 234.88,-255.73"/>
<polygon fill="midnightblue" stroke="midnightblue" points="237.62,-253.59 227.85,-249.5 232.94,-258.79 237.62,-253.59"/>
</g>
<!-- Node27 -->
<g id="node27" class="node">
<title>Node27</title>
<g id="a_node27"><a xlink:title=" ">
<polygon fill="none" stroke="#bfbfbf" points="259.75,-228.5 259.75,-248.5 296,-248.5 296,-228.5 259.75,-228.5"/>
<text text-anchor="middle" x="277.88" y="-235" font-family="Helvetica,sans-Serif" font-size="10.00">wrl.h</text>
</a>
</g>
</g>
<!-- Node2&#45;&gt;Node27 -->
<g id="edge35" class="edge">
<title>Node2&#45;&gt;Node27</title>
<path fill="none" stroke="midnightblue" d="M277.88,-285.91C277.88,-278.76 277.88,-268.32 277.88,-259.15"/>
<polygon fill="midnightblue" stroke="midnightblue" points="281.38,-259.21 277.88,-249.21 274.38,-259.21 281.38,-259.21"/>
</g>
<!-- Node4 -->
<g id="node4" class="node">
<title>Node4</title>
<g id="a_node4"><a xlink:title=" ">
<polygon fill="none" stroke="#bfbfbf" points="367.88,-114.5 367.88,-134.5 407.88,-134.5 407.88,-114.5 367.88,-114.5"/>
<text text-anchor="middle" x="387.88" y="-121" font-family="Helvetica,sans-Serif" font-size="10.00">string</text>
</a>
</g>
</g>
<!-- Node3&#45;&gt;Node4 -->
<g id="edge3" class="edge">
<title>Node3&#45;&gt;Node4</title>
<path fill="none" stroke="midnightblue" d="M323.25,-171.66C334.85,-163.37 352.46,-150.8 366.36,-140.87"/>
<polygon fill="midnightblue" stroke="midnightblue" points="368.18,-143.16 374.28,-134.5 364.11,-137.46 368.18,-143.16"/>
</g>
<!-- Node5 -->
<g id="node5" class="node">
<title>Node5</title>
<g id="a_node5"><a xlink:title=" ">
<polygon fill="none" stroke="#bfbfbf" points="265.75,-114.5 265.75,-134.5 350,-134.5 350,-114.5 265.75,-114.5"/>
<text text-anchor="middle" x="307.88" y="-121" font-family="Helvetica,sans-Serif" font-size="10.00">source_location</text>
</a>
</g>
</g>
<!-- Node3&#45;&gt;Node5 -->
<g id="edge4" class="edge">
<title>Node3&#45;&gt;Node5</title>
<path fill="none" stroke="midnightblue" d="M310.41,-171.91C310.02,-164.76 309.45,-154.32 308.95,-145.15"/>
<polygon fill="midnightblue" stroke="midnightblue" points="312.39,-145.01 308.35,-135.21 305.4,-145.39 312.39,-145.01"/>
</g>
<!-- Node7 -->
<g id="node7" class="node">
<title>Node7</title>
<g id="a_node7"><a xlink:href="_math_8h.html" target="_top" xlink:title=" ">
<polygon fill="none" stroke="black" points="234.88,-57.5 234.88,-77.5 280.88,-77.5 280.88,-57.5 234.88,-57.5"/>
<text text-anchor="middle" x="257.88" y="-64" font-family="Helvetica,sans-Serif" font-size="10.00">Math.h</text>
</a>
</g>
</g>
<!-- Node6&#45;&gt;Node7 -->
<g id="edge6" class="edge">
<title>Node6&#45;&gt;Node7</title>
<path fill="none" stroke="midnightblue" d="M178.98,-114.66C193.55,-106.13 215.88,-93.07 233.07,-83.01"/>
<polygon fill="midnightblue" stroke="midnightblue" points="234.63,-85.57 241.5,-77.5 231.1,-79.53 234.63,-85.57"/>
</g>
<!-- Node12 -->
<g id="node12" class="node">
<title>Node12</title>
<g id="a_node12"><a xlink:href="_matrix3_8h.html" target="_top" xlink:title=" ">
<polygon fill="none" stroke="black" points="107.62,-57.5 107.62,-77.5 164.12,-77.5 164.12,-57.5 107.62,-57.5"/>
<text text-anchor="middle" x="135.88" y="-64" font-family="Helvetica,sans-Serif" font-size="10.00">Matrix3.h</text>
</a>
</g>
</g>
<!-- Node6&#45;&gt;Node12 -->
<g id="edge12" class="edge">
<title>Node6&#45;&gt;Node12</title>
<path fill="none" stroke="midnightblue" d="M159.5,-114.91C155.7,-107.44 150.07,-96.38 145.26,-86.93"/>
<polygon fill="midnightblue" stroke="midnightblue" points="147.97,-85.54 140.31,-78.21 141.73,-88.71 147.97,-85.54"/>
</g>
<!-- Node13 -->
<g id="node13" class="node">
<title>Node13</title>
<g id="a_node13"><a xlink:title=" ">
<polygon fill="none" stroke="#bfbfbf" points="0,-0.5 0,-20.5 37.75,-20.5 37.75,-0.5 0,-0.5"/>
<text text-anchor="middle" x="18.88" y="-7" font-family="Helvetica,sans-Serif" font-size="10.00">array</text>
</a>
</g>
</g>
<!-- Node6&#45;&gt;Node13 -->
<g id="edge17" class="edge">
<title>Node6&#45;&gt;Node13</title>
<path fill="none" stroke="midnightblue" d="M145.12,-114.5C128.54,-106.14 104.07,-92.77 84.88,-78 65.45,-63.05 46.02,-42.65 33.32,-28.4"/>
<polygon fill="midnightblue" stroke="midnightblue" points="35.57,-26.65 26.35,-21.43 30.3,-31.26 35.57,-26.65"/>
</g>
<!-- Node14 -->
<g id="node14" class="node">
<title>Node14</title>
<g id="a_node14"><a xlink:title=" ">
<polygon fill="none" stroke="#bfbfbf" points="56.12,-0.5 56.12,-20.5 103.62,-20.5 103.62,-0.5 56.12,-0.5"/>
<text text-anchor="middle" x="79.88" y="-7" font-family="Helvetica,sans-Serif" font-size="10.00">cstddef</text>
</a>
</g>
</g>
<!-- Node6&#45;&gt;Node14 -->
<g id="edge20" class="edge">
<title>Node6&#45;&gt;Node14</title>
<path fill="none" stroke="midnightblue" d="M144.65,-114.59C130.05,-106.87 110.55,-94.38 98.88,-78 88.97,-64.1 84.2,-45.12 81.93,-31"/>
<polygon fill="midnightblue" stroke="midnightblue" points="85.32,-30.95 80.54,-21.5 78.38,-31.87 85.32,-30.95"/>
</g>
<!-- Node15 -->
<g id="node15" class="node">
<title>Node15</title>
<g id="a_node15"><a xlink:title=" ">
<polygon fill="none" stroke="#bfbfbf" points="122.12,-0.5 122.12,-20.5 175.62,-20.5 175.62,-0.5 122.12,-0.5"/>
<text text-anchor="middle" x="148.88" y="-7" font-family="Helvetica,sans-Serif" font-size="10.00">iostream</text>
</a>
</g>
</g>
<!-- Node6&#45;&gt;Node15 -->
<g id="edge18" class="edge">
<title>Node6&#45;&gt;Node15</title>
<path fill="none" stroke="midnightblue" d="M167.12,-114.78C171.42,-101.96 177.91,-77.36 172.88,-57 170.49,-47.37 165.66,-37.53 160.95,-29.47"/>
<polygon fill="midnightblue" stroke="midnightblue" points="163.52,-27.99 155.24,-21.38 157.59,-31.71 163.52,-27.99"/>
</g>
<!-- Node16 -->
<g id="node16" class="node">
<title>Node16</title>
<g id="a_node16"><a xlink:title=" ">
<polygon fill="none" stroke="#bfbfbf" points="317.12,-57.5 317.12,-77.5 370.62,-77.5 370.62,-57.5 317.12,-57.5"/>
<text text-anchor="middle" x="343.88" y="-64" font-family="Helvetica,sans-Serif" font-size="10.00">compare</text>
</a>
</g>
</g>
<!-- Node6&#45;&gt;Node16 -->
<g id="edge19" class="edge">
<title>Node6&#45;&gt;Node16</title>
<path fill="none" stroke="midnightblue" d="M193.2,-114.54C224.21,-105.06 273.21,-90.09 306.87,-79.81"/>
<polygon fill="midnightblue" stroke="midnightblue" points="307.67,-82.92 316.21,-76.65 305.62,-76.22 307.67,-82.92"/>
</g>
<!-- Node7&#45;&gt;Node7 -->
<g id="edge7" class="edge">
<title>Node7&#45;&gt;Node7</title>
<path fill="none" stroke="midnightblue" d="M276.43,-77.43C287.93,-79.83 298.88,-76.52 298.88,-67.5 298.88,-61.44 293.93,-57.96 287.2,-57.05"/>
<polygon fill="midnightblue" stroke="midnightblue" points="287.25,-53.59 277.43,-57.57 287.58,-60.59 287.25,-53.59"/>
</g>
<!-- Node8 -->
<g id="node8" class="node">
<title>Node8</title>
<g id="a_node8"><a xlink:title=" ">
<polygon fill="none" stroke="#bfbfbf" points="193.38,-0.5 193.38,-20.5 236.38,-20.5 236.38,-0.5 193.38,-0.5"/>
<text text-anchor="middle" x="214.88" y="-7" font-family="Helvetica,sans-Serif" font-size="10.00">cmath</text>
</a>
</g>
</g>
<!-- Node7&#45;&gt;Node8 -->
<g id="edge8" class="edge">
<title>Node7&#45;&gt;Node8</title>
<path fill="none" stroke="midnightblue" d="M251.16,-57.91C245.07,-50.12 235.92,-38.42 228.33,-28.71"/>
<polygon fill="midnightblue" stroke="midnightblue" points="230.61,-26.94 221.69,-21.21 225.09,-31.25 230.61,-26.94"/>
</g>
<!-- Node9 -->
<g id="node9" class="node">
<title>Node9</title>
<g id="a_node9"><a xlink:title=" ">
<polygon fill="none" stroke="#bfbfbf" points="254.25,-0.5 254.25,-20.5 293.5,-20.5 293.5,-0.5 254.25,-0.5"/>
<text text-anchor="middle" x="273.88" y="-7" font-family="Helvetica,sans-Serif" font-size="10.00">limits</text>
</a>
</g>
</g>
<!-- Node7&#45;&gt;Node9 -->
<g id="edge9" class="edge">
<title>Node7&#45;&gt;Node9</title>
<path fill="none" stroke="midnightblue" d="M260.38,-57.91C262.5,-50.6 265.63,-39.85 268.34,-30.54"/>
<polygon fill="midnightblue" stroke="midnightblue" points="271.91,-31.79 271.34,-21.21 265.19,-29.84 271.91,-31.79"/>
</g>
<!-- Node10 -->
<g id="node10" class="node">
<title>Node10</title>
<g id="a_node10"><a xlink:title=" ">
<polygon fill="none" stroke="#bfbfbf" points="311.12,-0.5 311.12,-20.5 364.62,-20.5 364.62,-0.5 311.12,-0.5"/>
<text text-anchor="middle" x="337.88" y="-7" font-family="Helvetica,sans-Serif" font-size="10.00">numbers</text>
</a>
</g>
</g>
<!-- Node7&#45;&gt;Node10 -->
<g id="edge10" class="edge">
<title>Node7&#45;&gt;Node10</title>
<path fill="none" stroke="midnightblue" d="M270.73,-57.66C282.9,-49.29 301.43,-36.56 315.94,-26.58"/>
<polygon fill="midnightblue" stroke="midnightblue" points="317.53,-29.05 323.79,-20.5 313.56,-23.28 317.53,-29.05"/>
</g>
<!-- Node11 -->
<g id="node11" class="node">
<title>Node11</title>
<g id="a_node11"><a xlink:title=" ">
<polygon fill="none" stroke="#bfbfbf" points="382.75,-0.5 382.75,-20.5 431,-20.5 431,-0.5 382.75,-0.5"/>
<text text-anchor="middle" x="406.88" y="-7" font-family="Helvetica,sans-Serif" font-size="10.00">random</text>
</a>
</g>
</g>
<!-- Node7&#45;&gt;Node11 -->
<g id="edge11" class="edge">
<title>Node7&#45;&gt;Node11</title>
<path fill="none" stroke="midnightblue" d="M280.83,-58.03C305.44,-48.94 344.77,-34.42 372.95,-24.02"/>
<polygon fill="midnightblue" stroke="midnightblue" points="373.99,-27 382.15,-20.26 371.56,-20.44 373.99,-27"/>
</g>
<!-- Node12&#45;&gt;Node8 -->
<g id="edge14" class="edge">
<title>Node12&#45;&gt;Node8</title>
<path fill="none" stroke="midnightblue" d="M148.57,-57.66C160.59,-49.29 178.88,-36.56 193.21,-26.58"/>
<polygon fill="midnightblue" stroke="midnightblue" points="194.74,-29.08 200.95,-20.5 190.74,-23.34 194.74,-29.08"/>
</g>
<!-- Node12&#45;&gt;Node13 -->
<g id="edge13" class="edge">
<title>Node12&#45;&gt;Node13</title>
<path fill="none" stroke="midnightblue" d="M116.82,-57.54C98.01,-48.7 69.02,-35.07 47.45,-24.93"/>
<polygon fill="midnightblue" stroke="midnightblue" points="49.08,-21.36 38.54,-20.27 46.1,-27.7 49.08,-21.36"/>
</g>
<!-- Node12&#45;&gt;Node14 -->
<g id="edge15" class="edge">
<title>Node12&#45;&gt;Node14</title>
<path fill="none" stroke="midnightblue" d="M126.88,-57.66C118.76,-49.69 106.61,-37.76 96.7,-28.02"/>
<polygon fill="midnightblue" stroke="midnightblue" points="99.62,-26.01 90.04,-21.5 94.72,-31 99.62,-26.01"/>
</g>
<!-- Node12&#45;&gt;Node15 -->
<g id="edge16" class="edge">
<title>Node12&#45;&gt;Node15</title>
<path fill="none" stroke="midnightblue" d="M137.91,-57.91C139.61,-50.68 142.12,-40.09 144.3,-30.85"/>
<polygon fill="midnightblue" stroke="midnightblue" points="147.92,-31.75 146.82,-21.21 141.11,-30.14 147.92,-31.75"/>
</g>
<!-- Node18 -->
<g id="node18" class="node">
<title>Node18</title>
<g id="a_node18"><a xlink:href="_win_8h.html" target="_top" xlink:title=" ">
<polygon fill="none" stroke="black" points="633.12,-171.5 633.12,-191.5 674.62,-191.5 674.62,-171.5 633.12,-171.5"/>
<text text-anchor="middle" x="653.88" y="-178" font-family="Helvetica,sans-Serif" font-size="10.00">Win.h</text>
</a>
</g>
</g>
<!-- Node17&#45;&gt;Node18 -->
<g id="edge22" class="edge">
<title>Node17&#45;&gt;Node18</title>
<path fill="none" stroke="midnightblue" d="M605.19,-228.66C613.6,-220.69 626.18,-208.76 636.45,-199.02"/>
<polygon fill="midnightblue" stroke="midnightblue" points="638.54,-201.92 643.39,-192.5 633.72,-196.84 638.54,-201.92"/>
</g>
<!-- Node19 -->
<g id="node19" class="node">
<title>Node19</title>
<g id="a_node19"><a xlink:title=" ">
<polygon fill="none" stroke="#bfbfbf" points="662,-114.5 662,-134.5 729.75,-134.5 729.75,-114.5 662,-114.5"/>
<text text-anchor="middle" x="695.88" y="-121" font-family="Helvetica,sans-Serif" font-size="10.00">sdkddkver.h</text>
</a>
</g>
</g>
<!-- Node18&#45;&gt;Node19 -->
<g id="edge23" class="edge">
<title>Node18&#45;&gt;Node19</title>
<path fill="none" stroke="midnightblue" d="M660.44,-171.91C666.38,-164.12 675.32,-152.42 682.73,-142.71"/>
<polygon fill="midnightblue" stroke="midnightblue" points="685.93,-145.29 689.22,-135.21 680.37,-141.04 685.93,-145.29"/>
</g>
<!-- Node20 -->
<g id="node20" class="node">
<title>Node20</title>
<g id="a_node20"><a xlink:title=" ">
<polygon fill="none" stroke="#bfbfbf" points="579.88,-114.5 579.88,-134.5 643.88,-134.5 643.88,-114.5 579.88,-114.5"/>
<text text-anchor="middle" x="611.88" y="-121" font-family="Helvetica,sans-Serif" font-size="10.00">Windows.h</text>
</a>
</g>
</g>
<!-- Node18&#45;&gt;Node20 -->
<g id="edge24" class="edge">
<title>Node18&#45;&gt;Node20</title>
<path fill="none" stroke="midnightblue" d="M647.31,-171.91C641.37,-164.12 632.43,-152.42 625.02,-142.71"/>
<polygon fill="midnightblue" stroke="midnightblue" points="627.38,-141.04 618.53,-135.21 621.82,-145.29 627.38,-141.04"/>
</g>
<!-- Node21&#45;&gt;Node3 -->
<g id="edge29" class="edge">
<title>Node21&#45;&gt;Node3</title>
<path fill="none" stroke="midnightblue" d="M398.17,-228.66C381.81,-220.01 356.64,-206.7 337.52,-196.59"/>
<polygon fill="midnightblue" stroke="midnightblue" points="339.36,-193.08 328.89,-191.5 336.09,-199.27 339.36,-193.08"/>
</g>
<!-- Node21&#45;&gt;Node4 -->
<g id="edge32" class="edge">
<title>Node21&#45;&gt;Node4</title>
<path fill="none" stroke="midnightblue" d="M412.76,-228.71C408.42,-210.72 398.44,-169.32 392.52,-144.77"/>
<polygon fill="midnightblue" stroke="midnightblue" points="395.73,-144.15 389.98,-135.25 388.92,-145.79 395.73,-144.15"/>
</g>
<!-- Node21&#45;&gt;Node18 -->
<g id="edge26" class="edge">
<title>Node21&#45;&gt;Node18</title>
<path fill="none" stroke="midnightblue" d="M443.47,-232.14C482.02,-224.74 552.95,-210.45 622.97,-192.04"/>
<polygon fill="midnightblue" stroke="midnightblue" points="623.53,-195.25 632.29,-189.29 621.73,-188.48 623.53,-195.25"/>
</g>
<!-- Node22 -->
<g id="node22" class="node">
<title>Node22</title>
<g id="a_node22"><a xlink:href="_colors_8h.html" target="_top" xlink:title=" ">
<polygon fill="none" stroke="black" points="191.88,-171.5 191.88,-191.5 243.88,-191.5 243.88,-171.5 191.88,-171.5"/>
<text text-anchor="middle" x="217.88" y="-178" font-family="Helvetica,sans-Serif" font-size="10.00">Colors.h</text>
</a>
</g>
</g>
<!-- Node21&#45;&gt;Node22 -->
<g id="edge27" class="edge">
<title>Node21&#45;&gt;Node22</title>
<path fill="none" stroke="midnightblue" d="M386.65,-229.62C351.74,-219.87 292.25,-203.26 254.03,-192.59"/>
<polygon fill="midnightblue" stroke="midnightblue" points="255.42,-189.07 244.85,-189.75 253.54,-195.81 255.42,-189.07"/>
</g>
<!-- Node23 -->
<g id="node23" class="node">
<title>Node23</title>
<g id="a_node23"><a xlink:title=" ">
<polygon fill="none" stroke="#bfbfbf" points="416.25,-171.5 416.25,-191.5 467.5,-191.5 467.5,-171.5 416.25,-171.5"/>
<text text-anchor="middle" x="441.88" y="-178" font-family="Helvetica,sans-Serif" font-size="10.00">assert.h</text>
</a>
</g>
</g>
<!-- Node21&#45;&gt;Node23 -->
<g id="edge30" class="edge">
<title>Node21&#45;&gt;Node23</title>
<path fill="none" stroke="midnightblue" d="M419.09,-228.91C422.76,-221.44 428.19,-210.38 432.83,-200.93"/>
<polygon fill="midnightblue" stroke="midnightblue" points="436.33,-202.73 437.6,-192.21 430.05,-199.65 436.33,-202.73"/>
</g>
<!-- Node24 -->
<g id="node24" class="node">
<title>Node24</title>
<g id="a_node24"><a xlink:title=" ">
<polygon fill="none" stroke="#bfbfbf" points="485.25,-171.5 485.25,-191.5 536.5,-191.5 536.5,-171.5 485.25,-171.5"/>
<text text-anchor="middle" x="510.88" y="-178" font-family="Helvetica,sans-Serif" font-size="10.00">memory</text>
</a>
</g>
</g>
<!-- Node21&#45;&gt;Node24 -->
<g id="edge31" class="edge">
<title>Node21&#45;&gt;Node24</title>
<path fill="none" stroke="midnightblue" d="M430.3,-228.66C445.33,-220.05 468.42,-206.83 486.03,-196.73"/>
<polygon fill="midnightblue" stroke="midnightblue" points="487.23,-199.51 494.17,-191.5 483.75,-193.43 487.23,-199.51"/>
</g>
<!-- Node25 -->
<g id="node25" class="node">
<title>Node25</title>
<g id="a_node25"><a xlink:title=" ">
<polygon fill="none" stroke="#bfbfbf" points="554.75,-171.5 554.75,-191.5 615,-191.5 615,-171.5 554.75,-171.5"/>
<text text-anchor="middle" x="584.88" y="-178" font-family="Helvetica,sans-Serif" font-size="10.00">filesystem</text>
</a>
</g>
</g>
<!-- Node21&#45;&gt;Node25 -->
<g id="edge33" class="edge">
<title>Node21&#45;&gt;Node25</title>
<path fill="none" stroke="midnightblue" d="M442.57,-228.54C470.97,-219.35 515.35,-204.99 546.99,-194.76"/>
<polygon fill="midnightblue" stroke="midnightblue" points="547.76,-197.86 556.2,-191.46 545.6,-191.2 547.76,-197.86"/>
</g>
<!-- Node22&#45;&gt;Node6 -->
<g id="edge28" class="edge">
<title>Node22&#45;&gt;Node6</title>
<path fill="none" stroke="midnightblue" d="M209.44,-171.91C201.56,-163.88 189.59,-151.69 179.9,-141.82"/>
<polygon fill="midnightblue" stroke="midnightblue" points="182.93,-139.9 173.43,-135.21 177.94,-144.8 182.93,-139.9"/>
</g>
</g>
</svg>
