<?xml version="1.0" encoding="UTF-8" standalone="no"?>
<!DOCTYPE svg PUBLIC "-//W3C//DTD SVG 1.1//EN"
 "http://www.w3.org/Graphics/SVG/1.1/DTD/svg11.dtd">
<!-- Generated by graphviz version 8.1.0 (20230707.0739)
 -->
<!-- Title: include/PubeScreenTransformer.h Pages: 1 -->
<svg width="630pt" height="281pt"
 viewBox="0.00 0.00 630.38 281.00" xmlns="http://www.w3.org/2000/svg" xmlns:xlink="http://www.w3.org/1999/xlink">
<g id="graph0" class="graph" transform="scale(1 1) rotate(0) translate(4 277)">
<title>include/PubeScreenTransformer.h</title>
<!-- Node1 -->
<g id="node1" class="node">
<title>Node1</title>
<g id="a_node1"><a xlink:title=" ">
<polygon fill="#bfbfbf" stroke="black" points="252.88,-252.5 252.88,-272.5 415.12,-272.5 415.12,-252.5 252.88,-252.5"/>
<text text-anchor="middle" x="334" y="-259" font-family="Helvetica,sans-Serif" font-size="10.00">include/PubeScreenTransformer.h</text>
</a>
</g>
</g>
<!-- Node2 -->
<g id="node2" class="node">
<title>Node2</title>
<g id="a_node2"><a xlink:href="_pipeline_8h.html" target="_top" xlink:title=" ">
<polygon fill="none" stroke="black" points="287.75,-195.5 287.75,-215.5 380.25,-215.5 380.25,-195.5 287.75,-195.5"/>
<text text-anchor="middle" x="334" y="-202" font-family="Helvetica,sans-Serif" font-size="10.00">include/Pipeline.h</text>
</a>
</g>
</g>
<!-- Node1&#45;&gt;Node2 -->
<g id="edge1" class="edge">
<title>Node1&#45;&gt;Node2</title>
<path fill="none" stroke="midnightblue" d="M334,-242C334,-232.85 334,-222.39 334,-215.21"/>
<polygon fill="midnightblue" stroke="midnightblue" points="330.5,-241.91 334,-251.91 337.5,-241.91 330.5,-241.91"/>
</g>
<!-- Node3 -->
<g id="node3" class="node">
<title>Node3</title>
<g id="a_node3"><a xlink:href="_solid_effect_8h.html" target="_top" xlink:title=" ">
<polygon fill="none" stroke="black" points="74.88,-132.5 74.88,-152.5 207.12,-152.5 207.12,-132.5 74.88,-132.5"/>
<text text-anchor="middle" x="141" y="-139" font-family="Helvetica,sans-Serif" font-size="10.00">include/Effect/SolidEffect.h</text>
</a>
</g>
</g>
<!-- Node2&#45;&gt;Node3 -->
<g id="edge2" class="edge">
<title>Node2&#45;&gt;Node3</title>
<path fill="none" stroke="midnightblue" d="M295.49,-192.33C258.28,-180.57 202.78,-163.03 169.41,-152.48"/>
<polygon fill="midnightblue" stroke="midnightblue" points="294.35,-195.95 304.94,-195.63 296.46,-189.28 294.35,-195.95"/>
</g>
<!-- Node4 -->
<g id="node4" class="node">
<title>Node4</title>
<g id="a_node4"><a xlink:href="_cube_solid_scene_8h.html" target="_top" xlink:title=" ">
<polygon fill="none" stroke="black" points="0,-57.5 0,-89.5 130,-89.5 130,-57.5 0,-57.5"/>
<text text-anchor="start" x="8" y="-76" font-family="Helvetica,sans-Serif" font-size="10.00">include/Scenes/CubeSolid</text>
<text text-anchor="middle" x="65" y="-64" font-family="Helvetica,sans-Serif" font-size="10.00">Scene.h</text>
</a>
</g>
</g>
<!-- Node2&#45;&gt;Node4 -->
<g id="edge14" class="edge">
<title>Node2&#45;&gt;Node4</title>
<path fill="none" stroke="midnightblue" d="M276.98,-203.08C206.51,-199.98 92.63,-190.16 66,-159 49.51,-139.71 54.85,-107.9 60.05,-89.3"/>
<polygon fill="midnightblue" stroke="midnightblue" points="276.76,-206.61 286.9,-203.52 277.05,-199.62 276.76,-206.61"/>
</g>
<!-- Node6 -->
<g id="node6" class="node">
<title>Node6</title>
<g id="a_node6"><a xlink:href="_double_cube_scene_8h.html" target="_top" xlink:title=" ">
<polygon fill="none" stroke="black" points="147.88,-57.5 147.88,-89.5 286.12,-89.5 286.12,-57.5 147.88,-57.5"/>
<text text-anchor="start" x="155.88" y="-76" font-family="Helvetica,sans-Serif" font-size="10.00">include/Scenes/DoubleCube</text>
<text text-anchor="middle" x="217" y="-64" font-family="Helvetica,sans-Serif" font-size="10.00">Scene.h</text>
</a>
</g>
</g>
<!-- Node2&#45;&gt;Node6 -->
<g id="edge16" class="edge">
<title>Node2&#45;&gt;Node6</title>
<path fill="none" stroke="midnightblue" d="M300.04,-191.17C284.39,-183.64 266.54,-172.93 254,-159 235.57,-138.53 225.2,-107.42 220.38,-89.21"/>
<polygon fill="midnightblue" stroke="midnightblue" points="298.38,-194.71 308.94,-195.65 301.27,-188.34 298.38,-194.71"/>
</g>
<!-- Node7 -->
<g id="node7" class="node">
<title>Node7</title>
<g id="a_node7"><a xlink:href="_texture_effect_8h.html" target="_top" xlink:title=" ">
<polygon fill="none" stroke="black" points="262.62,-132.5 262.62,-152.5 405.38,-152.5 405.38,-132.5 262.62,-132.5"/>
<text text-anchor="middle" x="334" y="-139" font-family="Helvetica,sans-Serif" font-size="10.00">include/Effect/TextureEffect.h</text>
</a>
</g>
</g>
<!-- Node2&#45;&gt;Node7 -->
<g id="edge7" class="edge">
<title>Node2&#45;&gt;Node7</title>
<path fill="none" stroke="midnightblue" d="M334,-184.99C334,-173.97 334,-160.73 334,-152.22"/>
<polygon fill="midnightblue" stroke="midnightblue" points="330.5,-184.76 334,-194.76 337.5,-184.76 330.5,-184.76"/>
</g>
<!-- Node8 -->
<g id="node8" class="node">
<title>Node8</title>
<g id="a_node8"><a xlink:href="_cube_skin_scene_8h.html" target="_top" xlink:title=" ">
<polygon fill="none" stroke="black" points="304.12,-63.5 304.12,-83.5 467.88,-83.5 467.88,-63.5 304.12,-63.5"/>
<text text-anchor="middle" x="386" y="-70" font-family="Helvetica,sans-Serif" font-size="10.00">include/Scenes/CubeSkinScene.h</text>
</a>
</g>
</g>
<!-- Node2&#45;&gt;Node8 -->
<g id="edge13" class="edge">
<title>Node2&#45;&gt;Node8</title>
<path fill="none" stroke="midnightblue" d="M374.48,-191.47C389.65,-184.4 405.3,-173.96 414,-159 428.76,-133.62 406.19,-99.37 393.57,-83.39"/>
<polygon fill="midnightblue" stroke="midnightblue" points="373.49,-188.51 365.66,-195.65 376.23,-194.96 373.49,-188.51"/>
</g>
<!-- Node9 -->
<g id="node9" class="node">
<title>Node9</title>
<g id="a_node9"><a xlink:href="_vertex_color_effect_8h.html" target="_top" xlink:title=" ">
<polygon fill="none" stroke="black" points="460.75,-126.5 460.75,-158.5 589.25,-158.5 589.25,-126.5 460.75,-126.5"/>
<text text-anchor="start" x="468.75" y="-145" font-family="Helvetica,sans-Serif" font-size="10.00">include/Effect/VertexColor</text>
<text text-anchor="middle" x="525" y="-133" font-family="Helvetica,sans-Serif" font-size="10.00">Effect.h</text>
</a>
</g>
</g>
<!-- Node2&#45;&gt;Node9 -->
<g id="edge10" class="edge">
<title>Node2&#45;&gt;Node9</title>
<path fill="none" stroke="midnightblue" d="M372.03,-192.36C402.6,-182.59 445.68,-168.83 478.34,-158.4"/>
<polygon fill="midnightblue" stroke="midnightblue" points="371.23,-189.25 362.77,-195.63 373.36,-195.92 371.23,-189.25"/>
</g>
<!-- Node10 -->
<g id="node10" class="node">
<title>Node10</title>
<g id="a_node10"><a xlink:href="_cube_vertex_color_scene_8h.html" target="_top" xlink:title=" ">
<polygon fill="none" stroke="black" points="485.62,-57.5 485.62,-89.5 622.38,-89.5 622.38,-57.5 485.62,-57.5"/>
<text text-anchor="start" x="493.62" y="-76" font-family="Helvetica,sans-Serif" font-size="10.00">include/Scenes/CubeVertex</text>
<text text-anchor="middle" x="554" y="-64" font-family="Helvetica,sans-Serif" font-size="10.00">ColorScene.h</text>
</a>
</g>
</g>
<!-- Node2&#45;&gt;Node10 -->
<g id="edge15" class="edge">
<title>Node2&#45;&gt;Node10</title>
<path fill="none" stroke="midnightblue" d="M390.8,-202.97C460.33,-199.76 572.05,-189.81 598,-159 616.12,-137.5 590.77,-107.29 571.69,-89.42"/>
<polygon fill="midnightblue" stroke="midnightblue" points="390.87,-199.51 381.03,-203.43 391.17,-206.5 390.87,-199.51"/>
</g>
<!-- Node3&#45;&gt;Node4 -->
<g id="edge3" class="edge">
<title>Node3&#45;&gt;Node4</title>
<path fill="none" stroke="midnightblue" d="M122.83,-125.48C110.41,-114.53 94.06,-100.12 81.91,-89.41"/>
<polygon fill="midnightblue" stroke="midnightblue" points="120.25,-127.75 130.06,-131.74 124.88,-122.5 120.25,-127.75"/>
</g>
<!-- Node3&#45;&gt;Node6 -->
<g id="edge5" class="edge">
<title>Node3&#45;&gt;Node6</title>
<path fill="none" stroke="midnightblue" d="M159.17,-125.48C171.59,-114.53 187.94,-100.12 200.09,-89.41"/>
<polygon fill="midnightblue" stroke="midnightblue" points="157.12,-122.5 151.94,-131.74 161.75,-127.75 157.12,-122.5"/>
</g>
<!-- Node5 -->
<g id="node5" class="node">
<title>Node5</title>
<g id="a_node5"><a xlink:href="_engine_8cpp.html" target="_top" xlink:title=" ">
<polygon fill="none" stroke="black" points="260.38,-0.5 260.38,-20.5 341.62,-20.5 341.62,-0.5 260.38,-0.5"/>
<text text-anchor="middle" x="301" y="-7" font-family="Helvetica,sans-Serif" font-size="10.00">src/Engine.cpp</text>
</a>
</g>
</g>
<!-- Node4&#45;&gt;Node5 -->
<g id="edge4" class="edge">
<title>Node4&#45;&gt;Node5</title>
<path fill="none" stroke="midnightblue" d="M133.28,-54.85C176.93,-43.57 231.68,-29.42 266.51,-20.42"/>
<polygon fill="midnightblue" stroke="midnightblue" points="132.54,-51.69 123.73,-57.58 134.29,-58.46 132.54,-51.69"/>
</g>
<!-- Node6&#45;&gt;Node5 -->
<g id="edge6" class="edge">
<title>Node6&#45;&gt;Node5</title>
<path fill="none" stroke="midnightblue" d="M246.09,-51.37C260.76,-40.72 277.75,-28.38 288.9,-20.28"/>
<polygon fill="midnightblue" stroke="midnightblue" points="244.37,-49.03 238.33,-57.73 248.48,-54.69 244.37,-49.03"/>
</g>
<!-- Node7&#45;&gt;Node8 -->
<g id="edge8" class="edge">
<title>Node7&#45;&gt;Node8</title>
<path fill="none" stroke="midnightblue" d="M347.44,-124.18C357.55,-111.16 370.98,-93.85 379.03,-83.48"/>
<polygon fill="midnightblue" stroke="midnightblue" points="344.16,-121.7 340.8,-131.74 349.69,-125.99 344.16,-121.7"/>
</g>
<!-- Node8&#45;&gt;Node5 -->
<g id="edge9" class="edge">
<title>Node8&#45;&gt;Node5</title>
<path fill="none" stroke="midnightblue" d="M365.05,-57.46C348.85,-45.84 326.97,-30.14 313.43,-20.42"/>
<polygon fill="midnightblue" stroke="midnightblue" points="362.66,-60.77 372.82,-63.76 366.74,-55.09 362.66,-60.77"/>
</g>
<!-- Node9&#45;&gt;Node10 -->
<g id="edge11" class="edge">
<title>Node9&#45;&gt;Node10</title>
<path fill="none" stroke="midnightblue" d="M535.7,-116.79C539.69,-107.57 544.09,-97.39 547.58,-89.33"/>
<polygon fill="midnightblue" stroke="midnightblue" points="532.2,-115.06 531.44,-125.63 538.62,-117.84 532.2,-115.06"/>
</g>
<!-- Node10&#45;&gt;Node5 -->
<g id="edge12" class="edge">
<title>Node10&#45;&gt;Node5</title>
<path fill="none" stroke="midnightblue" d="M481.69,-55.06C434.76,-43.75 375.56,-29.48 337.98,-20.42"/>
<polygon fill="midnightblue" stroke="midnightblue" points="480.57,-58.64 491.11,-57.58 482.21,-51.83 480.57,-58.64"/>
</g>
</g>
</svg>
