<?xml version="1.0" encoding="UTF-8" standalone="no"?>
<!DOCTYPE svg PUBLIC "-//W3C//DTD SVG 1.1//EN"
 "http://www.w3.org/Graphics/SVG/1.1/DTD/svg11.dtd">
<!-- Generated by graphviz version 8.1.0 (20230707.0739)
 -->
<!-- Title: include/Scene.h Pages: 1 -->
<svg width="795pt" height="371pt"
 viewBox="0.00 0.00 794.88 371.00" xmlns="http://www.w3.org/2000/svg" xmlns:xlink="http://www.w3.org/1999/xlink">
<g id="graph0" class="graph" transform="scale(1 1) rotate(0) translate(4 367)">
<title>include/Scene.h</title>
<!-- Node1 -->
<g id="node1" class="node">
<title>Node1</title>
<g id="a_node1"><a xlink:title=" ">
<polygon fill="#bfbfbf" stroke="black" points="97.12,-342.5 97.12,-362.5 182.88,-362.5 182.88,-342.5 97.12,-342.5"/>
<text text-anchor="middle" x="140" y="-349" font-family="Helvetica,sans-Serif" font-size="10.00">include/Scene.h</text>
</a>
</g>
</g>
<!-- Node2 -->
<g id="node2" class="node">
<title>Node2</title>
<g id="a_node2"><a xlink:href="_keyboard_8h.html" target="_top" xlink:title=" ">
<polygon fill="none" stroke="black" points="2.25,-285.5 2.25,-305.5 67.75,-305.5 67.75,-285.5 2.25,-285.5"/>
<text text-anchor="middle" x="35" y="-292" font-family="Helvetica,sans-Serif" font-size="10.00">Keyboard.h</text>
</a>
</g>
</g>
<!-- Node1&#45;&gt;Node2 -->
<g id="edge1" class="edge">
<title>Node1&#45;&gt;Node2</title>
<path fill="none" stroke="midnightblue" d="M123.13,-342.66C106.62,-334.01 81.21,-320.7 61.9,-310.59"/>
<polygon fill="midnightblue" stroke="midnightblue" points="63.66,-307.04 53.18,-305.5 60.41,-313.24 63.66,-307.04"/>
</g>
<!-- Node5 -->
<g id="node5" class="node">
<title>Node5</title>
<g id="a_node5"><a xlink:href="_mouse_8h.html" target="_top" xlink:title=" ">
<polygon fill="none" stroke="black" points="86.25,-285.5 86.25,-305.5 139.75,-305.5 139.75,-285.5 86.25,-285.5"/>
<text text-anchor="middle" x="113" y="-292" font-family="Helvetica,sans-Serif" font-size="10.00">Mouse.h</text>
</a>
</g>
</g>
<!-- Node1&#45;&gt;Node5 -->
<g id="edge4" class="edge">
<title>Node1&#45;&gt;Node5</title>
<path fill="none" stroke="midnightblue" d="M135.78,-342.91C132.12,-335.44 126.69,-324.38 122.05,-314.93"/>
<polygon fill="midnightblue" stroke="midnightblue" points="124.83,-313.65 117.28,-306.21 118.54,-316.73 124.83,-313.65"/>
</g>
<!-- Node18 -->
<g id="node18" class="node">
<title>Node18</title>
<g id="a_node18"><a xlink:href="_graphics_8h.html" target="_top" xlink:title=" ">
<polygon fill="none" stroke="black" points="373.38,-285.5 373.38,-305.5 436.62,-305.5 436.62,-285.5 373.38,-285.5"/>
<text text-anchor="middle" x="405" y="-292" font-family="Helvetica,sans-Serif" font-size="10.00">Graphics.h</text>
</a>
</g>
</g>
<!-- Node1&#45;&gt;Node18 -->
<g id="edge24" class="edge">
<title>Node1&#45;&gt;Node18</title>
<path fill="none" stroke="midnightblue" d="M182.87,-342.6C232.44,-332.31 313.52,-315.49 362.81,-305.26"/>
<polygon fill="midnightblue" stroke="midnightblue" points="363.33,-308.51 372.41,-303.06 361.91,-301.66 363.33,-308.51"/>
</g>
<!-- Node20 -->
<g id="node20" class="node">
<title>Node20</title>
<g id="a_node20"><a xlink:title=" ">
<polygon fill="none" stroke="#bfbfbf" points="308,-114.5 308,-134.5 348,-134.5 348,-114.5 308,-114.5"/>
<text text-anchor="middle" x="328" y="-121" font-family="Helvetica,sans-Serif" font-size="10.00">string</text>
</a>
</g>
</g>
<!-- Node1&#45;&gt;Node20 -->
<g id="edge50" class="edge">
<title>Node1&#45;&gt;Node20</title>
<path fill="none" stroke="midnightblue" d="M141.8,-342.56C148.85,-307.94 174.77,-183.94 187,-171 220.74,-135.3 246.04,-149.15 297.71,-135.13"/>
<polygon fill="midnightblue" stroke="midnightblue" points="298.45,-138.27 307.04,-132.06 296.45,-131.56 298.45,-138.27"/>
</g>
<!-- Node3 -->
<g id="node3" class="node">
<title>Node3</title>
<g id="a_node3"><a xlink:title=" ">
<polygon fill="none" stroke="#bfbfbf" points="0,-228.5 0,-248.5 40,-248.5 40,-228.5 0,-228.5"/>
<text text-anchor="middle" x="20" y="-235" font-family="Helvetica,sans-Serif" font-size="10.00">bitset</text>
</a>
</g>
</g>
<!-- Node2&#45;&gt;Node3 -->
<g id="edge2" class="edge">
<title>Node2&#45;&gt;Node3</title>
<path fill="none" stroke="midnightblue" d="M32.66,-285.91C30.66,-278.6 27.73,-267.85 25.19,-258.54"/>
<polygon fill="midnightblue" stroke="midnightblue" points="28.38,-257.94 22.38,-249.21 21.63,-259.78 28.38,-257.94"/>
</g>
<!-- Node4 -->
<g id="node4" class="node">
<title>Node4</title>
<g id="a_node4"><a xlink:title=" ">
<polygon fill="none" stroke="#bfbfbf" points="57.88,-228.5 57.88,-248.5 100.12,-248.5 100.12,-228.5 57.88,-228.5"/>
<text text-anchor="middle" x="79" y="-235" font-family="Helvetica,sans-Serif" font-size="10.00">queue</text>
</a>
</g>
</g>
<!-- Node2&#45;&gt;Node4 -->
<g id="edge3" class="edge">
<title>Node2&#45;&gt;Node4</title>
<path fill="none" stroke="midnightblue" d="M41.88,-285.91C48.1,-278.12 57.46,-266.42 65.23,-256.71"/>
<polygon fill="midnightblue" stroke="midnightblue" points="68.51,-259.21 72.03,-249.21 63.05,-254.84 68.51,-259.21"/>
</g>
<!-- Node5&#45;&gt;Node4 -->
<g id="edge23" class="edge">
<title>Node5&#45;&gt;Node4</title>
<path fill="none" stroke="midnightblue" d="M107.69,-285.91C102.97,-278.28 95.94,-266.9 90.01,-257.32"/>
<polygon fill="midnightblue" stroke="midnightblue" points="92.62,-255.88 84.39,-249.21 86.67,-259.56 92.62,-255.88"/>
</g>
<!-- Node6 -->
<g id="node6" class="node">
<title>Node6</title>
<g id="a_node6"><a xlink:href="_vector2_8h.html" target="_top" xlink:title=" ">
<polygon fill="none" stroke="black" points="67.88,-114.5 67.88,-134.5 188.12,-134.5 188.12,-114.5 67.88,-114.5"/>
<text text-anchor="middle" x="128" y="-121" font-family="Helvetica,sans-Serif" font-size="10.00">LinearAlgebra/Vector2.h</text>
</a>
</g>
</g>
<!-- Node5&#45;&gt;Node6 -->
<g id="edge5" class="edge">
<title>Node5&#45;&gt;Node6</title>
<path fill="none" stroke="midnightblue" d="M113.76,-285.89C116.07,-259.9 123,-181.82 126.26,-145.05"/>
<polygon fill="midnightblue" stroke="midnightblue" points="129.82,-145.57 127.22,-135.3 122.85,-144.95 129.82,-145.57"/>
</g>
<!-- Node7 -->
<g id="node7" class="node">
<title>Node7</title>
<g id="a_node7"><a xlink:href="_math_8h.html" target="_top" xlink:title=" ">
<polygon fill="none" stroke="black" points="454,-57.5 454,-77.5 500,-77.5 500,-57.5 454,-57.5"/>
<text text-anchor="middle" x="477" y="-64" font-family="Helvetica,sans-Serif" font-size="10.00">Math.h</text>
</a>
</g>
</g>
<!-- Node6&#45;&gt;Node7 -->
<g id="edge6" class="edge">
<title>Node6&#45;&gt;Node7</title>
<path fill="none" stroke="midnightblue" d="M184.85,-114.54C258.34,-102.96 383.94,-83.17 443.62,-73.76"/>
<polygon fill="midnightblue" stroke="midnightblue" points="443.97,-77.09 453.3,-72.08 442.88,-70.18 443.97,-77.09"/>
</g>
<!-- Node12 -->
<g id="node12" class="node">
<title>Node12</title>
<g id="a_node12"><a xlink:href="_matrix2_8h.html" target="_top" xlink:title=" ">
<polygon fill="none" stroke="black" points="43.75,-57.5 43.75,-77.5 100.25,-77.5 100.25,-57.5 43.75,-57.5"/>
<text text-anchor="middle" x="72" y="-64" font-family="Helvetica,sans-Serif" font-size="10.00">Matrix2.h</text>
</a>
</g>
</g>
<!-- Node6&#45;&gt;Node12 -->
<g id="edge12" class="edge">
<title>Node6&#45;&gt;Node12</title>
<path fill="none" stroke="midnightblue" d="M119,-114.66C110.89,-106.69 98.74,-94.76 88.82,-85.02"/>
<polygon fill="midnightblue" stroke="midnightblue" points="91.75,-83.01 82.16,-78.5 86.84,-88 91.75,-83.01"/>
</g>
<!-- Node13 -->
<g id="node13" class="node">
<title>Node13</title>
<g id="a_node13"><a xlink:title=" ">
<polygon fill="none" stroke="#bfbfbf" points="113.25,-0.5 113.25,-20.5 166.75,-20.5 166.75,-0.5 113.25,-0.5"/>
<text text-anchor="middle" x="140" y="-7" font-family="Helvetica,sans-Serif" font-size="10.00">iostream</text>
</a>
</g>
</g>
<!-- Node6&#45;&gt;Node13 -->
<g id="edge22" class="edge">
<title>Node6&#45;&gt;Node13</title>
<path fill="none" stroke="midnightblue" d="M93.98,-114.55C60.59,-103.97 17.08,-84.29 35,-57 50.03,-34.1 79.33,-22.67 103.17,-17"/>
<polygon fill="midnightblue" stroke="midnightblue" points="103.61,-20.27 112.67,-14.77 102.16,-13.42 103.61,-20.27"/>
</g>
<!-- Node14 -->
<g id="node14" class="node">
<title>Node14</title>
<g id="a_node14"><a xlink:href="_matrix3_8h.html" target="_top" xlink:title=" ">
<polygon fill="none" stroke="black" points="303.75,-57.5 303.75,-77.5 360.25,-77.5 360.25,-57.5 303.75,-57.5"/>
<text text-anchor="middle" x="332" y="-64" font-family="Helvetica,sans-Serif" font-size="10.00">Matrix3.h</text>
</a>
</g>
</g>
<!-- Node6&#45;&gt;Node14 -->
<g id="edge14" class="edge">
<title>Node6&#45;&gt;Node14</title>
<path fill="none" stroke="midnightblue" d="M161.23,-114.54C197.56,-104.75 255.67,-89.08 293.83,-78.79"/>
<polygon fill="midnightblue" stroke="midnightblue" points="294.29,-82.02 303.04,-76.04 292.47,-75.26 294.29,-82.02"/>
</g>
<!-- Node15 -->
<g id="node15" class="node">
<title>Node15</title>
<g id="a_node15"><a xlink:title=" ">
<polygon fill="none" stroke="#bfbfbf" points="252.12,-0.5 252.12,-20.5 289.88,-20.5 289.88,-0.5 252.12,-0.5"/>
<text text-anchor="middle" x="271" y="-7" font-family="Helvetica,sans-Serif" font-size="10.00">array</text>
</a>
</g>
</g>
<!-- Node6&#45;&gt;Node15 -->
<g id="edge19" class="edge">
<title>Node6&#45;&gt;Node15</title>
<path fill="none" stroke="midnightblue" d="M128.87,-114.5C130.7,-100.42 136.18,-73.12 152,-57 176.13,-32.41 214.95,-20.9 241.65,-15.66"/>
<polygon fill="midnightblue" stroke="midnightblue" points="242.03,-18.96 251.27,-13.77 240.81,-12.07 242.03,-18.96"/>
</g>
<!-- Node16 -->
<g id="node16" class="node">
<title>Node16</title>
<g id="a_node16"><a xlink:title=" ">
<polygon fill="none" stroke="#bfbfbf" points="308.25,-0.5 308.25,-20.5 355.75,-20.5 355.75,-0.5 308.25,-0.5"/>
<text text-anchor="middle" x="332" y="-7" font-family="Helvetica,sans-Serif" font-size="10.00">cstddef</text>
</a>
</g>
</g>
<!-- Node6&#45;&gt;Node16 -->
<g id="edge21" class="edge">
<title>Node6&#45;&gt;Node16</title>
<path fill="none" stroke="midnightblue" d="M133.15,-114.79C141.98,-100.6 161.36,-72.53 185,-57 189.87,-53.8 256.27,-33.86 298.14,-21.46"/>
<polygon fill="midnightblue" stroke="midnightblue" points="298.87,-24.6 307.47,-18.41 296.88,-17.89 298.87,-24.6"/>
</g>
<!-- Node17 -->
<g id="node17" class="node">
<title>Node17</title>
<g id="a_node17"><a xlink:title=" ">
<polygon fill="none" stroke="#bfbfbf" points="194.25,-57.5 194.25,-77.5 247.75,-77.5 247.75,-57.5 194.25,-57.5"/>
<text text-anchor="middle" x="221" y="-64" font-family="Helvetica,sans-Serif" font-size="10.00">compare</text>
</a>
</g>
</g>
<!-- Node6&#45;&gt;Node17 -->
<g id="edge20" class="edge">
<title>Node6&#45;&gt;Node17</title>
<path fill="none" stroke="midnightblue" d="M142.94,-114.66C157.36,-106.13 179.45,-93.07 196.46,-83.01"/>
<polygon fill="midnightblue" stroke="midnightblue" points="197.96,-85.6 204.79,-77.5 194.4,-79.58 197.96,-85.6"/>
</g>
<!-- Node7&#45;&gt;Node7 -->
<g id="edge7" class="edge">
<title>Node7&#45;&gt;Node7</title>
<path fill="none" stroke="midnightblue" d="M495.55,-77.43C507.05,-79.83 518,-76.52 518,-67.5 518,-61.44 513.06,-57.96 506.33,-57.05"/>
<polygon fill="midnightblue" stroke="midnightblue" points="506.37,-53.59 496.55,-57.57 506.71,-60.59 506.37,-53.59"/>
</g>
<!-- Node8 -->
<g id="node8" class="node">
<title>Node8</title>
<g id="a_node8"><a xlink:title=" ">
<polygon fill="none" stroke="#bfbfbf" points="373.5,-0.5 373.5,-20.5 416.5,-20.5 416.5,-0.5 373.5,-0.5"/>
<text text-anchor="middle" x="395" y="-7" font-family="Helvetica,sans-Serif" font-size="10.00">cmath</text>
</a>
</g>
</g>
<!-- Node7&#45;&gt;Node8 -->
<g id="edge8" class="edge">
<title>Node7&#45;&gt;Node8</title>
<path fill="none" stroke="midnightblue" d="M463.83,-57.66C451.35,-49.29 432.36,-36.56 417.48,-26.58"/>
<polygon fill="midnightblue" stroke="midnightblue" points="419.67,-23.16 409.41,-20.5 415.77,-28.97 419.67,-23.16"/>
</g>
<!-- Node9 -->
<g id="node9" class="node">
<title>Node9</title>
<g id="a_node9"><a xlink:title=" ">
<polygon fill="none" stroke="#bfbfbf" points="501.38,-0.5 501.38,-20.5 540.62,-20.5 540.62,-0.5 501.38,-0.5"/>
<text text-anchor="middle" x="521" y="-7" font-family="Helvetica,sans-Serif" font-size="10.00">limits</text>
</a>
</g>
</g>
<!-- Node7&#45;&gt;Node9 -->
<g id="edge9" class="edge">
<title>Node7&#45;&gt;Node9</title>
<path fill="none" stroke="midnightblue" d="M483.88,-57.91C490.1,-50.12 499.46,-38.42 507.23,-28.71"/>
<polygon fill="midnightblue" stroke="midnightblue" points="510.51,-31.21 514.03,-21.21 505.05,-26.84 510.51,-31.21"/>
</g>
<!-- Node10 -->
<g id="node10" class="node">
<title>Node10</title>
<g id="a_node10"><a xlink:title=" ">
<polygon fill="none" stroke="#bfbfbf" points="558.25,-0.5 558.25,-20.5 611.75,-20.5 611.75,-0.5 558.25,-0.5"/>
<text text-anchor="middle" x="585" y="-7" font-family="Helvetica,sans-Serif" font-size="10.00">numbers</text>
</a>
</g>
</g>
<!-- Node7&#45;&gt;Node10 -->
<g id="edge10" class="edge">
<title>Node7&#45;&gt;Node10</title>
<path fill="none" stroke="midnightblue" d="M494.35,-57.66C511.41,-48.97 537.71,-35.58 557.6,-25.45"/>
<polygon fill="midnightblue" stroke="midnightblue" points="559.01,-28.15 566.33,-20.5 555.83,-21.92 559.01,-28.15"/>
</g>
<!-- Node11 -->
<g id="node11" class="node">
<title>Node11</title>
<g id="a_node11"><a xlink:title=" ">
<polygon fill="none" stroke="#bfbfbf" points="434.88,-0.5 434.88,-20.5 483.12,-20.5 483.12,-0.5 434.88,-0.5"/>
<text text-anchor="middle" x="459" y="-7" font-family="Helvetica,sans-Serif" font-size="10.00">random</text>
</a>
</g>
</g>
<!-- Node7&#45;&gt;Node11 -->
<g id="edge11" class="edge">
<title>Node7&#45;&gt;Node11</title>
<path fill="none" stroke="midnightblue" d="M474.19,-57.91C471.8,-50.6 468.28,-39.85 465.23,-30.54"/>
<polygon fill="midnightblue" stroke="midnightblue" points="468.29,-29.63 461.85,-21.21 461.64,-31.81 468.29,-29.63"/>
</g>
<!-- Node12&#45;&gt;Node13 -->
<g id="edge13" class="edge">
<title>Node12&#45;&gt;Node13</title>
<path fill="none" stroke="midnightblue" d="M82.93,-57.66C93.08,-49.45 108.42,-37.04 120.65,-27.15"/>
<polygon fill="midnightblue" stroke="midnightblue" points="122.3,-29.51 127.88,-20.5 117.9,-24.06 122.3,-29.51"/>
</g>
<!-- Node14&#45;&gt;Node8 -->
<g id="edge16" class="edge">
<title>Node14&#45;&gt;Node8</title>
<path fill="none" stroke="midnightblue" d="M342.12,-57.66C351.44,-49.53 365.47,-37.28 376.74,-27.44"/>
<polygon fill="midnightblue" stroke="midnightblue" points="378.46,-29.71 383.69,-20.5 373.86,-24.44 378.46,-29.71"/>
</g>
<!-- Node14&#45;&gt;Node13 -->
<g id="edge18" class="edge">
<title>Node14&#45;&gt;Node13</title>
<path fill="none" stroke="midnightblue" d="M304.08,-58.5C270.57,-48.9 214.26,-32.77 177.11,-22.13"/>
<polygon fill="midnightblue" stroke="midnightblue" points="178.29,-18.54 167.71,-19.15 176.36,-25.27 178.29,-18.54"/>
</g>
<!-- Node14&#45;&gt;Node15 -->
<g id="edge15" class="edge">
<title>Node14&#45;&gt;Node15</title>
<path fill="none" stroke="midnightblue" d="M322.2,-57.66C313.27,-49.61 299.86,-37.52 289,-27.73"/>
<polygon fill="midnightblue" stroke="midnightblue" points="291.75,-25.59 281.98,-21.5 287.06,-30.79 291.75,-25.59"/>
</g>
<!-- Node14&#45;&gt;Node16 -->
<g id="edge17" class="edge">
<title>Node14&#45;&gt;Node16</title>
<path fill="none" stroke="midnightblue" d="M332,-57.91C332,-50.76 332,-40.32 332,-31.15"/>
<polygon fill="midnightblue" stroke="midnightblue" points="335.5,-31.21 332,-21.21 328.5,-31.21 335.5,-31.21"/>
</g>
<!-- Node19 -->
<g id="node19" class="node">
<title>Node19</title>
<g id="a_node19"><a xlink:href="_engine_exception_8h.html" target="_top" xlink:title=" ">
<polygon fill="none" stroke="black" points="196.12,-171.5 196.12,-191.5 293.88,-191.5 293.88,-171.5 196.12,-171.5"/>
<text text-anchor="middle" x="245" y="-178" font-family="Helvetica,sans-Serif" font-size="10.00">EngineException.h</text>
</a>
</g>
</g>
<!-- Node18&#45;&gt;Node19 -->
<g id="edge25" class="edge">
<title>Node18&#45;&gt;Node19</title>
<path fill="none" stroke="midnightblue" d="M380.69,-285.62C360.7,-277.68 332.15,-264.87 310,-249 290,-234.67 270.78,-213.84 258.5,-199.32"/>
<polygon fill="midnightblue" stroke="midnightblue" points="260.87,-197.7 251.8,-192.22 255.47,-202.16 260.87,-197.7"/>
</g>
<!-- Node22 -->
<g id="node22" class="node">
<title>Node22</title>
<g id="a_node22"><a xlink:href="_vector3_8h.html" target="_top" xlink:title=" ">
<polygon fill="none" stroke="black" points="365.88,-114.5 365.88,-134.5 486.12,-134.5 486.12,-114.5 365.88,-114.5"/>
<text text-anchor="middle" x="426" y="-121" font-family="Helvetica,sans-Serif" font-size="10.00">LinearAlgebra/Vector3.h</text>
</a>
</g>
</g>
<!-- Node18&#45;&gt;Node22 -->
<g id="edge28" class="edge">
<title>Node18&#45;&gt;Node22</title>
<path fill="none" stroke="midnightblue" d="M436.53,-290.77C487.45,-282.84 586.39,-259.17 629,-192 661.83,-140.24 567.67,-127.6 496.8,-125.13"/>
<polygon fill="midnightblue" stroke="midnightblue" points="497.18,-121.62 487.09,-124.83 496.99,-128.61 497.18,-121.62"/>
</g>
<!-- Node23 -->
<g id="node23" class="node">
<title>Node23</title>
<g id="a_node23"><a xlink:href="_g_d_i_plus_manager_8h.html" target="_top" xlink:title=" ">
<polygon fill="none" stroke="black" points="676.12,-228.5 676.12,-248.5 773.88,-248.5 773.88,-228.5 676.12,-228.5"/>
<text text-anchor="middle" x="725" y="-235" font-family="Helvetica,sans-Serif" font-size="10.00">GDIPlusManager.h</text>
</a>
</g>
</g>
<!-- Node18&#45;&gt;Node23 -->
<g id="edge35" class="edge">
<title>Node18&#45;&gt;Node23</title>
<path fill="none" stroke="midnightblue" d="M436.56,-289.08C489.77,-279.93 598.13,-261.31 665.84,-249.67"/>
<polygon fill="midnightblue" stroke="midnightblue" points="666.08,-253.01 675.34,-247.86 664.89,-246.11 666.08,-253.01"/>
</g>
<!-- Node27 -->
<g id="node27" class="node">
<title>Node27</title>
<g id="a_node27"><a xlink:href="_surface_8h.html" target="_top" xlink:title=" ">
<polygon fill="none" stroke="black" points="441.38,-228.5 441.38,-248.5 498.62,-248.5 498.62,-228.5 441.38,-228.5"/>
<text text-anchor="middle" x="470" y="-235" font-family="Helvetica,sans-Serif" font-size="10.00">Surface.h</text>
</a>
</g>
</g>
<!-- Node18&#45;&gt;Node27 -->
<g id="edge39" class="edge">
<title>Node18&#45;&gt;Node27</title>
<path fill="none" stroke="midnightblue" d="M415.44,-285.66C425.05,-277.53 439.53,-265.28 451.16,-255.44"/>
<polygon fill="midnightblue" stroke="midnightblue" points="452.99,-257.63 458.37,-248.5 448.47,-252.29 452.99,-257.63"/>
</g>
<!-- Node32 -->
<g id="node32" class="node">
<title>Node32</title>
<g id="a_node32"><a xlink:title=" ">
<polygon fill="none" stroke="#bfbfbf" points="318.75,-228.5 318.75,-248.5 369.25,-248.5 369.25,-228.5 318.75,-228.5"/>
<text text-anchor="middle" x="344" y="-235" font-family="Helvetica,sans-Serif" font-size="10.00">d3d11.h</text>
</a>
</g>
</g>
<!-- Node18&#45;&gt;Node32 -->
<g id="edge48" class="edge">
<title>Node18&#45;&gt;Node32</title>
<path fill="none" stroke="midnightblue" d="M395.2,-285.66C386.27,-277.61 372.86,-265.52 362,-255.73"/>
<polygon fill="midnightblue" stroke="midnightblue" points="364.75,-253.59 354.98,-249.5 360.06,-258.79 364.75,-253.59"/>
</g>
<!-- Node33 -->
<g id="node33" class="node">
<title>Node33</title>
<g id="a_node33"><a xlink:title=" ">
<polygon fill="none" stroke="#bfbfbf" points="386.88,-228.5 386.88,-248.5 423.12,-248.5 423.12,-228.5 386.88,-228.5"/>
<text text-anchor="middle" x="405" y="-235" font-family="Helvetica,sans-Serif" font-size="10.00">wrl.h</text>
</a>
</g>
</g>
<!-- Node18&#45;&gt;Node33 -->
<g id="edge49" class="edge">
<title>Node18&#45;&gt;Node33</title>
<path fill="none" stroke="midnightblue" d="M405,-285.91C405,-278.76 405,-268.32 405,-259.15"/>
<polygon fill="midnightblue" stroke="midnightblue" points="408.5,-259.21 405,-249.21 401.5,-259.21 408.5,-259.21"/>
</g>
<!-- Node19&#45;&gt;Node20 -->
<g id="edge26" class="edge">
<title>Node19&#45;&gt;Node20</title>
<path fill="none" stroke="midnightblue" d="M258.34,-171.66C271.09,-163.21 290.55,-150.31 305.67,-140.3"/>
<polygon fill="midnightblue" stroke="midnightblue" points="307.02,-142.94 313.42,-134.5 303.15,-137.1 307.02,-142.94"/>
</g>
<!-- Node21 -->
<g id="node21" class="node">
<title>Node21</title>
<g id="a_node21"><a xlink:title=" ">
<polygon fill="none" stroke="#bfbfbf" points="205.88,-114.5 205.88,-134.5 290.12,-134.5 290.12,-114.5 205.88,-114.5"/>
<text text-anchor="middle" x="248" y="-121" font-family="Helvetica,sans-Serif" font-size="10.00">source_location</text>
</a>
</g>
</g>
<!-- Node19&#45;&gt;Node21 -->
<g id="edge27" class="edge">
<title>Node19&#45;&gt;Node21</title>
<path fill="none" stroke="midnightblue" d="M245.47,-171.91C245.86,-164.76 246.43,-154.32 246.93,-145.15"/>
<polygon fill="midnightblue" stroke="midnightblue" points="250.47,-145.39 247.52,-135.21 243.49,-145.01 250.47,-145.39"/>
</g>
<!-- Node22&#45;&gt;Node7 -->
<g id="edge29" class="edge">
<title>Node22&#45;&gt;Node7</title>
<path fill="none" stroke="midnightblue" d="M433.97,-114.91C441.34,-106.96 452.49,-94.94 461.59,-85.12"/>
<polygon fill="midnightblue" stroke="midnightblue" points="463.69,-87.93 467.92,-78.21 458.55,-83.17 463.69,-87.93"/>
</g>
<!-- Node22&#45;&gt;Node13 -->
<g id="edge32" class="edge">
<title>Node22&#45;&gt;Node13</title>
<path fill="none" stroke="midnightblue" d="M395.52,-114.54C368.6,-106.24 328.53,-92.96 295,-78 277.38,-70.14 274.48,-65.18 257,-57 230.47,-44.58 199.54,-32.66 176.15,-24.14"/>
<polygon fill="midnightblue" stroke="midnightblue" points="177.57,-20.57 166.98,-20.47 175.2,-27.15 177.57,-20.57"/>
</g>
<!-- Node22&#45;&gt;Node14 -->
<g id="edge30" class="edge">
<title>Node22&#45;&gt;Node14</title>
<path fill="none" stroke="midnightblue" d="M410.9,-114.66C396.32,-106.13 373.99,-93.07 356.81,-83.01"/>
<polygon fill="midnightblue" stroke="midnightblue" points="358.78,-79.53 348.38,-77.5 355.24,-85.57 358.78,-79.53"/>
</g>
<!-- Node22&#45;&gt;Node15 -->
<g id="edge31" class="edge">
<title>Node22&#45;&gt;Node15</title>
<path fill="none" stroke="midnightblue" d="M420.3,-114.69C410.99,-100.86 391.3,-73.9 369,-57 357.49,-48.28 324.36,-33.58 299.79,-23.26"/>
<polygon fill="midnightblue" stroke="midnightblue" points="301.45,-19.74 290.87,-19.13 298.76,-26.21 301.45,-19.74"/>
</g>
<!-- Node22&#45;&gt;Node16 -->
<g id="edge34" class="edge">
<title>Node22&#45;&gt;Node16</title>
<path fill="none" stroke="midnightblue" d="M424.7,-114.88C422.29,-101.31 416.03,-74.7 402,-57 391.49,-43.75 376.02,-33.12 362.29,-25.49"/>
<polygon fill="midnightblue" stroke="midnightblue" points="364.19,-22 353.7,-20.46 360.93,-28.2 364.19,-22"/>
</g>
<!-- Node22&#45;&gt;Node17 -->
<g id="edge33" class="edge">
<title>Node22&#45;&gt;Node17</title>
<path fill="none" stroke="midnightblue" d="M392.61,-114.54C355.58,-104.61 296.05,-88.63 257.73,-78.35"/>
<polygon fill="midnightblue" stroke="midnightblue" points="259.09,-74.83 248.52,-75.62 257.28,-81.59 259.09,-74.83"/>
</g>
<!-- Node24 -->
<g id="node24" class="node">
<title>Node24</title>
<g id="a_node24"><a xlink:href="_win_8h.html" target="_top" xlink:title=" ">
<polygon fill="none" stroke="black" points="690.25,-171.5 690.25,-191.5 731.75,-191.5 731.75,-171.5 690.25,-171.5"/>
<text text-anchor="middle" x="711" y="-178" font-family="Helvetica,sans-Serif" font-size="10.00">Win.h</text>
</a>
</g>
</g>
<!-- Node23&#45;&gt;Node24 -->
<g id="edge36" class="edge">
<title>Node23&#45;&gt;Node24</title>
<path fill="none" stroke="midnightblue" d="M722.81,-228.91C720.97,-221.68 718.28,-211.09 715.92,-201.85"/>
<polygon fill="midnightblue" stroke="midnightblue" points="719.08,-201.04 713.22,-192.21 712.29,-202.77 719.08,-201.04"/>
</g>
<!-- Node25 -->
<g id="node25" class="node">
<title>Node25</title>
<g id="a_node25"><a xlink:title=" ">
<polygon fill="none" stroke="#bfbfbf" points="719.12,-114.5 719.12,-134.5 786.88,-134.5 786.88,-114.5 719.12,-114.5"/>
<text text-anchor="middle" x="753" y="-121" font-family="Helvetica,sans-Serif" font-size="10.00">sdkddkver.h</text>
</a>
</g>
</g>
<!-- Node24&#45;&gt;Node25 -->
<g id="edge37" class="edge">
<title>Node24&#45;&gt;Node25</title>
<path fill="none" stroke="midnightblue" d="M717.56,-171.91C723.51,-164.12 732.44,-152.42 739.85,-142.71"/>
<polygon fill="midnightblue" stroke="midnightblue" points="743.06,-145.29 746.34,-135.21 737.49,-141.04 743.06,-145.29"/>
</g>
<!-- Node26 -->
<g id="node26" class="node">
<title>Node26</title>
<g id="a_node26"><a xlink:title=" ">
<polygon fill="none" stroke="#bfbfbf" points="637,-114.5 637,-134.5 701,-134.5 701,-114.5 637,-114.5"/>
<text text-anchor="middle" x="669" y="-121" font-family="Helvetica,sans-Serif" font-size="10.00">Windows.h</text>
</a>
</g>
</g>
<!-- Node24&#45;&gt;Node26 -->
<g id="edge38" class="edge">
<title>Node24&#45;&gt;Node26</title>
<path fill="none" stroke="midnightblue" d="M704.44,-171.91C698.49,-164.12 689.56,-152.42 682.15,-142.71"/>
<polygon fill="midnightblue" stroke="midnightblue" points="684.51,-141.04 675.66,-135.21 678.94,-145.29 684.51,-141.04"/>
</g>
<!-- Node27&#45;&gt;Node19 -->
<g id="edge43" class="edge">
<title>Node27&#45;&gt;Node19</title>
<path fill="none" stroke="midnightblue" d="M441.78,-230.42C438.49,-229.6 435.17,-228.78 432,-228 384.56,-216.3 330.29,-203.12 292.48,-193.97"/>
<polygon fill="midnightblue" stroke="midnightblue" points="293.81,-190.45 283.27,-191.5 292.17,-197.25 293.81,-190.45"/>
</g>
<!-- Node27&#45;&gt;Node20 -->
<g id="edge46" class="edge">
<title>Node27&#45;&gt;Node20</title>
<path fill="none" stroke="midnightblue" d="M469.9,-228.52C469.26,-214.47 466.02,-187.2 451,-171 447.68,-167.42 393.46,-148.16 358.13,-135.88"/>
<polygon fill="midnightblue" stroke="midnightblue" points="359.44,-132.28 348.85,-132.31 357.15,-138.9 359.44,-132.28"/>
</g>
<!-- Node27&#45;&gt;Node24 -->
<g id="edge40" class="edge">
<title>Node27&#45;&gt;Node24</title>
<path fill="none" stroke="midnightblue" d="M498.59,-230.97C544.19,-220.57 633.01,-200.3 680.05,-189.56"/>
<polygon fill="midnightblue" stroke="midnightblue" points="680.54,-192.81 689.51,-187.18 678.98,-185.99 680.54,-192.81"/>
</g>
<!-- Node28 -->
<g id="node28" class="node">
<title>Node28</title>
<g id="a_node28"><a xlink:href="_colors_8h.html" target="_top" xlink:title=" ">
<polygon fill="none" stroke="black" points="568,-171.5 568,-191.5 620,-191.5 620,-171.5 568,-171.5"/>
<text text-anchor="middle" x="594" y="-178" font-family="Helvetica,sans-Serif" font-size="10.00">Colors.h</text>
</a>
</g>
</g>
<!-- Node27&#45;&gt;Node28 -->
<g id="edge41" class="edge">
<title>Node27&#45;&gt;Node28</title>
<path fill="none" stroke="midnightblue" d="M490.2,-228.54C510.19,-219.67 541.05,-205.99 563.93,-195.84"/>
<polygon fill="midnightblue" stroke="midnightblue" points="565.09,-198.71 572.81,-191.46 562.25,-192.31 565.09,-198.71"/>
</g>
<!-- Node29 -->
<g id="node29" class="node">
<title>Node29</title>
<g id="a_node29"><a xlink:title=" ">
<polygon fill="none" stroke="#bfbfbf" points="498.38,-171.5 498.38,-191.5 549.62,-191.5 549.62,-171.5 498.38,-171.5"/>
<text text-anchor="middle" x="524" y="-178" font-family="Helvetica,sans-Serif" font-size="10.00">assert.h</text>
</a>
</g>
</g>
<!-- Node27&#45;&gt;Node29 -->
<g id="edge44" class="edge">
<title>Node27&#45;&gt;Node29</title>
<path fill="none" stroke="midnightblue" d="M478.44,-228.91C486.32,-220.88 498.28,-208.69 507.98,-198.82"/>
<polygon fill="midnightblue" stroke="midnightblue" points="509.94,-201.8 514.44,-192.21 504.94,-196.9 509.94,-201.8"/>
</g>
<!-- Node30 -->
<g id="node30" class="node">
<title>Node30</title>
<g id="a_node30"><a xlink:title=" ">
<polygon fill="none" stroke="#bfbfbf" points="312.38,-171.5 312.38,-191.5 363.62,-191.5 363.62,-171.5 312.38,-171.5"/>
<text text-anchor="middle" x="338" y="-178" font-family="Helvetica,sans-Serif" font-size="10.00">memory</text>
</a>
</g>
</g>
<!-- Node27&#45;&gt;Node30 -->
<g id="edge45" class="edge">
<title>Node27&#45;&gt;Node30</title>
<path fill="none" stroke="midnightblue" d="M448.5,-228.54C427.02,-219.59 393.77,-205.74 369.36,-195.57"/>
<polygon fill="midnightblue" stroke="midnightblue" points="371.07,-192.07 360.49,-191.46 368.38,-198.53 371.07,-192.07"/>
</g>
<!-- Node31 -->
<g id="node31" class="node">
<title>Node31</title>
<g id="a_node31"><a xlink:title=" ">
<polygon fill="none" stroke="#bfbfbf" points="381.88,-171.5 381.88,-191.5 442.12,-191.5 442.12,-171.5 381.88,-171.5"/>
<text text-anchor="middle" x="412" y="-178" font-family="Helvetica,sans-Serif" font-size="10.00">filesystem</text>
</a>
</g>
</g>
<!-- Node27&#45;&gt;Node31 -->
<g id="edge47" class="edge">
<title>Node27&#45;&gt;Node31</title>
<path fill="none" stroke="midnightblue" d="M460.68,-228.66C452.28,-220.69 439.69,-208.76 429.43,-199.02"/>
<polygon fill="midnightblue" stroke="midnightblue" points="432.15,-196.84 422.49,-192.5 427.34,-201.92 432.15,-196.84"/>
</g>
<!-- Node28&#45;&gt;Node22 -->
<g id="edge42" class="edge">
<title>Node28&#45;&gt;Node22</title>
<path fill="none" stroke="midnightblue" d="M568.12,-172.03C540.17,-162.88 495.38,-148.21 463.56,-137.8"/>
<polygon fill="midnightblue" stroke="midnightblue" points="464.9,-134.22 454.31,-134.44 462.72,-140.88 464.9,-134.22"/>
</g>
</g>
</svg>
