<?xml version="1.0" encoding="UTF-8" standalone="no"?>
<!DOCTYPE svg PUBLIC "-//W3C//DTD SVG 1.1//EN"
 "http://www.w3.org/Graphics/SVG/1.1/DTD/svg11.dtd">
<!-- Generated by graphviz version 8.1.0 (20230707.0739)
 -->
<!-- Title: include/Scene.h Pages: 1 -->
<svg width="1782pt" height="155pt"
 viewBox="0.00 0.00 1781.50 155.00" xmlns="http://www.w3.org/2000/svg" xmlns:xlink="http://www.w3.org/1999/xlink">
<g id="graph0" class="graph" transform="scale(1 1) rotate(0) translate(4 151)">
<title>include/Scene.h</title>
<!-- Node1 -->
<g id="node1" class="node">
<title>Node1</title>
<g id="a_node1"><a xlink:title=" ">
<polygon fill="#bfbfbf" stroke="black" points="826.25,-126.5 826.25,-146.5 912,-146.5 912,-126.5 826.25,-126.5"/>
<text text-anchor="middle" x="869.12" y="-133" font-family="Helvetica,sans-Serif" font-size="10.00">include/Scene.h</text>
</a>
</g>
</g>
<!-- Node2 -->
<g id="node2" class="node">
<title>Node2</title>
<g id="a_node2"><a xlink:href="_engine_8h.html" target="_top" xlink:title=" ">
<polygon fill="none" stroke="black" points="1622.12,-63.5 1622.12,-83.5 1710.12,-83.5 1710.12,-63.5 1622.12,-63.5"/>
<text text-anchor="middle" x="1666.12" y="-70" font-family="Helvetica,sans-Serif" font-size="10.00">include/Engine.h</text>
</a>
</g>
</g>
<!-- Node1&#45;&gt;Node2 -->
<g id="edge1" class="edge">
<title>Node1&#45;&gt;Node2</title>
<path fill="none" stroke="midnightblue" d="M922.85,-136.3C1045.95,-137.25 1357.54,-134.61 1613.12,-90 1621.91,-88.47 1631.3,-86 1639.71,-83.49"/>
<polygon fill="midnightblue" stroke="midnightblue" points="922.91,-132.79 912.87,-136.2 922.84,-139.79 922.91,-132.79"/>
</g>
<!-- Node6 -->
<g id="node6" class="node">
<title>Node6</title>
<g id="a_node6"><a xlink:href="_con_hex_scene_8h.html" target="_top" xlink:title=" ">
<polygon fill="none" stroke="black" points="0,-63.5 0,-83.5 156.25,-83.5 156.25,-63.5 0,-63.5"/>
<text text-anchor="middle" x="78.12" y="-70" font-family="Helvetica,sans-Serif" font-size="10.00">include/Scenes/ConHexScene.h</text>
</a>
</g>
</g>
<!-- Node1&#45;&gt;Node6 -->
<g id="edge5" class="edge">
<title>Node1&#45;&gt;Node6</title>
<path fill="none" stroke="midnightblue" d="M815.66,-134.08C697.8,-130.51 406.89,-119.26 165.12,-90 151.26,-88.32 136.27,-85.88 122.69,-83.43"/>
<polygon fill="midnightblue" stroke="midnightblue" points="815.42,-137.61 825.52,-134.41 815.62,-130.61 815.42,-137.61"/>
</g>
<!-- Node7 -->
<g id="node7" class="node">
<title>Node7</title>
<g id="a_node7"><a xlink:href="_con_hex_wire_scene_8h.html" target="_top" xlink:title=" ">
<polygon fill="none" stroke="black" points="173.88,-57.5 173.88,-89.5 314.38,-89.5 314.38,-57.5 173.88,-57.5"/>
<text text-anchor="start" x="181.88" y="-76" font-family="Helvetica,sans-Serif" font-size="10.00">include/Scenes/ConHexWire</text>
<text text-anchor="middle" x="244.12" y="-64" font-family="Helvetica,sans-Serif" font-size="10.00">Scene.h</text>
</a>
</g>
</g>
<!-- Node1&#45;&gt;Node7 -->
<g id="edge7" class="edge">
<title>Node1&#45;&gt;Node7</title>
<path fill="none" stroke="midnightblue" d="M815.67,-133.01C717.65,-128.01 502.74,-115.03 323.12,-90 320.22,-89.59 317.26,-89.15 314.27,-88.68"/>
<polygon fill="midnightblue" stroke="midnightblue" points="815.31,-136.55 825.47,-133.55 815.66,-129.56 815.31,-136.55"/>
</g>
<!-- Node8 -->
<g id="node8" class="node">
<title>Node8</title>
<g id="a_node8"><a xlink:href="_cube_order_scene_8h.html" target="_top" xlink:title=" ">
<polygon fill="none" stroke="black" points="332,-57.5 332,-89.5 464.25,-89.5 464.25,-57.5 332,-57.5"/>
<text text-anchor="start" x="340" y="-76" font-family="Helvetica,sans-Serif" font-size="10.00">include/Scenes/CubeOrder</text>
<text text-anchor="middle" x="398.12" y="-64" font-family="Helvetica,sans-Serif" font-size="10.00">Scene.h</text>
</a>
</g>
</g>
<!-- Node1&#45;&gt;Node8 -->
<g id="edge9" class="edge">
<title>Node1&#45;&gt;Node8</title>
<path fill="none" stroke="midnightblue" d="M815.72,-130.89C739.45,-123.97 595.07,-109.57 473.12,-90 470.11,-89.52 467.02,-88.99 463.91,-88.44"/>
<polygon fill="midnightblue" stroke="midnightblue" points="815.19,-134.45 825.47,-131.86 815.82,-127.48 815.19,-134.45"/>
</g>
<!-- Node9 -->
<g id="node9" class="node">
<title>Node9</title>
<g id="a_node9"><a xlink:href="_cube_skinned_scene_8h.html" target="_top" xlink:title=" ">
<polygon fill="none" stroke="black" points="482.38,-57.5 482.38,-89.5 625.88,-89.5 625.88,-57.5 482.38,-57.5"/>
<text text-anchor="start" x="490.38" y="-76" font-family="Helvetica,sans-Serif" font-size="10.00">include/Scenes/CubeSkinned</text>
<text text-anchor="middle" x="554.12" y="-64" font-family="Helvetica,sans-Serif" font-size="10.00">Scene.h</text>
</a>
</g>
</g>
<!-- Node1&#45;&gt;Node9 -->
<g id="edge11" class="edge">
<title>Node1&#45;&gt;Node9</title>
<path fill="none" stroke="midnightblue" d="M815.61,-125.14C763.38,-115.02 683.57,-99.57 625.86,-88.39"/>
<polygon fill="midnightblue" stroke="midnightblue" points="814.83,-128.74 825.31,-127.21 816.16,-121.87 814.83,-128.74"/>
</g>
<!-- Node10 -->
<g id="node10" class="node">
<title>Node10</title>
<g id="a_node10"><a xlink:href="_folded_cube_scene_8h.html" target="_top" xlink:title=" ">
<polygon fill="none" stroke="black" points="644.38,-57.5 644.38,-89.5 781.88,-89.5 781.88,-57.5 644.38,-57.5"/>
<text text-anchor="start" x="652.38" y="-76" font-family="Helvetica,sans-Serif" font-size="10.00">include/Scenes/FoldedCube</text>
<text text-anchor="middle" x="713.12" y="-64" font-family="Helvetica,sans-Serif" font-size="10.00">Scene.h</text>
</a>
</g>
</g>
<!-- Node1&#45;&gt;Node10 -->
<g id="edge13" class="edge">
<title>Node1&#45;&gt;Node10</title>
<path fill="none" stroke="midnightblue" d="M836.42,-122.71C811.56,-112.99 777.33,-99.6 751.23,-89.4"/>
<polygon fill="midnightblue" stroke="midnightblue" points="834.85,-126.25 845.44,-126.63 837.4,-119.73 834.85,-126.25"/>
</g>
<!-- Node11 -->
<g id="node11" class="node">
<title>Node11</title>
<g id="a_node11"><a xlink:href="_folded_cube_wrap_scene_8h.html" target="_top" xlink:title=" ">
<polygon fill="none" stroke="black" points="800.38,-57.5 800.38,-89.5 937.88,-89.5 937.88,-57.5 800.38,-57.5"/>
<text text-anchor="start" x="808.38" y="-76" font-family="Helvetica,sans-Serif" font-size="10.00">include/Scenes/FoldedCube</text>
<text text-anchor="middle" x="869.12" y="-64" font-family="Helvetica,sans-Serif" font-size="10.00">WrapScene.h</text>
</a>
</g>
</g>
<!-- Node1&#45;&gt;Node11 -->
<g id="edge15" class="edge">
<title>Node1&#45;&gt;Node11</title>
<path fill="none" stroke="midnightblue" d="M869.12,-115.83C869.12,-107.23 869.12,-97.31 869.12,-89.35"/>
<polygon fill="midnightblue" stroke="midnightblue" points="865.63,-115.76 869.12,-125.76 872.63,-115.76 865.63,-115.76"/>
</g>
<!-- Node12 -->
<g id="node12" class="node">
<title>Node12</title>
<g id="a_node12"><a xlink:href="_solid_cube_scene_8h.html" target="_top" xlink:title=" ">
<polygon fill="none" stroke="black" points="956.12,-57.5 956.12,-89.5 1086.12,-89.5 1086.12,-57.5 956.12,-57.5"/>
<text text-anchor="start" x="964.12" y="-76" font-family="Helvetica,sans-Serif" font-size="10.00">include/Scenes/SolidCube</text>
<text text-anchor="middle" x="1021.12" y="-64" font-family="Helvetica,sans-Serif" font-size="10.00">Scene.h</text>
</a>
</g>
</g>
<!-- Node1&#45;&gt;Node12 -->
<g id="edge17" class="edge">
<title>Node1&#45;&gt;Node12</title>
<path fill="none" stroke="midnightblue" d="M901.32,-122.58C925.51,-112.87 958.68,-99.56 983.99,-89.4"/>
<polygon fill="midnightblue" stroke="midnightblue" points="900.2,-119.66 892.23,-126.63 902.81,-126.15 900.2,-119.66"/>
</g>
<!-- Node13 -->
<g id="node13" class="node">
<title>Node13</title>
<g id="a_node13"><a xlink:href="_tex_cube_scene_8h.html" target="_top" xlink:title=" ">
<polygon fill="none" stroke="black" points="1104.12,-63.5 1104.12,-83.5 1264.12,-83.5 1264.12,-63.5 1104.12,-63.5"/>
<text text-anchor="middle" x="1184.12" y="-70" font-family="Helvetica,sans-Serif" font-size="10.00">include/Scenes/TexCubeScene.h</text>
</a>
</g>
</g>
<!-- Node1&#45;&gt;Node13 -->
<g id="edge19" class="edge">
<title>Node1&#45;&gt;Node13</title>
<path fill="none" stroke="midnightblue" d="M922.4,-125.18C982.84,-113.48 1080.44,-94.58 1137.82,-83.47"/>
<polygon fill="midnightblue" stroke="midnightblue" points="922.09,-121.87 912.94,-127.21 923.42,-128.74 922.09,-121.87"/>
</g>
<!-- Node14 -->
<g id="node14" class="node">
<title>Node14</title>
<g id="a_node14"><a xlink:href="_tex_wrap_cube_scene_8h.html" target="_top" xlink:title=" ">
<polygon fill="none" stroke="black" points="1282.5,-57.5 1282.5,-89.5 1429.75,-89.5 1429.75,-57.5 1282.5,-57.5"/>
<text text-anchor="start" x="1290.5" y="-76" font-family="Helvetica,sans-Serif" font-size="10.00">include/Scenes/TexWrapCube</text>
<text text-anchor="middle" x="1356.12" y="-64" font-family="Helvetica,sans-Serif" font-size="10.00">Scene.h</text>
</a>
</g>
</g>
<!-- Node1&#45;&gt;Node14 -->
<g id="edge21" class="edge">
<title>Node1&#45;&gt;Node14</title>
<path fill="none" stroke="midnightblue" d="M922.63,-130.72C1000.13,-123.51 1148.04,-108.7 1273.12,-90 1276.31,-89.52 1279.57,-89.01 1282.85,-88.48"/>
<polygon fill="midnightblue" stroke="midnightblue" points="922.35,-127.32 912.72,-131.73 923,-134.29 922.35,-127.32"/>
</g>
<!-- Node15 -->
<g id="node15" class="node">
<title>Node15</title>
<g id="a_node15"><a xlink:href="_x_mutual_scene_8h.html" target="_top" xlink:title=" ">
<polygon fill="none" stroke="black" points="1448,-63.5 1448,-83.5 1604.25,-83.5 1604.25,-63.5 1448,-63.5"/>
<text text-anchor="middle" x="1526.12" y="-70" font-family="Helvetica,sans-Serif" font-size="10.00">include/Scenes/XMutualScene.h</text>
</a>
</g>
</g>
<!-- Node1&#45;&gt;Node15 -->
<g id="edge23" class="edge">
<title>Node1&#45;&gt;Node15</title>
<path fill="none" stroke="midnightblue" d="M922.66,-132.96C1023.86,-127.76 1250.03,-114.33 1439.12,-90 1452.67,-88.26 1467.31,-85.85 1480.65,-83.46"/>
<polygon fill="midnightblue" stroke="midnightblue" points="922.63,-129.5 912.82,-133.51 922.98,-136.5 922.63,-129.5"/>
</g>
<!-- Node3 -->
<g id="node3" class="node">
<title>Node3</title>
<g id="a_node3"><a xlink:href="_engine_8cpp.html" target="_top" xlink:title=" ">
<polygon fill="none" stroke="black" points="828.5,-0.5 828.5,-20.5 909.75,-20.5 909.75,-0.5 828.5,-0.5"/>
<text text-anchor="middle" x="869.12" y="-7" font-family="Helvetica,sans-Serif" font-size="10.00">src/Engine.cpp</text>
</a>
</g>
</g>
<!-- Node2&#45;&gt;Node3 -->
<g id="edge2" class="edge">
<title>Node2&#45;&gt;Node3</title>
<path fill="none" stroke="midnightblue" d="M1629.5,-60.64C1624.06,-59.21 1618.48,-57.93 1613.12,-57 1347.65,-10.66 1021.75,-9.6 909.41,-10.82"/>
<polygon fill="midnightblue" stroke="midnightblue" points="1628.13,-64.17 1638.71,-63.51 1630.03,-57.44 1628.13,-64.17"/>
</g>
<!-- Node4 -->
<g id="node4" class="node">
<title>Node4</title>
<g id="a_node4"><a xlink:href="_main_8cpp.html" target="_top" xlink:title=" ">
<polygon fill="none" stroke="black" points="1576,-0.5 1576,-20.5 1648.25,-20.5 1648.25,-0.5 1576,-0.5"/>
<text text-anchor="middle" x="1612.12" y="-7" font-family="Helvetica,sans-Serif" font-size="10.00">src/Main.cpp</text>
</a>
</g>
</g>
<!-- Node2&#45;&gt;Node4 -->
<g id="edge3" class="edge">
<title>Node2&#45;&gt;Node4</title>
<path fill="none" stroke="midnightblue" d="M1651.3,-55.76C1641.12,-44.26 1628.02,-29.46 1619.85,-20.22"/>
<polygon fill="midnightblue" stroke="midnightblue" points="1648.14,-57.59 1657.39,-62.76 1653.38,-52.95 1648.14,-57.59"/>
</g>
<!-- Node5 -->
<g id="node5" class="node">
<title>Node5</title>
<g id="a_node5"><a xlink:href="_main_window_8cpp.html" target="_top" xlink:title=" ">
<polygon fill="none" stroke="black" points="1666.75,-0.5 1666.75,-20.5 1773.5,-20.5 1773.5,-0.5 1666.75,-0.5"/>
<text text-anchor="middle" x="1720.12" y="-7" font-family="Helvetica,sans-Serif" font-size="10.00">src/MainWindow.cpp</text>
</a>
</g>
</g>
<!-- Node2&#45;&gt;Node5 -->
<g id="edge4" class="edge">
<title>Node2&#45;&gt;Node5</title>
<path fill="none" stroke="midnightblue" d="M1680.95,-55.76C1691.13,-44.26 1704.23,-29.46 1712.4,-20.22"/>
<polygon fill="midnightblue" stroke="midnightblue" points="1678.87,-52.95 1674.86,-62.76 1684.11,-57.59 1678.87,-52.95"/>
</g>
<!-- Node6&#45;&gt;Node3 -->
<g id="edge6" class="edge">
<title>Node6&#45;&gt;Node3</title>
<path fill="none" stroke="midnightblue" d="M133.43,-61.69C143.92,-59.91 154.84,-58.24 165.12,-57 416.21,-26.62 720.29,-15.64 828.5,-12.54"/>
<polygon fill="midnightblue" stroke="midnightblue" points="132.93,-58.4 123.69,-63.57 134.14,-65.29 132.93,-58.4"/>
</g>
<!-- Node7&#45;&gt;Node3 -->
<g id="edge8" class="edge">
<title>Node7&#45;&gt;Node3</title>
<path fill="none" stroke="midnightblue" d="M324.96,-56.84C519.22,-30.35 739.32,-17.73 828.54,-13.34"/>
<polygon fill="midnightblue" stroke="midnightblue" points="324.7,-53.48 315.27,-58.32 325.65,-60.42 324.7,-53.48"/>
</g>
<!-- Node8&#45;&gt;Node3 -->
<g id="edge10" class="edge">
<title>Node8&#45;&gt;Node3</title>
<path fill="none" stroke="midnightblue" d="M474.49,-56.87C610.23,-35.5 758.8,-21.15 828.77,-14.94"/>
<polygon fill="midnightblue" stroke="midnightblue" points="474.24,-53.53 464.91,-58.56 475.34,-60.44 474.24,-53.53"/>
</g>
<!-- Node9&#45;&gt;Node3 -->
<g id="edge12" class="edge">
<title>Node9&#45;&gt;Node3</title>
<path fill="none" stroke="midnightblue" d="M636.13,-56.62C698.04,-44.63 780.34,-28.69 828.73,-19.32"/>
<polygon fill="midnightblue" stroke="midnightblue" points="635.76,-53.32 626.6,-58.66 637.09,-60.19 635.76,-53.32"/>
</g>
<!-- Node10&#45;&gt;Node3 -->
<g id="edge14" class="edge">
<title>Node10&#45;&gt;Node3</title>
<path fill="none" stroke="midnightblue" d="M761.4,-53.62C789.7,-42.56 824.13,-29.1 846.33,-20.42"/>
<polygon fill="midnightblue" stroke="midnightblue" points="760.33,-50.68 752.29,-57.58 762.87,-57.2 760.33,-50.68"/>
</g>
<!-- Node11&#45;&gt;Node3 -->
<g id="edge16" class="edge">
<title>Node11&#45;&gt;Node3</title>
<path fill="none" stroke="midnightblue" d="M869.12,-46.77C869.12,-37.31 869.12,-27.24 869.12,-20.28"/>
<polygon fill="midnightblue" stroke="midnightblue" points="865.63,-46.73 869.12,-56.73 872.63,-46.73 865.63,-46.73"/>
</g>
<!-- Node12&#45;&gt;Node3 -->
<g id="edge18" class="edge">
<title>Node12&#45;&gt;Node3</title>
<path fill="none" stroke="midnightblue" d="M974.09,-53.62C946.52,-42.56 912.97,-29.1 891.34,-20.42"/>
<polygon fill="midnightblue" stroke="midnightblue" points="972.36,-57.1 982.94,-57.58 974.96,-50.61 972.36,-57.1"/>
</g>
<!-- Node13&#45;&gt;Node3 -->
<g id="edge20" class="edge">
<title>Node13&#45;&gt;Node3</title>
<path fill="none" stroke="midnightblue" d="M1127.46,-61.53C1064.59,-49.35 964.74,-30.01 909.39,-19.3"/>
<polygon fill="midnightblue" stroke="midnightblue" points="1126.5,-65.1 1136.98,-63.56 1127.83,-58.23 1126.5,-65.1"/>
</g>
<!-- Node14&#45;&gt;Node3 -->
<g id="edge22" class="edge">
<title>Node14&#45;&gt;Node3</title>
<path fill="none" stroke="midnightblue" d="M1271.99,-56.91C1132.7,-36.42 980.76,-21.59 909.68,-15.09"/>
<polygon fill="midnightblue" stroke="midnightblue" points="1271.45,-60.51 1281.85,-58.52 1272.48,-53.59 1271.45,-60.51"/>
</g>
<!-- Node15&#45;&gt;Node3 -->
<g id="edge24" class="edge">
<title>Node15&#45;&gt;Node3</title>
<path fill="none" stroke="midnightblue" d="M1470.11,-61.7C1459.83,-59.95 1449.18,-58.29 1439.12,-57 1241.46,-31.56 1003.29,-18.04 909.69,-13.39"/>
<polygon fill="midnightblue" stroke="midnightblue" points="1469.2,-65.27 1479.65,-63.54 1470.4,-58.37 1469.2,-65.27"/>
</g>
</g>
</svg>
