<?xml version="1.0" encoding="UTF-8" standalone="no"?>
<!DOCTYPE svg PUBLIC "-//W3C//DTD SVG 1.1//EN"
 "http://www.w3.org/Graphics/SVG/1.1/DTD/svg11.dtd">
<!-- Generated by graphviz version 8.1.0 (20230707.0739)
 -->
<!-- Title: include/Scene.h Pages: 1 -->
<svg width="800pt" height="155pt"
 viewBox="0.00 0.00 800.25 155.00" xmlns="http://www.w3.org/2000/svg" xmlns:xlink="http://www.w3.org/1999/xlink">
<g id="graph0" class="graph" transform="scale(1 1) rotate(0) translate(4 151)">
<title>include/Scene.h</title>
<!-- Node1 -->
<g id="node1" class="node">
<title>Node1</title>
<g id="a_node1"><a xlink:title=" ">
<polygon fill="#bfbfbf" stroke="black" points="355,-126.5 355,-146.5 440.75,-146.5 440.75,-126.5 355,-126.5"/>
<text text-anchor="middle" x="397.88" y="-133" font-family="Helvetica,sans-Serif" font-size="10.00">include/Scene.h</text>
</a>
</g>
</g>
<!-- Node2 -->
<g id="node2" class="node">
<title>Node2</title>
<g id="a_node2"><a xlink:href="_engine_8h.html" target="_top" xlink:title=" ">
<polygon fill="none" stroke="black" points="640.88,-63.5 640.88,-83.5 728.88,-83.5 728.88,-63.5 640.88,-63.5"/>
<text text-anchor="middle" x="684.88" y="-70" font-family="Helvetica,sans-Serif" font-size="10.00">include/Engine.h</text>
</a>
</g>
</g>
<!-- Node1&#45;&gt;Node2 -->
<g id="edge1" class="edge">
<title>Node1&#45;&gt;Node2</title>
<path fill="none" stroke="midnightblue" d="M451.08,-126.6C498.71,-118.29 570.31,-104.95 631.88,-90 639.79,-88.08 648.3,-85.72 656.12,-83.43"/>
<polygon fill="midnightblue" stroke="midnightblue" points="450.66,-123.29 441.4,-128.45 451.85,-130.19 450.66,-123.29"/>
</g>
<!-- Node6 -->
<g id="node6" class="node">
<title>Node6</title>
<g id="a_node6"><a xlink:href="_cube_skin_scene_8h.html" target="_top" xlink:title=" ">
<polygon fill="none" stroke="black" points="0,-63.5 0,-83.5 163.75,-83.5 163.75,-63.5 0,-63.5"/>
<text text-anchor="middle" x="81.88" y="-70" font-family="Helvetica,sans-Serif" font-size="10.00">include/Scenes/CubeSkinScene.h</text>
</a>
</g>
</g>
<!-- Node1&#45;&gt;Node6 -->
<g id="edge5" class="edge">
<title>Node1&#45;&gt;Node6</title>
<path fill="none" stroke="midnightblue" d="M344.77,-125.25C284.2,-113.56 186.12,-94.62 128.43,-83.49"/>
<polygon fill="midnightblue" stroke="midnightblue" points="343.78,-128.81 354.26,-127.27 345.1,-121.94 343.78,-128.81"/>
</g>
<!-- Node7 -->
<g id="node7" class="node">
<title>Node7</title>
<g id="a_node7"><a xlink:href="_cube_solid_scene_8h.html" target="_top" xlink:title=" ">
<polygon fill="none" stroke="black" points="181.88,-57.5 181.88,-89.5 311.88,-89.5 311.88,-57.5 181.88,-57.5"/>
<text text-anchor="start" x="189.88" y="-76" font-family="Helvetica,sans-Serif" font-size="10.00">include/Scenes/CubeSolid</text>
<text text-anchor="middle" x="246.88" y="-64" font-family="Helvetica,sans-Serif" font-size="10.00">Scene.h</text>
</a>
</g>
</g>
<!-- Node1&#45;&gt;Node7 -->
<g id="edge7" class="edge">
<title>Node1&#45;&gt;Node7</title>
<path fill="none" stroke="midnightblue" d="M365.89,-122.58C341.86,-112.87 308.9,-99.56 283.76,-89.4"/>
<polygon fill="midnightblue" stroke="midnightblue" points="364.34,-126.13 374.92,-126.63 366.96,-119.64 364.34,-126.13"/>
</g>
<!-- Node8 -->
<g id="node8" class="node">
<title>Node8</title>
<g id="a_node8"><a xlink:href="_cube_vertex_color_scene_8h.html" target="_top" xlink:title=" ">
<polygon fill="none" stroke="black" points="329.5,-57.5 329.5,-89.5 466.25,-89.5 466.25,-57.5 329.5,-57.5"/>
<text text-anchor="start" x="337.5" y="-76" font-family="Helvetica,sans-Serif" font-size="10.00">include/Scenes/CubeVertex</text>
<text text-anchor="middle" x="397.88" y="-64" font-family="Helvetica,sans-Serif" font-size="10.00">ColorScene.h</text>
</a>
</g>
</g>
<!-- Node1&#45;&gt;Node8 -->
<g id="edge9" class="edge">
<title>Node1&#45;&gt;Node8</title>
<path fill="none" stroke="midnightblue" d="M397.88,-115.83C397.88,-107.23 397.88,-97.31 397.88,-89.35"/>
<polygon fill="midnightblue" stroke="midnightblue" points="394.38,-115.76 397.88,-125.76 401.38,-115.76 394.38,-115.76"/>
</g>
<!-- Node9 -->
<g id="node9" class="node">
<title>Node9</title>
<g id="a_node9"><a xlink:href="_double_cube_scene_8h.html" target="_top" xlink:title=" ">
<polygon fill="none" stroke="black" points="484.75,-57.5 484.75,-89.5 623,-89.5 623,-57.5 484.75,-57.5"/>
<text text-anchor="start" x="492.75" y="-76" font-family="Helvetica,sans-Serif" font-size="10.00">include/Scenes/DoubleCube</text>
<text text-anchor="middle" x="553.88" y="-64" font-family="Helvetica,sans-Serif" font-size="10.00">Scene.h</text>
</a>
</g>
</g>
<!-- Node1&#45;&gt;Node9 -->
<g id="edge11" class="edge">
<title>Node1&#45;&gt;Node9</title>
<path fill="none" stroke="midnightblue" d="M430.58,-122.71C455.44,-112.99 489.67,-99.6 515.77,-89.4"/>
<polygon fill="midnightblue" stroke="midnightblue" points="429.6,-119.73 421.56,-126.63 432.15,-126.25 429.6,-119.73"/>
</g>
<!-- Node3 -->
<g id="node3" class="node">
<title>Node3</title>
<g id="a_node3"><a xlink:href="_engine_8cpp.html" target="_top" xlink:title=" ">
<polygon fill="none" stroke="black" points="357.25,-0.5 357.25,-20.5 438.5,-20.5 438.5,-0.5 357.25,-0.5"/>
<text text-anchor="middle" x="397.88" y="-7" font-family="Helvetica,sans-Serif" font-size="10.00">src/Engine.cpp</text>
</a>
</g>
</g>
<!-- Node2&#45;&gt;Node3 -->
<g id="edge2" class="edge">
<title>Node2&#45;&gt;Node3</title>
<path fill="none" stroke="midnightblue" d="M645.57,-60.57C640.97,-59.3 636.33,-58.08 631.88,-57 564.51,-40.64 485.12,-26.21 438.28,-18.19"/>
<polygon fill="midnightblue" stroke="midnightblue" points="644.55,-64.2 655.12,-63.57 646.46,-57.47 644.55,-64.2"/>
</g>
<!-- Node4 -->
<g id="node4" class="node">
<title>Node4</title>
<g id="a_node4"><a xlink:href="_main_8cpp.html" target="_top" xlink:title=" ">
<polygon fill="none" stroke="black" points="594.75,-0.5 594.75,-20.5 667,-20.5 667,-0.5 594.75,-0.5"/>
<text text-anchor="middle" x="630.88" y="-7" font-family="Helvetica,sans-Serif" font-size="10.00">src/Main.cpp</text>
</a>
</g>
</g>
<!-- Node2&#45;&gt;Node4 -->
<g id="edge3" class="edge">
<title>Node2&#45;&gt;Node4</title>
<path fill="none" stroke="midnightblue" d="M670.05,-55.76C659.87,-44.26 646.77,-29.46 638.6,-20.22"/>
<polygon fill="midnightblue" stroke="midnightblue" points="666.89,-57.59 676.14,-62.76 672.13,-52.95 666.89,-57.59"/>
</g>
<!-- Node5 -->
<g id="node5" class="node">
<title>Node5</title>
<g id="a_node5"><a xlink:href="_main_window_8cpp.html" target="_top" xlink:title=" ">
<polygon fill="none" stroke="black" points="685.5,-0.5 685.5,-20.5 792.25,-20.5 792.25,-0.5 685.5,-0.5"/>
<text text-anchor="middle" x="738.88" y="-7" font-family="Helvetica,sans-Serif" font-size="10.00">src/MainWindow.cpp</text>
</a>
</g>
</g>
<!-- Node2&#45;&gt;Node5 -->
<g id="edge4" class="edge">
<title>Node2&#45;&gt;Node5</title>
<path fill="none" stroke="midnightblue" d="M699.7,-55.76C709.88,-44.26 722.98,-29.46 731.15,-20.22"/>
<polygon fill="midnightblue" stroke="midnightblue" points="697.62,-52.95 693.61,-62.76 702.86,-57.59 697.62,-52.95"/>
</g>
<!-- Node6&#45;&gt;Node3 -->
<g id="edge6" class="edge">
<title>Node6&#45;&gt;Node3</title>
<path fill="none" stroke="midnightblue" d="M138.72,-61.53C201.79,-49.35 301.96,-30.01 357.48,-19.3"/>
<polygon fill="midnightblue" stroke="midnightblue" points="138.32,-58.23 129.16,-63.56 139.64,-65.11 138.32,-58.23"/>
</g>
<!-- Node7&#45;&gt;Node3 -->
<g id="edge8" class="edge">
<title>Node7&#45;&gt;Node3</title>
<path fill="none" stroke="midnightblue" d="M293.96,-53.48C321.28,-42.44 354.41,-29.06 375.81,-20.42"/>
<polygon fill="midnightblue" stroke="midnightblue" points="292.77,-50.59 284.81,-57.58 295.4,-57.08 292.77,-50.59"/>
</g>
<!-- Node8&#45;&gt;Node3 -->
<g id="edge10" class="edge">
<title>Node8&#45;&gt;Node3</title>
<path fill="none" stroke="midnightblue" d="M397.88,-46.77C397.88,-37.31 397.88,-27.24 397.88,-20.28"/>
<polygon fill="midnightblue" stroke="midnightblue" points="394.38,-46.73 397.88,-56.73 401.38,-46.73 394.38,-46.73"/>
</g>
<!-- Node9&#45;&gt;Node3 -->
<g id="edge12" class="edge">
<title>Node9&#45;&gt;Node3</title>
<path fill="none" stroke="midnightblue" d="M505.6,-53.62C477.3,-42.56 442.87,-29.1 420.67,-20.42"/>
<polygon fill="midnightblue" stroke="midnightblue" points="504.13,-57.2 514.71,-57.58 506.67,-50.68 504.13,-57.2"/>
</g>
</g>
</svg>
