<?xml version="1.0" encoding="UTF-8" standalone="no"?>
<!DOCTYPE svg PUBLIC "-//W3C//DTD SVG 1.1//EN"
 "http://www.w3.org/Graphics/SVG/1.1/DTD/svg11.dtd">
<!-- Generated by graphviz version 8.1.0 (20230707.0739)
 -->
<!-- Title: include/Scene.h Pages: 1 -->
<svg width="866pt" height="371pt"
 viewBox="0.00 0.00 865.54 371.00" xmlns="http://www.w3.org/2000/svg" xmlns:xlink="http://www.w3.org/1999/xlink">
<g id="graph0" class="graph" transform="scale(1 1) rotate(0) translate(4 367)">
<title>include/Scene.h</title>
<!-- Node1 -->
<g id="node1" class="node">
<title>Node1</title>
<g id="a_node1"><a xlink:title=" ">
<polygon fill="#bfbfbf" stroke="black" points="198.12,-342.5 198.12,-362.5 283.88,-362.5 283.88,-342.5 198.12,-342.5"/>
<text text-anchor="middle" x="241" y="-349" font-family="Helvetica,sans-Serif" font-size="10.00">include/Scene.h</text>
</a>
</g>
</g>
<!-- Node2 -->
<g id="node2" class="node">
<title>Node2</title>
<g id="a_node2"><a xlink:href="_keyboard_8h.html" target="_top" xlink:title=" ">
<polygon fill="none" stroke="black" points="31.25,-285.5 31.25,-305.5 96.75,-305.5 96.75,-285.5 31.25,-285.5"/>
<text text-anchor="middle" x="64" y="-292" font-family="Helvetica,sans-Serif" font-size="10.00">Keyboard.h</text>
</a>
</g>
</g>
<!-- Node1&#45;&gt;Node2 -->
<g id="edge1" class="edge">
<title>Node1&#45;&gt;Node2</title>
<path fill="none" stroke="midnightblue" d="M212.17,-342.54C182.47,-333.31 135.99,-318.87 103.01,-308.62"/>
<polygon fill="midnightblue" stroke="midnightblue" points="104.41,-305.08 93.82,-305.46 102.33,-311.77 104.41,-305.08"/>
</g>
<!-- Node5 -->
<g id="node5" class="node">
<title>Node5</title>
<g id="a_node5"><a xlink:href="_mouse_8h.html" target="_top" xlink:title=" ">
<polygon fill="none" stroke="black" points="115.25,-285.5 115.25,-305.5 168.75,-305.5 168.75,-285.5 115.25,-285.5"/>
<text text-anchor="middle" x="142" y="-292" font-family="Helvetica,sans-Serif" font-size="10.00">Mouse.h</text>
</a>
</g>
</g>
<!-- Node1&#45;&gt;Node5 -->
<g id="edge4" class="edge">
<title>Node1&#45;&gt;Node5</title>
<path fill="none" stroke="midnightblue" d="M225.09,-342.66C209.6,-334.05 185.79,-320.83 167.62,-310.73"/>
<polygon fill="midnightblue" stroke="midnightblue" points="169.64,-307.29 159.2,-305.5 166.24,-313.41 169.64,-307.29"/>
</g>
<!-- Node18 -->
<g id="node18" class="node">
<title>Node18</title>
<g id="a_node18"><a xlink:href="_graphics_8h.html" target="_top" xlink:title=" ">
<polygon fill="none" stroke="black" points="295.38,-285.5 295.38,-305.5 358.62,-305.5 358.62,-285.5 295.38,-285.5"/>
<text text-anchor="middle" x="327" y="-292" font-family="Helvetica,sans-Serif" font-size="10.00">Graphics.h</text>
</a>
</g>
</g>
<!-- Node1&#45;&gt;Node18 -->
<g id="edge24" class="edge">
<title>Node1&#45;&gt;Node18</title>
<path fill="none" stroke="midnightblue" d="M254.82,-342.66C268.03,-334.21 288.2,-321.31 303.86,-311.3"/>
<polygon fill="midnightblue" stroke="midnightblue" points="305.39,-313.83 311.93,-305.5 301.62,-307.94 305.39,-313.83"/>
</g>
<!-- Node20 -->
<g id="node20" class="node">
<title>Node20</title>
<g id="a_node20"><a xlink:title=" ">
<polygon fill="none" stroke="#bfbfbf" points="775,-114.5 775,-134.5 815,-134.5 815,-114.5 775,-114.5"/>
<text text-anchor="middle" x="795" y="-121" font-family="Helvetica,sans-Serif" font-size="10.00">string</text>
</a>
</g>
</g>
<!-- Node1&#45;&gt;Node20 -->
<g id="edge49" class="edge">
<title>Node1&#45;&gt;Node20</title>
<path fill="none" stroke="midnightblue" d="M283.61,-347.05C410.59,-332.81 782,-283.88 853,-192 867.38,-173.39 843.66,-153.19 822.37,-140"/>
<polygon fill="midnightblue" stroke="midnightblue" points="824.3,-136.49 813.9,-134.46 820.76,-142.53 824.3,-136.49"/>
</g>
<!-- Node3 -->
<g id="node3" class="node">
<title>Node3</title>
<g id="a_node3"><a xlink:title=" ">
<polygon fill="none" stroke="#bfbfbf" points="0,-228.5 0,-248.5 40,-248.5 40,-228.5 0,-228.5"/>
<text text-anchor="middle" x="20" y="-235" font-family="Helvetica,sans-Serif" font-size="10.00">bitset</text>
</a>
</g>
</g>
<!-- Node2&#45;&gt;Node3 -->
<g id="edge2" class="edge">
<title>Node2&#45;&gt;Node3</title>
<path fill="none" stroke="midnightblue" d="M57.12,-285.91C50.9,-278.12 41.54,-266.42 33.77,-256.71"/>
<polygon fill="midnightblue" stroke="midnightblue" points="35.95,-254.84 26.97,-249.21 30.49,-259.21 35.95,-254.84"/>
</g>
<!-- Node4 -->
<g id="node4" class="node">
<title>Node4</title>
<g id="a_node4"><a xlink:title=" ">
<polygon fill="none" stroke="#bfbfbf" points="57.88,-228.5 57.88,-248.5 100.12,-248.5 100.12,-228.5 57.88,-228.5"/>
<text text-anchor="middle" x="79" y="-235" font-family="Helvetica,sans-Serif" font-size="10.00">queue</text>
</a>
</g>
</g>
<!-- Node2&#45;&gt;Node4 -->
<g id="edge3" class="edge">
<title>Node2&#45;&gt;Node4</title>
<path fill="none" stroke="midnightblue" d="M66.34,-285.91C68.34,-278.6 71.27,-267.85 73.81,-258.54"/>
<polygon fill="midnightblue" stroke="midnightblue" points="77.37,-259.78 76.62,-249.21 70.62,-257.94 77.37,-259.78"/>
</g>
<!-- Node5&#45;&gt;Node4 -->
<g id="edge23" class="edge">
<title>Node5&#45;&gt;Node4</title>
<path fill="none" stroke="midnightblue" d="M131.88,-285.66C122.56,-277.53 108.53,-265.28 97.26,-255.44"/>
<polygon fill="midnightblue" stroke="midnightblue" points="100.14,-252.44 90.31,-248.5 95.54,-257.71 100.14,-252.44"/>
</g>
<!-- Node6 -->
<g id="node6" class="node">
<title>Node6</title>
<g id="a_node6"><a xlink:href="_vector2_8h.html" target="_top" xlink:title=" ">
<polygon fill="none" stroke="black" points="70.88,-114.5 70.88,-134.5 191.12,-134.5 191.12,-114.5 70.88,-114.5"/>
<text text-anchor="middle" x="131" y="-121" font-family="Helvetica,sans-Serif" font-size="10.00">LinearAlgebra/Vector2.h</text>
</a>
</g>
</g>
<!-- Node5&#45;&gt;Node6 -->
<g id="edge5" class="edge">
<title>Node5&#45;&gt;Node6</title>
<path fill="none" stroke="midnightblue" d="M141.44,-285.89C139.75,-259.9 134.67,-181.82 132.27,-145.05"/>
<polygon fill="midnightblue" stroke="midnightblue" points="135.71,-145.05 131.57,-135.3 128.73,-145.5 135.71,-145.05"/>
</g>
<!-- Node7 -->
<g id="node7" class="node">
<title>Node7</title>
<g id="a_node7"><a xlink:href="_math_8h.html" target="_top" xlink:title=" ">
<polygon fill="none" stroke="black" points="465,-57.5 465,-77.5 511,-77.5 511,-57.5 465,-57.5"/>
<text text-anchor="middle" x="488" y="-64" font-family="Helvetica,sans-Serif" font-size="10.00">Math.h</text>
</a>
</g>
</g>
<!-- Node6&#45;&gt;Node7 -->
<g id="edge6" class="edge">
<title>Node6&#45;&gt;Node7</title>
<path fill="none" stroke="midnightblue" d="M189.15,-114.54C264.67,-102.91 393.98,-82.99 454.68,-73.63"/>
<polygon fill="midnightblue" stroke="midnightblue" points="454.84,-77 464.19,-72.01 453.77,-70.08 454.84,-77"/>
</g>
<!-- Node12 -->
<g id="node12" class="node">
<title>Node12</title>
<g id="a_node12"><a xlink:href="_matrix2_8h.html" target="_top" xlink:title=" ">
<polygon fill="none" stroke="black" points="54.75,-57.5 54.75,-77.5 111.25,-77.5 111.25,-57.5 54.75,-57.5"/>
<text text-anchor="middle" x="83" y="-64" font-family="Helvetica,sans-Serif" font-size="10.00">Matrix2.h</text>
</a>
</g>
</g>
<!-- Node6&#45;&gt;Node12 -->
<g id="edge12" class="edge">
<title>Node6&#45;&gt;Node12</title>
<path fill="none" stroke="midnightblue" d="M123.5,-114.91C116.64,-107.04 106.28,-95.18 97.76,-85.42"/>
<polygon fill="midnightblue" stroke="midnightblue" points="99.82,-83.45 90.61,-78.21 94.54,-88.05 99.82,-83.45"/>
</g>
<!-- Node13 -->
<g id="node13" class="node">
<title>Node13</title>
<g id="a_node13"><a xlink:title=" ">
<polygon fill="none" stroke="#bfbfbf" points="84.25,-0.5 84.25,-20.5 137.75,-20.5 137.75,-0.5 84.25,-0.5"/>
<text text-anchor="middle" x="111" y="-7" font-family="Helvetica,sans-Serif" font-size="10.00">iostream</text>
</a>
</g>
</g>
<!-- Node6&#45;&gt;Node13 -->
<g id="edge22" class="edge">
<title>Node6&#45;&gt;Node13</title>
<path fill="none" stroke="midnightblue" d="M96.76,-114.54C78.26,-107.76 57.01,-96.38 46,-78 33.5,-57.13 58.24,-37.79 80.71,-25.4"/>
<polygon fill="midnightblue" stroke="midnightblue" points="82.14,-28.09 89.41,-20.38 78.92,-21.87 82.14,-28.09"/>
</g>
<!-- Node14 -->
<g id="node14" class="node">
<title>Node14</title>
<g id="a_node14"><a xlink:href="_matrix3_8h.html" target="_top" xlink:title=" ">
<polygon fill="none" stroke="black" points="352.75,-57.5 352.75,-77.5 409.25,-77.5 409.25,-57.5 352.75,-57.5"/>
<text text-anchor="middle" x="381" y="-64" font-family="Helvetica,sans-Serif" font-size="10.00">Matrix3.h</text>
</a>
</g>
</g>
<!-- Node6&#45;&gt;Node14 -->
<g id="edge14" class="edge">
<title>Node6&#45;&gt;Node14</title>
<path fill="none" stroke="midnightblue" d="M171.72,-114.54C218.99,-104.14 296.35,-87.12 342.6,-76.95"/>
<polygon fill="midnightblue" stroke="midnightblue" points="343.08,-80.21 352.09,-74.64 341.57,-73.37 343.08,-80.21"/>
</g>
<!-- Node15 -->
<g id="node15" class="node">
<title>Node15</title>
<g id="a_node15"><a xlink:title=" ">
<polygon fill="none" stroke="#bfbfbf" points="345.12,-0.5 345.12,-20.5 382.88,-20.5 382.88,-0.5 345.12,-0.5"/>
<text text-anchor="middle" x="364" y="-7" font-family="Helvetica,sans-Serif" font-size="10.00">array</text>
</a>
</g>
</g>
<!-- Node6&#45;&gt;Node15 -->
<g id="edge19" class="edge">
<title>Node6&#45;&gt;Node15</title>
<path fill="none" stroke="midnightblue" d="M144.52,-114.72C171.92,-96.91 231.65,-58.15 234,-57 238.72,-54.69 298.17,-34.13 335.02,-21.45"/>
<polygon fill="midnightblue" stroke="midnightblue" points="335.88,-24.51 344.2,-17.95 333.6,-17.89 335.88,-24.51"/>
</g>
<!-- Node16 -->
<g id="node16" class="node">
<title>Node16</title>
<g id="a_node16"><a xlink:title=" ">
<polygon fill="none" stroke="#bfbfbf" points="279.25,-0.5 279.25,-20.5 326.75,-20.5 326.75,-0.5 279.25,-0.5"/>
<text text-anchor="middle" x="303" y="-7" font-family="Helvetica,sans-Serif" font-size="10.00">cstddef</text>
</a>
</g>
</g>
<!-- Node6&#45;&gt;Node16 -->
<g id="edge21" class="edge">
<title>Node6&#45;&gt;Node16</title>
<path fill="none" stroke="midnightblue" d="M138.41,-114.75C150.42,-101 175.37,-74.15 201,-57 222.27,-42.77 248.72,-31.12 269.36,-23.17"/>
<polygon fill="midnightblue" stroke="midnightblue" points="270.42,-26.13 278.56,-19.35 267.97,-19.58 270.42,-26.13"/>
</g>
<!-- Node17 -->
<g id="node17" class="node">
<title>Node17</title>
<g id="a_node17"><a xlink:title=" ">
<polygon fill="none" stroke="#bfbfbf" points="243.25,-57.5 243.25,-77.5 296.75,-77.5 296.75,-57.5 243.25,-57.5"/>
<text text-anchor="middle" x="270" y="-64" font-family="Helvetica,sans-Serif" font-size="10.00">compare</text>
</a>
</g>
</g>
<!-- Node6&#45;&gt;Node17 -->
<g id="edge20" class="edge">
<title>Node6&#45;&gt;Node17</title>
<path fill="none" stroke="midnightblue" d="M153.64,-114.54C176.36,-105.55 211.58,-91.62 237.32,-81.43"/>
<polygon fill="midnightblue" stroke="midnightblue" points="238.36,-84.39 246.37,-77.46 235.78,-77.88 238.36,-84.39"/>
</g>
<!-- Node7&#45;&gt;Node7 -->
<g id="edge7" class="edge">
<title>Node7&#45;&gt;Node7</title>
<path fill="none" stroke="midnightblue" d="M506.55,-77.43C518.05,-79.83 529,-76.52 529,-67.5 529,-61.44 524.06,-57.96 517.33,-57.05"/>
<polygon fill="midnightblue" stroke="midnightblue" points="517.37,-53.59 507.55,-57.57 517.71,-60.59 517.37,-53.59"/>
</g>
<!-- Node8 -->
<g id="node8" class="node">
<title>Node8</title>
<g id="a_node8"><a xlink:title=" ">
<polygon fill="none" stroke="#bfbfbf" points="400.5,-0.5 400.5,-20.5 443.5,-20.5 443.5,-0.5 400.5,-0.5"/>
<text text-anchor="middle" x="422" y="-7" font-family="Helvetica,sans-Serif" font-size="10.00">cmath</text>
</a>
</g>
</g>
<!-- Node7&#45;&gt;Node8 -->
<g id="edge8" class="edge">
<title>Node7&#45;&gt;Node8</title>
<path fill="none" stroke="midnightblue" d="M477.4,-57.66C467.64,-49.53 452.94,-37.28 441.13,-27.44"/>
<polygon fill="midnightblue" stroke="midnightblue" points="443.72,-24.21 433.8,-20.5 439.24,-29.59 443.72,-24.21"/>
</g>
<!-- Node9 -->
<g id="node9" class="node">
<title>Node9</title>
<g id="a_node9"><a xlink:title=" ">
<polygon fill="none" stroke="#bfbfbf" points="599.38,-0.5 599.38,-20.5 638.62,-20.5 638.62,-0.5 599.38,-0.5"/>
<text text-anchor="middle" x="619" y="-7" font-family="Helvetica,sans-Serif" font-size="10.00">limits</text>
</a>
</g>
</g>
<!-- Node7&#45;&gt;Node9 -->
<g id="edge9" class="edge">
<title>Node7&#45;&gt;Node9</title>
<path fill="none" stroke="midnightblue" d="M509.34,-57.54C531.06,-48.42 564.92,-34.2 589.27,-23.98"/>
<polygon fill="midnightblue" stroke="midnightblue" points="590.52,-26.83 598.38,-19.74 587.81,-20.38 590.52,-26.83"/>
</g>
<!-- Node10 -->
<g id="node10" class="node">
<title>Node10</title>
<g id="a_node10"><a xlink:title=" ">
<polygon fill="none" stroke="#bfbfbf" points="461.25,-0.5 461.25,-20.5 514.75,-20.5 514.75,-0.5 461.25,-0.5"/>
<text text-anchor="middle" x="488" y="-7" font-family="Helvetica,sans-Serif" font-size="10.00">numbers</text>
</a>
</g>
</g>
<!-- Node7&#45;&gt;Node10 -->
<g id="edge10" class="edge">
<title>Node7&#45;&gt;Node10</title>
<path fill="none" stroke="midnightblue" d="M488,-57.91C488,-50.76 488,-40.32 488,-31.15"/>
<polygon fill="midnightblue" stroke="midnightblue" points="491.5,-31.21 488,-21.21 484.5,-31.21 491.5,-31.21"/>
</g>
<!-- Node11 -->
<g id="node11" class="node">
<title>Node11</title>
<g id="a_node11"><a xlink:title=" ">
<polygon fill="none" stroke="#bfbfbf" points="532.88,-0.5 532.88,-20.5 581.12,-20.5 581.12,-0.5 532.88,-0.5"/>
<text text-anchor="middle" x="557" y="-7" font-family="Helvetica,sans-Serif" font-size="10.00">random</text>
</a>
</g>
</g>
<!-- Node7&#45;&gt;Node11 -->
<g id="edge11" class="edge">
<title>Node7&#45;&gt;Node11</title>
<path fill="none" stroke="midnightblue" d="M499.09,-57.66C509.39,-49.45 524.96,-37.04 537.36,-27.15"/>
<polygon fill="midnightblue" stroke="midnightblue" points="539.07,-29.47 544.71,-20.5 534.71,-23.99 539.07,-29.47"/>
</g>
<!-- Node12&#45;&gt;Node13 -->
<g id="edge13" class="edge">
<title>Node12&#45;&gt;Node13</title>
<path fill="none" stroke="midnightblue" d="M87.38,-57.91C91.17,-50.44 96.81,-39.38 101.62,-29.93"/>
<polygon fill="midnightblue" stroke="midnightblue" points="105.15,-31.71 106.56,-21.21 98.91,-28.54 105.15,-31.71"/>
</g>
<!-- Node14&#45;&gt;Node8 -->
<g id="edge16" class="edge">
<title>Node14&#45;&gt;Node8</title>
<path fill="none" stroke="midnightblue" d="M387.41,-57.91C393.15,-50.2 401.75,-38.66 408.94,-29.02"/>
<polygon fill="midnightblue" stroke="midnightblue" points="412.33,-31.32 415.5,-21.21 406.72,-27.14 412.33,-31.32"/>
</g>
<!-- Node14&#45;&gt;Node13 -->
<g id="edge18" class="edge">
<title>Node14&#45;&gt;Node13</title>
<path fill="none" stroke="midnightblue" d="M352.87,-60.77C303.84,-50.78 202.76,-30.19 148.08,-19.05"/>
<polygon fill="midnightblue" stroke="midnightblue" points="148.96,-15.46 138.47,-16.89 147.57,-22.32 148.96,-15.46"/>
</g>
<!-- Node14&#45;&gt;Node15 -->
<g id="edge15" class="edge">
<title>Node14&#45;&gt;Node15</title>
<path fill="none" stroke="midnightblue" d="M378.34,-57.91C376.09,-50.6 372.76,-39.85 369.88,-30.54"/>
<polygon fill="midnightblue" stroke="midnightblue" points="372.99,-29.74 366.69,-21.21 366.3,-31.8 372.99,-29.74"/>
</g>
<!-- Node14&#45;&gt;Node16 -->
<g id="edge17" class="edge">
<title>Node14&#45;&gt;Node16</title>
<path fill="none" stroke="midnightblue" d="M368.47,-57.66C356.6,-49.29 338.54,-36.56 324.39,-26.58"/>
<polygon fill="midnightblue" stroke="midnightblue" points="326.95,-23.4 316.76,-20.5 322.92,-29.12 326.95,-23.4"/>
</g>
<!-- Node19 -->
<g id="node19" class="node">
<title>Node19</title>
<g id="a_node19"><a xlink:href="_engine_exception_8h.html" target="_top" xlink:title=" ">
<polygon fill="none" stroke="black" points="746.12,-171.5 746.12,-191.5 843.88,-191.5 843.88,-171.5 746.12,-171.5"/>
<text text-anchor="middle" x="795" y="-178" font-family="Helvetica,sans-Serif" font-size="10.00">EngineException.h</text>
</a>
</g>
</g>
<!-- Node18&#45;&gt;Node19 -->
<g id="edge25" class="edge">
<title>Node18&#45;&gt;Node19</title>
<path fill="none" stroke="midnightblue" d="M358.52,-289.48C404.43,-281.94 492.27,-266.68 566,-249 634.02,-232.69 712,-208.94 757.17,-194.68"/>
<polygon fill="midnightblue" stroke="midnightblue" points="757.9,-197.8 766.38,-191.44 755.79,-191.13 757.9,-197.8"/>
</g>
<!-- Node21 -->
<g id="node21" class="node">
<title>Node21</title>
<g id="a_node21"><a xlink:href="_vector3_8h.html" target="_top" xlink:title=" ">
<polygon fill="none" stroke="black" points="376.88,-114.5 376.88,-134.5 497.12,-134.5 497.12,-114.5 376.88,-114.5"/>
<text text-anchor="middle" x="437" y="-121" font-family="Helvetica,sans-Serif" font-size="10.00">LinearAlgebra/Vector3.h</text>
</a>
</g>
</g>
<!-- Node18&#45;&gt;Node21 -->
<g id="edge27" class="edge">
<title>Node18&#45;&gt;Node21</title>
<path fill="none" stroke="midnightblue" d="M342.86,-285.6C355.86,-277.57 373.85,-264.63 385,-249 406.3,-219.13 397.11,-204.53 412,-171 416.11,-161.73 421.44,-151.82 426.12,-143.63"/>
<polygon fill="midnightblue" stroke="midnightblue" points="429.53,-145.73 431.56,-135.34 423.49,-142.2 429.53,-145.73"/>
</g>
<!-- Node22 -->
<g id="node22" class="node">
<title>Node22</title>
<g id="a_node22"><a xlink:href="_g_d_i_plus_manager_8h.html" target="_top" xlink:title=" ">
<polygon fill="none" stroke="black" points="278.12,-228.5 278.12,-248.5 375.88,-248.5 375.88,-228.5 278.12,-228.5"/>
<text text-anchor="middle" x="327" y="-235" font-family="Helvetica,sans-Serif" font-size="10.00">GDIPlusManager.h</text>
</a>
</g>
</g>
<!-- Node18&#45;&gt;Node22 -->
<g id="edge34" class="edge">
<title>Node18&#45;&gt;Node22</title>
<path fill="none" stroke="midnightblue" d="M327,-285.91C327,-278.76 327,-268.32 327,-259.15"/>
<polygon fill="midnightblue" stroke="midnightblue" points="330.5,-259.21 327,-249.21 323.5,-259.21 330.5,-259.21"/>
</g>
<!-- Node26 -->
<g id="node26" class="node">
<title>Node26</title>
<g id="a_node26"><a xlink:href="_surface_8h.html" target="_top" xlink:title=" ">
<polygon fill="none" stroke="black" points="499.38,-228.5 499.38,-248.5 556.62,-248.5 556.62,-228.5 499.38,-228.5"/>
<text text-anchor="middle" x="528" y="-235" font-family="Helvetica,sans-Serif" font-size="10.00">Surface.h</text>
</a>
</g>
</g>
<!-- Node18&#45;&gt;Node26 -->
<g id="edge38" class="edge">
<title>Node18&#45;&gt;Node26</title>
<path fill="none" stroke="midnightblue" d="M358.41,-285.91C393.73,-276.24 451.12,-260.54 489.22,-250.11"/>
<polygon fill="midnightblue" stroke="midnightblue" points="489.69,-253.34 498.42,-247.32 487.85,-246.59 489.69,-253.34"/>
</g>
<!-- Node31 -->
<g id="node31" class="node">
<title>Node31</title>
<g id="a_node31"><a xlink:title=" ">
<polygon fill="none" stroke="#bfbfbf" points="155.75,-228.5 155.75,-248.5 206.25,-248.5 206.25,-228.5 155.75,-228.5"/>
<text text-anchor="middle" x="181" y="-235" font-family="Helvetica,sans-Serif" font-size="10.00">d3d11.h</text>
</a>
</g>
</g>
<!-- Node18&#45;&gt;Node31 -->
<g id="edge47" class="edge">
<title>Node18&#45;&gt;Node31</title>
<path fill="none" stroke="midnightblue" d="M303.22,-285.54C279.25,-276.51 242.03,-262.49 214.96,-252.29"/>
<polygon fill="midnightblue" stroke="midnightblue" points="216.36,-248.71 205.77,-248.46 213.9,-255.26 216.36,-248.71"/>
</g>
<!-- Node32 -->
<g id="node32" class="node">
<title>Node32</title>
<g id="a_node32"><a xlink:title=" ">
<polygon fill="none" stroke="#bfbfbf" points="223.88,-228.5 223.88,-248.5 260.12,-248.5 260.12,-228.5 223.88,-228.5"/>
<text text-anchor="middle" x="242" y="-235" font-family="Helvetica,sans-Serif" font-size="10.00">wrl.h</text>
</a>
</g>
</g>
<!-- Node18&#45;&gt;Node32 -->
<g id="edge48" class="edge">
<title>Node18&#45;&gt;Node32</title>
<path fill="none" stroke="midnightblue" d="M313.34,-285.66C300.29,-277.21 280.35,-264.31 264.87,-254.3"/>
<polygon fill="midnightblue" stroke="midnightblue" points="267.2,-250.99 256.91,-248.5 263.4,-256.87 267.2,-250.99"/>
</g>
<!-- Node19&#45;&gt;Node20 -->
<g id="edge26" class="edge">
<title>Node19&#45;&gt;Node20</title>
<path fill="none" stroke="midnightblue" d="M795,-171.91C795,-164.76 795,-154.32 795,-145.15"/>
<polygon fill="midnightblue" stroke="midnightblue" points="798.5,-145.21 795,-135.21 791.5,-145.21 798.5,-145.21"/>
</g>
<!-- Node21&#45;&gt;Node7 -->
<g id="edge28" class="edge">
<title>Node21&#45;&gt;Node7</title>
<path fill="none" stroke="midnightblue" d="M444.97,-114.91C452.34,-106.96 463.49,-94.94 472.59,-85.12"/>
<polygon fill="midnightblue" stroke="midnightblue" points="474.69,-87.93 478.92,-78.21 469.55,-83.17 474.69,-87.93"/>
</g>
<!-- Node21&#45;&gt;Node13 -->
<g id="edge31" class="edge">
<title>Node21&#45;&gt;Node13</title>
<path fill="none" stroke="midnightblue" d="M377.12,-114.54C336.02,-107.32 280.68,-95.47 234,-78 197.03,-64.17 157.4,-41.08 133.41,-26.07"/>
<polygon fill="midnightblue" stroke="midnightblue" points="135.75,-22.78 125.43,-20.38 132,-28.69 135.75,-22.78"/>
</g>
<!-- Node21&#45;&gt;Node14 -->
<g id="edge29" class="edge">
<title>Node21&#45;&gt;Node14</title>
<path fill="none" stroke="midnightblue" d="M428,-114.66C419.89,-106.69 407.74,-94.76 397.82,-85.02"/>
<polygon fill="midnightblue" stroke="midnightblue" points="400.75,-83.01 391.16,-78.5 395.84,-88 400.75,-83.01"/>
</g>
<!-- Node21&#45;&gt;Node15 -->
<g id="edge30" class="edge">
<title>Node21&#45;&gt;Node15</title>
<path fill="none" stroke="midnightblue" d="M436.13,-114.64C434.47,-101.22 429.87,-75.35 418,-57 410.17,-44.9 398.14,-34.32 387.42,-26.41"/>
<polygon fill="midnightblue" stroke="midnightblue" points="389.69,-23.03 379.48,-20.18 385.69,-28.77 389.69,-23.03"/>
</g>
<!-- Node21&#45;&gt;Node16 -->
<g id="edge33" class="edge">
<title>Node21&#45;&gt;Node16</title>
<path fill="none" stroke="midnightblue" d="M408.92,-114.51C389.08,-107.1 362.77,-95.03 344,-78 329.27,-64.64 317.96,-44.77 310.99,-30.23"/>
<polygon fill="midnightblue" stroke="midnightblue" points="313.83,-29.01 306.52,-21.34 307.45,-31.9 313.83,-29.01"/>
</g>
<!-- Node21&#45;&gt;Node17 -->
<g id="edge32" class="edge">
<title>Node21&#45;&gt;Node17</title>
<path fill="none" stroke="midnightblue" d="M409.8,-114.54C381.85,-105.34 338.16,-90.95 307.07,-80.71"/>
<polygon fill="midnightblue" stroke="midnightblue" points="308.23,-77.08 297.64,-77.27 306.04,-83.73 308.23,-77.08"/>
</g>
<!-- Node23 -->
<g id="node23" class="node">
<title>Node23</title>
<g id="a_node23"><a xlink:href="_win_8h.html" target="_top" xlink:title=" ">
<polygon fill="none" stroke="black" points="306.25,-171.5 306.25,-191.5 347.75,-191.5 347.75,-171.5 306.25,-171.5"/>
<text text-anchor="middle" x="327" y="-178" font-family="Helvetica,sans-Serif" font-size="10.00">Win.h</text>
</a>
</g>
</g>
<!-- Node22&#45;&gt;Node23 -->
<g id="edge35" class="edge">
<title>Node22&#45;&gt;Node23</title>
<path fill="none" stroke="midnightblue" d="M327,-228.91C327,-221.76 327,-211.32 327,-202.15"/>
<polygon fill="midnightblue" stroke="midnightblue" points="330.5,-202.21 327,-192.21 323.5,-202.21 330.5,-202.21"/>
</g>
<!-- Node24 -->
<g id="node24" class="node">
<title>Node24</title>
<g id="a_node24"><a xlink:title=" ">
<polygon fill="none" stroke="#bfbfbf" points="209.12,-114.5 209.12,-134.5 276.88,-134.5 276.88,-114.5 209.12,-114.5"/>
<text text-anchor="middle" x="243" y="-121" font-family="Helvetica,sans-Serif" font-size="10.00">sdkddkver.h</text>
</a>
</g>
</g>
<!-- Node23&#45;&gt;Node24 -->
<g id="edge36" class="edge">
<title>Node23&#45;&gt;Node24</title>
<path fill="none" stroke="midnightblue" d="M313.5,-171.66C300.6,-163.21 280.9,-150.31 265.6,-140.3"/>
<polygon fill="midnightblue" stroke="midnightblue" points="268.03,-137.05 257.74,-134.5 264.19,-142.9 268.03,-137.05"/>
</g>
<!-- Node25 -->
<g id="node25" class="node">
<title>Node25</title>
<g id="a_node25"><a xlink:title=" ">
<polygon fill="none" stroke="#bfbfbf" points="295,-114.5 295,-134.5 359,-134.5 359,-114.5 295,-114.5"/>
<text text-anchor="middle" x="327" y="-121" font-family="Helvetica,sans-Serif" font-size="10.00">Windows.h</text>
</a>
</g>
</g>
<!-- Node23&#45;&gt;Node25 -->
<g id="edge37" class="edge">
<title>Node23&#45;&gt;Node25</title>
<path fill="none" stroke="midnightblue" d="M327,-171.91C327,-164.76 327,-154.32 327,-145.15"/>
<polygon fill="midnightblue" stroke="midnightblue" points="330.5,-145.21 327,-135.21 323.5,-145.21 330.5,-145.21"/>
</g>
<!-- Node26&#45;&gt;Node19 -->
<g id="edge42" class="edge">
<title>Node26&#45;&gt;Node19</title>
<path fill="none" stroke="midnightblue" d="M556.57,-231.61C600.46,-222.57 685.23,-205.11 740.96,-193.63"/>
<polygon fill="midnightblue" stroke="midnightblue" points="741.61,-196.87 750.69,-191.42 740.19,-190.01 741.61,-196.87"/>
</g>
<!-- Node26&#45;&gt;Node20 -->
<g id="edge45" class="edge">
<title>Node26&#45;&gt;Node20</title>
<path fill="none" stroke="midnightblue" d="M523.17,-228.55C516.35,-214.53 506.16,-187.32 520,-171 551.08,-134.36 699.41,-127.18 764.39,-125.81"/>
<polygon fill="midnightblue" stroke="midnightblue" points="764.21,-129.3 774.15,-125.62 764.09,-122.3 764.21,-129.3"/>
</g>
<!-- Node26&#45;&gt;Node23 -->
<g id="edge41" class="edge">
<title>Node26&#45;&gt;Node23</title>
<path fill="none" stroke="midnightblue" d="M499.63,-229.74C462.14,-219.48 396.35,-201.48 357.72,-190.91"/>
<polygon fill="midnightblue" stroke="midnightblue" points="359.16,-187.4 348.59,-188.13 357.31,-194.15 359.16,-187.4"/>
</g>
<!-- Node27 -->
<g id="node27" class="node">
<title>Node27</title>
<g id="a_node27"><a xlink:href="_colors_8h.html" target="_top" xlink:title=" ">
<polygon fill="none" stroke="black" points="421,-171.5 421,-191.5 473,-191.5 473,-171.5 421,-171.5"/>
<text text-anchor="middle" x="447" y="-178" font-family="Helvetica,sans-Serif" font-size="10.00">Colors.h</text>
</a>
</g>
</g>
<!-- Node26&#45;&gt;Node27 -->
<g id="edge39" class="edge">
<title>Node26&#45;&gt;Node27</title>
<path fill="none" stroke="midnightblue" d="M514.99,-228.66C502.66,-220.29 483.9,-207.56 469.21,-197.58"/>
<polygon fill="midnightblue" stroke="midnightblue" points="471.49,-194.22 461.25,-191.5 467.56,-200.01 471.49,-194.22"/>
</g>
<!-- Node28 -->
<g id="node28" class="node">
<title>Node28</title>
<g id="a_node28"><a xlink:title=" ">
<polygon fill="none" stroke="#bfbfbf" points="529.38,-171.5 529.38,-191.5 580.62,-191.5 580.62,-171.5 529.38,-171.5"/>
<text text-anchor="middle" x="555" y="-178" font-family="Helvetica,sans-Serif" font-size="10.00">assert.h</text>
</a>
</g>
</g>
<!-- Node26&#45;&gt;Node28 -->
<g id="edge43" class="edge">
<title>Node26&#45;&gt;Node28</title>
<path fill="none" stroke="midnightblue" d="M532.22,-228.91C535.88,-221.44 541.31,-210.38 545.95,-200.93"/>
<polygon fill="midnightblue" stroke="midnightblue" points="549.46,-202.73 550.72,-192.21 543.17,-199.65 549.46,-202.73"/>
</g>
<!-- Node29 -->
<g id="node29" class="node">
<title>Node29</title>
<g id="a_node29"><a xlink:title=" ">
<polygon fill="none" stroke="#bfbfbf" points="598.38,-171.5 598.38,-191.5 649.62,-191.5 649.62,-171.5 598.38,-171.5"/>
<text text-anchor="middle" x="624" y="-178" font-family="Helvetica,sans-Serif" font-size="10.00">memory</text>
</a>
</g>
</g>
<!-- Node26&#45;&gt;Node29 -->
<g id="edge44" class="edge">
<title>Node26&#45;&gt;Node29</title>
<path fill="none" stroke="midnightblue" d="M543.42,-228.66C558.45,-220.05 581.54,-206.83 599.16,-196.73"/>
<polygon fill="midnightblue" stroke="midnightblue" points="600.36,-199.51 607.3,-191.5 596.88,-193.43 600.36,-199.51"/>
</g>
<!-- Node30 -->
<g id="node30" class="node">
<title>Node30</title>
<g id="a_node30"><a xlink:title=" ">
<polygon fill="none" stroke="#bfbfbf" points="667.88,-171.5 667.88,-191.5 728.12,-191.5 728.12,-171.5 667.88,-171.5"/>
<text text-anchor="middle" x="698" y="-178" font-family="Helvetica,sans-Serif" font-size="10.00">filesystem</text>
</a>
</g>
</g>
<!-- Node26&#45;&gt;Node30 -->
<g id="edge46" class="edge">
<title>Node26&#45;&gt;Node30</title>
<path fill="none" stroke="midnightblue" d="M555.69,-228.54C584.09,-219.35 628.47,-204.99 660.12,-194.76"/>
<polygon fill="midnightblue" stroke="midnightblue" points="660.88,-197.86 669.32,-191.46 658.73,-191.2 660.88,-197.86"/>
</g>
<!-- Node27&#45;&gt;Node21 -->
<g id="edge40" class="edge">
<title>Node27&#45;&gt;Node21</title>
<path fill="none" stroke="midnightblue" d="M445.44,-171.91C444.12,-164.68 442.2,-154.09 440.52,-144.85"/>
<polygon fill="midnightblue" stroke="midnightblue" points="443.82,-144.43 438.58,-135.21 436.93,-145.68 443.82,-144.43"/>
</g>
</g>
</svg>
