<?xml version="1.0" encoding="UTF-8" standalone="no"?>
<!DOCTYPE svg PUBLIC "-//W3C//DTD SVG 1.1//EN"
 "http://www.w3.org/Graphics/SVG/1.1/DTD/svg11.dtd">
<!-- Generated by graphviz version 8.1.0 (20230707.0739)
 -->
<!-- Title: include/Scene.h Pages: 1 -->
<svg width="1619pt" height="155pt"
 viewBox="0.00 0.00 1619.00 155.00" xmlns="http://www.w3.org/2000/svg" xmlns:xlink="http://www.w3.org/1999/xlink">
<g id="graph0" class="graph" transform="scale(1 1) rotate(0) translate(4 151)">
<title>include/Scene.h</title>
<!-- Node1 -->
<g id="node1" class="node">
<title>Node1</title>
<g id="a_node1"><a xlink:title=" ">
<polygon fill="#bfbfbf" stroke="black" points="775.75,-126.5 775.75,-146.5 861.5,-146.5 861.5,-126.5 775.75,-126.5"/>
<text text-anchor="middle" x="818.62" y="-133" font-family="Helvetica,sans-Serif" font-size="10.00">include/Scene.h</text>
</a>
</g>
</g>
<!-- Node2 -->
<g id="node2" class="node">
<title>Node2</title>
<g id="a_node2"><a xlink:href="_engine_8h.html" target="_top" xlink:title=" ">
<polygon fill="none" stroke="black" points="1459.62,-63.5 1459.62,-83.5 1547.62,-83.5 1547.62,-63.5 1459.62,-63.5"/>
<text text-anchor="middle" x="1503.62" y="-70" font-family="Helvetica,sans-Serif" font-size="10.00">include/Engine.h</text>
</a>
</g>
</g>
<!-- Node1&#45;&gt;Node2 -->
<g id="edge1" class="edge">
<title>Node1&#45;&gt;Node2</title>
<path fill="none" stroke="midnightblue" d="M871.91,-135.47C981.28,-134.57 1238.67,-128.17 1450.62,-90 1459.4,-88.42 1468.79,-85.94 1477.2,-83.43"/>
<polygon fill="midnightblue" stroke="midnightblue" points="872.15,-131.97 862.17,-135.54 872.19,-138.97 872.15,-131.97"/>
</g>
<!-- Node6 -->
<g id="node6" class="node">
<title>Node6</title>
<g id="a_node6"><a xlink:href="_cube_flat_independent_scene_8h.html" target="_top" xlink:title=" ">
<polygon fill="none" stroke="black" points="0,-57.5 0,-89.5 177.25,-89.5 177.25,-57.5 0,-57.5"/>
<text text-anchor="start" x="8" y="-76" font-family="Helvetica,sans-Serif" font-size="10.00">include/Scenes/CubeFlatIndependent</text>
<text text-anchor="middle" x="88.62" y="-64" font-family="Helvetica,sans-Serif" font-size="10.00">Scene.h</text>
</a>
</g>
</g>
<!-- Node1&#45;&gt;Node6 -->
<g id="edge5" class="edge">
<title>Node1&#45;&gt;Node6</title>
<path fill="none" stroke="midnightblue" d="M765.27,-133.19C656.28,-128.14 400.32,-114.55 186.62,-90 183.46,-89.64 180.24,-89.24 176.99,-88.83"/>
<polygon fill="midnightblue" stroke="midnightblue" points="764.82,-136.72 774.97,-133.68 765.14,-129.73 764.82,-136.72"/>
</g>
<!-- Node7 -->
<g id="node7" class="node">
<title>Node7</title>
<g id="a_node7"><a xlink:href="_cube_skin_scene_8h.html" target="_top" xlink:title=" ">
<polygon fill="none" stroke="black" points="195.75,-63.5 195.75,-83.5 359.5,-83.5 359.5,-63.5 195.75,-63.5"/>
<text text-anchor="middle" x="277.62" y="-70" font-family="Helvetica,sans-Serif" font-size="10.00">include/Scenes/CubeSkinScene.h</text>
</a>
</g>
</g>
<!-- Node1&#45;&gt;Node7 -->
<g id="edge7" class="edge">
<title>Node1&#45;&gt;Node7</title>
<path fill="none" stroke="midnightblue" d="M765.16,-131.28C680.73,-124.34 511.42,-109.36 368.62,-90 354.97,-88.15 340.22,-85.79 326.65,-83.48"/>
<polygon fill="midnightblue" stroke="midnightblue" points="764.76,-134.84 775.01,-132.16 765.33,-127.86 764.76,-134.84"/>
</g>
<!-- Node8 -->
<g id="node8" class="node">
<title>Node8</title>
<g id="a_node8"><a xlink:href="_cube_solid_geometry_scene_8h.html" target="_top" xlink:title=" ">
<polygon fill="none" stroke="black" points="377.62,-57.5 377.62,-89.5 507.62,-89.5 507.62,-57.5 377.62,-57.5"/>
<text text-anchor="start" x="385.62" y="-76" font-family="Helvetica,sans-Serif" font-size="10.00">include/Scenes/CubeSolid</text>
<text text-anchor="middle" x="442.62" y="-64" font-family="Helvetica,sans-Serif" font-size="10.00">GeometryScene.h</text>
</a>
</g>
</g>
<!-- Node1&#45;&gt;Node8 -->
<g id="edge9" class="edge">
<title>Node1&#45;&gt;Node8</title>
<path fill="none" stroke="midnightblue" d="M765.18,-128.39C704.71,-120.12 603.33,-105.6 516.62,-90 513.65,-89.47 510.62,-88.9 507.56,-88.32"/>
<polygon fill="midnightblue" stroke="midnightblue" points="764.61,-131.98 774.99,-129.86 765.55,-125.04 764.61,-131.98"/>
</g>
<!-- Node9 -->
<g id="node9" class="node">
<title>Node9</title>
<g id="a_node9"><a xlink:href="_cube_solid_scene_8h.html" target="_top" xlink:title=" ">
<polygon fill="none" stroke="black" points="525.62,-57.5 525.62,-89.5 655.62,-89.5 655.62,-57.5 525.62,-57.5"/>
<text text-anchor="start" x="533.62" y="-76" font-family="Helvetica,sans-Serif" font-size="10.00">include/Scenes/CubeSolid</text>
<text text-anchor="middle" x="590.62" y="-64" font-family="Helvetica,sans-Serif" font-size="10.00">Scene.h</text>
</a>
</g>
</g>
<!-- Node1&#45;&gt;Node9 -->
<g id="edge11" class="edge">
<title>Node1&#45;&gt;Node9</title>
<path fill="none" stroke="midnightblue" d="M775.13,-123.86C738.54,-114.07 685.99,-100.01 646.32,-89.4"/>
<polygon fill="midnightblue" stroke="midnightblue" points="773.91,-127.43 784.47,-126.63 775.72,-120.66 773.91,-127.43"/>
</g>
<!-- Node10 -->
<g id="node10" class="node">
<title>Node10</title>
<g id="a_node10"><a xlink:href="_cube_vertex_color_scene_8h.html" target="_top" xlink:title=" ">
<polygon fill="none" stroke="black" points="673.25,-57.5 673.25,-89.5 810,-89.5 810,-57.5 673.25,-57.5"/>
<text text-anchor="start" x="681.25" y="-76" font-family="Helvetica,sans-Serif" font-size="10.00">include/Scenes/CubeVertex</text>
<text text-anchor="middle" x="741.62" y="-64" font-family="Helvetica,sans-Serif" font-size="10.00">ColorScene.h</text>
</a>
</g>
</g>
<!-- Node1&#45;&gt;Node10 -->
<g id="edge13" class="edge">
<title>Node1&#45;&gt;Node10</title>
<path fill="none" stroke="midnightblue" d="M799.23,-120.14C787.33,-110.71 772.15,-98.69 760.37,-89.35"/>
<polygon fill="midnightblue" stroke="midnightblue" points="796.58,-123.29 806.59,-126.76 800.93,-117.81 796.58,-123.29"/>
</g>
<!-- Node11 -->
<g id="node11" class="node">
<title>Node11</title>
<g id="a_node11"><a xlink:href="_cube_vertex_position_color_scene_8h.html" target="_top" xlink:title=" ">
<polygon fill="none" stroke="black" points="828.25,-57.5 828.25,-89.5 965,-89.5 965,-57.5 828.25,-57.5"/>
<text text-anchor="start" x="836.25" y="-76" font-family="Helvetica,sans-Serif" font-size="10.00">include/Scenes/CubeVertex</text>
<text text-anchor="middle" x="896.62" y="-64" font-family="Helvetica,sans-Serif" font-size="10.00">PositionColorScene.h</text>
</a>
</g>
</g>
<!-- Node1&#45;&gt;Node11 -->
<g id="edge15" class="edge">
<title>Node1&#45;&gt;Node11</title>
<path fill="none" stroke="midnightblue" d="M838.27,-120.14C850.33,-110.71 865.7,-98.69 877.64,-89.35"/>
<polygon fill="midnightblue" stroke="midnightblue" points="836.52,-117.84 830.8,-126.76 840.83,-123.36 836.52,-117.84"/>
</g>
<!-- Node12 -->
<g id="node12" class="node">
<title>Node12</title>
<g id="a_node12"><a xlink:href="_double_cube_scene_8h.html" target="_top" xlink:title=" ">
<polygon fill="none" stroke="black" points="983.5,-57.5 983.5,-89.5 1121.75,-89.5 1121.75,-57.5 983.5,-57.5"/>
<text text-anchor="start" x="991.5" y="-76" font-family="Helvetica,sans-Serif" font-size="10.00">include/Scenes/DoubleCube</text>
<text text-anchor="middle" x="1052.62" y="-64" font-family="Helvetica,sans-Serif" font-size="10.00">Scene.h</text>
</a>
</g>
</g>
<!-- Node1&#45;&gt;Node12 -->
<g id="edge17" class="edge">
<title>Node1&#45;&gt;Node12</title>
<path fill="none" stroke="midnightblue" d="M863.26,-123.86C900.82,-114.07 954.75,-100.01 995.46,-89.4"/>
<polygon fill="midnightblue" stroke="midnightblue" points="862.44,-120.72 853.65,-126.63 864.21,-127.49 862.44,-120.72"/>
</g>
<!-- Node13 -->
<g id="node13" class="node">
<title>Node13</title>
<g id="a_node13"><a xlink:href="_geometry_flat_scene_8h.html" target="_top" xlink:title=" ">
<polygon fill="none" stroke="black" points="1140.12,-57.5 1140.12,-89.5 1285.12,-89.5 1285.12,-57.5 1140.12,-57.5"/>
<text text-anchor="start" x="1148.12" y="-76" font-family="Helvetica,sans-Serif" font-size="10.00">include/Scenes/GeometryFlat</text>
<text text-anchor="middle" x="1212.62" y="-64" font-family="Helvetica,sans-Serif" font-size="10.00">Scene.h</text>
</a>
</g>
</g>
<!-- Node1&#45;&gt;Node13 -->
<g id="edge19" class="edge">
<title>Node1&#45;&gt;Node13</title>
<path fill="none" stroke="midnightblue" d="M872.08,-128.4C934.3,-119.97 1040.1,-105.15 1130.62,-90 1133.77,-89.47 1136.98,-88.92 1140.22,-88.36"/>
<polygon fill="midnightblue" stroke="midnightblue" points="871.8,-125.04 862.36,-129.85 872.74,-131.98 871.8,-125.04"/>
</g>
<!-- Node14 -->
<g id="node14" class="node">
<title>Node14</title>
<g id="a_node14"><a xlink:href="_vertex_wave_scene_8h.html" target="_top" xlink:title=" ">
<polygon fill="none" stroke="black" points="1303.5,-57.5 1303.5,-89.5 1441.75,-89.5 1441.75,-57.5 1303.5,-57.5"/>
<text text-anchor="start" x="1311.5" y="-76" font-family="Helvetica,sans-Serif" font-size="10.00">include/Scenes/VertexWave</text>
<text text-anchor="middle" x="1372.62" y="-64" font-family="Helvetica,sans-Serif" font-size="10.00">Scene.h</text>
</a>
</g>
</g>
<!-- Node1&#45;&gt;Node14 -->
<g id="edge21" class="edge">
<title>Node1&#45;&gt;Node14</title>
<path fill="none" stroke="midnightblue" d="M872.29,-132.14C960.65,-126.22 1142.21,-112.37 1294.62,-90 1297.63,-89.56 1300.69,-89.08 1303.79,-88.57"/>
<polygon fill="midnightblue" stroke="midnightblue" points="872.21,-128.71 862.47,-132.86 872.68,-135.69 872.21,-128.71"/>
</g>
<!-- Node3 -->
<g id="node3" class="node">
<title>Node3</title>
<g id="a_node3"><a xlink:href="_engine_8cpp.html" target="_top" xlink:title=" ">
<polygon fill="none" stroke="black" points="779,-0.5 779,-20.5 860.25,-20.5 860.25,-0.5 779,-0.5"/>
<text text-anchor="middle" x="819.62" y="-7" font-family="Helvetica,sans-Serif" font-size="10.00">src/Engine.cpp</text>
</a>
</g>
</g>
<!-- Node2&#45;&gt;Node3 -->
<g id="edge2" class="edge">
<title>Node2&#45;&gt;Node3</title>
<path fill="none" stroke="midnightblue" d="M1466.99,-60.69C1461.55,-59.26 1455.97,-57.96 1450.62,-57 1230.39,-17.32 961.01,-11.98 860.23,-11.45"/>
<polygon fill="midnightblue" stroke="midnightblue" points="1465.62,-64.23 1476.2,-63.57 1467.52,-57.49 1465.62,-64.23"/>
</g>
<!-- Node4 -->
<g id="node4" class="node">
<title>Node4</title>
<g id="a_node4"><a xlink:href="_main_8cpp.html" target="_top" xlink:title=" ">
<polygon fill="none" stroke="black" points="1413.5,-0.5 1413.5,-20.5 1485.75,-20.5 1485.75,-0.5 1413.5,-0.5"/>
<text text-anchor="middle" x="1449.62" y="-7" font-family="Helvetica,sans-Serif" font-size="10.00">src/Main.cpp</text>
</a>
</g>
</g>
<!-- Node2&#45;&gt;Node4 -->
<g id="edge3" class="edge">
<title>Node2&#45;&gt;Node4</title>
<path fill="none" stroke="midnightblue" d="M1488.8,-55.76C1478.62,-44.26 1465.52,-29.46 1457.35,-20.22"/>
<polygon fill="midnightblue" stroke="midnightblue" points="1485.64,-57.59 1494.89,-62.76 1490.88,-52.95 1485.64,-57.59"/>
</g>
<!-- Node5 -->
<g id="node5" class="node">
<title>Node5</title>
<g id="a_node5"><a xlink:href="_main_window_8cpp.html" target="_top" xlink:title=" ">
<polygon fill="none" stroke="black" points="1504.25,-0.5 1504.25,-20.5 1611,-20.5 1611,-0.5 1504.25,-0.5"/>
<text text-anchor="middle" x="1557.62" y="-7" font-family="Helvetica,sans-Serif" font-size="10.00">src/MainWindow.cpp</text>
</a>
</g>
</g>
<!-- Node2&#45;&gt;Node5 -->
<g id="edge4" class="edge">
<title>Node2&#45;&gt;Node5</title>
<path fill="none" stroke="midnightblue" d="M1518.45,-55.76C1528.63,-44.26 1541.73,-29.46 1549.9,-20.22"/>
<polygon fill="midnightblue" stroke="midnightblue" points="1516.37,-52.95 1512.36,-62.76 1521.61,-57.59 1516.37,-52.95"/>
</g>
<!-- Node6&#45;&gt;Node3 -->
<g id="edge6" class="edge">
<title>Node6&#45;&gt;Node3</title>
<path fill="none" stroke="midnightblue" d="M187.58,-56.96C417.76,-30.98 680.16,-17.66 779.15,-13.21"/>
<polygon fill="midnightblue" stroke="midnightblue" points="187.53,-53.56 177.99,-58.17 188.32,-60.51 187.53,-53.56"/>
</g>
<!-- Node7&#45;&gt;Node3 -->
<g id="edge8" class="edge">
<title>Node7&#45;&gt;Node3</title>
<path fill="none" stroke="midnightblue" d="M337.34,-61.73C347.75,-60.02 358.49,-58.37 368.62,-57 519.52,-36.56 699.97,-21.02 779.09,-14.66"/>
<polygon fill="midnightblue" stroke="midnightblue" points="336.93,-58.42 327.65,-63.52 338.09,-65.32 336.93,-58.42"/>
</g>
<!-- Node8&#45;&gt;Node3 -->
<g id="edge10" class="edge">
<title>Node8&#45;&gt;Node3</title>
<path fill="none" stroke="midnightblue" d="M518.12,-56.79C617.85,-39.11 723.13,-24.36 779.31,-16.8"/>
<polygon fill="midnightblue" stroke="midnightblue" points="517.78,-53.47 508.56,-58.68 519.02,-60.37 517.78,-53.47"/>
</g>
<!-- Node9&#45;&gt;Node3 -->
<g id="edge12" class="edge">
<title>Node9&#45;&gt;Node3</title>
<path fill="none" stroke="midnightblue" d="M657.15,-54.78C699.46,-43.51 752.43,-29.4 786.16,-20.42"/>
<polygon fill="midnightblue" stroke="midnightblue" points="656.41,-51.62 647.64,-57.58 658.21,-58.39 656.41,-51.62"/>
</g>
<!-- Node10&#45;&gt;Node3 -->
<g id="edge14" class="edge">
<title>Node10&#45;&gt;Node3</title>
<path fill="none" stroke="midnightblue" d="M769.03,-51.07C782.56,-40.49 798.14,-28.31 808.39,-20.28"/>
<polygon fill="midnightblue" stroke="midnightblue" points="767.23,-48.82 761.51,-57.73 771.54,-54.33 767.23,-48.82"/>
</g>
<!-- Node11&#45;&gt;Node3 -->
<g id="edge16" class="edge">
<title>Node11&#45;&gt;Node3</title>
<path fill="none" stroke="midnightblue" d="M869.58,-51.07C856.22,-40.49 840.84,-28.31 830.71,-20.28"/>
<polygon fill="midnightblue" stroke="midnightblue" points="866.97,-54.27 876.99,-57.73 871.32,-48.78 866.97,-54.27"/>
</g>
<!-- Node12&#45;&gt;Node3 -->
<g id="edge18" class="edge">
<title>Node12&#45;&gt;Node3</title>
<path fill="none" stroke="midnightblue" d="M985.21,-54.85C942.12,-43.57 888.07,-29.42 853.68,-20.42"/>
<polygon fill="midnightblue" stroke="midnightblue" points="984.07,-58.43 994.63,-57.58 985.84,-51.66 984.07,-58.43"/>
</g>
<!-- Node13&#45;&gt;Node3 -->
<g id="edge20" class="edge">
<title>Node13&#45;&gt;Node3</title>
<path fill="none" stroke="midnightblue" d="M1129.59,-56.87C1026.22,-39.72 917.38,-24.6 859.97,-16.86"/>
<polygon fill="midnightblue" stroke="midnightblue" points="1128.78,-60.45 1139.22,-58.64 1129.93,-53.55 1128.78,-60.45"/>
</g>
<!-- Node14&#45;&gt;Node3 -->
<g id="edge22" class="edge">
<title>Node14&#45;&gt;Node3</title>
<path fill="none" stroke="midnightblue" d="M1293.35,-56.91C1126.75,-32.92 940.68,-19.27 860.14,-14"/>
<polygon fill="midnightblue" stroke="midnightblue" points="1292.39,-60.45 1302.79,-58.43 1293.4,-53.53 1292.39,-60.45"/>
</g>
</g>
</svg>
