<?xml version="1.0" encoding="UTF-8" standalone="no"?>
<!DOCTYPE svg PUBLIC "-//W3C//DTD SVG 1.1//EN"
 "http://www.w3.org/Graphics/SVG/1.1/DTD/svg11.dtd">
<!-- Generated by graphviz version 8.1.0 (20230707.0739)
 -->
<!-- Title: include/Effect/SolidEffect.h Pages: 1 -->
<svg width="140pt" height="155pt"
 viewBox="0.00 0.00 140.25 155.00" xmlns="http://www.w3.org/2000/svg" xmlns:xlink="http://www.w3.org/1999/xlink">
<g id="graph0" class="graph" transform="scale(1 1) rotate(0) translate(4 151)">
<title>include/Effect/SolidEffect.h</title>
<!-- Node1 -->
<g id="node1" class="node">
<title>Node1</title>
<g id="a_node1"><a xlink:title=" ">
<polygon fill="#bfbfbf" stroke="black" points="0,-126.5 0,-146.5 132.25,-146.5 132.25,-126.5 0,-126.5"/>
<text text-anchor="middle" x="66.12" y="-133" font-family="Helvetica,sans-Serif" font-size="10.00">include/Effect/SolidEffect.h</text>
</a>
</g>
</g>
<!-- Node2 -->
<g id="node2" class="node">
<title>Node2</title>
<g id="a_node2"><a xlink:href="_cube_solid_scene_8h.html" target="_top" xlink:title=" ">
<polygon fill="none" stroke="black" points="1.12,-57.5 1.12,-89.5 131.12,-89.5 131.12,-57.5 1.12,-57.5"/>
<text text-anchor="start" x="9.12" y="-76" font-family="Helvetica,sans-Serif" font-size="10.00">include/Scenes/CubeSolid</text>
<text text-anchor="middle" x="66.12" y="-64" font-family="Helvetica,sans-Serif" font-size="10.00">Scene.h</text>
</a>
</g>
</g>
<!-- Node1&#45;&gt;Node2 -->
<g id="edge1" class="edge">
<title>Node1&#45;&gt;Node2</title>
<path fill="none" stroke="midnightblue" d="M66.12,-115.83C66.12,-107.23 66.12,-97.31 66.12,-89.35"/>
<polygon fill="midnightblue" stroke="midnightblue" points="62.63,-115.76 66.12,-125.76 69.63,-115.76 62.63,-115.76"/>
</g>
<!-- Node3 -->
<g id="node3" class="node">
<title>Node3</title>
<g id="a_node3"><a xlink:href="_engine_8cpp.html" target="_top" xlink:title=" ">
<polygon fill="none" stroke="black" points="25.5,-0.5 25.5,-20.5 106.75,-20.5 106.75,-0.5 25.5,-0.5"/>
<text text-anchor="middle" x="66.12" y="-7" font-family="Helvetica,sans-Serif" font-size="10.00">src/Engine.cpp</text>
</a>
</g>
</g>
<!-- Node2&#45;&gt;Node3 -->
<g id="edge2" class="edge">
<title>Node2&#45;&gt;Node3</title>
<path fill="none" stroke="midnightblue" d="M66.12,-46.77C66.12,-37.31 66.12,-27.24 66.12,-20.28"/>
<polygon fill="midnightblue" stroke="midnightblue" points="62.63,-46.73 66.12,-56.73 69.63,-46.73 62.63,-46.73"/>
</g>
</g>
</svg>
