<?xml version="1.0" encoding="UTF-8" standalone="no"?>
<!DOCTYPE svg PUBLIC "-//W3C//DTD SVG 1.1//EN"
 "http://www.w3.org/Graphics/SVG/1.1/DTD/svg11.dtd">
<!-- Generated by graphviz version 8.1.0 (20230707.0739)
 -->
<!-- Title: include/Effects/SolidGeometryEffect.h Pages: 1 -->
<svg width="840pt" height="497pt"
 viewBox="0.00 0.00 839.99 497.00" xmlns="http://www.w3.org/2000/svg" xmlns:xlink="http://www.w3.org/1999/xlink">
<g id="graph0" class="graph" transform="scale(1 1) rotate(0) translate(4 493)">
<title>include/Effects/SolidGeometryEffect.h</title>
<!-- Node1 -->
<g id="node1" class="node">
<title>Node1</title>
<g id="a_node1"><a xlink:title=" ">
<polygon fill="#bfbfbf" stroke="black" points="428.49,-456.5 428.49,-488.5 575.74,-488.5 575.74,-456.5 428.49,-456.5"/>
<text text-anchor="start" x="436.49" y="-475" font-family="Helvetica,sans-Serif" font-size="10.00">include/Effects/SolidGeometry</text>
<text text-anchor="middle" x="502.12" y="-463" font-family="Helvetica,sans-Serif" font-size="10.00">Effect.h</text>
</a>
</g>
</g>
<!-- Node2 -->
<g id="node2" class="node">
<title>Node2</title>
<g id="a_node2"><a xlink:href="_pipeline_8h.html" target="_top" xlink:title=" ">
<polygon fill="none" stroke="black" points="410.74,-399.5 410.74,-419.5 469.49,-419.5 469.49,-399.5 410.74,-399.5"/>
<text text-anchor="middle" x="440.12" y="-406" font-family="Helvetica,sans-Serif" font-size="10.00">Pipeline.h</text>
</a>
</g>
</g>
<!-- Node1&#45;&gt;Node2 -->
<g id="edge1" class="edge">
<title>Node1&#45;&gt;Node2</title>
<path fill="none" stroke="midnightblue" d="M487.11,-456.73C477.91,-447.68 466.11,-436.08 456.65,-426.76"/>
<polygon fill="midnightblue" stroke="midnightblue" points="459.63,-424.8 450.05,-420.28 454.72,-429.79 459.63,-424.8"/>
</g>
<!-- Node35 -->
<g id="node35" class="node">
<title>Node35</title>
<g id="a_node35"><a xlink:href="_default_vertex_shader_8h.html" target="_top" xlink:title=" ">
<polygon fill="none" stroke="black" points="487.87,-399.5 487.87,-419.5 640.37,-419.5 640.37,-399.5 487.87,-399.5"/>
<text text-anchor="middle" x="564.12" y="-406" font-family="Helvetica,sans-Serif" font-size="10.00">Shaders/DefaultVertexShader.h</text>
</a>
</g>
</g>
<!-- Node1&#45;&gt;Node35 -->
<g id="edge49" class="edge">
<title>Node1&#45;&gt;Node35</title>
<path fill="none" stroke="midnightblue" d="M517.13,-456.73C526.33,-447.68 538.12,-436.08 547.59,-426.76"/>
<polygon fill="midnightblue" stroke="midnightblue" points="549.51,-429.79 554.19,-420.28 544.61,-424.8 549.51,-429.79"/>
</g>
<!-- Node3 -->
<g id="node3" class="node">
<title>Node3</title>
<g id="a_node3"><a xlink:href="_win_8h.html" target="_top" xlink:title=" ">
<polygon fill="none" stroke="black" points="34.37,-171.5 34.37,-191.5 75.87,-191.5 75.87,-171.5 34.37,-171.5"/>
<text text-anchor="middle" x="55.12" y="-178" font-family="Helvetica,sans-Serif" font-size="10.00">Win.h</text>
</a>
</g>
</g>
<!-- Node2&#45;&gt;Node3 -->
<g id="edge2" class="edge">
<title>Node2&#45;&gt;Node3</title>
<path fill="none" stroke="midnightblue" d="M410.74,-404.89C340.25,-394.6 160.63,-358.42 70.12,-249 59.27,-235.89 55.88,-216.54 54.98,-202.08"/>
<polygon fill="midnightblue" stroke="midnightblue" points="58.46,-202.25 54.71,-192.34 51.47,-202.42 58.46,-202.25"/>
</g>
<!-- Node6 -->
<g id="node6" class="node">
<title>Node6</title>
<g id="a_node6"><a xlink:href="_graphics_8h.html" target="_top" xlink:title=" ">
<polygon fill="none" stroke="black" points="295.49,-285.5 295.49,-305.5 358.74,-305.5 358.74,-285.5 295.49,-285.5"/>
<text text-anchor="middle" x="327.12" y="-292" font-family="Helvetica,sans-Serif" font-size="10.00">Graphics.h</text>
</a>
</g>
</g>
<!-- Node2&#45;&gt;Node6 -->
<g id="edge5" class="edge">
<title>Node2&#45;&gt;Node6</title>
<path fill="none" stroke="midnightblue" d="M411.04,-401.04C390.44,-394.33 363.64,-382.46 347.12,-363 335.9,-349.79 330.97,-330.45 328.81,-316.02"/>
<polygon fill="midnightblue" stroke="midnightblue" points="332.2,-315.84 327.57,-306.31 325.24,-316.65 332.2,-315.84"/>
</g>
<!-- Node15 -->
<g id="node15" class="node">
<title>Node15</title>
<g id="a_node15"><a xlink:href="_matrix3_8h.html" target="_top" xlink:title=" ">
<polygon fill="none" stroke="black" points="396.87,-57.5 396.87,-77.5 453.37,-77.5 453.37,-57.5 396.87,-57.5"/>
<text text-anchor="middle" x="425.12" y="-64" font-family="Helvetica,sans-Serif" font-size="10.00">Matrix3.h</text>
</a>
</g>
</g>
<!-- Node2&#45;&gt;Node15 -->
<g id="edge44" class="edge">
<title>Node2&#45;&gt;Node15</title>
<path fill="none" stroke="midnightblue" d="M410.97,-407.36C312.92,-402.73 1.12,-381.35 1.12,-296.5 1.12,-296.5 1.12,-296.5 1.12,-180.5 1.12,-149.76 -3.35,-133.85 20.12,-114 47.76,-90.62 290.09,-75.54 386.15,-70.43"/>
<polygon fill="midnightblue" stroke="midnightblue" points="386.31,-73.88 396.11,-69.86 385.94,-66.89 386.31,-73.88"/>
</g>
<!-- Node28 -->
<g id="node28" class="node">
<title>Node28</title>
<g id="a_node28"><a xlink:href="_triangle_8h.html" target="_top" xlink:title=" ">
<polygon fill="none" stroke="black" points="356.12,-342.5 356.12,-362.5 414.12,-362.5 414.12,-342.5 356.12,-342.5"/>
<text text-anchor="middle" x="385.12" y="-349" font-family="Helvetica,sans-Serif" font-size="10.00">Triangle.h</text>
</a>
</g>
</g>
<!-- Node2&#45;&gt;Node28 -->
<g id="edge37" class="edge">
<title>Node2&#45;&gt;Node28</title>
<path fill="none" stroke="midnightblue" d="M431.52,-399.91C423.5,-391.88 411.31,-379.69 401.44,-369.82"/>
<polygon fill="midnightblue" stroke="midnightblue" points="404.38,-367.81 394.83,-363.21 399.43,-372.76 404.38,-367.81"/>
</g>
<!-- Node29 -->
<g id="node29" class="node">
<title>Node29</title>
<g id="a_node29"><a xlink:href="_indexed_triangle_list_8h.html" target="_top" xlink:title=" ">
<polygon fill="none" stroke="black" points="578.37,-342.5 578.37,-362.5 685.87,-362.5 685.87,-342.5 578.37,-342.5"/>
<text text-anchor="middle" x="632.12" y="-349" font-family="Helvetica,sans-Serif" font-size="10.00">IndexedTriangleList.h</text>
</a>
</g>
</g>
<!-- Node2&#45;&gt;Node29 -->
<g id="edge38" class="edge">
<title>Node2&#45;&gt;Node29</title>
<path fill="none" stroke="midnightblue" d="M469.28,-400.15C501.55,-390.9 553.83,-375.93 590.42,-365.44"/>
<polygon fill="midnightblue" stroke="midnightblue" points="591.11,-368.6 599.76,-362.48 589.19,-361.87 591.11,-368.6"/>
</g>
<!-- Node31 -->
<g id="node31" class="node">
<title>Node31</title>
<g id="a_node31"><a xlink:href="_pube_screen_transformer_8h.html" target="_top" xlink:title=" ">
<polygon fill="none" stroke="black" points="431.87,-342.5 431.87,-362.5 560.37,-362.5 560.37,-342.5 431.87,-342.5"/>
<text text-anchor="middle" x="496.12" y="-349" font-family="Helvetica,sans-Serif" font-size="10.00">PubeScreenTransformer.h</text>
</a>
</g>
</g>
<!-- Node2&#45;&gt;Node31 -->
<g id="edge41" class="edge">
<title>Node2&#45;&gt;Node31</title>
<path fill="none" stroke="midnightblue" d="M449.11,-399.66C457.23,-391.69 469.38,-379.76 479.29,-370.02"/>
<polygon fill="midnightblue" stroke="midnightblue" points="481.27,-373 485.96,-363.5 476.37,-368.01 481.27,-373"/>
</g>
<!-- Node32 -->
<g id="node32" class="node">
<title>Node32</title>
<g id="a_node32"><a xlink:href="_z_buffer_8h.html" target="_top" xlink:title=" ">
<polygon fill="none" stroke="black" points="703.99,-342.5 703.99,-362.5 758.24,-362.5 758.24,-342.5 703.99,-342.5"/>
<text text-anchor="middle" x="731.12" y="-349" font-family="Helvetica,sans-Serif" font-size="10.00">ZBuffer.h</text>
</a>
</g>
</g>
<!-- Node2&#45;&gt;Node32 -->
<g id="edge45" class="edge">
<title>Node2&#45;&gt;Node32</title>
<path fill="none" stroke="midnightblue" d="M469.45,-401.11C472.71,-400.36 475.98,-399.64 479.12,-399 571.11,-380.16 598.08,-383.19 693.36,-363.21"/>
<polygon fill="midnightblue" stroke="midnightblue" points="694,-366.44 703.05,-360.93 692.54,-359.59 694,-366.44"/>
</g>
<!-- Node34 -->
<g id="node34" class="node">
<title>Node34</title>
<g id="a_node34"><a xlink:title=" ">
<polygon fill="none" stroke="#bfbfbf" points="776.24,-342.5 776.24,-362.5 831.99,-362.5 831.99,-342.5 776.24,-342.5"/>
<text text-anchor="middle" x="804.12" y="-349" font-family="Helvetica,sans-Serif" font-size="10.00">algorithm</text>
</a>
</g>
</g>
<!-- Node2&#45;&gt;Node34 -->
<g id="edge48" class="edge">
<title>Node2&#45;&gt;Node34</title>
<path fill="none" stroke="midnightblue" d="M469.43,-400.98C472.68,-400.26 475.96,-399.58 479.12,-399 602.65,-376.31 638.51,-386.51 765.78,-363.02"/>
<polygon fill="midnightblue" stroke="midnightblue" points="766.14,-366.33 775.32,-361.04 764.85,-359.45 766.14,-366.33"/>
</g>
<!-- Node4 -->
<g id="node4" class="node">
<title>Node4</title>
<g id="a_node4"><a xlink:title=" ">
<polygon fill="none" stroke="#bfbfbf" points="111.24,-114.5 111.24,-134.5 178.99,-134.5 178.99,-114.5 111.24,-114.5"/>
<text text-anchor="middle" x="145.12" y="-121" font-family="Helvetica,sans-Serif" font-size="10.00">sdkddkver.h</text>
</a>
</g>
</g>
<!-- Node3&#45;&gt;Node4 -->
<g id="edge3" class="edge">
<title>Node3&#45;&gt;Node4</title>
<path fill="none" stroke="midnightblue" d="M69.58,-171.66C83.53,-163.13 104.91,-150.07 121.37,-140.01"/>
<polygon fill="midnightblue" stroke="midnightblue" points="122.69,-142.7 129.39,-134.5 119.04,-136.73 122.69,-142.7"/>
</g>
<!-- Node5 -->
<g id="node5" class="node">
<title>Node5</title>
<g id="a_node5"><a xlink:title=" ">
<polygon fill="none" stroke="#bfbfbf" points="29.12,-114.5 29.12,-134.5 93.12,-134.5 93.12,-114.5 29.12,-114.5"/>
<text text-anchor="middle" x="61.12" y="-121" font-family="Helvetica,sans-Serif" font-size="10.00">Windows.h</text>
</a>
</g>
</g>
<!-- Node3&#45;&gt;Node5 -->
<g id="edge4" class="edge">
<title>Node3&#45;&gt;Node5</title>
<path fill="none" stroke="midnightblue" d="M56.05,-171.91C56.84,-164.68 58,-154.09 59.01,-144.85"/>
<polygon fill="midnightblue" stroke="midnightblue" points="62.56,-145.54 60.17,-135.21 55.6,-144.78 62.56,-145.54"/>
</g>
<!-- Node7 -->
<g id="node7" class="node">
<title>Node7</title>
<g id="a_node7"><a xlink:href="_engine_exception_8h.html" target="_top" xlink:title=" ">
<polygon fill="none" stroke="black" points="94.24,-171.5 94.24,-191.5 191.99,-191.5 191.99,-171.5 94.24,-171.5"/>
<text text-anchor="middle" x="143.12" y="-178" font-family="Helvetica,sans-Serif" font-size="10.00">EngineException.h</text>
</a>
</g>
</g>
<!-- Node6&#45;&gt;Node7 -->
<g id="edge6" class="edge">
<title>Node6&#45;&gt;Node7</title>
<path fill="none" stroke="midnightblue" d="M327.19,-285.83C326.82,-271.7 323.98,-243.72 308.12,-228 293.05,-213.07 243.49,-200.65 202.58,-192.57"/>
<polygon fill="midnightblue" stroke="midnightblue" points="203.33,-188.96 192.85,-190.51 202.01,-195.84 203.33,-188.96"/>
</g>
<!-- Node9 -->
<g id="node9" class="node">
<title>Node9</title>
<g id="a_node9"><a xlink:href="_vector3_8h.html" target="_top" xlink:title=" ">
<polygon fill="none" stroke="black" points="480.99,-114.5 480.99,-134.5 601.24,-134.5 601.24,-114.5 480.99,-114.5"/>
<text text-anchor="middle" x="541.12" y="-121" font-family="Helvetica,sans-Serif" font-size="10.00">LinearAlgebra/Vector3.h</text>
</a>
</g>
</g>
<!-- Node6&#45;&gt;Node9 -->
<g id="edge8" class="edge">
<title>Node6&#45;&gt;Node9</title>
<path fill="none" stroke="midnightblue" d="M358.44,-287.65C403.32,-276.11 485.15,-248.31 527.12,-192 537.25,-178.4 540.42,-159.11 541.25,-144.8"/>
<polygon fill="midnightblue" stroke="midnightblue" points="544.76,-145.27 541.5,-135.19 537.76,-145.11 544.76,-145.27"/>
</g>
<!-- Node20 -->
<g id="node20" class="node">
<title>Node20</title>
<g id="a_node20"><a xlink:href="_g_d_i_plus_manager_8h.html" target="_top" xlink:title=" ">
<polygon fill="none" stroke="black" points="79.24,-228.5 79.24,-248.5 176.99,-248.5 176.99,-228.5 79.24,-228.5"/>
<text text-anchor="middle" x="128.12" y="-235" font-family="Helvetica,sans-Serif" font-size="10.00">GDIPlusManager.h</text>
</a>
</g>
</g>
<!-- Node6&#45;&gt;Node20 -->
<g id="edge24" class="edge">
<title>Node6&#45;&gt;Node20</title>
<path fill="none" stroke="midnightblue" d="M295.58,-285.79C261.97,-276.49 208.53,-261.72 171.08,-251.37"/>
<polygon fill="midnightblue" stroke="midnightblue" points="172.06,-247.74 161.49,-248.45 170.2,-254.49 172.06,-247.74"/>
</g>
<!-- Node21 -->
<g id="node21" class="node">
<title>Node21</title>
<g id="a_node21"><a xlink:href="_surface_8h.html" target="_top" xlink:title=" ">
<polygon fill="none" stroke="black" points="355.49,-228.5 355.49,-248.5 412.74,-248.5 412.74,-228.5 355.49,-228.5"/>
<text text-anchor="middle" x="384.12" y="-235" font-family="Helvetica,sans-Serif" font-size="10.00">Surface.h</text>
</a>
</g>
</g>
<!-- Node6&#45;&gt;Node21 -->
<g id="edge26" class="edge">
<title>Node6&#45;&gt;Node21</title>
<path fill="none" stroke="midnightblue" d="M336.27,-285.66C344.54,-277.69 356.9,-265.76 366.99,-256.02"/>
<polygon fill="midnightblue" stroke="midnightblue" points="369.03,-258.96 373.79,-249.5 364.17,-253.92 369.03,-258.96"/>
</g>
<!-- Node26 -->
<g id="node26" class="node">
<title>Node26</title>
<g id="a_node26"><a xlink:title=" ">
<polygon fill="none" stroke="#bfbfbf" points="194.87,-228.5 194.87,-248.5 245.37,-248.5 245.37,-228.5 194.87,-228.5"/>
<text text-anchor="middle" x="220.12" y="-235" font-family="Helvetica,sans-Serif" font-size="10.00">d3d11.h</text>
</a>
</g>
</g>
<!-- Node6&#45;&gt;Node26 -->
<g id="edge35" class="edge">
<title>Node6&#45;&gt;Node26</title>
<path fill="none" stroke="midnightblue" d="M309.93,-285.66C293.02,-276.97 266.96,-263.58 247.26,-253.45"/>
<polygon fill="midnightblue" stroke="midnightblue" points="249.11,-249.96 238.62,-248.5 245.91,-256.18 249.11,-249.96"/>
</g>
<!-- Node27 -->
<g id="node27" class="node">
<title>Node27</title>
<g id="a_node27"><a xlink:title=" ">
<polygon fill="none" stroke="#bfbfbf" points="262.99,-228.5 262.99,-248.5 299.24,-248.5 299.24,-228.5 262.99,-228.5"/>
<text text-anchor="middle" x="281.12" y="-235" font-family="Helvetica,sans-Serif" font-size="10.00">wrl.h</text>
</a>
</g>
</g>
<!-- Node6&#45;&gt;Node27 -->
<g id="edge36" class="edge">
<title>Node6&#45;&gt;Node27</title>
<path fill="none" stroke="midnightblue" d="M319.93,-285.91C313.35,-278.04 303.43,-266.18 295.26,-256.42"/>
<polygon fill="midnightblue" stroke="midnightblue" points="297.51,-254.64 288.41,-249.21 292.14,-259.13 297.51,-254.64"/>
</g>
<!-- Node8 -->
<g id="node8" class="node">
<title>Node8</title>
<g id="a_node8"><a xlink:title=" ">
<polygon fill="none" stroke="#bfbfbf" points="308.12,-114.5 308.12,-134.5 348.12,-134.5 348.12,-114.5 308.12,-114.5"/>
<text text-anchor="middle" x="328.12" y="-121" font-family="Helvetica,sans-Serif" font-size="10.00">string</text>
</a>
</g>
</g>
<!-- Node7&#45;&gt;Node8 -->
<g id="edge7" class="edge">
<title>Node7&#45;&gt;Node8</title>
<path fill="none" stroke="midnightblue" d="M173.25,-171.54C207.62,-161.32 263.49,-144.71 297.89,-134.49"/>
<polygon fill="midnightblue" stroke="midnightblue" points="298.67,-137.61 307.26,-131.4 296.67,-130.9 298.67,-137.61"/>
</g>
<!-- Node10 -->
<g id="node10" class="node">
<title>Node10</title>
<g id="a_node10"><a xlink:href="_math_8h.html" target="_top" xlink:title=" ">
<polygon fill="none" stroke="black" points="619.12,-57.5 619.12,-77.5 665.12,-77.5 665.12,-57.5 619.12,-57.5"/>
<text text-anchor="middle" x="642.12" y="-64" font-family="Helvetica,sans-Serif" font-size="10.00">Math.h</text>
</a>
</g>
</g>
<!-- Node9&#45;&gt;Node10 -->
<g id="edge9" class="edge">
<title>Node9&#45;&gt;Node10</title>
<path fill="none" stroke="midnightblue" d="M557.34,-114.66C573.15,-106.05 597.45,-92.83 615.98,-82.73"/>
<polygon fill="midnightblue" stroke="midnightblue" points="617.49,-85.35 624.59,-77.5 614.14,-79.21 617.49,-85.35"/>
</g>
<!-- Node9&#45;&gt;Node15 -->
<g id="edge15" class="edge">
<title>Node9&#45;&gt;Node15</title>
<path fill="none" stroke="midnightblue" d="M522.22,-114.54C503.68,-105.75 475.17,-92.23 453.83,-82.11"/>
<polygon fill="midnightblue" stroke="midnightblue" points="455.54,-78.58 445,-77.46 452.54,-84.9 455.54,-78.58"/>
</g>
<!-- Node16 -->
<g id="node16" class="node">
<title>Node16</title>
<g id="a_node16"><a xlink:title=" ">
<polygon fill="none" stroke="#bfbfbf" points="408.24,-0.5 408.24,-20.5 445.99,-20.5 445.99,-0.5 408.24,-0.5"/>
<text text-anchor="middle" x="427.12" y="-7" font-family="Helvetica,sans-Serif" font-size="10.00">array</text>
</a>
</g>
</g>
<!-- Node9&#45;&gt;Node16 -->
<g id="edge20" class="edge">
<title>Node9&#45;&gt;Node16</title>
<path fill="none" stroke="midnightblue" d="M532.17,-114.71C513.11,-95.98 468.23,-51.89 443.75,-27.84"/>
<polygon fill="midnightblue" stroke="midnightblue" points="446.61,-25.76 437.02,-21.25 441.7,-30.75 446.61,-25.76"/>
</g>
<!-- Node17 -->
<g id="node17" class="node">
<title>Node17</title>
<g id="a_node17"><a xlink:title=" ">
<polygon fill="none" stroke="#bfbfbf" points="342.37,-0.5 342.37,-20.5 389.87,-20.5 389.87,-0.5 342.37,-0.5"/>
<text text-anchor="middle" x="366.12" y="-7" font-family="Helvetica,sans-Serif" font-size="10.00">cstddef</text>
</a>
</g>
</g>
<!-- Node9&#45;&gt;Node17 -->
<g id="edge23" class="edge">
<title>Node9&#45;&gt;Node17</title>
<path fill="none" stroke="midnightblue" d="M481.08,-118.83C449.75,-113.44 412.88,-102.02 388.12,-78 375.31,-65.57 369.95,-45.54 367.72,-30.7"/>
<polygon fill="midnightblue" stroke="midnightblue" points="371.13,-30.7 366.51,-21.16 364.17,-31.5 371.13,-30.7"/>
</g>
<!-- Node18 -->
<g id="node18" class="node">
<title>Node18</title>
<g id="a_node18"><a xlink:title=" ">
<polygon fill="none" stroke="#bfbfbf" points="464.37,-0.5 464.37,-20.5 517.87,-20.5 517.87,-0.5 464.37,-0.5"/>
<text text-anchor="middle" x="491.12" y="-7" font-family="Helvetica,sans-Serif" font-size="10.00">iostream</text>
</a>
</g>
</g>
<!-- Node9&#45;&gt;Node18 -->
<g id="edge21" class="edge">
<title>Node9&#45;&gt;Node18</title>
<path fill="none" stroke="midnightblue" d="M537.19,-114.71C529.09,-96.56 510.34,-54.56 499.42,-30.1"/>
<polygon fill="midnightblue" stroke="midnightblue" points="502.29,-28.95 495.02,-21.25 495.9,-31.81 502.29,-28.95"/>
</g>
<!-- Node19 -->
<g id="node19" class="node">
<title>Node19</title>
<g id="a_node19"><a xlink:title=" ">
<polygon fill="none" stroke="#bfbfbf" points="547.37,-57.5 547.37,-77.5 600.87,-77.5 600.87,-57.5 547.37,-57.5"/>
<text text-anchor="middle" x="574.12" y="-64" font-family="Helvetica,sans-Serif" font-size="10.00">compare</text>
</a>
</g>
</g>
<!-- Node9&#45;&gt;Node19 -->
<g id="edge22" class="edge">
<title>Node9&#45;&gt;Node19</title>
<path fill="none" stroke="midnightblue" d="M546.27,-114.91C550.8,-107.36 557.53,-96.14 563.24,-86.62"/>
<polygon fill="midnightblue" stroke="midnightblue" points="566.74,-88.59 568.89,-78.21 560.74,-84.99 566.74,-88.59"/>
</g>
<!-- Node10&#45;&gt;Node10 -->
<g id="edge10" class="edge">
<title>Node10&#45;&gt;Node10</title>
<path fill="none" stroke="midnightblue" d="M660.67,-77.43C672.17,-79.83 683.12,-76.52 683.12,-67.5 683.12,-61.44 678.18,-57.96 671.44,-57.05"/>
<polygon fill="midnightblue" stroke="midnightblue" points="671.49,-53.59 661.67,-57.57 671.83,-60.59 671.49,-53.59"/>
</g>
<!-- Node11 -->
<g id="node11" class="node">
<title>Node11</title>
<g id="a_node11"><a xlink:title=" ">
<polygon fill="none" stroke="#bfbfbf" points="535.62,-0.5 535.62,-20.5 578.62,-20.5 578.62,-0.5 535.62,-0.5"/>
<text text-anchor="middle" x="557.12" y="-7" font-family="Helvetica,sans-Serif" font-size="10.00">cmath</text>
</a>
</g>
</g>
<!-- Node10&#45;&gt;Node11 -->
<g id="edge11" class="edge">
<title>Node10&#45;&gt;Node11</title>
<path fill="none" stroke="midnightblue" d="M628.46,-57.66C615.4,-49.21 595.47,-36.31 579.98,-26.3"/>
<polygon fill="midnightblue" stroke="midnightblue" points="582.32,-22.99 572.02,-20.5 578.52,-28.87 582.32,-22.99"/>
</g>
<!-- Node12 -->
<g id="node12" class="node">
<title>Node12</title>
<g id="a_node12"><a xlink:title=" ">
<polygon fill="none" stroke="#bfbfbf" points="734.49,-0.5 734.49,-20.5 773.74,-20.5 773.74,-0.5 734.49,-0.5"/>
<text text-anchor="middle" x="754.12" y="-7" font-family="Helvetica,sans-Serif" font-size="10.00">limits</text>
</a>
</g>
</g>
<!-- Node10&#45;&gt;Node12 -->
<g id="edge12" class="edge">
<title>Node10&#45;&gt;Node12</title>
<path fill="none" stroke="midnightblue" d="M660.11,-57.66C677.89,-48.94 705.33,-35.46 725.99,-25.31"/>
<polygon fill="midnightblue" stroke="midnightblue" points="727.36,-28.05 734.79,-20.5 724.28,-21.76 727.36,-28.05"/>
</g>
<!-- Node13 -->
<g id="node13" class="node">
<title>Node13</title>
<g id="a_node13"><a xlink:title=" ">
<polygon fill="none" stroke="#bfbfbf" points="663.37,-0.5 663.37,-20.5 716.87,-20.5 716.87,-0.5 663.37,-0.5"/>
<text text-anchor="middle" x="690.12" y="-7" font-family="Helvetica,sans-Serif" font-size="10.00">numbers</text>
</a>
</g>
</g>
<!-- Node10&#45;&gt;Node13 -->
<g id="edge13" class="edge">
<title>Node10&#45;&gt;Node13</title>
<path fill="none" stroke="midnightblue" d="M649.62,-57.91C656.48,-50.04 666.83,-38.18 675.35,-28.42"/>
<polygon fill="midnightblue" stroke="midnightblue" points="678.57,-31.05 682.51,-21.21 673.3,-26.45 678.57,-31.05"/>
</g>
<!-- Node14 -->
<g id="node14" class="node">
<title>Node14</title>
<g id="a_node14"><a xlink:title=" ">
<polygon fill="none" stroke="#bfbfbf" points="596.99,-0.5 596.99,-20.5 645.24,-20.5 645.24,-0.5 596.99,-0.5"/>
<text text-anchor="middle" x="621.12" y="-7" font-family="Helvetica,sans-Serif" font-size="10.00">random</text>
</a>
</g>
</g>
<!-- Node10&#45;&gt;Node14 -->
<g id="edge14" class="edge">
<title>Node10&#45;&gt;Node14</title>
<path fill="none" stroke="midnightblue" d="M638.84,-57.91C636.02,-50.52 631.85,-39.62 628.27,-30.23"/>
<polygon fill="midnightblue" stroke="midnightblue" points="631.28,-29.31 624.44,-21.21 624.74,-31.81 631.28,-29.31"/>
</g>
<!-- Node15&#45;&gt;Node11 -->
<g id="edge17" class="edge">
<title>Node15&#45;&gt;Node11</title>
<path fill="none" stroke="midnightblue" d="M446.62,-57.54C468.1,-48.59 501.34,-34.74 525.76,-24.57"/>
<polygon fill="midnightblue" stroke="midnightblue" points="526.74,-27.53 534.62,-20.46 524.05,-21.07 526.74,-27.53"/>
</g>
<!-- Node15&#45;&gt;Node16 -->
<g id="edge16" class="edge">
<title>Node15&#45;&gt;Node16</title>
<path fill="none" stroke="midnightblue" d="M425.43,-57.91C425.69,-50.76 426.07,-40.32 426.4,-31.15"/>
<polygon fill="midnightblue" stroke="midnightblue" points="429.93,-31.34 426.8,-21.21 422.94,-31.08 429.93,-31.34"/>
</g>
<!-- Node15&#45;&gt;Node17 -->
<g id="edge18" class="edge">
<title>Node15&#45;&gt;Node17</title>
<path fill="none" stroke="midnightblue" d="M415.64,-57.66C407,-49.61 394.03,-37.52 383.53,-27.73"/>
<polygon fill="midnightblue" stroke="midnightblue" points="386.47,-25.76 376.77,-21.5 381.7,-30.88 386.47,-25.76"/>
</g>
<!-- Node15&#45;&gt;Node18 -->
<g id="edge19" class="edge">
<title>Node15&#45;&gt;Node18</title>
<path fill="none" stroke="midnightblue" d="M435.72,-57.66C445.48,-49.53 460.18,-37.28 471.99,-27.44"/>
<polygon fill="midnightblue" stroke="midnightblue" points="473.88,-29.59 479.32,-20.5 469.4,-24.21 473.88,-29.59"/>
</g>
<!-- Node20&#45;&gt;Node3 -->
<g id="edge25" class="edge">
<title>Node20&#45;&gt;Node3</title>
<path fill="none" stroke="midnightblue" d="M116.39,-228.66C105.39,-220.37 88.7,-207.8 75.51,-197.87"/>
<polygon fill="midnightblue" stroke="midnightblue" points="78.15,-194.72 68.06,-191.5 73.94,-200.31 78.15,-194.72"/>
</g>
<!-- Node21&#45;&gt;Node3 -->
<g id="edge27" class="edge">
<title>Node21&#45;&gt;Node3</title>
<path fill="none" stroke="midnightblue" d="M355.76,-233.76C294.91,-225.64 152.61,-206.17 86.04,-191.82"/>
<polygon fill="midnightblue" stroke="midnightblue" points="87.18,-188.26 76.66,-189.47 85.64,-195.09 87.18,-188.26"/>
</g>
<!-- Node21&#45;&gt;Node7 -->
<g id="edge30" class="edge">
<title>Node21&#45;&gt;Node7</title>
<path fill="none" stroke="midnightblue" d="M355.52,-230.97C315.53,-221.85 242.29,-205.13 193.15,-193.92"/>
<polygon fill="midnightblue" stroke="midnightblue" points="193.97,-190.29 183.44,-191.47 192.41,-197.11 193.97,-190.29"/>
</g>
<!-- Node21&#45;&gt;Node8 -->
<g id="edge33" class="edge">
<title>Node21&#45;&gt;Node8</title>
<path fill="none" stroke="midnightblue" d="M394.8,-228.68C409.14,-215.74 431.46,-190.98 419.12,-171 405.91,-149.63 379.29,-137.96 358.24,-131.81"/>
<polygon fill="midnightblue" stroke="midnightblue" points="359.4,-128.24 348.84,-129.08 357.62,-135 359.4,-128.24"/>
</g>
<!-- Node22 -->
<g id="node22" class="node">
<title>Node22</title>
<g id="a_node22"><a xlink:href="_colors_8h.html" target="_top" xlink:title=" ">
<polygon fill="none" stroke="black" points="466.12,-171.5 466.12,-191.5 518.12,-191.5 518.12,-171.5 466.12,-171.5"/>
<text text-anchor="middle" x="492.12" y="-178" font-family="Helvetica,sans-Serif" font-size="10.00">Colors.h</text>
</a>
</g>
</g>
<!-- Node21&#45;&gt;Node22 -->
<g id="edge28" class="edge">
<title>Node21&#45;&gt;Node22</title>
<path fill="none" stroke="midnightblue" d="M401.47,-228.66C418.53,-219.97 444.83,-206.58 464.72,-196.45"/>
<polygon fill="midnightblue" stroke="midnightblue" points="466.13,-199.15 473.45,-191.5 462.95,-192.92 466.13,-199.15"/>
</g>
<!-- Node23 -->
<g id="node23" class="node">
<title>Node23</title>
<g id="a_node23"><a xlink:title=" ">
<polygon fill="none" stroke="#bfbfbf" points="358.49,-171.5 358.49,-191.5 409.74,-191.5 409.74,-171.5 358.49,-171.5"/>
<text text-anchor="middle" x="384.12" y="-178" font-family="Helvetica,sans-Serif" font-size="10.00">assert.h</text>
</a>
</g>
</g>
<!-- Node21&#45;&gt;Node23 -->
<g id="edge31" class="edge">
<title>Node21&#45;&gt;Node23</title>
<path fill="none" stroke="midnightblue" d="M384.12,-228.91C384.12,-221.76 384.12,-211.32 384.12,-202.15"/>
<polygon fill="midnightblue" stroke="midnightblue" points="387.62,-202.21 384.12,-192.21 380.62,-202.21 387.62,-202.21"/>
</g>
<!-- Node24 -->
<g id="node24" class="node">
<title>Node24</title>
<g id="a_node24"><a xlink:title=" ">
<polygon fill="none" stroke="#bfbfbf" points="210.49,-171.5 210.49,-191.5 261.74,-191.5 261.74,-171.5 210.49,-171.5"/>
<text text-anchor="middle" x="236.12" y="-178" font-family="Helvetica,sans-Serif" font-size="10.00">memory</text>
</a>
</g>
</g>
<!-- Node21&#45;&gt;Node24 -->
<g id="edge32" class="edge">
<title>Node21&#45;&gt;Node24</title>
<path fill="none" stroke="midnightblue" d="M360.01,-228.54C335.6,-219.47 297.65,-205.37 270.18,-195.16"/>
<polygon fill="midnightblue" stroke="midnightblue" points="271.81,-191.66 261.21,-191.46 269.37,-198.22 271.81,-191.66"/>
</g>
<!-- Node25 -->
<g id="node25" class="node">
<title>Node25</title>
<g id="a_node25"><a xlink:title=" ">
<polygon fill="none" stroke="#bfbfbf" points="279.99,-171.5 279.99,-191.5 340.24,-191.5 340.24,-171.5 279.99,-171.5"/>
<text text-anchor="middle" x="310.12" y="-178" font-family="Helvetica,sans-Serif" font-size="10.00">filesystem</text>
</a>
</g>
</g>
<!-- Node21&#45;&gt;Node25 -->
<g id="edge34" class="edge">
<title>Node21&#45;&gt;Node25</title>
<path fill="none" stroke="midnightblue" d="M372.23,-228.66C361.07,-220.37 344.16,-207.8 330.79,-197.87"/>
<polygon fill="midnightblue" stroke="midnightblue" points="333.34,-194.65 323.22,-191.5 329.16,-200.27 333.34,-194.65"/>
</g>
<!-- Node22&#45;&gt;Node9 -->
<g id="edge29" class="edge">
<title>Node22&#45;&gt;Node9</title>
<path fill="none" stroke="midnightblue" d="M499.77,-171.91C506.78,-164.04 517.35,-152.18 526.05,-142.42"/>
<polygon fill="midnightblue" stroke="midnightblue" points="528.31,-145.01 532.35,-135.21 523.09,-140.35 528.31,-145.01"/>
</g>
<!-- Node29&#45;&gt;Node9 -->
<g id="edge39" class="edge">
<title>Node29&#45;&gt;Node9</title>
<path fill="none" stroke="midnightblue" d="M641.02,-342.72C652.56,-330.24 670.39,-306.48 663.12,-285 642.45,-223.95 588,-167.89 559.35,-141.46"/>
<polygon fill="midnightblue" stroke="midnightblue" points="562.12,-139.34 552.35,-135.23 557.42,-144.53 562.12,-139.34"/>
</g>
<!-- Node30 -->
<g id="node30" class="node">
<title>Node30</title>
<g id="a_node30"><a xlink:title=" ">
<polygon fill="none" stroke="#bfbfbf" points="612.37,-285.5 612.37,-305.5 653.87,-305.5 653.87,-285.5 612.37,-285.5"/>
<text text-anchor="middle" x="633.12" y="-292" font-family="Helvetica,sans-Serif" font-size="10.00">vector</text>
</a>
</g>
</g>
<!-- Node29&#45;&gt;Node30 -->
<g id="edge40" class="edge">
<title>Node29&#45;&gt;Node30</title>
<path fill="none" stroke="midnightblue" d="M632.27,-342.91C632.4,-335.76 632.59,-325.32 632.76,-316.15"/>
<polygon fill="midnightblue" stroke="midnightblue" points="636.28,-316.28 632.96,-306.21 629.28,-316.15 636.28,-316.28"/>
</g>
<!-- Node31&#45;&gt;Node6 -->
<g id="edge42" class="edge">
<title>Node31&#45;&gt;Node6</title>
<path fill="none" stroke="midnightblue" d="M468.59,-342.54C440.35,-333.35 396.23,-318.99 364.78,-308.76"/>
<polygon fill="midnightblue" stroke="midnightblue" points="366.23,-305.22 355.63,-305.46 364.06,-311.88 366.23,-305.22"/>
</g>
<!-- Node31&#45;&gt;Node9 -->
<g id="edge43" class="edge">
<title>Node31&#45;&gt;Node9</title>
<path fill="none" stroke="midnightblue" d="M499.84,-342.72C509.67,-318.99 536.21,-251.3 545.12,-192 547.48,-176.24 546.14,-158.17 544.4,-144.86"/>
<polygon fill="midnightblue" stroke="midnightblue" points="547.74,-144.52 542.78,-135.16 540.82,-145.57 547.74,-144.52"/>
</g>
<!-- Node32&#45;&gt;Node12 -->
<g id="edge46" class="edge">
<title>Node32&#45;&gt;Node12</title>
<path fill="none" stroke="midnightblue" d="M731.12,-342.79C731.12,-323.94 731.12,-278 731.12,-239.5 731.12,-239.5 731.12,-239.5 731.12,-123.5 731.12,-90.35 740.9,-52.79 747.71,-30.68"/>
<polygon fill="midnightblue" stroke="midnightblue" points="751.29,-31.96 751.01,-21.37 744.63,-29.83 751.29,-31.96"/>
</g>
<!-- Node33 -->
<g id="node33" class="node">
<title>Node33</title>
<g id="a_node33"><a xlink:title=" ">
<polygon fill="none" stroke="#bfbfbf" points="758.99,-285.5 758.99,-305.5 807.24,-305.5 807.24,-285.5 758.99,-285.5"/>
<text text-anchor="middle" x="783.12" y="-292" font-family="Helvetica,sans-Serif" font-size="10.00">cassert</text>
</a>
</g>
</g>
<!-- Node32&#45;&gt;Node33 -->
<g id="edge47" class="edge">
<title>Node32&#45;&gt;Node33</title>
<path fill="none" stroke="midnightblue" d="M739.24,-342.91C746.75,-334.96 758.12,-322.94 767.41,-313.12"/>
<polygon fill="midnightblue" stroke="midnightblue" points="769.55,-315.89 773.88,-306.21 764.46,-311.08 769.55,-315.89"/>
</g>
</g>
</svg>
