<?xml version="1.0" encoding="UTF-8" standalone="no"?>
<!DOCTYPE svg PUBLIC "-//W3C//DTD SVG 1.1//EN"
 "http://www.w3.org/Graphics/SVG/1.1/DTD/svg11.dtd">
<!-- Generated by graphviz version 8.1.0 (20230707.0739)
 -->
<!-- Title: include/Effects/SolidGeometryEffect.h Pages: 1 -->
<svg width="1168pt" height="497pt"
 viewBox="0.00 0.00 1167.58 497.00" xmlns="http://www.w3.org/2000/svg" xmlns:xlink="http://www.w3.org/1999/xlink">
<g id="graph0" class="graph" transform="scale(1 1) rotate(0) translate(4 493)">
<title>include/Effects/SolidGeometryEffect.h</title>
<!-- Node1 -->
<g id="node1" class="node">
<title>Node1</title>
<g id="a_node1"><a xlink:title=" ">
<polygon fill="#bfbfbf" stroke="black" points="569.55,-456.5 569.55,-488.5 716.8,-488.5 716.8,-456.5 569.55,-456.5"/>
<text text-anchor="start" x="577.55" y="-475" font-family="Helvetica,sans-Serif" font-size="10.00">include/Effects/SolidGeometry</text>
<text text-anchor="middle" x="643.18" y="-463" font-family="Helvetica,sans-Serif" font-size="10.00">Effect.h</text>
</a>
</g>
</g>
<!-- Node2 -->
<g id="node2" class="node">
<title>Node2</title>
<g id="a_node2"><a xlink:href="_pipeline_8h.html" target="_top" xlink:title=" ">
<polygon fill="none" stroke="black" points="551.8,-399.5 551.8,-419.5 610.55,-419.5 610.55,-399.5 551.8,-399.5"/>
<text text-anchor="middle" x="581.18" y="-406" font-family="Helvetica,sans-Serif" font-size="10.00">Pipeline.h</text>
</a>
</g>
</g>
<!-- Node1&#45;&gt;Node2 -->
<g id="edge1" class="edge">
<title>Node1&#45;&gt;Node2</title>
<path fill="none" stroke="midnightblue" d="M628.17,-456.73C618.97,-447.68 607.17,-436.08 597.71,-426.76"/>
<polygon fill="midnightblue" stroke="midnightblue" points="600.69,-424.8 591.11,-420.28 595.78,-429.79 600.69,-424.8"/>
</g>
<!-- Node43 -->
<g id="node43" class="node">
<title>Node43</title>
<g id="a_node43"><a xlink:href="_default_vertex_shader_8h.html" target="_top" xlink:title=" ">
<polygon fill="none" stroke="black" points="628.93,-399.5 628.93,-419.5 781.43,-419.5 781.43,-399.5 628.93,-399.5"/>
<text text-anchor="middle" x="705.18" y="-406" font-family="Helvetica,sans-Serif" font-size="10.00">Shaders/DefaultVertexShader.h</text>
</a>
</g>
</g>
<!-- Node1&#45;&gt;Node43 -->
<g id="edge62" class="edge">
<title>Node1&#45;&gt;Node43</title>
<path fill="none" stroke="midnightblue" d="M658.19,-456.73C667.39,-447.68 679.18,-436.08 688.65,-426.76"/>
<polygon fill="midnightblue" stroke="midnightblue" points="690.57,-429.79 695.25,-420.28 685.67,-424.8 690.57,-429.79"/>
</g>
<!-- Node3 -->
<g id="node3" class="node">
<title>Node3</title>
<g id="a_node3"><a xlink:href="_win_8h.html" target="_top" xlink:title=" ">
<polygon fill="none" stroke="black" points="84.43,-171.5 84.43,-191.5 125.93,-191.5 125.93,-171.5 84.43,-171.5"/>
<text text-anchor="middle" x="105.18" y="-178" font-family="Helvetica,sans-Serif" font-size="10.00">Win.h</text>
</a>
</g>
</g>
<!-- Node2&#45;&gt;Node3 -->
<g id="edge2" class="edge">
<title>Node2&#45;&gt;Node3</title>
<path fill="none" stroke="midnightblue" d="M551.89,-405.13C475.62,-394.96 267.98,-358.26 141.18,-249 126.44,-236.3 116.7,-216.01 111.11,-201.18"/>
<polygon fill="midnightblue" stroke="midnightblue" points="114.21,-200.43 107.63,-192.12 107.59,-202.72 114.21,-200.43"/>
</g>
<!-- Node6 -->
<g id="node6" class="node">
<title>Node6</title>
<g id="a_node6"><a xlink:href="_graphics_8h.html" target="_top" xlink:title=" ">
<polygon fill="none" stroke="black" points="439.55,-285.5 439.55,-305.5 502.8,-305.5 502.8,-285.5 439.55,-285.5"/>
<text text-anchor="middle" x="471.18" y="-292" font-family="Helvetica,sans-Serif" font-size="10.00">Graphics.h</text>
</a>
</g>
</g>
<!-- Node2&#45;&gt;Node6 -->
<g id="edge5" class="edge">
<title>Node2&#45;&gt;Node6</title>
<path fill="none" stroke="midnightblue" d="M551.86,-401.25C531.14,-394.63 504.29,-382.8 488.18,-363 477.37,-349.71 473.34,-330.38 471.88,-315.98"/>
<polygon fill="midnightblue" stroke="midnightblue" points="475.32,-316.03 471.17,-306.29 468.34,-316.5 475.32,-316.03"/>
</g>
<!-- Node16 -->
<g id="node16" class="node">
<title>Node16</title>
<g id="a_node16"><a xlink:href="_matrix3_8h.html" target="_top" xlink:title=" ">
<polygon fill="none" stroke="black" points="510.93,-57.5 510.93,-77.5 567.43,-77.5 567.43,-57.5 510.93,-57.5"/>
<text text-anchor="middle" x="539.18" y="-64" font-family="Helvetica,sans-Serif" font-size="10.00">Matrix3.h</text>
</a>
</g>
</g>
<!-- Node2&#45;&gt;Node16 -->
<g id="edge57" class="edge">
<title>Node2&#45;&gt;Node16</title>
<path fill="none" stroke="midnightblue" d="M552.02,-409.14C434.4,-410.96 1.18,-409.95 1.18,-296.5 1.18,-296.5 1.18,-296.5 1.18,-180.5 1.18,-149.76 -3.53,-133.57 20.18,-114 57.01,-83.6 386.36,-72.39 500.47,-69.4"/>
<polygon fill="midnightblue" stroke="midnightblue" points="500.22,-72.88 510.13,-69.13 500.05,-65.88 500.22,-72.88"/>
</g>
<!-- Node29 -->
<g id="node29" class="node">
<title>Node29</title>
<g id="a_node29"><a xlink:href="_triangle_8h.html" target="_top" xlink:title=" ">
<polygon fill="none" stroke="black" points="497.18,-342.5 497.18,-362.5 555.18,-362.5 555.18,-342.5 497.18,-342.5"/>
<text text-anchor="middle" x="526.18" y="-349" font-family="Helvetica,sans-Serif" font-size="10.00">Triangle.h</text>
</a>
</g>
</g>
<!-- Node2&#45;&gt;Node29 -->
<g id="edge38" class="edge">
<title>Node2&#45;&gt;Node29</title>
<path fill="none" stroke="midnightblue" d="M572.58,-399.91C564.56,-391.88 552.37,-379.69 542.5,-369.82"/>
<polygon fill="midnightblue" stroke="midnightblue" points="545.44,-367.81 535.89,-363.21 540.49,-372.76 545.44,-367.81"/>
</g>
<!-- Node30 -->
<g id="node30" class="node">
<title>Node30</title>
<g id="a_node30"><a xlink:href="_indexed_triangle_list_8h.html" target="_top" xlink:title=" ">
<polygon fill="none" stroke="black" points="763.43,-228.5 763.43,-248.5 870.93,-248.5 870.93,-228.5 763.43,-228.5"/>
<text text-anchor="middle" x="817.18" y="-235" font-family="Helvetica,sans-Serif" font-size="10.00">IndexedTriangleList.h</text>
</a>
</g>
</g>
<!-- Node2&#45;&gt;Node30 -->
<g id="edge39" class="edge">
<title>Node2&#45;&gt;Node30</title>
<path fill="none" stroke="midnightblue" d="M610.29,-400.13C642.99,-390.41 693.64,-374.26 710.18,-363 752.8,-333.97 788.84,-283.9 806.16,-257.3"/>
<polygon fill="midnightblue" stroke="midnightblue" points="809.44,-259.67 811.85,-249.35 803.53,-255.91 809.44,-259.67"/>
</g>
<!-- Node36 -->
<g id="node36" class="node">
<title>Node36</title>
<g id="a_node36"><a xlink:title=" ">
<polygon fill="none" stroke="#bfbfbf" points="1024.3,-114.5 1024.3,-134.5 1080.05,-134.5 1080.05,-114.5 1024.3,-114.5"/>
<text text-anchor="middle" x="1052.18" y="-121" font-family="Helvetica,sans-Serif" font-size="10.00">algorithm</text>
</a>
</g>
</g>
<!-- Node2&#45;&gt;Node36 -->
<g id="edge61" class="edge">
<title>Node2&#45;&gt;Node36</title>
<path fill="none" stroke="midnightblue" d="M610.13,-401.41C613.52,-400.59 616.92,-399.78 620.18,-399 717.84,-375.73 1060.18,-396.9 1060.18,-296.5 1060.18,-296.5 1060.18,-296.5 1060.18,-237.5 1060.18,-205.1 1056.8,-167.56 1054.44,-145.21"/>
<polygon fill="midnightblue" stroke="midnightblue" points="1057.83,-145.04 1053.26,-135.49 1050.87,-145.81 1057.83,-145.04"/>
</g>
<!-- Node41 -->
<g id="node41" class="node">
<title>Node41</title>
<g id="a_node41"><a xlink:href="_pube_screen_transformer_8h.html" target="_top" xlink:title=" ">
<polygon fill="none" stroke="black" points="572.93,-342.5 572.93,-362.5 701.43,-362.5 701.43,-342.5 572.93,-342.5"/>
<text text-anchor="middle" x="637.18" y="-349" font-family="Helvetica,sans-Serif" font-size="10.00">PubeScreenTransformer.h</text>
</a>
</g>
</g>
<!-- Node2&#45;&gt;Node41 -->
<g id="edge54" class="edge">
<title>Node2&#45;&gt;Node41</title>
<path fill="none" stroke="midnightblue" d="M590.17,-399.66C598.29,-391.69 610.44,-379.76 620.35,-370.02"/>
<polygon fill="midnightblue" stroke="midnightblue" points="622.33,-373 627.02,-363.5 617.43,-368.01 622.33,-373"/>
</g>
<!-- Node42 -->
<g id="node42" class="node">
<title>Node42</title>
<g id="a_node42"><a xlink:href="_z_buffer_8h.html" target="_top" xlink:title=" ">
<polygon fill="none" stroke="black" points="1095.05,-171.5 1095.05,-191.5 1149.3,-191.5 1149.3,-171.5 1095.05,-171.5"/>
<text text-anchor="middle" x="1122.18" y="-178" font-family="Helvetica,sans-Serif" font-size="10.00">ZBuffer.h</text>
</a>
</g>
</g>
<!-- Node2&#45;&gt;Node42 -->
<g id="edge58" class="edge">
<title>Node2&#45;&gt;Node42</title>
<path fill="none" stroke="midnightblue" d="M610.46,-400.83C613.72,-400.14 617.01,-399.51 620.18,-399 670.14,-390.99 1035.31,-395.41 1074.18,-363 1122.49,-322.71 1125.15,-239.83 1123.6,-202.04"/>
<polygon fill="midnightblue" stroke="midnightblue" points="1127.06,-202.26 1123,-192.47 1120.07,-202.65 1127.06,-202.26"/>
</g>
<!-- Node4 -->
<g id="node4" class="node">
<title>Node4</title>
<g id="a_node4"><a xlink:title=" ">
<polygon fill="none" stroke="#bfbfbf" points="29.3,-114.5 29.3,-134.5 97.05,-134.5 97.05,-114.5 29.3,-114.5"/>
<text text-anchor="middle" x="63.18" y="-121" font-family="Helvetica,sans-Serif" font-size="10.00">sdkddkver.h</text>
</a>
</g>
</g>
<!-- Node3&#45;&gt;Node4 -->
<g id="edge3" class="edge">
<title>Node3&#45;&gt;Node4</title>
<path fill="none" stroke="midnightblue" d="M98.61,-171.91C92.67,-164.12 83.73,-152.42 76.32,-142.71"/>
<polygon fill="midnightblue" stroke="midnightblue" points="78.68,-141.04 69.83,-135.21 73.12,-145.29 78.68,-141.04"/>
</g>
<!-- Node5 -->
<g id="node5" class="node">
<title>Node5</title>
<g id="a_node5"><a xlink:title=" ">
<polygon fill="none" stroke="#bfbfbf" points="115.18,-114.5 115.18,-134.5 179.18,-134.5 179.18,-114.5 115.18,-114.5"/>
<text text-anchor="middle" x="147.18" y="-121" font-family="Helvetica,sans-Serif" font-size="10.00">Windows.h</text>
</a>
</g>
</g>
<!-- Node3&#45;&gt;Node5 -->
<g id="edge4" class="edge">
<title>Node3&#45;&gt;Node5</title>
<path fill="none" stroke="midnightblue" d="M111.74,-171.91C117.68,-164.12 126.62,-152.42 134.03,-142.71"/>
<polygon fill="midnightblue" stroke="midnightblue" points="137.23,-145.29 140.52,-135.21 131.67,-141.04 137.23,-145.29"/>
</g>
<!-- Node7 -->
<g id="node7" class="node">
<title>Node7</title>
<g id="a_node7"><a xlink:href="_engine_exception_8h.html" target="_top" xlink:title=" ">
<polygon fill="none" stroke="black" points="144.3,-171.5 144.3,-191.5 242.05,-191.5 242.05,-171.5 144.3,-171.5"/>
<text text-anchor="middle" x="193.18" y="-178" font-family="Helvetica,sans-Serif" font-size="10.00">EngineException.h</text>
</a>
</g>
</g>
<!-- Node6&#45;&gt;Node7 -->
<g id="edge6" class="edge">
<title>Node6&#45;&gt;Node7</title>
<path fill="none" stroke="midnightblue" d="M448.9,-285.52C399.77,-265.73 282.01,-218.29 225.07,-195.35"/>
<polygon fill="midnightblue" stroke="midnightblue" points="226.76,-191.85 216.18,-191.36 224.14,-198.35 226.76,-191.85"/>
</g>
<!-- Node10 -->
<g id="node10" class="node">
<title>Node10</title>
<g id="a_node10"><a xlink:href="_vector3_8h.html" target="_top" xlink:title=" ">
<polygon fill="none" stroke="black" points="554.05,-114.5 554.05,-134.5 674.3,-134.5 674.3,-114.5 554.05,-114.5"/>
<text text-anchor="middle" x="614.18" y="-121" font-family="Helvetica,sans-Serif" font-size="10.00">LinearAlgebra/Vector3.h</text>
</a>
</g>
</g>
<!-- Node6&#45;&gt;Node10 -->
<g id="edge9" class="edge">
<title>Node6&#45;&gt;Node10</title>
<path fill="none" stroke="midnightblue" d="M471.68,-285.6C472.92,-271.64 477.22,-244.51 492.18,-228 519.44,-197.89 545.86,-219.03 576.18,-192 590.73,-179.02 601.08,-159.1 607.26,-144.44"/>
<polygon fill="midnightblue" stroke="midnightblue" points="610.78,-146.04 611.18,-135.46 604.27,-143.49 610.78,-146.04"/>
</g>
<!-- Node21 -->
<g id="node21" class="node">
<title>Node21</title>
<g id="a_node21"><a xlink:href="_g_d_i_plus_manager_8h.html" target="_top" xlink:title=" ">
<polygon fill="none" stroke="black" points="150.3,-228.5 150.3,-248.5 248.05,-248.5 248.05,-228.5 150.3,-228.5"/>
<text text-anchor="middle" x="199.18" y="-235" font-family="Helvetica,sans-Serif" font-size="10.00">GDIPlusManager.h</text>
</a>
</g>
</g>
<!-- Node6&#45;&gt;Node21 -->
<g id="edge25" class="edge">
<title>Node6&#45;&gt;Node21</title>
<path fill="none" stroke="midnightblue" d="M439.71,-288.14C394.35,-278.96 309.92,-261.89 254.13,-250.61"/>
<polygon fill="midnightblue" stroke="midnightblue" points="254.87,-246.99 244.38,-248.44 253.48,-253.85 254.87,-246.99"/>
</g>
<!-- Node22 -->
<g id="node22" class="node">
<title>Node22</title>
<g id="a_node22"><a xlink:href="_surface_8h.html" target="_top" xlink:title=" ">
<polygon fill="none" stroke="black" points="368.55,-228.5 368.55,-248.5 425.8,-248.5 425.8,-228.5 368.55,-228.5"/>
<text text-anchor="middle" x="397.18" y="-235" font-family="Helvetica,sans-Serif" font-size="10.00">Surface.h</text>
</a>
</g>
</g>
<!-- Node6&#45;&gt;Node22 -->
<g id="edge27" class="edge">
<title>Node6&#45;&gt;Node22</title>
<path fill="none" stroke="midnightblue" d="M459.29,-285.66C448.13,-277.37 431.22,-264.8 417.85,-254.87"/>
<polygon fill="midnightblue" stroke="midnightblue" points="420.4,-251.65 410.28,-248.5 416.22,-257.27 420.4,-251.65"/>
</g>
<!-- Node27 -->
<g id="node27" class="node">
<title>Node27</title>
<g id="a_node27"><a xlink:title=" ">
<polygon fill="none" stroke="#bfbfbf" points="500.93,-228.5 500.93,-248.5 551.43,-248.5 551.43,-228.5 500.93,-228.5"/>
<text text-anchor="middle" x="526.18" y="-235" font-family="Helvetica,sans-Serif" font-size="10.00">d3d11.h</text>
</a>
</g>
</g>
<!-- Node6&#45;&gt;Node27 -->
<g id="edge36" class="edge">
<title>Node6&#45;&gt;Node27</title>
<path fill="none" stroke="midnightblue" d="M479.77,-285.91C487.8,-277.88 499.98,-265.69 509.86,-255.82"/>
<polygon fill="midnightblue" stroke="midnightblue" points="511.87,-258.76 516.46,-249.21 506.92,-253.81 511.87,-258.76"/>
</g>
<!-- Node28 -->
<g id="node28" class="node">
<title>Node28</title>
<g id="a_node28"><a xlink:title=" ">
<polygon fill="none" stroke="#bfbfbf" points="569.05,-228.5 569.05,-248.5 605.3,-248.5 605.3,-228.5 569.05,-228.5"/>
<text text-anchor="middle" x="587.18" y="-235" font-family="Helvetica,sans-Serif" font-size="10.00">wrl.h</text>
</a>
</g>
</g>
<!-- Node6&#45;&gt;Node28 -->
<g id="edge37" class="edge">
<title>Node6&#45;&gt;Node28</title>
<path fill="none" stroke="midnightblue" d="M490.07,-285.54C508.83,-276.65 537.8,-262.91 559.22,-252.75"/>
<polygon fill="midnightblue" stroke="midnightblue" points="560.52,-255.54 568.05,-248.09 557.52,-249.21 560.52,-255.54"/>
</g>
<!-- Node8 -->
<g id="node8" class="node">
<title>Node8</title>
<g id="a_node8"><a xlink:title=" ">
<polygon fill="none" stroke="#bfbfbf" points="299.18,-114.5 299.18,-134.5 339.18,-134.5 339.18,-114.5 299.18,-114.5"/>
<text text-anchor="middle" x="319.18" y="-121" font-family="Helvetica,sans-Serif" font-size="10.00">string</text>
</a>
</g>
</g>
<!-- Node7&#45;&gt;Node8 -->
<g id="edge7" class="edge">
<title>Node7&#45;&gt;Node8</title>
<path fill="none" stroke="midnightblue" d="M213.7,-171.54C234.26,-162.57 266.12,-148.66 289.45,-138.48"/>
<polygon fill="midnightblue" stroke="midnightblue" points="290.73,-141.3 298.49,-134.09 287.93,-134.89 290.73,-141.3"/>
</g>
<!-- Node9 -->
<g id="node9" class="node">
<title>Node9</title>
<g id="a_node9"><a xlink:title=" ">
<polygon fill="none" stroke="#bfbfbf" points="197.05,-114.5 197.05,-134.5 281.3,-134.5 281.3,-114.5 197.05,-114.5"/>
<text text-anchor="middle" x="239.18" y="-121" font-family="Helvetica,sans-Serif" font-size="10.00">source_location</text>
</a>
</g>
</g>
<!-- Node7&#45;&gt;Node9 -->
<g id="edge8" class="edge">
<title>Node7&#45;&gt;Node9</title>
<path fill="none" stroke="midnightblue" d="M200.36,-171.91C206.94,-164.04 216.86,-152.18 225.03,-142.42"/>
<polygon fill="midnightblue" stroke="midnightblue" points="228.16,-145.13 231.89,-135.21 222.79,-140.64 228.16,-145.13"/>
</g>
<!-- Node11 -->
<g id="node11" class="node">
<title>Node11</title>
<g id="a_node11"><a xlink:href="_math_8h.html" target="_top" xlink:title=" ">
<polygon fill="none" stroke="black" points="683.18,-57.5 683.18,-77.5 729.18,-77.5 729.18,-57.5 683.18,-57.5"/>
<text text-anchor="middle" x="706.18" y="-64" font-family="Helvetica,sans-Serif" font-size="10.00">Math.h</text>
</a>
</g>
</g>
<!-- Node10&#45;&gt;Node11 -->
<g id="edge10" class="edge">
<title>Node10&#45;&gt;Node11</title>
<path fill="none" stroke="midnightblue" d="M628.96,-114.66C643.22,-106.13 665.08,-93.07 681.9,-83.01"/>
<polygon fill="midnightblue" stroke="midnightblue" points="683.34,-85.63 690.13,-77.5 679.75,-79.62 683.34,-85.63"/>
</g>
<!-- Node10&#45;&gt;Node16 -->
<g id="edge16" class="edge">
<title>Node10&#45;&gt;Node16</title>
<path fill="none" stroke="midnightblue" d="M602.13,-114.66C590.82,-106.37 573.68,-93.8 560.13,-83.87"/>
<polygon fill="midnightblue" stroke="midnightblue" points="562.58,-80.59 552.45,-77.5 558.44,-86.23 562.58,-80.59"/>
</g>
<!-- Node17 -->
<g id="node17" class="node">
<title>Node17</title>
<g id="a_node17"><a xlink:title=" ">
<polygon fill="none" stroke="#bfbfbf" points="522.3,-0.5 522.3,-20.5 560.05,-20.5 560.05,-0.5 522.3,-0.5"/>
<text text-anchor="middle" x="541.18" y="-7" font-family="Helvetica,sans-Serif" font-size="10.00">array</text>
</a>
</g>
</g>
<!-- Node10&#45;&gt;Node17 -->
<g id="edge21" class="edge">
<title>Node10&#45;&gt;Node17</title>
<path fill="none" stroke="midnightblue" d="M609.63,-114.66C602.84,-101.71 589.44,-76.92 576.18,-57 569.76,-47.36 561.95,-37.09 555.34,-28.75"/>
<polygon fill="midnightblue" stroke="midnightblue" points="557.52,-26.89 548.52,-21.3 552.07,-31.28 557.52,-26.89"/>
</g>
<!-- Node18 -->
<g id="node18" class="node">
<title>Node18</title>
<g id="a_node18"><a xlink:title=" ">
<polygon fill="none" stroke="#bfbfbf" points="578.43,-0.5 578.43,-20.5 625.93,-20.5 625.93,-0.5 578.43,-0.5"/>
<text text-anchor="middle" x="602.18" y="-7" font-family="Helvetica,sans-Serif" font-size="10.00">cstddef</text>
</a>
</g>
</g>
<!-- Node10&#45;&gt;Node18 -->
<g id="edge24" class="edge">
<title>Node10&#45;&gt;Node18</title>
<path fill="none" stroke="midnightblue" d="M613.74,-114.87C613.05,-102.17 611.54,-77.7 609.18,-57 608.2,-48.46 606.81,-39.06 605.52,-31.03"/>
<polygon fill="midnightblue" stroke="midnightblue" points="608.81,-30.49 603.72,-21.2 601.91,-31.63 608.81,-30.49"/>
</g>
<!-- Node19 -->
<g id="node19" class="node">
<title>Node19</title>
<g id="a_node19"><a xlink:title=" ">
<polygon fill="none" stroke="#bfbfbf" points="450.43,-0.5 450.43,-20.5 503.93,-20.5 503.93,-0.5 450.43,-0.5"/>
<text text-anchor="middle" x="477.18" y="-7" font-family="Helvetica,sans-Serif" font-size="10.00">iostream</text>
</a>
</g>
</g>
<!-- Node10&#45;&gt;Node19 -->
<g id="edge22" class="edge">
<title>Node10&#45;&gt;Node19</title>
<path fill="none" stroke="midnightblue" d="M570.04,-114.55C547.18,-107.9 520.34,-96.64 502.18,-78 489.68,-65.17 483.32,-45.51 480.15,-30.88"/>
<polygon fill="midnightblue" stroke="midnightblue" points="483.49,-30.67 478.24,-21.46 476.6,-31.93 483.49,-30.67"/>
</g>
<!-- Node20 -->
<g id="node20" class="node">
<title>Node20</title>
<g id="a_node20"><a xlink:title=" ">
<polygon fill="none" stroke="#bfbfbf" points="765.43,-57.5 765.43,-77.5 818.93,-77.5 818.93,-57.5 765.43,-57.5"/>
<text text-anchor="middle" x="792.18" y="-64" font-family="Helvetica,sans-Serif" font-size="10.00">compare</text>
</a>
</g>
</g>
<!-- Node10&#45;&gt;Node20 -->
<g id="edge23" class="edge">
<title>Node10&#45;&gt;Node20</title>
<path fill="none" stroke="midnightblue" d="M643.17,-114.54C673.75,-105.09 722.02,-90.18 755.29,-79.9"/>
<polygon fill="midnightblue" stroke="midnightblue" points="756,-83.03 764.52,-76.74 753.93,-76.34 756,-83.03"/>
</g>
<!-- Node11&#45;&gt;Node11 -->
<g id="edge11" class="edge">
<title>Node11&#45;&gt;Node11</title>
<path fill="none" stroke="midnightblue" d="M724.73,-77.43C736.23,-79.83 747.18,-76.52 747.18,-67.5 747.18,-61.44 742.24,-57.96 735.5,-57.05"/>
<polygon fill="midnightblue" stroke="midnightblue" points="735.55,-53.59 725.73,-57.57 735.89,-60.59 735.55,-53.59"/>
</g>
<!-- Node12 -->
<g id="node12" class="node">
<title>Node12</title>
<g id="a_node12"><a xlink:title=" ">
<polygon fill="none" stroke="#bfbfbf" points="643.68,-0.5 643.68,-20.5 686.68,-20.5 686.68,-0.5 643.68,-0.5"/>
<text text-anchor="middle" x="665.18" y="-7" font-family="Helvetica,sans-Serif" font-size="10.00">cmath</text>
</a>
</g>
</g>
<!-- Node11&#45;&gt;Node12 -->
<g id="edge12" class="edge">
<title>Node11&#45;&gt;Node12</title>
<path fill="none" stroke="midnightblue" d="M699.77,-57.91C694.03,-50.2 685.42,-38.66 678.23,-29.02"/>
<polygon fill="midnightblue" stroke="midnightblue" points="680.46,-27.14 671.67,-21.21 674.84,-31.32 680.46,-27.14"/>
</g>
<!-- Node13 -->
<g id="node13" class="node">
<title>Node13</title>
<g id="a_node13"><a xlink:title=" ">
<polygon fill="none" stroke="#bfbfbf" points="872.55,-0.5 872.55,-20.5 911.8,-20.5 911.8,-0.5 872.55,-0.5"/>
<text text-anchor="middle" x="892.18" y="-7" font-family="Helvetica,sans-Serif" font-size="10.00">limits</text>
</a>
</g>
</g>
<!-- Node11&#45;&gt;Node13 -->
<g id="edge13" class="edge">
<title>Node11&#45;&gt;Node13</title>
<path fill="none" stroke="midnightblue" d="M728.98,-59.76C762.53,-49.84 825.22,-31.3 862.38,-20.31"/>
<polygon fill="midnightblue" stroke="midnightblue" points="862.98,-23.49 871.58,-17.29 861,-16.77 862.98,-23.49"/>
</g>
<!-- Node14 -->
<g id="node14" class="node">
<title>Node14</title>
<g id="a_node14"><a xlink:title=" ">
<polygon fill="none" stroke="#bfbfbf" points="771.43,-0.5 771.43,-20.5 824.93,-20.5 824.93,-0.5 771.43,-0.5"/>
<text text-anchor="middle" x="798.18" y="-7" font-family="Helvetica,sans-Serif" font-size="10.00">numbers</text>
</a>
</g>
</g>
<!-- Node11&#45;&gt;Node14 -->
<g id="edge14" class="edge">
<title>Node11&#45;&gt;Node14</title>
<path fill="none" stroke="midnightblue" d="M720.96,-57.66C735.22,-49.13 757.08,-36.07 773.9,-26.01"/>
<polygon fill="midnightblue" stroke="midnightblue" points="775.34,-28.63 782.13,-20.5 771.75,-22.62 775.34,-28.63"/>
</g>
<!-- Node15 -->
<g id="node15" class="node">
<title>Node15</title>
<g id="a_node15"><a xlink:title=" ">
<polygon fill="none" stroke="#bfbfbf" points="705.05,-0.5 705.05,-20.5 753.3,-20.5 753.3,-0.5 705.05,-0.5"/>
<text text-anchor="middle" x="729.18" y="-7" font-family="Helvetica,sans-Serif" font-size="10.00">random</text>
</a>
</g>
</g>
<!-- Node11&#45;&gt;Node15 -->
<g id="edge15" class="edge">
<title>Node11&#45;&gt;Node15</title>
<path fill="none" stroke="midnightblue" d="M709.77,-57.91C712.86,-50.52 717.42,-39.62 721.34,-30.23"/>
<polygon fill="midnightblue" stroke="midnightblue" points="724.9,-31.79 725.53,-21.21 718.45,-29.09 724.9,-31.79"/>
</g>
<!-- Node16&#45;&gt;Node12 -->
<g id="edge18" class="edge">
<title>Node16&#45;&gt;Node12</title>
<path fill="none" stroke="midnightblue" d="M559.7,-57.54C580.02,-48.67 611.37,-34.99 634.62,-24.84"/>
<polygon fill="midnightblue" stroke="midnightblue" points="635.9,-27.66 643.66,-20.46 633.1,-21.25 635.9,-27.66"/>
</g>
<!-- Node16&#45;&gt;Node17 -->
<g id="edge17" class="edge">
<title>Node16&#45;&gt;Node17</title>
<path fill="none" stroke="midnightblue" d="M539.49,-57.91C539.75,-50.76 540.13,-40.32 540.46,-31.15"/>
<polygon fill="midnightblue" stroke="midnightblue" points="543.99,-31.34 540.86,-21.21 537,-31.08 543.99,-31.34"/>
</g>
<!-- Node16&#45;&gt;Node18 -->
<g id="edge19" class="edge">
<title>Node16&#45;&gt;Node18</title>
<path fill="none" stroke="midnightblue" d="M549.3,-57.66C558.61,-49.53 572.65,-37.28 583.92,-27.44"/>
<polygon fill="midnightblue" stroke="midnightblue" points="585.64,-29.71 590.87,-20.5 581.04,-24.44 585.64,-29.71"/>
</g>
<!-- Node16&#45;&gt;Node19 -->
<g id="edge20" class="edge">
<title>Node16&#45;&gt;Node19</title>
<path fill="none" stroke="midnightblue" d="M529.22,-57.66C520.14,-49.61 506.51,-37.52 495.48,-27.73"/>
<polygon fill="midnightblue" stroke="midnightblue" points="498.12,-25.52 488.32,-21.5 493.48,-30.75 498.12,-25.52"/>
</g>
<!-- Node21&#45;&gt;Node3 -->
<g id="edge26" class="edge">
<title>Node21&#45;&gt;Node3</title>
<path fill="none" stroke="midnightblue" d="M184.07,-228.66C169.5,-220.13 147.17,-207.07 129.98,-197.01"/>
<polygon fill="midnightblue" stroke="midnightblue" points="131.95,-193.53 121.55,-191.5 128.42,-199.57 131.95,-193.53"/>
</g>
<!-- Node22&#45;&gt;Node3 -->
<g id="edge28" class="edge">
<title>Node22&#45;&gt;Node3</title>
<path fill="none" stroke="midnightblue" d="M368.62,-233.83C321.99,-227.55 226.48,-213.55 136.15,-191.94"/>
<polygon fill="midnightblue" stroke="midnightblue" points="137.27,-188.37 126.73,-189.41 135.62,-195.17 137.27,-188.37"/>
</g>
<!-- Node22&#45;&gt;Node7 -->
<g id="edge31" class="edge">
<title>Node22&#45;&gt;Node7</title>
<path fill="none" stroke="midnightblue" d="M368.81,-229.85C334.61,-220.63 276.77,-205.04 236.86,-194.28"/>
<polygon fill="midnightblue" stroke="midnightblue" points="237.94,-190.67 227.37,-191.45 236.12,-197.43 237.94,-190.67"/>
</g>
<!-- Node22&#45;&gt;Node8 -->
<g id="edge34" class="edge">
<title>Node22&#45;&gt;Node8</title>
<path fill="none" stroke="midnightblue" d="M368.65,-234.2C343,-229.56 306.73,-218.44 289.18,-192 278.62,-176.1 290.89,-155.87 302.77,-141.92"/>
<polygon fill="midnightblue" stroke="midnightblue" points="304.73,-144.88 308.91,-135.14 299.57,-140.14 304.73,-144.88"/>
</g>
<!-- Node23 -->
<g id="node23" class="node">
<title>Node23</title>
<g id="a_node23"><a xlink:href="_colors_8h.html" target="_top" xlink:title=" ">
<polygon fill="none" stroke="black" points="515.18,-171.5 515.18,-191.5 567.18,-191.5 567.18,-171.5 515.18,-171.5"/>
<text text-anchor="middle" x="541.18" y="-178" font-family="Helvetica,sans-Serif" font-size="10.00">Colors.h</text>
</a>
</g>
</g>
<!-- Node22&#45;&gt;Node23 -->
<g id="edge29" class="edge">
<title>Node22&#45;&gt;Node23</title>
<path fill="none" stroke="midnightblue" d="M420.63,-228.54C444.27,-219.51 480.98,-205.49 507.68,-195.29"/>
<polygon fill="midnightblue" stroke="midnightblue" points="508.64,-198.29 516.73,-191.46 506.14,-191.75 508.64,-198.29"/>
</g>
<!-- Node24 -->
<g id="node24" class="node">
<title>Node24</title>
<g id="a_node24"><a xlink:title=" ">
<polygon fill="none" stroke="#bfbfbf" points="376.55,-171.5 376.55,-191.5 427.8,-191.5 427.8,-171.5 376.55,-171.5"/>
<text text-anchor="middle" x="402.18" y="-178" font-family="Helvetica,sans-Serif" font-size="10.00">assert.h</text>
</a>
</g>
</g>
<!-- Node22&#45;&gt;Node24 -->
<g id="edge32" class="edge">
<title>Node22&#45;&gt;Node24</title>
<path fill="none" stroke="midnightblue" d="M397.96,-228.91C398.61,-221.76 399.56,-211.32 400.39,-202.15"/>
<polygon fill="midnightblue" stroke="midnightblue" points="403.96,-202.49 401.38,-192.21 396.99,-201.86 403.96,-202.49"/>
</g>
<!-- Node25 -->
<g id="node25" class="node">
<title>Node25</title>
<g id="a_node25"><a xlink:title=" ">
<polygon fill="none" stroke="#bfbfbf" points="445.55,-171.5 445.55,-191.5 496.8,-191.5 496.8,-171.5 445.55,-171.5"/>
<text text-anchor="middle" x="471.18" y="-178" font-family="Helvetica,sans-Serif" font-size="10.00">memory</text>
</a>
</g>
</g>
<!-- Node22&#45;&gt;Node25 -->
<g id="edge33" class="edge">
<title>Node22&#45;&gt;Node25</title>
<path fill="none" stroke="midnightblue" d="M409.07,-228.66C420.22,-220.37 437.14,-207.8 450.5,-197.87"/>
<polygon fill="midnightblue" stroke="midnightblue" points="452.13,-200.27 458.07,-191.5 447.96,-194.65 452.13,-200.27"/>
</g>
<!-- Node26 -->
<g id="node26" class="node">
<title>Node26</title>
<g id="a_node26"><a xlink:title=" ">
<polygon fill="none" stroke="#bfbfbf" points="298.05,-171.5 298.05,-191.5 358.3,-191.5 358.3,-171.5 298.05,-171.5"/>
<text text-anchor="middle" x="328.18" y="-178" font-family="Helvetica,sans-Serif" font-size="10.00">filesystem</text>
</a>
</g>
</g>
<!-- Node22&#45;&gt;Node26 -->
<g id="edge35" class="edge">
<title>Node22&#45;&gt;Node26</title>
<path fill="none" stroke="midnightblue" d="M386.09,-228.66C375.79,-220.45 360.22,-208.04 347.82,-198.15"/>
<polygon fill="midnightblue" stroke="midnightblue" points="350.47,-194.99 340.46,-191.5 346.1,-200.47 350.47,-194.99"/>
</g>
<!-- Node23&#45;&gt;Node10 -->
<g id="edge30" class="edge">
<title>Node23&#45;&gt;Node10</title>
<path fill="none" stroke="midnightblue" d="M552.91,-171.66C563.91,-163.37 580.6,-150.8 593.78,-140.87"/>
<polygon fill="midnightblue" stroke="midnightblue" points="595.35,-143.31 601.23,-134.5 591.14,-137.72 595.35,-143.31"/>
</g>
<!-- Node30&#45;&gt;Node10 -->
<g id="edge40" class="edge">
<title>Node30&#45;&gt;Node10</title>
<path fill="none" stroke="midnightblue" d="M781.39,-228.57C755.04,-221.1 718.95,-208.91 690.18,-192 666.93,-178.33 644.18,-157.08 629.73,-142.3"/>
<polygon fill="midnightblue" stroke="midnightblue" points="632.67,-140.26 623.23,-135.44 627.6,-145.09 632.67,-140.26"/>
</g>
<!-- Node31 -->
<g id="node31" class="node">
<title>Node31</title>
<g id="a_node31"><a xlink:href="tiny__obj__loader_8h.html" target="_top" xlink:title=" ">
<polygon fill="none" stroke="black" points="699.43,-171.5 699.43,-191.5 788.93,-191.5 788.93,-171.5 699.43,-171.5"/>
<text text-anchor="middle" x="744.18" y="-178" font-family="Helvetica,sans-Serif" font-size="10.00">tiny_obj_loader.h</text>
</a>
</g>
</g>
<!-- Node30&#45;&gt;Node31 -->
<g id="edge41" class="edge">
<title>Node30&#45;&gt;Node31</title>
<path fill="none" stroke="midnightblue" d="M805.45,-228.66C794.45,-220.37 777.76,-207.8 764.57,-197.87"/>
<polygon fill="midnightblue" stroke="midnightblue" points="767.21,-194.72 757.12,-191.5 763,-200.31 767.21,-194.72"/>
</g>
<!-- Node33 -->
<g id="node33" class="node">
<title>Node33</title>
<g id="a_node33"><a xlink:title=" ">
<polygon fill="none" stroke="#bfbfbf" points="788.43,-114.5 788.43,-134.5 829.93,-134.5 829.93,-114.5 788.43,-114.5"/>
<text text-anchor="middle" x="809.18" y="-121" font-family="Helvetica,sans-Serif" font-size="10.00">vector</text>
</a>
</g>
</g>
<!-- Node30&#45;&gt;Node33 -->
<g id="edge51" class="edge">
<title>Node30&#45;&gt;Node33</title>
<path fill="none" stroke="midnightblue" d="M816.55,-228.71C815.27,-210.8 812.33,-169.69 810.58,-145.11"/>
<polygon fill="midnightblue" stroke="midnightblue" points="814.01,-144.97 809.8,-135.25 807.02,-145.47 814.01,-144.97"/>
</g>
<!-- Node34 -->
<g id="node34" class="node">
<title>Node34</title>
<g id="a_node34"><a xlink:href="_miniball_8h.html" target="_top" xlink:title=" ">
<polygon fill="none" stroke="black" points="974.55,-171.5 974.55,-191.5 1031.8,-191.5 1031.8,-171.5 974.55,-171.5"/>
<text text-anchor="middle" x="1003.18" y="-178" font-family="Helvetica,sans-Serif" font-size="10.00">Miniball.h</text>
</a>
</g>
</g>
<!-- Node30&#45;&gt;Node34 -->
<g id="edge45" class="edge">
<title>Node30&#45;&gt;Node34</title>
<path fill="none" stroke="midnightblue" d="M847.47,-228.54C879.38,-219.11 929.71,-204.22 964.47,-193.94"/>
<polygon fill="midnightblue" stroke="midnightblue" points="965.13,-197.11 973.72,-190.91 963.14,-190.39 965.13,-197.11"/>
</g>
<!-- Node39 -->
<g id="node39" class="node">
<title>Node39</title>
<g id="a_node39"><a xlink:title=" ">
<polygon fill="none" stroke="#bfbfbf" points="845.05,-171.5 845.05,-191.5 893.3,-191.5 893.3,-171.5 845.05,-171.5"/>
<text text-anchor="middle" x="869.18" y="-178" font-family="Helvetica,sans-Serif" font-size="10.00">fstream</text>
</a>
</g>
</g>
<!-- Node30&#45;&gt;Node39 -->
<g id="edge52" class="edge">
<title>Node30&#45;&gt;Node39</title>
<path fill="none" stroke="midnightblue" d="M825.3,-228.91C832.81,-220.96 844.18,-208.94 853.47,-199.12"/>
<polygon fill="midnightblue" stroke="midnightblue" points="855.61,-201.89 859.94,-192.21 850.52,-197.08 855.61,-201.89"/>
</g>
<!-- Node40 -->
<g id="node40" class="node">
<title>Node40</title>
<g id="a_node40"><a xlink:title=" ">
<polygon fill="none" stroke="#bfbfbf" points="911.55,-171.5 911.55,-191.5 956.8,-191.5 956.8,-171.5 911.55,-171.5"/>
<text text-anchor="middle" x="934.18" y="-178" font-family="Helvetica,sans-Serif" font-size="10.00">cctype</text>
</a>
</g>
</g>
<!-- Node30&#45;&gt;Node40 -->
<g id="edge53" class="edge">
<title>Node30&#45;&gt;Node40</title>
<path fill="none" stroke="midnightblue" d="M836.24,-228.54C854.93,-219.75 883.69,-206.23 905.22,-196.11"/>
<polygon fill="midnightblue" stroke="midnightblue" points="906.57,-198.88 914.13,-191.46 903.59,-192.54 906.57,-198.88"/>
</g>
<!-- Node31&#45;&gt;Node8 -->
<g id="edge43" class="edge">
<title>Node31&#45;&gt;Node8</title>
<path fill="none" stroke="midnightblue" d="M699.5,-174.72C612.91,-163.51 424.28,-139.1 350.06,-129.5"/>
<polygon fill="midnightblue" stroke="midnightblue" points="350.53,-125.9 340.16,-128.09 349.63,-132.84 350.53,-125.9"/>
</g>
<!-- Node32 -->
<g id="node32" class="node">
<title>Node32</title>
<g id="a_node32"><a xlink:title=" ">
<polygon fill="none" stroke="#bfbfbf" points="726.8,-114.5 726.8,-134.5 761.55,-134.5 761.55,-114.5 726.8,-114.5"/>
<text text-anchor="middle" x="744.18" y="-121" font-family="Helvetica,sans-Serif" font-size="10.00">map</text>
</a>
</g>
</g>
<!-- Node31&#45;&gt;Node32 -->
<g id="edge42" class="edge">
<title>Node31&#45;&gt;Node32</title>
<path fill="none" stroke="midnightblue" d="M744.18,-171.91C744.18,-164.76 744.18,-154.32 744.18,-145.15"/>
<polygon fill="midnightblue" stroke="midnightblue" points="747.68,-145.21 744.18,-135.21 740.68,-145.21 747.68,-145.21"/>
</g>
<!-- Node31&#45;&gt;Node33 -->
<g id="edge44" class="edge">
<title>Node31&#45;&gt;Node33</title>
<path fill="none" stroke="midnightblue" d="M754.62,-171.66C764.23,-163.53 778.71,-151.28 790.34,-141.44"/>
<polygon fill="midnightblue" stroke="midnightblue" points="792.17,-143.63 797.54,-134.5 787.65,-138.29 792.17,-143.63"/>
</g>
<!-- Node34&#45;&gt;Node13 -->
<g id="edge50" class="edge">
<title>Node34&#45;&gt;Node13</title>
<path fill="none" stroke="midnightblue" d="M979.42,-171.66C955.14,-162.15 919.81,-146.79 911.18,-135 888.61,-104.18 888.1,-57.32 889.98,-31.07"/>
<polygon fill="midnightblue" stroke="midnightblue" points="893.54,-31.58 890.97,-21.3 886.57,-30.93 893.54,-31.58"/>
</g>
<!-- Node35 -->
<g id="node35" class="node">
<title>Node35</title>
<g id="a_node35"><a xlink:title=" ">
<polygon fill="none" stroke="#bfbfbf" points="1098.05,-114.5 1098.05,-134.5 1146.3,-134.5 1146.3,-114.5 1098.05,-114.5"/>
<text text-anchor="middle" x="1122.18" y="-121" font-family="Helvetica,sans-Serif" font-size="10.00">cassert</text>
</a>
</g>
</g>
<!-- Node34&#45;&gt;Node35 -->
<g id="edge46" class="edge">
<title>Node34&#45;&gt;Node35</title>
<path fill="none" stroke="midnightblue" d="M1022.56,-171.54C1041.66,-162.71 1071.09,-149.11 1093.02,-138.98"/>
<polygon fill="midnightblue" stroke="midnightblue" points="1094.19,-141.83 1101.8,-134.46 1091.26,-135.47 1094.19,-141.83"/>
</g>
<!-- Node34&#45;&gt;Node36 -->
<g id="edge47" class="edge">
<title>Node34&#45;&gt;Node36</title>
<path fill="none" stroke="midnightblue" d="M1010.83,-171.91C1017.84,-164.04 1028.41,-152.18 1037.11,-142.42"/>
<polygon fill="midnightblue" stroke="midnightblue" points="1039.37,-145.01 1043.41,-135.21 1034.15,-140.35 1039.37,-145.01"/>
</g>
<!-- Node37 -->
<g id="node37" class="node">
<title>Node37</title>
<g id="a_node37"><a xlink:title=" ">
<polygon fill="none" stroke="#bfbfbf" points="919.78,-114.5 919.78,-134.5 948.58,-134.5 948.58,-114.5 919.78,-114.5"/>
<text text-anchor="middle" x="934.15" y="-121" font-family="Helvetica,sans-Serif" font-size="10.00">list</text>
</a>
</g>
</g>
<!-- Node34&#45;&gt;Node37 -->
<g id="edge48" class="edge">
<title>Node34&#45;&gt;Node37</title>
<path fill="none" stroke="midnightblue" d="M992.09,-171.66C981.79,-163.45 966.22,-151.04 953.82,-141.15"/>
<polygon fill="midnightblue" stroke="midnightblue" points="956.47,-137.99 946.46,-134.5 952.1,-143.47 956.47,-137.99"/>
</g>
<!-- Node38 -->
<g id="node38" class="node">
<title>Node38</title>
<g id="a_node38"><a xlink:title=" ">
<polygon fill="none" stroke="#bfbfbf" points="966.18,-114.5 966.18,-134.5 1006.18,-134.5 1006.18,-114.5 966.18,-114.5"/>
<text text-anchor="middle" x="986.18" y="-121" font-family="Helvetica,sans-Serif" font-size="10.00">ctime</text>
</a>
</g>
</g>
<!-- Node34&#45;&gt;Node38 -->
<g id="edge49" class="edge">
<title>Node34&#45;&gt;Node38</title>
<path fill="none" stroke="midnightblue" d="M1000.52,-171.91C998.26,-164.6 994.94,-153.85 992.06,-144.54"/>
<polygon fill="midnightblue" stroke="midnightblue" points="995.17,-143.74 988.87,-135.21 988.48,-145.8 995.17,-143.74"/>
</g>
<!-- Node41&#45;&gt;Node6 -->
<g id="edge55" class="edge">
<title>Node41&#45;&gt;Node6</title>
<path fill="none" stroke="midnightblue" d="M610.14,-342.54C582.52,-333.39 539.44,-319.12 508.57,-308.89"/>
<polygon fill="midnightblue" stroke="midnightblue" points="509.8,-305.28 499.21,-305.46 507.6,-311.92 509.8,-305.28"/>
</g>
<!-- Node41&#45;&gt;Node10 -->
<g id="edge56" class="edge">
<title>Node41&#45;&gt;Node10</title>
<path fill="none" stroke="midnightblue" d="M636.28,-342.64C632.89,-309.38 620.89,-191.47 616.14,-144.76"/>
<polygon fill="midnightblue" stroke="midnightblue" points="619.54,-144.65 615.05,-135.06 612.58,-145.36 619.54,-144.65"/>
</g>
<!-- Node42&#45;&gt;Node13 -->
<g id="edge59" class="edge">
<title>Node42&#45;&gt;Node13</title>
<path fill="none" stroke="midnightblue" d="M1132.17,-171.9C1146.15,-158.81 1168.41,-133.37 1155.18,-114 1101.75,-35.84 979.18,-17.27 922.26,-12.87"/>
<polygon fill="midnightblue" stroke="midnightblue" points="922.68,-9.32 912.47,-12.14 922.21,-16.31 922.68,-9.32"/>
</g>
<!-- Node42&#45;&gt;Node35 -->
<g id="edge60" class="edge">
<title>Node42&#45;&gt;Node35</title>
<path fill="none" stroke="midnightblue" d="M1122.18,-171.91C1122.18,-164.76 1122.18,-154.32 1122.18,-145.15"/>
<polygon fill="midnightblue" stroke="midnightblue" points="1125.68,-145.21 1122.18,-135.21 1118.68,-145.21 1125.68,-145.21"/>
</g>
</g>
</svg>
