<?xml version="1.0" encoding="UTF-8" standalone="no"?>
<!DOCTYPE svg PUBLIC "-//W3C//DTD SVG 1.1//EN"
 "http://www.w3.org/Graphics/SVG/1.1/DTD/svg11.dtd">
<!-- Generated by graphviz version 8.1.0 (20230707.0739)
 -->
<!-- Title: src/Surface.cpp Pages: 1 -->
<svg width="624pt" height="314pt"
 viewBox="0.00 0.00 624.12 314.00" xmlns="http://www.w3.org/2000/svg" xmlns:xlink="http://www.w3.org/1999/xlink">
<g id="graph0" class="graph" transform="scale(1 1) rotate(0) translate(4 310)">
<title>src/Surface.cpp</title>
<!-- Node1 -->
<g id="node1" class="node">
<title>Node1</title>
<g id="a_node1"><a xlink:title=" ">
<polygon fill="#bfbfbf" stroke="black" points="267.88,-285.5 267.88,-305.5 352.12,-305.5 352.12,-285.5 267.88,-285.5"/>
<text text-anchor="middle" x="310" y="-292" font-family="Helvetica,sans-Serif" font-size="10.00">src/Surface.cpp</text>
</a>
</g>
</g>
<!-- Node2 -->
<g id="node2" class="node">
<title>Node2</title>
<g id="a_node2"><a xlink:href="_surface_8h.html" target="_top" xlink:title=" ">
<polygon fill="none" stroke="black" points="244.38,-228.5 244.38,-248.5 301.62,-248.5 301.62,-228.5 244.38,-228.5"/>
<text text-anchor="middle" x="273" y="-235" font-family="Helvetica,sans-Serif" font-size="10.00">Surface.h</text>
</a>
</g>
</g>
<!-- Node1&#45;&gt;Node2 -->
<g id="edge1" class="edge">
<title>Node1&#45;&gt;Node2</title>
<path fill="none" stroke="midnightblue" d="M304.22,-285.91C299.09,-278.28 291.43,-266.9 284.99,-257.32"/>
<polygon fill="midnightblue" stroke="midnightblue" points="287.35,-255.56 278.86,-249.21 281.54,-259.47 287.35,-255.56"/>
</g>
<!-- Node3 -->
<g id="node3" class="node">
<title>Node3</title>
<g id="a_node3"><a xlink:href="_win_8h.html" target="_top" xlink:title=" ">
<polygon fill="none" stroke="black" points="126.25,-171.5 126.25,-191.5 167.75,-191.5 167.75,-171.5 126.25,-171.5"/>
<text text-anchor="middle" x="147" y="-178" font-family="Helvetica,sans-Serif" font-size="10.00">Win.h</text>
</a>
</g>
</g>
<!-- Node1&#45;&gt;Node3 -->
<g id="edge28" class="edge">
<title>Node1&#45;&gt;Node3</title>
<path fill="none" stroke="midnightblue" d="M294.2,-285.54C278.81,-276.68 254.91,-262.51 235,-249 210.71,-232.52 183.96,-211.93 166.4,-198.07"/>
<polygon fill="midnightblue" stroke="midnightblue" points="169.13,-194.97 159.12,-191.49 164.77,-200.45 169.13,-194.97"/>
</g>
<!-- Node16 -->
<g id="node16" class="node">
<title>Node16</title>
<g id="a_node16"><a xlink:title=" ">
<polygon fill="none" stroke="#bfbfbf" points="63.25,-0.5 63.25,-20.5 116.75,-20.5 116.75,-0.5 63.25,-0.5"/>
<text text-anchor="middle" x="90" y="-7" font-family="Helvetica,sans-Serif" font-size="10.00">iostream</text>
</a>
</g>
</g>
<!-- Node1&#45;&gt;Node16 -->
<g id="edge32" class="edge">
<title>Node1&#45;&gt;Node16</title>
<path fill="none" stroke="midnightblue" d="M268.19,-288.38C183.58,-274.81 0,-238.87 0,-182.5 0,-182.5 0,-182.5 0,-123.5 0,-80.88 40.09,-45.26 66.76,-26.28"/>
<polygon fill="midnightblue" stroke="midnightblue" points="68.26,-28.81 74.54,-20.28 64.31,-23.03 68.26,-28.81"/>
</g>
<!-- Node23 -->
<g id="node23" class="node">
<title>Node23</title>
<g id="a_node23"><a xlink:title=" ">
<polygon fill="none" stroke="#bfbfbf" points="319.5,-228.5 319.5,-248.5 374.5,-248.5 374.5,-228.5 319.5,-228.5"/>
<text text-anchor="middle" x="347" y="-235" font-family="Helvetica,sans-Serif" font-size="10.00">gdiplus.h</text>
</a>
</g>
</g>
<!-- Node1&#45;&gt;Node23 -->
<g id="edge29" class="edge">
<title>Node1&#45;&gt;Node23</title>
<path fill="none" stroke="midnightblue" d="M315.78,-285.91C320.91,-278.28 328.57,-266.9 335.01,-257.32"/>
<polygon fill="midnightblue" stroke="midnightblue" points="338.46,-259.47 341.14,-249.21 332.65,-255.56 338.46,-259.47"/>
</g>
<!-- Node24 -->
<g id="node24" class="node">
<title>Node24</title>
<g id="a_node24"><a xlink:title=" ">
<polygon fill="none" stroke="#bfbfbf" points="392.38,-228.5 392.38,-248.5 443.62,-248.5 443.62,-228.5 392.38,-228.5"/>
<text text-anchor="middle" x="418" y="-235" font-family="Helvetica,sans-Serif" font-size="10.00">sstream</text>
</a>
</g>
</g>
<!-- Node1&#45;&gt;Node24 -->
<g id="edge30" class="edge">
<title>Node1&#45;&gt;Node24</title>
<path fill="none" stroke="midnightblue" d="M327.35,-285.66C344.41,-276.97 370.71,-263.58 390.6,-253.45"/>
<polygon fill="midnightblue" stroke="midnightblue" points="392.01,-256.15 399.33,-248.5 388.83,-249.92 392.01,-256.15"/>
</g>
<!-- Node25 -->
<g id="node25" class="node">
<title>Node25</title>
<g id="a_node25"><a xlink:title=" ">
<polygon fill="none" stroke="#bfbfbf" points="461.25,-228.5 461.25,-248.5 502.75,-248.5 502.75,-228.5 461.25,-228.5"/>
<text text-anchor="middle" x="482" y="-235" font-family="Helvetica,sans-Serif" font-size="10.00">vector</text>
</a>
</g>
</g>
<!-- Node1&#45;&gt;Node25 -->
<g id="edge31" class="edge">
<title>Node1&#45;&gt;Node25</title>
<path fill="none" stroke="midnightblue" d="M338.51,-285.51C365.3,-277.04 406.78,-263.89 451.03,-249.62"/>
<polygon fill="midnightblue" stroke="midnightblue" points="451.97,-252.67 460.41,-246.27 449.82,-246.01 451.97,-252.67"/>
</g>
<!-- Node2&#45;&gt;Node3 -->
<g id="edge2" class="edge">
<title>Node2&#45;&gt;Node3</title>
<path fill="none" stroke="midnightblue" d="M252.48,-228.54C232.16,-219.67 200.8,-205.99 177.56,-195.84"/>
<polygon fill="midnightblue" stroke="midnightblue" points="179.08,-192.25 168.52,-191.46 176.28,-198.66 179.08,-192.25"/>
</g>
<!-- Node6 -->
<g id="node6" class="node">
<title>Node6</title>
<g id="a_node6"><a xlink:href="_colors_8h.html" target="_top" xlink:title=" ">
<polygon fill="none" stroke="black" points="193,-171.5 193,-191.5 245,-191.5 245,-171.5 193,-171.5"/>
<text text-anchor="middle" x="219" y="-178" font-family="Helvetica,sans-Serif" font-size="10.00">Colors.h</text>
</a>
</g>
</g>
<!-- Node2&#45;&gt;Node6 -->
<g id="edge5" class="edge">
<title>Node2&#45;&gt;Node6</title>
<path fill="none" stroke="midnightblue" d="M264.56,-228.91C256.68,-220.88 244.72,-208.69 235.02,-198.82"/>
<polygon fill="midnightblue" stroke="midnightblue" points="238.06,-196.9 228.56,-192.21 233.06,-201.8 238.06,-196.9"/>
</g>
<!-- Node18 -->
<g id="node18" class="node">
<title>Node18</title>
<g id="a_node18"><a xlink:href="_engine_exception_8h.html" target="_top" xlink:title=" ">
<polygon fill="none" stroke="black" points="301.12,-171.5 301.12,-191.5 398.88,-191.5 398.88,-171.5 301.12,-171.5"/>
<text text-anchor="middle" x="350" y="-178" font-family="Helvetica,sans-Serif" font-size="10.00">EngineException.h</text>
</a>
</g>
</g>
<!-- Node2&#45;&gt;Node18 -->
<g id="edge22" class="edge">
<title>Node2&#45;&gt;Node18</title>
<path fill="none" stroke="midnightblue" d="M285.37,-228.66C296.98,-220.37 314.58,-207.8 328.49,-197.87"/>
<polygon fill="midnightblue" stroke="midnightblue" points="330.3,-200.16 336.4,-191.5 326.23,-194.46 330.3,-200.16"/>
</g>
<!-- Node19 -->
<g id="node19" class="node">
<title>Node19</title>
<g id="a_node19"><a xlink:title=" ">
<polygon fill="none" stroke="#bfbfbf" points="334,-114.5 334,-134.5 374,-134.5 374,-114.5 334,-114.5"/>
<text text-anchor="middle" x="354" y="-121" font-family="Helvetica,sans-Serif" font-size="10.00">string</text>
</a>
</g>
</g>
<!-- Node2&#45;&gt;Node19 -->
<g id="edge26" class="edge">
<title>Node2&#45;&gt;Node19</title>
<path fill="none" stroke="midnightblue" d="M273.72,-228.54C275.18,-214.98 279.52,-188.94 292,-171 300.85,-158.29 314.4,-147.76 326.59,-140.04"/>
<polygon fill="midnightblue" stroke="midnightblue" points="328.15,-142.58 334.95,-134.46 324.57,-136.57 328.15,-142.58"/>
</g>
<!-- Node20 -->
<g id="node20" class="node">
<title>Node20</title>
<g id="a_node20"><a xlink:title=" ">
<polygon fill="none" stroke="#bfbfbf" points="417.38,-171.5 417.38,-191.5 468.62,-191.5 468.62,-171.5 417.38,-171.5"/>
<text text-anchor="middle" x="443" y="-178" font-family="Helvetica,sans-Serif" font-size="10.00">assert.h</text>
</a>
</g>
</g>
<!-- Node2&#45;&gt;Node20 -->
<g id="edge24" class="edge">
<title>Node2&#45;&gt;Node20</title>
<path fill="none" stroke="midnightblue" d="M300.69,-228.54C329.77,-219.13 375.6,-204.31 407.36,-194.03"/>
<polygon fill="midnightblue" stroke="midnightblue" points="408.11,-197.14 416.54,-190.74 405.95,-190.48 408.11,-197.14"/>
</g>
<!-- Node21 -->
<g id="node21" class="node">
<title>Node21</title>
<g id="a_node21"><a xlink:title=" ">
<polygon fill="none" stroke="#bfbfbf" points="486.38,-171.5 486.38,-191.5 537.62,-191.5 537.62,-171.5 486.38,-171.5"/>
<text text-anchor="middle" x="512" y="-178" font-family="Helvetica,sans-Serif" font-size="10.00">memory</text>
</a>
</g>
</g>
<!-- Node2&#45;&gt;Node21 -->
<g id="edge25" class="edge">
<title>Node2&#45;&gt;Node21</title>
<path fill="none" stroke="midnightblue" d="M301.25,-230.12C304.2,-229.39 307.16,-228.67 310,-228 381.14,-211.25 402.08,-210.33 476.12,-192.36"/>
<polygon fill="midnightblue" stroke="midnightblue" points="476.55,-195.61 485.42,-189.83 474.88,-188.81 476.55,-195.61"/>
</g>
<!-- Node22 -->
<g id="node22" class="node">
<title>Node22</title>
<g id="a_node22"><a xlink:title=" ">
<polygon fill="none" stroke="#bfbfbf" points="555.88,-171.5 555.88,-191.5 616.12,-191.5 616.12,-171.5 555.88,-171.5"/>
<text text-anchor="middle" x="586" y="-178" font-family="Helvetica,sans-Serif" font-size="10.00">filesystem</text>
</a>
</g>
</g>
<!-- Node2&#45;&gt;Node22 -->
<g id="edge27" class="edge">
<title>Node2&#45;&gt;Node22</title>
<path fill="none" stroke="midnightblue" d="M301.62,-229.85C304.44,-229.19 307.27,-228.56 310,-228 411.03,-207.41 440.59,-212.28 545.51,-192.13"/>
<polygon fill="midnightblue" stroke="midnightblue" points="546.11,-195.39 555.25,-190.03 544.76,-188.52 546.11,-195.39"/>
</g>
<!-- Node4 -->
<g id="node4" class="node">
<title>Node4</title>
<g id="a_node4"><a xlink:title=" ">
<polygon fill="none" stroke="#bfbfbf" points="110.12,-114.5 110.12,-134.5 177.88,-134.5 177.88,-114.5 110.12,-114.5"/>
<text text-anchor="middle" x="144" y="-121" font-family="Helvetica,sans-Serif" font-size="10.00">sdkddkver.h</text>
</a>
</g>
</g>
<!-- Node3&#45;&gt;Node4 -->
<g id="edge3" class="edge">
<title>Node3&#45;&gt;Node4</title>
<path fill="none" stroke="midnightblue" d="M146.53,-171.91C146.14,-164.76 145.57,-154.32 145.07,-145.15"/>
<polygon fill="midnightblue" stroke="midnightblue" points="148.51,-145.01 144.48,-135.21 141.53,-145.39 148.51,-145.01"/>
</g>
<!-- Node5 -->
<g id="node5" class="node">
<title>Node5</title>
<g id="a_node5"><a xlink:title=" ">
<polygon fill="none" stroke="#bfbfbf" points="28,-114.5 28,-134.5 92,-134.5 92,-114.5 28,-114.5"/>
<text text-anchor="middle" x="60" y="-121" font-family="Helvetica,sans-Serif" font-size="10.00">Windows.h</text>
</a>
</g>
</g>
<!-- Node3&#45;&gt;Node5 -->
<g id="edge4" class="edge">
<title>Node3&#45;&gt;Node5</title>
<path fill="none" stroke="midnightblue" d="M133.02,-171.66C119.66,-163.21 99.25,-150.31 83.41,-140.3"/>
<polygon fill="midnightblue" stroke="midnightblue" points="85.56,-136.88 75.23,-134.5 81.81,-142.8 85.56,-136.88"/>
</g>
<!-- Node7 -->
<g id="node7" class="node">
<title>Node7</title>
<g id="a_node7"><a xlink:href="_vector3_8h.html" target="_top" xlink:title=" ">
<polygon fill="none" stroke="black" points="195.88,-114.5 195.88,-134.5 316.12,-134.5 316.12,-114.5 195.88,-114.5"/>
<text text-anchor="middle" x="256" y="-121" font-family="Helvetica,sans-Serif" font-size="10.00">LinearAlgebra/Vector3.h</text>
</a>
</g>
</g>
<!-- Node6&#45;&gt;Node7 -->
<g id="edge6" class="edge">
<title>Node6&#45;&gt;Node7</title>
<path fill="none" stroke="midnightblue" d="M224.78,-171.91C229.91,-164.28 237.57,-152.9 244.01,-143.32"/>
<polygon fill="midnightblue" stroke="midnightblue" points="247.46,-145.47 250.14,-135.21 241.65,-141.56 247.46,-145.47"/>
</g>
<!-- Node8 -->
<g id="node8" class="node">
<title>Node8</title>
<g id="a_node8"><a xlink:href="_math_8h.html" target="_top" xlink:title=" ">
<polygon fill="none" stroke="black" points="348,-57.5 348,-77.5 394,-77.5 394,-57.5 348,-57.5"/>
<text text-anchor="middle" x="371" y="-64" font-family="Helvetica,sans-Serif" font-size="10.00">Math.h</text>
</a>
</g>
</g>
<!-- Node7&#45;&gt;Node8 -->
<g id="edge7" class="edge">
<title>Node7&#45;&gt;Node8</title>
<path fill="none" stroke="midnightblue" d="M274.73,-114.54C293.11,-105.75 321.38,-92.23 342.53,-82.11"/>
<polygon fill="midnightblue" stroke="midnightblue" points="343.76,-84.93 351.28,-77.46 340.74,-78.61 343.76,-84.93"/>
</g>
<!-- Node13 -->
<g id="node13" class="node">
<title>Node13</title>
<g id="a_node13"><a xlink:href="_matrix3_8h.html" target="_top" xlink:title=" ">
<polygon fill="none" stroke="black" points="227.75,-57.5 227.75,-77.5 284.25,-77.5 284.25,-57.5 227.75,-57.5"/>
<text text-anchor="middle" x="256" y="-64" font-family="Helvetica,sans-Serif" font-size="10.00">Matrix3.h</text>
</a>
</g>
</g>
<!-- Node7&#45;&gt;Node13 -->
<g id="edge13" class="edge">
<title>Node7&#45;&gt;Node13</title>
<path fill="none" stroke="midnightblue" d="M256,-114.91C256,-107.76 256,-97.32 256,-88.15"/>
<polygon fill="midnightblue" stroke="midnightblue" points="259.5,-88.21 256,-78.21 252.5,-88.21 259.5,-88.21"/>
</g>
<!-- Node14 -->
<g id="node14" class="node">
<title>Node14</title>
<g id="a_node14"><a xlink:title=" ">
<polygon fill="none" stroke="#bfbfbf" points="228.12,-0.5 228.12,-20.5 265.88,-20.5 265.88,-0.5 228.12,-0.5"/>
<text text-anchor="middle" x="247" y="-7" font-family="Helvetica,sans-Serif" font-size="10.00">array</text>
</a>
</g>
</g>
<!-- Node7&#45;&gt;Node14 -->
<g id="edge18" class="edge">
<title>Node7&#45;&gt;Node14</title>
<path fill="none" stroke="midnightblue" d="M266.73,-114.79C280.63,-102.37 302.06,-78.7 293,-57 288.08,-45.22 278.46,-34.93 269.28,-27.13"/>
<polygon fill="midnightblue" stroke="midnightblue" points="271.81,-23.88 261.79,-20.44 267.49,-29.38 271.81,-23.88"/>
</g>
<!-- Node15 -->
<g id="node15" class="node">
<title>Node15</title>
<g id="a_node15"><a xlink:title=" ">
<polygon fill="none" stroke="#bfbfbf" points="149.25,-0.5 149.25,-20.5 196.75,-20.5 196.75,-0.5 149.25,-0.5"/>
<text text-anchor="middle" x="173" y="-7" font-family="Helvetica,sans-Serif" font-size="10.00">cstddef</text>
</a>
</g>
</g>
<!-- Node7&#45;&gt;Node15 -->
<g id="edge21" class="edge">
<title>Node7&#45;&gt;Node15</title>
<path fill="none" stroke="midnightblue" d="M203.14,-114.56C181.99,-108.11 159.68,-97.03 147,-78 136.74,-62.6 147.29,-42.54 157.87,-28.5"/>
<polygon fill="midnightblue" stroke="midnightblue" points="160.99,-31.21 164.6,-21.25 155.57,-26.78 160.99,-31.21"/>
</g>
<!-- Node7&#45;&gt;Node16 -->
<g id="edge19" class="edge">
<title>Node7&#45;&gt;Node16</title>
<path fill="none" stroke="midnightblue" d="M217.68,-114.52C193.39,-107.47 162.28,-95.82 139,-78 121.96,-64.95 108.09,-44.43 99.52,-29.63"/>
<polygon fill="midnightblue" stroke="midnightblue" points="102.13,-28.13 94.24,-21.06 96,-31.51 102.13,-28.13"/>
</g>
<!-- Node17 -->
<g id="node17" class="node">
<title>Node17</title>
<g id="a_node17"><a xlink:title=" ">
<polygon fill="none" stroke="#bfbfbf" points="156.25,-57.5 156.25,-77.5 209.75,-77.5 209.75,-57.5 156.25,-57.5"/>
<text text-anchor="middle" x="183" y="-64" font-family="Helvetica,sans-Serif" font-size="10.00">compare</text>
</a>
</g>
</g>
<!-- Node7&#45;&gt;Node17 -->
<g id="edge20" class="edge">
<title>Node7&#45;&gt;Node17</title>
<path fill="none" stroke="midnightblue" d="M244.27,-114.66C233.27,-106.37 216.58,-93.8 203.4,-83.87"/>
<polygon fill="midnightblue" stroke="midnightblue" points="206.04,-80.72 195.94,-77.5 201.82,-86.31 206.04,-80.72"/>
</g>
<!-- Node8&#45;&gt;Node8 -->
<g id="edge8" class="edge">
<title>Node8&#45;&gt;Node8</title>
<path fill="none" stroke="midnightblue" d="M389.55,-77.43C401.05,-79.83 412,-76.52 412,-67.5 412,-61.44 407.06,-57.96 400.33,-57.05"/>
<polygon fill="midnightblue" stroke="midnightblue" points="400.37,-53.59 390.55,-57.57 400.71,-60.59 400.37,-53.59"/>
</g>
<!-- Node9 -->
<g id="node9" class="node">
<title>Node9</title>
<g id="a_node9"><a xlink:title=" ">
<polygon fill="none" stroke="#bfbfbf" points="283.5,-0.5 283.5,-20.5 326.5,-20.5 326.5,-0.5 283.5,-0.5"/>
<text text-anchor="middle" x="305" y="-7" font-family="Helvetica,sans-Serif" font-size="10.00">cmath</text>
</a>
</g>
</g>
<!-- Node8&#45;&gt;Node9 -->
<g id="edge9" class="edge">
<title>Node8&#45;&gt;Node9</title>
<path fill="none" stroke="midnightblue" d="M360.4,-57.66C350.64,-49.53 335.94,-37.28 324.13,-27.44"/>
<polygon fill="midnightblue" stroke="midnightblue" points="326.72,-24.21 316.8,-20.5 322.24,-29.59 326.72,-24.21"/>
</g>
<!-- Node10 -->
<g id="node10" class="node">
<title>Node10</title>
<g id="a_node10"><a xlink:title=" ">
<polygon fill="none" stroke="#bfbfbf" points="482.38,-0.5 482.38,-20.5 521.62,-20.5 521.62,-0.5 482.38,-0.5"/>
<text text-anchor="middle" x="502" y="-7" font-family="Helvetica,sans-Serif" font-size="10.00">limits</text>
</a>
</g>
</g>
<!-- Node8&#45;&gt;Node10 -->
<g id="edge10" class="edge">
<title>Node8&#45;&gt;Node10</title>
<path fill="none" stroke="midnightblue" d="M392.34,-57.54C414.06,-48.42 447.92,-34.2 472.27,-23.98"/>
<polygon fill="midnightblue" stroke="midnightblue" points="473.52,-26.83 481.38,-19.74 470.81,-20.38 473.52,-26.83"/>
</g>
<!-- Node11 -->
<g id="node11" class="node">
<title>Node11</title>
<g id="a_node11"><a xlink:title=" ">
<polygon fill="none" stroke="#bfbfbf" points="344.25,-0.5 344.25,-20.5 397.75,-20.5 397.75,-0.5 344.25,-0.5"/>
<text text-anchor="middle" x="371" y="-7" font-family="Helvetica,sans-Serif" font-size="10.00">numbers</text>
</a>
</g>
</g>
<!-- Node8&#45;&gt;Node11 -->
<g id="edge11" class="edge">
<title>Node8&#45;&gt;Node11</title>
<path fill="none" stroke="midnightblue" d="M371,-57.91C371,-50.76 371,-40.32 371,-31.15"/>
<polygon fill="midnightblue" stroke="midnightblue" points="374.5,-31.21 371,-21.21 367.5,-31.21 374.5,-31.21"/>
</g>
<!-- Node12 -->
<g id="node12" class="node">
<title>Node12</title>
<g id="a_node12"><a xlink:title=" ">
<polygon fill="none" stroke="#bfbfbf" points="415.88,-0.5 415.88,-20.5 464.12,-20.5 464.12,-0.5 415.88,-0.5"/>
<text text-anchor="middle" x="440" y="-7" font-family="Helvetica,sans-Serif" font-size="10.00">random</text>
</a>
</g>
</g>
<!-- Node8&#45;&gt;Node12 -->
<g id="edge12" class="edge">
<title>Node8&#45;&gt;Node12</title>
<path fill="none" stroke="midnightblue" d="M382.09,-57.66C392.39,-49.45 407.96,-37.04 420.36,-27.15"/>
<polygon fill="midnightblue" stroke="midnightblue" points="422.07,-29.47 427.71,-20.5 417.71,-23.99 422.07,-29.47"/>
</g>
<!-- Node13&#45;&gt;Node9 -->
<g id="edge15" class="edge">
<title>Node13&#45;&gt;Node9</title>
<path fill="none" stroke="midnightblue" d="M263.66,-57.91C270.66,-50.04 281.23,-38.18 289.93,-28.42"/>
<polygon fill="midnightblue" stroke="midnightblue" points="292.2,-31.01 296.24,-21.21 286.97,-26.35 292.2,-31.01"/>
</g>
<!-- Node13&#45;&gt;Node14 -->
<g id="edge14" class="edge">
<title>Node13&#45;&gt;Node14</title>
<path fill="none" stroke="midnightblue" d="M254.59,-57.91C253.41,-50.68 251.68,-40.09 250.17,-30.85"/>
<polygon fill="midnightblue" stroke="midnightblue" points="253.5,-30.52 248.43,-21.21 246.59,-31.65 253.5,-30.52"/>
</g>
<!-- Node13&#45;&gt;Node15 -->
<g id="edge16" class="edge">
<title>Node13&#45;&gt;Node15</title>
<path fill="none" stroke="midnightblue" d="M242.66,-57.66C229.91,-49.21 210.45,-36.31 195.33,-26.3"/>
<polygon fill="midnightblue" stroke="midnightblue" points="197.85,-23.1 187.58,-20.5 193.98,-28.94 197.85,-23.1"/>
</g>
<!-- Node13&#45;&gt;Node16 -->
<g id="edge17" class="edge">
<title>Node13&#45;&gt;Node16</title>
<path fill="none" stroke="midnightblue" d="M228.96,-57.54C201.18,-48.34 157.75,-33.95 126.84,-23.71"/>
<polygon fill="midnightblue" stroke="midnightblue" points="128.07,-20.1 117.48,-20.27 125.87,-26.74 128.07,-20.1"/>
</g>
<!-- Node18&#45;&gt;Node19 -->
<g id="edge23" class="edge">
<title>Node18&#45;&gt;Node19</title>
<path fill="none" stroke="midnightblue" d="M350.62,-171.91C351.14,-164.76 351.9,-154.32 352.57,-145.15"/>
<polygon fill="midnightblue" stroke="midnightblue" points="356.13,-145.44 353.37,-135.21 349.15,-144.93 356.13,-145.44"/>
</g>
</g>
</svg>
