<?xml version="1.0" encoding="UTF-8" standalone="no"?>
<!DOCTYPE svg PUBLIC "-//W3C//DTD SVG 1.1//EN"
 "http://www.w3.org/Graphics/SVG/1.1/DTD/svg11.dtd">
<!-- Generated by graphviz version 8.1.0 (20230707.0739)
 -->
<!-- Title: include/Surface.h Pages: 1 -->
<svg width="491pt" height="143pt"
 viewBox="0.00 0.00 491.12 143.00" xmlns="http://www.w3.org/2000/svg" xmlns:xlink="http://www.w3.org/1999/xlink">
<g id="graph0" class="graph" transform="scale(1 1) rotate(0) translate(4 139)">
<title>include/Surface.h</title>
<!-- Node1 -->
<g id="node1" class="node">
<title>Node1</title>
<g id="a_node1"><a xlink:title=" ">
<polygon fill="#bfbfbf" stroke="black" points="210.5,-114.5 210.5,-134.5 301.5,-134.5 301.5,-114.5 210.5,-114.5"/>
<text text-anchor="middle" x="256" y="-121" font-family="Helvetica,sans-Serif" font-size="10.00">include/Surface.h</text>
</a>
</g>
</g>
<!-- Node2 -->
<g id="node2" class="node">
<title>Node2</title>
<g id="a_node2"><a xlink:href="_colors_8h.html" target="_top" xlink:title=" ">
<polygon fill="none" stroke="black" points="0,-57.5 0,-77.5 52,-77.5 52,-57.5 0,-57.5"/>
<text text-anchor="middle" x="26" y="-64" font-family="Helvetica,sans-Serif" font-size="10.00">Colors.h</text>
</a>
</g>
</g>
<!-- Node1&#45;&gt;Node2 -->
<g id="edge1" class="edge">
<title>Node1&#45;&gt;Node2</title>
<path fill="none" stroke="midnightblue" d="M215.56,-114.51C178.29,-106.12 121.19,-93.03 62.54,-78.32"/>
<polygon fill="midnightblue" stroke="midnightblue" points="63.52,-74.71 52.97,-75.66 61.81,-81.5 63.52,-74.71"/>
</g>
<!-- Node3 -->
<g id="node3" class="node">
<title>Node3</title>
<g id="a_node3"><a xlink:href="_win_8h.html" target="_top" xlink:title=" ">
<polygon fill="none" stroke="black" points="70.25,-57.5 70.25,-77.5 111.75,-77.5 111.75,-57.5 70.25,-57.5"/>
<text text-anchor="middle" x="91" y="-64" font-family="Helvetica,sans-Serif" font-size="10.00">Win.h</text>
</a>
</g>
</g>
<!-- Node1&#45;&gt;Node3 -->
<g id="edge2" class="edge">
<title>Node1&#45;&gt;Node3</title>
<path fill="none" stroke="midnightblue" d="M229.12,-114.54C199.72,-104.74 152.66,-89.05 121.79,-78.76"/>
<polygon fill="midnightblue" stroke="midnightblue" points="123.19,-75.21 112.6,-75.37 120.98,-81.85 123.19,-75.21"/>
</g>
<!-- Node6 -->
<g id="node6" class="node">
<title>Node6</title>
<g id="a_node6"><a xlink:href="_engine_exception_8h.html" target="_top" xlink:title=" ">
<polygon fill="none" stroke="black" points="130.12,-57.5 130.12,-77.5 227.88,-77.5 227.88,-57.5 130.12,-57.5"/>
<text text-anchor="middle" x="179" y="-64" font-family="Helvetica,sans-Serif" font-size="10.00">EngineException.h</text>
</a>
</g>
</g>
<!-- Node1&#45;&gt;Node6 -->
<g id="edge5" class="edge">
<title>Node1&#45;&gt;Node6</title>
<path fill="none" stroke="midnightblue" d="M243.63,-114.66C232.02,-106.37 214.42,-93.8 200.51,-83.87"/>
<polygon fill="midnightblue" stroke="midnightblue" points="202.77,-80.46 192.6,-77.5 198.7,-86.16 202.77,-80.46"/>
</g>
<!-- Node7 -->
<g id="node7" class="node">
<title>Node7</title>
<g id="a_node7"><a xlink:title=" ">
<polygon fill="none" stroke="#bfbfbf" points="195,-0.5 195,-20.5 235,-20.5 235,-0.5 195,-0.5"/>
<text text-anchor="middle" x="215" y="-7" font-family="Helvetica,sans-Serif" font-size="10.00">string</text>
</a>
</g>
</g>
<!-- Node1&#45;&gt;Node7 -->
<g id="edge9" class="edge">
<title>Node1&#45;&gt;Node7</title>
<path fill="none" stroke="midnightblue" d="M254.01,-114.74C250.97,-101.87 244.7,-77.19 237,-57 233.52,-47.88 228.91,-38.09 224.81,-29.94"/>
<polygon fill="midnightblue" stroke="midnightblue" points="227.56,-28.63 219.85,-21.36 221.34,-31.85 227.56,-28.63"/>
</g>
<!-- Node8 -->
<g id="node8" class="node">
<title>Node8</title>
<g id="a_node8"><a xlink:title=" ">
<polygon fill="none" stroke="#bfbfbf" points="284.38,-57.5 284.38,-77.5 335.62,-77.5 335.62,-57.5 284.38,-57.5"/>
<text text-anchor="middle" x="310" y="-64" font-family="Helvetica,sans-Serif" font-size="10.00">assert.h</text>
</a>
</g>
</g>
<!-- Node1&#45;&gt;Node8 -->
<g id="edge7" class="edge">
<title>Node1&#45;&gt;Node8</title>
<path fill="none" stroke="midnightblue" d="M264.44,-114.91C272.32,-106.88 284.28,-94.69 293.98,-84.82"/>
<polygon fill="midnightblue" stroke="midnightblue" points="295.94,-87.8 300.44,-78.21 290.94,-82.9 295.94,-87.8"/>
</g>
<!-- Node9 -->
<g id="node9" class="node">
<title>Node9</title>
<g id="a_node9"><a xlink:title=" ">
<polygon fill="none" stroke="#bfbfbf" points="353.38,-57.5 353.38,-77.5 404.62,-77.5 404.62,-57.5 353.38,-57.5"/>
<text text-anchor="middle" x="379" y="-64" font-family="Helvetica,sans-Serif" font-size="10.00">memory</text>
</a>
</g>
</g>
<!-- Node1&#45;&gt;Node9 -->
<g id="edge8" class="edge">
<title>Node1&#45;&gt;Node9</title>
<path fill="none" stroke="midnightblue" d="M276.04,-114.54C295.87,-105.67 326.48,-91.99 349.17,-81.84"/>
<polygon fill="midnightblue" stroke="midnightblue" points="350.27,-84.73 357.97,-77.46 347.42,-78.34 350.27,-84.73"/>
</g>
<!-- Node10 -->
<g id="node10" class="node">
<title>Node10</title>
<g id="a_node10"><a xlink:title=" ">
<polygon fill="none" stroke="#bfbfbf" points="422.88,-57.5 422.88,-77.5 483.12,-77.5 483.12,-57.5 422.88,-57.5"/>
<text text-anchor="middle" x="453" y="-64" font-family="Helvetica,sans-Serif" font-size="10.00">filesystem</text>
</a>
</g>
</g>
<!-- Node1&#45;&gt;Node10 -->
<g id="edge10" class="edge">
<title>Node1&#45;&gt;Node10</title>
<path fill="none" stroke="midnightblue" d="M288.09,-114.54C322.13,-105.04 375.97,-90.01 412.81,-79.72"/>
<polygon fill="midnightblue" stroke="midnightblue" points="413.49,-82.88 422.18,-76.82 411.61,-76.14 413.49,-82.88"/>
</g>
<!-- Node4 -->
<g id="node4" class="node">
<title>Node4</title>
<g id="a_node4"><a xlink:title=" ">
<polygon fill="none" stroke="#bfbfbf" points="22.12,-0.5 22.12,-20.5 89.88,-20.5 89.88,-0.5 22.12,-0.5"/>
<text text-anchor="middle" x="56" y="-7" font-family="Helvetica,sans-Serif" font-size="10.00">sdkddkver.h</text>
</a>
</g>
</g>
<!-- Node3&#45;&gt;Node4 -->
<g id="edge3" class="edge">
<title>Node3&#45;&gt;Node4</title>
<path fill="none" stroke="midnightblue" d="M85.53,-57.91C80.68,-50.28 73.44,-38.9 67.34,-29.32"/>
<polygon fill="midnightblue" stroke="midnightblue" points="69.87,-27.77 61.55,-21.21 63.96,-31.53 69.87,-27.77"/>
</g>
<!-- Node5 -->
<g id="node5" class="node">
<title>Node5</title>
<g id="a_node5"><a xlink:title=" ">
<polygon fill="none" stroke="#bfbfbf" points="108,-0.5 108,-20.5 172,-20.5 172,-0.5 108,-0.5"/>
<text text-anchor="middle" x="140" y="-7" font-family="Helvetica,sans-Serif" font-size="10.00">Windows.h</text>
</a>
</g>
</g>
<!-- Node3&#45;&gt;Node5 -->
<g id="edge4" class="edge">
<title>Node3&#45;&gt;Node5</title>
<path fill="none" stroke="midnightblue" d="M98.66,-57.91C105.66,-50.04 116.23,-38.18 124.93,-28.42"/>
<polygon fill="midnightblue" stroke="midnightblue" points="127.2,-31.01 131.24,-21.21 121.97,-26.35 127.2,-31.01"/>
</g>
<!-- Node6&#45;&gt;Node7 -->
<g id="edge6" class="edge">
<title>Node6&#45;&gt;Node7</title>
<path fill="none" stroke="midnightblue" d="M184.62,-57.91C189.62,-50.28 197.06,-38.9 203.34,-29.32"/>
<polygon fill="midnightblue" stroke="midnightblue" points="206.75,-31.5 209.3,-21.21 200.89,-27.67 206.75,-31.5"/>
</g>
</g>
</svg>
