<?xml version="1.0" encoding="UTF-8" standalone="no"?>
<!DOCTYPE svg PUBLIC "-//W3C//DTD SVG 1.1//EN"
 "http://www.w3.org/Graphics/SVG/1.1/DTD/svg11.dtd">
<!-- Generated by graphviz version 8.1.0 (20230707.0739)
 -->
<!-- Title: include/Surface.h Pages: 1 -->
<svg width="1352pt" height="395pt"
 viewBox="0.00 0.00 1352.00 395.00" xmlns="http://www.w3.org/2000/svg" xmlns:xlink="http://www.w3.org/1999/xlink">
<g id="graph0" class="graph" transform="scale(1 1) rotate(0) translate(4 391)">
<title>include/Surface.h</title>
<!-- Node1 -->
<g id="node1" class="node">
<title>Node1</title>
<g id="a_node1"><a xlink:title=" ">
<polygon fill="#bfbfbf" stroke="black" points="256.62,-366.5 256.62,-386.5 347.62,-386.5 347.62,-366.5 256.62,-366.5"/>
<text text-anchor="middle" x="302.12" y="-373" font-family="Helvetica,sans-Serif" font-size="10.00">include/Surface.h</text>
</a>
</g>
</g>
<!-- Node2 -->
<g id="node2" class="node">
<title>Node2</title>
<g id="a_node2"><a xlink:href="_graphics_8h.html" target="_top" xlink:title=" ">
<polygon fill="none" stroke="black" points="199.62,-309.5 199.62,-329.5 296.62,-329.5 296.62,-309.5 199.62,-309.5"/>
<text text-anchor="middle" x="248.12" y="-316" font-family="Helvetica,sans-Serif" font-size="10.00">include/Graphics.h</text>
</a>
</g>
</g>
<!-- Node1&#45;&gt;Node2 -->
<g id="edge1" class="edge">
<title>Node1&#45;&gt;Node2</title>
<path fill="none" stroke="midnightblue" d="M286.25,-359.33C276.58,-349.48 264.6,-337.28 256.68,-329.21"/>
<polygon fill="midnightblue" stroke="midnightblue" points="283.18,-361.22 292.69,-365.91 288.18,-356.32 283.18,-361.22"/>
</g>
<!-- Node23 -->
<g id="node23" class="node">
<title>Node23</title>
<g id="a_node23"><a xlink:href="_surface_8cpp.html" target="_top" xlink:title=" ">
<polygon fill="none" stroke="black" points="315,-309.5 315,-329.5 399.25,-329.5 399.25,-309.5 315,-309.5"/>
<text text-anchor="middle" x="357.12" y="-316" font-family="Helvetica,sans-Serif" font-size="10.00">src/Surface.cpp</text>
</a>
</g>
</g>
<!-- Node1&#45;&gt;Node23 -->
<g id="edge46" class="edge">
<title>Node1&#45;&gt;Node23</title>
<path fill="none" stroke="midnightblue" d="M318.3,-359.33C328.15,-349.48 340.34,-337.28 348.41,-329.21"/>
<polygon fill="midnightblue" stroke="midnightblue" points="316.31,-356.36 311.72,-365.91 321.26,-361.31 316.31,-356.36"/>
</g>
<!-- Node3 -->
<g id="node3" class="node">
<title>Node3</title>
<g id="a_node3"><a xlink:href="_engine_8h.html" target="_top" xlink:title=" ">
<polygon fill="none" stroke="black" points="240.12,-63.5 240.12,-83.5 328.12,-83.5 328.12,-63.5 240.12,-63.5"/>
<text text-anchor="middle" x="284.12" y="-70" font-family="Helvetica,sans-Serif" font-size="10.00">include/Engine.h</text>
</a>
</g>
</g>
<!-- Node2&#45;&gt;Node3 -->
<g id="edge2" class="edge">
<title>Node2&#45;&gt;Node3</title>
<path fill="none" stroke="midnightblue" d="M251.01,-298.92C258.38,-249 277.65,-118.41 282.83,-83.3"/>
<polygon fill="midnightblue" stroke="midnightblue" points="247.45,-298.12 249.45,-308.53 254.37,-299.14 247.45,-298.12"/>
</g>
<!-- Node6 -->
<g id="node6" class="node">
<title>Node6</title>
<g id="a_node6"><a xlink:href="_main_window_8cpp.html" target="_top" xlink:title=" ">
<polygon fill="none" stroke="black" points="111.75,-0.5 111.75,-20.5 218.5,-20.5 218.5,-0.5 111.75,-0.5"/>
<text text-anchor="middle" x="165.12" y="-7" font-family="Helvetica,sans-Serif" font-size="10.00">src/MainWindow.cpp</text>
</a>
</g>
</g>
<!-- Node2&#45;&gt;Node6 -->
<g id="edge45" class="edge">
<title>Node2&#45;&gt;Node6</title>
<path fill="none" stroke="midnightblue" d="M194.76,-306.66C145.57,-292.23 80.12,-262.51 80.12,-206.5 80.12,-206.5 80.12,-206.5 80.12,-141.5 80.12,-103.01 77.57,-88.9 99.12,-57 110.34,-40.39 129.83,-28.07 144.72,-20.47"/>
<polygon fill="midnightblue" stroke="midnightblue" points="193.72,-310.29 204.3,-309.6 195.6,-303.54 193.72,-310.29"/>
</g>
<!-- Node7 -->
<g id="node7" class="node">
<title>Node7</title>
<g id="a_node7"><a xlink:href="_main_window_8h.html" target="_top" xlink:title=" ">
<polygon fill="none" stroke="black" points="108.38,-63.5 108.38,-83.5 221.88,-83.5 221.88,-63.5 108.38,-63.5"/>
<text text-anchor="middle" x="165.12" y="-70" font-family="Helvetica,sans-Serif" font-size="10.00">include/MainWindow.h</text>
</a>
</g>
</g>
<!-- Node2&#45;&gt;Node7 -->
<g id="edge6" class="edge">
<title>Node2&#45;&gt;Node7</title>
<path fill="none" stroke="midnightblue" d="M241.57,-299.24C224.67,-249.55 180.09,-118.48 168.12,-83.3"/>
<polygon fill="midnightblue" stroke="midnightblue" points="238.54,-300.19 245.07,-308.53 245.17,-297.93 238.54,-300.19"/>
</g>
<!-- Node8 -->
<g id="node8" class="node">
<title>Node8</title>
<g id="a_node8"><a xlink:href="_graphics_8cpp.html" target="_top" xlink:title=" ">
<polygon fill="none" stroke="black" points="0,-0.5 0,-20.5 90.25,-20.5 90.25,-0.5 0,-0.5"/>
<text text-anchor="middle" x="45.12" y="-7" font-family="Helvetica,sans-Serif" font-size="10.00">src/Graphics.cpp</text>
</a>
</g>
</g>
<!-- Node2&#45;&gt;Node8 -->
<g id="edge44" class="edge">
<title>Node2&#45;&gt;Node8</title>
<path fill="none" stroke="midnightblue" d="M189.16,-311.68C128.28,-300.96 42.12,-273.9 42.12,-206.5 42.12,-206.5 42.12,-206.5 42.12,-141.5 42.12,-95.9 43.99,-41.32 44.78,-20.33"/>
<polygon fill="midnightblue" stroke="midnightblue" points="188.39,-315.26 198.83,-313.43 189.53,-308.35 188.39,-315.26"/>
</g>
<!-- Node9 -->
<g id="node9" class="node">
<title>Node9</title>
<g id="a_node9"><a xlink:href="_pipeline_8h.html" target="_top" xlink:title=" ">
<polygon fill="none" stroke="black" points="747.88,-195.5 747.88,-215.5 840.38,-215.5 840.38,-195.5 747.88,-195.5"/>
<text text-anchor="middle" x="794.12" y="-202" font-family="Helvetica,sans-Serif" font-size="10.00">include/Pipeline.h</text>
</a>
</g>
</g>
<!-- Node2&#45;&gt;Node9 -->
<g id="edge11" class="edge">
<title>Node2&#45;&gt;Node9</title>
<path fill="none" stroke="midnightblue" d="M307.1,-308.99C465.34,-289.39 512.09,-316.24 661.12,-273 707.49,-259.55 757.08,-230.27 780.45,-215.46"/>
<polygon fill="midnightblue" stroke="midnightblue" points="306.99,-305.6 297.51,-310.35 307.88,-312.54 306.99,-305.6"/>
</g>
<!-- Node21 -->
<g id="node21" class="node">
<title>Node21</title>
<g id="a_node21"><a xlink:href="_pube_screen_transformer_8h.html" target="_top" xlink:title=" ">
<polygon fill="none" stroke="black" points="490,-252.5 490,-272.5 652.25,-272.5 652.25,-252.5 490,-252.5"/>
<text text-anchor="middle" x="571.12" y="-259" font-family="Helvetica,sans-Serif" font-size="10.00">include/PubeScreenTransformer.h</text>
</a>
</g>
</g>
<!-- Node2&#45;&gt;Node21 -->
<g id="edge34" class="edge">
<title>Node2&#45;&gt;Node21</title>
<path fill="none" stroke="midnightblue" d="M306.99,-308.48C367.35,-298.2 460.39,-282.36 518.41,-272.48"/>
<polygon fill="midnightblue" stroke="midnightblue" points="306.75,-305.14 297.48,-310.27 307.93,-312.04 306.75,-305.14"/>
</g>
<!-- Node22 -->
<g id="node22" class="node">
<title>Node22</title>
<g id="a_node22"><a xlink:href="_scene_8h.html" target="_top" xlink:title=" ">
<polygon fill="none" stroke="black" points="632.25,-132.5 632.25,-152.5 718,-152.5 718,-132.5 632.25,-132.5"/>
<text text-anchor="middle" x="675.12" y="-139" font-family="Helvetica,sans-Serif" font-size="10.00">include/Scene.h</text>
</a>
</g>
</g>
<!-- Node2&#45;&gt;Node22 -->
<g id="edge36" class="edge">
<title>Node2&#45;&gt;Node22</title>
<path fill="none" stroke="midnightblue" d="M279.96,-305.45C362.76,-271.52 583.3,-181.13 653.41,-152.4"/>
<polygon fill="midnightblue" stroke="midnightblue" points="278.81,-302.55 270.89,-309.58 281.47,-309.03 278.81,-302.55"/>
</g>
<!-- Node4 -->
<g id="node4" class="node">
<title>Node4</title>
<g id="a_node4"><a xlink:href="_engine_8cpp.html" target="_top" xlink:title=" ">
<polygon fill="none" stroke="black" points="605.5,-0.5 605.5,-20.5 686.75,-20.5 686.75,-0.5 605.5,-0.5"/>
<text text-anchor="middle" x="646.12" y="-7" font-family="Helvetica,sans-Serif" font-size="10.00">src/Engine.cpp</text>
</a>
</g>
</g>
<!-- Node3&#45;&gt;Node4 -->
<g id="edge3" class="edge">
<title>Node3&#45;&gt;Node4</title>
<path fill="none" stroke="midnightblue" d="M322.5,-60.6C327.4,-59.28 332.36,-58.04 337.12,-57 432.47,-36.14 546.5,-22.12 605.8,-15.63"/>
<polygon fill="midnightblue" stroke="midnightblue" points="321.67,-57.48 312.99,-63.56 323.57,-64.22 321.67,-57.48"/>
</g>
<!-- Node5 -->
<g id="node5" class="node">
<title>Node5</title>
<g id="a_node5"><a xlink:href="_main_8cpp.html" target="_top" xlink:title=" ">
<polygon fill="none" stroke="black" points="243,-0.5 243,-20.5 315.25,-20.5 315.25,-0.5 243,-0.5"/>
<text text-anchor="middle" x="279.12" y="-7" font-family="Helvetica,sans-Serif" font-size="10.00">src/Main.cpp</text>
</a>
</g>
</g>
<!-- Node3&#45;&gt;Node5 -->
<g id="edge4" class="edge">
<title>Node3&#45;&gt;Node5</title>
<path fill="none" stroke="midnightblue" d="M282.53,-52.99C281.62,-41.97 280.54,-28.73 279.84,-20.22"/>
<polygon fill="midnightblue" stroke="midnightblue" points="279.1,-53.08 283.41,-62.76 286.08,-52.51 279.1,-53.08"/>
</g>
<!-- Node3&#45;&gt;Node6 -->
<g id="edge5" class="edge">
<title>Node3&#45;&gt;Node6</title>
<path fill="none" stroke="midnightblue" d="M257.34,-58.77C234.42,-47.02 202.11,-30.46 182.45,-20.38"/>
<polygon fill="midnightblue" stroke="midnightblue" points="255.33,-62.18 265.82,-63.63 258.52,-55.95 255.33,-62.18"/>
</g>
<!-- Node7&#45;&gt;Node4 -->
<g id="edge7" class="edge">
<title>Node7&#45;&gt;Node4</title>
<path fill="none" stroke="midnightblue" d="M210.28,-61.13C217.23,-59.6 224.35,-58.16 231.12,-57 367.39,-33.62 531,-19.82 605.54,-14.3"/>
<polygon fill="midnightblue" stroke="midnightblue" points="209.53,-57.94 200.56,-63.58 211.09,-64.76 209.53,-57.94"/>
</g>
<!-- Node7&#45;&gt;Node5 -->
<g id="edge9" class="edge">
<title>Node7&#45;&gt;Node5</title>
<path fill="none" stroke="midnightblue" d="M191.12,-58.59C213.02,-46.87 243.7,-30.45 262.45,-20.42"/>
<polygon fill="midnightblue" stroke="midnightblue" points="189.62,-55.96 182.46,-63.76 192.93,-62.13 189.62,-55.96"/>
</g>
<!-- Node7&#45;&gt;Node6 -->
<g id="edge10" class="edge">
<title>Node7&#45;&gt;Node6</title>
<path fill="none" stroke="midnightblue" d="M165.12,-52.99C165.12,-41.97 165.12,-28.73 165.12,-20.22"/>
<polygon fill="midnightblue" stroke="midnightblue" points="161.63,-52.76 165.12,-62.76 168.63,-52.76 161.63,-52.76"/>
</g>
<!-- Node7&#45;&gt;Node8 -->
<g id="edge8" class="edge">
<title>Node7&#45;&gt;Node8</title>
<path fill="none" stroke="midnightblue" d="M138.11,-58.77C115,-47.02 82.42,-30.46 62.6,-20.38"/>
<polygon fill="midnightblue" stroke="midnightblue" points="136.18,-62.22 146.68,-63.63 139.35,-55.98 136.18,-62.22"/>
</g>
<!-- Node10 -->
<g id="node10" class="node">
<title>Node10</title>
<g id="a_node10"><a xlink:href="_solid_effect_8h.html" target="_top" xlink:title=" ">
<polygon fill="none" stroke="black" points="774.38,-132.5 774.38,-152.5 911.88,-152.5 911.88,-132.5 774.38,-132.5"/>
<text text-anchor="middle" x="843.12" y="-139" font-family="Helvetica,sans-Serif" font-size="10.00">include/Effects/SolidEffect.h</text>
</a>
</g>
</g>
<!-- Node9&#45;&gt;Node10 -->
<g id="edge12" class="edge">
<title>Node9&#45;&gt;Node10</title>
<path fill="none" stroke="midnightblue" d="M807.85,-187.42C817.04,-175.97 828.77,-161.37 836.12,-152.22"/>
<polygon fill="midnightblue" stroke="midnightblue" points="804.68,-184.77 801.15,-194.76 810.14,-189.16 804.68,-184.77"/>
</g>
<!-- Node11 -->
<g id="node11" class="node">
<title>Node11</title>
<g id="a_node11"><a xlink:href="_cube_solid_scene_8h.html" target="_top" xlink:title=" ">
<polygon fill="none" stroke="black" points="657.12,-57.5 657.12,-89.5 787.12,-89.5 787.12,-57.5 657.12,-57.5"/>
<text text-anchor="start" x="665.12" y="-76" font-family="Helvetica,sans-Serif" font-size="10.00">include/Scenes/CubeSolid</text>
<text text-anchor="middle" x="722.12" y="-64" font-family="Helvetica,sans-Serif" font-size="10.00">Scene.h</text>
</a>
</g>
</g>
<!-- Node9&#45;&gt;Node11 -->
<g id="edge30" class="edge">
<title>Node9&#45;&gt;Node11</title>
<path fill="none" stroke="midnightblue" d="M782.11,-186.54C776.73,-178.27 770.41,-168.25 765.12,-159 751.49,-135.13 737.34,-106.45 729.16,-89.38"/>
<polygon fill="midnightblue" stroke="midnightblue" points="779.66,-188.17 788.09,-194.59 785.5,-184.32 779.66,-188.17"/>
</g>
<!-- Node12 -->
<g id="node12" class="node">
<title>Node12</title>
<g id="a_node12"><a xlink:href="_double_cube_scene_8h.html" target="_top" xlink:title=" ">
<polygon fill="none" stroke="black" points="805,-57.5 805,-89.5 943.25,-89.5 943.25,-57.5 805,-57.5"/>
<text text-anchor="start" x="813" y="-76" font-family="Helvetica,sans-Serif" font-size="10.00">include/Scenes/DoubleCube</text>
<text text-anchor="middle" x="874.12" y="-64" font-family="Helvetica,sans-Serif" font-size="10.00">Scene.h</text>
</a>
</g>
</g>
<!-- Node9&#45;&gt;Node12 -->
<g id="edge33" class="edge">
<title>Node9&#45;&gt;Node12</title>
<path fill="none" stroke="midnightblue" d="M850.75,-198.89C876.68,-193.16 905.13,-181.72 921.12,-159 937.36,-135.94 912.04,-106.75 892.72,-89.42"/>
<polygon fill="midnightblue" stroke="midnightblue" points="850.37,-195.59 841.22,-200.94 851.71,-202.46 850.37,-195.59"/>
</g>
<!-- Node13 -->
<g id="node13" class="node">
<title>Node13</title>
<g id="a_node13"><a xlink:href="_texture_effect_8h.html" target="_top" xlink:title=" ">
<polygon fill="none" stroke="black" points="1006.12,-132.5 1006.12,-152.5 1154.12,-152.5 1154.12,-132.5 1006.12,-132.5"/>
<text text-anchor="middle" x="1080.12" y="-139" font-family="Helvetica,sans-Serif" font-size="10.00">include/Effects/TextureEffect.h</text>
</a>
</g>
</g>
<!-- Node9&#45;&gt;Node13 -->
<g id="edge17" class="edge">
<title>Node9&#45;&gt;Node13</title>
<path fill="none" stroke="midnightblue" d="M846.62,-193.3C901.73,-181.55 987.3,-163.3 1038.12,-152.46"/>
<polygon fill="midnightblue" stroke="midnightblue" points="846.07,-190.06 837.02,-195.56 847.53,-196.9 846.07,-190.06"/>
</g>
<!-- Node14 -->
<g id="node14" class="node">
<title>Node14</title>
<g id="a_node14"><a xlink:href="_cube_skin_scene_8h.html" target="_top" xlink:title=" ">
<polygon fill="none" stroke="black" points="961.25,-63.5 961.25,-83.5 1125,-83.5 1125,-63.5 961.25,-63.5"/>
<text text-anchor="middle" x="1043.12" y="-70" font-family="Helvetica,sans-Serif" font-size="10.00">include/Scenes/CubeSkinScene.h</text>
</a>
</g>
</g>
<!-- Node9&#45;&gt;Node14 -->
<g id="edge29" class="edge">
<title>Node9&#45;&gt;Node14</title>
<path fill="none" stroke="midnightblue" d="M846.15,-192.85C874.11,-185.4 908.6,-174.24 937.12,-159 977.19,-137.6 1017.09,-100.44 1034.31,-83.45"/>
<polygon fill="midnightblue" stroke="midnightblue" points="845.59,-189.64 836.78,-195.52 847.34,-196.41 845.59,-189.64"/>
</g>
<!-- Node15 -->
<g id="node15" class="node">
<title>Node15</title>
<g id="a_node15"><a xlink:href="_vertex_color_effect_8h.html" target="_top" xlink:title=" ">
<polygon fill="none" stroke="black" points="1210.25,-126.5 1210.25,-158.5 1344,-158.5 1344,-126.5 1210.25,-126.5"/>
<text text-anchor="start" x="1218.25" y="-145" font-family="Helvetica,sans-Serif" font-size="10.00">include/Effects/VertexColor</text>
<text text-anchor="middle" x="1277.12" y="-133" font-family="Helvetica,sans-Serif" font-size="10.00">Effect.h</text>
</a>
</g>
</g>
<!-- Node9&#45;&gt;Node15 -->
<g id="edge20" class="edge">
<title>Node9&#45;&gt;Node15</title>
<path fill="none" stroke="midnightblue" d="M850.64,-199.48C928.6,-192.23 1073.43,-177.65 1196.12,-159 1200.8,-158.29 1205.61,-157.51 1210.45,-156.68"/>
<polygon fill="midnightblue" stroke="midnightblue" points="850.73,-196.05 841.09,-200.45 851.37,-203.02 850.73,-196.05"/>
</g>
<!-- Node16 -->
<g id="node16" class="node">
<title>Node16</title>
<g id="a_node16"><a xlink:href="_cube_vertex_color_scene_8h.html" target="_top" xlink:title=" ">
<polygon fill="none" stroke="black" points="1142.75,-57.5 1142.75,-89.5 1279.5,-89.5 1279.5,-57.5 1142.75,-57.5"/>
<text text-anchor="start" x="1150.75" y="-76" font-family="Helvetica,sans-Serif" font-size="10.00">include/Scenes/CubeVertex</text>
<text text-anchor="middle" x="1211.12" y="-64" font-family="Helvetica,sans-Serif" font-size="10.00">ColorScene.h</text>
</a>
</g>
</g>
<!-- Node9&#45;&gt;Node16 -->
<g id="edge31" class="edge">
<title>Node9&#45;&gt;Node16</title>
<path fill="none" stroke="midnightblue" d="M850.97,-203.62C941.48,-201.22 1113.26,-192.28 1163.12,-159 1187.82,-142.52 1201.25,-108.76 1207.23,-89.27"/>
<polygon fill="midnightblue" stroke="midnightblue" points="850.99,-200.14 841.08,-203.89 851.16,-207.14 850.99,-200.14"/>
</g>
<!-- Node17 -->
<g id="node17" class="node">
<title>Node17</title>
<g id="a_node17"><a xlink:href="_vertex_position_color_effect_8h.html" target="_top" xlink:title=" ">
<polygon fill="none" stroke="black" points="313.88,-126.5 313.88,-158.5 460.38,-158.5 460.38,-126.5 313.88,-126.5"/>
<text text-anchor="start" x="321.88" y="-145" font-family="Helvetica,sans-Serif" font-size="10.00">include/Effects/VertexPosition</text>
<text text-anchor="middle" x="387.12" y="-133" font-family="Helvetica,sans-Serif" font-size="10.00">ColorEffect.h</text>
</a>
</g>
</g>
<!-- Node9&#45;&gt;Node17 -->
<g id="edge23" class="edge">
<title>Node9&#45;&gt;Node17</title>
<path fill="none" stroke="midnightblue" d="M737.18,-197.36C672.2,-189.03 562.79,-174.4 469.12,-159 466.12,-158.51 463.06,-157.99 459.97,-157.46"/>
<polygon fill="midnightblue" stroke="midnightblue" points="736.64,-200.95 747,-198.75 737.53,-194.01 736.64,-200.95"/>
</g>
<!-- Node18 -->
<g id="node18" class="node">
<title>Node18</title>
<g id="a_node18"><a xlink:href="_cube_vertex_position_color_scene_8h.html" target="_top" xlink:title=" ">
<polygon fill="none" stroke="black" points="345.75,-57.5 345.75,-89.5 482.5,-89.5 482.5,-57.5 345.75,-57.5"/>
<text text-anchor="start" x="353.75" y="-76" font-family="Helvetica,sans-Serif" font-size="10.00">include/Scenes/CubeVertex</text>
<text text-anchor="middle" x="414.12" y="-64" font-family="Helvetica,sans-Serif" font-size="10.00">PositionColorScene.h</text>
</a>
</g>
</g>
<!-- Node9&#45;&gt;Node18 -->
<g id="edge32" class="edge">
<title>Node9&#45;&gt;Node18</title>
<path fill="none" stroke="midnightblue" d="M737.33,-203.42C614.68,-200.5 333.76,-190.43 305.12,-159 295.25,-148.16 297.28,-138.39 305.12,-126 316.05,-108.76 334.46,-97.18 353.07,-89.46"/>
<polygon fill="midnightblue" stroke="midnightblue" points="736.91,-206.94 746.99,-203.67 737.07,-199.94 736.91,-206.94"/>
</g>
<!-- Node19 -->
<g id="node19" class="node">
<title>Node19</title>
<g id="a_node19"><a xlink:href="_wave_vertex_texture_effect_8h.html" target="_top" xlink:title=" ">
<polygon fill="none" stroke="black" points="478.5,-126.5 478.5,-158.5 613.75,-158.5 613.75,-126.5 478.5,-126.5"/>
<text text-anchor="start" x="486.5" y="-145" font-family="Helvetica,sans-Serif" font-size="10.00">include/Effects/WaveVertex</text>
<text text-anchor="middle" x="546.12" y="-133" font-family="Helvetica,sans-Serif" font-size="10.00">TextureEffect.h</text>
</a>
</g>
</g>
<!-- Node9&#45;&gt;Node19 -->
<g id="edge26" class="edge">
<title>Node9&#45;&gt;Node19</title>
<path fill="none" stroke="midnightblue" d="M747.34,-192.99C707.62,-183.22 650.35,-169.14 607.06,-158.49"/>
<polygon fill="midnightblue" stroke="midnightblue" points="746.25,-196.57 756.8,-195.56 747.92,-189.78 746.25,-196.57"/>
</g>
<!-- Node10&#45;&gt;Node11 -->
<g id="edge13" class="edge">
<title>Node10&#45;&gt;Node11</title>
<path fill="none" stroke="midnightblue" d="M817.86,-127.51C797.73,-116.36 769.61,-100.79 749.05,-89.41"/>
<polygon fill="midnightblue" stroke="midnightblue" points="815.86,-130.96 826.31,-132.74 819.25,-124.83 815.86,-130.96"/>
</g>
<!-- Node10&#45;&gt;Node12 -->
<g id="edge15" class="edge">
<title>Node10&#45;&gt;Node12</title>
<path fill="none" stroke="midnightblue" d="M851.74,-122.87C856.63,-112.31 862.66,-99.28 867.23,-89.41"/>
<polygon fill="midnightblue" stroke="midnightblue" points="848.2,-121.2 847.18,-131.74 854.55,-124.14 848.2,-121.2"/>
</g>
<!-- Node11&#45;&gt;Node4 -->
<g id="edge14" class="edge">
<title>Node11&#45;&gt;Node4</title>
<path fill="none" stroke="midnightblue" d="M695.43,-51.07C682.24,-40.49 667.06,-28.31 657.07,-20.28"/>
<polygon fill="midnightblue" stroke="midnightblue" points="692.74,-54.2 702.73,-57.73 697.12,-48.74 692.74,-54.2"/>
</g>
<!-- Node12&#45;&gt;Node4 -->
<g id="edge16" class="edge">
<title>Node12&#45;&gt;Node4</title>
<path fill="none" stroke="midnightblue" d="M807.89,-54.78C765.77,-43.51 713.03,-29.4 679.45,-20.42"/>
<polygon fill="midnightblue" stroke="midnightblue" points="806.79,-58.37 817.35,-57.58 808.59,-51.61 806.79,-58.37"/>
</g>
<!-- Node13&#45;&gt;Node14 -->
<g id="edge18" class="edge">
<title>Node13&#45;&gt;Node14</title>
<path fill="none" stroke="midnightblue" d="M1070.14,-123.42C1063,-110.49 1053.7,-93.65 1048.08,-83.48"/>
<polygon fill="midnightblue" stroke="midnightblue" points="1067.39,-124.68 1075.29,-131.74 1073.52,-121.3 1067.39,-124.68"/>
</g>
<!-- Node14&#45;&gt;Node4 -->
<g id="edge19" class="edge">
<title>Node14&#45;&gt;Node4</title>
<path fill="none" stroke="midnightblue" d="M980.91,-61.72C971.28,-60.11 961.44,-58.49 952.12,-57 856.92,-41.82 744.78,-25.56 686.26,-17.19"/>
<polygon fill="midnightblue" stroke="midnightblue" points="980.22,-65.33 990.66,-63.54 981.38,-58.42 980.22,-65.33"/>
</g>
<!-- Node15&#45;&gt;Node16 -->
<g id="edge21" class="edge">
<title>Node15&#45;&gt;Node16</title>
<path fill="none" stroke="midnightblue" d="M1254.82,-118.85C1245.22,-109.11 1234.27,-97.99 1225.73,-89.33"/>
<polygon fill="midnightblue" stroke="midnightblue" points="1251.97,-120.96 1261.48,-125.63 1256.95,-116.05 1251.97,-120.96"/>
</g>
<!-- Node16&#45;&gt;Node4 -->
<g id="edge22" class="edge">
<title>Node16&#45;&gt;Node4</title>
<path fill="none" stroke="midnightblue" d="M1132.03,-56.79C960.81,-32.18 768.5,-18.83 686.47,-13.81"/>
<polygon fill="midnightblue" stroke="midnightblue" points="1131.36,-60.37 1141.76,-58.35 1132.37,-53.44 1131.36,-60.37"/>
</g>
<!-- Node17&#45;&gt;Node18 -->
<g id="edge24" class="edge">
<title>Node17&#45;&gt;Node18</title>
<path fill="none" stroke="midnightblue" d="M397.2,-116.49C400.89,-107.35 404.94,-97.3 408.15,-89.33"/>
<polygon fill="midnightblue" stroke="midnightblue" points="393.61,-115.05 393.12,-125.63 400.1,-117.66 393.61,-115.05"/>
</g>
<!-- Node18&#45;&gt;Node4 -->
<g id="edge25" class="edge">
<title>Node18&#45;&gt;Node4</title>
<path fill="none" stroke="midnightblue" d="M481.25,-54.85C524.16,-43.57 577.98,-29.42 612.22,-20.42"/>
<polygon fill="midnightblue" stroke="midnightblue" points="480.66,-51.65 471.88,-57.58 482.44,-58.42 480.66,-51.65"/>
</g>
<!-- Node20 -->
<g id="node20" class="node">
<title>Node20</title>
<g id="a_node20"><a xlink:href="_vertex_wave_scene_8h.html" target="_top" xlink:title=" ">
<polygon fill="none" stroke="black" points="501,-57.5 501,-89.5 639.25,-89.5 639.25,-57.5 501,-57.5"/>
<text text-anchor="start" x="509" y="-76" font-family="Helvetica,sans-Serif" font-size="10.00">include/Scenes/VertexWave</text>
<text text-anchor="middle" x="570.12" y="-64" font-family="Helvetica,sans-Serif" font-size="10.00">Scene.h</text>
</a>
</g>
</g>
<!-- Node19&#45;&gt;Node20 -->
<g id="edge27" class="edge">
<title>Node19&#45;&gt;Node20</title>
<path fill="none" stroke="midnightblue" d="M555.08,-116.49C558.36,-107.35 561.96,-97.3 564.81,-89.33"/>
<polygon fill="midnightblue" stroke="midnightblue" points="551.53,-115.04 551.45,-125.63 558.12,-117.4 551.53,-115.04"/>
</g>
<!-- Node20&#45;&gt;Node4 -->
<g id="edge28" class="edge">
<title>Node20&#45;&gt;Node4</title>
<path fill="none" stroke="midnightblue" d="M596.82,-51.07C610.01,-40.49 625.19,-28.31 635.18,-20.28"/>
<polygon fill="midnightblue" stroke="midnightblue" points="595.13,-48.74 589.52,-57.73 599.51,-54.2 595.13,-48.74"/>
</g>
<!-- Node21&#45;&gt;Node9 -->
<g id="edge35" class="edge">
<title>Node21&#45;&gt;Node9</title>
<path fill="none" stroke="midnightblue" d="M617.89,-249.97C659.55,-239.69 719.67,-224.86 757.82,-215.46"/>
<polygon fill="midnightblue" stroke="midnightblue" points="617.32,-246.75 608.45,-252.54 619,-253.54 617.32,-246.75"/>
</g>
<!-- Node22&#45;&gt;Node3 -->
<g id="edge37" class="edge">
<title>Node22&#45;&gt;Node3</title>
<path fill="none" stroke="midnightblue" d="M637.67,-129.54C632.81,-128.22 627.87,-127 623.12,-126 497.76,-99.61 462.56,-116.06 337.12,-90 328.77,-88.26 319.82,-85.86 311.7,-83.47"/>
<polygon fill="midnightblue" stroke="midnightblue" points="636.51,-133.13 647.08,-132.52 638.43,-126.4 636.51,-133.13"/>
</g>
<!-- Node22&#45;&gt;Node11 -->
<g id="edge39" class="edge">
<title>Node22&#45;&gt;Node11</title>
<path fill="none" stroke="midnightblue" d="M687.5,-123.86C695.02,-113.14 704.52,-99.6 711.67,-89.41"/>
<polygon fill="midnightblue" stroke="midnightblue" points="684.15,-121.54 681.27,-131.74 689.88,-125.56 684.15,-121.54"/>
</g>
<!-- Node22&#45;&gt;Node12 -->
<g id="edge42" class="edge">
<title>Node22&#45;&gt;Node12</title>
<path fill="none" stroke="midnightblue" d="M711.75,-129.17C745.02,-117.97 794.16,-101.42 829.66,-89.47"/>
<polygon fill="midnightblue" stroke="midnightblue" points="710.91,-126.09 702.55,-132.6 713.14,-132.73 710.91,-126.09"/>
</g>
<!-- Node22&#45;&gt;Node14 -->
<g id="edge38" class="edge">
<title>Node22&#45;&gt;Node14</title>
<path fill="none" stroke="midnightblue" d="M728.22,-131.83C799.4,-118.87 924.8,-96.04 993.93,-83.46"/>
<polygon fill="midnightblue" stroke="midnightblue" points="727.91,-128.51 718.7,-133.75 729.16,-135.4 727.91,-128.51"/>
</g>
<!-- Node22&#45;&gt;Node16 -->
<g id="edge40" class="edge">
<title>Node22&#45;&gt;Node16</title>
<path fill="none" stroke="midnightblue" d="M728.42,-131.66C740.47,-129.62 753.21,-127.6 765.12,-126 928.43,-104 971.15,-114.29 1134.12,-90 1136.96,-89.58 1139.84,-89.12 1142.75,-88.64"/>
<polygon fill="midnightblue" stroke="midnightblue" points="727.86,-128.37 718.6,-133.53 729.05,-135.27 727.86,-128.37"/>
</g>
<!-- Node22&#45;&gt;Node18 -->
<g id="edge41" class="edge">
<title>Node22&#45;&gt;Node18</title>
<path fill="none" stroke="midnightblue" d="M635.67,-129.52C631.45,-128.31 627.2,-127.11 623.12,-126 574.81,-112.85 519.81,-99.36 478.36,-89.48"/>
<polygon fill="midnightblue" stroke="midnightblue" points="634.46,-133.11 645.04,-132.56 636.43,-126.39 634.46,-133.11"/>
</g>
<!-- Node22&#45;&gt;Node20 -->
<g id="edge43" class="edge">
<title>Node22&#45;&gt;Node20</title>
<path fill="none" stroke="midnightblue" d="M652.48,-127.05C635.06,-115.94 611.08,-100.63 593.49,-89.41"/>
<polygon fill="midnightblue" stroke="midnightblue" points="650.09,-130.31 660.4,-132.74 653.85,-124.41 650.09,-130.31"/>
</g>
</g>
</svg>
