<?xml version="1.0" encoding="UTF-8" standalone="no"?>
<!DOCTYPE svg PUBLIC "-//W3C//DTD SVG 1.1//EN"
 "http://www.w3.org/Graphics/SVG/1.1/DTD/svg11.dtd">
<!-- Generated by graphviz version 8.1.0 (20230707.0739)
 -->
<!-- Title: include/Surface.h Pages: 1 -->
<svg width="676pt" height="257pt"
 viewBox="0.00 0.00 676.00 257.00" xmlns="http://www.w3.org/2000/svg" xmlns:xlink="http://www.w3.org/1999/xlink">
<g id="graph0" class="graph" transform="scale(1 1) rotate(0) translate(4 253)">
<title>include/Surface.h</title>
<!-- Node1 -->
<g id="node1" class="node">
<title>Node1</title>
<g id="a_node1"><a xlink:title=" ">
<polygon fill="#bfbfbf" stroke="black" points="395.38,-228.5 395.38,-248.5 486.38,-248.5 486.38,-228.5 395.38,-228.5"/>
<text text-anchor="middle" x="440.88" y="-235" font-family="Helvetica,sans-Serif" font-size="10.00">include/Surface.h</text>
</a>
</g>
</g>
<!-- Node2 -->
<g id="node2" class="node">
<title>Node2</title>
<g id="a_node2"><a xlink:href="_colors_8h.html" target="_top" xlink:title=" ">
<polygon fill="none" stroke="black" points="161.88,-171.5 161.88,-191.5 213.88,-191.5 213.88,-171.5 161.88,-171.5"/>
<text text-anchor="middle" x="187.88" y="-178" font-family="Helvetica,sans-Serif" font-size="10.00">Colors.h</text>
</a>
</g>
</g>
<!-- Node1&#45;&gt;Node2 -->
<g id="edge1" class="edge">
<title>Node1&#45;&gt;Node2</title>
<path fill="none" stroke="midnightblue" d="M399.66,-228.54C350.92,-217.95 270.56,-200.48 224.11,-190.38"/>
<polygon fill="midnightblue" stroke="midnightblue" points="225.14,-186.8 214.62,-188.1 223.65,-193.64 225.14,-186.8"/>
</g>
<!-- Node14 -->
<g id="node14" class="node">
<title>Node14</title>
<g id="a_node14"><a xlink:href="_win_8h.html" target="_top" xlink:title=" ">
<polygon fill="none" stroke="black" points="255.12,-171.5 255.12,-191.5 296.62,-191.5 296.62,-171.5 255.12,-171.5"/>
<text text-anchor="middle" x="275.88" y="-178" font-family="Helvetica,sans-Serif" font-size="10.00">Win.h</text>
</a>
</g>
</g>
<!-- Node1&#45;&gt;Node14 -->
<g id="edge18" class="edge">
<title>Node1&#45;&gt;Node14</title>
<path fill="none" stroke="midnightblue" d="M414,-228.54C384.59,-218.74 337.53,-203.05 306.66,-192.76"/>
<polygon fill="midnightblue" stroke="midnightblue" points="308.07,-189.21 297.48,-189.37 305.86,-195.85 308.07,-189.21"/>
</g>
<!-- Node17 -->
<g id="node17" class="node">
<title>Node17</title>
<g id="a_node17"><a xlink:href="_engine_exception_8h.html" target="_top" xlink:title=" ">
<polygon fill="none" stroke="black" points="315,-171.5 315,-191.5 412.75,-191.5 412.75,-171.5 315,-171.5"/>
<text text-anchor="middle" x="363.88" y="-178" font-family="Helvetica,sans-Serif" font-size="10.00">EngineException.h</text>
</a>
</g>
</g>
<!-- Node1&#45;&gt;Node17 -->
<g id="edge21" class="edge">
<title>Node1&#45;&gt;Node17</title>
<path fill="none" stroke="midnightblue" d="M428.5,-228.66C416.9,-220.37 399.29,-207.8 385.39,-197.87"/>
<polygon fill="midnightblue" stroke="midnightblue" points="387.64,-194.46 377.47,-191.5 383.57,-200.16 387.64,-194.46"/>
</g>
<!-- Node18 -->
<g id="node18" class="node">
<title>Node18</title>
<g id="a_node18"><a xlink:title=" ">
<polygon fill="none" stroke="#bfbfbf" points="415.88,-114.5 415.88,-134.5 455.88,-134.5 455.88,-114.5 415.88,-114.5"/>
<text text-anchor="middle" x="435.88" y="-121" font-family="Helvetica,sans-Serif" font-size="10.00">string</text>
</a>
</g>
</g>
<!-- Node1&#45;&gt;Node18 -->
<g id="edge25" class="edge">
<title>Node1&#45;&gt;Node18</title>
<path fill="none" stroke="midnightblue" d="M440.48,-228.71C439.68,-210.8 437.85,-169.69 436.75,-145.11"/>
<polygon fill="midnightblue" stroke="midnightblue" points="440.21,-145.08 436.27,-135.25 433.22,-145.39 440.21,-145.08"/>
</g>
<!-- Node19 -->
<g id="node19" class="node">
<title>Node19</title>
<g id="a_node19"><a xlink:title=" ">
<polygon fill="none" stroke="#bfbfbf" points="469.25,-171.5 469.25,-191.5 520.5,-191.5 520.5,-171.5 469.25,-171.5"/>
<text text-anchor="middle" x="494.88" y="-178" font-family="Helvetica,sans-Serif" font-size="10.00">assert.h</text>
</a>
</g>
</g>
<!-- Node1&#45;&gt;Node19 -->
<g id="edge23" class="edge">
<title>Node1&#45;&gt;Node19</title>
<path fill="none" stroke="midnightblue" d="M449.31,-228.91C457.19,-220.88 469.16,-208.69 478.85,-198.82"/>
<polygon fill="midnightblue" stroke="midnightblue" points="480.81,-201.8 485.32,-192.21 475.82,-196.9 480.81,-201.8"/>
</g>
<!-- Node20 -->
<g id="node20" class="node">
<title>Node20</title>
<g id="a_node20"><a xlink:title=" ">
<polygon fill="none" stroke="#bfbfbf" points="538.25,-171.5 538.25,-191.5 589.5,-191.5 589.5,-171.5 538.25,-171.5"/>
<text text-anchor="middle" x="563.88" y="-178" font-family="Helvetica,sans-Serif" font-size="10.00">memory</text>
</a>
</g>
</g>
<!-- Node1&#45;&gt;Node20 -->
<g id="edge24" class="edge">
<title>Node1&#45;&gt;Node20</title>
<path fill="none" stroke="midnightblue" d="M460.91,-228.54C480.75,-219.67 511.35,-205.99 534.04,-195.84"/>
<polygon fill="midnightblue" stroke="midnightblue" points="535.15,-198.73 542.85,-191.46 532.29,-192.34 535.15,-198.73"/>
</g>
<!-- Node21 -->
<g id="node21" class="node">
<title>Node21</title>
<g id="a_node21"><a xlink:title=" ">
<polygon fill="none" stroke="#bfbfbf" points="607.75,-171.5 607.75,-191.5 668,-191.5 668,-171.5 607.75,-171.5"/>
<text text-anchor="middle" x="637.88" y="-178" font-family="Helvetica,sans-Serif" font-size="10.00">filesystem</text>
</a>
</g>
</g>
<!-- Node1&#45;&gt;Node21 -->
<g id="edge26" class="edge">
<title>Node1&#45;&gt;Node21</title>
<path fill="none" stroke="midnightblue" d="M472.96,-228.54C507,-219.04 560.84,-204.01 597.68,-193.72"/>
<polygon fill="midnightblue" stroke="midnightblue" points="598.37,-196.88 607.06,-190.82 596.48,-190.14 598.37,-196.88"/>
</g>
<!-- Node3 -->
<g id="node3" class="node">
<title>Node3</title>
<g id="a_node3"><a xlink:href="_vector3_8h.html" target="_top" xlink:title=" ">
<polygon fill="none" stroke="black" points="103.75,-114.5 103.75,-134.5 224,-134.5 224,-114.5 103.75,-114.5"/>
<text text-anchor="middle" x="163.88" y="-121" font-family="Helvetica,sans-Serif" font-size="10.00">LinearAlgebra/Vector3.h</text>
</a>
</g>
</g>
<!-- Node2&#45;&gt;Node3 -->
<g id="edge2" class="edge">
<title>Node2&#45;&gt;Node3</title>
<path fill="none" stroke="midnightblue" d="M184.12,-171.91C180.9,-164.52 176.14,-153.62 172.05,-144.23"/>
<polygon fill="midnightblue" stroke="midnightblue" points="174.89,-142.98 167.68,-135.21 168.47,-145.78 174.89,-142.98"/>
</g>
<!-- Node4 -->
<g id="node4" class="node">
<title>Node4</title>
<g id="a_node4"><a xlink:href="_math_8h.html" target="_top" xlink:title=" ">
<polygon fill="none" stroke="black" points="234.88,-57.5 234.88,-77.5 280.88,-77.5 280.88,-57.5 234.88,-57.5"/>
<text text-anchor="middle" x="257.88" y="-64" font-family="Helvetica,sans-Serif" font-size="10.00">Math.h</text>
</a>
</g>
</g>
<!-- Node3&#45;&gt;Node4 -->
<g id="edge3" class="edge">
<title>Node3&#45;&gt;Node4</title>
<path fill="none" stroke="midnightblue" d="M178.98,-114.66C193.55,-106.13 215.88,-93.07 233.07,-83.01"/>
<polygon fill="midnightblue" stroke="midnightblue" points="234.63,-85.57 241.5,-77.5 231.1,-79.53 234.63,-85.57"/>
</g>
<!-- Node9 -->
<g id="node9" class="node">
<title>Node9</title>
<g id="a_node9"><a xlink:href="_matrix3_8h.html" target="_top" xlink:title=" ">
<polygon fill="none" stroke="black" points="107.62,-57.5 107.62,-77.5 164.12,-77.5 164.12,-57.5 107.62,-57.5"/>
<text text-anchor="middle" x="135.88" y="-64" font-family="Helvetica,sans-Serif" font-size="10.00">Matrix3.h</text>
</a>
</g>
</g>
<!-- Node3&#45;&gt;Node9 -->
<g id="edge9" class="edge">
<title>Node3&#45;&gt;Node9</title>
<path fill="none" stroke="midnightblue" d="M159.5,-114.91C155.7,-107.44 150.07,-96.38 145.26,-86.93"/>
<polygon fill="midnightblue" stroke="midnightblue" points="147.97,-85.54 140.31,-78.21 141.73,-88.71 147.97,-85.54"/>
</g>
<!-- Node10 -->
<g id="node10" class="node">
<title>Node10</title>
<g id="a_node10"><a xlink:title=" ">
<polygon fill="none" stroke="#bfbfbf" points="0,-0.5 0,-20.5 37.75,-20.5 37.75,-0.5 0,-0.5"/>
<text text-anchor="middle" x="18.88" y="-7" font-family="Helvetica,sans-Serif" font-size="10.00">array</text>
</a>
</g>
</g>
<!-- Node3&#45;&gt;Node10 -->
<g id="edge14" class="edge">
<title>Node3&#45;&gt;Node10</title>
<path fill="none" stroke="midnightblue" d="M145.12,-114.5C128.54,-106.14 104.07,-92.77 84.88,-78 65.45,-63.05 46.02,-42.65 33.32,-28.4"/>
<polygon fill="midnightblue" stroke="midnightblue" points="35.57,-26.65 26.35,-21.43 30.3,-31.26 35.57,-26.65"/>
</g>
<!-- Node11 -->
<g id="node11" class="node">
<title>Node11</title>
<g id="a_node11"><a xlink:title=" ">
<polygon fill="none" stroke="#bfbfbf" points="56.12,-0.5 56.12,-20.5 103.62,-20.5 103.62,-0.5 56.12,-0.5"/>
<text text-anchor="middle" x="79.88" y="-7" font-family="Helvetica,sans-Serif" font-size="10.00">cstddef</text>
</a>
</g>
</g>
<!-- Node3&#45;&gt;Node11 -->
<g id="edge17" class="edge">
<title>Node3&#45;&gt;Node11</title>
<path fill="none" stroke="midnightblue" d="M144.65,-114.59C130.05,-106.87 110.55,-94.38 98.88,-78 88.97,-64.1 84.2,-45.12 81.93,-31"/>
<polygon fill="midnightblue" stroke="midnightblue" points="85.32,-30.95 80.54,-21.5 78.38,-31.87 85.32,-30.95"/>
</g>
<!-- Node12 -->
<g id="node12" class="node">
<title>Node12</title>
<g id="a_node12"><a xlink:title=" ">
<polygon fill="none" stroke="#bfbfbf" points="122.12,-0.5 122.12,-20.5 175.62,-20.5 175.62,-0.5 122.12,-0.5"/>
<text text-anchor="middle" x="148.88" y="-7" font-family="Helvetica,sans-Serif" font-size="10.00">iostream</text>
</a>
</g>
</g>
<!-- Node3&#45;&gt;Node12 -->
<g id="edge15" class="edge">
<title>Node3&#45;&gt;Node12</title>
<path fill="none" stroke="midnightblue" d="M167.12,-114.78C171.42,-101.96 177.91,-77.36 172.88,-57 170.49,-47.37 165.66,-37.53 160.95,-29.47"/>
<polygon fill="midnightblue" stroke="midnightblue" points="163.52,-27.99 155.24,-21.38 157.59,-31.71 163.52,-27.99"/>
</g>
<!-- Node13 -->
<g id="node13" class="node">
<title>Node13</title>
<g id="a_node13"><a xlink:title=" ">
<polygon fill="none" stroke="#bfbfbf" points="317.12,-57.5 317.12,-77.5 370.62,-77.5 370.62,-57.5 317.12,-57.5"/>
<text text-anchor="middle" x="343.88" y="-64" font-family="Helvetica,sans-Serif" font-size="10.00">compare</text>
</a>
</g>
</g>
<!-- Node3&#45;&gt;Node13 -->
<g id="edge16" class="edge">
<title>Node3&#45;&gt;Node13</title>
<path fill="none" stroke="midnightblue" d="M193.2,-114.54C224.21,-105.06 273.21,-90.09 306.87,-79.81"/>
<polygon fill="midnightblue" stroke="midnightblue" points="307.67,-82.92 316.21,-76.65 305.62,-76.22 307.67,-82.92"/>
</g>
<!-- Node4&#45;&gt;Node4 -->
<g id="edge4" class="edge">
<title>Node4&#45;&gt;Node4</title>
<path fill="none" stroke="midnightblue" d="M276.43,-77.43C287.93,-79.83 298.88,-76.52 298.88,-67.5 298.88,-61.44 293.93,-57.96 287.2,-57.05"/>
<polygon fill="midnightblue" stroke="midnightblue" points="287.25,-53.59 277.43,-57.57 287.58,-60.59 287.25,-53.59"/>
</g>
<!-- Node5 -->
<g id="node5" class="node">
<title>Node5</title>
<g id="a_node5"><a xlink:title=" ">
<polygon fill="none" stroke="#bfbfbf" points="193.38,-0.5 193.38,-20.5 236.38,-20.5 236.38,-0.5 193.38,-0.5"/>
<text text-anchor="middle" x="214.88" y="-7" font-family="Helvetica,sans-Serif" font-size="10.00">cmath</text>
</a>
</g>
</g>
<!-- Node4&#45;&gt;Node5 -->
<g id="edge5" class="edge">
<title>Node4&#45;&gt;Node5</title>
<path fill="none" stroke="midnightblue" d="M251.16,-57.91C245.07,-50.12 235.92,-38.42 228.33,-28.71"/>
<polygon fill="midnightblue" stroke="midnightblue" points="230.61,-26.94 221.69,-21.21 225.09,-31.25 230.61,-26.94"/>
</g>
<!-- Node6 -->
<g id="node6" class="node">
<title>Node6</title>
<g id="a_node6"><a xlink:title=" ">
<polygon fill="none" stroke="#bfbfbf" points="254.25,-0.5 254.25,-20.5 293.5,-20.5 293.5,-0.5 254.25,-0.5"/>
<text text-anchor="middle" x="273.88" y="-7" font-family="Helvetica,sans-Serif" font-size="10.00">limits</text>
</a>
</g>
</g>
<!-- Node4&#45;&gt;Node6 -->
<g id="edge6" class="edge">
<title>Node4&#45;&gt;Node6</title>
<path fill="none" stroke="midnightblue" d="M260.38,-57.91C262.5,-50.6 265.63,-39.85 268.34,-30.54"/>
<polygon fill="midnightblue" stroke="midnightblue" points="271.91,-31.79 271.34,-21.21 265.19,-29.84 271.91,-31.79"/>
</g>
<!-- Node7 -->
<g id="node7" class="node">
<title>Node7</title>
<g id="a_node7"><a xlink:title=" ">
<polygon fill="none" stroke="#bfbfbf" points="311.12,-0.5 311.12,-20.5 364.62,-20.5 364.62,-0.5 311.12,-0.5"/>
<text text-anchor="middle" x="337.88" y="-7" font-family="Helvetica,sans-Serif" font-size="10.00">numbers</text>
</a>
</g>
</g>
<!-- Node4&#45;&gt;Node7 -->
<g id="edge7" class="edge">
<title>Node4&#45;&gt;Node7</title>
<path fill="none" stroke="midnightblue" d="M270.73,-57.66C282.9,-49.29 301.43,-36.56 315.94,-26.58"/>
<polygon fill="midnightblue" stroke="midnightblue" points="317.53,-29.05 323.79,-20.5 313.56,-23.28 317.53,-29.05"/>
</g>
<!-- Node8 -->
<g id="node8" class="node">
<title>Node8</title>
<g id="a_node8"><a xlink:title=" ">
<polygon fill="none" stroke="#bfbfbf" points="382.75,-0.5 382.75,-20.5 431,-20.5 431,-0.5 382.75,-0.5"/>
<text text-anchor="middle" x="406.88" y="-7" font-family="Helvetica,sans-Serif" font-size="10.00">random</text>
</a>
</g>
</g>
<!-- Node4&#45;&gt;Node8 -->
<g id="edge8" class="edge">
<title>Node4&#45;&gt;Node8</title>
<path fill="none" stroke="midnightblue" d="M280.83,-58.03C305.44,-48.94 344.77,-34.42 372.95,-24.02"/>
<polygon fill="midnightblue" stroke="midnightblue" points="373.99,-27 382.15,-20.26 371.56,-20.44 373.99,-27"/>
</g>
<!-- Node9&#45;&gt;Node5 -->
<g id="edge11" class="edge">
<title>Node9&#45;&gt;Node5</title>
<path fill="none" stroke="midnightblue" d="M148.57,-57.66C160.59,-49.29 178.88,-36.56 193.21,-26.58"/>
<polygon fill="midnightblue" stroke="midnightblue" points="194.74,-29.08 200.95,-20.5 190.74,-23.34 194.74,-29.08"/>
</g>
<!-- Node9&#45;&gt;Node10 -->
<g id="edge10" class="edge">
<title>Node9&#45;&gt;Node10</title>
<path fill="none" stroke="midnightblue" d="M116.82,-57.54C98.01,-48.7 69.02,-35.07 47.45,-24.93"/>
<polygon fill="midnightblue" stroke="midnightblue" points="49.08,-21.36 38.54,-20.27 46.1,-27.7 49.08,-21.36"/>
</g>
<!-- Node9&#45;&gt;Node11 -->
<g id="edge12" class="edge">
<title>Node9&#45;&gt;Node11</title>
<path fill="none" stroke="midnightblue" d="M126.88,-57.66C118.76,-49.69 106.61,-37.76 96.7,-28.02"/>
<polygon fill="midnightblue" stroke="midnightblue" points="99.62,-26.01 90.04,-21.5 94.72,-31 99.62,-26.01"/>
</g>
<!-- Node9&#45;&gt;Node12 -->
<g id="edge13" class="edge">
<title>Node9&#45;&gt;Node12</title>
<path fill="none" stroke="midnightblue" d="M137.91,-57.91C139.61,-50.68 142.12,-40.09 144.3,-30.85"/>
<polygon fill="midnightblue" stroke="midnightblue" points="147.92,-31.75 146.82,-21.21 141.11,-30.14 147.92,-31.75"/>
</g>
<!-- Node15 -->
<g id="node15" class="node">
<title>Node15</title>
<g id="a_node15"><a xlink:title=" ">
<polygon fill="none" stroke="#bfbfbf" points="242,-114.5 242,-134.5 309.75,-134.5 309.75,-114.5 242,-114.5"/>
<text text-anchor="middle" x="275.88" y="-121" font-family="Helvetica,sans-Serif" font-size="10.00">sdkddkver.h</text>
</a>
</g>
</g>
<!-- Node14&#45;&gt;Node15 -->
<g id="edge19" class="edge">
<title>Node14&#45;&gt;Node15</title>
<path fill="none" stroke="midnightblue" d="M275.88,-171.91C275.88,-164.76 275.88,-154.32 275.88,-145.15"/>
<polygon fill="midnightblue" stroke="midnightblue" points="279.38,-145.21 275.88,-135.21 272.38,-145.21 279.38,-145.21"/>
</g>
<!-- Node16 -->
<g id="node16" class="node">
<title>Node16</title>
<g id="a_node16"><a xlink:title=" ">
<polygon fill="none" stroke="#bfbfbf" points="327.88,-114.5 327.88,-134.5 391.88,-134.5 391.88,-114.5 327.88,-114.5"/>
<text text-anchor="middle" x="359.88" y="-121" font-family="Helvetica,sans-Serif" font-size="10.00">Windows.h</text>
</a>
</g>
</g>
<!-- Node14&#45;&gt;Node16 -->
<g id="edge20" class="edge">
<title>Node14&#45;&gt;Node16</title>
<path fill="none" stroke="midnightblue" d="M289.37,-171.66C302.28,-163.21 321.98,-150.31 337.28,-140.3"/>
<polygon fill="midnightblue" stroke="midnightblue" points="338.68,-142.9 345.13,-134.5 334.85,-137.05 338.68,-142.9"/>
</g>
<!-- Node17&#45;&gt;Node18 -->
<g id="edge22" class="edge">
<title>Node17&#45;&gt;Node18</title>
<path fill="none" stroke="midnightblue" d="M375.44,-171.66C386.19,-163.45 402.44,-151.04 415.38,-141.15"/>
<polygon fill="midnightblue" stroke="midnightblue" points="417.27,-143.35 423.1,-134.5 413.03,-137.79 417.27,-143.35"/>
</g>
</g>
</svg>
