<?xml version="1.0" encoding="UTF-8" standalone="no"?>
<!DOCTYPE svg PUBLIC "-//W3C//DTD SVG 1.1//EN"
 "http://www.w3.org/Graphics/SVG/1.1/DTD/svg11.dtd">
<!-- Generated by graphviz version 8.1.0 (20230707.0739)
 -->
<!-- Title: include/Surface.h Pages: 1 -->
<svg width="610pt" height="257pt"
 viewBox="0.00 0.00 610.00 257.00" xmlns="http://www.w3.org/2000/svg" xmlns:xlink="http://www.w3.org/1999/xlink">
<g id="graph0" class="graph" transform="scale(1 1) rotate(0) translate(4 253)">
<title>include/Surface.h</title>
<!-- Node1 -->
<g id="node1" class="node">
<title>Node1</title>
<g id="a_node1"><a xlink:title=" ">
<polygon fill="#bfbfbf" stroke="black" points="329.38,-228.5 329.38,-248.5 420.38,-248.5 420.38,-228.5 329.38,-228.5"/>
<text text-anchor="middle" x="374.88" y="-235" font-family="Helvetica,sans-Serif" font-size="10.00">include/Surface.h</text>
</a>
</g>
</g>
<!-- Node2 -->
<g id="node2" class="node">
<title>Node2</title>
<g id="a_node2"><a xlink:href="_win_8h.html" target="_top" xlink:title=" ">
<polygon fill="none" stroke="black" points="97.12,-171.5 97.12,-191.5 138.62,-191.5 138.62,-171.5 97.12,-171.5"/>
<text text-anchor="middle" x="117.88" y="-178" font-family="Helvetica,sans-Serif" font-size="10.00">Win.h</text>
</a>
</g>
</g>
<!-- Node1&#45;&gt;Node2 -->
<g id="edge1" class="edge">
<title>Node1&#45;&gt;Node2</title>
<path fill="none" stroke="midnightblue" d="M333.01,-228.54C281.5,-217.52 195.23,-199.05 149.14,-189.19"/>
<polygon fill="midnightblue" stroke="midnightblue" points="150.11,-185.61 139.6,-186.94 148.65,-192.45 150.11,-185.61"/>
</g>
<!-- Node5 -->
<g id="node5" class="node">
<title>Node5</title>
<g id="a_node5"><a xlink:href="_colors_8h.html" target="_top" xlink:title=" ">
<polygon fill="none" stroke="black" points="178.88,-171.5 178.88,-191.5 230.88,-191.5 230.88,-171.5 178.88,-171.5"/>
<text text-anchor="middle" x="204.88" y="-178" font-family="Helvetica,sans-Serif" font-size="10.00">Colors.h</text>
</a>
</g>
</g>
<!-- Node1&#45;&gt;Node5 -->
<g id="edge4" class="edge">
<title>Node1&#45;&gt;Node5</title>
<path fill="none" stroke="midnightblue" d="M347.18,-228.54C318.19,-219.16 272.54,-204.39 240.8,-194.12"/>
<polygon fill="midnightblue" stroke="midnightblue" points="242.2,-190.57 231.61,-190.82 240.04,-197.23 242.2,-190.57"/>
</g>
<!-- Node17 -->
<g id="node17" class="node">
<title>Node17</title>
<g id="a_node17"><a xlink:href="_engine_exception_8h.html" target="_top" xlink:title=" ">
<polygon fill="none" stroke="black" points="249,-171.5 249,-191.5 346.75,-191.5 346.75,-171.5 249,-171.5"/>
<text text-anchor="middle" x="297.88" y="-178" font-family="Helvetica,sans-Serif" font-size="10.00">EngineException.h</text>
</a>
</g>
</g>
<!-- Node1&#45;&gt;Node17 -->
<g id="edge21" class="edge">
<title>Node1&#45;&gt;Node17</title>
<path fill="none" stroke="midnightblue" d="M362.5,-228.66C350.9,-220.37 333.29,-207.8 319.39,-197.87"/>
<polygon fill="midnightblue" stroke="midnightblue" points="321.64,-194.46 311.47,-191.5 317.57,-200.16 321.64,-194.46"/>
</g>
<!-- Node18 -->
<g id="node18" class="node">
<title>Node18</title>
<g id="a_node18"><a xlink:title=" ">
<polygon fill="none" stroke="#bfbfbf" points="330.88,-114.5 330.88,-134.5 370.88,-134.5 370.88,-114.5 330.88,-114.5"/>
<text text-anchor="middle" x="350.88" y="-121" font-family="Helvetica,sans-Serif" font-size="10.00">string</text>
</a>
</g>
</g>
<!-- Node1&#45;&gt;Node18 -->
<g id="edge25" class="edge">
<title>Node1&#45;&gt;Node18</title>
<path fill="none" stroke="midnightblue" d="M372.99,-228.71C369.14,-210.72 360.26,-169.32 355,-144.77"/>
<polygon fill="midnightblue" stroke="midnightblue" points="358.27,-144.29 352.75,-135.25 351.42,-145.76 358.27,-144.29"/>
</g>
<!-- Node19 -->
<g id="node19" class="node">
<title>Node19</title>
<g id="a_node19"><a xlink:title=" ">
<polygon fill="none" stroke="#bfbfbf" points="403.25,-171.5 403.25,-191.5 454.5,-191.5 454.5,-171.5 403.25,-171.5"/>
<text text-anchor="middle" x="428.88" y="-178" font-family="Helvetica,sans-Serif" font-size="10.00">assert.h</text>
</a>
</g>
</g>
<!-- Node1&#45;&gt;Node19 -->
<g id="edge23" class="edge">
<title>Node1&#45;&gt;Node19</title>
<path fill="none" stroke="midnightblue" d="M383.31,-228.91C391.19,-220.88 403.16,-208.69 412.85,-198.82"/>
<polygon fill="midnightblue" stroke="midnightblue" points="414.81,-201.8 419.32,-192.21 409.82,-196.9 414.81,-201.8"/>
</g>
<!-- Node20 -->
<g id="node20" class="node">
<title>Node20</title>
<g id="a_node20"><a xlink:title=" ">
<polygon fill="none" stroke="#bfbfbf" points="472.25,-171.5 472.25,-191.5 523.5,-191.5 523.5,-171.5 472.25,-171.5"/>
<text text-anchor="middle" x="497.88" y="-178" font-family="Helvetica,sans-Serif" font-size="10.00">memory</text>
</a>
</g>
</g>
<!-- Node1&#45;&gt;Node20 -->
<g id="edge24" class="edge">
<title>Node1&#45;&gt;Node20</title>
<path fill="none" stroke="midnightblue" d="M394.91,-228.54C414.75,-219.67 445.35,-205.99 468.04,-195.84"/>
<polygon fill="midnightblue" stroke="midnightblue" points="469.15,-198.73 476.85,-191.46 466.29,-192.34 469.15,-198.73"/>
</g>
<!-- Node21 -->
<g id="node21" class="node">
<title>Node21</title>
<g id="a_node21"><a xlink:title=" ">
<polygon fill="none" stroke="#bfbfbf" points="541.75,-171.5 541.75,-191.5 602,-191.5 602,-171.5 541.75,-171.5"/>
<text text-anchor="middle" x="571.88" y="-178" font-family="Helvetica,sans-Serif" font-size="10.00">filesystem</text>
</a>
</g>
</g>
<!-- Node1&#45;&gt;Node21 -->
<g id="edge26" class="edge">
<title>Node1&#45;&gt;Node21</title>
<path fill="none" stroke="midnightblue" d="M406.96,-228.54C441,-219.04 494.84,-204.01 531.68,-193.72"/>
<polygon fill="midnightblue" stroke="midnightblue" points="532.37,-196.88 541.06,-190.82 530.48,-190.14 532.37,-196.88"/>
</g>
<!-- Node3 -->
<g id="node3" class="node">
<title>Node3</title>
<g id="a_node3"><a xlink:title=" ">
<polygon fill="none" stroke="#bfbfbf" points="0,-114.5 0,-134.5 67.75,-134.5 67.75,-114.5 0,-114.5"/>
<text text-anchor="middle" x="33.88" y="-121" font-family="Helvetica,sans-Serif" font-size="10.00">sdkddkver.h</text>
</a>
</g>
</g>
<!-- Node2&#45;&gt;Node3 -->
<g id="edge2" class="edge">
<title>Node2&#45;&gt;Node3</title>
<path fill="none" stroke="midnightblue" d="M104.38,-171.66C91.47,-163.21 71.77,-150.31 56.47,-140.3"/>
<polygon fill="midnightblue" stroke="midnightblue" points="58.9,-137.05 48.62,-134.5 55.07,-142.9 58.9,-137.05"/>
</g>
<!-- Node4 -->
<g id="node4" class="node">
<title>Node4</title>
<g id="a_node4"><a xlink:title=" ">
<polygon fill="none" stroke="#bfbfbf" points="85.88,-114.5 85.88,-134.5 149.88,-134.5 149.88,-114.5 85.88,-114.5"/>
<text text-anchor="middle" x="117.88" y="-121" font-family="Helvetica,sans-Serif" font-size="10.00">Windows.h</text>
</a>
</g>
</g>
<!-- Node2&#45;&gt;Node4 -->
<g id="edge3" class="edge">
<title>Node2&#45;&gt;Node4</title>
<path fill="none" stroke="midnightblue" d="M117.88,-171.91C117.88,-164.76 117.88,-154.32 117.88,-145.15"/>
<polygon fill="midnightblue" stroke="midnightblue" points="121.38,-145.21 117.88,-135.21 114.38,-145.21 121.38,-145.21"/>
</g>
<!-- Node6 -->
<g id="node6" class="node">
<title>Node6</title>
<g id="a_node6"><a xlink:href="_vector3_8h.html" target="_top" xlink:title=" ">
<polygon fill="none" stroke="black" points="167.75,-114.5 167.75,-134.5 288,-134.5 288,-114.5 167.75,-114.5"/>
<text text-anchor="middle" x="227.88" y="-121" font-family="Helvetica,sans-Serif" font-size="10.00">LinearAlgebra/Vector3.h</text>
</a>
</g>
</g>
<!-- Node5&#45;&gt;Node6 -->
<g id="edge5" class="edge">
<title>Node5&#45;&gt;Node6</title>
<path fill="none" stroke="midnightblue" d="M208.47,-171.91C211.56,-164.52 216.12,-153.62 220.04,-144.23"/>
<polygon fill="midnightblue" stroke="midnightblue" points="223.6,-145.79 224.23,-135.21 217.14,-143.09 223.6,-145.79"/>
</g>
<!-- Node7 -->
<g id="node7" class="node">
<title>Node7</title>
<g id="a_node7"><a xlink:href="_math_8h.html" target="_top" xlink:title=" ">
<polygon fill="none" stroke="black" points="298.88,-57.5 298.88,-77.5 344.88,-77.5 344.88,-57.5 298.88,-57.5"/>
<text text-anchor="middle" x="321.88" y="-64" font-family="Helvetica,sans-Serif" font-size="10.00">Math.h</text>
</a>
</g>
</g>
<!-- Node6&#45;&gt;Node7 -->
<g id="edge6" class="edge">
<title>Node6&#45;&gt;Node7</title>
<path fill="none" stroke="midnightblue" d="M242.98,-114.66C257.55,-106.13 279.88,-93.07 297.07,-83.01"/>
<polygon fill="midnightblue" stroke="midnightblue" points="298.63,-85.57 305.5,-77.5 295.1,-79.53 298.63,-85.57"/>
</g>
<!-- Node12 -->
<g id="node12" class="node">
<title>Node12</title>
<g id="a_node12"><a xlink:href="_matrix3_8h.html" target="_top" xlink:title=" ">
<polygon fill="none" stroke="black" points="171.62,-57.5 171.62,-77.5 228.12,-77.5 228.12,-57.5 171.62,-57.5"/>
<text text-anchor="middle" x="199.88" y="-64" font-family="Helvetica,sans-Serif" font-size="10.00">Matrix3.h</text>
</a>
</g>
</g>
<!-- Node6&#45;&gt;Node12 -->
<g id="edge12" class="edge">
<title>Node6&#45;&gt;Node12</title>
<path fill="none" stroke="midnightblue" d="M223.5,-114.91C219.7,-107.44 214.07,-96.38 209.26,-86.93"/>
<polygon fill="midnightblue" stroke="midnightblue" points="211.97,-85.54 204.31,-78.21 205.73,-88.71 211.97,-85.54"/>
</g>
<!-- Node13 -->
<g id="node13" class="node">
<title>Node13</title>
<g id="a_node13"><a xlink:title=" ">
<polygon fill="none" stroke="#bfbfbf" points="64,-0.5 64,-20.5 101.75,-20.5 101.75,-0.5 64,-0.5"/>
<text text-anchor="middle" x="82.88" y="-7" font-family="Helvetica,sans-Serif" font-size="10.00">array</text>
</a>
</g>
</g>
<!-- Node6&#45;&gt;Node13 -->
<g id="edge17" class="edge">
<title>Node6&#45;&gt;Node13</title>
<path fill="none" stroke="midnightblue" d="M209.12,-114.5C192.54,-106.14 168.07,-92.77 148.88,-78 129.45,-63.05 110.02,-42.65 97.32,-28.4"/>
<polygon fill="midnightblue" stroke="midnightblue" points="99.57,-26.65 90.35,-21.43 94.3,-31.26 99.57,-26.65"/>
</g>
<!-- Node14 -->
<g id="node14" class="node">
<title>Node14</title>
<g id="a_node14"><a xlink:title=" ">
<polygon fill="none" stroke="#bfbfbf" points="120.12,-0.5 120.12,-20.5 167.62,-20.5 167.62,-0.5 120.12,-0.5"/>
<text text-anchor="middle" x="143.88" y="-7" font-family="Helvetica,sans-Serif" font-size="10.00">cstddef</text>
</a>
</g>
</g>
<!-- Node6&#45;&gt;Node14 -->
<g id="edge20" class="edge">
<title>Node6&#45;&gt;Node14</title>
<path fill="none" stroke="midnightblue" d="M208.65,-114.59C194.05,-106.87 174.55,-94.38 162.88,-78 152.97,-64.1 148.2,-45.12 145.93,-31"/>
<polygon fill="midnightblue" stroke="midnightblue" points="149.32,-30.95 144.54,-21.5 142.38,-31.87 149.32,-30.95"/>
</g>
<!-- Node15 -->
<g id="node15" class="node">
<title>Node15</title>
<g id="a_node15"><a xlink:title=" ">
<polygon fill="none" stroke="#bfbfbf" points="186.12,-0.5 186.12,-20.5 239.62,-20.5 239.62,-0.5 186.12,-0.5"/>
<text text-anchor="middle" x="212.88" y="-7" font-family="Helvetica,sans-Serif" font-size="10.00">iostream</text>
</a>
</g>
</g>
<!-- Node6&#45;&gt;Node15 -->
<g id="edge18" class="edge">
<title>Node6&#45;&gt;Node15</title>
<path fill="none" stroke="midnightblue" d="M231.12,-114.78C235.42,-101.96 241.91,-77.36 236.88,-57 234.49,-47.37 229.66,-37.53 224.95,-29.47"/>
<polygon fill="midnightblue" stroke="midnightblue" points="227.52,-27.99 219.24,-21.38 221.59,-31.71 227.52,-27.99"/>
</g>
<!-- Node16 -->
<g id="node16" class="node">
<title>Node16</title>
<g id="a_node16"><a xlink:title=" ">
<polygon fill="none" stroke="#bfbfbf" points="381.12,-57.5 381.12,-77.5 434.62,-77.5 434.62,-57.5 381.12,-57.5"/>
<text text-anchor="middle" x="407.88" y="-64" font-family="Helvetica,sans-Serif" font-size="10.00">compare</text>
</a>
</g>
</g>
<!-- Node6&#45;&gt;Node16 -->
<g id="edge19" class="edge">
<title>Node6&#45;&gt;Node16</title>
<path fill="none" stroke="midnightblue" d="M257.2,-114.54C288.21,-105.06 337.21,-90.09 370.87,-79.81"/>
<polygon fill="midnightblue" stroke="midnightblue" points="371.67,-82.92 380.21,-76.65 369.62,-76.22 371.67,-82.92"/>
</g>
<!-- Node7&#45;&gt;Node7 -->
<g id="edge7" class="edge">
<title>Node7&#45;&gt;Node7</title>
<path fill="none" stroke="midnightblue" d="M340.43,-77.43C351.93,-79.83 362.88,-76.52 362.88,-67.5 362.88,-61.44 357.93,-57.96 351.2,-57.05"/>
<polygon fill="midnightblue" stroke="midnightblue" points="351.25,-53.59 341.43,-57.57 351.58,-60.59 351.25,-53.59"/>
</g>
<!-- Node8 -->
<g id="node8" class="node">
<title>Node8</title>
<g id="a_node8"><a xlink:title=" ">
<polygon fill="none" stroke="#bfbfbf" points="257.38,-0.5 257.38,-20.5 300.38,-20.5 300.38,-0.5 257.38,-0.5"/>
<text text-anchor="middle" x="278.88" y="-7" font-family="Helvetica,sans-Serif" font-size="10.00">cmath</text>
</a>
</g>
</g>
<!-- Node7&#45;&gt;Node8 -->
<g id="edge8" class="edge">
<title>Node7&#45;&gt;Node8</title>
<path fill="none" stroke="midnightblue" d="M315.16,-57.91C309.07,-50.12 299.92,-38.42 292.33,-28.71"/>
<polygon fill="midnightblue" stroke="midnightblue" points="294.61,-26.94 285.69,-21.21 289.09,-31.25 294.61,-26.94"/>
</g>
<!-- Node9 -->
<g id="node9" class="node">
<title>Node9</title>
<g id="a_node9"><a xlink:title=" ">
<polygon fill="none" stroke="#bfbfbf" points="318.25,-0.5 318.25,-20.5 357.5,-20.5 357.5,-0.5 318.25,-0.5"/>
<text text-anchor="middle" x="337.88" y="-7" font-family="Helvetica,sans-Serif" font-size="10.00">limits</text>
</a>
</g>
</g>
<!-- Node7&#45;&gt;Node9 -->
<g id="edge9" class="edge">
<title>Node7&#45;&gt;Node9</title>
<path fill="none" stroke="midnightblue" d="M324.38,-57.91C326.5,-50.6 329.63,-39.85 332.34,-30.54"/>
<polygon fill="midnightblue" stroke="midnightblue" points="335.91,-31.79 335.34,-21.21 329.19,-29.84 335.91,-31.79"/>
</g>
<!-- Node10 -->
<g id="node10" class="node">
<title>Node10</title>
<g id="a_node10"><a xlink:title=" ">
<polygon fill="none" stroke="#bfbfbf" points="375.12,-0.5 375.12,-20.5 428.62,-20.5 428.62,-0.5 375.12,-0.5"/>
<text text-anchor="middle" x="401.88" y="-7" font-family="Helvetica,sans-Serif" font-size="10.00">numbers</text>
</a>
</g>
</g>
<!-- Node7&#45;&gt;Node10 -->
<g id="edge10" class="edge">
<title>Node7&#45;&gt;Node10</title>
<path fill="none" stroke="midnightblue" d="M334.73,-57.66C346.9,-49.29 365.43,-36.56 379.94,-26.58"/>
<polygon fill="midnightblue" stroke="midnightblue" points="381.53,-29.05 387.79,-20.5 377.56,-23.28 381.53,-29.05"/>
</g>
<!-- Node11 -->
<g id="node11" class="node">
<title>Node11</title>
<g id="a_node11"><a xlink:title=" ">
<polygon fill="none" stroke="#bfbfbf" points="446.75,-0.5 446.75,-20.5 495,-20.5 495,-0.5 446.75,-0.5"/>
<text text-anchor="middle" x="470.88" y="-7" font-family="Helvetica,sans-Serif" font-size="10.00">random</text>
</a>
</g>
</g>
<!-- Node7&#45;&gt;Node11 -->
<g id="edge11" class="edge">
<title>Node7&#45;&gt;Node11</title>
<path fill="none" stroke="midnightblue" d="M344.83,-58.03C369.44,-48.94 408.77,-34.42 436.95,-24.02"/>
<polygon fill="midnightblue" stroke="midnightblue" points="437.99,-27 446.15,-20.26 435.56,-20.44 437.99,-27"/>
</g>
<!-- Node12&#45;&gt;Node8 -->
<g id="edge14" class="edge">
<title>Node12&#45;&gt;Node8</title>
<path fill="none" stroke="midnightblue" d="M212.57,-57.66C224.59,-49.29 242.88,-36.56 257.21,-26.58"/>
<polygon fill="midnightblue" stroke="midnightblue" points="258.74,-29.08 264.95,-20.5 254.74,-23.34 258.74,-29.08"/>
</g>
<!-- Node12&#45;&gt;Node13 -->
<g id="edge13" class="edge">
<title>Node12&#45;&gt;Node13</title>
<path fill="none" stroke="midnightblue" d="M180.82,-57.54C162.01,-48.7 133.02,-35.07 111.45,-24.93"/>
<polygon fill="midnightblue" stroke="midnightblue" points="113.08,-21.36 102.54,-20.27 110.1,-27.7 113.08,-21.36"/>
</g>
<!-- Node12&#45;&gt;Node14 -->
<g id="edge15" class="edge">
<title>Node12&#45;&gt;Node14</title>
<path fill="none" stroke="midnightblue" d="M190.88,-57.66C182.76,-49.69 170.61,-37.76 160.7,-28.02"/>
<polygon fill="midnightblue" stroke="midnightblue" points="163.62,-26.01 154.04,-21.5 158.72,-31 163.62,-26.01"/>
</g>
<!-- Node12&#45;&gt;Node15 -->
<g id="edge16" class="edge">
<title>Node12&#45;&gt;Node15</title>
<path fill="none" stroke="midnightblue" d="M201.91,-57.91C203.61,-50.68 206.12,-40.09 208.3,-30.85"/>
<polygon fill="midnightblue" stroke="midnightblue" points="211.92,-31.75 210.82,-21.21 205.11,-30.14 211.92,-31.75"/>
</g>
<!-- Node17&#45;&gt;Node18 -->
<g id="edge22" class="edge">
<title>Node17&#45;&gt;Node18</title>
<path fill="none" stroke="midnightblue" d="M306.16,-171.91C313.81,-163.96 325.4,-151.94 334.86,-142.12"/>
<polygon fill="midnightblue" stroke="midnightblue" points="337.06,-144.84 341.48,-135.21 332.02,-139.99 337.06,-144.84"/>
</g>
</g>
</svg>
