<?xml version="1.0" encoding="UTF-8" standalone="no"?>
<!DOCTYPE svg PUBLIC "-//W3C//DTD SVG 1.1//EN"
 "http://www.w3.org/Graphics/SVG/1.1/DTD/svg11.dtd">
<!-- Generated by graphviz version 8.1.0 (20230707.0739)
 -->
<!-- Title: include/Surface.h Pages: 1 -->
<svg width="1958pt" height="269pt"
 viewBox="0.00 0.00 1958.25 269.00" xmlns="http://www.w3.org/2000/svg" xmlns:xlink="http://www.w3.org/1999/xlink">
<g id="graph0" class="graph" transform="scale(1 1) rotate(0) translate(4 265)">
<title>include/Surface.h</title>
<!-- Node1 -->
<g id="node1" class="node">
<title>Node1</title>
<g id="a_node1"><a xlink:title=" ">
<polygon fill="#bfbfbf" stroke="black" points="1748.62,-240.5 1748.62,-260.5 1839.62,-260.5 1839.62,-240.5 1748.62,-240.5"/>
<text text-anchor="middle" x="1794.12" y="-247" font-family="Helvetica,sans-Serif" font-size="10.00">include/Surface.h</text>
</a>
</g>
</g>
<!-- Node2 -->
<g id="node2" class="node">
<title>Node2</title>
<g id="a_node2"><a xlink:href="_graphics_8h.html" target="_top" xlink:title=" ">
<polygon fill="none" stroke="black" points="1691.62,-183.5 1691.62,-203.5 1788.62,-203.5 1788.62,-183.5 1691.62,-183.5"/>
<text text-anchor="middle" x="1740.12" y="-190" font-family="Helvetica,sans-Serif" font-size="10.00">include/Graphics.h</text>
</a>
</g>
</g>
<!-- Node1&#45;&gt;Node2 -->
<g id="edge1" class="edge">
<title>Node1&#45;&gt;Node2</title>
<path fill="none" stroke="midnightblue" d="M1778.25,-233.33C1768.58,-223.48 1756.6,-211.28 1748.68,-203.21"/>
<polygon fill="midnightblue" stroke="midnightblue" points="1775.18,-235.22 1784.69,-239.91 1780.18,-230.32 1775.18,-235.22"/>
</g>
<!-- Node21 -->
<g id="node21" class="node">
<title>Node21</title>
<g id="a_node21"><a xlink:href="_surface_8cpp.html" target="_top" xlink:title=" ">
<polygon fill="none" stroke="black" points="1807,-183.5 1807,-203.5 1891.25,-203.5 1891.25,-183.5 1807,-183.5"/>
<text text-anchor="middle" x="1849.12" y="-190" font-family="Helvetica,sans-Serif" font-size="10.00">src/Surface.cpp</text>
</a>
</g>
</g>
<!-- Node1&#45;&gt;Node21 -->
<g id="edge46" class="edge">
<title>Node1&#45;&gt;Node21</title>
<path fill="none" stroke="midnightblue" d="M1810.3,-233.33C1820.15,-223.48 1832.34,-211.28 1840.41,-203.21"/>
<polygon fill="midnightblue" stroke="midnightblue" points="1808.31,-230.36 1803.72,-239.91 1813.26,-235.31 1808.31,-230.36"/>
</g>
<!-- Node3 -->
<g id="node3" class="node">
<title>Node3</title>
<g id="a_node3"><a xlink:href="_engine_8h.html" target="_top" xlink:title=" ">
<polygon fill="none" stroke="black" points="1622.12,-63.5 1622.12,-83.5 1710.12,-83.5 1710.12,-63.5 1622.12,-63.5"/>
<text text-anchor="middle" x="1666.12" y="-70" font-family="Helvetica,sans-Serif" font-size="10.00">include/Engine.h</text>
</a>
</g>
</g>
<!-- Node2&#45;&gt;Node3 -->
<g id="edge2" class="edge">
<title>Node2&#45;&gt;Node3</title>
<path fill="none" stroke="midnightblue" d="M1728.92,-174.63C1712.87,-149.04 1683.92,-102.87 1671.75,-83.47"/>
<polygon fill="midnightblue" stroke="midnightblue" points="1726.28,-176.02 1734.56,-182.63 1732.22,-172.3 1726.28,-176.02"/>
</g>
<!-- Node6 -->
<g id="node6" class="node">
<title>Node6</title>
<g id="a_node6"><a xlink:href="_main_window_8cpp.html" target="_top" xlink:title=" ">
<polygon fill="none" stroke="black" points="1731.75,-0.5 1731.75,-20.5 1838.5,-20.5 1838.5,-0.5 1731.75,-0.5"/>
<text text-anchor="middle" x="1785.12" y="-7" font-family="Helvetica,sans-Serif" font-size="10.00">src/MainWindow.cpp</text>
</a>
</g>
</g>
<!-- Node2&#45;&gt;Node6 -->
<g id="edge45" class="edge">
<title>Node2&#45;&gt;Node6</title>
<path fill="none" stroke="midnightblue" d="M1765.33,-178.09C1792.35,-161.02 1833.7,-129.81 1851.12,-90 1857.01,-76.56 1857.94,-69.98 1851.12,-57 1842.07,-39.75 1823.18,-27.76 1807.92,-20.43"/>
<polygon fill="midnightblue" stroke="midnightblue" points="1763.81,-175.53 1757.1,-183.73 1767.45,-181.5 1763.81,-175.53"/>
</g>
<!-- Node7 -->
<g id="node7" class="node">
<title>Node7</title>
<g id="a_node7"><a xlink:href="_main_window_8h.html" target="_top" xlink:title=" ">
<polygon fill="none" stroke="black" points="1728.38,-63.5 1728.38,-83.5 1841.88,-83.5 1841.88,-63.5 1728.38,-63.5"/>
<text text-anchor="middle" x="1785.12" y="-70" font-family="Helvetica,sans-Serif" font-size="10.00">include/MainWindow.h</text>
</a>
</g>
</g>
<!-- Node2&#45;&gt;Node7 -->
<g id="edge6" class="edge">
<title>Node2&#45;&gt;Node7</title>
<path fill="none" stroke="midnightblue" d="M1747.33,-173.6C1757.17,-147.81 1774.4,-102.61 1781.7,-83.47"/>
<polygon fill="midnightblue" stroke="midnightblue" points="1743.8,-172.04 1743.51,-182.63 1750.34,-174.53 1743.8,-172.04"/>
</g>
<!-- Node8 -->
<g id="node8" class="node">
<title>Node8</title>
<g id="a_node8"><a xlink:href="_graphics_8cpp.html" target="_top" xlink:title=" ">
<polygon fill="none" stroke="black" points="1860,-0.5 1860,-20.5 1950.25,-20.5 1950.25,-0.5 1860,-0.5"/>
<text text-anchor="middle" x="1905.12" y="-7" font-family="Helvetica,sans-Serif" font-size="10.00">src/Graphics.cpp</text>
</a>
</g>
</g>
<!-- Node2&#45;&gt;Node8 -->
<g id="edge44" class="edge">
<title>Node2&#45;&gt;Node8</title>
<path fill="none" stroke="midnightblue" d="M1777.65,-179.58C1795.59,-172.08 1816.5,-161.26 1832.12,-147 1872.98,-109.72 1895.49,-44.13 1902.62,-20.39"/>
<polygon fill="midnightblue" stroke="midnightblue" points="1776.49,-176.67 1768.49,-183.61 1779.07,-183.17 1776.49,-176.67"/>
</g>
<!-- Node9 -->
<g id="node9" class="node">
<title>Node9</title>
<g id="a_node9"><a xlink:href="_pube_screen_transformer_8h.html" target="_top" xlink:title=" ">
<polygon fill="none" stroke="black" points="806,-126.5 806,-146.5 968.25,-146.5 968.25,-126.5 806,-126.5"/>
<text text-anchor="middle" x="887.12" y="-133" font-family="Helvetica,sans-Serif" font-size="10.00">include/PubeScreenTransformer.h</text>
</a>
</g>
</g>
<!-- Node2&#45;&gt;Node9 -->
<g id="edge11" class="edge">
<title>Node2&#45;&gt;Node9</title>
<path fill="none" stroke="midnightblue" d="M1681.22,-189.71C1553.91,-183.51 1243.63,-167.51 984.12,-147 978.9,-146.59 973.51,-146.13 968.08,-145.66"/>
<polygon fill="midnightblue" stroke="midnightblue" points="1680.72,-193.24 1690.88,-190.23 1681.06,-186.25 1680.72,-193.24"/>
</g>
<!-- Node20 -->
<g id="node20" class="node">
<title>Node20</title>
<g id="a_node20"><a xlink:href="_scene_8h.html" target="_top" xlink:title=" ">
<polygon fill="none" stroke="black" points="993.25,-126.5 993.25,-146.5 1079,-146.5 1079,-126.5 993.25,-126.5"/>
<text text-anchor="middle" x="1036.12" y="-133" font-family="Helvetica,sans-Serif" font-size="10.00">include/Scene.h</text>
</a>
</g>
</g>
<!-- Node2&#45;&gt;Node20 -->
<g id="edge32" class="edge">
<title>Node2&#45;&gt;Node20</title>
<path fill="none" stroke="midnightblue" d="M1680.94,-187.88C1542.38,-177.05 1199.56,-150.27 1078.94,-140.85"/>
<polygon fill="midnightblue" stroke="midnightblue" points="1680.49,-191.43 1690.74,-188.72 1681.04,-184.45 1680.49,-191.43"/>
</g>
<!-- Node4 -->
<g id="node4" class="node">
<title>Node4</title>
<g id="a_node4"><a xlink:href="_engine_8cpp.html" target="_top" xlink:title=" ">
<polygon fill="none" stroke="black" points="924.5,-0.5 924.5,-20.5 1005.75,-20.5 1005.75,-0.5 924.5,-0.5"/>
<text text-anchor="middle" x="965.12" y="-7" font-family="Helvetica,sans-Serif" font-size="10.00">src/Engine.cpp</text>
</a>
</g>
</g>
<!-- Node3&#45;&gt;Node4 -->
<g id="edge3" class="edge">
<title>Node3&#45;&gt;Node4</title>
<path fill="none" stroke="midnightblue" d="M1629.49,-60.69C1624.05,-59.25 1618.47,-57.96 1613.12,-57 1386.11,-16.32 1108.28,-11.6 1005.69,-11.34"/>
<polygon fill="midnightblue" stroke="midnightblue" points="1628.13,-64.22 1638.7,-63.56 1630.03,-57.48 1628.13,-64.22"/>
</g>
<!-- Node5 -->
<g id="node5" class="node">
<title>Node5</title>
<g id="a_node5"><a xlink:href="_main_8cpp.html" target="_top" xlink:title=" ">
<polygon fill="none" stroke="black" points="1635,-0.5 1635,-20.5 1707.25,-20.5 1707.25,-0.5 1635,-0.5"/>
<text text-anchor="middle" x="1671.12" y="-7" font-family="Helvetica,sans-Serif" font-size="10.00">src/Main.cpp</text>
</a>
</g>
</g>
<!-- Node3&#45;&gt;Node5 -->
<g id="edge4" class="edge">
<title>Node3&#45;&gt;Node5</title>
<path fill="none" stroke="midnightblue" d="M1667.72,-52.99C1668.63,-41.97 1669.71,-28.73 1670.41,-20.22"/>
<polygon fill="midnightblue" stroke="midnightblue" points="1664.17,-52.51 1666.84,-62.76 1671.15,-53.08 1664.17,-52.51"/>
</g>
<!-- Node3&#45;&gt;Node6 -->
<g id="edge5" class="edge">
<title>Node3&#45;&gt;Node6</title>
<path fill="none" stroke="midnightblue" d="M1692.91,-58.77C1715.83,-47.02 1748.14,-30.46 1767.8,-20.38"/>
<polygon fill="midnightblue" stroke="midnightblue" points="1691.73,-55.95 1684.43,-63.63 1694.92,-62.18 1691.73,-55.95"/>
</g>
<!-- Node7&#45;&gt;Node4 -->
<g id="edge7" class="edge">
<title>Node7&#45;&gt;Node4</title>
<path fill="none" stroke="midnightblue" d="M1741.48,-61.15C1734.06,-59.54 1726.4,-58.07 1719.12,-57 1448.58,-17.36 1118.58,-12.11 1005.43,-11.52"/>
<polygon fill="midnightblue" stroke="midnightblue" points="1740.57,-64.76 1751.1,-63.58 1742.13,-57.94 1740.57,-64.76"/>
</g>
<!-- Node7&#45;&gt;Node5 -->
<g id="edge9" class="edge">
<title>Node7&#45;&gt;Node5</title>
<path fill="none" stroke="midnightblue" d="M1759.13,-58.59C1737.23,-46.87 1706.55,-30.45 1687.8,-20.42"/>
<polygon fill="midnightblue" stroke="midnightblue" points="1757.32,-62.13 1767.79,-63.76 1760.63,-55.96 1757.32,-62.13"/>
</g>
<!-- Node7&#45;&gt;Node6 -->
<g id="edge10" class="edge">
<title>Node7&#45;&gt;Node6</title>
<path fill="none" stroke="midnightblue" d="M1785.12,-52.99C1785.12,-41.97 1785.12,-28.73 1785.12,-20.22"/>
<polygon fill="midnightblue" stroke="midnightblue" points="1781.63,-52.76 1785.12,-62.76 1788.63,-52.76 1781.63,-52.76"/>
</g>
<!-- Node7&#45;&gt;Node8 -->
<g id="edge8" class="edge">
<title>Node7&#45;&gt;Node8</title>
<path fill="none" stroke="midnightblue" d="M1812.14,-58.77C1835.25,-47.02 1867.83,-30.46 1887.65,-20.38"/>
<polygon fill="midnightblue" stroke="midnightblue" points="1810.9,-55.98 1803.57,-63.63 1814.07,-62.22 1810.9,-55.98"/>
</g>
<!-- Node10 -->
<g id="node10" class="node">
<title>Node10</title>
<g id="a_node10"><a xlink:href="_con_hex_scene_8h.html" target="_top" xlink:title=" ">
<polygon fill="none" stroke="black" points="174,-63.5 174,-83.5 330.25,-83.5 330.25,-63.5 174,-63.5"/>
<text text-anchor="middle" x="252.12" y="-70" font-family="Helvetica,sans-Serif" font-size="10.00">include/Scenes/ConHexScene.h</text>
</a>
</g>
</g>
<!-- Node9&#45;&gt;Node10 -->
<g id="edge12" class="edge">
<title>Node9&#45;&gt;Node10</title>
<path fill="none" stroke="midnightblue" d="M795.13,-130.5C686.03,-123.95 498.83,-110.81 339.12,-90 325.59,-88.24 310.94,-85.82 297.6,-83.43"/>
<polygon fill="midnightblue" stroke="midnightblue" points="794.9,-134.05 805.09,-131.15 795.32,-127.06 794.9,-134.05"/>
</g>
<!-- Node11 -->
<g id="node11" class="node">
<title>Node11</title>
<g id="a_node11"><a xlink:href="_con_hex_wire_scene_8h.html" target="_top" xlink:title=" ">
<polygon fill="none" stroke="black" points="347.88,-57.5 347.88,-89.5 488.38,-89.5 488.38,-57.5 347.88,-57.5"/>
<text text-anchor="start" x="355.88" y="-76" font-family="Helvetica,sans-Serif" font-size="10.00">include/Scenes/ConHexWire</text>
<text text-anchor="middle" x="418.12" y="-64" font-family="Helvetica,sans-Serif" font-size="10.00">Scene.h</text>
</a>
</g>
</g>
<!-- Node9&#45;&gt;Node11 -->
<g id="edge14" class="edge">
<title>Node9&#45;&gt;Node11</title>
<path fill="none" stroke="midnightblue" d="M795.29,-126.82C716.09,-118.84 598.76,-105.87 497.12,-90 494.23,-89.55 491.27,-89.06 488.29,-88.56"/>
<polygon fill="midnightblue" stroke="midnightblue" points="794.91,-130.4 805.21,-127.91 795.61,-123.43 794.91,-130.4"/>
</g>
<!-- Node12 -->
<g id="node12" class="node">
<title>Node12</title>
<g id="a_node12"><a xlink:href="_cube_order_scene_8h.html" target="_top" xlink:title=" ">
<polygon fill="none" stroke="black" points="506,-57.5 506,-89.5 638.25,-89.5 638.25,-57.5 506,-57.5"/>
<text text-anchor="start" x="514" y="-76" font-family="Helvetica,sans-Serif" font-size="10.00">include/Scenes/CubeOrder</text>
<text text-anchor="middle" x="572.12" y="-64" font-family="Helvetica,sans-Serif" font-size="10.00">Scene.h</text>
</a>
</g>
</g>
<!-- Node9&#45;&gt;Node12 -->
<g id="edge16" class="edge">
<title>Node9&#45;&gt;Node12</title>
<path fill="none" stroke="midnightblue" d="M828.18,-124.6C779.56,-115.55 708.81,-102.22 647.12,-90 644.13,-89.41 641.06,-88.79 637.96,-88.17"/>
<polygon fill="midnightblue" stroke="midnightblue" points="827.34,-128.19 837.81,-126.58 828.62,-121.31 827.34,-128.19"/>
</g>
<!-- Node13 -->
<g id="node13" class="node">
<title>Node13</title>
<g id="a_node13"><a xlink:href="_cube_skinned_scene_8h.html" target="_top" xlink:title=" ">
<polygon fill="none" stroke="black" points="656.38,-57.5 656.38,-89.5 799.88,-89.5 799.88,-57.5 656.38,-57.5"/>
<text text-anchor="start" x="664.38" y="-76" font-family="Helvetica,sans-Serif" font-size="10.00">include/Scenes/CubeSkinned</text>
<text text-anchor="middle" x="728.12" y="-64" font-family="Helvetica,sans-Serif" font-size="10.00">Scene.h</text>
</a>
</g>
</g>
<!-- Node9&#45;&gt;Node13 -->
<g id="edge18" class="edge">
<title>Node9&#45;&gt;Node13</title>
<path fill="none" stroke="midnightblue" d="M853.79,-122.71C828.46,-112.99 793.56,-99.6 766.97,-89.4"/>
<polygon fill="midnightblue" stroke="midnightblue" points="852.41,-126.32 863.01,-126.63 854.92,-119.78 852.41,-126.32"/>
</g>
<!-- Node14 -->
<g id="node14" class="node">
<title>Node14</title>
<g id="a_node14"><a xlink:href="_folded_cube_scene_8h.html" target="_top" xlink:title=" ">
<polygon fill="none" stroke="black" points="818.38,-57.5 818.38,-89.5 955.88,-89.5 955.88,-57.5 818.38,-57.5"/>
<text text-anchor="start" x="826.38" y="-76" font-family="Helvetica,sans-Serif" font-size="10.00">include/Scenes/FoldedCube</text>
<text text-anchor="middle" x="887.12" y="-64" font-family="Helvetica,sans-Serif" font-size="10.00">Scene.h</text>
</a>
</g>
</g>
<!-- Node9&#45;&gt;Node14 -->
<g id="edge20" class="edge">
<title>Node9&#45;&gt;Node14</title>
<path fill="none" stroke="midnightblue" d="M887.12,-115.83C887.12,-107.23 887.12,-97.31 887.12,-89.35"/>
<polygon fill="midnightblue" stroke="midnightblue" points="883.63,-115.76 887.12,-125.76 890.63,-115.76 883.63,-115.76"/>
</g>
<!-- Node15 -->
<g id="node15" class="node">
<title>Node15</title>
<g id="a_node15"><a xlink:href="_folded_cube_wrap_scene_8h.html" target="_top" xlink:title=" ">
<polygon fill="none" stroke="black" points="974.38,-57.5 974.38,-89.5 1111.88,-89.5 1111.88,-57.5 974.38,-57.5"/>
<text text-anchor="start" x="982.38" y="-76" font-family="Helvetica,sans-Serif" font-size="10.00">include/Scenes/FoldedCube</text>
<text text-anchor="middle" x="1043.12" y="-64" font-family="Helvetica,sans-Serif" font-size="10.00">WrapScene.h</text>
</a>
</g>
</g>
<!-- Node9&#45;&gt;Node15 -->
<g id="edge22" class="edge">
<title>Node9&#45;&gt;Node15</title>
<path fill="none" stroke="midnightblue" d="M919.83,-122.71C944.69,-112.99 978.92,-99.6 1005.02,-89.4"/>
<polygon fill="midnightblue" stroke="midnightblue" points="918.85,-119.73 910.81,-126.63 921.4,-126.25 918.85,-119.73"/>
</g>
<!-- Node16 -->
<g id="node16" class="node">
<title>Node16</title>
<g id="a_node16"><a xlink:href="_solid_cube_scene_8h.html" target="_top" xlink:title=" ">
<polygon fill="none" stroke="black" points="1130.12,-57.5 1130.12,-89.5 1260.12,-89.5 1260.12,-57.5 1130.12,-57.5"/>
<text text-anchor="start" x="1138.12" y="-76" font-family="Helvetica,sans-Serif" font-size="10.00">include/Scenes/SolidCube</text>
<text text-anchor="middle" x="1195.12" y="-64" font-family="Helvetica,sans-Serif" font-size="10.00">Scene.h</text>
</a>
</g>
</g>
<!-- Node9&#45;&gt;Node16 -->
<g id="edge24" class="edge">
<title>Node9&#45;&gt;Node16</title>
<path fill="none" stroke="midnightblue" d="M944.89,-124.51C992.28,-115.43 1061.1,-102.12 1121.12,-90 1124.08,-89.4 1127.11,-88.79 1130.16,-88.16"/>
<polygon fill="midnightblue" stroke="midnightblue" points="944.39,-121.23 935.23,-126.55 945.7,-128.11 944.39,-121.23"/>
</g>
<!-- Node17 -->
<g id="node17" class="node">
<title>Node17</title>
<g id="a_node17"><a xlink:href="_tex_cube_scene_8h.html" target="_top" xlink:title=" ">
<polygon fill="none" stroke="black" points="1278.12,-63.5 1278.12,-83.5 1438.12,-83.5 1438.12,-63.5 1278.12,-63.5"/>
<text text-anchor="middle" x="1358.12" y="-70" font-family="Helvetica,sans-Serif" font-size="10.00">include/Scenes/TexCubeScene.h</text>
</a>
</g>
</g>
<!-- Node9&#45;&gt;Node17 -->
<g id="edge26" class="edge">
<title>Node9&#45;&gt;Node17</title>
<path fill="none" stroke="midnightblue" d="M978.84,-125.98C1056.33,-117.6 1170.19,-104.5 1269.12,-90 1282.32,-88.07 1296.56,-85.71 1309.7,-83.42"/>
<polygon fill="midnightblue" stroke="midnightblue" points="978.72,-122.58 969.15,-127.13 979.47,-129.54 978.72,-122.58"/>
</g>
<!-- Node18 -->
<g id="node18" class="node">
<title>Node18</title>
<g id="a_node18"><a xlink:href="_tex_wrap_cube_scene_8h.html" target="_top" xlink:title=" ">
<polygon fill="none" stroke="black" points="1456.5,-57.5 1456.5,-89.5 1603.75,-89.5 1603.75,-57.5 1456.5,-57.5"/>
<text text-anchor="start" x="1464.5" y="-76" font-family="Helvetica,sans-Serif" font-size="10.00">include/Scenes/TexWrapCube</text>
<text text-anchor="middle" x="1530.12" y="-64" font-family="Helvetica,sans-Serif" font-size="10.00">Scene.h</text>
</a>
</g>
</g>
<!-- Node9&#45;&gt;Node18 -->
<g id="edge28" class="edge">
<title>Node9&#45;&gt;Node18</title>
<path fill="none" stroke="midnightblue" d="M978.69,-126.48C980.51,-126.32 982.33,-126.16 984.12,-126 1189.73,-107.94 1242.5,-116.98 1447.12,-90 1450.32,-89.58 1453.58,-89.11 1456.87,-88.62"/>
<polygon fill="midnightblue" stroke="midnightblue" points="978.73,-123.05 969.09,-127.45 979.37,-130.03 978.73,-123.05"/>
</g>
<!-- Node19 -->
<g id="node19" class="node">
<title>Node19</title>
<g id="a_node19"><a xlink:href="_x_mutual_scene_8h.html" target="_top" xlink:title=" ">
<polygon fill="none" stroke="black" points="0,-63.5 0,-83.5 156.25,-83.5 156.25,-63.5 0,-63.5"/>
<text text-anchor="middle" x="78.12" y="-70" font-family="Helvetica,sans-Serif" font-size="10.00">include/Scenes/XMutualScene.h</text>
</a>
</g>
</g>
<!-- Node9&#45;&gt;Node19 -->
<g id="edge30" class="edge">
<title>Node9&#45;&gt;Node19</title>
<path fill="none" stroke="midnightblue" d="M795.31,-133.05C657.86,-128.62 390.64,-117.11 165.12,-90 151.26,-88.33 136.26,-85.89 122.69,-83.44"/>
<polygon fill="midnightblue" stroke="midnightblue" points="795.08,-136.57 805.18,-133.39 795.3,-129.58 795.08,-136.57"/>
</g>
<!-- Node10&#45;&gt;Node4 -->
<g id="edge13" class="edge">
<title>Node10&#45;&gt;Node4</title>
<path fill="none" stroke="midnightblue" d="M307.78,-61.7C318.17,-59.94 328.96,-58.27 339.12,-57 559.16,-29.48 824.94,-16.96 924.7,-12.98"/>
<polygon fill="midnightblue" stroke="midnightblue" points="307.39,-58.39 298.14,-63.56 308.6,-65.28 307.39,-58.39"/>
</g>
<!-- Node11&#45;&gt;Node4 -->
<g id="edge15" class="edge">
<title>Node11&#45;&gt;Node4</title>
<path fill="none" stroke="midnightblue" d="M499.01,-56.81C662.49,-33.37 844.99,-19.53 924.59,-14.11"/>
<polygon fill="midnightblue" stroke="midnightblue" points="498.67,-53.47 489.28,-58.37 499.67,-60.4 498.67,-53.47"/>
</g>
<!-- Node12&#45;&gt;Node4 -->
<g id="edge17" class="edge">
<title>Node12&#45;&gt;Node4</title>
<path fill="none" stroke="midnightblue" d="M648.77,-56.78C754.17,-38.63 866.04,-23.87 924.59,-16.49"/>
<polygon fill="midnightblue" stroke="midnightblue" points="648.18,-53.5 638.93,-58.66 649.38,-60.4 648.18,-53.5"/>
</g>
<!-- Node13&#45;&gt;Node4 -->
<g id="edge19" class="edge">
<title>Node13&#45;&gt;Node4</title>
<path fill="none" stroke="midnightblue" d="M796.7,-54.85C840.53,-43.57 895.51,-29.42 930.49,-20.42"/>
<polygon fill="midnightblue" stroke="midnightblue" points="795.91,-51.7 787.1,-57.58 797.66,-58.47 795.91,-51.7"/>
</g>
<!-- Node14&#45;&gt;Node4 -->
<g id="edge21" class="edge">
<title>Node14&#45;&gt;Node4</title>
<path fill="none" stroke="midnightblue" d="M914.53,-51.07C928.06,-40.49 943.64,-28.31 953.89,-20.28"/>
<polygon fill="midnightblue" stroke="midnightblue" points="912.73,-48.82 907.01,-57.73 917.04,-54.33 912.73,-48.82"/>
</g>
<!-- Node15&#45;&gt;Node4 -->
<g id="edge23" class="edge">
<title>Node15&#45;&gt;Node4</title>
<path fill="none" stroke="midnightblue" d="M1015.72,-51.07C1002.19,-40.49 986.61,-28.31 976.36,-20.28"/>
<polygon fill="midnightblue" stroke="midnightblue" points="1013.21,-54.33 1023.24,-57.73 1017.52,-48.82 1013.21,-54.33"/>
</g>
<!-- Node16&#45;&gt;Node4 -->
<g id="edge25" class="edge">
<title>Node16&#45;&gt;Node4</title>
<path fill="none" stroke="midnightblue" d="M1128.31,-54.78C1085.82,-43.51 1032.62,-29.4 998.74,-20.42"/>
<polygon fill="midnightblue" stroke="midnightblue" points="1127.3,-58.4 1137.86,-57.58 1129.09,-51.63 1127.3,-58.4"/>
</g>
<!-- Node17&#45;&gt;Node4 -->
<g id="edge27" class="edge">
<title>Node17&#45;&gt;Node4</title>
<path fill="none" stroke="midnightblue" d="M1296.98,-61.65C1287.66,-60.06 1278.14,-58.46 1269.12,-57 1174.83,-41.73 1063.77,-25.57 1005.5,-17.23"/>
<polygon fill="midnightblue" stroke="midnightblue" points="1296.35,-65.27 1306.8,-63.52 1297.54,-58.37 1296.35,-65.27"/>
</g>
<!-- Node18&#45;&gt;Node4 -->
<g id="edge29" class="edge">
<title>Node18&#45;&gt;Node4</title>
<path fill="none" stroke="midnightblue" d="M1446.21,-56.96C1276.21,-33.55 1086.91,-19.52 1005.58,-14.08"/>
<polygon fill="midnightblue" stroke="midnightblue" points="1445.48,-60.53 1455.86,-58.45 1446.44,-53.6 1445.48,-60.53"/>
</g>
<!-- Node19&#45;&gt;Node4 -->
<g id="edge31" class="edge">
<title>Node19&#45;&gt;Node4</title>
<path fill="none" stroke="midnightblue" d="M133.42,-61.63C143.92,-59.85 154.83,-58.21 165.12,-57 454.94,-23.07 806.89,-14.19 924.6,-12.1"/>
<polygon fill="midnightblue" stroke="midnightblue" points="132.93,-58.33 123.68,-63.51 134.13,-65.23 132.93,-58.33"/>
</g>
<!-- Node20&#45;&gt;Node3 -->
<g id="edge33" class="edge">
<title>Node20&#45;&gt;Node3</title>
<path fill="none" stroke="midnightblue" d="M1089.85,-134.94C1192.41,-133.06 1422.84,-124.94 1613.12,-90 1621.8,-88.41 1631.08,-85.96 1639.42,-83.47"/>
<polygon fill="midnightblue" stroke="midnightblue" points="1089.8,-131.46 1079.86,-135.13 1089.92,-138.46 1089.8,-131.46"/>
</g>
<!-- Node20&#45;&gt;Node10 -->
<g id="edge34" class="edge">
<title>Node20&#45;&gt;Node10</title>
<path fill="none" stroke="midnightblue" d="M982.62,-126.64C980.77,-126.41 978.93,-126.2 977.12,-126 694.77,-95.39 621.21,-122.97 339.12,-90 325.26,-88.38 310.26,-85.95 296.68,-83.5"/>
<polygon fill="midnightblue" stroke="midnightblue" points="981.96,-130.21 992.34,-128.08 982.89,-123.28 981.96,-130.21"/>
</g>
<!-- Node20&#45;&gt;Node11 -->
<g id="edge35" class="edge">
<title>Node20&#45;&gt;Node11</title>
<path fill="none" stroke="midnightblue" d="M982.62,-126.68C980.77,-126.44 978.93,-126.21 977.12,-126 764.66,-100.97 709.13,-118.64 497.12,-90 494.22,-89.61 491.25,-89.17 488.26,-88.71"/>
<polygon fill="midnightblue" stroke="midnightblue" points="981.94,-130.26 992.33,-128.17 982.9,-123.33 981.94,-130.26"/>
</g>
<!-- Node20&#45;&gt;Node12 -->
<g id="edge36" class="edge">
<title>Node20&#45;&gt;Node12</title>
<path fill="none" stroke="midnightblue" d="M982.61,-126.76C980.76,-126.5 978.93,-126.24 977.12,-126 830.91,-106.27 792.86,-112.96 647.12,-90 644.1,-89.52 641.02,-89.01 637.91,-88.46"/>
<polygon fill="midnightblue" stroke="midnightblue" points="981.9,-130.34 992.3,-128.34 982.92,-123.42 981.9,-130.34"/>
</g>
<!-- Node20&#45;&gt;Node13 -->
<g id="edge37" class="edge">
<title>Node20&#45;&gt;Node13</title>
<path fill="none" stroke="midnightblue" d="M982.59,-124.9C931.99,-114.88 855.72,-99.77 799.87,-88.71"/>
<polygon fill="midnightblue" stroke="midnightblue" points="981.81,-128.51 992.3,-127.02 983.17,-121.64 981.81,-128.51"/>
</g>
<!-- Node20&#45;&gt;Node14 -->
<g id="edge38" class="edge">
<title>Node20&#45;&gt;Node14</title>
<path fill="none" stroke="midnightblue" d="M1004.57,-122.58C980.85,-112.87 948.33,-99.56 923.52,-89.4"/>
<polygon fill="midnightblue" stroke="midnightblue" points="1002.88,-126.08 1013.46,-126.63 1005.53,-119.6 1002.88,-126.08"/>
</g>
<!-- Node20&#45;&gt;Node15 -->
<g id="edge39" class="edge">
<title>Node20&#45;&gt;Node15</title>
<path fill="none" stroke="midnightblue" d="M1038.35,-116.12C1039.34,-107.46 1040.5,-97.4 1041.42,-89.35"/>
<polygon fill="midnightblue" stroke="midnightblue" points="1034.79,-115.43 1037.13,-125.76 1041.75,-116.22 1034.79,-115.43"/>
</g>
<!-- Node20&#45;&gt;Node16 -->
<g id="edge40" class="edge">
<title>Node20&#45;&gt;Node16</title>
<path fill="none" stroke="midnightblue" d="M1069.46,-122.71C1094.79,-112.99 1129.69,-99.6 1156.28,-89.4"/>
<polygon fill="midnightblue" stroke="midnightblue" points="1068.33,-119.78 1060.24,-126.63 1070.84,-126.32 1068.33,-119.78"/>
</g>
<!-- Node20&#45;&gt;Node17 -->
<g id="edge41" class="edge">
<title>Node20&#45;&gt;Node17</title>
<path fill="none" stroke="midnightblue" d="M1089.56,-125.38C1151.24,-113.69 1251.74,-94.65 1310.74,-83.48"/>
<polygon fill="midnightblue" stroke="midnightblue" points="1089.06,-122.1 1079.88,-127.4 1090.36,-128.98 1089.06,-122.1"/>
</g>
<!-- Node20&#45;&gt;Node18 -->
<g id="edge42" class="edge">
<title>Node20&#45;&gt;Node18</title>
<path fill="none" stroke="midnightblue" d="M1089.45,-130.87C1167.99,-123.77 1319.28,-108.99 1447.12,-90 1450.31,-89.53 1453.57,-89.02 1456.85,-88.49"/>
<polygon fill="midnightblue" stroke="midnightblue" points="1089.51,-127.44 1079.86,-131.82 1090.13,-134.42 1089.51,-127.44"/>
</g>
<!-- Node20&#45;&gt;Node19 -->
<g id="edge43" class="edge">
<title>Node20&#45;&gt;Node19</title>
<path fill="none" stroke="midnightblue" d="M982.63,-126.61C980.77,-126.39 978.93,-126.19 977.12,-126 617.76,-89.23 524.17,-129.77 165.12,-90 150.94,-88.43 135.58,-85.95 121.77,-83.44"/>
<polygon fill="midnightblue" stroke="midnightblue" points="981.97,-130.18 992.34,-128.02 982.88,-123.24 981.97,-130.18"/>
</g>
</g>
</svg>
