<?xml version="1.0" encoding="UTF-8" standalone="no"?>
<!DOCTYPE svg PUBLIC "-//W3C//DTD SVG 1.1//EN"
 "http://www.w3.org/Graphics/SVG/1.1/DTD/svg11.dtd">
<!-- Generated by graphviz version 8.1.0 (20230707.0739)
 -->
<!-- Title: src/Surface.cpp Pages: 1 -->
<svg width="625pt" height="314pt"
 viewBox="0.00 0.00 625.12 314.00" xmlns="http://www.w3.org/2000/svg" xmlns:xlink="http://www.w3.org/1999/xlink">
<g id="graph0" class="graph" transform="scale(1 1) rotate(0) translate(4 310)">
<title>src/Surface.cpp</title>
<!-- Node1 -->
<g id="node1" class="node">
<title>Node1</title>
<g id="a_node1"><a xlink:title=" ">
<polygon fill="#bfbfbf" stroke="black" points="268.88,-285.5 268.88,-305.5 353.12,-305.5 353.12,-285.5 268.88,-285.5"/>
<text text-anchor="middle" x="311" y="-292" font-family="Helvetica,sans-Serif" font-size="10.00">src/Surface.cpp</text>
</a>
</g>
</g>
<!-- Node2 -->
<g id="node2" class="node">
<title>Node2</title>
<g id="a_node2"><a xlink:href="_surface_8h.html" target="_top" xlink:title=" ">
<polygon fill="none" stroke="black" points="245.38,-228.5 245.38,-248.5 302.62,-248.5 302.62,-228.5 245.38,-228.5"/>
<text text-anchor="middle" x="274" y="-235" font-family="Helvetica,sans-Serif" font-size="10.00">Surface.h</text>
</a>
</g>
</g>
<!-- Node1&#45;&gt;Node2 -->
<g id="edge1" class="edge">
<title>Node1&#45;&gt;Node2</title>
<path fill="none" stroke="midnightblue" d="M305.22,-285.91C300.09,-278.28 292.43,-266.9 285.99,-257.32"/>
<polygon fill="midnightblue" stroke="midnightblue" points="288.35,-255.56 279.86,-249.21 282.54,-259.47 288.35,-255.56"/>
</g>
<!-- Node13 -->
<g id="node13" class="node">
<title>Node13</title>
<g id="a_node13"><a xlink:title=" ">
<polygon fill="none" stroke="#bfbfbf" points="63.25,-0.5 63.25,-20.5 116.75,-20.5 116.75,-0.5 63.25,-0.5"/>
<text text-anchor="middle" x="90" y="-7" font-family="Helvetica,sans-Serif" font-size="10.00">iostream</text>
</a>
</g>
</g>
<!-- Node1&#45;&gt;Node13 -->
<g id="edge32" class="edge">
<title>Node1&#45;&gt;Node13</title>
<path fill="none" stroke="midnightblue" d="M269.06,-288.4C184.17,-274.88 0,-239.03 0,-182.5 0,-182.5 0,-182.5 0,-123.5 0,-80.88 40.09,-45.26 66.76,-26.28"/>
<polygon fill="midnightblue" stroke="midnightblue" points="68.26,-28.81 74.54,-20.28 64.31,-23.03 68.26,-28.81"/>
</g>
<!-- Node15 -->
<g id="node15" class="node">
<title>Node15</title>
<g id="a_node15"><a xlink:href="_win_8h.html" target="_top" xlink:title=" ">
<polygon fill="none" stroke="black" points="128.25,-171.5 128.25,-191.5 169.75,-191.5 169.75,-171.5 128.25,-171.5"/>
<text text-anchor="middle" x="149" y="-178" font-family="Helvetica,sans-Serif" font-size="10.00">Win.h</text>
</a>
</g>
</g>
<!-- Node1&#45;&gt;Node15 -->
<g id="edge28" class="edge">
<title>Node1&#45;&gt;Node15</title>
<path fill="none" stroke="midnightblue" d="M295.18,-285.57C279.78,-276.72 255.87,-262.57 236,-249 211.8,-232.48 185.2,-211.75 167.87,-197.86"/>
<polygon fill="midnightblue" stroke="midnightblue" points="170.69,-194.84 160.71,-191.28 166.3,-200.28 170.69,-194.84"/>
</g>
<!-- Node23 -->
<g id="node23" class="node">
<title>Node23</title>
<g id="a_node23"><a xlink:title=" ">
<polygon fill="none" stroke="#bfbfbf" points="320.5,-228.5 320.5,-248.5 375.5,-248.5 375.5,-228.5 320.5,-228.5"/>
<text text-anchor="middle" x="348" y="-235" font-family="Helvetica,sans-Serif" font-size="10.00">gdiplus.h</text>
</a>
</g>
</g>
<!-- Node1&#45;&gt;Node23 -->
<g id="edge29" class="edge">
<title>Node1&#45;&gt;Node23</title>
<path fill="none" stroke="midnightblue" d="M316.78,-285.91C321.91,-278.28 329.57,-266.9 336.01,-257.32"/>
<polygon fill="midnightblue" stroke="midnightblue" points="339.46,-259.47 342.14,-249.21 333.65,-255.56 339.46,-259.47"/>
</g>
<!-- Node24 -->
<g id="node24" class="node">
<title>Node24</title>
<g id="a_node24"><a xlink:title=" ">
<polygon fill="none" stroke="#bfbfbf" points="393.38,-228.5 393.38,-248.5 444.62,-248.5 444.62,-228.5 393.38,-228.5"/>
<text text-anchor="middle" x="419" y="-235" font-family="Helvetica,sans-Serif" font-size="10.00">sstream</text>
</a>
</g>
</g>
<!-- Node1&#45;&gt;Node24 -->
<g id="edge30" class="edge">
<title>Node1&#45;&gt;Node24</title>
<path fill="none" stroke="midnightblue" d="M328.35,-285.66C345.41,-276.97 371.71,-263.58 391.6,-253.45"/>
<polygon fill="midnightblue" stroke="midnightblue" points="393.01,-256.15 400.33,-248.5 389.83,-249.92 393.01,-256.15"/>
</g>
<!-- Node25 -->
<g id="node25" class="node">
<title>Node25</title>
<g id="a_node25"><a xlink:title=" ">
<polygon fill="none" stroke="#bfbfbf" points="462.25,-228.5 462.25,-248.5 503.75,-248.5 503.75,-228.5 462.25,-228.5"/>
<text text-anchor="middle" x="483" y="-235" font-family="Helvetica,sans-Serif" font-size="10.00">vector</text>
</a>
</g>
</g>
<!-- Node1&#45;&gt;Node25 -->
<g id="edge31" class="edge">
<title>Node1&#45;&gt;Node25</title>
<path fill="none" stroke="midnightblue" d="M339.51,-285.51C366.3,-277.04 407.78,-263.89 452.03,-249.62"/>
<polygon fill="midnightblue" stroke="midnightblue" points="452.97,-252.67 461.41,-246.27 450.82,-246.01 452.97,-252.67"/>
</g>
<!-- Node3 -->
<g id="node3" class="node">
<title>Node3</title>
<g id="a_node3"><a xlink:href="_colors_8h.html" target="_top" xlink:title=" ">
<polygon fill="none" stroke="black" points="194,-171.5 194,-191.5 246,-191.5 246,-171.5 194,-171.5"/>
<text text-anchor="middle" x="220" y="-178" font-family="Helvetica,sans-Serif" font-size="10.00">Colors.h</text>
</a>
</g>
</g>
<!-- Node2&#45;&gt;Node3 -->
<g id="edge2" class="edge">
<title>Node2&#45;&gt;Node3</title>
<path fill="none" stroke="midnightblue" d="M265.56,-228.91C257.68,-220.88 245.72,-208.69 236.02,-198.82"/>
<polygon fill="midnightblue" stroke="midnightblue" points="239.06,-196.9 229.56,-192.21 234.06,-201.8 239.06,-196.9"/>
</g>
<!-- Node2&#45;&gt;Node15 -->
<g id="edge19" class="edge">
<title>Node2&#45;&gt;Node15</title>
<path fill="none" stroke="midnightblue" d="M253.64,-228.54C233.48,-219.67 202.38,-205.99 179.32,-195.84"/>
<polygon fill="midnightblue" stroke="midnightblue" points="180.92,-192.28 170.35,-191.46 178.1,-198.69 180.92,-192.28"/>
</g>
<!-- Node18 -->
<g id="node18" class="node">
<title>Node18</title>
<g id="a_node18"><a xlink:href="_engine_exception_8h.html" target="_top" xlink:title=" ">
<polygon fill="none" stroke="black" points="302.12,-171.5 302.12,-191.5 399.88,-191.5 399.88,-171.5 302.12,-171.5"/>
<text text-anchor="middle" x="351" y="-178" font-family="Helvetica,sans-Serif" font-size="10.00">EngineException.h</text>
</a>
</g>
</g>
<!-- Node2&#45;&gt;Node18 -->
<g id="edge22" class="edge">
<title>Node2&#45;&gt;Node18</title>
<path fill="none" stroke="midnightblue" d="M286.37,-228.66C297.98,-220.37 315.58,-207.8 329.49,-197.87"/>
<polygon fill="midnightblue" stroke="midnightblue" points="331.3,-200.16 337.4,-191.5 327.23,-194.46 331.3,-200.16"/>
</g>
<!-- Node19 -->
<g id="node19" class="node">
<title>Node19</title>
<g id="a_node19"><a xlink:title=" ">
<polygon fill="none" stroke="#bfbfbf" points="334,-114.5 334,-134.5 374,-134.5 374,-114.5 334,-114.5"/>
<text text-anchor="middle" x="354" y="-121" font-family="Helvetica,sans-Serif" font-size="10.00">string</text>
</a>
</g>
</g>
<!-- Node2&#45;&gt;Node19 -->
<g id="edge26" class="edge">
<title>Node2&#45;&gt;Node19</title>
<path fill="none" stroke="midnightblue" d="M274.73,-228.55C276.22,-215.01 280.59,-188.99 293,-171 301.76,-158.3 315.23,-147.72 327.28,-139.97"/>
<polygon fill="midnightblue" stroke="midnightblue" points="328.78,-142.54 335.52,-134.37 325.15,-136.56 328.78,-142.54"/>
</g>
<!-- Node20 -->
<g id="node20" class="node">
<title>Node20</title>
<g id="a_node20"><a xlink:title=" ">
<polygon fill="none" stroke="#bfbfbf" points="418.38,-171.5 418.38,-191.5 469.62,-191.5 469.62,-171.5 418.38,-171.5"/>
<text text-anchor="middle" x="444" y="-178" font-family="Helvetica,sans-Serif" font-size="10.00">assert.h</text>
</a>
</g>
</g>
<!-- Node2&#45;&gt;Node20 -->
<g id="edge24" class="edge">
<title>Node2&#45;&gt;Node20</title>
<path fill="none" stroke="midnightblue" d="M301.69,-228.54C330.77,-219.13 376.6,-204.31 408.36,-194.03"/>
<polygon fill="midnightblue" stroke="midnightblue" points="409.11,-197.14 417.54,-190.74 406.95,-190.48 409.11,-197.14"/>
</g>
<!-- Node21 -->
<g id="node21" class="node">
<title>Node21</title>
<g id="a_node21"><a xlink:title=" ">
<polygon fill="none" stroke="#bfbfbf" points="487.38,-171.5 487.38,-191.5 538.62,-191.5 538.62,-171.5 487.38,-171.5"/>
<text text-anchor="middle" x="513" y="-178" font-family="Helvetica,sans-Serif" font-size="10.00">memory</text>
</a>
</g>
</g>
<!-- Node2&#45;&gt;Node21 -->
<g id="edge25" class="edge">
<title>Node2&#45;&gt;Node21</title>
<path fill="none" stroke="midnightblue" d="M302.25,-230.12C305.2,-229.39 308.16,-228.67 311,-228 382.14,-211.25 403.08,-210.33 477.12,-192.36"/>
<polygon fill="midnightblue" stroke="midnightblue" points="477.55,-195.61 486.42,-189.83 475.88,-188.81 477.55,-195.61"/>
</g>
<!-- Node22 -->
<g id="node22" class="node">
<title>Node22</title>
<g id="a_node22"><a xlink:title=" ">
<polygon fill="none" stroke="#bfbfbf" points="556.88,-171.5 556.88,-191.5 617.12,-191.5 617.12,-171.5 556.88,-171.5"/>
<text text-anchor="middle" x="587" y="-178" font-family="Helvetica,sans-Serif" font-size="10.00">filesystem</text>
</a>
</g>
</g>
<!-- Node2&#45;&gt;Node22 -->
<g id="edge27" class="edge">
<title>Node2&#45;&gt;Node22</title>
<path fill="none" stroke="midnightblue" d="M302.62,-229.85C305.44,-229.19 308.27,-228.56 311,-228 412.03,-207.41 441.59,-212.28 546.51,-192.13"/>
<polygon fill="midnightblue" stroke="midnightblue" points="547.11,-195.39 556.25,-190.03 545.76,-188.52 547.11,-195.39"/>
</g>
<!-- Node4 -->
<g id="node4" class="node">
<title>Node4</title>
<g id="a_node4"><a xlink:href="_vector3_8h.html" target="_top" xlink:title=" ">
<polygon fill="none" stroke="black" points="195.88,-114.5 195.88,-134.5 316.12,-134.5 316.12,-114.5 195.88,-114.5"/>
<text text-anchor="middle" x="256" y="-121" font-family="Helvetica,sans-Serif" font-size="10.00">LinearAlgebra/Vector3.h</text>
</a>
</g>
</g>
<!-- Node3&#45;&gt;Node4 -->
<g id="edge3" class="edge">
<title>Node3&#45;&gt;Node4</title>
<path fill="none" stroke="midnightblue" d="M225.62,-171.91C230.62,-164.28 238.06,-152.9 244.34,-143.32"/>
<polygon fill="midnightblue" stroke="midnightblue" points="247.75,-145.5 250.3,-135.21 241.89,-141.67 247.75,-145.5"/>
</g>
<!-- Node5 -->
<g id="node5" class="node">
<title>Node5</title>
<g id="a_node5"><a xlink:href="_math_8h.html" target="_top" xlink:title=" ">
<polygon fill="none" stroke="black" points="348,-57.5 348,-77.5 394,-77.5 394,-57.5 348,-57.5"/>
<text text-anchor="middle" x="371" y="-64" font-family="Helvetica,sans-Serif" font-size="10.00">Math.h</text>
</a>
</g>
</g>
<!-- Node4&#45;&gt;Node5 -->
<g id="edge4" class="edge">
<title>Node4&#45;&gt;Node5</title>
<path fill="none" stroke="midnightblue" d="M274.73,-114.54C293.11,-105.75 321.38,-92.23 342.53,-82.11"/>
<polygon fill="midnightblue" stroke="midnightblue" points="343.76,-84.93 351.28,-77.46 340.74,-78.61 343.76,-84.93"/>
</g>
<!-- Node10 -->
<g id="node10" class="node">
<title>Node10</title>
<g id="a_node10"><a xlink:href="_matrix3_8h.html" target="_top" xlink:title=" ">
<polygon fill="none" stroke="black" points="227.75,-57.5 227.75,-77.5 284.25,-77.5 284.25,-57.5 227.75,-57.5"/>
<text text-anchor="middle" x="256" y="-64" font-family="Helvetica,sans-Serif" font-size="10.00">Matrix3.h</text>
</a>
</g>
</g>
<!-- Node4&#45;&gt;Node10 -->
<g id="edge10" class="edge">
<title>Node4&#45;&gt;Node10</title>
<path fill="none" stroke="midnightblue" d="M256,-114.91C256,-107.76 256,-97.32 256,-88.15"/>
<polygon fill="midnightblue" stroke="midnightblue" points="259.5,-88.21 256,-78.21 252.5,-88.21 259.5,-88.21"/>
</g>
<!-- Node11 -->
<g id="node11" class="node">
<title>Node11</title>
<g id="a_node11"><a xlink:title=" ">
<polygon fill="none" stroke="#bfbfbf" points="228.12,-0.5 228.12,-20.5 265.88,-20.5 265.88,-0.5 228.12,-0.5"/>
<text text-anchor="middle" x="247" y="-7" font-family="Helvetica,sans-Serif" font-size="10.00">array</text>
</a>
</g>
</g>
<!-- Node4&#45;&gt;Node11 -->
<g id="edge15" class="edge">
<title>Node4&#45;&gt;Node11</title>
<path fill="none" stroke="midnightblue" d="M266.73,-114.79C280.63,-102.37 302.06,-78.7 293,-57 288.08,-45.22 278.46,-34.93 269.28,-27.13"/>
<polygon fill="midnightblue" stroke="midnightblue" points="271.81,-23.88 261.79,-20.44 267.49,-29.38 271.81,-23.88"/>
</g>
<!-- Node12 -->
<g id="node12" class="node">
<title>Node12</title>
<g id="a_node12"><a xlink:title=" ">
<polygon fill="none" stroke="#bfbfbf" points="149.25,-0.5 149.25,-20.5 196.75,-20.5 196.75,-0.5 149.25,-0.5"/>
<text text-anchor="middle" x="173" y="-7" font-family="Helvetica,sans-Serif" font-size="10.00">cstddef</text>
</a>
</g>
</g>
<!-- Node4&#45;&gt;Node12 -->
<g id="edge18" class="edge">
<title>Node4&#45;&gt;Node12</title>
<path fill="none" stroke="midnightblue" d="M203.14,-114.56C181.99,-108.11 159.68,-97.03 147,-78 136.74,-62.6 147.29,-42.54 157.87,-28.5"/>
<polygon fill="midnightblue" stroke="midnightblue" points="160.99,-31.21 164.6,-21.25 155.57,-26.78 160.99,-31.21"/>
</g>
<!-- Node4&#45;&gt;Node13 -->
<g id="edge16" class="edge">
<title>Node4&#45;&gt;Node13</title>
<path fill="none" stroke="midnightblue" d="M217.68,-114.52C193.39,-107.47 162.28,-95.82 139,-78 121.96,-64.95 108.09,-44.43 99.52,-29.63"/>
<polygon fill="midnightblue" stroke="midnightblue" points="102.13,-28.13 94.24,-21.06 96,-31.51 102.13,-28.13"/>
</g>
<!-- Node14 -->
<g id="node14" class="node">
<title>Node14</title>
<g id="a_node14"><a xlink:title=" ">
<polygon fill="none" stroke="#bfbfbf" points="156.25,-57.5 156.25,-77.5 209.75,-77.5 209.75,-57.5 156.25,-57.5"/>
<text text-anchor="middle" x="183" y="-64" font-family="Helvetica,sans-Serif" font-size="10.00">compare</text>
</a>
</g>
</g>
<!-- Node4&#45;&gt;Node14 -->
<g id="edge17" class="edge">
<title>Node4&#45;&gt;Node14</title>
<path fill="none" stroke="midnightblue" d="M244.27,-114.66C233.27,-106.37 216.58,-93.8 203.4,-83.87"/>
<polygon fill="midnightblue" stroke="midnightblue" points="206.04,-80.72 195.94,-77.5 201.82,-86.31 206.04,-80.72"/>
</g>
<!-- Node5&#45;&gt;Node5 -->
<g id="edge5" class="edge">
<title>Node5&#45;&gt;Node5</title>
<path fill="none" stroke="midnightblue" d="M389.55,-77.43C401.05,-79.83 412,-76.52 412,-67.5 412,-61.44 407.06,-57.96 400.33,-57.05"/>
<polygon fill="midnightblue" stroke="midnightblue" points="400.37,-53.59 390.55,-57.57 400.71,-60.59 400.37,-53.59"/>
</g>
<!-- Node6 -->
<g id="node6" class="node">
<title>Node6</title>
<g id="a_node6"><a xlink:title=" ">
<polygon fill="none" stroke="#bfbfbf" points="283.5,-0.5 283.5,-20.5 326.5,-20.5 326.5,-0.5 283.5,-0.5"/>
<text text-anchor="middle" x="305" y="-7" font-family="Helvetica,sans-Serif" font-size="10.00">cmath</text>
</a>
</g>
</g>
<!-- Node5&#45;&gt;Node6 -->
<g id="edge6" class="edge">
<title>Node5&#45;&gt;Node6</title>
<path fill="none" stroke="midnightblue" d="M360.4,-57.66C350.64,-49.53 335.94,-37.28 324.13,-27.44"/>
<polygon fill="midnightblue" stroke="midnightblue" points="326.72,-24.21 316.8,-20.5 322.24,-29.59 326.72,-24.21"/>
</g>
<!-- Node7 -->
<g id="node7" class="node">
<title>Node7</title>
<g id="a_node7"><a xlink:title=" ">
<polygon fill="none" stroke="#bfbfbf" points="482.38,-0.5 482.38,-20.5 521.62,-20.5 521.62,-0.5 482.38,-0.5"/>
<text text-anchor="middle" x="502" y="-7" font-family="Helvetica,sans-Serif" font-size="10.00">limits</text>
</a>
</g>
</g>
<!-- Node5&#45;&gt;Node7 -->
<g id="edge7" class="edge">
<title>Node5&#45;&gt;Node7</title>
<path fill="none" stroke="midnightblue" d="M392.34,-57.54C414.06,-48.42 447.92,-34.2 472.27,-23.98"/>
<polygon fill="midnightblue" stroke="midnightblue" points="473.52,-26.83 481.38,-19.74 470.81,-20.38 473.52,-26.83"/>
</g>
<!-- Node8 -->
<g id="node8" class="node">
<title>Node8</title>
<g id="a_node8"><a xlink:title=" ">
<polygon fill="none" stroke="#bfbfbf" points="344.25,-0.5 344.25,-20.5 397.75,-20.5 397.75,-0.5 344.25,-0.5"/>
<text text-anchor="middle" x="371" y="-7" font-family="Helvetica,sans-Serif" font-size="10.00">numbers</text>
</a>
</g>
</g>
<!-- Node5&#45;&gt;Node8 -->
<g id="edge8" class="edge">
<title>Node5&#45;&gt;Node8</title>
<path fill="none" stroke="midnightblue" d="M371,-57.91C371,-50.76 371,-40.32 371,-31.15"/>
<polygon fill="midnightblue" stroke="midnightblue" points="374.5,-31.21 371,-21.21 367.5,-31.21 374.5,-31.21"/>
</g>
<!-- Node9 -->
<g id="node9" class="node">
<title>Node9</title>
<g id="a_node9"><a xlink:title=" ">
<polygon fill="none" stroke="#bfbfbf" points="415.88,-0.5 415.88,-20.5 464.12,-20.5 464.12,-0.5 415.88,-0.5"/>
<text text-anchor="middle" x="440" y="-7" font-family="Helvetica,sans-Serif" font-size="10.00">random</text>
</a>
</g>
</g>
<!-- Node5&#45;&gt;Node9 -->
<g id="edge9" class="edge">
<title>Node5&#45;&gt;Node9</title>
<path fill="none" stroke="midnightblue" d="M382.09,-57.66C392.39,-49.45 407.96,-37.04 420.36,-27.15"/>
<polygon fill="midnightblue" stroke="midnightblue" points="422.07,-29.47 427.71,-20.5 417.71,-23.99 422.07,-29.47"/>
</g>
<!-- Node10&#45;&gt;Node6 -->
<g id="edge12" class="edge">
<title>Node10&#45;&gt;Node6</title>
<path fill="none" stroke="midnightblue" d="M263.66,-57.91C270.66,-50.04 281.23,-38.18 289.93,-28.42"/>
<polygon fill="midnightblue" stroke="midnightblue" points="292.2,-31.01 296.24,-21.21 286.97,-26.35 292.2,-31.01"/>
</g>
<!-- Node10&#45;&gt;Node11 -->
<g id="edge11" class="edge">
<title>Node10&#45;&gt;Node11</title>
<path fill="none" stroke="midnightblue" d="M254.59,-57.91C253.41,-50.68 251.68,-40.09 250.17,-30.85"/>
<polygon fill="midnightblue" stroke="midnightblue" points="253.5,-30.52 248.43,-21.21 246.59,-31.65 253.5,-30.52"/>
</g>
<!-- Node10&#45;&gt;Node12 -->
<g id="edge13" class="edge">
<title>Node10&#45;&gt;Node12</title>
<path fill="none" stroke="midnightblue" d="M242.66,-57.66C229.91,-49.21 210.45,-36.31 195.33,-26.3"/>
<polygon fill="midnightblue" stroke="midnightblue" points="197.85,-23.1 187.58,-20.5 193.98,-28.94 197.85,-23.1"/>
</g>
<!-- Node10&#45;&gt;Node13 -->
<g id="edge14" class="edge">
<title>Node10&#45;&gt;Node13</title>
<path fill="none" stroke="midnightblue" d="M228.96,-57.54C201.18,-48.34 157.75,-33.95 126.84,-23.71"/>
<polygon fill="midnightblue" stroke="midnightblue" points="128.07,-20.1 117.48,-20.27 125.87,-26.74 128.07,-20.1"/>
</g>
<!-- Node16 -->
<g id="node16" class="node">
<title>Node16</title>
<g id="a_node16"><a xlink:title=" ">
<polygon fill="none" stroke="#bfbfbf" points="28.12,-114.5 28.12,-134.5 95.88,-134.5 95.88,-114.5 28.12,-114.5"/>
<text text-anchor="middle" x="62" y="-121" font-family="Helvetica,sans-Serif" font-size="10.00">sdkddkver.h</text>
</a>
</g>
</g>
<!-- Node15&#45;&gt;Node16 -->
<g id="edge20" class="edge">
<title>Node15&#45;&gt;Node16</title>
<path fill="none" stroke="midnightblue" d="M135.02,-171.66C121.66,-163.21 101.25,-150.31 85.41,-140.3"/>
<polygon fill="midnightblue" stroke="midnightblue" points="87.56,-136.88 77.23,-134.5 83.81,-142.8 87.56,-136.88"/>
</g>
<!-- Node17 -->
<g id="node17" class="node">
<title>Node17</title>
<g id="a_node17"><a xlink:title=" ">
<polygon fill="none" stroke="#bfbfbf" points="114,-114.5 114,-134.5 178,-134.5 178,-114.5 114,-114.5"/>
<text text-anchor="middle" x="146" y="-121" font-family="Helvetica,sans-Serif" font-size="10.00">Windows.h</text>
</a>
</g>
</g>
<!-- Node15&#45;&gt;Node17 -->
<g id="edge21" class="edge">
<title>Node15&#45;&gt;Node17</title>
<path fill="none" stroke="midnightblue" d="M148.53,-171.91C148.14,-164.76 147.57,-154.32 147.07,-145.15"/>
<polygon fill="midnightblue" stroke="midnightblue" points="150.51,-145.01 146.48,-135.21 143.53,-145.39 150.51,-145.01"/>
</g>
<!-- Node18&#45;&gt;Node19 -->
<g id="edge23" class="edge">
<title>Node18&#45;&gt;Node19</title>
<path fill="none" stroke="midnightblue" d="M351.47,-171.91C351.86,-164.76 352.43,-154.32 352.93,-145.15"/>
<polygon fill="midnightblue" stroke="midnightblue" points="356.47,-145.39 353.52,-135.21 349.49,-145.01 356.47,-145.39"/>
</g>
</g>
</svg>
