<?xml version="1.0" encoding="UTF-8" standalone="no"?>
<!DOCTYPE svg PUBLIC "-//W3C//DTD SVG 1.1//EN"
 "http://www.w3.org/Graphics/SVG/1.1/DTD/svg11.dtd">
<!-- Generated by graphviz version 8.1.0 (20230707.0739)
 -->
<!-- Title: include/TexVertex.h Pages: 1 -->
<svg width="590pt" height="200pt"
 viewBox="0.00 0.00 590.08 200.00" xmlns="http://www.w3.org/2000/svg" xmlns:xlink="http://www.w3.org/1999/xlink">
<g id="graph0" class="graph" transform="scale(1 1) rotate(0) translate(4 196)">
<title>include/TexVertex.h</title>
<!-- Node1 -->
<g id="node1" class="node">
<title>Node1</title>
<g id="a_node1"><a xlink:title=" ">
<polygon fill="#bfbfbf" stroke="black" points="168.21,-171.5 168.21,-191.5 270.46,-191.5 270.46,-171.5 168.21,-171.5"/>
<text text-anchor="middle" x="219.33" y="-178" font-family="Helvetica,sans-Serif" font-size="10.00">include/TexVertex.h</text>
</a>
</g>
</g>
<!-- Node2 -->
<g id="node2" class="node">
<title>Node2</title>
<g id="a_node2"><a xlink:href="_vector2_8h.html" target="_top" xlink:title=" ">
<polygon fill="none" stroke="black" points="90.21,-114.5 90.21,-134.5 210.46,-134.5 210.46,-114.5 90.21,-114.5"/>
<text text-anchor="middle" x="150.33" y="-121" font-family="Helvetica,sans-Serif" font-size="10.00">LinearAlgebra/Vector2.h</text>
</a>
</g>
</g>
<!-- Node1&#45;&gt;Node2 -->
<g id="edge1" class="edge">
<title>Node1&#45;&gt;Node2</title>
<path fill="none" stroke="midnightblue" d="M208.25,-171.66C197.95,-163.45 182.38,-151.04 169.97,-141.15"/>
<polygon fill="midnightblue" stroke="midnightblue" points="172.62,-137.99 162.62,-134.5 168.26,-143.47 172.62,-137.99"/>
</g>
<!-- Node14 -->
<g id="node14" class="node">
<title>Node14</title>
<g id="a_node14"><a xlink:href="_vector3_8h.html" target="_top" xlink:title=" ">
<polygon fill="none" stroke="black" points="242.21,-114.5 242.21,-134.5 362.46,-134.5 362.46,-114.5 242.21,-114.5"/>
<text text-anchor="middle" x="302.33" y="-121" font-family="Helvetica,sans-Serif" font-size="10.00">LinearAlgebra/Vector3.h</text>
</a>
</g>
</g>
<!-- Node1&#45;&gt;Node14 -->
<g id="edge19" class="edge">
<title>Node1&#45;&gt;Node14</title>
<path fill="none" stroke="midnightblue" d="M232.67,-171.66C245.42,-163.21 264.89,-150.31 280,-140.3"/>
<polygon fill="midnightblue" stroke="midnightblue" points="281.35,-142.94 287.76,-134.5 277.49,-137.1 281.35,-142.94"/>
</g>
<!-- Node3 -->
<g id="node3" class="node">
<title>Node3</title>
<g id="a_node3"><a xlink:title=" ">
<polygon fill="none" stroke="#bfbfbf" points="222.46,-0.5 222.46,-20.5 260.21,-20.5 260.21,-0.5 222.46,-0.5"/>
<text text-anchor="middle" x="241.33" y="-7" font-family="Helvetica,sans-Serif" font-size="10.00">array</text>
</a>
</g>
</g>
<!-- Node2&#45;&gt;Node3 -->
<g id="edge2" class="edge">
<title>Node2&#45;&gt;Node3</title>
<path fill="none" stroke="midnightblue" d="M141.43,-114.75C129.01,-101.47 109.41,-75.78 122.33,-57 142.28,-28.02 183.39,-17.48 211.66,-13.66"/>
<polygon fill="midnightblue" stroke="midnightblue" points="211.98,-17.04 221.52,-12.44 211.19,-10.08 211.98,-17.04"/>
</g>
<!-- Node4 -->
<g id="node4" class="node">
<title>Node4</title>
<g id="a_node4"><a xlink:title=" ">
<polygon fill="none" stroke="#bfbfbf" points="164.58,-57.5 164.58,-77.5 218.08,-77.5 218.08,-57.5 164.58,-57.5"/>
<text text-anchor="middle" x="191.33" y="-64" font-family="Helvetica,sans-Serif" font-size="10.00">compare</text>
</a>
</g>
</g>
<!-- Node2&#45;&gt;Node4 -->
<g id="edge3" class="edge">
<title>Node2&#45;&gt;Node4</title>
<path fill="none" stroke="midnightblue" d="M156.74,-114.91C162.48,-107.2 171.09,-95.66 178.28,-86.02"/>
<polygon fill="midnightblue" stroke="midnightblue" points="181.67,-88.32 184.84,-78.21 176.05,-84.14 181.67,-88.32"/>
</g>
<!-- Node5 -->
<g id="node5" class="node">
<title>Node5</title>
<g id="a_node5"><a xlink:title=" ">
<polygon fill="none" stroke="#bfbfbf" points="278.58,-0.5 278.58,-20.5 326.08,-20.5 326.08,-0.5 278.58,-0.5"/>
<text text-anchor="middle" x="302.33" y="-7" font-family="Helvetica,sans-Serif" font-size="10.00">cstddef</text>
</a>
</g>
</g>
<!-- Node2&#45;&gt;Node5 -->
<g id="edge4" class="edge">
<title>Node2&#45;&gt;Node5</title>
<path fill="none" stroke="midnightblue" d="M148.15,-114.63C145.28,-100.73 142.06,-73.66 155.33,-57 157.16,-54.71 225.66,-34.15 268.5,-21.46"/>
<polygon fill="midnightblue" stroke="midnightblue" points="269.18,-24.61 277.78,-18.42 267.2,-17.9 269.18,-24.61"/>
</g>
<!-- Node6 -->
<g id="node6" class="node">
<title>Node6</title>
<g id="a_node6"><a xlink:title=" ">
<polygon fill="none" stroke="#bfbfbf" points="83.58,-0.5 83.58,-20.5 137.08,-20.5 137.08,-0.5 83.58,-0.5"/>
<text text-anchor="middle" x="110.33" y="-7" font-family="Helvetica,sans-Serif" font-size="10.00">iostream</text>
</a>
</g>
</g>
<!-- Node2&#45;&gt;Node6 -->
<g id="edge5" class="edge">
<title>Node2&#45;&gt;Node6</title>
<path fill="none" stroke="midnightblue" d="M90.25,-120.78C59.6,-115.96 24.78,-104.48 5.33,-78 -16.03,-48.91 35.36,-29.44 73.54,-19.44"/>
<polygon fill="midnightblue" stroke="midnightblue" points="74.03,-22.68 82.89,-16.87 72.34,-15.89 74.03,-22.68"/>
</g>
<!-- Node7 -->
<g id="node7" class="node">
<title>Node7</title>
<g id="a_node7"><a xlink:href="_math_8h.html" target="_top" xlink:title=" ">
<polygon fill="none" stroke="black" points="424.33,-57.5 424.33,-77.5 470.33,-77.5 470.33,-57.5 424.33,-57.5"/>
<text text-anchor="middle" x="447.33" y="-64" font-family="Helvetica,sans-Serif" font-size="10.00">Math.h</text>
</a>
</g>
</g>
<!-- Node2&#45;&gt;Node7 -->
<g id="edge6" class="edge">
<title>Node2&#45;&gt;Node7</title>
<path fill="none" stroke="midnightblue" d="M198.71,-114.54C259.2,-103.34 361.17,-84.46 413.75,-74.72"/>
<polygon fill="midnightblue" stroke="midnightblue" points="414.29,-77.99 423.49,-72.73 413.02,-71.11 414.29,-77.99"/>
</g>
<!-- Node12 -->
<g id="node12" class="node">
<title>Node12</title>
<g id="a_node12"><a xlink:href="_matrix2_8h.html" target="_top" xlink:title=" ">
<polygon fill="none" stroke="black" points="14.08,-57.5 14.08,-77.5 70.58,-77.5 70.58,-57.5 14.08,-57.5"/>
<text text-anchor="middle" x="42.33" y="-64" font-family="Helvetica,sans-Serif" font-size="10.00">Matrix2.h</text>
</a>
</g>
</g>
<!-- Node2&#45;&gt;Node12 -->
<g id="edge12" class="edge">
<title>Node2&#45;&gt;Node12</title>
<path fill="none" stroke="midnightblue" d="M132.98,-114.66C115.92,-105.97 89.62,-92.58 69.73,-82.45"/>
<polygon fill="midnightblue" stroke="midnightblue" points="71.5,-78.92 61,-77.5 68.32,-85.15 71.5,-78.92"/>
</g>
<!-- Node13 -->
<g id="node13" class="node">
<title>Node13</title>
<g id="a_node13"><a xlink:href="_matrix3_8h.html" target="_top" xlink:title=" ">
<polygon fill="none" stroke="black" points="274.08,-57.5 274.08,-77.5 330.58,-77.5 330.58,-57.5 274.08,-57.5"/>
<text text-anchor="middle" x="302.33" y="-64" font-family="Helvetica,sans-Serif" font-size="10.00">Matrix3.h</text>
</a>
</g>
</g>
<!-- Node2&#45;&gt;Node13 -->
<g id="edge14" class="edge">
<title>Node2&#45;&gt;Node13</title>
<path fill="none" stroke="midnightblue" d="M175.09,-114.54C200.16,-105.47 239.14,-91.37 267.35,-81.16"/>
<polygon fill="midnightblue" stroke="midnightblue" points="268.37,-84.15 276.58,-77.46 265.99,-77.57 268.37,-84.15"/>
</g>
<!-- Node7&#45;&gt;Node7 -->
<g id="edge7" class="edge">
<title>Node7&#45;&gt;Node7</title>
<path fill="none" stroke="midnightblue" d="M465.89,-77.43C477.39,-79.83 488.33,-76.52 488.33,-67.5 488.33,-61.44 483.39,-57.96 476.66,-57.05"/>
<polygon fill="midnightblue" stroke="midnightblue" points="476.71,-53.59 466.89,-57.57 477.04,-60.59 476.71,-53.59"/>
</g>
<!-- Node8 -->
<g id="node8" class="node">
<title>Node8</title>
<g id="a_node8"><a xlink:title=" ">
<polygon fill="none" stroke="#bfbfbf" points="343.83,-0.5 343.83,-20.5 386.83,-20.5 386.83,-0.5 343.83,-0.5"/>
<text text-anchor="middle" x="365.33" y="-7" font-family="Helvetica,sans-Serif" font-size="10.00">cmath</text>
</a>
</g>
</g>
<!-- Node7&#45;&gt;Node8 -->
<g id="edge8" class="edge">
<title>Node7&#45;&gt;Node8</title>
<path fill="none" stroke="midnightblue" d="M434.16,-57.66C421.68,-49.29 402.69,-36.56 387.82,-26.58"/>
<polygon fill="midnightblue" stroke="midnightblue" points="390,-23.16 379.75,-20.5 386.1,-28.97 390,-23.16"/>
</g>
<!-- Node9 -->
<g id="node9" class="node">
<title>Node9</title>
<g id="a_node9"><a xlink:title=" ">
<polygon fill="none" stroke="#bfbfbf" points="471.71,-0.5 471.71,-20.5 510.96,-20.5 510.96,-0.5 471.71,-0.5"/>
<text text-anchor="middle" x="491.33" y="-7" font-family="Helvetica,sans-Serif" font-size="10.00">limits</text>
</a>
</g>
</g>
<!-- Node7&#45;&gt;Node9 -->
<g id="edge9" class="edge">
<title>Node7&#45;&gt;Node9</title>
<path fill="none" stroke="midnightblue" d="M454.21,-57.91C460.44,-50.12 469.8,-38.42 477.56,-28.71"/>
<polygon fill="midnightblue" stroke="midnightblue" points="480.85,-31.21 484.36,-21.21 475.38,-26.84 480.85,-31.21"/>
</g>
<!-- Node10 -->
<g id="node10" class="node">
<title>Node10</title>
<g id="a_node10"><a xlink:title=" ">
<polygon fill="none" stroke="#bfbfbf" points="528.58,-0.5 528.58,-20.5 582.08,-20.5 582.08,-0.5 528.58,-0.5"/>
<text text-anchor="middle" x="555.33" y="-7" font-family="Helvetica,sans-Serif" font-size="10.00">numbers</text>
</a>
</g>
</g>
<!-- Node7&#45;&gt;Node10 -->
<g id="edge10" class="edge">
<title>Node7&#45;&gt;Node10</title>
<path fill="none" stroke="midnightblue" d="M464.69,-57.66C481.75,-48.97 508.05,-35.58 527.93,-25.45"/>
<polygon fill="midnightblue" stroke="midnightblue" points="529.34,-28.15 536.67,-20.5 526.17,-21.92 529.34,-28.15"/>
</g>
<!-- Node11 -->
<g id="node11" class="node">
<title>Node11</title>
<g id="a_node11"><a xlink:title=" ">
<polygon fill="none" stroke="#bfbfbf" points="405.21,-0.5 405.21,-20.5 453.46,-20.5 453.46,-0.5 405.21,-0.5"/>
<text text-anchor="middle" x="429.33" y="-7" font-family="Helvetica,sans-Serif" font-size="10.00">random</text>
</a>
</g>
</g>
<!-- Node7&#45;&gt;Node11 -->
<g id="edge11" class="edge">
<title>Node7&#45;&gt;Node11</title>
<path fill="none" stroke="midnightblue" d="M444.52,-57.91C442.13,-50.6 438.61,-39.85 435.56,-30.54"/>
<polygon fill="midnightblue" stroke="midnightblue" points="438.62,-29.63 432.19,-21.21 431.97,-31.81 438.62,-29.63"/>
</g>
<!-- Node12&#45;&gt;Node6 -->
<g id="edge13" class="edge">
<title>Node12&#45;&gt;Node6</title>
<path fill="none" stroke="midnightblue" d="M53.26,-57.66C63.41,-49.45 78.76,-37.04 90.98,-27.15"/>
<polygon fill="midnightblue" stroke="midnightblue" points="92.64,-29.51 98.21,-20.5 88.23,-24.06 92.64,-29.51"/>
</g>
<!-- Node13&#45;&gt;Node3 -->
<g id="edge15" class="edge">
<title>Node13&#45;&gt;Node3</title>
<path fill="none" stroke="midnightblue" d="M292.53,-57.66C283.6,-49.61 270.19,-37.52 259.34,-27.73"/>
<polygon fill="midnightblue" stroke="midnightblue" points="262.08,-25.59 252.31,-21.5 257.4,-30.79 262.08,-25.59"/>
</g>
<!-- Node13&#45;&gt;Node5 -->
<g id="edge17" class="edge">
<title>Node13&#45;&gt;Node5</title>
<path fill="none" stroke="midnightblue" d="M302.33,-57.91C302.33,-50.76 302.33,-40.32 302.33,-31.15"/>
<polygon fill="midnightblue" stroke="midnightblue" points="305.83,-31.21 302.33,-21.21 298.83,-31.21 305.83,-31.21"/>
</g>
<!-- Node13&#45;&gt;Node6 -->
<g id="edge18" class="edge">
<title>Node13&#45;&gt;Node6</title>
<path fill="none" stroke="midnightblue" d="M274.42,-58.5C240.91,-48.9 184.59,-32.77 147.45,-22.13"/>
<polygon fill="midnightblue" stroke="midnightblue" points="148.62,-18.54 138.05,-19.15 146.7,-25.27 148.62,-18.54"/>
</g>
<!-- Node13&#45;&gt;Node8 -->
<g id="edge16" class="edge">
<title>Node13&#45;&gt;Node8</title>
<path fill="none" stroke="midnightblue" d="M312.46,-57.66C321.77,-49.53 335.8,-37.28 347.07,-27.44"/>
<polygon fill="midnightblue" stroke="midnightblue" points="348.8,-29.71 354.03,-20.5 344.19,-24.44 348.8,-29.71"/>
</g>
<!-- Node14&#45;&gt;Node3 -->
<g id="edge20" class="edge">
<title>Node14&#45;&gt;Node3</title>
<path fill="none" stroke="midnightblue" d="M313.56,-114.7C328.64,-101.78 352.13,-77.05 339.33,-57 335.26,-50.62 297.38,-34.2 269.93,-22.94"/>
<polygon fill="midnightblue" stroke="midnightblue" points="271.6,-19.43 261.01,-18.9 268.96,-25.91 271.6,-19.43"/>
</g>
<!-- Node14&#45;&gt;Node4 -->
<g id="edge22" class="edge">
<title>Node14&#45;&gt;Node4</title>
<path fill="none" stroke="midnightblue" d="M284.5,-114.66C266.88,-105.94 239.68,-92.46 219.21,-82.31"/>
<polygon fill="midnightblue" stroke="midnightblue" points="221.01,-78.8 210.49,-77.5 217.9,-85.07 221.01,-78.8"/>
</g>
<!-- Node14&#45;&gt;Node5 -->
<g id="edge23" class="edge">
<title>Node14&#45;&gt;Node5</title>
<path fill="none" stroke="midnightblue" d="M327.16,-114.62C343.2,-107.43 362.79,-95.58 372.33,-78 384.23,-56.08 358.66,-37.19 335.16,-25.2"/>
<polygon fill="midnightblue" stroke="midnightblue" points="336.86,-21.65 326.33,-20.49 333.84,-27.97 336.86,-21.65"/>
</g>
<!-- Node14&#45;&gt;Node6 -->
<g id="edge21" class="edge">
<title>Node14&#45;&gt;Node6</title>
<path fill="none" stroke="midnightblue" d="M294.36,-114.64C281.45,-100.74 254.66,-73.69 227.33,-57 202.17,-41.64 170.93,-29.8 147.06,-22.06"/>
<polygon fill="midnightblue" stroke="midnightblue" points="148.25,-18.45 137.66,-18.79 146.15,-25.13 148.25,-18.45"/>
</g>
<!-- Node14&#45;&gt;Node7 -->
<g id="edge24" class="edge">
<title>Node14&#45;&gt;Node7</title>
<path fill="none" stroke="midnightblue" d="M325.95,-114.54C350.04,-105.4 387.6,-91.16 414.56,-80.93"/>
<polygon fill="midnightblue" stroke="midnightblue" points="415.57,-83.91 423.68,-77.09 413.09,-77.37 415.57,-83.91"/>
</g>
<!-- Node14&#45;&gt;Node13 -->
<g id="edge25" class="edge">
<title>Node14&#45;&gt;Node13</title>
<path fill="none" stroke="midnightblue" d="M302.33,-114.91C302.33,-107.76 302.33,-97.32 302.33,-88.15"/>
<polygon fill="midnightblue" stroke="midnightblue" points="305.83,-88.21 302.33,-78.21 298.83,-88.21 305.83,-88.21"/>
</g>
</g>
</svg>
