<?xml version="1.0" encoding="UTF-8" standalone="no"?>
<!DOCTYPE svg PUBLIC "-//W3C//DTD SVG 1.1//EN"
 "http://www.w3.org/Graphics/SVG/1.1/DTD/svg11.dtd">
<!-- Generated by graphviz version 8.1.0 (20230707.0739)
 -->
<!-- Title: include/TexVertex.h Pages: 1 -->
<svg width="1902pt" height="269pt"
 viewBox="0.00 0.00 1902.32 269.00" xmlns="http://www.w3.org/2000/svg" xmlns:xlink="http://www.w3.org/1999/xlink">
<g id="graph0" class="graph" transform="scale(1 1) rotate(0) translate(4 265)">
<title>include/TexVertex.h</title>
<!-- Node1 -->
<g id="node1" class="node">
<title>Node1</title>
<g id="a_node1"><a xlink:title=" ">
<polygon fill="#bfbfbf" stroke="black" points="1456.44,-240.5 1456.44,-260.5 1558.69,-260.5 1558.69,-240.5 1456.44,-240.5"/>
<text text-anchor="middle" x="1507.57" y="-247" font-family="Helvetica,sans-Serif" font-size="10.00">include/TexVertex.h</text>
</a>
</g>
</g>
<!-- Node2 -->
<g id="node2" class="node">
<title>Node2</title>
<g id="a_node2"><a xlink:href="_cube_8h.html" target="_top" xlink:title=" ">
<polygon fill="none" stroke="black" points="631.32,-126.5 631.32,-146.5 711.82,-146.5 711.82,-126.5 631.32,-126.5"/>
<text text-anchor="middle" x="671.57" y="-133" font-family="Helvetica,sans-Serif" font-size="10.00">include/Cube.h</text>
</a>
</g>
</g>
<!-- Node1&#45;&gt;Node2 -->
<g id="edge1" class="edge">
<title>Node1&#45;&gt;Node2</title>
<path fill="none" stroke="midnightblue" d="M1445.75,-241.22C1282.95,-219.41 845.71,-160.83 711.38,-142.83"/>
<polygon fill="midnightblue" stroke="midnightblue" points="1445.15,-244.8 1455.53,-242.66 1446.08,-237.87 1445.15,-244.8"/>
</g>
<!-- Node8 -->
<g id="node8" class="node">
<title>Node8</title>
<g id="a_node8"><a xlink:href="_cube_folded_8h.html" target="_top" xlink:title=" ">
<polygon fill="none" stroke="black" points="1452.69,-183.5 1452.69,-203.5 1562.44,-203.5 1562.44,-183.5 1452.69,-183.5"/>
<text text-anchor="middle" x="1507.57" y="-190" font-family="Helvetica,sans-Serif" font-size="10.00">include/CubeFolded.h</text>
</a>
</g>
</g>
<!-- Node1&#45;&gt;Node8 -->
<g id="edge10" class="edge">
<title>Node1&#45;&gt;Node8</title>
<path fill="none" stroke="midnightblue" d="M1507.57,-230C1507.57,-220.85 1507.57,-210.39 1507.57,-203.21"/>
<polygon fill="midnightblue" stroke="midnightblue" points="1504.07,-229.91 1507.57,-239.91 1511.07,-229.91 1504.07,-229.91"/>
</g>
<!-- Node10 -->
<g id="node10" class="node">
<title>Node10</title>
<g id="a_node10"><a xlink:href="_cube_folded_wrap_8h.html" target="_top" xlink:title=" ">
<polygon fill="none" stroke="black" points="1583.07,-183.5 1583.07,-203.5 1716.07,-203.5 1716.07,-183.5 1583.07,-183.5"/>
<text text-anchor="middle" x="1649.57" y="-190" font-family="Helvetica,sans-Serif" font-size="10.00">include/CubeFoldedWrap.h</text>
</a>
</g>
</g>
<!-- Node1&#45;&gt;Node10 -->
<g id="edge13" class="edge">
<title>Node1&#45;&gt;Node10</title>
<path fill="none" stroke="midnightblue" d="M1540.61,-236.7C1566.94,-226.5 1603.14,-212.48 1626.45,-203.46"/>
<polygon fill="midnightblue" stroke="midnightblue" points="1539.76,-233.67 1531.7,-240.54 1542.29,-240.19 1539.76,-233.67"/>
</g>
<!-- Node12 -->
<g id="node12" class="node">
<title>Node12</title>
<g id="a_node12"><a xlink:href="_cube_skinned_8h.html" target="_top" xlink:title=" ">
<polygon fill="none" stroke="black" points="1693.69,-126.5 1693.69,-146.5 1809.44,-146.5 1809.44,-126.5 1693.69,-126.5"/>
<text text-anchor="middle" x="1751.57" y="-133" font-family="Helvetica,sans-Serif" font-size="10.00">include/CubeSkinned.h</text>
</a>
</g>
</g>
<!-- Node1&#45;&gt;Node12 -->
<g id="edge16" class="edge">
<title>Node1&#45;&gt;Node12</title>
<path fill="none" stroke="midnightblue" d="M1569.48,-243.18C1625.39,-236.31 1702.35,-223.63 1725.57,-204 1743.17,-189.11 1748.92,-160.75 1750.75,-146.36"/>
<polygon fill="midnightblue" stroke="midnightblue" points="1569.11,-239.81 1559.6,-244.47 1569.94,-246.76 1569.11,-239.81"/>
</g>
<!-- Node14 -->
<g id="node14" class="node">
<title>Node14</title>
<g id="a_node14"><a xlink:href="_graphics_8h.html" target="_top" xlink:title=" ">
<polygon fill="none" stroke="black" points="214.07,-183.5 214.07,-203.5 311.07,-203.5 311.07,-183.5 214.07,-183.5"/>
<text text-anchor="middle" x="262.57" y="-190" font-family="Helvetica,sans-Serif" font-size="10.00">include/Graphics.h</text>
</a>
</g>
</g>
<!-- Node1&#45;&gt;Node14 -->
<g id="edge19" class="edge">
<title>Node1&#45;&gt;Node14</title>
<path fill="none" stroke="midnightblue" d="M1446,-246.78C1229.36,-237.21 504.92,-205.21 310.78,-196.63"/>
<polygon fill="midnightblue" stroke="midnightblue" points="1445.69,-250.31 1455.83,-247.26 1446,-243.32 1445.69,-250.31"/>
</g>
<!-- Node3 -->
<g id="node3" class="node">
<title>Node3</title>
<g id="a_node3"><a xlink:href="_cube_order_scene_8h.html" target="_top" xlink:title=" ">
<polygon fill="none" stroke="black" points="456.44,-57.5 456.44,-89.5 588.69,-89.5 588.69,-57.5 456.44,-57.5"/>
<text text-anchor="start" x="464.44" y="-76" font-family="Helvetica,sans-Serif" font-size="10.00">include/Scenes/CubeOrder</text>
<text text-anchor="middle" x="522.57" y="-64" font-family="Helvetica,sans-Serif" font-size="10.00">Scene.h</text>
</a>
</g>
</g>
<!-- Node2&#45;&gt;Node3 -->
<g id="edge2" class="edge">
<title>Node2&#45;&gt;Node3</title>
<path fill="none" stroke="midnightblue" d="M640.01,-122.58C616.3,-112.87 583.78,-99.56 558.97,-89.4"/>
<polygon fill="midnightblue" stroke="midnightblue" points="638.32,-126.08 648.9,-126.63 640.97,-119.6 638.32,-126.08"/>
</g>
<!-- Node5 -->
<g id="node5" class="node">
<title>Node5</title>
<g id="a_node5"><a xlink:href="_solid_cube_scene_8h.html" target="_top" xlink:title=" ">
<polygon fill="none" stroke="black" points="606.57,-57.5 606.57,-89.5 736.57,-89.5 736.57,-57.5 606.57,-57.5"/>
<text text-anchor="start" x="614.57" y="-76" font-family="Helvetica,sans-Serif" font-size="10.00">include/Scenes/SolidCube</text>
<text text-anchor="middle" x="671.57" y="-64" font-family="Helvetica,sans-Serif" font-size="10.00">Scene.h</text>
</a>
</g>
</g>
<!-- Node2&#45;&gt;Node5 -->
<g id="edge4" class="edge">
<title>Node2&#45;&gt;Node5</title>
<path fill="none" stroke="midnightblue" d="M671.57,-115.83C671.57,-107.23 671.57,-97.31 671.57,-89.35"/>
<polygon fill="midnightblue" stroke="midnightblue" points="668.07,-115.76 671.57,-125.76 675.07,-115.76 668.07,-115.76"/>
</g>
<!-- Node6 -->
<g id="node6" class="node">
<title>Node6</title>
<g id="a_node6"><a xlink:href="_tex_cube_scene_8h.html" target="_top" xlink:title=" ">
<polygon fill="none" stroke="black" points="754.57,-63.5 754.57,-83.5 914.57,-83.5 914.57,-63.5 754.57,-63.5"/>
<text text-anchor="middle" x="834.57" y="-70" font-family="Helvetica,sans-Serif" font-size="10.00">include/Scenes/TexCubeScene.h</text>
</a>
</g>
</g>
<!-- Node2&#45;&gt;Node6 -->
<g id="edge6" class="edge">
<title>Node2&#45;&gt;Node6</title>
<path fill="none" stroke="midnightblue" d="M705.31,-122.87C736.72,-111.12 782.76,-93.89 810.57,-83.48"/>
<polygon fill="midnightblue" stroke="midnightblue" points="704.41,-119.85 696.27,-126.63 706.86,-126.4 704.41,-119.85"/>
</g>
<!-- Node7 -->
<g id="node7" class="node">
<title>Node7</title>
<g id="a_node7"><a xlink:href="_tex_wrap_cube_scene_8h.html" target="_top" xlink:title=" ">
<polygon fill="none" stroke="black" points="290.94,-57.5 290.94,-89.5 438.19,-89.5 438.19,-57.5 290.94,-57.5"/>
<text text-anchor="start" x="298.94" y="-76" font-family="Helvetica,sans-Serif" font-size="10.00">include/Scenes/TexWrapCube</text>
<text text-anchor="middle" x="364.57" y="-64" font-family="Helvetica,sans-Serif" font-size="10.00">Scene.h</text>
</a>
</g>
</g>
<!-- Node2&#45;&gt;Node7 -->
<g id="edge8" class="edge">
<title>Node2&#45;&gt;Node7</title>
<path fill="none" stroke="midnightblue" d="M620.91,-125.44C571.08,-115.53 494.45,-100.31 437.95,-89.08"/>
<polygon fill="midnightblue" stroke="midnightblue" points="619.94,-129.01 630.43,-127.53 621.31,-122.14 619.94,-129.01"/>
</g>
<!-- Node4 -->
<g id="node4" class="node">
<title>Node4</title>
<g id="a_node4"><a xlink:href="_engine_8cpp.html" target="_top" xlink:title=" ">
<polygon fill="none" stroke="black" points="881.94,-0.5 881.94,-20.5 963.19,-20.5 963.19,-0.5 881.94,-0.5"/>
<text text-anchor="middle" x="922.57" y="-7" font-family="Helvetica,sans-Serif" font-size="10.00">src/Engine.cpp</text>
</a>
</g>
</g>
<!-- Node3&#45;&gt;Node4 -->
<g id="edge3" class="edge">
<title>Node3&#45;&gt;Node4</title>
<path fill="none" stroke="midnightblue" d="M599.15,-56.79C707.33,-38.34 822.55,-23.58 882.16,-16.3"/>
<polygon fill="midnightblue" stroke="midnightblue" points="598.63,-53.5 589.37,-58.65 599.82,-60.4 598.63,-53.5"/>
</g>
<!-- Node5&#45;&gt;Node4 -->
<g id="edge5" class="edge">
<title>Node5&#45;&gt;Node4</title>
<path fill="none" stroke="midnightblue" d="M743.6,-54.99C790.12,-43.69 848.68,-29.46 885.88,-20.42"/>
<polygon fill="midnightblue" stroke="midnightblue" points="742.86,-51.82 733.97,-57.58 744.51,-58.62 742.86,-51.82"/>
</g>
<!-- Node6&#45;&gt;Node4 -->
<g id="edge7" class="edge">
<title>Node6&#45;&gt;Node4</title>
<path fill="none" stroke="midnightblue" d="M855.79,-57.79C872.61,-46.13 895.55,-30.23 909.7,-20.42"/>
<polygon fill="midnightblue" stroke="midnightblue" points="854.4,-55.19 848.18,-63.76 858.39,-60.94 854.4,-55.19"/>
</g>
<!-- Node7&#45;&gt;Node4 -->
<g id="edge9" class="edge">
<title>Node7&#45;&gt;Node4</title>
<path fill="none" stroke="midnightblue" d="M448.56,-56.95C615.75,-33.81 801.62,-19.7 882.07,-14.16"/>
<polygon fill="midnightblue" stroke="midnightblue" points="448.25,-53.6 438.83,-58.45 449.22,-60.53 448.25,-53.6"/>
</g>
<!-- Node9 -->
<g id="node9" class="node">
<title>Node9</title>
<g id="a_node9"><a xlink:href="_folded_cube_scene_8h.html" target="_top" xlink:title=" ">
<polygon fill="none" stroke="black" points="1438.82,-57.5 1438.82,-89.5 1576.32,-89.5 1576.32,-57.5 1438.82,-57.5"/>
<text text-anchor="start" x="1446.82" y="-76" font-family="Helvetica,sans-Serif" font-size="10.00">include/Scenes/FoldedCube</text>
<text text-anchor="middle" x="1507.57" y="-64" font-family="Helvetica,sans-Serif" font-size="10.00">Scene.h</text>
</a>
</g>
</g>
<!-- Node8&#45;&gt;Node9 -->
<g id="edge11" class="edge">
<title>Node8&#45;&gt;Node9</title>
<path fill="none" stroke="midnightblue" d="M1507.57,-172.9C1507.57,-149.35 1507.57,-110.38 1507.57,-89.24"/>
<polygon fill="midnightblue" stroke="midnightblue" points="1504.07,-172.63 1507.57,-182.63 1511.07,-172.63 1504.07,-172.63"/>
</g>
<!-- Node9&#45;&gt;Node4 -->
<g id="edge12" class="edge">
<title>Node9&#45;&gt;Node4</title>
<path fill="none" stroke="midnightblue" d="M1428.45,-56.95C1248.96,-31.66 1047.69,-18.5 963.16,-13.67"/>
<polygon fill="midnightblue" stroke="midnightblue" points="1427.76,-60.53 1438.15,-58.48 1428.75,-53.6 1427.76,-60.53"/>
</g>
<!-- Node11 -->
<g id="node11" class="node">
<title>Node11</title>
<g id="a_node11"><a xlink:href="_folded_cube_wrap_scene_8h.html" target="_top" xlink:title=" ">
<polygon fill="none" stroke="black" points="1594.82,-57.5 1594.82,-89.5 1732.32,-89.5 1732.32,-57.5 1594.82,-57.5"/>
<text text-anchor="start" x="1602.82" y="-76" font-family="Helvetica,sans-Serif" font-size="10.00">include/Scenes/FoldedCube</text>
<text text-anchor="middle" x="1663.57" y="-64" font-family="Helvetica,sans-Serif" font-size="10.00">WrapScene.h</text>
</a>
</g>
</g>
<!-- Node10&#45;&gt;Node11 -->
<g id="edge14" class="edge">
<title>Node10&#45;&gt;Node11</title>
<path fill="none" stroke="midnightblue" d="M1651.89,-172.9C1654.69,-149.35 1659.31,-110.38 1661.82,-89.24"/>
<polygon fill="midnightblue" stroke="midnightblue" points="1648.32,-172.29 1650.62,-182.63 1655.27,-173.11 1648.32,-172.29"/>
</g>
<!-- Node11&#45;&gt;Node4 -->
<g id="edge15" class="edge">
<title>Node11&#45;&gt;Node4</title>
<path fill="none" stroke="midnightblue" d="M1584.42,-56.98C1342.83,-25.49 1065.48,-15.35 963.11,-12.48"/>
<polygon fill="midnightblue" stroke="midnightblue" points="1583.79,-60.56 1594.17,-58.39 1584.71,-53.62 1583.79,-60.56"/>
</g>
<!-- Node13 -->
<g id="node13" class="node">
<title>Node13</title>
<g id="a_node13"><a xlink:href="_cube_skinned_scene_8h.html" target="_top" xlink:title=" ">
<polygon fill="none" stroke="black" points="1750.82,-57.5 1750.82,-89.5 1894.32,-89.5 1894.32,-57.5 1750.82,-57.5"/>
<text text-anchor="start" x="1758.82" y="-76" font-family="Helvetica,sans-Serif" font-size="10.00">include/Scenes/CubeSkinned</text>
<text text-anchor="middle" x="1822.57" y="-64" font-family="Helvetica,sans-Serif" font-size="10.00">Scene.h</text>
</a>
</g>
</g>
<!-- Node12&#45;&gt;Node13 -->
<g id="edge17" class="edge">
<title>Node12&#45;&gt;Node13</title>
<path fill="none" stroke="midnightblue" d="M1769.77,-119.86C1780.7,-110.47 1794.52,-98.59 1805.28,-89.35"/>
<polygon fill="midnightblue" stroke="midnightblue" points="1768.04,-117.59 1762.74,-126.76 1772.61,-122.9 1768.04,-117.59"/>
</g>
<!-- Node13&#45;&gt;Node4 -->
<g id="edge18" class="edge">
<title>Node13&#45;&gt;Node4</title>
<path fill="none" stroke="midnightblue" d="M1740.28,-56.97C1435.59,-20.27 1080.67,-13.22 962.79,-11.84"/>
<polygon fill="midnightblue" stroke="midnightblue" points="1739.75,-60.55 1750.1,-58.29 1740.59,-53.6 1739.75,-60.55"/>
</g>
<!-- Node15 -->
<g id="node15" class="node">
<title>Node15</title>
<g id="a_node15"><a xlink:href="_engine_8h.html" target="_top" xlink:title=" ">
<polygon fill="none" stroke="black" points="14.57,-63.5 14.57,-83.5 102.57,-83.5 102.57,-63.5 14.57,-63.5"/>
<text text-anchor="middle" x="58.57" y="-70" font-family="Helvetica,sans-Serif" font-size="10.00">include/Engine.h</text>
</a>
</g>
</g>
<!-- Node14&#45;&gt;Node15 -->
<g id="edge20" class="edge">
<title>Node14&#45;&gt;Node15</title>
<path fill="none" stroke="midnightblue" d="M237.88,-178.22C195.3,-153.59 109.25,-103.82 74.08,-83.47"/>
<polygon fill="midnightblue" stroke="midnightblue" points="235.83,-181.65 246.23,-183.63 239.33,-175.59 235.83,-181.65"/>
</g>
<!-- Node17 -->
<g id="node17" class="node">
<title>Node17</title>
<g id="a_node17"><a xlink:href="_main_window_8cpp.html" target="_top" xlink:title=" ">
<polygon fill="none" stroke="black" points="2.19,-0.5 2.19,-20.5 108.94,-20.5 108.94,-0.5 2.19,-0.5"/>
<text text-anchor="middle" x="55.57" y="-7" font-family="Helvetica,sans-Serif" font-size="10.00">src/MainWindow.cpp</text>
</a>
</g>
</g>
<!-- Node14&#45;&gt;Node17 -->
<g id="edge56" class="edge">
<title>Node14&#45;&gt;Node17</title>
<path fill="none" stroke="midnightblue" d="M203.48,-187.6C142.21,-179 49.36,-155.29 5.57,-90 -2.6,-77.82 -0.36,-70.41 5.57,-57 12.59,-41.11 28.2,-28.39 40.13,-20.48"/>
<polygon fill="midnightblue" stroke="midnightblue" points="202.79,-191.17 213.16,-188.99 203.7,-184.23 202.79,-191.17"/>
</g>
<!-- Node18 -->
<g id="node18" class="node">
<title>Node18</title>
<g id="a_node18"><a xlink:href="_main_window_8h.html" target="_top" xlink:title=" ">
<polygon fill="none" stroke="black" points="120.82,-63.5 120.82,-83.5 234.32,-83.5 234.32,-63.5 120.82,-63.5"/>
<text text-anchor="middle" x="177.57" y="-70" font-family="Helvetica,sans-Serif" font-size="10.00">include/MainWindow.h</text>
</a>
</g>
</g>
<!-- Node14&#45;&gt;Node18 -->
<g id="edge24" class="edge">
<title>Node14&#45;&gt;Node18</title>
<path fill="none" stroke="midnightblue" d="M249.94,-174.97C231.55,-149.44 198.07,-102.96 184.03,-83.47"/>
<polygon fill="midnightblue" stroke="midnightblue" points="247.49,-176.56 256.18,-182.63 253.17,-172.47 247.49,-176.56"/>
</g>
<!-- Node19 -->
<g id="node19" class="node">
<title>Node19</title>
<g id="a_node19"><a xlink:href="_graphics_8cpp.html" target="_top" xlink:title=" ">
<polygon fill="none" stroke="black" points="217.44,-0.5 217.44,-20.5 307.69,-20.5 307.69,-0.5 217.44,-0.5"/>
<text text-anchor="middle" x="262.57" y="-7" font-family="Helvetica,sans-Serif" font-size="10.00">src/Graphics.cpp</text>
</a>
</g>
</g>
<!-- Node14&#45;&gt;Node19 -->
<g id="edge55" class="edge">
<title>Node14&#45;&gt;Node19</title>
<path fill="none" stroke="midnightblue" d="M262.57,-172.87C262.57,-133.8 262.57,-47.67 262.57,-20.14"/>
<polygon fill="midnightblue" stroke="midnightblue" points="259.07,-172.77 262.57,-182.77 266.07,-172.77 259.07,-172.77"/>
</g>
<!-- Node20 -->
<g id="node20" class="node">
<title>Node20</title>
<g id="a_node20"><a xlink:href="_pube_screen_transformer_8h.html" target="_top" xlink:title=" ">
<polygon fill="none" stroke="black" points="929.44,-126.5 929.44,-146.5 1091.69,-146.5 1091.69,-126.5 929.44,-126.5"/>
<text text-anchor="middle" x="1010.57" y="-133" font-family="Helvetica,sans-Serif" font-size="10.00">include/PubeScreenTransformer.h</text>
</a>
</g>
</g>
<!-- Node14&#45;&gt;Node20 -->
<g id="edge29" class="edge">
<title>Node14&#45;&gt;Node20</title>
<path fill="none" stroke="midnightblue" d="M321.65,-188.66C434.69,-181.23 689.39,-164.11 903.57,-147 912.03,-146.32 920.86,-145.59 929.66,-144.84"/>
<polygon fill="midnightblue" stroke="midnightblue" points="321.59,-185.22 311.84,-189.37 322.04,-192.2 321.59,-185.22"/>
</g>
<!-- Node24 -->
<g id="node24" class="node">
<title>Node24</title>
<g id="a_node24"><a xlink:href="_scene_8h.html" target="_top" xlink:title=" ">
<polygon fill="none" stroke="black" points="808.69,-126.5 808.69,-146.5 894.44,-146.5 894.44,-126.5 808.69,-126.5"/>
<text text-anchor="middle" x="851.57" y="-133" font-family="Helvetica,sans-Serif" font-size="10.00">include/Scene.h</text>
</a>
</g>
</g>
<!-- Node14&#45;&gt;Node24 -->
<g id="edge43" class="edge">
<title>Node14&#45;&gt;Node24</title>
<path fill="none" stroke="midnightblue" d="M321.7,-186.98C440.39,-175.89 705.16,-151.17 808.8,-141.49"/>
<polygon fill="midnightblue" stroke="midnightblue" points="321.65,-183.56 312.02,-187.98 322.3,-190.53 321.65,-183.56"/>
</g>
<!-- Node15&#45;&gt;Node4 -->
<g id="edge21" class="edge">
<title>Node15&#45;&gt;Node4</title>
<path fill="none" stroke="midnightblue" d="M95.01,-60.66C100.51,-59.22 106.16,-57.93 111.57,-57 262.36,-31.07 740.23,-16.41 882.33,-12.54"/>
<polygon fill="midnightblue" stroke="midnightblue" points="94.38,-57.49 85.71,-63.57 96.28,-64.22 94.38,-57.49"/>
</g>
<!-- Node16 -->
<g id="node16" class="node">
<title>Node16</title>
<g id="a_node16"><a xlink:href="_main_8cpp.html" target="_top" xlink:title=" ">
<polygon fill="none" stroke="black" points="127.44,-0.5 127.44,-20.5 199.69,-20.5 199.69,-0.5 127.44,-0.5"/>
<text text-anchor="middle" x="163.57" y="-7" font-family="Helvetica,sans-Serif" font-size="10.00">src/Main.cpp</text>
</a>
</g>
</g>
<!-- Node15&#45;&gt;Node16 -->
<g id="edge22" class="edge">
<title>Node15&#45;&gt;Node16</title>
<path fill="none" stroke="midnightblue" d="M83.06,-58.27C103.2,-46.57 131.1,-30.36 148.21,-20.42"/>
<polygon fill="midnightblue" stroke="midnightblue" points="81.5,-55.71 74.61,-63.76 85.02,-61.76 81.5,-55.71"/>
</g>
<!-- Node15&#45;&gt;Node17 -->
<g id="edge23" class="edge">
<title>Node15&#45;&gt;Node17</title>
<path fill="none" stroke="midnightblue" d="M57.61,-52.99C57.07,-41.97 56.42,-28.73 56,-20.22"/>
<polygon fill="midnightblue" stroke="midnightblue" points="54.15,-52.94 58.14,-62.76 61.14,-52.6 54.15,-52.94"/>
</g>
<!-- Node18&#45;&gt;Node4 -->
<g id="edge25" class="edge">
<title>Node18&#45;&gt;Node4</title>
<path fill="none" stroke="midnightblue" d="M243.07,-61.95C255.82,-60.12 269.09,-58.37 281.57,-57 507.8,-32.15 780.52,-18.01 881.97,-13.29"/>
<polygon fill="midnightblue" stroke="midnightblue" points="242.9,-58.59 233.52,-63.5 243.92,-65.51 242.9,-58.59"/>
</g>
<!-- Node18&#45;&gt;Node16 -->
<g id="edge27" class="edge">
<title>Node18&#45;&gt;Node16</title>
<path fill="none" stroke="midnightblue" d="M173.17,-53.35C170.63,-42.25 167.54,-28.82 165.57,-20.22"/>
<polygon fill="midnightblue" stroke="midnightblue" points="169.91,-53.8 175.56,-62.76 176.74,-52.23 169.91,-53.8"/>
</g>
<!-- Node18&#45;&gt;Node17 -->
<g id="edge28" class="edge">
<title>Node18&#45;&gt;Node17</title>
<path fill="none" stroke="midnightblue" d="M150.1,-58.77C126.61,-47.02 93.49,-30.46 73.33,-20.38"/>
<polygon fill="midnightblue" stroke="midnightblue" points="148.32,-62.29 158.83,-63.63 151.45,-56.03 148.32,-62.29"/>
</g>
<!-- Node18&#45;&gt;Node19 -->
<g id="edge26" class="edge">
<title>Node18&#45;&gt;Node19</title>
<path fill="none" stroke="midnightblue" d="M198.52,-57.46C214.72,-45.84 236.6,-30.14 250.14,-20.42"/>
<polygon fill="midnightblue" stroke="midnightblue" points="196.83,-55.09 190.75,-63.76 200.91,-60.77 196.83,-55.09"/>
</g>
<!-- Node20&#45;&gt;Node3 -->
<g id="edge34" class="edge">
<title>Node20&#45;&gt;Node3</title>
<path fill="none" stroke="midnightblue" d="M919.03,-126.43C816.68,-116.11 657.44,-99.46 597.57,-90 594.55,-89.52 591.46,-89.01 588.35,-88.46"/>
<polygon fill="midnightblue" stroke="midnightblue" points="918.37,-129.98 928.67,-127.5 919.07,-123.02 918.37,-129.98"/>
</g>
<!-- Node20&#45;&gt;Node5 -->
<g id="edge38" class="edge">
<title>Node20&#45;&gt;Node5</title>
<path fill="none" stroke="midnightblue" d="M943.88,-124.74C890.22,-115.92 812.92,-102.83 745.57,-90 742.6,-89.44 739.57,-88.85 736.51,-88.24"/>
<polygon fill="midnightblue" stroke="midnightblue" points="943.19,-128.34 953.63,-126.5 944.32,-121.43 943.19,-128.34"/>
</g>
<!-- Node20&#45;&gt;Node6 -->
<g id="edge39" class="edge">
<title>Node20&#45;&gt;Node6</title>
<path fill="none" stroke="midnightblue" d="M975.01,-123.18C941.08,-111.42 890.77,-93.98 860.48,-83.48"/>
<polygon fill="midnightblue" stroke="midnightblue" points="973.38,-126.66 983.98,-126.63 975.67,-120.05 973.38,-126.66"/>
</g>
<!-- Node20&#45;&gt;Node7 -->
<g id="edge40" class="edge">
<title>Node20&#45;&gt;Node7</title>
<path fill="none" stroke="midnightblue" d="M918.94,-127.31C913.74,-126.86 908.59,-126.42 903.57,-126 700.98,-109.01 649.1,-116.7 447.57,-90 444.37,-89.58 441.11,-89.11 437.82,-88.61"/>
<polygon fill="midnightblue" stroke="midnightblue" points="918.39,-130.86 928.66,-128.23 919,-123.88 918.39,-130.86"/>
</g>
<!-- Node20&#45;&gt;Node9 -->
<g id="edge36" class="edge">
<title>Node20&#45;&gt;Node9</title>
<path fill="none" stroke="midnightblue" d="M1102.48,-127.86C1187.58,-120.24 1317.49,-107.19 1429.57,-90 1432.71,-89.52 1435.91,-89 1439.14,-88.45"/>
<polygon fill="midnightblue" stroke="midnightblue" points="1102.21,-124.46 1092.56,-128.83 1102.83,-131.43 1102.21,-124.46"/>
</g>
<!-- Node20&#45;&gt;Node11 -->
<g id="edge37" class="edge">
<title>Node20&#45;&gt;Node11</title>
<path fill="none" stroke="midnightblue" d="M1102.09,-131.57C1215.85,-125.93 1415.72,-113.51 1585.57,-90 1588.71,-89.56 1591.92,-89.08 1595.16,-88.56"/>
<polygon fill="midnightblue" stroke="midnightblue" points="1102.17,-128.11 1092.36,-132.1 1102.52,-135.1 1102.17,-128.11"/>
</g>
<!-- Node20&#45;&gt;Node13 -->
<g id="edge35" class="edge">
<title>Node20&#45;&gt;Node13</title>
<path fill="none" stroke="midnightblue" d="M1102.46,-133.52C1241.34,-129.68 1512.8,-118.89 1741.57,-90 1744.69,-89.61 1747.88,-89.16 1751.09,-88.69"/>
<polygon fill="midnightblue" stroke="midnightblue" points="1102.37,-130.05 1092.47,-133.82 1102.56,-137.04 1102.37,-130.05"/>
</g>
<!-- Node21 -->
<g id="node21" class="node">
<title>Node21</title>
<g id="a_node21"><a xlink:href="_con_hex_scene_8h.html" target="_top" xlink:title=" ">
<polygon fill="none" stroke="black" points="1106.44,-63.5 1106.44,-83.5 1262.69,-83.5 1262.69,-63.5 1106.44,-63.5"/>
<text text-anchor="middle" x="1184.57" y="-70" font-family="Helvetica,sans-Serif" font-size="10.00">include/Scenes/ConHexScene.h</text>
</a>
</g>
</g>
<!-- Node20&#45;&gt;Node21 -->
<g id="edge30" class="edge">
<title>Node20&#45;&gt;Node21</title>
<path fill="none" stroke="midnightblue" d="M1046.15,-123.02C1079.69,-111.27 1129.13,-93.93 1158.95,-83.48"/>
<polygon fill="midnightblue" stroke="midnightblue" points="1045.15,-120.02 1036.87,-126.63 1047.46,-126.62 1045.15,-120.02"/>
</g>
<!-- Node22 -->
<g id="node22" class="node">
<title>Node22</title>
<g id="a_node22"><a xlink:href="_con_hex_wire_scene_8h.html" target="_top" xlink:title=" ">
<polygon fill="none" stroke="black" points="1280.32,-57.5 1280.32,-89.5 1420.82,-89.5 1420.82,-57.5 1280.32,-57.5"/>
<text text-anchor="start" x="1288.32" y="-76" font-family="Helvetica,sans-Serif" font-size="10.00">include/Scenes/ConHexWire</text>
<text text-anchor="middle" x="1350.57" y="-64" font-family="Helvetica,sans-Serif" font-size="10.00">Scene.h</text>
</a>
</g>
</g>
<!-- Node20&#45;&gt;Node22 -->
<g id="edge32" class="edge">
<title>Node20&#45;&gt;Node22</title>
<path fill="none" stroke="midnightblue" d="M1074.69,-124.71C1127.56,-115.72 1204.5,-102.42 1271.57,-90 1274.45,-89.47 1277.4,-88.91 1280.37,-88.35"/>
<polygon fill="midnightblue" stroke="midnightblue" points="1074.39,-121.38 1065.11,-126.51 1075.56,-128.28 1074.39,-121.38"/>
</g>
<!-- Node23 -->
<g id="node23" class="node">
<title>Node23</title>
<g id="a_node23"><a xlink:href="_x_mutual_scene_8h.html" target="_top" xlink:title=" ">
<polygon fill="none" stroke="black" points="932.44,-63.5 932.44,-83.5 1088.69,-83.5 1088.69,-63.5 932.44,-63.5"/>
<text text-anchor="middle" x="1010.57" y="-70" font-family="Helvetica,sans-Serif" font-size="10.00">include/Scenes/XMutualScene.h</text>
</a>
</g>
</g>
<!-- Node20&#45;&gt;Node23 -->
<g id="edge41" class="edge">
<title>Node20&#45;&gt;Node23</title>
<path fill="none" stroke="midnightblue" d="M1010.57,-115.99C1010.57,-104.97 1010.57,-91.73 1010.57,-83.22"/>
<polygon fill="midnightblue" stroke="midnightblue" points="1007.07,-115.76 1010.57,-125.76 1014.07,-115.76 1007.07,-115.76"/>
</g>
<!-- Node21&#45;&gt;Node4 -->
<g id="edge31" class="edge">
<title>Node21&#45;&gt;Node4</title>
<path fill="none" stroke="midnightblue" d="M1135.53,-61.08C1085.01,-49.32 1007.31,-31.23 961.05,-20.46"/>
<polygon fill="midnightblue" stroke="midnightblue" points="1134.66,-64.71 1145.19,-63.56 1136.24,-57.89 1134.66,-64.71"/>
</g>
<!-- Node22&#45;&gt;Node4 -->
<g id="edge33" class="edge">
<title>Node22&#45;&gt;Node4</title>
<path fill="none" stroke="midnightblue" d="M1269.81,-56.77C1152.62,-37.94 1026.23,-23.01 963,-15.92"/>
<polygon fill="midnightblue" stroke="midnightblue" points="1268.97,-60.35 1279.4,-58.49 1270.09,-53.44 1268.97,-60.35"/>
</g>
<!-- Node23&#45;&gt;Node4 -->
<g id="edge42" class="edge">
<title>Node23&#45;&gt;Node4</title>
<path fill="none" stroke="midnightblue" d="M989.34,-57.79C972.53,-46.13 949.58,-30.23 935.44,-20.42"/>
<polygon fill="midnightblue" stroke="midnightblue" points="986.75,-60.94 996.96,-63.76 990.73,-55.19 986.75,-60.94"/>
</g>
<!-- Node24&#45;&gt;Node3 -->
<g id="edge47" class="edge">
<title>Node24&#45;&gt;Node3</title>
<path fill="none" stroke="midnightblue" d="M798.28,-126.38C746.83,-117.47 666.77,-103.35 597.57,-90 594.56,-89.42 591.5,-88.82 588.4,-88.21"/>
<polygon fill="midnightblue" stroke="midnightblue" points="797.36,-129.94 807.81,-128.2 798.55,-123.05 797.36,-129.94"/>
</g>
<!-- Node24&#45;&gt;Node5 -->
<g id="edge51" class="edge">
<title>Node24&#45;&gt;Node5</title>
<path fill="none" stroke="midnightblue" d="M815.35,-123.23C786.56,-113.47 746.18,-99.79 715.54,-89.4"/>
<polygon fill="midnightblue" stroke="midnightblue" points="813.8,-126.74 824.39,-126.63 816.05,-120.11 813.8,-126.74"/>
</g>
<!-- Node24&#45;&gt;Node6 -->
<g id="edge52" class="edge">
<title>Node24&#45;&gt;Node6</title>
<path fill="none" stroke="midnightblue" d="M846.23,-116.35C843.14,-105.25 839.4,-91.82 837,-83.22"/>
<polygon fill="midnightblue" stroke="midnightblue" points="843.08,-117.07 849.13,-125.76 849.82,-115.19 843.08,-117.07"/>
</g>
<!-- Node24&#45;&gt;Node7 -->
<g id="edge53" class="edge">
<title>Node24&#45;&gt;Node7</title>
<path fill="none" stroke="midnightblue" d="M798.06,-130.72C720.56,-123.51 572.65,-108.7 447.57,-90 444.38,-89.52 441.12,-89.01 437.84,-88.48"/>
<polygon fill="midnightblue" stroke="midnightblue" points="797.7,-134.29 807.97,-131.73 798.34,-127.32 797.7,-134.29"/>
</g>
<!-- Node24&#45;&gt;Node9 -->
<g id="edge49" class="edge">
<title>Node24&#45;&gt;Node9</title>
<path fill="none" stroke="midnightblue" d="M904.96,-127.79C910.23,-127.14 915.5,-126.53 920.57,-126 1146.14,-102.52 1204.79,-120.16 1429.57,-90 1432.71,-89.58 1435.93,-89.11 1439.16,-88.6"/>
<polygon fill="midnightblue" stroke="midnightblue" points="904.68,-124.43 895.21,-129.18 905.58,-131.37 904.68,-124.43"/>
</g>
<!-- Node24&#45;&gt;Node11 -->
<g id="edge50" class="edge">
<title>Node24&#45;&gt;Node11</title>
<path fill="none" stroke="midnightblue" d="M904.95,-127.71C910.22,-127.07 915.49,-126.49 920.57,-126 1215.21,-97.79 1291.89,-126.94 1585.57,-90 1588.72,-89.6 1591.93,-89.15 1595.17,-88.66"/>
<polygon fill="midnightblue" stroke="midnightblue" points="904.68,-124.34 895.2,-129.07 905.56,-131.28 904.68,-124.34"/>
</g>
<!-- Node24&#45;&gt;Node13 -->
<g id="edge48" class="edge">
<title>Node24&#45;&gt;Node13</title>
<path fill="none" stroke="midnightblue" d="M904.94,-127.65C910.21,-127.03 915.49,-126.46 920.57,-126 1284.32,-93.06 1378.8,-132.43 1741.57,-90 1744.7,-89.63 1747.89,-89.22 1751.1,-88.76"/>
<polygon fill="midnightblue" stroke="midnightblue" points="904.68,-124.28 895.19,-129 905.55,-131.23 904.68,-124.28"/>
</g>
<!-- Node24&#45;&gt;Node15 -->
<g id="edge44" class="edge">
<title>Node24&#45;&gt;Node15</title>
<path fill="none" stroke="midnightblue" d="M797.91,-131.45C774.21,-129.7 746,-127.67 720.57,-126 450.01,-108.19 378.72,-136.35 111.57,-90 102.78,-88.48 93.39,-86.01 84.98,-83.5"/>
<polygon fill="midnightblue" stroke="midnightblue" points="797.57,-135.01 807.8,-132.25 798.09,-128.02 797.57,-135.01"/>
</g>
<!-- Node24&#45;&gt;Node21 -->
<g id="edge45" class="edge">
<title>Node24&#45;&gt;Node21</title>
<path fill="none" stroke="midnightblue" d="M905.03,-125.71C968.68,-114.05 1074.09,-94.74 1135.66,-83.46"/>
<polygon fill="midnightblue" stroke="midnightblue" points="904.63,-122.41 895.42,-127.65 905.89,-129.29 904.63,-122.41"/>
</g>
<!-- Node24&#45;&gt;Node22 -->
<g id="edge46" class="edge">
<title>Node24&#45;&gt;Node22</title>
<path fill="none" stroke="midnightblue" d="M904.98,-127.96C910.24,-127.27 915.51,-126.61 920.57,-126 1076.27,-107.3 1116.46,-113.12 1271.57,-90 1274.47,-89.57 1277.43,-89.1 1280.41,-88.61"/>
<polygon fill="midnightblue" stroke="midnightblue" points="904.68,-124.6 895.23,-129.39 905.61,-131.54 904.68,-124.6"/>
</g>
<!-- Node24&#45;&gt;Node23 -->
<g id="edge54" class="edge">
<title>Node24&#45;&gt;Node23</title>
<path fill="none" stroke="midnightblue" d="M884.89,-122.72C915.52,-110.97 960.15,-93.84 987.16,-83.48"/>
<polygon fill="midnightblue" stroke="midnightblue" points="883.77,-119.78 875.69,-126.63 886.28,-126.32 883.77,-119.78"/>
</g>
</g>
</svg>
