<?xml version="1.0" encoding="UTF-8" standalone="no"?>
<!DOCTYPE svg PUBLIC "-//W3C//DTD SVG 1.1//EN"
 "http://www.w3.org/Graphics/SVG/1.1/DTD/svg11.dtd">
<!-- Generated by graphviz version 8.1.0 (20230707.0739)
 -->
<!-- Title: include/TexVertex.h Pages: 1 -->
<svg width="605pt" height="200pt"
 viewBox="0.00 0.00 605.21 200.00" xmlns="http://www.w3.org/2000/svg" xmlns:xlink="http://www.w3.org/1999/xlink">
<g id="graph0" class="graph" transform="scale(1 1) rotate(0) translate(4 196)">
<title>include/TexVertex.h</title>
<!-- Node1 -->
<g id="node1" class="node">
<title>Node1</title>
<g id="a_node1"><a xlink:title=" ">
<polygon fill="#bfbfbf" stroke="black" points="191.46,-171.5 191.46,-191.5 293.71,-191.5 293.71,-171.5 191.46,-171.5"/>
<text text-anchor="middle" x="242.59" y="-178" font-family="Helvetica,sans-Serif" font-size="10.00">include/TexVertex.h</text>
</a>
</g>
</g>
<!-- Node2 -->
<g id="node2" class="node">
<title>Node2</title>
<g id="a_node2"><a xlink:href="_vector2_8h.html" target="_top" xlink:title=" ">
<polygon fill="none" stroke="black" points="113.46,-114.5 113.46,-134.5 233.71,-134.5 233.71,-114.5 113.46,-114.5"/>
<text text-anchor="middle" x="173.59" y="-121" font-family="Helvetica,sans-Serif" font-size="10.00">LinearAlgebra/Vector2.h</text>
</a>
</g>
</g>
<!-- Node1&#45;&gt;Node2 -->
<g id="edge1" class="edge">
<title>Node1&#45;&gt;Node2</title>
<path fill="none" stroke="midnightblue" d="M231.5,-171.66C221.2,-163.45 205.63,-151.04 193.23,-141.15"/>
<polygon fill="midnightblue" stroke="midnightblue" points="195.88,-137.99 185.87,-134.5 191.51,-143.47 195.88,-137.99"/>
</g>
<!-- Node14 -->
<g id="node14" class="node">
<title>Node14</title>
<g id="a_node14"><a xlink:href="_vector3_8h.html" target="_top" xlink:title=" ">
<polygon fill="none" stroke="black" points="251.46,-114.5 251.46,-134.5 371.71,-134.5 371.71,-114.5 251.46,-114.5"/>
<text text-anchor="middle" x="311.59" y="-121" font-family="Helvetica,sans-Serif" font-size="10.00">LinearAlgebra/Vector3.h</text>
</a>
</g>
</g>
<!-- Node1&#45;&gt;Node14 -->
<g id="edge19" class="edge">
<title>Node1&#45;&gt;Node14</title>
<path fill="none" stroke="midnightblue" d="M253.67,-171.66C263.97,-163.45 279.54,-151.04 291.95,-141.15"/>
<polygon fill="midnightblue" stroke="midnightblue" points="293.66,-143.47 299.3,-134.5 289.3,-137.99 293.66,-143.47"/>
</g>
<!-- Node3 -->
<g id="node3" class="node">
<title>Node3</title>
<g id="a_node3"><a xlink:href="_math_8h.html" target="_top" xlink:title=" ">
<polygon fill="none" stroke="black" points="423.59,-57.5 423.59,-77.5 469.59,-77.5 469.59,-57.5 423.59,-57.5"/>
<text text-anchor="middle" x="446.59" y="-64" font-family="Helvetica,sans-Serif" font-size="10.00">Math.h</text>
</a>
</g>
</g>
<!-- Node2&#45;&gt;Node3 -->
<g id="edge2" class="edge">
<title>Node2&#45;&gt;Node3</title>
<path fill="none" stroke="midnightblue" d="M218.06,-114.54C272.72,-103.53 364.25,-85.09 413.24,-75.22"/>
<polygon fill="midnightblue" stroke="midnightblue" points="413.77,-78.48 422.88,-73.07 412.39,-71.62 413.77,-78.48"/>
</g>
<!-- Node8 -->
<g id="node8" class="node">
<title>Node8</title>
<g id="a_node8"><a xlink:href="_matrix2_8h.html" target="_top" xlink:title=" ">
<polygon fill="none" stroke="black" points="13.34,-57.5 13.34,-77.5 69.84,-77.5 69.84,-57.5 13.34,-57.5"/>
<text text-anchor="middle" x="41.59" y="-64" font-family="Helvetica,sans-Serif" font-size="10.00">Matrix2.h</text>
</a>
</g>
</g>
<!-- Node2&#45;&gt;Node8 -->
<g id="edge8" class="edge">
<title>Node2&#45;&gt;Node8</title>
<path fill="none" stroke="midnightblue" d="M152.09,-114.54C130.61,-105.59 97.36,-91.74 72.94,-81.57"/>
<polygon fill="midnightblue" stroke="midnightblue" points="74.66,-78.07 64.08,-77.46 71.96,-84.53 74.66,-78.07"/>
</g>
<!-- Node9 -->
<g id="node9" class="node">
<title>Node9</title>
<g id="a_node9"><a xlink:title=" ">
<polygon fill="none" stroke="#bfbfbf" points="42.84,-0.5 42.84,-20.5 96.34,-20.5 96.34,-0.5 42.84,-0.5"/>
<text text-anchor="middle" x="69.59" y="-7" font-family="Helvetica,sans-Serif" font-size="10.00">iostream</text>
</a>
</g>
</g>
<!-- Node2&#45;&gt;Node9 -->
<g id="edge18" class="edge">
<title>Node2&#45;&gt;Node9</title>
<path fill="none" stroke="midnightblue" d="M113.82,-115.19C70.79,-107.84 18.03,-95.55 4.59,-78 -10.6,-58.18 16.3,-38.03 39.97,-25.19"/>
<polygon fill="midnightblue" stroke="midnightblue" points="41.15,-28 48.45,-20.32 37.95,-21.77 41.15,-28"/>
</g>
<!-- Node10 -->
<g id="node10" class="node">
<title>Node10</title>
<g id="a_node10"><a xlink:href="_matrix3_8h.html" target="_top" xlink:title=" ">
<polygon fill="none" stroke="black" points="311.34,-57.5 311.34,-77.5 367.84,-77.5 367.84,-57.5 311.34,-57.5"/>
<text text-anchor="middle" x="339.59" y="-64" font-family="Helvetica,sans-Serif" font-size="10.00">Matrix3.h</text>
</a>
</g>
</g>
<!-- Node2&#45;&gt;Node10 -->
<g id="edge10" class="edge">
<title>Node2&#45;&gt;Node10</title>
<path fill="none" stroke="midnightblue" d="M200.63,-114.54C228.24,-105.39 271.32,-91.12 302.19,-80.89"/>
<polygon fill="midnightblue" stroke="midnightblue" points="303.17,-83.92 311.56,-77.46 300.96,-77.28 303.17,-83.92"/>
</g>
<!-- Node11 -->
<g id="node11" class="node">
<title>Node11</title>
<g id="a_node11"><a xlink:title=" ">
<polygon fill="none" stroke="#bfbfbf" points="303.71,-0.5 303.71,-20.5 341.46,-20.5 341.46,-0.5 303.71,-0.5"/>
<text text-anchor="middle" x="322.59" y="-7" font-family="Helvetica,sans-Serif" font-size="10.00">array</text>
</a>
</g>
</g>
<!-- Node2&#45;&gt;Node11 -->
<g id="edge15" class="edge">
<title>Node2&#45;&gt;Node11</title>
<path fill="none" stroke="midnightblue" d="M173.63,-114.95C174.18,-100.99 177.26,-73.25 192.59,-57 193.5,-56.03 255.84,-34.47 293.85,-21.38"/>
<polygon fill="midnightblue" stroke="midnightblue" points="294.54,-24.5 302.86,-17.93 292.26,-17.88 294.54,-24.5"/>
</g>
<!-- Node12 -->
<g id="node12" class="node">
<title>Node12</title>
<g id="a_node12"><a xlink:title=" ">
<polygon fill="none" stroke="#bfbfbf" points="237.84,-0.5 237.84,-20.5 285.34,-20.5 285.34,-0.5 237.84,-0.5"/>
<text text-anchor="middle" x="261.59" y="-7" font-family="Helvetica,sans-Serif" font-size="10.00">cstddef</text>
</a>
</g>
</g>
<!-- Node2&#45;&gt;Node12 -->
<g id="edge17" class="edge">
<title>Node2&#45;&gt;Node12</title>
<path fill="none" stroke="midnightblue" d="M167.82,-114.56C159.91,-101.02 147.9,-75.01 159.59,-57 174.53,-33.97 204.14,-22.5 227.63,-16.84"/>
<polygon fill="midnightblue" stroke="midnightblue" points="228.2,-20.09 237.24,-14.57 226.73,-13.24 228.2,-20.09"/>
</g>
<!-- Node13 -->
<g id="node13" class="node">
<title>Node13</title>
<g id="a_node13"><a xlink:title=" ">
<polygon fill="none" stroke="#bfbfbf" points="201.84,-57.5 201.84,-77.5 255.34,-77.5 255.34,-57.5 201.84,-57.5"/>
<text text-anchor="middle" x="228.59" y="-64" font-family="Helvetica,sans-Serif" font-size="10.00">compare</text>
</a>
</g>
</g>
<!-- Node2&#45;&gt;Node13 -->
<g id="edge16" class="edge">
<title>Node2&#45;&gt;Node13</title>
<path fill="none" stroke="midnightblue" d="M182.18,-114.91C190.21,-106.88 202.39,-94.69 212.27,-84.82"/>
<polygon fill="midnightblue" stroke="midnightblue" points="214.28,-87.76 218.87,-78.21 209.33,-82.81 214.28,-87.76"/>
</g>
<!-- Node3&#45;&gt;Node3 -->
<g id="edge3" class="edge">
<title>Node3&#45;&gt;Node3</title>
<path fill="none" stroke="midnightblue" d="M465.14,-77.43C476.64,-79.83 487.59,-76.52 487.59,-67.5 487.59,-61.44 482.65,-57.96 475.92,-57.05"/>
<polygon fill="midnightblue" stroke="midnightblue" points="475.96,-53.59 466.14,-57.57 476.3,-60.59 475.96,-53.59"/>
</g>
<!-- Node4 -->
<g id="node4" class="node">
<title>Node4</title>
<g id="a_node4"><a xlink:title=" ">
<polygon fill="none" stroke="#bfbfbf" points="359.09,-0.5 359.09,-20.5 402.09,-20.5 402.09,-0.5 359.09,-0.5"/>
<text text-anchor="middle" x="380.59" y="-7" font-family="Helvetica,sans-Serif" font-size="10.00">cmath</text>
</a>
</g>
</g>
<!-- Node3&#45;&gt;Node4 -->
<g id="edge4" class="edge">
<title>Node3&#45;&gt;Node4</title>
<path fill="none" stroke="midnightblue" d="M435.98,-57.66C426.23,-49.53 411.52,-37.28 399.72,-27.44"/>
<polygon fill="midnightblue" stroke="midnightblue" points="402.31,-24.21 392.38,-20.5 397.83,-29.59 402.31,-24.21"/>
</g>
<!-- Node5 -->
<g id="node5" class="node">
<title>Node5</title>
<g id="a_node5"><a xlink:title=" ">
<polygon fill="none" stroke="#bfbfbf" points="557.96,-0.5 557.96,-20.5 597.21,-20.5 597.21,-0.5 557.96,-0.5"/>
<text text-anchor="middle" x="577.59" y="-7" font-family="Helvetica,sans-Serif" font-size="10.00">limits</text>
</a>
</g>
</g>
<!-- Node3&#45;&gt;Node5 -->
<g id="edge5" class="edge">
<title>Node3&#45;&gt;Node5</title>
<path fill="none" stroke="midnightblue" d="M467.93,-57.54C489.65,-48.42 523.51,-34.2 547.86,-23.98"/>
<polygon fill="midnightblue" stroke="midnightblue" points="549.11,-26.83 556.97,-19.74 546.4,-20.38 549.11,-26.83"/>
</g>
<!-- Node6 -->
<g id="node6" class="node">
<title>Node6</title>
<g id="a_node6"><a xlink:title=" ">
<polygon fill="none" stroke="#bfbfbf" points="419.84,-0.5 419.84,-20.5 473.34,-20.5 473.34,-0.5 419.84,-0.5"/>
<text text-anchor="middle" x="446.59" y="-7" font-family="Helvetica,sans-Serif" font-size="10.00">numbers</text>
</a>
</g>
</g>
<!-- Node3&#45;&gt;Node6 -->
<g id="edge6" class="edge">
<title>Node3&#45;&gt;Node6</title>
<path fill="none" stroke="midnightblue" d="M446.59,-57.91C446.59,-50.76 446.59,-40.32 446.59,-31.15"/>
<polygon fill="midnightblue" stroke="midnightblue" points="450.09,-31.21 446.59,-21.21 443.09,-31.21 450.09,-31.21"/>
</g>
<!-- Node7 -->
<g id="node7" class="node">
<title>Node7</title>
<g id="a_node7"><a xlink:title=" ">
<polygon fill="none" stroke="#bfbfbf" points="491.46,-0.5 491.46,-20.5 539.71,-20.5 539.71,-0.5 491.46,-0.5"/>
<text text-anchor="middle" x="515.59" y="-7" font-family="Helvetica,sans-Serif" font-size="10.00">random</text>
</a>
</g>
</g>
<!-- Node3&#45;&gt;Node7 -->
<g id="edge7" class="edge">
<title>Node3&#45;&gt;Node7</title>
<path fill="none" stroke="midnightblue" d="M457.67,-57.66C467.97,-49.45 483.54,-37.04 495.95,-27.15"/>
<polygon fill="midnightblue" stroke="midnightblue" points="497.66,-29.47 503.3,-20.5 493.3,-23.99 497.66,-29.47"/>
</g>
<!-- Node8&#45;&gt;Node9 -->
<g id="edge9" class="edge">
<title>Node8&#45;&gt;Node9</title>
<path fill="none" stroke="midnightblue" d="M45.96,-57.91C49.76,-50.44 55.39,-39.38 60.21,-29.93"/>
<polygon fill="midnightblue" stroke="midnightblue" points="63.73,-31.71 65.15,-21.21 57.49,-28.54 63.73,-31.71"/>
</g>
<!-- Node10&#45;&gt;Node4 -->
<g id="edge12" class="edge">
<title>Node10&#45;&gt;Node4</title>
<path fill="none" stroke="midnightblue" d="M345.99,-57.91C351.74,-50.2 360.34,-38.66 367.53,-29.02"/>
<polygon fill="midnightblue" stroke="midnightblue" points="370.92,-31.32 374.09,-21.21 365.31,-27.14 370.92,-31.32"/>
</g>
<!-- Node10&#45;&gt;Node9 -->
<g id="edge14" class="edge">
<title>Node10&#45;&gt;Node9</title>
<path fill="none" stroke="midnightblue" d="M311.46,-60.77C262.43,-50.78 161.35,-30.19 106.66,-19.05"/>
<polygon fill="midnightblue" stroke="midnightblue" points="107.55,-15.46 97.05,-16.89 106.15,-22.32 107.55,-15.46"/>
</g>
<!-- Node10&#45;&gt;Node11 -->
<g id="edge11" class="edge">
<title>Node10&#45;&gt;Node11</title>
<path fill="none" stroke="midnightblue" d="M336.93,-57.91C334.67,-50.6 331.35,-39.85 328.47,-30.54"/>
<polygon fill="midnightblue" stroke="midnightblue" points="331.58,-29.74 325.28,-21.21 324.89,-31.8 331.58,-29.74"/>
</g>
<!-- Node10&#45;&gt;Node12 -->
<g id="edge13" class="edge">
<title>Node10&#45;&gt;Node12</title>
<path fill="none" stroke="midnightblue" d="M327.05,-57.66C315.19,-49.29 297.12,-36.56 282.97,-26.58"/>
<polygon fill="midnightblue" stroke="midnightblue" points="285.54,-23.4 275.35,-20.5 281.5,-29.12 285.54,-23.4"/>
</g>
<!-- Node14&#45;&gt;Node3 -->
<g id="edge20" class="edge">
<title>Node14&#45;&gt;Node3</title>
<path fill="none" stroke="midnightblue" d="M333.58,-114.54C355.54,-105.59 389.55,-91.74 414.52,-81.57"/>
<polygon fill="midnightblue" stroke="midnightblue" points="415.67,-84.47 423.61,-77.46 413.02,-77.99 415.67,-84.47"/>
</g>
<!-- Node14&#45;&gt;Node9 -->
<g id="edge23" class="edge">
<title>Node14&#45;&gt;Node9</title>
<path fill="none" stroke="midnightblue" d="M285.18,-114.52C260.8,-105.97 223.74,-92.3 192.59,-78 157.3,-61.8 118.09,-39.88 93.63,-25.71"/>
<polygon fill="midnightblue" stroke="midnightblue" points="95.81,-22.35 85.41,-20.34 92.29,-28.4 95.81,-22.35"/>
</g>
<!-- Node14&#45;&gt;Node10 -->
<g id="edge21" class="edge">
<title>Node14&#45;&gt;Node10</title>
<path fill="none" stroke="midnightblue" d="M315.96,-114.91C319.76,-107.44 325.39,-96.38 330.21,-86.93"/>
<polygon fill="midnightblue" stroke="midnightblue" points="333.73,-88.71 335.15,-78.21 327.49,-85.54 333.73,-88.71"/>
</g>
<!-- Node14&#45;&gt;Node11 -->
<g id="edge22" class="edge">
<title>Node14&#45;&gt;Node11</title>
<path fill="none" stroke="midnightblue" d="M333.72,-114.63C348.81,-107.28 367.62,-95.23 376.59,-78 386.87,-58.25 366.66,-38.86 348.1,-26.16"/>
<polygon fill="midnightblue" stroke="midnightblue" points="350.3,-22.77 339.99,-20.33 346.53,-28.67 350.3,-22.77"/>
</g>
<!-- Node14&#45;&gt;Node12 -->
<g id="edge25" class="edge">
<title>Node14&#45;&gt;Node12</title>
<path fill="none" stroke="midnightblue" d="M307.66,-114.71C299.56,-96.56 280.81,-54.56 269.89,-30.1"/>
<polygon fill="midnightblue" stroke="midnightblue" points="272.76,-28.95 265.49,-21.25 266.37,-31.81 272.76,-28.95"/>
</g>
<!-- Node14&#45;&gt;Node13 -->
<g id="edge24" class="edge">
<title>Node14&#45;&gt;Node13</title>
<path fill="none" stroke="midnightblue" d="M298.25,-114.66C285.5,-106.21 266.03,-93.31 250.92,-83.3"/>
<polygon fill="midnightblue" stroke="midnightblue" points="253.43,-80.1 243.17,-77.5 249.57,-85.94 253.43,-80.1"/>
</g>
</g>
</svg>
