<?xml version="1.0" encoding="UTF-8" standalone="no"?>
<!DOCTYPE svg PUBLIC "-//W3C//DTD SVG 1.1//EN"
 "http://www.w3.org/Graphics/SVG/1.1/DTD/svg11.dtd">
<!-- Generated by graphviz version 8.1.0 (20230707.0739)
 -->
<!-- Title: include/Triangle.h Pages: 1 -->
<svg width="1565pt" height="293pt"
 viewBox="0.00 0.00 1564.62 293.00" xmlns="http://www.w3.org/2000/svg" xmlns:xlink="http://www.w3.org/1999/xlink">
<g id="graph0" class="graph" transform="scale(1 1) rotate(0) translate(4 289)">
<title>include/Triangle.h</title>
<!-- Node1 -->
<g id="node1" class="node">
<title>Node1</title>
<g id="a_node1"><a xlink:title=" ">
<polygon fill="#bfbfbf" stroke="black" points="717.12,-264.5 717.12,-284.5 808.88,-284.5 808.88,-264.5 717.12,-264.5"/>
<text text-anchor="middle" x="763" y="-271" font-family="Helvetica,sans-Serif" font-size="10.00">include/Triangle.h</text>
</a>
</g>
</g>
<!-- Node2 -->
<g id="node2" class="node">
<title>Node2</title>
<g id="a_node2"><a xlink:href="_pipeline_8h.html" target="_top" xlink:title=" ">
<polygon fill="none" stroke="black" points="644.75,-201.5 644.75,-221.5 737.25,-221.5 737.25,-201.5 644.75,-201.5"/>
<text text-anchor="middle" x="691" y="-208" font-family="Helvetica,sans-Serif" font-size="10.00">include/Pipeline.h</text>
</a>
</g>
</g>
<!-- Node1&#45;&gt;Node2 -->
<g id="edge1" class="edge">
<title>Node1&#45;&gt;Node2</title>
<path fill="none" stroke="midnightblue" d="M744.42,-257.76C730.7,-246.13 712.52,-230.73 701.3,-221.22"/>
<polygon fill="midnightblue" stroke="midnightblue" points="741.79,-260.97 751.68,-264.76 746.32,-255.63 741.79,-260.97"/>
</g>
<!-- Node21 -->
<g id="node21" class="node">
<title>Node21</title>
<g id="a_node21"><a xlink:href="_default_geometry_shader_8h.html" target="_top" xlink:title=" ">
<polygon fill="none" stroke="black" points="824.25,-195.5 824.25,-227.5 985.75,-227.5 985.75,-195.5 824.25,-195.5"/>
<text text-anchor="start" x="832.25" y="-214" font-family="Helvetica,sans-Serif" font-size="10.00">include/Shaders/DefaultGeometry</text>
<text text-anchor="middle" x="905" y="-202" font-family="Helvetica,sans-Serif" font-size="10.00">Shader.h</text>
</a>
</g>
</g>
<!-- Node1&#45;&gt;Node21 -->
<g id="edge36" class="edge">
<title>Node1&#45;&gt;Node21</title>
<path fill="none" stroke="midnightblue" d="M793.69,-260.32C816.23,-250.63 846.88,-237.47 870.31,-227.4"/>
<polygon fill="midnightblue" stroke="midnightblue" points="792.45,-257.47 784.65,-264.63 795.22,-263.9 792.45,-257.47"/>
</g>
<!-- Node3 -->
<g id="node3" class="node">
<title>Node3</title>
<g id="a_node3"><a xlink:href="_geometry_flat_effect_8h.html" target="_top" xlink:title=" ">
<polygon fill="none" stroke="black" points="719.25,-126.5 719.25,-158.5 844.75,-158.5 844.75,-126.5 719.25,-126.5"/>
<text text-anchor="start" x="727.25" y="-145" font-family="Helvetica,sans-Serif" font-size="10.00">include/Effects/Geometry</text>
<text text-anchor="middle" x="782" y="-133" font-family="Helvetica,sans-Serif" font-size="10.00">FlatEffect.h</text>
</a>
</g>
</g>
<!-- Node2&#45;&gt;Node3 -->
<g id="edge2" class="edge">
<title>Node2&#45;&gt;Node3</title>
<path fill="none" stroke="midnightblue" d="M711.47,-195.43C726.49,-184.37 746.79,-169.43 761.75,-158.41"/>
<polygon fill="midnightblue" stroke="midnightblue" points="709.87,-192.99 703.9,-201.74 714.02,-198.63 709.87,-192.99"/>
</g>
<!-- Node4 -->
<g id="node4" class="node">
<title>Node4</title>
<g id="a_node4"><a xlink:href="_geometry_flat_scene_8h.html" target="_top" xlink:title=" ">
<polygon fill="none" stroke="black" points="648.5,-57.5 648.5,-89.5 793.5,-89.5 793.5,-57.5 648.5,-57.5"/>
<text text-anchor="start" x="656.5" y="-76" font-family="Helvetica,sans-Serif" font-size="10.00">include/Scenes/GeometryFlat</text>
<text text-anchor="middle" x="721" y="-64" font-family="Helvetica,sans-Serif" font-size="10.00">Scene.h</text>
</a>
</g>
</g>
<!-- Node2&#45;&gt;Node4 -->
<g id="edge35" class="edge">
<title>Node2&#45;&gt;Node4</title>
<path fill="none" stroke="midnightblue" d="M682.57,-191.81C675.91,-174.33 668.98,-147.74 677,-126 682.29,-111.66 693.56,-98.6 703.36,-89.22"/>
<polygon fill="midnightblue" stroke="midnightblue" points="679.66,-192.94 686.74,-200.83 686.13,-190.25 679.66,-192.94"/>
</g>
<!-- Node6 -->
<g id="node6" class="node">
<title>Node6</title>
<g id="a_node6"><a xlink:href="_solid_effect_8h.html" target="_top" xlink:title=" ">
<polygon fill="none" stroke="black" points="487.25,-132.5 487.25,-152.5 624.75,-152.5 624.75,-132.5 487.25,-132.5"/>
<text text-anchor="middle" x="556" y="-139" font-family="Helvetica,sans-Serif" font-size="10.00">include/Effects/SolidEffect.h</text>
</a>
</g>
</g>
<!-- Node2&#45;&gt;Node6 -->
<g id="edge5" class="edge">
<title>Node2&#45;&gt;Node6</title>
<path fill="none" stroke="midnightblue" d="M663.53,-196.87C636.79,-183.6 596.93,-163.82 574,-152.43"/>
<polygon fill="midnightblue" stroke="midnightblue" points="661.56,-200.29 672.07,-201.6 664.67,-194.02 661.56,-200.29"/>
</g>
<!-- Node7 -->
<g id="node7" class="node">
<title>Node7</title>
<g id="a_node7"><a xlink:href="_cube_solid_scene_8h.html" target="_top" xlink:title=" ">
<polygon fill="none" stroke="black" points="344,-57.5 344,-89.5 474,-89.5 474,-57.5 344,-57.5"/>
<text text-anchor="start" x="352" y="-76" font-family="Helvetica,sans-Serif" font-size="10.00">include/Scenes/CubeSolid</text>
<text text-anchor="middle" x="409" y="-64" font-family="Helvetica,sans-Serif" font-size="10.00">Scene.h</text>
</a>
</g>
</g>
<!-- Node2&#45;&gt;Node7 -->
<g id="edge31" class="edge">
<title>Node2&#45;&gt;Node7</title>
<path fill="none" stroke="midnightblue" d="M633.89,-207.2C529.4,-200.58 316.08,-184.12 294,-159 284.32,-147.98 286.03,-138.31 294,-126 305.48,-108.28 324.64,-96.61 344.07,-88.93"/>
<polygon fill="midnightblue" stroke="midnightblue" points="633.67,-210.76 643.87,-207.89 634.1,-203.77 633.67,-210.76"/>
</g>
<!-- Node8 -->
<g id="node8" class="node">
<title>Node8</title>
<g id="a_node8"><a xlink:href="_double_cube_scene_8h.html" target="_top" xlink:title=" ">
<polygon fill="none" stroke="black" points="491.88,-57.5 491.88,-89.5 630.12,-89.5 630.12,-57.5 491.88,-57.5"/>
<text text-anchor="start" x="499.88" y="-76" font-family="Helvetica,sans-Serif" font-size="10.00">include/Scenes/DoubleCube</text>
<text text-anchor="middle" x="561" y="-64" font-family="Helvetica,sans-Serif" font-size="10.00">Scene.h</text>
</a>
</g>
</g>
<!-- Node2&#45;&gt;Node8 -->
<g id="edge34" class="edge">
<title>Node2&#45;&gt;Node8</title>
<path fill="none" stroke="midnightblue" d="M634.19,-204.63C577.81,-197.5 497.12,-183.29 478,-159 468.93,-147.47 470.87,-138.82 478,-126 487.23,-109.4 504.28,-97.47 520.52,-89.3"/>
<polygon fill="midnightblue" stroke="midnightblue" points="633.42,-208.19 643.77,-205.92 634.26,-201.24 633.42,-208.19"/>
</g>
<!-- Node9 -->
<g id="node9" class="node">
<title>Node9</title>
<g id="a_node9"><a xlink:href="_solid_geometry_effect_8h.html" target="_top" xlink:title=" ">
<polygon fill="none" stroke="black" points="61.38,-126.5 61.38,-158.5 208.62,-158.5 208.62,-126.5 61.38,-126.5"/>
<text text-anchor="start" x="69.38" y="-145" font-family="Helvetica,sans-Serif" font-size="10.00">include/Effects/SolidGeometry</text>
<text text-anchor="middle" x="135" y="-133" font-family="Helvetica,sans-Serif" font-size="10.00">Effect.h</text>
</a>
</g>
</g>
<!-- Node2&#45;&gt;Node9 -->
<g id="edge10" class="edge">
<title>Node2&#45;&gt;Node9</title>
<path fill="none" stroke="midnightblue" d="M634.21,-205.45C546,-197.33 370.83,-180.13 223,-159 218.24,-158.32 213.34,-157.58 208.41,-156.8"/>
<polygon fill="midnightblue" stroke="midnightblue" points="633.76,-209.01 644.04,-206.44 634.4,-202.04 633.76,-209.01"/>
</g>
<!-- Node10 -->
<g id="node10" class="node">
<title>Node10</title>
<g id="a_node10"><a xlink:href="_cube_solid_geometry_scene_8h.html" target="_top" xlink:title=" ">
<polygon fill="none" stroke="black" points="0,-57.5 0,-89.5 130,-89.5 130,-57.5 0,-57.5"/>
<text text-anchor="start" x="8" y="-76" font-family="Helvetica,sans-Serif" font-size="10.00">include/Scenes/CubeSolid</text>
<text text-anchor="middle" x="65" y="-64" font-family="Helvetica,sans-Serif" font-size="10.00">GeometryScene.h</text>
</a>
</g>
</g>
<!-- Node2&#45;&gt;Node10 -->
<g id="edge30" class="edge">
<title>Node2&#45;&gt;Node10</title>
<path fill="none" stroke="midnightblue" d="M634.17,-210.22C485,-208.88 91.07,-201.34 52,-159 34.59,-140.13 46.65,-108.17 56.3,-89.44"/>
<polygon fill="midnightblue" stroke="midnightblue" points="633.87,-213.72 643.9,-210.3 633.93,-206.72 633.87,-213.72"/>
</g>
<!-- Node11 -->
<g id="node11" class="node">
<title>Node11</title>
<g id="a_node11"><a xlink:href="_texture_effect_8h.html" target="_top" xlink:title=" ">
<polygon fill="none" stroke="black" points="901,-132.5 901,-152.5 1049,-152.5 1049,-132.5 901,-132.5"/>
<text text-anchor="middle" x="975" y="-139" font-family="Helvetica,sans-Serif" font-size="10.00">include/Effects/TextureEffect.h</text>
</a>
</g>
</g>
<!-- Node2&#45;&gt;Node11 -->
<g id="edge13" class="edge">
<title>Node2&#45;&gt;Node11</title>
<path fill="none" stroke="midnightblue" d="M739.37,-199.09C795.3,-185.89 886.22,-164.45 937.22,-152.41"/>
<polygon fill="midnightblue" stroke="midnightblue" points="738.94,-195.83 730.01,-201.53 740.54,-202.64 738.94,-195.83"/>
</g>
<!-- Node12 -->
<g id="node12" class="node">
<title>Node12</title>
<g id="a_node12"><a xlink:href="_cube_skin_scene_8h.html" target="_top" xlink:title=" ">
<polygon fill="none" stroke="black" points="811.12,-63.5 811.12,-83.5 974.88,-83.5 974.88,-63.5 811.12,-63.5"/>
<text text-anchor="middle" x="893" y="-70" font-family="Helvetica,sans-Serif" font-size="10.00">include/Scenes/CubeSkinScene.h</text>
</a>
</g>
</g>
<!-- Node2&#45;&gt;Node12 -->
<g id="edge29" class="edge">
<title>Node2&#45;&gt;Node12</title>
<path fill="none" stroke="midnightblue" d="M690.03,-190.82C690.2,-171.79 693.54,-143.36 710,-126 727.66,-107.38 791.38,-92.38 838.7,-83.47"/>
<polygon fill="midnightblue" stroke="midnightblue" points="686.55,-190.84 690.27,-200.76 693.55,-190.68 686.55,-190.84"/>
</g>
<!-- Node13 -->
<g id="node13" class="node">
<title>Node13</title>
<g id="a_node13"><a xlink:href="_vertex_color_effect_8h.html" target="_top" xlink:title=" ">
<polygon fill="none" stroke="black" points="1105.12,-126.5 1105.12,-158.5 1238.88,-158.5 1238.88,-126.5 1105.12,-126.5"/>
<text text-anchor="start" x="1113.12" y="-145" font-family="Helvetica,sans-Serif" font-size="10.00">include/Effects/VertexColor</text>
<text text-anchor="middle" x="1172" y="-133" font-family="Helvetica,sans-Serif" font-size="10.00">Effect.h</text>
</a>
</g>
</g>
<!-- Node2&#45;&gt;Node13 -->
<g id="edge16" class="edge">
<title>Node2&#45;&gt;Node13</title>
<path fill="none" stroke="midnightblue" d="M747.66,-203.4C849.92,-190.56 1057.85,-164.3 1091,-159 1095.67,-158.25 1100.47,-157.44 1105.31,-156.6"/>
<polygon fill="midnightblue" stroke="midnightblue" points="747.4,-200.03 737.91,-204.75 748.27,-206.98 747.4,-200.03"/>
</g>
<!-- Node14 -->
<g id="node14" class="node">
<title>Node14</title>
<g id="a_node14"><a xlink:href="_cube_vertex_color_scene_8h.html" target="_top" xlink:title=" ">
<polygon fill="none" stroke="black" points="992.62,-57.5 992.62,-89.5 1129.38,-89.5 1129.38,-57.5 992.62,-57.5"/>
<text text-anchor="start" x="1000.62" y="-76" font-family="Helvetica,sans-Serif" font-size="10.00">include/Scenes/CubeVertex</text>
<text text-anchor="middle" x="1061" y="-64" font-family="Helvetica,sans-Serif" font-size="10.00">ColorScene.h</text>
</a>
</g>
</g>
<!-- Node2&#45;&gt;Node14 -->
<g id="edge32" class="edge">
<title>Node2&#45;&gt;Node14</title>
<path fill="none" stroke="midnightblue" d="M746.17,-199.04C778.87,-190.83 820.36,-177.84 854,-159 873.52,-148.07 872.43,-136.83 892,-126 923.27,-108.7 961.07,-96.48 992.99,-88.3"/>
<polygon fill="midnightblue" stroke="midnightblue" points="745.78,-195.78 736.89,-201.54 747.43,-202.58 745.78,-195.78"/>
</g>
<!-- Node15 -->
<g id="node15" class="node">
<title>Node15</title>
<g id="a_node15"><a xlink:href="_vertex_flat_effect_8h.html" target="_top" xlink:title=" ">
<polygon fill="none" stroke="black" points="303.12,-126.5 303.12,-158.5 430.88,-158.5 430.88,-126.5 303.12,-126.5"/>
<text text-anchor="start" x="311.12" y="-145" font-family="Helvetica,sans-Serif" font-size="10.00">include/Effects/VertexFlat</text>
<text text-anchor="middle" x="367" y="-133" font-family="Helvetica,sans-Serif" font-size="10.00">Effect.h</text>
</a>
</g>
</g>
<!-- Node2&#45;&gt;Node15 -->
<g id="edge19" class="edge">
<title>Node2&#45;&gt;Node15</title>
<path fill="none" stroke="midnightblue" d="M637.08,-199.35C580.3,-187.61 490.95,-169.13 430.72,-156.68"/>
<polygon fill="midnightblue" stroke="midnightblue" points="636.14,-202.94 646.64,-201.53 637.56,-196.08 636.14,-202.94"/>
</g>
<!-- Node16 -->
<g id="node16" class="node">
<title>Node16</title>
<g id="a_node16"><a xlink:href="_cube_flat_independent_scene_8h.html" target="_top" xlink:title=" ">
<polygon fill="none" stroke="black" points="148.38,-57.5 148.38,-89.5 325.62,-89.5 325.62,-57.5 148.38,-57.5"/>
<text text-anchor="start" x="156.38" y="-76" font-family="Helvetica,sans-Serif" font-size="10.00">include/Scenes/CubeFlatIndependent</text>
<text text-anchor="middle" x="237" y="-64" font-family="Helvetica,sans-Serif" font-size="10.00">Scene.h</text>
</a>
</g>
</g>
<!-- Node2&#45;&gt;Node16 -->
<g id="edge28" class="edge">
<title>Node2&#45;&gt;Node16</title>
<path fill="none" stroke="midnightblue" d="M633.94,-209.6C535.48,-207.03 338.86,-197.13 283,-159 258.72,-142.43 246.08,-108.7 240.56,-89.24"/>
<polygon fill="midnightblue" stroke="midnightblue" points="633.79,-213.12 643.87,-209.86 633.96,-206.12 633.79,-213.12"/>
</g>
<!-- Node17 -->
<g id="node17" class="node">
<title>Node17</title>
<g id="a_node17"><a xlink:href="_vertex_position_color_effect_8h.html" target="_top" xlink:title=" ">
<polygon fill="none" stroke="black" points="1256.75,-126.5 1256.75,-158.5 1403.25,-158.5 1403.25,-126.5 1256.75,-126.5"/>
<text text-anchor="start" x="1264.75" y="-145" font-family="Helvetica,sans-Serif" font-size="10.00">include/Effects/VertexPosition</text>
<text text-anchor="middle" x="1330" y="-133" font-family="Helvetica,sans-Serif" font-size="10.00">ColorEffect.h</text>
</a>
</g>
</g>
<!-- Node2&#45;&gt;Node17 -->
<g id="edge22" class="edge">
<title>Node2&#45;&gt;Node17</title>
<path fill="none" stroke="midnightblue" d="M747.88,-202.89C768.95,-200.2 793.04,-197.28 815,-195 1007.07,-175.02 1056.65,-184.97 1248,-159 1251.01,-158.59 1254.09,-158.14 1257.19,-157.67"/>
<polygon fill="midnightblue" stroke="midnightblue" points="747.64,-199.52 738.17,-204.27 748.54,-206.46 747.64,-199.52"/>
</g>
<!-- Node18 -->
<g id="node18" class="node">
<title>Node18</title>
<g id="a_node18"><a xlink:href="_cube_vertex_position_color_scene_8h.html" target="_top" xlink:title=" ">
<polygon fill="none" stroke="black" points="1147.62,-57.5 1147.62,-89.5 1284.38,-89.5 1284.38,-57.5 1147.62,-57.5"/>
<text text-anchor="start" x="1155.62" y="-76" font-family="Helvetica,sans-Serif" font-size="10.00">include/Scenes/CubeVertex</text>
<text text-anchor="middle" x="1216" y="-64" font-family="Helvetica,sans-Serif" font-size="10.00">PositionColorScene.h</text>
</a>
</g>
</g>
<!-- Node2&#45;&gt;Node18 -->
<g id="edge33" class="edge">
<title>Node2&#45;&gt;Node18</title>
<path fill="none" stroke="midnightblue" d="M747.88,-203.38C847.42,-190.79 1044.05,-165.35 1058,-159 1078.36,-149.73 1077.05,-137.89 1096,-126 1119.91,-111 1148.95,-98.41 1172.47,-89.43"/>
<polygon fill="midnightblue" stroke="midnightblue" points="747.59,-200.01 738.11,-204.74 748.47,-206.96 747.59,-200.01"/>
</g>
<!-- Node19 -->
<g id="node19" class="node">
<title>Node19</title>
<g id="a_node19"><a xlink:href="_wave_vertex_texture_effect_8h.html" target="_top" xlink:title=" ">
<polygon fill="none" stroke="black" points="1421.38,-126.5 1421.38,-158.5 1556.62,-158.5 1556.62,-126.5 1421.38,-126.5"/>
<text text-anchor="start" x="1429.38" y="-145" font-family="Helvetica,sans-Serif" font-size="10.00">include/Effects/WaveVertex</text>
<text text-anchor="middle" x="1489" y="-133" font-family="Helvetica,sans-Serif" font-size="10.00">TextureEffect.h</text>
</a>
</g>
</g>
<!-- Node2&#45;&gt;Node19 -->
<g id="edge25" class="edge">
<title>Node2&#45;&gt;Node19</title>
<path fill="none" stroke="midnightblue" d="M747.86,-202.62C768.92,-199.9 793.02,-197.03 815,-195 1079.68,-170.5 1148.41,-193.31 1412,-159 1415.11,-158.6 1418.28,-158.14 1421.48,-157.64"/>
<polygon fill="midnightblue" stroke="midnightblue" points="747.61,-199.25 738.15,-204.02 748.52,-206.19 747.61,-199.25"/>
</g>
<!-- Node3&#45;&gt;Node4 -->
<g id="edge3" class="edge">
<title>Node3&#45;&gt;Node4</title>
<path fill="none" stroke="midnightblue" d="M761.11,-118.56C752.31,-108.89 742.31,-97.91 734.5,-89.33"/>
<polygon fill="midnightblue" stroke="midnightblue" points="758.14,-120.59 767.46,-125.63 763.32,-115.88 758.14,-120.59"/>
</g>
<!-- Node5 -->
<g id="node5" class="node">
<title>Node5</title>
<g id="a_node5"><a xlink:href="_engine_8cpp.html" target="_top" xlink:title=" ">
<polygon fill="none" stroke="black" points="680.38,-0.5 680.38,-20.5 761.62,-20.5 761.62,-0.5 680.38,-0.5"/>
<text text-anchor="middle" x="721" y="-7" font-family="Helvetica,sans-Serif" font-size="10.00">src/Engine.cpp</text>
</a>
</g>
</g>
<!-- Node4&#45;&gt;Node5 -->
<g id="edge4" class="edge">
<title>Node4&#45;&gt;Node5</title>
<path fill="none" stroke="midnightblue" d="M721,-46.77C721,-37.31 721,-27.24 721,-20.28"/>
<polygon fill="midnightblue" stroke="midnightblue" points="717.5,-46.73 721,-56.73 724.5,-46.73 717.5,-46.73"/>
</g>
<!-- Node6&#45;&gt;Node7 -->
<g id="edge6" class="edge">
<title>Node6&#45;&gt;Node7</title>
<path fill="none" stroke="midnightblue" d="M526.68,-128.13C502.18,-116.97 467.28,-101.06 441.85,-89.47"/>
<polygon fill="midnightblue" stroke="midnightblue" points="524.93,-131.64 535.48,-132.6 527.83,-125.27 524.93,-131.64"/>
</g>
<!-- Node6&#45;&gt;Node8 -->
<g id="edge8" class="edge">
<title>Node6&#45;&gt;Node8</title>
<path fill="none" stroke="midnightblue" d="M557.47,-121.86C558.24,-111.49 559.17,-98.97 559.89,-89.41"/>
<polygon fill="midnightblue" stroke="midnightblue" points="553.91,-121.51 556.65,-131.74 560.89,-122.03 553.91,-121.51"/>
</g>
<!-- Node7&#45;&gt;Node5 -->
<g id="edge7" class="edge">
<title>Node7&#45;&gt;Node5</title>
<path fill="none" stroke="midnightblue" d="M484.53,-56.71C559.49,-41.76 635.27,-27.46 680.53,-19.01"/>
<polygon fill="midnightblue" stroke="midnightblue" points="484.08,-53.43 474.96,-58.83 485.45,-60.3 484.08,-53.43"/>
</g>
<!-- Node8&#45;&gt;Node5 -->
<g id="edge9" class="edge">
<title>Node8&#45;&gt;Node5</title>
<path fill="none" stroke="midnightblue" d="M610.13,-53.77C639.22,-42.68 674.75,-29.13 697.62,-20.42"/>
<polygon fill="midnightblue" stroke="midnightblue" points="609.24,-50.74 601.14,-57.58 611.73,-57.29 609.24,-50.74"/>
</g>
<!-- Node9&#45;&gt;Node10 -->
<g id="edge11" class="edge">
<title>Node9&#45;&gt;Node10</title>
<path fill="none" stroke="midnightblue" d="M111.64,-119.15C101.39,-109.33 89.64,-98.08 80.49,-89.33"/>
<polygon fill="midnightblue" stroke="midnightblue" points="108.82,-121.24 118.46,-125.63 113.66,-116.19 108.82,-121.24"/>
</g>
<!-- Node10&#45;&gt;Node5 -->
<g id="edge12" class="edge">
<title>Node10&#45;&gt;Node5</title>
<path fill="none" stroke="midnightblue" d="M140.75,-56.88C349.47,-27.66 587.27,-16.42 680.58,-12.87"/>
<polygon fill="midnightblue" stroke="midnightblue" points="140.3,-53.55 130.89,-58.42 141.28,-60.48 140.3,-53.55"/>
</g>
<!-- Node11&#45;&gt;Node12 -->
<g id="edge14" class="edge">
<title>Node11&#45;&gt;Node12</title>
<path fill="none" stroke="midnightblue" d="M956.08,-126.04C939.94,-112.86 917.3,-94.35 903.98,-83.48"/>
<polygon fill="midnightblue" stroke="midnightblue" points="953.32,-129.12 963.28,-132.74 957.75,-123.7 953.32,-129.12"/>
</g>
<!-- Node12&#45;&gt;Node5 -->
<g id="edge15" class="edge">
<title>Node12&#45;&gt;Node5</title>
<path fill="none" stroke="midnightblue" d="M857.82,-60.02C824.67,-48.27 775.8,-30.93 746.32,-20.48"/>
<polygon fill="midnightblue" stroke="midnightblue" points="856.39,-63.59 866.99,-63.63 858.73,-56.99 856.39,-63.59"/>
</g>
<!-- Node13&#45;&gt;Node14 -->
<g id="edge17" class="edge">
<title>Node13&#45;&gt;Node14</title>
<path fill="none" stroke="midnightblue" d="M1138.31,-121.16C1121.31,-110.9 1101.07,-98.69 1085.57,-89.33"/>
<polygon fill="midnightblue" stroke="midnightblue" points="1136,-124.46 1146.37,-126.63 1139.61,-118.47 1136,-124.46"/>
</g>
<!-- Node14&#45;&gt;Node5 -->
<g id="edge18" class="edge">
<title>Node14&#45;&gt;Node5</title>
<path fill="none" stroke="midnightblue" d="M982.2,-56.69C897.94,-41.03 811.21,-26.4 761.61,-18.17"/>
<polygon fill="midnightblue" stroke="midnightblue" points="981.53,-60.31 992,-58.71 982.81,-53.43 981.53,-60.31"/>
</g>
<!-- Node15&#45;&gt;Node16 -->
<g id="edge20" class="edge">
<title>Node15&#45;&gt;Node16</title>
<path fill="none" stroke="midnightblue" d="M328.64,-121.73C308.52,-111.36 284.27,-98.86 265.77,-89.33"/>
<polygon fill="midnightblue" stroke="midnightblue" points="326.66,-125.16 337.15,-126.63 329.86,-118.94 326.66,-125.16"/>
</g>
<!-- Node16&#45;&gt;Node5 -->
<g id="edge21" class="edge">
<title>Node16&#45;&gt;Node5</title>
<path fill="none" stroke="midnightblue" d="M336.13,-56.88C468.66,-38.78 612.18,-23.01 680.64,-15.73"/>
<polygon fill="midnightblue" stroke="midnightblue" points="335.82,-53.53 326.39,-58.36 336.77,-60.46 335.82,-53.53"/>
</g>
<!-- Node17&#45;&gt;Node18 -->
<g id="edge23" class="edge">
<title>Node17&#45;&gt;Node18</title>
<path fill="none" stroke="midnightblue" d="M1295.4,-121.16C1277.94,-110.9 1257.16,-98.69 1241.23,-89.33"/>
<polygon fill="midnightblue" stroke="midnightblue" points="1293.3,-124.58 1303.7,-126.63 1296.85,-118.55 1293.3,-124.58"/>
</g>
<!-- Node18&#45;&gt;Node5 -->
<g id="edge24" class="edge">
<title>Node18&#45;&gt;Node5</title>
<path fill="none" stroke="midnightblue" d="M1137.17,-56.97C992.54,-35.16 834.24,-20.8 761.41,-14.73"/>
<polygon fill="midnightblue" stroke="midnightblue" points="1136.58,-60.58 1147,-58.62 1137.64,-53.66 1136.58,-60.58"/>
</g>
<!-- Node20 -->
<g id="node20" class="node">
<title>Node20</title>
<g id="a_node20"><a xlink:href="_vertex_wave_scene_8h.html" target="_top" xlink:title=" ">
<polygon fill="none" stroke="black" points="1360.88,-57.5 1360.88,-89.5 1499.12,-89.5 1499.12,-57.5 1360.88,-57.5"/>
<text text-anchor="start" x="1368.88" y="-76" font-family="Helvetica,sans-Serif" font-size="10.00">include/Scenes/VertexWave</text>
<text text-anchor="middle" x="1430" y="-64" font-family="Helvetica,sans-Serif" font-size="10.00">Scene.h</text>
</a>
</g>
</g>
<!-- Node19&#45;&gt;Node20 -->
<g id="edge26" class="edge">
<title>Node19&#45;&gt;Node20</title>
<path fill="none" stroke="midnightblue" d="M1468.8,-118.56C1460.28,-108.89 1450.61,-97.91 1443.06,-89.33"/>
<polygon fill="midnightblue" stroke="midnightblue" points="1465.67,-120.44 1474.91,-125.63 1470.92,-115.81 1465.67,-120.44"/>
</g>
<!-- Node20&#45;&gt;Node5 -->
<g id="edge27" class="edge">
<title>Node20&#45;&gt;Node5</title>
<path fill="none" stroke="midnightblue" d="M1350.17,-63.02C1331.43,-60.91 1311.52,-58.78 1293,-57 1093.94,-37.83 855.33,-20.74 761.61,-14.26"/>
<polygon fill="midnightblue" stroke="midnightblue" points="1349.72,-66.6 1360.05,-64.25 1350.51,-59.64 1349.72,-66.6"/>
</g>
<!-- Node21&#45;&gt;Node3 -->
<g id="edge37" class="edge">
<title>Node21&#45;&gt;Node3</title>
<path fill="none" stroke="midnightblue" d="M868.19,-190.45C849.25,-180.13 826.56,-167.77 809.22,-158.33"/>
<polygon fill="midnightblue" stroke="midnightblue" points="866.25,-193.92 876.7,-195.63 869.59,-187.77 866.25,-193.92"/>
</g>
<!-- Node21&#45;&gt;Node6 -->
<g id="edge38" class="edge">
<title>Node21&#45;&gt;Node6</title>
<path fill="none" stroke="midnightblue" d="M816.41,-193.49C748.45,-180.45 657.32,-162.95 602.84,-152.49"/>
<polygon fill="midnightblue" stroke="midnightblue" points="815.63,-197.1 826.11,-195.55 816.95,-190.22 815.63,-197.1"/>
</g>
<!-- Node21&#45;&gt;Node11 -->
<g id="edge39" class="edge">
<title>Node21&#45;&gt;Node11</title>
<path fill="none" stroke="midnightblue" d="M928.14,-188.36C940.96,-176.08 956.19,-161.5 965.73,-152.37"/>
<polygon fill="midnightblue" stroke="midnightblue" points="926.34,-185.19 921.54,-194.63 931.18,-190.24 926.34,-185.19"/>
</g>
<!-- Node21&#45;&gt;Node13 -->
<g id="edge40" class="edge">
<title>Node21&#45;&gt;Node13</title>
<path fill="none" stroke="midnightblue" d="M975.2,-192.88C1017.95,-182.16 1071.97,-168.6 1112.59,-158.41"/>
<polygon fill="midnightblue" stroke="midnightblue" points="974.44,-189.72 965.59,-195.55 976.14,-196.51 974.44,-189.72"/>
</g>
<!-- Node21&#45;&gt;Node15 -->
<g id="edge41" class="edge">
<title>Node21&#45;&gt;Node15</title>
<path fill="none" stroke="midnightblue" d="M813.44,-199.96C726.93,-189.88 593.57,-174.04 478,-159 462.66,-157 446.14,-154.75 430.66,-152.6"/>
<polygon fill="midnightblue" stroke="midnightblue" points="812.94,-203.54 823.28,-201.22 813.75,-196.59 812.94,-203.54"/>
</g>
<!-- Node21&#45;&gt;Node17 -->
<g id="edge42" class="edge">
<title>Node21&#45;&gt;Node17</title>
<path fill="none" stroke="midnightblue" d="M996.39,-197.74C1065.58,-187.84 1162.91,-173.43 1248,-159 1251,-158.49 1254.06,-157.96 1257.15,-157.42"/>
<polygon fill="midnightblue" stroke="midnightblue" points="995.93,-194.41 986.53,-199.29 996.92,-201.34 995.93,-194.41"/>
</g>
<!-- Node21&#45;&gt;Node19 -->
<g id="edge43" class="edge">
<title>Node21&#45;&gt;Node19</title>
<path fill="none" stroke="midnightblue" d="M996.5,-203.9C1098.29,-195.94 1267.46,-180.84 1412,-159 1415.1,-158.53 1418.27,-158.02 1421.46,-157.48"/>
<polygon fill="midnightblue" stroke="midnightblue" points="996.35,-200.48 986.65,-204.75 996.89,-207.46 996.35,-200.48"/>
</g>
</g>
</svg>
