<?xml version="1.0" encoding="UTF-8" standalone="no"?>
<!DOCTYPE svg PUBLIC "-//W3C//DTD SVG 1.1//EN"
 "http://www.w3.org/Graphics/SVG/1.1/DTD/svg11.dtd">
<!-- Generated by graphviz version 8.1.0 (20230707.0739)
 -->
<!-- Title: test/LinearAlgebra/Vector3.cpp Pages: 1 -->
<svg width="515pt" height="212pt"
 viewBox="0.00 0.00 515.38 212.00" xmlns="http://www.w3.org/2000/svg" xmlns:xlink="http://www.w3.org/1999/xlink">
<g id="graph0" class="graph" transform="scale(1 1) rotate(0) translate(4 208)">
<title>test/LinearAlgebra/Vector3.cpp</title>
<!-- Node1 -->
<g id="node1" class="node">
<title>Node1</title>
<g id="a_node1"><a xlink:title=" ">
<polygon fill="#bfbfbf" stroke="black" points="231.25,-171.5 231.25,-203.5 326,-203.5 326,-171.5 231.25,-171.5"/>
<text text-anchor="start" x="239.25" y="-190" font-family="Helvetica,sans-Serif" font-size="10.00">test/LinearAlgebra</text>
<text text-anchor="middle" x="278.62" y="-178" font-family="Helvetica,sans-Serif" font-size="10.00">/Vector3.cpp</text>
</a>
</g>
</g>
<!-- Node2 -->
<g id="node2" class="node">
<title>Node2</title>
<g id="a_node2"><a xlink:title=" ">
<polygon fill="none" stroke="#bfbfbf" points="195.12,-0.5 195.12,-20.5 238.12,-20.5 238.12,-0.5 195.12,-0.5"/>
<text text-anchor="middle" x="216.62" y="-7" font-family="Helvetica,sans-Serif" font-size="10.00">cmath</text>
</a>
</g>
</g>
<!-- Node1&#45;&gt;Node2 -->
<g id="edge1" class="edge">
<title>Node1&#45;&gt;Node2</title>
<path fill="none" stroke="midnightblue" d="M243.52,-171.69C228.36,-163.31 212.16,-151.21 203.62,-135 185.95,-101.42 198.73,-55.62 208.44,-30.29"/>
<polygon fill="midnightblue" stroke="midnightblue" points="212.02,-31.79 212.56,-21.21 205.54,-29.14 212.02,-31.79"/>
</g>
<!-- Node3 -->
<g id="node3" class="node">
<title>Node3</title>
<g id="a_node3"><a xlink:title=" ">
<polygon fill="none" stroke="#bfbfbf" points="212.25,-114.5 212.25,-134.5 283,-134.5 283,-114.5 212.25,-114.5"/>
<text text-anchor="middle" x="247.62" y="-121" font-family="Helvetica,sans-Serif" font-size="10.00">gtest/gtest.h</text>
</a>
</g>
</g>
<!-- Node1&#45;&gt;Node3 -->
<g id="edge2" class="edge">
<title>Node1&#45;&gt;Node3</title>
<path fill="none" stroke="midnightblue" d="M271.12,-171.73C266.89,-163.41 261.57,-152.94 257.06,-144.06"/>
<polygon fill="midnightblue" stroke="midnightblue" points="259.74,-142.61 252.09,-135.28 253.5,-145.79 259.74,-142.61"/>
</g>
<!-- Node4 -->
<g id="node4" class="node">
<title>Node4</title>
<g id="a_node4"><a xlink:href="_vector3_8h.html" target="_top" xlink:title=" ">
<polygon fill="none" stroke="black" points="338.5,-114.5 338.5,-134.5 458.75,-134.5 458.75,-114.5 338.5,-114.5"/>
<text text-anchor="middle" x="398.62" y="-121" font-family="Helvetica,sans-Serif" font-size="10.00">LinearAlgebra/Vector3.h</text>
</a>
</g>
</g>
<!-- Node1&#45;&gt;Node4 -->
<g id="edge3" class="edge">
<title>Node1&#45;&gt;Node4</title>
<path fill="none" stroke="midnightblue" d="M307.98,-171.58C327.3,-161.76 352.41,-148.99 371.31,-139.39"/>
<polygon fill="midnightblue" stroke="midnightblue" points="372.76,-142.07 380.09,-134.42 369.59,-135.83 372.76,-142.07"/>
</g>
<!-- Node13 -->
<g id="node13" class="node">
<title>Node13</title>
<g id="a_node13"><a xlink:href="_matrix3_8h.html" target="_top" xlink:title=" ">
<polygon fill="none" stroke="black" points="276.38,-57.5 276.38,-77.5 332.88,-77.5 332.88,-57.5 276.38,-57.5"/>
<text text-anchor="middle" x="304.62" y="-64" font-family="Helvetica,sans-Serif" font-size="10.00">Matrix3.h</text>
</a>
</g>
</g>
<!-- Node1&#45;&gt;Node13 -->
<g id="edge19" class="edge">
<title>Node1&#45;&gt;Node13</title>
<path fill="none" stroke="midnightblue" d="M282.59,-171.68C285.29,-161.41 288.85,-147.42 291.62,-135 295.17,-119.18 298.66,-101.12 301.13,-87.82"/>
<polygon fill="midnightblue" stroke="midnightblue" points="304.73,-88.61 303.09,-78.14 297.85,-87.35 304.73,-88.61"/>
</g>
<!-- Node5 -->
<g id="node5" class="node">
<title>Node5</title>
<g id="a_node5"><a xlink:title=" ">
<polygon fill="none" stroke="#bfbfbf" points="369.75,-0.5 369.75,-20.5 407.5,-20.5 407.5,-0.5 369.75,-0.5"/>
<text text-anchor="middle" x="388.62" y="-7" font-family="Helvetica,sans-Serif" font-size="10.00">array</text>
</a>
</g>
</g>
<!-- Node4&#45;&gt;Node5 -->
<g id="edge4" class="edge">
<title>Node4&#45;&gt;Node5</title>
<path fill="none" stroke="midnightblue" d="M397.84,-114.71C396.24,-96.8 392.57,-55.69 390.38,-31.11"/>
<polygon fill="midnightblue" stroke="midnightblue" points="393.78,-30.9 389.41,-21.25 386.81,-31.52 393.78,-30.9"/>
</g>
<!-- Node6 -->
<g id="node6" class="node">
<title>Node6</title>
<g id="a_node6"><a xlink:title=" ">
<polygon fill="none" stroke="#bfbfbf" points="453.88,-0.5 453.88,-20.5 507.38,-20.5 507.38,-0.5 453.88,-0.5"/>
<text text-anchor="middle" x="480.62" y="-7" font-family="Helvetica,sans-Serif" font-size="10.00">iostream</text>
</a>
</g>
</g>
<!-- Node4&#45;&gt;Node6 -->
<g id="edge5" class="edge">
<title>Node4&#45;&gt;Node6</title>
<path fill="none" stroke="midnightblue" d="M437.07,-114.54C456.4,-107.89 478.11,-96.63 489.62,-78 498.42,-63.77 494.52,-44.58 489.39,-30.47"/>
<polygon fill="midnightblue" stroke="midnightblue" points="492.3,-29.34 485.24,-21.44 485.83,-32.01 492.3,-29.34"/>
</g>
<!-- Node7 -->
<g id="node7" class="node">
<title>Node7</title>
<g id="a_node7"><a xlink:title=" ">
<polygon fill="none" stroke="#bfbfbf" points="426.88,-57.5 426.88,-77.5 480.38,-77.5 480.38,-57.5 426.88,-57.5"/>
<text text-anchor="middle" x="453.62" y="-64" font-family="Helvetica,sans-Serif" font-size="10.00">compare</text>
</a>
</g>
</g>
<!-- Node4&#45;&gt;Node7 -->
<g id="edge6" class="edge">
<title>Node4&#45;&gt;Node7</title>
<path fill="none" stroke="midnightblue" d="M407.22,-114.91C415.24,-106.88 427.43,-94.69 437.3,-84.82"/>
<polygon fill="midnightblue" stroke="midnightblue" points="439.31,-87.76 443.91,-78.21 434.36,-82.81 439.31,-87.76"/>
</g>
<!-- Node8 -->
<g id="node8" class="node">
<title>Node8</title>
<g id="a_node8"><a xlink:title=" ">
<polygon fill="none" stroke="#bfbfbf" points="290.88,-0.5 290.88,-20.5 338.38,-20.5 338.38,-0.5 290.88,-0.5"/>
<text text-anchor="middle" x="314.62" y="-7" font-family="Helvetica,sans-Serif" font-size="10.00">cstddef</text>
</a>
</g>
</g>
<!-- Node4&#45;&gt;Node8 -->
<g id="edge7" class="edge">
<title>Node4&#45;&gt;Node8</title>
<path fill="none" stroke="midnightblue" d="M392.03,-114.71C378.17,-96.23 345.78,-53.04 327.6,-28.8"/>
<polygon fill="midnightblue" stroke="midnightblue" points="329.99,-27.15 321.19,-21.25 324.39,-31.35 329.99,-27.15"/>
</g>
<!-- Node9 -->
<g id="node9" class="node">
<title>Node9</title>
<g id="a_node9"><a xlink:href="_math_8h.html" target="_top" xlink:title=" ">
<polygon fill="none" stroke="black" points="92.62,-57.5 92.62,-77.5 138.62,-77.5 138.62,-57.5 92.62,-57.5"/>
<text text-anchor="middle" x="115.62" y="-64" font-family="Helvetica,sans-Serif" font-size="10.00">Math.h</text>
</a>
</g>
</g>
<!-- Node4&#45;&gt;Node9 -->
<g id="edge8" class="edge">
<title>Node4&#45;&gt;Node9</title>
<path fill="none" stroke="midnightblue" d="M352.53,-114.54C295.45,-103.45 199.6,-84.82 149.09,-75"/>
<polygon fill="midnightblue" stroke="midnightblue" points="149.93,-71.41 139.45,-72.94 148.6,-78.28 149.93,-71.41"/>
</g>
<!-- Node4&#45;&gt;Node13 -->
<g id="edge14" class="edge">
<title>Node4&#45;&gt;Node13</title>
<path fill="none" stroke="midnightblue" d="M383.52,-114.66C368.95,-106.13 346.62,-93.07 329.43,-83.01"/>
<polygon fill="midnightblue" stroke="midnightblue" points="331.4,-79.53 321,-77.5 327.87,-85.57 331.4,-79.53"/>
</g>
<!-- Node9&#45;&gt;Node2 -->
<g id="edge10" class="edge">
<title>Node9&#45;&gt;Node2</title>
<path fill="none" stroke="midnightblue" d="M131.85,-57.66C147.66,-49.05 171.95,-35.83 190.49,-25.73"/>
<polygon fill="midnightblue" stroke="midnightblue" points="191.99,-28.35 199.1,-20.5 188.65,-22.21 191.99,-28.35"/>
</g>
<!-- Node9&#45;&gt;Node9 -->
<g id="edge9" class="edge">
<title>Node9&#45;&gt;Node9</title>
<path fill="none" stroke="midnightblue" d="M134.18,-77.43C145.68,-79.83 156.62,-76.52 156.62,-67.5 156.62,-61.44 151.68,-57.96 144.95,-57.05"/>
<polygon fill="midnightblue" stroke="midnightblue" points="145,-53.59 135.18,-57.57 145.33,-60.59 145,-53.59"/>
</g>
<!-- Node10 -->
<g id="node10" class="node">
<title>Node10</title>
<g id="a_node10"><a xlink:title=" ">
<polygon fill="none" stroke="#bfbfbf" points="0,-0.5 0,-20.5 39.25,-20.5 39.25,-0.5 0,-0.5"/>
<text text-anchor="middle" x="19.62" y="-7" font-family="Helvetica,sans-Serif" font-size="10.00">limits</text>
</a>
</g>
</g>
<!-- Node9&#45;&gt;Node10 -->
<g id="edge11" class="edge">
<title>Node9&#45;&gt;Node10</title>
<path fill="none" stroke="midnightblue" d="M100.2,-57.66C85.17,-49.05 62.08,-35.83 44.47,-25.73"/>
<polygon fill="midnightblue" stroke="midnightblue" points="46.75,-22.43 36.33,-20.5 43.27,-28.51 46.75,-22.43"/>
</g>
<!-- Node11 -->
<g id="node11" class="node">
<title>Node11</title>
<g id="a_node11"><a xlink:title=" ">
<polygon fill="none" stroke="#bfbfbf" points="56.88,-0.5 56.88,-20.5 110.38,-20.5 110.38,-0.5 56.88,-0.5"/>
<text text-anchor="middle" x="83.62" y="-7" font-family="Helvetica,sans-Serif" font-size="10.00">numbers</text>
</a>
</g>
</g>
<!-- Node9&#45;&gt;Node11 -->
<g id="edge12" class="edge">
<title>Node9&#45;&gt;Node11</title>
<path fill="none" stroke="midnightblue" d="M110.62,-57.91C106.24,-50.36 99.71,-39.14 94.17,-29.62"/>
<polygon fill="midnightblue" stroke="midnightblue" points="96.75,-28.1 88.7,-21.21 90.7,-31.62 96.75,-28.1"/>
</g>
<!-- Node12 -->
<g id="node12" class="node">
<title>Node12</title>
<g id="a_node12"><a xlink:title=" ">
<polygon fill="none" stroke="#bfbfbf" points="128.5,-0.5 128.5,-20.5 176.75,-20.5 176.75,-0.5 128.5,-0.5"/>
<text text-anchor="middle" x="152.62" y="-7" font-family="Helvetica,sans-Serif" font-size="10.00">random</text>
</a>
</g>
</g>
<!-- Node9&#45;&gt;Node12 -->
<g id="edge13" class="edge">
<title>Node9&#45;&gt;Node12</title>
<path fill="none" stroke="midnightblue" d="M121.41,-57.91C126.54,-50.28 134.19,-38.9 140.64,-29.32"/>
<polygon fill="midnightblue" stroke="midnightblue" points="144.08,-31.47 146.76,-21.21 138.28,-27.56 144.08,-31.47"/>
</g>
<!-- Node13&#45;&gt;Node2 -->
<g id="edge16" class="edge">
<title>Node13&#45;&gt;Node2</title>
<path fill="none" stroke="midnightblue" d="M290.49,-57.66C276.97,-49.21 256.33,-36.31 240.3,-26.3"/>
<polygon fill="midnightblue" stroke="midnightblue" points="242.36,-22.83 232.02,-20.5 238.65,-28.77 242.36,-22.83"/>
</g>
<!-- Node13&#45;&gt;Node5 -->
<g id="edge15" class="edge">
<title>Node13&#45;&gt;Node5</title>
<path fill="none" stroke="midnightblue" d="M318.12,-57.66C331.03,-49.21 350.73,-36.31 366.03,-26.3"/>
<polygon fill="midnightblue" stroke="midnightblue" points="367.43,-28.9 373.88,-20.5 363.6,-23.05 367.43,-28.9"/>
</g>
<!-- Node13&#45;&gt;Node6 -->
<g id="edge18" class="edge">
<title>Node13&#45;&gt;Node6</title>
<path fill="none" stroke="midnightblue" d="M332.51,-57.79C362.6,-48.38 410.64,-33.37 443.81,-23"/>
<polygon fill="midnightblue" stroke="midnightblue" points="444.52,-26.14 453.02,-19.81 442.43,-19.46 444.52,-26.14"/>
</g>
<!-- Node13&#45;&gt;Node8 -->
<g id="edge17" class="edge">
<title>Node13&#45;&gt;Node8</title>
<path fill="none" stroke="midnightblue" d="M306.19,-57.91C307.5,-50.68 309.43,-40.09 311.11,-30.85"/>
<polygon fill="midnightblue" stroke="midnightblue" points="314.7,-31.68 313.04,-21.21 307.81,-30.43 314.7,-31.68"/>
</g>
</g>
</svg>
