<?xml version="1.0" encoding="UTF-8" standalone="no"?>
<!DOCTYPE svg PUBLIC "-//W3C//DTD SVG 1.1//EN"
 "http://www.w3.org/Graphics/SVG/1.1/DTD/svg11.dtd">
<!-- Generated by graphviz version 8.1.0 (20230707.0739)
 -->
<!-- Title: test/LinearAlgebra/Vector2.cpp Pages: 1 -->
<svg width="490pt" height="212pt"
 viewBox="0.00 0.00 489.53 212.00" xmlns="http://www.w3.org/2000/svg" xmlns:xlink="http://www.w3.org/1999/xlink">
<g id="graph0" class="graph" transform="scale(1 1) rotate(0) translate(4 208)">
<title>test/LinearAlgebra/Vector2.cpp</title>
<!-- Node1 -->
<g id="node1" class="node">
<title>Node1</title>
<g id="a_node1"><a xlink:title=" ">
<polygon fill="#bfbfbf" stroke="black" points="151.75,-171.5 151.75,-203.5 246.5,-203.5 246.5,-171.5 151.75,-171.5"/>
<text text-anchor="start" x="159.75" y="-190" font-family="Helvetica,sans-Serif" font-size="10.00">test/LinearAlgebra</text>
<text text-anchor="middle" x="199.12" y="-178" font-family="Helvetica,sans-Serif" font-size="10.00">/Vector2.cpp</text>
</a>
</g>
</g>
<!-- Node2 -->
<g id="node2" class="node">
<title>Node2</title>
<g id="a_node2"><a xlink:title=" ">
<polygon fill="none" stroke="#bfbfbf" points="81.75,-114.5 81.75,-134.5 152.5,-134.5 152.5,-114.5 81.75,-114.5"/>
<text text-anchor="middle" x="117.12" y="-121" font-family="Helvetica,sans-Serif" font-size="10.00">gtest/gtest.h</text>
</a>
</g>
</g>
<!-- Node1&#45;&gt;Node2 -->
<g id="edge1" class="edge">
<title>Node1&#45;&gt;Node2</title>
<path fill="none" stroke="midnightblue" d="M179.28,-171.73C166.61,-162.31 150.24,-150.14 137.48,-140.64"/>
<polygon fill="midnightblue" stroke="midnightblue" points="140.05,-137.44 129.93,-134.28 135.87,-143.06 140.05,-137.44"/>
</g>
<!-- Node3 -->
<g id="node3" class="node">
<title>Node3</title>
<g id="a_node3"><a xlink:href="_vector2_8h.html" target="_top" xlink:title=" ">
<polygon fill="none" stroke="black" points="257,-114.5 257,-134.5 377.25,-134.5 377.25,-114.5 257,-114.5"/>
<text text-anchor="middle" x="317.12" y="-121" font-family="Helvetica,sans-Serif" font-size="10.00">LinearAlgebra/Vector2.h</text>
</a>
</g>
</g>
<!-- Node1&#45;&gt;Node3 -->
<g id="edge2" class="edge">
<title>Node1&#45;&gt;Node3</title>
<path fill="none" stroke="midnightblue" d="M227.99,-171.58C246.99,-161.76 271.68,-148.99 290.26,-139.39"/>
<polygon fill="midnightblue" stroke="midnightblue" points="291.6,-142.12 298.88,-134.42 288.39,-135.9 291.6,-142.12"/>
</g>
<!-- Node4 -->
<g id="node4" class="node">
<title>Node4</title>
<g id="a_node4"><a xlink:href="_math_8h.html" target="_top" xlink:title=" ">
<polygon fill="none" stroke="black" points="108.12,-57.5 108.12,-77.5 154.12,-77.5 154.12,-57.5 108.12,-57.5"/>
<text text-anchor="middle" x="131.12" y="-64" font-family="Helvetica,sans-Serif" font-size="10.00">Math.h</text>
</a>
</g>
</g>
<!-- Node1&#45;&gt;Node4 -->
<g id="edge20" class="edge">
<title>Node1&#45;&gt;Node4</title>
<path fill="none" stroke="midnightblue" d="M191.84,-171.54C184.48,-156.72 172.6,-133.46 161.12,-114 155.66,-104.73 149.13,-94.71 143.56,-86.45"/>
<polygon fill="midnightblue" stroke="midnightblue" points="145.9,-84.68 137.37,-78.4 140.12,-88.63 145.9,-84.68"/>
</g>
<!-- Node11 -->
<g id="node11" class="node">
<title>Node11</title>
<g id="a_node11"><a xlink:href="_matrix3_8h.html" target="_top" xlink:title=" ">
<polygon fill="none" stroke="black" points="189.88,-57.5 189.88,-77.5 246.38,-77.5 246.38,-57.5 189.88,-57.5"/>
<text text-anchor="middle" x="218.12" y="-64" font-family="Helvetica,sans-Serif" font-size="10.00">Matrix3.h</text>
</a>
</g>
</g>
<!-- Node1&#45;&gt;Node11 -->
<g id="edge21" class="edge">
<title>Node1&#45;&gt;Node11</title>
<path fill="none" stroke="midnightblue" d="M201.53,-171.56C204.95,-150.33 211.21,-111.41 214.99,-87.96"/>
<polygon fill="midnightblue" stroke="midnightblue" points="218.58,-88.7 216.71,-78.27 211.67,-87.59 218.58,-88.7"/>
</g>
<!-- Node3&#45;&gt;Node4 -->
<g id="edge3" class="edge">
<title>Node3&#45;&gt;Node4</title>
<path fill="none" stroke="midnightblue" d="M286.83,-114.54C253.15,-104.58 198.94,-88.55 164.19,-78.28"/>
<polygon fill="midnightblue" stroke="midnightblue" points="165.65,-74.76 155.07,-75.28 163.67,-81.48 165.65,-74.76"/>
</g>
<!-- Node9 -->
<g id="node9" class="node">
<title>Node9</title>
<g id="a_node9"><a xlink:href="_matrix2_8h.html" target="_top" xlink:title=" ">
<polygon fill="none" stroke="black" points="411.88,-57.5 411.88,-77.5 468.38,-77.5 468.38,-57.5 411.88,-57.5"/>
<text text-anchor="middle" x="440.12" y="-64" font-family="Helvetica,sans-Serif" font-size="10.00">Matrix2.h</text>
</a>
</g>
</g>
<!-- Node3&#45;&gt;Node9 -->
<g id="edge9" class="edge">
<title>Node3&#45;&gt;Node9</title>
<path fill="none" stroke="midnightblue" d="M337.16,-114.54C357,-105.67 387.6,-91.99 410.29,-81.84"/>
<polygon fill="midnightblue" stroke="midnightblue" points="411.4,-84.73 419.1,-77.46 408.54,-78.34 411.4,-84.73"/>
</g>
<!-- Node10 -->
<g id="node10" class="node">
<title>Node10</title>
<g id="a_node10"><a xlink:title=" ">
<polygon fill="none" stroke="#bfbfbf" points="413.38,-0.5 413.38,-20.5 466.88,-20.5 466.88,-0.5 413.38,-0.5"/>
<text text-anchor="middle" x="440.12" y="-7" font-family="Helvetica,sans-Serif" font-size="10.00">iostream</text>
</a>
</g>
</g>
<!-- Node3&#45;&gt;Node10 -->
<g id="edge19" class="edge">
<title>Node3&#45;&gt;Node10</title>
<path fill="none" stroke="midnightblue" d="M375.01,-114.52C415.53,-106.91 464.59,-94.59 477.12,-78 489.29,-61.9 473.77,-41.34 459.27,-27.38"/>
<polygon fill="midnightblue" stroke="midnightblue" points="462.27,-25.47 452.5,-21.37 457.58,-30.66 462.27,-25.47"/>
</g>
<!-- Node3&#45;&gt;Node11 -->
<g id="edge11" class="edge">
<title>Node3&#45;&gt;Node11</title>
<path fill="none" stroke="midnightblue" d="M301.22,-114.66C285.72,-106.05 261.91,-92.83 243.74,-82.73"/>
<polygon fill="midnightblue" stroke="midnightblue" points="245.76,-79.29 235.32,-77.5 242.36,-85.41 245.76,-79.29"/>
</g>
<!-- Node12 -->
<g id="node12" class="node">
<title>Node12</title>
<g id="a_node12"><a xlink:title=" ">
<polygon fill="none" stroke="#bfbfbf" points="255.25,-0.5 255.25,-20.5 293,-20.5 293,-0.5 255.25,-0.5"/>
<text text-anchor="middle" x="274.12" y="-7" font-family="Helvetica,sans-Serif" font-size="10.00">array</text>
</a>
</g>
</g>
<!-- Node3&#45;&gt;Node12 -->
<g id="edge16" class="edge">
<title>Node3&#45;&gt;Node12</title>
<path fill="none" stroke="midnightblue" d="M311.78,-114.7C306.49,-105.72 298.45,-91.26 293.12,-78 286.9,-62.49 281.82,-44.18 278.49,-30.71"/>
<polygon fill="midnightblue" stroke="midnightblue" points="281.74,-30.22 276.03,-21.3 274.92,-31.84 281.74,-30.22"/>
</g>
<!-- Node13 -->
<g id="node13" class="node">
<title>Node13</title>
<g id="a_node13"><a xlink:title=" ">
<polygon fill="none" stroke="#bfbfbf" points="329.38,-0.5 329.38,-20.5 376.88,-20.5 376.88,-0.5 329.38,-0.5"/>
<text text-anchor="middle" x="353.12" y="-7" font-family="Helvetica,sans-Serif" font-size="10.00">cstddef</text>
</a>
</g>
</g>
<!-- Node3&#45;&gt;Node13 -->
<g id="edge18" class="edge">
<title>Node3&#45;&gt;Node13</title>
<path fill="none" stroke="midnightblue" d="M331.5,-114.7C343.01,-106.72 358.32,-93.82 365.12,-78 371.71,-62.69 367.29,-43.9 362.06,-30.2"/>
<polygon fill="midnightblue" stroke="midnightblue" points="365.04,-29.28 357.88,-21.47 358.61,-32.04 365.04,-29.28"/>
</g>
<!-- Node14 -->
<g id="node14" class="node">
<title>Node14</title>
<g id="a_node14"><a xlink:title=" ">
<polygon fill="none" stroke="#bfbfbf" points="302.38,-57.5 302.38,-77.5 355.88,-77.5 355.88,-57.5 302.38,-57.5"/>
<text text-anchor="middle" x="329.12" y="-64" font-family="Helvetica,sans-Serif" font-size="10.00">compare</text>
</a>
</g>
</g>
<!-- Node3&#45;&gt;Node14 -->
<g id="edge17" class="edge">
<title>Node3&#45;&gt;Node14</title>
<path fill="none" stroke="midnightblue" d="M319,-114.91C320.58,-107.68 322.89,-97.09 324.9,-87.85"/>
<polygon fill="midnightblue" stroke="midnightblue" points="328.51,-88.73 327.22,-78.21 321.67,-87.24 328.51,-88.73"/>
</g>
<!-- Node4&#45;&gt;Node4 -->
<g id="edge4" class="edge">
<title>Node4&#45;&gt;Node4</title>
<path fill="none" stroke="midnightblue" d="M149.68,-77.43C161.18,-79.83 172.12,-76.52 172.12,-67.5 172.12,-61.44 167.18,-57.96 160.45,-57.05"/>
<polygon fill="midnightblue" stroke="midnightblue" points="160.5,-53.59 150.68,-57.57 160.83,-60.59 160.5,-53.59"/>
</g>
<!-- Node5 -->
<g id="node5" class="node">
<title>Node5</title>
<g id="a_node5"><a xlink:title=" ">
<polygon fill="none" stroke="#bfbfbf" points="194.62,-0.5 194.62,-20.5 237.62,-20.5 237.62,-0.5 194.62,-0.5"/>
<text text-anchor="middle" x="216.12" y="-7" font-family="Helvetica,sans-Serif" font-size="10.00">cmath</text>
</a>
</g>
</g>
<!-- Node4&#45;&gt;Node5 -->
<g id="edge5" class="edge">
<title>Node4&#45;&gt;Node5</title>
<path fill="none" stroke="midnightblue" d="M144.78,-57.66C157.84,-49.21 177.78,-36.31 193.26,-26.3"/>
<polygon fill="midnightblue" stroke="midnightblue" points="194.73,-28.87 201.22,-20.5 190.92,-22.99 194.73,-28.87"/>
</g>
<!-- Node6 -->
<g id="node6" class="node">
<title>Node6</title>
<g id="a_node6"><a xlink:title=" ">
<polygon fill="none" stroke="#bfbfbf" points="66.5,-0.5 66.5,-20.5 105.75,-20.5 105.75,-0.5 66.5,-0.5"/>
<text text-anchor="middle" x="86.12" y="-7" font-family="Helvetica,sans-Serif" font-size="10.00">limits</text>
</a>
</g>
</g>
<!-- Node4&#45;&gt;Node6 -->
<g id="edge6" class="edge">
<title>Node4&#45;&gt;Node6</title>
<path fill="none" stroke="midnightblue" d="M124.09,-57.91C117.72,-50.12 108.15,-38.42 100.21,-28.71"/>
<polygon fill="midnightblue" stroke="midnightblue" points="102.3,-26.74 93.26,-21.21 96.88,-31.17 102.3,-26.74"/>
</g>
<!-- Node7 -->
<g id="node7" class="node">
<title>Node7</title>
<g id="a_node7"><a xlink:title=" ">
<polygon fill="none" stroke="#bfbfbf" points="123.38,-0.5 123.38,-20.5 176.88,-20.5 176.88,-0.5 123.38,-0.5"/>
<text text-anchor="middle" x="150.12" y="-7" font-family="Helvetica,sans-Serif" font-size="10.00">numbers</text>
</a>
</g>
</g>
<!-- Node4&#45;&gt;Node7 -->
<g id="edge7" class="edge">
<title>Node4&#45;&gt;Node7</title>
<path fill="none" stroke="midnightblue" d="M134.09,-57.91C136.62,-50.6 140.33,-39.85 143.55,-30.54"/>
<polygon fill="midnightblue" stroke="midnightblue" points="147.16,-31.81 147.11,-21.21 140.54,-29.52 147.16,-31.81"/>
</g>
<!-- Node8 -->
<g id="node8" class="node">
<title>Node8</title>
<g id="a_node8"><a xlink:title=" ">
<polygon fill="none" stroke="#bfbfbf" points="0,-0.5 0,-20.5 48.25,-20.5 48.25,-0.5 0,-0.5"/>
<text text-anchor="middle" x="24.12" y="-7" font-family="Helvetica,sans-Serif" font-size="10.00">random</text>
</a>
</g>
</g>
<!-- Node4&#45;&gt;Node8 -->
<g id="edge8" class="edge">
<title>Node4&#45;&gt;Node8</title>
<path fill="none" stroke="midnightblue" d="M113.93,-57.66C97.03,-48.97 70.97,-35.58 51.27,-25.45"/>
<polygon fill="midnightblue" stroke="midnightblue" points="53.12,-21.96 42.63,-20.5 49.92,-28.18 53.12,-21.96"/>
</g>
<!-- Node9&#45;&gt;Node10 -->
<g id="edge10" class="edge">
<title>Node9&#45;&gt;Node10</title>
<path fill="none" stroke="midnightblue" d="M440.12,-57.91C440.12,-50.76 440.12,-40.32 440.12,-31.15"/>
<polygon fill="midnightblue" stroke="midnightblue" points="443.63,-31.21 440.12,-21.21 436.63,-31.21 443.63,-31.21"/>
</g>
<!-- Node11&#45;&gt;Node5 -->
<g id="edge13" class="edge">
<title>Node11&#45;&gt;Node5</title>
<path fill="none" stroke="midnightblue" d="M217.81,-57.91C217.55,-50.76 217.17,-40.32 216.84,-31.15"/>
<polygon fill="midnightblue" stroke="midnightblue" points="220.3,-31.08 216.44,-21.21 213.31,-31.34 220.3,-31.08"/>
</g>
<!-- Node11&#45;&gt;Node10 -->
<g id="edge15" class="edge">
<title>Node11&#45;&gt;Node10</title>
<path fill="none" stroke="midnightblue" d="M246.24,-59.53C286.04,-49.67 358.86,-31.63 403.04,-20.69"/>
<polygon fill="midnightblue" stroke="midnightblue" points="403.75,-23.87 412.62,-18.07 402.07,-17.07 403.75,-23.87"/>
</g>
<!-- Node11&#45;&gt;Node12 -->
<g id="edge12" class="edge">
<title>Node11&#45;&gt;Node12</title>
<path fill="none" stroke="midnightblue" d="M227.12,-57.66C235.24,-49.69 247.39,-37.76 257.3,-28.02"/>
<polygon fill="midnightblue" stroke="midnightblue" points="259.28,-31 263.96,-21.5 254.38,-26.01 259.28,-31"/>
</g>
<!-- Node11&#45;&gt;Node13 -->
<g id="edge14" class="edge">
<title>Node11&#45;&gt;Node13</title>
<path fill="none" stroke="midnightblue" d="M240.12,-57.54C262.08,-48.59 296.08,-34.74 321.06,-24.57"/>
<polygon fill="midnightblue" stroke="midnightblue" points="322.2,-27.47 330.14,-20.46 319.56,-20.99 322.2,-27.47"/>
</g>
</g>
</svg>
