<?xml version="1.0" encoding="UTF-8" standalone="no"?>
<!DOCTYPE svg PUBLIC "-//W3C//DTD SVG 1.1//EN"
 "http://www.w3.org/Graphics/SVG/1.1/DTD/svg11.dtd">
<!-- Generated by graphviz version 8.1.0 (20230707.0739)
 -->
<!-- Title: include/LinearAlgebra/Vector3.h Pages: 1 -->
<svg width="2140pt" height="545pt"
 viewBox="0.00 0.00 2140.46 545.00" xmlns="http://www.w3.org/2000/svg" xmlns:xlink="http://www.w3.org/1999/xlink">
<g id="graph0" class="graph" transform="scale(1 1) rotate(0) translate(4 541)">
<title>include/LinearAlgebra/Vector3.h</title>
<!-- Node1 -->
<g id="node1" class="node">
<title>Node1</title>
<g id="a_node1"><a xlink:title=" ">
<polygon fill="#bfbfbf" stroke="black" points="1309.59,-504.5 1309.59,-536.5 1418.59,-536.5 1418.59,-504.5 1309.59,-504.5"/>
<text text-anchor="start" x="1317.59" y="-523" font-family="Helvetica,sans-Serif" font-size="10.00">include/LinearAlgebra</text>
<text text-anchor="middle" x="1364.09" y="-511" font-family="Helvetica,sans-Serif" font-size="10.00">/Vector3.h</text>
</a>
</g>
</g>
<!-- Node2 -->
<g id="node2" class="node">
<title>Node2</title>
<g id="a_node2"><a xlink:href="_colors_8h.html" target="_top" xlink:title=" ">
<polygon fill="none" stroke="black" points="882.21,-441.5 882.21,-461.5 967.96,-461.5 967.96,-441.5 882.21,-441.5"/>
<text text-anchor="middle" x="925.09" y="-448" font-family="Helvetica,sans-Serif" font-size="10.00">include/Colors.h</text>
</a>
</g>
</g>
<!-- Node1&#45;&gt;Node2 -->
<g id="edge1" class="edge">
<title>Node1&#45;&gt;Node2</title>
<path fill="none" stroke="midnightblue" d="M1298.94,-513.24C1222.74,-505.32 1093.03,-490.03 983.09,-468 974.1,-466.2 964.43,-463.8 955.62,-461.44"/>
<polygon fill="midnightblue" stroke="midnightblue" points="1298.48,-516.81 1308.78,-514.35 1299.19,-509.85 1298.48,-516.81"/>
</g>
<!-- Node4 -->
<g id="node4" class="node">
<title>Node4</title>
<g id="a_node4"><a xlink:href="_graphics_8h.html" target="_top" xlink:title=" ">
<polygon fill="none" stroke="black" points="767.59,-321.5 767.59,-341.5 864.59,-341.5 864.59,-321.5 767.59,-321.5"/>
<text text-anchor="middle" x="816.09" y="-328" font-family="Helvetica,sans-Serif" font-size="10.00">include/Graphics.h</text>
</a>
</g>
</g>
<!-- Node1&#45;&gt;Node4 -->
<g id="edge64" class="edge">
<title>Node1&#45;&gt;Node4</title>
<path fill="none" stroke="midnightblue" d="M1299.11,-516.35C1173.47,-509.72 906.61,-492.88 873.09,-468 830.26,-436.21 819.37,-366.01 816.82,-341.31"/>
<polygon fill="midnightblue" stroke="midnightblue" points="1298.56,-519.87 1308.73,-516.9 1298.92,-512.88 1298.56,-519.87"/>
</g>
<!-- Node20 -->
<g id="node20" class="node">
<title>Node20</title>
<g id="a_node20"><a xlink:href="_cube_skin_scene_8h.html" target="_top" xlink:title=" ">
<polygon fill="none" stroke="black" points="1702.21,-63.5 1702.21,-83.5 1865.96,-83.5 1865.96,-63.5 1702.21,-63.5"/>
<text text-anchor="middle" x="1784.09" y="-70" font-family="Helvetica,sans-Serif" font-size="10.00">include/Scenes/CubeSkinScene.h</text>
</a>
</g>
</g>
<!-- Node1&#45;&gt;Node20 -->
<g id="edge82" class="edge">
<title>Node1&#45;&gt;Node20</title>
<path fill="none" stroke="midnightblue" d="M1429.07,-507.83C1570.81,-478.48 1906.01,-386.97 2043.09,-159 2050.65,-146.43 2052.39,-137.34 2043.09,-126 2020.87,-98.93 1932.96,-85.83 1865.66,-79.67"/>
<polygon fill="midnightblue" stroke="midnightblue" points="1428.5,-504.58 1419.39,-510 1429.89,-511.44 1428.5,-504.58"/>
</g>
<!-- Node29 -->
<g id="node29" class="node">
<title>Node29</title>
<g id="a_node29"><a xlink:href="_pube_screen_transformer_8h.html" target="_top" xlink:title=" ">
<polygon fill="none" stroke="black" points="1062.96,-264.5 1062.96,-284.5 1225.21,-284.5 1225.21,-264.5 1062.96,-264.5"/>
<text text-anchor="middle" x="1144.09" y="-271" font-family="Helvetica,sans-Serif" font-size="10.00">include/PubeScreenTransformer.h</text>
</a>
</g>
</g>
<!-- Node1&#45;&gt;Node29 -->
<g id="edge81" class="edge">
<title>Node1&#45;&gt;Node29</title>
<path fill="none" stroke="midnightblue" d="M1343.43,-496.59C1296.32,-444.34 1182.6,-318.21 1151.86,-284.12"/>
<polygon fill="midnightblue" stroke="midnightblue" points="1340.36,-498.52 1349.66,-503.6 1345.56,-493.83 1340.36,-498.52"/>
</g>
<!-- Node32 -->
<g id="node32" class="node">
<title>Node32</title>
<g id="a_node32"><a xlink:href="_indexed_triangle_list_8h.html" target="_top" xlink:title=" ">
<polygon fill="none" stroke="black" points="1243.46,-264.5 1243.46,-284.5 1384.71,-284.5 1384.71,-264.5 1243.46,-264.5"/>
<text text-anchor="middle" x="1314.09" y="-271" font-family="Helvetica,sans-Serif" font-size="10.00">include/IndexedTriangleList.h</text>
</a>
</g>
</g>
<!-- Node1&#45;&gt;Node32 -->
<g id="edge65" class="edge">
<title>Node1&#45;&gt;Node32</title>
<path fill="none" stroke="midnightblue" d="M1358.85,-493.95C1347.84,-440.2 1322.73,-317.65 1315.85,-284.12"/>
<polygon fill="midnightblue" stroke="midnightblue" points="1355.6,-494.51 1361.04,-503.6 1362.46,-493.1 1355.6,-494.51"/>
</g>
<!-- Node33 -->
<g id="node33" class="node">
<title>Node33</title>
<g id="a_node33"><a xlink:href="_cube_8h.html" target="_top" xlink:title=" ">
<polygon fill="none" stroke="black" points="1352.21,-126.5 1352.21,-158.5 1443.96,-158.5 1443.96,-126.5 1352.21,-126.5"/>
<text text-anchor="start" x="1360.21" y="-145" font-family="Helvetica,sans-Serif" font-size="10.00">include/Primitives</text>
<text text-anchor="middle" x="1398.09" y="-133" font-family="Helvetica,sans-Serif" font-size="10.00">/Cube.h</text>
</a>
</g>
</g>
<!-- Node1&#45;&gt;Node33 -->
<g id="edge79" class="edge">
<title>Node1&#45;&gt;Node33</title>
<path fill="none" stroke="midnightblue" d="M1379.18,-495.38C1393.57,-470.02 1413.09,-428.47 1413.09,-389.5 1413.09,-389.5 1413.09,-389.5 1413.09,-273.5 1413.09,-231.47 1405.26,-182.3 1400.91,-158.25"/>
<polygon fill="midnightblue" stroke="midnightblue" points="1375.82,-493.19 1373.77,-503.58 1381.85,-496.74 1375.82,-493.19"/>
</g>
<!-- Node34 -->
<g id="node34" class="node">
<title>Node34</title>
<g id="a_node34"><a xlink:href="_plane_8h.html" target="_top" xlink:title=" ">
<polygon fill="none" stroke="black" points="951.21,-195.5 951.21,-227.5 1042.96,-227.5 1042.96,-195.5 951.21,-195.5"/>
<text text-anchor="start" x="959.21" y="-214" font-family="Helvetica,sans-Serif" font-size="10.00">include/Primitives</text>
<text text-anchor="middle" x="997.09" y="-202" font-family="Helvetica,sans-Serif" font-size="10.00">/Plane.h</text>
</a>
</g>
</g>
<!-- Node1&#45;&gt;Node34 -->
<g id="edge80" class="edge">
<title>Node1&#45;&gt;Node34</title>
<path fill="none" stroke="midnightblue" d="M1299.1,-510.13C1193.69,-493.09 997.09,-452.83 997.09,-389.5 997.09,-389.5 997.09,-389.5 997.09,-330.5 997.09,-293.42 997.09,-249.79 997.09,-227.4"/>
<polygon fill="midnightblue" stroke="midnightblue" points="1298.51,-513.74 1308.94,-511.86 1299.61,-506.83 1298.51,-513.74"/>
</g>
<!-- Node35 -->
<g id="node35" class="node">
<title>Node35</title>
<g id="a_node35"><a xlink:href="_vector4_8h.html" target="_top" xlink:title=" ">
<polygon fill="none" stroke="black" points="1789.59,-435.5 1789.59,-467.5 1898.59,-467.5 1898.59,-435.5 1789.59,-435.5"/>
<text text-anchor="start" x="1797.59" y="-454" font-family="Helvetica,sans-Serif" font-size="10.00">include/LinearAlgebra</text>
<text text-anchor="middle" x="1844.09" y="-442" font-family="Helvetica,sans-Serif" font-size="10.00">/Vector4.h</text>
</a>
</g>
</g>
<!-- Node1&#45;&gt;Node35 -->
<g id="edge78" class="edge">
<title>Node1&#45;&gt;Node35</title>
<path fill="none" stroke="midnightblue" d="M1429.09,-513.31C1510.35,-505.12 1653.56,-489.21 1775.09,-468 1779.93,-467.16 1784.94,-466.2 1789.95,-465.18"/>
<polygon fill="midnightblue" stroke="midnightblue" points="1429.13,-509.89 1419.52,-514.37 1429.82,-516.85 1429.13,-509.89"/>
</g>
<!-- Node36 -->
<g id="node36" class="node">
<title>Node36</title>
<g id="a_node36"><a xlink:href="_tex_vertex_8h.html" target="_top" xlink:title=" ">
<polygon fill="none" stroke="black" points="1916.96,-441.5 1916.96,-461.5 2019.21,-461.5 2019.21,-441.5 1916.96,-441.5"/>
<text text-anchor="middle" x="1968.09" y="-448" font-family="Helvetica,sans-Serif" font-size="10.00">include/TexVertex.h</text>
</a>
</g>
</g>
<!-- Node1&#45;&gt;Node36 -->
<g id="edge83" class="edge">
<title>Node1&#45;&gt;Node36</title>
<path fill="none" stroke="midnightblue" d="M1429.31,-516.67C1531.87,-511.47 1736.79,-498.04 1908.09,-468 1917.63,-466.33 1927.87,-463.92 1937.15,-461.49"/>
<polygon fill="midnightblue" stroke="midnightblue" points="1429.33,-513.21 1419.52,-517.2 1429.68,-520.2 1429.33,-513.21"/>
</g>
<!-- Node37 -->
<g id="node37" class="node">
<title>Node37</title>
<g id="a_node37"><a xlink:href="_vector3_8cpp.html" target="_top" xlink:title=" ">
<polygon fill="none" stroke="black" points="2037.71,-435.5 2037.71,-467.5 2132.46,-467.5 2132.46,-435.5 2037.71,-435.5"/>
<text text-anchor="start" x="2045.71" y="-454" font-family="Helvetica,sans-Serif" font-size="10.00">test/LinearAlgebra</text>
<text text-anchor="middle" x="2085.09" y="-442" font-family="Helvetica,sans-Serif" font-size="10.00">/Vector3.cpp</text>
</a>
</g>
</g>
<!-- Node1&#45;&gt;Node37 -->
<g id="edge84" class="edge">
<title>Node1&#45;&gt;Node37</title>
<path fill="none" stroke="midnightblue" d="M1429.07,-518.5C1548.53,-515.78 1810.72,-505.64 2028.09,-468 2031.32,-467.44 2034.64,-466.78 2037.96,-466.05"/>
<polygon fill="midnightblue" stroke="midnightblue" points="1429.23,-515.02 1419.31,-518.74 1429.38,-522.02 1429.23,-515.02"/>
</g>
<!-- Node3 -->
<g id="node3" class="node">
<title>Node3</title>
<g id="a_node3"><a xlink:href="_surface_8h.html" target="_top" xlink:title=" ">
<polygon fill="none" stroke="black" points="877.59,-378.5 877.59,-398.5 968.59,-398.5 968.59,-378.5 877.59,-378.5"/>
<text text-anchor="middle" x="923.09" y="-385" font-family="Helvetica,sans-Serif" font-size="10.00">include/Surface.h</text>
</a>
</g>
</g>
<!-- Node2&#45;&gt;Node3 -->
<g id="edge2" class="edge">
<title>Node2&#45;&gt;Node3</title>
<path fill="none" stroke="midnightblue" d="M924.45,-430.99C924.09,-419.97 923.65,-406.73 923.37,-398.22"/>
<polygon fill="midnightblue" stroke="midnightblue" points="920.98,-430.88 924.8,-440.76 927.97,-430.65 920.98,-430.88"/>
</g>
<!-- Node3&#45;&gt;Node4 -->
<g id="edge3" class="edge">
<title>Node3&#45;&gt;Node4</title>
<path fill="none" stroke="midnightblue" d="M896.31,-373.73C876.68,-363.65 850.61,-350.24 833.59,-341.5"/>
<polygon fill="midnightblue" stroke="midnightblue" points="894.4,-377.2 904.9,-378.66 897.6,-370.98 894.4,-377.2"/>
</g>
<!-- Node31 -->
<g id="node31" class="node">
<title>Node31</title>
<g id="a_node31"><a xlink:href="_surface_8cpp.html" target="_top" xlink:title=" ">
<polygon fill="none" stroke="black" points="882.96,-321.5 882.96,-341.5 967.21,-341.5 967.21,-321.5 882.96,-321.5"/>
<text text-anchor="middle" x="925.09" y="-328" font-family="Helvetica,sans-Serif" font-size="10.00">src/Surface.cpp</text>
</a>
</g>
</g>
<!-- Node3&#45;&gt;Node31 -->
<g id="edge63" class="edge">
<title>Node3&#45;&gt;Node31</title>
<path fill="none" stroke="midnightblue" d="M923.8,-368C924.13,-358.85 924.51,-348.39 924.77,-341.21"/>
<polygon fill="midnightblue" stroke="midnightblue" points="920.27,-367.79 923.4,-377.91 927.26,-368.04 920.27,-367.79"/>
</g>
<!-- Node5 -->
<g id="node5" class="node">
<title>Node5</title>
<g id="a_node5"><a xlink:href="_engine_8h.html" target="_top" xlink:title=" ">
<polygon fill="none" stroke="black" points="28.09,-63.5 28.09,-83.5 116.09,-83.5 116.09,-63.5 28.09,-63.5"/>
<text text-anchor="middle" x="72.09" y="-70" font-family="Helvetica,sans-Serif" font-size="10.00">include/Engine.h</text>
</a>
</g>
</g>
<!-- Node4&#45;&gt;Node5 -->
<g id="edge4" class="edge">
<title>Node4&#45;&gt;Node5</title>
<path fill="none" stroke="midnightblue" d="M757.12,-329.41C610.02,-326.23 235.29,-315.24 188.09,-285 111.14,-235.71 80.95,-116.7 73.84,-83.33"/>
<polygon fill="midnightblue" stroke="midnightblue" points="756.65,-332.92 766.72,-329.63 756.8,-325.92 756.65,-332.92"/>
</g>
<!-- Node8 -->
<g id="node8" class="node">
<title>Node8</title>
<g id="a_node8"><a xlink:href="_main_window_8cpp.html" target="_top" xlink:title=" ">
<polygon fill="none" stroke="black" points="15.71,-0.5 15.71,-20.5 122.46,-20.5 122.46,-0.5 15.71,-0.5"/>
<text text-anchor="middle" x="69.09" y="-7" font-family="Helvetica,sans-Serif" font-size="10.00">src/MainWindow.cpp</text>
</a>
</g>
</g>
<!-- Node4&#45;&gt;Node8 -->
<g id="edge62" class="edge">
<title>Node4&#45;&gt;Node8</title>
<path fill="none" stroke="midnightblue" d="M756.73,-329.1C617.13,-325.37 271.31,-313.47 159.09,-285 83.81,-265.9 0.09,-290.17 0.09,-212.5 0.09,-212.5 0.09,-212.5 0.09,-141.5 0.09,-103.01 -0.27,-90.27 19.09,-57 28.06,-41.58 44,-28.43 55.48,-20.29"/>
<polygon fill="midnightblue" stroke="midnightblue" points="756.52,-332.62 766.61,-329.39 756.71,-325.62 756.52,-332.62"/>
</g>
<!-- Node9 -->
<g id="node9" class="node">
<title>Node9</title>
<g id="a_node9"><a xlink:href="_main_window_8h.html" target="_top" xlink:title=" ">
<polygon fill="none" stroke="black" points="134.34,-63.5 134.34,-83.5 247.84,-83.5 247.84,-63.5 134.34,-63.5"/>
<text text-anchor="middle" x="191.09" y="-70" font-family="Helvetica,sans-Serif" font-size="10.00">include/MainWindow.h</text>
</a>
</g>
</g>
<!-- Node4&#45;&gt;Node9 -->
<g id="edge8" class="edge">
<title>Node4&#45;&gt;Node9</title>
<path fill="none" stroke="midnightblue" d="M756.97,-330.39C611.37,-329.52 244.45,-323.49 206.09,-285 149.71,-228.43 178.47,-115.56 188.25,-83.3"/>
<polygon fill="midnightblue" stroke="midnightblue" points="756.87,-333.89 766.89,-330.45 756.91,-326.89 756.87,-333.89"/>
</g>
<!-- Node10 -->
<g id="node10" class="node">
<title>Node10</title>
<g id="a_node10"><a xlink:href="_graphics_8cpp.html" target="_top" xlink:title=" ">
<polygon fill="none" stroke="black" points="230.96,-0.5 230.96,-20.5 321.21,-20.5 321.21,-0.5 230.96,-0.5"/>
<text text-anchor="middle" x="276.09" y="-7" font-family="Helvetica,sans-Serif" font-size="10.00">src/Graphics.cpp</text>
</a>
</g>
</g>
<!-- Node4&#45;&gt;Node10 -->
<g id="edge61" class="edge">
<title>Node4&#45;&gt;Node10</title>
<path fill="none" stroke="midnightblue" d="M757.4,-321.08C628.09,-299 325.4,-239.62 266.09,-159 249.81,-136.88 267.74,-48.67 274.06,-20.32"/>
<polygon fill="midnightblue" stroke="midnightblue" points="756.44,-324.63 766.88,-322.85 757.61,-317.73 756.44,-324.63"/>
</g>
<!-- Node11 -->
<g id="node11" class="node">
<title>Node11</title>
<g id="a_node11"><a xlink:href="_pipeline_8h.html" target="_top" xlink:title=" ">
<polygon fill="none" stroke="black" points="1097.84,-201.5 1097.84,-221.5 1190.34,-221.5 1190.34,-201.5 1097.84,-201.5"/>
<text text-anchor="middle" x="1144.09" y="-208" font-family="Helvetica,sans-Serif" font-size="10.00">include/Pipeline.h</text>
</a>
</g>
</g>
<!-- Node4&#45;&gt;Node11 -->
<g id="edge13" class="edge">
<title>Node4&#45;&gt;Node11</title>
<path fill="none" stroke="midnightblue" d="M851.02,-317.93C917.63,-293.97 1061.34,-242.27 1119.2,-221.45"/>
<polygon fill="midnightblue" stroke="midnightblue" points="850.24,-314.86 842.01,-321.53 852.61,-321.44 850.24,-314.86"/>
</g>
<!-- Node4&#45;&gt;Node29 -->
<g id="edge48" class="edge">
<title>Node4&#45;&gt;Node29</title>
<path fill="none" stroke="midnightblue" d="M875.15,-320.6C936.43,-310.32 1031.44,-294.39 1090.59,-284.47"/>
<polygon fill="midnightblue" stroke="midnightblue" points="874.77,-317.28 865.49,-322.38 875.93,-324.18 874.77,-317.28"/>
</g>
<!-- Node30 -->
<g id="node30" class="node">
<title>Node30</title>
<g id="a_node30"><a xlink:href="_scene_8h.html" target="_top" xlink:title=" ">
<polygon fill="none" stroke="black" points="854.21,-132.5 854.21,-152.5 939.96,-152.5 939.96,-132.5 854.21,-132.5"/>
<text text-anchor="middle" x="897.09" y="-139" font-family="Helvetica,sans-Serif" font-size="10.00">include/Scene.h</text>
</a>
</g>
</g>
<!-- Node4&#45;&gt;Node30 -->
<g id="edge50" class="edge">
<title>Node4&#45;&gt;Node30</title>
<path fill="none" stroke="midnightblue" d="M824.06,-312.1C841.2,-272.52 881.04,-180.56 893.38,-152.07"/>
<polygon fill="midnightblue" stroke="midnightblue" points="820.54,-310.41 819.78,-320.98 826.97,-313.19 820.54,-310.41"/>
</g>
<!-- Node6 -->
<g id="node6" class="node">
<title>Node6</title>
<g id="a_node6"><a xlink:href="_engine_8cpp.html" target="_top" xlink:title=" ">
<polygon fill="none" stroke="black" points="848.46,-0.5 848.46,-20.5 929.71,-20.5 929.71,-0.5 848.46,-0.5"/>
<text text-anchor="middle" x="889.09" y="-7" font-family="Helvetica,sans-Serif" font-size="10.00">src/Engine.cpp</text>
</a>
</g>
</g>
<!-- Node5&#45;&gt;Node6 -->
<g id="edge5" class="edge">
<title>Node5&#45;&gt;Node6</title>
<path fill="none" stroke="midnightblue" d="M108.71,-60.63C114.16,-59.21 119.74,-57.93 125.09,-57 266.31,-32.47 712.14,-16.97 848.84,-12.7"/>
<polygon fill="midnightblue" stroke="midnightblue" points="108.18,-57.43 99.5,-63.51 110.08,-64.17 108.18,-57.43"/>
</g>
<!-- Node7 -->
<g id="node7" class="node">
<title>Node7</title>
<g id="a_node7"><a xlink:href="_main_8cpp.html" target="_top" xlink:title=" ">
<polygon fill="none" stroke="black" points="140.96,-0.5 140.96,-20.5 213.21,-20.5 213.21,-0.5 140.96,-0.5"/>
<text text-anchor="middle" x="177.09" y="-7" font-family="Helvetica,sans-Serif" font-size="10.00">src/Main.cpp</text>
</a>
</g>
</g>
<!-- Node5&#45;&gt;Node7 -->
<g id="edge6" class="edge">
<title>Node5&#45;&gt;Node7</title>
<path fill="none" stroke="midnightblue" d="M96.58,-58.27C116.72,-46.57 144.62,-30.36 161.73,-20.42"/>
<polygon fill="midnightblue" stroke="midnightblue" points="95.02,-55.71 88.13,-63.76 98.54,-61.76 95.02,-55.71"/>
</g>
<!-- Node5&#45;&gt;Node8 -->
<g id="edge7" class="edge">
<title>Node5&#45;&gt;Node8</title>
<path fill="none" stroke="midnightblue" d="M71.13,-52.99C70.59,-41.97 69.94,-28.73 69.52,-20.22"/>
<polygon fill="midnightblue" stroke="midnightblue" points="67.67,-52.94 71.66,-62.76 74.66,-52.6 67.67,-52.94"/>
</g>
<!-- Node9&#45;&gt;Node6 -->
<g id="edge9" class="edge">
<title>Node9&#45;&gt;Node6</title>
<path fill="none" stroke="midnightblue" d="M258.47,-64.38C280.34,-61.86 304.73,-59.18 327.09,-57 522.19,-37.99 755.94,-20.88 848.5,-14.33"/>
<polygon fill="midnightblue" stroke="midnightblue" points="258.15,-61.01 248.62,-65.64 258.96,-67.96 258.15,-61.01"/>
</g>
<!-- Node9&#45;&gt;Node7 -->
<g id="edge11" class="edge">
<title>Node9&#45;&gt;Node7</title>
<path fill="none" stroke="midnightblue" d="M186.69,-53.35C184.15,-42.25 181.06,-28.82 179.09,-20.22"/>
<polygon fill="midnightblue" stroke="midnightblue" points="183.43,-53.8 189.08,-62.76 190.26,-52.23 183.43,-53.8"/>
</g>
<!-- Node9&#45;&gt;Node8 -->
<g id="edge12" class="edge">
<title>Node9&#45;&gt;Node8</title>
<path fill="none" stroke="midnightblue" d="M163.62,-58.77C140.13,-47.02 107.01,-30.46 86.85,-20.38"/>
<polygon fill="midnightblue" stroke="midnightblue" points="161.84,-62.29 172.35,-63.63 164.97,-56.03 161.84,-62.29"/>
</g>
<!-- Node9&#45;&gt;Node10 -->
<g id="edge10" class="edge">
<title>Node9&#45;&gt;Node10</title>
<path fill="none" stroke="midnightblue" d="M212.04,-57.46C228.24,-45.84 250.12,-30.14 263.66,-20.42"/>
<polygon fill="midnightblue" stroke="midnightblue" points="210.35,-55.09 204.27,-63.76 214.43,-60.77 210.35,-55.09"/>
</g>
<!-- Node12 -->
<g id="node12" class="node">
<title>Node12</title>
<g id="a_node12"><a xlink:href="_geometry_flat_effect_8h.html" target="_top" xlink:title=" ">
<polygon fill="none" stroke="black" points="478.34,-126.5 478.34,-158.5 603.84,-158.5 603.84,-126.5 478.34,-126.5"/>
<text text-anchor="start" x="486.34" y="-145" font-family="Helvetica,sans-Serif" font-size="10.00">include/Effects/Geometry</text>
<text text-anchor="middle" x="541.09" y="-133" font-family="Helvetica,sans-Serif" font-size="10.00">FlatEffect.h</text>
</a>
</g>
</g>
<!-- Node11&#45;&gt;Node12 -->
<g id="edge14" class="edge">
<title>Node11&#45;&gt;Node12</title>
<path fill="none" stroke="midnightblue" d="M1087.37,-200.18C1075.73,-198.27 1063.53,-196.44 1052.09,-195 860.04,-170.9 809.73,-186.14 618.09,-159 613.36,-158.33 608.49,-157.55 603.6,-156.71"/>
<polygon fill="midnightblue" stroke="midnightblue" points="1086.43,-203.73 1096.87,-201.93 1087.58,-196.83 1086.43,-203.73"/>
</g>
<!-- Node13 -->
<g id="node13" class="node">
<title>Node13</title>
<g id="a_node13"><a xlink:href="_geometry_flat_scene_8h.html" target="_top" xlink:title=" ">
<polygon fill="none" stroke="black" points="508.59,-57.5 508.59,-89.5 653.59,-89.5 653.59,-57.5 508.59,-57.5"/>
<text text-anchor="start" x="516.59" y="-76" font-family="Helvetica,sans-Serif" font-size="10.00">include/Scenes/GeometryFlat</text>
<text text-anchor="middle" x="581.09" y="-64" font-family="Helvetica,sans-Serif" font-size="10.00">Scene.h</text>
</a>
</g>
</g>
<!-- Node11&#45;&gt;Node13 -->
<g id="edge47" class="edge">
<title>Node11&#45;&gt;Node13</title>
<path fill="none" stroke="midnightblue" d="M1087.39,-199.99C1075.75,-198.1 1063.55,-196.32 1052.09,-195 987.61,-187.6 513.54,-206.29 469.09,-159 442.48,-130.69 492.5,-104.86 534,-89.4"/>
<polygon fill="midnightblue" stroke="midnightblue" points="1086.45,-203.54 1096.89,-201.74 1087.61,-196.64 1086.45,-203.54"/>
</g>
<!-- Node14 -->
<g id="node14" class="node">
<title>Node14</title>
<g id="a_node14"><a xlink:href="_solid_effect_8h.html" target="_top" xlink:title=" ">
<polygon fill="none" stroke="black" points="660.34,-132.5 660.34,-152.5 797.84,-152.5 797.84,-132.5 660.34,-132.5"/>
<text text-anchor="middle" x="729.09" y="-139" font-family="Helvetica,sans-Serif" font-size="10.00">include/Effects/SolidEffect.h</text>
</a>
</g>
</g>
<!-- Node11&#45;&gt;Node14 -->
<g id="edge17" class="edge">
<title>Node11&#45;&gt;Node14</title>
<path fill="none" stroke="midnightblue" d="M1087.66,-200.83C1075.91,-198.86 1063.6,-196.83 1052.09,-195 945.57,-178.04 918.45,-176.9 812.09,-159 800.24,-157 787.46,-154.7 775.57,-152.48"/>
<polygon fill="midnightblue" stroke="midnightblue" points="1086.81,-204.4 1097.26,-202.61 1087.97,-197.5 1086.81,-204.4"/>
</g>
<!-- Node15 -->
<g id="node15" class="node">
<title>Node15</title>
<g id="a_node15"><a xlink:href="_cube_solid_scene_8h.html" target="_top" xlink:title=" ">
<polygon fill="none" stroke="black" points="672.09,-57.5 672.09,-89.5 802.09,-89.5 802.09,-57.5 672.09,-57.5"/>
<text text-anchor="start" x="680.09" y="-76" font-family="Helvetica,sans-Serif" font-size="10.00">include/Scenes/CubeSolid</text>
<text text-anchor="middle" x="737.09" y="-64" font-family="Helvetica,sans-Serif" font-size="10.00">Scene.h</text>
</a>
</g>
</g>
<!-- Node11&#45;&gt;Node15 -->
<g id="edge43" class="edge">
<title>Node11&#45;&gt;Node15</title>
<path fill="none" stroke="midnightblue" d="M1087.36,-200.24C1075.72,-198.33 1063.53,-196.47 1052.09,-195 1007.72,-189.28 681.27,-192.02 651.09,-159 641.19,-148.18 643.86,-138.76 651.09,-126 660.53,-109.35 677.73,-97.5 694.29,-89.39"/>
<polygon fill="midnightblue" stroke="midnightblue" points="1086.42,-203.79 1096.86,-201.99 1087.58,-196.89 1086.42,-203.79"/>
</g>
<!-- Node16 -->
<g id="node16" class="node">
<title>Node16</title>
<g id="a_node16"><a xlink:href="_double_cube_scene_8h.html" target="_top" xlink:title=" ">
<polygon fill="none" stroke="black" points="819.96,-57.5 819.96,-89.5 958.21,-89.5 958.21,-57.5 819.96,-57.5"/>
<text text-anchor="start" x="827.96" y="-76" font-family="Helvetica,sans-Serif" font-size="10.00">include/Scenes/DoubleCube</text>
<text text-anchor="middle" x="889.09" y="-64" font-family="Helvetica,sans-Serif" font-size="10.00">Scene.h</text>
</a>
</g>
</g>
<!-- Node11&#45;&gt;Node16 -->
<g id="edge46" class="edge">
<title>Node11&#45;&gt;Node16</title>
<path fill="none" stroke="midnightblue" d="M1087.41,-200.85C1000.84,-186.1 845.58,-159.58 845.09,-159 826.97,-137.5 852.32,-107.29 871.39,-89.42"/>
<polygon fill="midnightblue" stroke="midnightblue" points="1086.67,-204.45 1097.12,-202.68 1087.85,-197.55 1086.67,-204.45"/>
</g>
<!-- Node17 -->
<g id="node17" class="node">
<title>Node17</title>
<g id="a_node17"><a xlink:href="_solid_geometry_effect_8h.html" target="_top" xlink:title=" ">
<polygon fill="none" stroke="black" points="958.46,-126.5 958.46,-158.5 1105.71,-158.5 1105.71,-126.5 958.46,-126.5"/>
<text text-anchor="start" x="966.46" y="-145" font-family="Helvetica,sans-Serif" font-size="10.00">include/Effects/SolidGeometry</text>
<text text-anchor="middle" x="1032.09" y="-133" font-family="Helvetica,sans-Serif" font-size="10.00">Effect.h</text>
</a>
</g>
</g>
<!-- Node11&#45;&gt;Node17 -->
<g id="edge22" class="edge">
<title>Node11&#45;&gt;Node17</title>
<path fill="none" stroke="midnightblue" d="M1120.19,-196.2C1101.59,-185.08 1075.86,-169.69 1057.01,-158.41"/>
<polygon fill="midnightblue" stroke="midnightblue" points="1118.07,-199.61 1128.45,-201.74 1121.66,-193.6 1118.07,-199.61"/>
</g>
<!-- Node18 -->
<g id="node18" class="node">
<title>Node18</title>
<g id="a_node18"><a xlink:href="_cube_solid_geometry_scene_8h.html" target="_top" xlink:title=" ">
<polygon fill="none" stroke="black" points="976.09,-57.5 976.09,-89.5 1106.09,-89.5 1106.09,-57.5 976.09,-57.5"/>
<text text-anchor="start" x="984.09" y="-76" font-family="Helvetica,sans-Serif" font-size="10.00">include/Scenes/CubeSolid</text>
<text text-anchor="middle" x="1041.09" y="-64" font-family="Helvetica,sans-Serif" font-size="10.00">GeometryScene.h</text>
</a>
</g>
</g>
<!-- Node11&#45;&gt;Node18 -->
<g id="edge42" class="edge">
<title>Node11&#45;&gt;Node18</title>
<path fill="none" stroke="midnightblue" d="M1141,-190.99C1137.32,-172.73 1129.74,-145.4 1115.09,-126 1103.49,-110.64 1085.95,-98.15 1070.86,-89.32"/>
<polygon fill="midnightblue" stroke="midnightblue" points="1137.72,-191.53 1142.92,-200.75 1144.61,-190.29 1137.72,-191.53"/>
</g>
<!-- Node19 -->
<g id="node19" class="node">
<title>Node19</title>
<g id="a_node19"><a xlink:href="_texture_effect_8h.html" target="_top" xlink:title=" ">
<polygon fill="none" stroke="black" points="1886.09,-132.5 1886.09,-152.5 2034.09,-152.5 2034.09,-132.5 1886.09,-132.5"/>
<text text-anchor="middle" x="1960.09" y="-139" font-family="Helvetica,sans-Serif" font-size="10.00">include/Effects/TextureEffect.h</text>
</a>
</g>
</g>
<!-- Node11&#45;&gt;Node19 -->
<g id="edge25" class="edge">
<title>Node11&#45;&gt;Node19</title>
<path fill="none" stroke="midnightblue" d="M1200.87,-208.49C1323.7,-203.7 1623.06,-189.66 1872.09,-159 1885.95,-157.29 1900.94,-154.87 1914.55,-152.45"/>
<polygon fill="midnightblue" stroke="midnightblue" points="1201.1,-205.02 1191.24,-208.9 1201.37,-212.01 1201.1,-205.02"/>
</g>
<!-- Node11&#45;&gt;Node20 -->
<g id="edge41" class="edge">
<title>Node11&#45;&gt;Node20</title>
<path fill="none" stroke="midnightblue" d="M1201.17,-210.61C1359.62,-210.34 1796.05,-205.35 1839.09,-159 1861.84,-134.5 1820.03,-99.52 1797.33,-83.34"/>
<polygon fill="midnightblue" stroke="midnightblue" points="1201.25,-207.12 1191.25,-210.63 1201.26,-214.12 1201.25,-207.12"/>
</g>
<!-- Node21 -->
<g id="node21" class="node">
<title>Node21</title>
<g id="a_node21"><a xlink:href="_vertex_color_effect_8h.html" target="_top" xlink:title=" ">
<polygon fill="none" stroke="black" points="1200.21,-126.5 1200.21,-158.5 1333.96,-158.5 1333.96,-126.5 1200.21,-126.5"/>
<text text-anchor="start" x="1208.21" y="-145" font-family="Helvetica,sans-Serif" font-size="10.00">include/Effects/VertexColor</text>
<text text-anchor="middle" x="1267.09" y="-133" font-family="Helvetica,sans-Serif" font-size="10.00">Effect.h</text>
</a>
</g>
</g>
<!-- Node11&#45;&gt;Node21 -->
<g id="edge28" class="edge">
<title>Node11&#45;&gt;Node21</title>
<path fill="none" stroke="midnightblue" d="M1170.04,-196.36C1190.53,-185.2 1219.03,-169.68 1239.84,-158.34"/>
<polygon fill="midnightblue" stroke="midnightblue" points="1168.53,-193.75 1161.42,-201.6 1171.88,-199.89 1168.53,-193.75"/>
</g>
<!-- Node22 -->
<g id="node22" class="node">
<title>Node22</title>
<g id="a_node22"><a xlink:href="_cube_vertex_color_scene_8h.html" target="_top" xlink:title=" ">
<polygon fill="none" stroke="black" points="1123.71,-57.5 1123.71,-89.5 1260.46,-89.5 1260.46,-57.5 1123.71,-57.5"/>
<text text-anchor="start" x="1131.71" y="-76" font-family="Helvetica,sans-Serif" font-size="10.00">include/Scenes/CubeVertex</text>
<text text-anchor="middle" x="1192.09" y="-64" font-family="Helvetica,sans-Serif" font-size="10.00">ColorScene.h</text>
</a>
</g>
</g>
<!-- Node11&#45;&gt;Node22 -->
<g id="edge44" class="edge">
<title>Node11&#45;&gt;Node22</title>
<path fill="none" stroke="midnightblue" d="M1150.86,-191.33C1160.55,-163.87 1178.16,-113.96 1186.89,-89.22"/>
<polygon fill="midnightblue" stroke="midnightblue" points="1147.27,-189.98 1147.24,-200.58 1153.87,-192.31 1147.27,-189.98"/>
</g>
<!-- Node23 -->
<g id="node23" class="node">
<title>Node23</title>
<g id="a_node23"><a xlink:href="_vertex_flat_effect_8h.html" target="_top" xlink:title=" ">
<polygon fill="none" stroke="black" points="1500.21,-126.5 1500.21,-158.5 1627.96,-158.5 1627.96,-126.5 1500.21,-126.5"/>
<text text-anchor="start" x="1508.21" y="-145" font-family="Helvetica,sans-Serif" font-size="10.00">include/Effects/VertexFlat</text>
<text text-anchor="middle" x="1564.09" y="-133" font-family="Helvetica,sans-Serif" font-size="10.00">Effect.h</text>
</a>
</g>
</g>
<!-- Node11&#45;&gt;Node23 -->
<g id="edge31" class="edge">
<title>Node11&#45;&gt;Node23</title>
<path fill="none" stroke="midnightblue" d="M1201,-202.76C1268.98,-193.32 1386.07,-176.46 1486.09,-159 1490.71,-158.19 1495.48,-157.33 1500.28,-156.43"/>
<polygon fill="midnightblue" stroke="midnightblue" points="1200.54,-199.43 1191.11,-204.27 1201.5,-206.36 1200.54,-199.43"/>
</g>
<!-- Node24 -->
<g id="node24" class="node">
<title>Node24</title>
<g id="a_node24"><a xlink:href="_cube_flat_independent_scene_8h.html" target="_top" xlink:title=" ">
<polygon fill="none" stroke="black" points="1294.46,-57.5 1294.46,-89.5 1471.71,-89.5 1471.71,-57.5 1294.46,-57.5"/>
<text text-anchor="start" x="1302.46" y="-76" font-family="Helvetica,sans-Serif" font-size="10.00">include/Scenes/CubeFlatIndependent</text>
<text text-anchor="middle" x="1383.09" y="-64" font-family="Helvetica,sans-Serif" font-size="10.00">Scene.h</text>
</a>
</g>
</g>
<!-- Node11&#45;&gt;Node24 -->
<g id="edge40" class="edge">
<title>Node11&#45;&gt;Node24</title>
<path fill="none" stroke="midnightblue" d="M1201.21,-209.45C1281.49,-206.64 1421.44,-196.35 1453.09,-159 1462.57,-147.81 1459.71,-139.09 1453.09,-126 1445.05,-110.11 1429.55,-97.93 1415.18,-89.41"/>
<polygon fill="midnightblue" stroke="midnightblue" points="1201.18,-205.99 1191.3,-209.8 1201.4,-212.98 1201.18,-205.99"/>
</g>
<!-- Node25 -->
<g id="node25" class="node">
<title>Node25</title>
<g id="a_node25"><a xlink:href="_vertex_position_color_effect_8h.html" target="_top" xlink:title=" ">
<polygon fill="none" stroke="black" points="1683.84,-126.5 1683.84,-158.5 1830.34,-158.5 1830.34,-126.5 1683.84,-126.5"/>
<text text-anchor="start" x="1691.84" y="-145" font-family="Helvetica,sans-Serif" font-size="10.00">include/Effects/VertexPosition</text>
<text text-anchor="middle" x="1757.09" y="-133" font-family="Helvetica,sans-Serif" font-size="10.00">ColorEffect.h</text>
</a>
</g>
</g>
<!-- Node11&#45;&gt;Node25 -->
<g id="edge34" class="edge">
<title>Node11&#45;&gt;Node25</title>
<path fill="none" stroke="midnightblue" d="M1201.02,-206.4C1297.7,-199.11 1500.07,-182.43 1670.09,-159 1674.65,-158.37 1679.33,-157.68 1684.05,-156.94"/>
<polygon fill="midnightblue" stroke="midnightblue" points="1201.03,-202.97 1191.32,-207.2 1201.55,-209.95 1201.03,-202.97"/>
</g>
<!-- Node26 -->
<g id="node26" class="node">
<title>Node26</title>
<g id="a_node26"><a xlink:href="_cube_vertex_position_color_scene_8h.html" target="_top" xlink:title=" ">
<polygon fill="none" stroke="black" points="1489.71,-57.5 1489.71,-89.5 1626.46,-89.5 1626.46,-57.5 1489.71,-57.5"/>
<text text-anchor="start" x="1497.71" y="-76" font-family="Helvetica,sans-Serif" font-size="10.00">include/Scenes/CubeVertex</text>
<text text-anchor="middle" x="1558.09" y="-64" font-family="Helvetica,sans-Serif" font-size="10.00">PositionColorScene.h</text>
</a>
</g>
</g>
<!-- Node11&#45;&gt;Node26 -->
<g id="edge45" class="edge">
<title>Node11&#45;&gt;Node26</title>
<path fill="none" stroke="midnightblue" d="M1200.92,-208.76C1324.38,-204.38 1608.33,-190.92 1637.09,-159 1646.91,-148.1 1644.08,-138.9 1637.09,-126 1628.2,-109.59 1611.56,-97.58 1595.84,-89.31"/>
<polygon fill="midnightblue" stroke="midnightblue" points="1201.06,-205.28 1191.19,-209.13 1201.31,-212.28 1201.06,-205.28"/>
</g>
<!-- Node27 -->
<g id="node27" class="node">
<title>Node27</title>
<g id="a_node27"><a xlink:href="_wave_vertex_texture_effect_8h.html" target="_top" xlink:title=" ">
<polygon fill="none" stroke="black" points="286.46,-126.5 286.46,-158.5 421.71,-158.5 421.71,-126.5 286.46,-126.5"/>
<text text-anchor="start" x="294.46" y="-145" font-family="Helvetica,sans-Serif" font-size="10.00">include/Effects/WaveVertex</text>
<text text-anchor="middle" x="354.09" y="-133" font-family="Helvetica,sans-Serif" font-size="10.00">TextureEffect.h</text>
</a>
</g>
</g>
<!-- Node11&#45;&gt;Node27 -->
<g id="edge37" class="edge">
<title>Node11&#45;&gt;Node27</title>
<path fill="none" stroke="midnightblue" d="M1087.4,-199.96C1075.75,-198.07 1063.55,-196.3 1052.09,-195 779.58,-164.17 708.28,-192.54 436.09,-159 431.34,-158.42 426.46,-157.72 421.55,-156.96"/>
<polygon fill="midnightblue" stroke="midnightblue" points="1086.46,-203.52 1096.9,-201.71 1087.61,-196.61 1086.46,-203.52"/>
</g>
<!-- Node12&#45;&gt;Node13 -->
<g id="edge15" class="edge">
<title>Node12&#45;&gt;Node13</title>
<path fill="none" stroke="midnightblue" d="M555.49,-117.38C561.09,-108 567.32,-97.56 572.24,-89.33"/>
<polygon fill="midnightblue" stroke="midnightblue" points="552.09,-115.25 549.97,-125.63 558.1,-118.84 552.09,-115.25"/>
</g>
<!-- Node13&#45;&gt;Node6 -->
<g id="edge16" class="edge">
<title>Node13&#45;&gt;Node6</title>
<path fill="none" stroke="midnightblue" d="M663.85,-56.11C723.6,-44.28 801.7,-28.81 848.48,-19.54"/>
<polygon fill="midnightblue" stroke="midnightblue" points="663.43,-52.82 654.3,-58.2 664.79,-59.69 663.43,-52.82"/>
</g>
<!-- Node14&#45;&gt;Node15 -->
<g id="edge18" class="edge">
<title>Node14&#45;&gt;Node15</title>
<path fill="none" stroke="midnightblue" d="M731.43,-121.86C732.67,-111.49 734.17,-98.97 735.31,-89.41"/>
<polygon fill="midnightblue" stroke="midnightblue" points="727.84,-121.4 730.13,-131.74 734.8,-122.23 727.84,-121.4"/>
</g>
<!-- Node14&#45;&gt;Node16 -->
<g id="edge20" class="edge">
<title>Node14&#45;&gt;Node16</title>
<path fill="none" stroke="midnightblue" d="M760.29,-128.43C786.99,-117.25 825.41,-101.17 853.34,-89.47"/>
<polygon fill="midnightblue" stroke="midnightblue" points="759.21,-125.51 751.34,-132.6 761.91,-131.97 759.21,-125.51"/>
</g>
<!-- Node15&#45;&gt;Node6 -->
<g id="edge19" class="edge">
<title>Node15&#45;&gt;Node6</title>
<path fill="none" stroke="midnightblue" d="M784.13,-53.62C811.7,-42.56 845.24,-29.1 866.87,-20.42"/>
<polygon fill="midnightblue" stroke="midnightblue" points="783.25,-50.61 775.27,-57.58 785.86,-57.1 783.25,-50.61"/>
</g>
<!-- Node16&#45;&gt;Node6 -->
<g id="edge21" class="edge">
<title>Node16&#45;&gt;Node6</title>
<path fill="none" stroke="midnightblue" d="M889.09,-46.77C889.09,-37.31 889.09,-27.24 889.09,-20.28"/>
<polygon fill="midnightblue" stroke="midnightblue" points="885.59,-46.73 889.09,-56.73 892.59,-46.73 885.59,-46.73"/>
</g>
<!-- Node17&#45;&gt;Node18 -->
<g id="edge23" class="edge">
<title>Node17&#45;&gt;Node18</title>
<path fill="none" stroke="midnightblue" d="M1035.53,-115.89C1036.73,-106.91 1038.05,-97.13 1039.1,-89.33"/>
<polygon fill="midnightblue" stroke="midnightblue" points="1031.95,-115.25 1034.09,-125.63 1038.89,-116.19 1031.95,-115.25"/>
</g>
<!-- Node18&#45;&gt;Node6 -->
<g id="edge24" class="edge">
<title>Node18&#45;&gt;Node6</title>
<path fill="none" stroke="midnightblue" d="M994.05,-53.62C966.48,-42.56 932.93,-29.1 911.3,-20.42"/>
<polygon fill="midnightblue" stroke="midnightblue" points="992.32,-57.1 1002.91,-57.58 994.93,-50.61 992.32,-57.1"/>
</g>
<!-- Node19&#45;&gt;Node20 -->
<g id="edge26" class="edge">
<title>Node19&#45;&gt;Node20</title>
<path fill="none" stroke="midnightblue" d="M1926.55,-128.73C1891.72,-115.47 1838.11,-95.07 1807.56,-83.43"/>
<polygon fill="midnightblue" stroke="midnightblue" points="1925.13,-132.32 1935.72,-132.6 1927.62,-125.77 1925.13,-132.32"/>
</g>
<!-- Node20&#45;&gt;Node6 -->
<g id="edge27" class="edge">
<title>Node20&#45;&gt;Node6</title>
<path fill="none" stroke="midnightblue" d="M1692.92,-62.39C1673.83,-60.45 1653.81,-58.54 1635.09,-57 1366.11,-34.82 1041.75,-18.64 929.56,-13.36"/>
<polygon fill="midnightblue" stroke="midnightblue" points="1692.42,-65.96 1702.73,-63.5 1693.14,-59 1692.42,-65.96"/>
</g>
<!-- Node21&#45;&gt;Node22 -->
<g id="edge29" class="edge">
<title>Node21&#45;&gt;Node22</title>
<path fill="none" stroke="midnightblue" d="M1242.39,-119.44C1231.33,-109.56 1218.58,-98.17 1208.69,-89.33"/>
<polygon fill="midnightblue" stroke="midnightblue" points="1239.65,-121.58 1249.44,-125.63 1244.32,-116.36 1239.65,-121.58"/>
</g>
<!-- Node22&#45;&gt;Node6 -->
<g id="edge30" class="edge">
<title>Node22&#45;&gt;Node6</title>
<path fill="none" stroke="midnightblue" d="M1113.32,-56.64C1054.39,-44.78 976.2,-29.04 929.44,-19.62"/>
<polygon fill="midnightblue" stroke="midnightblue" points="1112.6,-60.27 1123.09,-58.81 1113.98,-53.41 1112.6,-60.27"/>
</g>
<!-- Node23&#45;&gt;Node24 -->
<g id="edge32" class="edge">
<title>Node23&#45;&gt;Node24</title>
<path fill="none" stroke="midnightblue" d="M1513.75,-122.87C1485.27,-112.32 1450.12,-99.31 1423.46,-89.44"/>
<polygon fill="midnightblue" stroke="midnightblue" points="1512.33,-126.44 1522.92,-126.63 1514.76,-119.88 1512.33,-126.44"/>
</g>
<!-- Node24&#45;&gt;Node6 -->
<g id="edge33" class="edge">
<title>Node24&#45;&gt;Node6</title>
<path fill="none" stroke="midnightblue" d="M1284.2,-58.96C1279.09,-58.29 1274.03,-57.63 1269.09,-57 1145.51,-41.2 999.11,-24.14 929.61,-16.14"/>
<polygon fill="midnightblue" stroke="midnightblue" points="1283.36,-62.51 1293.73,-60.34 1284.27,-55.57 1283.36,-62.51"/>
</g>
<!-- Node25&#45;&gt;Node26 -->
<g id="edge35" class="edge">
<title>Node25&#45;&gt;Node26</title>
<path fill="none" stroke="midnightblue" d="M1702.57,-123.14C1671.11,-112.55 1632.05,-99.4 1602.47,-89.44"/>
<polygon fill="midnightblue" stroke="midnightblue" points="1701.33,-126.76 1711.92,-126.63 1703.56,-120.12 1701.33,-126.76"/>
</g>
<!-- Node26&#45;&gt;Node6 -->
<g id="edge36" class="edge">
<title>Node26&#45;&gt;Node6</title>
<path fill="none" stroke="midnightblue" d="M1479,-56.82C1266.6,-28.03 1023.89,-16.55 929.47,-12.9"/>
<polygon fill="midnightblue" stroke="midnightblue" points="1478.35,-60.4 1488.73,-58.29 1479.3,-53.46 1478.35,-60.4"/>
</g>
<!-- Node28 -->
<g id="node28" class="node">
<title>Node28</title>
<g id="a_node28"><a xlink:href="_vertex_wave_scene_8h.html" target="_top" xlink:title=" ">
<polygon fill="none" stroke="black" points="335.96,-57.5 335.96,-89.5 474.21,-89.5 474.21,-57.5 335.96,-57.5"/>
<text text-anchor="start" x="343.96" y="-76" font-family="Helvetica,sans-Serif" font-size="10.00">include/Scenes/VertexWave</text>
<text text-anchor="middle" x="405.09" y="-64" font-family="Helvetica,sans-Serif" font-size="10.00">Scene.h</text>
</a>
</g>
</g>
<!-- Node27&#45;&gt;Node28 -->
<g id="edge38" class="edge">
<title>Node27&#45;&gt;Node28</title>
<path fill="none" stroke="midnightblue" d="M372,-117.97C379.25,-108.45 387.4,-97.73 393.8,-89.33"/>
<polygon fill="midnightblue" stroke="midnightblue" points="368.68,-115.55 365.41,-125.63 374.25,-119.79 368.68,-115.55"/>
</g>
<!-- Node28&#45;&gt;Node6 -->
<g id="edge39" class="edge">
<title>Node28&#45;&gt;Node6</title>
<path fill="none" stroke="midnightblue" d="M484.73,-59.1C489.59,-58.37 494.4,-57.66 499.09,-57 626.33,-39.1 777.64,-22.89 848.58,-15.59"/>
<polygon fill="midnightblue" stroke="midnightblue" points="484.43,-55.76 475.08,-60.74 485.5,-62.68 484.43,-55.76"/>
</g>
<!-- Node29&#45;&gt;Node11 -->
<g id="edge49" class="edge">
<title>Node29&#45;&gt;Node11</title>
<path fill="none" stroke="midnightblue" d="M1144.09,-253.99C1144.09,-242.97 1144.09,-229.73 1144.09,-221.22"/>
<polygon fill="midnightblue" stroke="midnightblue" points="1140.59,-253.76 1144.09,-263.76 1147.59,-253.76 1140.59,-253.76"/>
</g>
<!-- Node30&#45;&gt;Node5 -->
<g id="edge51" class="edge">
<title>Node30&#45;&gt;Node5</title>
<path fill="none" stroke="midnightblue" d="M843.84,-131.26C831.79,-129.24 819.03,-127.34 807.09,-126 505.45,-92.18 424.32,-140.94 125.09,-90 116.2,-88.49 106.7,-86 98.23,-83.45"/>
<polygon fill="midnightblue" stroke="midnightblue" points="843.21,-134.88 853.66,-133.13 844.4,-127.98 843.21,-134.88"/>
</g>
<!-- Node30&#45;&gt;Node13 -->
<g id="edge59" class="edge">
<title>Node30&#45;&gt;Node13</title>
<path fill="none" stroke="midnightblue" d="M844.31,-130.31C791.48,-119.11 709.88,-101.81 651.54,-89.44"/>
<polygon fill="midnightblue" stroke="midnightblue" points="843.29,-133.88 853.8,-132.53 844.74,-127.04 843.29,-133.88"/>
</g>
<!-- Node30&#45;&gt;Node15 -->
<g id="edge55" class="edge">
<title>Node30&#45;&gt;Node15</title>
<path fill="none" stroke="midnightblue" d="M865.88,-128.43C839.19,-117.25 800.77,-101.17 772.84,-89.47"/>
<polygon fill="midnightblue" stroke="midnightblue" points="864.27,-131.97 874.84,-132.6 866.97,-125.51 864.27,-131.97"/>
</g>
<!-- Node30&#45;&gt;Node16 -->
<g id="edge58" class="edge">
<title>Node30&#45;&gt;Node16</title>
<path fill="none" stroke="midnightblue" d="M894.74,-121.86C893.51,-111.49 892.01,-98.97 890.87,-89.41"/>
<polygon fill="midnightblue" stroke="midnightblue" points="891.38,-122.23 896.04,-131.74 898.33,-121.4 891.38,-122.23"/>
</g>
<!-- Node30&#45;&gt;Node18 -->
<g id="edge54" class="edge">
<title>Node30&#45;&gt;Node18</title>
<path fill="none" stroke="midnightblue" d="M926.14,-127.99C950.11,-116.83 984.11,-101.01 1008.91,-89.47"/>
<polygon fill="midnightblue" stroke="midnightblue" points="924.8,-125.21 917.21,-132.6 927.75,-131.56 924.8,-125.21"/>
</g>
<!-- Node30&#45;&gt;Node20 -->
<g id="edge53" class="edge">
<title>Node30&#45;&gt;Node20</title>
<path fill="none" stroke="midnightblue" d="M933.25,-129.53C938.51,-128.14 943.91,-126.9 949.09,-126 1249.94,-74.03 1330.71,-113.8 1635.09,-90 1657.78,-88.23 1682.36,-85.85 1704.9,-83.5"/>
<polygon fill="midnightblue" stroke="midnightblue" points="932.37,-126.43 923.72,-132.55 934.3,-133.16 932.37,-126.43"/>
</g>
<!-- Node30&#45;&gt;Node22 -->
<g id="edge56" class="edge">
<title>Node30&#45;&gt;Node22</title>
<path fill="none" stroke="midnightblue" d="M935.82,-129.58C940.28,-128.32 944.78,-127.1 949.09,-126 981.53,-117.74 1063.99,-100.56 1123.88,-88.31"/>
<polygon fill="midnightblue" stroke="midnightblue" points="935.21,-126.4 926.58,-132.55 937.16,-133.13 935.21,-126.4"/>
</g>
<!-- Node30&#45;&gt;Node24 -->
<g id="edge52" class="edge">
<title>Node30&#45;&gt;Node24</title>
<path fill="none" stroke="midnightblue" d="M934.37,-129.52C939.29,-128.2 944.29,-126.98 949.09,-126 1089.33,-97.45 1127.06,-107.64 1269.09,-90 1277.41,-88.97 1286.08,-87.85 1294.74,-86.72"/>
<polygon fill="midnightblue" stroke="midnightblue" points="933.5,-126.42 924.85,-132.53 935.42,-133.15 933.5,-126.42"/>
</g>
<!-- Node30&#45;&gt;Node26 -->
<g id="edge57" class="edge">
<title>Node30&#45;&gt;Node26</title>
<path fill="none" stroke="midnightblue" d="M933.43,-129.56C938.64,-128.17 943.97,-126.92 949.09,-126 1182.3,-83.89 1246.2,-121.45 1481.09,-90 1483.93,-89.62 1486.82,-89.2 1489.73,-88.74"/>
<polygon fill="midnightblue" stroke="midnightblue" points="932.65,-126.43 924,-132.54 934.58,-133.16 932.65,-126.43"/>
</g>
<!-- Node30&#45;&gt;Node28 -->
<g id="edge60" class="edge">
<title>Node30&#45;&gt;Node28</title>
<path fill="none" stroke="midnightblue" d="M843.77,-131.83C831.72,-129.78 818.98,-127.72 807.09,-126 670.68,-106.3 635.56,-109.22 499.09,-90 490.98,-88.86 482.49,-87.58 474.08,-86.26"/>
<polygon fill="midnightblue" stroke="midnightblue" points="843.14,-135.44 853.59,-133.69 844.33,-128.54 843.14,-135.44"/>
</g>
<!-- Node32&#45;&gt;Node11 -->
<g id="edge66" class="edge">
<title>Node32&#45;&gt;Node11</title>
<path fill="none" stroke="midnightblue" d="M1279.32,-261.02C1246.55,-249.27 1198.25,-231.93 1169.11,-221.48"/>
<polygon fill="midnightblue" stroke="midnightblue" points="1277.77,-264.55 1288.37,-264.63 1280.14,-257.96 1277.77,-264.55"/>
</g>
<!-- Node32&#45;&gt;Node33 -->
<g id="edge67" class="edge">
<title>Node32&#45;&gt;Node33</title>
<path fill="none" stroke="midnightblue" d="M1325.73,-255.48C1342.48,-229.57 1373.04,-182.27 1388.53,-158.29"/>
<polygon fill="midnightblue" stroke="midnightblue" points="1322.35,-253.27 1319.86,-263.56 1328.23,-257.06 1322.35,-253.27"/>
</g>
<!-- Node32&#45;&gt;Node34 -->
<g id="edge76" class="edge">
<title>Node32&#45;&gt;Node34</title>
<path fill="none" stroke="midnightblue" d="M1257,-262.51C1195.68,-250.71 1099.44,-232.19 1042.87,-221.31"/>
<polygon fill="midnightblue" stroke="midnightblue" points="1256.17,-266.11 1266.65,-264.56 1257.5,-259.24 1256.17,-266.11"/>
</g>
<!-- Node33&#45;&gt;Node13 -->
<g id="edge75" class="edge">
<title>Node33&#45;&gt;Node13</title>
<path fill="none" stroke="midnightblue" d="M1341.61,-126.03C1042.57,-77.8 960.04,-125.76 663.09,-90 659.92,-89.62 656.7,-89.19 653.44,-88.72"/>
<polygon fill="midnightblue" stroke="midnightblue" points="1340.91,-129.63 1351.34,-127.79 1342.04,-122.72 1340.91,-129.63"/>
</g>
<!-- Node33&#45;&gt;Node15 -->
<g id="edge71" class="edge">
<title>Node33&#45;&gt;Node15</title>
<path fill="none" stroke="midnightblue" d="M1341.78,-126.04C1107.66,-86.7 1042.41,-121.9 811.09,-90 808.1,-89.59 805.05,-89.12 801.97,-88.62"/>
<polygon fill="midnightblue" stroke="midnightblue" points="1340.89,-129.61 1351.34,-127.84 1342.07,-122.71 1340.89,-129.61"/>
</g>
<!-- Node33&#45;&gt;Node16 -->
<g id="edge74" class="edge">
<title>Node33&#45;&gt;Node16</title>
<path fill="none" stroke="midnightblue" d="M1341.76,-125.98C1176.19,-95.88 1129.78,-113.89 967.09,-90 964.08,-89.56 961.02,-89.08 957.93,-88.57"/>
<polygon fill="midnightblue" stroke="midnightblue" points="1340.85,-129.56 1351.32,-127.94 1342.12,-122.68 1340.85,-129.56"/>
</g>
<!-- Node33&#45;&gt;Node18 -->
<g id="edge70" class="edge">
<title>Node33&#45;&gt;Node18</title>
<path fill="none" stroke="midnightblue" d="M1341.64,-125.84C1241.01,-104.32 1212.64,-107.91 1115.09,-90 1112.12,-89.45 1109.09,-88.88 1106.02,-88.29"/>
<polygon fill="midnightblue" stroke="midnightblue" points="1340.76,-129.45 1351.27,-128.15 1342.25,-122.61 1340.76,-129.45"/>
</g>
<!-- Node33&#45;&gt;Node20 -->
<g id="edge69" class="edge">
<title>Node33&#45;&gt;Node20</title>
<path fill="none" stroke="midnightblue" d="M1454.5,-131.71C1529.3,-118.73 1660.25,-96 1732.53,-83.45"/>
<polygon fill="midnightblue" stroke="midnightblue" points="1454.14,-128.39 1444.88,-133.55 1455.33,-135.29 1454.14,-128.39"/>
</g>
<!-- Node33&#45;&gt;Node22 -->
<g id="edge72" class="edge">
<title>Node33&#45;&gt;Node22</title>
<path fill="none" stroke="midnightblue" d="M1342.08,-123.28C1309.44,-112.67 1268.78,-99.44 1238.03,-89.44"/>
<polygon fill="midnightblue" stroke="midnightblue" points="1340.78,-126.87 1351.37,-126.63 1342.94,-120.21 1340.78,-126.87"/>
</g>
<!-- Node33&#45;&gt;Node24 -->
<g id="edge68" class="edge">
<title>Node33&#45;&gt;Node24</title>
<path fill="none" stroke="midnightblue" d="M1392.42,-116.19C1390.39,-107.13 1388.17,-97.21 1386.41,-89.33"/>
<polygon fill="midnightblue" stroke="midnightblue" points="1389.16,-116.64 1394.76,-125.63 1395.99,-115.11 1389.16,-116.64"/>
</g>
<!-- Node33&#45;&gt;Node26 -->
<g id="edge73" class="edge">
<title>Node33&#45;&gt;Node26</title>
<path fill="none" stroke="midnightblue" d="M1443.58,-122.45C1468.58,-111.98 1499.14,-99.18 1522.4,-89.44"/>
<polygon fill="midnightblue" stroke="midnightblue" points="1442.47,-119.54 1434.6,-126.63 1445.17,-126 1442.47,-119.54"/>
</g>
<!-- Node34&#45;&gt;Node28 -->
<g id="edge77" class="edge">
<title>Node34&#45;&gt;Node28</title>
<path fill="none" stroke="midnightblue" d="M940.72,-210.77C778.97,-210.97 321.98,-207.22 277.09,-159 248.96,-128.79 301.82,-104.19 347.91,-89.47"/>
<polygon fill="midnightblue" stroke="midnightblue" points="940.4,-214.27 950.4,-210.75 940.39,-207.27 940.4,-214.27"/>
</g>
</g>
</svg>
