<?xml version="1.0" encoding="UTF-8" standalone="no"?>
<!DOCTYPE svg PUBLIC "-//W3C//DTD SVG 1.1//EN"
 "http://www.w3.org/Graphics/SVG/1.1/DTD/svg11.dtd">
<!-- Generated by graphviz version 8.1.0 (20230707.0739)
 -->
<!-- Title: include/LinearAlgebra/Vector2.h Pages: 1 -->
<svg width="447pt" height="155pt"
 viewBox="0.00 0.00 447.00 155.00" xmlns="http://www.w3.org/2000/svg" xmlns:xlink="http://www.w3.org/1999/xlink">
<g id="graph0" class="graph" transform="scale(1 1) rotate(0) translate(4 151)">
<title>include/LinearAlgebra/Vector2.h</title>
<!-- Node1 -->
<g id="node1" class="node">
<title>Node1</title>
<g id="a_node1"><a xlink:title=" ">
<polygon fill="#bfbfbf" stroke="black" points="123.38,-114.5 123.38,-146.5 232.38,-146.5 232.38,-114.5 123.38,-114.5"/>
<text text-anchor="start" x="131.38" y="-133" font-family="Helvetica,sans-Serif" font-size="10.00">include/LinearAlgebra</text>
<text text-anchor="middle" x="177.88" y="-121" font-family="Helvetica,sans-Serif" font-size="10.00">/Vector2.h</text>
</a>
</g>
</g>
<!-- Node2 -->
<g id="node2" class="node">
<title>Node2</title>
<g id="a_node2"><a xlink:title=" ">
<polygon fill="none" stroke="#bfbfbf" points="0,-0.5 0,-20.5 37.75,-20.5 37.75,-0.5 0,-0.5"/>
<text text-anchor="middle" x="18.88" y="-7" font-family="Helvetica,sans-Serif" font-size="10.00">array</text>
</a>
</g>
</g>
<!-- Node1&#45;&gt;Node2 -->
<g id="edge1" class="edge">
<title>Node1&#45;&gt;Node2</title>
<path fill="none" stroke="midnightblue" d="M123.85,-114.56C101.59,-106.43 76.66,-94.57 57.88,-78 43.16,-65.02 32.51,-45.09 26.09,-30.43"/>
<polygon fill="midnightblue" stroke="midnightblue" points="29.03,-29.39 22.01,-21.46 22.56,-32.04 29.03,-29.39"/>
</g>
<!-- Node3 -->
<g id="node3" class="node">
<title>Node3</title>
<g id="a_node3"><a xlink:title=" ">
<polygon fill="none" stroke="#bfbfbf" points="344.12,-57.5 344.12,-77.5 397.62,-77.5 397.62,-57.5 344.12,-57.5"/>
<text text-anchor="middle" x="370.88" y="-64" font-family="Helvetica,sans-Serif" font-size="10.00">compare</text>
</a>
</g>
</g>
<!-- Node1&#45;&gt;Node3 -->
<g id="edge2" class="edge">
<title>Node1&#45;&gt;Node3</title>
<path fill="none" stroke="midnightblue" d="M225.09,-114.58C258.63,-103.98 303.03,-89.94 333.98,-80.16"/>
<polygon fill="midnightblue" stroke="midnightblue" points="334.85,-83.24 343.33,-76.89 332.74,-76.57 334.85,-83.24"/>
</g>
<!-- Node4 -->
<g id="node4" class="node">
<title>Node4</title>
<g id="a_node4"><a xlink:title=" ">
<polygon fill="none" stroke="#bfbfbf" points="61.12,-0.5 61.12,-20.5 108.62,-20.5 108.62,-0.5 61.12,-0.5"/>
<text text-anchor="middle" x="84.88" y="-7" font-family="Helvetica,sans-Serif" font-size="10.00">cstddef</text>
</a>
</g>
</g>
<!-- Node1&#45;&gt;Node4 -->
<g id="edge3" class="edge">
<title>Node1&#45;&gt;Node4</title>
<path fill="none" stroke="midnightblue" d="M123.41,-118C101.66,-110.45 78.75,-98.09 65.88,-78 56.39,-63.19 63.97,-43.56 72.2,-29.48"/>
<polygon fill="midnightblue" stroke="midnightblue" points="75.61,-31.65 78.07,-21.35 69.72,-27.86 75.61,-31.65"/>
</g>
<!-- Node5 -->
<g id="node5" class="node">
<title>Node5</title>
<g id="a_node5"><a xlink:title=" ">
<polygon fill="none" stroke="#bfbfbf" points="130.12,-0.5 130.12,-20.5 183.62,-20.5 183.62,-0.5 130.12,-0.5"/>
<text text-anchor="middle" x="156.88" y="-7" font-family="Helvetica,sans-Serif" font-size="10.00">iostream</text>
</a>
</g>
</g>
<!-- Node1&#45;&gt;Node5 -->
<g id="edge4" class="edge">
<title>Node1&#45;&gt;Node5</title>
<path fill="none" stroke="midnightblue" d="M194.28,-114.59C208.26,-99.99 224.64,-77.08 214.88,-57 208.58,-44.05 196.61,-33.7 185.18,-26.16"/>
<polygon fill="midnightblue" stroke="midnightblue" points="187.2,-22.68 176.84,-20.49 183.57,-28.67 187.2,-22.68"/>
</g>
<!-- Node6 -->
<g id="node6" class="node">
<title>Node6</title>
<g id="a_node6"><a xlink:href="_math_8h.html" target="_top" xlink:title=" ">
<polygon fill="none" stroke="black" points="261.88,-57.5 261.88,-77.5 307.88,-77.5 307.88,-57.5 261.88,-57.5"/>
<text text-anchor="middle" x="284.88" y="-64" font-family="Helvetica,sans-Serif" font-size="10.00">Math.h</text>
</a>
</g>
</g>
<!-- Node1&#45;&gt;Node6 -->
<g id="edge5" class="edge">
<title>Node1&#45;&gt;Node6</title>
<path fill="none" stroke="midnightblue" d="M204.05,-114.58C221.12,-104.85 243.26,-92.23 260.05,-82.65"/>
<polygon fill="midnightblue" stroke="midnightblue" points="261.28,-85.41 268.24,-77.42 257.82,-79.33 261.28,-85.41"/>
</g>
<!-- Node11 -->
<g id="node11" class="node">
<title>Node11</title>
<g id="a_node11"><a xlink:href="_matrix2_8h.html" target="_top" xlink:title=" ">
<polygon fill="none" stroke="black" points="149.62,-57.5 149.62,-77.5 206.12,-77.5 206.12,-57.5 149.62,-57.5"/>
<text text-anchor="middle" x="177.88" y="-64" font-family="Helvetica,sans-Serif" font-size="10.00">Matrix2.h</text>
</a>
</g>
</g>
<!-- Node1&#45;&gt;Node11 -->
<g id="edge11" class="edge">
<title>Node1&#45;&gt;Node11</title>
<path fill="none" stroke="midnightblue" d="M177.88,-114.73C177.88,-106.78 177.88,-96.85 177.88,-88.24"/>
<polygon fill="midnightblue" stroke="midnightblue" points="181.38,-88.28 177.88,-78.28 174.38,-88.28 181.38,-88.28"/>
</g>
<!-- Node12 -->
<g id="node12" class="node">
<title>Node12</title>
<g id="a_node12"><a xlink:href="_matrix3_8h.html" target="_top" xlink:title=" ">
<polygon fill="none" stroke="black" points="74.62,-57.5 74.62,-77.5 131.12,-77.5 131.12,-57.5 74.62,-57.5"/>
<text text-anchor="middle" x="102.88" y="-64" font-family="Helvetica,sans-Serif" font-size="10.00">Matrix3.h</text>
</a>
</g>
</g>
<!-- Node1&#45;&gt;Node12 -->
<g id="edge13" class="edge">
<title>Node1&#45;&gt;Node12</title>
<path fill="none" stroke="midnightblue" d="M159.72,-114.73C148.36,-105.5 133.75,-93.61 122.18,-84.2"/>
<polygon fill="midnightblue" stroke="midnightblue" points="124.64,-80.88 114.68,-77.28 120.23,-86.31 124.64,-80.88"/>
</g>
<!-- Node6&#45;&gt;Node6 -->
<g id="edge6" class="edge">
<title>Node6&#45;&gt;Node6</title>
<path fill="none" stroke="midnightblue" d="M303.43,-77.43C314.93,-79.83 325.88,-76.52 325.88,-67.5 325.88,-61.44 320.93,-57.96 314.2,-57.05"/>
<polygon fill="midnightblue" stroke="midnightblue" points="314.25,-53.59 304.43,-57.57 314.58,-60.59 314.25,-53.59"/>
</g>
<!-- Node7 -->
<g id="node7" class="node">
<title>Node7</title>
<g id="a_node7"><a xlink:title=" ">
<polygon fill="none" stroke="#bfbfbf" points="201.38,-0.5 201.38,-20.5 244.38,-20.5 244.38,-0.5 201.38,-0.5"/>
<text text-anchor="middle" x="222.88" y="-7" font-family="Helvetica,sans-Serif" font-size="10.00">cmath</text>
</a>
</g>
</g>
<!-- Node6&#45;&gt;Node7 -->
<g id="edge7" class="edge">
<title>Node6&#45;&gt;Node7</title>
<path fill="none" stroke="midnightblue" d="M274.91,-57.66C265.84,-49.61 252.21,-37.52 241.17,-27.73"/>
<polygon fill="midnightblue" stroke="midnightblue" points="243.82,-25.52 234.02,-21.5 239.18,-30.75 243.82,-25.52"/>
</g>
<!-- Node8 -->
<g id="node8" class="node">
<title>Node8</title>
<g id="a_node8"><a xlink:title=" ">
<polygon fill="none" stroke="#bfbfbf" points="262.25,-0.5 262.25,-20.5 301.5,-20.5 301.5,-0.5 262.25,-0.5"/>
<text text-anchor="middle" x="281.88" y="-7" font-family="Helvetica,sans-Serif" font-size="10.00">limits</text>
</a>
</g>
</g>
<!-- Node6&#45;&gt;Node8 -->
<g id="edge8" class="edge">
<title>Node6&#45;&gt;Node8</title>
<path fill="none" stroke="midnightblue" d="M284.41,-57.91C284.02,-50.76 283.45,-40.32 282.95,-31.15"/>
<polygon fill="midnightblue" stroke="midnightblue" points="286.39,-31.01 282.35,-21.21 279.4,-31.39 286.39,-31.01"/>
</g>
<!-- Node9 -->
<g id="node9" class="node">
<title>Node9</title>
<g id="a_node9"><a xlink:title=" ">
<polygon fill="none" stroke="#bfbfbf" points="319.12,-0.5 319.12,-20.5 372.62,-20.5 372.62,-0.5 319.12,-0.5"/>
<text text-anchor="middle" x="345.88" y="-7" font-family="Helvetica,sans-Serif" font-size="10.00">numbers</text>
</a>
</g>
</g>
<!-- Node6&#45;&gt;Node9 -->
<g id="edge9" class="edge">
<title>Node6&#45;&gt;Node9</title>
<path fill="none" stroke="midnightblue" d="M294.68,-57.66C303.6,-49.61 317.01,-37.52 327.87,-27.73"/>
<polygon fill="midnightblue" stroke="midnightblue" points="329.81,-30.79 334.9,-21.5 325.13,-25.59 329.81,-30.79"/>
</g>
<!-- Node10 -->
<g id="node10" class="node">
<title>Node10</title>
<g id="a_node10"><a xlink:title=" ">
<polygon fill="none" stroke="#bfbfbf" points="390.75,-0.5 390.75,-20.5 439,-20.5 439,-0.5 390.75,-0.5"/>
<text text-anchor="middle" x="414.88" y="-7" font-family="Helvetica,sans-Serif" font-size="10.00">random</text>
</a>
</g>
</g>
<!-- Node6&#45;&gt;Node10 -->
<g id="edge10" class="edge">
<title>Node6&#45;&gt;Node10</title>
<path fill="none" stroke="midnightblue" d="M306.05,-57.54C327.11,-48.63 359.65,-34.86 383.67,-24.7"/>
<polygon fill="midnightblue" stroke="midnightblue" points="384.86,-27.58 392.71,-20.46 382.13,-21.13 384.86,-27.58"/>
</g>
<!-- Node11&#45;&gt;Node5 -->
<g id="edge12" class="edge">
<title>Node11&#45;&gt;Node5</title>
<path fill="none" stroke="midnightblue" d="M174.59,-57.91C171.77,-50.52 167.61,-39.62 164.03,-30.23"/>
<polygon fill="midnightblue" stroke="midnightblue" points="167.04,-29.31 160.2,-21.21 160.5,-31.81 167.04,-29.31"/>
</g>
<!-- Node12&#45;&gt;Node2 -->
<g id="edge14" class="edge">
<title>Node12&#45;&gt;Node2</title>
<path fill="none" stroke="midnightblue" d="M89.38,-57.66C76.47,-49.21 56.77,-36.31 41.47,-26.3"/>
<polygon fill="midnightblue" stroke="midnightblue" points="43.9,-23.05 33.62,-20.5 40.07,-28.9 43.9,-23.05"/>
</g>
<!-- Node12&#45;&gt;Node4 -->
<g id="edge16" class="edge">
<title>Node12&#45;&gt;Node4</title>
<path fill="none" stroke="midnightblue" d="M100.06,-57.91C97.67,-50.6 94.15,-39.85 91.11,-30.54"/>
<polygon fill="midnightblue" stroke="midnightblue" points="94.16,-29.63 87.73,-21.21 87.51,-31.81 94.16,-29.63"/>
</g>
<!-- Node12&#45;&gt;Node5 -->
<g id="edge17" class="edge">
<title>Node12&#45;&gt;Node5</title>
<path fill="none" stroke="midnightblue" d="M111.31,-57.91C119.19,-49.88 131.16,-37.69 140.85,-27.82"/>
<polygon fill="midnightblue" stroke="midnightblue" points="142.81,-30.8 147.32,-21.21 137.82,-25.9 142.81,-30.8"/>
</g>
<!-- Node12&#45;&gt;Node7 -->
<g id="edge15" class="edge">
<title>Node12&#45;&gt;Node7</title>
<path fill="none" stroke="midnightblue" d="M122.42,-57.54C141.69,-48.71 171.36,-35.11 193.47,-24.98"/>
<polygon fill="midnightblue" stroke="midnightblue" points="194.7,-27.8 202.34,-20.46 191.79,-21.44 194.7,-27.8"/>
</g>
</g>
</svg>
