<?xml version="1.0" encoding="UTF-8" standalone="no"?>
<!DOCTYPE svg PUBLIC "-//W3C//DTD SVG 1.1//EN"
 "http://www.w3.org/Graphics/SVG/1.1/DTD/svg11.dtd">
<!-- Generated by graphviz version 8.1.0 (20230707.0739)
 -->
<!-- Title: include/LinearAlgebra/Vector2.h Pages: 1 -->
<svg width="1989pt" height="350pt"
 viewBox="0.00 0.00 1989.00 350.00" xmlns="http://www.w3.org/2000/svg" xmlns:xlink="http://www.w3.org/1999/xlink">
<g id="graph0" class="graph" transform="scale(1 1) rotate(0) translate(4 346)">
<title>include/LinearAlgebra/Vector2.h</title>
<!-- Node1 -->
<g id="node1" class="node">
<title>Node1</title>
<g id="a_node1"><a xlink:title=" ">
<polygon fill="#bfbfbf" stroke="black" points="192.75,-309.5 192.75,-341.5 301.75,-341.5 301.75,-309.5 192.75,-309.5"/>
<text text-anchor="start" x="200.75" y="-328" font-family="Helvetica,sans-Serif" font-size="10.00">include/LinearAlgebra</text>
<text text-anchor="middle" x="247.25" y="-316" font-family="Helvetica,sans-Serif" font-size="10.00">/Vector2.h</text>
</a>
</g>
</g>
<!-- Node2 -->
<g id="node2" class="node">
<title>Node2</title>
<g id="a_node2"><a xlink:href="_graphics_8h.html" target="_top" xlink:title=" ">
<polygon fill="none" stroke="black" points="248.75,-183.5 248.75,-203.5 345.75,-203.5 345.75,-183.5 248.75,-183.5"/>
<text text-anchor="middle" x="297.25" y="-190" font-family="Helvetica,sans-Serif" font-size="10.00">include/Graphics.h</text>
</a>
</g>
</g>
<!-- Node1&#45;&gt;Node2 -->
<g id="edge1" class="edge">
<title>Node1&#45;&gt;Node2</title>
<path fill="none" stroke="midnightblue" d="M256.8,-299.68C268.08,-270.34 286.27,-223.04 293.81,-203.45"/>
<polygon fill="midnightblue" stroke="midnightblue" points="253.31,-298 252.99,-308.59 259.84,-300.51 253.31,-298"/>
</g>
<!-- Node8 -->
<g id="node8" class="node">
<title>Node8</title>
<g id="a_node8"><a xlink:href="_graphics_8cpp.html" target="_top" xlink:title=" ">
<polygon fill="none" stroke="black" points="125.12,-63.5 125.12,-83.5 215.38,-83.5 215.38,-63.5 125.12,-63.5"/>
<text text-anchor="middle" x="170.25" y="-70" font-family="Helvetica,sans-Serif" font-size="10.00">src/Graphics.cpp</text>
</a>
</g>
</g>
<!-- Node1&#45;&gt;Node8 -->
<g id="edge63" class="edge">
<title>Node1&#45;&gt;Node8</title>
<path fill="none" stroke="midnightblue" d="M239.43,-299.1C222.6,-244.47 183.63,-117.95 172.98,-83.37"/>
<polygon fill="midnightblue" stroke="midnightblue" points="236.38,-300.08 242.66,-308.61 243.07,-298.02 236.38,-300.08"/>
</g>
<!-- Node21 -->
<g id="node21" class="node">
<title>Node21</title>
<g id="a_node21"><a xlink:href="_mouse_8h.html" target="_top" xlink:title=" ">
<polygon fill="none" stroke="black" points="66.62,-246.5 66.62,-266.5 153.88,-266.5 153.88,-246.5 66.62,-246.5"/>
<text text-anchor="middle" x="110.25" y="-253" font-family="Helvetica,sans-Serif" font-size="10.00">include/Mouse.h</text>
</a>
</g>
</g>
<!-- Node1&#45;&gt;Node21 -->
<g id="edge46" class="edge">
<title>Node1&#45;&gt;Node21</title>
<path fill="none" stroke="midnightblue" d="M207.22,-304.92C181.15,-292.17 148.38,-276.15 128.39,-266.37"/>
<polygon fill="midnightblue" stroke="midnightblue" points="205.32,-308.38 215.85,-309.63 208.4,-302.09 205.32,-308.38"/>
</g>
<!-- Node22 -->
<g id="node22" class="node">
<title>Node22</title>
<g id="a_node22"><a xlink:href="_mouse_8cpp.html" target="_top" xlink:title=" ">
<polygon fill="none" stroke="black" points="0,-183.5 0,-203.5 80.5,-203.5 80.5,-183.5 0,-183.5"/>
<text text-anchor="middle" x="40.25" y="-190" font-family="Helvetica,sans-Serif" font-size="10.00">src/Mouse.cpp</text>
</a>
</g>
</g>
<!-- Node1&#45;&gt;Node22 -->
<g id="edge64" class="edge">
<title>Node1&#45;&gt;Node22</title>
<path fill="none" stroke="midnightblue" d="M182.12,-323.36C140.78,-319.1 89.23,-306.67 57.25,-273 38.91,-253.69 38.47,-219.5 39.43,-203.38"/>
<polygon fill="midnightblue" stroke="midnightblue" points="181.66,-326.92 191.93,-324.32 182.28,-319.95 181.66,-326.92"/>
</g>
<!-- Node23 -->
<g id="node23" class="node">
<title>Node23</title>
<g id="a_node23"><a xlink:href="_tex_vertex_8h.html" target="_top" xlink:title=" ">
<polygon fill="none" stroke="black" points="395.12,-246.5 395.12,-266.5 497.38,-266.5 497.38,-246.5 395.12,-246.5"/>
<text text-anchor="middle" x="446.25" y="-253" font-family="Helvetica,sans-Serif" font-size="10.00">include/TexVertex.h</text>
</a>
</g>
</g>
<!-- Node1&#45;&gt;Node23 -->
<g id="edge50" class="edge">
<title>Node1&#45;&gt;Node23</title>
<path fill="none" stroke="midnightblue" d="M301.4,-306.27C339.74,-293.36 389.52,-276.6 419.62,-266.47"/>
<polygon fill="midnightblue" stroke="midnightblue" points="300.78,-303.12 292.41,-309.63 303.01,-309.76 300.78,-303.12"/>
</g>
<!-- Node28 -->
<g id="node28" class="node">
<title>Node28</title>
<g id="a_node28"><a xlink:href="_vector2_8cpp.html" target="_top" xlink:title=" ">
<polygon fill="none" stroke="black" points="515.88,-240.5 515.88,-272.5 610.62,-272.5 610.62,-240.5 515.88,-240.5"/>
<text text-anchor="start" x="523.88" y="-259" font-family="Helvetica,sans-Serif" font-size="10.00">test/LinearAlgebra</text>
<text text-anchor="middle" x="563.25" y="-247" font-family="Helvetica,sans-Serif" font-size="10.00">/Vector2.cpp</text>
</a>
</g>
</g>
<!-- Node1&#45;&gt;Node28 -->
<g id="edge65" class="edge">
<title>Node1&#45;&gt;Node28</title>
<path fill="none" stroke="midnightblue" d="M312.07,-312.9C364.63,-303.18 440.49,-288.46 506.25,-273 509.44,-272.25 512.73,-271.44 516.04,-270.61"/>
<polygon fill="midnightblue" stroke="midnightblue" points="311.76,-309.58 302.56,-314.83 313.02,-316.47 311.76,-309.58"/>
</g>
<!-- Node3 -->
<g id="node3" class="node">
<title>Node3</title>
<g id="a_node3"><a xlink:href="_engine_8h.html" target="_top" xlink:title=" ">
<polygon fill="none" stroke="black" points="271.25,-63.5 271.25,-83.5 359.25,-83.5 359.25,-63.5 271.25,-63.5"/>
<text text-anchor="middle" x="315.25" y="-70" font-family="Helvetica,sans-Serif" font-size="10.00">include/Engine.h</text>
</a>
</g>
</g>
<!-- Node2&#45;&gt;Node3 -->
<g id="edge2" class="edge">
<title>Node2&#45;&gt;Node3</title>
<path fill="none" stroke="midnightblue" d="M300.24,-172.91C304.19,-147.01 310.99,-102.44 313.88,-83.47"/>
<polygon fill="midnightblue" stroke="midnightblue" points="296.65,-172.22 298.6,-182.63 303.57,-173.27 296.65,-172.22"/>
</g>
<!-- Node6 -->
<g id="node6" class="node">
<title>Node6</title>
<g id="a_node6"><a xlink:href="_main_window_8cpp.html" target="_top" xlink:title=" ">
<polygon fill="none" stroke="black" points="189.88,-0.5 189.88,-20.5 296.62,-20.5 296.62,-0.5 189.88,-0.5"/>
<text text-anchor="middle" x="243.25" y="-7" font-family="Helvetica,sans-Serif" font-size="10.00">src/MainWindow.cpp</text>
</a>
</g>
</g>
<!-- Node2&#45;&gt;Node6 -->
<g id="edge45" class="edge">
<title>Node2&#45;&gt;Node6</title>
<path fill="none" stroke="midnightblue" d="M290.13,-173.37C282.65,-152.91 270.81,-119.42 262.25,-90 254.96,-64.96 248.23,-34.87 245.1,-20.28"/>
<polygon fill="midnightblue" stroke="midnightblue" points="287.14,-174.37 293.88,-182.54 293.7,-171.95 287.14,-174.37"/>
</g>
<!-- Node7 -->
<g id="node7" class="node">
<title>Node7</title>
<g id="a_node7"><a xlink:href="_main_window_8h.html" target="_top" xlink:title=" ">
<polygon fill="none" stroke="black" points="40.5,-126.5 40.5,-146.5 154,-146.5 154,-126.5 40.5,-126.5"/>
<text text-anchor="middle" x="97.25" y="-133" font-family="Helvetica,sans-Serif" font-size="10.00">include/MainWindow.h</text>
</a>
</g>
</g>
<!-- Node2&#45;&gt;Node7 -->
<g id="edge6" class="edge">
<title>Node2&#45;&gt;Node7</title>
<path fill="none" stroke="midnightblue" d="M254.12,-180.64C216.8,-170.38 163.66,-155.76 129.81,-146.46"/>
<polygon fill="midnightblue" stroke="midnightblue" points="253.1,-184.26 263.67,-183.54 254.96,-177.51 253.1,-184.26"/>
</g>
<!-- Node2&#45;&gt;Node8 -->
<g id="edge44" class="edge">
<title>Node2&#45;&gt;Node8</title>
<path fill="none" stroke="midnightblue" d="M278.29,-176.74C268.06,-168.11 255.31,-157.14 244.25,-147 219.86,-124.63 192.3,-96.96 178.73,-83.17"/>
<polygon fill="midnightblue" stroke="midnightblue" points="275.6,-179.89 285.51,-183.64 280.1,-174.53 275.6,-179.89"/>
</g>
<!-- Node9 -->
<g id="node9" class="node">
<title>Node9</title>
<g id="a_node9"><a xlink:href="_pube_screen_transformer_8h.html" target="_top" xlink:title=" ">
<polygon fill="none" stroke="black" points="1024.12,-126.5 1024.12,-146.5 1186.38,-146.5 1186.38,-126.5 1024.12,-126.5"/>
<text text-anchor="middle" x="1105.25" y="-133" font-family="Helvetica,sans-Serif" font-size="10.00">include/PubeScreenTransformer.h</text>
</a>
</g>
</g>
<!-- Node2&#45;&gt;Node9 -->
<g id="edge11" class="edge">
<title>Node2&#45;&gt;Node9</title>
<path fill="none" stroke="midnightblue" d="M355.94,-184.59C361.11,-184.01 366.27,-183.47 371.25,-183 642.54,-157.64 711.41,-165.58 983.25,-147 996.5,-146.09 1010.55,-145.07 1024.22,-144.03"/>
<polygon fill="midnightblue" stroke="midnightblue" points="355.88,-181.19 346.36,-185.84 356.7,-188.14 355.88,-181.19"/>
</g>
<!-- Node20 -->
<g id="node20" class="node">
<title>Node20</title>
<g id="a_node20"><a xlink:href="_scene_8h.html" target="_top" xlink:title=" ">
<polygon fill="none" stroke="black" points="888.38,-126.5 888.38,-146.5 974.12,-146.5 974.12,-126.5 888.38,-126.5"/>
<text text-anchor="middle" x="931.25" y="-133" font-family="Helvetica,sans-Serif" font-size="10.00">include/Scene.h</text>
</a>
</g>
</g>
<!-- Node2&#45;&gt;Node20 -->
<g id="edge32" class="edge">
<title>Node2&#45;&gt;Node20</title>
<path fill="none" stroke="midnightblue" d="M355.95,-184.71C361.12,-184.1 366.28,-183.52 371.25,-183 564.06,-162.8 795.03,-146.54 888.69,-140.28"/>
<polygon fill="midnightblue" stroke="midnightblue" points="355.88,-181.31 346.38,-185.99 356.73,-188.26 355.88,-181.31"/>
</g>
<!-- Node4 -->
<g id="node4" class="node">
<title>Node4</title>
<g id="a_node4"><a xlink:href="_engine_8cpp.html" target="_top" xlink:title=" ">
<polygon fill="none" stroke="black" points="977.62,-0.5 977.62,-20.5 1058.88,-20.5 1058.88,-0.5 977.62,-0.5"/>
<text text-anchor="middle" x="1018.25" y="-7" font-family="Helvetica,sans-Serif" font-size="10.00">src/Engine.cpp</text>
</a>
</g>
</g>
<!-- Node3&#45;&gt;Node4 -->
<g id="edge3" class="edge">
<title>Node3&#45;&gt;Node4</title>
<path fill="none" stroke="midnightblue" d="M351.88,-60.68C357.32,-59.25 362.9,-57.96 368.25,-57 596.24,-16.17 875.33,-11.55 977.94,-11.33"/>
<polygon fill="midnightblue" stroke="midnightblue" points="351.35,-57.48 342.67,-63.56 353.25,-64.22 351.35,-57.48"/>
</g>
<!-- Node5 -->
<g id="node5" class="node">
<title>Node5</title>
<g id="a_node5"><a xlink:href="_main_8cpp.html" target="_top" xlink:title=" ">
<polygon fill="none" stroke="black" points="42.12,-0.5 42.12,-20.5 114.38,-20.5 114.38,-0.5 42.12,-0.5"/>
<text text-anchor="middle" x="78.25" y="-7" font-family="Helvetica,sans-Serif" font-size="10.00">src/Main.cpp</text>
</a>
</g>
</g>
<!-- Node3&#45;&gt;Node5 -->
<g id="edge4" class="edge">
<title>Node3&#45;&gt;Node5</title>
<path fill="none" stroke="midnightblue" d="M270.03,-60.86C224.31,-49.09 154.64,-31.16 113.06,-20.46"/>
<polygon fill="midnightblue" stroke="midnightblue" points="268.98,-64.46 279.53,-63.56 270.72,-57.68 268.98,-64.46"/>
</g>
<!-- Node3&#45;&gt;Node6 -->
<g id="edge5" class="edge">
<title>Node3&#45;&gt;Node6</title>
<path fill="none" stroke="midnightblue" d="M296.67,-56.76C282.95,-45.13 264.77,-29.73 253.55,-20.22"/>
<polygon fill="midnightblue" stroke="midnightblue" points="294.04,-59.97 303.93,-63.76 298.57,-54.63 294.04,-59.97"/>
</g>
<!-- Node7&#45;&gt;Node4 -->
<g id="edge7" class="edge">
<title>Node7&#45;&gt;Node4</title>
<path fill="none" stroke="midnightblue" d="M95.97,-115.86C95.97,-97.58 99.24,-71.1 116.25,-57 149.83,-29.18 806.41,-15.35 977.68,-12.2"/>
<polygon fill="midnightblue" stroke="midnightblue" points="92.5,-115.84 96.35,-125.71 99.5,-115.6 92.5,-115.84"/>
</g>
<!-- Node7&#45;&gt;Node5 -->
<g id="edge9" class="edge">
<title>Node7&#45;&gt;Node5</title>
<path fill="none" stroke="midnightblue" d="M72.13,-120.47C61.77,-112.78 50.89,-102.42 45.25,-90 39.19,-76.64 40.72,-70.95 45.25,-57 49.95,-42.52 61.17,-28.79 69.23,-20.28"/>
<polygon fill="midnightblue" stroke="midnightblue" points="69.73,-123.75 79.96,-126.51 73.69,-117.97 69.73,-123.75"/>
</g>
<!-- Node7&#45;&gt;Node6 -->
<g id="edge10" class="edge">
<title>Node7&#45;&gt;Node6</title>
<path fill="none" stroke="midnightblue" d="M86.77,-117.25C78.42,-100.05 70.12,-74.38 83.25,-57 96.26,-39.77 148.64,-27.15 189.97,-19.63"/>
<polygon fill="midnightblue" stroke="midnightblue" points="84.01,-118.52 91.78,-125.72 90.19,-115.25 84.01,-118.52"/>
</g>
<!-- Node7&#45;&gt;Node8 -->
<g id="edge8" class="edge">
<title>Node7&#45;&gt;Node8</title>
<path fill="none" stroke="midnightblue" d="M116.08,-119.76C130,-108.13 148.43,-92.73 159.81,-83.22"/>
<polygon fill="midnightblue" stroke="midnightblue" points="114.14,-117.66 108.71,-126.76 118.63,-123.03 114.14,-117.66"/>
</g>
<!-- Node10 -->
<g id="node10" class="node">
<title>Node10</title>
<g id="a_node10"><a xlink:href="_con_hex_scene_8h.html" target="_top" xlink:title=" ">
<polygon fill="none" stroke="black" points="853.12,-63.5 853.12,-83.5 1009.38,-83.5 1009.38,-63.5 853.12,-63.5"/>
<text text-anchor="middle" x="931.25" y="-70" font-family="Helvetica,sans-Serif" font-size="10.00">include/Scenes/ConHexScene.h</text>
</a>
</g>
</g>
<!-- Node9&#45;&gt;Node10 -->
<g id="edge12" class="edge">
<title>Node9&#45;&gt;Node10</title>
<path fill="none" stroke="midnightblue" d="M1069.66,-123.02C1036.12,-111.27 986.69,-93.93 956.87,-83.48"/>
<polygon fill="midnightblue" stroke="midnightblue" points="1068.35,-126.62 1078.95,-126.63 1070.67,-120.02 1068.35,-126.62"/>
</g>
<!-- Node11 -->
<g id="node11" class="node">
<title>Node11</title>
<g id="a_node11"><a xlink:href="_con_hex_wire_scene_8h.html" target="_top" xlink:title=" ">
<polygon fill="none" stroke="black" points="695,-57.5 695,-89.5 835.5,-89.5 835.5,-57.5 695,-57.5"/>
<text text-anchor="start" x="703" y="-76" font-family="Helvetica,sans-Serif" font-size="10.00">include/Scenes/ConHexWire</text>
<text text-anchor="middle" x="765.25" y="-64" font-family="Helvetica,sans-Serif" font-size="10.00">Scene.h</text>
</a>
</g>
</g>
<!-- Node9&#45;&gt;Node11 -->
<g id="edge14" class="edge">
<title>Node9&#45;&gt;Node11</title>
<path fill="none" stroke="midnightblue" d="M1041.13,-124.71C988.26,-115.72 911.31,-102.42 844.25,-90 841.36,-89.47 838.42,-88.91 835.45,-88.35"/>
<polygon fill="midnightblue" stroke="midnightblue" points="1040.26,-128.28 1050.7,-126.51 1041.43,-121.38 1040.26,-128.28"/>
</g>
<!-- Node12 -->
<g id="node12" class="node">
<title>Node12</title>
<g id="a_node12"><a xlink:href="_cube_order_scene_8h.html" target="_top" xlink:title=" ">
<polygon fill="none" stroke="black" points="1545.12,-57.5 1545.12,-89.5 1677.38,-89.5 1677.38,-57.5 1545.12,-57.5"/>
<text text-anchor="start" x="1553.12" y="-76" font-family="Helvetica,sans-Serif" font-size="10.00">include/Scenes/CubeOrder</text>
<text text-anchor="middle" x="1611.25" y="-64" font-family="Helvetica,sans-Serif" font-size="10.00">Scene.h</text>
</a>
</g>
</g>
<!-- Node9&#45;&gt;Node12 -->
<g id="edge16" class="edge">
<title>Node9&#45;&gt;Node12</title>
<path fill="none" stroke="midnightblue" d="M1197.14,-128.44C1284.64,-121.1 1419.86,-108.13 1536.25,-90 1539.27,-89.53 1542.36,-89.02 1545.47,-88.48"/>
<polygon fill="midnightblue" stroke="midnightblue" points="1196.86,-125.04 1187.19,-129.35 1197.44,-132.01 1196.86,-125.04"/>
</g>
<!-- Node13 -->
<g id="node13" class="node">
<title>Node13</title>
<g id="a_node13"><a xlink:href="_cube_skinned_scene_8h.html" target="_top" xlink:title=" ">
<polygon fill="none" stroke="black" points="533.5,-57.5 533.5,-89.5 677,-89.5 677,-57.5 533.5,-57.5"/>
<text text-anchor="start" x="541.5" y="-76" font-family="Helvetica,sans-Serif" font-size="10.00">include/Scenes/CubeSkinned</text>
<text text-anchor="middle" x="605.25" y="-64" font-family="Helvetica,sans-Serif" font-size="10.00">Scene.h</text>
</a>
</g>
</g>
<!-- Node9&#45;&gt;Node13 -->
<g id="edge18" class="edge">
<title>Node9&#45;&gt;Node13</title>
<path fill="none" stroke="midnightblue" d="M1013.36,-127.68C928.29,-119.92 798.38,-106.79 686.25,-90 683.13,-89.53 679.96,-89.03 676.75,-88.51"/>
<polygon fill="midnightblue" stroke="midnightblue" points="1013.01,-131.25 1023.28,-128.67 1013.64,-124.28 1013.01,-131.25"/>
</g>
<!-- Node14 -->
<g id="node14" class="node">
<title>Node14</title>
<g id="a_node14"><a xlink:href="_folded_cube_scene_8h.html" target="_top" xlink:title=" ">
<polygon fill="none" stroke="black" points="1843.5,-57.5 1843.5,-89.5 1981,-89.5 1981,-57.5 1843.5,-57.5"/>
<text text-anchor="start" x="1851.5" y="-76" font-family="Helvetica,sans-Serif" font-size="10.00">include/Scenes/FoldedCube</text>
<text text-anchor="middle" x="1912.25" y="-64" font-family="Helvetica,sans-Serif" font-size="10.00">Scene.h</text>
</a>
</g>
</g>
<!-- Node9&#45;&gt;Node14 -->
<g id="edge20" class="edge">
<title>Node9&#45;&gt;Node14</title>
<path fill="none" stroke="midnightblue" d="M1197.19,-133.7C1335.81,-130.1 1606.37,-119.62 1834.25,-90 1837.4,-89.59 1840.61,-89.13 1843.85,-88.63"/>
<polygon fill="midnightblue" stroke="midnightblue" points="1197.13,-130.23 1187.22,-133.98 1197.31,-137.23 1197.13,-130.23"/>
</g>
<!-- Node15 -->
<g id="node15" class="node">
<title>Node15</title>
<g id="a_node15"><a xlink:href="_folded_cube_wrap_scene_8h.html" target="_top" xlink:title=" ">
<polygon fill="none" stroke="black" points="377.5,-57.5 377.5,-89.5 515,-89.5 515,-57.5 377.5,-57.5"/>
<text text-anchor="start" x="385.5" y="-76" font-family="Helvetica,sans-Serif" font-size="10.00">include/Scenes/FoldedCube</text>
<text text-anchor="middle" x="446.25" y="-64" font-family="Helvetica,sans-Serif" font-size="10.00">WrapScene.h</text>
</a>
</g>
</g>
<!-- Node9&#45;&gt;Node15 -->
<g id="edge22" class="edge">
<title>Node9&#45;&gt;Node15</title>
<path fill="none" stroke="midnightblue" d="M1013.87,-128.38C851.02,-115.68 527.25,-90.41 524.25,-90 521.1,-89.57 517.89,-89.08 514.66,-88.57"/>
<polygon fill="midnightblue" stroke="midnightblue" points="1013.12,-131.91 1023.36,-129.2 1013.66,-124.93 1013.12,-131.91"/>
</g>
<!-- Node16 -->
<g id="node16" class="node">
<title>Node16</title>
<g id="a_node16"><a xlink:href="_solid_cube_scene_8h.html" target="_top" xlink:title=" ">
<polygon fill="none" stroke="black" points="1695.25,-57.5 1695.25,-89.5 1825.25,-89.5 1825.25,-57.5 1695.25,-57.5"/>
<text text-anchor="start" x="1703.25" y="-76" font-family="Helvetica,sans-Serif" font-size="10.00">include/Scenes/SolidCube</text>
<text text-anchor="middle" x="1760.25" y="-64" font-family="Helvetica,sans-Serif" font-size="10.00">Scene.h</text>
</a>
</g>
</g>
<!-- Node9&#45;&gt;Node16 -->
<g id="edge24" class="edge">
<title>Node9&#45;&gt;Node16</title>
<path fill="none" stroke="midnightblue" d="M1196.8,-131.96C1311.61,-126.7 1514.27,-114.64 1686.25,-90 1689.24,-89.57 1692.29,-89.1 1695.36,-88.58"/>
<polygon fill="midnightblue" stroke="midnightblue" points="1196.8,-128.51 1186.97,-132.45 1197.11,-135.5 1196.8,-128.51"/>
</g>
<!-- Node17 -->
<g id="node17" class="node">
<title>Node17</title>
<g id="a_node17"><a xlink:href="_tex_cube_scene_8h.html" target="_top" xlink:title=" ">
<polygon fill="none" stroke="black" points="1201.25,-63.5 1201.25,-83.5 1361.25,-83.5 1361.25,-63.5 1201.25,-63.5"/>
<text text-anchor="middle" x="1281.25" y="-70" font-family="Helvetica,sans-Serif" font-size="10.00">include/Scenes/TexCubeScene.h</text>
</a>
</g>
</g>
<!-- Node9&#45;&gt;Node17 -->
<g id="edge26" class="edge">
<title>Node9&#45;&gt;Node17</title>
<path fill="none" stroke="midnightblue" d="M1140.81,-123.18C1174.74,-111.42 1225.05,-93.98 1255.34,-83.48"/>
<polygon fill="midnightblue" stroke="midnightblue" points="1140.14,-120.05 1131.84,-126.63 1142.44,-126.66 1140.14,-120.05"/>
</g>
<!-- Node18 -->
<g id="node18" class="node">
<title>Node18</title>
<g id="a_node18"><a xlink:href="_tex_wrap_cube_scene_8h.html" target="_top" xlink:title=" ">
<polygon fill="none" stroke="black" points="1379.62,-57.5 1379.62,-89.5 1526.88,-89.5 1526.88,-57.5 1379.62,-57.5"/>
<text text-anchor="start" x="1387.62" y="-76" font-family="Helvetica,sans-Serif" font-size="10.00">include/Scenes/TexWrapCube</text>
<text text-anchor="middle" x="1453.25" y="-64" font-family="Helvetica,sans-Serif" font-size="10.00">Scene.h</text>
</a>
</g>
</g>
<!-- Node9&#45;&gt;Node18 -->
<g id="edge28" class="edge">
<title>Node9&#45;&gt;Node18</title>
<path fill="none" stroke="midnightblue" d="M1169.57,-124.73C1223.26,-115.67 1301.79,-102.27 1370.25,-90 1373.42,-89.43 1376.67,-88.85 1379.94,-88.25"/>
<polygon fill="midnightblue" stroke="midnightblue" points="1169.12,-121.42 1159.84,-126.53 1170.28,-128.32 1169.12,-121.42"/>
</g>
<!-- Node19 -->
<g id="node19" class="node">
<title>Node19</title>
<g id="a_node19"><a xlink:href="_x_mutual_scene_8h.html" target="_top" xlink:title=" ">
<polygon fill="none" stroke="black" points="1027.12,-63.5 1027.12,-83.5 1183.38,-83.5 1183.38,-63.5 1027.12,-63.5"/>
<text text-anchor="middle" x="1105.25" y="-70" font-family="Helvetica,sans-Serif" font-size="10.00">include/Scenes/XMutualScene.h</text>
</a>
</g>
</g>
<!-- Node9&#45;&gt;Node19 -->
<g id="edge30" class="edge">
<title>Node9&#45;&gt;Node19</title>
<path fill="none" stroke="midnightblue" d="M1105.25,-115.99C1105.25,-104.97 1105.25,-91.73 1105.25,-83.22"/>
<polygon fill="midnightblue" stroke="midnightblue" points="1101.75,-115.76 1105.25,-125.76 1108.75,-115.76 1101.75,-115.76"/>
</g>
<!-- Node10&#45;&gt;Node4 -->
<g id="edge13" class="edge">
<title>Node10&#45;&gt;Node4</title>
<path fill="none" stroke="midnightblue" d="M952.7,-57.46C969.28,-45.84 991.67,-30.14 1005.53,-20.42"/>
<polygon fill="midnightblue" stroke="midnightblue" points="950.89,-55.15 944.71,-63.76 954.91,-60.88 950.89,-55.15"/>
</g>
<!-- Node11&#45;&gt;Node4 -->
<g id="edge15" class="edge">
<title>Node11&#45;&gt;Node4</title>
<path fill="none" stroke="midnightblue" d="M837.56,-55.06C884.49,-43.75 943.69,-29.48 981.27,-20.42"/>
<polygon fill="midnightblue" stroke="midnightblue" points="837.04,-51.83 828.14,-57.58 838.68,-58.64 837.04,-51.83"/>
</g>
<!-- Node12&#45;&gt;Node4 -->
<g id="edge17" class="edge">
<title>Node12&#45;&gt;Node4</title>
<path fill="none" stroke="midnightblue" d="M1534.82,-56.91C1351.32,-30.55 1144.58,-17.93 1058.74,-13.45"/>
<polygon fill="midnightblue" stroke="midnightblue" points="1534.08,-60.48 1544.48,-58.46 1535.08,-53.55 1534.08,-60.48"/>
</g>
<!-- Node13&#45;&gt;Node4 -->
<g id="edge19" class="edge">
<title>Node13&#45;&gt;Node4</title>
<path fill="none" stroke="midnightblue" d="M687.51,-56.85C798.72,-38.83 917.1,-23.77 977.77,-16.35"/>
<polygon fill="midnightblue" stroke="midnightblue" points="687.07,-53.54 677.77,-58.6 688.2,-60.45 687.07,-53.54"/>
</g>
<!-- Node14&#45;&gt;Node4 -->
<g id="edge21" class="edge">
<title>Node14&#45;&gt;Node4</title>
<path fill="none" stroke="midnightblue" d="M1833.09,-56.99C1529.89,-19.38 1176.67,-12.9 1058.76,-11.75"/>
<polygon fill="midnightblue" stroke="midnightblue" points="1832.5,-60.57 1842.85,-58.34 1833.37,-53.63 1832.5,-60.57"/>
</g>
<!-- Node15&#45;&gt;Node4 -->
<g id="edge23" class="edge">
<title>Node15&#45;&gt;Node4</title>
<path fill="none" stroke="midnightblue" d="M525.33,-56.95C699.76,-32.16 894.85,-18.8 977.74,-13.8"/>
<polygon fill="midnightblue" stroke="midnightblue" points="525.06,-53.6 515.66,-58.49 526.06,-60.53 525.06,-53.6"/>
</g>
<!-- Node16&#45;&gt;Node4 -->
<g id="edge25" class="edge">
<title>Node16&#45;&gt;Node4</title>
<path fill="none" stroke="midnightblue" d="M1684.55,-56.9C1441.55,-24.08 1161.61,-14.77 1058.73,-12.31"/>
<polygon fill="midnightblue" stroke="midnightblue" points="1683.98,-60.49 1694.37,-58.38 1684.93,-53.56 1683.98,-60.49"/>
</g>
<!-- Node17&#45;&gt;Node4 -->
<g id="edge27" class="edge">
<title>Node17&#45;&gt;Node4</title>
<path fill="none" stroke="midnightblue" d="M1232.03,-61.08C1181.31,-49.32 1103.31,-31.23 1056.88,-20.46"/>
<polygon fill="midnightblue" stroke="midnightblue" points="1231.19,-64.71 1241.73,-63.56 1232.78,-57.9 1231.19,-64.71"/>
</g>
<!-- Node18&#45;&gt;Node4 -->
<g id="edge29" class="edge">
<title>Node18&#45;&gt;Node4</title>
<path fill="none" stroke="midnightblue" d="M1369.2,-56.89C1250.04,-38.33 1122.41,-23.2 1058.74,-15.99"/>
<polygon fill="midnightblue" stroke="midnightblue" points="1368.55,-60.49 1378.97,-58.58 1369.63,-53.58 1368.55,-60.49"/>
</g>
<!-- Node19&#45;&gt;Node4 -->
<g id="edge31" class="edge">
<title>Node19&#45;&gt;Node4</title>
<path fill="none" stroke="midnightblue" d="M1083.8,-57.46C1067.22,-45.84 1044.83,-30.14 1030.97,-20.42"/>
<polygon fill="midnightblue" stroke="midnightblue" points="1081.59,-60.88 1091.79,-63.76 1085.61,-55.15 1081.59,-60.88"/>
</g>
<!-- Node20&#45;&gt;Node3 -->
<g id="edge33" class="edge">
<title>Node20&#45;&gt;Node3</title>
<path fill="none" stroke="midnightblue" d="M877.7,-134.79C777.07,-132.67 553.22,-124.15 368.25,-90 359.58,-88.4 350.29,-85.95 341.96,-83.46"/>
<polygon fill="midnightblue" stroke="midnightblue" points="877.42,-138.31 887.49,-135.01 877.56,-131.31 877.42,-138.31"/>
</g>
<!-- Node20&#45;&gt;Node10 -->
<g id="edge34" class="edge">
<title>Node20&#45;&gt;Node10</title>
<path fill="none" stroke="midnightblue" d="M931.25,-115.99C931.25,-104.97 931.25,-91.73 931.25,-83.22"/>
<polygon fill="midnightblue" stroke="midnightblue" points="927.75,-115.76 931.25,-125.76 934.75,-115.76 927.75,-115.76"/>
</g>
<!-- Node20&#45;&gt;Node11 -->
<g id="edge35" class="edge">
<title>Node20&#45;&gt;Node11</title>
<path fill="none" stroke="midnightblue" d="M896.8,-122.84C870.32,-113.11 833.69,-99.65 805.8,-89.4"/>
<polygon fill="midnightblue" stroke="midnightblue" points="895.52,-126.47 906.11,-126.63 897.93,-119.9 895.52,-126.47"/>
</g>
<!-- Node20&#45;&gt;Node12 -->
<g id="edge36" class="edge">
<title>Node20&#45;&gt;Node12</title>
<path fill="none" stroke="midnightblue" d="M984.73,-129.1C994.86,-127.99 1005.38,-126.9 1015.25,-126 1246.4,-104.95 1306.3,-121.56 1536.25,-90 1539.28,-89.58 1542.37,-89.12 1545.49,-88.61"/>
<polygon fill="midnightblue" stroke="midnightblue" points="984.49,-125.71 974.95,-130.31 985.27,-132.67 984.49,-125.71"/>
</g>
<!-- Node20&#45;&gt;Node13 -->
<g id="edge37" class="edge">
<title>Node20&#45;&gt;Node13</title>
<path fill="none" stroke="midnightblue" d="M877.95,-125.69C828.31,-116.53 752.25,-102.44 686.25,-90 683.15,-89.42 679.99,-88.82 676.8,-88.21"/>
<polygon fill="midnightblue" stroke="midnightblue" points="877.28,-129.31 887.75,-127.68 878.55,-122.42 877.28,-129.31"/>
</g>
<!-- Node20&#45;&gt;Node14 -->
<g id="edge38" class="edge">
<title>Node20&#45;&gt;Node14</title>
<path fill="none" stroke="midnightblue" d="M984.72,-128.9C994.85,-127.8 1005.36,-126.78 1015.25,-126 1378.49,-97.51 1472.52,-133.63 1834.25,-90 1837.4,-89.62 1840.62,-89.18 1843.86,-88.7"/>
<polygon fill="midnightblue" stroke="midnightblue" points="984.48,-125.51 974.93,-130.1 985.25,-132.47 984.48,-125.51"/>
</g>
<!-- Node20&#45;&gt;Node15 -->
<g id="edge39" class="edge">
<title>Node20&#45;&gt;Node15</title>
<path fill="none" stroke="midnightblue" d="M878.11,-131.01C800.21,-124.1 650.58,-109.58 524.25,-90 521.11,-89.51 517.91,-88.99 514.68,-88.44"/>
<polygon fill="midnightblue" stroke="midnightblue" points="877.34,-134.54 887.61,-131.93 877.96,-127.57 877.34,-134.54"/>
</g>
<!-- Node20&#45;&gt;Node16 -->
<g id="edge40" class="edge">
<title>Node20&#45;&gt;Node16</title>
<path fill="none" stroke="midnightblue" d="M984.72,-128.97C994.85,-127.87 1005.37,-126.82 1015.25,-126 1312.87,-101.21 1390.12,-128.73 1686.25,-90 1689.24,-89.61 1692.3,-89.16 1695.37,-88.67"/>
<polygon fill="midnightblue" stroke="midnightblue" points="984.48,-125.59 974.94,-130.18 985.26,-132.55 984.48,-125.59"/>
</g>
<!-- Node20&#45;&gt;Node17 -->
<g id="edge41" class="edge">
<title>Node20&#45;&gt;Node17</title>
<path fill="none" stroke="midnightblue" d="M984.47,-126.22C1050.94,-114.64 1163.9,-94.95 1229.62,-83.5"/>
<polygon fill="midnightblue" stroke="midnightblue" points="984.07,-122.92 974.82,-128.08 985.27,-129.81 984.07,-122.92"/>
</g>
<!-- Node20&#45;&gt;Node18 -->
<g id="edge42" class="edge">
<title>Node20&#45;&gt;Node18</title>
<path fill="none" stroke="midnightblue" d="M984.76,-129.35C994.88,-128.22 1005.39,-127.06 1015.25,-126 1172.93,-109.09 1213.28,-112.58 1370.25,-90 1373.44,-89.54 1376.7,-89.05 1379.98,-88.53"/>
<polygon fill="midnightblue" stroke="midnightblue" points="984.52,-125.97 974.97,-130.57 985.3,-132.93 984.52,-125.97"/>
</g>
<!-- Node20&#45;&gt;Node19 -->
<g id="edge43" class="edge">
<title>Node20&#45;&gt;Node19</title>
<path fill="none" stroke="midnightblue" d="M966.84,-123.02C1000.38,-111.27 1049.81,-93.93 1079.63,-83.48"/>
<polygon fill="midnightblue" stroke="midnightblue" points="965.83,-120.02 957.55,-126.63 968.15,-126.62 965.83,-120.02"/>
</g>
<!-- Node21&#45;&gt;Node7 -->
<g id="edge47" class="edge">
<title>Node21&#45;&gt;Node7</title>
<path fill="none" stroke="midnightblue" d="M108.09,-235.91C105.24,-210.01 100.33,-165.44 98.24,-146.47"/>
<polygon fill="midnightblue" stroke="midnightblue" points="104.7,-236.07 109.27,-245.63 111.66,-235.31 104.7,-236.07"/>
</g>
<!-- Node21&#45;&gt;Node20 -->
<g id="edge48" class="edge">
<title>Node21&#45;&gt;Node20</title>
<path fill="none" stroke="midnightblue" d="M164.25,-249.39C243.06,-240.33 394.14,-222.42 522.25,-204 656.3,-184.73 814.36,-157.84 888.64,-144.96"/>
<polygon fill="midnightblue" stroke="midnightblue" points="164.16,-245.99 154.62,-250.61 164.96,-252.95 164.16,-245.99"/>
</g>
<!-- Node21&#45;&gt;Node22 -->
<g id="edge49" class="edge">
<title>Node21&#45;&gt;Node22</title>
<path fill="none" stroke="midnightblue" d="M92.19,-239.76C78.85,-228.13 61.17,-212.73 50.26,-203.22"/>
<polygon fill="midnightblue" stroke="midnightblue" points="89.38,-242.83 99.22,-246.76 93.98,-237.55 89.38,-242.83"/>
</g>
<!-- Node23&#45;&gt;Node2 -->
<g id="edge62" class="edge">
<title>Node23&#45;&gt;Node2</title>
<path fill="none" stroke="midnightblue" d="M414.62,-242.55C385.84,-230.77 344.11,-213.69 318.94,-203.38"/>
<polygon fill="midnightblue" stroke="midnightblue" points="413,-246.08 423.58,-246.63 415.66,-239.6 413,-246.08"/>
</g>
<!-- Node24 -->
<g id="node24" class="node">
<title>Node24</title>
<g id="a_node24"><a xlink:href="_cube_8h.html" target="_top" xlink:title=" ">
<polygon fill="none" stroke="black" points="1413,-126.5 1413,-146.5 1493.5,-146.5 1493.5,-126.5 1413,-126.5"/>
<text text-anchor="middle" x="1453.25" y="-133" font-family="Helvetica,sans-Serif" font-size="10.00">include/Cube.h</text>
</a>
</g>
</g>
<!-- Node23&#45;&gt;Node24 -->
<g id="edge51" class="edge">
<title>Node23&#45;&gt;Node24</title>
<path fill="none" stroke="midnightblue" d="M488.41,-243.97C494.69,-242.49 501.12,-241.11 507.25,-240 855.16,-177.27 1282.47,-147.79 1413.31,-139.81"/>
<polygon fill="midnightblue" stroke="midnightblue" points="487.91,-240.73 479.04,-246.52 489.59,-247.53 487.91,-240.73"/>
</g>
<!-- Node25 -->
<g id="node25" class="node">
<title>Node25</title>
<g id="a_node25"><a xlink:href="_cube_folded_8h.html" target="_top" xlink:title=" ">
<polygon fill="none" stroke="black" points="1261.38,-183.5 1261.38,-203.5 1371.12,-203.5 1371.12,-183.5 1261.38,-183.5"/>
<text text-anchor="middle" x="1316.25" y="-190" font-family="Helvetica,sans-Serif" font-size="10.00">include/CubeFolded.h</text>
</a>
</g>
</g>
<!-- Node23&#45;&gt;Node25 -->
<g id="edge56" class="edge">
<title>Node23&#45;&gt;Node25</title>
<path fill="none" stroke="midnightblue" d="M487.03,-243.99C493.74,-242.42 500.66,-241.01 507.25,-240 653.24,-217.56 1104.1,-201.32 1261.42,-196.21"/>
<polygon fill="midnightblue" stroke="midnightblue" points="486.6,-240.73 477.73,-246.53 488.28,-247.53 486.6,-240.73"/>
</g>
<!-- Node26 -->
<g id="node26" class="node">
<title>Node26</title>
<g id="a_node26"><a xlink:href="_cube_folded_wrap_8h.html" target="_top" xlink:title=" ">
<polygon fill="none" stroke="black" points="379.75,-183.5 379.75,-203.5 512.75,-203.5 512.75,-183.5 379.75,-183.5"/>
<text text-anchor="middle" x="446.25" y="-190" font-family="Helvetica,sans-Serif" font-size="10.00">include/CubeFoldedWrap.h</text>
</a>
</g>
</g>
<!-- Node23&#45;&gt;Node26 -->
<g id="edge58" class="edge">
<title>Node23&#45;&gt;Node26</title>
<path fill="none" stroke="midnightblue" d="M446.25,-235.99C446.25,-224.97 446.25,-211.73 446.25,-203.22"/>
<polygon fill="midnightblue" stroke="midnightblue" points="442.75,-235.76 446.25,-245.76 449.75,-235.76 442.75,-235.76"/>
</g>
<!-- Node27 -->
<g id="node27" class="node">
<title>Node27</title>
<g id="a_node27"><a xlink:href="_cube_skinned_8h.html" target="_top" xlink:title=" ">
<polygon fill="none" stroke="black" points="534.38,-126.5 534.38,-146.5 650.12,-146.5 650.12,-126.5 534.38,-126.5"/>
<text text-anchor="middle" x="592.25" y="-133" font-family="Helvetica,sans-Serif" font-size="10.00">include/CubeSkinned.h</text>
</a>
</g>
</g>
<!-- Node23&#45;&gt;Node27 -->
<g id="edge60" class="edge">
<title>Node23&#45;&gt;Node27</title>
<path fill="none" stroke="midnightblue" d="M469.62,-241.08C485.03,-231.24 505.39,-217.57 522.25,-204 546.02,-184.87 571.37,-159.33 584.04,-146.16"/>
<polygon fill="midnightblue" stroke="midnightblue" points="468.34,-238.38 461.75,-246.68 472.08,-244.3 468.34,-238.38"/>
</g>
<!-- Node24&#45;&gt;Node12 -->
<g id="edge52" class="edge">
<title>Node24&#45;&gt;Node12</title>
<path fill="none" stroke="midnightblue" d="M1486.38,-122.71C1511.55,-112.99 1546.23,-99.6 1572.65,-89.4"/>
<polygon fill="midnightblue" stroke="midnightblue" points="1485.29,-119.76 1477.22,-126.63 1487.81,-126.29 1485.29,-119.76"/>
</g>
<!-- Node24&#45;&gt;Node16 -->
<g id="edge53" class="edge">
<title>Node24&#45;&gt;Node16</title>
<path fill="none" stroke="midnightblue" d="M1503.84,-125.83C1551.06,-116.75 1623.48,-102.7 1686.25,-90 1689.21,-89.4 1692.23,-88.78 1695.29,-88.16"/>
<polygon fill="midnightblue" stroke="midnightblue" points="1503.44,-122.53 1494.28,-127.86 1504.76,-129.41 1503.44,-122.53"/>
</g>
<!-- Node24&#45;&gt;Node17 -->
<g id="edge54" class="edge">
<title>Node24&#45;&gt;Node17</title>
<path fill="none" stroke="midnightblue" d="M1418.07,-123.02C1384.92,-111.27 1336.05,-93.93 1306.57,-83.48"/>
<polygon fill="midnightblue" stroke="midnightblue" points="1416.64,-126.59 1427.24,-126.63 1418.98,-119.99 1416.64,-126.59"/>
</g>
<!-- Node24&#45;&gt;Node18 -->
<g id="edge55" class="edge">
<title>Node24&#45;&gt;Node18</title>
<path fill="none" stroke="midnightblue" d="M1453.25,-115.83C1453.25,-107.23 1453.25,-97.31 1453.25,-89.35"/>
<polygon fill="midnightblue" stroke="midnightblue" points="1449.75,-115.76 1453.25,-125.76 1456.75,-115.76 1449.75,-115.76"/>
</g>
<!-- Node25&#45;&gt;Node14 -->
<g id="edge57" class="edge">
<title>Node25&#45;&gt;Node14</title>
<path fill="none" stroke="midnightblue" d="M1372.15,-181.45C1467.12,-162.68 1666.06,-123.35 1834.25,-90 1837.36,-89.38 1840.55,-88.75 1843.77,-88.11"/>
<polygon fill="midnightblue" stroke="midnightblue" points="1371.77,-178.16 1362.64,-183.53 1373.13,-185.03 1371.77,-178.16"/>
</g>
<!-- Node26&#45;&gt;Node15 -->
<g id="edge59" class="edge">
<title>Node26&#45;&gt;Node15</title>
<path fill="none" stroke="midnightblue" d="M446.25,-172.9C446.25,-149.35 446.25,-110.38 446.25,-89.24"/>
<polygon fill="midnightblue" stroke="midnightblue" points="442.75,-172.63 446.25,-182.63 449.75,-172.63 442.75,-172.63"/>
</g>
<!-- Node27&#45;&gt;Node13 -->
<g id="edge61" class="edge">
<title>Node27&#45;&gt;Node13</title>
<path fill="none" stroke="midnightblue" d="M596.38,-116.12C598.23,-107.46 600.37,-97.4 602.09,-89.35"/>
<polygon fill="midnightblue" stroke="midnightblue" points="592.77,-115.25 594.11,-125.76 599.62,-116.71 592.77,-115.25"/>
</g>
</g>
</svg>
