<?xml version="1.0" encoding="UTF-8" standalone="no"?>
<!DOCTYPE svg PUBLIC "-//W3C//DTD SVG 1.1//EN"
 "http://www.w3.org/Graphics/SVG/1.1/DTD/svg11.dtd">
<!-- Generated by graphviz version 8.1.0 (20230707.0739)
 -->
<!-- Title: include/LinearAlgebra/Vector2.h Pages: 1 -->
<svg width="467pt" height="155pt"
 viewBox="0.00 0.00 467.38 155.00" xmlns="http://www.w3.org/2000/svg" xmlns:xlink="http://www.w3.org/1999/xlink">
<g id="graph0" class="graph" transform="scale(1 1) rotate(0) translate(4 151)">
<title>include/LinearAlgebra/Vector2.h</title>
<!-- Node1 -->
<g id="node1" class="node">
<title>Node1</title>
<g id="a_node1"><a xlink:title=" ">
<polygon fill="#bfbfbf" stroke="black" points="123.75,-114.5 123.75,-146.5 232.75,-146.5 232.75,-114.5 123.75,-114.5"/>
<text text-anchor="start" x="131.75" y="-133" font-family="Helvetica,sans-Serif" font-size="10.00">include/LinearAlgebra</text>
<text text-anchor="middle" x="178.25" y="-121" font-family="Helvetica,sans-Serif" font-size="10.00">/Vector2.h</text>
</a>
</g>
</g>
<!-- Node2 -->
<g id="node2" class="node">
<title>Node2</title>
<g id="a_node2"><a xlink:href="_math_8h.html" target="_top" xlink:title=" ">
<polygon fill="none" stroke="black" points="272.25,-57.5 272.25,-77.5 318.25,-77.5 318.25,-57.5 272.25,-57.5"/>
<text text-anchor="middle" x="295.25" y="-64" font-family="Helvetica,sans-Serif" font-size="10.00">Math.h</text>
</a>
</g>
</g>
<!-- Node1&#45;&gt;Node2 -->
<g id="edge1" class="edge">
<title>Node1&#45;&gt;Node2</title>
<path fill="none" stroke="midnightblue" d="M206.87,-114.58C225.71,-104.76 250.19,-91.99 268.62,-82.39"/>
<polygon fill="midnightblue" stroke="midnightblue" points="269.9,-85.14 277.15,-77.42 266.66,-78.93 269.9,-85.14"/>
</g>
<!-- Node7 -->
<g id="node7" class="node">
<title>Node7</title>
<g id="a_node7"><a xlink:href="_matrix2_8h.html" target="_top" xlink:title=" ">
<polygon fill="none" stroke="black" points="0,-57.5 0,-77.5 56.5,-77.5 56.5,-57.5 0,-57.5"/>
<text text-anchor="middle" x="28.25" y="-64" font-family="Helvetica,sans-Serif" font-size="10.00">Matrix2.h</text>
</a>
</g>
</g>
<!-- Node1&#45;&gt;Node7 -->
<g id="edge7" class="edge">
<title>Node1&#45;&gt;Node7</title>
<path fill="none" stroke="midnightblue" d="M141.56,-114.58C116.62,-104.44 83.97,-91.16 60.13,-81.46"/>
<polygon fill="midnightblue" stroke="midnightblue" points="61.75,-77.94 51.17,-77.42 59.12,-84.42 61.75,-77.94"/>
</g>
<!-- Node8 -->
<g id="node8" class="node">
<title>Node8</title>
<g id="a_node8"><a xlink:title=" ">
<polygon fill="none" stroke="#bfbfbf" points="28.5,-0.5 28.5,-20.5 82,-20.5 82,-0.5 28.5,-0.5"/>
<text text-anchor="middle" x="55.25" y="-7" font-family="Helvetica,sans-Serif" font-size="10.00">iostream</text>
</a>
</g>
</g>
<!-- Node1&#45;&gt;Node8 -->
<g id="edge17" class="edge">
<title>Node1&#45;&gt;Node8</title>
<path fill="none" stroke="midnightblue" d="M162.67,-114.56C139.53,-92.35 96.22,-50.81 72.27,-27.83"/>
<polygon fill="midnightblue" stroke="midnightblue" points="75.04,-25.67 65.4,-21.27 70.19,-30.72 75.04,-25.67"/>
</g>
<!-- Node9 -->
<g id="node9" class="node">
<title>Node9</title>
<g id="a_node9"><a xlink:href="_matrix3_8h.html" target="_top" xlink:title=" ">
<polygon fill="none" stroke="black" points="150,-57.5 150,-77.5 206.5,-77.5 206.5,-57.5 150,-57.5"/>
<text text-anchor="middle" x="178.25" y="-64" font-family="Helvetica,sans-Serif" font-size="10.00">Matrix3.h</text>
</a>
</g>
</g>
<!-- Node1&#45;&gt;Node9 -->
<g id="edge9" class="edge">
<title>Node1&#45;&gt;Node9</title>
<path fill="none" stroke="midnightblue" d="M178.25,-114.73C178.25,-106.78 178.25,-96.85 178.25,-88.24"/>
<polygon fill="midnightblue" stroke="midnightblue" points="181.75,-88.28 178.25,-78.28 174.75,-88.28 181.75,-88.28"/>
</g>
<!-- Node10 -->
<g id="node10" class="node">
<title>Node10</title>
<g id="a_node10"><a xlink:title=" ">
<polygon fill="none" stroke="#bfbfbf" points="100.38,-0.5 100.38,-20.5 138.12,-20.5 138.12,-0.5 100.38,-0.5"/>
<text text-anchor="middle" x="119.25" y="-7" font-family="Helvetica,sans-Serif" font-size="10.00">array</text>
</a>
</g>
</g>
<!-- Node1&#45;&gt;Node10 -->
<g id="edge14" class="edge">
<title>Node1&#45;&gt;Node10</title>
<path fill="none" stroke="midnightblue" d="M165.61,-114.51C157.77,-104.64 147.95,-91.14 141.25,-78 133.56,-62.92 127.73,-44.57 124.01,-30.97"/>
<polygon fill="midnightblue" stroke="midnightblue" points="127.18,-30.25 121.29,-21.45 120.4,-32 127.18,-30.25"/>
</g>
<!-- Node11 -->
<g id="node11" class="node">
<title>Node11</title>
<g id="a_node11"><a xlink:title=" ">
<polygon fill="none" stroke="#bfbfbf" points="156.5,-0.5 156.5,-20.5 204,-20.5 204,-0.5 156.5,-0.5"/>
<text text-anchor="middle" x="180.25" y="-7" font-family="Helvetica,sans-Serif" font-size="10.00">cstddef</text>
</a>
</g>
</g>
<!-- Node1&#45;&gt;Node11 -->
<g id="edge16" class="edge">
<title>Node1&#45;&gt;Node11</title>
<path fill="none" stroke="midnightblue" d="M192.75,-114.69C201.1,-105.09 210.8,-91.83 215.25,-78 218.11,-69.12 218.26,-65.84 215.25,-57 211.66,-46.44 204.52,-36.42 197.62,-28.49"/>
<polygon fill="midnightblue" stroke="midnightblue" points="200.53,-26.4 191.14,-21.49 195.42,-31.18 200.53,-26.4"/>
</g>
<!-- Node12 -->
<g id="node12" class="node">
<title>Node12</title>
<g id="a_node12"><a xlink:title=" ">
<polygon fill="none" stroke="#bfbfbf" points="354.5,-57.5 354.5,-77.5 408,-77.5 408,-57.5 354.5,-57.5"/>
<text text-anchor="middle" x="381.25" y="-64" font-family="Helvetica,sans-Serif" font-size="10.00">compare</text>
</a>
</g>
</g>
<!-- Node1&#45;&gt;Node12 -->
<g id="edge15" class="edge">
<title>Node1&#45;&gt;Node12</title>
<path fill="none" stroke="midnightblue" d="M227.91,-114.58C263.87,-103.77 311.7,-89.4 344.32,-79.6"/>
<polygon fill="midnightblue" stroke="midnightblue" points="345.19,-82.69 353.76,-76.46 343.17,-75.99 345.19,-82.69"/>
</g>
<!-- Node2&#45;&gt;Node2 -->
<g id="edge2" class="edge">
<title>Node2&#45;&gt;Node2</title>
<path fill="none" stroke="midnightblue" d="M313.8,-77.43C325.3,-79.83 336.25,-76.52 336.25,-67.5 336.25,-61.44 331.31,-57.96 324.58,-57.05"/>
<polygon fill="midnightblue" stroke="midnightblue" points="324.62,-53.59 314.8,-57.57 324.96,-60.59 324.62,-53.59"/>
</g>
<!-- Node3 -->
<g id="node3" class="node">
<title>Node3</title>
<g id="a_node3"><a xlink:title=" ">
<polygon fill="none" stroke="#bfbfbf" points="221.75,-0.5 221.75,-20.5 264.75,-20.5 264.75,-0.5 221.75,-0.5"/>
<text text-anchor="middle" x="243.25" y="-7" font-family="Helvetica,sans-Serif" font-size="10.00">cmath</text>
</a>
</g>
</g>
<!-- Node2&#45;&gt;Node3 -->
<g id="edge3" class="edge">
<title>Node2&#45;&gt;Node3</title>
<path fill="none" stroke="midnightblue" d="M287.12,-57.91C279.61,-49.96 268.24,-37.94 258.96,-28.12"/>
<polygon fill="midnightblue" stroke="midnightblue" points="261.9,-26.08 252.49,-21.21 256.82,-30.89 261.9,-26.08"/>
</g>
<!-- Node4 -->
<g id="node4" class="node">
<title>Node4</title>
<g id="a_node4"><a xlink:title=" ">
<polygon fill="none" stroke="#bfbfbf" points="282.62,-0.5 282.62,-20.5 321.88,-20.5 321.88,-0.5 282.62,-0.5"/>
<text text-anchor="middle" x="302.25" y="-7" font-family="Helvetica,sans-Serif" font-size="10.00">limits</text>
</a>
</g>
</g>
<!-- Node2&#45;&gt;Node4 -->
<g id="edge4" class="edge">
<title>Node2&#45;&gt;Node4</title>
<path fill="none" stroke="midnightblue" d="M296.34,-57.91C297.26,-50.68 298.61,-40.09 299.79,-30.85"/>
<polygon fill="midnightblue" stroke="midnightblue" points="303.35,-31.58 301.14,-21.21 296.41,-30.69 303.35,-31.58"/>
</g>
<!-- Node5 -->
<g id="node5" class="node">
<title>Node5</title>
<g id="a_node5"><a xlink:title=" ">
<polygon fill="none" stroke="#bfbfbf" points="339.5,-0.5 339.5,-20.5 393,-20.5 393,-0.5 339.5,-0.5"/>
<text text-anchor="middle" x="366.25" y="-7" font-family="Helvetica,sans-Serif" font-size="10.00">numbers</text>
</a>
</g>
</g>
<!-- Node2&#45;&gt;Node5 -->
<g id="edge5" class="edge">
<title>Node2&#45;&gt;Node5</title>
<path fill="none" stroke="midnightblue" d="M306.66,-57.66C317.26,-49.45 333.28,-37.04 346.04,-27.15"/>
<polygon fill="midnightblue" stroke="midnightblue" points="347.87,-29.39 353.64,-20.5 343.59,-23.85 347.87,-29.39"/>
</g>
<!-- Node6 -->
<g id="node6" class="node">
<title>Node6</title>
<g id="a_node6"><a xlink:title=" ">
<polygon fill="none" stroke="#bfbfbf" points="411.12,-0.5 411.12,-20.5 459.38,-20.5 459.38,-0.5 411.12,-0.5"/>
<text text-anchor="middle" x="435.25" y="-7" font-family="Helvetica,sans-Serif" font-size="10.00">random</text>
</a>
</g>
</g>
<!-- Node2&#45;&gt;Node6 -->
<g id="edge6" class="edge">
<title>Node2&#45;&gt;Node6</title>
<path fill="none" stroke="midnightblue" d="M318.06,-57.54C340.94,-48.55 376.41,-34.62 402.34,-24.43"/>
<polygon fill="midnightblue" stroke="midnightblue" points="403.43,-27.37 411.45,-20.46 400.87,-20.85 403.43,-27.37"/>
</g>
<!-- Node7&#45;&gt;Node8 -->
<g id="edge8" class="edge">
<title>Node7&#45;&gt;Node8</title>
<path fill="none" stroke="midnightblue" d="M32.47,-57.91C36.13,-50.44 41.56,-39.38 46.2,-29.93"/>
<polygon fill="midnightblue" stroke="midnightblue" points="49.71,-31.73 50.97,-21.21 43.42,-28.65 49.71,-31.73"/>
</g>
<!-- Node9&#45;&gt;Node3 -->
<g id="edge11" class="edge">
<title>Node9&#45;&gt;Node3</title>
<path fill="none" stroke="midnightblue" d="M188.69,-57.66C198.3,-49.53 212.78,-37.28 224.41,-27.44"/>
<polygon fill="midnightblue" stroke="midnightblue" points="226.24,-29.63 231.62,-20.5 221.72,-24.29 226.24,-29.63"/>
</g>
<!-- Node9&#45;&gt;Node8 -->
<g id="edge13" class="edge">
<title>Node9&#45;&gt;Node8</title>
<path fill="none" stroke="midnightblue" d="M158.21,-57.54C138.38,-48.67 107.77,-34.99 85.08,-24.84"/>
<polygon fill="midnightblue" stroke="midnightblue" points="86.83,-21.34 76.28,-20.46 83.98,-27.73 86.83,-21.34"/>
</g>
<!-- Node9&#45;&gt;Node10 -->
<g id="edge10" class="edge">
<title>Node9&#45;&gt;Node10</title>
<path fill="none" stroke="midnightblue" d="M168.77,-57.66C160.13,-49.61 147.16,-37.52 136.66,-27.73"/>
<polygon fill="midnightblue" stroke="midnightblue" points="139.6,-25.76 129.9,-21.5 134.83,-30.88 139.6,-25.76"/>
</g>
<!-- Node9&#45;&gt;Node11 -->
<g id="edge12" class="edge">
<title>Node9&#45;&gt;Node11</title>
<path fill="none" stroke="midnightblue" d="M178.56,-57.91C178.82,-50.76 179.2,-40.32 179.54,-31.15"/>
<polygon fill="midnightblue" stroke="midnightblue" points="183.07,-31.34 179.93,-21.21 176.07,-31.08 183.07,-31.34"/>
</g>
</g>
</svg>
