<?xml version="1.0" encoding="UTF-8" standalone="no"?>
<!DOCTYPE svg PUBLIC "-//W3C//DTD SVG 1.1//EN"
 "http://www.w3.org/Graphics/SVG/1.1/DTD/svg11.dtd">
<!-- Generated by graphviz version 8.1.0 (20230707.0739)
 -->
<!-- Title: TEST Pages: 1 -->
<svg width="654pt" height="68pt"
 viewBox="0.00 0.00 654.25 68.00" xmlns="http://www.w3.org/2000/svg" xmlns:xlink="http://www.w3.org/1999/xlink">
<g id="graph0" class="graph" transform="scale(1 1) rotate(0) translate(4 64)">
<title>TEST</title>
<!-- Node1 -->
<g id="node1" class="node">
<title>Node1</title>
<g id="a_node1"><a xlink:title=" ">
<polygon fill="#bfbfbf" stroke="black" points="0,-19.5 0,-39.5 40,-39.5 40,-19.5 0,-19.5"/>
<text text-anchor="middle" x="20" y="-26" font-family="Helvetica,sans-Serif" font-size="10.00">TEST</text>
</a>
</g>
</g>
<!-- Node2 -->
<g id="node2" class="node">
<title>Node2</title>
<g id="a_node2"><a xlink:href="class_vector3.html#a1453d64a7a4333b19d6a92b8e61e617e" target="_top" xlink:title=" ">
<polygon fill="none" stroke="black" points="76,-19.5 76,-39.5 196.25,-39.5 196.25,-19.5 76,-19.5"/>
<text text-anchor="middle" x="136.12" y="-26" font-family="Helvetica,sans-Serif" font-size="10.00">Vector3::GetNormalized</text>
</a>
</g>
</g>
<!-- Node1&#45;&gt;Node2 -->
<g id="edge1" class="edge">
<title>Node1&#45;&gt;Node2</title>
<path fill="none" stroke="midnightblue" d="M39.85,-29.5C47.21,-29.5 56.13,-29.5 65.54,-29.5"/>
<polygon fill="midnightblue" stroke="midnightblue" points="65.31,-33 75.31,-29.5 65.31,-26 65.31,-33"/>
</g>
<!-- Node3 -->
<g id="node3" class="node">
<title>Node3</title>
<g id="a_node3"><a xlink:href="class_vector3.html#ac297afb6e74370b4327d779328412b18" target="_top" xlink:title=" ">
<polygon fill="none" stroke="black" points="232.25,-39.5 232.25,-59.5 348.75,-59.5 348.75,-39.5 232.25,-39.5"/>
<text text-anchor="middle" x="290.5" y="-46" font-family="Helvetica,sans-Serif" font-size="10.00">Vector3::GetMagnitude</text>
</a>
</g>
</g>
<!-- Node2&#45;&gt;Node3 -->
<g id="edge2" class="edge">
<title>Node2&#45;&gt;Node3</title>
<path fill="none" stroke="midnightblue" d="M196.04,-37.23C204.46,-38.34 213.18,-39.48 221.75,-40.61"/>
<polygon fill="midnightblue" stroke="midnightblue" points="221.13,-44.19 231.5,-42.02 222.04,-37.25 221.13,-44.19"/>
</g>
<!-- Node6 -->
<g id="node6" class="node">
<title>Node6</title>
<g id="a_node6"><a xlink:href="class_vector3.html#a515f2c0f2383c0e3083321745b708463" target="_top" xlink:title=" ">
<polygon fill="none" stroke="black" points="245.75,-0.5 245.75,-20.5 335.25,-20.5 335.25,-0.5 245.75,-0.5"/>
<text text-anchor="middle" x="290.5" y="-7" font-family="Helvetica,sans-Serif" font-size="10.00">Vector3::Vector3</text>
</a>
</g>
</g>
<!-- Node2&#45;&gt;Node6 -->
<g id="edge5" class="edge">
<title>Node2&#45;&gt;Node6</title>
<path fill="none" stroke="midnightblue" d="M196.04,-22.15C208.86,-20.55 222.38,-18.87 235.02,-17.29"/>
<polygon fill="midnightblue" stroke="midnightblue" points="235.38,-20.65 244.87,-15.94 234.51,-13.7 235.38,-20.65"/>
</g>
<!-- Node4 -->
<g id="node4" class="node">
<title>Node4</title>
<g id="a_node4"><a xlink:href="class_vector3.html#a40b58e9af6b19f4fd02e75a7e036c497" target="_top" xlink:title=" ">
<polygon fill="none" stroke="black" points="384.75,-39.5 384.75,-59.5 537.25,-59.5 537.25,-39.5 384.75,-39.5"/>
<text text-anchor="middle" x="461" y="-46" font-family="Helvetica,sans-Serif" font-size="10.00">Vector3::GetMagnitudeSquared</text>
</a>
</g>
</g>
<!-- Node3&#45;&gt;Node4 -->
<g id="edge3" class="edge">
<title>Node3&#45;&gt;Node4</title>
<path fill="none" stroke="midnightblue" d="M348.55,-49.5C356.74,-49.5 365.31,-49.5 373.91,-49.5"/>
<polygon fill="midnightblue" stroke="midnightblue" points="373.79,-53 383.79,-49.5 373.79,-46 373.79,-53"/>
</g>
<!-- Node5 -->
<g id="node5" class="node">
<title>Node5</title>
<g id="a_node5"><a xlink:href="namespace_math.html#a95bd3e633573f44ade152988b626c052" target="_top" xlink:title=" ">
<polygon fill="none" stroke="black" points="573.25,-39.5 573.25,-59.5 646.25,-59.5 646.25,-39.5 573.25,-39.5"/>
<text text-anchor="middle" x="609.75" y="-46" font-family="Helvetica,sans-Serif" font-size="10.00">Math::square</text>
</a>
</g>
</g>
<!-- Node4&#45;&gt;Node5 -->
<g id="edge4" class="edge">
<title>Node4&#45;&gt;Node5</title>
<path fill="none" stroke="midnightblue" d="M537.09,-49.5C545.82,-49.5 554.52,-49.5 562.68,-49.5"/>
<polygon fill="midnightblue" stroke="midnightblue" points="562.45,-53 572.45,-49.5 562.45,-46 562.45,-53"/>
</g>
</g>
</svg>
