<?xml version="1.0" encoding="UTF-8" standalone="no"?>
<!DOCTYPE svg PUBLIC "-//W3C//DTD SVG 1.1//EN"
 "http://www.w3.org/Graphics/SVG/1.1/DTD/svg11.dtd">
<!-- Generated by graphviz version 8.1.0 (20230707.0739)
 -->
<!-- Title: include/LinearAlgebra/Vector2.h Pages: 1 -->
<svg width="1140pt" height="293pt"
 viewBox="0.00 0.00 1140.25 293.00" xmlns="http://www.w3.org/2000/svg" xmlns:xlink="http://www.w3.org/1999/xlink">
<g id="graph0" class="graph" transform="scale(1 1) rotate(0) translate(4 289)">
<title>include/LinearAlgebra/Vector2.h</title>
<!-- Node1 -->
<g id="node1" class="node">
<title>Node1</title>
<g id="a_node1"><a xlink:title=" ">
<polygon fill="#bfbfbf" stroke="black" points="770.38,-252.5 770.38,-284.5 879.38,-284.5 879.38,-252.5 770.38,-252.5"/>
<text text-anchor="start" x="778.38" y="-271" font-family="Helvetica,sans-Serif" font-size="10.00">include/LinearAlgebra</text>
<text text-anchor="middle" x="824.88" y="-259" font-family="Helvetica,sans-Serif" font-size="10.00">/Vector2.h</text>
</a>
</g>
</g>
<!-- Node2 -->
<g id="node2" class="node">
<title>Node2</title>
<g id="a_node2"><a xlink:href="_cube_8h.html" target="_top" xlink:title=" ">
<polygon fill="none" stroke="black" points="357.62,-126.5 357.62,-146.5 438.12,-146.5 438.12,-126.5 357.62,-126.5"/>
<text text-anchor="middle" x="397.88" y="-133" font-family="Helvetica,sans-Serif" font-size="10.00">include/Cube.h</text>
</a>
</g>
</g>
<!-- Node1&#45;&gt;Node2 -->
<g id="edge1" class="edge">
<title>Node1&#45;&gt;Node2</title>
<path fill="none" stroke="midnightblue" d="M765.55,-249.44C672.8,-221.2 496.86,-167.63 427.27,-146.45"/>
<polygon fill="midnightblue" stroke="midnightblue" points="764.31,-253.02 774.89,-252.59 766.35,-246.33 764.31,-253.02"/>
</g>
<!-- Node8 -->
<g id="node8" class="node">
<title>Node8</title>
<g id="a_node8"><a xlink:href="_texture_effect_8h.html" target="_top" xlink:title=" ">
<polygon fill="none" stroke="black" points="103.5,-126.5 103.5,-146.5 246.25,-146.5 246.25,-126.5 103.5,-126.5"/>
<text text-anchor="middle" x="174.88" y="-133" font-family="Helvetica,sans-Serif" font-size="10.00">include/Effect/TextureEffect.h</text>
</a>
</g>
</g>
<!-- Node1&#45;&gt;Node8 -->
<g id="edge10" class="edge">
<title>Node1&#45;&gt;Node8</title>
<path fill="none" stroke="midnightblue" d="M759.73,-256.1C702.71,-245.99 617.69,-230.61 543.88,-216 424.05,-192.28 282.97,-161.46 215.2,-146.47"/>
<polygon fill="midnightblue" stroke="midnightblue" points="758.94,-259.69 769.39,-257.99 760.16,-252.8 758.94,-259.69"/>
</g>
<!-- Node9 -->
<g id="node9" class="node">
<title>Node9</title>
<g id="a_node9"><a xlink:href="_mouse_8h.html" target="_top" xlink:title=" ">
<polygon fill="none" stroke="black" points="709.25,-189.5 709.25,-209.5 796.5,-209.5 796.5,-189.5 709.25,-189.5"/>
<text text-anchor="middle" x="752.88" y="-196" font-family="Helvetica,sans-Serif" font-size="10.00">include/Mouse.h</text>
</a>
</g>
</g>
<!-- Node1&#45;&gt;Node9 -->
<g id="edge12" class="edge">
<title>Node1&#45;&gt;Node9</title>
<path fill="none" stroke="midnightblue" d="M801.08,-245.36C787.89,-233.08 772.22,-218.5 762.41,-209.37"/>
<polygon fill="midnightblue" stroke="midnightblue" points="798.19,-247.38 807.9,-251.63 802.96,-242.26 798.19,-247.38"/>
</g>
<!-- Node11 -->
<g id="node11" class="node">
<title>Node11</title>
<g id="a_node11"><a xlink:href="_graphics_8cpp.html" target="_top" xlink:title=" ">
<polygon fill="none" stroke="black" points="853.75,-0.5 853.75,-20.5 944,-20.5 944,-0.5 853.75,-0.5"/>
<text text-anchor="middle" x="898.88" y="-7" font-family="Helvetica,sans-Serif" font-size="10.00">src/Graphics.cpp</text>
</a>
</g>
</g>
<!-- Node1&#45;&gt;Node11 -->
<g id="edge29" class="edge">
<title>Node1&#45;&gt;Node11</title>
<path fill="none" stroke="midnightblue" d="M835.46,-242.46C845.36,-218.33 860.05,-180.65 869.88,-147 883.56,-100.12 893.78,-42.39 897.42,-20.49"/>
<polygon fill="midnightblue" stroke="midnightblue" points="831.88,-240.94 831.28,-251.52 838.35,-243.63 831.88,-240.94"/>
</g>
<!-- Node16 -->
<g id="node16" class="node">
<title>Node16</title>
<g id="a_node16"><a xlink:href="_mouse_8cpp.html" target="_top" xlink:title=" ">
<polygon fill="none" stroke="black" points="780.62,-126.5 780.62,-146.5 861.12,-146.5 861.12,-126.5 780.62,-126.5"/>
<text text-anchor="middle" x="820.88" y="-133" font-family="Helvetica,sans-Serif" font-size="10.00">src/Mouse.cpp</text>
</a>
</g>
</g>
<!-- Node1&#45;&gt;Node16 -->
<g id="edge30" class="edge">
<title>Node1&#45;&gt;Node16</title>
<path fill="none" stroke="midnightblue" d="M824.09,-241.9C823.18,-212.51 821.75,-165.87 821.15,-146.45"/>
<polygon fill="midnightblue" stroke="midnightblue" points="820.61,-241.7 824.42,-251.59 827.61,-241.48 820.61,-241.7"/>
</g>
<!-- Node17 -->
<g id="node17" class="node">
<title>Node17</title>
<g id="a_node17"><a xlink:href="_tex_vertex_8h.html" target="_top" xlink:title=" ">
<polygon fill="none" stroke="black" points="916.75,-189.5 916.75,-209.5 1019,-209.5 1019,-189.5 916.75,-189.5"/>
<text text-anchor="middle" x="967.88" y="-196" font-family="Helvetica,sans-Serif" font-size="10.00">include/TexVertex.h</text>
</a>
</g>
</g>
<!-- Node1&#45;&gt;Node17 -->
<g id="edge28" class="edge">
<title>Node1&#45;&gt;Node17</title>
<path fill="none" stroke="midnightblue" d="M866.3,-248.09C893.57,-235.31 927.99,-219.19 948.94,-209.37"/>
<polygon fill="midnightblue" stroke="midnightblue" points="865.18,-245.22 857.61,-252.63 868.15,-251.56 865.18,-245.22"/>
</g>
<!-- Node18 -->
<g id="node18" class="node">
<title>Node18</title>
<g id="a_node18"><a xlink:href="_vector2_8cpp.html" target="_top" xlink:title=" ">
<polygon fill="none" stroke="black" points="1037.5,-183.5 1037.5,-215.5 1132.25,-215.5 1132.25,-183.5 1037.5,-183.5"/>
<text text-anchor="start" x="1045.5" y="-202" font-family="Helvetica,sans-Serif" font-size="10.00">test/LinearAlgebra</text>
<text text-anchor="middle" x="1084.88" y="-190" font-family="Helvetica,sans-Serif" font-size="10.00">/Vector2.cpp</text>
</a>
</g>
</g>
<!-- Node1&#45;&gt;Node18 -->
<g id="edge31" class="edge">
<title>Node1&#45;&gt;Node18</title>
<path fill="none" stroke="midnightblue" d="M889.87,-251.31C929.74,-241.31 981.81,-228.11 1027.88,-216 1031.05,-215.17 1034.32,-214.3 1037.61,-213.42"/>
<polygon fill="midnightblue" stroke="midnightblue" points="889.07,-248.15 880.22,-253.98 890.77,-254.94 889.07,-248.15"/>
</g>
<!-- Node3 -->
<g id="node3" class="node">
<title>Node3</title>
<g id="a_node3"><a xlink:href="_cube_skin_scene_8h.html" target="_top" xlink:title=" ">
<polygon fill="none" stroke="black" points="0,-63.5 0,-83.5 163.75,-83.5 163.75,-63.5 0,-63.5"/>
<text text-anchor="middle" x="81.88" y="-70" font-family="Helvetica,sans-Serif" font-size="10.00">include/Scenes/CubeSkinScene.h</text>
</a>
</g>
</g>
<!-- Node2&#45;&gt;Node3 -->
<g id="edge2" class="edge">
<title>Node2&#45;&gt;Node3</title>
<path fill="none" stroke="midnightblue" d="M347.07,-125.69C286.73,-114.04 186.93,-94.78 128.49,-83.5"/>
<polygon fill="midnightblue" stroke="midnightblue" points="346.37,-129.32 356.85,-127.77 347.7,-122.44 346.37,-129.32"/>
</g>
<!-- Node5 -->
<g id="node5" class="node">
<title>Node5</title>
<g id="a_node5"><a xlink:href="_cube_solid_scene_8h.html" target="_top" xlink:title=" ">
<polygon fill="none" stroke="black" points="181.88,-57.5 181.88,-89.5 311.88,-89.5 311.88,-57.5 181.88,-57.5"/>
<text text-anchor="start" x="189.88" y="-76" font-family="Helvetica,sans-Serif" font-size="10.00">include/Scenes/CubeSolid</text>
<text text-anchor="middle" x="246.88" y="-64" font-family="Helvetica,sans-Serif" font-size="10.00">Scene.h</text>
</a>
</g>
</g>
<!-- Node2&#45;&gt;Node5 -->
<g id="edge4" class="edge">
<title>Node2&#45;&gt;Node5</title>
<path fill="none" stroke="midnightblue" d="M365.89,-122.58C341.86,-112.87 308.9,-99.56 283.76,-89.4"/>
<polygon fill="midnightblue" stroke="midnightblue" points="364.34,-126.13 374.92,-126.63 366.96,-119.64 364.34,-126.13"/>
</g>
<!-- Node6 -->
<g id="node6" class="node">
<title>Node6</title>
<g id="a_node6"><a xlink:href="_cube_vertex_color_scene_8h.html" target="_top" xlink:title=" ">
<polygon fill="none" stroke="black" points="329.5,-57.5 329.5,-89.5 466.25,-89.5 466.25,-57.5 329.5,-57.5"/>
<text text-anchor="start" x="337.5" y="-76" font-family="Helvetica,sans-Serif" font-size="10.00">include/Scenes/CubeVertex</text>
<text text-anchor="middle" x="397.88" y="-64" font-family="Helvetica,sans-Serif" font-size="10.00">ColorScene.h</text>
</a>
</g>
</g>
<!-- Node2&#45;&gt;Node6 -->
<g id="edge6" class="edge">
<title>Node2&#45;&gt;Node6</title>
<path fill="none" stroke="midnightblue" d="M397.88,-115.83C397.88,-107.23 397.88,-97.31 397.88,-89.35"/>
<polygon fill="midnightblue" stroke="midnightblue" points="394.38,-115.76 397.88,-125.76 401.38,-115.76 394.38,-115.76"/>
</g>
<!-- Node7 -->
<g id="node7" class="node">
<title>Node7</title>
<g id="a_node7"><a xlink:href="_double_cube_scene_8h.html" target="_top" xlink:title=" ">
<polygon fill="none" stroke="black" points="484.75,-57.5 484.75,-89.5 623,-89.5 623,-57.5 484.75,-57.5"/>
<text text-anchor="start" x="492.75" y="-76" font-family="Helvetica,sans-Serif" font-size="10.00">include/Scenes/DoubleCube</text>
<text text-anchor="middle" x="553.88" y="-64" font-family="Helvetica,sans-Serif" font-size="10.00">Scene.h</text>
</a>
</g>
</g>
<!-- Node2&#45;&gt;Node7 -->
<g id="edge8" class="edge">
<title>Node2&#45;&gt;Node7</title>
<path fill="none" stroke="midnightblue" d="M430.58,-122.71C455.44,-112.99 489.67,-99.6 515.77,-89.4"/>
<polygon fill="midnightblue" stroke="midnightblue" points="429.6,-119.73 421.56,-126.63 432.15,-126.25 429.6,-119.73"/>
</g>
<!-- Node4 -->
<g id="node4" class="node">
<title>Node4</title>
<g id="a_node4"><a xlink:href="_engine_8cpp.html" target="_top" xlink:title=" ">
<polygon fill="none" stroke="black" points="435.25,-0.5 435.25,-20.5 516.5,-20.5 516.5,-0.5 435.25,-0.5"/>
<text text-anchor="middle" x="475.88" y="-7" font-family="Helvetica,sans-Serif" font-size="10.00">src/Engine.cpp</text>
</a>
</g>
</g>
<!-- Node3&#45;&gt;Node4 -->
<g id="edge3" class="edge">
<title>Node3&#45;&gt;Node4</title>
<path fill="none" stroke="midnightblue" d="M144.09,-61.74C153.72,-60.12 163.56,-58.49 172.88,-57 266.89,-41.94 377.57,-25.69 435.65,-17.28"/>
<polygon fill="midnightblue" stroke="midnightblue" points="143.62,-58.43 134.34,-63.55 144.78,-65.34 143.62,-58.43"/>
</g>
<!-- Node5&#45;&gt;Node4 -->
<g id="edge5" class="edge">
<title>Node5&#45;&gt;Node4</title>
<path fill="none" stroke="midnightblue" d="M313.4,-54.78C355.71,-43.51 408.68,-29.4 442.41,-20.42"/>
<polygon fill="midnightblue" stroke="midnightblue" points="312.66,-51.62 303.89,-57.58 314.46,-58.39 312.66,-51.62"/>
</g>
<!-- Node6&#45;&gt;Node4 -->
<g id="edge7" class="edge">
<title>Node6&#45;&gt;Node4</title>
<path fill="none" stroke="midnightblue" d="M425.28,-51.07C438.81,-40.49 454.39,-28.31 464.64,-20.28"/>
<polygon fill="midnightblue" stroke="midnightblue" points="423.48,-48.82 417.76,-57.73 427.79,-54.33 423.48,-48.82"/>
</g>
<!-- Node7&#45;&gt;Node4 -->
<g id="edge9" class="edge">
<title>Node7&#45;&gt;Node4</title>
<path fill="none" stroke="midnightblue" d="M526.47,-51.07C512.94,-40.49 497.36,-28.31 487.11,-20.28"/>
<polygon fill="midnightblue" stroke="midnightblue" points="523.96,-54.33 533.99,-57.73 528.27,-48.82 523.96,-54.33"/>
</g>
<!-- Node8&#45;&gt;Node3 -->
<g id="edge11" class="edge">
<title>Node8&#45;&gt;Node3</title>
<path fill="none" stroke="midnightblue" d="M152.44,-120.79C134.67,-109.13 110.43,-93.23 95.48,-83.42"/>
<polygon fill="midnightblue" stroke="midnightblue" points="150.27,-124.2 160.55,-126.76 154.11,-118.35 150.27,-124.2"/>
</g>
<!-- Node10 -->
<g id="node10" class="node">
<title>Node10</title>
<g id="a_node10"><a xlink:href="_main_window_8h.html" target="_top" xlink:title=" ">
<polygon fill="none" stroke="black" points="747.12,-63.5 747.12,-83.5 860.62,-83.5 860.62,-63.5 747.12,-63.5"/>
<text text-anchor="middle" x="803.88" y="-70" font-family="Helvetica,sans-Serif" font-size="10.00">include/MainWindow.h</text>
</a>
</g>
</g>
<!-- Node9&#45;&gt;Node10 -->
<g id="edge13" class="edge">
<title>Node9&#45;&gt;Node10</title>
<path fill="none" stroke="midnightblue" d="M756.28,-179.26C759.3,-164.34 764.41,-143.35 771.88,-126 778.78,-109.95 790.18,-93.06 797.35,-83.17"/>
<polygon fill="midnightblue" stroke="midnightblue" points="752.72,-178.26 754.29,-188.74 759.59,-179.57 752.72,-178.26"/>
</g>
<!-- Node14 -->
<g id="node14" class="node">
<title>Node14</title>
<g id="a_node14"><a xlink:href="_scene_8h.html" target="_top" xlink:title=" ">
<polygon fill="none" stroke="black" points="484,-126.5 484,-146.5 569.75,-146.5 569.75,-126.5 484,-126.5"/>
<text text-anchor="middle" x="526.88" y="-133" font-family="Helvetica,sans-Serif" font-size="10.00">include/Scene.h</text>
</a>
</g>
</g>
<!-- Node9&#45;&gt;Node14 -->
<g id="edge18" class="edge">
<title>Node9&#45;&gt;Node14</title>
<path fill="none" stroke="midnightblue" d="M709.45,-186.78C665.88,-175.02 599.72,-157.16 560.15,-146.48"/>
<polygon fill="midnightblue" stroke="midnightblue" points="708.45,-190.4 719.01,-189.63 710.27,-183.65 708.45,-190.4"/>
</g>
<!-- Node9&#45;&gt;Node16 -->
<g id="edge27" class="edge">
<title>Node9&#45;&gt;Node16</title>
<path fill="none" stroke="midnightblue" d="M770.79,-182.43C783.71,-170.84 800.65,-155.64 811.15,-146.22"/>
<polygon fill="midnightblue" stroke="midnightblue" points="768.72,-179.48 763.62,-188.76 773.4,-184.69 768.72,-179.48"/>
</g>
<!-- Node10&#45;&gt;Node4 -->
<g id="edge14" class="edge">
<title>Node10&#45;&gt;Node4</title>
<path fill="none" stroke="midnightblue" d="M756.78,-61.08C750.44,-59.65 744.01,-58.25 737.88,-57 659.85,-41.08 568.01,-25.95 516.41,-17.78"/>
<polygon fill="midnightblue" stroke="midnightblue" points="755.77,-64.67 766.3,-63.51 757.34,-57.85 755.77,-64.67"/>
</g>
<!-- Node10&#45;&gt;Node11 -->
<g id="edge15" class="edge">
<title>Node10&#45;&gt;Node11</title>
<path fill="none" stroke="midnightblue" d="M826.29,-58.11C844.48,-46.43 869.57,-30.32 884.98,-20.42"/>
<polygon fill="midnightblue" stroke="midnightblue" points="825.01,-55.41 818.49,-63.76 828.79,-61.3 825.01,-55.41"/>
</g>
<!-- Node12 -->
<g id="node12" class="node">
<title>Node12</title>
<g id="a_node12"><a xlink:href="_main_8cpp.html" target="_top" xlink:title=" ">
<polygon fill="none" stroke="black" points="637.75,-0.5 637.75,-20.5 710,-20.5 710,-0.5 637.75,-0.5"/>
<text text-anchor="middle" x="673.88" y="-7" font-family="Helvetica,sans-Serif" font-size="10.00">src/Main.cpp</text>
</a>
</g>
</g>
<!-- Node10&#45;&gt;Node12 -->
<g id="edge16" class="edge">
<title>Node10&#45;&gt;Node12</title>
<path fill="none" stroke="midnightblue" d="M775.28,-59.08C750.21,-47.32 714.47,-30.55 692.8,-20.38"/>
<polygon fill="midnightblue" stroke="midnightblue" points="773.43,-62.55 783.97,-63.63 776.41,-56.21 773.43,-62.55"/>
</g>
<!-- Node13 -->
<g id="node13" class="node">
<title>Node13</title>
<g id="a_node13"><a xlink:href="_main_window_8cpp.html" target="_top" xlink:title=" ">
<polygon fill="none" stroke="black" points="728.5,-0.5 728.5,-20.5 835.25,-20.5 835.25,-0.5 728.5,-0.5"/>
<text text-anchor="middle" x="781.88" y="-7" font-family="Helvetica,sans-Serif" font-size="10.00">src/MainWindow.cpp</text>
</a>
</g>
</g>
<!-- Node10&#45;&gt;Node13 -->
<g id="edge17" class="edge">
<title>Node10&#45;&gt;Node13</title>
<path fill="none" stroke="midnightblue" d="M797.09,-53.7C793.07,-42.54 788.16,-28.91 785.02,-20.22"/>
<polygon fill="midnightblue" stroke="midnightblue" points="794.04,-54.54 800.72,-62.76 800.62,-52.17 794.04,-54.54"/>
</g>
<!-- Node14&#45;&gt;Node3 -->
<g id="edge23" class="edge">
<title>Node14&#45;&gt;Node3</title>
<path fill="none" stroke="midnightblue" d="M473.3,-128.89C389.1,-118.45 229.55,-98.46 172.88,-90 159.72,-88.03 145.53,-85.71 132.36,-83.48"/>
<polygon fill="midnightblue" stroke="midnightblue" points="472.81,-132.48 483.17,-130.23 473.67,-125.53 472.81,-132.48"/>
</g>
<!-- Node14&#45;&gt;Node5 -->
<g id="edge24" class="edge">
<title>Node14&#45;&gt;Node5</title>
<path fill="none" stroke="midnightblue" d="M475.21,-124.24C429.09,-114.2 361.34,-99.44 311.62,-88.61"/>
<polygon fill="midnightblue" stroke="midnightblue" points="474.34,-127.86 484.86,-126.56 475.83,-121.02 474.34,-127.86"/>
</g>
<!-- Node14&#45;&gt;Node6 -->
<g id="edge25" class="edge">
<title>Node14&#45;&gt;Node6</title>
<path fill="none" stroke="midnightblue" d="M498.44,-122.05C478.02,-112.4 450.48,-99.38 429.39,-89.4"/>
<polygon fill="midnightblue" stroke="midnightblue" points="496.58,-125.52 507.12,-126.63 499.57,-119.19 496.58,-125.52"/>
</g>
<!-- Node14&#45;&gt;Node7 -->
<g id="edge26" class="edge">
<title>Node14&#45;&gt;Node7</title>
<path fill="none" stroke="midnightblue" d="M535.19,-116.71C539.08,-107.92 543.66,-97.59 547.3,-89.35"/>
<polygon fill="midnightblue" stroke="midnightblue" points="531.59,-115.2 530.74,-125.76 537.99,-118.03 531.59,-115.2"/>
</g>
<!-- Node15 -->
<g id="node15" class="node">
<title>Node15</title>
<g id="a_node15"><a xlink:href="_engine_8h.html" target="_top" xlink:title=" ">
<polygon fill="none" stroke="black" points="640.88,-63.5 640.88,-83.5 728.88,-83.5 728.88,-63.5 640.88,-63.5"/>
<text text-anchor="middle" x="684.88" y="-70" font-family="Helvetica,sans-Serif" font-size="10.00">include/Engine.h</text>
</a>
</g>
</g>
<!-- Node14&#45;&gt;Node15 -->
<g id="edge19" class="edge">
<title>Node14&#45;&gt;Node15</title>
<path fill="none" stroke="midnightblue" d="M559.98,-122.72C590.42,-110.97 634.77,-93.84 661.62,-83.48"/>
<polygon fill="midnightblue" stroke="midnightblue" points="558.92,-119.76 550.85,-126.63 561.44,-126.29 558.92,-119.76"/>
</g>
<!-- Node15&#45;&gt;Node4 -->
<g id="edge20" class="edge">
<title>Node15&#45;&gt;Node4</title>
<path fill="none" stroke="midnightblue" d="M643.78,-60.48C639.76,-59.3 635.74,-58.13 631.88,-57 588.41,-44.31 538.13,-29.64 506.66,-20.47"/>
<polygon fill="midnightblue" stroke="midnightblue" points="642.75,-64.12 653.33,-63.56 644.71,-57.4 642.75,-64.12"/>
</g>
<!-- Node15&#45;&gt;Node12 -->
<g id="edge21" class="edge">
<title>Node15&#45;&gt;Node12</title>
<path fill="none" stroke="midnightblue" d="M681.36,-52.99C679.37,-41.97 676.98,-28.73 675.45,-20.22"/>
<polygon fill="midnightblue" stroke="midnightblue" points="678.08,-53.54 683.3,-62.76 684.97,-52.3 678.08,-53.54"/>
</g>
<!-- Node15&#45;&gt;Node13 -->
<g id="edge22" class="edge">
<title>Node15&#45;&gt;Node13</title>
<path fill="none" stroke="midnightblue" d="M708.01,-57.95C726.57,-46.28 752.02,-30.27 767.69,-20.42"/>
<polygon fill="midnightblue" stroke="midnightblue" points="706.37,-55.47 699.77,-63.76 710.1,-61.4 706.37,-55.47"/>
</g>
</g>
</svg>
