<?xml version="1.0" encoding="UTF-8" standalone="no"?>
<!DOCTYPE svg PUBLIC "-//W3C//DTD SVG 1.1//EN"
 "http://www.w3.org/Graphics/SVG/1.1/DTD/svg11.dtd">
<!-- Generated by graphviz version 8.1.0 (20230707.0739)
 -->
<!-- Title: include/LinearAlgebra/Vector4.h Pages: 1 -->
<svg width="488pt" height="212pt"
 viewBox="0.00 0.00 488.00 212.00" xmlns="http://www.w3.org/2000/svg" xmlns:xlink="http://www.w3.org/1999/xlink">
<g id="graph0" class="graph" transform="scale(1 1) rotate(0) translate(4 208)">
<title>include/LinearAlgebra/Vector4.h</title>
<!-- Node1 -->
<g id="node1" class="node">
<title>Node1</title>
<g id="a_node1"><a xlink:title=" ">
<polygon fill="#bfbfbf" stroke="black" points="151.38,-171.5 151.38,-203.5 260.38,-203.5 260.38,-171.5 151.38,-171.5"/>
<text text-anchor="start" x="159.38" y="-190" font-family="Helvetica,sans-Serif" font-size="10.00">include/LinearAlgebra</text>
<text text-anchor="middle" x="205.88" y="-178" font-family="Helvetica,sans-Serif" font-size="10.00">/Vector4.h</text>
</a>
</g>
</g>
<!-- Node2 -->
<g id="node2" class="node">
<title>Node2</title>
<g id="a_node2"><a xlink:href="_math_8h.html" target="_top" xlink:title=" ">
<polygon fill="none" stroke="black" points="318.88,-57.5 318.88,-77.5 364.88,-77.5 364.88,-57.5 318.88,-57.5"/>
<text text-anchor="middle" x="341.88" y="-64" font-family="Helvetica,sans-Serif" font-size="10.00">Math.h</text>
</a>
</g>
</g>
<!-- Node1&#45;&gt;Node2 -->
<g id="edge1" class="edge">
<title>Node1&#45;&gt;Node2</title>
<path fill="none" stroke="midnightblue" d="M246.88,-171.63C266.17,-163.12 288.48,-150.94 304.88,-135 318.76,-121.5 328.88,-101.65 334.99,-87.15"/>
<polygon fill="midnightblue" stroke="midnightblue" points="338.46,-88.89 338.88,-78.3 331.95,-86.32 338.46,-88.89"/>
</g>
<!-- Node7 -->
<g id="node7" class="node">
<title>Node7</title>
<g id="a_node7"><a xlink:href="_matrix3_8h.html" target="_top" xlink:title=" ">
<polygon fill="none" stroke="black" points="206.62,-57.5 206.62,-77.5 263.12,-77.5 263.12,-57.5 206.62,-57.5"/>
<text text-anchor="middle" x="234.88" y="-64" font-family="Helvetica,sans-Serif" font-size="10.00">Matrix3.h</text>
</a>
</g>
</g>
<!-- Node1&#45;&gt;Node7 -->
<g id="edge7" class="edge">
<title>Node1&#45;&gt;Node7</title>
<path fill="none" stroke="midnightblue" d="M209.55,-171.56C214.79,-150.23 224.42,-111.06 230.17,-87.64"/>
<polygon fill="midnightblue" stroke="midnightblue" points="233.73,-88.82 232.72,-78.27 226.93,-87.15 233.73,-88.82"/>
</g>
<!-- Node8 -->
<g id="node8" class="node">
<title>Node8</title>
<g id="a_node8"><a xlink:title=" ">
<polygon fill="none" stroke="#bfbfbf" points="0,-0.5 0,-20.5 37.75,-20.5 37.75,-0.5 0,-0.5"/>
<text text-anchor="middle" x="18.88" y="-7" font-family="Helvetica,sans-Serif" font-size="10.00">array</text>
</a>
</g>
</g>
<!-- Node1&#45;&gt;Node8 -->
<g id="edge19" class="edge">
<title>Node1&#45;&gt;Node8</title>
<path fill="none" stroke="midnightblue" d="M160.78,-171.56C140.01,-163.12 116.02,-151.02 97.88,-135 63.82,-104.93 38.85,-56.75 26.85,-30.33"/>
<polygon fill="midnightblue" stroke="midnightblue" points="29.74,-29.21 22.51,-21.46 23.33,-32.03 29.74,-29.21"/>
</g>
<!-- Node9 -->
<g id="node9" class="node">
<title>Node9</title>
<g id="a_node9"><a xlink:title=" ">
<polygon fill="none" stroke="#bfbfbf" points="56.12,-0.5 56.12,-20.5 103.62,-20.5 103.62,-0.5 56.12,-0.5"/>
<text text-anchor="middle" x="79.88" y="-7" font-family="Helvetica,sans-Serif" font-size="10.00">cstddef</text>
</a>
</g>
</g>
<!-- Node1&#45;&gt;Node9 -->
<g id="edge20" class="edge">
<title>Node1&#45;&gt;Node9</title>
<path fill="none" stroke="midnightblue" d="M175.22,-171.58C143.41,-154.15 95.6,-121.99 75.88,-78 69.21,-63.14 71.09,-44.52 74.12,-30.76"/>
<polygon fill="midnightblue" stroke="midnightblue" points="77.76,-31.7 76.91,-21.14 70.99,-29.93 77.76,-31.7"/>
</g>
<!-- Node10 -->
<g id="node10" class="node">
<title>Node10</title>
<g id="a_node10"><a xlink:title=" ">
<polygon fill="none" stroke="#bfbfbf" points="171.12,-0.5 171.12,-20.5 224.62,-20.5 224.62,-0.5 171.12,-0.5"/>
<text text-anchor="middle" x="197.88" y="-7" font-family="Helvetica,sans-Serif" font-size="10.00">iostream</text>
</a>
</g>
</g>
<!-- Node1&#45;&gt;Node10 -->
<g id="edge21" class="edge">
<title>Node1&#45;&gt;Node10</title>
<path fill="none" stroke="midnightblue" d="M223.55,-171.54C250.04,-147.23 294.65,-97.75 271.88,-57 263.68,-42.35 248.62,-31.83 234.22,-24.63"/>
<polygon fill="midnightblue" stroke="midnightblue" points="235.99,-21.14 225.44,-20.16 233.08,-27.5 235.99,-21.14"/>
</g>
<!-- Node11 -->
<g id="node11" class="node">
<title>Node11</title>
<g id="a_node11"><a xlink:href="_vector3_8h.html" target="_top" xlink:title=" ">
<polygon fill="none" stroke="black" points="148.88,-114.5 148.88,-134.5 206.88,-134.5 206.88,-114.5 148.88,-114.5"/>
<text text-anchor="middle" x="177.88" y="-121" font-family="Helvetica,sans-Serif" font-size="10.00">Vector3.h</text>
</a>
</g>
</g>
<!-- Node1&#45;&gt;Node11 -->
<g id="edge12" class="edge">
<title>Node1&#45;&gt;Node11</title>
<path fill="none" stroke="midnightblue" d="M199.1,-171.73C195.28,-163.41 190.47,-152.94 186.4,-144.06"/>
<polygon fill="midnightblue" stroke="midnightblue" points="189.26,-142.91 181.91,-135.28 182.9,-145.83 189.26,-142.91"/>
</g>
<!-- Node2&#45;&gt;Node2 -->
<g id="edge2" class="edge">
<title>Node2&#45;&gt;Node2</title>
<path fill="none" stroke="midnightblue" d="M360.43,-77.43C371.93,-79.83 382.88,-76.52 382.88,-67.5 382.88,-61.44 377.93,-57.96 371.2,-57.05"/>
<polygon fill="midnightblue" stroke="midnightblue" points="371.25,-53.59 361.43,-57.57 371.58,-60.59 371.25,-53.59"/>
</g>
<!-- Node3 -->
<g id="node3" class="node">
<title>Node3</title>
<g id="a_node3"><a xlink:title=" ">
<polygon fill="none" stroke="#bfbfbf" points="242.38,-0.5 242.38,-20.5 285.38,-20.5 285.38,-0.5 242.38,-0.5"/>
<text text-anchor="middle" x="263.88" y="-7" font-family="Helvetica,sans-Serif" font-size="10.00">cmath</text>
</a>
</g>
</g>
<!-- Node2&#45;&gt;Node3 -->
<g id="edge3" class="edge">
<title>Node2&#45;&gt;Node3</title>
<path fill="none" stroke="midnightblue" d="M329.34,-57.66C317.47,-49.29 299.41,-36.56 285.26,-26.58"/>
<polygon fill="midnightblue" stroke="midnightblue" points="287.82,-23.4 277.64,-20.5 283.79,-29.12 287.82,-23.4"/>
</g>
<!-- Node4 -->
<g id="node4" class="node">
<title>Node4</title>
<g id="a_node4"><a xlink:title=" ">
<polygon fill="none" stroke="#bfbfbf" points="303.25,-0.5 303.25,-20.5 342.5,-20.5 342.5,-0.5 303.25,-0.5"/>
<text text-anchor="middle" x="322.88" y="-7" font-family="Helvetica,sans-Serif" font-size="10.00">limits</text>
</a>
</g>
</g>
<!-- Node2&#45;&gt;Node4 -->
<g id="edge4" class="edge">
<title>Node2&#45;&gt;Node4</title>
<path fill="none" stroke="midnightblue" d="M338.91,-57.91C336.38,-50.6 332.67,-39.85 329.45,-30.54"/>
<polygon fill="midnightblue" stroke="midnightblue" points="332.46,-29.52 325.89,-21.21 325.84,-31.81 332.46,-29.52"/>
</g>
<!-- Node5 -->
<g id="node5" class="node">
<title>Node5</title>
<g id="a_node5"><a xlink:title=" ">
<polygon fill="none" stroke="#bfbfbf" points="360.12,-0.5 360.12,-20.5 413.62,-20.5 413.62,-0.5 360.12,-0.5"/>
<text text-anchor="middle" x="386.88" y="-7" font-family="Helvetica,sans-Serif" font-size="10.00">numbers</text>
</a>
</g>
</g>
<!-- Node2&#45;&gt;Node5 -->
<g id="edge5" class="edge">
<title>Node2&#45;&gt;Node5</title>
<path fill="none" stroke="midnightblue" d="M348.91,-57.91C355.28,-50.12 364.85,-38.42 372.79,-28.71"/>
<polygon fill="midnightblue" stroke="midnightblue" points="376.12,-31.17 379.74,-21.21 370.7,-26.74 376.12,-31.17"/>
</g>
<!-- Node6 -->
<g id="node6" class="node">
<title>Node6</title>
<g id="a_node6"><a xlink:title=" ">
<polygon fill="none" stroke="#bfbfbf" points="431.75,-0.5 431.75,-20.5 480,-20.5 480,-0.5 431.75,-0.5"/>
<text text-anchor="middle" x="455.88" y="-7" font-family="Helvetica,sans-Serif" font-size="10.00">random</text>
</a>
</g>
</g>
<!-- Node2&#45;&gt;Node6 -->
<g id="edge6" class="edge">
<title>Node2&#45;&gt;Node6</title>
<path fill="none" stroke="midnightblue" d="M360.44,-57.54C378.66,-48.75 406.68,-35.23 427.66,-25.11"/>
<polygon fill="midnightblue" stroke="midnightblue" points="428.83,-27.95 436.31,-20.46 425.79,-21.65 428.83,-27.95"/>
</g>
<!-- Node7&#45;&gt;Node3 -->
<g id="edge9" class="edge">
<title>Node7&#45;&gt;Node3</title>
<path fill="none" stroke="midnightblue" d="M239.41,-57.91C243.34,-50.44 249.18,-39.38 254.16,-29.93"/>
<polygon fill="midnightblue" stroke="midnightblue" points="257.71,-31.69 259.28,-21.21 251.52,-28.43 257.71,-31.69"/>
</g>
<!-- Node7&#45;&gt;Node8 -->
<g id="edge8" class="edge">
<title>Node7&#45;&gt;Node8</title>
<path fill="none" stroke="midnightblue" d="M206.64,-60.5C171.63,-52.87 109.94,-38.86 47.85,-21.08"/>
<polygon fill="midnightblue" stroke="midnightblue" points="49.06,-17.49 38.48,-18.07 47.11,-24.22 49.06,-17.49"/>
</g>
<!-- Node7&#45;&gt;Node9 -->
<g id="edge10" class="edge">
<title>Node7&#45;&gt;Node9</title>
<path fill="none" stroke="midnightblue" d="M209.63,-57.54C183.5,-48.27 142.54,-33.73 113.64,-23.48"/>
<polygon fill="midnightblue" stroke="midnightblue" points="115.18,-19.96 104.59,-19.91 112.84,-26.56 115.18,-19.96"/>
</g>
<!-- Node7&#45;&gt;Node10 -->
<g id="edge11" class="edge">
<title>Node7&#45;&gt;Node10</title>
<path fill="none" stroke="midnightblue" d="M229.09,-57.91C223.96,-50.28 216.31,-38.9 209.86,-29.32"/>
<polygon fill="midnightblue" stroke="midnightblue" points="212.22,-27.56 203.74,-21.21 206.42,-31.47 212.22,-27.56"/>
</g>
<!-- Node11&#45;&gt;Node2 -->
<g id="edge13" class="edge">
<title>Node11&#45;&gt;Node2</title>
<path fill="none" stroke="midnightblue" d="M204.59,-114.54C233.01,-105.01 278,-89.92 308.68,-79.63"/>
<polygon fill="midnightblue" stroke="midnightblue" points="309.51,-82.71 317.88,-76.21 307.29,-76.07 309.51,-82.71"/>
</g>
<!-- Node11&#45;&gt;Node7 -->
<g id="edge14" class="edge">
<title>Node11&#45;&gt;Node7</title>
<path fill="none" stroke="midnightblue" d="M187.03,-114.66C195.29,-106.69 207.66,-94.76 217.75,-85.02"/>
<polygon fill="midnightblue" stroke="midnightblue" points="219.78,-87.96 224.55,-78.5 214.92,-82.92 219.78,-87.96"/>
</g>
<!-- Node11&#45;&gt;Node8 -->
<g id="edge15" class="edge">
<title>Node11&#45;&gt;Node8</title>
<path fill="none" stroke="midnightblue" d="M149.24,-114.58C127.73,-107 98.26,-94.69 75.88,-78 57.65,-64.41 41.27,-44.01 30.8,-29.39"/>
<polygon fill="midnightblue" stroke="midnightblue" points="33.11,-27.58 24.54,-21.35 27.36,-31.57 33.11,-27.58"/>
</g>
<!-- Node11&#45;&gt;Node9 -->
<g id="edge18" class="edge">
<title>Node11&#45;&gt;Node9</title>
<path fill="none" stroke="midnightblue" d="M149.15,-116.72C128.64,-110.3 102.24,-98.5 87.88,-78 78.28,-64.31 76.94,-45.03 77.61,-30.75"/>
<polygon fill="midnightblue" stroke="midnightblue" points="81.15,-31.42 78.5,-21.16 74.17,-30.83 81.15,-31.42"/>
</g>
<!-- Node11&#45;&gt;Node10 -->
<g id="edge16" class="edge">
<title>Node11&#45;&gt;Node10</title>
<path fill="none" stroke="midnightblue" d="M179.44,-114.71C182.66,-96.72 190.05,-55.32 194.43,-30.77"/>
<polygon fill="midnightblue" stroke="midnightblue" points="198,-31.71 196.31,-21.25 191.11,-30.48 198,-31.71"/>
</g>
<!-- Node12 -->
<g id="node12" class="node">
<title>Node12</title>
<g id="a_node12"><a xlink:title=" ">
<polygon fill="none" stroke="#bfbfbf" points="97.12,-57.5 97.12,-77.5 150.62,-77.5 150.62,-57.5 97.12,-57.5"/>
<text text-anchor="middle" x="123.88" y="-64" font-family="Helvetica,sans-Serif" font-size="10.00">compare</text>
</a>
</g>
</g>
<!-- Node11&#45;&gt;Node12 -->
<g id="edge17" class="edge">
<title>Node11&#45;&gt;Node12</title>
<path fill="none" stroke="midnightblue" d="M169.44,-114.91C161.56,-106.88 149.59,-94.69 139.9,-84.82"/>
<polygon fill="midnightblue" stroke="midnightblue" points="142.93,-82.9 133.43,-78.21 137.94,-87.8 142.93,-82.9"/>
</g>
</g>
</svg>
