<?xml version="1.0" encoding="UTF-8" standalone="no"?>
<!DOCTYPE svg PUBLIC "-//W3C//DTD SVG 1.1//EN"
 "http://www.w3.org/Graphics/SVG/1.1/DTD/svg11.dtd">
<!-- Generated by graphviz version 8.1.0 (20230707.0739)
 -->
<!-- Title: include/LinearAlgebra/Vector3.h Pages: 1 -->
<svg width="1958pt" height="350pt"
 viewBox="0.00 0.00 1957.75 350.00" xmlns="http://www.w3.org/2000/svg" xmlns:xlink="http://www.w3.org/1999/xlink">
<g id="graph0" class="graph" transform="scale(1 1) rotate(0) translate(4 346)">
<title>include/LinearAlgebra/Vector3.h</title>
<!-- Node1 -->
<g id="node1" class="node">
<title>Node1</title>
<g id="a_node1"><a xlink:title=" ">
<polygon fill="#bfbfbf" stroke="black" points="1244.12,-309.5 1244.12,-341.5 1353.12,-341.5 1353.12,-309.5 1244.12,-309.5"/>
<text text-anchor="start" x="1252.12" y="-328" font-family="Helvetica,sans-Serif" font-size="10.00">include/LinearAlgebra</text>
<text text-anchor="middle" x="1298.62" y="-316" font-family="Helvetica,sans-Serif" font-size="10.00">/Vector3.h</text>
</a>
</g>
</g>
<!-- Node2 -->
<g id="node2" class="node">
<title>Node2</title>
<g id="a_node2"><a xlink:href="_cube_8h.html" target="_top" xlink:title=" ">
<polygon fill="none" stroke="black" points="531.38,-126.5 531.38,-146.5 611.88,-146.5 611.88,-126.5 531.38,-126.5"/>
<text text-anchor="middle" x="571.62" y="-133" font-family="Helvetica,sans-Serif" font-size="10.00">include/Cube.h</text>
</a>
</g>
</g>
<!-- Node1&#45;&gt;Node2 -->
<g id="edge1" class="edge">
<title>Node1&#45;&gt;Node2</title>
<path fill="none" stroke="midnightblue" d="M1233.39,-320.8C1119.92,-313.84 891.01,-297.25 814.62,-273 718.4,-242.46 617.33,-171.47 583.46,-146.44"/>
<polygon fill="midnightblue" stroke="midnightblue" points="1233.14,-324.36 1243.33,-321.47 1233.56,-317.37 1233.14,-324.36"/>
</g>
<!-- Node8 -->
<g id="node8" class="node">
<title>Node8</title>
<g id="a_node8"><a xlink:href="_cube_folded_8h.html" target="_top" xlink:title=" ">
<polygon fill="none" stroke="black" points="1033.75,-183.5 1033.75,-203.5 1143.5,-203.5 1143.5,-183.5 1033.75,-183.5"/>
<text text-anchor="middle" x="1088.62" y="-190" font-family="Helvetica,sans-Serif" font-size="10.00">include/CubeFolded.h</text>
</a>
</g>
</g>
<!-- Node1&#45;&gt;Node8 -->
<g id="edge10" class="edge">
<title>Node1&#45;&gt;Node8</title>
<path fill="none" stroke="midnightblue" d="M1233.46,-323.66C1149.08,-321.04 1008.96,-310.91 976.62,-273 967.11,-261.84 968.44,-252.17 976.62,-240 989.58,-220.76 1012.21,-209.65 1033.76,-203.24"/>
<polygon fill="midnightblue" stroke="midnightblue" points="1233.13,-327.18 1243.22,-323.97 1233.33,-320.19 1233.13,-327.18"/>
</g>
<!-- Node10 -->
<g id="node10" class="node">
<title>Node10</title>
<g id="a_node10"><a xlink:href="_cube_folded_wrap_8h.html" target="_top" xlink:title=" ">
<polygon fill="none" stroke="black" points="1444.12,-183.5 1444.12,-203.5 1577.12,-203.5 1577.12,-183.5 1444.12,-183.5"/>
<text text-anchor="middle" x="1510.62" y="-190" font-family="Helvetica,sans-Serif" font-size="10.00">include/CubeFoldedWrap.h</text>
</a>
</g>
</g>
<!-- Node1&#45;&gt;Node10 -->
<g id="edge13" class="edge">
<title>Node1&#45;&gt;Node10</title>
<path fill="none" stroke="midnightblue" d="M1363.69,-318.99C1400.27,-312.87 1444.67,-300 1475.62,-273 1497.1,-254.27 1506.01,-219.79 1509.16,-203.49"/>
<polygon fill="midnightblue" stroke="midnightblue" points="1363.46,-315.64 1354.1,-320.62 1364.52,-322.56 1363.46,-315.64"/>
</g>
<!-- Node12 -->
<g id="node12" class="node">
<title>Node12</title>
<g id="a_node12"><a xlink:href="_cube_skinned_8h.html" target="_top" xlink:title=" ">
<polygon fill="none" stroke="black" points="1271.75,-183.5 1271.75,-203.5 1387.5,-203.5 1387.5,-183.5 1271.75,-183.5"/>
<text text-anchor="middle" x="1329.62" y="-190" font-family="Helvetica,sans-Serif" font-size="10.00">include/CubeSkinned.h</text>
</a>
</g>
</g>
<!-- Node1&#45;&gt;Node12 -->
<g id="edge16" class="edge">
<title>Node1&#45;&gt;Node12</title>
<path fill="none" stroke="midnightblue" d="M1305.8,-299.13C1308.08,-290.82 1310.54,-281.54 1312.62,-273 1318.77,-247.8 1324.96,-217.78 1327.89,-203.25"/>
<polygon fill="midnightblue" stroke="midnightblue" points="1302.18,-298.11 1302.87,-308.68 1308.92,-299.98 1302.18,-298.11"/>
</g>
<!-- Node14 -->
<g id="node14" class="node">
<title>Node14</title>
<g id="a_node14"><a xlink:href="_graphics_8h.html" target="_top" xlink:title=" ">
<polygon fill="none" stroke="black" points="1601.12,-183.5 1601.12,-203.5 1698.12,-203.5 1698.12,-183.5 1601.12,-183.5"/>
<text text-anchor="middle" x="1649.62" y="-190" font-family="Helvetica,sans-Serif" font-size="10.00">include/Graphics.h</text>
</a>
</g>
</g>
<!-- Node1&#45;&gt;Node14 -->
<g id="edge19" class="edge">
<title>Node1&#45;&gt;Node14</title>
<path fill="none" stroke="midnightblue" d="M1363.43,-313.41C1403.92,-305.16 1456.55,-292.03 1500.62,-273 1525.76,-262.15 1528.63,-253.17 1552.62,-240 1578.22,-225.95 1608.91,-212.02 1628.81,-203.35"/>
<polygon fill="midnightblue" stroke="midnightblue" points="1363.01,-310.12 1353.88,-315.5 1364.37,-316.99 1363.01,-310.12"/>
</g>
<!-- Node20 -->
<g id="node20" class="node">
<title>Node20</title>
<g id="a_node20"><a xlink:href="_pube_screen_transformer_8h.html" target="_top" xlink:title=" ">
<polygon fill="none" stroke="black" points="711.5,-126.5 711.5,-146.5 873.75,-146.5 873.75,-126.5 711.5,-126.5"/>
<text text-anchor="middle" x="792.62" y="-133" font-family="Helvetica,sans-Serif" font-size="10.00">include/PubeScreenTransformer.h</text>
</a>
</g>
</g>
<!-- Node1&#45;&gt;Node20 -->
<g id="edge75" class="edge">
<title>Node1&#45;&gt;Node20</title>
<path fill="none" stroke="midnightblue" d="M1233.26,-322.31C1156.72,-318.22 1026.89,-306.51 920.62,-273 856.74,-252.85 821.5,-261.19 786.62,-204 775.64,-185.99 783.31,-159.98 788.66,-146.44"/>
<polygon fill="midnightblue" stroke="midnightblue" points="1233,-325.85 1243.16,-322.86 1233.35,-318.86 1233,-325.85"/>
</g>
<!-- Node25 -->
<g id="node25" class="node">
<title>Node25</title>
<g id="a_node25"><a xlink:href="_indexed_line_list_8h.html" target="_top" xlink:title=" ">
<polygon fill="none" stroke="black" points="985.88,-246.5 985.88,-266.5 1111.38,-266.5 1111.38,-246.5 985.88,-246.5"/>
<text text-anchor="middle" x="1048.62" y="-253" font-family="Helvetica,sans-Serif" font-size="10.00">include/IndexedLineList.h</text>
</a>
</g>
</g>
<!-- Node1&#45;&gt;Node25 -->
<g id="edge57" class="edge">
<title>Node1&#45;&gt;Node25</title>
<path fill="none" stroke="midnightblue" d="M1233.96,-307.17C1185.36,-294.14 1120.75,-276.83 1082.07,-266.46"/>
<polygon fill="midnightblue" stroke="midnightblue" points="1232.81,-310.75 1243.38,-309.96 1234.63,-303.99 1232.81,-310.75"/>
</g>
<!-- Node26 -->
<g id="node26" class="node">
<title>Node26</title>
<g id="a_node26"><a xlink:href="_concave_hexahedron_8h.html" target="_top" xlink:title=" ">
<polygon fill="none" stroke="black" points="795.38,-183.5 795.38,-203.5 977.88,-203.5 977.88,-183.5 795.38,-183.5"/>
<text text-anchor="middle" x="886.62" y="-190" font-family="Helvetica,sans-Serif" font-size="10.00">include/Scenes/ConcaveHexahedron.h</text>
</a>
</g>
</g>
<!-- Node1&#45;&gt;Node26 -->
<g id="edge76" class="edge">
<title>Node1&#45;&gt;Node26</title>
<path fill="none" stroke="midnightblue" d="M1233.28,-319.21C1149.98,-311.65 1011.29,-296.07 965.62,-273 932.32,-256.17 904.33,-220.1 892.57,-203.37"/>
<polygon fill="midnightblue" stroke="midnightblue" points="1232.88,-322.78 1243.16,-320.18 1233.51,-315.81 1232.88,-322.78"/>
</g>
<!-- Node27 -->
<g id="node27" class="node">
<title>Node27</title>
<g id="a_node27"><a xlink:href="_x_quads_8h.html" target="_top" xlink:title=" ">
<polygon fill="none" stroke="black" points="1161.75,-183.5 1161.75,-203.5 1253.5,-203.5 1253.5,-183.5 1161.75,-183.5"/>
<text text-anchor="middle" x="1207.62" y="-190" font-family="Helvetica,sans-Serif" font-size="10.00">include/XQuads.h</text>
</a>
</g>
</g>
<!-- Node1&#45;&gt;Node27 -->
<g id="edge83" class="edge">
<title>Node1&#45;&gt;Node27</title>
<path fill="none" stroke="midnightblue" d="M1297.94,-298.88C1296.32,-280.95 1291.78,-257.24 1279.62,-240 1267.61,-222.96 1246.99,-210.89 1230.89,-203.48"/>
<polygon fill="midnightblue" stroke="midnightblue" points="1294.5,-298.93 1298.63,-308.69 1301.49,-298.49 1294.5,-298.93"/>
</g>
<!-- Node28 -->
<g id="node28" class="node">
<title>Node28</title>
<g id="a_node28"><a xlink:href="_indexed_triangle_list_8h.html" target="_top" xlink:title=" ">
<polygon fill="none" stroke="black" points="1129,-246.5 1129,-266.5 1270.25,-266.5 1270.25,-246.5 1129,-246.5"/>
<text text-anchor="middle" x="1199.62" y="-253" font-family="Helvetica,sans-Serif" font-size="10.00">include/IndexedTriangleList.h</text>
</a>
</g>
</g>
<!-- Node1&#45;&gt;Node28 -->
<g id="edge67" class="edge">
<title>Node1&#45;&gt;Node28</title>
<path fill="none" stroke="midnightblue" d="M1267.69,-303.56C1249.2,-291.05 1226.67,-275.8 1212.73,-266.37"/>
<polygon fill="midnightblue" stroke="midnightblue" points="1265.41,-306.92 1275.65,-309.63 1269.33,-301.13 1265.41,-306.92"/>
</g>
<!-- Node29 -->
<g id="node29" class="node">
<title>Node29</title>
<g id="a_node29"><a xlink:href="_vector4_8h.html" target="_top" xlink:title=" ">
<polygon fill="none" stroke="black" points="1561.12,-240.5 1561.12,-272.5 1670.12,-272.5 1670.12,-240.5 1561.12,-240.5"/>
<text text-anchor="start" x="1569.12" y="-259" font-family="Helvetica,sans-Serif" font-size="10.00">include/LinearAlgebra</text>
<text text-anchor="middle" x="1615.62" y="-247" font-family="Helvetica,sans-Serif" font-size="10.00">/Vector4.h</text>
</a>
</g>
</g>
<!-- Node1&#45;&gt;Node29 -->
<g id="edge74" class="edge">
<title>Node1&#45;&gt;Node29</title>
<path fill="none" stroke="midnightblue" d="M1363.53,-311.32C1413.6,-301.08 1484.56,-286.41 1546.62,-273 1551.43,-271.96 1556.41,-270.87 1561.4,-269.77"/>
<polygon fill="midnightblue" stroke="midnightblue" points="1362.96,-308.07 1353.86,-313.5 1364.36,-314.93 1362.96,-308.07"/>
</g>
<!-- Node30 -->
<g id="node30" class="node">
<title>Node30</title>
<g id="a_node30"><a xlink:href="_tex_vertex_8h.html" target="_top" xlink:title=" ">
<polygon fill="none" stroke="black" points="1364.5,-246.5 1364.5,-266.5 1466.75,-266.5 1466.75,-246.5 1364.5,-246.5"/>
<text text-anchor="middle" x="1415.62" y="-253" font-family="Helvetica,sans-Serif" font-size="10.00">include/TexVertex.h</text>
</a>
</g>
</g>
<!-- Node1&#45;&gt;Node30 -->
<g id="edge77" class="edge">
<title>Node1&#45;&gt;Node30</title>
<path fill="none" stroke="midnightblue" d="M1333.99,-304.25C1356.06,-291.61 1383.36,-275.97 1400.13,-266.37"/>
<polygon fill="midnightblue" stroke="midnightblue" points="1332.53,-301.62 1325.59,-309.63 1336.01,-307.7 1332.53,-301.62"/>
</g>
<!-- Node31 -->
<g id="node31" class="node">
<title>Node31</title>
<g id="a_node31"><a xlink:href="_vector3_8cpp.html" target="_top" xlink:title=" ">
<polygon fill="none" stroke="black" points="1688.25,-240.5 1688.25,-272.5 1783,-272.5 1783,-240.5 1688.25,-240.5"/>
<text text-anchor="start" x="1696.25" y="-259" font-family="Helvetica,sans-Serif" font-size="10.00">test/LinearAlgebra</text>
<text text-anchor="middle" x="1735.62" y="-247" font-family="Helvetica,sans-Serif" font-size="10.00">/Vector3.cpp</text>
</a>
</g>
</g>
<!-- Node1&#45;&gt;Node31 -->
<g id="edge84" class="edge">
<title>Node1&#45;&gt;Node31</title>
<path fill="none" stroke="midnightblue" d="M1363.81,-318.41C1440.04,-310.66 1569.78,-295.52 1679.62,-273 1682.49,-272.41 1685.43,-271.76 1688.38,-271.06"/>
<polygon fill="midnightblue" stroke="midnightblue" points="1363.56,-315.02 1353.96,-319.5 1364.26,-321.98 1363.56,-315.02"/>
</g>
<!-- Node3 -->
<g id="node3" class="node">
<title>Node3</title>
<g id="a_node3"><a xlink:href="_cube_order_scene_8h.html" target="_top" xlink:title=" ">
<polygon fill="none" stroke="black" points="165.5,-57.5 165.5,-89.5 297.75,-89.5 297.75,-57.5 165.5,-57.5"/>
<text text-anchor="start" x="173.5" y="-76" font-family="Helvetica,sans-Serif" font-size="10.00">include/Scenes/CubeOrder</text>
<text text-anchor="middle" x="231.62" y="-64" font-family="Helvetica,sans-Serif" font-size="10.00">Scene.h</text>
</a>
</g>
</g>
<!-- Node2&#45;&gt;Node3 -->
<g id="edge2" class="edge">
<title>Node2&#45;&gt;Node3</title>
<path fill="none" stroke="midnightblue" d="M521.04,-127.34C467.65,-118.6 381.08,-104.08 306.62,-90 303.62,-89.43 300.55,-88.84 297.45,-88.23"/>
<polygon fill="midnightblue" stroke="midnightblue" points="520.16,-130.9 530.59,-129.06 521.29,-123.99 520.16,-130.9"/>
</g>
<!-- Node5 -->
<g id="node5" class="node">
<title>Node5</title>
<g id="a_node5"><a xlink:href="_solid_cube_scene_8h.html" target="_top" xlink:title=" ">
<polygon fill="none" stroke="black" points="315.62,-57.5 315.62,-89.5 445.62,-89.5 445.62,-57.5 315.62,-57.5"/>
<text text-anchor="start" x="323.62" y="-76" font-family="Helvetica,sans-Serif" font-size="10.00">include/Scenes/SolidCube</text>
<text text-anchor="middle" x="380.62" y="-64" font-family="Helvetica,sans-Serif" font-size="10.00">Scene.h</text>
</a>
</g>
</g>
<!-- Node2&#45;&gt;Node5 -->
<g id="edge4" class="edge">
<title>Node2&#45;&gt;Node5</title>
<path fill="none" stroke="midnightblue" d="M533.6,-123.36C503.03,-113.59 459.94,-99.83 427.28,-89.4"/>
<polygon fill="midnightblue" stroke="midnightblue" points="532.26,-126.92 542.85,-126.63 534.39,-120.25 532.26,-126.92"/>
</g>
<!-- Node6 -->
<g id="node6" class="node">
<title>Node6</title>
<g id="a_node6"><a xlink:href="_tex_cube_scene_8h.html" target="_top" xlink:title=" ">
<polygon fill="none" stroke="black" points="463.62,-63.5 463.62,-83.5 623.62,-83.5 623.62,-63.5 463.62,-63.5"/>
<text text-anchor="middle" x="543.62" y="-70" font-family="Helvetica,sans-Serif" font-size="10.00">include/Scenes/TexCubeScene.h</text>
</a>
</g>
</g>
<!-- Node2&#45;&gt;Node6 -->
<g id="edge6" class="edge">
<title>Node2&#45;&gt;Node6</title>
<path fill="none" stroke="midnightblue" d="M563.15,-117.04C558,-105.82 551.66,-92.01 547.63,-83.22"/>
<polygon fill="midnightblue" stroke="midnightblue" points="560.26,-118.13 567.61,-125.76 566.62,-115.21 560.26,-118.13"/>
</g>
<!-- Node7 -->
<g id="node7" class="node">
<title>Node7</title>
<g id="a_node7"><a xlink:href="_tex_wrap_cube_scene_8h.html" target="_top" xlink:title=" ">
<polygon fill="none" stroke="black" points="0,-57.5 0,-89.5 147.25,-89.5 147.25,-57.5 0,-57.5"/>
<text text-anchor="start" x="8" y="-76" font-family="Helvetica,sans-Serif" font-size="10.00">include/Scenes/TexWrapCube</text>
<text text-anchor="middle" x="73.62" y="-64" font-family="Helvetica,sans-Serif" font-size="10.00">Scene.h</text>
</a>
</g>
</g>
<!-- Node2&#45;&gt;Node7 -->
<g id="edge8" class="edge">
<title>Node2&#45;&gt;Node7</title>
<path fill="none" stroke="midnightblue" d="M520.9,-131.18C442.53,-124.23 287.42,-109.35 156.62,-90 153.43,-89.53 150.18,-89.02 146.9,-88.49"/>
<polygon fill="midnightblue" stroke="midnightblue" points="520.17,-134.72 530.43,-132.11 520.78,-127.75 520.17,-134.72"/>
</g>
<!-- Node4 -->
<g id="node4" class="node">
<title>Node4</title>
<g id="a_node4"><a xlink:href="_engine_8cpp.html" target="_top" xlink:title=" ">
<polygon fill="none" stroke="black" points="920,-0.5 920,-20.5 1001.25,-20.5 1001.25,-0.5 920,-0.5"/>
<text text-anchor="middle" x="960.62" y="-7" font-family="Helvetica,sans-Serif" font-size="10.00">src/Engine.cpp</text>
</a>
</g>
</g>
<!-- Node3&#45;&gt;Node4 -->
<g id="edge3" class="edge">
<title>Node3&#45;&gt;Node4</title>
<path fill="none" stroke="midnightblue" d="M307.96,-56.95C545.65,-24.97 818.92,-15.15 920.24,-12.42"/>
<polygon fill="midnightblue" stroke="midnightblue" points="307.82,-53.57 298.39,-58.39 308.77,-60.51 307.82,-53.57"/>
</g>
<!-- Node5&#45;&gt;Node4 -->
<g id="edge5" class="edge">
<title>Node5&#45;&gt;Node4</title>
<path fill="none" stroke="midnightblue" d="M456.16,-56.89C634.75,-30.82 835.69,-18.11 920.1,-13.53"/>
<polygon fill="midnightblue" stroke="midnightblue" points="455.9,-53.53 446.52,-58.46 456.92,-60.46 455.9,-53.53"/>
</g>
<!-- Node6&#45;&gt;Node4 -->
<g id="edge7" class="edge">
<title>Node6&#45;&gt;Node4</title>
<path fill="none" stroke="midnightblue" d="M604.1,-61.68C613.64,-60.06 623.39,-58.44 632.62,-57 736,-40.83 858.17,-24.66 920.16,-16.66"/>
<polygon fill="midnightblue" stroke="midnightblue" points="603.73,-58.36 594.47,-63.51 604.92,-65.26 603.73,-58.36"/>
</g>
<!-- Node7&#45;&gt;Node4 -->
<g id="edge9" class="edge">
<title>Node7&#45;&gt;Node4</title>
<path fill="none" stroke="midnightblue" d="M157.48,-57.02C456.36,-21.5 803.77,-13.67 920.31,-11.96"/>
<polygon fill="midnightblue" stroke="midnightblue" points="157.38,-53.63 147.87,-58.3 158.21,-60.58 157.38,-53.63"/>
</g>
<!-- Node9 -->
<g id="node9" class="node">
<title>Node9</title>
<g id="a_node9"><a xlink:href="_folded_cube_scene_8h.html" target="_top" xlink:title=" ">
<polygon fill="none" stroke="black" points="973.88,-57.5 973.88,-89.5 1111.38,-89.5 1111.38,-57.5 973.88,-57.5"/>
<text text-anchor="start" x="981.88" y="-76" font-family="Helvetica,sans-Serif" font-size="10.00">include/Scenes/FoldedCube</text>
<text text-anchor="middle" x="1042.62" y="-64" font-family="Helvetica,sans-Serif" font-size="10.00">Scene.h</text>
</a>
</g>
</g>
<!-- Node8&#45;&gt;Node9 -->
<g id="edge11" class="edge">
<title>Node8&#45;&gt;Node9</title>
<path fill="none" stroke="midnightblue" d="M1081.23,-173.54C1072.08,-150.07 1056.69,-110.58 1048.37,-89.24"/>
<polygon fill="midnightblue" stroke="midnightblue" points="1078.27,-174.58 1085.17,-182.63 1084.8,-172.04 1078.27,-174.58"/>
</g>
<!-- Node9&#45;&gt;Node4 -->
<g id="edge12" class="edge">
<title>Node9&#45;&gt;Node4</title>
<path fill="none" stroke="midnightblue" d="M1014.23,-51.37C999.91,-40.72 983.32,-28.38 972.43,-20.28"/>
<polygon fill="midnightblue" stroke="midnightblue" points="1011.66,-54.57 1021.78,-57.73 1015.84,-48.96 1011.66,-54.57"/>
</g>
<!-- Node11 -->
<g id="node11" class="node">
<title>Node11</title>
<g id="a_node11"><a xlink:href="_folded_cube_wrap_scene_8h.html" target="_top" xlink:title=" ">
<polygon fill="none" stroke="black" points="1465.88,-57.5 1465.88,-89.5 1603.38,-89.5 1603.38,-57.5 1465.88,-57.5"/>
<text text-anchor="start" x="1473.88" y="-76" font-family="Helvetica,sans-Serif" font-size="10.00">include/Scenes/FoldedCube</text>
<text text-anchor="middle" x="1534.62" y="-64" font-family="Helvetica,sans-Serif" font-size="10.00">WrapScene.h</text>
</a>
</g>
</g>
<!-- Node10&#45;&gt;Node11 -->
<g id="edge14" class="edge">
<title>Node10&#45;&gt;Node11</title>
<path fill="none" stroke="midnightblue" d="M1514.61,-172.9C1519.4,-149.35 1527.33,-110.38 1531.63,-89.24"/>
<polygon fill="midnightblue" stroke="midnightblue" points="1510.99,-172.13 1512.43,-182.63 1517.85,-173.53 1510.99,-172.13"/>
</g>
<!-- Node11&#45;&gt;Node4 -->
<g id="edge15" class="edge">
<title>Node11&#45;&gt;Node4</title>
<path fill="none" stroke="midnightblue" d="M1455.49,-56.94C1280.18,-32.07 1084.01,-18.74 1000.98,-13.77"/>
<polygon fill="midnightblue" stroke="midnightblue" points="1454.81,-60.53 1465.21,-58.48 1455.81,-53.6 1454.81,-60.53"/>
</g>
<!-- Node13 -->
<g id="node13" class="node">
<title>Node13</title>
<g id="a_node13"><a xlink:href="_cube_skinned_scene_8h.html" target="_top" xlink:title=" ">
<polygon fill="none" stroke="black" points="1303.88,-57.5 1303.88,-89.5 1447.38,-89.5 1447.38,-57.5 1303.88,-57.5"/>
<text text-anchor="start" x="1311.88" y="-76" font-family="Helvetica,sans-Serif" font-size="10.00">include/Scenes/CubeSkinned</text>
<text text-anchor="middle" x="1375.62" y="-64" font-family="Helvetica,sans-Serif" font-size="10.00">Scene.h</text>
</a>
</g>
</g>
<!-- Node12&#45;&gt;Node13 -->
<g id="edge17" class="edge">
<title>Node12&#45;&gt;Node13</title>
<path fill="none" stroke="midnightblue" d="M1337.02,-173.54C1346.17,-150.07 1361.56,-110.58 1369.88,-89.24"/>
<polygon fill="midnightblue" stroke="midnightblue" points="1333.45,-172.04 1333.08,-182.63 1339.98,-174.58 1333.45,-172.04"/>
</g>
<!-- Node13&#45;&gt;Node4 -->
<g id="edge18" class="edge">
<title>Node13&#45;&gt;Node4</title>
<path fill="none" stroke="midnightblue" d="M1293.3,-56.84C1181.33,-38.75 1062.05,-23.69 1001.09,-16.3"/>
<polygon fill="midnightblue" stroke="midnightblue" points="1292.68,-60.45 1303.11,-58.6 1293.8,-53.54 1292.68,-60.45"/>
</g>
<!-- Node15 -->
<g id="node15" class="node">
<title>Node15</title>
<g id="a_node15"><a xlink:href="_engine_8h.html" target="_top" xlink:title=" ">
<polygon fill="none" stroke="black" points="1621.62,-63.5 1621.62,-83.5 1709.62,-83.5 1709.62,-63.5 1621.62,-63.5"/>
<text text-anchor="middle" x="1665.62" y="-70" font-family="Helvetica,sans-Serif" font-size="10.00">include/Engine.h</text>
</a>
</g>
</g>
<!-- Node14&#45;&gt;Node15 -->
<g id="edge20" class="edge">
<title>Node14&#45;&gt;Node15</title>
<path fill="none" stroke="midnightblue" d="M1652.28,-172.91C1655.79,-147.01 1661.84,-102.44 1664.41,-83.47"/>
<polygon fill="midnightblue" stroke="midnightblue" points="1648.7,-172.25 1650.83,-182.63 1655.64,-173.19 1648.7,-172.25"/>
</g>
<!-- Node17 -->
<g id="node17" class="node">
<title>Node17</title>
<g id="a_node17"><a xlink:href="_main_window_8cpp.html" target="_top" xlink:title=" ">
<polygon fill="none" stroke="black" points="1731.25,-0.5 1731.25,-20.5 1838,-20.5 1838,-0.5 1731.25,-0.5"/>
<text text-anchor="middle" x="1784.62" y="-7" font-family="Helvetica,sans-Serif" font-size="10.00">src/MainWindow.cpp</text>
</a>
</g>
</g>
<!-- Node14&#45;&gt;Node17 -->
<g id="edge56" class="edge">
<title>Node14&#45;&gt;Node17</title>
<path fill="none" stroke="midnightblue" d="M1706.35,-180.76C1754.09,-167.55 1819.43,-140.93 1850.62,-90 1858.29,-77.49 1857.44,-69.98 1850.62,-57 1841.57,-39.75 1822.68,-27.76 1807.42,-20.43"/>
<polygon fill="midnightblue" stroke="midnightblue" points="1705.62,-177.59 1696.84,-183.53 1707.4,-184.36 1705.62,-177.59"/>
</g>
<!-- Node18 -->
<g id="node18" class="node">
<title>Node18</title>
<g id="a_node18"><a xlink:href="_main_window_8h.html" target="_top" xlink:title=" ">
<polygon fill="none" stroke="black" points="1727.88,-63.5 1727.88,-83.5 1841.38,-83.5 1841.38,-63.5 1727.88,-63.5"/>
<text text-anchor="middle" x="1784.62" y="-70" font-family="Helvetica,sans-Serif" font-size="10.00">include/MainWindow.h</text>
</a>
</g>
</g>
<!-- Node14&#45;&gt;Node18 -->
<g id="edge24" class="edge">
<title>Node14&#45;&gt;Node18</title>
<path fill="none" stroke="midnightblue" d="M1667.78,-176.63C1696.53,-151.51 1751.58,-103.39 1774.36,-83.47"/>
<polygon fill="midnightblue" stroke="midnightblue" points="1666,-174.41 1660.77,-183.63 1670.6,-179.68 1666,-174.41"/>
</g>
<!-- Node19 -->
<g id="node19" class="node">
<title>Node19</title>
<g id="a_node19"><a xlink:href="_graphics_8cpp.html" target="_top" xlink:title=" ">
<polygon fill="none" stroke="black" points="1859.5,-0.5 1859.5,-20.5 1949.75,-20.5 1949.75,-0.5 1859.5,-0.5"/>
<text text-anchor="middle" x="1904.62" y="-7" font-family="Helvetica,sans-Serif" font-size="10.00">src/Graphics.cpp</text>
</a>
</g>
</g>
<!-- Node14&#45;&gt;Node19 -->
<g id="edge55" class="edge">
<title>Node14&#45;&gt;Node19</title>
<path fill="none" stroke="midnightblue" d="M1708.63,-185.31C1742.52,-179.11 1784.76,-167.72 1817.62,-147 1867.05,-115.84 1893.76,-45.24 1901.9,-20.37"/>
<polygon fill="midnightblue" stroke="midnightblue" points="1708.2,-182 1698.93,-187.14 1709.38,-188.9 1708.2,-182"/>
</g>
<!-- Node14&#45;&gt;Node20 -->
<g id="edge29" class="edge">
<title>Node14&#45;&gt;Node20</title>
<path fill="none" stroke="midnightblue" d="M1590.66,-183.43C1589.3,-183.28 1587.96,-183.14 1586.62,-183 1295.27,-153.13 1220.94,-165.2 928.62,-147 910.79,-145.89 891.65,-144.61 873.52,-143.35"/>
<polygon fill="midnightblue" stroke="midnightblue" points="1589.84,-186.98 1600.19,-184.72 1590.69,-180.03 1589.84,-186.98"/>
</g>
<!-- Node24 -->
<g id="node24" class="node">
<title>Node24</title>
<g id="a_node24"><a xlink:href="_scene_8h.html" target="_top" xlink:title=" ">
<polygon fill="none" stroke="black" points="937.75,-126.5 937.75,-146.5 1023.5,-146.5 1023.5,-126.5 937.75,-126.5"/>
<text text-anchor="middle" x="980.62" y="-133" font-family="Helvetica,sans-Serif" font-size="10.00">include/Scene.h</text>
</a>
</g>
</g>
<!-- Node14&#45;&gt;Node24 -->
<g id="edge43" class="edge">
<title>Node14&#45;&gt;Node24</title>
<path fill="none" stroke="midnightblue" d="M1590.65,-183.47C1589.3,-183.31 1587.95,-183.15 1586.62,-183 1375.9,-159.23 1122.5,-144.74 1023.34,-139.61"/>
<polygon fill="midnightblue" stroke="midnightblue" points="1589.81,-187.02 1600.18,-184.82 1590.7,-180.08 1589.81,-187.02"/>
</g>
<!-- Node15&#45;&gt;Node4 -->
<g id="edge21" class="edge">
<title>Node15&#45;&gt;Node4</title>
<path fill="none" stroke="midnightblue" d="M1628.99,-60.68C1623.55,-59.25 1617.97,-57.96 1612.62,-57 1383.93,-16.07 1103.98,-11.51 1001.06,-11.32"/>
<polygon fill="midnightblue" stroke="midnightblue" points="1627.63,-64.22 1638.2,-63.56 1629.53,-57.48 1627.63,-64.22"/>
</g>
<!-- Node16 -->
<g id="node16" class="node">
<title>Node16</title>
<g id="a_node16"><a xlink:href="_main_8cpp.html" target="_top" xlink:title=" ">
<polygon fill="none" stroke="black" points="1634.5,-0.5 1634.5,-20.5 1706.75,-20.5 1706.75,-0.5 1634.5,-0.5"/>
<text text-anchor="middle" x="1670.62" y="-7" font-family="Helvetica,sans-Serif" font-size="10.00">src/Main.cpp</text>
</a>
</g>
</g>
<!-- Node15&#45;&gt;Node16 -->
<g id="edge22" class="edge">
<title>Node15&#45;&gt;Node16</title>
<path fill="none" stroke="midnightblue" d="M1667.22,-52.99C1668.13,-41.97 1669.21,-28.73 1669.91,-20.22"/>
<polygon fill="midnightblue" stroke="midnightblue" points="1663.67,-52.51 1666.34,-62.76 1670.65,-53.08 1663.67,-52.51"/>
</g>
<!-- Node15&#45;&gt;Node17 -->
<g id="edge23" class="edge">
<title>Node15&#45;&gt;Node17</title>
<path fill="none" stroke="midnightblue" d="M1692.41,-58.77C1715.33,-47.02 1747.64,-30.46 1767.3,-20.38"/>
<polygon fill="midnightblue" stroke="midnightblue" points="1691.23,-55.95 1683.93,-63.63 1694.42,-62.18 1691.23,-55.95"/>
</g>
<!-- Node18&#45;&gt;Node4 -->
<g id="edge25" class="edge">
<title>Node18&#45;&gt;Node4</title>
<path fill="none" stroke="midnightblue" d="M1740.98,-61.15C1733.56,-59.53 1725.9,-58.06 1718.62,-57 1446.65,-17.2 1114.89,-12.05 1001.14,-11.51"/>
<polygon fill="midnightblue" stroke="midnightblue" points="1740.07,-64.76 1750.6,-63.58 1741.63,-57.93 1740.07,-64.76"/>
</g>
<!-- Node18&#45;&gt;Node16 -->
<g id="edge27" class="edge">
<title>Node18&#45;&gt;Node16</title>
<path fill="none" stroke="midnightblue" d="M1758.63,-58.59C1736.73,-46.87 1706.05,-30.45 1687.3,-20.42"/>
<polygon fill="midnightblue" stroke="midnightblue" points="1756.82,-62.13 1767.29,-63.76 1760.13,-55.96 1756.82,-62.13"/>
</g>
<!-- Node18&#45;&gt;Node17 -->
<g id="edge28" class="edge">
<title>Node18&#45;&gt;Node17</title>
<path fill="none" stroke="midnightblue" d="M1784.62,-52.99C1784.62,-41.97 1784.62,-28.73 1784.62,-20.22"/>
<polygon fill="midnightblue" stroke="midnightblue" points="1781.13,-52.76 1784.62,-62.76 1788.13,-52.76 1781.13,-52.76"/>
</g>
<!-- Node18&#45;&gt;Node19 -->
<g id="edge26" class="edge">
<title>Node18&#45;&gt;Node19</title>
<path fill="none" stroke="midnightblue" d="M1811.64,-58.77C1834.75,-47.02 1867.33,-30.46 1887.15,-20.38"/>
<polygon fill="midnightblue" stroke="midnightblue" points="1810.4,-55.98 1803.07,-63.63 1813.57,-62.22 1810.4,-55.98"/>
</g>
<!-- Node20&#45;&gt;Node3 -->
<g id="edge34" class="edge">
<title>Node20&#45;&gt;Node3</title>
<path fill="none" stroke="midnightblue" d="M701.14,-129.96C603.17,-123.32 443.35,-110.46 306.62,-90 303.6,-89.55 300.51,-89.05 297.4,-88.52"/>
<polygon fill="midnightblue" stroke="midnightblue" points="700.68,-133.5 710.89,-130.68 701.15,-126.52 700.68,-133.5"/>
</g>
<!-- Node20&#45;&gt;Node5 -->
<g id="edge38" class="edge">
<title>Node20&#45;&gt;Node5</title>
<path fill="none" stroke="midnightblue" d="M703.12,-125.25C634.84,-116.99 538.54,-104.42 454.62,-90 451.65,-89.49 448.61,-88.94 445.55,-88.38"/>
<polygon fill="midnightblue" stroke="midnightblue" points="702.49,-128.82 712.84,-126.54 703.33,-121.87 702.49,-128.82"/>
</g>
<!-- Node20&#45;&gt;Node6 -->
<g id="edge39" class="edge">
<title>Node20&#45;&gt;Node6</title>
<path fill="none" stroke="midnightblue" d="M745.72,-124.01C697.7,-112.25 624.07,-94.21 580.2,-83.46"/>
<polygon fill="midnightblue" stroke="midnightblue" points="744.61,-127.58 755.15,-126.56 746.27,-120.79 744.61,-127.58"/>
</g>
<!-- Node20&#45;&gt;Node7 -->
<g id="edge40" class="edge">
<title>Node20&#45;&gt;Node7</title>
<path fill="none" stroke="midnightblue" d="M701.03,-130.23C550.98,-121.38 259.22,-103.21 156.62,-90 153.43,-89.59 150.16,-89.13 146.87,-88.64"/>
<polygon fill="midnightblue" stroke="midnightblue" points="700.39,-133.76 710.58,-130.85 700.81,-126.77 700.39,-133.76"/>
</g>
<!-- Node20&#45;&gt;Node9 -->
<g id="edge36" class="edge">
<title>Node20&#45;&gt;Node9</title>
<path fill="none" stroke="midnightblue" d="M839.79,-123.99C879.82,-114.22 937.56,-100.14 981.2,-89.49"/>
<polygon fill="midnightblue" stroke="midnightblue" points="839.13,-120.79 830.24,-126.56 840.79,-127.59 839.13,-120.79"/>
</g>
<!-- Node20&#45;&gt;Node11 -->
<g id="edge37" class="edge">
<title>Node20&#45;&gt;Node11</title>
<path fill="none" stroke="midnightblue" d="M884.25,-129.08C899.08,-128.05 914.28,-126.99 928.62,-126 1163.28,-109.8 1223.46,-120.99 1456.62,-90 1459.77,-89.58 1462.98,-89.11 1466.22,-88.61"/>
<polygon fill="midnightblue" stroke="midnightblue" points="884.26,-125.64 874.53,-129.83 884.75,-132.62 884.26,-125.64"/>
</g>
<!-- Node20&#45;&gt;Node13 -->
<g id="edge35" class="edge">
<title>Node20&#45;&gt;Node13</title>
<path fill="none" stroke="midnightblue" d="M884.31,-128.28C1006.95,-118.44 1217.87,-100.8 1294.62,-90 1297.74,-89.56 1300.93,-89.08 1304.14,-88.58"/>
<polygon fill="midnightblue" stroke="midnightblue" points="884.14,-124.86 874.45,-129.15 884.7,-131.84 884.14,-124.86"/>
</g>
<!-- Node21 -->
<g id="node21" class="node">
<title>Node21</title>
<g id="a_node21"><a xlink:href="_con_hex_scene_8h.html" target="_top" xlink:title=" ">
<polygon fill="none" stroke="black" points="799.5,-63.5 799.5,-83.5 955.75,-83.5 955.75,-63.5 799.5,-63.5"/>
<text text-anchor="middle" x="877.62" y="-70" font-family="Helvetica,sans-Serif" font-size="10.00">include/Scenes/ConHexScene.h</text>
</a>
</g>
</g>
<!-- Node20&#45;&gt;Node21 -->
<g id="edge30" class="edge">
<title>Node20&#45;&gt;Node21</title>
<path fill="none" stroke="midnightblue" d="M813.58,-120.46C829.78,-108.84 851.66,-93.14 865.19,-83.42"/>
<polygon fill="midnightblue" stroke="midnightblue" points="811.89,-118.09 805.8,-126.76 815.97,-123.77 811.89,-118.09"/>
</g>
<!-- Node22 -->
<g id="node22" class="node">
<title>Node22</title>
<g id="a_node22"><a xlink:href="_con_hex_wire_scene_8h.html" target="_top" xlink:title=" ">
<polygon fill="none" stroke="black" points="641.38,-57.5 641.38,-89.5 781.88,-89.5 781.88,-57.5 641.38,-57.5"/>
<text text-anchor="start" x="649.38" y="-76" font-family="Helvetica,sans-Serif" font-size="10.00">include/Scenes/ConHexWire</text>
<text text-anchor="middle" x="711.62" y="-64" font-family="Helvetica,sans-Serif" font-size="10.00">Scene.h</text>
</a>
</g>
</g>
<!-- Node20&#45;&gt;Node22 -->
<g id="edge32" class="edge">
<title>Node20&#45;&gt;Node22</title>
<path fill="none" stroke="midnightblue" d="M772.59,-120.42C760.02,-110.94 743.86,-98.78 731.34,-89.35"/>
<polygon fill="midnightblue" stroke="midnightblue" points="769.93,-123.54 780.02,-126.76 774.14,-117.95 769.93,-123.54"/>
</g>
<!-- Node23 -->
<g id="node23" class="node">
<title>Node23</title>
<g id="a_node23"><a xlink:href="_x_mutual_scene_8h.html" target="_top" xlink:title=" ">
<polygon fill="none" stroke="black" points="1129.5,-63.5 1129.5,-83.5 1285.75,-83.5 1285.75,-63.5 1129.5,-63.5"/>
<text text-anchor="middle" x="1207.62" y="-70" font-family="Helvetica,sans-Serif" font-size="10.00">include/Scenes/XMutualScene.h</text>
</a>
</g>
</g>
<!-- Node20&#45;&gt;Node23 -->
<g id="edge41" class="edge">
<title>Node20&#45;&gt;Node23</title>
<path fill="none" stroke="midnightblue" d="M873.94,-125.11C940.39,-116.4 1036.72,-103.29 1120.62,-90 1133.2,-88.01 1146.77,-85.68 1159.36,-83.44"/>
<polygon fill="midnightblue" stroke="midnightblue" points="873.58,-121.75 864.12,-126.52 874.49,-128.69 873.58,-121.75"/>
</g>
<!-- Node21&#45;&gt;Node4 -->
<g id="edge31" class="edge">
<title>Node21&#45;&gt;Node4</title>
<path fill="none" stroke="midnightblue" d="M898.09,-57.46C913.9,-45.84 935.27,-30.14 948.49,-20.42"/>
<polygon fill="midnightblue" stroke="midnightblue" points="896.5,-55.02 890.52,-63.76 900.65,-60.66 896.5,-55.02"/>
</g>
<!-- Node22&#45;&gt;Node4 -->
<g id="edge33" class="edge">
<title>Node22&#45;&gt;Node4</title>
<path fill="none" stroke="midnightblue" d="M783.09,-54.99C829.23,-43.69 887.33,-29.46 924.23,-20.42"/>
<polygon fill="midnightblue" stroke="midnightblue" points="782.42,-51.8 773.54,-57.58 784.08,-58.6 782.42,-51.8"/>
</g>
<!-- Node23&#45;&gt;Node4 -->
<g id="edge42" class="edge">
<title>Node23&#45;&gt;Node4</title>
<path fill="none" stroke="midnightblue" d="M1160.8,-60.93C1113.16,-49.17 1040.33,-31.18 996.9,-20.46"/>
<polygon fill="midnightblue" stroke="midnightblue" points="1159.9,-64.56 1170.44,-63.56 1161.58,-57.77 1159.9,-64.56"/>
</g>
<!-- Node24&#45;&gt;Node3 -->
<g id="edge47" class="edge">
<title>Node24&#45;&gt;Node3</title>
<path fill="none" stroke="midnightblue" d="M927.39,-130C912.88,-128.6 897.15,-127.16 882.62,-126 626.94,-105.62 560.86,-124.04 306.62,-90 303.59,-89.59 300.5,-89.14 297.39,-88.64"/>
<polygon fill="midnightblue" stroke="midnightblue" points="926.91,-133.57 937.2,-131.07 927.59,-126.61 926.91,-133.57"/>
</g>
<!-- Node24&#45;&gt;Node5 -->
<g id="edge51" class="edge">
<title>Node24&#45;&gt;Node5</title>
<path fill="none" stroke="midnightblue" d="M927.37,-130.21C912.86,-128.81 897.14,-127.31 882.62,-126 692.51,-108.79 643.51,-117.62 454.62,-90 451.64,-89.56 448.59,-89.08 445.52,-88.56"/>
<polygon fill="midnightblue" stroke="midnightblue" points="926.89,-133.78 937.19,-131.27 927.57,-126.81 926.89,-133.78"/>
</g>
<!-- Node24&#45;&gt;Node6 -->
<g id="edge52" class="edge">
<title>Node24&#45;&gt;Node6</title>
<path fill="none" stroke="midnightblue" d="M927.04,-129.21C858.61,-121.01 736.62,-105.85 632.62,-90 619.76,-88.04 605.88,-85.72 592.99,-83.48"/>
<polygon fill="midnightblue" stroke="midnightblue" points="926.61,-132.8 936.95,-130.51 927.44,-125.85 926.61,-132.8"/>
</g>
<!-- Node24&#45;&gt;Node7 -->
<g id="edge53" class="edge">
<title>Node24&#45;&gt;Node7</title>
<path fill="none" stroke="midnightblue" d="M927.39,-129.88C912.89,-128.47 897.16,-127.06 882.62,-126 560.42,-102.41 477.48,-127.74 156.62,-90 153.42,-89.62 150.16,-89.2 146.86,-88.73"/>
<polygon fill="midnightblue" stroke="midnightblue" points="926.92,-133.45 937.21,-130.95 927.61,-126.48 926.92,-133.45"/>
</g>
<!-- Node24&#45;&gt;Node9 -->
<g id="edge49" class="edge">
<title>Node24&#45;&gt;Node9</title>
<path fill="none" stroke="midnightblue" d="M997.09,-119.3C1006.54,-110 1018.32,-98.41 1027.53,-89.35"/>
<polygon fill="midnightblue" stroke="midnightblue" points="995.18,-116.25 990.51,-125.76 1000.09,-121.24 995.18,-116.25"/>
</g>
<!-- Node24&#45;&gt;Node11 -->
<g id="edge50" class="edge">
<title>Node24&#45;&gt;Node11</title>
<path fill="none" stroke="midnightblue" d="M1034.29,-132.14C1122.65,-126.22 1304.21,-112.37 1456.62,-90 1459.77,-89.54 1462.97,-89.04 1466.21,-88.5"/>
<polygon fill="midnightblue" stroke="midnightblue" points="1034.21,-128.71 1024.47,-132.86 1034.68,-135.69 1034.21,-128.71"/>
</g>
<!-- Node24&#45;&gt;Node13 -->
<g id="edge48" class="edge">
<title>Node24&#45;&gt;Node13</title>
<path fill="none" stroke="midnightblue" d="M1034.17,-128.49C1096.76,-120.12 1203.41,-105.33 1294.62,-90 1297.73,-89.48 1300.9,-88.93 1304.1,-88.37"/>
<polygon fill="midnightblue" stroke="midnightblue" points="1033.83,-125.14 1024.38,-129.93 1034.76,-132.08 1033.83,-125.14"/>
</g>
<!-- Node24&#45;&gt;Node15 -->
<g id="edge44" class="edge">
<title>Node24&#45;&gt;Node15</title>
<path fill="none" stroke="midnightblue" d="M1033.91,-135.47C1143.28,-134.57 1400.67,-128.17 1612.62,-90 1621.4,-88.42 1630.79,-85.94 1639.2,-83.43"/>
<polygon fill="midnightblue" stroke="midnightblue" points="1034.15,-131.97 1024.17,-135.54 1034.19,-138.97 1034.15,-131.97"/>
</g>
<!-- Node24&#45;&gt;Node21 -->
<g id="edge45" class="edge">
<title>Node24&#45;&gt;Node21</title>
<path fill="none" stroke="midnightblue" d="M956.6,-121.27C936.85,-109.57 909.48,-93.36 892.69,-83.42"/>
<polygon fill="midnightblue" stroke="midnightblue" points="954.48,-124.68 964.87,-126.76 958.05,-118.65 954.48,-124.68"/>
</g>
<!-- Node24&#45;&gt;Node22 -->
<g id="edge46" class="edge">
<title>Node24&#45;&gt;Node22</title>
<path fill="none" stroke="midnightblue" d="M930.7,-124.18C887.59,-114.4 824.98,-100.2 777.72,-89.49"/>
<polygon fill="midnightblue" stroke="midnightblue" points="929.7,-127.77 940.22,-126.56 931.24,-120.94 929.7,-127.77"/>
</g>
<!-- Node24&#45;&gt;Node23 -->
<g id="edge54" class="edge">
<title>Node24&#45;&gt;Node23</title>
<path fill="none" stroke="midnightblue" d="M1024.24,-123.78C1068,-112.02 1134.46,-94.16 1174.21,-83.48"/>
<polygon fill="midnightblue" stroke="midnightblue" points="1023.38,-120.65 1014.63,-126.63 1025.2,-127.41 1023.38,-120.65"/>
</g>
<!-- Node25&#45;&gt;Node2 -->
<g id="edge58" class="edge">
<title>Node25&#45;&gt;Node2</title>
<path fill="none" stroke="midnightblue" d="M983.4,-244.66C930.13,-235.33 853.07,-220.76 786.62,-204 717.48,-186.56 637.66,-160.19 597.52,-146.49"/>
<polygon fill="midnightblue" stroke="midnightblue" points="982.61,-248.25 993.06,-246.51 983.81,-241.35 982.61,-248.25"/>
</g>
<!-- Node25&#45;&gt;Node8 -->
<g id="edge59" class="edge">
<title>Node25&#45;&gt;Node8</title>
<path fill="none" stroke="midnightblue" d="M1060.27,-237.73C1067.71,-226.39 1077.03,-212.19 1082.9,-203.22"/>
<polygon fill="midnightblue" stroke="midnightblue" points="1056.91,-235.48 1054.36,-245.76 1062.77,-239.32 1056.91,-235.48"/>
</g>
<!-- Node25&#45;&gt;Node10 -->
<g id="edge60" class="edge">
<title>Node25&#45;&gt;Node10</title>
<path fill="none" stroke="midnightblue" d="M1096.95,-244.28C1104.52,-242.72 1112.27,-241.23 1119.62,-240 1233.04,-221.07 1366.27,-207.37 1444.27,-200.2"/>
<polygon fill="midnightblue" stroke="midnightblue" points="1096.49,-241.01 1087.44,-246.52 1097.95,-247.86 1096.49,-241.01"/>
</g>
<!-- Node25&#45;&gt;Node12 -->
<g id="edge61" class="edge">
<title>Node25&#45;&gt;Node12</title>
<path fill="none" stroke="midnightblue" d="M1099.87,-244.3C1106.52,-242.85 1113.23,-241.39 1119.62,-240 1178.13,-227.28 1245.82,-212.62 1288.18,-203.46"/>
<polygon fill="midnightblue" stroke="midnightblue" points="1099.57,-241 1090.55,-246.55 1101.06,-247.84 1099.57,-241"/>
</g>
<!-- Node25&#45;&gt;Node26 -->
<g id="edge62" class="edge">
<title>Node25&#45;&gt;Node26</title>
<path fill="none" stroke="midnightblue" d="M1015.09,-242.87C983.87,-231.12 938.12,-213.89 910.47,-203.48"/>
<polygon fill="midnightblue" stroke="midnightblue" points="1013.48,-246.38 1024.07,-246.63 1015.94,-239.83 1013.48,-246.38"/>
</g>
<!-- Node25&#45;&gt;Node27 -->
<g id="edge65" class="edge">
<title>Node25&#45;&gt;Node27</title>
<path fill="none" stroke="midnightblue" d="M1081.94,-242.72C1112.57,-230.97 1157.2,-213.84 1184.22,-203.48"/>
<polygon fill="midnightblue" stroke="midnightblue" points="1080.83,-239.78 1072.74,-246.63 1083.34,-246.32 1080.83,-239.78"/>
</g>
<!-- Node26&#45;&gt;Node21 -->
<g id="edge63" class="edge">
<title>Node26&#45;&gt;Node21</title>
<path fill="none" stroke="midnightblue" d="M885.65,-173.23C884.94,-159.94 883.87,-141.89 882.62,-126 881.44,-110.95 879.66,-93.48 878.57,-83.24"/>
<polygon fill="midnightblue" stroke="midnightblue" points="882.19,-173.08 886.21,-182.88 889.18,-172.72 882.19,-173.08"/>
</g>
<!-- Node26&#45;&gt;Node22 -->
<g id="edge64" class="edge">
<title>Node26&#45;&gt;Node22</title>
<path fill="none" stroke="midnightblue" d="M802.19,-181.82C760.06,-174.57 715.39,-163.3 702.62,-147 689.72,-130.52 697.19,-105.17 704.13,-89.22"/>
<polygon fill="midnightblue" stroke="midnightblue" points="801.39,-185.4 811.83,-183.57 802.53,-178.49 801.39,-185.4"/>
</g>
<!-- Node27&#45;&gt;Node23 -->
<g id="edge66" class="edge">
<title>Node27&#45;&gt;Node23</title>
<path fill="none" stroke="midnightblue" d="M1207.62,-172.91C1207.62,-147.01 1207.62,-102.44 1207.62,-83.47"/>
<polygon fill="midnightblue" stroke="midnightblue" points="1204.13,-172.63 1207.62,-182.63 1211.13,-172.63 1204.13,-172.63"/>
</g>
<!-- Node28&#45;&gt;Node2 -->
<g id="edge68" class="edge">
<title>Node28&#45;&gt;Node2</title>
<path fill="none" stroke="midnightblue" d="M1149.61,-243.89C1114.05,-234.89 1065.54,-221.09 1024.62,-204 1006.82,-196.57 1005.02,-188.83 986.62,-183 951.39,-171.83 708.78,-149.57 611.68,-140.99"/>
<polygon fill="midnightblue" stroke="midnightblue" points="1148.65,-247.5 1159.2,-246.52 1150.34,-240.71 1148.65,-247.5"/>
</g>
<!-- Node28&#45;&gt;Node8 -->
<g id="edge69" class="edge">
<title>Node28&#45;&gt;Node8</title>
<path fill="none" stroke="midnightblue" d="M1174.31,-241.59C1152.99,-229.87 1123.11,-213.45 1104.86,-203.42"/>
<polygon fill="midnightblue" stroke="midnightblue" points="1172.27,-245.01 1182.72,-246.76 1175.64,-238.88 1172.27,-245.01"/>
</g>
<!-- Node28&#45;&gt;Node10 -->
<g id="edge70" class="edge">
<title>Node28&#45;&gt;Node10</title>
<path fill="none" stroke="midnightblue" d="M1255.96,-244.45C1315.86,-232.7 1409.46,-214.34 1464.95,-203.46"/>
<polygon fill="midnightblue" stroke="midnightblue" points="1255.32,-241.21 1246.18,-246.56 1256.67,-248.07 1255.32,-241.21"/>
</g>
<!-- Node28&#45;&gt;Node12 -->
<g id="edge71" class="edge">
<title>Node28&#45;&gt;Node12</title>
<path fill="none" stroke="midnightblue" d="M1228.22,-242.08C1253.29,-230.32 1289.03,-213.55 1310.7,-203.38"/>
<polygon fill="midnightblue" stroke="midnightblue" points="1227.09,-239.21 1219.53,-246.63 1230.07,-245.55 1227.09,-239.21"/>
</g>
<!-- Node28&#45;&gt;Node26 -->
<g id="edge72" class="edge">
<title>Node28&#45;&gt;Node26</title>
<path fill="none" stroke="midnightblue" d="M1143.39,-244.46C1135.74,-242.96 1127.99,-241.44 1120.62,-240 1055.43,-227.27 980.01,-212.61 932.8,-203.46"/>
<polygon fill="midnightblue" stroke="midnightblue" points="1142.61,-248.06 1153.09,-246.55 1143.95,-241.19 1142.61,-248.06"/>
</g>
<!-- Node28&#45;&gt;Node27 -->
<g id="edge73" class="edge">
<title>Node28&#45;&gt;Node27</title>
<path fill="none" stroke="midnightblue" d="M1202.18,-235.99C1203.63,-224.97 1205.36,-211.73 1206.48,-203.22"/>
<polygon fill="midnightblue" stroke="midnightblue" points="1198.6,-235.39 1200.77,-245.76 1205.54,-236.3 1198.6,-235.39"/>
</g>
<!-- Node30&#45;&gt;Node2 -->
<g id="edge78" class="edge">
<title>Node30&#45;&gt;Node2</title>
<path fill="none" stroke="midnightblue" d="M1416.37,-235.8C1415.83,-218.98 1412.05,-195.56 1396.62,-183 1336.74,-134.26 779.69,-151.79 702.62,-147 672.13,-145.1 637.67,-142.59 611.74,-140.62"/>
<polygon fill="midnightblue" stroke="midnightblue" points="1412.87,-235.62 1416.31,-245.64 1419.87,-235.66 1412.87,-235.62"/>
</g>
<!-- Node30&#45;&gt;Node8 -->
<g id="edge79" class="edge">
<title>Node30&#45;&gt;Node8</title>
<path fill="none" stroke="midnightblue" d="M1357.18,-244.6C1294.23,-232.85 1195.24,-214.39 1136.65,-203.46"/>
<polygon fill="midnightblue" stroke="midnightblue" points="1356.25,-248.17 1366.73,-246.56 1357.54,-241.29 1356.25,-248.17"/>
</g>
<!-- Node30&#45;&gt;Node10 -->
<g id="edge80" class="edge">
<title>Node30&#45;&gt;Node10</title>
<path fill="none" stroke="midnightblue" d="M1438.04,-241.11C1456.23,-229.43 1481.32,-213.32 1496.73,-203.42"/>
<polygon fill="midnightblue" stroke="midnightblue" points="1436.76,-238.41 1430.24,-246.76 1440.54,-244.3 1436.76,-238.41"/>
</g>
<!-- Node30&#45;&gt;Node12 -->
<g id="edge81" class="edge">
<title>Node30&#45;&gt;Node12</title>
<path fill="none" stroke="midnightblue" d="M1394.42,-240.46C1378.03,-228.84 1355.9,-213.14 1342.2,-203.42"/>
<polygon fill="midnightblue" stroke="midnightblue" points="1392.12,-243.83 1402.3,-246.76 1396.17,-238.12 1392.12,-243.83"/>
</g>
<!-- Node30&#45;&gt;Node14 -->
<g id="edge82" class="edge">
<title>Node30&#45;&gt;Node14</title>
<path fill="none" stroke="midnightblue" d="M1460.01,-243.93C1505.12,-232.17 1574.03,-214.21 1615.18,-203.48"/>
<polygon fill="midnightblue" stroke="midnightblue" points="1459.44,-240.72 1450.65,-246.63 1461.21,-247.49 1459.44,-240.72"/>
</g>
</g>
</svg>
