<?xml version="1.0" encoding="UTF-8" standalone="no"?>
<!DOCTYPE svg PUBLIC "-//W3C//DTD SVG 1.1//EN"
 "http://www.w3.org/Graphics/SVG/1.1/DTD/svg11.dtd">
<!-- Generated by graphviz version 8.1.0 (20230707.0739)
 -->
<!-- Title: include/Scenes/VertexWaveScene.h Pages: 1 -->
<svg width="1478pt" height="566pt"
 viewBox="0.00 0.00 1478.00 566.00" xmlns="http://www.w3.org/2000/svg" xmlns:xlink="http://www.w3.org/1999/xlink">
<g id="graph0" class="graph" transform="scale(1 1) rotate(0) translate(4 562)">
<title>include/Scenes/VertexWaveScene.h</title>
<!-- Node1 -->
<g id="node1" class="node">
<title>Node1</title>
<g id="a_node1"><a xlink:title=" ">
<polygon fill="#bfbfbf" stroke="black" points="581.88,-525.5 581.88,-557.5 720.12,-557.5 720.12,-525.5 581.88,-525.5"/>
<text text-anchor="start" x="589.88" y="-544" font-family="Helvetica,sans-Serif" font-size="10.00">include/Scenes/VertexWave</text>
<text text-anchor="middle" x="651" y="-532" font-family="Helvetica,sans-Serif" font-size="10.00">Scene.h</text>
</a>
</g>
</g>
<!-- Node2 -->
<g id="node2" class="node">
<title>Node2</title>
<g id="a_node2"><a xlink:href="_scene_8h.html" target="_top" xlink:title=" ">
<polygon fill="none" stroke="black" points="1278,-342.5 1278,-362.5 1330,-362.5 1330,-342.5 1278,-342.5"/>
<text text-anchor="middle" x="1304" y="-349" font-family="Helvetica,sans-Serif" font-size="10.00">Scene.h</text>
</a>
</g>
</g>
<!-- Node1&#45;&gt;Node2 -->
<g id="edge1" class="edge">
<title>Node1&#45;&gt;Node2</title>
<path fill="none" stroke="midnightblue" d="M708.23,-525.53C746.45,-515.44 797.81,-501.7 843,-489 1001.77,-444.38 1190.26,-387.86 1267.87,-364.44"/>
<polygon fill="midnightblue" stroke="midnightblue" points="1268.51,-367.6 1277.07,-361.36 1266.48,-360.9 1268.51,-367.6"/>
</g>
<!-- Node15 -->
<g id="node15" class="node">
<title>Node15</title>
<g id="a_node15"><a xlink:href="_matrix3_8h.html" target="_top" xlink:title=" ">
<polygon fill="none" stroke="black" points="1000.75,-57.5 1000.75,-77.5 1057.25,-77.5 1057.25,-57.5 1000.75,-57.5"/>
<text text-anchor="middle" x="1029" y="-64" font-family="Helvetica,sans-Serif" font-size="10.00">Matrix3.h</text>
</a>
</g>
</g>
<!-- Node1&#45;&gt;Node15 -->
<g id="edge70" class="edge">
<title>Node1&#45;&gt;Node15</title>
<path fill="none" stroke="midnightblue" d="M581.95,-541.14C414.41,-540.84 0,-528.2 0,-410.5 0,-410.5 0,-410.5 0,-180.5 0,-134.94 35.59,-130.62 78,-114 168.7,-78.45 856.92,-86.13 954,-78 965.79,-77.01 978.59,-75.54 990.21,-74.05"/>
<polygon fill="midnightblue" stroke="midnightblue" points="990.47,-77.41 999.92,-72.63 989.55,-70.48 990.47,-77.41"/>
</g>
<!-- Node35 -->
<g id="node33" class="node">
<title>Node35</title>
<g id="a_node33"><a xlink:href="_plane_8h.html" target="_top" xlink:title=" ">
<polygon fill="none" stroke="black" points="904,-285.5 904,-305.5 998,-305.5 998,-285.5 904,-285.5"/>
<text text-anchor="middle" x="951" y="-292" font-family="Helvetica,sans-Serif" font-size="10.00">Primitives/Plane.h</text>
</a>
</g>
</g>
<!-- Node1&#45;&gt;Node35 -->
<g id="edge50" class="edge">
<title>Node1&#45;&gt;Node35</title>
<path fill="none" stroke="midnightblue" d="M669.31,-525.6C722.59,-482.27 877.16,-356.56 931.68,-312.21"/>
<polygon fill="midnightblue" stroke="midnightblue" points="933.55,-314.39 939.1,-305.36 929.14,-308.96 933.55,-314.39"/>
</g>
<!-- Node47 -->
<g id="node45" class="node">
<title>Node47</title>
<g id="a_node45"><a xlink:href="_wave_vertex_texture_effect_8h.html" target="_top" xlink:title=" ">
<polygon fill="none" stroke="black" points="529.12,-456.5 529.12,-488.5 662.88,-488.5 662.88,-456.5 529.12,-456.5"/>
<text text-anchor="start" x="537.12" y="-475" font-family="Helvetica,sans-Serif" font-size="10.00">Effects/WaveVertexTexture</text>
<text text-anchor="middle" x="596" y="-463" font-family="Helvetica,sans-Serif" font-size="10.00">Effect.h</text>
</a>
</g>
</g>
<!-- Node1&#45;&gt;Node47 -->
<g id="edge71" class="edge">
<title>Node1&#45;&gt;Node47</title>
<path fill="none" stroke="midnightblue" d="M638.79,-525.63C631.82,-517.13 622.91,-506.28 615.03,-496.69"/>
<polygon fill="midnightblue" stroke="midnightblue" points="617.22,-494.84 608.17,-489.33 611.81,-499.28 617.22,-494.84"/>
</g>
<!-- Node3 -->
<g id="node3" class="node">
<title>Node3</title>
<g id="a_node3"><a xlink:href="_keyboard_8h.html" target="_top" xlink:title=" ">
<polygon fill="none" stroke="black" points="1404.25,-285.5 1404.25,-305.5 1469.75,-305.5 1469.75,-285.5 1404.25,-285.5"/>
<text text-anchor="middle" x="1437" y="-292" font-family="Helvetica,sans-Serif" font-size="10.00">Keyboard.h</text>
</a>
</g>
</g>
<!-- Node2&#45;&gt;Node3 -->
<g id="edge2" class="edge">
<title>Node2&#45;&gt;Node3</title>
<path fill="none" stroke="midnightblue" d="M1325.66,-342.54C1347.31,-333.59 1380.8,-319.74 1405.41,-309.57"/>
<polygon fill="midnightblue" stroke="midnightblue" points="1406.44,-312.51 1414.34,-305.46 1403.77,-306.04 1406.44,-312.51"/>
</g>
<!-- Node6 -->
<g id="node6" class="node">
<title>Node6</title>
<g id="a_node6"><a xlink:href="_mouse_8h.html" target="_top" xlink:title=" ">
<polygon fill="none" stroke="black" points="1332.25,-285.5 1332.25,-305.5 1385.75,-305.5 1385.75,-285.5 1332.25,-285.5"/>
<text text-anchor="middle" x="1359" y="-292" font-family="Helvetica,sans-Serif" font-size="10.00">Mouse.h</text>
</a>
</g>
</g>
<!-- Node2&#45;&gt;Node6 -->
<g id="edge5" class="edge">
<title>Node2&#45;&gt;Node6</title>
<path fill="none" stroke="midnightblue" d="M1312.59,-342.91C1320.62,-334.88 1332.81,-322.69 1342.68,-312.82"/>
<polygon fill="midnightblue" stroke="midnightblue" points="1344.69,-315.76 1349.29,-306.21 1339.74,-310.81 1344.69,-315.76"/>
</g>
<!-- Node19 -->
<g id="node19" class="node">
<title>Node19</title>
<g id="a_node19"><a xlink:href="_graphics_8h.html" target="_top" xlink:title=" ">
<polygon fill="none" stroke="black" points="699.38,-285.5 699.38,-305.5 762.62,-305.5 762.62,-285.5 699.38,-285.5"/>
<text text-anchor="middle" x="731" y="-292" font-family="Helvetica,sans-Serif" font-size="10.00">Graphics.h</text>
</a>
</g>
</g>
<!-- Node2&#45;&gt;Node19 -->
<g id="edge25" class="edge">
<title>Node2&#45;&gt;Node19</title>
<path fill="none" stroke="midnightblue" d="M1278.27,-349.03C1188.05,-340.37 885.54,-311.33 773.34,-300.56"/>
<polygon fill="midnightblue" stroke="midnightblue" points="773.76,-296.99 763.47,-299.52 773.09,-303.96 773.76,-296.99"/>
</g>
<!-- Node21 -->
<g id="node21" class="node">
<title>Node21</title>
<g id="a_node21"><a xlink:title=" ">
<polygon fill="none" stroke="#bfbfbf" points="1051,-114.5 1051,-134.5 1091,-134.5 1091,-114.5 1051,-114.5"/>
<text text-anchor="middle" x="1071" y="-121" font-family="Helvetica,sans-Serif" font-size="10.00">string</text>
</a>
</g>
</g>
<!-- Node2&#45;&gt;Node21 -->
<g id="edge49" class="edge">
<title>Node2&#45;&gt;Node21</title>
<path fill="none" stroke="midnightblue" d="M1301.94,-342.88C1294.62,-314.07 1267.11,-220.19 1209,-171 1208.73,-170.77 1141.65,-148.71 1101.13,-135.4"/>
<polygon fill="midnightblue" stroke="midnightblue" points="1102.31,-131.77 1091.72,-131.98 1100.13,-138.42 1102.31,-131.77"/>
</g>
<!-- Node4 -->
<g id="node4" class="node">
<title>Node4</title>
<g id="a_node4"><a xlink:title=" ">
<polygon fill="none" stroke="#bfbfbf" points="1430,-228.5 1430,-248.5 1470,-248.5 1470,-228.5 1430,-228.5"/>
<text text-anchor="middle" x="1450" y="-235" font-family="Helvetica,sans-Serif" font-size="10.00">bitset</text>
</a>
</g>
</g>
<!-- Node3&#45;&gt;Node4 -->
<g id="edge3" class="edge">
<title>Node3&#45;&gt;Node4</title>
<path fill="none" stroke="midnightblue" d="M1439.03,-285.91C1440.74,-278.68 1443.24,-268.09 1445.43,-258.85"/>
<polygon fill="midnightblue" stroke="midnightblue" points="1449.05,-259.75 1447.94,-249.21 1442.23,-258.14 1449.05,-259.75"/>
</g>
<!-- Node5 -->
<g id="node5" class="node">
<title>Node5</title>
<g id="a_node5"><a xlink:title=" ">
<polygon fill="none" stroke="#bfbfbf" points="1369.88,-228.5 1369.88,-248.5 1412.12,-248.5 1412.12,-228.5 1369.88,-228.5"/>
<text text-anchor="middle" x="1391" y="-235" font-family="Helvetica,sans-Serif" font-size="10.00">queue</text>
</a>
</g>
</g>
<!-- Node3&#45;&gt;Node5 -->
<g id="edge4" class="edge">
<title>Node3&#45;&gt;Node5</title>
<path fill="none" stroke="midnightblue" d="M1429.81,-285.91C1423.23,-278.04 1413.31,-266.18 1405.15,-256.42"/>
<polygon fill="midnightblue" stroke="midnightblue" points="1407.39,-254.64 1398.29,-249.21 1402.02,-259.13 1407.39,-254.64"/>
</g>
<!-- Node6&#45;&gt;Node5 -->
<g id="edge24" class="edge">
<title>Node6&#45;&gt;Node5</title>
<path fill="none" stroke="midnightblue" d="M1364,-285.91C1368.39,-278.36 1374.92,-267.14 1380.46,-257.62"/>
<polygon fill="midnightblue" stroke="midnightblue" points="1383.93,-259.62 1385.93,-249.21 1377.88,-256.1 1383.93,-259.62"/>
</g>
<!-- Node7 -->
<g id="node7" class="node">
<title>Node7</title>
<g id="a_node7"><a xlink:href="_vector2_8h.html" target="_top" xlink:title=" ">
<polygon fill="none" stroke="black" points="1248.88,-114.5 1248.88,-134.5 1369.12,-134.5 1369.12,-114.5 1248.88,-114.5"/>
<text text-anchor="middle" x="1309" y="-121" font-family="Helvetica,sans-Serif" font-size="10.00">LinearAlgebra/Vector2.h</text>
</a>
</g>
</g>
<!-- Node6&#45;&gt;Node7 -->
<g id="edge6" class="edge">
<title>Node6&#45;&gt;Node7</title>
<path fill="none" stroke="midnightblue" d="M1356.45,-285.89C1348.73,-259.79 1325.46,-181.14 1314.64,-144.57"/>
<polygon fill="midnightblue" stroke="midnightblue" points="1317.8,-143.89 1311.6,-135.3 1311.08,-145.88 1317.8,-143.89"/>
</g>
<!-- Node8 -->
<g id="node8" class="node">
<title>Node8</title>
<g id="a_node8"><a xlink:href="_math_8h.html" target="_top" xlink:title=" ">
<polygon fill="none" stroke="black" points="881,-57.5 881,-77.5 927,-77.5 927,-57.5 881,-57.5"/>
<text text-anchor="middle" x="904" y="-64" font-family="Helvetica,sans-Serif" font-size="10.00">Math.h</text>
</a>
</g>
</g>
<!-- Node7&#45;&gt;Node8 -->
<g id="edge7" class="edge">
<title>Node7&#45;&gt;Node8</title>
<path fill="none" stroke="midnightblue" d="M1249.24,-115.38C1162.74,-103.64 1005.54,-82.29 937.21,-73.01"/>
<polygon fill="midnightblue" stroke="midnightblue" points="938.03,-69.45 927.65,-71.58 937.08,-76.39 938.03,-69.45"/>
</g>
<!-- Node13 -->
<g id="node13" class="node">
<title>Node13</title>
<g id="a_node13"><a xlink:href="_matrix2_8h.html" target="_top" xlink:title=" ">
<polygon fill="none" stroke="black" points="1374.75,-57.5 1374.75,-77.5 1431.25,-77.5 1431.25,-57.5 1374.75,-57.5"/>
<text text-anchor="middle" x="1403" y="-64" font-family="Helvetica,sans-Serif" font-size="10.00">Matrix2.h</text>
</a>
</g>
</g>
<!-- Node7&#45;&gt;Node13 -->
<g id="edge13" class="edge">
<title>Node7&#45;&gt;Node13</title>
<path fill="none" stroke="midnightblue" d="M1324.1,-114.66C1338.68,-106.13 1361.01,-93.07 1378.19,-83.01"/>
<polygon fill="midnightblue" stroke="midnightblue" points="1379.76,-85.57 1386.62,-77.5 1376.22,-79.53 1379.76,-85.57"/>
</g>
<!-- Node14 -->
<g id="node14" class="node">
<title>Node14</title>
<g id="a_node14"><a xlink:title=" ">
<polygon fill="none" stroke="#bfbfbf" points="1225.25,-0.5 1225.25,-20.5 1278.75,-20.5 1278.75,-0.5 1225.25,-0.5"/>
<text text-anchor="middle" x="1252" y="-7" font-family="Helvetica,sans-Serif" font-size="10.00">iostream</text>
</a>
</g>
</g>
<!-- Node7&#45;&gt;Node14 -->
<g id="edge23" class="edge">
<title>Node7&#45;&gt;Node14</title>
<path fill="none" stroke="midnightblue" d="M1314.42,-114.77C1321.88,-101.5 1333.3,-75.84 1323,-57 1315.26,-42.84 1301.01,-32.44 1287.31,-25.18"/>
<polygon fill="midnightblue" stroke="midnightblue" points="1289.05,-21.65 1278.52,-20.45 1286,-27.95 1289.05,-21.65"/>
</g>
<!-- Node7&#45;&gt;Node15 -->
<g id="edge15" class="edge">
<title>Node7&#45;&gt;Node15</title>
<path fill="none" stroke="midnightblue" d="M1263.39,-114.54C1208.96,-103.85 1118.91,-86.16 1067.72,-76.11"/>
<polygon fill="midnightblue" stroke="midnightblue" points="1068.6,-72.51 1058.11,-74.02 1067.25,-79.38 1068.6,-72.51"/>
</g>
<!-- Node16 -->
<g id="node16" class="node">
<title>Node16</title>
<g id="a_node16"><a xlink:title=" ">
<polygon fill="none" stroke="#bfbfbf" points="1089.12,-0.5 1089.12,-20.5 1126.88,-20.5 1126.88,-0.5 1089.12,-0.5"/>
<text text-anchor="middle" x="1108" y="-7" font-family="Helvetica,sans-Serif" font-size="10.00">array</text>
</a>
</g>
</g>
<!-- Node7&#45;&gt;Node16 -->
<g id="edge20" class="edge">
<title>Node7&#45;&gt;Node16</title>
<path fill="none" stroke="midnightblue" d="M1308.39,-114.75C1306.91,-100.51 1301.89,-72.36 1285,-57 1243.77,-19.5 1175.78,-12.04 1137.17,-11.05"/>
<polygon fill="midnightblue" stroke="midnightblue" points="1137.69,-7.55 1127.65,-10.92 1137.61,-14.54 1137.69,-7.55"/>
</g>
<!-- Node17 -->
<g id="node17" class="node">
<title>Node17</title>
<g id="a_node17"><a xlink:title=" ">
<polygon fill="none" stroke="#bfbfbf" points="1007.25,-0.5 1007.25,-20.5 1054.75,-20.5 1054.75,-0.5 1007.25,-0.5"/>
<text text-anchor="middle" x="1031" y="-7" font-family="Helvetica,sans-Serif" font-size="10.00">cstddef</text>
</a>
</g>
</g>
<!-- Node7&#45;&gt;Node17 -->
<g id="edge22" class="edge">
<title>Node7&#45;&gt;Node17</title>
<path fill="none" stroke="midnightblue" d="M1304.01,-114.52C1295.41,-99.96 1276.37,-71.36 1252,-57 1247.96,-54.62 1126.2,-30.32 1065.18,-18.24"/>
<polygon fill="midnightblue" stroke="midnightblue" points="1066.02,-14.64 1055.53,-16.14 1064.66,-21.51 1066.02,-14.64"/>
</g>
<!-- Node18 -->
<g id="node18" class="node">
<title>Node18</title>
<g id="a_node18"><a xlink:title=" ">
<polygon fill="none" stroke="#bfbfbf" points="1189.25,-57.5 1189.25,-77.5 1242.75,-77.5 1242.75,-57.5 1189.25,-57.5"/>
<text text-anchor="middle" x="1216" y="-64" font-family="Helvetica,sans-Serif" font-size="10.00">compare</text>
</a>
</g>
</g>
<!-- Node7&#45;&gt;Node18 -->
<g id="edge21" class="edge">
<title>Node7&#45;&gt;Node18</title>
<path fill="none" stroke="midnightblue" d="M1294.06,-114.66C1279.64,-106.13 1257.55,-93.07 1240.54,-83.01"/>
<polygon fill="midnightblue" stroke="midnightblue" points="1242.6,-79.58 1232.21,-77.5 1239.04,-85.6 1242.6,-79.58"/>
</g>
<!-- Node8&#45;&gt;Node8 -->
<g id="edge8" class="edge">
<title>Node8&#45;&gt;Node8</title>
<path fill="none" stroke="midnightblue" d="M922.55,-77.43C934.05,-79.83 945,-76.52 945,-67.5 945,-61.44 940.06,-57.96 933.33,-57.05"/>
<polygon fill="midnightblue" stroke="midnightblue" points="933.37,-53.59 923.55,-57.57 933.71,-60.59 933.37,-53.59"/>
</g>
<!-- Node9 -->
<g id="node9" class="node">
<title>Node9</title>
<g id="a_node9"><a xlink:title=" ">
<polygon fill="none" stroke="#bfbfbf" points="946.5,-0.5 946.5,-20.5 989.5,-20.5 989.5,-0.5 946.5,-0.5"/>
<text text-anchor="middle" x="968" y="-7" font-family="Helvetica,sans-Serif" font-size="10.00">cmath</text>
</a>
</g>
</g>
<!-- Node8&#45;&gt;Node9 -->
<g id="edge9" class="edge">
<title>Node8&#45;&gt;Node9</title>
<path fill="none" stroke="midnightblue" d="M914.28,-57.66C923.74,-49.53 938,-37.28 949.45,-27.44"/>
<polygon fill="midnightblue" stroke="midnightblue" points="951.23,-29.67 956.53,-20.5 946.66,-24.36 951.23,-29.67"/>
</g>
<!-- Node10 -->
<g id="node10" class="node">
<title>Node10</title>
<g id="a_node10"><a xlink:title=" ">
<polygon fill="none" stroke="#bfbfbf" points="223.38,-0.5 223.38,-20.5 262.62,-20.5 262.62,-0.5 223.38,-0.5"/>
<text text-anchor="middle" x="243" y="-7" font-family="Helvetica,sans-Serif" font-size="10.00">limits</text>
</a>
</g>
</g>
<!-- Node8&#45;&gt;Node10 -->
<g id="edge10" class="edge">
<title>Node8&#45;&gt;Node10</title>
<path fill="none" stroke="midnightblue" d="M881.25,-64.61C781.93,-56.34 386.29,-23.42 273.29,-14.02"/>
<polygon fill="midnightblue" stroke="midnightblue" points="273.63,-10.45 263.38,-13.11 273.05,-17.43 273.63,-10.45"/>
</g>
<!-- Node11 -->
<g id="node11" class="node">
<title>Node11</title>
<g id="a_node11"><a xlink:title=" ">
<polygon fill="none" stroke="#bfbfbf" points="808.25,-0.5 808.25,-20.5 861.75,-20.5 861.75,-0.5 808.25,-0.5"/>
<text text-anchor="middle" x="835" y="-7" font-family="Helvetica,sans-Serif" font-size="10.00">numbers</text>
</a>
</g>
</g>
<!-- Node8&#45;&gt;Node11 -->
<g id="edge11" class="edge">
<title>Node8&#45;&gt;Node11</title>
<path fill="none" stroke="midnightblue" d="M892.91,-57.66C882.61,-49.45 867.04,-37.04 854.64,-27.15"/>
<polygon fill="midnightblue" stroke="midnightblue" points="857.29,-23.99 847.29,-20.5 852.93,-29.47 857.29,-23.99"/>
</g>
<!-- Node12 -->
<g id="node12" class="node">
<title>Node12</title>
<g id="a_node12"><a xlink:title=" ">
<polygon fill="none" stroke="#bfbfbf" points="879.88,-0.5 879.88,-20.5 928.12,-20.5 928.12,-0.5 879.88,-0.5"/>
<text text-anchor="middle" x="904" y="-7" font-family="Helvetica,sans-Serif" font-size="10.00">random</text>
</a>
</g>
</g>
<!-- Node8&#45;&gt;Node12 -->
<g id="edge12" class="edge">
<title>Node8&#45;&gt;Node12</title>
<path fill="none" stroke="midnightblue" d="M904,-57.91C904,-50.76 904,-40.32 904,-31.15"/>
<polygon fill="midnightblue" stroke="midnightblue" points="907.5,-31.21 904,-21.21 900.5,-31.21 907.5,-31.21"/>
</g>
<!-- Node13&#45;&gt;Node14 -->
<g id="edge14" class="edge">
<title>Node13&#45;&gt;Node14</title>
<path fill="none" stroke="midnightblue" d="M1378.4,-57.54C1353.5,-48.47 1314.78,-34.37 1286.75,-24.16"/>
<polygon fill="midnightblue" stroke="midnightblue" points="1288.18,-20.59 1277.59,-20.46 1285.78,-27.17 1288.18,-20.59"/>
</g>
<!-- Node15&#45;&gt;Node9 -->
<g id="edge17" class="edge">
<title>Node15&#45;&gt;Node9</title>
<path fill="none" stroke="midnightblue" d="M1019.2,-57.66C1010.27,-49.61 996.86,-37.52 986,-27.73"/>
<polygon fill="midnightblue" stroke="midnightblue" points="988.75,-25.59 978.98,-21.5 984.06,-30.79 988.75,-25.59"/>
</g>
<!-- Node15&#45;&gt;Node14 -->
<g id="edge19" class="edge">
<title>Node15&#45;&gt;Node14</title>
<path fill="none" stroke="midnightblue" d="M1057.24,-59.53C1097.22,-49.67 1170.37,-31.63 1214.75,-20.69"/>
<polygon fill="midnightblue" stroke="midnightblue" points="1215.5,-23.86 1224.37,-18.07 1213.83,-17.06 1215.5,-23.86"/>
</g>
<!-- Node15&#45;&gt;Node16 -->
<g id="edge16" class="edge">
<title>Node15&#45;&gt;Node16</title>
<path fill="none" stroke="midnightblue" d="M1041.69,-57.66C1053.71,-49.29 1072.01,-36.56 1086.34,-26.58"/>
<polygon fill="midnightblue" stroke="midnightblue" points="1087.87,-29.08 1094.08,-20.5 1083.87,-23.34 1087.87,-29.08"/>
</g>
<!-- Node15&#45;&gt;Node17 -->
<g id="edge18" class="edge">
<title>Node15&#45;&gt;Node17</title>
<path fill="none" stroke="midnightblue" d="M1029.31,-57.91C1029.57,-50.76 1029.95,-40.32 1030.29,-31.15"/>
<polygon fill="midnightblue" stroke="midnightblue" points="1033.82,-31.34 1030.68,-21.21 1026.82,-31.08 1033.82,-31.34"/>
</g>
<!-- Node20 -->
<g id="node20" class="node">
<title>Node20</title>
<g id="a_node20"><a xlink:href="_engine_exception_8h.html" target="_top" xlink:title=" ">
<polygon fill="none" stroke="black" points="1102.12,-171.5 1102.12,-191.5 1199.88,-191.5 1199.88,-171.5 1102.12,-171.5"/>
<text text-anchor="middle" x="1151" y="-178" font-family="Helvetica,sans-Serif" font-size="10.00">EngineException.h</text>
</a>
</g>
</g>
<!-- Node19&#45;&gt;Node20 -->
<g id="edge26" class="edge">
<title>Node19&#45;&gt;Node20</title>
<path fill="none" stroke="midnightblue" d="M762.53,-287.98C801.9,-279.68 871.24,-264.54 930,-249 994.81,-231.86 1069.31,-208.72 1113.15,-194.74"/>
<polygon fill="midnightblue" stroke="midnightblue" points="1114.15,-197.78 1122.61,-191.39 1112.02,-191.11 1114.15,-197.78"/>
</g>
<!-- Node23 -->
<g id="node23" class="node">
<title>Node23</title>
<g id="a_node23"><a xlink:href="_vector3_8h.html" target="_top" xlink:title=" ">
<polygon fill="none" stroke="black" points="912.88,-114.5 912.88,-134.5 1033.12,-134.5 1033.12,-114.5 912.88,-114.5"/>
<text text-anchor="middle" x="973" y="-121" font-family="Helvetica,sans-Serif" font-size="10.00">LinearAlgebra/Vector3.h</text>
</a>
</g>
</g>
<!-- Node19&#45;&gt;Node23 -->
<g id="edge29" class="edge">
<title>Node19&#45;&gt;Node23</title>
<path fill="none" stroke="midnightblue" d="M739.05,-285.57C749.44,-272.9 765.38,-248.92 758,-228 748.55,-201.19 710.84,-192.86 729,-171 750.7,-144.88 838.19,-133.67 902.22,-128.92"/>
<polygon fill="midnightblue" stroke="midnightblue" points="902.35,-132.35 912.08,-128.16 901.86,-125.37 902.35,-132.35"/>
</g>
<!-- Node24 -->
<g id="node24" class="node">
<title>Node24</title>
<g id="a_node24"><a xlink:href="_g_d_i_plus_manager_8h.html" target="_top" xlink:title=" ">
<polygon fill="none" stroke="black" points="597.12,-228.5 597.12,-248.5 694.88,-248.5 694.88,-228.5 597.12,-228.5"/>
<text text-anchor="middle" x="646" y="-235" font-family="Helvetica,sans-Serif" font-size="10.00">GDIPlusManager.h</text>
</a>
</g>
</g>
<!-- Node19&#45;&gt;Node24 -->
<g id="edge36" class="edge">
<title>Node19&#45;&gt;Node24</title>
<path fill="none" stroke="midnightblue" d="M717.34,-285.66C704.29,-277.21 684.35,-264.31 668.87,-254.3"/>
<polygon fill="midnightblue" stroke="midnightblue" points="671.2,-250.99 660.91,-248.5 667.4,-256.87 671.2,-250.99"/>
</g>
<!-- Node28 -->
<g id="node26" class="node">
<title>Node28</title>
<g id="a_node26"><a xlink:href="_surface_8h.html" target="_top" xlink:title=" ">
<polygon fill="none" stroke="black" points="863.38,-228.5 863.38,-248.5 920.62,-248.5 920.62,-228.5 863.38,-228.5"/>
<text text-anchor="middle" x="892" y="-235" font-family="Helvetica,sans-Serif" font-size="10.00">Surface.h</text>
</a>
</g>
</g>
<!-- Node19&#45;&gt;Node28 -->
<g id="edge38" class="edge">
<title>Node19&#45;&gt;Node28</title>
<path fill="none" stroke="midnightblue" d="M757.23,-285.54C784.01,-276.39 825.79,-262.12 855.73,-251.89"/>
<polygon fill="midnightblue" stroke="midnightblue" points="856.45,-255 864.79,-248.46 854.19,-248.38 856.45,-255"/>
</g>
<!-- Node33 -->
<g id="node31" class="node">
<title>Node33</title>
<g id="a_node31"><a xlink:title=" ">
<polygon fill="none" stroke="#bfbfbf" points="528.75,-228.5 528.75,-248.5 579.25,-248.5 579.25,-228.5 528.75,-228.5"/>
<text text-anchor="middle" x="554" y="-235" font-family="Helvetica,sans-Serif" font-size="10.00">d3d11.h</text>
</a>
</g>
</g>
<!-- Node19&#45;&gt;Node33 -->
<g id="edge47" class="edge">
<title>Node19&#45;&gt;Node33</title>
<path fill="none" stroke="midnightblue" d="M702.17,-285.54C671.32,-275.96 622.36,-260.74 589.25,-250.45"/>
<polygon fill="midnightblue" stroke="midnightblue" points="590.68,-246.92 580.09,-247.3 588.61,-253.61 590.68,-246.92"/>
</g>
<!-- Node34 -->
<g id="node32" class="node">
<title>Node34</title>
<g id="a_node32"><a xlink:title=" ">
<polygon fill="none" stroke="#bfbfbf" points="712.88,-228.5 712.88,-248.5 749.12,-248.5 749.12,-228.5 712.88,-228.5"/>
<text text-anchor="middle" x="731" y="-235" font-family="Helvetica,sans-Serif" font-size="10.00">wrl.h</text>
</a>
</g>
</g>
<!-- Node19&#45;&gt;Node34 -->
<g id="edge48" class="edge">
<title>Node19&#45;&gt;Node34</title>
<path fill="none" stroke="midnightblue" d="M731,-285.91C731,-278.76 731,-268.32 731,-259.15"/>
<polygon fill="midnightblue" stroke="midnightblue" points="734.5,-259.21 731,-249.21 727.5,-259.21 734.5,-259.21"/>
</g>
<!-- Node20&#45;&gt;Node21 -->
<g id="edge27" class="edge">
<title>Node20&#45;&gt;Node21</title>
<path fill="none" stroke="midnightblue" d="M1138.15,-171.66C1125.97,-163.29 1107.45,-150.56 1092.94,-140.58"/>
<polygon fill="midnightblue" stroke="midnightblue" points="1095.31,-137.28 1085.09,-134.5 1091.34,-143.05 1095.31,-137.28"/>
</g>
<!-- Node22 -->
<g id="node22" class="node">
<title>Node22</title>
<g id="a_node22"><a xlink:title=" ">
<polygon fill="none" stroke="#bfbfbf" points="1108.88,-114.5 1108.88,-134.5 1193.12,-134.5 1193.12,-114.5 1108.88,-114.5"/>
<text text-anchor="middle" x="1151" y="-121" font-family="Helvetica,sans-Serif" font-size="10.00">source_location</text>
</a>
</g>
</g>
<!-- Node20&#45;&gt;Node22 -->
<g id="edge28" class="edge">
<title>Node20&#45;&gt;Node22</title>
<path fill="none" stroke="midnightblue" d="M1151,-171.91C1151,-164.76 1151,-154.32 1151,-145.15"/>
<polygon fill="midnightblue" stroke="midnightblue" points="1154.5,-145.21 1151,-135.21 1147.5,-145.21 1154.5,-145.21"/>
</g>
<!-- Node23&#45;&gt;Node8 -->
<g id="edge30" class="edge">
<title>Node23&#45;&gt;Node8</title>
<path fill="none" stroke="midnightblue" d="M961.91,-114.66C951.61,-106.45 936.04,-94.04 923.64,-84.15"/>
<polygon fill="midnightblue" stroke="midnightblue" points="926.29,-80.99 916.29,-77.5 921.93,-86.47 926.29,-80.99"/>
</g>
<!-- Node23&#45;&gt;Node14 -->
<g id="edge33" class="edge">
<title>Node23&#45;&gt;Node14</title>
<path fill="none" stroke="midnightblue" d="M995.5,-114.66C1018.7,-105.54 1055.91,-90.85 1088,-78 1133.94,-59.6 1186.99,-38.03 1220.02,-24.56"/>
<polygon fill="midnightblue" stroke="midnightblue" points="1221.07,-27.5 1229.01,-20.49 1218.43,-21.02 1221.07,-27.5"/>
</g>
<!-- Node23&#45;&gt;Node15 -->
<g id="edge31" class="edge">
<title>Node23&#45;&gt;Node15</title>
<path fill="none" stroke="midnightblue" d="M982,-114.66C990.11,-106.69 1002.26,-94.76 1012.18,-85.02"/>
<polygon fill="midnightblue" stroke="midnightblue" points="1014.16,-88 1018.84,-78.5 1009.25,-83.01 1014.16,-88"/>
</g>
<!-- Node23&#45;&gt;Node16 -->
<g id="edge32" class="edge">
<title>Node23&#45;&gt;Node16</title>
<path fill="none" stroke="midnightblue" d="M1000.6,-114.61C1020.47,-107.18 1047,-95.04 1066,-78 1080.9,-64.63 1092.51,-44.76 1099.71,-30.22"/>
<polygon fill="midnightblue" stroke="midnightblue" points="1103.27,-31.88 1104.34,-21.34 1096.93,-28.91 1103.27,-31.88"/>
</g>
<!-- Node23&#45;&gt;Node17 -->
<g id="edge35" class="edge">
<title>Node23&#45;&gt;Node17</title>
<path fill="none" stroke="midnightblue" d="M974.25,-114.87C976.41,-101.74 981.65,-76.25 992,-57 997.65,-46.5 1006.05,-36.29 1013.61,-28.21"/>
<polygon fill="midnightblue" stroke="midnightblue" points="1015.81,-30.95 1020.32,-21.36 1010.81,-26.04 1015.81,-30.95"/>
</g>
<!-- Node23&#45;&gt;Node18 -->
<g id="edge34" class="edge">
<title>Node23&#45;&gt;Node18</title>
<path fill="none" stroke="midnightblue" d="M1013.26,-114.51C1054.04,-105.38 1118.93,-90.81 1175,-78 1176.32,-77.7 1177.67,-77.39 1179.03,-77.08"/>
<polygon fill="midnightblue" stroke="midnightblue" points="1179.58,-80.31 1188.54,-74.66 1178.01,-73.49 1179.58,-80.31"/>
</g>
<!-- Node25 -->
<g id="node25" class="node">
<title>Node25</title>
<g id="a_node25"><a xlink:href="_win_8h.html" target="_top" xlink:title=" ">
<polygon fill="none" stroke="red" points="602.25,-171.5 602.25,-191.5 643.75,-191.5 643.75,-171.5 602.25,-171.5"/>
<text text-anchor="middle" x="623" y="-178" font-family="Helvetica,sans-Serif" font-size="10.00">Win.h</text>
</a>
</g>
</g>
<!-- Node24&#45;&gt;Node25 -->
<g id="edge37" class="edge">
<title>Node24&#45;&gt;Node25</title>
<path fill="none" stroke="midnightblue" d="M642.41,-228.91C639.32,-221.52 634.76,-210.62 630.83,-201.23"/>
<polygon fill="midnightblue" stroke="midnightblue" points="633.73,-200.09 626.64,-192.21 627.27,-202.79 633.73,-200.09"/>
</g>
<!-- Node28&#45;&gt;Node20 -->
<g id="edge42" class="edge">
<title>Node28&#45;&gt;Node20</title>
<path fill="none" stroke="midnightblue" d="M920.21,-231.51C962.77,-222.47 1044.14,-205.19 1098,-193.75"/>
<polygon fill="midnightblue" stroke="midnightblue" points="1098.66,-196.98 1107.72,-191.48 1097.21,-190.13 1098.66,-196.98"/>
</g>
<!-- Node28&#45;&gt;Node21 -->
<g id="edge45" class="edge">
<title>Node28&#45;&gt;Node21</title>
<path fill="none" stroke="midnightblue" d="M920.37,-231.79C947.14,-225.38 987.47,-213.04 1017,-192 1035.31,-178.96 1050.82,-158.14 1060.45,-143.27"/>
<polygon fill="midnightblue" stroke="midnightblue" points="1063.85,-145.44 1066.15,-135.1 1057.9,-141.75 1063.85,-145.44"/>
</g>
<!-- Node28&#45;&gt;Node25 -->
<g id="edge39" class="edge">
<title>Node28&#45;&gt;Node25</title>
<path fill="none" stroke="midnightblue" d="M863.47,-231.67C812.7,-221.29 707.08,-199.69 654.36,-188.91"/>
<polygon fill="midnightblue" stroke="midnightblue" points="655.14,-185.3 644.65,-186.72 653.74,-192.15 655.14,-185.3"/>
</g>
<!-- Node29 -->
<g id="node27" class="node">
<title>Node29</title>
<g id="a_node27"><a xlink:href="_colors_8h.html" target="_top" xlink:title=" ">
<polygon fill="none" stroke="black" points="956,-171.5 956,-191.5 1008,-191.5 1008,-171.5 956,-171.5"/>
<text text-anchor="middle" x="982" y="-178" font-family="Helvetica,sans-Serif" font-size="10.00">Colors.h</text>
</a>
</g>
</g>
<!-- Node28&#45;&gt;Node29 -->
<g id="edge40" class="edge">
<title>Node28&#45;&gt;Node29</title>
<path fill="none" stroke="midnightblue" d="M906.46,-228.66C920.42,-220.13 941.79,-207.07 958.25,-197.01"/>
<polygon fill="midnightblue" stroke="midnightblue" points="959.57,-199.7 966.28,-191.5 955.92,-193.73 959.57,-199.7"/>
</g>
<!-- Node30 -->
<g id="node28" class="node">
<title>Node30</title>
<g id="a_node28"><a xlink:title=" ">
<polygon fill="none" stroke="#bfbfbf" points="886.38,-171.5 886.38,-191.5 937.62,-191.5 937.62,-171.5 886.38,-171.5"/>
<text text-anchor="middle" x="912" y="-178" font-family="Helvetica,sans-Serif" font-size="10.00">assert.h</text>
</a>
</g>
</g>
<!-- Node28&#45;&gt;Node30 -->
<g id="edge43" class="edge">
<title>Node28&#45;&gt;Node30</title>
<path fill="none" stroke="midnightblue" d="M895.12,-228.91C897.78,-221.6 901.69,-210.85 905.08,-201.54"/>
<polygon fill="midnightblue" stroke="midnightblue" points="908.7,-202.81 908.83,-192.21 902.12,-200.42 908.7,-202.81"/>
</g>
<!-- Node31 -->
<g id="node29" class="node">
<title>Node31</title>
<g id="a_node29"><a xlink:title=" ">
<polygon fill="none" stroke="#bfbfbf" points="738.38,-171.5 738.38,-191.5 789.62,-191.5 789.62,-171.5 738.38,-171.5"/>
<text text-anchor="middle" x="764" y="-178" font-family="Helvetica,sans-Serif" font-size="10.00">memory</text>
</a>
</g>
</g>
<!-- Node28&#45;&gt;Node31 -->
<g id="edge44" class="edge">
<title>Node28&#45;&gt;Node31</title>
<path fill="none" stroke="midnightblue" d="M871.15,-228.54C850.42,-219.63 818.37,-205.86 794.72,-195.7"/>
<polygon fill="midnightblue" stroke="midnightblue" points="796.41,-192.19 785.84,-191.46 793.65,-198.62 796.41,-192.19"/>
</g>
<!-- Node32 -->
<g id="node30" class="node">
<title>Node32</title>
<g id="a_node30"><a xlink:title=" ">
<polygon fill="none" stroke="#bfbfbf" points="807.88,-171.5 807.88,-191.5 868.12,-191.5 868.12,-171.5 807.88,-171.5"/>
<text text-anchor="middle" x="838" y="-178" font-family="Helvetica,sans-Serif" font-size="10.00">filesystem</text>
</a>
</g>
</g>
<!-- Node28&#45;&gt;Node32 -->
<g id="edge46" class="edge">
<title>Node28&#45;&gt;Node32</title>
<path fill="none" stroke="midnightblue" d="M883.56,-228.91C875.68,-220.88 863.72,-208.69 854.02,-198.82"/>
<polygon fill="midnightblue" stroke="midnightblue" points="857.06,-196.9 847.56,-192.21 852.06,-201.8 857.06,-196.9"/>
</g>
<!-- Node29&#45;&gt;Node23 -->
<g id="edge41" class="edge">
<title>Node29&#45;&gt;Node23</title>
<path fill="none" stroke="midnightblue" d="M980.59,-171.91C979.41,-164.68 977.68,-154.09 976.17,-144.85"/>
<polygon fill="midnightblue" stroke="midnightblue" points="979.5,-144.52 974.43,-135.21 972.59,-145.65 979.5,-144.52"/>
</g>
<!-- Node35&#45;&gt;Node7 -->
<g id="edge66" class="edge">
<title>Node35&#45;&gt;Node7</title>
<path fill="none" stroke="midnightblue" d="M997.99,-292.16C1070.05,-287.76 1203.56,-276.12 1242,-249 1277.93,-223.65 1296.48,-172.77 1304.31,-144.88"/>
<polygon fill="midnightblue" stroke="midnightblue" points="1307.89,-146.04 1307.03,-135.48 1301.11,-144.27 1307.89,-146.04"/>
</g>
<!-- Node35&#45;&gt;Node16 -->
<g id="edge68" class="edge">
<title>Node35&#45;&gt;Node16</title>
<path fill="none" stroke="midnightblue" d="M997.92,-291.17C1058.46,-284.06 1161.63,-261.79 1209,-192 1217.42,-179.6 1214.54,-141.2 1202,-114 1185.2,-77.58 1150.62,-45.27 1128.41,-27.07"/>
<polygon fill="midnightblue" stroke="midnightblue" points="1131.02,-23.87 1121.02,-20.37 1126.66,-29.34 1131.02,-23.87"/>
</g>
<!-- Node35&#45;&gt;Node23 -->
<g id="edge67" class="edge">
<title>Node35&#45;&gt;Node23</title>
<path fill="none" stroke="midnightblue" d="M959.4,-285.53C974.47,-268.75 1005.59,-230.78 1017,-192 1019.63,-183.05 1020.5,-179.65 1017,-171 1012.3,-159.39 1003.06,-149.09 994.26,-141.25"/>
<polygon fill="midnightblue" stroke="midnightblue" points="996.73,-137.92 986.78,-134.26 992.27,-143.32 996.73,-137.92"/>
</g>
<!-- Node36 -->
<g id="node34" class="node">
<title>Node36</title>
<g id="a_node34"><a xlink:href="_indexed_triangle_list_8h.html" target="_top" xlink:title=" ">
<polygon fill="none" stroke="black" points="327.25,-228.5 327.25,-248.5 434.75,-248.5 434.75,-228.5 327.25,-228.5"/>
<text text-anchor="middle" x="381" y="-235" font-family="Helvetica,sans-Serif" font-size="10.00">IndexedTriangleList.h</text>
</a>
</g>
</g>
<!-- Node35&#45;&gt;Node36 -->
<g id="edge51" class="edge">
<title>Node35&#45;&gt;Node36</title>
<path fill="none" stroke="midnightblue" d="M904.35,-290C802.74,-280.19 561.23,-256.89 445.29,-245.7"/>
<polygon fill="midnightblue" stroke="midnightblue" points="445.76,-242.14 435.47,-244.66 445.08,-249.1 445.76,-242.14"/>
</g>
<!-- Node39 -->
<g id="node37" class="node">
<title>Node39</title>
<g id="a_node37"><a xlink:title=" ">
<polygon fill="none" stroke="#bfbfbf" points="428.25,-114.5 428.25,-134.5 469.75,-134.5 469.75,-114.5 428.25,-114.5"/>
<text text-anchor="middle" x="449" y="-121" font-family="Helvetica,sans-Serif" font-size="10.00">vector</text>
</a>
</g>
</g>
<!-- Node35&#45;&gt;Node39 -->
<g id="edge69" class="edge">
<title>Node35&#45;&gt;Node39</title>
<path fill="none" stroke="midnightblue" d="M932.59,-285.55C886.49,-263.41 761.93,-205.43 653,-171 593.04,-152.05 520.77,-137.9 480.34,-130.74"/>
<polygon fill="midnightblue" stroke="midnightblue" points="481.03,-127.14 470.58,-128.87 479.83,-134.03 481.03,-127.14"/>
</g>
<!-- Node36&#45;&gt;Node23 -->
<g id="edge52" class="edge">
<title>Node36&#45;&gt;Node23</title>
<path fill="none" stroke="midnightblue" d="M411.67,-228.5C439.51,-220.04 481.52,-206.53 517,-192 536.68,-183.94 539.57,-176.92 560,-171 676.7,-137.19 818.63,-128.17 902.06,-125.96"/>
<polygon fill="midnightblue" stroke="midnightblue" points="902.02,-129.44 911.94,-125.7 901.86,-122.44 902.02,-129.44"/>
</g>
<!-- Node37 -->
<g id="node35" class="node">
<title>Node37</title>
<g id="a_node35"><a xlink:href="tiny__obj__loader_8h.html" target="_top" xlink:title=" ">
<polygon fill="none" stroke="black" points="251.25,-171.5 251.25,-191.5 340.75,-191.5 340.75,-171.5 251.25,-171.5"/>
<text text-anchor="middle" x="296" y="-178" font-family="Helvetica,sans-Serif" font-size="10.00">tiny_obj_loader.h</text>
</a>
</g>
</g>
<!-- Node36&#45;&gt;Node37 -->
<g id="edge53" class="edge">
<title>Node36&#45;&gt;Node37</title>
<path fill="none" stroke="midnightblue" d="M367.34,-228.66C354.29,-220.21 334.35,-207.31 318.87,-197.3"/>
<polygon fill="midnightblue" stroke="midnightblue" points="321.2,-193.99 310.91,-191.5 317.4,-199.87 321.2,-193.99"/>
</g>
<!-- Node36&#45;&gt;Node39 -->
<g id="edge63" class="edge">
<title>Node36&#45;&gt;Node39</title>
<path fill="none" stroke="midnightblue" d="M387.69,-228.65C394.4,-219.63 404.86,-205.14 413,-192 422.82,-176.15 432.82,-157.42 439.79,-143.88"/>
<polygon fill="midnightblue" stroke="midnightblue" points="443.25,-145.79 444.66,-135.29 437.01,-142.62 443.25,-145.79"/>
</g>
<!-- Node40 -->
<g id="node38" class="node">
<title>Node40</title>
<g id="a_node38"><a xlink:href="_miniball_8h.html" target="_top" xlink:title=" ">
<polygon fill="none" stroke="black" points="176.38,-171.5 176.38,-191.5 233.62,-191.5 233.62,-171.5 176.38,-171.5"/>
<text text-anchor="middle" x="205" y="-178" font-family="Helvetica,sans-Serif" font-size="10.00">Miniball.h</text>
</a>
</g>
</g>
<!-- Node36&#45;&gt;Node40 -->
<g id="edge57" class="edge">
<title>Node36&#45;&gt;Node40</title>
<path fill="none" stroke="midnightblue" d="M352.33,-228.54C322.71,-219.28 276.3,-204.78 243.5,-194.53"/>
<polygon fill="midnightblue" stroke="midnightblue" points="244.95,-191.01 234.37,-191.36 242.87,-197.69 244.95,-191.01"/>
</g>
<!-- Node45 -->
<g id="node43" class="node">
<title>Node45</title>
<g id="a_node43"><a xlink:title=" ">
<polygon fill="none" stroke="#bfbfbf" points="459.88,-171.5 459.88,-191.5 508.12,-191.5 508.12,-171.5 459.88,-171.5"/>
<text text-anchor="middle" x="484" y="-178" font-family="Helvetica,sans-Serif" font-size="10.00">fstream</text>
</a>
</g>
</g>
<!-- Node36&#45;&gt;Node45 -->
<g id="edge64" class="edge">
<title>Node36&#45;&gt;Node45</title>
<path fill="none" stroke="midnightblue" d="M397.55,-228.66C413.75,-220.01 438.67,-206.7 457.61,-196.59"/>
<polygon fill="midnightblue" stroke="midnightblue" points="458.98,-199.3 466.15,-191.5 455.68,-193.12 458.98,-199.3"/>
</g>
<!-- Node46 -->
<g id="node44" class="node">
<title>Node46</title>
<g id="a_node44"><a xlink:title=" ">
<polygon fill="none" stroke="#bfbfbf" points="358.38,-171.5 358.38,-191.5 403.62,-191.5 403.62,-171.5 358.38,-171.5"/>
<text text-anchor="middle" x="381" y="-178" font-family="Helvetica,sans-Serif" font-size="10.00">cctype</text>
</a>
</g>
</g>
<!-- Node36&#45;&gt;Node46 -->
<g id="edge65" class="edge">
<title>Node36&#45;&gt;Node46</title>
<path fill="none" stroke="midnightblue" d="M381,-228.91C381,-221.76 381,-211.32 381,-202.15"/>
<polygon fill="midnightblue" stroke="midnightblue" points="384.5,-202.21 381,-192.21 377.5,-202.21 384.5,-202.21"/>
</g>
<!-- Node37&#45;&gt;Node21 -->
<g id="edge55" class="edge">
<title>Node37&#45;&gt;Node21</title>
<path fill="none" stroke="midnightblue" d="M340.47,-172.11C343.35,-171.7 346.21,-171.32 349,-171 651.95,-136.12 736.9,-190.26 1040.77,-134.68"/>
<polygon fill="midnightblue" stroke="midnightblue" points="1041.02,-138.01 1050.21,-132.75 1039.74,-131.13 1041.02,-138.01"/>
</g>
<!-- Node38 -->
<g id="node36" class="node">
<title>Node38</title>
<g id="a_node36"><a xlink:title=" ">
<polygon fill="none" stroke="#bfbfbf" points="375.62,-114.5 375.62,-134.5 410.38,-134.5 410.38,-114.5 375.62,-114.5"/>
<text text-anchor="middle" x="393" y="-121" font-family="Helvetica,sans-Serif" font-size="10.00">map</text>
</a>
</g>
</g>
<!-- Node37&#45;&gt;Node38 -->
<g id="edge54" class="edge">
<title>Node37&#45;&gt;Node38</title>
<path fill="none" stroke="midnightblue" d="M311.58,-171.66C326.77,-163.05 350.1,-149.83 367.9,-139.73"/>
<polygon fill="midnightblue" stroke="midnightblue" points="369.16,-142.47 376.13,-134.5 365.71,-136.39 369.16,-142.47"/>
</g>
<!-- Node37&#45;&gt;Node39 -->
<g id="edge56" class="edge">
<title>Node37&#45;&gt;Node39</title>
<path fill="none" stroke="midnightblue" d="M320.92,-171.54C347.5,-161.99 389.63,-146.84 418.25,-136.55"/>
<polygon fill="midnightblue" stroke="midnightblue" points="419.27,-139.55 427.5,-132.87 416.91,-132.96 419.27,-139.55"/>
</g>
<!-- Node40&#45;&gt;Node10 -->
<g id="edge62" class="edge">
<title>Node40&#45;&gt;Node10</title>
<path fill="none" stroke="midnightblue" d="M209.45,-171.67C213.8,-162.66 220.29,-148.19 224,-135 234.1,-99.09 239.2,-55.7 241.47,-31.08"/>
<polygon fill="midnightblue" stroke="midnightblue" points="245.02,-31.6 242.38,-21.34 238.04,-31.01 245.02,-31.6"/>
</g>
<!-- Node41 -->
<g id="node39" class="node">
<title>Node41</title>
<g id="a_node39"><a xlink:title=" ">
<polygon fill="none" stroke="#bfbfbf" points="92.88,-114.5 92.88,-134.5 141.12,-134.5 141.12,-114.5 92.88,-114.5"/>
<text text-anchor="middle" x="117" y="-121" font-family="Helvetica,sans-Serif" font-size="10.00">cassert</text>
</a>
</g>
</g>
<!-- Node40&#45;&gt;Node41 -->
<g id="edge58" class="edge">
<title>Node40&#45;&gt;Node41</title>
<path fill="none" stroke="midnightblue" d="M190.86,-171.66C177.34,-163.21 156.7,-150.31 140.67,-140.3"/>
<polygon fill="midnightblue" stroke="midnightblue" points="142.73,-136.83 132.4,-134.5 139.02,-142.77 142.73,-136.83"/>
</g>
<!-- Node42 -->
<g id="node40" class="node">
<title>Node42</title>
<g id="a_node40"><a xlink:title=" ">
<polygon fill="none" stroke="#bfbfbf" points="159.12,-114.5 159.12,-134.5 214.88,-134.5 214.88,-114.5 159.12,-114.5"/>
<text text-anchor="middle" x="187" y="-121" font-family="Helvetica,sans-Serif" font-size="10.00">algorithm</text>
</a>
</g>
</g>
<!-- Node40&#45;&gt;Node42 -->
<g id="edge59" class="edge">
<title>Node40&#45;&gt;Node42</title>
<path fill="none" stroke="midnightblue" d="M202.19,-171.91C199.8,-164.6 196.28,-153.85 193.23,-144.54"/>
<polygon fill="midnightblue" stroke="midnightblue" points="196.29,-143.63 189.85,-135.21 189.64,-145.81 196.29,-143.63"/>
</g>
<!-- Node43 -->
<g id="node41" class="node">
<title>Node43</title>
<g id="a_node41"><a xlink:title=" ">
<polygon fill="none" stroke="#bfbfbf" points="328.6,-114.5 328.6,-134.5 357.4,-134.5 357.4,-114.5 328.6,-114.5"/>
<text text-anchor="middle" x="342.98" y="-121" font-family="Helvetica,sans-Serif" font-size="10.00">list</text>
</a>
</g>
</g>
<!-- Node40&#45;&gt;Node43 -->
<g id="edge60" class="edge">
<title>Node40&#45;&gt;Node43</title>
<path fill="none" stroke="midnightblue" d="M227.95,-171.54C249.28,-163.18 282.18,-150.23 318.96,-135.38"/>
<polygon fill="midnightblue" stroke="midnightblue" points="319.95,-138.36 327.9,-131.36 317.32,-131.87 319.95,-138.36"/>
</g>
<!-- Node44 -->
<g id="node42" class="node">
<title>Node44</title>
<g id="a_node42"><a xlink:title=" ">
<polygon fill="none" stroke="#bfbfbf" points="271,-114.5 271,-134.5 311,-134.5 311,-114.5 271,-114.5"/>
<text text-anchor="middle" x="291" y="-121" font-family="Helvetica,sans-Serif" font-size="10.00">ctime</text>
</a>
</g>
</g>
<!-- Node40&#45;&gt;Node44 -->
<g id="edge61" class="edge">
<title>Node40&#45;&gt;Node44</title>
<path fill="none" stroke="midnightblue" d="M218.82,-171.66C232.03,-163.21 252.2,-150.31 267.86,-140.3"/>
<polygon fill="midnightblue" stroke="midnightblue" points="269.39,-142.83 275.93,-134.5 265.62,-136.94 269.39,-142.83"/>
</g>
<!-- Node48 -->
<g id="node46" class="node">
<title>Node48</title>
<g id="a_node46"><a xlink:href="_pipeline_8h.html" target="_top" xlink:title=" ">
<polygon fill="none" stroke="black" points="379.62,-399.5 379.62,-419.5 438.38,-419.5 438.38,-399.5 379.62,-399.5"/>
<text text-anchor="middle" x="409" y="-406" font-family="Helvetica,sans-Serif" font-size="10.00">Pipeline.h</text>
</a>
</g>
</g>
<!-- Node47&#45;&gt;Node48 -->
<g id="edge72" class="edge">
<title>Node47&#45;&gt;Node48</title>
<path fill="none" stroke="midnightblue" d="M550.25,-456.58C518.48,-446.21 476.64,-432.56 446.76,-422.82"/>
<polygon fill="midnightblue" stroke="midnightblue" points="447.92,-419.19 437.33,-419.42 445.75,-425.84 447.92,-419.19"/>
</g>
<!-- Node52 -->
<g id="node50" class="node">
<title>Node52</title>
<g id="a_node50"><a xlink:href="_default_geometry_shader_8h.html" target="_top" xlink:title=" ">
<polygon fill="none" stroke="black" points="512.62,-399.5 512.62,-419.5 679.38,-419.5 679.38,-399.5 512.62,-399.5"/>
<text text-anchor="middle" x="596" y="-406" font-family="Helvetica,sans-Serif" font-size="10.00">Shaders/DefaultGeometryShader.h</text>
</a>
</g>
</g>
<!-- Node47&#45;&gt;Node52 -->
<g id="edge85" class="edge">
<title>Node47&#45;&gt;Node52</title>
<path fill="none" stroke="midnightblue" d="M596,-456.73C596,-448.78 596,-438.85 596,-430.24"/>
<polygon fill="midnightblue" stroke="midnightblue" points="599.5,-430.28 596,-420.28 592.5,-430.28 599.5,-430.28"/>
</g>
<!-- Node48&#45;&gt;Node15 -->
<g id="edge80" class="edge">
<title>Node48&#45;&gt;Node15</title>
<path fill="none" stroke="midnightblue" d="M379.67,-405.77C322.24,-400.01 197.41,-385.27 161,-363 129.23,-343.56 110,-333.75 110,-296.5 110,-296.5 110,-296.5 110,-237.5 110,-223.48 74.29,-124.12 84,-114 117.49,-79.09 905.79,-82.04 954,-78 965.79,-77.01 978.59,-75.54 990.21,-74.05"/>
<polygon fill="midnightblue" stroke="midnightblue" points="990.47,-77.41 999.92,-72.63 989.55,-70.47 990.47,-77.41"/>
</g>
<!-- Node48&#45;&gt;Node19 -->
<g id="edge74" class="edge">
<title>Node48&#45;&gt;Node19</title>
<path fill="none" stroke="midnightblue" d="M430.66,-399.57C452.17,-390.61 486.05,-376.27 515,-363 534.33,-354.14 538.06,-349.41 558,-342 601.66,-325.78 653.55,-312.95 689.03,-305.1"/>
<polygon fill="midnightblue" stroke="midnightblue" points="689.46,-308.37 698.49,-302.83 687.97,-301.53 689.46,-308.37"/>
</g>
<!-- Node48&#45;&gt;Node25 -->
<g id="edge73" class="edge">
<title>Node48&#45;&gt;Node25</title>
<path fill="none" stroke="midnightblue" d="M431.96,-399.56C448.2,-392.1 469.27,-379.96 482,-363 519.42,-313.15 479.15,-275.08 520,-228 529.91,-216.58 565.45,-202.35 592.03,-192.87"/>
<polygon fill="midnightblue" stroke="midnightblue" points="593.13,-195.85 601.41,-189.25 590.82,-189.24 593.13,-195.85"/>
</g>
<!-- Node48&#45;&gt;Node36 -->
<g id="edge76" class="edge">
<title>Node48&#45;&gt;Node36</title>
<path fill="none" stroke="midnightblue" d="M382.41,-399.59C365.84,-392.49 345.86,-380.76 336,-363 316.16,-327.26 346.11,-281.07 365.89,-256.56"/>
<polygon fill="midnightblue" stroke="midnightblue" points="369.09,-259.19 372.85,-249.29 363.74,-254.69 369.09,-259.19"/>
</g>
<!-- Node48&#45;&gt;Node42 -->
<g id="edge84" class="edge">
<title>Node48&#45;&gt;Node42</title>
<path fill="none" stroke="midnightblue" d="M379.82,-408.95C311.71,-408.34 148,-396.47 148,-296.5 148,-296.5 148,-296.5 148,-237.5 148,-202.98 164.73,-165.63 176.28,-143.97"/>
<polygon fill="midnightblue" stroke="midnightblue" points="179.78,-145.86 181.58,-135.42 173.66,-142.47 179.78,-145.86"/>
</g>
<!-- Node49 -->
<g id="node47" class="node">
<title>Node49</title>
<g id="a_node47"><a xlink:href="_triangle_8h.html" target="_top" xlink:title=" ">
<polygon fill="none" stroke="black" points="567,-342.5 567,-362.5 625,-362.5 625,-342.5 567,-342.5"/>
<text text-anchor="middle" x="596" y="-349" font-family="Helvetica,sans-Serif" font-size="10.00">Triangle.h</text>
</a>
</g>
</g>
<!-- Node48&#45;&gt;Node49 -->
<g id="edge75" class="edge">
<title>Node48&#45;&gt;Node49</title>
<path fill="none" stroke="midnightblue" d="M438.22,-399.91C470.15,-390.51 521.47,-375.42 556.86,-365.01"/>
<polygon fill="midnightblue" stroke="midnightblue" points="557.69,-368.12 566.29,-361.94 555.71,-361.41 557.69,-368.12"/>
</g>
<!-- Node50 -->
<g id="node48" class="node">
<title>Node50</title>
<g id="a_node48"><a xlink:href="_pube_screen_transformer_8h.html" target="_top" xlink:title=" ">
<polygon fill="none" stroke="black" points="344.75,-342.5 344.75,-362.5 473.25,-362.5 473.25,-342.5 344.75,-342.5"/>
<text text-anchor="middle" x="409" y="-349" font-family="Helvetica,sans-Serif" font-size="10.00">PubeScreenTransformer.h</text>
</a>
</g>
</g>
<!-- Node48&#45;&gt;Node50 -->
<g id="edge77" class="edge">
<title>Node48&#45;&gt;Node50</title>
<path fill="none" stroke="midnightblue" d="M409,-399.91C409,-392.76 409,-382.32 409,-373.15"/>
<polygon fill="midnightblue" stroke="midnightblue" points="412.5,-373.21 409,-363.21 405.5,-373.21 412.5,-373.21"/>
</g>
<!-- Node51 -->
<g id="node49" class="node">
<title>Node51</title>
<g id="a_node49"><a xlink:href="_z_buffer_8h.html" target="_top" xlink:title=" ">
<polygon fill="none" stroke="black" points="27.88,-171.5 27.88,-191.5 82.12,-191.5 82.12,-171.5 27.88,-171.5"/>
<text text-anchor="middle" x="55" y="-178" font-family="Helvetica,sans-Serif" font-size="10.00">ZBuffer.h</text>
</a>
</g>
</g>
<!-- Node48&#45;&gt;Node51 -->
<g id="edge81" class="edge">
<title>Node48&#45;&gt;Node51</title>
<path fill="none" stroke="midnightblue" d="M379.83,-408.32C310.19,-407.29 136.99,-400.87 96,-363 50.41,-320.88 50.28,-239.55 52.96,-202.17"/>
<polygon fill="midnightblue" stroke="midnightblue" points="56.52,-202.57 53.91,-192.3 49.55,-201.95 56.52,-202.57"/>
</g>
<!-- Node50&#45;&gt;Node19 -->
<g id="edge78" class="edge">
<title>Node50&#45;&gt;Node19</title>
<path fill="none" stroke="midnightblue" d="M461.45,-342.54C524.9,-331.7 630.46,-313.67 688.87,-303.7"/>
<polygon fill="midnightblue" stroke="midnightblue" points="689.29,-307 698.56,-301.87 688.11,-300.1 689.29,-307"/>
</g>
<!-- Node50&#45;&gt;Node23 -->
<g id="edge79" class="edge">
<title>Node50&#45;&gt;Node23</title>
<path fill="none" stroke="midnightblue" d="M414.15,-342.55C426.9,-320.91 461.85,-264.84 502,-228 519.58,-211.87 570.5,-178.94 593,-171 696.37,-134.51 824.34,-126.15 902.26,-124.83"/>
<polygon fill="midnightblue" stroke="midnightblue" points="901.96,-128.32 911.92,-124.68 901.87,-121.32 901.96,-128.32"/>
</g>
<!-- Node51&#45;&gt;Node10 -->
<g id="edge82" class="edge">
<title>Node51&#45;&gt;Node10</title>
<path fill="none" stroke="midnightblue" d="M51.48,-171.57C46.76,-158.05 40.17,-132.05 51,-114 86.38,-55 168.55,-28.08 213.06,-17.45"/>
<polygon fill="midnightblue" stroke="midnightblue" points="213.53,-20.7 222.52,-15.09 211.99,-13.87 213.53,-20.7"/>
</g>
<!-- Node51&#45;&gt;Node41 -->
<g id="edge83" class="edge">
<title>Node51&#45;&gt;Node41</title>
<path fill="none" stroke="midnightblue" d="M64.96,-171.66C74.04,-163.61 87.67,-151.52 98.7,-141.73"/>
<polygon fill="midnightblue" stroke="midnightblue" points="100.7,-144.75 105.86,-135.5 96.05,-139.52 100.7,-144.75"/>
</g>
<!-- Node52&#45;&gt;Node49 -->
<g id="edge86" class="edge">
<title>Node52&#45;&gt;Node49</title>
<path fill="none" stroke="midnightblue" d="M596,-399.91C596,-392.76 596,-382.32 596,-373.15"/>
<polygon fill="midnightblue" stroke="midnightblue" points="599.5,-373.21 596,-363.21 592.5,-373.21 599.5,-373.21"/>
</g>
</g>
</svg>
