<?xml version="1.0" encoding="UTF-8" standalone="no"?>
<!DOCTYPE svg PUBLIC "-//W3C//DTD SVG 1.1//EN"
 "http://www.w3.org/Graphics/SVG/1.1/DTD/svg11.dtd">
<!-- Generated by graphviz version 8.1.0 (20230707.0739)
 -->
<!-- Title: include/Scenes/VertexWaveScene.h Pages: 1 -->
<svg width="1037pt" height="566pt"
 viewBox="0.00 0.00 1037.00 566.00" xmlns="http://www.w3.org/2000/svg" xmlns:xlink="http://www.w3.org/1999/xlink">
<g id="graph0" class="graph" transform="scale(1 1) rotate(0) translate(4 562)">
<title>include/Scenes/VertexWaveScene.h</title>
<!-- Node1 -->
<g id="node1" class="node">
<title>Node1</title>
<g id="a_node1"><a xlink:title=" ">
<polygon fill="#bfbfbf" stroke="black" points="25.88,-525.5 25.88,-557.5 164.12,-557.5 164.12,-525.5 25.88,-525.5"/>
<text text-anchor="start" x="33.88" y="-544" font-family="Helvetica,sans-Serif" font-size="10.00">include/Scenes/VertexWave</text>
<text text-anchor="middle" x="95" y="-532" font-family="Helvetica,sans-Serif" font-size="10.00">Scene.h</text>
</a>
</g>
</g>
<!-- Node2 -->
<g id="node2" class="node">
<title>Node2</title>
<g id="a_node2"><a xlink:href="_scene_8h.html" target="_top" xlink:title=" ">
<polygon fill="none" stroke="black" points="229,-342.5 229,-362.5 281,-362.5 281,-342.5 229,-342.5"/>
<text text-anchor="middle" x="255" y="-349" font-family="Helvetica,sans-Serif" font-size="10.00">Scene.h</text>
</a>
</g>
</g>
<!-- Node1&#45;&gt;Node2 -->
<g id="edge1" class="edge">
<title>Node1&#45;&gt;Node2</title>
<path fill="none" stroke="midnightblue" d="M107.82,-525.51C137.22,-491.16 209.32,-406.89 240.38,-370.59"/>
<polygon fill="midnightblue" stroke="midnightblue" points="243.5,-373.33 247.34,-363.46 238.18,-368.78 243.5,-373.33"/>
</g>
<!-- Node15 -->
<g id="node15" class="node">
<title>Node15</title>
<g id="a_node15"><a xlink:href="_matrix3_8h.html" target="_top" xlink:title=" ">
<polygon fill="none" stroke="black" points="353.75,-57.5 353.75,-77.5 410.25,-77.5 410.25,-57.5 353.75,-57.5"/>
<text text-anchor="middle" x="382" y="-64" font-family="Helvetica,sans-Serif" font-size="10.00">Matrix3.h</text>
</a>
</g>
</g>
<!-- Node1&#45;&gt;Node15 -->
<g id="edge59" class="edge">
<title>Node1&#45;&gt;Node15</title>
<path fill="none" stroke="midnightblue" d="M84.65,-525.6C60.03,-488.63 0,-389.01 0,-296.5 0,-296.5 0,-296.5 0,-237.5 0,-222.75 221.37,-119.63 235,-114 270.84,-99.18 313.3,-86.54 343.35,-78.37"/>
<polygon fill="midnightblue" stroke="midnightblue" points="344.07,-81.53 352.83,-75.56 342.26,-74.77 344.07,-81.53"/>
</g>
<!-- Node34 -->
<g id="node34" class="node">
<title>Node34</title>
<g id="a_node34"><a xlink:href="_plane_8h.html" target="_top" xlink:title=" ">
<polygon fill="none" stroke="black" points="76,-228.5 76,-248.5 170,-248.5 170,-228.5 76,-228.5"/>
<text text-anchor="middle" x="123" y="-235" font-family="Helvetica,sans-Serif" font-size="10.00">Primitives/Plane.h</text>
</a>
</g>
</g>
<!-- Node1&#45;&gt;Node34 -->
<g id="edge51" class="edge">
<title>Node1&#45;&gt;Node34</title>
<path fill="none" stroke="midnightblue" d="M83.74,-525.82C67.13,-502.65 38,-455.6 38,-410.5 38,-410.5 38,-410.5 38,-351.5 38,-309.98 75.53,-274.18 100.72,-254.84"/>
<polygon fill="midnightblue" stroke="midnightblue" points="102.37,-257.23 108.34,-248.48 98.22,-251.6 102.37,-257.23"/>
</g>
<!-- Node37 -->
<g id="node37" class="node">
<title>Node37</title>
<g id="a_node37"><a xlink:href="_wave_vertex_texture_effect_8h.html" target="_top" xlink:title=" ">
<polygon fill="none" stroke="black" points="359.12,-456.5 359.12,-488.5 492.88,-488.5 492.88,-456.5 359.12,-456.5"/>
<text text-anchor="start" x="367.12" y="-475" font-family="Helvetica,sans-Serif" font-size="10.00">Effects/WaveVertexTexture</text>
<text text-anchor="middle" x="426" y="-463" font-family="Helvetica,sans-Serif" font-size="10.00">Effect.h</text>
</a>
</g>
</g>
<!-- Node1&#45;&gt;Node37 -->
<g id="edge60" class="edge">
<title>Node1&#45;&gt;Node37</title>
<path fill="none" stroke="midnightblue" d="M163.99,-526.54C217.92,-515.62 292.87,-500.45 348.8,-489.13"/>
<polygon fill="midnightblue" stroke="midnightblue" points="349.26,-492.4 358.36,-486.99 347.87,-485.54 349.26,-492.4"/>
</g>
<!-- Node3 -->
<g id="node3" class="node">
<title>Node3</title>
<g id="a_node3"><a xlink:href="_keyboard_8h.html" target="_top" xlink:title=" ">
<polygon fill="none" stroke="black" points="222.25,-285.5 222.25,-305.5 287.75,-305.5 287.75,-285.5 222.25,-285.5"/>
<text text-anchor="middle" x="255" y="-292" font-family="Helvetica,sans-Serif" font-size="10.00">Keyboard.h</text>
</a>
</g>
</g>
<!-- Node2&#45;&gt;Node3 -->
<g id="edge2" class="edge">
<title>Node2&#45;&gt;Node3</title>
<path fill="none" stroke="midnightblue" d="M255,-342.91C255,-335.76 255,-325.32 255,-316.15"/>
<polygon fill="midnightblue" stroke="midnightblue" points="258.5,-316.21 255,-306.21 251.5,-316.21 258.5,-316.21"/>
</g>
<!-- Node6 -->
<g id="node6" class="node">
<title>Node6</title>
<g id="a_node6"><a xlink:href="_mouse_8h.html" target="_top" xlink:title=" ">
<polygon fill="none" stroke="black" points="150.25,-285.5 150.25,-305.5 203.75,-305.5 203.75,-285.5 150.25,-285.5"/>
<text text-anchor="middle" x="177" y="-292" font-family="Helvetica,sans-Serif" font-size="10.00">Mouse.h</text>
</a>
</g>
</g>
<!-- Node2&#45;&gt;Node6 -->
<g id="edge5" class="edge">
<title>Node2&#45;&gt;Node6</title>
<path fill="none" stroke="midnightblue" d="M242.47,-342.66C230.6,-334.29 212.54,-321.56 198.39,-311.58"/>
<polygon fill="midnightblue" stroke="midnightblue" points="200.95,-308.4 190.76,-305.5 196.92,-314.12 200.95,-308.4"/>
</g>
<!-- Node19 -->
<g id="node19" class="node">
<title>Node19</title>
<g id="a_node19"><a xlink:href="_graphics_8h.html" target="_top" xlink:title=" ">
<polygon fill="none" stroke="black" points="656.38,-285.5 656.38,-305.5 719.62,-305.5 719.62,-285.5 656.38,-285.5"/>
<text text-anchor="middle" x="688" y="-292" font-family="Helvetica,sans-Serif" font-size="10.00">Graphics.h</text>
</a>
</g>
</g>
<!-- Node2&#45;&gt;Node19 -->
<g id="edge25" class="edge">
<title>Node2&#45;&gt;Node19</title>
<path fill="none" stroke="midnightblue" d="M280.79,-348.22C352.9,-339.06 557.12,-313.12 645.91,-301.85"/>
<polygon fill="midnightblue" stroke="midnightblue" points="646.17,-305.21 655.65,-300.48 645.29,-298.27 646.17,-305.21"/>
</g>
<!-- Node21 -->
<g id="node21" class="node">
<title>Node21</title>
<g id="a_node21"><a xlink:title=" ">
<polygon fill="none" stroke="#bfbfbf" points="704,-114.5 704,-134.5 744,-134.5 744,-114.5 704,-114.5"/>
<text text-anchor="middle" x="724" y="-121" font-family="Helvetica,sans-Serif" font-size="10.00">string</text>
</a>
</g>
</g>
<!-- Node2&#45;&gt;Node21 -->
<g id="edge50" class="edge">
<title>Node2&#45;&gt;Node21</title>
<path fill="none" stroke="midnightblue" d="M263.26,-342.58C291.35,-312.82 387.06,-216.28 487,-171 556.31,-139.6 646.55,-129.85 693.15,-126.84"/>
<polygon fill="midnightblue" stroke="midnightblue" points="693.24,-130.28 703.02,-126.21 692.83,-123.29 693.24,-130.28"/>
</g>
<!-- Node4 -->
<g id="node4" class="node">
<title>Node4</title>
<g id="a_node4"><a xlink:title=" ">
<polygon fill="none" stroke="#bfbfbf" points="248,-228.5 248,-248.5 288,-248.5 288,-228.5 248,-228.5"/>
<text text-anchor="middle" x="268" y="-235" font-family="Helvetica,sans-Serif" font-size="10.00">bitset</text>
</a>
</g>
</g>
<!-- Node3&#45;&gt;Node4 -->
<g id="edge3" class="edge">
<title>Node3&#45;&gt;Node4</title>
<path fill="none" stroke="midnightblue" d="M257.03,-285.91C258.74,-278.68 261.24,-268.09 263.43,-258.85"/>
<polygon fill="midnightblue" stroke="midnightblue" points="267.05,-259.75 265.94,-249.21 260.23,-258.14 267.05,-259.75"/>
</g>
<!-- Node5 -->
<g id="node5" class="node">
<title>Node5</title>
<g id="a_node5"><a xlink:title=" ">
<polygon fill="none" stroke="#bfbfbf" points="187.88,-228.5 187.88,-248.5 230.12,-248.5 230.12,-228.5 187.88,-228.5"/>
<text text-anchor="middle" x="209" y="-235" font-family="Helvetica,sans-Serif" font-size="10.00">queue</text>
</a>
</g>
</g>
<!-- Node3&#45;&gt;Node5 -->
<g id="edge4" class="edge">
<title>Node3&#45;&gt;Node5</title>
<path fill="none" stroke="midnightblue" d="M247.81,-285.91C241.23,-278.04 231.31,-266.18 223.15,-256.42"/>
<polygon fill="midnightblue" stroke="midnightblue" points="225.39,-254.64 216.29,-249.21 220.02,-259.13 225.39,-254.64"/>
</g>
<!-- Node6&#45;&gt;Node5 -->
<g id="edge24" class="edge">
<title>Node6&#45;&gt;Node5</title>
<path fill="none" stroke="midnightblue" d="M182,-285.91C186.39,-278.36 192.92,-267.14 198.46,-257.62"/>
<polygon fill="midnightblue" stroke="midnightblue" points="201.93,-259.62 203.93,-249.21 195.88,-256.1 201.93,-259.62"/>
</g>
<!-- Node7 -->
<g id="node7" class="node">
<title>Node7</title>
<g id="a_node7"><a xlink:href="_vector2_8h.html" target="_top" xlink:title=" ">
<polygon fill="none" stroke="black" points="55.88,-114.5 55.88,-134.5 176.12,-134.5 176.12,-114.5 55.88,-114.5"/>
<text text-anchor="middle" x="116" y="-121" font-family="Helvetica,sans-Serif" font-size="10.00">LinearAlgebra/Vector2.h</text>
</a>
</g>
</g>
<!-- Node6&#45;&gt;Node7 -->
<g id="edge6" class="edge">
<title>Node6&#45;&gt;Node7</title>
<path fill="none" stroke="midnightblue" d="M150.44,-291.78C124.23,-287.53 85.49,-276.66 67,-249 43.83,-214.35 77.78,-167.09 99.76,-142.28"/>
<polygon fill="midnightblue" stroke="midnightblue" points="101.73,-145.22 105.92,-135.5 96.58,-140.48 101.73,-145.22"/>
</g>
<!-- Node8 -->
<g id="node8" class="node">
<title>Node8</title>
<g id="a_node8"><a xlink:href="_math_8h.html" target="_top" xlink:title=" ">
<polygon fill="none" stroke="black" points="504,-57.5 504,-77.5 550,-77.5 550,-57.5 504,-57.5"/>
<text text-anchor="middle" x="527" y="-64" font-family="Helvetica,sans-Serif" font-size="10.00">Math.h</text>
</a>
</g>
</g>
<!-- Node7&#45;&gt;Node8 -->
<g id="edge7" class="edge">
<title>Node7&#45;&gt;Node8</title>
<path fill="none" stroke="midnightblue" d="M175.76,-115.5C263.5,-103.76 424.24,-82.25 493.64,-72.96"/>
<polygon fill="midnightblue" stroke="midnightblue" points="493.91,-76.33 503.35,-71.53 492.98,-69.39 493.91,-76.33"/>
</g>
<!-- Node13 -->
<g id="node13" class="node">
<title>Node13</title>
<g id="a_node13"><a xlink:href="_matrix2_8h.html" target="_top" xlink:title=" ">
<polygon fill="none" stroke="black" points="131.75,-57.5 131.75,-77.5 188.25,-77.5 188.25,-57.5 131.75,-57.5"/>
<text text-anchor="middle" x="160" y="-64" font-family="Helvetica,sans-Serif" font-size="10.00">Matrix2.h</text>
</a>
</g>
</g>
<!-- Node7&#45;&gt;Node13 -->
<g id="edge13" class="edge">
<title>Node7&#45;&gt;Node13</title>
<path fill="none" stroke="midnightblue" d="M122.88,-114.91C129.1,-107.12 138.46,-95.42 146.23,-85.71"/>
<polygon fill="midnightblue" stroke="midnightblue" points="149.51,-88.21 153.03,-78.21 144.05,-83.84 149.51,-88.21"/>
</g>
<!-- Node14 -->
<g id="node14" class="node">
<title>Node14</title>
<g id="a_node14"><a xlink:title=" ">
<polygon fill="none" stroke="#bfbfbf" points="240.25,-0.5 240.25,-20.5 293.75,-20.5 293.75,-0.5 240.25,-0.5"/>
<text text-anchor="middle" x="267" y="-7" font-family="Helvetica,sans-Serif" font-size="10.00">iostream</text>
</a>
</g>
</g>
<!-- Node7&#45;&gt;Node14 -->
<g id="edge23" class="edge">
<title>Node7&#45;&gt;Node14</title>
<path fill="none" stroke="midnightblue" d="M114.14,-114.6C111.78,-100.66 109.49,-73.54 123,-57 148.78,-25.44 196.33,-15.43 229.72,-12.44"/>
<polygon fill="midnightblue" stroke="midnightblue" points="229.73,-15.87 239.45,-11.67 229.23,-8.89 229.73,-15.87"/>
</g>
<!-- Node7&#45;&gt;Node15 -->
<g id="edge15" class="edge">
<title>Node7&#45;&gt;Node15</title>
<path fill="none" stroke="midnightblue" d="M159.33,-114.54C210.38,-103.99 294.42,-86.61 343.35,-76.49"/>
<polygon fill="midnightblue" stroke="midnightblue" points="343.73,-79.78 352.82,-74.33 342.32,-72.92 343.73,-79.78"/>
</g>
<!-- Node16 -->
<g id="node16" class="node">
<title>Node16</title>
<g id="a_node16"><a xlink:title=" ">
<polygon fill="none" stroke="#bfbfbf" points="93.12,-0.5 93.12,-20.5 130.88,-20.5 130.88,-0.5 93.12,-0.5"/>
<text text-anchor="middle" x="112" y="-7" font-family="Helvetica,sans-Serif" font-size="10.00">array</text>
</a>
</g>
</g>
<!-- Node7&#45;&gt;Node16 -->
<g id="edge20" class="edge">
<title>Node7&#45;&gt;Node16</title>
<path fill="none" stroke="midnightblue" d="M109.11,-114.71C102.73,-105.97 93.69,-91.89 90,-78 85.62,-61.49 92.66,-43.08 99.92,-29.82"/>
<polygon fill="midnightblue" stroke="midnightblue" points="103.42,-31.81 105.57,-21.43 97.42,-28.2 103.42,-31.81"/>
</g>
<!-- Node17 -->
<g id="node17" class="node">
<title>Node17</title>
<g id="a_node17"><a xlink:title=" ">
<polygon fill="none" stroke="#bfbfbf" points="358.25,-0.5 358.25,-20.5 405.75,-20.5 405.75,-0.5 358.25,-0.5"/>
<text text-anchor="middle" x="382" y="-7" font-family="Helvetica,sans-Serif" font-size="10.00">cstddef</text>
</a>
</g>
</g>
<!-- Node7&#45;&gt;Node17 -->
<g id="edge22" class="edge">
<title>Node7&#45;&gt;Node17</title>
<path fill="none" stroke="midnightblue" d="M131.62,-114.71C163.3,-96.91 232.32,-58.15 235,-57 272.51,-40.93 317.59,-27.84 347.85,-19.89"/>
<polygon fill="midnightblue" stroke="midnightblue" points="348.48,-23.09 357.29,-17.2 346.73,-16.31 348.48,-23.09"/>
</g>
<!-- Node18 -->
<g id="node18" class="node">
<title>Node18</title>
<g id="a_node18"><a xlink:title=" ">
<polygon fill="none" stroke="#bfbfbf" points="244.25,-57.5 244.25,-77.5 297.75,-77.5 297.75,-57.5 244.25,-57.5"/>
<text text-anchor="middle" x="271" y="-64" font-family="Helvetica,sans-Serif" font-size="10.00">compare</text>
</a>
</g>
</g>
<!-- Node7&#45;&gt;Node18 -->
<g id="edge21" class="edge">
<title>Node7&#45;&gt;Node18</title>
<path fill="none" stroke="midnightblue" d="M141.25,-114.54C166.92,-105.43 206.91,-91.24 235.71,-81.02"/>
<polygon fill="midnightblue" stroke="midnightblue" points="236.51,-84.1 244.76,-77.46 234.17,-77.5 236.51,-84.1"/>
</g>
<!-- Node8&#45;&gt;Node8 -->
<g id="edge8" class="edge">
<title>Node8&#45;&gt;Node8</title>
<path fill="none" stroke="midnightblue" d="M545.55,-77.43C557.05,-79.83 568,-76.52 568,-67.5 568,-61.44 563.06,-57.96 556.33,-57.05"/>
<polygon fill="midnightblue" stroke="midnightblue" points="556.37,-53.59 546.55,-57.57 556.71,-60.59 556.37,-53.59"/>
</g>
<!-- Node9 -->
<g id="node9" class="node">
<title>Node9</title>
<g id="a_node9"><a xlink:title=" ">
<polygon fill="none" stroke="#bfbfbf" points="431.5,-0.5 431.5,-20.5 474.5,-20.5 474.5,-0.5 431.5,-0.5"/>
<text text-anchor="middle" x="453" y="-7" font-family="Helvetica,sans-Serif" font-size="10.00">cmath</text>
</a>
</g>
</g>
<!-- Node8&#45;&gt;Node9 -->
<g id="edge9" class="edge">
<title>Node8&#45;&gt;Node9</title>
<path fill="none" stroke="midnightblue" d="M515.11,-57.66C503.96,-49.37 487.04,-36.8 473.68,-26.87"/>
<polygon fill="midnightblue" stroke="midnightblue" points="476.22,-23.65 466.11,-20.5 472.04,-29.27 476.22,-23.65"/>
</g>
<!-- Node10 -->
<g id="node10" class="node">
<title>Node10</title>
<g id="a_node10"><a xlink:title=" ">
<polygon fill="none" stroke="#bfbfbf" points="819.38,-0.5 819.38,-20.5 858.62,-20.5 858.62,-0.5 819.38,-0.5"/>
<text text-anchor="middle" x="839" y="-7" font-family="Helvetica,sans-Serif" font-size="10.00">limits</text>
</a>
</g>
</g>
<!-- Node8&#45;&gt;Node10 -->
<g id="edge10" class="edge">
<title>Node8&#45;&gt;Node10</title>
<path fill="none" stroke="midnightblue" d="M549.94,-62.46C605.45,-52.67 747,-27.72 809.06,-16.78"/>
<polygon fill="midnightblue" stroke="midnightblue" points="809.45,-20.09 818.69,-14.9 808.23,-13.19 809.45,-20.09"/>
</g>
<!-- Node11 -->
<g id="node11" class="node">
<title>Node11</title>
<g id="a_node11"><a xlink:title=" ">
<polygon fill="none" stroke="#bfbfbf" points="496.25,-0.5 496.25,-20.5 549.75,-20.5 549.75,-0.5 496.25,-0.5"/>
<text text-anchor="middle" x="523" y="-7" font-family="Helvetica,sans-Serif" font-size="10.00">numbers</text>
</a>
</g>
</g>
<!-- Node8&#45;&gt;Node11 -->
<g id="edge11" class="edge">
<title>Node8&#45;&gt;Node11</title>
<path fill="none" stroke="midnightblue" d="M526.38,-57.91C525.86,-50.76 525.1,-40.32 524.43,-31.15"/>
<polygon fill="midnightblue" stroke="midnightblue" points="527.85,-30.93 523.63,-21.21 520.87,-31.44 527.85,-30.93"/>
</g>
<!-- Node12 -->
<g id="node12" class="node">
<title>Node12</title>
<g id="a_node12"><a xlink:title=" ">
<polygon fill="none" stroke="#bfbfbf" points="567.88,-0.5 567.88,-20.5 616.12,-20.5 616.12,-0.5 567.88,-0.5"/>
<text text-anchor="middle" x="592" y="-7" font-family="Helvetica,sans-Serif" font-size="10.00">random</text>
</a>
</g>
</g>
<!-- Node8&#45;&gt;Node12 -->
<g id="edge12" class="edge">
<title>Node8&#45;&gt;Node12</title>
<path fill="none" stroke="midnightblue" d="M537.44,-57.66C547.05,-49.53 561.53,-37.28 573.16,-27.44"/>
<polygon fill="midnightblue" stroke="midnightblue" points="574.99,-29.63 580.37,-20.5 570.47,-24.29 574.99,-29.63"/>
</g>
<!-- Node13&#45;&gt;Node14 -->
<g id="edge14" class="edge">
<title>Node13&#45;&gt;Node14</title>
<path fill="none" stroke="midnightblue" d="M177.19,-57.66C194.09,-48.97 220.15,-35.58 239.85,-25.45"/>
<polygon fill="midnightblue" stroke="midnightblue" points="241.2,-28.18 248.5,-20.5 238,-21.96 241.2,-28.18"/>
</g>
<!-- Node15&#45;&gt;Node9 -->
<g id="edge17" class="edge">
<title>Node15&#45;&gt;Node9</title>
<path fill="none" stroke="midnightblue" d="M393.41,-57.66C404.01,-49.45 420.03,-37.04 432.79,-27.15"/>
<polygon fill="midnightblue" stroke="midnightblue" points="434.62,-29.39 440.39,-20.5 430.34,-23.85 434.62,-29.39"/>
</g>
<!-- Node15&#45;&gt;Node14 -->
<g id="edge19" class="edge">
<title>Node15&#45;&gt;Node14</title>
<path fill="none" stroke="midnightblue" d="M363.27,-57.54C344.89,-48.75 316.62,-35.23 295.47,-25.11"/>
<polygon fill="midnightblue" stroke="midnightblue" points="297.26,-21.61 286.72,-20.46 294.24,-27.93 297.26,-21.61"/>
</g>
<!-- Node15&#45;&gt;Node16 -->
<g id="edge16" class="edge">
<title>Node15&#45;&gt;Node16</title>
<path fill="none" stroke="midnightblue" d="M354.01,-60.06C349.33,-59.02 344.53,-57.96 340,-57 268.79,-41.84 184.73,-25.46 141.29,-17.1"/>
<polygon fill="midnightblue" stroke="midnightblue" points="142.13,-13.5 131.65,-15.06 140.81,-20.38 142.13,-13.5"/>
</g>
<!-- Node15&#45;&gt;Node17 -->
<g id="edge18" class="edge">
<title>Node15&#45;&gt;Node17</title>
<path fill="none" stroke="midnightblue" d="M382,-57.91C382,-50.76 382,-40.32 382,-31.15"/>
<polygon fill="midnightblue" stroke="midnightblue" points="385.5,-31.21 382,-21.21 378.5,-31.21 385.5,-31.21"/>
</g>
<!-- Node20 -->
<g id="node20" class="node">
<title>Node20</title>
<g id="a_node20"><a xlink:href="_engine_exception_8h.html" target="_top" xlink:title=" ">
<polygon fill="none" stroke="black" points="822.12,-171.5 822.12,-191.5 919.88,-191.5 919.88,-171.5 822.12,-171.5"/>
<text text-anchor="middle" x="871" y="-178" font-family="Helvetica,sans-Serif" font-size="10.00">EngineException.h</text>
</a>
</g>
</g>
<!-- Node19&#45;&gt;Node20 -->
<g id="edge26" class="edge">
<title>Node19&#45;&gt;Node20</title>
<path fill="none" stroke="midnightblue" d="M719.4,-291.04C765.85,-285.21 849.41,-271.79 868,-249 878.6,-236 878.15,-216.35 875.76,-201.78"/>
<polygon fill="midnightblue" stroke="midnightblue" points="879.07,-201.49 873.61,-192.41 872.21,-202.91 879.07,-201.49"/>
</g>
<!-- Node22 -->
<g id="node22" class="node">
<title>Node22</title>
<g id="a_node22"><a xlink:href="_vector3_8h.html" target="_top" xlink:title=" ">
<polygon fill="none" stroke="black" points="380.88,-114.5 380.88,-134.5 501.12,-134.5 501.12,-114.5 380.88,-114.5"/>
<text text-anchor="middle" x="441" y="-121" font-family="Helvetica,sans-Serif" font-size="10.00">LinearAlgebra/Vector3.h</text>
</a>
</g>
</g>
<!-- Node19&#45;&gt;Node22 -->
<g id="edge28" class="edge">
<title>Node19&#45;&gt;Node22</title>
<path fill="none" stroke="midnightblue" d="M656.53,-287.41C628.44,-280.26 586.8,-267.61 554,-249 520,-229.71 513.23,-220.99 487,-192 473.21,-176.76 460.14,-157.19 451.48,-143.24"/>
<polygon fill="midnightblue" stroke="midnightblue" points="454.19,-141.95 446.01,-135.21 448.2,-145.57 454.19,-141.95"/>
</g>
<!-- Node23 -->
<g id="node23" class="node">
<title>Node23</title>
<g id="a_node23"><a xlink:href="_g_d_i_plus_manager_8h.html" target="_top" xlink:title=" ">
<polygon fill="none" stroke="black" points="639.12,-228.5 639.12,-248.5 736.88,-248.5 736.88,-228.5 639.12,-228.5"/>
<text text-anchor="middle" x="688" y="-235" font-family="Helvetica,sans-Serif" font-size="10.00">GDIPlusManager.h</text>
</a>
</g>
</g>
<!-- Node19&#45;&gt;Node23 -->
<g id="edge35" class="edge">
<title>Node19&#45;&gt;Node23</title>
<path fill="none" stroke="midnightblue" d="M688,-285.91C688,-278.76 688,-268.32 688,-259.15"/>
<polygon fill="midnightblue" stroke="midnightblue" points="691.5,-259.21 688,-249.21 684.5,-259.21 691.5,-259.21"/>
</g>
<!-- Node27 -->
<g id="node27" class="node">
<title>Node27</title>
<g id="a_node27"><a xlink:href="_surface_8h.html" target="_top" xlink:title=" ">
<polygon fill="none" stroke="black" points="563.38,-228.5 563.38,-248.5 620.62,-248.5 620.62,-228.5 563.38,-228.5"/>
<text text-anchor="middle" x="592" y="-235" font-family="Helvetica,sans-Serif" font-size="10.00">Surface.h</text>
</a>
</g>
</g>
<!-- Node19&#45;&gt;Node27 -->
<g id="edge39" class="edge">
<title>Node19&#45;&gt;Node27</title>
<path fill="none" stroke="midnightblue" d="M672.58,-285.66C657.55,-277.05 634.46,-263.83 616.84,-253.73"/>
<polygon fill="midnightblue" stroke="midnightblue" points="619.12,-250.43 608.7,-248.5 615.64,-256.51 619.12,-250.43"/>
</g>
<!-- Node32 -->
<g id="node32" class="node">
<title>Node32</title>
<g id="a_node32"><a xlink:title=" ">
<polygon fill="none" stroke="#bfbfbf" points="754.75,-228.5 754.75,-248.5 805.25,-248.5 805.25,-228.5 754.75,-228.5"/>
<text text-anchor="middle" x="780" y="-235" font-family="Helvetica,sans-Serif" font-size="10.00">d3d11.h</text>
</a>
</g>
</g>
<!-- Node19&#45;&gt;Node32 -->
<g id="edge48" class="edge">
<title>Node19&#45;&gt;Node32</title>
<path fill="none" stroke="midnightblue" d="M702.78,-285.66C717.05,-277.13 738.9,-264.07 755.72,-254.01"/>
<polygon fill="midnightblue" stroke="midnightblue" points="757.16,-256.63 763.95,-248.5 753.57,-250.62 757.16,-256.63"/>
</g>
<!-- Node33 -->
<g id="node33" class="node">
<title>Node33</title>
<g id="a_node33"><a xlink:title=" ">
<polygon fill="none" stroke="#bfbfbf" points="822.88,-228.5 822.88,-248.5 859.12,-248.5 859.12,-228.5 822.88,-228.5"/>
<text text-anchor="middle" x="841" y="-235" font-family="Helvetica,sans-Serif" font-size="10.00">wrl.h</text>
</a>
</g>
</g>
<!-- Node19&#45;&gt;Node33 -->
<g id="edge49" class="edge">
<title>Node19&#45;&gt;Node33</title>
<path fill="none" stroke="midnightblue" d="M712.92,-285.54C740.4,-275.66 784.51,-259.81 813.12,-249.52"/>
<polygon fill="midnightblue" stroke="midnightblue" points="814.03,-252.56 822.26,-245.88 811.66,-245.97 814.03,-252.56"/>
</g>
<!-- Node20&#45;&gt;Node21 -->
<g id="edge27" class="edge">
<title>Node20&#45;&gt;Node21</title>
<path fill="none" stroke="midnightblue" d="M847.05,-171.54C821.63,-162.03 781.4,-146.97 753.91,-136.69"/>
<polygon fill="midnightblue" stroke="midnightblue" points="755.29,-133.1 744.7,-132.87 752.83,-139.65 755.29,-133.1"/>
</g>
<!-- Node22&#45;&gt;Node8 -->
<g id="edge29" class="edge">
<title>Node22&#45;&gt;Node8</title>
<path fill="none" stroke="midnightblue" d="M454.82,-114.66C468.03,-106.21 488.2,-93.31 503.86,-83.3"/>
<polygon fill="midnightblue" stroke="midnightblue" points="505.39,-85.83 511.93,-77.5 501.62,-79.94 505.39,-85.83"/>
</g>
<!-- Node22&#45;&gt;Node14 -->
<g id="edge32" class="edge">
<title>Node22&#45;&gt;Node14</title>
<path fill="none" stroke="midnightblue" d="M440.6,-114.84C439.48,-100.73 435.22,-72.76 419,-57 388.21,-27.08 338.56,-16.72 304.43,-13.2"/>
<polygon fill="midnightblue" stroke="midnightblue" points="304.77,-9.63 294.5,-12.25 304.16,-16.61 304.77,-9.63"/>
</g>
<!-- Node22&#45;&gt;Node15 -->
<g id="edge30" class="edge">
<title>Node22&#45;&gt;Node15</title>
<path fill="none" stroke="midnightblue" d="M431.52,-114.66C422.88,-106.61 409.91,-94.52 399.41,-84.73"/>
<polygon fill="midnightblue" stroke="midnightblue" points="402.35,-82.76 392.65,-78.5 397.58,-87.88 402.35,-82.76"/>
</g>
<!-- Node22&#45;&gt;Node16 -->
<g id="edge31" class="edge">
<title>Node22&#45;&gt;Node16</title>
<path fill="none" stroke="midnightblue" d="M421.34,-114.62C401.81,-105.69 371.1,-91.38 345,-78 327.83,-69.2 325.01,-63.92 307,-57 250.3,-35.2 180.14,-21.96 141.32,-15.75"/>
<polygon fill="midnightblue" stroke="midnightblue" points="142.21,-12.19 131.79,-14.12 141.13,-19.11 142.21,-12.19"/>
</g>
<!-- Node22&#45;&gt;Node17 -->
<g id="edge34" class="edge">
<title>Node22&#45;&gt;Node17</title>
<path fill="none" stroke="midnightblue" d="M445.77,-114.74C452.31,-101.43 462.16,-75.72 452,-57 444.1,-42.44 429.31,-31.82 415.35,-24.51"/>
<polygon fill="midnightblue" stroke="midnightblue" points="416.97,-20.93 406.44,-19.77 413.95,-27.24 416.97,-20.93"/>
</g>
<!-- Node22&#45;&gt;Node18 -->
<g id="edge33" class="edge">
<title>Node22&#45;&gt;Node18</title>
<path fill="none" stroke="midnightblue" d="M413.31,-114.54C384.57,-105.24 339.47,-90.65 307.76,-80.39"/>
<polygon fill="midnightblue" stroke="midnightblue" points="309.15,-76.84 298.56,-77.09 307,-83.5 309.15,-76.84"/>
</g>
<!-- Node24 -->
<g id="node24" class="node">
<title>Node24</title>
<g id="a_node24"><a xlink:href="_win_8h.html" target="_top" xlink:title=" ">
<polygon fill="none" stroke="black" points="938.25,-171.5 938.25,-191.5 979.75,-191.5 979.75,-171.5 938.25,-171.5"/>
<text text-anchor="middle" x="959" y="-178" font-family="Helvetica,sans-Serif" font-size="10.00">Win.h</text>
</a>
</g>
</g>
<!-- Node23&#45;&gt;Node24 -->
<g id="edge36" class="edge">
<title>Node23&#45;&gt;Node24</title>
<path fill="none" stroke="midnightblue" d="M736.83,-229C792.04,-219.27 879.56,-203.46 927.89,-191.97"/>
<polygon fill="midnightblue" stroke="midnightblue" points="928.57,-195.16 937.44,-189.37 926.89,-188.37 928.57,-195.16"/>
</g>
<!-- Node25 -->
<g id="node25" class="node">
<title>Node25</title>
<g id="a_node25"><a xlink:title=" ">
<polygon fill="none" stroke="#bfbfbf" points="929.12,-114.5 929.12,-134.5 996.88,-134.5 996.88,-114.5 929.12,-114.5"/>
<text text-anchor="middle" x="963" y="-121" font-family="Helvetica,sans-Serif" font-size="10.00">sdkddkver.h</text>
</a>
</g>
</g>
<!-- Node24&#45;&gt;Node25 -->
<g id="edge37" class="edge">
<title>Node24&#45;&gt;Node25</title>
<path fill="none" stroke="midnightblue" d="M959.62,-171.91C960.14,-164.76 960.9,-154.32 961.57,-145.15"/>
<polygon fill="midnightblue" stroke="midnightblue" points="965.13,-145.44 962.37,-135.21 958.15,-144.93 965.13,-145.44"/>
</g>
<!-- Node26 -->
<g id="node26" class="node">
<title>Node26</title>
<g id="a_node26"><a xlink:title=" ">
<polygon fill="none" stroke="#bfbfbf" points="847,-114.5 847,-134.5 911,-134.5 911,-114.5 847,-114.5"/>
<text text-anchor="middle" x="879" y="-121" font-family="Helvetica,sans-Serif" font-size="10.00">Windows.h</text>
</a>
</g>
</g>
<!-- Node24&#45;&gt;Node26 -->
<g id="edge38" class="edge">
<title>Node24&#45;&gt;Node26</title>
<path fill="none" stroke="midnightblue" d="M946.15,-171.66C933.97,-163.29 915.45,-150.56 900.94,-140.58"/>
<polygon fill="midnightblue" stroke="midnightblue" points="903.31,-137.28 893.09,-134.5 899.34,-143.05 903.31,-137.28"/>
</g>
<!-- Node27&#45;&gt;Node20 -->
<g id="edge43" class="edge">
<title>Node27&#45;&gt;Node20</title>
<path fill="none" stroke="midnightblue" d="M620.59,-230.16C623.76,-229.41 626.94,-228.67 630,-228 691.67,-214.48 762.76,-201.36 811.66,-192.71"/>
<polygon fill="midnightblue" stroke="midnightblue" points="812.12,-196 821.36,-190.82 810.91,-189.11 812.12,-196"/>
</g>
<!-- Node27&#45;&gt;Node21 -->
<g id="edge46" class="edge">
<title>Node27&#45;&gt;Node21</title>
<path fill="none" stroke="midnightblue" d="M620.53,-229.17C650.02,-220.03 693.36,-204.93 705,-192 716.55,-179.17 721.12,-159.78 722.91,-145.25"/>
<polygon fill="midnightblue" stroke="midnightblue" points="726.47,-145.69 723.85,-135.43 719.49,-145.09 726.47,-145.69"/>
</g>
<!-- Node27&#45;&gt;Node24 -->
<g id="edge40" class="edge">
<title>Node27&#45;&gt;Node24</title>
<path fill="none" stroke="midnightblue" d="M620.55,-229.96C623.73,-229.24 626.92,-228.57 630,-228 758.29,-204.34 796.27,-219.51 927.99,-191.81"/>
<polygon fill="midnightblue" stroke="midnightblue" points="928.44,-195.08 937.48,-189.55 926.97,-188.23 928.44,-195.08"/>
</g>
<!-- Node28 -->
<g id="node28" class="node">
<title>Node28</title>
<g id="a_node28"><a xlink:href="_colors_8h.html" target="_top" xlink:title=" ">
<polygon fill="none" stroke="black" points="496,-171.5 496,-191.5 548,-191.5 548,-171.5 496,-171.5"/>
<text text-anchor="middle" x="522" y="-178" font-family="Helvetica,sans-Serif" font-size="10.00">Colors.h</text>
</a>
</g>
</g>
<!-- Node27&#45;&gt;Node28 -->
<g id="edge41" class="edge">
<title>Node27&#45;&gt;Node28</title>
<path fill="none" stroke="midnightblue" d="M580.75,-228.66C570.3,-220.45 554.51,-208.04 541.92,-198.15"/>
<polygon fill="midnightblue" stroke="midnightblue" points="544.48,-194.92 534.45,-191.5 540.15,-200.43 544.48,-194.92"/>
</g>
<!-- Node29 -->
<g id="node29" class="node">
<title>Node29</title>
<g id="a_node29"><a xlink:title=" ">
<polygon fill="none" stroke="#bfbfbf" points="752.38,-171.5 752.38,-191.5 803.62,-191.5 803.62,-171.5 752.38,-171.5"/>
<text text-anchor="middle" x="778" y="-178" font-family="Helvetica,sans-Serif" font-size="10.00">assert.h</text>
</a>
</g>
</g>
<!-- Node27&#45;&gt;Node29 -->
<g id="edge44" class="edge">
<title>Node27&#45;&gt;Node29</title>
<path fill="none" stroke="midnightblue" d="M620.25,-229.15C652.85,-219.51 706.53,-203.63 742.08,-193.12"/>
<polygon fill="midnightblue" stroke="midnightblue" points="742.88,-196.24 751.48,-190.05 740.9,-189.53 742.88,-196.24"/>
</g>
<!-- Node30 -->
<g id="node30" class="node">
<title>Node30</title>
<g id="a_node30"><a xlink:title=" ">
<polygon fill="none" stroke="#bfbfbf" points="566.38,-171.5 566.38,-191.5 617.62,-191.5 617.62,-171.5 566.38,-171.5"/>
<text text-anchor="middle" x="592" y="-178" font-family="Helvetica,sans-Serif" font-size="10.00">memory</text>
</a>
</g>
</g>
<!-- Node27&#45;&gt;Node30 -->
<g id="edge45" class="edge">
<title>Node27&#45;&gt;Node30</title>
<path fill="none" stroke="midnightblue" d="M592,-228.91C592,-221.76 592,-211.32 592,-202.15"/>
<polygon fill="midnightblue" stroke="midnightblue" points="595.5,-202.21 592,-192.21 588.5,-202.21 595.5,-202.21"/>
</g>
<!-- Node31 -->
<g id="node31" class="node">
<title>Node31</title>
<g id="a_node31"><a xlink:title=" ">
<polygon fill="none" stroke="#bfbfbf" points="635.88,-171.5 635.88,-191.5 696.12,-191.5 696.12,-171.5 635.88,-171.5"/>
<text text-anchor="middle" x="666" y="-178" font-family="Helvetica,sans-Serif" font-size="10.00">filesystem</text>
</a>
</g>
</g>
<!-- Node27&#45;&gt;Node31 -->
<g id="edge47" class="edge">
<title>Node27&#45;&gt;Node31</title>
<path fill="none" stroke="midnightblue" d="M603.89,-228.66C615.04,-220.37 631.96,-207.8 645.32,-197.87"/>
<polygon fill="midnightblue" stroke="midnightblue" points="646.96,-200.27 652.89,-191.5 642.78,-194.65 646.96,-200.27"/>
</g>
<!-- Node28&#45;&gt;Node22 -->
<g id="edge42" class="edge">
<title>Node28&#45;&gt;Node22</title>
<path fill="none" stroke="midnightblue" d="M508.99,-171.66C496.66,-163.29 477.9,-150.56 463.21,-140.58"/>
<polygon fill="midnightblue" stroke="midnightblue" points="465.49,-137.22 455.25,-134.5 461.56,-143.01 465.49,-137.22"/>
</g>
<!-- Node34&#45;&gt;Node7 -->
<g id="edge55" class="edge">
<title>Node34&#45;&gt;Node7</title>
<path fill="none" stroke="midnightblue" d="M122.45,-228.71C121.33,-210.8 118.76,-169.69 117.23,-145.11"/>
<polygon fill="midnightblue" stroke="midnightblue" points="120.66,-145.01 116.55,-135.25 113.68,-145.45 120.66,-145.01"/>
</g>
<!-- Node34&#45;&gt;Node16 -->
<g id="edge57" class="edge">
<title>Node34&#45;&gt;Node16</title>
<path fill="none" stroke="midnightblue" d="M113.08,-228.54C95.67,-212.07 60.2,-174.97 47,-135 33.53,-94.22 69.87,-50.71 93.5,-27.8"/>
<polygon fill="midnightblue" stroke="midnightblue" points="95.59,-30.71 100.52,-21.33 90.82,-25.59 95.59,-30.71"/>
</g>
<!-- Node34&#45;&gt;Node22 -->
<g id="edge56" class="edge">
<title>Node34&#45;&gt;Node22</title>
<path fill="none" stroke="midnightblue" d="M133.34,-228.51C152.38,-212.15 192.5,-178.49 209,-171 260.15,-147.79 322.9,-136.4 370.24,-130.81"/>
<polygon fill="midnightblue" stroke="midnightblue" points="370.46,-134.2 380.01,-129.61 369.69,-127.24 370.46,-134.2"/>
</g>
<!-- Node35 -->
<g id="node35" class="node">
<title>Node35</title>
<g id="a_node35"><a xlink:href="_indexed_triangle_list_8h.html" target="_top" xlink:title=" ">
<polygon fill="none" stroke="black" points="218.25,-171.5 218.25,-191.5 325.75,-191.5 325.75,-171.5 218.25,-171.5"/>
<text text-anchor="middle" x="272" y="-178" font-family="Helvetica,sans-Serif" font-size="10.00">IndexedTriangleList.h</text>
</a>
</g>
</g>
<!-- Node34&#45;&gt;Node35 -->
<g id="edge52" class="edge">
<title>Node34&#45;&gt;Node35</title>
<path fill="none" stroke="midnightblue" d="M147.27,-228.54C171.84,-219.47 210.05,-205.37 237.71,-195.16"/>
<polygon fill="midnightblue" stroke="midnightblue" points="238.57,-198.2 246.74,-191.46 236.15,-191.63 238.57,-198.2"/>
</g>
<!-- Node36 -->
<g id="node36" class="node">
<title>Node36</title>
<g id="a_node36"><a xlink:title=" ">
<polygon fill="none" stroke="#bfbfbf" points="244.25,-114.5 244.25,-134.5 285.75,-134.5 285.75,-114.5 244.25,-114.5"/>
<text text-anchor="middle" x="265" y="-121" font-family="Helvetica,sans-Serif" font-size="10.00">vector</text>
</a>
</g>
</g>
<!-- Node34&#45;&gt;Node36 -->
<g id="edge58" class="edge">
<title>Node34&#45;&gt;Node36</title>
<path fill="none" stroke="midnightblue" d="M128.23,-228.76C136.79,-215.02 154.97,-188.19 176,-171 193.52,-156.68 216.29,-145.14 234.41,-137.27"/>
<polygon fill="midnightblue" stroke="midnightblue" points="235.59,-140.15 243.46,-133.06 232.89,-133.69 235.59,-140.15"/>
</g>
<!-- Node35&#45;&gt;Node22 -->
<g id="edge53" class="edge">
<title>Node35&#45;&gt;Node22</title>
<path fill="none" stroke="midnightblue" d="M299.53,-171.54C327.76,-162.35 371.88,-147.99 403.34,-137.76"/>
<polygon fill="midnightblue" stroke="midnightblue" points="404.06,-140.88 412.48,-134.46 401.89,-134.22 404.06,-140.88"/>
</g>
<!-- Node35&#45;&gt;Node36 -->
<g id="edge54" class="edge">
<title>Node35&#45;&gt;Node36</title>
<path fill="none" stroke="midnightblue" d="M270.91,-171.91C269.99,-164.68 268.64,-154.09 267.46,-144.85"/>
<polygon fill="midnightblue" stroke="midnightblue" points="270.84,-144.69 266.11,-135.21 263.9,-145.58 270.84,-144.69"/>
</g>
<!-- Node38 -->
<g id="node38" class="node">
<title>Node38</title>
<g id="a_node38"><a xlink:href="_pipeline_8h.html" target="_top" xlink:title=" ">
<polygon fill="none" stroke="black" points="474.62,-399.5 474.62,-419.5 533.38,-419.5 533.38,-399.5 474.62,-399.5"/>
<text text-anchor="middle" x="504" y="-406" font-family="Helvetica,sans-Serif" font-size="10.00">Pipeline.h</text>
</a>
</g>
</g>
<!-- Node37&#45;&gt;Node38 -->
<g id="edge61" class="edge">
<title>Node37&#45;&gt;Node38</title>
<path fill="none" stroke="midnightblue" d="M444.88,-456.73C456.81,-447.41 472.2,-435.37 484.28,-425.92"/>
<polygon fill="midnightblue" stroke="midnightblue" points="486.05,-428.2 491.77,-419.28 481.73,-422.69 486.05,-428.2"/>
</g>
<!-- Node38&#45;&gt;Node15 -->
<g id="edge69" class="edge">
<title>Node38&#45;&gt;Node15</title>
<path fill="none" stroke="midnightblue" d="M502.14,-399.68C499.26,-386.75 493.2,-362 485,-342 445.25,-245.02 397.92,-236.56 372,-135 367.98,-119.25 371.29,-100.96 375.15,-87.56"/>
<polygon fill="midnightblue" stroke="midnightblue" points="378.74,-88.81 378.51,-78.22 372.09,-86.65 378.74,-88.81"/>
</g>
<!-- Node38&#45;&gt;Node19 -->
<g id="edge63" class="edge">
<title>Node38&#45;&gt;Node19</title>
<path fill="none" stroke="midnightblue" d="M533.27,-408.66C569.97,-407.24 632.48,-399.18 669,-363 681.52,-350.6 685.93,-330.56 687.41,-315.72"/>
<polygon fill="midnightblue" stroke="midnightblue" points="690.94,-316.37 688.07,-306.17 683.95,-315.93 690.94,-316.37"/>
</g>
<!-- Node38&#45;&gt;Node24 -->
<g id="edge62" class="edge">
<title>Node38&#45;&gt;Node24</title>
<path fill="none" stroke="midnightblue" d="M533.31,-403.94C570.48,-397.56 636.08,-384.32 689,-363 782.83,-325.21 804.36,-308.74 886,-249 907.05,-233.6 928.86,-213.02 943.1,-198.85"/>
<polygon fill="midnightblue" stroke="midnightblue" points="944.99,-201.91 949.54,-192.34 940.01,-196.98 944.99,-201.91"/>
</g>
<!-- Node38&#45;&gt;Node35 -->
<g id="edge65" class="edge">
<title>Node38&#45;&gt;Node35</title>
<path fill="none" stroke="midnightblue" d="M474.66,-408.93C437.16,-407.83 372.6,-400.17 335,-363 290.67,-319.18 320.61,-285.69 297,-228 293.16,-218.62 287.87,-208.69 283.14,-200.52"/>
<polygon fill="midnightblue" stroke="midnightblue" points="285.74,-199.05 277.61,-192.27 279.74,-202.64 285.74,-199.05"/>
</g>
<!-- Node39 -->
<g id="node39" class="node">
<title>Node39</title>
<g id="a_node39"><a xlink:href="_triangle_8h.html" target="_top" xlink:title=" ">
<polygon fill="none" stroke="black" points="344,-342.5 344,-362.5 402,-362.5 402,-342.5 344,-342.5"/>
<text text-anchor="middle" x="373" y="-349" font-family="Helvetica,sans-Serif" font-size="10.00">Triangle.h</text>
</a>
</g>
</g>
<!-- Node38&#45;&gt;Node39 -->
<g id="edge64" class="edge">
<title>Node38&#45;&gt;Node39</title>
<path fill="none" stroke="midnightblue" d="M482.66,-399.54C461.44,-390.63 428.65,-376.86 404.44,-366.7"/>
<polygon fill="midnightblue" stroke="midnightblue" points="405.91,-363.1 395.33,-362.46 403.2,-369.55 405.91,-363.1"/>
</g>
<!-- Node40 -->
<g id="node40" class="node">
<title>Node40</title>
<g id="a_node40"><a xlink:href="_pube_screen_transformer_8h.html" target="_top" xlink:title=" ">
<polygon fill="none" stroke="black" points="531.75,-342.5 531.75,-362.5 660.25,-362.5 660.25,-342.5 531.75,-342.5"/>
<text text-anchor="middle" x="596" y="-349" font-family="Helvetica,sans-Serif" font-size="10.00">PubeScreenTransformer.h</text>
</a>
</g>
</g>
<!-- Node38&#45;&gt;Node40 -->
<g id="edge66" class="edge">
<title>Node38&#45;&gt;Node40</title>
<path fill="none" stroke="midnightblue" d="M518.78,-399.66C533.05,-391.13 554.9,-378.07 571.72,-368.01"/>
<polygon fill="midnightblue" stroke="midnightblue" points="573.16,-370.63 579.95,-362.5 569.57,-364.62 573.16,-370.63"/>
</g>
<!-- Node41 -->
<g id="node41" class="node">
<title>Node41</title>
<g id="a_node41"><a xlink:href="_z_buffer_8h.html" target="_top" xlink:title=" ">
<polygon fill="none" stroke="black" points="952.88,-342.5 952.88,-362.5 1007.12,-362.5 1007.12,-342.5 952.88,-342.5"/>
<text text-anchor="middle" x="980" y="-349" font-family="Helvetica,sans-Serif" font-size="10.00">ZBuffer.h</text>
</a>
</g>
</g>
<!-- Node38&#45;&gt;Node41 -->
<g id="edge70" class="edge">
<title>Node38&#45;&gt;Node41</title>
<path fill="none" stroke="midnightblue" d="M533.18,-406.7C603.43,-402.09 787.35,-388.4 939,-363 940.15,-362.81 941.32,-362.6 942.5,-362.38"/>
<polygon fill="midnightblue" stroke="midnightblue" points="943.09,-365.63 952.19,-360.21 941.69,-358.77 943.09,-365.63"/>
</g>
<!-- Node43 -->
<g id="node43" class="node">
<title>Node43</title>
<g id="a_node43"><a xlink:title=" ">
<polygon fill="none" stroke="#bfbfbf" points="420.12,-342.5 420.12,-362.5 475.88,-362.5 475.88,-342.5 420.12,-342.5"/>
<text text-anchor="middle" x="448" y="-349" font-family="Helvetica,sans-Serif" font-size="10.00">algorithm</text>
</a>
</g>
</g>
<!-- Node38&#45;&gt;Node43 -->
<g id="edge73" class="edge">
<title>Node38&#45;&gt;Node43</title>
<path fill="none" stroke="midnightblue" d="M495,-399.66C486.89,-391.69 474.74,-379.76 464.82,-370.02"/>
<polygon fill="midnightblue" stroke="midnightblue" points="467.75,-368.01 458.16,-363.5 462.84,-373 467.75,-368.01"/>
</g>
<!-- Node40&#45;&gt;Node19 -->
<g id="edge67" class="edge">
<title>Node40&#45;&gt;Node19</title>
<path fill="none" stroke="midnightblue" d="M610.78,-342.66C625.05,-334.13 646.9,-321.07 663.72,-311.01"/>
<polygon fill="midnightblue" stroke="midnightblue" points="665.16,-313.63 671.95,-305.5 661.57,-307.62 665.16,-313.63"/>
</g>
<!-- Node40&#45;&gt;Node22 -->
<g id="edge68" class="edge">
<title>Node40&#45;&gt;Node22</title>
<path fill="none" stroke="midnightblue" d="M586.92,-342.59C563.9,-319.58 502.5,-255.49 466,-192 457.26,-176.8 450.52,-157.97 446.25,-144.23"/>
<polygon fill="midnightblue" stroke="midnightblue" points="449.44,-143.68 443.25,-135.08 442.73,-145.66 449.44,-143.68"/>
</g>
<!-- Node41&#45;&gt;Node10 -->
<g id="edge71" class="edge">
<title>Node41&#45;&gt;Node10</title>
<path fill="none" stroke="midnightblue" d="M987.08,-342.57C993.79,-333.73 1003.76,-319.58 1010,-306 1022.83,-278.07 1029,-270.24 1029,-239.5 1029,-239.5 1029,-239.5 1029,-123.5 1029,-50.22 922.81,-23.91 869.2,-15.3"/>
<polygon fill="midnightblue" stroke="midnightblue" points="870.02,-11.73 859.62,-13.72 868.99,-18.66 870.02,-11.73"/>
</g>
<!-- Node42 -->
<g id="node42" class="node">
<title>Node42</title>
<g id="a_node42"><a xlink:title=" ">
<polygon fill="none" stroke="#bfbfbf" points="952.88,-285.5 952.88,-305.5 1001.12,-305.5 1001.12,-285.5 952.88,-285.5"/>
<text text-anchor="middle" x="977" y="-292" font-family="Helvetica,sans-Serif" font-size="10.00">cassert</text>
</a>
</g>
</g>
<!-- Node41&#45;&gt;Node42 -->
<g id="edge72" class="edge">
<title>Node41&#45;&gt;Node42</title>
<path fill="none" stroke="midnightblue" d="M979.53,-342.91C979.14,-335.76 978.57,-325.32 978.07,-316.15"/>
<polygon fill="midnightblue" stroke="midnightblue" points="981.51,-316.01 977.48,-306.21 974.53,-316.39 981.51,-316.01"/>
</g>
</g>
</svg>
