<?xml version="1.0" encoding="UTF-8" standalone="no"?>
<!DOCTYPE svg PUBLIC "-//W3C//DTD SVG 1.1//EN"
 "http://www.w3.org/Graphics/SVG/1.1/DTD/svg11.dtd">
<!-- Generated by graphviz version 8.1.0 (20230707.0739)
 -->
<!-- Title: include/Effects/VertexFlatEffect.h Pages: 1 -->
<svg width="185pt" height="167pt"
 viewBox="0.00 0.00 185.25 167.00" xmlns="http://www.w3.org/2000/svg" xmlns:xlink="http://www.w3.org/1999/xlink">
<g id="graph0" class="graph" transform="scale(1 1) rotate(0) translate(4 163)">
<title>include/Effects/VertexFlatEffect.h</title>
<!-- Node1 -->
<g id="node1" class="node">
<title>Node1</title>
<g id="a_node1"><a xlink:title=" ">
<polygon fill="#bfbfbf" stroke="black" points="24.75,-126.5 24.75,-158.5 152.5,-158.5 152.5,-126.5 24.75,-126.5"/>
<text text-anchor="start" x="32.75" y="-145" font-family="Helvetica,sans-Serif" font-size="10.00">include/Effects/VertexFlat</text>
<text text-anchor="middle" x="88.62" y="-133" font-family="Helvetica,sans-Serif" font-size="10.00">Effect.h</text>
</a>
</g>
</g>
<!-- Node2 -->
<g id="node2" class="node">
<title>Node2</title>
<g id="a_node2"><a xlink:href="_cube_flat_independent_scene_8h.html" target="_top" xlink:title=" ">
<polygon fill="none" stroke="black" points="0,-57.5 0,-89.5 177.25,-89.5 177.25,-57.5 0,-57.5"/>
<text text-anchor="start" x="8" y="-76" font-family="Helvetica,sans-Serif" font-size="10.00">include/Scenes/CubeFlatIndependent</text>
<text text-anchor="middle" x="88.62" y="-64" font-family="Helvetica,sans-Serif" font-size="10.00">Scene.h</text>
</a>
</g>
</g>
<!-- Node1&#45;&gt;Node2 -->
<g id="edge1" class="edge">
<title>Node1&#45;&gt;Node2</title>
<path fill="none" stroke="midnightblue" d="M88.62,-115.89C88.62,-106.91 88.62,-97.13 88.62,-89.33"/>
<polygon fill="midnightblue" stroke="midnightblue" points="85.13,-115.63 88.62,-125.63 92.13,-115.63 85.13,-115.63"/>
</g>
<!-- Node3 -->
<g id="node3" class="node">
<title>Node3</title>
<g id="a_node3"><a xlink:href="_engine_8cpp.html" target="_top" xlink:title=" ">
<polygon fill="none" stroke="black" points="48,-0.5 48,-20.5 129.25,-20.5 129.25,-0.5 48,-0.5"/>
<text text-anchor="middle" x="88.62" y="-7" font-family="Helvetica,sans-Serif" font-size="10.00">src/Engine.cpp</text>
</a>
</g>
</g>
<!-- Node2&#45;&gt;Node3 -->
<g id="edge2" class="edge">
<title>Node2&#45;&gt;Node3</title>
<path fill="none" stroke="midnightblue" d="M88.62,-46.77C88.62,-37.31 88.62,-27.24 88.62,-20.28"/>
<polygon fill="midnightblue" stroke="midnightblue" points="85.13,-46.73 88.62,-56.73 92.13,-46.73 85.13,-46.73"/>
</g>
</g>
</svg>
