<?xml version="1.0" encoding="UTF-8" standalone="no"?>
<!DOCTYPE svg PUBLIC "-//W3C//DTD SVG 1.1//EN"
 "http://www.w3.org/Graphics/SVG/1.1/DTD/svg11.dtd">
<!-- Generated by graphviz version 8.1.0 (20230707.0739)
 -->
<!-- Title: include/Effect/VertexColorEffect.h Pages: 1 -->
<svg width="802pt" height="497pt"
 viewBox="0.00 0.00 801.88 497.00" xmlns="http://www.w3.org/2000/svg" xmlns:xlink="http://www.w3.org/1999/xlink">
<g id="graph0" class="graph" transform="scale(1 1) rotate(0) translate(4 493)">
<title>include/Effect/VertexColorEffect.h</title>
<!-- Node1 -->
<g id="node1" class="node">
<title>Node1</title>
<g id="a_node1"><a xlink:title=" ">
<polygon fill="#bfbfbf" stroke="black" points="299.88,-456.5 299.88,-488.5 428.38,-488.5 428.38,-456.5 299.88,-456.5"/>
<text text-anchor="start" x="307.88" y="-475" font-family="Helvetica,sans-Serif" font-size="10.00">include/Effect/VertexColor</text>
<text text-anchor="middle" x="364.13" y="-463" font-family="Helvetica,sans-Serif" font-size="10.00">Effect.h</text>
</a>
</g>
</g>
<!-- Node2 -->
<g id="node2" class="node">
<title>Node2</title>
<g id="a_node2"><a xlink:href="_pipeline_8h.html" target="_top" xlink:title=" ">
<polygon fill="none" stroke="black" points="334.75,-399.5 334.75,-419.5 393.5,-419.5 393.5,-399.5 334.75,-399.5"/>
<text text-anchor="middle" x="364.13" y="-406" font-family="Helvetica,sans-Serif" font-size="10.00">Pipeline.h</text>
</a>
</g>
</g>
<!-- Node1&#45;&gt;Node2 -->
<g id="edge1" class="edge">
<title>Node1&#45;&gt;Node2</title>
<path fill="none" stroke="midnightblue" d="M364.13,-456.73C364.13,-448.78 364.13,-438.85 364.13,-430.24"/>
<polygon fill="midnightblue" stroke="midnightblue" points="367.63,-430.28 364.13,-420.28 360.63,-430.28 367.63,-430.28"/>
</g>
<!-- Node3 -->
<g id="node3" class="node">
<title>Node3</title>
<g id="a_node3"><a xlink:href="_win_8h.html" target="_top" xlink:title=" ">
<polygon fill="none" stroke="black" points="42.38,-171.5 42.38,-191.5 83.88,-191.5 83.88,-171.5 42.38,-171.5"/>
<text text-anchor="middle" x="63.13" y="-178" font-family="Helvetica,sans-Serif" font-size="10.00">Win.h</text>
</a>
</g>
</g>
<!-- Node2&#45;&gt;Node3 -->
<g id="edge2" class="edge">
<title>Node2&#45;&gt;Node3</title>
<path fill="none" stroke="midnightblue" d="M335.05,-403.56C271.32,-390.97 120.1,-351.19 58.13,-249 49.59,-234.92 52.08,-215.97 55.98,-201.9"/>
<polygon fill="midnightblue" stroke="midnightblue" points="59.62,-203.03 59.38,-192.44 52.96,-200.87 59.62,-203.03"/>
</g>
<!-- Node6 -->
<g id="node6" class="node">
<title>Node6</title>
<g id="a_node6"><a xlink:href="_graphics_8h.html" target="_top" xlink:title=" ">
<polygon fill="none" stroke="black" points="275.5,-285.5 275.5,-305.5 338.75,-305.5 338.75,-285.5 275.5,-285.5"/>
<text text-anchor="middle" x="307.13" y="-292" font-family="Helvetica,sans-Serif" font-size="10.00">Graphics.h</text>
</a>
</g>
</g>
<!-- Node2&#45;&gt;Node6 -->
<g id="edge5" class="edge">
<title>Node2&#45;&gt;Node6</title>
<path fill="none" stroke="midnightblue" d="M354.7,-399.59C346.11,-390.98 333.64,-377.19 326.13,-363 318.22,-348.06 313.26,-329.45 310.4,-315.71"/>
<polygon fill="midnightblue" stroke="midnightblue" points="313.7,-315.3 308.41,-306.12 306.82,-316.59 313.7,-315.3"/>
</g>
<!-- Node15 -->
<g id="node15" class="node">
<title>Node15</title>
<g id="a_node15"><a xlink:href="_matrix3_8h.html" target="_top" xlink:title=" ">
<polygon fill="none" stroke="black" points="413.88,-57.5 413.88,-77.5 470.38,-77.5 470.38,-57.5 413.88,-57.5"/>
<text text-anchor="middle" x="442.13" y="-64" font-family="Helvetica,sans-Serif" font-size="10.00">Matrix3.h</text>
</a>
</g>
</g>
<!-- Node2&#45;&gt;Node15 -->
<g id="edge44" class="edge">
<title>Node2&#45;&gt;Node15</title>
<path fill="none" stroke="midnightblue" d="M335.04,-405.85C248.9,-397.19 1.13,-366.24 1.13,-296.5 1.13,-296.5 1.13,-296.5 1.13,-180.5 1.13,-149.76 -3.38,-133.8 20.13,-114 49.13,-89.58 304.27,-75.01 403.18,-70.24"/>
<polygon fill="midnightblue" stroke="midnightblue" points="403.08,-73.71 412.9,-69.74 402.75,-66.71 403.08,-73.71"/>
</g>
<!-- Node28 -->
<g id="node28" class="node">
<title>Node28</title>
<g id="a_node28"><a xlink:href="_triangle_8h.html" target="_top" xlink:title=" ">
<polygon fill="none" stroke="black" points="335.13,-342.5 335.13,-362.5 393.13,-362.5 393.13,-342.5 335.13,-342.5"/>
<text text-anchor="middle" x="364.13" y="-349" font-family="Helvetica,sans-Serif" font-size="10.00">Triangle.h</text>
</a>
</g>
</g>
<!-- Node2&#45;&gt;Node28 -->
<g id="edge37" class="edge">
<title>Node2&#45;&gt;Node28</title>
<path fill="none" stroke="midnightblue" d="M364.13,-399.91C364.13,-392.76 364.13,-382.32 364.13,-373.15"/>
<polygon fill="midnightblue" stroke="midnightblue" points="367.63,-373.21 364.13,-363.21 360.63,-373.21 367.63,-373.21"/>
</g>
<!-- Node29 -->
<g id="node29" class="node">
<title>Node29</title>
<g id="a_node29"><a xlink:href="_indexed_triangle_list_8h.html" target="_top" xlink:title=" ">
<polygon fill="none" stroke="black" points="566.38,-342.5 566.38,-362.5 673.88,-362.5 673.88,-342.5 566.38,-342.5"/>
<text text-anchor="middle" x="620.13" y="-349" font-family="Helvetica,sans-Serif" font-size="10.00">IndexedTriangleList.h</text>
</a>
</g>
</g>
<!-- Node2&#45;&gt;Node29 -->
<g id="edge38" class="edge">
<title>Node2&#45;&gt;Node29</title>
<path fill="none" stroke="midnightblue" d="M393.49,-402.19C436.01,-393.06 515.35,-376.01 567.96,-364.71"/>
<polygon fill="midnightblue" stroke="midnightblue" points="568.39,-367.98 577.44,-362.46 566.92,-361.14 568.39,-367.98"/>
</g>
<!-- Node31 -->
<g id="node31" class="node">
<title>Node31</title>
<g id="a_node31"><a xlink:href="_pube_screen_transformer_8h.html" target="_top" xlink:title=" ">
<polygon fill="none" stroke="black" points="410.88,-342.5 410.88,-362.5 539.38,-362.5 539.38,-342.5 410.88,-342.5"/>
<text text-anchor="middle" x="475.13" y="-349" font-family="Helvetica,sans-Serif" font-size="10.00">PubeScreenTransformer.h</text>
</a>
</g>
</g>
<!-- Node2&#45;&gt;Node31 -->
<g id="edge41" class="edge">
<title>Node2&#45;&gt;Node31</title>
<path fill="none" stroke="midnightblue" d="M381.96,-399.66C399.58,-390.94 426.78,-377.46 447.25,-367.31"/>
<polygon fill="midnightblue" stroke="midnightblue" points="448.56,-370.07 455.97,-362.5 445.45,-363.8 448.56,-370.07"/>
</g>
<!-- Node32 -->
<g id="node32" class="node">
<title>Node32</title>
<g id="a_node32"><a xlink:title=" ">
<polygon fill="none" stroke="#bfbfbf" points="692.25,-342.5 692.25,-362.5 748,-362.5 748,-342.5 692.25,-342.5"/>
<text text-anchor="middle" x="720.13" y="-349" font-family="Helvetica,sans-Serif" font-size="10.00">algorithm</text>
</a>
</g>
</g>
<!-- Node2&#45;&gt;Node32 -->
<g id="edge45" class="edge">
<title>Node2&#45;&gt;Node32</title>
<path fill="none" stroke="midnightblue" d="M393.34,-405.42C447.99,-399.42 569.58,-384.99 681.84,-363.06"/>
<polygon fill="midnightblue" stroke="midnightblue" points="682.19,-366.36 691.32,-360.99 680.83,-359.5 682.19,-366.36"/>
</g>
<!-- Node4 -->
<g id="node4" class="node">
<title>Node4</title>
<g id="a_node4"><a xlink:title=" ">
<polygon fill="none" stroke="#bfbfbf" points="29.25,-114.5 29.25,-134.5 97,-134.5 97,-114.5 29.25,-114.5"/>
<text text-anchor="middle" x="63.13" y="-121" font-family="Helvetica,sans-Serif" font-size="10.00">sdkddkver.h</text>
</a>
</g>
</g>
<!-- Node3&#45;&gt;Node4 -->
<g id="edge3" class="edge">
<title>Node3&#45;&gt;Node4</title>
<path fill="none" stroke="midnightblue" d="M63.13,-171.91C63.13,-164.76 63.13,-154.32 63.13,-145.15"/>
<polygon fill="midnightblue" stroke="midnightblue" points="66.63,-145.21 63.13,-135.21 59.63,-145.21 66.63,-145.21"/>
</g>
<!-- Node5 -->
<g id="node5" class="node">
<title>Node5</title>
<g id="a_node5"><a xlink:title=" ">
<polygon fill="none" stroke="#bfbfbf" points="115.13,-114.5 115.13,-134.5 179.13,-134.5 179.13,-114.5 115.13,-114.5"/>
<text text-anchor="middle" x="147.13" y="-121" font-family="Helvetica,sans-Serif" font-size="10.00">Windows.h</text>
</a>
</g>
</g>
<!-- Node3&#45;&gt;Node5 -->
<g id="edge4" class="edge">
<title>Node3&#45;&gt;Node5</title>
<path fill="none" stroke="midnightblue" d="M76.62,-171.66C89.53,-163.21 109.23,-150.31 124.53,-140.3"/>
<polygon fill="midnightblue" stroke="midnightblue" points="125.94,-142.9 132.39,-134.5 122.1,-137.05 125.94,-142.9"/>
</g>
<!-- Node7 -->
<g id="node7" class="node">
<title>Node7</title>
<g id="a_node7"><a xlink:href="_engine_exception_8h.html" target="_top" xlink:title=" ">
<polygon fill="none" stroke="black" points="102.25,-171.5 102.25,-191.5 200,-191.5 200,-171.5 102.25,-171.5"/>
<text text-anchor="middle" x="151.13" y="-178" font-family="Helvetica,sans-Serif" font-size="10.00">EngineException.h</text>
</a>
</g>
</g>
<!-- Node6&#45;&gt;Node7 -->
<g id="edge6" class="edge">
<title>Node6&#45;&gt;Node7</title>
<path fill="none" stroke="midnightblue" d="M282.28,-285.64C262.23,-277.8 233.88,-265.11 212.13,-249 193.13,-234.92 175.33,-214.33 163.92,-199.8"/>
<polygon fill="midnightblue" stroke="midnightblue" points="166.24,-198.07 157.39,-192.25 160.68,-202.32 166.24,-198.07"/>
</g>
<!-- Node9 -->
<g id="node9" class="node">
<title>Node9</title>
<g id="a_node9"><a xlink:href="_vector3_8h.html" target="_top" xlink:title=" ">
<polygon fill="none" stroke="black" points="493,-114.5 493,-134.5 613.25,-134.5 613.25,-114.5 493,-114.5"/>
<text text-anchor="middle" x="553.13" y="-121" font-family="Helvetica,sans-Serif" font-size="10.00">LinearAlgebra/Vector3.h</text>
</a>
</g>
</g>
<!-- Node6&#45;&gt;Node9 -->
<g id="edge8" class="edge">
<title>Node6&#45;&gt;Node9</title>
<path fill="none" stroke="midnightblue" d="M338.6,-289.07C387.72,-278.92 482.32,-252.38 534.13,-192 545.37,-178.9 549.97,-159.54 551.85,-145.09"/>
<polygon fill="midnightblue" stroke="midnightblue" points="555.41,-145.63 552.88,-135.34 548.45,-144.97 555.41,-145.63"/>
</g>
<!-- Node20 -->
<g id="node20" class="node">
<title>Node20</title>
<g id="a_node20"><a xlink:href="_g_d_i_plus_manager_8h.html" target="_top" xlink:title=" ">
<polygon fill="none" stroke="black" points="67.25,-228.5 67.25,-248.5 165,-248.5 165,-228.5 67.25,-228.5"/>
<text text-anchor="middle" x="116.13" y="-235" font-family="Helvetica,sans-Serif" font-size="10.00">GDIPlusManager.h</text>
</a>
</g>
</g>
<!-- Node6&#45;&gt;Node20 -->
<g id="edge24" class="edge">
<title>Node6&#45;&gt;Node20</title>
<path fill="none" stroke="midnightblue" d="M276.02,-285.54C243.83,-276.27 193.37,-261.74 157.76,-251.49"/>
<polygon fill="midnightblue" stroke="midnightblue" points="158.8,-247.86 148.23,-248.46 156.87,-254.59 158.8,-247.86"/>
</g>
<!-- Node21 -->
<g id="node21" class="node">
<title>Node21</title>
<g id="a_node21"><a xlink:href="_surface_8h.html" target="_top" xlink:title=" ">
<polygon fill="none" stroke="black" points="343.5,-228.5 343.5,-248.5 400.75,-248.5 400.75,-228.5 343.5,-228.5"/>
<text text-anchor="middle" x="372.13" y="-235" font-family="Helvetica,sans-Serif" font-size="10.00">Surface.h</text>
</a>
</g>
</g>
<!-- Node6&#45;&gt;Node21 -->
<g id="edge26" class="edge">
<title>Node6&#45;&gt;Node21</title>
<path fill="none" stroke="midnightblue" d="M317.57,-285.66C327.18,-277.53 341.66,-265.28 353.29,-255.44"/>
<polygon fill="midnightblue" stroke="midnightblue" points="355.12,-257.63 360.49,-248.5 350.6,-252.29 355.12,-257.63"/>
</g>
<!-- Node26 -->
<g id="node26" class="node">
<title>Node26</title>
<g id="a_node26"><a xlink:title=" ">
<polygon fill="none" stroke="#bfbfbf" points="220.88,-228.5 220.88,-248.5 271.38,-248.5 271.38,-228.5 220.88,-228.5"/>
<text text-anchor="middle" x="246.13" y="-235" font-family="Helvetica,sans-Serif" font-size="10.00">d3d11.h</text>
</a>
</g>
</g>
<!-- Node6&#45;&gt;Node26 -->
<g id="edge35" class="edge">
<title>Node6&#45;&gt;Node26</title>
<path fill="none" stroke="midnightblue" d="M297.33,-285.66C288.4,-277.61 274.99,-265.52 264.13,-255.73"/>
<polygon fill="midnightblue" stroke="midnightblue" points="266.88,-253.59 257.11,-249.5 262.19,-258.79 266.88,-253.59"/>
</g>
<!-- Node27 -->
<g id="node27" class="node">
<title>Node27</title>
<g id="a_node27"><a xlink:title=" ">
<polygon fill="none" stroke="#bfbfbf" points="289,-228.5 289,-248.5 325.25,-248.5 325.25,-228.5 289,-228.5"/>
<text text-anchor="middle" x="307.13" y="-235" font-family="Helvetica,sans-Serif" font-size="10.00">wrl.h</text>
</a>
</g>
</g>
<!-- Node6&#45;&gt;Node27 -->
<g id="edge36" class="edge">
<title>Node6&#45;&gt;Node27</title>
<path fill="none" stroke="midnightblue" d="M307.13,-285.91C307.13,-278.76 307.13,-268.32 307.13,-259.15"/>
<polygon fill="midnightblue" stroke="midnightblue" points="310.63,-259.21 307.13,-249.21 303.63,-259.21 310.63,-259.21"/>
</g>
<!-- Node8 -->
<g id="node8" class="node">
<title>Node8</title>
<g id="a_node8"><a xlink:title=" ">
<polygon fill="none" stroke="#bfbfbf" points="242.13,-114.5 242.13,-134.5 282.13,-134.5 282.13,-114.5 242.13,-114.5"/>
<text text-anchor="middle" x="262.13" y="-121" font-family="Helvetica,sans-Serif" font-size="10.00">string</text>
</a>
</g>
</g>
<!-- Node7&#45;&gt;Node8 -->
<g id="edge7" class="edge">
<title>Node7&#45;&gt;Node8</title>
<path fill="none" stroke="midnightblue" d="M168.96,-171.66C186.58,-162.94 213.78,-149.46 234.25,-139.31"/>
<polygon fill="midnightblue" stroke="midnightblue" points="235.56,-142.07 242.97,-134.5 232.45,-135.8 235.56,-142.07"/>
</g>
<!-- Node10 -->
<g id="node10" class="node">
<title>Node10</title>
<g id="a_node10"><a xlink:href="_math_8h.html" target="_top" xlink:title=" ">
<polygon fill="none" stroke="black" points="636.13,-57.5 636.13,-77.5 682.13,-77.5 682.13,-57.5 636.13,-57.5"/>
<text text-anchor="middle" x="659.13" y="-64" font-family="Helvetica,sans-Serif" font-size="10.00">Math.h</text>
</a>
</g>
</g>
<!-- Node9&#45;&gt;Node10 -->
<g id="edge9" class="edge">
<title>Node9&#45;&gt;Node10</title>
<path fill="none" stroke="midnightblue" d="M570.16,-114.66C586.9,-105.97 612.72,-92.58 632.24,-82.45"/>
<polygon fill="midnightblue" stroke="midnightblue" points="633.52,-85.21 640.79,-77.5 630.3,-79 633.52,-85.21"/>
</g>
<!-- Node9&#45;&gt;Node15 -->
<g id="edge15" class="edge">
<title>Node9&#45;&gt;Node15</title>
<path fill="none" stroke="midnightblue" d="M535.29,-114.66C517.68,-105.94 490.48,-92.46 470.01,-82.31"/>
<polygon fill="midnightblue" stroke="midnightblue" points="471.8,-78.8 461.29,-77.5 468.69,-85.07 471.8,-78.8"/>
</g>
<!-- Node16 -->
<g id="node16" class="node">
<title>Node16</title>
<g id="a_node16"><a xlink:title=" ">
<polygon fill="none" stroke="#bfbfbf" points="500.25,-0.5 500.25,-20.5 538,-20.5 538,-0.5 500.25,-0.5"/>
<text text-anchor="middle" x="519.13" y="-7" font-family="Helvetica,sans-Serif" font-size="10.00">array</text>
</a>
</g>
</g>
<!-- Node9&#45;&gt;Node16 -->
<g id="edge20" class="edge">
<title>Node9&#45;&gt;Node16</title>
<path fill="none" stroke="midnightblue" d="M563.74,-114.89C578.02,-102.21 600.4,-77.77 589.13,-57 580.36,-40.85 563.12,-29.54 547.94,-22.24"/>
<polygon fill="midnightblue" stroke="midnightblue" points="549.45,-18.64 538.89,-17.81 546.63,-25.04 549.45,-18.64"/>
</g>
<!-- Node17 -->
<g id="node17" class="node">
<title>Node17</title>
<g id="a_node17"><a xlink:title=" ">
<polygon fill="none" stroke="#bfbfbf" points="362.38,-0.5 362.38,-20.5 409.88,-20.5 409.88,-0.5 362.38,-0.5"/>
<text text-anchor="middle" x="386.13" y="-7" font-family="Helvetica,sans-Serif" font-size="10.00">cstddef</text>
</a>
</g>
</g>
<!-- Node9&#45;&gt;Node17 -->
<g id="edge23" class="edge">
<title>Node9&#45;&gt;Node17</title>
<path fill="none" stroke="midnightblue" d="M493.17,-118.47C463.06,-112.94 428.18,-101.52 405.13,-78 392.91,-65.54 388.44,-45.8 386.86,-31.06"/>
<polygon fill="midnightblue" stroke="midnightblue" points="390.29,-30.85 386.11,-21.12 383.3,-31.34 390.29,-30.85"/>
</g>
<!-- Node18 -->
<g id="node18" class="node">
<title>Node18</title>
<g id="a_node18"><a xlink:title=" ">
<polygon fill="none" stroke="#bfbfbf" points="428.38,-0.5 428.38,-20.5 481.88,-20.5 481.88,-0.5 428.38,-0.5"/>
<text text-anchor="middle" x="455.13" y="-7" font-family="Helvetica,sans-Serif" font-size="10.00">iostream</text>
</a>
</g>
</g>
<!-- Node9&#45;&gt;Node18 -->
<g id="edge21" class="edge">
<title>Node9&#45;&gt;Node18</title>
<path fill="none" stroke="midnightblue" d="M545.44,-114.71C529.19,-96.15 491.14,-52.66 469.98,-28.48"/>
<polygon fill="midnightblue" stroke="midnightblue" points="472,-26.47 462.78,-21.25 466.73,-31.08 472,-26.47"/>
</g>
<!-- Node19 -->
<g id="node19" class="node">
<title>Node19</title>
<g id="a_node19"><a xlink:title=" ">
<polygon fill="none" stroke="#bfbfbf" points="526.38,-57.5 526.38,-77.5 579.88,-77.5 579.88,-57.5 526.38,-57.5"/>
<text text-anchor="middle" x="553.13" y="-64" font-family="Helvetica,sans-Serif" font-size="10.00">compare</text>
</a>
</g>
</g>
<!-- Node9&#45;&gt;Node19 -->
<g id="edge22" class="edge">
<title>Node9&#45;&gt;Node19</title>
<path fill="none" stroke="midnightblue" d="M553.13,-114.91C553.13,-107.76 553.13,-97.32 553.13,-88.15"/>
<polygon fill="midnightblue" stroke="midnightblue" points="556.63,-88.21 553.13,-78.21 549.63,-88.21 556.63,-88.21"/>
</g>
<!-- Node10&#45;&gt;Node10 -->
<g id="edge10" class="edge">
<title>Node10&#45;&gt;Node10</title>
<path fill="none" stroke="midnightblue" d="M677.68,-77.43C689.18,-79.83 700.13,-76.52 700.13,-67.5 700.13,-61.44 695.19,-57.96 688.46,-57.05"/>
<polygon fill="midnightblue" stroke="midnightblue" points="688.5,-53.59 678.68,-57.57 688.84,-60.59 688.5,-53.59"/>
</g>
<!-- Node11 -->
<g id="node11" class="node">
<title>Node11</title>
<g id="a_node11"><a xlink:title=" ">
<polygon fill="none" stroke="#bfbfbf" points="555.63,-0.5 555.63,-20.5 598.63,-20.5 598.63,-0.5 555.63,-0.5"/>
<text text-anchor="middle" x="577.13" y="-7" font-family="Helvetica,sans-Serif" font-size="10.00">cmath</text>
</a>
</g>
</g>
<!-- Node10&#45;&gt;Node11 -->
<g id="edge11" class="edge">
<title>Node10&#45;&gt;Node11</title>
<path fill="none" stroke="midnightblue" d="M645.95,-57.66C633.47,-49.29 614.49,-36.56 599.61,-26.58"/>
<polygon fill="midnightblue" stroke="midnightblue" points="601.8,-23.16 591.54,-20.5 597.9,-28.97 601.8,-23.16"/>
</g>
<!-- Node12 -->
<g id="node12" class="node">
<title>Node12</title>
<g id="a_node12"><a xlink:title=" ">
<polygon fill="none" stroke="#bfbfbf" points="683.5,-0.5 683.5,-20.5 722.75,-20.5 722.75,-0.5 683.5,-0.5"/>
<text text-anchor="middle" x="703.13" y="-7" font-family="Helvetica,sans-Serif" font-size="10.00">limits</text>
</a>
</g>
</g>
<!-- Node10&#45;&gt;Node12 -->
<g id="edge12" class="edge">
<title>Node10&#45;&gt;Node12</title>
<path fill="none" stroke="midnightblue" d="M666,-57.91C672.23,-50.12 681.59,-38.42 689.36,-28.71"/>
<polygon fill="midnightblue" stroke="midnightblue" points="692.64,-31.21 696.16,-21.21 687.18,-26.84 692.64,-31.21"/>
</g>
<!-- Node13 -->
<g id="node13" class="node">
<title>Node13</title>
<g id="a_node13"><a xlink:title=" ">
<polygon fill="none" stroke="#bfbfbf" points="740.38,-0.5 740.38,-20.5 793.88,-20.5 793.88,-0.5 740.38,-0.5"/>
<text text-anchor="middle" x="767.13" y="-7" font-family="Helvetica,sans-Serif" font-size="10.00">numbers</text>
</a>
</g>
</g>
<!-- Node10&#45;&gt;Node13 -->
<g id="edge13" class="edge">
<title>Node10&#45;&gt;Node13</title>
<path fill="none" stroke="midnightblue" d="M676.48,-57.66C693.54,-48.97 719.84,-35.58 739.73,-25.45"/>
<polygon fill="midnightblue" stroke="midnightblue" points="741.14,-28.15 748.46,-20.5 737.96,-21.92 741.14,-28.15"/>
</g>
<!-- Node14 -->
<g id="node14" class="node">
<title>Node14</title>
<g id="a_node14"><a xlink:title=" ">
<polygon fill="none" stroke="#bfbfbf" points="617,-0.5 617,-20.5 665.25,-20.5 665.25,-0.5 617,-0.5"/>
<text text-anchor="middle" x="641.13" y="-7" font-family="Helvetica,sans-Serif" font-size="10.00">random</text>
</a>
</g>
</g>
<!-- Node10&#45;&gt;Node14 -->
<g id="edge14" class="edge">
<title>Node10&#45;&gt;Node14</title>
<path fill="none" stroke="midnightblue" d="M656.32,-57.91C653.93,-50.6 650.41,-39.85 647.36,-30.54"/>
<polygon fill="midnightblue" stroke="midnightblue" points="650.42,-29.63 643.98,-21.21 643.76,-31.81 650.42,-29.63"/>
</g>
<!-- Node15&#45;&gt;Node11 -->
<g id="edge17" class="edge">
<title>Node15&#45;&gt;Node11</title>
<path fill="none" stroke="midnightblue" d="M464.12,-57.54C486.35,-48.49 520.9,-34.41 545.95,-24.2"/>
<polygon fill="midnightblue" stroke="midnightblue" points="547.1,-27.11 555.04,-20.09 544.45,-20.62 547.1,-27.11"/>
</g>
<!-- Node15&#45;&gt;Node16 -->
<g id="edge16" class="edge">
<title>Node15&#45;&gt;Node16</title>
<path fill="none" stroke="midnightblue" d="M454.5,-57.66C466.1,-49.37 483.71,-36.8 497.61,-26.87"/>
<polygon fill="midnightblue" stroke="midnightblue" points="499.43,-29.16 505.53,-20.5 495.36,-23.46 499.43,-29.16"/>
</g>
<!-- Node15&#45;&gt;Node17 -->
<g id="edge18" class="edge">
<title>Node15&#45;&gt;Node17</title>
<path fill="none" stroke="midnightblue" d="M433.13,-57.66C425.01,-49.69 412.87,-37.76 402.95,-28.02"/>
<polygon fill="midnightblue" stroke="midnightblue" points="405.88,-26.01 396.29,-21.5 400.97,-31 405.88,-26.01"/>
</g>
<!-- Node15&#45;&gt;Node18 -->
<g id="edge19" class="edge">
<title>Node15&#45;&gt;Node18</title>
<path fill="none" stroke="midnightblue" d="M444.16,-57.91C445.87,-50.68 448.37,-40.09 450.56,-30.85"/>
<polygon fill="midnightblue" stroke="midnightblue" points="454.17,-31.75 453.07,-21.21 447.36,-30.14 454.17,-31.75"/>
</g>
<!-- Node20&#45;&gt;Node3 -->
<g id="edge25" class="edge">
<title>Node20&#45;&gt;Node3</title>
<path fill="none" stroke="midnightblue" d="M107.85,-228.91C100.19,-220.96 88.6,-208.94 79.14,-199.12"/>
<polygon fill="midnightblue" stroke="midnightblue" points="81.98,-196.99 72.53,-192.21 76.94,-201.84 81.98,-196.99"/>
</g>
<!-- Node21&#45;&gt;Node3 -->
<g id="edge29" class="edge">
<title>Node21&#45;&gt;Node3</title>
<path fill="none" stroke="midnightblue" d="M343.56,-230.04C340.39,-229.31 337.2,-228.61 334.13,-228 231.23,-207.5 200.54,-215.86 94.2,-191.9"/>
<polygon fill="midnightblue" stroke="midnightblue" points="95.2,-188.31 84.67,-189.48 93.63,-195.13 95.2,-188.31"/>
</g>
<!-- Node21&#45;&gt;Node7 -->
<g id="edge30" class="edge">
<title>Node21&#45;&gt;Node7</title>
<path fill="none" stroke="midnightblue" d="M343.91,-230.44C340.61,-229.62 337.29,-228.79 334.13,-228 287.72,-216.43 234.69,-203.25 197.7,-194.06"/>
<polygon fill="midnightblue" stroke="midnightblue" points="198.79,-190.48 188.24,-191.46 197.1,-197.27 198.79,-190.48"/>
</g>
<!-- Node21&#45;&gt;Node8 -->
<g id="edge33" class="edge">
<title>Node21&#45;&gt;Node8</title>
<path fill="none" stroke="midnightblue" d="M362.65,-228.55C353.07,-219.46 337.91,-204.92 325.13,-192 308.61,-175.31 290.19,-155.75 277.55,-142.18"/>
<polygon fill="midnightblue" stroke="midnightblue" points="280.53,-140.17 271.17,-135.22 275.4,-144.93 280.53,-140.17"/>
</g>
<!-- Node22 -->
<g id="node22" class="node">
<title>Node22</title>
<g id="a_node22"><a xlink:href="_colors_8h.html" target="_top" xlink:title=" ">
<polygon fill="none" stroke="black" points="473.13,-171.5 473.13,-191.5 525.13,-191.5 525.13,-171.5 473.13,-171.5"/>
<text text-anchor="middle" x="499.13" y="-178" font-family="Helvetica,sans-Serif" font-size="10.00">Colors.h</text>
</a>
</g>
</g>
<!-- Node21&#45;&gt;Node22 -->
<g id="edge27" class="edge">
<title>Node21&#45;&gt;Node22</title>
<path fill="none" stroke="midnightblue" d="M392.82,-228.54C413.39,-219.63 445.18,-205.86 468.64,-195.7"/>
<polygon fill="midnightblue" stroke="midnightblue" points="469.66,-198.64 477.45,-191.46 466.88,-192.22 469.66,-198.64"/>
</g>
<!-- Node23 -->
<g id="node23" class="node">
<title>Node23</title>
<g id="a_node23"><a xlink:title=" ">
<polygon fill="none" stroke="#bfbfbf" points="334.5,-171.5 334.5,-191.5 385.75,-191.5 385.75,-171.5 334.5,-171.5"/>
<text text-anchor="middle" x="360.13" y="-178" font-family="Helvetica,sans-Serif" font-size="10.00">assert.h</text>
</a>
</g>
</g>
<!-- Node21&#45;&gt;Node23 -->
<g id="edge31" class="edge">
<title>Node21&#45;&gt;Node23</title>
<path fill="none" stroke="midnightblue" d="M370.25,-228.91C368.68,-221.68 366.37,-211.09 364.35,-201.85"/>
<polygon fill="midnightblue" stroke="midnightblue" points="367.58,-201.24 362.03,-192.21 360.74,-202.73 367.58,-201.24"/>
</g>
<!-- Node24 -->
<g id="node24" class="node">
<title>Node24</title>
<g id="a_node24"><a xlink:title=" ">
<polygon fill="none" stroke="#bfbfbf" points="403.5,-171.5 403.5,-191.5 454.75,-191.5 454.75,-171.5 403.5,-171.5"/>
<text text-anchor="middle" x="429.13" y="-178" font-family="Helvetica,sans-Serif" font-size="10.00">memory</text>
</a>
</g>
</g>
<!-- Node21&#45;&gt;Node24 -->
<g id="edge32" class="edge">
<title>Node21&#45;&gt;Node24</title>
<path fill="none" stroke="midnightblue" d="M381.29,-228.66C389.55,-220.69 401.91,-208.76 412,-199.02"/>
<polygon fill="midnightblue" stroke="midnightblue" points="414.04,-201.96 418.8,-192.5 409.18,-196.92 414.04,-201.96"/>
</g>
<!-- Node25 -->
<g id="node25" class="node">
<title>Node25</title>
<g id="a_node25"><a xlink:title=" ">
<polygon fill="none" stroke="#bfbfbf" points="218,-171.5 218,-191.5 278.25,-191.5 278.25,-171.5 218,-171.5"/>
<text text-anchor="middle" x="248.13" y="-178" font-family="Helvetica,sans-Serif" font-size="10.00">filesystem</text>
</a>
</g>
</g>
<!-- Node21&#45;&gt;Node25 -->
<g id="edge34" class="edge">
<title>Node21&#45;&gt;Node25</title>
<path fill="none" stroke="midnightblue" d="M351.93,-228.54C331.93,-219.67 301.08,-205.99 278.2,-195.84"/>
<polygon fill="midnightblue" stroke="midnightblue" points="279.88,-192.31 269.32,-191.46 277.04,-198.71 279.88,-192.31"/>
</g>
<!-- Node22&#45;&gt;Node9 -->
<g id="edge28" class="edge">
<title>Node22&#45;&gt;Node9</title>
<path fill="none" stroke="midnightblue" d="M507.57,-171.91C515.44,-163.88 527.41,-151.69 537.1,-141.82"/>
<polygon fill="midnightblue" stroke="midnightblue" points="539.06,-144.8 543.57,-135.21 534.07,-139.9 539.06,-144.8"/>
</g>
<!-- Node29&#45;&gt;Node9 -->
<g id="edge39" class="edge">
<title>Node29&#45;&gt;Node9</title>
<path fill="none" stroke="midnightblue" d="M621.61,-342.61C625.74,-315.24 635.17,-230.51 605.13,-171 598.94,-158.74 587.89,-148.35 577.56,-140.6"/>
<polygon fill="midnightblue" stroke="midnightblue" points="580.02,-137.35 569.81,-134.5 576.01,-143.09 580.02,-137.35"/>
</g>
<!-- Node30 -->
<g id="node30" class="node">
<title>Node30</title>
<g id="a_node30"><a xlink:title=" ">
<polygon fill="none" stroke="#bfbfbf" points="657.38,-285.5 657.38,-305.5 698.88,-305.5 698.88,-285.5 657.38,-285.5"/>
<text text-anchor="middle" x="678.13" y="-292" font-family="Helvetica,sans-Serif" font-size="10.00">vector</text>
</a>
</g>
</g>
<!-- Node29&#45;&gt;Node30 -->
<g id="edge40" class="edge">
<title>Node29&#45;&gt;Node30</title>
<path fill="none" stroke="midnightblue" d="M629.45,-342.66C637.85,-334.69 650.43,-322.76 660.7,-313.02"/>
<polygon fill="midnightblue" stroke="midnightblue" points="662.79,-315.92 667.64,-306.5 657.97,-310.84 662.79,-315.92"/>
</g>
<!-- Node31&#45;&gt;Node6 -->
<g id="edge42" class="edge">
<title>Node31&#45;&gt;Node6</title>
<path fill="none" stroke="midnightblue" d="M447.76,-342.54C419.69,-333.35 375.84,-318.99 344.56,-308.76"/>
<polygon fill="midnightblue" stroke="midnightblue" points="346.07,-305.24 335.48,-305.46 343.9,-311.89 346.07,-305.24"/>
</g>
<!-- Node31&#45;&gt;Node9 -->
<g id="edge43" class="edge">
<title>Node31&#45;&gt;Node9</title>
<path fill="none" stroke="midnightblue" d="M481.25,-342.7C497.03,-319.45 538.81,-253.86 553.13,-192 556.71,-176.5 556.44,-158.42 555.42,-145.02"/>
<polygon fill="midnightblue" stroke="midnightblue" points="558.82,-144.86 554.37,-135.25 551.86,-145.54 558.82,-144.86"/>
</g>
</g>
</svg>
