<?xml version="1.0" encoding="UTF-8" standalone="no"?>
<!DOCTYPE svg PUBLIC "-//W3C//DTD SVG 1.1//EN"
 "http://www.w3.org/Graphics/SVG/1.1/DTD/svg11.dtd">
<!-- Generated by graphviz version 8.1.0 (20230707.0739)
 -->
<!-- Title: include/Effects/VertexPositionColorEffect.h Pages: 1 -->
<svg width="916pt" height="497pt"
 viewBox="0.00 0.00 916.00 497.00" xmlns="http://www.w3.org/2000/svg" xmlns:xlink="http://www.w3.org/1999/xlink">
<g id="graph0" class="graph" transform="scale(1 1) rotate(0) translate(4 493)">
<title>include/Effects/VertexPositionColorEffect.h</title>
<!-- Node1 -->
<g id="node1" class="node">
<title>Node1</title>
<g id="a_node1"><a xlink:title=" ">
<polygon fill="#bfbfbf" stroke="black" points="131.75,-456.5 131.75,-488.5 278.25,-488.5 278.25,-456.5 131.75,-456.5"/>
<text text-anchor="start" x="139.75" y="-475" font-family="Helvetica,sans-Serif" font-size="10.00">include/Effects/VertexPosition</text>
<text text-anchor="middle" x="205" y="-463" font-family="Helvetica,sans-Serif" font-size="10.00">ColorEffect.h</text>
</a>
</g>
</g>
<!-- Node2 -->
<g id="node2" class="node">
<title>Node2</title>
<g id="a_node2"><a xlink:href="_pipeline_8h.html" target="_top" xlink:title=" ">
<polygon fill="none" stroke="black" points="276.62,-399.5 276.62,-419.5 335.38,-419.5 335.38,-399.5 276.62,-399.5"/>
<text text-anchor="middle" x="306" y="-406" font-family="Helvetica,sans-Serif" font-size="10.00">Pipeline.h</text>
</a>
</g>
</g>
<!-- Node1&#45;&gt;Node2 -->
<g id="edge1" class="edge">
<title>Node1&#45;&gt;Node2</title>
<path fill="none" stroke="midnightblue" d="M229.71,-456.58C245.67,-446.94 266.32,-434.46 282.12,-424.92"/>
<polygon fill="midnightblue" stroke="midnightblue" points="283.49,-427.58 290.24,-419.42 279.87,-421.59 283.49,-427.58"/>
</g>
<!-- Node35 -->
<g id="node35" class="node">
<title>Node35</title>
<g id="a_node35"><a xlink:href="_default_geometry_shader_8h.html" target="_top" xlink:title=" ">
<polygon fill="none" stroke="black" points="56.62,-399.5 56.62,-419.5 223.38,-419.5 223.38,-399.5 56.62,-399.5"/>
<text text-anchor="middle" x="140" y="-406" font-family="Helvetica,sans-Serif" font-size="10.00">Shaders/DefaultGeometryShader.h</text>
</a>
</g>
</g>
<!-- Node1&#45;&gt;Node35 -->
<g id="edge49" class="edge">
<title>Node1&#45;&gt;Node35</title>
<path fill="none" stroke="midnightblue" d="M189.27,-456.73C179.62,-447.68 167.26,-436.08 157.33,-426.76"/>
<polygon fill="midnightblue" stroke="midnightblue" points="160.05,-424.58 150.36,-420.28 155.26,-429.68 160.05,-424.58"/>
</g>
<!-- Node3 -->
<g id="node3" class="node">
<title>Node3</title>
<g id="a_node3"><a xlink:href="_win_8h.html" target="_top" xlink:title=" ">
<polygon fill="none" stroke="black" points="217.25,-171.5 217.25,-191.5 258.75,-191.5 258.75,-171.5 217.25,-171.5"/>
<text text-anchor="middle" x="238" y="-178" font-family="Helvetica,sans-Serif" font-size="10.00">Win.h</text>
</a>
</g>
</g>
<!-- Node2&#45;&gt;Node3 -->
<g id="edge2" class="edge">
<title>Node2&#45;&gt;Node3</title>
<path fill="none" stroke="midnightblue" d="M290.68,-399.58C256.33,-378.57 173.78,-322.18 143,-249 129.96,-217.99 174.42,-199.13 206.87,-189.77"/>
<polygon fill="midnightblue" stroke="midnightblue" points="207.57,-192.94 216.32,-186.95 205.75,-186.18 207.57,-192.94"/>
</g>
<!-- Node6 -->
<g id="node6" class="node">
<title>Node6</title>
<g id="a_node6"><a xlink:href="_graphics_8h.html" target="_top" xlink:title=" ">
<polygon fill="none" stroke="black" points="329.38,-285.5 329.38,-305.5 392.62,-305.5 392.62,-285.5 329.38,-285.5"/>
<text text-anchor="middle" x="361" y="-292" font-family="Helvetica,sans-Serif" font-size="10.00">Graphics.h</text>
</a>
</g>
</g>
<!-- Node2&#45;&gt;Node6 -->
<g id="edge5" class="edge">
<title>Node2&#45;&gt;Node6</title>
<path fill="none" stroke="midnightblue" d="M307.35,-399.92C309.63,-386.85 315.03,-361.45 325,-342 330.33,-331.6 338.23,-321.28 345.27,-313.1"/>
<polygon fill="midnightblue" stroke="midnightblue" points="347.32,-315.95 351.4,-306.17 342.11,-311.26 347.32,-315.95"/>
</g>
<!-- Node15 -->
<g id="node15" class="node">
<title>Node15</title>
<g id="a_node15"><a xlink:href="_matrix3_8h.html" target="_top" xlink:title=" ">
<polygon fill="none" stroke="black" points="428.75,-57.5 428.75,-77.5 485.25,-77.5 485.25,-57.5 428.75,-57.5"/>
<text text-anchor="middle" x="457" y="-64" font-family="Helvetica,sans-Serif" font-size="10.00">Matrix3.h</text>
</a>
</g>
</g>
<!-- Node2&#45;&gt;Node15 -->
<g id="edge44" class="edge">
<title>Node2&#45;&gt;Node15</title>
<path fill="none" stroke="midnightblue" d="M276.79,-400.26C216.94,-382.5 86,-338.82 86,-296.5 86,-296.5 86,-296.5 86,-180.5 86,-138.54 115.5,-132.82 153,-114 198.84,-91 347.23,-76.89 418.33,-71.28"/>
<polygon fill="midnightblue" stroke="midnightblue" points="418.34,-74.71 428.05,-70.46 417.81,-67.73 418.34,-74.71"/>
</g>
<!-- Node28 -->
<g id="node28" class="node">
<title>Node28</title>
<g id="a_node28"><a xlink:href="_triangle_8h.html" target="_top" xlink:title=" ">
<polygon fill="none" stroke="black" points="0,-342.5 0,-362.5 58,-362.5 58,-342.5 0,-342.5"/>
<text text-anchor="middle" x="29" y="-349" font-family="Helvetica,sans-Serif" font-size="10.00">Triangle.h</text>
</a>
</g>
</g>
<!-- Node2&#45;&gt;Node28 -->
<g id="edge37" class="edge">
<title>Node2&#45;&gt;Node28</title>
<path fill="none" stroke="midnightblue" d="M276.77,-403.06C232.43,-394.76 145.55,-378.27 72,-363 70.69,-362.73 69.37,-362.45 68.03,-362.17"/>
<polygon fill="midnightblue" stroke="midnightblue" points="69.17,-358.62 58.66,-359.94 67.7,-365.46 69.17,-358.62"/>
</g>
<!-- Node29 -->
<g id="node29" class="node">
<title>Node29</title>
<g id="a_node29"><a xlink:href="_indexed_triangle_list_8h.html" target="_top" xlink:title=" ">
<polygon fill="none" stroke="black" points="517.25,-342.5 517.25,-362.5 624.75,-362.5 624.75,-342.5 517.25,-342.5"/>
<text text-anchor="middle" x="571" y="-349" font-family="Helvetica,sans-Serif" font-size="10.00">IndexedTriangleList.h</text>
</a>
</g>
</g>
<!-- Node2&#45;&gt;Node29 -->
<g id="edge38" class="edge">
<title>Node2&#45;&gt;Node29</title>
<path fill="none" stroke="midnightblue" d="M335.37,-402.4C379.21,-393.31 462.46,-376.03 517.35,-364.64"/>
<polygon fill="midnightblue" stroke="midnightblue" points="517.85,-367.9 526.93,-362.44 516.43,-361.04 517.85,-367.9"/>
</g>
<!-- Node31 -->
<g id="node31" class="node">
<title>Node31</title>
<g id="a_node31"><a xlink:href="_pube_screen_transformer_8h.html" target="_top" xlink:title=" ">
<polygon fill="none" stroke="black" points="333.75,-342.5 333.75,-362.5 462.25,-362.5 462.25,-342.5 333.75,-342.5"/>
<text text-anchor="middle" x="398" y="-349" font-family="Helvetica,sans-Serif" font-size="10.00">PubeScreenTransformer.h</text>
</a>
</g>
</g>
<!-- Node2&#45;&gt;Node31 -->
<g id="edge41" class="edge">
<title>Node2&#45;&gt;Node31</title>
<path fill="none" stroke="midnightblue" d="M320.78,-399.66C335.05,-391.13 356.9,-378.07 373.72,-368.01"/>
<polygon fill="midnightblue" stroke="midnightblue" points="375.16,-370.63 381.95,-362.5 371.57,-364.62 375.16,-370.63"/>
</g>
<!-- Node32 -->
<g id="node32" class="node">
<title>Node32</title>
<g id="a_node32"><a xlink:href="_z_buffer_8h.html" target="_top" xlink:title=" ">
<polygon fill="none" stroke="black" points="828.88,-342.5 828.88,-362.5 883.12,-362.5 883.12,-342.5 828.88,-342.5"/>
<text text-anchor="middle" x="856" y="-349" font-family="Helvetica,sans-Serif" font-size="10.00">ZBuffer.h</text>
</a>
</g>
</g>
<!-- Node2&#45;&gt;Node32 -->
<g id="edge45" class="edge">
<title>Node2&#45;&gt;Node32</title>
<path fill="none" stroke="midnightblue" d="M335.18,-405.58C427.76,-396.32 714.85,-367.62 818.33,-357.27"/>
<polygon fill="midnightblue" stroke="midnightblue" points="818.57,-360.66 828.18,-356.18 817.88,-353.69 818.57,-360.66"/>
</g>
<!-- Node34 -->
<g id="node34" class="node">
<title>Node34</title>
<g id="a_node34"><a xlink:title=" ">
<polygon fill="none" stroke="#bfbfbf" points="643.12,-342.5 643.12,-362.5 698.88,-362.5 698.88,-342.5 643.12,-342.5"/>
<text text-anchor="middle" x="671" y="-349" font-family="Helvetica,sans-Serif" font-size="10.00">algorithm</text>
</a>
</g>
</g>
<!-- Node2&#45;&gt;Node34 -->
<g id="edge48" class="edge">
<title>Node2&#45;&gt;Node34</title>
<path fill="none" stroke="midnightblue" d="M335.14,-405.58C390.95,-399.75 516.91,-385.44 632.74,-363.05"/>
<polygon fill="midnightblue" stroke="midnightblue" points="633.06,-366.36 642.2,-361 631.71,-359.49 633.06,-366.36"/>
</g>
<!-- Node4 -->
<g id="node4" class="node">
<title>Node4</title>
<g id="a_node4"><a xlink:title=" ">
<polygon fill="none" stroke="#bfbfbf" points="162.12,-114.5 162.12,-134.5 229.88,-134.5 229.88,-114.5 162.12,-114.5"/>
<text text-anchor="middle" x="196" y="-121" font-family="Helvetica,sans-Serif" font-size="10.00">sdkddkver.h</text>
</a>
</g>
</g>
<!-- Node3&#45;&gt;Node4 -->
<g id="edge3" class="edge">
<title>Node3&#45;&gt;Node4</title>
<path fill="none" stroke="midnightblue" d="M231.44,-171.91C225.49,-164.12 216.56,-152.42 209.15,-142.71"/>
<polygon fill="midnightblue" stroke="midnightblue" points="211.51,-141.04 202.66,-135.21 205.94,-145.29 211.51,-141.04"/>
</g>
<!-- Node5 -->
<g id="node5" class="node">
<title>Node5</title>
<g id="a_node5"><a xlink:title=" ">
<polygon fill="none" stroke="#bfbfbf" points="248,-114.5 248,-134.5 312,-134.5 312,-114.5 248,-114.5"/>
<text text-anchor="middle" x="280" y="-121" font-family="Helvetica,sans-Serif" font-size="10.00">Windows.h</text>
</a>
</g>
</g>
<!-- Node3&#45;&gt;Node5 -->
<g id="edge4" class="edge">
<title>Node3&#45;&gt;Node5</title>
<path fill="none" stroke="midnightblue" d="M244.56,-171.91C250.51,-164.12 259.44,-152.42 266.85,-142.71"/>
<polygon fill="midnightblue" stroke="midnightblue" points="270.06,-145.29 273.34,-135.21 264.49,-141.04 270.06,-145.29"/>
</g>
<!-- Node7 -->
<g id="node7" class="node">
<title>Node7</title>
<g id="a_node7"><a xlink:href="_engine_exception_8h.html" target="_top" xlink:title=" ">
<polygon fill="none" stroke="black" points="277.12,-171.5 277.12,-191.5 374.88,-191.5 374.88,-171.5 277.12,-171.5"/>
<text text-anchor="middle" x="326" y="-178" font-family="Helvetica,sans-Serif" font-size="10.00">EngineException.h</text>
</a>
</g>
</g>
<!-- Node6&#45;&gt;Node7 -->
<g id="edge6" class="edge">
<title>Node6&#45;&gt;Node7</title>
<path fill="none" stroke="midnightblue" d="M367.68,-285.59C376.6,-272.54 390.24,-247.64 381,-228 374.98,-215.21 363.41,-204.78 352.42,-197.16"/>
<polygon fill="midnightblue" stroke="midnightblue" points="354.78,-193.87 344.47,-191.41 351,-199.76 354.78,-193.87"/>
</g>
<!-- Node9 -->
<g id="node9" class="node">
<title>Node9</title>
<g id="a_node9"><a xlink:href="_vector3_8h.html" target="_top" xlink:title=" ">
<polygon fill="none" stroke="black" points="480.88,-114.5 480.88,-134.5 601.12,-134.5 601.12,-114.5 480.88,-114.5"/>
<text text-anchor="middle" x="541" y="-121" font-family="Helvetica,sans-Serif" font-size="10.00">LinearAlgebra/Vector3.h</text>
</a>
</g>
</g>
<!-- Node6&#45;&gt;Node9 -->
<g id="edge8" class="edge">
<title>Node6&#45;&gt;Node9</title>
<path fill="none" stroke="midnightblue" d="M367.78,-285.64C388.29,-258.93 448.89,-180.42 460,-171 475.28,-158.04 494.8,-146.94 510.85,-138.96"/>
<polygon fill="midnightblue" stroke="midnightblue" points="511.84,-141.88 519.33,-134.39 508.8,-135.58 511.84,-141.88"/>
</g>
<!-- Node20 -->
<g id="node20" class="node">
<title>Node20</title>
<g id="a_node20"><a xlink:href="_g_d_i_plus_manager_8h.html" target="_top" xlink:title=" ">
<polygon fill="none" stroke="black" points="274.12,-228.5 274.12,-248.5 371.88,-248.5 371.88,-228.5 274.12,-228.5"/>
<text text-anchor="middle" x="323" y="-235" font-family="Helvetica,sans-Serif" font-size="10.00">GDIPlusManager.h</text>
</a>
</g>
</g>
<!-- Node6&#45;&gt;Node20 -->
<g id="edge24" class="edge">
<title>Node6&#45;&gt;Node20</title>
<path fill="none" stroke="midnightblue" d="M355.06,-285.91C349.74,-278.2 341.77,-266.66 335.1,-257.02"/>
<polygon fill="midnightblue" stroke="midnightblue" points="337.59,-255.45 329.02,-249.21 331.83,-259.43 337.59,-255.45"/>
</g>
<!-- Node21 -->
<g id="node21" class="node">
<title>Node21</title>
<g id="a_node21"><a xlink:href="_surface_8h.html" target="_top" xlink:title=" ">
<polygon fill="none" stroke="black" points="466.38,-228.5 466.38,-248.5 523.62,-248.5 523.62,-228.5 466.38,-228.5"/>
<text text-anchor="middle" x="495" y="-235" font-family="Helvetica,sans-Serif" font-size="10.00">Surface.h</text>
</a>
</g>
</g>
<!-- Node6&#45;&gt;Node21 -->
<g id="edge26" class="edge">
<title>Node6&#45;&gt;Node21</title>
<path fill="none" stroke="midnightblue" d="M382.83,-285.54C404.63,-276.59 438.38,-262.74 463.17,-252.57"/>
<polygon fill="midnightblue" stroke="midnightblue" points="464.26,-255.49 472.18,-248.46 461.6,-249.01 464.26,-255.49"/>
</g>
<!-- Node26 -->
<g id="node26" class="node">
<title>Node26</title>
<g id="a_node26"><a xlink:title=" ">
<polygon fill="none" stroke="#bfbfbf" points="151.75,-228.5 151.75,-248.5 202.25,-248.5 202.25,-228.5 151.75,-228.5"/>
<text text-anchor="middle" x="177" y="-235" font-family="Helvetica,sans-Serif" font-size="10.00">d3d11.h</text>
</a>
</g>
</g>
<!-- Node6&#45;&gt;Node26 -->
<g id="edge35" class="edge">
<title>Node6&#45;&gt;Node26</title>
<path fill="none" stroke="midnightblue" d="M331.03,-285.54C298.68,-275.87 247.19,-260.48 212.76,-250.19"/>
<polygon fill="midnightblue" stroke="midnightblue" points="213.81,-246.55 203.22,-247.04 211.8,-253.26 213.81,-246.55"/>
</g>
<!-- Node27 -->
<g id="node27" class="node">
<title>Node27</title>
<g id="a_node27"><a xlink:title=" ">
<polygon fill="none" stroke="#bfbfbf" points="219.88,-228.5 219.88,-248.5 256.12,-248.5 256.12,-228.5 219.88,-228.5"/>
<text text-anchor="middle" x="238" y="-235" font-family="Helvetica,sans-Serif" font-size="10.00">wrl.h</text>
</a>
</g>
</g>
<!-- Node6&#45;&gt;Node27 -->
<g id="edge36" class="edge">
<title>Node6&#45;&gt;Node27</title>
<path fill="none" stroke="midnightblue" d="M340.96,-285.54C320.54,-276.41 288.69,-262.17 265.83,-251.94"/>
<polygon fill="midnightblue" stroke="midnightblue" points="267.58,-248.45 257.02,-247.56 264.72,-254.84 267.58,-248.45"/>
</g>
<!-- Node8 -->
<g id="node8" class="node">
<title>Node8</title>
<g id="a_node8"><a xlink:title=" ">
<polygon fill="none" stroke="#bfbfbf" points="397,-114.5 397,-134.5 437,-134.5 437,-114.5 397,-114.5"/>
<text text-anchor="middle" x="417" y="-121" font-family="Helvetica,sans-Serif" font-size="10.00">string</text>
</a>
</g>
</g>
<!-- Node7&#45;&gt;Node8 -->
<g id="edge7" class="edge">
<title>Node7&#45;&gt;Node8</title>
<path fill="none" stroke="midnightblue" d="M340.62,-171.66C354.73,-163.13 376.35,-150.07 392.99,-140.01"/>
<polygon fill="midnightblue" stroke="midnightblue" points="394.37,-142.67 401.11,-134.5 390.74,-136.67 394.37,-142.67"/>
</g>
<!-- Node10 -->
<g id="node10" class="node">
<title>Node10</title>
<g id="a_node10"><a xlink:href="_math_8h.html" target="_top" xlink:title=" ">
<polygon fill="none" stroke="black" points="651,-57.5 651,-77.5 697,-77.5 697,-57.5 651,-57.5"/>
<text text-anchor="middle" x="674" y="-64" font-family="Helvetica,sans-Serif" font-size="10.00">Math.h</text>
</a>
</g>
</g>
<!-- Node9&#45;&gt;Node10 -->
<g id="edge9" class="edge">
<title>Node9&#45;&gt;Node10</title>
<path fill="none" stroke="midnightblue" d="M562.66,-114.54C584.31,-105.59 617.8,-91.74 642.41,-81.57"/>
<polygon fill="midnightblue" stroke="midnightblue" points="643.44,-84.51 651.34,-77.46 640.77,-78.04 643.44,-84.51"/>
</g>
<!-- Node9&#45;&gt;Node15 -->
<g id="edge15" class="edge">
<title>Node9&#45;&gt;Node15</title>
<path fill="none" stroke="midnightblue" d="M527.5,-114.66C514.6,-106.21 494.9,-93.31 479.6,-83.3"/>
<polygon fill="midnightblue" stroke="midnightblue" points="482.03,-80.05 471.74,-77.5 478.19,-85.9 482.03,-80.05"/>
</g>
<!-- Node16 -->
<g id="node16" class="node">
<title>Node16</title>
<g id="a_node16"><a xlink:title=" ">
<polygon fill="none" stroke="#bfbfbf" points="530.12,-0.5 530.12,-20.5 567.88,-20.5 567.88,-0.5 530.12,-0.5"/>
<text text-anchor="middle" x="549" y="-7" font-family="Helvetica,sans-Serif" font-size="10.00">array</text>
</a>
</g>
</g>
<!-- Node9&#45;&gt;Node16 -->
<g id="edge20" class="edge">
<title>Node9&#45;&gt;Node16</title>
<path fill="none" stroke="midnightblue" d="M562.16,-114.62C576.85,-107.19 595.28,-95.06 604,-78 614.15,-58.14 593.9,-38.9 575.18,-26.26"/>
<polygon fill="midnightblue" stroke="midnightblue" points="577.29,-22.83 566.97,-20.45 573.56,-28.75 577.29,-22.83"/>
</g>
<!-- Node17 -->
<g id="node17" class="node">
<title>Node17</title>
<g id="a_node17"><a xlink:title=" ">
<polygon fill="none" stroke="#bfbfbf" points="386.25,-0.5 386.25,-20.5 433.75,-20.5 433.75,-0.5 386.25,-0.5"/>
<text text-anchor="middle" x="410" y="-7" font-family="Helvetica,sans-Serif" font-size="10.00">cstddef</text>
</a>
</g>
</g>
<!-- Node9&#45;&gt;Node17 -->
<g id="edge23" class="edge">
<title>Node9&#45;&gt;Node17</title>
<path fill="none" stroke="midnightblue" d="M482.35,-114.53C459.61,-108.09 435.39,-97.02 420,-78 409.44,-64.95 407.59,-45.59 407.99,-31.12"/>
<polygon fill="midnightblue" stroke="midnightblue" points="411.54,-31.57 408.72,-21.36 404.55,-31.1 411.54,-31.57"/>
</g>
<!-- Node18 -->
<g id="node18" class="node">
<title>Node18</title>
<g id="a_node18"><a xlink:title=" ">
<polygon fill="none" stroke="#bfbfbf" points="456.25,-0.5 456.25,-20.5 509.75,-20.5 509.75,-0.5 456.25,-0.5"/>
<text text-anchor="middle" x="483" y="-7" font-family="Helvetica,sans-Serif" font-size="10.00">iostream</text>
</a>
</g>
</g>
<!-- Node9&#45;&gt;Node18 -->
<g id="edge21" class="edge">
<title>Node9&#45;&gt;Node18</title>
<path fill="none" stroke="midnightblue" d="M536.45,-114.71C527,-96.47 505.11,-54.19 492.46,-29.77"/>
<polygon fill="midnightblue" stroke="midnightblue" points="495.24,-28.52 487.53,-21.25 489.02,-31.74 495.24,-28.52"/>
</g>
<!-- Node19 -->
<g id="node19" class="node">
<title>Node19</title>
<g id="a_node19"><a xlink:title=" ">
<polygon fill="none" stroke="#bfbfbf" points="541.25,-57.5 541.25,-77.5 594.75,-77.5 594.75,-57.5 541.25,-57.5"/>
<text text-anchor="middle" x="568" y="-64" font-family="Helvetica,sans-Serif" font-size="10.00">compare</text>
</a>
</g>
</g>
<!-- Node9&#45;&gt;Node19 -->
<g id="edge22" class="edge">
<title>Node9&#45;&gt;Node19</title>
<path fill="none" stroke="midnightblue" d="M545.22,-114.91C548.88,-107.44 554.31,-96.38 558.95,-86.93"/>
<polygon fill="midnightblue" stroke="midnightblue" points="562.46,-88.73 563.72,-78.21 556.17,-85.65 562.46,-88.73"/>
</g>
<!-- Node10&#45;&gt;Node10 -->
<g id="edge10" class="edge">
<title>Node10&#45;&gt;Node10</title>
<path fill="none" stroke="midnightblue" d="M692.55,-77.43C704.05,-79.83 715,-76.52 715,-67.5 715,-61.44 710.06,-57.96 703.33,-57.05"/>
<polygon fill="midnightblue" stroke="midnightblue" points="703.37,-53.59 693.55,-57.57 703.71,-60.59 703.37,-53.59"/>
</g>
<!-- Node11 -->
<g id="node11" class="node">
<title>Node11</title>
<g id="a_node11"><a xlink:title=" ">
<polygon fill="none" stroke="#bfbfbf" points="586.5,-0.5 586.5,-20.5 629.5,-20.5 629.5,-0.5 586.5,-0.5"/>
<text text-anchor="middle" x="608" y="-7" font-family="Helvetica,sans-Serif" font-size="10.00">cmath</text>
</a>
</g>
</g>
<!-- Node10&#45;&gt;Node11 -->
<g id="edge11" class="edge">
<title>Node10&#45;&gt;Node11</title>
<path fill="none" stroke="midnightblue" d="M663.4,-57.66C653.64,-49.53 638.94,-37.28 627.13,-27.44"/>
<polygon fill="midnightblue" stroke="midnightblue" points="629.72,-24.21 619.8,-20.5 625.24,-29.59 629.72,-24.21"/>
</g>
<!-- Node12 -->
<g id="node12" class="node">
<title>Node12</title>
<g id="a_node12"><a xlink:title=" ">
<polygon fill="none" stroke="#bfbfbf" points="863.38,-0.5 863.38,-20.5 902.62,-20.5 902.62,-0.5 863.38,-0.5"/>
<text text-anchor="middle" x="883" y="-7" font-family="Helvetica,sans-Serif" font-size="10.00">limits</text>
</a>
</g>
</g>
<!-- Node10&#45;&gt;Node12 -->
<g id="edge12" class="edge">
<title>Node10&#45;&gt;Node12</title>
<path fill="none" stroke="midnightblue" d="M696.76,-60.51C734.74,-50.52 810.99,-30.45 853.2,-19.34"/>
<polygon fill="midnightblue" stroke="midnightblue" points="853.86,-22.52 862.64,-16.59 852.08,-15.75 853.86,-22.52"/>
</g>
<!-- Node13 -->
<g id="node13" class="node">
<title>Node13</title>
<g id="a_node13"><a xlink:title=" ">
<polygon fill="none" stroke="#bfbfbf" points="715.25,-0.5 715.25,-20.5 768.75,-20.5 768.75,-0.5 715.25,-0.5"/>
<text text-anchor="middle" x="742" y="-7" font-family="Helvetica,sans-Serif" font-size="10.00">numbers</text>
</a>
</g>
</g>
<!-- Node10&#45;&gt;Node13 -->
<g id="edge13" class="edge">
<title>Node10&#45;&gt;Node13</title>
<path fill="none" stroke="midnightblue" d="M684.93,-57.66C695.08,-49.45 710.42,-37.04 722.65,-27.15"/>
<polygon fill="midnightblue" stroke="midnightblue" points="724.3,-29.51 729.88,-20.5 719.9,-24.06 724.3,-29.51"/>
</g>
<!-- Node14 -->
<g id="node14" class="node">
<title>Node14</title>
<g id="a_node14"><a xlink:title=" ">
<polygon fill="none" stroke="#bfbfbf" points="648.88,-0.5 648.88,-20.5 697.12,-20.5 697.12,-0.5 648.88,-0.5"/>
<text text-anchor="middle" x="673" y="-7" font-family="Helvetica,sans-Serif" font-size="10.00">random</text>
</a>
</g>
</g>
<!-- Node10&#45;&gt;Node14 -->
<g id="edge14" class="edge">
<title>Node10&#45;&gt;Node14</title>
<path fill="none" stroke="midnightblue" d="M673.84,-57.91C673.71,-50.76 673.52,-40.32 673.36,-31.15"/>
<polygon fill="midnightblue" stroke="midnightblue" points="676.84,-31.15 673.16,-21.21 669.84,-31.28 676.84,-31.15"/>
</g>
<!-- Node15&#45;&gt;Node11 -->
<g id="edge17" class="edge">
<title>Node15&#45;&gt;Node11</title>
<path fill="none" stroke="midnightblue" d="M481.6,-57.54C507.53,-48.09 548.47,-33.18 576.69,-22.9"/>
<polygon fill="midnightblue" stroke="midnightblue" points="577.63,-25.92 585.83,-19.21 575.23,-19.35 577.63,-25.92"/>
</g>
<!-- Node15&#45;&gt;Node16 -->
<g id="edge16" class="edge">
<title>Node15&#45;&gt;Node16</title>
<path fill="none" stroke="midnightblue" d="M471.78,-57.66C486.05,-49.13 507.9,-36.07 524.72,-26.01"/>
<polygon fill="midnightblue" stroke="midnightblue" points="526.16,-28.63 532.95,-20.5 522.57,-22.62 526.16,-28.63"/>
</g>
<!-- Node15&#45;&gt;Node17 -->
<g id="edge18" class="edge">
<title>Node15&#45;&gt;Node17</title>
<path fill="none" stroke="midnightblue" d="M449.66,-57.91C442.94,-50.04 432.8,-38.18 424.46,-28.42"/>
<polygon fill="midnightblue" stroke="midnightblue" points="426.6,-26.54 417.45,-21.21 421.28,-31.09 426.6,-26.54"/>
</g>
<!-- Node15&#45;&gt;Node18 -->
<g id="edge19" class="edge">
<title>Node15&#45;&gt;Node18</title>
<path fill="none" stroke="midnightblue" d="M461.06,-57.91C464.59,-50.44 469.82,-39.38 474.29,-29.93"/>
<polygon fill="midnightblue" stroke="midnightblue" points="477.77,-31.75 478.88,-21.21 471.44,-28.76 477.77,-31.75"/>
</g>
<!-- Node20&#45;&gt;Node3 -->
<g id="edge25" class="edge">
<title>Node20&#45;&gt;Node3</title>
<path fill="none" stroke="midnightblue" d="M309.34,-228.66C296.29,-220.21 276.35,-207.31 260.87,-197.3"/>
<polygon fill="midnightblue" stroke="midnightblue" points="263.2,-193.99 252.91,-191.5 259.4,-199.87 263.2,-193.99"/>
</g>
<!-- Node21&#45;&gt;Node3 -->
<g id="edge27" class="edge">
<title>Node21&#45;&gt;Node3</title>
<path fill="none" stroke="midnightblue" d="M466.46,-232.81C425.08,-225.78 345.83,-211.5 268.91,-192"/>
<polygon fill="midnightblue" stroke="midnightblue" points="270.13,-188.44 259.57,-189.34 268.39,-195.22 270.13,-188.44"/>
</g>
<!-- Node21&#45;&gt;Node7 -->
<g id="edge30" class="edge">
<title>Node21&#45;&gt;Node7</title>
<path fill="none" stroke="midnightblue" d="M467.47,-228.54C439.24,-219.35 395.12,-204.99 363.66,-194.76"/>
<polygon fill="midnightblue" stroke="midnightblue" points="365.11,-191.22 354.52,-191.46 362.94,-197.88 365.11,-191.22"/>
</g>
<!-- Node21&#45;&gt;Node8 -->
<g id="edge33" class="edge">
<title>Node21&#45;&gt;Node8</title>
<path fill="none" stroke="midnightblue" d="M487.81,-228.6C480.57,-219.54 469.2,-205.03 460,-192 448.62,-175.89 436.5,-156.96 428.03,-143.42"/>
<polygon fill="midnightblue" stroke="midnightblue" points="430.59,-141.91 422.34,-135.26 424.64,-145.6 430.59,-141.91"/>
</g>
<!-- Node22 -->
<g id="node22" class="node">
<title>Node22</title>
<g id="a_node22"><a xlink:href="_colors_8h.html" target="_top" xlink:title=" ">
<polygon fill="none" stroke="black" points="469,-171.5 469,-191.5 521,-191.5 521,-171.5 469,-171.5"/>
<text text-anchor="middle" x="495" y="-178" font-family="Helvetica,sans-Serif" font-size="10.00">Colors.h</text>
</a>
</g>
</g>
<!-- Node21&#45;&gt;Node22 -->
<g id="edge28" class="edge">
<title>Node21&#45;&gt;Node22</title>
<path fill="none" stroke="midnightblue" d="M495,-228.91C495,-221.76 495,-211.32 495,-202.15"/>
<polygon fill="midnightblue" stroke="midnightblue" points="498.5,-202.21 495,-192.21 491.5,-202.21 498.5,-202.21"/>
</g>
<!-- Node23 -->
<g id="node23" class="node">
<title>Node23</title>
<g id="a_node23"><a xlink:title=" ">
<polygon fill="none" stroke="#bfbfbf" points="539.38,-171.5 539.38,-191.5 590.62,-191.5 590.62,-171.5 539.38,-171.5"/>
<text text-anchor="middle" x="565" y="-178" font-family="Helvetica,sans-Serif" font-size="10.00">assert.h</text>
</a>
</g>
</g>
<!-- Node21&#45;&gt;Node23 -->
<g id="edge31" class="edge">
<title>Node21&#45;&gt;Node23</title>
<path fill="none" stroke="midnightblue" d="M506.25,-228.66C516.7,-220.45 532.49,-208.04 545.08,-198.15"/>
<polygon fill="midnightblue" stroke="midnightblue" points="546.85,-200.43 552.55,-191.5 542.52,-194.92 546.85,-200.43"/>
</g>
<!-- Node24 -->
<g id="node24" class="node">
<title>Node24</title>
<g id="a_node24"><a xlink:title=" ">
<polygon fill="none" stroke="#bfbfbf" points="608.38,-171.5 608.38,-191.5 659.62,-191.5 659.62,-171.5 608.38,-171.5"/>
<text text-anchor="middle" x="634" y="-178" font-family="Helvetica,sans-Serif" font-size="10.00">memory</text>
</a>
</g>
</g>
<!-- Node21&#45;&gt;Node24 -->
<g id="edge32" class="edge">
<title>Node21&#45;&gt;Node24</title>
<path fill="none" stroke="midnightblue" d="M517.64,-228.54C540.36,-219.55 575.58,-205.62 601.32,-195.43"/>
<polygon fill="midnightblue" stroke="midnightblue" points="602.36,-198.39 610.37,-191.46 599.78,-191.88 602.36,-198.39"/>
</g>
<!-- Node25 -->
<g id="node25" class="node">
<title>Node25</title>
<g id="a_node25"><a xlink:title=" ">
<polygon fill="none" stroke="#bfbfbf" points="677.88,-171.5 677.88,-191.5 738.12,-191.5 738.12,-171.5 677.88,-171.5"/>
<text text-anchor="middle" x="708" y="-178" font-family="Helvetica,sans-Serif" font-size="10.00">filesystem</text>
</a>
</g>
</g>
<!-- Node21&#45;&gt;Node25 -->
<g id="edge34" class="edge">
<title>Node21&#45;&gt;Node25</title>
<path fill="none" stroke="midnightblue" d="M523.28,-230.2C560.24,-220.65 625.2,-203.88 667.41,-192.98"/>
<polygon fill="midnightblue" stroke="midnightblue" points="668.07,-196.17 676.88,-190.28 666.32,-189.39 668.07,-196.17"/>
</g>
<!-- Node22&#45;&gt;Node9 -->
<g id="edge29" class="edge">
<title>Node22&#45;&gt;Node9</title>
<path fill="none" stroke="midnightblue" d="M502.19,-171.91C508.77,-164.04 518.69,-152.18 526.85,-142.42"/>
<polygon fill="midnightblue" stroke="midnightblue" points="529.98,-145.13 533.71,-135.21 524.61,-140.64 529.98,-145.13"/>
</g>
<!-- Node29&#45;&gt;Node9 -->
<g id="edge39" class="edge">
<title>Node29&#45;&gt;Node9</title>
<path fill="none" stroke="midnightblue" d="M620.94,-342.51C682.53,-331.19 779.79,-312.43 785,-306 806.14,-279.9 887.77,-295.56 780,-171 758.38,-146.01 673.92,-134.57 611.51,-129.45"/>
<polygon fill="midnightblue" stroke="midnightblue" points="612.16,-125.92 601.91,-128.63 611.61,-132.9 612.16,-125.92"/>
</g>
<!-- Node30 -->
<g id="node30" class="node">
<title>Node30</title>
<g id="a_node30"><a xlink:title=" ">
<polygon fill="none" stroke="#bfbfbf" points="734.25,-285.5 734.25,-305.5 775.75,-305.5 775.75,-285.5 734.25,-285.5"/>
<text text-anchor="middle" x="755" y="-292" font-family="Helvetica,sans-Serif" font-size="10.00">vector</text>
</a>
</g>
</g>
<!-- Node29&#45;&gt;Node30 -->
<g id="edge40" class="edge">
<title>Node29&#45;&gt;Node30</title>
<path fill="none" stroke="midnightblue" d="M600.97,-342.54C634.88,-332.41 689.83,-315.98 724.11,-305.73"/>
<polygon fill="midnightblue" stroke="midnightblue" points="724.88,-308.86 733.46,-302.64 722.88,-302.15 724.88,-308.86"/>
</g>
<!-- Node31&#45;&gt;Node6 -->
<g id="edge42" class="edge">
<title>Node31&#45;&gt;Node6</title>
<path fill="none" stroke="midnightblue" d="M392.22,-342.91C387.09,-335.28 379.43,-323.9 372.99,-314.32"/>
<polygon fill="midnightblue" stroke="midnightblue" points="375.35,-312.56 366.86,-306.21 369.54,-316.47 375.35,-312.56"/>
</g>
<!-- Node31&#45;&gt;Node9 -->
<g id="edge43" class="edge">
<title>Node31&#45;&gt;Node9</title>
<path fill="none" stroke="midnightblue" d="M462.14,-343.1C544.44,-328.49 684.07,-289.94 747,-192 780.72,-139.52 684.12,-127.14 612.01,-124.92"/>
<polygon fill="midnightblue" stroke="midnightblue" points="612.2,-121.4 602.12,-124.65 612.03,-128.4 612.2,-121.4"/>
</g>
<!-- Node32&#45;&gt;Node12 -->
<g id="edge46" class="edge">
<title>Node32&#45;&gt;Node12</title>
<path fill="none" stroke="midnightblue" d="M863.84,-342.7C871.26,-333.95 882.25,-319.86 889,-306 902.45,-278.36 908,-270.24 908,-239.5 908,-239.5 908,-239.5 908,-123.5 908,-90.23 897.36,-52.71 889.97,-30.64"/>
<polygon fill="midnightblue" stroke="midnightblue" points="892.97,-29.64 886.37,-21.35 886.37,-31.95 892.97,-29.64"/>
</g>
<!-- Node33 -->
<g id="node33" class="node">
<title>Node33</title>
<g id="a_node33"><a xlink:title=" ">
<polygon fill="none" stroke="#bfbfbf" points="831.88,-285.5 831.88,-305.5 880.12,-305.5 880.12,-285.5 831.88,-285.5"/>
<text text-anchor="middle" x="856" y="-292" font-family="Helvetica,sans-Serif" font-size="10.00">cassert</text>
</a>
</g>
</g>
<!-- Node32&#45;&gt;Node33 -->
<g id="edge47" class="edge">
<title>Node32&#45;&gt;Node33</title>
<path fill="none" stroke="midnightblue" d="M856,-342.91C856,-335.76 856,-325.32 856,-316.15"/>
<polygon fill="midnightblue" stroke="midnightblue" points="859.5,-316.21 856,-306.21 852.5,-316.21 859.5,-316.21"/>
</g>
<!-- Node35&#45;&gt;Node28 -->
<g id="edge50" class="edge">
<title>Node35&#45;&gt;Node28</title>
<path fill="none" stroke="midnightblue" d="M122.17,-399.66C104.55,-390.94 77.35,-377.46 56.88,-367.31"/>
<polygon fill="midnightblue" stroke="midnightblue" points="58.67,-363.8 48.16,-362.5 55.56,-370.07 58.67,-363.8"/>
</g>
</g>
</svg>
