<?xml version="1.0" encoding="UTF-8" standalone="no"?>
<!DOCTYPE svg PUBLIC "-//W3C//DTD SVG 1.1//EN"
 "http://www.w3.org/Graphics/SVG/1.1/DTD/svg11.dtd">
<!-- Generated by graphviz version 8.1.0 (20230707.0739)
 -->
<!-- Title: include/Scenes/VertexWaveScene.h Pages: 1 -->
<svg width="1042pt" height="566pt"
 viewBox="0.00 0.00 1042.00 566.00" xmlns="http://www.w3.org/2000/svg" xmlns:xlink="http://www.w3.org/1999/xlink">
<g id="graph0" class="graph" transform="scale(1 1) rotate(0) translate(4 562)">
<title>include/Scenes/VertexWaveScene.h</title>
<!-- Node1 -->
<g id="node1" class="node">
<title>Node1</title>
<g id="a_node1"><a xlink:title=" ">
<polygon fill="#bfbfbf" stroke="black" points="49.88,-525.5 49.88,-557.5 188.12,-557.5 188.12,-525.5 49.88,-525.5"/>
<text text-anchor="start" x="57.88" y="-544" font-family="Helvetica,sans-Serif" font-size="10.00">include/Scenes/VertexWave</text>
<text text-anchor="middle" x="119" y="-532" font-family="Helvetica,sans-Serif" font-size="10.00">Scene.h</text>
</a>
</g>
</g>
<!-- Node2 -->
<g id="node2" class="node">
<title>Node2</title>
<g id="a_node2"><a xlink:href="_scene_8h.html" target="_top" xlink:title=" ">
<polygon fill="none" stroke="black" points="150,-342.5 150,-362.5 202,-362.5 202,-342.5 150,-342.5"/>
<text text-anchor="middle" x="176" y="-349" font-family="Helvetica,sans-Serif" font-size="10.00">Scene.h</text>
</a>
</g>
</g>
<!-- Node1&#45;&gt;Node2 -->
<g id="edge1" class="edge">
<title>Node1&#45;&gt;Node2</title>
<path fill="none" stroke="midnightblue" d="M122.25,-525.85C128.16,-499.94 141.47,-444.5 157,-399 160.04,-390.09 163.98,-380.43 167.48,-372.32"/>
<polygon fill="midnightblue" stroke="midnightblue" points="171.01,-373.99 171.86,-363.43 164.61,-371.16 171.01,-373.99"/>
</g>
<!-- Node15 -->
<g id="node15" class="node">
<title>Node15</title>
<g id="a_node15"><a xlink:href="_matrix3_8h.html" target="_top" xlink:title=" ">
<polygon fill="none" stroke="black" points="287.75,-57.5 287.75,-77.5 344.25,-77.5 344.25,-57.5 287.75,-57.5"/>
<text text-anchor="middle" x="316" y="-64" font-family="Helvetica,sans-Serif" font-size="10.00">Matrix3.h</text>
</a>
</g>
</g>
<!-- Node1&#45;&gt;Node15 -->
<g id="edge59" class="edge">
<title>Node1&#45;&gt;Node15</title>
<path fill="none" stroke="midnightblue" d="M90.5,-525.6C55.29,-504.9 0,-463.89 0,-410.5 0,-410.5 0,-410.5 0,-294.5 0,-263.76 0.47,-252.52 19,-228 33.5,-208.81 181.54,-124.86 203,-114 228.08,-101.3 257.59,-89.52 280.16,-81.13"/>
<polygon fill="midnightblue" stroke="midnightblue" points="281.13,-84.13 289.32,-77.41 278.72,-77.56 281.13,-84.13"/>
</g>
<!-- Node34 -->
<g id="node34" class="node">
<title>Node34</title>
<g id="a_node34"><a xlink:href="_plane_8h.html" target="_top" xlink:title=" ">
<polygon fill="none" stroke="black" points="28,-228.5 28,-248.5 122,-248.5 122,-228.5 28,-228.5"/>
<text text-anchor="middle" x="75" y="-235" font-family="Helvetica,sans-Serif" font-size="10.00">Primitives/Plane.h</text>
</a>
</g>
</g>
<!-- Node1&#45;&gt;Node34 -->
<g id="edge51" class="edge">
<title>Node1&#45;&gt;Node34</title>
<path fill="none" stroke="midnightblue" d="M115.43,-525.79C109.92,-501.8 100,-452.7 100,-410.5 100,-410.5 100,-410.5 100,-351.5 100,-318.23 89.36,-280.71 81.97,-258.64"/>
<polygon fill="midnightblue" stroke="midnightblue" points="84.97,-257.64 78.37,-249.35 78.37,-259.95 84.97,-257.64"/>
</g>
<!-- Node37 -->
<g id="node37" class="node">
<title>Node37</title>
<g id="a_node37"><a xlink:href="_wave_vertex_texture_effect_8h.html" target="_top" xlink:title=" ">
<polygon fill="none" stroke="black" points="182.12,-456.5 182.12,-488.5 315.88,-488.5 315.88,-456.5 182.12,-456.5"/>
<text text-anchor="start" x="190.12" y="-475" font-family="Helvetica,sans-Serif" font-size="10.00">Effects/WaveVertexTexture</text>
<text text-anchor="middle" x="249" y="-463" font-family="Helvetica,sans-Serif" font-size="10.00">Effect.h</text>
</a>
</g>
</g>
<!-- Node1&#45;&gt;Node37 -->
<g id="edge60" class="edge">
<title>Node1&#45;&gt;Node37</title>
<path fill="none" stroke="midnightblue" d="M147.85,-525.63C166.28,-516.13 190.4,-503.7 210.46,-493.37"/>
<polygon fill="midnightblue" stroke="midnightblue" points="211.94,-496.02 219.23,-488.33 208.74,-489.8 211.94,-496.02"/>
</g>
<!-- Node3 -->
<g id="node3" class="node">
<title>Node3</title>
<g id="a_node3"><a xlink:href="_keyboard_8h.html" target="_top" xlink:title=" ">
<polygon fill="none" stroke="black" points="134.25,-285.5 134.25,-305.5 199.75,-305.5 199.75,-285.5 134.25,-285.5"/>
<text text-anchor="middle" x="167" y="-292" font-family="Helvetica,sans-Serif" font-size="10.00">Keyboard.h</text>
</a>
</g>
</g>
<!-- Node2&#45;&gt;Node3 -->
<g id="edge2" class="edge">
<title>Node2&#45;&gt;Node3</title>
<path fill="none" stroke="midnightblue" d="M174.59,-342.91C173.41,-335.68 171.68,-325.09 170.17,-315.85"/>
<polygon fill="midnightblue" stroke="midnightblue" points="173.5,-315.52 168.43,-306.21 166.59,-316.65 173.5,-315.52"/>
</g>
<!-- Node6 -->
<g id="node6" class="node">
<title>Node6</title>
<g id="a_node6"><a xlink:href="_mouse_8h.html" target="_top" xlink:title=" ">
<polygon fill="none" stroke="black" points="218.25,-285.5 218.25,-305.5 271.75,-305.5 271.75,-285.5 218.25,-285.5"/>
<text text-anchor="middle" x="245" y="-292" font-family="Helvetica,sans-Serif" font-size="10.00">Mouse.h</text>
</a>
</g>
</g>
<!-- Node2&#45;&gt;Node6 -->
<g id="edge5" class="edge">
<title>Node2&#45;&gt;Node6</title>
<path fill="none" stroke="midnightblue" d="M187.09,-342.66C197.39,-334.45 212.96,-322.04 225.36,-312.15"/>
<polygon fill="midnightblue" stroke="midnightblue" points="227.07,-314.47 232.71,-305.5 222.71,-308.99 227.07,-314.47"/>
</g>
<!-- Node19 -->
<g id="node19" class="node">
<title>Node19</title>
<g id="a_node19"><a xlink:href="_graphics_8h.html" target="_top" xlink:title=" ">
<polygon fill="none" stroke="black" points="570.38,-285.5 570.38,-305.5 633.62,-305.5 633.62,-285.5 570.38,-285.5"/>
<text text-anchor="middle" x="602" y="-292" font-family="Helvetica,sans-Serif" font-size="10.00">Graphics.h</text>
</a>
</g>
</g>
<!-- Node2&#45;&gt;Node19 -->
<g id="edge25" class="edge">
<title>Node2&#45;&gt;Node19</title>
<path fill="none" stroke="midnightblue" d="M201.89,-344.01C204.95,-343.26 208.03,-342.57 211,-342 336.64,-317.78 487.65,-304.65 559.72,-299.34"/>
<polygon fill="midnightblue" stroke="midnightblue" points="559.87,-302.77 569.59,-298.56 559.36,-295.79 559.87,-302.77"/>
</g>
<!-- Node21 -->
<g id="node21" class="node">
<title>Node21</title>
<g id="a_node21"><a xlink:title=" ">
<polygon fill="none" stroke="#bfbfbf" points="773,-114.5 773,-134.5 813,-134.5 813,-114.5 773,-114.5"/>
<text text-anchor="middle" x="793" y="-121" font-family="Helvetica,sans-Serif" font-size="10.00">string</text>
</a>
</g>
</g>
<!-- Node2&#45;&gt;Node21 -->
<g id="edge50" class="edge">
<title>Node2&#45;&gt;Node21</title>
<path fill="none" stroke="midnightblue" d="M199.9,-342.5C221.54,-334.04 254.07,-320.52 281,-306 377.35,-254.05 384.7,-209.96 487,-171 582.83,-134.51 705.92,-127.14 762.31,-125.75"/>
<polygon fill="midnightblue" stroke="midnightblue" points="762.36,-129.23 772.29,-125.54 762.23,-122.23 762.36,-129.23"/>
</g>
<!-- Node4 -->
<g id="node4" class="node">
<title>Node4</title>
<g id="a_node4"><a xlink:title=" ">
<polygon fill="none" stroke="#bfbfbf" points="140,-228.5 140,-248.5 180,-248.5 180,-228.5 140,-228.5"/>
<text text-anchor="middle" x="160" y="-235" font-family="Helvetica,sans-Serif" font-size="10.00">bitset</text>
</a>
</g>
</g>
<!-- Node3&#45;&gt;Node4 -->
<g id="edge3" class="edge">
<title>Node3&#45;&gt;Node4</title>
<path fill="none" stroke="midnightblue" d="M165.91,-285.91C164.99,-278.68 163.64,-268.09 162.46,-258.85"/>
<polygon fill="midnightblue" stroke="midnightblue" points="165.84,-258.69 161.11,-249.21 158.9,-259.58 165.84,-258.69"/>
</g>
<!-- Node5 -->
<g id="node5" class="node">
<title>Node5</title>
<g id="a_node5"><a xlink:title=" ">
<polygon fill="none" stroke="#bfbfbf" points="197.88,-228.5 197.88,-248.5 240.12,-248.5 240.12,-228.5 197.88,-228.5"/>
<text text-anchor="middle" x="219" y="-235" font-family="Helvetica,sans-Serif" font-size="10.00">queue</text>
</a>
</g>
</g>
<!-- Node3&#45;&gt;Node5 -->
<g id="edge4" class="edge">
<title>Node3&#45;&gt;Node5</title>
<path fill="none" stroke="midnightblue" d="M175.12,-285.91C182.64,-277.96 194.01,-265.94 203.29,-256.12"/>
<polygon fill="midnightblue" stroke="midnightblue" points="205.43,-258.89 209.76,-249.21 200.35,-254.08 205.43,-258.89"/>
</g>
<!-- Node6&#45;&gt;Node5 -->
<g id="edge24" class="edge">
<title>Node6&#45;&gt;Node5</title>
<path fill="none" stroke="midnightblue" d="M240.94,-285.91C237.41,-278.44 232.18,-267.38 227.71,-257.93"/>
<polygon fill="midnightblue" stroke="midnightblue" points="230.56,-256.76 223.12,-249.21 224.23,-259.75 230.56,-256.76"/>
</g>
<!-- Node7 -->
<g id="node7" class="node">
<title>Node7</title>
<g id="a_node7"><a xlink:href="_vector2_8h.html" target="_top" xlink:title=" ">
<polygon fill="none" stroke="black" points="34.88,-114.5 34.88,-134.5 155.12,-134.5 155.12,-114.5 34.88,-114.5"/>
<text text-anchor="middle" x="95" y="-121" font-family="Helvetica,sans-Serif" font-size="10.00">LinearAlgebra/Vector2.h</text>
</a>
</g>
</g>
<!-- Node6&#45;&gt;Node7 -->
<g id="edge6" class="edge">
<title>Node6&#45;&gt;Node7</title>
<path fill="none" stroke="midnightblue" d="M248.49,-285.93C253.39,-272.44 260.47,-245.93 249,-228 228.42,-195.84 203.03,-212.78 171,-192 148.38,-177.32 125.5,-156.27 110.85,-141.81"/>
<polygon fill="midnightblue" stroke="midnightblue" points="113.77,-139.78 104.23,-135.15 108.8,-144.71 113.77,-139.78"/>
</g>
<!-- Node8 -->
<g id="node8" class="node">
<title>Node8</title>
<g id="a_node8"><a xlink:href="_math_8h.html" target="_top" xlink:title=" ">
<polygon fill="none" stroke="black" points="476,-57.5 476,-77.5 522,-77.5 522,-57.5 476,-57.5"/>
<text text-anchor="middle" x="499" y="-64" font-family="Helvetica,sans-Serif" font-size="10.00">Math.h</text>
</a>
</g>
</g>
<!-- Node7&#45;&gt;Node8 -->
<g id="edge7" class="edge">
<title>Node7&#45;&gt;Node8</title>
<path fill="none" stroke="midnightblue" d="M155.05,-115.33C241.25,-103.59 397.19,-82.36 465.46,-73.07"/>
<polygon fill="midnightblue" stroke="midnightblue" points="465.59,-76.45 475.02,-71.63 464.64,-69.51 465.59,-76.45"/>
</g>
<!-- Node13 -->
<g id="node13" class="node">
<title>Node13</title>
<g id="a_node13"><a xlink:href="_matrix2_8h.html" target="_top" xlink:title=" ">
<polygon fill="none" stroke="black" points="65.75,-57.5 65.75,-77.5 122.25,-77.5 122.25,-57.5 65.75,-57.5"/>
<text text-anchor="middle" x="94" y="-64" font-family="Helvetica,sans-Serif" font-size="10.00">Matrix2.h</text>
</a>
</g>
</g>
<!-- Node7&#45;&gt;Node13 -->
<g id="edge13" class="edge">
<title>Node7&#45;&gt;Node13</title>
<path fill="none" stroke="midnightblue" d="M94.84,-114.91C94.71,-107.76 94.52,-97.32 94.36,-88.15"/>
<polygon fill="midnightblue" stroke="midnightblue" points="97.84,-88.15 94.16,-78.21 90.84,-88.28 97.84,-88.15"/>
</g>
<!-- Node14 -->
<g id="node14" class="node">
<title>Node14</title>
<g id="a_node14"><a xlink:title=" ">
<polygon fill="none" stroke="#bfbfbf" points="171.25,-0.5 171.25,-20.5 224.75,-20.5 224.75,-0.5 171.25,-0.5"/>
<text text-anchor="middle" x="198" y="-7" font-family="Helvetica,sans-Serif" font-size="10.00">iostream</text>
</a>
</g>
</g>
<!-- Node7&#45;&gt;Node14 -->
<g id="edge23" class="edge">
<title>Node7&#45;&gt;Node14</title>
<path fill="none" stroke="midnightblue" d="M103.08,-114.71C120.23,-96.06 160.5,-52.28 182.68,-28.16"/>
<polygon fill="midnightblue" stroke="midnightblue" points="184.76,-30.98 188.96,-21.25 179.61,-26.24 184.76,-30.98"/>
</g>
<!-- Node7&#45;&gt;Node15 -->
<g id="edge15" class="edge">
<title>Node7&#45;&gt;Node15</title>
<path fill="none" stroke="midnightblue" d="M131.68,-114.53C166.66,-105.96 221.09,-92.55 277.56,-78.35"/>
<polygon fill="midnightblue" stroke="midnightblue" points="278.28,-81.52 287.13,-75.69 276.57,-74.73 278.28,-81.52"/>
</g>
<!-- Node16 -->
<g id="node16" class="node">
<title>Node16</title>
<g id="a_node16"><a xlink:title=" ">
<polygon fill="none" stroke="#bfbfbf" points="91.12,-0.5 91.12,-20.5 128.88,-20.5 128.88,-0.5 91.12,-0.5"/>
<text text-anchor="middle" x="110" y="-7" font-family="Helvetica,sans-Serif" font-size="10.00">array</text>
</a>
</g>
</g>
<!-- Node7&#45;&gt;Node16 -->
<g id="edge20" class="edge">
<title>Node7&#45;&gt;Node16</title>
<path fill="none" stroke="midnightblue" d="M83.81,-114.73C69.35,-102.26 47.12,-78.51 57,-57 62.76,-44.47 73.85,-34.1 84.41,-26.43"/>
<polygon fill="midnightblue" stroke="midnightblue" points="86.04,-28.88 92.4,-20.41 82.15,-23.07 86.04,-28.88"/>
</g>
<!-- Node17 -->
<g id="node17" class="node">
<title>Node17</title>
<g id="a_node17"><a xlink:title=" ">
<polygon fill="none" stroke="#bfbfbf" points="292.25,-0.5 292.25,-20.5 339.75,-20.5 339.75,-0.5 292.25,-0.5"/>
<text text-anchor="middle" x="316" y="-7" font-family="Helvetica,sans-Serif" font-size="10.00">cstddef</text>
</a>
</g>
</g>
<!-- Node7&#45;&gt;Node17 -->
<g id="edge22" class="edge">
<title>Node7&#45;&gt;Node17</title>
<path fill="none" stroke="midnightblue" d="M108.45,-114.67C129.13,-101.29 170.22,-75.48 207,-57 231.72,-44.58 260.66,-32.61 282.51,-24.07"/>
<polygon fill="midnightblue" stroke="midnightblue" points="283.54,-27.03 291.61,-20.17 281.02,-20.51 283.54,-27.03"/>
</g>
<!-- Node18 -->
<g id="node18" class="node">
<title>Node18</title>
<g id="a_node18"><a xlink:title=" ">
<polygon fill="none" stroke="#bfbfbf" points="216.25,-57.5 216.25,-77.5 269.75,-77.5 269.75,-57.5 216.25,-57.5"/>
<text text-anchor="middle" x="243" y="-64" font-family="Helvetica,sans-Serif" font-size="10.00">compare</text>
</a>
</g>
</g>
<!-- Node7&#45;&gt;Node18 -->
<g id="edge21" class="edge">
<title>Node7&#45;&gt;Node18</title>
<path fill="none" stroke="midnightblue" d="M119.11,-114.54C143.51,-105.47 181.47,-91.37 208.94,-81.16"/>
<polygon fill="midnightblue" stroke="midnightblue" points="209.75,-84.22 217.9,-77.46 207.31,-77.66 209.75,-84.22"/>
</g>
<!-- Node8&#45;&gt;Node8 -->
<g id="edge8" class="edge">
<title>Node8&#45;&gt;Node8</title>
<path fill="none" stroke="midnightblue" d="M517.55,-77.43C529.05,-79.83 540,-76.52 540,-67.5 540,-61.44 535.06,-57.96 528.33,-57.05"/>
<polygon fill="midnightblue" stroke="midnightblue" points="528.37,-53.59 518.55,-57.57 528.71,-60.59 528.37,-53.59"/>
</g>
<!-- Node9 -->
<g id="node9" class="node">
<title>Node9</title>
<g id="a_node9"><a xlink:title=" ">
<polygon fill="none" stroke="#bfbfbf" points="385.5,-0.5 385.5,-20.5 428.5,-20.5 428.5,-0.5 385.5,-0.5"/>
<text text-anchor="middle" x="407" y="-7" font-family="Helvetica,sans-Serif" font-size="10.00">cmath</text>
</a>
</g>
</g>
<!-- Node8&#45;&gt;Node9 -->
<g id="edge9" class="edge">
<title>Node8&#45;&gt;Node9</title>
<path fill="none" stroke="midnightblue" d="M484.22,-57.66C469.95,-49.13 448.1,-36.07 431.28,-26.01"/>
<polygon fill="midnightblue" stroke="midnightblue" points="433.43,-22.62 423.05,-20.5 429.84,-28.63 433.43,-22.62"/>
</g>
<!-- Node10 -->
<g id="node10" class="node">
<title>Node10</title>
<g id="a_node10"><a xlink:title=" ">
<polygon fill="none" stroke="#bfbfbf" points="803.38,-0.5 803.38,-20.5 842.62,-20.5 842.62,-0.5 803.38,-0.5"/>
<text text-anchor="middle" x="823" y="-7" font-family="Helvetica,sans-Serif" font-size="10.00">limits</text>
</a>
</g>
</g>
<!-- Node8&#45;&gt;Node10 -->
<g id="edge10" class="edge">
<title>Node8&#45;&gt;Node10</title>
<path fill="none" stroke="midnightblue" d="M521.78,-62.63C578.99,-52.92 728.69,-27.51 792.97,-16.6"/>
<polygon fill="midnightblue" stroke="midnightblue" points="793.31,-19.92 802.58,-14.8 792.14,-13.02 793.31,-19.92"/>
</g>
<!-- Node11 -->
<g id="node11" class="node">
<title>Node11</title>
<g id="a_node11"><a xlink:title=" ">
<polygon fill="none" stroke="#bfbfbf" points="527.25,-0.5 527.25,-20.5 580.75,-20.5 580.75,-0.5 527.25,-0.5"/>
<text text-anchor="middle" x="554" y="-7" font-family="Helvetica,sans-Serif" font-size="10.00">numbers</text>
</a>
</g>
</g>
<!-- Node8&#45;&gt;Node11 -->
<g id="edge11" class="edge">
<title>Node8&#45;&gt;Node11</title>
<path fill="none" stroke="midnightblue" d="M507.59,-57.91C515.62,-49.88 527.81,-37.69 537.68,-27.82"/>
<polygon fill="midnightblue" stroke="midnightblue" points="539.69,-30.76 544.29,-21.21 534.74,-25.81 539.69,-30.76"/>
</g>
<!-- Node12 -->
<g id="node12" class="node">
<title>Node12</title>
<g id="a_node12"><a xlink:title=" ">
<polygon fill="none" stroke="#bfbfbf" points="460.88,-0.5 460.88,-20.5 509.12,-20.5 509.12,-0.5 460.88,-0.5"/>
<text text-anchor="middle" x="485" y="-7" font-family="Helvetica,sans-Serif" font-size="10.00">random</text>
</a>
</g>
</g>
<!-- Node8&#45;&gt;Node12 -->
<g id="edge12" class="edge">
<title>Node8&#45;&gt;Node12</title>
<path fill="none" stroke="midnightblue" d="M496.81,-57.91C494.97,-50.68 492.28,-40.09 489.92,-30.85"/>
<polygon fill="midnightblue" stroke="midnightblue" points="493.08,-30.04 487.22,-21.21 486.29,-31.77 493.08,-30.04"/>
</g>
<!-- Node13&#45;&gt;Node14 -->
<g id="edge14" class="edge">
<title>Node13&#45;&gt;Node14</title>
<path fill="none" stroke="midnightblue" d="M110.71,-57.66C127.06,-49.01 152.23,-35.7 171.35,-25.59"/>
<polygon fill="midnightblue" stroke="midnightblue" points="172.78,-28.27 179.99,-20.5 169.51,-22.08 172.78,-28.27"/>
</g>
<!-- Node15&#45;&gt;Node9 -->
<g id="edge17" class="edge">
<title>Node15&#45;&gt;Node9</title>
<path fill="none" stroke="midnightblue" d="M330.62,-57.66C344.73,-49.13 366.35,-36.07 382.99,-26.01"/>
<polygon fill="midnightblue" stroke="midnightblue" points="384.37,-28.67 391.11,-20.5 380.74,-22.67 384.37,-28.67"/>
</g>
<!-- Node15&#45;&gt;Node14 -->
<g id="edge19" class="edge">
<title>Node15&#45;&gt;Node14</title>
<path fill="none" stroke="midnightblue" d="M296.78,-57.54C277.84,-48.71 248.65,-35.11 226.91,-24.98"/>
<polygon fill="midnightblue" stroke="midnightblue" points="228.76,-21.51 218.21,-20.46 225.8,-27.85 228.76,-21.51"/>
</g>
<!-- Node15&#45;&gt;Node16 -->
<g id="edge16" class="edge">
<title>Node15&#45;&gt;Node16</title>
<path fill="none" stroke="midnightblue" d="M287.79,-58.97C248.79,-48.56 178.76,-29.86 139.23,-19.3"/>
<polygon fill="midnightblue" stroke="midnightblue" points="140.27,-15.69 129.71,-16.5 138.47,-22.46 140.27,-15.69"/>
</g>
<!-- Node15&#45;&gt;Node17 -->
<g id="edge18" class="edge">
<title>Node15&#45;&gt;Node17</title>
<path fill="none" stroke="midnightblue" d="M316,-57.91C316,-50.76 316,-40.32 316,-31.15"/>
<polygon fill="midnightblue" stroke="midnightblue" points="319.5,-31.21 316,-21.21 312.5,-31.21 319.5,-31.21"/>
</g>
<!-- Node20 -->
<g id="node20" class="node">
<title>Node20</title>
<g id="a_node20"><a xlink:href="_engine_exception_8h.html" target="_top" xlink:title=" ">
<polygon fill="none" stroke="black" points="821.12,-171.5 821.12,-191.5 918.88,-191.5 918.88,-171.5 821.12,-171.5"/>
<text text-anchor="middle" x="870" y="-178" font-family="Helvetica,sans-Serif" font-size="10.00">EngineException.h</text>
</a>
</g>
</g>
<!-- Node19&#45;&gt;Node20 -->
<g id="edge26" class="edge">
<title>Node19&#45;&gt;Node20</title>
<path fill="none" stroke="midnightblue" d="M633.37,-287.7C665.26,-280.23 715.7,-266.89 757,-249 766.19,-245.02 816.13,-215.1 846.46,-196.77"/>
<polygon fill="midnightblue" stroke="midnightblue" points="847.8,-199.45 854.54,-191.28 844.18,-193.46 847.8,-199.45"/>
</g>
<!-- Node22 -->
<g id="node22" class="node">
<title>Node22</title>
<g id="a_node22"><a xlink:href="_vector3_8h.html" target="_top" xlink:title=" ">
<polygon fill="none" stroke="black" points="359.88,-114.5 359.88,-134.5 480.12,-134.5 480.12,-114.5 359.88,-114.5"/>
<text text-anchor="middle" x="420" y="-121" font-family="Helvetica,sans-Serif" font-size="10.00">LinearAlgebra/Vector3.h</text>
</a>
</g>
</g>
<!-- Node19&#45;&gt;Node22 -->
<g id="edge28" class="edge">
<title>Node19&#45;&gt;Node22</title>
<path fill="none" stroke="midnightblue" d="M591.68,-285.63C571.35,-268.08 524.79,-227.55 487,-192 469.21,-175.26 449.42,-155.47 435.99,-141.86"/>
<polygon fill="midnightblue" stroke="midnightblue" points="439.03,-139.94 429.53,-135.26 434.04,-144.84 439.03,-139.94"/>
</g>
<!-- Node23 -->
<g id="node23" class="node">
<title>Node23</title>
<g id="a_node23"><a xlink:href="_g_d_i_plus_manager_8h.html" target="_top" xlink:title=" ">
<polygon fill="none" stroke="black" points="804.12,-228.5 804.12,-248.5 901.88,-248.5 901.88,-228.5 804.12,-228.5"/>
<text text-anchor="middle" x="853" y="-235" font-family="Helvetica,sans-Serif" font-size="10.00">GDIPlusManager.h</text>
</a>
</g>
</g>
<!-- Node19&#45;&gt;Node23 -->
<g id="edge35" class="edge">
<title>Node19&#45;&gt;Node23</title>
<path fill="none" stroke="midnightblue" d="M633.54,-287.59C675.73,-278.34 751.09,-261.83 801.56,-250.77"/>
<polygon fill="midnightblue" stroke="midnightblue" points="802.23,-253.99 811.25,-248.43 800.73,-247.15 802.23,-253.99"/>
</g>
<!-- Node27 -->
<g id="node27" class="node">
<title>Node27</title>
<g id="a_node27"><a xlink:href="_surface_8h.html" target="_top" xlink:title=" ">
<polygon fill="none" stroke="black" points="568.38,-228.5 568.38,-248.5 625.62,-248.5 625.62,-228.5 568.38,-228.5"/>
<text text-anchor="middle" x="597" y="-235" font-family="Helvetica,sans-Serif" font-size="10.00">Surface.h</text>
</a>
</g>
</g>
<!-- Node19&#45;&gt;Node27 -->
<g id="edge39" class="edge">
<title>Node19&#45;&gt;Node27</title>
<path fill="none" stroke="midnightblue" d="M601.22,-285.91C600.57,-278.76 599.62,-268.32 598.79,-259.15"/>
<polygon fill="midnightblue" stroke="midnightblue" points="602.18,-258.86 597.79,-249.21 595.21,-259.49 602.18,-258.86"/>
</g>
<!-- Node32 -->
<g id="node32" class="node">
<title>Node32</title>
<g id="a_node32"><a xlink:title=" ">
<polygon fill="none" stroke="#bfbfbf" points="697.75,-228.5 697.75,-248.5 748.25,-248.5 748.25,-228.5 697.75,-228.5"/>
<text text-anchor="middle" x="723" y="-235" font-family="Helvetica,sans-Serif" font-size="10.00">d3d11.h</text>
</a>
</g>
</g>
<!-- Node19&#45;&gt;Node32 -->
<g id="edge48" class="edge">
<title>Node19&#45;&gt;Node32</title>
<path fill="none" stroke="midnightblue" d="M621.71,-285.54C641.13,-276.71 671.06,-263.11 693.35,-252.98"/>
<polygon fill="midnightblue" stroke="midnightblue" points="694.64,-255.78 702.3,-248.46 691.75,-249.41 694.64,-255.78"/>
</g>
<!-- Node33 -->
<g id="node33" class="node">
<title>Node33</title>
<g id="a_node33"><a xlink:title=" ">
<polygon fill="none" stroke="#bfbfbf" points="643.88,-228.5 643.88,-248.5 680.12,-248.5 680.12,-228.5 643.88,-228.5"/>
<text text-anchor="middle" x="662" y="-235" font-family="Helvetica,sans-Serif" font-size="10.00">wrl.h</text>
</a>
</g>
</g>
<!-- Node19&#45;&gt;Node33 -->
<g id="edge49" class="edge">
<title>Node19&#45;&gt;Node33</title>
<path fill="none" stroke="midnightblue" d="M611.64,-285.66C620.42,-277.61 633.61,-265.52 644.29,-255.73"/>
<polygon fill="midnightblue" stroke="midnightblue" points="646.18,-258.83 651.18,-249.5 641.45,-253.67 646.18,-258.83"/>
</g>
<!-- Node20&#45;&gt;Node21 -->
<g id="edge27" class="edge">
<title>Node20&#45;&gt;Node21</title>
<path fill="none" stroke="midnightblue" d="M857.63,-171.66C846.02,-163.37 828.42,-150.8 814.51,-140.87"/>
<polygon fill="midnightblue" stroke="midnightblue" points="816.77,-137.46 806.6,-134.5 812.7,-143.16 816.77,-137.46"/>
</g>
<!-- Node22&#45;&gt;Node8 -->
<g id="edge29" class="edge">
<title>Node22&#45;&gt;Node8</title>
<path fill="none" stroke="midnightblue" d="M432.69,-114.66C444.71,-106.29 463.01,-93.56 477.34,-83.58"/>
<polygon fill="midnightblue" stroke="midnightblue" points="478.87,-86.08 485.08,-77.5 474.87,-80.34 478.87,-86.08"/>
</g>
<!-- Node22&#45;&gt;Node14 -->
<g id="edge32" class="edge">
<title>Node22&#45;&gt;Node14</title>
<path fill="none" stroke="midnightblue" d="M418.01,-114.65C414.3,-100.27 404.94,-71.94 386,-57 362.87,-38.76 283.15,-24.15 235.27,-16.76"/>
<polygon fill="midnightblue" stroke="midnightblue" points="235.82,-13.16 225.41,-15.13 234.78,-20.08 235.82,-13.16"/>
</g>
<!-- Node22&#45;&gt;Node15 -->
<g id="edge30" class="edge">
<title>Node22&#45;&gt;Node15</title>
<path fill="none" stroke="midnightblue" d="M403.29,-114.66C386.94,-106.01 361.77,-92.7 342.65,-82.59"/>
<polygon fill="midnightblue" stroke="midnightblue" points="344.49,-79.08 334.01,-77.5 341.22,-85.27 344.49,-79.08"/>
</g>
<!-- Node22&#45;&gt;Node16 -->
<g id="edge31" class="edge">
<title>Node22&#45;&gt;Node16</title>
<path fill="none" stroke="midnightblue" d="M414.1,-114.95C403.63,-100.47 380.28,-71.32 353,-57 350.62,-55.75 203.66,-28.69 139.46,-16.9"/>
<polygon fill="midnightblue" stroke="midnightblue" points="140.31,-13.32 129.84,-14.95 139.05,-20.2 140.31,-13.32"/>
</g>
<!-- Node22&#45;&gt;Node17 -->
<g id="edge34" class="edge">
<title>Node22&#45;&gt;Node17</title>
<path fill="none" stroke="midnightblue" d="M423.56,-114.89C428.55,-101.33 435.77,-74.73 424,-57 407.73,-32.49 375.38,-21.15 350.31,-15.92"/>
<polygon fill="midnightblue" stroke="midnightblue" points="351.2,-12.35 340.73,-13.98 349.94,-19.23 351.2,-12.35"/>
</g>
<!-- Node22&#45;&gt;Node18 -->
<g id="edge33" class="edge">
<title>Node22&#45;&gt;Node18</title>
<path fill="none" stroke="midnightblue" d="M391.17,-114.54C360.76,-105.09 312.76,-90.18 279.68,-79.9"/>
<polygon fill="midnightblue" stroke="midnightblue" points="281.09,-76.36 270.5,-76.74 279.02,-83.05 281.09,-76.36"/>
</g>
<!-- Node24 -->
<g id="node24" class="node">
<title>Node24</title>
<g id="a_node24"><a xlink:href="_win_8h.html" target="_top" xlink:title=" ">
<polygon fill="none" stroke="black" points="937.25,-171.5 937.25,-191.5 978.75,-191.5 978.75,-171.5 937.25,-171.5"/>
<text text-anchor="middle" x="958" y="-178" font-family="Helvetica,sans-Serif" font-size="10.00">Win.h</text>
</a>
</g>
</g>
<!-- Node23&#45;&gt;Node24 -->
<g id="edge36" class="edge">
<title>Node23&#45;&gt;Node24</title>
<path fill="none" stroke="midnightblue" d="M869.87,-228.66C886.38,-220.01 911.79,-206.7 931.1,-196.59"/>
<polygon fill="midnightblue" stroke="midnightblue" points="932.59,-199.24 939.82,-191.5 929.34,-193.04 932.59,-199.24"/>
</g>
<!-- Node25 -->
<g id="node25" class="node">
<title>Node25</title>
<g id="a_node25"><a xlink:title=" ">
<polygon fill="none" stroke="#bfbfbf" points="931.12,-114.5 931.12,-134.5 998.88,-134.5 998.88,-114.5 931.12,-114.5"/>
<text text-anchor="middle" x="965" y="-121" font-family="Helvetica,sans-Serif" font-size="10.00">sdkddkver.h</text>
</a>
</g>
</g>
<!-- Node24&#45;&gt;Node25 -->
<g id="edge37" class="edge">
<title>Node24&#45;&gt;Node25</title>
<path fill="none" stroke="midnightblue" d="M959.09,-171.91C960.01,-164.68 961.36,-154.09 962.54,-144.85"/>
<polygon fill="midnightblue" stroke="midnightblue" points="966.1,-145.58 963.89,-135.21 959.16,-144.69 966.1,-145.58"/>
</g>
<!-- Node26 -->
<g id="node26" class="node">
<title>Node26</title>
<g id="a_node26"><a xlink:title=" ">
<polygon fill="none" stroke="#bfbfbf" points="849,-114.5 849,-134.5 913,-134.5 913,-114.5 849,-114.5"/>
<text text-anchor="middle" x="881" y="-121" font-family="Helvetica,sans-Serif" font-size="10.00">Windows.h</text>
</a>
</g>
</g>
<!-- Node24&#45;&gt;Node26 -->
<g id="edge38" class="edge">
<title>Node24&#45;&gt;Node26</title>
<path fill="none" stroke="midnightblue" d="M945.63,-171.66C934.02,-163.37 916.42,-150.8 902.51,-140.87"/>
<polygon fill="midnightblue" stroke="midnightblue" points="904.77,-137.46 894.6,-134.5 900.7,-143.16 904.77,-137.46"/>
</g>
<!-- Node27&#45;&gt;Node20 -->
<g id="edge43" class="edge">
<title>Node27&#45;&gt;Node20</title>
<path fill="none" stroke="midnightblue" d="M625.59,-230.18C628.76,-229.42 631.95,-228.68 635,-228 694.47,-214.82 762.88,-201.81 810.5,-193.11"/>
<polygon fill="midnightblue" stroke="midnightblue" points="811.02,-196.39 820.23,-191.15 809.77,-189.5 811.02,-196.39"/>
</g>
<!-- Node27&#45;&gt;Node21 -->
<g id="edge46" class="edge">
<title>Node27&#45;&gt;Node21</title>
<path fill="none" stroke="midnightblue" d="M625.57,-230.35C675.29,-217.87 772.65,-193.32 774,-192 786.63,-179.71 791.02,-159.65 792.47,-144.78"/>
<polygon fill="midnightblue" stroke="midnightblue" points="796,-145.39 793.1,-135.2 789.01,-144.98 796,-145.39"/>
</g>
<!-- Node27&#45;&gt;Node24 -->
<g id="edge40" class="edge">
<title>Node27&#45;&gt;Node24</title>
<path fill="none" stroke="midnightblue" d="M625.55,-229.96C628.73,-229.24 631.92,-228.57 635,-228 760.59,-204.68 797.85,-219.11 926.8,-191.86"/>
<polygon fill="midnightblue" stroke="midnightblue" points="927.44,-195.08 936.48,-189.55 925.96,-188.24 927.44,-195.08"/>
</g>
<!-- Node28 -->
<g id="node28" class="node">
<title>Node28</title>
<g id="a_node28"><a xlink:href="_colors_8h.html" target="_top" xlink:title=" ">
<polygon fill="none" stroke="black" points="496,-171.5 496,-191.5 548,-191.5 548,-171.5 496,-171.5"/>
<text text-anchor="middle" x="522" y="-178" font-family="Helvetica,sans-Serif" font-size="10.00">Colors.h</text>
</a>
</g>
</g>
<!-- Node27&#45;&gt;Node28 -->
<g id="edge41" class="edge">
<title>Node27&#45;&gt;Node28</title>
<path fill="none" stroke="midnightblue" d="M584.95,-228.66C573.65,-220.37 556.5,-207.8 542.95,-197.87"/>
<polygon fill="midnightblue" stroke="midnightblue" points="545.4,-194.59 535.27,-191.5 541.26,-200.23 545.4,-194.59"/>
</g>
<!-- Node29 -->
<g id="node29" class="node">
<title>Node29</title>
<g id="a_node29"><a xlink:title=" ">
<polygon fill="none" stroke="#bfbfbf" points="566.38,-171.5 566.38,-191.5 617.62,-191.5 617.62,-171.5 566.38,-171.5"/>
<text text-anchor="middle" x="592" y="-178" font-family="Helvetica,sans-Serif" font-size="10.00">assert.h</text>
</a>
</g>
</g>
<!-- Node27&#45;&gt;Node29 -->
<g id="edge44" class="edge">
<title>Node27&#45;&gt;Node29</title>
<path fill="none" stroke="midnightblue" d="M596.22,-228.91C595.57,-221.76 594.62,-211.32 593.79,-202.15"/>
<polygon fill="midnightblue" stroke="midnightblue" points="597.18,-201.86 592.79,-192.21 590.21,-202.49 597.18,-201.86"/>
</g>
<!-- Node30 -->
<g id="node30" class="node">
<title>Node30</title>
<g id="a_node30"><a xlink:title=" ">
<polygon fill="none" stroke="#bfbfbf" points="635.38,-171.5 635.38,-191.5 686.62,-191.5 686.62,-171.5 635.38,-171.5"/>
<text text-anchor="middle" x="661" y="-178" font-family="Helvetica,sans-Serif" font-size="10.00">memory</text>
</a>
</g>
</g>
<!-- Node27&#45;&gt;Node30 -->
<g id="edge45" class="edge">
<title>Node27&#45;&gt;Node30</title>
<path fill="none" stroke="midnightblue" d="M607.28,-228.66C616.74,-220.53 631,-208.28 642.45,-198.44"/>
<polygon fill="midnightblue" stroke="midnightblue" points="644.23,-200.67 649.53,-191.5 639.66,-195.36 644.23,-200.67"/>
</g>
<!-- Node31 -->
<g id="node31" class="node">
<title>Node31</title>
<g id="a_node31"><a xlink:title=" ">
<polygon fill="none" stroke="#bfbfbf" points="704.88,-171.5 704.88,-191.5 765.12,-191.5 765.12,-171.5 704.88,-171.5"/>
<text text-anchor="middle" x="735" y="-178" font-family="Helvetica,sans-Serif" font-size="10.00">filesystem</text>
</a>
</g>
</g>
<!-- Node27&#45;&gt;Node31 -->
<g id="edge47" class="edge">
<title>Node27&#45;&gt;Node31</title>
<path fill="none" stroke="midnightblue" d="M619.48,-228.54C642.03,-219.55 677,-205.62 702.56,-195.43"/>
<polygon fill="midnightblue" stroke="midnightblue" points="703.54,-198.41 711.53,-191.46 700.95,-191.91 703.54,-198.41"/>
</g>
<!-- Node28&#45;&gt;Node22 -->
<g id="edge42" class="edge">
<title>Node28&#45;&gt;Node22</title>
<path fill="none" stroke="midnightblue" d="M505.61,-171.66C489.57,-163.01 464.89,-149.7 446.14,-139.59"/>
<polygon fill="midnightblue" stroke="midnightblue" points="448.15,-136.16 437.69,-134.5 444.83,-142.32 448.15,-136.16"/>
</g>
<!-- Node34&#45;&gt;Node7 -->
<g id="edge55" class="edge">
<title>Node34&#45;&gt;Node7</title>
<path fill="none" stroke="midnightblue" d="M76.57,-228.71C79.78,-210.72 87.18,-169.32 91.56,-144.77"/>
<polygon fill="midnightblue" stroke="midnightblue" points="95.13,-145.71 93.44,-135.25 88.23,-144.48 95.13,-145.71"/>
</g>
<!-- Node34&#45;&gt;Node16 -->
<g id="edge57" class="edge">
<title>Node34&#45;&gt;Node16</title>
<path fill="none" stroke="midnightblue" d="M67.39,-228.54C51.41,-208.63 16.58,-158.93 26,-114 31.68,-86.93 33.96,-78.79 51,-57 60.4,-44.98 73.66,-34.37 85.24,-26.43"/>
<polygon fill="midnightblue" stroke="midnightblue" points="86.98,-28.82 93.44,-20.42 83.15,-22.96 86.98,-28.82"/>
</g>
<!-- Node34&#45;&gt;Node22 -->
<g id="edge56" class="edge">
<title>Node34&#45;&gt;Node22</title>
<path fill="none" stroke="midnightblue" d="M121.72,-229.59C176.96,-219.94 265.39,-203.5 297,-192 334.09,-178.51 373.69,-155.33 397.64,-140.21"/>
<polygon fill="midnightblue" stroke="midnightblue" points="399.07,-142.81 405.6,-134.47 395.3,-136.91 399.07,-142.81"/>
</g>
<!-- Node35 -->
<g id="node35" class="node">
<title>Node35</title>
<g id="a_node35"><a xlink:href="_indexed_triangle_list_8h.html" target="_top" xlink:title=" ">
<polygon fill="none" stroke="black" points="180.25,-171.5 180.25,-191.5 287.75,-191.5 287.75,-171.5 180.25,-171.5"/>
<text text-anchor="middle" x="234" y="-178" font-family="Helvetica,sans-Serif" font-size="10.00">IndexedTriangleList.h</text>
</a>
</g>
</g>
<!-- Node34&#45;&gt;Node35 -->
<g id="edge52" class="edge">
<title>Node34&#45;&gt;Node35</title>
<path fill="none" stroke="midnightblue" d="M100.9,-228.54C127.23,-219.43 168.25,-205.24 197.79,-195.02"/>
<polygon fill="midnightblue" stroke="midnightblue" points="198.8,-198.03 207.11,-191.46 196.52,-191.42 198.8,-198.03"/>
</g>
<!-- Node36 -->
<g id="node36" class="node">
<title>Node36</title>
<g id="a_node36"><a xlink:title=" ">
<polygon fill="none" stroke="#bfbfbf" points="212.25,-114.5 212.25,-134.5 253.75,-134.5 253.75,-114.5 212.25,-114.5"/>
<text text-anchor="middle" x="233" y="-121" font-family="Helvetica,sans-Serif" font-size="10.00">vector</text>
</a>
</g>
</g>
<!-- Node34&#45;&gt;Node36 -->
<g id="edge58" class="edge">
<title>Node34&#45;&gt;Node36</title>
<path fill="none" stroke="midnightblue" d="M87.66,-228.52C114.72,-209.34 178.43,-164.18 211.79,-140.54"/>
<polygon fill="midnightblue" stroke="midnightblue" points="213.58,-142.85 219.71,-134.21 209.53,-137.14 213.58,-142.85"/>
</g>
<!-- Node35&#45;&gt;Node22 -->
<g id="edge53" class="edge">
<title>Node35&#45;&gt;Node22</title>
<path fill="none" stroke="midnightblue" d="M264.3,-171.54C295.64,-162.27 344.78,-147.74 379.45,-137.49"/>
<polygon fill="midnightblue" stroke="midnightblue" points="380.12,-140.65 388.71,-134.46 378.13,-133.93 380.12,-140.65"/>
</g>
<!-- Node35&#45;&gt;Node36 -->
<g id="edge54" class="edge">
<title>Node35&#45;&gt;Node36</title>
<path fill="none" stroke="midnightblue" d="M233.84,-171.91C233.71,-164.76 233.52,-154.32 233.36,-145.15"/>
<polygon fill="midnightblue" stroke="midnightblue" points="236.84,-145.15 233.16,-135.21 229.84,-145.28 236.84,-145.15"/>
</g>
<!-- Node38 -->
<g id="node38" class="node">
<title>Node38</title>
<g id="a_node38"><a xlink:href="_pipeline_8h.html" target="_top" xlink:title=" ">
<polygon fill="none" stroke="black" points="388.62,-399.5 388.62,-419.5 447.38,-419.5 447.38,-399.5 388.62,-399.5"/>
<text text-anchor="middle" x="418" y="-406" font-family="Helvetica,sans-Serif" font-size="10.00">Pipeline.h</text>
</a>
</g>
</g>
<!-- Node37&#45;&gt;Node38 -->
<g id="edge61" class="edge">
<title>Node37&#45;&gt;Node38</title>
<path fill="none" stroke="midnightblue" d="M290.34,-456.58C318.81,-446.3 356.21,-432.8 383.16,-423.07"/>
<polygon fill="midnightblue" stroke="midnightblue" points="384.08,-426.1 392.3,-419.42 381.71,-419.52 384.08,-426.1"/>
</g>
<!-- Node44 -->
<g id="node44" class="node">
<title>Node44</title>
<g id="a_node44"><a xlink:href="_default_geometry_shader_8h.html" target="_top" xlink:title=" ">
<polygon fill="none" stroke="black" points="165.62,-399.5 165.62,-419.5 332.38,-419.5 332.38,-399.5 165.62,-399.5"/>
<text text-anchor="middle" x="249" y="-406" font-family="Helvetica,sans-Serif" font-size="10.00">Shaders/DefaultGeometryShader.h</text>
</a>
</g>
</g>
<!-- Node37&#45;&gt;Node44 -->
<g id="edge74" class="edge">
<title>Node37&#45;&gt;Node44</title>
<path fill="none" stroke="midnightblue" d="M249,-456.73C249,-448.78 249,-438.85 249,-430.24"/>
<polygon fill="midnightblue" stroke="midnightblue" points="252.5,-430.28 249,-420.28 245.5,-430.28 252.5,-430.28"/>
</g>
<!-- Node38&#45;&gt;Node15 -->
<g id="edge69" class="edge">
<title>Node38&#45;&gt;Node15</title>
<path fill="none" stroke="midnightblue" d="M415.59,-399.88C412.02,-387.19 405.11,-362.73 399,-342 370.87,-246.51 335.86,-132.73 322.03,-87.96"/>
<polygon fill="midnightblue" stroke="midnightblue" points="325.07,-86.97 318.78,-78.46 318.39,-89.04 325.07,-86.97"/>
</g>
<!-- Node38&#45;&gt;Node19 -->
<g id="edge63" class="edge">
<title>Node38&#45;&gt;Node19</title>
<path fill="none" stroke="midnightblue" d="M447.27,-408.66C483.97,-407.24 546.48,-399.18 583,-363 595.52,-350.6 599.93,-330.56 601.41,-315.72"/>
<polygon fill="midnightblue" stroke="midnightblue" points="604.94,-316.37 602.07,-306.17 597.95,-315.93 604.94,-316.37"/>
</g>
<!-- Node38&#45;&gt;Node24 -->
<g id="edge62" class="edge">
<title>Node38&#45;&gt;Node24</title>
<path fill="none" stroke="midnightblue" d="M447.26,-405.87C528.78,-397.2 762.26,-363.26 911,-249 927.78,-236.11 941.01,-215.56 949.1,-200.72"/>
<polygon fill="midnightblue" stroke="midnightblue" points="952.58,-202.6 954.06,-192.1 946.36,-199.38 952.58,-202.6"/>
</g>
<!-- Node38&#45;&gt;Node35 -->
<g id="edge65" class="edge">
<title>Node38&#45;&gt;Node35</title>
<path fill="none" stroke="midnightblue" d="M388.74,-400.13C368.59,-393.08 342.41,-381.17 325,-363 279.7,-315.71 298.11,-285.07 266,-228 260.55,-218.32 253.54,-208.16 247.47,-199.9"/>
<polygon fill="midnightblue" stroke="midnightblue" points="249.74,-198.09 240.93,-192.22 244.15,-202.31 249.74,-198.09"/>
</g>
<!-- Node39 -->
<g id="node39" class="node">
<title>Node39</title>
<g id="a_node39"><a xlink:href="_triangle_8h.html" target="_top" xlink:title=" ">
<polygon fill="none" stroke="black" points="220,-342.5 220,-362.5 278,-362.5 278,-342.5 220,-342.5"/>
<text text-anchor="middle" x="249" y="-349" font-family="Helvetica,sans-Serif" font-size="10.00">Triangle.h</text>
</a>
</g>
</g>
<!-- Node38&#45;&gt;Node39 -->
<g id="edge64" class="edge">
<title>Node38&#45;&gt;Node39</title>
<path fill="none" stroke="midnightblue" d="M390.47,-399.54C362.24,-390.35 318.12,-375.99 286.66,-365.76"/>
<polygon fill="midnightblue" stroke="midnightblue" points="288.11,-362.22 277.52,-362.46 285.94,-368.88 288.11,-362.22"/>
</g>
<!-- Node40 -->
<g id="node40" class="node">
<title>Node40</title>
<g id="a_node40"><a xlink:href="_pube_screen_transformer_8h.html" target="_top" xlink:title=" ">
<polygon fill="none" stroke="black" points="445.75,-342.5 445.75,-362.5 574.25,-362.5 574.25,-342.5 445.75,-342.5"/>
<text text-anchor="middle" x="510" y="-349" font-family="Helvetica,sans-Serif" font-size="10.00">PubeScreenTransformer.h</text>
</a>
</g>
</g>
<!-- Node38&#45;&gt;Node40 -->
<g id="edge66" class="edge">
<title>Node38&#45;&gt;Node40</title>
<path fill="none" stroke="midnightblue" d="M432.78,-399.66C447.05,-391.13 468.9,-378.07 485.72,-368.01"/>
<polygon fill="midnightblue" stroke="midnightblue" points="487.16,-370.63 493.95,-362.5 483.57,-364.62 487.16,-370.63"/>
</g>
<!-- Node41 -->
<g id="node41" class="node">
<title>Node41</title>
<g id="a_node41"><a xlink:href="_z_buffer_8h.html" target="_top" xlink:title=" ">
<polygon fill="none" stroke="black" points="957.88,-342.5 957.88,-362.5 1012.12,-362.5 1012.12,-342.5 957.88,-342.5"/>
<text text-anchor="middle" x="985" y="-349" font-family="Helvetica,sans-Serif" font-size="10.00">ZBuffer.h</text>
</a>
</g>
</g>
<!-- Node38&#45;&gt;Node41 -->
<g id="edge70" class="edge">
<title>Node38&#45;&gt;Node41</title>
<path fill="none" stroke="midnightblue" d="M447.26,-407.42C527.25,-404.16 756.14,-392.74 944,-363 945.15,-362.82 946.33,-362.62 947.51,-362.41"/>
<polygon fill="midnightblue" stroke="midnightblue" points="948.08,-365.67 957.2,-360.28 946.71,-358.8 948.08,-365.67"/>
</g>
<!-- Node43 -->
<g id="node43" class="node">
<title>Node43</title>
<g id="a_node43"><a xlink:title=" ">
<polygon fill="none" stroke="#bfbfbf" points="334.12,-342.5 334.12,-362.5 389.88,-362.5 389.88,-342.5 334.12,-342.5"/>
<text text-anchor="middle" x="362" y="-349" font-family="Helvetica,sans-Serif" font-size="10.00">algorithm</text>
</a>
</g>
</g>
<!-- Node38&#45;&gt;Node43 -->
<g id="edge73" class="edge">
<title>Node38&#45;&gt;Node43</title>
<path fill="none" stroke="midnightblue" d="M409,-399.66C400.89,-391.69 388.74,-379.76 378.82,-370.02"/>
<polygon fill="midnightblue" stroke="midnightblue" points="381.75,-368.01 372.16,-363.5 376.84,-373 381.75,-368.01"/>
</g>
<!-- Node40&#45;&gt;Node19 -->
<g id="edge67" class="edge">
<title>Node40&#45;&gt;Node19</title>
<path fill="none" stroke="midnightblue" d="M524.78,-342.66C539.05,-334.13 560.9,-321.07 577.72,-311.01"/>
<polygon fill="midnightblue" stroke="midnightblue" points="579.16,-313.63 585.95,-305.5 575.57,-307.62 579.16,-313.63"/>
</g>
<!-- Node40&#45;&gt;Node22 -->
<g id="edge68" class="edge">
<title>Node40&#45;&gt;Node22</title>
<path fill="none" stroke="midnightblue" d="M506.47,-342.64C493.17,-309.24 445.87,-190.47 427.43,-144.17"/>
<polygon fill="midnightblue" stroke="midnightblue" points="430.36,-143.05 423.41,-135.06 423.86,-145.64 430.36,-143.05"/>
</g>
<!-- Node41&#45;&gt;Node10 -->
<g id="edge71" class="edge">
<title>Node41&#45;&gt;Node10</title>
<path fill="none" stroke="midnightblue" d="M992.08,-342.57C998.79,-333.73 1008.76,-319.58 1015,-306 1027.83,-278.07 1034,-270.24 1034,-239.5 1034,-239.5 1034,-239.5 1034,-123.5 1034,-42.63 911.57,-19.98 853.23,-13.77"/>
<polygon fill="midnightblue" stroke="midnightblue" points="853.76,-10.21 843.47,-12.74 853.09,-17.18 853.76,-10.21"/>
</g>
<!-- Node42 -->
<g id="node42" class="node">
<title>Node42</title>
<g id="a_node42"><a xlink:title=" ">
<polygon fill="none" stroke="#bfbfbf" points="957.88,-285.5 957.88,-305.5 1006.12,-305.5 1006.12,-285.5 957.88,-285.5"/>
<text text-anchor="middle" x="982" y="-292" font-family="Helvetica,sans-Serif" font-size="10.00">cassert</text>
</a>
</g>
</g>
<!-- Node41&#45;&gt;Node42 -->
<g id="edge72" class="edge">
<title>Node41&#45;&gt;Node42</title>
<path fill="none" stroke="midnightblue" d="M984.53,-342.91C984.14,-335.76 983.57,-325.32 983.07,-316.15"/>
<polygon fill="midnightblue" stroke="midnightblue" points="986.51,-316.01 982.48,-306.21 979.53,-316.39 986.51,-316.01"/>
</g>
<!-- Node44&#45;&gt;Node39 -->
<g id="edge75" class="edge">
<title>Node44&#45;&gt;Node39</title>
<path fill="none" stroke="midnightblue" d="M249,-399.91C249,-392.76 249,-382.32 249,-373.15"/>
<polygon fill="midnightblue" stroke="midnightblue" points="252.5,-373.21 249,-363.21 245.5,-373.21 252.5,-373.21"/>
</g>
</g>
</svg>
