<?xml version="1.0" encoding="UTF-8" standalone="no"?>
<!DOCTYPE svg PUBLIC "-//W3C//DTD SVG 1.1//EN"
 "http://www.w3.org/Graphics/SVG/1.1/DTD/svg11.dtd">
<!-- Generated by graphviz version 8.1.0 (20230707.0739)
 -->
<!-- Title: include/Effects/WaveVertexTextureEffect.h Pages: 1 -->
<svg width="1284pt" height="497pt"
 viewBox="0.00 0.00 1284.01 497.00" xmlns="http://www.w3.org/2000/svg" xmlns:xlink="http://www.w3.org/1999/xlink">
<g id="graph0" class="graph" transform="scale(1 1) rotate(0) translate(4 493)">
<title>include/Effects/WaveVertexTextureEffect.h</title>
<!-- Node1 -->
<g id="node1" class="node">
<title>Node1</title>
<g id="a_node1"><a xlink:title=" ">
<polygon fill="#bfbfbf" stroke="black" points="189.38,-456.5 189.38,-488.5 324.62,-488.5 324.62,-456.5 189.38,-456.5"/>
<text text-anchor="start" x="197.38" y="-475" font-family="Helvetica,sans-Serif" font-size="10.00">include/Effects/WaveVertex</text>
<text text-anchor="middle" x="257" y="-463" font-family="Helvetica,sans-Serif" font-size="10.00">TextureEffect.h</text>
</a>
</g>
</g>
<!-- Node2 -->
<g id="node2" class="node">
<title>Node2</title>
<g id="a_node2"><a xlink:href="_pipeline_8h.html" target="_top" xlink:title=" ">
<polygon fill="none" stroke="black" points="379.62,-399.5 379.62,-419.5 438.38,-419.5 438.38,-399.5 379.62,-399.5"/>
<text text-anchor="middle" x="409" y="-406" font-family="Helvetica,sans-Serif" font-size="10.00">Pipeline.h</text>
</a>
</g>
</g>
<!-- Node1&#45;&gt;Node2 -->
<g id="edge1" class="edge">
<title>Node1&#45;&gt;Node2</title>
<path fill="none" stroke="midnightblue" d="M294.18,-456.58C319.45,-446.44 352.54,-433.16 376.7,-423.46"/>
<polygon fill="midnightblue" stroke="midnightblue" points="377.81,-426.39 385.78,-419.42 375.2,-419.89 377.81,-426.39"/>
</g>
<!-- Node43 -->
<g id="node43" class="node">
<title>Node43</title>
<g id="a_node43"><a xlink:href="_default_geometry_shader_8h.html" target="_top" xlink:title=" ">
<polygon fill="none" stroke="black" points="108.62,-399.5 108.62,-419.5 275.38,-419.5 275.38,-399.5 108.62,-399.5"/>
<text text-anchor="middle" x="192" y="-406" font-family="Helvetica,sans-Serif" font-size="10.00">Shaders/DefaultGeometryShader.h</text>
</a>
</g>
</g>
<!-- Node1&#45;&gt;Node43 -->
<g id="edge62" class="edge">
<title>Node1&#45;&gt;Node43</title>
<path fill="none" stroke="midnightblue" d="M241.27,-456.73C231.62,-447.68 219.26,-436.08 209.33,-426.76"/>
<polygon fill="midnightblue" stroke="midnightblue" points="212.05,-424.58 202.36,-420.28 207.26,-429.68 212.05,-424.58"/>
</g>
<!-- Node3 -->
<g id="node3" class="node">
<title>Node3</title>
<g id="a_node3"><a xlink:href="_win_8h.html" target="_top" xlink:title=" ">
<polygon fill="none" stroke="black" points="142.25,-171.5 142.25,-191.5 183.75,-191.5 183.75,-171.5 142.25,-171.5"/>
<text text-anchor="middle" x="163" y="-178" font-family="Helvetica,sans-Serif" font-size="10.00">Win.h</text>
</a>
</g>
</g>
<!-- Node2&#45;&gt;Node3 -->
<g id="edge2" class="edge">
<title>Node2&#45;&gt;Node3</title>
<path fill="none" stroke="midnightblue" d="M380.03,-404.57C314.42,-393.86 156.24,-357.29 105,-249 95.26,-228.41 116.39,-209.31 135.83,-196.91"/>
<polygon fill="midnightblue" stroke="midnightblue" points="137.29,-199.51 144.09,-191.38 133.71,-193.5 137.29,-199.51"/>
</g>
<!-- Node6 -->
<g id="node6" class="node">
<title>Node6</title>
<g id="a_node6"><a xlink:href="_graphics_8h.html" target="_top" xlink:title=" ">
<polygon fill="none" stroke="black" points="331.38,-285.5 331.38,-305.5 394.62,-305.5 394.62,-285.5 331.38,-285.5"/>
<text text-anchor="middle" x="363" y="-292" font-family="Helvetica,sans-Serif" font-size="10.00">Graphics.h</text>
</a>
</g>
</g>
<!-- Node2&#45;&gt;Node6 -->
<g id="edge5" class="edge">
<title>Node2&#45;&gt;Node6</title>
<path fill="none" stroke="midnightblue" d="M407.23,-399.64C404.47,-386.66 398.55,-361.85 390,-342 385.91,-332.51 380.2,-322.57 375.08,-314.42"/>
<polygon fill="midnightblue" stroke="midnightblue" points="377.48,-312.68 369.09,-306.2 371.61,-316.49 377.48,-312.68"/>
</g>
<!-- Node16 -->
<g id="node16" class="node">
<title>Node16</title>
<g id="a_node16"><a xlink:href="_matrix3_8h.html" target="_top" xlink:title=" ">
<polygon fill="none" stroke="black" points="484.75,-57.5 484.75,-77.5 541.25,-77.5 541.25,-57.5 484.75,-57.5"/>
<text text-anchor="middle" x="513" y="-64" font-family="Helvetica,sans-Serif" font-size="10.00">Matrix3.h</text>
</a>
</g>
</g>
<!-- Node2&#45;&gt;Node16 -->
<g id="edge57" class="edge">
<title>Node2&#45;&gt;Node16</title>
<path fill="none" stroke="midnightblue" d="M438.11,-406.21C526.86,-398.45 788,-369.4 788,-296.5 788,-296.5 788,-296.5 788,-180.5 788,-146.01 776.26,-133.77 748,-114 716.81,-92.19 609.92,-78.29 551.64,-72.15"/>
<polygon fill="midnightblue" stroke="midnightblue" points="552.32,-68.6 542.01,-71.06 551.6,-75.57 552.32,-68.6"/>
</g>
<!-- Node29 -->
<g id="node29" class="node">
<title>Node29</title>
<g id="a_node29"><a xlink:href="_triangle_8h.html" target="_top" xlink:title=" ">
<polygon fill="none" stroke="black" points="0,-342.5 0,-362.5 58,-362.5 58,-342.5 0,-342.5"/>
<text text-anchor="middle" x="29" y="-349" font-family="Helvetica,sans-Serif" font-size="10.00">Triangle.h</text>
</a>
</g>
</g>
<!-- Node2&#45;&gt;Node29 -->
<g id="edge38" class="edge">
<title>Node2&#45;&gt;Node29</title>
<path fill="none" stroke="midnightblue" d="M380.02,-405.41C321.55,-399 185.35,-383.14 72,-363 70.69,-362.77 69.35,-362.52 68.01,-362.27"/>
<polygon fill="midnightblue" stroke="midnightblue" points="69.11,-358.72 58.61,-360.17 67.73,-365.58 69.11,-358.72"/>
</g>
<!-- Node30 -->
<g id="node30" class="node">
<title>Node30</title>
<g id="a_node30"><a xlink:href="_indexed_triangle_list_8h.html" target="_top" xlink:title=" ">
<polygon fill="none" stroke="black" points="880.25,-228.5 880.25,-248.5 987.75,-248.5 987.75,-228.5 880.25,-228.5"/>
<text text-anchor="middle" x="934" y="-235" font-family="Helvetica,sans-Serif" font-size="10.00">IndexedTriangleList.h</text>
</a>
</g>
</g>
<!-- Node2&#45;&gt;Node30 -->
<g id="edge39" class="edge">
<title>Node2&#45;&gt;Node30</title>
<path fill="none" stroke="midnightblue" d="M438.14,-407.48C517.73,-404.32 737.1,-393.05 802,-363 854.73,-338.58 900.24,-284.87 921.39,-257.02"/>
<polygon fill="midnightblue" stroke="midnightblue" points="924.68,-259.46 927.82,-249.34 919.06,-255.29 924.68,-259.46"/>
</g>
<!-- Node36 -->
<g id="node36" class="node">
<title>Node36</title>
<g id="a_node36"><a xlink:title=" ">
<polygon fill="none" stroke="#bfbfbf" points="1141.12,-114.5 1141.12,-134.5 1196.88,-134.5 1196.88,-114.5 1141.12,-114.5"/>
<text text-anchor="middle" x="1169" y="-121" font-family="Helvetica,sans-Serif" font-size="10.00">algorithm</text>
</a>
</g>
</g>
<!-- Node2&#45;&gt;Node36 -->
<g id="edge61" class="edge">
<title>Node2&#45;&gt;Node36</title>
<path fill="none" stroke="midnightblue" d="M438.17,-407.38C578.45,-401.63 1177,-372.63 1177,-296.5 1177,-296.5 1177,-296.5 1177,-237.5 1177,-205.1 1173.63,-167.56 1171.26,-145.21"/>
<polygon fill="midnightblue" stroke="midnightblue" points="1174.65,-145.04 1170.08,-135.49 1167.7,-145.81 1174.65,-145.04"/>
</g>
<!-- Node41 -->
<g id="node41" class="node">
<title>Node41</title>
<g id="a_node41"><a xlink:href="_pube_screen_transformer_8h.html" target="_top" xlink:title=" ">
<polygon fill="none" stroke="black" points="252.75,-342.5 252.75,-362.5 381.25,-362.5 381.25,-342.5 252.75,-342.5"/>
<text text-anchor="middle" x="317" y="-349" font-family="Helvetica,sans-Serif" font-size="10.00">PubeScreenTransformer.h</text>
</a>
</g>
</g>
<!-- Node2&#45;&gt;Node41 -->
<g id="edge54" class="edge">
<title>Node2&#45;&gt;Node41</title>
<path fill="none" stroke="midnightblue" d="M394.22,-399.66C379.95,-391.13 358.1,-378.07 341.28,-368.01"/>
<polygon fill="midnightblue" stroke="midnightblue" points="343.43,-364.62 333.05,-362.5 339.84,-370.63 343.43,-364.62"/>
</g>
<!-- Node42 -->
<g id="node42" class="node">
<title>Node42</title>
<g id="a_node42"><a xlink:href="_z_buffer_8h.html" target="_top" xlink:title=" ">
<polygon fill="none" stroke="black" points="1211.88,-171.5 1211.88,-191.5 1266.12,-191.5 1266.12,-171.5 1211.88,-171.5"/>
<text text-anchor="middle" x="1239" y="-178" font-family="Helvetica,sans-Serif" font-size="10.00">ZBuffer.h</text>
</a>
</g>
</g>
<!-- Node2&#45;&gt;Node42 -->
<g id="edge58" class="edge">
<title>Node2&#45;&gt;Node42</title>
<path fill="none" stroke="midnightblue" d="M438.02,-408.79C572.57,-409.86 1131.74,-411.37 1191,-363 1239.96,-323.04 1242.19,-239.3 1240.47,-201.61"/>
<polygon fill="midnightblue" stroke="midnightblue" points="1243.93,-201.87 1239.82,-192.1 1236.94,-202.3 1243.93,-201.87"/>
</g>
<!-- Node4 -->
<g id="node4" class="node">
<title>Node4</title>
<g id="a_node4"><a xlink:title=" ">
<polygon fill="none" stroke="#bfbfbf" points="87.12,-114.5 87.12,-134.5 154.88,-134.5 154.88,-114.5 87.12,-114.5"/>
<text text-anchor="middle" x="121" y="-121" font-family="Helvetica,sans-Serif" font-size="10.00">sdkddkver.h</text>
</a>
</g>
</g>
<!-- Node3&#45;&gt;Node4 -->
<g id="edge3" class="edge">
<title>Node3&#45;&gt;Node4</title>
<path fill="none" stroke="midnightblue" d="M156.44,-171.91C150.49,-164.12 141.56,-152.42 134.15,-142.71"/>
<polygon fill="midnightblue" stroke="midnightblue" points="136.51,-141.04 127.66,-135.21 130.94,-145.29 136.51,-141.04"/>
</g>
<!-- Node5 -->
<g id="node5" class="node">
<title>Node5</title>
<g id="a_node5"><a xlink:title=" ">
<polygon fill="none" stroke="#bfbfbf" points="173,-114.5 173,-134.5 237,-134.5 237,-114.5 173,-114.5"/>
<text text-anchor="middle" x="205" y="-121" font-family="Helvetica,sans-Serif" font-size="10.00">Windows.h</text>
</a>
</g>
</g>
<!-- Node3&#45;&gt;Node5 -->
<g id="edge4" class="edge">
<title>Node3&#45;&gt;Node5</title>
<path fill="none" stroke="midnightblue" d="M169.56,-171.91C175.51,-164.12 184.44,-152.42 191.85,-142.71"/>
<polygon fill="midnightblue" stroke="midnightblue" points="195.06,-145.29 198.34,-135.21 189.49,-141.04 195.06,-145.29"/>
</g>
<!-- Node7 -->
<g id="node7" class="node">
<title>Node7</title>
<g id="a_node7"><a xlink:href="_engine_exception_8h.html" target="_top" xlink:title=" ">
<polygon fill="none" stroke="black" points="624.12,-171.5 624.12,-191.5 721.88,-191.5 721.88,-171.5 624.12,-171.5"/>
<text text-anchor="middle" x="673" y="-178" font-family="Helvetica,sans-Serif" font-size="10.00">EngineException.h</text>
</a>
</g>
</g>
<!-- Node6&#45;&gt;Node7 -->
<g id="edge6" class="edge">
<title>Node6&#45;&gt;Node7</title>
<path fill="none" stroke="midnightblue" d="M391.69,-285.51C419.7,-276.62 463.47,-262.43 501,-249 550.17,-231.4 606.51,-209.23 640.93,-195.46"/>
<polygon fill="midnightblue" stroke="midnightblue" points="641.89,-198.44 649.87,-191.47 639.28,-191.94 641.89,-198.44"/>
</g>
<!-- Node10 -->
<g id="node10" class="node">
<title>Node10</title>
<g id="a_node10"><a xlink:href="_vector3_8h.html" target="_top" xlink:title=" ">
<polygon fill="none" stroke="black" points="351.88,-114.5 351.88,-134.5 472.12,-134.5 472.12,-114.5 351.88,-114.5"/>
<text text-anchor="middle" x="412" y="-121" font-family="Helvetica,sans-Serif" font-size="10.00">LinearAlgebra/Vector3.h</text>
</a>
</g>
</g>
<!-- Node6&#45;&gt;Node10 -->
<g id="edge9" class="edge">
<title>Node6&#45;&gt;Node10</title>
<path fill="none" stroke="midnightblue" d="M356.13,-285.52C338.61,-262.56 293.43,-202.72 290,-192 287.16,-183.11 284.68,-178.67 290,-171 302.08,-153.61 321.65,-142.85 341.62,-136.2"/>
<polygon fill="midnightblue" stroke="midnightblue" points="342.47,-139.3 351.06,-133.09 340.47,-132.59 342.47,-139.3"/>
</g>
<!-- Node21 -->
<g id="node21" class="node">
<title>Node21</title>
<g id="a_node21"><a xlink:href="_g_d_i_plus_manager_8h.html" target="_top" xlink:title=" ">
<polygon fill="none" stroke="black" points="114.12,-228.5 114.12,-248.5 211.88,-248.5 211.88,-228.5 114.12,-228.5"/>
<text text-anchor="middle" x="163" y="-235" font-family="Helvetica,sans-Serif" font-size="10.00">GDIPlusManager.h</text>
</a>
</g>
</g>
<!-- Node6&#45;&gt;Node21 -->
<g id="edge25" class="edge">
<title>Node6&#45;&gt;Node21</title>
<path fill="none" stroke="midnightblue" d="M331.75,-285.91C297.91,-276.6 243.7,-261.69 205.89,-251.29"/>
<polygon fill="midnightblue" stroke="midnightblue" points="207.26,-247.77 196.69,-248.49 205.4,-254.52 207.26,-247.77"/>
</g>
<!-- Node22 -->
<g id="node22" class="node">
<title>Node22</title>
<g id="a_node22"><a xlink:href="_surface_8h.html" target="_top" xlink:title=" ">
<polygon fill="none" stroke="black" points="366.38,-228.5 366.38,-248.5 423.62,-248.5 423.62,-228.5 366.38,-228.5"/>
<text text-anchor="middle" x="395" y="-235" font-family="Helvetica,sans-Serif" font-size="10.00">Surface.h</text>
</a>
</g>
</g>
<!-- Node6&#45;&gt;Node22 -->
<g id="edge27" class="edge">
<title>Node6&#45;&gt;Node22</title>
<path fill="none" stroke="midnightblue" d="M368,-285.91C372.39,-278.36 378.92,-267.14 384.46,-257.62"/>
<polygon fill="midnightblue" stroke="midnightblue" points="387.93,-259.62 389.93,-249.21 381.88,-256.1 387.93,-259.62"/>
</g>
<!-- Node27 -->
<g id="node27" class="node">
<title>Node27</title>
<g id="a_node27"><a xlink:title=" ">
<polygon fill="none" stroke="#bfbfbf" points="441.75,-228.5 441.75,-248.5 492.25,-248.5 492.25,-228.5 441.75,-228.5"/>
<text text-anchor="middle" x="467" y="-235" font-family="Helvetica,sans-Serif" font-size="10.00">d3d11.h</text>
</a>
</g>
</g>
<!-- Node6&#45;&gt;Node27 -->
<g id="edge36" class="edge">
<title>Node6&#45;&gt;Node27</title>
<path fill="none" stroke="midnightblue" d="M379.71,-285.66C396.06,-277.01 421.23,-263.7 440.35,-253.59"/>
<polygon fill="midnightblue" stroke="midnightblue" points="441.78,-256.27 448.99,-248.5 438.51,-250.08 441.78,-256.27"/>
</g>
<!-- Node28 -->
<g id="node28" class="node">
<title>Node28</title>
<g id="a_node28"><a xlink:title=" ">
<polygon fill="none" stroke="#bfbfbf" points="267.88,-228.5 267.88,-248.5 304.12,-248.5 304.12,-228.5 267.88,-228.5"/>
<text text-anchor="middle" x="286" y="-235" font-family="Helvetica,sans-Serif" font-size="10.00">wrl.h</text>
</a>
</g>
</g>
<!-- Node6&#45;&gt;Node28 -->
<g id="edge37" class="edge">
<title>Node6&#45;&gt;Node28</title>
<path fill="none" stroke="midnightblue" d="M350.63,-285.66C339.02,-277.37 321.42,-264.8 307.51,-254.87"/>
<polygon fill="midnightblue" stroke="midnightblue" points="309.77,-251.46 299.6,-248.5 305.7,-257.16 309.77,-251.46"/>
</g>
<!-- Node8 -->
<g id="node8" class="node">
<title>Node8</title>
<g id="a_node8"><a xlink:title=" ">
<polygon fill="none" stroke="#bfbfbf" points="597,-114.5 597,-134.5 637,-134.5 637,-114.5 597,-114.5"/>
<text text-anchor="middle" x="617" y="-121" font-family="Helvetica,sans-Serif" font-size="10.00">string</text>
</a>
</g>
</g>
<!-- Node7&#45;&gt;Node8 -->
<g id="edge7" class="edge">
<title>Node7&#45;&gt;Node8</title>
<path fill="none" stroke="midnightblue" d="M664,-171.66C655.89,-163.69 643.74,-151.76 633.82,-142.02"/>
<polygon fill="midnightblue" stroke="midnightblue" points="636.75,-140.01 627.16,-135.5 631.84,-145 636.75,-140.01"/>
</g>
<!-- Node9 -->
<g id="node9" class="node">
<title>Node9</title>
<g id="a_node9"><a xlink:title=" ">
<polygon fill="none" stroke="#bfbfbf" points="654.88,-114.5 654.88,-134.5 739.12,-134.5 739.12,-114.5 654.88,-114.5"/>
<text text-anchor="middle" x="697" y="-121" font-family="Helvetica,sans-Serif" font-size="10.00">source_location</text>
</a>
</g>
</g>
<!-- Node7&#45;&gt;Node9 -->
<g id="edge8" class="edge">
<title>Node7&#45;&gt;Node9</title>
<path fill="none" stroke="midnightblue" d="M676.75,-171.91C679.97,-164.52 684.73,-153.62 688.83,-144.23"/>
<polygon fill="midnightblue" stroke="midnightblue" points="692.41,-145.78 693.2,-135.21 685.99,-142.98 692.41,-145.78"/>
</g>
<!-- Node11 -->
<g id="node11" class="node">
<title>Node11</title>
<g id="a_node11"><a xlink:href="_math_8h.html" target="_top" xlink:title=" ">
<polygon fill="none" stroke="black" points="617,-57.5 617,-77.5 663,-77.5 663,-57.5 617,-57.5"/>
<text text-anchor="middle" x="640" y="-64" font-family="Helvetica,sans-Serif" font-size="10.00">Math.h</text>
</a>
</g>
</g>
<!-- Node10&#45;&gt;Node11 -->
<g id="edge10" class="edge">
<title>Node10&#45;&gt;Node11</title>
<path fill="none" stroke="midnightblue" d="M449.14,-114.54C492.81,-104.01 564.64,-86.68 606.62,-76.55"/>
<polygon fill="midnightblue" stroke="midnightblue" points="607.21,-79.77 616.11,-74.02 605.57,-72.96 607.21,-79.77"/>
</g>
<!-- Node10&#45;&gt;Node16 -->
<g id="edge16" class="edge">
<title>Node10&#45;&gt;Node16</title>
<path fill="none" stroke="midnightblue" d="M428.23,-114.66C444.04,-106.05 468.33,-92.83 486.86,-82.73"/>
<polygon fill="midnightblue" stroke="midnightblue" points="488.37,-85.35 495.48,-77.5 485.02,-79.21 488.37,-85.35"/>
</g>
<!-- Node17 -->
<g id="node17" class="node">
<title>Node17</title>
<g id="a_node17"><a xlink:title=" ">
<polygon fill="none" stroke="#bfbfbf" points="423.12,-0.5 423.12,-20.5 460.88,-20.5 460.88,-0.5 423.12,-0.5"/>
<text text-anchor="middle" x="442" y="-7" font-family="Helvetica,sans-Serif" font-size="10.00">array</text>
</a>
</g>
</g>
<!-- Node10&#45;&gt;Node17 -->
<g id="edge21" class="edge">
<title>Node10&#45;&gt;Node17</title>
<path fill="none" stroke="midnightblue" d="M408.42,-114.6C403.72,-101.56 396.86,-76.68 404,-57 407.97,-46.06 415.85,-35.9 423.41,-27.98"/>
<polygon fill="midnightblue" stroke="midnightblue" points="425.55,-30.8 430.28,-21.32 420.67,-25.78 425.55,-30.8"/>
</g>
<!-- Node18 -->
<g id="node18" class="node">
<title>Node18</title>
<g id="a_node18"><a xlink:title=" ">
<polygon fill="none" stroke="#bfbfbf" points="489.25,-0.5 489.25,-20.5 536.75,-20.5 536.75,-0.5 489.25,-0.5"/>
<text text-anchor="middle" x="513" y="-7" font-family="Helvetica,sans-Serif" font-size="10.00">cstddef</text>
</a>
</g>
</g>
<!-- Node10&#45;&gt;Node18 -->
<g id="edge24" class="edge">
<title>Node10&#45;&gt;Node18</title>
<path fill="none" stroke="midnightblue" d="M472.08,-119.45C500.57,-114.16 532.19,-102.63 550,-78 561.71,-61.8 546.66,-41.52 532.38,-27.64"/>
<polygon fill="midnightblue" stroke="midnightblue" points="535.03,-25.42 525.27,-21.29 530.33,-30.6 535.03,-25.42"/>
</g>
<!-- Node19 -->
<g id="node19" class="node">
<title>Node19</title>
<g id="a_node19"><a xlink:title=" ">
<polygon fill="none" stroke="#bfbfbf" points="331.25,-0.5 331.25,-20.5 384.75,-20.5 384.75,-0.5 331.25,-0.5"/>
<text text-anchor="middle" x="358" y="-7" font-family="Helvetica,sans-Serif" font-size="10.00">iostream</text>
</a>
</g>
</g>
<!-- Node10&#45;&gt;Node19 -->
<g id="edge22" class="edge">
<title>Node10&#45;&gt;Node19</title>
<path fill="none" stroke="midnightblue" d="M407.76,-114.71C399.01,-96.56 378.76,-54.56 366.97,-30.1"/>
<polygon fill="midnightblue" stroke="midnightblue" points="369.71,-28.74 362.22,-21.25 363.41,-31.78 369.71,-28.74"/>
</g>
<!-- Node20 -->
<g id="node20" class="node">
<title>Node20</title>
<g id="a_node20"><a xlink:title=" ">
<polygon fill="none" stroke="#bfbfbf" points="413.25,-57.5 413.25,-77.5 466.75,-77.5 466.75,-57.5 413.25,-57.5"/>
<text text-anchor="middle" x="440" y="-64" font-family="Helvetica,sans-Serif" font-size="10.00">compare</text>
</a>
</g>
</g>
<!-- Node10&#45;&gt;Node20 -->
<g id="edge23" class="edge">
<title>Node10&#45;&gt;Node20</title>
<path fill="none" stroke="midnightblue" d="M416.38,-114.91C420.17,-107.44 425.81,-96.38 430.62,-86.93"/>
<polygon fill="midnightblue" stroke="midnightblue" points="434.15,-88.71 435.56,-78.21 427.91,-85.54 434.15,-88.71"/>
</g>
<!-- Node11&#45;&gt;Node11 -->
<g id="edge11" class="edge">
<title>Node11&#45;&gt;Node11</title>
<path fill="none" stroke="midnightblue" d="M658.55,-77.43C670.05,-79.83 681,-76.52 681,-67.5 681,-61.44 676.06,-57.96 669.33,-57.05"/>
<polygon fill="midnightblue" stroke="midnightblue" points="669.37,-53.59 659.55,-57.57 669.71,-60.59 669.37,-53.59"/>
</g>
<!-- Node12 -->
<g id="node12" class="node">
<title>Node12</title>
<g id="a_node12"><a xlink:title=" ">
<polygon fill="none" stroke="#bfbfbf" points="554.5,-0.5 554.5,-20.5 597.5,-20.5 597.5,-0.5 554.5,-0.5"/>
<text text-anchor="middle" x="576" y="-7" font-family="Helvetica,sans-Serif" font-size="10.00">cmath</text>
</a>
</g>
</g>
<!-- Node11&#45;&gt;Node12 -->
<g id="edge12" class="edge">
<title>Node11&#45;&gt;Node12</title>
<path fill="none" stroke="midnightblue" d="M629.72,-57.66C620.26,-49.53 606,-37.28 594.55,-27.44"/>
<polygon fill="midnightblue" stroke="midnightblue" points="597.34,-24.36 587.47,-20.5 592.77,-29.67 597.34,-24.36"/>
</g>
<!-- Node13 -->
<g id="node13" class="node">
<title>Node13</title>
<g id="a_node13"><a xlink:title=" ">
<polygon fill="none" stroke="#bfbfbf" points="1047.38,-0.5 1047.38,-20.5 1086.62,-20.5 1086.62,-0.5 1047.38,-0.5"/>
<text text-anchor="middle" x="1067" y="-7" font-family="Helvetica,sans-Serif" font-size="10.00">limits</text>
</a>
</g>
</g>
<!-- Node11&#45;&gt;Node13 -->
<g id="edge13" class="edge">
<title>Node11&#45;&gt;Node13</title>
<path fill="none" stroke="midnightblue" d="M662.96,-63.54C734.93,-54.27 956.14,-25.78 1037,-15.36"/>
<polygon fill="midnightblue" stroke="midnightblue" points="1036.98,-18.77 1046.45,-14.02 1036.08,-11.82 1036.98,-18.77"/>
</g>
<!-- Node14 -->
<g id="node14" class="node">
<title>Node14</title>
<g id="a_node14"><a xlink:title=" ">
<polygon fill="none" stroke="#bfbfbf" points="682.25,-0.5 682.25,-20.5 735.75,-20.5 735.75,-0.5 682.25,-0.5"/>
<text text-anchor="middle" x="709" y="-7" font-family="Helvetica,sans-Serif" font-size="10.00">numbers</text>
</a>
</g>
</g>
<!-- Node11&#45;&gt;Node14 -->
<g id="edge14" class="edge">
<title>Node11&#45;&gt;Node14</title>
<path fill="none" stroke="midnightblue" d="M651.09,-57.66C661.39,-49.45 676.96,-37.04 689.36,-27.15"/>
<polygon fill="midnightblue" stroke="midnightblue" points="691.07,-29.47 696.71,-20.5 686.71,-23.99 691.07,-29.47"/>
</g>
<!-- Node15 -->
<g id="node15" class="node">
<title>Node15</title>
<g id="a_node15"><a xlink:title=" ">
<polygon fill="none" stroke="#bfbfbf" points="615.88,-0.5 615.88,-20.5 664.12,-20.5 664.12,-0.5 615.88,-0.5"/>
<text text-anchor="middle" x="640" y="-7" font-family="Helvetica,sans-Serif" font-size="10.00">random</text>
</a>
</g>
</g>
<!-- Node11&#45;&gt;Node15 -->
<g id="edge15" class="edge">
<title>Node11&#45;&gt;Node15</title>
<path fill="none" stroke="midnightblue" d="M640,-57.91C640,-50.76 640,-40.32 640,-31.15"/>
<polygon fill="midnightblue" stroke="midnightblue" points="643.5,-31.21 640,-21.21 636.5,-31.21 643.5,-31.21"/>
</g>
<!-- Node16&#45;&gt;Node12 -->
<g id="edge18" class="edge">
<title>Node16&#45;&gt;Node12</title>
<path fill="none" stroke="midnightblue" d="M523.12,-57.66C532.44,-49.53 546.47,-37.28 557.74,-27.44"/>
<polygon fill="midnightblue" stroke="midnightblue" points="559.46,-29.71 564.69,-20.5 554.86,-24.44 559.46,-29.71"/>
</g>
<!-- Node16&#45;&gt;Node17 -->
<g id="edge17" class="edge">
<title>Node16&#45;&gt;Node17</title>
<path fill="none" stroke="midnightblue" d="M501.59,-57.66C490.99,-49.45 474.97,-37.04 462.21,-27.15"/>
<polygon fill="midnightblue" stroke="midnightblue" points="464.66,-23.85 454.61,-20.5 460.38,-29.39 464.66,-23.85"/>
</g>
<!-- Node16&#45;&gt;Node18 -->
<g id="edge19" class="edge">
<title>Node16&#45;&gt;Node18</title>
<path fill="none" stroke="midnightblue" d="M513,-57.91C513,-50.76 513,-40.32 513,-31.15"/>
<polygon fill="midnightblue" stroke="midnightblue" points="516.5,-31.21 513,-21.21 509.5,-31.21 516.5,-31.21"/>
</g>
<!-- Node16&#45;&gt;Node19 -->
<g id="edge20" class="edge">
<title>Node16&#45;&gt;Node19</title>
<path fill="none" stroke="midnightblue" d="M487.75,-57.54C462.08,-48.43 422.09,-34.24 393.29,-24.02"/>
<polygon fill="midnightblue" stroke="midnightblue" points="394.83,-20.5 384.24,-20.46 392.49,-27.1 394.83,-20.5"/>
</g>
<!-- Node21&#45;&gt;Node3 -->
<g id="edge26" class="edge">
<title>Node21&#45;&gt;Node3</title>
<path fill="none" stroke="midnightblue" d="M163,-228.91C163,-221.76 163,-211.32 163,-202.15"/>
<polygon fill="midnightblue" stroke="midnightblue" points="166.5,-202.21 163,-192.21 159.5,-202.21 166.5,-202.21"/>
</g>
<!-- Node22&#45;&gt;Node3 -->
<g id="edge28" class="edge">
<title>Node22&#45;&gt;Node3</title>
<path fill="none" stroke="midnightblue" d="M366.55,-230.76C322.83,-220.39 239.42,-200.62 194.13,-189.88"/>
<polygon fill="midnightblue" stroke="midnightblue" points="195.02,-186.26 184.49,-187.36 193.41,-193.07 195.02,-186.26"/>
</g>
<!-- Node22&#45;&gt;Node7 -->
<g id="edge31" class="edge">
<title>Node22&#45;&gt;Node7</title>
<path fill="none" stroke="midnightblue" d="M423.59,-230.16C426.76,-229.41 429.94,-228.67 433,-228 494.42,-214.51 565.21,-201.38 613.91,-192.72"/>
<polygon fill="midnightblue" stroke="midnightblue" points="614.33,-196.03 623.57,-190.84 613.11,-189.13 614.33,-196.03"/>
</g>
<!-- Node22&#45;&gt;Node8 -->
<g id="edge34" class="edge">
<title>Node22&#45;&gt;Node8</title>
<path fill="none" stroke="midnightblue" d="M423.44,-230.39C474.62,-217.59 577,-192 577,-192 593.05,-180.12 603.92,-159.71 610.24,-144.62"/>
<polygon fill="midnightblue" stroke="midnightblue" points="613.86,-145.94 614.18,-135.35 607.33,-143.43 613.86,-145.94"/>
</g>
<!-- Node23 -->
<g id="node23" class="node">
<title>Node23</title>
<g id="a_node23"><a xlink:href="_colors_8h.html" target="_top" xlink:title=" ">
<polygon fill="none" stroke="black" points="299,-171.5 299,-191.5 351,-191.5 351,-171.5 299,-171.5"/>
<text text-anchor="middle" x="325" y="-178" font-family="Helvetica,sans-Serif" font-size="10.00">Colors.h</text>
</a>
</g>
</g>
<!-- Node22&#45;&gt;Node23 -->
<g id="edge29" class="edge">
<title>Node22&#45;&gt;Node23</title>
<path fill="none" stroke="midnightblue" d="M383.75,-228.66C373.3,-220.45 357.51,-208.04 344.92,-198.15"/>
<polygon fill="midnightblue" stroke="midnightblue" points="347.48,-194.92 337.45,-191.5 343.15,-200.43 347.48,-194.92"/>
</g>
<!-- Node24 -->
<g id="node24" class="node">
<title>Node24</title>
<g id="a_node24"><a xlink:title=" ">
<polygon fill="none" stroke="#bfbfbf" points="369.38,-171.5 369.38,-191.5 420.62,-191.5 420.62,-171.5 369.38,-171.5"/>
<text text-anchor="middle" x="395" y="-178" font-family="Helvetica,sans-Serif" font-size="10.00">assert.h</text>
</a>
</g>
</g>
<!-- Node22&#45;&gt;Node24 -->
<g id="edge32" class="edge">
<title>Node22&#45;&gt;Node24</title>
<path fill="none" stroke="midnightblue" d="M395,-228.91C395,-221.76 395,-211.32 395,-202.15"/>
<polygon fill="midnightblue" stroke="midnightblue" points="398.5,-202.21 395,-192.21 391.5,-202.21 398.5,-202.21"/>
</g>
<!-- Node25 -->
<g id="node25" class="node">
<title>Node25</title>
<g id="a_node25"><a xlink:title=" ">
<polygon fill="none" stroke="#bfbfbf" points="438.38,-171.5 438.38,-191.5 489.62,-191.5 489.62,-171.5 438.38,-171.5"/>
<text text-anchor="middle" x="464" y="-178" font-family="Helvetica,sans-Serif" font-size="10.00">memory</text>
</a>
</g>
</g>
<!-- Node22&#45;&gt;Node25 -->
<g id="edge33" class="edge">
<title>Node22&#45;&gt;Node25</title>
<path fill="none" stroke="midnightblue" d="M406.09,-228.66C416.39,-220.45 431.96,-208.04 444.36,-198.15"/>
<polygon fill="midnightblue" stroke="midnightblue" points="446.07,-200.47 451.71,-191.5 441.71,-194.99 446.07,-200.47"/>
</g>
<!-- Node26 -->
<g id="node26" class="node">
<title>Node26</title>
<g id="a_node26"><a xlink:title=" ">
<polygon fill="none" stroke="#bfbfbf" points="507.88,-171.5 507.88,-191.5 568.12,-191.5 568.12,-171.5 507.88,-171.5"/>
<text text-anchor="middle" x="538" y="-178" font-family="Helvetica,sans-Serif" font-size="10.00">filesystem</text>
</a>
</g>
</g>
<!-- Node22&#45;&gt;Node26 -->
<g id="edge35" class="edge">
<title>Node22&#45;&gt;Node26</title>
<path fill="none" stroke="midnightblue" d="M418.29,-228.54C441.77,-219.51 478.22,-205.49 504.74,-195.29"/>
<polygon fill="midnightblue" stroke="midnightblue" points="505.64,-198.31 513.72,-191.46 503.13,-191.78 505.64,-198.31"/>
</g>
<!-- Node23&#45;&gt;Node10 -->
<g id="edge30" class="edge">
<title>Node23&#45;&gt;Node10</title>
<path fill="none" stroke="midnightblue" d="M338.98,-171.66C352.34,-163.21 372.75,-150.31 388.59,-140.3"/>
<polygon fill="midnightblue" stroke="midnightblue" points="390.19,-142.8 396.77,-134.5 386.44,-136.88 390.19,-142.8"/>
</g>
<!-- Node30&#45;&gt;Node10 -->
<g id="edge40" class="edge">
<title>Node30&#45;&gt;Node10</title>
<path fill="none" stroke="midnightblue" d="M911.24,-228.59C874.08,-214.37 797.82,-186.58 731,-171 646.62,-151.32 547.58,-138.8 482.5,-131.98"/>
<polygon fill="midnightblue" stroke="midnightblue" points="483.26,-128.44 472.96,-130.89 482.55,-135.4 483.26,-128.44"/>
</g>
<!-- Node31 -->
<g id="node31" class="node">
<title>Node31</title>
<g id="a_node31"><a xlink:href="tiny__obj__loader_8h.html" target="_top" xlink:title=" ">
<polygon fill="none" stroke="black" points="816.25,-171.5 816.25,-191.5 905.75,-191.5 905.75,-171.5 816.25,-171.5"/>
<text text-anchor="middle" x="861" y="-178" font-family="Helvetica,sans-Serif" font-size="10.00">tiny_obj_loader.h</text>
</a>
</g>
</g>
<!-- Node30&#45;&gt;Node31 -->
<g id="edge41" class="edge">
<title>Node30&#45;&gt;Node31</title>
<path fill="none" stroke="midnightblue" d="M922.27,-228.66C911.27,-220.37 894.58,-207.8 881.4,-197.87"/>
<polygon fill="midnightblue" stroke="midnightblue" points="884.04,-194.72 873.94,-191.5 879.82,-200.31 884.04,-194.72"/>
</g>
<!-- Node33 -->
<g id="node33" class="node">
<title>Node33</title>
<g id="a_node33"><a xlink:title=" ">
<polygon fill="none" stroke="#bfbfbf" points="905.25,-114.5 905.25,-134.5 946.75,-134.5 946.75,-114.5 905.25,-114.5"/>
<text text-anchor="middle" x="926" y="-121" font-family="Helvetica,sans-Serif" font-size="10.00">vector</text>
</a>
</g>
</g>
<!-- Node30&#45;&gt;Node33 -->
<g id="edge51" class="edge">
<title>Node30&#45;&gt;Node33</title>
<path fill="none" stroke="midnightblue" d="M933.37,-228.71C932.09,-210.8 929.16,-169.69 927.4,-145.11"/>
<polygon fill="midnightblue" stroke="midnightblue" points="930.83,-144.97 926.62,-135.25 923.85,-145.47 930.83,-144.97"/>
</g>
<!-- Node34 -->
<g id="node34" class="node">
<title>Node34</title>
<g id="a_node34"><a xlink:href="_miniball_8h.html" target="_top" xlink:title=" ">
<polygon fill="none" stroke="black" points="1091.38,-171.5 1091.38,-191.5 1148.62,-191.5 1148.62,-171.5 1091.38,-171.5"/>
<text text-anchor="middle" x="1120" y="-178" font-family="Helvetica,sans-Serif" font-size="10.00">Miniball.h</text>
</a>
</g>
</g>
<!-- Node30&#45;&gt;Node34 -->
<g id="edge45" class="edge">
<title>Node30&#45;&gt;Node34</title>
<path fill="none" stroke="midnightblue" d="M964.3,-228.54C996.2,-219.11 1046.54,-204.22 1081.3,-193.94"/>
<polygon fill="midnightblue" stroke="midnightblue" points="1081.95,-197.11 1090.55,-190.91 1079.96,-190.39 1081.95,-197.11"/>
</g>
<!-- Node39 -->
<g id="node39" class="node">
<title>Node39</title>
<g id="a_node39"><a xlink:title=" ">
<polygon fill="none" stroke="#bfbfbf" points="961.88,-171.5 961.88,-191.5 1010.12,-191.5 1010.12,-171.5 961.88,-171.5"/>
<text text-anchor="middle" x="986" y="-178" font-family="Helvetica,sans-Serif" font-size="10.00">fstream</text>
</a>
</g>
</g>
<!-- Node30&#45;&gt;Node39 -->
<g id="edge52" class="edge">
<title>Node30&#45;&gt;Node39</title>
<path fill="none" stroke="midnightblue" d="M942.12,-228.91C949.64,-220.96 961.01,-208.94 970.29,-199.12"/>
<polygon fill="midnightblue" stroke="midnightblue" points="972.43,-201.89 976.76,-192.21 967.35,-197.08 972.43,-201.89"/>
</g>
<!-- Node40 -->
<g id="node40" class="node">
<title>Node40</title>
<g id="a_node40"><a xlink:title=" ">
<polygon fill="none" stroke="#bfbfbf" points="1028.38,-171.5 1028.38,-191.5 1073.62,-191.5 1073.62,-171.5 1028.38,-171.5"/>
<text text-anchor="middle" x="1051" y="-178" font-family="Helvetica,sans-Serif" font-size="10.00">cctype</text>
</a>
</g>
</g>
<!-- Node30&#45;&gt;Node40 -->
<g id="edge53" class="edge">
<title>Node30&#45;&gt;Node40</title>
<path fill="none" stroke="midnightblue" d="M953.06,-228.54C971.76,-219.75 1000.51,-206.23 1022.04,-196.11"/>
<polygon fill="midnightblue" stroke="midnightblue" points="1023.39,-198.88 1030.95,-191.46 1020.41,-192.54 1023.39,-198.88"/>
</g>
<!-- Node31&#45;&gt;Node8 -->
<g id="edge43" class="edge">
<title>Node31&#45;&gt;Node8</title>
<path fill="none" stroke="midnightblue" d="M816.61,-172.56C775.12,-164.81 711.29,-152.07 647.17,-135.09"/>
<polygon fill="midnightblue" stroke="midnightblue" points="648.45,-131.54 637.88,-132.33 646.63,-138.3 648.45,-131.54"/>
</g>
<!-- Node32 -->
<g id="node32" class="node">
<title>Node32</title>
<g id="a_node32"><a xlink:title=" ">
<polygon fill="none" stroke="#bfbfbf" points="843.62,-114.5 843.62,-134.5 878.38,-134.5 878.38,-114.5 843.62,-114.5"/>
<text text-anchor="middle" x="861" y="-121" font-family="Helvetica,sans-Serif" font-size="10.00">map</text>
</a>
</g>
</g>
<!-- Node31&#45;&gt;Node32 -->
<g id="edge42" class="edge">
<title>Node31&#45;&gt;Node32</title>
<path fill="none" stroke="midnightblue" d="M861,-171.91C861,-164.76 861,-154.32 861,-145.15"/>
<polygon fill="midnightblue" stroke="midnightblue" points="864.5,-145.21 861,-135.21 857.5,-145.21 864.5,-145.21"/>
</g>
<!-- Node31&#45;&gt;Node33 -->
<g id="edge44" class="edge">
<title>Node31&#45;&gt;Node33</title>
<path fill="none" stroke="midnightblue" d="M871.44,-171.66C881.05,-163.53 895.53,-151.28 907.16,-141.44"/>
<polygon fill="midnightblue" stroke="midnightblue" points="908.99,-143.63 914.37,-134.5 904.47,-138.29 908.99,-143.63"/>
</g>
<!-- Node34&#45;&gt;Node13 -->
<g id="edge50" class="edge">
<title>Node34&#45;&gt;Node13</title>
<path fill="none" stroke="midnightblue" d="M1111.21,-171.59C1103.27,-162.98 1091.95,-149.19 1086,-135 1071.5,-100.43 1067.92,-56.26 1067.12,-31.2"/>
<polygon fill="midnightblue" stroke="midnightblue" points="1070.6,-31.21 1066.92,-21.27 1063.6,-31.34 1070.6,-31.21"/>
</g>
<!-- Node35 -->
<g id="node35" class="node">
<title>Node35</title>
<g id="a_node35"><a xlink:title=" ">
<polygon fill="none" stroke="#bfbfbf" points="1214.88,-114.5 1214.88,-134.5 1263.12,-134.5 1263.12,-114.5 1214.88,-114.5"/>
<text text-anchor="middle" x="1239" y="-121" font-family="Helvetica,sans-Serif" font-size="10.00">cassert</text>
</a>
</g>
</g>
<!-- Node34&#45;&gt;Node35 -->
<g id="edge46" class="edge">
<title>Node34&#45;&gt;Node35</title>
<path fill="none" stroke="midnightblue" d="M1139.38,-171.54C1158.49,-162.71 1187.92,-149.11 1209.84,-138.98"/>
<polygon fill="midnightblue" stroke="midnightblue" points="1211.02,-141.83 1218.62,-134.46 1208.08,-135.47 1211.02,-141.83"/>
</g>
<!-- Node34&#45;&gt;Node36 -->
<g id="edge47" class="edge">
<title>Node34&#45;&gt;Node36</title>
<path fill="none" stroke="midnightblue" d="M1127.66,-171.91C1134.66,-164.04 1145.23,-152.18 1153.93,-142.42"/>
<polygon fill="midnightblue" stroke="midnightblue" points="1156.2,-145.01 1160.24,-135.21 1150.97,-140.35 1156.2,-145.01"/>
</g>
<!-- Node37 -->
<g id="node37" class="node">
<title>Node37</title>
<g id="a_node37"><a xlink:title=" ">
<polygon fill="none" stroke="#bfbfbf" points="1094.6,-114.5 1094.6,-134.5 1123.4,-134.5 1123.4,-114.5 1094.6,-114.5"/>
<text text-anchor="middle" x="1108.97" y="-121" font-family="Helvetica,sans-Serif" font-size="10.00">list</text>
</a>
</g>
</g>
<!-- Node34&#45;&gt;Node37 -->
<g id="edge48" class="edge">
<title>Node34&#45;&gt;Node37</title>
<path fill="none" stroke="midnightblue" d="M1118.28,-171.91C1116.84,-164.68 1114.72,-154.09 1112.87,-144.85"/>
<polygon fill="midnightblue" stroke="midnightblue" points="1116.14,-144.33 1110.74,-135.21 1109.27,-145.71 1116.14,-144.33"/>
</g>
<!-- Node38 -->
<g id="node38" class="node">
<title>Node38</title>
<g id="a_node38"><a xlink:title=" ">
<polygon fill="none" stroke="#bfbfbf" points="999,-114.5 999,-134.5 1039,-134.5 1039,-114.5 999,-114.5"/>
<text text-anchor="middle" x="1019" y="-121" font-family="Helvetica,sans-Serif" font-size="10.00">ctime</text>
</a>
</g>
</g>
<!-- Node34&#45;&gt;Node38 -->
<g id="edge49" class="edge">
<title>Node34&#45;&gt;Node38</title>
<path fill="none" stroke="midnightblue" d="M1103.77,-171.66C1087.96,-163.05 1063.67,-149.83 1045.14,-139.73"/>
<polygon fill="midnightblue" stroke="midnightblue" points="1046.98,-136.21 1036.52,-134.5 1043.63,-142.35 1046.98,-136.21"/>
</g>
<!-- Node41&#45;&gt;Node6 -->
<g id="edge55" class="edge">
<title>Node41&#45;&gt;Node6</title>
<path fill="none" stroke="midnightblue" d="M324.19,-342.91C330.77,-335.04 340.69,-323.18 348.85,-313.42"/>
<polygon fill="midnightblue" stroke="midnightblue" points="351.98,-316.13 355.71,-306.21 346.61,-311.64 351.98,-316.13"/>
</g>
<!-- Node41&#45;&gt;Node10 -->
<g id="edge56" class="edge">
<title>Node41&#45;&gt;Node10</title>
<path fill="none" stroke="midnightblue" d="M309.81,-342.6C296.62,-325.64 269,-286.96 259,-249 249.8,-214.05 255.85,-195.95 282,-171 299.17,-154.61 322.58,-144.09 344.8,-137.35"/>
<polygon fill="midnightblue" stroke="midnightblue" points="345.55,-140.5 354.24,-134.43 343.66,-133.76 345.55,-140.5"/>
</g>
<!-- Node42&#45;&gt;Node13 -->
<g id="edge59" class="edge">
<title>Node42&#45;&gt;Node13</title>
<path fill="none" stroke="midnightblue" d="M1249.22,-171.61C1262.93,-158.59 1284.2,-133.73 1272,-114 1233.44,-51.62 1144.15,-25.93 1097.16,-16.44"/>
<polygon fill="midnightblue" stroke="midnightblue" points="1097.93,-12.83 1087.45,-14.41 1096.62,-19.71 1097.93,-12.83"/>
</g>
<!-- Node42&#45;&gt;Node35 -->
<g id="edge60" class="edge">
<title>Node42&#45;&gt;Node35</title>
<path fill="none" stroke="midnightblue" d="M1239,-171.91C1239,-164.76 1239,-154.32 1239,-145.15"/>
<polygon fill="midnightblue" stroke="midnightblue" points="1242.5,-145.21 1239,-135.21 1235.5,-145.21 1242.5,-145.21"/>
</g>
<!-- Node43&#45;&gt;Node29 -->
<g id="edge63" class="edge">
<title>Node43&#45;&gt;Node29</title>
<path fill="none" stroke="midnightblue" d="M165.45,-399.54C138.33,-390.39 96.03,-376.12 65.72,-365.89"/>
<polygon fill="midnightblue" stroke="midnightblue" points="67.13,-362.34 56.54,-362.46 64.9,-368.97 67.13,-362.34"/>
</g>
</g>
</svg>
