<?xml version="1.0" encoding="UTF-8" standalone="no"?>
<!DOCTYPE svg PUBLIC "-//W3C//DTD SVG 1.1//EN"
 "http://www.w3.org/Graphics/SVG/1.1/DTD/svg11.dtd">
<!-- Generated by graphviz version 8.1.0 (20230707.0739)
 -->
<!-- Title: include/Win.h Pages: 1 -->
<svg width="1098pt" height="452pt"
 viewBox="0.00 0.00 1097.62 452.00" xmlns="http://www.w3.org/2000/svg" xmlns:xlink="http://www.w3.org/1999/xlink">
<g id="graph0" class="graph" transform="scale(1 1) rotate(0) translate(4 448)">
<title>include/Win.h</title>
<!-- Node1 -->
<g id="node1" class="node">
<title>Node1</title>
<g id="a_node1"><a xlink:title=" ">
<polygon fill="#bfbfbf" stroke="black" points="260.12,-423.5 260.12,-443.5 335.38,-443.5 335.38,-423.5 260.12,-423.5"/>
<text text-anchor="middle" x="297.75" y="-430" font-family="Helvetica,sans-Serif" font-size="10.00">include/Win.h</text>
</a>
</g>
</g>
<!-- Node2 -->
<g id="node2" class="node">
<title>Node2</title>
<g id="a_node2"><a xlink:href="_d_x_err_8h.html" target="_top" xlink:title=" ">
<polygon fill="none" stroke="black" points="93.38,-366.5 93.38,-386.5 176.12,-386.5 176.12,-366.5 93.38,-366.5"/>
<text text-anchor="middle" x="134.75" y="-373" font-family="Helvetica,sans-Serif" font-size="10.00">include/DXErr.h</text>
</a>
</g>
</g>
<!-- Node1&#45;&gt;Node2 -->
<g id="edge1" class="edge">
<title>Node1&#45;&gt;Node2</title>
<path fill="none" stroke="midnightblue" d="M261.02,-420.11C230.7,-409.88 188.4,-395.6 161.29,-386.46"/>
<polygon fill="midnightblue" stroke="midnightblue" points="259.6,-423.66 270.2,-423.54 261.84,-417.03 259.6,-423.66"/>
</g>
<!-- Node5 -->
<g id="node5" class="node">
<title>Node5</title>
<g id="a_node5"><a xlink:href="_g_d_i_plus_manager_8h.html" target="_top" xlink:title=" ">
<polygon fill="none" stroke="black" points="232,-366.5 232,-386.5 363.5,-386.5 363.5,-366.5 232,-366.5"/>
<text text-anchor="middle" x="297.75" y="-373" font-family="Helvetica,sans-Serif" font-size="10.00">include/GDIPlusManager.h</text>
</a>
</g>
</g>
<!-- Node1&#45;&gt;Node5 -->
<g id="edge4" class="edge">
<title>Node1&#45;&gt;Node5</title>
<path fill="none" stroke="midnightblue" d="M297.75,-413C297.75,-403.85 297.75,-393.39 297.75,-386.21"/>
<polygon fill="midnightblue" stroke="midnightblue" points="294.25,-412.91 297.75,-422.91 301.25,-412.91 294.25,-412.91"/>
</g>
<!-- Node11 -->
<g id="node11" class="node">
<title>Node11</title>
<g id="a_node11"><a xlink:href="_main_window_8h.html" target="_top" xlink:title=" ">
<polygon fill="none" stroke="black" points="0,-252.5 0,-272.5 113.5,-272.5 113.5,-252.5 0,-252.5"/>
<text text-anchor="middle" x="56.75" y="-259" font-family="Helvetica,sans-Serif" font-size="10.00">include/MainWindow.h</text>
</a>
</g>
</g>
<!-- Node1&#45;&gt;Node11 -->
<g id="edge42" class="edge">
<title>Node1&#45;&gt;Node11</title>
<path fill="none" stroke="midnightblue" d="M249.41,-431.54C203.76,-428.58 135,-418.64 84.75,-387 57.67,-369.95 51.08,-360.29 40.75,-330 33.85,-309.77 44.56,-285.11 51.53,-272.25"/>
<polygon fill="midnightblue" stroke="midnightblue" points="249.03,-435.08 259.2,-432.14 249.41,-428.09 249.03,-435.08"/>
</g>
<!-- Node12 -->
<g id="node12" class="node">
<title>Node12</title>
<g id="a_node12"><a xlink:href="_pipeline_8h.html" target="_top" xlink:title=" ">
<polygon fill="none" stroke="black" points="661.5,-195.5 661.5,-215.5 754,-215.5 754,-195.5 661.5,-195.5"/>
<text text-anchor="middle" x="707.75" y="-202" font-family="Helvetica,sans-Serif" font-size="10.00">include/Pipeline.h</text>
</a>
</g>
</g>
<!-- Node1&#45;&gt;Node12 -->
<g id="edge43" class="edge">
<title>Node1&#45;&gt;Node12</title>
<path fill="none" stroke="midnightblue" d="M346.16,-427.78C388.58,-422.23 451.03,-410.61 500.75,-387 593.78,-342.82 677.19,-244.69 700.98,-215.11"/>
<polygon fill="midnightblue" stroke="midnightblue" points="345.79,-424.42 336.3,-429.12 346.65,-431.37 345.79,-424.42"/>
</g>
<!-- Node22 -->
<g id="node22" class="node">
<title>Node22</title>
<g id="a_node22"><a xlink:href="_g_d_i_plus_manager_8cpp.html" target="_top" xlink:title=" ">
<polygon fill="none" stroke="black" points="181.38,-309.5 181.38,-329.5 306.12,-329.5 306.12,-309.5 181.38,-309.5"/>
<text text-anchor="middle" x="243.75" y="-316" font-family="Helvetica,sans-Serif" font-size="10.00">src/GDIPlusManager.cpp</text>
</a>
</g>
</g>
<!-- Node1&#45;&gt;Node22 -->
<g id="edge47" class="edge">
<title>Node1&#45;&gt;Node22</title>
<path fill="none" stroke="midnightblue" d="M260.29,-419.17C245.89,-411.99 230.94,-401.56 222.75,-387 211.94,-367.8 227.11,-342.29 236.79,-329.14"/>
<polygon fill="midnightblue" stroke="midnightblue" points="258.53,-422.67 269.08,-423.62 261.43,-416.3 258.53,-422.67"/>
</g>
<!-- Node23 -->
<g id="node23" class="node">
<title>Node23</title>
<g id="a_node23"><a xlink:href="_surface_8h.html" target="_top" xlink:title=" ">
<polygon fill="none" stroke="black" points="381.25,-366.5 381.25,-386.5 472.25,-386.5 472.25,-366.5 381.25,-366.5"/>
<text text-anchor="middle" x="426.75" y="-373" font-family="Helvetica,sans-Serif" font-size="10.00">include/Surface.h</text>
</a>
</g>
</g>
<!-- Node1&#45;&gt;Node23 -->
<g id="edge44" class="edge">
<title>Node1&#45;&gt;Node23</title>
<path fill="none" stroke="midnightblue" d="M328.72,-419.29C352.56,-409.13 384.85,-395.36 405.75,-386.46"/>
<polygon fill="midnightblue" stroke="midnightblue" points="327.59,-416.4 319.76,-423.54 330.33,-422.84 327.59,-416.4"/>
</g>
<!-- Node24 -->
<g id="node24" class="node">
<title>Node24</title>
<g id="a_node24"><a xlink:href="_surface_8cpp.html" target="_top" xlink:title=" ">
<polygon fill="none" stroke="black" points="449.62,-309.5 449.62,-329.5 533.88,-329.5 533.88,-309.5 449.62,-309.5"/>
<text text-anchor="middle" x="491.75" y="-316" font-family="Helvetica,sans-Serif" font-size="10.00">src/Surface.cpp</text>
</a>
</g>
</g>
<!-- Node1&#45;&gt;Node24 -->
<g id="edge48" class="edge">
<title>Node1&#45;&gt;Node24</title>
<path fill="none" stroke="midnightblue" d="M345.97,-426.68C394.19,-419.82 463.71,-406.8 481.75,-387 496.37,-370.95 495.03,-343.12 493.2,-329.1"/>
<polygon fill="midnightblue" stroke="midnightblue" points="345.55,-423.34 336.12,-428.16 346.5,-430.27 345.55,-423.34"/>
</g>
<!-- Node3 -->
<g id="node3" class="node">
<title>Node3</title>
<g id="a_node3"><a xlink:href="_d_x_err_8cpp.html" target="_top" xlink:title=" ">
<polygon fill="none" stroke="black" points="49.75,-309.5 49.75,-329.5 125.75,-329.5 125.75,-309.5 49.75,-309.5"/>
<text text-anchor="middle" x="87.75" y="-316" font-family="Helvetica,sans-Serif" font-size="10.00">src/DXErr.cpp</text>
</a>
</g>
</g>
<!-- Node2&#45;&gt;Node3 -->
<g id="edge2" class="edge">
<title>Node2&#45;&gt;Node3</title>
<path fill="none" stroke="midnightblue" d="M120.42,-358.73C112.1,-348.99 101.95,-337.12 95.2,-329.21"/>
<polygon fill="midnightblue" stroke="midnightblue" points="118.25,-360.58 127.41,-365.91 123.57,-356.03 118.25,-360.58"/>
</g>
<!-- Node4 -->
<g id="node4" class="node">
<title>Node4</title>
<g id="a_node4"><a xlink:href="_graphics_8cpp.html" target="_top" xlink:title=" ">
<polygon fill="none" stroke="black" points="111.62,-195.5 111.62,-215.5 201.88,-215.5 201.88,-195.5 111.62,-195.5"/>
<text text-anchor="middle" x="156.75" y="-202" font-family="Helvetica,sans-Serif" font-size="10.00">src/Graphics.cpp</text>
</a>
</g>
</g>
<!-- Node2&#45;&gt;Node4 -->
<g id="edge3" class="edge">
<title>Node2&#45;&gt;Node4</title>
<path fill="none" stroke="midnightblue" d="M137.26,-356.21C142.02,-319.64 152.19,-241.53 155.6,-215.3"/>
<polygon fill="midnightblue" stroke="midnightblue" points="133.69,-355.52 135.87,-365.89 140.63,-356.42 133.69,-355.52"/>
</g>
<!-- Node6 -->
<g id="node6" class="node">
<title>Node6</title>
<g id="a_node6"><a xlink:href="_graphics_8h.html" target="_top" xlink:title=" ">
<polygon fill="none" stroke="black" points="324.25,-309.5 324.25,-329.5 421.25,-329.5 421.25,-309.5 324.25,-309.5"/>
<text text-anchor="middle" x="372.75" y="-316" font-family="Helvetica,sans-Serif" font-size="10.00">include/Graphics.h</text>
</a>
</g>
</g>
<!-- Node5&#45;&gt;Node6 -->
<g id="edge5" class="edge">
<title>Node5&#45;&gt;Node6</title>
<path fill="none" stroke="midnightblue" d="M318.44,-360.32C331.94,-350.43 349.1,-337.84 360.48,-329.5"/>
<polygon fill="midnightblue" stroke="midnightblue" points="316.79,-357.93 310.8,-366.66 320.93,-363.57 316.79,-357.93"/>
</g>
<!-- Node5&#45;&gt;Node22 -->
<g id="edge41" class="edge">
<title>Node5&#45;&gt;Node22</title>
<path fill="none" stroke="midnightblue" d="M281.87,-359.33C272.2,-349.48 260.23,-337.28 252.31,-329.21"/>
<polygon fill="midnightblue" stroke="midnightblue" points="278.81,-361.22 288.31,-365.91 283.8,-356.32 278.81,-361.22"/>
</g>
<!-- Node6&#45;&gt;Node4 -->
<g id="edge39" class="edge">
<title>Node6&#45;&gt;Node4</title>
<path fill="none" stroke="midnightblue" d="M322.04,-307.04C283.25,-297.69 233.51,-284.22 215.75,-273 191.48,-257.66 171.33,-229.51 162.13,-215.26"/>
<polygon fill="midnightblue" stroke="midnightblue" points="321.11,-310.66 331.65,-309.57 322.73,-303.85 321.11,-310.66"/>
</g>
<!-- Node7 -->
<g id="node7" class="node">
<title>Node7</title>
<g id="a_node7"><a xlink:href="_engine_8h.html" target="_top" xlink:title=" ">
<polygon fill="none" stroke="black" points="257.75,-195.5 257.75,-215.5 345.75,-215.5 345.75,-195.5 257.75,-195.5"/>
<text text-anchor="middle" x="301.75" y="-202" font-family="Helvetica,sans-Serif" font-size="10.00">include/Engine.h</text>
</a>
</g>
</g>
<!-- Node6&#45;&gt;Node7 -->
<g id="edge6" class="edge">
<title>Node6&#45;&gt;Node7</title>
<path fill="none" stroke="midnightblue" d="M353.62,-302.46C344.84,-294.34 334.83,-283.9 327.75,-273 315.46,-254.08 307.5,-228.45 303.93,-215.22"/>
<polygon fill="midnightblue" stroke="midnightblue" points="351.03,-304.73 360.84,-308.75 355.68,-299.5 351.03,-304.73"/>
</g>
<!-- Node10 -->
<g id="node10" class="node">
<title>Node10</title>
<g id="a_node10"><a xlink:href="_main_window_8cpp.html" target="_top" xlink:title=" ">
<polygon fill="none" stroke="black" points="176.38,-132.5 176.38,-152.5 283.12,-152.5 283.12,-132.5 176.38,-132.5"/>
<text text-anchor="middle" x="229.75" y="-139" font-family="Helvetica,sans-Serif" font-size="10.00">src/MainWindow.cpp</text>
</a>
</g>
</g>
<!-- Node6&#45;&gt;Node10 -->
<g id="edge40" class="edge">
<title>Node6&#45;&gt;Node10</title>
<path fill="none" stroke="midnightblue" d="M346.78,-304.14C318.24,-286.97 273.18,-255.53 248.75,-216 236.03,-195.41 231.76,-166.47 230.38,-152.18"/>
<polygon fill="midnightblue" stroke="midnightblue" points="344.73,-307.58 355.13,-309.61 348.27,-301.54 344.73,-307.58"/>
</g>
<!-- Node6&#45;&gt;Node11 -->
<g id="edge10" class="edge">
<title>Node6&#45;&gt;Node11</title>
<path fill="none" stroke="midnightblue" d="M313.75,-308.23C254.63,-297.94 164.54,-282.26 108.23,-272.46"/>
<polygon fill="midnightblue" stroke="midnightblue" points="312.96,-311.82 323.41,-310.09 314.16,-304.92 312.96,-311.82"/>
</g>
<!-- Node6&#45;&gt;Node12 -->
<g id="edge15" class="edge">
<title>Node6&#45;&gt;Node12</title>
<path fill="none" stroke="midnightblue" d="M431.74,-308.78C497.89,-297.67 598.13,-280.09 614.75,-273 648.71,-258.51 682.41,-229.97 698.31,-215.45"/>
<polygon fill="midnightblue" stroke="midnightblue" points="431.32,-305.47 422.03,-310.57 432.47,-312.37 431.32,-305.47"/>
</g>
<!-- Node20 -->
<g id="node20" class="node">
<title>Node20</title>
<g id="a_node20"><a xlink:href="_pube_screen_transformer_8h.html" target="_top" xlink:title=" ">
<polygon fill="none" stroke="black" points="443.62,-252.5 443.62,-272.5 605.88,-272.5 605.88,-252.5 443.62,-252.5"/>
<text text-anchor="middle" x="524.75" y="-259" font-family="Helvetica,sans-Serif" font-size="10.00">include/PubeScreenTransformer.h</text>
</a>
</g>
</g>
<!-- Node6&#45;&gt;Node20 -->
<g id="edge31" class="edge">
<title>Node6&#45;&gt;Node20</title>
<path fill="none" stroke="midnightblue" d="M407.75,-305.84C435.96,-295.63 474.94,-281.52 500,-272.46"/>
<polygon fill="midnightblue" stroke="midnightblue" points="406.72,-302.85 398.51,-309.54 409.1,-309.43 406.72,-302.85"/>
</g>
<!-- Node21 -->
<g id="node21" class="node">
<title>Node21</title>
<g id="a_node21"><a xlink:href="_scene_8h.html" target="_top" xlink:title=" ">
<polygon fill="none" stroke="black" points="336.88,-252.5 336.88,-272.5 422.62,-272.5 422.62,-252.5 336.88,-252.5"/>
<text text-anchor="middle" x="379.75" y="-259" font-family="Helvetica,sans-Serif" font-size="10.00">include/Scene.h</text>
</a>
</g>
</g>
<!-- Node6&#45;&gt;Node21 -->
<g id="edge33" class="edge">
<title>Node6&#45;&gt;Node21</title>
<path fill="none" stroke="midnightblue" d="M375.23,-299C376.4,-289.85 377.73,-279.39 378.64,-272.21"/>
<polygon fill="midnightblue" stroke="midnightblue" points="371.63,-298.54 373.84,-308.91 378.58,-299.43 371.63,-298.54"/>
</g>
<!-- Node8 -->
<g id="node8" class="node">
<title>Node8</title>
<g id="a_node8"><a xlink:href="_engine_8cpp.html" target="_top" xlink:title=" ">
<polygon fill="none" stroke="black" points="493.12,-0.5 493.12,-20.5 574.38,-20.5 574.38,-0.5 493.12,-0.5"/>
<text text-anchor="middle" x="533.75" y="-7" font-family="Helvetica,sans-Serif" font-size="10.00">src/Engine.cpp</text>
</a>
</g>
</g>
<!-- Node7&#45;&gt;Node8 -->
<g id="edge7" class="edge">
<title>Node7&#45;&gt;Node8</title>
<path fill="none" stroke="midnightblue" d="M305.96,-185.19C313.85,-153.62 333.88,-91.07 374.75,-57 408.38,-28.96 458.37,-18.18 493.29,-14.05"/>
<polygon fill="midnightblue" stroke="midnightblue" points="302.38,-184.11 303.51,-194.65 309.2,-185.71 302.38,-184.11"/>
</g>
<!-- Node9 -->
<g id="node9" class="node">
<title>Node9</title>
<g id="a_node9"><a xlink:href="_main_8cpp.html" target="_top" xlink:title=" ">
<polygon fill="none" stroke="black" points="60.62,-132.5 60.62,-152.5 132.88,-152.5 132.88,-132.5 60.62,-132.5"/>
<text text-anchor="middle" x="96.75" y="-139" font-family="Helvetica,sans-Serif" font-size="10.00">src/Main.cpp</text>
</a>
</g>
</g>
<!-- Node7&#45;&gt;Node9 -->
<g id="edge8" class="edge">
<title>Node7&#45;&gt;Node9</title>
<path fill="none" stroke="midnightblue" d="M261.61,-192.55C222.08,-180.79 162.6,-163.09 126.93,-152.48"/>
<polygon fill="midnightblue" stroke="midnightblue" points="260.36,-196.13 270.94,-195.63 262.35,-189.42 260.36,-196.13"/>
</g>
<!-- Node7&#45;&gt;Node10 -->
<g id="edge9" class="edge">
<title>Node7&#45;&gt;Node10</title>
<path fill="none" stroke="midnightblue" d="M283.17,-188.76C269.45,-177.13 251.27,-161.73 240.05,-152.22"/>
<polygon fill="midnightblue" stroke="midnightblue" points="280.54,-191.97 290.43,-195.76 285.07,-186.63 280.54,-191.97"/>
</g>
<!-- Node11&#45;&gt;Node4 -->
<g id="edge12" class="edge">
<title>Node11&#45;&gt;Node4</title>
<path fill="none" stroke="midnightblue" d="M82.29,-247.45C100.57,-237.4 124.64,-224.16 140.39,-215.5"/>
<polygon fill="midnightblue" stroke="midnightblue" points="80.89,-244.78 73.82,-252.66 84.27,-250.91 80.89,-244.78"/>
</g>
<!-- Node11&#45;&gt;Node8 -->
<g id="edge11" class="edge">
<title>Node11&#45;&gt;Node8</title>
<path fill="none" stroke="midnightblue" d="M49.07,-242.47C38.91,-213.88 25.2,-159.6 51.75,-126 106.88,-56.24 387.34,-24.48 493.22,-14.84"/>
<polygon fill="midnightblue" stroke="midnightblue" points="46.13,-243.6 52.95,-251.71 52.68,-241.12 46.13,-243.6"/>
</g>
<!-- Node11&#45;&gt;Node9 -->
<g id="edge13" class="edge">
<title>Node11&#45;&gt;Node9</title>
<path fill="none" stroke="midnightblue" d="M59.07,-241.85C61.02,-228.39 64.37,-210.29 69.75,-195 75.31,-179.19 85.01,-162.23 91.15,-152.26"/>
<polygon fill="midnightblue" stroke="midnightblue" points="55.48,-241.31 57.65,-251.68 62.42,-242.22 55.48,-241.31"/>
</g>
<!-- Node11&#45;&gt;Node10 -->
<g id="edge14" class="edge">
<title>Node11&#45;&gt;Node10</title>
<path fill="none" stroke="midnightblue" d="M65.74,-242.93C73.68,-228.2 86.53,-208 102.75,-195 129.12,-173.88 165.31,-160.34 192.31,-152.48"/>
<polygon fill="midnightblue" stroke="midnightblue" points="62.27,-241.01 60.84,-251.51 68.51,-244.2 62.27,-241.01"/>
</g>
<!-- Node13 -->
<g id="node13" class="node">
<title>Node13</title>
<g id="a_node13"><a xlink:href="_solid_effect_8h.html" target="_top" xlink:title=" ">
<polygon fill="none" stroke="black" points="699.62,-132.5 699.62,-152.5 831.88,-152.5 831.88,-132.5 699.62,-132.5"/>
<text text-anchor="middle" x="765.75" y="-139" font-family="Helvetica,sans-Serif" font-size="10.00">include/Effect/SolidEffect.h</text>
</a>
</g>
</g>
<!-- Node12&#45;&gt;Node13 -->
<g id="edge16" class="edge">
<title>Node12&#45;&gt;Node13</title>
<path fill="none" stroke="midnightblue" d="M723.35,-188.09C734.33,-176.55 748.59,-161.55 757.46,-152.22"/>
<polygon fill="midnightblue" stroke="midnightblue" points="721.41,-185.1 717.06,-194.76 726.49,-189.92 721.41,-185.1"/>
</g>
<!-- Node14 -->
<g id="node14" class="node">
<title>Node14</title>
<g id="a_node14"><a xlink:href="_cube_solid_scene_8h.html" target="_top" xlink:title=" ">
<polygon fill="none" stroke="black" points="539.75,-57.5 539.75,-89.5 669.75,-89.5 669.75,-57.5 539.75,-57.5"/>
<text text-anchor="start" x="547.75" y="-76" font-family="Helvetica,sans-Serif" font-size="10.00">include/Scenes/CubeSolid</text>
<text text-anchor="middle" x="604.75" y="-64" font-family="Helvetica,sans-Serif" font-size="10.00">Scene.h</text>
</a>
</g>
</g>
<!-- Node12&#45;&gt;Node14 -->
<g id="edge28" class="edge">
<title>Node12&#45;&gt;Node14</title>
<path fill="none" stroke="midnightblue" d="M694.01,-187.16C673.61,-161.41 635.63,-113.48 616.47,-89.29"/>
<polygon fill="midnightblue" stroke="midnightblue" points="691.72,-188.9 700.67,-194.56 697.2,-184.55 691.72,-188.9"/>
</g>
<!-- Node15 -->
<g id="node15" class="node">
<title>Node15</title>
<g id="a_node15"><a xlink:href="_double_cube_scene_8h.html" target="_top" xlink:title=" ">
<polygon fill="none" stroke="black" points="690.62,-57.5 690.62,-89.5 828.88,-89.5 828.88,-57.5 690.62,-57.5"/>
<text text-anchor="start" x="698.62" y="-76" font-family="Helvetica,sans-Serif" font-size="10.00">include/Scenes/DoubleCube</text>
<text text-anchor="middle" x="759.75" y="-64" font-family="Helvetica,sans-Serif" font-size="10.00">Scene.h</text>
</a>
</g>
</g>
<!-- Node12&#45;&gt;Node15 -->
<g id="edge30" class="edge">
<title>Node12&#45;&gt;Node15</title>
<path fill="none" stroke="midnightblue" d="M764.81,-200.04C792.51,-194.66 823.46,-183.19 840.75,-159 849.28,-147.07 847.81,-138.86 840.75,-126 831.69,-109.49 814.84,-97.53 798.85,-89.31"/>
<polygon fill="midnightblue" stroke="midnightblue" points="764.26,-196.75 754.99,-201.87 765.43,-203.65 764.26,-196.75"/>
</g>
<!-- Node16 -->
<g id="node16" class="node">
<title>Node16</title>
<g id="a_node16"><a xlink:href="_texture_effect_8h.html" target="_top" xlink:title=" ">
<polygon fill="none" stroke="black" points="887.38,-132.5 887.38,-152.5 1030.12,-152.5 1030.12,-132.5 887.38,-132.5"/>
<text text-anchor="middle" x="958.75" y="-139" font-family="Helvetica,sans-Serif" font-size="10.00">include/Effect/TextureEffect.h</text>
</a>
</g>
</g>
<!-- Node12&#45;&gt;Node16 -->
<g id="edge21" class="edge">
<title>Node12&#45;&gt;Node16</title>
<path fill="none" stroke="midnightblue" d="M755.03,-193.01C803.44,-181.25 877.66,-163.21 921.89,-152.46"/>
<polygon fill="midnightblue" stroke="midnightblue" points="754.41,-189.8 745.52,-195.56 756.06,-196.6 754.41,-189.8"/>
</g>
<!-- Node17 -->
<g id="node17" class="node">
<title>Node17</title>
<g id="a_node17"><a xlink:href="_cube_skin_scene_8h.html" target="_top" xlink:title=" ">
<polygon fill="none" stroke="black" points="925.88,-63.5 925.88,-83.5 1089.62,-83.5 1089.62,-63.5 925.88,-63.5"/>
<text text-anchor="middle" x="1007.75" y="-70" font-family="Helvetica,sans-Serif" font-size="10.00">include/Scenes/CubeSkinScene.h</text>
</a>
</g>
</g>
<!-- Node12&#45;&gt;Node17 -->
<g id="edge27" class="edge">
<title>Node12&#45;&gt;Node17</title>
<path fill="none" stroke="midnightblue" d="M764.66,-205.27C849.75,-205.06 1003.87,-199 1038.75,-159 1058.47,-136.39 1031.17,-100.16 1016.29,-83.46"/>
<polygon fill="midnightblue" stroke="midnightblue" points="764.89,-201.77 754.89,-205.26 764.89,-208.77 764.89,-201.77"/>
</g>
<!-- Node18 -->
<g id="node18" class="node">
<title>Node18</title>
<g id="a_node18"><a xlink:href="_vertex_color_effect_8h.html" target="_top" xlink:title=" ">
<polygon fill="none" stroke="black" points="477.5,-126.5 477.5,-158.5 606,-158.5 606,-126.5 477.5,-126.5"/>
<text text-anchor="start" x="485.5" y="-145" font-family="Helvetica,sans-Serif" font-size="10.00">include/Effect/VertexColor</text>
<text text-anchor="middle" x="541.75" y="-133" font-family="Helvetica,sans-Serif" font-size="10.00">Effect.h</text>
</a>
</g>
</g>
<!-- Node12&#45;&gt;Node18 -->
<g id="edge24" class="edge">
<title>Node12&#45;&gt;Node18</title>
<path fill="none" stroke="midnightblue" d="M673.3,-191.84C646.82,-182.11 610.19,-168.65 582.3,-158.4"/>
<polygon fill="midnightblue" stroke="midnightblue" points="672.02,-195.47 682.61,-195.63 674.43,-188.9 672.02,-195.47"/>
</g>
<!-- Node19 -->
<g id="node19" class="node">
<title>Node19</title>
<g id="a_node19"><a xlink:href="_cube_vertex_color_scene_8h.html" target="_top" xlink:title=" ">
<polygon fill="none" stroke="black" points="383.38,-57.5 383.38,-89.5 520.12,-89.5 520.12,-57.5 383.38,-57.5"/>
<text text-anchor="start" x="391.38" y="-76" font-family="Helvetica,sans-Serif" font-size="10.00">include/Scenes/CubeVertex</text>
<text text-anchor="middle" x="451.75" y="-64" font-family="Helvetica,sans-Serif" font-size="10.00">ColorScene.h</text>
</a>
</g>
</g>
<!-- Node12&#45;&gt;Node19 -->
<g id="edge29" class="edge">
<title>Node12&#45;&gt;Node19</title>
<path fill="none" stroke="midnightblue" d="M650.76,-200.86C588.39,-195.68 493.89,-183.88 468.75,-159 450.24,-140.68 449.04,-108.23 450.17,-89.32"/>
<polygon fill="midnightblue" stroke="midnightblue" points="650.38,-204.42 660.63,-201.73 650.94,-197.45 650.38,-204.42"/>
</g>
<!-- Node13&#45;&gt;Node14 -->
<g id="edge17" class="edge">
<title>Node13&#45;&gt;Node14</title>
<path fill="none" stroke="midnightblue" d="M734.35,-128.43C707.49,-117.25 668.83,-101.17 640.73,-89.47"/>
<polygon fill="midnightblue" stroke="midnightblue" points="732.79,-131.99 743.37,-132.6 735.48,-125.53 732.79,-131.99"/>
</g>
<!-- Node13&#45;&gt;Node15 -->
<g id="edge19" class="edge">
<title>Node13&#45;&gt;Node15</title>
<path fill="none" stroke="midnightblue" d="M763.99,-121.86C763.06,-111.49 761.94,-98.97 761.09,-89.41"/>
<polygon fill="midnightblue" stroke="midnightblue" points="760.59,-122.09 764.97,-131.74 767.56,-121.47 760.59,-122.09"/>
</g>
<!-- Node14&#45;&gt;Node8 -->
<g id="edge18" class="edge">
<title>Node14&#45;&gt;Node8</title>
<path fill="none" stroke="midnightblue" d="M579.46,-50.77C567.22,-40.26 553.22,-28.23 543.97,-20.28"/>
<polygon fill="midnightblue" stroke="midnightblue" points="576.7,-53.87 586.56,-57.73 581.26,-48.56 576.7,-53.87"/>
</g>
<!-- Node15&#45;&gt;Node8 -->
<g id="edge20" class="edge">
<title>Node15&#45;&gt;Node8</title>
<path fill="none" stroke="midnightblue" d="M694.09,-54.78C652.34,-43.51 600.07,-29.4 566.78,-20.42"/>
<polygon fill="midnightblue" stroke="midnightblue" points="692.9,-58.35 703.46,-57.58 694.72,-51.59 692.9,-58.35"/>
</g>
<!-- Node16&#45;&gt;Node17 -->
<g id="edge22" class="edge">
<title>Node16&#45;&gt;Node17</title>
<path fill="none" stroke="midnightblue" d="M971.42,-124.18C980.94,-111.16 993.6,-93.85 1001.19,-83.48"/>
<polygon fill="midnightblue" stroke="midnightblue" points="968.23,-121.6 965.16,-131.74 973.88,-125.74 968.23,-121.6"/>
</g>
<!-- Node17&#45;&gt;Node8 -->
<g id="edge23" class="edge">
<title>Node17&#45;&gt;Node8</title>
<path fill="none" stroke="midnightblue" d="M927.17,-62.13C824.88,-48.97 652.34,-26.76 574.27,-16.71"/>
<polygon fill="midnightblue" stroke="midnightblue" points="926.7,-65.73 937.06,-63.53 927.59,-58.78 926.7,-65.73"/>
</g>
<!-- Node18&#45;&gt;Node19 -->
<g id="edge25" class="edge">
<title>Node18&#45;&gt;Node19</title>
<path fill="none" stroke="midnightblue" d="M513.28,-120.3C499.74,-110.23 483.89,-98.43 471.67,-89.33"/>
<polygon fill="midnightblue" stroke="midnightblue" points="510.66,-123.47 520.78,-126.63 514.84,-117.85 510.66,-123.47"/>
</g>
<!-- Node19&#45;&gt;Node8 -->
<g id="edge26" class="edge">
<title>Node19&#45;&gt;Node8</title>
<path fill="none" stroke="midnightblue" d="M480.15,-51.37C494.47,-40.72 511.06,-28.38 521.94,-20.28"/>
<polygon fill="midnightblue" stroke="midnightblue" points="478.53,-48.96 472.6,-57.73 482.71,-54.57 478.53,-48.96"/>
</g>
<!-- Node20&#45;&gt;Node12 -->
<g id="edge32" class="edge">
<title>Node20&#45;&gt;Node12</title>
<path fill="none" stroke="midnightblue" d="M564.66,-249.51C598.78,-239.25 647.12,-224.72 677.95,-215.46"/>
<polygon fill="midnightblue" stroke="midnightblue" points="564.13,-246.31 555.56,-252.54 566.14,-253.01 564.13,-246.31"/>
</g>
<!-- Node21&#45;&gt;Node7 -->
<g id="edge34" class="edge">
<title>Node21&#45;&gt;Node7</title>
<path fill="none" stroke="midnightblue" d="M358.23,-246.32C344.19,-236.43 326.34,-223.84 314.51,-215.5"/>
<polygon fill="midnightblue" stroke="midnightblue" points="356.03,-249.76 366.22,-252.66 360.06,-244.04 356.03,-249.76"/>
</g>
<!-- Node21&#45;&gt;Node14 -->
<g id="edge36" class="edge">
<title>Node21&#45;&gt;Node14</title>
<path fill="none" stroke="midnightblue" d="M387.59,-242.47C400.43,-213.46 428.62,-158.17 468.75,-126 489.73,-109.18 516.79,-97.44 541.24,-89.47"/>
<polygon fill="midnightblue" stroke="midnightblue" points="384,-240.94 383.29,-251.51 390.44,-243.7 384,-240.94"/>
</g>
<!-- Node21&#45;&gt;Node15 -->
<g id="edge38" class="edge">
<title>Node21&#45;&gt;Node15</title>
<path fill="none" stroke="midnightblue" d="M412.49,-248.63C458.41,-230.26 544.23,-194.78 614.75,-159 658.66,-136.72 707.79,-107.03 736.11,-89.43"/>
<polygon fill="midnightblue" stroke="midnightblue" points="411.51,-245.65 403.51,-252.6 414.1,-252.16 411.51,-245.65"/>
</g>
<!-- Node21&#45;&gt;Node17 -->
<g id="edge35" class="edge">
<title>Node21&#45;&gt;Node17</title>
<path fill="none" stroke="midnightblue" d="M432.85,-252.27C433.49,-252.18 434.12,-252.09 434.75,-252 572.92,-232.5 967,-266.68 1055.75,-159 1076.25,-134.13 1039.44,-99.33 1019.43,-83.27"/>
<polygon fill="midnightblue" stroke="midnightblue" points="432.7,-248.91 423.35,-253.88 433.76,-255.83 432.7,-248.91"/>
</g>
<!-- Node21&#45;&gt;Node19 -->
<g id="edge37" class="edge">
<title>Node21&#45;&gt;Node19</title>
<path fill="none" stroke="midnightblue" d="M378.41,-241.81C377.38,-214.32 378.62,-163.6 397.75,-126 405.21,-111.34 418.56,-98.55 430.12,-89.38"/>
<polygon fill="midnightblue" stroke="midnightblue" points="374.96,-241.87 378.98,-251.67 381.95,-241.5 374.96,-241.87"/>
</g>
<!-- Node23&#45;&gt;Node6 -->
<g id="edge45" class="edge">
<title>Node23&#45;&gt;Node6</title>
<path fill="none" stroke="midnightblue" d="M410.87,-359.33C401.2,-349.48 389.23,-337.28 381.31,-329.21"/>
<polygon fill="midnightblue" stroke="midnightblue" points="407.81,-361.22 417.31,-365.91 412.8,-356.32 407.81,-361.22"/>
</g>
<!-- Node23&#45;&gt;Node24 -->
<g id="edge46" class="edge">
<title>Node23&#45;&gt;Node24</title>
<path fill="none" stroke="midnightblue" d="M445.36,-359.75C456.95,-349.94 471.44,-337.68 481.12,-329.5"/>
<polygon fill="midnightblue" stroke="midnightblue" points="443.57,-357.53 438.19,-366.66 448.09,-362.88 443.57,-357.53"/>
</g>
</g>
</svg>
