<?xml version="1.0" encoding="UTF-8" standalone="no"?>
<!DOCTYPE svg PUBLIC "-//W3C//DTD SVG 1.1//EN"
 "http://www.w3.org/Graphics/SVG/1.1/DTD/svg11.dtd">
<!-- Generated by graphviz version 8.1.0 (20230707.0739)
 -->
<!-- Title: include/Win.h Pages: 1 -->
<svg width="971pt" height="452pt"
 viewBox="0.00 0.00 971.43 452.00" xmlns="http://www.w3.org/2000/svg" xmlns:xlink="http://www.w3.org/1999/xlink">
<g id="graph0" class="graph" transform="scale(1 1) rotate(0) translate(4 448)">
<title>include/Win.h</title>
<!-- Node1 -->
<g id="node1" class="node">
<title>Node1</title>
<g id="a_node1"><a xlink:title=" ">
<polygon fill="#bfbfbf" stroke="black" points="260.12,-423.5 260.12,-443.5 335.38,-443.5 335.38,-423.5 260.12,-423.5"/>
<text text-anchor="middle" x="297.75" y="-430" font-family="Helvetica,sans-Serif" font-size="10.00">include/Win.h</text>
</a>
</g>
</g>
<!-- Node2 -->
<g id="node2" class="node">
<title>Node2</title>
<g id="a_node2"><a xlink:href="_d_x_err_8h.html" target="_top" xlink:title=" ">
<polygon fill="none" stroke="black" points="93.38,-366.5 93.38,-386.5 176.12,-386.5 176.12,-366.5 93.38,-366.5"/>
<text text-anchor="middle" x="134.75" y="-373" font-family="Helvetica,sans-Serif" font-size="10.00">include/DXErr.h</text>
</a>
</g>
</g>
<!-- Node1&#45;&gt;Node2 -->
<g id="edge1" class="edge">
<title>Node1&#45;&gt;Node2</title>
<path fill="none" stroke="midnightblue" d="M261.02,-420.11C230.7,-409.88 188.4,-395.6 161.29,-386.46"/>
<polygon fill="midnightblue" stroke="midnightblue" points="259.6,-423.66 270.2,-423.54 261.84,-417.03 259.6,-423.66"/>
</g>
<!-- Node5 -->
<g id="node5" class="node">
<title>Node5</title>
<g id="a_node5"><a xlink:href="_g_d_i_plus_manager_8h.html" target="_top" xlink:title=" ">
<polygon fill="none" stroke="black" points="232,-366.5 232,-386.5 363.5,-386.5 363.5,-366.5 232,-366.5"/>
<text text-anchor="middle" x="297.75" y="-373" font-family="Helvetica,sans-Serif" font-size="10.00">include/GDIPlusManager.h</text>
</a>
</g>
</g>
<!-- Node1&#45;&gt;Node5 -->
<g id="edge4" class="edge">
<title>Node1&#45;&gt;Node5</title>
<path fill="none" stroke="midnightblue" d="M297.75,-413C297.75,-403.85 297.75,-393.39 297.75,-386.21"/>
<polygon fill="midnightblue" stroke="midnightblue" points="294.25,-412.91 297.75,-422.91 301.25,-412.91 294.25,-412.91"/>
</g>
<!-- Node11 -->
<g id="node11" class="node">
<title>Node11</title>
<g id="a_node11"><a xlink:href="_main_window_8h.html" target="_top" xlink:title=" ">
<polygon fill="none" stroke="black" points="0,-252.5 0,-272.5 113.5,-272.5 113.5,-252.5 0,-252.5"/>
<text text-anchor="middle" x="56.75" y="-259" font-family="Helvetica,sans-Serif" font-size="10.00">include/MainWindow.h</text>
</a>
</g>
</g>
<!-- Node1&#45;&gt;Node11 -->
<g id="edge38" class="edge">
<title>Node1&#45;&gt;Node11</title>
<path fill="none" stroke="midnightblue" d="M249.41,-431.54C203.76,-428.58 135,-418.64 84.75,-387 57.67,-369.95 51.08,-360.29 40.75,-330 33.85,-309.77 44.56,-285.11 51.53,-272.25"/>
<polygon fill="midnightblue" stroke="midnightblue" points="249.03,-435.08 259.2,-432.14 249.41,-428.09 249.03,-435.08"/>
</g>
<!-- Node12 -->
<g id="node12" class="node">
<title>Node12</title>
<g id="a_node12"><a xlink:href="_pipeline_8h.html" target="_top" xlink:title=" ">
<polygon fill="none" stroke="black" points="683.5,-195.5 683.5,-215.5 776,-215.5 776,-195.5 683.5,-195.5"/>
<text text-anchor="middle" x="729.75" y="-202" font-family="Helvetica,sans-Serif" font-size="10.00">include/Pipeline.h</text>
</a>
</g>
</g>
<!-- Node1&#45;&gt;Node12 -->
<g id="edge39" class="edge">
<title>Node1&#45;&gt;Node12</title>
<path fill="none" stroke="midnightblue" d="M345.82,-427.02C388.01,-420.98 450.33,-409.07 500.75,-387 582.41,-351.26 597.84,-330.73 665.75,-273 687.97,-254.11 710.94,-228.47 722.37,-215.22"/>
<polygon fill="midnightblue" stroke="midnightblue" points="345.45,-423.67 336.01,-428.5 346.4,-430.61 345.45,-423.67"/>
</g>
<!-- Node21 -->
<g id="node21" class="node">
<title>Node21</title>
<g id="a_node21"><a xlink:href="_g_d_i_plus_manager_8cpp.html" target="_top" xlink:title=" ">
<polygon fill="none" stroke="black" points="181.38,-309.5 181.38,-329.5 306.12,-329.5 306.12,-309.5 181.38,-309.5"/>
<text text-anchor="middle" x="243.75" y="-316" font-family="Helvetica,sans-Serif" font-size="10.00">src/GDIPlusManager.cpp</text>
</a>
</g>
</g>
<!-- Node1&#45;&gt;Node21 -->
<g id="edge43" class="edge">
<title>Node1&#45;&gt;Node21</title>
<path fill="none" stroke="midnightblue" d="M260.29,-419.17C245.89,-411.99 230.94,-401.56 222.75,-387 211.94,-367.8 227.11,-342.29 236.79,-329.14"/>
<polygon fill="midnightblue" stroke="midnightblue" points="258.53,-422.67 269.08,-423.62 261.43,-416.3 258.53,-422.67"/>
</g>
<!-- Node22 -->
<g id="node22" class="node">
<title>Node22</title>
<g id="a_node22"><a xlink:href="_surface_8h.html" target="_top" xlink:title=" ">
<polygon fill="none" stroke="black" points="381.25,-366.5 381.25,-386.5 472.25,-386.5 472.25,-366.5 381.25,-366.5"/>
<text text-anchor="middle" x="426.75" y="-373" font-family="Helvetica,sans-Serif" font-size="10.00">include/Surface.h</text>
</a>
</g>
</g>
<!-- Node1&#45;&gt;Node22 -->
<g id="edge40" class="edge">
<title>Node1&#45;&gt;Node22</title>
<path fill="none" stroke="midnightblue" d="M328.72,-419.29C352.56,-409.13 384.85,-395.36 405.75,-386.46"/>
<polygon fill="midnightblue" stroke="midnightblue" points="327.59,-416.4 319.76,-423.54 330.33,-422.84 327.59,-416.4"/>
</g>
<!-- Node23 -->
<g id="node23" class="node">
<title>Node23</title>
<g id="a_node23"><a xlink:href="_surface_8cpp.html" target="_top" xlink:title=" ">
<polygon fill="none" stroke="black" points="449.62,-309.5 449.62,-329.5 533.88,-329.5 533.88,-309.5 449.62,-309.5"/>
<text text-anchor="middle" x="491.75" y="-316" font-family="Helvetica,sans-Serif" font-size="10.00">src/Surface.cpp</text>
</a>
</g>
</g>
<!-- Node1&#45;&gt;Node23 -->
<g id="edge44" class="edge">
<title>Node1&#45;&gt;Node23</title>
<path fill="none" stroke="midnightblue" d="M345.97,-426.68C394.19,-419.82 463.71,-406.8 481.75,-387 496.37,-370.95 495.03,-343.12 493.2,-329.1"/>
<polygon fill="midnightblue" stroke="midnightblue" points="345.55,-423.34 336.12,-428.16 346.5,-430.27 345.55,-423.34"/>
</g>
<!-- Node3 -->
<g id="node3" class="node">
<title>Node3</title>
<g id="a_node3"><a xlink:href="_d_x_err_8cpp.html" target="_top" xlink:title=" ">
<polygon fill="none" stroke="black" points="49.75,-309.5 49.75,-329.5 125.75,-329.5 125.75,-309.5 49.75,-309.5"/>
<text text-anchor="middle" x="87.75" y="-316" font-family="Helvetica,sans-Serif" font-size="10.00">src/DXErr.cpp</text>
</a>
</g>
</g>
<!-- Node2&#45;&gt;Node3 -->
<g id="edge2" class="edge">
<title>Node2&#45;&gt;Node3</title>
<path fill="none" stroke="midnightblue" d="M120.42,-358.73C112.1,-348.99 101.95,-337.12 95.2,-329.21"/>
<polygon fill="midnightblue" stroke="midnightblue" points="118.25,-360.58 127.41,-365.91 123.57,-356.03 118.25,-360.58"/>
</g>
<!-- Node4 -->
<g id="node4" class="node">
<title>Node4</title>
<g id="a_node4"><a xlink:href="_graphics_8cpp.html" target="_top" xlink:title=" ">
<polygon fill="none" stroke="black" points="111.62,-195.5 111.62,-215.5 201.88,-215.5 201.88,-195.5 111.62,-195.5"/>
<text text-anchor="middle" x="156.75" y="-202" font-family="Helvetica,sans-Serif" font-size="10.00">src/Graphics.cpp</text>
</a>
</g>
</g>
<!-- Node2&#45;&gt;Node4 -->
<g id="edge3" class="edge">
<title>Node2&#45;&gt;Node4</title>
<path fill="none" stroke="midnightblue" d="M137.26,-356.21C142.02,-319.64 152.19,-241.53 155.6,-215.3"/>
<polygon fill="midnightblue" stroke="midnightblue" points="133.69,-355.52 135.87,-365.89 140.63,-356.42 133.69,-355.52"/>
</g>
<!-- Node6 -->
<g id="node6" class="node">
<title>Node6</title>
<g id="a_node6"><a xlink:href="_graphics_8h.html" target="_top" xlink:title=" ">
<polygon fill="none" stroke="black" points="324.25,-309.5 324.25,-329.5 421.25,-329.5 421.25,-309.5 324.25,-309.5"/>
<text text-anchor="middle" x="372.75" y="-316" font-family="Helvetica,sans-Serif" font-size="10.00">include/Graphics.h</text>
</a>
</g>
</g>
<!-- Node5&#45;&gt;Node6 -->
<g id="edge5" class="edge">
<title>Node5&#45;&gt;Node6</title>
<path fill="none" stroke="midnightblue" d="M318.44,-360.32C331.94,-350.43 349.1,-337.84 360.48,-329.5"/>
<polygon fill="midnightblue" stroke="midnightblue" points="316.79,-357.93 310.8,-366.66 320.93,-363.57 316.79,-357.93"/>
</g>
<!-- Node5&#45;&gt;Node21 -->
<g id="edge37" class="edge">
<title>Node5&#45;&gt;Node21</title>
<path fill="none" stroke="midnightblue" d="M281.87,-359.33C272.2,-349.48 260.23,-337.28 252.31,-329.21"/>
<polygon fill="midnightblue" stroke="midnightblue" points="278.81,-361.22 288.31,-365.91 283.8,-356.32 278.81,-361.22"/>
</g>
<!-- Node6&#45;&gt;Node4 -->
<g id="edge35" class="edge">
<title>Node6&#45;&gt;Node4</title>
<path fill="none" stroke="midnightblue" d="M322.04,-307.04C283.25,-297.69 233.51,-284.22 215.75,-273 191.48,-257.66 171.33,-229.51 162.13,-215.26"/>
<polygon fill="midnightblue" stroke="midnightblue" points="321.11,-310.66 331.65,-309.57 322.73,-303.85 321.11,-310.66"/>
</g>
<!-- Node7 -->
<g id="node7" class="node">
<title>Node7</title>
<g id="a_node7"><a xlink:href="_engine_8h.html" target="_top" xlink:title=" ">
<polygon fill="none" stroke="black" points="257.75,-195.5 257.75,-215.5 345.75,-215.5 345.75,-195.5 257.75,-195.5"/>
<text text-anchor="middle" x="301.75" y="-202" font-family="Helvetica,sans-Serif" font-size="10.00">include/Engine.h</text>
</a>
</g>
</g>
<!-- Node6&#45;&gt;Node7 -->
<g id="edge6" class="edge">
<title>Node6&#45;&gt;Node7</title>
<path fill="none" stroke="midnightblue" d="M350.41,-303.05C340.38,-295.11 329.17,-284.65 321.75,-273 309.96,-254.49 304.83,-228.69 302.84,-215.32"/>
<polygon fill="midnightblue" stroke="midnightblue" points="348.04,-306.4 358.14,-309.6 352.24,-300.8 348.04,-306.4"/>
</g>
<!-- Node10 -->
<g id="node10" class="node">
<title>Node10</title>
<g id="a_node10"><a xlink:href="_main_window_8cpp.html" target="_top" xlink:title=" ">
<polygon fill="none" stroke="black" points="156.38,-132.5 156.38,-152.5 263.12,-152.5 263.12,-132.5 156.38,-132.5"/>
<text text-anchor="middle" x="209.75" y="-139" font-family="Helvetica,sans-Serif" font-size="10.00">src/MainWindow.cpp</text>
</a>
</g>
</g>
<!-- Node6&#45;&gt;Node10 -->
<g id="edge36" class="edge">
<title>Node6&#45;&gt;Node10</title>
<path fill="none" stroke="midnightblue" d="M349.12,-303.82C321.91,-285.91 277.29,-253.36 248.75,-216 232.61,-194.87 219.34,-166.17 213.28,-152.06"/>
<polygon fill="midnightblue" stroke="midnightblue" points="347,-307.26 357.3,-309.73 350.79,-301.37 347,-307.26"/>
</g>
<!-- Node6&#45;&gt;Node11 -->
<g id="edge10" class="edge">
<title>Node6&#45;&gt;Node11</title>
<path fill="none" stroke="midnightblue" d="M313.75,-308.23C254.63,-297.94 164.54,-282.26 108.23,-272.46"/>
<polygon fill="midnightblue" stroke="midnightblue" points="312.96,-311.82 323.41,-310.09 314.16,-304.92 312.96,-311.82"/>
</g>
<!-- Node6&#45;&gt;Node12 -->
<g id="edge15" class="edge">
<title>Node6&#45;&gt;Node12</title>
<path fill="none" stroke="midnightblue" d="M431.62,-309.61C502.78,-298.65 615.36,-280.54 633.75,-273 668.64,-258.69 703.51,-230.07 719.97,-215.49"/>
<polygon fill="midnightblue" stroke="midnightblue" points="431.36,-306.26 422,-311.24 432.42,-313.18 431.36,-306.26"/>
</g>
<!-- Node19 -->
<g id="node19" class="node">
<title>Node19</title>
<g id="a_node19"><a xlink:href="_pube_screen_transformer_8h.html" target="_top" xlink:title=" ">
<polygon fill="none" stroke="black" points="462.62,-252.5 462.62,-272.5 624.88,-272.5 624.88,-252.5 462.62,-252.5"/>
<text text-anchor="middle" x="543.75" y="-259" font-family="Helvetica,sans-Serif" font-size="10.00">include/PubeScreenTransformer.h</text>
</a>
</g>
</g>
<!-- Node6&#45;&gt;Node19 -->
<g id="edge28" class="edge">
<title>Node6&#45;&gt;Node19</title>
<path fill="none" stroke="midnightblue" d="M410.87,-306.24C442.7,-296 487.34,-281.64 515.91,-272.46"/>
<polygon fill="midnightblue" stroke="midnightblue" points="410.05,-303.15 401.6,-309.54 412.2,-309.81 410.05,-303.15"/>
</g>
<!-- Node20 -->
<g id="node20" class="node">
<title>Node20</title>
<g id="a_node20"><a xlink:href="_scene_8h.html" target="_top" xlink:title=" ">
<polygon fill="none" stroke="black" points="330.88,-252.5 330.88,-272.5 416.62,-272.5 416.62,-252.5 330.88,-252.5"/>
<text text-anchor="middle" x="373.75" y="-259" font-family="Helvetica,sans-Serif" font-size="10.00">include/Scene.h</text>
</a>
</g>
</g>
<!-- Node6&#45;&gt;Node20 -->
<g id="edge30" class="edge">
<title>Node6&#45;&gt;Node20</title>
<path fill="none" stroke="midnightblue" d="M373.1,-299C373.27,-289.85 373.46,-279.39 373.59,-272.21"/>
<polygon fill="midnightblue" stroke="midnightblue" points="369.59,-298.84 372.91,-308.91 376.59,-298.97 369.59,-298.84"/>
</g>
<!-- Node8 -->
<g id="node8" class="node">
<title>Node8</title>
<g id="a_node8"><a xlink:href="_engine_8cpp.html" target="_top" xlink:title=" ">
<polygon fill="none" stroke="black" points="360.12,-0.5 360.12,-20.5 441.38,-20.5 441.38,-0.5 360.12,-0.5"/>
<text text-anchor="middle" x="400.75" y="-7" font-family="Helvetica,sans-Serif" font-size="10.00">src/Engine.cpp</text>
</a>
</g>
</g>
<!-- Node7&#45;&gt;Node8 -->
<g id="edge7" class="edge">
<title>Node7&#45;&gt;Node8</title>
<path fill="none" stroke="midnightblue" d="M297.11,-185.24C291.03,-155.15 283.92,-96.37 309.75,-57 321.96,-38.39 344.19,-27.08 363.63,-20.39"/>
<polygon fill="midnightblue" stroke="midnightblue" points="293.83,-185.58 299.4,-194.59 300.66,-184.07 293.83,-185.58"/>
</g>
<!-- Node9 -->
<g id="node9" class="node">
<title>Node9</title>
<g id="a_node9"><a xlink:href="_main_8cpp.html" target="_top" xlink:title=" ">
<polygon fill="none" stroke="black" points="55.62,-132.5 55.62,-152.5 127.88,-152.5 127.88,-132.5 55.62,-132.5"/>
<text text-anchor="middle" x="91.75" y="-139" font-family="Helvetica,sans-Serif" font-size="10.00">src/Main.cpp</text>
</a>
</g>
</g>
<!-- Node7&#45;&gt;Node9 -->
<g id="edge8" class="edge">
<title>Node7&#45;&gt;Node9</title>
<path fill="none" stroke="midnightblue" d="M260.89,-192.63C220.39,-180.87 159.28,-163.12 122.66,-152.48"/>
<polygon fill="midnightblue" stroke="midnightblue" points="259.63,-196.2 270.21,-195.63 261.59,-189.48 259.63,-196.2"/>
</g>
<!-- Node7&#45;&gt;Node10 -->
<g id="edge9" class="edge">
<title>Node7&#45;&gt;Node10</title>
<path fill="none" stroke="midnightblue" d="M279.56,-189.79C261.98,-178.13 237.99,-162.23 223.21,-152.42"/>
<polygon fill="midnightblue" stroke="midnightblue" points="277.3,-193.15 287.57,-195.76 281.17,-187.32 277.3,-193.15"/>
</g>
<!-- Node11&#45;&gt;Node4 -->
<g id="edge12" class="edge">
<title>Node11&#45;&gt;Node4</title>
<path fill="none" stroke="midnightblue" d="M82.29,-247.45C100.57,-237.4 124.64,-224.16 140.39,-215.5"/>
<polygon fill="midnightblue" stroke="midnightblue" points="80.89,-244.78 73.82,-252.66 84.27,-250.91 80.89,-244.78"/>
</g>
<!-- Node11&#45;&gt;Node8 -->
<g id="edge11" class="edge">
<title>Node11&#45;&gt;Node8</title>
<path fill="none" stroke="midnightblue" d="M48.37,-242.72C37.18,-214.47 21.51,-160.69 46.75,-126 120.09,-25.19 284.05,-11.31 360.31,-10.57"/>
<polygon fill="midnightblue" stroke="midnightblue" points="45.38,-243.65 52.48,-251.51 51.84,-240.93 45.38,-243.65"/>
</g>
<!-- Node11&#45;&gt;Node9 -->
<g id="edge13" class="edge">
<title>Node11&#45;&gt;Node9</title>
<path fill="none" stroke="midnightblue" d="M59.46,-241.97C61.58,-228.58 64.98,-210.5 69.75,-195 74.49,-179.57 82.34,-162.5 87.26,-152.4"/>
<polygon fill="midnightblue" stroke="midnightblue" points="55.86,-241.34 57.86,-251.75 62.79,-242.37 55.86,-241.34"/>
</g>
<!-- Node11&#45;&gt;Node10 -->
<g id="edge14" class="edge">
<title>Node11&#45;&gt;Node10</title>
<path fill="none" stroke="midnightblue" d="M65.96,-243.2C74.04,-228.63 86.95,-208.5 102.75,-195 126.26,-174.91 158.95,-160.68 182,-152.34"/>
<polygon fill="midnightblue" stroke="midnightblue" points="62.54,-241.18 60.96,-251.66 68.73,-244.46 62.54,-241.18"/>
</g>
<!-- Node13 -->
<g id="node13" class="node">
<title>Node13</title>
<g id="a_node13"><a xlink:href="_solid_effect_8h.html" target="_top" xlink:title=" ">
<polygon fill="none" stroke="black" points="814.62,-132.5 814.62,-152.5 946.88,-152.5 946.88,-132.5 814.62,-132.5"/>
<text text-anchor="middle" x="880.75" y="-139" font-family="Helvetica,sans-Serif" font-size="10.00">include/Effect/SolidEffect.h</text>
</a>
</g>
</g>
<!-- Node12&#45;&gt;Node13 -->
<g id="edge16" class="edge">
<title>Node12&#45;&gt;Node13</title>
<path fill="none" stroke="midnightblue" d="M761.8,-191.55C790.97,-179.77 833.26,-162.69 858.77,-152.38"/>
<polygon fill="midnightblue" stroke="midnightblue" points="760.67,-188.64 752.71,-195.63 763.29,-195.13 760.67,-188.64"/>
</g>
<!-- Node14 -->
<g id="node14" class="node">
<title>Node14</title>
<g id="a_node14"><a xlink:href="_cube_solid_scene_8h.html" target="_top" xlink:title=" ">
<polygon fill="none" stroke="black" points="748.75,-57.5 748.75,-89.5 878.75,-89.5 878.75,-57.5 748.75,-57.5"/>
<text text-anchor="start" x="756.75" y="-76" font-family="Helvetica,sans-Serif" font-size="10.00">include/Scenes/CubeSolid</text>
<text text-anchor="middle" x="813.75" y="-64" font-family="Helvetica,sans-Serif" font-size="10.00">Scene.h</text>
</a>
</g>
</g>
<!-- Node12&#45;&gt;Node14 -->
<g id="edge26" class="edge">
<title>Node12&#45;&gt;Node14</title>
<path fill="none" stroke="midnightblue" d="M786.7,-201.06C846.51,-196.13 934.78,-184.62 955.75,-159 983.37,-125.26 928.13,-101.8 878.69,-88.3"/>
<polygon fill="midnightblue" stroke="midnightblue" points="786.58,-197.64 776.88,-201.91 787.13,-204.62 786.58,-197.64"/>
</g>
<!-- Node15 -->
<g id="node15" class="node">
<title>Node15</title>
<g id="a_node15"><a xlink:href="_texture_effect_8h.html" target="_top" xlink:title=" ">
<polygon fill="none" stroke="black" points="394.38,-132.5 394.38,-152.5 537.12,-152.5 537.12,-132.5 394.38,-132.5"/>
<text text-anchor="middle" x="465.75" y="-139" font-family="Helvetica,sans-Serif" font-size="10.00">include/Effect/TextureEffect.h</text>
</a>
</g>
</g>
<!-- Node12&#45;&gt;Node15 -->
<g id="edge19" class="edge">
<title>Node12&#45;&gt;Node15</title>
<path fill="none" stroke="midnightblue" d="M680.66,-193.16C629.76,-181.4 551.24,-163.25 504.52,-152.46"/>
<polygon fill="midnightblue" stroke="midnightblue" points="679.55,-196.72 690.08,-195.56 681.12,-189.9 679.55,-196.72"/>
</g>
<!-- Node16 -->
<g id="node16" class="node">
<title>Node16</title>
<g id="a_node16"><a xlink:href="_cube_skin_scene_8h.html" target="_top" xlink:title=" ">
<polygon fill="none" stroke="black" points="318.88,-63.5 318.88,-83.5 482.62,-83.5 482.62,-63.5 318.88,-63.5"/>
<text text-anchor="middle" x="400.75" y="-70" font-family="Helvetica,sans-Serif" font-size="10.00">include/Scenes/CubeSkinScene.h</text>
</a>
</g>
</g>
<!-- Node12&#45;&gt;Node16 -->
<g id="edge25" class="edge">
<title>Node12&#45;&gt;Node16</title>
<path fill="none" stroke="midnightblue" d="M672.87,-201.02C580.03,-194.75 404.35,-180.22 385.75,-159 366.8,-137.37 384.95,-100.33 395.03,-83.4"/>
<polygon fill="midnightblue" stroke="midnightblue" points="672.55,-204.57 682.76,-201.74 673.01,-197.59 672.55,-204.57"/>
</g>
<!-- Node17 -->
<g id="node17" class="node">
<title>Node17</title>
<g id="a_node17"><a xlink:href="_vertex_color_effect_8h.html" target="_top" xlink:title=" ">
<polygon fill="none" stroke="black" points="592.5,-126.5 592.5,-158.5 721,-158.5 721,-126.5 592.5,-126.5"/>
<text text-anchor="start" x="600.5" y="-145" font-family="Helvetica,sans-Serif" font-size="10.00">include/Effect/VertexColor</text>
<text text-anchor="middle" x="656.75" y="-133" font-family="Helvetica,sans-Serif" font-size="10.00">Effect.h</text>
</a>
</g>
</g>
<!-- Node12&#45;&gt;Node17 -->
<g id="edge22" class="edge">
<title>Node12&#45;&gt;Node17</title>
<path fill="none" stroke="midnightblue" d="M711.03,-188.86C699.8,-179.47 685.58,-167.59 674.52,-158.35"/>
<polygon fill="midnightblue" stroke="midnightblue" points="708.37,-192.03 718.29,-195.76 712.86,-186.66 708.37,-192.03"/>
</g>
<!-- Node18 -->
<g id="node18" class="node">
<title>Node18</title>
<g id="a_node18"><a xlink:href="_cube_vertex_color_scene_8h.html" target="_top" xlink:title=" ">
<polygon fill="none" stroke="black" points="561.38,-57.5 561.38,-89.5 698.12,-89.5 698.12,-57.5 561.38,-57.5"/>
<text text-anchor="start" x="569.38" y="-76" font-family="Helvetica,sans-Serif" font-size="10.00">include/Scenes/CubeVertex</text>
<text text-anchor="middle" x="629.75" y="-64" font-family="Helvetica,sans-Serif" font-size="10.00">ColorScene.h</text>
</a>
</g>
</g>
<!-- Node12&#45;&gt;Node18 -->
<g id="edge27" class="edge">
<title>Node12&#45;&gt;Node18</title>
<path fill="none" stroke="midnightblue" d="M734.93,-185.7C738.45,-168.81 740.7,-143.96 729.75,-126 719.33,-108.91 701.22,-97.25 683.25,-89.41"/>
<polygon fill="midnightblue" stroke="midnightblue" points="731.4,-184.4 732.44,-194.95 738.2,-186.06 731.4,-184.4"/>
</g>
<!-- Node13&#45;&gt;Node14 -->
<g id="edge17" class="edge">
<title>Node13&#45;&gt;Node14</title>
<path fill="none" stroke="midnightblue" d="M864.41,-125.16C853.5,-114.25 839.26,-100.01 828.66,-89.41"/>
<polygon fill="midnightblue" stroke="midnightblue" points="861.44,-127.14 870.99,-131.74 866.39,-122.19 861.44,-127.14"/>
</g>
<!-- Node14&#45;&gt;Node8 -->
<g id="edge18" class="edge">
<title>Node14&#45;&gt;Node8</title>
<path fill="none" stroke="midnightblue" d="M738.11,-61.33C650.7,-48.42 510.08,-27.65 441.29,-17.49"/>
<polygon fill="midnightblue" stroke="midnightblue" points="737.36,-64.9 747.76,-62.9 738.38,-57.98 737.36,-64.9"/>
</g>
<!-- Node15&#45;&gt;Node16 -->
<g id="edge20" class="edge">
<title>Node15&#45;&gt;Node16</title>
<path fill="none" stroke="midnightblue" d="M449.68,-124.93C436.97,-111.83 419.72,-94.05 409.46,-83.48"/>
<polygon fill="midnightblue" stroke="midnightblue" points="446.78,-127 456.25,-131.74 451.8,-122.13 446.78,-127"/>
</g>
<!-- Node16&#45;&gt;Node8 -->
<g id="edge21" class="edge">
<title>Node16&#45;&gt;Node8</title>
<path fill="none" stroke="midnightblue" d="M400.75,-52.99C400.75,-41.97 400.75,-28.73 400.75,-20.22"/>
<polygon fill="midnightblue" stroke="midnightblue" points="397.25,-52.76 400.75,-62.76 404.25,-52.76 397.25,-52.76"/>
</g>
<!-- Node17&#45;&gt;Node18 -->
<g id="edge23" class="edge">
<title>Node17&#45;&gt;Node18</title>
<path fill="none" stroke="midnightblue" d="M646.67,-116.49C642.99,-107.35 638.94,-97.3 635.73,-89.33"/>
<polygon fill="midnightblue" stroke="midnightblue" points="643.77,-117.66 650.76,-125.63 650.27,-115.05 643.77,-117.66"/>
</g>
<!-- Node18&#45;&gt;Node8 -->
<g id="edge24" class="edge">
<title>Node18&#45;&gt;Node8</title>
<path fill="none" stroke="midnightblue" d="M563.22,-54.78C520.92,-43.51 467.95,-29.4 434.22,-20.42"/>
<polygon fill="midnightblue" stroke="midnightblue" points="562.17,-58.39 572.73,-57.58 563.97,-51.62 562.17,-58.39"/>
</g>
<!-- Node19&#45;&gt;Node12 -->
<g id="edge29" class="edge">
<title>Node19&#45;&gt;Node12</title>
<path fill="none" stroke="midnightblue" d="M584.31,-249.51C618.99,-239.25 668.12,-224.72 699.46,-215.46"/>
<polygon fill="midnightblue" stroke="midnightblue" points="583.65,-246.35 575.05,-252.54 585.63,-253.06 583.65,-246.35"/>
</g>
<!-- Node20&#45;&gt;Node7 -->
<g id="edge31" class="edge">
<title>Node20&#45;&gt;Node7</title>
<path fill="none" stroke="midnightblue" d="M353.51,-246.04C340.61,-236.18 324.35,-223.76 313.53,-215.5"/>
<polygon fill="midnightblue" stroke="midnightblue" points="351.11,-249.37 361.18,-252.66 355.36,-243.81 351.11,-249.37"/>
</g>
<!-- Node20&#45;&gt;Node14 -->
<g id="edge33" class="edge">
<title>Node20&#45;&gt;Node14</title>
<path fill="none" stroke="midnightblue" d="M427.23,-254.7C499.94,-243.61 632.09,-216.79 729.75,-159 760.73,-140.67 788.4,-108.22 802.95,-89.31"/>
<polygon fill="midnightblue" stroke="midnightblue" points="426.9,-251.36 417.52,-256.29 427.92,-258.28 426.9,-251.36"/>
</g>
<!-- Node20&#45;&gt;Node16 -->
<g id="edge32" class="edge">
<title>Node20&#45;&gt;Node16</title>
<path fill="none" stroke="midnightblue" d="M370.86,-241.9C367.57,-215.23 363.84,-166.23 373.75,-126 377.71,-109.92 387.68,-93.31 394.33,-83.44"/>
<polygon fill="midnightblue" stroke="midnightblue" points="367.52,-242.33 372.33,-251.77 374.45,-241.39 367.52,-242.33"/>
</g>
<!-- Node20&#45;&gt;Node18 -->
<g id="edge34" class="edge">
<title>Node20&#45;&gt;Node18</title>
<path fill="none" stroke="midnightblue" d="M401.64,-247.67C436.84,-229.6 498.49,-195.9 545.75,-159 573.47,-137.36 601.42,-107.2 617.06,-89.37"/>
<polygon fill="midnightblue" stroke="midnightblue" points="400.36,-244.9 393.03,-252.55 403.53,-251.14 400.36,-244.9"/>
</g>
<!-- Node22&#45;&gt;Node6 -->
<g id="edge41" class="edge">
<title>Node22&#45;&gt;Node6</title>
<path fill="none" stroke="midnightblue" d="M410.87,-359.33C401.2,-349.48 389.23,-337.28 381.31,-329.21"/>
<polygon fill="midnightblue" stroke="midnightblue" points="407.81,-361.22 417.31,-365.91 412.8,-356.32 407.81,-361.22"/>
</g>
<!-- Node22&#45;&gt;Node23 -->
<g id="edge42" class="edge">
<title>Node22&#45;&gt;Node23</title>
<path fill="none" stroke="midnightblue" d="M445.36,-359.75C456.95,-349.94 471.44,-337.68 481.12,-329.5"/>
<polygon fill="midnightblue" stroke="midnightblue" points="443.57,-357.53 438.19,-366.66 448.09,-362.88 443.57,-357.53"/>
</g>
</g>
</svg>
