<?xml version="1.0" encoding="UTF-8" standalone="no"?>
<!DOCTYPE svg PUBLIC "-//W3C//DTD SVG 1.1//EN"
 "http://www.w3.org/Graphics/SVG/1.1/DTD/svg11.dtd">
<!-- Generated by graphviz version 8.1.0 (20230707.0739)
 -->
<!-- Title: include/ZBuffer.h Pages: 1 -->
<svg width="1180pt" height="281pt"
 viewBox="0.00 0.00 1179.62 281.00" xmlns="http://www.w3.org/2000/svg" xmlns:xlink="http://www.w3.org/1999/xlink">
<g id="graph0" class="graph" transform="scale(1 1) rotate(0) translate(4 277)">
<title>include/ZBuffer.h</title>
<!-- Node1 -->
<g id="node1" class="node">
<title>Node1</title>
<g id="a_node1"><a xlink:title=" ">
<polygon fill="#bfbfbf" stroke="black" points="521,-252.5 521,-272.5 609,-272.5 609,-252.5 521,-252.5"/>
<text text-anchor="middle" x="565" y="-259" font-family="Helvetica,sans-Serif" font-size="10.00">include/ZBuffer.h</text>
</a>
</g>
</g>
<!-- Node2 -->
<g id="node2" class="node">
<title>Node2</title>
<g id="a_node2"><a xlink:href="_pipeline_8h.html" target="_top" xlink:title=" ">
<polygon fill="none" stroke="black" points="518.75,-195.5 518.75,-215.5 611.25,-215.5 611.25,-195.5 518.75,-195.5"/>
<text text-anchor="middle" x="565" y="-202" font-family="Helvetica,sans-Serif" font-size="10.00">include/Pipeline.h</text>
</a>
</g>
</g>
<!-- Node1&#45;&gt;Node2 -->
<g id="edge1" class="edge">
<title>Node1&#45;&gt;Node2</title>
<path fill="none" stroke="midnightblue" d="M565,-242C565,-232.85 565,-222.39 565,-215.21"/>
<polygon fill="midnightblue" stroke="midnightblue" points="561.5,-241.91 565,-251.91 568.5,-241.91 561.5,-241.91"/>
</g>
<!-- Node3 -->
<g id="node3" class="node">
<title>Node3</title>
<g id="a_node3"><a xlink:href="_solid_effect_8h.html" target="_top" xlink:title=" ">
<polygon fill="none" stroke="black" points="42.25,-132.5 42.25,-152.5 179.75,-152.5 179.75,-132.5 42.25,-132.5"/>
<text text-anchor="middle" x="111" y="-139" font-family="Helvetica,sans-Serif" font-size="10.00">include/Effects/SolidEffect.h</text>
</a>
</g>
</g>
<!-- Node2&#45;&gt;Node3 -->
<g id="edge2" class="edge">
<title>Node2&#45;&gt;Node3</title>
<path fill="none" stroke="midnightblue" d="M508.12,-198.64C435.18,-190.88 304.87,-176.13 194,-159 181.69,-157.1 168.4,-154.75 156.14,-152.46"/>
<polygon fill="midnightblue" stroke="midnightblue" points="507.58,-202.21 517.89,-199.78 508.32,-195.25 507.58,-202.21"/>
</g>
<!-- Node4 -->
<g id="node4" class="node">
<title>Node4</title>
<g id="a_node4"><a xlink:href="_cube_solid_scene_8h.html" target="_top" xlink:title=" ">
<polygon fill="none" stroke="black" points="0,-57.5 0,-89.5 130,-89.5 130,-57.5 0,-57.5"/>
<text text-anchor="start" x="8" y="-76" font-family="Helvetica,sans-Serif" font-size="10.00">include/Scenes/CubeSolid</text>
<text text-anchor="middle" x="65" y="-64" font-family="Helvetica,sans-Serif" font-size="10.00">Scene.h</text>
</a>
</g>
</g>
<!-- Node2&#45;&gt;Node4 -->
<g id="edge24" class="edge">
<title>Node2&#45;&gt;Node4</title>
<path fill="none" stroke="midnightblue" d="M507.94,-203.88C377.18,-201.87 64.64,-193.46 33,-159 14.75,-139.13 35.47,-107.81 51.03,-89.4"/>
<polygon fill="midnightblue" stroke="midnightblue" points="507.85,-207.39 517.9,-204.04 507.95,-200.39 507.85,-207.39"/>
</g>
<!-- Node6 -->
<g id="node6" class="node">
<title>Node6</title>
<g id="a_node6"><a xlink:href="_double_cube_scene_8h.html" target="_top" xlink:title=" ">
<polygon fill="none" stroke="black" points="147.88,-57.5 147.88,-89.5 286.12,-89.5 286.12,-57.5 147.88,-57.5"/>
<text text-anchor="start" x="155.88" y="-76" font-family="Helvetica,sans-Serif" font-size="10.00">include/Scenes/DoubleCube</text>
<text text-anchor="middle" x="217" y="-64" font-family="Helvetica,sans-Serif" font-size="10.00">Scene.h</text>
</a>
</g>
</g>
<!-- Node2&#45;&gt;Node6 -->
<g id="edge27" class="edge">
<title>Node2&#45;&gt;Node6</title>
<path fill="none" stroke="midnightblue" d="M508.14,-204.94C422.18,-204.31 265.1,-197.71 227,-159 208.97,-140.68 210.83,-108.23 213.87,-89.32"/>
<polygon fill="midnightblue" stroke="midnightblue" points="508,-208.44 518.02,-204.99 508.03,-201.44 508,-208.44"/>
</g>
<!-- Node7 -->
<g id="node7" class="node">
<title>Node7</title>
<g id="a_node7"><a xlink:href="_solid_geometry_effect_8h.html" target="_top" xlink:title=" ">
<polygon fill="none" stroke="black" points="236.38,-126.5 236.38,-158.5 383.62,-158.5 383.62,-126.5 236.38,-126.5"/>
<text text-anchor="start" x="244.38" y="-145" font-family="Helvetica,sans-Serif" font-size="10.00">include/Effects/SolidGeometry</text>
<text text-anchor="middle" x="310" y="-133" font-family="Helvetica,sans-Serif" font-size="10.00">Effect.h</text>
</a>
</g>
</g>
<!-- Node2&#45;&gt;Node7 -->
<g id="edge7" class="edge">
<title>Node2&#45;&gt;Node7</title>
<path fill="none" stroke="midnightblue" d="M517.16,-193.06C476.31,-183.28 417.26,-169.16 372.65,-158.49"/>
<polygon fill="midnightblue" stroke="midnightblue" points="516.11,-196.64 526.65,-195.56 517.74,-189.83 516.11,-196.64"/>
</g>
<!-- Node8 -->
<g id="node8" class="node">
<title>Node8</title>
<g id="a_node8"><a xlink:href="_cube_solid_geometry_scene_8h.html" target="_top" xlink:title=" ">
<polygon fill="none" stroke="black" points="330,-57.5 330,-89.5 460,-89.5 460,-57.5 330,-57.5"/>
<text text-anchor="start" x="338" y="-76" font-family="Helvetica,sans-Serif" font-size="10.00">include/Scenes/CubeSolid</text>
<text text-anchor="middle" x="395" y="-64" font-family="Helvetica,sans-Serif" font-size="10.00">GeometryScene.h</text>
</a>
</g>
</g>
<!-- Node2&#45;&gt;Node8 -->
<g id="edge23" class="edge">
<title>Node2&#45;&gt;Node8</title>
<path fill="none" stroke="midnightblue" d="M508.25,-196.17C482.05,-189.79 452.14,-178.6 431,-159 410.77,-140.24 401.44,-108.25 397.52,-89.47"/>
<polygon fill="midnightblue" stroke="midnightblue" points="507.31,-199.77 517.84,-198.54 508.84,-192.94 507.31,-199.77"/>
</g>
<!-- Node9 -->
<g id="node9" class="node">
<title>Node9</title>
<g id="a_node9"><a xlink:href="_texture_effect_8h.html" target="_top" xlink:title=" ">
<polygon fill="none" stroke="black" points="440,-132.5 440,-152.5 588,-152.5 588,-132.5 440,-132.5"/>
<text text-anchor="middle" x="514" y="-139" font-family="Helvetica,sans-Serif" font-size="10.00">include/Effects/TextureEffect.h</text>
</a>
</g>
</g>
<!-- Node2&#45;&gt;Node9 -->
<g id="edge10" class="edge">
<title>Node2&#45;&gt;Node9</title>
<path fill="none" stroke="midnightblue" d="M550.72,-187.42C541.15,-175.97 528.94,-161.37 521.29,-152.22"/>
<polygon fill="midnightblue" stroke="midnightblue" points="548.59,-189.33 557.69,-194.76 553.96,-184.84 548.59,-189.33"/>
</g>
<!-- Node10 -->
<g id="node10" class="node">
<title>Node10</title>
<g id="a_node10"><a xlink:href="_cube_skin_scene_8h.html" target="_top" xlink:title=" ">
<polygon fill="none" stroke="black" points="478.12,-63.5 478.12,-83.5 641.88,-83.5 641.88,-63.5 478.12,-63.5"/>
<text text-anchor="middle" x="560" y="-70" font-family="Helvetica,sans-Serif" font-size="10.00">include/Scenes/CubeSkinScene.h</text>
</a>
</g>
</g>
<!-- Node2&#45;&gt;Node10 -->
<g id="edge22" class="edge">
<title>Node2&#45;&gt;Node10</title>
<path fill="none" stroke="midnightblue" d="M580.87,-187.32C587.19,-179.33 593.73,-169.32 597,-159 601.42,-145.02 601.5,-139.96 597,-126 591.53,-109.02 578.17,-92.91 569.09,-83.36"/>
<polygon fill="midnightblue" stroke="midnightblue" points="577.57,-184.79 573.75,-194.67 582.9,-189.33 577.57,-184.79"/>
</g>
<!-- Node11 -->
<g id="node11" class="node">
<title>Node11</title>
<g id="a_node11"><a xlink:href="_vertex_color_effect_8h.html" target="_top" xlink:title=" ">
<polygon fill="none" stroke="black" points="644.12,-126.5 644.12,-158.5 777.88,-158.5 777.88,-126.5 644.12,-126.5"/>
<text text-anchor="start" x="652.12" y="-145" font-family="Helvetica,sans-Serif" font-size="10.00">include/Effects/VertexColor</text>
<text text-anchor="middle" x="711" y="-133" font-family="Helvetica,sans-Serif" font-size="10.00">Effect.h</text>
</a>
</g>
</g>
<!-- Node2&#45;&gt;Node11 -->
<g id="edge13" class="edge">
<title>Node2&#45;&gt;Node11</title>
<path fill="none" stroke="midnightblue" d="M596.24,-191.45C619.44,-181.75 651.13,-168.51 675.33,-158.4"/>
<polygon fill="midnightblue" stroke="midnightblue" points="595.11,-188.55 587.23,-195.63 597.81,-195 595.11,-188.55"/>
</g>
<!-- Node12 -->
<g id="node12" class="node">
<title>Node12</title>
<g id="a_node12"><a xlink:href="_cube_vertex_color_scene_8h.html" target="_top" xlink:title=" ">
<polygon fill="none" stroke="black" points="659.62,-57.5 659.62,-89.5 796.38,-89.5 796.38,-57.5 659.62,-57.5"/>
<text text-anchor="start" x="667.62" y="-76" font-family="Helvetica,sans-Serif" font-size="10.00">include/Scenes/CubeVertex</text>
<text text-anchor="middle" x="728" y="-64" font-family="Helvetica,sans-Serif" font-size="10.00">ColorScene.h</text>
</a>
</g>
</g>
<!-- Node2&#45;&gt;Node12 -->
<g id="edge25" class="edge">
<title>Node2&#45;&gt;Node12</title>
<path fill="none" stroke="midnightblue" d="M621.71,-200.85C680.45,-195.75 766.51,-184.11 787,-159 806,-135.71 774.65,-106.6 750.86,-89.33"/>
<polygon fill="midnightblue" stroke="midnightblue" points="621.75,-197.42 612.08,-201.73 622.33,-204.39 621.75,-197.42"/>
</g>
<!-- Node13 -->
<g id="node13" class="node">
<title>Node13</title>
<g id="a_node13"><a xlink:href="_vertex_position_color_effect_8h.html" target="_top" xlink:title=" ">
<polygon fill="none" stroke="black" points="833.75,-126.5 833.75,-158.5 980.25,-158.5 980.25,-126.5 833.75,-126.5"/>
<text text-anchor="start" x="841.75" y="-145" font-family="Helvetica,sans-Serif" font-size="10.00">include/Effects/VertexPosition</text>
<text text-anchor="middle" x="907" y="-133" font-family="Helvetica,sans-Serif" font-size="10.00">ColorEffect.h</text>
</a>
</g>
</g>
<!-- Node2&#45;&gt;Node13 -->
<g id="edge16" class="edge">
<title>Node2&#45;&gt;Node13</title>
<path fill="none" stroke="midnightblue" d="M621.94,-194.34C680.05,-183.98 770.46,-167.85 833.84,-156.55"/>
<polygon fill="midnightblue" stroke="midnightblue" points="621.35,-191.07 612.12,-196.27 622.58,-197.96 621.35,-191.07"/>
</g>
<!-- Node14 -->
<g id="node14" class="node">
<title>Node14</title>
<g id="a_node14"><a xlink:href="_cube_vertex_position_color_scene_8h.html" target="_top" xlink:title=" ">
<polygon fill="none" stroke="black" points="838.62,-57.5 838.62,-89.5 975.38,-89.5 975.38,-57.5 838.62,-57.5"/>
<text text-anchor="start" x="846.62" y="-76" font-family="Helvetica,sans-Serif" font-size="10.00">include/Scenes/CubeVertex</text>
<text text-anchor="middle" x="907" y="-64" font-family="Helvetica,sans-Serif" font-size="10.00">PositionColorScene.h</text>
</a>
</g>
</g>
<!-- Node2&#45;&gt;Node14 -->
<g id="edge26" class="edge">
<title>Node2&#45;&gt;Node14</title>
<path fill="none" stroke="midnightblue" d="M621.96,-202.54C731.95,-198.17 964.9,-185.82 989,-159 998.8,-148.09 996.1,-138.84 989,-126 979.89,-109.52 963.06,-97.6 947,-89.41"/>
<polygon fill="midnightblue" stroke="midnightblue" points="621.94,-199.08 612.08,-202.96 622.21,-206.07 621.94,-199.08"/>
</g>
<!-- Node15 -->
<g id="node15" class="node">
<title>Node15</title>
<g id="a_node15"><a xlink:href="_wave_vertex_texture_effect_8h.html" target="_top" xlink:title=" ">
<polygon fill="none" stroke="black" points="1036.38,-126.5 1036.38,-158.5 1171.62,-158.5 1171.62,-126.5 1036.38,-126.5"/>
<text text-anchor="start" x="1044.38" y="-145" font-family="Helvetica,sans-Serif" font-size="10.00">include/Effects/WaveVertex</text>
<text text-anchor="middle" x="1104" y="-133" font-family="Helvetica,sans-Serif" font-size="10.00">TextureEffect.h</text>
</a>
</g>
</g>
<!-- Node2&#45;&gt;Node15 -->
<g id="edge19" class="edge">
<title>Node2&#45;&gt;Node15</title>
<path fill="none" stroke="midnightblue" d="M622.13,-200.43C708.84,-193.88 878.73,-179.63 1022,-159 1026.73,-158.32 1031.61,-157.56 1036.51,-156.74"/>
<polygon fill="midnightblue" stroke="midnightblue" points="621.93,-197.01 612.22,-201.24 622.45,-203.99 621.93,-197.01"/>
</g>
<!-- Node3&#45;&gt;Node4 -->
<g id="edge3" class="edge">
<title>Node3&#45;&gt;Node4</title>
<path fill="none" stroke="midnightblue" d="M98.89,-123.86C91.53,-113.14 82.23,-99.6 75.24,-89.41"/>
<polygon fill="midnightblue" stroke="midnightblue" points="96.44,-125.48 104.99,-131.74 102.21,-121.52 96.44,-125.48"/>
</g>
<!-- Node3&#45;&gt;Node6 -->
<g id="edge5" class="edge">
<title>Node3&#45;&gt;Node6</title>
<path fill="none" stroke="midnightblue" d="M133.86,-127.05C151.44,-115.94 175.65,-100.63 193.41,-89.41"/>
<polygon fill="midnightblue" stroke="midnightblue" points="132.44,-124.44 125.86,-132.74 136.18,-130.36 132.44,-124.44"/>
</g>
<!-- Node5 -->
<g id="node5" class="node">
<title>Node5</title>
<g id="a_node5"><a xlink:href="_engine_8cpp.html" target="_top" xlink:title=" ">
<polygon fill="none" stroke="black" points="519.38,-0.5 519.38,-20.5 600.62,-20.5 600.62,-0.5 519.38,-0.5"/>
<text text-anchor="middle" x="560" y="-7" font-family="Helvetica,sans-Serif" font-size="10.00">src/Engine.cpp</text>
</a>
</g>
</g>
<!-- Node4&#45;&gt;Node5 -->
<g id="edge4" class="edge">
<title>Node4&#45;&gt;Node5</title>
<path fill="none" stroke="midnightblue" d="M140.34,-56.89C285.62,-34.33 445.98,-20.34 519.48,-14.54"/>
<polygon fill="midnightblue" stroke="midnightblue" points="140.24,-53.52 130.91,-58.53 141.33,-60.43 140.24,-53.52"/>
</g>
<!-- Node6&#45;&gt;Node5 -->
<g id="edge6" class="edge">
<title>Node6&#45;&gt;Node5</title>
<path fill="none" stroke="midnightblue" d="M296.51,-58.36C366.27,-45.95 464.9,-28.41 519.55,-18.69"/>
<polygon fill="midnightblue" stroke="midnightblue" points="296.23,-55.03 287,-60.23 297.46,-61.92 296.23,-55.03"/>
</g>
<!-- Node7&#45;&gt;Node8 -->
<g id="edge8" class="edge">
<title>Node7&#45;&gt;Node8</title>
<path fill="none" stroke="midnightblue" d="M337.26,-120.02C349.96,-110 364.75,-98.34 376.19,-89.33"/>
<polygon fill="midnightblue" stroke="midnightblue" points="335.55,-117.69 329.86,-126.63 339.88,-123.19 335.55,-117.69"/>
</g>
<!-- Node8&#45;&gt;Node5 -->
<g id="edge9" class="edge">
<title>Node8&#45;&gt;Node5</title>
<path fill="none" stroke="midnightblue" d="M445.67,-53.77C475.67,-42.68 512.3,-29.13 535.88,-20.42"/>
<polygon fill="midnightblue" stroke="midnightblue" points="444.53,-50.83 436.36,-57.58 446.96,-57.39 444.53,-50.83"/>
</g>
<!-- Node9&#45;&gt;Node10 -->
<g id="edge11" class="edge">
<title>Node9&#45;&gt;Node10</title>
<path fill="none" stroke="midnightblue" d="M526.15,-123.8C535.06,-110.82 546.79,-93.75 553.84,-83.48"/>
<polygon fill="midnightblue" stroke="midnightblue" points="522.79,-121.52 520.01,-131.74 528.56,-125.48 522.79,-121.52"/>
</g>
<!-- Node10&#45;&gt;Node5 -->
<g id="edge12" class="edge">
<title>Node10&#45;&gt;Node5</title>
<path fill="none" stroke="midnightblue" d="M560,-52.99C560,-41.97 560,-28.73 560,-20.22"/>
<polygon fill="midnightblue" stroke="midnightblue" points="556.5,-52.76 560,-62.76 563.5,-52.76 556.5,-52.76"/>
</g>
<!-- Node11&#45;&gt;Node12 -->
<g id="edge14" class="edge">
<title>Node11&#45;&gt;Node12</title>
<path fill="none" stroke="midnightblue" d="M717.42,-116.19C719.72,-107.13 722.24,-97.21 724.24,-89.33"/>
<polygon fill="midnightblue" stroke="midnightblue" points="713.84,-115.08 714.77,-125.63 720.62,-116.8 713.84,-115.08"/>
</g>
<!-- Node12&#45;&gt;Node5 -->
<g id="edge15" class="edge">
<title>Node12&#45;&gt;Node5</title>
<path fill="none" stroke="midnightblue" d="M676.81,-53.91C646.19,-42.8 608.67,-29.17 584.55,-20.42"/>
<polygon fill="midnightblue" stroke="midnightblue" points="675.31,-57.45 685.9,-57.58 677.7,-50.87 675.31,-57.45"/>
</g>
<!-- Node13&#45;&gt;Node14 -->
<g id="edge17" class="edge">
<title>Node13&#45;&gt;Node14</title>
<path fill="none" stroke="midnightblue" d="M907,-115.89C907,-106.91 907,-97.13 907,-89.33"/>
<polygon fill="midnightblue" stroke="midnightblue" points="903.5,-115.63 907,-125.63 910.5,-115.63 903.5,-115.63"/>
</g>
<!-- Node14&#45;&gt;Node5 -->
<g id="edge18" class="edge">
<title>Node14&#45;&gt;Node5</title>
<path fill="none" stroke="midnightblue" d="M828.19,-58.65C757.28,-46.18 655.95,-28.37 600.35,-18.59"/>
<polygon fill="midnightblue" stroke="midnightblue" points="827.4,-62.24 837.86,-60.52 828.62,-55.34 827.4,-62.24"/>
</g>
<!-- Node16 -->
<g id="node16" class="node">
<title>Node16</title>
<g id="a_node16"><a xlink:href="_vertex_wave_scene_8h.html" target="_top" xlink:title=" ">
<polygon fill="none" stroke="black" points="1013.88,-57.5 1013.88,-89.5 1152.12,-89.5 1152.12,-57.5 1013.88,-57.5"/>
<text text-anchor="start" x="1021.88" y="-76" font-family="Helvetica,sans-Serif" font-size="10.00">include/Scenes/VertexWave</text>
<text text-anchor="middle" x="1083" y="-64" font-family="Helvetica,sans-Serif" font-size="10.00">Scene.h</text>
</a>
</g>
</g>
<!-- Node15&#45;&gt;Node16 -->
<g id="edge20" class="edge">
<title>Node15&#45;&gt;Node16</title>
<path fill="none" stroke="midnightblue" d="M1096.07,-116.19C1093.23,-107.13 1090.12,-97.21 1087.65,-89.33"/>
<polygon fill="midnightblue" stroke="midnightblue" points="1093.01,-117.14 1099.34,-125.63 1099.69,-115.04 1093.01,-117.14"/>
</g>
<!-- Node16&#45;&gt;Node5 -->
<g id="edge21" class="edge">
<title>Node16&#45;&gt;Node5</title>
<path fill="none" stroke="midnightblue" d="M1003.66,-59.73C997.01,-58.77 990.4,-57.84 984,-57 843.44,-38.47 675.91,-22.2 600.42,-15.18"/>
<polygon fill="midnightblue" stroke="midnightblue" points="1002.69,-63.27 1013.09,-61.27 1003.71,-56.35 1002.69,-63.27"/>
</g>
</g>
</svg>
