<?xml version="1.0" encoding="UTF-8" standalone="no"?>
<!DOCTYPE svg PUBLIC "-//W3C//DTD SVG 1.1//EN"
 "http://www.w3.org/Graphics/SVG/1.1/DTD/svg11.dtd">
<!-- Generated by graphviz version 8.1.0 (20230707.0739)
 -->
<!-- Title: Engine::SetWindowName Pages: 1 -->
<svg width="533pt" height="107pt"
 viewBox="0.00 0.00 533.25 107.00" xmlns="http://www.w3.org/2000/svg" xmlns:xlink="http://www.w3.org/1999/xlink">
<g id="graph0" class="graph" transform="scale(1 1) rotate(0) translate(4 103)">
<title>Engine::SetWindowName</title>
<!-- Node1 -->
<g id="node1" class="node">
<title>Node1</title>
<g id="a_node1"><a xlink:title=" ">
<polygon fill="#bfbfbf" stroke="black" points="398.25,-39.5 398.25,-59.5 525.25,-59.5 525.25,-39.5 398.25,-39.5"/>
<text text-anchor="middle" x="461.75" y="-46" font-family="Helvetica,sans-Serif" font-size="10.00">Engine::SetWindowName</text>
</a>
</g>
</g>
<!-- Node2 -->
<g id="node2" class="node">
<title>Node2</title>
<g id="a_node2"><a xlink:href="class_engine.html#a5016986fb05c1dc14b808c018a152b21" target="_top" xlink:title=" ">
<polygon fill="none" stroke="black" points="235.25,-78.5 235.25,-98.5 345,-98.5 345,-78.5 235.25,-78.5"/>
<text text-anchor="middle" x="290.12" y="-85" font-family="Helvetica,sans-Serif" font-size="10.00">Engine::CycleScenes</text>
</a>
</g>
</g>
<!-- Node1&#45;&gt;Node2 -->
<g id="edge1" class="edge">
<title>Node1&#45;&gt;Node2</title>
<path fill="none" stroke="midnightblue" d="M407.06,-61.84C383.69,-67.22 356.66,-73.43 334.58,-78.51"/>
<polygon fill="midnightblue" stroke="midnightblue" points="407.55,-65.09 416.51,-59.44 405.98,-58.27 407.55,-65.09"/>
</g>
<!-- Node5 -->
<g id="node5" class="node">
<title>Node5</title>
<g id="a_node5"><a xlink:href="class_engine.html#a9491d35868099b1c1cd35d9ecc482421" target="_top" xlink:title=" ">
<polygon fill="none" stroke="black" points="249.12,-39.5 249.12,-59.5 331.12,-59.5 331.12,-39.5 249.12,-39.5"/>
<text text-anchor="middle" x="290.12" y="-46" font-family="Helvetica,sans-Serif" font-size="10.00">Engine::Engine</text>
</a>
</g>
</g>
<!-- Node1&#45;&gt;Node5 -->
<g id="edge4" class="edge">
<title>Node1&#45;&gt;Node5</title>
<path fill="none" stroke="midnightblue" d="M387.82,-49.5C368.29,-49.5 347.9,-49.5 330.91,-49.5"/>
<polygon fill="midnightblue" stroke="midnightblue" points="387.55,-53 397.55,-49.5 387.55,-46 387.55,-53"/>
</g>
<!-- Node6 -->
<g id="node6" class="node">
<title>Node6</title>
<g id="a_node6"><a xlink:href="class_engine.html#a00d1c5c1655bd9024d7150aa12c4b5c6" target="_top" xlink:title=" ">
<polygon fill="none" stroke="black" points="218,-0.5 218,-20.5 362.25,-20.5 362.25,-0.5 218,-0.5"/>
<text text-anchor="middle" x="290.12" y="-7" font-family="Helvetica,sans-Serif" font-size="10.00">Engine::ReverseCycleScenes</text>
</a>
</g>
</g>
<!-- Node1&#45;&gt;Node6 -->
<g id="edge5" class="edge">
<title>Node1&#45;&gt;Node6</title>
<path fill="none" stroke="midnightblue" d="M407.06,-37.16C383.69,-31.78 356.66,-25.57 334.58,-20.49"/>
<polygon fill="midnightblue" stroke="midnightblue" points="405.98,-40.73 416.51,-39.56 407.55,-33.91 405.98,-40.73"/>
</g>
<!-- Node3 -->
<g id="node3" class="node">
<title>Node3</title>
<g id="a_node3"><a xlink:href="class_engine.html#a56cc30926ee112fbf83bfa4083d3af79" target="_top" xlink:title=" ">
<polygon fill="none" stroke="black" points="73,-39.5 73,-59.5 182,-59.5 182,-39.5 73,-39.5"/>
<text text-anchor="middle" x="127.5" y="-46" font-family="Helvetica,sans-Serif" font-size="10.00">Engine::UpdateModel</text>
</a>
</g>
</g>
<!-- Node2&#45;&gt;Node3 -->
<g id="edge2" class="edge">
<title>Node2&#45;&gt;Node3</title>
<path fill="none" stroke="midnightblue" d="M237.68,-76.01C215.69,-70.67 190.37,-64.52 169.65,-59.49"/>
<polygon fill="midnightblue" stroke="midnightblue" points="236.63,-79.6 247.18,-78.56 238.29,-72.8 236.63,-79.6"/>
</g>
<!-- Node4 -->
<g id="node4" class="node">
<title>Node4</title>
<g id="a_node4"><a xlink:href="_main_8cpp.html#a0ddf1224851353fc92bfbff6f499fa97" target="_top" xlink:title=" ">
<polygon fill="none" stroke="black" points="0,-39.5 0,-59.5 37,-59.5 37,-39.5 0,-39.5"/>
<text text-anchor="middle" x="18.5" y="-46" font-family="Helvetica,sans-Serif" font-size="10.00">main</text>
</a>
</g>
</g>
<!-- Node3&#45;&gt;Node4 -->
<g id="edge3" class="edge">
<title>Node3&#45;&gt;Node4</title>
<path fill="none" stroke="midnightblue" d="M62.26,-49.5C52.87,-49.5 43.94,-49.5 36.69,-49.5"/>
<polygon fill="midnightblue" stroke="midnightblue" points="62,-53 72,-49.5 62,-46 62,-53"/>
</g>
<!-- Node6&#45;&gt;Node3 -->
<g id="edge6" class="edge">
<title>Node6&#45;&gt;Node3</title>
<path fill="none" stroke="midnightblue" d="M237.68,-22.99C215.69,-28.33 190.37,-34.48 169.65,-39.51"/>
<polygon fill="midnightblue" stroke="midnightblue" points="238.29,-26.2 247.18,-20.44 236.63,-19.4 238.29,-26.2"/>
</g>
</g>
</svg>
