<?xml version="1.0" encoding="UTF-8" standalone="no"?>
<!DOCTYPE svg PUBLIC "-//W3C//DTD SVG 1.1//EN"
 "http://www.w3.org/Graphics/SVG/1.1/DTD/svg11.dtd">
<!-- Generated by graphviz version 2.43.0 (0)
 -->
<!-- Title: Surface::PutPixel Pages: 1 -->
<svg width="562pt" height="85pt"
 viewBox="0.00 0.00 562.00 85.00" xmlns="http://www.w3.org/2000/svg" xmlns:xlink="http://www.w3.org/1999/xlink">
<g id="graph0" class="graph" transform="scale(1 1) rotate(0) translate(4 81)">
<title>Surface::PutPixel</title>
<!-- Node1 -->
<g id="node1" class="node">
<title>Node1</title>
<g id="a_node1"><a xlink:title=" ">
<polygon fill="#bfbfbf" stroke="black" points="456,-19.5 456,-38.5 554,-38.5 554,-19.5 456,-19.5"/>
<text text-anchor="middle" x="505" y="-26.5" font-family="Helvetica,sans-Serif" font-size="10.00">Surface::PutPixel</text>
</a>
</g>
</g>
<!-- Node2 -->
<g id="node2" class="node">
<title>Node2</title>
<g id="a_node2"><a xlink:href="classGraphics.html#a69fae0334426fd8a8a271d9843d4f7fe" target="_top" xlink:title=" ">
<polygon fill="none" stroke="black" points="305,-38.5 305,-57.5 409,-57.5 409,-38.5 305,-38.5"/>
<text text-anchor="middle" x="357" y="-45.5" font-family="Helvetica,sans-Serif" font-size="10.00">Graphics::PutPixel</text>
</a>
</g>
</g>
<!-- Node1&#45;&gt;Node2 -->
<g id="edge1" class="edge">
<title>Node1&#45;&gt;Node2</title>
<path fill="none" stroke="midnightblue" d="M445.78,-36.58C433.68,-38.15 421,-39.8 409.17,-41.34"/>
<polygon fill="midnightblue" stroke="midnightblue" points="446.32,-40.04 455.79,-35.27 445.42,-33.09 446.32,-40.04"/>
</g>
<!-- Node6 -->
<g id="node6" class="node">
<title>Node6</title>
<g id="a_node6"><a xlink:href="classSurface.html#a187f57fb4942d79ce17a84f17efac54c" target="_top" xlink:title=" ">
<polygon fill="none" stroke="black" points="294,-0.5 294,-19.5 420,-19.5 420,-0.5 294,-0.5"/>
<text text-anchor="middle" x="357" y="-7.5" font-family="Helvetica,sans-Serif" font-size="10.00">Surface::PutPixelAlpha</text>
</a>
</g>
</g>
<!-- Node1&#45;&gt;Node6 -->
<g id="edge5" class="edge">
<title>Node1&#45;&gt;Node6</title>
<path fill="none" stroke="midnightblue" d="M445.72,-21.42C437.34,-20.32 428.68,-19.2 420.22,-18.1"/>
<polygon fill="midnightblue" stroke="midnightblue" points="445.42,-24.91 455.79,-22.73 446.32,-17.96 445.42,-24.91"/>
</g>
<!-- Node3 -->
<g id="node3" class="node">
<title>Node3</title>
<g id="a_node3"><a xlink:href="classGraphics.html#acc62144c402eeaec8e0d496f4cac9c86" target="_top" xlink:title=" ">
<polygon fill="none" stroke="black" points="147,-57.5 147,-76.5 258,-76.5 258,-57.5 147,-57.5"/>
<text text-anchor="middle" x="202.5" y="-64.5" font-family="Helvetica,sans-Serif" font-size="10.00">Graphics::DrawLine</text>
</a>
</g>
</g>
<!-- Node2&#45;&gt;Node3 -->
<g id="edge2" class="edge">
<title>Node2&#45;&gt;Node3</title>
<path fill="none" stroke="midnightblue" d="M294.79,-55.63C282.7,-57.13 270.09,-58.7 258.23,-60.18"/>
<polygon fill="midnightblue" stroke="midnightblue" points="295.3,-59.09 304.8,-54.38 294.44,-52.14 295.3,-59.09"/>
</g>
<!-- Node5 -->
<g id="node5" class="node">
<title>Node5</title>
<g id="a_node5"><a xlink:href="classGraphics.html#a64e7971066ee21f5b77aa525742f29e2" target="_top" xlink:title=" ">
<polygon fill="none" stroke="black" points="150.5,-19.5 150.5,-38.5 254.5,-38.5 254.5,-19.5 150.5,-19.5"/>
<text text-anchor="middle" x="202.5" y="-26.5" font-family="Helvetica,sans-Serif" font-size="10.00">Graphics::PutPixel</text>
</a>
</g>
</g>
<!-- Node2&#45;&gt;Node5 -->
<g id="edge4" class="edge">
<title>Node2&#45;&gt;Node5</title>
<path fill="none" stroke="midnightblue" d="M294.75,-40.37C281.42,-38.71 267.46,-36.97 254.57,-35.36"/>
<polygon fill="midnightblue" stroke="midnightblue" points="294.44,-43.86 304.8,-41.62 295.3,-36.91 294.44,-43.86"/>
</g>
<!-- Node4 -->
<g id="node4" class="node">
<title>Node4</title>
<g id="a_node4"><a xlink:href="classGraphics.html#adc0d5b1fd9721c739fb702978fe13e8d" target="_top" xlink:title=" ">
<polygon fill="none" stroke="black" points="0,-57.5 0,-76.5 111,-76.5 111,-57.5 0,-57.5"/>
<text text-anchor="middle" x="55.5" y="-64.5" font-family="Helvetica,sans-Serif" font-size="10.00">Graphics::DrawLine</text>
</a>
</g>
</g>
<!-- Node3&#45;&gt;Node4 -->
<g id="edge3" class="edge">
<title>Node3&#45;&gt;Node4</title>
<path fill="none" stroke="midnightblue" d="M136.54,-67C128.14,-67 119.61,-67 111.4,-67"/>
<polygon fill="midnightblue" stroke="midnightblue" points="136.68,-70.5 146.68,-67 136.68,-63.5 136.68,-70.5"/>
</g>
</g>
</svg>
