<?xml version="1.0" encoding="UTF-8" standalone="no"?>
<!DOCTYPE svg PUBLIC "-//W3C//DTD SVG 1.1//EN"
 "http://www.w3.org/Graphics/SVG/1.1/DTD/svg11.dtd">
<!-- Generated by graphviz version 8.1.0 (20230707.0739)
 -->
<!-- Title: Surface::Surface Pages: 1 -->
<svg width="393pt" height="41pt"
 viewBox="0.00 0.00 392.75 41.00" xmlns="http://www.w3.org/2000/svg" xmlns:xlink="http://www.w3.org/1999/xlink">
<g id="graph0" class="graph" transform="scale(1 1) rotate(0) translate(4 37)">
<title>Surface::Surface</title>
<!-- Node1 -->
<g id="node1" class="node">
<title>Node1</title>
<g id="a_node1"><a xlink:title=" ">
<polygon fill="#bfbfbf" stroke="black" points="296.75,-6.5 296.75,-26.5 384.75,-26.5 384.75,-6.5 296.75,-6.5"/>
<text text-anchor="middle" x="340.75" y="-13" font-family="Helvetica,sans-Serif" font-size="10.00">Surface::Surface</text>
</a>
</g>
</g>
<!-- Node2 -->
<g id="node2" class="node">
<title>Node2</title>
<g id="a_node2"><a xlink:href="class_surface.html#a56f7924ec6d563a5bf2f6b7586c2b621" target="_top" xlink:title=" ">
<polygon fill="none" stroke="black" points="167.5,-6.5 167.5,-26.5 260.75,-26.5 260.75,-6.5 167.5,-6.5"/>
<text text-anchor="middle" x="214.12" y="-13" font-family="Helvetica,sans-Serif" font-size="10.00">Surface::FromFile</text>
</a>
</g>
</g>
<!-- Node1&#45;&gt;Node2 -->
<g id="edge1" class="edge">
<title>Node1&#45;&gt;Node2</title>
<path fill="none" stroke="midnightblue" d="M285.95,-16.5C277.51,-16.5 268.87,-16.5 260.64,-16.5"/>
<polygon fill="midnightblue" stroke="midnightblue" points="285.86,-20 295.86,-16.5 285.86,-13 285.86,-20"/>
</g>
<!-- Node3 -->
<g id="node3" class="node">
<title>Node3</title>
<g id="a_node3"><a xlink:href="class_texture_effect_1_1_pixel_shader.html#a6321fe62bc48c423bedfc34b2976934a" target="_top" xlink:title=" ">
<polygon fill="none" stroke="black" points="0,-0.5 0,-32.5 131.5,-32.5 131.5,-0.5 0,-0.5"/>
<text text-anchor="start" x="8" y="-19" font-family="Helvetica,sans-Serif" font-size="10.00">TextureEffect::PixelShader</text>
<text text-anchor="middle" x="65.75" y="-7" font-family="Helvetica,sans-Serif" font-size="10.00">::BindTexture</text>
</a>
</g>
</g>
<!-- Node2&#45;&gt;Node3 -->
<g id="edge2" class="edge">
<title>Node2&#45;&gt;Node3</title>
<path fill="none" stroke="midnightblue" d="M156.85,-16.5C148.49,-16.5 139.82,-16.5 131.31,-16.5"/>
<polygon fill="midnightblue" stroke="midnightblue" points="156.61,-20 166.61,-16.5 156.61,-13 156.61,-20"/>
</g>
</g>
</svg>
