<?xml version="1.0" encoding="UTF-8" standalone="no"?>
<!DOCTYPE svg PUBLIC "-//W3C//DTD SVG 1.1//EN"
 "http://www.w3.org/Graphics/SVG/1.1/DTD/svg11.dtd">
<!-- Generated by graphviz version 2.43.0 (0)
 -->
<!-- Title: Vector2::Vector2 Pages: 1 -->
<svg width="419pt" height="180pt"
 viewBox="0.00 0.00 419.00 180.00" xmlns="http://www.w3.org/2000/svg" xmlns:xlink="http://www.w3.org/1999/xlink">
<g id="graph0" class="graph" transform="scale(1 1) rotate(0) translate(4 176)">
<title>Vector2::Vector2</title>
<!-- Node1 -->
<g id="node1" class="node">
<title>Node1</title>
<g id="a_node1"><a xlink:title=" ">
<polygon fill="#bfbfbf" stroke="black" points="315,-76.5 315,-95.5 411,-95.5 411,-76.5 315,-76.5"/>
<text text-anchor="middle" x="363" y="-83.5" font-family="Helvetica,sans-Serif" font-size="10.00">Vector2::Vector2</text>
</a>
</g>
</g>
<!-- Node2 -->
<g id="node2" class="node">
<title>Node2</title>
<g id="a_node2"><a xlink:href="classVector2.html#a09d30ae647f4a35a5abd61f14e002126" target="_top" xlink:title=" ">
<polygon fill="none" stroke="black" points="146,-152.5 146,-171.5 279,-171.5 279,-152.5 146,-152.5"/>
<text text-anchor="middle" x="212.5" y="-159.5" font-family="Helvetica,sans-Serif" font-size="10.00">Vector2::GetNormalized</text>
</a>
</g>
</g>
<!-- Node1&#45;&gt;Node2 -->
<g id="edge1" class="edge">
<title>Node1&#45;&gt;Node2</title>
<path fill="none" stroke="midnightblue" d="M342.52,-102.05C326.36,-114.69 302.33,-131.96 279,-143 271.19,-146.7 262.5,-149.83 254.08,-152.42"/>
<polygon fill="midnightblue" stroke="midnightblue" points="345,-104.55 350.63,-95.58 340.64,-99.08 345,-104.55"/>
</g>
<!-- Node4 -->
<g id="node4" class="node">
<title>Node4</title>
<g id="a_node4"><a xlink:href="classVector2.html#a9005f3cabd87e331759a1bbe370a542f" target="_top" xlink:title=" ">
<polygon fill="none" stroke="black" points="159.5,-114.5 159.5,-133.5 265.5,-133.5 265.5,-114.5 159.5,-114.5"/>
<text text-anchor="middle" x="212.5" y="-121.5" font-family="Helvetica,sans-Serif" font-size="10.00">Vector2::operator*</text>
</a>
</g>
</g>
<!-- Node1&#45;&gt;Node4 -->
<g id="edge3" class="edge">
<title>Node1&#45;&gt;Node4</title>
<path fill="none" stroke="midnightblue" d="M314.67,-98.11C293.99,-103.4 270.08,-109.52 250.7,-114.48"/>
<polygon fill="midnightblue" stroke="midnightblue" points="315.71,-101.46 324.53,-95.59 313.97,-94.68 315.71,-101.46"/>
</g>
<!-- Node5 -->
<g id="node5" class="node">
<title>Node5</title>
<g id="a_node5"><a xlink:href="classVector2.html#a38fedb734b38196a3bad5578115cc353" target="_top" xlink:title=" ">
<polygon fill="none" stroke="black" points="158,-76.5 158,-95.5 267,-95.5 267,-76.5 158,-76.5"/>
<text text-anchor="middle" x="212.5" y="-83.5" font-family="Helvetica,sans-Serif" font-size="10.00">Vector2::operator+</text>
</a>
</g>
</g>
<!-- Node1&#45;&gt;Node5 -->
<g id="edge4" class="edge">
<title>Node1&#45;&gt;Node5</title>
<path fill="none" stroke="midnightblue" d="M304.48,-86C292.2,-86 279.28,-86 267.15,-86"/>
<polygon fill="midnightblue" stroke="midnightblue" points="304.61,-89.5 314.61,-86 304.61,-82.5 304.61,-89.5"/>
</g>
<!-- Node6 -->
<g id="node6" class="node">
<title>Node6</title>
<g id="a_node6"><a xlink:href="classVector2.html#aceee2beba2c62006a79861df898994b5" target="_top" xlink:title=" ">
<polygon fill="none" stroke="black" points="160.5,-38.5 160.5,-57.5 264.5,-57.5 264.5,-38.5 160.5,-38.5"/>
<text text-anchor="middle" x="212.5" y="-45.5" font-family="Helvetica,sans-Serif" font-size="10.00">Vector2::operator&#45;</text>
</a>
</g>
</g>
<!-- Node1&#45;&gt;Node6 -->
<g id="edge5" class="edge">
<title>Node1&#45;&gt;Node6</title>
<path fill="none" stroke="midnightblue" d="M314.67,-73.89C293.99,-68.6 270.08,-62.48 250.7,-57.52"/>
<polygon fill="midnightblue" stroke="midnightblue" points="313.97,-77.32 324.53,-76.41 315.71,-70.54 313.97,-77.32"/>
</g>
<!-- Node7 -->
<g id="node7" class="node">
<title>Node7</title>
<g id="a_node7"><a xlink:href="classVector2.html#af0c5cd6dd34ccf30dbd0b6fcdbf450ec" target="_top" xlink:title=" ">
<polygon fill="none" stroke="black" points="160.5,-0.5 160.5,-19.5 264.5,-19.5 264.5,-0.5 160.5,-0.5"/>
<text text-anchor="middle" x="212.5" y="-7.5" font-family="Helvetica,sans-Serif" font-size="10.00">Vector2::operator/</text>
</a>
</g>
</g>
<!-- Node1&#45;&gt;Node7 -->
<g id="edge6" class="edge">
<title>Node1&#45;&gt;Node7</title>
<path fill="none" stroke="midnightblue" d="M342.52,-69.95C326.36,-57.31 302.33,-40.04 279,-29 271.19,-25.3 262.5,-22.17 254.08,-19.58"/>
<polygon fill="midnightblue" stroke="midnightblue" points="340.64,-72.92 350.63,-76.42 345,-67.45 340.64,-72.92"/>
</g>
<!-- Node3 -->
<g id="node3" class="node">
<title>Node3</title>
<g id="a_node3"><a xlink:href="classVector2.html#a1819f7de2632070f87e07f5714d0aa4d" target="_top" xlink:title=" ">
<polygon fill="none" stroke="black" points="0,-152.5 0,-171.5 110,-171.5 110,-152.5 0,-152.5"/>
<text text-anchor="middle" x="55" y="-159.5" font-family="Helvetica,sans-Serif" font-size="10.00">Vector2::Normalize</text>
</a>
</g>
</g>
<!-- Node2&#45;&gt;Node3 -->
<g id="edge2" class="edge">
<title>Node2&#45;&gt;Node3</title>
<path fill="none" stroke="midnightblue" d="M135.3,-162C126.85,-162 118.39,-162 110.29,-162"/>
<polygon fill="midnightblue" stroke="midnightblue" points="135.55,-165.5 145.55,-162 135.55,-158.5 135.55,-165.5"/>
</g>
</g>
</svg>
