<?xml version="1.0" encoding="UTF-8" standalone="no"?>
<!DOCTYPE svg PUBLIC "-//W3C//DTD SVG 1.1//EN"
 "http://www.w3.org/Graphics/SVG/1.1/DTD/svg11.dtd">
<!-- Generated by graphviz version 8.1.0 (20230707.0739)
 -->
<!-- Title: Miniball::Miniball::center Pages: 1 -->
<svg width="385pt" height="41pt"
 viewBox="0.00 0.00 384.50 41.00" xmlns="http://www.w3.org/2000/svg" xmlns:xlink="http://www.w3.org/1999/xlink">
<g id="graph0" class="graph" transform="scale(1 1) rotate(0) translate(4 37)">
<title>Miniball::Miniball::center</title>
<!-- Node1 -->
<g id="node1" class="node">
<title>Node1</title>
<g id="a_node1"><a xlink:title=" ">
<polygon fill="#bfbfbf" stroke="black" points="288.5,-0.5 288.5,-32.5 376.5,-32.5 376.5,-0.5 288.5,-0.5"/>
<text text-anchor="start" x="296.5" y="-19" font-family="Helvetica,sans-Serif" font-size="10.00">Miniball::Miniball</text>
<text text-anchor="middle" x="332.5" y="-7" font-family="Helvetica,sans-Serif" font-size="10.00">::center</text>
</a>
</g>
</g>
<!-- Node2 -->
<g id="node2" class="node">
<title>Node2</title>
<g id="a_node2"><a xlink:href="struct_indexed_triangle_list.html#a3a110d9d42182e60c9ddc17aec47d0db" target="_top" xlink:title=" ">
<polygon fill="none" stroke="black" points="145,-0.5 145,-32.5 252.5,-32.5 252.5,-0.5 145,-0.5"/>
<text text-anchor="start" x="153" y="-19" font-family="Helvetica,sans-Serif" font-size="10.00">IndexedTriangleList</text>
<text text-anchor="middle" x="198.75" y="-7" font-family="Helvetica,sans-Serif" font-size="10.00">::AdjustToTrueCenter</text>
</a>
</g>
</g>
<!-- Node1&#45;&gt;Node2 -->
<g id="edge1" class="edge">
<title>Node1&#45;&gt;Node2</title>
<path fill="none" stroke="midnightblue" d="M277.89,-16.5C269.5,-16.5 260.82,-16.5 252.45,-16.5"/>
<polygon fill="midnightblue" stroke="midnightblue" points="277.72,-20 287.72,-16.5 277.72,-13 277.72,-20"/>
</g>
<!-- Node3 -->
<g id="node3" class="node">
<title>Node3</title>
<g id="a_node3"><a xlink:href="class_geometry_flat_scene.html#a8d8a1a17fcfdea741113bb095eca2eee" target="_top" xlink:title=" ">
<polygon fill="none" stroke="black" points="0,-0.5 0,-32.5 109,-32.5 109,-0.5 0,-0.5"/>
<text text-anchor="start" x="8" y="-19" font-family="Helvetica,sans-Serif" font-size="10.00">GeometryFlatScene::</text>
<text text-anchor="middle" x="54.5" y="-7" font-family="Helvetica,sans-Serif" font-size="10.00">GeometryFlatScene</text>
</a>
</g>
</g>
<!-- Node2&#45;&gt;Node3 -->
<g id="edge2" class="edge">
<title>Node2&#45;&gt;Node3</title>
<path fill="none" stroke="midnightblue" d="M134.45,-16.5C125.89,-16.5 117.17,-16.5 108.8,-16.5"/>
<polygon fill="midnightblue" stroke="midnightblue" points="134.19,-20 144.19,-16.5 134.19,-13 134.19,-20"/>
</g>
</g>
</svg>
