<?xml version="1.0" encoding="UTF-8" standalone="no"?>
<!DOCTYPE svg PUBLIC "-//W3C//DTD SVG 1.1//EN"
 "http://www.w3.org/Graphics/SVG/1.1/DTD/svg11.dtd">
<!-- Generated by graphviz version 8.1.0 (20230707.0739)
 -->
<!-- Title: ZBuffer::Clear Pages: 1 -->
<svg width="388pt" height="158pt"
 viewBox="0.00 0.00 387.50 158.00" xmlns="http://www.w3.org/2000/svg" xmlns:xlink="http://www.w3.org/1999/xlink">
<g id="graph0" class="graph" transform="scale(1 1) rotate(0) translate(4 154)">
<title>ZBuffer::Clear</title>
<!-- Node1 -->
<g id="node1" class="node">
<title>Node1</title>
<g id="a_node1"><a xlink:title=" ">
<polygon fill="#bfbfbf" stroke="black" points="305,-67.5 305,-87.5 379.5,-87.5 379.5,-67.5 305,-67.5"/>
<text text-anchor="middle" x="342.25" y="-74" font-family="Helvetica,sans-Serif" font-size="10.00">ZBuffer::Clear</text>
</a>
</g>
</g>
<!-- Node2 -->
<g id="node2" class="node">
<title>Node2</title>
<g id="a_node2"><a xlink:href="class_pipeline.html#adf2322f3b604145324fe70fd45266b46" target="_top" xlink:title=" ">
<polygon fill="none" stroke="black" points="160,-67.5 160,-87.5 269,-87.5 269,-67.5 160,-67.5"/>
<text text-anchor="middle" x="214.5" y="-74" font-family="Helvetica,sans-Serif" font-size="10.00">Pipeline::BeginFrame</text>
</a>
</g>
</g>
<!-- Node1&#45;&gt;Node2 -->
<g id="edge1" class="edge">
<title>Node1&#45;&gt;Node2</title>
<path fill="none" stroke="midnightblue" d="M294.24,-77.5C285.97,-77.5 277.31,-77.5 268.88,-77.5"/>
<polygon fill="midnightblue" stroke="midnightblue" points="294.22,-81 304.22,-77.5 294.22,-74 294.22,-81"/>
</g>
<!-- Node3 -->
<g id="node3" class="node">
<title>Node3</title>
<g id="a_node3"><a xlink:href="class_cube_skin_scene.html#a48b277a1b41049e40ea70d90aa186627" target="_top" xlink:title=" ">
<polygon fill="none" stroke="black" points="5.25,-129.5 5.25,-149.5 118.75,-149.5 118.75,-129.5 5.25,-129.5"/>
<text text-anchor="middle" x="62" y="-136" font-family="Helvetica,sans-Serif" font-size="10.00">CubeSkinScene::Draw</text>
</a>
</g>
</g>
<!-- Node2&#45;&gt;Node3 -->
<g id="edge2" class="edge">
<title>Node2&#45;&gt;Node3</title>
<path fill="none" stroke="midnightblue" d="M185.45,-92.28C168.04,-101.12 145.05,-112.22 124,-120.5 115.74,-123.75 106.69,-126.82 98.14,-129.51"/>
<polygon fill="midnightblue" stroke="midnightblue" points="186.7,-95.06 194,-87.37 183.5,-88.83 186.7,-95.06"/>
</g>
<!-- Node4 -->
<g id="node4" class="node">
<title>Node4</title>
<g id="a_node4"><a xlink:href="class_cube_solid_scene.html#a889dfe03da33047374c1eb2291d5596e" target="_top" xlink:title=" ">
<polygon fill="none" stroke="black" points="4.12,-90.5 4.12,-110.5 119.88,-110.5 119.88,-90.5 4.12,-90.5"/>
<text text-anchor="middle" x="62" y="-97" font-family="Helvetica,sans-Serif" font-size="10.00">CubeSolidScene::Draw</text>
</a>
</g>
</g>
<!-- Node2&#45;&gt;Node4 -->
<g id="edge3" class="edge">
<title>Node2&#45;&gt;Node4</title>
<path fill="none" stroke="midnightblue" d="M149.41,-87.29C139.51,-88.81 129.35,-90.36 119.62,-91.85"/>
<polygon fill="midnightblue" stroke="midnightblue" points="149.66,-90.64 159.02,-85.67 148.6,-83.72 149.66,-90.64"/>
</g>
<!-- Node5 -->
<g id="node5" class="node">
<title>Node5</title>
<g id="a_node5"><a xlink:href="class_cube_vertex_color_scene.html#ad2934096c9527e9dbb8cdcb9f8a45f80" target="_top" xlink:title=" ">
<polygon fill="none" stroke="black" points="3.38,-39.5 3.38,-71.5 120.62,-71.5 120.62,-39.5 3.38,-39.5"/>
<text text-anchor="start" x="11.38" y="-58" font-family="Helvetica,sans-Serif" font-size="10.00">CubeVertexColorScene</text>
<text text-anchor="middle" x="62" y="-46" font-family="Helvetica,sans-Serif" font-size="10.00">::Draw</text>
</a>
</g>
</g>
<!-- Node2&#45;&gt;Node5 -->
<g id="edge4" class="edge">
<title>Node2&#45;&gt;Node5</title>
<path fill="none" stroke="midnightblue" d="M149.31,-68.12C139.7,-66.71 129.85,-65.27 120.39,-63.89"/>
<polygon fill="midnightblue" stroke="midnightblue" points="148.61,-71.7 159.02,-69.68 149.63,-64.77 148.61,-71.7"/>
</g>
<!-- Node6 -->
<g id="node6" class="node">
<title>Node6</title>
<g id="a_node6"><a xlink:href="class_double_cube_scene.html#a2f87358aaf1a53d1401ec11598d1eaa0" target="_top" xlink:title=" ">
<polygon fill="none" stroke="black" points="0,-0.5 0,-20.5 124,-20.5 124,-0.5 0,-0.5"/>
<text text-anchor="middle" x="62" y="-7" font-family="Helvetica,sans-Serif" font-size="10.00">DoubleCubeScene::Draw</text>
</a>
</g>
</g>
<!-- Node2&#45;&gt;Node6 -->
<g id="edge5" class="edge">
<title>Node2&#45;&gt;Node6</title>
<path fill="none" stroke="midnightblue" d="M187.21,-62.2C169.66,-52.37 145.89,-39.76 124,-30.5 115.28,-26.81 105.62,-23.36 96.61,-20.41"/>
<polygon fill="midnightblue" stroke="midnightblue" points="185.33,-65.73 195.75,-67.62 188.78,-59.64 185.33,-65.73"/>
</g>
</g>
</svg>
