<?xml version="1.0" encoding="UTF-8" standalone="no"?>
<!DOCTYPE svg PUBLIC "-//W3C//DTD SVG 1.1//EN"
 "http://www.w3.org/Graphics/SVG/1.1/DTD/svg11.dtd">
<!-- Generated by graphviz version 8.1.0 (20230707.0739)
 -->
<!-- Title: FoldedCubeWrapScene::Update Pages: 1 -->
<svg width="287pt" height="68pt"
 viewBox="0.00 0.00 286.75 68.00" xmlns="http://www.w3.org/2000/svg" xmlns:xlink="http://www.w3.org/1999/xlink">
<g id="graph0" class="graph" transform="scale(1 1) rotate(0) translate(4 64)">
<title>FoldedCubeWrapScene::Update</title>
<!-- Node1 -->
<g id="node1" class="node">
<title>Node1</title>
<g id="a_node1"><a xlink:title=" ">
<polygon fill="#bfbfbf" stroke="black" points="0,-13.5 0,-45.5 118.75,-45.5 118.75,-13.5 0,-13.5"/>
<text text-anchor="start" x="8" y="-32" font-family="Helvetica,sans-Serif" font-size="10.00">FoldedCubeWrapScene</text>
<text text-anchor="middle" x="59.38" y="-20" font-family="Helvetica,sans-Serif" font-size="10.00">::Update</text>
</a>
</g>
</g>
<!-- Node2 -->
<g id="node2" class="node">
<title>Node2</title>
<g id="a_node2"><a xlink:href="class_keyboard.html#a7b11ba07982539a0dd9b16b4706e7211" target="_top" xlink:title=" ">
<polygon fill="none" stroke="black" points="154.75,-39.5 154.75,-59.5 278.75,-59.5 278.75,-39.5 154.75,-39.5"/>
<text text-anchor="middle" x="216.75" y="-46" font-family="Helvetica,sans-Serif" font-size="10.00">Keyboard::KeyIsPressed</text>
</a>
</g>
</g>
<!-- Node1&#45;&gt;Node2 -->
<g id="edge1" class="edge">
<title>Node1&#45;&gt;Node2</title>
<path fill="none" stroke="midnightblue" d="M118.67,-37C126.97,-38.07 135.58,-39.18 144.09,-40.28"/>
<polygon fill="midnightblue" stroke="midnightblue" points="143.43,-43.85 153.79,-41.65 144.32,-36.91 143.43,-43.85"/>
</g>
<!-- Node3 -->
<g id="node3" class="node">
<title>Node3</title>
<g id="a_node3"><a xlink:href="namespace_math.html#a5bf97cccfc70f0c8b750396c70127573" target="_top" xlink:title=" ">
<polygon fill="none" stroke="black" points="172.38,-0.5 172.38,-20.5 261.12,-20.5 261.12,-0.5 172.38,-0.5"/>
<text text-anchor="middle" x="216.75" y="-7" font-family="Helvetica,sans-Serif" font-size="10.00">Math::wrapAngle</text>
</a>
</g>
</g>
<!-- Node1&#45;&gt;Node3 -->
<g id="edge2" class="edge">
<title>Node1&#45;&gt;Node3</title>
<path fill="none" stroke="midnightblue" d="M118.67,-22.37C132.81,-20.64 147.85,-18.8 161.78,-17.1"/>
<polygon fill="midnightblue" stroke="midnightblue" points="162.16,-20.46 171.66,-15.77 161.31,-13.51 162.16,-20.46"/>
</g>
</g>
</svg>
