<?xml version="1.0" encoding="UTF-8" standalone="no"?>
<!DOCTYPE svg PUBLIC "-//W3C//DTD SVG 1.1//EN"
 "http://www.w3.org/Graphics/SVG/1.1/DTD/svg11.dtd">
<!-- Generated by graphviz version 8.1.0 (20230707.0739)
 -->
<!-- Title: Keyboard::KeyIsPressed Pages: 1 -->
<svg width="394pt" height="338pt"
 viewBox="0.00 0.00 393.50 338.00" xmlns="http://www.w3.org/2000/svg" xmlns:xlink="http://www.w3.org/1999/xlink">
<g id="graph0" class="graph" transform="scale(1 1) rotate(0) translate(4 334)">
<title>Keyboard::KeyIsPressed</title>
<!-- Node1 -->
<g id="node1" class="node">
<title>Node1</title>
<g id="a_node1"><a xlink:title=" ">
<polygon fill="#bfbfbf" stroke="black" points="261.5,-148.5 261.5,-168.5 385.5,-168.5 385.5,-148.5 261.5,-148.5"/>
<text text-anchor="middle" x="323.5" y="-155" font-family="Helvetica,sans-Serif" font-size="10.00">Keyboard::KeyIsPressed</text>
</a>
</g>
</g>
<!-- Node2 -->
<g id="node2" class="node">
<title>Node2</title>
<g id="a_node2"><a xlink:href="class_cube_skin_scene.html#a291519be4aae4268c5b6cdb4b9fc864a" target="_top" xlink:title=" ">
<polygon fill="none" stroke="black" points="88,-309.5 88,-329.5 210.5,-329.5 210.5,-309.5 88,-309.5"/>
<text text-anchor="middle" x="149.25" y="-316" font-family="Helvetica,sans-Serif" font-size="10.00">CubeSkinScene::Update</text>
</a>
</g>
</g>
<!-- Node1&#45;&gt;Node2 -->
<g id="edge1" class="edge">
<title>Node1&#45;&gt;Node2</title>
<path fill="none" stroke="midnightblue" d="M314.57,-178.24C301.07,-209.22 270.63,-268.99 225.5,-300.5 220.2,-304.2 214.24,-307.18 208.05,-309.59"/>
<polygon fill="midnightblue" stroke="midnightblue" points="318.12,-179.8 318.77,-169.23 311.67,-177.09 318.12,-179.8"/>
</g>
<!-- Node3 -->
<g id="node3" class="node">
<title>Node3</title>
<g id="a_node3"><a xlink:href="class_cube_solid_geometry_scene.html#a4501743d912f6818f264525e806f4f8b" target="_top" xlink:title=" ">
<polygon fill="none" stroke="black" points="83.88,-258.5 83.88,-290.5 214.62,-290.5 214.62,-258.5 83.88,-258.5"/>
<text text-anchor="start" x="91.88" y="-277" font-family="Helvetica,sans-Serif" font-size="10.00">CubeSolidGeometryScene</text>
<text text-anchor="middle" x="149.25" y="-265" font-family="Helvetica,sans-Serif" font-size="10.00">::Update</text>
</a>
</g>
</g>
<!-- Node1&#45;&gt;Node3 -->
<g id="edge2" class="edge">
<title>Node1&#45;&gt;Node3</title>
<path fill="none" stroke="midnightblue" d="M307.57,-176.6C289.91,-196.96 258.68,-229.74 225.5,-249.5 219.82,-252.88 213.63,-255.87 207.31,-258.5"/>
<polygon fill="midnightblue" stroke="midnightblue" points="310.68,-179.35 314.49,-169.47 305.34,-174.82 310.68,-179.35"/>
</g>
<!-- Node4 -->
<g id="node4" class="node">
<title>Node4</title>
<g id="a_node4"><a xlink:href="class_cube_solid_scene.html#a2c58f00b9630b056326c6d753e535fdf" target="_top" xlink:title=" ">
<polygon fill="none" stroke="black" points="86.88,-219.5 86.88,-239.5 211.62,-239.5 211.62,-219.5 86.88,-219.5"/>
<text text-anchor="middle" x="149.25" y="-226" font-family="Helvetica,sans-Serif" font-size="10.00">CubeSolidScene::Update</text>
</a>
</g>
</g>
<!-- Node1&#45;&gt;Node4 -->
<g id="edge3" class="edge">
<title>Node1&#45;&gt;Node4</title>
<path fill="none" stroke="midnightblue" d="M297.74,-173.96C278.61,-185.37 251.14,-200.56 225.5,-210.5 216.45,-214.01 206.54,-217.04 196.97,-219.6"/>
<polygon fill="midnightblue" stroke="midnightblue" points="299.2,-176.57 305.94,-168.39 295.57,-170.58 299.2,-176.57"/>
</g>
<!-- Node5 -->
<g id="node5" class="node">
<title>Node5</title>
<g id="a_node5"><a xlink:href="class_cube_vertex_color_scene.html#aa27efa84023993c57c5b32497dc6aca3" target="_top" xlink:title=" ">
<polygon fill="none" stroke="black" points="90.62,-168.5 90.62,-200.5 207.88,-200.5 207.88,-168.5 90.62,-168.5"/>
<text text-anchor="start" x="98.62" y="-187" font-family="Helvetica,sans-Serif" font-size="10.00">CubeVertexColorScene</text>
<text text-anchor="middle" x="149.25" y="-175" font-family="Helvetica,sans-Serif" font-size="10.00">::Update</text>
</a>
</g>
</g>
<!-- Node1&#45;&gt;Node5 -->
<g id="edge4" class="edge">
<title>Node1&#45;&gt;Node5</title>
<path fill="none" stroke="midnightblue" d="M250.92,-169.3C236.56,-171.47 221.65,-173.72 207.83,-175.81"/>
<polygon fill="midnightblue" stroke="midnightblue" points="251.41,-172.62 260.77,-167.67 250.36,-165.7 251.41,-172.62"/>
</g>
<!-- Node6 -->
<g id="node6" class="node">
<title>Node6</title>
<g id="a_node6"><a xlink:href="class_cube_vertex_position_color_scene.html#a72ce3d23605de3262f97e8e935bd08e0" target="_top" xlink:title=" ">
<polygon fill="none" stroke="black" points="73,-117.5 73,-149.5 225.5,-149.5 225.5,-117.5 73,-117.5"/>
<text text-anchor="start" x="81" y="-136" font-family="Helvetica,sans-Serif" font-size="10.00">CubeVertexPositionColorScene</text>
<text text-anchor="middle" x="149.25" y="-124" font-family="Helvetica,sans-Serif" font-size="10.00">::Update</text>
</a>
</g>
</g>
<!-- Node1&#45;&gt;Node6 -->
<g id="edge5" class="edge">
<title>Node1&#45;&gt;Node6</title>
<path fill="none" stroke="midnightblue" d="M251.09,-148.14C242.55,-146.9 233.81,-145.63 225.22,-144.38"/>
<polygon fill="midnightblue" stroke="midnightblue" points="250.37,-151.71 260.77,-149.69 251.38,-144.79 250.37,-151.71"/>
</g>
<!-- Node7 -->
<g id="node7" class="node">
<title>Node7</title>
<g id="a_node7"><a xlink:href="class_double_cube_scene.html#aa0b545717ab49ff4b4726d15bb8917bb" target="_top" xlink:title=" ">
<polygon fill="none" stroke="black" points="82.75,-78.5 82.75,-98.5 215.75,-98.5 215.75,-78.5 82.75,-78.5"/>
<text text-anchor="middle" x="149.25" y="-85" font-family="Helvetica,sans-Serif" font-size="10.00">DoubleCubeScene::Update</text>
</a>
</g>
</g>
<!-- Node1&#45;&gt;Node7 -->
<g id="edge6" class="edge">
<title>Node1&#45;&gt;Node7</title>
<path fill="none" stroke="midnightblue" d="M296.68,-143.24C277.53,-132.41 250.53,-118.14 225.5,-108.5 215.54,-104.66 204.55,-101.28 194.13,-98.45"/>
<polygon fill="midnightblue" stroke="midnightblue" points="294.77,-146.75 305.18,-148.7 298.26,-140.68 294.77,-146.75"/>
</g>
<!-- Node8 -->
<g id="node8" class="node">
<title>Node8</title>
<g id="a_node8"><a xlink:href="class_vertex_wave_scene.html#af914c4150ebb8c531dd5f14c62854e7e" target="_top" xlink:title=" ">
<polygon fill="none" stroke="black" points="82.75,-39.5 82.75,-59.5 215.75,-59.5 215.75,-39.5 82.75,-39.5"/>
<text text-anchor="middle" x="149.25" y="-46" font-family="Helvetica,sans-Serif" font-size="10.00">VertexWaveScene::Update</text>
</a>
</g>
</g>
<!-- Node1&#45;&gt;Node8 -->
<g id="edge7" class="edge">
<title>Node1&#45;&gt;Node8</title>
<path fill="none" stroke="midnightblue" d="M307.46,-140.17C289.87,-119.93 258.87,-87.78 225.5,-69.5 218.03,-65.41 209.68,-62.12 201.34,-59.49"/>
<polygon fill="midnightblue" stroke="midnightblue" points="305.42,-142.18 314.56,-147.55 310.76,-137.66 305.42,-142.18"/>
</g>
<!-- Node9 -->
<g id="node9" class="node">
<title>Node9</title>
<g id="a_node9"><a xlink:href="class_engine.html#a56cc30926ee112fbf83bfa4083d3af79" target="_top" xlink:title=" ">
<polygon fill="none" stroke="black" points="94.75,-0.5 94.75,-20.5 203.75,-20.5 203.75,-0.5 94.75,-0.5"/>
<text text-anchor="middle" x="149.25" y="-7" font-family="Helvetica,sans-Serif" font-size="10.00">Engine::UpdateModel</text>
</a>
</g>
</g>
<!-- Node1&#45;&gt;Node9 -->
<g id="edge8" class="edge">
<title>Node1&#45;&gt;Node9</title>
<path fill="none" stroke="midnightblue" d="M313.17,-139.17C298.51,-110.9 267.38,-58.6 225.5,-30.5 218.88,-26.06 211.31,-22.6 203.59,-19.91"/>
<polygon fill="midnightblue" stroke="midnightblue" points="310.35,-140.36 317.97,-147.72 316.6,-137.22 310.35,-140.36"/>
</g>
<!-- Node10 -->
<g id="node10" class="node">
<title>Node10</title>
<g id="a_node10"><a xlink:href="_main_8cpp.html#a0ddf1224851353fc92bfbff6f499fa97" target="_top" xlink:title=" ">
<polygon fill="none" stroke="black" points="0,-0.5 0,-20.5 37,-20.5 37,-0.5 0,-0.5"/>
<text text-anchor="middle" x="18.5" y="-7" font-family="Helvetica,sans-Serif" font-size="10.00">main</text>
</a>
</g>
</g>
<!-- Node9&#45;&gt;Node10 -->
<g id="edge9" class="edge">
<title>Node9&#45;&gt;Node10</title>
<path fill="none" stroke="midnightblue" d="M83.99,-10.5C66.6,-10.5 49.2,-10.5 36.87,-10.5"/>
<polygon fill="midnightblue" stroke="midnightblue" points="83.77,-14 93.77,-10.5 83.77,-7 83.77,-14"/>
</g>
</g>
</svg>
