<?xml version="1.0" encoding="UTF-8" standalone="no"?>
<!DOCTYPE svg PUBLIC "-//W3C//DTD SVG 1.1//EN"
 "http://www.w3.org/Graphics/SVG/1.1/DTD/svg11.dtd">
<!-- Generated by graphviz version 8.1.0 (20230707.0739)
 -->
<!-- Title: Graphics::EndFrame Pages: 1 -->
<svg width="239pt" height="68pt"
 viewBox="0.00 0.00 238.75 68.00" xmlns="http://www.w3.org/2000/svg" xmlns:xlink="http://www.w3.org/1999/xlink">
<g id="graph0" class="graph" transform="scale(1 1) rotate(0) translate(4 64)">
<title>Graphics::EndFrame</title>
<!-- Node1 -->
<g id="node1" class="node">
<title>Node1</title>
<g id="a_node1"><a xlink:title=" ">
<polygon fill="#bfbfbf" stroke="black" points="0,-19.5 0,-39.5 106,-39.5 106,-19.5 0,-19.5"/>
<text text-anchor="middle" x="53" y="-26" font-family="Helvetica,sans-Serif" font-size="10.00">Graphics::EndFrame</text>
</a>
</g>
</g>
<!-- Node2 -->
<g id="node2" class="node">
<title>Node2</title>
<g id="a_node2"><a xlink:href="namespace_math.html#a77174619219856c2fc6959ec7a269c60" target="_top" xlink:title=" ">
<polygon fill="none" stroke="black" points="155.12,-39.5 155.12,-59.5 217.62,-59.5 217.62,-39.5 155.12,-39.5"/>
<text text-anchor="middle" x="186.38" y="-46" font-family="Helvetica,sans-Serif" font-size="10.00">Math::Map</text>
</a>
</g>
</g>
<!-- Node1&#45;&gt;Node2 -->
<g id="edge1" class="edge">
<title>Node1&#45;&gt;Node2</title>
<path fill="none" stroke="midnightblue" d="M105.92,-37.4C118.77,-39.36 132.36,-41.43 144.59,-43.29"/>
<polygon fill="midnightblue" stroke="midnightblue" points="143.97,-46.89 154.38,-44.93 145.02,-39.97 143.97,-46.89"/>
</g>
<!-- Node3 -->
<g id="node3" class="node">
<title>Node3</title>
<g id="a_node3"><a xlink:href="class_surface.html#ac85ddc42d6bb5ab0aebeaf40c8b62b6a" target="_top" xlink:title=" ">
<polygon fill="none" stroke="black" points="142,-0.5 142,-20.5 230.75,-20.5 230.75,-0.5 142,-0.5"/>
<text text-anchor="middle" x="186.38" y="-7" font-family="Helvetica,sans-Serif" font-size="10.00">Surface::Present</text>
</a>
</g>
</g>
<!-- Node1&#45;&gt;Node3 -->
<g id="edge2" class="edge">
<title>Node1&#45;&gt;Node3</title>
<path fill="none" stroke="midnightblue" d="M105.92,-21.99C114.3,-20.78 122.99,-19.52 131.42,-18.3"/>
<polygon fill="midnightblue" stroke="midnightblue" points="131.89,-21.63 141.29,-16.73 130.89,-14.7 131.89,-21.63"/>
</g>
</g>
</svg>
