<?xml version="1.0" encoding="UTF-8" standalone="no"?>
<!DOCTYPE svg PUBLIC "-//W3C//DTD SVG 1.1//EN"
 "http://www.w3.org/Graphics/SVG/1.1/DTD/svg11.dtd">
<!-- Generated by graphviz version 8.1.0 (20230707.0739)
 -->
<!-- Title: FoldedCubeScene::Draw Pages: 1 -->
<svg width="586pt" height="311pt"
 viewBox="0.00 0.00 585.75 311.00" xmlns="http://www.w3.org/2000/svg" xmlns:xlink="http://www.w3.org/1999/xlink">
<g id="graph0" class="graph" transform="scale(1 1) rotate(0) translate(4 307)">
<title>FoldedCubeScene::Draw</title>
<!-- Node1 -->
<g id="node1" class="node">
<title>Node1</title>
<g id="a_node1"><a xlink:title=" ">
<polygon fill="#bfbfbf" stroke="black" points="0,-129.5 0,-149.5 123.25,-149.5 123.25,-129.5 0,-129.5"/>
<text text-anchor="middle" x="61.62" y="-136" font-family="Helvetica,sans-Serif" font-size="10.00">FoldedCubeScene::Draw</text>
</a>
</g>
</g>
<!-- Node2 -->
<g id="node2" class="node">
<title>Node2</title>
<g id="a_node2"><a xlink:href="class_matrix3.html#a3672400f647456083337d53db6478505" target="_top" xlink:title=" ">
<polygon fill="none" stroke="black" points="172.75,-270.5 172.75,-302.5 296.75,-302.5 296.75,-270.5 172.75,-270.5"/>
<text text-anchor="start" x="180.75" y="-289" font-family="Helvetica,sans-Serif" font-size="10.00">Matrix3::CreateXRotation</text>
<text text-anchor="middle" x="234.75" y="-277" font-family="Helvetica,sans-Serif" font-size="10.00">Matrix</text>
</a>
</g>
</g>
<!-- Node1&#45;&gt;Node2 -->
<g id="edge1" class="edge">
<title>Node1&#45;&gt;Node2</title>
<path fill="none" stroke="midnightblue" d="M67.75,-149.31C80.25,-172.31 114.59,-230.13 159.25,-261.5 161.25,-262.9 163.33,-264.23 165.47,-265.49"/>
<polygon fill="midnightblue" stroke="midnightblue" points="163.72,-269.04 174.2,-270.56 166.95,-262.83 163.72,-269.04"/>
</g>
<!-- Node3 -->
<g id="node3" class="node">
<title>Node3</title>
<g id="a_node3"><a xlink:href="class_matrix3.html#ae2e635e8fc49db308a95dde2a5518bbc" target="_top" xlink:title=" ">
<polygon fill="none" stroke="black" points="172,-219.5 172,-251.5 297.5,-251.5 297.5,-219.5 172,-219.5"/>
<text text-anchor="start" x="180" y="-238" font-family="Helvetica,sans-Serif" font-size="10.00">Matrix3::CreateYRotation</text>
<text text-anchor="middle" x="234.75" y="-226" font-family="Helvetica,sans-Serif" font-size="10.00">Matrix</text>
</a>
</g>
</g>
<!-- Node1&#45;&gt;Node3 -->
<g id="edge2" class="edge">
<title>Node1&#45;&gt;Node3</title>
<path fill="none" stroke="midnightblue" d="M73.75,-149.49C90.97,-164.52 125.62,-193.05 159.25,-210.5 162.56,-212.22 166.01,-213.85 169.54,-215.4"/>
<polygon fill="midnightblue" stroke="midnightblue" points="168.03,-218.98 178.61,-219.55 170.7,-212.51 168.03,-218.98"/>
</g>
<!-- Node4 -->
<g id="node4" class="node">
<title>Node4</title>
<g id="a_node4"><a xlink:href="class_matrix3.html#a7b88435a5d6c183b5b46efa2b6dbcb3a" target="_top" xlink:title=" ">
<polygon fill="none" stroke="black" points="172.75,-168.5 172.75,-200.5 296.75,-200.5 296.75,-168.5 172.75,-168.5"/>
<text text-anchor="start" x="180.75" y="-187" font-family="Helvetica,sans-Serif" font-size="10.00">Matrix3::CreateZRotation</text>
<text text-anchor="middle" x="234.75" y="-175" font-family="Helvetica,sans-Serif" font-size="10.00">Matrix</text>
</a>
</g>
</g>
<!-- Node1&#45;&gt;Node4 -->
<g id="edge3" class="edge">
<title>Node1&#45;&gt;Node4</title>
<path fill="none" stroke="midnightblue" d="M100.6,-149.49C118.8,-154.27 141.2,-160.16 162.41,-165.74"/>
<polygon fill="midnightblue" stroke="midnightblue" points="161.46,-169.37 172.03,-168.53 163.25,-162.6 161.46,-169.37"/>
</g>
<!-- Node5 -->
<g id="node5" class="node">
<title>Node5</title>
<g id="a_node5"><a xlink:href="class_vector3.html#af6770ab3b9092e848317aaf6e7d77803" target="_top" xlink:title=" ">
<polygon fill="none" stroke="black" points="159.25,-129.5 159.25,-149.5 310.25,-149.5 310.25,-129.5 159.25,-129.5"/>
<text text-anchor="middle" x="234.75" y="-136" font-family="Helvetica,sans-Serif" font-size="10.00">Vector3&lt; float &gt;::CrossProduct</text>
</a>
</g>
</g>
<!-- Node1&#45;&gt;Node5 -->
<g id="edge4" class="edge">
<title>Node1&#45;&gt;Node5</title>
<path fill="none" stroke="midnightblue" d="M122.96,-139.5C131.21,-139.5 139.81,-139.5 148.41,-139.5"/>
<polygon fill="midnightblue" stroke="midnightblue" points="148.27,-143 158.27,-139.5 148.27,-136 148.27,-143"/>
</g>
<!-- Node6 -->
<g id="node6" class="node">
<title>Node6</title>
<g id="a_node6"><a xlink:href="class_graphics.html#a177d7de69de04edd682cc023bc1e16c9" target="_top" xlink:title=" ">
<polygon fill="none" stroke="black" points="168.62,-90.5 168.62,-110.5 300.88,-110.5 300.88,-90.5 168.62,-90.5"/>
<text text-anchor="middle" x="234.75" y="-97" font-family="Helvetica,sans-Serif" font-size="10.00">Graphics::DrawTriangleTex</text>
</a>
</g>
</g>
<!-- Node1&#45;&gt;Node6 -->
<g id="edge5" class="edge">
<title>Node1&#45;&gt;Node6</title>
<path fill="none" stroke="midnightblue" d="M106.25,-129.56C128.49,-124.49 155.75,-118.28 179.35,-112.9"/>
<polygon fill="midnightblue" stroke="midnightblue" points="179.94,-116.13 188.91,-110.49 178.38,-109.3 179.94,-116.13"/>
</g>
<!-- Node10 -->
<g id="node10" class="node">
<title>Node10</title>
<g id="a_node10"><a xlink:href="class_cube_folded.html#aca6382d16157505a3e7d1c64fb573bb8" target="_top" xlink:title=" ">
<polygon fill="none" stroke="black" points="162.62,-51.5 162.62,-71.5 306.88,-71.5 306.88,-51.5 162.62,-51.5"/>
<text text-anchor="middle" x="234.75" y="-58" font-family="Helvetica,sans-Serif" font-size="10.00">CubeFolded::GetTrianglesTex</text>
</a>
</g>
</g>
<!-- Node1&#45;&gt;Node10 -->
<g id="edge9" class="edge">
<title>Node1&#45;&gt;Node10</title>
<path fill="none" stroke="midnightblue" d="M76.37,-129.55C94.54,-116.82 127.91,-94.8 159.25,-81.5 165.32,-78.92 171.81,-76.6 178.33,-74.53"/>
<polygon fill="midnightblue" stroke="midnightblue" points="178.97,-77.69 187.55,-71.47 176.97,-70.98 178.97,-77.69"/>
</g>
<!-- Node11 -->
<g id="node11" class="node">
<title>Node11</title>
<g id="a_node11"><a xlink:href="class_pube_screen_transformer.html#a1cdbac114c52bfc52aaec9da0e68b5a0" target="_top" xlink:title=" ">
<polygon fill="none" stroke="black" points="174.62,-0.5 174.62,-32.5 294.88,-32.5 294.88,-0.5 174.62,-0.5"/>
<text text-anchor="start" x="182.62" y="-19" font-family="Helvetica,sans-Serif" font-size="10.00">PubeScreenTransformer</text>
<text text-anchor="middle" x="234.75" y="-7" font-family="Helvetica,sans-Serif" font-size="10.00">::Transform</text>
</a>
</g>
</g>
<!-- Node1&#45;&gt;Node11 -->
<g id="edge10" class="edge">
<title>Node1&#45;&gt;Node11</title>
<path fill="none" stroke="midnightblue" d="M70.01,-129.51C84.85,-110.1 120.22,-67.06 159.25,-42.5 162.36,-40.54 165.63,-38.71 169.01,-37"/>
<polygon fill="midnightblue" stroke="midnightblue" points="170.12,-39.88 177.71,-32.49 167.17,-33.53 170.12,-39.88"/>
</g>
<!-- Node7 -->
<g id="node7" class="node">
<title>Node7</title>
<g id="a_node7"><a xlink:href="class_tex_vertex.html#a95d346af8d4fb15e8ac3167552f40de8" target="_top" xlink:title=" ">
<polygon fill="none" stroke="black" points="346.25,-90.5 346.25,-110.5 431.25,-110.5 431.25,-90.5 346.25,-90.5"/>
<text text-anchor="middle" x="388.75" y="-97" font-family="Helvetica,sans-Serif" font-size="10.00">TexVertex::Lerp</text>
</a>
</g>
</g>
<!-- Node6&#45;&gt;Node7 -->
<g id="edge6" class="edge">
<title>Node6&#45;&gt;Node7</title>
<path fill="none" stroke="midnightblue" d="M300.65,-100.5C312.27,-100.5 324.24,-100.5 335.45,-100.5"/>
<polygon fill="midnightblue" stroke="midnightblue" points="335.37,-104 345.37,-100.5 335.37,-97 335.37,-104"/>
</g>
<!-- Node8 -->
<g id="node8" class="node">
<title>Node8</title>
<g id="a_node8"><a xlink:href="class_vector2.html#aa1432a83c17f78b496bcad76a41c27af" target="_top" xlink:title=" ">
<polygon fill="none" stroke="black" points="467.25,-110.5 467.25,-130.5 577.75,-130.5 577.75,-110.5 467.25,-110.5"/>
<text text-anchor="middle" x="522.5" y="-117" font-family="Helvetica,sans-Serif" font-size="10.00">Vector2&lt; float &gt;::Lerp</text>
</a>
</g>
</g>
<!-- Node7&#45;&gt;Node8 -->
<g id="edge7" class="edge">
<title>Node7&#45;&gt;Node8</title>
<path fill="none" stroke="midnightblue" d="M431.08,-106.77C439.14,-108 447.78,-109.31 456.4,-110.62"/>
<polygon fill="midnightblue" stroke="midnightblue" points="455.85,-114.23 466.26,-112.27 456.9,-107.31 455.85,-114.23"/>
</g>
<!-- Node9 -->
<g id="node9" class="node">
<title>Node9</title>
<g id="a_node9"><a xlink:href="class_vector3.html#a81b5c061ed2ace3d514b2037d299b64a" target="_top" xlink:title=" ">
<polygon fill="none" stroke="black" points="467.25,-71.5 467.25,-91.5 577.75,-91.5 577.75,-71.5 467.25,-71.5"/>
<text text-anchor="middle" x="522.5" y="-78" font-family="Helvetica,sans-Serif" font-size="10.00">Vector3&lt; float &gt;::Lerp</text>
</a>
</g>
</g>
<!-- Node7&#45;&gt;Node9 -->
<g id="edge8" class="edge">
<title>Node7&#45;&gt;Node9</title>
<path fill="none" stroke="midnightblue" d="M431.08,-94.54C439.14,-93.38 447.78,-92.13 456.4,-90.89"/>
<polygon fill="midnightblue" stroke="midnightblue" points="456.87,-94.21 466.26,-89.32 455.87,-87.28 456.87,-94.21"/>
</g>
</g>
</svg>
