<?xml version="1.0" encoding="UTF-8" standalone="no"?>
<!DOCTYPE svg PUBLIC "-//W3C//DTD SVG 1.1//EN"
 "http://www.w3.org/Graphics/SVG/1.1/DTD/svg11.dtd">
<!-- Generated by graphviz version 2.43.0 (0)
 -->
<!-- Title: TextureEffect::Vertex::Vertex Pages: 1 -->
<svg width="280pt" height="186pt"
 viewBox="0.00 0.00 280.00 186.00" xmlns="http://www.w3.org/2000/svg" xmlns:xlink="http://www.w3.org/1999/xlink">
<g id="graph0" class="graph" transform="scale(1 1) rotate(0) translate(4 182)">
<title>TextureEffect::Vertex::Vertex</title>
<!-- Node1 -->
<g id="node1" class="node">
<title>Node1</title>
<g id="a_node1"><a xlink:title=" ">
<polygon fill="#bfbfbf" stroke="black" points="154,-73.5 154,-103.5 272,-103.5 272,-73.5 154,-73.5"/>
<text text-anchor="start" x="162" y="-91.5" font-family="Helvetica,sans-Serif" font-size="10.00">TextureEffect::Vertex</text>
<text text-anchor="middle" x="213" y="-80.5" font-family="Helvetica,sans-Serif" font-size="10.00">::Vertex</text>
</a>
</g>
</g>
<!-- Node2 -->
<g id="node2" class="node">
<title>Node2</title>
<g id="a_node2"><a xlink:href="classTextureEffect_1_1Vertex.html#af63ce4953444cf8d3b8f75a49b99b745" target="_top" xlink:title=" ">
<polygon fill="none" stroke="black" points="0,-147.5 0,-177.5 118,-177.5 118,-147.5 0,-147.5"/>
<text text-anchor="start" x="8" y="-165.5" font-family="Helvetica,sans-Serif" font-size="10.00">TextureEffect::Vertex</text>
<text text-anchor="middle" x="59" y="-154.5" font-family="Helvetica,sans-Serif" font-size="10.00">::operator*</text>
</a>
</g>
</g>
<!-- Node1&#45;&gt;Node2 -->
<g id="edge1" class="edge">
<title>Node1&#45;&gt;Node2</title>
<path fill="none" stroke="midnightblue" d="M176.01,-108.69C158.67,-118.15 137.47,-129.32 118,-138.5 111.59,-141.52 104.7,-144.55 97.98,-147.4"/>
<polygon fill="midnightblue" stroke="midnightblue" points="178.12,-111.52 185.2,-103.64 174.75,-105.39 178.12,-111.52"/>
</g>
<!-- Node3 -->
<g id="node3" class="node">
<title>Node3</title>
<g id="a_node3"><a xlink:href="classTextureEffect_1_1Vertex.html#ad9f0a7aa27640e85fcfea98daf7e2628" target="_top" xlink:title=" ">
<polygon fill="none" stroke="black" points="0,-98.5 0,-128.5 118,-128.5 118,-98.5 0,-98.5"/>
<text text-anchor="start" x="8" y="-116.5" font-family="Helvetica,sans-Serif" font-size="10.00">TextureEffect::Vertex</text>
<text text-anchor="middle" x="59" y="-105.5" font-family="Helvetica,sans-Serif" font-size="10.00">::operator+</text>
</a>
</g>
</g>
<!-- Node1&#45;&gt;Node3 -->
<g id="edge2" class="edge">
<title>Node1&#45;&gt;Node3</title>
<path fill="none" stroke="midnightblue" d="M143.74,-99.73C135.2,-101.13 126.54,-102.56 118.18,-103.93"/>
<polygon fill="midnightblue" stroke="midnightblue" points="144.37,-103.17 153.67,-98.09 143.23,-96.26 144.37,-103.17"/>
</g>
<!-- Node4 -->
<g id="node4" class="node">
<title>Node4</title>
<g id="a_node4"><a xlink:href="classTextureEffect_1_1Vertex.html#a6d5c96ca04cf1f5104d645a9d1953e6f" target="_top" xlink:title=" ">
<polygon fill="none" stroke="black" points="0,-49.5 0,-79.5 118,-79.5 118,-49.5 0,-49.5"/>
<text text-anchor="start" x="8" y="-67.5" font-family="Helvetica,sans-Serif" font-size="10.00">TextureEffect::Vertex</text>
<text text-anchor="middle" x="59" y="-56.5" font-family="Helvetica,sans-Serif" font-size="10.00">::operator&#45;</text>
</a>
</g>
</g>
<!-- Node1&#45;&gt;Node4 -->
<g id="edge3" class="edge">
<title>Node1&#45;&gt;Node4</title>
<path fill="none" stroke="midnightblue" d="M143.74,-77.72C135.2,-76.37 126.54,-75.01 118.18,-73.69"/>
<polygon fill="midnightblue" stroke="midnightblue" points="143.24,-81.19 153.67,-79.29 144.34,-74.27 143.24,-81.19"/>
</g>
<!-- Node5 -->
<g id="node5" class="node">
<title>Node5</title>
<g id="a_node5"><a xlink:href="classTextureEffect_1_1Vertex.html#ac563e7303ca4870a63891611077a174b" target="_top" xlink:title=" ">
<polygon fill="none" stroke="black" points="0,-0.5 0,-30.5 118,-30.5 118,-0.5 0,-0.5"/>
<text text-anchor="start" x="8" y="-18.5" font-family="Helvetica,sans-Serif" font-size="10.00">TextureEffect::Vertex</text>
<text text-anchor="middle" x="59" y="-7.5" font-family="Helvetica,sans-Serif" font-size="10.00">::operator/</text>
</a>
</g>
</g>
<!-- Node1&#45;&gt;Node5 -->
<g id="edge4" class="edge">
<title>Node1&#45;&gt;Node5</title>
<path fill="none" stroke="midnightblue" d="M174.34,-68.56C157.27,-59.71 136.75,-49.32 118,-40.5 110.95,-37.19 103.36,-33.79 96.05,-30.61"/>
<polygon fill="midnightblue" stroke="midnightblue" points="172.96,-71.79 183.44,-73.31 176.19,-65.58 172.96,-71.79"/>
</g>
</g>
</svg>
