<?xml version="1.0" encoding="UTF-8" standalone="no"?>
<!DOCTYPE svg PUBLIC "-//W3C//DTD SVG 1.1//EN"
 "http://www.w3.org/Graphics/SVG/1.1/DTD/svg11.dtd">
<!-- Generated by graphviz version 8.1.0 (20230707.0739)
 -->
<!-- Title: TexVertex::Lerp Pages: 1 -->
<svg width="240pt" height="68pt"
 viewBox="0.00 0.00 239.50 68.00" xmlns="http://www.w3.org/2000/svg" xmlns:xlink="http://www.w3.org/1999/xlink">
<g id="graph0" class="graph" transform="scale(1 1) rotate(0) translate(4 64)">
<title>TexVertex::Lerp</title>
<!-- Node1 -->
<g id="node1" class="node">
<title>Node1</title>
<g id="a_node1"><a xlink:title=" ">
<polygon fill="#bfbfbf" stroke="black" points="0,-19.5 0,-39.5 85,-39.5 85,-19.5 0,-19.5"/>
<text text-anchor="middle" x="42.5" y="-26" font-family="Helvetica,sans-Serif" font-size="10.00">TexVertex::Lerp</text>
</a>
</g>
</g>
<!-- Node2 -->
<g id="node2" class="node">
<title>Node2</title>
<g id="a_node2"><a xlink:href="class_vector2.html#aa1432a83c17f78b496bcad76a41c27af" target="_top" xlink:title=" ">
<polygon fill="none" stroke="black" points="121,-39.5 121,-59.5 231.5,-59.5 231.5,-39.5 121,-39.5"/>
<text text-anchor="middle" x="176.25" y="-46" font-family="Helvetica,sans-Serif" font-size="10.00">Vector2&lt; float &gt;::Lerp</text>
</a>
</g>
</g>
<!-- Node1&#45;&gt;Node2 -->
<g id="edge1" class="edge">
<title>Node1&#45;&gt;Node2</title>
<path fill="none" stroke="midnightblue" d="M84.83,-35.77C92.89,-37 101.53,-38.31 110.15,-39.62"/>
<polygon fill="midnightblue" stroke="midnightblue" points="109.6,-43.23 120.01,-41.27 110.65,-36.31 109.6,-43.23"/>
</g>
<!-- Node3 -->
<g id="node3" class="node">
<title>Node3</title>
<g id="a_node3"><a xlink:href="class_vector3.html#a81b5c061ed2ace3d514b2037d299b64a" target="_top" xlink:title=" ">
<polygon fill="none" stroke="black" points="121,-0.5 121,-20.5 231.5,-20.5 231.5,-0.5 121,-0.5"/>
<text text-anchor="middle" x="176.25" y="-7" font-family="Helvetica,sans-Serif" font-size="10.00">Vector3&lt; float &gt;::Lerp</text>
</a>
</g>
</g>
<!-- Node1&#45;&gt;Node3 -->
<g id="edge2" class="edge">
<title>Node1&#45;&gt;Node3</title>
<path fill="none" stroke="midnightblue" d="M84.83,-23.54C92.89,-22.38 101.53,-21.13 110.15,-19.89"/>
<polygon fill="midnightblue" stroke="midnightblue" points="110.62,-23.21 120.01,-18.32 109.62,-16.28 110.62,-23.21"/>
</g>
</g>
</svg>
