<?xml version="1.0" encoding="UTF-8" standalone="no"?>
<!DOCTYPE svg PUBLIC "-//W3C//DTD SVG 1.1//EN"
 "http://www.w3.org/Graphics/SVG/1.1/DTD/svg11.dtd">
<!-- Generated by graphviz version 2.43.0 (0)
 -->
<!-- Title: Vector4::Vector4 Pages: 1 -->
<svg width="249pt" height="142pt"
 viewBox="0.00 0.00 249.00 142.00" xmlns="http://www.w3.org/2000/svg" xmlns:xlink="http://www.w3.org/1999/xlink">
<g id="graph0" class="graph" transform="scale(1 1) rotate(0) translate(4 138)">
<title>Vector4::Vector4</title>
<!-- Node1 -->
<g id="node1" class="node">
<title>Node1</title>
<g id="a_node1"><a xlink:title=" ">
<polygon fill="#bfbfbf" stroke="black" points="145,-57.5 145,-76.5 241,-76.5 241,-57.5 145,-57.5"/>
<text text-anchor="middle" x="193" y="-64.5" font-family="Helvetica,sans-Serif" font-size="10.00">Vector4::Vector4</text>
</a>
</g>
</g>
<!-- Node2 -->
<g id="node2" class="node">
<title>Node2</title>
<g id="a_node2"><a xlink:href="classVector4.html#a93c9ff6af500894401293fce281207fa" target="_top" xlink:title=" ">
<polygon fill="none" stroke="black" points="1.5,-114.5 1.5,-133.5 107.5,-133.5 107.5,-114.5 1.5,-114.5"/>
<text text-anchor="middle" x="54.5" y="-121.5" font-family="Helvetica,sans-Serif" font-size="10.00">Vector4::operator*</text>
</a>
</g>
</g>
<!-- Node1&#45;&gt;Node2 -->
<g id="edge1" class="edge">
<title>Node1&#45;&gt;Node2</title>
<path fill="none" stroke="midnightblue" d="M163.16,-80.96C147.32,-88.44 127.24,-97.6 109,-105 100.96,-108.26 92.13,-111.52 84,-114.4"/>
<polygon fill="midnightblue" stroke="midnightblue" points="164.9,-84.01 172.42,-76.55 161.89,-77.69 164.9,-84.01"/>
</g>
<!-- Node3 -->
<g id="node3" class="node">
<title>Node3</title>
<g id="a_node3"><a xlink:href="classVector4.html#a3fe035920ac255d0d296b388638df191" target="_top" xlink:title=" ">
<polygon fill="none" stroke="black" points="0,-76.5 0,-95.5 109,-95.5 109,-76.5 0,-76.5"/>
<text text-anchor="middle" x="54.5" y="-83.5" font-family="Helvetica,sans-Serif" font-size="10.00">Vector4::operator+</text>
</a>
</g>
</g>
<!-- Node1&#45;&gt;Node3 -->
<g id="edge2" class="edge">
<title>Node1&#45;&gt;Node3</title>
<path fill="none" stroke="midnightblue" d="M134.58,-74.99C126.21,-76.16 117.62,-77.35 109.32,-78.51"/>
<polygon fill="midnightblue" stroke="midnightblue" points="135.22,-78.44 144.64,-73.59 134.25,-71.5 135.22,-78.44"/>
</g>
<!-- Node4 -->
<g id="node4" class="node">
<title>Node4</title>
<g id="a_node4"><a xlink:href="classVector4.html#a316339efbdff04501fc4732fc9862963" target="_top" xlink:title=" ">
<polygon fill="none" stroke="black" points="2.5,-38.5 2.5,-57.5 106.5,-57.5 106.5,-38.5 2.5,-38.5"/>
<text text-anchor="middle" x="54.5" y="-45.5" font-family="Helvetica,sans-Serif" font-size="10.00">Vector4::operator&#45;</text>
</a>
</g>
</g>
<!-- Node1&#45;&gt;Node4 -->
<g id="edge3" class="edge">
<title>Node1&#45;&gt;Node4</title>
<path fill="none" stroke="midnightblue" d="M134.48,-58.99C125.35,-57.72 115.95,-56.41 106.97,-55.16"/>
<polygon fill="midnightblue" stroke="midnightblue" points="134.25,-62.5 144.64,-60.41 135.22,-55.56 134.25,-62.5"/>
</g>
<!-- Node5 -->
<g id="node5" class="node">
<title>Node5</title>
<g id="a_node5"><a xlink:href="classVector4.html#a8906da76924badb255fdd6a6100a4ae7" target="_top" xlink:title=" ">
<polygon fill="none" stroke="black" points="2.5,-0.5 2.5,-19.5 106.5,-19.5 106.5,-0.5 2.5,-0.5"/>
<text text-anchor="middle" x="54.5" y="-7.5" font-family="Helvetica,sans-Serif" font-size="10.00">Vector4::operator/</text>
</a>
</g>
</g>
<!-- Node1&#45;&gt;Node5 -->
<g id="edge4" class="edge">
<title>Node1&#45;&gt;Node5</title>
<path fill="none" stroke="midnightblue" d="M163.16,-53.04C147.32,-45.56 127.24,-36.4 109,-29 100.96,-25.74 92.13,-22.48 84,-19.6"/>
<polygon fill="midnightblue" stroke="midnightblue" points="161.89,-56.31 172.42,-57.45 164.9,-49.99 161.89,-56.31"/>
</g>
</g>
</svg>
