<?xml version="1.0" encoding="UTF-8" standalone="no"?>
<!DOCTYPE svg PUBLIC "-//W3C//DTD SVG 1.1//EN"
 "http://www.w3.org/Graphics/SVG/1.1/DTD/svg11.dtd">
<!-- Generated by graphviz version 8.1.0 (20230707.0739)
 -->
<!-- Title: Graphics::PutPixel Pages: 1 -->
<svg width="379pt" height="68pt"
 viewBox="0.00 0.00 379.25 68.00" xmlns="http://www.w3.org/2000/svg" xmlns:xlink="http://www.w3.org/1999/xlink">
<g id="graph0" class="graph" transform="scale(1 1) rotate(0) translate(4 64)">
<title>Graphics::PutPixel</title>
<!-- Node1 -->
<g id="node1" class="node">
<title>Node1</title>
<g id="a_node1"><a xlink:title=" ">
<polygon fill="#bfbfbf" stroke="black" points="273.5,-19.5 273.5,-39.5 371.25,-39.5 371.25,-19.5 273.5,-19.5"/>
<text text-anchor="middle" x="322.38" y="-26" font-family="Helvetica,sans-Serif" font-size="10.00">Graphics::PutPixel</text>
</a>
</g>
</g>
<!-- Node2 -->
<g id="node2" class="node">
<title>Node2</title>
<g id="a_node2"><a xlink:href="class_graphics.html#acc62144c402eeaec8e0d496f4cac9c86" target="_top" xlink:title=" ">
<polygon fill="none" stroke="black" points="136.75,-39.5 136.75,-59.5 237.5,-59.5 237.5,-39.5 136.75,-39.5"/>
<text text-anchor="middle" x="187.12" y="-46" font-family="Helvetica,sans-Serif" font-size="10.00">Graphics::DrawLine</text>
</a>
</g>
</g>
<!-- Node1&#45;&gt;Node2 -->
<g id="edge1" class="edge">
<title>Node1&#45;&gt;Node2</title>
<path fill="none" stroke="midnightblue" d="M262.95,-38.27C254.4,-39.55 245.66,-40.86 237.32,-42.12"/>
<polygon fill="midnightblue" stroke="midnightblue" points="263.28,-41.61 272.65,-36.66 262.24,-34.69 263.28,-41.61"/>
</g>
<!-- Node4 -->
<g id="node4" class="node">
<title>Node4</title>
<g id="a_node4"><a xlink:href="class_graphics.html#a64e7971066ee21f5b77aa525742f29e2" target="_top" xlink:title=" ">
<polygon fill="none" stroke="black" points="138.25,-0.5 138.25,-20.5 236,-20.5 236,-0.5 138.25,-0.5"/>
<text text-anchor="middle" x="187.12" y="-7" font-family="Helvetica,sans-Serif" font-size="10.00">Graphics::PutPixel</text>
</a>
</g>
</g>
<!-- Node1&#45;&gt;Node4 -->
<g id="edge3" class="edge">
<title>Node1&#45;&gt;Node4</title>
<path fill="none" stroke="midnightblue" d="M262.84,-21.15C253.86,-19.87 244.68,-18.56 235.97,-17.32"/>
<polygon fill="midnightblue" stroke="midnightblue" points="262.25,-24.75 272.65,-22.69 263.24,-17.82 262.25,-24.75"/>
</g>
<!-- Node3 -->
<g id="node3" class="node">
<title>Node3</title>
<g id="a_node3"><a xlink:href="class_graphics.html#adc0d5b1fd9721c739fb702978fe13e8d" target="_top" xlink:title=" ">
<polygon fill="none" stroke="black" points="0,-39.5 0,-59.5 100.75,-59.5 100.75,-39.5 0,-39.5"/>
<text text-anchor="middle" x="50.38" y="-46" font-family="Helvetica,sans-Serif" font-size="10.00">Graphics::DrawLine</text>
</a>
</g>
</g>
<!-- Node2&#45;&gt;Node3 -->
<g id="edge2" class="edge">
<title>Node2&#45;&gt;Node3</title>
<path fill="none" stroke="midnightblue" d="M126.33,-49.5C117.73,-49.5 108.96,-49.5 100.59,-49.5"/>
<polygon fill="midnightblue" stroke="midnightblue" points="126.1,-53 136.1,-49.5 126.1,-46 126.1,-53"/>
</g>
</g>
</svg>
