<?xml version="1.0" encoding="UTF-8" standalone="no"?>
<!DOCTYPE svg PUBLIC "-//W3C//DTD SVG 1.1//EN"
 "http://www.w3.org/Graphics/SVG/1.1/DTD/svg11.dtd">
<!-- Generated by graphviz version 2.43.0 (0)
 -->
<!-- Title: GeometryFlatScene::Update Pages: 1 -->
<svg width="296pt" height="66pt"
 viewBox="0.00 0.00 296.00 66.00" xmlns="http://www.w3.org/2000/svg" xmlns:xlink="http://www.w3.org/1999/xlink">
<g id="graph0" class="graph" transform="scale(1 1) rotate(0) translate(4 62)">
<title>GeometryFlatScene::Update</title>
<!-- Node1 -->
<g id="node1" class="node">
<title>Node1</title>
<g id="a_node1"><a xlink:title=" ">
<polygon fill="#bfbfbf" stroke="black" points="0,-14 0,-44 119,-44 119,-14 0,-14"/>
<text text-anchor="start" x="8" y="-32" font-family="Helvetica,sans-Serif" font-size="10.00">GeometryFlatScene::</text>
<text text-anchor="middle" x="59.5" y="-21" font-family="Helvetica,sans-Serif" font-size="10.00">Update</text>
</a>
</g>
</g>
<!-- Node2 -->
<g id="node2" class="node">
<title>Node2</title>
<g id="a_node2"><a xlink:href="classKeyboard.html#a7b11ba07982539a0dd9b16b4706e7211" target="_top" xlink:title=" ">
<polygon fill="none" stroke="black" points="155,-38.5 155,-57.5 288,-57.5 288,-38.5 155,-38.5"/>
<text text-anchor="middle" x="221.5" y="-45.5" font-family="Helvetica,sans-Serif" font-size="10.00">Keyboard::KeyIsPressed</text>
</a>
</g>
</g>
<!-- Node1&#45;&gt;Node2 -->
<g id="edge1" class="edge">
<title>Node1&#45;&gt;Node2</title>
<path fill="none" stroke="midnightblue" d="M119.17,-35.97C127.5,-36.96 136.17,-37.99 144.77,-39.01"/>
<polygon fill="midnightblue" stroke="midnightblue" points="144.47,-42.5 154.81,-40.2 145.29,-35.54 144.47,-42.5"/>
</g>
<!-- Node3 -->
<g id="node3" class="node">
<title>Node3</title>
<g id="a_node3"><a xlink:href="namespaceMath.html#abb70099a95f7e3ae8eb62c3694775a6b" target="_top" xlink:title=" ">
<polygon fill="none" stroke="black" points="171,-0.5 171,-19.5 272,-19.5 272,-0.5 171,-0.5"/>
<text text-anchor="middle" x="221.5" y="-7.5" font-family="Helvetica,sans-Serif" font-size="10.00">Math::WrapAngle</text>
</a>
</g>
</g>
<!-- Node1&#45;&gt;Node3 -->
<g id="edge2" class="edge">
<title>Node1&#45;&gt;Node3</title>
<path fill="none" stroke="midnightblue" d="M119.17,-22.03C132.67,-20.43 147.05,-18.72 160.61,-17.11"/>
<polygon fill="midnightblue" stroke="midnightblue" points="161.27,-20.56 170.78,-15.9 160.44,-13.61 161.27,-20.56"/>
</g>
</g>
</svg>
