<?xml version="1.0" encoding="UTF-8" standalone="no"?>
<!DOCTYPE svg PUBLIC "-//W3C//DTD SVG 1.1//EN"
 "http://www.w3.org/Graphics/SVG/1.1/DTD/svg11.dtd">
<!-- Generated by graphviz version 8.1.0 (20230707.0739)
 -->
<!-- Title: VertexColorEffect Pages: 1 -->
<svg width="252pt" height="110pt"
 viewBox="0.00 0.00 252.12 110.00" xmlns="http://www.w3.org/2000/svg" xmlns:xlink="http://www.w3.org/1999/xlink">
<g id="graph0" class="graph" transform="scale(1 1) rotate(0) translate(4 106)">
<title>VertexColorEffect</title>
<!-- Node1 -->
<g id="node1" class="node">
<title>Node1</title>
<g id="a_node1"><a xlink:title=" ">
<polygon fill="#bfbfbf" stroke="black" points="68,-0.5 68,-20.5 159.75,-20.5 159.75,-0.5 68,-0.5"/>
<text text-anchor="middle" x="113.88" y="-7" font-family="Helvetica,sans-Serif" font-size="10.00">VertexColorEffect</text>
</a>
</g>
</g>
<!-- Node2 -->
<g id="node2" class="node">
<title>Node2</title>
<g id="a_node2"><a xlink:href="class_vertex_color_effect_1_1_pixel_shader.html" target="_top" xlink:title=" ">
<polygon fill="none" stroke="black" points="0,-69.5 0,-101.5 97.75,-101.5 97.75,-69.5 0,-69.5"/>
<text text-anchor="start" x="8" y="-88" font-family="Helvetica,sans-Serif" font-size="10.00">VertexColorEffect::</text>
<text text-anchor="middle" x="48.88" y="-76" font-family="Helvetica,sans-Serif" font-size="10.00">PixelShader</text>
</a>
</g>
</g>
<!-- Node2&#45;&gt;Node1 -->
<g id="edge1" class="edge">
<title>Node2&#45;&gt;Node1</title>
<path fill="none" stroke="#9a32cd" stroke-dasharray="5,2" d="M69,-61.9C81.52,-47.83 96.93,-30.53 106.05,-20.29"/>
<polygon fill="#9a32cd" stroke="#9a32cd" points="67.06,-58.93 63.03,-68.73 72.29,-63.59 67.06,-58.93"/>
<text text-anchor="middle" x="96.62" y="-41.5" font-family="Helvetica,sans-Serif" font-size="10.00"> ps</text>
</g>
<!-- Node3 -->
<g id="node3" class="node">
<title>Node3</title>
<g id="a_node3"><a xlink:href="class_default_geometry_shader.html" target="_top" xlink:title=" ">
<polygon fill="none" stroke="black" points="115.62,-69.5 115.62,-101.5 244.12,-101.5 244.12,-69.5 115.62,-69.5"/>
<text text-anchor="start" x="123.62" y="-88" font-family="Helvetica,sans-Serif" font-size="10.00">DefaultGeometryShader</text>
<text text-anchor="middle" x="179.88" y="-76" font-family="Helvetica,sans-Serif" font-size="10.00">&lt; VertexShader::Output &gt;</text>
</a>
</g>
</g>
<!-- Node3&#45;&gt;Node1 -->
<g id="edge2" class="edge">
<title>Node3&#45;&gt;Node1</title>
<path fill="none" stroke="#9a32cd" stroke-dasharray="5,2" d="M159.44,-61.9C146.72,-47.83 131.08,-30.53 121.82,-20.29"/>
<polygon fill="#9a32cd" stroke="#9a32cd" points="156.22,-63.66 165.52,-68.73 161.41,-58.96 156.22,-63.66"/>
<text text-anchor="middle" x="154.62" y="-41.5" font-family="Helvetica,sans-Serif" font-size="10.00"> gs</text>
</g>
</g>
</svg>
