<?xml version="1.0" encoding="UTF-8" standalone="no"?>
<!DOCTYPE svg PUBLIC "-//W3C//DTD SVG 1.1//EN"
 "http://www.w3.org/Graphics/SVG/1.1/DTD/svg11.dtd">
<!-- Generated by graphviz version 8.1.0 (20230707.0739)
 -->
<!-- Title: Graphics::DrawTriangleTexWrap Pages: 1 -->
<svg width="431pt" height="68pt"
 viewBox="0.00 0.00 431.00 68.00" xmlns="http://www.w3.org/2000/svg" xmlns:xlink="http://www.w3.org/1999/xlink">
<g id="graph0" class="graph" transform="scale(1 1) rotate(0) translate(4 64)">
<title>Graphics::DrawTriangleTexWrap</title>
<!-- Node1 -->
<g id="node1" class="node">
<title>Node1</title>
<g id="a_node1"><a xlink:title=" ">
<polygon fill="#bfbfbf" stroke="black" points="0,-19.5 0,-39.5 155.5,-39.5 155.5,-19.5 0,-19.5"/>
<text text-anchor="middle" x="77.75" y="-26" font-family="Helvetica,sans-Serif" font-size="10.00">Graphics::DrawTriangleTexWrap</text>
</a>
</g>
</g>
<!-- Node2 -->
<g id="node2" class="node">
<title>Node2</title>
<g id="a_node2"><a xlink:href="class_tex_vertex.html#a95d346af8d4fb15e8ac3167552f40de8" target="_top" xlink:title=" ">
<polygon fill="none" stroke="black" points="191.5,-19.5 191.5,-39.5 276.5,-39.5 276.5,-19.5 191.5,-19.5"/>
<text text-anchor="middle" x="234" y="-26" font-family="Helvetica,sans-Serif" font-size="10.00">TexVertex::Lerp</text>
</a>
</g>
</g>
<!-- Node1&#45;&gt;Node2 -->
<g id="edge1" class="edge">
<title>Node1&#45;&gt;Node2</title>
<path fill="none" stroke="midnightblue" d="M155.42,-29.5C164.05,-29.5 172.69,-29.5 180.9,-29.5"/>
<polygon fill="midnightblue" stroke="midnightblue" points="180.8,-33 190.8,-29.5 180.8,-26 180.8,-33"/>
</g>
<!-- Node3 -->
<g id="node3" class="node">
<title>Node3</title>
<g id="a_node3"><a xlink:href="class_vector2.html#aa1432a83c17f78b496bcad76a41c27af" target="_top" xlink:title=" ">
<polygon fill="none" stroke="black" points="312.5,-39.5 312.5,-59.5 423,-59.5 423,-39.5 312.5,-39.5"/>
<text text-anchor="middle" x="367.75" y="-46" font-family="Helvetica,sans-Serif" font-size="10.00">Vector2&lt; float &gt;::Lerp</text>
</a>
</g>
</g>
<!-- Node2&#45;&gt;Node3 -->
<g id="edge2" class="edge">
<title>Node2&#45;&gt;Node3</title>
<path fill="none" stroke="midnightblue" d="M276.33,-35.77C284.39,-37 293.03,-38.31 301.65,-39.62"/>
<polygon fill="midnightblue" stroke="midnightblue" points="301.1,-43.23 311.51,-41.27 302.15,-36.31 301.1,-43.23"/>
</g>
<!-- Node4 -->
<g id="node4" class="node">
<title>Node4</title>
<g id="a_node4"><a xlink:href="class_vector3.html#a81b5c061ed2ace3d514b2037d299b64a" target="_top" xlink:title=" ">
<polygon fill="none" stroke="black" points="312.5,-0.5 312.5,-20.5 423,-20.5 423,-0.5 312.5,-0.5"/>
<text text-anchor="middle" x="367.75" y="-7" font-family="Helvetica,sans-Serif" font-size="10.00">Vector3&lt; float &gt;::Lerp</text>
</a>
</g>
</g>
<!-- Node2&#45;&gt;Node4 -->
<g id="edge3" class="edge">
<title>Node2&#45;&gt;Node4</title>
<path fill="none" stroke="midnightblue" d="M276.33,-23.54C284.39,-22.38 293.03,-21.13 301.65,-19.89"/>
<polygon fill="midnightblue" stroke="midnightblue" points="302.12,-23.21 311.51,-18.32 301.12,-16.28 302.12,-23.21"/>
</g>
</g>
</svg>
