<?xml version="1.0" encoding="UTF-8" standalone="no"?>
<!DOCTYPE svg PUBLIC "-//W3C//DTD SVG 1.1//EN"
 "http://www.w3.org/Graphics/SVG/1.1/DTD/svg11.dtd">
<!-- Generated by graphviz version 8.1.0 (20230707.0739)
 -->
<!-- Title: DoubleCubeScene::Update Pages: 1 -->
<svg width="301pt" height="68pt"
 viewBox="0.00 0.00 301.00 68.00" xmlns="http://www.w3.org/2000/svg" xmlns:xlink="http://www.w3.org/1999/xlink">
<g id="graph0" class="graph" transform="scale(1 1) rotate(0) translate(4 64)">
<title>DoubleCubeScene::Update</title>
<!-- Node1 -->
<g id="node1" class="node">
<title>Node1</title>
<g id="a_node1"><a xlink:title=" ">
<polygon fill="#bfbfbf" stroke="black" points="0,-19.5 0,-39.5 133,-39.5 133,-19.5 0,-19.5"/>
<text text-anchor="middle" x="66.5" y="-26" font-family="Helvetica,sans-Serif" font-size="10.00">DoubleCubeScene::Update</text>
</a>
</g>
</g>
<!-- Node2 -->
<g id="node2" class="node">
<title>Node2</title>
<g id="a_node2"><a xlink:href="class_keyboard.html#a7b11ba07982539a0dd9b16b4706e7211" target="_top" xlink:title=" ">
<polygon fill="none" stroke="black" points="169,-39.5 169,-59.5 293,-59.5 293,-39.5 169,-39.5"/>
<text text-anchor="middle" x="231" y="-46" font-family="Helvetica,sans-Serif" font-size="10.00">Keyboard::KeyIsPressed</text>
</a>
</g>
</g>
<!-- Node1&#45;&gt;Node2 -->
<g id="edge1" class="edge">
<title>Node1&#45;&gt;Node2</title>
<path fill="none" stroke="midnightblue" d="M132.66,-37.52C141.1,-38.56 149.79,-39.63 158.33,-40.68"/>
<polygon fill="midnightblue" stroke="midnightblue" points="157.69,-44.25 168.04,-42 158.55,-37.3 157.69,-44.25"/>
</g>
<!-- Node3 -->
<g id="node3" class="node">
<title>Node3</title>
<g id="a_node3"><a xlink:href="namespace_math.html#abb70099a95f7e3ae8eb62c3694775a6b" target="_top" xlink:title=" ">
<polygon fill="none" stroke="black" points="185.12,-0.5 185.12,-20.5 276.88,-20.5 276.88,-0.5 185.12,-0.5"/>
<text text-anchor="middle" x="231" y="-7" font-family="Helvetica,sans-Serif" font-size="10.00">Math::WrapAngle</text>
</a>
</g>
</g>
<!-- Node1&#45;&gt;Node3 -->
<g id="edge2" class="edge">
<title>Node1&#45;&gt;Node3</title>
<path fill="none" stroke="midnightblue" d="M132.66,-21.88C146.59,-20.25 161.19,-18.55 174.71,-16.97"/>
<polygon fill="midnightblue" stroke="midnightblue" points="174.76,-20.37 184.29,-15.73 173.95,-13.41 174.76,-20.37"/>
</g>
</g>
</svg>
