<?xml version="1.0" encoding="UTF-8" standalone="no"?>
<!DOCTYPE svg PUBLIC "-//W3C//DTD SVG 1.1//EN"
 "http://www.w3.org/Graphics/SVG/1.1/DTD/svg11.dtd">
<!-- Generated by graphviz version 8.1.0 (20230707.0739)
 -->
<!-- Title: TextureEffect::PixelShader::BindTexture Pages: 1 -->
<svg width="393pt" height="41pt"
 viewBox="0.00 0.00 392.75 41.00" xmlns="http://www.w3.org/2000/svg" xmlns:xlink="http://www.w3.org/1999/xlink">
<g id="graph0" class="graph" transform="scale(1 1) rotate(0) translate(4 37)">
<title>TextureEffect::PixelShader::BindTexture</title>
<!-- Node1 -->
<g id="node1" class="node">
<title>Node1</title>
<g id="a_node1"><a xlink:title=" ">
<polygon fill="#bfbfbf" stroke="black" points="0,-0.5 0,-32.5 131.5,-32.5 131.5,-0.5 0,-0.5"/>
<text text-anchor="start" x="8" y="-19" font-family="Helvetica,sans-Serif" font-size="10.00">TextureEffect::PixelShader</text>
<text text-anchor="middle" x="65.75" y="-7" font-family="Helvetica,sans-Serif" font-size="10.00">::BindTexture</text>
</a>
</g>
</g>
<!-- Node2 -->
<g id="node2" class="node">
<title>Node2</title>
<g id="a_node2"><a xlink:href="class_surface.html#a56f7924ec6d563a5bf2f6b7586c2b621" target="_top" xlink:title=" ">
<polygon fill="none" stroke="black" points="167.5,-6.5 167.5,-26.5 260.75,-26.5 260.75,-6.5 167.5,-6.5"/>
<text text-anchor="middle" x="214.12" y="-13" font-family="Helvetica,sans-Serif" font-size="10.00">Surface::FromFile</text>
</a>
</g>
</g>
<!-- Node1&#45;&gt;Node2 -->
<g id="edge1" class="edge">
<title>Node1&#45;&gt;Node2</title>
<path fill="none" stroke="midnightblue" d="M131.38,-16.5C139.9,-16.5 148.58,-16.5 156.94,-16.5"/>
<polygon fill="midnightblue" stroke="midnightblue" points="156.71,-20 166.71,-16.5 156.71,-13 156.71,-20"/>
</g>
<!-- Node3 -->
<g id="node3" class="node">
<title>Node3</title>
<g id="a_node3"><a xlink:href="class_surface.html#a900e5b615f7754ad27e3e87c9f470c25" target="_top" xlink:title=" ">
<polygon fill="none" stroke="black" points="296.75,-6.5 296.75,-26.5 384.75,-26.5 384.75,-6.5 296.75,-6.5"/>
<text text-anchor="middle" x="340.75" y="-13" font-family="Helvetica,sans-Serif" font-size="10.00">Surface::Surface</text>
</a>
</g>
</g>
<!-- Node2&#45;&gt;Node3 -->
<g id="edge2" class="edge">
<title>Node2&#45;&gt;Node3</title>
<path fill="none" stroke="midnightblue" d="M260.47,-16.5C268.89,-16.5 277.75,-16.5 286.38,-16.5"/>
<polygon fill="midnightblue" stroke="midnightblue" points="286.14,-20 296.14,-16.5 286.14,-13 286.14,-20"/>
</g>
</g>
</svg>
