<?xml version="1.0" encoding="UTF-8" standalone="no"?>
<!DOCTYPE svg PUBLIC "-//W3C//DTD SVG 1.1//EN"
 "http://www.w3.org/Graphics/SVG/1.1/DTD/svg11.dtd">
<!-- Generated by graphviz version 8.1.0 (20230707.0739)
 -->
<!-- Title: VertexFlatEffect::Vertex::Vertex Pages: 1 -->
<svg width="285pt" height="194pt"
 viewBox="0.00 0.00 284.50 194.00" xmlns="http://www.w3.org/2000/svg" xmlns:xlink="http://www.w3.org/1999/xlink">
<g id="graph0" class="graph" transform="scale(1 1) rotate(0) translate(4 190)">
<title>VertexFlatEffect::Vertex::Vertex</title>
<!-- Node1 -->
<g id="node1" class="node">
<title>Node1</title>
<g id="a_node1"><a xlink:title=" ">
<polygon fill="#bfbfbf" stroke="black" points="156.25,-76.5 156.25,-108.5 276.5,-108.5 276.5,-76.5 156.25,-76.5"/>
<text text-anchor="start" x="164.25" y="-95" font-family="Helvetica,sans-Serif" font-size="10.00">VertexFlatEffect::Vertex</text>
<text text-anchor="middle" x="216.38" y="-83" font-family="Helvetica,sans-Serif" font-size="10.00">::Vertex</text>
</a>
</g>
</g>
<!-- Node2 -->
<g id="node2" class="node">
<title>Node2</title>
<g id="a_node2"><a xlink:href="class_vertex_flat_effect_1_1_vertex.html#a36558d1de48db17f47f3b0014c6e5766" target="_top" xlink:title=" ">
<polygon fill="none" stroke="black" points="0,-153.5 0,-185.5 120.25,-185.5 120.25,-153.5 0,-153.5"/>
<text text-anchor="start" x="8" y="-172" font-family="Helvetica,sans-Serif" font-size="10.00">VertexFlatEffect::Vertex</text>
<text text-anchor="middle" x="60.12" y="-160" font-family="Helvetica,sans-Serif" font-size="10.00">::operator*</text>
</a>
</g>
</g>
<!-- Node1&#45;&gt;Node2 -->
<g id="edge1" class="edge">
<title>Node1&#45;&gt;Node2</title>
<path fill="none" stroke="midnightblue" d="M178.6,-113.73C161.13,-123.51 139.84,-135.03 120.25,-144.5 113.93,-147.55 107.14,-150.62 100.49,-153.51"/>
<polygon fill="midnightblue" stroke="midnightblue" points="179.88,-116.45 186.87,-108.49 176.44,-110.36 179.88,-116.45"/>
</g>
<!-- Node3 -->
<g id="node3" class="node">
<title>Node3</title>
<g id="a_node3"><a xlink:href="class_vertex_flat_effect_1_1_vertex.html#a200117f4af431b4407d868f95ef62f80" target="_top" xlink:title=" ">
<polygon fill="none" stroke="black" points="0,-102.5 0,-134.5 120.25,-134.5 120.25,-102.5 0,-102.5"/>
<text text-anchor="start" x="8" y="-121" font-family="Helvetica,sans-Serif" font-size="10.00">VertexFlatEffect::Vertex</text>
<text text-anchor="middle" x="60.12" y="-109" font-family="Helvetica,sans-Serif" font-size="10.00">::operator+</text>
</a>
</g>
</g>
<!-- Node1&#45;&gt;Node3 -->
<g id="edge2" class="edge">
<title>Node1&#45;&gt;Node3</title>
<path fill="none" stroke="midnightblue" d="M145.87,-104.22C137.31,-105.66 128.62,-107.12 120.23,-108.54"/>
<polygon fill="midnightblue" stroke="midnightblue" points="146.34,-107.52 155.62,-102.4 145.18,-100.61 146.34,-107.52"/>
</g>
<!-- Node4 -->
<g id="node4" class="node">
<title>Node4</title>
<g id="a_node4"><a xlink:href="class_vertex_flat_effect_1_1_vertex.html#a50c79d6952d69d7f5e78c0faa8258745" target="_top" xlink:title=" ">
<polygon fill="none" stroke="black" points="0,-51.5 0,-83.5 120.25,-83.5 120.25,-51.5 0,-51.5"/>
<text text-anchor="start" x="8" y="-70" font-family="Helvetica,sans-Serif" font-size="10.00">VertexFlatEffect::Vertex</text>
<text text-anchor="middle" x="60.12" y="-58" font-family="Helvetica,sans-Serif" font-size="10.00">::operator&#45;</text>
</a>
</g>
</g>
<!-- Node1&#45;&gt;Node4 -->
<g id="edge3" class="edge">
<title>Node1&#45;&gt;Node4</title>
<path fill="none" stroke="midnightblue" d="M145.87,-81.24C137.31,-79.85 128.62,-78.44 120.23,-77.08"/>
<polygon fill="midnightblue" stroke="midnightblue" points="145.19,-84.83 155.62,-82.98 146.31,-77.92 145.19,-84.83"/>
</g>
<!-- Node5 -->
<g id="node5" class="node">
<title>Node5</title>
<g id="a_node5"><a xlink:href="class_vertex_flat_effect_1_1_vertex.html#a9a5a105eadce975af920e706c8a2ee2c" target="_top" xlink:title=" ">
<polygon fill="none" stroke="black" points="0,-0.5 0,-32.5 120.25,-32.5 120.25,-0.5 0,-0.5"/>
<text text-anchor="start" x="8" y="-19" font-family="Helvetica,sans-Serif" font-size="10.00">VertexFlatEffect::Vertex</text>
<text text-anchor="middle" x="60.12" y="-7" font-family="Helvetica,sans-Serif" font-size="10.00">::operator/</text>
</a>
</g>
</g>
<!-- Node1&#45;&gt;Node5 -->
<g id="edge4" class="edge">
<title>Node1&#45;&gt;Node5</title>
<path fill="none" stroke="midnightblue" d="M176.82,-71.45C159.64,-62.28 139.08,-51.57 120.25,-42.5 113.28,-39.14 105.77,-35.7 98.52,-32.47"/>
<polygon fill="midnightblue" stroke="midnightblue" points="175.03,-75 185.5,-76.65 178.34,-68.84 175.03,-75"/>
</g>
</g>
</svg>
