<?xml version="1.0" encoding="UTF-8" standalone="no"?>
<!DOCTYPE svg PUBLIC "-//W3C//DTD SVG 1.1//EN"
 "http://www.w3.org/Graphics/SVG/1.1/DTD/svg11.dtd">
<!-- Generated by graphviz version 8.1.0 (20230707.0739)
 -->
<!-- Title: Vector2::Normalize Pages: 1 -->
<svg width="715pt" height="68pt"
 viewBox="0.00 0.00 715.00 68.00" xmlns="http://www.w3.org/2000/svg" xmlns:xlink="http://www.w3.org/1999/xlink">
<g id="graph0" class="graph" transform="scale(1 1) rotate(0) translate(4 64)">
<title>Vector2::Normalize</title>
<!-- Node1 -->
<g id="node1" class="node">
<title>Node1</title>
<g id="a_node1"><a xlink:title=" ">
<polygon fill="#bfbfbf" stroke="black" points="0,-19.5 0,-39.5 99.25,-39.5 99.25,-19.5 0,-19.5"/>
<text text-anchor="middle" x="49.62" y="-26" font-family="Helvetica,sans-Serif" font-size="10.00">Vector2::Normalize</text>
</a>
</g>
</g>
<!-- Node2 -->
<g id="node2" class="node">
<title>Node2</title>
<g id="a_node2"><a xlink:href="class_vector2.html#a09d30ae647f4a35a5abd61f14e002126" target="_top" xlink:title=" ">
<polygon fill="none" stroke="black" points="135.25,-19.5 135.25,-39.5 255.5,-39.5 255.5,-19.5 135.25,-19.5"/>
<text text-anchor="middle" x="195.38" y="-26" font-family="Helvetica,sans-Serif" font-size="10.00">Vector2::GetNormalized</text>
</a>
</g>
</g>
<!-- Node1&#45;&gt;Node2 -->
<g id="edge1" class="edge">
<title>Node1&#45;&gt;Node2</title>
<path fill="none" stroke="midnightblue" d="M98.89,-29.5C107.09,-29.5 115.75,-29.5 124.38,-29.5"/>
<polygon fill="midnightblue" stroke="midnightblue" points="124.25,-33 134.25,-29.5 124.25,-26 124.25,-33"/>
</g>
<!-- Node3 -->
<g id="node3" class="node">
<title>Node3</title>
<g id="a_node3"><a xlink:href="class_vector2.html#a3fa4c5b256684cc1b1a599e813195421" target="_top" xlink:title=" ">
<polygon fill="none" stroke="black" points="291.5,-39.5 291.5,-59.5 408,-59.5 408,-39.5 291.5,-39.5"/>
<text text-anchor="middle" x="349.75" y="-46" font-family="Helvetica,sans-Serif" font-size="10.00">Vector2::GetMagnitude</text>
</a>
</g>
</g>
<!-- Node2&#45;&gt;Node3 -->
<g id="edge2" class="edge">
<title>Node2&#45;&gt;Node3</title>
<path fill="none" stroke="midnightblue" d="M255.29,-37.23C263.71,-38.34 272.43,-39.48 281,-40.61"/>
<polygon fill="midnightblue" stroke="midnightblue" points="280.38,-44.19 290.75,-42.02 281.29,-37.25 280.38,-44.19"/>
</g>
<!-- Node6 -->
<g id="node6" class="node">
<title>Node6</title>
<g id="a_node6"><a xlink:href="class_vector2.html#acdf634d147c60fa5b9e62335bc7d3076" target="_top" xlink:title=" ">
<polygon fill="none" stroke="black" points="305,-0.5 305,-20.5 394.5,-20.5 394.5,-0.5 305,-0.5"/>
<text text-anchor="middle" x="349.75" y="-7" font-family="Helvetica,sans-Serif" font-size="10.00">Vector2::Vector2</text>
</a>
</g>
</g>
<!-- Node2&#45;&gt;Node6 -->
<g id="edge5" class="edge">
<title>Node2&#45;&gt;Node6</title>
<path fill="none" stroke="midnightblue" d="M255.29,-22.15C268.11,-20.55 281.63,-18.87 294.27,-17.29"/>
<polygon fill="midnightblue" stroke="midnightblue" points="294.63,-20.65 304.12,-15.94 293.76,-13.7 294.63,-20.65"/>
</g>
<!-- Node4 -->
<g id="node4" class="node">
<title>Node4</title>
<g id="a_node4"><a xlink:href="class_vector2.html#a3485163d5c4a6e20a44fb49c1ebe37a8" target="_top" xlink:title=" ">
<polygon fill="none" stroke="black" points="444,-39.5 444,-59.5 596.5,-59.5 596.5,-39.5 444,-39.5"/>
<text text-anchor="middle" x="520.25" y="-46" font-family="Helvetica,sans-Serif" font-size="10.00">Vector2::GetMagnitudeSquared</text>
</a>
</g>
</g>
<!-- Node3&#45;&gt;Node4 -->
<g id="edge3" class="edge">
<title>Node3&#45;&gt;Node4</title>
<path fill="none" stroke="midnightblue" d="M407.8,-49.5C415.99,-49.5 424.56,-49.5 433.16,-49.5"/>
<polygon fill="midnightblue" stroke="midnightblue" points="433.04,-53 443.04,-49.5 433.04,-46 433.04,-53"/>
</g>
<!-- Node5 -->
<g id="node5" class="node">
<title>Node5</title>
<g id="a_node5"><a xlink:href="namespace_math.html#aaf39112a96239cbf99db4374c7beb3bd" target="_top" xlink:title=" ">
<polygon fill="none" stroke="black" points="632.5,-39.5 632.5,-59.5 707,-59.5 707,-39.5 632.5,-39.5"/>
<text text-anchor="middle" x="669.75" y="-46" font-family="Helvetica,sans-Serif" font-size="10.00">Math::Square</text>
</a>
</g>
</g>
<!-- Node4&#45;&gt;Node5 -->
<g id="edge4" class="edge">
<title>Node4&#45;&gt;Node5</title>
<path fill="none" stroke="midnightblue" d="M596.3,-49.5C605.01,-49.5 613.69,-49.5 621.87,-49.5"/>
<polygon fill="midnightblue" stroke="midnightblue" points="621.65,-53 631.65,-49.5 621.65,-46 621.65,-53"/>
</g>
</g>
</svg>
