<?xml version="1.0" encoding="UTF-8" standalone="no"?>
<!DOCTYPE svg PUBLIC "-//W3C//DTD SVG 1.1//EN"
 "http://www.w3.org/Graphics/SVG/1.1/DTD/svg11.dtd">
<!-- Generated by graphviz version 8.1.0 (20230707.0739)
 -->
<!-- Title: Pipeline::Draw Pages: 1 -->
<svg width="275pt" height="389pt"
 viewBox="0.00 0.00 274.75 389.00" xmlns="http://www.w3.org/2000/svg" xmlns:xlink="http://www.w3.org/1999/xlink">
<g id="graph0" class="graph" transform="scale(1 1) rotate(0) translate(4 385)">
<title>Pipeline::Draw</title>
<!-- Node1 -->
<g id="node1" class="node">
<title>Node1</title>
<g id="a_node1"><a xlink:title=" ">
<polygon fill="#bfbfbf" stroke="black" points="188.5,-174.5 188.5,-194.5 266.75,-194.5 266.75,-174.5 188.5,-174.5"/>
<text text-anchor="middle" x="227.62" y="-181" font-family="Helvetica,sans-Serif" font-size="10.00">Pipeline::Draw</text>
</a>
</g>
</g>
<!-- Node2 -->
<g id="node2" class="node">
<title>Node2</title>
<g id="a_node2"><a xlink:href="class_cube_flat_independent_scene.html#a5a2d8f2ca8c78d6e283531a521f0806b" target="_top" xlink:title=" ">
<polygon fill="none" stroke="black" points="8.62,-348.5 8.62,-380.5 143.88,-380.5 143.88,-348.5 8.62,-348.5"/>
<text text-anchor="start" x="16.62" y="-367" font-family="Helvetica,sans-Serif" font-size="10.00">CubeFlatIndependentScene</text>
<text text-anchor="middle" x="76.25" y="-355" font-family="Helvetica,sans-Serif" font-size="10.00">::Draw</text>
</a>
</g>
</g>
<!-- Node1&#45;&gt;Node2 -->
<g id="edge1" class="edge">
<title>Node1&#45;&gt;Node2</title>
<path fill="none" stroke="midnightblue" d="M222.27,-205.1C214.22,-238.13 193.94,-302.95 152.5,-339.5 148.58,-342.96 144.16,-345.94 139.48,-348.52"/>
<polygon fill="midnightblue" stroke="midnightblue" points="225.88,-206 224.69,-195.48 219.05,-204.45 225.88,-206"/>
</g>
<!-- Node3 -->
<g id="node3" class="node">
<title>Node3</title>
<g id="a_node3"><a xlink:href="class_cube_skin_scene.html#a48b277a1b41049e40ea70d90aa186627" target="_top" xlink:title=" ">
<polygon fill="none" stroke="black" points="19.5,-309.5 19.5,-329.5 133,-329.5 133,-309.5 19.5,-309.5"/>
<text text-anchor="middle" x="76.25" y="-316" font-family="Helvetica,sans-Serif" font-size="10.00">CubeSkinScene::Draw</text>
</a>
</g>
</g>
<!-- Node1&#45;&gt;Node3 -->
<g id="edge2" class="edge">
<title>Node1&#45;&gt;Node3</title>
<path fill="none" stroke="midnightblue" d="M219.26,-204.6C208.63,-230.77 186.44,-276.02 152.5,-300.5 146.6,-304.76 139.84,-308.06 132.84,-310.63"/>
<polygon fill="midnightblue" stroke="midnightblue" points="222.88,-205.96 223.23,-195.37 216.35,-203.43 222.88,-205.96"/>
</g>
<!-- Node4 -->
<g id="node4" class="node">
<title>Node4</title>
<g id="a_node4"><a xlink:href="class_cube_solid_geometry_scene.html#aa7ef23fe155a0a262c0357eaa3452506" target="_top" xlink:title=" ">
<polygon fill="none" stroke="black" points="10.88,-258.5 10.88,-290.5 141.62,-290.5 141.62,-258.5 10.88,-258.5"/>
<text text-anchor="start" x="18.88" y="-277" font-family="Helvetica,sans-Serif" font-size="10.00">CubeSolidGeometryScene</text>
<text text-anchor="middle" x="76.25" y="-265" font-family="Helvetica,sans-Serif" font-size="10.00">::Draw</text>
</a>
</g>
</g>
<!-- Node1&#45;&gt;Node4 -->
<g id="edge3" class="edge">
<title>Node1&#45;&gt;Node4</title>
<path fill="none" stroke="midnightblue" d="M210.61,-202C196.53,-216.49 174.85,-236.7 152.5,-249.5 146.53,-252.92 140.02,-255.96 133.41,-258.64"/>
<polygon fill="midnightblue" stroke="midnightblue" points="212.64,-204.9 216.97,-195.23 207.55,-200.09 212.64,-204.9"/>
</g>
<!-- Node5 -->
<g id="node5" class="node">
<title>Node5</title>
<g id="a_node5"><a xlink:href="class_cube_solid_scene.html#a889dfe03da33047374c1eb2291d5596e" target="_top" xlink:title=" ">
<polygon fill="none" stroke="black" points="18.38,-219.5 18.38,-239.5 134.12,-239.5 134.12,-219.5 18.38,-219.5"/>
<text text-anchor="middle" x="76.25" y="-226" font-family="Helvetica,sans-Serif" font-size="10.00">CubeSolidScene::Draw</text>
</a>
</g>
</g>
<!-- Node1&#45;&gt;Node5 -->
<g id="edge4" class="edge">
<title>Node1&#45;&gt;Node5</title>
<path fill="none" stroke="midnightblue" d="M190.03,-198.07C178.13,-202.28 164.82,-206.79 152.5,-210.5 141.92,-213.68 130.4,-216.78 119.62,-219.51"/>
<polygon fill="midnightblue" stroke="midnightblue" points="190.82,-201.14 199.05,-194.47 188.46,-194.56 190.82,-201.14"/>
</g>
<!-- Node6 -->
<g id="node6" class="node">
<title>Node6</title>
<g id="a_node6"><a xlink:href="class_cube_vertex_color_scene.html#ad2934096c9527e9dbb8cdcb9f8a45f80" target="_top" xlink:title=" ">
<polygon fill="none" stroke="black" points="17.62,-168.5 17.62,-200.5 134.88,-200.5 134.88,-168.5 17.62,-168.5"/>
<text text-anchor="start" x="25.62" y="-187" font-family="Helvetica,sans-Serif" font-size="10.00">CubeVertexColorScene</text>
<text text-anchor="middle" x="76.25" y="-175" font-family="Helvetica,sans-Serif" font-size="10.00">::Draw</text>
</a>
</g>
</g>
<!-- Node1&#45;&gt;Node6 -->
<g id="edge5" class="edge">
<title>Node1&#45;&gt;Node6</title>
<path fill="none" stroke="midnightblue" d="M177.83,-184.5C164.07,-184.5 148.96,-184.5 134.74,-184.5"/>
<polygon fill="midnightblue" stroke="midnightblue" points="177.54,-188 187.54,-184.5 177.54,-181 177.54,-188"/>
</g>
<!-- Node7 -->
<g id="node7" class="node">
<title>Node7</title>
<g id="a_node7"><a xlink:href="class_cube_vertex_position_color_scene.html#ae281a042a0863dbb9e3bb7a6070e58cc" target="_top" xlink:title=" ">
<polygon fill="none" stroke="black" points="0,-117.5 0,-149.5 152.5,-149.5 152.5,-117.5 0,-117.5"/>
<text text-anchor="start" x="8" y="-136" font-family="Helvetica,sans-Serif" font-size="10.00">CubeVertexPositionColorScene</text>
<text text-anchor="middle" x="76.25" y="-124" font-family="Helvetica,sans-Serif" font-size="10.00">::Draw</text>
</a>
</g>
</g>
<!-- Node1&#45;&gt;Node7 -->
<g id="edge6" class="edge">
<title>Node1&#45;&gt;Node7</title>
<path fill="none" stroke="midnightblue" d="M187.16,-171.03C167.77,-164.4 144.26,-156.38 123.97,-149.45"/>
<polygon fill="midnightblue" stroke="midnightblue" points="185.87,-174.63 196.47,-174.55 188.14,-168 185.87,-174.63"/>
</g>
<!-- Node8 -->
<g id="node8" class="node">
<title>Node8</title>
<g id="a_node8"><a xlink:href="class_double_cube_scene.html#a2f87358aaf1a53d1401ec11598d1eaa0" target="_top" xlink:title=" ">
<polygon fill="none" stroke="black" points="14.25,-78.5 14.25,-98.5 138.25,-98.5 138.25,-78.5 14.25,-78.5"/>
<text text-anchor="middle" x="76.25" y="-85" font-family="Helvetica,sans-Serif" font-size="10.00">DoubleCubeScene::Draw</text>
</a>
</g>
</g>
<!-- Node1&#45;&gt;Node8 -->
<g id="edge7" class="edge">
<title>Node1&#45;&gt;Node8</title>
<path fill="none" stroke="midnightblue" d="M213.35,-166C199.92,-148.63 177.61,-123.17 152.5,-108.5 145.38,-104.34 137.38,-101.03 129.33,-98.39"/>
<polygon fill="midnightblue" stroke="midnightblue" points="211.07,-167.79 219.86,-173.7 216.67,-163.6 211.07,-167.79"/>
</g>
<!-- Node9 -->
<g id="node9" class="node">
<title>Node9</title>
<g id="a_node9"><a xlink:href="class_geometry_flat_scene.html#aa5db5bbb8ea5e69cf430bbd4ab144054" target="_top" xlink:title=" ">
<polygon fill="none" stroke="black" points="10.88,-39.5 10.88,-59.5 141.62,-59.5 141.62,-39.5 10.88,-39.5"/>
<text text-anchor="middle" x="76.25" y="-46" font-family="Helvetica,sans-Serif" font-size="10.00">GeometryFlatScene::Draw</text>
</a>
</g>
</g>
<!-- Node1&#45;&gt;Node9 -->
<g id="edge8" class="edge">
<title>Node1&#45;&gt;Node9</title>
<path fill="none" stroke="midnightblue" d="M219.17,-164.63C208.43,-138.76 186.13,-93.97 152.5,-69.5 146.82,-65.36 140.34,-62.08 133.62,-59.48"/>
<polygon fill="midnightblue" stroke="midnightblue" points="216.24,-165.74 223.18,-173.75 222.75,-163.16 216.24,-165.74"/>
</g>
<!-- Node10 -->
<g id="node10" class="node">
<title>Node10</title>
<g id="a_node10"><a xlink:href="class_vertex_wave_scene.html#aed98f12c1ea59d6d6138498f75a106d6" target="_top" xlink:title=" ">
<polygon fill="none" stroke="black" points="14.25,-0.5 14.25,-20.5 138.25,-20.5 138.25,-0.5 14.25,-0.5"/>
<text text-anchor="middle" x="76.25" y="-7" font-family="Helvetica,sans-Serif" font-size="10.00">VertexWaveScene::Draw</text>
</a>
</g>
</g>
<!-- Node1&#45;&gt;Node10 -->
<g id="edge9" class="edge">
<title>Node1&#45;&gt;Node10</title>
<path fill="none" stroke="midnightblue" d="M222.59,-164.22C214.92,-131.13 195.06,-65.7 152.5,-30.5 147.5,-26.36 141.73,-23.08 135.65,-20.46"/>
<polygon fill="midnightblue" stroke="midnightblue" points="219.35,-164.79 224.88,-173.83 226.19,-163.32 219.35,-164.79"/>
</g>
</g>
</svg>
