<?xml version="1.0" encoding="UTF-8" standalone="no"?>
<!DOCTYPE svg PUBLIC "-//W3C//DTD SVG 1.1//EN"
 "http://www.w3.org/Graphics/SVG/1.1/DTD/svg11.dtd">
<!-- Generated by graphviz version 2.43.0 (0)
 -->
<!-- Title: Vector2::Normalize Pages: 1 -->
<svg width="772pt" height="66pt"
 viewBox="0.00 0.00 772.00 66.00" xmlns="http://www.w3.org/2000/svg" xmlns:xlink="http://www.w3.org/1999/xlink">
<g id="graph0" class="graph" transform="scale(1 1) rotate(0) translate(4 62)">
<title>Vector2::Normalize</title>
<!-- Node1 -->
<g id="node1" class="node">
<title>Node1</title>
<g id="a_node1"><a xlink:title=" ">
<polygon fill="#bfbfbf" stroke="black" points="0,-19.5 0,-38.5 110,-38.5 110,-19.5 0,-19.5"/>
<text text-anchor="middle" x="55" y="-26.5" font-family="Helvetica,sans-Serif" font-size="10.00">Vector2::Normalize</text>
</a>
</g>
</g>
<!-- Node2 -->
<g id="node2" class="node">
<title>Node2</title>
<g id="a_node2"><a xlink:href="classVector2.html#a09d30ae647f4a35a5abd61f14e002126" target="_top" xlink:title=" ">
<polygon fill="none" stroke="black" points="146,-19.5 146,-38.5 279,-38.5 279,-19.5 146,-19.5"/>
<text text-anchor="middle" x="212.5" y="-26.5" font-family="Helvetica,sans-Serif" font-size="10.00">Vector2::GetNormalized</text>
</a>
</g>
</g>
<!-- Node1&#45;&gt;Node2 -->
<g id="edge1" class="edge">
<title>Node1&#45;&gt;Node2</title>
<path fill="none" stroke="midnightblue" d="M110.39,-29C118.63,-29 127.27,-29 135.86,-29"/>
<polygon fill="midnightblue" stroke="midnightblue" points="135.92,-32.5 145.92,-29 135.92,-25.5 135.92,-32.5"/>
</g>
<!-- Node3 -->
<g id="node3" class="node">
<title>Node3</title>
<g id="a_node3"><a xlink:href="classVector2.html#a3fa4c5b256684cc1b1a599e813195421" target="_top" xlink:title=" ">
<polygon fill="none" stroke="black" points="315,-38.5 315,-57.5 443,-57.5 443,-38.5 315,-38.5"/>
<text text-anchor="middle" x="379" y="-45.5" font-family="Helvetica,sans-Serif" font-size="10.00">Vector2::GetMagnitude</text>
</a>
</g>
</g>
<!-- Node2&#45;&gt;Node3 -->
<g id="edge2" class="edge">
<title>Node2&#45;&gt;Node3</title>
<path fill="none" stroke="midnightblue" d="M279.46,-36.62C287.79,-37.58 296.34,-38.57 304.77,-39.54"/>
<polygon fill="midnightblue" stroke="midnightblue" points="304.63,-43.05 314.96,-40.72 305.43,-36.09 304.63,-43.05"/>
</g>
<!-- Node6 -->
<g id="node6" class="node">
<title>Node6</title>
<g id="a_node6"><a xlink:href="classVector2.html#acdf634d147c60fa5b9e62335bc7d3076" target="_top" xlink:title=" ">
<polygon fill="none" stroke="black" points="331,-0.5 331,-19.5 427,-19.5 427,-0.5 331,-0.5"/>
<text text-anchor="middle" x="379" y="-7.5" font-family="Helvetica,sans-Serif" font-size="10.00">Vector2::Vector2</text>
</a>
</g>
</g>
<!-- Node2&#45;&gt;Node6 -->
<g id="edge5" class="edge">
<title>Node2&#45;&gt;Node6</title>
<path fill="none" stroke="midnightblue" d="M279.46,-21.38C293.14,-19.8 307.44,-18.15 320.77,-16.61"/>
<polygon fill="midnightblue" stroke="midnightblue" points="321.22,-20.08 330.75,-15.46 320.42,-13.13 321.22,-20.08"/>
</g>
<!-- Node4 -->
<g id="node4" class="node">
<title>Node4</title>
<g id="a_node4"><a xlink:href="classVector2.html#a3485163d5c4a6e20a44fb49c1ebe37a8" target="_top" xlink:title=" ">
<polygon fill="none" stroke="black" points="479,-38.5 479,-57.5 647,-57.5 647,-38.5 479,-38.5"/>
<text text-anchor="middle" x="563" y="-45.5" font-family="Helvetica,sans-Serif" font-size="10.00">Vector2::GetMagnitudeSquared</text>
</a>
</g>
</g>
<!-- Node3&#45;&gt;Node4 -->
<g id="edge3" class="edge">
<title>Node3&#45;&gt;Node4</title>
<path fill="none" stroke="midnightblue" d="M443.14,-48C451.41,-48 460.01,-48 468.65,-48"/>
<polygon fill="midnightblue" stroke="midnightblue" points="468.77,-51.5 478.77,-48 468.77,-44.5 468.77,-51.5"/>
</g>
<!-- Node5 -->
<g id="node5" class="node">
<title>Node5</title>
<g id="a_node5"><a xlink:href="namespaceMath.html#aaf39112a96239cbf99db4374c7beb3bd" target="_top" xlink:title=" ">
<polygon fill="none" stroke="black" points="683,-38.5 683,-57.5 764,-57.5 764,-38.5 683,-38.5"/>
<text text-anchor="middle" x="723.5" y="-45.5" font-family="Helvetica,sans-Serif" font-size="10.00">Math::Square</text>
</a>
</g>
</g>
<!-- Node4&#45;&gt;Node5 -->
<g id="edge4" class="edge">
<title>Node4&#45;&gt;Node5</title>
<path fill="none" stroke="midnightblue" d="M647.43,-48C656.13,-48 664.77,-48 672.92,-48"/>
<polygon fill="midnightblue" stroke="midnightblue" points="672.95,-51.5 682.95,-48 672.95,-44.5 672.95,-51.5"/>
</g>
</g>
</svg>
