<?xml version="1.0" encoding="UTF-8" standalone="no"?>
<!DOCTYPE svg PUBLIC "-//W3C//DTD SVG 1.1//EN"
 "http://www.w3.org/Graphics/SVG/1.1/DTD/svg11.dtd">
<!-- Generated by graphviz version 8.1.0 (20230707.0739)
 -->
<!-- Title: TexWrapCubeScene::Update Pages: 1 -->
<svg width="310pt" height="68pt"
 viewBox="0.00 0.00 310.00 68.00" xmlns="http://www.w3.org/2000/svg" xmlns:xlink="http://www.w3.org/1999/xlink">
<g id="graph0" class="graph" transform="scale(1 1) rotate(0) translate(4 64)">
<title>TexWrapCubeScene::Update</title>
<!-- Node1 -->
<g id="node1" class="node">
<title>Node1</title>
<g id="a_node1"><a xlink:title=" ">
<polygon fill="#bfbfbf" stroke="black" points="0,-19.5 0,-39.5 142,-39.5 142,-19.5 0,-19.5"/>
<text text-anchor="middle" x="71" y="-26" font-family="Helvetica,sans-Serif" font-size="10.00">TexWrapCubeScene::Update</text>
</a>
</g>
</g>
<!-- Node2 -->
<g id="node2" class="node">
<title>Node2</title>
<g id="a_node2"><a xlink:href="class_keyboard.html#a7b11ba07982539a0dd9b16b4706e7211" target="_top" xlink:title=" ">
<polygon fill="none" stroke="black" points="178,-39.5 178,-59.5 302,-59.5 302,-39.5 178,-39.5"/>
<text text-anchor="middle" x="240" y="-46" font-family="Helvetica,sans-Serif" font-size="10.00">Keyboard::KeyIsPressed</text>
</a>
</g>
</g>
<!-- Node1&#45;&gt;Node2 -->
<g id="edge1" class="edge">
<title>Node1&#45;&gt;Node2</title>
<path fill="none" stroke="midnightblue" d="M141.86,-37.87C150.34,-38.88 159.02,-39.92 167.52,-40.94"/>
<polygon fill="midnightblue" stroke="midnightblue" points="166.84,-44.5 177.18,-42.22 167.67,-37.55 166.84,-44.5"/>
</g>
<!-- Node3 -->
<g id="node3" class="node">
<title>Node3</title>
<g id="a_node3"><a xlink:href="namespace_math.html#a5bf97cccfc70f0c8b750396c70127573" target="_top" xlink:title=" ">
<polygon fill="none" stroke="black" points="195.62,-0.5 195.62,-20.5 284.38,-20.5 284.38,-0.5 195.62,-0.5"/>
<text text-anchor="middle" x="240" y="-7" font-family="Helvetica,sans-Serif" font-size="10.00">Math::wrapAngle</text>
</a>
</g>
</g>
<!-- Node1&#45;&gt;Node3 -->
<g id="edge2" class="edge">
<title>Node1&#45;&gt;Node3</title>
<path fill="none" stroke="midnightblue" d="M141.86,-21.55C156.24,-19.92 171.19,-18.22 184.91,-16.65"/>
<polygon fill="midnightblue" stroke="midnightblue" points="185.09,-20.04 194.63,-15.43 184.3,-13.09 185.09,-20.04"/>
</g>
</g>
</svg>
