<?xml version="1.0" encoding="UTF-8" standalone="no"?>
<!DOCTYPE svg PUBLIC "-//W3C//DTD SVG 1.1//EN"
 "http://www.w3.org/Graphics/SVG/1.1/DTD/svg11.dtd">
<!-- Generated by graphviz version 8.1.0 (20230707.0739)
 -->
<!-- Title: ZBuffer::Clear Pages: 1 -->
<svg width="416pt" height="248pt"
 viewBox="0.00 0.00 416.00 248.00" xmlns="http://www.w3.org/2000/svg" xmlns:xlink="http://www.w3.org/1999/xlink">
<g id="graph0" class="graph" transform="scale(1 1) rotate(0) translate(4 244)">
<title>ZBuffer::Clear</title>
<!-- Node1 -->
<g id="node1" class="node">
<title>Node1</title>
<g id="a_node1"><a xlink:title=" ">
<polygon fill="#bfbfbf" stroke="black" points="333.5,-109.5 333.5,-129.5 408,-129.5 408,-109.5 333.5,-109.5"/>
<text text-anchor="middle" x="370.75" y="-116" font-family="Helvetica,sans-Serif" font-size="10.00">ZBuffer::Clear</text>
</a>
</g>
</g>
<!-- Node2 -->
<g id="node2" class="node">
<title>Node2</title>
<g id="a_node2"><a xlink:href="class_pipeline.html#adf2322f3b604145324fe70fd45266b46" target="_top" xlink:title=" ">
<polygon fill="none" stroke="black" points="188.5,-109.5 188.5,-129.5 297.5,-129.5 297.5,-109.5 188.5,-109.5"/>
<text text-anchor="middle" x="243" y="-116" font-family="Helvetica,sans-Serif" font-size="10.00">Pipeline::BeginFrame</text>
</a>
</g>
</g>
<!-- Node1&#45;&gt;Node2 -->
<g id="edge1" class="edge">
<title>Node1&#45;&gt;Node2</title>
<path fill="none" stroke="midnightblue" d="M322.74,-119.5C314.47,-119.5 305.81,-119.5 297.38,-119.5"/>
<polygon fill="midnightblue" stroke="midnightblue" points="322.72,-123 332.72,-119.5 322.72,-116 322.72,-123"/>
</g>
<!-- Node3 -->
<g id="node3" class="node">
<title>Node3</title>
<g id="a_node3"><a xlink:href="class_cube_skin_scene.html#a48b277a1b41049e40ea70d90aa186627" target="_top" xlink:title=" ">
<polygon fill="none" stroke="black" points="19.5,-219.5 19.5,-239.5 133,-239.5 133,-219.5 19.5,-219.5"/>
<text text-anchor="middle" x="76.25" y="-226" font-family="Helvetica,sans-Serif" font-size="10.00">CubeSkinScene::Draw</text>
</a>
</g>
</g>
<!-- Node2&#45;&gt;Node3 -->
<g id="edge2" class="edge">
<title>Node2&#45;&gt;Node3</title>
<path fill="none" stroke="midnightblue" d="M228.81,-138.04C213.03,-158.83 184.68,-192.06 152.5,-210.5 146.07,-214.19 138.93,-217.16 131.68,-219.57"/>
<polygon fill="midnightblue" stroke="midnightblue" points="232.03,-140.58 235.15,-130.46 226.39,-136.42 232.03,-140.58"/>
</g>
<!-- Node4 -->
<g id="node4" class="node">
<title>Node4</title>
<g id="a_node4"><a xlink:href="class_cube_solid_scene.html#a889dfe03da33047374c1eb2291d5596e" target="_top" xlink:title=" ">
<polygon fill="none" stroke="black" points="18.38,-180.5 18.38,-200.5 134.12,-200.5 134.12,-180.5 18.38,-180.5"/>
<text text-anchor="middle" x="76.25" y="-187" font-family="Helvetica,sans-Serif" font-size="10.00">CubeSolidScene::Draw</text>
</a>
</g>
</g>
<!-- Node2&#45;&gt;Node4 -->
<g id="edge3" class="edge">
<title>Node2&#45;&gt;Node4</title>
<path fill="none" stroke="midnightblue" d="M218.84,-135.38C201.29,-146.8 176.23,-161.83 152.5,-171.5 143.89,-175.01 134.45,-178 125.26,-180.51"/>
<polygon fill="midnightblue" stroke="midnightblue" points="220.36,-137.91 226.76,-129.47 216.49,-132.08 220.36,-137.91"/>
</g>
<!-- Node5 -->
<g id="node5" class="node">
<title>Node5</title>
<g id="a_node5"><a xlink:href="class_cube_vertex_color_scene.html#ad2934096c9527e9dbb8cdcb9f8a45f80" target="_top" xlink:title=" ">
<polygon fill="none" stroke="black" points="17.62,-129.5 17.62,-161.5 134.88,-161.5 134.88,-129.5 17.62,-129.5"/>
<text text-anchor="start" x="25.62" y="-148" font-family="Helvetica,sans-Serif" font-size="10.00">CubeVertexColorScene</text>
<text text-anchor="middle" x="76.25" y="-136" font-family="Helvetica,sans-Serif" font-size="10.00">::Draw</text>
</a>
</g>
</g>
<!-- Node2&#45;&gt;Node5 -->
<g id="edge4" class="edge">
<title>Node2&#45;&gt;Node5</title>
<path fill="none" stroke="midnightblue" d="M177.82,-129.63C163.62,-131.87 148.65,-134.23 134.73,-136.43"/>
<polygon fill="midnightblue" stroke="midnightblue" points="178.18,-132.96 187.51,-127.94 177.09,-126.04 178.18,-132.96"/>
</g>
<!-- Node6 -->
<g id="node6" class="node">
<title>Node6</title>
<g id="a_node6"><a xlink:href="class_cube_vertex_position_color_scene.html#ae281a042a0863dbb9e3bb7a6070e58cc" target="_top" xlink:title=" ">
<polygon fill="none" stroke="black" points="0,-78.5 0,-110.5 152.5,-110.5 152.5,-78.5 0,-78.5"/>
<text text-anchor="start" x="8" y="-97" font-family="Helvetica,sans-Serif" font-size="10.00">CubeVertexPositionColorScene</text>
<text text-anchor="middle" x="76.25" y="-85" font-family="Helvetica,sans-Serif" font-size="10.00">::Draw</text>
</a>
</g>
</g>
<!-- Node2&#45;&gt;Node6 -->
<g id="edge5" class="edge">
<title>Node2&#45;&gt;Node6</title>
<path fill="none" stroke="midnightblue" d="M177.74,-109.75C169.4,-108.48 160.81,-107.18 152.32,-105.89"/>
<polygon fill="midnightblue" stroke="midnightblue" points="177.1,-113.34 187.51,-111.38 178.15,-106.42 177.1,-113.34"/>
</g>
<!-- Node7 -->
<g id="node7" class="node">
<title>Node7</title>
<g id="a_node7"><a xlink:href="class_double_cube_scene.html#a2f87358aaf1a53d1401ec11598d1eaa0" target="_top" xlink:title=" ">
<polygon fill="none" stroke="black" points="14.25,-39.5 14.25,-59.5 138.25,-59.5 138.25,-39.5 14.25,-39.5"/>
<text text-anchor="middle" x="76.25" y="-46" font-family="Helvetica,sans-Serif" font-size="10.00">DoubleCubeScene::Draw</text>
</a>
</g>
</g>
<!-- Node2&#45;&gt;Node7 -->
<g id="edge6" class="edge">
<title>Node2&#45;&gt;Node7</title>
<path fill="none" stroke="midnightblue" d="M218.09,-103.97C200.52,-93.11 175.75,-78.91 152.5,-69.5 142.85,-65.59 132.2,-62.23 122.02,-59.43"/>
<polygon fill="midnightblue" stroke="midnightblue" points="215.73,-107.25 226.06,-109.62 219.46,-101.33 215.73,-107.25"/>
</g>
<!-- Node8 -->
<g id="node8" class="node">
<title>Node8</title>
<g id="a_node8"><a xlink:href="class_vertex_wave_scene.html#aed98f12c1ea59d6d6138498f75a106d6" target="_top" xlink:title=" ">
<polygon fill="none" stroke="black" points="14.25,-0.5 14.25,-20.5 138.25,-20.5 138.25,-0.5 14.25,-0.5"/>
<text text-anchor="middle" x="76.25" y="-7" font-family="Helvetica,sans-Serif" font-size="10.00">VertexWaveScene::Draw</text>
</a>
</g>
</g>
<!-- Node2&#45;&gt;Node8 -->
<g id="edge7" class="edge">
<title>Node2&#45;&gt;Node8</title>
<path fill="none" stroke="midnightblue" d="M228.22,-100.86C212.23,-80.56 184,-48.58 152.5,-30.5 145.35,-26.39 137.33,-23.11 129.27,-20.49"/>
<polygon fill="midnightblue" stroke="midnightblue" points="226,-102.71 234.86,-108.52 231.55,-98.46 226,-102.71"/>
</g>
</g>
</svg>
