<?xml version="1.0" encoding="UTF-8" standalone="no"?>
<!DOCTYPE svg PUBLIC "-//W3C//DTD SVG 1.1//EN"
 "http://www.w3.org/Graphics/SVG/1.1/DTD/svg11.dtd">
<!-- Generated by graphviz version 8.1.0 (20230707.0739)
 -->
<!-- Title: VertexFlatEffect::VertexShader::operator() Pages: 1 -->
<svg width="406pt" height="68pt"
 viewBox="0.00 0.00 405.50 68.00" xmlns="http://www.w3.org/2000/svg" xmlns:xlink="http://www.w3.org/1999/xlink">
<g id="graph0" class="graph" transform="scale(1 1) rotate(0) translate(4 64)">
<title>VertexFlatEffect::VertexShader::operator()</title>
<!-- Node1 -->
<g id="node1" class="node">
<title>Node1</title>
<g id="a_node1"><a xlink:title=" ">
<polygon fill="#bfbfbf" stroke="black" points="0,-13.5 0,-45.5 120.25,-45.5 120.25,-13.5 0,-13.5"/>
<text text-anchor="start" x="8" y="-32" font-family="Helvetica,sans-Serif" font-size="10.00">VertexFlatEffect::Vertex</text>
<text text-anchor="middle" x="60.12" y="-20" font-family="Helvetica,sans-Serif" font-size="10.00">Shader::operator()</text>
</a>
</g>
</g>
<!-- Node2 -->
<g id="node2" class="node">
<title>Node2</title>
<g id="a_node2"><a xlink:href="class_vector3.html#a38e1d9f64ce8ff78a86b87f3826c1ee2" target="_top" xlink:title=" ">
<polygon fill="none" stroke="black" points="156.25,-39.5 156.25,-59.5 272,-59.5 272,-39.5 156.25,-39.5"/>
<text text-anchor="middle" x="214.12" y="-46" font-family="Helvetica,sans-Serif" font-size="10.00">Vector3::GetHadamard</text>
</a>
</g>
</g>
<!-- Node1&#45;&gt;Node2 -->
<g id="edge1" class="edge">
<title>Node1&#45;&gt;Node2</title>
<path fill="none" stroke="midnightblue" d="M119.89,-37.23C128.35,-38.35 137.11,-39.5 145.72,-40.63"/>
<polygon fill="midnightblue" stroke="midnightblue" points="145.14,-44.22 155.51,-42.05 146.05,-37.28 145.14,-44.22"/>
</g>
<!-- Node4 -->
<g id="node4" class="node">
<title>Node4</title>
<g id="a_node4"><a xlink:href="class_vector3.html#a7a46fa3ba23eddf38c884a9b4b4baa0b" target="_top" xlink:title=" ">
<polygon fill="none" stroke="black" points="167.88,-0.5 167.88,-20.5 260.38,-20.5 260.38,-0.5 167.88,-0.5"/>
<text text-anchor="middle" x="214.12" y="-7" font-family="Helvetica,sans-Serif" font-size="10.00">Vector3::Saturate</text>
</a>
</g>
</g>
<!-- Node1&#45;&gt;Node4 -->
<g id="edge3" class="edge">
<title>Node1&#45;&gt;Node4</title>
<path fill="none" stroke="midnightblue" d="M119.89,-22.15C132.3,-20.6 145.35,-18.97 157.63,-17.44"/>
<polygon fill="midnightblue" stroke="midnightblue" points="157.7,-20.83 167.19,-16.12 156.83,-13.88 157.7,-20.83"/>
</g>
<!-- Node3 -->
<g id="node3" class="node">
<title>Node3</title>
<g id="a_node3"><a xlink:href="class_vector3.html#a515f2c0f2383c0e3083321745b708463" target="_top" xlink:title=" ">
<polygon fill="none" stroke="black" points="308,-39.5 308,-59.5 397.5,-59.5 397.5,-39.5 308,-39.5"/>
<text text-anchor="middle" x="352.75" y="-46" font-family="Helvetica,sans-Serif" font-size="10.00">Vector3::Vector3</text>
</a>
</g>
</g>
<!-- Node2&#45;&gt;Node3 -->
<g id="edge2" class="edge">
<title>Node2&#45;&gt;Node3</title>
<path fill="none" stroke="midnightblue" d="M271.88,-49.5C280.34,-49.5 289.05,-49.5 297.46,-49.5"/>
<polygon fill="midnightblue" stroke="midnightblue" points="297.3,-53 307.3,-49.5 297.3,-46 297.3,-53"/>
</g>
</g>
</svg>
