<?xml version="1.0" encoding="UTF-8" standalone="no"?>
<!DOCTYPE svg PUBLIC "-//W3C//DTD SVG 1.1//EN"
 "http://www.w3.org/Graphics/SVG/1.1/DTD/svg11.dtd">
<!-- Generated by graphviz version 2.43.0 (0)
 -->
<!-- Title: Vector3::Saturate Pages: 1 -->
<svg width="305pt" height="127pt"
 viewBox="0.00 0.00 305.00 126.50" xmlns="http://www.w3.org/2000/svg" xmlns:xlink="http://www.w3.org/1999/xlink">
<g id="graph0" class="graph" transform="scale(1 1) rotate(0) translate(4 122.5)">
<title>Vector3::Saturate</title>
<!-- Node1 -->
<g id="node1" class="node">
<title>Node1</title>
<g id="a_node1"><a xlink:title=" ">
<polygon fill="#bfbfbf" stroke="black" points="196,-55 196,-74 297,-74 297,-55 196,-55"/>
<text text-anchor="middle" x="246.5" y="-62" font-family="Helvetica,sans-Serif" font-size="10.00">Vector3::Saturate</text>
</a>
</g>
</g>
<!-- Node2 -->
<g id="node2" class="node">
<title>Node2</title>
<g id="a_node2"><a xlink:href="classVector3.html#aa3844aebe353eafd860e9de078c25a08" target="_top" xlink:title=" ">
<polygon fill="none" stroke="black" points="18,-99 18,-118 142,-118 142,-99 18,-99"/>
<text text-anchor="middle" x="80" y="-106" font-family="Helvetica,sans-Serif" font-size="10.00">Vector3::GetSaturated</text>
</a>
</g>
</g>
<!-- Node1&#45;&gt;Node2 -->
<g id="edge1" class="edge">
<title>Node1&#45;&gt;Node2</title>
<path fill="none" stroke="midnightblue" d="M204.46,-76.94C190.4,-81.08 174.55,-85.63 160,-89.5 147.87,-92.73 134.62,-96.01 122.51,-98.92"/>
<polygon fill="midnightblue" stroke="midnightblue" points="205.74,-80.21 214.33,-74.01 203.75,-73.5 205.74,-80.21"/>
</g>
<!-- Node3 -->
<g id="node3" class="node">
<title>Node3</title>
<g id="a_node3"><a xlink:href="classVertexFlatEffect_1_1VertexShader.html#a5730ea8d60ef2a0d7a80ccfdd6996918" target="_top" xlink:title=" ">
<polygon fill="none" stroke="black" points="14,-49.5 14,-79.5 146,-79.5 146,-49.5 14,-49.5"/>
<text text-anchor="start" x="22" y="-67.5" font-family="Helvetica,sans-Serif" font-size="10.00">VertexFlatEffect::Vertex</text>
<text text-anchor="middle" x="80" y="-56.5" font-family="Helvetica,sans-Serif" font-size="10.00">Shader::operator()</text>
</a>
</g>
</g>
<!-- Node1&#45;&gt;Node3 -->
<g id="edge2" class="edge">
<title>Node1&#45;&gt;Node3</title>
<path fill="none" stroke="midnightblue" d="M185.6,-64.5C172.77,-64.5 159.16,-64.5 146.14,-64.5"/>
<polygon fill="midnightblue" stroke="midnightblue" points="185.7,-68 195.7,-64.5 185.7,-61 185.7,-68"/>
</g>
<!-- Node4 -->
<g id="node4" class="node">
<title>Node4</title>
<g id="a_node4"><a xlink:href="classGeometryFlatEffect_1_1GeometryShader.html#a84bd7b52ddfb6c22dfe57eaacdf7a50f" target="_top" xlink:title=" ">
<polygon fill="none" stroke="black" points="0,-0.5 0,-30.5 160,-30.5 160,-0.5 0,-0.5"/>
<text text-anchor="start" x="8" y="-18.5" font-family="Helvetica,sans-Serif" font-size="10.00">GeometryFlatEffect</text>
<text text-anchor="middle" x="80" y="-7.5" font-family="Helvetica,sans-Serif" font-size="10.00">::GeometryShader::operator()</text>
</a>
</g>
</g>
<!-- Node1&#45;&gt;Node4 -->
<g id="edge3" class="edge">
<title>Node1&#45;&gt;Node4</title>
<path fill="none" stroke="midnightblue" d="M203.69,-52.05C181.72,-45.5 154.62,-37.43 131.48,-30.54"/>
<polygon fill="midnightblue" stroke="midnightblue" points="202.81,-55.44 213.39,-54.94 204.81,-48.73 202.81,-55.44"/>
</g>
</g>
</svg>
