<?xml version="1.0" encoding="UTF-8" standalone="no"?>
<!DOCTYPE svg PUBLIC "-//W3C//DTD SVG 1.1//EN"
 "http://www.w3.org/Graphics/SVG/1.1/DTD/svg11.dtd">
<!-- Generated by graphviz version 8.1.0 (20230707.0739)
 -->
<!-- Title: TexCubeScene::Draw Pages: 1 -->
<svg width="572pt" height="311pt"
 viewBox="0.00 0.00 572.25 311.00" xmlns="http://www.w3.org/2000/svg" xmlns:xlink="http://www.w3.org/1999/xlink">
<g id="graph0" class="graph" transform="scale(1 1) rotate(0) translate(4 307)">
<title>TexCubeScene::Draw</title>
<!-- Node1 -->
<g id="node1" class="node">
<title>Node1</title>
<g id="a_node1"><a xlink:title=" ">
<polygon fill="#bfbfbf" stroke="black" points="0,-129.5 0,-149.5 109.75,-149.5 109.75,-129.5 0,-129.5"/>
<text text-anchor="middle" x="54.88" y="-136" font-family="Helvetica,sans-Serif" font-size="10.00">TexCubeScene::Draw</text>
</a>
</g>
</g>
<!-- Node2 -->
<g id="node2" class="node">
<title>Node2</title>
<g id="a_node2"><a xlink:href="class_matrix3.html#a3672400f647456083337d53db6478505" target="_top" xlink:title=" ">
<polygon fill="none" stroke="black" points="159.25,-270.5 159.25,-302.5 283.25,-302.5 283.25,-270.5 159.25,-270.5"/>
<text text-anchor="start" x="167.25" y="-289" font-family="Helvetica,sans-Serif" font-size="10.00">Matrix3::CreateXRotation</text>
<text text-anchor="middle" x="221.25" y="-277" font-family="Helvetica,sans-Serif" font-size="10.00">Matrix</text>
</a>
</g>
</g>
<!-- Node1&#45;&gt;Node2 -->
<g id="edge1" class="edge">
<title>Node1&#45;&gt;Node2</title>
<path fill="none" stroke="midnightblue" d="M60.45,-149.32C71.67,-172.34 102.8,-230.2 145.75,-261.5 147.68,-262.9 149.69,-264.23 151.76,-265.49"/>
<polygon fill="midnightblue" stroke="midnightblue" points="149.73,-268.91 160.2,-270.56 153.04,-262.74 149.73,-268.91"/>
</g>
<!-- Node3 -->
<g id="node3" class="node">
<title>Node3</title>
<g id="a_node3"><a xlink:href="class_matrix3.html#ae2e635e8fc49db308a95dde2a5518bbc" target="_top" xlink:title=" ">
<polygon fill="none" stroke="black" points="158.5,-219.5 158.5,-251.5 284,-251.5 284,-219.5 158.5,-219.5"/>
<text text-anchor="start" x="166.5" y="-238" font-family="Helvetica,sans-Serif" font-size="10.00">Matrix3::CreateYRotation</text>
<text text-anchor="middle" x="221.25" y="-226" font-family="Helvetica,sans-Serif" font-size="10.00">Matrix</text>
</a>
</g>
</g>
<!-- Node1&#45;&gt;Node3 -->
<g id="edge2" class="edge">
<title>Node1&#45;&gt;Node3</title>
<path fill="none" stroke="midnightblue" d="M65.83,-149.3C81.57,-164.34 113.75,-193.18 145.75,-210.5 148.97,-212.24 152.33,-213.89 155.77,-215.45"/>
<polygon fill="midnightblue" stroke="midnightblue" points="154.03,-218.94 164.61,-219.61 156.76,-212.49 154.03,-218.94"/>
</g>
<!-- Node4 -->
<g id="node4" class="node">
<title>Node4</title>
<g id="a_node4"><a xlink:href="class_matrix3.html#a7b88435a5d6c183b5b46efa2b6dbcb3a" target="_top" xlink:title=" ">
<polygon fill="none" stroke="black" points="159.25,-168.5 159.25,-200.5 283.25,-200.5 283.25,-168.5 159.25,-168.5"/>
<text text-anchor="start" x="167.25" y="-187" font-family="Helvetica,sans-Serif" font-size="10.00">Matrix3::CreateZRotation</text>
<text text-anchor="middle" x="221.25" y="-175" font-family="Helvetica,sans-Serif" font-size="10.00">Matrix</text>
</a>
</g>
</g>
<!-- Node1&#45;&gt;Node4 -->
<g id="edge3" class="edge">
<title>Node1&#45;&gt;Node4</title>
<path fill="none" stroke="midnightblue" d="M92.36,-149.49C109.75,-154.25 131.16,-160.11 151.44,-165.66"/>
<polygon fill="midnightblue" stroke="midnightblue" points="150.35,-169.27 160.92,-168.53 152.2,-162.52 150.35,-169.27"/>
</g>
<!-- Node5 -->
<g id="node5" class="node">
<title>Node5</title>
<g id="a_node5"><a xlink:href="class_vector3.html#af6770ab3b9092e848317aaf6e7d77803" target="_top" xlink:title=" ">
<polygon fill="none" stroke="black" points="145.75,-129.5 145.75,-149.5 296.75,-149.5 296.75,-129.5 145.75,-129.5"/>
<text text-anchor="middle" x="221.25" y="-136" font-family="Helvetica,sans-Serif" font-size="10.00">Vector3&lt; float &gt;::CrossProduct</text>
</a>
</g>
</g>
<!-- Node1&#45;&gt;Node5 -->
<g id="edge4" class="edge">
<title>Node1&#45;&gt;Node5</title>
<path fill="none" stroke="midnightblue" d="M109.7,-139.5C117.86,-139.5 126.45,-139.5 135.08,-139.5"/>
<polygon fill="midnightblue" stroke="midnightblue" points="135.01,-143 145.01,-139.5 135.01,-136 135.01,-143"/>
</g>
<!-- Node6 -->
<g id="node6" class="node">
<title>Node6</title>
<g id="a_node6"><a xlink:href="class_graphics.html#a177d7de69de04edd682cc023bc1e16c9" target="_top" xlink:title=" ">
<polygon fill="none" stroke="black" points="155.12,-90.5 155.12,-110.5 287.38,-110.5 287.38,-90.5 155.12,-90.5"/>
<text text-anchor="middle" x="221.25" y="-97" font-family="Helvetica,sans-Serif" font-size="10.00">Graphics::DrawTriangleTex</text>
</a>
</g>
</g>
<!-- Node1&#45;&gt;Node6 -->
<g id="edge5" class="edge">
<title>Node1&#45;&gt;Node6</title>
<path fill="none" stroke="midnightblue" d="M97.78,-129.56C119.05,-124.51 145.09,-118.33 167.69,-112.97"/>
<polygon fill="midnightblue" stroke="midnightblue" points="168.22,-116.21 177.14,-110.49 166.6,-109.39 168.22,-116.21"/>
</g>
<!-- Node10 -->
<g id="node10" class="node">
<title>Node10</title>
<g id="a_node10"><a xlink:href="class_cube.html#a03bc74c202049266ea91bd58f9e5b0f7" target="_top" xlink:title=" ">
<polygon fill="none" stroke="black" points="163.75,-51.5 163.75,-71.5 278.75,-71.5 278.75,-51.5 163.75,-51.5"/>
<text text-anchor="middle" x="221.25" y="-58" font-family="Helvetica,sans-Serif" font-size="10.00">Cube::GetTrianglesTex</text>
</a>
</g>
</g>
<!-- Node1&#45;&gt;Node10 -->
<g id="edge9" class="edge">
<title>Node1&#45;&gt;Node10</title>
<path fill="none" stroke="midnightblue" d="M68.25,-129.71C84.95,-116.95 116.05,-94.68 145.75,-81.5 151.47,-78.96 157.59,-76.68 163.77,-74.65"/>
<polygon fill="midnightblue" stroke="midnightblue" points="164.63,-77.74 173.17,-71.47 162.58,-71.05 164.63,-77.74"/>
</g>
<!-- Node11 -->
<g id="node11" class="node">
<title>Node11</title>
<g id="a_node11"><a xlink:href="class_pube_screen_transformer.html#a1cdbac114c52bfc52aaec9da0e68b5a0" target="_top" xlink:title=" ">
<polygon fill="none" stroke="black" points="161.12,-0.5 161.12,-32.5 281.38,-32.5 281.38,-0.5 161.12,-0.5"/>
<text text-anchor="start" x="169.12" y="-19" font-family="Helvetica,sans-Serif" font-size="10.00">PubeScreenTransformer</text>
<text text-anchor="middle" x="221.25" y="-7" font-family="Helvetica,sans-Serif" font-size="10.00">::Transform</text>
</a>
</g>
</g>
<!-- Node1&#45;&gt;Node11 -->
<g id="edge10" class="edge">
<title>Node1&#45;&gt;Node11</title>
<path fill="none" stroke="midnightblue" d="M62.37,-129.78C75.75,-110.47 108.29,-67.02 145.75,-42.5 148.67,-40.59 151.75,-38.8 154.93,-37.12"/>
<polygon fill="midnightblue" stroke="midnightblue" points="156.18,-39.93 163.69,-32.45 153.16,-33.61 156.18,-39.93"/>
</g>
<!-- Node7 -->
<g id="node7" class="node">
<title>Node7</title>
<g id="a_node7"><a xlink:href="class_tex_vertex.html#a95d346af8d4fb15e8ac3167552f40de8" target="_top" xlink:title=" ">
<polygon fill="none" stroke="black" points="332.75,-90.5 332.75,-110.5 417.75,-110.5 417.75,-90.5 332.75,-90.5"/>
<text text-anchor="middle" x="375.25" y="-97" font-family="Helvetica,sans-Serif" font-size="10.00">TexVertex::Lerp</text>
</a>
</g>
</g>
<!-- Node6&#45;&gt;Node7 -->
<g id="edge6" class="edge">
<title>Node6&#45;&gt;Node7</title>
<path fill="none" stroke="midnightblue" d="M287.15,-100.5C298.77,-100.5 310.74,-100.5 321.95,-100.5"/>
<polygon fill="midnightblue" stroke="midnightblue" points="321.87,-104 331.87,-100.5 321.87,-97 321.87,-104"/>
</g>
<!-- Node8 -->
<g id="node8" class="node">
<title>Node8</title>
<g id="a_node8"><a xlink:href="class_vector2.html#aa1432a83c17f78b496bcad76a41c27af" target="_top" xlink:title=" ">
<polygon fill="none" stroke="black" points="453.75,-110.5 453.75,-130.5 564.25,-130.5 564.25,-110.5 453.75,-110.5"/>
<text text-anchor="middle" x="509" y="-117" font-family="Helvetica,sans-Serif" font-size="10.00">Vector2&lt; float &gt;::Lerp</text>
</a>
</g>
</g>
<!-- Node7&#45;&gt;Node8 -->
<g id="edge7" class="edge">
<title>Node7&#45;&gt;Node8</title>
<path fill="none" stroke="midnightblue" d="M417.58,-106.77C425.64,-108 434.28,-109.31 442.9,-110.62"/>
<polygon fill="midnightblue" stroke="midnightblue" points="442.35,-114.23 452.76,-112.27 443.4,-107.31 442.35,-114.23"/>
</g>
<!-- Node9 -->
<g id="node9" class="node">
<title>Node9</title>
<g id="a_node9"><a xlink:href="class_vector3.html#a81b5c061ed2ace3d514b2037d299b64a" target="_top" xlink:title=" ">
<polygon fill="none" stroke="black" points="453.75,-71.5 453.75,-91.5 564.25,-91.5 564.25,-71.5 453.75,-71.5"/>
<text text-anchor="middle" x="509" y="-78" font-family="Helvetica,sans-Serif" font-size="10.00">Vector3&lt; float &gt;::Lerp</text>
</a>
</g>
</g>
<!-- Node7&#45;&gt;Node9 -->
<g id="edge8" class="edge">
<title>Node7&#45;&gt;Node9</title>
<path fill="none" stroke="midnightblue" d="M417.58,-94.54C425.64,-93.38 434.28,-92.13 442.9,-90.89"/>
<polygon fill="midnightblue" stroke="midnightblue" points="443.37,-94.21 452.76,-89.32 442.37,-87.28 443.37,-94.21"/>
</g>
</g>
</svg>
