<?xml version="1.0" encoding="UTF-8" standalone="no"?>
<!DOCTYPE svg PUBLIC "-//W3C//DTD SVG 1.1//EN"
 "http://www.w3.org/Graphics/SVG/1.1/DTD/svg11.dtd">
<!-- Generated by graphviz version 2.43.0 (0)
 -->
<!-- Title: CubeSolidGeometryScene::Draw Pages: 1 -->
<svg width="444pt" height="214pt"
 viewBox="0.00 0.00 444.00 214.00" xmlns="http://www.w3.org/2000/svg" xmlns:xlink="http://www.w3.org/1999/xlink">
<g id="graph0" class="graph" transform="scale(1 1) rotate(0) translate(4 210)">
<title>CubeSolidGeometryScene::Draw</title>
<!-- Node1 -->
<g id="node1" class="node">
<title>Node1</title>
<g id="a_node1"><a xlink:title=" ">
<polygon fill="#bfbfbf" stroke="black" points="0,-88 0,-118 143,-118 143,-88 0,-88"/>
<text text-anchor="start" x="8" y="-106" font-family="Helvetica,sans-Serif" font-size="10.00">CubeSolidGeometryScene</text>
<text text-anchor="middle" x="71.5" y="-95" font-family="Helvetica,sans-Serif" font-size="10.00">::Draw</text>
</a>
</g>
</g>
<!-- Node2 -->
<g id="node2" class="node">
<title>Node2</title>
<g id="a_node2"><a xlink:href="classPipeline.html#adf2322f3b604145324fe70fd45266b46" target="_top" xlink:title=" ">
<polygon fill="none" stroke="black" points="187.5,-186.5 187.5,-205.5 307.5,-205.5 307.5,-186.5 187.5,-186.5"/>
<text text-anchor="middle" x="247.5" y="-193.5" font-family="Helvetica,sans-Serif" font-size="10.00">Pipeline::BeginFrame</text>
</a>
</g>
</g>
<!-- Node1&#45;&gt;Node2 -->
<g id="edge1" class="edge">
<title>Node1&#45;&gt;Node2</title>
<path fill="none" stroke="midnightblue" d="M90.2,-118.09C110.45,-134.67 145.2,-161.05 179,-177 183.95,-179.34 189.25,-181.44 194.62,-183.32"/>
<polygon fill="midnightblue" stroke="midnightblue" points="193.71,-186.7 204.3,-186.46 195.87,-180.04 193.71,-186.7"/>
</g>
<!-- Node4 -->
<g id="node4" class="node">
<title>Node4</title>
<g id="a_node4"><a xlink:href="classMatrix3.html#a3672400f647456083337d53db6478505" target="_top" xlink:title=" ">
<polygon fill="none" stroke="black" points="179,-137 179,-167 316,-167 316,-137 179,-137"/>
<text text-anchor="start" x="187" y="-155" font-family="Helvetica,sans-Serif" font-size="10.00">Matrix3&lt; float &gt;::Create</text>
<text text-anchor="middle" x="247.5" y="-144" font-family="Helvetica,sans-Serif" font-size="10.00">XRotationMatrix</text>
</a>
</g>
</g>
<!-- Node1&#45;&gt;Node4 -->
<g id="edge3" class="edge">
<title>Node1&#45;&gt;Node4</title>
<path fill="none" stroke="midnightblue" d="M126.13,-118.1C144.24,-123.2 164.62,-128.94 183.4,-134.23"/>
<polygon fill="midnightblue" stroke="midnightblue" points="182.48,-137.61 193.05,-136.95 184.37,-130.87 182.48,-137.61"/>
</g>
<!-- Node5 -->
<g id="node5" class="node">
<title>Node5</title>
<g id="a_node5"><a xlink:href="classMatrix3.html#ae2e635e8fc49db308a95dde2a5518bbc" target="_top" xlink:title=" ">
<polygon fill="none" stroke="black" points="179,-88 179,-118 316,-118 316,-88 179,-88"/>
<text text-anchor="start" x="187" y="-106" font-family="Helvetica,sans-Serif" font-size="10.00">Matrix3&lt; float &gt;::Create</text>
<text text-anchor="middle" x="247.5" y="-95" font-family="Helvetica,sans-Serif" font-size="10.00">YRotationMatrix</text>
</a>
</g>
</g>
<!-- Node1&#45;&gt;Node5 -->
<g id="edge4" class="edge">
<title>Node1&#45;&gt;Node5</title>
<path fill="none" stroke="midnightblue" d="M143.02,-103C151.55,-103 160.3,-103 168.93,-103"/>
<polygon fill="midnightblue" stroke="midnightblue" points="168.98,-106.5 178.98,-103 168.98,-99.5 168.98,-106.5"/>
</g>
<!-- Node6 -->
<g id="node6" class="node">
<title>Node6</title>
<g id="a_node6"><a xlink:href="classMatrix3.html#a7b88435a5d6c183b5b46efa2b6dbcb3a" target="_top" xlink:title=" ">
<polygon fill="none" stroke="black" points="179,-39 179,-69 316,-69 316,-39 179,-39"/>
<text text-anchor="start" x="187" y="-57" font-family="Helvetica,sans-Serif" font-size="10.00">Matrix3&lt; float &gt;::Create</text>
<text text-anchor="middle" x="247.5" y="-46" font-family="Helvetica,sans-Serif" font-size="10.00">ZRotationMatrix</text>
</a>
</g>
</g>
<!-- Node1&#45;&gt;Node6 -->
<g id="edge5" class="edge">
<title>Node1&#45;&gt;Node6</title>
<path fill="none" stroke="midnightblue" d="M126.13,-87.9C144.24,-82.8 164.62,-77.06 183.4,-71.77"/>
<polygon fill="midnightblue" stroke="midnightblue" points="184.37,-75.13 193.05,-69.05 182.48,-68.39 184.37,-75.13"/>
</g>
<!-- Node7 -->
<g id="node7" class="node">
<title>Node7</title>
<g id="a_node7"><a xlink:href="classPipeline.html#a76274774f61e4b5a1c708decf65712b9" target="_top" xlink:title=" ">
<polygon fill="none" stroke="black" points="204,-0.5 204,-19.5 291,-19.5 291,-0.5 204,-0.5"/>
<text text-anchor="middle" x="247.5" y="-7.5" font-family="Helvetica,sans-Serif" font-size="10.00">Pipeline::Draw</text>
</a>
</g>
</g>
<!-- Node1&#45;&gt;Node7 -->
<g id="edge6" class="edge">
<title>Node1&#45;&gt;Node7</title>
<path fill="none" stroke="midnightblue" d="M90.65,-87.91C111.02,-71.63 145.61,-45.9 179,-30 184.72,-27.28 190.89,-24.83 197.1,-22.67"/>
<polygon fill="midnightblue" stroke="midnightblue" points="198.39,-25.93 206.82,-19.51 196.23,-19.28 198.39,-25.93"/>
</g>
<!-- Node3 -->
<g id="node3" class="node">
<title>Node3</title>
<g id="a_node3"><a xlink:href="classZBuffer.html#af1a6407078bb83629e3b4dec9f0554cf" target="_top" xlink:title=" ">
<polygon fill="none" stroke="black" points="352,-186.5 352,-205.5 436,-205.5 436,-186.5 352,-186.5"/>
<text text-anchor="middle" x="394" y="-193.5" font-family="Helvetica,sans-Serif" font-size="10.00">ZBuffer::Clear</text>
</a>
</g>
</g>
<!-- Node2&#45;&gt;Node3 -->
<g id="edge2" class="edge">
<title>Node2&#45;&gt;Node3</title>
<path fill="none" stroke="midnightblue" d="M307.69,-196C318.91,-196 330.57,-196 341.53,-196"/>
<polygon fill="midnightblue" stroke="midnightblue" points="341.79,-199.5 351.79,-196 341.79,-192.5 341.79,-199.5"/>
</g>
</g>
</svg>
