<?xml version="1.0" encoding="UTF-8" standalone="no"?>
<!DOCTYPE svg PUBLIC "-//W3C//DTD SVG 1.1//EN"
 "http://www.w3.org/Graphics/SVG/1.1/DTD/svg11.dtd">
<!-- Generated by graphviz version 2.43.0 (0)
 -->
<!-- Title: CubeSkinScene::Update Pages: 1 -->
<svg width="310pt" height="66pt"
 viewBox="0.00 0.00 310.00 66.00" xmlns="http://www.w3.org/2000/svg" xmlns:xlink="http://www.w3.org/1999/xlink">
<g id="graph0" class="graph" transform="scale(1 1) rotate(0) translate(4 62)">
<title>CubeSkinScene::Update</title>
<!-- Node1 -->
<g id="node1" class="node">
<title>Node1</title>
<g id="a_node1"><a xlink:title=" ">
<polygon fill="#bfbfbf" stroke="black" points="0,-19.5 0,-38.5 133,-38.5 133,-19.5 0,-19.5"/>
<text text-anchor="middle" x="66.5" y="-26.5" font-family="Helvetica,sans-Serif" font-size="10.00">CubeSkinScene::Update</text>
</a>
</g>
</g>
<!-- Node2 -->
<g id="node2" class="node">
<title>Node2</title>
<g id="a_node2"><a xlink:href="classKeyboard.html#a7b11ba07982539a0dd9b16b4706e7211" target="_top" xlink:title=" ">
<polygon fill="none" stroke="black" points="169,-38.5 169,-57.5 302,-57.5 302,-38.5 169,-38.5"/>
<text text-anchor="middle" x="235.5" y="-45.5" font-family="Helvetica,sans-Serif" font-size="10.00">Keyboard::KeyIsPressed</text>
</a>
</g>
</g>
<!-- Node1&#45;&gt;Node2 -->
<g id="edge1" class="edge">
<title>Node1&#45;&gt;Node2</title>
<path fill="none" stroke="midnightblue" d="M133.02,-36.45C141.5,-37.42 150.23,-38.41 158.85,-39.39"/>
<polygon fill="midnightblue" stroke="midnightblue" points="158.56,-42.88 168.89,-40.54 159.35,-35.93 158.56,-42.88"/>
</g>
<!-- Node3 -->
<g id="node3" class="node">
<title>Node3</title>
<g id="a_node3"><a xlink:href="namespaceMath.html#abb70099a95f7e3ae8eb62c3694775a6b" target="_top" xlink:title=" ">
<polygon fill="none" stroke="black" points="185,-0.5 185,-19.5 286,-19.5 286,-0.5 185,-0.5"/>
<text text-anchor="middle" x="235.5" y="-7.5" font-family="Helvetica,sans-Serif" font-size="10.00">Math::WrapAngle</text>
</a>
</g>
</g>
<!-- Node1&#45;&gt;Node3 -->
<g id="edge2" class="edge">
<title>Node1&#45;&gt;Node3</title>
<path fill="none" stroke="midnightblue" d="M133.02,-21.55C146.79,-19.98 161.23,-18.34 174.77,-16.8"/>
<polygon fill="midnightblue" stroke="midnightblue" points="175.38,-20.25 184.92,-15.64 174.59,-13.29 175.38,-20.25"/>
</g>
</g>
</svg>
