<?xml version="1.0" encoding="UTF-8" standalone="no"?>
<!DOCTYPE svg PUBLIC "-//W3C//DTD SVG 1.1//EN"
 "http://www.w3.org/Graphics/SVG/1.1/DTD/svg11.dtd">
<!-- Generated by graphviz version 2.43.0 (0)
 -->
<!-- Title: VertexPositionColorEffect::VertexShader::Output::Output Pages: 1 -->
<svg width="324pt" height="230pt"
 viewBox="0.00 0.00 324.00 230.00" xmlns="http://www.w3.org/2000/svg" xmlns:xlink="http://www.w3.org/1999/xlink">
<g id="graph0" class="graph" transform="scale(1 1) rotate(0) translate(4 226)">
<title>VertexPositionColorEffect::VertexShader::Output::Output</title>
<!-- Node1 -->
<g id="node1" class="node">
<title>Node1</title>
<g id="a_node1"><a xlink:title=" ">
<polygon fill="#bfbfbf" stroke="black" points="176,-90.5 176,-131.5 316,-131.5 316,-90.5 176,-90.5"/>
<text text-anchor="start" x="184" y="-119.5" font-family="Helvetica,sans-Serif" font-size="10.00">VertexPositionColorEffect</text>
<text text-anchor="start" x="184" y="-108.5" font-family="Helvetica,sans-Serif" font-size="10.00">::VertexShader::Output</text>
<text text-anchor="middle" x="246" y="-97.5" font-family="Helvetica,sans-Serif" font-size="10.00">::Output</text>
</a>
</g>
</g>
<!-- Node2 -->
<g id="node2" class="node">
<title>Node2</title>
<g id="a_node2"><a xlink:href="classVertexPositionColorEffect_1_1VertexShader_1_1Output.html#a1e8c12514b4671fafd5adb34be77b7df" target="_top" xlink:title=" ">
<polygon fill="none" stroke="black" points="0,-180.5 0,-221.5 140,-221.5 140,-180.5 0,-180.5"/>
<text text-anchor="start" x="8" y="-209.5" font-family="Helvetica,sans-Serif" font-size="10.00">VertexPositionColorEffect</text>
<text text-anchor="start" x="8" y="-198.5" font-family="Helvetica,sans-Serif" font-size="10.00">::VertexShader::Output</text>
<text text-anchor="middle" x="70" y="-187.5" font-family="Helvetica,sans-Serif" font-size="10.00">::operator*</text>
</a>
</g>
</g>
<!-- Node1&#45;&gt;Node2 -->
<g id="edge1" class="edge">
<title>Node1&#45;&gt;Node2</title>
<path fill="none" stroke="midnightblue" d="M202.34,-136.78C183.49,-147.81 160.9,-160.52 140,-171 133.69,-174.16 126.98,-177.32 120.31,-180.35"/>
<polygon fill="midnightblue" stroke="midnightblue" points="204.15,-139.78 210.99,-131.69 200.6,-133.75 204.15,-139.78"/>
</g>
<!-- Node3 -->
<g id="node3" class="node">
<title>Node3</title>
<g id="a_node3"><a xlink:href="classVertexPositionColorEffect_1_1VertexShader_1_1Output.html#a37948199eed7430b9e76911eadd2e3b3" target="_top" xlink:title=" ">
<polygon fill="none" stroke="black" points="0,-120.5 0,-161.5 140,-161.5 140,-120.5 0,-120.5"/>
<text text-anchor="start" x="8" y="-149.5" font-family="Helvetica,sans-Serif" font-size="10.00">VertexPositionColorEffect</text>
<text text-anchor="start" x="8" y="-138.5" font-family="Helvetica,sans-Serif" font-size="10.00">::VertexShader::Output</text>
<text text-anchor="middle" x="70" y="-127.5" font-family="Helvetica,sans-Serif" font-size="10.00">::operator+</text>
</a>
</g>
</g>
<!-- Node1&#45;&gt;Node3 -->
<g id="edge2" class="edge">
<title>Node1&#45;&gt;Node3</title>
<path fill="none" stroke="midnightblue" d="M165.97,-124.63C157.38,-126.11 148.68,-127.61 140.22,-129.07"/>
<polygon fill="midnightblue" stroke="midnightblue" points="166.72,-128.05 175.98,-122.9 165.53,-121.15 166.72,-128.05"/>
</g>
<!-- Node4 -->
<g id="node4" class="node">
<title>Node4</title>
<g id="a_node4"><a xlink:href="classVertexPositionColorEffect_1_1VertexShader_1_1Output.html#a436f3c22f2892914ee1ae211017fafb6" target="_top" xlink:title=" ">
<polygon fill="none" stroke="black" points="0,-60.5 0,-101.5 140,-101.5 140,-60.5 0,-60.5"/>
<text text-anchor="start" x="8" y="-89.5" font-family="Helvetica,sans-Serif" font-size="10.00">VertexPositionColorEffect</text>
<text text-anchor="start" x="8" y="-78.5" font-family="Helvetica,sans-Serif" font-size="10.00">::VertexShader::Output</text>
<text text-anchor="middle" x="70" y="-67.5" font-family="Helvetica,sans-Serif" font-size="10.00">::operator&#45;</text>
</a>
</g>
</g>
<!-- Node1&#45;&gt;Node4 -->
<g id="edge3" class="edge">
<title>Node1&#45;&gt;Node4</title>
<path fill="none" stroke="midnightblue" d="M165.97,-97.37C157.38,-95.89 148.68,-94.39 140.22,-92.93"/>
<polygon fill="midnightblue" stroke="midnightblue" points="165.53,-100.85 175.98,-99.1 166.72,-93.95 165.53,-100.85"/>
</g>
<!-- Node5 -->
<g id="node5" class="node">
<title>Node5</title>
<g id="a_node5"><a xlink:href="classVertexPositionColorEffect_1_1VertexShader_1_1Output.html#a7d541ee2893f9458b4ee9cce7e29034e" target="_top" xlink:title=" ">
<polygon fill="none" stroke="black" points="0,-0.5 0,-41.5 140,-41.5 140,-0.5 0,-0.5"/>
<text text-anchor="start" x="8" y="-29.5" font-family="Helvetica,sans-Serif" font-size="10.00">VertexPositionColorEffect</text>
<text text-anchor="start" x="8" y="-18.5" font-family="Helvetica,sans-Serif" font-size="10.00">::VertexShader::Output</text>
<text text-anchor="middle" x="70" y="-7.5" font-family="Helvetica,sans-Serif" font-size="10.00">::operator/</text>
</a>
</g>
</g>
<!-- Node1&#45;&gt;Node5 -->
<g id="edge4" class="edge">
<title>Node1&#45;&gt;Node5</title>
<path fill="none" stroke="midnightblue" d="M202.34,-85.22C183.49,-74.19 160.9,-61.48 140,-51 133.69,-47.84 126.98,-44.68 120.31,-41.65"/>
<polygon fill="midnightblue" stroke="midnightblue" points="200.6,-88.25 210.99,-90.31 204.15,-82.22 200.6,-88.25"/>
</g>
</g>
</svg>
