<?xml version="1.0" encoding="UTF-8" standalone="no"?>
<!DOCTYPE svg PUBLIC "-//W3C//DTD SVG 1.1//EN"
 "http://www.w3.org/Graphics/SVG/1.1/DTD/svg11.dtd">
<!-- Generated by graphviz version 8.1.0 (20230707.0739)
 -->
<!-- Title: Scene Pages: 1 -->
<svg width="336pt" height="86pt"
 viewBox="0.00 0.00 335.50 86.00" xmlns="http://www.w3.org/2000/svg" xmlns:xlink="http://www.w3.org/1999/xlink">
<g id="graph0" class="graph" transform="scale(1 1) rotate(0) translate(4 82)">
<title>Scene</title>
<!-- Node1 -->
<g id="node1" class="node">
<title>Node1</title>
<g id="a_node1"><a xlink:title=" ">
<polygon fill="#bfbfbf" stroke="black" points="126,-57.5 126,-77.5 169.75,-77.5 169.75,-57.5 126,-57.5"/>
<text text-anchor="middle" x="147.88" y="-64" font-family="Helvetica,sans-Serif" font-size="10.00">Scene</text>
</a>
</g>
</g>
<!-- Node2 -->
<g id="node2" class="node">
<title>Node2</title>
<g id="a_node2"><a xlink:href="class_cube_skin_scene.html" target="_top" xlink:title=" ">
<polygon fill="none" stroke="black" points="0,-0.5 0,-20.5 85.75,-20.5 85.75,-0.5 0,-0.5"/>
<text text-anchor="middle" x="42.88" y="-7" font-family="Helvetica,sans-Serif" font-size="10.00">CubeSkinScene</text>
</a>
</g>
</g>
<!-- Node1&#45;&gt;Node2 -->
<g id="edge1" class="edge">
<title>Node1&#45;&gt;Node2</title>
<path fill="none" stroke="midnightblue" d="M121.33,-52.59C102.1,-42.52 76.67,-29.2 60.05,-20.5"/>
<polygon fill="midnightblue" stroke="midnightblue" points="119.52,-56.12 130,-57.66 122.77,-49.92 119.52,-56.12"/>
</g>
<!-- Node3 -->
<g id="node3" class="node">
<title>Node3</title>
<g id="a_node3"><a xlink:href="class_cube_solid_scene.html" target="_top" xlink:title=" ">
<polygon fill="none" stroke="black" points="103.88,-0.5 103.88,-20.5 191.88,-20.5 191.88,-0.5 103.88,-0.5"/>
<text text-anchor="middle" x="147.88" y="-7" font-family="Helvetica,sans-Serif" font-size="10.00">CubeSolidScene</text>
</a>
</g>
</g>
<!-- Node1&#45;&gt;Node3 -->
<g id="edge2" class="edge">
<title>Node1&#45;&gt;Node3</title>
<path fill="none" stroke="midnightblue" d="M147.88,-47C147.88,-37.85 147.88,-27.39 147.88,-20.21"/>
<polygon fill="midnightblue" stroke="midnightblue" points="144.38,-46.91 147.88,-56.91 151.38,-46.91 144.38,-46.91"/>
</g>
<!-- Node4 -->
<g id="node4" class="node">
<title>Node4</title>
<g id="a_node4"><a xlink:href="class_cube_vertex_color_scene.html" target="_top" xlink:title=" ">
<polygon fill="none" stroke="black" points="210.25,-0.5 210.25,-20.5 327.5,-20.5 327.5,-0.5 210.25,-0.5"/>
<text text-anchor="middle" x="268.88" y="-7" font-family="Helvetica,sans-Serif" font-size="10.00">CubeVertexColorScene</text>
</a>
</g>
</g>
<!-- Node1&#45;&gt;Node4 -->
<g id="edge3" class="edge">
<title>Node1&#45;&gt;Node4</title>
<path fill="none" stroke="midnightblue" d="M177.53,-53.02C199.83,-42.89 229.75,-29.28 249.17,-20.46"/>
<polygon fill="midnightblue" stroke="midnightblue" points="176.24,-50.22 168.59,-57.54 179.14,-56.59 176.24,-50.22"/>
</g>
</g>
</svg>
