<?xml version="1.0" encoding="UTF-8" standalone="no"?>
<!DOCTYPE svg PUBLIC "-//W3C//DTD SVG 1.1//EN"
 "http://www.w3.org/Graphics/SVG/1.1/DTD/svg11.dtd">
<!-- Generated by graphviz version 2.43.0 (0)
 -->
<!-- Title: HWNDKey::GetHWND Pages: 1 -->
<svg width="733pt" height="104pt"
 viewBox="0.00 0.00 733.00 104.00" xmlns="http://www.w3.org/2000/svg" xmlns:xlink="http://www.w3.org/1999/xlink">
<g id="graph0" class="graph" transform="scale(1 1) rotate(0) translate(4 100)">
<title>HWNDKey::GetHWND</title>
<!-- Node1 -->
<g id="node1" class="node">
<title>Node1</title>
<g id="a_node1"><a xlink:title=" ">
<polygon fill="#bfbfbf" stroke="black" points="603,-38.5 603,-57.5 725,-57.5 725,-38.5 603,-38.5"/>
<text text-anchor="middle" x="664" y="-45.5" font-family="Helvetica,sans-Serif" font-size="10.00">HWNDKey::GetHWND</text>
</a>
</g>
</g>
<!-- Node2 -->
<g id="node2" class="node">
<title>Node2</title>
<g id="a_node2"><a xlink:href="classEngine.html#a85491a83a933400a58b5f0f3da558143" target="_top" xlink:title=" ">
<polygon fill="none" stroke="black" points="427,-38.5 427,-57.5 567,-57.5 567,-38.5 427,-38.5"/>
<text text-anchor="middle" x="497" y="-45.5" font-family="Helvetica,sans-Serif" font-size="10.00">Engine::SetWindowName</text>
</a>
</g>
</g>
<!-- Node1&#45;&gt;Node2 -->
<g id="edge1" class="edge">
<title>Node1&#45;&gt;Node2</title>
<path fill="none" stroke="midnightblue" d="M592.76,-48C584.3,-48 575.67,-48 567.23,-48"/>
<polygon fill="midnightblue" stroke="midnightblue" points="592.96,-51.5 602.96,-48 592.96,-44.5 592.96,-51.5"/>
</g>
<!-- Node3 -->
<g id="node3" class="node">
<title>Node3</title>
<g id="a_node3"><a xlink:href="classEngine.html#a5016986fb05c1dc14b808c018a152b21" target="_top" xlink:title=" ">
<polygon fill="none" stroke="black" points="254,-76.5 254,-95.5 371,-95.5 371,-76.5 254,-76.5"/>
<text text-anchor="middle" x="312.5" y="-83.5" font-family="Helvetica,sans-Serif" font-size="10.00">Engine::CycleScenes</text>
</a>
</g>
</g>
<!-- Node2&#45;&gt;Node3 -->
<g id="edge2" class="edge">
<title>Node2&#45;&gt;Node3</title>
<path fill="none" stroke="midnightblue" d="M439.9,-59.68C414.02,-65.07 383.69,-71.39 359.22,-76.48"/>
<polygon fill="midnightblue" stroke="midnightblue" points="440.87,-63.05 449.95,-57.59 439.44,-56.2 440.87,-63.05"/>
</g>
<!-- Node6 -->
<g id="node6" class="node">
<title>Node6</title>
<g id="a_node6"><a xlink:href="classEngine.html#a9491d35868099b1c1cd35d9ecc482421" target="_top" xlink:title=" ">
<polygon fill="none" stroke="black" points="268,-38.5 268,-57.5 357,-57.5 357,-38.5 268,-38.5"/>
<text text-anchor="middle" x="312.5" y="-45.5" font-family="Helvetica,sans-Serif" font-size="10.00">Engine::Engine</text>
</a>
</g>
</g>
<!-- Node2&#45;&gt;Node6 -->
<g id="edge5" class="edge">
<title>Node2&#45;&gt;Node6</title>
<path fill="none" stroke="midnightblue" d="M416.49,-48C396.09,-48 374.89,-48 357.07,-48"/>
<polygon fill="midnightblue" stroke="midnightblue" points="416.74,-51.5 426.74,-48 416.74,-44.5 416.74,-51.5"/>
</g>
<!-- Node7 -->
<g id="node7" class="node">
<title>Node7</title>
<g id="a_node7"><a xlink:href="classEngine.html#a00d1c5c1655bd9024d7150aa12c4b5c6" target="_top" xlink:title=" ">
<polygon fill="none" stroke="black" points="234,-0.5 234,-19.5 391,-19.5 391,-0.5 234,-0.5"/>
<text text-anchor="middle" x="312.5" y="-7.5" font-family="Helvetica,sans-Serif" font-size="10.00">Engine::ReverseCycleScenes</text>
</a>
</g>
</g>
<!-- Node2&#45;&gt;Node7 -->
<g id="edge6" class="edge">
<title>Node2&#45;&gt;Node7</title>
<path fill="none" stroke="midnightblue" d="M439.9,-36.32C414.02,-30.93 383.69,-24.61 359.22,-19.52"/>
<polygon fill="midnightblue" stroke="midnightblue" points="439.44,-39.8 449.95,-38.41 440.87,-32.95 439.44,-39.8"/>
</g>
<!-- Node4 -->
<g id="node4" class="node">
<title>Node4</title>
<g id="a_node4"><a xlink:href="classEngine.html#a56cc30926ee112fbf83bfa4083d3af79" target="_top" xlink:title=" ">
<polygon fill="none" stroke="black" points="77,-38.5 77,-57.5 198,-57.5 198,-38.5 77,-38.5"/>
<text text-anchor="middle" x="137.5" y="-45.5" font-family="Helvetica,sans-Serif" font-size="10.00">Engine::UpdateModel</text>
</a>
</g>
</g>
<!-- Node3&#45;&gt;Node4 -->
<g id="edge3" class="edge">
<title>Node3&#45;&gt;Node4</title>
<path fill="none" stroke="midnightblue" d="M257.99,-74.25C233.53,-68.87 204.93,-62.59 181.84,-57.52"/>
<polygon fill="midnightblue" stroke="midnightblue" points="257.33,-77.68 267.84,-76.41 258.83,-70.85 257.33,-77.68"/>
</g>
<!-- Node5 -->
<g id="node5" class="node">
<title>Node5</title>
<g id="a_node5"><a xlink:href="Main_8cpp.html#a2c3f6775325c30275d11c6abee2db6a0" target="_top" xlink:title=" ">
<polygon fill="none" stroke="black" points="0,-38.5 0,-57.5 41,-57.5 41,-38.5 0,-38.5"/>
<text text-anchor="middle" x="20.5" y="-45.5" font-family="Helvetica,sans-Serif" font-size="10.00">main</text>
</a>
</g>
</g>
<!-- Node4&#45;&gt;Node5 -->
<g id="edge4" class="edge">
<title>Node4&#45;&gt;Node5</title>
<path fill="none" stroke="midnightblue" d="M66.75,-48C57.44,-48 48.58,-48 41.21,-48"/>
<polygon fill="midnightblue" stroke="midnightblue" points="66.98,-51.5 76.98,-48 66.98,-44.5 66.98,-51.5"/>
</g>
<!-- Node7&#45;&gt;Node4 -->
<g id="edge7" class="edge">
<title>Node7&#45;&gt;Node4</title>
<path fill="none" stroke="midnightblue" d="M257.99,-21.75C233.53,-27.13 204.93,-33.41 181.84,-38.48"/>
<polygon fill="midnightblue" stroke="midnightblue" points="258.83,-25.15 267.84,-19.59 257.33,-18.32 258.83,-25.15"/>
</g>
</g>
</svg>
