<?xml version="1.0" encoding="UTF-8" standalone="no"?>
<!DOCTYPE svg PUBLIC "-//W3C//DTD SVG 1.1//EN"
 "http://www.w3.org/Graphics/SVG/1.1/DTD/svg11.dtd">
<!-- Generated by graphviz version 8.1.0 (20230707.0739)
 -->
<!-- Title: Vector3::Vector3 Pages: 1 -->
<svg width="465pt" height="204pt"
 viewBox="0.00 0.00 465.00 204.00" xmlns="http://www.w3.org/2000/svg" xmlns:xlink="http://www.w3.org/1999/xlink">
<g id="graph0" class="graph" transform="scale(1 1) rotate(0) translate(4 200)">
<title>Vector3::Vector3</title>
<!-- Node1 -->
<g id="node1" class="node">
<title>Node1</title>
<g id="a_node1"><a xlink:title=" ">
<polygon fill="#bfbfbf" stroke="black" points="367.5,-78.5 367.5,-98.5 457,-98.5 457,-78.5 367.5,-78.5"/>
<text text-anchor="middle" x="412.25" y="-85" font-family="Helvetica,sans-Serif" font-size="10.00">Vector3::Vector3</text>
</a>
</g>
</g>
<!-- Node2 -->
<g id="node2" class="node">
<title>Node2</title>
<g id="a_node2"><a xlink:href="class_vector3.html#a1453d64a7a4333b19d6a92b8e61e617e" target="_top" xlink:title=" ">
<polygon fill="none" stroke="black" points="211.25,-156.5 211.25,-176.5 331.5,-176.5 331.5,-156.5 211.25,-156.5"/>
<text text-anchor="middle" x="271.38" y="-163" font-family="Helvetica,sans-Serif" font-size="10.00">Vector3::GetNormalized</text>
</a>
</g>
</g>
<!-- Node1&#45;&gt;Node2 -->
<g id="edge1" class="edge">
<title>Node1&#45;&gt;Node2</title>
<path fill="none" stroke="midnightblue" d="M392.21,-105.38C376.76,-118.38 353.92,-136 331.5,-147.5 324.69,-150.99 317.11,-154.01 309.71,-156.55"/>
<polygon fill="midnightblue" stroke="midnightblue" points="394.1,-107.52 399.4,-98.35 389.54,-102.21 394.1,-107.52"/>
</g>
<!-- Node6 -->
<g id="node6" class="node">
<title>Node6</title>
<g id="a_node6"><a xlink:href="class_vector3.html#a996efc3ced625aad7bbde05e051a55dc" target="_top" xlink:title=" ">
<polygon fill="none" stroke="black" points="224,-117.5 224,-137.5 318.75,-137.5 318.75,-117.5 224,-117.5"/>
<text text-anchor="middle" x="271.38" y="-124" font-family="Helvetica,sans-Serif" font-size="10.00">Vector3::operator*</text>
</a>
</g>
</g>
<!-- Node1&#45;&gt;Node6 -->
<g id="edge5" class="edge">
<title>Node1&#45;&gt;Node6</title>
<path fill="none" stroke="midnightblue" d="M365.43,-101.37C346.65,-106.64 325.25,-112.65 307.71,-117.58"/>
<polygon fill="midnightblue" stroke="midnightblue" points="366.17,-104.52 374.85,-98.44 364.27,-97.78 366.17,-104.52"/>
</g>
<!-- Node7 -->
<g id="node7" class="node">
<title>Node7</title>
<g id="a_node7"><a xlink:href="class_vector3.html#a7228c05728441d214acb010b30eebe31" target="_top" xlink:title=" ">
<polygon fill="none" stroke="black" points="222.88,-78.5 222.88,-98.5 319.88,-98.5 319.88,-78.5 222.88,-78.5"/>
<text text-anchor="middle" x="271.38" y="-85" font-family="Helvetica,sans-Serif" font-size="10.00">Vector3::operator+</text>
</a>
</g>
</g>
<!-- Node1&#45;&gt;Node7 -->
<g id="edge6" class="edge">
<title>Node1&#45;&gt;Node7</title>
<path fill="none" stroke="midnightblue" d="M357.05,-88.5C344.7,-88.5 331.67,-88.5 319.63,-88.5"/>
<polygon fill="midnightblue" stroke="midnightblue" points="356.69,-92 366.69,-88.5 356.69,-85 356.69,-92"/>
</g>
<!-- Node8 -->
<g id="node8" class="node">
<title>Node8</title>
<g id="a_node8"><a xlink:href="class_vector3.html#ad1f6fb2ad5c909641587d0899fe4cd41" target="_top" xlink:title=" ">
<polygon fill="none" stroke="black" points="224.38,-39.5 224.38,-59.5 318.38,-59.5 318.38,-39.5 224.38,-39.5"/>
<text text-anchor="middle" x="271.38" y="-46" font-family="Helvetica,sans-Serif" font-size="10.00">Vector3::operator&#45;</text>
</a>
</g>
</g>
<!-- Node1&#45;&gt;Node8 -->
<g id="edge7" class="edge">
<title>Node1&#45;&gt;Node8</title>
<path fill="none" stroke="midnightblue" d="M365.43,-75.63C346.65,-70.36 325.25,-64.35 307.71,-59.42"/>
<polygon fill="midnightblue" stroke="midnightblue" points="364.27,-79.22 374.85,-78.56 366.17,-72.48 364.27,-79.22"/>
</g>
<!-- Node9 -->
<g id="node9" class="node">
<title>Node9</title>
<g id="a_node9"><a xlink:href="class_vector3.html#aa14fef7fb47344c58c92f6ef033ce110" target="_top" xlink:title=" ">
<polygon fill="none" stroke="black" points="224.38,-0.5 224.38,-20.5 318.38,-20.5 318.38,-0.5 224.38,-0.5"/>
<text text-anchor="middle" x="271.38" y="-7" font-family="Helvetica,sans-Serif" font-size="10.00">Vector3::operator/</text>
</a>
</g>
</g>
<!-- Node1&#45;&gt;Node9 -->
<g id="edge8" class="edge">
<title>Node1&#45;&gt;Node9</title>
<path fill="none" stroke="midnightblue" d="M392.21,-71.62C376.76,-58.62 353.92,-41 331.5,-29.5 324.69,-26.01 317.11,-22.99 309.71,-20.45"/>
<polygon fill="midnightblue" stroke="midnightblue" points="389.54,-74.79 399.4,-78.65 394.1,-69.48 389.54,-74.79"/>
</g>
<!-- Node3 -->
<g id="node3" class="node">
<title>Node3</title>
<g id="a_node3"><a xlink:href="class_vector3.html#a60a66eb12fb598ec0f2ada72819395b2" target="_top" xlink:title=" ">
<polygon fill="none" stroke="black" points="76,-175.5 76,-195.5 175.25,-195.5 175.25,-175.5 76,-175.5"/>
<text text-anchor="middle" x="125.62" y="-182" font-family="Helvetica,sans-Serif" font-size="10.00">Vector3::Normalize</text>
</a>
</g>
</g>
<!-- Node2&#45;&gt;Node3 -->
<g id="edge2" class="edge">
<title>Node2&#45;&gt;Node3</title>
<path fill="none" stroke="midnightblue" d="M200.62,-175.72C191.99,-176.86 183.33,-178.01 175.11,-179.09"/>
<polygon fill="midnightblue" stroke="midnightblue" points="201.04,-179.06 210.49,-174.28 200.12,-172.12 201.04,-179.06"/>
</g>
<!-- Node5 -->
<g id="node5" class="node">
<title>Node5</title>
<g id="a_node5"><a xlink:href="_vector3_8cpp.html#acd001b833aaf532c808c6051f045d3c2" target="_top" xlink:title=" ">
<polygon fill="none" stroke="black" points="105.62,-136.5 105.62,-156.5 145.62,-156.5 145.62,-136.5 105.62,-136.5"/>
<text text-anchor="middle" x="125.62" y="-143" font-family="Helvetica,sans-Serif" font-size="10.00">TEST</text>
</a>
</g>
</g>
<!-- Node2&#45;&gt;Node5 -->
<g id="edge4" class="edge">
<title>Node2&#45;&gt;Node5</title>
<path fill="none" stroke="midnightblue" d="M200.62,-156.8C180.35,-153.98 159.86,-151.12 145.59,-149.14"/>
<polygon fill="midnightblue" stroke="midnightblue" points="200.1,-160.4 210.49,-158.31 201.07,-153.46 200.1,-160.4"/>
</g>
<!-- Node4 -->
<g id="node4" class="node">
<title>Node4</title>
<g id="a_node4"><a xlink:href="_vector3_8cpp.html#ab5848f313403912f60a11f987ed720c7" target="_top" xlink:title=" ">
<polygon fill="none" stroke="black" points="0,-175.5 0,-195.5 40,-195.5 40,-175.5 0,-175.5"/>
<text text-anchor="middle" x="20" y="-182" font-family="Helvetica,sans-Serif" font-size="10.00">TEST</text>
</a>
</g>
</g>
<!-- Node3&#45;&gt;Node4 -->
<g id="edge3" class="edge">
<title>Node3&#45;&gt;Node4</title>
<path fill="none" stroke="midnightblue" d="M65.31,-185.5C56.14,-185.5 47.29,-185.5 39.95,-185.5"/>
<polygon fill="midnightblue" stroke="midnightblue" points="65.15,-189 75.15,-185.5 65.15,-182 65.15,-189"/>
</g>
</g>
</svg>
