<?xml version="1.0" encoding="UTF-8" standalone="no"?>
<!DOCTYPE svg PUBLIC "-//W3C//DTD SVG 1.1//EN"
 "http://www.w3.org/Graphics/SVG/1.1/DTD/svg11.dtd">
<!-- Generated by graphviz version 8.1.0 (20230707.0739)
 -->
<!-- Title: CubeFlatIndependentScene::Draw Pages: 1 -->
<svg width="409pt" height="221pt"
 viewBox="0.00 0.00 408.50 221.00" xmlns="http://www.w3.org/2000/svg" xmlns:xlink="http://www.w3.org/1999/xlink">
<g id="graph0" class="graph" transform="scale(1 1) rotate(0) translate(4 217)">
<title>CubeFlatIndependentScene::Draw</title>
<!-- Node1 -->
<g id="node1" class="node">
<title>Node1</title>
<g id="a_node1"><a xlink:title=" ">
<polygon fill="#bfbfbf" stroke="black" points="0,-90.5 0,-122.5 135.25,-122.5 135.25,-90.5 0,-90.5"/>
<text text-anchor="start" x="8" y="-109" font-family="Helvetica,sans-Serif" font-size="10.00">CubeFlatIndependentScene</text>
<text text-anchor="middle" x="67.62" y="-97" font-family="Helvetica,sans-Serif" font-size="10.00">::Draw</text>
</a>
</g>
</g>
<!-- Node2 -->
<g id="node2" class="node">
<title>Node2</title>
<g id="a_node2"><a xlink:href="class_pipeline.html#adf2322f3b604145324fe70fd45266b46" target="_top" xlink:title=" ">
<polygon fill="none" stroke="black" points="176.12,-192.5 176.12,-212.5 285.12,-212.5 285.12,-192.5 176.12,-192.5"/>
<text text-anchor="middle" x="230.62" y="-199" font-family="Helvetica,sans-Serif" font-size="10.00">Pipeline::BeginFrame</text>
</a>
</g>
</g>
<!-- Node1&#45;&gt;Node2 -->
<g id="edge1" class="edge">
<title>Node1&#45;&gt;Node2</title>
<path fill="none" stroke="midnightblue" d="M85.95,-122.35C105.43,-139.47 138.64,-166.56 171.25,-183.5 174.82,-185.35 178.6,-187.07 182.46,-188.66"/>
<polygon fill="midnightblue" stroke="midnightblue" points="181.16,-192.29 191.75,-192.54 183.63,-185.74 181.16,-192.29"/>
</g>
<!-- Node4 -->
<g id="node4" class="node">
<title>Node4</title>
<g id="a_node4"><a xlink:href="class_matrix3.html#a3672400f647456083337d53db6478505" target="_top" xlink:title=" ">
<polygon fill="none" stroke="black" points="171.25,-141.5 171.25,-173.5 290,-173.5 290,-141.5 171.25,-141.5"/>
<text text-anchor="start" x="179.25" y="-160" font-family="Helvetica,sans-Serif" font-size="10.00">Matrix3&lt; float &gt;::Create</text>
<text text-anchor="middle" x="230.62" y="-148" font-family="Helvetica,sans-Serif" font-size="10.00">XRotationMatrix</text>
</a>
</g>
</g>
<!-- Node1&#45;&gt;Node4 -->
<g id="edge3" class="edge">
<title>Node1&#45;&gt;Node4</title>
<path fill="none" stroke="midnightblue" d="M119.12,-122.5C135.01,-127.53 152.71,-133.14 169.21,-138.36"/>
<polygon fill="midnightblue" stroke="midnightblue" points="167.71,-141.88 178.3,-141.56 169.83,-135.2 167.71,-141.88"/>
</g>
<!-- Node5 -->
<g id="node5" class="node">
<title>Node5</title>
<g id="a_node5"><a xlink:href="class_matrix3.html#ae2e635e8fc49db308a95dde2a5518bbc" target="_top" xlink:title=" ">
<polygon fill="none" stroke="black" points="171.25,-90.5 171.25,-122.5 290,-122.5 290,-90.5 171.25,-90.5"/>
<text text-anchor="start" x="179.25" y="-109" font-family="Helvetica,sans-Serif" font-size="10.00">Matrix3&lt; float &gt;::Create</text>
<text text-anchor="middle" x="230.62" y="-97" font-family="Helvetica,sans-Serif" font-size="10.00">YRotationMatrix</text>
</a>
</g>
</g>
<!-- Node1&#45;&gt;Node5 -->
<g id="edge4" class="edge">
<title>Node1&#45;&gt;Node5</title>
<path fill="none" stroke="midnightblue" d="M135.04,-106.5C143.41,-106.5 151.99,-106.5 160.41,-106.5"/>
<polygon fill="midnightblue" stroke="midnightblue" points="160.34,-110 170.34,-106.5 160.34,-103 160.34,-110"/>
</g>
<!-- Node6 -->
<g id="node6" class="node">
<title>Node6</title>
<g id="a_node6"><a xlink:href="class_matrix3.html#a7b88435a5d6c183b5b46efa2b6dbcb3a" target="_top" xlink:title=" ">
<polygon fill="none" stroke="black" points="171.25,-39.5 171.25,-71.5 290,-71.5 290,-39.5 171.25,-39.5"/>
<text text-anchor="start" x="179.25" y="-58" font-family="Helvetica,sans-Serif" font-size="10.00">Matrix3&lt; float &gt;::Create</text>
<text text-anchor="middle" x="230.62" y="-46" font-family="Helvetica,sans-Serif" font-size="10.00">ZRotationMatrix</text>
</a>
</g>
</g>
<!-- Node1&#45;&gt;Node6 -->
<g id="edge5" class="edge">
<title>Node1&#45;&gt;Node6</title>
<path fill="none" stroke="midnightblue" d="M119.12,-90.5C135.01,-85.47 152.71,-79.86 169.21,-74.64"/>
<polygon fill="midnightblue" stroke="midnightblue" points="169.83,-77.8 178.3,-71.44 167.71,-71.12 169.83,-77.8"/>
</g>
<!-- Node7 -->
<g id="node7" class="node">
<title>Node7</title>
<g id="a_node7"><a xlink:href="class_pipeline.html#a76274774f61e4b5a1c708decf65712b9" target="_top" xlink:title=" ">
<polygon fill="none" stroke="black" points="191.5,-0.5 191.5,-20.5 269.75,-20.5 269.75,-0.5 191.5,-0.5"/>
<text text-anchor="middle" x="230.62" y="-7" font-family="Helvetica,sans-Serif" font-size="10.00">Pipeline::Draw</text>
</a>
</g>
</g>
<!-- Node1&#45;&gt;Node7 -->
<g id="edge6" class="edge">
<title>Node1&#45;&gt;Node7</title>
<path fill="none" stroke="midnightblue" d="M86.39,-90.66C106,-73.85 139.06,-47.41 171.25,-30.5 175.53,-28.25 180.11,-26.18 184.75,-24.28"/>
<polygon fill="midnightblue" stroke="midnightblue" points="185.82,-27.24 193.93,-20.42 183.34,-20.69 185.82,-27.24"/>
</g>
<!-- Node3 -->
<g id="node3" class="node">
<title>Node3</title>
<g id="a_node3"><a xlink:href="class_z_buffer.html#af1a6407078bb83629e3b4dec9f0554cf" target="_top" xlink:title=" ">
<polygon fill="none" stroke="black" points="326,-192.5 326,-212.5 400.5,-212.5 400.5,-192.5 326,-192.5"/>
<text text-anchor="middle" x="363.25" y="-199" font-family="Helvetica,sans-Serif" font-size="10.00">ZBuffer::Clear</text>
</a>
</g>
</g>
<!-- Node2&#45;&gt;Node3 -->
<g id="edge2" class="edge">
<title>Node2&#45;&gt;Node3</title>
<path fill="none" stroke="midnightblue" d="M284.76,-202.5C294.92,-202.5 305.49,-202.5 315.43,-202.5"/>
<polygon fill="midnightblue" stroke="midnightblue" points="315.34,-206 325.34,-202.5 315.34,-199 315.34,-206"/>
</g>
</g>
</svg>
