<?xml version="1.0" encoding="UTF-8" standalone="no"?>
<!DOCTYPE svg PUBLIC "-//W3C//DTD SVG 1.1//EN"
 "http://www.w3.org/Graphics/SVG/1.1/DTD/svg11.dtd">
<!-- Generated by graphviz version 8.1.0 (20230707.0739)
 -->
<!-- Title: GeometryFlatEffect Pages: 1 -->
<svg width="226pt" height="110pt"
 viewBox="0.00 0.00 226.00 110.00" xmlns="http://www.w3.org/2000/svg" xmlns:xlink="http://www.w3.org/1999/xlink">
<g id="graph0" class="graph" transform="scale(1 1) rotate(0) translate(4 106)">
<title>GeometryFlatEffect</title>
<!-- Node1 -->
<g id="node1" class="node">
<title>Node1</title>
<g id="a_node1"><a xlink:title=" ">
<polygon fill="#bfbfbf" stroke="black" points="59,-0.5 59,-20.5 159,-20.5 159,-0.5 59,-0.5"/>
<text text-anchor="middle" x="109" y="-7" font-family="Helvetica,sans-Serif" font-size="10.00">GeometryFlatEffect</text>
</a>
</g>
</g>
<!-- Node2 -->
<g id="node2" class="node">
<title>Node2</title>
<g id="a_node2"><a xlink:href="class_geometry_flat_effect_1_1_geometry_shader.html" target="_top" xlink:title=" ">
<polygon fill="none" stroke="black" points="0,-69.5 0,-101.5 100,-101.5 100,-69.5 0,-69.5"/>
<text text-anchor="start" x="8" y="-88" font-family="Helvetica,sans-Serif" font-size="10.00">GeometryFlatEffect</text>
<text text-anchor="middle" x="50" y="-76" font-family="Helvetica,sans-Serif" font-size="10.00">::GeometryShader</text>
</a>
</g>
</g>
<!-- Node2&#45;&gt;Node1 -->
<g id="edge1" class="edge">
<title>Node2&#45;&gt;Node1</title>
<path fill="none" stroke="#9a32cd" stroke-dasharray="5,2" d="M68.59,-61.5C79.9,-47.51 93.7,-30.43 101.89,-20.29"/>
<polygon fill="#9a32cd" stroke="#9a32cd" points="65.5,-58.75 61.94,-68.73 70.95,-63.15 65.5,-58.75"/>
<text text-anchor="middle" x="93.75" y="-41.5" font-family="Helvetica,sans-Serif" font-size="10.00"> gs</text>
</g>
<!-- Node3 -->
<g id="node3" class="node">
<title>Node3</title>
<g id="a_node3"><a xlink:href="class_geometry_flat_effect_1_1_pixel_shader.html" target="_top" xlink:title=" ">
<polygon fill="none" stroke="black" points="118,-69.5 118,-101.5 218,-101.5 218,-69.5 118,-69.5"/>
<text text-anchor="start" x="126" y="-88" font-family="Helvetica,sans-Serif" font-size="10.00">GeometryFlatEffect</text>
<text text-anchor="middle" x="168" y="-76" font-family="Helvetica,sans-Serif" font-size="10.00">::PixelShader</text>
</a>
</g>
</g>
<!-- Node3&#45;&gt;Node1 -->
<g id="edge2" class="edge">
<title>Node3&#45;&gt;Node1</title>
<path fill="none" stroke="#9a32cd" stroke-dasharray="5,2" d="M149.41,-61.5C138.1,-47.51 124.3,-30.43 116.11,-20.29"/>
<polygon fill="#9a32cd" stroke="#9a32cd" points="147.05,-63.15 156.06,-68.73 152.5,-58.75 147.05,-63.15"/>
<text text-anchor="middle" x="146.75" y="-41.5" font-family="Helvetica,sans-Serif" font-size="10.00"> ps</text>
</g>
</g>
</svg>
