<?xml version="1.0" encoding="UTF-8" standalone="no"?>
<!DOCTYPE svg PUBLIC "-//W3C//DTD SVG 1.1//EN"
 "http://www.w3.org/Graphics/SVG/1.1/DTD/svg11.dtd">
<!-- Generated by graphviz version 8.1.0 (20230707.0739)
 -->
<!-- Title: Vector2::GetMagnitude Pages: 1 -->
<svg width="416pt" height="29pt"
 viewBox="0.00 0.00 416.00 29.00" xmlns="http://www.w3.org/2000/svg" xmlns:xlink="http://www.w3.org/1999/xlink">
<g id="graph0" class="graph" transform="scale(1 1) rotate(0) translate(4 25)">
<title>Vector2::GetMagnitude</title>
<!-- Node1 -->
<g id="node1" class="node">
<title>Node1</title>
<g id="a_node1"><a xlink:title=" ">
<polygon fill="#bfbfbf" stroke="black" points="291.5,-0.5 291.5,-20.5 408,-20.5 408,-0.5 291.5,-0.5"/>
<text text-anchor="middle" x="349.75" y="-7" font-family="Helvetica,sans-Serif" font-size="10.00">Vector2::GetMagnitude</text>
</a>
</g>
</g>
<!-- Node2 -->
<g id="node2" class="node">
<title>Node2</title>
<g id="a_node2"><a xlink:href="class_vector2.html#a09d30ae647f4a35a5abd61f14e002126" target="_top" xlink:title=" ">
<polygon fill="none" stroke="black" points="135.25,-0.5 135.25,-20.5 255.5,-20.5 255.5,-0.5 135.25,-0.5"/>
<text text-anchor="middle" x="195.38" y="-7" font-family="Helvetica,sans-Serif" font-size="10.00">Vector2::GetNormalized</text>
</a>
</g>
</g>
<!-- Node1&#45;&gt;Node2 -->
<g id="edge1" class="edge">
<title>Node1&#45;&gt;Node2</title>
<path fill="none" stroke="midnightblue" d="M280.62,-10.5C272.21,-10.5 263.66,-10.5 255.39,-10.5"/>
<polygon fill="midnightblue" stroke="midnightblue" points="280.58,-14 290.58,-10.5 280.58,-7 280.58,-14"/>
</g>
<!-- Node3 -->
<g id="node3" class="node">
<title>Node3</title>
<g id="a_node3"><a xlink:href="class_vector2.html#a1819f7de2632070f87e07f5714d0aa4d" target="_top" xlink:title=" ">
<polygon fill="none" stroke="black" points="0,-0.5 0,-20.5 99.25,-20.5 99.25,-0.5 0,-0.5"/>
<text text-anchor="middle" x="49.62" y="-7" font-family="Helvetica,sans-Serif" font-size="10.00">Vector2::Normalize</text>
</a>
</g>
</g>
<!-- Node2&#45;&gt;Node3 -->
<g id="edge2" class="edge">
<title>Node2&#45;&gt;Node3</title>
<path fill="none" stroke="midnightblue" d="M124.62,-10.5C115.99,-10.5 107.33,-10.5 99.11,-10.5"/>
<polygon fill="midnightblue" stroke="midnightblue" points="124.49,-14 134.49,-10.5 124.49,-7 124.49,-14"/>
</g>
</g>
</svg>
