<?xml version="1.0" encoding="UTF-8" standalone="no"?>
<!DOCTYPE svg PUBLIC "-//W3C//DTD SVG 1.1//EN"
 "http://www.w3.org/Graphics/SVG/1.1/DTD/svg11.dtd">
<!-- Generated by graphviz version 8.1.0 (20230707.0739)
 -->
<!-- Title: Color::GetB Pages: 1 -->
<svg width="228pt" height="68pt"
 viewBox="0.00 0.00 227.50 68.00" xmlns="http://www.w3.org/2000/svg" xmlns:xlink="http://www.w3.org/1999/xlink">
<g id="graph0" class="graph" transform="scale(1 1) rotate(0) translate(4 64)">
<title>Color::GetB</title>
<!-- Node1 -->
<g id="node1" class="node">
<title>Node1</title>
<g id="a_node1"><a xlink:title=" ">
<polygon fill="#bfbfbf" stroke="black" points="152.5,-19.5 152.5,-39.5 219.5,-39.5 219.5,-19.5 152.5,-19.5"/>
<text text-anchor="middle" x="186" y="-26" font-family="Helvetica,sans-Serif" font-size="10.00">Color::GetB</text>
</a>
</g>
</g>
<!-- Node2 -->
<g id="node2" class="node">
<title>Node2</title>
<g id="a_node2"><a xlink:href="class_color.html#ab7fb482965372c202ec26257ed2c183f" target="_top" xlink:title=" ">
<polygon fill="none" stroke="black" points="5.62,-39.5 5.62,-59.5 110.88,-59.5 110.88,-39.5 5.62,-39.5"/>
<text text-anchor="middle" x="58.25" y="-46" font-family="Helvetica,sans-Serif" font-size="10.00">Color::operator Vec3</text>
</a>
</g>
</g>
<!-- Node1&#45;&gt;Node2 -->
<g id="edge1" class="edge">
<title>Node1&#45;&gt;Node2</title>
<path fill="none" stroke="midnightblue" d="M142,-36.34C131.88,-37.95 121,-39.68 110.56,-41.34"/>
<polygon fill="midnightblue" stroke="midnightblue" points="142.29,-39.68 151.62,-34.65 141.19,-32.76 142.29,-39.68"/>
</g>
<!-- Node3 -->
<g id="node3" class="node">
<title>Node3</title>
<g id="a_node3"><a xlink:href="class_surface.html#a187f57fb4942d79ce17a84f17efac54c" target="_top" xlink:title=" ">
<polygon fill="none" stroke="black" points="0,-0.5 0,-20.5 116.5,-20.5 116.5,-0.5 0,-0.5"/>
<text text-anchor="middle" x="58.25" y="-7" font-family="Helvetica,sans-Serif" font-size="10.00">Surface::PutPixelAlpha</text>
</a>
</g>
</g>
<!-- Node1&#45;&gt;Node3 -->
<g id="edge2" class="edge">
<title>Node1&#45;&gt;Node3</title>
<path fill="none" stroke="midnightblue" d="M141.82,-22.98C133.63,-21.74 124.95,-20.43 116.41,-19.14"/>
<polygon fill="midnightblue" stroke="midnightblue" points="141.21,-26.57 151.62,-24.61 142.25,-19.65 141.21,-26.57"/>
</g>
</g>
</svg>
