<?xml version="1.0" encoding="UTF-8" standalone="no"?>
<!DOCTYPE svg PUBLIC "-//W3C//DTD SVG 1.1//EN"
 "http://www.w3.org/Graphics/SVG/1.1/DTD/svg11.dtd">
<!-- Generated by graphviz version 8.1.0 (20230707.0739)
 -->
<!-- Title: CubeSolidGeometryScene::Update Pages: 1 -->
<svg width="299pt" height="68pt"
 viewBox="0.00 0.00 298.75 68.00" xmlns="http://www.w3.org/2000/svg" xmlns:xlink="http://www.w3.org/1999/xlink">
<g id="graph0" class="graph" transform="scale(1 1) rotate(0) translate(4 64)">
<title>CubeSolidGeometryScene::Update</title>
<!-- Node1 -->
<g id="node1" class="node">
<title>Node1</title>
<g id="a_node1"><a xlink:title=" ">
<polygon fill="#bfbfbf" stroke="black" points="0,-13.5 0,-45.5 130.75,-45.5 130.75,-13.5 0,-13.5"/>
<text text-anchor="start" x="8" y="-32" font-family="Helvetica,sans-Serif" font-size="10.00">CubeSolidGeometryScene</text>
<text text-anchor="middle" x="65.38" y="-20" font-family="Helvetica,sans-Serif" font-size="10.00">::Update</text>
</a>
</g>
</g>
<!-- Node2 -->
<g id="node2" class="node">
<title>Node2</title>
<g id="a_node2"><a xlink:href="class_keyboard.html#a7b11ba07982539a0dd9b16b4706e7211" target="_top" xlink:title=" ">
<polygon fill="none" stroke="black" points="166.75,-39.5 166.75,-59.5 290.75,-59.5 290.75,-39.5 166.75,-39.5"/>
<text text-anchor="middle" x="228.75" y="-46" font-family="Helvetica,sans-Serif" font-size="10.00">Keyboard::KeyIsPressed</text>
</a>
</g>
</g>
<!-- Node1&#45;&gt;Node2 -->
<g id="edge1" class="edge">
<title>Node1&#45;&gt;Node2</title>
<path fill="none" stroke="midnightblue" d="M130.62,-37.46C139.02,-38.5 147.68,-39.58 156.19,-40.63"/>
<polygon fill="midnightblue" stroke="midnightblue" points="155.52,-44.2 165.88,-41.96 156.38,-37.25 155.52,-44.2"/>
</g>
<!-- Node3 -->
<g id="node3" class="node">
<title>Node3</title>
<g id="a_node3"><a xlink:href="namespace_math.html#abb70099a95f7e3ae8eb62c3694775a6b" target="_top" xlink:title=" ">
<polygon fill="none" stroke="black" points="182.88,-0.5 182.88,-20.5 274.62,-20.5 274.62,-0.5 182.88,-0.5"/>
<text text-anchor="middle" x="228.75" y="-7" font-family="Helvetica,sans-Serif" font-size="10.00">Math::WrapAngle</text>
</a>
</g>
</g>
<!-- Node1&#45;&gt;Node3 -->
<g id="edge2" class="edge">
<title>Node1&#45;&gt;Node3</title>
<path fill="none" stroke="midnightblue" d="M130.62,-21.94C144.49,-20.3 159.04,-18.59 172.53,-17"/>
<polygon fill="midnightblue" stroke="midnightblue" points="172.56,-20.4 182.09,-15.76 171.75,-13.45 172.56,-20.4"/>
</g>
</g>
</svg>
