<?xml version="1.0" encoding="UTF-8" standalone="no"?>
<!DOCTYPE svg PUBLIC "-//W3C//DTD SVG 1.1//EN"
 "http://www.w3.org/Graphics/SVG/1.1/DTD/svg11.dtd">
<!-- Generated by graphviz version 8.1.0 (20230707.0739)
 -->
<!-- Title: SolidCubeScene::Update Pages: 1 -->
<svg width="293pt" height="68pt"
 viewBox="0.00 0.00 292.75 68.00" xmlns="http://www.w3.org/2000/svg" xmlns:xlink="http://www.w3.org/1999/xlink">
<g id="graph0" class="graph" transform="scale(1 1) rotate(0) translate(4 64)">
<title>SolidCubeScene::Update</title>
<!-- Node1 -->
<g id="node1" class="node">
<title>Node1</title>
<g id="a_node1"><a xlink:title=" ">
<polygon fill="#bfbfbf" stroke="black" points="0,-19.5 0,-39.5 124.75,-39.5 124.75,-19.5 0,-19.5"/>
<text text-anchor="middle" x="62.38" y="-26" font-family="Helvetica,sans-Serif" font-size="10.00">SolidCubeScene::Update</text>
</a>
</g>
</g>
<!-- Node2 -->
<g id="node2" class="node">
<title>Node2</title>
<g id="a_node2"><a xlink:href="class_keyboard.html#a7b11ba07982539a0dd9b16b4706e7211" target="_top" xlink:title=" ">
<polygon fill="none" stroke="black" points="160.75,-39.5 160.75,-59.5 284.75,-59.5 284.75,-39.5 160.75,-39.5"/>
<text text-anchor="middle" x="222.75" y="-46" font-family="Helvetica,sans-Serif" font-size="10.00">Keyboard::KeyIsPressed</text>
</a>
</g>
</g>
<!-- Node1&#45;&gt;Node2 -->
<g id="edge1" class="edge">
<title>Node1&#45;&gt;Node2</title>
<path fill="none" stroke="midnightblue" d="M124.61,-37.23C132.99,-38.29 141.66,-39.39 150.21,-40.47"/>
<polygon fill="midnightblue" stroke="midnightblue" points="149.58,-44.04 159.94,-41.82 150.46,-37.1 149.58,-44.04"/>
</g>
<!-- Node3 -->
<g id="node3" class="node">
<title>Node3</title>
<g id="a_node3"><a xlink:href="namespace_math.html#a5bf97cccfc70f0c8b750396c70127573" target="_top" xlink:title=" ">
<polygon fill="none" stroke="black" points="178.38,-0.5 178.38,-20.5 267.12,-20.5 267.12,-0.5 178.38,-0.5"/>
<text text-anchor="middle" x="222.75" y="-7" font-family="Helvetica,sans-Serif" font-size="10.00">Math::wrapAngle</text>
</a>
</g>
</g>
<!-- Node1&#45;&gt;Node3 -->
<g id="edge2" class="edge">
<title>Node1&#45;&gt;Node3</title>
<path fill="none" stroke="midnightblue" d="M124.61,-22.15C138.89,-20.44 154,-18.63 167.94,-16.96"/>
<polygon fill="midnightblue" stroke="midnightblue" points="168.31,-20.32 177.83,-15.65 167.48,-13.37 168.31,-20.32"/>
</g>
</g>
</svg>
