<?xml version="1.0" encoding="UTF-8" standalone="no"?>
<!DOCTYPE svg PUBLIC "-//W3C//DTD SVG 1.1//EN"
 "http://www.w3.org/Graphics/SVG/1.1/DTD/svg11.dtd">
<!-- Generated by graphviz version 2.43.0 (0)
 -->
<!-- Title: WaveVertexTextureEffect::Vertex::Vertex Pages: 1 -->
<svg width="322pt" height="186pt"
 viewBox="0.00 0.00 322.00 186.00" xmlns="http://www.w3.org/2000/svg" xmlns:xlink="http://www.w3.org/1999/xlink">
<g id="graph0" class="graph" transform="scale(1 1) rotate(0) translate(4 182)">
<title>WaveVertexTextureEffect::Vertex::Vertex</title>
<!-- Node1 -->
<g id="node1" class="node">
<title>Node1</title>
<g id="a_node1"><a xlink:title=" ">
<polygon fill="#bfbfbf" stroke="black" points="175,-73.5 175,-103.5 314,-103.5 314,-73.5 175,-73.5"/>
<text text-anchor="start" x="183" y="-91.5" font-family="Helvetica,sans-Serif" font-size="10.00">WaveVertexTextureEffect</text>
<text text-anchor="middle" x="244.5" y="-80.5" font-family="Helvetica,sans-Serif" font-size="10.00">::Vertex::Vertex</text>
</a>
</g>
</g>
<!-- Node2 -->
<g id="node2" class="node">
<title>Node2</title>
<g id="a_node2"><a xlink:href="classWaveVertexTextureEffect_1_1Vertex.html#a7605bff3ca67b80d9f80fa248a4b1aed" target="_top" xlink:title=" ">
<polygon fill="none" stroke="black" points="0,-147.5 0,-177.5 139,-177.5 139,-147.5 0,-147.5"/>
<text text-anchor="start" x="8" y="-165.5" font-family="Helvetica,sans-Serif" font-size="10.00">WaveVertexTextureEffect</text>
<text text-anchor="middle" x="69.5" y="-154.5" font-family="Helvetica,sans-Serif" font-size="10.00">::Vertex::operator*</text>
</a>
</g>
</g>
<!-- Node1&#45;&gt;Node2 -->
<g id="edge1" class="edge">
<title>Node1&#45;&gt;Node2</title>
<path fill="none" stroke="midnightblue" d="M204.98,-108.17C185.44,-117.83 161.21,-129.33 139,-138.5 131.55,-141.58 123.54,-144.62 115.72,-147.44"/>
<polygon fill="midnightblue" stroke="midnightblue" points="206.77,-111.19 214.16,-103.6 203.65,-104.92 206.77,-111.19"/>
</g>
<!-- Node3 -->
<g id="node3" class="node">
<title>Node3</title>
<g id="a_node3"><a xlink:href="classWaveVertexTextureEffect_1_1Vertex.html#aaede1729b7afa6565d98fd459d7c2498" target="_top" xlink:title=" ">
<polygon fill="none" stroke="black" points="0,-98.5 0,-128.5 139,-128.5 139,-98.5 0,-98.5"/>
<text text-anchor="start" x="8" y="-116.5" font-family="Helvetica,sans-Serif" font-size="10.00">WaveVertexTextureEffect</text>
<text text-anchor="middle" x="69.5" y="-105.5" font-family="Helvetica,sans-Serif" font-size="10.00">::Vertex::operator+</text>
</a>
</g>
</g>
<!-- Node1&#45;&gt;Node3 -->
<g id="edge2" class="edge">
<title>Node1&#45;&gt;Node3</title>
<path fill="none" stroke="midnightblue" d="M164.68,-99.89C156.16,-101.12 147.53,-102.37 139.13,-103.58"/>
<polygon fill="midnightblue" stroke="midnightblue" points="165.23,-103.35 174.63,-98.45 164.23,-96.42 165.23,-103.35"/>
</g>
<!-- Node4 -->
<g id="node4" class="node">
<title>Node4</title>
<g id="a_node4"><a xlink:href="classWaveVertexTextureEffect_1_1Vertex.html#aac9914f57c6cb0ac60fd1fed20f3515c" target="_top" xlink:title=" ">
<polygon fill="none" stroke="black" points="0,-49.5 0,-79.5 139,-79.5 139,-49.5 0,-49.5"/>
<text text-anchor="start" x="8" y="-67.5" font-family="Helvetica,sans-Serif" font-size="10.00">WaveVertexTextureEffect</text>
<text text-anchor="middle" x="69.5" y="-56.5" font-family="Helvetica,sans-Serif" font-size="10.00">::Vertex::operator&#45;</text>
</a>
</g>
</g>
<!-- Node1&#45;&gt;Node4 -->
<g id="edge3" class="edge">
<title>Node1&#45;&gt;Node4</title>
<path fill="none" stroke="midnightblue" d="M164.68,-77.57C156.16,-76.38 147.53,-75.19 139.13,-74.02"/>
<polygon fill="midnightblue" stroke="midnightblue" points="164.24,-81.04 174.63,-78.95 165.2,-74.1 164.24,-81.04"/>
</g>
<!-- Node5 -->
<g id="node5" class="node">
<title>Node5</title>
<g id="a_node5"><a xlink:href="classWaveVertexTextureEffect_1_1Vertex.html#acfa3f96ced672c50f8cbf2b61baff308" target="_top" xlink:title=" ">
<polygon fill="none" stroke="black" points="0,-0.5 0,-30.5 139,-30.5 139,-0.5 0,-0.5"/>
<text text-anchor="start" x="8" y="-18.5" font-family="Helvetica,sans-Serif" font-size="10.00">WaveVertexTextureEffect</text>
<text text-anchor="middle" x="69.5" y="-7.5" font-family="Helvetica,sans-Serif" font-size="10.00">::Vertex::operator/</text>
</a>
</g>
</g>
<!-- Node1&#45;&gt;Node5 -->
<g id="edge4" class="edge">
<title>Node1&#45;&gt;Node5</title>
<path fill="none" stroke="midnightblue" d="M203.15,-69.04C183.89,-59.99 160.42,-49.31 139,-40.5 130.8,-37.13 121.97,-33.73 113.46,-30.58"/>
<polygon fill="midnightblue" stroke="midnightblue" points="201.7,-72.23 212.24,-73.34 204.69,-65.9 201.7,-72.23"/>
</g>
</g>
</svg>
