<?xml version="1.0" encoding="UTF-8" standalone="no"?>
<!DOCTYPE svg PUBLIC "-//W3C//DTD SVG 1.1//EN"
 "http://www.w3.org/Graphics/SVG/1.1/DTD/svg11.dtd">
<!-- Generated by graphviz version 8.1.0 (20230707.0739)
 -->
<!-- Title: TexWrapCubeScene::Draw Pages: 1 -->
<svg width="600pt" height="311pt"
 viewBox="0.00 0.00 600.00 311.00" xmlns="http://www.w3.org/2000/svg" xmlns:xlink="http://www.w3.org/1999/xlink">
<g id="graph0" class="graph" transform="scale(1 1) rotate(0) translate(4 307)">
<title>TexWrapCubeScene::Draw</title>
<!-- Node1 -->
<g id="node1" class="node">
<title>Node1</title>
<g id="a_node1"><a xlink:title=" ">
<polygon fill="#bfbfbf" stroke="black" points="0,-129.5 0,-149.5 133,-149.5 133,-129.5 0,-129.5"/>
<text text-anchor="middle" x="66.5" y="-136" font-family="Helvetica,sans-Serif" font-size="10.00">TexWrapCubeScene::Draw</text>
</a>
</g>
</g>
<!-- Node2 -->
<g id="node2" class="node">
<title>Node2</title>
<g id="a_node2"><a xlink:href="class_matrix3.html#a3672400f647456083337d53db6478505" target="_top" xlink:title=" ">
<polygon fill="none" stroke="black" points="184.75,-270.5 184.75,-302.5 308.75,-302.5 308.75,-270.5 184.75,-270.5"/>
<text text-anchor="start" x="192.75" y="-289" font-family="Helvetica,sans-Serif" font-size="10.00">Matrix3::CreateXRotation</text>
<text text-anchor="middle" x="246.75" y="-277" font-family="Helvetica,sans-Serif" font-size="10.00">Matrix</text>
</a>
</g>
</g>
<!-- Node1&#45;&gt;Node2 -->
<g id="edge1" class="edge">
<title>Node1&#45;&gt;Node2</title>
<path fill="none" stroke="midnightblue" d="M72.99,-149.33C86.37,-172.36 122.94,-230.26 169,-261.5 171.15,-262.96 173.4,-264.34 175.71,-265.64"/>
<polygon fill="midnightblue" stroke="midnightblue" points="174.02,-269.21 184.52,-270.58 177.16,-262.96 174.02,-269.21"/>
</g>
<!-- Node3 -->
<g id="node3" class="node">
<title>Node3</title>
<g id="a_node3"><a xlink:href="class_matrix3.html#ae2e635e8fc49db308a95dde2a5518bbc" target="_top" xlink:title=" ">
<polygon fill="none" stroke="black" points="184,-219.5 184,-251.5 309.5,-251.5 309.5,-219.5 184,-219.5"/>
<text text-anchor="start" x="192" y="-238" font-family="Helvetica,sans-Serif" font-size="10.00">Matrix3::CreateYRotation</text>
<text text-anchor="middle" x="246.75" y="-226" font-family="Helvetica,sans-Serif" font-size="10.00">Matrix</text>
</a>
</g>
</g>
<!-- Node1&#45;&gt;Node3 -->
<g id="edge2" class="edge">
<title>Node1&#45;&gt;Node3</title>
<path fill="none" stroke="midnightblue" d="M79.26,-149.49C97.45,-164.52 133.98,-193.03 169,-210.5 172.53,-212.26 176.21,-213.94 179.97,-215.53"/>
<polygon fill="midnightblue" stroke="midnightblue" points="178.46,-219.09 189.04,-219.52 181.04,-212.58 178.46,-219.09"/>
</g>
<!-- Node4 -->
<g id="node4" class="node">
<title>Node4</title>
<g id="a_node4"><a xlink:href="class_matrix3.html#a7b88435a5d6c183b5b46efa2b6dbcb3a" target="_top" xlink:title=" ">
<polygon fill="none" stroke="black" points="184.75,-168.5 184.75,-200.5 308.75,-200.5 308.75,-168.5 184.75,-168.5"/>
<text text-anchor="start" x="192.75" y="-187" font-family="Helvetica,sans-Serif" font-size="10.00">Matrix3::CreateZRotation</text>
<text text-anchor="middle" x="246.75" y="-175" font-family="Helvetica,sans-Serif" font-size="10.00">Matrix</text>
</a>
</g>
</g>
<!-- Node1&#45;&gt;Node4 -->
<g id="edge3" class="edge">
<title>Node1&#45;&gt;Node4</title>
<path fill="none" stroke="midnightblue" d="M107.06,-149.49C126.89,-154.49 151.53,-160.71 174.51,-166.52"/>
<polygon fill="midnightblue" stroke="midnightblue" points="173.38,-170.09 183.93,-169.15 175.09,-163.3 173.38,-170.09"/>
</g>
<!-- Node5 -->
<g id="node5" class="node">
<title>Node5</title>
<g id="a_node5"><a xlink:href="class_vector3.html#af6770ab3b9092e848317aaf6e7d77803" target="_top" xlink:title=" ">
<polygon fill="none" stroke="black" points="171.25,-129.5 171.25,-149.5 322.25,-149.5 322.25,-129.5 171.25,-129.5"/>
<text text-anchor="middle" x="246.75" y="-136" font-family="Helvetica,sans-Serif" font-size="10.00">Vector3&lt; float &gt;::CrossProduct</text>
</a>
</g>
</g>
<!-- Node1&#45;&gt;Node5 -->
<g id="edge4" class="edge">
<title>Node1&#45;&gt;Node5</title>
<path fill="none" stroke="midnightblue" d="M132.86,-139.5C141.86,-139.5 151.21,-139.5 160.5,-139.5"/>
<polygon fill="midnightblue" stroke="midnightblue" points="160.35,-143 170.35,-139.5 160.35,-136 160.35,-143"/>
</g>
<!-- Node6 -->
<g id="node6" class="node">
<title>Node6</title>
<g id="a_node6"><a xlink:href="class_graphics.html#aa8e0be461f566f06c2e0b30df08e8492" target="_top" xlink:title=" ">
<polygon fill="none" stroke="black" points="169,-90.5 169,-110.5 324.5,-110.5 324.5,-90.5 169,-90.5"/>
<text text-anchor="middle" x="246.75" y="-97" font-family="Helvetica,sans-Serif" font-size="10.00">Graphics::DrawTriangleTexWrap</text>
</a>
</g>
</g>
<!-- Node1&#45;&gt;Node6 -->
<g id="edge5" class="edge">
<title>Node1&#45;&gt;Node6</title>
<path fill="none" stroke="midnightblue" d="M112.94,-129.56C136.21,-124.47 164.76,-118.22 189.42,-112.82"/>
<polygon fill="midnightblue" stroke="midnightblue" points="190.06,-116.05 199.08,-110.49 188.57,-109.21 190.06,-116.05"/>
</g>
<!-- Node10 -->
<g id="node10" class="node">
<title>Node10</title>
<g id="a_node10"><a xlink:href="class_cube.html#a03bc74c202049266ea91bd58f9e5b0f7" target="_top" xlink:title=" ">
<polygon fill="none" stroke="black" points="189.25,-51.5 189.25,-71.5 304.25,-71.5 304.25,-51.5 189.25,-51.5"/>
<text text-anchor="middle" x="246.75" y="-58" font-family="Helvetica,sans-Serif" font-size="10.00">Cube::GetTrianglesTex</text>
</a>
</g>
</g>
<!-- Node1&#45;&gt;Node10 -->
<g id="edge9" class="edge">
<title>Node1&#45;&gt;Node10</title>
<path fill="none" stroke="midnightblue" d="M82,-129.56C101.16,-116.83 136.3,-94.83 169,-81.5 175.51,-78.85 182.48,-76.46 189.46,-74.33"/>
<polygon fill="midnightblue" stroke="midnightblue" points="190.01,-77.53 198.65,-71.4 188.07,-70.8 190.01,-77.53"/>
</g>
<!-- Node11 -->
<g id="node11" class="node">
<title>Node11</title>
<g id="a_node11"><a xlink:href="class_pube_screen_transformer.html#a1cdbac114c52bfc52aaec9da0e68b5a0" target="_top" xlink:title=" ">
<polygon fill="none" stroke="black" points="186.62,-0.5 186.62,-32.5 306.88,-32.5 306.88,-0.5 186.62,-0.5"/>
<text text-anchor="start" x="194.62" y="-19" font-family="Helvetica,sans-Serif" font-size="10.00">PubeScreenTransformer</text>
<text text-anchor="middle" x="246.75" y="-7" font-family="Helvetica,sans-Serif" font-size="10.00">::Transform</text>
</a>
</g>
</g>
<!-- Node1&#45;&gt;Node11 -->
<g id="edge10" class="edge">
<title>Node1&#45;&gt;Node11</title>
<path fill="none" stroke="midnightblue" d="M75.12,-129.8C90.73,-110.52 128.35,-67.13 169,-42.5 172.23,-40.55 175.62,-38.72 179.11,-37"/>
<polygon fill="midnightblue" stroke="midnightblue" points="180.45,-39.79 188.13,-32.5 177.58,-33.41 180.45,-39.79"/>
</g>
<!-- Node7 -->
<g id="node7" class="node">
<title>Node7</title>
<g id="a_node7"><a xlink:href="class_tex_vertex.html#a95d346af8d4fb15e8ac3167552f40de8" target="_top" xlink:title=" ">
<polygon fill="none" stroke="black" points="360.5,-90.5 360.5,-110.5 445.5,-110.5 445.5,-90.5 360.5,-90.5"/>
<text text-anchor="middle" x="403" y="-97" font-family="Helvetica,sans-Serif" font-size="10.00">TexVertex::Lerp</text>
</a>
</g>
</g>
<!-- Node6&#45;&gt;Node7 -->
<g id="edge6" class="edge">
<title>Node6&#45;&gt;Node7</title>
<path fill="none" stroke="midnightblue" d="M324.42,-100.5C333.05,-100.5 341.69,-100.5 349.9,-100.5"/>
<polygon fill="midnightblue" stroke="midnightblue" points="349.8,-104 359.8,-100.5 349.8,-97 349.8,-104"/>
</g>
<!-- Node8 -->
<g id="node8" class="node">
<title>Node8</title>
<g id="a_node8"><a xlink:href="class_vector2.html#aa1432a83c17f78b496bcad76a41c27af" target="_top" xlink:title=" ">
<polygon fill="none" stroke="black" points="481.5,-110.5 481.5,-130.5 592,-130.5 592,-110.5 481.5,-110.5"/>
<text text-anchor="middle" x="536.75" y="-117" font-family="Helvetica,sans-Serif" font-size="10.00">Vector2&lt; float &gt;::Lerp</text>
</a>
</g>
</g>
<!-- Node7&#45;&gt;Node8 -->
<g id="edge7" class="edge">
<title>Node7&#45;&gt;Node8</title>
<path fill="none" stroke="midnightblue" d="M445.33,-106.77C453.39,-108 462.03,-109.31 470.65,-110.62"/>
<polygon fill="midnightblue" stroke="midnightblue" points="470.1,-114.23 480.51,-112.27 471.15,-107.31 470.1,-114.23"/>
</g>
<!-- Node9 -->
<g id="node9" class="node">
<title>Node9</title>
<g id="a_node9"><a xlink:href="class_vector3.html#a81b5c061ed2ace3d514b2037d299b64a" target="_top" xlink:title=" ">
<polygon fill="none" stroke="black" points="481.5,-71.5 481.5,-91.5 592,-91.5 592,-71.5 481.5,-71.5"/>
<text text-anchor="middle" x="536.75" y="-78" font-family="Helvetica,sans-Serif" font-size="10.00">Vector3&lt; float &gt;::Lerp</text>
</a>
</g>
</g>
<!-- Node7&#45;&gt;Node9 -->
<g id="edge8" class="edge">
<title>Node7&#45;&gt;Node9</title>
<path fill="none" stroke="midnightblue" d="M445.33,-94.54C453.39,-93.38 462.03,-92.13 470.65,-90.89"/>
<polygon fill="midnightblue" stroke="midnightblue" points="471.12,-94.21 480.51,-89.32 470.12,-87.28 471.12,-94.21"/>
</g>
</g>
</svg>
