<?xml version="1.0" encoding="UTF-8" standalone="no"?>
<!DOCTYPE svg PUBLIC "-//W3C//DTD SVG 1.1//EN"
 "http://www.w3.org/Graphics/SVG/1.1/DTD/svg11.dtd">
<!-- Generated by graphviz version 8.1.0 (20230707.0739)
 -->
<!-- Title: WaveVertexTextureEffect::GeometryShader::operator() Pages: 1 -->
<svg width="789pt" height="87pt"
 viewBox="0.00 0.00 789.25 87.00" xmlns="http://www.w3.org/2000/svg" xmlns:xlink="http://www.w3.org/1999/xlink">
<g id="graph0" class="graph" transform="scale(1 1) rotate(0) translate(4 83)">
<title>WaveVertexTextureEffect::GeometryShader::operator()</title>
<!-- Node1 -->
<g id="node1" class="node">
<title>Node1</title>
<g id="a_node1"><a xlink:title=" ">
<polygon fill="#bfbfbf" stroke="black" points="0,-32.5 0,-64.5 142.75,-64.5 142.75,-32.5 0,-32.5"/>
<text text-anchor="start" x="8" y="-51" font-family="Helvetica,sans-Serif" font-size="10.00">WaveVertexTextureEffect</text>
<text text-anchor="middle" x="71.38" y="-39" font-family="Helvetica,sans-Serif" font-size="10.00">::GeometryShader::operator()</text>
</a>
</g>
</g>
<!-- Node2 -->
<g id="node2" class="node">
<title>Node2</title>
<g id="a_node2"><a xlink:href="class_vector3.html#af6770ab3b9092e848317aaf6e7d77803" target="_top" xlink:title=" ">
<polygon fill="none" stroke="black" points="178.75,-58.5 178.75,-78.5 329.75,-78.5 329.75,-58.5 178.75,-58.5"/>
<text text-anchor="middle" x="254.25" y="-65" font-family="Helvetica,sans-Serif" font-size="10.00">Vector3&lt; float &gt;::CrossProduct</text>
</a>
</g>
</g>
<!-- Node1&#45;&gt;Node2 -->
<g id="edge1" class="edge">
<title>Node1&#45;&gt;Node2</title>
<path fill="none" stroke="midnightblue" d="M142.56,-56.26C150.94,-57.19 159.57,-58.14 168.13,-59.09"/>
<polygon fill="midnightblue" stroke="midnightblue" points="167.59,-62.66 177.91,-60.28 168.36,-55.7 167.59,-62.66"/>
</g>
<!-- Node3 -->
<g id="node3" class="node">
<title>Node3</title>
<g id="a_node3"><a xlink:href="class_vector3.html#a1453d64a7a4333b19d6a92b8e61e617e" target="_top" xlink:title=" ">
<polygon fill="none" stroke="black" points="194.12,-19.5 194.12,-39.5 314.38,-39.5 314.38,-19.5 194.12,-19.5"/>
<text text-anchor="middle" x="254.25" y="-26" font-family="Helvetica,sans-Serif" font-size="10.00">Vector3::GetNormalized</text>
</a>
</g>
</g>
<!-- Node1&#45;&gt;Node3 -->
<g id="edge2" class="edge">
<title>Node1&#45;&gt;Node3</title>
<path fill="none" stroke="midnightblue" d="M142.56,-41.13C156.04,-39.71 170.15,-38.23 183.61,-36.82"/>
<polygon fill="midnightblue" stroke="midnightblue" points="183.66,-40.22 193.24,-35.7 182.93,-33.26 183.66,-40.22"/>
</g>
<!-- Node4 -->
<g id="node4" class="node">
<title>Node4</title>
<g id="a_node4"><a xlink:href="class_vector3.html#ac297afb6e74370b4327d779328412b18" target="_top" xlink:title=" ">
<polygon fill="none" stroke="black" points="365.75,-39.5 365.75,-59.5 482.25,-59.5 482.25,-39.5 365.75,-39.5"/>
<text text-anchor="middle" x="424" y="-46" font-family="Helvetica,sans-Serif" font-size="10.00">Vector3::GetMagnitude</text>
</a>
</g>
</g>
<!-- Node3&#45;&gt;Node4 -->
<g id="edge3" class="edge">
<title>Node3&#45;&gt;Node4</title>
<path fill="none" stroke="midnightblue" d="M313.92,-36.5C327.19,-38.08 341.39,-39.77 355.01,-41.39"/>
<polygon fill="midnightblue" stroke="midnightblue" points="354.43,-44.97 364.78,-42.68 355.26,-38.02 354.43,-44.97"/>
</g>
<!-- Node7 -->
<g id="node7" class="node">
<title>Node7</title>
<g id="a_node7"><a xlink:href="class_vector3.html#a515f2c0f2383c0e3083321745b708463" target="_top" xlink:title=" ">
<polygon fill="none" stroke="black" points="379.25,-0.5 379.25,-20.5 468.75,-20.5 468.75,-0.5 379.25,-0.5"/>
<text text-anchor="middle" x="424" y="-7" font-family="Helvetica,sans-Serif" font-size="10.00">Vector3::Vector3</text>
</a>
</g>
</g>
<!-- Node3&#45;&gt;Node7 -->
<g id="edge6" class="edge">
<title>Node3&#45;&gt;Node7</title>
<path fill="none" stroke="midnightblue" d="M313.92,-22.85C331.76,-20.83 351.28,-18.62 368.81,-16.64"/>
<polygon fill="midnightblue" stroke="midnightblue" points="368.89,-20.04 378.43,-15.43 368.1,-13.08 368.89,-20.04"/>
</g>
<!-- Node5 -->
<g id="node5" class="node">
<title>Node5</title>
<g id="a_node5"><a xlink:href="class_vector3.html#a40b58e9af6b19f4fd02e75a7e036c497" target="_top" xlink:title=" ">
<polygon fill="none" stroke="black" points="518.25,-39.5 518.25,-59.5 670.75,-59.5 670.75,-39.5 518.25,-39.5"/>
<text text-anchor="middle" x="594.5" y="-46" font-family="Helvetica,sans-Serif" font-size="10.00">Vector3::GetMagnitudeSquared</text>
</a>
</g>
</g>
<!-- Node4&#45;&gt;Node5 -->
<g id="edge4" class="edge">
<title>Node4&#45;&gt;Node5</title>
<path fill="none" stroke="midnightblue" d="M482.05,-49.5C490.24,-49.5 498.81,-49.5 507.41,-49.5"/>
<polygon fill="midnightblue" stroke="midnightblue" points="507.29,-53 517.29,-49.5 507.29,-46 507.29,-53"/>
</g>
<!-- Node6 -->
<g id="node6" class="node">
<title>Node6</title>
<g id="a_node6"><a xlink:href="namespace_math.html#aaf39112a96239cbf99db4374c7beb3bd" target="_top" xlink:title=" ">
<polygon fill="none" stroke="black" points="706.75,-39.5 706.75,-59.5 781.25,-59.5 781.25,-39.5 706.75,-39.5"/>
<text text-anchor="middle" x="744" y="-46" font-family="Helvetica,sans-Serif" font-size="10.00">Math::Square</text>
</a>
</g>
</g>
<!-- Node5&#45;&gt;Node6 -->
<g id="edge5" class="edge">
<title>Node5&#45;&gt;Node6</title>
<path fill="none" stroke="midnightblue" d="M670.55,-49.5C679.26,-49.5 687.94,-49.5 696.12,-49.5"/>
<polygon fill="midnightblue" stroke="midnightblue" points="695.9,-53 705.9,-49.5 695.9,-46 695.9,-53"/>
</g>
</g>
</svg>
