<?xml version="1.0" encoding="UTF-8" standalone="no"?>
<!DOCTYPE svg PUBLIC "-//W3C//DTD SVG 1.1//EN"
 "http://www.w3.org/Graphics/SVG/1.1/DTD/svg11.dtd">
<!-- Generated by graphviz version 8.1.0 (20230707.0739)
 -->
<!-- Title: EngineException Pages: 1 -->
<svg width="369pt" height="86pt"
 viewBox="0.00 0.00 368.50 86.00" xmlns="http://www.w3.org/2000/svg" xmlns:xlink="http://www.w3.org/1999/xlink">
<g id="graph0" class="graph" transform="scale(1 1) rotate(0) translate(4 82)">
<title>EngineException</title>
<!-- Node1 -->
<g id="node1" class="node">
<title>Node1</title>
<g id="a_node1"><a xlink:title=" ">
<polygon fill="#bfbfbf" stroke="black" points="138.5,-57.5 138.5,-77.5 228,-77.5 228,-57.5 138.5,-57.5"/>
<text text-anchor="middle" x="183.25" y="-64" font-family="Helvetica,sans-Serif" font-size="10.00">EngineException</text>
</a>
</g>
</g>
<!-- Node2 -->
<g id="node2" class="node">
<title>Node2</title>
<g id="a_node2"><a xlink:href="class_graphics_1_1_exception.html" target="_top" xlink:title=" ">
<polygon fill="none" stroke="black" points="0,-0.5 0,-20.5 104.5,-20.5 104.5,-0.5 0,-0.5"/>
<text text-anchor="middle" x="52.25" y="-7" font-family="Helvetica,sans-Serif" font-size="10.00">Graphics::Exception</text>
</a>
</g>
</g>
<!-- Node1&#45;&gt;Node2 -->
<g id="edge1" class="edge">
<title>Node1&#45;&gt;Node2</title>
<path fill="none" stroke="midnightblue" d="M151.8,-53.29C127.59,-43.13 94.8,-29.36 73.58,-20.46"/>
<polygon fill="midnightblue" stroke="midnightblue" points="150.34,-56.9 160.91,-57.54 153.05,-50.44 150.34,-56.9"/>
</g>
<!-- Node3 -->
<g id="node3" class="node">
<title>Node3</title>
<g id="a_node3"><a xlink:href="class_main_window_1_1_exception.html" target="_top" xlink:title=" ">
<polygon fill="none" stroke="black" points="122.75,-0.5 122.75,-20.5 243.75,-20.5 243.75,-0.5 122.75,-0.5"/>
<text text-anchor="middle" x="183.25" y="-7" font-family="Helvetica,sans-Serif" font-size="10.00">MainWindow::Exception</text>
</a>
</g>
</g>
<!-- Node1&#45;&gt;Node3 -->
<g id="edge2" class="edge">
<title>Node1&#45;&gt;Node3</title>
<path fill="none" stroke="midnightblue" d="M183.25,-47C183.25,-37.85 183.25,-27.39 183.25,-20.21"/>
<polygon fill="midnightblue" stroke="midnightblue" points="179.75,-46.91 183.25,-56.91 186.75,-46.91 179.75,-46.91"/>
</g>
<!-- Node4 -->
<g id="node4" class="node">
<title>Node4</title>
<g id="a_node4"><a xlink:href="class_surface_1_1_exception.html" target="_top" xlink:title=" ">
<polygon fill="none" stroke="black" points="262,-0.5 262,-20.5 360.5,-20.5 360.5,-0.5 262,-0.5"/>
<text text-anchor="middle" x="311.25" y="-7" font-family="Helvetica,sans-Serif" font-size="10.00">Surface::Exception</text>
</a>
</g>
</g>
<!-- Node1&#45;&gt;Node4 -->
<g id="edge3" class="edge">
<title>Node1&#45;&gt;Node4</title>
<path fill="none" stroke="midnightblue" d="M213.98,-53.29C237.63,-43.13 269.68,-29.36 290.41,-20.46"/>
<polygon fill="midnightblue" stroke="midnightblue" points="212.91,-50.38 205.1,-57.54 215.67,-56.81 212.91,-50.38"/>
</g>
</g>
</svg>
