<?xml version="1.0" encoding="UTF-8" standalone="no"?>
<!DOCTYPE svg PUBLIC "-//W3C//DTD SVG 1.1//EN"
 "http://www.w3.org/Graphics/SVG/1.1/DTD/svg11.dtd">
<!-- Generated by graphviz version 8.1.0 (20230707.0739)
 -->
<!-- Title: CubeSkinnedScene::Update Pages: 1 -->
<svg width="306pt" height="68pt"
 viewBox="0.00 0.00 306.25 68.00" xmlns="http://www.w3.org/2000/svg" xmlns:xlink="http://www.w3.org/1999/xlink">
<g id="graph0" class="graph" transform="scale(1 1) rotate(0) translate(4 64)">
<title>CubeSkinnedScene::Update</title>
<!-- Node1 -->
<g id="node1" class="node">
<title>Node1</title>
<g id="a_node1"><a xlink:title=" ">
<polygon fill="#bfbfbf" stroke="black" points="0,-19.5 0,-39.5 138.25,-39.5 138.25,-19.5 0,-19.5"/>
<text text-anchor="middle" x="69.12" y="-26" font-family="Helvetica,sans-Serif" font-size="10.00">CubeSkinnedScene::Update</text>
</a>
</g>
</g>
<!-- Node2 -->
<g id="node2" class="node">
<title>Node2</title>
<g id="a_node2"><a xlink:href="class_keyboard.html#a7b11ba07982539a0dd9b16b4706e7211" target="_top" xlink:title=" ">
<polygon fill="none" stroke="black" points="174.25,-39.5 174.25,-59.5 298.25,-59.5 298.25,-39.5 174.25,-39.5"/>
<text text-anchor="middle" x="236.25" y="-46" font-family="Helvetica,sans-Serif" font-size="10.00">Keyboard::KeyIsPressed</text>
</a>
</g>
</g>
<!-- Node1&#45;&gt;Node2 -->
<g id="edge1" class="edge">
<title>Node1&#45;&gt;Node2</title>
<path fill="none" stroke="midnightblue" d="M138.24,-37.75C146.58,-38.76 155.12,-39.79 163.51,-40.81"/>
<polygon fill="midnightblue" stroke="midnightblue" points="163.08,-44.4 173.42,-42.13 163.92,-37.46 163.08,-44.4"/>
</g>
<!-- Node3 -->
<g id="node3" class="node">
<title>Node3</title>
<g id="a_node3"><a xlink:href="namespace_math.html#a5bf97cccfc70f0c8b750396c70127573" target="_top" xlink:title=" ">
<polygon fill="none" stroke="black" points="191.88,-0.5 191.88,-20.5 280.62,-20.5 280.62,-0.5 191.88,-0.5"/>
<text text-anchor="middle" x="236.25" y="-7" font-family="Helvetica,sans-Serif" font-size="10.00">Math::wrapAngle</text>
</a>
</g>
</g>
<!-- Node1&#45;&gt;Node3 -->
<g id="edge2" class="edge">
<title>Node1&#45;&gt;Node3</title>
<path fill="none" stroke="midnightblue" d="M138.24,-21.66C152.68,-20 167.73,-18.27 181.55,-16.68"/>
<polygon fill="midnightblue" stroke="midnightblue" points="181.79,-20.06 191.33,-15.44 180.99,-13.11 181.79,-20.06"/>
</g>
</g>
</svg>
