<?xml version="1.0" encoding="UTF-8" standalone="no"?>
<!DOCTYPE svg PUBLIC "-//W3C//DTD SVG 1.1//EN"
 "http://www.w3.org/Graphics/SVG/1.1/DTD/svg11.dtd">
<!-- Generated by graphviz version 2.43.0 (0)
 -->
<!-- Title: VertexFlatEffect::VertexShader::Output Pages: 1 -->
<svg width="167pt" height="106pt"
 viewBox="0.00 0.00 167.00 106.00" xmlns="http://www.w3.org/2000/svg" xmlns:xlink="http://www.w3.org/1999/xlink">
<g id="graph0" class="graph" transform="scale(1 1) rotate(0) translate(4 102)">
<title>VertexFlatEffect::VertexShader::Output</title>
<!-- Node1 -->
<g id="node1" class="node">
<title>Node1</title>
<g id="a_node1"><a xlink:title=" ">
<polygon fill="#bfbfbf" stroke="black" points="27,-0.5 27,-30.5 159,-30.5 159,-0.5 27,-0.5"/>
<text text-anchor="start" x="35" y="-18.5" font-family="Helvetica,sans-Serif" font-size="10.00">VertexFlatEffect::Vertex</text>
<text text-anchor="middle" x="93" y="-7.5" font-family="Helvetica,sans-Serif" font-size="10.00">Shader::Output</text>
</a>
</g>
</g>
<!-- Node2 -->
<g id="node2" class="node">
<title>Node2</title>
<g id="a_node2"><a xlink:href="classVector3.html" target="_top" xlink:title=" ">
<polygon fill="none" stroke="black" points="0,-78.5 0,-97.5 98,-97.5 98,-78.5 0,-78.5"/>
<text text-anchor="middle" x="49" y="-85.5" font-family="Helvetica,sans-Serif" font-size="10.00">Vector3&lt; float &gt;</text>
</a>
</g>
</g>
<!-- Node2&#45;&gt;Node1 -->
<g id="edge1" class="edge">
<title>Node2&#45;&gt;Node1</title>
<path fill="none" stroke="#9a32cd" stroke-dasharray="5,2" d="M59.81,-69.68C67.32,-57.65 77.19,-41.83 84.21,-30.58"/>
<polygon fill="#9a32cd" stroke="#9a32cd" points="56.72,-68.02 54.4,-78.36 62.66,-71.73 56.72,-68.02"/>
<text text-anchor="middle" x="83.5" y="-52" font-family="Helvetica,sans-Serif" font-size="10.00"> pos</text>
</g>
<!-- Node3 -->
<g id="node3" class="node">
<title>Node3</title>
<g id="a_node3"><a xlink:href="classColor.html" target="_top" xlink:title=" ">
<polygon fill="none" stroke="black" points="116,-78.5 116,-97.5 158,-97.5 158,-78.5 116,-78.5"/>
<text text-anchor="middle" x="137" y="-85.5" font-family="Helvetica,sans-Serif" font-size="10.00">Color</text>
</a>
</g>
</g>
<!-- Node3&#45;&gt;Node1 -->
<g id="edge2" class="edge">
<title>Node3&#45;&gt;Node1</title>
<path fill="none" stroke="#9a32cd" stroke-dasharray="5,2" d="M126.19,-69.68C118.68,-57.65 108.81,-41.83 101.79,-30.58"/>
<polygon fill="#9a32cd" stroke="#9a32cd" points="123.34,-71.73 131.6,-78.36 129.28,-68.02 123.34,-71.73"/>
<text text-anchor="middle" x="132" y="-52" font-family="Helvetica,sans-Serif" font-size="10.00"> color</text>
</g>
</g>
</svg>
