<?xml version="1.0" encoding="UTF-8" standalone="no"?>
<!DOCTYPE svg PUBLIC "-//W3C//DTD SVG 1.1//EN"
 "http://www.w3.org/Graphics/SVG/1.1/DTD/svg11.dtd">
<!-- Generated by graphviz version 8.1.0 (20230707.0739)
 -->
<!-- Title: WaveVertexTextureEffect Pages: 1 -->
<svg width="312pt" height="143pt"
 viewBox="0.00 0.00 311.50 143.00" xmlns="http://www.w3.org/2000/svg" xmlns:xlink="http://www.w3.org/1999/xlink">
<g id="graph0" class="graph" transform="scale(1 1) rotate(0) translate(4 139)">
<title>WaveVertexTextureEffect</title>
<!-- Node1 -->
<g id="node1" class="node">
<title>Node1</title>
<g id="a_node1"><a xlink:title=" ">
<polygon fill="#bfbfbf" stroke="black" points="178,-57.5 178,-77.5 303.5,-77.5 303.5,-57.5 178,-57.5"/>
<text text-anchor="middle" x="240.75" y="-64" font-family="Helvetica,sans-Serif" font-size="10.00">WaveVertexTextureEffect</text>
</a>
</g>
</g>
<!-- Node2 -->
<g id="node2" class="node">
<title>Node2</title>
<g id="a_node2"><a xlink:href="class_wave_vertex_texture_effect_1_1_pixel_shader.html" target="_top" xlink:title=" ">
<polygon fill="none" stroke="black" points="1.5,-102.5 1.5,-134.5 127,-134.5 127,-102.5 1.5,-102.5"/>
<text text-anchor="start" x="9.5" y="-121" font-family="Helvetica,sans-Serif" font-size="10.00">WaveVertexTextureEffect</text>
<text text-anchor="middle" x="64.25" y="-109" font-family="Helvetica,sans-Serif" font-size="10.00">::PixelShader</text>
</a>
</g>
</g>
<!-- Node2&#45;&gt;Node1 -->
<g id="edge1" class="edge">
<title>Node2&#45;&gt;Node1</title>
<path fill="none" stroke="#9a32cd" stroke-dasharray="5,2" d="M130.39,-99.46C156.01,-91.97 184.35,-83.69 205.76,-77.43"/>
<polygon fill="#9a32cd" stroke="#9a32cd" points="129.6,-96.34 120.98,-102.5 131.56,-103.06 129.6,-96.34"/>
<text text-anchor="middle" x="153.25" y="-97" font-family="Helvetica,sans-Serif" font-size="10.00"> ps</text>
</g>
<!-- Node3 -->
<g id="node3" class="node">
<title>Node3</title>
<g id="a_node3"><a xlink:href="class_wave_vertex_texture_effect_1_1_vertex_shader.html" target="_top" xlink:title=" ">
<polygon fill="none" stroke="black" points="1.5,-51.5 1.5,-83.5 127,-83.5 127,-51.5 1.5,-51.5"/>
<text text-anchor="start" x="9.5" y="-70" font-family="Helvetica,sans-Serif" font-size="10.00">WaveVertexTextureEffect</text>
<text text-anchor="middle" x="64.25" y="-58" font-family="Helvetica,sans-Serif" font-size="10.00">::VertexShader</text>
</a>
</g>
</g>
<!-- Node3&#45;&gt;Node1 -->
<g id="edge2" class="edge">
<title>Node3&#45;&gt;Node1</title>
<path fill="none" stroke="#9a32cd" stroke-dasharray="5,2" d="M137.49,-67.5C151.01,-67.5 165.03,-67.5 178.2,-67.5"/>
<polygon fill="#9a32cd" stroke="#9a32cd" points="137.77,-64 127.77,-67.5 137.77,-71 137.77,-64"/>
<text text-anchor="middle" x="153.25" y="-70" font-family="Helvetica,sans-Serif" font-size="10.00"> vs</text>
</g>
<!-- Node4 -->
<g id="node4" class="node">
<title>Node4</title>
<g id="a_node4"><a xlink:href="class_default_geometry_shader.html" target="_top" xlink:title=" ">
<polygon fill="none" stroke="black" points="0,-0.5 0,-32.5 128.5,-32.5 128.5,-0.5 0,-0.5"/>
<text text-anchor="start" x="8" y="-19" font-family="Helvetica,sans-Serif" font-size="10.00">DefaultGeometryShader</text>
<text text-anchor="middle" x="64.25" y="-7" font-family="Helvetica,sans-Serif" font-size="10.00">&lt; VertexShader::Output &gt;</text>
</a>
</g>
</g>
<!-- Node4&#45;&gt;Node1 -->
<g id="edge3" class="edge">
<title>Node4&#45;&gt;Node1</title>
<path fill="none" stroke="#9a32cd" stroke-dasharray="5,2" d="M130.39,-35.54C156.01,-43.03 184.35,-51.31 205.76,-57.57"/>
<polygon fill="#9a32cd" stroke="#9a32cd" points="131.56,-31.94 120.98,-32.5 129.6,-38.66 131.56,-31.94"/>
<text text-anchor="middle" x="153.25" y="-46" font-family="Helvetica,sans-Serif" font-size="10.00"> gs</text>
</g>
</g>
</svg>
