<?xml version="1.0" encoding="UTF-8" standalone="no"?>
<!DOCTYPE svg PUBLIC "-//W3C//DTD SVG 1.1//EN"
 "http://www.w3.org/Graphics/SVG/1.1/DTD/svg11.dtd">
<!-- Generated by graphviz version 8.1.0 (20230707.0739)
 -->
<!-- Title: Engine::ComposeFrame Pages: 1 -->
<svg width="403pt" height="107pt"
 viewBox="0.00 0.00 403.25 107.00" xmlns="http://www.w3.org/2000/svg" xmlns:xlink="http://www.w3.org/1999/xlink">
<g id="graph0" class="graph" transform="scale(1 1) rotate(0) translate(4 103)">
<title>Engine::ComposeFrame</title>
<!-- Node1 -->
<g id="node1" class="node">
<title>Node1</title>
<g id="a_node1"><a xlink:title=" ">
<polygon fill="#bfbfbf" stroke="black" points="0,-58.5 0,-78.5 121,-78.5 121,-58.5 0,-58.5"/>
<text text-anchor="middle" x="60.5" y="-65" font-family="Helvetica,sans-Serif" font-size="10.00">Engine::ComposeFrame</text>
</a>
</g>
</g>
<!-- Node2 -->
<g id="node2" class="node">
<title>Node2</title>
<g id="a_node2"><a xlink:href="class_graphics.html#ae9f5bcaa267fdff06bbfcf1e2ddf7137" target="_top" xlink:title=" ">
<polygon fill="none" stroke="black" points="157,-78.5 157,-98.5 270.5,-98.5 270.5,-78.5 157,-78.5"/>
<text text-anchor="middle" x="213.75" y="-85" font-family="Helvetica,sans-Serif" font-size="10.00">Graphics::BeginFrame</text>
</a>
</g>
</g>
<!-- Node1&#45;&gt;Node2 -->
<g id="edge1" class="edge">
<title>Node1&#45;&gt;Node2</title>
<path fill="none" stroke="midnightblue" d="M120.84,-76.35C129.22,-77.46 137.88,-78.6 146.38,-79.72"/>
<polygon fill="midnightblue" stroke="midnightblue" points="145.66,-83.29 156.03,-81.13 146.58,-76.35 145.66,-83.29"/>
</g>
<!-- Node4 -->
<g id="node4" class="node">
<title>Node4</title>
<g id="a_node4"><a xlink:href="class_graphics.html#a56203cba547bde8af2eadda01e0d17c3" target="_top" xlink:title=" ">
<polygon fill="none" stroke="black" points="160.75,-39.5 160.75,-59.5 266.75,-59.5 266.75,-39.5 160.75,-39.5"/>
<text text-anchor="middle" x="213.75" y="-46" font-family="Helvetica,sans-Serif" font-size="10.00">Graphics::EndFrame</text>
</a>
</g>
</g>
<!-- Node1&#45;&gt;Node4 -->
<g id="edge3" class="edge">
<title>Node1&#45;&gt;Node4</title>
<path fill="none" stroke="midnightblue" d="M120.84,-61.05C130.46,-59.84 140.45,-58.58 150.15,-57.36"/>
<polygon fill="midnightblue" stroke="midnightblue" points="150.45,-60.73 159.94,-56.01 149.58,-53.78 150.45,-60.73"/>
</g>
<!-- Node3 -->
<g id="node3" class="node">
<title>Node3</title>
<g id="a_node3"><a xlink:href="class_surface.html#a0e2dbd9d8b1bc46664e2d52e71d533e1" target="_top" xlink:title=" ">
<polygon fill="none" stroke="black" points="312.12,-78.5 312.12,-98.5 389.62,-98.5 389.62,-78.5 312.12,-78.5"/>
<text text-anchor="middle" x="350.88" y="-85" font-family="Helvetica,sans-Serif" font-size="10.00">Surface::Clear</text>
</a>
</g>
</g>
<!-- Node2&#45;&gt;Node3 -->
<g id="edge2" class="edge">
<title>Node2&#45;&gt;Node3</title>
<path fill="none" stroke="midnightblue" d="M270.49,-88.5C280.74,-88.5 291.36,-88.5 301.37,-88.5"/>
<polygon fill="midnightblue" stroke="midnightblue" points="301.37,-92 311.37,-88.5 301.37,-85 301.37,-92"/>
</g>
<!-- Node5 -->
<g id="node5" class="node">
<title>Node5</title>
<g id="a_node5"><a xlink:href="namespace_math.html#a77174619219856c2fc6959ec7a269c60" target="_top" xlink:title=" ">
<polygon fill="none" stroke="black" points="319.62,-39.5 319.62,-59.5 382.12,-59.5 382.12,-39.5 319.62,-39.5"/>
<text text-anchor="middle" x="350.88" y="-46" font-family="Helvetica,sans-Serif" font-size="10.00">Math::Map</text>
</a>
</g>
</g>
<!-- Node4&#45;&gt;Node5 -->
<g id="edge4" class="edge">
<title>Node4&#45;&gt;Node5</title>
<path fill="none" stroke="midnightblue" d="M266.61,-49.5C280.68,-49.5 295.71,-49.5 309.08,-49.5"/>
<polygon fill="midnightblue" stroke="midnightblue" points="308.85,-53 318.85,-49.5 308.85,-46 308.85,-53"/>
</g>
<!-- Node6 -->
<g id="node6" class="node">
<title>Node6</title>
<g id="a_node6"><a xlink:href="class_surface.html#ac85ddc42d6bb5ab0aebeaf40c8b62b6a" target="_top" xlink:title=" ">
<polygon fill="none" stroke="black" points="306.5,-0.5 306.5,-20.5 395.25,-20.5 395.25,-0.5 306.5,-0.5"/>
<text text-anchor="middle" x="350.88" y="-7" font-family="Helvetica,sans-Serif" font-size="10.00">Surface::Present</text>
</a>
</g>
</g>
<!-- Node4&#45;&gt;Node6 -->
<g id="edge5" class="edge">
<title>Node4&#45;&gt;Node6</title>
<path fill="none" stroke="midnightblue" d="M249.2,-39.56C266.19,-34.65 286.9,-28.68 305.11,-23.42"/>
<polygon fill="midnightblue" stroke="midnightblue" points="305.85,-26.56 314.49,-20.42 303.91,-19.83 305.85,-26.56"/>
</g>
</g>
</svg>
