<?xml version="1.0" encoding="UTF-8" standalone="no"?>
<!DOCTYPE svg PUBLIC "-//W3C//DTD SVG 1.1//EN"
 "http://www.w3.org/Graphics/SVG/1.1/DTD/svg11.dtd">
<!-- Generated by graphviz version 8.1.0 (20230707.0739)
 -->
<!-- Title: CubeOrderScene::Update Pages: 1 -->
<svg width="295pt" height="68pt"
 viewBox="0.00 0.00 295.00 68.00" xmlns="http://www.w3.org/2000/svg" xmlns:xlink="http://www.w3.org/1999/xlink">
<g id="graph0" class="graph" transform="scale(1 1) rotate(0) translate(4 64)">
<title>CubeOrderScene::Update</title>
<!-- Node1 -->
<g id="node1" class="node">
<title>Node1</title>
<g id="a_node1"><a xlink:title=" ">
<polygon fill="#bfbfbf" stroke="black" points="0,-19.5 0,-39.5 127,-39.5 127,-19.5 0,-19.5"/>
<text text-anchor="middle" x="63.5" y="-26" font-family="Helvetica,sans-Serif" font-size="10.00">CubeOrderScene::Update</text>
</a>
</g>
</g>
<!-- Node2 -->
<g id="node2" class="node">
<title>Node2</title>
<g id="a_node2"><a xlink:href="class_keyboard.html#a7b11ba07982539a0dd9b16b4706e7211" target="_top" xlink:title=" ">
<polygon fill="none" stroke="black" points="163,-39.5 163,-59.5 287,-59.5 287,-39.5 163,-39.5"/>
<text text-anchor="middle" x="225" y="-46" font-family="Helvetica,sans-Serif" font-size="10.00">Keyboard::KeyIsPressed</text>
</a>
</g>
</g>
<!-- Node1&#45;&gt;Node2 -->
<g id="edge1" class="edge">
<title>Node1&#45;&gt;Node2</title>
<path fill="none" stroke="midnightblue" d="M126.62,-37.29C135.05,-38.35 143.75,-39.44 152.33,-40.51"/>
<polygon fill="midnightblue" stroke="midnightblue" points="151.74,-44.09 162.09,-41.86 152.61,-37.15 151.74,-44.09"/>
</g>
<!-- Node3 -->
<g id="node3" class="node">
<title>Node3</title>
<g id="a_node3"><a xlink:href="namespace_math.html#a5bf97cccfc70f0c8b750396c70127573" target="_top" xlink:title=" ">
<polygon fill="none" stroke="black" points="180.62,-0.5 180.62,-20.5 269.38,-20.5 269.38,-0.5 180.62,-0.5"/>
<text text-anchor="middle" x="225" y="-7" font-family="Helvetica,sans-Serif" font-size="10.00">Math::wrapAngle</text>
</a>
</g>
</g>
<!-- Node1&#45;&gt;Node3 -->
<g id="edge2" class="edge">
<title>Node1&#45;&gt;Node3</title>
<path fill="none" stroke="midnightblue" d="M126.62,-22.1C140.98,-20.39 156.14,-18.58 170.11,-16.92"/>
<polygon fill="midnightblue" stroke="midnightblue" points="170.51,-20.28 180.02,-15.62 169.68,-13.33 170.51,-20.28"/>
</g>
</g>
</svg>
