<?xml version="1.0" encoding="UTF-8" standalone="no"?>
<!DOCTYPE svg PUBLIC "-//W3C//DTD SVG 1.1//EN"
 "http://www.w3.org/Graphics/SVG/1.1/DTD/svg11.dtd">
<!-- Generated by graphviz version 8.1.0 (20230707.0739)
 -->
<!-- Title: Vector3::GetMagnitudeSquared Pages: 1 -->
<svg width="681pt" height="68pt"
 viewBox="0.00 0.00 680.50 68.00" xmlns="http://www.w3.org/2000/svg" xmlns:xlink="http://www.w3.org/1999/xlink">
<g id="graph0" class="graph" transform="scale(1 1) rotate(0) translate(4 64)">
<title>Vector3::GetMagnitudeSquared</title>
<!-- Node1 -->
<g id="node1" class="node">
<title>Node1</title>
<g id="a_node1"><a xlink:title=" ">
<polygon fill="#bfbfbf" stroke="black" points="520,-19.5 520,-39.5 672.5,-39.5 672.5,-19.5 520,-19.5"/>
<text text-anchor="middle" x="596.25" y="-26" font-family="Helvetica,sans-Serif" font-size="10.00">Vector3::GetMagnitudeSquared</text>
</a>
</g>
</g>
<!-- Node2 -->
<g id="node2" class="node">
<title>Node2</title>
<g id="a_node2"><a xlink:href="class_vector3.html#ac297afb6e74370b4327d779328412b18" target="_top" xlink:title=" ">
<polygon fill="none" stroke="black" points="367.5,-19.5 367.5,-39.5 484,-39.5 484,-19.5 367.5,-19.5"/>
<text text-anchor="middle" x="425.75" y="-26" font-family="Helvetica,sans-Serif" font-size="10.00">Vector3::GetMagnitude</text>
</a>
</g>
</g>
<!-- Node1&#45;&gt;Node2 -->
<g id="edge1" class="edge">
<title>Node1&#45;&gt;Node2</title>
<path fill="none" stroke="midnightblue" d="M509.44,-29.5C500.8,-29.5 492.19,-29.5 483.96,-29.5"/>
<polygon fill="midnightblue" stroke="midnightblue" points="509.36,-33 519.36,-29.5 509.36,-26 509.36,-33"/>
</g>
<!-- Node3 -->
<g id="node3" class="node">
<title>Node3</title>
<g id="a_node3"><a xlink:href="class_vector3.html#a1453d64a7a4333b19d6a92b8e61e617e" target="_top" xlink:title=" ">
<polygon fill="none" stroke="black" points="211.25,-19.5 211.25,-39.5 331.5,-39.5 331.5,-19.5 211.25,-19.5"/>
<text text-anchor="middle" x="271.38" y="-26" font-family="Helvetica,sans-Serif" font-size="10.00">Vector3::GetNormalized</text>
</a>
</g>
</g>
<!-- Node2&#45;&gt;Node3 -->
<g id="edge2" class="edge">
<title>Node2&#45;&gt;Node3</title>
<path fill="none" stroke="midnightblue" d="M356.62,-29.5C348.21,-29.5 339.66,-29.5 331.39,-29.5"/>
<polygon fill="midnightblue" stroke="midnightblue" points="356.58,-33 366.58,-29.5 356.58,-26 356.58,-33"/>
</g>
<!-- Node4 -->
<g id="node4" class="node">
<title>Node4</title>
<g id="a_node4"><a xlink:href="class_vector3.html#a60a66eb12fb598ec0f2ada72819395b2" target="_top" xlink:title=" ">
<polygon fill="none" stroke="black" points="76,-39.5 76,-59.5 175.25,-59.5 175.25,-39.5 76,-39.5"/>
<text text-anchor="middle" x="125.62" y="-46" font-family="Helvetica,sans-Serif" font-size="10.00">Vector3::Normalize</text>
</a>
</g>
</g>
<!-- Node3&#45;&gt;Node4 -->
<g id="edge3" class="edge">
<title>Node3&#45;&gt;Node4</title>
<path fill="none" stroke="midnightblue" d="M200.62,-39.2C191.99,-40.41 183.33,-41.61 175.11,-42.75"/>
<polygon fill="midnightblue" stroke="midnightblue" points="201.07,-42.54 210.49,-37.69 200.1,-35.6 201.07,-42.54"/>
</g>
<!-- Node6 -->
<g id="node6" class="node">
<title>Node6</title>
<g id="a_node6"><a xlink:href="_vector3_8cpp.html#acd001b833aaf532c808c6051f045d3c2" target="_top" xlink:title=" ">
<polygon fill="none" stroke="black" points="105.62,-0.5 105.62,-20.5 145.62,-20.5 145.62,-0.5 105.62,-0.5"/>
<text text-anchor="middle" x="125.62" y="-7" font-family="Helvetica,sans-Serif" font-size="10.00">TEST</text>
</a>
</g>
</g>
<!-- Node3&#45;&gt;Node6 -->
<g id="edge5" class="edge">
<title>Node3&#45;&gt;Node6</title>
<path fill="none" stroke="midnightblue" d="M200.62,-20.28C180.35,-17.6 159.86,-14.89 145.59,-13.01"/>
<polygon fill="midnightblue" stroke="midnightblue" points="200.12,-23.88 210.49,-21.72 201.04,-16.94 200.12,-23.88"/>
</g>
<!-- Node5 -->
<g id="node5" class="node">
<title>Node5</title>
<g id="a_node5"><a xlink:href="_vector3_8cpp.html#ab5848f313403912f60a11f987ed720c7" target="_top" xlink:title=" ">
<polygon fill="none" stroke="black" points="0,-39.5 0,-59.5 40,-59.5 40,-39.5 0,-39.5"/>
<text text-anchor="middle" x="20" y="-46" font-family="Helvetica,sans-Serif" font-size="10.00">TEST</text>
</a>
</g>
</g>
<!-- Node4&#45;&gt;Node5 -->
<g id="edge4" class="edge">
<title>Node4&#45;&gt;Node5</title>
<path fill="none" stroke="midnightblue" d="M65.31,-49.5C56.14,-49.5 47.29,-49.5 39.95,-49.5"/>
<polygon fill="midnightblue" stroke="midnightblue" points="65.15,-53 75.15,-49.5 65.15,-46 65.15,-53"/>
</g>
</g>
</svg>
