<?xml version="1.0" encoding="UTF-8" standalone="no"?>
<!DOCTYPE svg PUBLIC "-//W3C//DTD SVG 1.1//EN"
 "http://www.w3.org/Graphics/SVG/1.1/DTD/svg11.dtd">
<!-- Generated by graphviz version 8.1.0 (20230707.0739)
 -->
<!-- Title: VertexFlatEffect::VertexShader::Output::Output Pages: 1 -->
<svg width="294pt" height="194pt"
 viewBox="0.00 0.00 293.50 194.00" xmlns="http://www.w3.org/2000/svg" xmlns:xlink="http://www.w3.org/1999/xlink">
<g id="graph0" class="graph" transform="scale(1 1) rotate(0) translate(4 190)">
<title>VertexFlatEffect::VertexShader::Output::Output</title>
<!-- Node1 -->
<g id="node1" class="node">
<title>Node1</title>
<g id="a_node1"><a xlink:title=" ">
<polygon fill="#bfbfbf" stroke="black" points="165.25,-76.5 165.25,-108.5 285.5,-108.5 285.5,-76.5 165.25,-76.5"/>
<text text-anchor="start" x="173.25" y="-95" font-family="Helvetica,sans-Serif" font-size="10.00">VertexFlatEffect::Vertex</text>
<text text-anchor="middle" x="225.38" y="-83" font-family="Helvetica,sans-Serif" font-size="10.00">Shader::Output::Output</text>
</a>
</g>
</g>
<!-- Node2 -->
<g id="node2" class="node">
<title>Node2</title>
<g id="a_node2"><a xlink:href="class_vertex_flat_effect_1_1_vertex_shader_1_1_output.html#ac19c856de99f201391ada75e10135c5a" target="_top" xlink:title=" ">
<polygon fill="none" stroke="black" points="1.12,-153.5 1.12,-185.5 128.12,-185.5 128.12,-153.5 1.12,-153.5"/>
<text text-anchor="start" x="9.12" y="-172" font-family="Helvetica,sans-Serif" font-size="10.00">VertexFlatEffect::Vertex</text>
<text text-anchor="middle" x="64.62" y="-160" font-family="Helvetica,sans-Serif" font-size="10.00">Shader::Output::operator*</text>
</a>
</g>
</g>
<!-- Node1&#45;&gt;Node2 -->
<g id="edge1" class="edge">
<title>Node1&#45;&gt;Node2</title>
<path fill="none" stroke="midnightblue" d="M188.09,-113.74C170.57,-123.62 149.1,-135.22 129.25,-144.5 122.58,-147.62 115.42,-150.69 108.38,-153.56"/>
<polygon fill="midnightblue" stroke="midnightblue" points="189.42,-116.44 196.37,-108.45 185.95,-110.36 189.42,-116.44"/>
</g>
<!-- Node3 -->
<g id="node3" class="node">
<title>Node3</title>
<g id="a_node3"><a xlink:href="class_vertex_flat_effect_1_1_vertex_shader_1_1_output.html#ae388f4d7042528be46e25ea1e1080d86" target="_top" xlink:title=" ">
<polygon fill="none" stroke="black" points="0,-102.5 0,-134.5 129.25,-134.5 129.25,-102.5 0,-102.5"/>
<text text-anchor="start" x="8" y="-121" font-family="Helvetica,sans-Serif" font-size="10.00">VertexFlatEffect::Vertex</text>
<text text-anchor="middle" x="64.62" y="-109" font-family="Helvetica,sans-Serif" font-size="10.00">Shader::Output::operator+</text>
</a>
</g>
</g>
<!-- Node1&#45;&gt;Node3 -->
<g id="edge2" class="edge">
<title>Node1&#45;&gt;Node3</title>
<path fill="none" stroke="midnightblue" d="M154.6,-103.93C146.1,-105.32 137.45,-106.74 129.04,-108.11"/>
<polygon fill="midnightblue" stroke="midnightblue" points="154.96,-107.25 164.26,-102.18 153.83,-100.34 154.96,-107.25"/>
</g>
<!-- Node4 -->
<g id="node4" class="node">
<title>Node4</title>
<g id="a_node4"><a xlink:href="class_vertex_flat_effect_1_1_vertex_shader_1_1_output.html#a21e92b075e6808b1106d9d41b2c3a22f" target="_top" xlink:title=" ">
<polygon fill="none" stroke="black" points="1.5,-51.5 1.5,-83.5 127.75,-83.5 127.75,-51.5 1.5,-51.5"/>
<text text-anchor="start" x="9.5" y="-70" font-family="Helvetica,sans-Serif" font-size="10.00">VertexFlatEffect::Vertex</text>
<text text-anchor="middle" x="64.62" y="-58" font-family="Helvetica,sans-Serif" font-size="10.00">Shader::Output::operator&#45;</text>
</a>
</g>
</g>
<!-- Node1&#45;&gt;Node4 -->
<g id="edge3" class="edge">
<title>Node1&#45;&gt;Node4</title>
<path fill="none" stroke="midnightblue" d="M154.49,-81.5C145.57,-80.09 136.49,-78.66 127.71,-77.28"/>
<polygon fill="midnightblue" stroke="midnightblue" points="153.84,-85.09 164.26,-83.19 154.93,-78.18 153.84,-85.09"/>
</g>
<!-- Node5 -->
<g id="node5" class="node">
<title>Node5</title>
<g id="a_node5"><a xlink:href="class_vertex_flat_effect_1_1_vertex_shader_1_1_output.html#ac9f3c1c9c76029e7888475aa31cf2cb4" target="_top" xlink:title=" ">
<polygon fill="none" stroke="black" points="1.5,-0.5 1.5,-32.5 127.75,-32.5 127.75,-0.5 1.5,-0.5"/>
<text text-anchor="start" x="9.5" y="-19" font-family="Helvetica,sans-Serif" font-size="10.00">VertexFlatEffect::Vertex</text>
<text text-anchor="middle" x="64.62" y="-7" font-family="Helvetica,sans-Serif" font-size="10.00">Shader::Output::operator/</text>
</a>
</g>
</g>
<!-- Node1&#45;&gt;Node5 -->
<g id="edge4" class="edge">
<title>Node1&#45;&gt;Node5</title>
<path fill="none" stroke="midnightblue" d="M186.79,-71.68C169.47,-62.36 148.51,-51.47 129.25,-42.5 121.89,-39.07 113.96,-35.63 106.27,-32.43"/>
<polygon fill="midnightblue" stroke="midnightblue" points="184.55,-74.99 195.01,-76.68 187.89,-68.84 184.55,-74.99"/>
</g>
</g>
</svg>
