<?xml version="1.0" encoding="UTF-8" standalone="no"?>
<!DOCTYPE svg PUBLIC "-//W3C//DTD SVG 1.1//EN"
 "http://www.w3.org/Graphics/SVG/1.1/DTD/svg11.dtd">
<!-- Generated by graphviz version 8.1.0 (20230707.0739)
 -->
<!-- Title: Engine::ReverseCycleScenes Pages: 1 -->
<svg width="466pt" height="29pt"
 viewBox="0.00 0.00 466.25 29.00" xmlns="http://www.w3.org/2000/svg" xmlns:xlink="http://www.w3.org/1999/xlink">
<g id="graph0" class="graph" transform="scale(1 1) rotate(0) translate(4 25)">
<title>Engine::ReverseCycleScenes</title>
<!-- Node1 -->
<g id="node1" class="node">
<title>Node1</title>
<g id="a_node1"><a xlink:title=" ">
<polygon fill="#bfbfbf" stroke="black" points="0,-0.5 0,-20.5 144.25,-20.5 144.25,-0.5 0,-0.5"/>
<text text-anchor="middle" x="72.12" y="-7" font-family="Helvetica,sans-Serif" font-size="10.00">Engine::ReverseCycleScenes</text>
</a>
</g>
</g>
<!-- Node2 -->
<g id="node2" class="node">
<title>Node2</title>
<g id="a_node2"><a xlink:href="class_engine.html#a85491a83a933400a58b5f0f3da558143" target="_top" xlink:title=" ">
<polygon fill="none" stroke="black" points="180.25,-0.5 180.25,-20.5 307.25,-20.5 307.25,-0.5 180.25,-0.5"/>
<text text-anchor="middle" x="243.75" y="-7" font-family="Helvetica,sans-Serif" font-size="10.00">Engine::SetWindowName</text>
</a>
</g>
</g>
<!-- Node1&#45;&gt;Node2 -->
<g id="edge1" class="edge">
<title>Node1&#45;&gt;Node2</title>
<path fill="none" stroke="midnightblue" d="M144.08,-10.5C152.47,-10.5 161.06,-10.5 169.48,-10.5"/>
<polygon fill="midnightblue" stroke="midnightblue" points="169.44,-14 179.44,-10.5 169.44,-7 169.44,-14"/>
</g>
<!-- Node3 -->
<g id="node3" class="node">
<title>Node3</title>
<g id="a_node3"><a xlink:href="class_h_w_n_d_key.html#ad0013aa027b8583318249afaaed77614" target="_top" xlink:title=" ">
<polygon fill="none" stroke="black" points="343.25,-0.5 343.25,-20.5 458.25,-20.5 458.25,-0.5 343.25,-0.5"/>
<text text-anchor="middle" x="400.75" y="-7" font-family="Helvetica,sans-Serif" font-size="10.00">HWNDKey::GetHWND</text>
</a>
</g>
</g>
<!-- Node2&#45;&gt;Node3 -->
<g id="edge2" class="edge">
<title>Node2&#45;&gt;Node3</title>
<path fill="none" stroke="midnightblue" d="M306.9,-10.5C315.43,-10.5 324.21,-10.5 332.82,-10.5"/>
<polygon fill="midnightblue" stroke="midnightblue" points="332.6,-14 342.6,-10.5 332.6,-7 332.6,-14"/>
</g>
</g>
</svg>
