<?xml version="1.0" encoding="UTF-8" standalone="no"?>
<!DOCTYPE svg PUBLIC "-//W3C//DTD SVG 1.1//EN"
 "http://www.w3.org/Graphics/SVG/1.1/DTD/svg11.dtd">
<!-- Generated by graphviz version 8.1.0 (20230707.0739)
 -->
<!-- Title: VertexWaveScene::Draw Pages: 1 -->
<svg width="397pt" height="221pt"
 viewBox="0.00 0.00 397.25 221.00" xmlns="http://www.w3.org/2000/svg" xmlns:xlink="http://www.w3.org/1999/xlink">
<g id="graph0" class="graph" transform="scale(1 1) rotate(0) translate(4 217)">
<title>VertexWaveScene::Draw</title>
<!-- Node1 -->
<g id="node1" class="node">
<title>Node1</title>
<g id="a_node1"><a xlink:title=" ">
<polygon fill="#bfbfbf" stroke="black" points="0,-96.5 0,-116.5 124,-116.5 124,-96.5 0,-96.5"/>
<text text-anchor="middle" x="62" y="-103" font-family="Helvetica,sans-Serif" font-size="10.00">VertexWaveScene::Draw</text>
</a>
</g>
</g>
<!-- Node2 -->
<g id="node2" class="node">
<title>Node2</title>
<g id="a_node2"><a xlink:href="class_pipeline.html#adf2322f3b604145324fe70fd45266b46" target="_top" xlink:title=" ">
<polygon fill="none" stroke="black" points="164.88,-192.5 164.88,-212.5 273.88,-212.5 273.88,-192.5 164.88,-192.5"/>
<text text-anchor="middle" x="219.38" y="-199" font-family="Helvetica,sans-Serif" font-size="10.00">Pipeline::BeginFrame</text>
</a>
</g>
</g>
<!-- Node1&#45;&gt;Node2 -->
<g id="edge1" class="edge">
<title>Node1&#45;&gt;Node2</title>
<path fill="none" stroke="midnightblue" d="M72.89,-116.38C89.53,-132.51 124.77,-164.58 160,-183.5 163.49,-185.38 167.2,-187.11 170.99,-188.7"/>
<polygon fill="midnightblue" stroke="midnightblue" points="169.53,-192.27 180.12,-192.57 172.03,-185.73 169.53,-192.27"/>
</g>
<!-- Node4 -->
<g id="node4" class="node">
<title>Node4</title>
<g id="a_node4"><a xlink:href="class_matrix3.html#a3672400f647456083337d53db6478505" target="_top" xlink:title=" ">
<polygon fill="none" stroke="black" points="160,-141.5 160,-173.5 278.75,-173.5 278.75,-141.5 160,-141.5"/>
<text text-anchor="start" x="168" y="-160" font-family="Helvetica,sans-Serif" font-size="10.00">Matrix3&lt; float &gt;::Create</text>
<text text-anchor="middle" x="219.38" y="-148" font-family="Helvetica,sans-Serif" font-size="10.00">XRotationMatrix</text>
</a>
</g>
</g>
<!-- Node1&#45;&gt;Node4 -->
<g id="edge3" class="edge">
<title>Node1&#45;&gt;Node4</title>
<path fill="none" stroke="midnightblue" d="M93.33,-116.45C112.17,-122.64 137.02,-130.79 159.6,-138.21"/>
<polygon fill="midnightblue" stroke="midnightblue" points="158.19,-141.76 168.78,-141.55 160.37,-135.11 158.19,-141.76"/>
</g>
<!-- Node5 -->
<g id="node5" class="node">
<title>Node5</title>
<g id="a_node5"><a xlink:href="class_matrix3.html#ae2e635e8fc49db308a95dde2a5518bbc" target="_top" xlink:title=" ">
<polygon fill="none" stroke="black" points="160,-90.5 160,-122.5 278.75,-122.5 278.75,-90.5 160,-90.5"/>
<text text-anchor="start" x="168" y="-109" font-family="Helvetica,sans-Serif" font-size="10.00">Matrix3&lt; float &gt;::Create</text>
<text text-anchor="middle" x="219.38" y="-97" font-family="Helvetica,sans-Serif" font-size="10.00">YRotationMatrix</text>
</a>
</g>
</g>
<!-- Node1&#45;&gt;Node5 -->
<g id="edge4" class="edge">
<title>Node1&#45;&gt;Node5</title>
<path fill="none" stroke="midnightblue" d="M123.96,-106.5C132.24,-106.5 140.78,-106.5 149.19,-106.5"/>
<polygon fill="midnightblue" stroke="midnightblue" points="149.13,-110 159.13,-106.5 149.13,-103 149.13,-110"/>
</g>
<!-- Node6 -->
<g id="node6" class="node">
<title>Node6</title>
<g id="a_node6"><a xlink:href="class_matrix3.html#a7b88435a5d6c183b5b46efa2b6dbcb3a" target="_top" xlink:title=" ">
<polygon fill="none" stroke="black" points="160,-39.5 160,-71.5 278.75,-71.5 278.75,-39.5 160,-39.5"/>
<text text-anchor="start" x="168" y="-58" font-family="Helvetica,sans-Serif" font-size="10.00">Matrix3&lt; float &gt;::Create</text>
<text text-anchor="middle" x="219.38" y="-46" font-family="Helvetica,sans-Serif" font-size="10.00">ZRotationMatrix</text>
</a>
</g>
</g>
<!-- Node1&#45;&gt;Node6 -->
<g id="edge5" class="edge">
<title>Node1&#45;&gt;Node6</title>
<path fill="none" stroke="midnightblue" d="M93.33,-96.55C112.17,-90.36 137.02,-82.21 159.6,-74.79"/>
<polygon fill="midnightblue" stroke="midnightblue" points="160.37,-77.89 168.78,-71.45 158.19,-71.24 160.37,-77.89"/>
</g>
<!-- Node7 -->
<g id="node7" class="node">
<title>Node7</title>
<g id="a_node7"><a xlink:href="class_pipeline.html#a76274774f61e4b5a1c708decf65712b9" target="_top" xlink:title=" ">
<polygon fill="none" stroke="black" points="180.25,-0.5 180.25,-20.5 258.5,-20.5 258.5,-0.5 180.25,-0.5"/>
<text text-anchor="middle" x="219.38" y="-7" font-family="Helvetica,sans-Serif" font-size="10.00">Pipeline::Draw</text>
</a>
</g>
</g>
<!-- Node1&#45;&gt;Node7 -->
<g id="edge6" class="edge">
<title>Node1&#45;&gt;Node7</title>
<path fill="none" stroke="midnightblue" d="M73.22,-96.56C90.05,-80.66 125.22,-49.38 160,-30.5 164.14,-28.25 168.57,-26.19 173.08,-24.31"/>
<polygon fill="midnightblue" stroke="midnightblue" points="173.92,-27.36 181.99,-20.5 171.4,-20.82 173.92,-27.36"/>
</g>
<!-- Node3 -->
<g id="node3" class="node">
<title>Node3</title>
<g id="a_node3"><a xlink:href="class_z_buffer.html#af1a6407078bb83629e3b4dec9f0554cf" target="_top" xlink:title=" ">
<polygon fill="none" stroke="black" points="314.75,-192.5 314.75,-212.5 389.25,-212.5 389.25,-192.5 314.75,-192.5"/>
<text text-anchor="middle" x="352" y="-199" font-family="Helvetica,sans-Serif" font-size="10.00">ZBuffer::Clear</text>
</a>
</g>
</g>
<!-- Node2&#45;&gt;Node3 -->
<g id="edge2" class="edge">
<title>Node2&#45;&gt;Node3</title>
<path fill="none" stroke="midnightblue" d="M273.51,-202.5C283.67,-202.5 294.24,-202.5 304.18,-202.5"/>
<polygon fill="midnightblue" stroke="midnightblue" points="304.09,-206 314.09,-202.5 304.09,-199 304.09,-206"/>
</g>
</g>
</svg>
