<?xml version="1.0" encoding="UTF-8" standalone="no"?>
<!DOCTYPE svg PUBLIC "-//W3C//DTD SVG 1.1//EN"
 "http://www.w3.org/Graphics/SVG/1.1/DTD/svg11.dtd">
<!-- Generated by graphviz version 2.43.0 (0)
 -->
<!-- Title: TexVertex::TexVertex Pages: 1 -->
<svg width="283pt" height="142pt"
 viewBox="0.00 0.00 283.00 142.00" xmlns="http://www.w3.org/2000/svg" xmlns:xlink="http://www.w3.org/1999/xlink">
<g id="graph0" class="graph" transform="scale(1 1) rotate(0) translate(4 138)">
<title>TexVertex::TexVertex</title>
<!-- Node1 -->
<g id="node1" class="node">
<title>Node1</title>
<g id="a_node1"><a xlink:title=" ">
<polygon fill="#bfbfbf" stroke="black" points="156,-57.5 156,-76.5 275,-76.5 275,-57.5 156,-57.5"/>
<text text-anchor="middle" x="215.5" y="-64.5" font-family="Helvetica,sans-Serif" font-size="10.00">TexVertex::TexVertex</text>
</a>
</g>
</g>
<!-- Node2 -->
<g id="node2" class="node">
<title>Node2</title>
<g id="a_node2"><a xlink:href="classTexVertex.html#ab76fecd96e26a83f5ad648ab136c75f8" target="_top" xlink:title=" ">
<polygon fill="none" stroke="black" points="1.5,-114.5 1.5,-133.5 118.5,-133.5 118.5,-114.5 1.5,-114.5"/>
<text text-anchor="middle" x="60" y="-121.5" font-family="Helvetica,sans-Serif" font-size="10.00">TexVertex::operator*</text>
</a>
</g>
</g>
<!-- Node1&#45;&gt;Node2 -->
<g id="edge1" class="edge">
<title>Node1&#45;&gt;Node2</title>
<path fill="none" stroke="midnightblue" d="M182.85,-80.38C164.6,-87.93 141.14,-97.36 120,-105 110.99,-108.26 101.12,-111.55 92.07,-114.45"/>
<polygon fill="midnightblue" stroke="midnightblue" points="184.25,-83.59 192.14,-76.51 181.56,-77.12 184.25,-83.59"/>
</g>
<!-- Node3 -->
<g id="node3" class="node">
<title>Node3</title>
<g id="a_node3"><a xlink:href="classTexVertex.html#a3c0edce56822cfb0c11a7c8a00c69381" target="_top" xlink:title=" ">
<polygon fill="none" stroke="black" points="0,-76.5 0,-95.5 120,-95.5 120,-76.5 0,-76.5"/>
<text text-anchor="middle" x="60" y="-83.5" font-family="Helvetica,sans-Serif" font-size="10.00">TexVertex::operator+</text>
</a>
</g>
</g>
<!-- Node1&#45;&gt;Node3 -->
<g id="edge2" class="edge">
<title>Node1&#45;&gt;Node3</title>
<path fill="none" stroke="midnightblue" d="M145.64,-75.52C137.08,-76.58 128.39,-77.66 120,-78.7"/>
<polygon fill="midnightblue" stroke="midnightblue" points="146.1,-78.99 155.59,-74.29 145.24,-72.05 146.1,-78.99"/>
</g>
<!-- Node4 -->
<g id="node4" class="node">
<title>Node4</title>
<g id="a_node4"><a xlink:href="classTexVertex.html#ada24b6748f16d818ba195c82e45c53d7" target="_top" xlink:title=" ">
<polygon fill="none" stroke="black" points="2,-38.5 2,-57.5 118,-57.5 118,-38.5 2,-38.5"/>
<text text-anchor="middle" x="60" y="-45.5" font-family="Helvetica,sans-Serif" font-size="10.00">TexVertex::operator&#45;</text>
</a>
</g>
</g>
<!-- Node1&#45;&gt;Node4 -->
<g id="edge3" class="edge">
<title>Node1&#45;&gt;Node4</title>
<path fill="none" stroke="midnightblue" d="M145.42,-58.45C136.33,-57.32 127.1,-56.18 118.23,-55.08"/>
<polygon fill="midnightblue" stroke="midnightblue" points="145.24,-61.95 155.59,-59.71 146.1,-55.01 145.24,-61.95"/>
</g>
<!-- Node5 -->
<g id="node5" class="node">
<title>Node5</title>
<g id="a_node5"><a xlink:href="classTexVertex.html#a9f342752e33490f477dfdac8d9b747f6" target="_top" xlink:title=" ">
<polygon fill="none" stroke="black" points="2.5,-0.5 2.5,-19.5 117.5,-19.5 117.5,-0.5 2.5,-0.5"/>
<text text-anchor="middle" x="60" y="-7.5" font-family="Helvetica,sans-Serif" font-size="10.00">TexVertex::operator/</text>
</a>
</g>
</g>
<!-- Node1&#45;&gt;Node5 -->
<g id="edge4" class="edge">
<title>Node1&#45;&gt;Node5</title>
<path fill="none" stroke="midnightblue" d="M182.85,-53.62C164.6,-46.07 141.14,-36.64 120,-29 110.99,-25.74 101.12,-22.45 92.07,-19.55"/>
<polygon fill="midnightblue" stroke="midnightblue" points="181.56,-56.88 192.14,-57.49 184.25,-50.41 181.56,-56.88"/>
</g>
</g>
</svg>
