<?xml version="1.0" encoding="UTF-8" standalone="no"?>
<!DOCTYPE svg PUBLIC "-//W3C//DTD SVG 1.1//EN"
 "http://www.w3.org/Graphics/SVG/1.1/DTD/svg11.dtd">
<!-- Generated by graphviz version 8.1.0 (20230707.0739)
 -->
<!-- Title: TexVertex::Lerp Pages: 1 -->
<svg width="454pt" height="197pt"
 viewBox="0.00 0.00 453.50 197.00" xmlns="http://www.w3.org/2000/svg" xmlns:xlink="http://www.w3.org/1999/xlink">
<g id="graph0" class="graph" transform="scale(1 1) rotate(0) translate(4 193)">
<title>TexVertex::Lerp</title>
<!-- Node1 -->
<g id="node1" class="node">
<title>Node1</title>
<g id="a_node1"><a xlink:title=" ">
<polygon fill="#bfbfbf" stroke="black" points="360.5,-67.5 360.5,-87.5 445.5,-87.5 445.5,-67.5 360.5,-67.5"/>
<text text-anchor="middle" x="403" y="-74" font-family="Helvetica,sans-Serif" font-size="10.00">TexVertex::Lerp</text>
</a>
</g>
</g>
<!-- Node2 -->
<g id="node2" class="node">
<title>Node2</title>
<g id="a_node2"><a xlink:href="class_graphics.html#a177d7de69de04edd682cc023bc1e16c9" target="_top" xlink:title=" ">
<polygon fill="none" stroke="black" points="180.62,-109.5 180.62,-129.5 312.88,-129.5 312.88,-109.5 180.62,-109.5"/>
<text text-anchor="middle" x="246.75" y="-116" font-family="Helvetica,sans-Serif" font-size="10.00">Graphics::DrawTriangleTex</text>
</a>
</g>
</g>
<!-- Node1&#45;&gt;Node2 -->
<g id="edge1" class="edge">
<title>Node1&#45;&gt;Node2</title>
<path fill="none" stroke="midnightblue" d="M355.01,-90.3C332.3,-96.48 305.46,-103.79 284.31,-109.55"/>
<polygon fill="midnightblue" stroke="midnightblue" points="355.72,-93.46 364.44,-87.45 353.88,-86.7 355.72,-93.46"/>
</g>
<!-- Node6 -->
<g id="node6" class="node">
<title>Node6</title>
<g id="a_node6"><a xlink:href="class_graphics.html#aa8e0be461f566f06c2e0b30df08e8492" target="_top" xlink:title=" ">
<polygon fill="none" stroke="black" points="169,-45.5 169,-65.5 324.5,-65.5 324.5,-45.5 169,-45.5"/>
<text text-anchor="middle" x="246.75" y="-52" font-family="Helvetica,sans-Serif" font-size="10.00">Graphics::DrawTriangleTexWrap</text>
</a>
</g>
</g>
<!-- Node1&#45;&gt;Node6 -->
<g id="edge5" class="edge">
<title>Node1&#45;&gt;Node6</title>
<path fill="none" stroke="midnightblue" d="M349.8,-70.05C339.51,-68.59 328.56,-67.02 317.79,-65.49"/>
<polygon fill="midnightblue" stroke="midnightblue" points="349.27,-73.66 359.66,-71.6 350.26,-66.73 349.27,-73.66"/>
</g>
<!-- Node3 -->
<g id="node3" class="node">
<title>Node3</title>
<g id="a_node3"><a xlink:href="class_folded_cube_scene.html#ae9c735f907099df0b8022d281a15ec1f" target="_top" xlink:title=" ">
<polygon fill="none" stroke="black" points="4.88,-168.5 4.88,-188.5 128.12,-188.5 128.12,-168.5 4.88,-168.5"/>
<text text-anchor="middle" x="66.5" y="-175" font-family="Helvetica,sans-Serif" font-size="10.00">FoldedCubeScene::Draw</text>
</a>
</g>
</g>
<!-- Node2&#45;&gt;Node3 -->
<g id="edge2" class="edge">
<title>Node2&#45;&gt;Node3</title>
<path fill="none" stroke="midnightblue" d="M208.82,-133.22C186.89,-141.21 158.48,-151.29 133,-159.5 123.42,-162.59 112.98,-165.72 103.31,-168.52"/>
<polygon fill="midnightblue" stroke="midnightblue" points="209.83,-136.21 218.02,-129.48 207.42,-129.63 209.83,-136.21"/>
</g>
<!-- Node4 -->
<g id="node4" class="node">
<title>Node4</title>
<g id="a_node4"><a xlink:href="class_cube_skinned_scene.html#a07374cf1800ac9460a3ae956f78e69fb" target="_top" xlink:title=" ">
<polygon fill="none" stroke="black" points="1.88,-129.5 1.88,-149.5 131.12,-149.5 131.12,-129.5 1.88,-129.5"/>
<text text-anchor="middle" x="66.5" y="-136" font-family="Helvetica,sans-Serif" font-size="10.00">CubeSkinnedScene::Draw</text>
</a>
</g>
</g>
<!-- Node2&#45;&gt;Node4 -->
<g id="edge3" class="edge">
<title>Node2&#45;&gt;Node4</title>
<path fill="none" stroke="midnightblue" d="M169.86,-128.01C156.9,-129.47 143.55,-130.97 130.94,-132.38"/>
<polygon fill="midnightblue" stroke="midnightblue" points="170.09,-131.4 179.64,-126.81 169.31,-124.44 170.09,-131.4"/>
</g>
<!-- Node5 -->
<g id="node5" class="node">
<title>Node5</title>
<g id="a_node5"><a xlink:href="class_tex_cube_scene.html#acc39404ca99685be4303b08765e62928" target="_top" xlink:title=" ">
<polygon fill="none" stroke="black" points="11.62,-90.5 11.62,-110.5 121.38,-110.5 121.38,-90.5 11.62,-90.5"/>
<text text-anchor="middle" x="66.5" y="-97" font-family="Helvetica,sans-Serif" font-size="10.00">TexCubeScene::Draw</text>
</a>
</g>
</g>
<!-- Node2&#45;&gt;Node5 -->
<g id="edge4" class="edge">
<title>Node2&#45;&gt;Node5</title>
<path fill="none" stroke="midnightblue" d="M170,-111.43C153.63,-109.68 136.64,-107.87 121.32,-106.24"/>
<polygon fill="midnightblue" stroke="midnightblue" points="169.33,-114.98 179.64,-112.56 170.07,-108.02 169.33,-114.98"/>
</g>
<!-- Node7 -->
<g id="node7" class="node">
<title>Node7</title>
<g id="a_node7"><a xlink:href="class_folded_cube_wrap_scene.html#a7f32626310d5a8fbdfed708a5813b1e8" target="_top" xlink:title=" ">
<polygon fill="none" stroke="black" points="7.12,-39.5 7.12,-71.5 125.88,-71.5 125.88,-39.5 7.12,-39.5"/>
<text text-anchor="start" x="15.12" y="-58" font-family="Helvetica,sans-Serif" font-size="10.00">FoldedCubeWrapScene</text>
<text text-anchor="middle" x="66.5" y="-46" font-family="Helvetica,sans-Serif" font-size="10.00">::Draw</text>
</a>
</g>
</g>
<!-- Node6&#45;&gt;Node7 -->
<g id="edge6" class="edge">
<title>Node6&#45;&gt;Node7</title>
<path fill="none" stroke="midnightblue" d="M158.16,-55.5C147.17,-55.5 136.14,-55.5 125.76,-55.5"/>
<polygon fill="midnightblue" stroke="midnightblue" points="158.12,-59 168.12,-55.5 158.12,-52 158.12,-59"/>
</g>
<!-- Node8 -->
<g id="node8" class="node">
<title>Node8</title>
<g id="a_node8"><a xlink:href="class_tex_wrap_cube_scene.html#adc840c26ac8bb1d21a70252293ef164e" target="_top" xlink:title=" ">
<polygon fill="none" stroke="black" points="0,-0.5 0,-20.5 133,-20.5 133,-0.5 0,-0.5"/>
<text text-anchor="middle" x="66.5" y="-7" font-family="Helvetica,sans-Serif" font-size="10.00">TexWrapCubeScene::Draw</text>
</a>
</g>
</g>
<!-- Node6&#45;&gt;Node8 -->
<g id="edge7" class="edge">
<title>Node6&#45;&gt;Node8</title>
<path fill="none" stroke="midnightblue" d="M195.77,-42.88C167.68,-35.79 133.12,-27.07 106.95,-20.46"/>
<polygon fill="midnightblue" stroke="midnightblue" points="194.64,-46.46 205.19,-45.51 196.35,-39.67 194.64,-46.46"/>
</g>
</g>
</svg>
