<?xml version="1.0" encoding="UTF-8" standalone="no"?>
<!DOCTYPE svg PUBLIC "-//W3C//DTD SVG 1.1//EN"
 "http://www.w3.org/Graphics/SVG/1.1/DTD/svg11.dtd">
<!-- Generated by graphviz version 8.1.0 (20230707.0739)
 -->
<!-- Title: SolidEffect::Vertex::Vertex Pages: 1 -->
<svg width="238pt" height="194pt"
 viewBox="0.00 0.00 238.00 194.00" xmlns="http://www.w3.org/2000/svg" xmlns:xlink="http://www.w3.org/1999/xlink">
<g id="graph0" class="graph" transform="scale(1 1) rotate(0) translate(4 190)">
<title>SolidEffect::Vertex::Vertex</title>
<!-- Node1 -->
<g id="node1" class="node">
<title>Node1</title>
<g id="a_node1"><a xlink:title=" ">
<polygon fill="#bfbfbf" stroke="black" points="133,-76.5 133,-108.5 230,-108.5 230,-76.5 133,-76.5"/>
<text text-anchor="start" x="141" y="-95" font-family="Helvetica,sans-Serif" font-size="10.00">SolidEffect::Vertex</text>
<text text-anchor="middle" x="181.5" y="-83" font-family="Helvetica,sans-Serif" font-size="10.00">::Vertex</text>
</a>
</g>
</g>
<!-- Node2 -->
<g id="node2" class="node">
<title>Node2</title>
<g id="a_node2"><a xlink:href="class_solid_effect_1_1_vertex.html#a71bf4abbfe918160bf1522c11035fc74" target="_top" xlink:title=" ">
<polygon fill="none" stroke="black" points="0,-153.5 0,-185.5 97,-185.5 97,-153.5 0,-153.5"/>
<text text-anchor="start" x="8" y="-172" font-family="Helvetica,sans-Serif" font-size="10.00">SolidEffect::Vertex</text>
<text text-anchor="middle" x="48.5" y="-160" font-family="Helvetica,sans-Serif" font-size="10.00">::operator*</text>
</a>
</g>
</g>
<!-- Node1&#45;&gt;Node2 -->
<g id="edge1" class="edge">
<title>Node1&#45;&gt;Node2</title>
<path fill="none" stroke="midnightblue" d="M146.96,-114.16C131.85,-123.72 113.68,-134.93 97,-144.5 91.75,-147.51 86.1,-150.61 80.59,-153.55"/>
<polygon fill="midnightblue" stroke="midnightblue" points="148.38,-116.77 154.94,-108.45 144.62,-110.86 148.38,-116.77"/>
</g>
<!-- Node3 -->
<g id="node3" class="node">
<title>Node3</title>
<g id="a_node3"><a xlink:href="class_solid_effect_1_1_vertex.html#a8fc43565a348ef8e2df3bfbf2916c234" target="_top" xlink:title=" ">
<polygon fill="none" stroke="black" points="0,-102.5 0,-134.5 97,-134.5 97,-102.5 0,-102.5"/>
<text text-anchor="start" x="8" y="-121" font-family="Helvetica,sans-Serif" font-size="10.00">SolidEffect::Vertex</text>
<text text-anchor="middle" x="48.5" y="-109" font-family="Helvetica,sans-Serif" font-size="10.00">::operator+</text>
</a>
</g>
</g>
<!-- Node1&#45;&gt;Node3 -->
<g id="edge2" class="edge">
<title>Node1&#45;&gt;Node3</title>
<path fill="none" stroke="midnightblue" d="M122.45,-104.02C113.85,-105.73 105.07,-107.47 96.72,-109.13"/>
<polygon fill="midnightblue" stroke="midnightblue" points="123.08,-107.27 132.21,-101.89 121.72,-100.4 123.08,-107.27"/>
</g>
<!-- Node4 -->
<g id="node4" class="node">
<title>Node4</title>
<g id="a_node4"><a xlink:href="class_solid_effect_1_1_vertex.html#a5f2991c3003306813b8d318c66a8f188" target="_top" xlink:title=" ">
<polygon fill="none" stroke="black" points="0,-51.5 0,-83.5 97,-83.5 97,-51.5 0,-51.5"/>
<text text-anchor="start" x="8" y="-70" font-family="Helvetica,sans-Serif" font-size="10.00">SolidEffect::Vertex</text>
<text text-anchor="middle" x="48.5" y="-58" font-family="Helvetica,sans-Serif" font-size="10.00">::operator&#45;</text>
</a>
</g>
</g>
<!-- Node1&#45;&gt;Node4 -->
<g id="edge3" class="edge">
<title>Node1&#45;&gt;Node4</title>
<path fill="none" stroke="midnightblue" d="M122.45,-81.42C113.85,-79.78 105.07,-78.1 96.72,-76.51"/>
<polygon fill="midnightblue" stroke="midnightblue" points="121.73,-85.04 132.21,-83.47 123.04,-78.16 121.73,-85.04"/>
</g>
<!-- Node5 -->
<g id="node5" class="node">
<title>Node5</title>
<g id="a_node5"><a xlink:href="class_solid_effect_1_1_vertex.html#a044873de8b95313dcf4ba4f4bb5a1b44" target="_top" xlink:title=" ">
<polygon fill="none" stroke="black" points="0,-0.5 0,-32.5 97,-32.5 97,-0.5 0,-0.5"/>
<text text-anchor="start" x="8" y="-19" font-family="Helvetica,sans-Serif" font-size="10.00">SolidEffect::Vertex</text>
<text text-anchor="middle" x="48.5" y="-7" font-family="Helvetica,sans-Serif" font-size="10.00">::operator/</text>
</a>
</g>
</g>
<!-- Node1&#45;&gt;Node5 -->
<g id="edge4" class="edge">
<title>Node1&#45;&gt;Node5</title>
<path fill="none" stroke="midnightblue" d="M145.37,-71.05C130.52,-62.1 113,-51.66 97,-42.5 91.21,-39.18 84.98,-35.71 78.99,-32.41"/>
<polygon fill="midnightblue" stroke="midnightblue" points="143.33,-74.52 153.7,-76.7 146.96,-68.53 143.33,-74.52"/>
</g>
</g>
</svg>
