<?xml version="1.0" encoding="UTF-8" standalone="no"?>
<!DOCTYPE svg PUBLIC "-//W3C//DTD SVG 1.1//EN"
 "http://www.w3.org/Graphics/SVG/1.1/DTD/svg11.dtd">
<!-- Generated by graphviz version 8.1.0 (20230707.0739)
 -->
<!-- Title: Matrix3::CreateYRotationMatrix Pages: 1 -->
<svg width="303pt" height="431pt"
 viewBox="0.00 0.00 302.50 431.00" xmlns="http://www.w3.org/2000/svg" xmlns:xlink="http://www.w3.org/1999/xlink">
<g id="graph0" class="graph" transform="scale(1 1) rotate(0) translate(4 427)">
<title>Matrix3::CreateYRotationMatrix</title>
<!-- Node1 -->
<g id="node1" class="node">
<title>Node1</title>
<g id="a_node1"><a xlink:title=" ">
<polygon fill="#bfbfbf" stroke="black" points="169,-189.5 169,-221.5 294.5,-221.5 294.5,-189.5 169,-189.5"/>
<text text-anchor="start" x="177" y="-208" font-family="Helvetica,sans-Serif" font-size="10.00">Matrix3::CreateYRotation</text>
<text text-anchor="middle" x="231.75" y="-196" font-family="Helvetica,sans-Serif" font-size="10.00">Matrix</text>
</a>
</g>
</g>
<!-- Node2 -->
<g id="node2" class="node">
<title>Node2</title>
<g id="a_node2"><a xlink:href="class_folded_cube_scene.html#ae9c735f907099df0b8022d281a15ec1f" target="_top" xlink:title=" ">
<polygon fill="none" stroke="black" points="4.88,-402.5 4.88,-422.5 128.12,-422.5 128.12,-402.5 4.88,-402.5"/>
<text text-anchor="middle" x="66.5" y="-409" font-family="Helvetica,sans-Serif" font-size="10.00">FoldedCubeScene::Draw</text>
</a>
</g>
</g>
<!-- Node1&#45;&gt;Node2 -->
<g id="edge1" class="edge">
<title>Node1&#45;&gt;Node2</title>
<path fill="none" stroke="midnightblue" d="M224.27,-231.74C212.86,-272.47 185.26,-350.64 133,-393.5 128.51,-397.18 123.35,-400.15 117.92,-402.54"/>
<polygon fill="midnightblue" stroke="midnightblue" points="227.86,-232.88 227.07,-222.31 221.1,-231.06 227.86,-232.88"/>
</g>
<!-- Node3 -->
<g id="node3" class="node">
<title>Node3</title>
<g id="a_node3"><a xlink:href="class_folded_cube_wrap_scene.html#a7f32626310d5a8fbdfed708a5813b1e8" target="_top" xlink:title=" ">
<polygon fill="none" stroke="black" points="7.12,-351.5 7.12,-383.5 125.88,-383.5 125.88,-351.5 7.12,-351.5"/>
<text text-anchor="start" x="15.12" y="-370" font-family="Helvetica,sans-Serif" font-size="10.00">FoldedCubeWrapScene</text>
<text text-anchor="middle" x="66.5" y="-358" font-family="Helvetica,sans-Serif" font-size="10.00">::Draw</text>
</a>
</g>
</g>
<!-- Node1&#45;&gt;Node3 -->
<g id="edge2" class="edge">
<title>Node1&#45;&gt;Node3</title>
<path fill="none" stroke="midnightblue" d="M218.57,-230.84C202.76,-261.26 172.47,-312.01 133,-342.5 128.57,-345.92 123.62,-348.92 118.47,-351.54"/>
<polygon fill="midnightblue" stroke="midnightblue" points="221.98,-232.86 223.37,-222.35 215.73,-229.7 221.98,-232.86"/>
</g>
<!-- Node4 -->
<g id="node4" class="node">
<title>Node4</title>
<g id="a_node4"><a xlink:href="class_con_hex_scene.html#aa11b7b20c0116a2ce045f9bf299ab9df" target="_top" xlink:title=" ">
<polygon fill="none" stroke="black" points="13.5,-312.5 13.5,-332.5 119.5,-332.5 119.5,-312.5 13.5,-312.5"/>
<text text-anchor="middle" x="66.5" y="-319" font-family="Helvetica,sans-Serif" font-size="10.00">ConHexScene::Draw</text>
</a>
</g>
</g>
<!-- Node1&#45;&gt;Node4 -->
<g id="edge3" class="edge">
<title>Node1&#45;&gt;Node4</title>
<path fill="none" stroke="midnightblue" d="M212.58,-229.75C194.67,-252.01 165.35,-284.35 133,-303.5 126.89,-307.12 120.04,-310.09 113.14,-312.51"/>
<polygon fill="midnightblue" stroke="midnightblue" points="215.88,-232.21 219.31,-222.18 210.38,-227.88 215.88,-232.21"/>
</g>
<!-- Node5 -->
<g id="node5" class="node">
<title>Node5</title>
<g id="a_node5"><a xlink:href="class_con_hex_wire_scene.html#ae76a65199cc4ef0b23a53e896ecafff9" target="_top" xlink:title=" ">
<polygon fill="none" stroke="black" points="3.38,-273.5 3.38,-293.5 129.62,-293.5 129.62,-273.5 3.38,-273.5"/>
<text text-anchor="middle" x="66.5" y="-280" font-family="Helvetica,sans-Serif" font-size="10.00">ConHexWireScene::Draw</text>
</a>
</g>
</g>
<!-- Node1&#45;&gt;Node5 -->
<g id="edge4" class="edge">
<title>Node1&#45;&gt;Node5</title>
<path fill="none" stroke="midnightblue" d="M199.45,-227.28C180.8,-239.5 156.3,-254.3 133,-264.5 125.08,-267.97 116.35,-271 107.92,-273.57"/>
<polygon fill="midnightblue" stroke="midnightblue" points="200.98,-229.79 207.36,-221.34 197.1,-223.97 200.98,-229.79"/>
</g>
<!-- Node6 -->
<g id="node6" class="node">
<title>Node6</title>
<g id="a_node6"><a xlink:href="class_cube_order_scene.html#a0dcc2db49c9633aacf307df34b112739" target="_top" xlink:title=" ">
<polygon fill="none" stroke="black" points="7.5,-234.5 7.5,-254.5 125.5,-254.5 125.5,-234.5 7.5,-234.5"/>
<text text-anchor="middle" x="66.5" y="-241" font-family="Helvetica,sans-Serif" font-size="10.00">CubeOrderScene::Draw</text>
</a>
</g>
</g>
<!-- Node1&#45;&gt;Node6 -->
<g id="edge5" class="edge">
<title>Node1&#45;&gt;Node6</title>
<path fill="none" stroke="midnightblue" d="M158.57,-222.74C141.62,-226.79 124.11,-230.98 109.03,-234.58"/>
<polygon fill="midnightblue" stroke="midnightblue" points="159.12,-225.97 168.03,-220.24 157.49,-219.16 159.12,-225.97"/>
</g>
<!-- Node7 -->
<g id="node7" class="node">
<title>Node7</title>
<g id="a_node7"><a xlink:href="class_cube_skinned_scene.html#a07374cf1800ac9460a3ae956f78e69fb" target="_top" xlink:title=" ">
<polygon fill="none" stroke="black" points="1.88,-195.5 1.88,-215.5 131.12,-215.5 131.12,-195.5 1.88,-195.5"/>
<text text-anchor="middle" x="66.5" y="-202" font-family="Helvetica,sans-Serif" font-size="10.00">CubeSkinnedScene::Draw</text>
</a>
</g>
</g>
<!-- Node1&#45;&gt;Node7 -->
<g id="edge6" class="edge">
<title>Node1&#45;&gt;Node7</title>
<path fill="none" stroke="midnightblue" d="M158.09,-205.5C149.04,-205.5 139.83,-205.5 130.93,-205.5"/>
<polygon fill="midnightblue" stroke="midnightblue" points="158.03,-209 168.03,-205.5 158.03,-202 158.03,-209"/>
</g>
<!-- Node8 -->
<g id="node8" class="node">
<title>Node8</title>
<g id="a_node8"><a xlink:href="class_solid_cube_scene.html#a2b64ddcde32764c9e124aadb7232d5c8" target="_top" xlink:title=" ">
<polygon fill="none" stroke="black" points="8.62,-156.5 8.62,-176.5 124.38,-176.5 124.38,-156.5 8.62,-156.5"/>
<text text-anchor="middle" x="66.5" y="-163" font-family="Helvetica,sans-Serif" font-size="10.00">SolidCubeScene::Draw</text>
</a>
</g>
</g>
<!-- Node1&#45;&gt;Node8 -->
<g id="edge7" class="edge">
<title>Node1&#45;&gt;Node8</title>
<path fill="none" stroke="midnightblue" d="M158.57,-188.26C141.62,-184.21 124.11,-180.02 109.03,-176.42"/>
<polygon fill="midnightblue" stroke="midnightblue" points="157.49,-191.84 168.03,-190.76 159.12,-185.03 157.49,-191.84"/>
</g>
<!-- Node9 -->
<g id="node9" class="node">
<title>Node9</title>
<g id="a_node9"><a xlink:href="class_tex_cube_scene.html#acc39404ca99685be4303b08765e62928" target="_top" xlink:title=" ">
<polygon fill="none" stroke="black" points="11.62,-117.5 11.62,-137.5 121.38,-137.5 121.38,-117.5 11.62,-117.5"/>
<text text-anchor="middle" x="66.5" y="-124" font-family="Helvetica,sans-Serif" font-size="10.00">TexCubeScene::Draw</text>
</a>
</g>
</g>
<!-- Node1&#45;&gt;Node9 -->
<g id="edge8" class="edge">
<title>Node1&#45;&gt;Node9</title>
<path fill="none" stroke="midnightblue" d="M198.34,-183.6C179.79,-171.76 155.75,-157.55 133,-147.5 124.3,-143.66 114.64,-140.26 105.47,-137.41"/>
<polygon fill="midnightblue" stroke="midnightblue" points="196.21,-187.04 206.5,-189.54 200.01,-181.16 196.21,-187.04"/>
</g>
<!-- Node10 -->
<g id="node10" class="node">
<title>Node10</title>
<g id="a_node10"><a xlink:href="class_tex_wrap_cube_scene.html#adc840c26ac8bb1d21a70252293ef164e" target="_top" xlink:title=" ">
<polygon fill="none" stroke="black" points="0,-78.5 0,-98.5 133,-98.5 133,-78.5 0,-78.5"/>
<text text-anchor="middle" x="66.5" y="-85" font-family="Helvetica,sans-Serif" font-size="10.00">TexWrapCubeScene::Draw</text>
</a>
</g>
</g>
<!-- Node1&#45;&gt;Node10 -->
<g id="edge9" class="edge">
<title>Node1&#45;&gt;Node10</title>
<path fill="none" stroke="midnightblue" d="M212.16,-181.24C194.14,-159.3 164.92,-127.59 133,-108.5 126.16,-104.41 118.42,-101.09 110.71,-98.42"/>
<polygon fill="midnightblue" stroke="midnightblue" points="209.96,-183.09 218.94,-188.69 215.41,-178.7 209.96,-183.09"/>
</g>
<!-- Node11 -->
<g id="node11" class="node">
<title>Node11</title>
<g id="a_node11"><a xlink:href="class_x_mutual_scene.html#a4f51ba90f2d175aea3fbdc373f8fa496" target="_top" xlink:title=" ">
<polygon fill="none" stroke="black" points="13.5,-39.5 13.5,-59.5 119.5,-59.5 119.5,-39.5 13.5,-39.5"/>
<text text-anchor="middle" x="66.5" y="-46" font-family="Helvetica,sans-Serif" font-size="10.00">XMutualScene::Draw</text>
</a>
</g>
</g>
<!-- Node1&#45;&gt;Node11 -->
<g id="edge10" class="edge">
<title>Node1&#45;&gt;Node11</title>
<path fill="none" stroke="midnightblue" d="M219.11,-180.38C203.66,-149.78 173.55,-98.57 133,-69.5 127.2,-65.34 120.52,-62.04 113.7,-59.41"/>
<polygon fill="midnightblue" stroke="midnightblue" points="216.23,-181.47 223.77,-188.91 222.52,-178.39 216.23,-181.47"/>
</g>
<!-- Node12 -->
<g id="node12" class="node">
<title>Node12</title>
<g id="a_node12"><a xlink:href="_matrix3_8cpp.html#acea10da1d2383f46d1a19737053eaa26" target="_top" xlink:title=" ">
<polygon fill="none" stroke="black" points="46.5,-0.5 46.5,-20.5 86.5,-20.5 86.5,-0.5 46.5,-0.5"/>
<text text-anchor="middle" x="66.5" y="-7" font-family="Helvetica,sans-Serif" font-size="10.00">TEST</text>
</a>
</g>
</g>
<!-- Node1&#45;&gt;Node12 -->
<g id="edge11" class="edge">
<title>Node1&#45;&gt;Node12</title>
<path fill="none" stroke="midnightblue" d="M223.05,-179.21C210.48,-140.89 181.93,-69.98 133,-30.5 119.67,-19.75 100.62,-14.76 86.49,-12.46"/>
<polygon fill="midnightblue" stroke="midnightblue" points="219.96,-180.06 226.31,-188.54 226.64,-177.96 219.96,-180.06"/>
</g>
</g>
</svg>
