<?xml version="1.0" encoding="UTF-8" standalone="no"?>
<!DOCTYPE svg PUBLIC "-//W3C//DTD SVG 1.1//EN"
 "http://www.w3.org/Graphics/SVG/1.1/DTD/svg11.dtd">
<!-- Generated by graphviz version 8.1.0 (20230707.0739)
 -->
<!-- Title: XMutualScene::Update Pages: 1 -->
<svg width="283pt" height="68pt"
 viewBox="0.00 0.00 283.00 68.00" xmlns="http://www.w3.org/2000/svg" xmlns:xlink="http://www.w3.org/1999/xlink">
<g id="graph0" class="graph" transform="scale(1 1) rotate(0) translate(4 64)">
<title>XMutualScene::Update</title>
<!-- Node1 -->
<g id="node1" class="node">
<title>Node1</title>
<g id="a_node1"><a xlink:title=" ">
<polygon fill="#bfbfbf" stroke="black" points="0,-19.5 0,-39.5 115,-39.5 115,-19.5 0,-19.5"/>
<text text-anchor="middle" x="57.5" y="-26" font-family="Helvetica,sans-Serif" font-size="10.00">XMutualScene::Update</text>
</a>
</g>
</g>
<!-- Node2 -->
<g id="node2" class="node">
<title>Node2</title>
<g id="a_node2"><a xlink:href="class_keyboard.html#a7b11ba07982539a0dd9b16b4706e7211" target="_top" xlink:title=" ">
<polygon fill="none" stroke="black" points="151,-39.5 151,-59.5 275,-59.5 275,-39.5 151,-39.5"/>
<text text-anchor="middle" x="213" y="-46" font-family="Helvetica,sans-Serif" font-size="10.00">Keyboard::KeyIsPressed</text>
</a>
</g>
</g>
<!-- Node1&#45;&gt;Node2 -->
<g id="edge1" class="edge">
<title>Node1&#45;&gt;Node2</title>
<path fill="none" stroke="midnightblue" d="M114.79,-36.83C123.09,-37.92 131.74,-39.04 140.3,-40.16"/>
<polygon fill="midnightblue" stroke="midnightblue" points="139.7,-43.74 150.07,-41.56 140.6,-36.8 139.7,-43.74"/>
</g>
<!-- Node3 -->
<g id="node3" class="node">
<title>Node3</title>
<g id="a_node3"><a xlink:href="namespace_math.html#a5bf97cccfc70f0c8b750396c70127573" target="_top" xlink:title=" ">
<polygon fill="none" stroke="black" points="168.62,-0.5 168.62,-20.5 257.38,-20.5 257.38,-0.5 168.62,-0.5"/>
<text text-anchor="middle" x="213" y="-7" font-family="Helvetica,sans-Serif" font-size="10.00">Math::wrapAngle</text>
</a>
</g>
</g>
<!-- Node1&#45;&gt;Node3 -->
<g id="edge2" class="edge">
<title>Node1&#45;&gt;Node3</title>
<path fill="none" stroke="midnightblue" d="M114.79,-22.53C128.83,-20.79 143.86,-18.93 157.8,-17.21"/>
<polygon fill="midnightblue" stroke="midnightblue" points="158.21,-20.56 167.71,-15.86 157.35,-13.61 158.21,-20.56"/>
</g>
</g>
</svg>
