<?xml version="1.0" encoding="UTF-8" standalone="no"?>
<!DOCTYPE svg PUBLIC "-//W3C//DTD SVG 1.1//EN"
 "http://www.w3.org/Graphics/SVG/1.1/DTD/svg11.dtd">
<!-- Generated by graphviz version 2.43.0 (0)
 -->
<!-- Title: GeometryFlatScene::Draw Pages: 1 -->
<svg width="446pt" height="214pt"
 viewBox="0.00 0.00 446.00 214.00" xmlns="http://www.w3.org/2000/svg" xmlns:xlink="http://www.w3.org/1999/xlink">
<g id="graph0" class="graph" transform="scale(1 1) rotate(0) translate(4 210)">
<title>GeometryFlatScene::Draw</title>
<!-- Node1 -->
<g id="node1" class="node">
<title>Node1</title>
<g id="a_node1"><a xlink:title=" ">
<polygon fill="#bfbfbf" stroke="black" points="0,-93.5 0,-112.5 145,-112.5 145,-93.5 0,-93.5"/>
<text text-anchor="middle" x="72.5" y="-100.5" font-family="Helvetica,sans-Serif" font-size="10.00">GeometryFlatScene::Draw</text>
</a>
</g>
</g>
<!-- Node2 -->
<g id="node2" class="node">
<title>Node2</title>
<g id="a_node2"><a xlink:href="classPipeline.html#adf2322f3b604145324fe70fd45266b46" target="_top" xlink:title=" ">
<polygon fill="none" stroke="black" points="189.5,-186.5 189.5,-205.5 309.5,-205.5 309.5,-186.5 189.5,-186.5"/>
<text text-anchor="middle" x="249.5" y="-193.5" font-family="Helvetica,sans-Serif" font-size="10.00">Pipeline::BeginFrame</text>
</a>
</g>
</g>
<!-- Node1&#45;&gt;Node2 -->
<g id="edge1" class="edge">
<title>Node1&#45;&gt;Node2</title>
<path fill="none" stroke="midnightblue" d="M84.66,-112.56C103.39,-128.15 142.85,-159.1 181,-177 185.96,-179.33 191.26,-181.42 196.63,-183.3"/>
<polygon fill="midnightblue" stroke="midnightblue" points="195.72,-186.68 206.31,-186.43 197.88,-180.02 195.72,-186.68"/>
</g>
<!-- Node4 -->
<g id="node4" class="node">
<title>Node4</title>
<g id="a_node4"><a xlink:href="classMatrix3.html#a3672400f647456083337d53db6478505" target="_top" xlink:title=" ">
<polygon fill="none" stroke="black" points="181,-137 181,-167 318,-167 318,-137 181,-137"/>
<text text-anchor="start" x="189" y="-155" font-family="Helvetica,sans-Serif" font-size="10.00">Matrix3&lt; float &gt;::Create</text>
<text text-anchor="middle" x="249.5" y="-144" font-family="Helvetica,sans-Serif" font-size="10.00">XRotationMatrix</text>
</a>
</g>
</g>
<!-- Node1&#45;&gt;Node4 -->
<g id="edge3" class="edge">
<title>Node1&#45;&gt;Node4</title>
<path fill="none" stroke="midnightblue" d="M107.66,-112.56C129.62,-118.71 158.83,-126.89 184.96,-134.21"/>
<polygon fill="midnightblue" stroke="midnightblue" points="184.22,-137.64 194.8,-136.96 186.11,-130.9 184.22,-137.64"/>
</g>
<!-- Node5 -->
<g id="node5" class="node">
<title>Node5</title>
<g id="a_node5"><a xlink:href="classMatrix3.html#ae2e635e8fc49db308a95dde2a5518bbc" target="_top" xlink:title=" ">
<polygon fill="none" stroke="black" points="181,-88 181,-118 318,-118 318,-88 181,-88"/>
<text text-anchor="start" x="189" y="-106" font-family="Helvetica,sans-Serif" font-size="10.00">Matrix3&lt; float &gt;::Create</text>
<text text-anchor="middle" x="249.5" y="-95" font-family="Helvetica,sans-Serif" font-size="10.00">YRotationMatrix</text>
</a>
</g>
</g>
<!-- Node1&#45;&gt;Node5 -->
<g id="edge4" class="edge">
<title>Node1&#45;&gt;Node5</title>
<path fill="none" stroke="midnightblue" d="M145.18,-103C153.57,-103 162.16,-103 170.63,-103"/>
<polygon fill="midnightblue" stroke="midnightblue" points="170.87,-106.5 180.87,-103 170.87,-99.5 170.87,-106.5"/>
</g>
<!-- Node6 -->
<g id="node6" class="node">
<title>Node6</title>
<g id="a_node6"><a xlink:href="classMatrix3.html#a7b88435a5d6c183b5b46efa2b6dbcb3a" target="_top" xlink:title=" ">
<polygon fill="none" stroke="black" points="181,-39 181,-69 318,-69 318,-39 181,-39"/>
<text text-anchor="start" x="189" y="-57" font-family="Helvetica,sans-Serif" font-size="10.00">Matrix3&lt; float &gt;::Create</text>
<text text-anchor="middle" x="249.5" y="-46" font-family="Helvetica,sans-Serif" font-size="10.00">ZRotationMatrix</text>
</a>
</g>
</g>
<!-- Node1&#45;&gt;Node6 -->
<g id="edge5" class="edge">
<title>Node1&#45;&gt;Node6</title>
<path fill="none" stroke="midnightblue" d="M107.66,-93.44C129.62,-87.29 158.83,-79.11 184.96,-71.79"/>
<polygon fill="midnightblue" stroke="midnightblue" points="186.11,-75.1 194.8,-69.04 184.22,-68.36 186.11,-75.1"/>
</g>
<!-- Node7 -->
<g id="node7" class="node">
<title>Node7</title>
<g id="a_node7"><a xlink:href="classPipeline.html#a76274774f61e4b5a1c708decf65712b9" target="_top" xlink:title=" ">
<polygon fill="none" stroke="black" points="206,-0.5 206,-19.5 293,-19.5 293,-0.5 206,-0.5"/>
<text text-anchor="middle" x="249.5" y="-7.5" font-family="Helvetica,sans-Serif" font-size="10.00">Pipeline::Draw</text>
</a>
</g>
</g>
<!-- Node1&#45;&gt;Node7 -->
<g id="edge6" class="edge">
<title>Node1&#45;&gt;Node7</title>
<path fill="none" stroke="midnightblue" d="M85.02,-93.39C103.94,-78.03 143.28,-47.86 181,-30 186.73,-27.29 192.9,-24.85 199.11,-22.7"/>
<polygon fill="midnightblue" stroke="midnightblue" points="200.4,-25.96 208.83,-19.53 198.24,-19.3 200.4,-25.96"/>
</g>
<!-- Node3 -->
<g id="node3" class="node">
<title>Node3</title>
<g id="a_node3"><a xlink:href="classZBuffer.html#af1a6407078bb83629e3b4dec9f0554cf" target="_top" xlink:title=" ">
<polygon fill="none" stroke="black" points="354,-186.5 354,-205.5 438,-205.5 438,-186.5 354,-186.5"/>
<text text-anchor="middle" x="396" y="-193.5" font-family="Helvetica,sans-Serif" font-size="10.00">ZBuffer::Clear</text>
</a>
</g>
</g>
<!-- Node2&#45;&gt;Node3 -->
<g id="edge2" class="edge">
<title>Node2&#45;&gt;Node3</title>
<path fill="none" stroke="midnightblue" d="M309.69,-196C320.91,-196 332.57,-196 343.53,-196"/>
<polygon fill="midnightblue" stroke="midnightblue" points="343.79,-199.5 353.79,-196 343.79,-192.5 343.79,-199.5"/>
</g>
</g>
</svg>
