<?xml version="1.0" encoding="UTF-8" standalone="no"?>
<!DOCTYPE svg PUBLIC "-//W3C//DTD SVG 1.1//EN"
 "http://www.w3.org/Graphics/SVG/1.1/DTD/svg11.dtd">
<!-- Generated by graphviz version 8.1.0 (20230707.0739)
 -->
<!-- Title: VertexPositionColorEffect Pages: 1 -->
<svg width="280pt" height="110pt"
 viewBox="0.00 0.00 280.00 110.00" xmlns="http://www.w3.org/2000/svg" xmlns:xlink="http://www.w3.org/1999/xlink">
<g id="graph0" class="graph" transform="scale(1 1) rotate(0) translate(4 106)">
<title>VertexPositionColorEffect</title>
<!-- Node1 -->
<g id="node1" class="node">
<title>Node1</title>
<g id="a_node1"><a xlink:title=" ">
<polygon fill="#bfbfbf" stroke="black" points="72,-0.5 72,-20.5 199,-20.5 199,-0.5 72,-0.5"/>
<text text-anchor="middle" x="135.5" y="-7" font-family="Helvetica,sans-Serif" font-size="10.00">VertexPositionColorEffect</text>
</a>
</g>
</g>
<!-- Node2 -->
<g id="node2" class="node">
<title>Node2</title>
<g id="a_node2"><a xlink:href="class_vertex_position_color_effect_1_1_pixel_shader.html" target="_top" xlink:title=" ">
<polygon fill="none" stroke="black" points="0,-69.5 0,-101.5 127,-101.5 127,-69.5 0,-69.5"/>
<text text-anchor="start" x="8" y="-88" font-family="Helvetica,sans-Serif" font-size="10.00">VertexPositionColorEffect</text>
<text text-anchor="middle" x="63.5" y="-76" font-family="Helvetica,sans-Serif" font-size="10.00">::PixelShader</text>
</a>
</g>
</g>
<!-- Node2&#45;&gt;Node1 -->
<g id="edge1" class="edge">
<title>Node2&#45;&gt;Node1</title>
<path fill="none" stroke="#9a32cd" stroke-dasharray="5,2" d="M85.79,-61.9C99.67,-47.83 116.73,-30.53 126.83,-20.29"/>
<polygon fill="#9a32cd" stroke="#9a32cd" points="83.6,-59.15 79.07,-68.73 88.58,-64.07 83.6,-59.15"/>
<text text-anchor="middle" x="115.25" y="-41.5" font-family="Helvetica,sans-Serif" font-size="10.00"> ps</text>
</g>
<!-- Node3 -->
<g id="node3" class="node">
<title>Node3</title>
<g id="a_node3"><a xlink:href="class_vertex_position_color_effect_1_1_vertex_shader.html" target="_top" xlink:title=" ">
<polygon fill="none" stroke="black" points="145,-69.5 145,-101.5 272,-101.5 272,-69.5 145,-69.5"/>
<text text-anchor="start" x="153" y="-88" font-family="Helvetica,sans-Serif" font-size="10.00">VertexPositionColorEffect</text>
<text text-anchor="middle" x="208.5" y="-76" font-family="Helvetica,sans-Serif" font-size="10.00">::VertexShader</text>
</a>
</g>
</g>
<!-- Node3&#45;&gt;Node1 -->
<g id="edge2" class="edge">
<title>Node3&#45;&gt;Node1</title>
<path fill="none" stroke="#9a32cd" stroke-dasharray="5,2" d="M186.29,-62.29C172.16,-48.16 154.63,-30.63 144.29,-20.29"/>
<polygon fill="#9a32cd" stroke="#9a32cd" points="183.18,-64.13 192.73,-68.73 188.13,-59.18 183.18,-64.13"/>
<text text-anchor="middle" x="179.5" y="-41.5" font-family="Helvetica,sans-Serif" font-size="10.00"> vs</text>
</g>
</g>
</svg>
