<?xml version="1.0" encoding="UTF-8" standalone="no"?>
<!DOCTYPE svg PUBLIC "-//W3C//DTD SVG 1.1//EN"
 "http://www.w3.org/Graphics/SVG/1.1/DTD/svg11.dtd">
<!-- Generated by graphviz version 8.1.0 (20230707.0739)
 -->
<!-- Title: Engine::UpdateModel Pages: 1 -->
<svg width="611pt" height="263pt"
 viewBox="0.00 0.00 611.25 263.00" xmlns="http://www.w3.org/2000/svg" xmlns:xlink="http://www.w3.org/1999/xlink">
<g id="graph0" class="graph" transform="scale(1 1) rotate(0) translate(4 259)">
<title>Engine::UpdateModel</title>
<!-- Node1 -->
<g id="node1" class="node">
<title>Node1</title>
<g id="a_node1"><a xlink:title=" ">
<polygon fill="#bfbfbf" stroke="black" points="0,-117.5 0,-137.5 109,-137.5 109,-117.5 0,-117.5"/>
<text text-anchor="middle" x="54.5" y="-124" font-family="Helvetica,sans-Serif" font-size="10.00">Engine::UpdateModel</text>
</a>
</g>
</g>
<!-- Node2 -->
<g id="node2" class="node">
<title>Node2</title>
<g id="a_node2"><a xlink:href="class_engine.html#a5016986fb05c1dc14b808c018a152b21" target="_top" xlink:title=" ">
<polygon fill="none" stroke="black" points="162.25,-234.5 162.25,-254.5 272,-254.5 272,-234.5 162.25,-234.5"/>
<text text-anchor="middle" x="217.12" y="-241" font-family="Helvetica,sans-Serif" font-size="10.00">Engine::CycleScenes</text>
</a>
</g>
</g>
<!-- Node1&#45;&gt;Node2 -->
<g id="edge1" class="edge">
<title>Node1&#45;&gt;Node2</title>
<path fill="none" stroke="midnightblue" d="M61.58,-137.26C74.44,-157.06 106.4,-202.05 145,-225.5 148,-227.32 151.18,-228.98 154.47,-230.47"/>
<polygon fill="midnightblue" stroke="midnightblue" points="152.96,-234.04 163.55,-234.5 155.56,-227.54 152.96,-234.04"/>
</g>
<!-- Node5 -->
<g id="node5" class="node">
<title>Node5</title>
<g id="a_node5"><a xlink:href="class_keyboard.html#ad7339a4454f6f55c19b235a9dbe62c97" target="_top" xlink:title=" ">
<polygon fill="none" stroke="black" points="158.88,-195.5 158.88,-215.5 275.38,-215.5 275.38,-195.5 158.88,-195.5"/>
<text text-anchor="middle" x="217.12" y="-202" font-family="Helvetica,sans-Serif" font-size="10.00">Keyboard::KeyIsEmpty</text>
</a>
</g>
</g>
<!-- Node1&#45;&gt;Node5 -->
<g id="edge4" class="edge">
<title>Node1&#45;&gt;Node5</title>
<path fill="none" stroke="midnightblue" d="M67.79,-137.48C84.37,-150.49 115.29,-173.16 145,-186.5 149.71,-188.61 154.7,-190.53 159.77,-192.27"/>
<polygon fill="midnightblue" stroke="midnightblue" points="158.63,-195.89 169.22,-195.57 160.74,-189.22 158.63,-195.89"/>
</g>
<!-- Node6 -->
<g id="node6" class="node">
<title>Node6</title>
<g id="a_node6"><a xlink:href="class_keyboard.html#a7b11ba07982539a0dd9b16b4706e7211" target="_top" xlink:title=" ">
<polygon fill="none" stroke="black" points="155.12,-156.5 155.12,-176.5 279.12,-176.5 279.12,-156.5 155.12,-156.5"/>
<text text-anchor="middle" x="217.12" y="-163" font-family="Helvetica,sans-Serif" font-size="10.00">Keyboard::KeyIsPressed</text>
</a>
</g>
</g>
<!-- Node1&#45;&gt;Node6 -->
<g id="edge5" class="edge">
<title>Node1&#45;&gt;Node6</title>
<path fill="none" stroke="midnightblue" d="M96.45,-137.44C117.14,-142.47 142.45,-148.61 164.47,-153.96"/>
<polygon fill="midnightblue" stroke="midnightblue" points="163.43,-157.55 173.97,-156.51 165.08,-150.75 163.43,-157.55"/>
</g>
<!-- Node7 -->
<g id="node7" class="node">
<title>Node7</title>
<g id="a_node7"><a xlink:href="class_main_window.html#a35f292c078d17dcf4b6bc29506c354ec" target="_top" xlink:title=" ">
<polygon fill="none" stroke="black" points="171.62,-117.5 171.62,-137.5 262.62,-137.5 262.62,-117.5 171.62,-117.5"/>
<text text-anchor="middle" x="217.12" y="-124" font-family="Helvetica,sans-Serif" font-size="10.00">MainWindow::Kill</text>
</a>
</g>
</g>
<!-- Node1&#45;&gt;Node7 -->
<g id="edge6" class="edge">
<title>Node1&#45;&gt;Node7</title>
<path fill="none" stroke="midnightblue" d="M108.99,-127.5C125.68,-127.5 144.12,-127.5 160.93,-127.5"/>
<polygon fill="midnightblue" stroke="midnightblue" points="160.71,-131 170.71,-127.5 160.71,-124 160.71,-131"/>
</g>
<!-- Node8 -->
<g id="node8" class="node">
<title>Node8</title>
<g id="a_node8"><a xlink:href="class_frame_timer.html#a9f9407f654b939897bfe1c1443e6e15c" target="_top" xlink:title=" ">
<polygon fill="none" stroke="black" points="169.38,-78.5 169.38,-98.5 264.88,-98.5 264.88,-78.5 169.38,-78.5"/>
<text text-anchor="middle" x="217.12" y="-85" font-family="Helvetica,sans-Serif" font-size="10.00">FrameTimer::Mark</text>
</a>
</g>
</g>
<!-- Node1&#45;&gt;Node8 -->
<g id="edge7" class="edge">
<title>Node1&#45;&gt;Node8</title>
<path fill="none" stroke="midnightblue" d="M96.45,-117.56C117.14,-112.53 142.45,-106.39 164.47,-101.04"/>
<polygon fill="midnightblue" stroke="midnightblue" points="165.08,-104.25 173.97,-98.49 163.43,-97.45 165.08,-104.25"/>
</g>
<!-- Node9 -->
<g id="node9" class="node">
<title>Node9</title>
<g id="a_node9"><a xlink:href="class_keyboard.html#a1aabaaff8f5a031317966ca0bfac7858" target="_top" xlink:title=" ">
<polygon fill="none" stroke="black" points="165.62,-39.5 165.62,-59.5 268.62,-59.5 268.62,-39.5 165.62,-39.5"/>
<text text-anchor="middle" x="217.12" y="-46" font-family="Helvetica,sans-Serif" font-size="10.00">Keyboard::ReadKey</text>
</a>
</g>
</g>
<!-- Node1&#45;&gt;Node9 -->
<g id="edge8" class="edge">
<title>Node1&#45;&gt;Node9</title>
<path fill="none" stroke="midnightblue" d="M68.13,-117.54C84.85,-104.8 115.64,-82.77 145,-69.5 150.62,-66.96 156.63,-64.67 162.69,-62.63"/>
<polygon fill="midnightblue" stroke="midnightblue" points="163.4,-65.76 171.88,-59.41 161.29,-59.08 163.4,-65.76"/>
</g>
<!-- Node10 -->
<g id="node10" class="node">
<title>Node10</title>
<g id="a_node10"><a xlink:href="class_engine.html#a00d1c5c1655bd9024d7150aa12c4b5c6" target="_top" xlink:title=" ">
<polygon fill="none" stroke="black" points="145,-0.5 145,-20.5 289.25,-20.5 289.25,-0.5 145,-0.5"/>
<text text-anchor="middle" x="217.12" y="-7" font-family="Helvetica,sans-Serif" font-size="10.00">Engine::ReverseCycleScenes</text>
</a>
</g>
</g>
<!-- Node1&#45;&gt;Node10 -->
<g id="edge9" class="edge">
<title>Node1&#45;&gt;Node10</title>
<path fill="none" stroke="midnightblue" d="M61.83,-117.58C74.92,-97.91 106.9,-53.85 145,-30.5 148.81,-28.16 152.91,-26.09 157.14,-24.26"/>
<polygon fill="midnightblue" stroke="midnightblue" points="158.1,-27.25 166.18,-20.39 155.59,-20.72 158.1,-27.25"/>
</g>
<!-- Node3 -->
<g id="node3" class="node">
<title>Node3</title>
<g id="a_node3"><a xlink:href="class_engine.html#a85491a83a933400a58b5f0f3da558143" target="_top" xlink:title=" ">
<polygon fill="none" stroke="black" points="325.25,-117.5 325.25,-137.5 452.25,-137.5 452.25,-117.5 325.25,-117.5"/>
<text text-anchor="middle" x="388.75" y="-124" font-family="Helvetica,sans-Serif" font-size="10.00">Engine::SetWindowName</text>
</a>
</g>
</g>
<!-- Node2&#45;&gt;Node3 -->
<g id="edge2" class="edge">
<title>Node2&#45;&gt;Node3</title>
<path fill="none" stroke="midnightblue" d="M268.42,-234.62C275.66,-232.19 282.82,-229.2 289.25,-225.5 325.11,-204.87 357.13,-167.9 374.36,-145.74"/>
<polygon fill="midnightblue" stroke="midnightblue" points="377.55,-148.32 380.81,-138.24 371.98,-144.09 377.55,-148.32"/>
</g>
<!-- Node4 -->
<g id="node4" class="node">
<title>Node4</title>
<g id="a_node4"><a xlink:href="class_h_w_n_d_key.html#ad0013aa027b8583318249afaaed77614" target="_top" xlink:title=" ">
<polygon fill="none" stroke="black" points="488.25,-117.5 488.25,-137.5 603.25,-137.5 603.25,-117.5 488.25,-117.5"/>
<text text-anchor="middle" x="545.75" y="-124" font-family="Helvetica,sans-Serif" font-size="10.00">HWNDKey::GetHWND</text>
</a>
</g>
</g>
<!-- Node3&#45;&gt;Node4 -->
<g id="edge3" class="edge">
<title>Node3&#45;&gt;Node4</title>
<path fill="none" stroke="midnightblue" d="M451.9,-127.5C460.43,-127.5 469.21,-127.5 477.82,-127.5"/>
<polygon fill="midnightblue" stroke="midnightblue" points="477.6,-131 487.6,-127.5 477.6,-124 477.6,-131"/>
</g>
<!-- Node10&#45;&gt;Node3 -->
<g id="edge10" class="edge">
<title>Node10&#45;&gt;Node3</title>
<path fill="none" stroke="midnightblue" d="M266.16,-20.42C274.15,-23.07 282.15,-26.38 289.25,-30.5 324.67,-51.06 356.63,-87.3 374.01,-109.19"/>
<polygon fill="midnightblue" stroke="midnightblue" points="371.64,-110.85 380.53,-116.6 377.17,-106.56 371.64,-110.85"/>
</g>
</g>
</svg>
