<?xml version="1.0" encoding="UTF-8" standalone="no"?>
<!DOCTYPE svg PUBLIC "-//W3C//DTD SVG 1.1//EN"
 "http://www.w3.org/Graphics/SVG/1.1/DTD/svg11.dtd">
<!-- Generated by graphviz version 2.43.0 (0)
 -->
<!-- Title: Graphics::PutPixel Pages: 1 -->
<svg width="386pt" height="28pt"
 viewBox="0.00 0.00 386.00 28.00" xmlns="http://www.w3.org/2000/svg" xmlns:xlink="http://www.w3.org/1999/xlink">
<g id="graph0" class="graph" transform="scale(1 1) rotate(0) translate(4 24)">
<title>Graphics::PutPixel</title>
<!-- Node1 -->
<g id="node1" class="node">
<title>Node1</title>
<g id="a_node1"><a xlink:title=" ">
<polygon fill="#bfbfbf" stroke="black" points="0,-0.5 0,-19.5 104,-19.5 104,-0.5 0,-0.5"/>
<text text-anchor="middle" x="52" y="-7.5" font-family="Helvetica,sans-Serif" font-size="10.00">Graphics::PutPixel</text>
</a>
</g>
</g>
<!-- Node2 -->
<g id="node2" class="node">
<title>Node2</title>
<g id="a_node2"><a xlink:href="classGraphics.html#a69fae0334426fd8a8a271d9843d4f7fe" target="_top" xlink:title=" ">
<polygon fill="none" stroke="black" points="140,-0.5 140,-19.5 244,-19.5 244,-0.5 140,-0.5"/>
<text text-anchor="middle" x="192" y="-7.5" font-family="Helvetica,sans-Serif" font-size="10.00">Graphics::PutPixel</text>
</a>
</g>
</g>
<!-- Node1&#45;&gt;Node2 -->
<g id="edge1" class="edge">
<title>Node1&#45;&gt;Node2</title>
<path fill="none" stroke="midnightblue" d="M104.39,-10C112.56,-10 121.08,-10 129.46,-10"/>
<polygon fill="midnightblue" stroke="midnightblue" points="129.57,-13.5 139.57,-10 129.57,-6.5 129.57,-13.5"/>
</g>
<!-- Node3 -->
<g id="node3" class="node">
<title>Node3</title>
<g id="a_node3"><a xlink:href="classSurface.html#ad95a03761aaa5229eab2a500441eb322" target="_top" xlink:title=" ">
<polygon fill="none" stroke="black" points="280,-0.5 280,-19.5 378,-19.5 378,-0.5 280,-0.5"/>
<text text-anchor="middle" x="329" y="-7.5" font-family="Helvetica,sans-Serif" font-size="10.00">Surface::PutPixel</text>
</a>
</g>
</g>
<!-- Node2&#45;&gt;Node3 -->
<g id="edge2" class="edge">
<title>Node2&#45;&gt;Node3</title>
<path fill="none" stroke="midnightblue" d="M244.04,-10C252.32,-10 260.95,-10 269.4,-10"/>
<polygon fill="midnightblue" stroke="midnightblue" points="269.57,-13.5 279.57,-10 269.57,-6.5 269.57,-13.5"/>
</g>
</g>
</svg>
