<?xml version="1.0" encoding="UTF-8" standalone="no"?>
<!DOCTYPE svg PUBLIC "-//W3C//DTD SVG 1.1//EN"
 "http://www.w3.org/Graphics/SVG/1.1/DTD/svg11.dtd">
<!-- Generated by graphviz version 8.1.0 (20230707.0739)
 -->
<!-- Title: ZBuffer::At Pages: 1 -->
<svg width="209pt" height="68pt"
 viewBox="0.00 0.00 208.75 68.00" xmlns="http://www.w3.org/2000/svg" xmlns:xlink="http://www.w3.org/1999/xlink">
<g id="graph0" class="graph" transform="scale(1 1) rotate(0) translate(4 64)">
<title>ZBuffer::At</title>
<!-- Node1 -->
<g id="node1" class="node">
<title>Node1</title>
<g id="a_node1"><a xlink:title=" ">
<polygon fill="#bfbfbf" stroke="black" points="139,-19.5 139,-39.5 200.75,-39.5 200.75,-19.5 139,-19.5"/>
<text text-anchor="middle" x="169.88" y="-26" font-family="Helvetica,sans-Serif" font-size="10.00">ZBuffer::At</text>
</a>
</g>
</g>
<!-- Node2 -->
<g id="node2" class="node">
<title>Node2</title>
<g id="a_node2"><a xlink:href="class_z_buffer.html#a613c6e7c0cd5deb8ce17266806644923" target="_top" xlink:title=" ">
<polygon fill="none" stroke="black" points="20.62,-39.5 20.62,-59.5 82.38,-59.5 82.38,-39.5 20.62,-39.5"/>
<text text-anchor="middle" x="51.5" y="-46" font-family="Helvetica,sans-Serif" font-size="10.00">ZBuffer::At</text>
</a>
</g>
</g>
<!-- Node1&#45;&gt;Node2 -->
<g id="edge1" class="edge">
<title>Node1&#45;&gt;Node2</title>
<path fill="none" stroke="midnightblue" d="M128.49,-36.44C113.25,-39.06 96.19,-41.99 82.11,-44.41"/>
<polygon fill="midnightblue" stroke="midnightblue" points="128.94,-39.74 138.21,-34.6 127.76,-32.84 128.94,-39.74"/>
</g>
<!-- Node3 -->
<g id="node3" class="node">
<title>Node3</title>
<g id="a_node3"><a xlink:href="class_z_buffer.html#adc13332384404e8da0c9f59685122768" target="_top" xlink:title=" ">
<polygon fill="none" stroke="black" points="0,-0.5 0,-20.5 103,-20.5 103,-0.5 0,-0.5"/>
<text text-anchor="middle" x="51.5" y="-7" font-family="Helvetica,sans-Serif" font-size="10.00">ZBuffer::TestAndSet</text>
</a>
</g>
</g>
<!-- Node1&#45;&gt;Node3 -->
<g id="edge2" class="edge">
<title>Node1&#45;&gt;Node3</title>
<path fill="none" stroke="midnightblue" d="M128.39,-22.89C120.17,-21.55 111.43,-20.12 102.91,-18.73"/>
<polygon fill="midnightblue" stroke="midnightblue" points="127.77,-26.5 138.21,-24.66 128.9,-19.59 127.77,-26.5"/>
</g>
</g>
</svg>
