<?xml version="1.0" encoding="UTF-8" standalone="no"?>
<!DOCTYPE svg PUBLIC "-//W3C//DTD SVG 1.1//EN"
 "http://www.w3.org/Graphics/SVG/1.1/DTD/svg11.dtd">
<!-- Generated by graphviz version 8.1.0 (20230707.0739)
 -->
<!-- Title: GeometryFlatEffect::Vertex::Vertex Pages: 1 -->
<svg width="244pt" height="194pt"
 viewBox="0.00 0.00 244.00 194.00" xmlns="http://www.w3.org/2000/svg" xmlns:xlink="http://www.w3.org/1999/xlink">
<g id="graph0" class="graph" transform="scale(1 1) rotate(0) translate(4 190)">
<title>GeometryFlatEffect::Vertex::Vertex</title>
<!-- Node1 -->
<g id="node1" class="node">
<title>Node1</title>
<g id="a_node1"><a xlink:title=" ">
<polygon fill="#bfbfbf" stroke="black" points="136,-76.5 136,-108.5 236,-108.5 236,-76.5 136,-76.5"/>
<text text-anchor="start" x="144" y="-95" font-family="Helvetica,sans-Serif" font-size="10.00">GeometryFlatEffect</text>
<text text-anchor="middle" x="186" y="-83" font-family="Helvetica,sans-Serif" font-size="10.00">::Vertex::Vertex</text>
</a>
</g>
</g>
<!-- Node2 -->
<g id="node2" class="node">
<title>Node2</title>
<g id="a_node2"><a xlink:href="class_geometry_flat_effect_1_1_vertex.html#af3c9009c05a758ba8c554bd0c779bbaa" target="_top" xlink:title=" ">
<polygon fill="none" stroke="black" points="0,-153.5 0,-185.5 100,-185.5 100,-153.5 0,-153.5"/>
<text text-anchor="start" x="8" y="-172" font-family="Helvetica,sans-Serif" font-size="10.00">GeometryFlatEffect</text>
<text text-anchor="middle" x="50" y="-160" font-family="Helvetica,sans-Serif" font-size="10.00">::Vertex::operator*</text>
</a>
</g>
</g>
<!-- Node1&#45;&gt;Node2 -->
<g id="edge1" class="edge">
<title>Node1&#45;&gt;Node2</title>
<path fill="none" stroke="midnightblue" d="M150.88,-114.21C135.49,-123.77 117,-134.98 100,-144.5 94.58,-147.53 88.76,-150.64 83.08,-153.58"/>
<polygon fill="midnightblue" stroke="midnightblue" points="152.39,-116.76 159.01,-108.49 148.68,-110.83 152.39,-116.76"/>
</g>
<!-- Node3 -->
<g id="node3" class="node">
<title>Node3</title>
<g id="a_node3"><a xlink:href="class_geometry_flat_effect_1_1_vertex.html#a9a0b32f9483986e69d2236ae302f4b8f" target="_top" xlink:title=" ">
<polygon fill="none" stroke="black" points="0,-102.5 0,-134.5 100,-134.5 100,-102.5 0,-102.5"/>
<text text-anchor="start" x="8" y="-121" font-family="Helvetica,sans-Serif" font-size="10.00">GeometryFlatEffect</text>
<text text-anchor="middle" x="50" y="-109" font-family="Helvetica,sans-Serif" font-size="10.00">::Vertex::operator+</text>
</a>
</g>
</g>
<!-- Node1&#45;&gt;Node3 -->
<g id="edge2" class="edge">
<title>Node1&#45;&gt;Node3</title>
<path fill="none" stroke="midnightblue" d="M125.54,-104.04C116.98,-105.7 108.26,-107.39 99.94,-109"/>
<polygon fill="midnightblue" stroke="midnightblue" points="126.09,-107.3 135.24,-101.96 124.76,-100.43 126.09,-107.3"/>
</g>
<!-- Node4 -->
<g id="node4" class="node">
<title>Node4</title>
<g id="a_node4"><a xlink:href="class_geometry_flat_effect_1_1_vertex.html#af8d40086734f26f0ef64d5423236fe99" target="_top" xlink:title=" ">
<polygon fill="none" stroke="black" points="0,-51.5 0,-83.5 100,-83.5 100,-51.5 0,-51.5"/>
<text text-anchor="start" x="8" y="-70" font-family="Helvetica,sans-Serif" font-size="10.00">GeometryFlatEffect</text>
<text text-anchor="middle" x="50" y="-58" font-family="Helvetica,sans-Serif" font-size="10.00">::Vertex::operator&#45;</text>
</a>
</g>
</g>
<!-- Node1&#45;&gt;Node4 -->
<g id="edge3" class="edge">
<title>Node1&#45;&gt;Node4</title>
<path fill="none" stroke="midnightblue" d="M125.54,-81.41C116.98,-79.81 108.26,-78.18 99.94,-76.63"/>
<polygon fill="midnightblue" stroke="midnightblue" points="124.77,-85.01 135.24,-83.4 126.06,-78.13 124.77,-85.01"/>
</g>
<!-- Node5 -->
<g id="node5" class="node">
<title>Node5</title>
<g id="a_node5"><a xlink:href="class_geometry_flat_effect_1_1_vertex.html#aa584a29e844005941d651cf953aedd6f" target="_top" xlink:title=" ">
<polygon fill="none" stroke="black" points="0,-0.5 0,-32.5 100,-32.5 100,-0.5 0,-0.5"/>
<text text-anchor="start" x="8" y="-19" font-family="Helvetica,sans-Serif" font-size="10.00">GeometryFlatEffect</text>
<text text-anchor="middle" x="50" y="-7" font-family="Helvetica,sans-Serif" font-size="10.00">::Vertex::operator/</text>
</a>
</g>
</g>
<!-- Node1&#45;&gt;Node5 -->
<g id="edge4" class="edge">
<title>Node1&#45;&gt;Node5</title>
<path fill="none" stroke="midnightblue" d="M149.69,-71.26C134.49,-62.24 116.46,-51.7 100,-42.5 94.03,-39.16 87.61,-35.68 81.43,-32.38"/>
<polygon fill="midnightblue" stroke="midnightblue" points="147.37,-74.55 157.75,-76.66 150.95,-68.54 147.37,-74.55"/>
</g>
</g>
</svg>
