<?xml version="1.0" encoding="UTF-8" standalone="no"?>
<!DOCTYPE svg PUBLIC "-//W3C//DTD SVG 1.1//EN"
 "http://www.w3.org/Graphics/SVG/1.1/DTD/svg11.dtd">
<!-- Generated by graphviz version 8.1.0 (20230707.0739)
 -->
<!-- Title: WaveVertexTextureEffect::Vertex Pages: 1 -->
<svg width="198pt" height="110pt"
 viewBox="0.00 0.00 197.75 110.00" xmlns="http://www.w3.org/2000/svg" xmlns:xlink="http://www.w3.org/1999/xlink">
<g id="graph0" class="graph" transform="scale(1 1) rotate(0) translate(4 106)">
<title>WaveVertexTextureEffect::Vertex</title>
<!-- Node1 -->
<g id="node1" class="node">
<title>Node1</title>
<g id="a_node1"><a xlink:title=" ">
<polygon fill="#bfbfbf" stroke="black" points="32.12,-0.5 32.12,-32.5 157.62,-32.5 157.62,-0.5 32.12,-0.5"/>
<text text-anchor="start" x="40.12" y="-19" font-family="Helvetica,sans-Serif" font-size="10.00">WaveVertexTextureEffect</text>
<text text-anchor="middle" x="94.88" y="-7" font-family="Helvetica,sans-Serif" font-size="10.00">::Vertex</text>
</a>
</g>
</g>
<!-- Node2 -->
<g id="node2" class="node">
<title>Node2</title>
<g id="a_node2"><a xlink:href="class_vector3.html" target="_top" xlink:title=" ">
<polygon fill="none" stroke="black" points="0,-81.5 0,-101.5 85.75,-101.5 85.75,-81.5 0,-81.5"/>
<text text-anchor="middle" x="42.88" y="-88" font-family="Helvetica,sans-Serif" font-size="10.00">Vector3&lt; float &gt;</text>
</a>
</g>
</g>
<!-- Node2&#45;&gt;Node1 -->
<g id="edge1" class="edge">
<title>Node2&#45;&gt;Node1</title>
<path fill="none" stroke="#9a32cd" stroke-dasharray="5,2" d="M55.6,-72.63C64.41,-60.27 76,-44 84.3,-32.35"/>
<polygon fill="#9a32cd" stroke="#9a32cd" points="52.2,-70.37 49.25,-80.55 57.9,-74.43 52.2,-70.37"/>
<text text-anchor="middle" x="80.25" y="-53.5" font-family="Helvetica,sans-Serif" font-size="10.00"> pos</text>
</g>
<!-- Node3 -->
<g id="node3" class="node">
<title>Node3</title>
<g id="a_node3"><a xlink:href="class_vector2.html" target="_top" xlink:title=" ">
<polygon fill="none" stroke="black" points="104,-81.5 104,-101.5 189.75,-101.5 189.75,-81.5 104,-81.5"/>
<text text-anchor="middle" x="146.88" y="-88" font-family="Helvetica,sans-Serif" font-size="10.00">Vector2&lt; float &gt;</text>
</a>
</g>
</g>
<!-- Node3&#45;&gt;Node1 -->
<g id="edge2" class="edge">
<title>Node3&#45;&gt;Node1</title>
<path fill="none" stroke="#9a32cd" stroke-dasharray="5,2" d="M134.15,-72.63C125.34,-60.27 113.75,-44 105.45,-32.35"/>
<polygon fill="#9a32cd" stroke="#9a32cd" points="131.85,-74.43 140.5,-80.55 137.55,-70.37 131.85,-74.43"/>
<text text-anchor="middle" x="129.88" y="-53.5" font-family="Helvetica,sans-Serif" font-size="10.00"> t</text>
</g>
</g>
</svg>
