<?xml version="1.0" encoding="UTF-8" standalone="no"?>
<!DOCTYPE svg PUBLIC "-//W3C//DTD SVG 1.1//EN"
 "http://www.w3.org/Graphics/SVG/1.1/DTD/svg11.dtd">
<!-- Generated by graphviz version 8.1.0 (20230707.0739)
 -->
<!-- Title: Matrix3::CreateIdentityMatrix Pages: 1 -->
<svg width="286pt" height="68pt"
 viewBox="0.00 0.00 286.00 68.00" xmlns="http://www.w3.org/2000/svg" xmlns:xlink="http://www.w3.org/1999/xlink">
<g id="graph0" class="graph" transform="scale(1 1) rotate(0) translate(4 64)">
<title>Matrix3::CreateIdentityMatrix</title>
<!-- Node1 -->
<g id="node1" class="node">
<title>Node1</title>
<g id="a_node1"><a xlink:title=" ">
<polygon fill="#bfbfbf" stroke="black" points="136.75,-19.5 136.75,-39.5 278,-39.5 278,-19.5 136.75,-19.5"/>
<text text-anchor="middle" x="207.38" y="-26" font-family="Helvetica,sans-Serif" font-size="10.00">Matrix3::CreateIdentityMatrix</text>
</a>
</g>
</g>
<!-- Node2 -->
<g id="node2" class="node">
<title>Node2</title>
<g id="a_node2"><a xlink:href="class_matrix3.html#a3bbdb8dec3a64dd784ae48b5a2417d51" target="_top" xlink:title=" ">
<polygon fill="none" stroke="black" points="0,-39.5 0,-59.5 100.75,-59.5 100.75,-39.5 0,-39.5"/>
<text text-anchor="middle" x="50.38" y="-46" font-family="Helvetica,sans-Serif" font-size="10.00">Matrix3::SetIdentity</text>
</a>
</g>
</g>
<!-- Node1&#45;&gt;Node2 -->
<g id="edge1" class="edge">
<title>Node1&#45;&gt;Node2</title>
<path fill="none" stroke="midnightblue" d="M126.37,-39.82C117.62,-40.95 108.92,-42.08 100.7,-43.14"/>
<polygon fill="midnightblue" stroke="midnightblue" points="126.57,-43.2 136.04,-38.45 125.67,-36.26 126.57,-43.2"/>
</g>
<!-- Node3 -->
<g id="node3" class="node">
<title>Node3</title>
<g id="a_node3"><a xlink:href="_matrix3_8cpp.html#ab94bc1ca78ee51e9e5072bfc34d64068" target="_top" xlink:title=" ">
<polygon fill="none" stroke="black" points="30.38,-0.5 30.38,-20.5 70.38,-20.5 70.38,-0.5 30.38,-0.5"/>
<text text-anchor="middle" x="50.38" y="-7" font-family="Helvetica,sans-Serif" font-size="10.00">TEST</text>
</a>
</g>
</g>
<!-- Node1&#45;&gt;Node3 -->
<g id="edge2" class="edge">
<title>Node1&#45;&gt;Node3</title>
<path fill="none" stroke="midnightblue" d="M126.37,-19.69C105.32,-17.11 84.51,-14.56 70.17,-12.8"/>
<polygon fill="midnightblue" stroke="midnightblue" points="125.68,-23.26 136.04,-21 126.54,-16.31 125.68,-23.26"/>
</g>
</g>
</svg>
