<?xml version="1.0" encoding="UTF-8" standalone="no"?>
<!DOCTYPE svg PUBLIC "-//W3C//DTD SVG 1.1//EN"
 "http://www.w3.org/Graphics/SVG/1.1/DTD/svg11.dtd">
<!-- Generated by graphviz version 8.1.0 (20230707.0739)
 -->
<!-- Title: CubeSkinScene::Draw Pages: 1 -->
<svg width="391pt" height="299pt"
 viewBox="0.00 0.00 391.25 299.00" xmlns="http://www.w3.org/2000/svg" xmlns:xlink="http://www.w3.org/1999/xlink">
<g id="graph0" class="graph" transform="scale(1 1) rotate(0) translate(4 295)">
<title>CubeSkinScene::Draw</title>
<!-- Node1 -->
<g id="node1" class="node">
<title>Node1</title>
<g id="a_node1"><a xlink:title=" ">
<polygon fill="#bfbfbf" stroke="black" points="0,-147.5 0,-167.5 113.5,-167.5 113.5,-147.5 0,-147.5"/>
<text text-anchor="middle" x="56.75" y="-154" font-family="Helvetica,sans-Serif" font-size="10.00">CubeSkinScene::Draw</text>
</a>
</g>
</g>
<!-- Node2 -->
<g id="node2" class="node">
<title>Node2</title>
<g id="a_node2"><a xlink:href="class_pipeline.html#adf2322f3b604145324fe70fd45266b46" target="_top" xlink:title=" ">
<polygon fill="none" stroke="black" points="156.62,-270.5 156.62,-290.5 265.62,-290.5 265.62,-270.5 156.62,-270.5"/>
<text text-anchor="middle" x="211.12" y="-277" font-family="Helvetica,sans-Serif" font-size="10.00">Pipeline::BeginFrame</text>
</a>
</g>
</g>
<!-- Node1&#45;&gt;Node2 -->
<g id="edge1" class="edge">
<title>Node1&#45;&gt;Node2</title>
<path fill="none" stroke="midnightblue" d="M63.78,-167.41C76.83,-188.01 109.72,-235.67 149.5,-261.5 152.23,-263.27 155.14,-264.89 158.15,-266.37"/>
<polygon fill="midnightblue" stroke="midnightblue" points="156.44,-269.87 167.01,-270.6 159.2,-263.44 156.44,-269.87"/>
</g>
<!-- Node4 -->
<g id="node4" class="node">
<title>Node4</title>
<g id="a_node4"><a xlink:href="class_pipeline.html#aad524adda7bb538f882dbbf98eb20c1d" target="_top" xlink:title=" ">
<polygon fill="none" stroke="black" points="155.12,-231.5 155.12,-251.5 267.12,-251.5 267.12,-231.5 155.12,-231.5"/>
<text text-anchor="middle" x="211.12" y="-238" font-family="Helvetica,sans-Serif" font-size="10.00">Pipeline::BindRotation</text>
</a>
</g>
</g>
<!-- Node1&#45;&gt;Node4 -->
<g id="edge3" class="edge">
<title>Node1&#45;&gt;Node4</title>
<path fill="none" stroke="midnightblue" d="M69.16,-167.39C85.81,-181.39 118.19,-206.99 149.5,-222.5 153.45,-224.46 157.64,-226.26 161.9,-227.92"/>
<polygon fill="midnightblue" stroke="midnightblue" points="160.3,-231.43 170.9,-231.52 162.67,-224.84 160.3,-231.43"/>
</g>
<!-- Node5 -->
<g id="node5" class="node">
<title>Node5</title>
<g id="a_node5"><a xlink:href="class_pipeline.html#a8292a77189cee1306958bf86ebee73e5" target="_top" xlink:title=" ">
<polygon fill="none" stroke="black" points="149.5,-192.5 149.5,-212.5 272.75,-212.5 272.75,-192.5 149.5,-192.5"/>
<text text-anchor="middle" x="211.12" y="-199" font-family="Helvetica,sans-Serif" font-size="10.00">Pipeline::BindTranslation</text>
</a>
</g>
</g>
<!-- Node1&#45;&gt;Node5 -->
<g id="edge4" class="edge">
<title>Node1&#45;&gt;Node5</title>
<path fill="none" stroke="midnightblue" d="M91.57,-167.49C113.46,-173.95 142.21,-182.44 165.91,-189.44"/>
<polygon fill="midnightblue" stroke="midnightblue" points="164.82,-193.07 175.4,-192.54 166.8,-186.35 164.82,-193.07"/>
</g>
<!-- Node6 -->
<g id="node6" class="node">
<title>Node6</title>
<g id="a_node6"><a xlink:href="class_matrix3.html#a3672400f647456083337d53db6478505" target="_top" xlink:title=" ">
<polygon fill="none" stroke="black" points="151.75,-141.5 151.75,-173.5 270.5,-173.5 270.5,-141.5 151.75,-141.5"/>
<text text-anchor="start" x="159.75" y="-160" font-family="Helvetica,sans-Serif" font-size="10.00">Matrix3&lt; float &gt;::Create</text>
<text text-anchor="middle" x="211.12" y="-148" font-family="Helvetica,sans-Serif" font-size="10.00">XRotationMatrix</text>
</a>
</g>
</g>
<!-- Node1&#45;&gt;Node6 -->
<g id="edge5" class="edge">
<title>Node1&#45;&gt;Node6</title>
<path fill="none" stroke="midnightblue" d="M113.19,-157.5C122.24,-157.5 131.72,-157.5 141.05,-157.5"/>
<polygon fill="midnightblue" stroke="midnightblue" points="140.9,-161 150.9,-157.5 140.9,-154 140.9,-161"/>
</g>
<!-- Node7 -->
<g id="node7" class="node">
<title>Node7</title>
<g id="a_node7"><a xlink:href="class_matrix3.html#ae2e635e8fc49db308a95dde2a5518bbc" target="_top" xlink:title=" ">
<polygon fill="none" stroke="black" points="151.75,-90.5 151.75,-122.5 270.5,-122.5 270.5,-90.5 151.75,-90.5"/>
<text text-anchor="start" x="159.75" y="-109" font-family="Helvetica,sans-Serif" font-size="10.00">Matrix3&lt; float &gt;::Create</text>
<text text-anchor="middle" x="211.12" y="-97" font-family="Helvetica,sans-Serif" font-size="10.00">YRotationMatrix</text>
</a>
</g>
</g>
<!-- Node1&#45;&gt;Node7 -->
<g id="edge6" class="edge">
<title>Node1&#45;&gt;Node7</title>
<path fill="none" stroke="midnightblue" d="M87.49,-147.55C105.88,-141.39 130.12,-133.28 152.18,-125.89"/>
<polygon fill="midnightblue" stroke="midnightblue" points="153.1,-128.94 161.47,-122.45 150.88,-122.31 153.1,-128.94"/>
</g>
<!-- Node8 -->
<g id="node8" class="node">
<title>Node8</title>
<g id="a_node8"><a xlink:href="class_matrix3.html#a7b88435a5d6c183b5b46efa2b6dbcb3a" target="_top" xlink:title=" ">
<polygon fill="none" stroke="black" points="151.75,-39.5 151.75,-71.5 270.5,-71.5 270.5,-39.5 151.75,-39.5"/>
<text text-anchor="start" x="159.75" y="-58" font-family="Helvetica,sans-Serif" font-size="10.00">Matrix3&lt; float &gt;::Create</text>
<text text-anchor="middle" x="211.12" y="-46" font-family="Helvetica,sans-Serif" font-size="10.00">ZRotationMatrix</text>
</a>
</g>
</g>
<!-- Node1&#45;&gt;Node8 -->
<g id="edge7" class="edge">
<title>Node1&#45;&gt;Node8</title>
<path fill="none" stroke="midnightblue" d="M67.73,-147.56C83.83,-131.92 117.02,-101.34 149.5,-81.5 152.48,-79.68 155.61,-77.92 158.81,-76.24"/>
<polygon fill="midnightblue" stroke="midnightblue" points="160.14,-79 167.56,-71.43 157.05,-72.72 160.14,-79"/>
</g>
<!-- Node9 -->
<g id="node9" class="node">
<title>Node9</title>
<g id="a_node9"><a xlink:href="class_pipeline.html#a76274774f61e4b5a1c708decf65712b9" target="_top" xlink:title=" ">
<polygon fill="none" stroke="black" points="172,-0.5 172,-20.5 250.25,-20.5 250.25,-0.5 172,-0.5"/>
<text text-anchor="middle" x="211.12" y="-7" font-family="Helvetica,sans-Serif" font-size="10.00">Pipeline::Draw</text>
</a>
</g>
</g>
<!-- Node1&#45;&gt;Node9 -->
<g id="edge8" class="edge">
<title>Node1&#45;&gt;Node9</title>
<path fill="none" stroke="midnightblue" d="M62.19,-147.62C73.36,-123.86 104.95,-63.12 149.5,-30.5 153.38,-27.66 157.68,-25.21 162.15,-23.1"/>
<polygon fill="midnightblue" stroke="midnightblue" points="163.21,-26.04 171.12,-18.99 160.54,-19.57 163.21,-26.04"/>
</g>
<!-- Node3 -->
<g id="node3" class="node">
<title>Node3</title>
<g id="a_node3"><a xlink:href="class_z_buffer.html#af1a6407078bb83629e3b4dec9f0554cf" target="_top" xlink:title=" ">
<polygon fill="none" stroke="black" points="308.75,-270.5 308.75,-290.5 383.25,-290.5 383.25,-270.5 308.75,-270.5"/>
<text text-anchor="middle" x="346" y="-277" font-family="Helvetica,sans-Serif" font-size="10.00">ZBuffer::Clear</text>
</a>
</g>
</g>
<!-- Node2&#45;&gt;Node3 -->
<g id="edge2" class="edge">
<title>Node2&#45;&gt;Node3</title>
<path fill="none" stroke="midnightblue" d="M265.4,-280.5C276.23,-280.5 287.54,-280.5 298.12,-280.5"/>
<polygon fill="midnightblue" stroke="midnightblue" points="297.84,-284 307.84,-280.5 297.84,-277 297.84,-284"/>
</g>
</g>
</svg>
