<?xml version="1.0" encoding="UTF-8" standalone="no"?>
<!DOCTYPE svg PUBLIC "-//W3C//DTD SVG 1.1//EN"
 "http://www.w3.org/Graphics/SVG/1.1/DTD/svg11.dtd">
<!-- Generated by graphviz version 8.1.0 (20230707.0739)
 -->
<!-- Title: ConcaveHexahedron::GetTriangles Pages: 1 -->
<svg width="281pt" height="68pt"
 viewBox="0.00 0.00 280.75 68.00" xmlns="http://www.w3.org/2000/svg" xmlns:xlink="http://www.w3.org/1999/xlink">
<g id="graph0" class="graph" transform="scale(1 1) rotate(0) translate(4 64)">
<title>ConcaveHexahedron::GetTriangles</title>
<!-- Node1 -->
<g id="node1" class="node">
<title>Node1</title>
<g id="a_node1"><a xlink:title=" ">
<polygon fill="#bfbfbf" stroke="black" points="162.25,-13.5 162.25,-45.5 272.75,-45.5 272.75,-13.5 162.25,-13.5"/>
<text text-anchor="start" x="170.25" y="-32" font-family="Helvetica,sans-Serif" font-size="10.00">ConcaveHexahedron::</text>
<text text-anchor="middle" x="217.5" y="-20" font-family="Helvetica,sans-Serif" font-size="10.00">GetTriangles</text>
</a>
</g>
</g>
<!-- Node2 -->
<g id="node2" class="node">
<title>Node2</title>
<g id="a_node2"><a xlink:href="class_con_hex_scene.html#aa11b7b20c0116a2ce045f9bf299ab9df" target="_top" xlink:title=" ">
<polygon fill="none" stroke="black" points="10.12,-39.5 10.12,-59.5 116.12,-59.5 116.12,-39.5 10.12,-39.5"/>
<text text-anchor="middle" x="63.12" y="-46" font-family="Helvetica,sans-Serif" font-size="10.00">ConHexScene::Draw</text>
</a>
</g>
</g>
<!-- Node1&#45;&gt;Node2 -->
<g id="edge1" class="edge">
<title>Node1&#45;&gt;Node2</title>
<path fill="none" stroke="midnightblue" d="M151.59,-38.02C139.72,-39.58 127.48,-41.18 116.06,-42.68"/>
<polygon fill="midnightblue" stroke="midnightblue" points="151.89,-41.38 161.35,-36.61 150.98,-34.44 151.89,-41.38"/>
</g>
<!-- Node3 -->
<g id="node3" class="node">
<title>Node3</title>
<g id="a_node3"><a xlink:href="class_con_hex_wire_scene.html#ae76a65199cc4ef0b23a53e896ecafff9" target="_top" xlink:title=" ">
<polygon fill="none" stroke="black" points="0,-0.5 0,-20.5 126.25,-20.5 126.25,-0.5 0,-0.5"/>
<text text-anchor="middle" x="63.12" y="-7" font-family="Helvetica,sans-Serif" font-size="10.00">ConHexWireScene::Draw</text>
</a>
</g>
</g>
<!-- Node1&#45;&gt;Node3 -->
<g id="edge2" class="edge">
<title>Node1&#45;&gt;Node3</title>
<path fill="none" stroke="midnightblue" d="M151.46,-21.39C143.07,-20.34 134.5,-19.27 126.15,-18.23"/>
<polygon fill="midnightblue" stroke="midnightblue" points="150.99,-24.98 161.35,-22.75 151.86,-18.04 150.99,-24.98"/>
</g>
</g>
</svg>
