<?xml version="1.0" encoding="UTF-8" standalone="no"?>
<!DOCTYPE svg PUBLIC "-//W3C//DTD SVG 1.1//EN"
 "http://www.w3.org/Graphics/SVG/1.1/DTD/svg11.dtd">
<!-- Generated by graphviz version 2.43.0 (0)
 -->
<!-- Title: Vector3::GetHadamard Pages: 1 -->
<svg width="332pt" height="88pt"
 viewBox="0.00 0.00 332.00 88.00" xmlns="http://www.w3.org/2000/svg" xmlns:xlink="http://www.w3.org/1999/xlink">
<g id="graph0" class="graph" transform="scale(1 1) rotate(0) translate(4 84)">
<title>Vector3::GetHadamard</title>
<!-- Node1 -->
<g id="node1" class="node">
<title>Node1</title>
<g id="a_node1"><a xlink:title=" ">
<polygon fill="#bfbfbf" stroke="black" points="196,-30 196,-49 324,-49 324,-30 196,-30"/>
<text text-anchor="middle" x="260" y="-37" font-family="Helvetica,sans-Serif" font-size="10.00">Vector3::GetHadamard</text>
</a>
</g>
</g>
<!-- Node2 -->
<g id="node2" class="node">
<title>Node2</title>
<g id="a_node2"><a xlink:href="classVertexFlatEffect_1_1VertexShader.html#a5730ea8d60ef2a0d7a80ccfdd6996918" target="_top" xlink:title=" ">
<polygon fill="none" stroke="black" points="14,-49.5 14,-79.5 146,-79.5 146,-49.5 14,-49.5"/>
<text text-anchor="start" x="22" y="-67.5" font-family="Helvetica,sans-Serif" font-size="10.00">VertexFlatEffect::Vertex</text>
<text text-anchor="middle" x="80" y="-56.5" font-family="Helvetica,sans-Serif" font-size="10.00">Shader::operator()</text>
</a>
</g>
</g>
<!-- Node1&#45;&gt;Node2 -->
<g id="edge1" class="edge">
<title>Node1&#45;&gt;Node2</title>
<path fill="none" stroke="midnightblue" d="M185.98,-49.75C172.75,-51.61 159.02,-53.54 146.03,-55.37"/>
<polygon fill="midnightblue" stroke="midnightblue" points="186.58,-53.21 195.99,-48.35 185.6,-46.27 186.58,-53.21"/>
</g>
<!-- Node3 -->
<g id="node3" class="node">
<title>Node3</title>
<g id="a_node3"><a xlink:href="classGeometryFlatEffect_1_1GeometryShader.html#a84bd7b52ddfb6c22dfe57eaacdf7a50f" target="_top" xlink:title=" ">
<polygon fill="none" stroke="black" points="0,-0.5 0,-30.5 160,-30.5 160,-0.5 0,-0.5"/>
<text text-anchor="start" x="8" y="-18.5" font-family="Helvetica,sans-Serif" font-size="10.00">GeometryFlatEffect</text>
<text text-anchor="middle" x="80" y="-7.5" font-family="Helvetica,sans-Serif" font-size="10.00">::GeometryShader::operator()</text>
</a>
</g>
</g>
<!-- Node1&#45;&gt;Node3 -->
<g id="edge2" class="edge">
<title>Node1&#45;&gt;Node3</title>
<path fill="none" stroke="midnightblue" d="M186.07,-29.67C177.52,-28.51 168.77,-27.33 160.14,-26.17"/>
<polygon fill="midnightblue" stroke="midnightblue" points="185.62,-33.14 195.99,-31 186.55,-26.2 185.62,-33.14"/>
</g>
</g>
</svg>
