<?xml version="1.0" encoding="UTF-8" standalone="no"?>
<!DOCTYPE svg PUBLIC "-//W3C//DTD SVG 1.1//EN"
 "http://www.w3.org/Graphics/SVG/1.1/DTD/svg11.dtd">
<!-- Generated by graphviz version 8.1.0 (20230707.0739)
 -->
<!-- Title: SolidGeometryEffect Pages: 1 -->
<svg width="236pt" height="110pt"
 viewBox="0.00 0.00 236.25 110.00" xmlns="http://www.w3.org/2000/svg" xmlns:xlink="http://www.w3.org/1999/xlink">
<g id="graph0" class="graph" transform="scale(1 1) rotate(0) translate(4 106)">
<title>SolidGeometryEffect</title>
<!-- Node1 -->
<g id="node1" class="node">
<title>Node1</title>
<g id="a_node1"><a xlink:title=" ">
<polygon fill="#bfbfbf" stroke="black" points="61,-0.5 61,-20.5 166.25,-20.5 166.25,-0.5 61,-0.5"/>
<text text-anchor="middle" x="113.62" y="-7" font-family="Helvetica,sans-Serif" font-size="10.00">SolidGeometryEffect</text>
</a>
</g>
</g>
<!-- Node2 -->
<g id="node2" class="node">
<title>Node2</title>
<g id="a_node2"><a xlink:href="class_solid_geometry_effect_1_1_pixel_shader.html" target="_top" xlink:title=" ">
<polygon fill="none" stroke="black" points="0,-69.5 0,-101.5 105.25,-101.5 105.25,-69.5 0,-69.5"/>
<text text-anchor="start" x="8" y="-88" font-family="Helvetica,sans-Serif" font-size="10.00">SolidGeometryEffect</text>
<text text-anchor="middle" x="52.62" y="-76" font-family="Helvetica,sans-Serif" font-size="10.00">::PixelShader</text>
</a>
</g>
</g>
<!-- Node2&#45;&gt;Node1 -->
<g id="edge1" class="edge">
<title>Node2&#45;&gt;Node1</title>
<path fill="none" stroke="#9a32cd" stroke-dasharray="5,2" d="M71.84,-61.5C83.54,-47.51 97.8,-30.43 106.28,-20.29"/>
<polygon fill="#9a32cd" stroke="#9a32cd" points="68.7,-58.81 64.97,-68.73 74.07,-63.3 68.7,-58.81"/>
<text text-anchor="middle" x="97.38" y="-41.5" font-family="Helvetica,sans-Serif" font-size="10.00"> ps</text>
</g>
<!-- Node3 -->
<g id="node3" class="node">
<title>Node3</title>
<g id="a_node3"><a xlink:href="class_solid_geometry_effect_1_1_geometry_shader.html" target="_top" xlink:title=" ">
<polygon fill="none" stroke="black" points="123,-69.5 123,-101.5 228.25,-101.5 228.25,-69.5 123,-69.5"/>
<text text-anchor="start" x="131" y="-88" font-family="Helvetica,sans-Serif" font-size="10.00">SolidGeometryEffect</text>
<text text-anchor="middle" x="175.62" y="-76" font-family="Helvetica,sans-Serif" font-size="10.00">::GeometryShader</text>
</a>
</g>
</g>
<!-- Node3&#45;&gt;Node1 -->
<g id="edge2" class="edge">
<title>Node3&#45;&gt;Node1</title>
<path fill="none" stroke="#9a32cd" stroke-dasharray="5,2" d="M156.09,-61.5C144.21,-47.51 129.71,-30.43 121.09,-20.29"/>
<polygon fill="#9a32cd" stroke="#9a32cd" points="153.94,-63.37 163.08,-68.73 159.27,-58.84 153.94,-63.37"/>
<text text-anchor="middle" x="152.38" y="-41.5" font-family="Helvetica,sans-Serif" font-size="10.00"> gs</text>
</g>
</g>
</svg>
