<?xml version="1.0" encoding="UTF-8" standalone="no"?>
<!DOCTYPE svg PUBLIC "-//W3C//DTD SVG 1.1//EN"
 "http://www.w3.org/Graphics/SVG/1.1/DTD/svg11.dtd">
<!-- Generated by graphviz version 8.1.0 (20230707.0739)
 -->
<!-- Title: Keyboard::KeyIsPressed Pages: 1 -->
<svg width="383pt" height="431pt"
 viewBox="0.00 0.00 383.00 431.00" xmlns="http://www.w3.org/2000/svg" xmlns:xlink="http://www.w3.org/1999/xlink">
<g id="graph0" class="graph" transform="scale(1 1) rotate(0) translate(4 427)">
<title>Keyboard::KeyIsPressed</title>
<!-- Node1 -->
<g id="node1" class="node">
<title>Node1</title>
<g id="a_node1"><a xlink:title=" ">
<polygon fill="#bfbfbf" stroke="black" points="251,-201.5 251,-221.5 375,-221.5 375,-201.5 251,-201.5"/>
<text text-anchor="middle" x="313" y="-208" font-family="Helvetica,sans-Serif" font-size="10.00">Keyboard::KeyIsPressed</text>
</a>
</g>
</g>
<!-- Node2 -->
<g id="node2" class="node">
<title>Node2</title>
<g id="a_node2"><a xlink:href="class_con_hex_scene.html#af420f2632ea258eca9accd19cb26b286" target="_top" xlink:title=" ">
<polygon fill="none" stroke="black" points="86.5,-402.5 86.5,-422.5 201.5,-422.5 201.5,-402.5 86.5,-402.5"/>
<text text-anchor="middle" x="144" y="-409" font-family="Helvetica,sans-Serif" font-size="10.00">ConHexScene::Update</text>
</a>
</g>
</g>
<!-- Node1&#45;&gt;Node2 -->
<g id="edge1" class="edge">
<title>Node1&#45;&gt;Node2</title>
<path fill="none" stroke="midnightblue" d="M306.95,-231.78C296.5,-269.53 268.81,-350.6 215,-393.5 210.37,-397.19 205.08,-400.16 199.53,-402.56"/>
<polygon fill="midnightblue" stroke="midnightblue" points="310.59,-232.72 309.76,-222.16 303.82,-230.93 310.59,-232.72"/>
</g>
<!-- Node3 -->
<g id="node3" class="node">
<title>Node3</title>
<g id="a_node3"><a xlink:href="class_con_hex_wire_scene.html#ac4c9a3c1352b4def3ca8db94012dfeb2" target="_top" xlink:title=" ">
<polygon fill="none" stroke="black" points="76.38,-363.5 76.38,-383.5 211.62,-383.5 211.62,-363.5 76.38,-363.5"/>
<text text-anchor="middle" x="144" y="-370" font-family="Helvetica,sans-Serif" font-size="10.00">ConHexWireScene::Update</text>
</a>
</g>
</g>
<!-- Node1&#45;&gt;Node3 -->
<g id="edge2" class="edge">
<title>Node1&#45;&gt;Node3</title>
<path fill="none" stroke="midnightblue" d="M304.04,-231.28C290.5,-262.35 260.02,-322.37 215,-354.5 209.77,-358.23 203.85,-361.23 197.72,-363.64"/>
<polygon fill="midnightblue" stroke="midnightblue" points="307.61,-232.82 308.25,-222.25 301.15,-230.11 307.61,-232.82"/>
</g>
<!-- Node4 -->
<g id="node4" class="node">
<title>Node4</title>
<g id="a_node4"><a xlink:href="class_cube_order_scene.html#a3a9793800646dfb310c2249e3b0d25e8" target="_top" xlink:title=" ">
<polygon fill="none" stroke="black" points="80.5,-324.5 80.5,-344.5 207.5,-344.5 207.5,-324.5 80.5,-324.5"/>
<text text-anchor="middle" x="144" y="-331" font-family="Helvetica,sans-Serif" font-size="10.00">CubeOrderScene::Update</text>
</a>
</g>
</g>
<!-- Node1&#45;&gt;Node4 -->
<g id="edge3" class="edge">
<title>Node1&#45;&gt;Node4</title>
<path fill="none" stroke="midnightblue" d="M299.63,-230.15C283.11,-253.59 251.63,-293.41 215,-315.5 208.85,-319.21 201.97,-322.2 194.99,-324.63"/>
<polygon fill="midnightblue" stroke="midnightblue" points="302.99,-232.43 305.77,-222.21 297.22,-228.47 302.99,-232.43"/>
</g>
<!-- Node5 -->
<g id="node5" class="node">
<title>Node5</title>
<g id="a_node5"><a xlink:href="class_cube_skinned_scene.html#a7fd5f455db4d2d817ef04f393f1ea42b" target="_top" xlink:title=" ">
<polygon fill="none" stroke="black" points="74.88,-285.5 74.88,-305.5 213.12,-305.5 213.12,-285.5 74.88,-285.5"/>
<text text-anchor="middle" x="144" y="-292" font-family="Helvetica,sans-Serif" font-size="10.00">CubeSkinnedScene::Update</text>
</a>
</g>
</g>
<!-- Node1&#45;&gt;Node5 -->
<g id="edge4" class="edge">
<title>Node1&#45;&gt;Node5</title>
<path fill="none" stroke="midnightblue" d="M291.6,-228.07C272.73,-242.66 243.4,-263.55 215,-276.5 207.21,-280.05 198.62,-283.06 190.2,-285.56"/>
<polygon fill="midnightblue" stroke="midnightblue" points="293.52,-230.22 299.21,-221.28 289.19,-224.73 293.52,-230.22"/>
</g>
<!-- Node6 -->
<g id="node6" class="node">
<title>Node6</title>
<g id="a_node6"><a xlink:href="class_folded_cube_scene.html#aee9ed7ce452be6a8a013f85127c0f1cd" target="_top" xlink:title=" ">
<polygon fill="none" stroke="black" points="77.88,-246.5 77.88,-266.5 210.12,-266.5 210.12,-246.5 77.88,-246.5"/>
<text text-anchor="middle" x="144" y="-253" font-family="Helvetica,sans-Serif" font-size="10.00">FoldedCubeScene::Update</text>
</a>
</g>
</g>
<!-- Node1&#45;&gt;Node6 -->
<g id="edge5" class="edge">
<title>Node1&#45;&gt;Node6</title>
<path fill="none" stroke="midnightblue" d="M264.48,-224.3C238.29,-231.36 206.26,-239.99 181.96,-246.54"/>
<polygon fill="midnightblue" stroke="midnightblue" points="265.19,-227.47 273.94,-221.49 263.37,-220.71 265.19,-227.47"/>
</g>
<!-- Node7 -->
<g id="node7" class="node">
<title>Node7</title>
<g id="a_node7"><a xlink:href="class_folded_cube_wrap_scene.html#a25102a9c5af6066310e78aaac5c4f15c" target="_top" xlink:title=" ">
<polygon fill="none" stroke="black" points="84.62,-195.5 84.62,-227.5 203.38,-227.5 203.38,-195.5 84.62,-195.5"/>
<text text-anchor="start" x="92.62" y="-214" font-family="Helvetica,sans-Serif" font-size="10.00">FoldedCubeWrapScene</text>
<text text-anchor="middle" x="144" y="-202" font-family="Helvetica,sans-Serif" font-size="10.00">::Update</text>
</a>
</g>
</g>
<!-- Node1&#45;&gt;Node7 -->
<g id="edge6" class="edge">
<title>Node1&#45;&gt;Node7</title>
<path fill="none" stroke="midnightblue" d="M240.44,-211.5C228.01,-211.5 215.23,-211.5 203.21,-211.5"/>
<polygon fill="midnightblue" stroke="midnightblue" points="240.24,-215 250.24,-211.5 240.24,-208 240.24,-215"/>
</g>
<!-- Node8 -->
<g id="node8" class="node">
<title>Node8</title>
<g id="a_node8"><a xlink:href="class_solid_cube_scene.html#af2c5d8dc35630177d863663b972bb1cd" target="_top" xlink:title=" ">
<polygon fill="none" stroke="black" points="81.62,-156.5 81.62,-176.5 206.38,-176.5 206.38,-156.5 81.62,-156.5"/>
<text text-anchor="middle" x="144" y="-163" font-family="Helvetica,sans-Serif" font-size="10.00">SolidCubeScene::Update</text>
</a>
</g>
</g>
<!-- Node1&#45;&gt;Node8 -->
<g id="edge7" class="edge">
<title>Node1&#45;&gt;Node8</title>
<path fill="none" stroke="midnightblue" d="M264.48,-198.7C238.29,-191.64 206.26,-183.01 181.96,-176.46"/>
<polygon fill="midnightblue" stroke="midnightblue" points="263.37,-202.29 273.94,-201.51 265.19,-195.53 263.37,-202.29"/>
</g>
<!-- Node9 -->
<g id="node9" class="node">
<title>Node9</title>
<g id="a_node9"><a xlink:href="class_tex_cube_scene.html#a6a27aafa838f3e3ede4f80cd246551b0" target="_top" xlink:title=" ">
<polygon fill="none" stroke="black" points="84.62,-117.5 84.62,-137.5 203.38,-137.5 203.38,-117.5 84.62,-117.5"/>
<text text-anchor="middle" x="144" y="-124" font-family="Helvetica,sans-Serif" font-size="10.00">TexCubeScene::Update</text>
</a>
</g>
</g>
<!-- Node1&#45;&gt;Node9 -->
<g id="edge8" class="edge">
<title>Node1&#45;&gt;Node9</title>
<path fill="none" stroke="midnightblue" d="M291.2,-195.05C272.27,-180.77 243.07,-160.4 215,-147.5 206.39,-143.54 196.81,-140.19 187.58,-137.42"/>
<polygon fill="midnightblue" stroke="midnightblue" points="288.8,-198.39 298.86,-201.71 293.06,-192.84 288.8,-198.39"/>
</g>
<!-- Node10 -->
<g id="node10" class="node">
<title>Node10</title>
<g id="a_node10"><a xlink:href="class_tex_wrap_cube_scene.html#aafcaf650b4d40ebbf3c8da6233825ac1" target="_top" xlink:title=" ">
<polygon fill="none" stroke="black" points="73,-78.5 73,-98.5 215,-98.5 215,-78.5 73,-78.5"/>
<text text-anchor="middle" x="144" y="-85" font-family="Helvetica,sans-Serif" font-size="10.00">TexWrapCubeScene::Update</text>
</a>
</g>
</g>
<!-- Node1&#45;&gt;Node10 -->
<g id="edge9" class="edge">
<title>Node1&#45;&gt;Node10</title>
<path fill="none" stroke="midnightblue" d="M299.29,-192.76C282.61,-169.58 251.17,-130.52 215,-108.5 208.2,-104.36 200.51,-101.05 192.77,-98.4"/>
<polygon fill="midnightblue" stroke="midnightblue" points="296.9,-194.44 305.5,-200.62 302.63,-190.42 296.9,-194.44"/>
</g>
<!-- Node11 -->
<g id="node11" class="node">
<title>Node11</title>
<g id="a_node11"><a xlink:href="class_x_mutual_scene.html#a86c7ec15e3cd229fc71c33d2717ad421" target="_top" xlink:title=" ">
<polygon fill="none" stroke="black" points="86.5,-39.5 86.5,-59.5 201.5,-59.5 201.5,-39.5 86.5,-39.5"/>
<text text-anchor="middle" x="144" y="-46" font-family="Helvetica,sans-Serif" font-size="10.00">XMutualScene::Update</text>
</a>
</g>
</g>
<!-- Node1&#45;&gt;Node11 -->
<g id="edge10" class="edge">
<title>Node1&#45;&gt;Node11</title>
<path fill="none" stroke="midnightblue" d="M303.95,-191.93C290.29,-161.17 259.64,-101.7 215,-69.5 209.26,-65.36 202.68,-62.07 195.91,-59.47"/>
<polygon fill="midnightblue" stroke="midnightblue" points="301.05,-193.05 308.21,-200.86 307.48,-190.29 301.05,-193.05"/>
</g>
<!-- Node12 -->
<g id="node12" class="node">
<title>Node12</title>
<g id="a_node12"><a xlink:href="class_engine.html#a56cc30926ee112fbf83bfa4083d3af79" target="_top" xlink:title=" ">
<polygon fill="none" stroke="black" points="89.5,-0.5 89.5,-20.5 198.5,-20.5 198.5,-0.5 89.5,-0.5"/>
<text text-anchor="middle" x="144" y="-7" font-family="Helvetica,sans-Serif" font-size="10.00">Engine::UpdateModel</text>
</a>
</g>
</g>
<!-- Node1&#45;&gt;Node12 -->
<g id="edge11" class="edge">
<title>Node1&#45;&gt;Node12</title>
<path fill="none" stroke="midnightblue" d="M306.86,-191.35C296.24,-153.9 268.32,-73.49 215,-30.5 209.79,-26.3 203.73,-22.97 197.4,-20.35"/>
<polygon fill="midnightblue" stroke="midnightblue" points="303.61,-191.76 309.6,-200.5 310.37,-189.93 303.61,-191.76"/>
</g>
<!-- Node13 -->
<g id="node13" class="node">
<title>Node13</title>
<g id="a_node13"><a xlink:href="_main_8cpp.html#a0ddf1224851353fc92bfbff6f499fa97" target="_top" xlink:title=" ">
<polygon fill="none" stroke="black" points="0,-0.5 0,-20.5 37,-20.5 37,-0.5 0,-0.5"/>
<text text-anchor="middle" x="18.5" y="-7" font-family="Helvetica,sans-Serif" font-size="10.00">main</text>
</a>
</g>
</g>
<!-- Node12&#45;&gt;Node13 -->
<g id="edge12" class="edge">
<title>Node12&#45;&gt;Node13</title>
<path fill="none" stroke="midnightblue" d="M78.85,-10.5C63.38,-10.5 48.1,-10.5 36.93,-10.5"/>
<polygon fill="midnightblue" stroke="midnightblue" points="78.55,-14 88.55,-10.5 78.55,-7 78.55,-14"/>
</g>
</g>
</svg>
