<?xml version="1.0" encoding="UTF-8" standalone="no"?>
<!DOCTYPE svg PUBLIC "-//W3C//DTD SVG 1.1//EN"
 "http://www.w3.org/Graphics/SVG/1.1/DTD/svg11.dtd">
<!-- Generated by graphviz version 8.1.0 (20230707.0739)
 -->
<!-- Title: CubeSkinScene::Draw Pages: 1 -->
<svg width="387pt" height="221pt"
 viewBox="0.00 0.00 386.75 221.00" xmlns="http://www.w3.org/2000/svg" xmlns:xlink="http://www.w3.org/1999/xlink">
<g id="graph0" class="graph" transform="scale(1 1) rotate(0) translate(4 217)">
<title>CubeSkinScene::Draw</title>
<!-- Node1 -->
<g id="node1" class="node">
<title>Node1</title>
<g id="a_node1"><a xlink:title=" ">
<polygon fill="#bfbfbf" stroke="black" points="0,-96.5 0,-116.5 113.5,-116.5 113.5,-96.5 0,-96.5"/>
<text text-anchor="middle" x="56.75" y="-103" font-family="Helvetica,sans-Serif" font-size="10.00">CubeSkinScene::Draw</text>
</a>
</g>
</g>
<!-- Node2 -->
<g id="node2" class="node">
<title>Node2</title>
<g id="a_node2"><a xlink:href="class_pipeline.html#adf2322f3b604145324fe70fd45266b46" target="_top" xlink:title=" ">
<polygon fill="none" stroke="black" points="154.38,-192.5 154.38,-212.5 263.38,-212.5 263.38,-192.5 154.38,-192.5"/>
<text text-anchor="middle" x="208.88" y="-199" font-family="Helvetica,sans-Serif" font-size="10.00">Pipeline::BeginFrame</text>
</a>
</g>
</g>
<!-- Node1&#45;&gt;Node2 -->
<g id="edge1" class="edge">
<title>Node1&#45;&gt;Node2</title>
<path fill="none" stroke="midnightblue" d="M66.99,-116.41C82.57,-132.59 115.68,-164.74 149.5,-183.5 152.92,-185.4 156.55,-187.14 160.27,-188.73"/>
<polygon fill="midnightblue" stroke="midnightblue" points="158.64,-192.24 169.23,-192.61 161.18,-185.72 158.64,-192.24"/>
</g>
<!-- Node4 -->
<g id="node4" class="node">
<title>Node4</title>
<g id="a_node4"><a xlink:href="class_matrix3.html#a3672400f647456083337d53db6478505" target="_top" xlink:title=" ">
<polygon fill="none" stroke="black" points="149.5,-141.5 149.5,-173.5 268.25,-173.5 268.25,-141.5 149.5,-141.5"/>
<text text-anchor="start" x="157.5" y="-160" font-family="Helvetica,sans-Serif" font-size="10.00">Matrix3&lt; float &gt;::Create</text>
<text text-anchor="middle" x="208.88" y="-148" font-family="Helvetica,sans-Serif" font-size="10.00">XRotationMatrix</text>
</a>
</g>
</g>
<!-- Node1&#45;&gt;Node4 -->
<g id="edge3" class="edge">
<title>Node1&#45;&gt;Node4</title>
<path fill="none" stroke="midnightblue" d="M87.05,-116.45C105.17,-122.61 129.05,-130.72 150.79,-138.11"/>
<polygon fill="midnightblue" stroke="midnightblue" points="149.33,-141.65 159.92,-141.55 151.58,-135.02 149.33,-141.65"/>
</g>
<!-- Node5 -->
<g id="node5" class="node">
<title>Node5</title>
<g id="a_node5"><a xlink:href="class_matrix3.html#ae2e635e8fc49db308a95dde2a5518bbc" target="_top" xlink:title=" ">
<polygon fill="none" stroke="black" points="149.5,-90.5 149.5,-122.5 268.25,-122.5 268.25,-90.5 149.5,-90.5"/>
<text text-anchor="start" x="157.5" y="-109" font-family="Helvetica,sans-Serif" font-size="10.00">Matrix3&lt; float &gt;::Create</text>
<text text-anchor="middle" x="208.88" y="-97" font-family="Helvetica,sans-Serif" font-size="10.00">YRotationMatrix</text>
</a>
</g>
</g>
<!-- Node1&#45;&gt;Node5 -->
<g id="edge4" class="edge">
<title>Node1&#45;&gt;Node5</title>
<path fill="none" stroke="midnightblue" d="M113.22,-106.5C121.56,-106.5 130.25,-106.5 138.83,-106.5"/>
<polygon fill="midnightblue" stroke="midnightblue" points="138.61,-110 148.61,-106.5 138.61,-103 138.61,-110"/>
</g>
<!-- Node6 -->
<g id="node6" class="node">
<title>Node6</title>
<g id="a_node6"><a xlink:href="class_matrix3.html#a7b88435a5d6c183b5b46efa2b6dbcb3a" target="_top" xlink:title=" ">
<polygon fill="none" stroke="black" points="149.5,-39.5 149.5,-71.5 268.25,-71.5 268.25,-39.5 149.5,-39.5"/>
<text text-anchor="start" x="157.5" y="-58" font-family="Helvetica,sans-Serif" font-size="10.00">Matrix3&lt; float &gt;::Create</text>
<text text-anchor="middle" x="208.88" y="-46" font-family="Helvetica,sans-Serif" font-size="10.00">ZRotationMatrix</text>
</a>
</g>
</g>
<!-- Node1&#45;&gt;Node6 -->
<g id="edge5" class="edge">
<title>Node1&#45;&gt;Node6</title>
<path fill="none" stroke="midnightblue" d="M87.05,-96.55C105.17,-90.39 129.05,-82.28 150.79,-74.89"/>
<polygon fill="midnightblue" stroke="midnightblue" points="151.58,-77.98 159.92,-71.45 149.33,-71.35 151.58,-77.98"/>
</g>
<!-- Node7 -->
<g id="node7" class="node">
<title>Node7</title>
<g id="a_node7"><a xlink:href="class_pipeline.html#a76274774f61e4b5a1c708decf65712b9" target="_top" xlink:title=" ">
<polygon fill="none" stroke="black" points="169.75,-0.5 169.75,-20.5 248,-20.5 248,-0.5 169.75,-0.5"/>
<text text-anchor="middle" x="208.88" y="-7" font-family="Helvetica,sans-Serif" font-size="10.00">Pipeline::Draw</text>
</a>
</g>
</g>
<!-- Node1&#45;&gt;Node7 -->
<g id="edge6" class="edge">
<title>Node1&#45;&gt;Node7</title>
<path fill="none" stroke="midnightblue" d="M67.31,-96.52C83.07,-80.57 116.12,-49.21 149.5,-30.5 153.44,-28.29 157.67,-26.27 161.98,-24.42"/>
<polygon fill="midnightblue" stroke="midnightblue" points="163.07,-27.37 171.11,-20.46 160.52,-20.85 163.07,-27.37"/>
</g>
<!-- Node3 -->
<g id="node3" class="node">
<title>Node3</title>
<g id="a_node3"><a xlink:href="class_z_buffer.html#af1a6407078bb83629e3b4dec9f0554cf" target="_top" xlink:title=" ">
<polygon fill="none" stroke="black" points="304.25,-192.5 304.25,-212.5 378.75,-212.5 378.75,-192.5 304.25,-192.5"/>
<text text-anchor="middle" x="341.5" y="-199" font-family="Helvetica,sans-Serif" font-size="10.00">ZBuffer::Clear</text>
</a>
</g>
</g>
<!-- Node2&#45;&gt;Node3 -->
<g id="edge2" class="edge">
<title>Node2&#45;&gt;Node3</title>
<path fill="none" stroke="midnightblue" d="M263.01,-202.5C273.17,-202.5 283.74,-202.5 293.68,-202.5"/>
<polygon fill="midnightblue" stroke="midnightblue" points="293.59,-206 303.59,-202.5 293.59,-199 293.59,-206"/>
</g>
</g>
</svg>
