<?xml version="1.0" encoding="UTF-8" standalone="no"?>
<!DOCTYPE svg PUBLIC "-//W3C//DTD SVG 1.1//EN"
 "http://www.w3.org/Graphics/SVG/1.1/DTD/svg11.dtd">
<!-- Generated by graphviz version 2.43.0 (0)
 -->
<!-- Title: Engine::ComposeFrame Pages: 1 -->
<svg width="432pt" height="104pt"
 viewBox="0.00 0.00 432.00 104.00" xmlns="http://www.w3.org/2000/svg" xmlns:xlink="http://www.w3.org/1999/xlink">
<g id="graph0" class="graph" transform="scale(1 1) rotate(0) translate(4 100)">
<title>Engine::ComposeFrame</title>
<!-- Node1 -->
<g id="node1" class="node">
<title>Node1</title>
<g id="a_node1"><a xlink:title=" ">
<polygon fill="#bfbfbf" stroke="black" points="0,-57.5 0,-76.5 132,-76.5 132,-57.5 0,-57.5"/>
<text text-anchor="middle" x="66" y="-64.5" font-family="Helvetica,sans-Serif" font-size="10.00">Engine::ComposeFrame</text>
</a>
</g>
</g>
<!-- Node2 -->
<g id="node2" class="node">
<title>Node2</title>
<g id="a_node2"><a xlink:href="classGraphics.html#ae9f5bcaa267fdff06bbfcf1e2ddf7137" target="_top" xlink:title=" ">
<polygon fill="none" stroke="black" points="168,-76.5 168,-95.5 292,-95.5 292,-76.5 168,-76.5"/>
<text text-anchor="middle" x="230" y="-83.5" font-family="Helvetica,sans-Serif" font-size="10.00">Graphics::BeginFrame</text>
</a>
</g>
</g>
<!-- Node1&#45;&gt;Node2 -->
<g id="edge1" class="edge">
<title>Node1&#45;&gt;Node2</title>
<path fill="none" stroke="midnightblue" d="M132.42,-74.67C140.73,-75.65 149.26,-76.65 157.65,-77.63"/>
<polygon fill="midnightblue" stroke="midnightblue" points="157.45,-81.13 167.79,-78.82 158.26,-74.18 157.45,-81.13"/>
</g>
<!-- Node4 -->
<g id="node4" class="node">
<title>Node4</title>
<g id="a_node4"><a xlink:href="classGraphics.html#a56203cba547bde8af2eadda01e0d17c3" target="_top" xlink:title=" ">
<polygon fill="none" stroke="black" points="173,-38.5 173,-57.5 287,-57.5 287,-38.5 173,-38.5"/>
<text text-anchor="middle" x="230" y="-45.5" font-family="Helvetica,sans-Serif" font-size="10.00">Graphics::EndFrame</text>
</a>
</g>
</g>
<!-- Node1&#45;&gt;Node4 -->
<g id="edge3" class="edge">
<title>Node1&#45;&gt;Node4</title>
<path fill="none" stroke="midnightblue" d="M132.42,-59.33C142.5,-58.14 152.91,-56.92 163,-55.74"/>
<polygon fill="midnightblue" stroke="midnightblue" points="163.43,-59.21 172.96,-54.57 162.62,-52.26 163.43,-59.21"/>
</g>
<!-- Node3 -->
<g id="node3" class="node">
<title>Node3</title>
<g id="a_node3"><a xlink:href="classSurface.html#a0e2dbd9d8b1bc46664e2d52e71d533e1" target="_top" xlink:title=" ">
<polygon fill="none" stroke="black" points="333.5,-76.5 333.5,-95.5 418.5,-95.5 418.5,-76.5 333.5,-76.5"/>
<text text-anchor="middle" x="376" y="-83.5" font-family="Helvetica,sans-Serif" font-size="10.00">Surface::Clear</text>
</a>
</g>
</g>
<!-- Node2&#45;&gt;Node3 -->
<g id="edge2" class="edge">
<title>Node2&#45;&gt;Node3</title>
<path fill="none" stroke="midnightblue" d="M292.07,-86C302.42,-86 313.09,-86 323.17,-86"/>
<polygon fill="midnightblue" stroke="midnightblue" points="323.44,-89.5 333.44,-86 323.44,-82.5 323.44,-89.5"/>
</g>
<!-- Node5 -->
<g id="node5" class="node">
<title>Node5</title>
<g id="a_node5"><a xlink:href="namespaceMath.html#a77174619219856c2fc6959ec7a269c60" target="_top" xlink:title=" ">
<polygon fill="none" stroke="black" points="342,-38.5 342,-57.5 410,-57.5 410,-38.5 342,-38.5"/>
<text text-anchor="middle" x="376" y="-45.5" font-family="Helvetica,sans-Serif" font-size="10.00">Math::Map</text>
</a>
</g>
</g>
<!-- Node4&#45;&gt;Node5 -->
<g id="edge4" class="edge">
<title>Node4&#45;&gt;Node5</title>
<path fill="none" stroke="midnightblue" d="M287.09,-48C301.81,-48 317.47,-48 331.43,-48"/>
<polygon fill="midnightblue" stroke="midnightblue" points="331.73,-51.5 341.73,-48 331.73,-44.5 331.73,-51.5"/>
</g>
<!-- Node6 -->
<g id="node6" class="node">
<title>Node6</title>
<g id="a_node6"><a xlink:href="classSurface.html#ac85ddc42d6bb5ab0aebeaf40c8b62b6a" target="_top" xlink:title=" ">
<polygon fill="none" stroke="black" points="328,-0.5 328,-19.5 424,-19.5 424,-0.5 328,-0.5"/>
<text text-anchor="middle" x="376" y="-7.5" font-family="Helvetica,sans-Serif" font-size="10.00">Surface::Present</text>
</a>
</g>
</g>
<!-- Node4&#45;&gt;Node6 -->
<g id="edge5" class="edge">
<title>Node4&#45;&gt;Node6</title>
<path fill="none" stroke="midnightblue" d="M267.34,-38.41C286.08,-33.46 309.14,-27.38 329.11,-22.11"/>
<polygon fill="midnightblue" stroke="midnightblue" points="330.15,-25.46 338.92,-19.52 328.36,-18.69 330.15,-25.46"/>
</g>
</g>
</svg>
