<?xml version="1.0" encoding="UTF-8" standalone="no"?>
<!DOCTYPE svg PUBLIC "-//W3C//DTD SVG 1.1//EN"
 "http://www.w3.org/Graphics/SVG/1.1/DTD/svg11.dtd">
<!-- Generated by graphviz version 8.1.0 (20230707.0739)
 -->
<!-- Title: Pipeline::BindRotation Pages: 1 -->
<svg width="273pt" height="119pt"
 viewBox="0.00 0.00 273.25 119.00" xmlns="http://www.w3.org/2000/svg" xmlns:xlink="http://www.w3.org/1999/xlink">
<g id="graph0" class="graph" transform="scale(1 1) rotate(0) translate(4 115)">
<title>Pipeline::BindRotation</title>
<!-- Node1 -->
<g id="node1" class="node">
<title>Node1</title>
<g id="a_node1"><a xlink:title=" ">
<polygon fill="#bfbfbf" stroke="black" points="153.25,-51.5 153.25,-71.5 265.25,-71.5 265.25,-51.5 153.25,-51.5"/>
<text text-anchor="middle" x="209.25" y="-58" font-family="Helvetica,sans-Serif" font-size="10.00">Pipeline::BindRotation</text>
</a>
</g>
</g>
<!-- Node2 -->
<g id="node2" class="node">
<title>Node2</title>
<g id="a_node2"><a xlink:href="class_cube_skin_scene.html#a48b277a1b41049e40ea70d90aa186627" target="_top" xlink:title=" ">
<polygon fill="none" stroke="black" points="1.88,-90.5 1.88,-110.5 115.38,-110.5 115.38,-90.5 1.88,-90.5"/>
<text text-anchor="middle" x="58.62" y="-97" font-family="Helvetica,sans-Serif" font-size="10.00">CubeSkinScene::Draw</text>
</a>
</g>
</g>
<!-- Node1&#45;&gt;Node2 -->
<g id="edge1" class="edge">
<title>Node1&#45;&gt;Node2</title>
<path fill="none" stroke="midnightblue" d="M159.82,-74.21C139.67,-79.5 116.61,-85.55 97.7,-90.51"/>
<polygon fill="midnightblue" stroke="midnightblue" points="160.58,-77.37 169.36,-71.44 158.8,-70.6 160.58,-77.37"/>
</g>
<!-- Node3 -->
<g id="node3" class="node">
<title>Node3</title>
<g id="a_node3"><a xlink:href="class_cube_solid_scene.html#a889dfe03da33047374c1eb2291d5596e" target="_top" xlink:title=" ">
<polygon fill="none" stroke="black" points="0.75,-51.5 0.75,-71.5 116.5,-71.5 116.5,-51.5 0.75,-51.5"/>
<text text-anchor="middle" x="58.62" y="-58" font-family="Helvetica,sans-Serif" font-size="10.00">CubeSolidScene::Draw</text>
</a>
</g>
</g>
<!-- Node1&#45;&gt;Node3 -->
<g id="edge2" class="edge">
<title>Node1&#45;&gt;Node3</title>
<path fill="none" stroke="midnightblue" d="M142.42,-61.5C133.71,-61.5 124.85,-61.5 116.31,-61.5"/>
<polygon fill="midnightblue" stroke="midnightblue" points="142.33,-65 152.33,-61.5 142.33,-58 142.33,-65"/>
</g>
<!-- Node4 -->
<g id="node4" class="node">
<title>Node4</title>
<g id="a_node4"><a xlink:href="class_cube_vertex_color_scene.html#ad2934096c9527e9dbb8cdcb9f8a45f80" target="_top" xlink:title=" ">
<polygon fill="none" stroke="black" points="0,-0.5 0,-32.5 117.25,-32.5 117.25,-0.5 0,-0.5"/>
<text text-anchor="start" x="8" y="-19" font-family="Helvetica,sans-Serif" font-size="10.00">CubeVertexColorScene</text>
<text text-anchor="middle" x="58.62" y="-7" font-family="Helvetica,sans-Serif" font-size="10.00">::Draw</text>
</a>
</g>
</g>
<!-- Node1&#45;&gt;Node4 -->
<g id="edge3" class="edge">
<title>Node1&#45;&gt;Node4</title>
<path fill="none" stroke="midnightblue" d="M164.87,-48.36C148.44,-43.39 129.56,-37.67 112.36,-32.47"/>
<polygon fill="midnightblue" stroke="midnightblue" points="163.68,-51.96 174.27,-51.51 165.71,-45.27 163.68,-51.96"/>
</g>
</g>
</svg>
