<?xml version="1.0" encoding="UTF-8" standalone="no"?>
<!DOCTYPE svg PUBLIC "-//W3C//DTD SVG 1.1//EN"
 "http://www.w3.org/Graphics/SVG/1.1/DTD/svg11.dtd">
<!-- Generated by graphviz version 8.1.0 (20230707.0739)
 -->
<!-- Title: Graphics::DrawTriangleTexWrap Pages: 1 -->
<svg width="333pt" height="80pt"
 viewBox="0.00 0.00 332.50 80.00" xmlns="http://www.w3.org/2000/svg" xmlns:xlink="http://www.w3.org/1999/xlink">
<g id="graph0" class="graph" transform="scale(1 1) rotate(0) translate(4 76)">
<title>Graphics::DrawTriangleTexWrap</title>
<!-- Node1 -->
<g id="node1" class="node">
<title>Node1</title>
<g id="a_node1"><a xlink:title=" ">
<polygon fill="#bfbfbf" stroke="black" points="169,-22.5 169,-42.5 324.5,-42.5 324.5,-22.5 169,-22.5"/>
<text text-anchor="middle" x="246.75" y="-29" font-family="Helvetica,sans-Serif" font-size="10.00">Graphics::DrawTriangleTexWrap</text>
</a>
</g>
</g>
<!-- Node2 -->
<g id="node2" class="node">
<title>Node2</title>
<g id="a_node2"><a xlink:href="class_folded_cube_wrap_scene.html#a7f32626310d5a8fbdfed708a5813b1e8" target="_top" xlink:title=" ">
<polygon fill="none" stroke="black" points="7.12,-39.5 7.12,-71.5 125.88,-71.5 125.88,-39.5 7.12,-39.5"/>
<text text-anchor="start" x="15.12" y="-58" font-family="Helvetica,sans-Serif" font-size="10.00">FoldedCubeWrapScene</text>
<text text-anchor="middle" x="66.5" y="-46" font-family="Helvetica,sans-Serif" font-size="10.00">::Draw</text>
</a>
</g>
</g>
<!-- Node1&#45;&gt;Node2 -->
<g id="edge1" class="edge">
<title>Node1&#45;&gt;Node2</title>
<path fill="none" stroke="midnightblue" d="M158.51,-43.76C147.4,-45.19 136.25,-46.63 125.76,-47.98"/>
<polygon fill="midnightblue" stroke="midnightblue" points="158.65,-47.14 168.12,-42.39 157.76,-40.2 158.65,-47.14"/>
</g>
<!-- Node3 -->
<g id="node3" class="node">
<title>Node3</title>
<g id="a_node3"><a xlink:href="class_tex_wrap_cube_scene.html#adc840c26ac8bb1d21a70252293ef164e" target="_top" xlink:title=" ">
<polygon fill="none" stroke="black" points="0,-0.5 0,-20.5 133,-20.5 133,-0.5 0,-0.5"/>
<text text-anchor="middle" x="66.5" y="-7" font-family="Helvetica,sans-Serif" font-size="10.00">TexWrapCubeScene::Draw</text>
</a>
</g>
</g>
<!-- Node1&#45;&gt;Node3 -->
<g id="edge2" class="edge">
<title>Node1&#45;&gt;Node3</title>
<path fill="none" stroke="midnightblue" d="M158.31,-21.71C149.74,-20.65 141.15,-19.59 132.86,-18.57"/>
<polygon fill="midnightblue" stroke="midnightblue" points="157.77,-25.29 168.12,-23.04 158.63,-18.34 157.77,-25.29"/>
</g>
</g>
</svg>
