<?xml version="1.0" encoding="UTF-8" standalone="no"?>
<!DOCTYPE svg PUBLIC "-//W3C//DTD SVG 1.1//EN"
 "http://www.w3.org/Graphics/SVG/1.1/DTD/svg11.dtd">
<!-- Generated by graphviz version 8.1.0 (20230707.0739)
 -->
<!-- Title: EngineException::GetLocation Pages: 1 -->
<svg width="313pt" height="92pt"
 viewBox="0.00 0.00 313.00 92.00" xmlns="http://www.w3.org/2000/svg" xmlns:xlink="http://www.w3.org/1999/xlink">
<g id="graph0" class="graph" transform="scale(1 1) rotate(0) translate(4 88)">
<title>EngineException::GetLocation</title>
<!-- Node1 -->
<g id="node1" class="node">
<title>Node1</title>
<g id="a_node1"><a xlink:title=" ">
<polygon fill="#bfbfbf" stroke="black" points="157,-31.5 157,-51.5 305,-51.5 305,-31.5 157,-31.5"/>
<text text-anchor="middle" x="231" y="-38" font-family="Helvetica,sans-Serif" font-size="10.00">EngineException::GetLocation</text>
</a>
</g>
</g>
<!-- Node2 -->
<g id="node2" class="node">
<title>Node2</title>
<g id="a_node2"><a xlink:href="class_main_window_1_1_exception.html#ad9a8d257f6b90c608794227275d215d6" target="_top" xlink:title=" ">
<polygon fill="none" stroke="black" points="0,-51.5 0,-83.5 121,-83.5 121,-51.5 0,-51.5"/>
<text text-anchor="start" x="8" y="-70" font-family="Helvetica,sans-Serif" font-size="10.00">MainWindow::Exception</text>
<text text-anchor="middle" x="60.5" y="-58" font-family="Helvetica,sans-Serif" font-size="10.00">::GetFullMessage</text>
</a>
</g>
</g>
<!-- Node1&#45;&gt;Node2 -->
<g id="edge1" class="edge">
<title>Node1&#45;&gt;Node2</title>
<path fill="none" stroke="midnightblue" d="M154.56,-53.14C143.23,-54.89 131.68,-56.67 120.74,-58.36"/>
<polygon fill="midnightblue" stroke="midnightblue" points="154.99,-56.46 164.34,-51.48 153.92,-49.54 154.99,-56.46"/>
</g>
<!-- Node3 -->
<g id="node3" class="node">
<title>Node3</title>
<g id="a_node3"><a xlink:href="class_surface_1_1_exception.html#a329c52bca9383bc73a4c42a299ede32d" target="_top" xlink:title=" ">
<polygon fill="none" stroke="black" points="11.25,-0.5 11.25,-32.5 109.75,-32.5 109.75,-0.5 11.25,-0.5"/>
<text text-anchor="start" x="19.25" y="-19" font-family="Helvetica,sans-Serif" font-size="10.00">Surface::Exception</text>
<text text-anchor="middle" x="60.5" y="-7" font-family="Helvetica,sans-Serif" font-size="10.00">::GetFullMessage</text>
</a>
</g>
</g>
<!-- Node1&#45;&gt;Node3 -->
<g id="edge2" class="edge">
<title>Node1&#45;&gt;Node3</title>
<path fill="none" stroke="midnightblue" d="M152.39,-29.99C137.83,-27.83 123.01,-25.63 109.67,-23.65"/>
<polygon fill="midnightblue" stroke="midnightblue" points="151.51,-33.54 161.92,-31.55 152.54,-26.62 151.51,-33.54"/>
</g>
</g>
</svg>
