<?xml version="1.0" encoding="UTF-8" standalone="no"?>
<!DOCTYPE svg PUBLIC "-//W3C//DTD SVG 1.1//EN"
 "http://www.w3.org/Graphics/SVG/1.1/DTD/svg11.dtd">
<!-- Generated by graphviz version 8.1.0 (20230707.0739)
 -->
<!-- Title: SolidGeometryEffect::Vertex::Vertex Pages: 1 -->
<svg width="255pt" height="194pt"
 viewBox="0.00 0.00 254.50 194.00" xmlns="http://www.w3.org/2000/svg" xmlns:xlink="http://www.w3.org/1999/xlink">
<g id="graph0" class="graph" transform="scale(1 1) rotate(0) translate(4 190)">
<title>SolidGeometryEffect::Vertex::Vertex</title>
<!-- Node1 -->
<g id="node1" class="node">
<title>Node1</title>
<g id="a_node1"><a xlink:title=" ">
<polygon fill="#bfbfbf" stroke="black" points="141.25,-76.5 141.25,-108.5 246.5,-108.5 246.5,-76.5 141.25,-76.5"/>
<text text-anchor="start" x="149.25" y="-95" font-family="Helvetica,sans-Serif" font-size="10.00">SolidGeometryEffect</text>
<text text-anchor="middle" x="193.88" y="-83" font-family="Helvetica,sans-Serif" font-size="10.00">::Vertex::Vertex</text>
</a>
</g>
</g>
<!-- Node2 -->
<g id="node2" class="node">
<title>Node2</title>
<g id="a_node2"><a xlink:href="class_solid_geometry_effect_1_1_vertex.html#ae1a3b7e2b9fc5f5b342b589e89c49fa6" target="_top" xlink:title=" ">
<polygon fill="none" stroke="black" points="0,-153.5 0,-185.5 105.25,-185.5 105.25,-153.5 0,-153.5"/>
<text text-anchor="start" x="8" y="-172" font-family="Helvetica,sans-Serif" font-size="10.00">SolidGeometryEffect</text>
<text text-anchor="middle" x="52.62" y="-160" font-family="Helvetica,sans-Serif" font-size="10.00">::Vertex::operator*</text>
</a>
</g>
</g>
<!-- Node1&#45;&gt;Node2 -->
<g id="edge1" class="edge">
<title>Node1&#45;&gt;Node2</title>
<path fill="none" stroke="midnightblue" d="M158.52,-113.8C142.51,-123.49 123.09,-134.91 105.25,-144.5 99.55,-147.57 93.41,-150.69 87.43,-153.64"/>
<polygon fill="midnightblue" stroke="midnightblue" points="159.79,-116.51 166.51,-108.32 156.15,-110.54 159.79,-116.51"/>
</g>
<!-- Node3 -->
<g id="node3" class="node">
<title>Node3</title>
<g id="a_node3"><a xlink:href="class_solid_geometry_effect_1_1_vertex.html#aad92f24753efe3c4174b0b1abd9481f6" target="_top" xlink:title=" ">
<polygon fill="none" stroke="black" points="0,-102.5 0,-134.5 105.25,-134.5 105.25,-102.5 0,-102.5"/>
<text text-anchor="start" x="8" y="-121" font-family="Helvetica,sans-Serif" font-size="10.00">SolidGeometryEffect</text>
<text text-anchor="middle" x="52.62" y="-109" font-family="Helvetica,sans-Serif" font-size="10.00">::Vertex::operator+</text>
</a>
</g>
</g>
<!-- Node1&#45;&gt;Node3 -->
<g id="edge2" class="edge">
<title>Node1&#45;&gt;Node3</title>
<path fill="none" stroke="midnightblue" d="M130.63,-104.12C122.02,-105.73 113.25,-107.37 104.87,-108.93"/>
<polygon fill="midnightblue" stroke="midnightblue" points="131.23,-107.38 140.42,-102.11 129.95,-100.5 131.23,-107.38"/>
</g>
<!-- Node4 -->
<g id="node4" class="node">
<title>Node4</title>
<g id="a_node4"><a xlink:href="class_solid_geometry_effect_1_1_vertex.html#a4e124aedea329399445f4b108cfc421f" target="_top" xlink:title=" ">
<polygon fill="none" stroke="black" points="0,-51.5 0,-83.5 105.25,-83.5 105.25,-51.5 0,-51.5"/>
<text text-anchor="start" x="8" y="-70" font-family="Helvetica,sans-Serif" font-size="10.00">SolidGeometryEffect</text>
<text text-anchor="middle" x="52.62" y="-58" font-family="Helvetica,sans-Serif" font-size="10.00">::Vertex::operator&#45;</text>
</a>
</g>
</g>
<!-- Node1&#45;&gt;Node4 -->
<g id="edge3" class="edge">
<title>Node1&#45;&gt;Node4</title>
<path fill="none" stroke="midnightblue" d="M130.63,-81.33C122.02,-79.78 113.25,-78.21 104.87,-76.7"/>
<polygon fill="midnightblue" stroke="midnightblue" points="129.96,-84.94 140.42,-83.26 131.19,-78.05 129.96,-84.94"/>
</g>
<!-- Node5 -->
<g id="node5" class="node">
<title>Node5</title>
<g id="a_node5"><a xlink:href="class_solid_geometry_effect_1_1_vertex.html#a0b49588b48ce72155eba767378e2b7b6" target="_top" xlink:title=" ">
<polygon fill="none" stroke="black" points="0,-0.5 0,-32.5 105.25,-32.5 105.25,-0.5 0,-0.5"/>
<text text-anchor="start" x="8" y="-19" font-family="Helvetica,sans-Serif" font-size="10.00">SolidGeometryEffect</text>
<text text-anchor="middle" x="52.62" y="-7" font-family="Helvetica,sans-Serif" font-size="10.00">::Vertex::operator/</text>
</a>
</g>
</g>
<!-- Node1&#45;&gt;Node5 -->
<g id="edge4" class="edge">
<title>Node1&#45;&gt;Node5</title>
<path fill="none" stroke="midnightblue" d="M156.51,-71.19C140.84,-62.15 122.25,-51.62 105.25,-42.5 99.06,-39.18 92.4,-35.73 85.98,-32.47"/>
<polygon fill="midnightblue" stroke="midnightblue" points="154.44,-74.61 164.84,-76.59 157.94,-68.55 154.44,-74.61"/>
</g>
</g>
</svg>
