<?xml version="1.0" encoding="UTF-8" standalone="no"?>
<!DOCTYPE svg PUBLIC "-//W3C//DTD SVG 1.1//EN"
 "http://www.w3.org/Graphics/SVG/1.1/DTD/svg11.dtd">
<!-- Generated by graphviz version 8.1.0 (20230707.0739)
 -->
<!-- Title: SolidEffect Pages: 1 -->
<svg width="276pt" height="110pt"
 viewBox="0.00 0.00 275.75 110.00" xmlns="http://www.w3.org/2000/svg" xmlns:xlink="http://www.w3.org/1999/xlink">
<g id="graph0" class="graph" transform="scale(1 1) rotate(0) translate(4 106)">
<title>SolidEffect</title>
<!-- Node1 -->
<g id="node1" class="node">
<title>Node1</title>
<g id="a_node1"><a xlink:title=" ">
<polygon fill="#bfbfbf" stroke="black" points="100.25,-0.5 100.25,-20.5 162.75,-20.5 162.75,-0.5 100.25,-0.5"/>
<text text-anchor="middle" x="131.5" y="-7" font-family="Helvetica,sans-Serif" font-size="10.00">SolidEffect</text>
</a>
</g>
</g>
<!-- Node2 -->
<g id="node2" class="node">
<title>Node2</title>
<g id="a_node2"><a xlink:href="class_solid_effect_1_1_pixel_shader.html" target="_top" xlink:title=" ">
<polygon fill="none" stroke="black" points="0,-75.5 0,-95.5 121,-95.5 121,-75.5 0,-75.5"/>
<text text-anchor="middle" x="60.5" y="-82" font-family="Helvetica,sans-Serif" font-size="10.00">SolidEffect::PixelShader</text>
</a>
</g>
</g>
<!-- Node2&#45;&gt;Node1 -->
<g id="edge1" class="edge">
<title>Node2&#45;&gt;Node1</title>
<path fill="none" stroke="#9a32cd" stroke-dasharray="5,2" d="M76.51,-68.04C90.99,-53.15 111.74,-31.82 123.16,-20.07"/>
<polygon fill="#9a32cd" stroke="#9a32cd" points="74.67,-64.94 70.21,-74.55 79.69,-69.82 74.67,-64.94"/>
<text text-anchor="middle" x="111.25" y="-41.5" font-family="Helvetica,sans-Serif" font-size="10.00"> ps</text>
</g>
<!-- Node3 -->
<g id="node3" class="node">
<title>Node3</title>
<g id="a_node3"><a xlink:href="class_default_geometry_shader.html" target="_top" xlink:title=" ">
<polygon fill="none" stroke="black" points="139.25,-69.5 139.25,-101.5 267.75,-101.5 267.75,-69.5 139.25,-69.5"/>
<text text-anchor="start" x="147.25" y="-88" font-family="Helvetica,sans-Serif" font-size="10.00">DefaultGeometryShader</text>
<text text-anchor="middle" x="203.5" y="-76" font-family="Helvetica,sans-Serif" font-size="10.00">&lt; VertexShader::Output &gt;</text>
</a>
</g>
</g>
<!-- Node3&#45;&gt;Node1 -->
<g id="edge2" class="edge">
<title>Node3&#45;&gt;Node1</title>
<path fill="none" stroke="#9a32cd" stroke-dasharray="5,2" d="M181.21,-61.9C167.33,-47.83 150.27,-30.53 140.17,-20.29"/>
<polygon fill="#9a32cd" stroke="#9a32cd" points="178.42,-64.07 187.93,-68.73 183.4,-59.15 178.42,-64.07"/>
<text text-anchor="middle" x="176.25" y="-41.5" font-family="Helvetica,sans-Serif" font-size="10.00"> gs</text>
</g>
</g>
</svg>
