<?xml version="1.0" encoding="UTF-8" standalone="no"?>
<!DOCTYPE svg PUBLIC "-//W3C//DTD SVG 1.1//EN"
 "http://www.w3.org/Graphics/SVG/1.1/DTD/svg11.dtd">
<!-- Generated by graphviz version 8.1.0 (20230707.0739)
 -->
<!-- Title: GeometryFlatScene::Update Pages: 1 -->
<svg width="277pt" height="68pt"
 viewBox="0.00 0.00 277.00 68.00" xmlns="http://www.w3.org/2000/svg" xmlns:xlink="http://www.w3.org/1999/xlink">
<g id="graph0" class="graph" transform="scale(1 1) rotate(0) translate(4 64)">
<title>GeometryFlatScene::Update</title>
<!-- Node1 -->
<g id="node1" class="node">
<title>Node1</title>
<g id="a_node1"><a xlink:title=" ">
<polygon fill="#bfbfbf" stroke="black" points="0,-13.5 0,-45.5 109,-45.5 109,-13.5 0,-13.5"/>
<text text-anchor="start" x="8" y="-32" font-family="Helvetica,sans-Serif" font-size="10.00">GeometryFlatScene::</text>
<text text-anchor="middle" x="54.5" y="-20" font-family="Helvetica,sans-Serif" font-size="10.00">Update</text>
</a>
</g>
</g>
<!-- Node2 -->
<g id="node2" class="node">
<title>Node2</title>
<g id="a_node2"><a xlink:href="class_keyboard.html#a7b11ba07982539a0dd9b16b4706e7211" target="_top" xlink:title=" ">
<polygon fill="none" stroke="black" points="145,-39.5 145,-59.5 269,-59.5 269,-39.5 145,-39.5"/>
<text text-anchor="middle" x="207" y="-46" font-family="Helvetica,sans-Serif" font-size="10.00">Keyboard::KeyIsPressed</text>
</a>
</g>
</g>
<!-- Node1&#45;&gt;Node2 -->
<g id="edge1" class="edge">
<title>Node1&#45;&gt;Node2</title>
<path fill="none" stroke="midnightblue" d="M108.98,-36.61C117.24,-37.7 125.88,-38.85 134.46,-39.99"/>
<polygon fill="midnightblue" stroke="midnightblue" points="133.88,-43.58 144.25,-41.43 134.8,-36.64 133.88,-43.58"/>
</g>
<!-- Node3 -->
<g id="node3" class="node">
<title>Node3</title>
<g id="a_node3"><a xlink:href="namespace_math.html#abb70099a95f7e3ae8eb62c3694775a6b" target="_top" xlink:title=" ">
<polygon fill="none" stroke="black" points="161.12,-0.5 161.12,-20.5 252.88,-20.5 252.88,-0.5 161.12,-0.5"/>
<text text-anchor="middle" x="207" y="-7" font-family="Helvetica,sans-Serif" font-size="10.00">Math::WrapAngle</text>
</a>
</g>
</g>
<!-- Node1&#45;&gt;Node3 -->
<g id="edge2" class="edge">
<title>Node1&#45;&gt;Node3</title>
<path fill="none" stroke="midnightblue" d="M108.98,-22.75C122.45,-21.05 136.94,-19.22 150.5,-17.51"/>
<polygon fill="midnightblue" stroke="midnightblue" points="150.66,-20.89 160.14,-16.16 149.78,-13.94 150.66,-20.89"/>
</g>
</g>
</svg>
