<?xml version="1.0" encoding="UTF-8" standalone="no"?>
<!DOCTYPE svg PUBLIC "-//W3C//DTD SVG 1.1//EN"
 "http://www.w3.org/Graphics/SVG/1.1/DTD/svg11.dtd">
<!-- Generated by graphviz version 8.1.0 (20230707.0739)
 -->
<!-- Title: ZBuffer::Clear Pages: 1 -->
<svg width="416pt" height="389pt"
 viewBox="0.00 0.00 416.00 389.00" xmlns="http://www.w3.org/2000/svg" xmlns:xlink="http://www.w3.org/1999/xlink">
<g id="graph0" class="graph" transform="scale(1 1) rotate(0) translate(4 385)">
<title>ZBuffer::Clear</title>
<!-- Node1 -->
<g id="node1" class="node">
<title>Node1</title>
<g id="a_node1"><a xlink:title=" ">
<polygon fill="#bfbfbf" stroke="black" points="333.5,-174.5 333.5,-194.5 408,-194.5 408,-174.5 333.5,-174.5"/>
<text text-anchor="middle" x="370.75" y="-181" font-family="Helvetica,sans-Serif" font-size="10.00">ZBuffer::Clear</text>
</a>
</g>
</g>
<!-- Node2 -->
<g id="node2" class="node">
<title>Node2</title>
<g id="a_node2"><a xlink:href="class_pipeline.html#adf2322f3b604145324fe70fd45266b46" target="_top" xlink:title=" ">
<polygon fill="none" stroke="black" points="188.5,-174.5 188.5,-194.5 297.5,-194.5 297.5,-174.5 188.5,-174.5"/>
<text text-anchor="middle" x="243" y="-181" font-family="Helvetica,sans-Serif" font-size="10.00">Pipeline::BeginFrame</text>
</a>
</g>
</g>
<!-- Node1&#45;&gt;Node2 -->
<g id="edge1" class="edge">
<title>Node1&#45;&gt;Node2</title>
<path fill="none" stroke="midnightblue" d="M322.74,-184.5C314.47,-184.5 305.81,-184.5 297.38,-184.5"/>
<polygon fill="midnightblue" stroke="midnightblue" points="322.72,-188 332.72,-184.5 322.72,-181 322.72,-188"/>
</g>
<!-- Node3 -->
<g id="node3" class="node">
<title>Node3</title>
<g id="a_node3"><a xlink:href="class_cube_flat_independent_scene.html#a5a2d8f2ca8c78d6e283531a521f0806b" target="_top" xlink:title=" ">
<polygon fill="none" stroke="black" points="8.62,-348.5 8.62,-380.5 143.88,-380.5 143.88,-348.5 8.62,-348.5"/>
<text text-anchor="start" x="16.62" y="-367" font-family="Helvetica,sans-Serif" font-size="10.00">CubeFlatIndependentScene</text>
<text text-anchor="middle" x="76.25" y="-355" font-family="Helvetica,sans-Serif" font-size="10.00">::Draw</text>
</a>
</g>
</g>
<!-- Node2&#45;&gt;Node3 -->
<g id="edge2" class="edge">
<title>Node2&#45;&gt;Node3</title>
<path fill="none" stroke="midnightblue" d="M235.64,-204.7C224.26,-237.66 197.31,-302.97 152.5,-339.5 148.23,-342.98 143.46,-345.98 138.45,-348.57"/>
<polygon fill="midnightblue" stroke="midnightblue" points="239.2,-206.09 239.02,-195.5 232.56,-203.89 239.2,-206.09"/>
</g>
<!-- Node4 -->
<g id="node4" class="node">
<title>Node4</title>
<g id="a_node4"><a xlink:href="class_cube_skin_scene.html#a48b277a1b41049e40ea70d90aa186627" target="_top" xlink:title=" ">
<polygon fill="none" stroke="black" points="19.5,-309.5 19.5,-329.5 133,-329.5 133,-309.5 19.5,-309.5"/>
<text text-anchor="middle" x="76.25" y="-316" font-family="Helvetica,sans-Serif" font-size="10.00">CubeSkinScene::Draw</text>
</a>
</g>
</g>
<!-- Node2&#45;&gt;Node4 -->
<g id="edge3" class="edge">
<title>Node2&#45;&gt;Node4</title>
<path fill="none" stroke="midnightblue" d="M232.37,-203.92C218.41,-229.98 190.08,-275.86 152.5,-300.5 146.53,-304.42 139.8,-307.53 132.89,-309.99"/>
<polygon fill="midnightblue" stroke="midnightblue" points="235.81,-205.87 237.3,-195.38 229.6,-202.65 235.81,-205.87"/>
</g>
<!-- Node5 -->
<g id="node5" class="node">
<title>Node5</title>
<g id="a_node5"><a xlink:href="class_cube_solid_geometry_scene.html#aa7ef23fe155a0a262c0357eaa3452506" target="_top" xlink:title=" ">
<polygon fill="none" stroke="black" points="10.88,-258.5 10.88,-290.5 141.62,-290.5 141.62,-258.5 10.88,-258.5"/>
<text text-anchor="start" x="18.88" y="-277" font-family="Helvetica,sans-Serif" font-size="10.00">CubeSolidGeometryScene</text>
<text text-anchor="middle" x="76.25" y="-265" font-family="Helvetica,sans-Serif" font-size="10.00">::Draw</text>
</a>
</g>
</g>
<!-- Node2&#45;&gt;Node5 -->
<g id="edge4" class="edge">
<title>Node2&#45;&gt;Node5</title>
<path fill="none" stroke="midnightblue" d="M222.69,-201.24C205.3,-215.63 178.54,-236.13 152.5,-249.5 146.01,-252.83 138.98,-255.86 131.92,-258.56"/>
<polygon fill="midnightblue" stroke="midnightblue" points="224.49,-203.46 229.88,-194.34 219.98,-198.11 224.49,-203.46"/>
</g>
<!-- Node6 -->
<g id="node6" class="node">
<title>Node6</title>
<g id="a_node6"><a xlink:href="class_cube_solid_scene.html#a889dfe03da33047374c1eb2291d5596e" target="_top" xlink:title=" ">
<polygon fill="none" stroke="black" points="18.38,-219.5 18.38,-239.5 134.12,-239.5 134.12,-219.5 18.38,-219.5"/>
<text text-anchor="middle" x="76.25" y="-226" font-family="Helvetica,sans-Serif" font-size="10.00">CubeSolidScene::Draw</text>
</a>
</g>
</g>
<!-- Node2&#45;&gt;Node6 -->
<g id="edge5" class="edge">
<title>Node2&#45;&gt;Node6</title>
<path fill="none" stroke="midnightblue" d="M198.64,-197.43C184.02,-201.7 167.58,-206.41 152.5,-210.5 141.32,-213.54 129.15,-216.68 117.93,-219.51"/>
<polygon fill="midnightblue" stroke="midnightblue" points="199.32,-200.59 207.93,-194.41 197.34,-193.87 199.32,-200.59"/>
</g>
<!-- Node7 -->
<g id="node7" class="node">
<title>Node7</title>
<g id="a_node7"><a xlink:href="class_cube_vertex_color_scene.html#ad2934096c9527e9dbb8cdcb9f8a45f80" target="_top" xlink:title=" ">
<polygon fill="none" stroke="black" points="17.62,-168.5 17.62,-200.5 134.88,-200.5 134.88,-168.5 17.62,-168.5"/>
<text text-anchor="start" x="25.62" y="-187" font-family="Helvetica,sans-Serif" font-size="10.00">CubeVertexColorScene</text>
<text text-anchor="middle" x="76.25" y="-175" font-family="Helvetica,sans-Serif" font-size="10.00">::Draw</text>
</a>
</g>
</g>
<!-- Node2&#45;&gt;Node7 -->
<g id="edge6" class="edge">
<title>Node2&#45;&gt;Node7</title>
<path fill="none" stroke="midnightblue" d="M177.82,-184.5C163.62,-184.5 148.65,-184.5 134.73,-184.5"/>
<polygon fill="midnightblue" stroke="midnightblue" points="177.51,-188 187.51,-184.5 177.51,-181 177.51,-188"/>
</g>
<!-- Node8 -->
<g id="node8" class="node">
<title>Node8</title>
<g id="a_node8"><a xlink:href="class_cube_vertex_position_color_scene.html#ae281a042a0863dbb9e3bb7a6070e58cc" target="_top" xlink:title=" ">
<polygon fill="none" stroke="black" points="0,-117.5 0,-149.5 152.5,-149.5 152.5,-117.5 0,-117.5"/>
<text text-anchor="start" x="8" y="-136" font-family="Helvetica,sans-Serif" font-size="10.00">CubeVertexPositionColorScene</text>
<text text-anchor="middle" x="76.25" y="-124" font-family="Helvetica,sans-Serif" font-size="10.00">::Draw</text>
</a>
</g>
</g>
<!-- Node2&#45;&gt;Node8 -->
<g id="edge7" class="edge">
<title>Node2&#45;&gt;Node8</title>
<path fill="none" stroke="midnightblue" d="M199.36,-171.3C177.8,-164.63 151.46,-156.47 128.78,-149.45"/>
<polygon fill="midnightblue" stroke="midnightblue" points="198.26,-174.93 208.84,-174.55 200.33,-168.24 198.26,-174.93"/>
</g>
<!-- Node9 -->
<g id="node9" class="node">
<title>Node9</title>
<g id="a_node9"><a xlink:href="class_double_cube_scene.html#a2f87358aaf1a53d1401ec11598d1eaa0" target="_top" xlink:title=" ">
<polygon fill="none" stroke="black" points="14.25,-78.5 14.25,-98.5 138.25,-98.5 138.25,-78.5 14.25,-78.5"/>
<text text-anchor="middle" x="76.25" y="-85" font-family="Helvetica,sans-Serif" font-size="10.00">DoubleCubeScene::Draw</text>
</a>
</g>
</g>
<!-- Node2&#45;&gt;Node9 -->
<g id="edge8" class="edge">
<title>Node2&#45;&gt;Node9</title>
<path fill="none" stroke="midnightblue" d="M225.83,-166.78C209.08,-149.47 181.37,-123.6 152.5,-108.5 144.71,-104.43 136.03,-101.13 127.41,-98.49"/>
<polygon fill="midnightblue" stroke="midnightblue" points="222.71,-168.64 232.12,-173.5 227.8,-163.83 222.71,-168.64"/>
</g>
<!-- Node10 -->
<g id="node10" class="node">
<title>Node10</title>
<g id="a_node10"><a xlink:href="class_geometry_flat_scene.html#aa5db5bbb8ea5e69cf430bbd4ab144054" target="_top" xlink:title=" ">
<polygon fill="none" stroke="black" points="10.88,-39.5 10.88,-59.5 141.62,-59.5 141.62,-39.5 10.88,-39.5"/>
<text text-anchor="middle" x="76.25" y="-46" font-family="Helvetica,sans-Serif" font-size="10.00">GeometryFlatScene::Draw</text>
</a>
</g>
</g>
<!-- Node2&#45;&gt;Node10 -->
<g id="edge9" class="edge">
<title>Node2&#45;&gt;Node10</title>
<path fill="none" stroke="midnightblue" d="M232.28,-165.32C218.22,-139.55 189.77,-94.17 152.5,-69.5 146.19,-65.32 139.04,-62.02 131.71,-59.4"/>
<polygon fill="midnightblue" stroke="midnightblue" points="229.49,-166.53 237.25,-173.74 235.68,-163.26 229.49,-166.53"/>
</g>
<!-- Node11 -->
<g id="node11" class="node">
<title>Node11</title>
<g id="a_node11"><a xlink:href="class_vertex_wave_scene.html#aed98f12c1ea59d6d6138498f75a106d6" target="_top" xlink:title=" ">
<polygon fill="none" stroke="black" points="14.25,-0.5 14.25,-20.5 138.25,-20.5 138.25,-0.5 14.25,-0.5"/>
<text text-anchor="middle" x="76.25" y="-7" font-family="Helvetica,sans-Serif" font-size="10.00">VertexWaveScene::Draw</text>
</a>
</g>
</g>
<!-- Node2&#45;&gt;Node11 -->
<g id="edge10" class="edge">
<title>Node2&#45;&gt;Node11</title>
<path fill="none" stroke="midnightblue" d="M236.01,-164.59C225.02,-131.56 198.45,-65.58 152.5,-30.5 147.02,-26.32 140.74,-23.01 134.19,-20.39"/>
<polygon fill="midnightblue" stroke="midnightblue" points="232.89,-165.33 239.25,-173.8 239.56,-163.21 232.89,-165.33"/>
</g>
</g>
</svg>
