<?xml version="1.0" encoding="UTF-8" standalone="no"?>
<!DOCTYPE svg PUBLIC "-//W3C//DTD SVG 1.1//EN"
 "http://www.w3.org/Graphics/SVG/1.1/DTD/svg11.dtd">
<!-- Generated by graphviz version 8.1.0 (20230707.0739)
 -->
<!-- Title: VertexPositionColorEffect Pages: 1 -->
<svg width="313pt" height="143pt"
 viewBox="0.00 0.00 313.00 143.00" xmlns="http://www.w3.org/2000/svg" xmlns:xlink="http://www.w3.org/1999/xlink">
<g id="graph0" class="graph" transform="scale(1 1) rotate(0) translate(4 139)">
<title>VertexPositionColorEffect</title>
<!-- Node1 -->
<g id="node1" class="node">
<title>Node1</title>
<g id="a_node1"><a xlink:title=" ">
<polygon fill="#bfbfbf" stroke="black" points="178,-57.5 178,-77.5 305,-77.5 305,-57.5 178,-57.5"/>
<text text-anchor="middle" x="241.5" y="-64" font-family="Helvetica,sans-Serif" font-size="10.00">VertexPositionColorEffect</text>
</a>
</g>
</g>
<!-- Node2 -->
<g id="node2" class="node">
<title>Node2</title>
<g id="a_node2"><a xlink:href="class_vertex_position_color_effect_1_1_pixel_shader.html" target="_top" xlink:title=" ">
<polygon fill="none" stroke="black" points="0.75,-102.5 0.75,-134.5 127.75,-134.5 127.75,-102.5 0.75,-102.5"/>
<text text-anchor="start" x="8.75" y="-121" font-family="Helvetica,sans-Serif" font-size="10.00">VertexPositionColorEffect</text>
<text text-anchor="middle" x="64.25" y="-109" font-family="Helvetica,sans-Serif" font-size="10.00">::PixelShader</text>
</a>
</g>
</g>
<!-- Node2&#45;&gt;Node1 -->
<g id="edge1" class="edge">
<title>Node2&#45;&gt;Node1</title>
<path fill="none" stroke="#9a32cd" stroke-dasharray="5,2" d="M130.67,-99.46C156.4,-91.97 184.86,-83.69 206.37,-77.43"/>
<polygon fill="#9a32cd" stroke="#9a32cd" points="129.84,-96.35 121.22,-102.5 131.8,-103.07 129.84,-96.35"/>
<text text-anchor="middle" x="153.25" y="-97" font-family="Helvetica,sans-Serif" font-size="10.00"> ps</text>
</g>
<!-- Node3 -->
<g id="node3" class="node">
<title>Node3</title>
<g id="a_node3"><a xlink:href="class_default_geometry_shader.html" target="_top" xlink:title=" ">
<polygon fill="none" stroke="black" points="0,-51.5 0,-83.5 128.5,-83.5 128.5,-51.5 0,-51.5"/>
<text text-anchor="start" x="8" y="-70" font-family="Helvetica,sans-Serif" font-size="10.00">DefaultGeometryShader</text>
<text text-anchor="middle" x="64.25" y="-58" font-family="Helvetica,sans-Serif" font-size="10.00">&lt; VertexShader::Output &gt;</text>
</a>
</g>
</g>
<!-- Node3&#45;&gt;Node1 -->
<g id="edge2" class="edge">
<title>Node3&#45;&gt;Node1</title>
<path fill="none" stroke="#9a32cd" stroke-dasharray="5,2" d="M138.88,-67.5C151.95,-67.5 165.44,-67.5 178.16,-67.5"/>
<polygon fill="#9a32cd" stroke="#9a32cd" points="139.02,-64 129.02,-67.5 139.02,-71 139.02,-64"/>
<text text-anchor="middle" x="153.25" y="-70" font-family="Helvetica,sans-Serif" font-size="10.00"> gs</text>
</g>
<!-- Node4 -->
<g id="node4" class="node">
<title>Node4</title>
<g id="a_node4"><a xlink:href="class_vertex_position_color_effect_1_1_vertex_shader.html" target="_top" xlink:title=" ">
<polygon fill="none" stroke="black" points="0.75,-0.5 0.75,-32.5 127.75,-32.5 127.75,-0.5 0.75,-0.5"/>
<text text-anchor="start" x="8.75" y="-19" font-family="Helvetica,sans-Serif" font-size="10.00">VertexPositionColorEffect</text>
<text text-anchor="middle" x="64.25" y="-7" font-family="Helvetica,sans-Serif" font-size="10.00">::VertexShader</text>
</a>
</g>
</g>
<!-- Node4&#45;&gt;Node1 -->
<g id="edge3" class="edge">
<title>Node4&#45;&gt;Node1</title>
<path fill="none" stroke="#9a32cd" stroke-dasharray="5,2" d="M130.67,-35.54C156.4,-43.03 184.86,-51.31 206.37,-57.57"/>
<polygon fill="#9a32cd" stroke="#9a32cd" points="131.8,-31.93 121.22,-32.5 129.84,-38.65 131.8,-31.93"/>
<text text-anchor="middle" x="153.25" y="-46" font-family="Helvetica,sans-Serif" font-size="10.00"> vs</text>
</g>
</g>
</svg>
