<?xml version="1.0" encoding="UTF-8" standalone="no"?>
<!DOCTYPE svg PUBLIC "-//W3C//DTD SVG 1.1//EN"
 "http://www.w3.org/Graphics/SVG/1.1/DTD/svg11.dtd">
<!-- Generated by graphviz version 8.1.0 (20230707.0739)
 -->
<!-- Title: Vector3::Saturate Pages: 1 -->
<svg width="279pt" height="131pt"
 viewBox="0.00 0.00 279.25 131.00" xmlns="http://www.w3.org/2000/svg" xmlns:xlink="http://www.w3.org/1999/xlink">
<g id="graph0" class="graph" transform="scale(1 1) rotate(0) translate(4 127)">
<title>Vector3::Saturate</title>
<!-- Node1 -->
<g id="node1" class="node">
<title>Node1</title>
<g id="a_node1"><a xlink:title=" ">
<polygon fill="#bfbfbf" stroke="black" points="178.75,-57.5 178.75,-77.5 271.25,-77.5 271.25,-57.5 178.75,-57.5"/>
<text text-anchor="middle" x="225" y="-64" font-family="Helvetica,sans-Serif" font-size="10.00">Vector3::Saturate</text>
</a>
</g>
</g>
<!-- Node2 -->
<g id="node2" class="node">
<title>Node2</title>
<g id="a_node2"><a xlink:href="class_vector3.html#aa3844aebe353eafd860e9de078c25a08" target="_top" xlink:title=" ">
<polygon fill="none" stroke="black" points="14.62,-102.5 14.62,-122.5 128.12,-122.5 128.12,-102.5 14.62,-102.5"/>
<text text-anchor="middle" x="71.38" y="-109" font-family="Helvetica,sans-Serif" font-size="10.00">Vector3::GetSaturated</text>
</a>
</g>
</g>
<!-- Node1&#45;&gt;Node2 -->
<g id="edge1" class="edge">
<title>Node1&#45;&gt;Node2</title>
<path fill="none" stroke="midnightblue" d="M183.9,-80.74C170.82,-84.95 156.2,-89.53 142.75,-93.5 132.31,-96.58 120.94,-99.73 110.45,-102.56"/>
<polygon fill="midnightblue" stroke="midnightblue" points="184.57,-83.87 193,-77.46 182.41,-77.21 184.57,-83.87"/>
</g>
<!-- Node3 -->
<g id="node3" class="node">
<title>Node3</title>
<g id="a_node3"><a xlink:href="class_vertex_flat_effect_1_1_vertex_shader.html#a5730ea8d60ef2a0d7a80ccfdd6996918" target="_top" xlink:title=" ">
<polygon fill="none" stroke="black" points="11.25,-51.5 11.25,-83.5 131.5,-83.5 131.5,-51.5 11.25,-51.5"/>
<text text-anchor="start" x="19.25" y="-70" font-family="Helvetica,sans-Serif" font-size="10.00">VertexFlatEffect::Vertex</text>
<text text-anchor="middle" x="71.38" y="-58" font-family="Helvetica,sans-Serif" font-size="10.00">Shader::operator()</text>
</a>
</g>
</g>
<!-- Node1&#45;&gt;Node3 -->
<g id="edge2" class="edge">
<title>Node1&#45;&gt;Node3</title>
<path fill="none" stroke="midnightblue" d="M168.14,-67.5C156.15,-67.5 143.44,-67.5 131.34,-67.5"/>
<polygon fill="midnightblue" stroke="midnightblue" points="167.92,-71 177.92,-67.5 167.92,-64 167.92,-71"/>
</g>
<!-- Node4 -->
<g id="node4" class="node">
<title>Node4</title>
<g id="a_node4"><a xlink:href="class_geometry_flat_effect_1_1_geometry_shader.html#a84bd7b52ddfb6c22dfe57eaacdf7a50f" target="_top" xlink:title=" ">
<polygon fill="none" stroke="black" points="0,-0.5 0,-32.5 142.75,-32.5 142.75,-0.5 0,-0.5"/>
<text text-anchor="start" x="8" y="-19" font-family="Helvetica,sans-Serif" font-size="10.00">GeometryFlatEffect</text>
<text text-anchor="middle" x="71.38" y="-7" font-family="Helvetica,sans-Serif" font-size="10.00">::GeometryShader::operator()</text>
</a>
</g>
</g>
<!-- Node1&#45;&gt;Node4 -->
<g id="edge3" class="edge">
<title>Node1&#45;&gt;Node4</title>
<path fill="none" stroke="midnightblue" d="M184.22,-54.12C164.48,-47.48 140.49,-39.41 119.8,-32.45"/>
<polygon fill="midnightblue" stroke="midnightblue" points="182.81,-57.67 193.41,-57.55 185.04,-51.04 182.81,-57.67"/>
</g>
</g>
</svg>
