<?xml version="1.0" encoding="UTF-8" standalone="no"?>
<!DOCTYPE svg PUBLIC "-//W3C//DTD SVG 1.1//EN"
 "http://www.w3.org/Graphics/SVG/1.1/DTD/svg11.dtd">
<!-- Generated by graphviz version 8.1.0 (20230707.0739)
 -->
<!-- Title: TextureEffect Pages: 1 -->
<svg width="286pt" height="110pt"
 viewBox="0.00 0.00 286.00 110.00" xmlns="http://www.w3.org/2000/svg" xmlns:xlink="http://www.w3.org/1999/xlink">
<g id="graph0" class="graph" transform="scale(1 1) rotate(0) translate(4 106)">
<title>TextureEffect</title>
<!-- Node1 -->
<g id="node1" class="node">
<title>Node1</title>
<g id="a_node1"><a xlink:title=" ">
<polygon fill="#bfbfbf" stroke="black" points="103.25,-0.5 103.25,-20.5 176.25,-20.5 176.25,-0.5 103.25,-0.5"/>
<text text-anchor="middle" x="139.75" y="-7" font-family="Helvetica,sans-Serif" font-size="10.00">TextureEffect</text>
</a>
</g>
</g>
<!-- Node2 -->
<g id="node2" class="node">
<title>Node2</title>
<g id="a_node2"><a xlink:href="class_texture_effect_1_1_pixel_shader.html" target="_top" xlink:title=" ">
<polygon fill="none" stroke="black" points="0,-75.5 0,-95.5 131.5,-95.5 131.5,-75.5 0,-75.5"/>
<text text-anchor="middle" x="65.75" y="-82" font-family="Helvetica,sans-Serif" font-size="10.00">TextureEffect::PixelShader</text>
</a>
</g>
</g>
<!-- Node2&#45;&gt;Node1 -->
<g id="edge1" class="edge">
<title>Node2&#45;&gt;Node1</title>
<path fill="none" stroke="#9a32cd" stroke-dasharray="5,2" d="M82.43,-68.04C97.53,-53.15 119.15,-31.82 131.06,-20.07"/>
<polygon fill="#9a32cd" stroke="#9a32cd" points="80.48,-65.03 75.82,-74.55 85.4,-70.02 80.48,-65.03"/>
<text text-anchor="middle" x="118.5" y="-41.5" font-family="Helvetica,sans-Serif" font-size="10.00"> ps</text>
</g>
<!-- Node3 -->
<g id="node3" class="node">
<title>Node3</title>
<g id="a_node3"><a xlink:href="class_default_geometry_shader.html" target="_top" xlink:title=" ">
<polygon fill="none" stroke="black" points="149.5,-69.5 149.5,-101.5 278,-101.5 278,-69.5 149.5,-69.5"/>
<text text-anchor="start" x="157.5" y="-88" font-family="Helvetica,sans-Serif" font-size="10.00">DefaultGeometryShader</text>
<text text-anchor="middle" x="213.75" y="-76" font-family="Helvetica,sans-Serif" font-size="10.00">&lt; VertexShader::Output &gt;</text>
</a>
</g>
</g>
<!-- Node3&#45;&gt;Node1 -->
<g id="edge2" class="edge">
<title>Node3&#45;&gt;Node1</title>
<path fill="none" stroke="#9a32cd" stroke-dasharray="5,2" d="M191.24,-62.29C176.91,-48.16 159.14,-30.63 148.66,-20.29"/>
<polygon fill="#9a32cd" stroke="#9a32cd" points="188.2,-64.2 197.77,-68.73 193.11,-59.21 188.2,-64.2"/>
<text text-anchor="middle" x="185.5" y="-41.5" font-family="Helvetica,sans-Serif" font-size="10.00"> gs</text>
</g>
</g>
</svg>
