<?xml version="1.0" encoding="UTF-8" standalone="no"?>
<!DOCTYPE svg PUBLIC "-//W3C//DTD SVG 1.1//EN"
 "http://www.w3.org/Graphics/SVG/1.1/DTD/svg11.dtd">
<!-- Generated by graphviz version 2.43.0 (0)
 -->
<!-- Title: EngineException::GetNote Pages: 1 -->
<svg width="321pt" height="127pt"
 viewBox="0.00 0.00 321.00 126.50" xmlns="http://www.w3.org/2000/svg" xmlns:xlink="http://www.w3.org/1999/xlink">
<g id="graph0" class="graph" transform="scale(1 1) rotate(0) translate(4 122.5)">
<title>EngineException::GetNote</title>
<!-- Node1 -->
<g id="node1" class="node">
<title>Node1</title>
<g id="a_node1"><a xlink:title=" ">
<polygon fill="#bfbfbf" stroke="black" points="169,-44.5 169,-63.5 313,-63.5 313,-44.5 169,-44.5"/>
<text text-anchor="middle" x="241" y="-51.5" font-family="Helvetica,sans-Serif" font-size="10.00">EngineException::GetNote</text>
</a>
</g>
</g>
<!-- Node2 -->
<g id="node2" class="node">
<title>Node2</title>
<g id="a_node2"><a xlink:href="classMainWindow_1_1Exception.html#ad9a8d257f6b90c608794227275d215d6" target="_top" xlink:title=" ">
<polygon fill="none" stroke="black" points="0,-88 0,-118 133,-118 133,-88 0,-88"/>
<text text-anchor="start" x="8" y="-106" font-family="Helvetica,sans-Serif" font-size="10.00">MainWindow::Exception</text>
<text text-anchor="middle" x="66.5" y="-95" font-family="Helvetica,sans-Serif" font-size="10.00">::GetFullMessage</text>
</a>
</g>
</g>
<!-- Node1&#45;&gt;Node2 -->
<g id="edge1" class="edge">
<title>Node1&#45;&gt;Node2</title>
<path fill="none" stroke="midnightblue" d="M196.47,-66.37C173.37,-72.93 144.81,-81.04 120.44,-87.96"/>
<polygon fill="midnightblue" stroke="midnightblue" points="197.67,-69.66 206.33,-63.56 195.75,-62.93 197.67,-69.66"/>
</g>
<!-- Node3 -->
<g id="node3" class="node">
<title>Node3</title>
<g id="a_node3"><a xlink:href="classSurface_1_1Exception.html#a329c52bca9383bc73a4c42a299ede32d" target="_top" xlink:title=" ">
<polygon fill="none" stroke="black" points="13,-39 13,-69 120,-69 120,-39 13,-39"/>
<text text-anchor="start" x="21" y="-57" font-family="Helvetica,sans-Serif" font-size="10.00">Surface::Exception</text>
<text text-anchor="middle" x="66.5" y="-46" font-family="Helvetica,sans-Serif" font-size="10.00">::GetFullMessage</text>
</a>
</g>
</g>
<!-- Node1&#45;&gt;Node3 -->
<g id="edge2" class="edge">
<title>Node1&#45;&gt;Node3</title>
<path fill="none" stroke="midnightblue" d="M158.82,-54C145.64,-54 132.3,-54 120.05,-54"/>
<polygon fill="midnightblue" stroke="midnightblue" points="158.84,-57.5 168.84,-54 158.84,-50.5 158.84,-57.5"/>
</g>
<!-- Node4 -->
<g id="node4" class="node">
<title>Node4</title>
<g id="a_node4"><a xlink:href="Main_8cpp.html#a2c3f6775325c30275d11c6abee2db6a0" target="_top" xlink:title=" ">
<polygon fill="none" stroke="black" points="46,-0.5 46,-19.5 87,-19.5 87,-0.5 46,-0.5"/>
<text text-anchor="middle" x="66.5" y="-7.5" font-family="Helvetica,sans-Serif" font-size="10.00">main</text>
</a>
</g>
</g>
<!-- Node1&#45;&gt;Node4 -->
<g id="edge3" class="edge">
<title>Node1&#45;&gt;Node4</title>
<path fill="none" stroke="midnightblue" d="M192.64,-41.92C157.96,-33.07 112.68,-21.52 87.18,-15.02"/>
<polygon fill="midnightblue" stroke="midnightblue" points="192.02,-45.37 202.57,-44.45 193.75,-38.59 192.02,-45.37"/>
</g>
</g>
</svg>
