<?xml version="1.0" encoding="UTF-8" standalone="no"?>
<!DOCTYPE svg PUBLIC "-//W3C//DTD SVG 1.1//EN"
 "http://www.w3.org/Graphics/SVG/1.1/DTD/svg11.dtd">
<!-- Generated by graphviz version 8.1.0 (20230707.0739)
 -->
<!-- Title: CubeSolidGeometryScene::Draw Pages: 1 -->
<svg width="404pt" height="221pt"
 viewBox="0.00 0.00 404.00 221.00" xmlns="http://www.w3.org/2000/svg" xmlns:xlink="http://www.w3.org/1999/xlink">
<g id="graph0" class="graph" transform="scale(1 1) rotate(0) translate(4 217)">
<title>CubeSolidGeometryScene::Draw</title>
<!-- Node1 -->
<g id="node1" class="node">
<title>Node1</title>
<g id="a_node1"><a xlink:title=" ">
<polygon fill="#bfbfbf" stroke="black" points="0,-90.5 0,-122.5 130.75,-122.5 130.75,-90.5 0,-90.5"/>
<text text-anchor="start" x="8" y="-109" font-family="Helvetica,sans-Serif" font-size="10.00">CubeSolidGeometryScene</text>
<text text-anchor="middle" x="65.38" y="-97" font-family="Helvetica,sans-Serif" font-size="10.00">::Draw</text>
</a>
</g>
</g>
<!-- Node2 -->
<g id="node2" class="node">
<title>Node2</title>
<g id="a_node2"><a xlink:href="class_pipeline.html#adf2322f3b604145324fe70fd45266b46" target="_top" xlink:title=" ">
<polygon fill="none" stroke="black" points="171.62,-192.5 171.62,-212.5 280.62,-212.5 280.62,-192.5 171.62,-192.5"/>
<text text-anchor="middle" x="226.12" y="-199" font-family="Helvetica,sans-Serif" font-size="10.00">Pipeline::BeginFrame</text>
</a>
</g>
</g>
<!-- Node1&#45;&gt;Node2 -->
<g id="edge1" class="edge">
<title>Node1&#45;&gt;Node2</title>
<path fill="none" stroke="midnightblue" d="M83.25,-122.37C102.25,-139.51 134.68,-166.62 166.75,-183.5 170.31,-185.37 174.08,-187.11 177.94,-188.7"/>
<polygon fill="midnightblue" stroke="midnightblue" points="176.63,-192.33 187.22,-192.6 179.11,-185.78 176.63,-192.33"/>
</g>
<!-- Node4 -->
<g id="node4" class="node">
<title>Node4</title>
<g id="a_node4"><a xlink:href="class_matrix3.html#a3672400f647456083337d53db6478505" target="_top" xlink:title=" ">
<polygon fill="none" stroke="black" points="166.75,-141.5 166.75,-173.5 285.5,-173.5 285.5,-141.5 166.75,-141.5"/>
<text text-anchor="start" x="174.75" y="-160" font-family="Helvetica,sans-Serif" font-size="10.00">Matrix3&lt; float &gt;::Create</text>
<text text-anchor="middle" x="226.12" y="-148" font-family="Helvetica,sans-Serif" font-size="10.00">XRotationMatrix</text>
</a>
</g>
</g>
<!-- Node1&#45;&gt;Node4 -->
<g id="edge3" class="edge">
<title>Node1&#45;&gt;Node4</title>
<path fill="none" stroke="midnightblue" d="M116.17,-122.5C131.68,-127.48 148.96,-133.03 165.1,-138.22"/>
<polygon fill="midnightblue" stroke="midnightblue" points="163.92,-141.83 174.51,-141.56 166.06,-135.17 163.92,-141.83"/>
</g>
<!-- Node5 -->
<g id="node5" class="node">
<title>Node5</title>
<g id="a_node5"><a xlink:href="class_matrix3.html#ae2e635e8fc49db308a95dde2a5518bbc" target="_top" xlink:title=" ">
<polygon fill="none" stroke="black" points="166.75,-90.5 166.75,-122.5 285.5,-122.5 285.5,-90.5 166.75,-90.5"/>
<text text-anchor="start" x="174.75" y="-109" font-family="Helvetica,sans-Serif" font-size="10.00">Matrix3&lt; float &gt;::Create</text>
<text text-anchor="middle" x="226.12" y="-97" font-family="Helvetica,sans-Serif" font-size="10.00">YRotationMatrix</text>
</a>
</g>
</g>
<!-- Node1&#45;&gt;Node5 -->
<g id="edge4" class="edge">
<title>Node1&#45;&gt;Node5</title>
<path fill="none" stroke="midnightblue" d="M130.49,-106.5C138.86,-106.5 147.48,-106.5 155.93,-106.5"/>
<polygon fill="midnightblue" stroke="midnightblue" points="155.92,-110 165.92,-106.5 155.92,-103 155.92,-110"/>
</g>
<!-- Node6 -->
<g id="node6" class="node">
<title>Node6</title>
<g id="a_node6"><a xlink:href="class_matrix3.html#a7b88435a5d6c183b5b46efa2b6dbcb3a" target="_top" xlink:title=" ">
<polygon fill="none" stroke="black" points="166.75,-39.5 166.75,-71.5 285.5,-71.5 285.5,-39.5 166.75,-39.5"/>
<text text-anchor="start" x="174.75" y="-58" font-family="Helvetica,sans-Serif" font-size="10.00">Matrix3&lt; float &gt;::Create</text>
<text text-anchor="middle" x="226.12" y="-46" font-family="Helvetica,sans-Serif" font-size="10.00">ZRotationMatrix</text>
</a>
</g>
</g>
<!-- Node1&#45;&gt;Node6 -->
<g id="edge5" class="edge">
<title>Node1&#45;&gt;Node6</title>
<path fill="none" stroke="midnightblue" d="M116.17,-90.5C131.68,-85.52 148.96,-79.97 165.1,-74.78"/>
<polygon fill="midnightblue" stroke="midnightblue" points="166.06,-77.83 174.51,-71.44 163.92,-71.17 166.06,-77.83"/>
</g>
<!-- Node7 -->
<g id="node7" class="node">
<title>Node7</title>
<g id="a_node7"><a xlink:href="class_pipeline.html#a76274774f61e4b5a1c708decf65712b9" target="_top" xlink:title=" ">
<polygon fill="none" stroke="black" points="187,-0.5 187,-20.5 265.25,-20.5 265.25,-0.5 187,-0.5"/>
<text text-anchor="middle" x="226.12" y="-7" font-family="Helvetica,sans-Serif" font-size="10.00">Pipeline::Draw</text>
</a>
</g>
</g>
<!-- Node1&#45;&gt;Node7 -->
<g id="edge6" class="edge">
<title>Node1&#45;&gt;Node7</title>
<path fill="none" stroke="midnightblue" d="M83.69,-90.63C102.81,-73.8 135.11,-47.34 166.75,-30.5 170.96,-28.26 175.47,-26.19 180.05,-24.31"/>
<polygon fill="midnightblue" stroke="midnightblue" points="181,-27.31 189.1,-20.48 178.51,-20.77 181,-27.31"/>
</g>
<!-- Node3 -->
<g id="node3" class="node">
<title>Node3</title>
<g id="a_node3"><a xlink:href="class_z_buffer.html#af1a6407078bb83629e3b4dec9f0554cf" target="_top" xlink:title=" ">
<polygon fill="none" stroke="black" points="321.5,-192.5 321.5,-212.5 396,-212.5 396,-192.5 321.5,-192.5"/>
<text text-anchor="middle" x="358.75" y="-199" font-family="Helvetica,sans-Serif" font-size="10.00">ZBuffer::Clear</text>
</a>
</g>
</g>
<!-- Node2&#45;&gt;Node3 -->
<g id="edge2" class="edge">
<title>Node2&#45;&gt;Node3</title>
<path fill="none" stroke="midnightblue" d="M280.26,-202.5C290.42,-202.5 300.99,-202.5 310.93,-202.5"/>
<polygon fill="midnightblue" stroke="midnightblue" points="310.84,-206 320.84,-202.5 310.84,-199 310.84,-206"/>
</g>
</g>
</svg>
