<?xml version="1.0" encoding="UTF-8" standalone="no"?>
<!DOCTYPE svg PUBLIC "-//W3C//DTD SVG 1.1//EN"
 "http://www.w3.org/Graphics/SVG/1.1/DTD/svg11.dtd">
<!-- Generated by graphviz version 8.1.0 (20230707.0739)
 -->
<!-- Title: Cube::GetTriangles Pages: 1 -->
<svg width="261pt" height="68pt"
 viewBox="0.00 0.00 261.25 68.00" xmlns="http://www.w3.org/2000/svg" xmlns:xlink="http://www.w3.org/1999/xlink">
<g id="graph0" class="graph" transform="scale(1 1) rotate(0) translate(4 64)">
<title>Cube::GetTriangles</title>
<!-- Node1 -->
<g id="node1" class="node">
<title>Node1</title>
<g id="a_node1"><a xlink:title=" ">
<polygon fill="#bfbfbf" stroke="black" points="154,-19.5 154,-39.5 253.25,-39.5 253.25,-19.5 154,-19.5"/>
<text text-anchor="middle" x="203.62" y="-26" font-family="Helvetica,sans-Serif" font-size="10.00">Cube::GetTriangles</text>
</a>
</g>
</g>
<!-- Node2 -->
<g id="node2" class="node">
<title>Node2</title>
<g id="a_node2"><a xlink:href="class_cube_order_scene.html#a0dcc2db49c9633aacf307df34b112739" target="_top" xlink:title=" ">
<polygon fill="none" stroke="black" points="0,-39.5 0,-59.5 118,-59.5 118,-39.5 0,-39.5"/>
<text text-anchor="middle" x="59" y="-46" font-family="Helvetica,sans-Serif" font-size="10.00">CubeOrderScene::Draw</text>
</a>
</g>
</g>
<!-- Node1&#45;&gt;Node2 -->
<g id="edge1" class="edge">
<title>Node1&#45;&gt;Node2</title>
<path fill="none" stroke="midnightblue" d="M143.7,-37.76C135.16,-38.96 126.38,-40.19 117.86,-41.39"/>
<polygon fill="midnightblue" stroke="midnightblue" points="143.92,-41.13 153.34,-36.27 142.95,-34.19 143.92,-41.13"/>
</g>
<!-- Node3 -->
<g id="node3" class="node">
<title>Node3</title>
<g id="a_node3"><a xlink:href="class_solid_cube_scene.html#a2b64ddcde32764c9e124aadb7232d5c8" target="_top" xlink:title=" ">
<polygon fill="none" stroke="black" points="1.12,-0.5 1.12,-20.5 116.88,-20.5 116.88,-0.5 1.12,-0.5"/>
<text text-anchor="middle" x="59" y="-7" font-family="Helvetica,sans-Serif" font-size="10.00">SolidCubeScene::Draw</text>
</a>
</g>
</g>
<!-- Node1&#45;&gt;Node3 -->
<g id="edge2" class="edge">
<title>Node1&#45;&gt;Node3</title>
<path fill="none" stroke="midnightblue" d="M143.62,-21.64C134.69,-20.45 125.49,-19.22 116.61,-18.04"/>
<polygon fill="midnightblue" stroke="midnightblue" points="142.96,-25.22 153.34,-23.07 143.89,-18.28 142.96,-25.22"/>
</g>
</g>
</svg>
