<?xml version="1.0" encoding="UTF-8" standalone="no"?>
<!DOCTYPE svg PUBLIC "-//W3C//DTD SVG 1.1//EN"
 "http://www.w3.org/Graphics/SVG/1.1/DTD/svg11.dtd">
<!-- Generated by graphviz version 2.43.0 (0)
 -->
<!-- Title: WaveVertexTextureEffect::GeometryShader::operator() Pages: 1 -->
<svg width="856pt" height="85pt"
 viewBox="0.00 0.00 856.00 85.00" xmlns="http://www.w3.org/2000/svg" xmlns:xlink="http://www.w3.org/1999/xlink">
<g id="graph0" class="graph" transform="scale(1 1) rotate(0) translate(4 81)">
<title>WaveVertexTextureEffect::GeometryShader::operator()</title>
<!-- Node1 -->
<g id="node1" class="node">
<title>Node1</title>
<g id="a_node1"><a xlink:title=" ">
<polygon fill="#bfbfbf" stroke="black" points="0,-33 0,-63 160,-63 160,-33 0,-33"/>
<text text-anchor="start" x="8" y="-51" font-family="Helvetica,sans-Serif" font-size="10.00">WaveVertexTextureEffect</text>
<text text-anchor="middle" x="80" y="-40" font-family="Helvetica,sans-Serif" font-size="10.00">::GeometryShader::operator()</text>
</a>
</g>
</g>
<!-- Node2 -->
<g id="node2" class="node">
<title>Node2</title>
<g id="a_node2"><a xlink:href="classVector3.html#af6770ab3b9092e848317aaf6e7d77803" target="_top" xlink:title=" ">
<polygon fill="none" stroke="black" points="196,-57.5 196,-76.5 363,-76.5 363,-57.5 196,-57.5"/>
<text text-anchor="middle" x="279.5" y="-64.5" font-family="Helvetica,sans-Serif" font-size="10.00">Vector3&lt; float &gt;::CrossProduct</text>
</a>
</g>
</g>
<!-- Node1&#45;&gt;Node2 -->
<g id="edge1" class="edge">
<title>Node1&#45;&gt;Node2</title>
<path fill="none" stroke="midnightblue" d="M160.19,-55.62C168.6,-56.43 177.2,-57.26 185.75,-58.08"/>
<polygon fill="midnightblue" stroke="midnightblue" points="185.45,-61.56 195.74,-59.04 186.12,-54.6 185.45,-61.56"/>
</g>
<!-- Node3 -->
<g id="node3" class="node">
<title>Node3</title>
<g id="a_node3"><a xlink:href="classVector3.html#a1453d64a7a4333b19d6a92b8e61e617e" target="_top" xlink:title=" ">
<polygon fill="none" stroke="black" points="213,-19.5 213,-38.5 346,-38.5 346,-19.5 213,-19.5"/>
<text text-anchor="middle" x="279.5" y="-26.5" font-family="Helvetica,sans-Serif" font-size="10.00">Vector3::GetNormalized</text>
</a>
</g>
</g>
<!-- Node1&#45;&gt;Node3 -->
<g id="edge2" class="edge">
<title>Node1&#45;&gt;Node3</title>
<path fill="none" stroke="midnightblue" d="M160.19,-40.38C174.27,-39.03 188.9,-37.62 202.87,-36.28"/>
<polygon fill="midnightblue" stroke="midnightblue" points="203.29,-39.75 212.91,-35.31 202.62,-32.78 203.29,-39.75"/>
</g>
<!-- Node4 -->
<g id="node4" class="node">
<title>Node4</title>
<g id="a_node4"><a xlink:href="classVector3.html#ac297afb6e74370b4327d779328412b18" target="_top" xlink:title=" ">
<polygon fill="none" stroke="black" points="399,-38.5 399,-57.5 527,-57.5 527,-38.5 399,-38.5"/>
<text text-anchor="middle" x="463" y="-45.5" font-family="Helvetica,sans-Serif" font-size="10.00">Vector3::GetMagnitude</text>
</a>
</g>
</g>
<!-- Node3&#45;&gt;Node4 -->
<g id="edge3" class="edge">
<title>Node3&#45;&gt;Node4</title>
<path fill="none" stroke="midnightblue" d="M346.03,-35.86C359.92,-37.31 374.66,-38.86 388.82,-40.34"/>
<polygon fill="midnightblue" stroke="midnightblue" points="388.69,-43.84 399,-41.4 389.42,-36.88 388.69,-43.84"/>
</g>
<!-- Node7 -->
<g id="node7" class="node">
<title>Node7</title>
<g id="a_node7"><a xlink:href="classVector3.html#a515f2c0f2383c0e3083321745b708463" target="_top" xlink:title=" ">
<polygon fill="none" stroke="black" points="415,-0.5 415,-19.5 511,-19.5 511,-0.5 415,-0.5"/>
<text text-anchor="middle" x="463" y="-7.5" font-family="Helvetica,sans-Serif" font-size="10.00">Vector3::Vector3</text>
</a>
</g>
</g>
<!-- Node3&#45;&gt;Node7 -->
<g id="edge6" class="edge">
<title>Node3&#45;&gt;Node7</title>
<path fill="none" stroke="midnightblue" d="M346.03,-22.14C365.22,-20.13 386.04,-17.95 404.68,-16"/>
<polygon fill="midnightblue" stroke="midnightblue" points="405.21,-19.46 414.79,-14.94 404.48,-12.5 405.21,-19.46"/>
</g>
<!-- Node5 -->
<g id="node5" class="node">
<title>Node5</title>
<g id="a_node5"><a xlink:href="classVector3.html#a40b58e9af6b19f4fd02e75a7e036c497" target="_top" xlink:title=" ">
<polygon fill="none" stroke="black" points="563,-38.5 563,-57.5 731,-57.5 731,-38.5 563,-38.5"/>
<text text-anchor="middle" x="647" y="-45.5" font-family="Helvetica,sans-Serif" font-size="10.00">Vector3::GetMagnitudeSquared</text>
</a>
</g>
</g>
<!-- Node4&#45;&gt;Node5 -->
<g id="edge4" class="edge">
<title>Node4&#45;&gt;Node5</title>
<path fill="none" stroke="midnightblue" d="M527.14,-48C535.41,-48 544.01,-48 552.65,-48"/>
<polygon fill="midnightblue" stroke="midnightblue" points="552.77,-51.5 562.77,-48 552.77,-44.5 552.77,-51.5"/>
</g>
<!-- Node6 -->
<g id="node6" class="node">
<title>Node6</title>
<g id="a_node6"><a xlink:href="namespaceMath.html#aaf39112a96239cbf99db4374c7beb3bd" target="_top" xlink:title=" ">
<polygon fill="none" stroke="black" points="767,-38.5 767,-57.5 848,-57.5 848,-38.5 767,-38.5"/>
<text text-anchor="middle" x="807.5" y="-45.5" font-family="Helvetica,sans-Serif" font-size="10.00">Math::Square</text>
</a>
</g>
</g>
<!-- Node5&#45;&gt;Node6 -->
<g id="edge5" class="edge">
<title>Node5&#45;&gt;Node6</title>
<path fill="none" stroke="midnightblue" d="M731.43,-48C740.13,-48 748.77,-48 756.92,-48"/>
<polygon fill="midnightblue" stroke="midnightblue" points="756.95,-51.5 766.95,-48 756.95,-44.5 756.95,-51.5"/>
</g>
</g>
</svg>
