<?xml version="1.0" encoding="UTF-8" standalone="no"?>
<!DOCTYPE svg PUBLIC "-//W3C//DTD SVG 1.1//EN"
 "http://www.w3.org/Graphics/SVG/1.1/DTD/svg11.dtd">
<!-- Generated by graphviz version 8.1.0 (20230707.0739)
 -->
<!-- Title: VertexPositionColorEffect::VertexShader::Output::Output Pages: 1 -->
<svg width="298pt" height="242pt"
 viewBox="0.00 0.00 298.00 242.00" xmlns="http://www.w3.org/2000/svg" xmlns:xlink="http://www.w3.org/1999/xlink">
<g id="graph0" class="graph" transform="scale(1 1) rotate(0) translate(4 238)">
<title>VertexPositionColorEffect::VertexShader::Output::Output</title>
<!-- Node1 -->
<g id="node1" class="node">
<title>Node1</title>
<g id="a_node1"><a xlink:title=" ">
<polygon fill="#bfbfbf" stroke="black" points="163,-94.5 163,-138.5 290,-138.5 290,-94.5 163,-94.5"/>
<text text-anchor="start" x="171" y="-125" font-family="Helvetica,sans-Serif" font-size="10.00">VertexPositionColorEffect</text>
<text text-anchor="start" x="171" y="-113" font-family="Helvetica,sans-Serif" font-size="10.00">::VertexShader::Output</text>
<text text-anchor="middle" x="226.5" y="-101" font-family="Helvetica,sans-Serif" font-size="10.00">::Output</text>
</a>
</g>
</g>
<!-- Node2 -->
<g id="node2" class="node">
<title>Node2</title>
<g id="a_node2"><a xlink:href="class_vertex_position_color_effect_1_1_vertex_shader_1_1_output.html#a1e8c12514b4671fafd5adb34be77b7df" target="_top" xlink:title=" ">
<polygon fill="none" stroke="black" points="0,-189.5 0,-233.5 127,-233.5 127,-189.5 0,-189.5"/>
<text text-anchor="start" x="8" y="-220" font-family="Helvetica,sans-Serif" font-size="10.00">VertexPositionColorEffect</text>
<text text-anchor="start" x="8" y="-208" font-family="Helvetica,sans-Serif" font-size="10.00">::VertexShader::Output</text>
<text text-anchor="middle" x="63.5" y="-196" font-family="Helvetica,sans-Serif" font-size="10.00">::operator*</text>
</a>
</g>
</g>
<!-- Node1&#45;&gt;Node2 -->
<g id="edge1" class="edge">
<title>Node1&#45;&gt;Node2</title>
<path fill="none" stroke="midnightblue" d="M185.28,-144.14C167.68,-155.84 146.61,-169.32 127,-180.5 121.63,-183.56 115.93,-186.63 110.22,-189.59"/>
<polygon fill="midnightblue" stroke="midnightblue" points="186.78,-146.68 193.14,-138.2 182.88,-140.86 186.78,-146.68"/>
</g>
<!-- Node3 -->
<g id="node3" class="node">
<title>Node3</title>
<g id="a_node3"><a xlink:href="class_vertex_position_color_effect_1_1_vertex_shader_1_1_output.html#a37948199eed7430b9e76911eadd2e3b3" target="_top" xlink:title=" ">
<polygon fill="none" stroke="black" points="0,-126.5 0,-170.5 127,-170.5 127,-126.5 0,-126.5"/>
<text text-anchor="start" x="8" y="-157" font-family="Helvetica,sans-Serif" font-size="10.00">VertexPositionColorEffect</text>
<text text-anchor="start" x="8" y="-145" font-family="Helvetica,sans-Serif" font-size="10.00">::VertexShader::Output</text>
<text text-anchor="middle" x="63.5" y="-133" font-family="Helvetica,sans-Serif" font-size="10.00">::operator+</text>
</a>
</g>
</g>
<!-- Node1&#45;&gt;Node3 -->
<g id="edge2" class="edge">
<title>Node1&#45;&gt;Node3</title>
<path fill="none" stroke="midnightblue" d="M152.49,-131.01C143.93,-132.71 135.25,-134.44 126.85,-136.11"/>
<polygon fill="midnightblue" stroke="midnightblue" points="153.13,-134.25 162.25,-128.87 151.76,-127.39 153.13,-134.25"/>
</g>
<!-- Node4 -->
<g id="node4" class="node">
<title>Node4</title>
<g id="a_node4"><a xlink:href="class_vertex_position_color_effect_1_1_vertex_shader_1_1_output.html#a436f3c22f2892914ee1ae211017fafb6" target="_top" xlink:title=" ">
<polygon fill="none" stroke="black" points="0,-63.5 0,-107.5 127,-107.5 127,-63.5 0,-63.5"/>
<text text-anchor="start" x="8" y="-94" font-family="Helvetica,sans-Serif" font-size="10.00">VertexPositionColorEffect</text>
<text text-anchor="start" x="8" y="-82" font-family="Helvetica,sans-Serif" font-size="10.00">::VertexShader::Output</text>
<text text-anchor="middle" x="63.5" y="-70" font-family="Helvetica,sans-Serif" font-size="10.00">::operator&#45;</text>
</a>
</g>
</g>
<!-- Node1&#45;&gt;Node4 -->
<g id="edge3" class="edge">
<title>Node1&#45;&gt;Node4</title>
<path fill="none" stroke="midnightblue" d="M152.49,-102.44C143.93,-100.79 135.25,-99.12 126.85,-97.5"/>
<polygon fill="midnightblue" stroke="midnightblue" points="151.77,-106.06 162.25,-104.51 153.1,-99.19 151.77,-106.06"/>
</g>
<!-- Node5 -->
<g id="node5" class="node">
<title>Node5</title>
<g id="a_node5"><a xlink:href="class_vertex_position_color_effect_1_1_vertex_shader_1_1_output.html#a7d541ee2893f9458b4ee9cce7e29034e" target="_top" xlink:title=" ">
<polygon fill="none" stroke="black" points="0,-0.5 0,-44.5 127,-44.5 127,-0.5 0,-0.5"/>
<text text-anchor="start" x="8" y="-31" font-family="Helvetica,sans-Serif" font-size="10.00">VertexPositionColorEffect</text>
<text text-anchor="start" x="8" y="-19" font-family="Helvetica,sans-Serif" font-size="10.00">::VertexShader::Output</text>
<text text-anchor="middle" x="63.5" y="-7" font-family="Helvetica,sans-Serif" font-size="10.00">::operator/</text>
</a>
</g>
</g>
<!-- Node1&#45;&gt;Node5 -->
<g id="edge4" class="edge">
<title>Node1&#45;&gt;Node5</title>
<path fill="none" stroke="midnightblue" d="M183,-88.6C165.82,-77.62 145.67,-65.13 127,-54.5 121.07,-51.12 114.74,-47.69 108.47,-44.39"/>
<polygon fill="midnightblue" stroke="midnightblue" points="180.91,-92.05 191.21,-94.52 184.69,-86.17 180.91,-92.05"/>
</g>
</g>
</svg>
