<?xml version="1.0" encoding="UTF-8" standalone="no"?>
<!DOCTYPE svg PUBLIC "-//W3C//DTD SVG 1.1//EN"
 "http://www.w3.org/Graphics/SVG/1.1/DTD/svg11.dtd">
<!-- Generated by graphviz version 8.1.0 (20230707.0739)
 -->
<!-- Title: Vector3::GetHadamard Pages: 1 -->
<svg width="303pt" height="92pt"
 viewBox="0.00 0.00 302.50 92.00" xmlns="http://www.w3.org/2000/svg" xmlns:xlink="http://www.w3.org/1999/xlink">
<g id="graph0" class="graph" transform="scale(1 1) rotate(0) translate(4 88)">
<title>Vector3::GetHadamard</title>
<!-- Node1 -->
<g id="node1" class="node">
<title>Node1</title>
<g id="a_node1"><a xlink:title=" ">
<polygon fill="#bfbfbf" stroke="black" points="178.75,-31.5 178.75,-51.5 294.5,-51.5 294.5,-31.5 178.75,-31.5"/>
<text text-anchor="middle" x="236.62" y="-38" font-family="Helvetica,sans-Serif" font-size="10.00">Vector3::GetHadamard</text>
</a>
</g>
</g>
<!-- Node2 -->
<g id="node2" class="node">
<title>Node2</title>
<g id="a_node2"><a xlink:href="class_vertex_flat_effect_1_1_vertex_shader.html#a5730ea8d60ef2a0d7a80ccfdd6996918" target="_top" xlink:title=" ">
<polygon fill="none" stroke="black" points="11.25,-51.5 11.25,-83.5 131.5,-83.5 131.5,-51.5 11.25,-51.5"/>
<text text-anchor="start" x="19.25" y="-70" font-family="Helvetica,sans-Serif" font-size="10.00">VertexFlatEffect::Vertex</text>
<text text-anchor="middle" x="71.38" y="-58" font-family="Helvetica,sans-Serif" font-size="10.00">Shader::operator()</text>
</a>
</g>
</g>
<!-- Node1&#45;&gt;Node2 -->
<g id="edge1" class="edge">
<title>Node1&#45;&gt;Node2</title>
<path fill="none" stroke="midnightblue" d="M168.36,-52.21C156.11,-54.16 143.4,-56.19 131.41,-58.1"/>
<polygon fill="midnightblue" stroke="midnightblue" points="168.66,-55.55 177.99,-50.52 167.56,-48.64 168.66,-55.55"/>
</g>
<!-- Node3 -->
<g id="node3" class="node">
<title>Node3</title>
<g id="a_node3"><a xlink:href="class_geometry_flat_effect_1_1_geometry_shader.html#a84bd7b52ddfb6c22dfe57eaacdf7a50f" target="_top" xlink:title=" ">
<polygon fill="none" stroke="black" points="0,-0.5 0,-32.5 142.75,-32.5 142.75,-0.5 0,-0.5"/>
<text text-anchor="start" x="8" y="-19" font-family="Helvetica,sans-Serif" font-size="10.00">GeometryFlatEffect</text>
<text text-anchor="middle" x="71.38" y="-7" font-family="Helvetica,sans-Serif" font-size="10.00">::GeometryShader::operator()</text>
</a>
</g>
</g>
<!-- Node1&#45;&gt;Node3 -->
<g id="edge2" class="edge">
<title>Node1&#45;&gt;Node3</title>
<path fill="none" stroke="midnightblue" d="M168.12,-31.16C159.73,-29.88 151.15,-28.56 142.72,-27.27"/>
<polygon fill="midnightblue" stroke="midnightblue" points="167.57,-34.77 177.99,-32.83 168.63,-27.85 167.57,-34.77"/>
</g>
</g>
</svg>
