<?xml version="1.0" encoding="UTF-8" standalone="no"?>
<!DOCTYPE svg PUBLIC "-//W3C//DTD SVG 1.1//EN"
 "http://www.w3.org/Graphics/SVG/1.1/DTD/svg11.dtd">
<!-- Generated by graphviz version 8.1.0 (20230707.0739)
 -->
<!-- Title: Keyboard::KeyIsPressed Pages: 1 -->
<svg width="366pt" height="158pt"
 viewBox="0.00 0.00 365.75 158.00" xmlns="http://www.w3.org/2000/svg" xmlns:xlink="http://www.w3.org/1999/xlink">
<g id="graph0" class="graph" transform="scale(1 1) rotate(0) translate(4 154)">
<title>Keyboard::KeyIsPressed</title>
<!-- Node1 -->
<g id="node1" class="node">
<title>Node1</title>
<g id="a_node1"><a xlink:title=" ">
<polygon fill="#bfbfbf" stroke="black" points="233.75,-67.5 233.75,-87.5 357.75,-87.5 357.75,-67.5 233.75,-67.5"/>
<text text-anchor="middle" x="295.75" y="-74" font-family="Helvetica,sans-Serif" font-size="10.00">Keyboard::KeyIsPressed</text>
</a>
</g>
</g>
<!-- Node2 -->
<g id="node2" class="node">
<title>Node2</title>
<g id="a_node2"><a xlink:href="class_cube_skin_scene.html#a291519be4aae4268c5b6cdb4b9fc864a" target="_top" xlink:title=" ">
<polygon fill="none" stroke="black" points="74.12,-129.5 74.12,-149.5 196.62,-149.5 196.62,-129.5 74.12,-129.5"/>
<text text-anchor="middle" x="135.38" y="-136" font-family="Helvetica,sans-Serif" font-size="10.00">CubeSkinScene::Update</text>
</a>
</g>
</g>
<!-- Node1&#45;&gt;Node2 -->
<g id="edge1" class="edge">
<title>Node1&#45;&gt;Node2</title>
<path fill="none" stroke="midnightblue" d="M264.39,-92.06C245.45,-100.86 220.45,-111.99 197.75,-120.5 189.19,-123.71 179.81,-126.81 171.02,-129.55"/>
<polygon fill="midnightblue" stroke="midnightblue" points="265.66,-94.86 273.23,-87.44 262.69,-88.52 265.66,-94.86"/>
</g>
<!-- Node3 -->
<g id="node3" class="node">
<title>Node3</title>
<g id="a_node3"><a xlink:href="class_cube_solid_scene.html#a2c58f00b9630b056326c6d753e535fdf" target="_top" xlink:title=" ">
<polygon fill="none" stroke="black" points="73,-90.5 73,-110.5 197.75,-110.5 197.75,-90.5 73,-90.5"/>
<text text-anchor="middle" x="135.38" y="-97" font-family="Helvetica,sans-Serif" font-size="10.00">CubeSolidScene::Update</text>
</a>
</g>
</g>
<!-- Node1&#45;&gt;Node3 -->
<g id="edge2" class="edge">
<title>Node1&#45;&gt;Node3</title>
<path fill="none" stroke="midnightblue" d="M223.2,-87.89C214.62,-89.14 205.93,-90.4 197.51,-91.62"/>
<polygon fill="midnightblue" stroke="midnightblue" points="223.58,-91.23 232.97,-86.33 222.57,-84.3 223.58,-91.23"/>
</g>
<!-- Node4 -->
<g id="node4" class="node">
<title>Node4</title>
<g id="a_node4"><a xlink:href="class_cube_vertex_color_scene.html#aa27efa84023993c57c5b32497dc6aca3" target="_top" xlink:title=" ">
<polygon fill="none" stroke="black" points="76.75,-39.5 76.75,-71.5 194,-71.5 194,-39.5 76.75,-39.5"/>
<text text-anchor="start" x="84.75" y="-58" font-family="Helvetica,sans-Serif" font-size="10.00">CubeVertexColorScene</text>
<text text-anchor="middle" x="135.38" y="-46" font-family="Helvetica,sans-Serif" font-size="10.00">::Update</text>
</a>
</g>
</g>
<!-- Node1&#45;&gt;Node4 -->
<g id="edge3" class="edge">
<title>Node1&#45;&gt;Node4</title>
<path fill="none" stroke="midnightblue" d="M223.35,-67.58C213.48,-66.21 203.44,-64.82 193.87,-63.49"/>
<polygon fill="midnightblue" stroke="midnightblue" points="222.58,-71.15 232.97,-69.06 223.55,-64.21 222.58,-71.15"/>
</g>
<!-- Node5 -->
<g id="node5" class="node">
<title>Node5</title>
<g id="a_node5"><a xlink:href="class_engine.html#a56cc30926ee112fbf83bfa4083d3af79" target="_top" xlink:title=" ">
<polygon fill="none" stroke="black" points="80.88,-0.5 80.88,-20.5 189.88,-20.5 189.88,-0.5 80.88,-0.5"/>
<text text-anchor="middle" x="135.38" y="-7" font-family="Helvetica,sans-Serif" font-size="10.00">Engine::UpdateModel</text>
</a>
</g>
</g>
<!-- Node1&#45;&gt;Node5 -->
<g id="edge4" class="edge">
<title>Node1&#45;&gt;Node5</title>
<path fill="none" stroke="midnightblue" d="M266.55,-62.57C247.44,-52.77 221.44,-40.05 197.75,-30.5 188.81,-26.9 178.95,-23.46 169.8,-20.48"/>
<polygon fill="midnightblue" stroke="midnightblue" points="264.65,-66.05 275.13,-67.54 267.87,-59.83 264.65,-66.05"/>
</g>
<!-- Node6 -->
<g id="node6" class="node">
<title>Node6</title>
<g id="a_node6"><a xlink:href="_main_8cpp.html#a0ddf1224851353fc92bfbff6f499fa97" target="_top" xlink:title=" ">
<polygon fill="none" stroke="black" points="0,-0.5 0,-20.5 37,-20.5 37,-0.5 0,-0.5"/>
<text text-anchor="middle" x="18.5" y="-7" font-family="Helvetica,sans-Serif" font-size="10.00">main</text>
</a>
</g>
</g>
<!-- Node5&#45;&gt;Node6 -->
<g id="edge5" class="edge">
<title>Node5&#45;&gt;Node6</title>
<path fill="none" stroke="midnightblue" d="M70.13,-10.5C57.86,-10.5 46,-10.5 36.85,-10.5"/>
<polygon fill="midnightblue" stroke="midnightblue" points="69.97,-14 79.97,-10.5 69.97,-7 69.97,-14"/>
</g>
</g>
</svg>
