<?xml version="1.0" encoding="UTF-8" standalone="no"?>
<!DOCTYPE svg PUBLIC "-//W3C//DTD SVG 1.1//EN"
 "http://www.w3.org/Graphics/SVG/1.1/DTD/svg11.dtd">
<!-- Generated by graphviz version 8.1.0 (20230707.0739)
 -->
<!-- Title: Vector2::Vector2 Pages: 1 -->
<svg width="389pt" height="185pt"
 viewBox="0.00 0.00 389.00 185.00" xmlns="http://www.w3.org/2000/svg" xmlns:xlink="http://www.w3.org/1999/xlink">
<g id="graph0" class="graph" transform="scale(1 1) rotate(0) translate(4 181)">
<title>Vector2::Vector2</title>
<!-- Node1 -->
<g id="node1" class="node">
<title>Node1</title>
<g id="a_node1"><a xlink:title=" ">
<polygon fill="#bfbfbf" stroke="black" points="291.5,-78.5 291.5,-98.5 381,-98.5 381,-78.5 291.5,-78.5"/>
<text text-anchor="middle" x="336.25" y="-85" font-family="Helvetica,sans-Serif" font-size="10.00">Vector2::Vector2</text>
</a>
</g>
</g>
<!-- Node2 -->
<g id="node2" class="node">
<title>Node2</title>
<g id="a_node2"><a xlink:href="class_vector2.html#a09d30ae647f4a35a5abd61f14e002126" target="_top" xlink:title=" ">
<polygon fill="none" stroke="black" points="135.25,-156.5 135.25,-176.5 255.5,-176.5 255.5,-156.5 135.25,-156.5"/>
<text text-anchor="middle" x="195.38" y="-163" font-family="Helvetica,sans-Serif" font-size="10.00">Vector2::GetNormalized</text>
</a>
</g>
</g>
<!-- Node1&#45;&gt;Node2 -->
<g id="edge1" class="edge">
<title>Node1&#45;&gt;Node2</title>
<path fill="none" stroke="midnightblue" d="M316.21,-105.38C300.76,-118.38 277.92,-136 255.5,-147.5 248.69,-150.99 241.11,-154.01 233.71,-156.55"/>
<polygon fill="midnightblue" stroke="midnightblue" points="318.1,-107.52 323.4,-98.35 313.54,-102.21 318.1,-107.52"/>
</g>
<!-- Node4 -->
<g id="node4" class="node">
<title>Node4</title>
<g id="a_node4"><a xlink:href="class_vector2.html#a9005f3cabd87e331759a1bbe370a542f" target="_top" xlink:title=" ">
<polygon fill="none" stroke="black" points="148,-117.5 148,-137.5 242.75,-137.5 242.75,-117.5 148,-117.5"/>
<text text-anchor="middle" x="195.38" y="-124" font-family="Helvetica,sans-Serif" font-size="10.00">Vector2::operator*</text>
</a>
</g>
</g>
<!-- Node1&#45;&gt;Node4 -->
<g id="edge3" class="edge">
<title>Node1&#45;&gt;Node4</title>
<path fill="none" stroke="midnightblue" d="M289.43,-101.37C270.65,-106.64 249.25,-112.65 231.71,-117.58"/>
<polygon fill="midnightblue" stroke="midnightblue" points="290.17,-104.52 298.85,-98.44 288.27,-97.78 290.17,-104.52"/>
</g>
<!-- Node5 -->
<g id="node5" class="node">
<title>Node5</title>
<g id="a_node5"><a xlink:href="class_vector2.html#a38fedb734b38196a3bad5578115cc353" target="_top" xlink:title=" ">
<polygon fill="none" stroke="black" points="146.88,-78.5 146.88,-98.5 243.88,-98.5 243.88,-78.5 146.88,-78.5"/>
<text text-anchor="middle" x="195.38" y="-85" font-family="Helvetica,sans-Serif" font-size="10.00">Vector2::operator+</text>
</a>
</g>
</g>
<!-- Node1&#45;&gt;Node5 -->
<g id="edge4" class="edge">
<title>Node1&#45;&gt;Node5</title>
<path fill="none" stroke="midnightblue" d="M281.05,-88.5C268.7,-88.5 255.67,-88.5 243.63,-88.5"/>
<polygon fill="midnightblue" stroke="midnightblue" points="280.69,-92 290.69,-88.5 280.69,-85 280.69,-92"/>
</g>
<!-- Node6 -->
<g id="node6" class="node">
<title>Node6</title>
<g id="a_node6"><a xlink:href="class_vector2.html#aceee2beba2c62006a79861df898994b5" target="_top" xlink:title=" ">
<polygon fill="none" stroke="black" points="148.38,-39.5 148.38,-59.5 242.38,-59.5 242.38,-39.5 148.38,-39.5"/>
<text text-anchor="middle" x="195.38" y="-46" font-family="Helvetica,sans-Serif" font-size="10.00">Vector2::operator&#45;</text>
</a>
</g>
</g>
<!-- Node1&#45;&gt;Node6 -->
<g id="edge5" class="edge">
<title>Node1&#45;&gt;Node6</title>
<path fill="none" stroke="midnightblue" d="M289.43,-75.63C270.65,-70.36 249.25,-64.35 231.71,-59.42"/>
<polygon fill="midnightblue" stroke="midnightblue" points="288.27,-79.22 298.85,-78.56 290.17,-72.48 288.27,-79.22"/>
</g>
<!-- Node7 -->
<g id="node7" class="node">
<title>Node7</title>
<g id="a_node7"><a xlink:href="class_vector2.html#af0c5cd6dd34ccf30dbd0b6fcdbf450ec" target="_top" xlink:title=" ">
<polygon fill="none" stroke="black" points="148.38,-0.5 148.38,-20.5 242.38,-20.5 242.38,-0.5 148.38,-0.5"/>
<text text-anchor="middle" x="195.38" y="-7" font-family="Helvetica,sans-Serif" font-size="10.00">Vector2::operator/</text>
</a>
</g>
</g>
<!-- Node1&#45;&gt;Node7 -->
<g id="edge6" class="edge">
<title>Node1&#45;&gt;Node7</title>
<path fill="none" stroke="midnightblue" d="M315.85,-71.8C300.35,-59.11 277.62,-41.94 255.5,-30.5 247.99,-26.62 239.57,-23.24 231.49,-20.43"/>
<polygon fill="midnightblue" stroke="midnightblue" points="313.17,-74.95 323.09,-78.67 317.66,-69.58 313.17,-74.95"/>
</g>
<!-- Node3 -->
<g id="node3" class="node">
<title>Node3</title>
<g id="a_node3"><a xlink:href="class_vector2.html#a1819f7de2632070f87e07f5714d0aa4d" target="_top" xlink:title=" ">
<polygon fill="none" stroke="black" points="0,-156.5 0,-176.5 99.25,-176.5 99.25,-156.5 0,-156.5"/>
<text text-anchor="middle" x="49.62" y="-163" font-family="Helvetica,sans-Serif" font-size="10.00">Vector2::Normalize</text>
</a>
</g>
</g>
<!-- Node2&#45;&gt;Node3 -->
<g id="edge2" class="edge">
<title>Node2&#45;&gt;Node3</title>
<path fill="none" stroke="midnightblue" d="M124.62,-166.5C115.99,-166.5 107.33,-166.5 99.11,-166.5"/>
<polygon fill="midnightblue" stroke="midnightblue" points="124.49,-170 134.49,-166.5 124.49,-163 124.49,-170"/>
</g>
</g>
</svg>
