<?xml version="1.0" encoding="UTF-8" standalone="no"?>
<!DOCTYPE svg PUBLIC "-//W3C//DTD SVG 1.1//EN"
 "http://www.w3.org/Graphics/SVG/1.1/DTD/svg11.dtd">
<!-- Generated by graphviz version 2.43.0 (0)
 -->
<!-- Title: EngineException::GetLocation Pages: 1 -->
<svg width="339pt" height="88pt"
 viewBox="0.00 0.00 339.00 88.00" xmlns="http://www.w3.org/2000/svg" xmlns:xlink="http://www.w3.org/1999/xlink">
<g id="graph0" class="graph" transform="scale(1 1) rotate(0) translate(4 84)">
<title>EngineException::GetLocation</title>
<!-- Node1 -->
<g id="node1" class="node">
<title>Node1</title>
<g id="a_node1"><a xlink:title=" ">
<polygon fill="#bfbfbf" stroke="black" points="169,-30 169,-49 331,-49 331,-30 169,-30"/>
<text text-anchor="middle" x="250" y="-37" font-family="Helvetica,sans-Serif" font-size="10.00">EngineException::GetLocation</text>
</a>
</g>
</g>
<!-- Node2 -->
<g id="node2" class="node">
<title>Node2</title>
<g id="a_node2"><a xlink:href="classMainWindow_1_1Exception.html#ad9a8d257f6b90c608794227275d215d6" target="_top" xlink:title=" ">
<polygon fill="none" stroke="black" points="0,-49.5 0,-79.5 133,-79.5 133,-49.5 0,-49.5"/>
<text text-anchor="start" x="8" y="-67.5" font-family="Helvetica,sans-Serif" font-size="10.00">MainWindow::Exception</text>
<text text-anchor="middle" x="66.5" y="-56.5" font-family="Helvetica,sans-Serif" font-size="10.00">::GetFullMessage</text>
</a>
</g>
</g>
<!-- Node1&#45;&gt;Node2 -->
<g id="edge1" class="edge">
<title>Node1&#45;&gt;Node2</title>
<path fill="none" stroke="midnightblue" d="M169.7,-50.42C157.5,-52.1 145.02,-53.82 133.15,-55.46"/>
<polygon fill="midnightblue" stroke="midnightblue" points="170.44,-53.85 179.86,-49.02 169.48,-46.92 170.44,-53.85"/>
</g>
<!-- Node3 -->
<g id="node3" class="node">
<title>Node3</title>
<g id="a_node3"><a xlink:href="classSurface_1_1Exception.html#a329c52bca9383bc73a4c42a299ede32d" target="_top" xlink:title=" ">
<polygon fill="none" stroke="black" points="13,-0.5 13,-30.5 120,-30.5 120,-0.5 13,-0.5"/>
<text text-anchor="start" x="21" y="-18.5" font-family="Helvetica,sans-Serif" font-size="10.00">Surface::Exception</text>
<text text-anchor="middle" x="66.5" y="-7.5" font-family="Helvetica,sans-Serif" font-size="10.00">::GetFullMessage</text>
</a>
</g>
</g>
<!-- Node1&#45;&gt;Node3 -->
<g id="edge2" class="edge">
<title>Node1&#45;&gt;Node3</title>
<path fill="none" stroke="midnightblue" d="M166.67,-28.61C150.84,-26.52 134.66,-24.38 120.09,-22.45"/>
<polygon fill="midnightblue" stroke="midnightblue" points="166.63,-32.14 177.01,-29.98 167.55,-25.2 166.63,-32.14"/>
</g>
</g>
</svg>
