<?xml version="1.0" encoding="UTF-8" standalone="no"?>
<!DOCTYPE svg PUBLIC "-//W3C//DTD SVG 1.1//EN"
 "http://www.w3.org/Graphics/SVG/1.1/DTD/svg11.dtd">
<!-- Generated by graphviz version 8.1.0 (20230707.0739)
 -->
<!-- Title: Color::GetX Pages: 1 -->
<svg width="329pt" height="29pt"
 viewBox="0.00 0.00 329.00 29.00" xmlns="http://www.w3.org/2000/svg" xmlns:xlink="http://www.w3.org/1999/xlink">
<g id="graph0" class="graph" transform="scale(1 1) rotate(0) translate(4 25)">
<title>Color::GetX</title>
<!-- Node1 -->
<g id="node1" class="node">
<title>Node1</title>
<g id="a_node1"><a xlink:title=" ">
<polygon fill="#bfbfbf" stroke="black" points="255.5,-0.5 255.5,-20.5 321,-20.5 321,-0.5 255.5,-0.5"/>
<text text-anchor="middle" x="288.25" y="-7" font-family="Helvetica,sans-Serif" font-size="10.00">Color::GetX</text>
</a>
</g>
</g>
<!-- Node2 -->
<g id="node2" class="node">
<title>Node2</title>
<g id="a_node2"><a xlink:href="class_color.html#a196c393b4fd25f7a354555e68f102598" target="_top" xlink:title=" ">
<polygon fill="none" stroke="black" points="152.5,-0.5 152.5,-20.5 219.5,-20.5 219.5,-0.5 152.5,-0.5"/>
<text text-anchor="middle" x="186" y="-7" font-family="Helvetica,sans-Serif" font-size="10.00">Color::GetA</text>
</a>
</g>
</g>
<!-- Node1&#45;&gt;Node2 -->
<g id="edge1" class="edge">
<title>Node1&#45;&gt;Node2</title>
<path fill="none" stroke="midnightblue" d="M244.6,-10.5C236.09,-10.5 227.29,-10.5 219.2,-10.5"/>
<polygon fill="midnightblue" stroke="midnightblue" points="244.53,-14 254.53,-10.5 244.53,-7 244.53,-14"/>
</g>
<!-- Node3 -->
<g id="node3" class="node">
<title>Node3</title>
<g id="a_node3"><a xlink:href="class_surface.html#a187f57fb4942d79ce17a84f17efac54c" target="_top" xlink:title=" ">
<polygon fill="none" stroke="black" points="0,-0.5 0,-20.5 116.5,-20.5 116.5,-0.5 0,-0.5"/>
<text text-anchor="middle" x="58.25" y="-7" font-family="Helvetica,sans-Serif" font-size="10.00">Surface::PutPixelAlpha</text>
</a>
</g>
</g>
<!-- Node2&#45;&gt;Node3 -->
<g id="edge2" class="edge">
<title>Node2&#45;&gt;Node3</title>
<path fill="none" stroke="midnightblue" d="M141.82,-10.5C133.63,-10.5 124.95,-10.5 116.41,-10.5"/>
<polygon fill="midnightblue" stroke="midnightblue" points="141.62,-14 151.62,-10.5 141.62,-7 141.62,-14"/>
</g>
</g>
</svg>
