<?xml version="1.0" encoding="UTF-8" standalone="no"?>
<!DOCTYPE svg PUBLIC "-//W3C//DTD SVG 1.1//EN"
 "http://www.w3.org/Graphics/SVG/1.1/DTD/svg11.dtd">
<!-- Generated by graphviz version 2.43.0 (0)
 -->
<!-- Title: Graphics::DrawLine Pages: 1 -->
<svg width="393pt" height="28pt"
 viewBox="0.00 0.00 393.00 28.00" xmlns="http://www.w3.org/2000/svg" xmlns:xlink="http://www.w3.org/1999/xlink">
<g id="graph0" class="graph" transform="scale(1 1) rotate(0) translate(4 24)">
<title>Graphics::DrawLine</title>
<!-- Node1 -->
<g id="node1" class="node">
<title>Node1</title>
<g id="a_node1"><a xlink:title=" ">
<polygon fill="#bfbfbf" stroke="black" points="0,-0.5 0,-19.5 111,-19.5 111,-0.5 0,-0.5"/>
<text text-anchor="middle" x="55.5" y="-7.5" font-family="Helvetica,sans-Serif" font-size="10.00">Graphics::DrawLine</text>
</a>
</g>
</g>
<!-- Node2 -->
<g id="node2" class="node">
<title>Node2</title>
<g id="a_node2"><a xlink:href="classGraphics.html#a69fae0334426fd8a8a271d9843d4f7fe" target="_top" xlink:title=" ">
<polygon fill="none" stroke="black" points="147,-0.5 147,-19.5 251,-19.5 251,-0.5 147,-0.5"/>
<text text-anchor="middle" x="199" y="-7.5" font-family="Helvetica,sans-Serif" font-size="10.00">Graphics::PutPixel</text>
</a>
</g>
</g>
<!-- Node1&#45;&gt;Node2 -->
<g id="edge1" class="edge">
<title>Node1&#45;&gt;Node2</title>
<path fill="none" stroke="midnightblue" d="M111.21,-10C119.5,-10 128.1,-10 136.53,-10"/>
<polygon fill="midnightblue" stroke="midnightblue" points="136.69,-13.5 146.69,-10 136.69,-6.5 136.69,-13.5"/>
</g>
<!-- Node3 -->
<g id="node3" class="node">
<title>Node3</title>
<g id="a_node3"><a xlink:href="classSurface.html#ad95a03761aaa5229eab2a500441eb322" target="_top" xlink:title=" ">
<polygon fill="none" stroke="black" points="287,-0.5 287,-19.5 385,-19.5 385,-0.5 287,-0.5"/>
<text text-anchor="middle" x="336" y="-7.5" font-family="Helvetica,sans-Serif" font-size="10.00">Surface::PutPixel</text>
</a>
</g>
</g>
<!-- Node2&#45;&gt;Node3 -->
<g id="edge2" class="edge">
<title>Node2&#45;&gt;Node3</title>
<path fill="none" stroke="midnightblue" d="M251.04,-10C259.32,-10 267.95,-10 276.4,-10"/>
<polygon fill="midnightblue" stroke="midnightblue" points="276.57,-13.5 286.57,-10 276.57,-6.5 276.57,-13.5"/>
</g>
</g>
</svg>
