<?xml version="1.0" encoding="UTF-8" standalone="no"?>
<!DOCTYPE svg PUBLIC "-//W3C//DTD SVG 1.1//EN"
 "http://www.w3.org/Graphics/SVG/1.1/DTD/svg11.dtd">
<!-- Generated by graphviz version 8.1.0 (20230707.0739)
 -->
<!-- Title: Keyboard::Flush Pages: 1 -->
<svg width="239pt" height="68pt"
 viewBox="0.00 0.00 238.75 68.00" xmlns="http://www.w3.org/2000/svg" xmlns:xlink="http://www.w3.org/1999/xlink">
<g id="graph0" class="graph" transform="scale(1 1) rotate(0) translate(4 64)">
<title>Keyboard::Flush</title>
<!-- Node1 -->
<g id="node1" class="node">
<title>Node1</title>
<g id="a_node1"><a xlink:title=" ">
<polygon fill="#bfbfbf" stroke="black" points="0,-19.5 0,-39.5 87.25,-39.5 87.25,-19.5 0,-19.5"/>
<text text-anchor="middle" x="43.62" y="-26" font-family="Helvetica,sans-Serif" font-size="10.00">Keyboard::Flush</text>
</a>
</g>
</g>
<!-- Node2 -->
<g id="node2" class="node">
<title>Node2</title>
<g id="a_node2"><a xlink:href="class_keyboard.html#a430a9e57d9bf9cfd639ceb38211dd300" target="_top" xlink:title=" ">
<polygon fill="none" stroke="black" points="123.25,-39.5 123.25,-59.5 230.75,-59.5 230.75,-39.5 123.25,-39.5"/>
<text text-anchor="middle" x="177" y="-46" font-family="Helvetica,sans-Serif" font-size="10.00">Keyboard::FlushChar</text>
</a>
</g>
</g>
<!-- Node1&#45;&gt;Node2 -->
<g id="edge1" class="edge">
<title>Node1&#45;&gt;Node2</title>
<path fill="none" stroke="midnightblue" d="M86.92,-35.94C95.24,-37.2 104.13,-38.56 112.96,-39.9"/>
<polygon fill="midnightblue" stroke="midnightblue" points="112.25,-43.49 122.66,-41.53 113.3,-36.57 112.25,-43.49"/>
</g>
<!-- Node3 -->
<g id="node3" class="node">
<title>Node3</title>
<g id="a_node3"><a xlink:href="class_keyboard.html#a0c3af372824a60360d0476c3b92bdbfb" target="_top" xlink:title=" ">
<polygon fill="none" stroke="black" points="124.75,-0.5 124.75,-20.5 229.25,-20.5 229.25,-0.5 124.75,-0.5"/>
<text text-anchor="middle" x="177" y="-7" font-family="Helvetica,sans-Serif" font-size="10.00">Keyboard::FlushKey</text>
</a>
</g>
</g>
<!-- Node1&#45;&gt;Node3 -->
<g id="edge2" class="edge">
<title>Node1&#45;&gt;Node3</title>
<path fill="none" stroke="midnightblue" d="M86.92,-23.38C95.65,-22.12 105.02,-20.77 114.28,-19.43"/>
<polygon fill="midnightblue" stroke="midnightblue" points="114.67,-22.76 124.06,-17.87 113.67,-15.83 114.67,-22.76"/>
</g>
</g>
</svg>
