<?xml version="1.0" encoding="UTF-8" standalone="no"?>
<!DOCTYPE svg PUBLIC "-//W3C//DTD SVG 1.1//EN"
 "http://www.w3.org/Graphics/SVG/1.1/DTD/svg11.dtd">
<!-- Generated by graphviz version 8.1.0 (20230707.0739)
 -->
<!-- Title: CubeSkinScene::Draw Pages: 1 -->
<svg width="281pt" height="260pt"
 viewBox="0.00 0.00 280.75 260.00" xmlns="http://www.w3.org/2000/svg" xmlns:xlink="http://www.w3.org/1999/xlink">
<g id="graph0" class="graph" transform="scale(1 1) rotate(0) translate(4 256)">
<title>CubeSkinScene::Draw</title>
<!-- Node1 -->
<g id="node1" class="node">
<title>Node1</title>
<g id="a_node1"><a xlink:title=" ">
<polygon fill="#bfbfbf" stroke="black" points="0,-121.5 0,-141.5 113.5,-141.5 113.5,-121.5 0,-121.5"/>
<text text-anchor="middle" x="56.75" y="-128" font-family="Helvetica,sans-Serif" font-size="10.00">CubeSkinScene::Draw</text>
</a>
</g>
</g>
<!-- Node2 -->
<g id="node2" class="node">
<title>Node2</title>
<g id="a_node2"><a xlink:href="class_pipeline.html#aad524adda7bb538f882dbbf98eb20c1d" target="_top" xlink:title=" ">
<polygon fill="none" stroke="black" points="155.12,-231.5 155.12,-251.5 267.12,-251.5 267.12,-231.5 155.12,-231.5"/>
<text text-anchor="middle" x="211.12" y="-238" font-family="Helvetica,sans-Serif" font-size="10.00">Pipeline::BindRotation</text>
</a>
</g>
</g>
<!-- Node1&#45;&gt;Node2 -->
<g id="edge1" class="edge">
<title>Node1&#45;&gt;Node2</title>
<path fill="none" stroke="midnightblue" d="M64.95,-141.26C79.1,-159.78 112.42,-200.15 149.5,-222.5 152.48,-224.29 155.64,-225.93 158.89,-227.43"/>
<polygon fill="midnightblue" stroke="midnightblue" points="157.27,-230.96 167.86,-231.5 159.92,-224.48 157.27,-230.96"/>
</g>
<!-- Node3 -->
<g id="node3" class="node">
<title>Node3</title>
<g id="a_node3"><a xlink:href="class_pipeline.html#a8292a77189cee1306958bf86ebee73e5" target="_top" xlink:title=" ">
<polygon fill="none" stroke="black" points="149.5,-192.5 149.5,-212.5 272.75,-212.5 272.75,-192.5 149.5,-192.5"/>
<text text-anchor="middle" x="211.12" y="-199" font-family="Helvetica,sans-Serif" font-size="10.00">Pipeline::BindTranslation</text>
</a>
</g>
</g>
<!-- Node1&#45;&gt;Node3 -->
<g id="edge2" class="edge">
<title>Node1&#45;&gt;Node3</title>
<path fill="none" stroke="midnightblue" d="M72.82,-141.37C90.59,-152.68 121.29,-171.25 149.5,-183.5 154.13,-185.51 159.03,-187.41 163.97,-189.17"/>
<polygon fill="midnightblue" stroke="midnightblue" points="162.49,-192.7 173.08,-192.58 164.73,-186.07 162.49,-192.7"/>
</g>
<!-- Node4 -->
<g id="node4" class="node">
<title>Node4</title>
<g id="a_node4"><a xlink:href="class_matrix3.html#a3672400f647456083337d53db6478505" target="_top" xlink:title=" ">
<polygon fill="none" stroke="black" points="151.75,-141.5 151.75,-173.5 270.5,-173.5 270.5,-141.5 151.75,-141.5"/>
<text text-anchor="start" x="159.75" y="-160" font-family="Helvetica,sans-Serif" font-size="10.00">Matrix3&lt; float &gt;::Create</text>
<text text-anchor="middle" x="211.12" y="-148" font-family="Helvetica,sans-Serif" font-size="10.00">XRotationMatrix</text>
</a>
</g>
</g>
<!-- Node1&#45;&gt;Node4 -->
<g id="edge3" class="edge">
<title>Node1&#45;&gt;Node4</title>
<path fill="none" stroke="midnightblue" d="M113.19,-140.96C122.34,-142.52 131.92,-144.16 141.35,-145.77"/>
<polygon fill="midnightblue" stroke="midnightblue" points="140.46,-149.33 150.9,-147.57 141.63,-142.43 140.46,-149.33"/>
</g>
<!-- Node5 -->
<g id="node5" class="node">
<title>Node5</title>
<g id="a_node5"><a xlink:href="class_matrix3.html#ae2e635e8fc49db308a95dde2a5518bbc" target="_top" xlink:title=" ">
<polygon fill="none" stroke="black" points="151.75,-90.5 151.75,-122.5 270.5,-122.5 270.5,-90.5 151.75,-90.5"/>
<text text-anchor="start" x="159.75" y="-109" font-family="Helvetica,sans-Serif" font-size="10.00">Matrix3&lt; float &gt;::Create</text>
<text text-anchor="middle" x="211.12" y="-97" font-family="Helvetica,sans-Serif" font-size="10.00">YRotationMatrix</text>
</a>
</g>
</g>
<!-- Node1&#45;&gt;Node5 -->
<g id="edge4" class="edge">
<title>Node1&#45;&gt;Node5</title>
<path fill="none" stroke="midnightblue" d="M113.19,-122.4C122.24,-120.92 131.72,-119.36 141.05,-117.83"/>
<polygon fill="midnightblue" stroke="midnightblue" points="141.6,-121.13 150.9,-116.05 140.47,-114.22 141.6,-121.13"/>
</g>
<!-- Node6 -->
<g id="node6" class="node">
<title>Node6</title>
<g id="a_node6"><a xlink:href="class_matrix3.html#a7b88435a5d6c183b5b46efa2b6dbcb3a" target="_top" xlink:title=" ">
<polygon fill="none" stroke="black" points="151.75,-39.5 151.75,-71.5 270.5,-71.5 270.5,-39.5 151.75,-39.5"/>
<text text-anchor="start" x="159.75" y="-58" font-family="Helvetica,sans-Serif" font-size="10.00">Matrix3&lt; float &gt;::Create</text>
<text text-anchor="middle" x="211.12" y="-46" font-family="Helvetica,sans-Serif" font-size="10.00">ZRotationMatrix</text>
</a>
</g>
</g>
<!-- Node1&#45;&gt;Node6 -->
<g id="edge5" class="edge">
<title>Node1&#45;&gt;Node6</title>
<path fill="none" stroke="midnightblue" d="M74.75,-121.61C92.98,-111.15 122.9,-94.42 149.5,-81.5 153.33,-79.64 157.33,-77.77 161.36,-75.94"/>
<polygon fill="midnightblue" stroke="midnightblue" points="162.68,-78.73 170.39,-71.47 159.84,-72.34 162.68,-78.73"/>
</g>
<!-- Node7 -->
<g id="node7" class="node">
<title>Node7</title>
<g id="a_node7"><a xlink:href="class_pipeline.html#a76274774f61e4b5a1c708decf65712b9" target="_top" xlink:title=" ">
<polygon fill="none" stroke="black" points="172,-0.5 172,-20.5 250.25,-20.5 250.25,-0.5 172,-0.5"/>
<text text-anchor="middle" x="211.12" y="-7" font-family="Helvetica,sans-Serif" font-size="10.00">Pipeline::Draw</text>
</a>
</g>
</g>
<!-- Node1&#45;&gt;Node7 -->
<g id="edge6" class="edge">
<title>Node1&#45;&gt;Node7</title>
<path fill="none" stroke="midnightblue" d="M64.09,-121.62C77.46,-101.56 110.56,-55.79 149.5,-30.5 153.48,-27.92 157.82,-25.64 162.29,-23.64"/>
<polygon fill="midnightblue" stroke="midnightblue" points="163.21,-26.64 171.2,-19.68 160.61,-20.14 163.21,-26.64"/>
</g>
</g>
</svg>
