<?xml version="1.0" encoding="UTF-8" standalone="no"?>
<!DOCTYPE svg PUBLIC "-//W3C//DTD SVG 1.1//EN"
 "http://www.w3.org/Graphics/SVG/1.1/DTD/svg11.dtd">
<!-- Generated by graphviz version 8.1.0 (20230707.0739)
 -->
<!-- Title: Keyboard::KeyIsPressed Pages: 1 -->
<svg width="394pt" height="440pt"
 viewBox="0.00 0.00 393.50 440.00" xmlns="http://www.w3.org/2000/svg" xmlns:xlink="http://www.w3.org/1999/xlink">
<g id="graph0" class="graph" transform="scale(1 1) rotate(0) translate(4 436)">
<title>Keyboard::KeyIsPressed</title>
<!-- Node1 -->
<g id="node1" class="node">
<title>Node1</title>
<g id="a_node1"><a xlink:title=" ">
<polygon fill="#bfbfbf" stroke="black" points="261.5,-199.5 261.5,-219.5 385.5,-219.5 385.5,-199.5 261.5,-199.5"/>
<text text-anchor="middle" x="323.5" y="-206" font-family="Helvetica,sans-Serif" font-size="10.00">Keyboard::KeyIsPressed</text>
</a>
</g>
</g>
<!-- Node2 -->
<g id="node2" class="node">
<title>Node2</title>
<g id="a_node2"><a xlink:href="class_cube_flat_independent_scene.html#a77daa7f03c9f6225df5e7cba6feee611" target="_top" xlink:title=" ">
<polygon fill="none" stroke="black" points="81.62,-399.5 81.62,-431.5 216.88,-431.5 216.88,-399.5 81.62,-399.5"/>
<text text-anchor="start" x="89.62" y="-418" font-family="Helvetica,sans-Serif" font-size="10.00">CubeFlatIndependentScene</text>
<text text-anchor="middle" x="149.25" y="-406" font-family="Helvetica,sans-Serif" font-size="10.00">::Update</text>
</a>
</g>
</g>
<!-- Node1&#45;&gt;Node2 -->
<g id="edge1" class="edge">
<title>Node1&#45;&gt;Node2</title>
<path fill="none" stroke="midnightblue" d="M317.04,-229.92C306.04,-267.23 277.67,-346.57 225.5,-390.5 221.39,-393.96 216.79,-396.94 211.94,-399.52"/>
<polygon fill="midnightblue" stroke="midnightblue" points="320.67,-230.96 320.01,-220.39 313.93,-229.06 320.67,-230.96"/>
</g>
<!-- Node3 -->
<g id="node3" class="node">
<title>Node3</title>
<g id="a_node3"><a xlink:href="class_cube_skin_scene.html#a291519be4aae4268c5b6cdb4b9fc864a" target="_top" xlink:title=" ">
<polygon fill="none" stroke="black" points="88,-360.5 88,-380.5 210.5,-380.5 210.5,-360.5 88,-360.5"/>
<text text-anchor="middle" x="149.25" y="-367" font-family="Helvetica,sans-Serif" font-size="10.00">CubeSkinScene::Update</text>
</a>
</g>
</g>
<!-- Node1&#45;&gt;Node3 -->
<g id="edge2" class="edge">
<title>Node1&#45;&gt;Node3</title>
<path fill="none" stroke="midnightblue" d="M314.57,-229.24C301.07,-260.22 270.63,-319.99 225.5,-351.5 220.2,-355.2 214.24,-358.18 208.05,-360.59"/>
<polygon fill="midnightblue" stroke="midnightblue" points="318.12,-230.8 318.77,-220.23 311.67,-228.09 318.12,-230.8"/>
</g>
<!-- Node4 -->
<g id="node4" class="node">
<title>Node4</title>
<g id="a_node4"><a xlink:href="class_cube_solid_geometry_scene.html#a4501743d912f6818f264525e806f4f8b" target="_top" xlink:title=" ">
<polygon fill="none" stroke="black" points="83.88,-309.5 83.88,-341.5 214.62,-341.5 214.62,-309.5 83.88,-309.5"/>
<text text-anchor="start" x="91.88" y="-328" font-family="Helvetica,sans-Serif" font-size="10.00">CubeSolidGeometryScene</text>
<text text-anchor="middle" x="149.25" y="-316" font-family="Helvetica,sans-Serif" font-size="10.00">::Update</text>
</a>
</g>
</g>
<!-- Node1&#45;&gt;Node4 -->
<g id="edge3" class="edge">
<title>Node1&#45;&gt;Node4</title>
<path fill="none" stroke="midnightblue" d="M307.57,-227.6C289.91,-247.96 258.68,-280.74 225.5,-300.5 219.82,-303.88 213.63,-306.87 207.31,-309.5"/>
<polygon fill="midnightblue" stroke="midnightblue" points="310.68,-230.35 314.49,-220.47 305.34,-225.82 310.68,-230.35"/>
</g>
<!-- Node5 -->
<g id="node5" class="node">
<title>Node5</title>
<g id="a_node5"><a xlink:href="class_cube_solid_scene.html#a2c58f00b9630b056326c6d753e535fdf" target="_top" xlink:title=" ">
<polygon fill="none" stroke="black" points="86.88,-270.5 86.88,-290.5 211.62,-290.5 211.62,-270.5 86.88,-270.5"/>
<text text-anchor="middle" x="149.25" y="-277" font-family="Helvetica,sans-Serif" font-size="10.00">CubeSolidScene::Update</text>
</a>
</g>
</g>
<!-- Node1&#45;&gt;Node5 -->
<g id="edge4" class="edge">
<title>Node1&#45;&gt;Node5</title>
<path fill="none" stroke="midnightblue" d="M297.74,-224.96C278.61,-236.37 251.14,-251.56 225.5,-261.5 216.45,-265.01 206.54,-268.04 196.97,-270.6"/>
<polygon fill="midnightblue" stroke="midnightblue" points="299.2,-227.57 305.94,-219.39 295.57,-221.58 299.2,-227.57"/>
</g>
<!-- Node6 -->
<g id="node6" class="node">
<title>Node6</title>
<g id="a_node6"><a xlink:href="class_cube_vertex_color_scene.html#aa27efa84023993c57c5b32497dc6aca3" target="_top" xlink:title=" ">
<polygon fill="none" stroke="black" points="90.62,-219.5 90.62,-251.5 207.88,-251.5 207.88,-219.5 90.62,-219.5"/>
<text text-anchor="start" x="98.62" y="-238" font-family="Helvetica,sans-Serif" font-size="10.00">CubeVertexColorScene</text>
<text text-anchor="middle" x="149.25" y="-226" font-family="Helvetica,sans-Serif" font-size="10.00">::Update</text>
</a>
</g>
</g>
<!-- Node1&#45;&gt;Node6 -->
<g id="edge5" class="edge">
<title>Node1&#45;&gt;Node6</title>
<path fill="none" stroke="midnightblue" d="M250.92,-220.3C236.56,-222.47 221.65,-224.72 207.83,-226.81"/>
<polygon fill="midnightblue" stroke="midnightblue" points="251.41,-223.62 260.77,-218.67 250.36,-216.7 251.41,-223.62"/>
</g>
<!-- Node7 -->
<g id="node7" class="node">
<title>Node7</title>
<g id="a_node7"><a xlink:href="class_cube_vertex_position_color_scene.html#a72ce3d23605de3262f97e8e935bd08e0" target="_top" xlink:title=" ">
<polygon fill="none" stroke="black" points="73,-168.5 73,-200.5 225.5,-200.5 225.5,-168.5 73,-168.5"/>
<text text-anchor="start" x="81" y="-187" font-family="Helvetica,sans-Serif" font-size="10.00">CubeVertexPositionColorScene</text>
<text text-anchor="middle" x="149.25" y="-175" font-family="Helvetica,sans-Serif" font-size="10.00">::Update</text>
</a>
</g>
</g>
<!-- Node1&#45;&gt;Node7 -->
<g id="edge6" class="edge">
<title>Node1&#45;&gt;Node7</title>
<path fill="none" stroke="midnightblue" d="M251.09,-199.14C242.55,-197.9 233.81,-196.63 225.22,-195.38"/>
<polygon fill="midnightblue" stroke="midnightblue" points="250.37,-202.71 260.77,-200.69 251.38,-195.79 250.37,-202.71"/>
</g>
<!-- Node8 -->
<g id="node8" class="node">
<title>Node8</title>
<g id="a_node8"><a xlink:href="class_double_cube_scene.html#aa0b545717ab49ff4b4726d15bb8917bb" target="_top" xlink:title=" ">
<polygon fill="none" stroke="black" points="82.75,-129.5 82.75,-149.5 215.75,-149.5 215.75,-129.5 82.75,-129.5"/>
<text text-anchor="middle" x="149.25" y="-136" font-family="Helvetica,sans-Serif" font-size="10.00">DoubleCubeScene::Update</text>
</a>
</g>
</g>
<!-- Node1&#45;&gt;Node8 -->
<g id="edge7" class="edge">
<title>Node1&#45;&gt;Node8</title>
<path fill="none" stroke="midnightblue" d="M296.68,-194.24C277.53,-183.41 250.53,-169.14 225.5,-159.5 215.54,-155.66 204.55,-152.28 194.13,-149.45"/>
<polygon fill="midnightblue" stroke="midnightblue" points="294.77,-197.75 305.18,-199.7 298.26,-191.68 294.77,-197.75"/>
</g>
<!-- Node9 -->
<g id="node9" class="node">
<title>Node9</title>
<g id="a_node9"><a xlink:href="class_geometry_flat_scene.html#a7d045533ea001772a2e575df47500a8f" target="_top" xlink:title=" ">
<polygon fill="none" stroke="black" points="94.75,-78.5 94.75,-110.5 203.75,-110.5 203.75,-78.5 94.75,-78.5"/>
<text text-anchor="start" x="102.75" y="-97" font-family="Helvetica,sans-Serif" font-size="10.00">GeometryFlatScene::</text>
<text text-anchor="middle" x="149.25" y="-85" font-family="Helvetica,sans-Serif" font-size="10.00">Update</text>
</a>
</g>
</g>
<!-- Node1&#45;&gt;Node9 -->
<g id="edge8" class="edge">
<title>Node1&#45;&gt;Node9</title>
<path fill="none" stroke="midnightblue" d="M306.93,-191.31C289.06,-171.44 258.02,-139.88 225.5,-120.5 218.73,-116.47 211.25,-112.94 203.7,-109.89"/>
<polygon fill="midnightblue" stroke="midnightblue" points="303.93,-193.33 313.17,-198.52 309.18,-188.71 303.93,-193.33"/>
</g>
<!-- Node10 -->
<g id="node10" class="node">
<title>Node10</title>
<g id="a_node10"><a xlink:href="class_vertex_wave_scene.html#af914c4150ebb8c531dd5f14c62854e7e" target="_top" xlink:title=" ">
<polygon fill="none" stroke="black" points="82.75,-39.5 82.75,-59.5 215.75,-59.5 215.75,-39.5 82.75,-39.5"/>
<text text-anchor="middle" x="149.25" y="-46" font-family="Helvetica,sans-Serif" font-size="10.00">VertexWaveScene::Update</text>
</a>
</g>
</g>
<!-- Node1&#45;&gt;Node10 -->
<g id="edge9" class="edge">
<title>Node1&#45;&gt;Node10</title>
<path fill="none" stroke="midnightblue" d="M314.24,-189.66C300.48,-159.08 269.89,-100.68 225.5,-69.5 219.53,-65.3 212.73,-61.99 205.71,-59.37"/>
<polygon fill="midnightblue" stroke="midnightblue" points="311.35,-190.79 318.55,-198.57 317.77,-188 311.35,-190.79"/>
</g>
<!-- Node11 -->
<g id="node11" class="node">
<title>Node11</title>
<g id="a_node11"><a xlink:href="class_engine.html#a56cc30926ee112fbf83bfa4083d3af79" target="_top" xlink:title=" ">
<polygon fill="none" stroke="black" points="94.75,-0.5 94.75,-20.5 203.75,-20.5 203.75,-0.5 94.75,-0.5"/>
<text text-anchor="middle" x="149.25" y="-7" font-family="Helvetica,sans-Serif" font-size="10.00">Engine::UpdateModel</text>
</a>
</g>
</g>
<!-- Node1&#45;&gt;Node11 -->
<g id="edge10" class="edge">
<title>Node1&#45;&gt;Node11</title>
<path fill="none" stroke="midnightblue" d="M317.22,-188.99C306.52,-151.6 278.63,-72.33 225.5,-30.5 219.02,-25.4 211.36,-21.59 203.44,-18.76"/>
<polygon fill="midnightblue" stroke="midnightblue" points="314.1,-189.84 320.11,-198.56 320.85,-187.99 314.1,-189.84"/>
</g>
<!-- Node12 -->
<g id="node12" class="node">
<title>Node12</title>
<g id="a_node12"><a xlink:href="_main_8cpp.html#a0ddf1224851353fc92bfbff6f499fa97" target="_top" xlink:title=" ">
<polygon fill="none" stroke="black" points="0,-0.5 0,-20.5 37,-20.5 37,-0.5 0,-0.5"/>
<text text-anchor="middle" x="18.5" y="-7" font-family="Helvetica,sans-Serif" font-size="10.00">main</text>
</a>
</g>
</g>
<!-- Node11&#45;&gt;Node12 -->
<g id="edge11" class="edge">
<title>Node11&#45;&gt;Node12</title>
<path fill="none" stroke="midnightblue" d="M83.99,-10.5C66.6,-10.5 49.2,-10.5 36.87,-10.5"/>
<polygon fill="midnightblue" stroke="midnightblue" points="83.77,-14 93.77,-10.5 83.77,-7 83.77,-14"/>
</g>
</g>
</svg>
