<?xml version="1.0" encoding="UTF-8" standalone="no"?>
<!DOCTYPE svg PUBLIC "-//W3C//DTD SVG 1.1//EN"
 "http://www.w3.org/Graphics/SVG/1.1/DTD/svg11.dtd">
<!-- Generated by graphviz version 8.1.0 (20230707.0739)
 -->
<!-- Title: GeometryFlatEffect::GeometryShader::SetLightDirection Pages: 1 -->
<svg width="753pt" height="99pt"
 viewBox="0.00 0.00 753.25 99.00" xmlns="http://www.w3.org/2000/svg" xmlns:xlink="http://www.w3.org/1999/xlink">
<g id="graph0" class="graph" transform="scale(1 1) rotate(0) translate(4 95)">
<title>GeometryFlatEffect::GeometryShader::SetLightDirection</title>
<!-- Node1 -->
<g id="node1" class="node">
<title>Node1</title>
<g id="a_node1"><a xlink:title=" ">
<polygon fill="#bfbfbf" stroke="black" points="0,-46.5 0,-90.5 137.5,-90.5 137.5,-46.5 0,-46.5"/>
<text text-anchor="start" x="8" y="-77" font-family="Helvetica,sans-Serif" font-size="10.00">GeometryFlatEffect</text>
<text text-anchor="start" x="8" y="-65" font-family="Helvetica,sans-Serif" font-size="10.00">::GeometryShader::SetLight</text>
<text text-anchor="middle" x="68.75" y="-53" font-family="Helvetica,sans-Serif" font-size="10.00">Direction</text>
</a>
</g>
</g>
<!-- Node2 -->
<g id="node2" class="node">
<title>Node2</title>
<g id="a_node2"><a xlink:href="class_vector3.html#a40b58e9af6b19f4fd02e75a7e036c497" target="_top" xlink:title=" ">
<polygon fill="none" stroke="black" points="482.25,-58.5 482.25,-78.5 634.75,-78.5 634.75,-58.5 482.25,-58.5"/>
<text text-anchor="middle" x="558.5" y="-65" font-family="Helvetica,sans-Serif" font-size="10.00">Vector3::GetMagnitudeSquared</text>
</a>
</g>
</g>
<!-- Node1&#45;&gt;Node2 -->
<g id="edge1" class="edge">
<title>Node1&#45;&gt;Node2</title>
<path fill="none" stroke="midnightblue" d="M137.28,-69.25C149.34,-69.35 161.79,-69.44 173.5,-69.5 294.72,-70.08 325.03,-70.04 446.25,-69.5 454.47,-69.46 463.02,-69.41 471.58,-69.35"/>
<polygon fill="midnightblue" stroke="midnightblue" points="471.43,-72.84 481.4,-69.27 471.37,-65.84 471.43,-72.84"/>
</g>
<!-- Node4 -->
<g id="node4" class="node">
<title>Node4</title>
<g id="a_node4"><a xlink:href="class_vector3.html#a1453d64a7a4333b19d6a92b8e61e617e" target="_top" xlink:title=" ">
<polygon fill="none" stroke="black" points="173.5,-39.5 173.5,-59.5 293.75,-59.5 293.75,-39.5 173.5,-39.5"/>
<text text-anchor="middle" x="233.62" y="-46" font-family="Helvetica,sans-Serif" font-size="10.00">Vector3::GetNormalized</text>
</a>
</g>
</g>
<!-- Node1&#45;&gt;Node4 -->
<g id="edge3" class="edge">
<title>Node1&#45;&gt;Node4</title>
<path fill="none" stroke="midnightblue" d="M137.41,-60.61C145.89,-59.62 154.58,-58.6 163.08,-57.61"/>
<polygon fill="midnightblue" stroke="midnightblue" points="163.21,-61 172.74,-56.37 162.4,-54.05 163.21,-61"/>
</g>
<!-- Node3 -->
<g id="node3" class="node">
<title>Node3</title>
<g id="a_node3"><a xlink:href="namespace_math.html#aaf39112a96239cbf99db4374c7beb3bd" target="_top" xlink:title=" ">
<polygon fill="none" stroke="black" points="670.75,-58.5 670.75,-78.5 745.25,-78.5 745.25,-58.5 670.75,-58.5"/>
<text text-anchor="middle" x="708" y="-65" font-family="Helvetica,sans-Serif" font-size="10.00">Math::Square</text>
</a>
</g>
</g>
<!-- Node2&#45;&gt;Node3 -->
<g id="edge2" class="edge">
<title>Node2&#45;&gt;Node3</title>
<path fill="none" stroke="midnightblue" d="M634.55,-68.5C643.26,-68.5 651.94,-68.5 660.12,-68.5"/>
<polygon fill="midnightblue" stroke="midnightblue" points="659.9,-72 669.9,-68.5 659.9,-65 659.9,-72"/>
</g>
<!-- Node5 -->
<g id="node5" class="node">
<title>Node5</title>
<g id="a_node5"><a xlink:href="class_vector3.html#ac297afb6e74370b4327d779328412b18" target="_top" xlink:title=" ">
<polygon fill="none" stroke="black" points="329.75,-39.5 329.75,-59.5 446.25,-59.5 446.25,-39.5 329.75,-39.5"/>
<text text-anchor="middle" x="388" y="-46" font-family="Helvetica,sans-Serif" font-size="10.00">Vector3::GetMagnitude</text>
</a>
</g>
</g>
<!-- Node4&#45;&gt;Node5 -->
<g id="edge4" class="edge">
<title>Node4&#45;&gt;Node5</title>
<path fill="none" stroke="midnightblue" d="M293.54,-49.5C301.96,-49.5 310.68,-49.5 319.25,-49.5"/>
<polygon fill="midnightblue" stroke="midnightblue" points="319,-53 329,-49.5 319,-46 319,-53"/>
</g>
<!-- Node6 -->
<g id="node6" class="node">
<title>Node6</title>
<g id="a_node6"><a xlink:href="class_vector3.html#a515f2c0f2383c0e3083321745b708463" target="_top" xlink:title=" ">
<polygon fill="none" stroke="black" points="343.25,-0.5 343.25,-20.5 432.75,-20.5 432.75,-0.5 343.25,-0.5"/>
<text text-anchor="middle" x="388" y="-7" font-family="Helvetica,sans-Serif" font-size="10.00">Vector3::Vector3</text>
</a>
</g>
</g>
<!-- Node4&#45;&gt;Node6 -->
<g id="edge6" class="edge">
<title>Node4&#45;&gt;Node6</title>
<path fill="none" stroke="midnightblue" d="M273.47,-39.56C292.92,-34.58 316.68,-28.5 337.42,-23.19"/>
<polygon fill="midnightblue" stroke="midnightblue" points="338.14,-26.36 346.96,-20.49 336.41,-19.58 338.14,-26.36"/>
</g>
<!-- Node5&#45;&gt;Node2 -->
<g id="edge5" class="edge">
<title>Node5&#45;&gt;Node2</title>
<path fill="none" stroke="midnightblue" d="M446.05,-55.93C454.24,-56.86 462.81,-57.82 471.41,-58.79"/>
<polygon fill="midnightblue" stroke="midnightblue" points="470.96,-62.38 481.29,-60.02 471.75,-55.42 470.96,-62.38"/>
</g>
</g>
</svg>
