<?xml version="1.0" encoding="UTF-8" standalone="no"?>
<!DOCTYPE svg PUBLIC "-//W3C//DTD SVG 1.1//EN"
 "http://www.w3.org/Graphics/SVG/1.1/DTD/svg11.dtd">
<!-- Generated by graphviz version 8.1.0 (20230707.0739)
 -->
<!-- Title: Surface::PutPixelAlpha Pages: 1 -->
<svg width="355pt" height="224pt"
 viewBox="0.00 0.00 354.50 224.00" xmlns="http://www.w3.org/2000/svg" xmlns:xlink="http://www.w3.org/1999/xlink">
<g id="graph0" class="graph" transform="scale(1 1) rotate(0) translate(4 220)">
<title>Surface::PutPixelAlpha</title>
<!-- Node1 -->
<g id="node1" class="node">
<title>Node1</title>
<g id="a_node1"><a xlink:title=" ">
<polygon fill="#bfbfbf" stroke="black" points="0,-97.5 0,-117.5 116.5,-117.5 116.5,-97.5 0,-97.5"/>
<text text-anchor="middle" x="58.25" y="-104" font-family="Helvetica,sans-Serif" font-size="10.00">Surface::PutPixelAlpha</text>
</a>
</g>
</g>
<!-- Node2 -->
<g id="node2" class="node">
<title>Node2</title>
<g id="a_node2"><a xlink:href="class_color.html#a196c393b4fd25f7a354555e68f102598" target="_top" xlink:title=" ">
<polygon fill="none" stroke="black" points="165.25,-195.5 165.25,-215.5 232.25,-215.5 232.25,-195.5 165.25,-195.5"/>
<text text-anchor="middle" x="198.75" y="-202" font-family="Helvetica,sans-Serif" font-size="10.00">Color::GetA</text>
</a>
</g>
</g>
<!-- Node1&#45;&gt;Node2 -->
<g id="edge1" class="edge">
<title>Node1&#45;&gt;Node2</title>
<path fill="none" stroke="midnightblue" d="M68.81,-117.36C84.88,-133.51 118.86,-165.87 152.5,-186.5 155,-188.03 157.65,-189.5 160.36,-190.89"/>
<polygon fill="midnightblue" stroke="midnightblue" points="158.74,-194.47 169.28,-195.55 161.72,-188.13 158.74,-194.47"/>
</g>
<!-- Node4 -->
<g id="node4" class="node">
<title>Node4</title>
<g id="a_node4"><a xlink:href="class_color.html#a633c52d431432c9b8e5b3ff7dbf9d23a" target="_top" xlink:title=" ">
<polygon fill="none" stroke="black" points="165.25,-156.5 165.25,-176.5 232.25,-176.5 232.25,-156.5 165.25,-156.5"/>
<text text-anchor="middle" x="198.75" y="-163" font-family="Helvetica,sans-Serif" font-size="10.00">Color::GetB</text>
</a>
</g>
</g>
<!-- Node1&#45;&gt;Node4 -->
<g id="edge3" class="edge">
<title>Node1&#45;&gt;Node4</title>
<path fill="none" stroke="midnightblue" d="M82.22,-117.41C101.08,-125.54 128.5,-137.31 152.5,-147.5 156.36,-149.14 160.41,-150.85 164.43,-152.54"/>
<polygon fill="midnightblue" stroke="midnightblue" points="162.68,-156.02 173.25,-156.67 165.39,-149.57 162.68,-156.02"/>
</g>
<!-- Node5 -->
<g id="node5" class="node">
<title>Node5</title>
<g id="a_node5"><a xlink:href="class_color.html#ab3d9b9a9ee6022dcad662ed9b0051ca9" target="_top" xlink:title=" ">
<polygon fill="none" stroke="black" points="164.88,-117.5 164.88,-137.5 232.62,-137.5 232.62,-117.5 164.88,-117.5"/>
<text text-anchor="middle" x="198.75" y="-124" font-family="Helvetica,sans-Serif" font-size="10.00">Color::GetG</text>
</a>
</g>
</g>
<!-- Node1&#45;&gt;Node5 -->
<g id="edge4" class="edge">
<title>Node1&#45;&gt;Node5</title>
<path fill="none" stroke="midnightblue" d="M116.38,-115.75C129.05,-117.58 142.27,-119.49 154.29,-121.22"/>
<polygon fill="midnightblue" stroke="midnightblue" points="153.53,-124.8 163.93,-122.76 154.53,-117.87 153.53,-124.8"/>
</g>
<!-- Node6 -->
<g id="node6" class="node">
<title>Node6</title>
<g id="a_node6"><a xlink:href="class_surface.html#a8493b65b5774e2bfde255e250fddeea6" target="_top" xlink:title=" ">
<polygon fill="none" stroke="black" points="152.5,-78.5 152.5,-98.5 245,-98.5 245,-78.5 152.5,-78.5"/>
<text text-anchor="middle" x="198.75" y="-85" font-family="Helvetica,sans-Serif" font-size="10.00">Surface::GetPixel</text>
</a>
</g>
</g>
<!-- Node1&#45;&gt;Node6 -->
<g id="edge5" class="edge">
<title>Node1&#45;&gt;Node6</title>
<path fill="none" stroke="midnightblue" d="M116.38,-99.66C124.78,-98.51 133.41,-97.33 141.78,-96.18"/>
<polygon fill="midnightblue" stroke="midnightblue" points="142.16,-99.52 151.59,-94.7 141.21,-92.59 142.16,-99.52"/>
</g>
<!-- Node7 -->
<g id="node7" class="node">
<title>Node7</title>
<g id="a_node7"><a xlink:href="class_color.html#a481e58f883a627ddfa9c8cdeb295891e" target="_top" xlink:title=" ">
<polygon fill="none" stroke="black" points="165.25,-39.5 165.25,-59.5 232.25,-59.5 232.25,-39.5 165.25,-39.5"/>
<text text-anchor="middle" x="198.75" y="-46" font-family="Helvetica,sans-Serif" font-size="10.00">Color::GetR</text>
</a>
</g>
</g>
<!-- Node1&#45;&gt;Node7 -->
<g id="edge6" class="edge">
<title>Node1&#45;&gt;Node7</title>
<path fill="none" stroke="midnightblue" d="M83.06,-97.53C105.49,-88.14 139.31,-73.97 164.42,-63.46"/>
<polygon fill="midnightblue" stroke="midnightblue" points="165.38,-66.43 173.25,-59.34 162.68,-59.97 165.38,-66.43"/>
</g>
<!-- Node8 -->
<g id="node8" class="node">
<title>Node8</title>
<g id="a_node8"><a xlink:href="class_surface.html#ad95a03761aaa5229eab2a500441eb322" target="_top" xlink:title=" ">
<polygon fill="none" stroke="black" points="152.88,-0.5 152.88,-20.5 244.62,-20.5 244.62,-0.5 152.88,-0.5"/>
<text text-anchor="middle" x="198.75" y="-7" font-family="Helvetica,sans-Serif" font-size="10.00">Surface::PutPixel</text>
</a>
</g>
</g>
<!-- Node1&#45;&gt;Node8 -->
<g id="edge7" class="edge">
<title>Node1&#45;&gt;Node8</title>
<path fill="none" stroke="midnightblue" d="M69.16,-97.73C85.47,-82.03 119.45,-50.91 152.5,-30.5 155.67,-28.55 159.05,-26.68 162.5,-24.93"/>
<polygon fill="midnightblue" stroke="midnightblue" points="163.69,-27.76 171.23,-20.32 160.7,-21.44 163.69,-27.76"/>
</g>
<!-- Node3 -->
<g id="node3" class="node">
<title>Node3</title>
<g id="a_node3"><a xlink:href="class_color.html#a60370781fc2b718d79793b5a48e0f86a" target="_top" xlink:title=" ">
<polygon fill="none" stroke="black" points="281,-195.5 281,-215.5 346.5,-215.5 346.5,-195.5 281,-195.5"/>
<text text-anchor="middle" x="313.75" y="-202" font-family="Helvetica,sans-Serif" font-size="10.00">Color::GetX</text>
</a>
</g>
</g>
<!-- Node2&#45;&gt;Node3 -->
<g id="edge2" class="edge">
<title>Node2&#45;&gt;Node3</title>
<path fill="none" stroke="midnightblue" d="M232.13,-205.5C244.04,-205.5 257.7,-205.5 270.35,-205.5"/>
<polygon fill="midnightblue" stroke="midnightblue" points="270.14,-209 280.14,-205.5 270.14,-202 270.14,-209"/>
</g>
</g>
</svg>
