<?xml version="1.0" encoding="UTF-8" standalone="no"?>
<!DOCTYPE svg PUBLIC "-//W3C//DTD SVG 1.1//EN"
 "http://www.w3.org/Graphics/SVG/1.1/DTD/svg11.dtd">
<!-- Generated by graphviz version 8.1.0 (20230707.0739)
 -->
<!-- Title: Vector4::Vector4 Pages: 1 -->
<svg width="231pt" height="146pt"
 viewBox="0.00 0.00 230.50 146.00" xmlns="http://www.w3.org/2000/svg" xmlns:xlink="http://www.w3.org/1999/xlink">
<g id="graph0" class="graph" transform="scale(1 1) rotate(0) translate(4 142)">
<title>Vector4::Vector4</title>
<!-- Node1 -->
<g id="node1" class="node">
<title>Node1</title>
<g id="a_node1"><a xlink:title=" ">
<polygon fill="#bfbfbf" stroke="black" points="133,-58.5 133,-78.5 222.5,-78.5 222.5,-58.5 133,-58.5"/>
<text text-anchor="middle" x="177.75" y="-65" font-family="Helvetica,sans-Serif" font-size="10.00">Vector4::Vector4</text>
</a>
</g>
</g>
<!-- Node2 -->
<g id="node2" class="node">
<title>Node2</title>
<g id="a_node2"><a xlink:href="class_vector4.html#a93c9ff6af500894401293fce281207fa" target="_top" xlink:title=" ">
<polygon fill="none" stroke="black" points="1.12,-117.5 1.12,-137.5 95.88,-137.5 95.88,-117.5 1.12,-117.5"/>
<text text-anchor="middle" x="48.5" y="-124" font-family="Helvetica,sans-Serif" font-size="10.00">Vector4::operator*</text>
</a>
</g>
</g>
<!-- Node1&#45;&gt;Node2 -->
<g id="edge1" class="edge">
<title>Node1&#45;&gt;Node2</title>
<path fill="none" stroke="midnightblue" d="M148.19,-83.56C133.12,-91.32 114.22,-100.76 97,-108.5 90.03,-111.63 82.39,-114.81 75.3,-117.64"/>
<polygon fill="midnightblue" stroke="midnightblue" points="149.69,-86.21 156.95,-78.49 146.46,-79.99 149.69,-86.21"/>
</g>
<!-- Node3 -->
<g id="node3" class="node">
<title>Node3</title>
<g id="a_node3"><a xlink:href="class_vector4.html#a3fe035920ac255d0d296b388638df191" target="_top" xlink:title=" ">
<polygon fill="none" stroke="black" points="0,-78.5 0,-98.5 97,-98.5 97,-78.5 0,-78.5"/>
<text text-anchor="middle" x="48.5" y="-85" font-family="Helvetica,sans-Serif" font-size="10.00">Vector4::operator+</text>
</a>
</g>
</g>
<!-- Node1&#45;&gt;Node3 -->
<g id="edge2" class="edge">
<title>Node1&#45;&gt;Node3</title>
<path fill="none" stroke="midnightblue" d="M122.57,-77.02C113.95,-78.37 105.1,-79.76 96.66,-81.09"/>
<polygon fill="midnightblue" stroke="midnightblue" points="122.98,-80.34 132.31,-75.33 121.89,-73.42 122.98,-80.34"/>
</g>
<!-- Node4 -->
<g id="node4" class="node">
<title>Node4</title>
<g id="a_node4"><a xlink:href="class_vector4.html#a316339efbdff04501fc4732fc9862963" target="_top" xlink:title=" ">
<polygon fill="none" stroke="black" points="1.5,-39.5 1.5,-59.5 95.5,-59.5 95.5,-39.5 1.5,-39.5"/>
<text text-anchor="middle" x="48.5" y="-46" font-family="Helvetica,sans-Serif" font-size="10.00">Vector4::operator&#45;</text>
</a>
</g>
</g>
<!-- Node1&#45;&gt;Node4 -->
<g id="edge3" class="edge">
<title>Node1&#45;&gt;Node4</title>
<path fill="none" stroke="midnightblue" d="M122.47,-60.4C113.44,-59.05 104.14,-57.66 95.35,-56.35"/>
<polygon fill="midnightblue" stroke="midnightblue" points="121.91,-64 132.31,-62.01 122.94,-57.08 121.91,-64"/>
</g>
<!-- Node5 -->
<g id="node5" class="node">
<title>Node5</title>
<g id="a_node5"><a xlink:href="class_vector4.html#a8906da76924badb255fdd6a6100a4ae7" target="_top" xlink:title=" ">
<polygon fill="none" stroke="black" points="1.5,-0.5 1.5,-20.5 95.5,-20.5 95.5,-0.5 1.5,-0.5"/>
<text text-anchor="middle" x="48.5" y="-7" font-family="Helvetica,sans-Serif" font-size="10.00">Vector4::operator/</text>
</a>
</g>
</g>
<!-- Node1&#45;&gt;Node5 -->
<g id="edge4" class="edge">
<title>Node1&#45;&gt;Node5</title>
<path fill="none" stroke="midnightblue" d="M146.84,-53.85C131.94,-46.65 113.6,-37.94 97,-30.5 89.49,-27.13 81.24,-23.6 73.76,-20.46"/>
<polygon fill="midnightblue" stroke="midnightblue" points="145.02,-57.34 155.55,-58.56 148.08,-51.04 145.02,-57.34"/>
</g>
</g>
</svg>
