<?xml version="1.0" encoding="UTF-8" standalone="no"?>
<!DOCTYPE svg PUBLIC "-//W3C//DTD SVG 1.1//EN"
 "http://www.w3.org/Graphics/SVG/1.1/DTD/svg11.dtd">
<!-- Generated by graphviz version 8.1.0 (20230707.0739)
 -->
<!-- Title: TextureEffect::Vertex::Vertex Pages: 1 -->
<svg width="259pt" height="194pt"
 viewBox="0.00 0.00 259.00 194.00" xmlns="http://www.w3.org/2000/svg" xmlns:xlink="http://www.w3.org/1999/xlink">
<g id="graph0" class="graph" transform="scale(1 1) rotate(0) translate(4 190)">
<title>TextureEffect::Vertex::Vertex</title>
<!-- Node1 -->
<g id="node1" class="node">
<title>Node1</title>
<g id="a_node1"><a xlink:title=" ">
<polygon fill="#bfbfbf" stroke="black" points="143.5,-76.5 143.5,-108.5 251,-108.5 251,-76.5 143.5,-76.5"/>
<text text-anchor="start" x="151.5" y="-95" font-family="Helvetica,sans-Serif" font-size="10.00">TextureEffect::Vertex</text>
<text text-anchor="middle" x="197.25" y="-83" font-family="Helvetica,sans-Serif" font-size="10.00">::Vertex</text>
</a>
</g>
</g>
<!-- Node2 -->
<g id="node2" class="node">
<title>Node2</title>
<g id="a_node2"><a xlink:href="class_texture_effect_1_1_vertex.html#af63ce4953444cf8d3b8f75a49b99b745" target="_top" xlink:title=" ">
<polygon fill="none" stroke="black" points="0,-153.5 0,-185.5 107.5,-185.5 107.5,-153.5 0,-153.5"/>
<text text-anchor="start" x="8" y="-172" font-family="Helvetica,sans-Serif" font-size="10.00">TextureEffect::Vertex</text>
<text text-anchor="middle" x="53.75" y="-160" font-family="Helvetica,sans-Serif" font-size="10.00">::operator*</text>
</a>
</g>
</g>
<!-- Node1&#45;&gt;Node2 -->
<g id="edge1" class="edge">
<title>Node1&#45;&gt;Node2</title>
<path fill="none" stroke="midnightblue" d="M161.46,-113.83C145.25,-123.53 125.58,-134.94 107.5,-144.5 101.77,-147.53 95.6,-150.61 89.58,-153.52"/>
<polygon fill="midnightblue" stroke="midnightblue" points="162.81,-116.51 169.57,-108.35 159.2,-110.51 162.81,-116.51"/>
</g>
<!-- Node3 -->
<g id="node3" class="node">
<title>Node3</title>
<g id="a_node3"><a xlink:href="class_texture_effect_1_1_vertex.html#ad9f0a7aa27640e85fcfea98daf7e2628" target="_top" xlink:title=" ">
<polygon fill="none" stroke="black" points="0,-102.5 0,-134.5 107.5,-134.5 107.5,-102.5 0,-102.5"/>
<text text-anchor="start" x="8" y="-121" font-family="Helvetica,sans-Serif" font-size="10.00">TextureEffect::Vertex</text>
<text text-anchor="middle" x="53.75" y="-109" font-family="Helvetica,sans-Serif" font-size="10.00">::operator+</text>
</a>
</g>
</g>
<!-- Node1&#45;&gt;Node3 -->
<g id="edge2" class="edge">
<title>Node1&#45;&gt;Node3</title>
<path fill="none" stroke="midnightblue" d="M132.91,-104.14C124.41,-105.7 115.77,-107.29 107.48,-108.81"/>
<polygon fill="midnightblue" stroke="midnightblue" points="133.36,-107.43 142.56,-102.18 132.09,-100.55 133.36,-107.43"/>
</g>
<!-- Node4 -->
<g id="node4" class="node">
<title>Node4</title>
<g id="a_node4"><a xlink:href="class_texture_effect_1_1_vertex.html#a6d5c96ca04cf1f5104d645a9d1953e6f" target="_top" xlink:title=" ">
<polygon fill="none" stroke="black" points="0,-51.5 0,-83.5 107.5,-83.5 107.5,-51.5 0,-51.5"/>
<text text-anchor="start" x="8" y="-70" font-family="Helvetica,sans-Serif" font-size="10.00">TextureEffect::Vertex</text>
<text text-anchor="middle" x="53.75" y="-58" font-family="Helvetica,sans-Serif" font-size="10.00">::operator&#45;</text>
</a>
</g>
</g>
<!-- Node1&#45;&gt;Node4 -->
<g id="edge3" class="edge">
<title>Node1&#45;&gt;Node4</title>
<path fill="none" stroke="midnightblue" d="M132.91,-81.31C124.41,-79.81 115.77,-78.28 107.48,-76.82"/>
<polygon fill="midnightblue" stroke="midnightblue" points="132.1,-84.9 142.56,-83.19 133.32,-78 132.1,-84.9"/>
</g>
<!-- Node5 -->
<g id="node5" class="node">
<title>Node5</title>
<g id="a_node5"><a xlink:href="class_texture_effect_1_1_vertex.html#ac563e7303ca4870a63891611077a174b" target="_top" xlink:title=" ">
<polygon fill="none" stroke="black" points="0,-0.5 0,-32.5 107.5,-32.5 107.5,-0.5 0,-0.5"/>
<text text-anchor="start" x="8" y="-19" font-family="Helvetica,sans-Serif" font-size="10.00">TextureEffect::Vertex</text>
<text text-anchor="middle" x="53.75" y="-7" font-family="Helvetica,sans-Serif" font-size="10.00">::operator/</text>
</a>
</g>
</g>
<!-- Node1&#45;&gt;Node5 -->
<g id="edge4" class="edge">
<title>Node1&#45;&gt;Node5</title>
<path fill="none" stroke="midnightblue" d="M159.43,-71.15C143.56,-62.11 124.73,-51.59 107.5,-42.5 101.18,-39.16 94.37,-35.71 87.81,-32.45"/>
<polygon fill="midnightblue" stroke="midnightblue" points="157.46,-74.64 167.88,-76.57 160.94,-68.56 157.46,-74.64"/>
</g>
</g>
</svg>
