<?xml version="1.0" encoding="UTF-8" standalone="no"?>
<!DOCTYPE svg PUBLIC "-//W3C//DTD SVG 1.1//EN"
 "http://www.w3.org/Graphics/SVG/1.1/DTD/svg11.dtd">
<!-- Generated by graphviz version 8.1.0 (20230707.0739)
 -->
<!-- Title: Scene Pages: 1 -->
<svg width="450pt" height="86pt"
 viewBox="0.00 0.00 450.00 86.00" xmlns="http://www.w3.org/2000/svg" xmlns:xlink="http://www.w3.org/1999/xlink">
<g id="graph0" class="graph" transform="scale(1 1) rotate(0) translate(4 82)">
<title>Scene</title>
<!-- Node1 -->
<g id="node1" class="node">
<title>Node1</title>
<g id="a_node1"><a xlink:title=" ">
<polygon fill="#bfbfbf" stroke="black" points="186,-57.5 186,-77.5 229.75,-77.5 229.75,-57.5 186,-57.5"/>
<text text-anchor="middle" x="207.88" y="-64" font-family="Helvetica,sans-Serif" font-size="10.00">Scene</text>
</a>
</g>
</g>
<!-- Node2 -->
<g id="node2" class="node">
<title>Node2</title>
<g id="a_node2"><a xlink:href="class_cube_skin_scene.html" target="_top" xlink:title=" ">
<polygon fill="none" stroke="black" points="0,-0.5 0,-20.5 85.75,-20.5 85.75,-0.5 0,-0.5"/>
<text text-anchor="middle" x="42.88" y="-7" font-family="Helvetica,sans-Serif" font-size="10.00">CubeSkinScene</text>
</a>
</g>
</g>
<!-- Node1&#45;&gt;Node2 -->
<g id="edge1" class="edge">
<title>Node1&#45;&gt;Node2</title>
<path fill="none" stroke="midnightblue" d="M176.07,-55.9C145.15,-45.59 98.73,-30.12 69.65,-20.42"/>
<polygon fill="midnightblue" stroke="midnightblue" points="174.71,-59.47 185.3,-59.31 176.92,-52.83 174.71,-59.47"/>
</g>
<!-- Node3 -->
<g id="node3" class="node">
<title>Node3</title>
<g id="a_node3"><a xlink:href="class_cube_solid_scene.html" target="_top" xlink:title=" ">
<polygon fill="none" stroke="black" points="103.88,-0.5 103.88,-20.5 191.88,-20.5 191.88,-0.5 103.88,-0.5"/>
<text text-anchor="middle" x="147.88" y="-7" font-family="Helvetica,sans-Serif" font-size="10.00">CubeSolidScene</text>
</a>
</g>
</g>
<!-- Node1&#45;&gt;Node3 -->
<g id="edge2" class="edge">
<title>Node1&#45;&gt;Node3</title>
<path fill="none" stroke="midnightblue" d="M190.38,-50.46C179.73,-40.7 166.53,-28.6 157.69,-20.5"/>
<polygon fill="midnightblue" stroke="midnightblue" points="187.5,-52.49 197.23,-56.66 192.23,-47.33 187.5,-52.49"/>
</g>
<!-- Node4 -->
<g id="node4" class="node">
<title>Node4</title>
<g id="a_node4"><a xlink:href="class_cube_vertex_color_scene.html" target="_top" xlink:title=" ">
<polygon fill="none" stroke="black" points="210.25,-0.5 210.25,-20.5 327.5,-20.5 327.5,-0.5 210.25,-0.5"/>
<text text-anchor="middle" x="268.88" y="-7" font-family="Helvetica,sans-Serif" font-size="10.00">CubeVertexColorScene</text>
</a>
</g>
</g>
<!-- Node1&#45;&gt;Node4 -->
<g id="edge3" class="edge">
<title>Node1&#45;&gt;Node4</title>
<path fill="none" stroke="midnightblue" d="M225.66,-50.46C236.49,-40.7 249.91,-28.6 258.9,-20.5"/>
<polygon fill="midnightblue" stroke="midnightblue" points="223.76,-47.37 218.68,-56.66 228.45,-52.57 223.76,-47.37"/>
</g>
<!-- Node5 -->
<g id="node5" class="node">
<title>Node5</title>
<g id="a_node5"><a xlink:href="class_double_cube_scene.html" target="_top" xlink:title=" ">
<polygon fill="none" stroke="black" points="345.75,-0.5 345.75,-20.5 442,-20.5 442,-0.5 345.75,-0.5"/>
<text text-anchor="middle" x="393.88" y="-7" font-family="Helvetica,sans-Serif" font-size="10.00">DoubleCubeScene</text>
</a>
</g>
</g>
<!-- Node1&#45;&gt;Node5 -->
<g id="edge4" class="edge">
<title>Node1&#45;&gt;Node5</title>
<path fill="none" stroke="midnightblue" d="M240.1,-56.97C274.86,-46.69 329.78,-30.45 363.72,-20.42"/>
<polygon fill="midnightblue" stroke="midnightblue" points="239.17,-53.89 230.58,-60.08 241.16,-60.6 239.17,-53.89"/>
</g>
</g>
</svg>
