<?xml version="1.0" encoding="UTF-8" standalone="no"?>
<!DOCTYPE svg PUBLIC "-//W3C//DTD SVG 1.1//EN"
 "http://www.w3.org/Graphics/SVG/1.1/DTD/svg11.dtd">
<!-- Generated by graphviz version 8.1.0 (20230707.0739)
 -->
<!-- Title: Vector2::GetNormalized Pages: 1 -->
<svg width="580pt" height="68pt"
 viewBox="0.00 0.00 579.75 68.00" xmlns="http://www.w3.org/2000/svg" xmlns:xlink="http://www.w3.org/1999/xlink">
<g id="graph0" class="graph" transform="scale(1 1) rotate(0) translate(4 64)">
<title>Vector2::GetNormalized</title>
<!-- Node1 -->
<g id="node1" class="node">
<title>Node1</title>
<g id="a_node1"><a xlink:title=" ">
<polygon fill="#bfbfbf" stroke="black" points="0,-19.5 0,-39.5 120.25,-39.5 120.25,-19.5 0,-19.5"/>
<text text-anchor="middle" x="60.12" y="-26" font-family="Helvetica,sans-Serif" font-size="10.00">Vector2::GetNormalized</text>
</a>
</g>
</g>
<!-- Node2 -->
<g id="node2" class="node">
<title>Node2</title>
<g id="a_node2"><a xlink:href="class_vector2.html#a3fa4c5b256684cc1b1a599e813195421" target="_top" xlink:title=" ">
<polygon fill="none" stroke="black" points="156.25,-39.5 156.25,-59.5 272.75,-59.5 272.75,-39.5 156.25,-39.5"/>
<text text-anchor="middle" x="214.5" y="-46" font-family="Helvetica,sans-Serif" font-size="10.00">Vector2::GetMagnitude</text>
</a>
</g>
</g>
<!-- Node1&#45;&gt;Node2 -->
<g id="edge1" class="edge">
<title>Node1&#45;&gt;Node2</title>
<path fill="none" stroke="midnightblue" d="M120.04,-37.23C128.46,-38.34 137.18,-39.48 145.75,-40.61"/>
<polygon fill="midnightblue" stroke="midnightblue" points="145.13,-44.19 155.5,-42.02 146.04,-37.25 145.13,-44.19"/>
</g>
<!-- Node5 -->
<g id="node5" class="node">
<title>Node5</title>
<g id="a_node5"><a xlink:href="class_vector2.html#acdf634d147c60fa5b9e62335bc7d3076" target="_top" xlink:title=" ">
<polygon fill="none" stroke="black" points="169.75,-0.5 169.75,-20.5 259.25,-20.5 259.25,-0.5 169.75,-0.5"/>
<text text-anchor="middle" x="214.5" y="-7" font-family="Helvetica,sans-Serif" font-size="10.00">Vector2::Vector2</text>
</a>
</g>
</g>
<!-- Node1&#45;&gt;Node5 -->
<g id="edge4" class="edge">
<title>Node1&#45;&gt;Node5</title>
<path fill="none" stroke="midnightblue" d="M120.04,-22.15C132.86,-20.55 146.38,-18.87 159.02,-17.29"/>
<polygon fill="midnightblue" stroke="midnightblue" points="159.38,-20.65 168.87,-15.94 158.51,-13.7 159.38,-20.65"/>
</g>
<!-- Node3 -->
<g id="node3" class="node">
<title>Node3</title>
<g id="a_node3"><a xlink:href="class_vector2.html#a3485163d5c4a6e20a44fb49c1ebe37a8" target="_top" xlink:title=" ">
<polygon fill="none" stroke="black" points="308.75,-39.5 308.75,-59.5 461.25,-59.5 461.25,-39.5 308.75,-39.5"/>
<text text-anchor="middle" x="385" y="-46" font-family="Helvetica,sans-Serif" font-size="10.00">Vector2::GetMagnitudeSquared</text>
</a>
</g>
</g>
<!-- Node2&#45;&gt;Node3 -->
<g id="edge2" class="edge">
<title>Node2&#45;&gt;Node3</title>
<path fill="none" stroke="midnightblue" d="M272.55,-49.5C280.74,-49.5 289.31,-49.5 297.91,-49.5"/>
<polygon fill="midnightblue" stroke="midnightblue" points="297.79,-53 307.79,-49.5 297.79,-46 297.79,-53"/>
</g>
<!-- Node4 -->
<g id="node4" class="node">
<title>Node4</title>
<g id="a_node4"><a xlink:href="namespace_math.html#aaf39112a96239cbf99db4374c7beb3bd" target="_top" xlink:title=" ">
<polygon fill="none" stroke="black" points="497.25,-39.5 497.25,-59.5 571.75,-59.5 571.75,-39.5 497.25,-39.5"/>
<text text-anchor="middle" x="534.5" y="-46" font-family="Helvetica,sans-Serif" font-size="10.00">Math::Square</text>
</a>
</g>
</g>
<!-- Node3&#45;&gt;Node4 -->
<g id="edge3" class="edge">
<title>Node3&#45;&gt;Node4</title>
<path fill="none" stroke="midnightblue" d="M461.05,-49.5C469.76,-49.5 478.44,-49.5 486.62,-49.5"/>
<polygon fill="midnightblue" stroke="midnightblue" points="486.4,-53 496.4,-49.5 486.4,-46 486.4,-53"/>
</g>
</g>
</svg>
