<?xml version="1.0" encoding="UTF-8" standalone="no"?>
<!DOCTYPE svg PUBLIC "-//W3C//DTD SVG 1.1//EN"
 "http://www.w3.org/Graphics/SVG/1.1/DTD/svg11.dtd">
<!-- Generated by graphviz version 8.1.0 (20230707.0739)
 -->
<!-- Title: FoldedCubeScene::Update Pages: 1 -->
<svg width="300pt" height="68pt"
 viewBox="0.00 0.00 300.25 68.00" xmlns="http://www.w3.org/2000/svg" xmlns:xlink="http://www.w3.org/1999/xlink">
<g id="graph0" class="graph" transform="scale(1 1) rotate(0) translate(4 64)">
<title>FoldedCubeScene::Update</title>
<!-- Node1 -->
<g id="node1" class="node">
<title>Node1</title>
<g id="a_node1"><a xlink:title=" ">
<polygon fill="#bfbfbf" stroke="black" points="0,-19.5 0,-39.5 132.25,-39.5 132.25,-19.5 0,-19.5"/>
<text text-anchor="middle" x="66.12" y="-26" font-family="Helvetica,sans-Serif" font-size="10.00">FoldedCubeScene::Update</text>
</a>
</g>
</g>
<!-- Node2 -->
<g id="node2" class="node">
<title>Node2</title>
<g id="a_node2"><a xlink:href="class_keyboard.html#a7b11ba07982539a0dd9b16b4706e7211" target="_top" xlink:title=" ">
<polygon fill="none" stroke="black" points="168.25,-39.5 168.25,-59.5 292.25,-59.5 292.25,-39.5 168.25,-39.5"/>
<text text-anchor="middle" x="230.25" y="-46" font-family="Helvetica,sans-Serif" font-size="10.00">Keyboard::KeyIsPressed</text>
</a>
</g>
</g>
<!-- Node1&#45;&gt;Node2 -->
<g id="edge1" class="edge">
<title>Node1&#45;&gt;Node2</title>
<path fill="none" stroke="midnightblue" d="M132.13,-37.52C140.56,-38.56 149.22,-39.63 157.74,-40.68"/>
<polygon fill="midnightblue" stroke="midnightblue" points="157.08,-44.25 167.43,-42 157.94,-37.3 157.08,-44.25"/>
</g>
<!-- Node3 -->
<g id="node3" class="node">
<title>Node3</title>
<g id="a_node3"><a xlink:href="namespace_math.html#a5bf97cccfc70f0c8b750396c70127573" target="_top" xlink:title=" ">
<polygon fill="none" stroke="black" points="185.88,-0.5 185.88,-20.5 274.62,-20.5 274.62,-0.5 185.88,-0.5"/>
<text text-anchor="middle" x="230.25" y="-7" font-family="Helvetica,sans-Serif" font-size="10.00">Math::wrapAngle</text>
</a>
</g>
</g>
<!-- Node1&#45;&gt;Node3 -->
<g id="edge2" class="edge">
<title>Node1&#45;&gt;Node3</title>
<path fill="none" stroke="midnightblue" d="M132.13,-21.88C146.45,-20.2 161.47,-18.44 175.3,-16.82"/>
<polygon fill="midnightblue" stroke="midnightblue" points="175.57,-20.2 185.09,-15.56 174.75,-13.25 175.57,-20.2"/>
</g>
</g>
</svg>
