<?xml version="1.0" encoding="UTF-8" standalone="no"?>
<!DOCTYPE svg PUBLIC "-//W3C//DTD SVG 1.1//EN"
 "http://www.w3.org/Graphics/SVG/1.1/DTD/svg11.dtd">
<!-- Generated by graphviz version 8.1.0 (20230707.0739)
 -->
<!-- Title: Engine::Engine Pages: 1 -->
<svg width="404pt" height="29pt"
 viewBox="0.00 0.00 404.00 29.00" xmlns="http://www.w3.org/2000/svg" xmlns:xlink="http://www.w3.org/1999/xlink">
<g id="graph0" class="graph" transform="scale(1 1) rotate(0) translate(4 25)">
<title>Engine::Engine</title>
<!-- Node1 -->
<g id="node1" class="node">
<title>Node1</title>
<g id="a_node1"><a xlink:title=" ">
<polygon fill="#bfbfbf" stroke="black" points="0,-0.5 0,-20.5 82,-20.5 82,-0.5 0,-0.5"/>
<text text-anchor="middle" x="41" y="-7" font-family="Helvetica,sans-Serif" font-size="10.00">Engine::Engine</text>
</a>
</g>
</g>
<!-- Node2 -->
<g id="node2" class="node">
<title>Node2</title>
<g id="a_node2"><a xlink:href="class_engine.html#a85491a83a933400a58b5f0f3da558143" target="_top" xlink:title=" ">
<polygon fill="none" stroke="black" points="118,-0.5 118,-20.5 245,-20.5 245,-0.5 118,-0.5"/>
<text text-anchor="middle" x="181.5" y="-7" font-family="Helvetica,sans-Serif" font-size="10.00">Engine::SetWindowName</text>
</a>
</g>
</g>
<!-- Node1&#45;&gt;Node2 -->
<g id="edge1" class="edge">
<title>Node1&#45;&gt;Node2</title>
<path fill="none" stroke="midnightblue" d="M81.69,-10.5C89.76,-10.5 98.49,-10.5 107.3,-10.5"/>
<polygon fill="midnightblue" stroke="midnightblue" points="107.06,-14 117.06,-10.5 107.06,-7 107.06,-14"/>
</g>
<!-- Node3 -->
<g id="node3" class="node">
<title>Node3</title>
<g id="a_node3"><a xlink:href="class_h_w_n_d_key.html#ad0013aa027b8583318249afaaed77614" target="_top" xlink:title=" ">
<polygon fill="none" stroke="black" points="281,-0.5 281,-20.5 396,-20.5 396,-0.5 281,-0.5"/>
<text text-anchor="middle" x="338.5" y="-7" font-family="Helvetica,sans-Serif" font-size="10.00">HWNDKey::GetHWND</text>
</a>
</g>
</g>
<!-- Node2&#45;&gt;Node3 -->
<g id="edge2" class="edge">
<title>Node2&#45;&gt;Node3</title>
<path fill="none" stroke="midnightblue" d="M244.65,-10.5C253.18,-10.5 261.96,-10.5 270.57,-10.5"/>
<polygon fill="midnightblue" stroke="midnightblue" points="270.35,-14 280.35,-10.5 270.35,-7 270.35,-14"/>
</g>
</g>
</svg>
