<?xml version="1.0" encoding="UTF-8" standalone="no"?>
<!DOCTYPE svg PUBLIC "-//W3C//DTD SVG 1.1//EN"
 "http://www.w3.org/Graphics/SVG/1.1/DTD/svg11.dtd">
<!-- Generated by graphviz version 2.43.0 (0)
 -->
<!-- Title: CubeVertexPositionColorScene::Update Pages: 1 -->
<svg width="344pt" height="66pt"
 viewBox="0.00 0.00 344.00 66.00" xmlns="http://www.w3.org/2000/svg" xmlns:xlink="http://www.w3.org/1999/xlink">
<g id="graph0" class="graph" transform="scale(1 1) rotate(0) translate(4 62)">
<title>CubeVertexPositionColorScene::Update</title>
<!-- Node1 -->
<g id="node1" class="node">
<title>Node1</title>
<g id="a_node1"><a xlink:title=" ">
<polygon fill="#bfbfbf" stroke="black" points="0,-14 0,-44 167,-44 167,-14 0,-14"/>
<text text-anchor="start" x="8" y="-32" font-family="Helvetica,sans-Serif" font-size="10.00">CubeVertexPositionColorScene</text>
<text text-anchor="middle" x="83.5" y="-21" font-family="Helvetica,sans-Serif" font-size="10.00">::Update</text>
</a>
</g>
</g>
<!-- Node2 -->
<g id="node2" class="node">
<title>Node2</title>
<g id="a_node2"><a xlink:href="classKeyboard.html#a7b11ba07982539a0dd9b16b4706e7211" target="_top" xlink:title=" ">
<polygon fill="none" stroke="black" points="203,-38.5 203,-57.5 336,-57.5 336,-38.5 203,-38.5"/>
<text text-anchor="middle" x="269.5" y="-45.5" font-family="Helvetica,sans-Serif" font-size="10.00">Keyboard::KeyIsPressed</text>
</a>
</g>
</g>
<!-- Node1&#45;&gt;Node2 -->
<g id="edge1" class="edge">
<title>Node1&#45;&gt;Node2</title>
<path fill="none" stroke="midnightblue" d="M167.08,-37.53C175.57,-38.4 184.17,-39.29 192.58,-40.16"/>
<polygon fill="midnightblue" stroke="midnightblue" points="192.43,-43.66 202.73,-41.21 193.15,-36.7 192.43,-43.66"/>
</g>
<!-- Node3 -->
<g id="node3" class="node">
<title>Node3</title>
<g id="a_node3"><a xlink:href="namespaceMath.html#abb70099a95f7e3ae8eb62c3694775a6b" target="_top" xlink:title=" ">
<polygon fill="none" stroke="black" points="219,-0.5 219,-19.5 320,-19.5 320,-0.5 219,-0.5"/>
<text text-anchor="middle" x="269.5" y="-7.5" font-family="Helvetica,sans-Serif" font-size="10.00">Math::WrapAngle</text>
</a>
</g>
</g>
<!-- Node1&#45;&gt;Node3 -->
<g id="edge2" class="edge">
<title>Node1&#45;&gt;Node3</title>
<path fill="none" stroke="midnightblue" d="M167.08,-20.47C181.17,-19.02 195.55,-17.53 208.89,-16.16"/>
<polygon fill="midnightblue" stroke="midnightblue" points="209.28,-19.63 218.86,-15.13 208.56,-12.67 209.28,-19.63"/>
</g>
</g>
</svg>
