<?xml version="1.0" encoding="UTF-8" standalone="no"?>
<!DOCTYPE svg PUBLIC "-//W3C//DTD SVG 1.1//EN"
 "http://www.w3.org/Graphics/SVG/1.1/DTD/svg11.dtd">
<!-- Generated by graphviz version 8.1.0 (20230707.0739)
 -->
<!-- Title: Pipeline::BeginFrame Pages: 1 -->
<svg width="306pt" height="299pt"
 viewBox="0.00 0.00 305.50 299.00" xmlns="http://www.w3.org/2000/svg" xmlns:xlink="http://www.w3.org/1999/xlink">
<g id="graph0" class="graph" transform="scale(1 1) rotate(0) translate(4 295)">
<title>Pipeline::BeginFrame</title>
<!-- Node1 -->
<g id="node1" class="node">
<title>Node1</title>
<g id="a_node1"><a xlink:title=" ">
<polygon fill="#bfbfbf" stroke="black" points="188.5,-135.5 188.5,-155.5 297.5,-155.5 297.5,-135.5 188.5,-135.5"/>
<text text-anchor="middle" x="243" y="-142" font-family="Helvetica,sans-Serif" font-size="10.00">Pipeline::BeginFrame</text>
</a>
</g>
</g>
<!-- Node2 -->
<g id="node2" class="node">
<title>Node2</title>
<g id="a_node2"><a xlink:href="class_cube_skin_scene.html#a48b277a1b41049e40ea70d90aa186627" target="_top" xlink:title=" ">
<polygon fill="none" stroke="black" points="19.5,-270.5 19.5,-290.5 133,-290.5 133,-270.5 19.5,-270.5"/>
<text text-anchor="middle" x="76.25" y="-277" font-family="Helvetica,sans-Serif" font-size="10.00">CubeSkinScene::Draw</text>
</a>
</g>
</g>
<!-- Node1&#45;&gt;Node2 -->
<g id="edge1" class="edge">
<title>Node1&#45;&gt;Node2</title>
<path fill="none" stroke="midnightblue" d="M232.37,-164.92C218.41,-190.98 190.08,-236.86 152.5,-261.5 146.53,-265.42 139.8,-268.53 132.89,-270.99"/>
<polygon fill="midnightblue" stroke="midnightblue" points="235.81,-166.87 237.3,-156.38 229.6,-163.65 235.81,-166.87"/>
</g>
<!-- Node3 -->
<g id="node3" class="node">
<title>Node3</title>
<g id="a_node3"><a xlink:href="class_cube_solid_geometry_scene.html#aa7ef23fe155a0a262c0357eaa3452506" target="_top" xlink:title=" ">
<polygon fill="none" stroke="black" points="10.88,-219.5 10.88,-251.5 141.62,-251.5 141.62,-219.5 10.88,-219.5"/>
<text text-anchor="start" x="18.88" y="-238" font-family="Helvetica,sans-Serif" font-size="10.00">CubeSolidGeometryScene</text>
<text text-anchor="middle" x="76.25" y="-226" font-family="Helvetica,sans-Serif" font-size="10.00">::Draw</text>
</a>
</g>
</g>
<!-- Node1&#45;&gt;Node3 -->
<g id="edge2" class="edge">
<title>Node1&#45;&gt;Node3</title>
<path fill="none" stroke="midnightblue" d="M222.69,-162.24C205.3,-176.63 178.54,-197.13 152.5,-210.5 146.01,-213.83 138.98,-216.86 131.92,-219.56"/>
<polygon fill="midnightblue" stroke="midnightblue" points="224.49,-164.46 229.88,-155.34 219.98,-159.11 224.49,-164.46"/>
</g>
<!-- Node4 -->
<g id="node4" class="node">
<title>Node4</title>
<g id="a_node4"><a xlink:href="class_cube_solid_scene.html#a889dfe03da33047374c1eb2291d5596e" target="_top" xlink:title=" ">
<polygon fill="none" stroke="black" points="18.38,-180.5 18.38,-200.5 134.12,-200.5 134.12,-180.5 18.38,-180.5"/>
<text text-anchor="middle" x="76.25" y="-187" font-family="Helvetica,sans-Serif" font-size="10.00">CubeSolidScene::Draw</text>
</a>
</g>
</g>
<!-- Node1&#45;&gt;Node4 -->
<g id="edge3" class="edge">
<title>Node1&#45;&gt;Node4</title>
<path fill="none" stroke="midnightblue" d="M198.64,-158.43C184.02,-162.7 167.58,-167.41 152.5,-171.5 141.32,-174.54 129.15,-177.68 117.93,-180.51"/>
<polygon fill="midnightblue" stroke="midnightblue" points="199.32,-161.59 207.93,-155.41 197.34,-154.87 199.32,-161.59"/>
</g>
<!-- Node5 -->
<g id="node5" class="node">
<title>Node5</title>
<g id="a_node5"><a xlink:href="class_cube_vertex_color_scene.html#ad2934096c9527e9dbb8cdcb9f8a45f80" target="_top" xlink:title=" ">
<polygon fill="none" stroke="black" points="17.62,-129.5 17.62,-161.5 134.88,-161.5 134.88,-129.5 17.62,-129.5"/>
<text text-anchor="start" x="25.62" y="-148" font-family="Helvetica,sans-Serif" font-size="10.00">CubeVertexColorScene</text>
<text text-anchor="middle" x="76.25" y="-136" font-family="Helvetica,sans-Serif" font-size="10.00">::Draw</text>
</a>
</g>
</g>
<!-- Node1&#45;&gt;Node5 -->
<g id="edge4" class="edge">
<title>Node1&#45;&gt;Node5</title>
<path fill="none" stroke="midnightblue" d="M177.82,-145.5C163.62,-145.5 148.65,-145.5 134.73,-145.5"/>
<polygon fill="midnightblue" stroke="midnightblue" points="177.51,-149 187.51,-145.5 177.51,-142 177.51,-149"/>
</g>
<!-- Node6 -->
<g id="node6" class="node">
<title>Node6</title>
<g id="a_node6"><a xlink:href="class_cube_vertex_position_color_scene.html#ae281a042a0863dbb9e3bb7a6070e58cc" target="_top" xlink:title=" ">
<polygon fill="none" stroke="black" points="0,-78.5 0,-110.5 152.5,-110.5 152.5,-78.5 0,-78.5"/>
<text text-anchor="start" x="8" y="-97" font-family="Helvetica,sans-Serif" font-size="10.00">CubeVertexPositionColorScene</text>
<text text-anchor="middle" x="76.25" y="-85" font-family="Helvetica,sans-Serif" font-size="10.00">::Draw</text>
</a>
</g>
</g>
<!-- Node1&#45;&gt;Node6 -->
<g id="edge5" class="edge">
<title>Node1&#45;&gt;Node6</title>
<path fill="none" stroke="midnightblue" d="M199.36,-132.3C177.8,-125.63 151.46,-117.47 128.78,-110.45"/>
<polygon fill="midnightblue" stroke="midnightblue" points="198.26,-135.93 208.84,-135.55 200.33,-129.24 198.26,-135.93"/>
</g>
<!-- Node7 -->
<g id="node7" class="node">
<title>Node7</title>
<g id="a_node7"><a xlink:href="class_double_cube_scene.html#a2f87358aaf1a53d1401ec11598d1eaa0" target="_top" xlink:title=" ">
<polygon fill="none" stroke="black" points="14.25,-39.5 14.25,-59.5 138.25,-59.5 138.25,-39.5 14.25,-39.5"/>
<text text-anchor="middle" x="76.25" y="-46" font-family="Helvetica,sans-Serif" font-size="10.00">DoubleCubeScene::Draw</text>
</a>
</g>
</g>
<!-- Node1&#45;&gt;Node7 -->
<g id="edge6" class="edge">
<title>Node1&#45;&gt;Node7</title>
<path fill="none" stroke="midnightblue" d="M225.83,-127.78C209.08,-110.47 181.37,-84.6 152.5,-69.5 144.71,-65.43 136.03,-62.13 127.41,-59.49"/>
<polygon fill="midnightblue" stroke="midnightblue" points="222.71,-129.64 232.12,-134.5 227.8,-124.83 222.71,-129.64"/>
</g>
<!-- Node8 -->
<g id="node8" class="node">
<title>Node8</title>
<g id="a_node8"><a xlink:href="class_vertex_wave_scene.html#aed98f12c1ea59d6d6138498f75a106d6" target="_top" xlink:title=" ">
<polygon fill="none" stroke="black" points="14.25,-0.5 14.25,-20.5 138.25,-20.5 138.25,-0.5 14.25,-0.5"/>
<text text-anchor="middle" x="76.25" y="-7" font-family="Helvetica,sans-Serif" font-size="10.00">VertexWaveScene::Draw</text>
</a>
</g>
</g>
<!-- Node1&#45;&gt;Node8 -->
<g id="edge7" class="edge">
<title>Node1&#45;&gt;Node8</title>
<path fill="none" stroke="midnightblue" d="M232.28,-126.32C218.22,-100.55 189.77,-55.17 152.5,-30.5 146.19,-26.32 139.04,-23.02 131.71,-20.4"/>
<polygon fill="midnightblue" stroke="midnightblue" points="229.49,-127.53 237.25,-134.74 235.68,-124.26 229.49,-127.53"/>
</g>
</g>
</svg>
