<?xml version="1.0" encoding="UTF-8" standalone="no"?>
<!DOCTYPE svg PUBLIC "-//W3C//DTD SVG 1.1//EN"
 "http://www.w3.org/Graphics/SVG/1.1/DTD/svg11.dtd">
<!-- Generated by graphviz version 8.1.0 (20230707.0739)
 -->
<!-- Title: Graphics::PutPixel Pages: 1 -->
<svg width="367pt" height="29pt"
 viewBox="0.00 0.00 367.25 29.00" xmlns="http://www.w3.org/2000/svg" xmlns:xlink="http://www.w3.org/1999/xlink">
<g id="graph0" class="graph" transform="scale(1 1) rotate(0) translate(4 25)">
<title>Graphics::PutPixel</title>
<!-- Node1 -->
<g id="node1" class="node">
<title>Node1</title>
<g id="a_node1"><a xlink:title=" ">
<polygon fill="#bfbfbf" stroke="black" points="0,-0.5 0,-20.5 97.75,-20.5 97.75,-0.5 0,-0.5"/>
<text text-anchor="middle" x="48.88" y="-7" font-family="Helvetica,sans-Serif" font-size="10.00">Graphics::PutPixel</text>
</a>
</g>
</g>
<!-- Node2 -->
<g id="node2" class="node">
<title>Node2</title>
<g id="a_node2"><a xlink:href="class_graphics.html#a69fae0334426fd8a8a271d9843d4f7fe" target="_top" xlink:title=" ">
<polygon fill="none" stroke="black" points="133.75,-0.5 133.75,-20.5 231.5,-20.5 231.5,-0.5 133.75,-0.5"/>
<text text-anchor="middle" x="182.62" y="-7" font-family="Helvetica,sans-Serif" font-size="10.00">Graphics::PutPixel</text>
</a>
</g>
</g>
<!-- Node1&#45;&gt;Node2 -->
<g id="edge1" class="edge">
<title>Node1&#45;&gt;Node2</title>
<path fill="none" stroke="midnightblue" d="M97.44,-10.5C105.84,-10.5 114.66,-10.5 123.31,-10.5"/>
<polygon fill="midnightblue" stroke="midnightblue" points="123.13,-14 133.13,-10.5 123.13,-7 123.13,-14"/>
</g>
<!-- Node3 -->
<g id="node3" class="node">
<title>Node3</title>
<g id="a_node3"><a xlink:href="class_surface.html#ad95a03761aaa5229eab2a500441eb322" target="_top" xlink:title=" ">
<polygon fill="none" stroke="black" points="267.5,-0.5 267.5,-20.5 359.25,-20.5 359.25,-0.5 267.5,-0.5"/>
<text text-anchor="middle" x="313.38" y="-7" font-family="Helvetica,sans-Serif" font-size="10.00">Surface::PutPixel</text>
</a>
</g>
</g>
<!-- Node2&#45;&gt;Node3 -->
<g id="edge2" class="edge">
<title>Node2&#45;&gt;Node3</title>
<path fill="none" stroke="midnightblue" d="M231.2,-10.5C239.47,-10.5 248.13,-10.5 256.6,-10.5"/>
<polygon fill="midnightblue" stroke="midnightblue" points="256.56,-14 266.56,-10.5 256.56,-7 256.56,-14"/>
</g>
</g>
</svg>
