<?xml version="1.0" encoding="UTF-8" standalone="no"?>
<!DOCTYPE svg PUBLIC "-//W3C//DTD SVG 1.1//EN"
 "http://www.w3.org/Graphics/SVG/1.1/DTD/svg11.dtd">
<!-- Generated by graphviz version 2.43.0 (0)
 -->
<!-- Title: VertexFlatEffect Pages: 1 -->
<svg width="312pt" height="127pt"
 viewBox="0.00 0.00 312.00 126.50" xmlns="http://www.w3.org/2000/svg" xmlns:xlink="http://www.w3.org/1999/xlink">
<g id="graph0" class="graph" transform="scale(1 1) rotate(0) translate(4 122.5)">
<title>VertexFlatEffect</title>
<!-- Node1 -->
<g id="node1" class="node">
<title>Node1</title>
<g id="a_node1"><a xlink:title=" ">
<polygon fill="#bfbfbf" stroke="black" points="209,-55 209,-74 304,-74 304,-55 209,-55"/>
<text text-anchor="middle" x="256.5" y="-62" font-family="Helvetica,sans-Serif" font-size="10.00">VertexFlatEffect</text>
</a>
</g>
</g>
<!-- Node2 -->
<g id="node2" class="node">
<title>Node2</title>
<g id="a_node2"><a xlink:href="classVertexFlatEffect_1_1PixelShader.html" target="_top" xlink:title=" ">
<polygon fill="none" stroke="black" points="0,-99 0,-118 158,-118 158,-99 0,-99"/>
<text text-anchor="middle" x="79" y="-106" font-family="Helvetica,sans-Serif" font-size="10.00">VertexFlatEffect::PixelShader</text>
</a>
</g>
</g>
<!-- Node2&#45;&gt;Node1 -->
<g id="edge1" class="edge">
<title>Node2&#45;&gt;Node1</title>
<path fill="none" stroke="#9a32cd" stroke-dasharray="5,2" d="M129.42,-96.56C138.91,-94.24 148.77,-91.81 158,-89.5 178,-84.5 200.28,-78.8 218.49,-74.1"/>
<polygon fill="#9a32cd" stroke="#9a32cd" points="128.59,-93.16 119.7,-98.93 130.25,-99.96 128.59,-93.16"/>
<text text-anchor="middle" x="183.5" y="-87.5" font-family="Helvetica,sans-Serif" font-size="10.00"> ps</text>
</g>
<!-- Node3 -->
<g id="node3" class="node">
<title>Node3</title>
<g id="a_node3"><a xlink:href="classDefaultGeometryShader.html" target="_top" xlink:title=" ">
<polygon fill="none" stroke="black" points="7.5,-49.5 7.5,-79.5 150.5,-79.5 150.5,-49.5 7.5,-49.5"/>
<text text-anchor="start" x="15.5" y="-67.5" font-family="Helvetica,sans-Serif" font-size="10.00">DefaultGeometryShader</text>
<text text-anchor="middle" x="79" y="-56.5" font-family="Helvetica,sans-Serif" font-size="10.00">&lt; VertexShader::Output &gt;</text>
</a>
</g>
</g>
<!-- Node3&#45;&gt;Node1 -->
<g id="edge2" class="edge">
<title>Node3&#45;&gt;Node1</title>
<path fill="none" stroke="#9a32cd" stroke-dasharray="5,2" d="M160.83,-64.5C177.31,-64.5 194.13,-64.5 208.92,-64.5"/>
<polygon fill="#9a32cd" stroke="#9a32cd" points="160.62,-61 150.62,-64.5 160.62,-68 160.62,-61"/>
<text text-anchor="middle" x="183.5" y="-67.5" font-family="Helvetica,sans-Serif" font-size="10.00"> gs</text>
</g>
<!-- Node4 -->
<g id="node4" class="node">
<title>Node4</title>
<g id="a_node4"><a xlink:href="classVertexFlatEffect_1_1VertexShader.html" target="_top" xlink:title=" ">
<polygon fill="none" stroke="black" points="13,-0.5 13,-30.5 145,-30.5 145,-0.5 13,-0.5"/>
<text text-anchor="start" x="21" y="-18.5" font-family="Helvetica,sans-Serif" font-size="10.00">VertexFlatEffect::Vertex</text>
<text text-anchor="middle" x="79" y="-7.5" font-family="Helvetica,sans-Serif" font-size="10.00">Shader</text>
</a>
</g>
</g>
<!-- Node4&#45;&gt;Node1 -->
<g id="edge3" class="edge">
<title>Node4&#45;&gt;Node1</title>
<path fill="none" stroke="#9a32cd" stroke-dasharray="5,2" d="M143.97,-33.36C170.19,-40.68 199.49,-48.86 221.47,-55"/>
<polygon fill="#9a32cd" stroke="#9a32cd" points="144.66,-29.92 134.09,-30.6 142.78,-36.66 144.66,-29.92"/>
<text text-anchor="middle" x="183.5" y="-49.5" font-family="Helvetica,sans-Serif" font-size="10.00"> vs</text>
</g>
</g>
</svg>
