<?xml version="1.0" encoding="UTF-8" standalone="no"?>
<!DOCTYPE svg PUBLIC "-//W3C//DTD SVG 1.1//EN"
 "http://www.w3.org/Graphics/SVG/1.1/DTD/svg11.dtd">
<!-- Generated by graphviz version 2.43.0 (0)
 -->
<!-- Title: GeometryFlatEffect::Vertex::Vertex Pages: 1 -->
<svg width="268pt" height="186pt"
 viewBox="0.00 0.00 268.00 186.00" xmlns="http://www.w3.org/2000/svg" xmlns:xlink="http://www.w3.org/1999/xlink">
<g id="graph0" class="graph" transform="scale(1 1) rotate(0) translate(4 182)">
<title>GeometryFlatEffect::Vertex::Vertex</title>
<!-- Node1 -->
<g id="node1" class="node">
<title>Node1</title>
<g id="a_node1"><a xlink:title=" ">
<polygon fill="#bfbfbf" stroke="black" points="148,-73.5 148,-103.5 260,-103.5 260,-73.5 148,-73.5"/>
<text text-anchor="start" x="156" y="-91.5" font-family="Helvetica,sans-Serif" font-size="10.00">GeometryFlatEffect</text>
<text text-anchor="middle" x="204" y="-80.5" font-family="Helvetica,sans-Serif" font-size="10.00">::Vertex::Vertex</text>
</a>
</g>
</g>
<!-- Node2 -->
<g id="node2" class="node">
<title>Node2</title>
<g id="a_node2"><a xlink:href="classGeometryFlatEffect_1_1Vertex.html#af3c9009c05a758ba8c554bd0c779bbaa" target="_top" xlink:title=" ">
<polygon fill="none" stroke="black" points="0,-147.5 0,-177.5 112,-177.5 112,-147.5 0,-147.5"/>
<text text-anchor="start" x="8" y="-165.5" font-family="Helvetica,sans-Serif" font-size="10.00">GeometryFlatEffect</text>
<text text-anchor="middle" x="56" y="-154.5" font-family="Helvetica,sans-Serif" font-size="10.00">::Vertex::operator*</text>
</a>
</g>
</g>
<!-- Node1&#45;&gt;Node2 -->
<g id="edge1" class="edge">
<title>Node1&#45;&gt;Node2</title>
<path fill="none" stroke="midnightblue" d="M168.15,-108.62C151.36,-118.06 130.84,-129.24 112,-138.5 105.83,-141.53 99.18,-144.6 92.72,-147.48"/>
<polygon fill="midnightblue" stroke="midnightblue" points="170.07,-111.55 177.05,-103.58 166.62,-105.46 170.07,-111.55"/>
</g>
<!-- Node3 -->
<g id="node3" class="node">
<title>Node3</title>
<g id="a_node3"><a xlink:href="classGeometryFlatEffect_1_1Vertex.html#a9a0b32f9483986e69d2236ae302f4b8f" target="_top" xlink:title=" ">
<polygon fill="none" stroke="black" points="0,-98.5 0,-128.5 112,-128.5 112,-98.5 0,-98.5"/>
<text text-anchor="start" x="8" y="-116.5" font-family="Helvetica,sans-Serif" font-size="10.00">GeometryFlatEffect</text>
<text text-anchor="middle" x="56" y="-105.5" font-family="Helvetica,sans-Serif" font-size="10.00">::Vertex::operator+</text>
</a>
</g>
</g>
<!-- Node1&#45;&gt;Node3 -->
<g id="edge2" class="edge">
<title>Node1&#45;&gt;Node3</title>
<path fill="none" stroke="midnightblue" d="M137.87,-99.65C129.32,-101.12 120.63,-102.6 112.27,-104.04"/>
<polygon fill="midnightblue" stroke="midnightblue" points="138.54,-103.09 147.8,-97.95 137.36,-96.19 138.54,-103.09"/>
</g>
<!-- Node4 -->
<g id="node4" class="node">
<title>Node4</title>
<g id="a_node4"><a xlink:href="classGeometryFlatEffect_1_1Vertex.html#af8d40086734f26f0ef64d5423236fe99" target="_top" xlink:title=" ">
<polygon fill="none" stroke="black" points="0,-49.5 0,-79.5 112,-79.5 112,-49.5 0,-49.5"/>
<text text-anchor="start" x="8" y="-67.5" font-family="Helvetica,sans-Serif" font-size="10.00">GeometryFlatEffect</text>
<text text-anchor="middle" x="56" y="-56.5" font-family="Helvetica,sans-Serif" font-size="10.00">::Vertex::operator&#45;</text>
</a>
</g>
</g>
<!-- Node1&#45;&gt;Node4 -->
<g id="edge3" class="edge">
<title>Node1&#45;&gt;Node4</title>
<path fill="none" stroke="midnightblue" d="M137.87,-77.79C129.32,-76.39 120.63,-74.96 112.27,-73.59"/>
<polygon fill="midnightblue" stroke="midnightblue" points="137.37,-81.26 147.8,-79.43 138.5,-74.35 137.37,-81.26"/>
</g>
<!-- Node5 -->
<g id="node5" class="node">
<title>Node5</title>
<g id="a_node5"><a xlink:href="classGeometryFlatEffect_1_1Vertex.html#aa584a29e844005941d651cf953aedd6f" target="_top" xlink:title=" ">
<polygon fill="none" stroke="black" points="0,-0.5 0,-30.5 112,-30.5 112,-0.5 0,-0.5"/>
<text text-anchor="start" x="8" y="-18.5" font-family="Helvetica,sans-Serif" font-size="10.00">GeometryFlatEffect</text>
<text text-anchor="middle" x="56" y="-7.5" font-family="Helvetica,sans-Serif" font-size="10.00">::Vertex::operator/</text>
</a>
</g>
</g>
<!-- Node1&#45;&gt;Node5 -->
<g id="edge4" class="edge">
<title>Node1&#45;&gt;Node5</title>
<path fill="none" stroke="midnightblue" d="M166.07,-68.39C149.63,-59.6 129.96,-49.31 112,-40.5 105.22,-37.17 97.9,-33.74 90.89,-30.53"/>
<polygon fill="midnightblue" stroke="midnightblue" points="164.87,-71.72 175.34,-73.37 168.18,-65.55 164.87,-71.72"/>
</g>
</g>
</svg>
