<?xml version="1.0" encoding="UTF-8" standalone="no"?>
<!DOCTYPE svg PUBLIC "-//W3C//DTD SVG 1.1//EN"
 "http://www.w3.org/Graphics/SVG/1.1/DTD/svg11.dtd">
<!-- Generated by graphviz version 8.1.0 (20230707.0739)
 -->
<!-- Title: Surface::PutPixel Pages: 1 -->
<svg width="526pt" height="87pt"
 viewBox="0.00 0.00 525.75 87.00" xmlns="http://www.w3.org/2000/svg" xmlns:xlink="http://www.w3.org/1999/xlink">
<g id="graph0" class="graph" transform="scale(1 1) rotate(0) translate(4 83)">
<title>Surface::PutPixel</title>
<!-- Node1 -->
<g id="node1" class="node">
<title>Node1</title>
<g id="a_node1"><a xlink:title=" ">
<polygon fill="#bfbfbf" stroke="black" points="426,-19.5 426,-39.5 517.75,-39.5 517.75,-19.5 426,-19.5"/>
<text text-anchor="middle" x="471.88" y="-26" font-family="Helvetica,sans-Serif" font-size="10.00">Surface::PutPixel</text>
</a>
</g>
</g>
<!-- Node2 -->
<g id="node2" class="node">
<title>Node2</title>
<g id="a_node2"><a xlink:href="class_graphics.html#a69fae0334426fd8a8a271d9843d4f7fe" target="_top" xlink:title=" ">
<polygon fill="none" stroke="black" points="282.88,-39.5 282.88,-59.5 380.62,-59.5 380.62,-39.5 282.88,-39.5"/>
<text text-anchor="middle" x="331.75" y="-46" font-family="Helvetica,sans-Serif" font-size="10.00">Graphics::PutPixel</text>
</a>
</g>
</g>
<!-- Node1&#45;&gt;Node2 -->
<g id="edge1" class="edge">
<title>Node1&#45;&gt;Node2</title>
<path fill="none" stroke="midnightblue" d="M415.49,-37.52C403.81,-39.21 391.58,-40.98 380.22,-42.63"/>
<polygon fill="midnightblue" stroke="midnightblue" points="415.63,-40.89 425.03,-35.99 414.63,-33.96 415.63,-40.89"/>
</g>
<!-- Node6 -->
<g id="node6" class="node">
<title>Node6</title>
<g id="a_node6"><a xlink:href="class_surface.html#a187f57fb4942d79ce17a84f17efac54c" target="_top" xlink:title=" ">
<polygon fill="none" stroke="black" points="273.5,-0.5 273.5,-20.5 390,-20.5 390,-0.5 273.5,-0.5"/>
<text text-anchor="middle" x="331.75" y="-7" font-family="Helvetica,sans-Serif" font-size="10.00">Surface::PutPixelAlpha</text>
</a>
</g>
</g>
<!-- Node1&#45;&gt;Node6 -->
<g id="edge5" class="edge">
<title>Node1&#45;&gt;Node6</title>
<path fill="none" stroke="midnightblue" d="M415.27,-21.85C406.94,-20.71 398.34,-19.52 389.97,-18.37"/>
<polygon fill="midnightblue" stroke="midnightblue" points="414.65,-25.44 425.03,-23.33 415.6,-18.5 414.65,-25.44"/>
</g>
<!-- Node3 -->
<g id="node3" class="node">
<title>Node3</title>
<g id="a_node3"><a xlink:href="class_graphics.html#acc62144c402eeaec8e0d496f4cac9c86" target="_top" xlink:title=" ">
<polygon fill="none" stroke="black" points="136.75,-58.5 136.75,-78.5 237.5,-78.5 237.5,-58.5 136.75,-58.5"/>
<text text-anchor="middle" x="187.12" y="-65" font-family="Helvetica,sans-Serif" font-size="10.00">Graphics::DrawLine</text>
</a>
</g>
</g>
<!-- Node2&#45;&gt;Node3 -->
<g id="edge2" class="edge">
<title>Node2&#45;&gt;Node3</title>
<path fill="none" stroke="midnightblue" d="M272.67,-57.24C260.95,-58.8 248.74,-60.42 237.36,-61.94"/>
<polygon fill="midnightblue" stroke="midnightblue" points="272.81,-60.62 282.26,-55.83 271.88,-53.68 272.81,-60.62"/>
</g>
<!-- Node5 -->
<g id="node5" class="node">
<title>Node5</title>
<g id="a_node5"><a xlink:href="class_graphics.html#a64e7971066ee21f5b77aa525742f29e2" target="_top" xlink:title=" ">
<polygon fill="none" stroke="black" points="138.25,-19.5 138.25,-39.5 236,-39.5 236,-19.5 138.25,-19.5"/>
<text text-anchor="middle" x="187.12" y="-26" font-family="Helvetica,sans-Serif" font-size="10.00">Graphics::PutPixel</text>
</a>
</g>
</g>
<!-- Node2&#45;&gt;Node5 -->
<g id="edge4" class="edge">
<title>Node2&#45;&gt;Node5</title>
<path fill="none" stroke="midnightblue" d="M272.69,-41.36C260.46,-39.64 247.69,-37.85 235.9,-36.2"/>
<polygon fill="midnightblue" stroke="midnightblue" points="271.87,-44.92 282.26,-42.84 272.84,-37.99 271.87,-44.92"/>
</g>
<!-- Node4 -->
<g id="node4" class="node">
<title>Node4</title>
<g id="a_node4"><a xlink:href="class_graphics.html#adc0d5b1fd9721c739fb702978fe13e8d" target="_top" xlink:title=" ">
<polygon fill="none" stroke="black" points="0,-58.5 0,-78.5 100.75,-78.5 100.75,-58.5 0,-58.5"/>
<text text-anchor="middle" x="50.38" y="-65" font-family="Helvetica,sans-Serif" font-size="10.00">Graphics::DrawLine</text>
</a>
</g>
</g>
<!-- Node3&#45;&gt;Node4 -->
<g id="edge3" class="edge">
<title>Node3&#45;&gt;Node4</title>
<path fill="none" stroke="midnightblue" d="M126.33,-68.5C117.73,-68.5 108.96,-68.5 100.59,-68.5"/>
<polygon fill="midnightblue" stroke="midnightblue" points="126.1,-72 136.1,-68.5 126.1,-65 126.1,-72"/>
</g>
</g>
</svg>
