<?xml version="1.0" encoding="UTF-8" standalone="no"?>
<!DOCTYPE svg PUBLIC "-//W3C//DTD SVG 1.1//EN"
 "http://www.w3.org/Graphics/SVG/1.1/DTD/svg11.dtd">
<!-- Generated by graphviz version 2.43.0 (0)
 -->
<!-- Title: Keyboard::KeyIsPressed Pages: 1 -->
<svg width="421pt" height="429pt"
 viewBox="0.00 0.00 421.00 428.50" xmlns="http://www.w3.org/2000/svg" xmlns:xlink="http://www.w3.org/1999/xlink">
<g id="graph0" class="graph" transform="scale(1 1) rotate(0) translate(4 424.5)">
<title>Keyboard::KeyIsPressed</title>
<!-- Node1 -->
<g id="node1" class="node">
<title>Node1</title>
<g id="a_node1"><a xlink:title=" ">
<polygon fill="#bfbfbf" stroke="black" points="280,-194.5 280,-213.5 413,-213.5 413,-194.5 280,-194.5"/>
<text text-anchor="middle" x="346.5" y="-201.5" font-family="Helvetica,sans-Serif" font-size="10.00">Keyboard::KeyIsPressed</text>
</a>
</g>
</g>
<!-- Node2 -->
<g id="node2" class="node">
<title>Node2</title>
<g id="a_node2"><a xlink:href="classCubeFlatIndependentScene.html#a77daa7f03c9f6225df5e7cba6feee611" target="_top" xlink:title=" ">
<polygon fill="none" stroke="black" points="85.5,-390 85.5,-420 235.5,-420 235.5,-390 85.5,-390"/>
<text text-anchor="start" x="93.5" y="-408" font-family="Helvetica,sans-Serif" font-size="10.00">CubeFlatIndependentScene</text>
<text text-anchor="middle" x="160.5" y="-397" font-family="Helvetica,sans-Serif" font-size="10.00">::Update</text>
</a>
</g>
</g>
<!-- Node1&#45;&gt;Node2 -->
<g id="edge1" class="edge">
<title>Node1&#45;&gt;Node2</title>
<path fill="none" stroke="midnightblue" d="M339.61,-223.53C327.65,-259.85 297.08,-337.87 244,-380 239.08,-383.91 233.55,-387.21 227.75,-389.99"/>
<polygon fill="midnightblue" stroke="midnightblue" points="343.04,-224.28 342.73,-213.69 336.37,-222.17 343.04,-224.28"/>
</g>
<!-- Node3 -->
<g id="node3" class="node">
<title>Node3</title>
<g id="a_node3"><a xlink:href="classCubeSkinScene.html#a291519be4aae4268c5b6cdb4b9fc864a" target="_top" xlink:title=" ">
<polygon fill="none" stroke="black" points="94,-351.5 94,-370.5 227,-370.5 227,-351.5 94,-351.5"/>
<text text-anchor="middle" x="160.5" y="-358.5" font-family="Helvetica,sans-Serif" font-size="10.00">CubeSkinScene::Update</text>
</a>
</g>
</g>
<!-- Node1&#45;&gt;Node3 -->
<g id="edge2" class="edge">
<title>Node1&#45;&gt;Node3</title>
<path fill="none" stroke="midnightblue" d="M337.06,-222.9C322.57,-253.06 290.02,-311.75 244,-342 238.1,-345.88 231.52,-348.97 224.71,-351.43"/>
<polygon fill="midnightblue" stroke="midnightblue" points="340.38,-224.06 341.42,-213.52 334.03,-221.11 340.38,-224.06"/>
</g>
<!-- Node4 -->
<g id="node4" class="node">
<title>Node4</title>
<g id="a_node4"><a xlink:href="classCubeSolidGeometryScene.html#a4501743d912f6818f264525e806f4f8b" target="_top" xlink:title=" ">
<polygon fill="none" stroke="black" points="89,-302 89,-332 232,-332 232,-302 89,-302"/>
<text text-anchor="start" x="97" y="-320" font-family="Helvetica,sans-Serif" font-size="10.00">CubeSolidGeometryScene</text>
<text text-anchor="middle" x="160.5" y="-309" font-family="Helvetica,sans-Serif" font-size="10.00">::Update</text>
</a>
</g>
</g>
<!-- Node1&#45;&gt;Node4 -->
<g id="edge3" class="edge">
<title>Node1&#45;&gt;Node4</title>
<path fill="none" stroke="midnightblue" d="M330.17,-221.07C311.59,-240.8 278.46,-272.98 244,-292 237.19,-295.76 229.74,-299.02 222.19,-301.84"/>
<polygon fill="midnightblue" stroke="midnightblue" points="332.78,-223.41 336.99,-213.69 327.63,-218.66 332.78,-223.41"/>
</g>
<!-- Node5 -->
<g id="node5" class="node">
<title>Node5</title>
<g id="a_node5"><a xlink:href="classCubeSolidScene.html#a2c58f00b9630b056326c6d753e535fdf" target="_top" xlink:title=" ">
<polygon fill="none" stroke="black" points="92.5,-263.5 92.5,-282.5 228.5,-282.5 228.5,-263.5 92.5,-263.5"/>
<text text-anchor="middle" x="160.5" y="-270.5" font-family="Helvetica,sans-Serif" font-size="10.00">CubeSolidScene::Update</text>
</a>
</g>
</g>
<!-- Node1&#45;&gt;Node5 -->
<g id="edge4" class="edge">
<title>Node1&#45;&gt;Node5</title>
<path fill="none" stroke="midnightblue" d="M320.31,-218.46C300.19,-229.49 271,-244.39 244,-254 233.62,-257.7 222.23,-260.86 211.33,-263.48"/>
<polygon fill="midnightblue" stroke="midnightblue" points="322.1,-221.46 329.14,-213.54 318.7,-215.35 322.1,-221.46"/>
</g>
<!-- Node6 -->
<g id="node6" class="node">
<title>Node6</title>
<g id="a_node6"><a xlink:href="classCubeVertexColorScene.html#aa27efa84023993c57c5b32497dc6aca3" target="_top" xlink:title=" ">
<polygon fill="none" stroke="black" points="96.5,-214 96.5,-244 224.5,-244 224.5,-214 96.5,-214"/>
<text text-anchor="start" x="104.5" y="-232" font-family="Helvetica,sans-Serif" font-size="10.00">CubeVertexColorScene</text>
<text text-anchor="middle" x="160.5" y="-221" font-family="Helvetica,sans-Serif" font-size="10.00">::Update</text>
</a>
</g>
</g>
<!-- Node1&#45;&gt;Node6 -->
<g id="edge5" class="edge">
<title>Node1&#45;&gt;Node6</title>
<path fill="none" stroke="midnightblue" d="M269.62,-214.31C254.67,-216.34 239.13,-218.45 224.66,-220.42"/>
<polygon fill="midnightblue" stroke="midnightblue" points="270.41,-217.73 279.85,-212.92 269.47,-210.8 270.41,-217.73"/>
</g>
<!-- Node7 -->
<g id="node7" class="node">
<title>Node7</title>
<g id="a_node7"><a xlink:href="classCubeVertexPositionColorScene.html#a72ce3d23605de3262f97e8e935bd08e0" target="_top" xlink:title=" ">
<polygon fill="none" stroke="black" points="77,-165 77,-195 244,-195 244,-165 77,-165"/>
<text text-anchor="start" x="85" y="-183" font-family="Helvetica,sans-Serif" font-size="10.00">CubeVertexPositionColorScene</text>
<text text-anchor="middle" x="160.5" y="-172" font-family="Helvetica,sans-Serif" font-size="10.00">::Update</text>
</a>
</g>
</g>
<!-- Node1&#45;&gt;Node7 -->
<g id="edge6" class="edge">
<title>Node1&#45;&gt;Node7</title>
<path fill="none" stroke="midnightblue" d="M269.69,-194.11C261.28,-193.01 252.67,-191.89 244.17,-190.78"/>
<polygon fill="midnightblue" stroke="midnightblue" points="269.48,-197.61 279.85,-195.44 270.39,-190.67 269.48,-197.61"/>
</g>
<!-- Node8 -->
<g id="node8" class="node">
<title>Node8</title>
<g id="a_node8"><a xlink:href="classDoubleCubeScene.html#aa0b545717ab49ff4b4726d15bb8917bb" target="_top" xlink:title=" ">
<polygon fill="none" stroke="black" points="87.5,-126.5 87.5,-145.5 233.5,-145.5 233.5,-126.5 87.5,-126.5"/>
<text text-anchor="middle" x="160.5" y="-133.5" font-family="Helvetica,sans-Serif" font-size="10.00">DoubleCubeScene::Update</text>
</a>
</g>
</g>
<!-- Node1&#45;&gt;Node8 -->
<g id="edge7" class="edge">
<title>Node1&#45;&gt;Node8</title>
<path fill="none" stroke="midnightblue" d="M319.12,-189.7C298.99,-179.24 270.34,-165.31 244,-156 232.61,-151.97 220.05,-148.47 208.24,-145.58"/>
<polygon fill="midnightblue" stroke="midnightblue" points="317.52,-192.81 328,-194.37 320.78,-186.62 317.52,-192.81"/>
</g>
<!-- Node9 -->
<g id="node9" class="node">
<title>Node9</title>
<g id="a_node9"><a xlink:href="classGeometryFlatScene.html#a7d045533ea001772a2e575df47500a8f" target="_top" xlink:title=" ">
<polygon fill="none" stroke="black" points="101,-77 101,-107 220,-107 220,-77 101,-77"/>
<text text-anchor="start" x="109" y="-95" font-family="Helvetica,sans-Serif" font-size="10.00">GeometryFlatScene::</text>
<text text-anchor="middle" x="160.5" y="-84" font-family="Helvetica,sans-Serif" font-size="10.00">Update</text>
</a>
</g>
</g>
<!-- Node1&#45;&gt;Node9 -->
<g id="edge8" class="edge">
<title>Node1&#45;&gt;Node9</title>
<path fill="none" stroke="midnightblue" d="M329.89,-186.87C311.22,-167.35 278.19,-135.74 244,-117 236.65,-112.97 228.57,-109.51 220.43,-106.56"/>
<polygon fill="midnightblue" stroke="midnightblue" points="327.57,-189.52 336.97,-194.42 332.68,-184.73 327.57,-189.52"/>
</g>
<!-- Node10 -->
<g id="node10" class="node">
<title>Node10</title>
<g id="a_node10"><a xlink:href="classVertexWaveScene.html#af914c4150ebb8c531dd5f14c62854e7e" target="_top" xlink:title=" ">
<polygon fill="none" stroke="black" points="87.5,-38.5 87.5,-57.5 233.5,-57.5 233.5,-38.5 87.5,-38.5"/>
<text text-anchor="middle" x="160.5" y="-45.5" font-family="Helvetica,sans-Serif" font-size="10.00">VertexWaveScene::Update</text>
</a>
</g>
</g>
<!-- Node1&#45;&gt;Node10 -->
<g id="edge9" class="edge">
<title>Node1&#45;&gt;Node10</title>
<path fill="none" stroke="midnightblue" d="M336.73,-185C321.98,-155.23 289.3,-97.92 244,-68 237.36,-63.61 229.85,-60.19 222.13,-57.51"/>
<polygon fill="midnightblue" stroke="midnightblue" points="333.71,-186.79 341.19,-194.29 340.02,-183.76 333.71,-186.79"/>
</g>
<!-- Node11 -->
<g id="node11" class="node">
<title>Node11</title>
<g id="a_node11"><a xlink:href="classEngine.html#a56cc30926ee112fbf83bfa4083d3af79" target="_top" xlink:title=" ">
<polygon fill="none" stroke="black" points="100,-0.5 100,-19.5 221,-19.5 221,-0.5 100,-0.5"/>
<text text-anchor="middle" x="160.5" y="-7.5" font-family="Helvetica,sans-Serif" font-size="10.00">Engine::UpdateModel</text>
</a>
</g>
</g>
<!-- Node1&#45;&gt;Node11 -->
<g id="edge10" class="edge">
<title>Node1&#45;&gt;Node11</title>
<path fill="none" stroke="midnightblue" d="M339.84,-184.24C328.26,-147.56 298.29,-69.07 244,-29 237.26,-24.03 229.43,-20.32 221.33,-17.58"/>
<polygon fill="midnightblue" stroke="midnightblue" points="336.6,-185.63 342.84,-194.19 343.3,-183.6 336.6,-185.63"/>
</g>
<!-- Node12 -->
<g id="node12" class="node">
<title>Node12</title>
<g id="a_node12"><a xlink:href="Main_8cpp.html#a2c3f6775325c30275d11c6abee2db6a0" target="_top" xlink:title=" ">
<polygon fill="none" stroke="black" points="0,-0.5 0,-19.5 41,-19.5 41,-0.5 0,-0.5"/>
<text text-anchor="middle" x="20.5" y="-7.5" font-family="Helvetica,sans-Serif" font-size="10.00">main</text>
</a>
</g>
</g>
<!-- Node11&#45;&gt;Node12 -->
<g id="edge11" class="edge">
<title>Node11&#45;&gt;Node12</title>
<path fill="none" stroke="midnightblue" d="M89.39,-10C71.71,-10 54.13,-10 41.29,-10"/>
<polygon fill="midnightblue" stroke="midnightblue" points="89.77,-13.5 99.77,-10 89.77,-6.5 89.77,-13.5"/>
</g>
</g>
</svg>
