<?xml version="1.0" encoding="UTF-8" standalone="no"?>
<!DOCTYPE svg PUBLIC "-//W3C//DTD SVG 1.1//EN"
 "http://www.w3.org/Graphics/SVG/1.1/DTD/svg11.dtd">
<!-- Generated by graphviz version 8.1.0 (20230707.0739)
 -->
<!-- Title: Vector2::GetMagnitude Pages: 1 -->
<svg width="424pt" height="29pt"
 viewBox="0.00 0.00 423.50 29.00" xmlns="http://www.w3.org/2000/svg" xmlns:xlink="http://www.w3.org/1999/xlink">
<g id="graph0" class="graph" transform="scale(1 1) rotate(0) translate(4 25)">
<title>Vector2::GetMagnitude</title>
<!-- Node1 -->
<g id="node1" class="node">
<title>Node1</title>
<g id="a_node1"><a xlink:title=" ">
<polygon fill="#bfbfbf" stroke="black" points="0,-0.5 0,-20.5 116.5,-20.5 116.5,-0.5 0,-0.5"/>
<text text-anchor="middle" x="58.25" y="-7" font-family="Helvetica,sans-Serif" font-size="10.00">Vector2::GetMagnitude</text>
</a>
</g>
</g>
<!-- Node2 -->
<g id="node2" class="node">
<title>Node2</title>
<g id="a_node2"><a xlink:href="class_vector2.html#a3485163d5c4a6e20a44fb49c1ebe37a8" target="_top" xlink:title=" ">
<polygon fill="none" stroke="black" points="152.5,-0.5 152.5,-20.5 305,-20.5 305,-0.5 152.5,-0.5"/>
<text text-anchor="middle" x="228.75" y="-7" font-family="Helvetica,sans-Serif" font-size="10.00">Vector2::GetMagnitudeSquared</text>
</a>
</g>
</g>
<!-- Node1&#45;&gt;Node2 -->
<g id="edge1" class="edge">
<title>Node1&#45;&gt;Node2</title>
<path fill="none" stroke="midnightblue" d="M116.3,-10.5C124.49,-10.5 133.06,-10.5 141.66,-10.5"/>
<polygon fill="midnightblue" stroke="midnightblue" points="141.54,-14 151.54,-10.5 141.54,-7 141.54,-14"/>
</g>
<!-- Node3 -->
<g id="node3" class="node">
<title>Node3</title>
<g id="a_node3"><a xlink:href="namespace_math.html#aaf39112a96239cbf99db4374c7beb3bd" target="_top" xlink:title=" ">
<polygon fill="none" stroke="black" points="341,-0.5 341,-20.5 415.5,-20.5 415.5,-0.5 341,-0.5"/>
<text text-anchor="middle" x="378.25" y="-7" font-family="Helvetica,sans-Serif" font-size="10.00">Math::Square</text>
</a>
</g>
</g>
<!-- Node2&#45;&gt;Node3 -->
<g id="edge2" class="edge">
<title>Node2&#45;&gt;Node3</title>
<path fill="none" stroke="midnightblue" d="M304.8,-10.5C313.51,-10.5 322.19,-10.5 330.37,-10.5"/>
<polygon fill="midnightblue" stroke="midnightblue" points="330.15,-14 340.15,-10.5 330.15,-7 330.15,-14"/>
</g>
</g>
</svg>
