<?xml version="1.0" encoding="UTF-8" standalone="no"?>
<!DOCTYPE svg PUBLIC "-//W3C//DTD SVG 1.1//EN"
 "http://www.w3.org/Graphics/SVG/1.1/DTD/svg11.dtd">
<!-- Generated by graphviz version 2.43.0 (0)
 -->
<!-- Title: EngineException Pages: 1 -->
<svg width="441pt" height="84pt"
 viewBox="0.00 0.00 440.50 84.00" xmlns="http://www.w3.org/2000/svg" xmlns:xlink="http://www.w3.org/1999/xlink">
<g id="graph0" class="graph" transform="scale(1 1) rotate(0) translate(4 80)">
<title>EngineException</title>
<!-- Node1 -->
<g id="node1" class="node">
<title>Node1</title>
<g id="a_node1"><a xlink:title="std::to_wstring(std::source_location::current().column())">
<polygon fill="#bfbfbf" stroke="black" points="192,-56.5 192,-75.5 290,-75.5 290,-56.5 192,-56.5"/>
<text text-anchor="middle" x="241" y="-63.5" font-family="Helvetica,sans-Serif" font-size="10.00">EngineException</text>
</a>
</g>
</g>
<!-- Node2 -->
<g id="node2" class="node">
<title>Node2</title>
<g id="a_node2"><a xlink:href="classGraphics_1_1GraphicsException.html" target="_top" xlink:title=" ">
<polygon fill="none" stroke="black" points="0,-0.5 0,-19.5 156,-19.5 156,-0.5 0,-0.5"/>
<text text-anchor="middle" x="78" y="-7.5" font-family="Helvetica,sans-Serif" font-size="10.00">Graphics::GraphicsException</text>
</a>
</g>
</g>
<!-- Node1&#45;&gt;Node2 -->
<g id="edge1" class="edge">
<title>Node1&#45;&gt;Node2</title>
<path fill="none" stroke="midnightblue" d="M205.3,-53.17C174.6,-43 131.08,-28.59 103.71,-19.52"/>
<polygon fill="midnightblue" stroke="midnightblue" points="204.58,-56.62 215.17,-56.44 206.78,-49.98 204.58,-56.62"/>
</g>
<!-- Node3 -->
<g id="node3" class="node">
<title>Node3</title>
<g id="a_node3"><a xlink:href="classMainWindow_1_1Exception.html" target="_top" xlink:title=" ">
<polygon fill="none" stroke="black" points="174.5,-0.5 174.5,-19.5 307.5,-19.5 307.5,-0.5 174.5,-0.5"/>
<text text-anchor="middle" x="241" y="-7.5" font-family="Helvetica,sans-Serif" font-size="10.00">MainWindow::Exception</text>
</a>
</g>
</g>
<!-- Node1&#45;&gt;Node3 -->
<g id="edge2" class="edge">
<title>Node1&#45;&gt;Node3</title>
<path fill="none" stroke="midnightblue" d="M241,-45.8C241,-36.91 241,-26.78 241,-19.75"/>
<polygon fill="midnightblue" stroke="midnightblue" points="237.5,-46.08 241,-56.08 244.5,-46.08 237.5,-46.08"/>
</g>
<!-- Node4 -->
<g id="node4" class="node">
<title>Node4</title>
<g id="a_node4"><a xlink:href="classSurface_1_1Exception.html" target="_top" xlink:title=" ">
<polygon fill="none" stroke="black" points="325.5,-0.5 325.5,-19.5 432.5,-19.5 432.5,-0.5 325.5,-0.5"/>
<text text-anchor="middle" x="379" y="-7.5" font-family="Helvetica,sans-Serif" font-size="10.00">Surface::Exception</text>
</a>
</g>
</g>
<!-- Node1&#45;&gt;Node4 -->
<g id="edge3" class="edge">
<title>Node1&#45;&gt;Node4</title>
<path fill="none" stroke="midnightblue" d="M272.25,-52.77C298.17,-42.63 334.36,-28.47 357.24,-19.52"/>
<polygon fill="midnightblue" stroke="midnightblue" points="270.9,-49.54 262.87,-56.44 273.45,-56.06 270.9,-49.54"/>
</g>
</g>
</svg>
