<?xml version="1.0" encoding="UTF-8" standalone="no"?>
<!DOCTYPE svg PUBLIC "-//W3C//DTD SVG 1.1//EN"
 "http://www.w3.org/Graphics/SVG/1.1/DTD/svg11.dtd">
<!-- Generated by graphviz version 2.43.0 (0)
 -->
<!-- Title: Engine::UpdateModel Pages: 1 -->
<svg width="656pt" height="256pt"
 viewBox="0.00 0.00 656.00 256.00" xmlns="http://www.w3.org/2000/svg" xmlns:xlink="http://www.w3.org/1999/xlink">
<g id="graph0" class="graph" transform="scale(1 1) rotate(0) translate(4 252)">
<title>Engine::UpdateModel</title>
<!-- Node1 -->
<g id="node1" class="node">
<title>Node1</title>
<g id="a_node1"><a xlink:title=" ">
<polygon fill="#bfbfbf" stroke="black" points="0,-114.5 0,-133.5 121,-133.5 121,-114.5 0,-114.5"/>
<text text-anchor="middle" x="60.5" y="-121.5" font-family="Helvetica,sans-Serif" font-size="10.00">Engine::UpdateModel</text>
</a>
</g>
</g>
<!-- Node2 -->
<g id="node2" class="node">
<title>Node2</title>
<g id="a_node2"><a xlink:href="classEngine.html#a5016986fb05c1dc14b808c018a152b21" target="_top" xlink:title=" ">
<polygon fill="none" stroke="black" points="177,-228.5 177,-247.5 294,-247.5 294,-228.5 177,-228.5"/>
<text text-anchor="middle" x="235.5" y="-235.5" font-family="Helvetica,sans-Serif" font-size="10.00">Engine::CycleScenes</text>
</a>
</g>
</g>
<!-- Node1&#45;&gt;Node2 -->
<g id="edge1" class="edge">
<title>Node1&#45;&gt;Node2</title>
<path fill="none" stroke="midnightblue" d="M68.19,-133.51C82.28,-152.79 117.03,-196.56 157,-219 160.98,-221.23 165.22,-223.21 169.59,-224.95"/>
<polygon fill="midnightblue" stroke="midnightblue" points="168.7,-228.35 179.3,-228.41 171.05,-221.76 168.7,-228.35"/>
</g>
<!-- Node5 -->
<g id="node5" class="node">
<title>Node5</title>
<g id="a_node5"><a xlink:href="classKeyboard.html#ad7339a4454f6f55c19b235a9dbe62c97" target="_top" xlink:title=" ">
<polygon fill="none" stroke="black" points="172.5,-190.5 172.5,-209.5 298.5,-209.5 298.5,-190.5 172.5,-190.5"/>
<text text-anchor="middle" x="235.5" y="-197.5" font-family="Helvetica,sans-Serif" font-size="10.00">Keyboard::KeyIsEmpty</text>
</a>
</g>
</g>
<!-- Node1&#45;&gt;Node5 -->
<g id="edge4" class="edge">
<title>Node1&#45;&gt;Node5</title>
<path fill="none" stroke="midnightblue" d="M74.74,-133.66C92.59,-146.25 125.74,-168.18 157,-181 162.97,-183.45 169.34,-185.64 175.75,-187.58"/>
<polygon fill="midnightblue" stroke="midnightblue" points="175.26,-191.07 185.83,-190.42 177.16,-184.34 175.26,-191.07"/>
</g>
<!-- Node6 -->
<g id="node6" class="node">
<title>Node6</title>
<g id="a_node6"><a xlink:href="classKeyboard.html#a7b11ba07982539a0dd9b16b4706e7211" target="_top" xlink:title=" ">
<polygon fill="none" stroke="black" points="169,-152.5 169,-171.5 302,-171.5 302,-152.5 169,-152.5"/>
<text text-anchor="middle" x="235.5" y="-159.5" font-family="Helvetica,sans-Serif" font-size="10.00">Keyboard::KeyIsPressed</text>
</a>
</g>
</g>
<!-- Node1&#45;&gt;Node6 -->
<g id="edge5" class="edge">
<title>Node1&#45;&gt;Node6</title>
<path fill="none" stroke="midnightblue" d="M105.16,-133.59C128.29,-138.67 156.9,-144.96 181.33,-150.32"/>
<polygon fill="midnightblue" stroke="midnightblue" points="180.64,-153.75 191.16,-152.48 182.14,-146.92 180.64,-153.75"/>
</g>
<!-- Node7 -->
<g id="node7" class="node">
<title>Node7</title>
<g id="a_node7"><a xlink:href="classMainWindow.html#a35f292c078d17dcf4b6bc29506c354ec" target="_top" xlink:title=" ">
<polygon fill="none" stroke="black" points="185,-114.5 185,-133.5 286,-133.5 286,-114.5 185,-114.5"/>
<text text-anchor="middle" x="235.5" y="-121.5" font-family="Helvetica,sans-Serif" font-size="10.00">MainWindow::Kill</text>
</a>
</g>
</g>
<!-- Node1&#45;&gt;Node7 -->
<g id="edge6" class="edge">
<title>Node1&#45;&gt;Node7</title>
<path fill="none" stroke="midnightblue" d="M121.04,-124C138.44,-124 157.46,-124 174.87,-124"/>
<polygon fill="midnightblue" stroke="midnightblue" points="174.91,-127.5 184.91,-124 174.91,-120.5 174.91,-127.5"/>
</g>
<!-- Node8 -->
<g id="node8" class="node">
<title>Node8</title>
<g id="a_node8"><a xlink:href="classFrameTimer.html#a9f9407f654b939897bfe1c1443e6e15c" target="_top" xlink:title=" ">
<polygon fill="none" stroke="black" points="182,-76.5 182,-95.5 289,-95.5 289,-76.5 182,-76.5"/>
<text text-anchor="middle" x="235.5" y="-83.5" font-family="Helvetica,sans-Serif" font-size="10.00">FrameTimer::Mark</text>
</a>
</g>
</g>
<!-- Node1&#45;&gt;Node8 -->
<g id="edge7" class="edge">
<title>Node1&#45;&gt;Node8</title>
<path fill="none" stroke="midnightblue" d="M105.16,-114.41C128.29,-109.33 156.9,-103.04 181.33,-97.68"/>
<polygon fill="midnightblue" stroke="midnightblue" points="182.14,-101.08 191.16,-95.52 180.64,-94.25 182.14,-101.08"/>
</g>
<!-- Node9 -->
<g id="node9" class="node">
<title>Node9</title>
<g id="a_node9"><a xlink:href="classKeyboard.html#a1aabaaff8f5a031317966ca0bfac7858" target="_top" xlink:title=" ">
<polygon fill="none" stroke="black" points="180,-38.5 180,-57.5 291,-57.5 291,-38.5 180,-38.5"/>
<text text-anchor="middle" x="235.5" y="-45.5" font-family="Helvetica,sans-Serif" font-size="10.00">Keyboard::ReadKey</text>
</a>
</g>
</g>
<!-- Node1&#45;&gt;Node9 -->
<g id="edge8" class="edge">
<title>Node1&#45;&gt;Node9</title>
<path fill="none" stroke="midnightblue" d="M74.74,-114.34C92.59,-101.75 125.74,-79.82 157,-67 162.97,-64.55 169.34,-62.36 175.75,-60.42"/>
<polygon fill="midnightblue" stroke="midnightblue" points="177.16,-63.66 185.83,-57.58 175.26,-56.93 177.16,-63.66"/>
</g>
<!-- Node10 -->
<g id="node10" class="node">
<title>Node10</title>
<g id="a_node10"><a xlink:href="classEngine.html#a00d1c5c1655bd9024d7150aa12c4b5c6" target="_top" xlink:title=" ">
<polygon fill="none" stroke="black" points="157,-0.5 157,-19.5 314,-19.5 314,-0.5 157,-0.5"/>
<text text-anchor="middle" x="235.5" y="-7.5" font-family="Helvetica,sans-Serif" font-size="10.00">Engine::ReverseCycleScenes</text>
</a>
</g>
</g>
<!-- Node1&#45;&gt;Node10 -->
<g id="edge9" class="edge">
<title>Node1&#45;&gt;Node10</title>
<path fill="none" stroke="midnightblue" d="M68.19,-114.49C82.28,-95.21 117.03,-51.44 157,-29 160.98,-26.77 165.22,-24.79 169.59,-23.05"/>
<polygon fill="midnightblue" stroke="midnightblue" points="171.05,-26.24 179.3,-19.59 168.7,-19.65 171.05,-26.24"/>
</g>
<!-- Node3 -->
<g id="node3" class="node">
<title>Node3</title>
<g id="a_node3"><a xlink:href="classEngine.html#a85491a83a933400a58b5f0f3da558143" target="_top" xlink:title=" ">
<polygon fill="none" stroke="black" points="350,-114.5 350,-133.5 490,-133.5 490,-114.5 350,-114.5"/>
<text text-anchor="middle" x="420" y="-121.5" font-family="Helvetica,sans-Serif" font-size="10.00">Engine::SetWindowName</text>
</a>
</g>
</g>
<!-- Node2&#45;&gt;Node3 -->
<g id="edge2" class="edge">
<title>Node2&#45;&gt;Node3</title>
<path fill="none" stroke="midnightblue" d="M290.31,-228.49C298.5,-226.01 306.66,-222.9 314,-219 351.38,-199.16 385.97,-163.04 404.62,-141.51"/>
<polygon fill="midnightblue" stroke="midnightblue" points="407.37,-143.67 411.17,-133.78 402.03,-139.15 407.37,-143.67"/>
</g>
<!-- Node4 -->
<g id="node4" class="node">
<title>Node4</title>
<g id="a_node4"><a xlink:href="classHWNDKey.html#ad0013aa027b8583318249afaaed77614" target="_top" xlink:title=" ">
<polygon fill="none" stroke="black" points="526,-114.5 526,-133.5 648,-133.5 648,-114.5 526,-114.5"/>
<text text-anchor="middle" x="587" y="-121.5" font-family="Helvetica,sans-Serif" font-size="10.00">HWNDKey::GetHWND</text>
</a>
</g>
</g>
<!-- Node3&#45;&gt;Node4 -->
<g id="edge3" class="edge">
<title>Node3&#45;&gt;Node4</title>
<path fill="none" stroke="midnightblue" d="M490.02,-124C498.49,-124 507.17,-124 515.66,-124"/>
<polygon fill="midnightblue" stroke="midnightblue" points="515.91,-127.5 525.91,-124 515.91,-120.5 515.91,-127.5"/>
</g>
<!-- Node10&#45;&gt;Node3 -->
<g id="edge10" class="edge">
<title>Node10&#45;&gt;Node3</title>
<path fill="none" stroke="midnightblue" d="M290.31,-19.51C298.5,-21.99 306.66,-25.1 314,-29 351.38,-48.84 385.97,-84.96 404.62,-106.49"/>
<polygon fill="midnightblue" stroke="midnightblue" points="402.03,-108.85 411.17,-114.22 407.37,-104.33 402.03,-108.85"/>
</g>
</g>
</svg>
