<?xml version="1.0" encoding="UTF-8" standalone="no"?>
<!DOCTYPE svg PUBLIC "-//W3C//DTD SVG 1.1//EN"
 "http://www.w3.org/Graphics/SVG/1.1/DTD/svg11.dtd">
<!-- Generated by graphviz version 8.1.0 (20230707.0739)
 -->
<!-- Title: CubeFlatIndependentScene::Update Pages: 1 -->
<svg width="303pt" height="68pt"
 viewBox="0.00 0.00 303.25 68.00" xmlns="http://www.w3.org/2000/svg" xmlns:xlink="http://www.w3.org/1999/xlink">
<g id="graph0" class="graph" transform="scale(1 1) rotate(0) translate(4 64)">
<title>CubeFlatIndependentScene::Update</title>
<!-- Node1 -->
<g id="node1" class="node">
<title>Node1</title>
<g id="a_node1"><a xlink:title=" ">
<polygon fill="#bfbfbf" stroke="black" points="0,-13.5 0,-45.5 135.25,-45.5 135.25,-13.5 0,-13.5"/>
<text text-anchor="start" x="8" y="-32" font-family="Helvetica,sans-Serif" font-size="10.00">CubeFlatIndependentScene</text>
<text text-anchor="middle" x="67.62" y="-20" font-family="Helvetica,sans-Serif" font-size="10.00">::Update</text>
</a>
</g>
</g>
<!-- Node2 -->
<g id="node2" class="node">
<title>Node2</title>
<g id="a_node2"><a xlink:href="class_keyboard.html#a7b11ba07982539a0dd9b16b4706e7211" target="_top" xlink:title=" ">
<polygon fill="none" stroke="black" points="171.25,-39.5 171.25,-59.5 295.25,-59.5 295.25,-39.5 171.25,-39.5"/>
<text text-anchor="middle" x="233.25" y="-46" font-family="Helvetica,sans-Serif" font-size="10.00">Keyboard::KeyIsPressed</text>
</a>
</g>
</g>
<!-- Node1&#45;&gt;Node2 -->
<g id="edge1" class="edge">
<title>Node1&#45;&gt;Node2</title>
<path fill="none" stroke="midnightblue" d="M135.18,-37.63C143.48,-38.65 152.01,-39.69 160.39,-40.72"/>
<polygon fill="midnightblue" stroke="midnightblue" points="159.94,-44.31 170.29,-42.05 160.79,-37.36 159.94,-44.31"/>
</g>
<!-- Node3 -->
<g id="node3" class="node">
<title>Node3</title>
<g id="a_node3"><a xlink:href="namespace_math.html#abb70099a95f7e3ae8eb62c3694775a6b" target="_top" xlink:title=" ">
<polygon fill="none" stroke="black" points="187.38,-0.5 187.38,-20.5 279.12,-20.5 279.12,-0.5 187.38,-0.5"/>
<text text-anchor="middle" x="233.25" y="-7" font-family="Helvetica,sans-Serif" font-size="10.00">Math::WrapAngle</text>
</a>
</g>
</g>
<!-- Node1&#45;&gt;Node3 -->
<g id="edge2" class="edge">
<title>Node1&#45;&gt;Node3</title>
<path fill="none" stroke="midnightblue" d="M135.18,-21.77C149.14,-20.15 163.72,-18.46 177.21,-16.89"/>
<polygon fill="midnightblue" stroke="midnightblue" points="177.23,-20.3 186.75,-15.67 176.42,-13.34 177.23,-20.3"/>
</g>
</g>
</svg>
