<?xml version="1.0" encoding="UTF-8" standalone="no"?>
<!DOCTYPE svg PUBLIC "-//W3C//DTD SVG 1.1//EN"
 "http://www.w3.org/Graphics/SVG/1.1/DTD/svg11.dtd">
<!-- Generated by graphviz version 2.43.0 (0)
 -->
<!-- Title: include/Colors.h Pages: 1 -->
<svg width="547pt" height="196pt"
 viewBox="0.00 0.00 547.00 196.00" xmlns="http://www.w3.org/2000/svg" xmlns:xlink="http://www.w3.org/1999/xlink">
<g id="graph0" class="graph" transform="scale(1 1) rotate(0) translate(4 192)">
<title>include/Colors.h</title>
<!-- Node1 -->
<g id="node1" class="node">
<title>Node1</title>
<g id="a_node1"><a xlink:title=" ">
<polygon fill="#bfbfbf" stroke="black" points="129.5,-168.5 129.5,-187.5 224.5,-187.5 224.5,-168.5 129.5,-168.5"/>
<text text-anchor="middle" x="177" y="-175.5" font-family="Helvetica,sans-Serif" font-size="10.00">include/Colors.h</text>
</a>
</g>
</g>
<!-- Node2 -->
<g id="node2" class="node">
<title>Node2</title>
<g id="a_node2"><a xlink:href="Vector3_8h.html" target="_top" xlink:title=" ">
<polygon fill="none" stroke="black" points="110.5,-112.5 110.5,-131.5 243.5,-131.5 243.5,-112.5 110.5,-112.5"/>
<text text-anchor="middle" x="177" y="-119.5" font-family="Helvetica,sans-Serif" font-size="10.00">LinearAlgebra/Vector3.h</text>
</a>
</g>
</g>
<!-- Node1&#45;&gt;Node2 -->
<g id="edge1" class="edge">
<title>Node1&#45;&gt;Node2</title>
<path fill="none" stroke="midnightblue" d="M177,-168.08C177,-161.01 177,-150.86 177,-141.99"/>
<polygon fill="midnightblue" stroke="midnightblue" points="180.5,-141.75 177,-131.75 173.5,-141.75 180.5,-141.75"/>
</g>
<!-- Node3 -->
<g id="node3" class="node">
<title>Node3</title>
<g id="a_node3"><a xlink:href="Math_8h.html" target="_top" xlink:title=" ">
<polygon fill="none" stroke="black" points="276,-56.5 276,-75.5 326,-75.5 326,-56.5 276,-56.5"/>
<text text-anchor="middle" x="301" y="-63.5" font-family="Helvetica,sans-Serif" font-size="10.00">Math.h</text>
</a>
</g>
</g>
<!-- Node2&#45;&gt;Node3 -->
<g id="edge2" class="edge">
<title>Node2&#45;&gt;Node3</title>
<path fill="none" stroke="midnightblue" d="M196.65,-112.44C216.96,-103.6 248.9,-89.69 272.1,-79.59"/>
<polygon fill="midnightblue" stroke="midnightblue" points="273.67,-82.72 281.44,-75.52 270.88,-76.3 273.67,-82.72"/>
</g>
<!-- Node9 -->
<g id="node9" class="node">
<title>Node9</title>
<g id="a_node9"><a xlink:href="Matrix3_8h.html" target="_top" xlink:title=" ">
<polygon fill="none" stroke="black" points="115.5,-56.5 115.5,-75.5 178.5,-75.5 178.5,-56.5 115.5,-56.5"/>
<text text-anchor="middle" x="147" y="-63.5" font-family="Helvetica,sans-Serif" font-size="10.00">Matrix3.h</text>
</a>
</g>
</g>
<!-- Node2&#45;&gt;Node9 -->
<g id="edge8" class="edge">
<title>Node2&#45;&gt;Node9</title>
<path fill="none" stroke="midnightblue" d="M172.05,-112.08C167.9,-104.61 161.85,-93.72 156.73,-84.52"/>
<polygon fill="midnightblue" stroke="midnightblue" points="159.78,-82.79 151.86,-75.75 153.66,-86.19 159.78,-82.79"/>
</g>
<!-- Node10 -->
<g id="node10" class="node">
<title>Node10</title>
<g id="a_node10"><a xlink:title=" ">
<polygon fill="none" stroke="#bfbfbf" points="0,-0.5 0,-19.5 42,-19.5 42,-0.5 0,-0.5"/>
<text text-anchor="middle" x="21" y="-7.5" font-family="Helvetica,sans-Serif" font-size="10.00">array</text>
</a>
</g>
</g>
<!-- Node2&#45;&gt;Node10 -->
<g id="edge13" class="edge">
<title>Node2&#45;&gt;Node10</title>
<path fill="none" stroke="midnightblue" d="M157.63,-112.48C139.85,-104.26 113.15,-90.91 92,-76 71.22,-61.35 50.06,-41.15 36.32,-27.18"/>
<polygon fill="midnightblue" stroke="midnightblue" points="38.61,-24.51 29.14,-19.76 33.57,-29.38 38.61,-24.51"/>
</g>
<!-- Node11 -->
<g id="node11" class="node">
<title>Node11</title>
<g id="a_node11"><a xlink:title=" ">
<polygon fill="none" stroke="#bfbfbf" points="60.5,-0.5 60.5,-19.5 113.5,-19.5 113.5,-0.5 60.5,-0.5"/>
<text text-anchor="middle" x="87" y="-7.5" font-family="Helvetica,sans-Serif" font-size="10.00">cstddef</text>
</a>
</g>
</g>
<!-- Node2&#45;&gt;Node11 -->
<g id="edge16" class="edge">
<title>Node2&#45;&gt;Node11</title>
<path fill="none" stroke="midnightblue" d="M156.07,-112.37C140.44,-104.91 119.66,-92.69 107,-76 96.75,-62.49 91.71,-43.68 89.25,-29.77"/>
<polygon fill="midnightblue" stroke="midnightblue" points="92.71,-29.24 87.79,-19.86 85.79,-30.27 92.71,-29.24"/>
</g>
<!-- Node12 -->
<g id="node12" class="node">
<title>Node12</title>
<g id="a_node12"><a xlink:title=" ">
<polygon fill="none" stroke="#bfbfbf" points="132,-0.5 132,-19.5 192,-19.5 192,-0.5 132,-0.5"/>
<text text-anchor="middle" x="162" y="-7.5" font-family="Helvetica,sans-Serif" font-size="10.00">iostream</text>
</a>
</g>
</g>
<!-- Node2&#45;&gt;Node12 -->
<g id="edge14" class="edge">
<title>Node2&#45;&gt;Node12</title>
<path fill="none" stroke="midnightblue" d="M180.74,-112.48C185.73,-99.95 193.34,-75.9 188,-56 185.35,-46.1 179.93,-36.13 174.73,-28.1"/>
<polygon fill="midnightblue" stroke="midnightblue" points="177.46,-25.91 168.89,-19.68 171.71,-29.89 177.46,-25.91"/>
</g>
<!-- Node13 -->
<g id="node13" class="node">
<title>Node13</title>
<g id="a_node13"><a xlink:title=" ">
<polygon fill="none" stroke="#bfbfbf" points="344.5,-56.5 344.5,-75.5 403.5,-75.5 403.5,-56.5 344.5,-56.5"/>
<text text-anchor="middle" x="374" y="-63.5" font-family="Helvetica,sans-Serif" font-size="10.00">compare</text>
</a>
</g>
</g>
<!-- Node2&#45;&gt;Node13 -->
<g id="edge15" class="edge">
<title>Node2&#45;&gt;Node13</title>
<path fill="none" stroke="midnightblue" d="M208.22,-112.44C242.33,-103.09 297.07,-88.09 334.24,-77.9"/>
<polygon fill="midnightblue" stroke="midnightblue" points="335.5,-81.18 344.22,-75.16 333.65,-74.43 335.5,-81.18"/>
</g>
<!-- Node4 -->
<g id="node4" class="node">
<title>Node4</title>
<g id="a_node4"><a xlink:title=" ">
<polygon fill="none" stroke="#bfbfbf" points="275.5,-0.5 275.5,-19.5 326.5,-19.5 326.5,-0.5 275.5,-0.5"/>
<text text-anchor="middle" x="301" y="-7.5" font-family="Helvetica,sans-Serif" font-size="10.00">math.h</text>
</a>
</g>
</g>
<!-- Node3&#45;&gt;Node4 -->
<g id="edge3" class="edge">
<title>Node3&#45;&gt;Node4</title>
<path fill="none" stroke="midnightblue" d="M301,-56.08C301,-49.01 301,-38.86 301,-29.99"/>
<polygon fill="midnightblue" stroke="midnightblue" points="304.5,-29.75 301,-19.75 297.5,-29.75 304.5,-29.75"/>
</g>
<!-- Node5 -->
<g id="node5" class="node">
<title>Node5</title>
<g id="a_node5"><a xlink:title=" ">
<polygon fill="none" stroke="#bfbfbf" points="210.5,-0.5 210.5,-19.5 257.5,-19.5 257.5,-0.5 210.5,-0.5"/>
<text text-anchor="middle" x="234" y="-7.5" font-family="Helvetica,sans-Serif" font-size="10.00">cmath</text>
</a>
</g>
</g>
<!-- Node3&#45;&gt;Node5 -->
<g id="edge4" class="edge">
<title>Node3&#45;&gt;Node5</title>
<path fill="none" stroke="midnightblue" d="M290.24,-56.32C280.23,-48.26 265.11,-36.08 253.07,-26.37"/>
<polygon fill="midnightblue" stroke="midnightblue" points="254.94,-23.38 244.96,-19.83 250.55,-28.83 254.94,-23.38"/>
</g>
<!-- Node6 -->
<g id="node6" class="node">
<title>Node6</title>
<g id="a_node6"><a xlink:title=" ">
<polygon fill="none" stroke="#bfbfbf" points="345,-0.5 345,-19.5 389,-19.5 389,-0.5 345,-0.5"/>
<text text-anchor="middle" x="367" y="-7.5" font-family="Helvetica,sans-Serif" font-size="10.00">limits</text>
</a>
</g>
</g>
<!-- Node3&#45;&gt;Node6 -->
<g id="edge5" class="edge">
<title>Node3&#45;&gt;Node6</title>
<path fill="none" stroke="midnightblue" d="M311.6,-56.32C321.46,-48.26 336.35,-36.08 348.22,-26.37"/>
<polygon fill="midnightblue" stroke="midnightblue" points="350.68,-28.88 356.2,-19.83 346.25,-23.46 350.68,-28.88"/>
</g>
<!-- Node7 -->
<g id="node7" class="node">
<title>Node7</title>
<g id="a_node7"><a xlink:title=" ">
<polygon fill="none" stroke="#bfbfbf" points="407.5,-0.5 407.5,-19.5 466.5,-19.5 466.5,-0.5 407.5,-0.5"/>
<text text-anchor="middle" x="437" y="-7.5" font-family="Helvetica,sans-Serif" font-size="10.00">numbers</text>
</a>
</g>
</g>
<!-- Node3&#45;&gt;Node7 -->
<g id="edge6" class="edge">
<title>Node3&#45;&gt;Node7</title>
<path fill="none" stroke="midnightblue" d="M322.55,-56.44C345.03,-47.52 380.49,-33.44 405.98,-23.32"/>
<polygon fill="midnightblue" stroke="midnightblue" points="407.55,-26.46 415.55,-19.52 404.97,-19.95 407.55,-26.46"/>
</g>
<!-- Node8 -->
<g id="node8" class="node">
<title>Node8</title>
<g id="a_node8"><a xlink:title=" ">
<polygon fill="none" stroke="#bfbfbf" points="485,-0.5 485,-19.5 539,-19.5 539,-0.5 485,-0.5"/>
<text text-anchor="middle" x="512" y="-7.5" font-family="Helvetica,sans-Serif" font-size="10.00">random</text>
</a>
</g>
</g>
<!-- Node3&#45;&gt;Node8 -->
<g id="edge7" class="edge">
<title>Node3&#45;&gt;Node8</title>
<path fill="none" stroke="midnightblue" d="M326.23,-58.51C329.52,-57.66 332.84,-56.81 336,-56 383.96,-43.7 439.29,-29.56 474.92,-20.47"/>
<polygon fill="midnightblue" stroke="midnightblue" points="476.04,-23.79 484.86,-17.93 474.31,-17.01 476.04,-23.79"/>
</g>
<!-- Node9&#45;&gt;Node5 -->
<g id="edge10" class="edge">
<title>Node9&#45;&gt;Node5</title>
<path fill="none" stroke="midnightblue" d="M160.98,-56.32C174.55,-47.9 195.38,-34.97 211.32,-25.07"/>
<polygon fill="midnightblue" stroke="midnightblue" points="213.41,-27.9 220.06,-19.65 209.71,-21.95 213.41,-27.9"/>
</g>
<!-- Node9&#45;&gt;Node10 -->
<g id="edge9" class="edge">
<title>Node9&#45;&gt;Node10</title>
<path fill="none" stroke="midnightblue" d="M127.03,-56.44C106.39,-47.6 73.94,-33.69 50.37,-23.59"/>
<polygon fill="midnightblue" stroke="midnightblue" points="51.44,-20.24 40.87,-19.52 48.68,-26.67 51.44,-20.24"/>
</g>
<!-- Node9&#45;&gt;Node11 -->
<g id="edge11" class="edge">
<title>Node9&#45;&gt;Node11</title>
<path fill="none" stroke="midnightblue" d="M137.36,-56.32C128.49,-48.34 115.13,-36.31 104.39,-26.65"/>
<polygon fill="midnightblue" stroke="midnightblue" points="106.59,-23.92 96.82,-19.83 101.91,-29.13 106.59,-23.92"/>
</g>
<!-- Node9&#45;&gt;Node12 -->
<g id="edge12" class="edge">
<title>Node9&#45;&gt;Node12</title>
<path fill="none" stroke="midnightblue" d="M149.48,-56.08C151.49,-48.85 154.39,-38.41 156.89,-29.4"/>
<polygon fill="midnightblue" stroke="midnightblue" points="160.26,-30.32 159.57,-19.75 153.52,-28.45 160.26,-30.32"/>
</g>
</g>
</svg>
