<?xml version="1.0" encoding="UTF-8" standalone="no"?>
<!DOCTYPE svg PUBLIC "-//W3C//DTD SVG 1.1//EN"
 "http://www.w3.org/Graphics/SVG/1.1/DTD/svg11.dtd">
<!-- Generated by graphviz version 2.43.0 (0)
 -->
<!-- Title: include/Scenes/CubeSkinScene.h Pages: 1 -->
<svg width="1509pt" height="532pt"
 viewBox="0.00 0.00 1509.00 532.00" xmlns="http://www.w3.org/2000/svg" xmlns:xlink="http://www.w3.org/1999/xlink">
<g id="graph0" class="graph" transform="scale(1 1) rotate(0) translate(4 528)">
<title>include/Scenes/CubeSkinScene.h</title>
<!-- Node1 -->
<g id="node1" class="node">
<title>Node1</title>
<g id="a_node1"><a xlink:title=" ">
<polygon fill="#bfbfbf" stroke="black" points="272,-504.5 272,-523.5 448,-523.5 448,-504.5 272,-504.5"/>
<text text-anchor="middle" x="360" y="-511.5" font-family="Helvetica,sans-Serif" font-size="10.00">include/Scenes/CubeSkinScene.h</text>
</a>
</g>
</g>
<!-- Node2 -->
<g id="node2" class="node">
<title>Node2</title>
<g id="a_node2"><a xlink:href="Scene_8h.html" target="_top" xlink:title=" ">
<polygon fill="none" stroke="black" points="257.5,-336.5 257.5,-355.5 312.5,-355.5 312.5,-336.5 257.5,-336.5"/>
<text text-anchor="middle" x="285" y="-343.5" font-family="Helvetica,sans-Serif" font-size="10.00">Scene.h</text>
</a>
</g>
</g>
<!-- Node1&#45;&gt;Node2 -->
<g id="edge1" class="edge">
<title>Node1&#45;&gt;Node2</title>
<path fill="none" stroke="midnightblue" d="M352.32,-504.22C345.02,-495.52 334.11,-481.55 327,-468 308.98,-433.67 296.02,-389.96 289.59,-365.59"/>
<polygon fill="midnightblue" stroke="midnightblue" points="292.9,-364.39 287.03,-355.57 286.11,-366.13 292.9,-364.39"/>
</g>
<!-- Node16 -->
<g id="node16" class="node">
<title>Node16</title>
<g id="a_node16"><a xlink:href="Matrix3_8h.html" target="_top" xlink:title=" ">
<polygon fill="none" stroke="black" points="375.5,-56.5 375.5,-75.5 438.5,-75.5 438.5,-56.5 375.5,-56.5"/>
<text text-anchor="middle" x="407" y="-63.5" font-family="Helvetica,sans-Serif" font-size="10.00">Matrix3.h</text>
</a>
</g>
</g>
<!-- Node1&#45;&gt;Node16 -->
<g id="edge66" class="edge">
<title>Node1&#45;&gt;Node16</title>
<path fill="none" stroke="midnightblue" d="M362.56,-504.25C367.75,-485.74 379,-441.18 379,-403 379,-403 379,-403 379,-289 379,-243.06 394.95,-233.54 401,-188 405.78,-151.99 406.84,-109.48 407.03,-85.65"/>
<polygon fill="midnightblue" stroke="midnightblue" points="410.53,-85.56 407.06,-75.55 403.53,-85.54 410.53,-85.56"/>
</g>
<!-- Node24 -->
<g id="node24" class="node">
<title>Node24</title>
<g id="a_node24"><a xlink:href="Vector3_8h.html" target="_top" xlink:title=" ">
<polygon fill="none" stroke="black" points="250.5,-112.5 250.5,-131.5 383.5,-131.5 383.5,-112.5 250.5,-112.5"/>
<text text-anchor="middle" x="317" y="-119.5" font-family="Helvetica,sans-Serif" font-size="10.00">LinearAlgebra/Vector3.h</text>
</a>
</g>
</g>
<!-- Node1&#45;&gt;Node24 -->
<g id="edge67" class="edge">
<title>Node1&#45;&gt;Node24</title>
<path fill="none" stroke="midnightblue" d="M310.14,-504.45C257.17,-492.16 181,-463.91 181,-403 181,-403 181,-403 181,-345 181,-261.2 192.15,-232.21 246,-168 257.31,-154.52 273.72,-143.75 287.91,-136.13"/>
<polygon fill="midnightblue" stroke="midnightblue" points="289.52,-139.24 296.84,-131.59 286.34,-133 289.52,-139.24"/>
</g>
<!-- Node36 -->
<g id="node35" class="node">
<title>Node36</title>
<g id="a_node35"><a xlink:href="Cube_8h.html" target="_top" xlink:title=" ">
<polygon fill="none" stroke="black" points="209.5,-280.5 209.5,-299.5 312.5,-299.5 312.5,-280.5 209.5,-280.5"/>
<text text-anchor="middle" x="261" y="-287.5" font-family="Helvetica,sans-Serif" font-size="10.00">Primitives/Cube.h</text>
</a>
</g>
</g>
<!-- Node1&#45;&gt;Node36 -->
<g id="edge51" class="edge">
<title>Node1&#45;&gt;Node36</title>
<path fill="none" stroke="midnightblue" d="M360.14,-504.47C360.19,-477.46 357.29,-392.35 321,-336 312.69,-323.09 299.3,-312.52 287.28,-304.88"/>
<polygon fill="midnightblue" stroke="midnightblue" points="288.84,-301.74 278.46,-299.62 285.25,-307.75 288.84,-301.74"/>
</g>
<!-- Node48 -->
<g id="node44" class="node">
<title>Node48</title>
<g id="a_node44"><a xlink:href="Pipeline_8h.html" target="_top" xlink:title=" ">
<polygon fill="none" stroke="black" points="877.5,-392.5 877.5,-411.5 942.5,-411.5 942.5,-392.5 877.5,-392.5"/>
<text text-anchor="middle" x="910" y="-399.5" font-family="Helvetica,sans-Serif" font-size="10.00">Pipeline.h</text>
</a>
</g>
</g>
<!-- Node1&#45;&gt;Node48 -->
<g id="edge68" class="edge">
<title>Node1&#45;&gt;Node48</title>
<path fill="none" stroke="midnightblue" d="M402.7,-504.46C505.31,-483.94 764.81,-432.04 867.36,-411.53"/>
<polygon fill="midnightblue" stroke="midnightblue" points="868.23,-414.92 877.35,-409.53 866.86,-408.06 868.23,-414.92"/>
</g>
<!-- Node52 -->
<g id="node48" class="node">
<title>Node52</title>
<g id="a_node48"><a xlink:href="TextureEffect_8h.html" target="_top" xlink:title=" ">
<polygon fill="none" stroke="black" points="892.5,-448.5 892.5,-467.5 1017.5,-467.5 1017.5,-448.5 892.5,-448.5"/>
<text text-anchor="middle" x="955" y="-455.5" font-family="Helvetica,sans-Serif" font-size="10.00">Effects/TextureEffect.h</text>
</a>
</g>
</g>
<!-- Node1&#45;&gt;Node52 -->
<g id="edge81" class="edge">
<title>Node1&#45;&gt;Node52</title>
<path fill="none" stroke="midnightblue" d="M448.11,-505C565.95,-494.31 772.67,-475.55 882.17,-465.61"/>
<polygon fill="midnightblue" stroke="midnightblue" points="882.81,-469.07 892.45,-464.68 882.18,-462.09 882.81,-469.07"/>
</g>
<!-- Node3 -->
<g id="node3" class="node">
<title>Node3</title>
<g id="a_node3"><a xlink:href="Keyboard_8h.html" target="_top" xlink:title=" ">
<polygon fill="none" stroke="black" points="76.5,-280.5 76.5,-299.5 147.5,-299.5 147.5,-280.5 76.5,-280.5"/>
<text text-anchor="middle" x="112" y="-287.5" font-family="Helvetica,sans-Serif" font-size="10.00">Keyboard.h</text>
</a>
</g>
</g>
<!-- Node2&#45;&gt;Node3 -->
<g id="edge2" class="edge">
<title>Node2&#45;&gt;Node3</title>
<path fill="none" stroke="midnightblue" d="M257.59,-336.44C228.23,-327.28 181.48,-312.69 148.9,-302.52"/>
<polygon fill="midnightblue" stroke="midnightblue" points="149.87,-299.16 139.28,-299.52 147.79,-305.84 149.87,-299.16"/>
</g>
<!-- Node6 -->
<g id="node6" class="node">
<title>Node6</title>
<g id="a_node6"><a xlink:href="Mouse_8h.html" target="_top" xlink:title=" ">
<polygon fill="none" stroke="black" points="0,-280.5 0,-299.5 58,-299.5 58,-280.5 0,-280.5"/>
<text text-anchor="middle" x="29" y="-287.5" font-family="Helvetica,sans-Serif" font-size="10.00">Mouse.h</text>
</a>
</g>
</g>
<!-- Node2&#45;&gt;Node6 -->
<g id="edge5" class="edge">
<title>Node2&#45;&gt;Node6</title>
<path fill="none" stroke="midnightblue" d="M257.41,-339.57C217.77,-331.71 142.15,-316.51 68,-300.17"/>
<polygon fill="midnightblue" stroke="midnightblue" points="68.55,-296.71 58.03,-297.97 67.03,-303.54 68.55,-296.71"/>
</g>
<!-- Node20 -->
<g id="node20" class="node">
<title>Node20</title>
<g id="a_node20"><a xlink:href="Graphics_8h.html" target="_top" xlink:title=" ">
<polygon fill="none" stroke="black" points="612,-280.5 612,-299.5 680,-299.5 680,-280.5 612,-280.5"/>
<text text-anchor="middle" x="646" y="-287.5" font-family="Helvetica,sans-Serif" font-size="10.00">Graphics.h</text>
</a>
</g>
</g>
<!-- Node2&#45;&gt;Node20 -->
<g id="edge25" class="edge">
<title>Node2&#45;&gt;Node20</title>
<path fill="none" stroke="midnightblue" d="M312.73,-340.85C375.01,-331.54 526.45,-308.88 601.84,-297.61"/>
<polygon fill="midnightblue" stroke="midnightblue" points="602.59,-301.03 611.96,-296.09 601.55,-294.11 602.59,-301.03"/>
</g>
<!-- Node22 -->
<g id="node22" class="node">
<title>Node22</title>
<g id="a_node22"><a xlink:title=" ">
<polygon fill="none" stroke="#bfbfbf" points="812,-112.5 812,-131.5 856,-131.5 856,-112.5 812,-112.5"/>
<text text-anchor="middle" x="834" y="-119.5" font-family="Helvetica,sans-Serif" font-size="10.00">string</text>
</a>
</g>
</g>
<!-- Node2&#45;&gt;Node22 -->
<g id="edge50" class="edge">
<title>Node2&#45;&gt;Node22</title>
<path fill="none" stroke="midnightblue" d="M312.89,-344.49C379.15,-342.72 550.77,-334.85 689,-300 753.58,-283.72 789.37,-298.26 828,-244 849.68,-213.55 844.15,-167.07 838.74,-141.49"/>
<polygon fill="midnightblue" stroke="midnightblue" points="842.12,-140.56 836.44,-131.62 835.3,-142.16 842.12,-140.56"/>
</g>
<!-- Node4 -->
<g id="node4" class="node">
<title>Node4</title>
<g id="a_node4"><a xlink:title=" ">
<polygon fill="none" stroke="#bfbfbf" points="84,-224.5 84,-243.5 128,-243.5 128,-224.5 84,-224.5"/>
<text text-anchor="middle" x="106" y="-231.5" font-family="Helvetica,sans-Serif" font-size="10.00">bitset</text>
</a>
</g>
</g>
<!-- Node3&#45;&gt;Node4 -->
<g id="edge3" class="edge">
<title>Node3&#45;&gt;Node4</title>
<path fill="none" stroke="midnightblue" d="M111.01,-280.08C110.21,-272.93 109.07,-262.64 108.08,-253.69"/>
<polygon fill="midnightblue" stroke="midnightblue" points="111.56,-253.3 106.97,-243.75 104.6,-254.08 111.56,-253.3"/>
</g>
<!-- Node5 -->
<g id="node5" class="node">
<title>Node5</title>
<g id="a_node5"><a xlink:title=" ">
<polygon fill="none" stroke="#bfbfbf" points="18.5,-224.5 18.5,-243.5 65.5,-243.5 65.5,-224.5 18.5,-224.5"/>
<text text-anchor="middle" x="42" y="-231.5" font-family="Helvetica,sans-Serif" font-size="10.00">queue</text>
</a>
</g>
</g>
<!-- Node3&#45;&gt;Node5 -->
<g id="edge4" class="edge">
<title>Node3&#45;&gt;Node5</title>
<path fill="none" stroke="midnightblue" d="M100.75,-280.32C90.2,-272.18 74.2,-259.84 61.56,-250.09"/>
<polygon fill="midnightblue" stroke="midnightblue" points="63.51,-247.17 53.45,-243.83 59.23,-252.71 63.51,-247.17"/>
</g>
<!-- Node6&#45;&gt;Node5 -->
<g id="edge24" class="edge">
<title>Node6&#45;&gt;Node5</title>
<path fill="none" stroke="midnightblue" d="M31.15,-280.08C32.87,-272.93 35.35,-262.64 37.5,-253.69"/>
<polygon fill="midnightblue" stroke="midnightblue" points="40.96,-254.29 39.89,-243.75 34.15,-252.65 40.96,-254.29"/>
</g>
<!-- Node7 -->
<g id="node7" class="node">
<title>Node7</title>
<g id="a_node7"><a xlink:href="Vector2_8h.html" target="_top" xlink:title=" ">
<polygon fill="none" stroke="black" points="89.5,-112.5 89.5,-131.5 222.5,-131.5 222.5,-112.5 89.5,-112.5"/>
<text text-anchor="middle" x="156" y="-119.5" font-family="Helvetica,sans-Serif" font-size="10.00">LinearAlgebra/Vector2.h</text>
</a>
</g>
</g>
<!-- Node6&#45;&gt;Node7 -->
<g id="edge6" class="edge">
<title>Node6&#45;&gt;Node7</title>
<path fill="none" stroke="midnightblue" d="M22.14,-280.19C13.01,-267.3 -0.9,-242.81 9,-224 32.59,-179.17 86.08,-150.38 121.6,-135.45"/>
<polygon fill="midnightblue" stroke="midnightblue" points="123.15,-138.6 131.11,-131.6 120.53,-132.11 123.15,-138.6"/>
</g>
<!-- Node8 -->
<g id="node8" class="node">
<title>Node8</title>
<g id="a_node8"><a xlink:href="Math_8h.html" target="_top" xlink:title=" ">
<polygon fill="none" stroke="black" points="507,-56.5 507,-75.5 557,-75.5 557,-56.5 507,-56.5"/>
<text text-anchor="middle" x="532" y="-63.5" font-family="Helvetica,sans-Serif" font-size="10.00">Math.h</text>
</a>
</g>
</g>
<!-- Node7&#45;&gt;Node8 -->
<g id="edge7" class="edge">
<title>Node7&#45;&gt;Node8</title>
<path fill="none" stroke="midnightblue" d="M215.58,-112.44C294.82,-101.06 432.39,-81.31 496.81,-72.05"/>
<polygon fill="midnightblue" stroke="midnightblue" points="497.47,-75.5 506.87,-70.61 496.47,-68.57 497.47,-75.5"/>
</g>
<!-- Node14 -->
<g id="node14" class="node">
<title>Node14</title>
<g id="a_node14"><a xlink:href="Matrix2_8h.html" target="_top" xlink:title=" ">
<polygon fill="none" stroke="black" points="25.5,-56.5 25.5,-75.5 88.5,-75.5 88.5,-56.5 25.5,-56.5"/>
<text text-anchor="middle" x="57" y="-63.5" font-family="Helvetica,sans-Serif" font-size="10.00">Matrix2.h</text>
</a>
</g>
</g>
<!-- Node7&#45;&gt;Node14 -->
<g id="edge13" class="edge">
<title>Node7&#45;&gt;Node14</title>
<path fill="none" stroke="midnightblue" d="M140.09,-112.32C124.36,-103.74 100.06,-90.49 81.79,-80.52"/>
<polygon fill="midnightblue" stroke="midnightblue" points="83.32,-77.37 72.87,-75.65 79.97,-83.52 83.32,-77.37"/>
</g>
<!-- Node15 -->
<g id="node15" class="node">
<title>Node15</title>
<g id="a_node15"><a xlink:title=" ">
<polygon fill="none" stroke="#bfbfbf" points="153,-0.5 153,-19.5 213,-19.5 213,-0.5 153,-0.5"/>
<text text-anchor="middle" x="183" y="-7.5" font-family="Helvetica,sans-Serif" font-size="10.00">iostream</text>
</a>
</g>
</g>
<!-- Node7&#45;&gt;Node15 -->
<g id="edge23" class="edge">
<title>Node7&#45;&gt;Node15</title>
<path fill="none" stroke="midnightblue" d="M150.8,-112.34C143.88,-99.65 133.36,-75.39 141,-56 145.51,-44.55 154.47,-34.29 162.95,-26.47"/>
<polygon fill="midnightblue" stroke="midnightblue" points="165.47,-28.93 170.79,-19.76 160.91,-23.61 165.47,-28.93"/>
</g>
<!-- Node7&#45;&gt;Node16 -->
<g id="edge15" class="edge">
<title>Node7&#45;&gt;Node16</title>
<path fill="none" stroke="midnightblue" d="M195.77,-112.44C242.13,-102.47 318.39,-86.06 365.49,-75.93"/>
<polygon fill="midnightblue" stroke="midnightblue" points="366.32,-79.33 375.36,-73.81 364.85,-72.49 366.32,-79.33"/>
</g>
<!-- Node17 -->
<g id="node17" class="node">
<title>Node17</title>
<g id="a_node17"><a xlink:title=" ">
<polygon fill="none" stroke="#bfbfbf" points="308,-0.5 308,-19.5 350,-19.5 350,-0.5 308,-0.5"/>
<text text-anchor="middle" x="329" y="-7.5" font-family="Helvetica,sans-Serif" font-size="10.00">array</text>
</a>
</g>
</g>
<!-- Node7&#45;&gt;Node17 -->
<g id="edge20" class="edge">
<title>Node7&#45;&gt;Node17</title>
<path fill="none" stroke="midnightblue" d="M156.65,-112.07C158.15,-98.12 163.05,-71.19 179,-56 211.42,-25.12 264.2,-15.35 297.73,-12.3"/>
<polygon fill="midnightblue" stroke="midnightblue" points="298.18,-15.78 307.89,-11.54 297.65,-8.8 298.18,-15.78"/>
</g>
<!-- Node18 -->
<g id="node18" class="node">
<title>Node18</title>
<g id="a_node18"><a xlink:title=" ">
<polygon fill="none" stroke="#bfbfbf" points="368.5,-0.5 368.5,-19.5 421.5,-19.5 421.5,-0.5 368.5,-0.5"/>
<text text-anchor="middle" x="395" y="-7.5" font-family="Helvetica,sans-Serif" font-size="10.00">cstddef</text>
</a>
</g>
</g>
<!-- Node7&#45;&gt;Node18 -->
<g id="edge22" class="edge">
<title>Node7&#45;&gt;Node18</title>
<path fill="none" stroke="midnightblue" d="M160.97,-112.33C169.52,-98.23 188.38,-70.48 212,-56 266.77,-22.43 291.45,-34.88 358.52,-19.99"/>
<polygon fill="midnightblue" stroke="midnightblue" points="359.33,-23.39 368.27,-17.7 357.73,-16.58 359.33,-23.39"/>
</g>
<!-- Node19 -->
<g id="node19" class="node">
<title>Node19</title>
<g id="a_node19"><a xlink:title=" ">
<polygon fill="none" stroke="#bfbfbf" points="221.5,-56.5 221.5,-75.5 280.5,-75.5 280.5,-56.5 221.5,-56.5"/>
<text text-anchor="middle" x="251" y="-63.5" font-family="Helvetica,sans-Serif" font-size="10.00">compare</text>
</a>
</g>
</g>
<!-- Node7&#45;&gt;Node19 -->
<g id="edge21" class="edge">
<title>Node7&#45;&gt;Node19</title>
<path fill="none" stroke="midnightblue" d="M171.26,-112.32C186.22,-103.82 209.25,-90.73 226.73,-80.8"/>
<polygon fill="midnightblue" stroke="midnightblue" points="228.81,-83.64 235.77,-75.65 225.35,-77.55 228.81,-83.64"/>
</g>
<!-- Node9 -->
<g id="node9" class="node">
<title>Node9</title>
<g id="a_node9"><a xlink:title=" ">
<polygon fill="none" stroke="#bfbfbf" points="577.5,-0.5 577.5,-19.5 628.5,-19.5 628.5,-0.5 577.5,-0.5"/>
<text text-anchor="middle" x="603" y="-7.5" font-family="Helvetica,sans-Serif" font-size="10.00">math.h</text>
</a>
</g>
</g>
<!-- Node8&#45;&gt;Node9 -->
<g id="edge8" class="edge">
<title>Node8&#45;&gt;Node9</title>
<path fill="none" stroke="midnightblue" d="M543.41,-56.32C554.11,-48.18 570.34,-35.84 583.16,-26.09"/>
<polygon fill="midnightblue" stroke="midnightblue" points="585.54,-28.67 591.39,-19.83 581.31,-23.1 585.54,-28.67"/>
</g>
<!-- Node10 -->
<g id="node10" class="node">
<title>Node10</title>
<g id="a_node10"><a xlink:title=" ">
<polygon fill="none" stroke="#bfbfbf" points="439.5,-0.5 439.5,-19.5 486.5,-19.5 486.5,-0.5 439.5,-0.5"/>
<text text-anchor="middle" x="463" y="-7.5" font-family="Helvetica,sans-Serif" font-size="10.00">cmath</text>
</a>
</g>
</g>
<!-- Node8&#45;&gt;Node10 -->
<g id="edge9" class="edge">
<title>Node8&#45;&gt;Node10</title>
<path fill="none" stroke="midnightblue" d="M520.91,-56.32C510.51,-48.18 494.74,-35.84 482.28,-26.09"/>
<polygon fill="midnightblue" stroke="midnightblue" points="484.32,-23.24 474.29,-19.83 480.01,-28.75 484.32,-23.24"/>
</g>
<!-- Node11 -->
<g id="node11" class="node">
<title>Node11</title>
<g id="a_node11"><a xlink:title=" ">
<polygon fill="none" stroke="#bfbfbf" points="1218,-0.5 1218,-19.5 1262,-19.5 1262,-0.5 1218,-0.5"/>
<text text-anchor="middle" x="1240" y="-7.5" font-family="Helvetica,sans-Serif" font-size="10.00">limits</text>
</a>
</g>
</g>
<!-- Node8&#45;&gt;Node11 -->
<g id="edge10" class="edge">
<title>Node8&#45;&gt;Node11</title>
<path fill="none" stroke="midnightblue" d="M557.2,-63.08C665.04,-54.85 1087.67,-22.62 1207.92,-13.45"/>
<polygon fill="midnightblue" stroke="midnightblue" points="1208.26,-16.93 1217.96,-12.68 1207.73,-9.95 1208.26,-16.93"/>
</g>
<!-- Node12 -->
<g id="node12" class="node">
<title>Node12</title>
<g id="a_node12"><a xlink:title=" ">
<polygon fill="none" stroke="#bfbfbf" points="646.5,-0.5 646.5,-19.5 705.5,-19.5 705.5,-0.5 646.5,-0.5"/>
<text text-anchor="middle" x="676" y="-7.5" font-family="Helvetica,sans-Serif" font-size="10.00">numbers</text>
</a>
</g>
</g>
<!-- Node8&#45;&gt;Node12 -->
<g id="edge11" class="edge">
<title>Node8&#45;&gt;Node12</title>
<path fill="none" stroke="midnightblue" d="M554.82,-56.44C578.83,-47.44 616.83,-33.19 643.87,-23.05"/>
<polygon fill="midnightblue" stroke="midnightblue" points="645.16,-26.3 653.29,-19.52 642.7,-19.75 645.16,-26.3"/>
</g>
<!-- Node13 -->
<g id="node13" class="node">
<title>Node13</title>
<g id="a_node13"><a xlink:title=" ">
<polygon fill="none" stroke="#bfbfbf" points="505,-0.5 505,-19.5 559,-19.5 559,-0.5 505,-0.5"/>
<text text-anchor="middle" x="532" y="-7.5" font-family="Helvetica,sans-Serif" font-size="10.00">random</text>
</a>
</g>
</g>
<!-- Node8&#45;&gt;Node13 -->
<g id="edge12" class="edge">
<title>Node8&#45;&gt;Node13</title>
<path fill="none" stroke="midnightblue" d="M532,-56.08C532,-49.01 532,-38.86 532,-29.99"/>
<polygon fill="midnightblue" stroke="midnightblue" points="535.5,-29.75 532,-19.75 528.5,-29.75 535.5,-29.75"/>
</g>
<!-- Node14&#45;&gt;Node15 -->
<g id="edge14" class="edge">
<title>Node14&#45;&gt;Node15</title>
<path fill="none" stroke="midnightblue" d="M76.97,-56.44C97.61,-47.6 130.06,-33.69 153.63,-23.59"/>
<polygon fill="midnightblue" stroke="midnightblue" points="155.32,-26.67 163.13,-19.52 152.56,-20.24 155.32,-26.67"/>
</g>
<!-- Node16&#45;&gt;Node10 -->
<g id="edge17" class="edge">
<title>Node16&#45;&gt;Node10</title>
<path fill="none" stroke="midnightblue" d="M416,-56.32C424.19,-48.42 436.51,-36.55 446.47,-26.94"/>
<polygon fill="midnightblue" stroke="midnightblue" points="449.07,-29.29 453.84,-19.83 444.21,-24.26 449.07,-29.29"/>
</g>
<!-- Node16&#45;&gt;Node15 -->
<g id="edge19" class="edge">
<title>Node16&#45;&gt;Node15</title>
<path fill="none" stroke="midnightblue" d="M375.38,-57.38C335.41,-47.74 266.58,-31.15 222.99,-20.64"/>
<polygon fill="midnightblue" stroke="midnightblue" points="223.57,-17.18 213.03,-18.24 221.93,-23.98 223.57,-17.18"/>
</g>
<!-- Node16&#45;&gt;Node17 -->
<g id="edge16" class="edge">
<title>Node16&#45;&gt;Node17</title>
<path fill="none" stroke="midnightblue" d="M394.47,-56.32C382.41,-47.98 363.97,-35.21 349.73,-25.35"/>
<polygon fill="midnightblue" stroke="midnightblue" points="351.72,-22.47 341.5,-19.65 347.73,-28.22 351.72,-22.47"/>
</g>
<!-- Node16&#45;&gt;Node18 -->
<g id="edge18" class="edge">
<title>Node16&#45;&gt;Node18</title>
<path fill="none" stroke="midnightblue" d="M405.02,-56.08C403.43,-48.93 401.14,-38.64 399.15,-29.69"/>
<polygon fill="midnightblue" stroke="midnightblue" points="402.53,-28.75 396.94,-19.75 395.7,-30.27 402.53,-28.75"/>
</g>
<!-- Node21 -->
<g id="node21" class="node">
<title>Node21</title>
<g id="a_node21"><a xlink:href="EngineException_8h.html" target="_top" xlink:title=" ">
<polygon fill="none" stroke="black" points="698.5,-168.5 698.5,-187.5 805.5,-187.5 805.5,-168.5 698.5,-168.5"/>
<text text-anchor="middle" x="752" y="-175.5" font-family="Helvetica,sans-Serif" font-size="10.00">EngineException.h</text>
</a>
</g>
</g>
<!-- Node20&#45;&gt;Node21 -->
<g id="edge26" class="edge">
<title>Node20&#45;&gt;Node21</title>
<path fill="none" stroke="midnightblue" d="M680.2,-284.62C723.97,-278.24 796.08,-264.81 812,-244 826.52,-225.02 801.23,-205.11 779.16,-192.4"/>
<polygon fill="midnightblue" stroke="midnightblue" points="780.79,-189.3 770.33,-187.58 777.43,-195.45 780.79,-189.3"/>
</g>
<!-- Node20&#45;&gt;Node24 -->
<g id="edge29" class="edge">
<title>Node20&#45;&gt;Node24</title>
<path fill="none" stroke="midnightblue" d="M611.78,-284.5C569.57,-278.31 496.05,-265.43 436,-244 384.71,-225.69 358.84,-232.19 327,-188 317.51,-174.83 315.48,-156.24 315.54,-142.31"/>
<polygon fill="midnightblue" stroke="midnightblue" points="319.06,-142.07 315.98,-131.93 312.06,-141.77 319.06,-142.07"/>
</g>
<!-- Node25 -->
<g id="node25" class="node">
<title>Node25</title>
<g id="a_node25"><a xlink:href="GDIPlusManager_8h.html" target="_top" xlink:title=" ">
<polygon fill="none" stroke="black" points="697,-224.5 697,-243.5 803,-243.5 803,-224.5 697,-224.5"/>
<text text-anchor="middle" x="750" y="-231.5" font-family="Helvetica,sans-Serif" font-size="10.00">GDIPlusManager.h</text>
</a>
</g>
</g>
<!-- Node20&#45;&gt;Node25 -->
<g id="edge36" class="edge">
<title>Node20&#45;&gt;Node25</title>
<path fill="none" stroke="midnightblue" d="M662.71,-280.32C679.31,-271.7 705,-258.36 724.22,-248.39"/>
<polygon fill="midnightblue" stroke="midnightblue" points="726.07,-251.37 733.33,-243.65 722.84,-245.16 726.07,-251.37"/>
</g>
<!-- Node29 -->
<g id="node29" class="node">
<title>Node29</title>
<g id="a_node29"><a xlink:href="Surface_8h.html" target="_top" xlink:title=" ">
<polygon fill="none" stroke="red" points="445,-224.5 445,-243.5 507,-243.5 507,-224.5 445,-224.5"/>
<text text-anchor="middle" x="476" y="-231.5" font-family="Helvetica,sans-Serif" font-size="10.00">Surface.h</text>
</a>
</g>
</g>
<!-- Node20&#45;&gt;Node29 -->
<g id="edge40" class="edge">
<title>Node20&#45;&gt;Node29</title>
<path fill="none" stroke="midnightblue" d="M619.06,-280.44C590.34,-271.32 544.67,-256.81 512.68,-246.65"/>
<polygon fill="midnightblue" stroke="midnightblue" points="513.4,-243.21 502.81,-243.52 511.28,-249.88 513.4,-243.21"/>
</g>
<!-- Node34 -->
<g id="node33" class="node">
<title>Node34</title>
<g id="a_node33"><a xlink:title=" ">
<polygon fill="none" stroke="#bfbfbf" points="563,-224.5 563,-243.5 619,-243.5 619,-224.5 563,-224.5"/>
<text text-anchor="middle" x="591" y="-231.5" font-family="Helvetica,sans-Serif" font-size="10.00">d3d11.h</text>
</a>
</g>
</g>
<!-- Node20&#45;&gt;Node34 -->
<g id="edge48" class="edge">
<title>Node20&#45;&gt;Node34</title>
<path fill="none" stroke="midnightblue" d="M636.92,-280.08C628.83,-272.14 616.8,-260.34 607.09,-250.8"/>
<polygon fill="midnightblue" stroke="midnightblue" points="609.5,-248.26 599.91,-243.75 604.6,-253.25 609.5,-248.26"/>
</g>
<!-- Node35 -->
<g id="node34" class="node">
<title>Node35</title>
<g id="a_node34"><a xlink:title=" ">
<polygon fill="none" stroke="#bfbfbf" points="637.5,-224.5 637.5,-243.5 678.5,-243.5 678.5,-224.5 637.5,-224.5"/>
<text text-anchor="middle" x="658" y="-231.5" font-family="Helvetica,sans-Serif" font-size="10.00">wrl.h</text>
</a>
</g>
</g>
<!-- Node20&#45;&gt;Node35 -->
<g id="edge49" class="edge">
<title>Node20&#45;&gt;Node35</title>
<path fill="none" stroke="midnightblue" d="M647.98,-280.08C649.57,-272.93 651.86,-262.64 653.85,-253.69"/>
<polygon fill="midnightblue" stroke="midnightblue" points="657.3,-254.27 656.06,-243.75 650.47,-252.75 657.3,-254.27"/>
</g>
<!-- Node21&#45;&gt;Node22 -->
<g id="edge27" class="edge">
<title>Node21&#45;&gt;Node22</title>
<path fill="none" stroke="midnightblue" d="M765.17,-168.32C777.85,-159.98 797.23,-147.21 812.21,-137.35"/>
<polygon fill="midnightblue" stroke="midnightblue" points="814.43,-140.08 820.86,-131.65 810.58,-134.23 814.43,-140.08"/>
</g>
<!-- Node23 -->
<g id="node23" class="node">
<title>Node23</title>
<g id="a_node23"><a xlink:title=" ">
<polygon fill="none" stroke="#bfbfbf" points="700.5,-112.5 700.5,-131.5 793.5,-131.5 793.5,-112.5 700.5,-112.5"/>
<text text-anchor="middle" x="747" y="-119.5" font-family="Helvetica,sans-Serif" font-size="10.00">source_location</text>
</a>
</g>
</g>
<!-- Node21&#45;&gt;Node23 -->
<g id="edge28" class="edge">
<title>Node21&#45;&gt;Node23</title>
<path fill="none" stroke="midnightblue" d="M751.17,-168.08C750.52,-161.01 749.58,-150.86 748.76,-141.99"/>
<polygon fill="midnightblue" stroke="midnightblue" points="752.22,-141.39 747.81,-131.75 745.25,-142.03 752.22,-141.39"/>
</g>
<!-- Node24&#45;&gt;Node8 -->
<g id="edge30" class="edge">
<title>Node24&#45;&gt;Node8</title>
<path fill="none" stroke="midnightblue" d="M351.07,-112.44C390.93,-102.43 456.61,-85.94 496.91,-75.81"/>
<polygon fill="midnightblue" stroke="midnightblue" points="497.98,-79.15 506.83,-73.32 496.27,-72.36 497.98,-79.15"/>
</g>
<!-- Node24&#45;&gt;Node15 -->
<g id="edge33" class="edge">
<title>Node24&#45;&gt;Node15</title>
<path fill="none" stroke="midnightblue" d="M315.41,-112.25C312.48,-98.55 305.03,-71.94 289,-56 271.05,-38.15 244.93,-26.95 223.11,-20.19"/>
<polygon fill="midnightblue" stroke="midnightblue" points="224.01,-16.8 213.43,-17.38 222.06,-23.53 224.01,-16.8"/>
</g>
<!-- Node24&#45;&gt;Node16 -->
<g id="edge31" class="edge">
<title>Node24&#45;&gt;Node16</title>
<path fill="none" stroke="midnightblue" d="M331.46,-112.32C345.5,-103.9 367.05,-90.97 383.54,-81.07"/>
<polygon fill="midnightblue" stroke="midnightblue" points="385.8,-83.8 392.58,-75.65 382.2,-77.8 385.8,-83.8"/>
</g>
<!-- Node24&#45;&gt;Node17 -->
<g id="edge32" class="edge">
<title>Node24&#45;&gt;Node17</title>
<path fill="none" stroke="midnightblue" d="M318.25,-112.39C319.55,-103.34 321.57,-88.69 323,-76 324.75,-60.5 326.35,-42.87 327.46,-29.89"/>
<polygon fill="midnightblue" stroke="midnightblue" points="330.95,-30.1 328.3,-19.84 323.98,-29.52 330.95,-30.1"/>
</g>
<!-- Node24&#45;&gt;Node18 -->
<g id="edge35" class="edge">
<title>Node24&#45;&gt;Node18</title>
<path fill="none" stroke="midnightblue" d="M383.62,-114.21C407.95,-108.13 433.12,-96.84 448,-76 461.06,-57.71 439.1,-37.84 419.61,-24.95"/>
<polygon fill="midnightblue" stroke="midnightblue" points="421.29,-21.88 410.96,-19.55 417.58,-27.82 421.29,-21.88"/>
</g>
<!-- Node24&#45;&gt;Node19 -->
<g id="edge34" class="edge">
<title>Node24&#45;&gt;Node19</title>
<path fill="none" stroke="midnightblue" d="M306.4,-112.32C296.54,-104.26 281.65,-92.08 269.78,-82.37"/>
<polygon fill="midnightblue" stroke="midnightblue" points="271.75,-79.46 261.8,-75.83 267.32,-84.88 271.75,-79.46"/>
</g>
<!-- Node26 -->
<g id="node26" class="node">
<title>Node26</title>
<g id="a_node26"><a xlink:href="Win_8h.html" target="_top" xlink:title=" ">
<polygon fill="none" stroke="black" points="598,-168.5 598,-187.5 642,-187.5 642,-168.5 598,-168.5"/>
<text text-anchor="middle" x="620" y="-175.5" font-family="Helvetica,sans-Serif" font-size="10.00">Win.h</text>
</a>
</g>
</g>
<!-- Node25&#45;&gt;Node26 -->
<g id="edge37" class="edge">
<title>Node25&#45;&gt;Node26</title>
<path fill="none" stroke="midnightblue" d="M729.4,-224.44C708.01,-215.56 674.32,-201.56 649.98,-191.45"/>
<polygon fill="midnightblue" stroke="midnightblue" points="651.08,-188.12 640.5,-187.52 648.39,-194.58 651.08,-188.12"/>
</g>
<!-- Node27 -->
<g id="node27" class="node">
<title>Node27</title>
<g id="a_node27"><a xlink:title=" ">
<polygon fill="none" stroke="#bfbfbf" points="594,-112.5 594,-131.5 670,-131.5 670,-112.5 594,-112.5"/>
<text text-anchor="middle" x="632" y="-119.5" font-family="Helvetica,sans-Serif" font-size="10.00">sdkddkver.h</text>
</a>
</g>
</g>
<!-- Node26&#45;&gt;Node27 -->
<g id="edge38" class="edge">
<title>Node26&#45;&gt;Node27</title>
<path fill="none" stroke="midnightblue" d="M621.98,-168.08C623.57,-160.93 625.86,-150.64 627.85,-141.69"/>
<polygon fill="midnightblue" stroke="midnightblue" points="631.3,-142.27 630.06,-131.75 624.47,-140.75 631.3,-142.27"/>
</g>
<!-- Node28 -->
<g id="node28" class="node">
<title>Node28</title>
<g id="a_node28"><a xlink:title=" ">
<polygon fill="none" stroke="#bfbfbf" points="506,-112.5 506,-131.5 576,-131.5 576,-112.5 506,-112.5"/>
<text text-anchor="middle" x="541" y="-119.5" font-family="Helvetica,sans-Serif" font-size="10.00">Windows.h</text>
</a>
</g>
</g>
<!-- Node26&#45;&gt;Node28 -->
<g id="edge39" class="edge">
<title>Node26&#45;&gt;Node28</title>
<path fill="none" stroke="midnightblue" d="M607.31,-168.32C595.1,-159.98 576.42,-147.21 562,-137.35"/>
<polygon fill="midnightblue" stroke="midnightblue" points="563.89,-134.41 553.66,-131.65 559.94,-140.19 563.89,-134.41"/>
</g>
<!-- Node29&#45;&gt;Node21 -->
<g id="edge44" class="edge">
<title>Node29&#45;&gt;Node21</title>
<path fill="none" stroke="midnightblue" d="M507.12,-226.91C553.54,-217.83 641.52,-200.62 698.41,-189.49"/>
<polygon fill="midnightblue" stroke="midnightblue" points="699.16,-192.9 708.31,-187.55 697.82,-186.03 699.16,-192.9"/>
</g>
<!-- Node29&#45;&gt;Node22 -->
<g id="edge47" class="edge">
<title>Node29&#45;&gt;Node22</title>
<path fill="none" stroke="midnightblue" d="M507.31,-227.14C542.83,-220 602.17,-206.54 651,-188 669.21,-181.09 671.97,-175.38 690,-168 710.35,-159.67 765.96,-142.91 801.82,-132.36"/>
<polygon fill="midnightblue" stroke="midnightblue" points="803.2,-135.6 811.81,-129.43 801.23,-128.88 803.2,-135.6"/>
</g>
<!-- Node29&#45;&gt;Node26 -->
<g id="edge41" class="edge">
<title>Node29&#45;&gt;Node26</title>
<path fill="none" stroke="midnightblue" d="M498.82,-224.44C522.97,-215.39 561.28,-201.02 588.35,-190.87"/>
<polygon fill="midnightblue" stroke="midnightblue" points="589.63,-194.13 597.76,-187.34 587.17,-187.57 589.63,-194.13"/>
</g>
<!-- Node30 -->
<g id="node30" class="node">
<title>Node30</title>
<g id="a_node30"><a xlink:href="Colors_8h.html" target="_top" xlink:title=" ">
<polygon fill="none" stroke="black" points="336,-168.5 336,-187.5 392,-187.5 392,-168.5 336,-168.5"/>
<text text-anchor="middle" x="364" y="-175.5" font-family="Helvetica,sans-Serif" font-size="10.00">Colors.h</text>
</a>
</g>
</g>
<!-- Node29&#45;&gt;Node30 -->
<g id="edge42" class="edge">
<title>Node29&#45;&gt;Node30</title>
<path fill="none" stroke="midnightblue" d="M458.01,-224.32C439.96,-215.62 411.95,-202.12 391.2,-192.11"/>
<polygon fill="midnightblue" stroke="midnightblue" points="392.48,-188.84 381.95,-187.65 389.44,-195.15 392.48,-188.84"/>
</g>
<!-- Node31 -->
<g id="node31" class="node">
<title>Node31</title>
<g id="a_node31"><a xlink:title=" ">
<polygon fill="none" stroke="#bfbfbf" points="448,-168.5 448,-187.5 504,-187.5 504,-168.5 448,-168.5"/>
<text text-anchor="middle" x="476" y="-175.5" font-family="Helvetica,sans-Serif" font-size="10.00">assert.h</text>
</a>
</g>
</g>
<!-- Node29&#45;&gt;Node31 -->
<g id="edge45" class="edge">
<title>Node29&#45;&gt;Node31</title>
<path fill="none" stroke="midnightblue" d="M476,-224.08C476,-217.01 476,-206.86 476,-197.99"/>
<polygon fill="midnightblue" stroke="midnightblue" points="479.5,-197.75 476,-187.75 472.5,-197.75 479.5,-197.75"/>
</g>
<!-- Node32 -->
<g id="node32" class="node">
<title>Node32</title>
<g id="a_node32"><a xlink:title=" ">
<polygon fill="none" stroke="#bfbfbf" points="522,-168.5 522,-187.5 580,-187.5 580,-168.5 522,-168.5"/>
<text text-anchor="middle" x="551" y="-175.5" font-family="Helvetica,sans-Serif" font-size="10.00">memory</text>
</a>
</g>
</g>
<!-- Node29&#45;&gt;Node32 -->
<g id="edge46" class="edge">
<title>Node29&#45;&gt;Node32</title>
<path fill="none" stroke="midnightblue" d="M488.05,-224.32C499.46,-216.11 516.83,-203.6 530.43,-193.81"/>
<polygon fill="midnightblue" stroke="midnightblue" points="532.66,-196.52 538.73,-187.83 528.57,-190.84 532.66,-196.52"/>
</g>
<!-- Node30&#45;&gt;Node24 -->
<g id="edge43" class="edge">
<title>Node30&#45;&gt;Node24</title>
<path fill="none" stroke="midnightblue" d="M356.24,-168.08C349.46,-160.3 339.46,-148.8 331.24,-139.37"/>
<polygon fill="midnightblue" stroke="midnightblue" points="333.82,-137 324.62,-131.75 328.54,-141.59 333.82,-137"/>
</g>
<!-- Node36&#45;&gt;Node7 -->
<g id="edge64" class="edge">
<title>Node36&#45;&gt;Node7</title>
<path fill="none" stroke="midnightblue" d="M255.35,-280.08C238.61,-253.61 189.02,-175.21 166.89,-140.21"/>
<polygon fill="midnightblue" stroke="midnightblue" points="169.72,-138.15 161.42,-131.57 163.81,-141.89 169.72,-138.15"/>
</g>
<!-- Node36&#45;&gt;Node24 -->
<g id="edge65" class="edge">
<title>Node36&#45;&gt;Node24</title>
<path fill="none" stroke="midnightblue" d="M257.97,-280.49C251.18,-259.86 236.76,-206.1 256,-168 262.81,-154.52 275.77,-144.08 288,-136.67"/>
<polygon fill="midnightblue" stroke="midnightblue" points="290.07,-139.52 297.09,-131.59 286.66,-133.41 290.07,-139.52"/>
</g>
<!-- Node37 -->
<g id="node36" class="node">
<title>Node37</title>
<g id="a_node36"><a xlink:href="IndexedTriangleList_8h.html" target="_top" xlink:title=" ">
<polygon fill="none" stroke="black" points="967.5,-224.5 967.5,-243.5 1086.5,-243.5 1086.5,-224.5 967.5,-224.5"/>
<text text-anchor="middle" x="1027" y="-231.5" font-family="Helvetica,sans-Serif" font-size="10.00">IndexedTriangleList.h</text>
</a>
</g>
</g>
<!-- Node36&#45;&gt;Node37 -->
<g id="edge52" class="edge">
<title>Node36&#45;&gt;Node37</title>
<path fill="none" stroke="midnightblue" d="M312.75,-285.35C446.71,-275.91 804.97,-250.65 957.11,-239.93"/>
<polygon fill="midnightblue" stroke="midnightblue" points="957.54,-243.41 967.27,-239.21 957.05,-236.42 957.54,-243.41"/>
</g>
<!-- Node37&#45;&gt;Node24 -->
<g id="edge53" class="edge">
<title>Node37&#45;&gt;Node24</title>
<path fill="none" stroke="midnightblue" d="M1004.49,-224.4C966.2,-210.16 885.64,-181.86 815,-168 736.47,-152.59 512.74,-136.03 393.69,-127.98"/>
<polygon fill="midnightblue" stroke="midnightblue" points="393.77,-124.47 383.56,-127.29 393.3,-131.46 393.77,-124.47"/>
</g>
<!-- Node38 -->
<g id="node37" class="node">
<title>Node38</title>
<g id="a_node37"><a xlink:href="tiny__obj__loader_8h.html" target="_top" xlink:title=" ">
<polygon fill="none" stroke="red" points="1006,-168.5 1006,-187.5 1106,-187.5 1106,-168.5 1006,-168.5"/>
<text text-anchor="middle" x="1056" y="-175.5" font-family="Helvetica,sans-Serif" font-size="10.00">tiny_obj_loader.h</text>
</a>
</g>
</g>
<!-- Node37&#45;&gt;Node38 -->
<g id="edge54" class="edge">
<title>Node37&#45;&gt;Node38</title>
<path fill="none" stroke="midnightblue" d="M1031.79,-224.08C1035.76,-216.69 1041.53,-205.95 1046.43,-196.81"/>
<polygon fill="midnightblue" stroke="midnightblue" points="1049.65,-198.22 1051.3,-187.75 1043.49,-194.91 1049.65,-198.22"/>
</g>
<!-- Node40 -->
<g id="node38" class="node">
<title>Node40</title>
<g id="a_node38"><a xlink:title=" ">
<polygon fill="none" stroke="#bfbfbf" points="1098.5,-112.5 1098.5,-131.5 1145.5,-131.5 1145.5,-112.5 1098.5,-112.5"/>
<text text-anchor="middle" x="1122" y="-119.5" font-family="Helvetica,sans-Serif" font-size="10.00">vector</text>
</a>
</g>
</g>
<!-- Node37&#45;&gt;Node40 -->
<g id="edge61" class="edge">
<title>Node37&#45;&gt;Node40</title>
<path fill="none" stroke="midnightblue" d="M1084.74,-224.46C1125.92,-217.05 1176.19,-204.85 1189,-188 1204.22,-167.98 1176.37,-148.35 1152.07,-135.99"/>
<polygon fill="midnightblue" stroke="midnightblue" points="1153.56,-132.82 1143.03,-131.62 1150.52,-139.12 1153.56,-132.82"/>
</g>
<!-- Node41 -->
<g id="node39" class="node">
<title>Node41</title>
<g id="a_node39"><a xlink:href="Miniball_8h.html" target="_top" xlink:title=" ">
<polygon fill="none" stroke="red" points="1315.5,-168.5 1315.5,-187.5 1380.5,-187.5 1380.5,-168.5 1315.5,-168.5"/>
<text text-anchor="middle" x="1348" y="-175.5" font-family="Helvetica,sans-Serif" font-size="10.00">Miniball.h</text>
</a>
</g>
</g>
<!-- Node37&#45;&gt;Node41 -->
<g id="edge57" class="edge">
<title>Node37&#45;&gt;Node41</title>
<path fill="none" stroke="midnightblue" d="M1086.16,-224.49C1140.73,-216.41 1224.22,-203.48 1305.47,-188.21"/>
<polygon fill="midnightblue" stroke="midnightblue" points="1306.19,-191.64 1315.36,-186.34 1304.88,-184.76 1306.19,-191.64"/>
</g>
<!-- Node46 -->
<g id="node42" class="node">
<title>Node46</title>
<g id="a_node42"><a xlink:title=" ">
<polygon fill="none" stroke="#bfbfbf" points="1124.5,-168.5 1124.5,-187.5 1179.5,-187.5 1179.5,-168.5 1124.5,-168.5"/>
<text text-anchor="middle" x="1152" y="-175.5" font-family="Helvetica,sans-Serif" font-size="10.00">fstream</text>
</a>
</g>
</g>
<!-- Node37&#45;&gt;Node46 -->
<g id="edge62" class="edge">
<title>Node37&#45;&gt;Node46</title>
<path fill="none" stroke="midnightblue" d="M1046.81,-224.44C1067.29,-215.6 1099.48,-201.69 1122.86,-191.59"/>
<polygon fill="midnightblue" stroke="midnightblue" points="1124.49,-194.7 1132.29,-187.52 1121.72,-188.27 1124.49,-194.7"/>
</g>
<!-- Node47 -->
<g id="node43" class="node">
<title>Node47</title>
<g id="a_node43"><a xlink:title=" ">
<polygon fill="none" stroke="#bfbfbf" points="938.5,-168.5 938.5,-187.5 987.5,-187.5 987.5,-168.5 938.5,-168.5"/>
<text text-anchor="middle" x="963" y="-175.5" font-family="Helvetica,sans-Serif" font-size="10.00">cctype</text>
</a>
</g>
</g>
<!-- Node37&#45;&gt;Node47 -->
<g id="edge63" class="edge">
<title>Node37&#45;&gt;Node47</title>
<path fill="none" stroke="midnightblue" d="M1016.72,-224.32C1007.16,-216.26 992.72,-204.08 981.22,-194.37"/>
<polygon fill="midnightblue" stroke="midnightblue" points="983.37,-191.61 973.47,-187.83 978.86,-196.96 983.37,-191.61"/>
</g>
<!-- Node38&#45;&gt;Node22 -->
<g id="edge55" class="edge">
<title>Node38&#45;&gt;Node22</title>
<path fill="none" stroke="midnightblue" d="M1020.82,-168.44C978.22,-158.08 907.07,-140.77 865.96,-130.77"/>
<polygon fill="midnightblue" stroke="midnightblue" points="866.74,-127.36 856.2,-128.4 865.08,-134.16 866.74,-127.36"/>
</g>
<!-- Node38&#45;&gt;Node40 -->
<g id="edge56" class="edge">
<title>Node38&#45;&gt;Node40</title>
<path fill="none" stroke="midnightblue" d="M1066.6,-168.32C1076.46,-160.26 1091.35,-148.08 1103.22,-138.37"/>
<polygon fill="midnightblue" stroke="midnightblue" points="1105.68,-140.88 1111.2,-131.83 1101.25,-135.46 1105.68,-140.88"/>
</g>
<!-- Node41&#45;&gt;Node11 -->
<g id="edge60" class="edge">
<title>Node41&#45;&gt;Node11</title>
<path fill="none" stroke="midnightblue" d="M1346.67,-168.12C1344.45,-155.14 1339.21,-130.54 1329,-112 1310.08,-77.63 1277.7,-44.91 1257.65,-26.45"/>
<polygon fill="midnightblue" stroke="midnightblue" points="1259.9,-23.77 1250.13,-19.66 1255.21,-28.96 1259.9,-23.77"/>
</g>
<!-- Node42 -->
<g id="node40" class="node">
<title>Node42</title>
<g id="a_node40"><a xlink:title=" ">
<polygon fill="none" stroke="#bfbfbf" points="1268,-112.5 1268,-131.5 1320,-131.5 1320,-112.5 1268,-112.5"/>
<text text-anchor="middle" x="1294" y="-119.5" font-family="Helvetica,sans-Serif" font-size="10.00">cassert</text>
</a>
</g>
</g>
<!-- Node41&#45;&gt;Node42 -->
<g id="edge58" class="edge">
<title>Node41&#45;&gt;Node42</title>
<path fill="none" stroke="midnightblue" d="M1339.08,-168.08C1331.22,-160.22 1319.57,-148.57 1310.08,-139.08"/>
<polygon fill="midnightblue" stroke="midnightblue" points="1312.3,-136.35 1302.75,-131.75 1307.35,-141.3 1312.3,-136.35"/>
</g>
<!-- Node43 -->
<g id="node41" class="node">
<title>Node43</title>
<g id="a_node41"><a xlink:title=" ">
<polygon fill="none" stroke="#bfbfbf" points="1376,-112.5 1376,-131.5 1440,-131.5 1440,-112.5 1376,-112.5"/>
<text text-anchor="middle" x="1408" y="-119.5" font-family="Helvetica,sans-Serif" font-size="10.00">algorithm</text>
</a>
</g>
</g>
<!-- Node41&#45;&gt;Node43 -->
<g id="edge59" class="edge">
<title>Node41&#45;&gt;Node43</title>
<path fill="none" stroke="midnightblue" d="M1357.64,-168.32C1366.51,-160.34 1379.87,-148.31 1390.61,-138.65"/>
<polygon fill="midnightblue" stroke="midnightblue" points="1393.09,-141.13 1398.18,-131.83 1388.41,-135.92 1393.09,-141.13"/>
</g>
<!-- Node48&#45;&gt;Node16 -->
<g id="edge76" class="edge">
<title>Node48&#45;&gt;Node16</title>
<path fill="none" stroke="midnightblue" d="M910,-392.44C910,-373.94 910,-328.81 910,-291 910,-291 910,-291 910,-177 910,-141.86 895.29,-129.81 865,-112 794.36,-70.47 579.55,-84.03 498,-76 481.95,-74.42 464.32,-72.68 448.88,-71.15"/>
<polygon fill="midnightblue" stroke="midnightblue" points="448.88,-67.63 438.59,-70.13 448.19,-74.6 448.88,-67.63"/>
</g>
<!-- Node48&#45;&gt;Node20 -->
<g id="edge70" class="edge">
<title>Node48&#45;&gt;Node20</title>
<path fill="none" stroke="midnightblue" d="M889.28,-392.37C842.83,-373.01 730.15,-326.06 676.02,-303.51"/>
<polygon fill="midnightblue" stroke="midnightblue" points="677.2,-300.21 666.62,-299.59 674.5,-306.67 677.2,-300.21"/>
</g>
<!-- Node48&#45;&gt;Node26 -->
<g id="edge69" class="edge">
<title>Node48&#45;&gt;Node26</title>
<path fill="none" stroke="midnightblue" d="M877.48,-401.6C800.39,-402.28 609.78,-399.42 567,-356 525.63,-314.01 526.45,-276.12 554,-224 561.48,-209.85 575.62,-199.32 588.9,-192.01"/>
<polygon fill="midnightblue" stroke="midnightblue" points="590.53,-195.11 597.87,-187.47 587.36,-188.87 590.53,-195.11"/>
</g>
<!-- Node48&#45;&gt;Node37 -->
<g id="edge72" class="edge">
<title>Node48&#45;&gt;Node37</title>
<path fill="none" stroke="midnightblue" d="M916.29,-392.08C935.03,-365.49 990.68,-286.54 1015.18,-251.76"/>
<polygon fill="midnightblue" stroke="midnightblue" points="1018.06,-253.76 1020.96,-243.57 1012.34,-249.73 1018.06,-253.76"/>
</g>
<!-- Node48&#45;&gt;Node43 -->
<g id="edge80" class="edge">
<title>Node48&#45;&gt;Node43</title>
<path fill="none" stroke="midnightblue" d="M942.74,-393.89C1053.75,-369.78 1409,-292.5 1409,-291 1409,-291 1409,-291 1409,-233 1409,-200.95 1408.57,-163.64 1408.27,-141.75"/>
<polygon fill="midnightblue" stroke="midnightblue" points="1411.77,-141.51 1408.13,-131.56 1404.77,-141.61 1411.77,-141.51"/>
</g>
<!-- Node49 -->
<g id="node45" class="node">
<title>Node49</title>
<g id="a_node45"><a xlink:href="Triangle_8h.html" target="_top" xlink:title=" ">
<polygon fill="none" stroke="black" points="1437,-336.5 1437,-355.5 1501,-355.5 1501,-336.5 1437,-336.5"/>
<text text-anchor="middle" x="1469" y="-343.5" font-family="Helvetica,sans-Serif" font-size="10.00">Triangle.h</text>
</a>
</g>
</g>
<!-- Node48&#45;&gt;Node49 -->
<g id="edge71" class="edge">
<title>Node48&#45;&gt;Node49</title>
<path fill="none" stroke="midnightblue" d="M942.94,-393.5C945.99,-392.94 949.05,-392.43 952,-392 1159.78,-361.94 1214.96,-384.2 1423,-356 1424.27,-355.83 1425.56,-355.64 1426.86,-355.45"/>
<polygon fill="midnightblue" stroke="midnightblue" points="1427.62,-358.87 1436.91,-353.78 1426.47,-351.96 1427.62,-358.87"/>
</g>
<!-- Node50 -->
<g id="node46" class="node">
<title>Node50</title>
<g id="a_node46"><a xlink:href="PubeScreenTransformer_8h.html" target="_top" xlink:title=" ">
<polygon fill="none" stroke="black" points="576,-336.5 576,-355.5 716,-355.5 716,-336.5 576,-336.5"/>
<text text-anchor="middle" x="646" y="-343.5" font-family="Helvetica,sans-Serif" font-size="10.00">PubeScreenTransformer.h</text>
</a>
</g>
</g>
<!-- Node48&#45;&gt;Node50 -->
<g id="edge73" class="edge">
<title>Node48&#45;&gt;Node50</title>
<path fill="none" stroke="midnightblue" d="M877.36,-394.32C832.39,-385.13 750.9,-368.46 697.62,-357.56"/>
<polygon fill="midnightblue" stroke="midnightblue" points="698.18,-354.1 687.68,-355.53 696.78,-360.96 698.18,-354.1"/>
</g>
<!-- Node51 -->
<g id="node47" class="node">
<title>Node51</title>
<g id="a_node47"><a xlink:href="ZBuffer_8h.html" target="_top" xlink:title=" ">
<polygon fill="none" stroke="black" points="1236.5,-168.5 1236.5,-187.5 1297.5,-187.5 1297.5,-168.5 1236.5,-168.5"/>
<text text-anchor="middle" x="1267" y="-175.5" font-family="Helvetica,sans-Serif" font-size="10.00">ZBuffer.h</text>
</a>
</g>
</g>
<!-- Node48&#45;&gt;Node51 -->
<g id="edge77" class="edge">
<title>Node48&#45;&gt;Node51</title>
<path fill="none" stroke="midnightblue" d="M923.99,-392.3C978.54,-358.38 1177.17,-234.86 1244.5,-192.99"/>
<polygon fill="midnightblue" stroke="midnightblue" points="1246.46,-195.9 1253.1,-187.64 1242.76,-189.95 1246.46,-195.9"/>
</g>
<!-- Node50&#45;&gt;Node20 -->
<g id="edge74" class="edge">
<title>Node50&#45;&gt;Node20</title>
<path fill="none" stroke="midnightblue" d="M646,-336.08C646,-329.01 646,-318.86 646,-309.99"/>
<polygon fill="midnightblue" stroke="midnightblue" points="649.5,-309.75 646,-299.75 642.5,-309.75 649.5,-309.75"/>
</g>
<!-- Node50&#45;&gt;Node24 -->
<g id="edge75" class="edge">
<title>Node50&#45;&gt;Node24</title>
<path fill="none" stroke="midnightblue" d="M603.7,-336.49C546.2,-323.49 441.83,-294.68 366,-244 338.01,-225.29 327.15,-219.39 315,-188 309.27,-173.19 310.44,-155.04 312.65,-141.69"/>
<polygon fill="midnightblue" stroke="midnightblue" points="316.11,-142.27 314.64,-131.77 309.24,-140.89 316.11,-142.27"/>
</g>
<!-- Node51&#45;&gt;Node11 -->
<g id="edge78" class="edge">
<title>Node51&#45;&gt;Node11</title>
<path fill="none" stroke="midnightblue" d="M1265.41,-168.38C1263.76,-159.33 1261.12,-144.68 1259,-132 1252.94,-95.77 1246.41,-53.35 1242.8,-29.58"/>
<polygon fill="midnightblue" stroke="midnightblue" points="1246.23,-28.88 1241.28,-19.52 1239.31,-29.93 1246.23,-28.88"/>
</g>
<!-- Node51&#45;&gt;Node42 -->
<g id="edge79" class="edge">
<title>Node51&#45;&gt;Node42</title>
<path fill="none" stroke="midnightblue" d="M1271.46,-168.08C1275.15,-160.69 1280.52,-149.95 1285.09,-140.81"/>
<polygon fill="midnightblue" stroke="midnightblue" points="1288.28,-142.26 1289.62,-131.75 1282.02,-139.13 1288.28,-142.26"/>
</g>
<!-- Node52&#45;&gt;Node48 -->
<g id="edge82" class="edge">
<title>Node52&#45;&gt;Node48</title>
<path fill="none" stroke="midnightblue" d="M947.57,-448.08C941.15,-440.38 931.69,-429.03 923.88,-419.65"/>
<polygon fill="midnightblue" stroke="midnightblue" points="926.38,-417.19 917.29,-411.75 921.01,-421.67 926.38,-417.19"/>
</g>
<!-- Node53 -->
<g id="node49" class="node">
<title>Node53</title>
<g id="a_node49"><a xlink:href="DefaultVertexShader_8h.html" target="_top" xlink:title=" ">
<polygon fill="none" stroke="black" points="961,-392.5 961,-411.5 1129,-411.5 1129,-392.5 961,-392.5"/>
<text text-anchor="middle" x="1045" y="-399.5" font-family="Helvetica,sans-Serif" font-size="10.00">Shaders/DefaultVertexShader.h</text>
</a>
</g>
</g>
<!-- Node52&#45;&gt;Node53 -->
<g id="edge83" class="edge">
<title>Node52&#45;&gt;Node53</title>
<path fill="none" stroke="midnightblue" d="M969.46,-448.32C983.5,-439.9 1005.05,-426.97 1021.54,-417.07"/>
<polygon fill="midnightblue" stroke="midnightblue" points="1023.8,-419.8 1030.58,-411.65 1020.2,-413.8 1023.8,-419.8"/>
</g>
<!-- Node54 -->
<g id="node50" class="node">
<title>Node54</title>
<g id="a_node50"><a xlink:href="DefaultGeometryShader_8h.html" target="_top" xlink:title=" ">
<polygon fill="none" stroke="black" points="1261.5,-392.5 1261.5,-411.5 1446.5,-411.5 1446.5,-392.5 1261.5,-392.5"/>
<text text-anchor="middle" x="1354" y="-399.5" font-family="Helvetica,sans-Serif" font-size="10.00">Shaders/DefaultGeometryShader.h</text>
</a>
</g>
</g>
<!-- Node52&#45;&gt;Node54 -->
<g id="edge84" class="edge">
<title>Node52&#45;&gt;Node54</title>
<path fill="none" stroke="midnightblue" d="M1017.78,-448.5C1089.05,-438.86 1205.16,-423.14 1280.56,-412.94"/>
<polygon fill="midnightblue" stroke="midnightblue" points="1281.48,-416.35 1290.93,-411.54 1280.55,-409.41 1281.48,-416.35"/>
</g>
<!-- Node54&#45;&gt;Node49 -->
<g id="edge85" class="edge">
<title>Node54&#45;&gt;Node49</title>
<path fill="none" stroke="midnightblue" d="M1372.22,-392.44C1390.9,-383.68 1420.16,-369.94 1441.62,-359.86"/>
<polygon fill="midnightblue" stroke="midnightblue" points="1443.3,-362.93 1450.86,-355.52 1440.32,-356.6 1443.3,-362.93"/>
</g>
</g>
</svg>
