<?xml version="1.0" encoding="UTF-8" standalone="no"?>
<!DOCTYPE svg PUBLIC "-//W3C//DTD SVG 1.1//EN"
 "http://www.w3.org/Graphics/SVG/1.1/DTD/svg11.dtd">
<!-- Generated by graphviz version 2.43.0 (0)
 -->
<!-- Title: include/Primitives/Cube.h Pages: 1 -->
<svg width="1401pt" height="162pt"
 viewBox="0.00 0.00 1400.50 162.00" xmlns="http://www.w3.org/2000/svg" xmlns:xlink="http://www.w3.org/1999/xlink">
<g id="graph0" class="graph" transform="scale(1 1) rotate(0) translate(4 158)">
<title>include/Primitives/Cube.h</title>
<!-- Node1 -->
<g id="node1" class="node">
<title>Node1</title>
<g id="a_node1"><a xlink:title=" ">
<polygon fill="#bfbfbf" stroke="black" points="668.5,-123.5 668.5,-153.5 772.5,-153.5 772.5,-123.5 668.5,-123.5"/>
<text text-anchor="start" x="676.5" y="-141.5" font-family="Helvetica,sans-Serif" font-size="10.00">include/Primitives</text>
<text text-anchor="middle" x="720.5" y="-130.5" font-family="Helvetica,sans-Serif" font-size="10.00">/Cube.h</text>
</a>
</g>
</g>
<!-- Node2 -->
<g id="node2" class="node">
<title>Node2</title>
<g id="a_node2"><a xlink:href="CubeFlatIndependentScene_8h.html" target="_top" xlink:title=" ">
<polygon fill="none" stroke="black" points="0,-56.5 0,-86.5 197,-86.5 197,-56.5 0,-56.5"/>
<text text-anchor="start" x="8" y="-74.5" font-family="Helvetica,sans-Serif" font-size="10.00">include/Scenes/CubeFlatIndependent</text>
<text text-anchor="middle" x="98.5" y="-63.5" font-family="Helvetica,sans-Serif" font-size="10.00">Scene.h</text>
</a>
</g>
</g>
<!-- Node1&#45;&gt;Node2 -->
<g id="edge1" class="edge">
<title>Node1&#45;&gt;Node2</title>
<path fill="none" stroke="midnightblue" d="M658.07,-132.09C561.26,-123.53 369.13,-105.9 206.5,-87 203.4,-86.64 200.25,-86.27 197.07,-85.88"/>
<polygon fill="midnightblue" stroke="midnightblue" points="658,-135.59 668.27,-132.99 658.61,-128.62 658,-135.59"/>
</g>
<!-- Node4 -->
<g id="node4" class="node">
<title>Node4</title>
<g id="a_node4"><a xlink:href="CubeSkinScene_8h.html" target="_top" xlink:title=" ">
<polygon fill="none" stroke="black" points="215.5,-62 215.5,-81 391.5,-81 391.5,-62 215.5,-62"/>
<text text-anchor="middle" x="303.5" y="-69" font-family="Helvetica,sans-Serif" font-size="10.00">include/Scenes/CubeSkinScene.h</text>
</a>
</g>
</g>
<!-- Node1&#45;&gt;Node4 -->
<g id="edge3" class="edge">
<title>Node1&#45;&gt;Node4</title>
<path fill="none" stroke="midnightblue" d="M658.01,-127.76C576.64,-115.08 435.72,-93.11 358.32,-81.05"/>
<polygon fill="midnightblue" stroke="midnightblue" points="657.69,-131.25 668.11,-129.33 658.77,-124.34 657.69,-131.25"/>
</g>
<!-- Node5 -->
<g id="node5" class="node">
<title>Node5</title>
<g id="a_node5"><a xlink:href="CubeSolidGeometryScene_8h.html" target="_top" xlink:title=" ">
<polygon fill="none" stroke="black" points="410,-56.5 410,-86.5 551,-86.5 551,-56.5 410,-56.5"/>
<text text-anchor="start" x="418" y="-74.5" font-family="Helvetica,sans-Serif" font-size="10.00">include/Scenes/CubeSolid</text>
<text text-anchor="middle" x="480.5" y="-63.5" font-family="Helvetica,sans-Serif" font-size="10.00">GeometryScene.h</text>
</a>
</g>
</g>
<!-- Node1&#45;&gt;Node5 -->
<g id="edge5" class="edge">
<title>Node1&#45;&gt;Node5</title>
<path fill="none" stroke="midnightblue" d="M659.02,-120.85C619.89,-110.25 569.77,-96.68 532.6,-86.61"/>
<polygon fill="midnightblue" stroke="midnightblue" points="658.15,-124.24 668.72,-123.48 659.98,-117.48 658.15,-124.24"/>
</g>
<!-- Node6 -->
<g id="node6" class="node">
<title>Node6</title>
<g id="a_node6"><a xlink:href="CubeSolidScene_8h.html" target="_top" xlink:title=" ">
<polygon fill="none" stroke="black" points="569,-56.5 569,-86.5 710,-86.5 710,-56.5 569,-56.5"/>
<text text-anchor="start" x="577" y="-74.5" font-family="Helvetica,sans-Serif" font-size="10.00">include/Scenes/CubeSolid</text>
<text text-anchor="middle" x="639.5" y="-63.5" font-family="Helvetica,sans-Serif" font-size="10.00">Scene.h</text>
</a>
</g>
</g>
<!-- Node1&#45;&gt;Node6 -->
<g id="edge7" class="edge">
<title>Node1&#45;&gt;Node6</title>
<path fill="none" stroke="midnightblue" d="M694.81,-116.88C682.5,-107.01 668.07,-95.43 657.04,-86.58"/>
<polygon fill="midnightblue" stroke="midnightblue" points="692.93,-119.87 702.92,-123.4 697.32,-114.41 692.93,-119.87"/>
</g>
<!-- Node7 -->
<g id="node7" class="node">
<title>Node7</title>
<g id="a_node7"><a xlink:href="CubeVertexColorScene_8h.html" target="_top" xlink:title=" ">
<polygon fill="none" stroke="black" points="728,-56.5 728,-86.5 877,-86.5 877,-56.5 728,-56.5"/>
<text text-anchor="start" x="736" y="-74.5" font-family="Helvetica,sans-Serif" font-size="10.00">include/Scenes/CubeVertex</text>
<text text-anchor="middle" x="802.5" y="-63.5" font-family="Helvetica,sans-Serif" font-size="10.00">ColorScene.h</text>
</a>
</g>
</g>
<!-- Node1&#45;&gt;Node7 -->
<g id="edge9" class="edge">
<title>Node1&#45;&gt;Node7</title>
<path fill="none" stroke="midnightblue" d="M746.15,-117.17C758.69,-107.23 773.47,-95.51 784.74,-86.58"/>
<polygon fill="midnightblue" stroke="midnightblue" points="743.96,-114.44 738.29,-123.4 748.3,-119.93 743.96,-114.44"/>
</g>
<!-- Node8 -->
<g id="node8" class="node">
<title>Node8</title>
<g id="a_node8"><a xlink:href="CubeVertexPositionColorScene_8h.html" target="_top" xlink:title=" ">
<polygon fill="none" stroke="black" points="895,-56.5 895,-86.5 1044,-86.5 1044,-56.5 895,-56.5"/>
<text text-anchor="start" x="903" y="-74.5" font-family="Helvetica,sans-Serif" font-size="10.00">include/Scenes/CubeVertex</text>
<text text-anchor="middle" x="969.5" y="-63.5" font-family="Helvetica,sans-Serif" font-size="10.00">PositionColorScene.h</text>
</a>
</g>
</g>
<!-- Node1&#45;&gt;Node8 -->
<g id="edge11" class="edge">
<title>Node1&#45;&gt;Node8</title>
<path fill="none" stroke="midnightblue" d="M782.56,-121.3C823.47,-110.62 876.52,-96.77 915.65,-86.56"/>
<polygon fill="midnightblue" stroke="midnightblue" points="781.49,-117.96 772.7,-123.87 783.26,-124.73 781.49,-117.96"/>
</g>
<!-- Node9 -->
<g id="node9" class="node">
<title>Node9</title>
<g id="a_node9"><a xlink:href="DoubleCubeScene_8h.html" target="_top" xlink:title=" ">
<polygon fill="none" stroke="black" points="1062.5,-56.5 1062.5,-86.5 1214.5,-86.5 1214.5,-56.5 1062.5,-56.5"/>
<text text-anchor="start" x="1070.5" y="-74.5" font-family="Helvetica,sans-Serif" font-size="10.00">include/Scenes/DoubleCube</text>
<text text-anchor="middle" x="1138.5" y="-63.5" font-family="Helvetica,sans-Serif" font-size="10.00">Scene.h</text>
</a>
</g>
</g>
<!-- Node1&#45;&gt;Node9 -->
<g id="edge13" class="edge">
<title>Node1&#45;&gt;Node9</title>
<path fill="none" stroke="midnightblue" d="M782.71,-128.42C849.64,-118.56 959.19,-102.19 1053.5,-87 1056.31,-86.55 1059.17,-86.08 1062.06,-85.61"/>
<polygon fill="midnightblue" stroke="midnightblue" points="782.13,-124.96 772.74,-129.88 783.15,-131.89 782.13,-124.96"/>
</g>
<!-- Node10 -->
<g id="node10" class="node">
<title>Node10</title>
<g id="a_node10"><a xlink:href="GeometryFlatScene_8h.html" target="_top" xlink:title=" ">
<polygon fill="none" stroke="black" points="1232.5,-56.5 1232.5,-86.5 1392.5,-86.5 1392.5,-56.5 1232.5,-56.5"/>
<text text-anchor="start" x="1240.5" y="-74.5" font-family="Helvetica,sans-Serif" font-size="10.00">include/Scenes/GeometryFlat</text>
<text text-anchor="middle" x="1312.5" y="-63.5" font-family="Helvetica,sans-Serif" font-size="10.00">Scene.h</text>
</a>
</g>
</g>
<!-- Node1&#45;&gt;Node10 -->
<g id="edge15" class="edge">
<title>Node1&#45;&gt;Node10</title>
<path fill="none" stroke="midnightblue" d="M782.79,-132.49C877.97,-124.54 1065.24,-107.82 1223.5,-87 1226.45,-86.61 1229.45,-86.2 1232.48,-85.77"/>
<polygon fill="midnightblue" stroke="midnightblue" points="782.43,-129 772.76,-133.32 783.01,-135.98 782.43,-129"/>
</g>
<!-- Node3 -->
<g id="node3" class="node">
<title>Node3</title>
<g id="a_node3"><a xlink:href="Engine_8cpp.html" target="_top" xlink:title=" ">
<polygon fill="none" stroke="black" points="677,-0.5 677,-19.5 764,-19.5 764,-0.5 677,-0.5"/>
<text text-anchor="middle" x="720.5" y="-7.5" font-family="Helvetica,sans-Serif" font-size="10.00">src/Engine.cpp</text>
</a>
</g>
</g>
<!-- Node2&#45;&gt;Node3 -->
<g id="edge2" class="edge">
<title>Node2&#45;&gt;Node3</title>
<path fill="none" stroke="midnightblue" d="M207.02,-55.98C387.8,-36.15 589.6,-20.56 676.77,-14.14"/>
<polygon fill="midnightblue" stroke="midnightblue" points="206.62,-52.5 197.07,-57.08 207.39,-59.46 206.62,-52.5"/>
</g>
<!-- Node4&#45;&gt;Node3 -->
<g id="edge4" class="edge">
<title>Node4&#45;&gt;Node3</title>
<path fill="none" stroke="midnightblue" d="M370.02,-60.48C380.22,-58.96 390.64,-57.43 400.5,-56 499.19,-41.68 615.1,-25.55 676.75,-17.03"/>
<polygon fill="midnightblue" stroke="midnightblue" points="369.28,-57.05 359.91,-61.98 370.32,-63.97 369.28,-57.05"/>
</g>
<!-- Node5&#45;&gt;Node3 -->
<g id="edge6" class="edge">
<title>Node5&#45;&gt;Node3</title>
<path fill="none" stroke="midnightblue" d="M546.8,-54.06C591.99,-42.86 649.97,-28.49 686.19,-19.51"/>
<polygon fill="midnightblue" stroke="midnightblue" points="545.94,-50.67 537.07,-56.47 547.62,-57.47 545.94,-50.67"/>
</g>
<!-- Node6&#45;&gt;Node3 -->
<g id="edge8" class="edge">
<title>Node6&#45;&gt;Node3</title>
<path fill="none" stroke="midnightblue" d="M667.15,-50.19C681.33,-39.77 697.86,-27.63 708.71,-19.66"/>
<polygon fill="midnightblue" stroke="midnightblue" points="664.68,-47.66 658.7,-56.4 668.83,-53.3 664.68,-47.66"/>
</g>
<!-- Node7&#45;&gt;Node3 -->
<g id="edge10" class="edge">
<title>Node7&#45;&gt;Node3</title>
<path fill="none" stroke="midnightblue" d="M774.91,-50.48C760.47,-40 743.53,-27.71 732.43,-19.66"/>
<polygon fill="midnightblue" stroke="midnightblue" points="772.92,-53.36 783.07,-56.4 777.03,-47.69 772.92,-53.36"/>
</g>
<!-- Node8&#45;&gt;Node3 -->
<g id="edge12" class="edge">
<title>Node8&#45;&gt;Node3</title>
<path fill="none" stroke="midnightblue" d="M901.01,-54.13C854.09,-42.92 793.75,-28.5 756.1,-19.51"/>
<polygon fill="midnightblue" stroke="midnightblue" points="900.27,-57.55 910.81,-56.47 901.89,-50.75 900.27,-57.55"/>
</g>
<!-- Node9&#45;&gt;Node3 -->
<g id="edge14" class="edge">
<title>Node9&#45;&gt;Node3</title>
<path fill="none" stroke="midnightblue" d="M1051.86,-55.78C942.65,-39.23 825.99,-24.18 764.21,-16.42"/>
<polygon fill="midnightblue" stroke="midnightblue" points="1051.65,-59.29 1062.06,-57.33 1052.71,-52.37 1051.65,-59.29"/>
</g>
<!-- Node10&#45;&gt;Node3 -->
<g id="edge16" class="edge">
<title>Node10&#45;&gt;Node3</title>
<path fill="none" stroke="midnightblue" d="M1222.53,-55.94C1046.61,-34.1 849.72,-19.63 764.01,-13.83"/>
<polygon fill="midnightblue" stroke="midnightblue" points="1222.13,-59.41 1232.49,-57.18 1223,-52.47 1222.13,-59.41"/>
</g>
</g>
</svg>
