<?xml version="1.0" encoding="UTF-8" standalone="no"?>
<!DOCTYPE svg PUBLIC "-//W3C//DTD SVG 1.1//EN"
 "http://www.w3.org/Graphics/SVG/1.1/DTD/svg11.dtd">
<!-- Generated by graphviz version 2.43.0 (0)
 -->
<!-- Title: include/Scenes/CubeVertexPositionColorScene.h Pages: 1 -->
<svg width="1506pt" height="554pt"
 viewBox="0.00 0.00 1505.50 554.00" xmlns="http://www.w3.org/2000/svg" xmlns:xlink="http://www.w3.org/1999/xlink">
<g id="graph0" class="graph" transform="scale(1 1) rotate(0) translate(4 550)">
<title>include/Scenes/CubeVertexPositionColorScene.h</title>
<!-- Node1 -->
<g id="node1" class="node">
<title>Node1</title>
<g id="a_node1"><a xlink:title=" ">
<polygon fill="#bfbfbf" stroke="black" points="740,-515.5 740,-545.5 889,-545.5 889,-515.5 740,-515.5"/>
<text text-anchor="start" x="748" y="-533.5" font-family="Helvetica,sans-Serif" font-size="10.00">include/Scenes/CubeVertex</text>
<text text-anchor="middle" x="814.5" y="-522.5" font-family="Helvetica,sans-Serif" font-size="10.00">PositionColorScene.h</text>
</a>
</g>
</g>
<!-- Node2 -->
<g id="node2" class="node">
<title>Node2</title>
<g id="a_node2"><a xlink:href="Scene_8h.html" target="_top" xlink:title=" ">
<polygon fill="none" stroke="black" points="253,-336.5 253,-355.5 308,-355.5 308,-336.5 253,-336.5"/>
<text text-anchor="middle" x="280.5" y="-343.5" font-family="Helvetica,sans-Serif" font-size="10.00">Scene.h</text>
</a>
</g>
</g>
<!-- Node1&#45;&gt;Node2 -->
<g id="edge1" class="edge">
<title>Node1&#45;&gt;Node2</title>
<path fill="none" stroke="midnightblue" d="M773.48,-515.48C671.81,-480.73 409.52,-391.09 315.05,-358.81"/>
<polygon fill="midnightblue" stroke="midnightblue" points="316.01,-355.44 305.41,-355.51 313.74,-362.06 316.01,-355.44"/>
</g>
<!-- Node16 -->
<g id="node13" class="node">
<title>Node16</title>
<g id="a_node13"><a xlink:href="Matrix3_8h.html" target="_top" xlink:title=" ">
<polygon fill="none" stroke="black" points="654,-56.5 654,-75.5 717,-75.5 717,-56.5 654,-56.5"/>
<text text-anchor="middle" x="685.5" y="-63.5" font-family="Helvetica,sans-Serif" font-size="10.00">Matrix3.h</text>
</a>
</g>
</g>
<!-- Node1&#45;&gt;Node16 -->
<g id="edge67" class="edge">
<title>Node1&#45;&gt;Node16</title>
<path fill="none" stroke="midnightblue" d="M889.22,-523.43C1066.44,-508.05 1497.5,-464.31 1497.5,-403 1497.5,-403 1497.5,-403 1497.5,-177 1497.5,-132.21 1462.07,-128.66 1420.5,-112 1356.17,-86.22 873.56,-71.83 727.35,-68.03"/>
<polygon fill="midnightblue" stroke="midnightblue" points="727.1,-64.52 717.02,-67.76 726.92,-71.52 727.1,-64.52"/>
</g>
<!-- Node36 -->
<g id="node33" class="node">
<title>Node36</title>
<g id="a_node33"><a xlink:href="Cube_8h.html" target="_top" xlink:title=" ">
<polygon fill="none" stroke="black" points="611,-280.5 611,-299.5 714,-299.5 714,-280.5 611,-280.5"/>
<text text-anchor="middle" x="662.5" y="-287.5" font-family="Helvetica,sans-Serif" font-size="10.00">Primitives/Cube.h</text>
</a>
</g>
</g>
<!-- Node1&#45;&gt;Node36 -->
<g id="edge49" class="edge">
<title>Node1&#45;&gt;Node36</title>
<path fill="none" stroke="midnightblue" d="M805.45,-515.29C779.07,-473.91 702.36,-353.54 673.58,-308.38"/>
<polygon fill="midnightblue" stroke="midnightblue" points="676.53,-306.5 668.2,-299.95 670.62,-310.26 676.53,-306.5"/>
</g>
<!-- Node48 -->
<g id="node45" class="node">
<title>Node48</title>
<g id="a_node45"><a xlink:href="Pipeline_8h.html" target="_top" xlink:title=" ">
<polygon fill="none" stroke="black" points="858,-392.5 858,-411.5 923,-411.5 923,-392.5 858,-392.5"/>
<text text-anchor="middle" x="890.5" y="-399.5" font-family="Helvetica,sans-Serif" font-size="10.00">Pipeline.h</text>
</a>
</g>
</g>
<!-- Node1&#45;&gt;Node48 -->
<g id="edge68" class="edge">
<title>Node1&#45;&gt;Node48</title>
<path fill="none" stroke="midnightblue" d="M814.75,-515.44C815.67,-498.27 819.25,-468.94 832.5,-448 840.59,-435.21 853.65,-424.61 865.34,-416.91"/>
<polygon fill="midnightblue" stroke="midnightblue" points="867.24,-419.85 873.89,-411.6 863.55,-413.9 867.24,-419.85"/>
</g>
<!-- Node52 -->
<g id="node49" class="node">
<title>Node52</title>
<g id="a_node49"><a xlink:href="VertexPositionColorEffect_8h.html" target="_top" xlink:title=" ">
<polygon fill="none" stroke="black" points="842,-448.5 842,-478.5 991,-478.5 991,-448.5 842,-448.5"/>
<text text-anchor="start" x="850" y="-466.5" font-family="Helvetica,sans-Serif" font-size="10.00">Effects/VertexPositionColor</text>
<text text-anchor="middle" x="916.5" y="-455.5" font-family="Helvetica,sans-Serif" font-size="10.00">Effect.h</text>
</a>
</g>
</g>
<!-- Node1&#45;&gt;Node52 -->
<g id="edge81" class="edge">
<title>Node1&#45;&gt;Node52</title>
<path fill="none" stroke="midnightblue" d="M836.63,-515.4C851.07,-506.2 870.1,-494.07 885.97,-483.95"/>
<polygon fill="midnightblue" stroke="midnightblue" points="887.86,-486.9 894.41,-478.58 884.1,-481 887.86,-486.9"/>
</g>
<!-- Node3 -->
<g id="node3" class="node">
<title>Node3</title>
<g id="a_node3"><a xlink:href="Keyboard_8h.html" target="_top" xlink:title=" ">
<polygon fill="none" stroke="black" points="91,-280.5 91,-299.5 162,-299.5 162,-280.5 91,-280.5"/>
<text text-anchor="middle" x="126.5" y="-287.5" font-family="Helvetica,sans-Serif" font-size="10.00">Keyboard.h</text>
</a>
</g>
</g>
<!-- Node2&#45;&gt;Node3 -->
<g id="edge2" class="edge">
<title>Node2&#45;&gt;Node3</title>
<path fill="none" stroke="midnightblue" d="M256.1,-336.44C230.3,-327.4 189.42,-313.06 160.48,-302.92"/>
<polygon fill="midnightblue" stroke="midnightblue" points="161.38,-299.52 150.79,-299.52 159.07,-306.13 161.38,-299.52"/>
</g>
<!-- Node6 -->
<g id="node6" class="node">
<title>Node6</title>
<g id="a_node6"><a xlink:href="Mouse_8h.html" target="_top" xlink:title=" ">
<polygon fill="none" stroke="black" points="180.5,-280.5 180.5,-299.5 238.5,-299.5 238.5,-280.5 180.5,-280.5"/>
<text text-anchor="middle" x="209.5" y="-287.5" font-family="Helvetica,sans-Serif" font-size="10.00">Mouse.h</text>
</a>
</g>
</g>
<!-- Node2&#45;&gt;Node6 -->
<g id="edge5" class="edge">
<title>Node2&#45;&gt;Node6</title>
<path fill="none" stroke="midnightblue" d="M269.09,-336.32C258.39,-328.18 242.16,-315.84 229.34,-306.09"/>
<polygon fill="midnightblue" stroke="midnightblue" points="231.19,-303.1 221.11,-299.83 226.96,-308.67 231.19,-303.1"/>
</g>
<!-- Node20 -->
<g id="node17" class="node">
<title>Node20</title>
<g id="a_node17"><a xlink:href="Graphics_8h.html" target="_top" xlink:title=" ">
<polygon fill="none" stroke="black" points="929.5,-280.5 929.5,-299.5 997.5,-299.5 997.5,-280.5 929.5,-280.5"/>
<text text-anchor="middle" x="963.5" y="-287.5" font-family="Helvetica,sans-Serif" font-size="10.00">Graphics.h</text>
</a>
</g>
</g>
<!-- Node2&#45;&gt;Node20 -->
<g id="edge22" class="edge">
<title>Node2&#45;&gt;Node20</title>
<path fill="none" stroke="midnightblue" d="M308.12,-342.82C413.33,-334.5 789.62,-304.75 919.25,-294.5"/>
<polygon fill="midnightblue" stroke="midnightblue" points="919.53,-297.99 929.22,-293.71 918.98,-291.01 919.53,-297.99"/>
</g>
<!-- Node22 -->
<g id="node19" class="node">
<title>Node22</title>
<g id="a_node19"><a xlink:title=" ">
<polygon fill="none" stroke="#bfbfbf" points="617.5,-112.5 617.5,-131.5 661.5,-131.5 661.5,-112.5 617.5,-112.5"/>
<text text-anchor="middle" x="639.5" y="-119.5" font-family="Helvetica,sans-Serif" font-size="10.00">string</text>
</a>
</g>
</g>
<!-- Node2&#45;&gt;Node22 -->
<g id="edge48" class="edge">
<title>Node2&#45;&gt;Node22</title>
<path fill="none" stroke="midnightblue" d="M294.57,-336.3C349.42,-302.38 549.16,-178.86 616.87,-136.99"/>
<polygon fill="midnightblue" stroke="midnightblue" points="618.86,-139.88 625.52,-131.64 615.18,-133.93 618.86,-139.88"/>
</g>
<!-- Node4 -->
<g id="node4" class="node">
<title>Node4</title>
<g id="a_node4"><a xlink:title=" ">
<polygon fill="none" stroke="#bfbfbf" points="58.5,-224.5 58.5,-243.5 102.5,-243.5 102.5,-224.5 58.5,-224.5"/>
<text text-anchor="middle" x="80.5" y="-231.5" font-family="Helvetica,sans-Serif" font-size="10.00">bitset</text>
</a>
</g>
</g>
<!-- Node3&#45;&gt;Node4 -->
<g id="edge3" class="edge">
<title>Node3&#45;&gt;Node4</title>
<path fill="none" stroke="midnightblue" d="M118.9,-280.08C112.27,-272.3 102.48,-260.8 94.44,-251.37"/>
<polygon fill="midnightblue" stroke="midnightblue" points="97.1,-249.09 87.95,-243.75 91.77,-253.63 97.1,-249.09"/>
</g>
<!-- Node5 -->
<g id="node5" class="node">
<title>Node5</title>
<g id="a_node5"><a xlink:title=" ">
<polygon fill="none" stroke="#bfbfbf" points="121,-224.5 121,-243.5 168,-243.5 168,-224.5 121,-224.5"/>
<text text-anchor="middle" x="144.5" y="-231.5" font-family="Helvetica,sans-Serif" font-size="10.00">queue</text>
</a>
</g>
</g>
<!-- Node3&#45;&gt;Node5 -->
<g id="edge4" class="edge">
<title>Node3&#45;&gt;Node5</title>
<path fill="none" stroke="midnightblue" d="M129.47,-280.08C131.88,-272.85 135.36,-262.41 138.37,-253.4"/>
<polygon fill="midnightblue" stroke="midnightblue" points="141.74,-254.34 141.58,-243.75 135.1,-252.13 141.74,-254.34"/>
</g>
<!-- Node6&#45;&gt;Node5 -->
<g id="edge21" class="edge">
<title>Node6&#45;&gt;Node5</title>
<path fill="none" stroke="midnightblue" d="M199.06,-280.32C189.35,-272.26 174.68,-260.08 163,-250.37"/>
<polygon fill="midnightblue" stroke="midnightblue" points="165.06,-247.53 155.13,-243.83 160.59,-252.92 165.06,-247.53"/>
</g>
<!-- Node7 -->
<g id="node7" class="node">
<title>Node7</title>
<g id="a_node7"><a xlink:href="Vector2_8h.html" target="_top" xlink:title=" ">
<polygon fill="none" stroke="black" points="150,-112.5 150,-131.5 283,-131.5 283,-112.5 150,-112.5"/>
<text text-anchor="middle" x="216.5" y="-119.5" font-family="Helvetica,sans-Serif" font-size="10.00">LinearAlgebra/Vector2.h</text>
</a>
</g>
</g>
<!-- Node6&#45;&gt;Node7 -->
<g id="edge6" class="edge">
<title>Node6&#45;&gt;Node7</title>
<path fill="none" stroke="midnightblue" d="M209.88,-280.08C210.98,-253.95 214.21,-177.21 215.72,-141.58"/>
<polygon fill="midnightblue" stroke="midnightblue" points="219.21,-141.71 216.14,-131.57 212.22,-141.41 219.21,-141.71"/>
</g>
<!-- Node8 -->
<g id="node8" class="node">
<title>Node8</title>
<g id="a_node8"><a xlink:href="Math_8h.html" target="_top" xlink:title=" ">
<polygon fill="none" stroke="red" points="348.5,-56.5 348.5,-75.5 398.5,-75.5 398.5,-56.5 348.5,-56.5"/>
<text text-anchor="middle" x="373.5" y="-63.5" font-family="Helvetica,sans-Serif" font-size="10.00">Math.h</text>
</a>
</g>
</g>
<!-- Node7&#45;&gt;Node8 -->
<g id="edge7" class="edge">
<title>Node7&#45;&gt;Node8</title>
<path fill="none" stroke="midnightblue" d="M241.38,-112.44C267.79,-103.36 309.72,-88.94 339.24,-78.78"/>
<polygon fill="midnightblue" stroke="midnightblue" points="340.42,-82.08 348.74,-75.52 338.14,-75.46 340.42,-82.08"/>
</g>
<!-- Node14 -->
<g id="node11" class="node">
<title>Node14</title>
<g id="a_node11"><a xlink:href="Matrix2_8h.html" target="_top" xlink:title=" ">
<polygon fill="none" stroke="black" points="260,-56.5 260,-75.5 323,-75.5 323,-56.5 260,-56.5"/>
<text text-anchor="middle" x="291.5" y="-63.5" font-family="Helvetica,sans-Serif" font-size="10.00">Matrix2.h</text>
</a>
</g>
</g>
<!-- Node7&#45;&gt;Node14 -->
<g id="edge10" class="edge">
<title>Node7&#45;&gt;Node14</title>
<path fill="none" stroke="midnightblue" d="M228.55,-112.32C239.96,-104.11 257.33,-91.6 270.93,-81.81"/>
<polygon fill="midnightblue" stroke="midnightblue" points="273.16,-84.52 279.23,-75.83 269.07,-78.84 273.16,-84.52"/>
</g>
<!-- Node15 -->
<g id="node12" class="node">
<title>Node15</title>
<g id="a_node12"><a xlink:title=" ">
<polygon fill="none" stroke="#bfbfbf" points="310.5,-0.5 310.5,-19.5 370.5,-19.5 370.5,-0.5 310.5,-0.5"/>
<text text-anchor="middle" x="340.5" y="-7.5" font-family="Helvetica,sans-Serif" font-size="10.00">iostream</text>
</a>
</g>
</g>
<!-- Node7&#45;&gt;Node15 -->
<g id="edge20" class="edge">
<title>Node7&#45;&gt;Node15</title>
<path fill="none" stroke="midnightblue" d="M219.09,-112.36C223.53,-98.81 233.78,-72.42 250.5,-56 265.33,-41.44 285.81,-30.69 303.49,-23.36"/>
<polygon fill="midnightblue" stroke="midnightblue" points="304.94,-26.55 312.97,-19.64 302.38,-20.04 304.94,-26.55"/>
</g>
<!-- Node7&#45;&gt;Node16 -->
<g id="edge12" class="edge">
<title>Node7&#45;&gt;Node16</title>
<path fill="none" stroke="midnightblue" d="M283.23,-113.08C286.36,-112.72 289.46,-112.35 292.5,-112 420.58,-97.08 572.2,-79.84 643.92,-71.71"/>
<polygon fill="midnightblue" stroke="midnightblue" points="644.37,-75.18 653.91,-70.58 643.58,-68.22 644.37,-75.18"/>
</g>
<!-- Node17 -->
<g id="node14" class="node">
<title>Node17</title>
<g id="a_node14"><a xlink:title=" ">
<polygon fill="none" stroke="#bfbfbf" points="667.5,-0.5 667.5,-19.5 709.5,-19.5 709.5,-0.5 667.5,-0.5"/>
<text text-anchor="middle" x="688.5" y="-7.5" font-family="Helvetica,sans-Serif" font-size="10.00">array</text>
</a>
</g>
</g>
<!-- Node7&#45;&gt;Node17 -->
<g id="edge17" class="edge">
<title>Node7&#45;&gt;Node17</title>
<path fill="none" stroke="midnightblue" d="M281.46,-112.43C328.1,-105.29 392.06,-93.43 446.5,-76 466.96,-69.45 470.11,-62.75 490.5,-56 562.59,-32.15 583.89,-38.6 657.5,-20 657.6,-19.98 657.7,-19.95 657.8,-19.93"/>
<polygon fill="midnightblue" stroke="midnightblue" points="658.46,-23.37 667.21,-17.39 656.64,-16.61 658.46,-23.37"/>
</g>
<!-- Node18 -->
<g id="node15" class="node">
<title>Node18</title>
<g id="a_node15"><a xlink:title=" ">
<polygon fill="none" stroke="#bfbfbf" points="596,-0.5 596,-19.5 649,-19.5 649,-0.5 596,-0.5"/>
<text text-anchor="middle" x="622.5" y="-7.5" font-family="Helvetica,sans-Serif" font-size="10.00">cstddef</text>
</a>
</g>
</g>
<!-- Node7&#45;&gt;Node18 -->
<g id="edge19" class="edge">
<title>Node7&#45;&gt;Node18</title>
<path fill="none" stroke="midnightblue" d="M261.42,-112.48C300.47,-104.59 358.34,-91.72 407.5,-76 429.9,-68.84 434.22,-63.54 456.5,-56 500.33,-41.18 551.93,-27.81 585.82,-19.57"/>
<polygon fill="midnightblue" stroke="midnightblue" points="586.85,-22.92 595.75,-17.18 585.21,-16.12 586.85,-22.92"/>
</g>
<!-- Node19 -->
<g id="node16" class="node">
<title>Node19</title>
<g id="a_node16"><a xlink:title=" ">
<polygon fill="none" stroke="#bfbfbf" points="500,-56.5 500,-75.5 559,-75.5 559,-56.5 500,-56.5"/>
<text text-anchor="middle" x="529.5" y="-63.5" font-family="Helvetica,sans-Serif" font-size="10.00">compare</text>
</a>
</g>
</g>
<!-- Node7&#45;&gt;Node19 -->
<g id="edge18" class="edge">
<title>Node7&#45;&gt;Node19</title>
<path fill="none" stroke="midnightblue" d="M270.23,-112.48C324.4,-103.77 410.37,-89.63 484.5,-76 486.22,-75.68 487.98,-75.35 489.76,-75.02"/>
<polygon fill="midnightblue" stroke="midnightblue" points="490.84,-78.37 499.99,-73.04 489.51,-71.5 490.84,-78.37"/>
</g>
<!-- Node10 -->
<g id="node9" class="node">
<title>Node10</title>
<g id="a_node9"><a xlink:title=" ">
<polygon fill="none" stroke="#bfbfbf" points="439,-0.5 439,-19.5 486,-19.5 486,-0.5 439,-0.5"/>
<text text-anchor="middle" x="462.5" y="-7.5" font-family="Helvetica,sans-Serif" font-size="10.00">cmath</text>
</a>
</g>
</g>
<!-- Node8&#45;&gt;Node10 -->
<g id="edge8" class="edge">
<title>Node8&#45;&gt;Node10</title>
<path fill="none" stroke="midnightblue" d="M387.8,-56.32C401.68,-47.9 422.99,-34.97 439.3,-25.07"/>
<polygon fill="midnightblue" stroke="midnightblue" points="441.5,-27.83 448.24,-19.65 437.87,-21.85 441.5,-27.83"/>
</g>
<!-- Node11 -->
<g id="node10" class="node">
<title>Node11</title>
<g id="a_node10"><a xlink:title=" ">
<polygon fill="none" stroke="#bfbfbf" points="99.5,-0.5 99.5,-19.5 143.5,-19.5 143.5,-0.5 99.5,-0.5"/>
<text text-anchor="middle" x="121.5" y="-7.5" font-family="Helvetica,sans-Serif" font-size="10.00">limits</text>
</a>
</g>
</g>
<!-- Node8&#45;&gt;Node11 -->
<g id="edge9" class="edge">
<title>Node8&#45;&gt;Node11</title>
<path fill="none" stroke="midnightblue" d="M348.42,-59.62C302.29,-49.74 204.11,-28.7 153.36,-17.83"/>
<polygon fill="midnightblue" stroke="midnightblue" points="154.09,-14.4 143.57,-15.73 152.62,-21.25 154.09,-14.4"/>
</g>
<!-- Node14&#45;&gt;Node15 -->
<g id="edge11" class="edge">
<title>Node14&#45;&gt;Node15</title>
<path fill="none" stroke="midnightblue" d="M299.59,-56.08C306.66,-48.3 317.09,-36.8 325.65,-27.37"/>
<polygon fill="midnightblue" stroke="midnightblue" points="328.43,-29.51 332.56,-19.75 323.25,-24.8 328.43,-29.51"/>
</g>
<!-- Node16&#45;&gt;Node10 -->
<g id="edge14" class="edge">
<title>Node16&#45;&gt;Node10</title>
<path fill="none" stroke="midnightblue" d="M653.55,-57.26C611.72,-47.13 538.71,-29.45 496.08,-19.13"/>
<polygon fill="midnightblue" stroke="midnightblue" points="496.74,-15.69 486.19,-16.74 495.09,-22.49 496.74,-15.69"/>
</g>
<!-- Node16&#45;&gt;Node15 -->
<g id="edge16" class="edge">
<title>Node16&#45;&gt;Node15</title>
<path fill="none" stroke="midnightblue" d="M653.97,-60.06C591.16,-50.23 450.48,-28.21 380.97,-17.33"/>
<polygon fill="midnightblue" stroke="midnightblue" points="381.27,-13.84 370.84,-15.75 380.18,-20.75 381.27,-13.84"/>
</g>
<!-- Node16&#45;&gt;Node17 -->
<g id="edge13" class="edge">
<title>Node16&#45;&gt;Node17</title>
<path fill="none" stroke="midnightblue" d="M686,-56.08C686.39,-49.01 686.95,-38.86 687.45,-29.99"/>
<polygon fill="midnightblue" stroke="midnightblue" points="690.95,-29.93 688.01,-19.75 683.96,-29.54 690.95,-29.93"/>
</g>
<!-- Node16&#45;&gt;Node18 -->
<g id="edge15" class="edge">
<title>Node16&#45;&gt;Node18</title>
<path fill="none" stroke="midnightblue" d="M675.38,-56.32C665.97,-48.26 651.76,-36.08 640.43,-26.37"/>
<polygon fill="midnightblue" stroke="midnightblue" points="642.68,-23.68 632.81,-19.83 638.12,-29 642.68,-23.68"/>
</g>
<!-- Node21 -->
<g id="node18" class="node">
<title>Node21</title>
<g id="a_node18"><a xlink:href="EngineException_8h.html" target="_top" xlink:title=" ">
<polygon fill="none" stroke="black" points="910,-168.5 910,-187.5 1017,-187.5 1017,-168.5 910,-168.5"/>
<text text-anchor="middle" x="963.5" y="-175.5" font-family="Helvetica,sans-Serif" font-size="10.00">EngineException.h</text>
</a>
</g>
</g>
<!-- Node20&#45;&gt;Node21 -->
<g id="edge23" class="edge">
<title>Node20&#45;&gt;Node21</title>
<path fill="none" stroke="midnightblue" d="M963.5,-280.37C963.5,-262.62 963.5,-221.67 963.5,-197.6"/>
<polygon fill="midnightblue" stroke="midnightblue" points="967,-197.59 963.5,-187.59 960,-197.59 967,-197.59"/>
</g>
<!-- Node24 -->
<g id="node21" class="node">
<title>Node24</title>
<g id="a_node21"><a xlink:href="Vector3_8h.html" target="_top" xlink:title=" ">
<polygon fill="none" stroke="black" points="680,-112.5 680,-131.5 813,-131.5 813,-112.5 680,-112.5"/>
<text text-anchor="middle" x="746.5" y="-119.5" font-family="Helvetica,sans-Serif" font-size="10.00">LinearAlgebra/Vector3.h</text>
</a>
</g>
</g>
<!-- Node20&#45;&gt;Node24 -->
<g id="edge26" class="edge">
<title>Node20&#45;&gt;Node24</title>
<path fill="none" stroke="midnightblue" d="M954.12,-280.28C931.71,-259.63 872.97,-206.63 819.5,-168 803.76,-156.63 785.11,-145.16 770.6,-136.65"/>
<polygon fill="midnightblue" stroke="midnightblue" points="772.14,-133.5 761.73,-131.52 768.63,-139.56 772.14,-133.5"/>
</g>
<!-- Node25 -->
<g id="node22" class="node">
<title>Node25</title>
<g id="a_node22"><a xlink:href="GDIPlusManager_8h.html" target="_top" xlink:title=" ">
<polygon fill="none" stroke="black" points="1205.5,-224.5 1205.5,-243.5 1311.5,-243.5 1311.5,-224.5 1205.5,-224.5"/>
<text text-anchor="middle" x="1258.5" y="-231.5" font-family="Helvetica,sans-Serif" font-size="10.00">GDIPlusManager.h</text>
</a>
</g>
</g>
<!-- Node20&#45;&gt;Node25 -->
<g id="edge33" class="edge">
<title>Node20&#45;&gt;Node25</title>
<path fill="none" stroke="midnightblue" d="M997.63,-282.75C1047.59,-273.61 1141.26,-256.46 1201.71,-245.4"/>
<polygon fill="midnightblue" stroke="midnightblue" points="1202.65,-248.78 1211.85,-243.54 1201.39,-241.9 1202.65,-248.78"/>
</g>
<!-- Node29 -->
<g id="node26" class="node">
<title>Node29</title>
<g id="a_node26"><a xlink:href="Surface_8h.html" target="_top" xlink:title=" ">
<polygon fill="none" stroke="black" points="991.5,-224.5 991.5,-243.5 1053.5,-243.5 1053.5,-224.5 991.5,-224.5"/>
<text text-anchor="middle" x="1022.5" y="-231.5" font-family="Helvetica,sans-Serif" font-size="10.00">Surface.h</text>
</a>
</g>
</g>
<!-- Node20&#45;&gt;Node29 -->
<g id="edge37" class="edge">
<title>Node20&#45;&gt;Node29</title>
<path fill="none" stroke="midnightblue" d="M972.98,-280.32C981.7,-272.34 994.84,-260.31 1005.4,-250.65"/>
<polygon fill="midnightblue" stroke="midnightblue" points="1007.83,-253.17 1012.85,-243.83 1003.11,-248 1007.83,-253.17"/>
</g>
<!-- Node34 -->
<g id="node31" class="node">
<title>Node34</title>
<g id="a_node31"><a xlink:title=" ">
<polygon fill="none" stroke="#bfbfbf" points="1071.5,-224.5 1071.5,-243.5 1127.5,-243.5 1127.5,-224.5 1071.5,-224.5"/>
<text text-anchor="middle" x="1099.5" y="-231.5" font-family="Helvetica,sans-Serif" font-size="10.00">d3d11.h</text>
</a>
</g>
</g>
<!-- Node20&#45;&gt;Node34 -->
<g id="edge46" class="edge">
<title>Node20&#45;&gt;Node34</title>
<path fill="none" stroke="midnightblue" d="M985.05,-280.44C1007.53,-271.52 1042.99,-257.44 1068.48,-247.32"/>
<polygon fill="midnightblue" stroke="midnightblue" points="1070.05,-250.46 1078.05,-243.52 1067.47,-243.95 1070.05,-250.46"/>
</g>
<!-- Node35 -->
<g id="node32" class="node">
<title>Node35</title>
<g id="a_node32"><a xlink:title=" ">
<polygon fill="none" stroke="#bfbfbf" points="1146,-224.5 1146,-243.5 1187,-243.5 1187,-224.5 1146,-224.5"/>
<text text-anchor="middle" x="1166.5" y="-231.5" font-family="Helvetica,sans-Serif" font-size="10.00">wrl.h</text>
</a>
</g>
</g>
<!-- Node20&#45;&gt;Node35 -->
<g id="edge47" class="edge">
<title>Node20&#45;&gt;Node35</title>
<path fill="none" stroke="midnightblue" d="M997.74,-280.49C1030.73,-272.2 1082.28,-259.03 1136.15,-244.02"/>
<polygon fill="midnightblue" stroke="midnightblue" points="1137.19,-247.36 1145.87,-241.3 1135.3,-240.62 1137.19,-247.36"/>
</g>
<!-- Node21&#45;&gt;Node22 -->
<g id="edge24" class="edge">
<title>Node21&#45;&gt;Node22</title>
<path fill="none" stroke="midnightblue" d="M909.92,-170.9C853,-163.94 760.29,-151.25 671.7,-132.03"/>
<polygon fill="midnightblue" stroke="midnightblue" points="672.28,-128.57 661.76,-129.84 670.77,-135.41 672.28,-128.57"/>
</g>
<!-- Node23 -->
<g id="node20" class="node">
<title>Node23</title>
<g id="a_node20"><a xlink:title=" ">
<polygon fill="none" stroke="#bfbfbf" points="917,-112.5 917,-131.5 1010,-131.5 1010,-112.5 917,-112.5"/>
<text text-anchor="middle" x="963.5" y="-119.5" font-family="Helvetica,sans-Serif" font-size="10.00">source_location</text>
</a>
</g>
</g>
<!-- Node21&#45;&gt;Node23 -->
<g id="edge25" class="edge">
<title>Node21&#45;&gt;Node23</title>
<path fill="none" stroke="midnightblue" d="M963.5,-168.08C963.5,-161.01 963.5,-150.86 963.5,-141.99"/>
<polygon fill="midnightblue" stroke="midnightblue" points="967,-141.75 963.5,-131.75 960,-141.75 967,-141.75"/>
</g>
<!-- Node24&#45;&gt;Node8 -->
<g id="edge27" class="edge">
<title>Node24&#45;&gt;Node8</title>
<path fill="none" stroke="midnightblue" d="M687.4,-112.44C608.98,-101.09 473,-81.4 408.88,-72.12"/>
<polygon fill="midnightblue" stroke="midnightblue" points="409.26,-68.64 398.87,-70.67 408.26,-75.57 409.26,-68.64"/>
</g>
<!-- Node24&#45;&gt;Node15 -->
<g id="edge30" class="edge">
<title>Node24&#45;&gt;Node15</title>
<path fill="none" stroke="midnightblue" d="M724.26,-112.44C683.47,-96.83 598.07,-64.53 567.5,-56 503.05,-38.02 426.4,-24.39 380.69,-17.06"/>
<polygon fill="midnightblue" stroke="midnightblue" points="381.01,-13.57 370.59,-15.46 379.92,-20.48 381.01,-13.57"/>
</g>
<!-- Node24&#45;&gt;Node16 -->
<g id="edge28" class="edge">
<title>Node24&#45;&gt;Node16</title>
<path fill="none" stroke="midnightblue" d="M736.7,-112.32C727.68,-104.34 714.09,-92.31 703.18,-82.65"/>
<polygon fill="midnightblue" stroke="midnightblue" points="705.29,-79.84 695.48,-75.83 700.65,-85.08 705.29,-79.84"/>
</g>
<!-- Node24&#45;&gt;Node17 -->
<g id="edge29" class="edge">
<title>Node24&#45;&gt;Node17</title>
<path fill="none" stroke="midnightblue" d="M744.75,-112.17C741.96,-99.26 735.74,-74.73 725.5,-56 719.75,-45.48 711.4,-35.06 704.08,-26.9"/>
<polygon fill="midnightblue" stroke="midnightblue" points="706.63,-24.5 697.24,-19.57 701.51,-29.27 706.63,-24.5"/>
</g>
<!-- Node24&#45;&gt;Node18 -->
<g id="edge32" class="edge">
<title>Node24&#45;&gt;Node18</title>
<path fill="none" stroke="midnightblue" d="M708.54,-112.37C687.12,-105.71 661.35,-94.42 644.5,-76 632.83,-63.24 627.32,-44.04 624.74,-29.82"/>
<polygon fill="midnightblue" stroke="midnightblue" points="628.16,-29.07 623.23,-19.69 621.24,-30.1 628.16,-29.07"/>
</g>
<!-- Node24&#45;&gt;Node19 -->
<g id="edge31" class="edge">
<title>Node24&#45;&gt;Node19</title>
<path fill="none" stroke="midnightblue" d="M712.12,-112.44C673.23,-102.77 610,-87.03 569.08,-76.85"/>
<polygon fill="midnightblue" stroke="midnightblue" points="569.74,-73.41 559.19,-74.39 568.05,-80.2 569.74,-73.41"/>
</g>
<!-- Node26 -->
<g id="node23" class="node">
<title>Node26</title>
<g id="a_node23"><a xlink:href="Win_8h.html" target="_top" xlink:title=" ">
<polygon fill="none" stroke="black" points="1345.5,-168.5 1345.5,-187.5 1389.5,-187.5 1389.5,-168.5 1345.5,-168.5"/>
<text text-anchor="middle" x="1367.5" y="-175.5" font-family="Helvetica,sans-Serif" font-size="10.00">Win.h</text>
</a>
</g>
</g>
<!-- Node25&#45;&gt;Node26 -->
<g id="edge34" class="edge">
<title>Node25&#45;&gt;Node26</title>
<path fill="none" stroke="midnightblue" d="M1276.01,-224.32C1293.57,-215.62 1320.83,-202.12 1341.03,-192.11"/>
<polygon fill="midnightblue" stroke="midnightblue" points="1342.62,-195.23 1350.03,-187.65 1339.52,-188.96 1342.62,-195.23"/>
</g>
<!-- Node27 -->
<g id="node24" class="node">
<title>Node27</title>
<g id="a_node24"><a xlink:title=" ">
<polygon fill="none" stroke="#bfbfbf" points="1225.5,-112.5 1225.5,-131.5 1301.5,-131.5 1301.5,-112.5 1225.5,-112.5"/>
<text text-anchor="middle" x="1263.5" y="-119.5" font-family="Helvetica,sans-Serif" font-size="10.00">sdkddkver.h</text>
</a>
</g>
</g>
<!-- Node26&#45;&gt;Node27 -->
<g id="edge35" class="edge">
<title>Node26&#45;&gt;Node27</title>
<path fill="none" stroke="midnightblue" d="M1350.79,-168.32C1334.19,-159.7 1308.5,-146.36 1289.28,-136.39"/>
<polygon fill="midnightblue" stroke="midnightblue" points="1290.66,-133.16 1280.17,-131.65 1287.43,-139.37 1290.66,-133.16"/>
</g>
<!-- Node28 -->
<g id="node25" class="node">
<title>Node28</title>
<g id="a_node25"><a xlink:title=" ">
<polygon fill="none" stroke="#bfbfbf" points="1319.5,-112.5 1319.5,-131.5 1389.5,-131.5 1389.5,-112.5 1319.5,-112.5"/>
<text text-anchor="middle" x="1354.5" y="-119.5" font-family="Helvetica,sans-Serif" font-size="10.00">Windows.h</text>
</a>
</g>
</g>
<!-- Node26&#45;&gt;Node28 -->
<g id="edge36" class="edge">
<title>Node26&#45;&gt;Node28</title>
<path fill="none" stroke="midnightblue" d="M1365.35,-168.08C1363.63,-160.93 1361.15,-150.64 1359,-141.69"/>
<polygon fill="midnightblue" stroke="midnightblue" points="1362.35,-140.65 1356.61,-131.75 1355.54,-142.29 1362.35,-140.65"/>
</g>
<!-- Node29&#45;&gt;Node21 -->
<g id="edge41" class="edge">
<title>Node29&#45;&gt;Node21</title>
<path fill="none" stroke="midnightblue" d="M1013.02,-224.32C1004.3,-216.34 991.16,-204.31 980.6,-194.65"/>
<polygon fill="midnightblue" stroke="midnightblue" points="982.89,-192 973.15,-187.83 978.17,-197.17 982.89,-192"/>
</g>
<!-- Node29&#45;&gt;Node22 -->
<g id="edge44" class="edge">
<title>Node29&#45;&gt;Node22</title>
<path fill="none" stroke="midnightblue" d="M992.36,-224.39C933.05,-207.43 796.77,-168.43 671.3,-132.22"/>
<polygon fill="midnightblue" stroke="midnightblue" points="672.09,-128.81 661.51,-129.4 670.15,-135.54 672.09,-128.81"/>
</g>
<!-- Node29&#45;&gt;Node26 -->
<g id="edge38" class="edge">
<title>Node29&#45;&gt;Node26</title>
<path fill="none" stroke="midnightblue" d="M1053.89,-225.66C1056.79,-225.06 1059.7,-224.5 1062.5,-224 1180.24,-203.06 1214.49,-212.65 1335.25,-187.98"/>
<polygon fill="midnightblue" stroke="midnightblue" points="1336.17,-191.36 1345.25,-185.9 1334.75,-184.51 1336.17,-191.36"/>
</g>
<!-- Node30 -->
<g id="node27" class="node">
<title>Node30</title>
<g id="a_node27"><a xlink:href="Colors_8h.html" target="_top" xlink:title=" ">
<polygon fill="none" stroke="black" points="1035.5,-168.5 1035.5,-187.5 1091.5,-187.5 1091.5,-168.5 1035.5,-168.5"/>
<text text-anchor="middle" x="1063.5" y="-175.5" font-family="Helvetica,sans-Serif" font-size="10.00">Colors.h</text>
</a>
</g>
</g>
<!-- Node29&#45;&gt;Node30 -->
<g id="edge39" class="edge">
<title>Node29&#45;&gt;Node30</title>
<path fill="none" stroke="midnightblue" d="M1029.27,-224.08C1035.06,-216.46 1043.56,-205.26 1050.64,-195.94"/>
<polygon fill="midnightblue" stroke="midnightblue" points="1053.6,-197.83 1056.86,-187.75 1048.02,-193.6 1053.6,-197.83"/>
</g>
<!-- Node31 -->
<g id="node28" class="node">
<title>Node31</title>
<g id="a_node28"><a xlink:title=" ">
<polygon fill="none" stroke="#bfbfbf" points="1271.5,-168.5 1271.5,-187.5 1327.5,-187.5 1327.5,-168.5 1271.5,-168.5"/>
<text text-anchor="middle" x="1299.5" y="-175.5" font-family="Helvetica,sans-Serif" font-size="10.00">assert.h</text>
</a>
</g>
</g>
<!-- Node29&#45;&gt;Node31 -->
<g id="edge42" class="edge">
<title>Node29&#45;&gt;Node31</title>
<path fill="none" stroke="midnightblue" d="M1053.92,-225.8C1056.81,-225.17 1059.71,-224.56 1062.5,-224 1147.91,-206.71 1172.43,-206.66 1261.28,-188.15"/>
<polygon fill="midnightblue" stroke="midnightblue" points="1262.19,-191.54 1271.26,-186.06 1260.75,-184.69 1262.19,-191.54"/>
</g>
<!-- Node32 -->
<g id="node29" class="node">
<title>Node32</title>
<g id="a_node29"><a xlink:title=" ">
<polygon fill="none" stroke="#bfbfbf" points="1109.5,-168.5 1109.5,-187.5 1167.5,-187.5 1167.5,-168.5 1109.5,-168.5"/>
<text text-anchor="middle" x="1138.5" y="-175.5" font-family="Helvetica,sans-Serif" font-size="10.00">memory</text>
</a>
</g>
</g>
<!-- Node29&#45;&gt;Node32 -->
<g id="edge43" class="edge">
<title>Node29&#45;&gt;Node32</title>
<path fill="none" stroke="midnightblue" d="M1040.88,-224.44C1059.72,-215.68 1089.23,-201.94 1110.88,-191.86"/>
<polygon fill="midnightblue" stroke="midnightblue" points="1112.62,-194.91 1120.21,-187.52 1109.66,-188.56 1112.62,-194.91"/>
</g>
<!-- Node33 -->
<g id="node30" class="node">
<title>Node33</title>
<g id="a_node30"><a xlink:title=" ">
<polygon fill="none" stroke="#bfbfbf" points="1185.5,-168.5 1185.5,-187.5 1253.5,-187.5 1253.5,-168.5 1185.5,-168.5"/>
<text text-anchor="middle" x="1219.5" y="-175.5" font-family="Helvetica,sans-Serif" font-size="10.00">filesystem</text>
</a>
</g>
</g>
<!-- Node29&#45;&gt;Node33 -->
<g id="edge45" class="edge">
<title>Node29&#45;&gt;Node33</title>
<path fill="none" stroke="midnightblue" d="M1053.72,-224.44C1087.43,-215.2 1141.3,-200.44 1178.43,-190.26"/>
<polygon fill="midnightblue" stroke="midnightblue" points="1179.71,-193.54 1188.43,-187.52 1177.86,-186.78 1179.71,-193.54"/>
</g>
<!-- Node30&#45;&gt;Node24 -->
<g id="edge40" class="edge">
<title>Node30&#45;&gt;Node24</title>
<path fill="none" stroke="midnightblue" d="M1035.33,-170.09C1032.02,-169.35 1028.69,-168.63 1025.5,-168 955.02,-153.99 873.87,-141.28 817.32,-132.97"/>
<polygon fill="midnightblue" stroke="midnightblue" points="817.81,-129.51 807.41,-131.52 816.8,-136.43 817.81,-129.51"/>
</g>
<!-- Node36&#45;&gt;Node7 -->
<g id="edge65" class="edge">
<title>Node36&#45;&gt;Node7</title>
<path fill="none" stroke="midnightblue" d="M610.81,-288.85C527.39,-286.07 361.55,-269.75 253.5,-188 238,-176.27 227.98,-156.04 222.33,-141.26"/>
<polygon fill="midnightblue" stroke="midnightblue" points="225.57,-139.94 218.97,-131.65 218.96,-142.25 225.57,-139.94"/>
</g>
<!-- Node36&#45;&gt;Node24 -->
<g id="edge66" class="edge">
<title>Node36&#45;&gt;Node24</title>
<path fill="none" stroke="midnightblue" d="M673.01,-280.22C682.67,-271.72 696.92,-258.1 706.5,-244 728.4,-211.79 739.09,-166.66 743.64,-141.61"/>
<polygon fill="midnightblue" stroke="midnightblue" points="747.11,-142.08 745.31,-131.64 740.21,-140.92 747.11,-142.08"/>
</g>
<!-- Node37 -->
<g id="node34" class="node">
<title>Node37</title>
<g id="a_node34"><a xlink:href="IndexedTriangleList_8h.html" target="_top" xlink:title=" ">
<polygon fill="none" stroke="black" points="579,-224.5 579,-243.5 698,-243.5 698,-224.5 579,-224.5"/>
<text text-anchor="middle" x="638.5" y="-231.5" font-family="Helvetica,sans-Serif" font-size="10.00">IndexedTriangleList.h</text>
</a>
</g>
</g>
<!-- Node36&#45;&gt;Node37 -->
<g id="edge50" class="edge">
<title>Node36&#45;&gt;Node37</title>
<path fill="none" stroke="midnightblue" d="M658.54,-280.08C655.29,-272.77 650.58,-262.18 646.55,-253.1"/>
<polygon fill="midnightblue" stroke="midnightblue" points="649.65,-251.47 642.39,-243.75 643.25,-254.31 649.65,-251.47"/>
</g>
<!-- Node37&#45;&gt;Node24 -->
<g id="edge51" class="edge">
<title>Node37&#45;&gt;Node24</title>
<path fill="none" stroke="midnightblue" d="M657.17,-224.39C672.61,-216.57 694.39,-203.84 709.5,-188 722.5,-174.37 732.64,-155.32 739,-141.37"/>
<polygon fill="midnightblue" stroke="midnightblue" points="742.35,-142.43 743.1,-131.87 735.92,-139.66 742.35,-142.43"/>
</g>
<!-- Node38 -->
<g id="node35" class="node">
<title>Node38</title>
<g id="a_node35"><a xlink:href="tiny__obj__loader_8h.html" target="_top" xlink:title=" ">
<polygon fill="none" stroke="black" points="422.5,-168.5 422.5,-187.5 522.5,-187.5 522.5,-168.5 422.5,-168.5"/>
<text text-anchor="middle" x="472.5" y="-175.5" font-family="Helvetica,sans-Serif" font-size="10.00">tiny_obj_loader.h</text>
</a>
</g>
</g>
<!-- Node37&#45;&gt;Node38 -->
<g id="edge52" class="edge">
<title>Node37&#45;&gt;Node38</title>
<path fill="none" stroke="midnightblue" d="M612.2,-224.44C584.15,-215.32 539.56,-200.81 508.32,-190.65"/>
<polygon fill="midnightblue" stroke="midnightblue" points="509.27,-187.28 498.68,-187.52 507.11,-193.94 509.27,-187.28"/>
</g>
<!-- Node40 -->
<g id="node37" class="node">
<title>Node40</title>
<g id="a_node37"><a xlink:title=" ">
<polygon fill="none" stroke="#bfbfbf" points="496,-112.5 496,-131.5 543,-131.5 543,-112.5 496,-112.5"/>
<text text-anchor="middle" x="519.5" y="-119.5" font-family="Helvetica,sans-Serif" font-size="10.00">vector</text>
</a>
</g>
</g>
<!-- Node37&#45;&gt;Node40 -->
<g id="edge62" class="edge">
<title>Node37&#45;&gt;Node40</title>
<path fill="none" stroke="midnightblue" d="M578.87,-229.42C519.41,-224.45 434.05,-213.07 413.5,-188 407.86,-181.13 408.59,-175.41 413.5,-168 421.95,-155.23 458.24,-141.63 486.03,-132.77"/>
<polygon fill="midnightblue" stroke="midnightblue" points="487.31,-136.03 495.82,-129.72 485.23,-129.35 487.31,-136.03"/>
</g>
<!-- Node41 -->
<g id="node38" class="node">
<title>Node41</title>
<g id="a_node38"><a xlink:href="Miniball_8h.html" target="_top" xlink:title=" ">
<polygon fill="none" stroke="black" points="263,-168.5 263,-187.5 328,-187.5 328,-168.5 263,-168.5"/>
<text text-anchor="middle" x="295.5" y="-175.5" font-family="Helvetica,sans-Serif" font-size="10.00">Miniball.h</text>
</a>
</g>
</g>
<!-- Node37&#45;&gt;Node41 -->
<g id="edge56" class="edge">
<title>Node37&#45;&gt;Node41</title>
<path fill="none" stroke="midnightblue" d="M584.15,-224.44C515.98,-213.71 400.49,-195.53 338.26,-185.73"/>
<polygon fill="midnightblue" stroke="midnightblue" points="338.81,-182.28 328.38,-184.18 337.72,-189.19 338.81,-182.28"/>
</g>
<!-- Node46 -->
<g id="node43" class="node">
<title>Node46</title>
<g id="a_node43"><a xlink:title=" ">
<polygon fill="none" stroke="#bfbfbf" points="646,-168.5 646,-187.5 701,-187.5 701,-168.5 646,-168.5"/>
<text text-anchor="middle" x="673.5" y="-175.5" font-family="Helvetica,sans-Serif" font-size="10.00">fstream</text>
</a>
</g>
</g>
<!-- Node37&#45;&gt;Node46 -->
<g id="edge63" class="edge">
<title>Node37&#45;&gt;Node46</title>
<path fill="none" stroke="midnightblue" d="M644.28,-224.08C649.17,-216.53 656.33,-205.49 662.33,-196.23"/>
<polygon fill="midnightblue" stroke="midnightblue" points="665.33,-198.05 667.83,-187.75 659.45,-194.24 665.33,-198.05"/>
</g>
<!-- Node47 -->
<g id="node44" class="node">
<title>Node47</title>
<g id="a_node44"><a xlink:title=" ">
<polygon fill="none" stroke="#bfbfbf" points="579,-168.5 579,-187.5 628,-187.5 628,-168.5 579,-168.5"/>
<text text-anchor="middle" x="603.5" y="-175.5" font-family="Helvetica,sans-Serif" font-size="10.00">cctype</text>
</a>
</g>
</g>
<!-- Node37&#45;&gt;Node47 -->
<g id="edge64" class="edge">
<title>Node37&#45;&gt;Node47</title>
<path fill="none" stroke="midnightblue" d="M632.72,-224.08C627.83,-216.53 620.67,-205.49 614.67,-196.23"/>
<polygon fill="midnightblue" stroke="midnightblue" points="617.55,-194.24 609.17,-187.75 611.67,-198.05 617.55,-194.24"/>
</g>
<!-- Node38&#45;&gt;Node22 -->
<g id="edge54" class="edge">
<title>Node38&#45;&gt;Node22</title>
<path fill="none" stroke="midnightblue" d="M498.96,-168.44C528.51,-158.89 576.3,-143.44 607.81,-133.25"/>
<polygon fill="midnightblue" stroke="midnightblue" points="608.99,-136.54 617.43,-130.14 606.84,-129.88 608.99,-136.54"/>
</g>
<!-- Node39 -->
<g id="node36" class="node">
<title>Node39</title>
<g id="a_node36"><a xlink:title=" ">
<polygon fill="none" stroke="#bfbfbf" points="561.5,-112.5 561.5,-131.5 599.5,-131.5 599.5,-112.5 561.5,-112.5"/>
<text text-anchor="middle" x="580.5" y="-119.5" font-family="Helvetica,sans-Serif" font-size="10.00">map</text>
</a>
</g>
</g>
<!-- Node38&#45;&gt;Node39 -->
<g id="edge53" class="edge">
<title>Node38&#45;&gt;Node39</title>
<path fill="none" stroke="midnightblue" d="M489.85,-168.32C507.17,-159.66 534.02,-146.24 554,-136.25"/>
<polygon fill="midnightblue" stroke="midnightblue" points="555.81,-139.26 563.19,-131.65 552.68,-133 555.81,-139.26"/>
</g>
<!-- Node38&#45;&gt;Node40 -->
<g id="edge55" class="edge">
<title>Node38&#45;&gt;Node40</title>
<path fill="none" stroke="midnightblue" d="M480.26,-168.08C487.04,-160.3 497.04,-148.8 505.26,-139.37"/>
<polygon fill="midnightblue" stroke="midnightblue" points="507.96,-141.59 511.88,-131.75 502.68,-137 507.96,-141.59"/>
</g>
<!-- Node41&#45;&gt;Node11 -->
<g id="edge61" class="edge">
<title>Node41&#45;&gt;Node11</title>
<path fill="none" stroke="midnightblue" d="M262.9,-177.17C227.29,-175.47 171.24,-166.91 140.5,-132 115.4,-103.5 116.07,-55.89 118.78,-29.69"/>
<polygon fill="midnightblue" stroke="midnightblue" points="122.27,-29.95 120.03,-19.6 115.32,-29.09 122.27,-29.95"/>
</g>
<!-- Node42 -->
<g id="node39" class="node">
<title>Node42</title>
<g id="a_node39"><a xlink:title=" ">
<polygon fill="none" stroke="#bfbfbf" points="41.5,-112.5 41.5,-131.5 93.5,-131.5 93.5,-112.5 41.5,-112.5"/>
<text text-anchor="middle" x="67.5" y="-119.5" font-family="Helvetica,sans-Serif" font-size="10.00">cassert</text>
</a>
</g>
</g>
<!-- Node41&#45;&gt;Node42 -->
<g id="edge57" class="edge">
<title>Node41&#45;&gt;Node42</title>
<path fill="none" stroke="midnightblue" d="M262.83,-169.26C220.66,-159.27 147.48,-141.94 103.67,-131.57"/>
<polygon fill="midnightblue" stroke="midnightblue" points="104.26,-128.11 93.73,-129.21 102.65,-134.92 104.26,-128.11"/>
</g>
<!-- Node43 -->
<g id="node40" class="node">
<title>Node43</title>
<g id="a_node40"><a xlink:title=" ">
<polygon fill="none" stroke="#bfbfbf" points="413.5,-112.5 413.5,-131.5 477.5,-131.5 477.5,-112.5 413.5,-112.5"/>
<text text-anchor="middle" x="445.5" y="-119.5" font-family="Helvetica,sans-Serif" font-size="10.00">algorithm</text>
</a>
</g>
</g>
<!-- Node41&#45;&gt;Node43 -->
<g id="edge58" class="edge">
<title>Node41&#45;&gt;Node43</title>
<path fill="none" stroke="midnightblue" d="M319.27,-168.44C344.39,-159.4 384.21,-145.06 412.4,-134.92"/>
<polygon fill="midnightblue" stroke="midnightblue" points="413.62,-138.2 421.84,-131.52 411.25,-131.61 413.62,-138.2"/>
</g>
<!-- Node44 -->
<g id="node41" class="node">
<title>Node44</title>
<g id="a_node41"><a xlink:title=" ">
<polygon fill="none" stroke="#bfbfbf" points="301.5,-112.5 301.5,-131.5 333.5,-131.5 333.5,-112.5 301.5,-112.5"/>
<text text-anchor="middle" x="317.5" y="-119.5" font-family="Helvetica,sans-Serif" font-size="10.00">list</text>
</a>
</g>
</g>
<!-- Node41&#45;&gt;Node44 -->
<g id="edge59" class="edge">
<title>Node41&#45;&gt;Node44</title>
<path fill="none" stroke="midnightblue" d="M299.13,-168.08C302.11,-160.77 306.43,-150.18 310.12,-141.1"/>
<polygon fill="midnightblue" stroke="midnightblue" points="313.4,-142.33 313.93,-131.75 306.92,-139.69 313.4,-142.33"/>
</g>
<!-- Node45 -->
<g id="node42" class="node">
<title>Node45</title>
<g id="a_node42"><a xlink:title=" ">
<polygon fill="none" stroke="#bfbfbf" points="351.5,-112.5 351.5,-131.5 395.5,-131.5 395.5,-112.5 351.5,-112.5"/>
<text text-anchor="middle" x="373.5" y="-119.5" font-family="Helvetica,sans-Serif" font-size="10.00">ctime</text>
</a>
</g>
</g>
<!-- Node41&#45;&gt;Node45 -->
<g id="edge60" class="edge">
<title>Node41&#45;&gt;Node45</title>
<path fill="none" stroke="midnightblue" d="M308.03,-168.32C320.09,-159.98 338.53,-147.21 352.77,-137.35"/>
<polygon fill="midnightblue" stroke="midnightblue" points="354.77,-140.22 361,-131.65 350.78,-134.47 354.77,-140.22"/>
</g>
<!-- Node48&#45;&gt;Node16 -->
<g id="edge76" class="edge">
<title>Node48&#45;&gt;Node16</title>
<path fill="none" stroke="midnightblue" d="M923.15,-397.28C970.16,-391.39 1059.32,-378.26 1132.5,-356 1285.98,-309.31 1508.31,-228.96 1398.5,-112 1375.42,-87.41 876.75,-72.12 727.4,-68.08"/>
<polygon fill="midnightblue" stroke="midnightblue" points="727.35,-64.58 717.26,-67.81 727.17,-71.57 727.35,-64.58"/>
</g>
<!-- Node48&#45;&gt;Node20 -->
<g id="edge70" class="edge">
<title>Node48&#45;&gt;Node20</title>
<path fill="none" stroke="midnightblue" d="M904.96,-392.44C917.2,-384.47 934.33,-371.51 944.5,-356 953.66,-342.02 958.51,-323.52 961.01,-309.83"/>
<polygon fill="midnightblue" stroke="midnightblue" points="964.51,-310.09 962.6,-299.67 957.59,-309.01 964.51,-310.09"/>
</g>
<!-- Node48&#45;&gt;Node26 -->
<g id="edge69" class="edge">
<title>Node48&#45;&gt;Node26</title>
<path fill="none" stroke="midnightblue" d="M923.02,-395.86C999.23,-382.5 1192.61,-340.7 1320.5,-244 1337.11,-231.44 1350.35,-211.39 1358.49,-196.87"/>
<polygon fill="midnightblue" stroke="midnightblue" points="1361.67,-198.34 1363.29,-187.87 1355.49,-195.04 1361.67,-198.34"/>
</g>
<!-- Node48&#45;&gt;Node37 -->
<g id="edge72" class="edge">
<title>Node48&#45;&gt;Node37</title>
<path fill="none" stroke="midnightblue" d="M861.25,-392.41C839.29,-385.03 809.23,-372.91 786.5,-356 751.07,-329.64 756.8,-307.81 722.5,-280 706.28,-266.85 685.63,-255.72 668.87,-247.83"/>
<polygon fill="midnightblue" stroke="midnightblue" points="670.06,-244.52 659.51,-243.56 667.16,-250.89 670.06,-244.52"/>
</g>
<!-- Node48&#45;&gt;Node43 -->
<g id="edge80" class="edge">
<title>Node48&#45;&gt;Node43</title>
<path fill="none" stroke="midnightblue" d="M857.9,-401.27C741.96,-401.36 356.5,-393.94 356.5,-291 356.5,-291 356.5,-291 356.5,-233 356.5,-190.85 396.49,-155.78 422.86,-137.24"/>
<polygon fill="midnightblue" stroke="midnightblue" points="424.88,-140.1 431.2,-131.6 420.96,-134.3 424.88,-140.1"/>
</g>
<!-- Node49 -->
<g id="node46" class="node">
<title>Node49</title>
<g id="a_node46"><a xlink:href="Triangle_8h.html" target="_top" xlink:title=" ">
<polygon fill="none" stroke="black" points="1405.5,-336.5 1405.5,-355.5 1469.5,-355.5 1469.5,-336.5 1405.5,-336.5"/>
<text text-anchor="middle" x="1437.5" y="-343.5" font-family="Helvetica,sans-Serif" font-size="10.00">Triangle.h</text>
</a>
</g>
</g>
<!-- Node48&#45;&gt;Node49 -->
<g id="edge71" class="edge">
<title>Node48&#45;&gt;Node49</title>
<path fill="none" stroke="midnightblue" d="M923.17,-399.24C1003.28,-394.67 1215.77,-381.01 1391.5,-356 1392.77,-355.82 1394.06,-355.63 1395.35,-355.42"/>
<polygon fill="midnightblue" stroke="midnightblue" points="1396.13,-358.84 1405.4,-353.72 1394.96,-351.94 1396.13,-358.84"/>
</g>
<!-- Node50 -->
<g id="node47" class="node">
<title>Node50</title>
<g id="a_node47"><a xlink:href="PubeScreenTransformer_8h.html" target="_top" xlink:title=" ">
<polygon fill="none" stroke="black" points="795.5,-336.5 795.5,-355.5 935.5,-355.5 935.5,-336.5 795.5,-336.5"/>
<text text-anchor="middle" x="865.5" y="-343.5" font-family="Helvetica,sans-Serif" font-size="10.00">PubeScreenTransformer.h</text>
</a>
</g>
</g>
<!-- Node48&#45;&gt;Node50 -->
<g id="edge73" class="edge">
<title>Node48&#45;&gt;Node50</title>
<path fill="none" stroke="midnightblue" d="M886.37,-392.08C882.99,-384.77 878.08,-374.18 873.88,-365.1"/>
<polygon fill="midnightblue" stroke="midnightblue" points="876.93,-363.36 869.55,-355.75 870.58,-366.3 876.93,-363.36"/>
</g>
<!-- Node51 -->
<g id="node48" class="node">
<title>Node51</title>
<g id="a_node48"><a xlink:href="ZBuffer_8h.html" target="_top" xlink:title=" ">
<polygon fill="none" stroke="black" points="0,-168.5 0,-187.5 61,-187.5 61,-168.5 0,-168.5"/>
<text text-anchor="middle" x="30.5" y="-175.5" font-family="Helvetica,sans-Serif" font-size="10.00">ZBuffer.h</text>
</a>
</g>
</g>
<!-- Node48&#45;&gt;Node51 -->
<g id="edge77" class="edge">
<title>Node48&#45;&gt;Node51</title>
<path fill="none" stroke="midnightblue" d="M857.97,-399.87C743.98,-395.73 363.07,-380.38 243.5,-356 168.86,-340.78 140.15,-348.62 81.5,-300 49.87,-273.77 37.5,-224.49 32.94,-197.62"/>
<polygon fill="midnightblue" stroke="midnightblue" points="36.39,-196.98 31.44,-187.61 29.47,-198.02 36.39,-196.98"/>
</g>
<!-- Node50&#45;&gt;Node20 -->
<g id="edge74" class="edge">
<title>Node50&#45;&gt;Node20</title>
<path fill="none" stroke="midnightblue" d="M881.25,-336.32C896.82,-327.74 920.88,-314.49 938.96,-304.52"/>
<polygon fill="midnightblue" stroke="midnightblue" points="940.72,-307.55 947.79,-299.65 937.35,-301.42 940.72,-307.55"/>
</g>
<!-- Node50&#45;&gt;Node24 -->
<g id="edge75" class="edge">
<title>Node50&#45;&gt;Node24</title>
<path fill="none" stroke="midnightblue" d="M860.84,-336.3C843.18,-303.36 780.22,-185.9 756.04,-140.81"/>
<polygon fill="midnightblue" stroke="midnightblue" points="759.07,-139.04 751.26,-131.88 752.9,-142.35 759.07,-139.04"/>
</g>
<!-- Node51&#45;&gt;Node11 -->
<g id="edge78" class="edge">
<title>Node51&#45;&gt;Node11</title>
<path fill="none" stroke="midnightblue" d="M28.95,-168.21C27.07,-155.36 25.03,-130.9 32.5,-112 46.84,-75.74 80.29,-43.84 101.85,-26.02"/>
<polygon fill="midnightblue" stroke="midnightblue" points="104.13,-28.68 109.74,-19.69 99.75,-23.22 104.13,-28.68"/>
</g>
<!-- Node51&#45;&gt;Node42 -->
<g id="edge79" class="edge">
<title>Node51&#45;&gt;Node42</title>
<path fill="none" stroke="midnightblue" d="M36.61,-168.08C41.78,-160.53 49.35,-149.49 55.69,-140.23"/>
<polygon fill="midnightblue" stroke="midnightblue" points="58.74,-141.98 61.5,-131.75 52.96,-138.02 58.74,-141.98"/>
</g>
<!-- Node52&#45;&gt;Node48 -->
<g id="edge82" class="edge">
<title>Node52&#45;&gt;Node48</title>
<path fill="none" stroke="midnightblue" d="M910.34,-448.4C906.76,-440.2 902.2,-429.78 898.36,-420.99"/>
<polygon fill="midnightblue" stroke="midnightblue" points="901.49,-419.42 894.28,-411.66 895.08,-422.22 901.49,-419.42"/>
</g>
<!-- Node53 -->
<g id="node50" class="node">
<title>Node53</title>
<g id="a_node50"><a xlink:href="DefaultGeometryShader_8h.html" target="_top" xlink:title=" ">
<polygon fill="none" stroke="black" points="1101,-392.5 1101,-411.5 1286,-411.5 1286,-392.5 1101,-392.5"/>
<text text-anchor="middle" x="1193.5" y="-399.5" font-family="Helvetica,sans-Serif" font-size="10.00">Shaders/DefaultGeometryShader.h</text>
</a>
</g>
</g>
<!-- Node52&#45;&gt;Node53 -->
<g id="edge83" class="edge">
<title>Node52&#45;&gt;Node53</title>
<path fill="none" stroke="midnightblue" d="M981.79,-448.47C1031.46,-437.81 1098.75,-423.35 1144.02,-413.63"/>
<polygon fill="midnightblue" stroke="midnightblue" points="1144.86,-417.03 1153.9,-411.51 1143.39,-410.18 1144.86,-417.03"/>
</g>
<!-- Node53&#45;&gt;Node49 -->
<g id="edge84" class="edge">
<title>Node53&#45;&gt;Node49</title>
<path fill="none" stroke="midnightblue" d="M1232.16,-392.44C1276.64,-382.6 1349.42,-366.49 1395.32,-356.33"/>
<polygon fill="midnightblue" stroke="midnightblue" points="1396.24,-359.72 1405.25,-354.14 1394.73,-352.88 1396.24,-359.72"/>
</g>
</g>
</svg>
