<?xml version="1.0" encoding="UTF-8" standalone="no"?>
<!DOCTYPE svg PUBLIC "-//W3C//DTD SVG 1.1//EN"
 "http://www.w3.org/Graphics/SVG/1.1/DTD/svg11.dtd">
<!-- Generated by graphviz version 2.43.0 (0)
 -->
<!-- Title: include/Primitives/Cube.h Pages: 1 -->
<svg width="1097pt" height="263pt"
 viewBox="0.00 0.00 1096.50 263.00" xmlns="http://www.w3.org/2000/svg" xmlns:xlink="http://www.w3.org/1999/xlink">
<g id="graph0" class="graph" transform="scale(1 1) rotate(0) translate(4 259)">
<title>include/Primitives/Cube.h</title>
<!-- Node1 -->
<g id="node1" class="node">
<title>Node1</title>
<g id="a_node1"><a xlink:title=" ">
<polygon fill="#bfbfbf" stroke="black" points="319,-224.5 319,-254.5 423,-254.5 423,-224.5 319,-224.5"/>
<text text-anchor="start" x="327" y="-242.5" font-family="Helvetica,sans-Serif" font-size="10.00">include/Primitives</text>
<text text-anchor="middle" x="371" y="-231.5" font-family="Helvetica,sans-Serif" font-size="10.00">/Cube.h</text>
</a>
</g>
</g>
<!-- Node2 -->
<g id="node2" class="node">
<title>Node2</title>
<g id="a_node2"><a xlink:href="IndexedTriangleList_8h.html" target="_top" xlink:title=" ">
<polygon fill="none" stroke="black" points="800.5,-168.5 800.5,-187.5 919.5,-187.5 919.5,-168.5 800.5,-168.5"/>
<text text-anchor="middle" x="860" y="-175.5" font-family="Helvetica,sans-Serif" font-size="10.00">IndexedTriangleList.h</text>
</a>
</g>
</g>
<!-- Node1&#45;&gt;Node2 -->
<g id="edge1" class="edge">
<title>Node1&#45;&gt;Node2</title>
<path fill="none" stroke="midnightblue" d="M423.33,-232.13C511.85,-221.36 691.16,-199.54 790.26,-187.49"/>
<polygon fill="midnightblue" stroke="midnightblue" points="790.96,-190.93 800.47,-186.24 790.12,-183.98 790.96,-190.93"/>
</g>
<!-- Node3 -->
<g id="node3" class="node">
<title>Node3</title>
<g id="a_node3"><a xlink:href="Vector3_8h.html" target="_top" xlink:title=" ">
<polygon fill="none" stroke="black" points="153.5,-112.5 153.5,-131.5 286.5,-131.5 286.5,-112.5 153.5,-112.5"/>
<text text-anchor="middle" x="220" y="-119.5" font-family="Helvetica,sans-Serif" font-size="10.00">LinearAlgebra/Vector3.h</text>
</a>
</g>
</g>
<!-- Node1&#45;&gt;Node3 -->
<g id="edge40" class="edge">
<title>Node1&#45;&gt;Node3</title>
<path fill="none" stroke="midnightblue" d="M352.48,-224.34C323.79,-202.39 268.86,-160.37 239.55,-137.95"/>
<polygon fill="midnightblue" stroke="midnightblue" points="241.4,-134.96 231.33,-131.67 237.15,-140.52 241.4,-134.96"/>
</g>
<!-- Node26 -->
<g id="node26" class="node">
<title>Node26</title>
<g id="a_node26"><a xlink:href="Vector2_8h.html" target="_top" xlink:title=" ">
<polygon fill="none" stroke="black" points="304.5,-112.5 304.5,-131.5 437.5,-131.5 437.5,-112.5 304.5,-112.5"/>
<text text-anchor="middle" x="371" y="-119.5" font-family="Helvetica,sans-Serif" font-size="10.00">LinearAlgebra/Vector2.h</text>
</a>
</g>
</g>
<!-- Node1&#45;&gt;Node26 -->
<g id="edge31" class="edge">
<title>Node1&#45;&gt;Node26</title>
<path fill="none" stroke="midnightblue" d="M371,-224.34C371,-203.62 371,-165.02 371,-141.9"/>
<polygon fill="midnightblue" stroke="midnightblue" points="374.5,-141.67 371,-131.67 367.5,-141.67 374.5,-141.67"/>
</g>
<!-- Node2&#45;&gt;Node3 -->
<g id="edge2" class="edge">
<title>Node2&#45;&gt;Node3</title>
<path fill="none" stroke="midnightblue" d="M800.14,-173.02C698.73,-166.11 486.47,-150.89 296.8,-132.15"/>
<polygon fill="midnightblue" stroke="midnightblue" points="296.94,-128.64 286.64,-131.14 296.25,-135.61 296.94,-128.64"/>
</g>
<!-- Node15 -->
<g id="node15" class="node">
<title>Node15</title>
<g id="a_node15"><a xlink:href="tiny__obj__loader_8h.html" target="_top" xlink:title=" ">
<polygon fill="none" stroke="black" points="810,-112.5 810,-131.5 910,-131.5 910,-112.5 810,-112.5"/>
<text text-anchor="middle" x="860" y="-119.5" font-family="Helvetica,sans-Serif" font-size="10.00">tiny_obj_loader.h</text>
</a>
</g>
</g>
<!-- Node2&#45;&gt;Node15 -->
<g id="edge18" class="edge">
<title>Node2&#45;&gt;Node15</title>
<path fill="none" stroke="midnightblue" d="M860,-168.08C860,-161.01 860,-150.86 860,-141.99"/>
<polygon fill="midnightblue" stroke="midnightblue" points="863.5,-141.75 860,-131.75 856.5,-141.75 863.5,-141.75"/>
</g>
<!-- Node18 -->
<g id="node18" class="node">
<title>Node18</title>
<g id="a_node18"><a xlink:title=" ">
<polygon fill="none" stroke="#bfbfbf" points="959.5,-56.5 959.5,-75.5 1006.5,-75.5 1006.5,-56.5 959.5,-56.5"/>
<text text-anchor="middle" x="983" y="-63.5" font-family="Helvetica,sans-Serif" font-size="10.00">vector</text>
</a>
</g>
</g>
<!-- Node2&#45;&gt;Node18 -->
<g id="edge28" class="edge">
<title>Node2&#45;&gt;Node18</title>
<path fill="none" stroke="midnightblue" d="M872.61,-168.18C884.83,-159.44 903.73,-145.46 919,-132 936.71,-116.39 955.5,-96.92 968.1,-83.38"/>
<polygon fill="midnightblue" stroke="midnightblue" points="970.88,-85.53 975.08,-75.8 965.73,-80.78 970.88,-85.53"/>
</g>
<!-- Node19 -->
<g id="node19" class="node">
<title>Node19</title>
<g id="a_node19"><a xlink:href="Miniball_8h.html" target="_top" xlink:title=" ">
<polygon fill="none" stroke="black" points="679.5,-112.5 679.5,-131.5 744.5,-131.5 744.5,-112.5 679.5,-112.5"/>
<text text-anchor="middle" x="712" y="-119.5" font-family="Helvetica,sans-Serif" font-size="10.00">Miniball.h</text>
</a>
</g>
</g>
<!-- Node2&#45;&gt;Node19 -->
<g id="edge22" class="edge">
<title>Node2&#45;&gt;Node19</title>
<path fill="none" stroke="midnightblue" d="M836.55,-168.44C811.87,-159.44 772.81,-145.19 745.02,-135.05"/>
<polygon fill="midnightblue" stroke="midnightblue" points="745.94,-131.66 735.34,-131.52 743.54,-138.23 745.94,-131.66"/>
</g>
<!-- Node24 -->
<g id="node24" class="node">
<title>Node24</title>
<g id="a_node24"><a xlink:title=" ">
<polygon fill="none" stroke="#bfbfbf" points="966.5,-112.5 966.5,-131.5 1021.5,-131.5 1021.5,-112.5 966.5,-112.5"/>
<text text-anchor="middle" x="994" y="-119.5" font-family="Helvetica,sans-Serif" font-size="10.00">fstream</text>
</a>
</g>
</g>
<!-- Node2&#45;&gt;Node24 -->
<g id="edge29" class="edge">
<title>Node2&#45;&gt;Node24</title>
<path fill="none" stroke="midnightblue" d="M881.23,-168.44C903.38,-159.52 938.32,-145.44 963.44,-135.32"/>
<polygon fill="midnightblue" stroke="midnightblue" points="964.9,-138.5 972.87,-131.52 962.28,-132.01 964.9,-138.5"/>
</g>
<!-- Node25 -->
<g id="node25" class="node">
<title>Node25</title>
<g id="a_node25"><a xlink:title=" ">
<polygon fill="none" stroke="#bfbfbf" points="1039.5,-112.5 1039.5,-131.5 1088.5,-131.5 1088.5,-112.5 1039.5,-112.5"/>
<text text-anchor="middle" x="1064" y="-119.5" font-family="Helvetica,sans-Serif" font-size="10.00">cctype</text>
</a>
</g>
</g>
<!-- Node2&#45;&gt;Node25 -->
<g id="edge30" class="edge">
<title>Node2&#45;&gt;Node25</title>
<path fill="none" stroke="midnightblue" d="M892.8,-168.46C925.23,-160 976.51,-146.56 1029.57,-132.37"/>
<polygon fill="midnightblue" stroke="midnightblue" points="1030.74,-135.68 1039.5,-129.71 1028.93,-128.91 1030.74,-135.68"/>
</g>
<!-- Node4 -->
<g id="node4" class="node">
<title>Node4</title>
<g id="a_node4"><a xlink:href="Math_8h.html" target="_top" xlink:title=" ">
<polygon fill="none" stroke="black" points="235,-56.5 235,-75.5 285,-75.5 285,-56.5 235,-56.5"/>
<text text-anchor="middle" x="260" y="-63.5" font-family="Helvetica,sans-Serif" font-size="10.00">Math.h</text>
</a>
</g>
</g>
<!-- Node3&#45;&gt;Node4 -->
<g id="edge3" class="edge">
<title>Node3&#45;&gt;Node4</title>
<path fill="none" stroke="midnightblue" d="M226.61,-112.08C232.26,-104.46 240.54,-93.26 247.45,-83.94"/>
<polygon fill="midnightblue" stroke="midnightblue" points="250.38,-85.87 253.52,-75.75 244.75,-81.7 250.38,-85.87"/>
</g>
<!-- Node10 -->
<g id="node10" class="node">
<title>Node10</title>
<g id="a_node10"><a xlink:href="Matrix3_8h.html" target="_top" xlink:title=" ">
<polygon fill="none" stroke="black" points="115.5,-56.5 115.5,-75.5 178.5,-75.5 178.5,-56.5 115.5,-56.5"/>
<text text-anchor="middle" x="147" y="-63.5" font-family="Helvetica,sans-Serif" font-size="10.00">Matrix3.h</text>
</a>
</g>
</g>
<!-- Node3&#45;&gt;Node10 -->
<g id="edge9" class="edge">
<title>Node3&#45;&gt;Node10</title>
<path fill="none" stroke="midnightblue" d="M208.27,-112.32C197.16,-104.11 180.26,-91.6 167.02,-81.81"/>
<polygon fill="midnightblue" stroke="midnightblue" points="169.06,-78.97 158.94,-75.83 164.9,-84.59 169.06,-78.97"/>
</g>
<!-- Node11 -->
<g id="node11" class="node">
<title>Node11</title>
<g id="a_node11"><a xlink:title=" ">
<polygon fill="none" stroke="#bfbfbf" points="0,-0.5 0,-19.5 42,-19.5 42,-0.5 0,-0.5"/>
<text text-anchor="middle" x="21" y="-7.5" font-family="Helvetica,sans-Serif" font-size="10.00">array</text>
</a>
</g>
</g>
<!-- Node3&#45;&gt;Node11 -->
<g id="edge14" class="edge">
<title>Node3&#45;&gt;Node11</title>
<path fill="none" stroke="midnightblue" d="M154.29,-112.49C108.06,-105.16 51.6,-93.05 35,-76 23.31,-63.99 20.37,-44.7 20.03,-30.24"/>
<polygon fill="midnightblue" stroke="midnightblue" points="23.53,-29.97 20.18,-19.92 16.53,-29.87 23.53,-29.97"/>
</g>
<!-- Node12 -->
<g id="node12" class="node">
<title>Node12</title>
<g id="a_node12"><a xlink:title=" ">
<polygon fill="none" stroke="#bfbfbf" points="60.5,-0.5 60.5,-19.5 113.5,-19.5 113.5,-0.5 60.5,-0.5"/>
<text text-anchor="middle" x="87" y="-7.5" font-family="Helvetica,sans-Serif" font-size="10.00">cstddef</text>
</a>
</g>
</g>
<!-- Node3&#45;&gt;Node12 -->
<g id="edge17" class="edge">
<title>Node3&#45;&gt;Node12</title>
<path fill="none" stroke="midnightblue" d="M172.52,-112.44C149.55,-106.02 123.28,-94.94 106,-76 94.5,-63.39 89.93,-44.18 88.13,-29.91"/>
<polygon fill="midnightblue" stroke="midnightblue" points="91.6,-29.38 87.2,-19.74 84.63,-30.02 91.6,-29.38"/>
</g>
<!-- Node13 -->
<g id="node13" class="node">
<title>Node13</title>
<g id="a_node13"><a xlink:title=" ">
<polygon fill="none" stroke="#bfbfbf" points="415,-0.5 415,-19.5 475,-19.5 475,-0.5 415,-0.5"/>
<text text-anchor="middle" x="445" y="-7.5" font-family="Helvetica,sans-Serif" font-size="10.00">iostream</text>
</a>
</g>
</g>
<!-- Node3&#45;&gt;Node13 -->
<g id="edge15" class="edge">
<title>Node3&#45;&gt;Node13</title>
<path fill="none" stroke="midnightblue" d="M233.44,-112.33C254.12,-99.19 295.2,-73.89 332,-56 357.81,-43.46 388.06,-31.55 410.76,-23.14"/>
<polygon fill="midnightblue" stroke="midnightblue" points="412.12,-26.37 420.31,-19.64 409.71,-19.8 412.12,-26.37"/>
</g>
<!-- Node14 -->
<g id="node14" class="node">
<title>Node14</title>
<g id="a_node14"><a xlink:title=" ">
<polygon fill="none" stroke="#bfbfbf" points="341.5,-56.5 341.5,-75.5 400.5,-75.5 400.5,-56.5 341.5,-56.5"/>
<text text-anchor="middle" x="371" y="-63.5" font-family="Helvetica,sans-Serif" font-size="10.00">compare</text>
</a>
</g>
</g>
<!-- Node3&#45;&gt;Node14 -->
<g id="edge16" class="edge">
<title>Node3&#45;&gt;Node14</title>
<path fill="none" stroke="midnightblue" d="M243.93,-112.44C269.22,-103.4 309.3,-89.06 337.68,-78.92"/>
<polygon fill="midnightblue" stroke="midnightblue" points="338.95,-82.18 347.19,-75.52 336.59,-75.59 338.95,-82.18"/>
</g>
<!-- Node5 -->
<g id="node5" class="node">
<title>Node5</title>
<g id="a_node5"><a xlink:title=" ">
<polygon fill="none" stroke="#bfbfbf" points="196.5,-0.5 196.5,-19.5 247.5,-19.5 247.5,-0.5 196.5,-0.5"/>
<text text-anchor="middle" x="222" y="-7.5" font-family="Helvetica,sans-Serif" font-size="10.00">math.h</text>
</a>
</g>
</g>
<!-- Node4&#45;&gt;Node5 -->
<g id="edge4" class="edge">
<title>Node4&#45;&gt;Node5</title>
<path fill="none" stroke="midnightblue" d="M253.73,-56.08C248.36,-48.46 240.48,-37.26 233.92,-27.94"/>
<polygon fill="midnightblue" stroke="midnightblue" points="236.78,-25.91 228.16,-19.75 231.05,-29.94 236.78,-25.91"/>
</g>
<!-- Node6 -->
<g id="node6" class="node">
<title>Node6</title>
<g id="a_node6"><a xlink:title=" ">
<polygon fill="none" stroke="#bfbfbf" points="131.5,-0.5 131.5,-19.5 178.5,-19.5 178.5,-0.5 131.5,-0.5"/>
<text text-anchor="middle" x="155" y="-7.5" font-family="Helvetica,sans-Serif" font-size="10.00">cmath</text>
</a>
</g>
</g>
<!-- Node4&#45;&gt;Node6 -->
<g id="edge5" class="edge">
<title>Node4&#45;&gt;Node6</title>
<path fill="none" stroke="midnightblue" d="M243.13,-56.32C226.29,-47.66 200.19,-34.24 180.76,-24.25"/>
<polygon fill="midnightblue" stroke="midnightblue" points="182.32,-21.12 171.83,-19.65 179.12,-27.34 182.32,-21.12"/>
</g>
<!-- Node7 -->
<g id="node7" class="node">
<title>Node7</title>
<g id="a_node7"><a xlink:title=" ">
<polygon fill="none" stroke="#bfbfbf" points="510,-0.5 510,-19.5 554,-19.5 554,-0.5 510,-0.5"/>
<text text-anchor="middle" x="532" y="-7.5" font-family="Helvetica,sans-Serif" font-size="10.00">limits</text>
</a>
</g>
</g>
<!-- Node4&#45;&gt;Node7 -->
<g id="edge6" class="edge">
<title>Node4&#45;&gt;Node7</title>
<path fill="none" stroke="midnightblue" d="M285.1,-60.02C334.65,-50.18 444.95,-28.28 499.78,-17.4"/>
<polygon fill="midnightblue" stroke="midnightblue" points="500.53,-20.82 509.65,-15.44 499.16,-13.95 500.53,-20.82"/>
</g>
<!-- Node8 -->
<g id="node8" class="node">
<title>Node8</title>
<g id="a_node8"><a xlink:title=" ">
<polygon fill="none" stroke="#bfbfbf" points="265.5,-0.5 265.5,-19.5 324.5,-19.5 324.5,-0.5 265.5,-0.5"/>
<text text-anchor="middle" x="295" y="-7.5" font-family="Helvetica,sans-Serif" font-size="10.00">numbers</text>
</a>
</g>
</g>
<!-- Node4&#45;&gt;Node8 -->
<g id="edge7" class="edge">
<title>Node4&#45;&gt;Node8</title>
<path fill="none" stroke="midnightblue" d="M265.78,-56.08C270.67,-48.53 277.83,-37.49 283.83,-28.23"/>
<polygon fill="midnightblue" stroke="midnightblue" points="286.83,-30.05 289.33,-19.75 280.95,-26.24 286.83,-30.05"/>
</g>
<!-- Node9 -->
<g id="node9" class="node">
<title>Node9</title>
<g id="a_node9"><a xlink:title=" ">
<polygon fill="none" stroke="#bfbfbf" points="343,-0.5 343,-19.5 397,-19.5 397,-0.5 343,-0.5"/>
<text text-anchor="middle" x="370" y="-7.5" font-family="Helvetica,sans-Serif" font-size="10.00">random</text>
</a>
</g>
</g>
<!-- Node4&#45;&gt;Node9 -->
<g id="edge8" class="edge">
<title>Node4&#45;&gt;Node9</title>
<path fill="none" stroke="midnightblue" d="M277.67,-56.32C295.39,-47.62 322.9,-34.12 343.29,-24.11"/>
<polygon fill="midnightblue" stroke="midnightblue" points="344.94,-27.2 352.37,-19.65 341.85,-20.92 344.94,-27.2"/>
</g>
<!-- Node10&#45;&gt;Node6 -->
<g id="edge11" class="edge">
<title>Node10&#45;&gt;Node6</title>
<path fill="none" stroke="midnightblue" d="M148.32,-56.08C149.38,-48.93 150.91,-38.64 152.23,-29.69"/>
<polygon fill="midnightblue" stroke="midnightblue" points="155.7,-30.16 153.7,-19.75 148.78,-29.13 155.7,-30.16"/>
</g>
<!-- Node10&#45;&gt;Node11 -->
<g id="edge10" class="edge">
<title>Node10&#45;&gt;Node11</title>
<path fill="none" stroke="midnightblue" d="M127.03,-56.44C106.39,-47.6 73.94,-33.69 50.37,-23.59"/>
<polygon fill="midnightblue" stroke="midnightblue" points="51.44,-20.24 40.87,-19.52 48.68,-26.67 51.44,-20.24"/>
</g>
<!-- Node10&#45;&gt;Node12 -->
<g id="edge12" class="edge">
<title>Node10&#45;&gt;Node12</title>
<path fill="none" stroke="midnightblue" d="M137.36,-56.32C128.49,-48.34 115.13,-36.31 104.39,-26.65"/>
<polygon fill="midnightblue" stroke="midnightblue" points="106.59,-23.92 96.82,-19.83 101.91,-29.13 106.59,-23.92"/>
</g>
<!-- Node10&#45;&gt;Node13 -->
<g id="edge13" class="edge">
<title>Node10&#45;&gt;Node13</title>
<path fill="none" stroke="midnightblue" d="M178.6,-60.08C225.73,-52.62 317.42,-37.63 404.98,-20.12"/>
<polygon fill="midnightblue" stroke="midnightblue" points="405.69,-23.55 414.8,-18.14 404.31,-16.69 405.69,-23.55"/>
</g>
<!-- Node16 -->
<g id="node16" class="node">
<title>Node16</title>
<g id="a_node16"><a xlink:title=" ">
<polygon fill="none" stroke="#bfbfbf" points="841,-56.5 841,-75.5 879,-75.5 879,-56.5 841,-56.5"/>
<text text-anchor="middle" x="860" y="-63.5" font-family="Helvetica,sans-Serif" font-size="10.00">map</text>
</a>
</g>
</g>
<!-- Node15&#45;&gt;Node16 -->
<g id="edge19" class="edge">
<title>Node15&#45;&gt;Node16</title>
<path fill="none" stroke="midnightblue" d="M860,-112.08C860,-105.01 860,-94.86 860,-85.99"/>
<polygon fill="midnightblue" stroke="midnightblue" points="863.5,-85.75 860,-75.75 856.5,-85.75 863.5,-85.75"/>
</g>
<!-- Node17 -->
<g id="node17" class="node">
<title>Node17</title>
<g id="a_node17"><a xlink:title=" ">
<polygon fill="none" stroke="#bfbfbf" points="897,-56.5 897,-75.5 941,-75.5 941,-56.5 897,-56.5"/>
<text text-anchor="middle" x="919" y="-63.5" font-family="Helvetica,sans-Serif" font-size="10.00">string</text>
</a>
</g>
</g>
<!-- Node15&#45;&gt;Node17 -->
<g id="edge20" class="edge">
<title>Node15&#45;&gt;Node17</title>
<path fill="none" stroke="midnightblue" d="M869.48,-112.32C878.2,-104.34 891.34,-92.31 901.9,-82.65"/>
<polygon fill="midnightblue" stroke="midnightblue" points="904.33,-85.17 909.35,-75.83 899.61,-80 904.33,-85.17"/>
</g>
<!-- Node15&#45;&gt;Node18 -->
<g id="edge21" class="edge">
<title>Node15&#45;&gt;Node18</title>
<path fill="none" stroke="midnightblue" d="M879.49,-112.44C899.64,-103.6 931.32,-89.69 954.33,-79.59"/>
<polygon fill="midnightblue" stroke="midnightblue" points="955.85,-82.74 963.6,-75.52 953.04,-76.33 955.85,-82.74"/>
</g>
<!-- Node19&#45;&gt;Node7 -->
<g id="edge27" class="edge">
<title>Node19&#45;&gt;Node7</title>
<path fill="none" stroke="midnightblue" d="M679.25,-117.8C647.71,-113.23 600.18,-102.23 568,-76 553.04,-63.8 543.26,-43.65 537.73,-29.01"/>
<polygon fill="midnightblue" stroke="midnightblue" points="541.02,-27.82 534.43,-19.52 534.41,-30.12 541.02,-27.82"/>
</g>
<!-- Node20 -->
<g id="node20" class="node">
<title>Node20</title>
<g id="a_node20"><a xlink:title=" ">
<polygon fill="none" stroke="#bfbfbf" points="577,-56.5 577,-75.5 629,-75.5 629,-56.5 577,-56.5"/>
<text text-anchor="middle" x="603" y="-63.5" font-family="Helvetica,sans-Serif" font-size="10.00">cassert</text>
</a>
</g>
</g>
<!-- Node19&#45;&gt;Node20 -->
<g id="edge23" class="edge">
<title>Node19&#45;&gt;Node20</title>
<path fill="none" stroke="midnightblue" d="M694.49,-112.32C676.93,-103.62 649.67,-90.12 629.47,-80.11"/>
<polygon fill="midnightblue" stroke="midnightblue" points="630.98,-76.96 620.47,-75.65 627.88,-83.23 630.98,-76.96"/>
</g>
<!-- Node21 -->
<g id="node21" class="node">
<title>Node21</title>
<g id="a_node21"><a xlink:title=" ">
<polygon fill="none" stroke="#bfbfbf" points="647,-56.5 647,-75.5 711,-75.5 711,-56.5 647,-56.5"/>
<text text-anchor="middle" x="679" y="-63.5" font-family="Helvetica,sans-Serif" font-size="10.00">algorithm</text>
</a>
</g>
</g>
<!-- Node19&#45;&gt;Node21 -->
<g id="edge24" class="edge">
<title>Node19&#45;&gt;Node21</title>
<path fill="none" stroke="midnightblue" d="M706.55,-112.08C701.99,-104.61 695.33,-93.72 689.71,-84.52"/>
<polygon fill="midnightblue" stroke="midnightblue" points="692.55,-82.46 684.35,-75.75 686.58,-86.11 692.55,-82.46"/>
</g>
<!-- Node22 -->
<g id="node22" class="node">
<title>Node22</title>
<g id="a_node22"><a xlink:title=" ">
<polygon fill="none" stroke="#bfbfbf" points="729,-56.5 729,-75.5 761,-75.5 761,-56.5 729,-56.5"/>
<text text-anchor="middle" x="745" y="-63.5" font-family="Helvetica,sans-Serif" font-size="10.00">list</text>
</a>
</g>
</g>
<!-- Node19&#45;&gt;Node22 -->
<g id="edge25" class="edge">
<title>Node19&#45;&gt;Node22</title>
<path fill="none" stroke="midnightblue" d="M717.45,-112.08C722.01,-104.61 728.67,-93.72 734.29,-84.52"/>
<polygon fill="midnightblue" stroke="midnightblue" points="737.42,-86.11 739.65,-75.75 731.45,-82.46 737.42,-86.11"/>
</g>
<!-- Node23 -->
<g id="node23" class="node">
<title>Node23</title>
<g id="a_node23"><a xlink:title=" ">
<polygon fill="none" stroke="#bfbfbf" points="779,-56.5 779,-75.5 823,-75.5 823,-56.5 779,-56.5"/>
<text text-anchor="middle" x="801" y="-63.5" font-family="Helvetica,sans-Serif" font-size="10.00">ctime</text>
</a>
</g>
</g>
<!-- Node19&#45;&gt;Node23 -->
<g id="edge26" class="edge">
<title>Node19&#45;&gt;Node23</title>
<path fill="none" stroke="midnightblue" d="M726.3,-112.32C740.18,-103.9 761.49,-90.97 777.8,-81.07"/>
<polygon fill="midnightblue" stroke="midnightblue" points="780,-83.83 786.74,-75.65 776.37,-77.85 780,-83.83"/>
</g>
<!-- Node26&#45;&gt;Node4 -->
<g id="edge32" class="edge">
<title>Node26&#45;&gt;Node4</title>
<path fill="none" stroke="midnightblue" d="M353.17,-112.32C335.28,-103.62 307.52,-90.12 286.95,-80.11"/>
<polygon fill="midnightblue" stroke="midnightblue" points="288.31,-76.88 277.79,-75.65 285.25,-83.18 288.31,-76.88"/>
</g>
<!-- Node26&#45;&gt;Node10 -->
<g id="edge35" class="edge">
<title>Node26&#45;&gt;Node10</title>
<path fill="none" stroke="midnightblue" d="M335.51,-112.44C295.62,-102.83 230.93,-87.23 188.67,-77.05"/>
<polygon fill="midnightblue" stroke="midnightblue" points="189.25,-73.58 178.71,-74.64 187.61,-80.39 189.25,-73.58"/>
</g>
<!-- Node26&#45;&gt;Node11 -->
<g id="edge36" class="edge">
<title>Node26&#45;&gt;Node11</title>
<path fill="none" stroke="midnightblue" d="M311.64,-112.46C239.35,-101.82 124.53,-84.07 106,-76 79.02,-64.26 52.89,-42.16 36.88,-27.02"/>
<polygon fill="midnightblue" stroke="midnightblue" points="39.09,-24.29 29.48,-19.83 34.21,-29.31 39.09,-24.29"/>
</g>
<!-- Node26&#45;&gt;Node12 -->
<g id="edge38" class="edge">
<title>Node26&#45;&gt;Node12</title>
<path fill="none" stroke="midnightblue" d="M337.9,-112.49C308.13,-104.42 263.46,-91.28 226,-76 207.96,-68.64 204.55,-64.44 187,-56 163.26,-44.58 135.97,-32.36 115.91,-23.54"/>
<polygon fill="midnightblue" stroke="midnightblue" points="117.25,-20.31 106.68,-19.5 114.44,-26.72 117.25,-20.31"/>
</g>
<!-- Node26&#45;&gt;Node13 -->
<g id="edge39" class="edge">
<title>Node26&#45;&gt;Node13</title>
<path fill="none" stroke="midnightblue" d="M379.11,-112.44C387.19,-103.68 399.71,-89.47 409,-76 419.5,-60.77 429.54,-42.2 436.33,-28.81"/>
<polygon fill="midnightblue" stroke="midnightblue" points="439.53,-30.24 440.85,-19.73 433.26,-27.12 439.53,-30.24"/>
</g>
<!-- Node26&#45;&gt;Node14 -->
<g id="edge37" class="edge">
<title>Node26&#45;&gt;Node14</title>
<path fill="none" stroke="midnightblue" d="M371,-112.08C371,-105.01 371,-94.86 371,-85.99"/>
<polygon fill="midnightblue" stroke="midnightblue" points="374.5,-85.75 371,-75.75 367.5,-85.75 374.5,-85.75"/>
</g>
<!-- Node27 -->
<g id="node27" class="node">
<title>Node27</title>
<g id="a_node27"><a xlink:href="Matrix2_8h.html" target="_top" xlink:title=" ">
<polygon fill="none" stroke="black" points="457.5,-56.5 457.5,-75.5 520.5,-75.5 520.5,-56.5 457.5,-56.5"/>
<text text-anchor="middle" x="489" y="-63.5" font-family="Helvetica,sans-Serif" font-size="10.00">Matrix2.h</text>
</a>
</g>
</g>
<!-- Node26&#45;&gt;Node27 -->
<g id="edge33" class="edge">
<title>Node26&#45;&gt;Node27</title>
<path fill="none" stroke="midnightblue" d="M389.7,-112.44C408.94,-103.64 439.15,-89.81 461.2,-79.72"/>
<polygon fill="midnightblue" stroke="midnightblue" points="462.75,-82.86 470.39,-75.52 459.84,-76.5 462.75,-82.86"/>
</g>
<!-- Node27&#45;&gt;Node13 -->
<g id="edge34" class="edge">
<title>Node27&#45;&gt;Node13</title>
<path fill="none" stroke="midnightblue" d="M481.73,-56.08C475.46,-48.38 466.21,-37.03 458.57,-27.65"/>
<polygon fill="midnightblue" stroke="midnightblue" points="461.16,-25.29 452.13,-19.75 455.73,-29.71 461.16,-25.29"/>
</g>
</g>
</svg>
