<?xml version="1.0" encoding="UTF-8" standalone="no"?>
<!DOCTYPE svg PUBLIC "-//W3C//DTD SVG 1.1//EN"
 "http://www.w3.org/Graphics/SVG/1.1/DTD/svg11.dtd">
<!-- Generated by graphviz version 8.1.0 (20230707.0739)
 -->
<!-- Title: include Pages: 1 -->
<svg width="238pt" height="220pt"
 viewBox="0.00 0.00 238.00 220.00" xmlns="http://www.w3.org/2000/svg" xmlns:xlink="http://www.w3.org/1999/xlink">
<g id="graph0" class="graph" transform="scale(1 1) rotate(0) translate(4 216)">
<title>include</title>
<g id="clust1" class="cluster">
<title>clusterdir_d44c64559bbebec7f509842c48db8b23</title>
<g id="a_clust1"><a xlink:href="dir_d44c64559bbebec7f509842c48db8b23.html" target="_top">
<polygon fill="#eeeeff" stroke="black" points="8,-8 8,-204 222,-204 222,-8 8,-8"/>
</a>
</g>
</g>
<!-- dir_d44c64559bbebec7f509842c48db8b23 -->
<g id="node1" class="node">
<title>dir_d44c64559bbebec7f509842c48db8b23</title>
<text text-anchor="middle" x="187" y="-174.5" font-family="Helvetica,sans-Serif" font-size="10.00">include</text>
</g>
<!-- dir_5c20107ceaa71582c1fedb9f0d02f0dd -->
<g id="node2" class="node">
<title>dir_5c20107ceaa71582c1fedb9f0d02f0dd</title>
<g id="a_node2"><a xlink:href="dir_5c20107ceaa71582c1fedb9f0d02f0dd.html" target="_top" xlink:title="Effect">
<polygon fill="white" stroke="black" points="119,-124 65,-124 65,-88 119,-88 119,-124"/>
<text text-anchor="middle" x="92" y="-102.5" font-family="Helvetica,sans-Serif" font-size="10.00">Effect</text>
</a>
</g>
</g>
<!-- dir_47cbc8c4175a1baeda2f15555368db1c -->
<g id="node3" class="node">
<title>dir_47cbc8c4175a1baeda2f15555368db1c</title>
<g id="a_node3"><a xlink:href="dir_47cbc8c4175a1baeda2f15555368db1c.html" target="_top" xlink:title="LinearAlgebra">
<polygon fill="white" stroke="black" points="152.62,-52 77.38,-52 77.38,-16 152.62,-16 152.62,-52"/>
<text text-anchor="middle" x="115" y="-30.5" font-family="Helvetica,sans-Serif" font-size="10.00">LinearAlgebra</text>
</a>
</g>
</g>
<!-- dir_5c20107ceaa71582c1fedb9f0d02f0dd&#45;&gt;dir_47cbc8c4175a1baeda2f15555368db1c -->
<g id="edge1" class="edge">
<title>dir_5c20107ceaa71582c1fedb9f0d02f0dd&#45;&gt;dir_47cbc8c4175a1baeda2f15555368db1c</title>
<path fill="none" stroke="black" d="M97.69,-87.7C100.19,-80.07 103.2,-70.92 106,-62.4"/>
<polygon fill="black" stroke="black" points="109.58,-63.7 109.38,-53.1 102.93,-61.51 109.58,-63.7"/>
<g id="a_edge1&#45;headlabel"><a xlink:href="dir_000004_000005.html" target="_top" xlink:title="1">
<text text-anchor="middle" x="111.16" y="-63.5" font-family="Helvetica,sans-Serif" font-size="10.00">1</text>
</a>
</g>
</g>
<!-- dir_35b974b1bbf44ef7d950ecbcbdecc407 -->
<g id="node4" class="node">
<title>dir_35b974b1bbf44ef7d950ecbcbdecc407</title>
<g id="a_node4"><a xlink:href="dir_35b974b1bbf44ef7d950ecbcbdecc407.html" target="_top" xlink:title="Scenes">
<polygon fill="white" stroke="black" points="142,-196 88,-196 88,-160 142,-160 142,-196"/>
<text text-anchor="middle" x="115" y="-174.5" font-family="Helvetica,sans-Serif" font-size="10.00">Scenes</text>
</a>
</g>
</g>
<!-- dir_35b974b1bbf44ef7d950ecbcbdecc407&#45;&gt;dir_5c20107ceaa71582c1fedb9f0d02f0dd -->
<g id="edge3" class="edge">
<title>dir_35b974b1bbf44ef7d950ecbcbdecc407&#45;&gt;dir_5c20107ceaa71582c1fedb9f0d02f0dd</title>
<path fill="none" stroke="black" d="M109.31,-159.7C106.81,-152.07 103.8,-142.92 101,-134.4"/>
<polygon fill="black" stroke="black" points="104.07,-133.51 97.62,-125.1 97.42,-135.7 104.07,-133.51"/>
<g id="a_edge3&#45;headlabel"><a xlink:href="dir_000006_000004.html" target="_top" xlink:title="3">
<text text-anchor="middle" x="107.89" y="-131.54" font-family="Helvetica,sans-Serif" font-size="10.00">3</text>
</a>
</g>
</g>
<!-- dir_35b974b1bbf44ef7d950ecbcbdecc407&#45;&gt;dir_47cbc8c4175a1baeda2f15555368db1c -->
<g id="edge2" class="edge">
<title>dir_35b974b1bbf44ef7d950ecbcbdecc407&#45;&gt;dir_47cbc8c4175a1baeda2f15555368db1c</title>
<path fill="none" stroke="black" d="M120.41,-159.53C123.3,-149.29 126.55,-136.04 128,-124 129.92,-108.12 129.92,-103.88 128,-88 127.01,-79.82 125.19,-71.07 123.22,-63.1"/>
<polygon fill="black" stroke="black" points="126.35,-62.24 120.41,-53.47 119.59,-64.03 126.35,-62.24"/>
<g id="a_edge2&#45;headlabel"><a xlink:href="dir_000006_000005.html" target="_top" xlink:title="4">
<text text-anchor="middle" x="130.02" y="-60.49" font-family="Helvetica,sans-Serif" font-size="10.00">4</text>
</a>
</g>
</g>
<!-- dir_b647303d7dac632cf2e2685370b563a8 -->
<g id="node5" class="node">
<title>dir_b647303d7dac632cf2e2685370b563a8</title>
<g id="a_node5"><a xlink:href="dir_b647303d7dac632cf2e2685370b563a8.html" target="_top" xlink:title="Utility">
<polygon fill="white" stroke="black" points="70,-196 16,-196 16,-160 70,-160 70,-196"/>
<text text-anchor="middle" x="43" y="-174.5" font-family="Helvetica,sans-Serif" font-size="10.00">Utility</text>
</a>
</g>
</g>
</g>
</svg>
