<?xml version="1.0" encoding="UTF-8" standalone="no"?>
<!DOCTYPE svg PUBLIC "-//W3C//DTD SVG 1.1//EN"
 "http://www.w3.org/Graphics/SVG/1.1/DTD/svg11.dtd">
<!-- Generated by graphviz version 2.43.0 (0)
 -->
<!-- Title: include Pages: 1 -->
<svg width="270pt" height="220pt"
 viewBox="0.00 0.00 270.00 220.00" xmlns="http://www.w3.org/2000/svg" xmlns:xlink="http://www.w3.org/1999/xlink">
<g id="graph0" class="graph" transform="scale(1 1) rotate(0) translate(4 216)">
<title>include</title>
<g id="clust1" class="cluster">
<title>clusterdir_d44c64559bbebec7f509842c48db8b23</title>
<g id="a_clust1"><a xlink:href="dir_d44c64559bbebec7f509842c48db8b23.html" target="_top">
<polygon fill="#eeeeff" stroke="black" points="8,-8 8,-204 254,-204 254,-8 8,-8"/>
</a>
</g>
</g>
<!-- dir_d44c64559bbebec7f509842c48db8b23 -->
<g id="node1" class="node">
<title>dir_d44c64559bbebec7f509842c48db8b23</title>
<text text-anchor="middle" x="219" y="-103.5" font-family="Helvetica,sans-Serif" font-size="10.00">include</text>
</g>
<!-- dir_47cbc8c4175a1baeda2f15555368db1c -->
<g id="node3" class="node">
<title>dir_47cbc8c4175a1baeda2f15555368db1c</title>
<g id="a_node3"><a xlink:href="dir_47cbc8c4175a1baeda2f15555368db1c.html" target="_top" xlink:title="LinearAlgebra">
<polygon fill="white" stroke="black" points="183,-52 99,-52 99,-16 183,-16 183,-52"/>
<text text-anchor="middle" x="141" y="-31.5" font-family="Helvetica,sans-Serif" font-size="10.00">LinearAlgebra</text>
</a>
</g>
</g>
<!-- dir_d44c64559bbebec7f509842c48db8b23&#45;&gt;dir_47cbc8c4175a1baeda2f15555368db1c -->
<g id="edge4" class="edge">
<title>dir_d44c64559bbebec7f509842c48db8b23&#45;&gt;dir_47cbc8c4175a1baeda2f15555368db1c</title>
<path fill="none" stroke="black" d="M199.72,-87.7C190.08,-79.05 178.27,-68.45 167.77,-59.03"/>
<polygon fill="black" stroke="black" points="169.84,-56.18 160.06,-52.1 165.16,-61.39 169.84,-56.18"/>
<g id="a_edge4&#45;headlabel"><a xlink:href="dir_000003_000005.html" target="_top" xlink:title="22">
<text text-anchor="middle" x="174.41" y="-53.97" font-family="Helvetica,sans-Serif" font-size="10.00">22</text>
</a>
</g>
</g>
<!-- dir_9742a0590b83be96d0cf05cac5c5e4ea -->
<g id="node2" class="node">
<title>dir_9742a0590b83be96d0cf05cac5c5e4ea</title>
<g id="a_node2"><a xlink:href="dir_9742a0590b83be96d0cf05cac5c5e4ea.html" target="_top" xlink:title="Effects">
<polygon fill="white" stroke="black" points="70,-124 16,-124 16,-88 70,-88 70,-124"/>
<text text-anchor="middle" x="43" y="-103.5" font-family="Helvetica,sans-Serif" font-size="10.00">Effects</text>
</a>
</g>
</g>
<!-- dir_da587653d34e0b5a39fcb72873e4f07e -->
<g id="node6" class="node">
<title>dir_da587653d34e0b5a39fcb72873e4f07e</title>
<g id="a_node6"><a xlink:href="dir_da587653d34e0b5a39fcb72873e4f07e.html" target="_top" xlink:title="Shaders">
<polygon fill="white" stroke="black" points="72,-52 16,-52 16,-16 72,-16 72,-52"/>
<text text-anchor="middle" x="44" y="-31.5" font-family="Helvetica,sans-Serif" font-size="10.00">Shaders</text>
</a>
</g>
</g>
<!-- dir_9742a0590b83be96d0cf05cac5c5e4ea&#45;&gt;dir_da587653d34e0b5a39fcb72873e4f07e -->
<g id="edge5" class="edge">
<title>dir_9742a0590b83be96d0cf05cac5c5e4ea&#45;&gt;dir_da587653d34e0b5a39fcb72873e4f07e</title>
<path fill="none" stroke="black" d="M43.25,-87.7C43.36,-79.98 43.49,-70.71 43.61,-62.11"/>
<polygon fill="black" stroke="black" points="47.11,-62.15 43.76,-52.1 40.11,-62.05 47.11,-62.15"/>
<g id="a_edge5&#45;headlabel"><a xlink:href="dir_000004_000008.html" target="_top" xlink:title="13">
<text text-anchor="middle" x="49.9" y="-63.29" font-family="Helvetica,sans-Serif" font-size="10.00">13</text>
</a>
</g>
</g>
<!-- dir_e15e4d6f467db1409d928a9a5394d3a8 -->
<g id="node4" class="node">
<title>dir_e15e4d6f467db1409d928a9a5394d3a8</title>
<g id="a_node4"><a xlink:href="dir_e15e4d6f467db1409d928a9a5394d3a8.html" target="_top" xlink:title="Primitives">
<polygon fill="white" stroke="black" points="174,-124 108,-124 108,-88 174,-88 174,-124"/>
<text text-anchor="middle" x="141" y="-103.5" font-family="Helvetica,sans-Serif" font-size="10.00">Primitives</text>
</a>
</g>
</g>
<!-- dir_e15e4d6f467db1409d928a9a5394d3a8&#45;&gt;dir_47cbc8c4175a1baeda2f15555368db1c -->
<g id="edge6" class="edge">
<title>dir_e15e4d6f467db1409d928a9a5394d3a8&#45;&gt;dir_47cbc8c4175a1baeda2f15555368db1c</title>
<path fill="none" stroke="black" d="M141,-87.7C141,-79.98 141,-70.71 141,-62.11"/>
<polygon fill="black" stroke="black" points="144.5,-62.1 141,-52.1 137.5,-62.1 144.5,-62.1"/>
<g id="a_edge6&#45;headlabel"><a xlink:href="dir_000006_000005.html" target="_top" xlink:title="4">
<text text-anchor="middle" x="147.34" y="-63.2" font-family="Helvetica,sans-Serif" font-size="10.00">4</text>
</a>
</g>
</g>
<!-- dir_35b974b1bbf44ef7d950ecbcbdecc407 -->
<g id="node5" class="node">
<title>dir_35b974b1bbf44ef7d950ecbcbdecc407</title>
<g id="a_node5"><a xlink:href="dir_35b974b1bbf44ef7d950ecbcbdecc407.html" target="_top" xlink:title="Scenes">
<polygon fill="white" stroke="black" points="142,-196 88,-196 88,-160 142,-160 142,-196"/>
<text text-anchor="middle" x="115" y="-175.5" font-family="Helvetica,sans-Serif" font-size="10.00">Scenes</text>
</a>
</g>
</g>
<!-- dir_35b974b1bbf44ef7d950ecbcbdecc407&#45;&gt;dir_9742a0590b83be96d0cf05cac5c5e4ea -->
<g id="edge2" class="edge">
<title>dir_35b974b1bbf44ef7d950ecbcbdecc407&#45;&gt;dir_9742a0590b83be96d0cf05cac5c5e4ea</title>
<path fill="none" stroke="black" d="M97.2,-159.7C88.4,-151.14 77.62,-140.66 68,-131.3"/>
<polygon fill="black" stroke="black" points="70.2,-128.57 60.59,-124.1 65.32,-133.58 70.2,-128.57"/>
<g id="a_edge2&#45;headlabel"><a xlink:href="dir_000007_000004.html" target="_top" xlink:title="9">
<text text-anchor="middle" x="74.76" y="-126.54" font-family="Helvetica,sans-Serif" font-size="10.00">9</text>
</a>
</g>
</g>
<!-- dir_35b974b1bbf44ef7d950ecbcbdecc407&#45;&gt;dir_47cbc8c4175a1baeda2f15555368db1c -->
<g id="edge1" class="edge">
<title>dir_35b974b1bbf44ef7d950ecbcbdecc407&#45;&gt;dir_47cbc8c4175a1baeda2f15555368db1c</title>
<path fill="none" stroke="black" d="M106.87,-159.87C99.37,-141.64 90.59,-112.17 99,-88 102.53,-77.86 108.91,-68.19 115.64,-59.96"/>
<polygon fill="black" stroke="black" points="118.44,-62.07 122.4,-52.24 113.17,-57.46 118.44,-62.07"/>
<g id="a_edge1&#45;headlabel"><a xlink:href="dir_000007_000005.html" target="_top" xlink:title="10">
<text text-anchor="middle" x="118.21" y="-64.15" font-family="Helvetica,sans-Serif" font-size="10.00">10</text>
</a>
</g>
</g>
<!-- dir_35b974b1bbf44ef7d950ecbcbdecc407&#45;&gt;dir_e15e4d6f467db1409d928a9a5394d3a8 -->
<g id="edge3" class="edge">
<title>dir_35b974b1bbf44ef7d950ecbcbdecc407&#45;&gt;dir_e15e4d6f467db1409d928a9a5394d3a8</title>
<path fill="none" stroke="black" d="M121.43,-159.7C124.36,-151.81 127.89,-142.3 131.14,-133.55"/>
<polygon fill="black" stroke="black" points="134.45,-134.7 134.65,-124.1 127.88,-132.26 134.45,-134.7"/>
<g id="a_edge3&#45;headlabel"><a xlink:href="dir_000007_000006.html" target="_top" xlink:title="9">
<text text-anchor="middle" x="135.86" y="-136.56" font-family="Helvetica,sans-Serif" font-size="10.00">9</text>
</a>
</g>
</g>
<!-- dir_b647303d7dac632cf2e2685370b563a8 -->
<g id="node7" class="node">
<title>dir_b647303d7dac632cf2e2685370b563a8</title>
<g id="a_node7"><a xlink:href="dir_b647303d7dac632cf2e2685370b563a8.html" target="_top" xlink:title="Utility">
<polygon fill="white" stroke="black" points="70,-196 16,-196 16,-160 70,-160 70,-196"/>
<text text-anchor="middle" x="43" y="-175.5" font-family="Helvetica,sans-Serif" font-size="10.00">Utility</text>
</a>
</g>
</g>
</g>
</svg>
