<?xml version="1.0" encoding="UTF-8" standalone="no"?>
<!DOCTYPE svg PUBLIC "-//W3C//DTD SVG 1.1//EN"
 "http://www.w3.org/Graphics/SVG/1.1/DTD/svg11.dtd">
<!-- Generated by graphviz version 8.1.0 (20230707.0739)
 -->
<!-- Title: include/Scenes Pages: 1 -->
<svg width="190pt" height="240pt"
 viewBox="0.00 0.00 190.00 240.00" xmlns="http://www.w3.org/2000/svg" xmlns:xlink="http://www.w3.org/1999/xlink">
<g id="graph0" class="graph" transform="scale(1 1) rotate(0) translate(4 236)">
<title>include/Scenes</title>
<g id="clust1" class="cluster">
<title>clusterdir_d44c64559bbebec7f509842c48db8b23</title>
<g id="a_clust1"><a xlink:href="dir_d44c64559bbebec7f509842c48db8b23.html" target="_top" xlink:title="include">
<polygon fill="#ddddee" stroke="black" points="8,-8 8,-224 174,-224 174,-8 8,-8"/>
<text text-anchor="middle" x="91" y="-210.5" font-family="Helvetica,sans-Serif" font-size="10.00">include</text>
</a>
</g>
</g>
<!-- dir_47cbc8c4175a1baeda2f15555368db1c -->
<g id="node1" class="node">
<title>dir_47cbc8c4175a1baeda2f15555368db1c</title>
<g id="a_node1"><a xlink:href="dir_47cbc8c4175a1baeda2f15555368db1c.html" target="_top" xlink:title="LinearAlgebra">
<polygon fill="none" stroke="black" points="128.62,-52 53.38,-52 53.38,-16 128.62,-16 128.62,-52"/>
<text text-anchor="middle" x="91" y="-30.5" font-family="Helvetica,sans-Serif" font-size="10.00">LinearAlgebra</text>
</a>
</g>
</g>
<!-- dir_9742a0590b83be96d0cf05cac5c5e4ea -->
<g id="node2" class="node">
<title>dir_9742a0590b83be96d0cf05cac5c5e4ea</title>
<g id="a_node2"><a xlink:href="dir_9742a0590b83be96d0cf05cac5c5e4ea.html" target="_top" xlink:title="Effects">
<polygon fill="none" stroke="black" points="90,-124 36,-124 36,-88 90,-88 90,-124"/>
<text text-anchor="middle" x="63" y="-102.5" font-family="Helvetica,sans-Serif" font-size="10.00">Effects</text>
</a>
</g>
</g>
<!-- dir_e15e4d6f467db1409d928a9a5394d3a8 -->
<g id="node3" class="node">
<title>dir_e15e4d6f467db1409d928a9a5394d3a8</title>
<g id="a_node3"><a xlink:href="dir_e15e4d6f467db1409d928a9a5394d3a8.html" target="_top" xlink:title="Primitives">
<polygon fill="none" stroke="black" points="166,-124 108,-124 108,-88 166,-88 166,-124"/>
<text text-anchor="middle" x="137" y="-102.5" font-family="Helvetica,sans-Serif" font-size="10.00">Primitives</text>
</a>
</g>
</g>
<!-- dir_e15e4d6f467db1409d928a9a5394d3a8&#45;&gt;dir_47cbc8c4175a1baeda2f15555368db1c -->
<g id="edge4" class="edge">
<title>dir_e15e4d6f467db1409d928a9a5394d3a8&#45;&gt;dir_47cbc8c4175a1baeda2f15555368db1c</title>
<path fill="none" stroke="black" d="M125.63,-87.7C120.39,-79.73 114.07,-70.1 108.26,-61.26"/>
<polygon fill="black" stroke="black" points="110.66,-59.54 102.24,-53.1 104.81,-63.38 110.66,-59.54"/>
<g id="a_edge4&#45;headlabel"><a xlink:href="dir_000006_000005.html" target="_top" xlink:title="4">
<text text-anchor="middle" x="115" y="-56.48" font-family="Helvetica,sans-Serif" font-size="10.00">4</text>
</a>
</g>
</g>
<!-- dir_35b974b1bbf44ef7d950ecbcbdecc407 -->
<g id="node4" class="node">
<title>dir_35b974b1bbf44ef7d950ecbcbdecc407</title>
<g id="a_node4"><a xlink:href="dir_35b974b1bbf44ef7d950ecbcbdecc407.html" target="_top" xlink:title="Scenes">
<polygon fill="#eeeeff" stroke="black" points="90,-196 36,-196 36,-160 90,-160 90,-196"/>
<text text-anchor="middle" x="63" y="-174.5" font-family="Helvetica,sans-Serif" font-size="10.00">Scenes</text>
</a>
</g>
</g>
<!-- dir_35b974b1bbf44ef7d950ecbcbdecc407&#45;&gt;dir_47cbc8c4175a1baeda2f15555368db1c -->
<g id="edge1" class="edge">
<title>dir_35b974b1bbf44ef7d950ecbcbdecc407&#45;&gt;dir_47cbc8c4175a1baeda2f15555368db1c</title>
<path fill="none" stroke="black" d="M47.36,-159.7C32.98,-141.58 15.51,-112.43 27,-88 32.37,-76.59 41.53,-66.79 51.27,-58.84"/>
<polygon fill="black" stroke="black" points="53.02,-61.15 58.89,-52.33 48.8,-55.56 53.02,-61.15"/>
<g id="a_edge1&#45;headlabel"><a xlink:href="dir_000007_000005.html" target="_top" xlink:title="10">
<text text-anchor="middle" x="52.86" y="-62.08" font-family="Helvetica,sans-Serif" font-size="10.00">10</text>
</a>
</g>
</g>
<!-- dir_35b974b1bbf44ef7d950ecbcbdecc407&#45;&gt;dir_9742a0590b83be96d0cf05cac5c5e4ea -->
<g id="edge2" class="edge">
<title>dir_35b974b1bbf44ef7d950ecbcbdecc407&#45;&gt;dir_9742a0590b83be96d0cf05cac5c5e4ea</title>
<path fill="none" stroke="black" d="M63,-159.7C63,-152.24 63,-143.32 63,-134.97"/>
<polygon fill="black" stroke="black" points="66.5,-135.1 63,-125.1 59.5,-135.1 66.5,-135.1"/>
<g id="a_edge2&#45;headlabel"><a xlink:href="dir_000007_000004.html" target="_top" xlink:title="9">
<text text-anchor="middle" x="69.34" y="-134.2" font-family="Helvetica,sans-Serif" font-size="10.00">9</text>
</a>
</g>
</g>
<!-- dir_35b974b1bbf44ef7d950ecbcbdecc407&#45;&gt;dir_e15e4d6f467db1409d928a9a5394d3a8 -->
<g id="edge3" class="edge">
<title>dir_35b974b1bbf44ef7d950ecbcbdecc407&#45;&gt;dir_e15e4d6f467db1409d928a9a5394d3a8</title>
<path fill="none" stroke="black" d="M81.29,-159.7C90.19,-151.28 101.04,-141.02 110.79,-131.79"/>
<polygon fill="black" stroke="black" points="112.8,-134.76 117.66,-125.35 107.99,-129.68 112.8,-134.76"/>
<g id="a_edge3&#45;headlabel"><a xlink:href="dir_000007_000006.html" target="_top" xlink:title="9">
<text text-anchor="middle" x="113.14" y="-134.79" font-family="Helvetica,sans-Serif" font-size="10.00">9</text>
</a>
</g>
</g>
</g>
</svg>
