<?xml version="1.0" encoding="UTF-8" standalone="no"?>
<!DOCTYPE svg PUBLIC "-//W3C//DTD SVG 1.1//EN"
 "http://www.w3.org/Graphics/SVG/1.1/DTD/svg11.dtd">
<!-- Generated by graphviz version 8.1.0 (20230707.0739)
 -->
<!-- Title: include Pages: 1 -->
<svg width="262pt" height="220pt"
 viewBox="0.00 0.00 262.00 220.00" xmlns="http://www.w3.org/2000/svg" xmlns:xlink="http://www.w3.org/1999/xlink">
<g id="graph0" class="graph" transform="scale(1 1) rotate(0) translate(4 216)">
<title>include</title>
<g id="clust1" class="cluster">
<title>clusterdir_d44c64559bbebec7f509842c48db8b23</title>
<g id="a_clust1"><a xlink:href="dir_d44c64559bbebec7f509842c48db8b23.html" target="_top">
<polygon fill="#eeeeff" stroke="black" points="8,-8 8,-204 246,-204 246,-8 8,-8"/>
</a>
</g>
</g>
<!-- dir_d44c64559bbebec7f509842c48db8b23 -->
<g id="node1" class="node">
<title>dir_d44c64559bbebec7f509842c48db8b23</title>
<text text-anchor="middle" x="211" y="-102.5" font-family="Helvetica,sans-Serif" font-size="10.00">include</text>
</g>
<!-- dir_47cbc8c4175a1baeda2f15555368db1c -->
<g id="node3" class="node">
<title>dir_47cbc8c4175a1baeda2f15555368db1c</title>
<g id="a_node3"><a xlink:href="dir_47cbc8c4175a1baeda2f15555368db1c.html" target="_top" xlink:title="LinearAlgebra">
<polygon fill="white" stroke="black" points="174.62,-52 99.38,-52 99.38,-16 174.62,-16 174.62,-52"/>
<text text-anchor="middle" x="137" y="-30.5" font-family="Helvetica,sans-Serif" font-size="10.00">LinearAlgebra</text>
</a>
</g>
</g>
<!-- dir_d44c64559bbebec7f509842c48db8b23&#45;&gt;dir_47cbc8c4175a1baeda2f15555368db1c -->
<g id="edge4" class="edge">
<title>dir_d44c64559bbebec7f509842c48db8b23&#45;&gt;dir_47cbc8c4175a1baeda2f15555368db1c</title>
<path fill="none" stroke="black" d="M193.09,-88.05C184.13,-79.58 173.12,-69.17 163.23,-59.82"/>
<polygon fill="black" stroke="black" points="165.93,-57.6 156.26,-53.28 161.12,-62.69 165.93,-57.6"/>
<g id="a_edge4&#45;headlabel"><a xlink:href="dir_000003_000005.html" target="_top" xlink:title="22">
<text text-anchor="middle" x="169.49" y="-53.51" font-family="Helvetica,sans-Serif" font-size="10.00">22</text>
</a>
</g>
</g>
<!-- dir_9742a0590b83be96d0cf05cac5c5e4ea -->
<g id="node2" class="node">
<title>dir_9742a0590b83be96d0cf05cac5c5e4ea</title>
<g id="a_node2"><a xlink:href="dir_9742a0590b83be96d0cf05cac5c5e4ea.html" target="_top" xlink:title="Effects">
<polygon fill="white" stroke="black" points="70,-124 16,-124 16,-88 70,-88 70,-124"/>
<text text-anchor="middle" x="43" y="-102.5" font-family="Helvetica,sans-Serif" font-size="10.00">Effects</text>
</a>
</g>
</g>
<!-- dir_da587653d34e0b5a39fcb72873e4f07e -->
<g id="node6" class="node">
<title>dir_da587653d34e0b5a39fcb72873e4f07e</title>
<g id="a_node6"><a xlink:href="dir_da587653d34e0b5a39fcb72873e4f07e.html" target="_top" xlink:title="Shaders">
<polygon fill="white" stroke="black" points="70,-52 16,-52 16,-16 70,-16 70,-52"/>
<text text-anchor="middle" x="43" y="-30.5" font-family="Helvetica,sans-Serif" font-size="10.00">Shaders</text>
</a>
</g>
</g>
<!-- dir_9742a0590b83be96d0cf05cac5c5e4ea&#45;&gt;dir_da587653d34e0b5a39fcb72873e4f07e -->
<g id="edge5" class="edge">
<title>dir_9742a0590b83be96d0cf05cac5c5e4ea&#45;&gt;dir_da587653d34e0b5a39fcb72873e4f07e</title>
<path fill="none" stroke="black" d="M43,-87.7C43,-80.24 43,-71.32 43,-62.97"/>
<polygon fill="black" stroke="black" points="46.5,-63.1 43,-53.1 39.5,-63.1 46.5,-63.1"/>
<g id="a_edge5&#45;headlabel"><a xlink:href="dir_000004_000008.html" target="_top" xlink:title="13">
<text text-anchor="middle" x="49.34" y="-62.2" font-family="Helvetica,sans-Serif" font-size="10.00">13</text>
</a>
</g>
</g>
<!-- dir_e15e4d6f467db1409d928a9a5394d3a8 -->
<g id="node4" class="node">
<title>dir_e15e4d6f467db1409d928a9a5394d3a8</title>
<g id="a_node4"><a xlink:href="dir_e15e4d6f467db1409d928a9a5394d3a8.html" target="_top" xlink:title="Primitives">
<polygon fill="white" stroke="black" points="166,-124 108,-124 108,-88 166,-88 166,-124"/>
<text text-anchor="middle" x="137" y="-102.5" font-family="Helvetica,sans-Serif" font-size="10.00">Primitives</text>
</a>
</g>
</g>
<!-- dir_e15e4d6f467db1409d928a9a5394d3a8&#45;&gt;dir_47cbc8c4175a1baeda2f15555368db1c -->
<g id="edge6" class="edge">
<title>dir_e15e4d6f467db1409d928a9a5394d3a8&#45;&gt;dir_47cbc8c4175a1baeda2f15555368db1c</title>
<path fill="none" stroke="black" d="M137,-87.7C137,-80.24 137,-71.32 137,-62.97"/>
<polygon fill="black" stroke="black" points="140.5,-63.1 137,-53.1 133.5,-63.1 140.5,-63.1"/>
<g id="a_edge6&#45;headlabel"><a xlink:href="dir_000006_000005.html" target="_top" xlink:title="4">
<text text-anchor="middle" x="143.34" y="-62.2" font-family="Helvetica,sans-Serif" font-size="10.00">4</text>
</a>
</g>
</g>
<!-- dir_35b974b1bbf44ef7d950ecbcbdecc407 -->
<g id="node5" class="node">
<title>dir_35b974b1bbf44ef7d950ecbcbdecc407</title>
<g id="a_node5"><a xlink:href="dir_35b974b1bbf44ef7d950ecbcbdecc407.html" target="_top" xlink:title="Scenes">
<polygon fill="white" stroke="black" points="142,-196 88,-196 88,-160 142,-160 142,-196"/>
<text text-anchor="middle" x="115" y="-174.5" font-family="Helvetica,sans-Serif" font-size="10.00">Scenes</text>
</a>
</g>
</g>
<!-- dir_35b974b1bbf44ef7d950ecbcbdecc407&#45;&gt;dir_9742a0590b83be96d0cf05cac5c5e4ea -->
<g id="edge2" class="edge">
<title>dir_35b974b1bbf44ef7d950ecbcbdecc407&#45;&gt;dir_9742a0590b83be96d0cf05cac5c5e4ea</title>
<path fill="none" stroke="black" d="M97.2,-159.7C88.55,-151.28 77.99,-141.02 68.5,-131.79"/>
<polygon fill="black" stroke="black" points="71.45,-129.81 61.84,-125.35 66.57,-134.83 71.45,-129.81"/>
<g id="a_edge2&#45;headlabel"><a xlink:href="dir_000007_000004.html" target="_top" xlink:title="9">
<text text-anchor="middle" x="75.01" y="-125.78" font-family="Helvetica,sans-Serif" font-size="10.00">9</text>
</a>
</g>
</g>
<!-- dir_35b974b1bbf44ef7d950ecbcbdecc407&#45;&gt;dir_47cbc8c4175a1baeda2f15555368db1c -->
<g id="edge1" class="edge">
<title>dir_35b974b1bbf44ef7d950ecbcbdecc407&#45;&gt;dir_47cbc8c4175a1baeda2f15555368db1c</title>
<path fill="none" stroke="black" d="M106.96,-159.61C99.69,-141.42 91.22,-112.21 99,-88 102.12,-78.29 107.75,-68.85 113.74,-60.69"/>
<polygon fill="black" stroke="black" points="117.09,-63.1 120.54,-53.08 111.59,-58.76 117.09,-63.1"/>
<g id="a_edge1&#45;headlabel"><a xlink:href="dir_000007_000005.html" target="_top" xlink:title="10">
<text text-anchor="middle" x="117.09" y="-63.18" font-family="Helvetica,sans-Serif" font-size="10.00">10</text>
</a>
</g>
</g>
<!-- dir_35b974b1bbf44ef7d950ecbcbdecc407&#45;&gt;dir_e15e4d6f467db1409d928a9a5394d3a8 -->
<g id="edge3" class="edge">
<title>dir_35b974b1bbf44ef7d950ecbcbdecc407&#45;&gt;dir_e15e4d6f467db1409d928a9a5394d3a8</title>
<path fill="none" stroke="black" d="M120.44,-159.7C122.84,-152.07 125.71,-142.92 128.39,-134.4"/>
<polygon fill="black" stroke="black" points="131.97,-135.69 131.62,-125.1 125.29,-133.59 131.97,-135.69"/>
<g id="a_edge3&#45;headlabel"><a xlink:href="dir_000007_000006.html" target="_top" xlink:title="9">
<text text-anchor="middle" x="133.6" y="-135.47" font-family="Helvetica,sans-Serif" font-size="10.00">9</text>
</a>
</g>
</g>
<!-- dir_b647303d7dac632cf2e2685370b563a8 -->
<g id="node7" class="node">
<title>dir_b647303d7dac632cf2e2685370b563a8</title>
<g id="a_node7"><a xlink:href="dir_b647303d7dac632cf2e2685370b563a8.html" target="_top" xlink:title="Utility">
<polygon fill="white" stroke="black" points="70,-196 16,-196 16,-160 70,-160 70,-196"/>
<text text-anchor="middle" x="43" y="-174.5" font-family="Helvetica,sans-Serif" font-size="10.00">Utility</text>
</a>
</g>
</g>
</g>
</svg>
