<?xml version="1.0" encoding="UTF-8" standalone="no"?>
<!DOCTYPE svg PUBLIC "-//W3C//DTD SVG 1.1//EN"
 "http://www.w3.org/Graphics/SVG/1.1/DTD/svg11.dtd">
<!-- Generated by graphviz version 2.43.0 (0)
 -->
<!-- Title: include/EngineException.h Pages: 1 -->
<svg width="1988pt" height="442pt"
 viewBox="0.00 0.00 1987.77 442.00" xmlns="http://www.w3.org/2000/svg" xmlns:xlink="http://www.w3.org/1999/xlink">
<g id="graph0" class="graph" transform="scale(1 1) rotate(0) translate(4 438)">
<title>include/EngineException.h</title>
<!-- Node1 -->
<g id="node1" class="node">
<title>Node1</title>
<g id="a_node1"><a xlink:title=" ">
<polygon fill="#bfbfbf" stroke="black" points="138.5,-414.5 138.5,-433.5 283.5,-433.5 283.5,-414.5 138.5,-414.5"/>
<text text-anchor="middle" x="211" y="-421.5" font-family="Helvetica,sans-Serif" font-size="10.00">include/EngineException.h</text>
</a>
</g>
</g>
<!-- Node2 -->
<g id="node2" class="node">
<title>Node2</title>
<g id="a_node2"><a xlink:href="Graphics_8h.html" target="_top" xlink:title=" ">
<polygon fill="none" stroke="black" points="253.5,-302.5 253.5,-321.5 360.5,-321.5 360.5,-302.5 253.5,-302.5"/>
<text text-anchor="middle" x="307" y="-309.5" font-family="Helvetica,sans-Serif" font-size="10.00">include/Graphics.h</text>
</a>
</g>
</g>
<!-- Node1&#45;&gt;Node2 -->
<g id="edge1" class="edge">
<title>Node1&#45;&gt;Node2</title>
<path fill="none" stroke="midnightblue" d="M234.32,-408.91C246.28,-400.89 260.51,-390.05 271,-378 286.42,-360.3 298.11,-334.91 303.58,-321.72"/>
<polygon fill="midnightblue" stroke="midnightblue" points="232.22,-406.1 225.71,-414.46 236.01,-411.98 232.22,-406.1"/>
</g>
<!-- Node7 -->
<g id="node7" class="node">
<title>Node7</title>
<g id="a_node7"><a xlink:href="MainWindow_8h.html" target="_top" xlink:title=" ">
<polygon fill="none" stroke="black" points="52,-246.5 52,-265.5 178,-265.5 178,-246.5 52,-246.5"/>
<text text-anchor="middle" x="115" y="-253.5" font-family="Helvetica,sans-Serif" font-size="10.00">include/MainWindow.h</text>
</a>
</g>
</g>
<!-- Node1&#45;&gt;Node7 -->
<g id="edge61" class="edge">
<title>Node1&#45;&gt;Node7</title>
<path fill="none" stroke="midnightblue" d="M185.61,-409.16C173.56,-401.43 159.89,-390.77 151,-378 125.58,-341.49 117.84,-286.8 115.72,-265.72"/>
<polygon fill="midnightblue" stroke="midnightblue" points="184.03,-412.3 194.4,-414.49 187.66,-406.31 184.03,-412.3"/>
</g>
<!-- Node29 -->
<g id="node29" class="node">
<title>Node29</title>
<g id="a_node29"><a xlink:href="Surface_8h.html" target="_top" xlink:title=" ">
<polygon fill="none" stroke="black" points="160.5,-358.5 160.5,-377.5 261.5,-377.5 261.5,-358.5 160.5,-358.5"/>
<text text-anchor="middle" x="211" y="-365.5" font-family="Helvetica,sans-Serif" font-size="10.00">include/Surface.h</text>
</a>
</g>
</g>
<!-- Node1&#45;&gt;Node29 -->
<g id="edge62" class="edge">
<title>Node1&#45;&gt;Node29</title>
<path fill="none" stroke="midnightblue" d="M211,-403.8C211,-394.91 211,-384.78 211,-377.75"/>
<polygon fill="midnightblue" stroke="midnightblue" points="207.5,-404.08 211,-414.08 214.5,-404.08 207.5,-404.08"/>
</g>
<!-- Node3 -->
<g id="node3" class="node">
<title>Node3</title>
<g id="a_node3"><a xlink:href="Engine_8h.html" target="_top" xlink:title=" ">
<polygon fill="none" stroke="black" points="162.5,-62 162.5,-81 259.5,-81 259.5,-62 162.5,-62"/>
<text text-anchor="middle" x="211" y="-69" font-family="Helvetica,sans-Serif" font-size="10.00">include/Engine.h</text>
</a>
</g>
</g>
<!-- Node2&#45;&gt;Node3 -->
<g id="edge2" class="edge">
<title>Node2&#45;&gt;Node3</title>
<path fill="none" stroke="midnightblue" d="M305.97,-292.3C304.03,-267.81 298.52,-223.97 283,-190 274.58,-171.56 266.08,-170.98 255,-154 238.48,-128.68 222.5,-96.6 215.17,-81.34"/>
<polygon fill="midnightblue" stroke="midnightblue" points="302.48,-292.63 306.65,-302.37 309.47,-292.16 302.48,-292.63"/>
</g>
<!-- Node6 -->
<g id="node6" class="node">
<title>Node6</title>
<g id="a_node6"><a xlink:href="MainWindow_8cpp.html" target="_top" xlink:title=" ">
<polygon fill="none" stroke="black" points="96,-0.5 96,-19.5 212,-19.5 212,-0.5 96,-0.5"/>
<text text-anchor="middle" x="154" y="-7.5" font-family="Helvetica,sans-Serif" font-size="10.00">src/MainWindow.cpp</text>
</a>
</g>
</g>
<!-- Node2&#45;&gt;Node6 -->
<g id="edge60" class="edge">
<title>Node2&#45;&gt;Node6</title>
<path fill="none" stroke="midnightblue" d="M300.28,-292.86C290.79,-268.38 272.01,-223.92 249,-190 214.04,-138.46 176.67,-145.01 154,-87 145.07,-64.14 149.12,-34.38 152,-19.81"/>
<polygon fill="midnightblue" stroke="midnightblue" points="297.05,-294.21 303.87,-302.32 303.6,-291.73 297.05,-294.21"/>
</g>
<!-- Node2&#45;&gt;Node7 -->
<g id="edge6" class="edge">
<title>Node2&#45;&gt;Node7</title>
<path fill="none" stroke="midnightblue" d="M266.82,-299.7C230.58,-289.51 178.09,-274.74 145.28,-265.52"/>
<polygon fill="midnightblue" stroke="midnightblue" points="266,-303.11 276.58,-302.44 267.9,-296.37 266,-303.11"/>
</g>
<!-- Node8 -->
<g id="node8" class="node">
<title>Node8</title>
<g id="a_node8"><a xlink:href="Graphics_8cpp.html" target="_top" xlink:title=" ">
<polygon fill="none" stroke="black" points="143.5,-190.5 143.5,-209.5 240.5,-209.5 240.5,-190.5 143.5,-190.5"/>
<text text-anchor="middle" x="192" y="-197.5" font-family="Helvetica,sans-Serif" font-size="10.00">src/Graphics.cpp</text>
</a>
</g>
</g>
<!-- Node2&#45;&gt;Node8 -->
<g id="edge59" class="edge">
<title>Node2&#45;&gt;Node8</title>
<path fill="none" stroke="midnightblue" d="M288.61,-295.76C278.5,-287.22 265.85,-276.25 255,-266 234.44,-246.57 211.65,-222.33 199.92,-209.65"/>
<polygon fill="midnightblue" stroke="midnightblue" points="286.49,-298.56 296.4,-302.3 290.99,-293.19 286.49,-298.56"/>
</g>
<!-- Node9 -->
<g id="node9" class="node">
<title>Node9</title>
<g id="a_node9"><a xlink:href="Pipeline_8h.html" target="_top" xlink:title=" ">
<polygon fill="none" stroke="black" points="863.5,-190.5 863.5,-209.5 966.5,-209.5 966.5,-190.5 863.5,-190.5"/>
<text text-anchor="middle" x="915" y="-197.5" font-family="Helvetica,sans-Serif" font-size="10.00">include/Pipeline.h</text>
</a>
</g>
</g>
<!-- Node2&#45;&gt;Node9 -->
<g id="edge11" class="edge">
<title>Node2&#45;&gt;Node9</title>
<path fill="none" stroke="midnightblue" d="M370.95,-310.87C460.31,-309.3 626.99,-301.32 764,-266 815.68,-252.68 872.43,-224.13 899.27,-209.72"/>
<polygon fill="midnightblue" stroke="midnightblue" points="370.65,-307.37 360.7,-311.02 370.75,-314.37 370.65,-307.37"/>
</g>
<!-- Node27 -->
<g id="node27" class="node">
<title>Node27</title>
<g id="a_node27"><a xlink:href="PubeScreenTransformer_8h.html" target="_top" xlink:title=" ">
<polygon fill="none" stroke="black" points="575.5,-246.5 575.5,-265.5 754.5,-265.5 754.5,-246.5 575.5,-246.5"/>
<text text-anchor="middle" x="665" y="-253.5" font-family="Helvetica,sans-Serif" font-size="10.00">include/PubeScreenTransformer.h</text>
</a>
</g>
</g>
<!-- Node2&#45;&gt;Node27 -->
<g id="edge46" class="edge">
<title>Node2&#45;&gt;Node27</title>
<path fill="none" stroke="midnightblue" d="M370.68,-301.4C438.15,-291.22 543.7,-275.3 608.37,-265.54"/>
<polygon fill="midnightblue" stroke="midnightblue" points="369.96,-297.96 360.6,-302.92 371.01,-304.88 369.96,-297.96"/>
</g>
<!-- Node28 -->
<g id="node28" class="node">
<title>Node28</title>
<g id="a_node28"><a xlink:href="Scene_8h.html" target="_top" xlink:title=" ">
<polygon fill="none" stroke="black" points="1070.5,-129 1070.5,-148 1163.5,-148 1163.5,-129 1070.5,-129"/>
<text text-anchor="middle" x="1117" y="-136" font-family="Helvetica,sans-Serif" font-size="10.00">include/Scene.h</text>
</a>
</g>
</g>
<!-- Node2&#45;&gt;Node28 -->
<g id="edge48" class="edge">
<title>Node2&#45;&gt;Node28</title>
<path fill="none" stroke="midnightblue" d="M348.61,-299.88C399.81,-286.35 489.5,-263.21 567,-246 694.3,-217.73 726.77,-213.67 855,-190 946.4,-173.13 970.16,-173.66 1061,-154 1069.05,-152.26 1077.69,-150.14 1085.71,-148.08"/>
<polygon fill="midnightblue" stroke="midnightblue" points="347.66,-296.5 338.89,-302.45 349.46,-303.27 347.66,-296.5"/>
</g>
<!-- Node4 -->
<g id="node4" class="node">
<title>Node4</title>
<g id="a_node4"><a xlink:href="Engine_8cpp.html" target="_top" xlink:title=" ">
<polygon fill="none" stroke="black" points="920.5,-0.5 920.5,-19.5 1007.5,-19.5 1007.5,-0.5 920.5,-0.5"/>
<text text-anchor="middle" x="964" y="-7.5" font-family="Helvetica,sans-Serif" font-size="10.00">src/Engine.cpp</text>
</a>
</g>
</g>
<!-- Node3&#45;&gt;Node4 -->
<g id="edge3" class="edge">
<title>Node3&#45;&gt;Node4</title>
<path fill="none" stroke="midnightblue" d="M253.36,-59.77C260.23,-58.31 267.29,-56.99 274,-56 516.3,-20.45 810.59,-12.98 920.15,-11.42"/>
<polygon fill="midnightblue" stroke="midnightblue" points="252.51,-56.37 243.51,-61.97 254.03,-63.21 252.51,-56.37"/>
</g>
<!-- Node5 -->
<g id="node5" class="node">
<title>Node5</title>
<g id="a_node5"><a xlink:href="Main_8cpp.html" target="_top" xlink:title=" ">
<polygon fill="none" stroke="black" points="0,-0.5 0,-19.5 78,-19.5 78,-0.5 0,-0.5"/>
<text text-anchor="middle" x="39" y="-7.5" font-family="Helvetica,sans-Serif" font-size="10.00">src/Main.cpp</text>
</a>
</g>
</g>
<!-- Node3&#45;&gt;Node5 -->
<g id="edge4" class="edge">
<title>Node3&#45;&gt;Node5</title>
<path fill="none" stroke="midnightblue" d="M176.55,-58.58C143.12,-47.02 93.21,-29.75 63.6,-19.51"/>
<polygon fill="midnightblue" stroke="midnightblue" points="175.76,-62.01 186.36,-61.98 178.05,-55.4 175.76,-62.01"/>
</g>
<!-- Node3&#45;&gt;Node6 -->
<g id="edge5" class="edge">
<title>Node3&#45;&gt;Node6</title>
<path fill="none" stroke="midnightblue" d="M195.67,-54.5C184.88,-43.24 170.86,-28.6 162.15,-19.51"/>
<polygon fill="midnightblue" stroke="midnightblue" points="193.39,-57.18 202.83,-61.98 198.44,-52.33 193.39,-57.18"/>
</g>
<!-- Node7&#45;&gt;Node4 -->
<g id="edge7" class="edge">
<title>Node7&#45;&gt;Node4</title>
<path fill="none" stroke="midnightblue" d="M117.59,-236.01C120.21,-222.24 125.3,-203.7 135,-190 142.23,-179.79 304.26,-60.33 316,-56 427.36,-14.93 793.71,-10.98 920.42,-10.87"/>
<polygon fill="midnightblue" stroke="midnightblue" points="114.08,-235.81 115.94,-246.24 120.99,-236.93 114.08,-235.81"/>
</g>
<!-- Node7&#45;&gt;Node5 -->
<g id="edge9" class="edge">
<title>Node7&#45;&gt;Node5</title>
<path fill="none" stroke="midnightblue" d="M106.27,-236.96C102.52,-228.83 98.26,-219.05 95,-210 69.05,-138.09 47.52,-48.08 41.01,-19.87"/>
<polygon fill="midnightblue" stroke="midnightblue" points="103.19,-238.64 110.63,-246.19 109.52,-235.65 103.19,-238.64"/>
</g>
<!-- Node7&#45;&gt;Node6 -->
<g id="edge10" class="edge">
<title>Node7&#45;&gt;Node6</title>
<path fill="none" stroke="midnightblue" d="M107.95,-236.74C105.19,-228.67 102.37,-219 101,-210 93.37,-159.79 94.95,-116.26 120,-56 125.86,-41.89 137.21,-28.27 145.17,-19.78"/>
<polygon fill="midnightblue" stroke="midnightblue" points="104.69,-238.02 111.4,-246.22 111.27,-235.63 104.69,-238.02"/>
</g>
<!-- Node7&#45;&gt;Node8 -->
<g id="edge8" class="edge">
<title>Node7&#45;&gt;Node8</title>
<path fill="none" stroke="midnightblue" d="M135.9,-240.34C149.91,-230.52 167.88,-217.91 179.66,-209.65"/>
<polygon fill="midnightblue" stroke="midnightblue" points="133.55,-237.72 127.37,-246.32 137.57,-243.45 133.55,-237.72"/>
</g>
<!-- Node10 -->
<g id="node10" class="node">
<title>Node10</title>
<g id="a_node10"><a xlink:href="GeometryFlatEffect_8h.html" target="_top" xlink:title=" ">
<polygon fill="none" stroke="black" points="692,-123.5 692,-153.5 832,-153.5 832,-123.5 692,-123.5"/>
<text text-anchor="start" x="700" y="-141.5" font-family="Helvetica,sans-Serif" font-size="10.00">include/Effects/Geometry</text>
<text text-anchor="middle" x="762" y="-130.5" font-family="Helvetica,sans-Serif" font-size="10.00">FlatEffect.h</text>
</a>
</g>
</g>
<!-- Node9&#45;&gt;Node10 -->
<g id="edge12" class="edge">
<title>Node9&#45;&gt;Node10</title>
<path fill="none" stroke="midnightblue" d="M883.75,-186.85C858.9,-177.18 824.09,-163.65 798.06,-153.52"/>
<polygon fill="midnightblue" stroke="midnightblue" points="882.49,-190.11 893.08,-190.48 885.03,-183.59 882.49,-190.11"/>
</g>
<!-- Node11 -->
<g id="node11" class="node">
<title>Node11</title>
<g id="a_node11"><a xlink:href="GeometryFlatScene_8h.html" target="_top" xlink:title=" ">
<polygon fill="none" stroke="black" points="714,-56.5 714,-86.5 874,-86.5 874,-56.5 714,-56.5"/>
<text text-anchor="start" x="722" y="-74.5" font-family="Helvetica,sans-Serif" font-size="10.00">include/Scenes/GeometryFlat</text>
<text text-anchor="middle" x="794" y="-63.5" font-family="Helvetica,sans-Serif" font-size="10.00">Scene.h</text>
</a>
</g>
</g>
<!-- Node9&#45;&gt;Node11 -->
<g id="edge45" class="edge">
<title>Node9&#45;&gt;Node11</title>
<path fill="none" stroke="midnightblue" d="M853.09,-195.66C791.82,-190.9 704.19,-179.7 683,-154 659.04,-124.95 706.58,-100.8 746.71,-86.51"/>
<polygon fill="midnightblue" stroke="midnightblue" points="853.21,-199.17 863.44,-196.42 853.72,-192.19 853.21,-199.17"/>
</g>
<!-- Node12 -->
<g id="node12" class="node">
<title>Node12</title>
<g id="a_node12"><a xlink:href="SolidEffect_8h.html" target="_top" xlink:title=" ">
<polygon fill="none" stroke="black" points="1220,-129 1220,-148 1372,-148 1372,-129 1220,-129"/>
<text text-anchor="middle" x="1296" y="-136" font-family="Helvetica,sans-Serif" font-size="10.00">include/Effects/SolidEffect.h</text>
</a>
</g>
</g>
<!-- Node9&#45;&gt;Node12 -->
<g id="edge15" class="edge">
<title>Node9&#45;&gt;Node12</title>
<path fill="none" stroke="midnightblue" d="M976.42,-189.62C1035.32,-180.59 1126.76,-166.51 1206,-154 1218.04,-152.1 1230.98,-150.03 1243.18,-148.07"/>
<polygon fill="midnightblue" stroke="midnightblue" points="975.88,-186.16 966.53,-191.13 976.94,-193.08 975.88,-186.16"/>
</g>
<!-- Node13 -->
<g id="node13" class="node">
<title>Node13</title>
<g id="a_node13"><a xlink:href="CubeSolidScene_8h.html" target="_top" xlink:title=" ">
<polygon fill="none" stroke="black" points="1052.5,-56.5 1052.5,-86.5 1193.5,-86.5 1193.5,-56.5 1052.5,-56.5"/>
<text text-anchor="start" x="1060.5" y="-74.5" font-family="Helvetica,sans-Serif" font-size="10.00">include/Scenes/CubeSolid</text>
<text text-anchor="middle" x="1123" y="-63.5" font-family="Helvetica,sans-Serif" font-size="10.00">Scene.h</text>
</a>
</g>
</g>
<!-- Node9&#45;&gt;Node13 -->
<g id="edge41" class="edge">
<title>Node9&#45;&gt;Node13</title>
<path fill="none" stroke="midnightblue" d="M976.93,-197.06C1045.14,-193.46 1148.44,-183.21 1173,-154 1191.16,-132.4 1163.15,-103.55 1142.28,-86.6"/>
<polygon fill="midnightblue" stroke="midnightblue" points="976.54,-193.57 966.72,-197.56 976.88,-200.57 976.54,-193.57"/>
</g>
<!-- Node14 -->
<g id="node14" class="node">
<title>Node14</title>
<g id="a_node14"><a xlink:href="DoubleCubeScene_8h.html" target="_top" xlink:title=" ">
<polygon fill="none" stroke="black" points="1212,-56.5 1212,-86.5 1364,-86.5 1364,-56.5 1212,-56.5"/>
<text text-anchor="start" x="1220" y="-74.5" font-family="Helvetica,sans-Serif" font-size="10.00">include/Scenes/DoubleCube</text>
<text text-anchor="middle" x="1288" y="-63.5" font-family="Helvetica,sans-Serif" font-size="10.00">Scene.h</text>
</a>
</g>
</g>
<!-- Node9&#45;&gt;Node14 -->
<g id="edge44" class="edge">
<title>Node9&#45;&gt;Node14</title>
<path fill="none" stroke="midnightblue" d="M977.11,-197.55C1097.75,-194.1 1354.35,-183.34 1381,-154 1404.6,-128.01 1360.12,-101.98 1324.89,-86.55"/>
<polygon fill="midnightblue" stroke="midnightblue" points="976.81,-194.06 966.92,-197.84 977.01,-201.06 976.81,-194.06"/>
</g>
<!-- Node15 -->
<g id="node15" class="node">
<title>Node15</title>
<g id="a_node15"><a xlink:href="SolidGeometryEffect_8h.html" target="_top" xlink:title=" ">
<polygon fill="none" stroke="black" points="888,-123.5 888,-153.5 1052,-153.5 1052,-123.5 888,-123.5"/>
<text text-anchor="start" x="896" y="-141.5" font-family="Helvetica,sans-Serif" font-size="10.00">include/Effects/SolidGeometry</text>
<text text-anchor="middle" x="970" y="-130.5" font-family="Helvetica,sans-Serif" font-size="10.00">Effect.h</text>
</a>
</g>
</g>
<!-- Node9&#45;&gt;Node15 -->
<g id="edge20" class="edge">
<title>Node9&#45;&gt;Node15</title>
<path fill="none" stroke="midnightblue" d="M929.71,-183.09C938.22,-173.88 948.84,-162.39 957.04,-153.52"/>
<polygon fill="midnightblue" stroke="midnightblue" points="927.1,-180.76 922.88,-190.48 932.24,-185.51 927.1,-180.76"/>
</g>
<!-- Node16 -->
<g id="node16" class="node">
<title>Node16</title>
<g id="a_node16"><a xlink:href="CubeSolidGeometryScene_8h.html" target="_top" xlink:title=" ">
<polygon fill="none" stroke="black" points="893.5,-56.5 893.5,-86.5 1034.5,-86.5 1034.5,-56.5 893.5,-56.5"/>
<text text-anchor="start" x="901.5" y="-74.5" font-family="Helvetica,sans-Serif" font-size="10.00">include/Scenes/CubeSolid</text>
<text text-anchor="middle" x="964" y="-63.5" font-family="Helvetica,sans-Serif" font-size="10.00">GeometryScene.h</text>
</a>
</g>
</g>
<!-- Node9&#45;&gt;Node16 -->
<g id="edge40" class="edge">
<title>Node9&#45;&gt;Node16</title>
<path fill="none" stroke="midnightblue" d="M898.3,-183.04C884.06,-167.42 867.56,-143.1 879,-123 888.51,-106.29 905.97,-94.54 922.6,-86.6"/>
<polygon fill="midnightblue" stroke="midnightblue" points="895.91,-185.61 905.38,-190.35 900.94,-180.74 895.91,-185.61"/>
</g>
<!-- Node17 -->
<g id="node17" class="node">
<title>Node17</title>
<g id="a_node17"><a xlink:href="TextureEffect_8h.html" target="_top" xlink:title=" ">
<polygon fill="none" stroke="black" points="1428,-129 1428,-148 1592,-148 1592,-129 1428,-129"/>
<text text-anchor="middle" x="1510" y="-136" font-family="Helvetica,sans-Serif" font-size="10.00">include/Effects/TextureEffect.h</text>
</a>
</g>
</g>
<!-- Node9&#45;&gt;Node17 -->
<g id="edge23" class="edge">
<title>Node9&#45;&gt;Node17</title>
<path fill="none" stroke="midnightblue" d="M977.07,-194.61C1071.56,-187.64 1257.1,-172.91 1414,-154 1428.06,-152.31 1443.23,-150.16 1457.26,-148.05"/>
<polygon fill="midnightblue" stroke="midnightblue" points="976.55,-191.13 966.83,-195.36 977.06,-198.12 976.55,-191.13"/>
</g>
<!-- Node18 -->
<g id="node18" class="node">
<title>Node18</title>
<g id="a_node18"><a xlink:href="CubeSkinScene_8h.html" target="_top" xlink:title=" ">
<polygon fill="none" stroke="black" points="1382,-62 1382,-81 1558,-81 1558,-62 1382,-62"/>
<text text-anchor="middle" x="1470" y="-69" font-family="Helvetica,sans-Serif" font-size="10.00">include/Scenes/CubeSkinScene.h</text>
</a>
</g>
</g>
<!-- Node9&#45;&gt;Node18 -->
<g id="edge39" class="edge">
<title>Node9&#45;&gt;Node18</title>
<path fill="none" stroke="midnightblue" d="M976.81,-199.64C1137.49,-200.68 1558.84,-199.02 1601,-154 1633.5,-119.3 1557.95,-93.54 1508.57,-81"/>
<polygon fill="midnightblue" stroke="midnightblue" points="976.63,-196.14 966.61,-199.57 976.58,-203.14 976.63,-196.14"/>
</g>
<!-- Node19 -->
<g id="node19" class="node">
<title>Node19</title>
<g id="a_node19"><a xlink:href="VertexColorEffect_8h.html" target="_top" xlink:title=" ">
<polygon fill="none" stroke="black" points="1815,-123.5 1815,-153.5 1963,-153.5 1963,-123.5 1815,-123.5"/>
<text text-anchor="start" x="1823" y="-141.5" font-family="Helvetica,sans-Serif" font-size="10.00">include/Effects/VertexColor</text>
<text text-anchor="middle" x="1889" y="-130.5" font-family="Helvetica,sans-Serif" font-size="10.00">Effect.h</text>
</a>
</g>
</g>
<!-- Node9&#45;&gt;Node19 -->
<g id="edge26" class="edge">
<title>Node9&#45;&gt;Node19</title>
<path fill="none" stroke="midnightblue" d="M976.96,-198.48C1122.25,-196.69 1495.98,-188.78 1806,-154 1808.91,-153.67 1811.87,-153.31 1814.85,-152.92"/>
<polygon fill="midnightblue" stroke="midnightblue" points="976.86,-194.98 966.9,-198.6 976.94,-201.98 976.86,-194.98"/>
</g>
<!-- Node20 -->
<g id="node20" class="node">
<title>Node20</title>
<g id="a_node20"><a xlink:href="CubeVertexColorScene_8h.html" target="_top" xlink:title=" ">
<polygon fill="none" stroke="black" points="1782.5,-56.5 1782.5,-86.5 1931.5,-86.5 1931.5,-56.5 1782.5,-56.5"/>
<text text-anchor="start" x="1790.5" y="-74.5" font-family="Helvetica,sans-Serif" font-size="10.00">include/Scenes/CubeVertex</text>
<text text-anchor="middle" x="1857" y="-63.5" font-family="Helvetica,sans-Serif" font-size="10.00">ColorScene.h</text>
</a>
</g>
</g>
<!-- Node9&#45;&gt;Node20 -->
<g id="edge42" class="edge">
<title>Node9&#45;&gt;Node20</title>
<path fill="none" stroke="midnightblue" d="M976.67,-198.7C1197.47,-197.34 1937.42,-190.08 1972,-154 1998.92,-125.91 1948.04,-101.27 1905.61,-86.64"/>
<polygon fill="midnightblue" stroke="midnightblue" points="976.53,-195.2 966.55,-198.76 976.57,-202.2 976.53,-195.2"/>
</g>
<!-- Node21 -->
<g id="node21" class="node">
<title>Node21</title>
<g id="a_node21"><a xlink:href="VertexFlatEffect_8h.html" target="_top" xlink:title=" ">
<polygon fill="none" stroke="black" points="276.5,-123.5 276.5,-153.5 417.5,-153.5 417.5,-123.5 276.5,-123.5"/>
<text text-anchor="start" x="284.5" y="-141.5" font-family="Helvetica,sans-Serif" font-size="10.00">include/Effects/VertexFlat</text>
<text text-anchor="middle" x="347" y="-130.5" font-family="Helvetica,sans-Serif" font-size="10.00">Effect.h</text>
</a>
</g>
</g>
<!-- Node9&#45;&gt;Node21 -->
<g id="edge29" class="edge">
<title>Node9&#45;&gt;Node21</title>
<path fill="none" stroke="midnightblue" d="M853.14,-194.75C761.1,-188.08 582.75,-173.85 432,-154 427.4,-153.39 422.67,-152.72 417.9,-152.01"/>
<polygon fill="midnightblue" stroke="midnightblue" points="853.16,-198.26 863.39,-195.49 853.67,-191.28 853.16,-198.26"/>
</g>
<!-- Node22 -->
<g id="node22" class="node">
<title>Node22</title>
<g id="a_node22"><a xlink:href="CubeFlatIndependentScene_8h.html" target="_top" xlink:title=" ">
<polygon fill="none" stroke="black" points="324.5,-56.5 324.5,-86.5 521.5,-86.5 521.5,-56.5 324.5,-56.5"/>
<text text-anchor="start" x="332.5" y="-74.5" font-family="Helvetica,sans-Serif" font-size="10.00">include/Scenes/CubeFlatIndependent</text>
<text text-anchor="middle" x="423" y="-63.5" font-family="Helvetica,sans-Serif" font-size="10.00">Scene.h</text>
</a>
</g>
</g>
<!-- Node9&#45;&gt;Node22 -->
<g id="edge38" class="edge">
<title>Node9&#45;&gt;Node22</title>
<path fill="none" stroke="midnightblue" d="M853.25,-199.38C699.19,-199.67 307.39,-196.23 268,-154 237.57,-121.38 292.96,-99.37 345.78,-86.54"/>
<polygon fill="midnightblue" stroke="midnightblue" points="853.49,-202.88 863.48,-199.35 853.47,-195.88 853.49,-202.88"/>
</g>
<!-- Node23 -->
<g id="node23" class="node">
<title>Node23</title>
<g id="a_node23"><a xlink:href="VertexPositionColorEffect_8h.html" target="_top" xlink:title=" ">
<polygon fill="none" stroke="black" points="474.5,-123.5 474.5,-153.5 635.5,-153.5 635.5,-123.5 474.5,-123.5"/>
<text text-anchor="start" x="482.5" y="-141.5" font-family="Helvetica,sans-Serif" font-size="10.00">include/Effects/VertexPosition</text>
<text text-anchor="middle" x="555" y="-130.5" font-family="Helvetica,sans-Serif" font-size="10.00">ColorEffect.h</text>
</a>
</g>
</g>
<!-- Node9&#45;&gt;Node23 -->
<g id="edge32" class="edge">
<title>Node9&#45;&gt;Node23</title>
<path fill="none" stroke="midnightblue" d="M853.32,-188.81C793.24,-178.88 701.57,-163.73 635.71,-152.84"/>
<polygon fill="midnightblue" stroke="midnightblue" points="852.98,-192.3 863.42,-190.48 854.13,-185.39 852.98,-192.3"/>
</g>
<!-- Node24 -->
<g id="node24" class="node">
<title>Node24</title>
<g id="a_node24"><a xlink:href="CubeVertexPositionColorScene_8h.html" target="_top" xlink:title=" ">
<polygon fill="none" stroke="black" points="544.5,-56.5 544.5,-86.5 693.5,-86.5 693.5,-56.5 544.5,-56.5"/>
<text text-anchor="start" x="552.5" y="-74.5" font-family="Helvetica,sans-Serif" font-size="10.00">include/Scenes/CubeVertex</text>
<text text-anchor="middle" x="619" y="-63.5" font-family="Helvetica,sans-Serif" font-size="10.00">PositionColorScene.h</text>
</a>
</g>
</g>
<!-- Node9&#45;&gt;Node24 -->
<g id="edge43" class="edge">
<title>Node9&#45;&gt;Node24</title>
<path fill="none" stroke="midnightblue" d="M853.05,-197.31C735.94,-193.48 491.48,-182.16 466,-154 436.12,-120.97 491.92,-98.89 544.33,-86.14"/>
<polygon fill="midnightblue" stroke="midnightblue" points="853.19,-200.82 863.3,-197.64 853.41,-193.82 853.19,-200.82"/>
</g>
<!-- Node25 -->
<g id="node25" class="node">
<title>Node25</title>
<g id="a_node25"><a xlink:href="WaveVertexTextureEffect_8h.html" target="_top" xlink:title=" ">
<polygon fill="none" stroke="black" points="1647.5,-123.5 1647.5,-153.5 1796.5,-153.5 1796.5,-123.5 1647.5,-123.5"/>
<text text-anchor="start" x="1655.5" y="-141.5" font-family="Helvetica,sans-Serif" font-size="10.00">include/Effects/WaveVertex</text>
<text text-anchor="middle" x="1722" y="-130.5" font-family="Helvetica,sans-Serif" font-size="10.00">TextureEffect.h</text>
</a>
</g>
</g>
<!-- Node9&#45;&gt;Node25 -->
<g id="edge35" class="edge">
<title>Node9&#45;&gt;Node25</title>
<path fill="none" stroke="midnightblue" d="M976.7,-197.23C1101.29,-193.21 1391.64,-181.48 1634,-154 1638.31,-153.51 1642.73,-152.96 1647.18,-152.36"/>
<polygon fill="midnightblue" stroke="midnightblue" points="976.48,-193.74 966.59,-197.56 976.7,-200.74 976.48,-193.74"/>
</g>
<!-- Node10&#45;&gt;Node11 -->
<g id="edge13" class="edge">
<title>Node10&#45;&gt;Node11</title>
<path fill="none" stroke="midnightblue" d="M773.43,-114.28C777.99,-105.02 783.09,-94.66 787.07,-86.58"/>
<polygon fill="midnightblue" stroke="midnightblue" points="770.22,-112.88 768.94,-123.4 776.5,-115.97 770.22,-112.88"/>
</g>
<!-- Node11&#45;&gt;Node4 -->
<g id="edge14" class="edge">
<title>Node11&#45;&gt;Node4</title>
<path fill="none" stroke="midnightblue" d="M843.75,-53.09C875.14,-42.1 914.33,-28.39 939.26,-19.66"/>
<polygon fill="midnightblue" stroke="midnightblue" points="842.57,-49.79 834.29,-56.4 844.88,-56.4 842.57,-49.79"/>
</g>
<!-- Node12&#45;&gt;Node13 -->
<g id="edge16" class="edge">
<title>Node12&#45;&gt;Node13</title>
<path fill="none" stroke="midnightblue" d="M1263.65,-125.35C1234.33,-114.33 1191.12,-98.09 1160.34,-86.53"/>
<polygon fill="midnightblue" stroke="midnightblue" points="1262.43,-128.63 1273.03,-128.87 1264.9,-122.07 1262.43,-128.63"/>
</g>
<!-- Node12&#45;&gt;Node14 -->
<g id="edge18" class="edge">
<title>Node12&#45;&gt;Node14</title>
<path fill="none" stroke="midnightblue" d="M1293.69,-118.74C1292.43,-108.49 1290.89,-96 1289.73,-86.59"/>
<polygon fill="midnightblue" stroke="midnightblue" points="1290.23,-119.24 1294.92,-128.73 1297.17,-118.38 1290.23,-119.24"/>
</g>
<!-- Node13&#45;&gt;Node4 -->
<g id="edge17" class="edge">
<title>Node13&#45;&gt;Node4</title>
<path fill="none" stroke="midnightblue" d="M1075.7,-52.8C1046.47,-41.86 1010.26,-28.31 987.14,-19.66"/>
<polygon fill="midnightblue" stroke="midnightblue" points="1074.73,-56.17 1085.32,-56.4 1077.18,-49.62 1074.73,-56.17"/>
</g>
<!-- Node14&#45;&gt;Node4 -->
<g id="edge19" class="edge">
<title>Node14&#45;&gt;Node4</title>
<path fill="none" stroke="midnightblue" d="M1201.75,-54.66C1139.14,-43.16 1057.04,-28.09 1007.53,-18.99"/>
<polygon fill="midnightblue" stroke="midnightblue" points="1201.16,-58.11 1211.63,-56.47 1202.42,-51.23 1201.16,-58.11"/>
</g>
<!-- Node15&#45;&gt;Node16 -->
<g id="edge21" class="edge">
<title>Node15&#45;&gt;Node16</title>
<path fill="none" stroke="midnightblue" d="M967.78,-113.4C966.94,-104.37 966.02,-94.41 965.3,-86.58"/>
<polygon fill="midnightblue" stroke="midnightblue" points="964.29,-113.76 968.7,-123.4 971.26,-113.12 964.29,-113.76"/>
</g>
<!-- Node16&#45;&gt;Node4 -->
<g id="edge22" class="edge">
<title>Node16&#45;&gt;Node4</title>
<path fill="none" stroke="midnightblue" d="M964,-46.29C964,-36.86 964,-26.65 964,-19.66"/>
<polygon fill="midnightblue" stroke="midnightblue" points="960.5,-46.4 964,-56.4 967.5,-46.4 960.5,-46.4"/>
</g>
<!-- Node17&#45;&gt;Node18 -->
<g id="edge24" class="edge">
<title>Node17&#45;&gt;Node18</title>
<path fill="none" stroke="midnightblue" d="M1499.25,-120.03C1491.51,-107.45 1481.39,-91.01 1475.31,-81.13"/>
<polygon fill="midnightblue" stroke="midnightblue" points="1496.38,-122.05 1504.61,-128.73 1502.35,-118.38 1496.38,-122.05"/>
</g>
<!-- Node18&#45;&gt;Node4 -->
<g id="edge25" class="edge">
<title>Node18&#45;&gt;Node4</title>
<path fill="none" stroke="midnightblue" d="M1405.76,-60.54C1394.84,-58.95 1383.6,-57.38 1373,-56 1240.17,-38.77 1082.51,-22.64 1007.65,-15.24"/>
<polygon fill="midnightblue" stroke="midnightblue" points="1405.27,-64 1415.67,-62 1406.29,-57.08 1405.27,-64"/>
</g>
<!-- Node19&#45;&gt;Node20 -->
<g id="edge27" class="edge">
<title>Node19&#45;&gt;Node20</title>
<path fill="none" stroke="midnightblue" d="M1877.57,-114.28C1873.01,-105.02 1867.91,-94.66 1863.93,-86.58"/>
<polygon fill="midnightblue" stroke="midnightblue" points="1874.5,-115.97 1882.06,-123.4 1880.78,-112.88 1874.5,-115.97"/>
</g>
<!-- Node20&#45;&gt;Node4 -->
<g id="edge28" class="edge">
<title>Node20&#45;&gt;Node4</title>
<path fill="none" stroke="midnightblue" d="M1771.94,-59.56C1760.21,-58.24 1748.32,-57.01 1737,-56 1459.84,-31.21 1125.49,-17.09 1007.66,-12.59"/>
<polygon fill="midnightblue" stroke="midnightblue" points="1771.85,-63.07 1782.18,-60.73 1772.64,-56.12 1771.85,-63.07"/>
</g>
<!-- Node21&#45;&gt;Node22 -->
<g id="edge30" class="edge">
<title>Node21&#45;&gt;Node22</title>
<path fill="none" stroke="midnightblue" d="M371.11,-116.88C382.66,-107.01 396.19,-95.43 406.54,-86.58"/>
<polygon fill="midnightblue" stroke="midnightblue" points="368.82,-114.24 363.49,-123.4 373.37,-119.56 368.82,-114.24"/>
</g>
<!-- Node22&#45;&gt;Node4 -->
<g id="edge31" class="edge">
<title>Node22&#45;&gt;Node4</title>
<path fill="none" stroke="midnightblue" d="M531.55,-56.52C533.04,-56.35 534.53,-56.17 536,-56 676.26,-39.63 842.7,-22.9 920.22,-15.27"/>
<polygon fill="midnightblue" stroke="midnightblue" points="531.1,-53.05 521.59,-57.71 531.93,-60 531.1,-53.05"/>
</g>
<!-- Node23&#45;&gt;Node24 -->
<g id="edge33" class="edge">
<title>Node23&#45;&gt;Node24</title>
<path fill="none" stroke="midnightblue" d="M576.15,-116.02C585.68,-106.34 596.67,-95.17 605.14,-86.58"/>
<polygon fill="midnightblue" stroke="midnightblue" points="573.41,-113.81 568.89,-123.4 578.4,-118.73 573.41,-113.81"/>
</g>
<!-- Node24&#45;&gt;Node4 -->
<g id="edge34" class="edge">
<title>Node24&#45;&gt;Node4</title>
<path fill="none" stroke="midnightblue" d="M703.78,-55.88C772.34,-44.05 866.08,-27.89 920.32,-18.53"/>
<polygon fill="midnightblue" stroke="midnightblue" points="703.12,-52.44 693.86,-57.59 704.31,-59.34 703.12,-52.44"/>
</g>
<!-- Node26 -->
<g id="node26" class="node">
<title>Node26</title>
<g id="a_node26"><a xlink:href="VertexWaveScene_8h.html" target="_top" xlink:title=" ">
<polygon fill="none" stroke="black" points="1576.5,-56.5 1576.5,-86.5 1727.5,-86.5 1727.5,-56.5 1576.5,-56.5"/>
<text text-anchor="start" x="1584.5" y="-74.5" font-family="Helvetica,sans-Serif" font-size="10.00">include/Scenes/VertexWave</text>
<text text-anchor="middle" x="1652" y="-63.5" font-family="Helvetica,sans-Serif" font-size="10.00">Scene.h</text>
</a>
</g>
</g>
<!-- Node25&#45;&gt;Node26 -->
<g id="edge36" class="edge">
<title>Node25&#45;&gt;Node26</title>
<path fill="none" stroke="midnightblue" d="M1699.18,-116.31C1688.68,-106.56 1676.51,-95.26 1667.16,-86.58"/>
<polygon fill="midnightblue" stroke="midnightblue" points="1697.1,-119.16 1706.81,-123.4 1701.86,-114.03 1697.1,-119.16"/>
</g>
<!-- Node26&#45;&gt;Node4 -->
<g id="edge37" class="edge">
<title>Node26&#45;&gt;Node4</title>
<path fill="none" stroke="midnightblue" d="M1565.82,-55.94C1350.52,-30.07 1105.6,-17.28 1007.65,-12.84"/>
<polygon fill="midnightblue" stroke="midnightblue" points="1565.7,-59.45 1576.05,-57.18 1566.55,-52.5 1565.7,-59.45"/>
</g>
<!-- Node27&#45;&gt;Node9 -->
<g id="edge47" class="edge">
<title>Node27&#45;&gt;Node9</title>
<path fill="none" stroke="midnightblue" d="M714.62,-244.28C761.87,-234.08 832.04,-218.92 875.57,-209.52"/>
<polygon fill="midnightblue" stroke="midnightblue" points="713.65,-240.91 704.61,-246.44 715.13,-247.75 713.65,-240.91"/>
</g>
<!-- Node28&#45;&gt;Node3 -->
<g id="edge49" class="edge">
<title>Node28&#45;&gt;Node3</title>
<path fill="none" stroke="midnightblue" d="M1078.94,-126.53C1072.98,-125.14 1066.85,-123.89 1061,-123 733.27,-73.19 646.07,-117.7 316,-87 297.49,-85.28 277.25,-82.66 259.51,-80.12"/>
<polygon fill="midnightblue" stroke="midnightblue" points="1078.2,-129.95 1088.75,-128.98 1079.89,-123.16 1078.2,-129.95"/>
</g>
<!-- Node28&#45;&gt;Node11 -->
<g id="edge57" class="edge">
<title>Node28&#45;&gt;Node11</title>
<path fill="none" stroke="midnightblue" d="M1075.51,-126.43C1070.63,-125.22 1065.71,-124.05 1061,-123 998.5,-109.02 927.21,-95.66 874.02,-86.2"/>
<polygon fill="midnightblue" stroke="midnightblue" points="1074.85,-129.87 1085.4,-128.93 1076.56,-123.08 1074.85,-129.87"/>
</g>
<!-- Node28&#45;&gt;Node13 -->
<g id="edge53" class="edge">
<title>Node28&#45;&gt;Node13</title>
<path fill="none" stroke="midnightblue" d="M1118.73,-118.74C1119.68,-108.49 1120.83,-96 1121.7,-86.59"/>
<polygon fill="midnightblue" stroke="midnightblue" points="1115.24,-118.45 1117.81,-128.73 1122.21,-119.1 1115.24,-118.45"/>
</g>
<!-- Node28&#45;&gt;Node14 -->
<g id="edge56" class="edge">
<title>Node28&#45;&gt;Node14</title>
<path fill="none" stroke="midnightblue" d="M1149.35,-125.2C1178.33,-114.19 1220.8,-98.04 1251.1,-86.53"/>
<polygon fill="midnightblue" stroke="midnightblue" points="1147.81,-122.04 1139.71,-128.87 1150.3,-128.59 1147.81,-122.04"/>
</g>
<!-- Node28&#45;&gt;Node16 -->
<g id="edge52" class="edge">
<title>Node28&#45;&gt;Node16</title>
<path fill="none" stroke="midnightblue" d="M1087.37,-124.91C1061.46,-113.91 1023.89,-97.94 997.02,-86.53"/>
<polygon fill="midnightblue" stroke="midnightblue" points="1086.11,-128.18 1096.68,-128.87 1088.85,-121.74 1086.11,-128.18"/>
</g>
<!-- Node28&#45;&gt;Node18 -->
<g id="edge51" class="edge">
<title>Node28&#45;&gt;Node18</title>
<path fill="none" stroke="midnightblue" d="M1173.39,-127.12C1242.77,-114.34 1359.26,-92.89 1423.67,-81.03"/>
<polygon fill="midnightblue" stroke="midnightblue" points="1172.71,-123.68 1163.51,-128.94 1173.98,-130.57 1172.71,-123.68"/>
</g>
<!-- Node28&#45;&gt;Node20 -->
<g id="edge54" class="edge">
<title>Node28&#45;&gt;Node20</title>
<path fill="none" stroke="midnightblue" d="M1173.84,-127.94C1186.08,-126.1 1198.95,-124.34 1211,-123 1443.89,-97.12 1503.72,-109.06 1737,-87 1751.73,-85.61 1767.45,-83.88 1782.49,-82.11"/>
<polygon fill="midnightblue" stroke="midnightblue" points="1173.11,-124.51 1163.75,-129.49 1174.17,-131.43 1173.11,-124.51"/>
</g>
<!-- Node28&#45;&gt;Node22 -->
<g id="edge50" class="edge">
<title>Node28&#45;&gt;Node22</title>
<path fill="none" stroke="midnightblue" d="M1078.11,-126.45C1072.41,-125.11 1066.58,-123.91 1061,-123 830.14,-85.53 768.76,-109.89 536,-87 531.28,-86.54 526.44,-86.03 521.57,-85.5"/>
<polygon fill="midnightblue" stroke="midnightblue" points="1077.6,-129.93 1088.15,-128.94 1079.29,-123.13 1077.6,-129.93"/>
</g>
<!-- Node28&#45;&gt;Node24 -->
<g id="edge55" class="edge">
<title>Node28&#45;&gt;Node24</title>
<path fill="none" stroke="midnightblue" d="M1077.7,-126.52C1072.12,-125.2 1066.44,-123.97 1061,-123 904.46,-94.99 862.61,-108.23 705,-87 701.25,-86.49 697.41,-85.95 693.54,-85.38"/>
<polygon fill="midnightblue" stroke="midnightblue" points="1076.99,-129.95 1087.54,-128.97 1078.69,-123.16 1076.99,-129.95"/>
</g>
<!-- Node28&#45;&gt;Node26 -->
<g id="edge58" class="edge">
<title>Node28&#45;&gt;Node26</title>
<path fill="none" stroke="midnightblue" d="M1173.88,-128.24C1186.11,-126.38 1198.97,-124.53 1211,-123 1368.75,-102.87 1409.42,-108.38 1567,-87 1570.12,-86.58 1573.29,-86.13 1576.5,-85.65"/>
<polygon fill="midnightblue" stroke="midnightblue" points="1173.14,-124.81 1163.79,-129.79 1174.21,-131.73 1173.14,-124.81"/>
</g>
<!-- Node29&#45;&gt;Node2 -->
<g id="edge63" class="edge">
<title>Node29&#45;&gt;Node2</title>
<path fill="none" stroke="midnightblue" d="M235.57,-353.18C253.24,-343.24 276.51,-330.15 291.61,-321.65"/>
<polygon fill="midnightblue" stroke="midnightblue" points="233.42,-350.37 226.42,-358.32 236.86,-356.47 233.42,-350.37"/>
</g>
<!-- Node30 -->
<g id="node30" class="node">
<title>Node30</title>
<g id="a_node30"><a xlink:href="Surface_8cpp.html" target="_top" xlink:title=" ">
<polygon fill="none" stroke="black" points="144.5,-302.5 144.5,-321.5 235.5,-321.5 235.5,-302.5 144.5,-302.5"/>
<text text-anchor="middle" x="190" y="-309.5" font-family="Helvetica,sans-Serif" font-size="10.00">src/Surface.cpp</text>
</a>
</g>
</g>
<!-- Node29&#45;&gt;Node30 -->
<g id="edge64" class="edge">
<title>Node29&#45;&gt;Node30</title>
<path fill="none" stroke="midnightblue" d="M203.88,-348.69C200.34,-339.59 196.23,-329.01 193.4,-321.75"/>
<polygon fill="midnightblue" stroke="midnightblue" points="200.65,-350.03 207.53,-358.08 207.17,-347.49 200.65,-350.03"/>
</g>
</g>
</svg>
