<?xml version="1.0" encoding="UTF-8" standalone="no"?>
<!DOCTYPE svg PUBLIC "-//W3C//DTD SVG 1.1//EN"
 "http://www.w3.org/Graphics/SVG/1.1/DTD/svg11.dtd">
<!-- Generated by graphviz version 2.43.0 (0)
 -->
<!-- Title: include/Scenes/GeometryFlatScene.h Pages: 1 -->
<svg width="1472pt" height="543pt"
 viewBox="0.00 0.00 1471.50 543.00" xmlns="http://www.w3.org/2000/svg" xmlns:xlink="http://www.w3.org/1999/xlink">
<g id="graph0" class="graph" transform="scale(1 1) rotate(0) translate(4 539)">
<title>include/Scenes/GeometryFlatScene.h</title>
<!-- Node1 -->
<g id="node1" class="node">
<title>Node1</title>
<g id="a_node1"><a xlink:title=" ">
<polygon fill="#bfbfbf" stroke="black" points="837,-504.5 837,-534.5 997,-534.5 997,-504.5 837,-504.5"/>
<text text-anchor="start" x="845" y="-522.5" font-family="Helvetica,sans-Serif" font-size="10.00">include/Scenes/GeometryFlat</text>
<text text-anchor="middle" x="917" y="-511.5" font-family="Helvetica,sans-Serif" font-size="10.00">Scene.h</text>
</a>
</g>
</g>
<!-- Node2 -->
<g id="node2" class="node">
<title>Node2</title>
<g id="a_node2"><a xlink:href="Scene_8h.html" target="_top" xlink:title=" ">
<polygon fill="none" stroke="black" points="420.5,-336.5 420.5,-355.5 475.5,-355.5 475.5,-336.5 420.5,-336.5"/>
<text text-anchor="middle" x="448" y="-343.5" font-family="Helvetica,sans-Serif" font-size="10.00">Scene.h</text>
</a>
</g>
</g>
<!-- Node1&#45;&gt;Node2 -->
<g id="edge1" class="edge">
<title>Node1&#45;&gt;Node2</title>
<path fill="none" stroke="midnightblue" d="M836.65,-518.89C727.99,-517.78 541.78,-509.63 490,-468 458.76,-442.88 450.69,-393.15 448.65,-365.92"/>
<polygon fill="midnightblue" stroke="midnightblue" points="452.14,-365.55 448.1,-355.76 445.15,-365.94 452.14,-365.55"/>
</g>
<!-- Node16 -->
<g id="node13" class="node">
<title>Node16</title>
<g id="a_node13"><a xlink:href="Matrix3_8h.html" target="_top" xlink:title=" ">
<polygon fill="none" stroke="black" points="362.5,-56.5 362.5,-75.5 425.5,-75.5 425.5,-56.5 362.5,-56.5"/>
<text text-anchor="middle" x="394" y="-63.5" font-family="Helvetica,sans-Serif" font-size="10.00">Matrix3.h</text>
</a>
</g>
</g>
<!-- Node1&#45;&gt;Node16 -->
<g id="edge66" class="edge">
<title>Node1&#45;&gt;Node16</title>
<path fill="none" stroke="midnightblue" d="M917,-504.28C917,-482.48 917,-439.49 917,-403 917,-403 917,-403 917,-177 917,-146.9 921.3,-131.05 898,-112 861.31,-82 520.16,-80.68 473,-76 460.89,-74.8 447.75,-73.36 435.72,-71.98"/>
<polygon fill="midnightblue" stroke="midnightblue" points="435.84,-68.47 425.5,-70.8 435.03,-75.43 435.84,-68.47"/>
</g>
<!-- Node36 -->
<g id="node33" class="node">
<title>Node36</title>
<g id="a_node33"><a xlink:href="Cube_8h.html" target="_top" xlink:title=" ">
<polygon fill="none" stroke="black" points="282.5,-280.5 282.5,-299.5 385.5,-299.5 385.5,-280.5 282.5,-280.5"/>
<text text-anchor="middle" x="334" y="-287.5" font-family="Helvetica,sans-Serif" font-size="10.00">Primitives/Cube.h</text>
</a>
</g>
</g>
<!-- Node1&#45;&gt;Node36 -->
<g id="edge49" class="edge">
<title>Node1&#45;&gt;Node36</title>
<path fill="none" stroke="midnightblue" d="M886.73,-504.41C816.79,-472.14 638.11,-391.41 484,-336 447.91,-323.02 406.05,-310.69 375.74,-302.22"/>
<polygon fill="midnightblue" stroke="midnightblue" points="376.5,-298.8 365.93,-299.5 374.63,-305.55 376.5,-298.8"/>
</g>
<!-- Node48 -->
<g id="node44" class="node">
<title>Node48</title>
<g id="a_node44"><a xlink:href="Pipeline_8h.html" target="_top" xlink:title=" ">
<polygon fill="none" stroke="black" points="945.5,-392.5 945.5,-411.5 1010.5,-411.5 1010.5,-392.5 945.5,-392.5"/>
<text text-anchor="middle" x="978" y="-399.5" font-family="Helvetica,sans-Serif" font-size="10.00">Pipeline.h</text>
</a>
</g>
</g>
<!-- Node1&#45;&gt;Node48 -->
<g id="edge67" class="edge">
<title>Node1&#45;&gt;Node48</title>
<path fill="none" stroke="midnightblue" d="M924.48,-504.34C935.62,-483.24 956.56,-443.6 968.68,-420.65"/>
<polygon fill="midnightblue" stroke="midnightblue" points="971.85,-422.15 973.42,-411.67 965.66,-418.88 971.85,-422.15"/>
</g>
<!-- Node52 -->
<g id="node48" class="node">
<title>Node52</title>
<g id="a_node48"><a xlink:href="GeometryFlatEffect_8h.html" target="_top" xlink:title=" ">
<polygon fill="none" stroke="black" points="1014.5,-448.5 1014.5,-467.5 1171.5,-467.5 1171.5,-448.5 1014.5,-448.5"/>
<text text-anchor="middle" x="1093" y="-455.5" font-family="Helvetica,sans-Serif" font-size="10.00">Effects/GeometryFlatEffect.h</text>
</a>
</g>
</g>
<!-- Node1&#45;&gt;Node52 -->
<g id="edge80" class="edge">
<title>Node1&#45;&gt;Node52</title>
<path fill="none" stroke="midnightblue" d="M958.71,-504.4C988.99,-494.16 1029.49,-480.47 1058.07,-470.81"/>
<polygon fill="midnightblue" stroke="midnightblue" points="1059.3,-474.09 1067.65,-467.57 1057.05,-467.46 1059.3,-474.09"/>
</g>
<!-- Node3 -->
<g id="node3" class="node">
<title>Node3</title>
<g id="a_node3"><a xlink:href="Keyboard_8h.html" target="_top" xlink:title=" ">
<polygon fill="none" stroke="black" points="76.5,-280.5 76.5,-299.5 147.5,-299.5 147.5,-280.5 76.5,-280.5"/>
<text text-anchor="middle" x="112" y="-287.5" font-family="Helvetica,sans-Serif" font-size="10.00">Keyboard.h</text>
</a>
</g>
</g>
<!-- Node2&#45;&gt;Node3 -->
<g id="edge2" class="edge">
<title>Node2&#45;&gt;Node3</title>
<path fill="none" stroke="midnightblue" d="M420.22,-340.54C362.3,-331.23 228.17,-309.67 157.48,-298.31"/>
<polygon fill="midnightblue" stroke="midnightblue" points="157.95,-294.84 147.52,-296.71 156.84,-301.75 157.95,-294.84"/>
</g>
<!-- Node6 -->
<g id="node6" class="node">
<title>Node6</title>
<g id="a_node6"><a xlink:href="Mouse_8h.html" target="_top" xlink:title=" ">
<polygon fill="none" stroke="black" points="0,-280.5 0,-299.5 58,-299.5 58,-280.5 0,-280.5"/>
<text text-anchor="middle" x="29" y="-287.5" font-family="Helvetica,sans-Serif" font-size="10.00">Mouse.h</text>
</a>
</g>
</g>
<!-- Node2&#45;&gt;Node6 -->
<g id="edge5" class="edge">
<title>Node2&#45;&gt;Node6</title>
<path fill="none" stroke="midnightblue" d="M420.11,-342.81C358.41,-337.74 205.56,-323.87 68.25,-300.05"/>
<polygon fill="midnightblue" stroke="midnightblue" points="68.84,-296.6 58.39,-298.31 67.63,-303.49 68.84,-296.6"/>
</g>
<!-- Node20 -->
<g id="node17" class="node">
<title>Node20</title>
<g id="a_node17"><a xlink:href="Graphics_8h.html" target="_top" xlink:title=" ">
<polygon fill="none" stroke="black" points="648,-280.5 648,-299.5 716,-299.5 716,-280.5 648,-280.5"/>
<text text-anchor="middle" x="682" y="-287.5" font-family="Helvetica,sans-Serif" font-size="10.00">Graphics.h</text>
</a>
</g>
</g>
<!-- Node2&#45;&gt;Node20 -->
<g id="edge22" class="edge">
<title>Node2&#45;&gt;Node20</title>
<path fill="none" stroke="midnightblue" d="M475.76,-338.59C515.8,-329.35 590.17,-312.19 637.81,-301.2"/>
<polygon fill="midnightblue" stroke="midnightblue" points="638.88,-304.54 647.84,-298.88 637.31,-297.72 638.88,-304.54"/>
</g>
<!-- Node22 -->
<g id="node19" class="node">
<title>Node22</title>
<g id="a_node19"><a xlink:title=" ">
<polygon fill="none" stroke="#bfbfbf" points="845,-112.5 845,-131.5 889,-131.5 889,-112.5 845,-112.5"/>
<text text-anchor="middle" x="867" y="-119.5" font-family="Helvetica,sans-Serif" font-size="10.00">string</text>
</a>
</g>
</g>
<!-- Node2&#45;&gt;Node22 -->
<g id="edge48" class="edge">
<title>Node2&#45;&gt;Node22</title>
<path fill="none" stroke="midnightblue" d="M475.8,-343.33C526.47,-339.68 636.78,-328.84 725,-300 777.14,-282.95 797.51,-284.05 835,-244 861.52,-215.67 866.61,-167.99 867.27,-141.74"/>
<polygon fill="midnightblue" stroke="midnightblue" points="870.77,-141.64 867.32,-131.62 863.77,-141.6 870.77,-141.64"/>
</g>
<!-- Node4 -->
<g id="node4" class="node">
<title>Node4</title>
<g id="a_node4"><a xlink:title=" ">
<polygon fill="none" stroke="#bfbfbf" points="81,-224.5 81,-243.5 125,-243.5 125,-224.5 81,-224.5"/>
<text text-anchor="middle" x="103" y="-231.5" font-family="Helvetica,sans-Serif" font-size="10.00">bitset</text>
</a>
</g>
</g>
<!-- Node3&#45;&gt;Node4 -->
<g id="edge3" class="edge">
<title>Node3&#45;&gt;Node4</title>
<path fill="none" stroke="midnightblue" d="M110.51,-280.08C109.32,-272.93 107.61,-262.64 106.12,-253.69"/>
<polygon fill="midnightblue" stroke="midnightblue" points="109.55,-253.04 104.46,-243.75 102.65,-254.19 109.55,-253.04"/>
</g>
<!-- Node5 -->
<g id="node5" class="node">
<title>Node5</title>
<g id="a_node5"><a xlink:title=" ">
<polygon fill="none" stroke="#bfbfbf" points="15.5,-224.5 15.5,-243.5 62.5,-243.5 62.5,-224.5 15.5,-224.5"/>
<text text-anchor="middle" x="39" y="-231.5" font-family="Helvetica,sans-Serif" font-size="10.00">queue</text>
</a>
</g>
</g>
<!-- Node3&#45;&gt;Node5 -->
<g id="edge4" class="edge">
<title>Node3&#45;&gt;Node5</title>
<path fill="none" stroke="midnightblue" d="M100.27,-280.32C89.16,-272.11 72.26,-259.6 59.02,-249.81"/>
<polygon fill="midnightblue" stroke="midnightblue" points="61.06,-246.97 50.94,-243.83 56.9,-252.59 61.06,-246.97"/>
</g>
<!-- Node6&#45;&gt;Node5 -->
<g id="edge21" class="edge">
<title>Node6&#45;&gt;Node5</title>
<path fill="none" stroke="midnightblue" d="M30.65,-280.08C31.98,-272.93 33.88,-262.64 35.54,-253.69"/>
<polygon fill="midnightblue" stroke="midnightblue" points="39,-254.22 37.38,-243.75 32.12,-252.95 39,-254.22"/>
</g>
<!-- Node7 -->
<g id="node7" class="node">
<title>Node7</title>
<g id="a_node7"><a xlink:href="Vector2_8h.html" target="_top" xlink:title=" ">
<polygon fill="none" stroke="black" points="86.5,-112.5 86.5,-131.5 219.5,-131.5 219.5,-112.5 86.5,-112.5"/>
<text text-anchor="middle" x="153" y="-119.5" font-family="Helvetica,sans-Serif" font-size="10.00">LinearAlgebra/Vector2.h</text>
</a>
</g>
</g>
<!-- Node6&#45;&gt;Node7 -->
<g id="edge6" class="edge">
<title>Node6&#45;&gt;Node7</title>
<path fill="none" stroke="midnightblue" d="M21.47,-280.26C11.41,-267.46 -4.03,-243.07 6,-224 29.59,-179.17 83.08,-150.38 118.6,-135.45"/>
<polygon fill="midnightblue" stroke="midnightblue" points="120.15,-138.6 128.11,-131.6 117.53,-132.11 120.15,-138.6"/>
</g>
<!-- Node8 -->
<g id="node8" class="node">
<title>Node8</title>
<g id="a_node8"><a xlink:href="Math_8h.html" target="_top" xlink:title=" ">
<polygon fill="none" stroke="red" points="482,-56.5 482,-75.5 532,-75.5 532,-56.5 482,-56.5"/>
<text text-anchor="middle" x="507" y="-63.5" font-family="Helvetica,sans-Serif" font-size="10.00">Math.h</text>
</a>
</g>
</g>
<!-- Node7&#45;&gt;Node8 -->
<g id="edge7" class="edge">
<title>Node7&#45;&gt;Node8</title>
<path fill="none" stroke="midnightblue" d="M209.09,-112.44C282.81,-101.2 410.13,-81.78 471.67,-72.39"/>
<polygon fill="midnightblue" stroke="midnightblue" points="472.31,-75.83 481.67,-70.86 471.25,-68.91 472.31,-75.83"/>
</g>
<!-- Node14 -->
<g id="node11" class="node">
<title>Node14</title>
<g id="a_node11"><a xlink:href="Matrix2_8h.html" target="_top" xlink:title=" ">
<polygon fill="none" stroke="black" points="50.5,-56.5 50.5,-75.5 113.5,-75.5 113.5,-56.5 50.5,-56.5"/>
<text text-anchor="middle" x="82" y="-63.5" font-family="Helvetica,sans-Serif" font-size="10.00">Matrix2.h</text>
</a>
</g>
</g>
<!-- Node7&#45;&gt;Node14 -->
<g id="edge10" class="edge">
<title>Node7&#45;&gt;Node14</title>
<path fill="none" stroke="midnightblue" d="M141.59,-112.32C130.89,-104.18 114.66,-91.84 101.84,-82.09"/>
<polygon fill="midnightblue" stroke="midnightblue" points="103.69,-79.1 93.61,-75.83 99.46,-84.67 103.69,-79.1"/>
</g>
<!-- Node15 -->
<g id="node12" class="node">
<title>Node15</title>
<g id="a_node12"><a xlink:title=" ">
<polygon fill="none" stroke="#bfbfbf" points="144,-0.5 144,-19.5 204,-19.5 204,-0.5 144,-0.5"/>
<text text-anchor="middle" x="174" y="-7.5" font-family="Helvetica,sans-Serif" font-size="10.00">iostream</text>
</a>
</g>
</g>
<!-- Node7&#45;&gt;Node15 -->
<g id="edge20" class="edge">
<title>Node7&#45;&gt;Node15</title>
<path fill="none" stroke="midnightblue" d="M107.6,-112.5C68.11,-102.97 20.23,-84.95 41,-56 61.94,-26.82 102.83,-16.32 133.77,-12.67"/>
<polygon fill="midnightblue" stroke="midnightblue" points="134.24,-16.14 143.84,-11.67 133.55,-9.17 134.24,-16.14"/>
</g>
<!-- Node7&#45;&gt;Node16 -->
<g id="edge12" class="edge">
<title>Node7&#45;&gt;Node16</title>
<path fill="none" stroke="midnightblue" d="M191.19,-112.44C235.12,-102.6 307,-86.49 352.34,-76.33"/>
<polygon fill="midnightblue" stroke="midnightblue" points="353.16,-79.74 362.15,-74.14 351.63,-72.91 353.16,-79.74"/>
</g>
<!-- Node17 -->
<g id="node14" class="node">
<title>Node17</title>
<g id="a_node14"><a xlink:title=" ">
<polygon fill="none" stroke="#bfbfbf" points="310,-0.5 310,-19.5 352,-19.5 352,-0.5 310,-0.5"/>
<text text-anchor="middle" x="331" y="-7.5" font-family="Helvetica,sans-Serif" font-size="10.00">array</text>
</a>
</g>
</g>
<!-- Node7&#45;&gt;Node17 -->
<g id="edge17" class="edge">
<title>Node7&#45;&gt;Node17</title>
<path fill="none" stroke="midnightblue" d="M152.08,-112.14C151.16,-98.29 151.55,-71.48 166,-56 200.48,-19.06 262.05,-11.35 299.44,-10.33"/>
<polygon fill="midnightblue" stroke="midnightblue" points="299.8,-13.82 309.76,-10.2 299.72,-6.82 299.8,-13.82"/>
</g>
<!-- Node18 -->
<g id="node15" class="node">
<title>Node18</title>
<g id="a_node15"><a xlink:title=" ">
<polygon fill="none" stroke="#bfbfbf" points="370.5,-0.5 370.5,-19.5 423.5,-19.5 423.5,-0.5 370.5,-0.5"/>
<text text-anchor="middle" x="397" y="-7.5" font-family="Helvetica,sans-Serif" font-size="10.00">cstddef</text>
</a>
</g>
</g>
<!-- Node7&#45;&gt;Node18 -->
<g id="edge19" class="edge">
<title>Node7&#45;&gt;Node18</title>
<path fill="none" stroke="midnightblue" d="M156.63,-112.27C163.01,-98.1 177.59,-70.24 199,-56 257.78,-16.92 286.68,-35.19 360.12,-20.02"/>
<polygon fill="midnightblue" stroke="midnightblue" points="361.28,-23.34 370.28,-17.76 359.76,-16.51 361.28,-23.34"/>
</g>
<!-- Node19 -->
<g id="node16" class="node">
<title>Node19</title>
<g id="a_node16"><a xlink:title=" ">
<polygon fill="none" stroke="#bfbfbf" points="208.5,-56.5 208.5,-75.5 267.5,-75.5 267.5,-56.5 208.5,-56.5"/>
<text text-anchor="middle" x="238" y="-63.5" font-family="Helvetica,sans-Serif" font-size="10.00">compare</text>
</a>
</g>
</g>
<!-- Node7&#45;&gt;Node19 -->
<g id="edge18" class="edge">
<title>Node7&#45;&gt;Node19</title>
<path fill="none" stroke="midnightblue" d="M166.66,-112.32C179.92,-103.9 200.27,-90.97 215.85,-81.07"/>
<polygon fill="midnightblue" stroke="midnightblue" points="217.81,-83.97 224.38,-75.65 214.06,-78.06 217.81,-83.97"/>
</g>
<!-- Node10 -->
<g id="node9" class="node">
<title>Node10</title>
<g id="a_node9"><a xlink:title=" ">
<polygon fill="none" stroke="#bfbfbf" points="461.5,-0.5 461.5,-19.5 508.5,-19.5 508.5,-0.5 461.5,-0.5"/>
<text text-anchor="middle" x="485" y="-7.5" font-family="Helvetica,sans-Serif" font-size="10.00">cmath</text>
</a>
</g>
</g>
<!-- Node8&#45;&gt;Node10 -->
<g id="edge8" class="edge">
<title>Node8&#45;&gt;Node10</title>
<path fill="none" stroke="midnightblue" d="M503.37,-56.08C500.39,-48.77 496.07,-38.18 492.38,-29.1"/>
<polygon fill="midnightblue" stroke="midnightblue" points="495.58,-27.69 488.57,-19.75 489.1,-30.33 495.58,-27.69"/>
</g>
<!-- Node11 -->
<g id="node10" class="node">
<title>Node11</title>
<g id="a_node10"><a xlink:title=" ">
<polygon fill="none" stroke="#bfbfbf" points="1343,-0.5 1343,-19.5 1387,-19.5 1387,-0.5 1343,-0.5"/>
<text text-anchor="middle" x="1365" y="-7.5" font-family="Helvetica,sans-Serif" font-size="10.00">limits</text>
</a>
</g>
</g>
<!-- Node8&#45;&gt;Node11 -->
<g id="edge9" class="edge">
<title>Node8&#45;&gt;Node11</title>
<path fill="none" stroke="midnightblue" d="M532.21,-63.41C655.38,-55.66 1193.42,-21.8 1332.23,-13.06"/>
<polygon fill="midnightblue" stroke="midnightblue" points="1332.85,-16.53 1342.61,-12.41 1332.41,-9.54 1332.85,-16.53"/>
</g>
<!-- Node14&#45;&gt;Node15 -->
<g id="edge11" class="edge">
<title>Node14&#45;&gt;Node15</title>
<path fill="none" stroke="midnightblue" d="M96.78,-56.32C111.27,-47.82 133.57,-34.73 150.49,-24.8"/>
<polygon fill="midnightblue" stroke="midnightblue" points="152.4,-27.74 159.26,-19.65 148.86,-21.7 152.4,-27.74"/>
</g>
<!-- Node16&#45;&gt;Node10 -->
<g id="edge14" class="edge">
<title>Node16&#45;&gt;Node10</title>
<path fill="none" stroke="midnightblue" d="M408.62,-56.32C422.95,-47.82 445.01,-34.73 461.75,-24.8"/>
<polygon fill="midnightblue" stroke="midnightblue" points="463.6,-27.77 470.42,-19.65 460.03,-21.75 463.6,-27.77"/>
</g>
<!-- Node16&#45;&gt;Node15 -->
<g id="edge16" class="edge">
<title>Node16&#45;&gt;Node15</title>
<path fill="none" stroke="midnightblue" d="M362.48,-57.26C323.32,-47.65 256.48,-31.24 213.82,-20.77"/>
<polygon fill="midnightblue" stroke="midnightblue" points="214.6,-17.36 204.05,-18.38 212.93,-24.16 214.6,-17.36"/>
</g>
<!-- Node16&#45;&gt;Node17 -->
<g id="edge13" class="edge">
<title>Node16&#45;&gt;Node17</title>
<path fill="none" stroke="midnightblue" d="M383.88,-56.32C374.47,-48.26 360.26,-36.08 348.93,-26.37"/>
<polygon fill="midnightblue" stroke="midnightblue" points="351.18,-23.68 341.31,-19.83 346.62,-29 351.18,-23.68"/>
</g>
<!-- Node16&#45;&gt;Node18 -->
<g id="edge15" class="edge">
<title>Node16&#45;&gt;Node18</title>
<path fill="none" stroke="midnightblue" d="M394.5,-56.08C394.89,-49.01 395.45,-38.86 395.95,-29.99"/>
<polygon fill="midnightblue" stroke="midnightblue" points="399.45,-29.93 396.51,-19.75 392.46,-29.54 399.45,-29.93"/>
</g>
<!-- Node21 -->
<g id="node18" class="node">
<title>Node21</title>
<g id="a_node18"><a xlink:href="EngineException_8h.html" target="_top" xlink:title=" ">
<polygon fill="none" stroke="black" points="743.5,-168.5 743.5,-187.5 850.5,-187.5 850.5,-168.5 743.5,-168.5"/>
<text text-anchor="middle" x="797" y="-175.5" font-family="Helvetica,sans-Serif" font-size="10.00">EngineException.h</text>
</a>
</g>
</g>
<!-- Node20&#45;&gt;Node21 -->
<g id="edge23" class="edge">
<title>Node20&#45;&gt;Node21</title>
<path fill="none" stroke="midnightblue" d="M716.11,-288.29C748.28,-285.59 794.92,-275.95 818,-244 828.37,-229.65 819.5,-209.93 810.31,-195.98"/>
<polygon fill="midnightblue" stroke="midnightblue" points="813.09,-193.86 804.42,-187.77 807.4,-197.93 813.09,-193.86"/>
</g>
<!-- Node24 -->
<g id="node21" class="node">
<title>Node24</title>
<g id="a_node21"><a xlink:href="Vector3_8h.html" target="_top" xlink:title=" ">
<polygon fill="none" stroke="black" points="256.5,-112.5 256.5,-131.5 389.5,-131.5 389.5,-112.5 256.5,-112.5"/>
<text text-anchor="middle" x="323" y="-119.5" font-family="Helvetica,sans-Serif" font-size="10.00">LinearAlgebra/Vector3.h</text>
</a>
</g>
</g>
<!-- Node20&#45;&gt;Node24 -->
<g id="edge26" class="edge">
<title>Node20&#45;&gt;Node24</title>
<path fill="none" stroke="midnightblue" d="M647.72,-285.81C559.43,-276.8 328.16,-247.8 286,-188 274.57,-171.79 289.95,-151.79 304.21,-138.29"/>
<polygon fill="midnightblue" stroke="midnightblue" points="306.68,-140.77 311.85,-131.52 302.04,-135.54 306.68,-140.77"/>
</g>
<!-- Node25 -->
<g id="node22" class="node">
<title>Node25</title>
<g id="a_node22"><a xlink:href="GDIPlusManager_8h.html" target="_top" xlink:title=" ">
<polygon fill="none" stroke="black" points="570,-224.5 570,-243.5 676,-243.5 676,-224.5 570,-224.5"/>
<text text-anchor="middle" x="623" y="-231.5" font-family="Helvetica,sans-Serif" font-size="10.00">GDIPlusManager.h</text>
</a>
</g>
</g>
<!-- Node20&#45;&gt;Node25 -->
<g id="edge33" class="edge">
<title>Node20&#45;&gt;Node25</title>
<path fill="none" stroke="midnightblue" d="M672.52,-280.32C663.8,-272.34 650.66,-260.31 640.1,-250.65"/>
<polygon fill="midnightblue" stroke="midnightblue" points="642.39,-248 632.65,-243.83 637.67,-253.17 642.39,-248"/>
</g>
<!-- Node29 -->
<g id="node26" class="node">
<title>Node29</title>
<g id="a_node26"><a xlink:href="Surface_8h.html" target="_top" xlink:title=" ">
<polygon fill="none" stroke="black" points="452,-224.5 452,-243.5 514,-243.5 514,-224.5 452,-224.5"/>
<text text-anchor="middle" x="483" y="-231.5" font-family="Helvetica,sans-Serif" font-size="10.00">Surface.h</text>
</a>
</g>
</g>
<!-- Node20&#45;&gt;Node29 -->
<g id="edge37" class="edge">
<title>Node20&#45;&gt;Node29</title>
<path fill="none" stroke="midnightblue" d="M650.47,-280.44C616.31,-271.17 561.67,-256.35 524.15,-246.17"/>
<polygon fill="midnightblue" stroke="midnightblue" points="524.62,-242.67 514.06,-243.43 522.79,-249.42 524.62,-242.67"/>
</g>
<!-- Node34 -->
<g id="node31" class="node">
<title>Node34</title>
<g id="a_node31"><a xlink:title=" ">
<polygon fill="none" stroke="#bfbfbf" points="694,-224.5 694,-243.5 750,-243.5 750,-224.5 694,-224.5"/>
<text text-anchor="middle" x="722" y="-231.5" font-family="Helvetica,sans-Serif" font-size="10.00">d3d11.h</text>
</a>
</g>
</g>
<!-- Node20&#45;&gt;Node34 -->
<g id="edge46" class="edge">
<title>Node20&#45;&gt;Node34</title>
<path fill="none" stroke="midnightblue" d="M688.61,-280.08C694.26,-272.46 702.54,-261.26 709.45,-251.94"/>
<polygon fill="midnightblue" stroke="midnightblue" points="712.38,-253.87 715.52,-243.75 706.75,-249.7 712.38,-253.87"/>
</g>
<!-- Node35 -->
<g id="node32" class="node">
<title>Node35</title>
<g id="a_node32"><a xlink:title=" ">
<polygon fill="none" stroke="#bfbfbf" points="768.5,-224.5 768.5,-243.5 809.5,-243.5 809.5,-224.5 768.5,-224.5"/>
<text text-anchor="middle" x="789" y="-231.5" font-family="Helvetica,sans-Serif" font-size="10.00">wrl.h</text>
</a>
</g>
</g>
<!-- Node20&#45;&gt;Node35 -->
<g id="edge47" class="edge">
<title>Node20&#45;&gt;Node35</title>
<path fill="none" stroke="midnightblue" d="M699.19,-280.32C716.35,-271.66 742.95,-258.24 762.75,-248.25"/>
<polygon fill="midnightblue" stroke="midnightblue" points="764.5,-251.28 771.85,-243.65 761.35,-245.04 764.5,-251.28"/>
</g>
<!-- Node21&#45;&gt;Node22 -->
<g id="edge24" class="edge">
<title>Node21&#45;&gt;Node22</title>
<path fill="none" stroke="midnightblue" d="M808.25,-168.32C818.8,-160.18 834.8,-147.84 847.44,-138.09"/>
<polygon fill="midnightblue" stroke="midnightblue" points="849.77,-140.71 855.55,-131.83 845.49,-135.17 849.77,-140.71"/>
</g>
<!-- Node23 -->
<g id="node20" class="node">
<title>Node23</title>
<g id="a_node20"><a xlink:title=" ">
<polygon fill="none" stroke="#bfbfbf" points="733.5,-112.5 733.5,-131.5 826.5,-131.5 826.5,-112.5 733.5,-112.5"/>
<text text-anchor="middle" x="780" y="-119.5" font-family="Helvetica,sans-Serif" font-size="10.00">source_location</text>
</a>
</g>
</g>
<!-- Node21&#45;&gt;Node23 -->
<g id="edge25" class="edge">
<title>Node21&#45;&gt;Node23</title>
<path fill="none" stroke="midnightblue" d="M794.19,-168.08C791.92,-160.85 788.63,-150.41 785.79,-141.4"/>
<polygon fill="midnightblue" stroke="midnightblue" points="789.1,-140.24 782.75,-131.75 782.42,-142.34 789.1,-140.24"/>
</g>
<!-- Node24&#45;&gt;Node8 -->
<g id="edge27" class="edge">
<title>Node24&#45;&gt;Node8</title>
<path fill="none" stroke="midnightblue" d="M352.16,-112.44C384.71,-102.89 437.38,-87.43 472.1,-77.24"/>
<polygon fill="midnightblue" stroke="midnightblue" points="473.21,-80.56 481.82,-74.39 471.24,-73.85 473.21,-80.56"/>
</g>
<!-- Node24&#45;&gt;Node15 -->
<g id="edge30" class="edge">
<title>Node24&#45;&gt;Node15</title>
<path fill="none" stroke="midnightblue" d="M318.67,-112.29C311.49,-98.64 295.92,-72.11 276,-56 257.64,-41.15 233.6,-30.23 213.48,-22.87"/>
<polygon fill="midnightblue" stroke="midnightblue" points="214.55,-19.54 203.95,-19.54 212.24,-26.14 214.55,-19.54"/>
</g>
<!-- Node24&#45;&gt;Node16 -->
<g id="edge28" class="edge">
<title>Node24&#45;&gt;Node16</title>
<path fill="none" stroke="midnightblue" d="M334.41,-112.32C345.11,-104.18 361.34,-91.84 374.16,-82.09"/>
<polygon fill="midnightblue" stroke="midnightblue" points="376.54,-84.67 382.39,-75.83 372.31,-79.1 376.54,-84.67"/>
</g>
<!-- Node24&#45;&gt;Node17 -->
<g id="edge29" class="edge">
<title>Node24&#45;&gt;Node17</title>
<path fill="none" stroke="midnightblue" d="M323.63,-112.37C324.92,-94.62 327.9,-53.67 329.65,-29.6"/>
<polygon fill="midnightblue" stroke="midnightblue" points="333.14,-29.82 330.38,-19.59 326.16,-29.31 333.14,-29.82"/>
</g>
<!-- Node24&#45;&gt;Node18 -->
<g id="edge32" class="edge">
<title>Node24&#45;&gt;Node18</title>
<path fill="none" stroke="midnightblue" d="M377.08,-112.47C398.52,-106.15 421.1,-95.14 434,-76 445.02,-59.64 429.94,-39.82 415.85,-26.39"/>
<polygon fill="midnightblue" stroke="midnightblue" points="418.09,-23.7 408.3,-19.66 413.43,-28.93 418.09,-23.7"/>
</g>
<!-- Node24&#45;&gt;Node19 -->
<g id="edge31" class="edge">
<title>Node24&#45;&gt;Node19</title>
<path fill="none" stroke="midnightblue" d="M309.34,-112.32C296.08,-103.9 275.73,-90.97 260.15,-81.07"/>
<polygon fill="midnightblue" stroke="midnightblue" points="261.94,-78.06 251.62,-75.65 258.19,-83.97 261.94,-78.06"/>
</g>
<!-- Node26 -->
<g id="node23" class="node">
<title>Node26</title>
<g id="a_node23"><a xlink:href="Win_8h.html" target="_top" xlink:title=" ">
<polygon fill="none" stroke="black" points="605,-168.5 605,-187.5 649,-187.5 649,-168.5 605,-168.5"/>
<text text-anchor="middle" x="627" y="-175.5" font-family="Helvetica,sans-Serif" font-size="10.00">Win.h</text>
</a>
</g>
</g>
<!-- Node25&#45;&gt;Node26 -->
<g id="edge34" class="edge">
<title>Node25&#45;&gt;Node26</title>
<path fill="none" stroke="midnightblue" d="M623.66,-224.08C624.18,-217.01 624.94,-206.86 625.59,-197.99"/>
<polygon fill="midnightblue" stroke="midnightblue" points="629.1,-197.98 626.35,-187.75 622.12,-197.47 629.1,-197.98"/>
</g>
<!-- Node27 -->
<g id="node24" class="node">
<title>Node27</title>
<g id="a_node24"><a xlink:title=" ">
<polygon fill="none" stroke="#bfbfbf" points="614,-112.5 614,-131.5 690,-131.5 690,-112.5 614,-112.5"/>
<text text-anchor="middle" x="652" y="-119.5" font-family="Helvetica,sans-Serif" font-size="10.00">sdkddkver.h</text>
</a>
</g>
</g>
<!-- Node26&#45;&gt;Node27 -->
<g id="edge35" class="edge">
<title>Node26&#45;&gt;Node27</title>
<path fill="none" stroke="midnightblue" d="M631.13,-168.08C634.51,-160.77 639.42,-150.18 643.62,-141.1"/>
<polygon fill="midnightblue" stroke="midnightblue" points="646.92,-142.3 647.95,-131.75 640.57,-139.36 646.92,-142.3"/>
</g>
<!-- Node28 -->
<g id="node25" class="node">
<title>Node28</title>
<g id="a_node25"><a xlink:title=" ">
<polygon fill="none" stroke="#bfbfbf" points="526,-112.5 526,-131.5 596,-131.5 596,-112.5 526,-112.5"/>
<text text-anchor="middle" x="561" y="-119.5" font-family="Helvetica,sans-Serif" font-size="10.00">Windows.h</text>
</a>
</g>
</g>
<!-- Node26&#45;&gt;Node28 -->
<g id="edge36" class="edge">
<title>Node26&#45;&gt;Node28</title>
<path fill="none" stroke="midnightblue" d="M616.4,-168.32C606.54,-160.26 591.65,-148.08 579.78,-138.37"/>
<polygon fill="midnightblue" stroke="midnightblue" points="581.75,-135.46 571.8,-131.83 577.32,-140.88 581.75,-135.46"/>
</g>
<!-- Node29&#45;&gt;Node21 -->
<g id="edge41" class="edge">
<title>Node29&#45;&gt;Node21</title>
<path fill="none" stroke="midnightblue" d="M514.26,-227.62C566.19,-218.69 671.11,-200.65 737.51,-189.23"/>
<polygon fill="midnightblue" stroke="midnightblue" points="738.16,-192.67 747.42,-187.53 736.97,-185.77 738.16,-192.67"/>
</g>
<!-- Node29&#45;&gt;Node22 -->
<g id="edge44" class="edge">
<title>Node29&#45;&gt;Node22</title>
<path fill="none" stroke="midnightblue" d="M514.11,-225.5C549.19,-216.92 607.9,-202.22 658,-188 721.19,-170.06 794.33,-146.71 835.17,-133.44"/>
<polygon fill="midnightblue" stroke="midnightblue" points="836.41,-136.72 844.84,-130.29 834.25,-130.06 836.41,-136.72"/>
</g>
<!-- Node29&#45;&gt;Node26 -->
<g id="edge38" class="edge">
<title>Node29&#45;&gt;Node26</title>
<path fill="none" stroke="midnightblue" d="M505.82,-224.44C529.97,-215.39 568.28,-201.02 595.35,-190.87"/>
<polygon fill="midnightblue" stroke="midnightblue" points="596.63,-194.13 604.76,-187.34 594.17,-187.57 596.63,-194.13"/>
</g>
<!-- Node30 -->
<g id="node27" class="node">
<title>Node30</title>
<g id="a_node27"><a xlink:href="Colors_8h.html" target="_top" xlink:title=" ">
<polygon fill="none" stroke="black" points="295,-168.5 295,-187.5 351,-187.5 351,-168.5 295,-168.5"/>
<text text-anchor="middle" x="323" y="-175.5" font-family="Helvetica,sans-Serif" font-size="10.00">Colors.h</text>
</a>
</g>
</g>
<!-- Node29&#45;&gt;Node30 -->
<g id="edge39" class="edge">
<title>Node29&#45;&gt;Node30</title>
<path fill="none" stroke="midnightblue" d="M457.65,-224.44C430.73,-215.36 388,-200.94 357.91,-190.78"/>
<polygon fill="midnightblue" stroke="midnightblue" points="358.83,-187.4 348.23,-187.52 356.59,-194.03 358.83,-187.4"/>
</g>
<!-- Node31 -->
<g id="node28" class="node">
<title>Node31</title>
<g id="a_node28"><a xlink:title=" ">
<polygon fill="none" stroke="#bfbfbf" points="531,-168.5 531,-187.5 587,-187.5 587,-168.5 531,-168.5"/>
<text text-anchor="middle" x="559" y="-175.5" font-family="Helvetica,sans-Serif" font-size="10.00">assert.h</text>
</a>
</g>
</g>
<!-- Node29&#45;&gt;Node31 -->
<g id="edge42" class="edge">
<title>Node29&#45;&gt;Node31</title>
<path fill="none" stroke="midnightblue" d="M495.21,-224.32C506.78,-216.11 524.38,-203.6 538.16,-193.81"/>
<polygon fill="midnightblue" stroke="midnightblue" points="540.44,-196.48 546.57,-187.83 536.39,-190.77 540.44,-196.48"/>
</g>
<!-- Node32 -->
<g id="node29" class="node">
<title>Node32</title>
<g id="a_node29"><a xlink:title=" ">
<polygon fill="none" stroke="#bfbfbf" points="369,-168.5 369,-187.5 427,-187.5 427,-168.5 369,-168.5"/>
<text text-anchor="middle" x="398" y="-175.5" font-family="Helvetica,sans-Serif" font-size="10.00">memory</text>
</a>
</g>
</g>
<!-- Node29&#45;&gt;Node32 -->
<g id="edge43" class="edge">
<title>Node29&#45;&gt;Node32</title>
<path fill="none" stroke="midnightblue" d="M469.34,-224.32C456.08,-215.9 435.73,-202.97 420.15,-193.07"/>
<polygon fill="midnightblue" stroke="midnightblue" points="421.94,-190.06 411.62,-187.65 418.19,-195.97 421.94,-190.06"/>
</g>
<!-- Node33 -->
<g id="node30" class="node">
<title>Node33</title>
<g id="a_node30"><a xlink:title=" ">
<polygon fill="none" stroke="#bfbfbf" points="445,-168.5 445,-187.5 513,-187.5 513,-168.5 445,-168.5"/>
<text text-anchor="middle" x="479" y="-175.5" font-family="Helvetica,sans-Serif" font-size="10.00">filesystem</text>
</a>
</g>
</g>
<!-- Node29&#45;&gt;Node33 -->
<g id="edge45" class="edge">
<title>Node29&#45;&gt;Node33</title>
<path fill="none" stroke="midnightblue" d="M482.34,-224.08C481.82,-217.01 481.06,-206.86 480.41,-197.99"/>
<polygon fill="midnightblue" stroke="midnightblue" points="483.88,-197.47 479.65,-187.75 476.9,-197.98 483.88,-197.47"/>
</g>
<!-- Node30&#45;&gt;Node24 -->
<g id="edge40" class="edge">
<title>Node30&#45;&gt;Node24</title>
<path fill="none" stroke="midnightblue" d="M323,-168.08C323,-161.01 323,-150.86 323,-141.99"/>
<polygon fill="midnightblue" stroke="midnightblue" points="326.5,-141.75 323,-131.75 319.5,-141.75 326.5,-141.75"/>
</g>
<!-- Node36&#45;&gt;Node7 -->
<g id="edge64" class="edge">
<title>Node36&#45;&gt;Node7</title>
<path fill="none" stroke="midnightblue" d="M282.19,-282.12C255.06,-276.12 223,-264.9 201,-244 171.74,-216.21 159.94,-168.31 155.49,-141.88"/>
<polygon fill="midnightblue" stroke="midnightblue" points="158.9,-141.06 153.96,-131.69 151.98,-142.1 158.9,-141.06"/>
</g>
<!-- Node36&#45;&gt;Node24 -->
<g id="edge65" class="edge">
<title>Node36&#45;&gt;Node24</title>
<path fill="none" stroke="midnightblue" d="M282.3,-283C257.61,-277.24 230.19,-265.99 215,-244 195.8,-216.21 196.26,-196.1 215,-168 225.79,-151.81 243.63,-141.44 261.73,-134.79"/>
<polygon fill="midnightblue" stroke="midnightblue" points="263.08,-138.03 271.47,-131.56 260.88,-131.39 263.08,-138.03"/>
</g>
<!-- Node37 -->
<g id="node34" class="node">
<title>Node37</title>
<g id="a_node34"><a xlink:href="IndexedTriangleList_8h.html" target="_top" xlink:title=" ">
<polygon fill="none" stroke="black" points="1014.5,-224.5 1014.5,-243.5 1133.5,-243.5 1133.5,-224.5 1014.5,-224.5"/>
<text text-anchor="middle" x="1074" y="-231.5" font-family="Helvetica,sans-Serif" font-size="10.00">IndexedTriangleList.h</text>
</a>
</g>
</g>
<!-- Node36&#45;&gt;Node37 -->
<g id="edge50" class="edge">
<title>Node36&#45;&gt;Node37</title>
<path fill="none" stroke="midnightblue" d="M385.74,-285.22C515.78,-275.74 856.38,-250.88 1004.04,-240.11"/>
<polygon fill="midnightblue" stroke="midnightblue" points="1004.62,-243.57 1014.34,-239.35 1004.11,-236.59 1004.62,-243.57"/>
</g>
<!-- Node37&#45;&gt;Node24 -->
<g id="edge51" class="edge">
<title>Node37&#45;&gt;Node24</title>
<path fill="none" stroke="midnightblue" d="M1014.36,-227.4C946.18,-220.47 831.42,-207.19 734,-188 699.73,-181.25 692.26,-174.78 658,-168 570.12,-150.6 467.92,-137.95 399.73,-130.57"/>
<polygon fill="midnightblue" stroke="midnightblue" points="399.82,-127.06 389.5,-129.48 399.07,-134.02 399.82,-127.06"/>
</g>
<!-- Node38 -->
<g id="node35" class="node">
<title>Node38</title>
<g id="a_node35"><a xlink:href="tiny__obj__loader_8h.html" target="_top" xlink:title=" ">
<polygon fill="none" stroke="black" points="1051,-168.5 1051,-187.5 1151,-187.5 1151,-168.5 1051,-168.5"/>
<text text-anchor="middle" x="1101" y="-175.5" font-family="Helvetica,sans-Serif" font-size="10.00">tiny_obj_loader.h</text>
</a>
</g>
</g>
<!-- Node37&#45;&gt;Node38 -->
<g id="edge52" class="edge">
<title>Node37&#45;&gt;Node38</title>
<path fill="none" stroke="midnightblue" d="M1078.46,-224.08C1082.15,-216.69 1087.52,-205.95 1092.09,-196.81"/>
<polygon fill="midnightblue" stroke="midnightblue" points="1095.28,-198.26 1096.62,-187.75 1089.02,-195.13 1095.28,-198.26"/>
</g>
<!-- Node40 -->
<g id="node37" class="node">
<title>Node40</title>
<g id="a_node37"><a xlink:title=" ">
<polygon fill="none" stroke="#bfbfbf" points="1154.5,-112.5 1154.5,-131.5 1201.5,-131.5 1201.5,-112.5 1154.5,-112.5"/>
<text text-anchor="middle" x="1178" y="-119.5" font-family="Helvetica,sans-Serif" font-size="10.00">vector</text>
</a>
</g>
</g>
<!-- Node37&#45;&gt;Node40 -->
<g id="edge61" class="edge">
<title>Node37&#45;&gt;Node40</title>
<path fill="none" stroke="midnightblue" d="M1130.61,-224.44C1171.37,-216.98 1221.32,-204.73 1234,-188 1247.95,-169.59 1224.45,-149.64 1203.76,-136.76"/>
<polygon fill="midnightblue" stroke="midnightblue" points="1205.28,-133.6 1194.89,-131.54 1201.73,-139.63 1205.28,-133.6"/>
</g>
<!-- Node41 -->
<g id="node38" class="node">
<title>Node41</title>
<g id="a_node38"><a xlink:href="Miniball_8h.html" target="_top" xlink:title=" ">
<polygon fill="none" stroke="red" points="1319.5,-168.5 1319.5,-187.5 1384.5,-187.5 1384.5,-168.5 1319.5,-168.5"/>
<text text-anchor="middle" x="1352" y="-175.5" font-family="Helvetica,sans-Serif" font-size="10.00">Miniball.h</text>
</a>
</g>
</g>
<!-- Node37&#45;&gt;Node41 -->
<g id="edge56" class="edge">
<title>Node37&#45;&gt;Node41</title>
<path fill="none" stroke="midnightblue" d="M1118.05,-224.44C1170.58,-214.24 1257.78,-197.3 1309.58,-187.24"/>
<polygon fill="midnightblue" stroke="midnightblue" points="1310.3,-190.67 1319.45,-185.32 1308.96,-183.79 1310.3,-190.67"/>
</g>
<!-- Node46 -->
<g id="node42" class="node">
<title>Node46</title>
<g id="a_node42"><a xlink:title=" ">
<polygon fill="none" stroke="#bfbfbf" points="1169.5,-168.5 1169.5,-187.5 1224.5,-187.5 1224.5,-168.5 1169.5,-168.5"/>
<text text-anchor="middle" x="1197" y="-175.5" font-family="Helvetica,sans-Serif" font-size="10.00">fstream</text>
</a>
</g>
</g>
<!-- Node37&#45;&gt;Node46 -->
<g id="edge62" class="edge">
<title>Node37&#45;&gt;Node46</title>
<path fill="none" stroke="midnightblue" d="M1093.49,-224.44C1113.64,-215.6 1145.32,-201.69 1168.33,-191.59"/>
<polygon fill="midnightblue" stroke="midnightblue" points="1169.85,-194.74 1177.6,-187.52 1167.04,-188.33 1169.85,-194.74"/>
</g>
<!-- Node47 -->
<g id="node43" class="node">
<title>Node47</title>
<g id="a_node43"><a xlink:title=" ">
<polygon fill="none" stroke="#bfbfbf" points="983.5,-168.5 983.5,-187.5 1032.5,-187.5 1032.5,-168.5 983.5,-168.5"/>
<text text-anchor="middle" x="1008" y="-175.5" font-family="Helvetica,sans-Serif" font-size="10.00">cctype</text>
</a>
</g>
</g>
<!-- Node37&#45;&gt;Node47 -->
<g id="edge63" class="edge">
<title>Node37&#45;&gt;Node47</title>
<path fill="none" stroke="midnightblue" d="M1063.4,-224.32C1053.54,-216.26 1038.65,-204.08 1026.78,-194.37"/>
<polygon fill="midnightblue" stroke="midnightblue" points="1028.75,-191.46 1018.8,-187.83 1024.32,-196.88 1028.75,-191.46"/>
</g>
<!-- Node38&#45;&gt;Node22 -->
<g id="edge54" class="edge">
<title>Node38&#45;&gt;Node22</title>
<path fill="none" stroke="midnightblue" d="M1063.92,-168.44C1018.44,-157.95 942.1,-140.33 899.05,-130.4"/>
<polygon fill="midnightblue" stroke="midnightblue" points="899.65,-126.94 889.12,-128.1 898.07,-133.76 899.65,-126.94"/>
</g>
<!-- Node39 -->
<g id="node36" class="node">
<title>Node39</title>
<g id="a_node36"><a xlink:title=" ">
<polygon fill="none" stroke="#bfbfbf" points="1082,-112.5 1082,-131.5 1120,-131.5 1120,-112.5 1082,-112.5"/>
<text text-anchor="middle" x="1101" y="-119.5" font-family="Helvetica,sans-Serif" font-size="10.00">map</text>
</a>
</g>
</g>
<!-- Node38&#45;&gt;Node39 -->
<g id="edge53" class="edge">
<title>Node38&#45;&gt;Node39</title>
<path fill="none" stroke="midnightblue" d="M1101,-168.08C1101,-161.01 1101,-150.86 1101,-141.99"/>
<polygon fill="midnightblue" stroke="midnightblue" points="1104.5,-141.75 1101,-131.75 1097.5,-141.75 1104.5,-141.75"/>
</g>
<!-- Node38&#45;&gt;Node40 -->
<g id="edge55" class="edge">
<title>Node38&#45;&gt;Node40</title>
<path fill="none" stroke="midnightblue" d="M1113.37,-168.32C1125.16,-160.06 1143.13,-147.45 1157.14,-137.63"/>
<polygon fill="midnightblue" stroke="midnightblue" points="1159.48,-140.26 1165.66,-131.65 1155.46,-134.53 1159.48,-140.26"/>
</g>
<!-- Node41&#45;&gt;Node11 -->
<g id="edge60" class="edge">
<title>Node41&#45;&gt;Node11</title>
<path fill="none" stroke="midnightblue" d="M1352.7,-168.08C1354.75,-141.95 1360.75,-65.21 1363.55,-29.58"/>
<polygon fill="midnightblue" stroke="midnightblue" points="1367.04,-29.81 1364.33,-19.57 1360.06,-29.26 1367.04,-29.81"/>
</g>
<!-- Node42 -->
<g id="node39" class="node">
<title>Node42</title>
<g id="a_node39"><a xlink:title=" ">
<polygon fill="none" stroke="#bfbfbf" points="1393,-112.5 1393,-131.5 1445,-131.5 1445,-112.5 1393,-112.5"/>
<text text-anchor="middle" x="1419" y="-119.5" font-family="Helvetica,sans-Serif" font-size="10.00">cassert</text>
</a>
</g>
</g>
<!-- Node41&#45;&gt;Node42 -->
<g id="edge57" class="edge">
<title>Node41&#45;&gt;Node42</title>
<path fill="none" stroke="midnightblue" d="M1362.76,-168.32C1372.77,-160.26 1387.89,-148.08 1399.93,-138.37"/>
<polygon fill="midnightblue" stroke="midnightblue" points="1402.45,-140.83 1408.04,-131.83 1398.06,-135.38 1402.45,-140.83"/>
</g>
<!-- Node43 -->
<g id="node40" class="node">
<title>Node43</title>
<g id="a_node40"><a xlink:title=" ">
<polygon fill="none" stroke="#bfbfbf" points="1223,-112.5 1223,-131.5 1287,-131.5 1287,-112.5 1223,-112.5"/>
<text text-anchor="middle" x="1255" y="-119.5" font-family="Helvetica,sans-Serif" font-size="10.00">algorithm</text>
</a>
</g>
</g>
<!-- Node41&#45;&gt;Node43 -->
<g id="edge58" class="edge">
<title>Node41&#45;&gt;Node43</title>
<path fill="none" stroke="midnightblue" d="M1336.42,-168.32C1321,-159.74 1297.19,-146.49 1279.29,-136.52"/>
<polygon fill="midnightblue" stroke="midnightblue" points="1280.99,-133.46 1270.55,-131.65 1277.58,-139.58 1280.99,-133.46"/>
</g>
<!-- Node44 -->
<g id="node41" class="node">
<title>Node44</title>
<g id="a_node41"><a xlink:title=" ">
<polygon fill="none" stroke="#bfbfbf" points="1305,-112.5 1305,-131.5 1337,-131.5 1337,-112.5 1305,-112.5"/>
<text text-anchor="middle" x="1321" y="-119.5" font-family="Helvetica,sans-Serif" font-size="10.00">list</text>
</a>
</g>
</g>
<!-- Node41&#45;&gt;Node44 -->
<g id="edge59" class="edge">
<title>Node41&#45;&gt;Node44</title>
<path fill="none" stroke="midnightblue" d="M1346.88,-168.08C1342.59,-160.61 1336.34,-149.72 1331.06,-140.52"/>
<polygon fill="midnightblue" stroke="midnightblue" points="1334.04,-138.68 1326.02,-131.75 1327.97,-142.17 1334.04,-138.68"/>
</g>
<!-- Node48&#45;&gt;Node16 -->
<g id="edge75" class="edge">
<title>Node48&#45;&gt;Node16</title>
<path fill="none" stroke="midnightblue" d="M974.9,-392.29C968.62,-373.86 955,-329.44 955,-291 955,-291 955,-291 955,-177 955,-146.2 955.56,-130.58 931,-112 890.29,-81.2 523.81,-80.89 473,-76 460.99,-74.84 447.97,-73.43 436.04,-72.07"/>
<polygon fill="midnightblue" stroke="midnightblue" points="436.21,-68.56 425.88,-70.89 435.41,-75.52 436.21,-68.56"/>
</g>
<!-- Node48&#45;&gt;Node20 -->
<g id="edge69" class="edge">
<title>Node48&#45;&gt;Node20</title>
<path fill="none" stroke="midnightblue" d="M954.77,-392.37C902.36,-372.89 774.78,-325.48 714.53,-303.09"/>
<polygon fill="midnightblue" stroke="midnightblue" points="715.71,-299.79 705.12,-299.59 713.27,-306.36 715.71,-299.79"/>
</g>
<!-- Node48&#45;&gt;Node26 -->
<g id="edge68" class="edge">
<title>Node48&#45;&gt;Node26</title>
<path fill="none" stroke="midnightblue" d="M945.28,-401.3C864.02,-401.39 655.79,-397.46 603,-356 554.58,-317.98 532.23,-278.43 561,-224 568.48,-209.85 582.62,-199.32 595.9,-192.01"/>
<polygon fill="midnightblue" stroke="midnightblue" points="597.53,-195.11 604.87,-187.47 594.36,-188.87 597.53,-195.11"/>
</g>
<!-- Node48&#45;&gt;Node37 -->
<g id="edge71" class="edge">
<title>Node48&#45;&gt;Node37</title>
<path fill="none" stroke="midnightblue" d="M983.16,-392.08C998.4,-365.72 1043.42,-287.88 1063.79,-252.66"/>
<polygon fill="midnightblue" stroke="midnightblue" points="1067.07,-253.98 1069.04,-243.57 1061.01,-250.47 1067.07,-253.98"/>
</g>
<!-- Node48&#45;&gt;Node43 -->
<g id="edge79" class="edge">
<title>Node48&#45;&gt;Node43</title>
<path fill="none" stroke="midnightblue" d="M1010.61,-393.08C1090.78,-373.17 1291,-320.48 1291,-291 1291,-291 1291,-291 1291,-233 1291,-198.98 1275.26,-161.85 1264.59,-140.6"/>
<polygon fill="midnightblue" stroke="midnightblue" points="1267.59,-138.77 1259.86,-131.53 1261.38,-142.01 1267.59,-138.77"/>
</g>
<!-- Node49 -->
<g id="node45" class="node">
<title>Node49</title>
<g id="a_node45"><a xlink:href="Triangle_8h.html" target="_top" xlink:title=" ">
<polygon fill="none" stroke="black" points="1357,-336.5 1357,-355.5 1421,-355.5 1421,-336.5 1357,-336.5"/>
<text text-anchor="middle" x="1389" y="-343.5" font-family="Helvetica,sans-Serif" font-size="10.00">Triangle.h</text>
</a>
</g>
</g>
<!-- Node48&#45;&gt;Node49 -->
<g id="edge70" class="edge">
<title>Node48&#45;&gt;Node49</title>
<path fill="none" stroke="midnightblue" d="M1010.96,-393.61C1014.01,-393.03 1017.06,-392.48 1020,-392 1162.58,-368.84 1200.22,-377.89 1343,-356 1344.27,-355.81 1345.55,-355.6 1346.85,-355.39"/>
<polygon fill="midnightblue" stroke="midnightblue" points="1347.64,-358.8 1356.89,-353.63 1346.43,-351.91 1347.64,-358.8"/>
</g>
<!-- Node50 -->
<g id="node46" class="node">
<title>Node50</title>
<g id="a_node46"><a xlink:href="PubeScreenTransformer_8h.html" target="_top" xlink:title=" ">
<polygon fill="none" stroke="black" points="612,-336.5 612,-355.5 752,-355.5 752,-336.5 612,-336.5"/>
<text text-anchor="middle" x="682" y="-343.5" font-family="Helvetica,sans-Serif" font-size="10.00">PubeScreenTransformer.h</text>
</a>
</g>
</g>
<!-- Node48&#45;&gt;Node50 -->
<g id="edge72" class="edge">
<title>Node48&#45;&gt;Node50</title>
<path fill="none" stroke="midnightblue" d="M945.48,-395.07C895.68,-385.98 799.9,-368.51 738.56,-357.32"/>
<polygon fill="midnightblue" stroke="midnightblue" points="739.12,-353.86 728.65,-355.51 737.86,-360.75 739.12,-353.86"/>
</g>
<!-- Node51 -->
<g id="node47" class="node">
<title>Node51</title>
<g id="a_node47"><a xlink:href="ZBuffer_8h.html" target="_top" xlink:title=" ">
<polygon fill="none" stroke="black" points="1402.5,-168.5 1402.5,-187.5 1463.5,-187.5 1463.5,-168.5 1402.5,-168.5"/>
<text text-anchor="middle" x="1433" y="-175.5" font-family="Helvetica,sans-Serif" font-size="10.00">ZBuffer.h</text>
</a>
</g>
</g>
<!-- Node48&#45;&gt;Node51 -->
<g id="edge76" class="edge">
<title>Node48&#45;&gt;Node51</title>
<path fill="none" stroke="midnightblue" d="M1010.51,-393.75C1013.71,-393.12 1016.91,-392.52 1020,-392 1145.87,-370.6 1195.18,-421.11 1305,-356 1369.13,-317.98 1410.25,-233.97 1425.88,-197.03"/>
<polygon fill="midnightblue" stroke="midnightblue" points="1429.21,-198.13 1429.76,-187.55 1422.73,-195.48 1429.21,-198.13"/>
</g>
<!-- Node50&#45;&gt;Node20 -->
<g id="edge73" class="edge">
<title>Node50&#45;&gt;Node20</title>
<path fill="none" stroke="midnightblue" d="M682,-336.08C682,-329.01 682,-318.86 682,-309.99"/>
<polygon fill="midnightblue" stroke="midnightblue" points="685.5,-309.75 682,-299.75 678.5,-309.75 685.5,-309.75"/>
</g>
<!-- Node50&#45;&gt;Node24 -->
<g id="edge74" class="edge">
<title>Node50&#45;&gt;Node24</title>
<path fill="none" stroke="midnightblue" d="M623.29,-336.45C552.02,-324.17 429.97,-296.96 338,-244 306.67,-225.96 293.27,-221.22 279,-188 271.01,-169.41 287.1,-150.51 302.01,-137.92"/>
<polygon fill="midnightblue" stroke="midnightblue" points="304.33,-140.56 310.02,-131.62 300,-135.06 304.33,-140.56"/>
</g>
<!-- Node51&#45;&gt;Node11 -->
<g id="edge77" class="edge">
<title>Node51&#45;&gt;Node11</title>
<path fill="none" stroke="midnightblue" d="M1439.45,-168.5C1448.1,-155.99 1461.54,-131.97 1454,-112 1440.22,-75.52 1406.6,-43.69 1384.85,-25.94"/>
<polygon fill="midnightblue" stroke="midnightblue" points="1386.9,-23.1 1376.89,-19.64 1382.56,-28.59 1386.9,-23.1"/>
</g>
<!-- Node51&#45;&gt;Node42 -->
<g id="edge78" class="edge">
<title>Node51&#45;&gt;Node42</title>
<path fill="none" stroke="midnightblue" d="M1430.69,-168.08C1428.83,-160.93 1426.16,-150.64 1423.85,-141.69"/>
<polygon fill="midnightblue" stroke="midnightblue" points="1427.17,-140.55 1421.27,-131.75 1420.39,-142.31 1427.17,-140.55"/>
</g>
<!-- Node52&#45;&gt;Node48 -->
<g id="edge81" class="edge">
<title>Node52&#45;&gt;Node48</title>
<path fill="none" stroke="midnightblue" d="M1074.78,-448.44C1056.1,-439.68 1026.84,-425.94 1005.38,-415.86"/>
<polygon fill="midnightblue" stroke="midnightblue" points="1006.68,-412.6 996.14,-411.52 1003.7,-418.93 1006.68,-412.6"/>
</g>
<!-- Node53 -->
<g id="node49" class="node">
<title>Node53</title>
<g id="a_node49"><a xlink:href="DefaultVertexShader_8h.html" target="_top" xlink:title=" ">
<polygon fill="none" stroke="black" points="1029,-392.5 1029,-411.5 1197,-411.5 1197,-392.5 1029,-392.5"/>
<text text-anchor="middle" x="1113" y="-399.5" font-family="Helvetica,sans-Serif" font-size="10.00">Shaders/DefaultVertexShader.h</text>
</a>
</g>
</g>
<!-- Node52&#45;&gt;Node53 -->
<g id="edge82" class="edge">
<title>Node52&#45;&gt;Node53</title>
<path fill="none" stroke="midnightblue" d="M1096.3,-448.08C1098.98,-440.85 1102.85,-430.41 1106.19,-421.4"/>
<polygon fill="midnightblue" stroke="midnightblue" points="1109.57,-422.34 1109.76,-411.75 1103,-419.91 1109.57,-422.34"/>
</g>
<!-- Node54 -->
<g id="node50" class="node">
<title>Node54</title>
<g id="a_node50"><a xlink:href="DefaultGeometryShader_8h.html" target="_top" xlink:title=" ">
<polygon fill="none" stroke="black" points="1255.5,-392.5 1255.5,-411.5 1440.5,-411.5 1440.5,-392.5 1255.5,-392.5"/>
<text text-anchor="middle" x="1348" y="-399.5" font-family="Helvetica,sans-Serif" font-size="10.00">Shaders/DefaultGeometryShader.h</text>
</a>
</g>
</g>
<!-- Node52&#45;&gt;Node54 -->
<g id="edge83" class="edge">
<title>Node52&#45;&gt;Node54</title>
<path fill="none" stroke="midnightblue" d="M1133.41,-448.44C1177.98,-439 1249.77,-423.8 1297.89,-413.61"/>
<polygon fill="midnightblue" stroke="midnightblue" points="1298.73,-417.01 1307.78,-411.52 1297.28,-410.16 1298.73,-417.01"/>
</g>
<!-- Node54&#45;&gt;Node49 -->
<g id="edge84" class="edge">
<title>Node54&#45;&gt;Node49</title>
<path fill="none" stroke="midnightblue" d="M1354.77,-392.08C1360.56,-384.46 1369.06,-373.26 1376.14,-363.94"/>
<polygon fill="midnightblue" stroke="midnightblue" points="1379.1,-365.83 1382.36,-355.75 1373.52,-361.6 1379.1,-365.83"/>
</g>
</g>
</svg>
