<?xml version="1.0" encoding="UTF-8" standalone="no"?>
<!DOCTYPE svg PUBLIC "-//W3C//DTD SVG 1.1//EN"
 "http://www.w3.org/Graphics/SVG/1.1/DTD/svg11.dtd">
<!-- Generated by graphviz version 2.43.0 (0)
 -->
<!-- Title: include/Graphics.h Pages: 1 -->
<svg width="1990pt" height="330pt"
 viewBox="0.00 0.00 1989.82 330.00" xmlns="http://www.w3.org/2000/svg" xmlns:xlink="http://www.w3.org/1999/xlink">
<g id="graph0" class="graph" transform="scale(1 1) rotate(0) translate(4 326)">
<title>include/Graphics.h</title>
<!-- Node1 -->
<g id="node1" class="node">
<title>Node1</title>
<g id="a_node1"><a xlink:title=" ">
<polygon fill="#bfbfbf" stroke="black" points="160,-302.5 160,-321.5 267,-321.5 267,-302.5 160,-302.5"/>
<text text-anchor="middle" x="213.5" y="-309.5" font-family="Helvetica,sans-Serif" font-size="10.00">include/Graphics.h</text>
</a>
</g>
</g>
<!-- Node2 -->
<g id="node2" class="node">
<title>Node2</title>
<g id="a_node2"><a xlink:href="Engine_8h.html" target="_top" xlink:title=" ">
<polygon fill="none" stroke="black" points="257,-62 257,-81 354,-81 354,-62 257,-62"/>
<text text-anchor="middle" x="305.5" y="-69" font-family="Helvetica,sans-Serif" font-size="10.00">include/Engine.h</text>
</a>
</g>
</g>
<!-- Node1&#45;&gt;Node2 -->
<g id="edge1" class="edge">
<title>Node1&#45;&gt;Node2</title>
<path fill="none" stroke="midnightblue" d="M215.22,-291.98C219.04,-256.79 230.4,-179.91 260.5,-123 269.39,-106.18 285.05,-90.43 295.35,-81.12"/>
<polygon fill="midnightblue" stroke="midnightblue" points="211.71,-291.93 214.2,-302.23 218.67,-292.63 211.71,-291.93"/>
</g>
<!-- Node5 -->
<g id="node5" class="node">
<title>Node5</title>
<g id="a_node5"><a xlink:href="MainWindow_8cpp.html" target="_top" xlink:title=" ">
<polygon fill="none" stroke="black" points="117.5,-0.5 117.5,-19.5 233.5,-19.5 233.5,-0.5 117.5,-0.5"/>
<text text-anchor="middle" x="175.5" y="-7.5" font-family="Helvetica,sans-Serif" font-size="10.00">src/MainWindow.cpp</text>
</a>
</g>
</g>
<!-- Node1&#45;&gt;Node5 -->
<g id="edge59" class="edge">
<title>Node1&#45;&gt;Node5</title>
<path fill="none" stroke="midnightblue" d="M178.73,-298.67C140.52,-282.63 84.5,-250.65 84.5,-201 84.5,-201 84.5,-201 84.5,-137.5 84.5,-100.31 81.87,-86.26 103.5,-56 115.76,-38.85 136.79,-26.82 152.96,-19.54"/>
<polygon fill="midnightblue" stroke="midnightblue" points="177.43,-301.92 188.01,-302.41 180.04,-295.43 177.43,-301.92"/>
</g>
<!-- Node6 -->
<g id="node6" class="node">
<title>Node6</title>
<g id="a_node6"><a xlink:href="MainWindow_8h.html" target="_top" xlink:title=" ">
<polygon fill="none" stroke="black" points="112.5,-62 112.5,-81 238.5,-81 238.5,-62 112.5,-62"/>
<text text-anchor="middle" x="175.5" y="-69" font-family="Helvetica,sans-Serif" font-size="10.00">include/MainWindow.h</text>
</a>
</g>
</g>
<!-- Node1&#45;&gt;Node6 -->
<g id="edge5" class="edge">
<title>Node1&#45;&gt;Node6</title>
<path fill="none" stroke="midnightblue" d="M207.07,-292.94C204.39,-284.8 201.44,-275.01 199.5,-266 184.29,-195.52 177.78,-108.37 176.02,-81.08"/>
<polygon fill="midnightblue" stroke="midnightblue" points="203.8,-294.17 210.35,-302.49 210.42,-291.9 203.8,-294.17"/>
</g>
<!-- Node7 -->
<g id="node7" class="node">
<title>Node7</title>
<g id="a_node7"><a xlink:href="Graphics_8cpp.html" target="_top" xlink:title=" ">
<polygon fill="none" stroke="black" points="0,-0.5 0,-19.5 97,-19.5 97,-0.5 0,-0.5"/>
<text text-anchor="middle" x="48.5" y="-7.5" font-family="Helvetica,sans-Serif" font-size="10.00">src/Graphics.cpp</text>
</a>
</g>
</g>
<!-- Node1&#45;&gt;Node7 -->
<g id="edge58" class="edge">
<title>Node1&#45;&gt;Node7</title>
<path fill="none" stroke="midnightblue" d="M161.07,-299.75C112.1,-285.79 46.5,-256.7 46.5,-201 46.5,-201 46.5,-201 46.5,-137.5 46.5,-93.13 47.75,-40.02 48.27,-19.59"/>
<polygon fill="midnightblue" stroke="midnightblue" points="160.36,-303.18 170.93,-302.42 162.19,-296.42 160.36,-303.18"/>
</g>
<!-- Node8 -->
<g id="node8" class="node">
<title>Node8</title>
<g id="a_node8"><a xlink:href="Pipeline_8h.html" target="_top" xlink:title=" ">
<polygon fill="none" stroke="black" points="1101,-190.5 1101,-209.5 1204,-209.5 1204,-190.5 1101,-190.5"/>
<text text-anchor="middle" x="1152.5" y="-197.5" font-family="Helvetica,sans-Serif" font-size="10.00">include/Pipeline.h</text>
</a>
</g>
</g>
<!-- Node1&#45;&gt;Node8 -->
<g id="edge10" class="edge">
<title>Node1&#45;&gt;Node8</title>
<path fill="none" stroke="midnightblue" d="M277.36,-306.76C374.83,-299.99 566.49,-285.48 728.5,-266 864.92,-249.6 1024.93,-223.08 1103.68,-209.54"/>
<polygon fill="midnightblue" stroke="midnightblue" points="277.11,-303.27 267.37,-307.45 277.59,-310.25 277.11,-303.27"/>
</g>
<!-- Node26 -->
<g id="node26" class="node">
<title>Node26</title>
<g id="a_node26"><a xlink:href="PubeScreenTransformer_8h.html" target="_top" xlink:title=" ">
<polygon fill="none" stroke="black" points="540,-246.5 540,-265.5 719,-265.5 719,-246.5 540,-246.5"/>
<text text-anchor="middle" x="629.5" y="-253.5" font-family="Helvetica,sans-Serif" font-size="10.00">include/PubeScreenTransformer.h</text>
</a>
</g>
</g>
<!-- Node1&#45;&gt;Node26 -->
<g id="edge45" class="edge">
<title>Node1&#45;&gt;Node26</title>
<path fill="none" stroke="midnightblue" d="M277.16,-302.74C354.79,-292.66 485.32,-275.72 563.85,-265.52"/>
<polygon fill="midnightblue" stroke="midnightblue" points="276.5,-299.29 267.03,-304.05 277.4,-306.23 276.5,-299.29"/>
</g>
<!-- Node27 -->
<g id="node27" class="node">
<title>Node27</title>
<g id="a_node27"><a xlink:href="Scene_8h.html" target="_top" xlink:title=" ">
<polygon fill="none" stroke="black" points="886,-129 886,-148 979,-148 979,-129 886,-129"/>
<text text-anchor="middle" x="932.5" y="-136" font-family="Helvetica,sans-Serif" font-size="10.00">include/Scene.h</text>
</a>
</g>
</g>
<!-- Node1&#45;&gt;Node27 -->
<g id="edge47" class="edge">
<title>Node1&#45;&gt;Node27</title>
<path fill="none" stroke="midnightblue" d="M260.96,-300.12C369.91,-275.06 646.26,-211.06 876.5,-154 884.1,-152.12 892.27,-150.03 899.96,-148.05"/>
<polygon fill="midnightblue" stroke="midnightblue" points="259.91,-296.77 250.95,-302.42 261.48,-303.59 259.91,-296.77"/>
</g>
<!-- Node3 -->
<g id="node3" class="node">
<title>Node3</title>
<g id="a_node3"><a xlink:href="Engine_8cpp.html" target="_top" xlink:title=" ">
<polygon fill="none" stroke="black" points="924,-0.5 924,-19.5 1011,-19.5 1011,-0.5 924,-0.5"/>
<text text-anchor="middle" x="967.5" y="-7.5" font-family="Helvetica,sans-Serif" font-size="10.00">src/Engine.cpp</text>
</a>
</g>
</g>
<!-- Node2&#45;&gt;Node3 -->
<g id="edge2" class="edge">
<title>Node2&#45;&gt;Node3</title>
<path fill="none" stroke="midnightblue" d="M344.66,-59.58C350.61,-58.2 356.69,-56.95 362.5,-56 570.92,-22.01 823.98,-13.66 923.91,-11.63"/>
<polygon fill="midnightblue" stroke="midnightblue" points="343.76,-56.2 334.88,-61.98 345.42,-63 343.76,-56.2"/>
</g>
<!-- Node4 -->
<g id="node4" class="node">
<title>Node4</title>
<g id="a_node4"><a xlink:href="Main_8cpp.html" target="_top" xlink:title=" ">
<polygon fill="none" stroke="black" points="259.5,-0.5 259.5,-19.5 337.5,-19.5 337.5,-0.5 259.5,-0.5"/>
<text text-anchor="middle" x="298.5" y="-7.5" font-family="Helvetica,sans-Serif" font-size="10.00">src/Main.cpp</text>
</a>
</g>
</g>
<!-- Node2&#45;&gt;Node4 -->
<g id="edge3" class="edge">
<title>Node2&#45;&gt;Node4</title>
<path fill="none" stroke="midnightblue" d="M303.3,-51.82C302.03,-41 300.49,-27.9 299.5,-19.51"/>
<polygon fill="midnightblue" stroke="midnightblue" points="299.85,-52.45 304.5,-61.98 306.8,-51.63 299.85,-52.45"/>
</g>
<!-- Node2&#45;&gt;Node5 -->
<g id="edge4" class="edge">
<title>Node2&#45;&gt;Node5</title>
<path fill="none" stroke="midnightblue" d="M277.48,-57.67C252.25,-46.13 215.89,-29.49 194.09,-19.51"/>
<polygon fill="midnightblue" stroke="midnightblue" points="276.32,-61 286.87,-61.98 279.24,-54.63 276.32,-61"/>
</g>
<!-- Node6&#45;&gt;Node3 -->
<g id="edge6" class="edge">
<title>Node6&#45;&gt;Node3</title>
<path fill="none" stroke="midnightblue" d="M223.15,-59.95C231.24,-58.44 239.59,-57.04 247.5,-56 502.37,-22.53 811.38,-13.8 923.88,-11.66"/>
<polygon fill="midnightblue" stroke="midnightblue" points="222.22,-56.57 213.08,-61.93 223.57,-63.44 222.22,-56.57"/>
</g>
<!-- Node6&#45;&gt;Node4 -->
<g id="edge8" class="edge">
<title>Node6&#45;&gt;Node4</title>
<path fill="none" stroke="midnightblue" d="M202.33,-57.52C226.19,-45.98 260.37,-29.44 280.91,-19.51"/>
<polygon fill="midnightblue" stroke="midnightblue" points="200.6,-54.47 193.12,-61.98 203.65,-60.77 200.6,-54.47"/>
</g>
<!-- Node6&#45;&gt;Node5 -->
<g id="edge9" class="edge">
<title>Node6&#45;&gt;Node5</title>
<path fill="none" stroke="midnightblue" d="M175.5,-51.82C175.5,-41 175.5,-27.9 175.5,-19.51"/>
<polygon fill="midnightblue" stroke="midnightblue" points="172,-51.98 175.5,-61.98 179,-51.98 172,-51.98"/>
</g>
<!-- Node6&#45;&gt;Node7 -->
<g id="edge7" class="edge">
<title>Node6&#45;&gt;Node7</title>
<path fill="none" stroke="midnightblue" d="M148.12,-57.67C123.48,-46.13 87.96,-29.49 66.66,-19.51"/>
<polygon fill="midnightblue" stroke="midnightblue" points="146.76,-60.9 157.3,-61.98 149.73,-54.56 146.76,-60.9"/>
</g>
<!-- Node9 -->
<g id="node9" class="node">
<title>Node9</title>
<g id="a_node9"><a xlink:href="GeometryFlatEffect_8h.html" target="_top" xlink:title=" ">
<polygon fill="none" stroke="black" points="1645.5,-123.5 1645.5,-153.5 1785.5,-153.5 1785.5,-123.5 1645.5,-123.5"/>
<text text-anchor="start" x="1653.5" y="-141.5" font-family="Helvetica,sans-Serif" font-size="10.00">include/Effects/Geometry</text>
<text text-anchor="middle" x="1715.5" y="-130.5" font-family="Helvetica,sans-Serif" font-size="10.00">FlatEffect.h</text>
</a>
</g>
</g>
<!-- Node8&#45;&gt;Node9 -->
<g id="edge11" class="edge">
<title>Node8&#45;&gt;Node9</title>
<path fill="none" stroke="midnightblue" d="M1214.22,-194.73C1305.61,-188.07 1482.22,-173.87 1631.5,-154 1636.05,-153.39 1640.73,-152.72 1645.44,-152.01"/>
<polygon fill="midnightblue" stroke="midnightblue" points="1213.76,-191.26 1204.04,-195.47 1214.27,-198.24 1213.76,-191.26"/>
</g>
<!-- Node10 -->
<g id="node10" class="node">
<title>Node10</title>
<g id="a_node10"><a xlink:href="GeometryFlatScene_8h.html" target="_top" xlink:title=" ">
<polygon fill="none" stroke="black" points="1606.5,-56.5 1606.5,-86.5 1766.5,-86.5 1766.5,-56.5 1606.5,-56.5"/>
<text text-anchor="start" x="1614.5" y="-74.5" font-family="Helvetica,sans-Serif" font-size="10.00">include/Scenes/GeometryFlat</text>
<text text-anchor="middle" x="1686.5" y="-63.5" font-family="Helvetica,sans-Serif" font-size="10.00">Scene.h</text>
</a>
</g>
</g>
<!-- Node8&#45;&gt;Node10 -->
<g id="edge44" class="edge">
<title>Node8&#45;&gt;Node10</title>
<path fill="none" stroke="midnightblue" d="M1214.28,-196.48C1315.75,-191.68 1512.89,-179.34 1577.5,-154 1616.44,-138.73 1653.64,-105.61 1672.89,-86.63"/>
<polygon fill="midnightblue" stroke="midnightblue" points="1214,-192.99 1204.18,-196.95 1214.33,-199.98 1214,-192.99"/>
</g>
<!-- Node11 -->
<g id="node11" class="node">
<title>Node11</title>
<g id="a_node11"><a xlink:href="SolidEffect_8h.html" target="_top" xlink:title=" ">
<polygon fill="none" stroke="black" points="1399.5,-129 1399.5,-148 1551.5,-148 1551.5,-129 1399.5,-129"/>
<text text-anchor="middle" x="1475.5" y="-136" font-family="Helvetica,sans-Serif" font-size="10.00">include/Effects/SolidEffect.h</text>
</a>
</g>
</g>
<!-- Node8&#45;&gt;Node11 -->
<g id="edge14" class="edge">
<title>Node8&#45;&gt;Node11</title>
<path fill="none" stroke="midnightblue" d="M1208.87,-188.62C1271.42,-177.09 1371.18,-158.72 1429.31,-148.01"/>
<polygon fill="midnightblue" stroke="midnightblue" points="1207.98,-185.22 1198.78,-190.48 1209.25,-192.11 1207.98,-185.22"/>
</g>
<!-- Node12 -->
<g id="node12" class="node">
<title>Node12</title>
<g id="a_node12"><a xlink:href="CubeSolidScene_8h.html" target="_top" xlink:title=" ">
<polygon fill="none" stroke="black" points="1447,-56.5 1447,-86.5 1588,-86.5 1588,-56.5 1447,-56.5"/>
<text text-anchor="start" x="1455" y="-74.5" font-family="Helvetica,sans-Serif" font-size="10.00">include/Scenes/CubeSolid</text>
<text text-anchor="middle" x="1517.5" y="-63.5" font-family="Helvetica,sans-Serif" font-size="10.00">Scene.h</text>
</a>
</g>
</g>
<!-- Node8&#45;&gt;Node12 -->
<g id="edge40" class="edge">
<title>Node8&#45;&gt;Node12</title>
<path fill="none" stroke="midnightblue" d="M1214.34,-196.64C1322.75,-191.87 1537.84,-179.29 1560.5,-154 1578.75,-133.62 1553.44,-104.1 1534.61,-86.75"/>
<polygon fill="midnightblue" stroke="midnightblue" points="1214.03,-193.15 1204.19,-197.08 1214.33,-200.15 1214.03,-193.15"/>
</g>
<!-- Node13 -->
<g id="node13" class="node">
<title>Node13</title>
<g id="a_node13"><a xlink:href="DoubleCubeScene_8h.html" target="_top" xlink:title=" ">
<polygon fill="none" stroke="black" points="1276.5,-56.5 1276.5,-86.5 1428.5,-86.5 1428.5,-56.5 1276.5,-56.5"/>
<text text-anchor="start" x="1284.5" y="-74.5" font-family="Helvetica,sans-Serif" font-size="10.00">include/Scenes/DoubleCube</text>
<text text-anchor="middle" x="1352.5" y="-63.5" font-family="Helvetica,sans-Serif" font-size="10.00">Scene.h</text>
</a>
</g>
</g>
<!-- Node8&#45;&gt;Node13 -->
<g id="edge43" class="edge">
<title>Node8&#45;&gt;Node13</title>
<path fill="none" stroke="midnightblue" d="M1214.09,-190.34C1259.05,-182.8 1314.92,-170.49 1331.5,-154 1349.53,-136.08 1352.75,-104.87 1352.97,-86.71"/>
<polygon fill="midnightblue" stroke="midnightblue" points="1213.41,-186.91 1204.1,-191.97 1214.53,-193.82 1213.41,-186.91"/>
</g>
<!-- Node14 -->
<g id="node14" class="node">
<title>Node14</title>
<g id="a_node14"><a xlink:href="SolidGeometryEffect_8h.html" target="_top" xlink:title=" ">
<polygon fill="none" stroke="black" points="279.5,-123.5 279.5,-153.5 443.5,-153.5 443.5,-123.5 279.5,-123.5"/>
<text text-anchor="start" x="287.5" y="-141.5" font-family="Helvetica,sans-Serif" font-size="10.00">include/Effects/SolidGeometry</text>
<text text-anchor="middle" x="361.5" y="-130.5" font-family="Helvetica,sans-Serif" font-size="10.00">Effect.h</text>
</a>
</g>
</g>
<!-- Node8&#45;&gt;Node14 -->
<g id="edge19" class="edge">
<title>Node8&#45;&gt;Node14</title>
<path fill="none" stroke="midnightblue" d="M1090.71,-196.77C969.16,-191.99 690.54,-179.1 457.5,-154 452.98,-153.51 448.34,-152.97 443.66,-152.38"/>
<polygon fill="midnightblue" stroke="midnightblue" points="1090.8,-200.27 1100.93,-197.17 1091.07,-193.28 1090.8,-200.27"/>
</g>
<!-- Node15 -->
<g id="node15" class="node">
<title>Node15</title>
<g id="a_node15"><a xlink:href="CubeSolidGeometryScene_8h.html" target="_top" xlink:title=" ">
<polygon fill="none" stroke="black" points="372,-56.5 372,-86.5 513,-86.5 513,-56.5 372,-56.5"/>
<text text-anchor="start" x="380" y="-74.5" font-family="Helvetica,sans-Serif" font-size="10.00">include/Scenes/CubeSolid</text>
<text text-anchor="middle" x="442.5" y="-63.5" font-family="Helvetica,sans-Serif" font-size="10.00">GeometryScene.h</text>
</a>
</g>
</g>
<!-- Node8&#45;&gt;Node15 -->
<g id="edge39" class="edge">
<title>Node8&#45;&gt;Node15</title>
<path fill="none" stroke="midnightblue" d="M1090.8,-198.16C894.99,-195.18 298.73,-183.7 270.5,-154 261.01,-144.01 262.24,-134.03 270.5,-123 277.47,-113.69 334.96,-98.03 381.58,-86.61"/>
<polygon fill="midnightblue" stroke="midnightblue" points="1090.87,-201.66 1100.92,-198.31 1090.97,-194.66 1090.87,-201.66"/>
</g>
<!-- Node16 -->
<g id="node16" class="node">
<title>Node16</title>
<g id="a_node16"><a xlink:href="TextureEffect_8h.html" target="_top" xlink:title=" ">
<polygon fill="none" stroke="black" points="499.5,-129 499.5,-148 663.5,-148 663.5,-129 499.5,-129"/>
<text text-anchor="middle" x="581.5" y="-136" font-family="Helvetica,sans-Serif" font-size="10.00">include/Effects/TextureEffect.h</text>
</a>
</g>
</g>
<!-- Node8&#45;&gt;Node16 -->
<g id="edge22" class="edge">
<title>Node8&#45;&gt;Node16</title>
<path fill="none" stroke="midnightblue" d="M1090.62,-194.24C999.85,-187.01 825.34,-172.15 677.5,-154 663.45,-152.27 648.28,-150.12 634.24,-148"/>
<polygon fill="midnightblue" stroke="midnightblue" points="1090.49,-197.74 1100.74,-195.04 1091.04,-190.76 1090.49,-197.74"/>
</g>
<!-- Node17 -->
<g id="node17" class="node">
<title>Node17</title>
<g id="a_node17"><a xlink:href="CubeSkinScene_8h.html" target="_top" xlink:title=" ">
<polygon fill="none" stroke="black" points="531.5,-62 531.5,-81 707.5,-81 707.5,-62 531.5,-62"/>
<text text-anchor="middle" x="619.5" y="-69" font-family="Helvetica,sans-Serif" font-size="10.00">include/Scenes/CubeSkinScene.h</text>
</a>
</g>
</g>
<!-- Node8&#45;&gt;Node17 -->
<g id="edge38" class="edge">
<title>Node8&#45;&gt;Node17</title>
<path fill="none" stroke="midnightblue" d="M1090.44,-199.48C933.61,-200.06 530.93,-197.28 490.5,-154 458.4,-119.64 532.83,-93.75 581.49,-81.1"/>
<polygon fill="midnightblue" stroke="midnightblue" points="1090.87,-202.98 1100.85,-199.44 1090.84,-195.98 1090.87,-202.98"/>
</g>
<!-- Node18 -->
<g id="node18" class="node">
<title>Node18</title>
<g id="a_node18"><a xlink:href="VertexColorEffect_8h.html" target="_top" xlink:title=" ">
<polygon fill="none" stroke="black" points="719.5,-123.5 719.5,-153.5 867.5,-153.5 867.5,-123.5 719.5,-123.5"/>
<text text-anchor="start" x="727.5" y="-141.5" font-family="Helvetica,sans-Serif" font-size="10.00">include/Effects/VertexColor</text>
<text text-anchor="middle" x="793.5" y="-130.5" font-family="Helvetica,sans-Serif" font-size="10.00">Effect.h</text>
</a>
</g>
</g>
<!-- Node8&#45;&gt;Node18 -->
<g id="edge25" class="edge">
<title>Node8&#45;&gt;Node18</title>
<path fill="none" stroke="midnightblue" d="M1090.71,-189.05C1034.96,-180.03 950.71,-166.31 877.5,-154 874.29,-153.46 871.01,-152.91 867.7,-152.34"/>
<polygon fill="midnightblue" stroke="midnightblue" points="1090.35,-192.53 1100.78,-190.67 1091.47,-185.62 1090.35,-192.53"/>
</g>
<!-- Node19 -->
<g id="node19" class="node">
<title>Node19</title>
<g id="a_node19"><a xlink:href="CubeVertexColorScene_8h.html" target="_top" xlink:title=" ">
<polygon fill="none" stroke="black" points="725,-56.5 725,-86.5 874,-86.5 874,-56.5 725,-56.5"/>
<text text-anchor="start" x="733" y="-74.5" font-family="Helvetica,sans-Serif" font-size="10.00">include/Scenes/CubeVertex</text>
<text text-anchor="middle" x="799.5" y="-63.5" font-family="Helvetica,sans-Serif" font-size="10.00">ColorScene.h</text>
</a>
</g>
</g>
<!-- Node8&#45;&gt;Node19 -->
<g id="edge41" class="edge">
<title>Node8&#45;&gt;Node19</title>
<path fill="none" stroke="midnightblue" d="M1090.64,-197.21C975.02,-193.22 735.5,-181.68 710.5,-154 687.47,-128.5 730.47,-102.23 764.35,-86.63"/>
<polygon fill="midnightblue" stroke="midnightblue" points="1090.65,-200.71 1100.76,-197.55 1090.89,-193.71 1090.65,-200.71"/>
</g>
<!-- Node20 -->
<g id="node20" class="node">
<title>Node20</title>
<g id="a_node20"><a xlink:href="VertexFlatEffect_8h.html" target="_top" xlink:title=" ">
<polygon fill="none" stroke="black" points="1164,-123.5 1164,-153.5 1305,-153.5 1305,-123.5 1164,-123.5"/>
<text text-anchor="start" x="1172" y="-141.5" font-family="Helvetica,sans-Serif" font-size="10.00">include/Effects/VertexFlat</text>
<text text-anchor="middle" x="1234.5" y="-130.5" font-family="Helvetica,sans-Serif" font-size="10.00">Effect.h</text>
</a>
</g>
</g>
<!-- Node8&#45;&gt;Node20 -->
<g id="edge28" class="edge">
<title>Node8&#45;&gt;Node20</title>
<path fill="none" stroke="midnightblue" d="M1172.53,-184.47C1185.51,-175.05 1202.33,-162.84 1215.17,-153.52"/>
<polygon fill="midnightblue" stroke="midnightblue" points="1170.29,-181.77 1164.25,-190.48 1174.4,-187.43 1170.29,-181.77"/>
</g>
<!-- Node21 -->
<g id="node21" class="node">
<title>Node21</title>
<g id="a_node21"><a xlink:href="CubeFlatIndependentScene_8h.html" target="_top" xlink:title=" ">
<polygon fill="none" stroke="black" points="1061,-56.5 1061,-86.5 1258,-86.5 1258,-56.5 1061,-56.5"/>
<text text-anchor="start" x="1069" y="-74.5" font-family="Helvetica,sans-Serif" font-size="10.00">include/Scenes/CubeFlatIndependent</text>
<text text-anchor="middle" x="1159.5" y="-63.5" font-family="Helvetica,sans-Serif" font-size="10.00">Scene.h</text>
</a>
</g>
</g>
<!-- Node8&#45;&gt;Node21 -->
<g id="edge37" class="edge">
<title>Node8&#45;&gt;Node21</title>
<path fill="none" stroke="midnightblue" d="M1214.42,-189.69C1254.76,-182.22 1302.12,-170.28 1314.5,-154 1340.35,-119.99 1291.14,-98.76 1241.47,-86.53"/>
<polygon fill="midnightblue" stroke="midnightblue" points="1213.57,-186.29 1204.34,-191.5 1214.8,-193.18 1213.57,-186.29"/>
</g>
<!-- Node22 -->
<g id="node22" class="node">
<title>Node22</title>
<g id="a_node22"><a xlink:href="VertexPositionColorEffect_8h.html" target="_top" xlink:title=" ">
<polygon fill="none" stroke="black" points="1804,-123.5 1804,-153.5 1965,-153.5 1965,-123.5 1804,-123.5"/>
<text text-anchor="start" x="1812" y="-141.5" font-family="Helvetica,sans-Serif" font-size="10.00">include/Effects/VertexPosition</text>
<text text-anchor="middle" x="1884.5" y="-130.5" font-family="Helvetica,sans-Serif" font-size="10.00">ColorEffect.h</text>
</a>
</g>
</g>
<!-- Node8&#45;&gt;Node22 -->
<g id="edge31" class="edge">
<title>Node8&#45;&gt;Node22</title>
<path fill="none" stroke="midnightblue" d="M1214.23,-196.52C1328.86,-191.5 1582.24,-178.49 1794.5,-154 1797.49,-153.66 1800.53,-153.28 1803.59,-152.89"/>
<polygon fill="midnightblue" stroke="midnightblue" points="1214.08,-193.02 1204.24,-196.95 1214.38,-200.02 1214.08,-193.02"/>
</g>
<!-- Node23 -->
<g id="node23" class="node">
<title>Node23</title>
<g id="a_node23"><a xlink:href="CubeVertexPositionColorScene_8h.html" target="_top" xlink:title=" ">
<polygon fill="none" stroke="black" points="1798,-56.5 1798,-86.5 1947,-86.5 1947,-56.5 1798,-56.5"/>
<text text-anchor="start" x="1806" y="-74.5" font-family="Helvetica,sans-Serif" font-size="10.00">include/Scenes/CubeVertex</text>
<text text-anchor="middle" x="1872.5" y="-63.5" font-family="Helvetica,sans-Serif" font-size="10.00">PositionColorScene.h</text>
</a>
</g>
</g>
<!-- Node8&#45;&gt;Node23 -->
<g id="edge42" class="edge">
<title>Node8&#45;&gt;Node23</title>
<path fill="none" stroke="midnightblue" d="M1214.39,-197.91C1401.24,-194.33 1948.45,-181.52 1974.5,-154 1999.75,-127.33 1952.19,-101.78 1913.87,-86.61"/>
<polygon fill="midnightblue" stroke="midnightblue" points="1214.12,-194.42 1204.18,-198.11 1214.25,-201.42 1214.12,-194.42"/>
</g>
<!-- Node24 -->
<g id="node24" class="node">
<title>Node24</title>
<g id="a_node24"><a xlink:href="WaveVertexTextureEffect_8h.html" target="_top" xlink:title=" ">
<polygon fill="none" stroke="black" points="997,-123.5 997,-153.5 1146,-153.5 1146,-123.5 997,-123.5"/>
<text text-anchor="start" x="1005" y="-141.5" font-family="Helvetica,sans-Serif" font-size="10.00">include/Effects/WaveVertex</text>
<text text-anchor="middle" x="1071.5" y="-130.5" font-family="Helvetica,sans-Serif" font-size="10.00">TextureEffect.h</text>
</a>
</g>
</g>
<!-- Node8&#45;&gt;Node24 -->
<g id="edge34" class="edge">
<title>Node8&#45;&gt;Node24</title>
<path fill="none" stroke="midnightblue" d="M1132.72,-184.47C1119.89,-175.05 1103.27,-162.84 1090.59,-153.52"/>
<polygon fill="midnightblue" stroke="midnightblue" points="1130.76,-187.38 1140.89,-190.48 1134.91,-181.73 1130.76,-187.38"/>
</g>
<!-- Node9&#45;&gt;Node10 -->
<g id="edge12" class="edge">
<title>Node9&#45;&gt;Node10</title>
<path fill="none" stroke="midnightblue" d="M1705.01,-113.99C1700.91,-104.8 1696.35,-94.58 1692.78,-86.58"/>
<polygon fill="midnightblue" stroke="midnightblue" points="1701.94,-115.69 1709.21,-123.4 1708.33,-112.84 1701.94,-115.69"/>
</g>
<!-- Node10&#45;&gt;Node3 -->
<g id="edge13" class="edge">
<title>Node10&#45;&gt;Node3</title>
<path fill="none" stroke="midnightblue" d="M1596.43,-55.95C1370.33,-29.95 1112.25,-17.13 1011.16,-12.76"/>
<polygon fill="midnightblue" stroke="midnightblue" points="1596.16,-59.44 1606.49,-57.12 1596.96,-52.49 1596.16,-59.44"/>
</g>
<!-- Node11&#45;&gt;Node12 -->
<g id="edge15" class="edge">
<title>Node11&#45;&gt;Node12</title>
<path fill="none" stroke="midnightblue" d="M1486.79,-120.03C1493.56,-109.56 1502.06,-96.4 1508.4,-86.59"/>
<polygon fill="midnightblue" stroke="midnightblue" points="1483.65,-118.44 1481.16,-128.73 1489.53,-122.23 1483.65,-118.44"/>
</g>
<!-- Node11&#45;&gt;Node13 -->
<g id="edge17" class="edge">
<title>Node11&#45;&gt;Node13</title>
<path fill="none" stroke="midnightblue" d="M1450.32,-124.19C1429.63,-113.26 1400.39,-97.81 1379.28,-86.65"/>
<polygon fill="midnightblue" stroke="midnightblue" points="1448.69,-127.29 1459.17,-128.87 1451.96,-121.1 1448.69,-127.29"/>
</g>
<!-- Node12&#45;&gt;Node3 -->
<g id="edge16" class="edge">
<title>Node12&#45;&gt;Node3</title>
<path fill="none" stroke="midnightblue" d="M1436.66,-55.97C1273.57,-33.8 1092.5,-19.71 1011.06,-13.94"/>
<polygon fill="midnightblue" stroke="midnightblue" points="1436.5,-59.48 1446.88,-57.37 1437.45,-52.54 1436.5,-59.48"/>
</g>
<!-- Node13&#45;&gt;Node3 -->
<g id="edge18" class="edge">
<title>Node13&#45;&gt;Node3</title>
<path fill="none" stroke="midnightblue" d="M1266.12,-55.8C1169.46,-40.38 1067.78,-25.46 1011.26,-17.28"/>
<polygon fill="midnightblue" stroke="midnightblue" points="1265.63,-59.26 1276.06,-57.39 1266.73,-52.35 1265.63,-59.26"/>
</g>
<!-- Node14&#45;&gt;Node15 -->
<g id="edge20" class="edge">
<title>Node14&#45;&gt;Node15</title>
<path fill="none" stroke="midnightblue" d="M387.19,-116.88C399.5,-107.01 413.93,-95.43 424.96,-86.58"/>
<polygon fill="midnightblue" stroke="midnightblue" points="384.68,-114.41 379.08,-123.4 389.07,-119.87 384.68,-114.41"/>
</g>
<!-- Node15&#45;&gt;Node3 -->
<g id="edge21" class="edge">
<title>Node15&#45;&gt;Node3</title>
<path fill="none" stroke="midnightblue" d="M523.19,-55.98C676.45,-34.72 845.59,-20.38 923.78,-14.28"/>
<polygon fill="midnightblue" stroke="midnightblue" points="522.54,-52.54 513.12,-57.39 523.51,-59.47 522.54,-52.54"/>
</g>
<!-- Node16&#45;&gt;Node17 -->
<g id="edge23" class="edge">
<title>Node16&#45;&gt;Node17</title>
<path fill="none" stroke="midnightblue" d="M591.71,-120.03C599.07,-107.45 608.68,-91.01 614.46,-81.13"/>
<polygon fill="midnightblue" stroke="midnightblue" points="588.65,-118.33 586.62,-128.73 594.69,-121.87 588.65,-118.33"/>
</g>
<!-- Node17&#45;&gt;Node3 -->
<g id="edge24" class="edge">
<title>Node17&#45;&gt;Node3</title>
<path fill="none" stroke="midnightblue" d="M679.29,-60.28C748.83,-48.39 861.97,-29.04 923.78,-18.47"/>
<polygon fill="midnightblue" stroke="midnightblue" points="678.63,-56.84 669.36,-61.98 679.81,-63.74 678.63,-56.84"/>
</g>
<!-- Node18&#45;&gt;Node19 -->
<g id="edge26" class="edge">
<title>Node18&#45;&gt;Node19</title>
<path fill="none" stroke="midnightblue" d="M795.72,-113.4C796.56,-104.37 797.48,-94.41 798.2,-86.58"/>
<polygon fill="midnightblue" stroke="midnightblue" points="792.24,-113.12 794.8,-123.4 799.21,-113.76 792.24,-113.12"/>
</g>
<!-- Node19&#45;&gt;Node3 -->
<g id="edge27" class="edge">
<title>Node19&#45;&gt;Node3</title>
<path fill="none" stroke="midnightblue" d="M849.07,-52.94C880.02,-41.98 918.52,-28.35 943.05,-19.66"/>
<polygon fill="midnightblue" stroke="midnightblue" points="847.57,-49.76 839.31,-56.4 849.91,-56.36 847.57,-49.76"/>
</g>
<!-- Node20&#45;&gt;Node21 -->
<g id="edge29" class="edge">
<title>Node20&#45;&gt;Node21</title>
<path fill="none" stroke="midnightblue" d="M1210.38,-116.6C1199.06,-106.78 1185.86,-95.34 1175.74,-86.58"/>
<polygon fill="midnightblue" stroke="midnightblue" points="1208.38,-119.49 1218.23,-123.4 1212.96,-114.2 1208.38,-119.49"/>
</g>
<!-- Node21&#45;&gt;Node3 -->
<g id="edge30" class="edge">
<title>Node21&#45;&gt;Node3</title>
<path fill="none" stroke="midnightblue" d="M1104.19,-53.36C1068.48,-42.29 1023.54,-28.37 995.16,-19.57"/>
<polygon fill="midnightblue" stroke="midnightblue" points="1103.41,-56.78 1114,-56.4 1105.48,-50.1 1103.41,-56.78"/>
</g>
<!-- Node22&#45;&gt;Node23 -->
<g id="edge32" class="edge">
<title>Node22&#45;&gt;Node23</title>
<path fill="none" stroke="midnightblue" d="M1880.05,-113.4C1878.38,-104.37 1876.54,-94.41 1875.1,-86.58"/>
<polygon fill="midnightblue" stroke="midnightblue" points="1876.64,-114.2 1881.9,-123.4 1883.52,-112.93 1876.64,-114.2"/>
</g>
<!-- Node23&#45;&gt;Node3 -->
<g id="edge33" class="edge">
<title>Node23&#45;&gt;Node3</title>
<path fill="none" stroke="midnightblue" d="M1787.66,-57.35C1783.55,-56.86 1779.48,-56.41 1775.5,-56 1484.79,-26.24 1133.08,-15.13 1011.41,-12.01"/>
<polygon fill="midnightblue" stroke="midnightblue" points="1787.56,-60.87 1797.92,-58.64 1788.43,-53.92 1787.56,-60.87"/>
</g>
<!-- Node25 -->
<g id="node25" class="node">
<title>Node25</title>
<g id="a_node25"><a xlink:href="VertexWaveScene_8h.html" target="_top" xlink:title=" ">
<polygon fill="none" stroke="black" points="892,-56.5 892,-86.5 1043,-86.5 1043,-56.5 892,-56.5"/>
<text text-anchor="start" x="900" y="-74.5" font-family="Helvetica,sans-Serif" font-size="10.00">include/Scenes/VertexWave</text>
<text text-anchor="middle" x="967.5" y="-63.5" font-family="Helvetica,sans-Serif" font-size="10.00">Scene.h</text>
</a>
</g>
</g>
<!-- Node24&#45;&gt;Node25 -->
<g id="edge35" class="edge">
<title>Node24&#45;&gt;Node25</title>
<path fill="none" stroke="midnightblue" d="M1040.32,-118.02C1024.14,-107.9 1004.73,-95.77 990.02,-86.58"/>
<polygon fill="midnightblue" stroke="midnightblue" points="1038.6,-121.06 1048.93,-123.4 1042.31,-115.13 1038.6,-121.06"/>
</g>
<!-- Node25&#45;&gt;Node3 -->
<g id="edge36" class="edge">
<title>Node25&#45;&gt;Node3</title>
<path fill="none" stroke="midnightblue" d="M967.5,-46.29C967.5,-36.86 967.5,-26.65 967.5,-19.66"/>
<polygon fill="midnightblue" stroke="midnightblue" points="964,-46.4 967.5,-56.4 971,-46.4 964,-46.4"/>
</g>
<!-- Node26&#45;&gt;Node8 -->
<g id="edge46" class="edge">
<title>Node26&#45;&gt;Node8</title>
<path fill="none" stroke="midnightblue" d="M722.2,-245.43C832.52,-234.04 1012.83,-215.42 1100.87,-206.33"/>
<polygon fill="midnightblue" stroke="midnightblue" points="721.67,-241.96 712.08,-246.47 722.39,-248.93 721.67,-241.96"/>
</g>
<!-- Node27&#45;&gt;Node2 -->
<g id="edge48" class="edge">
<title>Node27&#45;&gt;Node2</title>
<path fill="none" stroke="midnightblue" d="M893.61,-126.45C887.9,-125.12 882.08,-123.91 876.5,-123 650.48,-86.14 588.6,-123.37 362.5,-87 353.43,-85.54 343.69,-83.31 334.87,-81.04"/>
<polygon fill="midnightblue" stroke="midnightblue" points="893.1,-129.93 903.65,-128.95 894.79,-123.14 893.1,-129.93"/>
</g>
<!-- Node27&#45;&gt;Node10 -->
<g id="edge56" class="edge">
<title>Node27&#45;&gt;Node10</title>
<path fill="none" stroke="midnightblue" d="M970.76,-126.54C976.66,-125.16 982.72,-123.91 988.5,-123 1256.34,-80.82 1328.01,-116.84 1597.5,-87 1600.46,-86.67 1603.46,-86.31 1606.5,-85.93"/>
<polygon fill="midnightblue" stroke="midnightblue" points="969.91,-123.15 961.05,-128.97 971.6,-129.94 969.91,-123.15"/>
</g>
<!-- Node27&#45;&gt;Node12 -->
<g id="edge52" class="edge">
<title>Node27&#45;&gt;Node12</title>
<path fill="none" stroke="midnightblue" d="M971.59,-126.46C977.23,-125.14 982.99,-123.93 988.5,-123 1185.92,-89.78 1238.98,-112.88 1437.5,-87 1440.58,-86.6 1443.72,-86.16 1446.89,-85.69"/>
<polygon fill="midnightblue" stroke="midnightblue" points="970.51,-123.12 961.65,-128.93 972.2,-129.92 970.51,-123.12"/>
</g>
<!-- Node27&#45;&gt;Node13 -->
<g id="edge55" class="edge">
<title>Node27&#45;&gt;Node13</title>
<path fill="none" stroke="midnightblue" d="M972.62,-126.47C977.93,-125.2 983.33,-124 988.5,-123 1111.26,-99.28 1143.85,-105.52 1267.5,-87 1270.31,-86.58 1273.18,-86.14 1276.07,-85.69"/>
<polygon fill="midnightblue" stroke="midnightblue" points="971.42,-123.16 962.57,-128.98 973.12,-129.95 971.42,-123.16"/>
</g>
<!-- Node27&#45;&gt;Node15 -->
<g id="edge51" class="edge">
<title>Node27&#45;&gt;Node15</title>
<path fill="none" stroke="midnightblue" d="M893.2,-126.52C887.62,-125.2 881.94,-123.97 876.5,-123 720.84,-95.1 679.09,-109.12 522.5,-87 519.43,-86.57 516.29,-86.1 513.12,-85.61"/>
<polygon fill="midnightblue" stroke="midnightblue" points="892.49,-129.95 903.04,-128.98 894.19,-123.16 892.49,-129.95"/>
</g>
<!-- Node27&#45;&gt;Node17 -->
<g id="edge50" class="edge">
<title>Node27&#45;&gt;Node17</title>
<path fill="none" stroke="midnightblue" d="M891.01,-126.46C886.13,-125.25 881.21,-124.07 876.5,-123 804.01,-106.51 719.28,-90.48 667.52,-81.06"/>
<polygon fill="midnightblue" stroke="midnightblue" points="890.34,-129.9 900.89,-128.97 892.06,-123.12 890.34,-129.9"/>
</g>
<!-- Node27&#45;&gt;Node19 -->
<g id="edge53" class="edge">
<title>Node27&#45;&gt;Node19</title>
<path fill="none" stroke="midnightblue" d="M905.85,-124.47C883.36,-113.49 851.25,-97.79 828.2,-86.53"/>
<polygon fill="midnightblue" stroke="midnightblue" points="904.32,-127.62 914.84,-128.87 907.39,-121.33 904.32,-127.62"/>
</g>
<!-- Node27&#45;&gt;Node21 -->
<g id="edge49" class="edge">
<title>Node27&#45;&gt;Node21</title>
<path fill="none" stroke="midnightblue" d="M972.46,-126.06C1010.95,-115.04 1069.24,-98.34 1110.51,-86.53"/>
<polygon fill="midnightblue" stroke="midnightblue" points="971.29,-122.75 962.64,-128.87 973.22,-129.48 971.29,-122.75"/>
</g>
<!-- Node27&#45;&gt;Node23 -->
<g id="edge54" class="edge">
<title>Node27&#45;&gt;Node23</title>
<path fill="none" stroke="midnightblue" d="M970.56,-126.52C976.52,-125.13 982.65,-123.88 988.5,-123 1334.74,-70.84 1427,-120.93 1775.5,-87 1782.79,-86.29 1790.36,-85.41 1797.93,-84.44"/>
<polygon fill="midnightblue" stroke="midnightblue" points="969.61,-123.15 960.75,-128.97 971.3,-129.94 969.61,-123.15"/>
</g>
<!-- Node27&#45;&gt;Node25 -->
<g id="edge57" class="edge">
<title>Node27&#45;&gt;Node25</title>
<path fill="none" stroke="midnightblue" d="M942.08,-119.71C947.69,-109.29 954.68,-96.3 959.91,-86.59"/>
<polygon fill="midnightblue" stroke="midnightblue" points="938.88,-118.27 937.22,-128.73 945.04,-121.59 938.88,-118.27"/>
</g>
</g>
</svg>
