<?xml version="1.0" encoding="UTF-8" standalone="no"?>
<!DOCTYPE svg PUBLIC "-//W3C//DTD SVG 1.1//EN"
 "http://www.w3.org/Graphics/SVG/1.1/DTD/svg11.dtd">
<!-- Generated by graphviz version 2.43.0 (0)
 -->
<!-- Title: src/Graphics.cpp Pages: 1 -->
<svg width="1527pt" height="420pt"
 viewBox="0.00 0.00 1526.50 420.00" xmlns="http://www.w3.org/2000/svg" xmlns:xlink="http://www.w3.org/1999/xlink">
<g id="graph0" class="graph" transform="scale(1 1) rotate(0) translate(4 416)">
<title>src/Graphics.cpp</title>
<!-- Node1 -->
<g id="node1" class="node">
<title>Node1</title>
<g id="a_node1"><a xlink:title=" ">
<polygon fill="#bfbfbf" stroke="black" points="746,-392.5 746,-411.5 843,-411.5 843,-392.5 746,-392.5"/>
<text text-anchor="middle" x="794.5" y="-399.5" font-family="Helvetica,sans-Serif" font-size="10.00">src/Graphics.cpp</text>
</a>
</g>
</g>
<!-- Node2 -->
<g id="node2" class="node">
<title>Node2</title>
<g id="a_node2"><a xlink:href="Graphics_8h.html" target="_top" xlink:title=" ">
<polygon fill="none" stroke="black" points="484.5,-280.5 484.5,-299.5 552.5,-299.5 552.5,-280.5 484.5,-280.5"/>
<text text-anchor="middle" x="518.5" y="-287.5" font-family="Helvetica,sans-Serif" font-size="10.00">Graphics.h</text>
</a>
</g>
</g>
<!-- Node1&#45;&gt;Node2 -->
<g id="edge1" class="edge">
<title>Node1&#45;&gt;Node2</title>
<path fill="none" stroke="midnightblue" d="M785.05,-392.46C769.17,-378.56 735.6,-351.08 702.5,-336 657.23,-315.38 601.21,-303.41 562.95,-297.08"/>
<polygon fill="midnightblue" stroke="midnightblue" points="563.08,-293.55 552.66,-295.44 561.98,-300.47 563.08,-293.55"/>
</g>
<!-- Node4 -->
<g id="node4" class="node">
<title>Node4</title>
<g id="a_node4"><a xlink:title=" ">
<polygon fill="none" stroke="#bfbfbf" points="502.5,-112.5 502.5,-131.5 546.5,-131.5 546.5,-112.5 502.5,-112.5"/>
<text text-anchor="middle" x="524.5" y="-119.5" font-family="Helvetica,sans-Serif" font-size="10.00">string</text>
</a>
</g>
</g>
<!-- Node1&#45;&gt;Node4 -->
<g id="edge70" class="edge">
<title>Node1&#45;&gt;Node4</title>
<path fill="none" stroke="midnightblue" d="M745.97,-397.4C601.21,-386.02 182.5,-348.15 182.5,-291 182.5,-291 182.5,-291 182.5,-233 182.5,-194.58 205.71,-186.29 239.5,-168 336.56,-115.47 378.94,-153.15 492.13,-131.71"/>
<polygon fill="midnightblue" stroke="midnightblue" points="493.1,-135.08 502.21,-129.68 491.72,-128.22 493.1,-135.08"/>
</g>
<!-- Node14 -->
<g id="node14" class="node">
<title>Node14</title>
<g id="a_node14"><a xlink:title=" ">
<polygon fill="none" stroke="#bfbfbf" points="446.5,-0.5 446.5,-19.5 488.5,-19.5 488.5,-0.5 446.5,-0.5"/>
<text text-anchor="middle" x="467.5" y="-7.5" font-family="Helvetica,sans-Serif" font-size="10.00">array</text>
</a>
</g>
</g>
<!-- Node1&#45;&gt;Node14 -->
<g id="edge67" class="edge">
<title>Node1&#45;&gt;Node14</title>
<path fill="none" stroke="midnightblue" d="M745.64,-398.92C635.01,-393.86 368.21,-379.55 281.5,-356 216.46,-338.33 144.5,-358.39 144.5,-291 144.5,-291 144.5,-291 144.5,-233 144.5,-92.34 355.11,-34.09 436.2,-16.88"/>
<polygon fill="midnightblue" stroke="midnightblue" points="437.21,-20.24 446.31,-14.8 435.81,-13.38 437.21,-20.24"/>
</g>
<!-- Node29 -->
<g id="node29" class="node">
<title>Node29</title>
<g id="a_node29"><a xlink:href="DXErr_8h.html" target="_top" xlink:title=" ">
<polygon fill="none" stroke="black" points="641,-336.5 641,-355.5 694,-355.5 694,-336.5 641,-336.5"/>
<text text-anchor="middle" x="667.5" y="-343.5" font-family="Helvetica,sans-Serif" font-size="10.00">DXErr.h</text>
</a>
</g>
</g>
<!-- Node1&#45;&gt;Node29 -->
<g id="edge36" class="edge">
<title>Node1&#45;&gt;Node29</title>
<path fill="none" stroke="midnightblue" d="M774.38,-392.44C753.48,-383.56 720.57,-369.56 696.78,-359.45"/>
<polygon fill="midnightblue" stroke="midnightblue" points="698.1,-356.21 687.53,-355.52 695.36,-362.65 698.1,-356.21"/>
</g>
<!-- Node31 -->
<g id="node31" class="node">
<title>Node31</title>
<g id="a_node31"><a xlink:href="MainWindow_8h.html" target="_top" xlink:title=" ">
<polygon fill="none" stroke="black" points="750.5,-336.5 750.5,-355.5 838.5,-355.5 838.5,-336.5 750.5,-336.5"/>
<text text-anchor="middle" x="794.5" y="-343.5" font-family="Helvetica,sans-Serif" font-size="10.00">MainWindow.h</text>
</a>
</g>
</g>
<!-- Node1&#45;&gt;Node31 -->
<g id="edge39" class="edge">
<title>Node1&#45;&gt;Node31</title>
<path fill="none" stroke="midnightblue" d="M794.5,-392.08C794.5,-385.01 794.5,-374.86 794.5,-365.99"/>
<polygon fill="midnightblue" stroke="midnightblue" points="798,-365.75 794.5,-355.75 791,-365.75 798,-365.75"/>
</g>
<!-- Node36 -->
<g id="node36" class="node">
<title>Node36</title>
<g id="a_node36"><a xlink:href="Vector2_8h.html" target="_top" xlink:title=" ">
<polygon fill="none" stroke="black" points="859,-112.5 859,-131.5 992,-131.5 992,-112.5 859,-112.5"/>
<text text-anchor="middle" x="925.5" y="-119.5" font-family="Helvetica,sans-Serif" font-size="10.00">LinearAlgebra/Vector2.h</text>
</a>
</g>
</g>
<!-- Node1&#45;&gt;Node36 -->
<g id="edge58" class="edge">
<title>Node1&#45;&gt;Node36</title>
<path fill="none" stroke="midnightblue" d="M843.1,-396.04C903.44,-386.89 998.5,-361.31 998.5,-291 998.5,-291 998.5,-291 998.5,-233 998.5,-193.78 965.88,-157.84 944.25,-138.32"/>
<polygon fill="midnightblue" stroke="midnightblue" points="946.43,-135.58 936.59,-131.67 941.85,-140.87 946.43,-135.58"/>
</g>
<!-- Node38 -->
<g id="node38" class="node">
<title>Node38</title>
<g id="a_node38"><a xlink:href="ReadData_8h.html" target="_top" xlink:title=" ">
<polygon fill="none" stroke="black" points="1123,-336.5 1123,-355.5 1230,-355.5 1230,-336.5 1123,-336.5"/>
<text text-anchor="middle" x="1176.5" y="-343.5" font-family="Helvetica,sans-Serif" font-size="10.00">Utility/ReadData.h</text>
</a>
</g>
</g>
<!-- Node1&#45;&gt;Node38 -->
<g id="edge59" class="edge">
<title>Node1&#45;&gt;Node38</title>
<path fill="none" stroke="midnightblue" d="M843.27,-394.11C911.89,-384.41 1037.03,-366.72 1112.89,-355.99"/>
<polygon fill="midnightblue" stroke="midnightblue" points="1113.39,-359.46 1122.8,-354.59 1112.41,-352.53 1113.39,-359.46"/>
</g>
<!-- Node45 -->
<g id="node45" class="node">
<title>Node45</title>
<g id="a_node45"><a xlink:title=" ">
<polygon fill="none" stroke="#bfbfbf" points="1248.5,-336.5 1248.5,-355.5 1300.5,-355.5 1300.5,-336.5 1248.5,-336.5"/>
<text text-anchor="middle" x="1274.5" y="-343.5" font-family="Helvetica,sans-Serif" font-size="10.00">cassert</text>
</a>
</g>
</g>
<!-- Node1&#45;&gt;Node45 -->
<g id="edge68" class="edge">
<title>Node1&#45;&gt;Node45</title>
<path fill="none" stroke="midnightblue" d="M843.1,-398.37C923.27,-393.53 1088.34,-381.46 1237.96,-355.82"/>
<polygon fill="midnightblue" stroke="midnightblue" points="1239,-359.19 1248.25,-354.03 1237.8,-352.29 1239,-359.19"/>
</g>
<!-- Node46 -->
<g id="node46" class="node">
<title>Node46</title>
<g id="a_node46"><a xlink:title=" ">
<polygon fill="none" stroke="#bfbfbf" points="1319,-336.5 1319,-355.5 1384,-355.5 1384,-336.5 1319,-336.5"/>
<text text-anchor="middle" x="1351.5" y="-343.5" font-family="Helvetica,sans-Serif" font-size="10.00">functional</text>
</a>
</g>
</g>
<!-- Node1&#45;&gt;Node46 -->
<g id="edge69" class="edge">
<title>Node1&#45;&gt;Node46</title>
<path fill="none" stroke="midnightblue" d="M843.02,-398.77C932.91,-394.2 1131.54,-382.06 1308.54,-355.96"/>
<polygon fill="midnightblue" stroke="midnightblue" points="1309.18,-359.4 1318.56,-354.46 1308.15,-352.48 1309.18,-359.4"/>
</g>
<!-- Node3 -->
<g id="node3" class="node">
<title>Node3</title>
<g id="a_node3"><a xlink:href="EngineException_8h.html" target="_top" xlink:title=" ">
<polygon fill="none" stroke="black" points="597,-168.5 597,-187.5 704,-187.5 704,-168.5 597,-168.5"/>
<text text-anchor="middle" x="650.5" y="-175.5" font-family="Helvetica,sans-Serif" font-size="10.00">EngineException.h</text>
</a>
</g>
</g>
<!-- Node2&#45;&gt;Node3 -->
<g id="edge2" class="edge">
<title>Node2&#45;&gt;Node3</title>
<path fill="none" stroke="midnightblue" d="M518.71,-280.26C519.5,-266.58 522.94,-240 537.5,-224 552.28,-207.76 573.69,-197.28 593.92,-190.58"/>
<polygon fill="midnightblue" stroke="midnightblue" points="595.18,-193.85 603.71,-187.58 593.13,-187.16 595.18,-193.85"/>
</g>
<!-- Node6 -->
<g id="node6" class="node">
<title>Node6</title>
<g id="a_node6"><a xlink:href="Vector3_8h.html" target="_top" xlink:title=" ">
<polygon fill="none" stroke="black" points="351,-112.5 351,-131.5 484,-131.5 484,-112.5 351,-112.5"/>
<text text-anchor="middle" x="417.5" y="-119.5" font-family="Helvetica,sans-Serif" font-size="10.00">LinearAlgebra/Vector3.h</text>
</a>
</g>
</g>
<!-- Node2&#45;&gt;Node6 -->
<g id="edge5" class="edge">
<title>Node2&#45;&gt;Node6</title>
<path fill="none" stroke="midnightblue" d="M484.24,-281.77C481.29,-281.16 478.34,-280.57 475.5,-280 391.21,-263.2 359.43,-287.83 285.5,-244 257.79,-227.57 250.36,-218.32 239.5,-188 236.5,-179.63 234.04,-175.01 239.5,-168 252.33,-151.53 298.64,-140.13 340.8,-132.93"/>
<polygon fill="midnightblue" stroke="midnightblue" points="341.54,-136.35 350.84,-131.27 340.41,-129.44 341.54,-136.35"/>
</g>
<!-- Node18 -->
<g id="node18" class="node">
<title>Node18</title>
<g id="a_node18"><a xlink:href="GDIPlusManager_8h.html" target="_top" xlink:title=" ">
<polygon fill="none" stroke="black" points="546.5,-224.5 546.5,-243.5 652.5,-243.5 652.5,-224.5 546.5,-224.5"/>
<text text-anchor="middle" x="599.5" y="-231.5" font-family="Helvetica,sans-Serif" font-size="10.00">GDIPlusManager.h</text>
</a>
</g>
</g>
<!-- Node2&#45;&gt;Node18 -->
<g id="edge21" class="edge">
<title>Node2&#45;&gt;Node18</title>
<path fill="none" stroke="midnightblue" d="M531.51,-280.32C544.03,-271.98 563.18,-259.21 577.97,-249.35"/>
<polygon fill="midnightblue" stroke="midnightblue" points="580.14,-252.11 586.52,-243.65 576.26,-246.29 580.14,-252.11"/>
</g>
<!-- Node22 -->
<g id="node22" class="node">
<title>Node22</title>
<g id="a_node22"><a xlink:href="Surface_8h.html" target="_top" xlink:title=" ">
<polygon fill="none" stroke="black" points="368.5,-224.5 368.5,-243.5 430.5,-243.5 430.5,-224.5 368.5,-224.5"/>
<text text-anchor="middle" x="399.5" y="-231.5" font-family="Helvetica,sans-Serif" font-size="10.00">Surface.h</text>
</a>
</g>
</g>
<!-- Node2&#45;&gt;Node22 -->
<g id="edge25" class="edge">
<title>Node2&#45;&gt;Node22</title>
<path fill="none" stroke="midnightblue" d="M499.64,-280.44C480.23,-271.64 449.77,-257.81 427.54,-247.72"/>
<polygon fill="midnightblue" stroke="midnightblue" points="428.82,-244.46 418.27,-243.52 425.93,-250.84 428.82,-244.46"/>
</g>
<!-- Node27 -->
<g id="node27" class="node">
<title>Node27</title>
<g id="a_node27"><a xlink:title=" ">
<polygon fill="none" stroke="#bfbfbf" points="294.5,-224.5 294.5,-243.5 350.5,-243.5 350.5,-224.5 294.5,-224.5"/>
<text text-anchor="middle" x="322.5" y="-231.5" font-family="Helvetica,sans-Serif" font-size="10.00">d3d11.h</text>
</a>
</g>
</g>
<!-- Node2&#45;&gt;Node27 -->
<g id="edge34" class="edge">
<title>Node2&#45;&gt;Node27</title>
<path fill="none" stroke="midnightblue" d="M487.44,-280.44C453.01,-270.96 397.45,-255.65 360.46,-245.46"/>
<polygon fill="midnightblue" stroke="midnightblue" points="361.12,-242.01 350.55,-242.73 359.26,-248.76 361.12,-242.01"/>
</g>
<!-- Node28 -->
<g id="node28" class="node">
<title>Node28</title>
<g id="a_node28"><a xlink:title=" ">
<polygon fill="none" stroke="#bfbfbf" points="449,-224.5 449,-243.5 490,-243.5 490,-224.5 449,-224.5"/>
<text text-anchor="middle" x="469.5" y="-231.5" font-family="Helvetica,sans-Serif" font-size="10.00">wrl.h</text>
</a>
</g>
</g>
<!-- Node2&#45;&gt;Node28 -->
<g id="edge35" class="edge">
<title>Node2&#45;&gt;Node28</title>
<path fill="none" stroke="midnightblue" d="M510.41,-280.08C503.34,-272.3 492.91,-260.8 484.35,-251.37"/>
<polygon fill="midnightblue" stroke="midnightblue" points="486.75,-248.8 477.44,-243.75 481.57,-253.51 486.75,-248.8"/>
</g>
<!-- Node3&#45;&gt;Node4 -->
<g id="edge3" class="edge">
<title>Node3&#45;&gt;Node4</title>
<path fill="none" stroke="midnightblue" d="M630.53,-168.44C609.89,-159.6 577.44,-145.69 553.87,-135.59"/>
<polygon fill="midnightblue" stroke="midnightblue" points="554.94,-132.24 544.37,-131.52 552.18,-138.67 554.94,-132.24"/>
</g>
<!-- Node5 -->
<g id="node5" class="node">
<title>Node5</title>
<g id="a_node5"><a xlink:title=" ">
<polygon fill="none" stroke="#bfbfbf" points="565,-112.5 565,-131.5 658,-131.5 658,-112.5 565,-112.5"/>
<text text-anchor="middle" x="611.5" y="-119.5" font-family="Helvetica,sans-Serif" font-size="10.00">source_location</text>
</a>
</g>
</g>
<!-- Node3&#45;&gt;Node5 -->
<g id="edge4" class="edge">
<title>Node3&#45;&gt;Node5</title>
<path fill="none" stroke="midnightblue" d="M644.06,-168.08C638.55,-160.46 630.47,-149.26 623.74,-139.94"/>
<polygon fill="midnightblue" stroke="midnightblue" points="626.51,-137.81 617.82,-131.75 620.84,-141.91 626.51,-137.81"/>
</g>
<!-- Node7 -->
<g id="node7" class="node">
<title>Node7</title>
<g id="a_node7"><a xlink:href="Math_8h.html" target="_top" xlink:title=" ">
<polygon fill="none" stroke="black" points="101.5,-56.5 101.5,-75.5 151.5,-75.5 151.5,-56.5 101.5,-56.5"/>
<text text-anchor="middle" x="126.5" y="-63.5" font-family="Helvetica,sans-Serif" font-size="10.00">Math.h</text>
</a>
</g>
</g>
<!-- Node6&#45;&gt;Node7 -->
<g id="edge6" class="edge">
<title>Node6&#45;&gt;Node7</title>
<path fill="none" stroke="midnightblue" d="M371.39,-112.44C313.09,-101.63 214.03,-83.24 161.54,-73.5"/>
<polygon fill="midnightblue" stroke="midnightblue" points="162.16,-70.06 151.69,-71.67 160.89,-76.94 162.16,-70.06"/>
</g>
<!-- Node13 -->
<g id="node13" class="node">
<title>Node13</title>
<g id="a_node13"><a xlink:href="Matrix3_8h.html" target="_top" xlink:title=" ">
<polygon fill="none" stroke="black" points="456,-56.5 456,-75.5 519,-75.5 519,-56.5 456,-56.5"/>
<text text-anchor="middle" x="487.5" y="-63.5" font-family="Helvetica,sans-Serif" font-size="10.00">Matrix3.h</text>
</a>
</g>
</g>
<!-- Node6&#45;&gt;Node13 -->
<g id="edge12" class="edge">
<title>Node6&#45;&gt;Node13</title>
<path fill="none" stroke="midnightblue" d="M428.75,-112.32C439.3,-104.18 455.3,-91.84 467.94,-82.09"/>
<polygon fill="midnightblue" stroke="midnightblue" points="470.27,-84.71 476.05,-75.83 465.99,-79.17 470.27,-84.71"/>
</g>
<!-- Node6&#45;&gt;Node14 -->
<g id="edge17" class="edge">
<title>Node6&#45;&gt;Node14</title>
<path fill="none" stroke="midnightblue" d="M421.39,-112.15C426.91,-99.62 437.37,-76.01 446.5,-56 450.62,-46.97 455.29,-36.95 459.17,-28.67"/>
<polygon fill="midnightblue" stroke="midnightblue" points="462.34,-30.15 463.43,-19.61 456.01,-27.17 462.34,-30.15"/>
</g>
<!-- Node15 -->
<g id="node15" class="node">
<title>Node15</title>
<g id="a_node15"><a xlink:title=" ">
<polygon fill="none" stroke="#bfbfbf" points="621,-0.5 621,-19.5 674,-19.5 674,-0.5 621,-0.5"/>
<text text-anchor="middle" x="647.5" y="-7.5" font-family="Helvetica,sans-Serif" font-size="10.00">cstddef</text>
</a>
</g>
</g>
<!-- Node6&#45;&gt;Node15 -->
<g id="edge20" class="edge">
<title>Node6&#45;&gt;Node15</title>
<path fill="none" stroke="midnightblue" d="M449.35,-112.49C476.44,-104.69 516.01,-91.94 548.5,-76 577.82,-61.62 608.87,-40.06 628.22,-25.77"/>
<polygon fill="midnightblue" stroke="midnightblue" points="630.57,-28.38 636.47,-19.58 626.37,-22.78 630.57,-28.38"/>
</g>
<!-- Node16 -->
<g id="node16" class="node">
<title>Node16</title>
<g id="a_node16"><a xlink:title=" ">
<polygon fill="none" stroke="#bfbfbf" points="523.5,-0.5 523.5,-19.5 583.5,-19.5 583.5,-0.5 523.5,-0.5"/>
<text text-anchor="middle" x="553.5" y="-7.5" font-family="Helvetica,sans-Serif" font-size="10.00">iostream</text>
</a>
</g>
</g>
<!-- Node6&#45;&gt;Node16 -->
<g id="edge18" class="edge">
<title>Node6&#45;&gt;Node16</title>
<path fill="none" stroke="midnightblue" d="M458.82,-112.48C481.61,-105.91 508.97,-94.67 527.5,-76 539.93,-63.47 546.62,-44.25 550.09,-29.95"/>
<polygon fill="midnightblue" stroke="midnightblue" points="553.6,-30.27 552.22,-19.77 546.75,-28.83 553.6,-30.27"/>
</g>
<!-- Node17 -->
<g id="node17" class="node">
<title>Node17</title>
<g id="a_node17"><a xlink:title=" ">
<polygon fill="none" stroke="#bfbfbf" points="649,-56.5 649,-75.5 708,-75.5 708,-56.5 649,-56.5"/>
<text text-anchor="middle" x="678.5" y="-63.5" font-family="Helvetica,sans-Serif" font-size="10.00">compare</text>
</a>
</g>
</g>
<!-- Node6&#45;&gt;Node17 -->
<g id="edge19" class="edge">
<title>Node6&#45;&gt;Node17</title>
<path fill="none" stroke="midnightblue" d="M458.86,-112.44C508.24,-102.23 590.25,-85.26 638.86,-75.2"/>
<polygon fill="midnightblue" stroke="midnightblue" points="639.62,-78.62 648.7,-73.16 638.2,-71.76 639.62,-78.62"/>
</g>
<!-- Node8 -->
<g id="node8" class="node">
<title>Node8</title>
<g id="a_node8"><a xlink:title=" ">
<polygon fill="none" stroke="#bfbfbf" points="0,-0.5 0,-19.5 51,-19.5 51,-0.5 0,-0.5"/>
<text text-anchor="middle" x="25.5" y="-7.5" font-family="Helvetica,sans-Serif" font-size="10.00">math.h</text>
</a>
</g>
</g>
<!-- Node7&#45;&gt;Node8 -->
<g id="edge7" class="edge">
<title>Node7&#45;&gt;Node8</title>
<path fill="none" stroke="midnightblue" d="M110.27,-56.32C94.15,-47.7 69.2,-34.36 50.54,-24.39"/>
<polygon fill="midnightblue" stroke="midnightblue" points="52.16,-21.28 41.69,-19.65 48.86,-27.46 52.16,-21.28"/>
</g>
<!-- Node9 -->
<g id="node9" class="node">
<title>Node9</title>
<g id="a_node9"><a xlink:title=" ">
<polygon fill="none" stroke="#bfbfbf" points="348,-0.5 348,-19.5 395,-19.5 395,-0.5 348,-0.5"/>
<text text-anchor="middle" x="371.5" y="-7.5" font-family="Helvetica,sans-Serif" font-size="10.00">cmath</text>
</a>
</g>
</g>
<!-- Node7&#45;&gt;Node9 -->
<g id="edge8" class="edge">
<title>Node7&#45;&gt;Node9</title>
<path fill="none" stroke="midnightblue" d="M151.67,-59.15C156.27,-58.09 161.03,-57.01 165.5,-56 226.12,-42.38 296.91,-27.04 337.74,-18.25"/>
<polygon fill="midnightblue" stroke="midnightblue" points="338.65,-21.63 347.69,-16.11 337.18,-14.79 338.65,-21.63"/>
</g>
<!-- Node10 -->
<g id="node10" class="node">
<title>Node10</title>
<g id="a_node10"><a xlink:title=" ">
<polygon fill="none" stroke="#bfbfbf" points="69.5,-0.5 69.5,-19.5 113.5,-19.5 113.5,-0.5 69.5,-0.5"/>
<text text-anchor="middle" x="91.5" y="-7.5" font-family="Helvetica,sans-Serif" font-size="10.00">limits</text>
</a>
</g>
</g>
<!-- Node7&#45;&gt;Node10 -->
<g id="edge9" class="edge">
<title>Node7&#45;&gt;Node10</title>
<path fill="none" stroke="midnightblue" d="M120.72,-56.08C115.83,-48.53 108.67,-37.49 102.67,-28.23"/>
<polygon fill="midnightblue" stroke="midnightblue" points="105.55,-26.24 97.17,-19.75 99.67,-30.05 105.55,-26.24"/>
</g>
<!-- Node11 -->
<g id="node11" class="node">
<title>Node11</title>
<g id="a_node11"><a xlink:title=" ">
<polygon fill="none" stroke="#bfbfbf" points="132,-0.5 132,-19.5 191,-19.5 191,-0.5 132,-0.5"/>
<text text-anchor="middle" x="161.5" y="-7.5" font-family="Helvetica,sans-Serif" font-size="10.00">numbers</text>
</a>
</g>
</g>
<!-- Node7&#45;&gt;Node11 -->
<g id="edge10" class="edge">
<title>Node7&#45;&gt;Node11</title>
<path fill="none" stroke="midnightblue" d="M132.28,-56.08C137.17,-48.53 144.33,-37.49 150.33,-28.23"/>
<polygon fill="midnightblue" stroke="midnightblue" points="153.33,-30.05 155.83,-19.75 147.45,-26.24 153.33,-30.05"/>
</g>
<!-- Node12 -->
<g id="node12" class="node">
<title>Node12</title>
<g id="a_node12"><a xlink:title=" ">
<polygon fill="none" stroke="#bfbfbf" points="209.5,-0.5 209.5,-19.5 263.5,-19.5 263.5,-0.5 209.5,-0.5"/>
<text text-anchor="middle" x="236.5" y="-7.5" font-family="Helvetica,sans-Serif" font-size="10.00">random</text>
</a>
</g>
</g>
<!-- Node7&#45;&gt;Node12 -->
<g id="edge11" class="edge">
<title>Node7&#45;&gt;Node12</title>
<path fill="none" stroke="midnightblue" d="M144.17,-56.32C161.89,-47.62 189.4,-34.12 209.79,-24.11"/>
<polygon fill="midnightblue" stroke="midnightblue" points="211.44,-27.2 218.87,-19.65 208.35,-20.92 211.44,-27.2"/>
</g>
<!-- Node13&#45;&gt;Node9 -->
<g id="edge14" class="edge">
<title>Node13&#45;&gt;Node9</title>
<path fill="none" stroke="midnightblue" d="M469.12,-56.44C450.28,-47.68 420.77,-33.94 399.12,-23.86"/>
<polygon fill="midnightblue" stroke="midnightblue" points="400.34,-20.56 389.79,-19.52 397.38,-26.91 400.34,-20.56"/>
</g>
<!-- Node13&#45;&gt;Node14 -->
<g id="edge13" class="edge">
<title>Node13&#45;&gt;Node14</title>
<path fill="none" stroke="midnightblue" d="M484.2,-56.08C481.52,-48.85 477.65,-38.41 474.31,-29.4"/>
<polygon fill="midnightblue" stroke="midnightblue" points="477.5,-27.91 470.74,-19.75 470.93,-30.34 477.5,-27.91"/>
</g>
<!-- Node13&#45;&gt;Node15 -->
<g id="edge15" class="edge">
<title>Node13&#45;&gt;Node15</title>
<path fill="none" stroke="midnightblue" d="M512.85,-56.44C539.77,-47.36 582.5,-32.94 612.59,-22.78"/>
<polygon fill="midnightblue" stroke="midnightblue" points="613.91,-26.03 622.27,-19.52 611.67,-19.4 613.91,-26.03"/>
</g>
<!-- Node13&#45;&gt;Node16 -->
<g id="edge16" class="edge">
<title>Node13&#45;&gt;Node16</title>
<path fill="none" stroke="midnightblue" d="M498.1,-56.32C507.96,-48.26 522.85,-36.08 534.72,-26.37"/>
<polygon fill="midnightblue" stroke="midnightblue" points="537.18,-28.88 542.7,-19.83 532.75,-23.46 537.18,-28.88"/>
</g>
<!-- Node19 -->
<g id="node19" class="node">
<title>Node19</title>
<g id="a_node19"><a xlink:href="Win_8h.html" target="_top" xlink:title=" ">
<polygon fill="none" stroke="black" points="722.5,-168.5 722.5,-187.5 766.5,-187.5 766.5,-168.5 722.5,-168.5"/>
<text text-anchor="middle" x="744.5" y="-175.5" font-family="Helvetica,sans-Serif" font-size="10.00">Win.h</text>
</a>
</g>
</g>
<!-- Node18&#45;&gt;Node19 -->
<g id="edge22" class="edge">
<title>Node18&#45;&gt;Node19</title>
<path fill="none" stroke="midnightblue" d="M622.48,-224.44C646.8,-215.39 685.37,-201.02 712.63,-190.87"/>
<polygon fill="midnightblue" stroke="midnightblue" points="713.96,-194.11 722.11,-187.34 711.52,-187.55 713.96,-194.11"/>
</g>
<!-- Node20 -->
<g id="node20" class="node">
<title>Node20</title>
<g id="a_node20"><a xlink:title=" ">
<polygon fill="none" stroke="#bfbfbf" points="764.5,-112.5 764.5,-131.5 840.5,-131.5 840.5,-112.5 764.5,-112.5"/>
<text text-anchor="middle" x="802.5" y="-119.5" font-family="Helvetica,sans-Serif" font-size="10.00">sdkddkver.h</text>
</a>
</g>
</g>
<!-- Node19&#45;&gt;Node20 -->
<g id="edge23" class="edge">
<title>Node19&#45;&gt;Node20</title>
<path fill="none" stroke="midnightblue" d="M753.82,-168.32C762.39,-160.34 775.31,-148.31 785.69,-138.65"/>
<polygon fill="midnightblue" stroke="midnightblue" points="788.08,-141.21 793.01,-131.83 783.31,-136.09 788.08,-141.21"/>
</g>
<!-- Node21 -->
<g id="node21" class="node">
<title>Node21</title>
<g id="a_node21"><a xlink:title=" ">
<polygon fill="none" stroke="#bfbfbf" points="676.5,-112.5 676.5,-131.5 746.5,-131.5 746.5,-112.5 676.5,-112.5"/>
<text text-anchor="middle" x="711.5" y="-119.5" font-family="Helvetica,sans-Serif" font-size="10.00">Windows.h</text>
</a>
</g>
</g>
<!-- Node19&#45;&gt;Node21 -->
<g id="edge24" class="edge">
<title>Node19&#45;&gt;Node21</title>
<path fill="none" stroke="midnightblue" d="M739.05,-168.08C734.49,-160.61 727.83,-149.72 722.21,-140.52"/>
<polygon fill="midnightblue" stroke="midnightblue" points="725.05,-138.46 716.85,-131.75 719.08,-142.11 725.05,-138.46"/>
</g>
<!-- Node22&#45;&gt;Node3 -->
<g id="edge29" class="edge">
<title>Node22&#45;&gt;Node3</title>
<path fill="none" stroke="midnightblue" d="M430.5,-225.99C433.54,-225.31 436.58,-224.64 439.5,-224 494.2,-212.01 556.98,-198.68 599.74,-189.66"/>
<polygon fill="midnightblue" stroke="midnightblue" points="600.56,-193.06 609.63,-187.58 599.12,-186.21 600.56,-193.06"/>
</g>
<!-- Node22&#45;&gt;Node4 -->
<g id="edge32" class="edge">
<title>Node22&#45;&gt;Node4</title>
<path fill="none" stroke="midnightblue" d="M430.78,-225.72C472.58,-215.67 542.28,-197.71 549.5,-188 560.38,-173.38 549.78,-153.44 539.23,-139.52"/>
<polygon fill="midnightblue" stroke="midnightblue" points="541.89,-137.25 532.85,-131.73 536.47,-141.68 541.89,-137.25"/>
</g>
<!-- Node22&#45;&gt;Node19 -->
<g id="edge26" class="edge">
<title>Node22&#45;&gt;Node19</title>
<path fill="none" stroke="midnightblue" d="M430.89,-225.66C433.79,-225.06 436.7,-224.5 439.5,-224 556.81,-203.11 590.84,-212.12 712.17,-187.76"/>
<polygon fill="midnightblue" stroke="midnightblue" points="713.12,-191.14 722.22,-185.71 711.72,-184.28 713.12,-191.14"/>
</g>
<!-- Node23 -->
<g id="node23" class="node">
<title>Node23</title>
<g id="a_node23"><a xlink:href="Colors_8h.html" target="_top" xlink:title=" ">
<polygon fill="none" stroke="black" points="248.5,-168.5 248.5,-187.5 304.5,-187.5 304.5,-168.5 248.5,-168.5"/>
<text text-anchor="middle" x="276.5" y="-175.5" font-family="Helvetica,sans-Serif" font-size="10.00">Colors.h</text>
</a>
</g>
</g>
<!-- Node22&#45;&gt;Node23 -->
<g id="edge27" class="edge">
<title>Node22&#45;&gt;Node23</title>
<path fill="none" stroke="midnightblue" d="M380.01,-224.44C359.86,-215.6 328.18,-201.69 305.17,-191.59"/>
<polygon fill="midnightblue" stroke="midnightblue" points="306.46,-188.33 295.9,-187.52 303.65,-194.74 306.46,-188.33"/>
</g>
<!-- Node24 -->
<g id="node24" class="node">
<title>Node24</title>
<g id="a_node24"><a xlink:title=" ">
<polygon fill="none" stroke="#bfbfbf" points="408.5,-168.5 408.5,-187.5 464.5,-187.5 464.5,-168.5 408.5,-168.5"/>
<text text-anchor="middle" x="436.5" y="-175.5" font-family="Helvetica,sans-Serif" font-size="10.00">assert.h</text>
</a>
</g>
</g>
<!-- Node22&#45;&gt;Node24 -->
<g id="edge30" class="edge">
<title>Node22&#45;&gt;Node24</title>
<path fill="none" stroke="midnightblue" d="M405.61,-224.08C410.78,-216.53 418.35,-205.49 424.69,-196.23"/>
<polygon fill="midnightblue" stroke="midnightblue" points="427.74,-197.98 430.5,-187.75 421.96,-194.02 427.74,-197.98"/>
</g>
<!-- Node25 -->
<g id="node25" class="node">
<title>Node25</title>
<g id="a_node25"><a xlink:title=" ">
<polygon fill="none" stroke="#bfbfbf" points="482.5,-168.5 482.5,-187.5 540.5,-187.5 540.5,-168.5 482.5,-168.5"/>
<text text-anchor="middle" x="511.5" y="-175.5" font-family="Helvetica,sans-Serif" font-size="10.00">memory</text>
</a>
</g>
</g>
<!-- Node22&#45;&gt;Node25 -->
<g id="edge31" class="edge">
<title>Node22&#45;&gt;Node25</title>
<path fill="none" stroke="midnightblue" d="M417.49,-224.32C435.54,-215.62 463.55,-202.12 484.3,-192.11"/>
<polygon fill="midnightblue" stroke="midnightblue" points="486.06,-195.15 493.55,-187.65 483.02,-188.84 486.06,-195.15"/>
</g>
<!-- Node26 -->
<g id="node26" class="node">
<title>Node26</title>
<g id="a_node26"><a xlink:title=" ">
<polygon fill="none" stroke="#bfbfbf" points="322.5,-168.5 322.5,-187.5 390.5,-187.5 390.5,-168.5 322.5,-168.5"/>
<text text-anchor="middle" x="356.5" y="-175.5" font-family="Helvetica,sans-Serif" font-size="10.00">filesystem</text>
</a>
</g>
</g>
<!-- Node22&#45;&gt;Node26 -->
<g id="edge33" class="edge">
<title>Node22&#45;&gt;Node26</title>
<path fill="none" stroke="midnightblue" d="M392.4,-224.08C386.26,-216.38 377.23,-205.03 369.76,-195.65"/>
<polygon fill="midnightblue" stroke="midnightblue" points="372.44,-193.39 363.47,-187.75 366.96,-197.75 372.44,-193.39"/>
</g>
<!-- Node23&#45;&gt;Node6 -->
<g id="edge28" class="edge">
<title>Node23&#45;&gt;Node6</title>
<path fill="none" stroke="midnightblue" d="M298.84,-168.44C322.25,-159.48 359.24,-145.31 385.69,-135.18"/>
<polygon fill="midnightblue" stroke="midnightblue" points="387.18,-138.36 395.26,-131.52 384.67,-131.82 387.18,-138.36"/>
</g>
<!-- Node29&#45;&gt;Node19 -->
<g id="edge37" class="edge">
<title>Node29&#45;&gt;Node19</title>
<path fill="none" stroke="midnightblue" d="M671.64,-336.08C683.87,-309.72 719.97,-231.88 736.31,-196.66"/>
<polygon fill="midnightblue" stroke="midnightblue" points="739.49,-198.11 740.53,-187.57 733.14,-195.17 739.49,-198.11"/>
</g>
<!-- Node30 -->
<g id="node30" class="node">
<title>Node30</title>
<g id="a_node30"><a xlink:title=" ">
<polygon fill="none" stroke="#bfbfbf" points="426.5,-280.5 426.5,-299.5 466.5,-299.5 466.5,-280.5 426.5,-280.5"/>
<text text-anchor="middle" x="446.5" y="-287.5" font-family="Helvetica,sans-Serif" font-size="10.00">sal.h</text>
</a>
</g>
</g>
<!-- Node29&#45;&gt;Node30 -->
<g id="edge38" class="edge">
<title>Node29&#45;&gt;Node30</title>
<path fill="none" stroke="midnightblue" d="M640.95,-339.4C605.58,-331.81 540.86,-317.44 476.61,-300.16"/>
<polygon fill="midnightblue" stroke="midnightblue" points="477.3,-296.72 466.73,-297.48 475.46,-303.48 477.3,-296.72"/>
</g>
<!-- Node31&#45;&gt;Node2 -->
<g id="edge42" class="edge">
<title>Node31&#45;&gt;Node2</title>
<path fill="none" stroke="midnightblue" d="M750.77,-336.44C699.32,-326.38 614.4,-309.76 562.74,-299.66"/>
<polygon fill="midnightblue" stroke="midnightblue" points="563.36,-296.21 552.87,-297.73 562.01,-303.08 563.36,-296.21"/>
</g>
<!-- Node31&#45;&gt;Node3 -->
<g id="edge41" class="edge">
<title>Node31&#45;&gt;Node3</title>
<path fill="none" stroke="midnightblue" d="M786.76,-336.08C763.6,-309.38 694.62,-229.87 664.66,-195.32"/>
<polygon fill="midnightblue" stroke="midnightblue" points="667.13,-192.83 657.93,-187.57 661.84,-197.42 667.13,-192.83"/>
</g>
<!-- Node31&#45;&gt;Node4 -->
<g id="edge57" class="edge">
<title>Node31&#45;&gt;Node4</title>
<path fill="none" stroke="midnightblue" d="M796.8,-336.15C803.69,-307.45 820.96,-216.04 775.5,-168 743.31,-133.98 618.56,-141.87 556.82,-131.76"/>
<polygon fill="midnightblue" stroke="midnightblue" points="557.25,-128.28 546.77,-129.81 555.92,-135.15 557.25,-128.28"/>
</g>
<!-- Node31&#45;&gt;Node19 -->
<g id="edge40" class="edge">
<title>Node31&#45;&gt;Node19</title>
<path fill="none" stroke="midnightblue" d="M791.78,-336.38C788.94,-327.33 784.36,-312.68 780.5,-300 769.43,-263.62 756.83,-220.96 749.86,-197.26"/>
<polygon fill="midnightblue" stroke="midnightblue" points="753.17,-196.13 747,-187.52 746.45,-198.1 753.17,-196.13"/>
</g>
<!-- Node32 -->
<g id="node32" class="node">
<title>Node32</title>
<g id="a_node32"><a xlink:href="Keyboard_8h.html" target="_top" xlink:title=" ">
<polygon fill="none" stroke="black" points="823,-280.5 823,-299.5 894,-299.5 894,-280.5 823,-280.5"/>
<text text-anchor="middle" x="858.5" y="-287.5" font-family="Helvetica,sans-Serif" font-size="10.00">Keyboard.h</text>
</a>
</g>
</g>
<!-- Node31&#45;&gt;Node32 -->
<g id="edge43" class="edge">
<title>Node31&#45;&gt;Node32</title>
<path fill="none" stroke="midnightblue" d="M804.78,-336.32C814.34,-328.26 828.78,-316.08 840.28,-306.37"/>
<polygon fill="midnightblue" stroke="midnightblue" points="842.64,-308.96 848.03,-299.83 838.13,-303.61 842.64,-308.96"/>
</g>
<!-- Node35 -->
<g id="node35" class="node">
<title>Node35</title>
<g id="a_node35"><a xlink:href="Mouse_8h.html" target="_top" xlink:title=" ">
<polygon fill="none" stroke="black" points="912.5,-280.5 912.5,-299.5 970.5,-299.5 970.5,-280.5 912.5,-280.5"/>
<text text-anchor="middle" x="941.5" y="-287.5" font-family="Helvetica,sans-Serif" font-size="10.00">Mouse.h</text>
</a>
</g>
</g>
<!-- Node31&#45;&gt;Node35 -->
<g id="edge46" class="edge">
<title>Node31&#45;&gt;Node35</title>
<path fill="none" stroke="midnightblue" d="M817.79,-336.44C842.31,-327.44 881.1,-313.19 908.7,-303.05"/>
<polygon fill="midnightblue" stroke="midnightblue" points="910.14,-306.25 918.32,-299.52 907.72,-299.68 910.14,-306.25"/>
</g>
<!-- Node33 -->
<g id="node33" class="node">
<title>Node33</title>
<g id="a_node33"><a xlink:title=" ">
<polygon fill="none" stroke="#bfbfbf" points="822.5,-224.5 822.5,-243.5 866.5,-243.5 866.5,-224.5 822.5,-224.5"/>
<text text-anchor="middle" x="844.5" y="-231.5" font-family="Helvetica,sans-Serif" font-size="10.00">bitset</text>
</a>
</g>
</g>
<!-- Node32&#45;&gt;Node33 -->
<g id="edge44" class="edge">
<title>Node32&#45;&gt;Node33</title>
<path fill="none" stroke="midnightblue" d="M856.19,-280.08C854.33,-272.93 851.66,-262.64 849.35,-253.69"/>
<polygon fill="midnightblue" stroke="midnightblue" points="852.67,-252.55 846.77,-243.75 845.89,-254.31 852.67,-252.55"/>
</g>
<!-- Node34 -->
<g id="node34" class="node">
<title>Node34</title>
<g id="a_node34"><a xlink:title=" ">
<polygon fill="none" stroke="#bfbfbf" points="885,-224.5 885,-243.5 932,-243.5 932,-224.5 885,-224.5"/>
<text text-anchor="middle" x="908.5" y="-231.5" font-family="Helvetica,sans-Serif" font-size="10.00">queue</text>
</a>
</g>
</g>
<!-- Node32&#45;&gt;Node34 -->
<g id="edge45" class="edge">
<title>Node32&#45;&gt;Node34</title>
<path fill="none" stroke="midnightblue" d="M866.76,-280.08C873.96,-272.3 884.61,-260.8 893.35,-251.37"/>
<polygon fill="midnightblue" stroke="midnightblue" points="896.17,-253.47 900.4,-243.75 891.03,-248.71 896.17,-253.47"/>
</g>
<!-- Node35&#45;&gt;Node34 -->
<g id="edge56" class="edge">
<title>Node35&#45;&gt;Node34</title>
<path fill="none" stroke="midnightblue" d="M936.05,-280.08C931.49,-272.61 924.83,-261.72 919.21,-252.52"/>
<polygon fill="midnightblue" stroke="midnightblue" points="922.05,-250.46 913.85,-243.75 916.08,-254.11 922.05,-250.46"/>
</g>
<!-- Node35&#45;&gt;Node36 -->
<g id="edge47" class="edge">
<title>Node35&#45;&gt;Node36</title>
<path fill="none" stroke="midnightblue" d="M941.73,-280.15C941.98,-267.63 942.13,-244.02 940.5,-224 938.14,-195.06 932.66,-161.82 929.02,-141.62"/>
<polygon fill="midnightblue" stroke="midnightblue" points="932.43,-140.8 927.17,-131.6 925.54,-142.07 932.43,-140.8"/>
</g>
<!-- Node36&#45;&gt;Node7 -->
<g id="edge48" class="edge">
<title>Node36&#45;&gt;Node7</title>
<path fill="none" stroke="midnightblue" d="M858.79,-112.89C855.65,-112.57 852.54,-112.27 849.5,-112 585.51,-88.17 266.15,-73.08 161.52,-68.49"/>
<polygon fill="midnightblue" stroke="midnightblue" points="161.66,-64.99 151.51,-68.05 161.35,-71.98 161.66,-64.99"/>
</g>
<!-- Node36&#45;&gt;Node13 -->
<g id="edge51" class="edge">
<title>Node36&#45;&gt;Node13</title>
<path fill="none" stroke="midnightblue" d="M858.98,-112.8C767.44,-101.51 605.34,-81.53 529.2,-72.14"/>
<polygon fill="midnightblue" stroke="midnightblue" points="529.4,-68.64 519.04,-70.89 528.54,-75.59 529.4,-68.64"/>
</g>
<!-- Node36&#45;&gt;Node14 -->
<g id="edge52" class="edge">
<title>Node36&#45;&gt;Node14</title>
<path fill="none" stroke="midnightblue" d="M885.73,-112.43C851.49,-104.54 801.03,-91.71 758.5,-76 739.11,-68.84 736.19,-62.31 716.5,-56 629.67,-28.15 604.17,-36.58 514.5,-20 509.32,-19.04 503.83,-18.01 498.49,-16.99"/>
<polygon fill="midnightblue" stroke="midnightblue" points="499.03,-13.53 488.55,-15.09 497.71,-20.41 499.03,-13.53"/>
</g>
<!-- Node36&#45;&gt;Node15 -->
<g id="edge54" class="edge">
<title>Node36&#45;&gt;Node15</title>
<path fill="none" stroke="midnightblue" d="M923.13,-112.22C918.79,-97.98 908.17,-70.01 888.5,-56 856.21,-33 743.27,-19.64 684.17,-14.07"/>
<polygon fill="midnightblue" stroke="midnightblue" points="684.42,-10.58 674.14,-13.16 683.78,-17.55 684.42,-10.58"/>
</g>
<!-- Node36&#45;&gt;Node16 -->
<g id="edge55" class="edge">
<title>Node36&#45;&gt;Node16</title>
<path fill="none" stroke="midnightblue" d="M902.38,-112.36C878.54,-103.42 840.33,-88.96 807.5,-76 785.62,-67.36 780.96,-62.99 758.5,-56 702.37,-38.53 635.57,-25.21 593.84,-17.74"/>
<polygon fill="midnightblue" stroke="midnightblue" points="594.25,-14.26 583.8,-15.97 593.04,-21.15 594.25,-14.26"/>
</g>
<!-- Node36&#45;&gt;Node17 -->
<g id="edge53" class="edge">
<title>Node36&#45;&gt;Node17</title>
<path fill="none" stroke="midnightblue" d="M886.36,-112.44C840.33,-102.38 764.34,-85.77 718.11,-75.66"/>
<polygon fill="midnightblue" stroke="midnightblue" points="718.67,-72.2 708.15,-73.48 717.17,-79.04 718.67,-72.2"/>
</g>
<!-- Node37 -->
<g id="node37" class="node">
<title>Node37</title>
<g id="a_node37"><a xlink:href="Matrix2_8h.html" target="_top" xlink:title=" ">
<polygon fill="none" stroke="black" points="817,-56.5 817,-75.5 880,-75.5 880,-56.5 817,-56.5"/>
<text text-anchor="middle" x="848.5" y="-63.5" font-family="Helvetica,sans-Serif" font-size="10.00">Matrix2.h</text>
</a>
</g>
</g>
<!-- Node36&#45;&gt;Node37 -->
<g id="edge49" class="edge">
<title>Node36&#45;&gt;Node37</title>
<path fill="none" stroke="midnightblue" d="M913.13,-112.32C901.34,-104.06 883.37,-91.45 869.36,-81.63"/>
<polygon fill="midnightblue" stroke="midnightblue" points="871.04,-78.53 860.84,-75.65 867.02,-84.26 871.04,-78.53"/>
</g>
<!-- Node37&#45;&gt;Node16 -->
<g id="edge50" class="edge">
<title>Node37&#45;&gt;Node16</title>
<path fill="none" stroke="midnightblue" d="M816.75,-59.02C811.33,-58.01 805.75,-56.97 800.5,-56 727.47,-42.5 642.24,-27.04 593.4,-18.2"/>
<polygon fill="midnightblue" stroke="midnightblue" points="594.01,-14.76 583.55,-16.42 592.76,-21.65 594.01,-14.76"/>
</g>
<!-- Node38&#45;&gt;Node15 -->
<g id="edge60" class="edge">
<title>Node38&#45;&gt;Node15</title>
<path fill="none" stroke="midnightblue" d="M1230.06,-336.62C1299.99,-325.47 1414.4,-306.41 1421.5,-300 1443.85,-279.84 1440.5,-265.1 1440.5,-235 1440.5,-235 1440.5,-235 1440.5,-121 1440.5,-43.64 840.74,-17.64 684.4,-12.18"/>
<polygon fill="midnightblue" stroke="midnightblue" points="684.45,-8.68 674.34,-11.83 684.21,-15.67 684.45,-8.68"/>
</g>
<!-- Node39 -->
<g id="node39" class="node">
<title>Node39</title>
<g id="a_node39"><a xlink:title=" ">
<polygon fill="none" stroke="#bfbfbf" points="1468.5,-280.5 1468.5,-299.5 1518.5,-299.5 1518.5,-280.5 1468.5,-280.5"/>
<text text-anchor="middle" x="1493.5" y="-287.5" font-family="Helvetica,sans-Serif" font-size="10.00">cstdint</text>
</a>
</g>
</g>
<!-- Node38&#45;&gt;Node39 -->
<g id="edge61" class="edge">
<title>Node38&#45;&gt;Node39</title>
<path fill="none" stroke="midnightblue" d="M1230.07,-336.76C1298.35,-326.19 1412.58,-308.22 1454.5,-300 1455.77,-299.75 1457.05,-299.49 1458.35,-299.22"/>
<polygon fill="midnightblue" stroke="midnightblue" points="1459.34,-302.59 1468.38,-297.06 1457.86,-295.75 1459.34,-302.59"/>
</g>
<!-- Node40 -->
<g id="node40" class="node">
<title>Node40</title>
<g id="a_node40"><a xlink:title=" ">
<polygon fill="none" stroke="#bfbfbf" points="1027,-280.5 1027,-299.5 1092,-299.5 1092,-280.5 1027,-280.5"/>
<text text-anchor="middle" x="1059.5" y="-287.5" font-family="Helvetica,sans-Serif" font-size="10.00">exception</text>
</a>
</g>
</g>
<!-- Node38&#45;&gt;Node40 -->
<g id="edge62" class="edge">
<title>Node38&#45;&gt;Node40</title>
<path fill="none" stroke="midnightblue" d="M1157.96,-336.44C1138.88,-327.64 1108.93,-313.81 1087.06,-303.72"/>
<polygon fill="midnightblue" stroke="midnightblue" points="1088.5,-300.53 1077.95,-299.52 1085.57,-306.88 1088.5,-300.53"/>
</g>
<!-- Node41 -->
<g id="node41" class="node">
<title>Node41</title>
<g id="a_node41"><a xlink:title=" ">
<polygon fill="none" stroke="#bfbfbf" points="1110,-280.5 1110,-299.5 1165,-299.5 1165,-280.5 1110,-280.5"/>
<text text-anchor="middle" x="1137.5" y="-287.5" font-family="Helvetica,sans-Serif" font-size="10.00">fstream</text>
</a>
</g>
</g>
<!-- Node38&#45;&gt;Node41 -->
<g id="edge63" class="edge">
<title>Node38&#45;&gt;Node41</title>
<path fill="none" stroke="midnightblue" d="M1170.06,-336.08C1164.55,-328.46 1156.47,-317.26 1149.74,-307.94"/>
<polygon fill="midnightblue" stroke="midnightblue" points="1152.51,-305.81 1143.82,-299.75 1146.84,-309.91 1152.51,-305.81"/>
</g>
<!-- Node42 -->
<g id="node42" class="node">
<title>Node42</title>
<g id="a_node42"><a xlink:title=" ">
<polygon fill="none" stroke="#bfbfbf" points="1183,-280.5 1183,-299.5 1248,-299.5 1248,-280.5 1183,-280.5"/>
<text text-anchor="middle" x="1215.5" y="-287.5" font-family="Helvetica,sans-Serif" font-size="10.00">stdexcept</text>
</a>
</g>
</g>
<!-- Node38&#45;&gt;Node42 -->
<g id="edge64" class="edge">
<title>Node38&#45;&gt;Node42</title>
<path fill="none" stroke="midnightblue" d="M1182.94,-336.08C1188.45,-328.46 1196.53,-317.26 1203.26,-307.94"/>
<polygon fill="midnightblue" stroke="midnightblue" points="1206.16,-309.91 1209.18,-299.75 1200.49,-305.81 1206.16,-309.91"/>
</g>
<!-- Node43 -->
<g id="node43" class="node">
<title>Node43</title>
<g id="a_node43"><a xlink:title=" ">
<polygon fill="none" stroke="#bfbfbf" points="1266,-280.5 1266,-299.5 1347,-299.5 1347,-280.5 1266,-280.5"/>
<text text-anchor="middle" x="1306.5" y="-287.5" font-family="Helvetica,sans-Serif" font-size="10.00">system_error</text>
</a>
</g>
</g>
<!-- Node38&#45;&gt;Node43 -->
<g id="edge65" class="edge">
<title>Node38&#45;&gt;Node43</title>
<path fill="none" stroke="midnightblue" d="M1197.1,-336.44C1218.49,-327.56 1252.18,-313.56 1276.52,-303.45"/>
<polygon fill="midnightblue" stroke="midnightblue" points="1278.11,-306.58 1286,-299.52 1275.42,-300.12 1278.11,-306.58"/>
</g>
<!-- Node44 -->
<g id="node44" class="node">
<title>Node44</title>
<g id="a_node44"><a xlink:title=" ">
<polygon fill="none" stroke="#bfbfbf" points="1365,-280.5 1365,-299.5 1412,-299.5 1412,-280.5 1365,-280.5"/>
<text text-anchor="middle" x="1388.5" y="-287.5" font-family="Helvetica,sans-Serif" font-size="10.00">vector</text>
</a>
</g>
</g>
<!-- Node38&#45;&gt;Node44 -->
<g id="edge66" class="edge">
<title>Node38&#45;&gt;Node44</title>
<path fill="none" stroke="midnightblue" d="M1212.1,-336.43C1246.41,-328.09 1300.02,-314.87 1354.87,-300.38"/>
<polygon fill="midnightblue" stroke="midnightblue" points="1355.99,-303.71 1364.76,-297.76 1354.19,-296.94 1355.99,-303.71"/>
</g>
</g>
</svg>
