<?xml version="1.0" encoding="UTF-8" standalone="no"?>
<!DOCTYPE svg PUBLIC "-//W3C//DTD SVG 1.1//EN"
 "http://www.w3.org/Graphics/SVG/1.1/DTD/svg11.dtd">
<!-- Generated by graphviz version 2.43.0 (0)
 -->
<!-- Title: include/IndexedTriangleList.h Pages: 1 -->
<svg width="973pt" height="196pt"
 viewBox="0.00 0.00 972.50 196.00" xmlns="http://www.w3.org/2000/svg" xmlns:xlink="http://www.w3.org/1999/xlink">
<g id="graph0" class="graph" transform="scale(1 1) rotate(0) translate(4 192)">
<title>include/IndexedTriangleList.h</title>
<!-- Node1 -->
<g id="node1" class="node">
<title>Node1</title>
<g id="a_node1"><a xlink:title=" ">
<polygon fill="#bfbfbf" stroke="black" points="696,-168.5 696,-187.5 854,-187.5 854,-168.5 696,-168.5"/>
<text text-anchor="middle" x="775" y="-175.5" font-family="Helvetica,sans-Serif" font-size="10.00">include/IndexedTriangleList.h</text>
</a>
</g>
</g>
<!-- Node2 -->
<g id="node2" class="node">
<title>Node2</title>
<g id="a_node2"><a xlink:href="Vector3_8h.html" target="_top" xlink:title=" ">
<polygon fill="none" stroke="black" points="152.5,-112.5 152.5,-131.5 285.5,-131.5 285.5,-112.5 152.5,-112.5"/>
<text text-anchor="middle" x="219" y="-119.5" font-family="Helvetica,sans-Serif" font-size="10.00">LinearAlgebra/Vector3.h</text>
</a>
</g>
</g>
<!-- Node1&#45;&gt;Node2 -->
<g id="edge1" class="edge">
<title>Node1&#45;&gt;Node2</title>
<path fill="none" stroke="midnightblue" d="M695.93,-169.32C589.45,-158.98 401.19,-140.69 295.86,-130.46"/>
<polygon fill="midnightblue" stroke="midnightblue" points="295.91,-126.95 285.61,-129.47 295.23,-133.92 295.91,-126.95"/>
</g>
<!-- Node14 -->
<g id="node14" class="node">
<title>Node14</title>
<g id="a_node14"><a xlink:href="tiny__obj__loader_8h.html" target="_top" xlink:title=" ">
<polygon fill="none" stroke="black" points="686,-112.5 686,-131.5 786,-131.5 786,-112.5 686,-112.5"/>
<text text-anchor="middle" x="736" y="-119.5" font-family="Helvetica,sans-Serif" font-size="10.00">tiny_obj_loader.h</text>
</a>
</g>
</g>
<!-- Node1&#45;&gt;Node14 -->
<g id="edge17" class="edge">
<title>Node1&#45;&gt;Node14</title>
<path fill="none" stroke="midnightblue" d="M768.56,-168.08C763.05,-160.46 754.97,-149.26 748.24,-139.94"/>
<polygon fill="midnightblue" stroke="midnightblue" points="751.01,-137.81 742.32,-131.75 745.34,-141.91 751.01,-137.81"/>
</g>
<!-- Node17 -->
<g id="node17" class="node">
<title>Node17</title>
<g id="a_node17"><a xlink:title=" ">
<polygon fill="none" stroke="#bfbfbf" points="813.5,-56.5 813.5,-75.5 860.5,-75.5 860.5,-56.5 813.5,-56.5"/>
<text text-anchor="middle" x="837" y="-63.5" font-family="Helvetica,sans-Serif" font-size="10.00">vector</text>
</a>
</g>
</g>
<!-- Node1&#45;&gt;Node17 -->
<g id="edge27" class="edge">
<title>Node1&#45;&gt;Node17</title>
<path fill="none" stroke="midnightblue" d="M779.87,-168.37C790.05,-150.3 813.79,-108.18 827.24,-84.31"/>
<polygon fill="midnightblue" stroke="midnightblue" points="830.3,-86.02 832.16,-75.59 824.2,-82.58 830.3,-86.02"/>
</g>
<!-- Node18 -->
<g id="node18" class="node">
<title>Node18</title>
<g id="a_node18"><a xlink:href="Miniball_8h.html" target="_top" xlink:title=" ">
<polygon fill="none" stroke="black" points="539.5,-112.5 539.5,-131.5 604.5,-131.5 604.5,-112.5 539.5,-112.5"/>
<text text-anchor="middle" x="572" y="-119.5" font-family="Helvetica,sans-Serif" font-size="10.00">Miniball.h</text>
</a>
</g>
</g>
<!-- Node1&#45;&gt;Node18 -->
<g id="edge21" class="edge">
<title>Node1&#45;&gt;Node18</title>
<path fill="none" stroke="midnightblue" d="M742.83,-168.44C707.94,-159.16 652.11,-144.31 613.83,-134.13"/>
<polygon fill="midnightblue" stroke="midnightblue" points="614.58,-130.7 604.02,-131.52 612.78,-137.47 614.58,-130.7"/>
</g>
<!-- Node23 -->
<g id="node23" class="node">
<title>Node23</title>
<g id="a_node23"><a xlink:title=" ">
<polygon fill="none" stroke="#bfbfbf" points="842.5,-112.5 842.5,-131.5 897.5,-131.5 897.5,-112.5 842.5,-112.5"/>
<text text-anchor="middle" x="870" y="-119.5" font-family="Helvetica,sans-Serif" font-size="10.00">fstream</text>
</a>
</g>
</g>
<!-- Node1&#45;&gt;Node23 -->
<g id="edge28" class="edge">
<title>Node1&#45;&gt;Node23</title>
<path fill="none" stroke="midnightblue" d="M790.26,-168.32C805.22,-159.82 828.25,-146.73 845.73,-136.8"/>
<polygon fill="midnightblue" stroke="midnightblue" points="847.81,-139.64 854.77,-131.65 844.35,-133.55 847.81,-139.64"/>
</g>
<!-- Node24 -->
<g id="node24" class="node">
<title>Node24</title>
<g id="a_node24"><a xlink:title=" ">
<polygon fill="none" stroke="#bfbfbf" points="915.5,-112.5 915.5,-131.5 964.5,-131.5 964.5,-112.5 915.5,-112.5"/>
<text text-anchor="middle" x="940" y="-119.5" font-family="Helvetica,sans-Serif" font-size="10.00">cctype</text>
</a>
</g>
</g>
<!-- Node1&#45;&gt;Node24 -->
<g id="edge29" class="edge">
<title>Node1&#45;&gt;Node24</title>
<path fill="none" stroke="midnightblue" d="M801.14,-168.44C829.43,-159.19 874.66,-144.39 905.76,-134.21"/>
<polygon fill="midnightblue" stroke="midnightblue" points="906.91,-137.51 915.33,-131.08 904.73,-130.86 906.91,-137.51"/>
</g>
<!-- Node3 -->
<g id="node3" class="node">
<title>Node3</title>
<g id="a_node3"><a xlink:href="Math_8h.html" target="_top" xlink:title=" ">
<polygon fill="none" stroke="black" points="247,-56.5 247,-75.5 297,-75.5 297,-56.5 247,-56.5"/>
<text text-anchor="middle" x="272" y="-63.5" font-family="Helvetica,sans-Serif" font-size="10.00">Math.h</text>
</a>
</g>
</g>
<!-- Node2&#45;&gt;Node3 -->
<g id="edge2" class="edge">
<title>Node2&#45;&gt;Node3</title>
<path fill="none" stroke="midnightblue" d="M227.75,-112.08C235.47,-104.22 246.9,-92.57 256.22,-83.08"/>
<polygon fill="midnightblue" stroke="midnightblue" points="258.9,-85.34 263.41,-75.75 253.91,-80.44 258.9,-85.34"/>
</g>
<!-- Node9 -->
<g id="node9" class="node">
<title>Node9</title>
<g id="a_node9"><a xlink:href="Matrix3_8h.html" target="_top" xlink:title=" ">
<polygon fill="none" stroke="black" points="127.5,-56.5 127.5,-75.5 190.5,-75.5 190.5,-56.5 127.5,-56.5"/>
<text text-anchor="middle" x="159" y="-63.5" font-family="Helvetica,sans-Serif" font-size="10.00">Matrix3.h</text>
</a>
</g>
</g>
<!-- Node2&#45;&gt;Node9 -->
<g id="edge8" class="edge">
<title>Node2&#45;&gt;Node9</title>
<path fill="none" stroke="midnightblue" d="M209.36,-112.32C200.49,-104.34 187.13,-92.31 176.39,-82.65"/>
<polygon fill="midnightblue" stroke="midnightblue" points="178.59,-79.92 168.82,-75.83 173.91,-85.13 178.59,-79.92"/>
</g>
<!-- Node10 -->
<g id="node10" class="node">
<title>Node10</title>
<g id="a_node10"><a xlink:title=" ">
<polygon fill="none" stroke="#bfbfbf" points="78,-0.5 78,-19.5 120,-19.5 120,-0.5 78,-0.5"/>
<text text-anchor="middle" x="99" y="-7.5" font-family="Helvetica,sans-Serif" font-size="10.00">array</text>
</a>
</g>
</g>
<!-- Node2&#45;&gt;Node10 -->
<g id="edge13" class="edge">
<title>Node2&#45;&gt;Node10</title>
<path fill="none" stroke="midnightblue" d="M180.62,-112.38C159.42,-105.75 134.17,-94.5 118,-76 106.77,-63.14 102.17,-43.96 100.29,-29.77"/>
<polygon fill="midnightblue" stroke="midnightblue" points="103.75,-29.27 99.29,-19.67 96.79,-29.96 103.75,-29.27"/>
</g>
<!-- Node11 -->
<g id="node11" class="node">
<title>Node11</title>
<g id="a_node11"><a xlink:title=" ">
<polygon fill="none" stroke="#bfbfbf" points="138.5,-0.5 138.5,-19.5 191.5,-19.5 191.5,-0.5 138.5,-0.5"/>
<text text-anchor="middle" x="165" y="-7.5" font-family="Helvetica,sans-Serif" font-size="10.00">cstddef</text>
</a>
</g>
</g>
<!-- Node2&#45;&gt;Node11 -->
<g id="edge16" class="edge">
<title>Node2&#45;&gt;Node11</title>
<path fill="none" stroke="midnightblue" d="M217.32,-112.22C214.63,-99.37 208.68,-74.92 199,-56 193.77,-45.78 186.2,-35.48 179.53,-27.32"/>
<polygon fill="midnightblue" stroke="midnightblue" points="182.18,-25.03 173.04,-19.68 176.84,-29.57 182.18,-25.03"/>
</g>
<!-- Node12 -->
<g id="node12" class="node">
<title>Node12</title>
<g id="a_node12"><a xlink:title=" ">
<polygon fill="none" stroke="#bfbfbf" points="0,-0.5 0,-19.5 60,-19.5 60,-0.5 0,-0.5"/>
<text text-anchor="middle" x="30" y="-7.5" font-family="Helvetica,sans-Serif" font-size="10.00">iostream</text>
</a>
</g>
</g>
<!-- Node2&#45;&gt;Node12 -->
<g id="edge14" class="edge">
<title>Node2&#45;&gt;Node12</title>
<path fill="none" stroke="midnightblue" d="M188.85,-112.39C164.84,-104.79 130.92,-92.39 104,-76 81.32,-62.2 58.94,-41.23 44.83,-26.86"/>
<polygon fill="midnightblue" stroke="midnightblue" points="47.34,-24.43 37.89,-19.65 42.3,-29.28 47.34,-24.43"/>
</g>
<!-- Node13 -->
<g id="node13" class="node">
<title>Node13</title>
<g id="a_node13"><a xlink:title=" ">
<polygon fill="none" stroke="#bfbfbf" points="315.5,-56.5 315.5,-75.5 374.5,-75.5 374.5,-56.5 315.5,-56.5"/>
<text text-anchor="middle" x="345" y="-63.5" font-family="Helvetica,sans-Serif" font-size="10.00">compare</text>
</a>
</g>
</g>
<!-- Node2&#45;&gt;Node13 -->
<g id="edge15" class="edge">
<title>Node2&#45;&gt;Node13</title>
<path fill="none" stroke="midnightblue" d="M238.97,-112.44C259.61,-103.6 292.06,-89.69 315.63,-79.59"/>
<polygon fill="midnightblue" stroke="midnightblue" points="317.32,-82.67 325.13,-75.52 314.56,-76.24 317.32,-82.67"/>
</g>
<!-- Node4 -->
<g id="node4" class="node">
<title>Node4</title>
<g id="a_node4"><a xlink:title=" ">
<polygon fill="none" stroke="#bfbfbf" points="274.5,-0.5 274.5,-19.5 325.5,-19.5 325.5,-0.5 274.5,-0.5"/>
<text text-anchor="middle" x="300" y="-7.5" font-family="Helvetica,sans-Serif" font-size="10.00">math.h</text>
</a>
</g>
</g>
<!-- Node3&#45;&gt;Node4 -->
<g id="edge3" class="edge">
<title>Node3&#45;&gt;Node4</title>
<path fill="none" stroke="midnightblue" d="M276.62,-56.08C280.46,-48.69 286.02,-37.95 290.76,-28.81"/>
<polygon fill="midnightblue" stroke="midnightblue" points="293.97,-30.24 295.46,-19.75 287.75,-27.02 293.97,-30.24"/>
</g>
<!-- Node5 -->
<g id="node5" class="node">
<title>Node5</title>
<g id="a_node5"><a xlink:title=" ">
<polygon fill="none" stroke="#bfbfbf" points="209.5,-0.5 209.5,-19.5 256.5,-19.5 256.5,-0.5 209.5,-0.5"/>
<text text-anchor="middle" x="233" y="-7.5" font-family="Helvetica,sans-Serif" font-size="10.00">cmath</text>
</a>
</g>
</g>
<!-- Node3&#45;&gt;Node5 -->
<g id="edge4" class="edge">
<title>Node3&#45;&gt;Node5</title>
<path fill="none" stroke="midnightblue" d="M265.56,-56.08C260.05,-48.46 251.97,-37.26 245.24,-27.94"/>
<polygon fill="midnightblue" stroke="midnightblue" points="248.01,-25.81 239.32,-19.75 242.34,-29.91 248.01,-25.81"/>
</g>
<!-- Node6 -->
<g id="node6" class="node">
<title>Node6</title>
<g id="a_node6"><a xlink:title=" ">
<polygon fill="none" stroke="#bfbfbf" points="534,-0.5 534,-19.5 578,-19.5 578,-0.5 534,-0.5"/>
<text text-anchor="middle" x="556" y="-7.5" font-family="Helvetica,sans-Serif" font-size="10.00">limits</text>
</a>
</g>
</g>
<!-- Node3&#45;&gt;Node6 -->
<g id="edge5" class="edge">
<title>Node3&#45;&gt;Node6</title>
<path fill="none" stroke="midnightblue" d="M297.2,-58.09C300.16,-57.35 303.14,-56.64 306,-56 383.65,-38.76 475.98,-23.48 523.76,-15.95"/>
<polygon fill="midnightblue" stroke="midnightblue" points="524.47,-19.38 533.81,-14.38 523.39,-12.47 524.47,-19.38"/>
</g>
<!-- Node7 -->
<g id="node7" class="node">
<title>Node7</title>
<g id="a_node7"><a xlink:title=" ">
<polygon fill="none" stroke="#bfbfbf" points="343.5,-0.5 343.5,-19.5 402.5,-19.5 402.5,-0.5 343.5,-0.5"/>
<text text-anchor="middle" x="373" y="-7.5" font-family="Helvetica,sans-Serif" font-size="10.00">numbers</text>
</a>
</g>
</g>
<!-- Node3&#45;&gt;Node7 -->
<g id="edge6" class="edge">
<title>Node3&#45;&gt;Node7</title>
<path fill="none" stroke="midnightblue" d="M288.23,-56.32C304.35,-47.7 329.3,-34.36 347.96,-24.39"/>
<polygon fill="midnightblue" stroke="midnightblue" points="349.64,-27.46 356.81,-19.65 346.34,-21.28 349.64,-27.46"/>
</g>
<!-- Node8 -->
<g id="node8" class="node">
<title>Node8</title>
<g id="a_node8"><a xlink:title=" ">
<polygon fill="none" stroke="#bfbfbf" points="421,-0.5 421,-19.5 475,-19.5 475,-0.5 421,-0.5"/>
<text text-anchor="middle" x="448" y="-7.5" font-family="Helvetica,sans-Serif" font-size="10.00">random</text>
</a>
</g>
</g>
<!-- Node3&#45;&gt;Node8 -->
<g id="edge7" class="edge">
<title>Node3&#45;&gt;Node8</title>
<path fill="none" stroke="midnightblue" d="M297.22,-57.26C327.06,-48.11 377.01,-32.78 411.18,-22.3"/>
<polygon fill="midnightblue" stroke="midnightblue" points="412.27,-25.62 420.81,-19.34 410.22,-18.93 412.27,-25.62"/>
</g>
<!-- Node9&#45;&gt;Node5 -->
<g id="edge10" class="edge">
<title>Node9&#45;&gt;Node5</title>
<path fill="none" stroke="midnightblue" d="M170.89,-56.32C182.15,-48.11 199.29,-35.6 212.71,-25.81"/>
<polygon fill="midnightblue" stroke="midnightblue" points="214.88,-28.56 220.89,-19.83 210.75,-22.9 214.88,-28.56"/>
</g>
<!-- Node9&#45;&gt;Node10 -->
<g id="edge9" class="edge">
<title>Node9&#45;&gt;Node10</title>
<path fill="none" stroke="midnightblue" d="M149.36,-56.32C140.49,-48.34 127.13,-36.31 116.39,-26.65"/>
<polygon fill="midnightblue" stroke="midnightblue" points="118.59,-23.92 108.82,-19.83 113.91,-29.13 118.59,-23.92"/>
</g>
<!-- Node9&#45;&gt;Node11 -->
<g id="edge11" class="edge">
<title>Node9&#45;&gt;Node11</title>
<path fill="none" stroke="midnightblue" d="M159.99,-56.08C160.79,-48.93 161.93,-38.64 162.92,-29.69"/>
<polygon fill="midnightblue" stroke="midnightblue" points="166.4,-30.08 164.03,-19.75 159.44,-29.3 166.4,-30.08"/>
</g>
<!-- Node9&#45;&gt;Node12 -->
<g id="edge12" class="edge">
<title>Node9&#45;&gt;Node12</title>
<path fill="none" stroke="midnightblue" d="M138.56,-56.44C117.33,-47.56 83.9,-33.56 59.75,-23.45"/>
<polygon fill="midnightblue" stroke="midnightblue" points="60.92,-20.15 50.34,-19.52 58.22,-26.61 60.92,-20.15"/>
</g>
<!-- Node15 -->
<g id="node15" class="node">
<title>Node15</title>
<g id="a_node15"><a xlink:title=" ">
<polygon fill="none" stroke="#bfbfbf" points="695,-56.5 695,-75.5 733,-75.5 733,-56.5 695,-56.5"/>
<text text-anchor="middle" x="714" y="-63.5" font-family="Helvetica,sans-Serif" font-size="10.00">map</text>
</a>
</g>
</g>
<!-- Node14&#45;&gt;Node15 -->
<g id="edge18" class="edge">
<title>Node14&#45;&gt;Node15</title>
<path fill="none" stroke="midnightblue" d="M732.37,-112.08C729.39,-104.77 725.07,-94.18 721.38,-85.1"/>
<polygon fill="midnightblue" stroke="midnightblue" points="724.58,-83.69 717.57,-75.75 718.1,-86.33 724.58,-83.69"/>
</g>
<!-- Node16 -->
<g id="node16" class="node">
<title>Node16</title>
<g id="a_node16"><a xlink:title=" ">
<polygon fill="none" stroke="#bfbfbf" points="751,-56.5 751,-75.5 795,-75.5 795,-56.5 751,-56.5"/>
<text text-anchor="middle" x="773" y="-63.5" font-family="Helvetica,sans-Serif" font-size="10.00">string</text>
</a>
</g>
</g>
<!-- Node14&#45;&gt;Node16 -->
<g id="edge19" class="edge">
<title>Node14&#45;&gt;Node16</title>
<path fill="none" stroke="midnightblue" d="M742.11,-112.08C747.28,-104.53 754.85,-93.49 761.19,-84.23"/>
<polygon fill="midnightblue" stroke="midnightblue" points="764.24,-85.98 767,-75.75 758.46,-82.02 764.24,-85.98"/>
</g>
<!-- Node14&#45;&gt;Node17 -->
<g id="edge20" class="edge">
<title>Node14&#45;&gt;Node17</title>
<path fill="none" stroke="midnightblue" d="M752.23,-112.32C768.35,-103.7 793.3,-90.36 811.96,-80.39"/>
<polygon fill="midnightblue" stroke="midnightblue" points="813.64,-83.46 820.81,-75.65 810.34,-77.28 813.64,-83.46"/>
</g>
<!-- Node18&#45;&gt;Node6 -->
<g id="edge26" class="edge">
<title>Node18&#45;&gt;Node6</title>
<path fill="none" stroke="midnightblue" d="M574.49,-112.47C577.76,-99.94 582.6,-75.87 578,-56 575.77,-46.36 571.18,-36.41 566.76,-28.31"/>
<polygon fill="midnightblue" stroke="midnightblue" points="569.7,-26.4 561.64,-19.52 563.65,-29.92 569.7,-26.4"/>
</g>
<!-- Node19 -->
<g id="node19" class="node">
<title>Node19</title>
<g id="a_node19"><a xlink:title=" ">
<polygon fill="none" stroke="#bfbfbf" points="625,-56.5 625,-75.5 677,-75.5 677,-56.5 625,-56.5"/>
<text text-anchor="middle" x="651" y="-63.5" font-family="Helvetica,sans-Serif" font-size="10.00">cassert</text>
</a>
</g>
</g>
<!-- Node18&#45;&gt;Node19 -->
<g id="edge22" class="edge">
<title>Node18&#45;&gt;Node19</title>
<path fill="none" stroke="midnightblue" d="M584.69,-112.32C596.9,-103.98 615.58,-91.21 630,-81.35"/>
<polygon fill="midnightblue" stroke="midnightblue" points="632.06,-84.19 638.34,-75.65 628.11,-78.41 632.06,-84.19"/>
</g>
<!-- Node20 -->
<g id="node20" class="node">
<title>Node20</title>
<g id="a_node20"><a xlink:title=" ">
<polygon fill="none" stroke="#bfbfbf" points="393,-56.5 393,-75.5 457,-75.5 457,-56.5 393,-56.5"/>
<text text-anchor="middle" x="425" y="-63.5" font-family="Helvetica,sans-Serif" font-size="10.00">algorithm</text>
</a>
</g>
</g>
<!-- Node18&#45;&gt;Node20 -->
<g id="edge23" class="edge">
<title>Node18&#45;&gt;Node20</title>
<path fill="none" stroke="midnightblue" d="M548.71,-112.44C524.19,-103.44 485.4,-89.19 457.8,-79.05"/>
<polygon fill="midnightblue" stroke="midnightblue" points="458.78,-75.68 448.18,-75.52 456.36,-82.25 458.78,-75.68"/>
</g>
<!-- Node21 -->
<g id="node21" class="node">
<title>Node21</title>
<g id="a_node21"><a xlink:title=" ">
<polygon fill="none" stroke="#bfbfbf" points="475,-56.5 475,-75.5 507,-75.5 507,-56.5 475,-56.5"/>
<text text-anchor="middle" x="491" y="-63.5" font-family="Helvetica,sans-Serif" font-size="10.00">list</text>
</a>
</g>
</g>
<!-- Node18&#45;&gt;Node21 -->
<g id="edge24" class="edge">
<title>Node18&#45;&gt;Node21</title>
<path fill="none" stroke="midnightblue" d="M558.99,-112.32C546.47,-103.98 527.32,-91.21 512.53,-81.35"/>
<polygon fill="midnightblue" stroke="midnightblue" points="514.24,-78.29 503.98,-75.65 510.36,-84.11 514.24,-78.29"/>
</g>
<!-- Node22 -->
<g id="node22" class="node">
<title>Node22</title>
<g id="a_node22"><a xlink:title=" ">
<polygon fill="none" stroke="#bfbfbf" points="525,-56.5 525,-75.5 569,-75.5 569,-56.5 525,-56.5"/>
<text text-anchor="middle" x="547" y="-63.5" font-family="Helvetica,sans-Serif" font-size="10.00">ctime</text>
</a>
</g>
</g>
<!-- Node18&#45;&gt;Node22 -->
<g id="edge25" class="edge">
<title>Node18&#45;&gt;Node22</title>
<path fill="none" stroke="midnightblue" d="M567.87,-112.08C564.49,-104.77 559.58,-94.18 555.38,-85.1"/>
<polygon fill="midnightblue" stroke="midnightblue" points="558.43,-83.36 551.05,-75.75 552.08,-86.3 558.43,-83.36"/>
</g>
</g>
</svg>
