<?xml version="1.0" encoding="UTF-8" standalone="no"?>
<!DOCTYPE svg PUBLIC "-//W3C//DTD SVG 1.1//EN"
 "http://www.w3.org/Graphics/SVG/1.1/DTD/svg11.dtd">
<!-- Generated by graphviz version 8.1.0 (20230707.0739)
 -->
<!-- Title: Graphical Class Hierarchy Pages: 1 -->
<svg width="240pt" height="341pt"
 viewBox="0.00 0.00 240.25 341.00" xmlns="http://www.w3.org/2000/svg" xmlns:xlink="http://www.w3.org/1999/xlink">
<g id="graph0" class="graph" transform="scale(1 1) rotate(0) translate(4 337)">
<title>Graphical Class Hierarchy</title>
<!-- Node0 -->
<g id="node1" class="node">
<title>Node0</title>
<g id="a_node1"><a xlink:href="class_scene.html" target="_top" xlink:title=" ">
<polygon fill="none" stroke="black" points="0,-156.5 0,-176.5 43.75,-176.5 43.75,-156.5 0,-156.5"/>
<text text-anchor="middle" x="21.88" y="-163" font-family="Helvetica,sans-Serif" font-size="10.00">Scene</text>
</a>
</g>
</g>
<!-- Node1 -->
<g id="node2" class="node">
<title>Node1</title>
<g id="a_node2"><a xlink:href="class_cube_flat_independent_scene.html" target="_top" xlink:title=" ">
<polygon fill="none" stroke="black" points="88.38,-312.5 88.38,-332.5 223.62,-332.5 223.62,-312.5 88.38,-312.5"/>
<text text-anchor="middle" x="156" y="-319" font-family="Helvetica,sans-Serif" font-size="10.00">CubeFlatIndependentScene</text>
</a>
</g>
</g>
<!-- Node0&#45;&gt;Node1 -->
<g id="edge1" class="edge">
<title>Node0&#45;&gt;Node1</title>
<path fill="none" stroke="midnightblue" d="M25.57,-187.01C30.64,-217.13 44.46,-273.03 79.75,-303.5 84.03,-307.2 88.94,-310.2 94.14,-312.62"/>
<polygon fill="midnightblue" stroke="midnightblue" points="28.89,-186.54 23.94,-177.17 21.97,-187.58 28.89,-186.54"/>
</g>
<!-- Node2 -->
<g id="node3" class="node">
<title>Node2</title>
<g id="a_node3"><a xlink:href="class_cube_skin_scene.html" target="_top" xlink:title=" ">
<polygon fill="none" stroke="black" points="113.12,-273.5 113.12,-293.5 198.88,-293.5 198.88,-273.5 113.12,-273.5"/>
<text text-anchor="middle" x="156" y="-280" font-family="Helvetica,sans-Serif" font-size="10.00">CubeSkinScene</text>
</a>
</g>
</g>
<!-- Node0&#45;&gt;Node2 -->
<g id="edge2" class="edge">
<title>Node0&#45;&gt;Node2</title>
<path fill="none" stroke="midnightblue" d="M29.22,-186.66C37.33,-209.08 53.54,-244.73 79.75,-264.5 89.43,-271.8 101.61,-276.32 113.33,-279.1"/>
<polygon fill="midnightblue" stroke="midnightblue" points="32.23,-185.65 25.71,-177.3 25.6,-187.9 32.23,-185.65"/>
</g>
<!-- Node3 -->
<g id="node4" class="node">
<title>Node3</title>
<g id="a_node4"><a xlink:href="class_cube_solid_geometry_scene.html" target="_top" xlink:title=" ">
<polygon fill="none" stroke="black" points="90.62,-234.5 90.62,-254.5 221.38,-254.5 221.38,-234.5 90.62,-234.5"/>
<text text-anchor="middle" x="156" y="-241" font-family="Helvetica,sans-Serif" font-size="10.00">CubeSolidGeometryScene</text>
</a>
</g>
</g>
<!-- Node0&#45;&gt;Node3 -->
<g id="edge3" class="edge">
<title>Node0&#45;&gt;Node3</title>
<path fill="none" stroke="midnightblue" d="M36,-184.81C46.41,-198.02 62.12,-215.28 79.75,-225.5 86.16,-229.22 93.29,-232.22 100.53,-234.63"/>
<polygon fill="midnightblue" stroke="midnightblue" points="38.21,-182.93 29.4,-177.06 32.62,-187.15 38.21,-182.93"/>
</g>
<!-- Node4 -->
<g id="node5" class="node">
<title>Node4</title>
<g id="a_node5"><a xlink:href="class_cube_solid_scene.html" target="_top" xlink:title=" ">
<polygon fill="none" stroke="black" points="112,-195.5 112,-215.5 200,-215.5 200,-195.5 112,-195.5"/>
<text text-anchor="middle" x="156" y="-202" font-family="Helvetica,sans-Serif" font-size="10.00">CubeSolidScene</text>
</a>
</g>
</g>
<!-- Node0&#45;&gt;Node4 -->
<g id="edge4" class="edge">
<title>Node0&#45;&gt;Node4</title>
<path fill="none" stroke="midnightblue" d="M53.68,-177.9C62.08,-180.86 71.22,-183.93 79.75,-186.5 90.33,-189.69 101.85,-192.78 112.63,-195.52"/>
<polygon fill="midnightblue" stroke="midnightblue" points="55.12,-174.35 44.53,-174.27 52.76,-180.94 55.12,-174.35"/>
</g>
<!-- Node5 -->
<g id="node6" class="node">
<title>Node5</title>
<g id="a_node6"><a xlink:href="class_cube_vertex_color_scene.html" target="_top" xlink:title=" ">
<polygon fill="none" stroke="black" points="97.38,-156.5 97.38,-176.5 214.62,-176.5 214.62,-156.5 97.38,-156.5"/>
<text text-anchor="middle" x="156" y="-163" font-family="Helvetica,sans-Serif" font-size="10.00">CubeVertexColorScene</text>
</a>
</g>
</g>
<!-- Node0&#45;&gt;Node5 -->
<g id="edge5" class="edge">
<title>Node0&#45;&gt;Node5</title>
<path fill="none" stroke="midnightblue" d="M54.18,-166.5C67.13,-166.5 82.57,-166.5 97.43,-166.5"/>
<polygon fill="midnightblue" stroke="midnightblue" points="54.52,-163 44.52,-166.5 54.52,-170 54.52,-163"/>
</g>
<!-- Node6 -->
<g id="node7" class="node">
<title>Node6</title>
<g id="a_node7"><a xlink:href="class_cube_vertex_position_color_scene.html" target="_top" xlink:title=" ">
<polygon fill="none" stroke="black" points="79.75,-117.5 79.75,-137.5 232.25,-137.5 232.25,-117.5 79.75,-117.5"/>
<text text-anchor="middle" x="156" y="-124" font-family="Helvetica,sans-Serif" font-size="10.00">CubeVertexPositionColorScene</text>
</a>
</g>
</g>
<!-- Node0&#45;&gt;Node6 -->
<g id="edge6" class="edge">
<title>Node0&#45;&gt;Node6</title>
<path fill="none" stroke="midnightblue" d="M53.73,-155.8C62.14,-152.99 71.27,-150.04 79.75,-147.5 91.4,-144.01 104.16,-140.5 115.81,-137.42"/>
<polygon fill="midnightblue" stroke="midnightblue" points="52.93,-152.72 44.58,-159.24 55.17,-159.35 52.93,-152.72"/>
</g>
<!-- Node7 -->
<g id="node8" class="node">
<title>Node7</title>
<g id="a_node8"><a xlink:href="class_double_cube_scene.html" target="_top" xlink:title=" ">
<polygon fill="none" stroke="black" points="107.88,-78.5 107.88,-98.5 204.12,-98.5 204.12,-78.5 107.88,-78.5"/>
<text text-anchor="middle" x="156" y="-85" font-family="Helvetica,sans-Serif" font-size="10.00">DoubleCubeScene</text>
</a>
</g>
</g>
<!-- Node0&#45;&gt;Node7 -->
<g id="edge7" class="edge">
<title>Node0&#45;&gt;Node7</title>
<path fill="none" stroke="midnightblue" d="M36.45,-148.13C46.92,-135.23 62.49,-118.55 79.75,-108.5 88.39,-103.46 98.33,-99.67 108.08,-96.82"/>
<polygon fill="midnightblue" stroke="midnightblue" points="33.16,-145.67 29.78,-155.71 38.69,-149.96 33.16,-145.67"/>
</g>
<!-- Node8 -->
<g id="node9" class="node">
<title>Node8</title>
<g id="a_node9"><a xlink:href="class_geometry_flat_scene.html" target="_top" xlink:title=" ">
<polygon fill="none" stroke="black" points="104.5,-39.5 104.5,-59.5 207.5,-59.5 207.5,-39.5 104.5,-39.5"/>
<text text-anchor="middle" x="156" y="-46" font-family="Helvetica,sans-Serif" font-size="10.00">GeometryFlatScene</text>
</a>
</g>
</g>
<!-- Node0&#45;&gt;Node8 -->
<g id="edge8" class="edge">
<title>Node0&#45;&gt;Node8</title>
<path fill="none" stroke="midnightblue" d="M29.45,-146.26C37.69,-124.1 53.95,-89.12 79.75,-69.5 87.07,-63.94 95.81,-59.92 104.7,-57.01"/>
<polygon fill="midnightblue" stroke="midnightblue" points="25.85,-144.93 25.86,-155.53 32.46,-147.24 25.85,-144.93"/>
</g>
<!-- Node9 -->
<g id="node10" class="node">
<title>Node9</title>
<g id="a_node10"><a xlink:href="class_vertex_wave_scene.html" target="_top" xlink:title=" ">
<polygon fill="none" stroke="black" points="107.88,-0.5 107.88,-20.5 204.12,-20.5 204.12,-0.5 107.88,-0.5"/>
<text text-anchor="middle" x="156" y="-7" font-family="Helvetica,sans-Serif" font-size="10.00">VertexWaveScene</text>
</a>
</g>
</g>
<!-- Node0&#45;&gt;Node9 -->
<g id="edge9" class="edge">
<title>Node0&#45;&gt;Node9</title>
<path fill="none" stroke="midnightblue" d="M25.74,-145.75C30.99,-115.82 45,-60.81 79.75,-30.5 87.7,-23.57 97.79,-19.01 107.98,-16.01"/>
<polygon fill="midnightblue" stroke="midnightblue" points="22.14,-145.14 24.04,-155.56 29.05,-146.23 22.14,-145.14"/>
</g>
</g>
</svg>
