<?xml version="1.0" encoding="UTF-8" standalone="no"?>
<!DOCTYPE svg PUBLIC "-//W3C//DTD SVG 1.1//EN"
 "http://www.w3.org/Graphics/SVG/1.1/DTD/svg11.dtd">
<!-- Generated by graphviz version 8.1.0 (20230707.0739)
 -->
<!-- Title: Graphical Class Hierarchy Pages: 1 -->
<svg width="240pt" height="224pt"
 viewBox="0.00 0.00 240.25 224.00" xmlns="http://www.w3.org/2000/svg" xmlns:xlink="http://www.w3.org/1999/xlink">
<g id="graph0" class="graph" transform="scale(1 1) rotate(0) translate(4 220)">
<title>Graphical Class Hierarchy</title>
<!-- Node0 -->
<g id="node1" class="node">
<title>Node0</title>
<g id="a_node1"><a xlink:href="class_scene.html" target="_top" xlink:title=" ">
<polygon fill="none" stroke="black" points="0,-97.5 0,-117.5 43.75,-117.5 43.75,-97.5 0,-97.5"/>
<text text-anchor="middle" x="21.88" y="-104" font-family="Helvetica,sans-Serif" font-size="10.00">Scene</text>
</a>
</g>
</g>
<!-- Node1 -->
<g id="node2" class="node">
<title>Node1</title>
<g id="a_node2"><a xlink:href="class_cube_skin_scene.html" target="_top" xlink:title=" ">
<polygon fill="none" stroke="black" points="113.12,-195.5 113.12,-215.5 198.88,-215.5 198.88,-195.5 113.12,-195.5"/>
<text text-anchor="middle" x="156" y="-202" font-family="Helvetica,sans-Serif" font-size="10.00">CubeSkinScene</text>
</a>
</g>
</g>
<!-- Node0&#45;&gt;Node1 -->
<g id="edge1" class="edge">
<title>Node0&#45;&gt;Node1</title>
<path fill="none" stroke="midnightblue" d="M32.07,-127.31C41.51,-145.44 57.89,-171.64 79.75,-186.5 89.67,-193.24 101.78,-197.59 113.37,-200.4"/>
<polygon fill="midnightblue" stroke="midnightblue" points="34.78,-125.9 27.22,-118.48 28.51,-129 34.78,-125.9"/>
</g>
<!-- Node2 -->
<g id="node3" class="node">
<title>Node2</title>
<g id="a_node3"><a xlink:href="class_cube_solid_scene.html" target="_top" xlink:title=" ">
<polygon fill="none" stroke="black" points="112,-156.5 112,-176.5 200,-176.5 200,-156.5 112,-156.5"/>
<text text-anchor="middle" x="156" y="-163" font-family="Helvetica,sans-Serif" font-size="10.00">CubeSolidScene</text>
</a>
</g>
</g>
<!-- Node0&#45;&gt;Node2 -->
<g id="edge2" class="edge">
<title>Node0&#45;&gt;Node2</title>
<path fill="none" stroke="midnightblue" d="M42.66,-124.13C53.12,-132.19 66.51,-141.43 79.75,-147.5 89.91,-152.16 101.4,-155.8 112.28,-158.59"/>
<polygon fill="midnightblue" stroke="midnightblue" points="45.29,-120.95 35.3,-117.45 40.92,-126.42 45.29,-120.95"/>
</g>
<!-- Node3 -->
<g id="node4" class="node">
<title>Node3</title>
<g id="a_node4"><a xlink:href="class_cube_vertex_color_scene.html" target="_top" xlink:title=" ">
<polygon fill="none" stroke="black" points="97.38,-117.5 97.38,-137.5 214.62,-137.5 214.62,-117.5 97.38,-117.5"/>
<text text-anchor="middle" x="156" y="-124" font-family="Helvetica,sans-Serif" font-size="10.00">CubeVertexColorScene</text>
</a>
</g>
</g>
<!-- Node0&#45;&gt;Node3 -->
<g id="edge3" class="edge">
<title>Node0&#45;&gt;Node3</title>
<path fill="none" stroke="midnightblue" d="M54.18,-112.24C67.13,-114.2 82.57,-116.54 97.43,-118.79"/>
<polygon fill="midnightblue" stroke="midnightblue" points="54.93,-108.66 44.52,-110.62 53.88,-115.58 54.93,-108.66"/>
</g>
<!-- Node4 -->
<g id="node5" class="node">
<title>Node4</title>
<g id="a_node5"><a xlink:href="class_cube_vertex_position_color_scene.html" target="_top" xlink:title=" ">
<polygon fill="none" stroke="black" points="79.75,-78.5 79.75,-98.5 232.25,-98.5 232.25,-78.5 79.75,-78.5"/>
<text text-anchor="middle" x="156" y="-85" font-family="Helvetica,sans-Serif" font-size="10.00">CubeVertexPositionColorScene</text>
</a>
</g>
</g>
<!-- Node0&#45;&gt;Node4 -->
<g id="edge4" class="edge">
<title>Node0&#45;&gt;Node4</title>
<path fill="none" stroke="midnightblue" d="M54.34,-102.97C63.82,-101.61 74.63,-100.06 85.55,-98.49"/>
<polygon fill="midnightblue" stroke="midnightblue" points="53.92,-99.64 44.52,-104.53 54.92,-106.57 53.92,-99.64"/>
</g>
<!-- Node5 -->
<g id="node6" class="node">
<title>Node5</title>
<g id="a_node6"><a xlink:href="class_double_cube_scene.html" target="_top" xlink:title=" ">
<polygon fill="none" stroke="black" points="107.88,-39.5 107.88,-59.5 204.12,-59.5 204.12,-39.5 107.88,-39.5"/>
<text text-anchor="middle" x="156" y="-46" font-family="Helvetica,sans-Serif" font-size="10.00">DoubleCubeScene</text>
</a>
</g>
</g>
<!-- Node0&#45;&gt;Node5 -->
<g id="edge5" class="edge">
<title>Node0&#45;&gt;Node5</title>
<path fill="none" stroke="midnightblue" d="M43.53,-91.29C53.92,-83.78 66.99,-75.27 79.75,-69.5 88.62,-65.49 98.45,-62.16 108,-59.43"/>
<polygon fill="midnightblue" stroke="midnightblue" points="41.74,-89 35.83,-97.8 45.93,-94.61 41.74,-89"/>
</g>
<!-- Node6 -->
<g id="node7" class="node">
<title>Node6</title>
<g id="a_node7"><a xlink:href="class_vertex_wave_scene.html" target="_top" xlink:title=" ">
<polygon fill="none" stroke="black" points="107.88,-0.5 107.88,-20.5 204.12,-20.5 204.12,-0.5 107.88,-0.5"/>
<text text-anchor="middle" x="156" y="-7" font-family="Helvetica,sans-Serif" font-size="10.00">VertexWaveScene</text>
</a>
</g>
</g>
<!-- Node0&#45;&gt;Node6 -->
<g id="edge6" class="edge">
<title>Node0&#45;&gt;Node6</title>
<path fill="none" stroke="midnightblue" d="M32.26,-88.21C41.81,-70.59 58.27,-45.11 79.75,-30.5 88.13,-24.8 98.06,-20.72 107.91,-17.81"/>
<polygon fill="midnightblue" stroke="midnightblue" points="28.92,-86.05 27.44,-96.54 35.14,-89.26 28.92,-86.05"/>
</g>
</g>
</svg>
