<?xml version="1.0" encoding="UTF-8" standalone="no"?>
<!DOCTYPE svg PUBLIC "-//W3C//DTD SVG 1.1//EN"
 "http://www.w3.org/Graphics/SVG/1.1/DTD/svg11.dtd">
<!-- Generated by graphviz version 8.1.0 (20230707.0739)
 -->
<!-- Title: Graphical Class Hierarchy Pages: 1 -->
<svg width="255pt" height="107pt"
 viewBox="0.00 0.00 254.50 107.00" xmlns="http://www.w3.org/2000/svg" xmlns:xlink="http://www.w3.org/1999/xlink">
<g id="graph0" class="graph" transform="scale(1 1) rotate(0) translate(4 103)">
<title>Graphical Class Hierarchy</title>
<!-- Node0 -->
<g id="node1" class="node">
<title>Node0</title>
<g id="a_node1"><a xlink:href="class_engine_exception.html" target="_top" xlink:title=" ">
<polygon fill="none" stroke="black" points="0,-39.5 0,-59.5 89.5,-59.5 89.5,-39.5 0,-39.5"/>
<text text-anchor="middle" x="44.75" y="-46" font-family="Helvetica,sans-Serif" font-size="10.00">EngineException</text>
</a>
</g>
</g>
<!-- Node1 -->
<g id="node2" class="node">
<title>Node1</title>
<g id="a_node2"><a xlink:href="class_graphics_1_1_exception.html" target="_top" xlink:title=" ">
<polygon fill="none" stroke="black" points="133.75,-78.5 133.75,-98.5 238.25,-98.5 238.25,-78.5 133.75,-78.5"/>
<text text-anchor="middle" x="186" y="-85" font-family="Helvetica,sans-Serif" font-size="10.00">Graphics::Exception</text>
</a>
</g>
</g>
<!-- Node0&#45;&gt;Node1 -->
<g id="edge1" class="edge">
<title>Node0&#45;&gt;Node1</title>
<path fill="none" stroke="midnightblue" d="M91.69,-62.37C110.52,-67.64 131.98,-73.65 149.57,-78.58"/>
<polygon fill="midnightblue" stroke="midnightblue" points="92.82,-58.77 82.25,-59.44 90.93,-65.51 92.82,-58.77"/>
</g>
<!-- Node2 -->
<g id="node3" class="node">
<title>Node2</title>
<g id="a_node3"><a xlink:href="class_main_window_1_1_exception.html" target="_top" xlink:title=" ">
<polygon fill="none" stroke="black" points="125.5,-39.5 125.5,-59.5 246.5,-59.5 246.5,-39.5 125.5,-39.5"/>
<text text-anchor="middle" x="186" y="-46" font-family="Helvetica,sans-Serif" font-size="10.00">MainWindow::Exception</text>
</a>
</g>
</g>
<!-- Node0&#45;&gt;Node2 -->
<g id="edge2" class="edge">
<title>Node0&#45;&gt;Node2</title>
<path fill="none" stroke="midnightblue" d="M100.19,-49.5C108.54,-49.5 117.2,-49.5 125.66,-49.5"/>
<polygon fill="midnightblue" stroke="midnightblue" points="100.43,-46 90.43,-49.5 100.43,-53 100.43,-46"/>
</g>
<!-- Node3 -->
<g id="node4" class="node">
<title>Node3</title>
<g id="a_node4"><a xlink:href="class_surface_1_1_exception.html" target="_top" xlink:title=" ">
<polygon fill="none" stroke="black" points="136.75,-0.5 136.75,-20.5 235.25,-20.5 235.25,-0.5 136.75,-0.5"/>
<text text-anchor="middle" x="186" y="-7" font-family="Helvetica,sans-Serif" font-size="10.00">Surface::Exception</text>
</a>
</g>
</g>
<!-- Node0&#45;&gt;Node3 -->
<g id="edge3" class="edge">
<title>Node0&#45;&gt;Node3</title>
<path fill="none" stroke="midnightblue" d="M91.69,-36.63C110.52,-31.36 131.98,-25.35 149.57,-20.42"/>
<polygon fill="midnightblue" stroke="midnightblue" points="90.93,-33.49 82.25,-39.56 92.82,-40.23 90.93,-33.49"/>
</g>
</g>
</svg>
