<?xml version="1.0" encoding="UTF-8" standalone="no"?>
<!DOCTYPE svg PUBLIC "-//W3C//DTD SVG 1.1//EN"
 "http://www.w3.org/Graphics/SVG/1.1/DTD/svg11.dtd">
<!-- Generated by graphviz version 2.43.0 (0)
 -->
<!-- Title: include/MainWindow.h Pages: 1 -->
<svg width="896pt" height="364pt"
 viewBox="0.00 0.00 895.50 364.00" xmlns="http://www.w3.org/2000/svg" xmlns:xlink="http://www.w3.org/1999/xlink">
<g id="graph0" class="graph" transform="scale(1 1) rotate(0) translate(4 360)">
<title>include/MainWindow.h</title>
<!-- Node1 -->
<g id="node1" class="node">
<title>Node1</title>
<g id="a_node1"><a xlink:title=" ">
<polygon fill="#bfbfbf" stroke="black" points="289,-336.5 289,-355.5 415,-355.5 415,-336.5 289,-336.5"/>
<text text-anchor="middle" x="352" y="-343.5" font-family="Helvetica,sans-Serif" font-size="10.00">include/MainWindow.h</text>
</a>
</g>
</g>
<!-- Node2 -->
<g id="node2" class="node">
<title>Node2</title>
<g id="a_node2"><a xlink:href="Win_8h.html" target="_top" xlink:title=" ">
<polygon fill="none" stroke="black" points="86,-168.5 86,-187.5 130,-187.5 130,-168.5 86,-168.5"/>
<text text-anchor="middle" x="108" y="-175.5" font-family="Helvetica,sans-Serif" font-size="10.00">Win.h</text>
</a>
</g>
</g>
<!-- Node1&#45;&gt;Node2 -->
<g id="edge1" class="edge">
<title>Node1&#45;&gt;Node2</title>
<path fill="none" stroke="midnightblue" d="M288.77,-339.12C233.64,-332.7 159.24,-320.5 138,-300 110.05,-273.03 106.54,-224.42 106.95,-197.76"/>
<polygon fill="midnightblue" stroke="midnightblue" points="110.45,-197.62 107.31,-187.5 103.46,-197.37 110.45,-197.62"/>
</g>
<!-- Node5 -->
<g id="node5" class="node">
<title>Node5</title>
<g id="a_node5"><a xlink:href="EngineException_8h.html" target="_top" xlink:title=" ">
<polygon fill="none" stroke="black" points="254.5,-168.5 254.5,-187.5 361.5,-187.5 361.5,-168.5 254.5,-168.5"/>
<text text-anchor="middle" x="308" y="-175.5" font-family="Helvetica,sans-Serif" font-size="10.00">EngineException.h</text>
</a>
</g>
</g>
<!-- Node1&#45;&gt;Node5 -->
<g id="edge4" class="edge">
<title>Node1&#45;&gt;Node5</title>
<path fill="none" stroke="midnightblue" d="M349.63,-336.08C342.71,-309.95 322.37,-233.21 312.92,-197.58"/>
<polygon fill="midnightblue" stroke="midnightblue" points="316.22,-196.34 310.27,-187.57 309.45,-198.13 316.22,-196.34"/>
</g>
<!-- Node6 -->
<g id="node6" class="node">
<title>Node6</title>
<g id="a_node6"><a xlink:title=" ">
<polygon fill="none" stroke="#bfbfbf" points="335,-112.5 335,-131.5 379,-131.5 379,-112.5 335,-112.5"/>
<text text-anchor="middle" x="357" y="-119.5" font-family="Helvetica,sans-Serif" font-size="10.00">string</text>
</a>
</g>
</g>
<!-- Node1&#45;&gt;Node6 -->
<g id="edge52" class="edge">
<title>Node1&#45;&gt;Node6</title>
<path fill="none" stroke="midnightblue" d="M309.75,-336.45C247.08,-321.54 140.03,-286.27 171,-224 189.37,-187.07 209.1,-188.31 245,-168 270.74,-153.44 302.13,-141.26 325.13,-133.26"/>
<polygon fill="midnightblue" stroke="midnightblue" points="326.4,-136.52 334.74,-129.98 324.14,-129.89 326.4,-136.52"/>
</g>
<!-- Node8 -->
<g id="node8" class="node">
<title>Node8</title>
<g id="a_node8"><a xlink:href="Graphics_8h.html" target="_top" xlink:title=" ">
<polygon fill="none" stroke="black" points="356,-280.5 356,-299.5 424,-299.5 424,-280.5 356,-280.5"/>
<text text-anchor="middle" x="390" y="-287.5" font-family="Helvetica,sans-Serif" font-size="10.00">Graphics.h</text>
</a>
</g>
</g>
<!-- Node1&#45;&gt;Node8 -->
<g id="edge7" class="edge">
<title>Node1&#45;&gt;Node8</title>
<path fill="none" stroke="midnightblue" d="M358.27,-336.08C363.64,-328.46 371.52,-317.26 378.08,-307.94"/>
<polygon fill="midnightblue" stroke="midnightblue" points="380.95,-309.94 383.84,-299.75 375.22,-305.91 380.95,-309.94"/>
</g>
<!-- Node29 -->
<g id="node29" class="node">
<title>Node29</title>
<g id="a_node29"><a xlink:href="Keyboard_8h.html" target="_top" xlink:title=" ">
<polygon fill="none" stroke="black" points="610.5,-280.5 610.5,-299.5 681.5,-299.5 681.5,-280.5 610.5,-280.5"/>
<text text-anchor="middle" x="646" y="-287.5" font-family="Helvetica,sans-Serif" font-size="10.00">Keyboard.h</text>
</a>
</g>
</g>
<!-- Node1&#45;&gt;Node29 -->
<g id="edge38" class="edge">
<title>Node1&#45;&gt;Node29</title>
<path fill="none" stroke="midnightblue" d="M398.59,-336.44C453.8,-326.3 545.22,-309.51 600.13,-299.43"/>
<polygon fill="midnightblue" stroke="midnightblue" points="601.06,-302.81 610.27,-297.56 599.8,-295.93 601.06,-302.81"/>
</g>
<!-- Node32 -->
<g id="node32" class="node">
<title>Node32</title>
<g id="a_node32"><a xlink:href="Mouse_8h.html" target="_top" xlink:title=" ">
<polygon fill="none" stroke="black" points="700,-280.5 700,-299.5 758,-299.5 758,-280.5 700,-280.5"/>
<text text-anchor="middle" x="729" y="-287.5" font-family="Helvetica,sans-Serif" font-size="10.00">Mouse.h</text>
</a>
</g>
</g>
<!-- Node1&#45;&gt;Node32 -->
<g id="edge41" class="edge">
<title>Node1&#45;&gt;Node32</title>
<path fill="none" stroke="midnightblue" d="M415.09,-338.55C481.19,-331.35 588.22,-318.48 689.51,-300.12"/>
<polygon fill="midnightblue" stroke="midnightblue" points="690.4,-303.52 699.6,-298.27 689.14,-296.63 690.4,-303.52"/>
</g>
<!-- Node3 -->
<g id="node3" class="node">
<title>Node3</title>
<g id="a_node3"><a xlink:title=" ">
<polygon fill="none" stroke="#bfbfbf" points="0,-112.5 0,-131.5 76,-131.5 76,-112.5 0,-112.5"/>
<text text-anchor="middle" x="38" y="-119.5" font-family="Helvetica,sans-Serif" font-size="10.00">sdkddkver.h</text>
</a>
</g>
</g>
<!-- Node2&#45;&gt;Node3 -->
<g id="edge2" class="edge">
<title>Node2&#45;&gt;Node3</title>
<path fill="none" stroke="midnightblue" d="M96.75,-168.32C86.2,-160.18 70.2,-147.84 57.56,-138.09"/>
<polygon fill="midnightblue" stroke="midnightblue" points="59.51,-135.17 49.45,-131.83 55.23,-140.71 59.51,-135.17"/>
</g>
<!-- Node4 -->
<g id="node4" class="node">
<title>Node4</title>
<g id="a_node4"><a xlink:title=" ">
<polygon fill="none" stroke="#bfbfbf" points="94,-112.5 94,-131.5 164,-131.5 164,-112.5 94,-112.5"/>
<text text-anchor="middle" x="129" y="-119.5" font-family="Helvetica,sans-Serif" font-size="10.00">Windows.h</text>
</a>
</g>
</g>
<!-- Node2&#45;&gt;Node4 -->
<g id="edge3" class="edge">
<title>Node2&#45;&gt;Node4</title>
<path fill="none" stroke="midnightblue" d="M111.47,-168.08C114.31,-160.77 118.43,-150.18 121.96,-141.1"/>
<polygon fill="midnightblue" stroke="midnightblue" points="125.23,-142.34 125.6,-131.75 118.71,-139.8 125.23,-142.34"/>
</g>
<!-- Node5&#45;&gt;Node6 -->
<g id="edge5" class="edge">
<title>Node5&#45;&gt;Node6</title>
<path fill="none" stroke="midnightblue" d="M316.09,-168.08C323.16,-160.3 333.59,-148.8 342.15,-139.37"/>
<polygon fill="midnightblue" stroke="midnightblue" points="344.93,-141.51 349.06,-131.75 339.75,-136.8 344.93,-141.51"/>
</g>
<!-- Node7 -->
<g id="node7" class="node">
<title>Node7</title>
<g id="a_node7"><a xlink:title=" ">
<polygon fill="none" stroke="#bfbfbf" points="223.5,-112.5 223.5,-131.5 316.5,-131.5 316.5,-112.5 223.5,-112.5"/>
<text text-anchor="middle" x="270" y="-119.5" font-family="Helvetica,sans-Serif" font-size="10.00">source_location</text>
</a>
</g>
</g>
<!-- Node5&#45;&gt;Node7 -->
<g id="edge6" class="edge">
<title>Node5&#45;&gt;Node7</title>
<path fill="none" stroke="midnightblue" d="M301.73,-168.08C296.36,-160.46 288.48,-149.26 281.92,-139.94"/>
<polygon fill="midnightblue" stroke="midnightblue" points="284.78,-137.91 276.16,-131.75 279.05,-141.94 284.78,-137.91"/>
</g>
<!-- Node8&#45;&gt;Node5 -->
<g id="edge8" class="edge">
<title>Node8&#45;&gt;Node5</title>
<path fill="none" stroke="midnightblue" d="M383.57,-280.37C369.97,-262.14 338.14,-219.43 320.43,-195.68"/>
<polygon fill="midnightblue" stroke="midnightblue" points="323.19,-193.52 314.4,-187.59 317.58,-197.7 323.19,-193.52"/>
</g>
<!-- Node9 -->
<g id="node9" class="node">
<title>Node9</title>
<g id="a_node9"><a xlink:href="Vector3_8h.html" target="_top" xlink:title=" ">
<polygon fill="none" stroke="black" points="417.5,-112.5 417.5,-131.5 550.5,-131.5 550.5,-112.5 417.5,-112.5"/>
<text text-anchor="middle" x="484" y="-119.5" font-family="Helvetica,sans-Serif" font-size="10.00">LinearAlgebra/Vector3.h</text>
</a>
</g>
</g>
<!-- Node8&#45;&gt;Node9 -->
<g id="edge9" class="edge">
<title>Node8&#45;&gt;Node9</title>
<path fill="none" stroke="midnightblue" d="M391.64,-280.28C394.25,-267.5 399.98,-243.14 409,-224 424.57,-190.96 451.81,-157.98 468.82,-139.09"/>
<polygon fill="midnightblue" stroke="midnightblue" points="471.45,-141.4 475.63,-131.67 466.29,-136.67 471.45,-141.4"/>
</g>
<!-- Node21 -->
<g id="node21" class="node">
<title>Node21</title>
<g id="a_node21"><a xlink:href="GDIPlusManager_8h.html" target="_top" xlink:title=" ">
<polygon fill="none" stroke="black" points="180,-224.5 180,-243.5 286,-243.5 286,-224.5 180,-224.5"/>
<text text-anchor="middle" x="233" y="-231.5" font-family="Helvetica,sans-Serif" font-size="10.00">GDIPlusManager.h</text>
</a>
</g>
</g>
<!-- Node8&#45;&gt;Node21 -->
<g id="edge25" class="edge">
<title>Node8&#45;&gt;Node21</title>
<path fill="none" stroke="midnightblue" d="M365.12,-280.44C338.71,-271.36 296.78,-256.94 267.26,-246.78"/>
<polygon fill="midnightblue" stroke="midnightblue" points="268.36,-243.46 257.76,-243.52 266.08,-250.08 268.36,-243.46"/>
</g>
<!-- Node22 -->
<g id="node22" class="node">
<title>Node22</title>
<g id="a_node22"><a xlink:href="Surface_8h.html" target="_top" xlink:title=" ">
<polygon fill="none" stroke="black" points="418,-224.5 418,-243.5 480,-243.5 480,-224.5 418,-224.5"/>
<text text-anchor="middle" x="449" y="-231.5" font-family="Helvetica,sans-Serif" font-size="10.00">Surface.h</text>
</a>
</g>
</g>
<!-- Node8&#45;&gt;Node22 -->
<g id="edge27" class="edge">
<title>Node8&#45;&gt;Node22</title>
<path fill="none" stroke="midnightblue" d="M399.48,-280.32C408.2,-272.34 421.34,-260.31 431.9,-250.65"/>
<polygon fill="midnightblue" stroke="midnightblue" points="434.33,-253.17 439.35,-243.83 429.61,-248 434.33,-253.17"/>
</g>
<!-- Node27 -->
<g id="node27" class="node">
<title>Node27</title>
<g id="a_node27"><a xlink:title=" ">
<polygon fill="none" stroke="#bfbfbf" points="498,-224.5 498,-243.5 554,-243.5 554,-224.5 498,-224.5"/>
<text text-anchor="middle" x="526" y="-231.5" font-family="Helvetica,sans-Serif" font-size="10.00">d3d11.h</text>
</a>
</g>
</g>
<!-- Node8&#45;&gt;Node27 -->
<g id="edge36" class="edge">
<title>Node8&#45;&gt;Node27</title>
<path fill="none" stroke="midnightblue" d="M411.55,-280.44C434.03,-271.52 469.49,-257.44 494.98,-247.32"/>
<polygon fill="midnightblue" stroke="midnightblue" points="496.55,-250.46 504.55,-243.52 493.97,-243.95 496.55,-250.46"/>
</g>
<!-- Node28 -->
<g id="node28" class="node">
<title>Node28</title>
<g id="a_node28"><a xlink:title=" ">
<polygon fill="none" stroke="#bfbfbf" points="572.5,-224.5 572.5,-243.5 613.5,-243.5 613.5,-224.5 572.5,-224.5"/>
<text text-anchor="middle" x="593" y="-231.5" font-family="Helvetica,sans-Serif" font-size="10.00">wrl.h</text>
</a>
</g>
</g>
<!-- Node8&#45;&gt;Node28 -->
<g id="edge37" class="edge">
<title>Node8&#45;&gt;Node28</title>
<path fill="none" stroke="midnightblue" d="M424.24,-280.49C457.23,-272.2 508.78,-259.03 562.65,-244.02"/>
<polygon fill="midnightblue" stroke="midnightblue" points="563.69,-247.36 572.37,-241.3 561.8,-240.62 563.69,-247.36"/>
</g>
<!-- Node10 -->
<g id="node10" class="node">
<title>Node10</title>
<g id="a_node10"><a xlink:href="Math_8h.html" target="_top" xlink:title=" ">
<polygon fill="none" stroke="black" points="368,-56.5 368,-75.5 418,-75.5 418,-56.5 368,-56.5"/>
<text text-anchor="middle" x="393" y="-63.5" font-family="Helvetica,sans-Serif" font-size="10.00">Math.h</text>
</a>
</g>
</g>
<!-- Node9&#45;&gt;Node10 -->
<g id="edge10" class="edge">
<title>Node9&#45;&gt;Node10</title>
<path fill="none" stroke="midnightblue" d="M469.38,-112.32C455.05,-103.82 432.99,-90.73 416.25,-80.8"/>
<polygon fill="midnightblue" stroke="midnightblue" points="417.97,-77.75 407.58,-75.65 414.4,-83.77 417.97,-77.75"/>
</g>
<!-- Node16 -->
<g id="node16" class="node">
<title>Node16</title>
<g id="a_node16"><a xlink:href="Matrix3_8h.html" target="_top" xlink:title=" ">
<polygon fill="none" stroke="black" points="512.5,-56.5 512.5,-75.5 575.5,-75.5 575.5,-56.5 512.5,-56.5"/>
<text text-anchor="middle" x="544" y="-63.5" font-family="Helvetica,sans-Serif" font-size="10.00">Matrix3.h</text>
</a>
</g>
</g>
<!-- Node9&#45;&gt;Node16 -->
<g id="edge16" class="edge">
<title>Node9&#45;&gt;Node16</title>
<path fill="none" stroke="midnightblue" d="M493.64,-112.32C502.51,-104.34 515.87,-92.31 526.61,-82.65"/>
<polygon fill="midnightblue" stroke="midnightblue" points="529.09,-85.13 534.18,-75.83 524.41,-79.92 529.09,-85.13"/>
</g>
<!-- Node17 -->
<g id="node17" class="node">
<title>Node17</title>
<g id="a_node17"><a xlink:title=" ">
<polygon fill="none" stroke="#bfbfbf" points="548,-0.5 548,-19.5 590,-19.5 590,-0.5 548,-0.5"/>
<text text-anchor="middle" x="569" y="-7.5" font-family="Helvetica,sans-Serif" font-size="10.00">array</text>
</a>
</g>
</g>
<!-- Node9&#45;&gt;Node17 -->
<g id="edge21" class="edge">
<title>Node9&#45;&gt;Node17</title>
<path fill="none" stroke="midnightblue" d="M478.32,-112.27C470.5,-99.07 458.63,-73.66 470,-56 477.89,-43.75 512.23,-29.92 538.27,-20.87"/>
<polygon fill="midnightblue" stroke="midnightblue" points="539.43,-24.17 547.77,-17.64 537.18,-17.54 539.43,-24.17"/>
</g>
<!-- Node18 -->
<g id="node18" class="node">
<title>Node18</title>
<g id="a_node18"><a xlink:title=" ">
<polygon fill="none" stroke="#bfbfbf" points="608.5,-0.5 608.5,-19.5 661.5,-19.5 661.5,-0.5 608.5,-0.5"/>
<text text-anchor="middle" x="635" y="-7.5" font-family="Helvetica,sans-Serif" font-size="10.00">cstddef</text>
</a>
</g>
</g>
<!-- Node9&#45;&gt;Node18 -->
<g id="edge24" class="edge">
<title>Node9&#45;&gt;Node18</title>
<path fill="none" stroke="midnightblue" d="M484.27,-112.17C485.17,-98.36 488.89,-71.61 504,-56 510.82,-48.95 562.16,-32.61 598.5,-21.68"/>
<polygon fill="midnightblue" stroke="midnightblue" points="599.72,-24.97 608.3,-18.76 597.72,-18.26 599.72,-24.97"/>
</g>
<!-- Node19 -->
<g id="node19" class="node">
<title>Node19</title>
<g id="a_node19"><a xlink:title=" ">
<polygon fill="none" stroke="#bfbfbf" points="723,-0.5 723,-19.5 783,-19.5 783,-0.5 723,-0.5"/>
<text text-anchor="middle" x="753" y="-7.5" font-family="Helvetica,sans-Serif" font-size="10.00">iostream</text>
</a>
</g>
</g>
<!-- Node9&#45;&gt;Node19 -->
<g id="edge22" class="edge">
<title>Node9&#45;&gt;Node19</title>
<path fill="none" stroke="midnightblue" d="M504.27,-112.36C524.77,-103.53 557.3,-89.26 585,-76 602.57,-67.59 606.09,-63.67 624,-56 654.03,-43.14 689.08,-31.09 715.06,-22.7"/>
<polygon fill="midnightblue" stroke="midnightblue" points="716.43,-25.94 724.9,-19.56 714.31,-19.27 716.43,-25.94"/>
</g>
<!-- Node20 -->
<g id="node20" class="node">
<title>Node20</title>
<g id="a_node20"><a xlink:title=" ">
<polygon fill="none" stroke="#bfbfbf" points="632.5,-56.5 632.5,-75.5 691.5,-75.5 691.5,-56.5 632.5,-56.5"/>
<text text-anchor="middle" x="662" y="-63.5" font-family="Helvetica,sans-Serif" font-size="10.00">compare</text>
</a>
</g>
</g>
<!-- Node9&#45;&gt;Node20 -->
<g id="edge23" class="edge">
<title>Node9&#45;&gt;Node20</title>
<path fill="none" stroke="midnightblue" d="M512.2,-112.44C542.41,-103.28 590.51,-88.69 624.03,-78.52"/>
<polygon fill="midnightblue" stroke="midnightblue" points="625.37,-81.77 633.93,-75.52 623.34,-75.07 625.37,-81.77"/>
</g>
<!-- Node11 -->
<g id="node11" class="node">
<title>Node11</title>
<g id="a_node11"><a xlink:title=" ">
<polygon fill="none" stroke="#bfbfbf" points="413.5,-0.5 413.5,-19.5 464.5,-19.5 464.5,-0.5 413.5,-0.5"/>
<text text-anchor="middle" x="439" y="-7.5" font-family="Helvetica,sans-Serif" font-size="10.00">math.h</text>
</a>
</g>
</g>
<!-- Node10&#45;&gt;Node11 -->
<g id="edge11" class="edge">
<title>Node10&#45;&gt;Node11</title>
<path fill="none" stroke="midnightblue" d="M400.6,-56.08C407.23,-48.3 417.02,-36.8 425.06,-27.37"/>
<polygon fill="midnightblue" stroke="midnightblue" points="427.73,-29.63 431.55,-19.75 422.4,-25.09 427.73,-29.63"/>
</g>
<!-- Node12 -->
<g id="node12" class="node">
<title>Node12</title>
<g id="a_node12"><a xlink:title=" ">
<polygon fill="none" stroke="#bfbfbf" points="482.5,-0.5 482.5,-19.5 529.5,-19.5 529.5,-0.5 482.5,-0.5"/>
<text text-anchor="middle" x="506" y="-7.5" font-family="Helvetica,sans-Serif" font-size="10.00">cmath</text>
</a>
</g>
</g>
<!-- Node10&#45;&gt;Node12 -->
<g id="edge12" class="edge">
<title>Node10&#45;&gt;Node12</title>
<path fill="none" stroke="midnightblue" d="M410.91,-56.44C429.25,-47.68 458.01,-33.94 479.09,-23.86"/>
<polygon fill="midnightblue" stroke="midnightblue" points="480.67,-26.99 488.18,-19.52 477.65,-20.67 480.67,-26.99"/>
</g>
<!-- Node13 -->
<g id="node13" class="node">
<title>Node13</title>
<g id="a_node13"><a xlink:title=" ">
<polygon fill="none" stroke="#bfbfbf" points="201,-0.5 201,-19.5 245,-19.5 245,-0.5 201,-0.5"/>
<text text-anchor="middle" x="223" y="-7.5" font-family="Helvetica,sans-Serif" font-size="10.00">limits</text>
</a>
</g>
</g>
<!-- Node10&#45;&gt;Node13 -->
<g id="edge13" class="edge">
<title>Node10&#45;&gt;Node13</title>
<path fill="none" stroke="midnightblue" d="M367.92,-57.03C337.87,-47.49 287.49,-31.49 254.76,-21.09"/>
<polygon fill="midnightblue" stroke="midnightblue" points="255.8,-17.75 245.21,-18.05 253.68,-24.42 255.8,-17.75"/>
</g>
<!-- Node14 -->
<g id="node14" class="node">
<title>Node14</title>
<g id="a_node14"><a xlink:title=" ">
<polygon fill="none" stroke="#bfbfbf" points="263.5,-0.5 263.5,-19.5 322.5,-19.5 322.5,-0.5 263.5,-0.5"/>
<text text-anchor="middle" x="293" y="-7.5" font-family="Helvetica,sans-Serif" font-size="10.00">numbers</text>
</a>
</g>
</g>
<!-- Node10&#45;&gt;Node14 -->
<g id="edge14" class="edge">
<title>Node10&#45;&gt;Node14</title>
<path fill="none" stroke="midnightblue" d="M376.93,-56.32C361.04,-47.74 336.49,-34.49 318.04,-24.52"/>
<polygon fill="midnightblue" stroke="midnightblue" points="319.49,-21.33 309.03,-19.65 316.16,-27.49 319.49,-21.33"/>
</g>
<!-- Node15 -->
<g id="node15" class="node">
<title>Node15</title>
<g id="a_node15"><a xlink:title=" ">
<polygon fill="none" stroke="#bfbfbf" points="341,-0.5 341,-19.5 395,-19.5 395,-0.5 341,-0.5"/>
<text text-anchor="middle" x="368" y="-7.5" font-family="Helvetica,sans-Serif" font-size="10.00">random</text>
</a>
</g>
</g>
<!-- Node10&#45;&gt;Node15 -->
<g id="edge15" class="edge">
<title>Node10&#45;&gt;Node15</title>
<path fill="none" stroke="midnightblue" d="M388.87,-56.08C385.49,-48.77 380.58,-38.18 376.38,-29.1"/>
<polygon fill="midnightblue" stroke="midnightblue" points="379.43,-27.36 372.05,-19.75 373.08,-30.3 379.43,-27.36"/>
</g>
<!-- Node16&#45;&gt;Node12 -->
<g id="edge18" class="edge">
<title>Node16&#45;&gt;Node12</title>
<path fill="none" stroke="midnightblue" d="M537.73,-56.08C532.36,-48.46 524.48,-37.26 517.92,-27.94"/>
<polygon fill="midnightblue" stroke="midnightblue" points="520.78,-25.91 512.16,-19.75 515.05,-29.94 520.78,-25.91"/>
</g>
<!-- Node16&#45;&gt;Node17 -->
<g id="edge17" class="edge">
<title>Node16&#45;&gt;Node17</title>
<path fill="none" stroke="midnightblue" d="M548.13,-56.08C551.51,-48.77 556.42,-38.18 560.62,-29.1"/>
<polygon fill="midnightblue" stroke="midnightblue" points="563.92,-30.3 564.95,-19.75 557.57,-27.36 563.92,-30.3"/>
</g>
<!-- Node16&#45;&gt;Node18 -->
<g id="edge19" class="edge">
<title>Node16&#45;&gt;Node18</title>
<path fill="none" stroke="midnightblue" d="M558.62,-56.32C572.95,-47.82 595.01,-34.73 611.75,-24.8"/>
<polygon fill="midnightblue" stroke="midnightblue" points="613.6,-27.77 620.42,-19.65 610.03,-21.75 613.6,-27.77"/>
</g>
<!-- Node16&#45;&gt;Node19 -->
<g id="edge20" class="edge">
<title>Node16&#45;&gt;Node19</title>
<path fill="none" stroke="midnightblue" d="M575.74,-56.8C612.51,-47.3 673.13,-31.64 713.07,-21.32"/>
<polygon fill="midnightblue" stroke="midnightblue" points="714.19,-24.64 723,-18.75 712.44,-17.87 714.19,-24.64"/>
</g>
<!-- Node21&#45;&gt;Node2 -->
<g id="edge26" class="edge">
<title>Node21&#45;&gt;Node2</title>
<path fill="none" stroke="midnightblue" d="M213.19,-224.44C192.71,-215.6 160.52,-201.69 137.14,-191.59"/>
<polygon fill="midnightblue" stroke="midnightblue" points="138.28,-188.27 127.71,-187.52 135.51,-194.7 138.28,-188.27"/>
</g>
<!-- Node22&#45;&gt;Node2 -->
<g id="edge28" class="edge">
<title>Node22&#45;&gt;Node2</title>
<path fill="none" stroke="midnightblue" d="M417.83,-228.06C353.36,-217.85 205.88,-194.5 140.38,-184.13"/>
<polygon fill="midnightblue" stroke="midnightblue" points="140.65,-180.63 130.23,-182.52 139.56,-187.54 140.65,-180.63"/>
</g>
<!-- Node22&#45;&gt;Node5 -->
<g id="edge31" class="edge">
<title>Node22&#45;&gt;Node5</title>
<path fill="none" stroke="midnightblue" d="M426.66,-224.44C403.25,-215.48 366.26,-201.31 339.81,-191.18"/>
<polygon fill="midnightblue" stroke="midnightblue" points="340.83,-187.82 330.24,-187.52 338.32,-194.36 340.83,-187.82"/>
</g>
<!-- Node22&#45;&gt;Node6 -->
<g id="edge34" class="edge">
<title>Node22&#45;&gt;Node6</title>
<path fill="none" stroke="midnightblue" d="M441.78,-224.37C426.46,-206.05 390.5,-163.05 370.68,-139.36"/>
<polygon fill="midnightblue" stroke="midnightblue" points="373.29,-137.02 364.19,-131.59 367.92,-141.51 373.29,-137.02"/>
</g>
<!-- Node23 -->
<g id="node23" class="node">
<title>Node23</title>
<g id="a_node23"><a xlink:href="Colors_8h.html" target="_top" xlink:title=" ">
<polygon fill="none" stroke="black" points="456,-168.5 456,-187.5 512,-187.5 512,-168.5 456,-168.5"/>
<text text-anchor="middle" x="484" y="-175.5" font-family="Helvetica,sans-Serif" font-size="10.00">Colors.h</text>
</a>
</g>
</g>
<!-- Node22&#45;&gt;Node23 -->
<g id="edge29" class="edge">
<title>Node22&#45;&gt;Node23</title>
<path fill="none" stroke="midnightblue" d="M454.78,-224.08C459.67,-216.53 466.83,-205.49 472.83,-196.23"/>
<polygon fill="midnightblue" stroke="midnightblue" points="475.83,-198.05 478.33,-187.75 469.95,-194.24 475.83,-198.05"/>
</g>
<!-- Node24 -->
<g id="node24" class="node">
<title>Node24</title>
<g id="a_node24"><a xlink:title=" ">
<polygon fill="none" stroke="#bfbfbf" points="530,-168.5 530,-187.5 586,-187.5 586,-168.5 530,-168.5"/>
<text text-anchor="middle" x="558" y="-175.5" font-family="Helvetica,sans-Serif" font-size="10.00">assert.h</text>
</a>
</g>
</g>
<!-- Node22&#45;&gt;Node24 -->
<g id="edge32" class="edge">
<title>Node22&#45;&gt;Node24</title>
<path fill="none" stroke="midnightblue" d="M466.51,-224.32C484.07,-215.62 511.33,-202.12 531.53,-192.11"/>
<polygon fill="midnightblue" stroke="midnightblue" points="533.12,-195.23 540.53,-187.65 530.02,-188.96 533.12,-195.23"/>
</g>
<!-- Node25 -->
<g id="node25" class="node">
<title>Node25</title>
<g id="a_node25"><a xlink:title=" ">
<polygon fill="none" stroke="#bfbfbf" points="604,-168.5 604,-187.5 662,-187.5 662,-168.5 604,-168.5"/>
<text text-anchor="middle" x="633" y="-175.5" font-family="Helvetica,sans-Serif" font-size="10.00">memory</text>
</a>
</g>
</g>
<!-- Node22&#45;&gt;Node25 -->
<g id="edge33" class="edge">
<title>Node22&#45;&gt;Node25</title>
<path fill="none" stroke="midnightblue" d="M478.16,-224.44C509.51,-215.24 559.53,-200.56 594.2,-190.39"/>
<polygon fill="midnightblue" stroke="midnightblue" points="595.37,-193.69 603.98,-187.52 593.4,-186.97 595.37,-193.69"/>
</g>
<!-- Node26 -->
<g id="node26" class="node">
<title>Node26</title>
<g id="a_node26"><a xlink:title=" ">
<polygon fill="none" stroke="#bfbfbf" points="680,-168.5 680,-187.5 748,-187.5 748,-168.5 680,-168.5"/>
<text text-anchor="middle" x="714" y="-175.5" font-family="Helvetica,sans-Serif" font-size="10.00">filesystem</text>
</a>
</g>
</g>
<!-- Node22&#45;&gt;Node26 -->
<g id="edge35" class="edge">
<title>Node22&#45;&gt;Node26</title>
<path fill="none" stroke="midnightblue" d="M480.43,-225.85C483.32,-225.21 486.21,-224.59 489,-224 566.52,-207.61 588.51,-204.66 669.55,-188.27"/>
<polygon fill="midnightblue" stroke="midnightblue" points="670.64,-191.63 679.74,-186.21 669.24,-184.77 670.64,-191.63"/>
</g>
<!-- Node23&#45;&gt;Node9 -->
<g id="edge30" class="edge">
<title>Node23&#45;&gt;Node9</title>
<path fill="none" stroke="midnightblue" d="M484,-168.08C484,-161.01 484,-150.86 484,-141.99"/>
<polygon fill="midnightblue" stroke="midnightblue" points="487.5,-141.75 484,-131.75 480.5,-141.75 487.5,-141.75"/>
</g>
<!-- Node30 -->
<g id="node30" class="node">
<title>Node30</title>
<g id="a_node30"><a xlink:title=" ">
<polygon fill="none" stroke="#bfbfbf" points="632,-224.5 632,-243.5 676,-243.5 676,-224.5 632,-224.5"/>
<text text-anchor="middle" x="654" y="-231.5" font-family="Helvetica,sans-Serif" font-size="10.00">bitset</text>
</a>
</g>
</g>
<!-- Node29&#45;&gt;Node30 -->
<g id="edge39" class="edge">
<title>Node29&#45;&gt;Node30</title>
<path fill="none" stroke="midnightblue" d="M647.32,-280.08C648.38,-272.93 649.91,-262.64 651.23,-253.69"/>
<polygon fill="midnightblue" stroke="midnightblue" points="654.7,-254.16 652.7,-243.75 647.78,-253.13 654.7,-254.16"/>
</g>
<!-- Node31 -->
<g id="node31" class="node">
<title>Node31</title>
<g id="a_node31"><a xlink:title=" ">
<polygon fill="none" stroke="#bfbfbf" points="697.5,-224.5 697.5,-243.5 744.5,-243.5 744.5,-224.5 697.5,-224.5"/>
<text text-anchor="middle" x="721" y="-231.5" font-family="Helvetica,sans-Serif" font-size="10.00">queue</text>
</a>
</g>
</g>
<!-- Node29&#45;&gt;Node31 -->
<g id="edge40" class="edge">
<title>Node29&#45;&gt;Node31</title>
<path fill="none" stroke="midnightblue" d="M658.05,-280.32C669.46,-272.11 686.83,-259.6 700.43,-249.81"/>
<polygon fill="midnightblue" stroke="midnightblue" points="702.66,-252.52 708.73,-243.83 698.57,-246.84 702.66,-252.52"/>
</g>
<!-- Node32&#45;&gt;Node31 -->
<g id="edge51" class="edge">
<title>Node32&#45;&gt;Node31</title>
<path fill="none" stroke="midnightblue" d="M727.68,-280.08C726.62,-272.93 725.09,-262.64 723.77,-253.69"/>
<polygon fill="midnightblue" stroke="midnightblue" points="727.22,-253.13 722.3,-243.75 720.3,-254.16 727.22,-253.13"/>
</g>
<!-- Node33 -->
<g id="node33" class="node">
<title>Node33</title>
<g id="a_node33"><a xlink:href="Vector2_8h.html" target="_top" xlink:title=" ">
<polygon fill="none" stroke="black" points="672.5,-112.5 672.5,-131.5 805.5,-131.5 805.5,-112.5 672.5,-112.5"/>
<text text-anchor="middle" x="739" y="-119.5" font-family="Helvetica,sans-Serif" font-size="10.00">LinearAlgebra/Vector2.h</text>
</a>
</g>
</g>
<!-- Node32&#45;&gt;Node33 -->
<g id="edge42" class="edge">
<title>Node32&#45;&gt;Node33</title>
<path fill="none" stroke="midnightblue" d="M735.47,-280.23C741.49,-271.53 750.09,-257.57 754,-244 763.35,-211.52 763.39,-201.19 757,-168 755.21,-158.7 751.52,-148.89 747.94,-140.8"/>
<polygon fill="midnightblue" stroke="midnightblue" points="751.06,-139.21 743.62,-131.66 744.73,-142.2 751.06,-139.21"/>
</g>
<!-- Node33&#45;&gt;Node10 -->
<g id="edge43" class="edge">
<title>Node33&#45;&gt;Node10</title>
<path fill="none" stroke="midnightblue" d="M684.18,-112.44C612.45,-101.25 488.82,-81.95 428.36,-72.52"/>
<polygon fill="midnightblue" stroke="midnightblue" points="428.6,-69.01 418.18,-70.93 427.52,-75.93 428.6,-69.01"/>
</g>
<!-- Node33&#45;&gt;Node16 -->
<g id="edge46" class="edge">
<title>Node33&#45;&gt;Node16</title>
<path fill="none" stroke="midnightblue" d="M708.1,-112.44C674.73,-103.2 621.41,-88.44 584.65,-78.26"/>
<polygon fill="midnightblue" stroke="midnightblue" points="585.33,-74.81 574.75,-75.52 583.46,-81.56 585.33,-74.81"/>
</g>
<!-- Node33&#45;&gt;Node17 -->
<g id="edge47" class="edge">
<title>Node33&#45;&gt;Node17</title>
<path fill="none" stroke="midnightblue" d="M736.09,-112.08C731.11,-98.14 719.62,-71.22 701,-56 692.95,-49.42 636.23,-31.4 599.8,-20.26"/>
<polygon fill="midnightblue" stroke="midnightblue" points="600.71,-16.88 590.13,-17.31 598.68,-23.57 600.71,-16.88"/>
</g>
<!-- Node33&#45;&gt;Node18 -->
<g id="edge49" class="edge">
<title>Node33&#45;&gt;Node18</title>
<path fill="none" stroke="midnightblue" d="M740.95,-112.08C743.35,-98.61 745.81,-72.88 734,-56 719.61,-35.43 693.47,-24.09 671.66,-17.94"/>
<polygon fill="midnightblue" stroke="midnightblue" points="672.24,-14.48 661.69,-15.39 670.51,-21.26 672.24,-14.48"/>
</g>
<!-- Node33&#45;&gt;Node19 -->
<g id="edge50" class="edge">
<title>Node33&#45;&gt;Node19</title>
<path fill="none" stroke="midnightblue" d="M748.02,-112.34C756.07,-103.93 767.3,-90.36 772,-76 777.19,-60.15 770.79,-41.91 764.06,-28.79"/>
<polygon fill="midnightblue" stroke="midnightblue" points="766.99,-26.87 759.03,-19.89 760.9,-30.32 766.99,-26.87"/>
</g>
<!-- Node33&#45;&gt;Node20 -->
<g id="edge48" class="edge">
<title>Node33&#45;&gt;Node20</title>
<path fill="none" stroke="midnightblue" d="M726.63,-112.32C714.84,-104.06 696.87,-91.45 682.86,-81.63"/>
<polygon fill="midnightblue" stroke="midnightblue" points="684.54,-78.53 674.34,-75.65 680.52,-84.26 684.54,-78.53"/>
</g>
<!-- Node34 -->
<g id="node34" class="node">
<title>Node34</title>
<g id="a_node34"><a xlink:href="Matrix2_8h.html" target="_top" xlink:title=" ">
<polygon fill="none" stroke="black" points="824.5,-56.5 824.5,-75.5 887.5,-75.5 887.5,-56.5 824.5,-56.5"/>
<text text-anchor="middle" x="856" y="-63.5" font-family="Helvetica,sans-Serif" font-size="10.00">Matrix2.h</text>
</a>
</g>
</g>
<!-- Node33&#45;&gt;Node34 -->
<g id="edge44" class="edge">
<title>Node33&#45;&gt;Node34</title>
<path fill="none" stroke="midnightblue" d="M757.54,-112.44C776.62,-103.64 806.57,-89.81 828.44,-79.72"/>
<polygon fill="midnightblue" stroke="midnightblue" points="829.93,-82.88 837.55,-75.52 827,-76.53 829.93,-82.88"/>
</g>
<!-- Node34&#45;&gt;Node19 -->
<g id="edge45" class="edge">
<title>Node34&#45;&gt;Node19</title>
<path fill="none" stroke="midnightblue" d="M839.45,-56.32C823.01,-47.7 797.57,-34.36 778.53,-24.39"/>
<polygon fill="midnightblue" stroke="midnightblue" points="779.99,-21.2 769.51,-19.65 776.74,-27.4 779.99,-21.2"/>
</g>
</g>
</svg>
