<?xml version="1.0" encoding="UTF-8" standalone="no"?>
<!DOCTYPE svg PUBLIC "-//W3C//DTD SVG 1.1//EN"
 "http://www.w3.org/Graphics/SVG/1.1/DTD/svg11.dtd">
<!-- Generated by graphviz version 2.43.0 (0)
 -->
<!-- Title: src/Main.cpp Pages: 1 -->
<svg width="987pt" height="476pt"
 viewBox="0.00 0.00 986.84 476.00" xmlns="http://www.w3.org/2000/svg" xmlns:xlink="http://www.w3.org/1999/xlink">
<g id="graph0" class="graph" transform="scale(1 1) rotate(0) translate(4 472)">
<title>src/Main.cpp</title>
<!-- Node1 -->
<g id="node1" class="node">
<title>Node1</title>
<g id="a_node1"><a xlink:title=" ">
<polygon fill="#bfbfbf" stroke="black" points="664.84,-448.5 664.84,-467.5 742.84,-467.5 742.84,-448.5 664.84,-448.5"/>
<text text-anchor="middle" x="703.84" y="-455.5" font-family="Helvetica,sans-Serif" font-size="10.00">src/Main.cpp</text>
</a>
</g>
</g>
<!-- Node2 -->
<g id="node2" class="node">
<title>Node2</title>
<g id="a_node2"><a xlink:href="Engine_8h.html" target="_top" xlink:title=" ">
<polygon fill="none" stroke="black" points="212.34,-392.5 212.34,-411.5 271.34,-411.5 271.34,-392.5 212.34,-392.5"/>
<text text-anchor="middle" x="241.84" y="-399.5" font-family="Helvetica,sans-Serif" font-size="10.00">Engine.h</text>
</a>
</g>
</g>
<!-- Node1&#45;&gt;Node2 -->
<g id="edge1" class="edge">
<title>Node1&#45;&gt;Node2</title>
<path fill="none" stroke="midnightblue" d="M664.45,-452.4C577.32,-442.21 369.08,-417.87 281.61,-407.65"/>
<polygon fill="midnightblue" stroke="midnightblue" points="281.89,-404.16 271.55,-406.47 281.08,-411.11 281.89,-404.16"/>
</g>
<!-- Node4 -->
<g id="node4" class="node">
<title>Node4</title>
<g id="a_node4"><a xlink:title=" ">
<polygon fill="none" stroke="#bfbfbf" points="63.84,-280.5 63.84,-299.5 113.84,-299.5 113.84,-280.5 63.84,-280.5"/>
<text text-anchor="middle" x="88.84" y="-287.5" font-family="Helvetica,sans-Serif" font-size="10.00">chrono</text>
</a>
</g>
</g>
<!-- Node1&#45;&gt;Node4 -->
<g id="edge65" class="edge">
<title>Node1&#45;&gt;Node4</title>
<path fill="none" stroke="midnightblue" d="M664.61,-455.93C579.84,-453.08 373.56,-443.24 203.84,-412 113.48,-395.37 60.31,-429.24 4.84,-356 -12.84,-332.66 23.74,-313.26 54.07,-301.9"/>
<polygon fill="midnightblue" stroke="midnightblue" points="55.37,-305.15 63.61,-298.5 53.02,-298.56 55.37,-305.15"/>
</g>
<!-- Node19 -->
<g id="node19" class="node">
<title>Node19</title>
<g id="a_node19"><a xlink:title=" ">
<polygon fill="none" stroke="#bfbfbf" points="826.84,-0.5 826.84,-19.5 886.84,-19.5 886.84,-0.5 826.84,-0.5"/>
<text text-anchor="middle" x="856.84" y="-7.5" font-family="Helvetica,sans-Serif" font-size="10.00">iostream</text>
</a>
</g>
</g>
<!-- Node1&#45;&gt;Node19 -->
<g id="edge66" class="edge">
<title>Node1&#45;&gt;Node19</title>
<path fill="none" stroke="midnightblue" d="M743.15,-452.89C801.15,-444.41 902.84,-419.24 902.84,-347 902.84,-347 902.84,-347 902.84,-121 902.84,-85.82 882.56,-48.86 868.93,-28"/>
<polygon fill="midnightblue" stroke="midnightblue" points="871.75,-25.92 863.23,-19.61 865.96,-29.85 871.75,-25.92"/>
</g>
<!-- Node40 -->
<g id="node40" class="node">
<title>Node40</title>
<g id="a_node40"><a xlink:href="MainWindow_8h.html" target="_top" xlink:title=" ">
<polygon fill="none" stroke="black" points="659.84,-336.5 659.84,-355.5 747.84,-355.5 747.84,-336.5 659.84,-336.5"/>
<text text-anchor="middle" x="703.84" y="-343.5" font-family="Helvetica,sans-Serif" font-size="10.00">MainWindow.h</text>
</a>
</g>
</g>
<!-- Node1&#45;&gt;Node40 -->
<g id="edge58" class="edge">
<title>Node1&#45;&gt;Node40</title>
<path fill="none" stroke="midnightblue" d="M703.84,-448.37C703.84,-430.62 703.84,-389.67 703.84,-365.6"/>
<polygon fill="midnightblue" stroke="midnightblue" points="707.34,-365.59 703.84,-355.59 700.34,-365.59 707.34,-365.59"/>
</g>
<!-- Node41 -->
<g id="node41" class="node">
<title>Node41</title>
<g id="a_node41"><a xlink:title=" ">
<polygon fill="none" stroke="#bfbfbf" points="930.84,-392.5 930.84,-411.5 978.84,-411.5 978.84,-392.5 930.84,-392.5"/>
<text text-anchor="middle" x="954.84" y="-399.5" font-family="Helvetica,sans-Serif" font-size="10.00">thread</text>
</a>
</g>
</g>
<!-- Node1&#45;&gt;Node41 -->
<g id="edge67" class="edge">
<title>Node1&#45;&gt;Node41</title>
<path fill="none" stroke="midnightblue" d="M743.16,-448.99C785.95,-440.21 856.35,-425.55 916.84,-412 918.1,-411.72 919.39,-411.43 920.69,-411.13"/>
<polygon fill="midnightblue" stroke="midnightblue" points="921.78,-414.47 930.74,-408.8 920.2,-407.65 921.78,-414.47"/>
</g>
<!-- Node3 -->
<g id="node3" class="node">
<title>Node3</title>
<g id="a_node3"><a xlink:href="FrameTimer_8h.html" target="_top" xlink:title=" ">
<polygon fill="none" stroke="black" points="79.84,-336.5 79.84,-355.5 163.84,-355.5 163.84,-336.5 79.84,-336.5"/>
<text text-anchor="middle" x="121.84" y="-343.5" font-family="Helvetica,sans-Serif" font-size="10.00">FrameTimer.h</text>
</a>
</g>
</g>
<!-- Node2&#45;&gt;Node3 -->
<g id="edge2" class="edge">
<title>Node2&#45;&gt;Node3</title>
<path fill="none" stroke="midnightblue" d="M222.82,-392.44C203.25,-383.64 172.53,-369.81 150.11,-359.72"/>
<polygon fill="midnightblue" stroke="midnightblue" points="151.32,-356.43 140.76,-355.52 148.45,-362.81 151.32,-356.43"/>
</g>
<!-- Node5 -->
<g id="node5" class="node">
<title>Node5</title>
<g id="a_node5"><a xlink:href="Graphics_8h.html" target="_top" xlink:title=" ">
<polygon fill="none" stroke="black" points="344.84,-280.5 344.84,-299.5 412.84,-299.5 412.84,-280.5 344.84,-280.5"/>
<text text-anchor="middle" x="378.84" y="-287.5" font-family="Helvetica,sans-Serif" font-size="10.00">Graphics.h</text>
</a>
</g>
</g>
<!-- Node2&#45;&gt;Node5 -->
<g id="edge4" class="edge">
<title>Node2&#45;&gt;Node5</title>
<path fill="none" stroke="midnightblue" d="M252.59,-392.37C275.8,-373.73 330.85,-329.53 359.99,-306.13"/>
<polygon fill="midnightblue" stroke="midnightblue" points="362.53,-308.58 368.14,-299.59 358.15,-303.12 362.53,-308.58"/>
</g>
<!-- Node28 -->
<g id="node28" class="node">
<title>Node28</title>
<g id="a_node28"><a xlink:title=" ">
<polygon fill="none" stroke="#bfbfbf" points="62.84,-168.5 62.84,-187.5 120.84,-187.5 120.84,-168.5 62.84,-168.5"/>
<text text-anchor="middle" x="91.84" y="-175.5" font-family="Helvetica,sans-Serif" font-size="10.00">memory</text>
</a>
</g>
</g>
<!-- Node2&#45;&gt;Node28 -->
<g id="edge56" class="edge">
<title>Node2&#45;&gt;Node28</title>
<path fill="none" stroke="midnightblue" d="M235.96,-392.3C213.61,-359.22 133.67,-240.91 103.49,-196.24"/>
<polygon fill="midnightblue" stroke="midnightblue" points="106.34,-194.21 97.84,-187.88 100.54,-198.13 106.34,-194.21"/>
</g>
<!-- Node32 -->
<g id="node32" class="node">
<title>Node32</title>
<g id="a_node32"><a xlink:href="Scene_8h.html" target="_top" xlink:title=" ">
<polygon fill="none" stroke="black" points="351.34,-336.5 351.34,-355.5 406.34,-355.5 406.34,-336.5 351.34,-336.5"/>
<text text-anchor="middle" x="378.84" y="-343.5" font-family="Helvetica,sans-Serif" font-size="10.00">Scene.h</text>
</a>
</g>
</g>
<!-- Node2&#45;&gt;Node32 -->
<g id="edge39" class="edge">
<title>Node2&#45;&gt;Node32</title>
<path fill="none" stroke="midnightblue" d="M263.55,-392.44C286.19,-383.52 321.91,-369.44 347.59,-359.32"/>
<polygon fill="midnightblue" stroke="midnightblue" points="349.21,-362.44 357.23,-355.52 346.64,-355.93 349.21,-362.44"/>
</g>
<!-- Node39 -->
<g id="node39" class="node">
<title>Node39</title>
<g id="a_node39"><a xlink:title=" ">
<polygon fill="none" stroke="#bfbfbf" points="14.34,-336.5 14.34,-355.5 61.34,-355.5 61.34,-336.5 14.34,-336.5"/>
<text text-anchor="middle" x="37.84" y="-343.5" font-family="Helvetica,sans-Serif" font-size="10.00">vector</text>
</a>
</g>
</g>
<!-- Node2&#45;&gt;Node39 -->
<g id="edge57" class="edge">
<title>Node2&#45;&gt;Node39</title>
<path fill="none" stroke="midnightblue" d="M212.16,-393.28C179.97,-384.88 126.82,-370.96 71.59,-356.18"/>
<polygon fill="midnightblue" stroke="midnightblue" points="72.19,-352.72 61.62,-353.51 70.38,-359.48 72.19,-352.72"/>
</g>
<!-- Node3&#45;&gt;Node4 -->
<g id="edge3" class="edge">
<title>Node3&#45;&gt;Node4</title>
<path fill="none" stroke="midnightblue" d="M116.39,-336.08C111.82,-328.61 105.17,-317.72 99.54,-308.52"/>
<polygon fill="midnightblue" stroke="midnightblue" points="102.39,-306.46 94.19,-299.75 96.41,-310.11 102.39,-306.46"/>
</g>
<!-- Node6 -->
<g id="node6" class="node">
<title>Node6</title>
<g id="a_node6"><a xlink:href="EngineException_8h.html" target="_top" xlink:title=" ">
<polygon fill="none" stroke="black" points="487.34,-168.5 487.34,-187.5 594.34,-187.5 594.34,-168.5 487.34,-168.5"/>
<text text-anchor="middle" x="540.84" y="-175.5" font-family="Helvetica,sans-Serif" font-size="10.00">EngineException.h</text>
</a>
</g>
</g>
<!-- Node5&#45;&gt;Node6 -->
<g id="edge5" class="edge">
<title>Node5&#45;&gt;Node6</title>
<path fill="none" stroke="midnightblue" d="M391.55,-280.37C419.35,-261.49 485.78,-216.38 519.87,-193.24"/>
<polygon fill="midnightblue" stroke="midnightblue" points="521.88,-196.1 528.18,-187.59 517.95,-190.31 521.88,-196.1"/>
</g>
<!-- Node9 -->
<g id="node9" class="node">
<title>Node9</title>
<g id="a_node9"><a xlink:href="Vector3_8h.html" target="_top" xlink:title=" ">
<polygon fill="none" stroke="black" points="218.34,-112.5 218.34,-131.5 351.34,-131.5 351.34,-112.5 218.34,-112.5"/>
<text text-anchor="middle" x="284.84" y="-119.5" font-family="Helvetica,sans-Serif" font-size="10.00">LinearAlgebra/Vector3.h</text>
</a>
</g>
</g>
<!-- Node5&#45;&gt;Node9 -->
<g id="edge8" class="edge">
<title>Node5&#45;&gt;Node9</title>
<path fill="none" stroke="midnightblue" d="M344.8,-285.73C293.07,-278.61 197.54,-256.35 167.84,-188 155.57,-159.78 187.31,-143.36 220.8,-134.09"/>
<polygon fill="midnightblue" stroke="midnightblue" points="221.91,-137.42 230.73,-131.54 220.17,-130.63 221.91,-137.42"/>
</g>
<!-- Node21 -->
<g id="node21" class="node">
<title>Node21</title>
<g id="a_node21"><a xlink:href="GDIPlusManager_8h.html" target="_top" xlink:title=" ">
<polygon fill="none" stroke="black" points="488.84,-224.5 488.84,-243.5 594.84,-243.5 594.84,-224.5 488.84,-224.5"/>
<text text-anchor="middle" x="541.84" y="-231.5" font-family="Helvetica,sans-Serif" font-size="10.00">GDIPlusManager.h</text>
</a>
</g>
</g>
<!-- Node5&#45;&gt;Node21 -->
<g id="edge24" class="edge">
<title>Node5&#45;&gt;Node21</title>
<path fill="none" stroke="midnightblue" d="M404.67,-280.44C432.09,-271.36 475.62,-256.94 506.27,-246.78"/>
<polygon fill="midnightblue" stroke="midnightblue" points="507.74,-249.98 516.13,-243.52 505.54,-243.34 507.74,-249.98"/>
</g>
<!-- Node25 -->
<g id="node25" class="node">
<title>Node25</title>
<g id="a_node25"><a xlink:href="Surface_8h.html" target="_top" xlink:title=" ">
<polygon fill="none" stroke="black" points="236.84,-224.5 236.84,-243.5 298.84,-243.5 298.84,-224.5 236.84,-224.5"/>
<text text-anchor="middle" x="267.84" y="-231.5" font-family="Helvetica,sans-Serif" font-size="10.00">Surface.h</text>
</a>
</g>
</g>
<!-- Node5&#45;&gt;Node25 -->
<g id="edge28" class="edge">
<title>Node5&#45;&gt;Node25</title>
<path fill="none" stroke="midnightblue" d="M361,-280.32C343.12,-271.62 315.36,-258.12 294.79,-248.11"/>
<polygon fill="midnightblue" stroke="midnightblue" points="296.15,-244.88 285.63,-243.65 293.09,-251.18 296.15,-244.88"/>
</g>
<!-- Node30 -->
<g id="node30" class="node">
<title>Node30</title>
<g id="a_node30"><a xlink:title=" ">
<polygon fill="none" stroke="#bfbfbf" points="316.84,-224.5 316.84,-243.5 372.84,-243.5 372.84,-224.5 316.84,-224.5"/>
<text text-anchor="middle" x="344.84" y="-231.5" font-family="Helvetica,sans-Serif" font-size="10.00">d3d11.h</text>
</a>
</g>
</g>
<!-- Node5&#45;&gt;Node30 -->
<g id="edge37" class="edge">
<title>Node5&#45;&gt;Node30</title>
<path fill="none" stroke="midnightblue" d="M373.22,-280.08C368.47,-272.53 361.52,-261.49 355.69,-252.23"/>
<polygon fill="midnightblue" stroke="midnightblue" points="358.64,-250.35 350.35,-243.75 352.71,-254.08 358.64,-250.35"/>
</g>
<!-- Node31 -->
<g id="node31" class="node">
<title>Node31</title>
<g id="a_node31"><a xlink:title=" ">
<polygon fill="none" stroke="#bfbfbf" points="391.34,-224.5 391.34,-243.5 432.34,-243.5 432.34,-224.5 391.34,-224.5"/>
<text text-anchor="middle" x="411.84" y="-231.5" font-family="Helvetica,sans-Serif" font-size="10.00">wrl.h</text>
</a>
</g>
</g>
<!-- Node5&#45;&gt;Node31 -->
<g id="edge38" class="edge">
<title>Node5&#45;&gt;Node31</title>
<path fill="none" stroke="midnightblue" d="M384.29,-280.08C388.85,-272.61 395.51,-261.72 401.13,-252.52"/>
<polygon fill="midnightblue" stroke="midnightblue" points="404.26,-254.11 406.49,-243.75 398.29,-250.46 404.26,-254.11"/>
</g>
<!-- Node7 -->
<g id="node7" class="node">
<title>Node7</title>
<g id="a_node7"><a xlink:title=" ">
<polygon fill="none" stroke="#bfbfbf" points="369.84,-112.5 369.84,-131.5 413.84,-131.5 413.84,-112.5 369.84,-112.5"/>
<text text-anchor="middle" x="391.84" y="-119.5" font-family="Helvetica,sans-Serif" font-size="10.00">string</text>
</a>
</g>
</g>
<!-- Node6&#45;&gt;Node7 -->
<g id="edge6" class="edge">
<title>Node6&#45;&gt;Node7</title>
<path fill="none" stroke="midnightblue" d="M517.23,-168.44C491.94,-159.28 451.67,-144.68 423.61,-134.52"/>
<polygon fill="midnightblue" stroke="midnightblue" points="424.47,-131.11 413.88,-130.99 422.09,-137.69 424.47,-131.11"/>
</g>
<!-- Node8 -->
<g id="node8" class="node">
<title>Node8</title>
<g id="a_node8"><a xlink:title=" ">
<polygon fill="none" stroke="#bfbfbf" points="432.34,-112.5 432.34,-131.5 525.34,-131.5 525.34,-112.5 432.34,-112.5"/>
<text text-anchor="middle" x="478.84" y="-119.5" font-family="Helvetica,sans-Serif" font-size="10.00">source_location</text>
</a>
</g>
</g>
<!-- Node6&#45;&gt;Node8 -->
<g id="edge7" class="edge">
<title>Node6&#45;&gt;Node8</title>
<path fill="none" stroke="midnightblue" d="M530.88,-168.32C521.71,-160.34 507.9,-148.31 496.81,-138.65"/>
<polygon fill="midnightblue" stroke="midnightblue" points="498.82,-135.76 488.98,-131.83 494.22,-141.04 498.82,-135.76"/>
</g>
<!-- Node10 -->
<g id="node10" class="node">
<title>Node10</title>
<g id="a_node10"><a xlink:href="Math_8h.html" target="_top" xlink:title=" ">
<polygon fill="none" stroke="black" points="617.84,-56.5 617.84,-75.5 667.84,-75.5 667.84,-56.5 617.84,-56.5"/>
<text text-anchor="middle" x="642.84" y="-63.5" font-family="Helvetica,sans-Serif" font-size="10.00">Math.h</text>
</a>
</g>
</g>
<!-- Node9&#45;&gt;Node10 -->
<g id="edge9" class="edge">
<title>Node9&#45;&gt;Node10</title>
<path fill="none" stroke="midnightblue" d="M341.56,-112.44C416.3,-101.17 545.52,-81.68 607.57,-72.32"/>
<polygon fill="midnightblue" stroke="midnightblue" points="608.28,-75.75 617.64,-70.8 607.23,-68.83 608.28,-75.75"/>
</g>
<!-- Node16 -->
<g id="node16" class="node">
<title>Node16</title>
<g id="a_node16"><a xlink:href="Matrix3_8h.html" target="_top" xlink:title=" ">
<polygon fill="none" stroke="black" points="486.34,-56.5 486.34,-75.5 549.34,-75.5 549.34,-56.5 486.34,-56.5"/>
<text text-anchor="middle" x="517.84" y="-63.5" font-family="Helvetica,sans-Serif" font-size="10.00">Matrix3.h</text>
</a>
</g>
</g>
<!-- Node9&#45;&gt;Node16 -->
<g id="edge15" class="edge">
<title>Node9&#45;&gt;Node16</title>
<path fill="none" stroke="midnightblue" d="M321.76,-112.44C363.9,-102.68 432.66,-86.74 476.54,-76.57"/>
<polygon fill="midnightblue" stroke="midnightblue" points="477.37,-79.97 486.32,-74.3 475.79,-73.15 477.37,-79.97"/>
</g>
<!-- Node17 -->
<g id="node17" class="node">
<title>Node17</title>
<g id="a_node17"><a xlink:title=" ">
<polygon fill="none" stroke="#bfbfbf" points="347.84,-0.5 347.84,-19.5 389.84,-19.5 389.84,-0.5 347.84,-0.5"/>
<text text-anchor="middle" x="368.84" y="-7.5" font-family="Helvetica,sans-Serif" font-size="10.00">array</text>
</a>
</g>
</g>
<!-- Node9&#45;&gt;Node17 -->
<g id="edge20" class="edge">
<title>Node9&#45;&gt;Node17</title>
<path fill="none" stroke="midnightblue" d="M283.09,-112.21C280.94,-98.91 278.81,-73.4 289.84,-56 300.79,-38.73 320.89,-27.41 338.08,-20.45"/>
<polygon fill="midnightblue" stroke="midnightblue" points="339.62,-23.61 347.77,-16.84 337.17,-17.05 339.62,-23.61"/>
</g>
<!-- Node18 -->
<g id="node18" class="node">
<title>Node18</title>
<g id="a_node18"><a xlink:title=" ">
<polygon fill="none" stroke="#bfbfbf" points="408.34,-0.5 408.34,-19.5 461.34,-19.5 461.34,-0.5 408.34,-0.5"/>
<text text-anchor="middle" x="434.84" y="-7.5" font-family="Helvetica,sans-Serif" font-size="10.00">cstddef</text>
</a>
</g>
</g>
<!-- Node9&#45;&gt;Node18 -->
<g id="edge23" class="edge">
<title>Node9&#45;&gt;Node18</title>
<path fill="none" stroke="midnightblue" d="M287.99,-112.2C293.34,-98.43 305.44,-71.74 323.84,-56 335.55,-45.98 370.94,-32.47 398.64,-22.87"/>
<polygon fill="midnightblue" stroke="midnightblue" points="400.11,-26.07 408.45,-19.53 397.85,-19.44 400.11,-26.07"/>
</g>
<!-- Node9&#45;&gt;Node19 -->
<g id="edge21" class="edge">
<title>Node9&#45;&gt;Node19</title>
<path fill="none" stroke="midnightblue" d="M351.56,-113.08C354.7,-112.71 357.8,-112.35 360.84,-112 501.25,-95.69 539.21,-108.22 676.84,-76 731.9,-63.11 793.31,-38.63 828.29,-23.67"/>
<polygon fill="midnightblue" stroke="midnightblue" points="830.05,-26.72 837.84,-19.53 827.27,-20.29 830.05,-26.72"/>
</g>
<!-- Node20 -->
<g id="node20" class="node">
<title>Node20</title>
<g id="a_node20"><a xlink:title=" ">
<polygon fill="none" stroke="#bfbfbf" points="332.34,-56.5 332.34,-75.5 391.34,-75.5 391.34,-56.5 332.34,-56.5"/>
<text text-anchor="middle" x="361.84" y="-63.5" font-family="Helvetica,sans-Serif" font-size="10.00">compare</text>
</a>
</g>
</g>
<!-- Node9&#45;&gt;Node20 -->
<g id="edge22" class="edge">
<title>Node9&#45;&gt;Node20</title>
<path fill="none" stroke="midnightblue" d="M297.21,-112.32C309,-104.06 326.97,-91.45 340.97,-81.63"/>
<polygon fill="midnightblue" stroke="midnightblue" points="343.32,-84.26 349.5,-75.65 339.3,-78.53 343.32,-84.26"/>
</g>
<!-- Node11 -->
<g id="node11" class="node">
<title>Node11</title>
<g id="a_node11"><a xlink:title=" ">
<polygon fill="none" stroke="#bfbfbf" points="617.34,-0.5 617.34,-19.5 668.34,-19.5 668.34,-0.5 617.34,-0.5"/>
<text text-anchor="middle" x="642.84" y="-7.5" font-family="Helvetica,sans-Serif" font-size="10.00">math.h</text>
</a>
</g>
</g>
<!-- Node10&#45;&gt;Node11 -->
<g id="edge10" class="edge">
<title>Node10&#45;&gt;Node11</title>
<path fill="none" stroke="midnightblue" d="M642.84,-56.08C642.84,-49.01 642.84,-38.86 642.84,-29.99"/>
<polygon fill="midnightblue" stroke="midnightblue" points="646.34,-29.75 642.84,-19.75 639.34,-29.75 646.34,-29.75"/>
</g>
<!-- Node12 -->
<g id="node12" class="node">
<title>Node12</title>
<g id="a_node12"><a xlink:title=" ">
<polygon fill="none" stroke="#bfbfbf" points="479.34,-0.5 479.34,-19.5 526.34,-19.5 526.34,-0.5 479.34,-0.5"/>
<text text-anchor="middle" x="502.84" y="-7.5" font-family="Helvetica,sans-Serif" font-size="10.00">cmath</text>
</a>
</g>
</g>
<!-- Node10&#45;&gt;Node12 -->
<g id="edge11" class="edge">
<title>Node10&#45;&gt;Node12</title>
<path fill="none" stroke="midnightblue" d="M620.65,-56.44C597.41,-47.48 560.69,-33.31 534.42,-23.18"/>
<polygon fill="midnightblue" stroke="midnightblue" points="535.51,-19.85 524.92,-19.52 532.99,-26.38 535.51,-19.85"/>
</g>
<!-- Node13 -->
<g id="node13" class="node">
<title>Node13</title>
<g id="a_node13"><a xlink:title=" ">
<polygon fill="none" stroke="#bfbfbf" points="686.84,-0.5 686.84,-19.5 730.84,-19.5 730.84,-0.5 686.84,-0.5"/>
<text text-anchor="middle" x="708.84" y="-7.5" font-family="Helvetica,sans-Serif" font-size="10.00">limits</text>
</a>
</g>
</g>
<!-- Node10&#45;&gt;Node13 -->
<g id="edge12" class="edge">
<title>Node10&#45;&gt;Node13</title>
<path fill="none" stroke="midnightblue" d="M653.44,-56.32C663.29,-48.26 678.19,-36.08 690.05,-26.37"/>
<polygon fill="midnightblue" stroke="midnightblue" points="692.52,-28.88 698.04,-19.83 688.08,-23.46 692.52,-28.88"/>
</g>
<!-- Node14 -->
<g id="node14" class="node">
<title>Node14</title>
<g id="a_node14"><a xlink:title=" ">
<polygon fill="none" stroke="#bfbfbf" points="749.34,-0.5 749.34,-19.5 808.34,-19.5 808.34,-0.5 749.34,-0.5"/>
<text text-anchor="middle" x="778.84" y="-7.5" font-family="Helvetica,sans-Serif" font-size="10.00">numbers</text>
</a>
</g>
</g>
<!-- Node10&#45;&gt;Node14 -->
<g id="edge13" class="edge">
<title>Node10&#45;&gt;Node14</title>
<path fill="none" stroke="midnightblue" d="M664.39,-56.44C686.87,-47.52 722.33,-33.44 747.82,-23.32"/>
<polygon fill="midnightblue" stroke="midnightblue" points="749.39,-26.46 757.39,-19.52 746.8,-19.95 749.39,-26.46"/>
</g>
<!-- Node15 -->
<g id="node15" class="node">
<title>Node15</title>
<g id="a_node15"><a xlink:title=" ">
<polygon fill="none" stroke="#bfbfbf" points="544.84,-0.5 544.84,-19.5 598.84,-19.5 598.84,-0.5 544.84,-0.5"/>
<text text-anchor="middle" x="571.84" y="-7.5" font-family="Helvetica,sans-Serif" font-size="10.00">random</text>
</a>
</g>
</g>
<!-- Node10&#45;&gt;Node15 -->
<g id="edge14" class="edge">
<title>Node10&#45;&gt;Node15</title>
<path fill="none" stroke="midnightblue" d="M631.43,-56.32C620.73,-48.18 604.5,-35.84 591.67,-26.09"/>
<polygon fill="midnightblue" stroke="midnightblue" points="593.53,-23.1 583.45,-19.83 589.29,-28.67 593.53,-23.1"/>
</g>
<!-- Node16&#45;&gt;Node12 -->
<g id="edge17" class="edge">
<title>Node16&#45;&gt;Node12</title>
<path fill="none" stroke="midnightblue" d="M515.36,-56.08C513.35,-48.85 510.45,-38.41 507.95,-29.4"/>
<polygon fill="midnightblue" stroke="midnightblue" points="511.32,-28.45 505.27,-19.75 504.57,-30.32 511.32,-28.45"/>
</g>
<!-- Node16&#45;&gt;Node17 -->
<g id="edge16" class="edge">
<title>Node16&#45;&gt;Node17</title>
<path fill="none" stroke="midnightblue" d="M494.23,-56.44C468.65,-47.17 427.74,-32.35 399.65,-22.17"/>
<polygon fill="midnightblue" stroke="midnightblue" points="400.52,-18.76 389.93,-18.64 398.14,-25.34 400.52,-18.76"/>
</g>
<!-- Node16&#45;&gt;Node18 -->
<g id="edge18" class="edge">
<title>Node16&#45;&gt;Node18</title>
<path fill="none" stroke="midnightblue" d="M504.5,-56.32C491.68,-47.98 472.05,-35.21 456.9,-25.35"/>
<polygon fill="midnightblue" stroke="midnightblue" points="458.43,-22.17 448.14,-19.65 454.61,-28.04 458.43,-22.17"/>
</g>
<!-- Node16&#45;&gt;Node19 -->
<g id="edge19" class="edge">
<title>Node16&#45;&gt;Node19</title>
<path fill="none" stroke="midnightblue" d="M549.5,-61.08C602.66,-54.31 713.36,-39.46 816.68,-20.1"/>
<polygon fill="midnightblue" stroke="midnightblue" points="817.48,-23.51 826.65,-18.21 816.18,-16.63 817.48,-23.51"/>
</g>
<!-- Node22 -->
<g id="node22" class="node">
<title>Node22</title>
<g id="a_node22"><a xlink:href="Win_8h.html" target="_top" xlink:title=" ">
<polygon fill="none" stroke="black" points="650.84,-168.5 650.84,-187.5 694.84,-187.5 694.84,-168.5 650.84,-168.5"/>
<text text-anchor="middle" x="672.84" y="-175.5" font-family="Helvetica,sans-Serif" font-size="10.00">Win.h</text>
</a>
</g>
</g>
<!-- Node21&#45;&gt;Node22 -->
<g id="edge25" class="edge">
<title>Node21&#45;&gt;Node22</title>
<path fill="none" stroke="midnightblue" d="M562.6,-224.44C584.15,-215.56 618.1,-201.56 642.63,-191.45"/>
<polygon fill="midnightblue" stroke="midnightblue" points="644.27,-194.56 652.18,-187.52 641.6,-188.09 644.27,-194.56"/>
</g>
<!-- Node23 -->
<g id="node23" class="node">
<title>Node23</title>
<g id="a_node23"><a xlink:title=" ">
<polygon fill="none" stroke="#bfbfbf" points="543.84,-112.5 543.84,-131.5 619.84,-131.5 619.84,-112.5 543.84,-112.5"/>
<text text-anchor="middle" x="581.84" y="-119.5" font-family="Helvetica,sans-Serif" font-size="10.00">sdkddkver.h</text>
</a>
</g>
</g>
<!-- Node22&#45;&gt;Node23 -->
<g id="edge26" class="edge">
<title>Node22&#45;&gt;Node23</title>
<path fill="none" stroke="midnightblue" d="M658.22,-168.32C643.89,-159.82 621.83,-146.73 605.09,-136.8"/>
<polygon fill="midnightblue" stroke="midnightblue" points="606.81,-133.75 596.42,-131.65 603.24,-139.77 606.81,-133.75"/>
</g>
<!-- Node24 -->
<g id="node24" class="node">
<title>Node24</title>
<g id="a_node24"><a xlink:title=" ">
<polygon fill="none" stroke="#bfbfbf" points="637.84,-112.5 637.84,-131.5 707.84,-131.5 707.84,-112.5 637.84,-112.5"/>
<text text-anchor="middle" x="672.84" y="-119.5" font-family="Helvetica,sans-Serif" font-size="10.00">Windows.h</text>
</a>
</g>
</g>
<!-- Node22&#45;&gt;Node24 -->
<g id="edge27" class="edge">
<title>Node22&#45;&gt;Node24</title>
<path fill="none" stroke="midnightblue" d="M672.84,-168.08C672.84,-161.01 672.84,-150.86 672.84,-141.99"/>
<polygon fill="midnightblue" stroke="midnightblue" points="676.34,-141.75 672.84,-131.75 669.34,-141.75 676.34,-141.75"/>
</g>
<!-- Node25&#45;&gt;Node6 -->
<g id="edge32" class="edge">
<title>Node25&#45;&gt;Node6</title>
<path fill="none" stroke="midnightblue" d="M299.26,-225.83C302.16,-225.2 305.05,-224.58 307.84,-224 367.95,-211.44 437.06,-198.25 484.3,-189.42"/>
<polygon fill="midnightblue" stroke="midnightblue" points="485.15,-192.82 494.34,-187.55 483.86,-185.94 485.15,-192.82"/>
</g>
<!-- Node25&#45;&gt;Node7 -->
<g id="edge35" class="edge">
<title>Node25&#45;&gt;Node7</title>
<path fill="none" stroke="midnightblue" d="M273.12,-224.18C281.41,-210.85 298.54,-185.29 317.84,-168 331.89,-155.4 349.95,-144.34 364.71,-136.34"/>
<polygon fill="midnightblue" stroke="midnightblue" points="366.63,-139.28 373.86,-131.54 363.38,-133.09 366.63,-139.28"/>
</g>
<!-- Node25&#45;&gt;Node22 -->
<g id="edge29" class="edge">
<title>Node25&#45;&gt;Node22</title>
<path fill="none" stroke="midnightblue" d="M299.22,-225.63C302.13,-225.04 305.03,-224.48 307.84,-224 438.43,-201.43 472.35,-204.57 603.84,-188 615.86,-186.48 629.05,-184.78 640.65,-183.26"/>
<polygon fill="midnightblue" stroke="midnightblue" points="641.32,-186.7 650.78,-181.93 640.41,-179.76 641.32,-186.7"/>
</g>
<!-- Node26 -->
<g id="node26" class="node">
<title>Node26</title>
<g id="a_node26"><a xlink:href="Colors_8h.html" target="_top" xlink:title=" ">
<polygon fill="none" stroke="black" points="176.84,-168.5 176.84,-187.5 232.84,-187.5 232.84,-168.5 176.84,-168.5"/>
<text text-anchor="middle" x="204.84" y="-175.5" font-family="Helvetica,sans-Serif" font-size="10.00">Colors.h</text>
</a>
</g>
</g>
<!-- Node25&#45;&gt;Node26 -->
<g id="edge30" class="edge">
<title>Node25&#45;&gt;Node26</title>
<path fill="none" stroke="midnightblue" d="M257.72,-224.32C248.31,-216.26 234.09,-204.08 222.77,-194.37"/>
<polygon fill="midnightblue" stroke="midnightblue" points="225.01,-191.68 215.14,-187.83 220.46,-197 225.01,-191.68"/>
</g>
<!-- Node27 -->
<g id="node27" class="node">
<title>Node27</title>
<g id="a_node27"><a xlink:title=" ">
<polygon fill="none" stroke="#bfbfbf" points="326.84,-168.5 326.84,-187.5 382.84,-187.5 382.84,-168.5 326.84,-168.5"/>
<text text-anchor="middle" x="354.84" y="-175.5" font-family="Helvetica,sans-Serif" font-size="10.00">assert.h</text>
</a>
</g>
</g>
<!-- Node25&#45;&gt;Node27 -->
<g id="edge33" class="edge">
<title>Node25&#45;&gt;Node27</title>
<path fill="none" stroke="midnightblue" d="M281.82,-224.32C295.39,-215.9 316.22,-202.97 332.16,-193.07"/>
<polygon fill="midnightblue" stroke="midnightblue" points="334.24,-195.9 340.89,-187.65 330.55,-189.95 334.24,-195.9"/>
</g>
<!-- Node25&#45;&gt;Node28 -->
<g id="edge34" class="edge">
<title>Node25&#45;&gt;Node28</title>
<path fill="none" stroke="midnightblue" d="M239.95,-224.44C210.08,-215.28 162.52,-200.69 129.38,-190.52"/>
<polygon fill="midnightblue" stroke="midnightblue" points="130.18,-187.1 119.59,-187.52 128.13,-193.8 130.18,-187.1"/>
</g>
<!-- Node29 -->
<g id="node29" class="node">
<title>Node29</title>
<g id="a_node29"><a xlink:title=" ">
<polygon fill="none" stroke="#bfbfbf" points="400.84,-168.5 400.84,-187.5 468.84,-187.5 468.84,-168.5 400.84,-168.5"/>
<text text-anchor="middle" x="434.84" y="-175.5" font-family="Helvetica,sans-Serif" font-size="10.00">filesystem</text>
</a>
</g>
</g>
<!-- Node25&#45;&gt;Node29 -->
<g id="edge36" class="edge">
<title>Node25&#45;&gt;Node29</title>
<path fill="none" stroke="midnightblue" d="M294.3,-224.44C322.52,-215.32 367.38,-200.81 398.81,-190.65"/>
<polygon fill="midnightblue" stroke="midnightblue" points="400.06,-193.92 408.5,-187.52 397.91,-187.26 400.06,-193.92"/>
</g>
<!-- Node26&#45;&gt;Node9 -->
<g id="edge31" class="edge">
<title>Node26&#45;&gt;Node9</title>
<path fill="none" stroke="midnightblue" d="M217.69,-168.32C230.05,-159.98 248.97,-147.21 263.57,-137.35"/>
<polygon fill="midnightblue" stroke="midnightblue" points="265.69,-140.15 272.02,-131.65 261.77,-134.35 265.69,-140.15"/>
</g>
<!-- Node32&#45;&gt;Node5 -->
<g id="edge54" class="edge">
<title>Node32&#45;&gt;Node5</title>
<path fill="none" stroke="midnightblue" d="M378.84,-336.08C378.84,-329.01 378.84,-318.86 378.84,-309.99"/>
<polygon fill="midnightblue" stroke="midnightblue" points="382.34,-309.75 378.84,-299.75 375.34,-309.75 382.34,-309.75"/>
</g>
<!-- Node32&#45;&gt;Node7 -->
<g id="edge55" class="edge">
<title>Node32&#45;&gt;Node7</title>
<path fill="none" stroke="midnightblue" d="M351.31,-337.41C300.67,-321.88 200.31,-282.89 227.84,-224 244.27,-188.84 262.07,-188.79 294.84,-168 315.62,-154.81 340.9,-143.22 360.44,-135.1"/>
<polygon fill="midnightblue" stroke="midnightblue" points="361.86,-138.3 369.8,-131.29 359.22,-131.81 361.86,-138.3"/>
</g>
<!-- Node33 -->
<g id="node33" class="node">
<title>Node33</title>
<g id="a_node33"><a xlink:href="Keyboard_8h.html" target="_top" xlink:title=" ">
<polygon fill="none" stroke="black" points="627.34,-280.5 627.34,-299.5 698.34,-299.5 698.34,-280.5 627.34,-280.5"/>
<text text-anchor="middle" x="662.84" y="-287.5" font-family="Helvetica,sans-Serif" font-size="10.00">Keyboard.h</text>
</a>
</g>
</g>
<!-- Node32&#45;&gt;Node33 -->
<g id="edge40" class="edge">
<title>Node32&#45;&gt;Node33</title>
<path fill="none" stroke="midnightblue" d="M406.59,-339.72C455.54,-330.42 557.66,-311 617.14,-299.69"/>
<polygon fill="midnightblue" stroke="midnightblue" points="617.85,-303.12 627.02,-297.81 616.54,-296.24 617.85,-303.12"/>
</g>
<!-- Node36 -->
<g id="node36" class="node">
<title>Node36</title>
<g id="a_node36"><a xlink:href="Mouse_8h.html" target="_top" xlink:title=" ">
<polygon fill="none" stroke="black" points="716.84,-280.5 716.84,-299.5 774.84,-299.5 774.84,-280.5 716.84,-280.5"/>
<text text-anchor="middle" x="745.84" y="-287.5" font-family="Helvetica,sans-Serif" font-size="10.00">Mouse.h</text>
</a>
</g>
</g>
<!-- Node32&#45;&gt;Node36 -->
<g id="edge43" class="edge">
<title>Node32&#45;&gt;Node36</title>
<path fill="none" stroke="midnightblue" d="M406.71,-342.11C461.99,-336.18 589.54,-321.51 706.26,-300.14"/>
<polygon fill="midnightblue" stroke="midnightblue" points="707.24,-303.52 716.44,-298.26 705.97,-296.64 707.24,-303.52"/>
</g>
<!-- Node34 -->
<g id="node34" class="node">
<title>Node34</title>
<g id="a_node34"><a xlink:title=" ">
<polygon fill="none" stroke="#bfbfbf" points="650.84,-224.5 650.84,-243.5 694.84,-243.5 694.84,-224.5 650.84,-224.5"/>
<text text-anchor="middle" x="672.84" y="-231.5" font-family="Helvetica,sans-Serif" font-size="10.00">bitset</text>
</a>
</g>
</g>
<!-- Node33&#45;&gt;Node34 -->
<g id="edge41" class="edge">
<title>Node33&#45;&gt;Node34</title>
<path fill="none" stroke="midnightblue" d="M664.49,-280.08C665.81,-272.93 667.72,-262.64 669.38,-253.69"/>
<polygon fill="midnightblue" stroke="midnightblue" points="672.84,-254.22 671.22,-243.75 665.95,-252.95 672.84,-254.22"/>
</g>
<!-- Node35 -->
<g id="node35" class="node">
<title>Node35</title>
<g id="a_node35"><a xlink:title=" ">
<polygon fill="none" stroke="#bfbfbf" points="713.34,-224.5 713.34,-243.5 760.34,-243.5 760.34,-224.5 713.34,-224.5"/>
<text text-anchor="middle" x="736.84" y="-231.5" font-family="Helvetica,sans-Serif" font-size="10.00">queue</text>
</a>
</g>
</g>
<!-- Node33&#45;&gt;Node35 -->
<g id="edge42" class="edge">
<title>Node33&#45;&gt;Node35</title>
<path fill="none" stroke="midnightblue" d="M674.73,-280.32C685.99,-272.11 703.12,-259.6 716.55,-249.81"/>
<polygon fill="midnightblue" stroke="midnightblue" points="718.72,-252.56 724.73,-243.83 714.59,-246.9 718.72,-252.56"/>
</g>
<!-- Node36&#45;&gt;Node35 -->
<g id="edge53" class="edge">
<title>Node36&#45;&gt;Node35</title>
<path fill="none" stroke="midnightblue" d="M744.35,-280.08C743.16,-272.93 741.44,-262.64 739.95,-253.69"/>
<polygon fill="midnightblue" stroke="midnightblue" points="743.39,-253.04 738.3,-243.75 736.49,-254.19 743.39,-253.04"/>
</g>
<!-- Node37 -->
<g id="node37" class="node">
<title>Node37</title>
<g id="a_node37"><a xlink:href="Vector2_8h.html" target="_top" xlink:title=" ">
<polygon fill="none" stroke="black" points="726.34,-112.5 726.34,-131.5 859.34,-131.5 859.34,-112.5 726.34,-112.5"/>
<text text-anchor="middle" x="792.84" y="-119.5" font-family="Helvetica,sans-Serif" font-size="10.00">LinearAlgebra/Vector2.h</text>
</a>
</g>
</g>
<!-- Node36&#45;&gt;Node37 -->
<g id="edge44" class="edge">
<title>Node36&#45;&gt;Node37</title>
<path fill="none" stroke="midnightblue" d="M751.44,-280.4C756.93,-271.6 765.13,-257.36 769.84,-244 782.17,-209.01 788.35,-165.86 791.05,-141.69"/>
<polygon fill="midnightblue" stroke="midnightblue" points="794.54,-142.05 792.09,-131.74 787.57,-141.33 794.54,-142.05"/>
</g>
<!-- Node37&#45;&gt;Node10 -->
<g id="edge45" class="edge">
<title>Node37&#45;&gt;Node10</title>
<path fill="none" stroke="midnightblue" d="M769.07,-112.44C743.94,-103.4 704.13,-89.06 675.94,-78.92"/>
<polygon fill="midnightblue" stroke="midnightblue" points="677.09,-75.61 666.49,-75.52 674.72,-82.2 677.09,-75.61"/>
</g>
<!-- Node37&#45;&gt;Node16 -->
<g id="edge48" class="edge">
<title>Node37&#45;&gt;Node16</title>
<path fill="none" stroke="midnightblue" d="M749.26,-112.44C697.26,-102.23 610.93,-85.28 559.7,-75.22"/>
<polygon fill="midnightblue" stroke="midnightblue" points="560.12,-71.74 549.63,-73.24 558.77,-78.61 560.12,-71.74"/>
</g>
<!-- Node37&#45;&gt;Node17 -->
<g id="edge49" class="edge">
<title>Node37&#45;&gt;Node17</title>
<path fill="none" stroke="midnightblue" d="M726.19,-113.05C631.03,-101.56 466.27,-81.14 453.84,-76 426.65,-64.75 400.57,-42.54 384.63,-27.24"/>
<polygon fill="midnightblue" stroke="midnightblue" points="386.84,-24.5 377.27,-19.96 381.92,-29.48 386.84,-24.5"/>
</g>
<!-- Node37&#45;&gt;Node18 -->
<g id="edge51" class="edge">
<title>Node37&#45;&gt;Node18</title>
<path fill="none" stroke="midnightblue" d="M726.2,-112.89C636.87,-101.81 488.24,-82.58 477.84,-76 460.56,-65.07 448.69,-44.39 441.87,-29.28"/>
<polygon fill="midnightblue" stroke="midnightblue" points="445.04,-27.78 437.95,-19.9 438.58,-30.48 445.04,-27.78"/>
</g>
<!-- Node37&#45;&gt;Node19 -->
<g id="edge52" class="edge">
<title>Node37&#45;&gt;Node19</title>
<path fill="none" stroke="midnightblue" d="M792.3,-112.38C791.87,-99.31 792.61,-74.09 802.84,-56 809.94,-43.42 822.02,-32.86 832.96,-25.13"/>
<polygon fill="midnightblue" stroke="midnightblue" points="834.96,-28 841.36,-19.56 831.09,-22.17 834.96,-28"/>
</g>
<!-- Node37&#45;&gt;Node20 -->
<g id="edge50" class="edge">
<title>Node37&#45;&gt;Node20</title>
<path fill="none" stroke="midnightblue" d="M726.11,-113.09C722.98,-112.72 719.87,-112.36 716.84,-112 578.64,-95.82 543.24,-97.96 405.84,-76 404.39,-75.77 402.93,-75.52 401.44,-75.27"/>
<polygon fill="midnightblue" stroke="midnightblue" points="402.07,-71.82 391.6,-73.45 400.79,-78.71 402.07,-71.82"/>
</g>
<!-- Node38 -->
<g id="node38" class="node">
<title>Node38</title>
<g id="a_node38"><a xlink:href="Matrix2_8h.html" target="_top" xlink:title=" ">
<polygon fill="none" stroke="black" points="811.34,-56.5 811.34,-75.5 874.34,-75.5 874.34,-56.5 811.34,-56.5"/>
<text text-anchor="middle" x="842.84" y="-63.5" font-family="Helvetica,sans-Serif" font-size="10.00">Matrix2.h</text>
</a>
</g>
</g>
<!-- Node37&#45;&gt;Node38 -->
<g id="edge46" class="edge">
<title>Node37&#45;&gt;Node38</title>
<path fill="none" stroke="midnightblue" d="M801.09,-112.08C808.3,-104.3 818.95,-92.8 827.68,-83.37"/>
<polygon fill="midnightblue" stroke="midnightblue" points="830.51,-85.47 834.73,-75.75 825.37,-80.71 830.51,-85.47"/>
</g>
<!-- Node38&#45;&gt;Node19 -->
<g id="edge47" class="edge">
<title>Node38&#45;&gt;Node19</title>
<path fill="none" stroke="midnightblue" d="M845.15,-56.08C847,-48.93 849.67,-38.64 851.99,-29.69"/>
<polygon fill="midnightblue" stroke="midnightblue" points="855.45,-30.31 854.57,-19.75 848.67,-28.55 855.45,-30.31"/>
</g>
<!-- Node40&#45;&gt;Node5 -->
<g id="edge61" class="edge">
<title>Node40&#45;&gt;Node5</title>
<path fill="none" stroke="midnightblue" d="M659.67,-337.66C597.52,-327.34 484.95,-308.63 422.88,-298.32"/>
<polygon fill="midnightblue" stroke="midnightblue" points="423.43,-294.86 413,-296.68 422.29,-301.77 423.43,-294.86"/>
</g>
<!-- Node40&#45;&gt;Node6 -->
<g id="edge60" class="edge">
<title>Node40&#45;&gt;Node6</title>
<path fill="none" stroke="midnightblue" d="M734.09,-336.49C751.96,-329.73 773.14,-318.29 783.84,-300 795.24,-280.51 781.91,-235.47 769.84,-224 746.48,-201.8 663.75,-189.82 604.44,-183.92"/>
<polygon fill="midnightblue" stroke="midnightblue" points="604.69,-180.43 594.4,-182.96 604.02,-187.4 604.69,-180.43"/>
</g>
<!-- Node40&#45;&gt;Node7 -->
<g id="edge64" class="edge">
<title>Node40&#45;&gt;Node7</title>
<path fill="none" stroke="midnightblue" d="M672.07,-336.37C653.47,-329.6 631.26,-318.21 618.84,-300 585.57,-251.22 643.79,-211.47 603.84,-168 550.73,-110.22 506.64,-147.92 424.14,-131.7"/>
<polygon fill="midnightblue" stroke="midnightblue" points="424.68,-128.24 414.16,-129.51 423.18,-135.08 424.68,-128.24"/>
</g>
<!-- Node40&#45;&gt;Node22 -->
<g id="edge59" class="edge">
<title>Node40&#45;&gt;Node22</title>
<path fill="none" stroke="midnightblue" d="M748.1,-339.47C772.75,-333.88 801.49,-322.63 816.84,-300 821.83,-292.64 817.92,-288.82 816.84,-280 813.7,-254.54 820.16,-242.92 802.84,-224 777.63,-196.46 734.74,-185.78 705.16,-181.63"/>
<polygon fill="midnightblue" stroke="midnightblue" points="705.27,-178.12 694.92,-180.38 704.42,-185.07 705.27,-178.12"/>
</g>
<!-- Node40&#45;&gt;Node33 -->
<g id="edge62" class="edge">
<title>Node40&#45;&gt;Node33</title>
<path fill="none" stroke="midnightblue" d="M697.07,-336.08C691.28,-328.46 682.78,-317.26 675.7,-307.94"/>
<polygon fill="midnightblue" stroke="midnightblue" points="678.32,-305.6 669.48,-299.75 672.74,-309.83 678.32,-305.6"/>
</g>
<!-- Node40&#45;&gt;Node36 -->
<g id="edge63" class="edge">
<title>Node40&#45;&gt;Node36</title>
<path fill="none" stroke="midnightblue" d="M710.77,-336.08C716.77,-328.38 725.59,-317.03 732.89,-307.65"/>
<polygon fill="midnightblue" stroke="midnightblue" points="735.65,-309.79 739.03,-299.75 730.13,-305.5 735.65,-309.79"/>
</g>
</g>
</svg>
