<?xml version="1.0" encoding="UTF-8" standalone="no"?>
<!DOCTYPE svg PUBLIC "-//W3C//DTD SVG 1.1//EN"
 "http://www.w3.org/Graphics/SVG/1.1/DTD/svg11.dtd">
<!-- Generated by graphviz version 2.43.0 (0)
 -->
<!-- Title: src/MainWindow.cpp Pages: 1 -->
<svg width="776pt" height="476pt"
 viewBox="0.00 0.00 776.44 476.00" xmlns="http://www.w3.org/2000/svg" xmlns:xlink="http://www.w3.org/1999/xlink">
<g id="graph0" class="graph" transform="scale(1 1) rotate(0) translate(4 472)">
<title>src/MainWindow.cpp</title>
<!-- Node1 -->
<g id="node1" class="node">
<title>Node1</title>
<g id="a_node1"><a xlink:title=" ">
<polygon fill="#bfbfbf" stroke="black" points="495.44,-448.5 495.44,-467.5 611.44,-467.5 611.44,-448.5 495.44,-448.5"/>
<text text-anchor="middle" x="553.44" y="-455.5" font-family="Helvetica,sans-Serif" font-size="10.00">src/MainWindow.cpp</text>
</a>
</g>
</g>
<!-- Node2 -->
<g id="node2" class="node">
<title>Node2</title>
<g id="a_node2"><a xlink:href="MainWindow_8h.html" target="_top" xlink:title=" ">
<polygon fill="none" stroke="black" points="39.44,-336.5 39.44,-355.5 127.44,-355.5 127.44,-336.5 39.44,-336.5"/>
<text text-anchor="middle" x="83.44" y="-343.5" font-family="Helvetica,sans-Serif" font-size="10.00">MainWindow.h</text>
</a>
</g>
</g>
<!-- Node1&#45;&gt;Node2 -->
<g id="edge1" class="edge">
<title>Node1&#45;&gt;Node2</title>
<path fill="none" stroke="midnightblue" d="M516.95,-448.46C432.44,-428.68 223.4,-379.76 129.92,-357.88"/>
<polygon fill="midnightblue" stroke="midnightblue" points="130.44,-354.41 119.9,-355.53 128.84,-361.22 130.44,-354.41"/>
</g>
<!-- Node9 -->
<g id="node9" class="node">
<title>Node9</title>
<g id="a_node9"><a xlink:href="Graphics_8h.html" target="_top" xlink:title=" ">
<polygon fill="none" stroke="black" points="379.44,-280.5 379.44,-299.5 447.44,-299.5 447.44,-280.5 379.44,-280.5"/>
<text text-anchor="middle" x="413.44" y="-287.5" font-family="Helvetica,sans-Serif" font-size="10.00">Graphics.h</text>
</a>
</g>
</g>
<!-- Node1&#45;&gt;Node9 -->
<g id="edge65" class="edge">
<title>Node1&#45;&gt;Node9</title>
<path fill="none" stroke="midnightblue" d="M550.41,-448.2C545.78,-435.33 536.23,-410.86 524.44,-392 507.21,-364.45 501.37,-357.97 477.44,-336 464.8,-324.4 449.05,-313.28 436.33,-305.01"/>
<polygon fill="midnightblue" stroke="midnightblue" points="438.02,-301.93 427.7,-299.51 434.26,-307.84 438.02,-301.93"/>
</g>
<!-- Node36 -->
<g id="node36" class="node">
<title>Node36</title>
<g id="a_node36"><a xlink:href="Engine_8h.html" target="_top" xlink:title=" ">
<polygon fill="none" stroke="black" points="456.94,-392.5 456.94,-411.5 515.94,-411.5 515.94,-392.5 456.94,-392.5"/>
<text text-anchor="middle" x="486.44" y="-399.5" font-family="Helvetica,sans-Serif" font-size="10.00">Engine.h</text>
</a>
</g>
</g>
<!-- Node1&#45;&gt;Node36 -->
<g id="edge54" class="edge">
<title>Node1&#45;&gt;Node36</title>
<path fill="none" stroke="midnightblue" d="M542.67,-448.32C532.67,-440.26 517.55,-428.08 505.51,-418.37"/>
<polygon fill="midnightblue" stroke="midnightblue" points="507.38,-415.38 497.4,-411.83 502.99,-420.83 507.38,-415.38"/>
</g>
<!-- Node41 -->
<g id="node41" class="node">
<title>Node41</title>
<g id="a_node41"><a xlink:href="Resource_8h.html" target="_top" xlink:title=" ">
<polygon fill="none" stroke="black" points="581.94,-392.5 581.94,-411.5 652.94,-411.5 652.94,-392.5 581.94,-392.5"/>
<text text-anchor="middle" x="617.44" y="-399.5" font-family="Helvetica,sans-Serif" font-size="10.00">Resource.h</text>
</a>
</g>
</g>
<!-- Node1&#45;&gt;Node41 -->
<g id="edge66" class="edge">
<title>Node1&#45;&gt;Node41</title>
<path fill="none" stroke="midnightblue" d="M563.72,-448.32C573.27,-440.26 587.72,-428.08 599.22,-418.37"/>
<polygon fill="midnightblue" stroke="midnightblue" points="601.58,-420.96 606.97,-411.83 597.07,-415.61 601.58,-420.96"/>
</g>
<!-- Node42 -->
<g id="node42" class="node">
<title>Node42</title>
<g id="a_node42"><a xlink:title=" ">
<polygon fill="none" stroke="#bfbfbf" points="671.44,-392.5 671.44,-411.5 723.44,-411.5 723.44,-392.5 671.44,-392.5"/>
<text text-anchor="middle" x="697.44" y="-399.5" font-family="Helvetica,sans-Serif" font-size="10.00">cassert</text>
</a>
</g>
</g>
<!-- Node1&#45;&gt;Node42 -->
<g id="edge67" class="edge">
<title>Node1&#45;&gt;Node42</title>
<path fill="none" stroke="midnightblue" d="M576.25,-448.44C600.27,-439.44 638.27,-425.19 665.31,-415.05"/>
<polygon fill="midnightblue" stroke="midnightblue" points="666.59,-418.3 674.73,-411.52 664.13,-411.75 666.59,-418.3"/>
</g>
<!-- Node3 -->
<g id="node3" class="node">
<title>Node3</title>
<g id="a_node3"><a xlink:href="Win_8h.html" target="_top" xlink:title=" ">
<polygon fill="none" stroke="black" points="347.44,-168.5 347.44,-187.5 391.44,-187.5 391.44,-168.5 347.44,-168.5"/>
<text text-anchor="middle" x="369.44" y="-175.5" font-family="Helvetica,sans-Serif" font-size="10.00">Win.h</text>
</a>
</g>
</g>
<!-- Node2&#45;&gt;Node3 -->
<g id="edge2" class="edge">
<title>Node2&#45;&gt;Node3</title>
<path fill="none" stroke="midnightblue" d="M72.72,-336.3C63.5,-328.07 50.85,-314.79 45.44,-300 37.19,-277.45 56.46,-226.65 59.44,-224 103.88,-184.44 261.34,-198.98 337.04,-187.51"/>
<polygon fill="midnightblue" stroke="midnightblue" points="337.93,-190.91 347.16,-185.71 336.7,-184.02 337.93,-190.91"/>
</g>
<!-- Node6 -->
<g id="node6" class="node">
<title>Node6</title>
<g id="a_node6"><a xlink:href="EngineException_8h.html" target="_top" xlink:title=" ">
<polygon fill="none" stroke="black" points="221.94,-168.5 221.94,-187.5 328.94,-187.5 328.94,-168.5 221.94,-168.5"/>
<text text-anchor="middle" x="275.44" y="-175.5" font-family="Helvetica,sans-Serif" font-size="10.00">EngineException.h</text>
</a>
</g>
</g>
<!-- Node2&#45;&gt;Node6 -->
<g id="edge5" class="edge">
<title>Node2&#45;&gt;Node6</title>
<path fill="none" stroke="midnightblue" d="M58.28,-336.38C42.02,-329.34 22.14,-317.65 12.44,-300 1.46,-280.05 15.59,-234.15 26.44,-224 52.66,-199.46 146.96,-187.91 211.68,-182.77"/>
<polygon fill="midnightblue" stroke="midnightblue" points="212.09,-186.25 221.79,-182 211.56,-179.27 212.09,-186.25"/>
</g>
<!-- Node7 -->
<g id="node7" class="node">
<title>Node7</title>
<g id="a_node7"><a xlink:title=" ">
<polygon fill="none" stroke="#bfbfbf" points="168.44,-112.5 168.44,-131.5 212.44,-131.5 212.44,-112.5 168.44,-112.5"/>
<text text-anchor="middle" x="190.44" y="-119.5" font-family="Helvetica,sans-Serif" font-size="10.00">string</text>
</a>
</g>
</g>
<!-- Node2&#45;&gt;Node7 -->
<g id="edge53" class="edge">
<title>Node2&#45;&gt;Node7</title>
<path fill="none" stroke="midnightblue" d="M54.32,-336.44C36.79,-329.62 15.91,-318.14 5.44,-300 -3.15,-285.14 -1.35,-244.61 12.44,-224 30.7,-196.69 115.47,-156.13 161.12,-135.72"/>
<polygon fill="midnightblue" stroke="midnightblue" points="162.77,-138.81 170.5,-131.56 159.94,-132.41 162.77,-138.81"/>
</g>
<!-- Node2&#45;&gt;Node9 -->
<g id="edge8" class="edge">
<title>Node2&#45;&gt;Node9</title>
<path fill="none" stroke="midnightblue" d="M127.6,-337.77C190.65,-327.46 305.82,-308.61 369.02,-298.27"/>
<polygon fill="midnightblue" stroke="midnightblue" points="369.77,-301.69 379.07,-296.62 368.64,-294.78 369.77,-301.69"/>
</g>
<!-- Node30 -->
<g id="node30" class="node">
<title>Node30</title>
<g id="a_node30"><a xlink:href="Keyboard_8h.html" target="_top" xlink:title=" ">
<polygon fill="none" stroke="black" points="130.94,-280.5 130.94,-299.5 201.94,-299.5 201.94,-280.5 130.94,-280.5"/>
<text text-anchor="middle" x="166.44" y="-287.5" font-family="Helvetica,sans-Serif" font-size="10.00">Keyboard.h</text>
</a>
</g>
</g>
<!-- Node2&#45;&gt;Node30 -->
<g id="edge39" class="edge">
<title>Node2&#45;&gt;Node30</title>
<path fill="none" stroke="midnightblue" d="M96.77,-336.32C109.6,-327.98 129.22,-315.21 144.38,-305.35"/>
<polygon fill="midnightblue" stroke="midnightblue" points="146.66,-308.04 153.13,-299.65 142.84,-302.17 146.66,-308.04"/>
</g>
<!-- Node33 -->
<g id="node33" class="node">
<title>Node33</title>
<g id="a_node33"><a xlink:href="Mouse_8h.html" target="_top" xlink:title=" ">
<polygon fill="none" stroke="black" points="54.44,-280.5 54.44,-299.5 112.44,-299.5 112.44,-280.5 54.44,-280.5"/>
<text text-anchor="middle" x="83.44" y="-287.5" font-family="Helvetica,sans-Serif" font-size="10.00">Mouse.h</text>
</a>
</g>
</g>
<!-- Node2&#45;&gt;Node33 -->
<g id="edge42" class="edge">
<title>Node2&#45;&gt;Node33</title>
<path fill="none" stroke="midnightblue" d="M83.44,-336.08C83.44,-329.01 83.44,-318.86 83.44,-309.99"/>
<polygon fill="midnightblue" stroke="midnightblue" points="86.94,-309.75 83.44,-299.75 79.94,-309.75 86.94,-309.75"/>
</g>
<!-- Node4 -->
<g id="node4" class="node">
<title>Node4</title>
<g id="a_node4"><a xlink:title=" ">
<polygon fill="none" stroke="#bfbfbf" points="342.44,-112.5 342.44,-131.5 418.44,-131.5 418.44,-112.5 342.44,-112.5"/>
<text text-anchor="middle" x="380.44" y="-119.5" font-family="Helvetica,sans-Serif" font-size="10.00">sdkddkver.h</text>
</a>
</g>
</g>
<!-- Node3&#45;&gt;Node4 -->
<g id="edge3" class="edge">
<title>Node3&#45;&gt;Node4</title>
<path fill="none" stroke="midnightblue" d="M371.25,-168.08C372.71,-160.93 374.81,-150.64 376.63,-141.69"/>
<polygon fill="midnightblue" stroke="midnightblue" points="380.09,-142.25 378.65,-131.75 373.23,-140.85 380.09,-142.25"/>
</g>
<!-- Node5 -->
<g id="node5" class="node">
<title>Node5</title>
<g id="a_node5"><a xlink:title=" ">
<polygon fill="none" stroke="#bfbfbf" points="436.44,-112.5 436.44,-131.5 506.44,-131.5 506.44,-112.5 436.44,-112.5"/>
<text text-anchor="middle" x="471.44" y="-119.5" font-family="Helvetica,sans-Serif" font-size="10.00">Windows.h</text>
</a>
</g>
</g>
<!-- Node3&#45;&gt;Node5 -->
<g id="edge4" class="edge">
<title>Node3&#45;&gt;Node5</title>
<path fill="none" stroke="midnightblue" d="M385.83,-168.32C402.11,-159.7 427.3,-146.36 446.15,-136.39"/>
<polygon fill="midnightblue" stroke="midnightblue" points="447.89,-139.43 455.09,-131.65 444.61,-133.24 447.89,-139.43"/>
</g>
<!-- Node6&#45;&gt;Node7 -->
<g id="edge6" class="edge">
<title>Node6&#45;&gt;Node7</title>
<path fill="none" stroke="midnightblue" d="M261.78,-168.32C248.52,-159.9 228.17,-146.97 212.59,-137.07"/>
<polygon fill="midnightblue" stroke="midnightblue" points="214.38,-134.06 204.06,-131.65 210.62,-139.97 214.38,-134.06"/>
</g>
<!-- Node8 -->
<g id="node8" class="node">
<title>Node8</title>
<g id="a_node8"><a xlink:title=" ">
<polygon fill="none" stroke="#bfbfbf" points="230.94,-112.5 230.94,-131.5 323.94,-131.5 323.94,-112.5 230.94,-112.5"/>
<text text-anchor="middle" x="277.44" y="-119.5" font-family="Helvetica,sans-Serif" font-size="10.00">source_location</text>
</a>
</g>
</g>
<!-- Node6&#45;&gt;Node8 -->
<g id="edge7" class="edge">
<title>Node6&#45;&gt;Node8</title>
<path fill="none" stroke="midnightblue" d="M275.77,-168.08C276.03,-161.01 276.41,-150.86 276.73,-141.99"/>
<polygon fill="midnightblue" stroke="midnightblue" points="280.24,-141.87 277.11,-131.75 273.25,-141.61 280.24,-141.87"/>
</g>
<!-- Node9&#45;&gt;Node6 -->
<g id="edge9" class="edge">
<title>Node9&#45;&gt;Node6</title>
<path fill="none" stroke="midnightblue" d="M379.23,-289.59C343.8,-288.13 289.97,-279.66 263.44,-244 253.29,-230.37 258.9,-210.76 265.43,-196.65"/>
<polygon fill="midnightblue" stroke="midnightblue" points="268.67,-198.01 270.13,-187.51 262.44,-194.8 268.67,-198.01"/>
</g>
<!-- Node10 -->
<g id="node10" class="node">
<title>Node10</title>
<g id="a_node10"><a xlink:href="Vector3_8h.html" target="_top" xlink:title=" ">
<polygon fill="none" stroke="black" points="524.94,-112.5 524.94,-131.5 657.94,-131.5 657.94,-112.5 524.94,-112.5"/>
<text text-anchor="middle" x="591.44" y="-119.5" font-family="Helvetica,sans-Serif" font-size="10.00">LinearAlgebra/Vector3.h</text>
</a>
</g>
</g>
<!-- Node9&#45;&gt;Node10 -->
<g id="edge10" class="edge">
<title>Node9&#45;&gt;Node10</title>
<path fill="none" stroke="midnightblue" d="M447.51,-284.11C525.64,-272.11 713.67,-238.46 748.44,-188 772.68,-152.82 719.23,-136.64 668.25,-129.22"/>
<polygon fill="midnightblue" stroke="midnightblue" points="668.48,-125.72 658.1,-127.85 667.55,-132.66 668.48,-125.72"/>
</g>
<!-- Node22 -->
<g id="node22" class="node">
<title>Node22</title>
<g id="a_node22"><a xlink:href="GDIPlusManager_8h.html" target="_top" xlink:title=" ">
<polygon fill="none" stroke="black" points="406.44,-224.5 406.44,-243.5 512.44,-243.5 512.44,-224.5 406.44,-224.5"/>
<text text-anchor="middle" x="459.44" y="-231.5" font-family="Helvetica,sans-Serif" font-size="10.00">GDIPlusManager.h</text>
</a>
</g>
</g>
<!-- Node9&#45;&gt;Node22 -->
<g id="edge26" class="edge">
<title>Node9&#45;&gt;Node22</title>
<path fill="none" stroke="midnightblue" d="M421.03,-280.08C427.66,-272.3 437.46,-260.8 445.5,-251.37"/>
<polygon fill="midnightblue" stroke="midnightblue" points="448.16,-253.63 451.98,-243.75 442.83,-249.09 448.16,-253.63"/>
</g>
<!-- Node23 -->
<g id="node23" class="node">
<title>Node23</title>
<g id="a_node23"><a xlink:href="Surface_8h.html" target="_top" xlink:title=" ">
<polygon fill="none" stroke="black" points="530.44,-224.5 530.44,-243.5 592.44,-243.5 592.44,-224.5 530.44,-224.5"/>
<text text-anchor="middle" x="561.44" y="-231.5" font-family="Helvetica,sans-Serif" font-size="10.00">Surface.h</text>
</a>
</g>
</g>
<!-- Node9&#45;&gt;Node23 -->
<g id="edge28" class="edge">
<title>Node9&#45;&gt;Node23</title>
<path fill="none" stroke="midnightblue" d="M436.89,-280.44C461.57,-271.44 500.62,-257.19 528.41,-247.05"/>
<polygon fill="midnightblue" stroke="midnightblue" points="529.9,-250.23 538.1,-243.52 527.5,-243.66 529.9,-250.23"/>
</g>
<!-- Node28 -->
<g id="node28" class="node">
<title>Node28</title>
<g id="a_node28"><a xlink:title=" ">
<polygon fill="none" stroke="#bfbfbf" points="272.44,-224.5 272.44,-243.5 328.44,-243.5 328.44,-224.5 272.44,-224.5"/>
<text text-anchor="middle" x="300.44" y="-231.5" font-family="Helvetica,sans-Serif" font-size="10.00">d3d11.h</text>
</a>
</g>
</g>
<!-- Node9&#45;&gt;Node28 -->
<g id="edge37" class="edge">
<title>Node9&#45;&gt;Node28</title>
<path fill="none" stroke="midnightblue" d="M395.53,-280.44C377.18,-271.68 348.43,-257.94 327.34,-247.86"/>
<polygon fill="midnightblue" stroke="midnightblue" points="328.79,-244.67 318.26,-243.52 325.77,-250.99 328.79,-244.67"/>
</g>
<!-- Node29 -->
<g id="node29" class="node">
<title>Node29</title>
<g id="a_node29"><a xlink:title=" ">
<polygon fill="none" stroke="#bfbfbf" points="346.94,-224.5 346.94,-243.5 387.94,-243.5 387.94,-224.5 346.94,-224.5"/>
<text text-anchor="middle" x="367.44" y="-231.5" font-family="Helvetica,sans-Serif" font-size="10.00">wrl.h</text>
</a>
</g>
</g>
<!-- Node9&#45;&gt;Node29 -->
<g id="edge38" class="edge">
<title>Node9&#45;&gt;Node29</title>
<path fill="none" stroke="midnightblue" d="M405.84,-280.08C399.21,-272.3 389.42,-260.8 381.38,-251.37"/>
<polygon fill="midnightblue" stroke="midnightblue" points="384.04,-249.09 374.89,-243.75 378.71,-253.63 384.04,-249.09"/>
</g>
<!-- Node11 -->
<g id="node11" class="node">
<title>Node11</title>
<g id="a_node11"><a xlink:href="Math_8h.html" target="_top" xlink:title=" ">
<polygon fill="none" stroke="black" points="566.44,-56.5 566.44,-75.5 616.44,-75.5 616.44,-56.5 566.44,-56.5"/>
<text text-anchor="middle" x="591.44" y="-63.5" font-family="Helvetica,sans-Serif" font-size="10.00">Math.h</text>
</a>
</g>
</g>
<!-- Node10&#45;&gt;Node11 -->
<g id="edge11" class="edge">
<title>Node10&#45;&gt;Node11</title>
<path fill="none" stroke="midnightblue" d="M591.44,-112.08C591.44,-105.01 591.44,-94.86 591.44,-85.99"/>
<polygon fill="midnightblue" stroke="midnightblue" points="594.94,-85.75 591.44,-75.75 587.94,-85.75 594.94,-85.75"/>
</g>
<!-- Node17 -->
<g id="node17" class="node">
<title>Node17</title>
<g id="a_node17"><a xlink:href="Matrix3_8h.html" target="_top" xlink:title=" ">
<polygon fill="none" stroke="black" points="374.94,-56.5 374.94,-75.5 437.94,-75.5 437.94,-56.5 374.94,-56.5"/>
<text text-anchor="middle" x="406.44" y="-63.5" font-family="Helvetica,sans-Serif" font-size="10.00">Matrix3.h</text>
</a>
</g>
</g>
<!-- Node10&#45;&gt;Node17 -->
<g id="edge17" class="edge">
<title>Node10&#45;&gt;Node17</title>
<path fill="none" stroke="midnightblue" d="M562.12,-112.44C530.59,-103.24 480.31,-88.56 445.45,-78.39"/>
<polygon fill="midnightblue" stroke="midnightblue" points="446.19,-74.96 435.61,-75.52 444.23,-81.68 446.19,-74.96"/>
</g>
<!-- Node18 -->
<g id="node18" class="node">
<title>Node18</title>
<g id="a_node18"><a xlink:title=" ">
<polygon fill="none" stroke="#bfbfbf" points="379.44,-0.5 379.44,-19.5 421.44,-19.5 421.44,-0.5 379.44,-0.5"/>
<text text-anchor="middle" x="400.44" y="-7.5" font-family="Helvetica,sans-Serif" font-size="10.00">array</text>
</a>
</g>
</g>
<!-- Node10&#45;&gt;Node18 -->
<g id="edge22" class="edge">
<title>Node10&#45;&gt;Node18</title>
<path fill="none" stroke="midnightblue" d="M578.81,-112.38C559.78,-99.51 522.46,-74.81 489.44,-56 469.25,-44.5 445.78,-32.7 428.01,-24.07"/>
<polygon fill="midnightblue" stroke="midnightblue" points="429.31,-20.81 418.78,-19.62 426.27,-27.11 429.31,-20.81"/>
</g>
<!-- Node19 -->
<g id="node19" class="node">
<title>Node19</title>
<g id="a_node19"><a xlink:title=" ">
<polygon fill="none" stroke="#bfbfbf" points="307.94,-0.5 307.94,-19.5 360.94,-19.5 360.94,-0.5 307.94,-0.5"/>
<text text-anchor="middle" x="334.44" y="-7.5" font-family="Helvetica,sans-Serif" font-size="10.00">cstddef</text>
</a>
</g>
</g>
<!-- Node10&#45;&gt;Node19 -->
<g id="edge25" class="edge">
<title>Node10&#45;&gt;Node19</title>
<path fill="none" stroke="midnightblue" d="M571.83,-112.49C551.26,-103.52 518,-88.94 489.44,-76 470.24,-67.3 465.78,-64.38 446.44,-56 419.64,-44.39 388.82,-32.09 366.31,-23.28"/>
<polygon fill="midnightblue" stroke="midnightblue" points="367.48,-19.98 356.89,-19.62 364.94,-26.51 367.48,-19.98"/>
</g>
<!-- Node20 -->
<g id="node20" class="node">
<title>Node20</title>
<g id="a_node20"><a xlink:title=" ">
<polygon fill="none" stroke="#bfbfbf" points="168.44,-0.5 168.44,-19.5 228.44,-19.5 228.44,-0.5 168.44,-0.5"/>
<text text-anchor="middle" x="198.44" y="-7.5" font-family="Helvetica,sans-Serif" font-size="10.00">iostream</text>
</a>
</g>
</g>
<!-- Node10&#45;&gt;Node20 -->
<g id="edge23" class="edge">
<title>Node10&#45;&gt;Node20</title>
<path fill="none" stroke="midnightblue" d="M524.88,-112.71C479.17,-105.82 417.57,-94.16 365.44,-76 347.04,-69.59 344.33,-63.69 326.44,-56 296.63,-43.19 261.85,-31.14 236.07,-22.74"/>
<polygon fill="midnightblue" stroke="midnightblue" points="236.91,-19.33 226.32,-19.59 234.76,-25.99 236.91,-19.33"/>
</g>
<!-- Node21 -->
<g id="node21" class="node">
<title>Node21</title>
<g id="a_node21"><a xlink:title=" ">
<polygon fill="none" stroke="#bfbfbf" points="258.94,-56.5 258.94,-75.5 317.94,-75.5 317.94,-56.5 258.94,-56.5"/>
<text text-anchor="middle" x="288.44" y="-63.5" font-family="Helvetica,sans-Serif" font-size="10.00">compare</text>
</a>
</g>
</g>
<!-- Node10&#45;&gt;Node21 -->
<g id="edge24" class="edge">
<title>Node10&#45;&gt;Node21</title>
<path fill="none" stroke="midnightblue" d="M539.76,-112.49C487.42,-103.75 404.19,-89.57 332.44,-76 331,-75.73 329.54,-75.45 328.06,-75.16"/>
<polygon fill="midnightblue" stroke="midnightblue" points="328.72,-71.73 318.24,-73.22 327.37,-78.59 328.72,-71.73"/>
</g>
<!-- Node12 -->
<g id="node12" class="node">
<title>Node12</title>
<g id="a_node12"><a xlink:title=" ">
<polygon fill="none" stroke="#bfbfbf" points="504.94,-0.5 504.94,-19.5 555.94,-19.5 555.94,-0.5 504.94,-0.5"/>
<text text-anchor="middle" x="530.44" y="-7.5" font-family="Helvetica,sans-Serif" font-size="10.00">math.h</text>
</a>
</g>
</g>
<!-- Node11&#45;&gt;Node12 -->
<g id="edge12" class="edge">
<title>Node11&#45;&gt;Node12</title>
<path fill="none" stroke="midnightblue" d="M581.64,-56.32C572.62,-48.34 559.03,-36.31 548.12,-26.65"/>
<polygon fill="midnightblue" stroke="midnightblue" points="550.22,-23.84 540.42,-19.83 545.58,-29.08 550.22,-23.84"/>
</g>
<!-- Node13 -->
<g id="node13" class="node">
<title>Node13</title>
<g id="a_node13"><a xlink:title=" ">
<polygon fill="none" stroke="#bfbfbf" points="439.94,-0.5 439.94,-19.5 486.94,-19.5 486.94,-0.5 439.94,-0.5"/>
<text text-anchor="middle" x="463.44" y="-7.5" font-family="Helvetica,sans-Serif" font-size="10.00">cmath</text>
</a>
</g>
</g>
<!-- Node11&#45;&gt;Node13 -->
<g id="edge13" class="edge">
<title>Node11&#45;&gt;Node13</title>
<path fill="none" stroke="midnightblue" d="M571.16,-56.44C550.09,-47.56 516.92,-33.56 492.95,-23.45"/>
<polygon fill="midnightblue" stroke="midnightblue" points="494.2,-20.18 483.62,-19.52 491.48,-26.63 494.2,-20.18"/>
</g>
<!-- Node14 -->
<g id="node14" class="node">
<title>Node14</title>
<g id="a_node14"><a xlink:title=" ">
<polygon fill="none" stroke="#bfbfbf" points="574.44,-0.5 574.44,-19.5 618.44,-19.5 618.44,-0.5 574.44,-0.5"/>
<text text-anchor="middle" x="596.44" y="-7.5" font-family="Helvetica,sans-Serif" font-size="10.00">limits</text>
</a>
</g>
</g>
<!-- Node11&#45;&gt;Node14 -->
<g id="edge14" class="edge">
<title>Node11&#45;&gt;Node14</title>
<path fill="none" stroke="midnightblue" d="M592.26,-56.08C592.92,-49.01 593.86,-38.86 594.68,-29.99"/>
<polygon fill="midnightblue" stroke="midnightblue" points="598.19,-30.03 595.63,-19.75 591.22,-29.39 598.19,-30.03"/>
</g>
<!-- Node15 -->
<g id="node15" class="node">
<title>Node15</title>
<g id="a_node15"><a xlink:title=" ">
<polygon fill="none" stroke="#bfbfbf" points="636.94,-0.5 636.94,-19.5 695.94,-19.5 695.94,-0.5 636.94,-0.5"/>
<text text-anchor="middle" x="666.44" y="-7.5" font-family="Helvetica,sans-Serif" font-size="10.00">numbers</text>
</a>
</g>
</g>
<!-- Node11&#45;&gt;Node15 -->
<g id="edge15" class="edge">
<title>Node11&#45;&gt;Node15</title>
<path fill="none" stroke="midnightblue" d="M603.49,-56.32C614.9,-48.11 632.27,-35.6 645.87,-25.81"/>
<polygon fill="midnightblue" stroke="midnightblue" points="648.1,-28.52 654.17,-19.83 644.01,-22.84 648.1,-28.52"/>
</g>
<!-- Node16 -->
<g id="node16" class="node">
<title>Node16</title>
<g id="a_node16"><a xlink:title=" ">
<polygon fill="none" stroke="#bfbfbf" points="714.44,-0.5 714.44,-19.5 768.44,-19.5 768.44,-0.5 714.44,-0.5"/>
<text text-anchor="middle" x="741.44" y="-7.5" font-family="Helvetica,sans-Serif" font-size="10.00">random</text>
</a>
</g>
</g>
<!-- Node11&#45;&gt;Node16 -->
<g id="edge16" class="edge">
<title>Node11&#45;&gt;Node16</title>
<path fill="none" stroke="midnightblue" d="M615.2,-56.44C640.33,-47.4 680.15,-33.06 708.34,-22.92"/>
<polygon fill="midnightblue" stroke="midnightblue" points="709.56,-26.2 717.78,-19.52 707.19,-19.61 709.56,-26.2"/>
</g>
<!-- Node17&#45;&gt;Node13 -->
<g id="edge19" class="edge">
<title>Node17&#45;&gt;Node13</title>
<path fill="none" stroke="midnightblue" d="M415.6,-56.32C423.94,-48.42 436.47,-36.55 446.61,-26.94"/>
<polygon fill="midnightblue" stroke="midnightblue" points="449.26,-29.25 454.11,-19.83 444.45,-24.17 449.26,-29.25"/>
</g>
<!-- Node17&#45;&gt;Node18 -->
<g id="edge18" class="edge">
<title>Node17&#45;&gt;Node18</title>
<path fill="none" stroke="midnightblue" d="M405.45,-56.08C404.65,-48.93 403.51,-38.64 402.51,-29.69"/>
<polygon fill="midnightblue" stroke="midnightblue" points="405.99,-29.3 401.41,-19.75 399.04,-30.08 405.99,-29.3"/>
</g>
<!-- Node17&#45;&gt;Node19 -->
<g id="edge20" class="edge">
<title>Node17&#45;&gt;Node19</title>
<path fill="none" stroke="midnightblue" d="M394.87,-56.32C384.02,-48.18 367.56,-35.84 354.55,-26.09"/>
<polygon fill="midnightblue" stroke="midnightblue" points="356.32,-23.03 346.22,-19.83 352.12,-28.63 356.32,-23.03"/>
</g>
<!-- Node17&#45;&gt;Node20 -->
<g id="edge21" class="edge">
<title>Node17&#45;&gt;Node20</title>
<path fill="none" stroke="midnightblue" d="M374.85,-56.8C338.36,-47.33 278.27,-31.73 238.52,-21.41"/>
<polygon fill="midnightblue" stroke="midnightblue" points="239.19,-17.96 228.63,-18.84 237.43,-24.74 239.19,-17.96"/>
</g>
<!-- Node22&#45;&gt;Node3 -->
<g id="edge27" class="edge">
<title>Node22&#45;&gt;Node3</title>
<path fill="none" stroke="midnightblue" d="M444.98,-224.32C430.94,-215.9 409.39,-202.97 392.89,-193.07"/>
<polygon fill="midnightblue" stroke="midnightblue" points="394.24,-189.8 383.86,-187.65 390.64,-195.8 394.24,-189.8"/>
</g>
<!-- Node23&#45;&gt;Node3 -->
<g id="edge29" class="edge">
<title>Node23&#45;&gt;Node3</title>
<path fill="none" stroke="midnightblue" d="M531.01,-224.44C495.69,-214.51 437.69,-198.2 401.63,-188.05"/>
<polygon fill="midnightblue" stroke="midnightblue" points="402.21,-184.58 391.64,-185.24 400.32,-191.32 402.21,-184.58"/>
</g>
<!-- Node23&#45;&gt;Node6 -->
<g id="edge32" class="edge">
<title>Node23&#45;&gt;Node6</title>
<path fill="none" stroke="midnightblue" d="M530.02,-225.81C527.12,-225.18 524.23,-224.57 521.44,-224 458.16,-211.1 385.36,-198 335.47,-189.28"/>
<polygon fill="midnightblue" stroke="midnightblue" points="335.95,-185.81 325.49,-187.55 334.74,-192.71 335.95,-185.81"/>
</g>
<!-- Node23&#45;&gt;Node7 -->
<g id="edge35" class="edge">
<title>Node23&#45;&gt;Node7</title>
<path fill="none" stroke="midnightblue" d="M534.64,-224.35C509.44,-215.95 470.86,-202.39 438.44,-188 420.99,-180.26 418.42,-174.39 400.44,-168 326.96,-141.89 302.18,-150.57 222.7,-132.1"/>
<polygon fill="midnightblue" stroke="midnightblue" points="223.27,-128.64 212.73,-129.71 221.64,-135.45 223.27,-128.64"/>
</g>
<!-- Node24 -->
<g id="node24" class="node">
<title>Node24</title>
<g id="a_node24"><a xlink:href="Colors_8h.html" target="_top" xlink:title=" ">
<polygon fill="none" stroke="black" points="607.44,-168.5 607.44,-187.5 663.44,-187.5 663.44,-168.5 607.44,-168.5"/>
<text text-anchor="middle" x="635.44" y="-175.5" font-family="Helvetica,sans-Serif" font-size="10.00">Colors.h</text>
</a>
</g>
</g>
<!-- Node23&#45;&gt;Node24 -->
<g id="edge30" class="edge">
<title>Node23&#45;&gt;Node24</title>
<path fill="none" stroke="midnightblue" d="M573.33,-224.32C584.59,-216.11 601.72,-203.6 615.15,-193.81"/>
<polygon fill="midnightblue" stroke="midnightblue" points="617.32,-196.56 623.33,-187.83 613.19,-190.9 617.32,-196.56"/>
</g>
<!-- Node25 -->
<g id="node25" class="node">
<title>Node25</title>
<g id="a_node25"><a xlink:title=" ">
<polygon fill="none" stroke="#bfbfbf" points="533.44,-168.5 533.44,-187.5 589.44,-187.5 589.44,-168.5 533.44,-168.5"/>
<text text-anchor="middle" x="561.44" y="-175.5" font-family="Helvetica,sans-Serif" font-size="10.00">assert.h</text>
</a>
</g>
</g>
<!-- Node23&#45;&gt;Node25 -->
<g id="edge33" class="edge">
<title>Node23&#45;&gt;Node25</title>
<path fill="none" stroke="midnightblue" d="M561.44,-224.08C561.44,-217.01 561.44,-206.86 561.44,-197.99"/>
<polygon fill="midnightblue" stroke="midnightblue" points="564.94,-197.75 561.44,-187.75 557.94,-197.75 564.94,-197.75"/>
</g>
<!-- Node26 -->
<g id="node26" class="node">
<title>Node26</title>
<g id="a_node26"><a xlink:title=" ">
<polygon fill="none" stroke="#bfbfbf" points="681.44,-168.5 681.44,-187.5 739.44,-187.5 739.44,-168.5 681.44,-168.5"/>
<text text-anchor="middle" x="710.44" y="-175.5" font-family="Helvetica,sans-Serif" font-size="10.00">memory</text>
</a>
</g>
</g>
<!-- Node23&#45;&gt;Node26 -->
<g id="edge34" class="edge">
<title>Node23&#45;&gt;Node26</title>
<path fill="none" stroke="midnightblue" d="M585.05,-224.44C609.89,-215.44 649.21,-201.19 677.19,-191.05"/>
<polygon fill="midnightblue" stroke="midnightblue" points="678.73,-194.21 686.94,-187.52 676.34,-187.63 678.73,-194.21"/>
</g>
<!-- Node27 -->
<g id="node27" class="node">
<title>Node27</title>
<g id="a_node27"><a xlink:title=" ">
<polygon fill="none" stroke="#bfbfbf" points="447.44,-168.5 447.44,-187.5 515.44,-187.5 515.44,-168.5 447.44,-168.5"/>
<text text-anchor="middle" x="481.44" y="-175.5" font-family="Helvetica,sans-Serif" font-size="10.00">filesystem</text>
</a>
</g>
</g>
<!-- Node23&#45;&gt;Node27 -->
<g id="edge36" class="edge">
<title>Node23&#45;&gt;Node27</title>
<path fill="none" stroke="midnightblue" d="M548.58,-224.32C536.22,-215.98 517.31,-203.21 502.7,-193.35"/>
<polygon fill="midnightblue" stroke="midnightblue" points="504.51,-190.35 494.26,-187.65 500.59,-196.15 504.51,-190.35"/>
</g>
<!-- Node24&#45;&gt;Node10 -->
<g id="edge31" class="edge">
<title>Node24&#45;&gt;Node10</title>
<path fill="none" stroke="midnightblue" d="M628.17,-168.08C621.89,-160.38 612.65,-149.03 605.01,-139.65"/>
<polygon fill="midnightblue" stroke="midnightblue" points="607.6,-137.29 598.57,-131.75 602.17,-141.71 607.6,-137.29"/>
</g>
<!-- Node31 -->
<g id="node31" class="node">
<title>Node31</title>
<g id="a_node31"><a xlink:title=" ">
<polygon fill="none" stroke="#bfbfbf" points="134.44,-224.5 134.44,-243.5 178.44,-243.5 178.44,-224.5 134.44,-224.5"/>
<text text-anchor="middle" x="156.44" y="-231.5" font-family="Helvetica,sans-Serif" font-size="10.00">bitset</text>
</a>
</g>
</g>
<!-- Node30&#45;&gt;Node31 -->
<g id="edge40" class="edge">
<title>Node30&#45;&gt;Node31</title>
<path fill="none" stroke="midnightblue" d="M164.79,-280.08C163.46,-272.93 161.55,-262.64 159.9,-253.69"/>
<polygon fill="midnightblue" stroke="midnightblue" points="163.32,-252.95 158.06,-243.75 156.44,-254.22 163.32,-252.95"/>
</g>
<!-- Node32 -->
<g id="node32" class="node">
<title>Node32</title>
<g id="a_node32"><a xlink:title=" ">
<polygon fill="none" stroke="#bfbfbf" points="68.94,-224.5 68.94,-243.5 115.94,-243.5 115.94,-224.5 68.94,-224.5"/>
<text text-anchor="middle" x="92.44" y="-231.5" font-family="Helvetica,sans-Serif" font-size="10.00">queue</text>
</a>
</g>
</g>
<!-- Node30&#45;&gt;Node32 -->
<g id="edge41" class="edge">
<title>Node30&#45;&gt;Node32</title>
<path fill="none" stroke="midnightblue" d="M154.55,-280.32C143.29,-272.11 126.15,-259.6 112.73,-249.81"/>
<polygon fill="midnightblue" stroke="midnightblue" points="114.68,-246.9 104.54,-243.83 110.56,-252.56 114.68,-246.9"/>
</g>
<!-- Node33&#45;&gt;Node32 -->
<g id="edge52" class="edge">
<title>Node33&#45;&gt;Node32</title>
<path fill="none" stroke="midnightblue" d="M84.92,-280.08C86.12,-272.93 87.83,-262.64 89.32,-253.69"/>
<polygon fill="midnightblue" stroke="midnightblue" points="92.79,-254.19 90.98,-243.75 85.88,-253.04 92.79,-254.19"/>
</g>
<!-- Node34 -->
<g id="node34" class="node">
<title>Node34</title>
<g id="a_node34"><a xlink:href="Vector2_8h.html" target="_top" xlink:title=" ">
<polygon fill="none" stroke="black" points="16.94,-112.5 16.94,-131.5 149.94,-131.5 149.94,-112.5 16.94,-112.5"/>
<text text-anchor="middle" x="83.44" y="-119.5" font-family="Helvetica,sans-Serif" font-size="10.00">LinearAlgebra/Vector2.h</text>
</a>
</g>
</g>
<!-- Node33&#45;&gt;Node34 -->
<g id="edge43" class="edge">
<title>Node33&#45;&gt;Node34</title>
<path fill="none" stroke="midnightblue" d="M77.07,-280.23C71.18,-271.53 62.83,-257.57 59.44,-244 50.34,-207.62 64.92,-164.4 75.03,-140.72"/>
<polygon fill="midnightblue" stroke="midnightblue" points="78.24,-142.13 79.14,-131.57 71.85,-139.26 78.24,-142.13"/>
</g>
<!-- Node34&#45;&gt;Node11 -->
<g id="edge44" class="edge">
<title>Node34&#45;&gt;Node11</title>
<path fill="none" stroke="midnightblue" d="M150.16,-113.04C153.29,-112.69 156.4,-112.34 159.44,-112 306.58,-95.62 482.14,-77.9 555.96,-70.52"/>
<polygon fill="midnightblue" stroke="midnightblue" points="556.5,-73.99 566.1,-69.51 555.81,-67.02 556.5,-73.99"/>
</g>
<!-- Node34&#45;&gt;Node17 -->
<g id="edge47" class="edge">
<title>Node34&#45;&gt;Node17</title>
<path fill="none" stroke="midnightblue" d="M134.62,-112.44C198.22,-101.81 305.54,-83.87 364.51,-74.01"/>
<polygon fill="midnightblue" stroke="midnightblue" points="365.3,-77.43 374.59,-72.32 364.15,-70.52 365.3,-77.43"/>
</g>
<!-- Node34&#45;&gt;Node18 -->
<g id="edge48" class="edge">
<title>Node34&#45;&gt;Node18</title>
<path fill="none" stroke="midnightblue" d="M111.09,-112.38C137.1,-104 176.93,-90.45 210.44,-76 228.32,-68.29 231.36,-63.26 249.44,-56 255.14,-53.71 327.16,-32.49 369.64,-20.02"/>
<polygon fill="midnightblue" stroke="midnightblue" points="370.63,-23.38 379.24,-17.21 368.66,-16.66 370.63,-23.38"/>
</g>
<!-- Node34&#45;&gt;Node19 -->
<g id="edge50" class="edge">
<title>Node34&#45;&gt;Node19</title>
<path fill="none" stroke="midnightblue" d="M100.01,-112.3C124.95,-99.34 173.76,-74.52 216.44,-56 244.42,-43.86 276.84,-31.62 300.61,-22.98"/>
<polygon fill="midnightblue" stroke="midnightblue" points="302.01,-26.2 310.23,-19.51 299.63,-19.61 302.01,-26.2"/>
</g>
<!-- Node34&#45;&gt;Node20 -->
<g id="edge51" class="edge">
<title>Node34&#45;&gt;Node20</title>
<path fill="none" stroke="midnightblue" d="M81.98,-112.43C80.21,-98.96 78.82,-72.69 91.44,-56 107.32,-35 134.87,-23.71 158.03,-17.7"/>
<polygon fill="midnightblue" stroke="midnightblue" points="159.04,-21.05 167.97,-15.36 157.44,-14.24 159.04,-21.05"/>
</g>
<!-- Node34&#45;&gt;Node21 -->
<g id="edge49" class="edge">
<title>Node34&#45;&gt;Node21</title>
<path fill="none" stroke="midnightblue" d="M115.92,-112.44C151.99,-102.94 210.21,-87.61 248.89,-77.42"/>
<polygon fill="midnightblue" stroke="midnightblue" points="249.99,-80.75 258.77,-74.82 248.21,-73.98 249.99,-80.75"/>
</g>
<!-- Node35 -->
<g id="node35" class="node">
<title>Node35</title>
<g id="a_node35"><a xlink:href="Matrix2_8h.html" target="_top" xlink:title=" ">
<polygon fill="none" stroke="black" points="100.94,-56.5 100.94,-75.5 163.94,-75.5 163.94,-56.5 100.94,-56.5"/>
<text text-anchor="middle" x="132.44" y="-63.5" font-family="Helvetica,sans-Serif" font-size="10.00">Matrix2.h</text>
</a>
</g>
</g>
<!-- Node34&#45;&gt;Node35 -->
<g id="edge45" class="edge">
<title>Node34&#45;&gt;Node35</title>
<path fill="none" stroke="midnightblue" d="M91.53,-112.08C98.59,-104.3 109.02,-92.8 117.59,-83.37"/>
<polygon fill="midnightblue" stroke="midnightblue" points="120.37,-85.51 124.5,-75.75 115.18,-80.8 120.37,-85.51"/>
</g>
<!-- Node35&#45;&gt;Node20 -->
<g id="edge46" class="edge">
<title>Node35&#45;&gt;Node20</title>
<path fill="none" stroke="midnightblue" d="M143.04,-56.32C152.89,-48.26 167.79,-36.08 179.65,-26.37"/>
<polygon fill="midnightblue" stroke="midnightblue" points="182.12,-28.88 187.64,-19.83 177.68,-23.46 182.12,-28.88"/>
</g>
<!-- Node36&#45;&gt;Node9 -->
<g id="edge57" class="edge">
<title>Node36&#45;&gt;Node9</title>
<path fill="none" stroke="midnightblue" d="M483.59,-392.08C479.2,-379.06 469.94,-354.4 457.44,-336 450.1,-325.21 440.03,-314.69 431.38,-306.54"/>
<polygon fill="midnightblue" stroke="midnightblue" points="433.7,-303.92 423.95,-299.78 428.99,-309.1 433.7,-303.92"/>
</g>
<!-- Node36&#45;&gt;Node26 -->
<g id="edge63" class="edge">
<title>Node36&#45;&gt;Node26</title>
<path fill="none" stroke="midnightblue" d="M492.97,-392.35C508.6,-371.88 549.84,-319.21 589.44,-280 622.86,-246.9 665.95,-212.72 690.66,-193.83"/>
<polygon fill="midnightblue" stroke="midnightblue" points="693.03,-196.42 698.88,-187.59 688.8,-190.84 693.03,-196.42"/>
</g>
<!-- Node37 -->
<g id="node37" class="node">
<title>Node37</title>
<g id="a_node37"><a xlink:href="FrameTimer_8h.html" target="_top" xlink:title=" ">
<polygon fill="none" stroke="black" points="581.44,-336.5 581.44,-355.5 665.44,-355.5 665.44,-336.5 581.44,-336.5"/>
<text text-anchor="middle" x="623.44" y="-343.5" font-family="Helvetica,sans-Serif" font-size="10.00">FrameTimer.h</text>
</a>
</g>
</g>
<!-- Node36&#45;&gt;Node37 -->
<g id="edge55" class="edge">
<title>Node36&#45;&gt;Node37</title>
<path fill="none" stroke="midnightblue" d="M508.15,-392.44C530.79,-383.52 566.51,-369.44 592.19,-359.32"/>
<polygon fill="midnightblue" stroke="midnightblue" points="593.81,-362.44 601.83,-355.52 591.24,-355.93 593.81,-362.44"/>
</g>
<!-- Node39 -->
<g id="node39" class="node">
<title>Node39</title>
<g id="a_node39"><a xlink:href="Scene_8h.html" target="_top" xlink:title=" ">
<polygon fill="none" stroke="black" points="202.94,-336.5 202.94,-355.5 257.94,-355.5 257.94,-336.5 202.94,-336.5"/>
<text text-anchor="middle" x="230.44" y="-343.5" font-family="Helvetica,sans-Serif" font-size="10.00">Scene.h</text>
</a>
</g>
</g>
<!-- Node36&#45;&gt;Node39 -->
<g id="edge58" class="edge">
<title>Node36&#45;&gt;Node39</title>
<path fill="none" stroke="midnightblue" d="M456.82,-394.75C410.15,-384.91 319.55,-365.8 268.25,-354.98"/>
<polygon fill="midnightblue" stroke="midnightblue" points="268.74,-351.5 258.23,-352.86 267.29,-358.35 268.74,-351.5"/>
</g>
<!-- Node40 -->
<g id="node40" class="node">
<title>Node40</title>
<g id="a_node40"><a xlink:title=" ">
<polygon fill="none" stroke="#bfbfbf" points="401.94,-336.5 401.94,-355.5 448.94,-355.5 448.94,-336.5 401.94,-336.5"/>
<text text-anchor="middle" x="425.44" y="-343.5" font-family="Helvetica,sans-Serif" font-size="10.00">vector</text>
</a>
</g>
</g>
<!-- Node36&#45;&gt;Node40 -->
<g id="edge64" class="edge">
<title>Node36&#45;&gt;Node40</title>
<path fill="none" stroke="midnightblue" d="M476.64,-392.32C467.62,-384.34 454.03,-372.31 443.12,-362.65"/>
<polygon fill="midnightblue" stroke="midnightblue" points="445.22,-359.84 435.42,-355.83 440.58,-365.08 445.22,-359.84"/>
</g>
<!-- Node38 -->
<g id="node38" class="node">
<title>Node38</title>
<g id="a_node38"><a xlink:title=" ">
<polygon fill="none" stroke="#bfbfbf" points="598.44,-280.5 598.44,-299.5 648.44,-299.5 648.44,-280.5 598.44,-280.5"/>
<text text-anchor="middle" x="623.44" y="-287.5" font-family="Helvetica,sans-Serif" font-size="10.00">chrono</text>
</a>
</g>
</g>
<!-- Node37&#45;&gt;Node38 -->
<g id="edge56" class="edge">
<title>Node37&#45;&gt;Node38</title>
<path fill="none" stroke="midnightblue" d="M623.44,-336.08C623.44,-329.01 623.44,-318.86 623.44,-309.99"/>
<polygon fill="midnightblue" stroke="midnightblue" points="626.94,-309.75 623.44,-299.75 619.94,-309.75 626.94,-309.75"/>
</g>
<!-- Node39&#45;&gt;Node7 -->
<g id="edge62" class="edge">
<title>Node39&#45;&gt;Node7</title>
<path fill="none" stroke="midnightblue" d="M228.87,-336.3C222.98,-303.63 202.12,-187.87 193.85,-141.96"/>
<polygon fill="midnightblue" stroke="midnightblue" points="197.26,-141.1 192.04,-131.88 190.37,-142.35 197.26,-141.1"/>
</g>
<!-- Node39&#45;&gt;Node9 -->
<g id="edge61" class="edge">
<title>Node39&#45;&gt;Node9</title>
<path fill="none" stroke="midnightblue" d="M258.23,-336.8C289.26,-327.64 339.7,-312.76 374.62,-302.45"/>
<polygon fill="midnightblue" stroke="midnightblue" points="375.87,-305.73 384.47,-299.55 373.89,-299.02 375.87,-305.73"/>
</g>
<!-- Node39&#45;&gt;Node30 -->
<g id="edge59" class="edge">
<title>Node39&#45;&gt;Node30</title>
<path fill="none" stroke="midnightblue" d="M220.15,-336.32C210.6,-328.26 196.16,-316.08 184.65,-306.37"/>
<polygon fill="midnightblue" stroke="midnightblue" points="186.81,-303.61 176.91,-299.83 182.29,-308.96 186.81,-303.61"/>
</g>
<!-- Node39&#45;&gt;Node33 -->
<g id="edge60" class="edge">
<title>Node39&#45;&gt;Node33</title>
<path fill="none" stroke="midnightblue" d="M207.14,-336.44C182.63,-327.44 143.84,-313.19 116.24,-303.05"/>
<polygon fill="midnightblue" stroke="midnightblue" points="117.21,-299.68 106.62,-299.52 114.8,-306.25 117.21,-299.68"/>
</g>
</g>
</svg>
