<?xml version="1.0" encoding="UTF-8" standalone="no"?>
<!DOCTYPE svg PUBLIC "-//W3C//DTD SVG 1.1//EN"
 "http://www.w3.org/Graphics/SVG/1.1/DTD/svg11.dtd">
<!-- Generated by graphviz version 2.43.0 (0)
 -->
<!-- Title: include/LinearAlgebra/Matrix2.h Pages: 1 -->
<svg width="2121pt" height="363pt"
 viewBox="0.00 0.00 2121.00 363.00" xmlns="http://www.w3.org/2000/svg" xmlns:xlink="http://www.w3.org/1999/xlink">
<g id="graph0" class="graph" transform="scale(1 1) rotate(0) translate(4 359)">
<title>include/LinearAlgebra/Matrix2.h</title>
<!-- Node1 -->
<g id="node1" class="node">
<title>Node1</title>
<g id="a_node1"><a xlink:title=" ">
<polygon fill="#bfbfbf" stroke="black" points="1722,-324.5 1722,-354.5 1844,-354.5 1844,-324.5 1722,-324.5"/>
<text text-anchor="start" x="1730" y="-342.5" font-family="Helvetica,sans-Serif" font-size="10.00">include/LinearAlgebra</text>
<text text-anchor="middle" x="1783" y="-331.5" font-family="Helvetica,sans-Serif" font-size="10.00">/Matrix2.h</text>
</a>
</g>
</g>
<!-- Node2 -->
<g id="node2" class="node">
<title>Node2</title>
<g id="a_node2"><a xlink:href="Vector2_8h.html" target="_top" xlink:title=" ">
<polygon fill="none" stroke="black" points="1722,-257.5 1722,-287.5 1844,-287.5 1844,-257.5 1722,-257.5"/>
<text text-anchor="start" x="1730" y="-275.5" font-family="Helvetica,sans-Serif" font-size="10.00">include/LinearAlgebra</text>
<text text-anchor="middle" x="1783" y="-264.5" font-family="Helvetica,sans-Serif" font-size="10.00">/Vector2.h</text>
</a>
</g>
</g>
<!-- Node1&#45;&gt;Node2 -->
<g id="edge1" class="edge">
<title>Node1&#45;&gt;Node2</title>
<path fill="none" stroke="midnightblue" d="M1783,-314.11C1783,-305.15 1783,-295.32 1783,-287.58"/>
<polygon fill="midnightblue" stroke="midnightblue" points="1779.5,-314.4 1783,-324.4 1786.5,-314.4 1779.5,-314.4"/>
</g>
<!-- Node3 -->
<g id="node3" class="node">
<title>Node3</title>
<g id="a_node3"><a xlink:href="Mouse_8h.html" target="_top" xlink:title=" ">
<polygon fill="none" stroke="black" points="1659,-196 1659,-215 1755,-215 1755,-196 1659,-196"/>
<text text-anchor="middle" x="1707" y="-203" font-family="Helvetica,sans-Serif" font-size="10.00">include/Mouse.h</text>
</a>
</g>
</g>
<!-- Node2&#45;&gt;Node3 -->
<g id="edge2" class="edge">
<title>Node2&#45;&gt;Node3</title>
<path fill="none" stroke="midnightblue" d="M1758.65,-250.67C1744.61,-238.67 1727.72,-224.22 1717.17,-215.19"/>
<polygon fill="midnightblue" stroke="midnightblue" points="1756.63,-253.56 1766.51,-257.4 1761.18,-248.24 1756.63,-253.56"/>
</g>
<!-- Node6 -->
<g id="node6" class="node">
<title>Node6</title>
<g id="a_node6"><a xlink:href="Graphics_8cpp.html" target="_top" xlink:title=" ">
<polygon fill="none" stroke="black" points="1800.5,-0.5 1800.5,-19.5 1897.5,-19.5 1897.5,-0.5 1800.5,-0.5"/>
<text text-anchor="middle" x="1849" y="-7.5" font-family="Helvetica,sans-Serif" font-size="10.00">src/Graphics.cpp</text>
</a>
</g>
</g>
<!-- Node2&#45;&gt;Node6 -->
<g id="edge44" class="edge">
<title>Node2&#45;&gt;Node6</title>
<path fill="none" stroke="midnightblue" d="M1794.26,-248.34C1805.11,-225.05 1821.13,-187.85 1830,-154 1843.08,-104.09 1847.41,-41.91 1848.61,-19.52"/>
<polygon fill="midnightblue" stroke="midnightblue" points="1791.08,-246.88 1789.97,-257.42 1797.41,-249.88 1791.08,-246.88"/>
</g>
<!-- Node20 -->
<g id="node20" class="node">
<title>Node20</title>
<g id="a_node20"><a xlink:href="Mouse_8cpp.html" target="_top" xlink:title=" ">
<polygon fill="none" stroke="black" points="1735,-129 1735,-148 1821,-148 1821,-129 1735,-129"/>
<text text-anchor="middle" x="1778" y="-136" font-family="Helvetica,sans-Serif" font-size="10.00">src/Mouse.cpp</text>
</a>
</g>
</g>
<!-- Node2&#45;&gt;Node20 -->
<g id="edge45" class="edge">
<title>Node2&#45;&gt;Node20</title>
<path fill="none" stroke="midnightblue" d="M1782.08,-247.32C1780.95,-217.38 1779.08,-167.91 1778.33,-148.1"/>
<polygon fill="midnightblue" stroke="midnightblue" points="1778.59,-247.51 1782.46,-257.37 1785.58,-247.25 1778.59,-247.51"/>
</g>
<!-- Node21 -->
<g id="node21" class="node">
<title>Node21</title>
<g id="a_node21"><a xlink:href="Cube_8h.html" target="_top" xlink:title=" ">
<polygon fill="none" stroke="black" points="777,-123.5 777,-153.5 881,-153.5 881,-123.5 777,-123.5"/>
<text text-anchor="start" x="785" y="-141.5" font-family="Helvetica,sans-Serif" font-size="10.00">include/Primitives</text>
<text text-anchor="middle" x="829" y="-130.5" font-family="Helvetica,sans-Serif" font-size="10.00">/Cube.h</text>
</a>
</g>
</g>
<!-- Node2&#45;&gt;Node21 -->
<g id="edge32" class="edge">
<title>Node2&#45;&gt;Node21</title>
<path fill="none" stroke="midnightblue" d="M1711.67,-261.72C1565.42,-241.64 1221.05,-194.3 932,-154 915.46,-151.69 897.42,-149.16 881.13,-146.87"/>
<polygon fill="midnightblue" stroke="midnightblue" points="1711.47,-265.22 1721.85,-263.11 1712.42,-258.29 1711.47,-265.22"/>
</g>
<!-- Node22 -->
<g id="node22" class="node">
<title>Node22</title>
<g id="a_node22"><a xlink:href="Plane_8h.html" target="_top" xlink:title=" ">
<polygon fill="none" stroke="black" points="1470,-123.5 1470,-153.5 1574,-153.5 1574,-123.5 1470,-123.5"/>
<text text-anchor="start" x="1478" y="-141.5" font-family="Helvetica,sans-Serif" font-size="10.00">include/Primitives</text>
<text text-anchor="middle" x="1522" y="-130.5" font-family="Helvetica,sans-Serif" font-size="10.00">/Plane.h</text>
</a>
</g>
</g>
<!-- Node2&#45;&gt;Node22 -->
<g id="edge41" class="edge">
<title>Node2&#45;&gt;Node22</title>
<path fill="none" stroke="midnightblue" d="M1729.64,-254.05C1704.91,-245.26 1675.43,-233.76 1650,-221 1609.5,-200.68 1565.64,-170.88 1541.22,-153.5"/>
<polygon fill="midnightblue" stroke="midnightblue" points="1728.63,-257.41 1739.22,-257.41 1730.94,-250.8 1728.63,-257.41"/>
</g>
<!-- Node23 -->
<g id="node23" class="node">
<title>Node23</title>
<g id="a_node23"><a xlink:href="TexVertex_8h.html" target="_top" xlink:title=" ">
<polygon fill="none" stroke="black" points="1877,-196 1877,-215 1989,-215 1989,-196 1877,-196"/>
<text text-anchor="middle" x="1933" y="-203" font-family="Helvetica,sans-Serif" font-size="10.00">include/TexVertex.h</text>
</a>
</g>
</g>
<!-- Node2&#45;&gt;Node23 -->
<g id="edge43" class="edge">
<title>Node2&#45;&gt;Node23</title>
<path fill="none" stroke="midnightblue" d="M1825.01,-253.3C1853.94,-240.76 1891.04,-224.68 1913.37,-215.01"/>
<polygon fill="midnightblue" stroke="midnightblue" points="1823.33,-250.21 1815.55,-257.4 1826.11,-256.63 1823.33,-250.21"/>
</g>
<!-- Node24 -->
<g id="node24" class="node">
<title>Node24</title>
<g id="a_node24"><a xlink:href="Vector2_8cpp.html" target="_top" xlink:title=" ">
<polygon fill="none" stroke="black" points="2007,-190.5 2007,-220.5 2113,-220.5 2113,-190.5 2007,-190.5"/>
<text text-anchor="start" x="2015" y="-208.5" font-family="Helvetica,sans-Serif" font-size="10.00">test/LinearAlgebra</text>
<text text-anchor="middle" x="2060" y="-197.5" font-family="Helvetica,sans-Serif" font-size="10.00">/Vector2.cpp</text>
</a>
</g>
</g>
<!-- Node2&#45;&gt;Node24 -->
<g id="edge46" class="edge">
<title>Node2&#45;&gt;Node24</title>
<path fill="none" stroke="midnightblue" d="M1852.74,-255.14C1900.58,-243.91 1963.08,-229.24 2006.89,-218.96"/>
<polygon fill="midnightblue" stroke="midnightblue" points="1851.7,-251.78 1842.76,-257.48 1853.3,-258.6 1851.7,-251.78"/>
</g>
<!-- Node4 -->
<g id="node4" class="node">
<title>Node4</title>
<g id="a_node4"><a xlink:href="MainWindow_8h.html" target="_top" xlink:title=" ">
<polygon fill="none" stroke="black" points="1695,-62 1695,-81 1821,-81 1821,-62 1695,-62"/>
<text text-anchor="middle" x="1758" y="-69" font-family="Helvetica,sans-Serif" font-size="10.00">include/MainWindow.h</text>
</a>
</g>
</g>
<!-- Node3&#45;&gt;Node4 -->
<g id="edge3" class="edge">
<title>Node3&#45;&gt;Node4</title>
<path fill="none" stroke="midnightblue" d="M1709.59,-185.41C1712.32,-168.53 1717.42,-143.47 1726,-123 1732.58,-107.3 1743.86,-90.99 1751.12,-81.3"/>
<polygon fill="midnightblue" stroke="midnightblue" points="1706.08,-185.23 1708.07,-195.64 1713,-186.26 1706.08,-185.23"/>
</g>
<!-- Node9 -->
<g id="node9" class="node">
<title>Node9</title>
<g id="a_node9"><a xlink:href="Scene_8h.html" target="_top" xlink:title=" ">
<polygon fill="none" stroke="black" points="941.5,-129 941.5,-148 1034.5,-148 1034.5,-129 941.5,-129"/>
<text text-anchor="middle" x="988" y="-136" font-family="Helvetica,sans-Serif" font-size="10.00">include/Scene.h</text>
</a>
</g>
</g>
<!-- Node3&#45;&gt;Node9 -->
<g id="edge8" class="edge">
<title>Node3&#45;&gt;Node9</title>
<path fill="none" stroke="midnightblue" d="M1648.97,-199.25C1510.18,-186.71 1161.23,-155.16 1034.73,-143.72"/>
<polygon fill="midnightblue" stroke="midnightblue" points="1648.71,-202.74 1658.99,-200.16 1649.34,-195.77 1648.71,-202.74"/>
</g>
<!-- Node3&#45;&gt;Node20 -->
<g id="edge31" class="edge">
<title>Node3&#45;&gt;Node20</title>
<path fill="none" stroke="midnightblue" d="M1724.09,-188.86C1738.05,-176.08 1757.26,-158.49 1768.58,-148.13"/>
<polygon fill="midnightblue" stroke="midnightblue" points="1721.59,-186.4 1716.58,-195.73 1726.31,-191.56 1721.59,-186.4"/>
</g>
<!-- Node5 -->
<g id="node5" class="node">
<title>Node5</title>
<g id="a_node5"><a xlink:href="Engine_8cpp.html" target="_top" xlink:title=" ">
<polygon fill="none" stroke="black" points="944.5,-0.5 944.5,-19.5 1031.5,-19.5 1031.5,-0.5 944.5,-0.5"/>
<text text-anchor="middle" x="988" y="-7.5" font-family="Helvetica,sans-Serif" font-size="10.00">src/Engine.cpp</text>
</a>
</g>
</g>
<!-- Node4&#45;&gt;Node5 -->
<g id="edge4" class="edge">
<title>Node4&#45;&gt;Node5</title>
<path fill="none" stroke="midnightblue" d="M1709.96,-60.03C1701.67,-58.48 1693.11,-57.06 1685,-56 1439.43,-23.83 1142.03,-14.35 1031.83,-11.83"/>
<polygon fill="midnightblue" stroke="midnightblue" points="1709.41,-63.48 1719.89,-61.95 1710.74,-56.61 1709.41,-63.48"/>
</g>
<!-- Node4&#45;&gt;Node6 -->
<g id="edge5" class="edge">
<title>Node4&#45;&gt;Node6</title>
<path fill="none" stroke="midnightblue" d="M1779.52,-56.43C1797.06,-44.96 1821.27,-29.13 1835.99,-19.51"/>
<polygon fill="midnightblue" stroke="midnightblue" points="1777.49,-53.57 1771.04,-61.98 1781.32,-59.43 1777.49,-53.57"/>
</g>
<!-- Node7 -->
<g id="node7" class="node">
<title>Node7</title>
<g id="a_node7"><a xlink:href="Main_8cpp.html" target="_top" xlink:title=" ">
<polygon fill="none" stroke="black" points="1704,-0.5 1704,-19.5 1782,-19.5 1782,-0.5 1704,-0.5"/>
<text text-anchor="middle" x="1743" y="-7.5" font-family="Helvetica,sans-Serif" font-size="10.00">src/Main.cpp</text>
</a>
</g>
</g>
<!-- Node4&#45;&gt;Node7 -->
<g id="edge6" class="edge">
<title>Node4&#45;&gt;Node7</title>
<path fill="none" stroke="midnightblue" d="M1753.38,-52.16C1750.63,-41.27 1747.28,-27.99 1745.15,-19.51"/>
<polygon fill="midnightblue" stroke="midnightblue" points="1750.01,-53.13 1755.85,-61.98 1756.8,-51.42 1750.01,-53.13"/>
</g>
<!-- Node8 -->
<g id="node8" class="node">
<title>Node8</title>
<g id="a_node8"><a xlink:href="MainWindow_8cpp.html" target="_top" xlink:title=" ">
<polygon fill="none" stroke="black" points="1570,-0.5 1570,-19.5 1686,-19.5 1686,-0.5 1570,-0.5"/>
<text text-anchor="middle" x="1628" y="-7.5" font-family="Helvetica,sans-Serif" font-size="10.00">src/MainWindow.cpp</text>
</a>
</g>
</g>
<!-- Node4&#45;&gt;Node8 -->
<g id="edge7" class="edge">
<title>Node4&#45;&gt;Node8</title>
<path fill="none" stroke="midnightblue" d="M1729.98,-57.67C1704.75,-46.13 1668.39,-29.49 1646.59,-19.51"/>
<polygon fill="midnightblue" stroke="midnightblue" points="1728.82,-61 1739.37,-61.98 1731.74,-54.63 1728.82,-61"/>
</g>
<!-- Node10 -->
<g id="node10" class="node">
<title>Node10</title>
<g id="a_node10"><a xlink:href="Engine_8h.html" target="_top" xlink:title=" ">
<polygon fill="none" stroke="black" points="1579.5,-62 1579.5,-81 1676.5,-81 1676.5,-62 1579.5,-62"/>
<text text-anchor="middle" x="1628" y="-69" font-family="Helvetica,sans-Serif" font-size="10.00">include/Engine.h</text>
</a>
</g>
</g>
<!-- Node9&#45;&gt;Node10 -->
<g id="edge9" class="edge">
<title>Node9&#45;&gt;Node10</title>
<path fill="none" stroke="midnightblue" d="M1044.73,-135.56C1149.26,-131.33 1379.05,-118.95 1570,-87 1579.11,-85.48 1588.9,-83.26 1597.79,-81.01"/>
<polygon fill="midnightblue" stroke="midnightblue" points="1044.57,-132.07 1034.71,-135.96 1044.84,-139.06 1044.57,-132.07"/>
</g>
<!-- Node11 -->
<g id="node11" class="node">
<title>Node11</title>
<g id="a_node11"><a xlink:href="CubeFlatIndependentScene_8h.html" target="_top" xlink:title=" ">
<polygon fill="none" stroke="black" points="348.5,-56.5 348.5,-86.5 545.5,-86.5 545.5,-56.5 348.5,-56.5"/>
<text text-anchor="start" x="356.5" y="-74.5" font-family="Helvetica,sans-Serif" font-size="10.00">include/Scenes/CubeFlatIndependent</text>
<text text-anchor="middle" x="447" y="-63.5" font-family="Helvetica,sans-Serif" font-size="10.00">Scene.h</text>
</a>
</g>
</g>
<!-- Node9&#45;&gt;Node11 -->
<g id="edge13" class="edge">
<title>Node9&#45;&gt;Node11</title>
<path fill="none" stroke="midnightblue" d="M931.1,-128.69C917.64,-126.71 903.32,-124.7 890,-123 741.46,-104.04 703.66,-104.96 555,-87 551.9,-86.63 548.75,-86.24 545.57,-85.84"/>
<polygon fill="midnightblue" stroke="midnightblue" points="930.79,-132.18 941.2,-130.19 931.82,-125.26 930.79,-132.18"/>
</g>
<!-- Node12 -->
<g id="node12" class="node">
<title>Node12</title>
<g id="a_node12"><a xlink:href="CubeSkinScene_8h.html" target="_top" xlink:title=" ">
<polygon fill="none" stroke="black" points="564,-62 564,-81 740,-81 740,-62 564,-62"/>
<text text-anchor="middle" x="652" y="-69" font-family="Helvetica,sans-Serif" font-size="10.00">include/Scenes/CubeSkinScene.h</text>
</a>
</g>
</g>
<!-- Node9&#45;&gt;Node12 -->
<g id="edge15" class="edge">
<title>Node9&#45;&gt;Node12</title>
<path fill="none" stroke="midnightblue" d="M933.51,-126.96C867.38,-114.16 757.16,-92.84 696.1,-81.03"/>
<polygon fill="midnightblue" stroke="midnightblue" points="933.25,-130.47 943.73,-128.94 934.58,-123.6 933.25,-130.47"/>
</g>
<!-- Node13 -->
<g id="node13" class="node">
<title>Node13</title>
<g id="a_node13"><a xlink:href="CubeSolidGeometryScene_8h.html" target="_top" xlink:title=" ">
<polygon fill="none" stroke="black" points="758.5,-56.5 758.5,-86.5 899.5,-86.5 899.5,-56.5 758.5,-56.5"/>
<text text-anchor="start" x="766.5" y="-74.5" font-family="Helvetica,sans-Serif" font-size="10.00">include/Scenes/CubeSolid</text>
<text text-anchor="middle" x="829" y="-63.5" font-family="Helvetica,sans-Serif" font-size="10.00">GeometryScene.h</text>
</a>
</g>
</g>
<!-- Node9&#45;&gt;Node13 -->
<g id="edge17" class="edge">
<title>Node9&#45;&gt;Node13</title>
<path fill="none" stroke="midnightblue" d="M957.56,-125.06C930.63,-114.05 891.36,-97.99 863.31,-86.53"/>
<polygon fill="midnightblue" stroke="midnightblue" points="956.31,-128.32 966.89,-128.87 958.95,-121.84 956.31,-128.32"/>
</g>
<!-- Node14 -->
<g id="node14" class="node">
<title>Node14</title>
<g id="a_node14"><a xlink:href="CubeSolidScene_8h.html" target="_top" xlink:title=" ">
<polygon fill="none" stroke="black" points="917.5,-56.5 917.5,-86.5 1058.5,-86.5 1058.5,-56.5 917.5,-56.5"/>
<text text-anchor="start" x="925.5" y="-74.5" font-family="Helvetica,sans-Serif" font-size="10.00">include/Scenes/CubeSolid</text>
<text text-anchor="middle" x="988" y="-63.5" font-family="Helvetica,sans-Serif" font-size="10.00">Scene.h</text>
</a>
</g>
</g>
<!-- Node9&#45;&gt;Node14 -->
<g id="edge19" class="edge">
<title>Node9&#45;&gt;Node14</title>
<path fill="none" stroke="midnightblue" d="M988,-118.41C988,-108.22 988,-95.9 988,-86.59"/>
<polygon fill="midnightblue" stroke="midnightblue" points="984.5,-118.73 988,-128.73 991.5,-118.73 984.5,-118.73"/>
</g>
<!-- Node15 -->
<g id="node15" class="node">
<title>Node15</title>
<g id="a_node15"><a xlink:href="CubeVertexColorScene_8h.html" target="_top" xlink:title=" ">
<polygon fill="none" stroke="black" points="1076.5,-56.5 1076.5,-86.5 1225.5,-86.5 1225.5,-56.5 1076.5,-56.5"/>
<text text-anchor="start" x="1084.5" y="-74.5" font-family="Helvetica,sans-Serif" font-size="10.00">include/Scenes/CubeVertex</text>
<text text-anchor="middle" x="1151" y="-63.5" font-family="Helvetica,sans-Serif" font-size="10.00">ColorScene.h</text>
</a>
</g>
</g>
<!-- Node9&#45;&gt;Node15 -->
<g id="edge21" class="edge">
<title>Node9&#45;&gt;Node15</title>
<path fill="none" stroke="midnightblue" d="M1019.2,-125.06C1046.81,-114.05 1087.07,-97.99 1115.82,-86.53"/>
<polygon fill="midnightblue" stroke="midnightblue" points="1017.64,-121.91 1009.65,-128.87 1020.23,-128.42 1017.64,-121.91"/>
</g>
<!-- Node16 -->
<g id="node16" class="node">
<title>Node16</title>
<g id="a_node16"><a xlink:href="CubeVertexPositionColorScene_8h.html" target="_top" xlink:title=" ">
<polygon fill="none" stroke="black" points="1243.5,-56.5 1243.5,-86.5 1392.5,-86.5 1392.5,-56.5 1243.5,-56.5"/>
<text text-anchor="start" x="1251.5" y="-74.5" font-family="Helvetica,sans-Serif" font-size="10.00">include/Scenes/CubeVertex</text>
<text text-anchor="middle" x="1318" y="-63.5" font-family="Helvetica,sans-Serif" font-size="10.00">PositionColorScene.h</text>
</a>
</g>
</g>
<!-- Node9&#45;&gt;Node16 -->
<g id="edge23" class="edge">
<title>Node9&#45;&gt;Node16</title>
<path fill="none" stroke="midnightblue" d="M1041.51,-126.96C1097.28,-115.98 1184.98,-98.7 1246.62,-86.56"/>
<polygon fill="midnightblue" stroke="midnightblue" points="1040.62,-123.57 1031.48,-128.94 1041.97,-130.44 1040.62,-123.57"/>
</g>
<!-- Node17 -->
<g id="node17" class="node">
<title>Node17</title>
<g id="a_node17"><a xlink:href="DoubleCubeScene_8h.html" target="_top" xlink:title=" ">
<polygon fill="none" stroke="black" points="0,-56.5 0,-86.5 152,-86.5 152,-56.5 0,-56.5"/>
<text text-anchor="start" x="8" y="-74.5" font-family="Helvetica,sans-Serif" font-size="10.00">include/Scenes/DoubleCube</text>
<text text-anchor="middle" x="76" y="-63.5" font-family="Helvetica,sans-Serif" font-size="10.00">Scene.h</text>
</a>
</g>
</g>
<!-- Node9&#45;&gt;Node17 -->
<g id="edge25" class="edge">
<title>Node9&#45;&gt;Node17</title>
<path fill="none" stroke="midnightblue" d="M931.16,-128.13C917.7,-126.18 903.37,-124.32 890,-123 567.17,-91.22 483.46,-122.34 161,-87 158.17,-86.69 155.3,-86.35 152.4,-85.98"/>
<polygon fill="midnightblue" stroke="midnightblue" points="930.85,-131.62 941.26,-129.63 931.88,-124.7 930.85,-131.62"/>
</g>
<!-- Node18 -->
<g id="node18" class="node">
<title>Node18</title>
<g id="a_node18"><a xlink:href="GeometryFlatScene_8h.html" target="_top" xlink:title=" ">
<polygon fill="none" stroke="black" points="170,-56.5 170,-86.5 330,-86.5 330,-56.5 170,-56.5"/>
<text text-anchor="start" x="178" y="-74.5" font-family="Helvetica,sans-Serif" font-size="10.00">include/Scenes/GeometryFlat</text>
<text text-anchor="middle" x="250" y="-63.5" font-family="Helvetica,sans-Serif" font-size="10.00">Scene.h</text>
</a>
</g>
</g>
<!-- Node9&#45;&gt;Node18 -->
<g id="edge27" class="edge">
<title>Node9&#45;&gt;Node18</title>
<path fill="none" stroke="midnightblue" d="M931.15,-128.29C917.68,-126.33 903.36,-124.42 890,-123 645.97,-97.02 582.84,-114.76 339,-87 336.04,-86.66 333.04,-86.3 330,-85.91"/>
<polygon fill="midnightblue" stroke="midnightblue" points="930.84,-131.78 941.24,-129.79 931.87,-124.85 930.84,-131.78"/>
</g>
<!-- Node19 -->
<g id="node19" class="node">
<title>Node19</title>
<g id="a_node19"><a xlink:href="VertexWaveScene_8h.html" target="_top" xlink:title=" ">
<polygon fill="none" stroke="black" points="1410.5,-56.5 1410.5,-86.5 1561.5,-86.5 1561.5,-56.5 1410.5,-56.5"/>
<text text-anchor="start" x="1418.5" y="-74.5" font-family="Helvetica,sans-Serif" font-size="10.00">include/Scenes/VertexWave</text>
<text text-anchor="middle" x="1486" y="-63.5" font-family="Helvetica,sans-Serif" font-size="10.00">Scene.h</text>
</a>
</g>
</g>
<!-- Node9&#45;&gt;Node19 -->
<g id="edge29" class="edge">
<title>Node9&#45;&gt;Node19</title>
<path fill="none" stroke="midnightblue" d="M1044.86,-131.41C1124.6,-122.67 1274.11,-105.57 1401,-87 1404.11,-86.54 1407.28,-86.07 1410.49,-85.57"/>
<polygon fill="midnightblue" stroke="midnightblue" points="1044.11,-127.97 1034.55,-132.53 1044.87,-134.93 1044.11,-127.97"/>
</g>
<!-- Node10&#45;&gt;Node5 -->
<g id="edge10" class="edge">
<title>Node10&#45;&gt;Node5</title>
<path fill="none" stroke="midnightblue" d="M1587.94,-59.56C1581.96,-58.19 1575.84,-56.95 1570,-56 1370.69,-23.62 1129.07,-14.38 1031.74,-11.88"/>
<polygon fill="midnightblue" stroke="midnightblue" points="1587.26,-62.99 1597.8,-61.93 1588.89,-56.19 1587.26,-62.99"/>
</g>
<!-- Node10&#45;&gt;Node7 -->
<g id="edge11" class="edge">
<title>Node10&#45;&gt;Node7</title>
<path fill="none" stroke="midnightblue" d="M1653.38,-57.37C1675.67,-45.83 1707.44,-29.4 1726.55,-19.51"/>
<polygon fill="midnightblue" stroke="midnightblue" points="1651.75,-54.27 1644.48,-61.98 1654.97,-60.49 1651.75,-54.27"/>
</g>
<!-- Node10&#45;&gt;Node8 -->
<g id="edge12" class="edge">
<title>Node10&#45;&gt;Node8</title>
<path fill="none" stroke="midnightblue" d="M1628,-51.82C1628,-41 1628,-27.9 1628,-19.51"/>
<polygon fill="midnightblue" stroke="midnightblue" points="1624.5,-51.98 1628,-61.98 1631.5,-51.98 1624.5,-51.98"/>
</g>
<!-- Node11&#45;&gt;Node5 -->
<g id="edge14" class="edge">
<title>Node11&#45;&gt;Node5</title>
<path fill="none" stroke="midnightblue" d="M555.82,-55.93C704.76,-38.33 867.9,-22.38 944.32,-15.1"/>
<polygon fill="midnightblue" stroke="midnightblue" points="555.09,-52.49 545.57,-57.14 555.92,-59.44 555.09,-52.49"/>
</g>
<!-- Node12&#45;&gt;Node5 -->
<g id="edge16" class="edge">
<title>Node12&#45;&gt;Node5</title>
<path fill="none" stroke="midnightblue" d="M710.07,-60.22C776.76,-48.41 884.63,-29.3 944.49,-18.71"/>
<polygon fill="midnightblue" stroke="midnightblue" points="709.38,-56.78 700.14,-61.98 710.6,-63.68 709.38,-56.78"/>
</g>
<!-- Node13&#45;&gt;Node5 -->
<g id="edge18" class="edge">
<title>Node13&#45;&gt;Node5</title>
<path fill="none" stroke="midnightblue" d="M876.3,-52.8C905.53,-41.86 941.74,-28.31 964.86,-19.66"/>
<polygon fill="midnightblue" stroke="midnightblue" points="874.82,-49.62 866.68,-56.4 877.27,-56.17 874.82,-49.62"/>
</g>
<!-- Node14&#45;&gt;Node5 -->
<g id="edge20" class="edge">
<title>Node14&#45;&gt;Node5</title>
<path fill="none" stroke="midnightblue" d="M988,-46.29C988,-36.86 988,-26.65 988,-19.66"/>
<polygon fill="midnightblue" stroke="midnightblue" points="984.5,-46.4 988,-56.4 991.5,-46.4 984.5,-46.4"/>
</g>
<!-- Node15&#45;&gt;Node5 -->
<g id="edge22" class="edge">
<title>Node15&#45;&gt;Node5</title>
<path fill="none" stroke="midnightblue" d="M1102.9,-52.94C1072.87,-41.98 1035.52,-28.35 1011.72,-19.66"/>
<polygon fill="midnightblue" stroke="midnightblue" points="1101.78,-56.26 1112.37,-56.4 1104.18,-49.68 1101.78,-56.26"/>
</g>
<!-- Node16&#45;&gt;Node5 -->
<g id="edge24" class="edge">
<title>Node16&#45;&gt;Node5</title>
<path fill="none" stroke="midnightblue" d="M1232.98,-55.17C1168.61,-43.57 1082.83,-28.1 1031.72,-18.88"/>
<polygon fill="midnightblue" stroke="midnightblue" points="1232.66,-58.67 1243.12,-57 1233.9,-51.78 1232.66,-58.67"/>
</g>
<!-- Node17&#45;&gt;Node5 -->
<g id="edge26" class="edge">
<title>Node17&#45;&gt;Node5</title>
<path fill="none" stroke="midnightblue" d="M162.76,-55.89C467.38,-22.36 822.39,-13.71 944.37,-11.61"/>
<polygon fill="midnightblue" stroke="midnightblue" points="161.95,-52.46 152.4,-57.04 162.72,-59.42 161.95,-52.46"/>
</g>
<!-- Node18&#45;&gt;Node5 -->
<g id="edge28" class="edge">
<title>Node18&#45;&gt;Node5</title>
<path fill="none" stroke="midnightblue" d="M340.05,-55.95C573.62,-29.34 840.85,-16.81 944.19,-12.64"/>
<polygon fill="midnightblue" stroke="midnightblue" points="339.54,-52.49 330,-57.11 340.34,-59.44 339.54,-52.49"/>
</g>
<!-- Node19&#45;&gt;Node5 -->
<g id="edge30" class="edge">
<title>Node19&#45;&gt;Node5</title>
<path fill="none" stroke="midnightblue" d="M1400.36,-55.97C1259.26,-36.53 1105.16,-21.61 1031.51,-14.87"/>
<polygon fill="midnightblue" stroke="midnightblue" points="1400.11,-59.47 1410.49,-57.38 1401.07,-52.53 1400.11,-59.47"/>
</g>
<!-- Node21&#45;&gt;Node11 -->
<g id="edge33" class="edge">
<title>Node21&#45;&gt;Node11</title>
<path fill="none" stroke="midnightblue" d="M766.64,-126.89C702,-115.89 600.64,-98.64 529.43,-86.53"/>
<polygon fill="midnightblue" stroke="midnightblue" points="766.24,-130.37 776.69,-128.6 767.41,-123.47 766.24,-130.37"/>
</g>
<!-- Node21&#45;&gt;Node12 -->
<g id="edge34" class="edge">
<title>Node21&#45;&gt;Node12</title>
<path fill="none" stroke="midnightblue" d="M781.2,-119.95C746.82,-107.32 701.97,-90.85 675.17,-81.01"/>
<polygon fill="midnightblue" stroke="midnightblue" points="780,-123.23 790.59,-123.4 782.41,-116.66 780,-123.23"/>
</g>
<!-- Node21&#45;&gt;Node13 -->
<g id="edge35" class="edge">
<title>Node21&#45;&gt;Node13</title>
<path fill="none" stroke="midnightblue" d="M829,-113.11C829,-104.15 829,-94.32 829,-86.58"/>
<polygon fill="midnightblue" stroke="midnightblue" points="825.5,-113.4 829,-123.4 832.5,-113.4 825.5,-113.4"/>
</g>
<!-- Node21&#45;&gt;Node14 -->
<g id="edge36" class="edge">
<title>Node21&#45;&gt;Node14</title>
<path fill="none" stroke="midnightblue" d="M872.92,-119.54C898.37,-109.14 929.93,-96.24 953.57,-86.58"/>
<polygon fill="midnightblue" stroke="midnightblue" points="871.43,-116.37 863.5,-123.4 874.08,-122.85 871.43,-116.37"/>
</g>
<!-- Node21&#45;&gt;Node15 -->
<g id="edge37" class="edge">
<title>Node21&#45;&gt;Node15</title>
<path fill="none" stroke="midnightblue" d="M890.98,-124.99C945.52,-113.98 1024.86,-97.96 1081.53,-86.52"/>
<polygon fill="midnightblue" stroke="midnightblue" points="890.2,-121.57 881.09,-126.98 891.59,-128.44 890.2,-121.57"/>
</g>
<!-- Node21&#45;&gt;Node16 -->
<g id="edge38" class="edge">
<title>Node21&#45;&gt;Node16</title>
<path fill="none" stroke="midnightblue" d="M891.22,-128.52C904.66,-126.65 918.8,-124.72 932,-123 1066.04,-105.58 1100.24,-106.5 1234,-87 1237.08,-86.55 1240.21,-86.08 1243.38,-85.59"/>
<polygon fill="midnightblue" stroke="midnightblue" points="890.52,-125.09 881.11,-129.95 891.5,-132.02 890.52,-125.09"/>
</g>
<!-- Node21&#45;&gt;Node17 -->
<g id="edge39" class="edge">
<title>Node21&#45;&gt;Node17</title>
<path fill="none" stroke="midnightblue" d="M766.55,-134.73C648.12,-129.05 382.87,-114.25 161,-87 158.18,-86.65 155.3,-86.28 152.41,-85.88"/>
<polygon fill="midnightblue" stroke="midnightblue" points="766.71,-138.24 776.87,-135.22 767.04,-131.25 766.71,-138.24"/>
</g>
<!-- Node21&#45;&gt;Node18 -->
<g id="edge40" class="edge">
<title>Node21&#45;&gt;Node18</title>
<path fill="none" stroke="midnightblue" d="M766.56,-132.25C673.3,-124.14 492.21,-107.36 339,-87 336.05,-86.61 333.05,-86.19 330.02,-85.76"/>
<polygon fill="midnightblue" stroke="midnightblue" points="766.4,-135.75 776.67,-133.12 767.01,-128.78 766.4,-135.75"/>
</g>
<!-- Node22&#45;&gt;Node19 -->
<g id="edge42" class="edge">
<title>Node22&#45;&gt;Node19</title>
<path fill="none" stroke="midnightblue" d="M1509.3,-114.58C1504.13,-105.24 1498.32,-94.75 1493.8,-86.58"/>
<polygon fill="midnightblue" stroke="midnightblue" points="1506.28,-116.34 1514.19,-123.4 1512.41,-112.95 1506.28,-116.34"/>
</g>
</g>
</svg>
