<?xml version="1.0" encoding="UTF-8" standalone="no"?>
<!DOCTYPE svg PUBLIC "-//W3C//DTD SVG 1.1//EN"
 "http://www.w3.org/Graphics/SVG/1.1/DTD/svg11.dtd">
<!-- Generated by graphviz version 2.43.0 (0)
 -->
<!-- Title: objl::math::DotV3 Pages: 1 -->
<svg width="478pt" height="104pt"
 viewBox="0.00 0.00 478.00 104.00" xmlns="http://www.w3.org/2000/svg" xmlns:xlink="http://www.w3.org/1999/xlink">
<g id="graph0" class="graph" transform="scale(1 1) rotate(0) translate(4 100)">
<title>objl::math::DotV3</title>
<!-- Node1 -->
<g id="node1" class="node">
<title>Node1</title>
<g id="a_node1"><a xlink:title=" ">
<polygon fill="#bfbfbf" stroke="black" points="368,-38.5 368,-57.5 470,-57.5 470,-38.5 368,-38.5"/>
<text text-anchor="middle" x="419" y="-45.5" font-family="Helvetica,sans-Serif" font-size="10.00">objl::math::DotV3</text>
</a>
</g>
</g>
<!-- Node2 -->
<g id="node2" class="node">
<title>Node2</title>
<g id="a_node2"><a xlink:href="namespaceobjl_1_1math.html#a2e4951a1ceabb660f63a3b6cc57a051e" target="_top" xlink:title=" ">
<polygon fill="none" stroke="black" points="177,-76.5 177,-95.5 332,-95.5 332,-76.5 177,-76.5"/>
<text text-anchor="middle" x="254.5" y="-83.5" font-family="Helvetica,sans-Serif" font-size="10.00">objl::math::AngleBetweenV3</text>
</a>
</g>
</g>
<!-- Node1&#45;&gt;Node2 -->
<g id="edge1" class="edge">
<title>Node1&#45;&gt;Node2</title>
<path fill="none" stroke="midnightblue" d="M367.13,-59.9C344.29,-65.24 317.7,-71.45 296.21,-76.48"/>
<polygon fill="midnightblue" stroke="midnightblue" points="368.05,-63.27 376.99,-57.59 366.46,-56.46 368.05,-63.27"/>
</g>
<!-- Node3 -->
<g id="node3" class="node">
<title>Node3</title>
<g id="a_node3"><a xlink:href="namespaceobjl_1_1math.html#a283244141f1774662fcd900b37fb6741" target="_top" xlink:title=" ">
<polygon fill="none" stroke="black" points="202.5,-38.5 202.5,-57.5 306.5,-57.5 306.5,-38.5 202.5,-38.5"/>
<text text-anchor="middle" x="254.5" y="-45.5" font-family="Helvetica,sans-Serif" font-size="10.00">objl::math::ProjV3</text>
</a>
</g>
</g>
<!-- Node1&#45;&gt;Node3 -->
<g id="edge2" class="edge">
<title>Node1&#45;&gt;Node3</title>
<path fill="none" stroke="midnightblue" d="M357.65,-48C340.84,-48 322.75,-48 306.54,-48"/>
<polygon fill="midnightblue" stroke="midnightblue" points="357.92,-51.5 367.92,-48 357.92,-44.5 357.92,-51.5"/>
</g>
<!-- Node5 -->
<g id="node5" class="node">
<title>Node5</title>
<g id="a_node5"><a xlink:href="namespaceobjl_1_1algorithm.html#ac9022b3dcb35d393a870711f8c685c96" target="_top" xlink:title=" ">
<polygon fill="none" stroke="black" points="183,-0.5 183,-19.5 326,-19.5 326,-0.5 183,-0.5"/>
<text text-anchor="middle" x="254.5" y="-7.5" font-family="Helvetica,sans-Serif" font-size="10.00">objl::algorithm::SameSide</text>
</a>
</g>
</g>
<!-- Node1&#45;&gt;Node5 -->
<g id="edge4" class="edge">
<title>Node1&#45;&gt;Node5</title>
<path fill="none" stroke="midnightblue" d="M367.13,-36.1C344.29,-30.76 317.7,-24.55 296.21,-19.52"/>
<polygon fill="midnightblue" stroke="midnightblue" points="366.46,-39.54 376.99,-38.41 368.05,-32.73 366.46,-39.54"/>
</g>
<!-- Node4 -->
<g id="node4" class="node">
<title>Node4</title>
<g id="a_node4"><a xlink:href="namespaceobjl_1_1algorithm.html#aae4725c9c9dcd572cec150c1f2d23510" target="_top" xlink:title=" ">
<polygon fill="none" stroke="black" points="0,-19.5 0,-38.5 141,-38.5 141,-19.5 0,-19.5"/>
<text text-anchor="middle" x="70.5" y="-26.5" font-family="Helvetica,sans-Serif" font-size="10.00">objl::algorithm::inTriangle</text>
</a>
</g>
</g>
<!-- Node3&#45;&gt;Node4 -->
<g id="edge3" class="edge">
<title>Node3&#45;&gt;Node4</title>
<path fill="none" stroke="midnightblue" d="M192.33,-41.61C175.95,-39.9 158.12,-38.04 141.31,-36.29"/>
<polygon fill="midnightblue" stroke="midnightblue" points="192.01,-45.1 202.32,-42.66 192.74,-38.14 192.01,-45.1"/>
</g>
<!-- Node5&#45;&gt;Node4 -->
<g id="edge5" class="edge">
<title>Node5&#45;&gt;Node4</title>
<path fill="none" stroke="midnightblue" d="M172.83,-18.42C162.28,-19.52 151.54,-20.64 141.19,-21.72"/>
<polygon fill="midnightblue" stroke="midnightblue" points="173.29,-21.89 182.87,-17.37 172.56,-14.93 173.29,-21.89"/>
</g>
</g>
</svg>
