<?xml version="1.0" encoding="UTF-8" standalone="no"?>
<!DOCTYPE svg PUBLIC "-//W3C//DTD SVG 1.1//EN"
 "http://www.w3.org/Graphics/SVG/1.1/DTD/svg11.dtd">
<!-- Generated by graphviz version 8.1.0 (20230707.0739)
 -->
<!-- Title: Math::Square Pages: 1 -->
<svg width="791pt" height="263pt"
 viewBox="0.00 0.00 791.00 263.00" xmlns="http://www.w3.org/2000/svg" xmlns:xlink="http://www.w3.org/1999/xlink">
<g id="graph0" class="graph" transform="scale(1 1) rotate(0) translate(4 259)">
<title>Math::Square</title>
<!-- Node1 -->
<g id="node1" class="node">
<title>Node1</title>
<g id="a_node1"><a xlink:title=" ">
<polygon fill="#bfbfbf" stroke="black" points="708.5,-136.5 708.5,-156.5 783,-156.5 783,-136.5 708.5,-136.5"/>
<text text-anchor="middle" x="745.75" y="-143" font-family="Helvetica,sans-Serif" font-size="10.00">Math::Square</text>
</a>
</g>
</g>
<!-- Node2 -->
<g id="node2" class="node">
<title>Node2</title>
<g id="a_node2"><a xlink:href="class_vector2.html#ae728fc9927ffd181f8f2e765762b9d97" target="_top" xlink:title=" ">
<polygon fill="none" stroke="black" points="549.25,-234.5 549.25,-254.5 643.25,-254.5 643.25,-234.5 549.25,-234.5"/>
<text text-anchor="middle" x="596.25" y="-241" font-family="Helvetica,sans-Serif" font-size="10.00">Vector2::Distance</text>
</a>
</g>
</g>
<!-- Node1&#45;&gt;Node2 -->
<g id="edge1" class="edge">
<title>Node1&#45;&gt;Node2</title>
<path fill="none" stroke="midnightblue" d="M732.33,-165.53C719.49,-183.66 697.81,-210.38 672.5,-225.5 663.59,-230.82 653.24,-234.66 643.11,-237.43"/>
<polygon fill="midnightblue" stroke="midnightblue" points="735.77,-167.7 738.51,-157.47 729.99,-163.75 735.77,-167.7"/>
</g>
<!-- Node3 -->
<g id="node3" class="node">
<title>Node3</title>
<g id="a_node3"><a xlink:href="class_vector3.html#abbf57942b18609d1c4fc4985d9bfea53" target="_top" xlink:title=" ">
<polygon fill="none" stroke="black" points="549.25,-195.5 549.25,-215.5 643.25,-215.5 643.25,-195.5 549.25,-195.5"/>
<text text-anchor="middle" x="596.25" y="-202" font-family="Helvetica,sans-Serif" font-size="10.00">Vector3::Distance</text>
</a>
</g>
</g>
<!-- Node1&#45;&gt;Node3 -->
<g id="edge2" class="edge">
<title>Node1&#45;&gt;Node3</title>
<path fill="none" stroke="midnightblue" d="M720.36,-162.08C706.71,-170.26 689.13,-179.93 672.5,-186.5 663.23,-190.17 653.03,-193.3 643.21,-195.9"/>
<polygon fill="midnightblue" stroke="midnightblue" points="721.84,-164.66 728.54,-156.45 718.18,-158.7 721.84,-164.66"/>
</g>
<!-- Node4 -->
<g id="node4" class="node">
<title>Node4</title>
<g id="a_node4"><a xlink:href="class_vector2.html#a2851ebb3a8f3da6baa86efb5962a66ca" target="_top" xlink:title=" ">
<polygon fill="none" stroke="black" points="531.25,-156.5 531.25,-176.5 661.25,-176.5 661.25,-156.5 531.25,-156.5"/>
<text text-anchor="middle" x="596.25" y="-163" font-family="Helvetica,sans-Serif" font-size="10.00">Vector2::DistanceSquared</text>
</a>
</g>
</g>
<!-- Node1&#45;&gt;Node4 -->
<g id="edge3" class="edge">
<title>Node1&#45;&gt;Node4</title>
<path fill="none" stroke="midnightblue" d="M697.85,-152.86C686.18,-154.44 673.48,-156.16 661.15,-157.84"/>
<polygon fill="midnightblue" stroke="midnightblue" points="698.23,-156.2 707.67,-151.39 697.29,-149.27 698.23,-156.2"/>
</g>
<!-- Node5 -->
<g id="node5" class="node">
<title>Node5</title>
<g id="a_node5"><a xlink:href="class_vector3.html#a52582e4d0cfe0d3e8a84336b2a0a3c05" target="_top" xlink:title=" ">
<polygon fill="none" stroke="black" points="531.25,-117.5 531.25,-137.5 661.25,-137.5 661.25,-117.5 531.25,-117.5"/>
<text text-anchor="middle" x="596.25" y="-124" font-family="Helvetica,sans-Serif" font-size="10.00">Vector3::DistanceSquared</text>
</a>
</g>
</g>
<!-- Node1&#45;&gt;Node5 -->
<g id="edge4" class="edge">
<title>Node1&#45;&gt;Node5</title>
<path fill="none" stroke="midnightblue" d="M697.85,-140.46C686.18,-138.96 673.48,-137.32 661.15,-135.73"/>
<polygon fill="midnightblue" stroke="midnightblue" points="697.3,-144.05 707.67,-141.85 698.2,-137.1 697.3,-144.05"/>
</g>
<!-- Node6 -->
<g id="node6" class="node">
<title>Node6</title>
<g id="a_node6"><a xlink:href="class_vector2.html#a3485163d5c4a6e20a44fb49c1ebe37a8" target="_top" xlink:title=" ">
<polygon fill="none" stroke="black" points="520,-78.5 520,-98.5 672.5,-98.5 672.5,-78.5 520,-78.5"/>
<text text-anchor="middle" x="596.25" y="-85" font-family="Helvetica,sans-Serif" font-size="10.00">Vector2::GetMagnitudeSquared</text>
</a>
</g>
</g>
<!-- Node1&#45;&gt;Node6 -->
<g id="edge5" class="edge">
<title>Node1&#45;&gt;Node6</title>
<path fill="none" stroke="midnightblue" d="M719.43,-131.39C705.86,-123.76 688.65,-114.8 672.5,-108.5 662.55,-104.62 651.58,-101.23 641.16,-98.4"/>
<polygon fill="midnightblue" stroke="midnightblue" points="717.19,-134.71 727.6,-136.66 720.67,-128.64 717.19,-134.71"/>
</g>
<!-- Node10 -->
<g id="node10" class="node">
<title>Node10</title>
<g id="a_node10"><a xlink:href="class_vector3.html#a40b58e9af6b19f4fd02e75a7e036c497" target="_top" xlink:title=" ">
<polygon fill="none" stroke="black" points="520,-39.5 520,-59.5 672.5,-59.5 672.5,-39.5 520,-39.5"/>
<text text-anchor="middle" x="596.25" y="-46" font-family="Helvetica,sans-Serif" font-size="10.00">Vector3::GetMagnitudeSquared</text>
</a>
</g>
</g>
<!-- Node1&#45;&gt;Node10 -->
<g id="edge9" class="edge">
<title>Node1&#45;&gt;Node10</title>
<path fill="none" stroke="midnightblue" d="M731.97,-127.74C719,-110.13 697.33,-84.33 672.5,-69.5 665.54,-65.34 657.7,-62.03 649.79,-59.4"/>
<polygon fill="midnightblue" stroke="midnightblue" points="729.6,-129.45 738.25,-135.57 735.3,-125.39 729.6,-129.45"/>
</g>
<!-- Node7 -->
<g id="node7" class="node">
<title>Node7</title>
<g id="a_node7"><a xlink:href="class_vector2.html#a3fa4c5b256684cc1b1a599e813195421" target="_top" xlink:title=" ">
<polygon fill="none" stroke="black" points="367.5,-78.5 367.5,-98.5 484,-98.5 484,-78.5 367.5,-78.5"/>
<text text-anchor="middle" x="425.75" y="-85" font-family="Helvetica,sans-Serif" font-size="10.00">Vector2::GetMagnitude</text>
</a>
</g>
</g>
<!-- Node6&#45;&gt;Node7 -->
<g id="edge6" class="edge">
<title>Node6&#45;&gt;Node7</title>
<path fill="none" stroke="midnightblue" d="M509.44,-88.5C500.8,-88.5 492.19,-88.5 483.96,-88.5"/>
<polygon fill="midnightblue" stroke="midnightblue" points="509.36,-92 519.36,-88.5 509.36,-85 509.36,-92"/>
</g>
<!-- Node8 -->
<g id="node8" class="node">
<title>Node8</title>
<g id="a_node8"><a xlink:href="class_vector2.html#a09d30ae647f4a35a5abd61f14e002126" target="_top" xlink:title=" ">
<polygon fill="none" stroke="black" points="211.25,-78.5 211.25,-98.5 331.5,-98.5 331.5,-78.5 211.25,-78.5"/>
<text text-anchor="middle" x="271.38" y="-85" font-family="Helvetica,sans-Serif" font-size="10.00">Vector2::GetNormalized</text>
</a>
</g>
</g>
<!-- Node7&#45;&gt;Node8 -->
<g id="edge7" class="edge">
<title>Node7&#45;&gt;Node8</title>
<path fill="none" stroke="midnightblue" d="M356.62,-88.5C348.21,-88.5 339.66,-88.5 331.39,-88.5"/>
<polygon fill="midnightblue" stroke="midnightblue" points="356.58,-92 366.58,-88.5 356.58,-85 356.58,-92"/>
</g>
<!-- Node9 -->
<g id="node9" class="node">
<title>Node9</title>
<g id="a_node9"><a xlink:href="class_vector2.html#a1819f7de2632070f87e07f5714d0aa4d" target="_top" xlink:title=" ">
<polygon fill="none" stroke="black" points="76,-78.5 76,-98.5 175.25,-98.5 175.25,-78.5 76,-78.5"/>
<text text-anchor="middle" x="125.62" y="-85" font-family="Helvetica,sans-Serif" font-size="10.00">Vector2::Normalize</text>
</a>
</g>
</g>
<!-- Node8&#45;&gt;Node9 -->
<g id="edge8" class="edge">
<title>Node8&#45;&gt;Node9</title>
<path fill="none" stroke="midnightblue" d="M200.62,-88.5C191.99,-88.5 183.33,-88.5 175.11,-88.5"/>
<polygon fill="midnightblue" stroke="midnightblue" points="200.49,-92 210.49,-88.5 200.49,-85 200.49,-92"/>
</g>
<!-- Node11 -->
<g id="node11" class="node">
<title>Node11</title>
<g id="a_node11"><a xlink:href="class_vector3.html#ac297afb6e74370b4327d779328412b18" target="_top" xlink:title=" ">
<polygon fill="none" stroke="black" points="367.5,-39.5 367.5,-59.5 484,-59.5 484,-39.5 367.5,-39.5"/>
<text text-anchor="middle" x="425.75" y="-46" font-family="Helvetica,sans-Serif" font-size="10.00">Vector3::GetMagnitude</text>
</a>
</g>
</g>
<!-- Node10&#45;&gt;Node11 -->
<g id="edge10" class="edge">
<title>Node10&#45;&gt;Node11</title>
<path fill="none" stroke="midnightblue" d="M509.44,-49.5C500.8,-49.5 492.19,-49.5 483.96,-49.5"/>
<polygon fill="midnightblue" stroke="midnightblue" points="509.36,-53 519.36,-49.5 509.36,-46 509.36,-53"/>
</g>
<!-- Node12 -->
<g id="node12" class="node">
<title>Node12</title>
<g id="a_node12"><a xlink:href="class_vector3.html#a1453d64a7a4333b19d6a92b8e61e617e" target="_top" xlink:title=" ">
<polygon fill="none" stroke="black" points="211.25,-39.5 211.25,-59.5 331.5,-59.5 331.5,-39.5 211.25,-39.5"/>
<text text-anchor="middle" x="271.38" y="-46" font-family="Helvetica,sans-Serif" font-size="10.00">Vector3::GetNormalized</text>
</a>
</g>
</g>
<!-- Node11&#45;&gt;Node12 -->
<g id="edge11" class="edge">
<title>Node11&#45;&gt;Node12</title>
<path fill="none" stroke="midnightblue" d="M356.62,-49.5C348.21,-49.5 339.66,-49.5 331.39,-49.5"/>
<polygon fill="midnightblue" stroke="midnightblue" points="356.58,-53 366.58,-49.5 356.58,-46 356.58,-53"/>
</g>
<!-- Node13 -->
<g id="node13" class="node">
<title>Node13</title>
<g id="a_node13"><a xlink:href="class_vector3.html#a60a66eb12fb598ec0f2ada72819395b2" target="_top" xlink:title=" ">
<polygon fill="none" stroke="black" points="76,-39.5 76,-59.5 175.25,-59.5 175.25,-39.5 76,-39.5"/>
<text text-anchor="middle" x="125.62" y="-46" font-family="Helvetica,sans-Serif" font-size="10.00">Vector3::Normalize</text>
</a>
</g>
</g>
<!-- Node12&#45;&gt;Node13 -->
<g id="edge12" class="edge">
<title>Node12&#45;&gt;Node13</title>
<path fill="none" stroke="midnightblue" d="M200.62,-49.5C191.99,-49.5 183.33,-49.5 175.11,-49.5"/>
<polygon fill="midnightblue" stroke="midnightblue" points="200.49,-53 210.49,-49.5 200.49,-46 200.49,-53"/>
</g>
<!-- Node15 -->
<g id="node15" class="node">
<title>Node15</title>
<g id="a_node15"><a xlink:href="_vector3_8cpp.html#acd001b833aaf532c808c6051f045d3c2" target="_top" xlink:title=" ">
<polygon fill="none" stroke="black" points="105.62,-0.5 105.62,-20.5 145.62,-20.5 145.62,-0.5 105.62,-0.5"/>
<text text-anchor="middle" x="125.62" y="-7" font-family="Helvetica,sans-Serif" font-size="10.00">TEST</text>
</a>
</g>
</g>
<!-- Node12&#45;&gt;Node15 -->
<g id="edge14" class="edge">
<title>Node12&#45;&gt;Node15</title>
<path fill="none" stroke="midnightblue" d="M223.14,-36.68C196.71,-29.52 165.24,-20.98 145.59,-15.64"/>
<polygon fill="midnightblue" stroke="midnightblue" points="222.16,-40.32 232.73,-39.56 223.99,-33.56 222.16,-40.32"/>
</g>
<!-- Node14 -->
<g id="node14" class="node">
<title>Node14</title>
<g id="a_node14"><a xlink:href="_vector3_8cpp.html#ab5848f313403912f60a11f987ed720c7" target="_top" xlink:title=" ">
<polygon fill="none" stroke="black" points="0,-39.5 0,-59.5 40,-59.5 40,-39.5 0,-39.5"/>
<text text-anchor="middle" x="20" y="-46" font-family="Helvetica,sans-Serif" font-size="10.00">TEST</text>
</a>
</g>
</g>
<!-- Node13&#45;&gt;Node14 -->
<g id="edge13" class="edge">
<title>Node13&#45;&gt;Node14</title>
<path fill="none" stroke="midnightblue" d="M65.31,-49.5C56.14,-49.5 47.29,-49.5 39.95,-49.5"/>
<polygon fill="midnightblue" stroke="midnightblue" points="65.15,-53 75.15,-49.5 65.15,-46 65.15,-53"/>
</g>
</g>
</svg>
