<?xml version="1.0" encoding="UTF-8" standalone="no"?>
<!DOCTYPE svg PUBLIC "-//W3C//DTD SVG 1.1//EN"
 "http://www.w3.org/Graphics/SVG/1.1/DTD/svg11.dtd">
<!-- Generated by graphviz version 2.43.0 (0)
 -->
<!-- Title: objl::math::AngleBetweenV3 Pages: 1 -->
<svg width="336pt" height="66pt"
 viewBox="0.00 0.00 336.00 66.00" xmlns="http://www.w3.org/2000/svg" xmlns:xlink="http://www.w3.org/1999/xlink">
<g id="graph0" class="graph" transform="scale(1 1) rotate(0) translate(4 62)">
<title>objl::math::AngleBetweenV3</title>
<!-- Node1 -->
<g id="node1" class="node">
<title>Node1</title>
<g id="a_node1"><a xlink:title=" ">
<polygon fill="#bfbfbf" stroke="black" points="0,-19.5 0,-38.5 155,-38.5 155,-19.5 0,-19.5"/>
<text text-anchor="middle" x="77.5" y="-26.5" font-family="Helvetica,sans-Serif" font-size="10.00">objl::math::AngleBetweenV3</text>
</a>
</g>
</g>
<!-- Node2 -->
<g id="node2" class="node">
<title>Node2</title>
<g id="a_node2"><a xlink:href="namespaceobjl_1_1math.html#a822b1ebd1dc13a06c95a813ff45fd2e7" target="_top" xlink:title=" ">
<polygon fill="none" stroke="black" points="208.5,-38.5 208.5,-57.5 310.5,-57.5 310.5,-38.5 208.5,-38.5"/>
<text text-anchor="middle" x="259.5" y="-45.5" font-family="Helvetica,sans-Serif" font-size="10.00">objl::math::DotV3</text>
</a>
</g>
</g>
<!-- Node1&#45;&gt;Node2 -->
<g id="edge1" class="edge">
<title>Node1&#45;&gt;Node2</title>
<path fill="none" stroke="midnightblue" d="M155.1,-37.09C169.43,-38.6 184.23,-40.16 198,-41.61"/>
<polygon fill="midnightblue" stroke="midnightblue" points="197.98,-45.13 208.29,-42.7 198.72,-38.17 197.98,-45.13"/>
</g>
<!-- Node3 -->
<g id="node3" class="node">
<title>Node3</title>
<g id="a_node3"><a xlink:href="namespaceobjl_1_1math.html#aafce95377aefa7ef8f6c732bef547333" target="_top" xlink:title=" ">
<polygon fill="none" stroke="black" points="191,-0.5 191,-19.5 328,-19.5 328,-0.5 191,-0.5"/>
<text text-anchor="middle" x="259.5" y="-7.5" font-family="Helvetica,sans-Serif" font-size="10.00">objl::math::MagnitudeV3</text>
</a>
</g>
</g>
<!-- Node1&#45;&gt;Node3 -->
<g id="edge2" class="edge">
<title>Node1&#45;&gt;Node3</title>
<path fill="none" stroke="midnightblue" d="M155.1,-20.91C163.53,-20.02 172.13,-19.12 180.58,-18.22"/>
<polygon fill="midnightblue" stroke="midnightblue" points="181.22,-21.68 190.8,-17.15 180.48,-14.72 181.22,-21.68"/>
</g>
</g>
</svg>
