<?xml version="1.0" encoding="UTF-8" standalone="no"?>
<!DOCTYPE svg PUBLIC "-//W3C//DTD SVG 1.1//EN"
 "http://www.w3.org/Graphics/SVG/1.1/DTD/svg11.dtd">
<!-- Generated by graphviz version 8.1.0 (20230707.0739)
 -->
<!-- Title: Math::WrapAngle Pages: 1 -->
<svg width="261pt" height="119pt"
 viewBox="0.00 0.00 260.50 119.00" xmlns="http://www.w3.org/2000/svg" xmlns:xlink="http://www.w3.org/1999/xlink">
<g id="graph0" class="graph" transform="scale(1 1) rotate(0) translate(4 115)">
<title>Math::WrapAngle</title>
<!-- Node1 -->
<g id="node1" class="node">
<title>Node1</title>
<g id="a_node1"><a xlink:title=" ">
<polygon fill="#bfbfbf" stroke="black" points="160.75,-51.5 160.75,-71.5 252.5,-71.5 252.5,-51.5 160.75,-51.5"/>
<text text-anchor="middle" x="206.62" y="-58" font-family="Helvetica,sans-Serif" font-size="10.00">Math::WrapAngle</text>
</a>
</g>
</g>
<!-- Node2 -->
<g id="node2" class="node">
<title>Node2</title>
<g id="a_node2"><a xlink:href="class_cube_skin_scene.html#a291519be4aae4268c5b6cdb4b9fc864a" target="_top" xlink:title=" ">
<polygon fill="none" stroke="black" points="1.12,-90.5 1.12,-110.5 123.62,-110.5 123.62,-90.5 1.12,-90.5"/>
<text text-anchor="middle" x="62.38" y="-97" font-family="Helvetica,sans-Serif" font-size="10.00">CubeSkinScene::Update</text>
</a>
</g>
</g>
<!-- Node1&#45;&gt;Node2 -->
<g id="edge1" class="edge">
<title>Node1&#45;&gt;Node2</title>
<path fill="none" stroke="midnightblue" d="M158.96,-74.29C139.66,-79.59 117.62,-85.63 99.57,-90.58"/>
<polygon fill="midnightblue" stroke="midnightblue" points="159.64,-77.46 168.36,-71.44 157.79,-70.71 159.64,-77.46"/>
</g>
<!-- Node3 -->
<g id="node3" class="node">
<title>Node3</title>
<g id="a_node3"><a xlink:href="class_cube_solid_scene.html#a2c58f00b9630b056326c6d753e535fdf" target="_top" xlink:title=" ">
<polygon fill="none" stroke="black" points="0,-51.5 0,-71.5 124.75,-71.5 124.75,-51.5 0,-51.5"/>
<text text-anchor="middle" x="62.38" y="-58" font-family="Helvetica,sans-Serif" font-size="10.00">CubeSolidScene::Update</text>
</a>
</g>
</g>
<!-- Node1&#45;&gt;Node3 -->
<g id="edge2" class="edge">
<title>Node1&#45;&gt;Node3</title>
<path fill="none" stroke="midnightblue" d="M150.17,-61.5C141.76,-61.5 133.04,-61.5 124.52,-61.5"/>
<polygon fill="midnightblue" stroke="midnightblue" points="150.01,-65 160.01,-61.5 150.01,-58 150.01,-65"/>
</g>
<!-- Node4 -->
<g id="node4" class="node">
<title>Node4</title>
<g id="a_node4"><a xlink:href="class_cube_vertex_color_scene.html#aa27efa84023993c57c5b32497dc6aca3" target="_top" xlink:title=" ">
<polygon fill="none" stroke="black" points="3.75,-0.5 3.75,-32.5 121,-32.5 121,-0.5 3.75,-0.5"/>
<text text-anchor="start" x="11.75" y="-19" font-family="Helvetica,sans-Serif" font-size="10.00">CubeVertexColorScene</text>
<text text-anchor="middle" x="62.38" y="-7" font-family="Helvetica,sans-Serif" font-size="10.00">::Update</text>
</a>
</g>
</g>
<!-- Node1&#45;&gt;Node4 -->
<g id="edge3" class="edge">
<title>Node1&#45;&gt;Node4</title>
<path fill="none" stroke="midnightblue" d="M163.65,-48.22C148.04,-43.28 130.15,-37.62 113.85,-32.47"/>
<polygon fill="midnightblue" stroke="midnightblue" points="162.47,-51.83 173.06,-51.51 164.58,-45.16 162.47,-51.83"/>
</g>
</g>
</svg>
