<?xml version="1.0" encoding="UTF-8" standalone="no"?>
<!DOCTYPE svg PUBLIC "-//W3C//DTD SVG 1.1//EN"
 "http://www.w3.org/Graphics/SVG/1.1/DTD/svg11.dtd">
<!-- Generated by graphviz version 2.43.0 (0)
 -->
<!-- Title: Math::WrapAngle Pages: 1 -->
<svg width="312pt" height="391pt"
 viewBox="0.00 0.00 312.00 390.50" xmlns="http://www.w3.org/2000/svg" xmlns:xlink="http://www.w3.org/1999/xlink">
<g id="graph0" class="graph" transform="scale(1 1) rotate(0) translate(4 386.5)">
<title>Math::WrapAngle</title>
<!-- Node1 -->
<g id="node1" class="node">
<title>Node1</title>
<g id="a_node1"><a xlink:title=" ">
<polygon fill="#bfbfbf" stroke="black" points="203,-181.5 203,-200.5 304,-200.5 304,-181.5 203,-181.5"/>
<text text-anchor="middle" x="253.5" y="-188.5" font-family="Helvetica,sans-Serif" font-size="10.00">Math::WrapAngle</text>
</a>
</g>
</g>
<!-- Node2 -->
<g id="node2" class="node">
<title>Node2</title>
<g id="a_node2"><a xlink:href="classCubeFlatIndependentScene.html#a77daa7f03c9f6225df5e7cba6feee611" target="_top" xlink:title=" ">
<polygon fill="none" stroke="black" points="8.5,-352 8.5,-382 158.5,-382 158.5,-352 8.5,-352"/>
<text text-anchor="start" x="16.5" y="-370" font-family="Helvetica,sans-Serif" font-size="10.00">CubeFlatIndependentScene</text>
<text text-anchor="middle" x="83.5" y="-359" font-family="Helvetica,sans-Serif" font-size="10.00">::Update</text>
</a>
</g>
</g>
<!-- Node1&#45;&gt;Node2 -->
<g id="edge1" class="edge">
<title>Node1&#45;&gt;Node2</title>
<path fill="none" stroke="midnightblue" d="M246.78,-210.39C236.3,-242.54 210.96,-306.82 167,-342 162.21,-345.83 156.84,-349.08 151.19,-351.83"/>
<polygon fill="midnightblue" stroke="midnightblue" points="250.13,-211.39 249.77,-200.81 243.45,-209.31 250.13,-211.39"/>
</g>
<!-- Node3 -->
<g id="node3" class="node">
<title>Node3</title>
<g id="a_node3"><a xlink:href="classCubeSkinScene.html#a291519be4aae4268c5b6cdb4b9fc864a" target="_top" xlink:title=" ">
<polygon fill="none" stroke="black" points="17,-313.5 17,-332.5 150,-332.5 150,-313.5 17,-313.5"/>
<text text-anchor="middle" x="83.5" y="-320.5" font-family="Helvetica,sans-Serif" font-size="10.00">CubeSkinScene::Update</text>
</a>
</g>
</g>
<!-- Node1&#45;&gt;Node3 -->
<g id="edge2" class="edge">
<title>Node1&#45;&gt;Node3</title>
<path fill="none" stroke="midnightblue" d="M243.64,-209.69C230.57,-235.15 203.64,-280.27 167,-304 161.08,-307.84 154.48,-310.9 147.66,-313.35"/>
<polygon fill="midnightblue" stroke="midnightblue" points="246.8,-211.2 248.1,-200.68 240.53,-208.09 246.8,-211.2"/>
</g>
<!-- Node4 -->
<g id="node4" class="node">
<title>Node4</title>
<g id="a_node4"><a xlink:href="classCubeSolidGeometryScene.html#a4501743d912f6818f264525e806f4f8b" target="_top" xlink:title=" ">
<polygon fill="none" stroke="black" points="12,-264 12,-294 155,-294 155,-264 12,-264"/>
<text text-anchor="start" x="20" y="-282" font-family="Helvetica,sans-Serif" font-size="10.00">CubeSolidGeometryScene</text>
<text text-anchor="middle" x="83.5" y="-271" font-family="Helvetica,sans-Serif" font-size="10.00">::Update</text>
</a>
</g>
</g>
<!-- Node1&#45;&gt;Node4 -->
<g id="edge3" class="edge">
<title>Node1&#45;&gt;Node4</title>
<path fill="none" stroke="midnightblue" d="M234.18,-207.41C217.64,-221.47 192.13,-241.41 167,-254 159.51,-257.76 151.35,-261.06 143.16,-263.94"/>
<polygon fill="midnightblue" stroke="midnightblue" points="236.7,-209.85 241.96,-200.66 232.11,-204.57 236.7,-209.85"/>
</g>
<!-- Node5 -->
<g id="node5" class="node">
<title>Node5</title>
<g id="a_node5"><a xlink:href="classCubeSolidScene.html#a2c58f00b9630b056326c6d753e535fdf" target="_top" xlink:title=" ">
<polygon fill="none" stroke="black" points="15.5,-225.5 15.5,-244.5 151.5,-244.5 151.5,-225.5 15.5,-225.5"/>
<text text-anchor="middle" x="83.5" y="-232.5" font-family="Helvetica,sans-Serif" font-size="10.00">CubeSolidScene::Update</text>
</a>
</g>
</g>
<!-- Node1&#45;&gt;Node5 -->
<g id="edge4" class="edge">
<title>Node1&#45;&gt;Node5</title>
<path fill="none" stroke="midnightblue" d="M211.48,-203.52C197.42,-207.67 181.57,-212.2 167,-216 154.49,-219.27 140.83,-222.53 128.29,-225.41"/>
<polygon fill="midnightblue" stroke="midnightblue" points="212.77,-206.79 221.35,-200.58 210.77,-200.08 212.77,-206.79"/>
</g>
<!-- Node6 -->
<g id="node6" class="node">
<title>Node6</title>
<g id="a_node6"><a xlink:href="classCubeVertexColorScene.html#aa27efa84023993c57c5b32497dc6aca3" target="_top" xlink:title=" ">
<polygon fill="none" stroke="black" points="19.5,-176 19.5,-206 147.5,-206 147.5,-176 19.5,-176"/>
<text text-anchor="start" x="27.5" y="-194" font-family="Helvetica,sans-Serif" font-size="10.00">CubeVertexColorScene</text>
<text text-anchor="middle" x="83.5" y="-183" font-family="Helvetica,sans-Serif" font-size="10.00">::Update</text>
</a>
</g>
</g>
<!-- Node1&#45;&gt;Node6 -->
<g id="edge5" class="edge">
<title>Node1&#45;&gt;Node6</title>
<path fill="none" stroke="midnightblue" d="M192.23,-191C177.76,-191 162.28,-191 147.69,-191"/>
<polygon fill="midnightblue" stroke="midnightblue" points="192.55,-194.5 202.55,-191 192.55,-187.5 192.55,-194.5"/>
</g>
<!-- Node7 -->
<g id="node7" class="node">
<title>Node7</title>
<g id="a_node7"><a xlink:href="classCubeVertexPositionColorScene.html#a72ce3d23605de3262f97e8e935bd08e0" target="_top" xlink:title=" ">
<polygon fill="none" stroke="black" points="0,-127 0,-157 167,-157 167,-127 0,-127"/>
<text text-anchor="start" x="8" y="-145" font-family="Helvetica,sans-Serif" font-size="10.00">CubeVertexPositionColorScene</text>
<text text-anchor="middle" x="83.5" y="-134" font-family="Helvetica,sans-Serif" font-size="10.00">::Update</text>
</a>
</g>
</g>
<!-- Node1&#45;&gt;Node7 -->
<g id="edge6" class="edge">
<title>Node1&#45;&gt;Node7</title>
<path fill="none" stroke="midnightblue" d="M210.1,-178.63C187.61,-172.07 159.79,-163.96 136.06,-157.04"/>
<polygon fill="midnightblue" stroke="midnightblue" points="209.13,-182 219.71,-181.44 211.09,-175.28 209.13,-182"/>
</g>
<!-- Node8 -->
<g id="node8" class="node">
<title>Node8</title>
<g id="a_node8"><a xlink:href="classDoubleCubeScene.html#aa0b545717ab49ff4b4726d15bb8917bb" target="_top" xlink:title=" ">
<polygon fill="none" stroke="black" points="10.5,-88.5 10.5,-107.5 156.5,-107.5 156.5,-88.5 10.5,-88.5"/>
<text text-anchor="middle" x="83.5" y="-95.5" font-family="Helvetica,sans-Serif" font-size="10.00">DoubleCubeScene::Update</text>
</a>
</g>
</g>
<!-- Node1&#45;&gt;Node8 -->
<g id="edge7" class="edge">
<title>Node1&#45;&gt;Node8</title>
<path fill="none" stroke="midnightblue" d="M237.13,-173.85C221.2,-157.12 194.78,-132.19 167,-118 158.47,-113.64 148.95,-110.21 139.5,-107.51"/>
<polygon fill="midnightblue" stroke="midnightblue" points="234.7,-176.37 244.07,-181.32 239.83,-171.61 234.7,-176.37"/>
</g>
<!-- Node9 -->
<g id="node9" class="node">
<title>Node9</title>
<g id="a_node9"><a xlink:href="classGeometryFlatScene.html#a7d045533ea001772a2e575df47500a8f" target="_top" xlink:title=" ">
<polygon fill="none" stroke="black" points="24,-39 24,-69 143,-69 143,-39 24,-39"/>
<text text-anchor="start" x="32" y="-57" font-family="Helvetica,sans-Serif" font-size="10.00">GeometryFlatScene::</text>
<text text-anchor="middle" x="83.5" y="-46" font-family="Helvetica,sans-Serif" font-size="10.00">Update</text>
</a>
</g>
</g>
<!-- Node1&#45;&gt;Node9 -->
<g id="edge8" class="edge">
<title>Node1&#45;&gt;Node9</title>
<path fill="none" stroke="midnightblue" d="M242.98,-172.12C229.45,-147.17 202.33,-103.51 167,-79 159.87,-74.05 151.73,-70.06 143.42,-66.85"/>
<polygon fill="midnightblue" stroke="midnightblue" points="240.04,-174.04 247.79,-181.27 246.24,-170.79 240.04,-174.04"/>
</g>
<!-- Node10 -->
<g id="node10" class="node">
<title>Node10</title>
<g id="a_node10"><a xlink:href="classVertexWaveScene.html#af914c4150ebb8c531dd5f14c62854e7e" target="_top" xlink:title=" ">
<polygon fill="none" stroke="black" points="10.5,-0.5 10.5,-19.5 156.5,-19.5 156.5,-0.5 10.5,-0.5"/>
<text text-anchor="middle" x="83.5" y="-7.5" font-family="Helvetica,sans-Serif" font-size="10.00">VertexWaveScene::Update</text>
</a>
</g>
</g>
<!-- Node1&#45;&gt;Node10 -->
<g id="edge9" class="edge">
<title>Node1&#45;&gt;Node10</title>
<path fill="none" stroke="midnightblue" d="M247.78,-171.49C238.46,-137.32 214.37,-66.78 167,-30 161.41,-25.66 155.02,-22.25 148.32,-19.56"/>
<polygon fill="midnightblue" stroke="midnightblue" points="244.4,-172.42 250.3,-181.22 251.18,-170.66 244.4,-172.42"/>
</g>
</g>
</svg>
