<?xml version="1.0" encoding="UTF-8" standalone="no"?>
<!DOCTYPE svg PUBLIC "-//W3C//DTD SVG 1.1//EN"
 "http://www.w3.org/Graphics/SVG/1.1/DTD/svg11.dtd">
<!-- Generated by graphviz version 8.1.0 (20230707.0739)
 -->
<!-- Title: Math::WrapAngle Pages: 1 -->
<svg width="288pt" height="299pt"
 viewBox="0.00 0.00 288.25 299.00" xmlns="http://www.w3.org/2000/svg" xmlns:xlink="http://www.w3.org/1999/xlink">
<g id="graph0" class="graph" transform="scale(1 1) rotate(0) translate(4 295)">
<title>Math::WrapAngle</title>
<!-- Node1 -->
<g id="node1" class="node">
<title>Node1</title>
<g id="a_node1"><a xlink:title=" ">
<polygon fill="#bfbfbf" stroke="black" points="188.5,-135.5 188.5,-155.5 280.25,-155.5 280.25,-135.5 188.5,-135.5"/>
<text text-anchor="middle" x="234.38" y="-142" font-family="Helvetica,sans-Serif" font-size="10.00">Math::WrapAngle</text>
</a>
</g>
</g>
<!-- Node2 -->
<g id="node2" class="node">
<title>Node2</title>
<g id="a_node2"><a xlink:href="class_cube_skin_scene.html#a291519be4aae4268c5b6cdb4b9fc864a" target="_top" xlink:title=" ">
<polygon fill="none" stroke="black" points="15,-270.5 15,-290.5 137.5,-290.5 137.5,-270.5 15,-270.5"/>
<text text-anchor="middle" x="76.25" y="-277" font-family="Helvetica,sans-Serif" font-size="10.00">CubeSkinScene::Update</text>
</a>
</g>
</g>
<!-- Node1&#45;&gt;Node2 -->
<g id="edge1" class="edge">
<title>Node1&#45;&gt;Node2</title>
<path fill="none" stroke="midnightblue" d="M225.01,-165.26C212.91,-191.39 188.02,-236.95 152.5,-261.5 147.18,-265.18 141.21,-268.14 135.02,-270.53"/>
<polygon fill="midnightblue" stroke="midnightblue" points="228.54,-166.94 229.4,-156.38 222.14,-164.09 228.54,-166.94"/>
</g>
<!-- Node3 -->
<g id="node3" class="node">
<title>Node3</title>
<g id="a_node3"><a xlink:href="class_cube_solid_geometry_scene.html#a4501743d912f6818f264525e806f4f8b" target="_top" xlink:title=" ">
<polygon fill="none" stroke="black" points="10.88,-219.5 10.88,-251.5 141.62,-251.5 141.62,-219.5 10.88,-219.5"/>
<text text-anchor="start" x="18.88" y="-238" font-family="Helvetica,sans-Serif" font-size="10.00">CubeSolidGeometryScene</text>
<text text-anchor="middle" x="76.25" y="-226" font-family="Helvetica,sans-Serif" font-size="10.00">::Update</text>
</a>
</g>
</g>
<!-- Node1&#45;&gt;Node3 -->
<g id="edge2" class="edge">
<title>Node1&#45;&gt;Node3</title>
<path fill="none" stroke="midnightblue" d="M216.04,-162.52C200.51,-176.97 176.52,-197.41 152.5,-210.5 146.33,-213.86 139.64,-216.87 132.87,-219.54"/>
<polygon fill="midnightblue" stroke="midnightblue" points="217.92,-165.61 222.75,-156.18 213.09,-160.54 217.92,-165.61"/>
</g>
<!-- Node4 -->
<g id="node4" class="node">
<title>Node4</title>
<g id="a_node4"><a xlink:href="class_cube_solid_scene.html#a2c58f00b9630b056326c6d753e535fdf" target="_top" xlink:title=" ">
<polygon fill="none" stroke="black" points="13.88,-180.5 13.88,-200.5 138.62,-200.5 138.62,-180.5 13.88,-180.5"/>
<text text-anchor="middle" x="76.25" y="-187" font-family="Helvetica,sans-Serif" font-size="10.00">CubeSolidScene::Update</text>
</a>
</g>
</g>
<!-- Node1&#45;&gt;Node4 -->
<g id="edge3" class="edge">
<title>Node1&#45;&gt;Node4</title>
<path fill="none" stroke="midnightblue" d="M193.82,-158.77C180.72,-163.02 166.04,-167.62 152.5,-171.5 141.62,-174.62 129.78,-177.74 118.78,-180.52"/>
<polygon fill="midnightblue" stroke="midnightblue" points="194.52,-161.9 202.94,-155.46 192.34,-155.25 194.52,-161.9"/>
</g>
<!-- Node5 -->
<g id="node5" class="node">
<title>Node5</title>
<g id="a_node5"><a xlink:href="class_cube_vertex_color_scene.html#aa27efa84023993c57c5b32497dc6aca3" target="_top" xlink:title=" ">
<polygon fill="none" stroke="black" points="17.62,-129.5 17.62,-161.5 134.88,-161.5 134.88,-129.5 17.62,-129.5"/>
<text text-anchor="start" x="25.62" y="-148" font-family="Helvetica,sans-Serif" font-size="10.00">CubeVertexColorScene</text>
<text text-anchor="middle" x="76.25" y="-136" font-family="Helvetica,sans-Serif" font-size="10.00">::Update</text>
</a>
</g>
</g>
<!-- Node1&#45;&gt;Node5 -->
<g id="edge4" class="edge">
<title>Node1&#45;&gt;Node5</title>
<path fill="none" stroke="midnightblue" d="M177.73,-145.5C163.81,-145.5 148.85,-145.5 134.83,-145.5"/>
<polygon fill="midnightblue" stroke="midnightblue" points="177.64,-149 187.64,-145.5 177.64,-142 177.64,-149"/>
</g>
<!-- Node6 -->
<g id="node6" class="node">
<title>Node6</title>
<g id="a_node6"><a xlink:href="class_cube_vertex_position_color_scene.html#a72ce3d23605de3262f97e8e935bd08e0" target="_top" xlink:title=" ">
<polygon fill="none" stroke="black" points="0,-78.5 0,-110.5 152.5,-110.5 152.5,-78.5 0,-78.5"/>
<text text-anchor="start" x="8" y="-97" font-family="Helvetica,sans-Serif" font-size="10.00">CubeVertexPositionColorScene</text>
<text text-anchor="middle" x="76.25" y="-85" font-family="Helvetica,sans-Serif" font-size="10.00">::Update</text>
</a>
</g>
</g>
<!-- Node1&#45;&gt;Node6 -->
<g id="edge5" class="edge">
<title>Node1&#45;&gt;Node6</title>
<path fill="none" stroke="midnightblue" d="M192.69,-132.21C172.31,-125.55 147.48,-117.44 126.08,-110.45"/>
<polygon fill="midnightblue" stroke="midnightblue" points="191.31,-135.77 201.9,-135.55 193.48,-129.11 191.31,-135.77"/>
</g>
<!-- Node7 -->
<g id="node7" class="node">
<title>Node7</title>
<g id="a_node7"><a xlink:href="class_double_cube_scene.html#aa0b545717ab49ff4b4726d15bb8917bb" target="_top" xlink:title=" ">
<polygon fill="none" stroke="black" points="9.75,-39.5 9.75,-59.5 142.75,-59.5 142.75,-39.5 9.75,-39.5"/>
<text text-anchor="middle" x="76.25" y="-46" font-family="Helvetica,sans-Serif" font-size="10.00">DoubleCubeScene::Update</text>
</a>
</g>
</g>
<!-- Node1&#45;&gt;Node7 -->
<g id="edge6" class="edge">
<title>Node1&#45;&gt;Node7</title>
<path fill="none" stroke="midnightblue" d="M218.94,-127.52C204.07,-110.17 179.32,-84.4 152.5,-69.5 145.06,-65.36 136.72,-62.05 128.38,-59.41"/>
<polygon fill="midnightblue" stroke="midnightblue" points="216.69,-129.28 225.78,-134.73 222.07,-124.8 216.69,-129.28"/>
</g>
<!-- Node8 -->
<g id="node8" class="node">
<title>Node8</title>
<g id="a_node8"><a xlink:href="class_vertex_wave_scene.html#af914c4150ebb8c531dd5f14c62854e7e" target="_top" xlink:title=" ">
<polygon fill="none" stroke="black" points="9.75,-0.5 9.75,-20.5 142.75,-20.5 142.75,-0.5 9.75,-0.5"/>
<text text-anchor="middle" x="76.25" y="-7" font-family="Helvetica,sans-Serif" font-size="10.00">VertexWaveScene::Update</text>
</a>
</g>
</g>
<!-- Node1&#45;&gt;Node8 -->
<g id="edge7" class="edge">
<title>Node1&#45;&gt;Node8</title>
<path fill="none" stroke="midnightblue" d="M224.92,-125.97C212.72,-100.15 187.71,-55.05 152.5,-30.5 146.51,-26.33 139.7,-23.02 132.68,-20.41"/>
<polygon fill="midnightblue" stroke="midnightblue" points="222.03,-127.08 229.35,-134.74 228.4,-124.19 222.03,-127.08"/>
</g>
</g>
</svg>
