<?xml version="1.0" encoding="UTF-8" standalone="no"?>
<!DOCTYPE svg PUBLIC "-//W3C//DTD SVG 1.1//EN"
 "http://www.w3.org/Graphics/SVG/1.1/DTD/svg11.dtd">
<!-- Generated by graphviz version 8.1.0 (20230707.0739)
 -->
<!-- Title: Math::WrapAngle Pages: 1 -->
<svg width="288pt" height="248pt"
 viewBox="0.00 0.00 288.25 248.00" xmlns="http://www.w3.org/2000/svg" xmlns:xlink="http://www.w3.org/1999/xlink">
<g id="graph0" class="graph" transform="scale(1 1) rotate(0) translate(4 244)">
<title>Math::WrapAngle</title>
<!-- Node1 -->
<g id="node1" class="node">
<title>Node1</title>
<g id="a_node1"><a xlink:title=" ">
<polygon fill="#bfbfbf" stroke="black" points="188.5,-109.5 188.5,-129.5 280.25,-129.5 280.25,-109.5 188.5,-109.5"/>
<text text-anchor="middle" x="234.38" y="-116" font-family="Helvetica,sans-Serif" font-size="10.00">Math::WrapAngle</text>
</a>
</g>
</g>
<!-- Node2 -->
<g id="node2" class="node">
<title>Node2</title>
<g id="a_node2"><a xlink:href="class_cube_skin_scene.html#a291519be4aae4268c5b6cdb4b9fc864a" target="_top" xlink:title=" ">
<polygon fill="none" stroke="black" points="15,-219.5 15,-239.5 137.5,-239.5 137.5,-219.5 15,-219.5"/>
<text text-anchor="middle" x="76.25" y="-226" font-family="Helvetica,sans-Serif" font-size="10.00">CubeSkinScene::Update</text>
</a>
</g>
</g>
<!-- Node1&#45;&gt;Node2 -->
<g id="edge1" class="edge">
<title>Node1&#45;&gt;Node2</title>
<path fill="none" stroke="midnightblue" d="M221.5,-138.63C207.55,-159.49 182.46,-192.3 152.5,-210.5 146.4,-214.21 139.59,-217.19 132.65,-219.6"/>
<polygon fill="midnightblue" stroke="midnightblue" points="224.93,-140.77 227.43,-130.47 219.06,-136.97 224.93,-140.77"/>
</g>
<!-- Node3 -->
<g id="node3" class="node">
<title>Node3</title>
<g id="a_node3"><a xlink:href="class_cube_solid_scene.html#a2c58f00b9630b056326c6d753e535fdf" target="_top" xlink:title=" ">
<polygon fill="none" stroke="black" points="13.88,-180.5 13.88,-200.5 138.62,-200.5 138.62,-180.5 13.88,-180.5"/>
<text text-anchor="middle" x="76.25" y="-187" font-family="Helvetica,sans-Serif" font-size="10.00">CubeSolidScene::Update</text>
</a>
</g>
</g>
<!-- Node1&#45;&gt;Node3 -->
<g id="edge2" class="edge">
<title>Node1&#45;&gt;Node3</title>
<path fill="none" stroke="midnightblue" d="M212.52,-135.61C196.78,-147.07 174.26,-162.06 152.5,-171.5 144.22,-175.09 135.12,-178.11 126.19,-180.6"/>
<polygon fill="midnightblue" stroke="midnightblue" points="214.01,-138.12 219.94,-129.34 209.83,-132.51 214.01,-138.12"/>
</g>
<!-- Node4 -->
<g id="node4" class="node">
<title>Node4</title>
<g id="a_node4"><a xlink:href="class_cube_vertex_color_scene.html#aa27efa84023993c57c5b32497dc6aca3" target="_top" xlink:title=" ">
<polygon fill="none" stroke="black" points="17.62,-129.5 17.62,-161.5 134.88,-161.5 134.88,-129.5 17.62,-129.5"/>
<text text-anchor="start" x="25.62" y="-148" font-family="Helvetica,sans-Serif" font-size="10.00">CubeVertexColorScene</text>
<text text-anchor="middle" x="76.25" y="-136" font-family="Helvetica,sans-Serif" font-size="10.00">::Update</text>
</a>
</g>
</g>
<!-- Node1&#45;&gt;Node4 -->
<g id="edge3" class="edge">
<title>Node1&#45;&gt;Node4</title>
<path fill="none" stroke="midnightblue" d="M178.14,-128.7C164.11,-131.04 148.99,-133.55 134.83,-135.91"/>
<polygon fill="midnightblue" stroke="midnightblue" points="178.35,-132.05 187.64,-126.95 177.2,-125.14 178.35,-132.05"/>
</g>
<!-- Node5 -->
<g id="node5" class="node">
<title>Node5</title>
<g id="a_node5"><a xlink:href="class_cube_vertex_position_color_scene.html#a72ce3d23605de3262f97e8e935bd08e0" target="_top" xlink:title=" ">
<polygon fill="none" stroke="black" points="0,-78.5 0,-110.5 152.5,-110.5 152.5,-78.5 0,-78.5"/>
<text text-anchor="start" x="8" y="-97" font-family="Helvetica,sans-Serif" font-size="10.00">CubeVertexPositionColorScene</text>
<text text-anchor="middle" x="76.25" y="-85" font-family="Helvetica,sans-Serif" font-size="10.00">::Update</text>
</a>
</g>
</g>
<!-- Node1&#45;&gt;Node5 -->
<g id="edge4" class="edge">
<title>Node1&#45;&gt;Node5</title>
<path fill="none" stroke="midnightblue" d="M177.97,-110.63C169.67,-109.3 160.99,-107.91 152.36,-106.53"/>
<polygon fill="midnightblue" stroke="midnightblue" points="177.21,-114.21 187.64,-112.34 178.32,-107.3 177.21,-114.21"/>
</g>
<!-- Node6 -->
<g id="node6" class="node">
<title>Node6</title>
<g id="a_node6"><a xlink:href="class_double_cube_scene.html#aa0b545717ab49ff4b4726d15bb8917bb" target="_top" xlink:title=" ">
<polygon fill="none" stroke="black" points="9.75,-39.5 9.75,-59.5 142.75,-59.5 142.75,-39.5 9.75,-39.5"/>
<text text-anchor="middle" x="76.25" y="-46" font-family="Helvetica,sans-Serif" font-size="10.00">DoubleCubeScene::Update</text>
</a>
</g>
</g>
<!-- Node1&#45;&gt;Node6 -->
<g id="edge5" class="edge">
<title>Node1&#45;&gt;Node6</title>
<path fill="none" stroke="midnightblue" d="M211.1,-103.24C195.38,-92.4 173.47,-78.53 152.5,-69.5 143.31,-65.54 133.15,-62.2 123.34,-59.45"/>
<polygon fill="midnightblue" stroke="midnightblue" points="208.84,-106.63 219.03,-109.53 212.87,-100.91 208.84,-106.63"/>
</g>
<!-- Node7 -->
<g id="node7" class="node">
<title>Node7</title>
<g id="a_node7"><a xlink:href="class_vertex_wave_scene.html#af914c4150ebb8c531dd5f14c62854e7e" target="_top" xlink:title=" ">
<polygon fill="none" stroke="black" points="9.75,-0.5 9.75,-20.5 142.75,-20.5 142.75,-0.5 9.75,-0.5"/>
<text text-anchor="middle" x="76.25" y="-7" font-family="Helvetica,sans-Serif" font-size="10.00">VertexWaveScene::Update</text>
</a>
</g>
</g>
<!-- Node1&#45;&gt;Node7 -->
<g id="edge6" class="edge">
<title>Node1&#45;&gt;Node7</title>
<path fill="none" stroke="midnightblue" d="M221.36,-100.86C207.28,-80.53 182.08,-48.5 152.5,-30.5 145.69,-26.36 138.02,-23.06 130.25,-20.44"/>
<polygon fill="midnightblue" stroke="midnightblue" points="218.87,-102.43 227.35,-108.79 224.68,-98.53 218.87,-102.43"/>
</g>
</g>
</svg>
