<?xml version="1.0" encoding="UTF-8" standalone="no"?>
<!DOCTYPE svg PUBLIC "-//W3C//DTD SVG 1.1//EN"
 "http://www.w3.org/Graphics/SVG/1.1/DTD/svg11.dtd">
<!-- Generated by graphviz version 2.43.0 (0)
 -->
<!-- Title: Math::Square Pages: 1 -->
<svg width="934pt" height="459pt"
 viewBox="0.00 0.00 934.00 459.00" xmlns="http://www.w3.org/2000/svg" xmlns:xlink="http://www.w3.org/1999/xlink">
<g id="graph0" class="graph" transform="scale(1 1) rotate(0) translate(4 455)">
<title>Math::Square</title>
<!-- Node1 -->
<g id="node1" class="node">
<title>Node1</title>
<g id="a_node1"><a xlink:title=" ">
<polygon fill="#bfbfbf" stroke="black" points="845,-317.5 845,-336.5 926,-336.5 926,-317.5 845,-317.5"/>
<text text-anchor="middle" x="885.5" y="-324.5" font-family="Helvetica,sans-Serif" font-size="10.00">Math::Square</text>
</a>
</g>
</g>
<!-- Node2 -->
<g id="node2" class="node">
<title>Node2</title>
<g id="a_node2"><a xlink:href="classVector2.html#ae728fc9927ffd181f8f2e765762b9d97" target="_top" xlink:title=" ">
<polygon fill="none" stroke="black" points="674,-431.5 674,-450.5 776,-450.5 776,-431.5 674,-431.5"/>
<text text-anchor="middle" x="725" y="-438.5" font-family="Helvetica,sans-Serif" font-size="10.00">Vector2::Distance</text>
</a>
</g>
</g>
<!-- Node1&#45;&gt;Node2 -->
<g id="edge1" class="edge">
<title>Node1&#45;&gt;Node2</title>
<path fill="none" stroke="midnightblue" d="M874.92,-345.51C862.65,-367.29 839.3,-402.91 809,-422 799.24,-428.15 787.73,-432.31 776.43,-435.13"/>
<polygon fill="midnightblue" stroke="midnightblue" points="878.07,-347.04 879.76,-336.58 871.91,-343.7 878.07,-347.04"/>
</g>
<!-- Node3 -->
<g id="node3" class="node">
<title>Node3</title>
<g id="a_node3"><a xlink:href="classVector3.html#abbf57942b18609d1c4fc4985d9bfea53" target="_top" xlink:title=" ">
<polygon fill="none" stroke="black" points="674,-393.5 674,-412.5 776,-412.5 776,-393.5 674,-393.5"/>
<text text-anchor="middle" x="725" y="-400.5" font-family="Helvetica,sans-Serif" font-size="10.00">Vector3::Distance</text>
</a>
</g>
</g>
<!-- Node1&#45;&gt;Node3 -->
<g id="edge2" class="edge">
<title>Node1&#45;&gt;Node3</title>
<path fill="none" stroke="midnightblue" d="M867.03,-343.62C852.57,-356.5 830.9,-373.8 809,-384 798.82,-388.74 787.36,-392.34 776.29,-395.06"/>
<polygon fill="midnightblue" stroke="midnightblue" points="869.65,-345.98 874.67,-336.64 864.92,-340.81 869.65,-345.98"/>
</g>
<!-- Node4 -->
<g id="node4" class="node">
<title>Node4</title>
<g id="a_node4"><a xlink:href="classVector2.html#a2851ebb3a8f3da6baa86efb5962a66ca" target="_top" xlink:title=" ">
<polygon fill="none" stroke="black" points="654,-355.5 654,-374.5 796,-374.5 796,-355.5 654,-355.5"/>
<text text-anchor="middle" x="725" y="-362.5" font-family="Helvetica,sans-Serif" font-size="10.00">Vector2::DistanceSquared</text>
</a>
</g>
</g>
<!-- Node1&#45;&gt;Node4 -->
<g id="edge3" class="edge">
<title>Node1&#45;&gt;Node4</title>
<path fill="none" stroke="midnightblue" d="M837.32,-339.04C827.95,-341.38 818.17,-343.8 809,-346 795.92,-349.14 781.65,-352.45 768.69,-355.41"/>
<polygon fill="midnightblue" stroke="midnightblue" points="838.44,-342.37 847.29,-336.53 836.74,-335.58 838.44,-342.37"/>
</g>
<!-- Node5 -->
<g id="node5" class="node">
<title>Node5</title>
<g id="a_node5"><a xlink:href="classVector3.html#a52582e4d0cfe0d3e8a84336b2a0a3c05" target="_top" xlink:title=" ">
<polygon fill="none" stroke="black" points="654,-317.5 654,-336.5 796,-336.5 796,-317.5 654,-317.5"/>
<text text-anchor="middle" x="725" y="-324.5" font-family="Helvetica,sans-Serif" font-size="10.00">Vector3::DistanceSquared</text>
</a>
</g>
</g>
<!-- Node1&#45;&gt;Node5 -->
<g id="edge4" class="edge">
<title>Node1&#45;&gt;Node5</title>
<path fill="none" stroke="midnightblue" d="M834.9,-327C822.64,-327 809.26,-327 796.22,-327"/>
<polygon fill="midnightblue" stroke="midnightblue" points="834.91,-330.5 844.91,-327 834.91,-323.5 834.91,-330.5"/>
</g>
<!-- Node6 -->
<g id="node6" class="node">
<title>Node6</title>
<g id="a_node6"><a xlink:href="classVector2.html#a3485163d5c4a6e20a44fb49c1ebe37a8" target="_top" xlink:title=" ">
<polygon fill="none" stroke="black" points="641,-279.5 641,-298.5 809,-298.5 809,-279.5 641,-279.5"/>
<text text-anchor="middle" x="725" y="-286.5" font-family="Helvetica,sans-Serif" font-size="10.00">Vector2::GetMagnitudeSquared</text>
</a>
</g>
</g>
<!-- Node1&#45;&gt;Node6 -->
<g id="edge5" class="edge">
<title>Node1&#45;&gt;Node6</title>
<path fill="none" stroke="midnightblue" d="M837.32,-314.96C827.95,-312.62 818.17,-310.2 809,-308 795.92,-304.86 781.65,-301.55 768.69,-298.59"/>
<polygon fill="midnightblue" stroke="midnightblue" points="836.74,-318.42 847.29,-317.47 838.44,-311.63 836.74,-318.42"/>
</g>
<!-- Node10 -->
<g id="node10" class="node">
<title>Node10</title>
<g id="a_node10"><a xlink:href="classVector3.html#a40b58e9af6b19f4fd02e75a7e036c497" target="_top" xlink:title=" ">
<polygon fill="none" stroke="black" points="641,-241.5 641,-260.5 809,-260.5 809,-241.5 641,-241.5"/>
<text text-anchor="middle" x="725" y="-248.5" font-family="Helvetica,sans-Serif" font-size="10.00">Vector3::GetMagnitudeSquared</text>
</a>
</g>
</g>
<!-- Node1&#45;&gt;Node10 -->
<g id="edge9" class="edge">
<title>Node1&#45;&gt;Node10</title>
<path fill="none" stroke="midnightblue" d="M867.03,-310.38C852.57,-297.5 830.9,-280.2 809,-270 800.69,-266.13 791.54,-263.02 782.44,-260.53"/>
<polygon fill="midnightblue" stroke="midnightblue" points="864.92,-313.19 874.67,-317.36 869.65,-308.02 864.92,-313.19"/>
</g>
<!-- Node21 -->
<g id="node21" class="node">
<title>Node21</title>
<g id="a_node21"><a xlink:href="classPlane.html#ae6541a69585ec4f68a59600cf3b0261e" target="_top" xlink:title=" ">
<polygon fill="none" stroke="black" points="679.5,-203.5 679.5,-222.5 770.5,-222.5 770.5,-203.5 679.5,-203.5"/>
<text text-anchor="middle" x="725" y="-210.5" font-family="Helvetica,sans-Serif" font-size="10.00">Plane::GetPlain</text>
</a>
</g>
</g>
<!-- Node1&#45;&gt;Node21 -->
<g id="edge23" class="edge">
<title>Node1&#45;&gt;Node21</title>
<path fill="none" stroke="midnightblue" d="M874.92,-308.49C862.65,-286.71 839.3,-251.09 809,-232 797.62,-224.83 783.84,-220.36 770.81,-217.57"/>
<polygon fill="midnightblue" stroke="midnightblue" points="871.91,-310.3 879.76,-317.42 878.07,-306.96 871.91,-310.3"/>
</g>
<!-- Node7 -->
<g id="node7" class="node">
<title>Node7</title>
<g id="a_node7"><a xlink:href="classVector2.html#a3fa4c5b256684cc1b1a599e813195421" target="_top" xlink:title=" ">
<polygon fill="none" stroke="black" points="477,-323.5 477,-342.5 605,-342.5 605,-323.5 477,-323.5"/>
<text text-anchor="middle" x="541" y="-330.5" font-family="Helvetica,sans-Serif" font-size="10.00">Vector2::GetMagnitude</text>
</a>
</g>
</g>
<!-- Node6&#45;&gt;Node7 -->
<g id="edge6" class="edge">
<title>Node6&#45;&gt;Node7</title>
<path fill="none" stroke="midnightblue" d="M671.38,-300.86C661.29,-303.19 650.81,-305.64 641,-308 620.49,-312.94 597.66,-318.69 579.09,-323.43"/>
<polygon fill="midnightblue" stroke="midnightblue" points="672.34,-304.23 681.31,-298.58 670.78,-297.41 672.34,-304.23"/>
</g>
<!-- Node8 -->
<g id="node8" class="node">
<title>Node8</title>
<g id="a_node8"><a xlink:href="classVector2.html#a09d30ae647f4a35a5abd61f14e002126" target="_top" xlink:title=" ">
<polygon fill="none" stroke="black" points="308,-331.5 308,-350.5 441,-350.5 441,-331.5 308,-331.5"/>
<text text-anchor="middle" x="374.5" y="-338.5" font-family="Helvetica,sans-Serif" font-size="10.00">Vector2::GetNormalized</text>
</a>
</g>
</g>
<!-- Node7&#45;&gt;Node8 -->
<g id="edge7" class="edge">
<title>Node7&#45;&gt;Node8</title>
<path fill="none" stroke="midnightblue" d="M466.62,-336.57C458.15,-336.98 449.55,-337.4 441.19,-337.81"/>
<polygon fill="midnightblue" stroke="midnightblue" points="467.05,-340.05 476.87,-336.07 466.71,-333.06 467.05,-340.05"/>
</g>
<!-- Node9 -->
<g id="node9" class="node">
<title>Node9</title>
<g id="a_node9"><a xlink:href="classVector2.html#a1819f7de2632070f87e07f5714d0aa4d" target="_top" xlink:title=" ">
<polygon fill="none" stroke="black" points="119.5,-334.5 119.5,-353.5 229.5,-353.5 229.5,-334.5 119.5,-334.5"/>
<text text-anchor="middle" x="174.5" y="-341.5" font-family="Helvetica,sans-Serif" font-size="10.00">Vector2::Normalize</text>
</a>
</g>
</g>
<!-- Node8&#45;&gt;Node9 -->
<g id="edge8" class="edge">
<title>Node8&#45;&gt;Node9</title>
<path fill="none" stroke="midnightblue" d="M297.6,-342.15C274.99,-342.49 250.69,-342.86 229.76,-343.18"/>
<polygon fill="midnightblue" stroke="midnightblue" points="297.9,-345.65 307.84,-341.99 297.79,-338.65 297.9,-345.65"/>
</g>
<!-- Node11 -->
<g id="node11" class="node">
<title>Node11</title>
<g id="a_node11"><a xlink:href="classVector3.html#ac297afb6e74370b4327d779328412b18" target="_top" xlink:title=" ">
<polygon fill="none" stroke="black" points="477,-189.5 477,-208.5 605,-208.5 605,-189.5 477,-189.5"/>
<text text-anchor="middle" x="541" y="-196.5" font-family="Helvetica,sans-Serif" font-size="10.00">Vector3::GetMagnitude</text>
</a>
</g>
</g>
<!-- Node10&#45;&gt;Node11 -->
<g id="edge10" class="edge">
<title>Node10&#45;&gt;Node11</title>
<path fill="none" stroke="midnightblue" d="M668.64,-239.11C659.37,-236.9 649.88,-234.49 641,-232 616.05,-225 588.09,-215.53 568.26,-208.52"/>
<polygon fill="midnightblue" stroke="midnightblue" points="668.03,-242.56 678.57,-241.43 669.63,-235.75 668.03,-242.56"/>
</g>
<!-- Node17 -->
<g id="node17" class="node">
<title>Node17</title>
<g id="a_node17"><a xlink:href="classGeometryFlatEffect_1_1GeometryShader.html#a4ef92d67615439c6cd50961e231a7a83" target="_top" xlink:title=" ">
<polygon fill="none" stroke="black" points="99,-0.5 99,-41.5 250,-41.5 250,-0.5 99,-0.5"/>
<text text-anchor="start" x="107" y="-29.5" font-family="Helvetica,sans-Serif" font-size="10.00">GeometryFlatEffect</text>
<text text-anchor="start" x="107" y="-18.5" font-family="Helvetica,sans-Serif" font-size="10.00">::GeometryShader::SetLight</text>
<text text-anchor="middle" x="174.5" y="-7.5" font-family="Helvetica,sans-Serif" font-size="10.00">Direction</text>
</a>
</g>
</g>
<!-- Node10&#45;&gt;Node17 -->
<g id="edge20" class="edge">
<title>Node10&#45;&gt;Node17</title>
<path fill="none" stroke="midnightblue" d="M650.38,-237.42C647.12,-235.81 643.97,-234.01 641,-232 617.72,-216.24 627.08,-197.4 605,-180 480.34,-81.76 421.87,-103.26 272,-51 262.89,-47.82 253.24,-44.63 243.7,-41.57"/>
<polygon fill="midnightblue" stroke="midnightblue" points="649.3,-240.76 659.87,-241.47 652.05,-234.32 649.3,-240.76"/>
</g>
<!-- Node18 -->
<g id="node18" class="node">
<title>Node18</title>
<g id="a_node18"><a xlink:href="classVertexFlatEffect_1_1VertexShader.html#aa0c59c8483a1af26e93aabab04cb0c4d" target="_top" xlink:title=" ">
<polygon fill="none" stroke="black" points="104.5,-285 104.5,-315 244.5,-315 244.5,-285 104.5,-285"/>
<text text-anchor="start" x="112.5" y="-303" font-family="Helvetica,sans-Serif" font-size="10.00">VertexFlatEffect::Vertex</text>
<text text-anchor="middle" x="174.5" y="-292" font-family="Helvetica,sans-Serif" font-size="10.00">Shader::SetLightDirection</text>
</a>
</g>
</g>
<!-- Node10&#45;&gt;Node18 -->
<g id="edge21" class="edge">
<title>Node10&#45;&gt;Node18</title>
<path fill="none" stroke="midnightblue" d="M636.47,-261.66C625.87,-262.84 615.2,-263.99 605,-265 478.07,-277.63 329.7,-288.96 244.75,-295.12"/>
<polygon fill="midnightblue" stroke="midnightblue" points="637.05,-265.12 646.59,-260.51 636.26,-258.16 637.05,-265.12"/>
</g>
<!-- Node19 -->
<g id="node19" class="node">
<title>Node19</title>
<g id="a_node19"><a xlink:href="classWaveVertexTextureEffect_1_1GeometryShader.html#a4a3dfd7d8776a0abffb2910b217e43bb" target="_top" xlink:title=" ">
<polygon fill="none" stroke="black" points="77,-236 77,-266 272,-266 272,-236 77,-236"/>
<text text-anchor="start" x="85" y="-254" font-family="Helvetica,sans-Serif" font-size="10.00">WaveVertexTextureEffect</text>
<text text-anchor="middle" x="174.5" y="-243" font-family="Helvetica,sans-Serif" font-size="10.00">::GeometryShader::SetLightDirection</text>
</a>
</g>
</g>
<!-- Node10&#45;&gt;Node19 -->
<g id="edge22" class="edge">
<title>Node10&#45;&gt;Node19</title>
<path fill="none" stroke="midnightblue" d="M630.92,-251C531.11,-251 373.38,-251 272.2,-251"/>
<polygon fill="midnightblue" stroke="midnightblue" points="630.99,-254.5 640.99,-251 630.99,-247.5 630.99,-254.5"/>
</g>
<!-- Node12 -->
<g id="node12" class="node">
<title>Node12</title>
<g id="a_node12"><a xlink:href="classVector3.html#a1453d64a7a4333b19d6a92b8e61e617e" target="_top" xlink:title=" ">
<polygon fill="none" stroke="black" points="308,-162.5 308,-181.5 441,-181.5 441,-162.5 308,-162.5"/>
<text text-anchor="middle" x="374.5" y="-169.5" font-family="Helvetica,sans-Serif" font-size="10.00">Vector3::GetNormalized</text>
</a>
</g>
</g>
<!-- Node11&#45;&gt;Node12 -->
<g id="edge11" class="edge">
<title>Node11&#45;&gt;Node12</title>
<path fill="none" stroke="midnightblue" d="M471.9,-187.82C459.15,-185.73 445.94,-183.56 433.53,-181.52"/>
<polygon fill="midnightblue" stroke="midnightblue" points="471.57,-191.31 482,-189.48 472.7,-184.41 471.57,-191.31"/>
</g>
<!-- Node13 -->
<g id="node13" class="node">
<title>Node13</title>
<g id="a_node13"><a xlink:href="classVector3.html#a60a66eb12fb598ec0f2ada72819395b2" target="_top" xlink:title=" ">
<polygon fill="none" stroke="black" points="119.5,-110.5 119.5,-129.5 229.5,-129.5 229.5,-110.5 119.5,-110.5"/>
<text text-anchor="middle" x="174.5" y="-117.5" font-family="Helvetica,sans-Serif" font-size="10.00">Vector3::Normalize</text>
</a>
</g>
</g>
<!-- Node12&#45;&gt;Node13 -->
<g id="edge12" class="edge">
<title>Node12&#45;&gt;Node13</title>
<path fill="none" stroke="midnightblue" d="M337.46,-159.12C318.2,-152.53 293.99,-144.72 272,-139 258.37,-135.46 243.5,-132.22 229.61,-129.47"/>
<polygon fill="midnightblue" stroke="midnightblue" points="336.45,-162.47 347.04,-162.43 338.74,-155.86 336.45,-162.47"/>
</g>
<!-- Node15 -->
<g id="node15" class="node">
<title>Node15</title>
<g id="a_node15"><a xlink:href="classGeometryFlatEffect_1_1GeometryShader.html#a84bd7b52ddfb6c22dfe57eaacdf7a50f" target="_top" xlink:title=" ">
<polygon fill="none" stroke="black" points="94.5,-61 94.5,-91 254.5,-91 254.5,-61 94.5,-61"/>
<text text-anchor="start" x="102.5" y="-79" font-family="Helvetica,sans-Serif" font-size="10.00">GeometryFlatEffect</text>
<text text-anchor="middle" x="174.5" y="-68" font-family="Helvetica,sans-Serif" font-size="10.00">::GeometryShader::operator()</text>
</a>
</g>
</g>
<!-- Node12&#45;&gt;Node15 -->
<g id="edge14" class="edge">
<title>Node12&#45;&gt;Node15</title>
<path fill="none" stroke="midnightblue" d="M354.99,-155.96C335.54,-139.89 303.47,-115.51 272,-101 263.75,-97.2 254.82,-93.9 245.85,-91.07"/>
<polygon fill="midnightblue" stroke="midnightblue" points="352.84,-158.73 362.75,-162.49 357.35,-153.37 352.84,-158.73"/>
</g>
<!-- Node16 -->
<g id="node16" class="node">
<title>Node16</title>
<g id="a_node16"><a xlink:href="classWaveVertexTextureEffect_1_1GeometryShader.html#a2c58f9e1316b26ca6014e8ee9b3fa9cf" target="_top" xlink:title=" ">
<polygon fill="none" stroke="black" points="94.5,-187 94.5,-217 254.5,-217 254.5,-187 94.5,-187"/>
<text text-anchor="start" x="102.5" y="-205" font-family="Helvetica,sans-Serif" font-size="10.00">WaveVertexTextureEffect</text>
<text text-anchor="middle" x="174.5" y="-194" font-family="Helvetica,sans-Serif" font-size="10.00">::GeometryShader::operator()</text>
</a>
</g>
</g>
<!-- Node12&#45;&gt;Node16 -->
<g id="edge15" class="edge">
<title>Node12&#45;&gt;Node16</title>
<path fill="none" stroke="midnightblue" d="M300.41,-183.07C285.49,-185.33 269.74,-187.72 254.62,-190.01"/>
<polygon fill="midnightblue" stroke="midnightblue" points="301.22,-186.49 310.58,-181.53 300.17,-179.57 301.22,-186.49"/>
</g>
<!-- Node12&#45;&gt;Node17 -->
<g id="edge16" class="edge">
<title>Node12&#45;&gt;Node17</title>
<path fill="none" stroke="midnightblue" d="M357.12,-154.62C343.59,-140.06 324.08,-118.58 308,-99 291.08,-78.39 293.79,-66.37 272,-51 265.41,-46.35 258.06,-42.4 250.46,-39.05"/>
<polygon fill="midnightblue" stroke="midnightblue" points="354.93,-157.41 364.32,-162.32 360.05,-152.63 354.93,-157.41"/>
</g>
<!-- Node12&#45;&gt;Node18 -->
<g id="edge17" class="edge">
<title>Node12&#45;&gt;Node18</title>
<path fill="none" stroke="midnightblue" d="M360.89,-190.13C343.59,-213.6 310.26,-254.06 272,-276 263.54,-280.85 254.11,-284.73 244.56,-287.83"/>
<polygon fill="midnightblue" stroke="midnightblue" points="363.91,-191.93 366.9,-181.77 358.22,-187.84 363.91,-191.93"/>
</g>
<!-- Node12&#45;&gt;Node19 -->
<g id="edge18" class="edge">
<title>Node12&#45;&gt;Node19</title>
<path fill="none" stroke="midnightblue" d="M349.44,-186.88C329.35,-198.8 299.62,-215.25 272,-226 262.48,-229.7 252.23,-233.03 242.08,-235.95"/>
<polygon fill="midnightblue" stroke="midnightblue" points="351.46,-189.76 358.22,-181.6 347.85,-183.76 351.46,-189.76"/>
</g>
<!-- Node20 -->
<g id="node20" class="node">
<title>Node20</title>
<g id="a_node20"><a xlink:href="Vector3_8cpp.html#acd001b833aaf532c808c6051f045d3c2" target="_top" xlink:title=" ">
<polygon fill="none" stroke="black" points="154,-148.5 154,-167.5 195,-167.5 195,-148.5 154,-148.5"/>
<text text-anchor="middle" x="174.5" y="-155.5" font-family="Helvetica,sans-Serif" font-size="10.00">TEST</text>
</a>
</g>
</g>
<!-- Node12&#45;&gt;Node20 -->
<g id="edge19" class="edge">
<title>Node12&#45;&gt;Node20</title>
<path fill="none" stroke="midnightblue" d="M297.53,-166.63C260.46,-164.01 218.83,-161.06 195.03,-159.38"/>
<polygon fill="midnightblue" stroke="midnightblue" points="297.62,-170.14 307.84,-167.36 298.12,-163.16 297.62,-170.14"/>
</g>
<!-- Node14 -->
<g id="node14" class="node">
<title>Node14</title>
<g id="a_node14"><a xlink:href="Vector3_8cpp.html#ab5848f313403912f60a11f987ed720c7" target="_top" xlink:title=" ">
<polygon fill="none" stroke="black" points="0,-110.5 0,-129.5 41,-129.5 41,-110.5 0,-110.5"/>
<text text-anchor="middle" x="20.5" y="-117.5" font-family="Helvetica,sans-Serif" font-size="10.00">TEST</text>
</a>
</g>
</g>
<!-- Node13&#45;&gt;Node14 -->
<g id="edge13" class="edge">
<title>Node13&#45;&gt;Node14</title>
<path fill="none" stroke="midnightblue" d="M109.47,-120C84.95,-120 58.73,-120 41.35,-120"/>
<polygon fill="midnightblue" stroke="midnightblue" points="109.48,-123.5 119.48,-120 109.48,-116.5 109.48,-123.5"/>
</g>
</g>
</svg>
