<?xml version="1.0" encoding="UTF-8" standalone="no"?>
<!DOCTYPE svg PUBLIC "-//W3C//DTD SVG 1.1//EN"
 "http://www.w3.org/Graphics/SVG/1.1/DTD/svg11.dtd">
<!-- Generated by graphviz version 8.1.0 (20230707.0739)
 -->
<!-- Title: Math::WrapAngle Pages: 1 -->
<svg width="288pt" height="401pt"
 viewBox="0.00 0.00 288.25 401.00" xmlns="http://www.w3.org/2000/svg" xmlns:xlink="http://www.w3.org/1999/xlink">
<g id="graph0" class="graph" transform="scale(1 1) rotate(0) translate(4 397)">
<title>Math::WrapAngle</title>
<!-- Node1 -->
<g id="node1" class="node">
<title>Node1</title>
<g id="a_node1"><a xlink:title=" ">
<polygon fill="#bfbfbf" stroke="black" points="188.5,-186.5 188.5,-206.5 280.25,-206.5 280.25,-186.5 188.5,-186.5"/>
<text text-anchor="middle" x="234.38" y="-193" font-family="Helvetica,sans-Serif" font-size="10.00">Math::WrapAngle</text>
</a>
</g>
</g>
<!-- Node2 -->
<g id="node2" class="node">
<title>Node2</title>
<g id="a_node2"><a xlink:href="class_cube_flat_independent_scene.html#a77daa7f03c9f6225df5e7cba6feee611" target="_top" xlink:title=" ">
<polygon fill="none" stroke="black" points="8.62,-360.5 8.62,-392.5 143.88,-392.5 143.88,-360.5 8.62,-360.5"/>
<text text-anchor="start" x="16.62" y="-379" font-family="Helvetica,sans-Serif" font-size="10.00">CubeFlatIndependentScene</text>
<text text-anchor="middle" x="76.25" y="-367" font-family="Helvetica,sans-Serif" font-size="10.00">::Update</text>
</a>
</g>
</g>
<!-- Node1&#45;&gt;Node2 -->
<g id="edge1" class="edge">
<title>Node1&#45;&gt;Node2</title>
<path fill="none" stroke="midnightblue" d="M228.19,-216.69C218.72,-249.62 195.5,-314.89 152.5,-351.5 148.41,-354.98 143.82,-357.98 138.98,-360.57"/>
<polygon fill="midnightblue" stroke="midnightblue" points="231.72,-218.06 230.98,-207.49 224.97,-216.21 231.72,-218.06"/>
</g>
<!-- Node3 -->
<g id="node3" class="node">
<title>Node3</title>
<g id="a_node3"><a xlink:href="class_cube_skin_scene.html#a291519be4aae4268c5b6cdb4b9fc864a" target="_top" xlink:title=" ">
<polygon fill="none" stroke="black" points="15,-321.5 15,-341.5 137.5,-341.5 137.5,-321.5 15,-321.5"/>
<text text-anchor="middle" x="76.25" y="-328" font-family="Helvetica,sans-Serif" font-size="10.00">CubeSkinScene::Update</text>
</a>
</g>
</g>
<!-- Node1&#45;&gt;Node3 -->
<g id="edge2" class="edge">
<title>Node1&#45;&gt;Node3</title>
<path fill="none" stroke="midnightblue" d="M225.01,-216.26C212.91,-242.39 188.02,-287.95 152.5,-312.5 147.18,-316.18 141.21,-319.14 135.02,-321.53"/>
<polygon fill="midnightblue" stroke="midnightblue" points="228.54,-217.94 229.4,-207.38 222.14,-215.09 228.54,-217.94"/>
</g>
<!-- Node4 -->
<g id="node4" class="node">
<title>Node4</title>
<g id="a_node4"><a xlink:href="class_cube_solid_geometry_scene.html#a4501743d912f6818f264525e806f4f8b" target="_top" xlink:title=" ">
<polygon fill="none" stroke="black" points="10.88,-270.5 10.88,-302.5 141.62,-302.5 141.62,-270.5 10.88,-270.5"/>
<text text-anchor="start" x="18.88" y="-289" font-family="Helvetica,sans-Serif" font-size="10.00">CubeSolidGeometryScene</text>
<text text-anchor="middle" x="76.25" y="-277" font-family="Helvetica,sans-Serif" font-size="10.00">::Update</text>
</a>
</g>
</g>
<!-- Node1&#45;&gt;Node4 -->
<g id="edge3" class="edge">
<title>Node1&#45;&gt;Node4</title>
<path fill="none" stroke="midnightblue" d="M216.04,-213.52C200.51,-227.97 176.52,-248.41 152.5,-261.5 146.33,-264.86 139.64,-267.87 132.87,-270.54"/>
<polygon fill="midnightblue" stroke="midnightblue" points="217.92,-216.61 222.75,-207.18 213.09,-211.54 217.92,-216.61"/>
</g>
<!-- Node5 -->
<g id="node5" class="node">
<title>Node5</title>
<g id="a_node5"><a xlink:href="class_cube_solid_scene.html#a2c58f00b9630b056326c6d753e535fdf" target="_top" xlink:title=" ">
<polygon fill="none" stroke="black" points="13.88,-231.5 13.88,-251.5 138.62,-251.5 138.62,-231.5 13.88,-231.5"/>
<text text-anchor="middle" x="76.25" y="-238" font-family="Helvetica,sans-Serif" font-size="10.00">CubeSolidScene::Update</text>
</a>
</g>
</g>
<!-- Node1&#45;&gt;Node5 -->
<g id="edge4" class="edge">
<title>Node1&#45;&gt;Node5</title>
<path fill="none" stroke="midnightblue" d="M193.82,-209.77C180.72,-214.02 166.04,-218.62 152.5,-222.5 141.62,-225.62 129.78,-228.74 118.78,-231.52"/>
<polygon fill="midnightblue" stroke="midnightblue" points="194.52,-212.9 202.94,-206.46 192.34,-206.25 194.52,-212.9"/>
</g>
<!-- Node6 -->
<g id="node6" class="node">
<title>Node6</title>
<g id="a_node6"><a xlink:href="class_cube_vertex_color_scene.html#aa27efa84023993c57c5b32497dc6aca3" target="_top" xlink:title=" ">
<polygon fill="none" stroke="black" points="17.62,-180.5 17.62,-212.5 134.88,-212.5 134.88,-180.5 17.62,-180.5"/>
<text text-anchor="start" x="25.62" y="-199" font-family="Helvetica,sans-Serif" font-size="10.00">CubeVertexColorScene</text>
<text text-anchor="middle" x="76.25" y="-187" font-family="Helvetica,sans-Serif" font-size="10.00">::Update</text>
</a>
</g>
</g>
<!-- Node1&#45;&gt;Node6 -->
<g id="edge5" class="edge">
<title>Node1&#45;&gt;Node6</title>
<path fill="none" stroke="midnightblue" d="M177.73,-196.5C163.81,-196.5 148.85,-196.5 134.83,-196.5"/>
<polygon fill="midnightblue" stroke="midnightblue" points="177.64,-200 187.64,-196.5 177.64,-193 177.64,-200"/>
</g>
<!-- Node7 -->
<g id="node7" class="node">
<title>Node7</title>
<g id="a_node7"><a xlink:href="class_cube_vertex_position_color_scene.html#a72ce3d23605de3262f97e8e935bd08e0" target="_top" xlink:title=" ">
<polygon fill="none" stroke="black" points="0,-129.5 0,-161.5 152.5,-161.5 152.5,-129.5 0,-129.5"/>
<text text-anchor="start" x="8" y="-148" font-family="Helvetica,sans-Serif" font-size="10.00">CubeVertexPositionColorScene</text>
<text text-anchor="middle" x="76.25" y="-136" font-family="Helvetica,sans-Serif" font-size="10.00">::Update</text>
</a>
</g>
</g>
<!-- Node1&#45;&gt;Node7 -->
<g id="edge6" class="edge">
<title>Node1&#45;&gt;Node7</title>
<path fill="none" stroke="midnightblue" d="M192.69,-183.21C172.31,-176.55 147.48,-168.44 126.08,-161.45"/>
<polygon fill="midnightblue" stroke="midnightblue" points="191.31,-186.77 201.9,-186.55 193.48,-180.11 191.31,-186.77"/>
</g>
<!-- Node8 -->
<g id="node8" class="node">
<title>Node8</title>
<g id="a_node8"><a xlink:href="class_double_cube_scene.html#aa0b545717ab49ff4b4726d15bb8917bb" target="_top" xlink:title=" ">
<polygon fill="none" stroke="black" points="9.75,-90.5 9.75,-110.5 142.75,-110.5 142.75,-90.5 9.75,-90.5"/>
<text text-anchor="middle" x="76.25" y="-97" font-family="Helvetica,sans-Serif" font-size="10.00">DoubleCubeScene::Update</text>
</a>
</g>
</g>
<!-- Node1&#45;&gt;Node8 -->
<g id="edge7" class="edge">
<title>Node1&#45;&gt;Node8</title>
<path fill="none" stroke="midnightblue" d="M218.94,-178.52C204.07,-161.17 179.32,-135.4 152.5,-120.5 145.06,-116.36 136.72,-113.05 128.38,-110.41"/>
<polygon fill="midnightblue" stroke="midnightblue" points="216.69,-180.28 225.78,-185.73 222.07,-175.8 216.69,-180.28"/>
</g>
<!-- Node9 -->
<g id="node9" class="node">
<title>Node9</title>
<g id="a_node9"><a xlink:href="class_geometry_flat_scene.html#a7d045533ea001772a2e575df47500a8f" target="_top" xlink:title=" ">
<polygon fill="none" stroke="black" points="21.75,-39.5 21.75,-71.5 130.75,-71.5 130.75,-39.5 21.75,-39.5"/>
<text text-anchor="start" x="29.75" y="-58" font-family="Helvetica,sans-Serif" font-size="10.00">GeometryFlatScene::</text>
<text text-anchor="middle" x="76.25" y="-46" font-family="Helvetica,sans-Serif" font-size="10.00">Update</text>
</a>
</g>
</g>
<!-- Node1&#45;&gt;Node9 -->
<g id="edge8" class="edge">
<title>Node1&#45;&gt;Node9</title>
<path fill="none" stroke="midnightblue" d="M224.46,-176.96C211.89,-151.5 186.63,-107.19 152.5,-81.5 145.87,-76.51 138.22,-72.43 130.39,-69.11"/>
<polygon fill="midnightblue" stroke="midnightblue" points="221.6,-178.09 229.06,-185.61 227.91,-175.08 221.6,-178.09"/>
</g>
<!-- Node10 -->
<g id="node10" class="node">
<title>Node10</title>
<g id="a_node10"><a xlink:href="class_vertex_wave_scene.html#af914c4150ebb8c531dd5f14c62854e7e" target="_top" xlink:title=" ">
<polygon fill="none" stroke="black" points="9.75,-0.5 9.75,-20.5 142.75,-20.5 142.75,-0.5 9.75,-0.5"/>
<text text-anchor="middle" x="76.25" y="-7" font-family="Helvetica,sans-Serif" font-size="10.00">VertexWaveScene::Update</text>
</a>
</g>
</g>
<!-- Node1&#45;&gt;Node10 -->
<g id="edge9" class="edge">
<title>Node1&#45;&gt;Node10</title>
<path fill="none" stroke="midnightblue" d="M229.34,-176.57C221.2,-141.57 199.42,-69.12 152.5,-30.5 147.49,-26.38 141.71,-23.1 135.63,-20.49"/>
<polygon fill="midnightblue" stroke="midnightblue" points="226.05,-176.88 231.6,-185.9 232.88,-175.38 226.05,-176.88"/>
</g>
</g>
</svg>
