<?xml version="1.0" encoding="UTF-8" standalone="no"?>
<!DOCTYPE svg PUBLIC "-//W3C//DTD SVG 1.1//EN"
 "http://www.w3.org/Graphics/SVG/1.1/DTD/svg11.dtd">
<!-- Generated by graphviz version 2.43.0 (0)
 -->
<!-- Title: objl::math::CrossV3 Pages: 1 -->
<svg width="494pt" height="66pt"
 viewBox="0.00 0.00 494.00 66.00" xmlns="http://www.w3.org/2000/svg" xmlns:xlink="http://www.w3.org/1999/xlink">
<g id="graph0" class="graph" transform="scale(1 1) rotate(0) translate(4 62)">
<title>objl::math::CrossV3</title>
<!-- Node1 -->
<g id="node1" class="node">
<title>Node1</title>
<g id="a_node1"><a xlink:title=" ">
<polygon fill="#bfbfbf" stroke="black" points="374,-19.5 374,-38.5 486,-38.5 486,-19.5 374,-19.5"/>
<text text-anchor="middle" x="430" y="-26.5" font-family="Helvetica,sans-Serif" font-size="10.00">objl::math::CrossV3</text>
</a>
</g>
</g>
<!-- Node2 -->
<g id="node2" class="node">
<title>Node2</title>
<g id="a_node2"><a xlink:href="namespaceobjl_1_1algorithm.html#a7756d40905480bbcaab1edef6caa8521" target="_top" xlink:title=" ">
<polygon fill="none" stroke="black" points="177,-38.5 177,-57.5 338,-57.5 338,-38.5 177,-38.5"/>
<text text-anchor="middle" x="257.5" y="-45.5" font-family="Helvetica,sans-Serif" font-size="10.00">objl::algorithm::GenTriNormal</text>
</a>
</g>
</g>
<!-- Node1&#45;&gt;Node2 -->
<g id="edge1" class="edge">
<title>Node1&#45;&gt;Node2</title>
<path fill="none" stroke="midnightblue" d="M363.6,-36.29C355.23,-37.22 346.6,-38.18 338.04,-39.14"/>
<polygon fill="midnightblue" stroke="midnightblue" points="364.09,-39.75 373.64,-35.17 363.32,-32.8 364.09,-39.75"/>
</g>
<!-- Node4 -->
<g id="node4" class="node">
<title>Node4</title>
<g id="a_node4"><a xlink:href="namespaceobjl_1_1algorithm.html#ac9022b3dcb35d393a870711f8c685c96" target="_top" xlink:title=" ">
<polygon fill="none" stroke="black" points="186,-0.5 186,-19.5 329,-19.5 329,-0.5 186,-0.5"/>
<text text-anchor="middle" x="257.5" y="-7.5" font-family="Helvetica,sans-Serif" font-size="10.00">objl::algorithm::SameSide</text>
</a>
</g>
</g>
<!-- Node1&#45;&gt;Node4 -->
<g id="edge3" class="edge">
<title>Node1&#45;&gt;Node4</title>
<path fill="none" stroke="midnightblue" d="M363.48,-21.7C352.23,-20.45 340.5,-19.14 329.13,-17.87"/>
<polygon fill="midnightblue" stroke="midnightblue" points="363.32,-25.2 373.64,-22.83 364.09,-18.25 363.32,-25.2"/>
</g>
<!-- Node3 -->
<g id="node3" class="node">
<title>Node3</title>
<g id="a_node3"><a xlink:href="namespaceobjl_1_1algorithm.html#aae4725c9c9dcd572cec150c1f2d23510" target="_top" xlink:title=" ">
<polygon fill="none" stroke="black" points="0,-19.5 0,-38.5 141,-38.5 141,-19.5 0,-19.5"/>
<text text-anchor="middle" x="70.5" y="-26.5" font-family="Helvetica,sans-Serif" font-size="10.00">objl::algorithm::inTriangle</text>
</a>
</g>
</g>
<!-- Node2&#45;&gt;Node3 -->
<g id="edge2" class="edge">
<title>Node2&#45;&gt;Node3</title>
<path fill="none" stroke="midnightblue" d="M166.84,-38.79C158.18,-37.9 149.48,-37.01 141.06,-36.14"/>
<polygon fill="midnightblue" stroke="midnightblue" points="166.66,-42.29 176.97,-39.83 167.38,-35.33 166.66,-42.29"/>
</g>
<!-- Node4&#45;&gt;Node3 -->
<g id="edge4" class="edge">
<title>Node4&#45;&gt;Node3</title>
<path fill="none" stroke="midnightblue" d="M175.75,-18.29C164.27,-19.47 152.53,-20.68 141.28,-21.83"/>
<polygon fill="midnightblue" stroke="midnightblue" points="176.18,-21.77 185.77,-17.26 175.46,-14.8 176.18,-21.77"/>
</g>
</g>
</svg>
