<?xml version="1.0" encoding="UTF-8" standalone="no"?>
<!DOCTYPE svg PUBLIC "-//W3C//DTD SVG 1.1//EN"
 "http://www.w3.org/Graphics/SVG/1.1/DTD/svg11.dtd">
<!-- Generated by graphviz version 2.43.0 (0)
 -->
<!-- Title: include/Pipeline.h Pages: 1 -->
<svg width="1253pt" height="420pt"
 viewBox="0.00 0.00 1253.15 420.00" xmlns="http://www.w3.org/2000/svg" xmlns:xlink="http://www.w3.org/1999/xlink">
<g id="graph0" class="graph" transform="scale(1 1) rotate(0) translate(4 416)">
<title>include/Pipeline.h</title>
<!-- Node1 -->
<g id="node1" class="node">
<title>Node1</title>
<g id="a_node1"><a xlink:title=" ">
<polygon fill="#bfbfbf" stroke="black" points="601.5,-392.5 601.5,-411.5 704.5,-411.5 704.5,-392.5 601.5,-392.5"/>
<text text-anchor="middle" x="653" y="-399.5" font-family="Helvetica,sans-Serif" font-size="10.00">include/Pipeline.h</text>
</a>
</g>
</g>
<!-- Node2 -->
<g id="node2" class="node">
<title>Node2</title>
<g id="a_node2"><a xlink:href="Win_8h.html" target="_top" xlink:title=" ">
<polygon fill="none" stroke="black" points="61,-168.5 61,-187.5 105,-187.5 105,-168.5 61,-168.5"/>
<text text-anchor="middle" x="83" y="-175.5" font-family="Helvetica,sans-Serif" font-size="10.00">Win.h</text>
</a>
</g>
</g>
<!-- Node1&#45;&gt;Node2 -->
<g id="edge1" class="edge">
<title>Node1&#45;&gt;Node2</title>
<path fill="none" stroke="midnightblue" d="M601.18,-401.52C509.95,-400.05 317.94,-386.01 187,-300 144.92,-272.35 110.16,-222.96 93.54,-196.64"/>
<polygon fill="midnightblue" stroke="midnightblue" points="96.31,-194.46 88.09,-187.78 90.35,-198.13 96.31,-194.46"/>
</g>
<!-- Node5 -->
<g id="node5" class="node">
<title>Node5</title>
<g id="a_node5"><a xlink:href="Graphics_8h.html" target="_top" xlink:title=" ">
<polygon fill="none" stroke="black" points="412,-280.5 412,-299.5 480,-299.5 480,-280.5 412,-280.5"/>
<text text-anchor="middle" x="446" y="-287.5" font-family="Helvetica,sans-Serif" font-size="10.00">Graphics.h</text>
</a>
</g>
</g>
<!-- Node1&#45;&gt;Node5 -->
<g id="edge4" class="edge">
<title>Node1&#45;&gt;Node5</title>
<path fill="none" stroke="midnightblue" d="M636.76,-392.37C600.78,-373.25 514.18,-327.23 471.14,-304.36"/>
<polygon fill="midnightblue" stroke="midnightblue" points="472.64,-301.19 462.17,-299.59 469.36,-307.37 472.64,-301.19"/>
</g>
<!-- Node16 -->
<g id="node16" class="node">
<title>Node16</title>
<g id="a_node16"><a xlink:href="Matrix3_8h.html" target="_top" xlink:title=" ">
<polygon fill="none" stroke="black" points="427.5,-56.5 427.5,-75.5 490.5,-75.5 490.5,-56.5 427.5,-56.5"/>
<text text-anchor="middle" x="459" y="-63.5" font-family="Helvetica,sans-Serif" font-size="10.00">Matrix3.h</text>
</a>
</g>
</g>
<!-- Node1&#45;&gt;Node16 -->
<g id="edge56" class="edge">
<title>Node1&#45;&gt;Node16</title>
<path fill="none" stroke="midnightblue" d="M657.05,-392.38C665.23,-374.11 683,-330 683,-291 683,-291 683,-291 683,-177 683,-146.9 686,-132.54 664,-112 640.72,-90.26 553.61,-77.22 500.73,-71.14"/>
<polygon fill="midnightblue" stroke="midnightblue" points="500.96,-67.65 490.63,-70.02 500.18,-74.61 500.96,-67.65"/>
</g>
<!-- Node29 -->
<g id="node29" class="node">
<title>Node29</title>
<g id="a_node29"><a xlink:href="Triangle_8h.html" target="_top" xlink:title=" ">
<polygon fill="none" stroke="black" points="591,-336.5 591,-355.5 655,-355.5 655,-336.5 591,-336.5"/>
<text text-anchor="middle" x="623" y="-343.5" font-family="Helvetica,sans-Serif" font-size="10.00">Triangle.h</text>
</a>
</g>
</g>
<!-- Node1&#45;&gt;Node29 -->
<g id="edge37" class="edge">
<title>Node1&#45;&gt;Node29</title>
<path fill="none" stroke="midnightblue" d="M648.05,-392.08C643.9,-384.61 637.85,-373.72 632.73,-364.52"/>
<polygon fill="midnightblue" stroke="midnightblue" points="635.78,-362.79 627.86,-355.75 629.66,-366.19 635.78,-362.79"/>
</g>
<!-- Node30 -->
<g id="node30" class="node">
<title>Node30</title>
<g id="a_node30"><a xlink:href="IndexedTriangleList_8h.html" target="_top" xlink:title=" ">
<polygon fill="none" stroke="black" points="817.5,-224.5 817.5,-243.5 936.5,-243.5 936.5,-224.5 817.5,-224.5"/>
<text text-anchor="middle" x="877" y="-231.5" font-family="Helvetica,sans-Serif" font-size="10.00">IndexedTriangleList.h</text>
</a>
</g>
</g>
<!-- Node1&#45;&gt;Node30 -->
<g id="edge38" class="edge">
<title>Node1&#45;&gt;Node30</title>
<path fill="none" stroke="midnightblue" d="M664.73,-392.31C701.02,-365.42 811.75,-283.35 857.21,-249.67"/>
<polygon fill="midnightblue" stroke="midnightblue" points="859.44,-252.37 865.39,-243.61 855.27,-246.75 859.44,-252.37"/>
</g>
<!-- Node36 -->
<g id="node36" class="node">
<title>Node36</title>
<g id="a_node36"><a xlink:title=" ">
<polygon fill="none" stroke="#bfbfbf" points="1098,-112.5 1098,-131.5 1162,-131.5 1162,-112.5 1098,-112.5"/>
<text text-anchor="middle" x="1130" y="-119.5" font-family="Helvetica,sans-Serif" font-size="10.00">algorithm</text>
</a>
</g>
</g>
<!-- Node1&#45;&gt;Node36 -->
<g id="edge60" class="edge">
<title>Node1&#45;&gt;Node36</title>
<path fill="none" stroke="midnightblue" d="M704.55,-400.16C829.63,-396.74 1139,-379.35 1139,-291 1139,-291 1139,-291 1139,-233 1139,-200.84 1135.13,-163.57 1132.47,-141.71"/>
<polygon fill="midnightblue" stroke="midnightblue" points="1135.91,-141.02 1131.18,-131.54 1128.96,-141.9 1135.91,-141.02"/>
</g>
<!-- Node41 -->
<g id="node41" class="node">
<title>Node41</title>
<g id="a_node41"><a xlink:href="PubeScreenTransformer_8h.html" target="_top" xlink:title=" ">
<polygon fill="none" stroke="black" points="376,-336.5 376,-355.5 516,-355.5 516,-336.5 376,-336.5"/>
<text text-anchor="middle" x="446" y="-343.5" font-family="Helvetica,sans-Serif" font-size="10.00">PubeScreenTransformer.h</text>
</a>
</g>
</g>
<!-- Node1&#45;&gt;Node41 -->
<g id="edge53" class="edge">
<title>Node1&#45;&gt;Node41</title>
<path fill="none" stroke="midnightblue" d="M620.2,-392.44C584.62,-383.16 527.69,-368.31 488.65,-358.13"/>
<polygon fill="midnightblue" stroke="midnightblue" points="489.21,-354.65 478.65,-355.52 487.44,-361.43 489.21,-354.65"/>
</g>
<!-- Node42 -->
<g id="node42" class="node">
<title>Node42</title>
<g id="a_node42"><a xlink:href="ZBuffer_8h.html" target="_top" xlink:title=" ">
<polygon fill="none" stroke="black" points="1175.5,-168.5 1175.5,-187.5 1236.5,-187.5 1236.5,-168.5 1175.5,-168.5"/>
<text text-anchor="middle" x="1206" y="-175.5" font-family="Helvetica,sans-Serif" font-size="10.00">ZBuffer.h</text>
</a>
</g>
</g>
<!-- Node1&#45;&gt;Node42 -->
<g id="edge57" class="edge">
<title>Node1&#45;&gt;Node42</title>
<path fill="none" stroke="midnightblue" d="M704.91,-399.58C825.86,-395.82 1118.83,-383.91 1153,-356 1201.2,-316.64 1206.78,-235.28 1206.66,-198.19"/>
<polygon fill="midnightblue" stroke="midnightblue" points="1210.15,-197.74 1206.47,-187.81 1203.15,-197.87 1210.15,-197.74"/>
</g>
<!-- Node3 -->
<g id="node3" class="node">
<title>Node3</title>
<g id="a_node3"><a xlink:title=" ">
<polygon fill="none" stroke="#bfbfbf" points="0,-112.5 0,-131.5 76,-131.5 76,-112.5 0,-112.5"/>
<text text-anchor="middle" x="38" y="-119.5" font-family="Helvetica,sans-Serif" font-size="10.00">sdkddkver.h</text>
</a>
</g>
</g>
<!-- Node2&#45;&gt;Node3 -->
<g id="edge2" class="edge">
<title>Node2&#45;&gt;Node3</title>
<path fill="none" stroke="midnightblue" d="M75.57,-168.08C69.15,-160.38 59.69,-149.03 51.88,-139.65"/>
<polygon fill="midnightblue" stroke="midnightblue" points="54.38,-137.19 45.29,-131.75 49.01,-141.67 54.38,-137.19"/>
</g>
<!-- Node4 -->
<g id="node4" class="node">
<title>Node4</title>
<g id="a_node4"><a xlink:title=" ">
<polygon fill="none" stroke="#bfbfbf" points="94,-112.5 94,-131.5 164,-131.5 164,-112.5 94,-112.5"/>
<text text-anchor="middle" x="129" y="-119.5" font-family="Helvetica,sans-Serif" font-size="10.00">Windows.h</text>
</a>
</g>
</g>
<!-- Node2&#45;&gt;Node4 -->
<g id="edge3" class="edge">
<title>Node2&#45;&gt;Node4</title>
<path fill="none" stroke="midnightblue" d="M90.6,-168.08C97.23,-160.3 107.02,-148.8 115.06,-139.37"/>
<polygon fill="midnightblue" stroke="midnightblue" points="117.73,-141.63 121.55,-131.75 112.4,-137.09 117.73,-141.63"/>
</g>
<!-- Node6 -->
<g id="node6" class="node">
<title>Node6</title>
<g id="a_node6"><a xlink:href="EngineException_8h.html" target="_top" xlink:title=" ">
<polygon fill="none" stroke="black" points="509.5,-168.5 509.5,-187.5 616.5,-187.5 616.5,-168.5 509.5,-168.5"/>
<text text-anchor="middle" x="563" y="-175.5" font-family="Helvetica,sans-Serif" font-size="10.00">EngineException.h</text>
</a>
</g>
</g>
<!-- Node5&#45;&gt;Node6 -->
<g id="edge5" class="edge">
<title>Node5&#45;&gt;Node6</title>
<path fill="none" stroke="midnightblue" d="M446.31,-280.35C447.23,-266.79 450.86,-240.37 465,-224 478.55,-208.31 498.7,-197.78 517.22,-190.87"/>
<polygon fill="midnightblue" stroke="midnightblue" points="518.41,-194.17 526.71,-187.59 516.11,-187.55 518.41,-194.17"/>
</g>
<!-- Node9 -->
<g id="node9" class="node">
<title>Node9</title>
<g id="a_node9"><a xlink:href="Vector3_8h.html" target="_top" xlink:title=" ">
<polygon fill="none" stroke="black" points="265.5,-112.5 265.5,-131.5 398.5,-131.5 398.5,-112.5 265.5,-112.5"/>
<text text-anchor="middle" x="332" y="-119.5" font-family="Helvetica,sans-Serif" font-size="10.00">LinearAlgebra/Vector3.h</text>
</a>
</g>
</g>
<!-- Node5&#45;&gt;Node9 -->
<g id="edge8" class="edge">
<title>Node5&#45;&gt;Node9</title>
<path fill="none" stroke="midnightblue" d="M423.19,-280.39C361.11,-256.91 193.5,-193.15 190,-188 169.01,-157.16 211.61,-140.69 255.5,-132.06"/>
<polygon fill="midnightblue" stroke="midnightblue" points="256.25,-135.48 265.45,-130.23 254.98,-128.59 256.25,-135.48"/>
</g>
<!-- Node21 -->
<g id="node21" class="node">
<title>Node21</title>
<g id="a_node21"><a xlink:href="GDIPlusManager_8h.html" target="_top" xlink:title=" ">
<polygon fill="none" stroke="black" points="161,-224.5 161,-243.5 267,-243.5 267,-224.5 161,-224.5"/>
<text text-anchor="middle" x="214" y="-231.5" font-family="Helvetica,sans-Serif" font-size="10.00">GDIPlusManager.h</text>
</a>
</g>
</g>
<!-- Node5&#45;&gt;Node21 -->
<g id="edge24" class="edge">
<title>Node5&#45;&gt;Node21</title>
<path fill="none" stroke="midnightblue" d="M411.77,-281.03C371.69,-271.7 305.12,-256.21 260.42,-245.8"/>
<polygon fill="midnightblue" stroke="midnightblue" points="261.21,-242.39 250.67,-243.54 259.62,-249.21 261.21,-242.39"/>
</g>
<!-- Node22 -->
<g id="node22" class="node">
<title>Node22</title>
<g id="a_node22"><a xlink:href="Surface_8h.html" target="_top" xlink:title=" ">
<polygon fill="none" stroke="black" points="356,-224.5 356,-243.5 418,-243.5 418,-224.5 356,-224.5"/>
<text text-anchor="middle" x="387" y="-231.5" font-family="Helvetica,sans-Serif" font-size="10.00">Surface.h</text>
</a>
</g>
</g>
<!-- Node5&#45;&gt;Node22 -->
<g id="edge26" class="edge">
<title>Node5&#45;&gt;Node22</title>
<path fill="none" stroke="midnightblue" d="M436.52,-280.32C427.8,-272.34 414.66,-260.31 404.1,-250.65"/>
<polygon fill="midnightblue" stroke="midnightblue" points="406.39,-248 396.65,-243.83 401.67,-253.17 406.39,-248"/>
</g>
<!-- Node27 -->
<g id="node27" class="node">
<title>Node27</title>
<g id="a_node27"><a xlink:title=" ">
<polygon fill="none" stroke="#bfbfbf" points="474,-224.5 474,-243.5 530,-243.5 530,-224.5 474,-224.5"/>
<text text-anchor="middle" x="502" y="-231.5" font-family="Helvetica,sans-Serif" font-size="10.00">d3d11.h</text>
</a>
</g>
</g>
<!-- Node5&#45;&gt;Node27 -->
<g id="edge35" class="edge">
<title>Node5&#45;&gt;Node27</title>
<path fill="none" stroke="midnightblue" d="M455,-280.32C463.19,-272.42 475.51,-260.55 485.47,-250.94"/>
<polygon fill="midnightblue" stroke="midnightblue" points="488.07,-253.29 492.84,-243.83 483.21,-248.26 488.07,-253.29"/>
</g>
<!-- Node28 -->
<g id="node28" class="node">
<title>Node28</title>
<g id="a_node28"><a xlink:title=" ">
<polygon fill="none" stroke="#bfbfbf" points="548.5,-224.5 548.5,-243.5 589.5,-243.5 589.5,-224.5 548.5,-224.5"/>
<text text-anchor="middle" x="569" y="-231.5" font-family="Helvetica,sans-Serif" font-size="10.00">wrl.h</text>
</a>
</g>
</g>
<!-- Node5&#45;&gt;Node28 -->
<g id="edge36" class="edge">
<title>Node5&#45;&gt;Node28</title>
<path fill="none" stroke="midnightblue" d="M465.49,-280.44C485.64,-271.6 517.32,-257.69 540.33,-247.59"/>
<polygon fill="midnightblue" stroke="midnightblue" points="541.85,-250.74 549.6,-243.52 539.04,-244.33 541.85,-250.74"/>
</g>
<!-- Node7 -->
<g id="node7" class="node">
<title>Node7</title>
<g id="a_node7"><a xlink:title=" ">
<polygon fill="none" stroke="#bfbfbf" points="611,-112.5 611,-131.5 655,-131.5 655,-112.5 611,-112.5"/>
<text text-anchor="middle" x="633" y="-119.5" font-family="Helvetica,sans-Serif" font-size="10.00">string</text>
</a>
</g>
</g>
<!-- Node6&#45;&gt;Node7 -->
<g id="edge6" class="edge">
<title>Node6&#45;&gt;Node7</title>
<path fill="none" stroke="midnightblue" d="M574.25,-168.32C584.8,-160.18 600.8,-147.84 613.44,-138.09"/>
<polygon fill="midnightblue" stroke="midnightblue" points="615.77,-140.71 621.55,-131.83 611.49,-135.17 615.77,-140.71"/>
</g>
<!-- Node8 -->
<g id="node8" class="node">
<title>Node8</title>
<g id="a_node8"><a xlink:title=" ">
<polygon fill="none" stroke="#bfbfbf" points="499.5,-112.5 499.5,-131.5 592.5,-131.5 592.5,-112.5 499.5,-112.5"/>
<text text-anchor="middle" x="546" y="-119.5" font-family="Helvetica,sans-Serif" font-size="10.00">source_location</text>
</a>
</g>
</g>
<!-- Node6&#45;&gt;Node8 -->
<g id="edge7" class="edge">
<title>Node6&#45;&gt;Node8</title>
<path fill="none" stroke="midnightblue" d="M560.19,-168.08C557.92,-160.85 554.63,-150.41 551.79,-141.4"/>
<polygon fill="midnightblue" stroke="midnightblue" points="555.1,-140.24 548.75,-131.75 548.42,-142.34 555.1,-140.24"/>
</g>
<!-- Node10 -->
<g id="node10" class="node">
<title>Node10</title>
<g id="a_node10"><a xlink:href="Math_8h.html" target="_top" xlink:title=" ">
<polygon fill="none" stroke="black" points="588,-56.5 588,-75.5 638,-75.5 638,-56.5 588,-56.5"/>
<text text-anchor="middle" x="613" y="-63.5" font-family="Helvetica,sans-Serif" font-size="10.00">Math.h</text>
</a>
</g>
</g>
<!-- Node9&#45;&gt;Node10 -->
<g id="edge9" class="edge">
<title>Node9&#45;&gt;Node10</title>
<path fill="none" stroke="midnightblue" d="M376.53,-112.44C432.41,-101.7 527.1,-83.51 578.06,-73.72"/>
<polygon fill="midnightblue" stroke="midnightblue" points="578.78,-77.14 587.94,-71.82 577.46,-70.27 578.78,-77.14"/>
</g>
<!-- Node9&#45;&gt;Node16 -->
<g id="edge15" class="edge">
<title>Node9&#45;&gt;Node16</title>
<path fill="none" stroke="midnightblue" d="M352.12,-112.44C373.02,-103.56 405.93,-89.56 429.72,-79.45"/>
<polygon fill="midnightblue" stroke="midnightblue" points="431.14,-82.65 438.97,-75.52 428.4,-76.21 431.14,-82.65"/>
</g>
<!-- Node17 -->
<g id="node17" class="node">
<title>Node17</title>
<g id="a_node17"><a xlink:title=" ">
<polygon fill="none" stroke="#bfbfbf" points="249,-0.5 249,-19.5 291,-19.5 291,-0.5 249,-0.5"/>
<text text-anchor="middle" x="270" y="-7.5" font-family="Helvetica,sans-Serif" font-size="10.00">array</text>
</a>
</g>
</g>
<!-- Node9&#45;&gt;Node17 -->
<g id="edge20" class="edge">
<title>Node9&#45;&gt;Node17</title>
<path fill="none" stroke="midnightblue" d="M308.55,-112.41C292.84,-105.28 273.38,-93.46 264,-76 256.3,-61.66 259.12,-42.96 263.09,-29.29"/>
<polygon fill="midnightblue" stroke="midnightblue" points="266.48,-30.19 266.34,-19.6 259.84,-27.97 266.48,-30.19"/>
</g>
<!-- Node18 -->
<g id="node18" class="node">
<title>Node18</title>
<g id="a_node18"><a xlink:title=" ">
<polygon fill="none" stroke="#bfbfbf" points="334.5,-0.5 334.5,-19.5 387.5,-19.5 387.5,-0.5 334.5,-0.5"/>
<text text-anchor="middle" x="361" y="-7.5" font-family="Helvetica,sans-Serif" font-size="10.00">cstddef</text>
</a>
</g>
</g>
<!-- Node9&#45;&gt;Node18 -->
<g id="edge23" class="edge">
<title>Node9&#45;&gt;Node18</title>
<path fill="none" stroke="midnightblue" d="M334.28,-112.37C338.98,-94.54 349.85,-53.3 356.18,-29.27"/>
<polygon fill="midnightblue" stroke="midnightblue" points="359.57,-30.15 358.73,-19.59 352.8,-28.37 359.57,-30.15"/>
</g>
<!-- Node19 -->
<g id="node19" class="node">
<title>Node19</title>
<g id="a_node19"><a xlink:title=" ">
<polygon fill="none" stroke="#bfbfbf" points="406,-0.5 406,-19.5 466,-19.5 466,-0.5 406,-0.5"/>
<text text-anchor="middle" x="436" y="-7.5" font-family="Helvetica,sans-Serif" font-size="10.00">iostream</text>
</a>
</g>
</g>
<!-- Node9&#45;&gt;Node19 -->
<g id="edge21" class="edge">
<title>Node9&#45;&gt;Node19</title>
<path fill="none" stroke="midnightblue" d="M340.16,-112.37C357.55,-93.97 398.49,-50.67 420.82,-27.05"/>
<polygon fill="midnightblue" stroke="midnightblue" points="423.55,-29.26 427.88,-19.59 418.46,-24.45 423.55,-29.26"/>
</g>
<!-- Node20 -->
<g id="node20" class="node">
<title>Node20</title>
<g id="a_node20"><a xlink:title=" ">
<polygon fill="none" stroke="#bfbfbf" points="273.5,-56.5 273.5,-75.5 332.5,-75.5 332.5,-56.5 273.5,-56.5"/>
<text text-anchor="middle" x="303" y="-63.5" font-family="Helvetica,sans-Serif" font-size="10.00">compare</text>
</a>
</g>
</g>
<!-- Node9&#45;&gt;Node20 -->
<g id="edge22" class="edge">
<title>Node9&#45;&gt;Node20</title>
<path fill="none" stroke="midnightblue" d="M327.21,-112.08C323.24,-104.69 317.47,-93.95 312.57,-84.81"/>
<polygon fill="midnightblue" stroke="midnightblue" points="315.51,-82.91 307.7,-75.75 309.35,-86.22 315.51,-82.91"/>
</g>
<!-- Node11 -->
<g id="node11" class="node">
<title>Node11</title>
<g id="a_node11"><a xlink:title=" ">
<polygon fill="none" stroke="#bfbfbf" points="622.5,-0.5 622.5,-19.5 673.5,-19.5 673.5,-0.5 622.5,-0.5"/>
<text text-anchor="middle" x="648" y="-7.5" font-family="Helvetica,sans-Serif" font-size="10.00">math.h</text>
</a>
</g>
</g>
<!-- Node10&#45;&gt;Node11 -->
<g id="edge10" class="edge">
<title>Node10&#45;&gt;Node11</title>
<path fill="none" stroke="midnightblue" d="M618.78,-56.08C623.67,-48.53 630.83,-37.49 636.83,-28.23"/>
<polygon fill="midnightblue" stroke="midnightblue" points="639.83,-30.05 642.33,-19.75 633.95,-26.24 639.83,-30.05"/>
</g>
<!-- Node12 -->
<g id="node12" class="node">
<title>Node12</title>
<g id="a_node12"><a xlink:title=" ">
<polygon fill="none" stroke="#bfbfbf" points="484.5,-0.5 484.5,-19.5 531.5,-19.5 531.5,-0.5 484.5,-0.5"/>
<text text-anchor="middle" x="508" y="-7.5" font-family="Helvetica,sans-Serif" font-size="10.00">cmath</text>
</a>
</g>
</g>
<!-- Node10&#45;&gt;Node12 -->
<g id="edge11" class="edge">
<title>Node10&#45;&gt;Node12</title>
<path fill="none" stroke="midnightblue" d="M596.13,-56.32C579.29,-47.66 553.19,-34.24 533.76,-24.25"/>
<polygon fill="midnightblue" stroke="midnightblue" points="535.32,-21.12 524.83,-19.65 532.12,-27.34 535.32,-21.12"/>
</g>
<!-- Node13 -->
<g id="node13" class="node">
<title>Node13</title>
<g id="a_node13"><a xlink:title=" ">
<polygon fill="none" stroke="#bfbfbf" points="936,-0.5 936,-19.5 980,-19.5 980,-0.5 936,-0.5"/>
<text text-anchor="middle" x="958" y="-7.5" font-family="Helvetica,sans-Serif" font-size="10.00">limits</text>
</a>
</g>
</g>
<!-- Node10&#45;&gt;Node13 -->
<g id="edge12" class="edge">
<title>Node10&#45;&gt;Node13</title>
<path fill="none" stroke="midnightblue" d="M638.09,-61.07C699.47,-51.47 857.15,-26.79 925.54,-16.08"/>
<polygon fill="midnightblue" stroke="midnightblue" points="926.39,-19.49 935.72,-14.49 925.3,-12.58 926.39,-19.49"/>
</g>
<!-- Node14 -->
<g id="node14" class="node">
<title>Node14</title>
<g id="a_node14"><a xlink:title=" ">
<polygon fill="none" stroke="#bfbfbf" points="691.5,-0.5 691.5,-19.5 750.5,-19.5 750.5,-0.5 691.5,-0.5"/>
<text text-anchor="middle" x="721" y="-7.5" font-family="Helvetica,sans-Serif" font-size="10.00">numbers</text>
</a>
</g>
</g>
<!-- Node10&#45;&gt;Node14 -->
<g id="edge13" class="edge">
<title>Node10&#45;&gt;Node14</title>
<path fill="none" stroke="midnightblue" d="M630.35,-56.32C647.67,-47.66 674.52,-34.24 694.5,-24.25"/>
<polygon fill="midnightblue" stroke="midnightblue" points="696.31,-27.26 703.69,-19.65 693.18,-21 696.31,-27.26"/>
</g>
<!-- Node15 -->
<g id="node15" class="node">
<title>Node15</title>
<g id="a_node15"><a xlink:title=" ">
<polygon fill="none" stroke="#bfbfbf" points="550,-0.5 550,-19.5 604,-19.5 604,-0.5 550,-0.5"/>
<text text-anchor="middle" x="577" y="-7.5" font-family="Helvetica,sans-Serif" font-size="10.00">random</text>
</a>
</g>
</g>
<!-- Node10&#45;&gt;Node15 -->
<g id="edge14" class="edge">
<title>Node10&#45;&gt;Node15</title>
<path fill="none" stroke="midnightblue" d="M607.06,-56.08C602.02,-48.53 594.66,-37.49 588.49,-28.23"/>
<polygon fill="midnightblue" stroke="midnightblue" points="591.29,-26.13 582.83,-19.75 585.47,-30.01 591.29,-26.13"/>
</g>
<!-- Node16&#45;&gt;Node12 -->
<g id="edge17" class="edge">
<title>Node16&#45;&gt;Node12</title>
<path fill="none" stroke="midnightblue" d="M467.09,-56.08C474.16,-48.3 484.59,-36.8 493.15,-27.37"/>
<polygon fill="midnightblue" stroke="midnightblue" points="495.93,-29.51 500.06,-19.75 490.75,-24.8 495.93,-29.51"/>
</g>
<!-- Node16&#45;&gt;Node17 -->
<g id="edge16" class="edge">
<title>Node16&#45;&gt;Node17</title>
<path fill="none" stroke="midnightblue" d="M429.05,-56.44C394,-46.43 336.25,-29.93 300.82,-19.81"/>
<polygon fill="midnightblue" stroke="midnightblue" points="301.61,-16.39 291.03,-17.01 299.68,-23.12 301.61,-16.39"/>
</g>
<!-- Node16&#45;&gt;Node18 -->
<g id="edge18" class="edge">
<title>Node16&#45;&gt;Node18</title>
<path fill="none" stroke="midnightblue" d="M443.25,-56.32C427.68,-47.74 403.62,-34.49 385.54,-24.52"/>
<polygon fill="midnightblue" stroke="midnightblue" points="387.15,-21.42 376.71,-19.65 383.78,-27.55 387.15,-21.42"/>
</g>
<!-- Node16&#45;&gt;Node19 -->
<g id="edge19" class="edge">
<title>Node16&#45;&gt;Node19</title>
<path fill="none" stroke="midnightblue" d="M455.2,-56.08C452.09,-48.77 447.58,-38.18 443.71,-29.1"/>
<polygon fill="midnightblue" stroke="midnightblue" points="446.87,-27.58 439.73,-19.75 440.43,-30.32 446.87,-27.58"/>
</g>
<!-- Node21&#45;&gt;Node2 -->
<g id="edge25" class="edge">
<title>Node21&#45;&gt;Node2</title>
<path fill="none" stroke="midnightblue" d="M193.24,-224.44C171.68,-215.56 137.74,-201.56 113.21,-191.45"/>
<polygon fill="midnightblue" stroke="midnightblue" points="114.24,-188.09 103.66,-187.52 111.57,-194.56 114.24,-188.09"/>
</g>
<!-- Node22&#45;&gt;Node2 -->
<g id="edge27" class="edge">
<title>Node22&#45;&gt;Node2</title>
<path fill="none" stroke="midnightblue" d="M355.9,-227.47C297.94,-217.18 173.98,-195.16 115.2,-184.72"/>
<polygon fill="midnightblue" stroke="midnightblue" points="115.81,-181.27 105.35,-182.97 114.58,-188.16 115.81,-181.27"/>
</g>
<!-- Node22&#45;&gt;Node6 -->
<g id="edge30" class="edge">
<title>Node22&#45;&gt;Node6</title>
<path fill="none" stroke="midnightblue" d="M414.89,-224.44C444.75,-215.28 492.31,-200.69 525.46,-190.52"/>
<polygon fill="midnightblue" stroke="midnightblue" points="526.71,-193.8 535.24,-187.52 524.66,-187.1 526.71,-193.8"/>
</g>
<!-- Node22&#45;&gt;Node7 -->
<g id="edge33" class="edge">
<title>Node22&#45;&gt;Node7</title>
<path fill="none" stroke="midnightblue" d="M418.39,-229.19C480,-221.41 611.99,-203.16 626,-188 637.18,-175.9 637.93,-156.62 636.49,-142.19"/>
<polygon fill="midnightblue" stroke="midnightblue" points="639.9,-141.3 635.01,-131.89 632.97,-142.29 639.9,-141.3"/>
</g>
<!-- Node23 -->
<g id="node23" class="node">
<title>Node23</title>
<g id="a_node23"><a xlink:href="Colors_8h.html" target="_top" xlink:title=" ">
<polygon fill="none" stroke="black" points="199,-168.5 199,-187.5 255,-187.5 255,-168.5 199,-168.5"/>
<text text-anchor="middle" x="227" y="-175.5" font-family="Helvetica,sans-Serif" font-size="10.00">Colors.h</text>
</a>
</g>
</g>
<!-- Node22&#45;&gt;Node23 -->
<g id="edge28" class="edge">
<title>Node22&#45;&gt;Node23</title>
<path fill="none" stroke="midnightblue" d="M361.65,-224.44C334.73,-215.36 292,-200.94 261.91,-190.78"/>
<polygon fill="midnightblue" stroke="midnightblue" points="262.83,-187.4 252.23,-187.52 260.59,-194.03 262.83,-187.4"/>
</g>
<!-- Node24 -->
<g id="node24" class="node">
<title>Node24</title>
<g id="a_node24"><a xlink:title=" ">
<polygon fill="none" stroke="#bfbfbf" points="359,-168.5 359,-187.5 415,-187.5 415,-168.5 359,-168.5"/>
<text text-anchor="middle" x="387" y="-175.5" font-family="Helvetica,sans-Serif" font-size="10.00">assert.h</text>
</a>
</g>
</g>
<!-- Node22&#45;&gt;Node24 -->
<g id="edge31" class="edge">
<title>Node22&#45;&gt;Node24</title>
<path fill="none" stroke="midnightblue" d="M387,-224.08C387,-217.01 387,-206.86 387,-197.99"/>
<polygon fill="midnightblue" stroke="midnightblue" points="390.5,-197.75 387,-187.75 383.5,-197.75 390.5,-197.75"/>
</g>
<!-- Node25 -->
<g id="node25" class="node">
<title>Node25</title>
<g id="a_node25"><a xlink:title=" ">
<polygon fill="none" stroke="#bfbfbf" points="433,-168.5 433,-187.5 491,-187.5 491,-168.5 433,-168.5"/>
<text text-anchor="middle" x="462" y="-175.5" font-family="Helvetica,sans-Serif" font-size="10.00">memory</text>
</a>
</g>
</g>
<!-- Node22&#45;&gt;Node25 -->
<g id="edge32" class="edge">
<title>Node22&#45;&gt;Node25</title>
<path fill="none" stroke="midnightblue" d="M399.05,-224.32C410.46,-216.11 427.83,-203.6 441.43,-193.81"/>
<polygon fill="midnightblue" stroke="midnightblue" points="443.66,-196.52 449.73,-187.83 439.57,-190.84 443.66,-196.52"/>
</g>
<!-- Node26 -->
<g id="node26" class="node">
<title>Node26</title>
<g id="a_node26"><a xlink:title=" ">
<polygon fill="none" stroke="#bfbfbf" points="273,-168.5 273,-187.5 341,-187.5 341,-168.5 273,-168.5"/>
<text text-anchor="middle" x="307" y="-175.5" font-family="Helvetica,sans-Serif" font-size="10.00">filesystem</text>
</a>
</g>
</g>
<!-- Node22&#45;&gt;Node26 -->
<g id="edge34" class="edge">
<title>Node22&#45;&gt;Node26</title>
<path fill="none" stroke="midnightblue" d="M374.15,-224.32C361.78,-215.98 342.87,-203.21 328.26,-193.35"/>
<polygon fill="midnightblue" stroke="midnightblue" points="330.07,-190.35 319.82,-187.65 326.15,-196.15 330.07,-190.35"/>
</g>
<!-- Node23&#45;&gt;Node9 -->
<g id="edge29" class="edge">
<title>Node23&#45;&gt;Node9</title>
<path fill="none" stroke="midnightblue" d="M243.87,-168.32C260.71,-159.66 286.81,-146.24 306.24,-136.25"/>
<polygon fill="midnightblue" stroke="midnightblue" points="307.88,-139.34 315.17,-131.65 304.68,-133.12 307.88,-139.34"/>
</g>
<!-- Node30&#45;&gt;Node9 -->
<g id="edge39" class="edge">
<title>Node30&#45;&gt;Node9</title>
<path fill="none" stroke="midnightblue" d="M847.86,-224.42C801.3,-210.96 707.13,-184.67 626,-168 552.73,-152.95 468.23,-140.52 408.68,-132.57"/>
<polygon fill="midnightblue" stroke="midnightblue" points="408.98,-129.08 398.61,-131.23 408.06,-136.01 408.98,-129.08"/>
</g>
<!-- Node31 -->
<g id="node31" class="node">
<title>Node31</title>
<g id="a_node31"><a xlink:href="tiny__obj__loader_8h.html" target="_top" xlink:title=" ">
<polygon fill="none" stroke="black" points="749,-168.5 749,-187.5 849,-187.5 849,-168.5 749,-168.5"/>
<text text-anchor="middle" x="799" y="-175.5" font-family="Helvetica,sans-Serif" font-size="10.00">tiny_obj_loader.h</text>
</a>
</g>
</g>
<!-- Node30&#45;&gt;Node31 -->
<g id="edge40" class="edge">
<title>Node30&#45;&gt;Node31</title>
<path fill="none" stroke="midnightblue" d="M864.47,-224.32C852.41,-215.98 833.97,-203.21 819.73,-193.35"/>
<polygon fill="midnightblue" stroke="midnightblue" points="821.72,-190.47 811.5,-187.65 817.73,-196.22 821.72,-190.47"/>
</g>
<!-- Node33 -->
<g id="node33" class="node">
<title>Node33</title>
<g id="a_node33"><a xlink:title=" ">
<polygon fill="none" stroke="#bfbfbf" points="845.5,-112.5 845.5,-131.5 892.5,-131.5 892.5,-112.5 845.5,-112.5"/>
<text text-anchor="middle" x="869" y="-119.5" font-family="Helvetica,sans-Serif" font-size="10.00">vector</text>
</a>
</g>
</g>
<!-- Node30&#45;&gt;Node33 -->
<g id="edge50" class="edge">
<title>Node30&#45;&gt;Node33</title>
<path fill="none" stroke="midnightblue" d="M876.37,-224.37C875.08,-206.62 872.1,-165.67 870.35,-141.6"/>
<polygon fill="midnightblue" stroke="midnightblue" points="873.84,-141.31 869.62,-131.59 866.86,-141.82 873.84,-141.31"/>
</g>
<!-- Node34 -->
<g id="node34" class="node">
<title>Node34</title>
<g id="a_node34"><a xlink:href="Miniball_8h.html" target="_top" xlink:title=" ">
<polygon fill="none" stroke="black" points="1045.5,-168.5 1045.5,-187.5 1110.5,-187.5 1110.5,-168.5 1045.5,-168.5"/>
<text text-anchor="middle" x="1078" y="-175.5" font-family="Helvetica,sans-Serif" font-size="10.00">Miniball.h</text>
</a>
</g>
</g>
<!-- Node30&#45;&gt;Node34 -->
<g id="edge44" class="edge">
<title>Node30&#45;&gt;Node34</title>
<path fill="none" stroke="midnightblue" d="M908.85,-224.44C943.4,-215.16 998.68,-200.31 1036.58,-190.13"/>
<polygon fill="midnightblue" stroke="midnightblue" points="1037.55,-193.49 1046.3,-187.52 1035.73,-186.73 1037.55,-193.49"/>
</g>
<!-- Node39 -->
<g id="node39" class="node">
<title>Node39</title>
<g id="a_node39"><a xlink:title=" ">
<polygon fill="none" stroke="#bfbfbf" points="905.5,-168.5 905.5,-187.5 960.5,-187.5 960.5,-168.5 905.5,-168.5"/>
<text text-anchor="middle" x="933" y="-175.5" font-family="Helvetica,sans-Serif" font-size="10.00">fstream</text>
</a>
</g>
</g>
<!-- Node30&#45;&gt;Node39 -->
<g id="edge51" class="edge">
<title>Node30&#45;&gt;Node39</title>
<path fill="none" stroke="midnightblue" d="M886,-224.32C894.19,-216.42 906.51,-204.55 916.47,-194.94"/>
<polygon fill="midnightblue" stroke="midnightblue" points="919.07,-197.29 923.84,-187.83 914.21,-192.26 919.07,-197.29"/>
</g>
<!-- Node40 -->
<g id="node40" class="node">
<title>Node40</title>
<g id="a_node40"><a xlink:title=" ">
<polygon fill="none" stroke="#bfbfbf" points="978.5,-168.5 978.5,-187.5 1027.5,-187.5 1027.5,-168.5 978.5,-168.5"/>
<text text-anchor="middle" x="1003" y="-175.5" font-family="Helvetica,sans-Serif" font-size="10.00">cctype</text>
</a>
</g>
</g>
<!-- Node30&#45;&gt;Node40 -->
<g id="edge52" class="edge">
<title>Node30&#45;&gt;Node40</title>
<path fill="none" stroke="midnightblue" d="M896.97,-224.44C917.61,-215.6 950.06,-201.69 973.63,-191.59"/>
<polygon fill="midnightblue" stroke="midnightblue" points="975.32,-194.67 983.13,-187.52 972.56,-188.24 975.32,-194.67"/>
</g>
<!-- Node31&#45;&gt;Node7 -->
<g id="edge42" class="edge">
<title>Node31&#45;&gt;Node7</title>
<path fill="none" stroke="midnightblue" d="M772.7,-168.44C743.41,-158.92 696.09,-143.52 664.76,-133.33"/>
<polygon fill="midnightblue" stroke="midnightblue" points="665.79,-129.99 655.2,-130.22 663.62,-136.64 665.79,-129.99"/>
</g>
<!-- Node32 -->
<g id="node32" class="node">
<title>Node32</title>
<g id="a_node32"><a xlink:title=" ">
<polygon fill="none" stroke="#bfbfbf" points="780,-112.5 780,-131.5 818,-131.5 818,-112.5 780,-112.5"/>
<text text-anchor="middle" x="799" y="-119.5" font-family="Helvetica,sans-Serif" font-size="10.00">map</text>
</a>
</g>
</g>
<!-- Node31&#45;&gt;Node32 -->
<g id="edge41" class="edge">
<title>Node31&#45;&gt;Node32</title>
<path fill="none" stroke="midnightblue" d="M799,-168.08C799,-161.01 799,-150.86 799,-141.99"/>
<polygon fill="midnightblue" stroke="midnightblue" points="802.5,-141.75 799,-131.75 795.5,-141.75 802.5,-141.75"/>
</g>
<!-- Node31&#45;&gt;Node33 -->
<g id="edge43" class="edge">
<title>Node31&#45;&gt;Node33</title>
<path fill="none" stroke="midnightblue" d="M810.25,-168.32C820.8,-160.18 836.8,-147.84 849.44,-138.09"/>
<polygon fill="midnightblue" stroke="midnightblue" points="851.77,-140.71 857.55,-131.83 847.49,-135.17 851.77,-140.71"/>
</g>
<!-- Node34&#45;&gt;Node13 -->
<g id="edge49" class="edge">
<title>Node34&#45;&gt;Node13</title>
<path fill="none" stroke="midnightblue" d="M1051.46,-168.42C1024.86,-159.27 986.51,-144.42 977,-132 954.12,-102.14 953.79,-55.77 955.77,-29.96"/>
<polygon fill="midnightblue" stroke="midnightblue" points="959.28,-29.98 956.77,-19.69 952.32,-29.3 959.28,-29.98"/>
</g>
<!-- Node35 -->
<g id="node35" class="node">
<title>Node35</title>
<g id="a_node35"><a xlink:title=" ">
<polygon fill="none" stroke="#bfbfbf" points="1180,-112.5 1180,-131.5 1232,-131.5 1232,-112.5 1180,-112.5"/>
<text text-anchor="middle" x="1206" y="-119.5" font-family="Helvetica,sans-Serif" font-size="10.00">cassert</text>
</a>
</g>
</g>
<!-- Node34&#45;&gt;Node35 -->
<g id="edge45" class="edge">
<title>Node34&#45;&gt;Node35</title>
<path fill="none" stroke="midnightblue" d="M1098.28,-168.44C1119.35,-159.56 1152.52,-145.56 1176.49,-135.45"/>
<polygon fill="midnightblue" stroke="midnightblue" points="1177.96,-138.63 1185.81,-131.52 1175.24,-132.18 1177.96,-138.63"/>
</g>
<!-- Node34&#45;&gt;Node36 -->
<g id="edge46" class="edge">
<title>Node34&#45;&gt;Node36</title>
<path fill="none" stroke="midnightblue" d="M1086.59,-168.08C1094.16,-160.22 1105.38,-148.57 1114.51,-139.08"/>
<polygon fill="midnightblue" stroke="midnightblue" points="1117.16,-141.38 1121.57,-131.75 1112.12,-136.53 1117.16,-141.38"/>
</g>
<!-- Node37 -->
<g id="node37" class="node">
<title>Node37</title>
<g id="a_node37"><a xlink:title=" ">
<polygon fill="none" stroke="#bfbfbf" points="986,-112.5 986,-131.5 1018,-131.5 1018,-112.5 986,-112.5"/>
<text text-anchor="middle" x="1002" y="-119.5" font-family="Helvetica,sans-Serif" font-size="10.00">list</text>
</a>
</g>
</g>
<!-- Node34&#45;&gt;Node37 -->
<g id="edge47" class="edge">
<title>Node34&#45;&gt;Node37</title>
<path fill="none" stroke="midnightblue" d="M1065.79,-168.32C1054.22,-160.11 1036.62,-147.6 1022.84,-137.81"/>
<polygon fill="midnightblue" stroke="midnightblue" points="1024.61,-134.77 1014.43,-131.83 1020.56,-140.48 1024.61,-134.77"/>
</g>
<!-- Node38 -->
<g id="node38" class="node">
<title>Node38</title>
<g id="a_node38"><a xlink:title=" ">
<polygon fill="none" stroke="#bfbfbf" points="1036,-112.5 1036,-131.5 1080,-131.5 1080,-112.5 1036,-112.5"/>
<text text-anchor="middle" x="1058" y="-119.5" font-family="Helvetica,sans-Serif" font-size="10.00">ctime</text>
</a>
</g>
</g>
<!-- Node34&#45;&gt;Node38 -->
<g id="edge48" class="edge">
<title>Node34&#45;&gt;Node38</title>
<path fill="none" stroke="midnightblue" d="M1074.7,-168.08C1072.02,-160.85 1068.15,-150.41 1064.81,-141.4"/>
<polygon fill="midnightblue" stroke="midnightblue" points="1068,-139.91 1061.24,-131.75 1061.43,-142.34 1068,-139.91"/>
</g>
<!-- Node41&#45;&gt;Node5 -->
<g id="edge54" class="edge">
<title>Node41&#45;&gt;Node5</title>
<path fill="none" stroke="midnightblue" d="M446,-336.08C446,-329.01 446,-318.86 446,-309.99"/>
<polygon fill="midnightblue" stroke="midnightblue" points="449.5,-309.75 446,-299.75 442.5,-309.75 449.5,-309.75"/>
</g>
<!-- Node41&#45;&gt;Node9 -->
<g id="edge55" class="edge">
<title>Node41&#45;&gt;Node9</title>
<path fill="none" stroke="midnightblue" d="M375.77,-342.84C306.07,-336.5 202.56,-314.83 152,-244 134.17,-219.02 167.53,-179.14 181,-168 202.02,-150.6 229.59,-139.93 255.41,-133.39"/>
<polygon fill="midnightblue" stroke="midnightblue" points="256.27,-136.78 265.2,-131.07 254.67,-129.96 256.27,-136.78"/>
</g>
<!-- Node42&#45;&gt;Node13 -->
<g id="edge58" class="edge">
<title>Node42&#45;&gt;Node13</title>
<path fill="none" stroke="midnightblue" d="M1216.94,-168.2C1231.59,-155.33 1254.29,-130.86 1241,-112 1183.02,-29.74 1051.71,-14.1 990.52,-11.39"/>
<polygon fill="midnightblue" stroke="midnightblue" points="990.41,-7.89 980.29,-11.03 990.16,-14.88 990.41,-7.89"/>
</g>
<!-- Node42&#45;&gt;Node35 -->
<g id="edge59" class="edge">
<title>Node42&#45;&gt;Node35</title>
<path fill="none" stroke="midnightblue" d="M1206,-168.08C1206,-161.01 1206,-150.86 1206,-141.99"/>
<polygon fill="midnightblue" stroke="midnightblue" points="1209.5,-141.75 1206,-131.75 1202.5,-141.75 1209.5,-141.75"/>
</g>
</g>
</svg>
