<?xml version="1.0" encoding="UTF-8" standalone="no"?>
<!DOCTYPE svg PUBLIC "-//W3C//DTD SVG 1.1//EN"
 "http://www.w3.org/Graphics/SVG/1.1/DTD/svg11.dtd">
<!-- Generated by graphviz version 2.43.0 (0)
 -->
<!-- Title: include/Scene.h Pages: 1 -->
<svg width="850pt" height="364pt"
 viewBox="0.00 0.00 850.00 364.00" xmlns="http://www.w3.org/2000/svg" xmlns:xlink="http://www.w3.org/1999/xlink">
<g id="graph0" class="graph" transform="scale(1 1) rotate(0) translate(4 360)">
<title>include/Scene.h</title>
<!-- Node1 -->
<g id="node1" class="node">
<title>Node1</title>
<g id="a_node1"><a xlink:title=" ">
<polygon fill="#bfbfbf" stroke="black" points="105.5,-336.5 105.5,-355.5 198.5,-355.5 198.5,-336.5 105.5,-336.5"/>
<text text-anchor="middle" x="152" y="-343.5" font-family="Helvetica,sans-Serif" font-size="10.00">include/Scene.h</text>
</a>
</g>
</g>
<!-- Node2 -->
<g id="node2" class="node">
<title>Node2</title>
<g id="a_node2"><a xlink:href="Keyboard_8h.html" target="_top" xlink:title=" ">
<polygon fill="none" stroke="black" points="5.5,-280.5 5.5,-299.5 76.5,-299.5 76.5,-280.5 5.5,-280.5"/>
<text text-anchor="middle" x="41" y="-287.5" font-family="Helvetica,sans-Serif" font-size="10.00">Keyboard.h</text>
</a>
</g>
</g>
<!-- Node1&#45;&gt;Node2 -->
<g id="edge1" class="edge">
<title>Node1&#45;&gt;Node2</title>
<path fill="none" stroke="midnightblue" d="M134.17,-336.32C116.28,-327.62 88.52,-314.12 67.95,-304.11"/>
<polygon fill="midnightblue" stroke="midnightblue" points="69.31,-300.88 58.79,-299.65 66.25,-307.18 69.31,-300.88"/>
</g>
<!-- Node5 -->
<g id="node5" class="node">
<title>Node5</title>
<g id="a_node5"><a xlink:href="Mouse_8h.html" target="_top" xlink:title=" ">
<polygon fill="none" stroke="black" points="95,-280.5 95,-299.5 153,-299.5 153,-280.5 95,-280.5"/>
<text text-anchor="middle" x="124" y="-287.5" font-family="Helvetica,sans-Serif" font-size="10.00">Mouse.h</text>
</a>
</g>
</g>
<!-- Node1&#45;&gt;Node5 -->
<g id="edge4" class="edge">
<title>Node1&#45;&gt;Node5</title>
<path fill="none" stroke="midnightblue" d="M147.38,-336.08C143.54,-328.69 137.98,-317.95 133.24,-308.81"/>
<polygon fill="midnightblue" stroke="midnightblue" points="136.25,-307.02 128.54,-299.75 130.03,-310.24 136.25,-307.02"/>
</g>
<!-- Node19 -->
<g id="node19" class="node">
<title>Node19</title>
<g id="a_node19"><a xlink:href="Graphics_8h.html" target="_top" xlink:title=" ">
<polygon fill="none" stroke="black" points="403,-280.5 403,-299.5 471,-299.5 471,-280.5 403,-280.5"/>
<text text-anchor="middle" x="437" y="-287.5" font-family="Helvetica,sans-Serif" font-size="10.00">Graphics.h</text>
</a>
</g>
</g>
<!-- Node1&#45;&gt;Node19 -->
<g id="edge24" class="edge">
<title>Node1&#45;&gt;Node19</title>
<path fill="none" stroke="midnightblue" d="M197.16,-336.44C250.72,-326.29 339.43,-309.49 392.64,-299.41"/>
<polygon fill="midnightblue" stroke="midnightblue" points="393.61,-302.78 402.79,-297.48 392.31,-295.91 393.61,-302.78"/>
</g>
<!-- Node21 -->
<g id="node21" class="node">
<title>Node21</title>
<g id="a_node21"><a xlink:title=" ">
<polygon fill="none" stroke="#bfbfbf" points="334,-112.5 334,-131.5 378,-131.5 378,-112.5 334,-112.5"/>
<text text-anchor="middle" x="356" y="-119.5" font-family="Helvetica,sans-Serif" font-size="10.00">string</text>
</a>
</g>
</g>
<!-- Node1&#45;&gt;Node21 -->
<g id="edge50" class="edge">
<title>Node1&#45;&gt;Node21</title>
<path fill="none" stroke="midnightblue" d="M154.1,-336.33C162.54,-301.62 193.83,-174.27 200,-168 201.12,-166.86 278.89,-144.77 324.18,-131.97"/>
<polygon fill="midnightblue" stroke="midnightblue" points="325.18,-135.32 333.85,-129.24 323.28,-128.59 325.18,-135.32"/>
</g>
<!-- Node3 -->
<g id="node3" class="node">
<title>Node3</title>
<g id="a_node3"><a xlink:title=" ">
<polygon fill="none" stroke="#bfbfbf" points="0,-224.5 0,-243.5 44,-243.5 44,-224.5 0,-224.5"/>
<text text-anchor="middle" x="22" y="-231.5" font-family="Helvetica,sans-Serif" font-size="10.00">bitset</text>
</a>
</g>
</g>
<!-- Node2&#45;&gt;Node3 -->
<g id="edge2" class="edge">
<title>Node2&#45;&gt;Node3</title>
<path fill="none" stroke="midnightblue" d="M37.86,-280.08C35.32,-272.85 31.64,-262.41 28.47,-253.4"/>
<polygon fill="midnightblue" stroke="midnightblue" points="31.7,-252.02 25.08,-243.75 25.1,-254.35 31.7,-252.02"/>
</g>
<!-- Node4 -->
<g id="node4" class="node">
<title>Node4</title>
<g id="a_node4"><a xlink:title=" ">
<polygon fill="none" stroke="#bfbfbf" points="62.5,-224.5 62.5,-243.5 109.5,-243.5 109.5,-224.5 62.5,-224.5"/>
<text text-anchor="middle" x="86" y="-231.5" font-family="Helvetica,sans-Serif" font-size="10.00">queue</text>
</a>
</g>
</g>
<!-- Node2&#45;&gt;Node4 -->
<g id="edge3" class="edge">
<title>Node2&#45;&gt;Node4</title>
<path fill="none" stroke="midnightblue" d="M48.43,-280.08C54.85,-272.38 64.31,-261.03 72.12,-251.65"/>
<polygon fill="midnightblue" stroke="midnightblue" points="74.99,-253.67 78.71,-243.75 69.62,-249.19 74.99,-253.67"/>
</g>
<!-- Node5&#45;&gt;Node4 -->
<g id="edge23" class="edge">
<title>Node5&#45;&gt;Node4</title>
<path fill="none" stroke="midnightblue" d="M117.73,-280.08C112.36,-272.46 104.48,-261.26 97.92,-251.94"/>
<polygon fill="midnightblue" stroke="midnightblue" points="100.78,-249.91 92.16,-243.75 95.05,-253.94 100.78,-249.91"/>
</g>
<!-- Node6 -->
<g id="node6" class="node">
<title>Node6</title>
<g id="a_node6"><a xlink:href="Vector2_8h.html" target="_top" xlink:title=" ">
<polygon fill="none" stroke="black" points="71.5,-112.5 71.5,-131.5 204.5,-131.5 204.5,-112.5 71.5,-112.5"/>
<text text-anchor="middle" x="138" y="-119.5" font-family="Helvetica,sans-Serif" font-size="10.00">LinearAlgebra/Vector2.h</text>
</a>
</g>
</g>
<!-- Node5&#45;&gt;Node6 -->
<g id="edge5" class="edge">
<title>Node5&#45;&gt;Node6</title>
<path fill="none" stroke="midnightblue" d="M124.75,-280.08C126.96,-253.95 133.43,-177.21 136.43,-141.58"/>
<polygon fill="midnightblue" stroke="midnightblue" points="139.92,-141.83 137.28,-131.57 132.95,-141.24 139.92,-141.83"/>
</g>
<!-- Node7 -->
<g id="node7" class="node">
<title>Node7</title>
<g id="a_node7"><a xlink:href="Math_8h.html" target="_top" xlink:title=" ">
<polygon fill="none" stroke="black" points="491,-56.5 491,-75.5 541,-75.5 541,-56.5 491,-56.5"/>
<text text-anchor="middle" x="516" y="-63.5" font-family="Helvetica,sans-Serif" font-size="10.00">Math.h</text>
</a>
</g>
</g>
<!-- Node6&#45;&gt;Node7 -->
<g id="edge6" class="edge">
<title>Node6&#45;&gt;Node7</title>
<path fill="none" stroke="midnightblue" d="M197.9,-112.44C277.56,-101.06 415.86,-81.31 480.62,-72.05"/>
<polygon fill="midnightblue" stroke="midnightblue" points="481.33,-75.49 490.74,-70.61 480.34,-68.56 481.33,-75.49"/>
</g>
<!-- Node13 -->
<g id="node13" class="node">
<title>Node13</title>
<g id="a_node13"><a xlink:href="Matrix2_8h.html" target="_top" xlink:title=" ">
<polygon fill="none" stroke="black" points="59.5,-56.5 59.5,-75.5 122.5,-75.5 122.5,-56.5 59.5,-56.5"/>
<text text-anchor="middle" x="91" y="-63.5" font-family="Helvetica,sans-Serif" font-size="10.00">Matrix2.h</text>
</a>
</g>
</g>
<!-- Node6&#45;&gt;Node13 -->
<g id="edge12" class="edge">
<title>Node6&#45;&gt;Node13</title>
<path fill="none" stroke="midnightblue" d="M130.24,-112.08C123.46,-104.3 113.46,-92.8 105.24,-83.37"/>
<polygon fill="midnightblue" stroke="midnightblue" points="107.82,-81 98.62,-75.75 102.54,-85.59 107.82,-81"/>
</g>
<!-- Node14 -->
<g id="node14" class="node">
<title>Node14</title>
<g id="a_node14"><a xlink:title=" ">
<polygon fill="none" stroke="#bfbfbf" points="127,-0.5 127,-19.5 187,-19.5 187,-0.5 127,-0.5"/>
<text text-anchor="middle" x="157" y="-7.5" font-family="Helvetica,sans-Serif" font-size="10.00">iostream</text>
</a>
</g>
</g>
<!-- Node6&#45;&gt;Node14 -->
<g id="edge22" class="edge">
<title>Node6&#45;&gt;Node14</title>
<path fill="none" stroke="midnightblue" d="M107.12,-112.47C75.25,-102.03 32.45,-82.42 50,-56 64.83,-33.67 93.13,-22.4 116.9,-16.72"/>
<polygon fill="midnightblue" stroke="midnightblue" points="117.72,-20.13 126.76,-14.61 116.25,-13.28 117.72,-20.13"/>
</g>
<!-- Node15 -->
<g id="node15" class="node">
<title>Node15</title>
<g id="a_node15"><a xlink:href="Matrix3_8h.html" target="_top" xlink:title=" ">
<polygon fill="none" stroke="black" points="333.5,-56.5 333.5,-75.5 396.5,-75.5 396.5,-56.5 333.5,-56.5"/>
<text text-anchor="middle" x="365" y="-63.5" font-family="Helvetica,sans-Serif" font-size="10.00">Matrix3.h</text>
</a>
</g>
</g>
<!-- Node6&#45;&gt;Node15 -->
<g id="edge14" class="edge">
<title>Node6&#45;&gt;Node15</title>
<path fill="none" stroke="midnightblue" d="M173.97,-112.44C214.59,-102.78 280.6,-87.08 323.41,-76.89"/>
<polygon fill="midnightblue" stroke="midnightblue" points="324.31,-80.28 333.23,-74.56 322.69,-73.47 324.31,-80.28"/>
</g>
<!-- Node16 -->
<g id="node16" class="node">
<title>Node16</title>
<g id="a_node16"><a xlink:title=" ">
<polygon fill="none" stroke="#bfbfbf" points="321,-0.5 321,-19.5 363,-19.5 363,-0.5 321,-0.5"/>
<text text-anchor="middle" x="342" y="-7.5" font-family="Helvetica,sans-Serif" font-size="10.00">array</text>
</a>
</g>
</g>
<!-- Node6&#45;&gt;Node16 -->
<g id="edge19" class="edge">
<title>Node6&#45;&gt;Node16</title>
<path fill="none" stroke="midnightblue" d="M145.27,-112.17C157.08,-98.35 181.77,-71.59 208,-56 217.06,-50.61 274.34,-32.18 311.02,-20.65"/>
<polygon fill="midnightblue" stroke="midnightblue" points="312.26,-23.92 320.76,-17.59 310.17,-17.24 312.26,-23.92"/>
</g>
<!-- Node17 -->
<g id="node17" class="node">
<title>Node17</title>
<g id="a_node17"><a xlink:title=" ">
<polygon fill="none" stroke="#bfbfbf" points="249.5,-0.5 249.5,-19.5 302.5,-19.5 302.5,-0.5 249.5,-0.5"/>
<text text-anchor="middle" x="276" y="-7.5" font-family="Helvetica,sans-Serif" font-size="10.00">cstddef</text>
</a>
</g>
</g>
<!-- Node6&#45;&gt;Node17 -->
<g id="edge21" class="edge">
<title>Node6&#45;&gt;Node17</title>
<path fill="none" stroke="midnightblue" d="M140.93,-112.27C145.93,-98.6 157.3,-72.04 175,-56 193.34,-39.38 218.82,-28.09 239.59,-20.97"/>
<polygon fill="midnightblue" stroke="midnightblue" points="240.93,-24.22 249.37,-17.81 238.77,-17.56 240.93,-24.22"/>
</g>
<!-- Node18 -->
<g id="node18" class="node">
<title>Node18</title>
<g id="a_node18"><a xlink:title=" ">
<polygon fill="none" stroke="#bfbfbf" points="217.5,-56.5 217.5,-75.5 276.5,-75.5 276.5,-56.5 217.5,-56.5"/>
<text text-anchor="middle" x="247" y="-63.5" font-family="Helvetica,sans-Serif" font-size="10.00">compare</text>
</a>
</g>
</g>
<!-- Node6&#45;&gt;Node18 -->
<g id="edge20" class="edge">
<title>Node6&#45;&gt;Node18</title>
<path fill="none" stroke="midnightblue" d="M155.51,-112.32C173.07,-103.62 200.33,-90.12 220.53,-80.11"/>
<polygon fill="midnightblue" stroke="midnightblue" points="222.12,-83.23 229.53,-75.65 219.02,-76.96 222.12,-83.23"/>
</g>
<!-- Node8 -->
<g id="node8" class="node">
<title>Node8</title>
<g id="a_node8"><a xlink:title=" ">
<polygon fill="none" stroke="#bfbfbf" points="446.5,-0.5 446.5,-19.5 497.5,-19.5 497.5,-0.5 446.5,-0.5"/>
<text text-anchor="middle" x="472" y="-7.5" font-family="Helvetica,sans-Serif" font-size="10.00">math.h</text>
</a>
</g>
</g>
<!-- Node7&#45;&gt;Node8 -->
<g id="edge7" class="edge">
<title>Node7&#45;&gt;Node8</title>
<path fill="none" stroke="midnightblue" d="M508.73,-56.08C502.46,-48.38 493.21,-37.03 485.57,-27.65"/>
<polygon fill="midnightblue" stroke="midnightblue" points="488.16,-25.29 479.13,-19.75 482.73,-29.71 488.16,-25.29"/>
</g>
<!-- Node9 -->
<g id="node9" class="node">
<title>Node9</title>
<g id="a_node9"><a xlink:title=" ">
<polygon fill="none" stroke="#bfbfbf" points="381.5,-0.5 381.5,-19.5 428.5,-19.5 428.5,-0.5 381.5,-0.5"/>
<text text-anchor="middle" x="405" y="-7.5" font-family="Helvetica,sans-Serif" font-size="10.00">cmath</text>
</a>
</g>
</g>
<!-- Node7&#45;&gt;Node9 -->
<g id="edge8" class="edge">
<title>Node7&#45;&gt;Node9</title>
<path fill="none" stroke="midnightblue" d="M498.17,-56.32C480.28,-47.62 452.52,-34.12 431.95,-24.11"/>
<polygon fill="midnightblue" stroke="midnightblue" points="433.31,-20.88 422.79,-19.65 430.25,-27.18 433.31,-20.88"/>
</g>
<!-- Node10 -->
<g id="node10" class="node">
<title>Node10</title>
<g id="a_node10"><a xlink:title=" ">
<polygon fill="none" stroke="#bfbfbf" points="516,-0.5 516,-19.5 560,-19.5 560,-0.5 516,-0.5"/>
<text text-anchor="middle" x="538" y="-7.5" font-family="Helvetica,sans-Serif" font-size="10.00">limits</text>
</a>
</g>
</g>
<!-- Node7&#45;&gt;Node10 -->
<g id="edge9" class="edge">
<title>Node7&#45;&gt;Node10</title>
<path fill="none" stroke="midnightblue" d="M519.63,-56.08C522.61,-48.77 526.93,-38.18 530.62,-29.1"/>
<polygon fill="midnightblue" stroke="midnightblue" points="533.9,-30.33 534.43,-19.75 527.42,-27.69 533.9,-30.33"/>
</g>
<!-- Node11 -->
<g id="node11" class="node">
<title>Node11</title>
<g id="a_node11"><a xlink:title=" ">
<polygon fill="none" stroke="#bfbfbf" points="578.5,-0.5 578.5,-19.5 637.5,-19.5 637.5,-0.5 578.5,-0.5"/>
<text text-anchor="middle" x="608" y="-7.5" font-family="Helvetica,sans-Serif" font-size="10.00">numbers</text>
</a>
</g>
</g>
<!-- Node7&#45;&gt;Node11 -->
<g id="edge10" class="edge">
<title>Node7&#45;&gt;Node11</title>
<path fill="none" stroke="midnightblue" d="M530.78,-56.32C545.27,-47.82 567.57,-34.73 584.49,-24.8"/>
<polygon fill="midnightblue" stroke="midnightblue" points="586.4,-27.74 593.26,-19.65 582.86,-21.7 586.4,-27.74"/>
</g>
<!-- Node12 -->
<g id="node12" class="node">
<title>Node12</title>
<g id="a_node12"><a xlink:title=" ">
<polygon fill="none" stroke="#bfbfbf" points="656,-0.5 656,-19.5 710,-19.5 710,-0.5 656,-0.5"/>
<text text-anchor="middle" x="683" y="-7.5" font-family="Helvetica,sans-Serif" font-size="10.00">random</text>
</a>
</g>
</g>
<!-- Node7&#45;&gt;Node12 -->
<g id="edge11" class="edge">
<title>Node7&#45;&gt;Node12</title>
<path fill="none" stroke="midnightblue" d="M541,-56.92C569,-47.86 614.63,-33.11 646.59,-22.77"/>
<polygon fill="midnightblue" stroke="midnightblue" points="648.01,-25.99 656.45,-19.59 645.85,-19.33 648.01,-25.99"/>
</g>
<!-- Node13&#45;&gt;Node14 -->
<g id="edge13" class="edge">
<title>Node13&#45;&gt;Node14</title>
<path fill="none" stroke="midnightblue" d="M101.6,-56.32C111.46,-48.26 126.35,-36.08 138.22,-26.37"/>
<polygon fill="midnightblue" stroke="midnightblue" points="140.68,-28.88 146.2,-19.83 136.25,-23.46 140.68,-28.88"/>
</g>
<!-- Node15&#45;&gt;Node9 -->
<g id="edge16" class="edge">
<title>Node15&#45;&gt;Node9</title>
<path fill="none" stroke="midnightblue" d="M371.61,-56.08C377.26,-48.46 385.54,-37.26 392.45,-27.94"/>
<polygon fill="midnightblue" stroke="midnightblue" points="395.38,-29.87 398.52,-19.75 389.75,-25.7 395.38,-29.87"/>
</g>
<!-- Node15&#45;&gt;Node14 -->
<g id="edge18" class="edge">
<title>Node15&#45;&gt;Node14</title>
<path fill="none" stroke="midnightblue" d="M333.41,-56.8C296.92,-47.33 236.83,-31.73 197.08,-21.41"/>
<polygon fill="midnightblue" stroke="midnightblue" points="197.75,-17.96 187.19,-18.84 195.99,-24.74 197.75,-17.96"/>
</g>
<!-- Node15&#45;&gt;Node16 -->
<g id="edge15" class="edge">
<title>Node15&#45;&gt;Node16</title>
<path fill="none" stroke="midnightblue" d="M361.2,-56.08C358.09,-48.77 353.58,-38.18 349.71,-29.1"/>
<polygon fill="midnightblue" stroke="midnightblue" points="352.87,-27.58 345.73,-19.75 346.43,-30.32 352.87,-27.58"/>
</g>
<!-- Node15&#45;&gt;Node17 -->
<g id="edge17" class="edge">
<title>Node15&#45;&gt;Node17</title>
<path fill="none" stroke="midnightblue" d="M350.7,-56.32C336.82,-47.9 315.51,-34.97 299.2,-25.07"/>
<polygon fill="midnightblue" stroke="midnightblue" points="300.63,-21.85 290.26,-19.65 297,-27.83 300.63,-21.85"/>
</g>
<!-- Node20 -->
<g id="node20" class="node">
<title>Node20</title>
<g id="a_node20"><a xlink:href="EngineException_8h.html" target="_top" xlink:title=" ">
<polygon fill="none" stroke="black" points="209.5,-168.5 209.5,-187.5 316.5,-187.5 316.5,-168.5 209.5,-168.5"/>
<text text-anchor="middle" x="263" y="-175.5" font-family="Helvetica,sans-Serif" font-size="10.00">EngineException.h</text>
</a>
</g>
</g>
<!-- Node19&#45;&gt;Node20 -->
<g id="edge25" class="edge">
<title>Node19&#45;&gt;Node20</title>
<path fill="none" stroke="midnightblue" d="M410.55,-280.39C388.75,-272.64 357.55,-260.02 333,-244 311.64,-230.06 290.68,-209.4 277.35,-195.14"/>
<polygon fill="midnightblue" stroke="midnightblue" points="279.76,-192.59 270.43,-187.57 274.6,-197.32 279.76,-192.59"/>
</g>
<!-- Node23 -->
<g id="node23" class="node">
<title>Node23</title>
<g id="a_node23"><a xlink:href="Vector3_8h.html" target="_top" xlink:title=" ">
<polygon fill="none" stroke="black" points="396.5,-112.5 396.5,-131.5 529.5,-131.5 529.5,-112.5 396.5,-112.5"/>
<text text-anchor="middle" x="463" y="-119.5" font-family="Helvetica,sans-Serif" font-size="10.00">LinearAlgebra/Vector3.h</text>
</a>
</g>
</g>
<!-- Node19&#45;&gt;Node23 -->
<g id="edge28" class="edge">
<title>Node19&#45;&gt;Node23</title>
<path fill="none" stroke="midnightblue" d="M471.15,-286C525.16,-279.19 628.81,-257.31 674,-188 678.85,-180.55 679.59,-174.91 674,-168 657.09,-147.11 592.84,-135.5 539.63,-129.33"/>
<polygon fill="midnightblue" stroke="midnightblue" points="539.83,-125.83 529.5,-128.2 539.05,-132.79 539.83,-125.83"/>
</g>
<!-- Node24 -->
<g id="node24" class="node">
<title>Node24</title>
<g id="a_node24"><a xlink:href="GDIPlusManager_8h.html" target="_top" xlink:title=" ">
<polygon fill="none" stroke="black" points="721,-224.5 721,-243.5 827,-243.5 827,-224.5 721,-224.5"/>
<text text-anchor="middle" x="774" y="-231.5" font-family="Helvetica,sans-Serif" font-size="10.00">GDIPlusManager.h</text>
</a>
</g>
</g>
<!-- Node19&#45;&gt;Node24 -->
<g id="edge35" class="edge">
<title>Node19&#45;&gt;Node24</title>
<path fill="none" stroke="midnightblue" d="M471.17,-283.53C527.23,-274.54 639.59,-256.54 710.56,-245.17"/>
<polygon fill="midnightblue" stroke="midnightblue" points="711.4,-248.58 720.72,-243.54 710.29,-241.66 711.4,-248.58"/>
</g>
<!-- Node28 -->
<g id="node28" class="node">
<title>Node28</title>
<g id="a_node28"><a xlink:href="Surface_8h.html" target="_top" xlink:title=" ">
<polygon fill="none" stroke="black" points="476,-224.5 476,-243.5 538,-243.5 538,-224.5 476,-224.5"/>
<text text-anchor="middle" x="507" y="-231.5" font-family="Helvetica,sans-Serif" font-size="10.00">Surface.h</text>
</a>
</g>
</g>
<!-- Node19&#45;&gt;Node28 -->
<g id="edge39" class="edge">
<title>Node19&#45;&gt;Node28</title>
<path fill="none" stroke="midnightblue" d="M448.25,-280.32C458.8,-272.18 474.8,-259.84 487.44,-250.09"/>
<polygon fill="midnightblue" stroke="midnightblue" points="489.77,-252.71 495.55,-243.83 485.49,-247.17 489.77,-252.71"/>
</g>
<!-- Node33 -->
<g id="node33" class="node">
<title>Node33</title>
<g id="a_node33"><a xlink:title=" ">
<polygon fill="none" stroke="#bfbfbf" points="342,-224.5 342,-243.5 398,-243.5 398,-224.5 342,-224.5"/>
<text text-anchor="middle" x="370" y="-231.5" font-family="Helvetica,sans-Serif" font-size="10.00">d3d11.h</text>
</a>
</g>
</g>
<!-- Node19&#45;&gt;Node33 -->
<g id="edge48" class="edge">
<title>Node19&#45;&gt;Node33</title>
<path fill="none" stroke="midnightblue" d="M426.24,-280.32C416.23,-272.26 401.11,-260.08 389.07,-250.37"/>
<polygon fill="midnightblue" stroke="midnightblue" points="390.94,-247.38 380.96,-243.83 386.55,-252.83 390.94,-247.38"/>
</g>
<!-- Node34 -->
<g id="node34" class="node">
<title>Node34</title>
<g id="a_node34"><a xlink:title=" ">
<polygon fill="none" stroke="#bfbfbf" points="416.5,-224.5 416.5,-243.5 457.5,-243.5 457.5,-224.5 416.5,-224.5"/>
<text text-anchor="middle" x="437" y="-231.5" font-family="Helvetica,sans-Serif" font-size="10.00">wrl.h</text>
</a>
</g>
</g>
<!-- Node19&#45;&gt;Node34 -->
<g id="edge49" class="edge">
<title>Node19&#45;&gt;Node34</title>
<path fill="none" stroke="midnightblue" d="M437,-280.08C437,-273.01 437,-262.86 437,-253.99"/>
<polygon fill="midnightblue" stroke="midnightblue" points="440.5,-253.75 437,-243.75 433.5,-253.75 440.5,-253.75"/>
</g>
<!-- Node20&#45;&gt;Node21 -->
<g id="edge26" class="edge">
<title>Node20&#45;&gt;Node21</title>
<path fill="none" stroke="midnightblue" d="M277.94,-168.32C292.59,-159.82 315.13,-146.73 332.24,-136.8"/>
<polygon fill="midnightblue" stroke="midnightblue" points="334.2,-139.7 341.1,-131.65 330.69,-133.65 334.2,-139.7"/>
</g>
<!-- Node22 -->
<g id="node22" class="node">
<title>Node22</title>
<g id="a_node22"><a xlink:title=" ">
<polygon fill="none" stroke="#bfbfbf" points="222.5,-112.5 222.5,-131.5 315.5,-131.5 315.5,-112.5 222.5,-112.5"/>
<text text-anchor="middle" x="269" y="-119.5" font-family="Helvetica,sans-Serif" font-size="10.00">source_location</text>
</a>
</g>
</g>
<!-- Node20&#45;&gt;Node22 -->
<g id="edge27" class="edge">
<title>Node20&#45;&gt;Node22</title>
<path fill="none" stroke="midnightblue" d="M263.99,-168.08C264.79,-160.93 265.93,-150.64 266.92,-141.69"/>
<polygon fill="midnightblue" stroke="midnightblue" points="270.4,-142.08 268.03,-131.75 263.44,-141.3 270.4,-142.08"/>
</g>
<!-- Node23&#45;&gt;Node7 -->
<g id="edge29" class="edge">
<title>Node23&#45;&gt;Node7</title>
<path fill="none" stroke="midnightblue" d="M471.75,-112.08C479.47,-104.22 490.9,-92.57 500.22,-83.08"/>
<polygon fill="midnightblue" stroke="midnightblue" points="502.9,-85.34 507.41,-75.75 497.91,-80.44 502.9,-85.34"/>
</g>
<!-- Node23&#45;&gt;Node14 -->
<g id="edge32" class="edge">
<title>Node23&#45;&gt;Node14</title>
<path fill="none" stroke="midnightblue" d="M431.84,-112.47C403.33,-104.3 360.19,-91.02 324,-76 306.01,-68.53 302.9,-63.69 285,-56 255.2,-43.19 220.42,-31.14 194.64,-22.74"/>
<polygon fill="midnightblue" stroke="midnightblue" points="195.47,-19.33 184.88,-19.59 193.32,-25.99 195.47,-19.33"/>
</g>
<!-- Node23&#45;&gt;Node15 -->
<g id="edge30" class="edge">
<title>Node23&#45;&gt;Node15</title>
<path fill="none" stroke="midnightblue" d="M447.25,-112.32C431.68,-103.74 407.62,-90.49 389.54,-80.52"/>
<polygon fill="midnightblue" stroke="midnightblue" points="391.15,-77.42 380.71,-75.65 387.78,-83.55 391.15,-77.42"/>
</g>
<!-- Node23&#45;&gt;Node16 -->
<g id="edge31" class="edge">
<title>Node23&#45;&gt;Node16</title>
<path fill="none" stroke="midnightblue" d="M461.93,-112.33C459.84,-98.73 454.01,-72.27 439,-56 429.5,-45.7 397.47,-31.9 372.79,-22.31"/>
<polygon fill="midnightblue" stroke="midnightblue" points="374.01,-19.03 363.42,-18.73 371.51,-25.57 374.01,-19.03"/>
</g>
<!-- Node23&#45;&gt;Node17 -->
<g id="edge34" class="edge">
<title>Node23&#45;&gt;Node17</title>
<path fill="none" stroke="midnightblue" d="M457.31,-112.14C447.98,-98.27 428.14,-71.46 405,-56 389.54,-45.67 344.63,-31.12 312.14,-21.38"/>
<polygon fill="midnightblue" stroke="midnightblue" points="313.09,-18.01 302.51,-18.53 311.1,-24.73 313.09,-18.01"/>
</g>
<!-- Node23&#45;&gt;Node18 -->
<g id="edge33" class="edge">
<title>Node23&#45;&gt;Node18</title>
<path fill="none" stroke="midnightblue" d="M428.77,-112.44C390.06,-102.77 327.13,-87.03 286.4,-76.85"/>
<polygon fill="midnightblue" stroke="midnightblue" points="287.1,-73.42 276.55,-74.39 285.41,-80.21 287.1,-73.42"/>
</g>
<!-- Node25 -->
<g id="node25" class="node">
<title>Node25</title>
<g id="a_node25"><a xlink:href="Win_8h.html" target="_top" xlink:title=" ">
<polygon fill="none" stroke="black" points="737,-168.5 737,-187.5 781,-187.5 781,-168.5 737,-168.5"/>
<text text-anchor="middle" x="759" y="-175.5" font-family="Helvetica,sans-Serif" font-size="10.00">Win.h</text>
</a>
</g>
</g>
<!-- Node24&#45;&gt;Node25 -->
<g id="edge36" class="edge">
<title>Node24&#45;&gt;Node25</title>
<path fill="none" stroke="midnightblue" d="M771.52,-224.08C769.51,-216.85 766.61,-206.41 764.11,-197.4"/>
<polygon fill="midnightblue" stroke="midnightblue" points="767.48,-196.45 761.43,-187.75 760.74,-198.32 767.48,-196.45"/>
</g>
<!-- Node26 -->
<g id="node26" class="node">
<title>Node26</title>
<g id="a_node26"><a xlink:title=" ">
<polygon fill="none" stroke="#bfbfbf" points="766,-112.5 766,-131.5 842,-131.5 842,-112.5 766,-112.5"/>
<text text-anchor="middle" x="804" y="-119.5" font-family="Helvetica,sans-Serif" font-size="10.00">sdkddkver.h</text>
</a>
</g>
</g>
<!-- Node25&#45;&gt;Node26 -->
<g id="edge37" class="edge">
<title>Node25&#45;&gt;Node26</title>
<path fill="none" stroke="midnightblue" d="M766.43,-168.08C772.85,-160.38 782.31,-149.03 790.12,-139.65"/>
<polygon fill="midnightblue" stroke="midnightblue" points="792.99,-141.67 796.71,-131.75 787.62,-137.19 792.99,-141.67"/>
</g>
<!-- Node27 -->
<g id="node27" class="node">
<title>Node27</title>
<g id="a_node27"><a xlink:title=" ">
<polygon fill="none" stroke="#bfbfbf" points="678,-112.5 678,-131.5 748,-131.5 748,-112.5 678,-112.5"/>
<text text-anchor="middle" x="713" y="-119.5" font-family="Helvetica,sans-Serif" font-size="10.00">Windows.h</text>
</a>
</g>
</g>
<!-- Node25&#45;&gt;Node27 -->
<g id="edge38" class="edge">
<title>Node25&#45;&gt;Node27</title>
<path fill="none" stroke="midnightblue" d="M751.4,-168.08C744.77,-160.3 734.98,-148.8 726.94,-139.37"/>
<polygon fill="midnightblue" stroke="midnightblue" points="729.6,-137.09 720.45,-131.75 724.27,-141.63 729.6,-137.09"/>
</g>
<!-- Node28&#45;&gt;Node20 -->
<g id="edge43" class="edge">
<title>Node28&#45;&gt;Node20</title>
<path fill="none" stroke="midnightblue" d="M475.6,-226.05C434.02,-216.85 360.29,-200.53 311.52,-189.74"/>
<polygon fill="midnightblue" stroke="midnightblue" points="312.03,-186.27 301.51,-187.52 310.52,-193.1 312.03,-186.27"/>
</g>
<!-- Node28&#45;&gt;Node21 -->
<g id="edge46" class="edge">
<title>Node28&#45;&gt;Node21</title>
<path fill="none" stroke="midnightblue" d="M506.89,-224.18C506.23,-210.37 502.96,-183.63 488,-168 484.39,-164.23 425.66,-145.09 387.77,-133.02"/>
<polygon fill="midnightblue" stroke="midnightblue" points="388.75,-129.66 378.16,-129.97 386.63,-136.33 388.75,-129.66"/>
</g>
<!-- Node28&#45;&gt;Node25 -->
<g id="edge40" class="edge">
<title>Node28&#45;&gt;Node25</title>
<path fill="none" stroke="midnightblue" d="M538.15,-226.32C586.24,-216.02 678.09,-196.34 726.81,-185.9"/>
<polygon fill="midnightblue" stroke="midnightblue" points="727.75,-189.28 736.8,-183.76 726.29,-182.43 727.75,-189.28"/>
</g>
<!-- Node29 -->
<g id="node29" class="node">
<title>Node29</title>
<g id="a_node29"><a xlink:href="Colors_8h.html" target="_top" xlink:title=" ">
<polygon fill="none" stroke="black" points="609,-168.5 609,-187.5 665,-187.5 665,-168.5 609,-168.5"/>
<text text-anchor="middle" x="637" y="-175.5" font-family="Helvetica,sans-Serif" font-size="10.00">Colors.h</text>
</a>
</g>
</g>
<!-- Node28&#45;&gt;Node29 -->
<g id="edge41" class="edge">
<title>Node28&#45;&gt;Node29</title>
<path fill="none" stroke="midnightblue" d="M527.6,-224.44C548.99,-215.56 582.68,-201.56 607.02,-191.45"/>
<polygon fill="midnightblue" stroke="midnightblue" points="608.61,-194.58 616.5,-187.52 605.92,-188.12 608.61,-194.58"/>
</g>
<!-- Node30 -->
<g id="node30" class="node">
<title>Node30</title>
<g id="a_node30"><a xlink:title=" ">
<polygon fill="none" stroke="#bfbfbf" points="535,-168.5 535,-187.5 591,-187.5 591,-168.5 535,-168.5"/>
<text text-anchor="middle" x="563" y="-175.5" font-family="Helvetica,sans-Serif" font-size="10.00">assert.h</text>
</a>
</g>
</g>
<!-- Node28&#45;&gt;Node30 -->
<g id="edge44" class="edge">
<title>Node28&#45;&gt;Node30</title>
<path fill="none" stroke="midnightblue" d="M516,-224.32C524.19,-216.42 536.51,-204.55 546.47,-194.94"/>
<polygon fill="midnightblue" stroke="midnightblue" points="549.07,-197.29 553.84,-187.83 544.21,-192.26 549.07,-197.29"/>
</g>
<!-- Node31 -->
<g id="node31" class="node">
<title>Node31</title>
<g id="a_node31"><a xlink:title=" ">
<polygon fill="none" stroke="#bfbfbf" points="335,-168.5 335,-187.5 393,-187.5 393,-168.5 335,-168.5"/>
<text text-anchor="middle" x="364" y="-175.5" font-family="Helvetica,sans-Serif" font-size="10.00">memory</text>
</a>
</g>
</g>
<!-- Node28&#45;&gt;Node31 -->
<g id="edge45" class="edge">
<title>Node28&#45;&gt;Node31</title>
<path fill="none" stroke="midnightblue" d="M484.34,-224.44C460.6,-215.48 423.09,-201.31 396.26,-191.18"/>
<polygon fill="midnightblue" stroke="midnightblue" points="397.14,-187.77 386.55,-187.52 394.67,-194.32 397.14,-187.77"/>
</g>
<!-- Node32 -->
<g id="node32" class="node">
<title>Node32</title>
<g id="a_node32"><a xlink:title=" ">
<polygon fill="none" stroke="#bfbfbf" points="411,-168.5 411,-187.5 479,-187.5 479,-168.5 411,-168.5"/>
<text text-anchor="middle" x="445" y="-175.5" font-family="Helvetica,sans-Serif" font-size="10.00">filesystem</text>
</a>
</g>
</g>
<!-- Node28&#45;&gt;Node32 -->
<g id="edge47" class="edge">
<title>Node28&#45;&gt;Node32</title>
<path fill="none" stroke="midnightblue" d="M497.04,-224.32C487.87,-216.34 474.06,-204.31 462.97,-194.65"/>
<polygon fill="midnightblue" stroke="midnightblue" points="464.98,-191.76 455.14,-187.83 460.38,-197.04 464.98,-191.76"/>
</g>
<!-- Node29&#45;&gt;Node23 -->
<g id="edge42" class="edge">
<title>Node29&#45;&gt;Node23</title>
<path fill="none" stroke="midnightblue" d="M609.43,-168.44C579.9,-159.28 532.88,-144.69 500.12,-134.52"/>
<polygon fill="midnightblue" stroke="midnightblue" points="501.03,-131.14 490.44,-131.52 498.96,-137.82 501.03,-131.14"/>
</g>
</g>
</svg>
