<?xml version="1.0" encoding="UTF-8" standalone="no"?>
<!DOCTYPE svg PUBLIC "-//W3C//DTD SVG 1.1//EN"
 "http://www.w3.org/Graphics/SVG/1.1/DTD/svg11.dtd">
<!-- Generated by graphviz version 2.43.0 (0)
 -->
<!-- Title: objl::Vertex Pages: 1 -->
<svg width="201pt" height="106pt"
 viewBox="0.00 0.00 201.00 106.00" xmlns="http://www.w3.org/2000/svg" xmlns:xlink="http://www.w3.org/1999/xlink">
<g id="graph0" class="graph" transform="scale(1 1) rotate(0) translate(4 102)">
<title>objl::Vertex</title>
<!-- Node1 -->
<g id="node1" class="node">
<title>Node1</title>
<g id="a_node1"><a xlink:title=" ">
<polygon fill="#bfbfbf" stroke="black" points="60.5,-0.5 60.5,-19.5 132.5,-19.5 132.5,-0.5 60.5,-0.5"/>
<text text-anchor="middle" x="96.5" y="-7.5" font-family="Helvetica,sans-Serif" font-size="10.00">objl::Vertex</text>
</a>
</g>
</g>
<!-- Node2 -->
<g id="node2" class="node">
<title>Node2</title>
<g id="a_node2"><a xlink:href="structobjl_1_1Vector2.html" target="_top" xlink:title=" ">
<polygon fill="none" stroke="black" points="0,-78.5 0,-97.5 77,-97.5 77,-78.5 0,-78.5"/>
<text text-anchor="middle" x="38.5" y="-85.5" font-family="Helvetica,sans-Serif" font-size="10.00">objl::Vector2</text>
</a>
</g>
</g>
<!-- Node2&#45;&gt;Node1 -->
<g id="edge1" class="edge">
<title>Node2&#45;&gt;Node1</title>
<path fill="none" stroke="#9a32cd" stroke-dasharray="5,2" d="M34.44,-68.3C33.36,-58.54 33.79,-46.82 39.5,-38 45.03,-29.45 54.07,-23.55 63.33,-19.5"/>
<polygon fill="#9a32cd" stroke="#9a32cd" points="31,-68.95 36.1,-78.24 37.9,-67.8 31,-68.95"/>
<text text-anchor="middle" x="86" y="-46.5" font-family="Helvetica,sans-Serif" font-size="10.00"> TextureCoordinate</text>
</g>
<!-- Node3 -->
<g id="node3" class="node">
<title>Node3</title>
<g id="a_node3"><a xlink:href="structobjl_1_1Vector3.html" target="_top" xlink:title=" ">
<polygon fill="none" stroke="black" points="116,-78.5 116,-97.5 193,-97.5 193,-78.5 116,-78.5"/>
<text text-anchor="middle" x="154.5" y="-85.5" font-family="Helvetica,sans-Serif" font-size="10.00">objl::Vector3</text>
</a>
</g>
</g>
<!-- Node3&#45;&gt;Node1 -->
<g id="edge2" class="edge">
<title>Node3&#45;&gt;Node1</title>
<path fill="none" stroke="#9a32cd" stroke-dasharray="5,2" d="M148.82,-68.75C145.18,-58.97 139.77,-47.09 132.5,-38 126.64,-30.68 118.37,-24.29 111.23,-19.57"/>
<polygon fill="#9a32cd" stroke="#9a32cd" points="145.54,-69.98 152.07,-78.32 152.17,-67.72 145.54,-69.98"/>
<text text-anchor="middle" x="164.5" y="-52" font-family="Helvetica,sans-Serif" font-size="10.00"> Normal</text>
<text text-anchor="middle" x="164.5" y="-41" font-family="Helvetica,sans-Serif" font-size="10.00">Position</text>
</g>
</g>
</svg>
