<?xml version="1.0" encoding="UTF-8" standalone="no"?>
<!DOCTYPE svg PUBLIC "-//W3C//DTD SVG 1.1//EN"
 "http://www.w3.org/Graphics/SVG/1.1/DTD/svg11.dtd">
<!-- Generated by graphviz version 2.43.0 (0)
 -->
<!-- Title: objl::Vector3::Vector3 Pages: 1 -->
<svg width="297pt" height="142pt"
 viewBox="0.00 0.00 297.00 142.00" xmlns="http://www.w3.org/2000/svg" xmlns:xlink="http://www.w3.org/1999/xlink">
<g id="graph0" class="graph" transform="scale(1 1) rotate(0) translate(4 138)">
<title>objl::Vector3::Vector3</title>
<!-- Node1 -->
<g id="node1" class="node">
<title>Node1</title>
<g id="a_node1"><a xlink:title=" ">
<polygon fill="#bfbfbf" stroke="black" points="169,-57.5 169,-76.5 289,-76.5 289,-57.5 169,-57.5"/>
<text text-anchor="middle" x="229" y="-64.5" font-family="Helvetica,sans-Serif" font-size="10.00">objl::Vector3::Vector3</text>
</a>
</g>
</g>
<!-- Node2 -->
<g id="node2" class="node">
<title>Node2</title>
<g id="a_node2"><a xlink:href="structobjl_1_1Vector3.html#aad6d0e4b5663e0c07fb262af93a7bdbe" target="_top" xlink:title=" ">
<polygon fill="none" stroke="black" points="1.5,-114.5 1.5,-133.5 131.5,-133.5 131.5,-114.5 1.5,-114.5"/>
<text text-anchor="middle" x="66.5" y="-121.5" font-family="Helvetica,sans-Serif" font-size="10.00">objl::Vector3::operator*</text>
</a>
</g>
</g>
<!-- Node1&#45;&gt;Node2 -->
<g id="edge1" class="edge">
<title>Node1&#45;&gt;Node2</title>
<path fill="none" stroke="midnightblue" d="M196.62,-80.45C178.25,-88.1 154.5,-97.6 133,-105 123.26,-108.35 112.57,-111.62 102.71,-114.47"/>
<polygon fill="midnightblue" stroke="midnightblue" points="198.1,-83.63 205.97,-76.53 195.39,-77.17 198.1,-83.63"/>
</g>
<!-- Node3 -->
<g id="node3" class="node">
<title>Node3</title>
<g id="a_node3"><a xlink:href="structobjl_1_1Vector3.html#aae220dab9d79c4e80cdc483befbcbccf" target="_top" xlink:title=" ">
<polygon fill="none" stroke="black" points="0,-76.5 0,-95.5 133,-95.5 133,-76.5 0,-76.5"/>
<text text-anchor="middle" x="66.5" y="-83.5" font-family="Helvetica,sans-Serif" font-size="10.00">objl::Vector3::operator+</text>
</a>
</g>
</g>
<!-- Node1&#45;&gt;Node3 -->
<g id="edge2" class="edge">
<title>Node1&#45;&gt;Node3</title>
<path fill="none" stroke="midnightblue" d="M158.49,-75.23C150.04,-76.23 141.44,-77.25 133.05,-78.24"/>
<polygon fill="midnightblue" stroke="midnightblue" points="159.17,-78.67 168.69,-74.02 158.35,-71.72 159.17,-78.67"/>
</g>
<!-- Node4 -->
<g id="node4" class="node">
<title>Node4</title>
<g id="a_node4"><a xlink:href="structobjl_1_1Vector3.html#a3ba5404ac7d95ee14fe3152fa155a0ea" target="_top" xlink:title=" ">
<polygon fill="none" stroke="black" points="2.5,-38.5 2.5,-57.5 130.5,-57.5 130.5,-38.5 2.5,-38.5"/>
<text text-anchor="middle" x="66.5" y="-45.5" font-family="Helvetica,sans-Serif" font-size="10.00">objl::Vector3::operator&#45;</text>
</a>
</g>
</g>
<!-- Node1&#45;&gt;Node4 -->
<g id="edge3" class="edge">
<title>Node1&#45;&gt;Node4</title>
<path fill="none" stroke="midnightblue" d="M158.67,-58.79C149.34,-57.69 139.82,-56.56 130.6,-55.47"/>
<polygon fill="midnightblue" stroke="midnightblue" points="158.35,-62.28 168.69,-59.98 159.17,-55.33 158.35,-62.28"/>
</g>
<!-- Node5 -->
<g id="node5" class="node">
<title>Node5</title>
<g id="a_node5"><a xlink:href="structobjl_1_1Vector3.html#a0585749d51d46aa7ab499dee3e7eb6a0" target="_top" xlink:title=" ">
<polygon fill="none" stroke="black" points="2.5,-0.5 2.5,-19.5 130.5,-19.5 130.5,-0.5 2.5,-0.5"/>
<text text-anchor="middle" x="66.5" y="-7.5" font-family="Helvetica,sans-Serif" font-size="10.00">objl::Vector3::operator/</text>
</a>
</g>
</g>
<!-- Node1&#45;&gt;Node5 -->
<g id="edge4" class="edge">
<title>Node1&#45;&gt;Node5</title>
<path fill="none" stroke="midnightblue" d="M196.62,-53.55C178.25,-45.9 154.5,-36.4 133,-29 123.26,-25.65 112.57,-22.38 102.71,-19.53"/>
<polygon fill="midnightblue" stroke="midnightblue" points="195.39,-56.83 205.97,-57.47 198.1,-50.37 195.39,-56.83"/>
</g>
</g>
</svg>
