<?xml version="1.0" encoding="UTF-8" standalone="no"?>
<!DOCTYPE svg PUBLIC "-//W3C//DTD SVG 1.1//EN"
 "http://www.w3.org/Graphics/SVG/1.1/DTD/svg11.dtd">
<!-- Generated by graphviz version 2.43.0 (0)
 -->
<!-- Title: objl::Mesh Pages: 1 -->
<svg width="119pt" height="184pt"
 viewBox="0.00 0.00 118.50 184.00" xmlns="http://www.w3.org/2000/svg" xmlns:xlink="http://www.w3.org/1999/xlink">
<g id="graph0" class="graph" transform="scale(1 1) rotate(0) translate(4 180)">
<title>objl::Mesh</title>
<!-- Node1 -->
<g id="node1" class="node">
<title>Node1</title>
<g id="a_node1"><a xlink:title=" ">
<polygon fill="#bfbfbf" stroke="black" points="7,-0.5 7,-19.5 74,-19.5 74,-0.5 7,-0.5"/>
<text text-anchor="middle" x="40.5" y="-7.5" font-family="Helvetica,sans-Serif" font-size="10.00">objl::Mesh</text>
</a>
</g>
</g>
<!-- Node2 -->
<g id="node2" class="node">
<title>Node2</title>
<g id="a_node2"><a xlink:href="structobjl_1_1Material.html" target="_top" xlink:title=" ">
<polygon fill="none" stroke="black" points="0,-67.5 0,-86.5 81,-86.5 81,-67.5 0,-67.5"/>
<text text-anchor="middle" x="40.5" y="-74.5" font-family="Helvetica,sans-Serif" font-size="10.00">objl::Material</text>
</a>
</g>
</g>
<!-- Node2&#45;&gt;Node1 -->
<g id="edge1" class="edge">
<title>Node2&#45;&gt;Node1</title>
<path fill="none" stroke="#9a32cd" stroke-dasharray="5,2" d="M40.5,-57.04C40.5,-44.67 40.5,-29.12 40.5,-19.63"/>
<polygon fill="#9a32cd" stroke="#9a32cd" points="37,-57.23 40.5,-67.23 44,-57.23 37,-57.23"/>
<text text-anchor="middle" x="75.5" y="-41" font-family="Helvetica,sans-Serif" font-size="10.00"> MeshMaterial</text>
</g>
<!-- Node3 -->
<g id="node3" class="node">
<title>Node3</title>
<g id="a_node3"><a xlink:href="structobjl_1_1Vector3.html" target="_top" xlink:title=" ">
<polygon fill="none" stroke="black" points="2,-156.5 2,-175.5 79,-175.5 79,-156.5 2,-156.5"/>
<text text-anchor="middle" x="40.5" y="-163.5" font-family="Helvetica,sans-Serif" font-size="10.00">objl::Vector3</text>
</a>
</g>
</g>
<!-- Node3&#45;&gt;Node2 -->
<g id="edge2" class="edge">
<title>Node3&#45;&gt;Node2</title>
<path fill="none" stroke="#9a32cd" stroke-dasharray="5,2" d="M40.5,-146.19C40.5,-127.74 40.5,-100.41 40.5,-86.62"/>
<polygon fill="#9a32cd" stroke="#9a32cd" points="37,-146.34 40.5,-156.34 44,-146.34 37,-146.34"/>
<text text-anchor="middle" x="48.5" y="-130" font-family="Helvetica,sans-Serif" font-size="10.00"> Ka</text>
<text text-anchor="middle" x="48.5" y="-119" font-family="Helvetica,sans-Serif" font-size="10.00">Kd</text>
<text text-anchor="middle" x="48.5" y="-108" font-family="Helvetica,sans-Serif" font-size="10.00">Ks</text>
</g>
</g>
</svg>
