<?xml version="1.0" encoding="UTF-8" standalone="no"?>
<!DOCTYPE svg PUBLIC "-//W3C//DTD SVG 1.1//EN"
 "http://www.w3.org/Graphics/SVG/1.1/DTD/svg11.dtd">
<!-- Generated by graphviz version 2.43.0 (0)
 -->
<!-- Title: src/Surface.cpp Pages: 1 -->
<svg width="1037pt" height="308pt"
 viewBox="0.00 0.00 1037.00 308.00" xmlns="http://www.w3.org/2000/svg" xmlns:xlink="http://www.w3.org/1999/xlink">
<g id="graph0" class="graph" transform="scale(1 1) rotate(0) translate(4 304)">
<title>src/Surface.cpp</title>
<!-- Node1 -->
<g id="node1" class="node">
<title>Node1</title>
<g id="a_node1"><a xlink:title=" ">
<polygon fill="#bfbfbf" stroke="black" points="783,-280.5 783,-299.5 874,-299.5 874,-280.5 783,-280.5"/>
<text text-anchor="middle" x="828.5" y="-287.5" font-family="Helvetica,sans-Serif" font-size="10.00">src/Surface.cpp</text>
</a>
</g>
</g>
<!-- Node2 -->
<g id="node2" class="node">
<title>Node2</title>
<g id="a_node2"><a xlink:href="Surface_8h.html" target="_top" xlink:title=" ">
<polygon fill="none" stroke="black" points="500.5,-224.5 500.5,-243.5 562.5,-243.5 562.5,-224.5 500.5,-224.5"/>
<text text-anchor="middle" x="531.5" y="-231.5" font-family="Helvetica,sans-Serif" font-size="10.00">Surface.h</text>
</a>
</g>
</g>
<!-- Node1&#45;&gt;Node2 -->
<g id="edge1" class="edge">
<title>Node1&#45;&gt;Node2</title>
<path fill="none" stroke="midnightblue" d="M782.74,-280.68C725.42,-270.26 628.03,-252.55 572.85,-242.52"/>
<polygon fill="midnightblue" stroke="midnightblue" points="573.2,-239.02 562.73,-240.68 571.95,-245.91 573.2,-239.02"/>
</g>
<!-- Node3 -->
<g id="node3" class="node">
<title>Node3</title>
<g id="a_node3"><a xlink:href="Win_8h.html" target="_top" xlink:title=" ">
<polygon fill="none" stroke="black" points="243.5,-168.5 243.5,-187.5 287.5,-187.5 287.5,-168.5 243.5,-168.5"/>
<text text-anchor="middle" x="265.5" y="-175.5" font-family="Helvetica,sans-Serif" font-size="10.00">Win.h</text>
</a>
</g>
</g>
<!-- Node1&#45;&gt;Node3 -->
<g id="edge29" class="edge">
<title>Node1&#45;&gt;Node3</title>
<path fill="none" stroke="midnightblue" d="M782.9,-285.06C717.78,-278.95 594.63,-265.59 491.5,-244 421.21,-229.28 340.82,-204.1 297.39,-189.79"/>
<polygon fill="midnightblue" stroke="midnightblue" points="298.27,-186.39 287.68,-186.56 296.07,-193.04 298.27,-186.39"/>
</g>
<!-- Node17 -->
<g id="node17" class="node">
<title>Node17</title>
<g id="a_node17"><a xlink:title=" ">
<polygon fill="none" stroke="#bfbfbf" points="479.5,-0.5 479.5,-19.5 539.5,-19.5 539.5,-0.5 479.5,-0.5"/>
<text text-anchor="middle" x="509.5" y="-7.5" font-family="Helvetica,sans-Serif" font-size="10.00">iostream</text>
</a>
</g>
</g>
<!-- Node1&#45;&gt;Node17 -->
<g id="edge33" class="edge">
<title>Node1&#45;&gt;Node17</title>
<path fill="none" stroke="midnightblue" d="M824.59,-280.36C816.67,-262.07 799.5,-217.91 799.5,-179 799.5,-179 799.5,-179 799.5,-121 799.5,-68.24 629.59,-31.8 549.88,-17.61"/>
<polygon fill="midnightblue" stroke="midnightblue" points="550.17,-14.11 539.71,-15.83 548.96,-21 550.17,-14.11"/>
</g>
<!-- Node25 -->
<g id="node25" class="node">
<title>Node25</title>
<g id="a_node25"><a xlink:title=" ">
<polygon fill="none" stroke="#bfbfbf" points="828,-224.5 828,-243.5 889,-243.5 889,-224.5 828,-224.5"/>
<text text-anchor="middle" x="858.5" y="-231.5" font-family="Helvetica,sans-Serif" font-size="10.00">gdiplus.h</text>
</a>
</g>
</g>
<!-- Node1&#45;&gt;Node25 -->
<g id="edge30" class="edge">
<title>Node1&#45;&gt;Node25</title>
<path fill="none" stroke="midnightblue" d="M833.45,-280.08C837.6,-272.61 843.65,-261.72 848.77,-252.52"/>
<polygon fill="midnightblue" stroke="midnightblue" points="851.84,-254.19 853.64,-243.75 845.72,-250.79 851.84,-254.19"/>
</g>
<!-- Node26 -->
<g id="node26" class="node">
<title>Node26</title>
<g id="a_node26"><a xlink:title=" ">
<polygon fill="none" stroke="#bfbfbf" points="907.5,-224.5 907.5,-243.5 963.5,-243.5 963.5,-224.5 907.5,-224.5"/>
<text text-anchor="middle" x="935.5" y="-231.5" font-family="Helvetica,sans-Serif" font-size="10.00">sstream</text>
</a>
</g>
</g>
<!-- Node1&#45;&gt;Node26 -->
<g id="edge31" class="edge">
<title>Node1&#45;&gt;Node26</title>
<path fill="none" stroke="midnightblue" d="M845.69,-280.32C862.85,-271.66 889.45,-258.24 909.25,-248.25"/>
<polygon fill="midnightblue" stroke="midnightblue" points="911,-251.28 918.35,-243.65 907.85,-245.04 911,-251.28"/>
</g>
<!-- Node27 -->
<g id="node27" class="node">
<title>Node27</title>
<g id="a_node27"><a xlink:title=" ">
<polygon fill="none" stroke="#bfbfbf" points="982,-224.5 982,-243.5 1029,-243.5 1029,-224.5 982,-224.5"/>
<text text-anchor="middle" x="1005.5" y="-231.5" font-family="Helvetica,sans-Serif" font-size="10.00">vector</text>
</a>
</g>
</g>
<!-- Node1&#45;&gt;Node27 -->
<g id="edge32" class="edge">
<title>Node1&#45;&gt;Node27</title>
<path fill="none" stroke="midnightblue" d="M856.55,-280.44C887.91,-270.88 938.67,-255.39 972.07,-245.2"/>
<polygon fill="midnightblue" stroke="midnightblue" points="973.29,-248.49 981.83,-242.22 971.25,-241.79 973.29,-248.49"/>
</g>
<!-- Node2&#45;&gt;Node3 -->
<g id="edge2" class="edge">
<title>Node2&#45;&gt;Node3</title>
<path fill="none" stroke="midnightblue" d="M500.16,-226.92C456.65,-218.44 375.51,-202.47 306.5,-188 303.62,-187.4 300.64,-186.76 297.65,-186.12"/>
<polygon fill="midnightblue" stroke="midnightblue" points="298.13,-182.64 287.61,-183.93 296.64,-189.48 298.13,-182.64"/>
</g>
<!-- Node6 -->
<g id="node6" class="node">
<title>Node6</title>
<g id="a_node6"><a xlink:href="Colors_8h.html" target="_top" xlink:title=" ">
<polygon fill="none" stroke="black" points="315.5,-168.5 315.5,-187.5 371.5,-187.5 371.5,-168.5 315.5,-168.5"/>
<text text-anchor="middle" x="343.5" y="-175.5" font-family="Helvetica,sans-Serif" font-size="10.00">Colors.h</text>
</a>
</g>
</g>
<!-- Node2&#45;&gt;Node6 -->
<g id="edge5" class="edge">
<title>Node2&#45;&gt;Node6</title>
<path fill="none" stroke="midnightblue" d="M501.71,-224.44C469.2,-215.11 417.06,-200.13 381.59,-189.94"/>
<polygon fill="midnightblue" stroke="midnightblue" points="382.19,-186.47 371.61,-187.08 380.26,-193.2 382.19,-186.47"/>
</g>
<!-- Node19 -->
<g id="node19" class="node">
<title>Node19</title>
<g id="a_node19"><a xlink:href="EngineException_8h.html" target="_top" xlink:title=" ">
<polygon fill="none" stroke="black" points="428,-168.5 428,-187.5 535,-187.5 535,-168.5 428,-168.5"/>
<text text-anchor="middle" x="481.5" y="-175.5" font-family="Helvetica,sans-Serif" font-size="10.00">EngineException.h</text>
</a>
</g>
</g>
<!-- Node2&#45;&gt;Node19 -->
<g id="edge22" class="edge">
<title>Node2&#45;&gt;Node19</title>
<path fill="none" stroke="midnightblue" d="M523.24,-224.08C516.04,-216.3 505.39,-204.8 496.65,-195.37"/>
<polygon fill="midnightblue" stroke="midnightblue" points="498.97,-192.71 489.6,-187.75 493.83,-197.47 498.97,-192.71"/>
</g>
<!-- Node20 -->
<g id="node20" class="node">
<title>Node20</title>
<g id="a_node20"><a xlink:title=" ">
<polygon fill="none" stroke="#bfbfbf" points="459.5,-112.5 459.5,-131.5 503.5,-131.5 503.5,-112.5 459.5,-112.5"/>
<text text-anchor="middle" x="481.5" y="-119.5" font-family="Helvetica,sans-Serif" font-size="10.00">string</text>
</a>
</g>
</g>
<!-- Node2&#45;&gt;Node20 -->
<g id="edge27" class="edge">
<title>Node2&#45;&gt;Node20</title>
<path fill="none" stroke="midnightblue" d="M500.42,-229.91C473.95,-225.45 437.45,-214.56 419.5,-188 406.07,-168.13 431.16,-148.67 453.33,-136.3"/>
<polygon fill="midnightblue" stroke="midnightblue" points="455.01,-139.38 462.22,-131.61 451.74,-133.18 455.01,-139.38"/>
</g>
<!-- Node22 -->
<g id="node22" class="node">
<title>Node22</title>
<g id="a_node22"><a xlink:title=" ">
<polygon fill="none" stroke="#bfbfbf" points="553.5,-168.5 553.5,-187.5 609.5,-187.5 609.5,-168.5 553.5,-168.5"/>
<text text-anchor="middle" x="581.5" y="-175.5" font-family="Helvetica,sans-Serif" font-size="10.00">assert.h</text>
</a>
</g>
</g>
<!-- Node2&#45;&gt;Node22 -->
<g id="edge25" class="edge">
<title>Node2&#45;&gt;Node22</title>
<path fill="none" stroke="midnightblue" d="M539.76,-224.08C546.96,-216.3 557.61,-204.8 566.35,-195.37"/>
<polygon fill="midnightblue" stroke="midnightblue" points="569.17,-197.47 573.4,-187.75 564.03,-192.71 569.17,-197.47"/>
</g>
<!-- Node23 -->
<g id="node23" class="node">
<title>Node23</title>
<g id="a_node23"><a xlink:title=" ">
<polygon fill="none" stroke="#bfbfbf" points="627.5,-168.5 627.5,-187.5 685.5,-187.5 685.5,-168.5 627.5,-168.5"/>
<text text-anchor="middle" x="656.5" y="-175.5" font-family="Helvetica,sans-Serif" font-size="10.00">memory</text>
</a>
</g>
</g>
<!-- Node2&#45;&gt;Node23 -->
<g id="edge26" class="edge">
<title>Node2&#45;&gt;Node23</title>
<path fill="none" stroke="midnightblue" d="M551.31,-224.44C571.79,-215.6 603.98,-201.69 627.36,-191.59"/>
<polygon fill="midnightblue" stroke="midnightblue" points="628.99,-194.7 636.79,-187.52 626.22,-188.27 628.99,-194.7"/>
</g>
<!-- Node24 -->
<g id="node24" class="node">
<title>Node24</title>
<g id="a_node24"><a xlink:title=" ">
<polygon fill="none" stroke="#bfbfbf" points="703.5,-168.5 703.5,-187.5 771.5,-187.5 771.5,-168.5 703.5,-168.5"/>
<text text-anchor="middle" x="737.5" y="-175.5" font-family="Helvetica,sans-Serif" font-size="10.00">filesystem</text>
</a>
</g>
</g>
<!-- Node2&#45;&gt;Node24 -->
<g id="edge28" class="edge">
<title>Node2&#45;&gt;Node24</title>
<path fill="none" stroke="midnightblue" d="M562.79,-224.8C598.09,-215.54 655.72,-200.44 695.06,-190.12"/>
<polygon fill="midnightblue" stroke="midnightblue" points="696.11,-193.47 704.9,-187.55 694.34,-186.7 696.11,-193.47"/>
</g>
<!-- Node4 -->
<g id="node4" class="node">
<title>Node4</title>
<g id="a_node4"><a xlink:title=" ">
<polygon fill="none" stroke="#bfbfbf" points="125.5,-112.5 125.5,-131.5 201.5,-131.5 201.5,-112.5 125.5,-112.5"/>
<text text-anchor="middle" x="163.5" y="-119.5" font-family="Helvetica,sans-Serif" font-size="10.00">sdkddkver.h</text>
</a>
</g>
</g>
<!-- Node3&#45;&gt;Node4 -->
<g id="edge3" class="edge">
<title>Node3&#45;&gt;Node4</title>
<path fill="none" stroke="midnightblue" d="M249.11,-168.32C232.83,-159.7 207.63,-146.36 188.78,-136.39"/>
<polygon fill="midnightblue" stroke="midnightblue" points="190.32,-133.24 179.85,-131.65 187.05,-139.43 190.32,-133.24"/>
</g>
<!-- Node5 -->
<g id="node5" class="node">
<title>Node5</title>
<g id="a_node5"><a xlink:title=" ">
<polygon fill="none" stroke="#bfbfbf" points="219.5,-112.5 219.5,-131.5 289.5,-131.5 289.5,-112.5 219.5,-112.5"/>
<text text-anchor="middle" x="254.5" y="-119.5" font-family="Helvetica,sans-Serif" font-size="10.00">Windows.h</text>
</a>
</g>
</g>
<!-- Node3&#45;&gt;Node5 -->
<g id="edge4" class="edge">
<title>Node3&#45;&gt;Node5</title>
<path fill="none" stroke="midnightblue" d="M263.68,-168.08C262.23,-160.93 260.13,-150.64 258.31,-141.69"/>
<polygon fill="midnightblue" stroke="midnightblue" points="261.71,-140.85 256.28,-131.75 254.85,-142.25 261.71,-140.85"/>
</g>
<!-- Node7 -->
<g id="node7" class="node">
<title>Node7</title>
<g id="a_node7"><a xlink:href="Vector3_8h.html" target="_top" xlink:title=" ">
<polygon fill="none" stroke="black" points="308,-112.5 308,-131.5 441,-131.5 441,-112.5 308,-112.5"/>
<text text-anchor="middle" x="374.5" y="-119.5" font-family="Helvetica,sans-Serif" font-size="10.00">LinearAlgebra/Vector3.h</text>
</a>
</g>
</g>
<!-- Node6&#45;&gt;Node7 -->
<g id="edge6" class="edge">
<title>Node6&#45;&gt;Node7</title>
<path fill="none" stroke="midnightblue" d="M348.62,-168.08C352.91,-160.61 359.16,-149.72 364.44,-140.52"/>
<polygon fill="midnightblue" stroke="midnightblue" points="367.53,-142.17 369.48,-131.75 361.46,-138.68 367.53,-142.17"/>
</g>
<!-- Node8 -->
<g id="node8" class="node">
<title>Node8</title>
<g id="a_node8"><a xlink:href="Math_8h.html" target="_top" xlink:title=" ">
<polygon fill="none" stroke="black" points="174.5,-56.5 174.5,-75.5 224.5,-75.5 224.5,-56.5 174.5,-56.5"/>
<text text-anchor="middle" x="199.5" y="-63.5" font-family="Helvetica,sans-Serif" font-size="10.00">Math.h</text>
</a>
</g>
</g>
<!-- Node7&#45;&gt;Node8 -->
<g id="edge7" class="edge">
<title>Node7&#45;&gt;Node8</title>
<path fill="none" stroke="midnightblue" d="M346.77,-112.44C316.29,-103.04 267.27,-87.91 234.24,-77.72"/>
<polygon fill="midnightblue" stroke="midnightblue" points="235.14,-74.33 224.55,-74.73 233.07,-81.02 235.14,-74.33"/>
</g>
<!-- Node14 -->
<g id="node14" class="node">
<title>Node14</title>
<g id="a_node14"><a xlink:href="Matrix3_8h.html" target="_top" xlink:title=" ">
<polygon fill="none" stroke="black" points="343,-56.5 343,-75.5 406,-75.5 406,-56.5 343,-56.5"/>
<text text-anchor="middle" x="374.5" y="-63.5" font-family="Helvetica,sans-Serif" font-size="10.00">Matrix3.h</text>
</a>
</g>
</g>
<!-- Node7&#45;&gt;Node14 -->
<g id="edge13" class="edge">
<title>Node7&#45;&gt;Node14</title>
<path fill="none" stroke="midnightblue" d="M374.5,-112.08C374.5,-105.01 374.5,-94.86 374.5,-85.99"/>
<polygon fill="midnightblue" stroke="midnightblue" points="378,-85.75 374.5,-75.75 371,-85.75 378,-85.75"/>
</g>
<!-- Node15 -->
<g id="node15" class="node">
<title>Node15</title>
<g id="a_node15"><a xlink:title=" ">
<polygon fill="none" stroke="#bfbfbf" points="347.5,-0.5 347.5,-19.5 389.5,-19.5 389.5,-0.5 347.5,-0.5"/>
<text text-anchor="middle" x="368.5" y="-7.5" font-family="Helvetica,sans-Serif" font-size="10.00">array</text>
</a>
</g>
</g>
<!-- Node7&#45;&gt;Node15 -->
<g id="edge18" class="edge">
<title>Node7&#45;&gt;Node15</title>
<path fill="none" stroke="midnightblue" d="M362.96,-112.49C353.02,-104.38 339.38,-91.18 333.5,-76 326.68,-58.38 339.32,-39.5 351.27,-26.66"/>
<polygon fill="midnightblue" stroke="midnightblue" points="353.83,-29.04 358.44,-19.5 348.89,-24.09 353.83,-29.04"/>
</g>
<!-- Node16 -->
<g id="node16" class="node">
<title>Node16</title>
<g id="a_node16"><a xlink:title=" ">
<polygon fill="none" stroke="#bfbfbf" points="408,-0.5 408,-19.5 461,-19.5 461,-0.5 408,-0.5"/>
<text text-anchor="middle" x="434.5" y="-7.5" font-family="Helvetica,sans-Serif" font-size="10.00">cstddef</text>
</a>
</g>
</g>
<!-- Node7&#45;&gt;Node16 -->
<g id="edge21" class="edge">
<title>Node7&#45;&gt;Node16</title>
<path fill="none" stroke="midnightblue" d="M384.38,-112.27C393.4,-103.81 406.5,-90.21 414.5,-76 422.64,-61.53 427.87,-43.34 430.94,-29.89"/>
<polygon fill="midnightblue" stroke="midnightblue" points="434.41,-30.39 433.01,-19.89 427.55,-28.97 434.41,-30.39"/>
</g>
<!-- Node7&#45;&gt;Node17 -->
<g id="edge19" class="edge">
<title>Node7&#45;&gt;Node17</title>
<path fill="none" stroke="midnightblue" d="M386.4,-112.23C398.43,-103.29 417.47,-88.95 433.5,-76 454.01,-59.43 476.93,-39.64 492.19,-26.29"/>
<polygon fill="midnightblue" stroke="midnightblue" points="494.61,-28.82 499.81,-19.59 489.99,-23.56 494.61,-28.82"/>
</g>
<!-- Node18 -->
<g id="node18" class="node">
<title>Node18</title>
<g id="a_node18"><a xlink:title=" ">
<polygon fill="none" stroke="#bfbfbf" points="501,-56.5 501,-75.5 560,-75.5 560,-56.5 501,-56.5"/>
<text text-anchor="middle" x="530.5" y="-63.5" font-family="Helvetica,sans-Serif" font-size="10.00">compare</text>
</a>
</g>
</g>
<!-- Node7&#45;&gt;Node18 -->
<g id="edge20" class="edge">
<title>Node7&#45;&gt;Node18</title>
<path fill="none" stroke="midnightblue" d="M399.22,-112.44C425.35,-103.4 466.76,-89.06 496.08,-78.92"/>
<polygon fill="midnightblue" stroke="midnightblue" points="497.59,-82.1 505.9,-75.52 495.3,-75.48 497.59,-82.1"/>
</g>
<!-- Node9 -->
<g id="node9" class="node">
<title>Node9</title>
<g id="a_node9"><a xlink:title=" ">
<polygon fill="none" stroke="#bfbfbf" points="0,-0.5 0,-19.5 51,-19.5 51,-0.5 0,-0.5"/>
<text text-anchor="middle" x="25.5" y="-7.5" font-family="Helvetica,sans-Serif" font-size="10.00">math.h</text>
</a>
</g>
</g>
<!-- Node8&#45;&gt;Node9 -->
<g id="edge8" class="edge">
<title>Node8&#45;&gt;Node9</title>
<path fill="none" stroke="midnightblue" d="M174.2,-57.15C144.39,-47.9 94.66,-32.46 61.01,-22.02"/>
<polygon fill="midnightblue" stroke="midnightblue" points="61.7,-18.57 51.12,-18.95 59.63,-25.26 61.7,-18.57"/>
</g>
<!-- Node10 -->
<g id="node10" class="node">
<title>Node10</title>
<g id="a_node10"><a xlink:title=" ">
<polygon fill="none" stroke="#bfbfbf" points="282,-0.5 282,-19.5 329,-19.5 329,-0.5 282,-0.5"/>
<text text-anchor="middle" x="305.5" y="-7.5" font-family="Helvetica,sans-Serif" font-size="10.00">cmath</text>
</a>
</g>
</g>
<!-- Node8&#45;&gt;Node10 -->
<g id="edge9" class="edge">
<title>Node8&#45;&gt;Node10</title>
<path fill="none" stroke="midnightblue" d="M216.53,-56.32C233.53,-47.66 259.88,-34.24 279.49,-24.25"/>
<polygon fill="midnightblue" stroke="midnightblue" points="281.19,-27.31 288.51,-19.65 278.01,-21.08 281.19,-27.31"/>
</g>
<!-- Node11 -->
<g id="node11" class="node">
<title>Node11</title>
<g id="a_node11"><a xlink:title=" ">
<polygon fill="none" stroke="#bfbfbf" points="69.5,-0.5 69.5,-19.5 113.5,-19.5 113.5,-0.5 69.5,-0.5"/>
<text text-anchor="middle" x="91.5" y="-7.5" font-family="Helvetica,sans-Serif" font-size="10.00">limits</text>
</a>
</g>
</g>
<!-- Node8&#45;&gt;Node11 -->
<g id="edge10" class="edge">
<title>Node8&#45;&gt;Node11</title>
<path fill="none" stroke="midnightblue" d="M182.15,-56.32C164.83,-47.66 137.98,-34.24 118,-24.25"/>
<polygon fill="midnightblue" stroke="midnightblue" points="119.32,-21 108.81,-19.65 116.19,-27.26 119.32,-21"/>
</g>
<!-- Node12 -->
<g id="node12" class="node">
<title>Node12</title>
<g id="a_node12"><a xlink:title=" ">
<polygon fill="none" stroke="#bfbfbf" points="132,-0.5 132,-19.5 191,-19.5 191,-0.5 132,-0.5"/>
<text text-anchor="middle" x="161.5" y="-7.5" font-family="Helvetica,sans-Serif" font-size="10.00">numbers</text>
</a>
</g>
</g>
<!-- Node8&#45;&gt;Node12 -->
<g id="edge11" class="edge">
<title>Node8&#45;&gt;Node12</title>
<path fill="none" stroke="midnightblue" d="M193.23,-56.08C187.86,-48.46 179.98,-37.26 173.42,-27.94"/>
<polygon fill="midnightblue" stroke="midnightblue" points="176.28,-25.91 167.66,-19.75 170.55,-29.94 176.28,-25.91"/>
</g>
<!-- Node13 -->
<g id="node13" class="node">
<title>Node13</title>
<g id="a_node13"><a xlink:title=" ">
<polygon fill="none" stroke="#bfbfbf" points="209.5,-0.5 209.5,-19.5 263.5,-19.5 263.5,-0.5 209.5,-0.5"/>
<text text-anchor="middle" x="236.5" y="-7.5" font-family="Helvetica,sans-Serif" font-size="10.00">random</text>
</a>
</g>
</g>
<!-- Node8&#45;&gt;Node13 -->
<g id="edge12" class="edge">
<title>Node8&#45;&gt;Node13</title>
<path fill="none" stroke="midnightblue" d="M205.61,-56.08C210.78,-48.53 218.35,-37.49 224.69,-28.23"/>
<polygon fill="midnightblue" stroke="midnightblue" points="227.74,-29.98 230.5,-19.75 221.96,-26.02 227.74,-29.98"/>
</g>
<!-- Node14&#45;&gt;Node10 -->
<g id="edge15" class="edge">
<title>Node14&#45;&gt;Node10</title>
<path fill="none" stroke="midnightblue" d="M363.41,-56.32C353.01,-48.18 337.24,-35.84 324.78,-26.09"/>
<polygon fill="midnightblue" stroke="midnightblue" points="326.82,-23.24 316.79,-19.83 322.51,-28.75 326.82,-23.24"/>
</g>
<!-- Node14&#45;&gt;Node15 -->
<g id="edge14" class="edge">
<title>Node14&#45;&gt;Node15</title>
<path fill="none" stroke="midnightblue" d="M373.51,-56.08C372.71,-48.93 371.57,-38.64 370.58,-29.69"/>
<polygon fill="midnightblue" stroke="midnightblue" points="374.06,-29.3 369.47,-19.75 367.1,-30.08 374.06,-29.3"/>
</g>
<!-- Node14&#45;&gt;Node16 -->
<g id="edge16" class="edge">
<title>Node14&#45;&gt;Node16</title>
<path fill="none" stroke="midnightblue" d="M384.14,-56.32C393.01,-48.34 406.37,-36.31 417.11,-26.65"/>
<polygon fill="midnightblue" stroke="midnightblue" points="419.59,-29.13 424.68,-19.83 414.91,-23.92 419.59,-29.13"/>
</g>
<!-- Node14&#45;&gt;Node17 -->
<g id="edge17" class="edge">
<title>Node14&#45;&gt;Node17</title>
<path fill="none" stroke="midnightblue" d="M395.89,-56.44C418.21,-47.52 453.4,-33.44 478.71,-23.32"/>
<polygon fill="midnightblue" stroke="midnightblue" points="480.22,-26.48 488.21,-19.52 477.62,-19.98 480.22,-26.48"/>
</g>
<!-- Node19&#45;&gt;Node20 -->
<g id="edge23" class="edge">
<title>Node19&#45;&gt;Node20</title>
<path fill="none" stroke="midnightblue" d="M481.5,-168.08C481.5,-161.01 481.5,-150.86 481.5,-141.99"/>
<polygon fill="midnightblue" stroke="midnightblue" points="485,-141.75 481.5,-131.75 478,-141.75 485,-141.75"/>
</g>
<!-- Node21 -->
<g id="node21" class="node">
<title>Node21</title>
<g id="a_node21"><a xlink:title=" ">
<polygon fill="none" stroke="#bfbfbf" points="522,-112.5 522,-131.5 615,-131.5 615,-112.5 522,-112.5"/>
<text text-anchor="middle" x="568.5" y="-119.5" font-family="Helvetica,sans-Serif" font-size="10.00">source_location</text>
</a>
</g>
</g>
<!-- Node19&#45;&gt;Node21 -->
<g id="edge24" class="edge">
<title>Node19&#45;&gt;Node21</title>
<path fill="none" stroke="midnightblue" d="M495.48,-168.32C509.05,-159.9 529.88,-146.97 545.82,-137.07"/>
<polygon fill="midnightblue" stroke="midnightblue" points="547.91,-139.9 554.56,-131.65 544.21,-133.95 547.91,-139.9"/>
</g>
</g>
</svg>
