<?xml version="1.0" encoding="UTF-8" standalone="no"?>
<!DOCTYPE svg PUBLIC "-//W3C//DTD SVG 1.1//EN"
 "http://www.w3.org/Graphics/SVG/1.1/DTD/svg11.dtd">
<!-- Generated by graphviz version 2.43.0 (0)
 -->
<!-- Title: include/Surface.h Pages: 1 -->
<svg width="685pt" height="252pt"
 viewBox="0.00 0.00 685.00 252.00" xmlns="http://www.w3.org/2000/svg" xmlns:xlink="http://www.w3.org/1999/xlink">
<g id="graph0" class="graph" transform="scale(1 1) rotate(0) translate(4 248)">
<title>include/Surface.h</title>
<!-- Node1 -->
<g id="node1" class="node">
<title>Node1</title>
<g id="a_node1"><a xlink:title=" ">
<polygon fill="#bfbfbf" stroke="black" points="336.5,-224.5 336.5,-243.5 437.5,-243.5 437.5,-224.5 336.5,-224.5"/>
<text text-anchor="middle" x="387" y="-231.5" font-family="Helvetica,sans-Serif" font-size="10.00">include/Surface.h</text>
</a>
</g>
</g>
<!-- Node2 -->
<g id="node2" class="node">
<title>Node2</title>
<g id="a_node2"><a xlink:href="Win_8h.html" target="_top" xlink:title=" ">
<polygon fill="none" stroke="black" points="104,-168.5 104,-187.5 148,-187.5 148,-168.5 104,-168.5"/>
<text text-anchor="middle" x="126" y="-175.5" font-family="Helvetica,sans-Serif" font-size="10.00">Win.h</text>
</a>
</g>
</g>
<!-- Node1&#45;&gt;Node2 -->
<g id="edge1" class="edge">
<title>Node1&#45;&gt;Node2</title>
<path fill="none" stroke="midnightblue" d="M345.64,-224.44C293.66,-213.69 205.53,-195.45 158.25,-185.67"/>
<polygon fill="midnightblue" stroke="midnightblue" points="158.76,-182.2 148.26,-183.6 157.34,-189.06 158.76,-182.2"/>
</g>
<!-- Node5 -->
<g id="node5" class="node">
<title>Node5</title>
<g id="a_node5"><a xlink:href="Colors_8h.html" target="_top" xlink:title=" ">
<polygon fill="none" stroke="black" points="221,-168.5 221,-187.5 277,-187.5 277,-168.5 221,-168.5"/>
<text text-anchor="middle" x="249" y="-175.5" font-family="Helvetica,sans-Serif" font-size="10.00">Colors.h</text>
</a>
</g>
</g>
<!-- Node1&#45;&gt;Node5 -->
<g id="edge4" class="edge">
<title>Node1&#45;&gt;Node5</title>
<path fill="none" stroke="midnightblue" d="M365.13,-224.44C342.22,-215.48 306.02,-201.31 280.13,-191.18"/>
<polygon fill="midnightblue" stroke="midnightblue" points="281.35,-187.9 270.76,-187.52 278.8,-194.42 281.35,-187.9"/>
</g>
<!-- Node18 -->
<g id="node18" class="node">
<title>Node18</title>
<g id="a_node18"><a xlink:href="EngineException_8h.html" target="_top" xlink:title=" ">
<polygon fill="none" stroke="black" points="333.5,-168.5 333.5,-187.5 440.5,-187.5 440.5,-168.5 333.5,-168.5"/>
<text text-anchor="middle" x="387" y="-175.5" font-family="Helvetica,sans-Serif" font-size="10.00">EngineException.h</text>
</a>
</g>
</g>
<!-- Node1&#45;&gt;Node18 -->
<g id="edge21" class="edge">
<title>Node1&#45;&gt;Node18</title>
<path fill="none" stroke="midnightblue" d="M387,-224.08C387,-217.01 387,-206.86 387,-197.99"/>
<polygon fill="midnightblue" stroke="midnightblue" points="390.5,-197.75 387,-187.75 383.5,-197.75 390.5,-197.75"/>
</g>
<!-- Node19 -->
<g id="node19" class="node">
<title>Node19</title>
<g id="a_node19"><a xlink:title=" ">
<polygon fill="none" stroke="#bfbfbf" points="334,-112.5 334,-131.5 378,-131.5 378,-112.5 334,-112.5"/>
<text text-anchor="middle" x="356" y="-119.5" font-family="Helvetica,sans-Serif" font-size="10.00">string</text>
</a>
</g>
</g>
<!-- Node1&#45;&gt;Node19 -->
<g id="edge26" class="edge">
<title>Node1&#45;&gt;Node19</title>
<path fill="none" stroke="midnightblue" d="M366.78,-224.49C352.23,-217.17 333.7,-205.06 325,-188 316.63,-171.58 328.18,-152.52 339.48,-139.3"/>
<polygon fill="midnightblue" stroke="midnightblue" points="342.1,-141.63 346.3,-131.9 336.95,-136.88 342.1,-141.63"/>
</g>
<!-- Node21 -->
<g id="node21" class="node">
<title>Node21</title>
<g id="a_node21"><a xlink:title=" ">
<polygon fill="none" stroke="#bfbfbf" points="459,-168.5 459,-187.5 515,-187.5 515,-168.5 459,-168.5"/>
<text text-anchor="middle" x="487" y="-175.5" font-family="Helvetica,sans-Serif" font-size="10.00">assert.h</text>
</a>
</g>
</g>
<!-- Node1&#45;&gt;Node21 -->
<g id="edge24" class="edge">
<title>Node1&#45;&gt;Node21</title>
<path fill="none" stroke="midnightblue" d="M403.07,-224.32C418.96,-215.74 443.51,-202.49 461.96,-192.52"/>
<polygon fill="midnightblue" stroke="midnightblue" points="463.84,-195.49 470.97,-187.65 460.51,-189.33 463.84,-195.49"/>
</g>
<!-- Node22 -->
<g id="node22" class="node">
<title>Node22</title>
<g id="a_node22"><a xlink:title=" ">
<polygon fill="none" stroke="#bfbfbf" points="533,-168.5 533,-187.5 591,-187.5 591,-168.5 533,-168.5"/>
<text text-anchor="middle" x="562" y="-175.5" font-family="Helvetica,sans-Serif" font-size="10.00">memory</text>
</a>
</g>
</g>
<!-- Node1&#45;&gt;Node22 -->
<g id="edge25" class="edge">
<title>Node1&#45;&gt;Node22</title>
<path fill="none" stroke="midnightblue" d="M414.73,-224.44C444.43,-215.28 491.72,-200.69 524.67,-190.52"/>
<polygon fill="midnightblue" stroke="midnightblue" points="525.88,-193.81 534.4,-187.52 523.81,-187.12 525.88,-193.81"/>
</g>
<!-- Node23 -->
<g id="node23" class="node">
<title>Node23</title>
<g id="a_node23"><a xlink:title=" ">
<polygon fill="none" stroke="#bfbfbf" points="609,-168.5 609,-187.5 677,-187.5 677,-168.5 609,-168.5"/>
<text text-anchor="middle" x="643" y="-175.5" font-family="Helvetica,sans-Serif" font-size="10.00">filesystem</text>
</a>
</g>
</g>
<!-- Node1&#45;&gt;Node23 -->
<g id="edge27" class="edge">
<title>Node1&#45;&gt;Node23</title>
<path fill="none" stroke="midnightblue" d="M427.56,-224.44C474.29,-214.59 550.79,-198.45 598.95,-188.29"/>
<polygon fill="midnightblue" stroke="midnightblue" points="599.71,-191.71 608.77,-186.22 598.26,-184.86 599.71,-191.71"/>
</g>
<!-- Node3 -->
<g id="node3" class="node">
<title>Node3</title>
<g id="a_node3"><a xlink:title=" ">
<polygon fill="none" stroke="#bfbfbf" points="88,-112.5 88,-131.5 164,-131.5 164,-112.5 88,-112.5"/>
<text text-anchor="middle" x="126" y="-119.5" font-family="Helvetica,sans-Serif" font-size="10.00">sdkddkver.h</text>
</a>
</g>
</g>
<!-- Node2&#45;&gt;Node3 -->
<g id="edge2" class="edge">
<title>Node2&#45;&gt;Node3</title>
<path fill="none" stroke="midnightblue" d="M126,-168.08C126,-161.01 126,-150.86 126,-141.99"/>
<polygon fill="midnightblue" stroke="midnightblue" points="129.5,-141.75 126,-131.75 122.5,-141.75 129.5,-141.75"/>
</g>
<!-- Node4 -->
<g id="node4" class="node">
<title>Node4</title>
<g id="a_node4"><a xlink:title=" ">
<polygon fill="none" stroke="#bfbfbf" points="0,-112.5 0,-131.5 70,-131.5 70,-112.5 0,-112.5"/>
<text text-anchor="middle" x="35" y="-119.5" font-family="Helvetica,sans-Serif" font-size="10.00">Windows.h</text>
</a>
</g>
</g>
<!-- Node2&#45;&gt;Node4 -->
<g id="edge3" class="edge">
<title>Node2&#45;&gt;Node4</title>
<path fill="none" stroke="midnightblue" d="M111.38,-168.32C97.05,-159.82 74.99,-146.73 58.25,-136.8"/>
<polygon fill="midnightblue" stroke="midnightblue" points="59.97,-133.75 49.58,-131.65 56.4,-139.77 59.97,-133.75"/>
</g>
<!-- Node6 -->
<g id="node6" class="node">
<title>Node6</title>
<g id="a_node6"><a xlink:href="Vector3_8h.html" target="_top" xlink:title=" ">
<polygon fill="none" stroke="black" points="182.5,-112.5 182.5,-131.5 315.5,-131.5 315.5,-112.5 182.5,-112.5"/>
<text text-anchor="middle" x="249" y="-119.5" font-family="Helvetica,sans-Serif" font-size="10.00">LinearAlgebra/Vector3.h</text>
</a>
</g>
</g>
<!-- Node5&#45;&gt;Node6 -->
<g id="edge5" class="edge">
<title>Node5&#45;&gt;Node6</title>
<path fill="none" stroke="midnightblue" d="M249,-168.08C249,-161.01 249,-150.86 249,-141.99"/>
<polygon fill="midnightblue" stroke="midnightblue" points="252.5,-141.75 249,-131.75 245.5,-141.75 252.5,-141.75"/>
</g>
<!-- Node7 -->
<g id="node7" class="node">
<title>Node7</title>
<g id="a_node7"><a xlink:href="Math_8h.html" target="_top" xlink:title=" ">
<polygon fill="none" stroke="black" points="348,-56.5 348,-75.5 398,-75.5 398,-56.5 348,-56.5"/>
<text text-anchor="middle" x="373" y="-63.5" font-family="Helvetica,sans-Serif" font-size="10.00">Math.h</text>
</a>
</g>
</g>
<!-- Node6&#45;&gt;Node7 -->
<g id="edge6" class="edge">
<title>Node6&#45;&gt;Node7</title>
<path fill="none" stroke="midnightblue" d="M268.65,-112.44C288.96,-103.6 320.9,-89.69 344.1,-79.59"/>
<polygon fill="midnightblue" stroke="midnightblue" points="345.67,-82.72 353.44,-75.52 342.88,-76.3 345.67,-82.72"/>
</g>
<!-- Node13 -->
<g id="node13" class="node">
<title>Node13</title>
<g id="a_node13"><a xlink:href="Matrix3_8h.html" target="_top" xlink:title=" ">
<polygon fill="none" stroke="black" points="187.5,-56.5 187.5,-75.5 250.5,-75.5 250.5,-56.5 187.5,-56.5"/>
<text text-anchor="middle" x="219" y="-63.5" font-family="Helvetica,sans-Serif" font-size="10.00">Matrix3.h</text>
</a>
</g>
</g>
<!-- Node6&#45;&gt;Node13 -->
<g id="edge12" class="edge">
<title>Node6&#45;&gt;Node13</title>
<path fill="none" stroke="midnightblue" d="M244.05,-112.08C239.9,-104.61 233.85,-93.72 228.73,-84.52"/>
<polygon fill="midnightblue" stroke="midnightblue" points="231.78,-82.79 223.86,-75.75 225.66,-86.19 231.78,-82.79"/>
</g>
<!-- Node14 -->
<g id="node14" class="node">
<title>Node14</title>
<g id="a_node14"><a xlink:title=" ">
<polygon fill="none" stroke="#bfbfbf" points="72,-0.5 72,-19.5 114,-19.5 114,-0.5 72,-0.5"/>
<text text-anchor="middle" x="93" y="-7.5" font-family="Helvetica,sans-Serif" font-size="10.00">array</text>
</a>
</g>
</g>
<!-- Node6&#45;&gt;Node14 -->
<g id="edge17" class="edge">
<title>Node6&#45;&gt;Node14</title>
<path fill="none" stroke="midnightblue" d="M229.63,-112.48C211.85,-104.26 185.15,-90.91 164,-76 143.22,-61.35 122.06,-41.15 108.32,-27.18"/>
<polygon fill="midnightblue" stroke="midnightblue" points="110.61,-24.51 101.14,-19.76 105.57,-29.38 110.61,-24.51"/>
</g>
<!-- Node15 -->
<g id="node15" class="node">
<title>Node15</title>
<g id="a_node15"><a xlink:title=" ">
<polygon fill="none" stroke="#bfbfbf" points="132.5,-0.5 132.5,-19.5 185.5,-19.5 185.5,-0.5 132.5,-0.5"/>
<text text-anchor="middle" x="159" y="-7.5" font-family="Helvetica,sans-Serif" font-size="10.00">cstddef</text>
</a>
</g>
</g>
<!-- Node6&#45;&gt;Node15 -->
<g id="edge20" class="edge">
<title>Node6&#45;&gt;Node15</title>
<path fill="none" stroke="midnightblue" d="M227.71,-112.49C211.81,-105.1 190.72,-92.91 178,-76 167.95,-62.64 163.2,-44.07 160.97,-30.2"/>
<polygon fill="midnightblue" stroke="midnightblue" points="164.38,-29.33 159.62,-19.87 157.44,-30.24 164.38,-29.33"/>
</g>
<!-- Node16 -->
<g id="node16" class="node">
<title>Node16</title>
<g id="a_node16"><a xlink:title=" ">
<polygon fill="none" stroke="#bfbfbf" points="204,-0.5 204,-19.5 264,-19.5 264,-0.5 204,-0.5"/>
<text text-anchor="middle" x="234" y="-7.5" font-family="Helvetica,sans-Serif" font-size="10.00">iostream</text>
</a>
</g>
</g>
<!-- Node6&#45;&gt;Node16 -->
<g id="edge18" class="edge">
<title>Node6&#45;&gt;Node16</title>
<path fill="none" stroke="midnightblue" d="M252.48,-112.48C257.12,-99.95 264.16,-75.89 259,-56 256.45,-46.18 251.25,-36.21 246.24,-28.17"/>
<polygon fill="midnightblue" stroke="midnightblue" points="249.08,-26.11 240.63,-19.73 243.25,-29.99 249.08,-26.11"/>
</g>
<!-- Node17 -->
<g id="node17" class="node">
<title>Node17</title>
<g id="a_node17"><a xlink:title=" ">
<polygon fill="none" stroke="#bfbfbf" points="416.5,-56.5 416.5,-75.5 475.5,-75.5 475.5,-56.5 416.5,-56.5"/>
<text text-anchor="middle" x="446" y="-63.5" font-family="Helvetica,sans-Serif" font-size="10.00">compare</text>
</a>
</g>
</g>
<!-- Node6&#45;&gt;Node17 -->
<g id="edge19" class="edge">
<title>Node6&#45;&gt;Node17</title>
<path fill="none" stroke="midnightblue" d="M280.22,-112.44C314.33,-103.09 369.07,-88.09 406.24,-77.9"/>
<polygon fill="midnightblue" stroke="midnightblue" points="407.5,-81.18 416.22,-75.16 405.65,-74.43 407.5,-81.18"/>
</g>
<!-- Node8 -->
<g id="node8" class="node">
<title>Node8</title>
<g id="a_node8"><a xlink:title=" ">
<polygon fill="none" stroke="#bfbfbf" points="347.5,-0.5 347.5,-19.5 398.5,-19.5 398.5,-0.5 347.5,-0.5"/>
<text text-anchor="middle" x="373" y="-7.5" font-family="Helvetica,sans-Serif" font-size="10.00">math.h</text>
</a>
</g>
</g>
<!-- Node7&#45;&gt;Node8 -->
<g id="edge7" class="edge">
<title>Node7&#45;&gt;Node8</title>
<path fill="none" stroke="midnightblue" d="M373,-56.08C373,-49.01 373,-38.86 373,-29.99"/>
<polygon fill="midnightblue" stroke="midnightblue" points="376.5,-29.75 373,-19.75 369.5,-29.75 376.5,-29.75"/>
</g>
<!-- Node9 -->
<g id="node9" class="node">
<title>Node9</title>
<g id="a_node9"><a xlink:title=" ">
<polygon fill="none" stroke="#bfbfbf" points="282.5,-0.5 282.5,-19.5 329.5,-19.5 329.5,-0.5 282.5,-0.5"/>
<text text-anchor="middle" x="306" y="-7.5" font-family="Helvetica,sans-Serif" font-size="10.00">cmath</text>
</a>
</g>
</g>
<!-- Node7&#45;&gt;Node9 -->
<g id="edge8" class="edge">
<title>Node7&#45;&gt;Node9</title>
<path fill="none" stroke="midnightblue" d="M362.24,-56.32C352.23,-48.26 337.11,-36.08 325.07,-26.37"/>
<polygon fill="midnightblue" stroke="midnightblue" points="326.94,-23.38 316.96,-19.83 322.55,-28.83 326.94,-23.38"/>
</g>
<!-- Node10 -->
<g id="node10" class="node">
<title>Node10</title>
<g id="a_node10"><a xlink:title=" ">
<polygon fill="none" stroke="#bfbfbf" points="417,-0.5 417,-19.5 461,-19.5 461,-0.5 417,-0.5"/>
<text text-anchor="middle" x="439" y="-7.5" font-family="Helvetica,sans-Serif" font-size="10.00">limits</text>
</a>
</g>
</g>
<!-- Node7&#45;&gt;Node10 -->
<g id="edge9" class="edge">
<title>Node7&#45;&gt;Node10</title>
<path fill="none" stroke="midnightblue" d="M383.6,-56.32C393.46,-48.26 408.35,-36.08 420.22,-26.37"/>
<polygon fill="midnightblue" stroke="midnightblue" points="422.68,-28.88 428.2,-19.83 418.25,-23.46 422.68,-28.88"/>
</g>
<!-- Node11 -->
<g id="node11" class="node">
<title>Node11</title>
<g id="a_node11"><a xlink:title=" ">
<polygon fill="none" stroke="#bfbfbf" points="479.5,-0.5 479.5,-19.5 538.5,-19.5 538.5,-0.5 479.5,-0.5"/>
<text text-anchor="middle" x="509" y="-7.5" font-family="Helvetica,sans-Serif" font-size="10.00">numbers</text>
</a>
</g>
</g>
<!-- Node7&#45;&gt;Node11 -->
<g id="edge10" class="edge">
<title>Node7&#45;&gt;Node11</title>
<path fill="none" stroke="midnightblue" d="M394.55,-56.44C417.03,-47.52 452.49,-33.44 477.98,-23.32"/>
<polygon fill="midnightblue" stroke="midnightblue" points="479.55,-26.46 487.55,-19.52 476.97,-19.95 479.55,-26.46"/>
</g>
<!-- Node12 -->
<g id="node12" class="node">
<title>Node12</title>
<g id="a_node12"><a xlink:title=" ">
<polygon fill="none" stroke="#bfbfbf" points="557,-0.5 557,-19.5 611,-19.5 611,-0.5 557,-0.5"/>
<text text-anchor="middle" x="584" y="-7.5" font-family="Helvetica,sans-Serif" font-size="10.00">random</text>
</a>
</g>
</g>
<!-- Node7&#45;&gt;Node12 -->
<g id="edge11" class="edge">
<title>Node7&#45;&gt;Node12</title>
<path fill="none" stroke="midnightblue" d="M398.23,-58.51C401.52,-57.66 404.84,-56.81 408,-56 455.96,-43.7 511.29,-29.56 546.92,-20.47"/>
<polygon fill="midnightblue" stroke="midnightblue" points="548.04,-23.79 556.86,-17.93 546.31,-17.01 548.04,-23.79"/>
</g>
<!-- Node13&#45;&gt;Node9 -->
<g id="edge14" class="edge">
<title>Node13&#45;&gt;Node9</title>
<path fill="none" stroke="midnightblue" d="M232.98,-56.32C246.55,-47.9 267.38,-34.97 283.32,-25.07"/>
<polygon fill="midnightblue" stroke="midnightblue" points="285.41,-27.9 292.06,-19.65 281.71,-21.95 285.41,-27.9"/>
</g>
<!-- Node13&#45;&gt;Node14 -->
<g id="edge13" class="edge">
<title>Node13&#45;&gt;Node14</title>
<path fill="none" stroke="midnightblue" d="M199.03,-56.44C178.39,-47.6 145.94,-33.69 122.37,-23.59"/>
<polygon fill="midnightblue" stroke="midnightblue" points="123.44,-20.24 112.87,-19.52 120.68,-26.67 123.44,-20.24"/>
</g>
<!-- Node13&#45;&gt;Node15 -->
<g id="edge15" class="edge">
<title>Node13&#45;&gt;Node15</title>
<path fill="none" stroke="midnightblue" d="M209.36,-56.32C200.49,-48.34 187.13,-36.31 176.39,-26.65"/>
<polygon fill="midnightblue" stroke="midnightblue" points="178.59,-23.92 168.82,-19.83 173.91,-29.13 178.59,-23.92"/>
</g>
<!-- Node13&#45;&gt;Node16 -->
<g id="edge16" class="edge">
<title>Node13&#45;&gt;Node16</title>
<path fill="none" stroke="midnightblue" d="M221.48,-56.08C223.49,-48.85 226.39,-38.41 228.89,-29.4"/>
<polygon fill="midnightblue" stroke="midnightblue" points="232.26,-30.32 231.57,-19.75 225.52,-28.45 232.26,-30.32"/>
</g>
<!-- Node18&#45;&gt;Node19 -->
<g id="edge22" class="edge">
<title>Node18&#45;&gt;Node19</title>
<path fill="none" stroke="midnightblue" d="M381.88,-168.08C377.59,-160.61 371.34,-149.72 366.06,-140.52"/>
<polygon fill="midnightblue" stroke="midnightblue" points="369.04,-138.68 361.02,-131.75 362.97,-142.17 369.04,-138.68"/>
</g>
<!-- Node20 -->
<g id="node20" class="node">
<title>Node20</title>
<g id="a_node20"><a xlink:title=" ">
<polygon fill="none" stroke="#bfbfbf" points="396.5,-112.5 396.5,-131.5 489.5,-131.5 489.5,-112.5 396.5,-112.5"/>
<text text-anchor="middle" x="443" y="-119.5" font-family="Helvetica,sans-Serif" font-size="10.00">source_location</text>
</a>
</g>
</g>
<!-- Node18&#45;&gt;Node20 -->
<g id="edge23" class="edge">
<title>Node18&#45;&gt;Node20</title>
<path fill="none" stroke="midnightblue" d="M396,-168.32C404.19,-160.42 416.51,-148.55 426.47,-138.94"/>
<polygon fill="midnightblue" stroke="midnightblue" points="429.07,-141.29 433.84,-131.83 424.21,-136.26 429.07,-141.29"/>
</g>
</g>
</svg>
