<?xml version="1.0" encoding="UTF-8" standalone="no"?>
<!DOCTYPE svg PUBLIC "-//W3C//DTD SVG 1.1//EN"
 "http://www.w3.org/Graphics/SVG/1.1/DTD/svg11.dtd">
<!-- Generated by graphviz version 2.43.0 (0)
 -->
<!-- Title: include/Effects/TextureEffect.h Pages: 1 -->
<svg width="1354pt" height="476pt"
 viewBox="0.00 0.00 1353.50 476.00" xmlns="http://www.w3.org/2000/svg" xmlns:xlink="http://www.w3.org/1999/xlink">
<g id="graph0" class="graph" transform="scale(1 1) rotate(0) translate(4 472)">
<title>include/Effects/TextureEffect.h</title>
<!-- Node1 -->
<g id="node1" class="node">
<title>Node1</title>
<g id="a_node1"><a xlink:title=" ">
<polygon fill="#bfbfbf" stroke="black" points="973,-448.5 973,-467.5 1137,-467.5 1137,-448.5 973,-448.5"/>
<text text-anchor="middle" x="1055" y="-455.5" font-family="Helvetica,sans-Serif" font-size="10.00">include/Effects/TextureEffect.h</text>
</a>
</g>
</g>
<!-- Node2 -->
<g id="node2" class="node">
<title>Node2</title>
<g id="a_node2"><a xlink:href="Pipeline_8h.html" target="_top" xlink:title=" ">
<polygon fill="none" stroke="black" points="879.5,-392.5 879.5,-411.5 944.5,-411.5 944.5,-392.5 879.5,-392.5"/>
<text text-anchor="middle" x="912" y="-399.5" font-family="Helvetica,sans-Serif" font-size="10.00">Pipeline.h</text>
</a>
</g>
</g>
<!-- Node1&#45;&gt;Node2 -->
<g id="edge1" class="edge">
<title>Node1&#45;&gt;Node2</title>
<path fill="none" stroke="midnightblue" d="M1032.34,-448.44C1008.6,-439.48 971.09,-425.31 944.26,-415.18"/>
<polygon fill="midnightblue" stroke="midnightblue" points="945.14,-411.77 934.55,-411.52 942.67,-418.32 945.14,-411.77"/>
</g>
<!-- Node44 -->
<g id="node44" class="node">
<title>Node44</title>
<g id="a_node44"><a xlink:href="DefaultVertexShader_8h.html" target="_top" xlink:title=" ">
<polygon fill="none" stroke="black" points="971,-392.5 971,-411.5 1139,-411.5 1139,-392.5 971,-392.5"/>
<text text-anchor="middle" x="1055" y="-399.5" font-family="Helvetica,sans-Serif" font-size="10.00">Shaders/DefaultVertexShader.h</text>
</a>
</g>
</g>
<!-- Node1&#45;&gt;Node44 -->
<g id="edge62" class="edge">
<title>Node1&#45;&gt;Node44</title>
<path fill="none" stroke="midnightblue" d="M1055,-448.08C1055,-441.01 1055,-430.86 1055,-421.99"/>
<polygon fill="midnightblue" stroke="midnightblue" points="1058.5,-421.75 1055,-411.75 1051.5,-421.75 1058.5,-421.75"/>
</g>
<!-- Node45 -->
<g id="node45" class="node">
<title>Node45</title>
<g id="a_node45"><a xlink:href="DefaultGeometryShader_8h.html" target="_top" xlink:title=" ">
<polygon fill="none" stroke="black" points="1160.5,-392.5 1160.5,-411.5 1345.5,-411.5 1345.5,-392.5 1160.5,-392.5"/>
<text text-anchor="middle" x="1253" y="-399.5" font-family="Helvetica,sans-Serif" font-size="10.00">Shaders/DefaultGeometryShader.h</text>
</a>
</g>
</g>
<!-- Node1&#45;&gt;Node45 -->
<g id="edge63" class="edge">
<title>Node1&#45;&gt;Node45</title>
<path fill="none" stroke="midnightblue" d="M1086.37,-448.44C1120.26,-439.2 1174.4,-424.44 1211.72,-414.26"/>
<polygon fill="midnightblue" stroke="midnightblue" points="1213.05,-417.52 1221.77,-411.52 1211.2,-410.77 1213.05,-417.52"/>
</g>
<!-- Node3 -->
<g id="node3" class="node">
<title>Node3</title>
<g id="a_node3"><a xlink:href="Win_8h.html" target="_top" xlink:title=" ">
<polygon fill="none" stroke="black" points="61,-168.5 61,-187.5 105,-187.5 105,-168.5 61,-168.5"/>
<text text-anchor="middle" x="83" y="-175.5" font-family="Helvetica,sans-Serif" font-size="10.00">Win.h</text>
</a>
</g>
</g>
<!-- Node2&#45;&gt;Node3 -->
<g id="edge2" class="edge">
<title>Node2&#45;&gt;Node3</title>
<path fill="none" stroke="midnightblue" d="M879.13,-400.02C767.52,-396.46 403.63,-383.01 290,-356 164.01,-326.05 92.85,-351.74 21,-244 7.69,-224.04 32.76,-204.6 54.89,-192.26"/>
<polygon fill="midnightblue" stroke="midnightblue" points="56.55,-195.35 63.76,-187.58 53.28,-189.15 56.55,-195.35"/>
</g>
<!-- Node6 -->
<g id="node6" class="node">
<title>Node6</title>
<g id="a_node6"><a xlink:href="Graphics_8h.html" target="_top" xlink:title=" ">
<polygon fill="none" stroke="black" points="335,-280.5 335,-299.5 403,-299.5 403,-280.5 335,-280.5"/>
<text text-anchor="middle" x="369" y="-287.5" font-family="Helvetica,sans-Serif" font-size="10.00">Graphics.h</text>
</a>
</g>
</g>
<!-- Node2&#45;&gt;Node6 -->
<g id="edge5" class="edge">
<title>Node2&#45;&gt;Node6</title>
<path fill="none" stroke="midnightblue" d="M879.26,-394.37C786.06,-375.49 519.25,-321.44 413.22,-299.96"/>
<polygon fill="midnightblue" stroke="midnightblue" points="413.67,-296.48 403.18,-297.92 412.28,-303.34 413.67,-296.48"/>
</g>
<!-- Node17 -->
<g id="node17" class="node">
<title>Node17</title>
<g id="a_node17"><a xlink:href="Matrix3_8h.html" target="_top" xlink:title=" ">
<polygon fill="none" stroke="black" points="427.5,-56.5 427.5,-75.5 490.5,-75.5 490.5,-56.5 427.5,-56.5"/>
<text text-anchor="middle" x="459" y="-63.5" font-family="Helvetica,sans-Serif" font-size="10.00">Matrix3.h</text>
</a>
</g>
</g>
<!-- Node2&#45;&gt;Node17 -->
<g id="edge57" class="edge">
<title>Node2&#45;&gt;Node17</title>
<path fill="none" stroke="midnightblue" d="M879.24,-394.02C832.43,-381.9 752,-352.18 752,-291 752,-291 752,-291 752,-177 752,-143.08 740.04,-131.09 712,-112 678.29,-89.05 563.69,-75.93 500.94,-70.3"/>
<polygon fill="midnightblue" stroke="midnightblue" points="501.23,-66.82 490.96,-69.43 500.62,-73.79 501.23,-66.82"/>
</g>
<!-- Node30 -->
<g id="node30" class="node">
<title>Node30</title>
<g id="a_node30"><a xlink:href="Triangle_8h.html" target="_top" xlink:title=" ">
<polygon fill="none" stroke="black" points="1236,-336.5 1236,-355.5 1300,-355.5 1300,-336.5 1236,-336.5"/>
<text text-anchor="middle" x="1268" y="-343.5" font-family="Helvetica,sans-Serif" font-size="10.00">Triangle.h</text>
</a>
</g>
</g>
<!-- Node2&#45;&gt;Node30 -->
<g id="edge38" class="edge">
<title>Node2&#45;&gt;Node30</title>
<path fill="none" stroke="midnightblue" d="M944.51,-394.95C950.33,-393.92 956.34,-392.9 962,-392 1077.21,-373.66 1106.93,-375.21 1222,-356 1223.26,-355.79 1224.55,-355.57 1225.84,-355.34"/>
<polygon fill="midnightblue" stroke="midnightblue" points="1226.66,-358.75 1235.87,-353.52 1225.41,-351.87 1226.66,-358.75"/>
</g>
<!-- Node31 -->
<g id="node31" class="node">
<title>Node31</title>
<g id="a_node31"><a xlink:href="IndexedTriangleList_8h.html" target="_top" xlink:title=" ">
<polygon fill="none" stroke="black" points="852.5,-224.5 852.5,-243.5 971.5,-243.5 971.5,-224.5 852.5,-224.5"/>
<text text-anchor="middle" x="912" y="-231.5" font-family="Helvetica,sans-Serif" font-size="10.00">IndexedTriangleList.h</text>
</a>
</g>
</g>
<!-- Node2&#45;&gt;Node31 -->
<g id="edge39" class="edge">
<title>Node2&#45;&gt;Node31</title>
<path fill="none" stroke="midnightblue" d="M912,-392.08C912,-365.95 912,-289.21 912,-253.58"/>
<polygon fill="midnightblue" stroke="midnightblue" points="915.5,-253.57 912,-243.57 908.5,-253.57 915.5,-253.57"/>
</g>
<!-- Node37 -->
<g id="node37" class="node">
<title>Node37</title>
<g id="a_node37"><a xlink:title=" ">
<polygon fill="none" stroke="#bfbfbf" points="1129,-112.5 1129,-131.5 1193,-131.5 1193,-112.5 1129,-112.5"/>
<text text-anchor="middle" x="1161" y="-119.5" font-family="Helvetica,sans-Serif" font-size="10.00">algorithm</text>
</a>
</g>
</g>
<!-- Node2&#45;&gt;Node37 -->
<g id="edge61" class="edge">
<title>Node2&#45;&gt;Node37</title>
<path fill="none" stroke="midnightblue" d="M944.68,-394.27C1014.1,-379.04 1170,-339.45 1170,-291 1170,-291 1170,-291 1170,-233 1170,-200.84 1166.13,-163.57 1163.47,-141.71"/>
<polygon fill="midnightblue" stroke="midnightblue" points="1166.91,-141.02 1162.18,-131.54 1159.96,-141.9 1166.91,-141.02"/>
</g>
<!-- Node42 -->
<g id="node42" class="node">
<title>Node42</title>
<g id="a_node42"><a xlink:href="PubeScreenTransformer_8h.html" target="_top" xlink:title=" ">
<polygon fill="none" stroke="black" points="299,-336.5 299,-355.5 439,-355.5 439,-336.5 299,-336.5"/>
<text text-anchor="middle" x="369" y="-343.5" font-family="Helvetica,sans-Serif" font-size="10.00">PubeScreenTransformer.h</text>
</a>
</g>
</g>
<!-- Node2&#45;&gt;Node42 -->
<g id="edge54" class="edge">
<title>Node2&#45;&gt;Node42</title>
<path fill="none" stroke="midnightblue" d="M879.26,-397.74C795.29,-389.39 570.4,-367.03 449.13,-354.97"/>
<polygon fill="midnightblue" stroke="midnightblue" points="449.46,-351.48 439.16,-353.98 448.76,-358.45 449.46,-351.48"/>
</g>
<!-- Node43 -->
<g id="node43" class="node">
<title>Node43</title>
<g id="a_node43"><a xlink:href="ZBuffer_8h.html" target="_top" xlink:title=" ">
<polygon fill="none" stroke="black" points="1206.5,-168.5 1206.5,-187.5 1267.5,-187.5 1267.5,-168.5 1206.5,-168.5"/>
<text text-anchor="middle" x="1237" y="-175.5" font-family="Helvetica,sans-Serif" font-size="10.00">ZBuffer.h</text>
</a>
</g>
</g>
<!-- Node2&#45;&gt;Node43 -->
<g id="edge58" class="edge">
<title>Node2&#45;&gt;Node43</title>
<path fill="none" stroke="midnightblue" d="M944.53,-395.06C950.34,-394.02 956.35,-392.97 962,-392 1011.26,-383.57 1146.44,-388.97 1184,-356 1230.77,-314.95 1237.09,-234.47 1237.41,-197.89"/>
<polygon fill="midnightblue" stroke="midnightblue" points="1240.91,-197.64 1237.35,-187.67 1233.91,-197.69 1240.91,-197.64"/>
</g>
<!-- Node4 -->
<g id="node4" class="node">
<title>Node4</title>
<g id="a_node4"><a xlink:title=" ">
<polygon fill="none" stroke="#bfbfbf" points="0,-112.5 0,-131.5 76,-131.5 76,-112.5 0,-112.5"/>
<text text-anchor="middle" x="38" y="-119.5" font-family="Helvetica,sans-Serif" font-size="10.00">sdkddkver.h</text>
</a>
</g>
</g>
<!-- Node3&#45;&gt;Node4 -->
<g id="edge3" class="edge">
<title>Node3&#45;&gt;Node4</title>
<path fill="none" stroke="midnightblue" d="M75.57,-168.08C69.15,-160.38 59.69,-149.03 51.88,-139.65"/>
<polygon fill="midnightblue" stroke="midnightblue" points="54.38,-137.19 45.29,-131.75 49.01,-141.67 54.38,-137.19"/>
</g>
<!-- Node5 -->
<g id="node5" class="node">
<title>Node5</title>
<g id="a_node5"><a xlink:title=" ">
<polygon fill="none" stroke="#bfbfbf" points="94,-112.5 94,-131.5 164,-131.5 164,-112.5 94,-112.5"/>
<text text-anchor="middle" x="129" y="-119.5" font-family="Helvetica,sans-Serif" font-size="10.00">Windows.h</text>
</a>
</g>
</g>
<!-- Node3&#45;&gt;Node5 -->
<g id="edge4" class="edge">
<title>Node3&#45;&gt;Node5</title>
<path fill="none" stroke="midnightblue" d="M90.6,-168.08C97.23,-160.3 107.02,-148.8 115.06,-139.37"/>
<polygon fill="midnightblue" stroke="midnightblue" points="117.73,-141.63 121.55,-131.75 112.4,-137.09 117.73,-141.63"/>
</g>
<!-- Node7 -->
<g id="node7" class="node">
<title>Node7</title>
<g id="a_node7"><a xlink:href="EngineException_8h.html" target="_top" xlink:title=" ">
<polygon fill="none" stroke="black" points="578.5,-168.5 578.5,-187.5 685.5,-187.5 685.5,-168.5 578.5,-168.5"/>
<text text-anchor="middle" x="632" y="-175.5" font-family="Helvetica,sans-Serif" font-size="10.00">EngineException.h</text>
</a>
</g>
</g>
<!-- Node6&#45;&gt;Node7 -->
<g id="edge6" class="edge">
<title>Node6&#45;&gt;Node7</title>
<path fill="none" stroke="midnightblue" d="M391.38,-280.44C414.43,-271.55 451.36,-257.14 483,-244 525.15,-226.49 573.51,-205.17 603.41,-191.83"/>
<polygon fill="midnightblue" stroke="midnightblue" points="605.1,-194.91 612.81,-187.63 602.25,-188.52 605.1,-194.91"/>
</g>
<!-- Node10 -->
<g id="node10" class="node">
<title>Node10</title>
<g id="a_node10"><a xlink:href="Vector3_8h.html" target="_top" xlink:title=" ">
<polygon fill="none" stroke="black" points="284.5,-112.5 284.5,-131.5 417.5,-131.5 417.5,-112.5 284.5,-112.5"/>
<text text-anchor="middle" x="351" y="-119.5" font-family="Helvetica,sans-Serif" font-size="10.00">LinearAlgebra/Vector3.h</text>
</a>
</g>
</g>
<!-- Node6&#45;&gt;Node10 -->
<g id="edge9" class="edge">
<title>Node6&#45;&gt;Node10</title>
<path fill="none" stroke="midnightblue" d="M343.94,-280.45C309,-267 247.01,-237.24 221,-188 205.75,-159.12 239.15,-142.83 275.91,-133.78"/>
<polygon fill="midnightblue" stroke="midnightblue" points="276.84,-137.16 285.81,-131.52 275.28,-130.33 276.84,-137.16"/>
</g>
<!-- Node22 -->
<g id="node22" class="node">
<title>Node22</title>
<g id="a_node22"><a xlink:href="GDIPlusManager_8h.html" target="_top" xlink:title=" ">
<polygon fill="none" stroke="black" points="30,-224.5 30,-243.5 136,-243.5 136,-224.5 30,-224.5"/>
<text text-anchor="middle" x="83" y="-231.5" font-family="Helvetica,sans-Serif" font-size="10.00">GDIPlusManager.h</text>
</a>
</g>
</g>
<!-- Node6&#45;&gt;Node22 -->
<g id="edge25" class="edge">
<title>Node6&#45;&gt;Node22</title>
<path fill="none" stroke="midnightblue" d="M334.79,-282.54C286.11,-273.35 196.34,-256.4 138.19,-245.42"/>
<polygon fill="midnightblue" stroke="midnightblue" points="138.54,-241.93 128.07,-243.51 137.25,-248.8 138.54,-241.93"/>
</g>
<!-- Node23 -->
<g id="node23" class="node">
<title>Node23</title>
<g id="a_node23"><a xlink:href="Surface_8h.html" target="_top" xlink:title=" ">
<polygon fill="none" stroke="black" points="338,-224.5 338,-243.5 400,-243.5 400,-224.5 338,-224.5"/>
<text text-anchor="middle" x="369" y="-231.5" font-family="Helvetica,sans-Serif" font-size="10.00">Surface.h</text>
</a>
</g>
</g>
<!-- Node6&#45;&gt;Node23 -->
<g id="edge27" class="edge">
<title>Node6&#45;&gt;Node23</title>
<path fill="none" stroke="midnightblue" d="M369,-280.08C369,-273.01 369,-262.86 369,-253.99"/>
<polygon fill="midnightblue" stroke="midnightblue" points="372.5,-253.75 369,-243.75 365.5,-253.75 372.5,-253.75"/>
</g>
<!-- Node28 -->
<g id="node28" class="node">
<title>Node28</title>
<g id="a_node28"><a xlink:title=" ">
<polygon fill="none" stroke="#bfbfbf" points="418,-224.5 418,-243.5 474,-243.5 474,-224.5 418,-224.5"/>
<text text-anchor="middle" x="446" y="-231.5" font-family="Helvetica,sans-Serif" font-size="10.00">d3d11.h</text>
</a>
</g>
</g>
<!-- Node6&#45;&gt;Node28 -->
<g id="edge36" class="edge">
<title>Node6&#45;&gt;Node28</title>
<path fill="none" stroke="midnightblue" d="M381.37,-280.32C393.16,-272.06 411.13,-259.45 425.14,-249.63"/>
<polygon fill="midnightblue" stroke="midnightblue" points="427.48,-252.26 433.66,-243.65 423.46,-246.53 427.48,-252.26"/>
</g>
<!-- Node29 -->
<g id="node29" class="node">
<title>Node29</title>
<g id="a_node29"><a xlink:title=" ">
<polygon fill="none" stroke="#bfbfbf" points="192.5,-224.5 192.5,-243.5 233.5,-243.5 233.5,-224.5 192.5,-224.5"/>
<text text-anchor="middle" x="213" y="-231.5" font-family="Helvetica,sans-Serif" font-size="10.00">wrl.h</text>
</a>
</g>
</g>
<!-- Node6&#45;&gt;Node29 -->
<g id="edge37" class="edge">
<title>Node6&#45;&gt;Node29</title>
<path fill="none" stroke="midnightblue" d="M344.28,-280.44C316.92,-270.97 272.81,-255.7 243.37,-245.51"/>
<polygon fill="midnightblue" stroke="midnightblue" points="244.21,-242.1 233.62,-242.14 241.92,-248.72 244.21,-242.1"/>
</g>
<!-- Node8 -->
<g id="node8" class="node">
<title>Node8</title>
<g id="a_node8"><a xlink:title=" ">
<polygon fill="none" stroke="#bfbfbf" points="548,-112.5 548,-131.5 592,-131.5 592,-112.5 548,-112.5"/>
<text text-anchor="middle" x="570" y="-119.5" font-family="Helvetica,sans-Serif" font-size="10.00">string</text>
</a>
</g>
</g>
<!-- Node7&#45;&gt;Node8 -->
<g id="edge7" class="edge">
<title>Node7&#45;&gt;Node8</title>
<path fill="none" stroke="midnightblue" d="M622.04,-168.32C612.87,-160.34 599.06,-148.31 587.97,-138.65"/>
<polygon fill="midnightblue" stroke="midnightblue" points="589.98,-135.76 580.14,-131.83 585.38,-141.04 589.98,-135.76"/>
</g>
<!-- Node9 -->
<g id="node9" class="node">
<title>Node9</title>
<g id="a_node9"><a xlink:title=" ">
<polygon fill="none" stroke="#bfbfbf" points="610.5,-112.5 610.5,-131.5 703.5,-131.5 703.5,-112.5 610.5,-112.5"/>
<text text-anchor="middle" x="657" y="-119.5" font-family="Helvetica,sans-Serif" font-size="10.00">source_location</text>
</a>
</g>
</g>
<!-- Node7&#45;&gt;Node9 -->
<g id="edge8" class="edge">
<title>Node7&#45;&gt;Node9</title>
<path fill="none" stroke="midnightblue" d="M636.13,-168.08C639.51,-160.77 644.42,-150.18 648.62,-141.1"/>
<polygon fill="midnightblue" stroke="midnightblue" points="651.92,-142.3 652.95,-131.75 645.57,-139.36 651.92,-142.3"/>
</g>
<!-- Node11 -->
<g id="node11" class="node">
<title>Node11</title>
<g id="a_node11"><a xlink:href="Math_8h.html" target="_top" xlink:title=" ">
<polygon fill="none" stroke="black" points="607,-56.5 607,-75.5 657,-75.5 657,-56.5 607,-56.5"/>
<text text-anchor="middle" x="632" y="-63.5" font-family="Helvetica,sans-Serif" font-size="10.00">Math.h</text>
</a>
</g>
</g>
<!-- Node10&#45;&gt;Node11 -->
<g id="edge10" class="edge">
<title>Node10&#45;&gt;Node11</title>
<path fill="none" stroke="midnightblue" d="M395.53,-112.44C451.41,-101.7 546.1,-83.51 597.06,-73.72"/>
<polygon fill="midnightblue" stroke="midnightblue" points="597.78,-77.14 606.94,-71.82 596.46,-70.27 597.78,-77.14"/>
</g>
<!-- Node10&#45;&gt;Node17 -->
<g id="edge16" class="edge">
<title>Node10&#45;&gt;Node17</title>
<path fill="none" stroke="midnightblue" d="M368.35,-112.32C385.67,-103.66 412.52,-90.24 432.5,-80.25"/>
<polygon fill="midnightblue" stroke="midnightblue" points="434.31,-83.26 441.69,-75.65 431.18,-77 434.31,-83.26"/>
</g>
<!-- Node18 -->
<g id="node18" class="node">
<title>Node18</title>
<g id="a_node18"><a xlink:title=" ">
<polygon fill="none" stroke="#bfbfbf" points="362,-0.5 362,-19.5 404,-19.5 404,-0.5 362,-0.5"/>
<text text-anchor="middle" x="383" y="-7.5" font-family="Helvetica,sans-Serif" font-size="10.00">array</text>
</a>
</g>
</g>
<!-- Node10&#45;&gt;Node18 -->
<g id="edge21" class="edge">
<title>Node10&#45;&gt;Node18</title>
<path fill="none" stroke="midnightblue" d="M346.89,-112.27C341.47,-99.49 333.46,-75.12 341,-56 345.51,-44.55 354.47,-34.29 362.95,-26.47"/>
<polygon fill="midnightblue" stroke="midnightblue" points="365.47,-28.93 370.79,-19.76 360.91,-23.61 365.47,-28.93"/>
</g>
<!-- Node19 -->
<g id="node19" class="node">
<title>Node19</title>
<g id="a_node19"><a xlink:title=" ">
<polygon fill="none" stroke="#bfbfbf" points="432.5,-0.5 432.5,-19.5 485.5,-19.5 485.5,-0.5 432.5,-0.5"/>
<text text-anchor="middle" x="459" y="-7.5" font-family="Helvetica,sans-Serif" font-size="10.00">cstddef</text>
</a>
</g>
</g>
<!-- Node10&#45;&gt;Node19 -->
<g id="edge24" class="edge">
<title>Node10&#45;&gt;Node19</title>
<path fill="none" stroke="midnightblue" d="M417.59,-118C447.49,-112.91 480.21,-101.35 499,-76 511.16,-59.59 494.18,-39.38 478.74,-25.89"/>
<polygon fill="midnightblue" stroke="midnightblue" points="480.91,-23.15 470.97,-19.51 476.47,-28.56 480.91,-23.15"/>
</g>
<!-- Node20 -->
<g id="node20" class="node">
<title>Node20</title>
<g id="a_node20"><a xlink:title=" ">
<polygon fill="none" stroke="#bfbfbf" points="264,-0.5 264,-19.5 324,-19.5 324,-0.5 264,-0.5"/>
<text text-anchor="middle" x="294" y="-7.5" font-family="Helvetica,sans-Serif" font-size="10.00">iostream</text>
</a>
</g>
</g>
<!-- Node10&#45;&gt;Node20 -->
<g id="edge22" class="edge">
<title>Node10&#45;&gt;Node20</title>
<path fill="none" stroke="midnightblue" d="M346.53,-112.37C337.2,-94.38 315.53,-52.55 303.13,-28.63"/>
<polygon fill="midnightblue" stroke="midnightblue" points="306.16,-26.86 298.45,-19.59 299.95,-30.08 306.16,-26.86"/>
</g>
<!-- Node21 -->
<g id="node21" class="node">
<title>Node21</title>
<g id="a_node21"><a xlink:title=" ">
<polygon fill="none" stroke="#bfbfbf" points="350.5,-56.5 350.5,-75.5 409.5,-75.5 409.5,-56.5 350.5,-56.5"/>
<text text-anchor="middle" x="380" y="-63.5" font-family="Helvetica,sans-Serif" font-size="10.00">compare</text>
</a>
</g>
</g>
<!-- Node10&#45;&gt;Node21 -->
<g id="edge23" class="edge">
<title>Node10&#45;&gt;Node21</title>
<path fill="none" stroke="midnightblue" d="M355.79,-112.08C359.76,-104.69 365.53,-93.95 370.43,-84.81"/>
<polygon fill="midnightblue" stroke="midnightblue" points="373.65,-86.22 375.3,-75.75 367.49,-82.91 373.65,-86.22"/>
</g>
<!-- Node12 -->
<g id="node12" class="node">
<title>Node12</title>
<g id="a_node12"><a xlink:title=" ">
<polygon fill="none" stroke="#bfbfbf" points="641.5,-0.5 641.5,-19.5 692.5,-19.5 692.5,-0.5 641.5,-0.5"/>
<text text-anchor="middle" x="667" y="-7.5" font-family="Helvetica,sans-Serif" font-size="10.00">math.h</text>
</a>
</g>
</g>
<!-- Node11&#45;&gt;Node12 -->
<g id="edge11" class="edge">
<title>Node11&#45;&gt;Node12</title>
<path fill="none" stroke="midnightblue" d="M637.78,-56.08C642.67,-48.53 649.83,-37.49 655.83,-28.23"/>
<polygon fill="midnightblue" stroke="midnightblue" points="658.83,-30.05 661.33,-19.75 652.95,-26.24 658.83,-30.05"/>
</g>
<!-- Node13 -->
<g id="node13" class="node">
<title>Node13</title>
<g id="a_node13"><a xlink:title=" ">
<polygon fill="none" stroke="#bfbfbf" points="503.5,-0.5 503.5,-19.5 550.5,-19.5 550.5,-0.5 503.5,-0.5"/>
<text text-anchor="middle" x="527" y="-7.5" font-family="Helvetica,sans-Serif" font-size="10.00">cmath</text>
</a>
</g>
</g>
<!-- Node11&#45;&gt;Node13 -->
<g id="edge12" class="edge">
<title>Node11&#45;&gt;Node13</title>
<path fill="none" stroke="midnightblue" d="M615.13,-56.32C598.29,-47.66 572.19,-34.24 552.76,-24.25"/>
<polygon fill="midnightblue" stroke="midnightblue" points="554.32,-21.12 543.83,-19.65 551.12,-27.34 554.32,-21.12"/>
</g>
<!-- Node14 -->
<g id="node14" class="node">
<title>Node14</title>
<g id="a_node14"><a xlink:title=" ">
<polygon fill="none" stroke="#bfbfbf" points="1029,-0.5 1029,-19.5 1073,-19.5 1073,-0.5 1029,-0.5"/>
<text text-anchor="middle" x="1051" y="-7.5" font-family="Helvetica,sans-Serif" font-size="10.00">limits</text>
</a>
</g>
</g>
<!-- Node11&#45;&gt;Node14 -->
<g id="edge13" class="edge">
<title>Node11&#45;&gt;Node14</title>
<path fill="none" stroke="midnightblue" d="M657.27,-61.74C729.74,-52.4 938.25,-25.53 1018.75,-15.16"/>
<polygon fill="midnightblue" stroke="midnightblue" points="1019.33,-18.61 1028.8,-13.86 1018.43,-11.67 1019.33,-18.61"/>
</g>
<!-- Node15 -->
<g id="node15" class="node">
<title>Node15</title>
<g id="a_node15"><a xlink:title=" ">
<polygon fill="none" stroke="#bfbfbf" points="710.5,-0.5 710.5,-19.5 769.5,-19.5 769.5,-0.5 710.5,-0.5"/>
<text text-anchor="middle" x="740" y="-7.5" font-family="Helvetica,sans-Serif" font-size="10.00">numbers</text>
</a>
</g>
</g>
<!-- Node11&#45;&gt;Node15 -->
<g id="edge14" class="edge">
<title>Node11&#45;&gt;Node15</title>
<path fill="none" stroke="midnightblue" d="M649.35,-56.32C666.67,-47.66 693.52,-34.24 713.5,-24.25"/>
<polygon fill="midnightblue" stroke="midnightblue" points="715.31,-27.26 722.69,-19.65 712.18,-21 715.31,-27.26"/>
</g>
<!-- Node16 -->
<g id="node16" class="node">
<title>Node16</title>
<g id="a_node16"><a xlink:title=" ">
<polygon fill="none" stroke="#bfbfbf" points="569,-0.5 569,-19.5 623,-19.5 623,-0.5 569,-0.5"/>
<text text-anchor="middle" x="596" y="-7.5" font-family="Helvetica,sans-Serif" font-size="10.00">random</text>
</a>
</g>
</g>
<!-- Node11&#45;&gt;Node16 -->
<g id="edge15" class="edge">
<title>Node11&#45;&gt;Node16</title>
<path fill="none" stroke="midnightblue" d="M626.06,-56.08C621.02,-48.53 613.66,-37.49 607.49,-28.23"/>
<polygon fill="midnightblue" stroke="midnightblue" points="610.29,-26.13 601.83,-19.75 604.47,-30.01 610.29,-26.13"/>
</g>
<!-- Node17&#45;&gt;Node13 -->
<g id="edge18" class="edge">
<title>Node17&#45;&gt;Node13</title>
<path fill="none" stroke="midnightblue" d="M469.93,-56.32C480.17,-48.18 495.72,-35.84 508,-26.09"/>
<polygon fill="midnightblue" stroke="midnightblue" points="510.22,-28.79 515.88,-19.83 505.87,-23.31 510.22,-28.79"/>
</g>
<!-- Node17&#45;&gt;Node18 -->
<g id="edge17" class="edge">
<title>Node17&#45;&gt;Node18</title>
<path fill="none" stroke="midnightblue" d="M446.79,-56.32C435.22,-48.11 417.62,-35.6 403.84,-25.81"/>
<polygon fill="midnightblue" stroke="midnightblue" points="405.61,-22.77 395.43,-19.83 401.56,-28.48 405.61,-22.77"/>
</g>
<!-- Node17&#45;&gt;Node19 -->
<g id="edge19" class="edge">
<title>Node17&#45;&gt;Node19</title>
<path fill="none" stroke="midnightblue" d="M459,-56.08C459,-49.01 459,-38.86 459,-29.99"/>
<polygon fill="midnightblue" stroke="midnightblue" points="462.5,-29.75 459,-19.75 455.5,-29.75 462.5,-29.75"/>
</g>
<!-- Node17&#45;&gt;Node20 -->
<g id="edge20" class="edge">
<title>Node17&#45;&gt;Node20</title>
<path fill="none" stroke="midnightblue" d="M432.86,-56.44C404.98,-47.32 360.65,-32.81 329.6,-22.65"/>
<polygon fill="midnightblue" stroke="midnightblue" points="330.62,-19.3 320.02,-19.52 328.44,-25.95 330.62,-19.3"/>
</g>
<!-- Node22&#45;&gt;Node3 -->
<g id="edge26" class="edge">
<title>Node22&#45;&gt;Node3</title>
<path fill="none" stroke="midnightblue" d="M83,-224.08C83,-217.01 83,-206.86 83,-197.99"/>
<polygon fill="midnightblue" stroke="midnightblue" points="86.5,-197.75 83,-187.75 79.5,-197.75 86.5,-197.75"/>
</g>
<!-- Node23&#45;&gt;Node3 -->
<g id="edge28" class="edge">
<title>Node23&#45;&gt;Node3</title>
<path fill="none" stroke="midnightblue" d="M337.85,-227.12C283.17,-216.79 170.5,-195.52 115.14,-185.07"/>
<polygon fill="midnightblue" stroke="midnightblue" points="115.65,-181.6 105.18,-183.19 114.35,-188.48 115.65,-181.6"/>
</g>
<!-- Node23&#45;&gt;Node7 -->
<g id="edge31" class="edge">
<title>Node23&#45;&gt;Node7</title>
<path fill="none" stroke="midnightblue" d="M400.43,-225.86C403.32,-225.22 406.22,-224.59 409,-224 466.82,-211.66 533.26,-198.37 578.47,-189.45"/>
<polygon fill="midnightblue" stroke="midnightblue" points="579.22,-192.88 588.36,-187.51 577.87,-186.01 579.22,-192.88"/>
</g>
<!-- Node23&#45;&gt;Node8 -->
<g id="edge34" class="edge">
<title>Node23&#45;&gt;Node8</title>
<path fill="none" stroke="midnightblue" d="M400.23,-225.65C444.28,-215.08 520.52,-195.98 531,-188 546.67,-176.07 557.35,-155.87 563.52,-141.15"/>
<polygon fill="midnightblue" stroke="midnightblue" points="566.87,-142.19 567.22,-131.6 560.34,-139.66 566.87,-142.19"/>
</g>
<!-- Node24 -->
<g id="node24" class="node">
<title>Node24</title>
<g id="a_node24"><a xlink:href="Colors_8h.html" target="_top" xlink:title=" ">
<polygon fill="none" stroke="black" points="230,-168.5 230,-187.5 286,-187.5 286,-168.5 230,-168.5"/>
<text text-anchor="middle" x="258" y="-175.5" font-family="Helvetica,sans-Serif" font-size="10.00">Colors.h</text>
</a>
</g>
</g>
<!-- Node23&#45;&gt;Node24 -->
<g id="edge29" class="edge">
<title>Node23&#45;&gt;Node24</title>
<path fill="none" stroke="midnightblue" d="M351.17,-224.32C333.28,-215.62 305.52,-202.12 284.95,-192.11"/>
<polygon fill="midnightblue" stroke="midnightblue" points="286.31,-188.88 275.79,-187.65 283.25,-195.18 286.31,-188.88"/>
</g>
<!-- Node25 -->
<g id="node25" class="node">
<title>Node25</title>
<g id="a_node25"><a xlink:title=" ">
<polygon fill="none" stroke="#bfbfbf" points="304,-168.5 304,-187.5 360,-187.5 360,-168.5 304,-168.5"/>
<text text-anchor="middle" x="332" y="-175.5" font-family="Helvetica,sans-Serif" font-size="10.00">assert.h</text>
</a>
</g>
</g>
<!-- Node23&#45;&gt;Node25 -->
<g id="edge32" class="edge">
<title>Node23&#45;&gt;Node25</title>
<path fill="none" stroke="midnightblue" d="M362.89,-224.08C357.72,-216.53 350.15,-205.49 343.81,-196.23"/>
<polygon fill="midnightblue" stroke="midnightblue" points="346.54,-194.02 338,-187.75 340.76,-197.98 346.54,-194.02"/>
</g>
<!-- Node26 -->
<g id="node26" class="node">
<title>Node26</title>
<g id="a_node26"><a xlink:title=" ">
<polygon fill="none" stroke="#bfbfbf" points="378,-168.5 378,-187.5 436,-187.5 436,-168.5 378,-168.5"/>
<text text-anchor="middle" x="407" y="-175.5" font-family="Helvetica,sans-Serif" font-size="10.00">memory</text>
</a>
</g>
</g>
<!-- Node23&#45;&gt;Node26 -->
<g id="edge33" class="edge">
<title>Node23&#45;&gt;Node26</title>
<path fill="none" stroke="midnightblue" d="M375.27,-224.08C380.64,-216.46 388.52,-205.26 395.08,-195.94"/>
<polygon fill="midnightblue" stroke="midnightblue" points="397.95,-197.94 400.84,-187.75 392.22,-193.91 397.95,-197.94"/>
</g>
<!-- Node27 -->
<g id="node27" class="node">
<title>Node27</title>
<g id="a_node27"><a xlink:title=" ">
<polygon fill="none" stroke="#bfbfbf" points="454,-168.5 454,-187.5 522,-187.5 522,-168.5 454,-168.5"/>
<text text-anchor="middle" x="488" y="-175.5" font-family="Helvetica,sans-Serif" font-size="10.00">filesystem</text>
</a>
</g>
</g>
<!-- Node23&#45;&gt;Node27 -->
<g id="edge35" class="edge">
<title>Node23&#45;&gt;Node27</title>
<path fill="none" stroke="midnightblue" d="M387.86,-224.44C407.27,-215.64 437.73,-201.81 459.96,-191.72"/>
<polygon fill="midnightblue" stroke="midnightblue" points="461.57,-194.84 469.23,-187.52 458.68,-188.46 461.57,-194.84"/>
</g>
<!-- Node24&#45;&gt;Node10 -->
<g id="edge30" class="edge">
<title>Node24&#45;&gt;Node10</title>
<path fill="none" stroke="midnightblue" d="M272.94,-168.32C287.59,-159.82 310.13,-146.73 327.24,-136.8"/>
<polygon fill="midnightblue" stroke="midnightblue" points="329.2,-139.7 336.1,-131.65 325.69,-133.65 329.2,-139.7"/>
</g>
<!-- Node31&#45;&gt;Node10 -->
<g id="edge40" class="edge">
<title>Node31&#45;&gt;Node10</title>
<path fill="none" stroke="midnightblue" d="M885.28,-224.45C835.71,-208.69 731.18,-175.93 694,-168 603.44,-148.69 497.56,-136.32 427.66,-129.53"/>
<polygon fill="midnightblue" stroke="midnightblue" points="427.9,-126.04 417.61,-128.57 427.23,-133 427.9,-126.04"/>
</g>
<!-- Node32 -->
<g id="node32" class="node">
<title>Node32</title>
<g id="a_node32"><a xlink:href="tiny__obj__loader_8h.html" target="_top" xlink:title=" ">
<polygon fill="none" stroke="black" points="780,-168.5 780,-187.5 880,-187.5 880,-168.5 780,-168.5"/>
<text text-anchor="middle" x="830" y="-175.5" font-family="Helvetica,sans-Serif" font-size="10.00">tiny_obj_loader.h</text>
</a>
</g>
</g>
<!-- Node31&#45;&gt;Node32 -->
<g id="edge41" class="edge">
<title>Node31&#45;&gt;Node32</title>
<path fill="none" stroke="midnightblue" d="M898.83,-224.32C886.15,-215.98 866.77,-203.21 851.79,-193.35"/>
<polygon fill="midnightblue" stroke="midnightblue" points="853.42,-190.23 843.14,-187.65 849.57,-196.08 853.42,-190.23"/>
</g>
<!-- Node34 -->
<g id="node34" class="node">
<title>Node34</title>
<g id="a_node34"><a xlink:title=" ">
<polygon fill="none" stroke="#bfbfbf" points="876.5,-112.5 876.5,-131.5 923.5,-131.5 923.5,-112.5 876.5,-112.5"/>
<text text-anchor="middle" x="900" y="-119.5" font-family="Helvetica,sans-Serif" font-size="10.00">vector</text>
</a>
</g>
</g>
<!-- Node31&#45;&gt;Node34 -->
<g id="edge51" class="edge">
<title>Node31&#45;&gt;Node34</title>
<path fill="none" stroke="midnightblue" d="M911.06,-224.37C909.12,-206.62 904.65,-165.67 902.03,-141.6"/>
<polygon fill="midnightblue" stroke="midnightblue" points="905.5,-141.15 900.94,-131.59 898.54,-141.91 905.5,-141.15"/>
</g>
<!-- Node35 -->
<g id="node35" class="node">
<title>Node35</title>
<g id="a_node35"><a xlink:href="Miniball_8h.html" target="_top" xlink:title=" ">
<polygon fill="none" stroke="black" points="1076.5,-168.5 1076.5,-187.5 1141.5,-187.5 1141.5,-168.5 1076.5,-168.5"/>
<text text-anchor="middle" x="1109" y="-175.5" font-family="Helvetica,sans-Serif" font-size="10.00">Miniball.h</text>
</a>
</g>
</g>
<!-- Node31&#45;&gt;Node35 -->
<g id="edge45" class="edge">
<title>Node31&#45;&gt;Node35</title>
<path fill="none" stroke="midnightblue" d="M943.22,-224.44C976.93,-215.2 1030.8,-200.44 1067.93,-190.26"/>
<polygon fill="midnightblue" stroke="midnightblue" points="1069.21,-193.54 1077.93,-187.52 1067.36,-186.78 1069.21,-193.54"/>
</g>
<!-- Node40 -->
<g id="node40" class="node">
<title>Node40</title>
<g id="a_node40"><a xlink:title=" ">
<polygon fill="none" stroke="#bfbfbf" points="936.5,-168.5 936.5,-187.5 991.5,-187.5 991.5,-168.5 936.5,-168.5"/>
<text text-anchor="middle" x="964" y="-175.5" font-family="Helvetica,sans-Serif" font-size="10.00">fstream</text>
</a>
</g>
</g>
<!-- Node31&#45;&gt;Node40 -->
<g id="edge52" class="edge">
<title>Node31&#45;&gt;Node40</title>
<path fill="none" stroke="midnightblue" d="M920.59,-224.08C928.16,-216.22 939.38,-204.57 948.51,-195.08"/>
<polygon fill="midnightblue" stroke="midnightblue" points="951.16,-197.38 955.57,-187.75 946.12,-192.53 951.16,-197.38"/>
</g>
<!-- Node41 -->
<g id="node41" class="node">
<title>Node41</title>
<g id="a_node41"><a xlink:title=" ">
<polygon fill="none" stroke="#bfbfbf" points="1009.5,-168.5 1009.5,-187.5 1058.5,-187.5 1058.5,-168.5 1009.5,-168.5"/>
<text text-anchor="middle" x="1034" y="-175.5" font-family="Helvetica,sans-Serif" font-size="10.00">cctype</text>
</a>
</g>
</g>
<!-- Node31&#45;&gt;Node41 -->
<g id="edge53" class="edge">
<title>Node31&#45;&gt;Node41</title>
<path fill="none" stroke="midnightblue" d="M931.33,-224.44C951.32,-215.6 982.74,-201.69 1005.56,-191.59"/>
<polygon fill="midnightblue" stroke="midnightblue" points="1007.03,-194.76 1014.76,-187.52 1004.2,-188.36 1007.03,-194.76"/>
</g>
<!-- Node32&#45;&gt;Node8 -->
<g id="edge43" class="edge">
<title>Node32&#45;&gt;Node8</title>
<path fill="none" stroke="midnightblue" d="M779.69,-168.44C735.29,-160.58 668.64,-148.07 602.1,-132.11"/>
<polygon fill="midnightblue" stroke="midnightblue" points="602.83,-128.68 592.29,-129.73 601.18,-135.48 602.83,-128.68"/>
</g>
<!-- Node33 -->
<g id="node33" class="node">
<title>Node33</title>
<g id="a_node33"><a xlink:title=" ">
<polygon fill="none" stroke="#bfbfbf" points="811,-112.5 811,-131.5 849,-131.5 849,-112.5 811,-112.5"/>
<text text-anchor="middle" x="830" y="-119.5" font-family="Helvetica,sans-Serif" font-size="10.00">map</text>
</a>
</g>
</g>
<!-- Node32&#45;&gt;Node33 -->
<g id="edge42" class="edge">
<title>Node32&#45;&gt;Node33</title>
<path fill="none" stroke="midnightblue" d="M830,-168.08C830,-161.01 830,-150.86 830,-141.99"/>
<polygon fill="midnightblue" stroke="midnightblue" points="833.5,-141.75 830,-131.75 826.5,-141.75 833.5,-141.75"/>
</g>
<!-- Node32&#45;&gt;Node34 -->
<g id="edge44" class="edge">
<title>Node32&#45;&gt;Node34</title>
<path fill="none" stroke="midnightblue" d="M841.25,-168.32C851.8,-160.18 867.8,-147.84 880.44,-138.09"/>
<polygon fill="midnightblue" stroke="midnightblue" points="882.77,-140.71 888.55,-131.83 878.49,-135.17 882.77,-140.71"/>
</g>
<!-- Node35&#45;&gt;Node14 -->
<g id="edge50" class="edge">
<title>Node35&#45;&gt;Node14</title>
<path fill="none" stroke="midnightblue" d="M1098.91,-168.46C1089.79,-160.14 1076.8,-146.63 1070,-132 1054.38,-98.37 1051.22,-54.41 1050.8,-29.8"/>
<polygon fill="midnightblue" stroke="midnightblue" points="1054.3,-29.67 1050.76,-19.68 1047.3,-29.69 1054.3,-29.67"/>
</g>
<!-- Node36 -->
<g id="node36" class="node">
<title>Node36</title>
<g id="a_node36"><a xlink:title=" ">
<polygon fill="none" stroke="#bfbfbf" points="1211,-112.5 1211,-131.5 1263,-131.5 1263,-112.5 1211,-112.5"/>
<text text-anchor="middle" x="1237" y="-119.5" font-family="Helvetica,sans-Serif" font-size="10.00">cassert</text>
</a>
</g>
</g>
<!-- Node35&#45;&gt;Node36 -->
<g id="edge46" class="edge">
<title>Node35&#45;&gt;Node36</title>
<path fill="none" stroke="midnightblue" d="M1129.28,-168.44C1150.35,-159.56 1183.52,-145.56 1207.49,-135.45"/>
<polygon fill="midnightblue" stroke="midnightblue" points="1208.96,-138.63 1216.81,-131.52 1206.24,-132.18 1208.96,-138.63"/>
</g>
<!-- Node35&#45;&gt;Node37 -->
<g id="edge47" class="edge">
<title>Node35&#45;&gt;Node37</title>
<path fill="none" stroke="midnightblue" d="M1117.59,-168.08C1125.16,-160.22 1136.38,-148.57 1145.51,-139.08"/>
<polygon fill="midnightblue" stroke="midnightblue" points="1148.16,-141.38 1152.57,-131.75 1143.12,-136.53 1148.16,-141.38"/>
</g>
<!-- Node38 -->
<g id="node38" class="node">
<title>Node38</title>
<g id="a_node38"><a xlink:title=" ">
<polygon fill="none" stroke="#bfbfbf" points="1079,-112.5 1079,-131.5 1111,-131.5 1111,-112.5 1079,-112.5"/>
<text text-anchor="middle" x="1095" y="-119.5" font-family="Helvetica,sans-Serif" font-size="10.00">list</text>
</a>
</g>
</g>
<!-- Node35&#45;&gt;Node38 -->
<g id="edge48" class="edge">
<title>Node35&#45;&gt;Node38</title>
<path fill="none" stroke="midnightblue" d="M1106.69,-168.08C1104.83,-160.93 1102.16,-150.64 1099.85,-141.69"/>
<polygon fill="midnightblue" stroke="midnightblue" points="1103.17,-140.55 1097.27,-131.75 1096.39,-142.31 1103.17,-140.55"/>
</g>
<!-- Node39 -->
<g id="node39" class="node">
<title>Node39</title>
<g id="a_node39"><a xlink:title=" ">
<polygon fill="none" stroke="#bfbfbf" points="979,-112.5 979,-131.5 1023,-131.5 1023,-112.5 979,-112.5"/>
<text text-anchor="middle" x="1001" y="-119.5" font-family="Helvetica,sans-Serif" font-size="10.00">ctime</text>
</a>
</g>
</g>
<!-- Node35&#45;&gt;Node39 -->
<g id="edge49" class="edge">
<title>Node35&#45;&gt;Node39</title>
<path fill="none" stroke="midnightblue" d="M1091.65,-168.32C1074.33,-159.66 1047.48,-146.24 1027.5,-136.25"/>
<polygon fill="midnightblue" stroke="midnightblue" points="1028.82,-133 1018.31,-131.65 1025.69,-139.26 1028.82,-133"/>
</g>
<!-- Node42&#45;&gt;Node6 -->
<g id="edge55" class="edge">
<title>Node42&#45;&gt;Node6</title>
<path fill="none" stroke="midnightblue" d="M369,-336.08C369,-329.01 369,-318.86 369,-309.99"/>
<polygon fill="midnightblue" stroke="midnightblue" points="372.5,-309.75 369,-299.75 365.5,-309.75 372.5,-309.75"/>
</g>
<!-- Node42&#45;&gt;Node10 -->
<g id="edge56" class="edge">
<title>Node42&#45;&gt;Node10</title>
<path fill="none" stroke="midnightblue" d="M330.16,-336.43C285.64,-324.29 214.75,-297.37 183,-244 166.59,-216.42 207.13,-173.68 214,-168 234.17,-151.31 260.73,-140.74 285.09,-134.09"/>
<polygon fill="midnightblue" stroke="midnightblue" points="286.19,-137.42 295.01,-131.55 284.45,-130.64 286.19,-137.42"/>
</g>
<!-- Node43&#45;&gt;Node14 -->
<g id="edge59" class="edge">
<title>Node43&#45;&gt;Node14</title>
<path fill="none" stroke="midnightblue" d="M1247.72,-168.35C1262.1,-155.66 1284.47,-131.41 1272,-112 1229.96,-46.56 1133.83,-22.99 1083.34,-14.93"/>
<polygon fill="midnightblue" stroke="midnightblue" points="1083.7,-11.44 1073.29,-13.43 1082.67,-18.37 1083.7,-11.44"/>
</g>
<!-- Node43&#45;&gt;Node36 -->
<g id="edge60" class="edge">
<title>Node43&#45;&gt;Node36</title>
<path fill="none" stroke="midnightblue" d="M1237,-168.08C1237,-161.01 1237,-150.86 1237,-141.99"/>
<polygon fill="midnightblue" stroke="midnightblue" points="1240.5,-141.75 1237,-131.75 1233.5,-141.75 1240.5,-141.75"/>
</g>
<!-- Node45&#45;&gt;Node30 -->
<g id="edge64" class="edge">
<title>Node45&#45;&gt;Node30</title>
<path fill="none" stroke="midnightblue" d="M1255.48,-392.08C1257.49,-384.85 1260.39,-374.41 1262.89,-365.4"/>
<polygon fill="midnightblue" stroke="midnightblue" points="1266.26,-366.32 1265.57,-355.75 1259.52,-364.45 1266.26,-366.32"/>
</g>
</g>
</svg>
