<?xml version="1.0" encoding="UTF-8" standalone="no"?>
<!DOCTYPE svg PUBLIC "-//W3C//DTD SVG 1.1//EN"
 "http://www.w3.org/Graphics/SVG/1.1/DTD/svg11.dtd">
<!-- Generated by graphviz version 8.1.0 (20230707.0739)
 -->
<!-- Title: include/tiny_obj_loader.h Pages: 1 -->
<svg width="160pt" height="86pt"
 viewBox="0.00 0.00 160.12 86.00" xmlns="http://www.w3.org/2000/svg" xmlns:xlink="http://www.w3.org/1999/xlink">
<g id="graph0" class="graph" transform="scale(1 1) rotate(0) translate(4 82)">
<title>include/tiny_obj_loader.h</title>
<!-- Node1 -->
<g id="node1" class="node">
<title>Node1</title>
<g id="a_node1"><a xlink:title=" ">
<polygon fill="#bfbfbf" stroke="black" points="10.75,-57.5 10.75,-77.5 134,-77.5 134,-57.5 10.75,-57.5"/>
<text text-anchor="middle" x="72.38" y="-64" font-family="Helvetica,sans-Serif" font-size="10.00">include/tiny_obj_loader.h</text>
</a>
</g>
</g>
<!-- Node2 -->
<g id="node2" class="node">
<title>Node2</title>
<g id="a_node2"><a xlink:title=" ">
<polygon fill="none" stroke="#bfbfbf" points="0,-0.5 0,-20.5 34.75,-20.5 34.75,-0.5 0,-0.5"/>
<text text-anchor="middle" x="17.38" y="-7" font-family="Helvetica,sans-Serif" font-size="10.00">map</text>
</a>
</g>
</g>
<!-- Node1&#45;&gt;Node2 -->
<g id="edge1" class="edge">
<title>Node1&#45;&gt;Node2</title>
<path fill="none" stroke="midnightblue" d="M63.78,-57.91C55.76,-49.88 43.57,-37.69 33.7,-27.82"/>
<polygon fill="midnightblue" stroke="midnightblue" points="36.64,-25.81 27.09,-21.21 31.69,-30.76 36.64,-25.81"/>
</g>
<!-- Node3 -->
<g id="node3" class="node">
<title>Node3</title>
<g id="a_node3"><a xlink:title=" ">
<polygon fill="none" stroke="#bfbfbf" points="52.38,-0.5 52.38,-20.5 92.38,-20.5 92.38,-0.5 52.38,-0.5"/>
<text text-anchor="middle" x="72.38" y="-7" font-family="Helvetica,sans-Serif" font-size="10.00">string</text>
</a>
</g>
</g>
<!-- Node1&#45;&gt;Node3 -->
<g id="edge2" class="edge">
<title>Node1&#45;&gt;Node3</title>
<path fill="none" stroke="midnightblue" d="M72.38,-57.91C72.38,-50.76 72.38,-40.32 72.38,-31.15"/>
<polygon fill="midnightblue" stroke="midnightblue" points="75.88,-31.21 72.38,-21.21 68.88,-31.21 75.88,-31.21"/>
</g>
<!-- Node4 -->
<g id="node4" class="node">
<title>Node4</title>
<g id="a_node4"><a xlink:title=" ">
<polygon fill="none" stroke="#bfbfbf" points="110.62,-0.5 110.62,-20.5 152.12,-20.5 152.12,-0.5 110.62,-0.5"/>
<text text-anchor="middle" x="131.38" y="-7" font-family="Helvetica,sans-Serif" font-size="10.00">vector</text>
</a>
</g>
</g>
<!-- Node1&#45;&gt;Node4 -->
<g id="edge3" class="edge">
<title>Node1&#45;&gt;Node4</title>
<path fill="none" stroke="midnightblue" d="M81.85,-57.66C90.49,-49.61 103.46,-37.52 113.96,-27.73"/>
<polygon fill="midnightblue" stroke="midnightblue" points="115.8,-30.88 120.72,-21.5 111.02,-25.76 115.8,-30.88"/>
</g>
</g>
</svg>
