<?xml version="1.0" encoding="UTF-8" standalone="no"?>
<!DOCTYPE svg PUBLIC "-//W3C//DTD SVG 1.1//EN"
 "http://www.w3.org/Graphics/SVG/1.1/DTD/svg11.dtd">
<!-- Generated by graphviz version 2.43.0 (0)
 -->
<!-- Title: include/Triangle.h Pages: 1 -->
<svg width="1686pt" height="285pt"
 viewBox="0.00 0.00 1686.00 285.00" xmlns="http://www.w3.org/2000/svg" xmlns:xlink="http://www.w3.org/1999/xlink">
<g id="graph0" class="graph" transform="scale(1 1) rotate(0) translate(4 281)">
<title>include/Triangle.h</title>
<!-- Node1 -->
<g id="node1" class="node">
<title>Node1</title>
<g id="a_node1"><a xlink:title=" ">
<polygon fill="#bfbfbf" stroke="black" points="768.5,-257.5 768.5,-276.5 870.5,-276.5 870.5,-257.5 768.5,-257.5"/>
<text text-anchor="middle" x="819.5" y="-264.5" font-family="Helvetica,sans-Serif" font-size="10.00">include/Triangle.h</text>
</a>
</g>
</g>
<!-- Node2 -->
<g id="node2" class="node">
<title>Node2</title>
<g id="a_node2"><a xlink:href="Pipeline_8h.html" target="_top" xlink:title=" ">
<polygon fill="none" stroke="black" points="688,-196 688,-215 791,-215 791,-196 688,-196"/>
<text text-anchor="middle" x="739.5" y="-203" font-family="Helvetica,sans-Serif" font-size="10.00">include/Pipeline.h</text>
</a>
</g>
</g>
<!-- Node1&#45;&gt;Node2 -->
<g id="edge1" class="edge">
<title>Node1&#45;&gt;Node2</title>
<path fill="none" stroke="midnightblue" d="M799.73,-251.29C784.38,-239.88 763.64,-224.46 750.94,-215.01"/>
<polygon fill="midnightblue" stroke="midnightblue" points="797.93,-254.32 808.04,-257.48 802.1,-248.7 797.93,-254.32"/>
</g>
<!-- Node21 -->
<g id="node21" class="node">
<title>Node21</title>
<g id="a_node21"><a xlink:href="DefaultGeometryShader_8h.html" target="_top" xlink:title=" ">
<polygon fill="none" stroke="black" points="881.5,-190.5 881.5,-220.5 1063.5,-220.5 1063.5,-190.5 881.5,-190.5"/>
<text text-anchor="start" x="889.5" y="-208.5" font-family="Helvetica,sans-Serif" font-size="10.00">include/Shaders/DefaultGeometry</text>
<text text-anchor="middle" x="972.5" y="-197.5" font-family="Helvetica,sans-Serif" font-size="10.00">Shader.h</text>
</a>
</g>
</g>
<!-- Node1&#45;&gt;Node21 -->
<g id="edge36" class="edge">
<title>Node1&#45;&gt;Node21</title>
<path fill="none" stroke="midnightblue" d="M850.75,-253.85C875.6,-244.18 910.41,-230.65 936.44,-220.52"/>
<polygon fill="midnightblue" stroke="midnightblue" points="849.47,-250.59 841.42,-257.48 852.01,-257.11 849.47,-250.59"/>
</g>
<!-- Node3 -->
<g id="node3" class="node">
<title>Node3</title>
<g id="a_node3"><a xlink:href="GeometryFlatEffect_8h.html" target="_top" xlink:title=" ">
<polygon fill="none" stroke="black" points="767.5,-123.5 767.5,-153.5 907.5,-153.5 907.5,-123.5 767.5,-123.5"/>
<text text-anchor="start" x="775.5" y="-141.5" font-family="Helvetica,sans-Serif" font-size="10.00">include/Effects/Geometry</text>
<text text-anchor="middle" x="837.5" y="-130.5" font-family="Helvetica,sans-Serif" font-size="10.00">FlatEffect.h</text>
</a>
</g>
</g>
<!-- Node2&#45;&gt;Node3 -->
<g id="edge2" class="edge">
<title>Node2&#45;&gt;Node3</title>
<path fill="none" stroke="midnightblue" d="M761.13,-190.15C777.53,-179.27 799.95,-164.4 816.26,-153.59"/>
<polygon fill="midnightblue" stroke="midnightblue" points="759.12,-187.29 752.72,-195.73 762.98,-193.12 759.12,-187.29"/>
</g>
<!-- Node4 -->
<g id="node4" class="node">
<title>Node4</title>
<g id="a_node4"><a xlink:href="GeometryFlatScene_8h.html" target="_top" xlink:title=" ">
<polygon fill="none" stroke="black" points="703.5,-56.5 703.5,-86.5 863.5,-86.5 863.5,-56.5 703.5,-56.5"/>
<text text-anchor="start" x="711.5" y="-74.5" font-family="Helvetica,sans-Serif" font-size="10.00">include/Scenes/GeometryFlat</text>
<text text-anchor="middle" x="783.5" y="-63.5" font-family="Helvetica,sans-Serif" font-size="10.00">Scene.h</text>
</a>
</g>
</g>
<!-- Node2&#45;&gt;Node4 -->
<g id="edge35" class="edge">
<title>Node2&#45;&gt;Node4</title>
<path fill="none" stroke="midnightblue" d="M730.69,-186.68C723.57,-169.63 716.14,-143.56 725.5,-123 732.41,-107.81 746.41,-95.41 758.91,-86.71"/>
<polygon fill="midnightblue" stroke="midnightblue" points="727.61,-188.34 734.93,-195.99 733.98,-185.44 727.61,-188.34"/>
</g>
<!-- Node6 -->
<g id="node6" class="node">
<title>Node6</title>
<g id="a_node6"><a xlink:href="SolidEffect_8h.html" target="_top" xlink:title=" ">
<polygon fill="none" stroke="black" points="521.5,-129 521.5,-148 673.5,-148 673.5,-129 521.5,-129"/>
<text text-anchor="middle" x="597.5" y="-136" font-family="Helvetica,sans-Serif" font-size="10.00">include/Effects/SolidEffect.h</text>
</a>
</g>
</g>
<!-- Node2&#45;&gt;Node6 -->
<g id="edge5" class="edge">
<title>Node2&#45;&gt;Node6</title>
<path fill="none" stroke="midnightblue" d="M711.35,-191.61C683.22,-178.74 640.77,-159.31 616.43,-148.17"/>
<polygon fill="midnightblue" stroke="midnightblue" points="710.09,-194.89 720.64,-195.87 713.01,-188.52 710.09,-194.89"/>
</g>
<!-- Node7 -->
<g id="node7" class="node">
<title>Node7</title>
<g id="a_node7"><a xlink:href="CubeSolidScene_8h.html" target="_top" xlink:title=" ">
<polygon fill="none" stroke="black" points="374,-56.5 374,-86.5 515,-86.5 515,-56.5 374,-56.5"/>
<text text-anchor="start" x="382" y="-74.5" font-family="Helvetica,sans-Serif" font-size="10.00">include/Scenes/CubeSolid</text>
<text text-anchor="middle" x="444.5" y="-63.5" font-family="Helvetica,sans-Serif" font-size="10.00">Scene.h</text>
</a>
</g>
</g>
<!-- Node2&#45;&gt;Node7 -->
<g id="edge31" class="edge">
<title>Node2&#45;&gt;Node7</title>
<path fill="none" stroke="midnightblue" d="M677.69,-201.6C565.83,-195.71 339.13,-180.61 315.5,-154 288.5,-123.59 340.26,-100.35 386.03,-86.61"/>
<polygon fill="midnightblue" stroke="midnightblue" points="677.65,-205.1 687.82,-202.12 678.02,-198.11 677.65,-205.1"/>
</g>
<!-- Node8 -->
<g id="node8" class="node">
<title>Node8</title>
<g id="a_node8"><a xlink:href="DoubleCubeScene_8h.html" target="_top" xlink:title=" ">
<polygon fill="none" stroke="black" points="533.5,-56.5 533.5,-86.5 685.5,-86.5 685.5,-56.5 533.5,-56.5"/>
<text text-anchor="start" x="541.5" y="-74.5" font-family="Helvetica,sans-Serif" font-size="10.00">include/Scenes/DoubleCube</text>
<text text-anchor="middle" x="609.5" y="-63.5" font-family="Helvetica,sans-Serif" font-size="10.00">Scene.h</text>
</a>
</g>
</g>
<!-- Node2&#45;&gt;Node8 -->
<g id="edge34" class="edge">
<title>Node2&#45;&gt;Node8</title>
<path fill="none" stroke="midnightblue" d="M677.78,-199.32C617.81,-192.86 532.89,-179.42 512.5,-154 503.88,-143.25 505.35,-134.78 512.5,-123 522.89,-105.88 541.19,-94.29 559.12,-86.58"/>
<polygon fill="midnightblue" stroke="midnightblue" points="677.61,-202.82 687.92,-200.37 678.34,-195.86 677.61,-202.82"/>
</g>
<!-- Node9 -->
<g id="node9" class="node">
<title>Node9</title>
<g id="a_node9"><a xlink:href="SolidGeometryEffect_8h.html" target="_top" xlink:title=" ">
<polygon fill="none" stroke="black" points="65.5,-123.5 65.5,-153.5 229.5,-153.5 229.5,-123.5 65.5,-123.5"/>
<text text-anchor="start" x="73.5" y="-141.5" font-family="Helvetica,sans-Serif" font-size="10.00">include/Effects/SolidGeometry</text>
<text text-anchor="middle" x="147.5" y="-130.5" font-family="Helvetica,sans-Serif" font-size="10.00">Effect.h</text>
</a>
</g>
</g>
<!-- Node2&#45;&gt;Node9 -->
<g id="edge10" class="edge">
<title>Node2&#45;&gt;Node9</title>
<path fill="none" stroke="midnightblue" d="M677.82,-199.19C583.92,-190.88 399.52,-173.71 243.5,-154 238.98,-153.43 234.35,-152.82 229.68,-152.18"/>
<polygon fill="midnightblue" stroke="midnightblue" points="677.73,-202.69 688,-200.08 678.34,-195.72 677.73,-202.69"/>
</g>
<!-- Node10 -->
<g id="node10" class="node">
<title>Node10</title>
<g id="a_node10"><a xlink:href="CubeSolidGeometryScene_8h.html" target="_top" xlink:title=" ">
<polygon fill="none" stroke="black" points="0,-56.5 0,-86.5 141,-86.5 141,-56.5 0,-56.5"/>
<text text-anchor="start" x="8" y="-74.5" font-family="Helvetica,sans-Serif" font-size="10.00">include/Scenes/CubeSolid</text>
<text text-anchor="middle" x="70.5" y="-63.5" font-family="Helvetica,sans-Serif" font-size="10.00">GeometryScene.h</text>
</a>
</g>
</g>
<!-- Node2&#45;&gt;Node10 -->
<g id="edge30" class="edge">
<title>Node2&#45;&gt;Node10</title>
<path fill="none" stroke="midnightblue" d="M677.66,-204.61C517.42,-204.26 98.29,-198.99 56.5,-154 39.5,-135.7 52.08,-104.62 61.88,-86.6"/>
<polygon fill="midnightblue" stroke="midnightblue" points="677.83,-208.11 687.83,-204.63 677.84,-201.11 677.83,-208.11"/>
</g>
<!-- Node11 -->
<g id="node11" class="node">
<title>Node11</title>
<g id="a_node11"><a xlink:href="TextureEffect_8h.html" target="_top" xlink:title=" ">
<polygon fill="none" stroke="black" points="963.5,-129 963.5,-148 1127.5,-148 1127.5,-129 963.5,-129"/>
<text text-anchor="middle" x="1045.5" y="-136" font-family="Helvetica,sans-Serif" font-size="10.00">include/Effects/TextureEffect.h</text>
</a>
</g>
</g>
<!-- Node2&#45;&gt;Node11 -->
<g id="edge13" class="edge">
<title>Node2&#45;&gt;Node11</title>
<path fill="none" stroke="midnightblue" d="M789.86,-193.8C850.08,-181.01 949.66,-159.86 1005.09,-148.08"/>
<polygon fill="midnightblue" stroke="midnightblue" points="788.87,-190.43 779.82,-195.94 790.33,-197.28 788.87,-190.43"/>
</g>
<!-- Node12 -->
<g id="node12" class="node">
<title>Node12</title>
<g id="a_node12"><a xlink:href="CubeSkinScene_8h.html" target="_top" xlink:title=" ">
<polygon fill="none" stroke="black" points="881.5,-62 881.5,-81 1057.5,-81 1057.5,-62 881.5,-62"/>
<text text-anchor="middle" x="969.5" y="-69" font-family="Helvetica,sans-Serif" font-size="10.00">include/Scenes/CubeSkinScene.h</text>
</a>
</g>
</g>
<!-- Node2&#45;&gt;Node12 -->
<g id="edge29" class="edge">
<title>Node2&#45;&gt;Node12</title>
<path fill="none" stroke="midnightblue" d="M738.6,-185.89C738.76,-167.43 742.04,-139.55 758.5,-123 770.1,-111.33 864.18,-92.06 922.73,-81.01"/>
<polygon fill="midnightblue" stroke="midnightblue" points="735.1,-186.07 738.81,-195.99 742.1,-185.92 735.1,-186.07"/>
</g>
<!-- Node13 -->
<g id="node13" class="node">
<title>Node13</title>
<g id="a_node13"><a xlink:href="VertexColorEffect_8h.html" target="_top" xlink:title=" ">
<polygon fill="none" stroke="black" points="1183.5,-123.5 1183.5,-153.5 1331.5,-153.5 1331.5,-123.5 1183.5,-123.5"/>
<text text-anchor="start" x="1191.5" y="-141.5" font-family="Helvetica,sans-Serif" font-size="10.00">include/Effects/VertexColor</text>
<text text-anchor="middle" x="1257.5" y="-130.5" font-family="Helvetica,sans-Serif" font-size="10.00">Effect.h</text>
</a>
</g>
</g>
<!-- Node2&#45;&gt;Node13 -->
<g id="edge16" class="edge">
<title>Node2&#45;&gt;Node13</title>
<path fill="none" stroke="midnightblue" d="M801.48,-197.58C902.9,-186.2 1099.97,-163.81 1169.5,-154 1173.95,-153.37 1178.51,-152.7 1183.12,-152"/>
<polygon fill="midnightblue" stroke="midnightblue" points="800.93,-194.12 791.38,-198.71 801.71,-201.08 800.93,-194.12"/>
</g>
<!-- Node14 -->
<g id="node14" class="node">
<title>Node14</title>
<g id="a_node14"><a xlink:href="CubeVertexColorScene_8h.html" target="_top" xlink:title=" ">
<polygon fill="none" stroke="black" points="1075,-56.5 1075,-86.5 1224,-86.5 1224,-56.5 1075,-56.5"/>
<text text-anchor="start" x="1083" y="-74.5" font-family="Helvetica,sans-Serif" font-size="10.00">include/Scenes/CubeVertex</text>
<text text-anchor="middle" x="1149.5" y="-63.5" font-family="Helvetica,sans-Serif" font-size="10.00">ColorScene.h</text>
</a>
</g>
</g>
<!-- Node2&#45;&gt;Node14 -->
<g id="edge32" class="edge">
<title>Node2&#45;&gt;Node14</title>
<path fill="none" stroke="midnightblue" d="M799.41,-193.76C834.82,-185.89 879.76,-173.18 916.5,-154 935.82,-143.91 935.06,-132.85 954.5,-123 976.96,-111.62 1035.85,-97.07 1083.08,-86.51"/>
<polygon fill="midnightblue" stroke="midnightblue" points="798.26,-190.42 789.22,-195.95 799.73,-197.27 798.26,-190.42"/>
</g>
<!-- Node15 -->
<g id="node15" class="node">
<title>Node15</title>
<g id="a_node15"><a xlink:href="VertexFlatEffect_8h.html" target="_top" xlink:title=" ">
<polygon fill="none" stroke="black" points="324,-123.5 324,-153.5 465,-153.5 465,-123.5 324,-123.5"/>
<text text-anchor="start" x="332" y="-141.5" font-family="Helvetica,sans-Serif" font-size="10.00">include/Effects/VertexFlat</text>
<text text-anchor="middle" x="394.5" y="-130.5" font-family="Helvetica,sans-Serif" font-size="10.00">Effect.h</text>
</a>
</g>
</g>
<!-- Node2&#45;&gt;Node15 -->
<g id="edge19" class="edge">
<title>Node2&#45;&gt;Node15</title>
<path fill="none" stroke="midnightblue" d="M684.09,-194.06C624.63,-182.86 530.01,-165.03 465.22,-152.82"/>
<polygon fill="midnightblue" stroke="midnightblue" points="683.57,-197.52 694.04,-195.94 684.86,-190.64 683.57,-197.52"/>
</g>
<!-- Node16 -->
<g id="node16" class="node">
<title>Node16</title>
<g id="a_node16"><a xlink:href="CubeFlatIndependentScene_8h.html" target="_top" xlink:title=" ">
<polygon fill="none" stroke="black" points="159,-56.5 159,-86.5 356,-86.5 356,-56.5 159,-56.5"/>
<text text-anchor="start" x="167" y="-74.5" font-family="Helvetica,sans-Serif" font-size="10.00">include/Scenes/CubeFlatIndependent</text>
<text text-anchor="middle" x="257.5" y="-63.5" font-family="Helvetica,sans-Serif" font-size="10.00">Scene.h</text>
</a>
</g>
</g>
<!-- Node2&#45;&gt;Node16 -->
<g id="edge28" class="edge">
<title>Node2&#45;&gt;Node16</title>
<path fill="none" stroke="midnightblue" d="M677.8,-204.12C572.45,-202.37 363.48,-193.82 303.5,-154 279.68,-138.18 266.87,-105.59 261.19,-86.77"/>
<polygon fill="midnightblue" stroke="midnightblue" points="677.91,-207.62 687.96,-204.27 678.02,-200.62 677.91,-207.62"/>
</g>
<!-- Node17 -->
<g id="node17" class="node">
<title>Node17</title>
<g id="a_node17"><a xlink:href="VertexPositionColorEffect_8h.html" target="_top" xlink:title=" ">
<polygon fill="none" stroke="black" points="1350,-123.5 1350,-153.5 1511,-153.5 1511,-123.5 1350,-123.5"/>
<text text-anchor="start" x="1358" y="-141.5" font-family="Helvetica,sans-Serif" font-size="10.00">include/Effects/VertexPosition</text>
<text text-anchor="middle" x="1430.5" y="-130.5" font-family="Helvetica,sans-Serif" font-size="10.00">ColorEffect.h</text>
</a>
</g>
</g>
<!-- Node2&#45;&gt;Node17 -->
<g id="edge22" class="edge">
<title>Node2&#45;&gt;Node17</title>
<path fill="none" stroke="midnightblue" d="M801.31,-197.35C823.72,-194.86 849.24,-192.16 872.5,-190 1080.22,-170.69 1133.34,-178.61 1340.5,-154 1343.49,-153.65 1346.52,-153.26 1349.59,-152.86"/>
<polygon fill="midnightblue" stroke="midnightblue" points="800.8,-193.88 791.25,-198.47 801.58,-200.84 800.8,-193.88"/>
</g>
<!-- Node18 -->
<g id="node18" class="node">
<title>Node18</title>
<g id="a_node18"><a xlink:href="CubeVertexPositionColorScene_8h.html" target="_top" xlink:title=" ">
<polygon fill="none" stroke="black" points="1242,-56.5 1242,-86.5 1391,-86.5 1391,-56.5 1242,-56.5"/>
<text text-anchor="start" x="1250" y="-74.5" font-family="Helvetica,sans-Serif" font-size="10.00">include/Scenes/CubeVertex</text>
<text text-anchor="middle" x="1316.5" y="-63.5" font-family="Helvetica,sans-Serif" font-size="10.00">PositionColorScene.h</text>
</a>
</g>
</g>
<!-- Node2&#45;&gt;Node18 -->
<g id="edge33" class="edge">
<title>Node2&#45;&gt;Node18</title>
<path fill="none" stroke="midnightblue" d="M801.42,-197.53C909.2,-185.27 1121.31,-160.52 1136.5,-154 1156.53,-145.4 1155.51,-133.7 1174.5,-123 1202.43,-107.27 1236.14,-95.03 1263.71,-86.54"/>
<polygon fill="midnightblue" stroke="midnightblue" points="800.87,-194.07 791.33,-198.67 801.66,-201.02 800.87,-194.07"/>
</g>
<!-- Node19 -->
<g id="node19" class="node">
<title>Node19</title>
<g id="a_node19"><a xlink:href="WaveVertexTextureEffect_8h.html" target="_top" xlink:title=" ">
<polygon fill="none" stroke="black" points="1529,-123.5 1529,-153.5 1678,-153.5 1678,-123.5 1529,-123.5"/>
<text text-anchor="start" x="1537" y="-141.5" font-family="Helvetica,sans-Serif" font-size="10.00">include/Effects/WaveVertex</text>
<text text-anchor="middle" x="1603.5" y="-130.5" font-family="Helvetica,sans-Serif" font-size="10.00">TextureEffect.h</text>
</a>
</g>
</g>
<!-- Node2&#45;&gt;Node19 -->
<g id="edge25" class="edge">
<title>Node2&#45;&gt;Node19</title>
<path fill="none" stroke="midnightblue" d="M801.29,-197.07C823.69,-194.56 849.21,-191.91 872.5,-190 1159.97,-166.36 1233.94,-186.88 1520.5,-154 1523.26,-153.68 1526.07,-153.33 1528.9,-152.96"/>
<polygon fill="midnightblue" stroke="midnightblue" points="800.77,-193.61 791.23,-198.21 801.56,-200.57 800.77,-193.61"/>
</g>
<!-- Node3&#45;&gt;Node4 -->
<g id="edge3" class="edge">
<title>Node3&#45;&gt;Node4</title>
<path fill="none" stroke="midnightblue" d="M819.18,-115.45C811.25,-105.9 802.2,-95 795.19,-86.58"/>
<polygon fill="midnightblue" stroke="midnightblue" points="816.7,-117.94 825.78,-123.4 822.08,-113.47 816.7,-117.94"/>
</g>
<!-- Node5 -->
<g id="node5" class="node">
<title>Node5</title>
<g id="a_node5"><a xlink:href="Engine_8cpp.html" target="_top" xlink:title=" ">
<polygon fill="none" stroke="black" points="740,-0.5 740,-19.5 827,-19.5 827,-0.5 740,-0.5"/>
<text text-anchor="middle" x="783.5" y="-7.5" font-family="Helvetica,sans-Serif" font-size="10.00">src/Engine.cpp</text>
</a>
</g>
</g>
<!-- Node4&#45;&gt;Node5 -->
<g id="edge4" class="edge">
<title>Node4&#45;&gt;Node5</title>
<path fill="none" stroke="midnightblue" d="M783.5,-46.29C783.5,-36.86 783.5,-26.65 783.5,-19.66"/>
<polygon fill="midnightblue" stroke="midnightblue" points="780,-46.4 783.5,-56.4 787,-46.4 780,-46.4"/>
</g>
<!-- Node6&#45;&gt;Node7 -->
<g id="edge6" class="edge">
<title>Node6&#45;&gt;Node7</title>
<path fill="none" stroke="midnightblue" d="M567.87,-124.91C541.96,-113.91 504.39,-97.94 477.52,-86.53"/>
<polygon fill="midnightblue" stroke="midnightblue" points="566.61,-128.18 577.18,-128.87 569.35,-121.74 566.61,-128.18"/>
</g>
<!-- Node6&#45;&gt;Node8 -->
<g id="edge8" class="edge">
<title>Node6&#45;&gt;Node8</title>
<path fill="none" stroke="midnightblue" d="M600.96,-118.74C602.86,-108.49 605.16,-96 606.9,-86.59"/>
<polygon fill="midnightblue" stroke="midnightblue" points="597.49,-118.26 599.12,-128.73 604.38,-119.54 597.49,-118.26"/>
</g>
<!-- Node7&#45;&gt;Node5 -->
<g id="edge7" class="edge">
<title>Node7&#45;&gt;Node5</title>
<path fill="none" stroke="midnightblue" d="M525.14,-55.89C607.06,-41.38 690.48,-26.97 739.95,-18.47"/>
<polygon fill="midnightblue" stroke="midnightblue" points="524.4,-52.47 515.17,-57.66 525.62,-59.36 524.4,-52.47"/>
</g>
<!-- Node8&#45;&gt;Node5 -->
<g id="edge9" class="edge">
<title>Node8&#45;&gt;Node5</title>
<path fill="none" stroke="midnightblue" d="M660.46,-53.08C692.69,-42.05 732.93,-28.29 758.44,-19.57"/>
<polygon fill="midnightblue" stroke="midnightblue" points="659.07,-49.85 650.74,-56.4 661.33,-56.48 659.07,-49.85"/>
</g>
<!-- Node9&#45;&gt;Node10 -->
<g id="edge11" class="edge">
<title>Node9&#45;&gt;Node10</title>
<path fill="none" stroke="midnightblue" d="M123.08,-116.88C111.38,-107.01 97.66,-95.43 87.18,-86.58"/>
<polygon fill="midnightblue" stroke="midnightblue" points="120.89,-119.62 130.79,-123.4 125.41,-114.27 120.89,-119.62"/>
</g>
<!-- Node10&#45;&gt;Node5 -->
<g id="edge12" class="edge">
<title>Node10&#45;&gt;Node5</title>
<path fill="none" stroke="midnightblue" d="M151.23,-56.01C378.8,-27.91 638.62,-16.24 739.98,-12.47"/>
<polygon fill="midnightblue" stroke="midnightblue" points="150.6,-52.56 141.11,-57.27 151.46,-59.51 150.6,-52.56"/>
</g>
<!-- Node11&#45;&gt;Node12 -->
<g id="edge14" class="edge">
<title>Node11&#45;&gt;Node12</title>
<path fill="none" stroke="midnightblue" d="M1027.63,-122.21C1012.65,-109.41 991.82,-91.59 979.59,-81.13"/>
<polygon fill="midnightblue" stroke="midnightblue" points="1025.38,-124.89 1035.25,-128.73 1029.93,-119.57 1025.38,-124.89"/>
</g>
<!-- Node12&#45;&gt;Node5 -->
<g id="edge15" class="edge">
<title>Node12&#45;&gt;Node5</title>
<path fill="none" stroke="midnightblue" d="M933.18,-58.88C897.02,-47.32 842.4,-29.84 810.1,-19.51"/>
<polygon fill="midnightblue" stroke="midnightblue" points="932.26,-62.26 942.85,-61.98 934.39,-55.59 932.26,-62.26"/>
</g>
<!-- Node13&#45;&gt;Node14 -->
<g id="edge17" class="edge">
<title>Node13&#45;&gt;Node14</title>
<path fill="none" stroke="midnightblue" d="M1225.13,-118.02C1208.32,-107.9 1188.16,-95.77 1172.89,-86.58"/>
<polygon fill="midnightblue" stroke="midnightblue" points="1223.69,-121.24 1234.07,-123.4 1227.3,-115.24 1223.69,-121.24"/>
</g>
<!-- Node14&#45;&gt;Node5 -->
<g id="edge18" class="edge">
<title>Node14&#45;&gt;Node5</title>
<path fill="none" stroke="midnightblue" d="M1064.75,-55.72C974.75,-40.76 880.78,-26.04 827.17,-17.73"/>
<polygon fill="midnightblue" stroke="midnightblue" points="1064.41,-59.21 1074.85,-57.4 1065.56,-52.31 1064.41,-59.21"/>
</g>
<!-- Node15&#45;&gt;Node16 -->
<g id="edge20" class="edge">
<title>Node15&#45;&gt;Node16</title>
<path fill="none" stroke="midnightblue" d="M355.49,-118.99C333.78,-108.69 307.17,-96.07 287.17,-86.58"/>
<polygon fill="midnightblue" stroke="midnightblue" points="354.24,-122.27 364.77,-123.4 357.24,-115.95 354.24,-122.27"/>
</g>
<!-- Node16&#45;&gt;Node5 -->
<g id="edge21" class="edge">
<title>Node16&#45;&gt;Node5</title>
<path fill="none" stroke="midnightblue" d="M366.35,-55.92C509.45,-38.73 665.51,-22.76 739.83,-15.32"/>
<polygon fill="midnightblue" stroke="midnightblue" points="365.58,-52.49 356.07,-57.16 366.42,-59.43 365.58,-52.49"/>
</g>
<!-- Node17&#45;&gt;Node18 -->
<g id="edge23" class="edge">
<title>Node17&#45;&gt;Node18</title>
<path fill="none" stroke="midnightblue" d="M1396.82,-118.3C1378.98,-108.12 1357.46,-95.85 1341.19,-86.58"/>
<polygon fill="midnightblue" stroke="midnightblue" points="1395.34,-121.48 1405.76,-123.4 1398.81,-115.4 1395.34,-121.48"/>
</g>
<!-- Node18&#45;&gt;Node5 -->
<g id="edge24" class="edge">
<title>Node18&#45;&gt;Node5</title>
<path fill="none" stroke="midnightblue" d="M1231.74,-55.82C1077.35,-34.98 905.83,-20.47 827.07,-14.29"/>
<polygon fill="midnightblue" stroke="midnightblue" points="1231.5,-59.32 1241.88,-57.2 1232.45,-52.38 1231.5,-59.32"/>
</g>
<!-- Node20 -->
<g id="node20" class="node">
<title>Node20</title>
<g id="a_node20"><a xlink:href="VertexWaveScene_8h.html" target="_top" xlink:title=" ">
<polygon fill="none" stroke="black" points="1468,-56.5 1468,-86.5 1619,-86.5 1619,-56.5 1468,-56.5"/>
<text text-anchor="start" x="1476" y="-74.5" font-family="Helvetica,sans-Serif" font-size="10.00">include/Scenes/VertexWave</text>
<text text-anchor="middle" x="1543.5" y="-63.5" font-family="Helvetica,sans-Serif" font-size="10.00">Scene.h</text>
</a>
</g>
</g>
<!-- Node19&#45;&gt;Node20 -->
<g id="edge26" class="edge">
<title>Node19&#45;&gt;Node20</title>
<path fill="none" stroke="midnightblue" d="M1583.68,-116.02C1574.74,-106.34 1564.43,-95.17 1556.49,-86.58"/>
<polygon fill="midnightblue" stroke="midnightblue" points="1581.13,-118.42 1590.48,-123.4 1586.27,-113.67 1581.13,-118.42"/>
</g>
<!-- Node20&#45;&gt;Node5 -->
<g id="edge27" class="edge">
<title>Node20&#45;&gt;Node5</title>
<path fill="none" stroke="midnightblue" d="M1457.78,-61.41C1438.92,-59.52 1419.04,-57.62 1400.5,-56 1185.7,-37.28 928.37,-20.25 827.3,-13.77"/>
<polygon fill="midnightblue" stroke="midnightblue" points="1457.54,-64.9 1467.84,-62.43 1458.24,-57.94 1457.54,-64.9"/>
</g>
<!-- Node21&#45;&gt;Node3 -->
<g id="edge37" class="edge">
<title>Node21&#45;&gt;Node3</title>
<path fill="none" stroke="midnightblue" d="M934.06,-185.99C912.66,-175.69 886.45,-163.07 866.74,-153.58"/>
<polygon fill="midnightblue" stroke="midnightblue" points="932.68,-189.21 943.21,-190.4 935.72,-182.9 932.68,-189.21"/>
</g>
<!-- Node21&#45;&gt;Node6 -->
<g id="edge38" class="edge">
<title>Node21&#45;&gt;Node6</title>
<path fill="none" stroke="midnightblue" d="M881.36,-188.7C807.47,-175.9 706.18,-158.34 646.7,-148.03"/>
<polygon fill="midnightblue" stroke="midnightblue" points="881.14,-192.22 891.59,-190.48 882.34,-185.32 881.14,-192.22"/>
</g>
<!-- Node21&#45;&gt;Node11 -->
<g id="edge39" class="edge">
<title>Node21&#45;&gt;Node11</title>
<path fill="none" stroke="midnightblue" d="M995.89,-183.67C1009.37,-171.67 1025.6,-157.22 1035.74,-148.19"/>
<polygon fill="midnightblue" stroke="midnightblue" points="993.48,-181.13 988.34,-190.4 998.14,-186.36 993.48,-181.13"/>
</g>
<!-- Node21&#45;&gt;Node13 -->
<g id="edge40" class="edge">
<title>Node21&#45;&gt;Node13</title>
<path fill="none" stroke="midnightblue" d="M1044.03,-188.19C1090.71,-177.54 1151.02,-163.78 1195.63,-153.61"/>
<polygon fill="midnightblue" stroke="midnightblue" points="1042.96,-184.84 1033.99,-190.48 1044.52,-191.66 1042.96,-184.84"/>
</g>
<!-- Node21&#45;&gt;Node15 -->
<g id="edge41" class="edge">
<title>Node21&#45;&gt;Node15</title>
<path fill="none" stroke="midnightblue" d="M871.26,-193.77C778.03,-183.79 635.89,-168.35 512.5,-154 497.23,-152.22 480.85,-150.25 465.3,-148.35"/>
<polygon fill="midnightblue" stroke="midnightblue" points="870.94,-197.25 881.25,-194.83 871.68,-190.29 870.94,-197.25"/>
</g>
<!-- Node21&#45;&gt;Node17 -->
<g id="edge42" class="edge">
<title>Node21&#45;&gt;Node17</title>
<path fill="none" stroke="midnightblue" d="M1073.94,-191.23C1147.9,-181.39 1250.5,-167.42 1340.5,-154 1343.47,-153.56 1346.5,-153.1 1349.56,-152.63"/>
<polygon fill="midnightblue" stroke="midnightblue" points="1073.15,-187.8 1063.7,-192.59 1074.08,-194.74 1073.15,-187.8"/>
</g>
<!-- Node21&#45;&gt;Node19 -->
<g id="edge43" class="edge">
<title>Node21&#45;&gt;Node19</title>
<path fill="none" stroke="midnightblue" d="M1074.01,-197.62C1184.22,-189.57 1365.29,-174.67 1520.5,-154 1523.25,-153.63 1526.06,-153.24 1528.89,-152.83"/>
<polygon fill="midnightblue" stroke="midnightblue" points="1073.62,-194.14 1063.9,-198.35 1074.13,-201.12 1073.62,-194.14"/>
</g>
</g>
</svg>
