<?xml version="1.0" encoding="UTF-8" standalone="no"?>
<!DOCTYPE svg PUBLIC "-//W3C//DTD SVG 1.1//EN"
 "http://www.w3.org/Graphics/SVG/1.1/DTD/svg11.dtd">
<!-- Generated by graphviz version 2.43.0 (0)
 -->
<!-- Title: include/LinearAlgebra/Vector3.h Pages: 1 -->
<svg width="547pt" height="151pt"
 viewBox="0.00 0.00 547.00 151.00" xmlns="http://www.w3.org/2000/svg" xmlns:xlink="http://www.w3.org/1999/xlink">
<g id="graph0" class="graph" transform="scale(1 1) rotate(0) translate(4 147)">
<title>include/LinearAlgebra/Vector3.h</title>
<!-- Node1 -->
<g id="node1" class="node">
<title>Node1</title>
<g id="a_node1"><a xlink:title=" ">
<polygon fill="#bfbfbf" stroke="black" points="116,-112.5 116,-142.5 238,-142.5 238,-112.5 116,-112.5"/>
<text text-anchor="start" x="124" y="-130.5" font-family="Helvetica,sans-Serif" font-size="10.00">include/LinearAlgebra</text>
<text text-anchor="middle" x="177" y="-119.5" font-family="Helvetica,sans-Serif" font-size="10.00">/Vector3.h</text>
</a>
</g>
</g>
<!-- Node2 -->
<g id="node2" class="node">
<title>Node2</title>
<g id="a_node2"><a xlink:href="Math_8h.html" target="_top" xlink:title=" ">
<polygon fill="none" stroke="black" points="276,-56.5 276,-75.5 326,-75.5 326,-56.5 276,-56.5"/>
<text text-anchor="middle" x="301" y="-63.5" font-family="Helvetica,sans-Serif" font-size="10.00">Math.h</text>
</a>
</g>
</g>
<!-- Node1&#45;&gt;Node2 -->
<g id="edge1" class="edge">
<title>Node1&#45;&gt;Node2</title>
<path fill="none" stroke="midnightblue" d="M206.39,-112.4C226.82,-102.59 253.86,-89.62 273.8,-80.05"/>
<polygon fill="midnightblue" stroke="midnightblue" points="275.46,-83.14 282.96,-75.66 272.43,-76.83 275.46,-83.14"/>
</g>
<!-- Node8 -->
<g id="node8" class="node">
<title>Node8</title>
<g id="a_node8"><a xlink:href="Matrix3_8h.html" target="_top" xlink:title=" ">
<polygon fill="none" stroke="black" points="115.5,-56.5 115.5,-75.5 178.5,-75.5 178.5,-56.5 115.5,-56.5"/>
<text text-anchor="middle" x="147" y="-63.5" font-family="Helvetica,sans-Serif" font-size="10.00">Matrix3.h</text>
</a>
</g>
</g>
<!-- Node1&#45;&gt;Node8 -->
<g id="edge7" class="edge">
<title>Node1&#45;&gt;Node8</title>
<path fill="none" stroke="midnightblue" d="M169.89,-112.4C165.71,-104.11 160.39,-93.55 155.93,-84.71"/>
<polygon fill="midnightblue" stroke="midnightblue" points="158.99,-83.01 151.37,-75.66 152.74,-86.16 158.99,-83.01"/>
</g>
<!-- Node9 -->
<g id="node9" class="node">
<title>Node9</title>
<g id="a_node9"><a xlink:title=" ">
<polygon fill="none" stroke="#bfbfbf" points="0,-0.5 0,-19.5 42,-19.5 42,-0.5 0,-0.5"/>
<text text-anchor="middle" x="21" y="-7.5" font-family="Helvetica,sans-Serif" font-size="10.00">array</text>
</a>
</g>
</g>
<!-- Node1&#45;&gt;Node9 -->
<g id="edge12" class="edge">
<title>Node1&#45;&gt;Node9</title>
<path fill="none" stroke="midnightblue" d="M150.07,-112.37C132.89,-102.91 110.47,-89.71 92,-76 71.59,-60.84 50.36,-40.74 36.5,-26.93"/>
<polygon fill="midnightblue" stroke="midnightblue" points="38.77,-24.25 29.25,-19.61 33.8,-29.18 38.77,-24.25"/>
</g>
<!-- Node10 -->
<g id="node10" class="node">
<title>Node10</title>
<g id="a_node10"><a xlink:title=" ">
<polygon fill="none" stroke="#bfbfbf" points="60.5,-0.5 60.5,-19.5 113.5,-19.5 113.5,-0.5 60.5,-0.5"/>
<text text-anchor="middle" x="87" y="-7.5" font-family="Helvetica,sans-Serif" font-size="10.00">cstddef</text>
</a>
</g>
</g>
<!-- Node1&#45;&gt;Node10 -->
<g id="edge15" class="edge">
<title>Node1&#45;&gt;Node10</title>
<path fill="none" stroke="midnightblue" d="M149.35,-112.32C134.86,-103.62 117.92,-91.22 107,-76 97.22,-62.36 92.13,-43.82 89.54,-30.03"/>
<polygon fill="midnightblue" stroke="midnightblue" points="92.94,-29.1 87.91,-19.78 86.03,-30.2 92.94,-29.1"/>
</g>
<!-- Node11 -->
<g id="node11" class="node">
<title>Node11</title>
<g id="a_node11"><a xlink:title=" ">
<polygon fill="none" stroke="#bfbfbf" points="132,-0.5 132,-19.5 192,-19.5 192,-0.5 132,-0.5"/>
<text text-anchor="middle" x="162" y="-7.5" font-family="Helvetica,sans-Serif" font-size="10.00">iostream</text>
</a>
</g>
</g>
<!-- Node1&#45;&gt;Node11 -->
<g id="edge13" class="edge">
<title>Node1&#45;&gt;Node11</title>
<path fill="none" stroke="midnightblue" d="M182.65,-112.27C187.55,-97.9 193.13,-75.14 188,-56 185.35,-46.1 179.93,-36.13 174.73,-28.1"/>
<polygon fill="midnightblue" stroke="midnightblue" points="177.46,-25.91 168.89,-19.68 171.71,-29.89 177.46,-25.91"/>
</g>
<!-- Node12 -->
<g id="node12" class="node">
<title>Node12</title>
<g id="a_node12"><a xlink:title=" ">
<polygon fill="none" stroke="#bfbfbf" points="344.5,-56.5 344.5,-75.5 403.5,-75.5 403.5,-56.5 344.5,-56.5"/>
<text text-anchor="middle" x="374" y="-63.5" font-family="Helvetica,sans-Serif" font-size="10.00">compare</text>
</a>
</g>
</g>
<!-- Node1&#45;&gt;Node12 -->
<g id="edge14" class="edge">
<title>Node1&#45;&gt;Node12</title>
<path fill="none" stroke="midnightblue" d="M223.69,-112.4C257.88,-102.07 303.71,-88.23 335.74,-78.56"/>
<polygon fill="midnightblue" stroke="midnightblue" points="337.06,-81.81 345.62,-75.57 335.04,-75.11 337.06,-81.81"/>
</g>
<!-- Node3 -->
<g id="node3" class="node">
<title>Node3</title>
<g id="a_node3"><a xlink:title=" ">
<polygon fill="none" stroke="#bfbfbf" points="275.5,-0.5 275.5,-19.5 326.5,-19.5 326.5,-0.5 275.5,-0.5"/>
<text text-anchor="middle" x="301" y="-7.5" font-family="Helvetica,sans-Serif" font-size="10.00">math.h</text>
</a>
</g>
</g>
<!-- Node2&#45;&gt;Node3 -->
<g id="edge2" class="edge">
<title>Node2&#45;&gt;Node3</title>
<path fill="none" stroke="midnightblue" d="M301,-56.08C301,-49.01 301,-38.86 301,-29.99"/>
<polygon fill="midnightblue" stroke="midnightblue" points="304.5,-29.75 301,-19.75 297.5,-29.75 304.5,-29.75"/>
</g>
<!-- Node4 -->
<g id="node4" class="node">
<title>Node4</title>
<g id="a_node4"><a xlink:title=" ">
<polygon fill="none" stroke="#bfbfbf" points="210.5,-0.5 210.5,-19.5 257.5,-19.5 257.5,-0.5 210.5,-0.5"/>
<text text-anchor="middle" x="234" y="-7.5" font-family="Helvetica,sans-Serif" font-size="10.00">cmath</text>
</a>
</g>
</g>
<!-- Node2&#45;&gt;Node4 -->
<g id="edge3" class="edge">
<title>Node2&#45;&gt;Node4</title>
<path fill="none" stroke="midnightblue" d="M290.24,-56.32C280.23,-48.26 265.11,-36.08 253.07,-26.37"/>
<polygon fill="midnightblue" stroke="midnightblue" points="254.94,-23.38 244.96,-19.83 250.55,-28.83 254.94,-23.38"/>
</g>
<!-- Node5 -->
<g id="node5" class="node">
<title>Node5</title>
<g id="a_node5"><a xlink:title=" ">
<polygon fill="none" stroke="#bfbfbf" points="345,-0.5 345,-19.5 389,-19.5 389,-0.5 345,-0.5"/>
<text text-anchor="middle" x="367" y="-7.5" font-family="Helvetica,sans-Serif" font-size="10.00">limits</text>
</a>
</g>
</g>
<!-- Node2&#45;&gt;Node5 -->
<g id="edge4" class="edge">
<title>Node2&#45;&gt;Node5</title>
<path fill="none" stroke="midnightblue" d="M311.6,-56.32C321.46,-48.26 336.35,-36.08 348.22,-26.37"/>
<polygon fill="midnightblue" stroke="midnightblue" points="350.68,-28.88 356.2,-19.83 346.25,-23.46 350.68,-28.88"/>
</g>
<!-- Node6 -->
<g id="node6" class="node">
<title>Node6</title>
<g id="a_node6"><a xlink:title=" ">
<polygon fill="none" stroke="#bfbfbf" points="407.5,-0.5 407.5,-19.5 466.5,-19.5 466.5,-0.5 407.5,-0.5"/>
<text text-anchor="middle" x="437" y="-7.5" font-family="Helvetica,sans-Serif" font-size="10.00">numbers</text>
</a>
</g>
</g>
<!-- Node2&#45;&gt;Node6 -->
<g id="edge5" class="edge">
<title>Node2&#45;&gt;Node6</title>
<path fill="none" stroke="midnightblue" d="M322.55,-56.44C345.03,-47.52 380.49,-33.44 405.98,-23.32"/>
<polygon fill="midnightblue" stroke="midnightblue" points="407.55,-26.46 415.55,-19.52 404.97,-19.95 407.55,-26.46"/>
</g>
<!-- Node7 -->
<g id="node7" class="node">
<title>Node7</title>
<g id="a_node7"><a xlink:title=" ">
<polygon fill="none" stroke="#bfbfbf" points="485,-0.5 485,-19.5 539,-19.5 539,-0.5 485,-0.5"/>
<text text-anchor="middle" x="512" y="-7.5" font-family="Helvetica,sans-Serif" font-size="10.00">random</text>
</a>
</g>
</g>
<!-- Node2&#45;&gt;Node7 -->
<g id="edge6" class="edge">
<title>Node2&#45;&gt;Node7</title>
<path fill="none" stroke="midnightblue" d="M326.23,-58.51C329.52,-57.66 332.84,-56.81 336,-56 383.96,-43.7 439.29,-29.56 474.92,-20.47"/>
<polygon fill="midnightblue" stroke="midnightblue" points="476.04,-23.79 484.86,-17.93 474.31,-17.01 476.04,-23.79"/>
</g>
<!-- Node8&#45;&gt;Node4 -->
<g id="edge9" class="edge">
<title>Node8&#45;&gt;Node4</title>
<path fill="none" stroke="midnightblue" d="M160.98,-56.32C174.55,-47.9 195.38,-34.97 211.32,-25.07"/>
<polygon fill="midnightblue" stroke="midnightblue" points="213.41,-27.9 220.06,-19.65 209.71,-21.95 213.41,-27.9"/>
</g>
<!-- Node8&#45;&gt;Node9 -->
<g id="edge8" class="edge">
<title>Node8&#45;&gt;Node9</title>
<path fill="none" stroke="midnightblue" d="M127.03,-56.44C106.39,-47.6 73.94,-33.69 50.37,-23.59"/>
<polygon fill="midnightblue" stroke="midnightblue" points="51.44,-20.24 40.87,-19.52 48.68,-26.67 51.44,-20.24"/>
</g>
<!-- Node8&#45;&gt;Node10 -->
<g id="edge10" class="edge">
<title>Node8&#45;&gt;Node10</title>
<path fill="none" stroke="midnightblue" d="M137.36,-56.32C128.49,-48.34 115.13,-36.31 104.39,-26.65"/>
<polygon fill="midnightblue" stroke="midnightblue" points="106.59,-23.92 96.82,-19.83 101.91,-29.13 106.59,-23.92"/>
</g>
<!-- Node8&#45;&gt;Node11 -->
<g id="edge11" class="edge">
<title>Node8&#45;&gt;Node11</title>
<path fill="none" stroke="midnightblue" d="M149.48,-56.08C151.49,-48.85 154.39,-38.41 156.89,-29.4"/>
<polygon fill="midnightblue" stroke="midnightblue" points="160.26,-30.32 159.57,-19.75 153.52,-28.45 160.26,-30.32"/>
</g>
</g>
</svg>
