<?xml version="1.0" encoding="UTF-8" standalone="no"?>
<!DOCTYPE svg PUBLIC "-//W3C//DTD SVG 1.1//EN"
 "http://www.w3.org/Graphics/SVG/1.1/DTD/svg11.dtd">
<!-- Generated by graphviz version 2.43.0 (0)
 -->
<!-- Title: include/LinearAlgebra/Vector3.h Pages: 1 -->
<svg width="2313pt" height="531pt"
 viewBox="0.00 0.00 2313.27 531.00" xmlns="http://www.w3.org/2000/svg" xmlns:xlink="http://www.w3.org/1999/xlink">
<g id="graph0" class="graph" transform="scale(1 1) rotate(0) translate(4 527)">
<title>include/LinearAlgebra/Vector3.h</title>
<!-- Node1 -->
<g id="node1" class="node">
<title>Node1</title>
<g id="a_node1"><a xlink:title=" ">
<polygon fill="#bfbfbf" stroke="black" points="1441.27,-492.5 1441.27,-522.5 1563.27,-522.5 1563.27,-492.5 1441.27,-492.5"/>
<text text-anchor="start" x="1449.27" y="-510.5" font-family="Helvetica,sans-Serif" font-size="10.00">include/LinearAlgebra</text>
<text text-anchor="middle" x="1502.27" y="-499.5" font-family="Helvetica,sans-Serif" font-size="10.00">/Vector3.h</text>
</a>
</g>
</g>
<!-- Node2 -->
<g id="node2" class="node">
<title>Node2</title>
<g id="a_node2"><a xlink:href="Colors_8h.html" target="_top" xlink:title=" ">
<polygon fill="none" stroke="black" points="954.77,-431 954.77,-450 1049.77,-450 1049.77,-431 954.77,-431"/>
<text text-anchor="middle" x="1002.27" y="-438" font-family="Helvetica,sans-Serif" font-size="10.00">include/Colors.h</text>
</a>
</g>
</g>
<!-- Node1&#45;&gt;Node2 -->
<g id="edge1" class="edge">
<title>Node1&#45;&gt;Node2</title>
<path fill="none" stroke="midnightblue" d="M1431.17,-500.73C1344.4,-493.13 1193.41,-478.08 1065.27,-456 1055.76,-454.36 1045.52,-452.19 1036.13,-450.02"/>
<polygon fill="midnightblue" stroke="midnightblue" points="1430.9,-504.22 1441.16,-501.6 1431.5,-497.25 1430.9,-504.22"/>
</g>
<!-- Node4 -->
<g id="node4" class="node">
<title>Node4</title>
<g id="a_node4"><a xlink:href="Graphics_8h.html" target="_top" xlink:title=" ">
<polygon fill="none" stroke="black" points="831.77,-313.5 831.77,-332.5 938.77,-332.5 938.77,-313.5 831.77,-313.5"/>
<text text-anchor="middle" x="885.27" y="-320.5" font-family="Helvetica,sans-Serif" font-size="10.00">include/Graphics.h</text>
</a>
</g>
</g>
<!-- Node1&#45;&gt;Node4 -->
<g id="edge64" class="edge">
<title>Node1&#45;&gt;Node4</title>
<path fill="none" stroke="midnightblue" d="M1430.89,-504C1289.49,-498.49 984.04,-483.52 945.27,-456 902.37,-425.55 889.52,-356.84 886.25,-332.63"/>
<polygon fill="midnightblue" stroke="midnightblue" points="1431.06,-507.51 1441.19,-504.4 1431.33,-500.52 1431.06,-507.51"/>
</g>
<!-- Node20 -->
<g id="node20" class="node">
<title>Node20</title>
<g id="a_node20"><a xlink:href="CubeSkinScene_8h.html" target="_top" xlink:title=" ">
<polygon fill="none" stroke="black" points="1831.27,-62 1831.27,-81 2007.27,-81 2007.27,-62 1831.27,-62"/>
<text text-anchor="middle" x="1919.27" y="-69" font-family="Helvetica,sans-Serif" font-size="10.00">include/Scenes/CubeSkinScene.h</text>
</a>
</g>
</g>
<!-- Node1&#45;&gt;Node20 -->
<g id="edge82" class="edge">
<title>Node1&#45;&gt;Node20</title>
<path fill="none" stroke="midnightblue" d="M1573.28,-495.24C1720.67,-467.62 2057.64,-381.37 2197.27,-154 2204.48,-142.26 2206.1,-133.58 2197.27,-123 2173.34,-94.33 2079.54,-81.9 2007.45,-76.53"/>
<polygon fill="midnightblue" stroke="midnightblue" points="1572.63,-491.8 1563.43,-497.06 1573.9,-498.69 1572.63,-491.8"/>
</g>
<!-- Node29 -->
<g id="node29" class="node">
<title>Node29</title>
<g id="a_node29"><a xlink:href="PubeScreenTransformer_8h.html" target="_top" xlink:title=" ">
<polygon fill="none" stroke="black" points="1145.77,-257.5 1145.77,-276.5 1324.77,-276.5 1324.77,-257.5 1145.77,-257.5"/>
<text text-anchor="middle" x="1235.27" y="-264.5" font-family="Helvetica,sans-Serif" font-size="10.00">include/PubeScreenTransformer.h</text>
</a>
</g>
</g>
<!-- Node1&#45;&gt;Node29 -->
<g id="edge81" class="edge">
<title>Node1&#45;&gt;Node29</title>
<path fill="none" stroke="midnightblue" d="M1478.72,-485.47C1422.66,-435.39 1283.11,-310.73 1245.01,-276.7"/>
<polygon fill="midnightblue" stroke="midnightblue" points="1476.58,-488.24 1486.37,-492.29 1481.24,-483.02 1476.58,-488.24"/>
</g>
<!-- Node32 -->
<g id="node32" class="node">
<title>Node32</title>
<g id="a_node32"><a xlink:href="IndexedTriangleList_8h.html" target="_top" xlink:title=" ">
<polygon fill="none" stroke="black" points="1343.27,-257.5 1343.27,-276.5 1501.27,-276.5 1501.27,-257.5 1343.27,-257.5"/>
<text text-anchor="middle" x="1422.27" y="-264.5" font-family="Helvetica,sans-Serif" font-size="10.00">include/IndexedTriangleList.h</text>
</a>
</g>
</g>
<!-- Node1&#45;&gt;Node32 -->
<g id="edge65" class="edge">
<title>Node1&#45;&gt;Node32</title>
<path fill="none" stroke="midnightblue" d="M1494.27,-482.65C1476.94,-430.98 1436.59,-310.69 1425.27,-276.95"/>
<polygon fill="midnightblue" stroke="midnightblue" points="1491,-483.93 1497.5,-492.29 1497.64,-481.7 1491,-483.93"/>
</g>
<!-- Node33 -->
<g id="node33" class="node">
<title>Node33</title>
<g id="a_node33"><a xlink:href="Cube_8h.html" target="_top" xlink:title=" ">
<polygon fill="none" stroke="black" points="1448.27,-123.5 1448.27,-153.5 1552.27,-153.5 1552.27,-123.5 1448.27,-123.5"/>
<text text-anchor="start" x="1456.27" y="-141.5" font-family="Helvetica,sans-Serif" font-size="10.00">include/Primitives</text>
<text text-anchor="middle" x="1500.27" y="-130.5" font-family="Helvetica,sans-Serif" font-size="10.00">/Cube.h</text>
</a>
</g>
</g>
<!-- Node1&#45;&gt;Node33 -->
<g id="edge79" class="edge">
<title>Node1&#45;&gt;Node33</title>
<path fill="none" stroke="midnightblue" d="M1510.53,-482.51C1518.47,-457.31 1529.27,-416.35 1529.27,-380 1529.27,-380 1529.27,-380 1529.27,-266 1529.27,-224.32 1514.12,-176.82 1505.72,-153.67"/>
<polygon fill="midnightblue" stroke="midnightblue" points="1507.12,-481.7 1507.35,-492.29 1513.77,-483.87 1507.12,-481.7"/>
</g>
<!-- Node34 -->
<g id="node34" class="node">
<title>Node34</title>
<g id="a_node34"><a xlink:href="Plane_8h.html" target="_top" xlink:title=" ">
<polygon fill="none" stroke="black" points="1027.27,-190.5 1027.27,-220.5 1131.27,-220.5 1131.27,-190.5 1027.27,-190.5"/>
<text text-anchor="start" x="1035.27" y="-208.5" font-family="Helvetica,sans-Serif" font-size="10.00">include/Primitives</text>
<text text-anchor="middle" x="1079.27" y="-197.5" font-family="Helvetica,sans-Serif" font-size="10.00">/Plane.h</text>
</a>
</g>
</g>
<!-- Node1&#45;&gt;Node34 -->
<g id="edge80" class="edge">
<title>Node1&#45;&gt;Node34</title>
<path fill="none" stroke="midnightblue" d="M1430.96,-499.97C1310.4,-486.95 1079.27,-452.53 1079.27,-380 1079.27,-380 1079.27,-380 1079.27,-322 1079.27,-285.51 1079.27,-242.52 1079.27,-220.72"/>
<polygon fill="midnightblue" stroke="midnightblue" points="1430.9,-503.49 1441.21,-501.06 1431.64,-496.53 1430.9,-503.49"/>
</g>
<!-- Node35 -->
<g id="node35" class="node">
<title>Node35</title>
<g id="a_node35"><a xlink:href="Vector4_8h.html" target="_top" xlink:title=" ">
<polygon fill="none" stroke="black" points="1929.27,-425.5 1929.27,-455.5 2051.27,-455.5 2051.27,-425.5 1929.27,-425.5"/>
<text text-anchor="start" x="1937.27" y="-443.5" font-family="Helvetica,sans-Serif" font-size="10.00">include/LinearAlgebra</text>
<text text-anchor="middle" x="1990.27" y="-432.5" font-family="Helvetica,sans-Serif" font-size="10.00">/Vector4.h</text>
</a>
</g>
</g>
<!-- Node1&#45;&gt;Node35 -->
<g id="edge78" class="edge">
<title>Node1&#45;&gt;Node35</title>
<path fill="none" stroke="midnightblue" d="M1573.34,-499.32C1655.8,-490.65 1795.74,-474.84 1915.27,-456 1919.72,-455.3 1924.32,-454.53 1928.93,-453.72"/>
<polygon fill="midnightblue" stroke="midnightblue" points="1572.91,-495.85 1563.33,-500.37 1573.64,-502.81 1572.91,-495.85"/>
</g>
<!-- Node36 -->
<g id="node36" class="node">
<title>Node36</title>
<g id="a_node36"><a xlink:href="TexVertex_8h.html" target="_top" xlink:title=" ">
<polygon fill="none" stroke="black" points="2069.27,-431 2069.27,-450 2181.27,-450 2181.27,-431 2069.27,-431"/>
<text text-anchor="middle" x="2125.27" y="-438" font-family="Helvetica,sans-Serif" font-size="10.00">include/TexVertex.h</text>
</a>
</g>
</g>
<!-- Node1&#45;&gt;Node36 -->
<g id="edge83" class="edge">
<title>Node1&#45;&gt;Node36</title>
<path fill="none" stroke="midnightblue" d="M1573.57,-503C1680.01,-497.12 1886.57,-483.12 2060.27,-456 2070.32,-454.43 2081.14,-452.23 2091.02,-450.01"/>
<polygon fill="midnightblue" stroke="midnightblue" points="1573.07,-499.53 1563.27,-503.56 1573.45,-506.51 1573.07,-499.53"/>
</g>
<!-- Node37 -->
<g id="node37" class="node">
<title>Node37</title>
<g id="a_node37"><a xlink:href="Vector3_8cpp.html" target="_top" xlink:title=" ">
<polygon fill="none" stroke="black" points="2199.27,-425.5 2199.27,-455.5 2305.27,-455.5 2305.27,-425.5 2199.27,-425.5"/>
<text text-anchor="start" x="2207.27" y="-443.5" font-family="Helvetica,sans-Serif" font-size="10.00">test/LinearAlgebra</text>
<text text-anchor="middle" x="2252.27" y="-432.5" font-family="Helvetica,sans-Serif" font-size="10.00">/Vector3.cpp</text>
</a>
</g>
</g>
<!-- Node1&#45;&gt;Node37 -->
<g id="edge84" class="edge">
<title>Node1&#45;&gt;Node37</title>
<path fill="none" stroke="midnightblue" d="M1573.6,-504.94C1699.01,-501.37 1966.86,-490.11 2190.27,-456 2193.11,-455.57 2196.01,-455.07 2198.94,-454.53"/>
<polygon fill="midnightblue" stroke="midnightblue" points="1573.27,-501.44 1563.37,-505.22 1573.46,-508.44 1573.27,-501.44"/>
</g>
<!-- Node3 -->
<g id="node3" class="node">
<title>Node3</title>
<g id="a_node3"><a xlink:href="Surface_8h.html" target="_top" xlink:title=" ">
<polygon fill="none" stroke="black" points="949.77,-369.5 949.77,-388.5 1050.77,-388.5 1050.77,-369.5 949.77,-369.5"/>
<text text-anchor="middle" x="1000.27" y="-376.5" font-family="Helvetica,sans-Serif" font-size="10.00">include/Surface.h</text>
</a>
</g>
</g>
<!-- Node2&#45;&gt;Node3 -->
<g id="edge2" class="edge">
<title>Node2&#45;&gt;Node3</title>
<path fill="none" stroke="midnightblue" d="M1001.64,-420.82C1001.28,-410 1000.84,-396.9 1000.55,-388.51"/>
<polygon fill="midnightblue" stroke="midnightblue" points="998.15,-421.1 1001.98,-430.98 1005.14,-420.86 998.15,-421.1"/>
</g>
<!-- Node3&#45;&gt;Node4 -->
<g id="edge3" class="edge">
<title>Node3&#45;&gt;Node4</title>
<path fill="none" stroke="midnightblue" d="M972.79,-365.1C951.3,-355.01 922.05,-341.27 903.4,-332.52"/>
<polygon fill="midnightblue" stroke="midnightblue" points="971.51,-368.36 982.05,-369.44 974.48,-362.02 971.51,-368.36"/>
</g>
<!-- Node31 -->
<g id="node31" class="node">
<title>Node31</title>
<g id="a_node31"><a xlink:href="Surface_8cpp.html" target="_top" xlink:title=" ">
<polygon fill="none" stroke="black" points="956.77,-313.5 956.77,-332.5 1047.77,-332.5 1047.77,-313.5 956.77,-313.5"/>
<text text-anchor="middle" x="1002.27" y="-320.5" font-family="Helvetica,sans-Serif" font-size="10.00">src/Surface.cpp</text>
</a>
</g>
</g>
<!-- Node3&#45;&gt;Node31 -->
<g id="edge63" class="edge">
<title>Node3&#45;&gt;Node31</title>
<path fill="none" stroke="midnightblue" d="M1000.98,-358.8C1001.31,-349.91 1001.68,-339.78 1001.94,-332.75"/>
<polygon fill="midnightblue" stroke="midnightblue" points="997.47,-358.96 1000.6,-369.08 1004.47,-359.22 997.47,-358.96"/>
</g>
<!-- Node5 -->
<g id="node5" class="node">
<title>Node5</title>
<g id="a_node5"><a xlink:href="Engine_8h.html" target="_top" xlink:title=" ">
<polygon fill="none" stroke="black" points="28.77,-62 28.77,-81 125.77,-81 125.77,-62 28.77,-62"/>
<text text-anchor="middle" x="77.27" y="-69" font-family="Helvetica,sans-Serif" font-size="10.00">include/Engine.h</text>
</a>
</g>
</g>
<!-- Node4&#45;&gt;Node5 -->
<g id="edge4" class="edge">
<title>Node4&#45;&gt;Node5</title>
<path fill="none" stroke="midnightblue" d="M821.64,-321.05C662.88,-318.21 258.32,-308 206.27,-277 127.28,-229.96 89.03,-113.75 79.62,-81.13"/>
<polygon fill="midnightblue" stroke="midnightblue" points="821.67,-324.55 831.73,-321.22 821.79,-317.55 821.67,-324.55"/>
</g>
<!-- Node8 -->
<g id="node8" class="node">
<title>Node8</title>
<g id="a_node8"><a xlink:href="MainWindow_8cpp.html" target="_top" xlink:title=" ">
<polygon fill="none" stroke="black" points="19.27,-0.5 19.27,-19.5 135.27,-19.5 135.27,-0.5 19.27,-0.5"/>
<text text-anchor="middle" x="77.27" y="-7.5" font-family="Helvetica,sans-Serif" font-size="10.00">src/MainWindow.cpp</text>
</a>
</g>
</g>
<!-- Node4&#45;&gt;Node8 -->
<g id="edge62" class="edge">
<title>Node4&#45;&gt;Node8</title>
<path fill="none" stroke="midnightblue" d="M821.31,-320.53C670.86,-316.66 298.09,-304.52 176.27,-277 94.07,-258.43 0.27,-290.76 0.27,-206.5 0.27,-206.5 0.27,-206.5 0.27,-137.5 0.27,-100.31 -0.8,-87.31 19.27,-56 29.51,-40.01 47.48,-27.39 60.71,-19.63"/>
<polygon fill="midnightblue" stroke="midnightblue" points="821.66,-324.04 831.75,-320.8 821.84,-317.04 821.66,-324.04"/>
</g>
<!-- Node9 -->
<g id="node9" class="node">
<title>Node9</title>
<g id="a_node9"><a xlink:href="MainWindow_8h.html" target="_top" xlink:title=" ">
<polygon fill="none" stroke="black" points="144.27,-62 144.27,-81 270.27,-81 270.27,-62 144.27,-62"/>
<text text-anchor="middle" x="207.27" y="-69" font-family="Helvetica,sans-Serif" font-size="10.00">include/MainWindow.h</text>
</a>
</g>
</g>
<!-- Node4&#45;&gt;Node9 -->
<g id="edge8" class="edge">
<title>Node4&#45;&gt;Node9</title>
<path fill="none" stroke="midnightblue" d="M821.73,-322.28C664.39,-322.33 266.24,-318.35 224.27,-277 168.94,-222.5 195.51,-112.52 204.62,-81.08"/>
<polygon fill="midnightblue" stroke="midnightblue" points="821.75,-325.78 831.74,-322.27 821.74,-318.78 821.75,-325.78"/>
</g>
<!-- Node10 -->
<g id="node10" class="node">
<title>Node10</title>
<g id="a_node10"><a xlink:href="Graphics_8cpp.html" target="_top" xlink:title=" ">
<polygon fill="none" stroke="black" points="249.77,-0.5 249.77,-19.5 346.77,-19.5 346.77,-0.5 249.77,-0.5"/>
<text text-anchor="middle" x="298.27" y="-7.5" font-family="Helvetica,sans-Serif" font-size="10.00">src/Graphics.cpp</text>
</a>
</g>
</g>
<!-- Node4&#45;&gt;Node10 -->
<g id="edge61" class="edge">
<title>Node4&#45;&gt;Node10</title>
<path fill="none" stroke="midnightblue" d="M821.27,-313.89C679.86,-294.53 348.07,-240.65 282.27,-154 266.1,-132.71 288.14,-47.09 295.81,-19.57"/>
<polygon fill="midnightblue" stroke="midnightblue" points="821.14,-317.41 831.52,-315.28 822.08,-310.47 821.14,-317.41"/>
</g>
<!-- Node11 -->
<g id="node11" class="node">
<title>Node11</title>
<g id="a_node11"><a xlink:href="Pipeline_8h.html" target="_top" xlink:title=" ">
<polygon fill="none" stroke="black" points="1183.77,-196 1183.77,-215 1286.77,-215 1286.77,-196 1183.77,-196"/>
<text text-anchor="middle" x="1235.27" y="-203" font-family="Helvetica,sans-Serif" font-size="10.00">include/Pipeline.h</text>
</a>
</g>
</g>
<!-- Node4&#45;&gt;Node11 -->
<g id="edge13" class="edge">
<title>Node4&#45;&gt;Node11</title>
<path fill="none" stroke="midnightblue" d="M921.06,-310.19C991.61,-286.91 1147.14,-235.58 1209.08,-215.14"/>
<polygon fill="midnightblue" stroke="midnightblue" points="919.69,-306.96 911.29,-313.41 921.88,-313.6 919.69,-306.96"/>
</g>
<!-- Node4&#45;&gt;Node29 -->
<g id="edge48" class="edge">
<title>Node4&#45;&gt;Node29</title>
<path fill="none" stroke="midnightblue" d="M949.09,-312.15C1015.15,-301.96 1117.28,-286.2 1180,-276.53"/>
<polygon fill="midnightblue" stroke="midnightblue" points="948.16,-308.76 938.81,-313.74 949.22,-315.67 948.16,-308.76"/>
</g>
<!-- Node30 -->
<g id="node30" class="node">
<title>Node30</title>
<g id="a_node30"><a xlink:href="Scene_8h.html" target="_top" xlink:title=" ">
<polygon fill="none" stroke="black" points="912.77,-129 912.77,-148 1005.77,-148 1005.77,-129 912.77,-129"/>
<text text-anchor="middle" x="959.27" y="-136" font-family="Helvetica,sans-Serif" font-size="10.00">include/Scene.h</text>
</a>
</g>
</g>
<!-- Node4&#45;&gt;Node30 -->
<g id="edge50" class="edge">
<title>Node4&#45;&gt;Node30</title>
<path fill="none" stroke="midnightblue" d="M892.68,-303.72C908.35,-265.07 944.33,-176.33 955.73,-148.21"/>
<polygon fill="midnightblue" stroke="midnightblue" points="889.35,-302.62 888.84,-313.2 895.84,-305.25 889.35,-302.62"/>
</g>
<!-- Node6 -->
<g id="node6" class="node">
<title>Node6</title>
<g id="a_node6"><a xlink:href="Engine_8cpp.html" target="_top" xlink:title=" ">
<polygon fill="none" stroke="black" points="908.77,-0.5 908.77,-19.5 995.77,-19.5 995.77,-0.5 908.77,-0.5"/>
<text text-anchor="middle" x="952.27" y="-7.5" font-family="Helvetica,sans-Serif" font-size="10.00">src/Engine.cpp</text>
</a>
</g>
</g>
<!-- Node5&#45;&gt;Node6 -->
<g id="edge5" class="edge">
<title>Node5&#45;&gt;Node6</title>
<path fill="none" stroke="midnightblue" d="M116.91,-59.53C123.02,-58.15 129.28,-56.9 135.27,-56 428.13,-11.74 785.89,-9.72 908.57,-10.5"/>
<polygon fill="midnightblue" stroke="midnightblue" points="115.76,-56.21 106.85,-61.95 117.39,-63.01 115.76,-56.21"/>
</g>
<!-- Node7 -->
<g id="node7" class="node">
<title>Node7</title>
<g id="a_node7"><a xlink:href="Main_8cpp.html" target="_top" xlink:title=" ">
<polygon fill="none" stroke="black" points="153.27,-0.5 153.27,-19.5 231.27,-19.5 231.27,-0.5 153.27,-0.5"/>
<text text-anchor="middle" x="192.27" y="-7.5" font-family="Helvetica,sans-Serif" font-size="10.00">src/Main.cpp</text>
</a>
</g>
</g>
<!-- Node5&#45;&gt;Node7 -->
<g id="edge6" class="edge">
<title>Node5&#45;&gt;Node7</title>
<path fill="none" stroke="midnightblue" d="M102.65,-57.37C124.94,-45.83 156.71,-29.4 175.82,-19.51"/>
<polygon fill="midnightblue" stroke="midnightblue" points="101.02,-54.27 93.74,-61.98 104.23,-60.49 101.02,-54.27"/>
</g>
<!-- Node5&#45;&gt;Node8 -->
<g id="edge7" class="edge">
<title>Node5&#45;&gt;Node8</title>
<path fill="none" stroke="midnightblue" d="M77.27,-51.82C77.27,-41 77.27,-27.9 77.27,-19.51"/>
<polygon fill="midnightblue" stroke="midnightblue" points="73.77,-51.98 77.27,-61.98 80.77,-51.98 73.77,-51.98"/>
</g>
<!-- Node9&#45;&gt;Node6 -->
<g id="edge9" class="edge">
<title>Node9&#45;&gt;Node6</title>
<path fill="none" stroke="midnightblue" d="M280.52,-62.38C301.43,-60.18 324.24,-57.88 345.27,-56 556.03,-37.12 808.47,-20.24 908.43,-13.79"/>
<polygon fill="midnightblue" stroke="midnightblue" points="280.01,-58.92 270.43,-63.45 280.75,-65.88 280.01,-58.92"/>
</g>
<!-- Node9&#45;&gt;Node7 -->
<g id="edge11" class="edge">
<title>Node9&#45;&gt;Node7</title>
<path fill="none" stroke="midnightblue" d="M202.64,-52.16C199.9,-41.27 196.55,-27.99 194.41,-19.51"/>
<polygon fill="midnightblue" stroke="midnightblue" points="199.28,-53.13 205.12,-61.98 206.07,-51.42 199.28,-53.13"/>
</g>
<!-- Node9&#45;&gt;Node8 -->
<g id="edge12" class="edge">
<title>Node9&#45;&gt;Node8</title>
<path fill="none" stroke="midnightblue" d="M179.24,-57.67C154.02,-46.13 117.66,-29.49 95.86,-19.51"/>
<polygon fill="midnightblue" stroke="midnightblue" points="178.09,-61 188.64,-61.98 181.01,-54.63 178.09,-61"/>
</g>
<!-- Node9&#45;&gt;Node10 -->
<g id="edge10" class="edge">
<title>Node9&#45;&gt;Node10</title>
<path fill="none" stroke="midnightblue" d="M228.79,-56.43C246.33,-44.96 270.53,-29.13 285.25,-19.51"/>
<polygon fill="midnightblue" stroke="midnightblue" points="226.76,-53.57 220.31,-61.98 230.59,-59.43 226.76,-53.57"/>
</g>
<!-- Node12 -->
<g id="node12" class="node">
<title>Node12</title>
<g id="a_node12"><a xlink:href="GeometryFlatEffect_8h.html" target="_top" xlink:title=" ">
<polygon fill="none" stroke="black" points="508.27,-123.5 508.27,-153.5 648.27,-153.5 648.27,-123.5 508.27,-123.5"/>
<text text-anchor="start" x="516.27" y="-141.5" font-family="Helvetica,sans-Serif" font-size="10.00">include/Effects/Geometry</text>
<text text-anchor="middle" x="578.27" y="-130.5" font-family="Helvetica,sans-Serif" font-size="10.00">FlatEffect.h</text>
</a>
</g>
</g>
<!-- Node11&#45;&gt;Node12 -->
<g id="edge14" class="edge">
<title>Node11&#45;&gt;Node12</title>
<path fill="none" stroke="midnightblue" d="M1173.96,-194.44C1162.77,-192.8 1151.18,-191.24 1140.27,-190 928.59,-165.91 873.7,-180.15 662.27,-154 657.71,-153.44 653.03,-152.8 648.32,-152.11"/>
<polygon fill="midnightblue" stroke="midnightblue" points="1173.68,-197.94 1184.09,-195.96 1174.72,-191.02 1173.68,-197.94"/>
</g>
<!-- Node13 -->
<g id="node13" class="node">
<title>Node13</title>
<g id="a_node13"><a xlink:href="GeometryFlatScene_8h.html" target="_top" xlink:title=" ">
<polygon fill="none" stroke="black" points="538.27,-56.5 538.27,-86.5 698.27,-86.5 698.27,-56.5 538.27,-56.5"/>
<text text-anchor="start" x="546.27" y="-74.5" font-family="Helvetica,sans-Serif" font-size="10.00">include/Scenes/GeometryFlat</text>
<text text-anchor="middle" x="618.27" y="-63.5" font-family="Helvetica,sans-Serif" font-size="10.00">Scene.h</text>
</a>
</g>
</g>
<!-- Node11&#45;&gt;Node13 -->
<g id="edge47" class="edge">
<title>Node11&#45;&gt;Node13</title>
<path fill="none" stroke="midnightblue" d="M1175.1,-194.43C1163.57,-192.75 1151.56,-191.18 1140.27,-190 1069.32,-182.61 548.27,-205.84 499.27,-154 472.09,-125.25 523.79,-100.94 567.35,-86.55"/>
<polygon fill="midnightblue" stroke="midnightblue" points="1174.69,-197.91 1185.09,-195.93 1175.72,-190.99 1174.69,-197.91"/>
</g>
<!-- Node14 -->
<g id="node14" class="node">
<title>Node14</title>
<g id="a_node14"><a xlink:href="SolidEffect_8h.html" target="_top" xlink:title=" ">
<polygon fill="none" stroke="black" points="704.27,-129 704.27,-148 856.27,-148 856.27,-129 704.27,-129"/>
<text text-anchor="middle" x="780.27" y="-136" font-family="Helvetica,sans-Serif" font-size="10.00">include/Effects/SolidEffect.h</text>
</a>
</g>
</g>
<!-- Node11&#45;&gt;Node14 -->
<g id="edge17" class="edge">
<title>Node11&#45;&gt;Node14</title>
<path fill="none" stroke="midnightblue" d="M1173.5,-194.9C1162.44,-193.23 1151.02,-191.54 1140.27,-190 1020.42,-172.87 990.04,-171.63 870.27,-154 857.74,-152.16 844.26,-150.05 831.63,-148.02"/>
<polygon fill="midnightblue" stroke="midnightblue" points="1173.11,-198.38 1183.52,-196.42 1174.16,-191.46 1173.11,-198.38"/>
</g>
<!-- Node15 -->
<g id="node15" class="node">
<title>Node15</title>
<g id="a_node15"><a xlink:href="CubeSolidScene_8h.html" target="_top" xlink:title=" ">
<polygon fill="none" stroke="black" points="716.77,-56.5 716.77,-86.5 857.77,-86.5 857.77,-56.5 716.77,-56.5"/>
<text text-anchor="start" x="724.77" y="-74.5" font-family="Helvetica,sans-Serif" font-size="10.00">include/Scenes/CubeSolid</text>
<text text-anchor="middle" x="787.27" y="-63.5" font-family="Helvetica,sans-Serif" font-size="10.00">Scene.h</text>
</a>
</g>
</g>
<!-- Node11&#45;&gt;Node15 -->
<g id="edge43" class="edge">
<title>Node11&#45;&gt;Node15</title>
<path fill="none" stroke="midnightblue" d="M1173.56,-194.43C1162.49,-192.81 1151.05,-191.26 1140.27,-190 1091,-184.25 728.9,-190.46 695.27,-154 671.54,-128.28 715.97,-102.06 750.97,-86.55"/>
<polygon fill="midnightblue" stroke="midnightblue" points="1173.18,-197.92 1183.59,-195.93 1174.21,-190.99 1173.18,-197.92"/>
</g>
<!-- Node16 -->
<g id="node16" class="node">
<title>Node16</title>
<g id="a_node16"><a xlink:href="DoubleCubeScene_8h.html" target="_top" xlink:title=" ">
<polygon fill="none" stroke="black" points="876.27,-56.5 876.27,-86.5 1028.27,-86.5 1028.27,-56.5 876.27,-56.5"/>
<text text-anchor="start" x="884.27" y="-74.5" font-family="Helvetica,sans-Serif" font-size="10.00">include/Scenes/DoubleCube</text>
<text text-anchor="middle" x="952.27" y="-63.5" font-family="Helvetica,sans-Serif" font-size="10.00">Scene.h</text>
</a>
</g>
</g>
<!-- Node11&#45;&gt;Node16 -->
<g id="edge46" class="edge">
<title>Node11&#45;&gt;Node16</title>
<path fill="none" stroke="midnightblue" d="M1173.47,-195.06C1162.42,-193.37 1151,-191.63 1140.27,-190 1087.6,-181.98 937.99,-194.4 903.27,-154 884.97,-132.72 912.58,-103.76 933.2,-86.71"/>
<polygon fill="midnightblue" stroke="midnightblue" points="1173.09,-198.54 1183.5,-196.59 1174.14,-191.62 1173.09,-198.54"/>
</g>
<!-- Node17 -->
<g id="node17" class="node">
<title>Node17</title>
<g id="a_node17"><a xlink:href="SolidGeometryEffect_8h.html" target="_top" xlink:title=" ">
<polygon fill="none" stroke="black" points="1024.27,-123.5 1024.27,-153.5 1188.27,-153.5 1188.27,-123.5 1024.27,-123.5"/>
<text text-anchor="start" x="1032.27" y="-141.5" font-family="Helvetica,sans-Serif" font-size="10.00">include/Effects/SolidGeometry</text>
<text text-anchor="middle" x="1106.27" y="-130.5" font-family="Helvetica,sans-Serif" font-size="10.00">Effect.h</text>
</a>
</g>
</g>
<!-- Node11&#45;&gt;Node17 -->
<g id="edge22" class="edge">
<title>Node11&#45;&gt;Node17</title>
<path fill="none" stroke="midnightblue" d="M1209.15,-191.34C1187.44,-180.4 1156.6,-164.86 1134.35,-153.65"/>
<polygon fill="midnightblue" stroke="midnightblue" points="1207.63,-194.49 1218.14,-195.87 1210.78,-188.24 1207.63,-194.49"/>
</g>
<!-- Node18 -->
<g id="node18" class="node">
<title>Node18</title>
<g id="a_node18"><a xlink:href="CubeSolidGeometryScene_8h.html" target="_top" xlink:title=" ">
<polygon fill="none" stroke="black" points="1046.77,-56.5 1046.77,-86.5 1187.77,-86.5 1187.77,-56.5 1046.77,-56.5"/>
<text text-anchor="start" x="1054.77" y="-74.5" font-family="Helvetica,sans-Serif" font-size="10.00">include/Scenes/CubeSolid</text>
<text text-anchor="middle" x="1117.27" y="-63.5" font-family="Helvetica,sans-Serif" font-size="10.00">GeometryScene.h</text>
</a>
</g>
</g>
<!-- Node11&#45;&gt;Node18 -->
<g id="edge42" class="edge">
<title>Node11&#45;&gt;Node18</title>
<path fill="none" stroke="midnightblue" d="M1230.1,-186.29C1224.36,-168.56 1213.67,-141.63 1197.27,-123 1183.7,-107.59 1164.31,-95.19 1148.01,-86.53"/>
<polygon fill="midnightblue" stroke="midnightblue" points="1226.79,-187.43 1233.04,-195.98 1233.49,-185.4 1226.79,-187.43"/>
</g>
<!-- Node19 -->
<g id="node19" class="node">
<title>Node19</title>
<g id="a_node19"><a xlink:href="TextureEffect_8h.html" target="_top" xlink:title=" ">
<polygon fill="none" stroke="black" points="2024.27,-129 2024.27,-148 2188.27,-148 2188.27,-129 2024.27,-129"/>
<text text-anchor="middle" x="2106.27" y="-136" font-family="Helvetica,sans-Serif" font-size="10.00">include/Effects/TextureEffect.h</text>
</a>
</g>
</g>
<!-- Node11&#45;&gt;Node19 -->
<g id="edge25" class="edge">
<title>Node11&#45;&gt;Node19</title>
<path fill="none" stroke="midnightblue" d="M1297.38,-202.24C1429.08,-197.06 1745.96,-182.52 2010.27,-154 2024.85,-152.43 2040.6,-150.25 2055.06,-148.06"/>
<polygon fill="midnightblue" stroke="midnightblue" points="1296.95,-198.76 1287.1,-202.64 1297.22,-205.75 1296.95,-198.76"/>
</g>
<!-- Node11&#45;&gt;Node20 -->
<g id="edge41" class="edge">
<title>Node11&#45;&gt;Node20</title>
<path fill="none" stroke="midnightblue" d="M1296.8,-205C1466.43,-205.76 1931.24,-203.26 1977.27,-154 1999.79,-129.89 1956.93,-96.67 1933.34,-81.15"/>
<polygon fill="midnightblue" stroke="midnightblue" points="1296.8,-201.5 1286.78,-204.96 1296.77,-208.5 1296.8,-201.5"/>
</g>
<!-- Node21 -->
<g id="node21" class="node">
<title>Node21</title>
<g id="a_node21"><a xlink:href="VertexColorEffect_8h.html" target="_top" xlink:title=" ">
<polygon fill="none" stroke="black" points="1282.27,-123.5 1282.27,-153.5 1430.27,-153.5 1430.27,-123.5 1282.27,-123.5"/>
<text text-anchor="start" x="1290.27" y="-141.5" font-family="Helvetica,sans-Serif" font-size="10.00">include/Effects/VertexColor</text>
<text text-anchor="middle" x="1356.27" y="-130.5" font-family="Helvetica,sans-Serif" font-size="10.00">Effect.h</text>
</a>
</g>
</g>
<!-- Node11&#45;&gt;Node21 -->
<g id="edge28" class="edge">
<title>Node11&#45;&gt;Node21</title>
<path fill="none" stroke="midnightblue" d="M1260.58,-190.9C1280.94,-179.97 1309.44,-164.65 1330.04,-153.59"/>
<polygon fill="midnightblue" stroke="midnightblue" points="1258.74,-187.92 1251.59,-195.73 1262.05,-194.08 1258.74,-187.92"/>
</g>
<!-- Node22 -->
<g id="node22" class="node">
<title>Node22</title>
<g id="a_node22"><a xlink:href="CubeVertexColorScene_8h.html" target="_top" xlink:title=" ">
<polygon fill="none" stroke="black" points="1205.77,-56.5 1205.77,-86.5 1354.77,-86.5 1354.77,-56.5 1205.77,-56.5"/>
<text text-anchor="start" x="1213.77" y="-74.5" font-family="Helvetica,sans-Serif" font-size="10.00">include/Scenes/CubeVertex</text>
<text text-anchor="middle" x="1280.27" y="-63.5" font-family="Helvetica,sans-Serif" font-size="10.00">ColorScene.h</text>
</a>
</g>
</g>
<!-- Node11&#45;&gt;Node22 -->
<g id="edge44" class="edge">
<title>Node11&#45;&gt;Node22</title>
<path fill="none" stroke="midnightblue" d="M1241.49,-186.24C1250.55,-159.68 1267.18,-110.91 1275.4,-86.78"/>
<polygon fill="midnightblue" stroke="midnightblue" points="1238.13,-185.24 1238.22,-195.84 1244.76,-187.5 1238.13,-185.24"/>
</g>
<!-- Node23 -->
<g id="node23" class="node">
<title>Node23</title>
<g id="a_node23"><a xlink:href="VertexFlatEffect_8h.html" target="_top" xlink:title=" ">
<polygon fill="none" stroke="black" points="1608.77,-123.5 1608.77,-153.5 1749.77,-153.5 1749.77,-123.5 1608.77,-123.5"/>
<text text-anchor="start" x="1616.77" y="-141.5" font-family="Helvetica,sans-Serif" font-size="10.00">include/Effects/VertexFlat</text>
<text text-anchor="middle" x="1679.27" y="-130.5" font-family="Helvetica,sans-Serif" font-size="10.00">Effect.h</text>
</a>
</g>
</g>
<!-- Node11&#45;&gt;Node23 -->
<g id="edge31" class="edge">
<title>Node11&#45;&gt;Node23</title>
<path fill="none" stroke="midnightblue" d="M1297.26,-196.34C1368.88,-186.78 1490.24,-170.19 1594.27,-154 1598.85,-153.29 1603.57,-152.53 1608.33,-151.76"/>
<polygon fill="midnightblue" stroke="midnightblue" points="1296.51,-192.91 1287.06,-197.7 1297.43,-199.85 1296.51,-192.91"/>
</g>
<!-- Node24 -->
<g id="node24" class="node">
<title>Node24</title>
<g id="a_node24"><a xlink:href="CubeFlatIndependentScene_8h.html" target="_top" xlink:title=" ">
<polygon fill="none" stroke="black" points="1387.77,-56.5 1387.77,-86.5 1584.77,-86.5 1584.77,-56.5 1387.77,-56.5"/>
<text text-anchor="start" x="1395.77" y="-74.5" font-family="Helvetica,sans-Serif" font-size="10.00">include/Scenes/CubeFlatIndependent</text>
<text text-anchor="middle" x="1486.27" y="-63.5" font-family="Helvetica,sans-Serif" font-size="10.00">Scene.h</text>
</a>
</g>
</g>
<!-- Node11&#45;&gt;Node24 -->
<g id="edge40" class="edge">
<title>Node11&#45;&gt;Node24</title>
<path fill="none" stroke="midnightblue" d="M1296.99,-204.1C1381.86,-202.1 1527.92,-192.92 1561.27,-154 1582.1,-129.69 1544.11,-102.53 1515,-86.51"/>
<polygon fill="midnightblue" stroke="midnightblue" points="1296.88,-200.61 1286.95,-204.32 1297.02,-207.6 1296.88,-200.61"/>
</g>
<!-- Node25 -->
<g id="node25" class="node">
<title>Node25</title>
<g id="a_node25"><a xlink:href="VertexPositionColorEffect_8h.html" target="_top" xlink:title=" ">
<polygon fill="none" stroke="black" points="1806.77,-123.5 1806.77,-153.5 1967.77,-153.5 1967.77,-123.5 1806.77,-123.5"/>
<text text-anchor="start" x="1814.77" y="-141.5" font-family="Helvetica,sans-Serif" font-size="10.00">include/Effects/VertexPosition</text>
<text text-anchor="middle" x="1887.27" y="-130.5" font-family="Helvetica,sans-Serif" font-size="10.00">ColorEffect.h</text>
</a>
</g>
</g>
<!-- Node11&#45;&gt;Node25 -->
<g id="edge34" class="edge">
<title>Node11&#45;&gt;Node25</title>
<path fill="none" stroke="midnightblue" d="M1297.04,-200.14C1399.94,-192.59 1612.88,-175.8 1792.27,-154 1796.99,-153.43 1801.83,-152.8 1806.72,-152.14"/>
<polygon fill="midnightblue" stroke="midnightblue" points="1296.55,-196.66 1286.83,-200.88 1297.06,-203.65 1296.55,-196.66"/>
</g>
<!-- Node26 -->
<g id="node26" class="node">
<title>Node26</title>
<g id="a_node26"><a xlink:href="CubeVertexPositionColorScene_8h.html" target="_top" xlink:title=" ">
<polygon fill="none" stroke="black" points="1602.77,-56.5 1602.77,-86.5 1751.77,-86.5 1751.77,-56.5 1602.77,-56.5"/>
<text text-anchor="start" x="1610.77" y="-74.5" font-family="Helvetica,sans-Serif" font-size="10.00">include/Scenes/CubeVertex</text>
<text text-anchor="middle" x="1677.27" y="-63.5" font-family="Helvetica,sans-Serif" font-size="10.00">PositionColorScene.h</text>
</a>
</g>
</g>
<!-- Node11&#45;&gt;Node26 -->
<g id="edge45" class="edge">
<title>Node11&#45;&gt;Node26</title>
<path fill="none" stroke="midnightblue" d="M1297.36,-203.1C1429.43,-199.49 1728.72,-187.63 1759.27,-154 1781.6,-129.41 1740.79,-102.55 1709.14,-86.64"/>
<polygon fill="midnightblue" stroke="midnightblue" points="1296.91,-199.61 1287,-203.38 1297.09,-206.61 1296.91,-199.61"/>
</g>
<!-- Node27 -->
<g id="node27" class="node">
<title>Node27</title>
<g id="a_node27"><a xlink:href="WaveVertexTextureEffect_8h.html" target="_top" xlink:title=" ">
<polygon fill="none" stroke="black" points="303.77,-123.5 303.77,-153.5 452.77,-153.5 452.77,-123.5 303.77,-123.5"/>
<text text-anchor="start" x="311.77" y="-141.5" font-family="Helvetica,sans-Serif" font-size="10.00">include/Effects/WaveVertex</text>
<text text-anchor="middle" x="378.27" y="-130.5" font-family="Helvetica,sans-Serif" font-size="10.00">TextureEffect.h</text>
</a>
</g>
</g>
<!-- Node11&#45;&gt;Node27 -->
<g id="edge37" class="edge">
<title>Node11&#45;&gt;Node27</title>
<path fill="none" stroke="midnightblue" d="M1175.5,-194.46C1163.84,-192.77 1151.69,-191.17 1140.27,-190 841.86,-159.33 764.49,-186.43 466.27,-154 461.96,-153.53 457.54,-152.99 453.08,-152.4"/>
<polygon fill="midnightblue" stroke="midnightblue" points="1175.18,-197.96 1185.59,-195.98 1176.22,-191.03 1175.18,-197.96"/>
</g>
<!-- Node12&#45;&gt;Node13 -->
<g id="edge15" class="edge">
<title>Node12&#45;&gt;Node13</title>
<path fill="none" stroke="midnightblue" d="M592.2,-114.87C597.98,-105.46 604.52,-94.83 609.61,-86.58"/>
<polygon fill="midnightblue" stroke="midnightblue" points="589.21,-113.05 586.95,-123.4 595.17,-116.71 589.21,-113.05"/>
</g>
<!-- Node13&#45;&gt;Node6 -->
<g id="edge16" class="edge">
<title>Node13&#45;&gt;Node6</title>
<path fill="none" stroke="midnightblue" d="M707.24,-54.65C772.18,-43.08 857.42,-27.9 908.34,-18.82"/>
<polygon fill="midnightblue" stroke="midnightblue" points="706.23,-51.28 697,-56.47 707.46,-58.17 706.23,-51.28"/>
</g>
<!-- Node14&#45;&gt;Node15 -->
<g id="edge18" class="edge">
<title>Node14&#45;&gt;Node15</title>
<path fill="none" stroke="midnightblue" d="M782.29,-118.74C783.39,-108.49 784.74,-96 785.75,-86.59"/>
<polygon fill="midnightblue" stroke="midnightblue" points="778.8,-118.42 781.21,-128.73 785.76,-119.17 778.8,-118.42"/>
</g>
<!-- Node14&#45;&gt;Node16 -->
<g id="edge20" class="edge">
<title>Node14&#45;&gt;Node16</title>
<path fill="none" stroke="midnightblue" d="M812.81,-125.2C841.96,-114.19 884.68,-98.04 915.15,-86.53"/>
<polygon fill="midnightblue" stroke="midnightblue" points="811.22,-122.06 803.11,-128.87 813.7,-128.61 811.22,-122.06"/>
</g>
<!-- Node15&#45;&gt;Node6 -->
<g id="edge19" class="edge">
<title>Node15&#45;&gt;Node6</title>
<path fill="none" stroke="midnightblue" d="M835.95,-52.94C866.35,-41.98 904.16,-28.35 928.26,-19.66"/>
<polygon fill="midnightblue" stroke="midnightblue" points="834.59,-49.71 826.37,-56.4 836.96,-56.3 834.59,-49.71"/>
</g>
<!-- Node16&#45;&gt;Node6 -->
<g id="edge21" class="edge">
<title>Node16&#45;&gt;Node6</title>
<path fill="none" stroke="midnightblue" d="M952.27,-46.29C952.27,-36.86 952.27,-26.65 952.27,-19.66"/>
<polygon fill="midnightblue" stroke="midnightblue" points="948.77,-46.4 952.27,-56.4 955.77,-46.4 948.77,-46.4"/>
</g>
<!-- Node17&#45;&gt;Node18 -->
<g id="edge23" class="edge">
<title>Node17&#45;&gt;Node18</title>
<path fill="none" stroke="midnightblue" d="M1110.35,-113.4C1111.87,-104.37 1113.56,-94.41 1114.89,-86.58"/>
<polygon fill="midnightblue" stroke="midnightblue" points="1106.87,-112.95 1108.65,-123.4 1113.77,-114.12 1106.87,-112.95"/>
</g>
<!-- Node18&#45;&gt;Node6 -->
<g id="edge24" class="edge">
<title>Node18&#45;&gt;Node6</title>
<path fill="none" stroke="midnightblue" d="M1068.58,-52.94C1038.18,-41.98 1000.37,-28.35 976.28,-19.66"/>
<polygon fill="midnightblue" stroke="midnightblue" points="1067.57,-56.3 1078.16,-56.4 1069.95,-49.71 1067.57,-56.3"/>
</g>
<!-- Node19&#45;&gt;Node20 -->
<g id="edge26" class="edge">
<title>Node19&#45;&gt;Node20</title>
<path fill="none" stroke="midnightblue" d="M2071.56,-125.44C2034.46,-112.54 1976.59,-92.42 1943.9,-81.06"/>
<polygon fill="midnightblue" stroke="midnightblue" points="2070.84,-128.89 2081.44,-128.87 2073.14,-122.28 2070.84,-128.89"/>
</g>
<!-- Node20&#45;&gt;Node6 -->
<g id="edge27" class="edge">
<title>Node20&#45;&gt;Node6</title>
<path fill="none" stroke="midnightblue" d="M1822.63,-61.08C1802.37,-59.26 1781.13,-57.46 1761.27,-56 1469.47,-34.5 1117.78,-18.23 996.15,-12.89"/>
<polygon fill="midnightblue" stroke="midnightblue" points="1822.53,-64.58 1832.8,-62 1823.16,-57.61 1822.53,-64.58"/>
</g>
<!-- Node21&#45;&gt;Node22 -->
<g id="edge29" class="edge">
<title>Node21&#45;&gt;Node22</title>
<path fill="none" stroke="midnightblue" d="M1332.16,-116.88C1320.61,-107.01 1307.08,-95.43 1296.73,-86.58"/>
<polygon fill="midnightblue" stroke="midnightblue" points="1329.9,-119.56 1339.78,-123.4 1334.45,-114.24 1329.9,-119.56"/>
</g>
<!-- Node22&#45;&gt;Node6 -->
<g id="edge30" class="edge">
<title>Node22&#45;&gt;Node6</title>
<path fill="none" stroke="midnightblue" d="M1195.38,-55.1C1131.6,-43.53 1046.82,-28.15 996.08,-18.95"/>
<polygon fill="midnightblue" stroke="midnightblue" points="1194.96,-58.58 1205.43,-56.92 1196.21,-51.7 1194.96,-58.58"/>
</g>
<!-- Node23&#45;&gt;Node24 -->
<g id="edge32" class="edge">
<title>Node23&#45;&gt;Node24</title>
<path fill="none" stroke="midnightblue" d="M1627.58,-120.09C1596.42,-109.6 1557.26,-96.41 1528.06,-86.58"/>
<polygon fill="midnightblue" stroke="midnightblue" points="1626.8,-123.52 1637.39,-123.4 1629.03,-116.89 1626.8,-123.52"/>
</g>
<!-- Node24&#45;&gt;Node6 -->
<g id="edge33" class="edge">
<title>Node24&#45;&gt;Node6</title>
<path fill="none" stroke="midnightblue" d="M1377.72,-57.55C1373.18,-57.02 1368.68,-56.5 1364.27,-56 1230.05,-40.69 1071.1,-23.63 995.88,-15.63"/>
<polygon fill="midnightblue" stroke="midnightblue" points="1377.39,-61.03 1387.73,-58.71 1378.2,-54.08 1377.39,-61.03"/>
</g>
<!-- Node25&#45;&gt;Node26 -->
<g id="edge35" class="edge">
<title>Node25&#45;&gt;Node26</title>
<path fill="none" stroke="midnightblue" d="M1832.16,-120.44C1798.12,-109.91 1754.97,-96.55 1722.86,-86.61"/>
<polygon fill="midnightblue" stroke="midnightblue" points="1831.37,-123.86 1841.96,-123.48 1833.44,-117.18 1831.37,-123.86"/>
</g>
<!-- Node26&#45;&gt;Node6 -->
<g id="edge36" class="edge">
<title>Node26&#45;&gt;Node6</title>
<path fill="none" stroke="midnightblue" d="M1592.43,-55.85C1362.35,-28.3 1098.51,-16.39 996.01,-12.51"/>
<polygon fill="midnightblue" stroke="midnightblue" points="1592.32,-59.37 1602.66,-57.09 1593.16,-52.42 1592.32,-59.37"/>
</g>
<!-- Node28 -->
<g id="node28" class="node">
<title>Node28</title>
<g id="a_node28"><a xlink:href="VertexWaveScene_8h.html" target="_top" xlink:title=" ">
<polygon fill="none" stroke="black" points="354.77,-56.5 354.77,-86.5 505.77,-86.5 505.77,-56.5 354.77,-56.5"/>
<text text-anchor="start" x="362.77" y="-74.5" font-family="Helvetica,sans-Serif" font-size="10.00">include/Scenes/VertexWave</text>
<text text-anchor="middle" x="430.27" y="-63.5" font-family="Helvetica,sans-Serif" font-size="10.00">Scene.h</text>
</a>
</g>
</g>
<!-- Node27&#45;&gt;Node28 -->
<g id="edge38" class="edge">
<title>Node27&#45;&gt;Node28</title>
<path fill="none" stroke="midnightblue" d="M395.91,-115.45C403.55,-105.9 412.26,-95 419.01,-86.58"/>
<polygon fill="midnightblue" stroke="midnightblue" points="393.06,-113.4 389.55,-123.4 398.53,-117.77 393.06,-113.4"/>
</g>
<!-- Node28&#45;&gt;Node6 -->
<g id="edge39" class="edge">
<title>Node28&#45;&gt;Node6</title>
<path fill="none" stroke="midnightblue" d="M515.86,-57.75C520.39,-57.14 524.88,-56.55 529.27,-56 667.56,-38.52 831.88,-22.35 908.66,-15.07"/>
<polygon fill="midnightblue" stroke="midnightblue" points="515.33,-54.29 505.9,-59.11 516.28,-61.22 515.33,-54.29"/>
</g>
<!-- Node29&#45;&gt;Node11 -->
<g id="edge49" class="edge">
<title>Node29&#45;&gt;Node11</title>
<path fill="none" stroke="midnightblue" d="M1235.27,-247.32C1235.27,-236.5 1235.27,-223.4 1235.27,-215.01"/>
<polygon fill="midnightblue" stroke="midnightblue" points="1231.77,-247.48 1235.27,-257.48 1238.77,-247.48 1231.77,-247.48"/>
</g>
<!-- Node30&#45;&gt;Node5 -->
<g id="edge51" class="edge">
<title>Node30&#45;&gt;Node5</title>
<path fill="none" stroke="midnightblue" d="M902.44,-127.76C890.21,-125.94 877.33,-124.22 865.27,-123 542.09,-90.19 456.6,-134.62 135.27,-87 125.82,-85.6 115.67,-83.33 106.55,-81"/>
<polygon fill="midnightblue" stroke="midnightblue" points="902.12,-131.25 912.53,-129.31 903.18,-124.34 902.12,-131.25"/>
</g>
<!-- Node30&#45;&gt;Node13 -->
<g id="edge59" class="edge">
<title>Node30&#45;&gt;Node13</title>
<path fill="none" stroke="midnightblue" d="M904.33,-127.03C846.72,-116.05 755.85,-98.73 692.02,-86.56"/>
<polygon fill="midnightblue" stroke="midnightblue" points="903.86,-130.5 914.34,-128.94 905.17,-123.62 903.86,-130.5"/>
</g>
<!-- Node30&#45;&gt;Node15 -->
<g id="edge55" class="edge">
<title>Node30&#45;&gt;Node15</title>
<path fill="none" stroke="midnightblue" d="M926.73,-125.2C897.58,-114.19 854.86,-98.04 824.39,-86.53"/>
<polygon fill="midnightblue" stroke="midnightblue" points="925.84,-128.61 936.43,-128.87 928.31,-122.06 925.84,-128.61"/>
</g>
<!-- Node30&#45;&gt;Node16 -->
<g id="edge58" class="edge">
<title>Node30&#45;&gt;Node16</title>
<path fill="none" stroke="midnightblue" d="M957.25,-118.74C956.14,-108.49 954.8,-96 953.78,-86.59"/>
<polygon fill="midnightblue" stroke="midnightblue" points="953.77,-119.17 958.32,-128.73 960.73,-118.42 953.77,-119.17"/>
</g>
<!-- Node30&#45;&gt;Node18 -->
<g id="edge54" class="edge">
<title>Node30&#45;&gt;Node18</title>
<path fill="none" stroke="midnightblue" d="M989.51,-125.06C1016.28,-114.05 1055.3,-97.99 1083.17,-86.53"/>
<polygon fill="midnightblue" stroke="midnightblue" points="988.17,-121.83 980.25,-128.87 990.83,-128.3 988.17,-121.83"/>
</g>
<!-- Node30&#45;&gt;Node20 -->
<g id="edge53" class="edge">
<title>Node30&#45;&gt;Node20</title>
<path fill="none" stroke="midnightblue" d="M997.33,-126.53C1003.29,-125.14 1009.42,-123.89 1015.27,-123 1343.44,-73.14 1430.14,-110.17 1761.27,-87 1784.9,-85.35 1810.48,-83.17 1834.04,-81"/>
<polygon fill="midnightblue" stroke="midnightblue" points="996.38,-123.16 987.52,-128.98 998.07,-129.95 996.38,-123.16"/>
</g>
<!-- Node30&#45;&gt;Node22 -->
<g id="edge56" class="edge">
<title>Node30&#45;&gt;Node22</title>
<path fill="none" stroke="midnightblue" d="M1000.76,-126.44C1005.64,-125.23 1010.55,-124.06 1015.27,-123 1050.68,-115.05 1140.36,-98.21 1205.61,-86.17"/>
<polygon fill="midnightblue" stroke="midnightblue" points="999.71,-123.09 990.87,-128.93 1001.42,-129.88 999.71,-123.09"/>
</g>
<!-- Node30&#45;&gt;Node24 -->
<g id="edge52" class="edge">
<title>Node30&#45;&gt;Node24</title>
<path fill="none" stroke="midnightblue" d="M998.57,-126.53C1004.15,-125.21 1009.83,-123.98 1015.27,-123 1168.74,-95.38 1209.29,-104.2 1364.27,-87 1371.9,-86.15 1379.8,-85.26 1387.74,-84.34"/>
<polygon fill="midnightblue" stroke="midnightblue" points="997.58,-123.17 988.73,-128.98 999.28,-129.96 997.58,-123.17"/>
</g>
<!-- Node30&#45;&gt;Node26 -->
<g id="edge57" class="edge">
<title>Node30&#45;&gt;Node26</title>
<path fill="none" stroke="midnightblue" d="M997.53,-126.56C1003.43,-125.17 1009.49,-123.92 1015.27,-123 1269.9,-82.5 1338.22,-117.23 1594.27,-87 1597.03,-86.67 1599.84,-86.32 1602.67,-85.93"/>
<polygon fill="midnightblue" stroke="midnightblue" points="996.68,-123.17 987.82,-128.98 998.37,-129.96 996.68,-123.17"/>
</g>
<!-- Node30&#45;&gt;Node28 -->
<g id="edge60" class="edge">
<title>Node30&#45;&gt;Node28</title>
<path fill="none" stroke="midnightblue" d="M902.38,-128.29C890.15,-126.43 877.29,-124.57 865.27,-123 716.34,-103.55 678.26,-105.89 529.27,-87 521.69,-86.04 513.78,-84.98 505.9,-83.88"/>
<polygon fill="midnightblue" stroke="midnightblue" points="902.06,-131.78 912.47,-129.84 903.12,-124.86 902.06,-131.78"/>
</g>
<!-- Node32&#45;&gt;Node11 -->
<g id="edge66" class="edge">
<title>Node32&#45;&gt;Node11</title>
<path fill="none" stroke="midnightblue" d="M1385.75,-254.38C1349.4,-242.82 1294.48,-225.34 1262.01,-215.01"/>
<polygon fill="midnightblue" stroke="midnightblue" points="1384.88,-257.78 1395.48,-257.48 1387.01,-251.11 1384.88,-257.78"/>
</g>
<!-- Node32&#45;&gt;Node33 -->
<g id="edge67" class="edge">
<title>Node32&#45;&gt;Node33</title>
<path fill="none" stroke="midnightblue" d="M1433.08,-248.47C1448.63,-223.25 1477.01,-177.22 1491.4,-153.89"/>
<polygon fill="midnightblue" stroke="midnightblue" points="1429.9,-246.96 1427.63,-257.31 1435.86,-250.63 1429.9,-246.96"/>
</g>
<!-- Node32&#45;&gt;Node34 -->
<g id="edge76" class="edge">
<title>Node32&#45;&gt;Node34</title>
<path fill="none" stroke="midnightblue" d="M1362.99,-255.72C1297.69,-244.39 1193.71,-226.35 1131.41,-215.55"/>
<polygon fill="midnightblue" stroke="midnightblue" points="1362.67,-259.21 1373.12,-257.48 1363.87,-252.32 1362.67,-259.21"/>
</g>
<!-- Node33&#45;&gt;Node13 -->
<g id="edge75" class="edge">
<title>Node33&#45;&gt;Node13</title>
<path fill="none" stroke="midnightblue" d="M1438.03,-123.02C1115,-78.04 1027.87,-120.89 707.27,-87 704.47,-86.7 701.62,-86.38 698.74,-86.03"/>
<polygon fill="midnightblue" stroke="midnightblue" points="1437.75,-126.51 1448.15,-124.44 1438.73,-119.58 1437.75,-126.51"/>
</g>
<!-- Node33&#45;&gt;Node15 -->
<g id="edge71" class="edge">
<title>Node33&#45;&gt;Node15</title>
<path fill="none" stroke="midnightblue" d="M1437.92,-122.98C1185.53,-86.25 1116.79,-117.36 867.27,-87 864.19,-86.62 861.04,-86.21 857.87,-85.76"/>
<polygon fill="midnightblue" stroke="midnightblue" points="1437.73,-126.49 1448.14,-124.49 1438.76,-119.57 1437.73,-126.49"/>
</g>
<!-- Node33&#45;&gt;Node16 -->
<g id="edge74" class="edge">
<title>Node33&#45;&gt;Node16</title>
<path fill="none" stroke="midnightblue" d="M1438.18,-122.98C1260.47,-94.75 1211.94,-109.68 1037.27,-87 1034.45,-86.63 1031.58,-86.24 1028.68,-85.83"/>
<polygon fill="midnightblue" stroke="midnightblue" points="1437.69,-126.45 1448.12,-124.58 1438.81,-119.54 1437.69,-126.45"/>
</g>
<!-- Node33&#45;&gt;Node18 -->
<g id="edge70" class="edge">
<title>Node33&#45;&gt;Node18</title>
<path fill="none" stroke="midnightblue" d="M1438.15,-122.88C1330.79,-102.52 1301.41,-104.18 1197.27,-87 1194.2,-86.49 1191.08,-85.97 1187.92,-85.43"/>
<polygon fill="midnightblue" stroke="midnightblue" points="1437.61,-126.34 1448.09,-124.79 1438.93,-119.47 1437.61,-126.34"/>
</g>
<!-- Node33&#45;&gt;Node20 -->
<g id="edge69" class="edge">
<title>Node33&#45;&gt;Node20</title>
<path fill="none" stroke="midnightblue" d="M1562.39,-127.86C1644.11,-115.19 1786.45,-93.1 1864.39,-81.01"/>
<polygon fill="midnightblue" stroke="midnightblue" points="1561.83,-124.41 1552.49,-129.4 1562.91,-131.32 1561.83,-124.41"/>
</g>
<!-- Node33&#45;&gt;Node22 -->
<g id="edge72" class="edge">
<title>Node33&#45;&gt;Node22</title>
<path fill="none" stroke="midnightblue" d="M1443,-120.58C1407.27,-110.02 1361.81,-96.59 1328.03,-86.61"/>
<polygon fill="midnightblue" stroke="midnightblue" points="1442.22,-124 1452.8,-123.48 1444.2,-117.29 1442.22,-124"/>
</g>
<!-- Node33&#45;&gt;Node24 -->
<g id="edge68" class="edge">
<title>Node33&#45;&gt;Node24</title>
<path fill="none" stroke="midnightblue" d="M1495.08,-113.4C1493.13,-104.37 1490.99,-94.41 1489.3,-86.58"/>
<polygon fill="midnightblue" stroke="midnightblue" points="1491.7,-114.36 1497.23,-123.4 1498.55,-112.88 1491.7,-114.36"/>
</g>
<!-- Node33&#45;&gt;Node26 -->
<g id="edge73" class="edge">
<title>Node33&#45;&gt;Node26</title>
<path fill="none" stroke="midnightblue" d="M1548.42,-119.82C1576.87,-109.37 1612.4,-96.32 1638.94,-86.58"/>
<polygon fill="midnightblue" stroke="midnightblue" points="1546.85,-116.66 1538.67,-123.4 1549.27,-123.23 1546.85,-116.66"/>
</g>
<!-- Node34&#45;&gt;Node28 -->
<g id="edge77" class="edge">
<title>Node34&#45;&gt;Node28</title>
<path fill="none" stroke="midnightblue" d="M1017.07,-202.8C835.75,-197.53 318.9,-180.26 294.27,-154 265.46,-123.28 319.66,-100.17 367.95,-86.54"/>
<polygon fill="midnightblue" stroke="midnightblue" points="1017.15,-206.3 1027.24,-203.09 1017.35,-199.3 1017.15,-206.3"/>
</g>
</g>
</svg>
