<?xml version="1.0" encoding="UTF-8" standalone="no"?>
<!DOCTYPE svg PUBLIC "-//W3C//DTD SVG 1.1//EN"
 "http://www.w3.org/Graphics/SVG/1.1/DTD/svg11.dtd">
<!-- Generated by graphviz version 2.43.0 (0)
 -->
<!-- Title: include/LinearAlgebra/Vector2.h Pages: 1 -->
<svg width="574pt" height="151pt"
 viewBox="0.00 0.00 573.50 151.00" xmlns="http://www.w3.org/2000/svg" xmlns:xlink="http://www.w3.org/1999/xlink">
<g id="graph0" class="graph" transform="scale(1 1) rotate(0) translate(4 147)">
<title>include/LinearAlgebra/Vector2.h</title>
<!-- Node1 -->
<g id="node1" class="node">
<title>Node1</title>
<g id="a_node1"><a xlink:title=" ">
<polygon fill="#bfbfbf" stroke="black" points="128.5,-112.5 128.5,-142.5 250.5,-142.5 250.5,-112.5 128.5,-112.5"/>
<text text-anchor="start" x="136.5" y="-130.5" font-family="Helvetica,sans-Serif" font-size="10.00">include/LinearAlgebra</text>
<text text-anchor="middle" x="189.5" y="-119.5" font-family="Helvetica,sans-Serif" font-size="10.00">/Vector2.h</text>
</a>
</g>
</g>
<!-- Node2 -->
<g id="node2" class="node">
<title>Node2</title>
<g id="a_node2"><a xlink:href="Math_8h.html" target="_top" xlink:title=" ">
<polygon fill="none" stroke="black" points="302.5,-56.5 302.5,-75.5 352.5,-75.5 352.5,-56.5 302.5,-56.5"/>
<text text-anchor="middle" x="327.5" y="-63.5" font-family="Helvetica,sans-Serif" font-size="10.00">Math.h</text>
</a>
</g>
</g>
<!-- Node1&#45;&gt;Node2 -->
<g id="edge1" class="edge">
<title>Node1&#45;&gt;Node2</title>
<path fill="none" stroke="midnightblue" d="M222.2,-112.4C245.25,-102.46 275.86,-89.26 298.13,-79.66"/>
<polygon fill="midnightblue" stroke="midnightblue" points="299.62,-82.83 307.42,-75.66 296.85,-76.4 299.62,-82.83"/>
</g>
<!-- Node8 -->
<g id="node8" class="node">
<title>Node8</title>
<g id="a_node8"><a xlink:href="Matrix2_8h.html" target="_top" xlink:title=" ">
<polygon fill="none" stroke="black" points="0,-56.5 0,-75.5 63,-75.5 63,-56.5 0,-56.5"/>
<text text-anchor="middle" x="31.5" y="-63.5" font-family="Helvetica,sans-Serif" font-size="10.00">Matrix2.h</text>
</a>
</g>
</g>
<!-- Node1&#45;&gt;Node8 -->
<g id="edge7" class="edge">
<title>Node1&#45;&gt;Node8</title>
<path fill="none" stroke="midnightblue" d="M152.06,-112.4C125.31,-102.33 89.68,-88.91 64.1,-79.28"/>
<polygon fill="midnightblue" stroke="midnightblue" points="65.08,-75.91 54.49,-75.66 62.62,-82.46 65.08,-75.91"/>
</g>
<!-- Node9 -->
<g id="node9" class="node">
<title>Node9</title>
<g id="a_node9"><a xlink:title=" ">
<polygon fill="none" stroke="#bfbfbf" points="27.5,-0.5 27.5,-19.5 87.5,-19.5 87.5,-0.5 27.5,-0.5"/>
<text text-anchor="middle" x="57.5" y="-7.5" font-family="Helvetica,sans-Serif" font-size="10.00">iostream</text>
</a>
</g>
</g>
<!-- Node1&#45;&gt;Node9 -->
<g id="edge17" class="edge">
<title>Node1&#45;&gt;Node9</title>
<path fill="none" stroke="midnightblue" d="M173.31,-112.34C148.45,-90.58 101.03,-49.09 75.26,-26.54"/>
<polygon fill="midnightblue" stroke="midnightblue" points="77.24,-23.62 67.41,-19.67 72.63,-28.89 77.24,-23.62"/>
</g>
<!-- Node10 -->
<g id="node10" class="node">
<title>Node10</title>
<g id="a_node10"><a xlink:href="Matrix3_8h.html" target="_top" xlink:title=" ">
<polygon fill="none" stroke="black" points="158,-56.5 158,-75.5 221,-75.5 221,-56.5 158,-56.5"/>
<text text-anchor="middle" x="189.5" y="-63.5" font-family="Helvetica,sans-Serif" font-size="10.00">Matrix3.h</text>
</a>
</g>
</g>
<!-- Node1&#45;&gt;Node10 -->
<g id="edge9" class="edge">
<title>Node1&#45;&gt;Node10</title>
<path fill="none" stroke="midnightblue" d="M189.5,-112.4C189.5,-104.47 189.5,-94.46 189.5,-85.86"/>
<polygon fill="midnightblue" stroke="midnightblue" points="193,-85.66 189.5,-75.66 186,-85.66 193,-85.66"/>
</g>
<!-- Node11 -->
<g id="node11" class="node">
<title>Node11</title>
<g id="a_node11"><a xlink:title=" ">
<polygon fill="none" stroke="#bfbfbf" points="105.5,-0.5 105.5,-19.5 147.5,-19.5 147.5,-0.5 105.5,-0.5"/>
<text text-anchor="middle" x="126.5" y="-7.5" font-family="Helvetica,sans-Serif" font-size="10.00">array</text>
</a>
</g>
</g>
<!-- Node1&#45;&gt;Node11 -->
<g id="edge14" class="edge">
<title>Node1&#45;&gt;Node11</title>
<path fill="none" stroke="midnightblue" d="M176.22,-112.39C167.69,-102.73 156.86,-89.31 149.5,-76 141.36,-61.27 135.22,-43.11 131.34,-29.73"/>
<polygon fill="midnightblue" stroke="midnightblue" points="134.64,-28.52 128.62,-19.8 127.89,-30.37 134.64,-28.52"/>
</g>
<!-- Node12 -->
<g id="node12" class="node">
<title>Node12</title>
<g id="a_node12"><a xlink:title=" ">
<polygon fill="none" stroke="#bfbfbf" points="166,-0.5 166,-19.5 219,-19.5 219,-0.5 166,-0.5"/>
<text text-anchor="middle" x="192.5" y="-7.5" font-family="Helvetica,sans-Serif" font-size="10.00">cstddef</text>
</a>
</g>
</g>
<!-- Node1&#45;&gt;Node12 -->
<g id="edge16" class="edge">
<title>Node1&#45;&gt;Node12</title>
<path fill="none" stroke="midnightblue" d="M205.53,-112.32C214.77,-103.04 225.52,-90.05 230.5,-76 236.87,-58.04 223.67,-39.47 211.12,-26.79"/>
<polygon fill="midnightblue" stroke="midnightblue" points="213.26,-24 203.57,-19.72 208.48,-29.11 213.26,-24"/>
</g>
<!-- Node13 -->
<g id="node13" class="node">
<title>Node13</title>
<g id="a_node13"><a xlink:title=" ">
<polygon fill="none" stroke="#bfbfbf" points="371,-56.5 371,-75.5 430,-75.5 430,-56.5 371,-56.5"/>
<text text-anchor="middle" x="400.5" y="-63.5" font-family="Helvetica,sans-Serif" font-size="10.00">compare</text>
</a>
</g>
</g>
<!-- Node1&#45;&gt;Node13 -->
<g id="edge15" class="edge">
<title>Node1&#45;&gt;Node13</title>
<path fill="none" stroke="midnightblue" d="M239.24,-112.47C276.5,-101.97 326.78,-87.79 361.23,-78.07"/>
<polygon fill="midnightblue" stroke="midnightblue" points="362.27,-81.42 370.95,-75.33 360.37,-74.68 362.27,-81.42"/>
</g>
<!-- Node3 -->
<g id="node3" class="node">
<title>Node3</title>
<g id="a_node3"><a xlink:title=" ">
<polygon fill="none" stroke="#bfbfbf" points="302,-0.5 302,-19.5 353,-19.5 353,-0.5 302,-0.5"/>
<text text-anchor="middle" x="327.5" y="-7.5" font-family="Helvetica,sans-Serif" font-size="10.00">math.h</text>
</a>
</g>
</g>
<!-- Node2&#45;&gt;Node3 -->
<g id="edge2" class="edge">
<title>Node2&#45;&gt;Node3</title>
<path fill="none" stroke="midnightblue" d="M327.5,-56.08C327.5,-49.01 327.5,-38.86 327.5,-29.99"/>
<polygon fill="midnightblue" stroke="midnightblue" points="331,-29.75 327.5,-19.75 324,-29.75 331,-29.75"/>
</g>
<!-- Node4 -->
<g id="node4" class="node">
<title>Node4</title>
<g id="a_node4"><a xlink:title=" ">
<polygon fill="none" stroke="#bfbfbf" points="237,-0.5 237,-19.5 284,-19.5 284,-0.5 237,-0.5"/>
<text text-anchor="middle" x="260.5" y="-7.5" font-family="Helvetica,sans-Serif" font-size="10.00">cmath</text>
</a>
</g>
</g>
<!-- Node2&#45;&gt;Node4 -->
<g id="edge3" class="edge">
<title>Node2&#45;&gt;Node4</title>
<path fill="none" stroke="midnightblue" d="M316.74,-56.32C306.73,-48.26 291.61,-36.08 279.57,-26.37"/>
<polygon fill="midnightblue" stroke="midnightblue" points="281.44,-23.38 271.46,-19.83 277.05,-28.83 281.44,-23.38"/>
</g>
<!-- Node5 -->
<g id="node5" class="node">
<title>Node5</title>
<g id="a_node5"><a xlink:title=" ">
<polygon fill="none" stroke="#bfbfbf" points="371.5,-0.5 371.5,-19.5 415.5,-19.5 415.5,-0.5 371.5,-0.5"/>
<text text-anchor="middle" x="393.5" y="-7.5" font-family="Helvetica,sans-Serif" font-size="10.00">limits</text>
</a>
</g>
</g>
<!-- Node2&#45;&gt;Node5 -->
<g id="edge4" class="edge">
<title>Node2&#45;&gt;Node5</title>
<path fill="none" stroke="midnightblue" d="M338.1,-56.32C347.96,-48.26 362.85,-36.08 374.72,-26.37"/>
<polygon fill="midnightblue" stroke="midnightblue" points="377.18,-28.88 382.7,-19.83 372.75,-23.46 377.18,-28.88"/>
</g>
<!-- Node6 -->
<g id="node6" class="node">
<title>Node6</title>
<g id="a_node6"><a xlink:title=" ">
<polygon fill="none" stroke="#bfbfbf" points="434,-0.5 434,-19.5 493,-19.5 493,-0.5 434,-0.5"/>
<text text-anchor="middle" x="463.5" y="-7.5" font-family="Helvetica,sans-Serif" font-size="10.00">numbers</text>
</a>
</g>
</g>
<!-- Node2&#45;&gt;Node6 -->
<g id="edge5" class="edge">
<title>Node2&#45;&gt;Node6</title>
<path fill="none" stroke="midnightblue" d="M349.05,-56.44C371.53,-47.52 406.99,-33.44 432.48,-23.32"/>
<polygon fill="midnightblue" stroke="midnightblue" points="434.05,-26.46 442.05,-19.52 431.47,-19.95 434.05,-26.46"/>
</g>
<!-- Node7 -->
<g id="node7" class="node">
<title>Node7</title>
<g id="a_node7"><a xlink:title=" ">
<polygon fill="none" stroke="#bfbfbf" points="511.5,-0.5 511.5,-19.5 565.5,-19.5 565.5,-0.5 511.5,-0.5"/>
<text text-anchor="middle" x="538.5" y="-7.5" font-family="Helvetica,sans-Serif" font-size="10.00">random</text>
</a>
</g>
</g>
<!-- Node2&#45;&gt;Node7 -->
<g id="edge6" class="edge">
<title>Node2&#45;&gt;Node7</title>
<path fill="none" stroke="midnightblue" d="M352.73,-58.51C356.02,-57.66 359.34,-56.81 362.5,-56 410.46,-43.7 465.79,-29.56 501.42,-20.47"/>
<polygon fill="midnightblue" stroke="midnightblue" points="502.54,-23.79 511.36,-17.93 500.81,-17.01 502.54,-23.79"/>
</g>
<!-- Node8&#45;&gt;Node9 -->
<g id="edge8" class="edge">
<title>Node8&#45;&gt;Node9</title>
<path fill="none" stroke="midnightblue" d="M35.79,-56.08C39.35,-48.69 44.52,-37.95 48.92,-28.81"/>
<polygon fill="midnightblue" stroke="midnightblue" points="52.1,-30.28 53.29,-19.75 45.79,-27.24 52.1,-30.28"/>
</g>
<!-- Node10&#45;&gt;Node4 -->
<g id="edge11" class="edge">
<title>Node10&#45;&gt;Node4</title>
<path fill="none" stroke="midnightblue" d="M200.91,-56.32C211.61,-48.18 227.84,-35.84 240.66,-26.09"/>
<polygon fill="midnightblue" stroke="midnightblue" points="243.04,-28.67 248.89,-19.83 238.81,-23.1 243.04,-28.67"/>
</g>
<!-- Node10&#45;&gt;Node9 -->
<g id="edge13" class="edge">
<title>Node10&#45;&gt;Node9</title>
<path fill="none" stroke="midnightblue" d="M168.58,-56.44C146.76,-47.52 112.35,-33.44 87.61,-23.32"/>
<polygon fill="midnightblue" stroke="midnightblue" points="88.9,-20.06 78.32,-19.52 86.25,-26.54 88.9,-20.06"/>
</g>
<!-- Node10&#45;&gt;Node11 -->
<g id="edge10" class="edge">
<title>Node10&#45;&gt;Node11</title>
<path fill="none" stroke="midnightblue" d="M179.38,-56.32C169.97,-48.26 155.76,-36.08 144.43,-26.37"/>
<polygon fill="midnightblue" stroke="midnightblue" points="146.68,-23.68 136.81,-19.83 142.12,-29 146.68,-23.68"/>
</g>
<!-- Node10&#45;&gt;Node12 -->
<g id="edge12" class="edge">
<title>Node10&#45;&gt;Node12</title>
<path fill="none" stroke="midnightblue" d="M190,-56.08C190.39,-49.01 190.95,-38.86 191.45,-29.99"/>
<polygon fill="midnightblue" stroke="midnightblue" points="194.95,-29.93 192.01,-19.75 187.96,-29.54 194.95,-29.93"/>
</g>
</g>
</svg>
