<?xml version="1.0" encoding="UTF-8" standalone="no"?>
<!DOCTYPE svg PUBLIC "-//W3C//DTD SVG 1.1//EN"
 "http://www.w3.org/Graphics/SVG/1.1/DTD/svg11.dtd">
<!-- Generated by graphviz version 2.43.0 (0)
 -->
<!-- Title: test/LinearAlgebra/Vector3.cpp Pages: 1 -->
<svg width="547pt" height="207pt"
 viewBox="0.00 0.00 546.50 207.00" xmlns="http://www.w3.org/2000/svg" xmlns:xlink="http://www.w3.org/1999/xlink">
<g id="graph0" class="graph" transform="scale(1 1) rotate(0) translate(4 203)">
<title>test/LinearAlgebra/Vector3.cpp</title>
<!-- Node1 -->
<g id="node1" class="node">
<title>Node1</title>
<g id="a_node1"><a xlink:title=" ">
<polygon fill="#bfbfbf" stroke="black" points="119.5,-168.5 119.5,-198.5 225.5,-198.5 225.5,-168.5 119.5,-168.5"/>
<text text-anchor="start" x="127.5" y="-186.5" font-family="Helvetica,sans-Serif" font-size="10.00">test/LinearAlgebra</text>
<text text-anchor="middle" x="172.5" y="-175.5" font-family="Helvetica,sans-Serif" font-size="10.00">/Vector3.cpp</text>
</a>
</g>
</g>
<!-- Node2 -->
<g id="node2" class="node">
<title>Node2</title>
<g id="a_node2"><a xlink:title=" ">
<polygon fill="none" stroke="#bfbfbf" points="71,-0.5 71,-19.5 118,-19.5 118,-0.5 71,-0.5"/>
<text text-anchor="middle" x="94.5" y="-7.5" font-family="Helvetica,sans-Serif" font-size="10.00">cmath</text>
</a>
</g>
</g>
<!-- Node1&#45;&gt;Node2 -->
<g id="edge1" class="edge">
<title>Node1&#45;&gt;Node2</title>
<path fill="none" stroke="midnightblue" d="M159.79,-168.22C143.39,-148.86 115.43,-112.5 102.5,-76 97.21,-61.08 95.31,-43.16 94.68,-29.92"/>
<polygon fill="midnightblue" stroke="midnightblue" points="98.17,-29.58 94.39,-19.68 91.17,-29.78 98.17,-29.58"/>
</g>
<!-- Node3 -->
<g id="node3" class="node">
<title>Node3</title>
<g id="a_node3"><a xlink:title=" ">
<polygon fill="none" stroke="#bfbfbf" points="305.5,-112.5 305.5,-131.5 383.5,-131.5 383.5,-112.5 305.5,-112.5"/>
<text text-anchor="middle" x="344.5" y="-119.5" font-family="Helvetica,sans-Serif" font-size="10.00">gtest/gtest.h</text>
</a>
</g>
</g>
<!-- Node1&#45;&gt;Node3 -->
<g id="edge2" class="edge">
<title>Node1&#45;&gt;Node3</title>
<path fill="none" stroke="midnightblue" d="M213.26,-168.4C242.72,-158.21 282.09,-144.59 310,-134.93"/>
<polygon fill="midnightblue" stroke="midnightblue" points="311.42,-138.15 319.72,-131.57 309.13,-131.53 311.42,-138.15"/>
</g>
<!-- Node4 -->
<g id="node4" class="node">
<title>Node4</title>
<g id="a_node4"><a xlink:href="Vector3_8h.html" target="_top" xlink:title=" ">
<polygon fill="none" stroke="black" points="154,-112.5 154,-131.5 287,-131.5 287,-112.5 154,-112.5"/>
<text text-anchor="middle" x="220.5" y="-119.5" font-family="Helvetica,sans-Serif" font-size="10.00">LinearAlgebra/Vector3.h</text>
</a>
</g>
</g>
<!-- Node1&#45;&gt;Node4 -->
<g id="edge3" class="edge">
<title>Node1&#45;&gt;Node4</title>
<path fill="none" stroke="midnightblue" d="M183.88,-168.4C190.85,-159.75 199.81,-148.64 207.13,-139.58"/>
<polygon fill="midnightblue" stroke="midnightblue" points="209.96,-141.64 213.52,-131.66 204.51,-137.24 209.96,-141.64"/>
</g>
<!-- Node10 -->
<g id="node10" class="node">
<title>Node10</title>
<g id="a_node10"><a xlink:href="Matrix3_8h.html" target="_top" xlink:title=" ">
<polygon fill="none" stroke="black" points="112,-56.5 112,-75.5 175,-75.5 175,-56.5 112,-56.5"/>
<text text-anchor="middle" x="143.5" y="-63.5" font-family="Helvetica,sans-Serif" font-size="10.00">Matrix3.h</text>
</a>
</g>
</g>
<!-- Node1&#45;&gt;Node10 -->
<g id="edge19" class="edge">
<title>Node1&#45;&gt;Node10</title>
<path fill="none" stroke="midnightblue" d="M162.13,-168.3C155.7,-158.6 148.02,-145.17 144.5,-132 140.45,-116.82 140.51,-98.93 141.4,-85.76"/>
<polygon fill="midnightblue" stroke="midnightblue" points="144.91,-85.87 142.33,-75.6 137.94,-85.24 144.91,-85.87"/>
</g>
<!-- Node5 -->
<g id="node5" class="node">
<title>Node5</title>
<g id="a_node5"><a xlink:href="Math_8h.html" target="_top" xlink:title=" ">
<polygon fill="none" stroke="black" points="275.5,-56.5 275.5,-75.5 325.5,-75.5 325.5,-56.5 275.5,-56.5"/>
<text text-anchor="middle" x="300.5" y="-63.5" font-family="Helvetica,sans-Serif" font-size="10.00">Math.h</text>
</a>
</g>
</g>
<!-- Node4&#45;&gt;Node5 -->
<g id="edge4" class="edge">
<title>Node4&#45;&gt;Node5</title>
<path fill="none" stroke="midnightblue" d="M233.35,-112.32C245.72,-103.98 264.63,-91.21 279.24,-81.35"/>
<polygon fill="midnightblue" stroke="midnightblue" points="281.35,-84.15 287.68,-75.65 277.43,-78.35 281.35,-84.15"/>
</g>
<!-- Node4&#45;&gt;Node10 -->
<g id="edge10" class="edge">
<title>Node4&#45;&gt;Node10</title>
<path fill="none" stroke="midnightblue" d="M208.13,-112.32C196.34,-104.06 178.37,-91.45 164.36,-81.63"/>
<polygon fill="midnightblue" stroke="midnightblue" points="166.04,-78.53 155.84,-75.65 162.02,-84.26 166.04,-78.53"/>
</g>
<!-- Node11 -->
<g id="node11" class="node">
<title>Node11</title>
<g id="a_node11"><a xlink:title=" ">
<polygon fill="none" stroke="#bfbfbf" points="214.5,-0.5 214.5,-19.5 256.5,-19.5 256.5,-0.5 214.5,-0.5"/>
<text text-anchor="middle" x="235.5" y="-7.5" font-family="Helvetica,sans-Serif" font-size="10.00">array</text>
</a>
</g>
</g>
<!-- Node4&#45;&gt;Node11 -->
<g id="edge15" class="edge">
<title>Node4&#45;&gt;Node11</title>
<path fill="none" stroke="midnightblue" d="M221.68,-112.37C224.1,-94.62 229.68,-53.67 232.96,-29.6"/>
<polygon fill="midnightblue" stroke="midnightblue" points="236.45,-29.97 234.33,-19.59 229.51,-29.03 236.45,-29.97"/>
</g>
<!-- Node12 -->
<g id="node12" class="node">
<title>Node12</title>
<g id="a_node12"><a xlink:title=" ">
<polygon fill="none" stroke="#bfbfbf" points="0,-0.5 0,-19.5 53,-19.5 53,-0.5 0,-0.5"/>
<text text-anchor="middle" x="26.5" y="-7.5" font-family="Helvetica,sans-Serif" font-size="10.00">cstddef</text>
</a>
</g>
</g>
<!-- Node4&#45;&gt;Node12 -->
<g id="edge18" class="edge">
<title>Node4&#45;&gt;Node12</title>
<path fill="none" stroke="midnightblue" d="M189.61,-112.42C165.01,-104.85 130.21,-92.46 102.5,-76 79.32,-62.24 56.31,-41.26 41.78,-26.88"/>
<polygon fill="midnightblue" stroke="midnightblue" points="44.16,-24.31 34.64,-19.66 39.18,-29.23 44.16,-24.31"/>
</g>
<!-- Node13 -->
<g id="node13" class="node">
<title>Node13</title>
<g id="a_node13"><a xlink:title=" ">
<polygon fill="none" stroke="#bfbfbf" points="136.5,-0.5 136.5,-19.5 196.5,-19.5 196.5,-0.5 136.5,-0.5"/>
<text text-anchor="middle" x="166.5" y="-7.5" font-family="Helvetica,sans-Serif" font-size="10.00">iostream</text>
</a>
</g>
</g>
<!-- Node4&#45;&gt;Node13 -->
<g id="edge16" class="edge">
<title>Node4&#45;&gt;Node13</title>
<path fill="none" stroke="midnightblue" d="M216.26,-112.37C207.43,-94.38 186.9,-52.55 175.15,-28.63"/>
<polygon fill="midnightblue" stroke="midnightblue" points="178.27,-27.03 170.72,-19.59 171.98,-30.11 178.27,-27.03"/>
</g>
<!-- Node14 -->
<g id="node14" class="node">
<title>Node14</title>
<g id="a_node14"><a xlink:title=" ">
<polygon fill="none" stroke="#bfbfbf" points="344,-56.5 344,-75.5 403,-75.5 403,-56.5 344,-56.5"/>
<text text-anchor="middle" x="373.5" y="-63.5" font-family="Helvetica,sans-Serif" font-size="10.00">compare</text>
</a>
</g>
</g>
<!-- Node4&#45;&gt;Node14 -->
<g id="edge17" class="edge">
<title>Node4&#45;&gt;Node14</title>
<path fill="none" stroke="midnightblue" d="M244.74,-112.44C270.37,-103.4 310.99,-89.06 339.74,-78.92"/>
<polygon fill="midnightblue" stroke="midnightblue" points="341.11,-82.15 349.37,-75.52 338.78,-75.54 341.11,-82.15"/>
</g>
<!-- Node5&#45;&gt;Node2 -->
<g id="edge6" class="edge">
<title>Node5&#45;&gt;Node2</title>
<path fill="none" stroke="midnightblue" d="M275.26,-58.53C243.33,-50.33 186.4,-35.64 128.04,-20.12"/>
<polygon fill="midnightblue" stroke="midnightblue" points="128.85,-16.71 118.28,-17.52 127.05,-23.48 128.85,-16.71"/>
</g>
<!-- Node6 -->
<g id="node6" class="node">
<title>Node6</title>
<g id="a_node6"><a xlink:title=" ">
<polygon fill="none" stroke="#bfbfbf" points="275,-0.5 275,-19.5 326,-19.5 326,-0.5 275,-0.5"/>
<text text-anchor="middle" x="300.5" y="-7.5" font-family="Helvetica,sans-Serif" font-size="10.00">math.h</text>
</a>
</g>
</g>
<!-- Node5&#45;&gt;Node6 -->
<g id="edge5" class="edge">
<title>Node5&#45;&gt;Node6</title>
<path fill="none" stroke="midnightblue" d="M300.5,-56.08C300.5,-49.01 300.5,-38.86 300.5,-29.99"/>
<polygon fill="midnightblue" stroke="midnightblue" points="304,-29.75 300.5,-19.75 297,-29.75 304,-29.75"/>
</g>
<!-- Node7 -->
<g id="node7" class="node">
<title>Node7</title>
<g id="a_node7"><a xlink:title=" ">
<polygon fill="none" stroke="#bfbfbf" points="344.5,-0.5 344.5,-19.5 388.5,-19.5 388.5,-0.5 344.5,-0.5"/>
<text text-anchor="middle" x="366.5" y="-7.5" font-family="Helvetica,sans-Serif" font-size="10.00">limits</text>
</a>
</g>
</g>
<!-- Node5&#45;&gt;Node7 -->
<g id="edge7" class="edge">
<title>Node5&#45;&gt;Node7</title>
<path fill="none" stroke="midnightblue" d="M311.1,-56.32C320.96,-48.26 335.85,-36.08 347.72,-26.37"/>
<polygon fill="midnightblue" stroke="midnightblue" points="350.18,-28.88 355.7,-19.83 345.75,-23.46 350.18,-28.88"/>
</g>
<!-- Node8 -->
<g id="node8" class="node">
<title>Node8</title>
<g id="a_node8"><a xlink:title=" ">
<polygon fill="none" stroke="#bfbfbf" points="407,-0.5 407,-19.5 466,-19.5 466,-0.5 407,-0.5"/>
<text text-anchor="middle" x="436.5" y="-7.5" font-family="Helvetica,sans-Serif" font-size="10.00">numbers</text>
</a>
</g>
</g>
<!-- Node5&#45;&gt;Node8 -->
<g id="edge8" class="edge">
<title>Node5&#45;&gt;Node8</title>
<path fill="none" stroke="midnightblue" d="M322.05,-56.44C344.53,-47.52 379.99,-33.44 405.48,-23.32"/>
<polygon fill="midnightblue" stroke="midnightblue" points="407.05,-26.46 415.05,-19.52 404.47,-19.95 407.05,-26.46"/>
</g>
<!-- Node9 -->
<g id="node9" class="node">
<title>Node9</title>
<g id="a_node9"><a xlink:title=" ">
<polygon fill="none" stroke="#bfbfbf" points="484.5,-0.5 484.5,-19.5 538.5,-19.5 538.5,-0.5 484.5,-0.5"/>
<text text-anchor="middle" x="511.5" y="-7.5" font-family="Helvetica,sans-Serif" font-size="10.00">random</text>
</a>
</g>
</g>
<!-- Node5&#45;&gt;Node9 -->
<g id="edge9" class="edge">
<title>Node5&#45;&gt;Node9</title>
<path fill="none" stroke="midnightblue" d="M325.73,-58.51C329.02,-57.66 332.34,-56.81 335.5,-56 383.46,-43.7 438.79,-29.56 474.42,-20.47"/>
<polygon fill="midnightblue" stroke="midnightblue" points="475.54,-23.79 484.36,-17.93 473.81,-17.01 475.54,-23.79"/>
</g>
<!-- Node10&#45;&gt;Node2 -->
<g id="edge12" class="edge">
<title>Node10&#45;&gt;Node2</title>
<path fill="none" stroke="midnightblue" d="M135.41,-56.08C128.34,-48.3 117.91,-36.8 109.35,-27.37"/>
<polygon fill="midnightblue" stroke="midnightblue" points="111.75,-24.8 102.44,-19.75 106.57,-29.51 111.75,-24.8"/>
</g>
<!-- Node10&#45;&gt;Node11 -->
<g id="edge11" class="edge">
<title>Node10&#45;&gt;Node11</title>
<path fill="none" stroke="midnightblue" d="M158.28,-56.32C172.77,-47.82 195.07,-34.73 211.99,-24.8"/>
<polygon fill="midnightblue" stroke="midnightblue" points="213.9,-27.74 220.76,-19.65 210.36,-21.7 213.9,-27.74"/>
</g>
<!-- Node10&#45;&gt;Node12 -->
<g id="edge13" class="edge">
<title>Node10&#45;&gt;Node12</title>
<path fill="none" stroke="midnightblue" d="M124.96,-56.44C105.88,-47.64 75.93,-33.81 54.06,-23.72"/>
<polygon fill="midnightblue" stroke="midnightblue" points="55.5,-20.53 44.95,-19.52 52.57,-26.88 55.5,-20.53"/>
</g>
<!-- Node10&#45;&gt;Node13 -->
<g id="edge14" class="edge">
<title>Node10&#45;&gt;Node13</title>
<path fill="none" stroke="midnightblue" d="M147.3,-56.08C150.41,-48.77 154.92,-38.18 158.79,-29.1"/>
<polygon fill="midnightblue" stroke="midnightblue" points="162.07,-30.32 162.77,-19.75 155.63,-27.58 162.07,-30.32"/>
</g>
</g>
</svg>
