<?xml version="1.0" encoding="UTF-8" standalone="no"?>
<!DOCTYPE svg PUBLIC "-//W3C//DTD SVG 1.1//EN"
 "http://www.w3.org/Graphics/SVG/1.1/DTD/svg11.dtd">
<!-- Generated by graphviz version 2.43.0 (0)
 -->
<!-- Title: include/Win.h Pages: 1 -->
<svg width="2054pt" height="442pt"
 viewBox="0.00 0.00 2054.06 442.00" xmlns="http://www.w3.org/2000/svg" xmlns:xlink="http://www.w3.org/1999/xlink">
<g id="graph0" class="graph" transform="scale(1 1) rotate(0) translate(4 438)">
<title>include/Win.h</title>
<!-- Node1 -->
<g id="node1" class="node">
<title>Node1</title>
<g id="a_node1"><a xlink:title=" ">
<polygon fill="#bfbfbf" stroke="black" points="1736.06,-414.5 1736.06,-433.5 1819.06,-433.5 1819.06,-414.5 1736.06,-414.5"/>
<text text-anchor="middle" x="1777.56" y="-421.5" font-family="Helvetica,sans-Serif" font-size="10.00">include/Win.h</text>
</a>
</g>
</g>
<!-- Node2 -->
<g id="node2" class="node">
<title>Node2</title>
<g id="a_node2"><a xlink:href="DXErr_8h.html" target="_top" xlink:title=" ">
<polygon fill="none" stroke="black" points="1923.06,-358.5 1923.06,-377.5 2014.06,-377.5 2014.06,-358.5 1923.06,-358.5"/>
<text text-anchor="middle" x="1968.56" y="-365.5" font-family="Helvetica,sans-Serif" font-size="10.00">include/DXErr.h</text>
</a>
</g>
</g>
<!-- Node1&#45;&gt;Node2 -->
<g id="edge1" class="edge">
<title>Node1&#45;&gt;Node2</title>
<path fill="none" stroke="midnightblue" d="M1817.53,-411.7C1853.58,-401.51 1905.8,-386.74 1938.43,-377.52"/>
<polygon fill="midnightblue" stroke="midnightblue" points="1816.49,-408.35 1807.82,-414.44 1818.4,-415.09 1816.49,-408.35"/>
</g>
<!-- Node5 -->
<g id="node5" class="node">
<title>Node5</title>
<g id="a_node5"><a xlink:href="GDIPlusManager_8h.html" target="_top" xlink:title=" ">
<polygon fill="none" stroke="black" points="1564.56,-358.5 1564.56,-377.5 1708.56,-377.5 1708.56,-358.5 1564.56,-358.5"/>
<text text-anchor="middle" x="1636.56" y="-365.5" font-family="Helvetica,sans-Serif" font-size="10.00">include/GDIPlusManager.h</text>
</a>
</g>
</g>
<!-- Node1&#45;&gt;Node5 -->
<g id="edge4" class="edge">
<title>Node1&#45;&gt;Node5</title>
<path fill="none" stroke="midnightblue" d="M1745.63,-410.77C1719.14,-400.63 1682.16,-386.47 1658.79,-377.52"/>
<polygon fill="midnightblue" stroke="midnightblue" points="1744.62,-414.14 1755.22,-414.44 1747.13,-407.6 1744.62,-414.14"/>
</g>
<!-- Node11 -->
<g id="node11" class="node">
<title>Node11</title>
<g id="a_node11"><a xlink:href="MainWindow_8h.html" target="_top" xlink:title=" ">
<polygon fill="none" stroke="black" points="1834.56,-246.5 1834.56,-265.5 1960.56,-265.5 1960.56,-246.5 1834.56,-246.5"/>
<text text-anchor="middle" x="1897.56" y="-253.5" font-family="Helvetica,sans-Serif" font-size="10.00">include/MainWindow.h</text>
</a>
</g>
</g>
<!-- Node1&#45;&gt;Node11 -->
<g id="edge66" class="edge">
<title>Node1&#45;&gt;Node11</title>
<path fill="none" stroke="midnightblue" d="M1808.91,-409.89C1823.76,-402.38 1840.78,-391.7 1852.56,-378 1882.36,-343.33 1893.24,-287.08 1896.43,-265.66"/>
<polygon fill="midnightblue" stroke="midnightblue" points="1807.05,-406.9 1799.54,-414.37 1810.07,-413.22 1807.05,-406.9"/>
</g>
<!-- Node12 -->
<g id="node12" class="node">
<title>Node12</title>
<g id="a_node12"><a xlink:href="Pipeline_8h.html" target="_top" xlink:title=" ">
<polygon fill="none" stroke="black" points="892.06,-190.5 892.06,-209.5 995.06,-209.5 995.06,-190.5 892.06,-190.5"/>
<text text-anchor="middle" x="943.56" y="-197.5" font-family="Helvetica,sans-Serif" font-size="10.00">include/Pipeline.h</text>
</a>
</g>
</g>
<!-- Node1&#45;&gt;Node12 -->
<g id="edge67" class="edge">
<title>Node1&#45;&gt;Node12</title>
<path fill="none" stroke="midnightblue" d="M1725.8,-414.53C1678.18,-406.39 1605.73,-393.11 1543.56,-378 1318.51,-323.3 1052.05,-236.91 969.34,-209.58"/>
<polygon fill="midnightblue" stroke="midnightblue" points="1725.43,-418.02 1735.87,-416.24 1726.6,-411.12 1725.43,-418.02"/>
</g>
<!-- Node32 -->
<g id="node32" class="node">
<title>Node32</title>
<g id="a_node32"><a xlink:href="GDIPlusManager_8cpp.html" target="_top" xlink:title=" ">
<polygon fill="none" stroke="black" points="1483.56,-302.5 1483.56,-321.5 1617.56,-321.5 1617.56,-302.5 1483.56,-302.5"/>
<text text-anchor="middle" x="1550.56" y="-309.5" font-family="Helvetica,sans-Serif" font-size="10.00">src/GDIPlusManager.cpp</text>
</a>
</g>
</g>
<!-- Node1&#45;&gt;Node32 -->
<g id="edge71" class="edge">
<title>Node1&#45;&gt;Node32</title>
<path fill="none" stroke="midnightblue" d="M1725.55,-419.56C1667.12,-414.52 1577.54,-402.88 1555.56,-378 1541.77,-362.4 1545.22,-335.64 1548.25,-321.83"/>
<polygon fill="midnightblue" stroke="midnightblue" points="1725.46,-423.06 1735.71,-420.39 1726.03,-416.08 1725.46,-423.06"/>
</g>
<!-- Node33 -->
<g id="node33" class="node">
<title>Node33</title>
<g id="a_node33"><a xlink:href="Surface_8h.html" target="_top" xlink:title=" ">
<polygon fill="none" stroke="black" points="1727.06,-358.5 1727.06,-377.5 1828.06,-377.5 1828.06,-358.5 1727.06,-358.5"/>
<text text-anchor="middle" x="1777.56" y="-365.5" font-family="Helvetica,sans-Serif" font-size="10.00">include/Surface.h</text>
</a>
</g>
</g>
<!-- Node1&#45;&gt;Node33 -->
<g id="edge68" class="edge">
<title>Node1&#45;&gt;Node33</title>
<path fill="none" stroke="midnightblue" d="M1777.56,-403.8C1777.56,-394.91 1777.56,-384.78 1777.56,-377.75"/>
<polygon fill="midnightblue" stroke="midnightblue" points="1774.06,-404.08 1777.56,-414.08 1781.06,-404.08 1774.06,-404.08"/>
</g>
<!-- Node34 -->
<g id="node34" class="node">
<title>Node34</title>
<g id="a_node34"><a xlink:href="Surface_8cpp.html" target="_top" xlink:title=" ">
<polygon fill="none" stroke="black" points="1775.06,-302.5 1775.06,-321.5 1866.06,-321.5 1866.06,-302.5 1775.06,-302.5"/>
<text text-anchor="middle" x="1820.56" y="-309.5" font-family="Helvetica,sans-Serif" font-size="10.00">src/Surface.cpp</text>
</a>
</g>
</g>
<!-- Node1&#45;&gt;Node34 -->
<g id="edge72" class="edge">
<title>Node1&#45;&gt;Node34</title>
<path fill="none" stroke="midnightblue" d="M1805.85,-409.38C1817.95,-401.93 1830.83,-391.46 1837.56,-378 1846.95,-359.22 1834.73,-334.71 1826.64,-321.82"/>
<polygon fill="midnightblue" stroke="midnightblue" points="1803.82,-406.5 1796.85,-414.48 1807.28,-412.59 1803.82,-406.5"/>
</g>
<!-- Node3 -->
<g id="node3" class="node">
<title>Node3</title>
<g id="a_node3"><a xlink:href="DXErr_8cpp.html" target="_top" xlink:title=" ">
<polygon fill="none" stroke="black" points="1923.06,-302.5 1923.06,-321.5 2004.06,-321.5 2004.06,-302.5 1923.06,-302.5"/>
<text text-anchor="middle" x="1963.56" y="-309.5" font-family="Helvetica,sans-Serif" font-size="10.00">src/DXErr.cpp</text>
</a>
</g>
</g>
<!-- Node2&#45;&gt;Node3 -->
<g id="edge2" class="edge">
<title>Node2&#45;&gt;Node3</title>
<path fill="none" stroke="midnightblue" d="M1966.81,-348.1C1965.98,-339.14 1965.03,-328.86 1964.37,-321.75"/>
<polygon fill="midnightblue" stroke="midnightblue" points="1963.32,-348.45 1967.73,-358.08 1970.29,-347.8 1963.32,-348.45"/>
</g>
<!-- Node4 -->
<g id="node4" class="node">
<title>Node4</title>
<g id="a_node4"><a xlink:href="Graphics_8cpp.html" target="_top" xlink:title=" ">
<polygon fill="none" stroke="black" points="1949.06,-190.5 1949.06,-209.5 2046.06,-209.5 2046.06,-190.5 1949.06,-190.5"/>
<text text-anchor="middle" x="1997.56" y="-197.5" font-family="Helvetica,sans-Serif" font-size="10.00">src/Graphics.cpp</text>
</a>
</g>
</g>
<!-- Node2&#45;&gt;Node4 -->
<g id="edge3" class="edge">
<title>Node2&#45;&gt;Node4</title>
<path fill="none" stroke="midnightblue" d="M1989.72,-352.04C1998.89,-344.26 2008.64,-333.88 2013.56,-322 2029.94,-282.45 2010.51,-229.98 2001.58,-209.6"/>
<polygon fill="midnightblue" stroke="midnightblue" points="1987.3,-349.49 1981.62,-358.44 1991.64,-354.99 1987.3,-349.49"/>
</g>
<!-- Node6 -->
<g id="node6" class="node">
<title>Node6</title>
<g id="a_node6"><a xlink:href="Graphics_8h.html" target="_top" xlink:title=" ">
<polygon fill="none" stroke="black" points="1650.06,-302.5 1650.06,-321.5 1757.06,-321.5 1757.06,-302.5 1650.06,-302.5"/>
<text text-anchor="middle" x="1703.56" y="-309.5" font-family="Helvetica,sans-Serif" font-size="10.00">include/Graphics.h</text>
</a>
</g>
</g>
<!-- Node5&#45;&gt;Node6 -->
<g id="edge5" class="edge">
<title>Node5&#45;&gt;Node6</title>
<path fill="none" stroke="midnightblue" d="M1655.39,-351.82C1667.4,-342.15 1682.53,-329.95 1692.6,-321.83"/>
<polygon fill="midnightblue" stroke="midnightblue" points="1652.91,-349.32 1647.32,-358.32 1657.3,-354.77 1652.91,-349.32"/>
</g>
<!-- Node5&#45;&gt;Node32 -->
<g id="edge65" class="edge">
<title>Node5&#45;&gt;Node32</title>
<path fill="none" stroke="midnightblue" d="M1614.1,-352.9C1598.33,-343 1577.74,-330.07 1564.34,-321.65"/>
<polygon fill="midnightblue" stroke="midnightblue" points="1612.41,-355.97 1622.74,-358.32 1616.13,-350.04 1612.41,-355.97"/>
</g>
<!-- Node6&#45;&gt;Node4 -->
<g id="edge63" class="edge">
<title>Node6&#45;&gt;Node4</title>
<path fill="none" stroke="midnightblue" d="M1767.14,-301.8C1843.27,-290.55 1961.6,-272.25 1969.56,-266 1987.53,-251.88 1994.17,-223.97 1996.45,-209.76"/>
<polygon fill="midnightblue" stroke="midnightblue" points="1766.53,-298.35 1757.15,-303.27 1767.55,-305.28 1766.53,-298.35"/>
</g>
<!-- Node7 -->
<g id="node7" class="node">
<title>Node7</title>
<g id="a_node7"><a xlink:href="Engine_8h.html" target="_top" xlink:title=" ">
<polygon fill="none" stroke="black" points="1681.06,-62 1681.06,-81 1778.06,-81 1778.06,-62 1681.06,-62"/>
<text text-anchor="middle" x="1729.56" y="-69" font-family="Helvetica,sans-Serif" font-size="10.00">include/Engine.h</text>
</a>
</g>
</g>
<!-- Node6&#45;&gt;Node7 -->
<g id="edge6" class="edge">
<title>Node6&#45;&gt;Node7</title>
<path fill="none" stroke="midnightblue" d="M1710.75,-292.79C1721.72,-263.92 1742.15,-205.61 1749.56,-154 1751.51,-140.36 1752.14,-136.53 1749.56,-123 1746.62,-107.62 1739.08,-90.95 1734.15,-81.13"/>
<polygon fill="midnightblue" stroke="midnightblue" points="1707.39,-291.75 1707.05,-302.34 1713.92,-294.28 1707.39,-291.75"/>
</g>
<!-- Node10 -->
<g id="node10" class="node">
<title>Node10</title>
<g id="a_node10"><a xlink:href="MainWindow_8cpp.html" target="_top" xlink:title=" ">
<polygon fill="none" stroke="black" points="1747.56,-0.5 1747.56,-19.5 1863.56,-19.5 1863.56,-0.5 1747.56,-0.5"/>
<text text-anchor="middle" x="1805.56" y="-7.5" font-family="Helvetica,sans-Serif" font-size="10.00">src/MainWindow.cpp</text>
</a>
</g>
</g>
<!-- Node6&#45;&gt;Node10 -->
<g id="edge64" class="edge">
<title>Node6&#45;&gt;Node10</title>
<path fill="none" stroke="midnightblue" d="M1730.42,-297.27C1760.94,-279.54 1806.56,-245.57 1806.56,-201 1806.56,-201 1806.56,-201 1806.56,-137.5 1806.56,-93.14 1805.93,-40.02 1805.67,-19.59"/>
<polygon fill="midnightblue" stroke="midnightblue" points="1728.53,-294.32 1721.5,-302.25 1731.94,-300.43 1728.53,-294.32"/>
</g>
<!-- Node6&#45;&gt;Node11 -->
<g id="edge10" class="edge">
<title>Node6&#45;&gt;Node11</title>
<path fill="none" stroke="midnightblue" d="M1744.16,-299.7C1780.77,-289.51 1833.81,-274.74 1866.96,-265.52"/>
<polygon fill="midnightblue" stroke="midnightblue" points="1742.99,-296.39 1734.3,-302.44 1744.87,-303.13 1742.99,-296.39"/>
</g>
<!-- Node6&#45;&gt;Node12 -->
<g id="edge15" class="edge">
<title>Node6&#45;&gt;Node12</title>
<path fill="none" stroke="midnightblue" d="M1664.28,-299.7C1611.89,-285.06 1516.02,-259.78 1432.56,-246 1274.42,-219.9 1084.82,-207.86 995.26,-203.31"/>
<polygon fill="midnightblue" stroke="midnightblue" points="1663.59,-303.14 1674.17,-302.48 1665.49,-296.4 1663.59,-303.14"/>
</g>
<!-- Node30 -->
<g id="node30" class="node">
<title>Node30</title>
<g id="a_node30"><a xlink:href="PubeScreenTransformer_8h.html" target="_top" xlink:title=" ">
<polygon fill="none" stroke="black" points="1245.06,-246.5 1245.06,-265.5 1424.06,-265.5 1424.06,-246.5 1245.06,-246.5"/>
<text text-anchor="middle" x="1334.56" y="-253.5" font-family="Helvetica,sans-Serif" font-size="10.00">include/PubeScreenTransformer.h</text>
</a>
</g>
</g>
<!-- Node6&#45;&gt;Node30 -->
<g id="edge50" class="edge">
<title>Node6&#45;&gt;Node30</title>
<path fill="none" stroke="midnightblue" d="M1639.96,-301.69C1570.48,-291.53 1460.15,-275.38 1392.85,-265.53"/>
<polygon fill="midnightblue" stroke="midnightblue" points="1639.5,-305.16 1649.9,-303.15 1640.51,-298.24 1639.5,-305.16"/>
</g>
<!-- Node31 -->
<g id="node31" class="node">
<title>Node31</title>
<g id="a_node31"><a xlink:href="Scene_8h.html" target="_top" xlink:title=" ">
<polygon fill="none" stroke="black" points="1036.06,-129 1036.06,-148 1129.06,-148 1129.06,-129 1036.06,-129"/>
<text text-anchor="middle" x="1082.56" y="-136" font-family="Helvetica,sans-Serif" font-size="10.00">include/Scene.h</text>
</a>
</g>
</g>
<!-- Node6&#45;&gt;Node31 -->
<g id="edge52" class="edge">
<title>Node6&#45;&gt;Node31</title>
<path fill="none" stroke="midnightblue" d="M1668.15,-299.33C1626.89,-285.86 1556.57,-263.36 1495.56,-246 1337.55,-201.04 1296.54,-195.38 1137.56,-154 1130.2,-152.08 1122.29,-150.01 1114.83,-148.04"/>
<polygon fill="midnightblue" stroke="midnightblue" points="1667.15,-302.68 1677.74,-302.46 1669.33,-296.03 1667.15,-302.68"/>
</g>
<!-- Node8 -->
<g id="node8" class="node">
<title>Node8</title>
<g id="a_node8"><a xlink:href="Engine_8cpp.html" target="_top" xlink:title=" ">
<polygon fill="none" stroke="black" points="964.06,-0.5 964.06,-19.5 1051.06,-19.5 1051.06,-0.5 964.06,-0.5"/>
<text text-anchor="middle" x="1007.56" y="-7.5" font-family="Helvetica,sans-Serif" font-size="10.00">src/Engine.cpp</text>
</a>
</g>
</g>
<!-- Node7&#45;&gt;Node8 -->
<g id="edge7" class="edge">
<title>Node7&#45;&gt;Node8</title>
<path fill="none" stroke="midnightblue" d="M1678.85,-60.08C1670.11,-58.54 1661.09,-57.1 1652.56,-56 1427.38,-27.04 1155.42,-15.75 1051.14,-12.29"/>
<polygon fill="midnightblue" stroke="midnightblue" points="1678.47,-63.57 1688.94,-61.93 1679.73,-56.69 1678.47,-63.57"/>
</g>
<!-- Node9 -->
<g id="node9" class="node">
<title>Node9</title>
<g id="a_node9"><a xlink:href="Main_8cpp.html" target="_top" xlink:title=" ">
<polygon fill="none" stroke="black" points="1881.56,-0.5 1881.56,-19.5 1959.56,-19.5 1959.56,-0.5 1881.56,-0.5"/>
<text text-anchor="middle" x="1920.56" y="-7.5" font-family="Helvetica,sans-Serif" font-size="10.00">src/Main.cpp</text>
</a>
</g>
</g>
<!-- Node7&#45;&gt;Node9 -->
<g id="edge8" class="edge">
<title>Node7&#45;&gt;Node9</title>
<path fill="none" stroke="midnightblue" d="M1766.86,-58.88C1803.98,-47.32 1860.08,-29.84 1893.24,-19.51"/>
<polygon fill="midnightblue" stroke="midnightblue" points="1765.43,-55.66 1756.92,-61.98 1767.51,-62.34 1765.43,-55.66"/>
</g>
<!-- Node7&#45;&gt;Node10 -->
<g id="edge9" class="edge">
<title>Node7&#45;&gt;Node10</title>
<path fill="none" stroke="midnightblue" d="M1748.34,-55.79C1762.92,-44.38 1782.62,-28.96 1794.69,-19.51"/>
<polygon fill="midnightblue" stroke="midnightblue" points="1746.16,-53.05 1740.45,-61.98 1750.48,-58.57 1746.16,-53.05"/>
</g>
<!-- Node11&#45;&gt;Node4 -->
<g id="edge12" class="edge">
<title>Node11&#45;&gt;Node4</title>
<path fill="none" stroke="midnightblue" d="M1922.64,-241.45C1941.11,-231.48 1965.65,-218.23 1981.53,-209.65"/>
<polygon fill="midnightblue" stroke="midnightblue" points="1920.76,-238.49 1913.62,-246.32 1924.09,-244.65 1920.76,-238.49"/>
</g>
<!-- Node11&#45;&gt;Node8 -->
<g id="edge11" class="edge">
<title>Node11&#45;&gt;Node8</title>
<path fill="none" stroke="midnightblue" d="M1893.46,-236.18C1883.42,-195.12 1853.35,-97.86 1786.56,-56 1724.18,-16.9 1206.07,-11.76 1051.15,-11.09"/>
<polygon fill="midnightblue" stroke="midnightblue" points="1890.11,-237.22 1895.78,-246.17 1896.93,-235.64 1890.11,-237.22"/>
</g>
<!-- Node11&#45;&gt;Node9 -->
<g id="edge13" class="edge">
<title>Node11&#45;&gt;Node9</title>
<path fill="none" stroke="midnightblue" d="M1899.34,-236.09C1904.01,-186.57 1916.45,-54.52 1919.75,-19.58"/>
<polygon fill="midnightblue" stroke="midnightblue" points="1895.83,-236.03 1898.38,-246.32 1902.8,-236.69 1895.83,-236.03"/>
</g>
<!-- Node11&#45;&gt;Node10 -->
<g id="edge14" class="edge">
<title>Node11&#45;&gt;Node10</title>
<path fill="none" stroke="midnightblue" d="M1897.88,-236.01C1897.68,-198.83 1893.1,-114.92 1858.56,-56 1849.4,-40.38 1832.78,-27.61 1820.58,-19.72"/>
<polygon fill="midnightblue" stroke="midnightblue" points="1894.38,-236.33 1897.82,-246.35 1901.38,-236.37 1894.38,-236.33"/>
</g>
<!-- Node13 -->
<g id="node13" class="node">
<title>Node13</title>
<g id="a_node13"><a xlink:href="GeometryFlatEffect_8h.html" target="_top" xlink:title=" ">
<polygon fill="none" stroke="black" points="1382.56,-123.5 1382.56,-153.5 1522.56,-153.5 1522.56,-123.5 1382.56,-123.5"/>
<text text-anchor="start" x="1390.56" y="-141.5" font-family="Helvetica,sans-Serif" font-size="10.00">include/Effects/Geometry</text>
<text text-anchor="middle" x="1452.56" y="-130.5" font-family="Helvetica,sans-Serif" font-size="10.00">FlatEffect.h</text>
</a>
</g>
</g>
<!-- Node12&#45;&gt;Node13 -->
<g id="edge16" class="edge">
<title>Node12&#45;&gt;Node13</title>
<path fill="none" stroke="midnightblue" d="M1005.38,-193.73C1088.24,-186.38 1239.81,-171.91 1368.56,-154 1373.1,-153.37 1377.78,-152.68 1382.48,-151.95"/>
<polygon fill="midnightblue" stroke="midnightblue" points="1005.03,-190.25 995.37,-194.62 1005.64,-197.22 1005.03,-190.25"/>
</g>
<!-- Node14 -->
<g id="node14" class="node">
<title>Node14</title>
<g id="a_node14"><a xlink:href="GeometryFlatScene_8h.html" target="_top" xlink:title=" ">
<polygon fill="none" stroke="black" points="1316.56,-56.5 1316.56,-86.5 1476.56,-86.5 1476.56,-56.5 1316.56,-56.5"/>
<text text-anchor="start" x="1324.56" y="-74.5" font-family="Helvetica,sans-Serif" font-size="10.00">include/Scenes/GeometryFlat</text>
<text text-anchor="middle" x="1396.56" y="-63.5" font-family="Helvetica,sans-Serif" font-size="10.00">Scene.h</text>
</a>
</g>
</g>
<!-- Node12&#45;&gt;Node14 -->
<g id="edge49" class="edge">
<title>Node12&#45;&gt;Node14</title>
<path fill="none" stroke="midnightblue" d="M1005.34,-196.35C1096.35,-191.64 1261.44,-179.76 1314.56,-154 1346.52,-138.5 1373.49,-105.47 1387.08,-86.56"/>
<polygon fill="midnightblue" stroke="midnightblue" points="1004.97,-192.86 995.16,-196.86 1005.32,-199.86 1004.97,-192.86"/>
</g>
<!-- Node15 -->
<g id="node15" class="node">
<title>Node15</title>
<g id="a_node15"><a xlink:href="SolidEffect_8h.html" target="_top" xlink:title=" ">
<polygon fill="none" stroke="black" points="456.56,-129 456.56,-148 608.56,-148 608.56,-129 456.56,-129"/>
<text text-anchor="middle" x="532.56" y="-136" font-family="Helvetica,sans-Serif" font-size="10.00">include/Effects/SolidEffect.h</text>
</a>
</g>
</g>
<!-- Node12&#45;&gt;Node15 -->
<g id="edge19" class="edge">
<title>Node12&#45;&gt;Node15</title>
<path fill="none" stroke="midnightblue" d="M881.78,-190.72C817.1,-181.96 712.62,-167.57 622.56,-154 610.19,-152.14 596.89,-150.04 584.4,-148.04"/>
<polygon fill="midnightblue" stroke="midnightblue" points="881.43,-194.21 891.81,-192.08 882.36,-187.27 881.43,-194.21"/>
</g>
<!-- Node16 -->
<g id="node16" class="node">
<title>Node16</title>
<g id="a_node16"><a xlink:href="CubeSolidScene_8h.html" target="_top" xlink:title=" ">
<polygon fill="none" stroke="black" points="606.06,-56.5 606.06,-86.5 747.06,-86.5 747.06,-56.5 606.06,-56.5"/>
<text text-anchor="start" x="614.06" y="-74.5" font-family="Helvetica,sans-Serif" font-size="10.00">include/Scenes/CubeSolid</text>
<text text-anchor="middle" x="676.56" y="-63.5" font-family="Helvetica,sans-Serif" font-size="10.00">Scene.h</text>
</a>
</g>
</g>
<!-- Node12&#45;&gt;Node16 -->
<g id="edge45" class="edge">
<title>Node12&#45;&gt;Node16</title>
<path fill="none" stroke="midnightblue" d="M881.58,-196.85C812.95,-193.06 708.53,-182.63 682.56,-154 665.97,-135.72 669.16,-104.64 672.9,-86.6"/>
<polygon fill="midnightblue" stroke="midnightblue" points="881.69,-200.36 891.86,-197.39 882.05,-193.37 881.69,-200.36"/>
</g>
<!-- Node17 -->
<g id="node17" class="node">
<title>Node17</title>
<g id="a_node17"><a xlink:href="DoubleCubeScene_8h.html" target="_top" xlink:title=" ">
<polygon fill="none" stroke="black" points="435.56,-56.5 435.56,-86.5 587.56,-86.5 587.56,-56.5 435.56,-56.5"/>
<text text-anchor="start" x="443.56" y="-74.5" font-family="Helvetica,sans-Serif" font-size="10.00">include/Scenes/DoubleCube</text>
<text text-anchor="middle" x="511.56" y="-63.5" font-family="Helvetica,sans-Serif" font-size="10.00">Scene.h</text>
</a>
</g>
</g>
<!-- Node12&#45;&gt;Node17 -->
<g id="edge48" class="edge">
<title>Node12&#45;&gt;Node17</title>
<path fill="none" stroke="midnightblue" d="M881.64,-197.95C755.1,-195.16 476.31,-185.48 447.56,-154 427.05,-131.55 461.51,-103.22 487.3,-86.56"/>
<polygon fill="midnightblue" stroke="midnightblue" points="881.87,-201.46 891.94,-198.17 882.02,-194.46 881.87,-201.46"/>
</g>
<!-- Node18 -->
<g id="node18" class="node">
<title>Node18</title>
<g id="a_node18"><a xlink:href="SolidGeometryEffect_8h.html" target="_top" xlink:title=" ">
<polygon fill="none" stroke="black" points="16.56,-123.5 16.56,-153.5 180.56,-153.5 180.56,-123.5 16.56,-123.5"/>
<text text-anchor="start" x="24.56" y="-141.5" font-family="Helvetica,sans-Serif" font-size="10.00">include/Effects/SolidGeometry</text>
<text text-anchor="middle" x="98.56" y="-130.5" font-family="Helvetica,sans-Serif" font-size="10.00">Effect.h</text>
</a>
</g>
</g>
<!-- Node12&#45;&gt;Node18 -->
<g id="edge24" class="edge">
<title>Node12&#45;&gt;Node18</title>
<path fill="none" stroke="midnightblue" d="M881.67,-197.37C752.65,-193.51 445.62,-181.97 189.56,-154 186.69,-153.69 183.78,-153.35 180.85,-152.98"/>
<polygon fill="midnightblue" stroke="midnightblue" points="881.66,-200.87 891.76,-197.66 881.87,-193.87 881.66,-200.87"/>
</g>
<!-- Node19 -->
<g id="node19" class="node">
<title>Node19</title>
<g id="a_node19"><a xlink:href="CubeSolidGeometryScene_8h.html" target="_top" xlink:title=" ">
<polygon fill="none" stroke="black" points="46.06,-56.5 46.06,-86.5 187.06,-86.5 187.06,-56.5 46.06,-56.5"/>
<text text-anchor="start" x="54.06" y="-74.5" font-family="Helvetica,sans-Serif" font-size="10.00">include/Scenes/CubeSolid</text>
<text text-anchor="middle" x="116.56" y="-63.5" font-family="Helvetica,sans-Serif" font-size="10.00">GeometryScene.h</text>
</a>
</g>
</g>
<!-- Node12&#45;&gt;Node19 -->
<g id="edge44" class="edge">
<title>Node12&#45;&gt;Node19</title>
<path fill="none" stroke="midnightblue" d="M881.58,-198.34C677.48,-195.88 37.72,-185.65 7.56,-154 -18.61,-126.55 30.88,-101.48 71.44,-86.6"/>
<polygon fill="midnightblue" stroke="midnightblue" points="881.78,-201.85 891.82,-198.46 881.86,-194.85 881.78,-201.85"/>
</g>
<!-- Node20 -->
<g id="node20" class="node">
<title>Node20</title>
<g id="a_node20"><a xlink:href="TextureEffect_8h.html" target="_top" xlink:title=" ">
<polygon fill="none" stroke="black" points="198.56,-129 198.56,-148 362.56,-148 362.56,-129 198.56,-129"/>
<text text-anchor="middle" x="280.56" y="-136" font-family="Helvetica,sans-Serif" font-size="10.00">include/Effects/TextureEffect.h</text>
</a>
</g>
</g>
<!-- Node12&#45;&gt;Node20 -->
<g id="edge27" class="edge">
<title>Node12&#45;&gt;Node20</title>
<path fill="none" stroke="midnightblue" d="M881.8,-195.53C777.48,-189.36 559.79,-175.08 376.56,-154 362.32,-152.36 346.96,-150.21 332.78,-148.07"/>
<polygon fill="midnightblue" stroke="midnightblue" points="881.65,-199.03 891.84,-196.12 882.06,-192.04 881.65,-199.03"/>
</g>
<!-- Node21 -->
<g id="node21" class="node">
<title>Node21</title>
<g id="a_node21"><a xlink:href="CubeSkinScene_8h.html" target="_top" xlink:title=" ">
<polygon fill="none" stroke="black" points="241.56,-62 241.56,-81 417.56,-81 417.56,-62 241.56,-62"/>
<text text-anchor="middle" x="329.56" y="-69" font-family="Helvetica,sans-Serif" font-size="10.00">include/Scenes/CubeSkinScene.h</text>
</a>
</g>
</g>
<!-- Node12&#45;&gt;Node21 -->
<g id="edge43" class="edge">
<title>Node12&#45;&gt;Node21</title>
<path fill="none" stroke="midnightblue" d="M881.44,-197.73C764.68,-194.65 517.05,-184.61 437.56,-154 394.59,-137.46 354.11,-98.47 337.49,-81.11"/>
<polygon fill="midnightblue" stroke="midnightblue" points="881.57,-201.23 891.65,-197.99 881.74,-194.24 881.57,-201.23"/>
</g>
<!-- Node22 -->
<g id="node22" class="node">
<title>Node22</title>
<g id="a_node22"><a xlink:href="VertexColorEffect_8h.html" target="_top" xlink:title=" ">
<polygon fill="none" stroke="black" points="702.56,-123.5 702.56,-153.5 850.56,-153.5 850.56,-123.5 702.56,-123.5"/>
<text text-anchor="start" x="710.56" y="-141.5" font-family="Helvetica,sans-Serif" font-size="10.00">include/Effects/VertexColor</text>
<text text-anchor="middle" x="776.56" y="-130.5" font-family="Helvetica,sans-Serif" font-size="10.00">Effect.h</text>
</a>
</g>
</g>
<!-- Node12&#45;&gt;Node22 -->
<g id="edge30" class="edge">
<title>Node12&#45;&gt;Node22</title>
<path fill="none" stroke="midnightblue" d="M910.17,-187.1C882.99,-177.42 844.58,-163.74 815.92,-153.52"/>
<polygon fill="midnightblue" stroke="midnightblue" points="909.04,-190.42 919.63,-190.48 911.38,-183.82 909.04,-190.42"/>
</g>
<!-- Node23 -->
<g id="node23" class="node">
<title>Node23</title>
<g id="a_node23"><a xlink:href="CubeVertexColorScene_8h.html" target="_top" xlink:title=" ">
<polygon fill="none" stroke="black" points="765.06,-56.5 765.06,-86.5 914.06,-86.5 914.06,-56.5 765.06,-56.5"/>
<text text-anchor="start" x="773.06" y="-74.5" font-family="Helvetica,sans-Serif" font-size="10.00">include/Scenes/CubeVertex</text>
<text text-anchor="middle" x="839.56" y="-63.5" font-family="Helvetica,sans-Serif" font-size="10.00">ColorScene.h</text>
</a>
</g>
</g>
<!-- Node12&#45;&gt;Node23 -->
<g id="edge46" class="edge">
<title>Node12&#45;&gt;Node23</title>
<path fill="none" stroke="midnightblue" d="M881.71,-196.66C815.6,-192.71 717.08,-182.14 693.56,-154 666.23,-121.32 718.21,-99.32 767.55,-86.5"/>
<polygon fill="midnightblue" stroke="midnightblue" points="881.84,-200.18 892.03,-197.24 882.24,-193.19 881.84,-200.18"/>
</g>
<!-- Node24 -->
<g id="node24" class="node">
<title>Node24</title>
<g id="a_node24"><a xlink:href="VertexFlatEffect_8h.html" target="_top" xlink:title=" ">
<polygon fill="none" stroke="black" points="1147.06,-123.5 1147.06,-153.5 1288.06,-153.5 1288.06,-123.5 1147.06,-123.5"/>
<text text-anchor="start" x="1155.06" y="-141.5" font-family="Helvetica,sans-Serif" font-size="10.00">include/Effects/VertexFlat</text>
<text text-anchor="middle" x="1217.56" y="-130.5" font-family="Helvetica,sans-Serif" font-size="10.00">Effect.h</text>
</a>
</g>
</g>
<!-- Node12&#45;&gt;Node24 -->
<g id="edge33" class="edge">
<title>Node12&#45;&gt;Node24</title>
<path fill="none" stroke="midnightblue" d="M992.87,-188.29C1037.65,-178.57 1103.99,-164.16 1152.98,-153.52"/>
<polygon fill="midnightblue" stroke="midnightblue" points="991.84,-184.93 982.81,-190.48 993.33,-191.77 991.84,-184.93"/>
</g>
<!-- Node25 -->
<g id="node25" class="node">
<title>Node25</title>
<g id="a_node25"><a xlink:href="CubeFlatIndependentScene_8h.html" target="_top" xlink:title=" ">
<polygon fill="none" stroke="black" points="1101.06,-56.5 1101.06,-86.5 1298.06,-86.5 1298.06,-56.5 1101.06,-56.5"/>
<text text-anchor="start" x="1109.06" y="-74.5" font-family="Helvetica,sans-Serif" font-size="10.00">include/Scenes/CubeFlatIndependent</text>
<text text-anchor="middle" x="1199.56" y="-63.5" font-family="Helvetica,sans-Serif" font-size="10.00">Scene.h</text>
</a>
</g>
</g>
<!-- Node12&#45;&gt;Node25 -->
<g id="edge42" class="edge">
<title>Node12&#45;&gt;Node25</title>
<path fill="none" stroke="midnightblue" d="M1005.58,-195.49C1101.72,-189.4 1277.67,-175.45 1296.56,-154 1320.11,-127.26 1275.01,-101.72 1238.71,-86.58"/>
<polygon fill="midnightblue" stroke="midnightblue" points="1005.17,-192 995.4,-196.12 1005.6,-198.99 1005.17,-192"/>
</g>
<!-- Node26 -->
<g id="node26" class="node">
<title>Node26</title>
<g id="a_node26"><a xlink:href="VertexPositionColorEffect_8h.html" target="_top" xlink:title=" ">
<polygon fill="none" stroke="black" points="1579.06,-123.5 1579.06,-153.5 1740.06,-153.5 1740.06,-123.5 1579.06,-123.5"/>
<text text-anchor="start" x="1587.06" y="-141.5" font-family="Helvetica,sans-Serif" font-size="10.00">include/Effects/VertexPosition</text>
<text text-anchor="middle" x="1659.56" y="-130.5" font-family="Helvetica,sans-Serif" font-size="10.00">ColorEffect.h</text>
</a>
</g>
</g>
<!-- Node12&#45;&gt;Node26 -->
<g id="edge36" class="edge">
<title>Node12&#45;&gt;Node26</title>
<path fill="none" stroke="midnightblue" d="M1005.29,-196.15C1117.08,-190.62 1360.39,-176.94 1564.56,-154 1569.28,-153.47 1574.13,-152.88 1579.02,-152.24"/>
<polygon fill="midnightblue" stroke="midnightblue" points="1005.02,-192.66 995.21,-196.64 1005.37,-199.65 1005.02,-192.66"/>
</g>
<!-- Node27 -->
<g id="node27" class="node">
<title>Node27</title>
<g id="a_node27"><a xlink:href="CubeVertexPositionColorScene_8h.html" target="_top" xlink:title=" ">
<polygon fill="none" stroke="black" points="1495.06,-56.5 1495.06,-86.5 1644.06,-86.5 1644.06,-56.5 1495.06,-56.5"/>
<text text-anchor="start" x="1503.06" y="-74.5" font-family="Helvetica,sans-Serif" font-size="10.00">include/Scenes/CubeVertex</text>
<text text-anchor="middle" x="1569.56" y="-63.5" font-family="Helvetica,sans-Serif" font-size="10.00">PositionColorScene.h</text>
</a>
</g>
</g>
<!-- Node12&#45;&gt;Node27 -->
<g id="edge47" class="edge">
<title>Node12&#45;&gt;Node27</title>
<path fill="none" stroke="midnightblue" d="M1005.45,-197.76C1147.7,-194.43 1489.06,-183.42 1531.56,-154 1554.28,-138.27 1563.75,-105.33 1567.43,-86.5"/>
<polygon fill="midnightblue" stroke="midnightblue" points="1005.07,-194.27 995.15,-198 1005.23,-201.27 1005.07,-194.27"/>
</g>
<!-- Node28 -->
<g id="node28" class="node">
<title>Node28</title>
<g id="a_node28"><a xlink:href="WaveVertexTextureEffect_8h.html" target="_top" xlink:title=" ">
<polygon fill="none" stroke="black" points="869.06,-123.5 869.06,-153.5 1018.06,-153.5 1018.06,-123.5 869.06,-123.5"/>
<text text-anchor="start" x="877.06" y="-141.5" font-family="Helvetica,sans-Serif" font-size="10.00">include/Effects/WaveVertex</text>
<text text-anchor="middle" x="943.56" y="-130.5" font-family="Helvetica,sans-Serif" font-size="10.00">TextureEffect.h</text>
</a>
</g>
</g>
<!-- Node12&#45;&gt;Node28 -->
<g id="edge39" class="edge">
<title>Node12&#45;&gt;Node28</title>
<path fill="none" stroke="midnightblue" d="M943.56,-180.23C943.56,-171.59 943.56,-161.5 943.56,-153.52"/>
<polygon fill="midnightblue" stroke="midnightblue" points="940.06,-180.48 943.56,-190.48 947.06,-180.48 940.06,-180.48"/>
</g>
<!-- Node13&#45;&gt;Node14 -->
<g id="edge17" class="edge">
<title>Node13&#45;&gt;Node14</title>
<path fill="none" stroke="midnightblue" d="M1433.81,-115.74C1425.52,-106.12 1416.02,-95.09 1408.68,-86.58"/>
<polygon fill="midnightblue" stroke="midnightblue" points="1431.23,-118.1 1440.41,-123.4 1436.53,-113.54 1431.23,-118.1"/>
</g>
<!-- Node14&#45;&gt;Node8 -->
<g id="edge18" class="edge">
<title>Node14&#45;&gt;Node8</title>
<path fill="none" stroke="midnightblue" d="M1306.08,-55.94C1208.77,-40.81 1107.46,-25.74 1051.15,-17.42"/>
<polygon fill="midnightblue" stroke="midnightblue" points="1305.67,-59.41 1316.09,-57.49 1306.75,-52.5 1305.67,-59.41"/>
</g>
<!-- Node15&#45;&gt;Node16 -->
<g id="edge20" class="edge">
<title>Node15&#45;&gt;Node16</title>
<path fill="none" stroke="midnightblue" d="M561.09,-124.62C585.45,-113.63 620.42,-97.84 645.48,-86.53"/>
<polygon fill="midnightblue" stroke="midnightblue" points="559.35,-121.56 551.68,-128.87 562.23,-127.94 559.35,-121.56"/>
</g>
<!-- Node15&#45;&gt;Node17 -->
<g id="edge22" class="edge">
<title>Node15&#45;&gt;Node17</title>
<path fill="none" stroke="midnightblue" d="M526.6,-119.06C523.27,-108.75 519.18,-96.1 516.11,-86.59"/>
<polygon fill="midnightblue" stroke="midnightblue" points="523.32,-120.29 529.72,-128.73 529.98,-118.14 523.32,-120.29"/>
</g>
<!-- Node16&#45;&gt;Node8 -->
<g id="edge21" class="edge">
<title>Node16&#45;&gt;Node8</title>
<path fill="none" stroke="midnightblue" d="M757.22,-55.7C835.5,-41.55 915.64,-27.29 963.84,-18.74"/>
<polygon fill="midnightblue" stroke="midnightblue" points="756.41,-52.29 747.19,-57.52 757.65,-59.18 756.41,-52.29"/>
</g>
<!-- Node17&#45;&gt;Node8 -->
<g id="edge23" class="edge">
<title>Node17&#45;&gt;Node8</title>
<path fill="none" stroke="midnightblue" d="M597.99,-55.85C737.42,-36.61 890.55,-21.68 963.96,-14.91"/>
<polygon fill="midnightblue" stroke="midnightblue" points="597.4,-52.4 587.98,-57.24 598.37,-59.33 597.4,-52.4"/>
</g>
<!-- Node18&#45;&gt;Node19 -->
<g id="edge25" class="edge">
<title>Node18&#45;&gt;Node19</title>
<path fill="none" stroke="midnightblue" d="M105.15,-113.7C107.67,-104.59 110.47,-94.49 112.66,-86.58"/>
<polygon fill="midnightblue" stroke="midnightblue" points="101.76,-112.82 102.46,-123.4 108.5,-114.69 101.76,-112.82"/>
</g>
<!-- Node19&#45;&gt;Node8 -->
<g id="edge26" class="edge">
<title>Node19&#45;&gt;Node8</title>
<path fill="none" stroke="midnightblue" d="M197.56,-59.68C209.29,-58.31 221.22,-57.04 232.56,-56 510.38,-30.6 845.63,-16.85 963.78,-12.52"/>
<polygon fill="midnightblue" stroke="midnightblue" points="196.85,-56.24 187.33,-60.9 197.67,-63.19 196.85,-56.24"/>
</g>
<!-- Node20&#45;&gt;Node21 -->
<g id="edge28" class="edge">
<title>Node20&#45;&gt;Node21</title>
<path fill="none" stroke="midnightblue" d="M293.44,-120.4C302.97,-107.77 315.53,-91.1 323.05,-81.13"/>
<polygon fill="midnightblue" stroke="midnightblue" points="290.39,-118.64 287.17,-128.73 295.98,-122.86 290.39,-118.64"/>
</g>
<!-- Node21&#45;&gt;Node8 -->
<g id="edge29" class="edge">
<title>Node21&#45;&gt;Node8</title>
<path fill="none" stroke="midnightblue" d="M391.82,-60.52C403.35,-58.87 415.3,-57.28 426.56,-56 626.61,-33.33 866.72,-18.71 963.73,-13.33"/>
<polygon fill="midnightblue" stroke="midnightblue" points="391.21,-57.08 381.82,-61.99 392.22,-64 391.21,-57.08"/>
</g>
<!-- Node22&#45;&gt;Node23 -->
<g id="edge31" class="edge">
<title>Node22&#45;&gt;Node23</title>
<path fill="none" stroke="midnightblue" d="M797.37,-116.02C806.76,-106.34 817.58,-95.17 825.91,-86.58"/>
<polygon fill="midnightblue" stroke="midnightblue" points="794.67,-113.78 790.23,-123.4 799.7,-118.65 794.67,-113.78"/>
</g>
<!-- Node23&#45;&gt;Node8 -->
<g id="edge32" class="edge">
<title>Node23&#45;&gt;Node8</title>
<path fill="none" stroke="midnightblue" d="M889.13,-52.94C920.08,-41.98 958.58,-28.35 983.11,-19.66"/>
<polygon fill="midnightblue" stroke="midnightblue" points="887.63,-49.76 879.37,-56.4 889.97,-56.36 887.63,-49.76"/>
</g>
<!-- Node24&#45;&gt;Node25 -->
<g id="edge34" class="edge">
<title>Node24&#45;&gt;Node25</title>
<path fill="none" stroke="midnightblue" d="M1210.97,-113.7C1208.44,-104.59 1205.65,-94.49 1203.46,-86.58"/>
<polygon fill="midnightblue" stroke="midnightblue" points="1207.61,-114.69 1213.65,-123.4 1214.36,-112.82 1207.61,-114.69"/>
</g>
<!-- Node25&#45;&gt;Node8 -->
<g id="edge35" class="edge">
<title>Node25&#45;&gt;Node8</title>
<path fill="none" stroke="midnightblue" d="M1144.25,-53.36C1108.53,-42.29 1063.6,-28.37 1035.21,-19.57"/>
<polygon fill="midnightblue" stroke="midnightblue" points="1143.47,-56.78 1154.06,-56.4 1145.54,-50.1 1143.47,-56.78"/>
</g>
<!-- Node26&#45;&gt;Node27 -->
<g id="edge37" class="edge">
<title>Node26&#45;&gt;Node27</title>
<path fill="none" stroke="midnightblue" d="M1631.8,-117.45C1617.95,-107.45 1601.54,-95.6 1589.05,-86.58"/>
<polygon fill="midnightblue" stroke="midnightblue" points="1629.87,-120.38 1640.03,-123.4 1633.97,-114.7 1629.87,-120.38"/>
</g>
<!-- Node27&#45;&gt;Node8 -->
<g id="edge38" class="edge">
<title>Node27&#45;&gt;Node8</title>
<path fill="none" stroke="midnightblue" d="M1485.03,-56C1318.68,-34.19 1133.74,-19.85 1051.18,-13.98"/>
<polygon fill="midnightblue" stroke="midnightblue" points="1484.57,-59.47 1494.95,-57.31 1485.49,-52.53 1484.57,-59.47"/>
</g>
<!-- Node29 -->
<g id="node29" class="node">
<title>Node29</title>
<g id="a_node29"><a xlink:href="VertexWaveScene_8h.html" target="_top" xlink:title=" ">
<polygon fill="none" stroke="black" points="932.06,-56.5 932.06,-86.5 1083.06,-86.5 1083.06,-56.5 932.06,-56.5"/>
<text text-anchor="start" x="940.06" y="-74.5" font-family="Helvetica,sans-Serif" font-size="10.00">include/Scenes/VertexWave</text>
<text text-anchor="middle" x="1007.56" y="-63.5" font-family="Helvetica,sans-Serif" font-size="10.00">Scene.h</text>
</a>
</g>
</g>
<!-- Node28&#45;&gt;Node29 -->
<g id="edge40" class="edge">
<title>Node28&#45;&gt;Node29</title>
<path fill="none" stroke="midnightblue" d="M964.7,-116.02C974.24,-106.34 985.23,-95.17 993.7,-86.58"/>
<polygon fill="midnightblue" stroke="midnightblue" points="961.97,-113.81 957.44,-123.4 966.95,-118.73 961.97,-113.81"/>
</g>
<!-- Node29&#45;&gt;Node8 -->
<g id="edge41" class="edge">
<title>Node29&#45;&gt;Node8</title>
<path fill="none" stroke="midnightblue" d="M1007.56,-46.29C1007.56,-36.86 1007.56,-26.65 1007.56,-19.66"/>
<polygon fill="midnightblue" stroke="midnightblue" points="1004.06,-46.4 1007.56,-56.4 1011.06,-46.4 1004.06,-46.4"/>
</g>
<!-- Node30&#45;&gt;Node12 -->
<g id="edge51" class="edge">
<title>Node30&#45;&gt;Node12</title>
<path fill="none" stroke="midnightblue" d="M1262.44,-245.04C1184.95,-234.34 1063.73,-217.6 995.23,-208.14"/>
<polygon fill="midnightblue" stroke="midnightblue" points="1262.22,-248.54 1272.6,-246.44 1263.17,-241.61 1262.22,-248.54"/>
</g>
<!-- Node31&#45;&gt;Node7 -->
<g id="edge53" class="edge">
<title>Node31&#45;&gt;Node7</title>
<path fill="none" stroke="midnightblue" d="M1120.75,-126.45C1126.35,-125.11 1132.08,-123.91 1137.56,-123 1363.93,-85.59 1424.99,-116.28 1652.56,-87 1664.43,-85.47 1677.24,-83.28 1688.94,-81.06"/>
<polygon fill="midnightblue" stroke="midnightblue" points="1119.72,-123.1 1110.88,-128.94 1121.44,-129.88 1119.72,-123.1"/>
</g>
<!-- Node31&#45;&gt;Node14 -->
<g id="edge61" class="edge">
<title>Node31&#45;&gt;Node14</title>
<path fill="none" stroke="midnightblue" d="M1123.3,-126.44C1128.1,-125.23 1132.93,-124.06 1137.56,-123 1197.62,-109.24 1266.06,-96 1317.5,-86.53"/>
<polygon fill="midnightblue" stroke="midnightblue" points="1122.4,-123.06 1113.59,-128.94 1124.15,-129.84 1122.4,-123.06"/>
</g>
<!-- Node31&#45;&gt;Node16 -->
<g id="edge57" class="edge">
<title>Node31&#45;&gt;Node16</title>
<path fill="none" stroke="midnightblue" d="M1042.44,-126.49C1037.12,-125.21 1031.72,-124.01 1026.56,-123 907.3,-99.73 875.57,-105.97 755.56,-87 752.8,-86.56 750,-86.11 747.16,-85.64"/>
<polygon fill="midnightblue" stroke="midnightblue" points="1041.93,-129.97 1052.48,-129 1043.63,-123.18 1041.93,-129.97"/>
</g>
<!-- Node31&#45;&gt;Node17 -->
<g id="edge60" class="edge">
<title>Node31&#45;&gt;Node17</title>
<path fill="none" stroke="midnightblue" d="M1043.46,-126.48C1037.82,-125.15 1032.06,-123.94 1026.56,-123 837.49,-90.85 786.81,-111.15 596.56,-87 593.74,-86.64 590.86,-86.26 587.97,-85.85"/>
<polygon fill="midnightblue" stroke="midnightblue" points="1042.86,-129.93 1053.41,-128.95 1044.55,-123.14 1042.86,-129.93"/>
</g>
<!-- Node31&#45;&gt;Node19 -->
<g id="edge56" class="edge">
<title>Node31&#45;&gt;Node19</title>
<path fill="none" stroke="midnightblue" d="M1044.5,-126.52C1038.54,-125.12 1032.41,-123.88 1026.56,-123 677.24,-70.44 584.54,-116.93 232.56,-87 217.9,-85.75 202.23,-84.05 187.32,-82.25"/>
<polygon fill="midnightblue" stroke="midnightblue" points="1043.75,-129.94 1054.3,-128.96 1045.45,-123.15 1043.75,-129.94"/>
</g>
<!-- Node31&#45;&gt;Node21 -->
<g id="edge55" class="edge">
<title>Node31&#45;&gt;Node21</title>
<path fill="none" stroke="midnightblue" d="M1044.29,-126.55C1038.39,-125.16 1032.34,-123.91 1026.56,-123 762.68,-81.32 692.26,-114.77 426.56,-87 411.65,-85.44 395.53,-83.24 380.8,-81.03"/>
<polygon fill="midnightblue" stroke="midnightblue" points="1043.45,-129.95 1054,-128.97 1045.15,-123.15 1043.45,-129.95"/>
</g>
<!-- Node31&#45;&gt;Node23 -->
<g id="edge58" class="edge">
<title>Node31&#45;&gt;Node23</title>
<path fill="none" stroke="midnightblue" d="M1040.83,-126.34C999.68,-115.33 936.66,-98.47 892.12,-86.56"/>
<polygon fill="midnightblue" stroke="midnightblue" points="1039.97,-129.73 1050.54,-128.94 1041.78,-122.97 1039.97,-129.73"/>
</g>
<!-- Node31&#45;&gt;Node25 -->
<g id="edge54" class="edge">
<title>Node31&#45;&gt;Node25</title>
<path fill="none" stroke="midnightblue" d="M1107.3,-123.75C1126.97,-112.83 1154.37,-97.6 1174.2,-86.59"/>
<polygon fill="midnightblue" stroke="midnightblue" points="1105.38,-120.82 1098.34,-128.73 1108.78,-126.94 1105.38,-120.82"/>
</g>
<!-- Node31&#45;&gt;Node27 -->
<g id="edge59" class="edge">
<title>Node31&#45;&gt;Node27</title>
<path fill="none" stroke="midnightblue" d="M1121.56,-126.42C1126.91,-125.14 1132.35,-123.95 1137.56,-123 1290.52,-95.1 1331.52,-108.24 1485.56,-87 1488.64,-86.58 1491.77,-86.12 1494.94,-85.65"/>
<polygon fill="midnightblue" stroke="midnightblue" points="1120.32,-123.13 1111.48,-128.98 1122.04,-129.91 1120.32,-123.13"/>
</g>
<!-- Node31&#45;&gt;Node29 -->
<g id="edge62" class="edge">
<title>Node31&#45;&gt;Node29</title>
<path fill="none" stroke="midnightblue" d="M1064.59,-121.93C1052.19,-111.18 1035.83,-97 1023.81,-86.59"/>
<polygon fill="midnightblue" stroke="midnightblue" points="1062.59,-124.83 1072.44,-128.73 1067.18,-119.54 1062.59,-124.83"/>
</g>
<!-- Node33&#45;&gt;Node6 -->
<g id="edge69" class="edge">
<title>Node33&#45;&gt;Node6</title>
<path fill="none" stroke="midnightblue" d="M1757.52,-352.38C1744.15,-342.62 1727,-330.11 1715.66,-321.83"/>
<polygon fill="midnightblue" stroke="midnightblue" points="1755.53,-355.26 1765.67,-358.32 1759.65,-349.6 1755.53,-355.26"/>
</g>
<!-- Node33&#45;&gt;Node34 -->
<g id="edge70" class="edge">
<title>Node33&#45;&gt;Node34</title>
<path fill="none" stroke="midnightblue" d="M1790.98,-350.14C1798.47,-340.74 1807.49,-329.4 1813.59,-321.75"/>
<polygon fill="midnightblue" stroke="midnightblue" points="1788.15,-348.08 1784.66,-358.08 1793.62,-352.44 1788.15,-348.08"/>
</g>
</g>
</svg>
