<?xml version="1.0" encoding="UTF-8" standalone="no"?>
<!DOCTYPE svg PUBLIC "-//W3C//DTD SVG 1.1//EN"
 "http://www.w3.org/Graphics/SVG/1.1/DTD/svg11.dtd">
<!-- Generated by graphviz version 2.43.0 (0)
 -->
<!-- Title: include/ZBuffer.h Pages: 1 -->
<svg width="1659pt" height="274pt"
 viewBox="0.00 0.00 1658.50 274.00" xmlns="http://www.w3.org/2000/svg" xmlns:xlink="http://www.w3.org/1999/xlink">
<g id="graph0" class="graph" transform="scale(1 1) rotate(0) translate(4 270)">
<title>include/ZBuffer.h</title>
<!-- Node1 -->
<g id="node1" class="node">
<title>Node1</title>
<g id="a_node1"><a xlink:title=" ">
<polygon fill="#bfbfbf" stroke="black" points="749.5,-246.5 749.5,-265.5 848.5,-265.5 848.5,-246.5 749.5,-246.5"/>
<text text-anchor="middle" x="799" y="-253.5" font-family="Helvetica,sans-Serif" font-size="10.00">include/ZBuffer.h</text>
</a>
</g>
</g>
<!-- Node2 -->
<g id="node2" class="node">
<title>Node2</title>
<g id="a_node2"><a xlink:href="Pipeline_8h.html" target="_top" xlink:title=" ">
<polygon fill="none" stroke="black" points="747.5,-190.5 747.5,-209.5 850.5,-209.5 850.5,-190.5 747.5,-190.5"/>
<text text-anchor="middle" x="799" y="-197.5" font-family="Helvetica,sans-Serif" font-size="10.00">include/Pipeline.h</text>
</a>
</g>
</g>
<!-- Node1&#45;&gt;Node2 -->
<g id="edge1" class="edge">
<title>Node1&#45;&gt;Node2</title>
<path fill="none" stroke="midnightblue" d="M799,-235.8C799,-226.91 799,-216.78 799,-209.75"/>
<polygon fill="midnightblue" stroke="midnightblue" points="795.5,-236.08 799,-246.08 802.5,-236.08 795.5,-236.08"/>
</g>
<!-- Node3 -->
<g id="node3" class="node">
<title>Node3</title>
<g id="a_node3"><a xlink:href="GeometryFlatEffect_8h.html" target="_top" xlink:title=" ">
<polygon fill="none" stroke="black" points="0,-123.5 0,-153.5 140,-153.5 140,-123.5 0,-123.5"/>
<text text-anchor="start" x="8" y="-141.5" font-family="Helvetica,sans-Serif" font-size="10.00">include/Effects/Geometry</text>
<text text-anchor="middle" x="70" y="-130.5" font-family="Helvetica,sans-Serif" font-size="10.00">FlatEffect.h</text>
</a>
</g>
</g>
<!-- Node2&#45;&gt;Node3 -->
<g id="edge2" class="edge">
<title>Node2&#45;&gt;Node3</title>
<path fill="none" stroke="midnightblue" d="M737.39,-196.78C622.39,-192.18 367.38,-179.79 154,-154 149.45,-153.45 144.76,-152.82 140.05,-152.14"/>
<polygon fill="midnightblue" stroke="midnightblue" points="737.28,-200.28 747.41,-197.18 737.56,-193.28 737.28,-200.28"/>
</g>
<!-- Node4 -->
<g id="node4" class="node">
<title>Node4</title>
<g id="a_node4"><a xlink:href="GeometryFlatScene_8h.html" target="_top" xlink:title=" ">
<polygon fill="none" stroke="black" points="38,-56.5 38,-86.5 198,-86.5 198,-56.5 38,-56.5"/>
<text text-anchor="start" x="46" y="-74.5" font-family="Helvetica,sans-Serif" font-size="10.00">include/Scenes/GeometryFlat</text>
<text text-anchor="middle" x="118" y="-63.5" font-family="Helvetica,sans-Serif" font-size="10.00">Scene.h</text>
</a>
</g>
</g>
<!-- Node2&#45;&gt;Node4 -->
<g id="edge35" class="edge">
<title>Node2&#45;&gt;Node4</title>
<path fill="none" stroke="midnightblue" d="M737.27,-198.98C606.99,-198.18 308.26,-192.1 215,-154 178.96,-139.28 146.39,-105.95 129.71,-86.79"/>
<polygon fill="midnightblue" stroke="midnightblue" points="737.46,-202.48 747.48,-199.04 737.49,-195.48 737.46,-202.48"/>
</g>
<!-- Node6 -->
<g id="node6" class="node">
<title>Node6</title>
<g id="a_node6"><a xlink:href="SolidEffect_8h.html" target="_top" xlink:title=" ">
<polygon fill="none" stroke="black" points="234,-129 234,-148 386,-148 386,-129 234,-129"/>
<text text-anchor="middle" x="310" y="-136" font-family="Helvetica,sans-Serif" font-size="10.00">include/Effects/SolidEffect.h</text>
</a>
</g>
</g>
<!-- Node2&#45;&gt;Node6 -->
<g id="edge5" class="edge">
<title>Node2&#45;&gt;Node6</title>
<path fill="none" stroke="midnightblue" d="M737.05,-192.93C658.5,-185.03 518.98,-170.28 400,-154 387.14,-152.24 373.29,-150.12 360.39,-148.05"/>
<polygon fill="midnightblue" stroke="midnightblue" points="736.95,-196.44 747.25,-193.96 737.65,-189.48 736.95,-196.44"/>
</g>
<!-- Node7 -->
<g id="node7" class="node">
<title>Node7</title>
<g id="a_node7"><a xlink:href="CubeSolidScene_8h.html" target="_top" xlink:title=" ">
<polygon fill="none" stroke="black" points="216.5,-56.5 216.5,-86.5 357.5,-86.5 357.5,-56.5 216.5,-56.5"/>
<text text-anchor="start" x="224.5" y="-74.5" font-family="Helvetica,sans-Serif" font-size="10.00">include/Scenes/CubeSolid</text>
<text text-anchor="middle" x="287" y="-63.5" font-family="Helvetica,sans-Serif" font-size="10.00">Scene.h</text>
</a>
</g>
</g>
<!-- Node2&#45;&gt;Node7 -->
<g id="edge31" class="edge">
<title>Node2&#45;&gt;Node7</title>
<path fill="none" stroke="midnightblue" d="M737.11,-198.78C595.85,-197.63 259.22,-191.01 225,-154 204.6,-131.94 238.16,-103.49 263.32,-86.7"/>
<polygon fill="midnightblue" stroke="midnightblue" points="737.31,-202.28 747.34,-198.86 737.36,-195.28 737.31,-202.28"/>
</g>
<!-- Node8 -->
<g id="node8" class="node">
<title>Node8</title>
<g id="a_node8"><a xlink:href="DoubleCubeScene_8h.html" target="_top" xlink:title=" ">
<polygon fill="none" stroke="black" points="376,-56.5 376,-86.5 528,-86.5 528,-56.5 376,-56.5"/>
<text text-anchor="start" x="384" y="-74.5" font-family="Helvetica,sans-Serif" font-size="10.00">include/Scenes/DoubleCube</text>
<text text-anchor="middle" x="452" y="-63.5" font-family="Helvetica,sans-Serif" font-size="10.00">Scene.h</text>
</a>
</g>
</g>
<!-- Node2&#45;&gt;Node8 -->
<g id="edge34" class="edge">
<title>Node2&#45;&gt;Node8</title>
<path fill="none" stroke="midnightblue" d="M736.94,-195.79C637.8,-190.01 452.77,-176.35 433,-154 416.35,-135.17 430.88,-104.57 442.05,-86.71"/>
<polygon fill="midnightblue" stroke="midnightblue" points="736.95,-199.29 747.13,-196.37 737.35,-192.3 736.95,-199.29"/>
</g>
<!-- Node9 -->
<g id="node9" class="node">
<title>Node9</title>
<g id="a_node9"><a xlink:href="SolidGeometryEffect_8h.html" target="_top" xlink:title=" ">
<polygon fill="none" stroke="black" points="442,-123.5 442,-153.5 606,-153.5 606,-123.5 442,-123.5"/>
<text text-anchor="start" x="450" y="-141.5" font-family="Helvetica,sans-Serif" font-size="10.00">include/Effects/SolidGeometry</text>
<text text-anchor="middle" x="524" y="-130.5" font-family="Helvetica,sans-Serif" font-size="10.00">Effect.h</text>
</a>
</g>
</g>
<!-- Node2&#45;&gt;Node9 -->
<g id="edge10" class="edge">
<title>Node2&#45;&gt;Node9</title>
<path fill="none" stroke="midnightblue" d="M749.79,-188.35C704.85,-178.63 638.09,-164.18 588.81,-153.52"/>
<polygon fill="midnightblue" stroke="midnightblue" points="749.09,-191.78 759.6,-190.48 750.57,-184.94 749.09,-191.78"/>
</g>
<!-- Node10 -->
<g id="node10" class="node">
<title>Node10</title>
<g id="a_node10"><a xlink:href="CubeSolidGeometryScene_8h.html" target="_top" xlink:title=" ">
<polygon fill="none" stroke="black" points="546.5,-56.5 546.5,-86.5 687.5,-86.5 687.5,-56.5 546.5,-56.5"/>
<text text-anchor="start" x="554.5" y="-74.5" font-family="Helvetica,sans-Serif" font-size="10.00">include/Scenes/CubeSolid</text>
<text text-anchor="middle" x="617" y="-63.5" font-family="Helvetica,sans-Serif" font-size="10.00">GeometryScene.h</text>
</a>
</g>
</g>
<!-- Node2&#45;&gt;Node10 -->
<g id="edge30" class="edge">
<title>Node2&#45;&gt;Node10</title>
<path fill="none" stroke="midnightblue" d="M737.58,-191.94C709.03,-185.92 676.31,-174.73 653,-154 632.89,-136.11 623.49,-104.89 619.52,-86.72"/>
<polygon fill="midnightblue" stroke="midnightblue" points="737,-195.4 747.49,-193.87 738.34,-188.53 737,-195.4"/>
</g>
<!-- Node11 -->
<g id="node11" class="node">
<title>Node11</title>
<g id="a_node11"><a xlink:href="TextureEffect_8h.html" target="_top" xlink:title=" ">
<polygon fill="none" stroke="black" points="662,-129 662,-148 826,-148 826,-129 662,-129"/>
<text text-anchor="middle" x="744" y="-136" font-family="Helvetica,sans-Serif" font-size="10.00">include/Effects/TextureEffect.h</text>
</a>
</g>
</g>
<!-- Node2&#45;&gt;Node11 -->
<g id="edge13" class="edge">
<title>Node2&#45;&gt;Node11</title>
<path fill="none" stroke="midnightblue" d="M784.21,-183C773.8,-171.74 760.27,-157.1 751.87,-148.01"/>
<polygon fill="midnightblue" stroke="midnightblue" points="781.76,-185.51 791.12,-190.48 786.9,-180.76 781.76,-185.51"/>
</g>
<!-- Node12 -->
<g id="node12" class="node">
<title>Node12</title>
<g id="a_node12"><a xlink:href="CubeSkinScene_8h.html" target="_top" xlink:title=" ">
<polygon fill="none" stroke="black" points="706,-62 706,-81 882,-81 882,-62 706,-62"/>
<text text-anchor="middle" x="794" y="-69" font-family="Helvetica,sans-Serif" font-size="10.00">include/Scenes/CubeSkinScene.h</text>
</a>
</g>
</g>
<!-- Node2&#45;&gt;Node12 -->
<g id="edge29" class="edge">
<title>Node2&#45;&gt;Node12</title>
<path fill="none" stroke="midnightblue" d="M816.4,-182.82C823.63,-174.92 831.21,-164.79 835,-154 839.56,-141 839.61,-135.98 835,-123 828.96,-105.97 814.45,-90.5 804.42,-81.29"/>
<polygon fill="midnightblue" stroke="midnightblue" points="813.67,-180.6 809.16,-190.19 818.67,-185.51 813.67,-180.6"/>
</g>
<!-- Node13 -->
<g id="node13" class="node">
<title>Node13</title>
<g id="a_node13"><a xlink:href="VertexColorEffect_8h.html" target="_top" xlink:title=" ">
<polygon fill="none" stroke="black" points="882,-123.5 882,-153.5 1030,-153.5 1030,-123.5 882,-123.5"/>
<text text-anchor="start" x="890" y="-141.5" font-family="Helvetica,sans-Serif" font-size="10.00">include/Effects/VertexColor</text>
<text text-anchor="middle" x="956" y="-130.5" font-family="Helvetica,sans-Serif" font-size="10.00">Effect.h</text>
</a>
</g>
</g>
<!-- Node2&#45;&gt;Node13 -->
<g id="edge16" class="edge">
<title>Node2&#45;&gt;Node13</title>
<path fill="none" stroke="midnightblue" d="M831.07,-186.85C856.57,-177.18 892.28,-163.65 919,-153.52"/>
<polygon fill="midnightblue" stroke="midnightblue" points="829.6,-183.66 821.49,-190.48 832.09,-190.2 829.6,-183.66"/>
</g>
<!-- Node14 -->
<g id="node14" class="node">
<title>Node14</title>
<g id="a_node14"><a xlink:href="CubeVertexColorScene_8h.html" target="_top" xlink:title=" ">
<polygon fill="none" stroke="black" points="899.5,-56.5 899.5,-86.5 1048.5,-86.5 1048.5,-56.5 899.5,-56.5"/>
<text text-anchor="start" x="907.5" y="-74.5" font-family="Helvetica,sans-Serif" font-size="10.00">include/Scenes/CubeVertex</text>
<text text-anchor="middle" x="974" y="-63.5" font-family="Helvetica,sans-Serif" font-size="10.00">ColorScene.h</text>
</a>
</g>
</g>
<!-- Node2&#45;&gt;Node14 -->
<g id="edge32" class="edge">
<title>Node2&#45;&gt;Node14</title>
<path fill="none" stroke="midnightblue" d="M860.98,-196.12C924.42,-191.71 1016.78,-180.77 1039,-154 1058.3,-130.74 1024.76,-103.15 999.11,-86.77"/>
<polygon fill="midnightblue" stroke="midnightblue" points="860.42,-192.64 850.67,-196.79 860.87,-199.63 860.42,-192.64"/>
</g>
<!-- Node15 -->
<g id="node15" class="node">
<title>Node15</title>
<g id="a_node15"><a xlink:href="VertexFlatEffect_8h.html" target="_top" xlink:title=" ">
<polygon fill="none" stroke="black" points="1086.5,-123.5 1086.5,-153.5 1227.5,-153.5 1227.5,-123.5 1086.5,-123.5"/>
<text text-anchor="start" x="1094.5" y="-141.5" font-family="Helvetica,sans-Serif" font-size="10.00">include/Effects/VertexFlat</text>
<text text-anchor="middle" x="1157" y="-130.5" font-family="Helvetica,sans-Serif" font-size="10.00">Effect.h</text>
</a>
</g>
</g>
<!-- Node2&#45;&gt;Node15 -->
<g id="edge19" class="edge">
<title>Node2&#45;&gt;Node15</title>
<path fill="none" stroke="midnightblue" d="M860.59,-188.95C915.93,-179.89 999.42,-166.17 1072,-154 1076.58,-153.23 1081.29,-152.44 1086.04,-151.63"/>
<polygon fill="midnightblue" stroke="midnightblue" points="859.89,-185.52 850.59,-190.58 861.02,-192.42 859.89,-185.52"/>
</g>
<!-- Node16 -->
<g id="node16" class="node">
<title>Node16</title>
<g id="a_node16"><a xlink:href="CubeFlatIndependentScene_8h.html" target="_top" xlink:title=" ">
<polygon fill="none" stroke="black" points="1066.5,-56.5 1066.5,-86.5 1263.5,-86.5 1263.5,-56.5 1066.5,-56.5"/>
<text text-anchor="start" x="1074.5" y="-74.5" font-family="Helvetica,sans-Serif" font-size="10.00">include/Scenes/CubeFlatIndependent</text>
<text text-anchor="middle" x="1165" y="-63.5" font-family="Helvetica,sans-Serif" font-size="10.00">Scene.h</text>
</a>
</g>
</g>
<!-- Node2&#45;&gt;Node16 -->
<g id="edge28" class="edge">
<title>Node2&#45;&gt;Node16</title>
<path fill="none" stroke="midnightblue" d="M860.59,-197.14C975.07,-193.04 1211.33,-181.35 1236,-154 1257.06,-130.66 1220.16,-102.97 1192.14,-86.62"/>
<polygon fill="midnightblue" stroke="midnightblue" points="860.44,-193.64 850.57,-197.49 860.68,-200.64 860.44,-193.64"/>
</g>
<!-- Node17 -->
<g id="node17" class="node">
<title>Node17</title>
<g id="a_node17"><a xlink:href="VertexPositionColorEffect_8h.html" target="_top" xlink:title=" ">
<polygon fill="none" stroke="black" points="1284.5,-123.5 1284.5,-153.5 1445.5,-153.5 1445.5,-123.5 1284.5,-123.5"/>
<text text-anchor="start" x="1292.5" y="-141.5" font-family="Helvetica,sans-Serif" font-size="10.00">include/Effects/VertexPosition</text>
<text text-anchor="middle" x="1365" y="-130.5" font-family="Helvetica,sans-Serif" font-size="10.00">ColorEffect.h</text>
</a>
</g>
</g>
<!-- Node2&#45;&gt;Node17 -->
<g id="edge22" class="edge">
<title>Node2&#45;&gt;Node17</title>
<path fill="none" stroke="midnightblue" d="M860.72,-194.22C950.83,-186.98 1123.61,-172.15 1270,-154 1274.72,-153.41 1279.56,-152.78 1284.45,-152.11"/>
<polygon fill="midnightblue" stroke="midnightblue" points="860.37,-190.73 850.68,-195.02 860.93,-197.71 860.37,-190.73"/>
</g>
<!-- Node18 -->
<g id="node18" class="node">
<title>Node18</title>
<g id="a_node18"><a xlink:href="CubeVertexPositionColorScene_8h.html" target="_top" xlink:title=" ">
<polygon fill="none" stroke="black" points="1290.5,-56.5 1290.5,-86.5 1439.5,-86.5 1439.5,-56.5 1290.5,-56.5"/>
<text text-anchor="start" x="1298.5" y="-74.5" font-family="Helvetica,sans-Serif" font-size="10.00">include/Scenes/CubeVertex</text>
<text text-anchor="middle" x="1365" y="-63.5" font-family="Helvetica,sans-Serif" font-size="10.00">PositionColorScene.h</text>
</a>
</g>
</g>
<!-- Node2&#45;&gt;Node18 -->
<g id="edge33" class="edge">
<title>Node2&#45;&gt;Node18</title>
<path fill="none" stroke="midnightblue" d="M860.96,-199.44C1016.53,-199.88 1414.06,-196.78 1454,-154 1477.52,-128.81 1434.06,-102.34 1400,-86.64"/>
<polygon fill="midnightblue" stroke="midnightblue" points="860.64,-195.93 850.63,-199.4 860.61,-202.93 860.64,-195.93"/>
</g>
<!-- Node19 -->
<g id="node19" class="node">
<title>Node19</title>
<g id="a_node19"><a xlink:href="WaveVertexTextureEffect_8h.html" target="_top" xlink:title=" ">
<polygon fill="none" stroke="black" points="1501.5,-123.5 1501.5,-153.5 1650.5,-153.5 1650.5,-123.5 1501.5,-123.5"/>
<text text-anchor="start" x="1509.5" y="-141.5" font-family="Helvetica,sans-Serif" font-size="10.00">include/Effects/WaveVertex</text>
<text text-anchor="middle" x="1576" y="-130.5" font-family="Helvetica,sans-Serif" font-size="10.00">TextureEffect.h</text>
</a>
</g>
</g>
<!-- Node2&#45;&gt;Node19 -->
<g id="edge25" class="edge">
<title>Node2&#45;&gt;Node19</title>
<path fill="none" stroke="midnightblue" d="M860.74,-197C981.53,-192.64 1257.43,-180.46 1488,-154 1492.31,-153.51 1496.72,-152.95 1501.18,-152.34"/>
<polygon fill="midnightblue" stroke="midnightblue" points="860.45,-193.51 850.58,-197.36 860.7,-200.5 860.45,-193.51"/>
</g>
<!-- Node3&#45;&gt;Node4 -->
<g id="edge3" class="edge">
<title>Node3&#45;&gt;Node4</title>
<path fill="none" stroke="midnightblue" d="M86.5,-115.16C93.5,-105.68 101.44,-94.92 107.61,-86.58"/>
<polygon fill="midnightblue" stroke="midnightblue" points="83.54,-113.27 80.42,-123.4 89.17,-117.43 83.54,-113.27"/>
</g>
<!-- Node5 -->
<g id="node5" class="node">
<title>Node5</title>
<g id="a_node5"><a xlink:href="Engine_8cpp.html" target="_top" xlink:title=" ">
<polygon fill="none" stroke="black" points="750.5,-0.5 750.5,-19.5 837.5,-19.5 837.5,-0.5 750.5,-0.5"/>
<text text-anchor="middle" x="794" y="-7.5" font-family="Helvetica,sans-Serif" font-size="10.00">src/Engine.cpp</text>
</a>
</g>
</g>
<!-- Node4&#45;&gt;Node5 -->
<g id="edge4" class="edge">
<title>Node4&#45;&gt;Node5</title>
<path fill="none" stroke="midnightblue" d="M207.94,-55.96C417.03,-31.36 654.38,-17.91 750.43,-13.07"/>
<polygon fill="midnightblue" stroke="midnightblue" points="207.53,-52.48 198.01,-57.14 208.35,-59.43 207.53,-52.48"/>
</g>
<!-- Node6&#45;&gt;Node7 -->
<g id="edge6" class="edge">
<title>Node6&#45;&gt;Node7</title>
<path fill="none" stroke="midnightblue" d="M303.48,-119.06C299.83,-108.75 295.35,-96.1 291.99,-86.59"/>
<polygon fill="midnightblue" stroke="midnightblue" points="300.26,-120.47 306.9,-128.73 306.86,-118.14 300.26,-120.47"/>
</g>
<!-- Node6&#45;&gt;Node8 -->
<g id="edge8" class="edge">
<title>Node6&#45;&gt;Node8</title>
<path fill="none" stroke="midnightblue" d="M338.14,-124.62C362.16,-113.63 396.64,-97.84 421.35,-86.53"/>
<polygon fill="midnightblue" stroke="midnightblue" points="336.49,-121.52 328.86,-128.87 339.41,-127.89 336.49,-121.52"/>
</g>
<!-- Node7&#45;&gt;Node5 -->
<g id="edge7" class="edge">
<title>Node7&#45;&gt;Node5</title>
<path fill="none" stroke="midnightblue" d="M367.68,-55.98C513.89,-35.37 674.48,-20.88 750.22,-14.53"/>
<polygon fill="midnightblue" stroke="midnightblue" points="367.03,-52.53 357.62,-57.41 368.02,-59.46 367.03,-52.53"/>
</g>
<!-- Node8&#45;&gt;Node5 -->
<g id="edge9" class="edge">
<title>Node8&#45;&gt;Node5</title>
<path fill="none" stroke="midnightblue" d="M538.53,-55.44C606.08,-43.69 697.12,-27.86 750.29,-18.6"/>
<polygon fill="midnightblue" stroke="midnightblue" points="537.58,-52.06 528.33,-57.22 538.78,-58.96 537.58,-52.06"/>
</g>
<!-- Node9&#45;&gt;Node10 -->
<g id="edge11" class="edge">
<title>Node9&#45;&gt;Node10</title>
<path fill="none" stroke="midnightblue" d="M552.69,-117.45C566.99,-107.45 583.95,-95.6 596.86,-86.58"/>
<polygon fill="midnightblue" stroke="midnightblue" points="550.37,-114.8 544.18,-123.4 554.38,-120.54 550.37,-114.8"/>
</g>
<!-- Node10&#45;&gt;Node5 -->
<g id="edge12" class="edge">
<title>Node10&#45;&gt;Node5</title>
<path fill="none" stroke="midnightblue" d="M668.83,-53.08C701.62,-42.05 742.56,-28.29 768.5,-19.57"/>
<polygon fill="midnightblue" stroke="midnightblue" points="667.31,-49.9 658.95,-56.4 669.54,-56.53 667.31,-49.9"/>
</g>
<!-- Node11&#45;&gt;Node12 -->
<g id="edge14" class="edge">
<title>Node11&#45;&gt;Node12</title>
<path fill="none" stroke="midnightblue" d="M756.87,-120.77C766.62,-108.1 779.61,-91.2 787.36,-81.13"/>
<polygon fill="midnightblue" stroke="midnightblue" points="754.07,-118.67 750.74,-128.73 759.61,-122.94 754.07,-118.67"/>
</g>
<!-- Node12&#45;&gt;Node5 -->
<g id="edge15" class="edge">
<title>Node12&#45;&gt;Node5</title>
<path fill="none" stroke="midnightblue" d="M794,-51.82C794,-41 794,-27.9 794,-19.51"/>
<polygon fill="midnightblue" stroke="midnightblue" points="790.5,-51.98 794,-61.98 797.5,-51.98 790.5,-51.98"/>
</g>
<!-- Node13&#45;&gt;Node14 -->
<g id="edge17" class="edge">
<title>Node13&#45;&gt;Node14</title>
<path fill="none" stroke="midnightblue" d="M962.59,-113.7C965.11,-104.59 967.91,-94.49 970.1,-86.58"/>
<polygon fill="midnightblue" stroke="midnightblue" points="959.2,-112.82 959.91,-123.4 965.95,-114.69 959.2,-112.82"/>
</g>
<!-- Node14&#45;&gt;Node5 -->
<g id="edge18" class="edge">
<title>Node14&#45;&gt;Node5</title>
<path fill="none" stroke="midnightblue" d="M921.72,-53.22C888.3,-42.17 846.42,-28.33 819.93,-19.57"/>
<polygon fill="midnightblue" stroke="midnightblue" points="920.75,-56.58 931.34,-56.4 922.95,-49.94 920.75,-56.58"/>
</g>
<!-- Node15&#45;&gt;Node16 -->
<g id="edge20" class="edge">
<title>Node15&#45;&gt;Node16</title>
<path fill="none" stroke="midnightblue" d="M1159.97,-113.4C1161.08,-104.37 1162.3,-94.41 1163.27,-86.58"/>
<polygon fill="midnightblue" stroke="midnightblue" points="1156.48,-113.04 1158.74,-123.4 1163.43,-113.9 1156.48,-113.04"/>
</g>
<!-- Node16&#45;&gt;Node5 -->
<g id="edge21" class="edge">
<title>Node16&#45;&gt;Node5</title>
<path fill="none" stroke="midnightblue" d="M1067.67,-54.89C993.14,-42.94 893.87,-27.02 837.67,-18"/>
<polygon fill="midnightblue" stroke="midnightblue" points="1067.12,-58.35 1077.55,-56.47 1068.23,-51.44 1067.12,-58.35"/>
</g>
<!-- Node17&#45;&gt;Node18 -->
<g id="edge23" class="edge">
<title>Node17&#45;&gt;Node18</title>
<path fill="none" stroke="midnightblue" d="M1365,-113.11C1365,-104.15 1365,-94.32 1365,-86.58"/>
<polygon fill="midnightblue" stroke="midnightblue" points="1361.5,-113.4 1365,-123.4 1368.5,-113.4 1361.5,-113.4"/>
</g>
<!-- Node18&#45;&gt;Node5 -->
<g id="edge24" class="edge">
<title>Node18&#45;&gt;Node5</title>
<path fill="none" stroke="midnightblue" d="M1280.27,-57.07C1277.48,-56.7 1274.72,-56.34 1272,-56 1112.37,-36.06 921.75,-20.61 837.6,-14.21"/>
<polygon fill="midnightblue" stroke="midnightblue" points="1280.05,-60.57 1290.44,-58.47 1281.01,-53.64 1280.05,-60.57"/>
</g>
<!-- Node20 -->
<g id="node20" class="node">
<title>Node20</title>
<g id="a_node20"><a xlink:href="VertexWaveScene_8h.html" target="_top" xlink:title=" ">
<polygon fill="none" stroke="black" points="1478.5,-56.5 1478.5,-86.5 1629.5,-86.5 1629.5,-56.5 1478.5,-56.5"/>
<text text-anchor="start" x="1486.5" y="-74.5" font-family="Helvetica,sans-Serif" font-size="10.00">include/Scenes/VertexWave</text>
<text text-anchor="middle" x="1554" y="-63.5" font-family="Helvetica,sans-Serif" font-size="10.00">Scene.h</text>
</a>
</g>
</g>
<!-- Node19&#45;&gt;Node20 -->
<g id="edge26" class="edge">
<title>Node19&#45;&gt;Node20</title>
<path fill="none" stroke="midnightblue" d="M1567.94,-113.7C1564.86,-104.59 1561.44,-94.49 1558.76,-86.58"/>
<polygon fill="midnightblue" stroke="midnightblue" points="1564.71,-115.05 1571.23,-123.4 1571.34,-112.8 1564.71,-115.05"/>
</g>
<!-- Node20&#45;&gt;Node5 -->
<g id="edge27" class="edge">
<title>Node20&#45;&gt;Node5</title>
<path fill="none" stroke="midnightblue" d="M1468.21,-58.27C1461.38,-57.44 1454.58,-56.68 1448,-56 1218.74,-32.46 942.96,-18 837.71,-12.99"/>
<polygon fill="midnightblue" stroke="midnightblue" points="1467.87,-61.75 1478.22,-59.5 1468.73,-54.8 1467.87,-61.75"/>
</g>
</g>
</svg>
